<?xml version="1.0" encoding="utf-8"?>
<!-- Generator: Adobe Illustrator 27.6.1, SVG Export Plug-In . SVG Version: 6.00 Build 0)  -->
<svg version="1.1" id="OBJECT" xmlns="http://www.w3.org/2000/svg" xmlns:xlink="http://www.w3.org/1999/xlink" x="0px" y="0px"
	 viewBox="0 0 500 500" enable-background="new 0 0 500 500" xml:space="preserve">
<g>
	<g>
		<path fill="none" d="M283.434,158.581c-0.15,0.32-0.31,0.62-0.46,0.93c-0.21,0.45-0.44,0.91-0.67,1.35
			c-0.04,0.07-0.07,0.15-0.11,0.22c-0.48,0.91-0.98,1.8-1.47,2.649c-0.58,0.99-1.27,2.14-2.05,3.279
			c-1.76,2.779-3.149,4.979-3.149,6.698v0.9c-0.02,4.179-0.07,13.977,2.01,19.436c2.01,5.299,4.439,16.016,4.969,18.436
			c1.9-0.34,4.819-0.83,6.029-0.89c0.95-1.67,3.019-16.166,4.399-25.834c0.96-6.749,1.8-12.597,2.29-14.857
			c-0.75-1.58-6.719-14.257-10.448-22.035c0.61,2.469,0.28,4.979-0.5,7.408C284.064,157.031,283.794,157.811,283.434,158.581z"/>
	</g>
	<g>
		<path fill="none" d="M262.569,97.814c-0.09,0.12-0.19,0.24-0.29,0.35c0.18,1.76,0.99,3.189,2.629,3.999
			c1.04,0.52,2.17,0.52,3.299,0.39C265.508,102.004,262.319,100.364,262.569,97.814z"/>
	</g>
	<g>
		<circle fill="none" cx="276.066" cy="140.395" r="1.13"/>
	</g>
	<g>
		<circle fill="none" cx="234.475" cy="147.004" r="1.13"/>
	</g>
	<g>
		<path fill="none" d="M233.075,175.277c-0.01-0.02-0.02-0.04-0.04-0.07c-0.13-0.18-0.27-0.35-0.4-0.54
			c-1.01-1.54-1.91-3.249-2.709-5.019c-1.25-2.139-2.729-4.569-4.299-6.928c-3.169-4.749-4.699-9.408-5.319-11.657l-12.027,23.965
			c0.31,0.42,0.57,0.89,0.74,1.45l7.388,14.537c1.25-0.52,4.549-1.83,5.599-1.83c0.29,0,0.66-0.06,1.06-0.11
			c1.18-0.17,2.639-0.37,3.539,0.53c0.06,0.06,0.12,0.15,0.18,0.26c1.61-1.79,4.599-8.708,6.439-13.477
			C233.115,176.007,233.035,175.607,233.075,175.277z"/>
	</g>
	<g>
		<path fill="#FFC7A2" d="M283.164,229.895h-5.999c-0.72,0-2.14,0.61-3.509,1.19c-1.62,0.69-3.149,1.33-4.169,1.33
			c-0.81,0-1.23-0.35-1.44-0.64c-0.34-0.49-0.33-1.12-0.26-1.56c-1.92-0.59-2.899-1.23-2.899-1.92v-1.23
			c-0.32-0.36-0.92-1.25-0.43-2.34c0.02-0.04,0.03-0.1,0.05-0.15c-14.497,3.029-25.964,14.377-27.164,15.607
			c-0.35,2.369-4.649,31.603-4.649,51.099c0,15.876,0.85,21.285,2.26,30.253c0.4,2.549,0.85,5.439,1.34,8.908
			c0.87,6.279,4.379,20.096,8.088,34.712c5.489,21.645,11.707,46.17,11.707,54.978c0,5.039,0.27,8.418,0.46,10.878
			c0.04,0.57,0.08,1.09,0.12,1.57l0.05-0.01c0.87,2.529,6.099,5.849,10.978,6.978c2.909,0.67,5.129,0.42,6.249-0.7
			c1.1-1.1,0.58-3.069-0.6-5.429c0,0,0-0.01-0.01-0.01c-0.73-1.47-1.72-3.089-2.729-4.749c-2.34-3.839-4.759-7.798-4.759-11.048
			c0-1.73,0.22-5.899,0.53-11.677c0.91-17.196,2.439-45.98,0.56-55.888c-1.1-5.809-2.699-11.217-4.119-15.976
			c-1.85-6.239-3.449-11.627-3.449-16.146c0-5.249,5.479-16.786,11.817-30.153c3.399-7.158,6.909-14.557,9.818-21.525
			c7.368-17.596,7.278-34.233,7.178-37.382C286.403,229.525,284.574,229.895,283.164,229.895z M251.421,333.952
			c-0.09,0.17-0.31,0.04-0.28-0.11c1-6.839,1.87-13.957,0.61-20.825c-0.02-0.09,0.1-0.13,0.13-0.04
			C254.19,319.945,254.73,327.234,251.421,333.952z"/>
	</g>
	<g>
		<path fill="#FFC7A2" d="M236.514,446.508c3.799,1.06,12.377-2.949,16.636-6.948c0.62-2.2,2.23-8.368,1.2-10.718
			c-1.26-2.879,0.36-8.098-0.36-11.877c-0.72-3.779-4.679-25.734-7.018-32.393c-2.339-6.659-11.707-53.978-12.597-52.548
			c-0.89,1.43-3.959,1.26-3.959,1.26s1.98-1.62,2.519-5.039c0.54-3.419,0.18-7.378-1.98-14.937c-2.16-7.558,0-34.192,0-45.35
			c0-9.798-2.639-31.513-3.279-36.672c-6.499-8.788-10.258-19.166-11.328-22.345c-0.25,0.18-0.6,0.32-1.09,0.32
			c-1.32,0-2.329-2.01-2.999-3.959c-1.84,2.27-7.598,10.138-11.138,23.495c-3.999,15.127-2.849,31.913,3.839,56.118
			c6.159,22.245,17.366,45.27,17.486,45.5c0.03,0.06,0.05,0.14,0.05,0.21c0,0.11,0.3,10.618,4.999,22.375
			c0.78,1.94,1.81,4.409,2.989,7.248c6.169,14.797,16.486,39.561,16.486,50.539c0,12.807-2.289,17.706-6.069,24.245
			c-0.88,1.53-1.84,2.989-2.689,4.269c-1.83,2.769-3.399,5.149-2.959,6.339C235.405,446.028,235.815,446.318,236.514,446.508z"/>
	</g>
	<g>
		<path fill="#FFC7A2" d="M212.41,201.921c0.65,3.039,1.96,6.309,2.849,6.309c0.39,0,0.54-0.14,0.62-0.25
			c0.14-0.17,0.2-0.42,0.22-0.68c-0.05-0.72-0.15-1.43-0.27-2.15c-0.17-0.09-0.33-0.16-0.53-0.16c-0.52,0-0.76,0.43-1.07,0.77
			c-0.01,0-0.01,0-0.01,0c0.02-0.56,0.49-1.14,1.05-1.24c0.13-0.02,0.29-0.01,0.45,0.03c-0.35-1.84-0.85-3.659-1.25-5.469
			c0-0.01,0.02-0.02,0.03-0.01c1.05,1.7,1.79,3.639,2.16,5.609c0.05,0.3,0.12,0.62,0.17,0.95c0.09,0.03,0.22,0.07,0.38,0.11
			c0.48,0.09,0.99,0.08,1.4-0.18c0.98-0.61,0.6-1.66,0.47-2.519c-0.02-0.15-0.05-0.3-0.07-0.46c-0.26-0.11-0.57-0.14-0.8-0.04
			c-0.48,0.21-0.73,0.73-0.92,1.18c-0.01,0.04-0.08,0.04-0.08-0.01c0.09-0.7,0.36-1.43,1.07-1.7c0.22-0.08,0.43-0.09,0.63-0.05
			c-0.02-0.07-0.03-0.14-0.04-0.22c-0.67-2.04-1.21-4.229-1.67-6.279c-0.02-0.05,0.05-0.07,0.07-0.03
			c0.93,1.29,1.57,2.729,2.02,4.249c0.59,1.95,0.72,4.359,2.4,4.699c0.02,0-1.05,0.59,0.05,0.01c1.1-0.59,0.86-1.38,1.02-2.779
			c0,0-0.01-0.15-0.01-0.39c-0.49-0.63-1.24-0.84-2.02-0.33c-0.07,0.04-0.14-0.06-0.09-0.12c0.45-0.51,1.18-0.85,1.86-0.58
			c0.08,0.04,0.16,0.09,0.24,0.14c0-0.78-0.46-7.068-1.7-9.088c-0.01-0.03,0.02-0.05,0.04-0.04c1.11,0.55,1.5,1.64,1.81,2.769
			c0.22,0.81,0.43,1.65,0.59,2.509c0.42,0.98,0.8,1.98,1.37,2.909c0.37,0.61,0.84,1.3,1.6,1.38c0.29,0.02,0.53-0.08,0.77-0.15
			c-0.05-0.92-0.12-1.86-0.19-2.779c-0.17-0.05-0.34-0.09-0.53-0.1c-0.41-0.02-0.66,0.16-1,0.34c-0.01,0-0.02,0-0.02-0.01
			c0.04-0.7,0.91-1,1.5-0.77c-0.29-3.469-0.72-6.529-1.11-6.968c-0.53-0.53-1.66-0.38-2.649-0.23c-0.44,0.06-0.85,0.11-1.21,0.11
			c-0.38,0-1.34,0.3-2.42,0.68c0.23,0.04,0.47,0.1,0.7,0.18c0.06,0.02,0.07,0.11,0,0.12c-0.71,0.17-1.46,0.15-2.149,0.44
			c-0.87,0.37-1.16,1.27-1.68,1.97c-0.04,0.06-0.14,0.04-0.14-0.04c0.01-0.56,0.17-1.04,0.41-1.44c-0.33,0.08-0.67,0.12-0.97,0.18
			c-1.26,0.24-2.579,0.59-3.779,1.06c-0.05,0.02-0.07-0.05-0.03-0.08c1-0.58,1.89-1.25,3.009-1.59c0.18-0.05,0.36-0.11,0.54-0.16
			l-7.938-15.637c-3.129-3.159-7.678-2.949-12.167-2.279c-0.05,0.01-0.07-0.05-0.02-0.06c3.279-1.1,9.218-1.92,12.167,0.64
			l10.828-21.585c0.69-1.57,1.16-3.419,2.19-4.809c1.27-1.71,3.489-1.96,5.019-0.44c0.05,0.05-0.01,0.12-0.07,0.09
			c-2.15-0.95-3.489,0.37-4.509,2.05c0.07,0.33,0.75,3.429,2.549,7.348c-0.25-2.909,0.33-8.158,6.669-11.717
			c-0.94-6.958-1.52-19.236-1.57-24.535c-0.76,0.23-1.52,0.46-2.3,0.7c-4.849,1.46-9.868,2.979-11.677,4.789
			c-4.269,4.269-28.104,47.939-27.214,53.538c0.64,3.989,9.188,9.768,14.847,13.597c2.639,1.78,4.719,3.189,5.649,4.119l4.319,4.319
			C212.34,201.732,212.39,201.822,212.41,201.921z M215.239,194.003c0.08,0.02,0.12,0.14,0.02,0.17c-0.76,0.16-1.34,0.66-1.95,1.11
			c-0.07,0.05-0.16-0.04-0.14-0.11C213.399,194.243,214.379,193.893,215.239,194.003z"/>
	</g>
	<g>
		<path fill="#FFC7A2" d="M280.415,103.913c-2.01-0.44-4.329,0.02-6.668,0.88c0.6,3.209,4.509,24.055,5.729,32.823
			c0.49-0.09,0.85-0.13,1.05-0.16c-0.14-0.98-0.24-1.97-0.33-2.949c-0.46-4.949-0.58-9.908-0.79-14.867c0-0.01,0.02-0.02,0.02,0
			c0.6,4.369,1.3,8.718,1.72,13.107c0.27,2.779,0.6,5.479,1.17,8.158l0.61,1.77c1.72,3.329,13.197,27.694,13.307,27.934
			c0.05,0.11,0.06,0.23,0.04,0.34c-0.48,2.079-1.33,8.048-2.319,14.957c-2.829,19.826-3.819,25.234-4.729,26.424
			c-0.07,1.37,0.06,2.679,0.82,4.119c0.01,0.03-0.02,0.05-0.04,0.03c-0.76-1.04-1.33-2.459-1.4-3.849
			c-1.51,0.05-6.738,1.02-7.518,1.17l-1.15,0.73c1.32,0.22,2.619,0.47,3.889,0.59c0.07,0,0.1,0.12,0.01,0.14
			c-3.439,0.56-10.538-1.06-11.747-0.71c-1.21,0.36-5.679,5.039-6.159,5.819c-0.48,0.77-0.03,1.83-0.15,2.989
			c0.93-1.37,2.289-2.689,2.809-3.299c1.18-1.37,2.16-2.12,4.019-2.2c2.469-0.1,5.049,0.23,7.518,0.31c0.04,0,0.05,0.05,0.01,0.06
			c-2.539,0.63-4.959,0.25-7.528,0.4c-2.369,0.14-7.228,5.269-6.359,7.938c0.7-0.92,1.59-1.79,1.83-2.09
			c2.299-2.809,5.869-2.699,9.308-2.589c0.06,0,0.08,0.09,0.02,0.11c-2.06,0.57-4.649,0.45-6.579,1.29
			c-0.81,0.35-4.519,3.749-4.509,5.249c0.48,0.24,1.32,0.57,2.18,0.81c0.5-0.72,1.14-1.38,1.45-1.68
			c2.529-2.489,5.729-2.959,9.188-2.599c0.04,0,0.06,0.07,0.01,0.08c-1.88,0.56-3.909,0.47-5.749,1.21
			c-1.09,0.44-4.469,2.699-4.589,4.579c0.02,0.09,0.04,0.18,0.09,0.24c0.1,0.14,0.3,0.21,0.59,0.21c0.81,0,2.379-0.67,3.759-1.26
			c1.54-0.65,2.989-1.26,3.919-1.26h5.999c2.679,0,7.028-1.49,9.238-3.689c2.349-2.359,4.799-6.259,10.468-16.676
			c5.719-10.528,11.258-33.313,9.298-43.081C310.038,154.732,287.403,105.443,280.415,103.913z"/>
	</g>
	<g>
		<path fill="#FFC7A2" d="M258.19,156.601c-0.33-2.929-0.55-5.859-1.3-8.758c-0.8-3.109-1.42-6.439-0.74-9.628
			c0.01-0.03,0.06-0.02,0.06,0.01c-0.11,5.919,3.289,11.328,3.169,17.156c2.819-8.668,8.488-13.137,13.117-15.427
			c-1.21-8.598-5.079-27.804-5.869-31.673c-0.31,0.17-0.62,0.35-0.91,0.51c-3.419,1.95-5.489,3.129-6.439,2.18
			c-1.01-1.01-1.33-3.899-1.41-6.369c-0.99,0.78-3.839,2.669-7.288,2.01c-3.149-0.59-7.278-4.839-9.278-7.088
			c-0.63-0.47-1.24-0.95-1.82-1.43c0.29,3.729,0.98,15.637-2.02,18.636c-0.43,0.43-1.04,0.83-1.77,1.22
			c0.15,2.309,1.08,16.516,1.95,24.785C247.352,142.115,255.24,152.212,258.19,156.601z M251.681,118.15
			c1.02-1.85,2.439-2.709,4.539-2.999c3.179-0.43,5.989-0.92,9.038-1.94c0.07-0.02,0.11,0.08,0.05,0.12
			c-4.189,2.519-9.688,1.68-13.277,5.089C251.851,118.6,251.551,118.37,251.681,118.15z M237.964,120.739
			c1.17-0.28,2.309-0.46,3.439-0.88c0.88-0.32,1.74-0.73,2.689-0.81c1.61-0.14,2.839,0.41,3.849,1.63c0.12,0.14-0.03,0.35-0.2,0.26
			c-2-1.02-3.719-1.02-5.829-0.41c-1.34,0.38-2.579,0.62-3.949,0.31C237.904,120.829,237.914,120.749,237.964,120.739z"/>
	</g>
	<g>
		<path fill="#FFC7A2" d="M259.449,99.444c2.779-2.13,4.909-5.359,5.989-9.088c0.52-1.77,0.95-3.719,1.27-5.659
			c-0.01-0.46,0.01-0.92,0.08-1.37c0.15-1.03,0.59-1.9,0.68-2.979c0.04-0.38,0.04-0.78,0.03-1.17c-0.19-1.01-0.37-1.94-1.33-2.519
			c-0.27-0.17-0.55-0.27-0.83-0.38c-0.14,0.25-0.28,0.5-0.53,0.67c0,0.01-0.01,0.01-0.01,0.01c0.26,0.17,0.45,0.3,0.54,0.33
			c0.36,0.11,0.84-0.31,0.84-0.31s-0.17,0.6-1.15,1.25c-0.99,0.65-2.629,1.35-3.929,1.4c0,0,0.3-0.11,0.72-0.29
			c-2.779,0.43-4.899-1.27-5.229-1.55c-0.2,0.15-0.4,0.31-0.59,0.48c0,0,1.59-2.499,4.519-2.539c1.8-0.02,3.069,0.53,3.869,0.99
			c0.09-0.04,0.19-0.08,0.28-0.12c0.2-0.11,0.39-0.24,0.57-0.37c-0.29-0.12-0.58-0.27-0.82-0.52c-0.49-0.51-0.7-1.3-0.72-2.11
			c-1.77,0.33-3.549-0.3-4.959-1.44c-1.32,0.62-2.379,1.16-2.379,1.16c0.15-0.67,0.79-1.3,1.65-1.83c-0.53-0.55-1.01-1.23-1.16-1.94
			c-0.07-0.31-0.06-0.57,0-0.82c-1.29,0-2.569,0.14-3.779-0.41c-1.2-0.54-2.13-1.58-2.779-2.689c-0.88-1.5-1.36-3.359-0.85-4.949
			c-0.88,0.22-1.65-0.09-2.449-0.51c-0.1-0.05-0.2-0.11-0.3-0.16c-1.38-0.05-2.769-0.25-4.119,0.12c-0.95,0.26-1.8,0.76-2.669,1.23
			c-0.31,0.93-0.71,1.8-1.54,2.399c-0.47,0.34-1.01,0.61-1.57,0.83c-0.11,0.69-0.55,1.29-1.11,1.75c0.4,1.91,0.32,4.149-1.15,5.409
			c0.22,0.78-0.11,1.77-0.7,2.28c-0.21,0.19-0.46,0.29-0.72,0.32l-0.02,0.13l-0.22-0.13c-0.33-0.03-0.65-0.18-0.85-0.48
			c-0.54-0.25-1.33-0.54-2.04-0.54c-0.18,0-0.36,0.02-0.52,0.06c-0.4,0.11-0.69,0.35-0.9,0.73c-0.94,1.73,0.01,5.409,1.03,7.268
			c0.34-0.18,0.71-0.28,1.1-0.28c1.64,0,2.919,1.75,2.979,4.019c0.15,0.77,0.43,2.07,0.84,3.499c0.51,1.78,1.22,3.749,2.139,5.139
			c2.1,3.149,9.418,8.448,13.217,9.018C253.491,103.323,256.32,101.844,259.449,99.444z M233.175,80.458
			c-0.96,0.2-1.19-0.79-1.21-1.53c-0.01-0.62,0.05-1.32-0.15-1.92c-0.09,0.02-0.17,0.04-0.27,0.07c-0.45,0.17-0.61,0.55-0.74,0.97
			c-0.21,0.72-0.2,1.51-0.03,2.24c0.01,0.02-0.03,0.04-0.04,0.01c-0.38-0.87-0.62-1.96-0.19-2.869c0.14-0.32,0.63-0.82,1.05-0.87
			c-0.05-0.08-0.12-0.17-0.19-0.24c-0.7-0.7-1.68-0.73-2.05,0.31c-0.18,0.5-0.22,1.02-0.22,1.55c-0.01,0.05-0.08,0.06-0.1,0.01
			c-0.36-1.19-0.25-3.709,1.62-2.949c0.72,0.3,1.37,0.82,1.62,1.58c0.27,0.81-0.43,3.499,0.9,3.609
			C233.185,80.428,233.185,80.458,233.175,80.458z M264.038,75.399c0.02,0.01,0,0.05-0.02,0.04c-3.209-0.99-6.698-0.89-8.848,1.93
			c-0.01,0.02-0.04,0-0.03-0.02C256.87,74.25,261.009,73.71,264.038,75.399z M254.97,84.977c0.74,0.7,1.26,2.01,0.25,2.729
			c-0.03,0.02-0.06-0.01-0.04-0.04c0.47-0.92,0.34-1.82-0.26-2.659C254.9,84.977,254.94,84.947,254.97,84.977z M254.93,87.417
			c-1.1,0.79-1.47,0.49-1.47,0.49s0.1-0.62,0.44-0.88C254.24,86.767,254.93,87.417,254.93,87.417z M253.441,86.517
			c0.86-0.83,0.83-1.89,0.61-2.969c-0.01-0.02,0.03-0.03,0.03-0.01c0.44,0.97,0.78,2.619-0.6,3.039
			C253.441,86.587,253.411,86.537,253.441,86.517z M253.221,88.616c0.02-0.05,0.09-0.03,0.09,0.02c0,0.62-0.1,1.24-0.13,1.86
			c0,0.03-0.05,0.04-0.06,0.01C252.921,89.906,252.901,89.176,253.221,88.616z M249.482,84.107c0.67-1.13,0.88-1.62,0.83-3.239
			c-0.05-1.63-0.31-3.989-0.31-3.989s1.28,3.739,1.23,4.969c-0.05,1.23-0.77,2.309-0.67,3.239c0.11,0.94,1.29,1.28,1.6,1.72
			c0.3,0.45,0.2,1.14-0.16,1.43c-0.02,0.02-0.05,0.03-0.08,0.04c-0.01,0.02-0.01,0.05-0.01,0.08c-0.07,0.44-0.13,0.88-0.19,1.32
			c0,0.02-0.03,0.02-0.03,0c-0.04-0.38-0.1-0.89-0.07-1.37c-0.41-0.05-0.97-0.38-1.31-0.41c-0.47-0.05-1.03,0.34-1.44,0
			c-0.41-0.35-0.77-0.79-0.67-1.58C248.302,85.537,248.822,85.237,249.482,84.107z M248.652,77.199
			c-2.04-2.899-5.519-3.139-8.758-2.27c-0.03,0.01-0.04-0.03-0.02-0.04c3.099-1.57,7.208-0.88,8.808,2.289
			C248.692,77.199,248.662,77.219,248.652,77.199z M236.204,72.39c0.17-0.25,1.64-2.21,3.369-2.439
			c1.85-0.24,7.298,0.54,8.008,2.559c0,0-6.568-2.26-8.008-2.07C238.224,70.63,236.424,72.19,236.204,72.39z M242.643,79.229
			c-1.31-0.1-2.909-0.86-3.869-1.54c-0.96-0.69-1.1-1.3-1.1-1.3s0.46,0.44,0.82,0.35c0.1-0.03,0.29-0.15,0.56-0.31
			c-0.01-0.01-0.01-0.01-0.02-0.01c-0.28-0.21-0.4-0.51-0.55-0.81c-0.01-0.02,0.01-0.03,0.02-0.02c0.22,0.17,0.45,0.34,0.69,0.48
			c0.09,0.05,0.18,0.09,0.27,0.13c0.82-0.43,2.11-0.93,3.909-0.84c2.929,0.15,4.419,2.699,4.419,2.699
			c-0.19-0.17-0.38-0.34-0.58-0.5c-0.33,0.27-2.539,1.91-5.329,1.34C242.323,79.099,242.643,79.229,242.643,79.229z M244.943,92.146
			l-0.56-0.54l0.78,0.06c0.41,0.03,1.33-0.16,2.23-0.34c1.15-0.23,2.339-0.48,3.039-0.42c0.81,0.07,1.14,0.27,1.38,0.43
			c0.15,0.08,0.24,0.14,0.41,0.16c0.21,0.02,0.36-0.03,0.58-0.13c0.27-0.11,0.6-0.24,1.13-0.26c0.97-0.01,4.149,0.79,4.289,0.83
			l0.45,0.11l-0.32,0.35c-0.12,0.12-2.939,3.139-4.469,3.579c-0.61,0.18-1.32,0.28-2.03,0.28c-1.26,0-2.549-0.3-3.429-1.02
			C247.062,94.125,244.972,92.166,244.943,92.146z"/>
	</g>
	<g>
		<path fill="#DB1A21" d="M250.401,92.356c-0.01-0.04,0.05-0.07,0.07-0.03c0.11,0.17,0.25,0.31,0.41,0.43
			c0.06,0.04,0.11,0.07,0.16,0.1c0.73,0.13,1.45,0.13,2.15,0.08c0.04-0.03,0.07-0.06,0.1-0.1c0.16-0.16,0.3-0.35,0.43-0.53
			c0.01-0.03,0.06-0.02,0.05,0.01c-0.02,0.17-0.09,0.4-0.21,0.59c1.29-0.13,2.559-0.44,3.879-0.59c-1.1-0.27-2.809-0.66-3.449-0.66
			c-0.01,0-0.03,0-0.04,0.01c-0.43,0.01-0.69,0.12-0.93,0.22c-0.25,0.1-0.51,0.21-0.86,0.17c-0.3-0.04-0.47-0.15-0.64-0.25
			c-0.22-0.14-0.46-0.29-1.13-0.34c-0.63-0.06-1.83,0.19-2.889,0.4c-0.39,0.08-0.74,0.15-1.06,0.21c1.4,0.07,2.789,0.43,4.179,0.7
			C250.511,92.636,250.441,92.466,250.401,92.356z"/>
	</g>
	<g>
		<path fill="#DB1A21" d="M257.31,92.656c-1.52,0.43-3.229,0.76-4.839,0.73c0.14,0.3,0.12,0.82,0.1,1
			c-0.01,0.04-0.06,0.02-0.07-0.01c-0.02-0.39-0.17-0.67-0.33-0.99c-0.24-0.02-0.48-0.04-0.72-0.07c-0.58-0.07-1.17-0.17-1.77-0.28
			c-0.03,0.02-0.05,0.03-0.08,0.05c-0.2,0.12-0.35,0.3-0.48,0.49h-0.01c0.03-0.23,0.12-0.41,0.28-0.57c0-0.01,0.01-0.01,0.01-0.02
			c-1.22-0.22-2.439-0.5-3.589-0.8c0.7,0.64,2.01,1.85,2.959,2.619c1.23,1,3.419,1.08,4.949,0.63
			C254.7,95.155,256.4,93.565,257.31,92.656z"/>
	</g>
	<g>
		<path fill="#FFBD52" d="M254.02,440.169c-3.549,3.399-11.197,7.548-16.076,7.548c-0.62,0-1.19-0.06-1.71-0.21
			c-1.02-0.28-1.68-0.79-1.95-1.51c-0.13-0.35-0.15-0.74-0.1-1.15c-2.07,1.83-5.009,4.779-5.109,6.469
			c-0.01,0.29,0.06,0.5,0.23,0.67c1.63,1.63,6.169,1,10.988,0.33c1.22-0.17,2.469-0.34,3.699-0.48
			c6.269-0.72,9.588-2.879,11.088-7.218l0.09-0.24c-0.01-0.85-0.07-2.07-0.28-3.119C254.74,440.529,254.39,440.249,254.02,440.169z"
			/>
	</g>
	<g>
		<path fill="#FFBD52" d="M270.627,440.959c-1.09,0-2.199-0.18-3.159-0.4c-2.909-0.67-6.299-2.24-8.728-4.089
			c-0.28,0.24-0.62,0.63-0.88,1.28c-0.28,0.71-0.09,1.9,0.15,2.859c1.73,4.119,5.759,9.558,15.097,10.558
			c6.179,0.63,8.518-0.41,9.388-1.4c0.57-0.65,0.73-1.48,0.49-2.549c-0.44-1.94-3.979-6.409-6.559-9.668
			c-0.33-0.42-0.64-0.81-0.93-1.18c0.21,1.27,0.02,2.369-0.82,3.209C273.646,440.609,272.146,440.959,270.627,440.959z"/>
	</g>
	<g>
		<path fill="#DB1A21" d="M273.906,143.534c0,0.71,0.14,1.25,0.4,1.58c0.21,0.26,0.49,0.39,0.87,0.39c1.43,0,3.629-1.93,3.629-4.309
			c0-0.47-0.09-1.39-0.28-2.889c-1.1-8.248-5.039-29.274-5.759-33.123c-1.4,0.57-2.789,1.26-4.109,1.97
			c1.26,3.239,1.76,6.858,2.04,10.298c0.01,0.09-0.13,0.1-0.15,0.02c-0.71-3.369-1.64-6.758-2.18-10.158
			c-0.27,0.14-0.53,0.29-0.79,0.43c0.61,2.989,4.809,23.725,5.999,32.443C273.806,141.825,273.906,142.885,273.906,143.534z
			 M276.066,138.306c1.15,0,2.09,0.94,2.09,2.09c0,1.15-0.94,2.089-2.09,2.089c-1.15,0-2.09-0.94-2.09-2.089
			C273.976,139.245,274.916,138.306,276.066,138.306z M272.596,125.618c-0.51-1.36-0.93-2.969-0.87-4.439
			c0-0.03,0.05-0.05,0.06-0.02c0.62,1.34,0.86,2.989,0.91,4.449C272.706,125.678,272.616,125.678,272.596,125.618z"/>
	</g>
	<g>
		<path fill="#DB1A21" d="M232.115,149.283c0.72,1.77,2.649,2.36,4.029,1.9c1.15-0.39,1.64-1.38,1.29-2.649
			c-0.22-0.82-0.48-2.569-0.77-5.189c-0.84-7.808-1.76-21.545-1.98-24.904c-0.24,0.11-0.47,0.22-0.73,0.32
			c0.23,2.799,0.39,5.599,0.56,8.398c0,0.07-0.11,0.08-0.13,0.02c-0.59-2.719-0.86-5.509-0.72-8.298
			c-1.19,0.48-2.549,0.93-3.989,1.39c0.03,5.159,0.63,18.076,1.61,25.064C231.625,147.733,231.925,148.803,232.115,149.283z
			 M234.525,130.257c0.25,0.89,0.33,1.87,0.4,2.789c0.01,0.08-0.11,0.09-0.13,0.02c-0.28-0.88-0.5-1.86-0.47-2.789
			C234.335,130.167,234.495,130.137,234.525,130.257z M234.475,144.914c1.15,0,2.08,0.94,2.08,2.09c0,1.15-0.93,2.09-2.08,2.09
			c-1.16,0-2.09-0.94-2.09-2.09C232.385,145.854,233.315,144.914,234.475,144.914z"/>
	</g>
	<g>
		<path fill="#DB1A21" d="M275.176,146.544c-0.69,0-1.27-0.27-1.68-0.78c-0.39-0.49-0.6-1.19-0.62-2.07
			c-0.18,0.12-0.36,0.24-0.54,0.37c-0.86,0.59-1.68,1.23-2.439,1.96c-1.4,1.35-2.679,2.939-3.699,4.599
			c-0.05,0.08-0.18,0.03-0.15-0.07c0.56-1.99,1.47-3.649,2.969-5.089c0.91-0.89,2.399-2.199,3.819-2.549
			c-0.03-0.47-0.09-1.09-0.19-1.87c-4.929,2.519-10.968,7.618-13.147,17.896c-0.05,0.21-0.22,0.37-0.43,0.4
			c-0.03,0.01-0.05,0.01-0.08,0.01c-0.13,0-0.24-0.06-0.33-0.14c-0.06,0.01-0.12-0.02-0.13-0.1c-0.01-0.02-0.01-0.04-0.01-0.06
			c-0.47-0.79-9.538-15.877-20.755-15.277c0.05,0.48,0.1,0.92,0.15,1.32c1.64-0.13,3.399,0.67,4.859,1.32
			c2.05,0.91,3.779,2.19,5.389,3.719c0.03,0.03-0.01,0.08-0.04,0.06c-1.69-1.16-3.499-2.13-5.379-2.949
			c-1.5-0.66-3.299-0.89-4.759-1.61c0.2,1.5,0.35,2.26,0.45,2.619c0.49,1.81-0.28,3.339-1.96,3.909c-0.41,0.14-0.86,0.21-1.31,0.21
			c-1.59,0-3.269-0.87-4.009-2.709c-0.27-0.67-0.53-1.82-0.78-3.429c-0.19,0.11-0.37,0.23-0.55,0.34
			c-1.82,2.149-3.469,4.299-4.109,7.158c-0.38,1.72-0.42,3.529-0.19,5.299c0.1,0.14,0.2,0.27,0.3,0.4
			c-0.11-2.509,0.94-5.069,2.01-7.408c0.01-0.02,0.03-0.01,0.03,0.01c-0.63,2.869-1.18,5.739-1.07,8.668
			c3.409,4.359,7.238,8.208,12.837,9.898c0.14,0.04,0.08,0.23-0.05,0.21c-3.689-0.71-7.578-2.319-10.618-4.799
			c0.09,0.15,0.18,0.31,0.27,0.47c1.39,2.27,2.609,4.399,3.509,6.029c0.1,0.15,0.18,0.3,0.28,0.44
			c1.96,2.949,4.689,4.859,7.438,6.998c0.06,0.05,0,0.16-0.07,0.13c-2.24-0.84-4.409-1.89-6.129-3.499
			c-0.03,0.08-0.07,0.18-0.11,0.27c0.27,0.76,0.59,1.49,0.71,1.79c0.6,1.53,1.33,3.009,2.1,4.469c0,0.01-0.01,0.02-0.02,0.01
			c-1.44-1.51-2.469-3.289-3.189-5.239c-1.34,3.409-4.209,10.318-6.179,12.617c2.24,1.37,3.899,3.539,5.389,5.659
			c0.06,0.09-0.07,0.17-0.14,0.11c-1.99-1.63-4.099-3.299-5.569-5.429c-0.03,0.03-0.07,0.07-0.1,0.09
			c0.68,2.659,1.03,8.218,1.13,10.178c0.01,0.2-0.09,0.38-0.27,0.48c-0.04,0.03-1.12,0.6-2.499,0.6c-0.69,0-1.3-0.77-1.8-1.75
			l0.07,1.21c-0.1,0.95-0.53,3.779-2.05,3.779c-0.59,0-1.06-0.19-1.42-0.43c-0.19,0.94-0.61,2.05-1.55,2.05
			c-0.14,0-0.29-0.02-0.43-0.04c0.74,1.44,1.04,3.239,1.69,4.689c0.79,1.76,1.82,3.399,2.739,5.089c0.02,0.04-0.02,0.07-0.05,0.04
			c-1.45-1.51-2.479-3.249-3.409-5.129c-0.7-1.4-1.67-3.159-1.71-4.789c-0.15-0.03-0.32-0.06-0.45-0.1c0.01,0.3-0.01,0.65-0.08,0.99
			c0.55,1.77,7.108,22.095,19.736,31.463c0.02-0.03,0.06-0.06,0.09-0.09c0.61-2.599,2.419-5.079,4.669-6.319
			c0.03-0.02,0.07,0.02,0.05,0.05c-0.89,1.33-1.89,2.589-2.689,3.979c-0.15,0.25-0.28,0.51-0.41,0.77
			c4.129-3.749,14.167-11.787,26.204-14.157c0.12-1.04,0.17-2.419,0.17-3.349c0-0.14,0.06-0.27,0.17-0.37l6.479-6.119
			c0.1-0.1,0.24-0.16,0.38-0.14l7.148,0.35l1.54-0.99c0.06-0.04,0.12-0.06,0.19-0.08c0.04,0,0.3-0.05,0.69-0.13
			c-0.54-2.469-2.939-13.037-4.919-18.246c-0.24-0.63-0.45-1.33-0.64-2.05c-0.34,5.389-6.459,9.198-11.048,11.208
			c-0.11,0.04-0.19-0.09-0.09-0.16c5.149-3.489,10.708-7.208,10.508-14.127c-0.85-5.319-0.82-11.547-0.81-14.687v-0.89
			c0-0.83,0.26-1.71,0.68-2.659c-1.42,1.19-3.029,2.01-4.809,2.06c-0.05,0-0.07-0.06-0.04-0.08c1.66-1.47,3.619-2.509,5.189-4.109
			c1.21-1.23,2.29-2.589,3.269-4.019c1.22-1.96,2.519-4.149,3.719-6.758c3.339-7.248-0.47-14.947-0.51-15.027v-0.01
			c-0.01-0.02-0.02-0.04-0.03-0.06l-0.01-0.03c-0.27-0.65-0.49-1.32-0.68-2l-0.86-2.499c-0.19,0.03-0.47,0.08-0.79,0.14
			c0.16,1.28,0.23,2.07,0.23,2.539C279.845,144.074,277.275,146.544,275.176,146.544z M262.349,221.127
			c-5.719,2.289-11.847,4.049-16.836,7.828c-0.09,0.07-0.2-0.09-0.12-0.17c4.479-4.769,10.608-6.689,16.936-7.738
			C262.379,221.037,262.399,221.107,262.349,221.127z"/>
	</g>
	<g>
		<path fill="#FFBD52" d="M231.046,89.446c-0.91,0.82-2.329,1.08-3.519,0.76c-2-0.54-2.859-2.26-3.019-4.189
			c0-0.03,0.05-0.03,0.06,0c0.63,1.58,1.29,3.169,3.109,3.649c0.89,0.24,1.65,0.07,2.359-0.27c-0.91-0.28-1.64-1.11-2.03-2.239
			c-0.33-0.16-0.64-0.39-0.84-0.56c-0.59-0.5-0.95-1.18-1.19-1.91c-0.03-0.08,0.1-0.14,0.14-0.06c0.33,0.69,0.86,1.21,1.49,1.62
			c0.05,0.04,0.12,0.07,0.19,0.1c-0.06-0.34-0.1-0.68-0.1-1.05c0-1.34,0.43-2.509,1.12-3.269c-0.3-0.53-0.6-1.19-0.85-1.91
			c-0.66,0.1-1.41-0.33-1.89-0.76c-0.96-0.87-1.25-2.1-1.47-3.319c-0.02-0.1,0.11-0.13,0.14-0.04c0.34,0.92,0.76,1.87,1.44,2.589
			c0.46,0.48,1,0.66,1.56,0.83c-0.6-2.03-0.83-4.369-0.06-5.769c0.34-0.64,0.85-1.05,1.52-1.23c0.03,0,0.06-0.01,0.09-0.01
			c0.2-0.28,0.43-0.54,0.6-0.83c0.36-0.59,0.67-1.2,1.01-1.8c0.02-0.04,0.06-0.01,0.06,0.02c-0.12,0.68-0.41,1.37-0.75,1.97
			c-0.1,0.18-0.21,0.37-0.32,0.56c0.03,0,0.06,0,0.1,0c0.6-0.31,1.15-0.63,1.64-1.2c0.71-0.82,1.23-1.84,1.77-2.779
			c0.02-0.05,0.1-0.02,0.08,0.03c-0.41,1.31-1.24,3.339-2.609,4.179c0.03,0.04,0.06,0.09,0.09,0.13c0.28,0.32,0.6,0.59,0.94,0.83
			c0.02-0.02,0.04-0.04,0.06-0.03c0.62,0.06,1.13,0.5,1.64-0.1c0.34-0.39,0.43-0.88,0.54-1.36c-0.18,0.12-0.36,0.24-0.58,0.33
			c-0.11,0.04-0.22-0.11-0.15-0.21c0.57-0.9,1.44-1.57,1.73-2.629c0.26-0.95,0.37-2.02,0.35-3.029c-0.43,0.32-0.92,0.55-1.38,0.68
			c-0.05,0.01-0.1-0.06-0.06-0.1c0.48-0.39,0.96-0.82,1.41-1.24c0.37-0.34,0.67-0.76,1.03-1.12c-0.6,0.22-1.23,0.37-1.85,0.45
			c-0.12,0.01-0.13-0.15-0.05-0.21c0.99-0.68,2.08-1.04,3.119-1.61c0.74-0.41,1.21-1.07,1.7-1.73c-0.14,0.06-0.28,0.14-0.41,0.2
			c-0.11,0.05-0.23-0.08-0.14-0.17c1.96-2.02,4.359-2.589,6.958-2.08c-0.79-0.4-1.62-0.77-2.479-0.92c-0.1-0.02-0.1-0.19,0-0.21
			c0.91-0.2,1.61-0.16,2.469,0.23c1.16,0.52,2.439,1.77,3.759,1.67c0.21-0.52,0.54-0.99,1.01-1.41c0.05-0.04,0.13,0.01,0.09,0.07
			c-1.52,2.04-0.46,5.079,0.99,6.859c1.28,1.56,3.379,2.03,5.309,2.479c0.25-0.59,0.69-1.1,0.87-1.78c0.02-0.1,0.17-0.08,0.17,0.02
			c-0.02,0.93-0.42,1.86-0.1,2.759c0.33,0.91,1.11,1.67,1.89,2.219c0.33,0.24,0.68,0.43,1.05,0.6c-0.32-0.3-0.6-0.6-0.8-0.86
			c-0.9-1.17-1.42-2.789-0.5-4.089c0.02-0.04,0.07-0.01,0.05,0.03c-0.72,1.51,0.34,3.329,1.45,4.349c0.37,0.34,0.77,0.6,1.2,0.83
			c-0.37-0.48-0.61-1.09-0.67-1.6c0-0.06,0.09-0.07,0.1-0.01c0.16,0.55,0.46,1.02,0.87,1.42c0.35,0.33,0.78,0.51,1.17,0.76
			c0.04-0.45,0.12-0.89,0.25-1.25c0.01-0.02,0.05-0.03,0.06,0c0.51,0.85,0.31,2.13,0.86,2.909c0.44,0.64,1.55,0.61,2.159,1.05
			c1,0.71,1.04,1.99,0.88,3.119c0.06,0.35,0.1,0.69,0.13,1.04c0.11-0.25,0.23-0.48,0.37-0.71c0.05-0.07,0.15-0.03,0.13,0.05
			c-0.32,1.63-0.44,3.399-0.02,5.009c0.5,1.89,1.85,4.449,4.099,4.579c0.06,0,0.08,0.1,0.02,0.11c-2.06,0.37-3.719-1.66-4.449-3.349
			c-0.18-0.42-0.32-0.83-0.43-1.26c-0.02,0.16-0.05,0.32-0.07,0.48c0.1,2.749,1.48,5.709,4.549,5.589c0.15-0.01,0.17,0.21,0.04,0.26
			c-1.74,0.52-3.189-0.11-4.169-1.34c-0.03,0.7-0.17,1.42-0.13,2.11c0.07,1.38,0.26,2.979,1.04,4.159c0.03,0.04-0.04,0.09-0.08,0.05
			c-1.05-1-1.43-2.459-1.62-3.859c-0.08-0.59-0.18-1.28-0.17-1.96c-0.11,0.59-0.23,1.17-0.31,1.77
			c-0.36,2.449,0.47,6.349,3.619,6.698c0.05,0.01,0.06,0.08,0,0.08c-3.359,0.1-4.509-2.629-4.569-5.599
			c-0.25,1.15-0.41,2.299-0.09,3.549c0,0.03-0.04,0.05-0.05,0.02c-0.43-0.71-0.61-1.59-0.59-2.479c-0.04,0.08-0.09,0.17-0.13,0.26
			c-0.26,1.7-0.41,3.369,1.11,4.599c0,0,0,0.01-0.01,0.01c-1-0.19-1.54-1.25-1.7-2.17c-0.05-0.34-0.1-0.75-0.1-1.17
			c-0.17,0.29-0.35,0.58-0.53,0.86c-0.01,0.74-0.2,1.48,0.19,2.21c0.6,1.13,1.77,1.73,2.929,2.13c0.06,0.02,0.03,0.11-0.03,0.09
			c-0.87-0.16-1.75-0.41-2.469-0.92c1.68,1.99,4.989,2.529,7.518,1.91c3.209-0.79,5.409-3.739,5.789-7.018
			c-0.22,0.34-0.47,0.64-0.72,0.86c-1.1,0.95-2.589,1.35-3.999,1.24c-0.07-0.01-0.07-0.1,0-0.11c1.35-0.15,2.599-0.62,3.649-1.53
			c0.84-0.74,1-1.73,1.36-2.679c-0.41,0.33-0.88,0.6-1.44,0.78c-0.02,0.01-0.03-0.03-0.01-0.04c2.24-1.66,2.969-3.849,2.479-5.909
			c0.02,0.62-0.04,1.23-0.2,1.8c-0.91,3.169-4.249,5.079-7.168,3.379c-0.08-0.04-0.03-0.16,0.05-0.14
			c2.729,0.65,5.409-0.63,6.259-3.489c0.85-2.889-0.8-4.989-3.109-6.109c-0.04,0.18-0.07,0.35-0.09,0.53
			c0.44,0.04,0.8,0.47,0.93,0.88c0.01,0.05-0.05,0.1-0.09,0.05c-0.25-0.32-0.55-0.43-0.87-0.58c-0.06,0.97,0.18,1.92,1.01,2.789
			c0.04,0.05-0.02,0.14-0.08,0.1c-3.429-2.409-0.51-6.429,0.16-9.488c0.71-3.199,0.03-6.259-1.29-9.178
			c-0.53-1.16-0.95-2.12-1.01-3.239c-0.02,0.05-0.04,0.09-0.06,0.14c-0.1,0.19-0.38,0.06-0.33-0.14c0.54-1.95,0.73-4.239-0.31-6.059
			c-1.08-1.92-2.919-2.34-4.799-2.949c-1.72-0.56-3.219-1.35-3.899-3.159c-0.02-0.05,0.05-0.07,0.08-0.03
			c0.92,1.48,2.389,2.02,3.939,2.469c-1.71-3.099-4.319-5.969-7.688-7.078c-3.689-1.22-7.798,0.14-10.148,3.279
			c-0.04,0.06-0.12,0.01-0.09-0.05c0.72-1.5,1.83-2.629,3.149-3.399c-0.39,0.04-0.78,0.09-1.16,0.17
			c-1.49,0.31-2.569,1.13-3.669,2.15c-0.03,0.03-0.08,0-0.05-0.04c0.96-1.62,2.479-2.489,4.149-2.779
			c-2.629,0.3-4.939,1.26-6.969,4.179c1.04,0.35,2.09,0.82,3.149,1.4c0.06,0.04,0.02,0.13-0.04,0.11
			c-2.729-0.84-5.679-2.03-8.568-1.42c-2.369,0.51-4.369,2.26-6.299,3.659c-0.07,0.06-0.13-0.06-0.09-0.12
			c3.309-4.309,7.418-5.089,11.767-3.649c0,0,0,0,0-0.01c0.17-0.55,0.39-1.05,0.65-1.5c-4.249-0.75-8.468-1.15-12.447,0.99
			c-3.249,1.75-5.559,4.919-6.479,8.548c-0.02,0.08-0.16,0.07-0.15-0.03c0.02-0.61,0.09-1.2,0.21-1.76
			c-4.949,1.87-7.098,9.758-2.989,13.607c0.07,0.07-0.02,0.16-0.1,0.13c-0.73-0.35-1.3-0.78-1.75-1.27
			c-1.46,3.609-1.44,7.678,1.88,10.288c0.05,0.04,0.01,0.12-0.05,0.09c-0.53-0.25-1-0.56-1.42-0.92
			c-0.46,1.91-1.15,3.599-0.82,5.639c0.29,1.8,0.93,3.769,2.329,4.949c0.18,0.16,0.38,0.3,0.59,0.43
			c-2.01-1.55-2.149-5.619-1.8-7.858c0.01-0.06,0.11-0.04,0.11,0.02c-0.01,3.109,0.33,8.018,4.369,8.308c0.05,0,0.07,0.08,0.02,0.09
			c-0.77,0.14-1.42,0.06-1.97-0.15c2.579,1.21,6.229,1,7.908-1.31c-0.2-0.65-0.38-1.28-0.52-1.86
			C232.735,88.626,231.955,89.306,231.046,89.446z M269.007,99.334c0.74-0.14,1.62-0.07,2.36,0.04c0.06,0.01,0.05,0.09,0,0.11
			c-0.73,0.24-1.66,0.28-2.379-0.03C268.937,99.434,268.947,99.344,269.007,99.334z M275.016,97.954c0.03-0.03,0.07,0.01,0.05,0.04
			c-1.12,2.559-4.459,3.709-6.898,2.41c-0.05-0.02-0.01-0.09,0.04-0.08C271.047,100.784,273.106,100.074,275.016,97.954z
			 M275.536,90.616c1.67-1.58,1.82-3.479,0.79-5.469c-0.01-0.02,0.02-0.04,0.04-0.03c1.84,1.54,1.28,4.549-0.77,5.559
			C275.546,90.696,275.506,90.646,275.536,90.616z M273.396,71.16c-0.02-0.05,0.05-0.09,0.08-0.04c1.73,2.729,1.16,5.989-0.1,8.808
			c-0.02,0.04-0.09,0.01-0.08-0.04C273.866,76.919,274.696,74.07,273.396,71.16z M268.687,77.569c-0.01,0.05-0.09,0.05-0.1,0
			c-0.27-1.52-1.17-2.869-2.549-3.599c0-0.01,0-0.02,0.01-0.02c0.9,0.07,1.59,0.47,2.13,1.2
			C268.747,75.919,268.927,76.659,268.687,77.569z M268.397,70.98c-0.01-0.01,0-0.03,0.02-0.02c0.97,0.62,1.23,1.77,1,2.829
			c-0.01,0.06-0.09,0.04-0.09-0.01C269.247,72.78,268.827,71.86,268.397,70.98z M270.537,86.297c-2.09-1.65-2.09-4.979-0.69-7.068
			c0.01-0.01,0.03,0,0.02,0.01c-1.01,2.499-0.45,4.689,0.78,6.979C270.677,86.287,270.597,86.347,270.537,86.297z M270.597,73.88
			c-0.02,0.06-0.1,0.05-0.1-0.01c-0.1-2.539-1.3-4.749-3.659-5.839c-0.06-0.03-0.02-0.13,0.05-0.11
			C269.527,68.601,271.307,71.16,270.597,73.88z M271.327,74.61c-0.02,0.07-0.12,0.04-0.11-0.03c0.27-1.86,0.44-4.089-0.81-5.649
			c-0.82-1.02-1.99-1.34-3.009-2.079c-1.35-0.98-2.13-2.519-2.739-4.039c-0.03-0.05,0.06-0.09,0.09-0.04
			c1.03,1.78,2.089,2.959,3.959,3.819c0.52,0.24,0.99,0.47,1.42,0.77c0.52-1.81,0.35-3.389-0.55-5.039
			c-0.02-0.03,0.02-0.08,0.05-0.05c1.57,1.19,1.85,3.669,0.62,5.179c0.33,0.25,0.63,0.53,0.89,0.91
			C272.476,70.271,272.107,72.58,271.327,74.61z M271.257,61.692c-0.74-1.53-2.24-2.309-3.609-3.179c0-0.01,0-0.02,0.01-0.02
			c3.849,1.28,5.869,4.549,3.829,8.378c-0.03,0.07-0.14,0.02-0.12-0.05C271.857,65.192,272.017,63.272,271.257,61.692z
			 M272.196,79.319c-0.04,0.07-0.14,0.03-0.13-0.05c0.36-1.44,0.71-2.909,0.65-4.409c0-0.09,0.13-0.08,0.14,0
			C273.066,76.429,272.996,77.919,272.196,79.319z M262.979,53.064c1,1.38,1.93,2.759,3.649,3.259c0.97,0.29,1.97,0.31,2.909,0.73
			c1.45,0.63,2.539,1.72,3.349,3.059c0.03,0.04-0.03,0.08-0.06,0.05c-0.9-1.16-2.04-2.07-3.439-2.579
			c-1.04-0.38-2.18-0.39-3.219-0.77c-1.68-0.61-2.609-2.11-3.349-3.659C262.769,53.044,262.909,52.964,262.979,53.064z
			 M256.25,67.221c-3.589-0.42-6.089-3.959-4.649-7.428c0.01-0.04,0.08-0.02,0.06,0.02c-1.16,3.519,1.73,5.999,4.629,7.278
			C256.35,67.121,256.32,67.231,256.25,67.221z M253.791,63.442c0-0.01,0-0.01,0.01-0.01c0.29,0.49,0.61,0.97,1,1.38
			c0.36,0.39,0.77,0.71,1.11,1.12c0.03,0.03,0,0.11-0.05,0.09C254.79,65.672,254.071,64.462,253.791,63.442z M258.579,62.372
			c-0.18-0.49-0.42-1-0.7-1.44c-0.25-0.42-0.6-0.77-0.85-1.18c-0.02-0.01,0-0.05,0.03-0.04c1,0.41,1.56,1.64,1.65,2.649
			C258.709,62.432,258.609,62.432,258.579,62.372z M259.619,61.482c-0.89-2.529-2.989-3.319-5.269-4.269
			c-0.02-0.01-0.02-0.05,0.01-0.05c2.589,0.24,5.069,1.51,5.389,4.299C259.759,61.542,259.649,61.552,259.619,61.482z
			 M261.899,62.362c-1.71-4.809-6.229-7.988-11.227-5.639c-0.03,0.02-0.07-0.03-0.04-0.06c1.82-1.7,4.459-1.91,6.689-0.91
			c2.759,1.23,4.129,3.729,4.689,6.579C262.019,62.402,261.929,62.432,261.899,62.362z M253.691,53.304
			c1.52-1.07,3.499-1.28,5.049-0.17c0.08,0.06,0.03,0.2-0.07,0.17c-1.65-0.46-3.339-0.59-4.959,0.04
			C253.681,53.354,253.671,53.324,253.691,53.304z M261.799,50.165c0.06,0.03,0.02,0.11-0.04,0.1
			c-3.969-0.99-8.298-1.37-10.948,2.439c-0.01,0.01-0.03,0.01-0.02-0.01C252.511,47.965,258.17,48.495,261.799,50.165z
			 M252.971,53.184c0.07,0.01,0.09,0.1,0.02,0.12c-1.5,0.43-2.789,1.11-3.939,2.16c-0.03,0.02-0.06-0.01-0.05-0.04
			C249.771,53.984,251.341,53.074,252.971,53.184z M248.392,59.453c-1.09-0.44-1.86-1.34-3.009-1.68
			c-1.5-0.43-3.109-0.06-4.609,0.21c-0.07,0.01-0.14-0.1-0.05-0.14c1.27-0.6,2.609-1.03,4.039-0.8c1.69,0.28,2.339,1.45,3.639,2.389
			C248.412,59.443,248.402,59.463,248.392,59.453z M246.142,54.354c-0.42-0.15-0.84-0.31-1.28-0.38c-0.5-0.08-1-0.06-1.5-0.1
			c-0.06-0.01-0.06-0.08-0.01-0.1c0.9-0.37,2.07-0.07,2.819,0.5C246.212,54.294,246.192,54.364,246.142,54.354z M241.313,52.704
			c2.19-0.81,4.699-0.36,6.648,0.86c0.04,0.03,0.02,0.1-0.03,0.08c-2.2-0.84-4.279-0.98-6.609-0.84
			C241.263,52.804,241.263,52.724,241.313,52.704z M239.914,56.544c1.72-1.46,4.399-1.49,6.159-0.03c0.02,0.02,0,0.06-0.03,0.05
			c-2.05-0.85-4.019-0.83-6.059,0.08C239.924,56.674,239.854,56.594,239.914,56.544z M229.136,63.112
			c-0.02,0.07-0.12,0.06-0.12-0.01c0-1.45,0.61-3.139,1.77-4.069c0.01-0.01,0.02,0,0.02,0.01c-0.3,0.71-0.72,1.36-1,2.09
			C229.556,61.772,229.346,62.452,229.136,63.112z M232.535,65.552c-0.44,0.65-0.71,1.38-0.95,2.13c-0.02,0.06-0.12,0.05-0.12-0.02
			c0.02-0.85,0.39-1.57,0.96-2.2C232.475,65.402,232.585,65.482,232.535,65.552z M233.365,61.852
			c-1.54,1.47-2.309,3.429-2.769,5.469c-0.02,0.07-0.11,0.04-0.12-0.02c-0.26-2.289,0.98-4.289,2.769-5.609
			C233.335,61.622,233.445,61.772,233.365,61.852z M238.084,59.253c0.02,0.01,0.02,0.04-0.01,0.04
			c-2.21,0.22-4.209,0.69-5.789,2.379c-1.29,1.38-2.159,3.429-2.439,5.279c-0.01,0.07-0.11,0.05-0.11-0.01
			c-0.02-2.389,0.49-4.539,2.32-6.219C233.615,59.293,236.034,58.543,238.084,59.253z M229.126,58.013
			c1.05-1.65,2.869-2.599,4.199-3.999c0.04-0.04,0.13,0.02,0.09,0.07c-0.95,1.27-2.24,2.16-3.279,3.339
			c-1.48,1.67-1.68,3.979-2.369,6.039c-0.02,0.06-0.12,0.05-0.11-0.02C227.866,61.622,228.126,59.583,229.126,58.013z
			 M225.497,68.371c0-0.03,0.05-0.03,0.06,0c0.08,0.59,0.23,1.14,0.55,1.65c0.3,0.5,0.72,0.92,1.08,1.38
			c0.05,0.06,0.01,0.19-0.09,0.15C225.867,71.14,225.327,69.581,225.497,68.371z M225.217,62.262c0.02-0.01,0.04,0,0.03,0.02
			c-1.54,3.269-2.08,5.819-0.08,9.018c0.04,0.07-0.05,0.17-0.12,0.12C222.058,69.271,222.877,64.542,225.217,62.262z M222.917,74.84
			c0.01-0.03,0.05-0.02,0.05,0c0,1.93,0.13,3.719,1.76,4.989c0.06,0.05-0.01,0.14-0.07,0.12
			C222.497,79.289,222.467,76.639,222.917,74.84z"/>
	</g>
	<g>
		<path d="M276.366,85.117c-0.02-0.01-0.05,0.01-0.04,0.03c1.03,1.99,0.88,3.889-0.79,5.469c-0.03,0.03,0.01,0.08,0.06,0.06
			C277.645,89.666,278.205,86.657,276.366,85.117z"/>
	</g>
	<g>
		<path d="M276.066,142.485c1.15,0,2.09-0.94,2.09-2.089c0-1.15-0.94-2.09-2.09-2.09c-1.15,0-2.09,0.94-2.09,2.09
			C273.976,141.545,274.916,142.485,276.066,142.485z M276.066,139.265c0.63,0,1.13,0.5,1.13,1.13c0,0.62-0.5,1.13-1.13,1.13
			c-0.62,0-1.13-0.51-1.13-1.13C274.936,139.765,275.446,139.265,276.066,139.265z"/>
	</g>
	<g>
		<path d="M273.376,79.928c1.26-2.819,1.83-6.079,0.1-8.808c-0.03-0.05-0.1-0.01-0.08,0.04c1.3,2.909,0.47,5.759-0.1,8.728
			C273.286,79.938,273.356,79.968,273.376,79.928z"/>
	</g>
	<g>
		<path d="M272.716,74.859c0.06,1.5-0.29,2.969-0.65,4.409c-0.01,0.08,0.09,0.12,0.13,0.05c0.8-1.4,0.87-2.889,0.66-4.459
			C272.846,74.78,272.716,74.77,272.716,74.859z"/>
	</g>
	<g>
		<path d="M271.727,121.179c-0.06,1.47,0.36,3.079,0.87,4.439c0.02,0.06,0.11,0.06,0.1-0.01c-0.05-1.46-0.29-3.109-0.91-4.449
			C271.777,121.129,271.727,121.149,271.727,121.179z"/>
	</g>
	<g>
		<path d="M271.487,66.871c2.04-3.829,0.02-7.098-3.829-8.378c-0.01,0-0.01,0.01-0.01,0.02c1.37,0.87,2.869,1.65,3.609,3.179
			c0.76,1.58,0.6,3.499,0.11,5.129C271.347,66.891,271.457,66.941,271.487,66.871z"/>
	</g>
	<g>
		<path d="M269.867,79.239c0.01-0.01-0.01-0.02-0.02-0.01c-1.4,2.09-1.4,5.419,0.69,7.068c0.06,0.05,0.14-0.01,0.11-0.08
			C269.417,83.928,268.857,81.738,269.867,79.239z"/>
	</g>
	<g>
		<path d="M271.367,99.484c0.05-0.02,0.06-0.1,0-0.11c-0.74-0.11-1.62-0.18-2.36-0.04c-0.06,0.01-0.07,0.1-0.02,0.12
			C269.707,99.764,270.637,99.724,271.367,99.484z"/>
	</g>
	<g>
		<path d="M269.417,73.79c0.23-1.06-0.03-2.21-1-2.829c-0.02-0.01-0.03,0.01-0.02,0.02c0.43,0.88,0.85,1.8,0.93,2.799
			C269.327,73.83,269.407,73.85,269.417,73.79z"/>
	</g>
	<g>
		<path d="M268.207,100.324c-0.05-0.01-0.09,0.06-0.04,0.08c2.439,1.3,5.779,0.15,6.898-2.41c0.02-0.03-0.02-0.07-0.05-0.04
			C273.106,100.074,271.047,100.784,268.207,100.324z"/>
	</g>
	<g>
		<path d="M266.888,67.921c-0.07-0.02-0.11,0.08-0.05,0.11c2.359,1.09,3.559,3.299,3.659,5.839c0,0.06,0.08,0.07,0.1,0.01
			C271.307,71.16,269.527,68.601,266.888,67.921z"/>
	</g>
	<g>
		<path d="M266.048,73.95c-0.01,0-0.01,0.01-0.01,0.02c1.38,0.73,2.279,2.079,2.549,3.599c0.01,0.05,0.09,0.05,0.1,0
			c0.24-0.91,0.06-1.65-0.51-2.419C267.638,74.42,266.948,74.02,266.048,73.95z"/>
	</g>
	<g>
		<path d="M270.247,67.451c1.23-1.51,0.95-3.989-0.62-5.179c-0.03-0.03-0.07,0.02-0.05,0.05c0.9,1.65,1.07,3.229,0.55,5.039
			c-0.43-0.3-0.9-0.53-1.42-0.77c-1.87-0.86-2.929-2.04-3.959-3.819c-0.03-0.05-0.12-0.01-0.09,0.04
			c0.61,1.52,1.39,3.059,2.739,4.039c1.02,0.74,2.19,1.06,3.009,2.079c1.25,1.56,1.08,3.789,0.81,5.649
			c-0.01,0.07,0.09,0.1,0.11,0.03c0.78-2.03,1.15-4.339-0.19-6.249C270.877,67.981,270.577,67.701,270.247,67.451z"/>
	</g>
	<g>
		<path d="M266.168,56.813c1.04,0.38,2.18,0.39,3.219,0.77c1.4,0.51,2.539,1.42,3.439,2.579c0.03,0.03,0.09-0.01,0.06-0.05
			c-0.81-1.34-1.9-2.429-3.349-3.059c-0.94-0.42-1.94-0.44-2.909-0.73c-1.72-0.5-2.649-1.88-3.649-3.259
			c-0.07-0.1-0.21-0.02-0.16,0.09C263.558,54.704,264.488,56.204,266.168,56.813z"/>
	</g>
	<g>
		<path fill="#FFFFFF" d="M260.909,77.319c-0.01,0.29,0.2,0.54,0.46,0.55c0.27,0.01,0.5-0.22,0.51-0.51c0.01-0.3-0.2-0.54-0.46-0.55
			C261.149,76.799,260.919,77.029,260.909,77.319z"/>
	</g>
	<g>
		<path fill="#FFFFFF" d="M261.819,79.339c0.01,0,0.03,0,0.04-0.01c0.86-0.35,2.18-0.95,2.499-1.48c0,0-0.65-0.76-1.93-1.19
			c0.07,0.2,0.11,0.43,0.1,0.66c-0.05,1.08-1.01,1.93-2.15,1.89c-1.14-0.05-2.04-0.96-1.99-2.05c0-0.14,0.03-0.28,0.07-0.42
			c-0.69,0.26-1.3,0.63-1.87,1.05C256.92,78.069,259.039,79.768,261.819,79.339z"/>
	</g>
	<g>
		<path d="M257.06,59.713c-0.03-0.01-0.05,0.03-0.03,0.04c0.25,0.41,0.6,0.76,0.85,1.18c0.28,0.44,0.52,0.95,0.7,1.44
			c0.03,0.06,0.13,0.06,0.13-0.01C258.62,61.353,258.06,60.123,257.06,59.713z"/>
	</g>
	<g>
		<path d="M255.17,77.369c2.15-2.819,5.639-2.919,8.848-1.93c0.02,0.01,0.04-0.03,0.02-0.04c-3.029-1.69-7.168-1.15-8.898,1.95
			C255.13,77.369,255.16,77.389,255.17,77.369z"/>
	</g>
	<g>
		<path d="M255.18,87.667c-0.02,0.03,0.01,0.06,0.04,0.04c1.01-0.72,0.49-2.03-0.25-2.729c-0.03-0.03-0.07,0-0.05,0.03
			C255.52,85.847,255.65,86.747,255.18,87.667z"/>
	</g>
	<g>
		<path d="M254.36,57.163c-0.03,0-0.03,0.04-0.01,0.05c2.28,0.95,4.379,1.74,5.269,4.269c0.03,0.07,0.14,0.06,0.13-0.02
			C259.429,58.673,256.95,57.403,254.36,57.163z"/>
	</g>
	<g>
		<path d="M253.901,87.027c-0.34,0.26-0.44,0.88-0.44,0.88s0.37,0.3,1.47-0.49C254.93,87.417,254.24,86.767,253.901,87.027z"/>
	</g>
	<g>
		<path d="M258.669,53.304c0.1,0.03,0.15-0.11,0.07-0.17c-1.55-1.11-3.529-0.9-5.049,0.17c-0.02,0.02-0.01,0.05,0.02,0.04
			C255.33,52.714,257.02,52.844,258.669,53.304z"/>
	</g>
	<g>
		<path d="M255.91,65.931c-0.34-0.41-0.75-0.73-1.11-1.12c-0.39-0.41-0.71-0.89-1-1.38c-0.01,0-0.01,0-0.01,0.01
			c0.28,1.02,1,2.229,2.07,2.579C255.91,66.041,255.94,65.961,255.91,65.931z"/>
	</g>
	<g>
		<path d="M254.08,83.538c0-0.02-0.04-0.01-0.03,0.01c0.22,1.08,0.25,2.14-0.61,2.969c-0.03,0.02,0,0.07,0.04,0.06
			C254.86,86.157,254.52,84.507,254.08,83.538z"/>
	</g>
	<g>
		<path d="M253.181,90.496c0.03-0.62,0.13-1.24,0.13-1.86c0-0.05-0.07-0.07-0.09-0.02c-0.32,0.56-0.3,1.29-0.1,1.89
			C253.131,90.536,253.181,90.526,253.181,90.496z"/>
	</g>
	<g>
		<path d="M252.031,118.42c3.589-3.409,9.088-2.569,13.277-5.089c0.06-0.04,0.02-0.14-0.05-0.12c-3.049,1.02-5.859,1.51-9.038,1.94
			c-2.1,0.29-3.519,1.15-4.539,2.999C251.551,118.37,251.851,118.6,252.031,118.42z"/>
	</g>
	<g>
		<path d="M251.751,313.017c1.26,6.868,0.39,13.987-0.61,20.825c-0.03,0.15,0.19,0.28,0.28,0.11
			c3.309-6.718,2.769-14.007,0.46-20.975C251.851,312.887,251.731,312.927,251.751,313.017z"/>
	</g>
	<g>
		<path d="M251.661,59.813c0.02-0.04-0.05-0.06-0.06-0.02c-1.44,3.469,1.06,7.008,4.649,7.428c0.07,0.01,0.1-0.1,0.04-0.13
			C253.391,65.812,250.501,63.332,251.661,59.813z"/>
	</g>
	<g>
		<path d="M261.759,50.265c0.06,0.01,0.1-0.07,0.04-0.1c-3.629-1.67-9.288-2.2-11.008,2.529c-0.01,0.02,0.01,0.02,0.02,0.01
			C253.461,48.895,257.79,49.275,261.759,50.265z"/>
	</g>
	<g>
		<path d="M257.32,55.754c-2.23-1-4.869-0.79-6.689,0.91c-0.03,0.03,0.01,0.08,0.04,0.06c4.999-2.35,9.518,0.83,11.227,5.639
			c0.03,0.07,0.12,0.04,0.11-0.03C261.449,59.483,260.079,56.983,257.32,55.754z"/>
	</g>
	<g>
		<path d="M248.872,87.897c0.41,0.34,0.97-0.05,1.44,0c0.34,0.03,0.9,0.36,1.31,0.41c-0.03,0.48,0.03,0.99,0.07,1.37
			c0,0.02,0.03,0.02,0.03,0c0.06-0.44,0.12-0.88,0.19-1.32c0-0.03,0-0.06,0.01-0.08c0.03-0.01,0.06-0.02,0.08-0.04
			c0.36-0.29,0.46-0.98,0.16-1.43c-0.31-0.44-1.49-0.78-1.6-1.72c-0.1-0.93,0.62-2.01,0.67-3.239c0.05-1.23-1.23-4.969-1.23-4.969
			s0.26,2.359,0.31,3.989c0.05,1.62-0.16,2.11-0.83,3.239c-0.66,1.13-1.18,1.43-1.28,2.21
			C248.102,87.107,248.462,87.547,248.872,87.897z"/>
	</g>
	<g>
		<path d="M249.052,55.464c1.15-1.05,2.439-1.73,3.939-2.16c0.07-0.02,0.05-0.11-0.02-0.12c-1.63-0.11-3.199,0.8-3.969,2.239
			C248.992,55.454,249.022,55.484,249.052,55.464z"/>
	</g>
	<g>
		<path d="M245.392,228.786c-0.08,0.08,0.03,0.24,0.12,0.17c4.989-3.779,11.118-5.539,16.836-7.828c0.05-0.02,0.03-0.09-0.02-0.08
			C256,222.097,249.871,224.017,245.392,228.786z"/>
	</g>
	<g>
		<path d="M253.881,95.975c1.53-0.44,4.349-3.459,4.469-3.579l0.32-0.35l-0.45-0.11c-0.14-0.04-3.319-0.84-4.289-0.83
			c-0.53,0.02-0.86,0.15-1.13,0.26c-0.22,0.1-0.37,0.15-0.58,0.13c-0.17-0.02-0.26-0.08-0.41-0.16c-0.24-0.16-0.57-0.36-1.38-0.43
			c-0.7-0.06-1.89,0.19-3.039,0.42c-0.9,0.18-1.82,0.37-2.23,0.34l-0.78-0.06l0.56,0.54c0.03,0.02,2.12,1.98,3.479,3.089
			c0.88,0.72,2.17,1.02,3.429,1.02C252.561,96.255,253.271,96.155,253.881,95.975z M247.502,91.866c1.06-0.21,2.26-0.46,2.889-0.4
			c0.67,0.05,0.91,0.2,1.13,0.34c0.17,0.1,0.34,0.21,0.64,0.25c0.35,0.04,0.61-0.07,0.86-0.17c0.24-0.1,0.5-0.21,0.93-0.22
			c0.01-0.01,0.03-0.01,0.04-0.01c0.64,0,2.349,0.39,3.449,0.66c-1.32,0.15-2.589,0.46-3.879,0.59c0.12-0.19,0.19-0.42,0.21-0.59
			c0.01-0.03-0.04-0.04-0.05-0.01c-0.13,0.18-0.27,0.37-0.43,0.53c-0.03,0.04-0.06,0.07-0.1,0.1c-0.7,0.05-1.42,0.05-2.15-0.08
			c-0.05-0.03-0.1-0.06-0.16-0.1c-0.16-0.12-0.3-0.26-0.41-0.43c-0.02-0.04-0.08-0.01-0.07,0.03c0.04,0.11,0.11,0.28,0.22,0.42
			c-1.39-0.27-2.779-0.63-4.179-0.7C246.762,92.016,247.112,91.946,247.502,91.866z M248.772,94.805
			c-0.95-0.77-2.259-1.98-2.959-2.619c1.15,0.3,2.369,0.58,3.589,0.8c0,0.01-0.01,0.01-0.01,0.02c-0.16,0.16-0.25,0.34-0.28,0.57
			h0.01c0.13-0.19,0.28-0.37,0.48-0.49c0.03-0.02,0.05-0.03,0.08-0.05c0.6,0.11,1.19,0.21,1.77,0.28c0.24,0.03,0.48,0.05,0.72,0.07
			c0.16,0.32,0.31,0.6,0.33,0.99c0.01,0.03,0.06,0.05,0.07,0.01c0.02-0.18,0.04-0.7-0.1-1c1.61,0.03,3.319-0.3,4.839-0.73
			c-0.91,0.91-2.609,2.499-3.589,2.779C252.191,95.885,250.001,95.805,248.772,94.805z"/>
	</g>
	<g>
		<path d="M243.353,53.774c-0.05,0.02-0.05,0.09,0.01,0.1c0.5,0.04,1,0.02,1.5,0.1c0.44,0.07,0.86,0.23,1.28,0.38
			c0.05,0.01,0.07-0.06,0.03-0.08C245.422,53.704,244.253,53.404,243.353,53.774z"/>
	</g>
	<g>
		<path fill="#FFFFFF" d="M242.433,77.459c0.27,0,0.49-0.24,0.49-0.53c0-0.29-0.22-0.53-0.49-0.53s-0.48,0.24-0.48,0.53
			C241.953,77.219,242.163,77.459,242.433,77.459z"/>
	</g>
	<g>
		<path d="M247.932,53.644c0.05,0.02,0.07-0.05,0.03-0.08c-1.95-1.22-4.459-1.67-6.648-0.86c-0.05,0.02-0.05,0.1,0.01,0.1
			C243.653,52.664,245.732,52.804,247.932,53.644z"/>
	</g>
	<g>
		<path fill="#FFFFFF" d="M247.212,77.559c-0.54-0.44-1.14-0.83-1.82-1.11c0.04,0.13,0.05,0.27,0.05,0.42
			c0,1.08-0.92,1.96-2.07,1.96c-1.14,0-2.07-0.88-2.07-1.96c0-0.23,0.05-0.45,0.13-0.66c-1.3,0.38-1.98,1.12-1.98,1.12
			c0.3,0.54,1.59,1.19,2.429,1.57C244.673,79.469,246.882,77.829,247.212,77.559z"/>
	</g>
	<g>
		<path d="M240.723,57.843c-0.09,0.04-0.02,0.15,0.05,0.14c1.5-0.27,3.109-0.64,4.609-0.21c1.15,0.34,1.92,1.24,3.009,1.68
			c0.01,0.01,0.02-0.01,0.01-0.02c-1.3-0.94-1.95-2.11-3.639-2.389C243.333,56.813,241.993,57.243,240.723,57.843z"/>
	</g>
	<g>
		<path d="M246.042,56.564c0.03,0.01,0.05-0.03,0.03-0.05c-1.76-1.46-4.439-1.43-6.159,0.03c-0.06,0.05,0.01,0.13,0.07,0.1
			C242.023,55.734,243.993,55.714,246.042,56.564z"/>
	</g>
	<g>
		<path d="M239.874,74.89c-0.02,0.01-0.01,0.05,0.02,0.04c3.239-0.87,6.718-0.63,8.758,2.27c0.01,0.02,0.04,0,0.03-0.02
			C247.082,74.01,242.973,73.32,239.874,74.89z"/>
	</g>
	<g>
		<path d="M241.913,120.529c2.11-0.61,3.829-0.61,5.829,0.41c0.17,0.09,0.32-0.12,0.2-0.26c-1.01-1.22-2.24-1.77-3.849-1.63
			c-0.95,0.08-1.81,0.49-2.689,0.81c-1.13,0.42-2.269,0.6-3.439,0.88c-0.05,0.01-0.06,0.09,0,0.1
			C239.334,121.149,240.574,120.909,241.913,120.529z"/>
	</g>
	<g>
		<path d="M239.454,77.329c0,0,0.68-0.74,1.98-1.12c-0.08,0.21-0.13,0.43-0.13,0.66c0,1.08,0.93,1.96,2.07,1.96
			c1.15,0,2.07-0.88,2.07-1.96c0-0.15-0.01-0.29-0.05-0.42c0.68,0.28,1.28,0.67,1.82,1.11c0.2,0.16,0.39,0.33,0.58,0.5
			c0,0-1.49-2.549-4.419-2.699c-1.8-0.09-3.089,0.41-3.909,0.84c-0.09-0.04-0.18-0.08-0.27-0.13c-0.24-0.14-0.47-0.31-0.69-0.48
			c-0.01-0.01-0.03,0-0.02,0.02c0.15,0.3,0.27,0.6,0.55,0.81c0.01,0,0.01,0,0.02,0.01c-0.27,0.16-0.46,0.28-0.56,0.31
			c-0.36,0.09-0.82-0.35-0.82-0.35s0.14,0.61,1.1,1.3c0.96,0.68,2.559,1.44,3.869,1.54c0,0-0.32-0.13-0.76-0.33
			C241.043,78.519,239.754,77.869,239.454,77.329z M242.433,76.399c0.27,0,0.49,0.24,0.49,0.53c0,0.29-0.22,0.53-0.49,0.53
			s-0.48-0.24-0.48-0.53C241.953,76.639,242.163,76.399,242.433,76.399z"/>
	</g>
	<g>
		<path d="M247.582,72.51c-0.71-2.02-6.159-2.799-8.008-2.559c-1.73,0.23-3.199,2.19-3.369,2.439c0.22-0.2,2.02-1.76,3.369-1.95
			C241.013,70.251,247.582,72.51,247.582,72.51z"/>
	</g>
	<g>
		<path d="M234.925,133.047c-0.07-0.92-0.15-1.9-0.4-2.789c-0.03-0.12-0.19-0.09-0.2,0.02c-0.03,0.93,0.19,1.91,0.47,2.789
			C234.815,133.137,234.935,133.127,234.925,133.047z"/>
	</g>
	<g>
		<path d="M234.475,149.093c1.15,0,2.08-0.94,2.08-2.09c0-1.15-0.93-2.09-2.08-2.09c-1.16,0-2.09,0.94-2.09,2.09
			C232.385,148.153,233.315,149.093,234.475,149.093z M234.475,145.874c0.62,0,1.13,0.51,1.13,1.13c0,0.63-0.51,1.13-1.13,1.13
			c-0.63,0-1.13-0.5-1.13-1.13C233.345,146.384,233.845,145.874,234.475,145.874z"/>
	</g>
	<g>
		<path d="M232.425,65.462c-0.57,0.63-0.94,1.35-0.96,2.2c0,0.07,0.1,0.08,0.12,0.02c0.24-0.75,0.51-1.48,0.95-2.13
			C232.585,65.482,232.475,65.402,232.425,65.462z"/>
	</g>
	<g>
		<path fill="#DB1A21" d="M232.685,85.297c0-1.73-0.91-3.189-1.99-3.189c-1.09,0-2,1.46-2,3.189c0,0.63,0.12,1.22,0.32,1.72
			c0.02,0.02,0.05,0.04,0.07,0.06c0.02,0.04,0.02,0.07,0.01,0.1c0.36,0.79,0.95,1.32,1.6,1.32
			C231.775,88.496,232.685,87.037,232.685,85.297z"/>
	</g>
	<g>
		<path d="M233.245,61.692c-1.79,1.32-3.029,3.319-2.769,5.609c0.01,0.06,0.1,0.09,0.12,0.02c0.46-2.04,1.23-3.999,2.769-5.469
			C233.445,61.772,233.335,61.622,233.245,61.692z"/>
	</g>
	<g>
		<path d="M229.736,66.941c0,0.06,0.1,0.08,0.11,0.01c0.28-1.85,1.15-3.899,2.439-5.279c1.58-1.69,3.579-2.159,5.789-2.379
			c0.03,0,0.03-0.03,0.01-0.04c-2.05-0.71-4.469,0.04-6.029,1.47C230.226,62.402,229.716,64.552,229.736,66.941z"/>
	</g>
	<g>
		<path d="M232.275,76.819c-0.25-0.76-0.9-1.28-1.62-1.58c-1.87-0.76-1.98,1.76-1.62,2.949c0.02,0.05,0.09,0.04,0.1-0.01
			c0-0.53,0.04-1.05,0.22-1.55c0.37-1.04,1.35-1.01,2.05-0.31c0.07,0.07,0.14,0.16,0.19,0.24c-0.42,0.05-0.91,0.55-1.05,0.87
			c-0.43,0.91-0.19,2,0.19,2.869c0.01,0.03,0.05,0.01,0.04-0.01c-0.17-0.73-0.18-1.52,0.03-2.24c0.13-0.42,0.29-0.8,0.74-0.97
			c0.1-0.03,0.18-0.05,0.27-0.07c0.2,0.6,0.14,1.3,0.15,1.92c0.02,0.74,0.25,1.73,1.21,1.53c0.01,0,0.01-0.03,0-0.03
			C231.845,80.318,232.545,77.629,232.275,76.819z"/>
	</g>
	<g>
		<path d="M230.806,59.043c0-0.01-0.01-0.02-0.02-0.01c-1.16,0.93-1.77,2.619-1.77,4.069c0,0.07,0.1,0.08,0.12,0.01
			c0.21-0.66,0.42-1.34,0.67-1.98C230.086,60.403,230.506,59.753,230.806,59.043z"/>
	</g>
	<g>
		<path d="M227.766,63.462c0.69-2.06,0.89-4.369,2.369-6.039c1.04-1.18,2.329-2.069,3.279-3.339c0.04-0.05-0.05-0.11-0.09-0.07
			c-1.33,1.4-3.149,2.349-4.199,3.999c-1,1.57-1.26,3.609-1.47,5.429C227.646,63.512,227.746,63.522,227.766,63.462z"/>
	</g>
	<g>
		<path d="M227.096,71.55c0.1,0.04,0.14-0.09,0.09-0.15c-0.36-0.46-0.78-0.88-1.08-1.38c-0.32-0.51-0.47-1.06-0.55-1.65
			c-0.01-0.03-0.06-0.03-0.06,0C225.327,69.581,225.867,71.14,227.096,71.55z"/>
	</g>
	<g>
		<path d="M225.047,71.42c0.07,0.05,0.16-0.05,0.12-0.12c-2-3.199-1.46-5.749,0.08-9.018c0.01-0.02-0.01-0.03-0.03-0.02
			C222.877,64.542,222.058,69.271,225.047,71.42z"/>
	</g>
	<g>
		<path d="M224.727,79.828c-1.63-1.27-1.76-3.059-1.76-4.989c0-0.02-0.04-0.03-0.05,0c-0.45,1.8-0.42,4.449,1.74,5.109
			C224.717,79.968,224.787,79.878,224.727,79.828z"/>
	</g>
	<g>
		<path d="M213.309,195.283c0.61-0.45,1.19-0.95,1.95-1.11c0.1-0.03,0.06-0.15-0.02-0.17c-0.86-0.11-1.84,0.24-2.07,1.17
			C213.15,195.243,213.24,195.333,213.309,195.283z"/>
	</g>
	<g>
		<path d="M313.187,165.21c-1.68-8.408-24.365-60.517-32.553-62.306c-4.819-1.05-10.948,2.439-15.437,4.989
			c-1.91,1.09-4.789,2.739-5.179,2.349c-1.07-1.07-1.23-6.069-1.08-9.188c0.37-0.26,0.74-0.53,1.12-0.82
			c0.53-0.41,1.03-0.86,1.51-1.34c-0.02,1.31,1.11,2.679,2.089,3.429c1.7,1.31,3.679,1.04,5.559,0.4c0.44,0.04,0.86,0.06,1.22,0.03
			c4.309-0.3,7.628-3.729,7.458-8.168c0-0.07-0.01-0.15-0.01-0.22c0.41-0.73,0.66-1.58,0.54-2.319c2.03-2.02,1.82-5.739-0.2-7.788
			c-0.69-1.19-1.78-2.06-3.199-2.12c0.34-1.16,0.92-2.319,1.27-3.379c0.54-1.61,0.82-3.269,0.77-4.969
			c-0.04-1.69-0.39-3.359-1.05-4.909c-0.7-1.66-1.95-3.139-2.19-4.949c0.89-2.19,0.83-4.559-0.64-6.559
			c-1.19-1.61-3.039-2.03-4.809-2.539c-0.01-0.04-0.03-0.07-0.04-0.11c-1.5-3.949-4.389-7.348-8.588-8.208
			c-0.91-0.19-1.82-0.23-2.709-0.15c-3.889-0.96-8.478-0.42-10.618,3.069c-6.928-2.919-17.126-0.29-18.946,7.718
			c-3.139-0.19-4.959,2.909-5.739,5.679c-0.72,2.529-0.81,5.039,0.62,6.819c-2.369,2.759-2.13,7.058,0.37,9.468
			c-2.989,3.519-2.499,10.458,1.87,12.627c2.599,1.31,7.758,1.2,9.308-1.69c0.5,1.52,1.13,3.079,1.92,4.259
			c0.56,0.84,1.45,1.81,2.529,2.809c0.44,4.389,0.98,16.266-1.63,18.876c-1.54,1.54-6.179,2.949-10.678,4.299
			c-4.969,1.51-10.118,3.059-12.107,5.059c-3.409,3.399-28.564,47.829-27.504,54.438c0.71,4.429,9.138,10.128,15.287,14.287
			c2.49,1.68,4.629,3.129,5.489,3.989l4.219,4.209c0.1,0.45,0.25,1.11,0.46,1.84c-1.21,1.41-7.848,9.608-11.767,24.405
			c-4.059,15.327-2.909,32.263,3.839,56.657c5.979,21.595,16.686,43.9,17.506,45.58c0.04,1.19,0.56,11.347,5.069,22.625
			c0.78,1.94,1.81,4.409,2.989,7.258c6.139,14.727,16.406,39.371,16.406,50.139c0,12.547-2.239,17.336-5.929,23.735
			c-0.86,1.49-1.81,2.939-2.659,4.209c-1.08,1.64-2.01,3.049-2.579,4.259c-1,0.81-6.559,5.419-6.719,8.278
			c-0.03,0.57,0.15,1.07,0.53,1.45c0.99,1,2.629,1.34,4.679,1.34c2.06,0,4.529-0.34,7.178-0.71c1.22-0.17,2.449-0.34,3.679-0.48
			c6.729-0.77,10.298-3.129,11.947-7.908l1.23-3.549c1.96,4.319,6.279,9.788,15.707,10.788c1.28,0.13,2.449,0.2,3.519,0.2
			c3.349,0,5.619-0.65,6.759-1.94c0.8-0.9,1.04-2.07,0.72-3.469c-0.49-2.17-3.969-6.559-6.749-10.078
			c-1.41-1.78-2.629-3.319-2.989-3.989h-0.01c-0.75-1.52-1.74-3.139-2.749-4.799c-2.27-3.709-4.609-7.548-4.609-10.508
			c0-1.7,0.23-6.079,0.53-11.627c0.91-17.236,2.439-46.09,0.54-56.128c-1.11-5.869-2.719-11.298-4.139-16.086
			c-1.83-6.159-3.409-11.477-3.409-15.847c0-5.019,5.689-17.006,11.717-29.703c3.399-7.168,6.919-14.577,9.838-21.575
			c7.828-18.706,7.328-36.352,7.248-38.202c1.49-0.66,2.889-1.51,3.919-2.539c2.439-2.439,4.929-6.389,10.648-16.916
			C309.578,198.322,315.177,175.177,313.187,165.21z M268.367,107.312c0.54,3.399,1.47,6.788,2.18,10.158
			c0.02,0.08,0.16,0.07,0.15-0.02c-0.28-3.439-0.78-7.058-2.04-10.298c1.32-0.71,2.709-1.4,4.109-1.97
			c0.72,3.849,4.659,24.875,5.759,33.123c0.19,1.5,0.28,2.419,0.28,2.889c0,2.379-2.2,4.309-3.629,4.309
			c-0.38,0-0.66-0.13-0.87-0.39c-0.26-0.33-0.4-0.87-0.4-1.58c0-0.65-0.1-1.71-0.33-3.349c-1.19-8.718-5.389-29.454-5.999-32.443
			C267.837,107.602,268.097,107.452,268.367,107.312z M279.615,138.655c0.32-0.06,0.6-0.11,0.79-0.14l0.86,2.499
			c0.19,0.68,0.41,1.35,0.68,2l0.01,0.03c0.01,0.02,0.02,0.04,0.03,0.06v0.01c0.04,0.08,3.849,7.778,0.51,15.027
			c-1.2,2.609-2.499,4.799-3.719,6.758c-0.98,1.43-2.06,2.789-3.269,4.019c-1.57,1.6-3.529,2.639-5.189,4.109
			c-0.03,0.02-0.01,0.08,0.04,0.08c1.78-0.05,3.389-0.87,4.809-2.06c-0.42,0.95-0.68,1.83-0.68,2.659v0.89
			c-0.01,3.139-0.04,9.368,0.81,14.687c0.2,6.918-5.359,10.638-10.508,14.127c-0.1,0.07-0.02,0.2,0.09,0.16
			c4.589-2.01,10.708-5.819,11.048-11.208c0.19,0.72,0.4,1.42,0.64,2.05c1.98,5.209,4.379,15.777,4.919,18.246
			c-0.39,0.08-0.65,0.13-0.69,0.13c-0.07,0.02-0.13,0.04-0.19,0.08l-1.54,0.99l-7.148-0.35c-0.14-0.02-0.28,0.04-0.38,0.14
			l-6.479,6.119c-0.11,0.1-0.17,0.23-0.17,0.37c0,0.93-0.05,2.309-0.17,3.349c-12.037,2.369-22.075,10.408-26.204,14.157
			c0.13-0.26,0.26-0.52,0.41-0.77c0.8-1.39,1.8-2.649,2.689-3.979c0.02-0.03-0.02-0.07-0.05-0.05
			c-2.249,1.24-4.059,3.719-4.669,6.319c-0.03,0.03-0.07,0.06-0.09,0.09c-12.627-9.368-19.186-29.693-19.736-31.463
			c0.07-0.34,0.09-0.69,0.08-0.99c0.13,0.04,0.3,0.07,0.45,0.1c0.04,1.63,1.01,3.389,1.71,4.789c0.93,1.88,1.96,3.619,3.409,5.129
			c0.03,0.03,0.07,0,0.05-0.04c-0.92-1.69-1.95-3.329-2.739-5.089c-0.65-1.45-0.95-3.249-1.69-4.689c0.14,0.02,0.29,0.04,0.43,0.04
			c0.94,0,1.36-1.11,1.55-2.05c0.36,0.24,0.83,0.43,1.42,0.43c1.52,0,1.95-2.829,2.05-3.779l-0.07-1.21c0.5,0.98,1.11,1.75,1.8,1.75
			c1.38,0,2.459-0.57,2.499-0.6c0.18-0.1,0.28-0.28,0.27-0.48c-0.1-1.96-0.45-7.518-1.13-10.178c0.03-0.02,0.07-0.06,0.1-0.09
			c1.47,2.13,3.579,3.799,5.569,5.429c0.07,0.06,0.2-0.02,0.14-0.11c-1.49-2.12-3.149-4.289-5.389-5.659
			c1.97-2.299,4.839-9.208,6.179-12.617c0.72,1.95,1.75,3.729,3.189,5.239c0.01,0.01,0.02,0,0.02-0.01
			c-0.77-1.46-1.5-2.939-2.1-4.469c-0.12-0.3-0.44-1.03-0.71-1.79c0.04-0.09,0.08-0.19,0.11-0.27c1.72,1.61,3.889,2.659,6.129,3.499
			c0.07,0.03,0.13-0.08,0.07-0.13c-2.749-2.14-5.479-4.049-7.438-6.998c-0.1-0.14-0.18-0.29-0.28-0.44
			c-0.9-1.63-2.12-3.759-3.509-6.029c-0.09-0.16-0.18-0.32-0.27-0.47c3.039,2.479,6.929,4.089,10.618,4.799
			c0.13,0.02,0.19-0.17,0.05-0.21c-5.599-1.69-9.428-5.539-12.837-9.898c-0.11-2.929,0.44-5.799,1.07-8.668
			c0-0.02-0.02-0.03-0.03-0.01c-1.07,2.339-2.12,4.899-2.01,7.408c-0.1-0.13-0.2-0.26-0.3-0.4c-0.23-1.77-0.19-3.579,0.19-5.299
			c0.64-2.859,2.29-5.009,4.109-7.158c0.18-0.11,0.36-0.23,0.55-0.34c0.25,1.61,0.51,2.759,0.78,3.429
			c0.74,1.84,2.42,2.709,4.009,2.709c0.45,0,0.9-0.07,1.31-0.21c1.68-0.57,2.449-2.1,1.96-3.909c-0.1-0.36-0.25-1.12-0.45-2.619
			c1.46,0.72,3.259,0.95,4.759,1.61c1.88,0.82,3.689,1.79,5.379,2.949c0.03,0.02,0.07-0.03,0.04-0.06
			c-1.61-1.53-3.339-2.809-5.389-3.719c-1.46-0.65-3.219-1.45-4.859-1.32c-0.05-0.4-0.1-0.84-0.15-1.32
			c11.217-0.6,20.286,14.487,20.755,15.277c0,0.02,0,0.04,0.01,0.06c0.01,0.08,0.07,0.11,0.13,0.1c0.09,0.08,0.2,0.14,0.33,0.14
			c0.03,0,0.05,0,0.08-0.01c0.21-0.03,0.38-0.19,0.43-0.4c2.18-10.278,8.218-15.377,13.147-17.896c0.1,0.78,0.16,1.4,0.19,1.87
			c-1.42,0.35-2.909,1.66-3.819,2.549c-1.5,1.44-2.409,3.099-2.969,5.089c-0.03,0.1,0.1,0.15,0.15,0.07
			c1.02-1.66,2.299-3.249,3.699-4.599c0.76-0.73,1.58-1.37,2.439-1.96c0.18-0.13,0.36-0.25,0.54-0.37c0.02,0.88,0.23,1.58,0.62,2.07
			c0.41,0.51,0.99,0.78,1.68,0.78c2.1,0,4.669-2.469,4.669-5.349C279.845,140.725,279.775,139.935,279.615,138.655z
			 M284.774,148.863c3.729,7.778,9.698,20.456,10.448,22.035c-0.49,2.26-1.33,8.108-2.29,14.857
			c-1.38,9.668-3.449,24.165-4.399,25.834c-1.21,0.06-4.129,0.55-6.029,0.89c-0.53-2.419-2.959-13.137-4.969-18.436
			c-2.08-5.459-2.03-15.257-2.01-19.436v-0.9c0-1.72,1.39-3.919,3.149-6.698c0.78-1.14,1.47-2.29,2.05-3.279
			c0.49-0.85,0.99-1.74,1.47-2.649c0.04-0.07,0.07-0.15,0.11-0.22c0.23-0.44,0.46-0.9,0.67-1.35c0.15-0.31,0.31-0.61,0.46-0.93
			c0.36-0.77,0.63-1.55,0.84-2.309C285.054,153.842,285.384,151.333,284.774,148.863z M226.786,189.864
			c-0.06-0.11-0.12-0.2-0.18-0.26c-0.9-0.9-2.359-0.7-3.539-0.53c-0.4,0.05-0.77,0.11-1.06,0.11c-1.05,0-4.349,1.31-5.599,1.83
			l-7.388-14.537c-0.17-0.56-0.43-1.03-0.74-1.45l12.027-23.965c0.62,2.25,2.15,6.908,5.319,11.657
			c1.57,2.36,3.049,4.789,4.299,6.928c0.8,1.77,1.7,3.479,2.709,5.019c0.13,0.19,0.27,0.36,0.4,0.54c0.02,0.03,0.03,0.05,0.04,0.07
			c-0.04,0.33,0.04,0.73,0.15,1.11C231.386,181.156,228.396,188.075,226.786,189.864z M264.908,102.163
			c-1.64-0.81-2.449-2.239-2.629-3.999c0.1-0.11,0.2-0.23,0.29-0.35c-0.25,2.549,2.939,4.189,5.639,4.739
			C267.078,102.683,265.948,102.683,264.908,102.163z M225.817,90.786c0.55,0.21,1.2,0.29,1.97,0.15c0.05-0.01,0.03-0.09-0.02-0.09
			c-4.039-0.29-4.379-5.199-4.369-8.308c0-0.06-0.1-0.08-0.11-0.02c-0.35,2.24-0.21,6.309,1.8,7.858c-0.21-0.13-0.41-0.27-0.59-0.43
			c-1.4-1.18-2.04-3.149-2.329-4.949c-0.33-2.04,0.36-3.729,0.82-5.639c0.42,0.36,0.89,0.67,1.42,0.92c0.06,0.03,0.1-0.05,0.05-0.09
			c-3.319-2.609-3.339-6.679-1.88-10.288c0.45,0.49,1.02,0.92,1.75,1.27c0.08,0.03,0.17-0.06,0.1-0.13
			c-4.109-3.849-1.96-11.737,2.989-13.607c-0.12,0.56-0.19,1.15-0.21,1.76c-0.01,0.1,0.13,0.11,0.15,0.03
			c0.92-3.629,3.229-6.799,6.479-8.548c3.979-2.139,8.198-1.74,12.447-0.99c-0.26,0.45-0.48,0.95-0.65,1.5c0,0.01,0,0.01,0,0.01
			c-4.349-1.44-8.458-0.66-11.767,3.649c-0.04,0.06,0.02,0.18,0.09,0.12c1.93-1.4,3.929-3.149,6.299-3.659
			c2.889-0.61,5.839,0.58,8.568,1.42c0.06,0.02,0.1-0.07,0.04-0.11c-1.06-0.58-2.11-1.05-3.149-1.4
			c2.03-2.919,4.339-3.879,6.969-4.179c-1.67,0.29-3.189,1.16-4.149,2.779c-0.03,0.04,0.02,0.07,0.05,0.04
			c1.1-1.02,2.18-1.84,3.669-2.15c0.38-0.08,0.77-0.13,1.16-0.17c-1.32,0.77-2.429,1.9-3.149,3.399c-0.03,0.06,0.05,0.11,0.09,0.05
			c2.35-3.139,6.459-4.499,10.148-3.279c3.369,1.11,5.979,3.979,7.688,7.078c-1.55-0.45-3.019-0.99-3.939-2.469
			c-0.03-0.04-0.1-0.02-0.08,0.03c0.68,1.81,2.18,2.599,3.899,3.159c1.88,0.61,3.719,1.03,4.799,2.949
			c1.04,1.82,0.85,4.109,0.31,6.059c-0.05,0.2,0.23,0.33,0.33,0.14c0.02-0.05,0.04-0.09,0.06-0.14c0.06,1.12,0.48,2.08,1.01,3.239
			c1.32,2.919,2,5.979,1.29,9.178c-0.67,3.059-3.589,7.078-0.16,9.488c0.06,0.04,0.12-0.05,0.08-0.1
			c-0.83-0.87-1.07-1.82-1.01-2.789c0.32,0.15,0.62,0.26,0.87,0.58c0.04,0.05,0.1,0,0.09-0.05c-0.13-0.41-0.49-0.84-0.93-0.88
			c0.02-0.18,0.05-0.35,0.09-0.53c2.31,1.12,3.959,3.219,3.109,6.109c-0.85,2.859-3.529,4.139-6.259,3.489
			c-0.08-0.02-0.13,0.1-0.05,0.14c2.919,1.7,6.259-0.21,7.168-3.379c0.16-0.57,0.22-1.18,0.2-1.8c0.49,2.06-0.24,4.249-2.479,5.909
			c-0.02,0.01-0.01,0.05,0.01,0.04c0.56-0.18,1.03-0.45,1.44-0.78c-0.36,0.95-0.52,1.94-1.36,2.679c-1.05,0.91-2.3,1.38-3.649,1.53
			c-0.07,0.01-0.07,0.1,0,0.11c1.41,0.11,2.899-0.29,3.999-1.24c0.25-0.22,0.5-0.52,0.72-0.86c-0.38,3.279-2.579,6.229-5.789,7.018
			c-2.529,0.62-5.839,0.08-7.518-1.91c0.72,0.51,1.6,0.76,2.469,0.92c0.06,0.02,0.09-0.07,0.03-0.09c-1.16-0.4-2.329-1-2.929-2.13
			c-0.39-0.73-0.2-1.47-0.19-2.21c0.18-0.28,0.36-0.57,0.53-0.86c0,0.42,0.05,0.83,0.1,1.17c0.16,0.92,0.7,1.98,1.7,2.17
			c0.01,0,0.01-0.01,0.01-0.01c-1.52-1.23-1.37-2.899-1.11-4.599c0.04-0.09,0.09-0.18,0.13-0.26c-0.02,0.89,0.16,1.77,0.59,2.479
			c0.01,0.03,0.05,0.01,0.05-0.02c-0.32-1.25-0.16-2.399,0.09-3.549c0.06,2.969,1.21,5.699,4.569,5.599c0.06,0,0.05-0.07,0-0.08
			c-3.149-0.35-3.979-4.249-3.619-6.698c0.08-0.6,0.2-1.18,0.31-1.77c-0.01,0.68,0.09,1.37,0.17,1.96
			c0.19,1.4,0.57,2.859,1.62,3.859c0.04,0.04,0.11-0.01,0.08-0.05c-0.78-1.18-0.97-2.779-1.04-4.159c-0.04-0.69,0.1-1.41,0.13-2.11
			c0.98,1.23,2.43,1.86,4.169,1.34c0.13-0.05,0.11-0.27-0.04-0.26c-3.069,0.12-4.449-2.839-4.549-5.589
			c0.02-0.16,0.05-0.32,0.07-0.48c0.11,0.43,0.25,0.84,0.43,1.26c0.73,1.69,2.389,3.719,4.449,3.349c0.06-0.01,0.04-0.11-0.02-0.11
			c-2.25-0.13-3.599-2.689-4.099-4.579c-0.42-1.61-0.3-3.379,0.02-5.009c0.02-0.08-0.08-0.12-0.13-0.05
			c-0.14,0.23-0.26,0.46-0.37,0.71c-0.03-0.35-0.07-0.69-0.13-1.04c0.16-1.13,0.12-2.409-0.88-3.119
			c-0.61-0.44-1.72-0.41-2.159-1.05c-0.55-0.78-0.35-2.06-0.86-2.909c-0.01-0.03-0.05-0.02-0.06,0c-0.13,0.36-0.21,0.8-0.25,1.25
			c-0.39-0.25-0.82-0.43-1.17-0.76c-0.41-0.4-0.71-0.87-0.87-1.42c-0.01-0.06-0.1-0.05-0.1,0.01c0.06,0.51,0.3,1.12,0.67,1.6
			c-0.43-0.23-0.83-0.49-1.2-0.83c-1.11-1.02-2.169-2.839-1.45-4.349c0.02-0.04-0.03-0.07-0.05-0.03c-0.92,1.3-0.4,2.919,0.5,4.089
			c0.2,0.26,0.48,0.56,0.8,0.86c-0.37-0.17-0.72-0.36-1.05-0.6c-0.78-0.55-1.56-1.31-1.89-2.219c-0.32-0.9,0.08-1.83,0.1-2.759
			c0-0.1-0.15-0.12-0.17-0.02c-0.18,0.68-0.62,1.19-0.87,1.78c-1.93-0.45-4.029-0.92-5.309-2.479c-1.45-1.78-2.509-4.819-0.99-6.859
			c0.04-0.06-0.04-0.11-0.09-0.07c-0.47,0.42-0.8,0.89-1.01,1.41c-1.32,0.1-2.599-1.15-3.759-1.67c-0.86-0.39-1.56-0.43-2.469-0.23
			c-0.1,0.02-0.1,0.19,0,0.21c0.86,0.15,1.69,0.52,2.479,0.92c-2.599-0.51-4.999,0.06-6.958,2.08c-0.09,0.09,0.03,0.22,0.14,0.17
			c0.13-0.06,0.27-0.14,0.41-0.2c-0.49,0.66-0.96,1.32-1.7,1.73c-1.04,0.57-2.13,0.93-3.119,1.61c-0.08,0.06-0.07,0.22,0.05,0.21
			c0.62-0.08,1.25-0.23,1.85-0.45c-0.36,0.36-0.66,0.78-1.03,1.12c-0.45,0.42-0.93,0.85-1.41,1.24c-0.04,0.04,0.01,0.11,0.06,0.1
			c0.46-0.13,0.95-0.36,1.38-0.68c0.02,1.01-0.09,2.08-0.35,3.029c-0.29,1.06-1.16,1.73-1.73,2.629c-0.07,0.1,0.04,0.25,0.15,0.21
			c0.22-0.09,0.4-0.21,0.58-0.33c-0.11,0.48-0.2,0.97-0.54,1.36c-0.51,0.6-1.02,0.16-1.64,0.1c-0.02-0.01-0.04,0.01-0.06,0.03
			c-0.34-0.24-0.66-0.51-0.94-0.83c-0.03-0.04-0.06-0.09-0.09-0.13c1.37-0.84,2.2-2.869,2.609-4.179c0.02-0.05-0.06-0.08-0.08-0.03
			c-0.54,0.94-1.06,1.96-1.77,2.779c-0.49,0.57-1.04,0.89-1.64,1.2c-0.04,0-0.07,0-0.1,0c0.11-0.19,0.22-0.38,0.32-0.56
			c0.34-0.6,0.63-1.29,0.75-1.97c0-0.03-0.04-0.06-0.06-0.02c-0.34,0.6-0.65,1.21-1.01,1.8c-0.17,0.29-0.4,0.55-0.6,0.83
			c-0.03,0-0.06,0.01-0.09,0.01c-0.67,0.18-1.18,0.59-1.52,1.23c-0.77,1.4-0.54,3.739,0.06,5.769c-0.56-0.17-1.1-0.35-1.56-0.83
			c-0.68-0.72-1.1-1.67-1.44-2.589c-0.03-0.09-0.16-0.06-0.14,0.04c0.22,1.22,0.51,2.449,1.47,3.319c0.48,0.43,1.23,0.86,1.89,0.76
			c0.25,0.72,0.55,1.38,0.85,1.91c-0.69,0.76-1.12,1.93-1.12,3.269c0,0.37,0.04,0.71,0.1,1.05c-0.07-0.03-0.14-0.06-0.19-0.1
			c-0.63-0.41-1.16-0.93-1.49-1.62c-0.04-0.08-0.17-0.02-0.14,0.06c0.24,0.73,0.6,1.41,1.19,1.91c0.2,0.17,0.51,0.4,0.84,0.56
			c0.39,1.13,1.12,1.96,2.03,2.239c-0.71,0.34-1.47,0.51-2.359,0.27c-1.82-0.48-2.479-2.069-3.109-3.649
			c-0.01-0.03-0.06-0.03-0.06,0c0.16,1.93,1.02,3.649,3.019,4.189c1.19,0.32,2.609,0.06,3.519-0.76c0.91-0.14,1.69-0.82,2.16-1.83
			c0.14,0.58,0.32,1.21,0.52,1.86C232.045,91.786,228.396,91.996,225.817,90.786z M230.696,88.496c-0.65,0-1.24-0.53-1.6-1.32
			c0.01-0.03,0.01-0.06-0.01-0.1c-0.02-0.02-0.05-0.04-0.07-0.06c-0.2-0.5-0.32-1.09-0.32-1.72c0-1.73,0.91-3.189,2-3.189
			c1.08,0,1.99,1.46,1.99,3.189C232.685,87.037,231.775,88.496,230.696,88.496z M236.654,93.765c-0.92-1.39-1.63-3.359-2.139-5.139
			c-0.41-1.43-0.69-2.729-0.84-3.499c-0.06-2.27-1.34-4.019-2.979-4.019c-0.39,0-0.76,0.1-1.1,0.28
			c-1.02-1.86-1.97-5.539-1.03-7.268c0.21-0.38,0.5-0.62,0.9-0.73c0.16-0.04,0.34-0.06,0.52-0.06c0.71,0,1.5,0.29,2.04,0.54
			c0.2,0.3,0.52,0.45,0.85,0.48l0.22,0.13l0.02-0.13c0.26-0.03,0.51-0.13,0.72-0.32c0.59-0.51,0.92-1.5,0.7-2.28
			c1.47-1.26,1.55-3.499,1.15-5.409c0.56-0.46,1-1.06,1.11-1.75c0.56-0.22,1.1-0.49,1.57-0.83c0.83-0.6,1.23-1.47,1.54-2.399
			c0.87-0.47,1.72-0.97,2.669-1.23c1.35-0.37,2.739-0.17,4.119-0.12c0.1,0.05,0.2,0.11,0.3,0.16c0.8,0.42,1.57,0.73,2.449,0.51
			c-0.51,1.59-0.03,3.449,0.85,4.949c0.65,1.11,1.58,2.15,2.779,2.689c1.21,0.55,2.489,0.41,3.779,0.41c-0.06,0.25-0.07,0.51,0,0.82
			c0.15,0.71,0.63,1.39,1.16,1.94c-0.86,0.53-1.5,1.16-1.65,1.83c0,0,1.06-0.54,2.379-1.16c1.41,1.14,3.189,1.77,4.959,1.44
			c0.02,0.81,0.23,1.6,0.72,2.11c0.24,0.25,0.53,0.4,0.82,0.52c-0.18,0.13-0.37,0.26-0.57,0.37c-0.09,0.04-0.19,0.08-0.28,0.12
			c-0.8-0.46-2.07-1.01-3.869-0.99c-2.929,0.04-4.519,2.539-4.519,2.539c0.19-0.17,0.39-0.33,0.59-0.48
			c0.57-0.42,1.18-0.79,1.87-1.05c-0.04,0.14-0.07,0.28-0.07,0.42c-0.05,1.09,0.85,2,1.99,2.05c1.14,0.04,2.1-0.81,2.15-1.89
			c0.01-0.23-0.03-0.46-0.1-0.66c1.28,0.43,1.93,1.19,1.93,1.19c-0.32,0.53-1.64,1.13-2.499,1.48c-0.01,0.01-0.03,0.01-0.04,0.01
			c-0.42,0.18-0.72,0.29-0.72,0.29c1.3-0.05,2.939-0.75,3.929-1.4c0.98-0.65,1.15-1.25,1.15-1.25s-0.48,0.42-0.84,0.31
			c-0.09-0.03-0.28-0.16-0.54-0.33c0,0,0.01,0,0.01-0.01c0.25-0.17,0.39-0.42,0.53-0.67c0.28,0.11,0.56,0.21,0.83,0.38
			c0.96,0.58,1.14,1.51,1.33,2.519c0.01,0.39,0.01,0.79-0.03,1.17c-0.09,1.08-0.53,1.95-0.68,2.979c-0.07,0.45-0.09,0.91-0.08,1.37
			c-0.32,1.94-0.75,3.889-1.27,5.659c-1.08,3.729-3.209,6.958-5.989,9.088c-3.129,2.399-5.959,3.879-9.578,3.339
			C246.072,102.214,238.754,96.915,236.654,93.765z M261.879,77.359c-0.01,0.29-0.24,0.52-0.51,0.51c-0.26-0.01-0.47-0.26-0.46-0.55
			c0.01-0.29,0.24-0.52,0.51-0.51C261.679,76.819,261.889,77.059,261.879,77.359z M237.464,116.73
			c2.999-2.999,2.309-14.907,2.02-18.636c0.58,0.48,1.19,0.96,1.82,1.43c2,2.25,6.129,6.499,9.278,7.088
			c3.449,0.66,6.299-1.23,7.288-2.01c0.08,2.469,0.4,5.359,1.41,6.369c0.95,0.95,3.019-0.23,6.439-2.18
			c0.29-0.16,0.6-0.34,0.91-0.51c0.79,3.869,4.659,23.075,5.869,31.673c-4.629,2.289-10.298,6.758-13.117,15.427
			c0.12-5.829-3.279-11.238-3.169-17.156c0-0.03-0.05-0.04-0.06-0.01c-0.68,3.189-0.06,6.519,0.74,9.628
			c0.75,2.899,0.97,5.829,1.3,8.758c-2.949-4.389-10.838-14.487-20.545-13.867c-0.87-8.268-1.8-22.475-1.95-24.785
			C236.424,117.56,237.034,117.16,237.464,116.73z M233.665,118.88c-0.14,2.789,0.13,5.579,0.72,8.298
			c0.02,0.06,0.13,0.05,0.13-0.02c-0.17-2.799-0.33-5.599-0.56-8.398c0.26-0.1,0.49-0.21,0.73-0.32
			c0.22,3.359,1.14,17.096,1.98,24.904c0.29,2.619,0.55,4.369,0.77,5.189c0.35,1.27-0.14,2.26-1.29,2.649
			c-1.38,0.46-3.309-0.13-4.029-1.9c-0.19-0.48-0.49-1.55-0.83-3.949c-0.98-6.989-1.58-19.906-1.61-25.064
			C231.116,119.81,232.475,119.36,233.665,118.88z M207.951,197.342c-0.93-0.93-3.009-2.339-5.649-4.119
			c-5.659-3.829-14.207-9.608-14.847-13.597c-0.89-5.599,22.945-49.269,27.214-53.538c1.81-1.81,6.829-3.329,11.677-4.789
			c0.78-0.24,1.54-0.47,2.3-0.7c0.05,5.299,0.63,17.576,1.57,24.535c-6.339,3.559-6.918,8.808-6.669,11.717
			c-1.8-3.919-2.479-7.018-2.549-7.348c1.02-1.68,2.359-2.999,4.509-2.05c0.06,0.03,0.12-0.04,0.07-0.09
			c-1.53-1.52-3.749-1.27-5.019,0.44c-1.03,1.39-1.5,3.239-2.19,4.809l-10.828,21.585c-2.949-2.559-8.888-1.74-12.167-0.64
			c-0.05,0.01-0.03,0.07,0.02,0.06c4.489-0.67,9.038-0.88,12.167,2.279l7.938,15.637c-0.18,0.05-0.36,0.11-0.54,0.16
			c-1.12,0.34-2.01,1.01-3.009,1.59c-0.04,0.03-0.02,0.1,0.03,0.08c1.2-0.47,2.519-0.82,3.779-1.06c0.3-0.06,0.64-0.1,0.97-0.18
			c-0.24,0.4-0.4,0.88-0.41,1.44c0,0.08,0.1,0.1,0.14,0.04c0.52-0.7,0.81-1.6,1.68-1.97c0.69-0.29,1.44-0.27,2.149-0.44
			c0.07-0.01,0.06-0.1,0-0.12c-0.23-0.08-0.47-0.14-0.7-0.18c1.08-0.38,2.04-0.68,2.42-0.68c0.36,0,0.77-0.05,1.21-0.11
			c0.99-0.15,2.12-0.3,2.649,0.23c0.39,0.44,0.82,3.499,1.11,6.968c-0.59-0.23-1.46,0.07-1.5,0.77c0,0.01,0.01,0.01,0.02,0.01
			c0.34-0.18,0.59-0.36,1-0.34c0.19,0.01,0.36,0.05,0.53,0.1c0.07,0.92,0.14,1.86,0.19,2.779c-0.24,0.07-0.48,0.17-0.77,0.15
			c-0.76-0.08-1.23-0.77-1.6-1.38c-0.57-0.93-0.95-1.93-1.37-2.909c-0.16-0.86-0.37-1.7-0.59-2.509c-0.31-1.13-0.7-2.219-1.81-2.769
			c-0.02-0.01-0.05,0.01-0.04,0.04c1.24,2.02,1.7,8.308,1.7,9.088c-0.08-0.05-0.16-0.1-0.24-0.14c-0.68-0.27-1.41,0.07-1.86,0.58
			c-0.05,0.06,0.02,0.16,0.09,0.12c0.78-0.51,1.53-0.3,2.02,0.33c0,0.24,0.01,0.39,0.01,0.39c-0.16,1.4,0.08,2.19-1.02,2.779
			c-1.1,0.58-0.03-0.01-0.05-0.01c-1.68-0.34-1.81-2.749-2.4-4.699c-0.45-1.52-1.09-2.959-2.02-4.249
			c-0.02-0.04-0.09-0.02-0.07,0.03c0.46,2.05,1,4.239,1.67,6.279c0.01,0.08,0.02,0.15,0.04,0.22c-0.2-0.04-0.41-0.03-0.63,0.05
			c-0.71,0.27-0.98,1-1.07,1.7c0,0.05,0.07,0.05,0.08,0.01c0.19-0.45,0.44-0.97,0.92-1.18c0.23-0.1,0.54-0.07,0.8,0.04
			c0.02,0.16,0.05,0.31,0.07,0.46c0.13,0.86,0.51,1.91-0.47,2.519c-0.41,0.26-0.92,0.27-1.4,0.18c-0.16-0.04-0.29-0.08-0.38-0.11
			c-0.05-0.33-0.12-0.65-0.17-0.95c-0.37-1.97-1.11-3.909-2.16-5.609c-0.01-0.01-0.03,0-0.03,0.01c0.4,1.81,0.9,3.629,1.25,5.469
			c-0.16-0.04-0.32-0.05-0.45-0.03c-0.56,0.1-1.03,0.68-1.05,1.24c0,0,0,0,0.01,0c0.31-0.34,0.55-0.77,1.07-0.77
			c0.2,0,0.36,0.07,0.53,0.16c0.12,0.72,0.22,1.43,0.27,2.15c-0.02,0.26-0.08,0.51-0.22,0.68c-0.08,0.11-0.23,0.25-0.62,0.25
			c-0.89,0-2.2-3.269-2.849-6.309c-0.02-0.1-0.07-0.19-0.14-0.26L207.951,197.342z M238.214,439.299
			c0.85-1.28,1.81-2.739,2.689-4.269c3.779-6.539,6.069-11.437,6.069-24.245c0-10.978-10.318-35.742-16.486-50.539
			c-1.18-2.839-2.21-5.309-2.989-7.248c-4.699-11.757-4.999-22.265-4.999-22.375c0-0.07-0.02-0.15-0.05-0.21
			c-0.12-0.23-11.328-23.255-17.486-45.5c-6.689-24.205-7.838-40.991-3.839-56.118c3.539-13.357,9.298-21.225,11.138-23.495
			c0.67,1.95,1.68,3.959,2.999,3.959c0.49,0,0.84-0.14,1.09-0.32c1.07,3.179,4.829,13.557,11.328,22.345
			c0.64,5.159,3.279,26.874,3.279,36.672c0,11.158-2.16,37.792,0,45.35c2.159,7.558,2.519,11.517,1.98,14.937
			c-0.54,3.419-2.519,5.039-2.519,5.039s3.069,0.17,3.959-1.26c0.89-1.43,10.258,45.89,12.597,52.548
			c2.34,6.659,6.299,28.614,7.018,32.393c0.72,3.779-0.9,8.998,0.36,11.877c1.03,2.35-0.58,8.518-1.2,10.718
			c-4.259,3.999-12.837,8.008-16.636,6.948c-0.7-0.19-1.11-0.48-1.26-0.87C234.815,444.448,236.384,442.069,238.214,439.299z
			 M255.08,444.618c-1.5,4.339-4.819,6.499-11.088,7.218c-1.23,0.14-2.479,0.31-3.699,0.48c-4.819,0.67-9.358,1.3-10.988-0.33
			c-0.17-0.17-0.24-0.38-0.23-0.67c0.1-1.69,3.039-4.639,5.109-6.469c-0.05,0.41-0.03,0.8,0.1,1.15c0.27,0.72,0.93,1.23,1.95,1.51
			c0.52,0.15,1.09,0.21,1.71,0.21c4.879,0,12.527-4.149,16.076-7.548c0.37,0.08,0.72,0.36,0.87,1.09
			c0.21,1.05,0.27,2.269,0.28,3.119L255.08,444.618z M275.496,436.37c0.29,0.37,0.6,0.76,0.93,1.18
			c2.579,3.259,6.119,7.728,6.559,9.668c0.24,1.07,0.08,1.9-0.49,2.549c-0.87,0.99-3.209,2.03-9.388,1.4
			c-9.338-1-13.367-6.439-15.097-10.558c-0.24-0.96-0.43-2.15-0.15-2.859c0.26-0.65,0.6-1.04,0.88-1.28
			c2.429,1.85,5.819,3.419,8.728,4.089c0.96,0.22,2.07,0.4,3.159,0.4c1.52,0,3.019-0.35,4.049-1.38
			C275.516,438.739,275.706,437.64,275.496,436.37z M281.005,266.247c-2.909,6.968-6.419,14.367-9.818,21.525
			c-6.339,13.367-11.817,24.904-11.817,30.153c0,4.519,1.6,9.908,3.449,16.146c1.42,4.759,3.019,10.168,4.119,15.976
			c1.88,9.908,0.35,38.691-0.56,55.888c-0.31,5.779-0.53,9.948-0.53,11.677c0,3.249,2.419,7.208,4.759,11.048
			c1.01,1.66,2,3.279,2.729,4.749c0.01,0,0.01,0.01,0.01,0.01c1.18,2.359,1.7,4.329,0.6,5.429c-1.12,1.12-3.339,1.37-6.249,0.7
			c-4.879-1.13-10.108-4.449-10.978-6.978l-0.05,0.01c-0.04-0.48-0.08-1-0.12-1.57c-0.19-2.459-0.46-5.839-0.46-10.878
			c0-8.808-6.219-33.333-11.707-54.978c-3.709-14.617-7.218-28.434-8.088-34.712c-0.49-3.469-0.94-6.359-1.34-8.908
			c-1.41-8.968-2.26-14.377-2.26-30.253c0-19.496,4.299-48.729,4.649-51.099c1.2-1.23,12.667-12.577,27.164-15.607
			c-0.02,0.05-0.03,0.11-0.05,0.15c-0.49,1.09,0.11,1.98,0.43,2.34v1.23c0,0.69,0.98,1.33,2.899,1.92
			c-0.07,0.44-0.08,1.07,0.26,1.56c0.21,0.29,0.63,0.64,1.44,0.64c1.02,0,2.549-0.64,4.169-1.33c1.37-0.58,2.789-1.19,3.509-1.19
			h5.999c1.41,0,3.239-0.37,5.019-1.03C288.283,232.015,288.373,248.651,281.005,266.247z M302.87,208.5
			c-5.669,10.418-8.118,14.317-10.468,16.676c-2.21,2.2-6.559,3.689-9.238,3.689h-5.999c-0.93,0-2.379,0.61-3.919,1.26
			c-1.38,0.59-2.949,1.26-3.759,1.26c-0.29,0-0.49-0.07-0.59-0.21c-0.05-0.06-0.07-0.15-0.09-0.24
			c0.12-1.88,3.499-4.139,4.589-4.579c1.84-0.74,3.869-0.65,5.749-1.21c0.05-0.01,0.03-0.08-0.01-0.08
			c-3.459-0.36-6.659,0.11-9.188,2.599c-0.31,0.3-0.95,0.96-1.45,1.68c-0.86-0.24-1.7-0.57-2.18-0.81
			c-0.01-1.5,3.699-4.899,4.509-5.249c1.93-0.84,4.519-0.72,6.579-1.29c0.06-0.02,0.04-0.11-0.02-0.11
			c-3.439-0.11-7.008-0.22-9.308,2.589c-0.24,0.3-1.13,1.17-1.83,2.09c-0.87-2.669,3.989-7.798,6.359-7.938
			c2.569-0.15,4.989,0.23,7.528-0.4c0.04-0.01,0.03-0.06-0.01-0.06c-2.469-0.08-5.049-0.41-7.518-0.31
			c-1.86,0.08-2.839,0.83-4.019,2.2c-0.52,0.61-1.88,1.93-2.809,3.299c0.12-1.16-0.33-2.22,0.15-2.989
			c0.48-0.78,4.949-5.459,6.159-5.819c1.21-0.35,8.308,1.27,11.747,0.71c0.09-0.02,0.06-0.14-0.01-0.14
			c-1.27-0.12-2.569-0.37-3.889-0.59l1.15-0.73c0.78-0.15,6.009-1.12,7.518-1.17c0.07,1.39,0.64,2.809,1.4,3.849
			c0.02,0.02,0.05,0,0.04-0.03c-0.76-1.44-0.89-2.749-0.82-4.119c0.91-1.19,1.9-6.599,4.729-26.424
			c0.99-6.908,1.84-12.877,2.319-14.957c0.02-0.11,0.01-0.23-0.04-0.34c-0.11-0.24-11.587-24.605-13.307-27.934l-0.61-1.77
			c-0.57-2.679-0.9-5.379-1.17-8.158c-0.42-4.389-1.12-8.738-1.72-13.107c0-0.02-0.02-0.01-0.02,0
			c0.21,4.959,0.33,9.918,0.79,14.867c0.09,0.98,0.19,1.97,0.33,2.949c-0.2,0.03-0.56,0.07-1.05,0.16
			c-1.22-8.768-5.129-29.613-5.729-32.823c2.339-0.86,4.659-1.32,6.668-0.88c6.988,1.53,29.623,50.819,31.753,61.506
			C314.127,175.187,308.588,197.972,302.87,208.5z"/>
	</g>
</g>
</svg>
