<?xml version="1.0" encoding="utf-8"?>
<!-- Generator: Adobe Illustrator 26.3.1, SVG Export Plug-In . SVG Version: 6.00 Build 0)  -->
<svg version="1.1" id="Layer_1" xmlns="http://www.w3.org/2000/svg" xmlns:xlink="http://www.w3.org/1999/xlink" x="0px" y="0px"
	 viewBox="0 0 995 1000" style="enable-background:new 0 0 995 1000;" xml:space="preserve">
<style type="text/css">
	.st0{clip-path:url(#SVGID_00000084518614759898680520000016132371642048051620_);}
	.st1{fill:#FFFFFF;}
</style>
<g>
	<path d="M241.4,689.4V313.2c0-170.3,95.3-270.7,255.5-270.7c161.4,0,256.8,100.4,256.8,270.7v376.2c0,169.1-95.3,268.2-256.8,268.2
		C336.7,957.6,241.4,858.4,241.4,689.4z M588.4,689.4V313.2c0-72.5-31.8-110.6-91.5-110.6c-59.7,0-90.2,38.1-90.2,110.6v376.2
		c0,71.2,30.5,108,90.2,108C556.6,797.4,588.4,760.6,588.4,689.4z"/>
	<g>
		<defs>
			<path id="SVGID_1_" d="M406.6,313.8c0-7.6,0.3-14.7,1-21.5H241.9c-0.3,7-0.5,14.2-0.5,21.5v376.2c0,6.4,0.1,12.8,0.4,19h165.6
				c-0.5-6-0.8-12.4-0.8-19V313.8z M753.1,292.3H587.3c0.7,6.8,1,13.9,1,21.5v376.2c0,6.6-0.3,13-0.8,19h165.7
				c0.3-6.2,0.4-12.5,0.4-19V313.8C753.6,306.5,753.5,299.4,753.1,292.3z"/>
		</defs>
		<clipPath id="SVGID_00000153683277675319448710000008383698084884589234_">
			<use xlink:href="#SVGID_1_"  style="overflow:visible;"/>
		</clipPath>
		<g style="clip-path:url(#SVGID_00000153683277675319448710000008383698084884589234_);">
			<rect x="134.5" y="177" class="st1" width="683.2" height="616.6"/>
			<g>
				<g>
					<g>
						<g>
							<g>
								<g>
									<g>
										<polygon points="142.3,177 134.7,184.9 134.7,192.1 149.3,177 										"/>
									</g>
								</g>
								<g>
									<g>
										<polygon points="156.2,177 134.7,199.4 134.7,206.6 163.2,177 										"/>
									</g>
									<g>
										<polygon points="170.2,177 134.7,213.8 134.7,221.1 177.2,177 										"/>
									</g>
								</g>
								<g>
									<g>
										<polygon points="184.1,177 134.7,228.3 134.7,229.9 140.2,229.9 191.1,177 										"/>
									</g>
									<g>
										<polygon points="196,179.2 196,186.4 154.1,229.9 147.1,229.9 										"/>
									</g>
								</g>
								<g>
									<g>
										<polygon points="196,193.7 196,200.9 168,229.9 161.1,229.9 										"/>
									</g>
									<g>
										<polygon points="196,208.1 196,215.4 182,229.9 175,229.9 										"/>
									</g>
								</g>
								<g>
									<g>
										<polygon points="196,222.6 196,229.9 195.9,229.9 189,229.9 										"/>
									</g>
								</g>
							</g>
							<rect x="196" y="177" width="61.3" height="52.9"/>
						</g>
						<g>
							<g>
								<g>
									<g>
										<polygon points="264.8,177 257.2,184.9 257.2,192.1 271.8,177 										"/>
									</g>
								</g>
								<g>
									<g>
										<polygon points="278.8,177 257.2,199.4 257.2,206.6 285.8,177 										"/>
									</g>
									<g>
										<polygon points="292.7,177 257.2,213.8 257.2,221.1 299.7,177 										"/>
									</g>
								</g>
								<g>
									<g>
										<polygon points="306.7,177 257.2,228.3 257.2,229.9 262.7,229.9 313.6,177 										"/>
									</g>
									<g>
										<polygon points="318.5,179.2 318.5,186.4 276.6,229.9 269.7,229.9 										"/>
									</g>
								</g>
								<g>
									<g>
										<polygon points="318.5,193.7 318.5,200.9 290.6,229.9 283.6,229.9 										"/>
									</g>
									<g>
										<polygon points="318.5,208.1 318.5,215.4 304.5,229.9 297.6,229.9 										"/>
									</g>
								</g>
								<g>
									<g>
										<polygon points="318.5,222.6 318.5,229.9 318.5,229.9 311.5,229.9 										"/>
									</g>
								</g>
							</g>
							<rect x="318.5" y="177" width="61.3" height="52.9"/>
						</g>
						<g>
							<g>
								<g>
									<g>
										<polygon points="387.4,177 379.8,184.9 379.8,192.1 394.4,177 										"/>
									</g>
								</g>
								<g>
									<g>
										<polygon points="401.3,177 379.8,199.4 379.8,206.6 408.3,177 										"/>
									</g>
									<g>
										<polygon points="415.3,177 379.8,213.8 379.8,221.1 422.2,177 										"/>
									</g>
								</g>
								<g>
									<g>
										<polygon points="429.2,177 379.8,228.3 379.8,229.9 385.2,229.9 436.2,177 										"/>
									</g>
									<g>
										<polygon points="441,179.2 441,186.4 399.2,229.9 392.2,229.9 										"/>
									</g>
								</g>
								<g>
									<g>
										<polygon points="441,193.7 441,200.9 413.1,229.9 406.2,229.9 										"/>
									</g>
									<g>
										<polygon points="441,208.1 441,215.4 427.1,229.9 420.1,229.9 										"/>
									</g>
								</g>
								<g>
									<g>
										<polygon points="441,222.6 441,229.9 441,229.9 434.1,229.9 										"/>
									</g>
								</g>
							</g>
							<rect x="441" y="177" width="61.3" height="52.9"/>
						</g>
						<g>
							<g>
								<g>
									<g>
										<polygon points="509.9,177 502.3,184.9 502.3,192.1 516.9,177 										"/>
									</g>
								</g>
								<g>
									<g>
										<polygon points="523.9,177 502.3,199.4 502.3,206.6 530.8,177 										"/>
									</g>
									<g>
										<polygon points="537.8,177 502.3,213.8 502.3,221.1 544.8,177 										"/>
									</g>
								</g>
								<g>
									<g>
										<polygon points="551.8,177 502.3,228.3 502.3,229.9 507.8,229.9 558.7,177 										"/>
									</g>
									<g>
										<polygon points="563.6,179.2 563.6,186.4 521.7,229.9 514.8,229.9 										"/>
									</g>
								</g>
								<g>
									<g>
										<polygon points="563.6,193.7 563.6,200.9 535.7,229.9 528.7,229.9 										"/>
									</g>
									<g>
										<polygon points="563.6,208.1 563.6,215.4 549.6,229.9 542.6,229.9 										"/>
									</g>
								</g>
								<g>
									<g>
										<polygon points="563.6,222.6 563.6,229.9 563.6,229.9 556.6,229.9 										"/>
									</g>
								</g>
							</g>
							<rect x="563.6" y="177" width="61.3" height="52.9"/>
						</g>
						<g>
							<g>
								<g>
									<g>
										<polygon points="632.5,177 624.9,184.9 624.9,192.1 639.4,177 										"/>
									</g>
								</g>
								<g>
									<g>
										<polygon points="646.4,177 624.9,199.4 624.9,206.6 653.4,177 										"/>
									</g>
									<g>
										<polygon points="660.3,177 624.9,213.8 624.9,221.1 667.3,177 										"/>
									</g>
								</g>
								<g>
									<g>
										<polygon points="674.3,177 624.9,228.3 624.9,229.9 630.3,229.9 681.3,177 										"/>
									</g>
									<g>
										<polygon points="686.1,179.2 686.1,186.4 644.3,229.9 637.3,229.9 										"/>
									</g>
								</g>
								<g>
									<g>
										<polygon points="686.1,193.7 686.1,200.9 658.2,229.9 651.2,229.9 										"/>
									</g>
									<g>
										<polygon points="686.1,208.1 686.1,215.4 672.2,229.9 665.2,229.9 										"/>
									</g>
								</g>
								<g>
									<g>
										<polygon points="686.1,222.6 686.1,229.9 686.1,229.9 679.1,229.9 										"/>
									</g>
								</g>
							</g>
							<rect x="686.1" y="177" width="61.3" height="52.9"/>
						</g>
						<g>
							<g>
								<g>
									<g>
										<polygon points="755,177 747.4,184.9 747.4,192.1 762,177 										"/>
									</g>
								</g>
								<g>
									<g>
										<polygon points="769,177 747.4,199.4 747.4,206.6 775.9,177 										"/>
									</g>
									<g>
										<polygon points="782.9,177 747.4,213.8 747.4,221.1 789.9,177 										"/>
									</g>
								</g>
								<g>
									<g>
										<polygon points="796.8,177 747.4,228.3 747.4,229.9 752.9,229.9 803.8,177 										"/>
									</g>
									<g>
										<polygon points="808.7,179.2 808.7,186.4 766.8,229.9 759.8,229.9 										"/>
									</g>
								</g>
								<g>
									<g>
										<polygon points="808.7,193.7 808.7,200.9 780.8,229.9 773.8,229.9 										"/>
									</g>
									<g>
										<polygon points="808.7,208.1 808.7,215.4 794.7,229.9 787.7,229.9 										"/>
									</g>
								</g>
								<g>
									<g>
										<polygon points="808.7,222.6 808.7,229.9 808.6,229.9 801.7,229.9 										"/>
									</g>
								</g>
							</g>
							<rect x="808.7" y="177" width="9" height="52.9"/>
						</g>
						<g>
							<g>
								<g>
									<g>
										<polygon points="204.7,229.9 196,239 196,231.7 197.7,229.9 										"/>
									</g>
									<g>
										<polygon points="218.7,229.9 196,253.4 196,246.2 211.7,229.9 										"/>
									</g>
								</g>
								<g>
									<g>
										<polygon points="232.6,229.9 196,267.9 196,260.7 225.6,229.9 										"/>
									</g>
									<g>
										<polygon points="246.5,229.9 196,282.4 196,275.1 239.6,229.9 										"/>
									</g>
								</g>
								<g>
									<g>
										<polygon points="257.2,229.9 257.2,233.2 201.4,291.2 196,291.2 196,289.6 253.5,229.9 										"/>
									</g>
									<g>
										<polygon points="257.2,240.5 257.2,247.7 215.4,291.2 208.4,291.2 										"/>
									</g>
								</g>
								<g>
									<g>
										<polygon points="257.2,255 257.2,262.2 229.3,291.2 222.4,291.2 										"/>
									</g>
									<g>
										<polygon points="257.2,269.4 257.2,276.7 243.3,291.2 236.3,291.2 										"/>
									</g>
								</g>
								<g>
									<g>
										<polygon points="257.2,283.9 257.2,291.2 257.2,291.2 250.3,291.2 										"/>
									</g>
								</g>
							</g>
							<g>
								<g>
									<g>
										<polygon points="327.3,229.9 318.5,239 318.5,231.7 320.3,229.9 										"/>
									</g>
									<g>
										<polygon points="341.2,229.9 318.5,253.4 318.5,246.2 334.2,229.9 										"/>
									</g>
								</g>
								<g>
									<g>
										<polygon points="355.2,229.9 318.5,267.9 318.5,260.7 348.2,229.9 										"/>
									</g>
									<g>
										<polygon points="369.1,229.9 318.5,282.4 318.5,275.1 362.1,229.9 										"/>
									</g>
								</g>
								<g>
									<g>
										<polygon points="379.8,229.9 379.8,233.2 324,291.2 318.5,291.2 318.5,289.6 376.1,229.9 										"/>
									</g>
									<g>
										<polygon points="379.8,240.5 379.8,247.7 337.9,291.2 331,291.2 										"/>
									</g>
								</g>
								<g>
									<g>
										<polygon points="379.8,255 379.8,262.2 351.9,291.2 344.9,291.2 										"/>
									</g>
									<g>
										<polygon points="379.8,269.4 379.8,276.7 365.8,291.2 358.9,291.2 										"/>
									</g>
								</g>
								<g>
									<g>
										<polygon points="379.8,283.9 379.8,291.2 379.8,291.2 372.8,291.2 										"/>
									</g>
								</g>
							</g>
							<g>
								<g>
									<g>
										<polygon points="449.8,229.9 441.1,239 441.1,231.7 442.8,229.9 										"/>
									</g>
									<g>
										<polygon points="463.8,229.9 441.1,253.4 441.1,246.2 456.8,229.9 										"/>
									</g>
								</g>
								<g>
									<g>
										<polygon points="477.7,229.9 441.1,267.9 441.1,260.7 470.7,229.9 										"/>
									</g>
									<g>
										<polygon points="491.6,229.9 441.1,282.4 441.1,275.1 484.7,229.9 										"/>
									</g>
								</g>
								<g>
									<g>
										<polygon points="502.4,229.9 502.4,233.2 446.5,291.2 441.1,291.2 441.1,289.6 498.6,229.9 										"/>
									</g>
									<g>
										<polygon points="502.4,240.5 502.4,247.7 460.5,291.2 453.5,291.2 										"/>
									</g>
								</g>
								<g>
									<g>
										<polygon points="502.4,255 502.4,262.2 474.4,291.2 467.5,291.2 										"/>
									</g>
									<g>
										<polygon points="502.4,269.4 502.4,276.7 488.4,291.2 481.4,291.2 										"/>
									</g>
								</g>
								<g>
									<g>
										<polygon points="502.4,283.9 502.4,291.2 502.3,291.2 495.4,291.2 										"/>
									</g>
								</g>
							</g>
							<g>
								<g>
									<g>
										<polygon points="572.4,229.9 563.6,239 563.6,231.7 565.4,229.9 										"/>
									</g>
									<g>
										<polygon points="586.3,229.9 563.6,253.4 563.6,246.2 579.3,229.9 										"/>
									</g>
								</g>
								<g>
									<g>
										<polygon points="600.3,229.9 563.6,267.9 563.6,260.7 593.3,229.9 										"/>
									</g>
									<g>
										<polygon points="614.2,229.9 563.6,282.4 563.6,275.1 607.2,229.9 										"/>
									</g>
								</g>
								<g>
									<g>
										<polygon points="624.9,229.9 624.9,233.2 569.1,291.2 563.6,291.2 563.6,289.6 621.2,229.9 										"/>
									</g>
									<g>
										<polygon points="624.9,240.5 624.9,247.7 583.1,291.2 576.1,291.2 										"/>
									</g>
								</g>
								<g>
									<g>
										<polygon points="624.9,255 624.9,262.2 597,291.2 590,291.2 										"/>
									</g>
									<g>
										<polygon points="624.9,269.4 624.9,276.7 610.9,291.2 604,291.2 										"/>
									</g>
								</g>
								<g>
									<g>
										<polygon points="624.9,283.9 624.9,291.2 624.9,291.2 617.9,291.2 										"/>
									</g>
								</g>
							</g>
							<g>
								<g>
									<g>
										<polygon points="694.9,229.9 686.2,239 686.2,231.7 688,229.9 										"/>
									</g>
									<g>
										<polygon points="708.9,229.9 686.2,253.4 686.2,246.2 701.9,229.9 										"/>
									</g>
								</g>
								<g>
									<g>
										<polygon points="722.8,229.9 686.2,267.9 686.2,260.7 715.8,229.9 										"/>
									</g>
									<g>
										<polygon points="736.8,229.9 686.2,282.4 686.2,275.1 729.8,229.9 										"/>
									</g>
								</g>
								<g>
									<g>
										<polygon points="747.5,229.9 747.5,233.2 691.7,291.2 686.2,291.2 686.2,289.6 743.7,229.9 										"/>
									</g>
									<g>
										<polygon points="747.5,240.5 747.5,247.7 705.6,291.2 698.6,291.2 										"/>
									</g>
								</g>
								<g>
									<g>
										<polygon points="747.5,255 747.5,262.2 719.6,291.2 712.6,291.2 										"/>
									</g>
									<g>
										<polygon points="747.5,269.4 747.5,276.7 733.5,291.2 726.5,291.2 										"/>
									</g>
								</g>
								<g>
									<g>
										<polygon points="747.5,283.9 747.5,291.2 747.4,291.2 740.5,291.2 										"/>
									</g>
								</g>
							</g>
							<g>
								<g>
									<g>
										<polygon points="817.5,229.9 808.7,239 808.7,231.7 810.5,229.9 										"/>
									</g>
									<g>
										<polygon points="817.7,236.9 808.7,246.2 808.7,253.4 817.7,244.1 										"/>
									</g>
								</g>
								<g>
									<g>
										<polygon points="817.7,251.4 808.7,260.7 808.7,267.9 817.7,258.6 										"/>
									</g>
									<g>
										<polygon points="817.7,265.9 808.7,275.1 808.7,282.4 817.7,273.1 										"/>
									</g>
								</g>
								<g>
									<g>
										<polygon points="817.7,280.3 808.7,289.6 808.7,291.2 814.2,291.2 817.7,287.6 										"/>
									</g>
								</g>
							</g>
						</g>
					</g>
					<g>
						<g>
							<g>
								<g>
									<g>
										<polygon points="143.4,291.2 134.7,300.2 134.7,293 136.4,291.2 										"/>
									</g>
									<g>
										<polygon points="157.4,291.2 134.7,314.7 134.7,307.5 150.4,291.2 										"/>
									</g>
								</g>
								<g>
									<g>
										<polygon points="171.3,291.2 134.7,329.2 134.7,321.9 164.3,291.2 										"/>
									</g>
									<g>
										<polygon points="185.2,291.2 134.7,343.7 134.7,336.4 178.3,291.2 										"/>
									</g>
								</g>
								<g>
									<g>
										<polygon points="196,291.2 196,294.5 140.2,352.5 134.7,352.5 134.7,350.9 192.2,291.2 										"/>
									</g>
									<g>
										<polygon points="196,301.8 196,309 154.1,352.5 147.1,352.5 										"/>
									</g>
								</g>
								<g>
									<g>
										<polygon points="196,316.2 196,323.5 168,352.5 161.1,352.5 										"/>
									</g>
									<g>
										<polygon points="196,330.7 196,338 182,352.5 175,352.5 										"/>
									</g>
								</g>
								<g>
									<g>
										<polygon points="196,345.2 196,352.4 195.9,352.5 189,352.5 										"/>
									</g>
								</g>
							</g>
							<rect x="196" y="291.2" width="61.3" height="61.3"/>
						</g>
						<g>
							<g>
								<g>
									<g>
										<polygon points="266,291.2 257.2,300.2 257.2,293 259,291.2 										"/>
									</g>
									<g>
										<polygon points="279.9,291.2 257.2,314.7 257.2,307.5 272.9,291.2 										"/>
									</g>
								</g>
								<g>
									<g>
										<polygon points="293.9,291.2 257.2,329.2 257.2,321.9 286.9,291.2 										"/>
									</g>
									<g>
										<polygon points="307.8,291.2 257.2,343.7 257.2,336.4 300.8,291.2 										"/>
									</g>
								</g>
								<g>
									<g>
										<polygon points="318.5,291.2 318.5,294.5 262.7,352.5 257.2,352.5 257.2,350.9 314.8,291.2 										"/>
									</g>
									<g>
										<polygon points="318.5,301.8 318.5,309 276.6,352.5 269.7,352.5 										"/>
									</g>
								</g>
								<g>
									<g>
										<polygon points="318.5,316.2 318.5,323.5 290.6,352.5 283.6,352.5 										"/>
									</g>
									<g>
										<polygon points="318.5,330.7 318.5,338 304.5,352.5 297.6,352.5 										"/>
									</g>
								</g>
								<g>
									<g>
										<polygon points="318.5,345.2 318.5,352.4 318.5,352.5 311.5,352.5 										"/>
									</g>
								</g>
							</g>
							<rect x="318.5" y="291.2" width="61.3" height="61.3"/>
						</g>
						<g>
							<g>
								<g>
									<g>
										<polygon points="388.5,291.2 379.8,300.2 379.8,293 381.5,291.2 										"/>
									</g>
									<g>
										<polygon points="402.5,291.2 379.8,314.7 379.8,307.5 395.5,291.2 										"/>
									</g>
								</g>
								<g>
									<g>
										<polygon points="416.4,291.2 379.8,329.2 379.8,321.9 409.4,291.2 										"/>
									</g>
									<g>
										<polygon points="430.3,291.2 379.8,343.7 379.8,336.4 423.4,291.2 										"/>
									</g>
								</g>
								<g>
									<g>
										<polygon points="441,291.2 441,294.5 385.2,352.5 379.8,352.5 379.8,350.9 437.3,291.2 										"/>
									</g>
									<g>
										<polygon points="441,301.8 441,309 399.2,352.5 392.2,352.5 										"/>
									</g>
								</g>
								<g>
									<g>
										<polygon points="441,316.2 441,323.5 413.1,352.5 406.2,352.5 										"/>
									</g>
									<g>
										<polygon points="441,330.7 441,338 427.1,352.5 420.1,352.5 										"/>
									</g>
								</g>
								<g>
									<g>
										<polygon points="441,345.2 441,352.4 441,352.5 434.1,352.5 										"/>
									</g>
								</g>
							</g>
							<polygon points="441.6,299.6 502.3,299.6 502.3,291.2 441,291.2 441,352.5 441.6,352.5 							"/>
						</g>
						<g>
							<g>
								<g>
									<g>
										<polygon points="502.9,299.6 511,291.2 504.1,291.2 502.3,293 502.3,299.6 										"/>
									</g>
									<g>
										<polygon points="516.9,299.6 525,291.2 518,291.2 509.9,299.6 										"/>
									</g>
								</g>
								<g>
									<g>
										<polygon points="530.8,299.6 538.9,291.2 532,291.2 523.9,299.6 										"/>
									</g>
									<g>
										<polygon points="544.8,299.6 552.9,291.2 545.9,291.2 537.8,299.6 										"/>
									</g>
								</g>
								<g>
									<g>
										<polygon points="559.8,291.2 551.7,299.6 558.7,299.6 563.6,294.5 563.6,291.2 										"/>
									</g>
									<g>
										<polygon points="558.8,306.7 558.8,314 563.6,309 563.6,301.8 										"/>
									</g>
								</g>
								<g>
									<g>
										<polygon points="558.8,321.2 558.8,328.4 563.6,323.5 563.6,316.2 										"/>
									</g>
									<g>
										<polygon points="558.8,335.7 558.8,342.9 563.6,338 563.6,330.7 										"/>
									</g>
								</g>
								<g>
									<g>
										<polygon points="558.8,350.2 558.8,352.5 563.6,352.5 563.6,352.4 563.6,345.2 										"/>
									</g>
								</g>
							</g>
							<rect x="563.6" y="291.2" width="61.3" height="61.3"/>
						</g>
						<g>
							<g>
								<g>
									<g>
										<polygon points="633.6,291.2 624.9,300.2 624.9,293 626.6,291.2 										"/>
									</g>
									<g>
										<polygon points="647.5,291.2 624.9,314.7 624.9,307.5 640.6,291.2 										"/>
									</g>
								</g>
								<g>
									<g>
										<polygon points="661.5,291.2 624.9,329.2 624.9,321.9 654.5,291.2 										"/>
									</g>
									<g>
										<polygon points="675.4,291.2 624.9,343.7 624.9,336.4 668.4,291.2 										"/>
									</g>
								</g>
								<g>
									<g>
										<polygon points="686.1,291.2 686.1,294.5 630.3,352.5 624.9,352.5 624.9,350.9 682.4,291.2 										"/>
									</g>
									<g>
										<polygon points="686.1,301.8 686.1,309 644.3,352.5 637.3,352.5 										"/>
									</g>
								</g>
								<g>
									<g>
										<polygon points="686.1,316.2 686.1,323.5 658.2,352.5 651.2,352.5 										"/>
									</g>
									<g>
										<polygon points="686.1,330.7 686.1,338 672.2,352.5 665.2,352.5 										"/>
									</g>
								</g>
								<g>
									<g>
										<polygon points="686.1,345.2 686.1,352.4 686.1,352.5 679.1,352.5 										"/>
									</g>
								</g>
							</g>
							<rect x="686.1" y="291.2" width="61.3" height="61.3"/>
						</g>
						<g>
							<g>
								<g>
									<g>
										<polygon points="756.1,291.2 747.4,300.2 747.4,293 749.2,291.2 										"/>
									</g>
									<g>
										<polygon points="770.1,291.2 747.4,314.7 747.4,307.5 763.1,291.2 										"/>
									</g>
								</g>
								<g>
									<g>
										<polygon points="784,291.2 747.4,329.2 747.4,321.9 777,291.2 										"/>
									</g>
									<g>
										<polygon points="798,291.2 747.4,343.7 747.4,336.4 791,291.2 										"/>
									</g>
								</g>
								<g>
									<g>
										<polygon points="808.7,291.2 808.7,294.5 752.9,352.5 747.4,352.5 747.4,350.9 804.9,291.2 										"/>
									</g>
									<g>
										<polygon points="808.7,301.8 808.7,309 766.8,352.5 759.8,352.5 										"/>
									</g>
								</g>
								<g>
									<g>
										<polygon points="808.7,316.2 808.7,323.5 780.8,352.5 773.8,352.5 										"/>
									</g>
									<g>
										<polygon points="808.7,330.7 808.7,338 794.7,352.5 787.7,352.5 										"/>
									</g>
								</g>
								<g>
									<g>
										<polygon points="808.7,345.2 808.7,352.4 808.6,352.5 801.7,352.5 										"/>
									</g>
								</g>
							</g>
							<rect x="808.7" y="291.2" width="9" height="61.3"/>
						</g>
						<g>
							<g>
								<g>
									<g>
										<polygon points="204.7,352.5 196,361.5 196,354.3 197.7,352.5 										"/>
									</g>
									<g>
										<polygon points="218.7,352.5 196,376 196,368.8 211.7,352.5 										"/>
									</g>
								</g>
								<g>
									<g>
										<polygon points="232.6,352.5 196,390.5 196,383.2 225.6,352.5 										"/>
									</g>
									<g>
										<polygon points="246.5,352.5 196,404.9 196,397.7 239.6,352.5 										"/>
									</g>
								</g>
								<g>
									<g>
										<polygon points="257.2,352.5 257.2,355.8 201.4,413.7 196,413.7 196,412.2 253.5,352.5 										"/>
									</g>
									<g>
										<polygon points="257.2,363.1 257.2,370.3 215.4,413.7 208.4,413.7 										"/>
									</g>
								</g>
								<g>
									<g>
										<polygon points="257.2,377.5 257.2,384.8 229.3,413.7 222.4,413.7 										"/>
									</g>
									<g>
										<polygon points="257.2,392 257.2,399.2 243.3,413.7 236.3,413.7 										"/>
									</g>
								</g>
								<g>
									<g>
										<polygon points="257.2,406.5 257.2,413.7 257.2,413.7 250.3,413.7 										"/>
									</g>
								</g>
							</g>
							<g>
								<g>
									<g>
										<polygon points="327.3,352.5 318.5,361.5 318.5,354.3 320.3,352.5 										"/>
									</g>
									<g>
										<polygon points="341.2,352.5 318.5,376 318.5,368.8 334.2,352.5 										"/>
									</g>
								</g>
								<g>
									<g>
										<polygon points="355.2,352.5 318.5,390.5 318.5,383.2 348.2,352.5 										"/>
									</g>
									<g>
										<polygon points="369.1,352.5 318.5,404.9 318.5,397.7 362.1,352.5 										"/>
									</g>
								</g>
								<g>
									<g>
										<polygon points="379.8,352.5 379.8,355.8 324,413.7 318.5,413.7 318.5,412.2 376.1,352.5 										"/>
									</g>
									<g>
										<polygon points="379.8,363.1 379.8,370.3 337.9,413.7 331,413.7 										"/>
									</g>
								</g>
								<g>
									<g>
										<polygon points="379.8,377.5 379.8,384.8 351.9,413.7 344.9,413.7 										"/>
									</g>
									<g>
										<polygon points="379.8,392 379.8,399.2 365.8,413.7 358.9,413.7 										"/>
									</g>
								</g>
								<g>
									<g>
										<polygon points="379.8,406.5 379.8,413.7 379.8,413.7 372.8,413.7 										"/>
									</g>
								</g>
							</g>
							<g>
								<g>
									<g>
										<polygon points="441.6,353.7 441.1,354.3 441.1,361.5 441.6,361 										"/>
									</g>
									<g>
										<polygon points="441.6,368.2 441.1,368.8 441.1,376 441.6,375.4 										"/>
									</g>
								</g>
								<g>
									<g>
										<polygon points="441.6,382.7 441.1,383.2 441.1,390.5 441.6,389.9 										"/>
									</g>
									<g>
										<polygon points="441.6,397.1 441.1,397.7 441.1,404.9 441.6,404.4 										"/>
									</g>
								</g>
							</g>
							<g>
								<g>
									<g>
										<polygon points="572.4,352.5 563.6,361.5 563.6,354.3 565.4,352.5 										"/>
									</g>
									<g>
										<polygon points="586.3,352.5 563.6,376 563.6,368.8 579.3,352.5 										"/>
									</g>
								</g>
								<g>
									<g>
										<polygon points="600.3,352.5 563.6,390.5 563.6,383.2 593.3,352.5 										"/>
									</g>
									<g>
										<polygon points="614.2,352.5 563.6,404.9 563.6,397.7 607.2,352.5 										"/>
									</g>
								</g>
								<g>
									<g>
										<polygon points="624.9,352.5 624.9,355.8 569.1,413.7 563.6,413.7 563.6,412.2 621.2,352.5 										"/>
									</g>
									<g>
										<polygon points="624.9,363.1 624.9,370.3 583.1,413.7 576.1,413.7 										"/>
									</g>
								</g>
								<g>
									<g>
										<polygon points="624.9,377.5 624.9,384.8 597,413.7 590,413.7 										"/>
									</g>
									<g>
										<polygon points="624.9,392 624.9,399.2 610.9,413.7 604,413.7 										"/>
									</g>
								</g>
								<g>
									<g>
										<polygon points="624.9,406.5 624.9,413.7 624.9,413.7 617.9,413.7 										"/>
									</g>
								</g>
							</g>
							<g>
								<g>
									<g>
										<polygon points="694.9,352.5 686.2,361.5 686.2,354.3 688,352.5 										"/>
									</g>
									<g>
										<polygon points="708.9,352.5 686.2,376 686.2,368.8 701.9,352.5 										"/>
									</g>
								</g>
								<g>
									<g>
										<polygon points="722.8,352.5 686.2,390.5 686.2,383.2 715.8,352.5 										"/>
									</g>
									<g>
										<polygon points="736.8,352.5 686.2,404.9 686.2,397.7 729.8,352.5 										"/>
									</g>
								</g>
								<g>
									<g>
										<polygon points="747.5,352.5 747.5,355.8 691.7,413.7 686.2,413.7 686.2,412.2 743.7,352.5 										"/>
									</g>
									<g>
										<polygon points="747.5,363.1 747.5,370.3 705.6,413.7 698.6,413.7 										"/>
									</g>
								</g>
								<g>
									<g>
										<polygon points="747.5,377.5 747.5,384.8 719.6,413.7 712.6,413.7 										"/>
									</g>
									<g>
										<polygon points="747.5,392 747.5,399.2 733.5,413.7 726.5,413.7 										"/>
									</g>
								</g>
								<g>
									<g>
										<polygon points="747.5,406.5 747.5,413.7 747.4,413.7 740.5,413.7 										"/>
									</g>
								</g>
							</g>
							<g>
								<g>
									<g>
										<polygon points="817.5,352.5 808.7,361.5 808.7,354.3 810.5,352.5 										"/>
									</g>
									<g>
										<polygon points="817.7,359.5 808.7,368.8 808.7,376 817.7,366.7 										"/>
									</g>
								</g>
								<g>
									<g>
										<polygon points="817.7,374 808.7,383.2 808.7,390.5 817.7,381.2 										"/>
									</g>
									<g>
										<polygon points="817.7,388.4 808.7,397.7 808.7,404.9 817.7,395.7 										"/>
									</g>
								</g>
								<g>
									<g>
										<polygon points="817.7,402.9 808.7,412.2 808.7,413.7 814.2,413.7 817.7,410.1 										"/>
									</g>
								</g>
							</g>
						</g>
					</g>
					<g>
						<g>
							<g>
								<g>
									<g>
										<polygon points="143.4,413.7 134.7,422.8 134.7,415.6 136.4,413.7 										"/>
									</g>
									<g>
										<polygon points="157.4,413.7 134.7,437.3 134.7,430 150.4,413.7 										"/>
									</g>
								</g>
								<g>
									<g>
										<polygon points="171.3,413.7 134.7,451.8 134.7,444.5 164.3,413.7 										"/>
									</g>
									<g>
										<polygon points="185.2,413.7 134.7,466.2 134.7,459 178.3,413.7 										"/>
									</g>
								</g>
								<g>
									<g>
										<polygon points="196,413.7 196,417.1 140.2,475 134.7,475 134.7,473.5 192.2,413.7 										"/>
									</g>
									<g>
										<polygon points="196,424.3 196,431.6 154.1,475 147.1,475 										"/>
									</g>
								</g>
								<g>
									<g>
										<polygon points="196,438.8 196,446 168,475 161.1,475 										"/>
									</g>
									<g>
										<polygon points="196,453.3 196,460.5 182,475 175,475 										"/>
									</g>
								</g>
								<g>
									<g>
										<polygon points="196,467.8 196,475 195.9,475 189,475 										"/>
									</g>
								</g>
							</g>
							<rect x="196" y="413.7" width="61.3" height="61.3"/>
						</g>
						<g>
							<g>
								<g>
									<g>
										<polygon points="266,413.7 257.2,422.8 257.2,415.6 259,413.7 										"/>
									</g>
									<g>
										<polygon points="279.9,413.7 257.2,437.3 257.2,430 272.9,413.7 										"/>
									</g>
								</g>
								<g>
									<g>
										<polygon points="293.9,413.7 257.2,451.8 257.2,444.5 286.9,413.7 										"/>
									</g>
									<g>
										<polygon points="307.8,413.7 257.2,466.2 257.2,459 300.8,413.7 										"/>
									</g>
								</g>
								<g>
									<g>
										<polygon points="318.5,413.7 318.5,417.1 262.7,475 257.2,475 257.2,473.5 314.8,413.7 										"/>
									</g>
									<g>
										<polygon points="318.5,424.3 318.5,431.6 276.6,475 269.7,475 										"/>
									</g>
								</g>
								<g>
									<g>
										<polygon points="318.5,438.8 318.5,446 290.6,475 283.6,475 										"/>
									</g>
									<g>
										<polygon points="318.5,453.3 318.5,460.5 304.5,475 297.6,475 										"/>
									</g>
								</g>
								<g>
									<g>
										<polygon points="318.5,467.8 318.5,475 318.5,475 311.5,475 										"/>
									</g>
								</g>
							</g>
							<rect x="318.5" y="413.7" width="61.3" height="61.3"/>
						</g>
						<g>
							<g>
								<g>
									<g>
										<polygon points="388.5,413.7 379.8,422.8 379.8,415.6 381.5,413.7 										"/>
									</g>
									<g>
										<polygon points="402.5,413.7 379.8,437.3 379.8,430 395.5,413.7 										"/>
									</g>
								</g>
								<g>
									<g>
										<polygon points="416.4,413.7 379.8,451.8 379.8,444.5 409.4,413.7 										"/>
									</g>
									<g>
										<polygon points="430.3,413.7 379.8,466.2 379.8,459 423.4,413.7 										"/>
									</g>
								</g>
								<g>
									<g>
										<polygon points="441,413.7 441,417.1 385.2,475 379.8,475 379.8,473.5 437.3,413.7 										"/>
									</g>
									<g>
										<polygon points="441,424.3 441,431.6 399.2,475 392.2,475 										"/>
									</g>
								</g>
								<g>
									<g>
										<polygon points="441,438.8 441,446 413.1,475 406.2,475 										"/>
									</g>
									<g>
										<polygon points="441,453.3 441,460.5 427.1,475 420.1,475 										"/>
									</g>
								</g>
								<g>
									<g>
										<polygon points="441,467.8 441,475 441,475 434.1,475 										"/>
									</g>
								</g>
							</g>
							<rect x="441" y="413.7" width="0.6" height="61.3"/>
						</g>
						<g>
							<g>
								<g>
									<g>
										<polygon points="559.8,413.7 558.8,414.8 558.8,422.1 563.6,417.1 563.6,413.7 										"/>
									</g>
									<g>
										<polygon points="558.8,429.3 558.8,436.5 563.6,431.6 563.6,424.3 										"/>
									</g>
								</g>
								<g>
									<g>
										<polygon points="558.8,443.8 558.8,451 563.6,446 563.6,438.8 										"/>
									</g>
									<g>
										<polygon points="558.8,458.3 558.8,465.5 563.6,460.5 563.6,453.3 										"/>
									</g>
								</g>
								<g>
									<g>
										<polygon points="558.8,472.7 558.8,475 563.6,475 563.6,475 563.6,467.8 										"/>
									</g>
								</g>
							</g>
							<rect x="563.6" y="413.7" width="61.3" height="61.3"/>
						</g>
						<g>
							<g>
								<g>
									<g>
										<polygon points="633.6,413.7 624.9,422.8 624.9,415.6 626.6,413.7 										"/>
									</g>
									<g>
										<polygon points="647.5,413.7 624.9,437.3 624.9,430 640.6,413.7 										"/>
									</g>
								</g>
								<g>
									<g>
										<polygon points="661.5,413.7 624.9,451.8 624.9,444.5 654.5,413.7 										"/>
									</g>
									<g>
										<polygon points="675.4,413.7 624.9,466.2 624.9,459 668.4,413.7 										"/>
									</g>
								</g>
								<g>
									<g>
										<polygon points="686.1,413.7 686.1,417.1 630.3,475 624.9,475 624.9,473.5 682.4,413.7 										"/>
									</g>
									<g>
										<polygon points="686.1,424.3 686.1,431.6 644.3,475 637.3,475 										"/>
									</g>
								</g>
								<g>
									<g>
										<polygon points="686.1,438.8 686.1,446 658.2,475 651.2,475 										"/>
									</g>
									<g>
										<polygon points="686.1,453.3 686.1,460.5 672.2,475 665.2,475 										"/>
									</g>
								</g>
								<g>
									<g>
										<polygon points="686.1,467.8 686.1,475 686.1,475 679.1,475 										"/>
									</g>
								</g>
							</g>
							<rect x="686.1" y="413.7" width="61.3" height="61.3"/>
						</g>
						<g>
							<g>
								<g>
									<g>
										<polygon points="756.1,413.7 747.4,422.8 747.4,415.6 749.2,413.7 										"/>
									</g>
									<g>
										<polygon points="770.1,413.7 747.4,437.3 747.4,430 763.1,413.7 										"/>
									</g>
								</g>
								<g>
									<g>
										<polygon points="784,413.7 747.4,451.8 747.4,444.5 777,413.7 										"/>
									</g>
									<g>
										<polygon points="798,413.7 747.4,466.2 747.4,459 791,413.7 										"/>
									</g>
								</g>
								<g>
									<g>
										<polygon points="808.7,413.7 808.7,417.1 752.9,475 747.4,475 747.4,473.5 804.9,413.7 										"/>
									</g>
									<g>
										<polygon points="808.7,424.3 808.7,431.6 766.8,475 759.8,475 										"/>
									</g>
								</g>
								<g>
									<g>
										<polygon points="808.7,438.8 808.7,446 780.8,475 773.8,475 										"/>
									</g>
									<g>
										<polygon points="808.7,453.3 808.7,460.5 794.7,475 787.7,475 										"/>
									</g>
								</g>
								<g>
									<g>
										<polygon points="808.7,467.8 808.7,475 808.6,475 801.7,475 										"/>
									</g>
								</g>
							</g>
							<rect x="808.7" y="413.7" width="9" height="61.3"/>
						</g>
						<g>
							<g>
								<g>
									<g>
										<polygon points="204.7,475 196,484.1 196,476.9 197.7,475 										"/>
									</g>
									<g>
										<polygon points="218.7,475 196,498.6 196,491.3 211.7,475 										"/>
									</g>
								</g>
								<g>
									<g>
										<polygon points="232.6,475 196,513 196,505.8 225.6,475 										"/>
									</g>
									<g>
										<polygon points="246.5,475 196,527.5 196,520.3 239.6,475 										"/>
									</g>
								</g>
								<g>
									<g>
										<polygon points="257.2,475 257.2,478.4 201.4,536.3 196,536.3 196,534.8 253.5,475 										"/>
									</g>
									<g>
										<polygon points="257.2,485.6 257.2,492.9 215.4,536.3 208.4,536.3 										"/>
									</g>
								</g>
								<g>
									<g>
										<polygon points="257.2,500.1 257.2,507.3 229.3,536.3 222.4,536.3 										"/>
									</g>
									<g>
										<polygon points="257.2,514.6 257.2,521.8 243.3,536.3 236.3,536.3 										"/>
									</g>
								</g>
								<g>
									<g>
										<polygon points="257.2,529.1 257.2,536.3 257.2,536.3 250.3,536.3 										"/>
									</g>
								</g>
							</g>
							<g>
								<g>
									<g>
										<polygon points="327.3,475 318.5,484.1 318.5,476.9 320.3,475 										"/>
									</g>
									<g>
										<polygon points="341.2,475 318.5,498.6 318.5,491.3 334.2,475 										"/>
									</g>
								</g>
								<g>
									<g>
										<polygon points="355.2,475 318.5,513 318.5,505.8 348.2,475 										"/>
									</g>
									<g>
										<polygon points="369.1,475 318.5,527.5 318.5,520.3 362.1,475 										"/>
									</g>
								</g>
								<g>
									<g>
										<polygon points="379.8,475 379.8,478.4 324,536.3 318.5,536.3 318.5,534.8 376.1,475 										"/>
									</g>
									<g>
										<polygon points="379.8,485.6 379.8,492.9 337.9,536.3 331,536.3 										"/>
									</g>
								</g>
								<g>
									<g>
										<polygon points="379.8,500.1 379.8,507.3 351.9,536.3 344.9,536.3 										"/>
									</g>
									<g>
										<polygon points="379.8,514.6 379.8,521.8 365.8,536.3 358.9,536.3 										"/>
									</g>
								</g>
								<g>
									<g>
										<polygon points="379.8,529.1 379.8,536.3 379.8,536.3 372.8,536.3 										"/>
									</g>
								</g>
							</g>
							<g>
								<g>
									<g>
										<polygon points="441.6,476.3 441.1,476.9 441.1,484.1 441.6,483.5 										"/>
									</g>
									<g>
										<polygon points="441.6,490.8 441.1,491.3 441.1,498.6 441.6,498 										"/>
									</g>
								</g>
								<g>
									<g>
										<polygon points="441.6,505.3 441.1,505.8 441.1,513 441.6,512.5 										"/>
									</g>
									<g>
										<polygon points="441.6,519.7 441.1,520.3 441.1,527.5 441.6,527 										"/>
									</g>
								</g>
							</g>
							<g>
								<g>
									<g>
										<polygon points="572.4,475 563.6,484.1 563.6,476.9 565.4,475 										"/>
									</g>
									<g>
										<polygon points="586.3,475 563.6,498.6 563.6,491.3 579.3,475 										"/>
									</g>
								</g>
								<g>
									<g>
										<polygon points="600.3,475 563.6,513 563.6,505.8 593.3,475 										"/>
									</g>
									<g>
										<polygon points="614.2,475 563.6,527.5 563.6,520.3 607.2,475 										"/>
									</g>
								</g>
								<g>
									<g>
										<polygon points="624.9,475 624.9,478.4 569.1,536.3 563.6,536.3 563.6,534.8 621.2,475 										"/>
									</g>
									<g>
										<polygon points="624.9,485.6 624.9,492.9 583.1,536.3 576.1,536.3 										"/>
									</g>
								</g>
								<g>
									<g>
										<polygon points="624.9,500.1 624.9,507.3 597,536.3 590,536.3 										"/>
									</g>
									<g>
										<polygon points="624.9,514.6 624.9,521.8 610.9,536.3 604,536.3 										"/>
									</g>
								</g>
								<g>
									<g>
										<polygon points="624.9,529.1 624.9,536.3 624.9,536.3 617.9,536.3 										"/>
									</g>
								</g>
							</g>
							<g>
								<g>
									<g>
										<polygon points="694.9,475 686.2,484.1 686.2,476.9 688,475 										"/>
									</g>
									<g>
										<polygon points="708.9,475 686.2,498.6 686.2,491.3 701.9,475 										"/>
									</g>
								</g>
								<g>
									<g>
										<polygon points="722.8,475 686.2,513 686.2,505.8 715.8,475 										"/>
									</g>
									<g>
										<polygon points="736.8,475 686.2,527.5 686.2,520.3 729.8,475 										"/>
									</g>
								</g>
								<g>
									<g>
										<polygon points="747.5,475 747.5,478.4 691.7,536.3 686.2,536.3 686.2,534.8 743.7,475 										"/>
									</g>
									<g>
										<polygon points="747.5,485.6 747.5,492.9 705.6,536.3 698.6,536.3 										"/>
									</g>
								</g>
								<g>
									<g>
										<polygon points="747.5,500.1 747.5,507.3 719.6,536.3 712.6,536.3 										"/>
									</g>
									<g>
										<polygon points="747.5,514.6 747.5,521.8 733.5,536.3 726.5,536.3 										"/>
									</g>
								</g>
								<g>
									<g>
										<polygon points="747.5,529.1 747.5,536.3 747.4,536.3 740.5,536.3 										"/>
									</g>
								</g>
							</g>
							<g>
								<g>
									<g>
										<polygon points="817.5,475 808.7,484.1 808.7,476.9 810.5,475 										"/>
									</g>
									<g>
										<polygon points="817.7,482.1 808.7,491.3 808.7,498.6 817.7,489.3 										"/>
									</g>
								</g>
								<g>
									<g>
										<polygon points="817.7,496.5 808.7,505.8 808.7,513 817.7,503.8 										"/>
									</g>
									<g>
										<polygon points="817.7,511 808.7,520.3 808.7,527.5 817.7,518.2 										"/>
									</g>
								</g>
								<g>
									<g>
										<polygon points="817.7,525.5 808.7,534.8 808.7,536.3 814.2,536.3 817.7,532.7 										"/>
									</g>
								</g>
							</g>
						</g>
					</g>
				</g>
				<g>
					<g>
						<g>
							<g>
								<g>
									<g>
										<polygon points="143.4,536.3 134.7,545.4 134.7,538.2 136.4,536.3 										"/>
									</g>
									<g>
										<polygon points="157.4,536.3 134.7,559.9 134.7,552.6 150.4,536.3 										"/>
									</g>
								</g>
								<g>
									<g>
										<polygon points="171.3,536.3 134.7,574.4 134.7,567.1 164.3,536.3 										"/>
									</g>
									<g>
										<polygon points="185.2,536.3 134.7,588.8 134.7,581.6 178.3,536.3 										"/>
									</g>
								</g>
								<g>
									<g>
										<polygon points="196,536.3 196,539.7 140.2,597.6 134.7,597.6 134.7,596.1 192.2,536.3 										"/>
									</g>
									<g>
										<polygon points="196,546.9 196,554.2 154.1,597.6 147.1,597.6 										"/>
									</g>
								</g>
								<g>
									<g>
										<polygon points="196,561.4 196,568.6 168,597.6 161.1,597.6 										"/>
									</g>
									<g>
										<polygon points="196,575.9 196,583.1 182,597.6 175,597.6 										"/>
									</g>
								</g>
								<g>
									<g>
										<polygon points="196,590.4 196,597.6 195.9,597.6 189,597.6 										"/>
									</g>
								</g>
							</g>
							<rect x="196" y="536.3" width="61.3" height="61.3"/>
						</g>
						<g>
							<g>
								<g>
									<g>
										<polygon points="266,536.3 257.2,545.4 257.2,538.2 259,536.3 										"/>
									</g>
									<g>
										<polygon points="279.9,536.3 257.2,559.9 257.2,552.6 272.9,536.3 										"/>
									</g>
								</g>
								<g>
									<g>
										<polygon points="293.9,536.3 257.2,574.4 257.2,567.1 286.9,536.3 										"/>
									</g>
									<g>
										<polygon points="307.8,536.3 257.2,588.8 257.2,581.6 300.8,536.3 										"/>
									</g>
								</g>
								<g>
									<g>
										<polygon points="318.5,536.3 318.5,539.7 262.7,597.6 257.2,597.6 257.2,596.1 314.8,536.3 										"/>
									</g>
									<g>
										<polygon points="318.5,546.9 318.5,554.2 276.6,597.6 269.7,597.6 										"/>
									</g>
								</g>
								<g>
									<g>
										<polygon points="318.5,561.4 318.5,568.6 290.6,597.6 283.6,597.6 										"/>
									</g>
									<g>
										<polygon points="318.5,575.9 318.5,583.1 304.5,597.6 297.6,597.6 										"/>
									</g>
								</g>
								<g>
									<g>
										<polygon points="318.5,590.4 318.5,597.6 318.5,597.6 311.5,597.6 										"/>
									</g>
								</g>
							</g>
							<rect x="318.5" y="536.3" width="61.3" height="61.3"/>
						</g>
						<g>
							<g>
								<g>
									<g>
										<polygon points="388.5,536.3 379.8,545.4 379.8,538.2 381.5,536.3 										"/>
									</g>
									<g>
										<polygon points="402.5,536.3 379.8,559.9 379.8,552.6 395.5,536.3 										"/>
									</g>
								</g>
								<g>
									<g>
										<polygon points="416.4,536.3 379.8,574.4 379.8,567.1 409.4,536.3 										"/>
									</g>
									<g>
										<polygon points="430.3,536.3 379.8,588.8 379.8,581.6 423.4,536.3 										"/>
									</g>
								</g>
								<g>
									<g>
										<polygon points="441,536.3 441,539.7 385.2,597.6 379.8,597.6 379.8,596.1 437.3,536.3 										"/>
									</g>
									<g>
										<polygon points="441,546.9 441,554.2 399.2,597.6 392.2,597.6 										"/>
									</g>
								</g>
								<g>
									<g>
										<polygon points="441,561.4 441,568.6 413.1,597.6 406.2,597.6 										"/>
									</g>
									<g>
										<polygon points="441,575.9 441,583.1 427.1,597.6 420.1,597.6 										"/>
									</g>
								</g>
								<g>
									<g>
										<polygon points="441,590.4 441,597.6 441,597.6 434.1,597.6 										"/>
									</g>
								</g>
							</g>
							<rect x="441" y="536.3" width="0.6" height="61.3"/>
						</g>
						<g>
							<g>
								<g>
									<g>
										<polygon points="559.8,536.3 558.8,537.4 558.8,544.7 563.6,539.7 563.6,536.3 										"/>
									</g>
									<g>
										<polygon points="558.8,551.9 558.8,559.1 563.6,554.2 563.6,546.9 										"/>
									</g>
								</g>
								<g>
									<g>
										<polygon points="558.8,566.4 558.8,573.6 563.6,568.6 563.6,561.4 										"/>
									</g>
									<g>
										<polygon points="558.8,580.9 558.8,588.1 563.6,583.1 563.6,575.9 										"/>
									</g>
								</g>
								<g>
									<g>
										<polygon points="558.8,595.3 558.8,597.6 563.6,597.6 563.6,597.6 563.6,590.4 										"/>
									</g>
								</g>
							</g>
							<rect x="563.6" y="536.3" width="61.3" height="61.3"/>
						</g>
						<g>
							<g>
								<g>
									<g>
										<polygon points="633.6,536.3 624.9,545.4 624.9,538.2 626.6,536.3 										"/>
									</g>
									<g>
										<polygon points="647.5,536.3 624.9,559.9 624.9,552.6 640.6,536.3 										"/>
									</g>
								</g>
								<g>
									<g>
										<polygon points="661.5,536.3 624.9,574.4 624.9,567.1 654.5,536.3 										"/>
									</g>
									<g>
										<polygon points="675.4,536.3 624.9,588.8 624.9,581.6 668.4,536.3 										"/>
									</g>
								</g>
								<g>
									<g>
										<polygon points="686.1,536.3 686.1,539.7 630.3,597.6 624.9,597.6 624.9,596.1 682.4,536.3 										"/>
									</g>
									<g>
										<polygon points="686.1,546.9 686.1,554.2 644.3,597.6 637.3,597.6 										"/>
									</g>
								</g>
								<g>
									<g>
										<polygon points="686.1,561.4 686.1,568.6 658.2,597.6 651.2,597.6 										"/>
									</g>
									<g>
										<polygon points="686.1,575.9 686.1,583.1 672.2,597.6 665.2,597.6 										"/>
									</g>
								</g>
								<g>
									<g>
										<polygon points="686.1,590.4 686.1,597.6 686.1,597.6 679.1,597.6 										"/>
									</g>
								</g>
							</g>
							<rect x="686.1" y="536.3" width="61.3" height="61.3"/>
						</g>
						<g>
							<g>
								<g>
									<g>
										<polygon points="756.1,536.3 747.4,545.4 747.4,538.2 749.2,536.3 										"/>
									</g>
									<g>
										<polygon points="770.1,536.3 747.4,559.9 747.4,552.6 763.1,536.3 										"/>
									</g>
								</g>
								<g>
									<g>
										<polygon points="784,536.3 747.4,574.4 747.4,567.1 777,536.3 										"/>
									</g>
									<g>
										<polygon points="798,536.3 747.4,588.8 747.4,581.6 791,536.3 										"/>
									</g>
								</g>
								<g>
									<g>
										<polygon points="808.7,536.3 808.7,539.7 752.9,597.6 747.4,597.6 747.4,596.1 804.9,536.3 										"/>
									</g>
									<g>
										<polygon points="808.7,546.9 808.7,554.2 766.8,597.6 759.8,597.6 										"/>
									</g>
								</g>
								<g>
									<g>
										<polygon points="808.7,561.4 808.7,568.6 780.8,597.6 773.8,597.6 										"/>
									</g>
									<g>
										<polygon points="808.7,575.9 808.7,583.1 794.7,597.6 787.7,597.6 										"/>
									</g>
								</g>
								<g>
									<g>
										<polygon points="808.7,590.4 808.7,597.6 808.6,597.6 801.7,597.6 										"/>
									</g>
								</g>
							</g>
							<rect x="808.7" y="536.3" width="9" height="61.3"/>
						</g>
						<g>
							<g>
								<g>
									<g>
										<polygon points="204.7,597.6 196,606.7 196,599.5 197.7,597.6 										"/>
									</g>
									<g>
										<polygon points="218.7,597.6 196,621.2 196,613.9 211.7,597.6 										"/>
									</g>
								</g>
								<g>
									<g>
										<polygon points="232.6,597.6 196,635.6 196,628.4 225.6,597.6 										"/>
									</g>
									<g>
										<polygon points="246.5,597.6 196,650.1 196,642.9 239.6,597.6 										"/>
									</g>
								</g>
								<g>
									<g>
										<polygon points="257.2,597.6 257.2,601 201.4,658.9 196,658.9 196,657.4 253.5,597.6 										"/>
									</g>
									<g>
										<polygon points="257.2,608.2 257.2,615.5 215.4,658.9 208.4,658.9 										"/>
									</g>
								</g>
								<g>
									<g>
										<polygon points="257.2,622.7 257.2,629.9 229.3,658.9 222.4,658.9 										"/>
									</g>
									<g>
										<polygon points="257.2,637.2 257.2,644.4 243.3,658.9 236.3,658.9 										"/>
									</g>
								</g>
								<g>
									<g>
										<polygon points="257.2,651.7 257.2,658.9 257.2,658.9 250.3,658.9 										"/>
									</g>
								</g>
							</g>
							<g>
								<g>
									<g>
										<polygon points="327.3,597.6 318.5,606.7 318.5,599.5 320.3,597.6 										"/>
									</g>
									<g>
										<polygon points="341.2,597.6 318.5,621.2 318.5,613.9 334.2,597.6 										"/>
									</g>
								</g>
								<g>
									<g>
										<polygon points="355.2,597.6 318.5,635.6 318.5,628.4 348.2,597.6 										"/>
									</g>
									<g>
										<polygon points="369.1,597.6 318.5,650.1 318.5,642.9 362.1,597.6 										"/>
									</g>
								</g>
								<g>
									<g>
										<polygon points="379.8,597.6 379.8,601 324,658.9 318.5,658.9 318.5,657.4 376.1,597.6 										"/>
									</g>
									<g>
										<polygon points="379.8,608.2 379.8,615.5 337.9,658.9 331,658.9 										"/>
									</g>
								</g>
								<g>
									<g>
										<polygon points="379.8,622.7 379.8,629.9 351.9,658.9 344.9,658.9 										"/>
									</g>
									<g>
										<polygon points="379.8,637.2 379.8,644.4 365.8,658.9 358.9,658.9 										"/>
									</g>
								</g>
								<g>
									<g>
										<polygon points="379.8,651.7 379.8,658.9 379.8,658.9 372.8,658.9 										"/>
									</g>
								</g>
							</g>
							<g>
								<g>
									<g>
										<polygon points="441.6,598.9 441.1,599.5 441.1,606.7 441.6,606.1 										"/>
									</g>
									<g>
										<polygon points="441.6,613.4 441.1,613.9 441.1,621.2 441.6,620.6 										"/>
									</g>
								</g>
								<g>
									<g>
										<polygon points="441.6,627.9 441.1,628.4 441.1,635.6 441.6,635.1 										"/>
									</g>
									<g>
										<polygon points="441.6,642.3 441.1,642.9 441.1,650.1 441.6,649.6 										"/>
									</g>
								</g>
							</g>
							<g>
								<g>
									<g>
										<polygon points="572.4,597.6 563.6,606.7 563.6,599.5 565.4,597.6 										"/>
									</g>
									<g>
										<polygon points="586.3,597.6 563.6,621.2 563.6,613.9 579.3,597.6 										"/>
									</g>
								</g>
								<g>
									<g>
										<polygon points="600.3,597.6 563.6,635.6 563.6,628.4 593.3,597.6 										"/>
									</g>
									<g>
										<polygon points="614.2,597.6 563.6,650.1 563.6,642.9 607.2,597.6 										"/>
									</g>
								</g>
								<g>
									<g>
										<polygon points="624.9,597.6 624.9,601 569.1,658.9 563.6,658.9 563.6,657.4 621.2,597.6 										"/>
									</g>
									<g>
										<polygon points="624.9,608.2 624.9,615.5 583.1,658.9 576.1,658.9 										"/>
									</g>
								</g>
								<g>
									<g>
										<polygon points="624.9,622.7 624.9,629.9 597,658.9 590,658.9 										"/>
									</g>
									<g>
										<polygon points="624.9,637.2 624.9,644.4 610.9,658.9 604,658.9 										"/>
									</g>
								</g>
								<g>
									<g>
										<polygon points="624.9,651.7 624.9,658.9 624.9,658.9 617.9,658.9 										"/>
									</g>
								</g>
							</g>
							<g>
								<g>
									<g>
										<polygon points="694.9,597.6 686.2,606.7 686.2,599.5 688,597.6 										"/>
									</g>
									<g>
										<polygon points="708.9,597.6 686.2,621.2 686.2,613.9 701.9,597.6 										"/>
									</g>
								</g>
								<g>
									<g>
										<polygon points="722.8,597.6 686.2,635.6 686.2,628.4 715.8,597.6 										"/>
									</g>
									<g>
										<polygon points="736.8,597.6 686.2,650.1 686.2,642.9 729.8,597.6 										"/>
									</g>
								</g>
								<g>
									<g>
										<polygon points="747.5,597.6 747.5,601 691.7,658.9 686.2,658.9 686.2,657.4 743.7,597.6 										"/>
									</g>
									<g>
										<polygon points="747.5,608.2 747.5,615.5 705.6,658.9 698.6,658.9 										"/>
									</g>
								</g>
								<g>
									<g>
										<polygon points="747.5,622.7 747.5,629.9 719.6,658.9 712.6,658.9 										"/>
									</g>
									<g>
										<polygon points="747.5,637.2 747.5,644.4 733.5,658.9 726.5,658.9 										"/>
									</g>
								</g>
								<g>
									<g>
										<polygon points="747.5,651.7 747.5,658.9 747.4,658.9 740.5,658.9 										"/>
									</g>
								</g>
							</g>
							<g>
								<g>
									<g>
										<polygon points="817.5,597.6 808.7,606.7 808.7,599.5 810.5,597.6 										"/>
									</g>
									<g>
										<polygon points="817.7,604.6 808.7,613.9 808.7,621.2 817.7,611.9 										"/>
									</g>
								</g>
								<g>
									<g>
										<polygon points="817.7,619.1 808.7,628.4 808.7,635.6 817.7,626.4 										"/>
									</g>
									<g>
										<polygon points="817.7,633.6 808.7,642.9 808.7,650.1 817.7,640.8 										"/>
									</g>
								</g>
								<g>
									<g>
										<polygon points="817.7,648.1 808.7,657.4 808.7,658.9 814.2,658.9 817.7,655.3 										"/>
									</g>
								</g>
							</g>
						</g>
					</g>
					<g>
						<g>
							<g>
								<g>
									<g>
										<polygon points="143.4,658.9 134.7,668 134.7,660.7 136.4,658.9 										"/>
									</g>
									<g>
										<polygon points="157.4,658.9 134.7,682.4 134.7,675.2 150.4,658.9 										"/>
									</g>
								</g>
								<g>
									<g>
										<polygon points="171.3,658.9 134.7,696.9 134.7,689.7 164.3,658.9 										"/>
									</g>
									<g>
										<polygon points="185.2,658.9 134.7,711.4 134.7,704.2 178.3,658.9 										"/>
									</g>
								</g>
								<g>
									<g>
										<polygon points="196,658.9 196,662.3 140.2,720.2 134.7,720.2 134.7,718.6 192.2,658.9 										"/>
									</g>
									<g>
										<polygon points="196,669.5 196,676.8 154.1,720.2 147.1,720.2 										"/>
									</g>
								</g>
								<g>
									<g>
										<polygon points="196,684 196,691.2 168,720.2 161.1,720.2 										"/>
									</g>
									<g>
										<polygon points="196,698.5 196,705.7 182,720.2 175,720.2 										"/>
									</g>
								</g>
								<g>
									<g>
										<polygon points="196,712.9 196,720.2 195.9,720.2 189,720.2 										"/>
									</g>
								</g>
							</g>
							<rect x="196" y="658.9" width="61.3" height="61.3"/>
						</g>
						<g>
							<g>
								<g>
									<g>
										<polygon points="266,658.9 257.2,668 257.2,660.7 259,658.9 										"/>
									</g>
									<g>
										<polygon points="279.9,658.9 257.2,682.4 257.2,675.2 272.9,658.9 										"/>
									</g>
								</g>
								<g>
									<g>
										<polygon points="293.9,658.9 257.2,696.9 257.2,689.7 286.9,658.9 										"/>
									</g>
									<g>
										<polygon points="307.8,658.9 257.2,711.4 257.2,704.2 300.8,658.9 										"/>
									</g>
								</g>
								<g>
									<g>
										<polygon points="318.5,658.9 318.5,662.3 262.7,720.2 257.2,720.2 257.2,718.6 314.8,658.9 										"/>
									</g>
									<g>
										<polygon points="318.5,669.5 318.5,676.8 276.6,720.2 269.7,720.2 										"/>
									</g>
								</g>
								<g>
									<g>
										<polygon points="318.5,684 318.5,691.2 290.6,720.2 283.6,720.2 										"/>
									</g>
									<g>
										<polygon points="318.5,698.5 318.5,705.7 304.5,720.2 297.6,720.2 										"/>
									</g>
								</g>
								<g>
									<g>
										<polygon points="318.5,712.9 318.5,720.2 318.5,720.2 311.5,720.2 										"/>
									</g>
								</g>
							</g>
							<rect x="318.5" y="658.9" width="61.3" height="61.3"/>
						</g>
						<g>
							<g>
								<g>
									<g>
										<polygon points="388.5,658.9 379.8,668 379.8,660.7 381.5,658.9 										"/>
									</g>
									<g>
										<polygon points="402.5,658.9 379.8,682.4 379.8,675.2 395.5,658.9 										"/>
									</g>
								</g>
								<g>
									<g>
										<polygon points="416.4,658.9 379.8,696.9 379.8,689.7 409.4,658.9 										"/>
									</g>
									<g>
										<polygon points="430.3,658.9 379.8,711.4 379.8,704.2 423.4,658.9 										"/>
									</g>
								</g>
								<g>
									<g>
										<polygon points="441,658.9 441,662.3 385.2,720.2 379.8,720.2 379.8,718.6 437.3,658.9 										"/>
									</g>
									<g>
										<polygon points="441,669.5 441,676.8 399.2,720.2 392.2,720.2 										"/>
									</g>
								</g>
								<g>
									<g>
										<polygon points="441,684 441,691.2 413.1,720.2 406.2,720.2 										"/>
									</g>
									<g>
										<polygon points="441,698.5 441,705.7 427.1,720.2 420.1,720.2 										"/>
									</g>
								</g>
								<g>
									<g>
										<polygon points="441,712.9 441,720.2 441,720.2 434.1,720.2 										"/>
									</g>
								</g>
							</g>
							<rect x="441" y="658.9" width="0.6" height="61.3"/>
						</g>
						<g>
							<g>
								<g>
									<g>
										<polygon points="559.8,658.9 558.8,660 558.8,667.2 563.6,662.3 563.6,658.9 										"/>
									</g>
									<g>
										<polygon points="558.8,674.5 558.8,681.7 563.6,676.8 563.6,669.5 										"/>
									</g>
								</g>
								<g>
									<g>
										<polygon points="558.8,689 558.8,696.2 563.6,691.2 563.6,684 										"/>
									</g>
									<g>
										<polygon points="558.8,703.4 558.8,710.7 563.6,705.7 563.6,698.5 										"/>
									</g>
								</g>
								<g>
									<g>
										<polygon points="558.8,717.9 558.8,720.2 563.6,720.2 563.6,720.2 563.6,712.9 										"/>
									</g>
								</g>
							</g>
							<rect x="563.6" y="658.9" width="61.3" height="61.3"/>
						</g>
						<g>
							<g>
								<g>
									<g>
										<polygon points="633.6,658.9 624.9,668 624.9,660.7 626.6,658.9 										"/>
									</g>
									<g>
										<polygon points="647.5,658.9 624.9,682.4 624.9,675.2 640.6,658.9 										"/>
									</g>
								</g>
								<g>
									<g>
										<polygon points="661.5,658.9 624.9,696.9 624.9,689.7 654.5,658.9 										"/>
									</g>
									<g>
										<polygon points="675.4,658.9 624.9,711.4 624.9,704.2 668.4,658.9 										"/>
									</g>
								</g>
								<g>
									<g>
										<polygon points="686.1,658.9 686.1,662.3 630.3,720.2 624.9,720.2 624.9,718.6 682.4,658.9 										"/>
									</g>
									<g>
										<polygon points="686.1,669.5 686.1,676.8 644.3,720.2 637.3,720.2 										"/>
									</g>
								</g>
								<g>
									<g>
										<polygon points="686.1,684 686.1,691.2 658.2,720.2 651.2,720.2 										"/>
									</g>
									<g>
										<polygon points="686.1,698.5 686.1,705.7 672.2,720.2 665.2,720.2 										"/>
									</g>
								</g>
								<g>
									<g>
										<polygon points="686.1,712.9 686.1,720.2 686.1,720.2 679.1,720.2 										"/>
									</g>
								</g>
							</g>
							<rect x="686.1" y="658.9" width="61.3" height="61.3"/>
						</g>
						<g>
							<g>
								<g>
									<g>
										<polygon points="756.1,658.9 747.4,668 747.4,660.7 749.2,658.9 										"/>
									</g>
									<g>
										<polygon points="770.1,658.9 747.4,682.4 747.4,675.2 763.1,658.9 										"/>
									</g>
								</g>
								<g>
									<g>
										<polygon points="784,658.9 747.4,696.9 747.4,689.7 777,658.9 										"/>
									</g>
									<g>
										<polygon points="798,658.9 747.4,711.4 747.4,704.2 791,658.9 										"/>
									</g>
								</g>
								<g>
									<g>
										<polygon points="808.7,658.9 808.7,662.3 752.9,720.2 747.4,720.2 747.4,718.6 804.9,658.9 										"/>
									</g>
									<g>
										<polygon points="808.7,669.5 808.7,676.8 766.8,720.2 759.8,720.2 										"/>
									</g>
								</g>
								<g>
									<g>
										<polygon points="808.7,684 808.7,691.2 780.8,720.2 773.8,720.2 										"/>
									</g>
									<g>
										<polygon points="808.7,698.5 808.7,705.7 794.7,720.2 787.7,720.2 										"/>
									</g>
								</g>
								<g>
									<g>
										<polygon points="808.7,712.9 808.7,720.2 808.6,720.2 801.7,720.2 										"/>
									</g>
								</g>
							</g>
							<rect x="808.7" y="658.9" width="9" height="61.3"/>
						</g>
						<g>
							<g>
								<g>
									<g>
										<polygon points="204.7,720.2 196,729.3 196,722 197.7,720.2 										"/>
									</g>
									<g>
										<polygon points="218.7,720.2 196,743.7 196,736.5 211.7,720.2 										"/>
									</g>
								</g>
								<g>
									<g>
										<polygon points="232.6,720.2 196,758.2 196,751 225.6,720.2 										"/>
									</g>
									<g>
										<polygon points="246.5,720.2 196,772.7 196,765.5 239.6,720.2 										"/>
									</g>
								</g>
								<g>
									<g>
										<polygon points="257.2,720.2 257.2,723.6 201.4,781.5 196,781.5 196,779.9 253.5,720.2 										"/>
									</g>
									<g>
										<polygon points="257.2,730.8 257.2,738 215.4,781.5 208.4,781.5 										"/>
									</g>
								</g>
								<g>
									<g>
										<polygon points="257.2,745.3 257.2,752.5 229.3,781.5 222.4,781.5 										"/>
									</g>
									<g>
										<polygon points="257.2,759.8 257.2,767 243.3,781.5 236.3,781.5 										"/>
									</g>
								</g>
								<g>
									<g>
										<polygon points="257.2,774.2 257.2,781.5 257.2,781.5 250.3,781.5 										"/>
									</g>
								</g>
							</g>
							<g>
								<g>
									<g>
										<polygon points="327.3,720.2 318.5,729.3 318.5,722 320.3,720.2 										"/>
									</g>
									<g>
										<polygon points="341.2,720.2 318.5,743.7 318.5,736.5 334.2,720.2 										"/>
									</g>
								</g>
								<g>
									<g>
										<polygon points="355.2,720.2 318.5,758.2 318.5,751 348.2,720.2 										"/>
									</g>
									<g>
										<polygon points="369.1,720.2 318.5,772.7 318.5,765.5 362.1,720.2 										"/>
									</g>
								</g>
								<g>
									<g>
										<polygon points="379.8,720.2 379.8,723.6 324,781.5 318.5,781.5 318.5,779.9 376.1,720.2 										"/>
									</g>
									<g>
										<polygon points="379.8,730.8 379.8,738 337.9,781.5 331,781.5 										"/>
									</g>
								</g>
								<g>
									<g>
										<polygon points="379.8,745.3 379.8,752.5 351.9,781.5 344.9,781.5 										"/>
									</g>
									<g>
										<polygon points="379.8,759.8 379.8,767 365.8,781.5 358.9,781.5 										"/>
									</g>
								</g>
								<g>
									<g>
										<polygon points="379.8,774.2 379.8,781.5 379.8,781.5 372.8,781.5 										"/>
									</g>
								</g>
							</g>
							<g>
								<g>
									<g>
										<polygon points="441.6,721.5 441.1,722 441.1,729.3 441.6,728.7 										"/>
									</g>
									<g>
										<polygon points="441.6,735.9 441.1,736.5 441.1,743.7 441.6,743.2 										"/>
									</g>
								</g>
								<g>
									<g>
										<polygon points="441.6,750.4 441.1,751 441.1,758.2 441.6,757.7 										"/>
									</g>
									<g>
										<polygon points="445.2,761.2 441.1,765.5 441.1,772.7 452.1,761.2 										"/>
									</g>
								</g>
								<g>
									<g>
										<polygon points="459.1,761.2 441.1,779.9 441.1,781.5 446.5,781.5 466.1,761.2 										"/>
									</g>
									<g>
										<polygon points="473,761.2 453.5,781.5 460.5,781.5 480,761.2 										"/>
									</g>
								</g>
								<g>
									<g>
										<polygon points="487,761.2 467.5,781.5 474.4,781.5 494,761.2 										"/>
									</g>
									<g>
										<polygon points="500.9,761.2 481.4,781.5 488.4,781.5 502.4,767 502.4,761.2 										"/>
									</g>
								</g>
								<g>
									<g>
										<polygon points="502.4,774.2 502.4,781.5 502.3,781.5 495.4,781.5 										"/>
									</g>
								</g>
							</g>
							<g>
								<g>
									<g>
										<polygon points="572.4,720.2 563.6,729.3 563.6,722 565.4,720.2 										"/>
									</g>
									<g>
										<polygon points="586.3,720.2 563.6,743.7 563.6,736.5 579.3,720.2 										"/>
									</g>
								</g>
								<g>
									<g>
										<polygon points="600.3,720.2 563.6,758.2 563.6,751 593.3,720.2 										"/>
									</g>
									<g>
										<polygon points="614.2,720.2 563.6,772.7 563.6,765.5 607.2,720.2 										"/>
									</g>
								</g>
								<g>
									<g>
										<polygon points="624.9,720.2 624.9,723.6 569.1,781.5 563.6,781.5 563.6,779.9 621.2,720.2 										"/>
									</g>
									<g>
										<polygon points="624.9,730.8 624.9,738 583.1,781.5 576.1,781.5 										"/>
									</g>
								</g>
								<g>
									<g>
										<polygon points="624.9,745.3 624.9,752.5 597,781.5 590,781.5 										"/>
									</g>
									<g>
										<polygon points="624.9,759.8 624.9,767 610.9,781.5 604,781.5 										"/>
									</g>
								</g>
								<g>
									<g>
										<polygon points="624.9,774.2 624.9,781.5 624.9,781.5 617.9,781.5 										"/>
									</g>
								</g>
							</g>
							<g>
								<g>
									<g>
										<polygon points="694.9,720.2 686.2,729.3 686.2,722 688,720.2 										"/>
									</g>
									<g>
										<polygon points="708.9,720.2 686.2,743.7 686.2,736.5 701.9,720.2 										"/>
									</g>
								</g>
								<g>
									<g>
										<polygon points="722.8,720.2 686.2,758.2 686.2,751 715.8,720.2 										"/>
									</g>
									<g>
										<polygon points="736.8,720.2 686.2,772.7 686.2,765.5 729.8,720.2 										"/>
									</g>
								</g>
								<g>
									<g>
										<polygon points="747.5,720.2 747.5,723.6 691.7,781.5 686.2,781.5 686.2,779.9 743.7,720.2 										"/>
									</g>
									<g>
										<polygon points="747.5,730.8 747.5,738 705.6,781.5 698.6,781.5 										"/>
									</g>
								</g>
								<g>
									<g>
										<polygon points="747.5,745.3 747.5,752.5 719.6,781.5 712.6,781.5 										"/>
									</g>
									<g>
										<polygon points="747.5,759.8 747.5,767 733.5,781.5 726.5,781.5 										"/>
									</g>
								</g>
								<g>
									<g>
										<polygon points="747.5,774.2 747.5,781.5 747.4,781.5 740.5,781.5 										"/>
									</g>
								</g>
							</g>
							<g>
								<g>
									<g>
										<polygon points="817.5,720.2 808.7,729.3 808.7,722 810.5,720.2 										"/>
									</g>
									<g>
										<polygon points="817.7,727.2 808.7,736.5 808.7,743.7 817.7,734.5 										"/>
									</g>
								</g>
								<g>
									<g>
										<polygon points="817.7,741.7 808.7,751 808.7,758.2 817.7,748.9 										"/>
									</g>
									<g>
										<polygon points="817.7,756.2 808.7,765.5 808.7,772.7 817.7,763.4 										"/>
									</g>
								</g>
								<g>
									<g>
										<polygon points="817.7,770.6 808.7,779.9 808.7,781.5 814.2,781.5 817.7,777.9 										"/>
									</g>
								</g>
							</g>
						</g>
					</g>
					<g>
						<g>
							<g>
								<g>
									<g>
										<polygon points="143.4,781.5 134.7,790.6 134.7,783.3 136.4,781.5 										"/>
									</g>
									<g>
										<polygon points="145.7,793.6 157.4,781.5 150.4,781.5 138.7,793.6 										"/>
									</g>
								</g>
								<g>
									<g>
										<polygon points="159.6,793.6 171.3,781.5 164.3,781.5 152.7,793.6 										"/>
									</g>
									<g>
										<polygon points="173.6,793.6 185.2,781.5 178.3,781.5 166.6,793.6 										"/>
									</g>
								</g>
								<g>
									<g>
										<polygon points="187.5,793.6 196,784.8 196,781.5 192.2,781.5 180.5,793.6 										"/>
									</g>
								</g>
							</g>
							<rect x="196" y="781.5" width="61.3" height="12.1"/>
						</g>
						<g>
							<g>
								<g>
									<g>
										<polygon points="266,781.5 257.2,790.6 257.2,783.3 259,781.5 										"/>
									</g>
									<g>
										<polygon points="268.2,793.6 279.9,781.5 272.9,781.5 261.3,793.6 										"/>
									</g>
								</g>
								<g>
									<g>
										<polygon points="282.2,793.6 293.9,781.5 286.9,781.5 275.2,793.6 										"/>
									</g>
									<g>
										<polygon points="296.1,793.6 307.8,781.5 300.8,781.5 289.1,793.6 										"/>
									</g>
								</g>
								<g>
									<g>
										<polygon points="310.1,793.6 318.5,784.8 318.5,781.5 314.8,781.5 303.1,793.6 										"/>
									</g>
								</g>
							</g>
							<rect x="318.5" y="781.5" width="61.3" height="12.1"/>
						</g>
						<g>
							<g>
								<g>
									<g>
										<polygon points="388.5,781.5 379.8,790.6 379.8,783.3 381.5,781.5 										"/>
									</g>
									<g>
										<polygon points="390.8,793.6 402.5,781.5 395.5,781.5 383.8,793.6 										"/>
									</g>
								</g>
								<g>
									<g>
										<polygon points="404.7,793.6 416.4,781.5 409.4,781.5 397.7,793.6 										"/>
									</g>
									<g>
										<polygon points="418.7,793.6 430.3,781.5 423.4,781.5 411.7,793.6 										"/>
									</g>
								</g>
								<g>
									<g>
										<polygon points="432.6,793.6 441,784.8 441,781.5 437.3,781.5 425.6,793.6 										"/>
									</g>
								</g>
							</g>
							<rect x="441" y="781.5" width="61.3" height="12.1"/>
						</g>
						<g>
							<g>
								<g>
									<g>
										<polygon points="511,781.5 502.3,790.6 502.3,783.3 504.1,781.5 										"/>
									</g>
									<g>
										<polygon points="513.3,793.6 525,781.5 518,781.5 506.3,793.6 										"/>
									</g>
								</g>
								<g>
									<g>
										<polygon points="527.3,793.6 538.9,781.5 532,781.5 520.3,793.6 										"/>
									</g>
									<g>
										<polygon points="541.2,793.6 552.9,781.5 545.9,781.5 534.2,793.6 										"/>
									</g>
								</g>
								<g>
									<g>
										<polygon points="555.1,793.6 563.6,784.8 563.6,781.5 559.8,781.5 548.2,793.6 										"/>
									</g>
								</g>
							</g>
							<rect x="563.6" y="781.5" width="61.3" height="12.1"/>
						</g>
						<g>
							<g>
								<g>
									<g>
										<polygon points="633.6,781.5 624.9,790.6 624.9,783.3 626.6,781.5 										"/>
									</g>
									<g>
										<polygon points="635.9,793.6 647.5,781.5 640.6,781.5 628.9,793.6 										"/>
									</g>
								</g>
								<g>
									<g>
										<polygon points="649.8,793.6 661.5,781.5 654.5,781.5 642.8,793.6 										"/>
									</g>
									<g>
										<polygon points="663.7,793.6 675.4,781.5 668.4,781.5 656.8,793.6 										"/>
									</g>
								</g>
								<g>
									<g>
										<polygon points="677.7,793.6 686.1,784.8 686.1,781.5 682.4,781.5 670.7,793.6 										"/>
									</g>
								</g>
							</g>
							<rect x="686.1" y="781.5" width="61.3" height="12.1"/>
						</g>
						<g>
							<g>
								<g>
									<g>
										<polygon points="756.1,781.5 747.4,790.6 747.4,783.3 749.2,781.5 										"/>
									</g>
									<g>
										<polygon points="758.4,793.6 770.1,781.5 763.1,781.5 751.4,793.6 										"/>
									</g>
								</g>
								<g>
									<g>
										<polygon points="772.3,793.6 784,781.5 777,781.5 765.4,793.6 										"/>
									</g>
									<g>
										<polygon points="786.3,793.6 798,781.5 791,781.5 779.3,793.6 										"/>
									</g>
								</g>
								<g>
									<g>
										<polygon points="800.2,793.6 808.7,784.8 808.7,781.5 804.9,781.5 793.3,793.6 										"/>
									</g>
								</g>
							</g>
							<rect x="808.7" y="781.5" width="9" height="12.1"/>
						</g>
					</g>
				</g>
			</g>
		</g>
	</g>
</g>
</svg>
