<?xml version="1.0" encoding="utf-8"?>
<!-- Generator: Adobe Illustrator 26.5.0, SVG Export Plug-In . SVG Version: 6.00 Build 0)  -->
<svg version="1.1" id="Layer_1" xmlns="http://www.w3.org/2000/svg" xmlns:xlink="http://www.w3.org/1999/xlink" x="0px" y="0px"
	 viewBox="0 0 1000 1000" style="enable-background:new 0 0 1000 1000;" xml:space="preserve">
<style type="text/css">
	.st0{fill:#010101;}
</style>
<g>
	<g>
		<g>
			<g>
				<path class="st0" d="M711.4,646.8c53.1,5.8,97.3,37.3,135.3,72.9c2.7,2.5-1.6,6.3-4.3,3.8c-36.8-34.5-79.9-65.4-131.4-71
					C707.3,652.2,707.7,646.4,711.4,646.8L711.4,646.8z"/>
			</g>
			<g>
				<path class="st0" d="M800.1,721.6c-0.2-11.2-1.1-22.4-2.7-33.5c-0.2-1.4,0.7-3.3,2.3-3.4c15.1-1,30-0.1,44.9,2.9
					c3.6,0.7,3.2,6.5-0.4,5.8c-14.3-2.9-28.7-3.9-43.3-3c0.8-1.1,1.5-2.3,2.3-3.4c1.7,11.6,2.6,23.3,2.8,35
					C805.9,725.8,800.1,725.3,800.1,721.6L800.1,721.6z"/>
			</g>
			<g>
				<path class="st0" d="M744.7,656.4c12.8,8.6,20.1,22.5,22.3,37.6c1.4,9.2,1.4,30.7-10.2,34.9c-11.8,4.3-18-15.7-19.9-23.3
					c-2.1-8.5-2.5-17.5-1.7-26.2c0.5-6.1,1-18.6,5.1-23.5c1.4-1.7,3.8-1.7,5,0.3c0.1,0.1,0.1,0.3,0.2,0.4c0.8,1.4,0,3.1-1.3,3.9
					c-0.1,0.1-0.2,0.1-0.3,0.2c-3.2,1.9-5.8-3.3-2.6-5.2c0.1-0.1,0.2-0.1,0.3-0.2c-0.4,1.3-0.9,2.6-1.3,3.9
					c-0.1-0.1-0.1-0.3-0.2-0.4c1.7,0.1,3.3,0.2,5,0.3c-5.9,6.9-5.1,28.3-4,37.1c0.6,5.3,1.8,10.7,3.9,15.6c1.3,3.4,3.1,6.5,5.2,9.5
					c4.7,2,7.4,1,8.4-3c6.1-6.9,3.5-22.3,1.4-30.2c-3-11-8.9-20.4-18.4-26.8C738.4,659.1,741.6,654.3,744.7,656.4L744.7,656.4z"/>
			</g>
			<g>
				<path class="st0" d="M746.4,652.8c9.9,0.3,20.1,1.1,29.9-0.2c7.2-1,38.7-12.7,21.6-20.8c-17.8-8.3-45.2,13.2-54.6,26.8
					c-2.1,3.1-6.6,0-4.8-3.2c0.3-0.6,0.7-1.2,1-1.8c1.9-3.2,6.6,0,4.8,3.2c-0.3,0.6-0.7,1.2-1,1.8c-1.6-1.1-3.2-2.1-4.8-3.2
					c8.6-12.3,24.8-24.7,39.3-28.8c7.6-2.2,25.3-3.7,31,3.8c6.3,8.2-4.7,17.2-11,21c-15.4,9.4-34.7,7.7-51.9,7.1
					C742.3,658.5,742.7,652.7,746.4,652.8L746.4,652.8z"/>
			</g>
			<g>
				<path class="st0" d="M748.9,698.9c-2.8-8.3-5.2-16.7-7.1-25.3c-1.1-5.1-3.9-11.7-0.7-16.3c2.1-3.1,6.9,0.2,4.8,3.2
					c-2.4,3.5,2.4,15.6,3.4,19.5c1.5,6,3.3,11.9,5.3,17.7C755.7,701.4,750.1,702.4,748.9,698.9L748.9,698.9z"/>
			</g>
			<g>
				<path class="st0" d="M778.3,644.7c-6,2.4-11.9,5-17.6,8.1c-2.5,1.3-4.9,2.6-7.3,4c-2.1,1.2-7.9,6.2-10.3,5.9
					c-3.7-0.5-3.3-6.2,0.4-5.8c10.1,1.3,1.5,15.1-3.5,7.4c-3.2-4.9,2.5-7.7,6-9.9c9.4-5.9,19.3-10.8,29.6-15
					C779.2,638.2,781.8,643.3,778.3,644.7L778.3,644.7z"/>
			</g>
			<path class="st0" d="M804.2,756.7c-26.5,0.3-28.6-33.5-3-34.3C826.8,721.7,830.8,756.4,804.2,756.7z"/>
			<path class="st0" d="M858.5,753.8c-28.2,0.7-30-33.2-2.8-34.3C882.9,718.4,886.7,753.1,858.5,753.8z"/>
			<path class="st0" d="M865.4,703.8c-26.5,0.3-28.6-33.5-3-34.3C888,668.8,892,703.5,865.4,703.8z"/>
		</g>
		<g>
			<g>
				<path class="st0" d="M222,646.9c-53.1,5.8-97.3,37.3-135.3,72.9c-2.7,2.5,1.6,6.3,4.3,3.8c36.8-34.5,79.9-65.4,131.4-71
					C226.1,652.3,225.7,646.5,222,646.9L222,646.9z"/>
			</g>
			<g>
				<path class="st0" d="M133.4,721.8c0.2-11.2,1.1-22.4,2.7-33.5c0.2-1.4-0.7-3.3-2.3-3.4c-15.1-1-30-0.1-44.9,2.9
					c-3.6,0.7-3.2,6.5,0.4,5.8c14.3-2.9,28.7-3.9,43.3-3c-0.8-1.1-1.5-2.3-2.3-3.4c-1.7,11.6-2.6,23.3-2.8,35
					C127.5,725.9,133.3,725.5,133.4,721.8L133.4,721.8z"/>
			</g>
			<g>
				<path class="st0" d="M188.7,656.5c-12.8,8.6-20.1,22.5-22.3,37.6c-1.4,9.2-1.4,30.7,10.2,34.9c11.8,4.3,18-15.7,19.9-23.3
					c2.1-8.5,2.5-17.5,1.7-26.2c-0.5-6.1-1-18.6-5.1-23.5c-1.4-1.7-3.8-1.7-5,0.3c-0.1,0.1-0.1,0.3-0.2,0.4c-0.8,1.4,0,3.1,1.3,3.9
					c0.1,0.1,0.2,0.1,0.3,0.2c3.2,1.9,5.8-3.3,2.6-5.2c-0.1-0.1-0.2-0.1-0.3-0.2c0.4,1.3,0.9,2.6,1.3,3.9c0.1-0.1,0.1-0.3,0.2-0.4
					c-1.7,0.1-3.3,0.2-5,0.3c5.9,6.9,5.1,28.3,4,37.1c-0.6,5.3-1.8,10.7-3.9,15.6c-1.3,3.4-3.1,6.5-5.2,9.5c-4.7,2-7.4,1-8.4-3
					c-6.1-6.9-3.5-22.3-1.4-30.2c3-11,8.9-20.4,18.4-26.8C195,659.2,191.8,654.4,188.7,656.5L188.7,656.5z"/>
			</g>
			<g>
				<path class="st0" d="M187,653c-9.9,0.3-20.1,1.1-29.9-0.2c-7.2-1-38.7-12.7-21.6-20.8c17.8-8.3,45.2,13.2,54.6,26.8
					c2.1,3.1,6.6,0,4.8-3.2c-0.3-0.6-0.7-1.2-1-1.8c-1.9-3.2-6.6,0-4.8,3.2c0.3,0.6,0.7,1.2,1,1.8c1.6-1.1,3.2-2.1,4.8-3.2
					c-8.6-12.3-24.8-24.7-39.3-28.8c-7.6-2.2-25.3-3.7-31,3.8c-6.3,8.2,4.7,17.2,11,21c15.4,9.4,34.7,7.7,51.9,7.1
					C191.1,658.6,190.7,652.8,187,653L187,653z"/>
			</g>
			<g>
				<path class="st0" d="M184.5,699.1c2.8-8.3,5.2-16.7,7.1-25.3c1.1-5.1,3.9-11.7,0.7-16.3c-2.1-3.1-6.9,0.2-4.8,3.2
					c2.4,3.5-2.4,15.6-3.4,19.5c-1.5,6-3.3,11.9-5.3,17.7C177.7,701.5,183.4,702.6,184.5,699.1L184.5,699.1z"/>
			</g>
			<g>
				<path class="st0" d="M155.1,644.9c6,2.4,11.9,5,17.6,8.1c2.5,1.3,4.9,2.6,7.3,4c2.1,1.2,7.9,6.2,10.3,5.9
					c3.7-0.5,3.3-6.2-0.4-5.8c-10.1,1.3-1.5,15.1,3.5,7.4c3.2-4.9-2.5-7.7-6-9.9c-9.4-5.9-19.3-10.8-29.6-15
					C154.3,638.3,151.7,643.5,155.1,644.9L155.1,644.9z"/>
			</g>
			<path class="st0" d="M129.2,756.9c26.5,0.3,28.6-33.5,3-34.3C106.7,721.8,102.7,756.5,129.2,756.9z"/>
			<path class="st0" d="M74.9,753.9c28.2,0.7,30-33.2,2.8-34.3C50.6,718.5,46.7,753.2,74.9,753.9z"/>
			<path class="st0" d="M68,704c26.5,0.3,28.6-33.5,3-34.3C45.5,668.9,41.4,703.6,68,704z"/>
		</g>
		<g>
			<g>
				<path class="st0" d="M240,422c-38.5-37-91-50.8-142.7-57.1c-3.7-0.4-3.8,5.3-0.2,5.8c50.1,6.1,101.4,19.4,138.7,55.3
					C238.6,428.6,242.7,424.6,240,422L240,422z"/>
			</g>
			<g>
				<path class="st0" d="M256.6,447.6h7.3c-14.5-19.2-32.8-34.9-52.9-48v6.7h-0.3C228,417.8,243.7,431.4,256.6,447.6z"/>
			</g>
			<g>
				<path class="st0" d="M125.8,401.9c8.7-7.1,17.9-13.5,27.4-19.4c1.2-0.7,2.1-2.6,1.1-3.9c-8.9-12.3-19.1-23.1-31-32.6
					c-2.9-2.3-7,1.7-4.1,4c11.4,9.1,21.4,19.5,30,31.3c0.4-1.3,0.8-2.6,1.1-3.9c-10,6.2-19.5,13-28.7,20.3
					C118.9,400.1,122.9,404.2,125.8,401.9L125.8,401.9z"/>
			</g>
			<g>
				<path class="st0" d="M211.4,402.6c-14.8-4.3-30.1-1-43.2,7c-7.9,4.8-24.4,18.6-20.2,30.2c4.3,11.8,23.6,3.8,30.6,0.4
					c7.9-3.8,15-9.3,21.3-15.5c4.3-4.3,13.6-12.7,14.7-19c0.4-2.2-1.1-4-3.4-3.6c-0.1,0-0.3,0.1-0.4,0.1c-1.6,0.3-2.4,2-2.1,3.5
					c0,0.1,0,0.2,0.1,0.3c0.6,3.7,6.2,2.3,5.6-1.3c0-0.1,0-0.2-0.1-0.3c-0.7,1.2-1.4,2.3-2.1,3.5c0.1,0,0.3-0.1,0.4-0.1
					c-1.1-1.2-2.3-2.4-3.4-3.6c-1.5,9-18.5,22.1-25.9,26.9c-4.5,2.9-9.4,5.4-14.4,7c-3.4,1.1-7,1.8-10.6,2.1
					c-4.5-2.3-5.6-5.1-3.1-8.3c1.3-9.1,14.8-17,22.3-20.4c10.3-4.7,21.3-6.3,32.4-3.1C213.3,409.1,214.9,403.6,211.4,402.6
					L211.4,402.6z"/>
			</g>
			<g>
				<path class="st0" d="M212.9,399c-6.6-7.4-13.7-14.7-19-23.1c-3.9-6.2-15-37.9,2.1-29.9c17.8,8.3,18.8,43.2,14.4,59.1
					c-1,3.6,4.3,5.1,5.5,1.6c0.2-0.7,0.5-1.3,0.7-2c1.3-3.5-4.3-5.1-5.5-1.6c-0.2,0.7-0.5,1.3-0.7,2c1.8,0.5,3.7,1.1,5.5,1.6
					c4-14.5,3.1-34.9-3.1-48.7c-3.2-7.2-13.4-21.7-22.8-21.3c-10.3,0.4-10.2,14.7-9.1,21.9c2.7,17.9,16.3,31.5,27.8,44.4
					C211.3,405.8,215.4,401.7,212.9,399L212.9,399z"/>
			</g>
			<g>
				<path class="st0" d="M176,426.6c8.1-3.2,16.1-6.7,23.9-10.8c4.6-2.4,11.4-4.5,13-9.9c1-3.6-4.5-5.2-5.5-1.6
					c-1.1,4.1-13.5,8.2-17.1,9.9c-5.6,2.7-11.3,5.1-17,7.3C169.8,422.9,172.6,428,176,426.6L176,426.6z"/>
			</g>
			<g>
				<path class="st0" d="M198.7,369.3c2,6.2,3.8,12.4,5.1,18.7c0.6,2.7,1.1,5.4,1.6,8.2c0.4,2.4,0.3,10.1,2,11.7
					c2.7,2.5,6.9-1.5,4.1-4c-7.5-6.9-12.6,8.5-3.5,7.4c5.8-0.7,4.3-6.9,3.7-10.9c-1.5-11-4.1-21.8-7.5-32.3
					C203.2,364.5,197.6,365.8,198.7,369.3L198.7,369.3z"/>
			</g>
			<path class="st0" d="M96.2,421.2c16.7,20.6,44,0.5,28.2-19.6C108.6,381.5,79.4,400.6,96.2,421.2z"/>
			<path class="st0" d="M63.6,377.7c17.6,22.1,44.7,1.7,28.1-19.8C75.2,336.3,46.1,355.6,63.6,377.7z"/>
			<path class="st0" d="M97.5,340.3c16.7,20.6,44,0.5,28.2-19.6C110,300.6,80.8,319.7,97.5,340.3z"/>
		</g>
		<g>
			<path class="st0" d="M566.9,375.7c-1-0.4-10.3-6.6-9.8-6.9c-9.2,5.3-22.1,1.3-26.3-8.1c-4.1,4.5-10.5,4.8-16.3,3.2
				c1.3-1.2,2.6-2.4,3.8-3.7c5.2,0.5,10.4,0.4,15.5-0.4c0.1,0.7,0.3,1.5,0.8,2c0.5,0.6,1.3,0.9,2.1,1.1c1.4,0.3,3,0.4,4.2-0.3
				c2.6-1.3,2.9-5.3,0.6-7.2c-0.5-0.4-1-0.7-1.6-0.9c1.4-0.6,2.7-1.2,4.1-1.8c1.3,1.9,3.7,2.3,5.8,1.4c0.6-0.3,1.2-0.7,1.6-1.2
				c0.5-0.7,0.6-1.7,0.7-2.6c0.1-3.1-2.4-6.2-5.9-5.4c-0.8,0.2-1.4,0.6-1.9,1.1c-1.3,1.4-1.6,3.9-0.9,5.7c-1.9,0.9-3.8,1.7-5.7,2.5
				c-0.1,0-0.2,0-0.3,0c-0.9,0.1-1.8,0.4-2.4,1c-0.9,0.3-1.9,0.6-2.8,0.8c-3.9,1-8,1.6-12,2.3c1.4-1.5,2.8-3,4.2-4.6
				c1.7-1.2,3.6-2.2,5.6-3c0.1,0.5,0.4,1.1,0.8,1.5c0.6,0.7,1.5,1,2.4,1.2c1.6,0.4,3.4,0.4,4.8-0.3c2.9-1.6,3.3-6.1,0.7-8.3
				c-1.3-1.1-3-1.5-4.7-1.4c-0.7,0.1-1.3,0.2-1.9,0.5c1.1-1.6,2.3-3.3,3.3-5c6-2.3,15-4,17.5-3.5c0.4,0.1,0.8,0.2,1.1,0
				c1-0.4,0.7-1.8,0.4-2.8c-0.6-2.9,1.5-5.8,4.2-7.1c2.7-1.3,5.8-1.4,8.7-1.5c-1.5-2.6-1.5-5.9,0-8.5c1.5-2.6,4.3-4.3,7.3-4.4
				c-0.3-0.6-0.5-1.3-0.7-1.9c-2-7.4,3.3-13,3.5-20.1c-3.5,0.9-6,4.2-9.2,5.9c-0.8,0.4-9.9,3.2-9.9,2.7c-1.5,8.4-11,14.6-19.5,12.4
				c1,6.5-5.1,11.8-11.2,14.3c2.7-1.1,2.4,12.7,2.2,17c-5.1,7.3-11,14.1-17.6,20.2c0,0,0,0-0.1,0.1c0,0-0.1,0.1-0.1,0.1
				c-0.3,0.3-0.6,0.5-0.9,0.8c0,0,0,0-0.1,0c-1.5,1.3-4.5,3.8-7.6,6.3l0,0c-0.4,0.3-0.8,0.6-1.2,1c2.1-4.2,3.6-8.6,4.4-13.2
				c0-0.2,0.1-0.3,0.2-0.6c1.4-3.9,6.4-16,12.2-13.4c-2.5-3.3-4.7-6.9-4.8-11.1c-0.1-4.2,1.7-7.2,5.4-9.1c-3.4-3.6-7.5-6.2-9.8-11
				c-1-2-1.5-8.1,1.6-9.1c-8.9-1.3-12.5-7.9-15.9-15.3c-1,3.8-3.9,19.6-7.6,19.5c2.9,3,5.6,5.3,6.3,10c0.1,0.9-0.8,7.6-3.5,6.9
				c3.7,2.8,13.1,10.4,7,14.5c3.9,4.8,5.3,9.8,5.3,15.9c0,1.1-0.2,2.2,0.4,3.2c0.2,0.4,0.5,0.7,0.9,0.9c-1.1,5.4-3.2,10.6-6.3,15.3
				c0,0,0,0,0,0c-0.2,0.1-0.4,0.3-0.6,0.4c0,0-0.1,0-0.1,0.1c-0.8,0.5-1.5,1-2.1,1.4c-0.1,0-0.1,0.1-0.2,0.1c0,0,0,0-0.1,0.1
				c-1.5,0.8-14.5,8.3-24.7,12.5c-2.3,1-4.5,1.7-6.3,2.3l4.7,2.1c0,0,1-0.4,2.9-1.1c4.5-1.8,13.9-6,24.7-13.2
				c6.8,2.2,18.6,11.9,20.2,15.1c0.2,0.4,0.4,0.9,0.8,1.1c1.1,0.6,2.2-0.8,3-1.8c2.3-2.8,6.7-3.1,9.9-1.7c3.2,1.4,5.5,4.2,7.8,6.9
				c1.4-3.4,4.6-6,8.2-6.7c3.5-0.7,7.3,0.6,9.6,3.3c0.4-0.7,0.9-1.4,1.3-2.1c5.7-7.7,15-7.2,22-12.6
				C575.9,376.9,570.9,377.3,566.9,375.7z M532.8,357c0.4-0.1,0.9-0.3,1.3-0.4c-0.2,0.7-0.3,1.4-0.3,2.1c-4.3,0.6-8.6,0.8-12.9,0.6
				C524.9,358.7,528.9,358.1,532.8,357z M533.2,333.9c7-11.8,22.2-15.3,29.5-26.8c0.6-0.9,2,0,1.4,0.9
				c-6.8,10.7-20.3,14.5-27.8,24.3c-0.2,0-0.4,0.2-0.5,0.4c-0.4,0.8-0.9,1.5-1.3,2.3C533.9,335.6,532.6,334.8,533.2,333.9z
				 M530.1,346.8c-0.1,0.6-0.2,1.2-0.2,1.8c0,0.3,0,0.6,0,0.9c-1.1,0.4-2.1,0.9-3.1,1.4C527.9,349.6,529,348.2,530.1,346.8z
				 M503.6,346.5c1.9-11.7-0.8-22.9-3.1-34.4c-0.2-1,1.4-1.4,1.6-0.4c2.1,11,4.8,21.6,3.4,32.7c-0.2,0.2-0.2,0.4-0.2,0.7
				c0,0.2,0,0.4,0,0.6c0,0.3-0.1,0.5-0.1,0.8C505.1,347.6,503.4,347.5,503.6,346.5z M556.3,380c-5.3,3.1-13.6,0.3-19.1-1.1
				c-3.9-1-7.8-2.2-11.7-3.4c-3.6-1.1-7.1-1.8-10.8-1.4c-2.8,0.3-5.4,1.1-8.2,1.5c-1.1,0.1-1.4-1.5-0.3-1.6
				c4.8-0.6,9.2-2.1,14.1-1.4c4.6,0.7,9,2.5,13.5,3.7c6,1.6,16,5.7,21.8,2.3C556.5,378,557.3,379.5,556.3,380z"/>
			<g>
				<g>
					<path class="st0" d="M840.2,356.4c-0.1-0.6-0.3-1.2-0.4-1.8c-0.2-0.6-0.3-1.3-0.5-1.9c-5.2-19.1-19.3-33.3-36-40.8
						c-14.6-6.5-30.4-8.2-45.8-6.2c-0.6-5.3,2.5-9.7,6.4-12.9c3.3-2.8,6.9-4.3,10.6-6.2c1.2-0.6,1.2-1,0.4-2
						c-0.1-0.2-0.4-0.3-0.5-0.4c-2.1-2.3-4-4.4-3.6-7.8c0.6-5,2.1-9.1,5.2-13.1c0.7-1,0.4-1.4-0.6-1.7c-1-0.3-2-0.5-2.8-1
						c-2.6-1.7-3.8-4.1-4.2-7.1c-0.6-4.2-0.7-8.3-0.7-12.5c0-0.3-0.1-0.6-0.4-0.7c-0.3-0.1-0.6,0.1-0.8,0.3
						c-0.2,0.2-0.3,0.4-0.4,0.7c-1.1,2.4-2,4.3-3.8,6.4c-4.6,5.4-11.9,7.5-18.5,4.4c-0.4-0.2-0.7,0-1,0.2c0.2,0.6,0.7,1.1,1,1.6
						c0.8,1.2,1.1,2.8,1.4,4.1c0.5,1.8,0.9,3.4,1.1,5.2c0.3,2.8,0.2,5.4-1.2,7.8c-1.7,2.8-3.8,3.6-7,3.5c-1.1,0-2.4-0.4-3.6-0.5
						c-0.6,0-1.2,0.1-1.8,0.2c0.3,0.5,0.7,1,1.1,1.4c4.3,3.7,6.1,8.1,5.3,13.7c-0.6,4.2-2,7.9-2.4,12c-0.4,3.6,0,6.8-1.9,10
						c-22.1,8.2-40.5,23.8-58.3,39.8c-18.9,16.9-38.1,33.6-59.8,46.3c-5.2,3-10.5,5.8-15.9,8.3c-2.4,0.8-4.7,1.6-7,2.5
						c0.9-3.2,1.5-6.7,3.6-9.3c2.3-2.8,5.4-4.8,8.6-6.3c2-0.9,4.1-1.3,6.3-1.1c2.1,0.1,4.5,1.5,6.5,1c0.2-1.5-0.5-3-0.4-4.4
						c0.1-0.8,0.4-1.5,0.7-2.2c2.4-5.7,5.8-11.9,12.3-13.1c0.6-0.1,1.2-0.6,1.9-0.9c-0.4-0.6-0.8-1.3-1.3-1.9
						c-0.7-0.9-1.8-1.7-2.3-2.7c-1.6-3.4-1.4-6.8,0-10.2c1-2.3,2.2-4.6,3.4-6.8c0.5-1,0.6-1.9-0.4-2.4c-3-1.5-4.1-4.2-4.8-7.2
						c-1.6-6.3-5.3-11-11-14c-0.5-0.2-1.2,0-1.8,0.1c0.3,0.5,0.5,1.1,0.8,1.6c1,1.3,2.2,2.5,3,4c1.8,3.3,1.8,7,1.1,10.5
						c-1.2,5.6-6.6,10.2-12.9,8.2c-0.6-0.2-1.4,0-2.1,0c0.3,0.7,0.5,1.5,1,2c3.3,3.2,4.9,7.8,3.9,12.4c-0.2,1.1-0.9,2.3-1.7,2.9
						c-2,1.5-4.2,2.4-6.7,2.3c-1.8-0.1-3.6-0.5-5.4-0.6c-0.6,0-1.3,0.1-1.5,0.7c-0.1,0.3,0,0.6,0.2,0.9c1.4,2.7,4,4.3,5.3,7.2
						c1.1,2.6,1.3,5.5,0.6,8.2c-0.2,0.7-0.6,1.4-1,2c-1.5,2-3.3,3.7-4.5,5.8c-2.7,4.7-5.7,9.1-5.1,14.8c-0.5,0.2-1.1,0.4-1.6,0.7
						c-0.8,0.4-3.4,1-5.2,2.1c-10.8,3.4-22,5.5-33.4,5.9c-10.9,0.3-21.9-1-32.5-4.1c-7-2.1-13.7-5.2-20.2-8.7c-3.6-1.9-7.2-4-10.8-6
						c-1.4-0.8-2.4,1.3-1.4,2.4c4.4,4.7,9.6,8.4,15.2,11.4c13,7,28.3,9.8,42.1,10.3c21.5,0.8,42.6-4.6,62.2-13.9
						c0.1,0,0.2-0.1,0.4-0.1c7-1.9,14-0.7,20.7,1.2c11.4,3.2,20.9,8.8,23.1,21.8c0.1,0.6,0.6,1.6,1.1,1.7c0.5,0.1,1.3-0.5,1.8-1
						c7-7.5,21.2-4.2,23.4,6.1c0,0.1,0,0.2,0.1,0.3c0.3,1.7,0.5,3.4,0.8,5c0.2,0.8,0.7,1.5,1.1,2.3c0.6-0.7,1.5-1.2,1.8-2
						c0.7-2.1,1.8-3.9,3.2-5.3c1.8-1.8,4.1-3.1,6.6-3.9c5.5-1.7,10.1-0.8,13.1,3.9c0.2,0.3,0.4,0.7,0.6,1.1c0.1,0.1,0.1,0.3,0.2,0.4
						c0.6,0.6,1.3,1.1,1.9,1.7c0.5-0.7,1.3-1.3,1.5-2c0.1-0.4,0.3-0.8,0.4-1.1c0.7-1.5,1.9-2.5,3.5-3.3c4.9-2.2,10-3,15.4-2.2
						c1.6,0.2,3.1,0.6,4.7,0.7c0.7,0,1.4-0.5,2.1-0.8c-0.5-0.5-0.9-1.2-1.5-1.6c-1.2-0.7-2.8-1-3.7-2c-2.6-2.9-5.3-5.9-7.1-9.2
						c-2-3.8-3.4-8.3-2-12.6c1.3-4.2,1.2-5.8-4.3-4.7c-6.2,1.2-11.6-2.2-13.7-7.8c-1.5-4.2-2-8.7-2.9-13.1c-0.1-0.7-0.5-1.3-0.7-2
						c-0.7,0.3-1.6,0.5-2,1c-2.6,3.3-6.2,5.1-9.9,6.9c-6.9,3.4-14.3,0.1-17.2-6.2c-1-2.1-1.4-4.4-2.2-6.6c-0.3-0.7-0.9-1.2-1.3-1.9
						c-0.5,0.6-1.2,1.1-1.3,1.8c-0.8,3.9-2.4,7.6-5.2,10.3c-6.5,6.1-13.6,11.1-22.9,12.1c-4.2,0.5-8.5,1.2-12.7,1.9
						c13.3-8,25.9-17.5,38-27.7c16.9-14.2,32.6-30.3,50.6-42.8c5.6-3.9,11.9-7.4,18.4-10.3c0.9-0.2,1.7-0.3,2.6-0.3
						c3.9,0.2,7.8,0.9,11.4,2.3c3.6,1.4,6.1,3.5,8.7,6.2c-2.1,2.2-2.7,5.4-0.9,7.9c1.8,2.5,5.1,3.2,7.7,1.7c2.6-1.5,3.6-4.7,2.3-7.5
						c-1.3-2.8-4.4-3.8-7.3-3.1c-0.3,0.1-0.5,0.2-0.8,0.1c-0.2-0.1-0.3-0.2-0.5-0.4c-2.5-2.7-5.2-4.8-8.7-6.1
						c-3.1-1.1-6.3-1.5-9.5-2.1c3.6-1.1,7.6-0.6,11.2-0.6c4.6,0,8.7,0.7,13.2,1.5c0.9,0.2,1.7,0.4,2.5,0.8c0.2,0.1,0.4,0.3,0.5,0.4
						c0,2.2,0.6,4.4,2.4,5.8c3.1,2.4,7.1,2.4,9.7-0.6c2.6-3,2.4-7.1-0.6-9.7c-3-2.7-6.9-2.2-9.8,0.5c-0.7,0.6-1,1.4-1.3,2.2
						c-0.3,0-0.6,0-0.9-0.1c-3.5-0.8-7-1.8-10.6-2c-2.6-0.1-5-0.3-7.7-0.4c-1.3,0-2.5,0-4,0c-0.5,0-1.4,0.3-2.1,0.3
						c20.9-7.6,44.3-9.4,64.3-0.6c5.1,3.3,10.9,7.4,9.9,13.9c-0.4,2.9-1.6,2.4-3.9,3c-0.4,0.1-1.1,0.4-1.5,0.3
						c1.1,2.4,2.2,5.1,1.5,7.7c-0.7,2.6-2.5,3.5-4.7,4.4c1.4,0.8,1.7,1.9,1.3,3.5c-0.4,1.7-1.6,3.5-2.5,5c2.2,0.6,3.5,1.3,3.3,4
						c-0.2,2.6-1.4,5.5-2.3,8.1c-0.1,0.4-0.3,0.9-0.1,1.3c0.7-1.1,1.5-2.4,2.5-3.2c1.2-1.1,2.6-1.5,4.1-1.5c1.5,0,2.5,0.5,3.9,0.7
						c0.3,0,0.6,0,0.8-0.2c0.2-0.2,0.2-0.5,0.2-0.8c0.4-2.9,1.7-5.1,3.6-7.2c1.9-2.1,4-3.7,6.4-5.2c-1.3-1.9-1.9-3.1-1.8-5.5
						c0.2-2.5,0.8-5.1,2.1-7.4c0.2-0.3,0.5-0.5,0.3-0.9c-0.2-0.4-0.5-0.2-1-0.2c-2.7,0.1-3.7-1.1-5.2-3.4c-1.8-2.6-2.8-5.5-4.3-8.2
						c-0.2-0.4-0.5-0.8-0.7-1.2c3.7,2.7,7.2,5.8,10.4,9.5c11.4,12.9,16.1,31.6,12.5,48.8c-4.3,20.8-20.5,31.5-39.5,31.5
						c-9.9,0-21.4-1.8-30.3-7.2c-9-5.4-14-16.9-11.2-27.8c2.5-9.7,11.4-17,21.7-14.3c4.1,1.1,5.7,6.6,2,9.4c-0.8,0.6-1.7,0.7-2.5,0
						c-0.5-0.5-0.6-1.3-0.4-1.9c0.2-0.4,0.6-0.8,1-0.8c0-0.7-1-1.2-1.7-0.9c-0.7,0.2-1.1,0.9-1.4,1.6c-0.8,1.9-0.8,4.3,0.3,6.1
						c0.6,0.9,1.5,1.7,2.5,2.3c2.4,1.4,5.8,0.6,7.5-1.5c0.1-0.1,0.1-0.2,0.2-0.2c0.1-0.1,0.3-0.1,0.5-0.1c0.8,0,1.5,0.4,2,1.1
						c1.7,2.5-1.6,5.2-3.9,5.1c-0.5,0-1-0.1-1.4-0.5c-0.4-0.4-0.4-1-0.1-1.3c-1.3,0.1-2.4,1.4-2.5,2.7c-0.1,1.3,0.6,2.6,1.7,3.4
						c1.1,0.8,2.4,1.2,3.7,1.3c4.7,0.4,9.6-2.4,11.1-6.9c1.1-3.3,1.3-7.3,0.3-10.5c-1.1-3.1-2.3-6.4-4.3-9
						c-6.9-8.8-19.8-8.8-28.5-3.7c-9.4,5.5-14.9,16.5-13.8,28.2c0.4,3.5,1.3,6.8,2.6,9.8c-0.8-0.4-1.6-0.7-2.5-1
						c-6.5-2-15.4,0.7-15.9,8.6c-0.2,3,1.1,5.5,3,7c3.2,3,9.1,2.9,12.6-0.1c1.9-1.6,2.6-4.4,1.9-6.8c-0.7-2.5-4-3.2-6.2-2.9
						c-0.4,0-0.9,0.1-1.3,0.3c-0.9,0.4-1.6,1.4-1.7,2.4c-0.1,1,0.3,2.1,0.9,2.9c0-0.4,0.2-0.8,0.5-1c0.3-0.2,0.8-0.2,1.1,0
						c0.6,0.4,0.6,1.2,0.3,1.8c-0.9,1.7-3,1.6-4.6,0.9c-2.1-1.5-2.7-3.4-1.7-5.6c1-2.4,3.8-3.5,6.3-3.6c4.6-0.1,8.7,3,12.1,5.7
						c4.2,3.3,8.6,6.7,13.6,8.5c5.4,1.9,11.1,3.3,16.7,4.1c15.2,2.3,32.2-0.9,43-12.5C840.7,393.2,843.7,373.7,840.2,356.4z
						 M600.5,391.7c0-0.1,0.1-0.1,0.2-0.2c0.5-2.4,2.3-4.6,2.9-7c0.9-3.6-0.1-6.6-1.9-9.7c-0.1-0.1,0.1-0.3,0.2-0.2
						c2.2,2.6,3.8,5.2,3.5,8.8c0,0.3-0.1,0.7-0.1,1.1c3.2-3.9,5.8-7.5,7.2-12.7c1.6-5.7,1.4-11.3,0.2-17c0-0.1,0.1-0.1,0.1,0
						c2.3,5.7,2.3,12.8,0.4,19.2c1.5-2.7,2.8-5.4,4.1-8c4.5-9.1,7.3-18.8,6.4-29c0,0,0,0,0,0c1.2,7.6-0.2,15.2-2.7,22.4
						c2.3-3.5,5.3-6.6,8.5-9.2c0.1-0.1,0.2,0.1,0.1,0.1c-4.4,4-7.4,8.6-10.3,13.7c0,0.1-0.1,0.1-0.2,0.1c-0.3,0.6-0.5,1.1-0.8,1.7
						c-1.3,2.8-2.7,5.5-4.2,8.2c3.5-2.9,8.1-4.6,12.5-5.3c0.1,0,0.1,0.1,0,0.1c-3.1,1.4-6.3,2.3-9.2,4c-2.3,1.3-3.8,3-5.4,4.8
						c-0.7,1.3-1.5,2.5-2.2,3.8c-1,1.8-2.1,3.6-3.3,5.3c2.5-1.2,5.6-1.4,8-0.1c0,0,0,0,0,0c-5.3-0.5-8.7,0.8-11.9,5.1
						c-0.2,0.2-0.4,0.2-0.5,0.1c-0.2,0.2-0.4,0.5-0.7,0.7c-0.2,0.1-0.4,0.2-0.5,0.1C600.5,392.7,600.1,392.1,600.5,391.7z
						 M631.9,406c0-0.3,0.1-0.7,0.5-0.8c0.1,0,0.2-0.1,0.4-0.1c0.1-0.1,0.3-0.3,0.5-0.3c0.3-0.1,0.6-0.2,0.9-0.3
						c4.6-2.5,11-2.3,15.9-3.9c5.8-1.9,10.8-5.5,12.8-11.4c0-0.1,0.2-0.1,0.2,0c-0.5,5.1-3.5,9-7.7,11.8c-1.3,0.9-2.6,1.6-4,2.2
						c3.6,0.3,7.2,0.7,10.7,0.7c11.9,0.3,21.9-3.6,29.5-13c0.1-0.2,0.3,0,0.3,0.2c-4.2,7.9-11.9,13.4-20.6,15.2
						c1.2,0.3,2.3,0.5,3.4,0.8c1.6,0.4,3.3,0.8,4.9,1.3c2.4,0.7,4.8,1.4,7.1,2.3c5.4,0.5,10.1-0.2,15.4-1.7
						c3.3-0.9,6.8-2.4,10.2-1.9c0,0,0,0.1,0,0.1c-6,1.6-12.8,5.3-19.4,6c7.5,3.3,14.7,7.4,21.3,12.3c0.3,0.2,0,0.8-0.3,0.6
						c-6.1-4.1-12.6-7.6-19.3-10.6c4.1,3.9,6.6,9.1,8.3,14.8c0,0.1-0.1,0.1-0.1,0c-5-8.5-9.1-15.6-19.1-18.7
						c-6.8-2.1-13.8-3.4-20.8-4.7c-1.8,0-3.6-0.1-5.4-0.2c10.5,3.6,19.8,9.9,21.9,21.5c0,0.2-0.2,0.3-0.3,0.1
						c-5.9-13.8-18.5-19.5-32.1-22.1c-1.8,0-3.5,0.1-5.3,0.2c6.1,2,11,6.8,12.1,13.8c0,0.1-0.1,0.2-0.2,0.1
						c-3.5-8.2-11.3-13.8-20.5-12.4C631.9,408.1,631.3,406.6,631.9,406z M755.4,302.7c-1.6-1.5-3.1-2.1-5.3-1.6
						c-0.9,0.2-1.8,0.6-2.6,1c-1.4,0.7-2.7,1.5-4,2.2c-0.3,0.2-0.5,0.5-0.8,0.7c-0.9,0.5-1.9,0.3-1.9-0.8c0-0.5,0.1-0.8,0.6-1.1
						c0.1,0,0.1-0.1,0.2-0.1c1.2-1.7,2.9-3.5,4.1-5.1c1.3-1.6,2.4-3,3.5-4.6c0.3-0.5,0.7-1,0.7-1.5c0.2-2.1,0-3.9-0.9-5.9
						c-1.2-2.6-3.3-4.9-5.1-7.1c0-0.1,0-0.2,0.1-0.1c3.4,2.9,6,6,7.5,10.3c1.4-3,3.7-5.4,4.8-8.5c3.2-8.8-0.3-15.6-5.5-22.8
						c0,0,0-0.1,0,0c5.3,6.2,8.7,12.2,7.3,20.5c0,0,0,0,0,0c1.8-4.4,3.4-9,4.3-13.7c0.9-4.7,1-9.1,1.1-13.8c0,0,0.1,0,0.1,0
						c0.9,8.8-0.5,16.8-3.2,25.1c1.4-1.9,2.9-3.7,4.6-5.3c2-2,4.2-3.7,6.6-5.2c0.1,0,0.1,0,0.1,0.1c-4.3,4.1-8.1,8.7-11.4,13.7
						c-1.2,1.8-2.4,3.5-3.5,5.3c-1.2,2.1-2.1,4.3-3.5,6.4c0.3-0.3,0.7-0.6,1-0.8c4.9-3.6,10.1-4.4,16.1-4.6c0,0,0,0,0,0.1
						c-2.9,0.6-5.6,1-8.3,2.1c-2.7,1.1-5.2,3-7.3,5c-2.1,2-3.8,4.2-5.7,6.3c-0.6,0.6-1.1,1.2-1.7,1.8c0.6-0.2,1.3-0.4,1.9-0.4
						C752.1,299.6,754,300.2,755.4,302.7C755.5,302.8,755.4,302.8,755.4,302.7z M812.8,327.6c0.3,0.3,0.3,0.4,0.5,0.7
						c0.2,0.3,0.1,0.3,0.3,0.7c0.2,0.5,0.3,1.4,0.6,2c0.4,0.9,1.3,2.5,1.8,3.3c1.2,1.8,2.4,2.6,3.8,4c0,0,0,0.1,0,0.1
						c-1.5-0.7-2.7-1.4-3.9-2.6c-0.3-0.3-0.7-0.9-0.9-1.3c0.2,0.9,0.3,1.8,0.4,2.7c0,0.2,0,0.3,0,0.5c0.2,0.8,0.2,1.7,0.3,2.4
						c0.2,1,0.3,2.1,0.7,2.9c0.7,2.1,1.7,3.9,2.5,5.9c0,0,0,0.1-0.1,0.1c-1.3-1.7-2.3-3.4-3.1-5.3c-0.3-0.8-0.6-1.6-0.8-2.5
						c-0.4,1.5-0.7,3-1.2,4.4c-0.7,2.2-1.6,4.3-2.5,6.3c-0.5,1.2-0.7,2.3-0.7,3.6c0,1.6,0.4,3,0.7,4.5c0,0-0.1,0.1-0.1,0.1
						c-0.8-2.1-1.1-4-1-6.2c-1.6,2.4-3.3,4.7-4.7,7.2c0,0-0.1,0-0.1,0c1.1-2.5,2.7-4.6,4.2-6.9c0.5-0.8,0.8-1.5,1.2-2.3
						c0,0,0-0.1,0.1-0.1c0.4-0.8,0.8-1.6,1.1-2.5c-0.8,0.8-1.8,1.4-2.7,1.9c-1.4,0.7-2.5,1.3-4,1.1c-0.1,0,0-0.1,0-0.1
						c0.6-0.2,1.1-0.2,1.8-0.5c0.7-0.3,1.5-0.7,2.1-1.1c0.6-0.4,1.4-0.9,1.9-1.4c0.5-0.5,1-1,1.4-1.5c0.3-0.4,0.3-0.9,0.5-1.4
						c0.5-1.4,0.8-2.9,1.1-4.3c-0.4,0.5-0.9,1.2-1.5,1.6c-1.4,1.1-2.8,1.5-4.6,1.7c0,0,0-0.1,0-0.1c1.4-0.5,2.9-1,4-2
						c1.1-1,1.7-2.1,2.4-3.5c0.2-0.5,0.1-1,0.1-1.6c-0.1-1-0.3-2.2-0.5-3.3c-0.2,0.4-0.4,1-0.6,1.3c-1.1,1.3-2.3,1.6-3.9,1.1
						c-0.1,0,0-0.1,0-0.1c1.7-0.6,2.7-1.1,3.3-3c0.3-1.3-0.1-2.8-0.2-4.2c0-0.1-0.1-0.2-0.1-0.2c0,0,0-0.1,0-0.1
						c-0.1-0.5-0.3-1.1-0.3-1.7C811.9,327.4,812.5,327.3,812.8,327.6z"/>
				</g>
				<path class="st0" d="M838.4,360.2C838.4,360.2,838.4,360.2,838.4,360.2c0,0.1,0.1,0.1,0.2,0.2
					C838.5,360.4,838.5,360.3,838.4,360.2z"/>
				<path class="st0" d="M864.4,369.9c-1.8-0.7-2.6-2.5-2.2-4.3c0.3-1.3,1-2.6,1.5-3.9c0.1-0.2,0.1-0.4,0.1-0.6
					c-0.2,0-0.5-0.1-0.7-0.1c-1.2,0.4-2.5,0.3-3.7,0.1c-2.4-0.3-3.7-2.4-3.4-4.5c0.1-0.7,0.4-1.4,0.6-2.1c0-0.2,0-0.5,0-0.7
					c-0.2,0.1-0.5,0.1-0.7,0.2c-0.9,0.9-1.9,1.6-3.1,1.8c-2.7,0.5-5.4,0.6-8-0.7c-0.8-0.4-1.7-0.8-2.6-1.2l-3-1.3l-0.4-0.2l-0.4,1.2
					c0,0-0.2,0.7-0.2,0.8c0,0.1,0.1,0.2,0.3,0.4c0.1,0.1,0.1,0.2,0.1,0.2c0.5,0.4,1,0.9,1.4,1.3c0.1,0.1,0.3,0.3,0.4,0.4
					c2.4,2.7,3.9,5.8,2.3,9.5c-0.1,0.2-0.1,0.5,0,0.6c0.1,0.1,0.4,0.1,0.6,0c3.1-0.7,6.2,2.5,5,5.5c-0.2,0.5-0.5,1-0.7,1.5
					c-0.1,0.2-0.1,0.5-0.1,0.8c0.3-0.1,0.6-0.1,0.8-0.2c1.2-1,2.7-1.1,4.1-0.7c1.8,0.5,2.9,1.6,2.7,3.6c0,0,0,0.1,0,0.1
					c0.1,0.3,0.1,0.5,0.2,0.8c0.2-0.1,0.6-0.1,0.7-0.3c0.5-0.4,1.1-0.6,1.8-0.5c1.6,0.3,3.1,0.9,4.4,2c0.4,0.3,0.7,0.7,1.1,1
					c0.2,0.1,0.5,0.1,0.7,0.1c0-0.2,0-0.5-0.1-0.7c-0.2-0.4-0.6-0.8-0.6-1.1c-0.2-1.2-0.4-2.4-0.3-3.6c0.1-1.3,0.5-2.7,1.6-3.6
					C865.8,371,866,370.6,864.4,369.9z M863.6,370.5c-1.8-0.6-4.2-0.8-6-1.7c1.4,2.1,2.5,4.4,3.4,6.8c0,0.1-0.1,0.2-0.2,0.1
					c-0.9-2.1-2-4.1-3.2-6c0.4,1.7,0.2,3.5-0.3,5.2c0,0,0,0,0,0c0.1-3,0.3-5.6-1.8-8c-1.4-1.7-3-3.2-4.6-4.7c-0.5-0.3-0.9-0.6-1.3-1
					c2.1,2.7,3.4,5.9,2,9.2c0,0-0.1,0-0.1,0c0.8-4.6-1.5-8.1-4.6-11.1c-0.5-0.3-0.9-0.6-1.4-0.8c1.3,1.5,1.7,3.6,0.8,5.6
					c0,0-0.1,0,0,0c0.5-2.7-0.6-5.5-3.2-6.6c-0.3-0.2-0.3-0.7,0-0.7c0-0.1,0.1-0.2,0.3-0.1c0,0,0.1,0,0.1,0c0.1,0,0.1,0,0.2,0
					c0.1,0,0.2,0,0.3,0.1c1.6,0.1,3.2,1.3,4.8,1.7c1.8,0.5,3.7,0.4,5.2-0.8c0,0,0.1,0,0,0c-1,1.2-2.4,1.7-4,1.8c-0.5,0-1,0-1.4-0.1
					c0.9,0.7,1.8,1.4,2.6,2c3,2.1,6.3,2.8,9.8,1.6c0.1,0,0.1,0.1,0,0.1c-2.4,1.3-5.3,1.4-7.9,0.4c0.3,0.3,0.5,0.5,0.8,0.8
					c0.4,0.4,0.7,0.8,1,1.2c0.5,0.6,1,1.2,1.4,1.8c1.3,1,2.6,1.6,4.2,2.2C861.6,369.6,862.8,369.8,863.6,370.5
					C863.6,370.5,863.6,370.5,863.6,370.5z"/>
			</g>
		</g>
		<g>
			<g>
				<g>
					<g>
						<g>
							<path class="st0" d="M460.5,258.3c-3.8-5-9.5-8.6-15.9-9.9v-5.1H442c0.8-0.7,1.3-1.7,1.3-2.9c0-1.6-1-3-2.4-3.6v-76.8h-2.5
								v76.6c-1.6,0.5-2.7,2-2.7,3.7c0,1.1,0.5,2.2,1.3,2.9h-2.3v5.1c-5.5,1.1-10.3,3.8-14.1,7.7c-0.2,0.2-0.4,0.4-0.5,0.6
								c-4.2,4.7-6.8,10.8-6.8,17.6c0,14.5,11.8,26.3,26.3,26.3c8.4,0,15.8-3.9,20.7-10c0.4-0.5,0.8-1,1.2-1.6
								c2.9-4.2,4.5-9.3,4.5-14.7c0-5.5-1.7-10.6-4.6-14.9C461.1,259,460.8,258.6,460.5,258.3z M441.3,250.8c0.1,0,0.2,0,0.3,0
								c5.5,0.5,10.5,2.9,14.3,6.5c0.2,0.1,0.3,0.3,0.5,0.5c0.3,0.3,0.6,0.6,0.8,0.9c0.1,0.2,0.3,0.3,0.4,0.5
								c0.1,0.1,0.1,0.2,0.2,0.2c0.2,0.2,0.3,0.4,0.5,0.6c0.1,0.1,0.2,0.2,0.3,0.3c0,0,0,0,0,0c0.2,0.2,0.3,0.4,0.5,0.7
								c0.1,0.1,0.2,0.3,0.3,0.4c0,0,0,0,0,0c-0.2,0-0.4,0.1-0.6,0.2c-0.8,0.5-1.6,1-2.5,1.4l-0.4,0.2l0.1-0.2
								c0.1-0.4,0.2-0.8,0.3-1.2c0.2-0.6-0.1-1.2-0.6-1.5c-0.2-0.1-0.5-0.2-0.7-0.2c-0.3,0-0.7,0.1-0.9,0.3
								c-0.2,0.2-0.4,0.4-0.4,0.7c-0.1,0.5-0.3,1.1-0.4,1.6l-0.3,1.1c-0.1,0.4-0.2,0.8-0.3,1.2c-0.8,0.5-1.7,1-2.5,1.4
								c0.2-0.6,1.2-4.4,1.2-4.4c0.1-0.5,0.2-0.9,0.4-1.4c0.1-0.5,0-0.9-0.3-1.3c-0.3-0.3-0.6-0.5-1-0.5c-0.1,0-0.2,0-0.3,0
								c-0.5,0.1-0.9,0.5-1.1,1c-0.1,0.5-0.3,1-0.4,1.4l-0.1,0.5c-0.6,2.2-1.2,4.4-1.8,6.6c-1.4,0.8-2.7,1.5-3.9,2.3
								c-0.5-0.5-1-0.8-1.7-1c0-1.6,0-3.2,0-4.7c1.7-1.7,3.3-3.3,5-5l0.9-0.9c0.5-0.5,0.5-1,0.4-1.3c-0.1-0.6-0.7-1.1-1.3-1.1
								c-0.3,0-0.6,0.1-0.9,0.3c-0.1,0-0.1,0.1-0.1,0.1c0,0-2.6,2.6-3.9,3.9v-0.1c0-0.9,0-1.9,0-2.8c0.4-0.4,0.9-0.9,1.3-1.3
								c0.5-0.5,1-1,1.5-1.5c0.1-0.1,0.1-0.1,0.2-0.2c0.3-0.4,0.3-0.8,0.2-1.1c-0.1-0.5-0.5-0.9-1-1c-0.1,0-0.3-0.1-0.4-0.1
								c-0.4,0-0.7,0.1-1,0.4c0,0-0.6,0.6-0.9,0.9v-3.1c0-0.2,0-0.5-0.1-0.7C441.1,250.7,441.2,250.8,441.3,250.8z M420.8,260.1
								C420.8,260.1,420.8,260.1,420.8,260.1c0.2-0.3,0.4-0.5,0.5-0.7c0.4-0.5,0.8-1,1.2-1.4c0.1-0.1,0.2-0.2,0.3-0.3
								c0.3-0.3,0.6-0.6,0.9-0.8c0.1-0.1,0.2-0.2,0.4-0.3c0.1-0.1,0.2-0.2,0.3-0.3c0.1-0.1,0.2-0.2,0.4-0.3c0.4-0.3,0.7-0.6,1.1-0.8
								c0.4-0.3,0.7-0.5,1.1-0.8c3.3-2.1,7.3-3.4,11.5-3.6c-0.1,0.2-0.2,0.5-0.2,0.7v3.2c-0.3-0.3-0.6-0.6-0.9-0.9
								c-0.4-0.4-0.7-0.4-1-0.4c-0.1,0-0.3,0-0.4,0.1c-0.5,0.1-0.8,0.5-0.9,0.9c-0.1,0.3-0.1,0.5,0,0.8c0.1,0.2,0.2,0.4,0.3,0.5
								c0,0,0.1,0.1,0.1,0.1l0.7,0.7c0.7,0.7,1.4,1.4,2.1,2.1v2.9c-1.4-1.4-2.8-2.8-4.2-4.2c-0.3-0.3-0.6-0.5-1-0.5
								c-0.1,0-0.1,0-0.2,0c-0.5,0.1-0.9,0.4-1.1,0.9c-0.2,0.5-0.1,1,0.2,1.4c0,0,0.1,0.1,0.1,0.1l0.9,0.9c1.8,1.8,3.5,3.5,5.3,5.3
								v4.5c-0.6,0.2-1.2,0.5-1.7,0.9c-1.3-0.8-2.7-1.6-4.1-2.4c-0.7-2.7-1.4-5.3-2.1-8l0,0c0-0.1,0-0.1,0-0.2l0,0
								c-0.2-0.6-0.7-0.9-1.3-0.9c-0.1,0-0.3,0-0.4,0.1c-0.7,0.2-1.1,0.9-1,1.7c0.2,0.6,0.3,1.3,0.5,1.9l0.1,0.4l0.8,3.2l-0.1,0
								c-0.8-0.5-1.6-1-2.5-1.4c-0.3-1.3-0.7-2.6-1-3.8c-0.2-0.6-0.7-1.1-1.3-1.1c-0.2,0-0.3,0-0.4,0.1c-0.7,0.2-1.1,0.9-0.9,1.6
								c0.1,0.4,0.2,0.9,0.3,1.3c0,0-0.8-0.4-1.2-0.7l-0.4-0.3c-0.4-0.2-0.8-0.5-1.2-0.7c-0.2-0.1-0.3-0.1-0.5-0.2
								C420.2,260.9,420.5,260.5,420.8,260.1z M418.5,284.8c-0.7-1.4-1.3-2.9-1.7-4.4c-0.2-0.9-0.4-1.8-0.6-2.8
								c-0.2-1.1-0.2-2.2-0.2-3.4c0-1.5,0.1-3,0.4-4.5c0.3-1.6,0.8-3.1,1.3-4.5c0.3-0.6,0.5-1.2,0.9-1.8c0.1,0.2,0.3,0.3,0.4,0.4
								c0.5,0.3,0.9,0.5,1.4,0.8c0.3,0.1,0.5,0.3,0.8,0.4c0,0,0.6,0.4,0.8,0.4c-0.4,0.1-0.9,0.2-1.3,0.4c-0.6,0.2-1,0.7-1,1.4
								c0,0.6,0.4,1.2,1.1,1.3c0.1,0,0.2,0,0.3,0c0.1,0,0.3,0,0.4-0.1l3.3-0.9l0.2,0c0.1,0,0.3-0.1,0.4-0.1c0.8,0.5,1.6,0.9,2.4,1.4
								l0.1,0.1l-5.8,1.5c-0.8,0.2-1.2,0.9-1,1.6c0.1,0.7,0.7,1.1,1.3,1.1c0.1,0,0.3,0,0.4-0.1c0.6-0.1,1.1-0.3,1.7-0.4l1-0.3
								l1.9-0.5c1.3-0.3,2.6-0.7,3.9-1c1.2,0.7,2.4,1.4,3.9,2.3c-0.2,0.6-0.2,1.3-0.1,2c-1.3,0.8-2.7,1.6-4.1,2.4
								c-1.3-0.3-2.5-0.7-3.8-1l-2.7-0.7c-0.6-0.1-1.1-0.3-1.7-0.4c-0.1,0-0.3-0.1-0.4-0.1c-0.5,0-1,0.3-1.2,0.8
								c-0.3,0.6-0.1,1.3,0.4,1.7c0.2,0.1,0.4,0.2,0.5,0.2l0.1,0c1.4,0.4,2.8,0.8,4.2,1.1c0.3,0.1,0.7,0.2,1,0.3l0,0
								c-0.8,0.5-1.7,1-2.5,1.5l-3.8-1c-0.1,0-0.3-0.1-0.4-0.1c-0.6,0-1.1,0.3-1.3,0.9c-0.1,0.4-0.1,0.8,0.1,1.1
								c0.2,0.3,0.5,0.6,0.9,0.7c0.4,0.1,0.8,0.2,1.2,0.3l0,0c-0.9,0.5-1.8,1-2.7,1.5C418.8,284.4,418.7,284.6,418.5,284.8z
								 M425.3,292.9c-0.4-0.3-0.8-0.6-1.2-0.9c-0.1-0.1-0.3-0.2-0.4-0.3c-0.2-0.2-0.3-0.3-0.5-0.5c-0.2-0.2-0.3-0.3-0.5-0.5
								c-0.2-0.2-0.4-0.4-0.5-0.6c-0.1-0.1-0.2-0.3-0.3-0.4c-0.2-0.2-0.3-0.4-0.4-0.5c-0.2-0.2-0.3-0.4-0.5-0.6
								c-0.2-0.2-0.3-0.4-0.4-0.6c-0.2-0.3-0.5-0.7-0.7-1c0.2,0,0.4-0.1,0.6-0.2l2.2-1.3l0.6-0.4c-0.1,0.4-0.2,0.9-0.4,1.3
								c-0.2,0.7,0.2,1.5,0.9,1.7c0.1,0,0.3,0.1,0.4,0.1c0.6,0,1.1-0.4,1.3-1c0.1-0.4,0.2-0.8,0.3-1.2c0-0.2,0.1-0.3,0.1-0.5
								l0.1-0.3c0.2-0.6,0.3-1.3,0.5-1.9c0.7-0.4,1.4-0.8,2.2-1.2c0.1-0.1,0.2-0.1,0.3-0.2c-0.5,1.9-1,3.8-1.5,5.7
								c0,0.2-0.1,0.5,0,0.9c0.2,0.6,0.7,1,1.3,1h0c0.6,0,1.2-0.4,1.3-1c0.2-0.6,0.3-1.1,0.5-1.7l0.1-0.4c0.6-2.1,1.1-4.3,1.7-6.4
								c1.1-0.6,2.5-1.4,3.9-2.3c0.5,0.5,1,0.8,1.7,1v4.7l-5.9,5.9c-0.5,0.5-0.5,1-0.4,1.3c0.1,0.6,0.7,1.1,1.3,1.1
								c0.3,0,0.7-0.1,0.9-0.4c0,0,0.1-0.1,0.1-0.1l3.9-3.9v2.9c-1,1-1.9,1.9-2.8,2.8c-0.3,0.3-0.4,0.6-0.4,1c0,0.4,0.1,0.7,0.4,1
								c0.3,0.3,0.6,0.4,1,0.4c0.4,0,0.7-0.1,1-0.4c0.3-0.3,0.6-0.6,0.9-0.9v3.1c0,0.3,0.1,0.5,0.2,0.7
								C433.4,297.5,428.9,295.7,425.3,292.9z M439.6,276.6c-1.3,0-2.4-1.1-2.4-2.4c0-1.3,1.1-2.4,2.4-2.4c1.3,0,2.4,1.1,2.4,2.4
								C442,275.5,440.9,276.6,439.6,276.6z M458.6,288.2c-0.1,0.2-0.3,0.4-0.4,0.5c-0.3,0.4-0.6,0.7-0.9,1.1c-0.6,0.7-1.3,1.4-2,2
								c-3.7,3.3-8.4,5.4-13.5,5.8c-0.3,0-0.7,0.1-1,0.1c0.2-0.4,0.2-0.7,0.2-1c0-0.1,0-0.1,0-0.2c0,0,0-2.3,0-2.8
								c0.3,0.3,0.6,0.6,1,1c0.4,0.4,0.8,0.4,1,0.4c0.1,0,0.2,0,0.4-0.1c0.5-0.1,0.8-0.5,1-1c0.1-0.5,0-1-0.4-1.3
								c-0.3-0.4-0.7-0.7-1.1-1.1c-0.2-0.2-0.4-0.4-0.6-0.6l-0.4-0.4c-0.3-0.3-0.6-0.6-0.9-0.9c0-1,0-1.9,0-2.9
								c1.4,1.4,2.8,2.8,4.2,4.2c0.3,0.3,0.6,0.5,1,0.5c0.1,0,0.3,0,0.4-0.1c0.5-0.1,0.8-0.5,1-0.9c0.1-0.5,0-1-0.3-1.3
								c0,0-0.1-0.1-0.1-0.1l-0.9-0.9c-1.8-1.8-3.5-3.5-5.3-5.3c0-1.5,0-3,0-4.5c0.6-0.2,1.2-0.5,1.7-0.9c1.6,0.9,2.9,1.7,4.1,2.4
								c0.6,2.3,1.3,4.7,1.9,7l0,0.2c0.1,0.3,0.2,0.6,0.2,0.9c0.2,0.6,0.7,1,1.3,1c0.1,0,0.3,0,0.4-0.1c0.8-0.2,1.2-1,1-1.7
								c0,0-1.4-5.1-1.5-5.4l0.5,0.3c0.7,0.4,1.4,0.8,2,1.2c0.3,1.3,0.7,2.6,1,3.9c0.2,0.6,0.6,1,1.2,1c0.1,0,0.1,0,0.2,0
								c0.5,0,0.9-0.2,1.1-0.6c0.2-0.3,0.3-0.7,0.2-1.1c-0.1-0.4-0.2-0.8-0.3-1.2c0.9,0.5,1.8,1,2.7,1.5c0.2,0.1,0.4,0.2,0.7,0.2
								C459.1,287.5,458.8,287.9,458.6,288.2z M463.1,273.9c0,0.1,0,0.2,0,0.3c0,0.7,0,1.4-0.1,2.1c-0.3,2.8-1,5.5-2.1,7.9
								c-0.1,0.3-0.3,0.6-0.4,0.8c-0.1-0.2-0.3-0.4-0.5-0.5c-0.5-0.3-1-0.6-1.5-0.9l-1.4-0.8c0.4-0.1,0.9-0.2,1.3-0.4
								c0.6-0.2,1-0.7,1-1.3c0-0.6-0.4-1.2-1-1.3c-0.1,0-0.2,0-0.3,0c-0.2,0-0.3,0-0.5,0.1l-1,0.3c-1,0.3-1.9,0.5-2.9,0.8
								c-0.8-0.5-1.7-1-2.5-1.4l1.4-0.4c1.5-0.4,2.9-0.8,4.4-1.2c0.6-0.2,1.1-0.7,1-1.4c0-0.6-0.4-1.2-1.1-1.3c-0.1,0-0.2,0-0.3,0
								c-0.1,0-0.3,0-0.4,0.1c-0.6,0.2-4.1,1.1-4.1,1.1c-1.4,0.4-2.9,0.8-4.3,1.2c-0.9-0.5-1.8-1.1-2.7-1.6
								c-0.4-0.2-0.8-0.4-1.2-0.7c0.2-0.7,0.2-1.3,0.1-2c1.3-0.8,2.7-1.5,4.1-2.4c1.5,0.4,3,0.8,4.5,1.2c1.2,0.3,2.4,0.6,3.5,0.9
								c0.2,0,0.3,0.1,0.4,0.1c0.4,0,0.8-0.2,1-0.5c0.3-0.4,0.4-0.8,0.3-1.3c-0.1-0.5-0.5-0.8-1-0.9c-0.5-0.1-1-0.3-1.5-0.4
								l-0.5-0.1c0,0-2.7-0.7-3.4-0.9l0.1-0.1c0.8-0.5,1.6-0.9,2.4-1.4c1.1,0.3,2.2,0.6,3.3,0.9l0.6,0.1c0.1,0,0.3,0.1,0.4,0.1
								c0.5,0,1-0.3,1.2-0.8c0.2-0.4,0.2-0.8,0-1.2c-0.2-0.4-0.5-0.7-0.9-0.8c-0.4-0.1-0.8-0.2-1.2-0.3c0.9-0.5,1.7-1,2.6-1.5
								c0.2-0.1,0.4-0.3,0.6-0.5c0.3,0.5,0.5,1.1,0.8,1.7C462.5,268,463.1,270.9,463.1,273.9z"/>
						</g>
					</g>
				</g>
			</g>
			<g>
				<g>
					<g>
						<path class="st0" d="M485.7,209.8l3.7,11.4c0.2,0.7,0.9,1.2,1.6,1.2h12c1.6,0,2.3,2.1,1,3l-9.7,7c-0.6,0.4-0.8,1.2-0.6,1.9
							l3.7,11.4c0.5,1.5-1.3,2.8-2.6,1.9l-9.7-7c-0.6-0.4-1.4-0.4-2,0l-9.7,7c-1.3,1-3.1-0.3-2.6-1.9l3.7-11.4
							c0.2-0.7,0-1.4-0.6-1.9l-9.7-7c-1.3-1-0.6-3,1-3h12c0.7,0,1.4-0.5,1.6-1.2l3.7-11.4C483,208.2,485.2,208.2,485.7,209.8z"/>
					</g>
					<g>
						<rect x="483.3" y="160.1" class="st0" width="1.7" height="52.5"/>
					</g>
				</g>
				<g>
					<g>
						<path class="st0" d="M393.3,209.8l3.7,11.4c0.2,0.7,0.9,1.2,1.6,1.2h12c1.6,0,2.3,2.1,1,3l-9.7,7c-0.6,0.4-0.8,1.2-0.6,1.9
							l3.7,11.4c0.5,1.5-1.3,2.8-2.6,1.9l-9.7-7c-0.6-0.4-1.4-0.4-2,0l-9.7,7c-1.3,1-3.1-0.3-2.6-1.9l3.7-11.4
							c0.2-0.7,0-1.4-0.6-1.9l-9.7-7c-1.3-1-0.6-3,1-3h12c0.7,0,1.4-0.5,1.6-1.2l3.7-11.4C390.6,208.2,392.8,208.2,393.3,209.8z"/>
					</g>
					<g>
						<rect x="390.8" y="160.1" class="st0" width="1.7" height="52.5"/>
					</g>
				</g>
			</g>
		</g>
		<g>
			<g>
				<g>
					<g>
						<g>
							<path class="st0" d="M349.2,679.4c-2.3-3-5.6-5.1-9.4-5.8v-3h-1.5c0.5-0.4,0.8-1,0.8-1.7c0-1-0.6-1.8-1.4-2.1v-45.5h-1.5
								v45.4c-0.9,0.3-1.6,1.2-1.6,2.2c0,0.7,0.3,1.3,0.8,1.7h-1.3v3c-3.2,0.6-6.1,2.3-8.3,4.6c-0.1,0.1-0.2,0.2-0.3,0.3
								c-2.5,2.8-4,6.4-4,10.4c0,8.6,7,15.6,15.6,15.6c5,0,9.4-2.3,12.2-5.9c0.2-0.3,0.5-0.6,0.7-0.9c1.7-2.5,2.7-5.5,2.7-8.7
								c0-3.3-1-6.3-2.7-8.8C349.5,679.8,349.4,679.6,349.2,679.4z M337.8,674.9c0.1,0,0.1,0,0.2,0c3.3,0.3,6.2,1.7,8.5,3.9
								c0.1,0.1,0.2,0.2,0.3,0.3c0.2,0.2,0.3,0.4,0.5,0.5c0.1,0.1,0.2,0.2,0.2,0.3c0,0,0.1,0.1,0.1,0.1c0.1,0.1,0.2,0.2,0.3,0.4
								c0.1,0.1,0.1,0.1,0.2,0.2c0,0,0,0,0,0c0.1,0.1,0.2,0.3,0.3,0.4c0.1,0.1,0.1,0.2,0.2,0.2c0,0,0,0,0,0c-0.1,0-0.3,0-0.4,0.1
								c-0.5,0.3-1,0.6-1.5,0.8l-0.2,0.1l0-0.1c0.1-0.2,0.1-0.5,0.2-0.7c0.1-0.3-0.1-0.7-0.4-0.9c-0.1-0.1-0.3-0.1-0.4-0.1
								c-0.2,0-0.4,0.1-0.5,0.2c-0.1,0.1-0.2,0.3-0.3,0.4c-0.1,0.3-0.2,0.7-0.3,1l-0.2,0.6c-0.1,0.2-0.1,0.5-0.2,0.7
								c-0.5,0.3-1,0.6-1.5,0.8c0.1-0.4,0.7-2.6,0.7-2.6c0.1-0.3,0.1-0.5,0.2-0.8c0.1-0.3,0-0.5-0.2-0.8c-0.2-0.2-0.4-0.3-0.6-0.3
								c-0.1,0-0.1,0-0.2,0c-0.3,0.1-0.5,0.3-0.6,0.6c-0.1,0.3-0.2,0.6-0.2,0.8l-0.1,0.3c-0.3,1.3-0.7,2.6-1,3.9
								c-0.8,0.5-1.6,0.9-2.3,1.3c-0.3-0.3-0.6-0.5-1-0.6c0-0.9,0-1.9,0-2.8c1-1,2-2,3-3l0.5-0.5c0.3-0.3,0.3-0.6,0.2-0.8
								c-0.1-0.4-0.4-0.7-0.8-0.7c-0.2,0-0.4,0.1-0.5,0.2c0,0-0.1,0.1-0.1,0.1c0,0-1.6,1.6-2.3,2.3v-0.1c0-0.6,0-1.1,0-1.6
								c0.3-0.3,0.5-0.5,0.8-0.8c0.3-0.3,0.6-0.6,0.9-0.9c0,0,0.1-0.1,0.1-0.1c0.2-0.2,0.2-0.5,0.1-0.7c-0.1-0.3-0.3-0.5-0.6-0.6
								c-0.1,0-0.2,0-0.2,0c-0.2,0-0.4,0.1-0.6,0.2c0,0-0.4,0.4-0.5,0.5v-1.8c0-0.1,0-0.3-0.1-0.4
								C337.7,674.9,337.8,674.9,337.8,674.9z M325.7,680.5C325.7,680.4,325.7,680.4,325.7,680.5c0.1-0.2,0.2-0.3,0.3-0.4
								c0.2-0.3,0.5-0.6,0.7-0.8c0.1-0.1,0.1-0.1,0.2-0.2c0.2-0.2,0.3-0.3,0.5-0.5c0.1-0.1,0.1-0.1,0.2-0.2c0.1-0.1,0.1-0.1,0.2-0.2
								c0.1-0.1,0.1-0.1,0.2-0.2c0.2-0.2,0.4-0.3,0.7-0.5c0.2-0.2,0.4-0.3,0.7-0.5c2-1.3,4.3-2,6.8-2.2c-0.1,0.1-0.1,0.3-0.1,0.4
								v1.9c-0.2-0.2-0.4-0.4-0.6-0.6c-0.2-0.2-0.4-0.3-0.6-0.3c-0.1,0-0.2,0-0.2,0c-0.3,0.1-0.5,0.3-0.6,0.6c0,0.2,0,0.3,0,0.5
								c0,0.1,0.1,0.2,0.2,0.3c0,0,0,0,0.1,0.1l0.4,0.4c0.4,0.4,0.8,0.8,1.3,1.3v1.7c-0.8-0.8-1.7-1.7-2.5-2.5
								c-0.2-0.2-0.4-0.3-0.6-0.3c0,0-0.1,0-0.1,0c-0.3,0-0.6,0.2-0.7,0.5c-0.1,0.3-0.1,0.6,0.1,0.8c0,0,0,0,0.1,0.1l0.5,0.5
								c1,1,2.1,2.1,3.1,3.1v2.7c-0.4,0.1-0.7,0.3-1,0.6c-0.8-0.5-1.6-0.9-2.4-1.4c-0.4-1.6-0.8-3.2-1.3-4.7l0,0c0,0,0-0.1,0-0.1
								l0,0c-0.1-0.3-0.4-0.6-0.8-0.6c-0.1,0-0.2,0-0.2,0c-0.4,0.1-0.7,0.6-0.6,1c0.1,0.4,0.2,0.7,0.3,1.1l0.1,0.3l0.5,1.9l0,0
								c-0.5-0.3-1-0.6-1.5-0.8c-0.2-0.7-0.4-1.5-0.6-2.3c-0.1-0.4-0.4-0.6-0.8-0.6c-0.1,0-0.2,0-0.3,0c-0.4,0.1-0.6,0.5-0.5,0.9
								c0.1,0.3,0.1,0.5,0.2,0.8c0,0-0.5-0.3-0.7-0.4l-0.3-0.1c-0.2-0.1-0.5-0.3-0.7-0.4c-0.1-0.1-0.2-0.1-0.3-0.1
								C325.3,680.9,325.5,680.7,325.7,680.5z M324.3,695.1c-0.4-0.8-0.8-1.7-1-2.6c-0.1-0.5-0.3-1.1-0.3-1.6
								c-0.1-0.6-0.1-1.3-0.1-2c0-0.9,0.1-1.8,0.3-2.6c0.2-0.9,0.4-1.8,0.8-2.7c0.2-0.4,0.3-0.7,0.5-1.1c0.1,0.1,0.2,0.2,0.3,0.2
								c0.3,0.2,0.5,0.3,0.8,0.5c0.2,0.1,0.3,0.2,0.5,0.3c0,0,0.4,0.2,0.4,0.3c-0.3,0.1-0.5,0.1-0.8,0.2c-0.4,0.1-0.6,0.4-0.6,0.8
								c0,0.4,0.3,0.7,0.6,0.8c0.1,0,0.1,0,0.2,0c0.1,0,0.2,0,0.3,0l2-0.5l0.1,0c0.1,0,0.2,0,0.3-0.1c0.5,0.3,0.9,0.5,1.4,0.8l0.1,0
								l-3.4,0.9c-0.4,0.1-0.7,0.5-0.6,1c0.1,0.4,0.4,0.6,0.8,0.6c0.1,0,0.2,0,0.2,0c0.3-0.1,0.7-0.2,1-0.3l0.6-0.2l1.1-0.3
								c0.8-0.2,1.5-0.4,2.3-0.6c0.7,0.4,1.4,0.8,2.3,1.3c-0.1,0.4-0.1,0.8,0,1.2c-0.8,0.5-1.6,0.9-2.4,1.4
								c-0.7-0.2-1.5-0.4-2.2-0.6l-1.6-0.4c-0.3-0.1-0.7-0.2-1-0.3c-0.1,0-0.1,0-0.2,0c-0.3,0-0.6,0.2-0.7,0.5
								c-0.2,0.4-0.1,0.8,0.3,1c0.1,0.1,0.2,0.1,0.3,0.1l0.1,0c0.8,0.2,1.7,0.5,2.5,0.7c0.2,0.1,0.4,0.1,0.6,0.2l0,0
								c-0.5,0.3-1,0.6-1.5,0.9l-2.3-0.6c-0.1,0-0.2,0-0.2,0c-0.3,0-0.6,0.2-0.8,0.5c-0.1,0.2-0.1,0.5,0,0.7
								c0.1,0.2,0.3,0.4,0.5,0.4c0.2,0.1,0.5,0.1,0.7,0.2l0,0c-0.5,0.3-1,0.6-1.6,0.9C324.5,694.9,324.4,695,324.3,695.1z
								 M328.3,699.9c-0.2-0.2-0.5-0.4-0.7-0.6c-0.1-0.1-0.2-0.1-0.2-0.2c-0.1-0.1-0.2-0.2-0.3-0.3c-0.1-0.1-0.2-0.2-0.3-0.3
								c-0.1-0.1-0.2-0.2-0.3-0.3c-0.1-0.1-0.1-0.1-0.2-0.2c-0.1-0.1-0.2-0.2-0.3-0.3c-0.1-0.1-0.2-0.2-0.3-0.4
								c-0.1-0.1-0.2-0.2-0.3-0.4c-0.1-0.2-0.3-0.4-0.4-0.6c0.1,0,0.3-0.1,0.4-0.1l1.3-0.8l0.4-0.2c-0.1,0.3-0.1,0.5-0.2,0.8
								c-0.1,0.4,0.1,0.9,0.5,1c0.1,0,0.2,0,0.2,0c0.4,0,0.7-0.2,0.8-0.6c0.1-0.2,0.1-0.5,0.2-0.7c0-0.1,0.1-0.2,0.1-0.3l0.1-0.2
								c0.1-0.4,0.2-0.8,0.3-1.1c0.4-0.2,0.9-0.5,1.3-0.7c0.1,0,0.1-0.1,0.2-0.1c-0.3,1.1-0.6,2.3-0.9,3.4c0,0.1-0.1,0.3,0,0.5
								c0.1,0.3,0.4,0.6,0.8,0.6h0c0.4,0,0.7-0.2,0.8-0.6c0.1-0.3,0.2-0.7,0.3-1l0.1-0.3c0.3-1.3,0.7-2.5,1-3.8
								c0.6-0.4,1.5-0.9,2.3-1.3c0.3,0.3,0.6,0.5,1,0.6v2.8l-3.5,3.5c-0.3,0.3-0.3,0.6-0.2,0.8c0.1,0.4,0.4,0.6,0.8,0.6
								c0.2,0,0.4-0.1,0.5-0.2c0,0,0,0,0.1-0.1l2.3-2.3v1.7c-0.6,0.6-1.1,1.1-1.7,1.7c-0.2,0.2-0.3,0.4-0.3,0.6
								c0,0.2,0.1,0.4,0.2,0.6c0.2,0.1,0.4,0.2,0.6,0.2c0.2,0,0.4-0.1,0.6-0.2c0.2-0.2,0.3-0.3,0.5-0.5v1.8c0,0.2,0,0.3,0.1,0.4
								C333.1,702.6,330.5,701.6,328.3,699.9z M336.8,690.2c-0.8,0-1.4-0.6-1.4-1.4c0-0.8,0.6-1.4,1.4-1.4c0.8,0,1.4,0.6,1.4,1.4
								C338.2,689.6,337.6,690.2,336.8,690.2z M348.1,697.1c-0.1,0.1-0.2,0.2-0.2,0.3c-0.2,0.2-0.4,0.4-0.5,0.6
								c-0.4,0.4-0.8,0.8-1.2,1.2c-2.2,1.9-5,3.2-8,3.5c-0.2,0-0.4,0-0.6,0c0.1-0.2,0.1-0.4,0.1-0.6c0,0,0-0.1,0-0.1
								c0,0,0-1.4,0-1.7c0.2,0.2,0.4,0.4,0.6,0.6c0.2,0.2,0.4,0.3,0.6,0.3c0.1,0,0.1,0,0.2,0c0.3-0.1,0.5-0.3,0.6-0.6
								c0.1-0.3,0-0.6-0.2-0.8c-0.2-0.2-0.4-0.4-0.6-0.6c-0.1-0.1-0.2-0.2-0.3-0.3l-0.2-0.2c-0.2-0.2-0.4-0.4-0.6-0.6
								c0-0.6,0-1.1,0-1.7c0.8,0.8,1.7,1.7,2.5,2.5c0.2,0.2,0.4,0.3,0.6,0.3c0.1,0,0.1,0,0.2,0c0.3-0.1,0.5-0.3,0.6-0.6
								c0.1-0.3,0-0.6-0.2-0.8c0,0,0,0-0.1-0.1l-0.5-0.5c-1-1-2.1-2.1-3.1-3.1c0-0.9,0-1.8,0-2.7c0.4-0.1,0.7-0.3,1-0.6
								c1,0.6,1.7,1,2.4,1.4c0.4,1.4,0.7,2.8,1.1,4.2l0,0.1c0,0.2,0.1,0.4,0.1,0.5c0.1,0.4,0.4,0.6,0.8,0.6c0.1,0,0.1,0,0.2,0
								c0.4-0.1,0.7-0.6,0.6-1c0,0-0.8-3-0.9-3.2l0.3,0.2c0.4,0.2,0.8,0.5,1.2,0.7c0.2,0.8,0.4,1.5,0.6,2.3c0.1,0.3,0.3,0.6,0.7,0.6
								c0,0,0.1,0,0.1,0c0.3,0,0.5-0.1,0.7-0.4c0.1-0.2,0.2-0.4,0.1-0.7c-0.1-0.2-0.1-0.5-0.2-0.7c0.5,0.3,1,0.6,1.6,0.9
								c0.1,0.1,0.2,0.1,0.4,0.1C348.4,696.7,348.2,696.9,348.1,697.1z M350.8,688.6c0,0.1,0,0.1,0,0.2c0,0.4,0,0.8-0.1,1.3
								c-0.1,1.7-0.6,3.2-1.3,4.7c-0.1,0.2-0.2,0.3-0.2,0.5c-0.1-0.1-0.2-0.2-0.3-0.3c-0.3-0.2-0.6-0.3-0.9-0.5l-0.8-0.5
								c0.3-0.1,0.5-0.1,0.8-0.2c0.4-0.1,0.6-0.4,0.6-0.8c0-0.4-0.3-0.7-0.6-0.8c-0.1,0-0.1,0-0.2,0c-0.1,0-0.2,0-0.3,0l-0.6,0.2
								c-0.6,0.2-1.1,0.3-1.7,0.5c-0.5-0.3-1-0.6-1.5-0.9l0.8-0.2c0.9-0.2,1.7-0.5,2.6-0.7c0.4-0.1,0.6-0.4,0.6-0.8
								c0-0.4-0.3-0.7-0.6-0.8c-0.1,0-0.1,0-0.2,0c-0.1,0-0.2,0-0.3,0c-0.4,0.1-2.4,0.6-2.4,0.6c-0.9,0.2-1.7,0.5-2.6,0.7
								c-0.5-0.3-1.1-0.6-1.6-0.9c-0.2-0.1-0.5-0.3-0.7-0.4c0.1-0.4,0.1-0.8,0-1.2c0.8-0.4,1.6-0.9,2.4-1.4c0.9,0.2,1.8,0.5,2.7,0.7
								c0.7,0.2,1.4,0.4,2.1,0.6c0.1,0,0.2,0,0.3,0c0.2,0,0.4-0.1,0.6-0.3c0.2-0.2,0.2-0.5,0.2-0.8c-0.1-0.3-0.3-0.5-0.6-0.6
								c-0.3-0.1-0.6-0.2-0.9-0.2l-0.3-0.1c0,0-1.6-0.4-2-0.5l0.1,0c0.5-0.3,1-0.6,1.4-0.8c0.7,0.2,1.3,0.4,1.9,0.5l0.3,0.1
								c0.1,0,0.2,0,0.2,0c0.3,0,0.6-0.2,0.7-0.5c0.1-0.2,0.1-0.5,0-0.7c-0.1-0.2-0.3-0.4-0.5-0.5c-0.2-0.1-0.5-0.1-0.7-0.2
								c0.5-0.3,1-0.6,1.5-0.9c0.1-0.1,0.2-0.2,0.4-0.3c0.2,0.3,0.3,0.7,0.5,1C350.4,685.1,350.8,686.8,350.8,688.6z"/>
						</g>
					</g>
				</g>
			</g>
			<g>
				<g>
					<g>
						<path class="st0" d="M364.1,650.6l2.2,6.7c0.1,0.4,0.5,0.7,0.9,0.7h7.1c1,0,1.4,1.2,0.6,1.8l-5.7,4.2
							c-0.3,0.3-0.5,0.7-0.4,1.1l2.2,6.7c0.3,0.9-0.7,1.7-1.5,1.1l-5.7-4.2c-0.3-0.3-0.8-0.3-1.2,0l-5.7,4.2
							c-0.8,0.6-1.8-0.2-1.5-1.1l2.2-6.7c0.1-0.4,0-0.9-0.4-1.1l-5.7-4.2c-0.8-0.6-0.4-1.8,0.6-1.8h7.1c0.4,0,0.8-0.3,0.9-0.7
							l2.2-6.7C362.6,649.7,363.9,649.7,364.1,650.6z"/>
					</g>
					<g>
						<rect x="362.7" y="621.2" class="st0" width="1" height="31.1"/>
					</g>
				</g>
				<g>
					<g>
						<path class="st0" d="M309.4,650.6l2.2,6.7c0.1,0.4,0.5,0.7,0.9,0.7h7.1c1,0,1.4,1.2,0.6,1.8l-5.7,4.2
							c-0.3,0.3-0.5,0.7-0.4,1.1l2.2,6.7c0.3,0.9-0.7,1.7-1.5,1.1l-5.7-4.2c-0.3-0.3-0.8-0.3-1.2,0l-5.7,4.2
							c-0.8,0.6-1.8-0.2-1.5-1.1l2.2-6.7c0.1-0.4,0-0.9-0.4-1.1l-5.7-4.2c-0.8-0.6-0.4-1.8,0.6-1.8h7.1c0.4,0,0.8-0.3,0.9-0.7
							l2.2-6.7C307.8,649.7,309.1,649.7,309.4,650.6z"/>
					</g>
					<g>
						<rect x="307.9" y="621.2" class="st0" width="1" height="31.1"/>
					</g>
				</g>
			</g>
		</g>
		<g>
			<g>
				<g>
					<g>
						<g>
							<path class="st0" d="M509.2,684.4c-2.3-3-5.6-5.1-9.4-5.8v-3h-1.5c0.5-0.4,0.8-1,0.8-1.7c0-1-0.6-1.8-1.4-2.1v-45.5h-1.5
								v45.4c-0.9,0.3-1.6,1.2-1.6,2.2c0,0.7,0.3,1.3,0.8,1.7h-1.3v3c-3.2,0.6-6.1,2.3-8.3,4.6c-0.1,0.1-0.2,0.2-0.3,0.3
								c-2.5,2.8-4,6.4-4,10.4c0,8.6,7,15.6,15.6,15.6c5,0,9.4-2.3,12.2-5.9c0.2-0.3,0.5-0.6,0.7-0.9c1.7-2.5,2.7-5.5,2.7-8.7
								c0-3.3-1-6.3-2.7-8.8C509.5,684.9,509.4,684.7,509.2,684.4z M497.8,680c0.1,0,0.1,0,0.2,0c3.3,0.3,6.2,1.7,8.5,3.9
								c0.1,0.1,0.2,0.2,0.3,0.3c0.2,0.2,0.3,0.4,0.5,0.5c0.1,0.1,0.2,0.2,0.2,0.3c0,0,0.1,0.1,0.1,0.1c0.1,0.1,0.2,0.2,0.3,0.4
								c0.1,0.1,0.1,0.1,0.2,0.2c0,0,0,0,0,0c0.1,0.1,0.2,0.3,0.3,0.4c0.1,0.1,0.1,0.2,0.2,0.2c0,0,0,0,0,0c-0.1,0-0.3,0-0.4,0.1
								c-0.5,0.3-1,0.6-1.5,0.8l-0.2,0.1l0-0.1c0.1-0.2,0.1-0.5,0.2-0.7c0.1-0.3-0.1-0.7-0.4-0.9c-0.1-0.1-0.3-0.1-0.4-0.1
								c-0.2,0-0.4,0.1-0.5,0.2c-0.1,0.1-0.2,0.3-0.3,0.4c-0.1,0.3-0.2,0.7-0.3,1l-0.2,0.6c-0.1,0.2-0.1,0.5-0.2,0.7
								c-0.5,0.3-1,0.6-1.5,0.8c0.1-0.4,0.7-2.6,0.7-2.6c0.1-0.3,0.1-0.5,0.2-0.8c0.1-0.3,0-0.5-0.2-0.8c-0.2-0.2-0.4-0.3-0.6-0.3
								c-0.1,0-0.1,0-0.2,0c-0.3,0.1-0.5,0.3-0.6,0.6c-0.1,0.3-0.2,0.6-0.2,0.8l-0.1,0.3c-0.3,1.3-0.7,2.6-1,3.9
								c-0.8,0.5-1.6,0.9-2.3,1.3c-0.3-0.3-0.6-0.5-1-0.6c0-0.9,0-1.9,0-2.8c1-1,2-2,3-3l0.5-0.5c0.3-0.3,0.3-0.6,0.2-0.8
								c-0.1-0.4-0.4-0.7-0.8-0.7c-0.2,0-0.4,0.1-0.5,0.2c0,0-0.1,0.1-0.1,0.1c0,0-1.6,1.6-2.3,2.3v-0.1c0-0.6,0-1.1,0-1.6
								c0.3-0.3,0.5-0.5,0.8-0.8c0.3-0.3,0.6-0.6,0.9-0.9c0,0,0.1-0.1,0.1-0.1c0.2-0.2,0.2-0.5,0.1-0.7c-0.1-0.3-0.3-0.5-0.6-0.6
								c-0.1,0-0.2,0-0.2,0c-0.2,0-0.4,0.1-0.6,0.2c0,0-0.4,0.4-0.5,0.5v-1.8c0-0.1,0-0.3-0.1-0.4C497.7,680,497.8,680,497.8,680z
								 M485.7,685.5C485.7,685.5,485.7,685.5,485.7,685.5c0.1-0.2,0.2-0.3,0.3-0.4c0.2-0.3,0.5-0.6,0.7-0.8
								c0.1-0.1,0.1-0.1,0.2-0.2c0.2-0.2,0.3-0.3,0.5-0.5c0.1-0.1,0.1-0.1,0.2-0.2c0.1-0.1,0.1-0.1,0.2-0.2c0.1-0.1,0.1-0.1,0.2-0.2
								c0.2-0.2,0.4-0.3,0.7-0.5c0.2-0.2,0.4-0.3,0.7-0.5c2-1.3,4.3-2,6.8-2.2c-0.1,0.1-0.1,0.3-0.1,0.4v1.9
								c-0.2-0.2-0.4-0.4-0.6-0.6c-0.2-0.2-0.4-0.3-0.6-0.3c-0.1,0-0.2,0-0.2,0c-0.3,0.1-0.5,0.3-0.6,0.6c0,0.2,0,0.3,0,0.5
								c0,0.1,0.1,0.2,0.2,0.3c0,0,0,0,0.1,0.1l0.4,0.4c0.4,0.4,0.8,0.8,1.3,1.3v1.7c-0.8-0.8-1.7-1.7-2.5-2.5
								c-0.2-0.2-0.4-0.3-0.6-0.3c0,0-0.1,0-0.1,0c-0.3,0-0.6,0.2-0.7,0.5c-0.1,0.3-0.1,0.6,0.1,0.8c0,0,0,0,0.1,0.1l0.5,0.5
								c1,1,2.1,2.1,3.1,3.1v2.7c-0.4,0.1-0.7,0.3-1,0.6c-0.8-0.5-1.6-0.9-2.4-1.4c-0.4-1.6-0.8-3.2-1.3-4.7l0,0c0,0,0-0.1,0-0.1
								l0,0c-0.1-0.3-0.4-0.6-0.8-0.6c-0.1,0-0.2,0-0.2,0c-0.4,0.1-0.7,0.6-0.6,1c0.1,0.4,0.2,0.7,0.3,1.1l0.1,0.3l0.5,1.9l0,0
								c-0.5-0.3-1-0.6-1.5-0.8c-0.2-0.7-0.4-1.5-0.6-2.3c-0.1-0.4-0.4-0.6-0.8-0.6c-0.1,0-0.2,0-0.3,0c-0.4,0.1-0.6,0.5-0.5,0.9
								c0.1,0.3,0.1,0.5,0.2,0.8c0,0-0.5-0.3-0.7-0.4l-0.3-0.1c-0.2-0.1-0.5-0.3-0.7-0.4c-0.1-0.1-0.2-0.1-0.3-0.1
								C485.3,686,485.5,685.8,485.7,685.5z M484.3,700.2c-0.4-0.8-0.8-1.7-1-2.6c-0.1-0.5-0.3-1.1-0.3-1.6c-0.1-0.6-0.1-1.3-0.1-2
								c0-0.9,0.1-1.8,0.3-2.6c0.2-0.9,0.4-1.8,0.8-2.7c0.2-0.4,0.3-0.7,0.5-1.1c0.1,0.1,0.2,0.2,0.3,0.2c0.3,0.2,0.5,0.3,0.8,0.5
								c0.2,0.1,0.3,0.2,0.5,0.3c0,0,0.4,0.2,0.4,0.3c-0.3,0.1-0.5,0.1-0.8,0.2c-0.4,0.1-0.6,0.4-0.6,0.8c0,0.4,0.3,0.7,0.6,0.8
								c0.1,0,0.1,0,0.2,0c0.1,0,0.2,0,0.3,0l2-0.5l0.1,0c0.1,0,0.2,0,0.3-0.1c0.5,0.3,0.9,0.5,1.4,0.8l0.1,0l-3.4,0.9
								c-0.4,0.1-0.7,0.5-0.6,1c0.1,0.4,0.4,0.6,0.8,0.6c0.1,0,0.2,0,0.2,0c0.3-0.1,0.7-0.2,1-0.3l0.6-0.2l1.1-0.3
								c0.8-0.2,1.5-0.4,2.3-0.6c0.7,0.4,1.4,0.8,2.3,1.3c-0.1,0.4-0.1,0.8,0,1.2c-0.8,0.5-1.6,0.9-2.4,1.4
								c-0.7-0.2-1.5-0.4-2.2-0.6l-1.6-0.4c-0.3-0.1-0.7-0.2-1-0.3c-0.1,0-0.1,0-0.2,0c-0.3,0-0.6,0.2-0.7,0.5
								c-0.2,0.4-0.1,0.8,0.3,1c0.1,0.1,0.2,0.1,0.3,0.1l0.1,0c0.8,0.2,1.7,0.5,2.5,0.7c0.2,0.1,0.4,0.1,0.6,0.2l0,0
								c-0.5,0.3-1,0.6-1.5,0.9l-2.3-0.6c-0.1,0-0.2,0-0.2,0c-0.3,0-0.6,0.2-0.8,0.5c-0.1,0.2-0.1,0.5,0,0.7
								c0.1,0.2,0.3,0.4,0.5,0.4c0.2,0.1,0.5,0.1,0.7,0.2l0,0c-0.5,0.3-1,0.6-1.6,0.9C484.5,700,484.4,700.1,484.3,700.2z
								 M488.3,705c-0.2-0.2-0.5-0.4-0.7-0.6c-0.1-0.1-0.2-0.1-0.2-0.2c-0.1-0.1-0.2-0.2-0.3-0.3c-0.1-0.1-0.2-0.2-0.3-0.3
								c-0.1-0.1-0.2-0.2-0.3-0.3c-0.1-0.1-0.1-0.1-0.2-0.2c-0.1-0.1-0.2-0.2-0.3-0.3c-0.1-0.1-0.2-0.2-0.3-0.4
								c-0.1-0.1-0.2-0.2-0.3-0.4c-0.1-0.2-0.3-0.4-0.4-0.6c0.1,0,0.3-0.1,0.4-0.1l1.3-0.8l0.4-0.2c-0.1,0.3-0.1,0.5-0.2,0.8
								c-0.1,0.4,0.1,0.9,0.5,1c0.1,0,0.2,0,0.2,0c0.4,0,0.7-0.2,0.8-0.6c0.1-0.2,0.1-0.5,0.2-0.7c0-0.1,0.1-0.2,0.1-0.3l0.1-0.2
								c0.1-0.4,0.2-0.8,0.3-1.1c0.4-0.2,0.9-0.5,1.3-0.7c0.1,0,0.1-0.1,0.2-0.1c-0.3,1.1-0.6,2.3-0.9,3.4c0,0.1-0.1,0.3,0,0.5
								c0.1,0.3,0.4,0.6,0.8,0.6h0c0.4,0,0.7-0.2,0.8-0.6c0.1-0.3,0.2-0.7,0.3-1l0.1-0.3c0.3-1.3,0.7-2.5,1-3.8
								c0.6-0.4,1.5-0.9,2.3-1.3c0.3,0.3,0.6,0.5,1,0.6v2.8l-3.5,3.5c-0.3,0.3-0.3,0.6-0.2,0.8c0.1,0.4,0.4,0.6,0.8,0.6
								c0.2,0,0.4-0.1,0.5-0.2c0,0,0,0,0.1-0.1l2.3-2.3v1.7c-0.6,0.6-1.1,1.1-1.7,1.7c-0.2,0.2-0.3,0.4-0.3,0.6
								c0,0.2,0.1,0.4,0.2,0.6c0.2,0.1,0.4,0.2,0.6,0.2c0.2,0,0.4-0.1,0.6-0.2c0.2-0.2,0.3-0.3,0.5-0.5v1.8c0,0.2,0,0.3,0.1,0.4
								C493.1,707.7,490.5,706.6,488.3,705z M496.8,695.3c-0.8,0-1.4-0.6-1.4-1.4c0-0.8,0.6-1.4,1.4-1.4c0.8,0,1.4,0.6,1.4,1.4
								S497.6,695.3,496.8,695.3z M508.1,702.2c-0.1,0.1-0.2,0.2-0.2,0.3c-0.2,0.2-0.4,0.4-0.5,0.6c-0.4,0.4-0.8,0.8-1.2,1.2
								c-2.2,1.9-5,3.2-8,3.5c-0.2,0-0.4,0-0.6,0c0.1-0.2,0.1-0.4,0.1-0.6c0,0,0-0.1,0-0.1c0,0,0-1.4,0-1.7c0.2,0.2,0.4,0.4,0.6,0.6
								c0.2,0.2,0.4,0.3,0.6,0.3c0.1,0,0.1,0,0.2,0c0.3-0.1,0.5-0.3,0.6-0.6c0.1-0.3,0-0.6-0.2-0.8c-0.2-0.2-0.4-0.4-0.6-0.6
								c-0.1-0.1-0.2-0.2-0.3-0.3l-0.2-0.2c-0.2-0.2-0.4-0.4-0.6-0.6c0-0.6,0-1.1,0-1.7c0.8,0.8,1.7,1.7,2.5,2.5
								c0.2,0.2,0.4,0.3,0.6,0.3c0.1,0,0.1,0,0.2,0c0.3-0.1,0.5-0.3,0.6-0.6c0.1-0.3,0-0.6-0.2-0.8c0,0,0,0-0.1-0.1l-0.5-0.5
								c-1-1-2.1-2.1-3.1-3.1c0-0.9,0-1.8,0-2.7c0.4-0.1,0.7-0.3,1-0.6c1,0.6,1.7,1,2.4,1.4c0.4,1.4,0.7,2.8,1.1,4.2l0,0.1
								c0,0.2,0.1,0.4,0.1,0.5c0.1,0.4,0.4,0.6,0.8,0.6c0.1,0,0.1,0,0.2,0c0.4-0.1,0.7-0.6,0.6-1c0,0-0.8-3-0.9-3.2l0.3,0.2
								c0.4,0.2,0.8,0.5,1.2,0.7c0.2,0.8,0.4,1.5,0.6,2.3c0.1,0.3,0.3,0.6,0.7,0.6c0,0,0.1,0,0.1,0c0.3,0,0.5-0.1,0.7-0.4
								c0.1-0.2,0.2-0.4,0.1-0.7c-0.1-0.2-0.1-0.5-0.2-0.7c0.5,0.3,1,0.6,1.6,0.9c0.1,0.1,0.2,0.1,0.4,0.1
								C508.3,701.8,508.2,702,508.1,702.2z M510.8,693.7c0,0.1,0,0.1,0,0.2c0,0.4,0,0.8-0.1,1.3c-0.1,1.7-0.6,3.2-1.3,4.7
								c-0.1,0.2-0.2,0.3-0.2,0.5c-0.1-0.1-0.2-0.2-0.3-0.3c-0.3-0.2-0.6-0.3-0.9-0.5l-0.8-0.5c0.3-0.1,0.5-0.1,0.8-0.2
								c0.4-0.1,0.6-0.4,0.6-0.8c0-0.4-0.3-0.7-0.6-0.8c-0.1,0-0.1,0-0.2,0c-0.1,0-0.2,0-0.3,0l-0.6,0.2c-0.6,0.2-1.1,0.3-1.7,0.5
								c-0.5-0.3-1-0.6-1.5-0.9l0.8-0.2c0.9-0.2,1.7-0.5,2.6-0.7c0.4-0.1,0.6-0.4,0.6-0.8c0-0.4-0.3-0.7-0.6-0.8c-0.1,0-0.1,0-0.2,0
								c-0.1,0-0.2,0-0.3,0c-0.4,0.1-2.4,0.6-2.4,0.6c-0.9,0.2-1.7,0.5-2.6,0.7c-0.5-0.3-1.1-0.6-1.6-0.9c-0.2-0.1-0.5-0.3-0.7-0.4
								c0.1-0.4,0.1-0.8,0-1.2c0.8-0.4,1.6-0.9,2.4-1.4c0.9,0.2,1.8,0.5,2.7,0.7c0.7,0.2,1.4,0.4,2.1,0.6c0.1,0,0.2,0,0.3,0
								c0.2,0,0.4-0.1,0.6-0.3c0.2-0.2,0.2-0.5,0.2-0.8c-0.1-0.3-0.3-0.5-0.6-0.6c-0.3-0.1-0.6-0.2-0.9-0.2l-0.3-0.1
								c0,0-1.6-0.4-2-0.5l0.1,0c0.5-0.3,1-0.6,1.4-0.8c0.7,0.2,1.3,0.4,1.9,0.5l0.3,0.1c0.1,0,0.2,0,0.2,0c0.3,0,0.6-0.2,0.7-0.5
								c0.1-0.2,0.1-0.5,0-0.7c-0.1-0.2-0.3-0.4-0.5-0.5c-0.2-0.1-0.5-0.1-0.7-0.2c0.5-0.3,1-0.6,1.5-0.9c0.1-0.1,0.2-0.2,0.4-0.3
								c0.2,0.3,0.3,0.7,0.5,1C510.4,690.2,510.7,691.9,510.8,693.7z"/>
						</g>
					</g>
				</g>
			</g>
			<g>
				<g>
					<g>
						<g>
							<path class="st0" d="M432.3,643c-2-2.6-5-4.5-8.4-5.2v-2.7h-1.4c0.4-0.4,0.7-0.9,0.7-1.5c0-0.9-0.5-1.6-1.3-1.9V618h-1.3
								v13.7c-0.8,0.3-1.4,1-1.4,1.9c0,0.6,0.3,1.1,0.7,1.5h-1.2v2.7c-2.9,0.6-5.5,2-7.4,4.1c-0.1,0.1-0.2,0.2-0.3,0.3
								c-2.2,2.5-3.6,5.7-3.6,9.3c0,7.7,6.2,13.9,13.9,13.9c4.4,0,8.4-2.1,10.9-5.3c0.2-0.3,0.4-0.5,0.6-0.8
								c1.5-2.2,2.4-4.9,2.4-7.8c0-2.9-0.9-5.6-2.4-7.8C432.6,643.4,432.5,643.2,432.3,643z M422.2,639.1c0.1,0,0.1,0,0.2,0
								c2.9,0.2,5.6,1.5,7.6,3.4c0.1,0.1,0.2,0.2,0.2,0.2c0.2,0.2,0.3,0.3,0.4,0.5c0.1,0.1,0.1,0.2,0.2,0.3c0,0,0.1,0.1,0.1,0.1
								c0.1,0.1,0.2,0.2,0.3,0.3c0,0.1,0.1,0.1,0.1,0.2c0,0,0,0,0,0c0.1,0.1,0.2,0.2,0.3,0.4c0,0.1,0.1,0.1,0.1,0.2c0,0,0,0,0,0
								c-0.1,0-0.2,0-0.3,0.1c-0.4,0.3-0.9,0.5-1.3,0.8l-0.2,0.1l0-0.1c0.1-0.2,0.1-0.4,0.2-0.6c0.1-0.3,0-0.6-0.3-0.8
								c-0.1-0.1-0.2-0.1-0.4-0.1c-0.2,0-0.3,0.1-0.5,0.2c-0.1,0.1-0.2,0.2-0.2,0.4c-0.1,0.3-0.2,0.6-0.2,0.9l-0.2,0.6
								c-0.1,0.2-0.1,0.4-0.2,0.7c-0.4,0.3-0.9,0.5-1.3,0.8c0.1-0.3,0.6-2.3,0.6-2.3c0.1-0.2,0.1-0.5,0.2-0.7c0.1-0.2,0-0.5-0.1-0.7
								c-0.1-0.2-0.3-0.3-0.5-0.3c0,0-0.1,0-0.2,0c-0.3,0.1-0.5,0.3-0.6,0.5c-0.1,0.3-0.1,0.5-0.2,0.8l-0.1,0.2
								c-0.3,1.2-0.6,2.3-0.9,3.5c-0.7,0.4-1.4,0.8-2.1,1.2c-0.3-0.2-0.5-0.4-0.9-0.5c0-0.8,0-1.7,0-2.5c0.9-0.9,1.8-1.8,2.6-2.6
								l0.5-0.5c0.2-0.2,0.3-0.5,0.2-0.7c-0.1-0.3-0.4-0.6-0.7-0.6c-0.2,0-0.3,0.1-0.5,0.2c0,0-0.1,0-0.1,0.1c0,0-1.4,1.4-2.1,2.1
								v-0.1c0-0.5,0-1,0-1.5c0.2-0.2,0.5-0.5,0.7-0.7c0.3-0.3,0.5-0.5,0.8-0.8c0,0,0.1-0.1,0.1-0.1c0.2-0.2,0.2-0.4,0.1-0.6
								c-0.1-0.3-0.2-0.5-0.5-0.5c-0.1,0-0.1,0-0.2,0c-0.2,0-0.4,0.1-0.5,0.2c0,0-0.3,0.3-0.5,0.5v-1.6c0-0.1,0-0.2-0.1-0.3
								C422.1,639,422.1,639.1,422.2,639.1z M411.3,644C411.4,644,411.4,644,411.3,644c0.1-0.2,0.2-0.3,0.3-0.4
								c0.2-0.3,0.4-0.5,0.7-0.7c0.1-0.1,0.1-0.1,0.2-0.2c0.1-0.1,0.3-0.3,0.5-0.4c0.1-0.1,0.1-0.1,0.2-0.2c0.1,0,0.1-0.1,0.2-0.1
								c0.1-0.1,0.1-0.1,0.2-0.2c0.2-0.2,0.4-0.3,0.6-0.4c0.2-0.1,0.4-0.3,0.6-0.4c1.8-1.1,3.8-1.8,6.1-1.9
								c-0.1,0.1-0.1,0.2-0.1,0.4v1.7c-0.2-0.2-0.3-0.3-0.5-0.5c-0.2-0.2-0.4-0.2-0.5-0.2c-0.1,0-0.1,0-0.2,0
								c-0.2,0.1-0.4,0.3-0.5,0.5c0,0.1,0,0.3,0,0.4c0,0.1,0.1,0.2,0.2,0.3c0,0,0,0,0.1,0.1l0.4,0.4c0.4,0.4,0.8,0.8,1.1,1.1v1.5
								c-0.7-0.7-1.5-1.5-2.2-2.2c-0.2-0.2-0.3-0.2-0.5-0.2c0,0-0.1,0-0.1,0c-0.3,0-0.5,0.2-0.6,0.5c-0.1,0.3-0.1,0.5,0.1,0.7
								c0,0,0,0,0.1,0.1l0.5,0.5c0.9,0.9,1.9,1.9,2.8,2.8v2.4c-0.3,0.1-0.6,0.3-0.9,0.5c-0.7-0.4-1.4-0.8-2.2-1.2
								c-0.4-1.4-0.8-2.8-1.1-4.2l0,0c0,0,0-0.1,0-0.1l0,0c-0.1-0.3-0.4-0.5-0.7-0.5c-0.1,0-0.1,0-0.2,0c-0.4,0.1-0.6,0.5-0.5,0.9
								c0.1,0.3,0.2,0.7,0.3,1l0.1,0.2l0.4,1.7l0,0c-0.4-0.2-0.9-0.5-1.3-0.8c-0.2-0.7-0.4-1.3-0.5-2c-0.1-0.3-0.4-0.6-0.7-0.6
								c-0.1,0-0.2,0-0.2,0c-0.4,0.1-0.6,0.5-0.5,0.8c0.1,0.2,0.1,0.5,0.2,0.7c0,0-0.4-0.2-0.6-0.3l-0.2-0.1
								c-0.2-0.1-0.4-0.2-0.6-0.4c-0.1,0-0.2-0.1-0.3-0.1C411.1,644.4,411.2,644.2,411.3,644z M410.2,657c-0.4-0.7-0.7-1.5-0.9-2.3
								c-0.1-0.5-0.2-1-0.3-1.5c-0.1-0.6-0.1-1.2-0.1-1.8c0-0.8,0.1-1.6,0.2-2.4c0.2-0.8,0.4-1.6,0.7-2.4c0.1-0.3,0.3-0.7,0.5-1
								c0.1,0.1,0.1,0.2,0.2,0.2c0.2,0.1,0.5,0.3,0.7,0.4c0.1,0.1,0.3,0.2,0.4,0.2c0,0,0.3,0.2,0.4,0.2c-0.2,0.1-0.5,0.1-0.7,0.2
								c-0.3,0.1-0.6,0.4-0.5,0.7c0,0.3,0.2,0.6,0.6,0.7c0.1,0,0.1,0,0.2,0c0.1,0,0.1,0,0.2,0l1.8-0.5l0.1,0c0.1,0,0.2,0,0.2-0.1
								c0.4,0.2,0.8,0.5,1.2,0.7l0.1,0l-3,0.8c-0.4,0.1-0.6,0.5-0.6,0.9c0.1,0.3,0.4,0.6,0.7,0.6c0.1,0,0.1,0,0.2,0
								c0.3-0.1,0.6-0.2,0.9-0.2l0.5-0.2l1-0.3c0.7-0.2,1.4-0.4,2-0.5c0.6,0.4,1.3,0.7,2.1,1.2c-0.1,0.3-0.1,0.7,0,1
								c-0.7,0.4-1.4,0.8-2.2,1.2c-0.7-0.2-1.3-0.4-2-0.5l-1.4-0.4c-0.3-0.1-0.6-0.2-0.9-0.2c-0.1,0-0.1,0-0.2,0
								c-0.3,0-0.5,0.2-0.7,0.4c-0.1,0.3-0.1,0.7,0.2,0.9c0.1,0.1,0.2,0.1,0.3,0.1l0.1,0c0.7,0.2,1.5,0.4,2.2,0.6
								c0.2,0,0.4,0.1,0.5,0.1l0,0c-0.4,0.3-0.9,0.5-1.3,0.8l-2-0.5c-0.1,0-0.1,0-0.2,0c-0.3,0-0.6,0.2-0.7,0.5
								c-0.1,0.2-0.1,0.4,0,0.6c0.1,0.2,0.3,0.3,0.5,0.4c0.2,0.1,0.4,0.1,0.6,0.2l0,0c-0.5,0.3-0.9,0.5-1.4,0.8
								C410.3,656.8,410.2,656.9,410.2,657z M413.7,661.3c-0.2-0.2-0.4-0.3-0.6-0.5c-0.1-0.1-0.1-0.1-0.2-0.2
								c-0.1-0.1-0.2-0.2-0.3-0.2c-0.1-0.1-0.2-0.2-0.3-0.3c-0.1-0.1-0.2-0.2-0.3-0.3c-0.1-0.1-0.1-0.1-0.2-0.2
								c-0.1-0.1-0.2-0.2-0.2-0.3c-0.1-0.1-0.2-0.2-0.3-0.3c-0.1-0.1-0.2-0.2-0.2-0.3c-0.1-0.2-0.3-0.4-0.4-0.5c0.1,0,0.2,0,0.3-0.1
								l1.2-0.7l0.3-0.2c-0.1,0.2-0.1,0.5-0.2,0.7c-0.1,0.4,0.1,0.8,0.5,0.9c0.1,0,0.1,0,0.2,0c0.3,0,0.6-0.2,0.7-0.5
								c0.1-0.2,0.1-0.4,0.2-0.7c0-0.1,0-0.2,0.1-0.3l0-0.2c0.1-0.3,0.2-0.7,0.3-1c0.4-0.2,0.8-0.4,1.1-0.7c0.1,0,0.1-0.1,0.2-0.1
								c-0.3,1-0.5,2-0.8,3c0,0.1-0.1,0.3,0,0.5c0.1,0.3,0.4,0.5,0.7,0.5h0c0.3,0,0.6-0.2,0.7-0.5c0.1-0.3,0.2-0.6,0.2-0.9l0.1-0.2
								c0.3-1.1,0.6-2.2,0.9-3.4c0.6-0.3,1.3-0.8,2.1-1.2c0.3,0.2,0.5,0.4,0.9,0.5v2.5l-3.1,3.1c-0.3,0.3-0.3,0.5-0.2,0.7
								c0.1,0.3,0.4,0.6,0.7,0.6c0.2,0,0.4-0.1,0.5-0.2c0,0,0,0,0.1-0.1l2.1-2.1v1.5c-0.5,0.5-1,1-1.5,1.5c-0.1,0.1-0.2,0.3-0.2,0.5
								c0,0.2,0.1,0.4,0.2,0.5c0.1,0.1,0.3,0.2,0.5,0.2c0.2,0,0.4-0.1,0.5-0.2c0.2-0.2,0.3-0.3,0.5-0.5v1.6c0,0.1,0,0.3,0.1,0.4
								C418,663.7,415.6,662.8,413.7,661.3z M421.3,652.7c-0.7,0-1.3-0.6-1.3-1.3c0-0.7,0.6-1.3,1.3-1.3c0.7,0,1.3,0.6,1.3,1.3
								C422.5,652.1,422,652.7,421.3,652.7z M431.3,658.8c-0.1,0.1-0.1,0.2-0.2,0.3c-0.2,0.2-0.3,0.4-0.5,0.6
								c-0.3,0.4-0.7,0.7-1.1,1.1c-1.9,1.7-4.4,2.8-7.1,3.1c-0.2,0-0.4,0-0.5,0c0.1-0.2,0.1-0.4,0.1-0.5c0,0,0-0.1,0-0.1
								c0,0,0-1.2,0-1.5c0.2,0.2,0.3,0.3,0.5,0.5c0.2,0.2,0.4,0.2,0.5,0.2c0.1,0,0.1,0,0.2,0c0.3-0.1,0.4-0.3,0.5-0.5
								c0.1-0.3,0-0.5-0.2-0.7c-0.2-0.2-0.4-0.4-0.6-0.6c-0.1-0.1-0.2-0.2-0.3-0.3l-0.2-0.2c-0.2-0.2-0.3-0.3-0.5-0.5
								c0-0.5,0-1,0-1.5c0.7,0.7,1.5,1.5,2.2,2.2c0.2,0.2,0.3,0.2,0.5,0.2c0.1,0,0.1,0,0.2,0c0.2-0.1,0.4-0.3,0.5-0.5
								c0.1-0.2,0-0.5-0.2-0.7c0,0,0,0-0.1-0.1l-0.5-0.5c-0.9-0.9-1.9-1.9-2.8-2.8c0-0.8,0-1.6,0-2.4c0.3-0.1,0.6-0.3,0.9-0.5
								c0.9,0.5,1.5,0.9,2.2,1.2c0.3,1.2,0.7,2.5,1,3.7l0,0.1c0,0.2,0.1,0.3,0.1,0.5c0.1,0.3,0.4,0.6,0.7,0.6c0.1,0,0.1,0,0.2,0
								c0.4-0.1,0.6-0.5,0.5-0.9c0,0-0.7-2.7-0.8-2.9l0.3,0.1c0.4,0.2,0.7,0.4,1.1,0.6c0.2,0.7,0.4,1.4,0.5,2
								c0.1,0.3,0.3,0.5,0.6,0.5c0,0,0.1,0,0.1,0c0.2,0,0.5-0.1,0.6-0.3c0.1-0.2,0.1-0.4,0.1-0.6c-0.1-0.2-0.1-0.4-0.2-0.6
								c0.5,0.3,0.9,0.5,1.4,0.8c0.1,0,0.2,0.1,0.4,0.1C431.5,658.5,431.4,658.6,431.3,658.8z M433.7,651.3c0,0.1,0,0.1,0,0.2
								c0,0.4,0,0.8,0,1.1c-0.1,1.5-0.5,2.9-1.1,4.2c-0.1,0.1-0.1,0.3-0.2,0.4c-0.1-0.1-0.1-0.2-0.3-0.3c-0.3-0.2-0.5-0.3-0.8-0.5
								l-0.8-0.4c0.2-0.1,0.5-0.1,0.7-0.2c0.3-0.1,0.6-0.4,0.6-0.7c0-0.3-0.2-0.6-0.5-0.7c-0.1,0-0.1,0-0.2,0c-0.1,0-0.2,0-0.2,0
								l-0.6,0.1c-0.5,0.1-1,0.3-1.5,0.4c-0.4-0.3-0.9-0.5-1.3-0.8l0.7-0.2c0.8-0.2,1.6-0.4,2.3-0.6c0.3-0.1,0.6-0.4,0.6-0.7
								c0-0.3-0.2-0.6-0.6-0.7c-0.1,0-0.1,0-0.2,0c-0.1,0-0.2,0-0.2,0c-0.3,0.1-2.2,0.6-2.2,0.6c-0.8,0.2-1.5,0.4-2.3,0.6
								c-0.5-0.3-1-0.6-1.4-0.8c-0.2-0.1-0.4-0.2-0.6-0.4c0.1-0.3,0.1-0.7,0-1c0.7-0.4,1.4-0.8,2.2-1.2c0.8,0.2,1.6,0.4,2.4,0.6
								c0.6,0.2,1.2,0.3,1.9,0.5c0.1,0,0.2,0,0.2,0c0.2,0,0.4-0.1,0.5-0.3c0.2-0.2,0.2-0.4,0.1-0.7c-0.1-0.2-0.3-0.4-0.5-0.5
								c-0.3-0.1-0.5-0.1-0.8-0.2l-0.3-0.1c0,0-1.4-0.4-1.8-0.5l0.1,0c0.4-0.2,0.8-0.5,1.3-0.7c0.6,0.2,1.2,0.3,1.7,0.5l0.3,0.1
								c0.1,0,0.1,0,0.2,0c0.3,0,0.5-0.2,0.7-0.4c0.1-0.2,0.1-0.4,0-0.6c-0.1-0.2-0.3-0.3-0.5-0.4c-0.2-0.1-0.4-0.1-0.6-0.2
								c0.5-0.3,0.9-0.5,1.4-0.8c0.1-0.1,0.2-0.1,0.3-0.3c0.1,0.3,0.3,0.6,0.4,0.9C433.4,648.1,433.7,649.7,433.7,651.3z"/>
						</g>
					</g>
				</g>
			</g>
			<g>
				<g>
					<g>
						<path class="st0" d="M524.1,655.7l2.2,6.7c0.1,0.4,0.5,0.7,0.9,0.7h7.1c1,0,1.4,1.2,0.6,1.8l-5.7,4.2
							c-0.3,0.3-0.5,0.7-0.4,1.1l2.2,6.7c0.3,0.9-0.7,1.7-1.5,1.1l-5.7-4.2c-0.3-0.3-0.8-0.3-1.2,0l-5.7,4.2
							c-0.8,0.6-1.8-0.2-1.5-1.1l2.2-6.7c0.1-0.4,0-0.9-0.4-1.1l-5.7-4.2c-0.8-0.6-0.4-1.8,0.6-1.8h7.1c0.4,0,0.8-0.3,0.9-0.7
							l2.2-6.7C522.6,654.8,523.8,654.8,524.1,655.7z"/>
					</g>
					<g>
						<rect x="522.7" y="626.3" class="st0" width="1" height="31.1"/>
					</g>
				</g>
				<g>
					<g>
						<path class="st0" d="M469.4,655.7l2.2,6.7c0.1,0.4,0.5,0.7,0.9,0.7h7.1c1,0,1.4,1.2,0.6,1.8l-5.7,4.2
							c-0.3,0.3-0.5,0.7-0.4,1.1l2.2,6.7c0.3,0.9-0.7,1.7-1.5,1.1l-5.7-4.2c-0.3-0.3-0.8-0.3-1.2,0l-5.7,4.2
							c-0.8,0.6-1.8-0.2-1.5-1.1l2.2-6.7c0.1-0.4,0-0.9-0.4-1.1l-5.7-4.2c-0.8-0.6-0.4-1.8,0.6-1.8h7.1c0.4,0,0.8-0.3,0.9-0.7
							l2.2-6.7C467.8,654.8,469.1,654.8,469.4,655.7z"/>
					</g>
					<g>
						<rect x="467.9" y="626.3" class="st0" width="1" height="31.1"/>
					</g>
				</g>
			</g>
		</g>
		<g>
			<path class="st0" d="M717.5,651c-0.4-12.7-1.8-25.2-4.4-37.6H525c170.2,170.6-187.1,339-282.4,30.9h-44.4l28.5,207.6h29.6
				c5.7-12.5,13.7-18.2,23.9-18.2c20.5,0,103.6,36.5,194.8,36.5C613,869.9,721.4,773.7,717.5,651z M238.9,420.5
				c9.3,12.5,20.1,23.9,31.8,34.4h318.8c-23-16.2-48.1-31.1-72.2-44.4c-422.6-170.1,18.6-386.7,116-81h45.6
				c-0.6-5.5-20.5-174.6-21.6-184.7h-23.9c-10.2,10.3-17.1,12.5-25.1,12.5c-131.3-48.5-400-52.6-404.3,156.3
				C203.8,354,215.7,389.4,238.9,420.5z"/>
			<g>
				<path class="st0" d="M960,423c-10.5,0-19.5,6.8-22.6,16.3h-98.2c-4.2,0-7.6,3.4-7.6,7.6c0,4.2,3.4,7.6,7.6,7.6h98.2
					c8,25.1,46.8,19.2,46.5-7.6C983.9,433.7,973.2,423,960,423z M960,455.7c-11.4-0.1-11.4-17.4,0-17.5
					C971.5,438.2,971.5,455.6,960,455.7z"/>
				<path class="st0" d="M160.8,439.4H62.6c-8-25.1-46.8-19.2-46.5,7.6c-0.3,26.8,38.5,32.7,46.5,7.6h98.2
					C170.7,454.5,170.7,439.4,160.8,439.4z M40,455.7c-11.4-0.1-11.4-17.4,0-17.5C51.4,438.2,51.4,455.6,40,455.7z"/>
			</g>
			<g>
				<path class="st0" d="M960,597.4c-10.5,0-19.5,6.8-22.6,16.3h-98.2c-4.2,0-7.6,3.4-7.6,7.6c0,4.1,3.4,7.6,7.6,7.6h98.2
					c8,25.1,46.8,19.2,46.5-7.6C983.9,608.1,973.2,597.4,960,597.4z M960,630c-11.4-0.1-11.4-17.4,0-17.5
					C971.5,612.6,971.5,630,960,630z"/>
				<path class="st0" d="M160.8,613.7H62.6c-8-25.1-46.8-19.2-46.5,7.6c-0.3,26.8,38.6,32.7,46.5,7.6h98.2
					C170.7,628.8,170.7,613.7,160.8,613.7z M40,630c-11.4-0.1-11.4-17.4,0-17.5C51.4,612.6,51.4,630,40,630z"/>
			</g>
			<g>
				<g>
					<g>
						<rect x="62.1" y="613.4" class="st0" width="874.3" height="15.7"/>
						<rect x="62.1" y="439.2" class="st0" width="874.3" height="15.7"/>
					</g>
				</g>
			</g>
		</g>
	</g>
	<g>
		<path class="st0" d="M522.6,798.8c-0.1-0.1-0.2-0.2-0.4-0.3c-0.7-0.6-1.7-1.6-2.7-2.6c-1-1-2-2.2-2.8-3.2c-0.8-1-1.5-1.8-1.9-2.3
			c-0.4-0.5-1-1.3-1.8-2.3c-0.3-0.5-0.7-1-1-1.5c0.6,0.6,1.4,1.4,2.3,2c0.6,0.4,1.2,0.7,1.7,0.9c0.5,0.2,0.8,0.3,0.8,0.2
			c0-0.1-0.3-0.3-0.7-0.5c-0.4-0.3-1-0.7-1.5-1.1c-1.1-0.9-2.2-2.2-2.6-2.6c-0.1-0.1-0.2-0.3-0.4-0.5c-0.2-0.2-0.3-0.5-0.5-0.7
			c-0.4-0.6-0.8-1.2-1.1-1.9c-0.2-0.3-0.3-0.7-0.5-1c-0.1-0.3-0.3-0.6-0.4-0.8c-0.1-0.2-0.1-0.3-0.2-0.4c0.2,0.2,0.4,0.4,0.5,0.5
			c0.2,0.2,0.6,0.6,1.1,1c0,0,0.1,0.1,0.1,0.1c0.3,0.3,0.6,0.7,0.9,1c0.7,0.6,1.3,1.3,2,1.9c0.7,0.6,1.4,1.1,2,1.6
			c0.7,0.5,1.3,0.8,1.8,1.2c1.1,0.6,1.8,0.9,1.8,0.8c0.1-0.1-0.6-0.6-1.5-1.4c-0.2-0.2-1.1-1-1.3-1.3c-0.6-0.8-1.5-1.8-2.4-3
			c-0.9-1.1-1.8-2.4-2.5-3.5c-0.1-0.1-0.1-0.2-0.2-0.2c0.3,0.3,0.6,0.5,0.9,0.6c0.5,0.3,0.8,0.4,0.8,0.3c0-0.1-0.2-0.3-0.7-0.6
			c-0.4-0.4-0.9-0.9-1.4-1.5c-0.4-0.5-0.8-1-1.1-1.5c0.8,0.6,1.6,1,1.6,0.9c0.1-0.1-0.7-0.7-1.4-1.4c-0.7-0.7-1.3-1.7-1.6-2.1
			c-0.1-0.2-0.3-0.5-0.5-0.9c-0.3-0.6-0.6-1.4-0.9-2.1c-0.1-0.3-0.2-0.5-0.3-0.8c-0.1-0.2-0.1-0.3-0.2-0.4c0.1,0.1,0.2,0.3,0.3,0.4
			c0.3,0.3,0.9,0.9,1.7,1.5c0.7,0.9,1.6,1.8,2.4,2.7c1.2,1.1,2.4,2,3.3,2.6c0.5,0.3,0.9,0.5,1.2,0.6c0,0,0.1,0,0.1,0
			c0.4,0.3,0.8,0.5,1.1,0.8c1.2,0.7,2,1,2.1,0.9c0.1-0.1-0.7-0.7-1.8-1.5c-1.1-0.9-2.5-2.2-3.8-3.7c-0.7-0.8-1.3-1.6-2-2.5
			c0.6,0.5,1.2,0.8,1.3,0.7c0.1-0.1-0.5-0.6-1.1-1.3c-0.6-0.6-1.2-1.4-1.4-1.7c-0.2-0.3-0.8-1-1.2-1.8c-0.1-0.1-0.1-0.2-0.2-0.3
			c0,0,0,0,0-0.1c0,0,0.1,0.1,0.1,0.1c0.4,0.5,1,1,1.5,1.5c1.1,0.9,2.1,1.5,2.1,1.4c0.1-0.1-0.8-0.9-1.8-1.9c-0.5-0.5-1-1-1.3-1.5
			c-0.4-0.5-0.7-0.9-0.8-1.2c-0.2-0.2-0.4-0.7-0.7-1.2c-0.3-0.6-0.6-1.2-0.9-1.9c-0.1-0.3-0.3-0.6-0.4-0.9c0.3,0.3,0.6,0.6,0.8,0.8
			c0.9,0.7,4.3,3.4,5.5,3.9c0.3,0.2,0.5,0.4,0.8,0.6c0.1,0.1,0.3,0.2,0.4,0.3c0.6,0.5,1.1,1,1.6,1.3c1,0.8,1.9,0.9,1.9,0.8
			c0-0.1-0.5-0.4-1.3-1.2c0,0-0.1-0.1-0.3-0.3c-0.4-0.4-0.9-1-1.4-1.6c-0.6-0.6-1.1-1.3-1.7-2c-1.1-1.4-2.3-3-3.2-4.4
			c-0.2-0.3-0.4-0.7-0.6-1c0-0.1-0.1-0.2-0.1-0.3c0.3,0.4,0.6,0.9,1,1.2c0.4,0.4,0.8,0.8,1.2,1c0.3,0.2,0.6,0.3,0.6,0.2
			c0-0.1-0.2-0.3-0.4-0.5c-0.3-0.3-0.6-0.7-1-1.1c-0.7-0.9-1.3-2.1-1.6-2.5c-0.2-0.4-0.8-1.6-1.3-2.6c0,0,0,0,0-0.1
			c0,0.1,0.1,0.1,0.1,0.2c0.4,0.5,1.7,1.8,2.9,2.7c0.3,0.2,0.5,0.4,0.8,0.5c2.4,2.8,5,4.7,5.1,4.5c0.1-0.2-2.3-2.4-4.5-5.5
			c-0.3-0.4-0.6-0.8-0.9-1.2c-0.1-0.3-0.3-0.6-0.5-1.1c-0.4-0.8-1-1.9-1.6-3.1c0.7,0.8,1.4,1.4,1.5,1.3c0.1-0.1-0.6-0.8-1.1-1.7
			c-0.6-0.9-1.1-2-1.3-2.4c-0.2-0.4-0.7-1.5-0.9-2.5c0,0,0-0.1,0-0.1c0.6,0.7,2,2,3.4,3c0.9,0.6,1.7,1,2.3,1.3
			c0.5,0.3,0.9,0.5,0.9,0.4c0,0,0-0.1-0.1-0.3c0-0.2-0.4-0.5-0.9-1c-0.7-0.7-1.6-1.7-2.5-2.8c-0.5-0.5-0.9-1.1-1.3-1.7
			c-0.2-0.3-0.4-0.6-0.6-0.9c-0.2-0.3-0.4-0.6-0.5-0.8c-0.7-1.1-1.2-2.1-1.5-2.6c-0.1-0.3-0.3-0.6-0.6-1.1c-0.2-0.4-0.5-1-0.7-1.6
			c-0.5-1.2-1.1-2.6-1.5-4c-0.2-0.5-0.3-1-0.4-1.4c0.1,0.2,0.2,0.5,0.3,0.7c0.2,0.5,0.4,1,0.6,1.4c0.2,0.4,0.4,0.7,0.5,1
			c0.1,0.2,0.3,0.5,0.5,0.8c0.1,0.4,0.3,0.7,0.4,0.9c0.2,0.4,0.7,1.6,1.3,2.5c0.6,1,1.2,1.8,1.3,1.7c0.1-0.1-0.4-1-0.9-2
			c0-0.1-0.1-0.2-0.1-0.2c0.4,0.4,0.8,0.9,1.2,1.3c0.8,0.8,1.7,1.5,2.4,1.9c0.7,0.4,1.2,0.6,1.2,0.5c0.1-0.1-0.3-0.5-0.9-1.1
			c-0.6-0.6-1.3-1.4-2-2.3c-0.4-0.4-0.7-0.9-1.1-1.4c-0.3-0.5-0.7-0.9-0.9-1.4c-0.6-0.9-1-1.7-1.2-2.1c-0.1-0.2-0.3-0.5-0.5-0.9
			c-0.2-0.4-0.4-0.8-0.6-1.3c-0.1-0.3-0.3-0.6-0.4-1c0.6,0.5,1.2,0.7,1.2,0.6c0.1-0.1-0.4-0.5-0.9-1.1c-0.4-0.4-0.8-1-1-1.3
			c-0.1-0.2-0.1-0.3-0.2-0.5c-0.2-0.6-0.3-1.1-0.5-1.6c-0.1-0.5-0.2-1-0.3-1.4c-0.1-0.5-0.2-0.8-0.3-1.1c-0.1-0.3-0.2-0.6-0.3-0.6
			c-0.1,0-0.2,0.2-0.2,0.4c-0.1,0.2-0.2,0.6-0.3,1.2c-0.1,0.4-0.2,0.9-0.3,1.4c-0.1,0.3-0.2,0.6-0.2,0.9c-0.3,0.6-0.6,1-0.7,1.3
			c-0.2,0.3-0.7,1.1-1.3,1.8c-0.5,0.7-1.1,1.2-1,1.3c0.1,0.1,0.7-0.3,1.4-0.9c0.3-0.2,0.5-0.5,0.8-0.8c-0.2,0.5-0.4,0.9-0.5,1.3
			c-0.2,0.5-0.4,0.9-0.6,1.3c-0.2,0.4-0.3,0.7-0.5,0.9c-0.2,0.4-0.6,1.2-1.2,2.1c-0.3,0.5-0.6,0.9-0.9,1.4c-0.4,0.5-0.7,1-1.1,1.4
			c-0.7,0.9-1.5,1.7-2,2.3c-0.6,0.6-0.9,1-0.9,1.1c0.1,0.1,0.5-0.1,1.2-0.5c0.7-0.4,1.6-1.1,2.4-1.9c0.4-0.4,0.8-0.9,1.2-1.3
			c-0.5,1-0.9,1.8-0.8,1.9c0.1,0.1,0.7-0.7,1.3-1.6c0.6-0.9,1.1-2,1.3-2.4c0.1-0.2,0.2-0.4,0.3-0.8c0.2-0.3,0.3-0.6,0.4-0.7
			c0.1-0.2,0.3-0.6,0.5-1c0.2-0.4,0.4-0.9,0.6-1.4c0.1-0.2,0.2-0.5,0.3-0.7c-0.1,0.5-0.3,0.9-0.4,1.4c-0.4,1.4-1,2.8-1.5,4
			c-0.3,0.6-0.5,1.1-0.8,1.6c-0.2,0.4-0.4,0.8-0.6,1.1c-0.3,0.5-0.8,1.5-1.5,2.6c-0.2,0.3-0.4,0.6-0.5,0.8c-0.2,0.3-0.4,0.6-0.6,0.9
			c-0.4,0.6-0.8,1.2-1.3,1.7c-0.9,1.1-1.8,2.1-2.5,2.8c-0.6,0.5-1,0.9-0.9,1c-0.1,0.1-0.2,0.2-0.1,0.3c0,0.1,2.4-1.1,3.2-1.7
			c1.5-1,3-2.5,3.5-3.1c0.1-0.1,0.1-0.2,0.2-0.3c-0.1,0.1-0.2,0.3-0.3,0.4c-0.5,0.8-1.1,1.7-1.3,2c-0.2,0.3-0.8,1.2-1.4,2
			c-0.6,0.8-1.1,1.4-1,1.5c0.1,0.1,0.7-0.4,1.4-1.1c0.4-0.4,0.8-0.9,1.1-1.3c-0.3,0.6-0.8,1.4-1.3,2.2c-0.7,1-1.4,1.9-1.3,2
			c0.1,0.1,0.9-0.6,1.6-1.5c-0.5,1-1,2-1.4,2.7c-0.2,0.5-0.4,0.8-0.5,1.1c-0.3,0.4-0.6,0.8-0.9,1.2c-0.5,0.7-1,1.3-1.5,1.8
			c-0.2,0.2-0.3,0.3-0.4,0.5c-1.5,1.8-2.8,3-2.7,3.2c0.1,0.2,4.7-3.8,5-4c1.2-0.9,2.5-2,2.9-2.4c0.2-0.2,0.6-0.6,1-1.1
			c-0.1,0.2-0.1,0.3-0.2,0.5c-0.5,1-1,2-1.3,2.3c-0.2,0.4-0.8,1.4-1.5,2.3c-0.6,0.9-1.3,1.6-1.2,1.7c0.1,0.1,0.8-0.5,1.5-1.3
			c0.3-0.3,0.6-0.7,0.9-1.1c-0.2,0.3-0.3,0.5-0.5,0.8c-0.9,1.4-2,3-3.2,4.4c-0.6,0.7-1.1,1.4-1.7,2c-0.2,0.2-3,2.9-3,3
			c0,0.1,0.8,0,1.9-0.8c0.2-0.2,1.8-1.2,2.3-1.6c1.7-1.1,3.5-2.6,4.1-3.2c0.6-0.5,2.1-2,3.3-3.5c-0.1,0.2-0.1,0.3-0.2,0.5
			c-0.2,0.5-0.6,1-0.7,1.2c-0.1,0.2-0.5,0.7-0.9,1.2c-0.4,0.5-0.8,0.9-0.7,1c0.1,0.1,0.5-0.1,1-0.5c0.1-0.1,0.2-0.2,0.3-0.3
			c-0.3,0.5-0.7,1.4-1.2,2.1c-0.6,1-1.2,1.7-1.2,1.8c0.1,0.1,0.6-0.4,1.2-1c-0.6,1.2-1.3,2.5-2,3.7c-0.2,0.3-0.3,0.6-0.5,0.8
			c-0.8,1.1-1.7,2.3-2.6,3.3c-1.3,1.5-2.7,2.8-3.8,3.7c-1.1,0.9-1.8,1.4-1.8,1.5c0,0.1,0.9-0.2,2.1-0.9c0.4-0.2,1.9-1.1,2.4-1.4
			c0.8-0.4,1.8-1.2,2.7-2c1.5-1.2,2.9-2.5,3.5-3.1c0.3-0.3,0.8-0.9,1.5-1.7c0.2-0.3,0.5-0.7,0.8-1c-0.1,0.3-0.3,0.7-0.5,1.1
			c-0.3,0.6-0.6,1.2-0.9,1.7c-0.3,0.5-0.6,0.9-0.7,1.2c-0.3,0.5-1.1,1.7-1.9,2.7c-0.8,1-1.7,1.8-1.7,1.9c0.1,0.1,1-0.5,2-1.5
			c0.1-0.1,0.2-0.2,0.4-0.4c-0.2,0.4-0.4,0.8-0.6,1c-0.3,0.5-0.9,1.5-1.6,2.6c-0.7,1.1-1.6,2.4-2.5,3.5c-0.9,1.2-1.8,2.2-2.4,3
			c-0.2,0.2-0.4,0.4-0.5,0.6c-0.3,0.2-0.6,0.5-0.8,0.7c-1,0.7-1.6,1.3-1.5,1.4c0,0.1,0.8-0.2,1.8-0.8c0.5-0.3,1.1-0.7,1.8-1.2
			c0.6-0.5,1.4-1,2-1.6c0.7-0.6,1.4-1.2,2-1.9c0.3-0.3,0.6-0.7,0.9-1c0,0,0.1-0.1,0.1-0.1c0.5-0.4,0.9-0.7,1.1-1
			c0.5-0.5,1.9-1.9,3-3.3c-0.2,0.4-0.4,0.9-0.6,1.4c-0.3,0.7-0.7,1.4-1,2c-0.3,0.6-0.6,1-0.8,1.3c-0.3,0.5-1.2,1.9-2.2,3
			c-1,1.1-1.9,2-1.9,2.1c0.1,0.1,1.1-0.6,2.2-1.6c-1,1.4-1.8,2.5-2.3,3.1c-0.4,0.5-1.1,1.5-2,2.6c-0.4,0.6-0.9,1.2-1.4,1.7
			c-0.5,0.6-1,1.2-1.5,1.8c-1.8,2-3.7,3.4-4.1,3.9c-0.1,0.1-0.2,0.1-0.2,0.2c-1.2,0.8-2,1.3-1.9,1.4c0,0.1,0.9-0.2,2.2-0.8
			c0.6-0.3,1.4-0.7,2.2-1.2c0.7-0.4,1.5-0.9,2.2-1.5c0.3-0.2,0.6-0.4,0.9-0.5c1.1-0.7,2.2-1.4,3.1-2.1c0.9-0.7,1.7-1.3,2.1-1.7
			c0.5-0.4,1.5-1.3,2.5-2.4c0.3-0.2,0.5-0.4,0.7-0.5c0.2-0.2,0.6-0.5,1-0.9c-0.1,0.2-0.2,0.4-0.3,0.6c-0.4,0.9-0.9,1.8-1.1,2.2
			c-0.2,0.4-0.7,1.3-1.2,2.1c-0.5,0.8-1.1,1.5-1,1.6c0,0,0.2-0.1,0.4-0.2c0.2-0.1,0.5-0.3,0.8-0.6c0.5-0.4,1-1,1.1-1.2
			c0.1-0.2,0.5-0.7,0.7-1.3c-0.1,0.2-0.1,0.4-0.1,0.5c-0.2,0.6-0.6,2.1-1.1,3.4c-0.5,1.3-1.1,2.5-0.9,2.7c0.1,0.1,1.9-1.1,2.7-1.7
			c1.3-0.9,2.6-2.1,3-2.6c0.1-0.1,0.3-0.4,0.5-0.6c0,0.1-0.1,0.2-0.1,0.3c-0.2,0.6-0.5,1.1-0.4,1.2c0.1,0.1,0.5-0.3,0.8-0.9
			c0.4-0.5,0.6-1.2,0.7-1.5c0.1-0.1,0.1-0.4,0.2-0.7c0,0.7,0,1.5-0.1,2.2c-0.1,4.8-0.2,9.8-0.2,10.3c0,1,0.7,1.4,1.6,1.4
			c0.9,0,1.6-0.4,1.5-1.4c0-0.5-0.2-5.1-0.7-9.8c0,0,0.1,0.1,0.1,0.1c0.4,0.5,0.8,0.9,0.9,0.8c0.1-0.1-0.2-0.6-0.4-1.1
			c-0.3-0.5-0.5-1.2-0.5-1.4c0,0,0,0,0,0c0.1,0.1,0.2,0.2,0.2,0.3c0.2,0.3,0.6,0.8,1.1,1.4c0.5,0.6,1.2,1.2,1.8,1.6
			c0.7,0.5,1.3,0.8,1.8,1.1c0.5,0.2,0.9,0.3,0.9,0.1c0-0.1-0.4-1.3-0.5-1.9c-0.2-0.8-0.3-1.7-0.4-2.1c0-0.1-0.1-0.4-0.2-0.6
			c0.1,0.1,0.3,0.3,0.5,0.4c0.3,0.3,1.4,1.2,1.5,1.1c0.1,0,0.1-0.7,0-0.8c-0.1-0.4-0.2-0.8-0.3-1.4c-0.2-0.8-0.3-1.6-0.3-2.1
			c0.2,0.3,0.5,1,1,1.4c0.5,0.5,1,0.9,1.1,0.7c0.1-0.1-0.2-0.4-0.5-0.9c-0.1-0.2-0.1-0.4-0.2-0.6c-0.2-0.6-0.4-1.3-0.5-1.6
			c0-0.1-0.1-0.2-0.1-0.4c0.7,1,1.6,2,2.5,3c0.7,0.7,1.4,1.4,2,1.9c0.3,0.2,0.5,0.5,0.8,0.7c0.8,0.7,1.6,1.4,2.5,2
			c0.8,0.7,1.7,1.2,2.5,1.7c0.8,0.5,1.5,0.9,2.2,1.2c1.3,0.6,2.1,0.9,2.2,0.8C524.3,800,523.6,799.5,522.6,798.8z M501.5,725.9
			L501.5,725.9C501.5,726,501.5,726,501.5,725.9C501.5,726,501.5,726,501.5,725.9C501.5,726,501.5,725.9,501.5,725.9z"/>
	</g>
	<g>
		<path class="st0" d="M546,781.8c-0.1-0.1-0.2-0.2-0.3-0.2c-0.6-0.5-1.3-1.2-2.1-2c-0.8-0.8-1.6-1.7-2.2-2.5
			c-0.7-0.8-1.2-1.4-1.5-1.8c-0.3-0.4-0.8-1-1.4-1.8c-0.3-0.4-0.5-0.8-0.8-1.2c0.4,0.5,1.1,1.1,1.8,1.5c0.5,0.3,1,0.6,1.3,0.7
			c0.4,0.1,0.6,0.2,0.6,0.2c0-0.1-0.2-0.2-0.5-0.4c-0.3-0.2-0.8-0.5-1.2-0.9c-0.9-0.7-1.7-1.7-2-2.1c-0.1-0.1-0.2-0.2-0.3-0.4
			c-0.1-0.2-0.3-0.4-0.4-0.6c-0.3-0.4-0.6-0.9-0.9-1.5c-0.1-0.3-0.3-0.5-0.4-0.8c-0.1-0.2-0.2-0.5-0.3-0.7c0-0.1-0.1-0.2-0.1-0.3
			c0.2,0.2,0.3,0.3,0.4,0.4c0.2,0.2,0.5,0.4,0.8,0.7c0,0,0.1,0.1,0.1,0.1c0.2,0.2,0.5,0.5,0.7,0.8c0.5,0.5,1,1,1.6,1.5
			c0.5,0.5,1.1,0.9,1.6,1.2c0.5,0.4,1,0.6,1.4,0.9c0.9,0.5,1.4,0.7,1.5,0.6c0-0.1-0.5-0.5-1.2-1.1c-0.2-0.2-0.9-0.8-1.1-1
			c-0.5-0.6-1.2-1.4-1.9-2.3c-0.7-0.9-1.4-1.9-2-2.7c0-0.1-0.1-0.1-0.1-0.2c0.3,0.2,0.5,0.4,0.7,0.5c0.4,0.2,0.6,0.3,0.6,0.3
			c0-0.1-0.2-0.2-0.5-0.5c-0.3-0.3-0.7-0.7-1.1-1.2c-0.3-0.4-0.6-0.8-0.8-1.1c0.6,0.5,1.2,0.8,1.3,0.7c0-0.1-0.5-0.5-1.1-1.1
			c-0.6-0.6-1.1-1.3-1.2-1.6c-0.1-0.1-0.3-0.4-0.4-0.7c-0.2-0.5-0.5-1.1-0.7-1.6c-0.1-0.2-0.2-0.4-0.2-0.6c0-0.1-0.1-0.2-0.1-0.3
			c0.1,0.1,0.2,0.2,0.3,0.3c0.2,0.2,0.7,0.7,1.4,1.2c0.6,0.7,1.2,1.4,1.9,2.1c0.9,0.9,1.9,1.6,2.6,2c0.4,0.2,0.7,0.4,0.9,0.5
			c0,0,0,0,0.1,0c0.3,0.2,0.6,0.4,0.9,0.6c0.9,0.6,1.6,0.8,1.6,0.7c0-0.1-0.5-0.5-1.4-1.2c-0.9-0.7-2-1.7-3-2.9
			c-0.5-0.6-1.1-1.3-1.6-1.9c0.5,0.4,1,0.6,1,0.5c0.1-0.1-0.4-0.5-0.9-1c-0.5-0.5-0.9-1.1-1.1-1.3c-0.2-0.2-0.6-0.8-1-1.4
			c-0.1-0.1-0.1-0.2-0.2-0.3c0,0,0,0,0,0c0,0,0.1,0.1,0.1,0.1c0.3,0.4,0.8,0.8,1.2,1.1c0.8,0.7,1.6,1.2,1.7,1.1
			c0.1-0.1-0.7-0.7-1.4-1.5c-0.4-0.4-0.8-0.8-1.1-1.2c-0.3-0.4-0.5-0.7-0.6-0.9c-0.1-0.2-0.3-0.5-0.6-1c-0.2-0.4-0.5-0.9-0.7-1.5
			c-0.1-0.2-0.2-0.5-0.3-0.7c0.3,0.3,0.5,0.5,0.7,0.6c0.7,0.6,3.4,2.6,4.4,3.1c0.2,0.2,0.4,0.3,0.6,0.4c0.1,0.1,0.2,0.1,0.3,0.2
			c0.4,0.4,0.9,0.8,1.3,1c0.8,0.6,1.5,0.7,1.5,0.6c0-0.1-0.4-0.3-1-0.9c0,0-0.1-0.1-0.2-0.2c-0.3-0.3-0.7-0.8-1.1-1.2
			c-0.4-0.5-0.9-1-1.3-1.6c-0.9-1.1-1.8-2.4-2.5-3.5c-0.2-0.3-0.3-0.5-0.5-0.8c0-0.1-0.1-0.1-0.1-0.2c0.2,0.3,0.5,0.7,0.8,1
			c0.3,0.3,0.7,0.6,0.9,0.8c0.3,0.2,0.5,0.2,0.5,0.2c0,0-0.1-0.2-0.3-0.4c-0.2-0.2-0.5-0.5-0.8-0.9c-0.6-0.7-1.1-1.6-1.2-1.9
			c-0.2-0.3-0.7-1.2-1.1-2c0,0,0,0,0,0c0,0,0.1,0.1,0.1,0.1c0.3,0.4,1.3,1.4,2.3,2.1c0.2,0.2,0.4,0.3,0.6,0.4c1.9,2.2,4,3.6,4.1,3.5
			c0.1-0.2-1.8-1.9-3.6-4.3c-0.2-0.3-0.5-0.6-0.7-1c-0.1-0.2-0.2-0.5-0.4-0.9c-0.3-0.7-0.8-1.5-1.3-2.4c0.5,0.6,1.1,1.1,1.2,1
			c0.1-0.1-0.5-0.6-0.9-1.3c-0.5-0.7-0.9-1.5-1-1.9c-0.2-0.3-0.5-1.1-0.7-2c0,0,0,0,0-0.1c0.5,0.5,1.6,1.6,2.7,2.3
			c0.7,0.5,1.3,0.8,1.8,1c0.4,0.3,0.7,0.4,0.7,0.3c0,0,0-0.1-0.1-0.2c0-0.1-0.3-0.4-0.7-0.8c-0.5-0.6-1.3-1.3-1.9-2.2
			c-0.4-0.4-0.7-0.9-1-1.3c-0.2-0.2-0.3-0.5-0.5-0.7c-0.1-0.2-0.3-0.4-0.4-0.7c-0.5-0.9-0.9-1.6-1.2-2c-0.1-0.2-0.3-0.5-0.4-0.8
			c-0.2-0.3-0.4-0.8-0.6-1.2c-0.4-0.9-0.9-2-1.2-3.1c-0.1-0.4-0.2-0.7-0.3-1.1c0.1,0.2,0.1,0.4,0.2,0.6c0.2,0.4,0.3,0.8,0.5,1.1
			c0.2,0.3,0.3,0.6,0.4,0.7c0.1,0.2,0.2,0.4,0.4,0.6c0.1,0.3,0.2,0.5,0.3,0.7c0.1,0.3,0.6,1.2,1.1,2c0.5,0.8,0.9,1.4,1,1.3
			c0.1-0.1-0.3-0.8-0.7-1.6c0-0.1-0.1-0.1-0.1-0.2c0.3,0.3,0.6,0.7,0.9,1c0.7,0.7,1.4,1.2,1.9,1.5c0.5,0.3,0.9,0.5,1,0.4
			c0-0.1-0.2-0.4-0.7-0.8c-0.4-0.5-1-1.1-1.6-1.8c-0.3-0.3-0.6-0.7-0.8-1.1c-0.3-0.4-0.5-0.7-0.7-1.1c-0.4-0.7-0.8-1.3-1-1.6
			c-0.1-0.2-0.2-0.4-0.4-0.7c-0.1-0.3-0.3-0.6-0.5-1c-0.1-0.2-0.2-0.5-0.3-0.8c0.5,0.4,0.9,0.6,1,0.5c0-0.1-0.3-0.4-0.7-0.9
			c-0.3-0.3-0.6-0.8-0.8-1c0-0.1-0.1-0.3-0.1-0.4c-0.2-0.4-0.3-0.9-0.4-1.3c-0.1-0.4-0.2-0.8-0.3-1.1c-0.1-0.4-0.2-0.7-0.2-0.8
			c-0.1-0.2-0.1-0.5-0.2-0.5c-0.1,0-0.1,0.2-0.2,0.3c-0.1,0.2-0.2,0.5-0.3,0.9c-0.1,0.3-0.2,0.7-0.3,1.1c-0.1,0.2-0.1,0.4-0.2,0.7
			c-0.2,0.4-0.5,0.8-0.6,1c-0.1,0.2-0.6,0.9-1,1.4c-0.4,0.5-0.9,0.9-0.8,1c0,0.1,0.6-0.2,1.1-0.7c0.2-0.2,0.4-0.4,0.6-0.6
			c-0.1,0.4-0.3,0.7-0.4,1c-0.2,0.4-0.3,0.7-0.5,1c-0.1,0.3-0.3,0.5-0.4,0.7c-0.2,0.3-0.5,0.9-0.9,1.6c-0.2,0.4-0.5,0.7-0.7,1.1
			c-0.3,0.4-0.5,0.7-0.8,1.1c-0.6,0.7-1.2,1.3-1.6,1.8c-0.5,0.4-0.7,0.7-0.7,0.8c0,0.1,0.4-0.1,1-0.4c0.5-0.3,1.2-0.9,1.9-1.5
			c0.3-0.3,0.7-0.7,1-1c-0.4,0.7-0.7,1.4-0.6,1.5c0.1,0.1,0.5-0.5,1-1.2c0.5-0.7,0.9-1.6,1-1.9c0.1-0.1,0.1-0.3,0.2-0.6
			c0.1-0.2,0.3-0.4,0.3-0.6c0.1-0.2,0.2-0.4,0.4-0.7c0.1-0.3,0.3-0.7,0.5-1.1c0.1-0.2,0.1-0.4,0.2-0.6c-0.1,0.4-0.2,0.7-0.3,1.1
			c-0.3,1.1-0.8,2.2-1.2,3.1c-0.2,0.5-0.4,0.9-0.6,1.2c-0.2,0.3-0.3,0.6-0.4,0.8c-0.2,0.4-0.6,1.2-1.2,2c-0.1,0.2-0.3,0.4-0.4,0.7
			c-0.2,0.2-0.3,0.5-0.5,0.7c-0.3,0.4-0.7,0.9-1,1.3c-0.7,0.9-1.4,1.6-1.9,2.2c-0.5,0.4-0.8,0.7-0.7,0.8c-0.1,0.1-0.1,0.2-0.1,0.2
			c0,0.1,1.9-0.9,2.6-1.3c1.2-0.8,2.4-2,2.8-2.4c0-0.1,0.1-0.1,0.2-0.2c-0.1,0.1-0.1,0.2-0.2,0.3c-0.4,0.6-0.8,1.3-1,1.5
			c-0.2,0.3-0.6,0.9-1.1,1.5c-0.4,0.6-0.9,1.1-0.8,1.2c0.1,0.1,0.6-0.3,1.1-0.9c0.3-0.3,0.6-0.7,0.8-1c-0.2,0.5-0.6,1.1-1,1.7
			c-0.5,0.8-1.1,1.5-1,1.5c0.1,0.1,0.7-0.4,1.3-1.2c-0.4,0.8-0.8,1.6-1.1,2.1c-0.2,0.4-0.3,0.6-0.4,0.9c-0.2,0.3-0.5,0.7-0.7,1
			c-0.4,0.5-0.8,1-1.1,1.4c-0.1,0.1-0.2,0.2-0.3,0.4c-1.2,1.4-2.2,2.3-2.1,2.5c0.1,0.1,3.7-2.9,3.9-3.1c1-0.7,2-1.5,2.3-1.9
			c0.2-0.2,0.5-0.5,0.8-0.9c-0.1,0.1-0.1,0.2-0.2,0.4c-0.4,0.8-0.8,1.5-1,1.8c-0.2,0.3-0.7,1.1-1.2,1.8c-0.5,0.7-1,1.2-0.9,1.3
			c0.1,0.1,0.7-0.4,1.2-1c0.3-0.3,0.5-0.6,0.7-0.8c-0.1,0.2-0.3,0.4-0.4,0.6c-0.7,1.1-1.6,2.3-2.5,3.5c-0.5,0.6-0.9,1.1-1.3,1.6
			c-0.1,0.2-2.4,2.2-2.4,2.3c0,0.1,0.7,0,1.5-0.6c0.2-0.1,1.4-0.9,1.8-1.2c1.3-0.9,2.7-2,3.2-2.5c0.5-0.4,1.6-1.6,2.6-2.7
			c0,0.1-0.1,0.3-0.1,0.4c-0.2,0.4-0.5,0.8-0.6,1c-0.1,0.2-0.4,0.6-0.7,0.9c-0.3,0.4-0.6,0.7-0.5,0.8c0.1,0.1,0.4-0.1,0.8-0.4
			c0.1-0.1,0.2-0.1,0.3-0.2c-0.2,0.4-0.6,1.1-0.9,1.6c-0.5,0.7-1,1.3-0.9,1.4c0,0.1,0.5-0.3,1-0.8c-0.5,0.9-1,1.9-1.6,2.8
			c-0.1,0.2-0.3,0.4-0.4,0.7c-0.6,0.9-1.3,1.8-2,2.6c-1.1,1.2-2.2,2.2-3,2.9c-0.9,0.7-1.4,1.1-1.4,1.2c0,0.1,0.7-0.2,1.6-0.7
			c0.3-0.2,1.5-0.8,1.9-1.1c0.6-0.3,1.4-0.9,2.2-1.6c1.2-0.9,2.3-2,2.7-2.4c0.2-0.3,0.7-0.7,1.2-1.3c0.2-0.2,0.4-0.5,0.6-0.8
			c-0.1,0.3-0.2,0.6-0.4,0.8c-0.2,0.5-0.5,0.9-0.7,1.4c-0.2,0.4-0.4,0.7-0.6,0.9c-0.2,0.4-0.9,1.3-1.5,2.1c-0.7,0.8-1.4,1.4-1.3,1.5
			c0,0.1,0.8-0.4,1.6-1.1c0.1-0.1,0.2-0.2,0.3-0.3c-0.2,0.3-0.4,0.6-0.5,0.8c-0.2,0.4-0.7,1.1-1.3,2c-0.6,0.9-1.3,1.8-2,2.7
			c-0.7,0.9-1.4,1.7-1.9,2.3c-0.2,0.2-0.3,0.3-0.4,0.5c-0.2,0.2-0.5,0.4-0.6,0.5c-0.8,0.6-1.3,1-1.2,1.1c0,0.1,0.6-0.1,1.5-0.6
			c0.4-0.3,0.9-0.5,1.4-0.9c0.5-0.4,1.1-0.8,1.6-1.2c0.6-0.4,1.1-1,1.6-1.5c0.3-0.2,0.5-0.5,0.7-0.8c0,0,0.1-0.1,0.1-0.1
			c0.4-0.3,0.7-0.6,0.8-0.7c0.4-0.4,1.5-1.5,2.4-2.6c-0.1,0.3-0.3,0.7-0.5,1.1c-0.2,0.5-0.5,1.1-0.8,1.5c-0.3,0.5-0.5,0.8-0.6,1
			c-0.3,0.4-1,1.5-1.7,2.3c-0.8,0.9-1.5,1.5-1.5,1.6c0,0.1,0.9-0.4,1.7-1.2c-0.8,1.1-1.4,2-1.8,2.4c-0.3,0.4-0.9,1.2-1.6,2
			c-0.3,0.4-0.7,0.9-1.1,1.3c-0.4,0.5-0.8,0.9-1.2,1.4c-1.4,1.5-2.9,2.6-3.3,3c-0.1,0-0.1,0.1-0.2,0.1c-0.9,0.6-1.6,1-1.5,1.1
			c0,0.1,0.7-0.2,1.7-0.6c0.5-0.3,1.1-0.6,1.7-1c0.6-0.3,1.1-0.7,1.7-1.2c0.2-0.1,0.5-0.3,0.7-0.4c0.9-0.5,1.7-1.1,2.5-1.6
			c0.7-0.5,1.3-1,1.7-1.3c0.4-0.3,1.1-1,2-1.8c0.2-0.2,0.4-0.3,0.5-0.4c0.2-0.1,0.4-0.4,0.8-0.7c-0.1,0.1-0.1,0.3-0.2,0.5
			c-0.3,0.7-0.7,1.4-0.9,1.7c-0.1,0.3-0.5,1-1,1.7c-0.4,0.7-0.8,1.2-0.8,1.3c0,0,0.2,0,0.3-0.2c0.2-0.1,0.4-0.2,0.6-0.5
			c0.4-0.3,0.8-0.8,0.9-0.9c0.1-0.2,0.4-0.6,0.6-1c0,0.2-0.1,0.3-0.1,0.4c-0.1,0.4-0.5,1.6-0.9,2.6c-0.4,1-0.9,1.9-0.7,2.1
			c0.1,0.1,1.5-0.9,2.1-1.3c1-0.7,2-1.6,2.4-2c0.1-0.1,0.2-0.3,0.4-0.5c0,0.1-0.1,0.1-0.1,0.2c-0.2,0.5-0.4,0.9-0.3,0.9
			c0.1,0.1,0.4-0.3,0.6-0.7c0.3-0.4,0.5-0.9,0.6-1.1c0-0.1,0.1-0.3,0.2-0.5c0,0.6,0,1.2,0,1.7c-0.1,3.8-0.2,7.6-0.2,8
			c0,0.8,0.6,1.1,1.3,1.1c0.7,0,1.2-0.3,1.2-1.1c0-0.4-0.2-4-0.5-7.7c0,0,0,0.1,0.1,0.1c0.3,0.4,0.6,0.7,0.7,0.6
			c0.1-0.1-0.2-0.4-0.3-0.9c-0.2-0.4-0.4-0.9-0.4-1.1c0,0,0,0,0,0c0.1,0.1,0.1,0.2,0.2,0.2c0.2,0.2,0.5,0.6,0.9,1.1
			c0.4,0.4,0.9,0.9,1.5,1.3c0.5,0.4,1.1,0.7,1.5,0.8c0.4,0.1,0.7,0.2,0.7,0.1c0-0.1-0.3-1-0.4-1.5c-0.1-0.6-0.3-1.3-0.3-1.6
			c0-0.1-0.1-0.3-0.1-0.5c0.1,0.1,0.2,0.2,0.4,0.3c0.2,0.2,1.1,0.9,1.2,0.9c0.1,0,0.1-0.5,0-0.7c-0.1-0.3-0.2-0.7-0.2-1.1
			c-0.1-0.6-0.2-1.2-0.2-1.7c0.1,0.3,0.4,0.8,0.8,1.1c0.4,0.4,0.8,0.7,0.9,0.6c0-0.1-0.2-0.3-0.4-0.7c-0.1-0.1-0.1-0.3-0.2-0.4
			c-0.2-0.5-0.3-1-0.4-1.2c0-0.1,0-0.2-0.1-0.3c0.6,0.7,1.3,1.6,2,2.3c0.6,0.6,1.1,1.1,1.6,1.5c0.2,0.2,0.4,0.4,0.6,0.6
			c0.6,0.5,1.3,1.1,2,1.6c0.7,0.5,1.3,0.9,2,1.3c0.6,0.4,1.2,0.7,1.7,1c1,0.5,1.7,0.7,1.7,0.6C547.3,782.7,546.8,782.4,546,781.8z
			 M529.3,725.1L529.3,725.1C529.3,725.1,529.3,725.1,529.3,725.1C529.3,725.1,529.3,725.1,529.3,725.1
			C529.3,725.1,529.3,725.1,529.3,725.1z"/>
	</g>
	<g>
		<path class="st0" d="M331.4,793.1c0,0.1,0.9-0.2,2.2-0.8c0.6-0.3,1.4-0.7,2.2-1.2c0.8-0.5,1.6-1,2.5-1.7c0.9-0.6,1.7-1.3,2.5-2
			c0.3-0.2,0.5-0.5,0.8-0.7c0.6-0.5,1.3-1.2,2-1.9c0.9-0.9,1.8-2,2.5-3c0,0.2-0.1,0.3-0.1,0.4c-0.1,0.3-0.2,1-0.5,1.6
			c-0.1,0.2-0.2,0.4-0.2,0.6c-0.3,0.5-0.6,0.8-0.5,0.9c0.1,0.1,0.6-0.2,1.1-0.7c0.4-0.5,0.8-1.1,1-1.4c0,0.6-0.1,1.4-0.3,2.1
			c-0.1,0.5-0.2,1-0.3,1.4c-0.1,0.2-0.1,0.8,0,0.8c0.1,0.1,1.2-0.8,1.5-1.1c0.2-0.1,0.3-0.3,0.5-0.4c-0.1,0.3-0.1,0.5-0.2,0.6
			c-0.1,0.3-0.2,1.2-0.4,2.1c-0.1,0.6-0.5,1.8-0.5,1.9c0,0.1,0.4,0.1,0.9-0.1c0.5-0.2,1.2-0.6,1.8-1.1c0.7-0.5,1.3-1.1,1.8-1.6
			c0.5-0.6,0.9-1.1,1.1-1.4c0.1-0.1,0.1-0.2,0.2-0.3c0,0,0,0,0,0c-0.1,0.2-0.3,0.8-0.5,1.4c-0.2,0.5-0.5,1-0.4,1.1
			c0.1,0.1,0.5-0.2,0.9-0.8c0,0,0.1-0.1,0.1-0.1c-0.4,4.7-0.7,9.4-0.7,9.8c0,1,0.7,1.4,1.5,1.4c0.9,0,1.6-0.4,1.6-1.4
			c0-0.5-0.1-5.4-0.2-10.3c0-0.8,0-1.5-0.1-2.2c0.1,0.3,0.2,0.6,0.2,0.7c0.1,0.2,0.4,0.9,0.7,1.5c0.3,0.5,0.7,1,0.8,0.9
			c0.1-0.1-0.1-0.6-0.4-1.2c0-0.1-0.1-0.2-0.1-0.3c0.2,0.3,0.4,0.5,0.5,0.6c0.4,0.5,1.7,1.7,3,2.6c0.8,0.6,2.6,1.7,2.7,1.7
			c0.2-0.2-0.4-1.3-0.9-2.7c-0.5-1.3-1-2.8-1.1-3.4c0-0.1-0.1-0.3-0.1-0.5c0.3,0.6,0.6,1.1,0.7,1.3c0.2,0.2,0.6,0.8,1.1,1.2
			c0.3,0.3,0.6,0.5,0.8,0.6c0.2,0.2,0.4,0.3,0.4,0.2c0.1-0.1-0.5-0.8-1-1.6c-0.5-0.8-1-1.8-1.2-2.1c-0.2-0.4-0.7-1.3-1.1-2.2
			c-0.1-0.2-0.2-0.4-0.3-0.6c0.4,0.4,0.7,0.7,1,0.9c0.2,0.1,0.4,0.3,0.7,0.5c1.1,1.1,2,1.9,2.5,2.4c0.4,0.3,1.2,1,2.1,1.7
			c0.9,0.7,2,1.5,3.1,2.1c0.3,0.2,0.6,0.4,0.9,0.5c0.7,0.6,1.5,1,2.2,1.5c0.8,0.5,1.5,0.9,2.2,1.2c1.3,0.6,2.1,0.9,2.2,0.8
			c0-0.1-0.7-0.7-1.9-1.4c-0.1-0.1-0.2-0.1-0.2-0.2c-0.4-0.5-2.3-1.9-4.1-3.9c-0.5-0.6-1-1.2-1.5-1.8c-0.5-0.6-1-1.2-1.4-1.7
			c-0.9-1.1-1.6-2.1-2-2.6c-0.4-0.6-1.3-1.7-2.3-3.1c1,1,2.1,1.7,2.2,1.6c0.1-0.1-0.9-1-1.9-2.1c-1-1.1-1.9-2.5-2.2-3
			c-0.2-0.3-0.5-0.7-0.8-1.3c-0.3-0.6-0.7-1.3-1-2c-0.2-0.5-0.4-1-0.6-1.4c1.1,1.4,2.4,2.8,3,3.3c0.2,0.2,0.6,0.6,1.1,1
			c0,0,0.1,0.1,0.1,0.1c0.3,0.3,0.6,0.7,0.9,1c0.7,0.6,1.3,1.3,2,1.9c0.7,0.6,1.4,1.1,2,1.6c0.6,0.5,1.3,0.8,1.8,1.2
			c1.1,0.6,1.8,0.9,1.8,0.8c0.1-0.1-0.6-0.6-1.5-1.4c-0.2-0.2-0.5-0.4-0.8-0.7c-0.2-0.2-0.3-0.4-0.5-0.6c-0.6-0.8-1.5-1.8-2.4-3
			c-0.9-1.1-1.8-2.4-2.5-3.5c-0.7-1.1-1.3-2.1-1.6-2.6c-0.1-0.3-0.4-0.6-0.6-1c0.1,0.1,0.2,0.2,0.4,0.4c1,1,1.9,1.6,2,1.5
			c0.1-0.1-0.8-0.9-1.7-1.9c-0.9-1-1.7-2.2-1.9-2.7c-0.1-0.2-0.4-0.6-0.7-1.2c-0.3-0.5-0.6-1.1-0.9-1.7c-0.2-0.4-0.3-0.8-0.5-1.1
			c0.3,0.4,0.5,0.7,0.8,1c0.6,0.8,1.2,1.4,1.5,1.7c0.5,0.6,1.9,1.9,3.5,3.1c1,0.9,1.9,1.6,2.7,2c0.5,0.3,2,1.2,2.4,1.4
			c1.2,0.7,2,1,2.1,0.9c0.1-0.1-0.7-0.7-1.8-1.5c-1.1-0.9-2.5-2.2-3.8-3.7c-0.9-1-1.8-2.2-2.6-3.3c-0.2-0.3-0.4-0.5-0.5-0.8
			c-0.7-1.2-1.4-2.5-2-3.7c0.6,0.7,1.1,1.1,1.2,1c0.1-0.1-0.6-0.9-1.2-1.8c-0.5-0.7-0.9-1.6-1.2-2.1c0.1,0.1,0.2,0.2,0.3,0.3
			c0.5,0.4,1,0.6,1,0.5c0.1-0.1-0.3-0.5-0.7-1c-0.4-0.5-0.8-1-0.9-1.2c-0.1-0.2-0.5-0.7-0.7-1.2c-0.1-0.2-0.1-0.3-0.2-0.5
			c1.3,1.5,2.7,3,3.3,3.5c0.6,0.6,2.4,2,4.1,3.2c0.6,0.4,2.1,1.4,2.3,1.6c1,0.8,1.9,0.9,1.9,0.8c0-0.1-2.8-2.8-3-3
			c-0.6-0.6-1.1-1.3-1.7-2c-1.1-1.4-2.3-3-3.2-4.4c-0.2-0.3-0.3-0.6-0.5-0.8c0.3,0.4,0.6,0.7,0.9,1.1c0.7,0.8,1.5,1.4,1.5,1.3
			c0.1-0.1-0.6-0.8-1.2-1.7c-0.6-0.9-1.2-1.9-1.5-2.3c-0.2-0.4-0.8-1.4-1.3-2.3c-0.1-0.2-0.2-0.3-0.2-0.5c0.4,0.5,0.8,0.9,1,1.1
			c0.4,0.4,1.7,1.5,2.9,2.4c0.2,0.2,4.9,4.1,5,4c0.1-0.2-1.2-1.4-2.7-3.2c-0.1-0.1-0.2-0.3-0.4-0.5c-0.5-0.6-1-1.2-1.5-1.8
			c-0.3-0.4-0.6-0.8-0.9-1.2c-0.1-0.3-0.3-0.6-0.5-1.1c-0.4-0.7-0.9-1.7-1.4-2.7c0.8,0.9,1.6,1.6,1.6,1.5c0.1-0.1-0.6-0.9-1.3-2
			c-0.5-0.7-1-1.6-1.3-2.2c0.3,0.4,0.7,0.8,1.1,1.3c0.7,0.7,1.3,1.2,1.4,1.1c0.1-0.1-0.5-0.8-1-1.5c-0.6-0.8-1.2-1.7-1.4-2
			c-0.2-0.3-0.8-1.2-1.3-2c-0.1-0.2-0.2-0.3-0.3-0.4c0.1,0.1,0.2,0.2,0.2,0.3c0.5,0.6,2,2.1,3.5,3.1c0.8,0.6,3.2,1.8,3.2,1.7
			c0,0,0-0.1-0.1-0.3c0-0.2-0.4-0.5-0.9-1c-0.7-0.7-1.6-1.7-2.5-2.8c-0.5-0.5-0.9-1.1-1.3-1.7c-0.2-0.3-0.4-0.6-0.6-0.9
			c-0.2-0.3-0.4-0.6-0.5-0.8c-0.7-1.1-1.2-2.1-1.5-2.6c-0.1-0.3-0.3-0.6-0.6-1.1c-0.2-0.4-0.5-1-0.8-1.6c-0.5-1.2-1.1-2.6-1.5-4
			c-0.2-0.5-0.3-1-0.4-1.4c0.1,0.2,0.2,0.5,0.3,0.7c0.2,0.5,0.4,1,0.6,1.4c0.2,0.4,0.4,0.7,0.5,1c0.1,0.2,0.2,0.4,0.4,0.7
			c0.1,0.3,0.2,0.6,0.3,0.8c0.2,0.4,0.7,1.5,1.3,2.4c0.6,0.9,1.2,1.7,1.3,1.6c0.1-0.1-0.4-0.9-0.8-1.9c0.4,0.4,0.8,0.9,1.2,1.3
			c0.8,0.8,1.7,1.5,2.4,1.9c0.7,0.4,1.2,0.6,1.2,0.5c0.1-0.1-0.3-0.5-0.9-1.1c-0.6-0.6-1.3-1.4-2-2.3c-0.4-0.4-0.7-0.9-1.1-1.4
			c-0.3-0.5-0.7-0.9-0.9-1.4c-0.6-0.9-1-1.7-1.2-2.1c-0.1-0.2-0.3-0.5-0.5-0.9c-0.2-0.4-0.4-0.8-0.6-1.3c-0.2-0.4-0.4-0.9-0.5-1.3
			c0.2,0.3,0.5,0.5,0.8,0.8c0.7,0.6,1.3,1,1.4,0.9c0.1-0.1-0.5-0.6-1-1.3c-0.6-0.7-1.1-1.5-1.3-1.8c-0.1-0.2-0.4-0.7-0.7-1.3
			c-0.1-0.3-0.2-0.6-0.2-0.9c-0.1-0.5-0.2-1-0.3-1.4c-0.1-0.6-0.2-1-0.3-1.2c0-0.2-0.1-0.4-0.2-0.4c-0.1,0-0.2,0.3-0.3,0.6
			c-0.1,0.2-0.2,0.6-0.3,1.1c-0.1,0.4-0.2,0.9-0.3,1.4c-0.2,0.5-0.3,1.1-0.5,1.6c0,0.2-0.1,0.3-0.2,0.5c-0.2,0.3-0.6,0.8-1,1.3
			c-0.5,0.6-0.9,1-0.9,1.1c0,0.1,0.6-0.1,1.2-0.6c-0.1,0.3-0.3,0.7-0.4,1c-0.2,0.5-0.4,0.9-0.6,1.3c-0.2,0.4-0.3,0.7-0.5,0.9
			c-0.2,0.4-0.6,1.2-1.2,2.1c-0.3,0.5-0.6,0.9-0.9,1.4c-0.3,0.5-0.7,1-1.1,1.4c-0.7,0.9-1.5,1.7-2,2.3c-0.6,0.6-0.9,1-0.9,1.1
			c0.1,0.1,0.5-0.1,1.2-0.5c0.7-0.4,1.6-1.1,2.4-1.9c0.4-0.4,0.8-0.8,1.2-1.3c0,0.1-0.1,0.2-0.1,0.2c-0.5,1-0.9,1.9-0.9,2
			c0.1,0.1,0.7-0.7,1.3-1.7c0.6-1,1.2-2.1,1.3-2.5c0.1-0.2,0.2-0.5,0.4-0.9c0.2-0.3,0.4-0.6,0.5-0.8c0.1-0.2,0.3-0.6,0.5-1
			c0.2-0.4,0.4-0.9,0.6-1.4c0.1-0.2,0.2-0.5,0.3-0.7c-0.1,0.5-0.3,0.9-0.4,1.4c-0.4,1.4-1,2.8-1.5,4c-0.3,0.6-0.5,1.1-0.7,1.6
			c-0.2,0.4-0.4,0.8-0.6,1.1c-0.3,0.5-0.8,1.5-1.5,2.6c-0.2,0.3-0.4,0.6-0.5,0.8c-0.2,0.3-0.4,0.6-0.6,0.9c-0.4,0.6-0.8,1.2-1.3,1.7
			c-0.9,1.1-1.8,2.1-2.5,2.8c-0.6,0.5-1,0.9-0.9,1c-0.1,0.1-0.2,0.2-0.1,0.3c0,0.1,0.4-0.1,0.9-0.4c0.6-0.2,1.4-0.7,2.3-1.3
			c1.4-1,2.8-2.3,3.4-3c0,0,0,0.1,0,0.1c-0.3,1-0.8,2.1-0.9,2.5c-0.2,0.4-0.7,1.5-1.3,2.4c-0.6,0.9-1.2,1.6-1.1,1.7
			c0.1,0.1,0.8-0.4,1.5-1.3c-0.6,1.2-1.2,2.3-1.6,3.1c-0.2,0.5-0.4,0.8-0.5,1.1c-0.3,0.4-0.6,0.8-0.9,1.2c-2.2,3-4.7,5.2-4.5,5.5
			c0.1,0.2,2.7-1.6,5.1-4.5c0.2-0.2,0.5-0.3,0.8-0.5c1.3-0.9,2.5-2.2,2.9-2.7c0,0,0.1-0.1,0.1-0.2c0,0,0,0,0,0.1
			c-0.5,1.1-1.1,2.2-1.3,2.6c-0.2,0.4-0.9,1.6-1.6,2.5c-0.3,0.5-0.7,0.8-1,1.1c-0.3,0.3-0.5,0.5-0.4,0.5c0,0.1,0.3,0,0.6-0.2
			c0.3-0.2,0.8-0.6,1.2-1c0.4-0.4,0.7-0.8,1-1.2c0,0.1-0.1,0.2-0.1,0.3c-0.2,0.3-0.4,0.7-0.6,1c-0.9,1.4-2,3-3.2,4.4
			c-0.6,0.7-1.1,1.4-1.7,2c-0.5,0.6-1,1.1-1.4,1.6c-0.2,0.1-0.2,0.2-0.3,0.3c-0.8,0.7-1.3,1-1.3,1.2c0,0.1,0.8,0,1.9-0.8
			c0.5-0.4,1-0.8,1.6-1.3c0.1-0.1,0.3-0.2,0.4-0.3c0.2-0.2,0.5-0.4,0.8-0.6c1.2-0.6,4.6-3.2,5.5-3.9c0.2-0.2,0.5-0.4,0.8-0.8
			c-0.1,0.3-0.2,0.6-0.4,0.9c-0.3,0.7-0.6,1.3-0.9,1.9c-0.3,0.6-0.6,1-0.7,1.2c-0.2,0.2-0.4,0.7-0.8,1.2c-0.4,0.5-0.9,1-1.3,1.5
			c-1,1-1.9,1.8-1.8,1.9c0.1,0.1,1.1-0.5,2.1-1.4c0.5-0.4,1.1-1,1.5-1.5c0,0,0.1-0.1,0.1-0.1c0,0,0,0,0,0.1
			c-0.1,0.1-0.1,0.2-0.2,0.3c-0.5,0.7-1,1.5-1.2,1.8c-0.2,0.3-0.8,1.1-1.4,1.7c-0.6,0.6-1.2,1.2-1.1,1.3c0,0.1,0.6-0.2,1.3-0.7
			c-0.6,0.8-1.3,1.7-2,2.5c-1.3,1.5-2.7,2.8-3.8,3.7c-1.1,0.9-1.8,1.4-1.8,1.5c0,0.1,0.9-0.2,2.1-0.9c0.4-0.2,0.7-0.5,1.1-0.8
			c0,0,0.1,0,0.1,0c0.3-0.1,0.7-0.3,1.2-0.6c1-0.5,2.2-1.5,3.3-2.6c0.9-0.8,1.7-1.7,2.4-2.7c0.8-0.6,1.4-1.2,1.7-1.5
			c0.1-0.1,0.2-0.2,0.3-0.4c0,0.1-0.1,0.2-0.2,0.4c-0.1,0.2-0.2,0.5-0.3,0.8c-0.3,0.7-0.6,1.4-0.9,2.1c-0.2,0.4-0.4,0.7-0.5,0.9
			c-0.2,0.4-0.9,1.3-1.6,2.1c-0.7,0.8-1.4,1.3-1.4,1.4c0,0.1,0.8-0.2,1.6-0.9c-0.3,0.5-0.7,1-1.1,1.5c-0.5,0.6-1,1.1-1.4,1.5
			c-0.4,0.4-0.7,0.6-0.7,0.6c0,0.1,0.3-0.1,0.8-0.3c0.3-0.2,0.6-0.4,0.9-0.6c-0.1,0.1-0.1,0.2-0.2,0.2c-0.7,1.1-1.6,2.4-2.5,3.5
			c-0.9,1.2-1.8,2.2-2.4,3c-0.2,0.2-1.1,1.1-1.3,1.3c-1,0.7-1.6,1.3-1.5,1.4c0,0.1,0.8-0.2,1.8-0.8c0.5-0.3,1.1-0.7,1.8-1.2
			c0.6-0.5,1.4-1,2-1.6c0.7-0.6,1.4-1.2,2-1.9c0.3-0.3,0.6-0.7,0.9-1c0,0,0.1-0.1,0.1-0.1c0.5-0.4,0.9-0.7,1.1-1
			c0.1-0.1,0.3-0.3,0.5-0.5c0,0.1-0.1,0.2-0.2,0.4c-0.1,0.3-0.2,0.5-0.4,0.8c-0.2,0.3-0.3,0.6-0.5,1c-0.3,0.7-0.8,1.3-1.1,1.9
			c-0.2,0.3-0.4,0.5-0.5,0.7c-0.2,0.2-0.3,0.4-0.4,0.5c-0.4,0.5-1.4,1.7-2.6,2.6c-0.6,0.5-1.1,0.8-1.5,1.1c-0.4,0.3-0.7,0.5-0.7,0.5
			c0,0.1,0.3,0,0.8-0.2c0.5-0.2,1.1-0.5,1.7-0.9c0.9-0.6,1.7-1.4,2.3-2c-0.3,0.5-0.7,1.1-1,1.5c-0.7,1-1.4,1.9-1.8,2.3
			c-0.4,0.5-1,1.3-1.9,2.3c-0.8,1-1.9,2.1-2.8,3.2c-1,1-1.9,2-2.7,2.6c-0.1,0.1-0.2,0.2-0.4,0.3C332,792.5,331.4,793,331.4,793.1z
			 M354.1,719C354.1,719,354.1,719,354.1,719C354.1,719,354.1,718.9,354.1,719L354.1,719C354.1,718.9,354.1,719,354.1,719z"/>
	</g>
	<g>
		<path class="st0" d="M308.4,775.8c0,0.1,0.7-0.2,1.7-0.6c0.5-0.3,1.1-0.6,1.7-1c0.6-0.4,1.3-0.8,2-1.3c0.7-0.5,1.3-1,2-1.6
			c0.2-0.2,0.4-0.4,0.6-0.6c0.5-0.4,1.1-0.9,1.6-1.5c0.7-0.7,1.4-1.6,2-2.3c0,0.1-0.1,0.2-0.1,0.3c-0.1,0.2-0.2,0.7-0.4,1.2
			c-0.1,0.2-0.1,0.3-0.2,0.4c-0.2,0.4-0.5,0.6-0.4,0.7c0,0.1,0.5-0.2,0.9-0.6c0.4-0.4,0.7-0.9,0.8-1.1c0,0.4-0.1,1.1-0.2,1.7
			c-0.1,0.4-0.2,0.8-0.2,1.1c-0.1,0.2-0.1,0.6,0,0.7c0.1,0.1,0.9-0.6,1.2-0.9c0.1-0.1,0.2-0.2,0.4-0.3c-0.1,0.2-0.1,0.4-0.1,0.5
			c-0.1,0.3-0.2,1-0.3,1.6c-0.1,0.5-0.4,1.4-0.4,1.5c0,0.1,0.3,0,0.7-0.1c0.4-0.2,0.9-0.4,1.5-0.8c0.5-0.4,1-0.8,1.5-1.3
			c0.4-0.4,0.7-0.8,0.9-1.1c0-0.1,0.1-0.2,0.2-0.2c0,0,0,0,0,0c-0.1,0.2-0.2,0.7-0.4,1.1c-0.2,0.4-0.4,0.8-0.3,0.9
			c0.1,0.1,0.4-0.2,0.7-0.6c0,0,0-0.1,0.1-0.1c-0.3,3.6-0.5,7.3-0.5,7.7c0,0.8,0.5,1.1,1.2,1.1c0.7,0,1.2-0.3,1.3-1.1
			c0-0.4-0.1-4.2-0.2-8c0-0.6,0-1.2,0-1.7c0.1,0.2,0.1,0.4,0.2,0.5c0.1,0.2,0.3,0.7,0.6,1.1c0.3,0.4,0.6,0.7,0.6,0.7
			c0.1-0.1-0.1-0.5-0.3-0.9c0-0.1-0.1-0.1-0.1-0.2c0.2,0.2,0.3,0.4,0.4,0.5c0.3,0.4,1.4,1.3,2.4,2c0.6,0.4,2.1,1.4,2.1,1.3
			c0.1-0.1-0.3-1-0.7-2.1c-0.4-1-0.8-2.2-0.9-2.6c0-0.1-0.1-0.2-0.1-0.4c0.2,0.4,0.5,0.8,0.6,1c0.1,0.2,0.5,0.6,0.9,0.9
			c0.2,0.2,0.5,0.4,0.6,0.5c0.2,0.1,0.3,0.2,0.3,0.2c0.1-0.1-0.4-0.6-0.8-1.3c-0.4-0.6-0.8-1.4-1-1.7c-0.2-0.3-0.5-1-0.9-1.7
			c-0.1-0.2-0.1-0.3-0.2-0.5c0.3,0.3,0.6,0.5,0.8,0.7c0.1,0.1,0.3,0.3,0.5,0.4c0.9,0.8,1.6,1.5,2,1.8c0.3,0.3,0.9,0.8,1.7,1.3
			c0.7,0.5,1.6,1.1,2.5,1.6c0.2,0.1,0.5,0.3,0.7,0.4c0.6,0.4,1.2,0.8,1.7,1.2c0.6,0.4,1.2,0.7,1.7,1c1,0.5,1.7,0.7,1.7,0.6
			c0-0.1-0.6-0.5-1.5-1.1c-0.1,0-0.1-0.1-0.2-0.1c-0.3-0.4-1.8-1.5-3.3-3c-0.4-0.4-0.8-0.9-1.2-1.4c-0.4-0.5-0.8-0.9-1.1-1.3
			c-0.7-0.9-1.3-1.6-1.6-2c-0.4-0.5-1-1.3-1.8-2.4c0.8,0.8,1.7,1.3,1.7,1.2c0.1-0.1-0.7-0.8-1.5-1.6c-0.8-0.9-1.5-1.9-1.7-2.3
			c-0.1-0.2-0.4-0.6-0.6-1c-0.3-0.5-0.5-1-0.8-1.5c-0.2-0.4-0.3-0.7-0.5-1.1c0.9,1.1,1.9,2.2,2.4,2.6c0.2,0.2,0.5,0.4,0.8,0.7
			c0,0,0.1,0.1,0.1,0.1c0.2,0.2,0.5,0.5,0.7,0.8c0.5,0.5,1,1,1.6,1.5c0.5,0.5,1.1,0.9,1.6,1.2c0.5,0.4,1,0.6,1.4,0.9
			c0.9,0.5,1.4,0.7,1.5,0.6c0-0.1-0.4-0.5-1.2-1.1c-0.2-0.2-0.4-0.3-0.6-0.5c-0.1-0.1-0.3-0.3-0.4-0.5c-0.5-0.6-1.2-1.4-1.9-2.3
			c-0.7-0.9-1.4-1.9-2-2.7c-0.6-0.9-1-1.6-1.3-2c-0.1-0.2-0.3-0.5-0.5-0.8c0.1,0.1,0.2,0.2,0.3,0.3c0.8,0.7,1.5,1.2,1.6,1.1
			c0.1-0.1-0.6-0.7-1.3-1.5c-0.7-0.8-1.3-1.7-1.5-2.1c-0.1-0.2-0.3-0.5-0.6-0.9c-0.2-0.4-0.5-0.9-0.7-1.4c-0.1-0.3-0.3-0.6-0.4-0.8
			c0.2,0.3,0.4,0.6,0.6,0.8c0.5,0.6,0.9,1.1,1.2,1.3c0.4,0.4,1.5,1.5,2.7,2.4c0.8,0.7,1.5,1.2,2.2,1.6c0.4,0.2,1.6,0.9,1.9,1.1
			c0.9,0.6,1.6,0.8,1.6,0.7c0-0.1-0.5-0.5-1.4-1.2c-0.9-0.7-2-1.7-3-2.9c-0.7-0.8-1.4-1.7-2-2.6c-0.1-0.2-0.3-0.4-0.4-0.7
			c-0.6-0.9-1.1-1.9-1.6-2.8c0.5,0.5,0.9,0.9,1,0.8c0.1-0.1-0.4-0.7-0.9-1.4c-0.4-0.6-0.7-1.2-0.9-1.6c0.1,0.1,0.2,0.1,0.3,0.2
			c0.4,0.3,0.8,0.5,0.8,0.4c0.1-0.1-0.2-0.4-0.5-0.8c-0.3-0.4-0.6-0.8-0.7-0.9c-0.1-0.1-0.4-0.5-0.6-1c-0.1-0.1-0.1-0.3-0.1-0.4
			c1,1.2,2.2,2.3,2.6,2.7c0.5,0.4,1.9,1.6,3.2,2.5c0.4,0.3,1.7,1.1,1.8,1.2c0.8,0.6,1.5,0.7,1.5,0.6c0-0.1-2.2-2.2-2.4-2.3
			c-0.4-0.5-0.9-1-1.3-1.6c-0.9-1.1-1.8-2.4-2.5-3.5c-0.1-0.2-0.3-0.4-0.4-0.6c0.2,0.3,0.5,0.6,0.7,0.8c0.6,0.6,1.2,1.1,1.2,1
			c0.1-0.1-0.4-0.6-0.9-1.3c-0.5-0.7-1-1.5-1.2-1.8c-0.2-0.3-0.6-1.1-1-1.8c-0.1-0.1-0.1-0.2-0.2-0.4c0.3,0.4,0.7,0.7,0.8,0.9
			c0.3,0.3,1.3,1.2,2.3,1.9c0.2,0.1,3.9,3.2,3.9,3.1c0.1-0.1-0.9-1.1-2.1-2.5c-0.1-0.1-0.2-0.2-0.3-0.4c-0.4-0.4-0.8-0.9-1.1-1.4
			c-0.2-0.3-0.5-0.6-0.7-1c-0.1-0.2-0.2-0.5-0.4-0.9c-0.3-0.6-0.7-1.3-1.1-2.1c0.6,0.7,1.3,1.3,1.3,1.2c0.1-0.1-0.5-0.7-1-1.5
			c-0.4-0.6-0.8-1.2-1-1.7c0.2,0.3,0.5,0.7,0.8,1c0.5,0.5,1.1,0.9,1.1,0.9c0.1-0.1-0.4-0.6-0.8-1.2c-0.5-0.6-0.9-1.3-1.1-1.5
			c-0.2-0.2-0.6-0.9-1-1.5c-0.1-0.1-0.1-0.2-0.2-0.3c0.1,0.1,0.1,0.1,0.2,0.2c0.4,0.5,1.6,1.6,2.8,2.4c0.7,0.5,2.5,1.4,2.6,1.3
			c0,0,0-0.1-0.1-0.2c0-0.1-0.3-0.4-0.7-0.8c-0.5-0.6-1.3-1.3-1.9-2.2c-0.4-0.4-0.7-0.9-1-1.3c-0.2-0.2-0.3-0.5-0.5-0.7
			c-0.2-0.2-0.3-0.4-0.4-0.7c-0.5-0.9-0.9-1.6-1.2-2c-0.1-0.2-0.3-0.5-0.4-0.8c-0.2-0.3-0.4-0.8-0.6-1.2c-0.4-0.9-0.9-2-1.2-3.1
			c-0.1-0.4-0.2-0.7-0.3-1.1c0.1,0.2,0.1,0.4,0.2,0.6c0.2,0.4,0.3,0.8,0.5,1.1c0.2,0.3,0.3,0.6,0.4,0.7c0.1,0.1,0.2,0.3,0.3,0.6
			c0.1,0.3,0.2,0.5,0.2,0.6c0.1,0.3,0.6,1.2,1,1.9c0.4,0.7,0.9,1.3,1,1.2c0.1-0.1-0.3-0.7-0.6-1.5c0.3,0.3,0.6,0.7,1,1
			c0.7,0.7,1.4,1.2,1.9,1.5c0.5,0.3,0.9,0.5,1,0.4c0-0.1-0.2-0.4-0.7-0.8c-0.4-0.5-1-1.1-1.6-1.8c-0.3-0.3-0.6-0.7-0.8-1.1
			c-0.3-0.4-0.5-0.7-0.7-1.1c-0.4-0.7-0.8-1.3-0.9-1.6c-0.1-0.2-0.2-0.4-0.4-0.7c-0.1-0.3-0.3-0.6-0.5-1c-0.1-0.3-0.3-0.7-0.4-1
			c0.2,0.2,0.4,0.4,0.6,0.6c0.5,0.5,1.1,0.8,1.1,0.7c0.1-0.1-0.4-0.5-0.8-1c-0.4-0.5-0.8-1.2-1-1.4c-0.1-0.2-0.4-0.5-0.6-1
			c-0.1-0.2-0.1-0.5-0.2-0.7c-0.1-0.4-0.2-0.8-0.3-1.1c-0.1-0.5-0.2-0.8-0.3-0.9c0-0.2-0.1-0.3-0.2-0.3c-0.1,0-0.2,0.2-0.2,0.5
			c-0.1,0.2-0.1,0.5-0.2,0.8c-0.1,0.3-0.2,0.7-0.3,1.1c-0.1,0.4-0.2,0.8-0.4,1.3c0,0.1-0.1,0.3-0.1,0.4c-0.2,0.2-0.5,0.7-0.8,1
			c-0.4,0.4-0.7,0.8-0.7,0.9c0,0.1,0.5-0.1,1-0.5c-0.1,0.3-0.2,0.5-0.3,0.8c-0.2,0.4-0.3,0.7-0.5,1c-0.1,0.3-0.3,0.5-0.4,0.7
			c-0.2,0.3-0.5,0.9-1,1.6c-0.2,0.4-0.5,0.7-0.7,1.1c-0.3,0.4-0.5,0.7-0.8,1.1c-0.6,0.7-1.2,1.3-1.6,1.8c-0.5,0.4-0.7,0.7-0.7,0.8
			c0,0.1,0.4-0.1,1-0.4c0.5-0.3,1.2-0.9,1.9-1.5c0.3-0.3,0.6-0.7,0.9-1c0,0.1-0.1,0.1-0.1,0.2c-0.4,0.8-0.8,1.5-0.7,1.6
			c0.1,0.1,0.6-0.6,1-1.3c0.5-0.7,0.9-1.6,1.1-2c0.1-0.1,0.2-0.4,0.3-0.7c0.2-0.3,0.3-0.5,0.4-0.6c0.1-0.2,0.2-0.4,0.4-0.7
			c0.1-0.3,0.3-0.7,0.5-1.1c0.1-0.2,0.1-0.4,0.2-0.6c-0.1,0.4-0.2,0.7-0.3,1.1c-0.3,1.1-0.8,2.2-1.2,3.1c-0.2,0.5-0.4,0.9-0.6,1.2
			c-0.2,0.3-0.3,0.6-0.4,0.8c-0.2,0.4-0.6,1.2-1.2,2c-0.1,0.2-0.3,0.4-0.4,0.7c-0.2,0.2-0.3,0.5-0.5,0.7c-0.3,0.4-0.7,0.9-1,1.3
			c-0.7,0.9-1.4,1.6-1.9,2.2c-0.5,0.4-0.8,0.7-0.7,0.8c-0.1,0.1-0.1,0.2-0.1,0.2c0,0.1,0.3-0.1,0.7-0.3c0.5-0.2,1.1-0.5,1.8-1
			c1.1-0.7,2.2-1.8,2.7-2.3c0,0,0,0,0,0.1c-0.2,0.8-0.6,1.7-0.7,2c-0.1,0.3-0.5,1.2-1,1.9c-0.5,0.7-1,1.3-0.9,1.3
			c0.1,0.1,0.6-0.3,1.2-1c-0.5,0.9-0.9,1.8-1.3,2.4c-0.2,0.4-0.3,0.6-0.4,0.9c-0.2,0.3-0.5,0.7-0.7,1c-1.8,2.4-3.7,4.1-3.6,4.3
			c0.1,0.2,2.1-1.3,4.1-3.5c0.2-0.1,0.4-0.3,0.6-0.4c1-0.7,2-1.7,2.3-2.1c0,0,0.1-0.1,0.1-0.1c0,0,0,0,0,0c-0.4,0.8-0.9,1.7-1.1,2
			c-0.2,0.3-0.7,1.2-1.2,1.9c-0.3,0.4-0.6,0.7-0.8,0.9c-0.2,0.2-0.4,0.4-0.3,0.4c0,0,0.2,0,0.5-0.2c0.3-0.2,0.6-0.4,0.9-0.8
			c0.3-0.3,0.6-0.6,0.8-1c0,0.1-0.1,0.1-0.1,0.2c-0.2,0.2-0.3,0.5-0.5,0.8c-0.7,1.1-1.6,2.3-2.5,3.5c-0.5,0.6-0.9,1.1-1.3,1.6
			c-0.4,0.5-0.8,0.9-1.1,1.2c-0.1,0.1-0.2,0.2-0.2,0.2c-0.6,0.6-1.1,0.8-1,0.9c0,0.1,0.7,0,1.5-0.6c0.4-0.3,0.8-0.6,1.3-1
			c0.1-0.1,0.2-0.1,0.3-0.2c0.2-0.1,0.4-0.3,0.6-0.4c1-0.4,3.7-2.5,4.4-3.1c0.1-0.1,0.4-0.3,0.7-0.6c-0.1,0.2-0.2,0.5-0.3,0.7
			c-0.2,0.5-0.5,1-0.7,1.5c-0.2,0.4-0.4,0.8-0.6,1c-0.1,0.2-0.3,0.5-0.6,0.9c-0.3,0.4-0.7,0.8-1.1,1.2c-0.8,0.8-1.5,1.4-1.4,1.5
			c0,0.1,0.9-0.4,1.7-1.1c0.4-0.3,0.8-0.8,1.2-1.1c0,0,0.1-0.1,0.1-0.1c0,0,0,0,0,0c-0.1,0.1-0.1,0.2-0.2,0.3
			c-0.4,0.6-0.8,1.2-1,1.4c-0.2,0.2-0.6,0.8-1.1,1.3c-0.5,0.5-0.9,0.9-0.9,1c0,0.1,0.5-0.2,1-0.5c-0.5,0.7-1,1.3-1.6,1.9
			c-1.1,1.2-2.2,2.2-3,2.9c-0.9,0.7-1.4,1.1-1.4,1.2c0,0.1,0.7-0.2,1.6-0.7c0.3-0.2,0.6-0.4,0.9-0.6c0,0,0,0,0.1,0
			c0.2-0.1,0.5-0.2,0.9-0.5c0.8-0.4,1.7-1.1,2.6-2c0.7-0.6,1.3-1.4,1.9-2.1c0.6-0.5,1.1-0.9,1.4-1.2c0.1-0.1,0.2-0.2,0.3-0.3
			c0,0.1-0.1,0.2-0.1,0.3c-0.1,0.2-0.2,0.4-0.2,0.6c-0.2,0.6-0.5,1.1-0.7,1.6c-0.2,0.3-0.3,0.6-0.4,0.7c-0.2,0.3-0.7,1-1.2,1.6
			c-0.6,0.6-1.1,1-1.1,1.1c0,0.1,0.6-0.2,1.3-0.7c-0.3,0.4-0.5,0.8-0.8,1.1c-0.4,0.5-0.8,0.9-1.1,1.2c-0.3,0.3-0.5,0.5-0.5,0.5
			c0,0,0.3,0,0.6-0.3c0.2-0.1,0.4-0.3,0.7-0.5c0,0.1-0.1,0.1-0.1,0.2c-0.6,0.9-1.3,1.8-2,2.7c-0.7,0.9-1.4,1.7-1.9,2.3
			c-0.2,0.2-0.9,0.8-1.1,1c-0.8,0.6-1.3,1-1.2,1.1c0,0.1,0.6-0.1,1.5-0.6c0.4-0.3,0.9-0.5,1.4-0.9c0.5-0.4,1.1-0.8,1.6-1.2
			c0.6-0.4,1.1-1,1.6-1.5c0.3-0.2,0.5-0.5,0.7-0.8c0,0,0.1-0.1,0.1-0.1c0.4-0.3,0.7-0.6,0.8-0.7c0.1-0.1,0.2-0.2,0.4-0.4
			c0,0.1-0.1,0.2-0.1,0.3c-0.1,0.2-0.2,0.4-0.3,0.7c-0.1,0.2-0.2,0.5-0.4,0.8c-0.3,0.5-0.6,1-0.9,1.5c-0.2,0.2-0.3,0.4-0.4,0.6
			c-0.1,0.2-0.2,0.3-0.3,0.4c-0.3,0.4-1.1,1.4-2,2.1c-0.4,0.4-0.9,0.7-1.2,0.9c-0.3,0.2-0.6,0.4-0.5,0.4c0,0,0.3,0,0.6-0.2
			c0.4-0.2,0.9-0.4,1.3-0.7c0.7-0.5,1.4-1.1,1.8-1.5c-0.3,0.4-0.5,0.8-0.8,1.2c-0.6,0.8-1.1,1.5-1.4,1.8c-0.3,0.4-0.8,1-1.5,1.8
			c-0.7,0.8-1.5,1.6-2.2,2.5c-0.8,0.8-1.5,1.5-2.1,2c-0.1,0.1-0.2,0.2-0.3,0.2C308.9,775.4,308.3,775.7,308.4,775.8z M326.4,718.1
			C326.4,718.1,326.4,718.1,326.4,718.1C326.4,718.1,326.4,718.1,326.4,718.1L326.4,718.1C326.4,718.1,326.4,718.1,326.4,718.1z"/>
	</g>
	<g>
		<path class="st0" d="M456.3,774.9v4.5h2.5v-4.5H456.3z M456.3,774.9v4.5h2.5v-4.5H456.3z M457.4,723.2v-21.5h2.4v-3.9h-13.2v3.9
			h2.6v11.4l-19.7-24.2L380.6,749h8.9v69.4h80.1V749h8.9L457.4,723.2z M429.5,720.2l5.4,6.9h-10.8L429.5,720.2z M410.8,791.6h-9.9
			v-9.9h9.9V791.6z M410.8,779.1h-9.9v-9.8h9.9V779.1z M423.3,791.6h-9.9v-9.9h9.9V791.6z M423.3,779.1h-9.9v-9.8h9.9V779.1z
			 M417,736.3l5.4-6.9l5.4,6.9H417z M423.3,728.3h12.5l-6.2,8L423.3,728.3z M436.6,729.3l5.4,6.9h-10.8L436.6,729.3z M447.3,792.1
			h-9.9v-9.9h9.9V792.1z M447.3,780.5h-9.9v-9.8h9.9V780.5z M447.3,768.5h-9.8c0,0-0.3-5.5,3.2-9c3-3,6.6-3.5,6.6-3.5V768.5z
			 M459.8,792.1H450v-9.9h9.9V792.1z M459.8,780.5H450v-9.8h9.9V780.5z M459.8,768.5H450v-12.6c0,0,3.7,0.6,6.6,3.5
			C460.1,763,459.8,768.5,459.8,768.5z M458.8,774.9h-2.5v4.5h2.5V774.9z"/>
		<g>
			<rect x="456.3" y="774.9" class="st0" width="2.5" height="4.5"/>
		</g>
		<rect x="456.3" y="774.9" class="st0" width="2.5" height="4.5"/>
	</g>
</g>
</svg>
