<?xml version="1.0" encoding="utf-8"?>
<!-- Generator: Adobe Illustrator 27.6.1, SVG Export Plug-In . SVG Version: 6.00 Build 0)  -->
<svg version="1.1" id="OBJECT" xmlns="http://www.w3.org/2000/svg" xmlns:xlink="http://www.w3.org/1999/xlink" x="0px" y="0px"
	 viewBox="0 0 500 500" enable-background="new 0 0 500 500" xml:space="preserve">
<g>
	<g>
		<g>
			<path fill="#DB1A21" d="M224.904,107.791c-0.788,0.059-1.41,0.71-1.41,1.513c0,0.842,0.682,1.524,1.524,1.524
				s1.524-0.682,1.524-1.524c0-0.242-0.062-0.467-0.162-0.67l-1.363-0.681L224.904,107.791z"/>
		</g>
		<g>
			<path fill="#FDBF90" d="M226.226,101.395c-0.259,0-2.675,4.486-2.675,4.486l1.353,1.91l0.114,0.161l1.363,0.681l1.226,0.613
				l2.847-2.243l-1.035-1.467C229.418,105.536,226.485,101.395,226.226,101.395z"/>
		</g>
		<g>
			<path fill="#FDBF90" d="M263.255,93.552c-0.404,0-8.32,0.081-9.127,0.889c-0.808,0.808,0.404,10.824,0.485,11.227
				c0.081,0.404,10.276-0.9,10.276-0.9l1.869-10.286l0.052-0.284C266.809,94.199,263.659,93.552,263.255,93.552z"/>
		</g>
	</g>
	<g>
		<g id="XMLID_1_">
			<g>
				<path d="M266.521,92.639c-0.767,0.086-1.601,0.067-2.492-0.077c-4.505-0.7-8.474-4.39-9.749-8.752
					c-0.268,0.776-0.642,1.534-1.141,2.243c-2.109,3.039-5.253,4.323-8.771,4.505c-1.208,0.422-2.473,0.527-3.796,0.431
					c-1.237-0.086-2.291,0.029-3.25,0.316c-1.524,0.901-2.79,2.023-3.681,3.786c-0.422,0.834-0.738,1.697-1.074,2.55
					c-0.096,0.834-0.451,1.61-0.776,2.425c-0.163,0.403-0.336,0.805-0.508,1.198c-0.249,0.7-0.489,1.4-0.834,2.051
					c-0.144,0.355-0.288,0.709-0.422,1.074c-0.048,0.134-0.249,0.182-0.326,0.038c-0.997-1.716-1.86-3.432-2.924-5.081
					c-0.786-0.757-1.687-1.428-2.454-1.495c-0.393-0.038-0.7,0.077-0.987,0.364c-2.023,2.023-2.972,5.723-2.109,8.253
					c0.422,1.227,1.16,2.243,2.099,3c0-0.029-0.01-0.058-0.01-0.086c0-0.978,0.796-1.764,1.764-1.764
					c0.489,0,0.93,0.192,1.256,0.518c0.316,0.316,0.518,0.757,0.518,1.246c0,0.585-0.288,1.093-0.719,1.419
					c0.431,0.086,0.882,0.153,1.352,0.153h0.355l0.105,0.345c0.019,0.058,0.7,2.425,1.553,5.291c0.968,3.24,2.138,7.103,2.761,8.915
					c2.866,1.438,6.595,3.614,10.784,6.806c8.992,6.864,24.559,14.762,26.85,13.612c0.096-0.048,0.134-0.086,0.134-0.23
					c0-2.483-9.365-10.851-15.663-15.874l-0.105-0.086c-0.767,0.422-1.63,0.757-2.579,0.834c-0.144,0.01-0.278,0.01-0.431,0.01
					c-0.096,0-0.211-0.01-0.307-0.019c0.412,0.441,0.776,0.987,1.189,1.361c1.093,0.987,2.473,1.62,3.959,1.639
					c0.077,0.01,0.086,0.105,0.019,0.125c-1.313,0.451-2.674,0.153-3.815-0.604c-0.824-0.546-2.186-1.572-2.492-2.646
					c-2.636-0.441-6.135-1.888-8.742-3.317c-5.215-2.857-10.267-9.902-10.775-10.631c0.527,0.594,6.288,7.074,11.235,9.787
					c3.278,1.802,7.793,3.528,10.084,3.336c2.023-0.163,3.662-1.697,4.467-2.598c3.393-3.815,5.128-7.467,6.806-11.005
					c0.412-0.882,0.834-1.754,1.275-2.646c1.716-3.432,1.131-6.509,0.844-7.995c-0.048-0.24-0.086-0.441-0.105-0.604
					c-0.067-0.431-0.067-0.863,0-1.275l0.173-1.169c-0.451,0.374-1.045,0.767-1.86,1.131l1.419-1.419c0,0-1.62-1.304-3.461-1.428
					c0.115,0.297,0.182,0.642,0.182,0.997c0.019,1.208-0.642,2.224-1.534,2.454c-0.431-0.058-0.911-0.163-1.419-0.345
					c-0.335-0.278-0.594-0.7-0.738-1.189c-0.144,0.22-0.278,0.451-0.403,0.709c0,0,1.447-5.972,7.937-2.08l0.057-0.01l0.69-4.611
					c-0.268-0.451-0.661-0.882-1.285-1.045c-1.486-0.393-5.033,1.927-5.521,1.793c-0.422-0.105-0.633-0.393-0.681-0.46
					c-0.01-0.01-0.01-0.019-0.01-0.019s4.438-2.674,6.087-2.243c0.738,0.192,1.189,0.882,1.467,1.572L266.521,92.639z
					 M266.521,92.63c0.403-0.038,0.786-0.115,1.15-0.211l-1.419,8.455l0.038-0.01c0,0-0.019,0.048-0.057,0.125l-0.393,2.646
					c-0.048,0.316-0.048,0.652,0,0.997c0.019,0.153,0.058,0.336,0.096,0.556c0.307,1.591,0.939,4.889-0.93,8.608
					c-0.431,0.872-0.844,1.745-1.265,2.627c1.045,1.505,7.007,10.334,10.142,18.501c0.019,0.029,2.646,5.799,6.327,7.611
					c0.01,0,0.01,0,0.01,0c0.796,0.393,1.591,0.786,2.377,1.169c7.88,3.854,15.328,7.487,13.861,18.146
					c-1.275,9.308-7.64,25.288-8.292,26.898c0.144,0.815,0.642,4.141-0.69,5.474c-0.863,0.853-2.425,1.84-3.441,2.444
					c13.459,4.294,15.596,15.328,15.615,15.443l0.096,0.508l-0.518,0.058c-0.249,0.019-6.288,0.642-13.919-4.074
					c-0.681-0.412-1.313-0.853-1.917-1.294c-0.163,11.34-3.278,20.773-3.969,22.719c0.249,0.192,0.537,0.498,0.633,0.959
					c0.057,0.297,0.01,0.604-0.125,0.92c0.048-0.019,0.086-0.038,0.125-0.058c0.086-0.038,0.201,0.019,0.22,0.105l6.423-0.93
					c0.019-0.518,0.173-1.332,0.834-1.994c0.709-0.719,4.036-0.796,5.435-0.796c1.285,0,4.227,0.067,5.224,0.642
					c2.483-0.125,34.279-1.505,51.994,6.605c18.185,8.33,14.158,19.124,11.752,25.566l-0.278,0.748
					c-1.505,4.064-21.137,22.048-38.468,37.912c-10.966,10.046-20.437,18.712-21.99,20.869c-3.71,5.167-9.931,13.813-11.302,21.549
					c-0.642,3.595-2.061,6.653-3.422,8.934c0,2.847-0.47,11.35-6.193,13.066c-6.451,1.936-9.413-19.44-8.656-28.393
					c-10.765,24.923-24.195,54.16-25.709,57.353c-2.262,4.745-4.505,13.257-8.589,28.691l-0.115,0.451
					c-3.23,12.222-8.637,21.741-10.832,25.307c-0.479,4.87,2.636,11.973-3.039,15.29c-6.212,3.623-10.698-5.176-12.941-13.114
					c-2.243-7.937-1.035-15.529,2.761-25.192c3.796-9.663,1.553-10.391,1.553-10.391l-3.623,2.109l-0.69-3.278
					c0,0,2.243-1.898,3.106-4.659s1.035-5.176,3.921-10.525c2.234-4.141,5.33-5.282,6.624-5.589
					c0.105-0.182,0.173-0.307,0.192-0.345l0.077-0.096l4.486-4.486c4.007-4.007,6.308-17.638,6.308-37.395
					c0-18.501,0.278-28.739,6.25-41.392c0.527-1.112,1.074-2.138,1.63-3.115c-8.752-3.269-26.448-16.037-28.269-17.36h-0.297
					c-1.074,0.489-2.387,0.47-3.489,0h-0.652c-2.368,0-3.796-1.802-4.841-3.115c-0.278-0.355-0.556-0.7-0.796-0.939
					c-1.093-1.093-0.671-2.933-0.441-3.662c-14.331-14.532-17.744-38.88-7.429-53.317c9.538-13.363,21.588-17.025,23.495-17.533
					c1.035-2.607,3.614-2.933,5.052-2.713c0.776-0.642,4.16-3.499,7.851-7.199c3.719-3.71,3.796-10.525,3.786-11.714
					c-1.505-1.16-2.732-2.272-3.671-3.221l-0.134-0.144c-1.237-1.237-0.757-3.087-0.374-4.055c-0.518-0.69-1.007-1.409-1.467-2.157
					c-2.195-2.722-3.988-5.742-4.362-6.384c-1.007-0.575-1.879-1.179-2.655-1.793c-0.192-0.144-0.383-0.297-0.566-0.46
					c-4.218-3.585-4.994-7.391-5.138-8.474c-3.345-3.537-8.167-9.413-11.283-16.622c-4.927-11.378-7.391-36.752-7.611-39.187
					c-1.169-1.074-9.193-8.637-15.155-20.025c-5.771-11.033-22.546-33.139-25.671-37.232c-0.642,1.428-2.003,4.017-3.576,4.017
					c-0.585,0-0.757,0.134-1.093,0.403c-0.518,0.412-1.227,0.968-3.441,1.313c-3.106,0.489-4.381,0.029-4.822-0.22
					c-2.387-0.038-3.652-0.911-4.064-1.275c-1.86-0.086-2.924-1.447-3.24-1.917c-0.518-0.211-2.023-0.978-2.665-2.885
					c-0.748-2.243,5.713-8.857,7.017-10.151l0.345-0.345l0.336,0.345c0.978,0.968,0.489,2.933-0.019,4.275
					c5.608-3.01,11.609-4.419,18.779-4.419c6.442,0,20.313,14.868,32.544,27.991c3.959,4.247,7.697,8.263,10.928,11.494
					c5.445,5.435,8.762,10.861,10.794,15.347c-0.345-3.173,0.316-6.633,1.352-9.126c0.69-1.668,1.639-3.173,2.77-4.496
					c-0.259-0.019-0.508-0.105-0.738-0.249c-0.671,0.038-1.342-0.077-1.975-0.336c-4.132-1.285-6.135-6.911-3.767-10.976
					c0.125-0.22,0.259-0.422,0.393-0.613l-0.153,0.077l-8.263-16.085c-0.46-0.901-1.4-1.4-2.387-1.285
					c-4.055,0.451-9.126,0.987-10.19,0.987c-1.543,0-3.461-1.352-3.863-1.649c-1.965-0.47-3.317-1.486-3.384-1.534l-0.575-0.441
					l1.304-0.93c-0.307-0.911-0.853-3.067,0.259-4.179c1.179-1.179,6.403-4.381,6.624-4.525l0.47-0.278l0.268,0.47
					c0.029,0.048,0.345,0.585,0.546,1.323l2.646-1.831c0,0,0.604,1.093,0.326,1.975c2.895-1.217,6.681-2.32,9.538-1.371
					c4.726,1.572,15.884,15.117,17.907,17.6c3.23-1.697,7.065-2.444,10.276-2.042c5.991,0.757,14.091,7.669,8.905,13.785
					c0.019,0.019,0.048,0.029,0.067,0.048c0.978,0.796,1.524,2.866,1.026,4.132c5.272-2.866,11.973-3.748,17.533-1.285
					c5.617,2.492,8.522,8.397,9.097,14.321c0.201,2.051-0.115,3.94-0.882,5.464c0.029,0.029,0.048,0.077,0.019,0.125
					c-0.268,0.527-0.613,0.978-1.016,1.361c-0.815,0.93-1.879,1.61-3.163,1.965l0.105-0.642L266.521,92.63z M231.024,99.273
					c0.844-2.205,1.054-4.63,2.253-6.787c1.419-2.579,3.873-4.4,6.154-6.173c0.058-0.048,0.134,0.029,0.077,0.086
					c-1.313,1.294-2.55,2.607-3.614,4.036c0.585-0.383,1.227-0.719,1.85-1.035c2.77-1.4,4.879-2.847,6.547-5.55
					c0.01-0.01,0.029,0,0.019,0.01c-0.959,2.674-2.924,4.17-5.071,5.502c1.16-0.422,2.358-0.776,3.48-1.227
					c3.278-1.639,5.148-5.426,4.199-9.087c-0.029-0.086,0.096-0.115,0.125-0.038c0.997,2.713,0.642,4.87-0.489,6.576
					c-0.374,0.719-0.882,1.256-1.515,1.687c-1.447,1.246-3.365,2.176-5.33,2.866c0.163,0.01,0.316-0.01,0.498,0.01
					c5.033,0.422,9.433-3.096,9.145-8.407c0-0.125,0.173-0.115,0.182,0c0.326,3.096-0.633,5.962-3.135,7.745
					c5.627-2.377,9.155-8.675,6.471-14.724c-0.029-0.058,0.058-0.115,0.096-0.048c1.601,2.444,2.224,5.387,1.591,8.138
					c1.467,3.863,4.294,7.352,8.273,8.503c-3.384-1.543-5.406-4.898-6.47-8.349c-0.01-0.048,0.058-0.077,0.077-0.038
					c1.39,2.79,3.029,5.435,5.752,7.094c1.735,1.064,3.518,1.39,5.224,1.112c-3.02-0.249-5.579-2.732-6.643-5.454
					c-0.019-0.058,0.058-0.086,0.086-0.038c1.342,2.416,3.767,4.352,6.586,4.649c1.773,0.182,3.106-0.863,3.901-2.301
					c0.067-0.192,0.144-0.374,0.201-0.575c0.604-2.339-0.029-4.946-0.681-7.209c-1.495-5.253-4.879-9.279-10.314-10.66
					c-5.157-1.304-9.969,0.115-14.897,1.515c-0.086,0.077-0.192,0.144-0.297,0.201c0.24,0.038,0.489,0.096,0.729,0.134
					c3.691-0.518,6.969-1.678,10.784-1.227c0.067,0.01,0.067,0.115,0,0.105c-2.406-0.077-4.563,0.259-6.892,0.844
					c-0.911,0.23-1.783,0.441-2.665,0.537c0.479,0.105,0.959,0.23,1.428,0.364c0.086,0.029,0.067,0.153-0.019,0.144
					c-1.61-0.096-3.23-0.23-4.841-0.307c-0.192,0.077-0.383,0.096-0.575-0.038c-3.135-0.134-6.25-0.029-9.298,1.007
					c-4.592,1.563-8.167,4.764-10.295,9.097c-0.029,0.048-0.105,0.019-0.086-0.029c1.505-4.084,4.199-6.902,7.496-8.666
					c-5.224,1.026-9.298,4.62-11.532,9.423c-1.217,2.598-1.936,5.627-1.898,8.484c0.048,3.173,1.246,5.311,3.336,7.487
					c0.192,0.125,0.355,0.22,0.498,0.345c0.153-0.24,0.307-0.47,0.479-0.69c-1.064-0.489-1.495-2.607-1.697-3.528
					c-0.508-2.272-0.336-4.697,0.613-6.835c0-0.019,0.019-0.01,0.019,0.01c-0.537,2.722-0.93,7.707,1.515,9.816
					c0.077-0.077,0.134-0.163,0.201-0.24c0.173-0.163,0.355-0.288,0.546-0.393c-0.201-0.192-0.355-0.451-0.451-0.671
					c-0.22-0.498-0.278-1.169-0.048-1.658c0.029-0.058,0.096-0.019,0.096,0.029c0.077,0.556,0.163,0.997,0.479,1.476
					c0.144,0.23,0.345,0.412,0.508,0.613c0.201-0.038,0.403-0.058,0.613-0.038c0.69,0.058,1.409,0.431,2.061,0.92
					c-1.026-2.991-0.383-6.911,0.125-9.615c0-0.019,0.019-0.01,0.019,0c-0.048,2.502-0.163,5.013,0.278,7.496
					c0.23,1.294,0.719,2.444,1.198,3.614c0.105,0.125,0.201,0.24,0.297,0.345c-0.604-1.61-0.393-3.921-0.24-5.253
					c0.01-0.038,0.067-0.038,0.067,0c0.048,1.217,0.067,2.444,0.355,3.633c0.201,0.824,0.642,1.572,0.901,2.358
					c0.268-0.115,0.498-0.355,0.661-0.767c0.192-0.498,0.345-1.026,0.479-1.543c0.307-1.112,0.479-2.243,0.652-3.374
					c0.01-0.038,0.048-0.019,0.058,0C231.427,95.927,231.436,97.787,231.024,99.273z M361.038,260.709
					c2.435-6.528,6.125-16.402-11.244-24.358c-16.871-7.717-46.77-6.729-51.16-6.538c-0.086,0.297-0.345,0.594-0.623,0.891
					c-1.093,1.179-3.643,3.93-7.103,12.807c-4.659,11.973-3.518,34.519-3.278,38.315c3.269-0.805,20.322-5.282,28.307-13.229
					c6.672-15.807,14.35-25.537,23.591-27.109c-0.949,0.374-15.587,8.522-23.255,28.777c-5.109,14.81-13.363,25.805-17.744,30.176
					c-0.69,0.7-1.294,1.313-1.831,1.85c-3.125,3.192-3.969,4.055-7.352,4.668c-3.384,0.613-4.256,2.751-5.483,9.787
					c-0.46,2.627-1.486,5.272-2.569,8.071c-1.831,4.716-3.719,9.586-3.298,15.107c0.566,7.324,3.854,12.836,4.927,14.446
					c1.217-1.419,4.918-6.145,6.03-12.423c1.419-7.937,7.717-16.699,11.474-21.933c1.61-2.234,11.11-10.938,22.115-21.022
					c16.402-15.012,36.8-33.695,38.219-37.529L361.038,260.709z M297.857,299.763c4.227-4.227,11.35-15.079,17.188-29.055
					c-8.867,7.458-24.636,11.446-27.368,12.088c-0.01,0.661-0.134,1.956-0.959,2.866c-0.575,0.633-1.371,0.949-2.349,0.949
					c-2.109,0-3.25,0.642-3.719,0.997c2.914,5.531,4.659,10.104,4.659,12.558c0,0.652-0.307,1.908-0.853,3.633
					c1.074-0.422,3.576-0.891,6.988,1.61c1.438-0.585,2.406-1.572,4.572-3.786C296.554,301.085,297.158,300.462,297.857,299.763z
					 M285.808,207.786c6.049,3.729,11.139,3.988,12.768,3.959c-0.623-2.272-3.806-11.11-15.884-14.484l-0.69-0.192
					c-0.22,0.278-0.47,0.537-0.738,0.796c2.473,0.326,5.483,2.224,6.931,3.087c0.038,0.029,0.01,0.077-0.029,0.067
					c-1.668-0.288-3.269-0.796-4.898-1.237c-0.719-0.192-1.447-0.249-2.166-0.297c1.754,0.661,3.652,2.099,4.735,2.761
					c2.962,1.821,5.502,4.151,7.678,6.864c0.029,0.029,0,0.077-0.038,0.048c-2.809-1.86-5.646-3.652-8.531-5.397
					c-1.515-0.92-3.077-1.706-4.649-2.512c-0.69-0.345-1.217-0.527-1.572-0.968c-0.201,0.125-0.422,0.249-0.652,0.307
					C279.635,202.763,282.108,205.504,285.808,207.786z M297.301,230.054c0.115-0.125,0.23-0.24,0.307-0.336
					c-0.336-0.077-0.661-0.192-0.987-0.307c-0.489-0.067-1.112-0.125-1.793-0.153c-1.409,0.403-2.224,1.745-2.905,2.943
					c-0.048,0.086-0.163,0.019-0.125-0.067c0.441-1.035,0.939-2.186,1.821-2.924c-0.163,0-0.316,0-0.47,0
					c-1.927,0.623-2.655,2.579-3.556,4.41c-0.796,1.62-1.802,3.135-2.905,4.553c-0.01,0.019-0.029,0-0.019-0.01
					c0.796-1.476,1.515-2.972,2.138-4.525c0.451-1.131,0.844-2.358,1.553-3.355c0.278-0.403,0.623-0.757,0.997-1.045
					c-0.853,0.029-1.63,0.096-2.205,0.192c-1.562,4.716-4.544,8.666-6.729,13.094c-2.195,4.429-3.662,9.135-4.688,13.957
					c-1.045,4.889-1.486,10.123-1.102,15.107c0.336,4.467,1.84,8.666,2.396,13.046c0.403,0.719,0.786,1.428,1.16,2.118
					c0.249-0.173,0.594-0.374,1.054-0.556c-0.029-0.019-0.057-0.029-0.077-0.057c-1.074-0.949-1.093-3.173-1.361-4.467
					c-1.102-5.272,0.144-10.497,0.815-15.73c0.01-0.067,0.115-0.077,0.115,0c-0.163,3.662-0.01,7.352,0.067,11.014
					c0.038,1.821,0.038,3.662,0.144,5.474c0.086,1.476,0.067,2.78,1.63,3.384c0.316-0.058,0.671-0.105,1.035-0.125
					c-0.192-0.134-0.364-0.307-0.527-0.508c-0.815-1.045-0.451-2.368-0.153-3.537c0.01-0.01,0.029-0.01,0.029,0
					c-0.01,0.93,0.019,1.908,0.47,2.742c0.345,0.633,1.227,1.15,1.946,1.074c0.24-0.105,0.451-0.249,0.633-0.441
					c0.834-0.92,0.7-2.54,0.7-2.559c-0.019-0.259-1.85-26.064,3.307-39.293C293.544,234.118,296.18,231.271,297.301,230.054z
					 M295.509,161.716c1.371-9.969-5.445-13.296-13.334-17.149c-0.796-0.383-1.591-0.776-2.387-1.179
					c-5.263-2.646-12.768-7.132-17.782-10.209c0.192,0.297,0.585,0.93,1.284,1.63c1.122,1.122,15.098,11.043,14.753,11.388
					c-0.278,0.268-9.998-6.739-15.174-10.391c4.055,3.7,8.119,7.908,8.119,9.902c0,0.479-0.24,0.872-0.661,1.083
					c-3.096,1.515-19.642-7.439-27.866-13.708c-5.167-3.949-9.711-6.336-12.682-7.669c3.25,2.234,5.962,6.212,7.793,9.174
					c2.943,4.745,4.381,9.969,5.138,15.452c0.01,0.096-0.134,0.144-0.153,0.048c-1.083-5.109-3.441-9.96-6.24-14.341
					c-1.486-2.329-3.154-4.525-5.061-6.518c-0.738-0.776-1.563-1.524-2.358-2.291c1.495,1.917,2.54,4.285,3.384,6.442
					c1.457,3.748,1.984,7.602,1.956,11.609c0,0.096-0.153,0.096-0.153,0c-0.115-3.652-0.949-7.266-2.291-10.669
					c-0.498-1.256-1.141-2.416-1.831-3.547c0.844,3.221,1.409,7.563,1.045,13.209c-0.853,13.439-6.701,19.594-7.803,20.639
					c0.201,0.067,0.412,0.105,0.633,0.125c2.061,0.211,4.323-1.668,5.119-3.461c0.029-0.067,0.134-0.019,0.115,0.048
					c-0.527,2.128-2.291,4.362-4.62,4.649c-1.064,0.134-2.023-0.201-2.828-0.767c0.939,1.361,2.042,2.598,3.537,3.576
					c3.719,2.406,7.928-1.064,9.768-4.304c0.038-0.067,0.153-0.019,0.125,0.058c-0.959,2.531-3.125,5.943-5.991,6.71
					c1.169,1.39,1.908,3.221,2.837,4.755c1.227,2.023,2.559,3.988,4.304,5.598c3.422,3.163,8.081,5.042,12.395,6.614
					c0.038,0.019,0.038,0.086-0.01,0.077c-4.688-0.355-9.126-1.697-12.788-4.735c-0.844-0.7-1.601-1.476-2.291-2.301
					c-0.23,0.786-0.336,1.831,0.336,2.502l0.134,0.134c4.007,4.074,13.018,10.928,29.697,13.439
					c-1.361-0.527-2.646-1.265-3.748-2.186c-0.019-0.01,0-0.038,0.019-0.029c2.291,0.518,4.429,1.467,6.777,1.783
					c0.134,0.019,0.268,0.029,0.403,0.038c-3.355-1.112-6.576-3.604-9.059-5.646c-3.528-2.895-8.349-6.135-10.075-10.535
					c-0.029-0.077,0.086-0.105,0.125-0.048c1.524,2.214,3.566,3.662,5.617,5.339c1.802,1.476,3.576,3.048,5.493,4.39
					c1.831,1.285,3.719,2.55,5.656,3.671c1.706,0.987,3.576,1.745,5.234,2.79c0.364-0.058,0.729-0.134,1.083-0.23
					c0.268-0.067,0.498-0.144,0.738-0.22c-0.326-0.422-0.479-0.93-0.508-1.467c-2.77-1.869-4.994-5.426-6.662-8.052
					c-2.492-3.921-4.294-8.369-6.183-12.596c-0.01-0.029,0.029-0.058,0.048-0.029c2.291,3.921,4.649,7.726,7.237,11.455
					c1.285,1.86,2.569,3.71,3.978,5.474c0.604,0.748,1.246,1.467,1.821,2.234c0.067-0.173,0.153-0.326,0.24-0.479
					c-0.7-1.093-0.968-2.502-1.419-3.7c-0.661-1.764-1.371-3.528-2.042-5.291c-0.01-0.01,0.01-0.019,0.019-0.01
					c1.074,1.572,2.003,3.25,2.799,4.975c0.431,0.968,1.026,2.032,1.285,3.115c0.01-0.01,0.019-0.019,0.019-0.029
					c1.169-1.16,3.154-1.725,5.033-1.773c0.46-1.898,1.237-3.767,1.754-5.646c0.614-2.195,1.102-4.4,1.524-6.643
					c0-0.01,0.029-0.01,0.029,0.01c-0.326,3.911-0.853,8.637-2.655,12.28c0.748,0.029,1.457,0.144,2.061,0.345
					c0.048,0.019,0.096,0.038,0.144,0.058c3.719-6.94,6.796-13.948,9.126-21.501c0.019-0.048,0.096-0.029,0.086,0.029
					c-1.093,7.64-3.01,16.008-8.445,21.846c0.815,0.479,1.419,1.208,1.716,2.051c0.336-0.403,0.824-0.738,1.169-1.045
					c0.824-0.738,1.61-1.467,2.368-2.272c0.038-0.038,0.096,0.01,0.077,0.048c-0.556,0.968-1.16,1.946-1.85,2.828
					c-0.403,0.518-0.892,1.304-1.563,1.476c0.019,0.451-0.048,0.92-0.23,1.4c-0.105,0.307-0.278,0.613-0.47,0.92l0.153-0.086
					c0.029-0.019,2.972-1.61,4.208-2.837c0.911-0.911,0.585-3.806,0.393-4.745l-0.029-0.144l0.058-0.134
					C287.294,188.355,294.186,171.359,295.509,161.716z M286.738,231.98l-7.276,1.054c-0.518,0.566-1.102,1.026-1.735,1.4
					c-0.949,0.844-2.176,1.419-3.317,1.888c-0.546,0.23-1.102,0.451-1.649,0.681c-2.473,1.016-4.908,2.061-7.247,3.403
					c-2.607,1.486-5.071,3.23-7.707,4.668c-0.153,0.086-0.288-0.105-0.182-0.24c2.703-3.163,6.423-5.32,10.123-7.113
					c1.601-0.767,3.23-1.428,4.889-2.051c-1.217,0-2.444-0.163-3.614-0.451c-0.125-0.029-0.096-0.23,0.038-0.23
					c3.23,0.153,6.116-0.997,8.982-2.253c0.345-0.508,0.537-1.093,0.441-1.783c-1.179,0.508-4.179,1.428-10.602,1.572
					c0.431,1.582-0.278,3.643-1.486,4.697c-0.144,0.115-0.316-0.029-0.249-0.192c0.355-0.815,0.776-1.591,1.016-2.444
					c0.201-0.671,0.259-1.371,0.403-2.051c-0.441,0-0.901,0.01-1.371,0.01c-0.038,0-0.086-0.01-0.125-0.01
					c0.431,0.767,0.153,1.86-0.134,2.646c-0.479,1.313-1.313,2.349-2.31,3.278c-0.048,0.058-0.125,0.01-0.125-0.048
					c0-0.01,0-0.029,0.01-0.038c0.508-1.016,1.102-1.994,1.553-3.039c0.403-0.93,0.345-1.908,0.613-2.818
					c-1.956-0.134-4.534-1.035-7.448-2.435c-0.019,0.077-0.067,0.153-0.163,0.163c-1.658,0.297-2.406,1.706-2.914,3.317
					c1.888,0.92,3.863,1.687,5.867,1.908c0.067,0.01,0.067,0.096,0,0.105c-1.773,0.173-4.074-0.268-6.116-1.15
					c-0.24,0.92-0.451,1.84-0.719,2.627c2.598,0.671,5.301,0.968,8.215,0.997c0.125,0,0.163,0.201,0.029,0.23
					c-2.78,0.585-5.867,0.556-8.714-0.201c-1.15,2.234-2.895,4.055-3.796,6.451c-0.029,0.096-0.173,0.105-0.211,0.019
					c-0.01-0.01-0.01-0.029-0.01-0.048c0.038-1.505,0.575-2.77,1.265-4.084c0.489-0.939,0.968-1.84,1.4-2.761
					c-2.08-0.748-3.969-1.927-5.454-3.595c-0.048-0.058,0.019-0.153,0.086-0.105c1.927,1.189,3.844,2.061,5.819,2.694
					c0.297-0.7,0.575-1.419,0.805-2.186c0.058-0.192,0.105-0.383,0.163-0.575c-1.179-0.642-2.205-1.428-2.876-2.329
					c-0.077-0.105,0.058-0.211,0.153-0.153c0.959,0.508,1.946,1.064,2.972,1.591c0.537-1.831,1.246-3.547,3.24-3.384
					c-2.416-1.208-5.023-2.713-7.678-4.371c-0.748,0.968-1.515,1.927-2.195,2.933c-0.757,1.122-1.39,2.301-2.243,3.355
					c-0.058,0.067-0.144-0.01-0.134-0.077c0.451-2.473,2.243-4.822,4.208-6.442c-0.451-0.278-0.901-0.566-1.352-0.853
					c-1.687,2.099-3.815,4.199-4.448,6.892c-0.019,0.105-0.163,0.096-0.192,0c-0.441-1.62,0.556-2.962,1.428-4.247
					c0.738-1.074,1.601-2.272,2.77-2.933c-4.314-2.799-8.637-5.876-12.308-8.599c-0.671,0.805-1.812,1.38-2.531,2.09
					c-1.093,1.083-1.783,2.396-2.569,3.7c-0.048,0.086-0.173,0.029-0.153-0.067c0.326-1.553,0.891-2.924,2.013-4.055
					c0.681-0.69,1.697-1.649,2.713-2.051c-0.613-0.46-1.208-0.901-1.773-1.332c-0.316,0.24-0.671,0.46-0.949,0.748
					c-0.393,0.403-0.757,0.844-1.141,1.256c-0.853,0.939-1.764,1.869-2.349,2.991c-0.048,0.096-0.173,0.038-0.182-0.048
					c-0.144-1.601,0.748-2.818,1.812-3.901c0.451-0.47,1.294-1.275,2.118-1.563c-3.652-2.78-6.26-4.87-6.873-5.368
					c-0.546-0.086-3.125-0.336-4.093,2.128c0.566,0.374,1.179,1.208,1.39,1.419c1.16,1.15,2.425,2.243,3.461,3.518
					c0.01,0.019-0.01,0.038-0.029,0.029c-0.681-0.335-4.812-3.01-5.56-4.39c-2.032,0.556-13.622,4.199-22.872,17.14
					c-9.797,13.717-6.499,37.692,6.988,51.726c1.007-3.144,2.157-6.001,3.413-8.618c-2.224-1.093-3.911-3.786-5.042-5.847
					c-0.029-0.048,0.038-0.096,0.077-0.058c0.93,1.035,1.908,1.994,2.933,2.933c0.786,0.709,1.706,1.419,2.406,2.234
					c11.656-23.418,32.199-26.198,36.877-26.515c-2.253-1.505-4.237-3.556-6.145-5.311c-0.22-0.201-0.441-0.412-0.671-0.613
					c-6.279-4.534-14.705-5.78-22.259-6.346c-0.019,0-0.019-0.029,0-0.038c2.243-0.69,4.659-0.345,6.969-0.23
					c2.406,0.115,4.803,0.508,7.113,1.179c1.332,0.383,2.646,0.901,3.892,1.543c-1.773-1.495-3.643-2.857-5.752-3.863
					c-0.058-0.029-0.01-0.134,0.048-0.105c3.844,1.428,7.161,3.614,10.238,6.308c3.23,2.828,6.787,5.569,9.806,8.627
					c0.096,0.067,0.201,0.144,0.307,0.22c0.729,0.537,1.61,1.265,2.588,2.253c1.227,1.217,1.649,2.099,1.342,2.78
					c-0.134,0.268-0.355,0.441-0.604,0.546c2.329,2.051,4.668,4.352,6.959,6.835c0.518-3.825,2.368-7.832,4.582-10.89
					c2.559-3.556,5.799-5.962,9.557-8.148c0.01-0.01,0.019-0.01,0.029-0.01c0.058,0,0.096,0.086,0.038,0.125
					c-3.384,2.329-6.298,5.675-8.627,9.04c-2.281,3.288-3.7,6.653-5.186,10.314c6.672,7.285,12.922,15.932,17.609,23.668
					c-0.92-3.135-1.227-6.595-1.476-9.663c-0.412-4.946-0.364-9.826,0.451-14.743c0.834-5.004,2.387-9.864,4.572-14.446
					C282.309,238.806,284.274,235.163,286.738,231.98z M278.455,229.9c0.489-1.342,3.949-11.321,3.997-23.313
					c-2.483-1.984-4.247-4.074-5.435-5.79c-0.01,0.01-0.029,0.019-0.038,0.019c2.914,14.695-9.011,22.671-9.135,22.757l-0.431,0.268
					l-0.249-0.431c-0.153-0.278-3.844-6.768-3.825-14.053c0.01-5.637,2.224-9.212,3.336-10.65
					c-14.034-1.563-23.179-6.125-28.748-10.18c-0.058,2.291-0.546,8.148-4.064,11.666c-3.374,3.384-6.499,6.058-7.63,7.017
					c3.834,3.077,30.78,24.377,39.964,24.377C274.832,231.587,277.861,230.217,278.455,229.9z M279.069,197.989
					c1.984-1.812,4.141-3.921,1.62-5.646c-1.467-1.007-3.901-0.661-5.502-0.125c-1.898,0.652-2.339,2.051-2.224,3.739
					c1.189-0.508,2.598-0.441,3.643,0.46c0.652,0.566,1.016,1.275,1.141,2.042c0.077-0.115,0.144-0.23,0.201-0.336
					c0.681-1.285,0.805-2.339,0.336-3.7c-0.01-0.01,0.01-0.019,0.019-0.019c0.92,0.642,1.083,1.85,0.92,2.905
					C279.194,197.509,279.136,197.74,279.069,197.989z M267.748,222.471c2.281-1.678,12.289-10.036,7.429-24.645
					c-0.451,1.035-0.268,2.358-0.508,3.461c-0.307,1.38-0.853,2.684-1.361,3.997c-0.029,0.077-0.144,0.048-0.125-0.029
					c0.46-1.956,0.268-3.854,0.163-5.828c-0.01-0.201-0.019-0.403-0.019-0.594c-0.105,0.086-0.22,0.173-0.326,0.268
					c-1.045,0.959-1.879,2.128-2.694,3.269c-1.975,2.78-2.962,5.521-3.432,8.877c-0.01,0.029-0.057,0.019-0.057-0.01
					c-0.383-4.4,0.22-7.419,2.876-10.976c0.518-0.69,1.227-1.63,2.051-2.416c-1.045,0.383-2.281,0.479-3.403,0.441l-0.374,0.374
					c-0.029,0.038-3.662,3.758-3.671,10.698C264.278,215.311,266.914,220.861,267.748,222.471z M284.351,300.165
					c0-6.566-16.191-34.806-33.522-49.674c-19.709,0.105-34.768,20.754-36.628,27.032c-1.639,5.512,0.7,9.174,1.035,9.643
					c1.15,0.834,19.632,14.197,28.24,17.341c5.55-9.385,11.877-12.577,12.366-12.816c-0.47,0.307-7.956,5.243-13.602,17.188
					c-5.895,12.462-6.164,22.623-6.164,40.98c0,20.006-2.406,33.886-6.586,38.066l-4.438,4.438
					c-0.47,0.863-6.116,11.302-4.41,18.347c0.518,2.138,0.451,4.419,0.115,6.758c-0.144,3.077-0.93,5.512-1.706,7.956
					c-0.844,3.566-1.495,6.931-0.93,9.931c1.131,6.02,5.474,11.168,6.825,12.663c1.495-2.32,7.765-12.51,11.34-26.045l0.115-0.441
					c4.093-15.5,6.355-24.032,8.647-28.863C247.522,387.493,284.351,307.086,284.351,300.165z M276.26,140.435
					c-1.975-2.339-3.183-4.975-3.259-5.148c-2.876-7.477-8.148-15.52-9.739-17.868c-1.562,3.288-3.307,6.672-6.47,10.238
					c-0.192,0.201-0.422,0.441-0.681,0.69l1.054,0.7C257.29,129.124,267.882,135.834,276.26,140.435z M251.816,249.369
					c0-0.01,0.134-0.422-1.15-1.706c-2.483-2.483-4.218-3.25-4.572-3.384c-1.447,0.029-21.789,0.805-34.605,21.837
					c-2.377,3.901-4.496,8.493-6.183,13.9l0.019,0.019l-0.115,0.288c-0.22,0.566-0.633,2.186,0.125,2.943
					c0.278,0.278,0.566,0.633,0.872,1.016c0.834,1.054,1.85,2.329,3.336,2.665c-1.169-1.428-0.422-3.278,0.393-4.745
					c0.029-0.048,0.096-0.019,0.086,0.029c-0.345,1.62-0.307,3.269,1.352,4.084c0.815,0.393,1.706,0.412,2.579,0.585
					c-0.805-1.534-2.071-4.946-0.671-9.643c0.738-2.512,3.326-7.036,7.362-11.714c6.729-7.793,17.466-16.008,30.368-16.008
					C251.375,249.551,251.768,249.475,251.816,249.369z M244.646,71.004c1.984-0.978,0.872-2.818-0.067-3.729
					c-1.054-1.045-0.987-0.872-2.214-1.198c-1.016-0.268-2.138-0.968-3.192-1.026c-1.419-0.077-2.876,0.748-4.208,1.141
					c-1.054,0.316-2.147,0.508-3.23,0.709c-0.652,0.115-1.304,0.249-1.936,0.393c-2.023,0.47-3.94,1.131-5.665,2.425
					c-1.045,0.776-1.994,1.678-2.646,2.809c-0.479,0.805-0.853,1.773-0.834,2.722c0.019,0.614,0.412,1.745,1.074,2.138
					c0.211-0.22,0.441-0.412,0.671-0.614c-0.422-0.355-0.738-0.959-0.882-1.38c-0.383-1.131,0.01-2.281,0.69-3.211
					c0.048-0.067,0.134-0.01,0.105,0.058c-0.508,0.987-0.451,2.109,0.058,3.087c0.163,0.326,0.46,0.594,0.69,0.891
					c0.173-0.134,0.345-0.249,0.527-0.374c-0.182-0.441-0.192-1.102-0.153-1.371c0.01-0.077,0.115-0.048,0.115,0.01
					c0.048,0.441,0.24,0.719,0.508,1.026c2.09-1.4,4.544-2.272,7.209-2.416c0.067-0.01,0.134-0.019,0.201-0.019
					c0.01,0,0.01,0.01,0.019,0.01c0.431-0.22,0.882-0.422,1.342-0.604c-0.067-0.038-0.134-0.077-0.192-0.125
					c-0.633-0.47-0.719-1.217-0.671-1.946c0-0.048,0.086-0.067,0.096-0.01c0.125,0.479,0.393,1.054,0.834,1.323
					c0.259,0.153,0.853,0.336,1.179,0.297c2.588-0.844,5.406-1.169,8.244-1.035c0.316-0.355,0.69-0.633,0.815-1.179
					c0.173-0.834-0.211-2.243-0.805-2.828c-0.01-0.01,0-0.038,0.019-0.029c0.824,0.201,1.428,1.764,1.467,2.54
					c0.019,0.527-0.182,1.112-0.527,1.572c0.249,0.019,0.498,0.038,0.748,0.067c0.01-0.019,0.029-0.029,0.048-0.038
					c0.345-0.383,0.47-0.853,0.489-1.352c0-0.019,0.019-0.019,0.029-0.01C244.838,70.122,244.809,70.592,244.646,71.004z
					 M244.838,66.192c4.572-6.988-5.013-13.171-11.263-12.807c-6.039,0.355-11.906,3.834-14.139,9.509
					c0.211-0.058,0.431-0.105,0.642-0.153c0.374-0.316,0.901-0.556,1.265-0.729c0.642-0.288,1.457-0.326,2.147-0.22
					c0.058,0.01,0.038,0.105-0.019,0.105c-0.748,0.01-1.352,0.288-1.965,0.652c3.969-0.288,8.455,1.323,11.666,3.077
					c0.249-0.058,0.498-0.134,0.738-0.201c-1.361-1.016-2.598-2.023-4.237-2.636c-1.61-0.594-3.307-0.901-4.975-1.265
					c-0.029-0.01-0.019-0.058,0.01-0.048c3.298,0.029,7.745,0.7,9.567,3.844c0.345-0.115,0.69-0.23,1.045-0.355
					c-1.678-3.365-5.061-4.793-8.809-4.342c-0.01,0-0.01-0.019,0-0.019c2.032-0.748,4.381-0.498,6.279,0.546
					c1.122,0.623,3.096,2.128,3.106,3.623c0.355-0.125,0.719-0.23,1.083-0.326c-0.249-1.054-0.729-2.061-1.543-2.799
					c-0.029-0.019,0-0.058,0.029-0.038c1.074,0.585,1.821,1.515,2.032,2.722c0.729-0.153,1.457-0.201,2.186-0.048
					c0.038,0,0.086,0.019,0.125,0.029c-0.259-0.776-0.46-1.572-0.901-2.291c-0.623-0.997-1.4-1.649-2.502-2.051
					c-0.01-0.01-0.01-0.029,0-0.029c2.253,0.115,3.767,2.512,4.064,4.582c0.556,0.211,1.083,0.479,1.63,0.709
					c0.297-0.585-0.997-3.873-1.141-4.103c-0.815-1.361-1.946-2.377-3.393-3.01c-0.038-0.01-0.01-0.067,0.019-0.048
					c1.812,0.575,3.365,1.783,4.256,3.489c0.383,0.748,1.304,2.943,0.508,3.758c0.173,0.067,0.345,0.144,0.518,0.192
					c0.268,0.077,0.537,0.144,0.796,0.211c-0.029-5.579-3.518-9.806-9.375-10.104c-0.019-0.01-0.029-0.048,0-0.048
					c5.771-0.824,11.148,4.525,9.845,10.295C244.368,65.952,244.617,66.048,244.838,66.192z M230.056,143.924
					c0.518-8.119-0.959-13.497-2.31-16.612c-0.489-0.776-0.949-1.563-1.361-2.396c-0.029-0.048-0.01-0.115,0.019-0.163
					c-0.355-0.546-0.585-0.824-0.604-0.844l-0.096-0.182c-0.048-0.153-4.505-15.222-6.777-20.658l-0.029-0.153
					c-0.01-0.134-0.853-12.759-13.67-25.575c-3.24-3.24-6.988-7.257-10.957-11.513c-11.494-12.337-25.805-27.684-31.835-27.684
					c-6.595,0-12.184,1.217-17.37,3.815c-1.898,1.38-3.786,2.799-5.541,4.352c-0.077,0.058-0.192,0-0.163-0.096
					c0.412-1.361,1.39-2.281,2.531-3.077l0.326-0.633c0.498-0.968,1.275-3,1.016-4.055c-3.47,3.537-6.701,7.65-6.346,8.723
					c0.604,1.821,2.205,2.339,2.224,2.339l0.173,0.058l0.096,0.163c0.038,0.067,0.939,1.601,2.694,1.601h0.211l0.144,0.153
					c0,0.01,1.074,1.112,3.671,1.112h0.173l0.144,0.115c0,0,0.93,0.633,4.208,0.115c0.412-0.058,0.748-0.134,1.045-0.201
					c1.39-0.815,2.492-2.08,3.518-3.461c0.029-0.038,0.096-0.019,0.086,0.029c-0.182,0.738-0.498,1.438-0.92,2.071
					c0.24-0.096,0.537-0.163,0.949-0.163c0.93,0,2.253-2.301,2.943-4.026c-0.786-1.093-1.457-2.262-1.917-3.518
					c-0.019-0.029,0.029-0.058,0.048-0.038c2.176,1.457,3.48,3.796,4.841,6.02c5.263,6.959,19.038,25.46,24.185,35.295
					c6.327,12.088,14.992,19.795,15.079,19.872l0.144,0.134l0.01,0.182c0.029,0.278,2.473,27.329,7.563,39.082
					c4.544,10.506,12.759,18.137,14.494,19.67C224.007,162.425,229.27,156.3,230.056,143.924z M231.053,124.925
					c-1.189-3.652-3.432-11.321-3.93-13.018c-1.793-0.086-3.451-0.824-4.726-1.984c1.812,5.474,3.662,11.647,4.112,13.171
					C226.941,123.228,228.58,123.765,231.053,124.925z M221.362,71.215c2.847-3.719,7.046-4.582,11.331-5.483
					c-4.879-1.553-10.334-3.739-15.107-0.69c-2.387,1.515-3.691,4.553-3.067,7.295c0.201-1.591,1.102-3.173,2.166-4.333
					c0.029-0.029,0.096,0.01,0.067,0.058c-1.265,1.85-2.205,4.323-1.265,6.442c0.537,0.748,1.217,1.342,1.984,1.793
					c-1.543-1.86-1.831-4.755-0.058-6.864c0.029-0.029,0.086,0.01,0.058,0.048c-0.901,1.553-1.102,4.179-0.163,5.78
					c0.403,0.681,0.949,1.16,1.572,1.543c-0.23-0.383-0.422-0.767-0.537-1.083c-0.575-1.495-0.374-3.173,0.441-4.525
					c0.048-0.086,0.173-0.019,0.125,0.067c-0.7,1.457-0.479,3.125,0.24,4.534c0.307,0.594,0.815,1.026,1.256,1.495
					C219.262,75.826,220.413,72.461,221.362,71.215z M226.135,109.386c0-0.575-0.47-1.045-1.054-1.045
					c-0.575,0-1.045,0.47-1.045,1.045c0,0.393,0.22,0.729,0.546,0.901c0.067,0.038,0.144,0.058,0.22,0.096
					c0.086,0.019,0.182,0.058,0.278,0.058C225.666,110.441,226.135,109.971,226.135,109.386z M219.042,63.019
					c0.489-3.403,2.818-6.106,5.828-7.928c-2.234-2.742-12.989-15.692-17.303-17.13c-4.707-1.572-12.816,3.355-12.893,3.413
					l-6.902,4.908c0.805,0.46,2.31,1.16,4.055,1.16c2.569,0,4.994-2.253,5.023-2.272l0.086-0.086l5.071-1.265l-4.525,2.214
					c-0.479,0.431-2.655,2.214-5.167,2.435c0.498,0.22,1.007,0.383,1.428,0.383c0.796,0,4.371-0.355,10.075-0.987
					c1.409-0.163,2.799,0.585,3.451,1.86l8.071,15.711C216.387,64.236,217.642,63.46,219.042,63.019z M220.02,103.213
					c0.163-1.265,0.556-2.54,1.169-3.662c-0.92-0.096-1.85-1.131-2.358-1.783c0.786,2.751,0.978,4.592,1.016,5.004
					C219.905,102.916,219.962,103.059,220.02,103.213z M194.023,40.521c0.748-0.776,0.422-1.965,0.144-2.636
					c-1.946,1.208-5.128,3.25-5.924,4.055c-0.556,0.556-0.345,1.879-0.096,2.761L194.023,40.521z"/>
				<path fill="#FDBF90" d="M349.794,236.352c17.37,7.956,13.679,17.83,11.244,24.358l-0.278,0.757
					c-1.419,3.834-21.818,22.517-38.219,37.529c-11.005,10.084-20.504,18.788-22.115,21.022
					c-3.758,5.234-10.056,13.995-11.474,21.933c-1.112,6.279-4.812,11.005-6.03,12.423c-1.074-1.61-4.362-7.122-4.927-14.446
					c-0.422-5.521,1.467-10.391,3.298-15.107c1.083-2.799,2.109-5.445,2.569-8.071c1.227-7.036,2.099-9.174,5.483-9.787
					c3.384-0.613,4.227-1.476,7.352-4.668c0.537-0.537,1.141-1.15,1.831-1.85c4.381-4.371,12.634-15.366,17.744-30.176
					c7.669-20.255,22.306-28.403,23.255-28.777c-9.241,1.572-16.919,11.302-23.591,27.109c-7.985,7.947-25.038,12.423-28.307,13.229
					c-0.24-3.796-1.38-26.342,3.278-38.315c3.461-8.877,6.01-11.628,7.103-12.807c0.278-0.297,0.537-0.594,0.623-0.891
					C303.024,229.622,332.923,228.635,349.794,236.352z M295.183,306.846c0-0.01-0.01-0.019-0.019-0.01
					c-0.968,0.805-2.646,0.757-3.806,1.179c-0.949,0.345-1.85,0.93-2.502,1.697c-1.285,1.505-1.169,3.738-0.911,5.579
					c0.01,0.096,0.153,0.086,0.173,0c0.527-2.262,0.978-4.314,3.02-5.723c0.872-0.604,1.754-1.083,2.694-1.572
					C294.435,307.69,294.847,307.441,295.183,306.846z"/>
				<path fill="#FFFFFF" d="M298.576,211.745c-1.63,0.029-6.72-0.23-12.768-3.959c-3.7-2.281-6.173-5.023-7.736-7.199
					c0.23-0.058,0.451-0.182,0.652-0.307c0.355,0.441,0.882,0.623,1.572,0.968c1.572,0.805,3.135,1.591,4.649,2.512
					c2.885,1.745,5.723,3.537,8.531,5.397c0.038,0.029,0.067-0.019,0.038-0.048c-2.176-2.713-4.716-5.042-7.678-6.864
					c-1.083-0.661-2.981-2.099-4.735-2.761c0.719,0.048,1.447,0.105,2.166,0.297c1.63,0.441,3.23,0.949,4.898,1.237
					c0.038,0.01,0.067-0.038,0.029-0.067c-1.447-0.863-4.457-2.761-6.931-3.087c0.268-0.259,0.518-0.518,0.738-0.796l0.69,0.192
					C294.771,200.634,297.953,209.473,298.576,211.745z"/>
				<path fill="#FFFFFF" d="M297.608,229.718c-0.077,0.096-0.192,0.211-0.307,0.336c-1.122,1.217-3.758,4.064-7.285,13.114
					c-5.157,13.229-3.326,39.034-3.307,39.293c0,0.019,0.134,1.639-0.7,2.559c-0.182,0.192-0.393,0.335-0.633,0.441
					c-0.719,0.077-1.601-0.441-1.946-1.074c-0.451-0.834-0.479-1.812-0.47-2.742c0-0.01-0.019-0.01-0.029,0
					c-0.297,1.169-0.661,2.492,0.153,3.537c0.163,0.201,0.336,0.374,0.527,0.508c-0.364,0.019-0.719,0.067-1.035,0.125
					c-1.562-0.604-1.543-1.908-1.63-3.384c-0.105-1.812-0.105-3.652-0.144-5.474c-0.077-3.662-0.23-7.352-0.067-11.014
					c0-0.077-0.105-0.067-0.115,0c-0.671,5.234-1.917,10.458-0.815,15.73c0.268,1.294,0.288,3.518,1.361,4.467
					c0.019,0.029,0.048,0.038,0.077,0.057c-0.46,0.182-0.805,0.383-1.054,0.556c-0.374-0.69-0.757-1.4-1.16-2.118
					c-0.556-4.381-2.061-8.579-2.396-13.046c-0.383-4.985,0.057-10.219,1.102-15.107c1.026-4.822,2.492-9.528,4.688-13.957
					c2.186-4.429,5.167-8.378,6.729-13.094c0.575-0.096,1.352-0.163,2.205-0.192c-0.374,0.288-0.719,0.642-0.997,1.045
					c-0.709,0.997-1.102,2.224-1.553,3.355c-0.623,1.553-1.342,3.048-2.138,4.525c-0.01,0.01,0.01,0.029,0.019,0.01
					c1.102-1.419,2.109-2.933,2.905-4.553c0.901-1.831,1.63-3.786,3.556-4.41c0.153,0,0.307,0,0.47,0
					c-0.882,0.738-1.38,1.888-1.821,2.924c-0.038,0.086,0.077,0.153,0.125,0.067c0.681-1.198,1.495-2.54,2.905-2.943
					c0.681,0.029,1.304,0.086,1.793,0.153C296.947,229.526,297.273,229.641,297.608,229.718z"/>
				<path fill="#FFFFFF" d="M282.175,144.566c7.889,3.854,14.705,7.18,13.334,17.149c-1.323,9.643-8.215,26.639-8.282,26.802
					l-0.058,0.134l0.029,0.144c0.192,0.939,0.518,3.834-0.393,4.745c-1.237,1.227-4.179,2.818-4.208,2.837l-0.153,0.086
					c0.192-0.307,0.364-0.614,0.47-0.92c0.182-0.479,0.249-0.949,0.23-1.4c0.671-0.173,1.16-0.959,1.563-1.476
					c0.69-0.882,1.294-1.86,1.85-2.828c0.019-0.038-0.038-0.086-0.077-0.048c-0.757,0.805-1.543,1.534-2.368,2.272
					c-0.345,0.307-0.834,0.642-1.169,1.045c-0.297-0.844-0.901-1.572-1.716-2.051c5.435-5.838,7.352-14.206,8.445-21.846
					c0.01-0.058-0.067-0.077-0.086-0.029c-2.329,7.554-5.406,14.561-9.126,21.501c-0.048-0.019-0.096-0.038-0.144-0.058
					c-0.604-0.201-1.313-0.316-2.061-0.345c1.802-3.643,2.329-8.369,2.655-12.28c0-0.019-0.029-0.019-0.029-0.01
					c-0.422,2.243-0.911,4.448-1.524,6.643c-0.518,1.879-1.294,3.748-1.754,5.646c-1.879,0.048-3.863,0.613-5.033,1.773
					c0,0.01-0.01,0.019-0.019,0.029c-0.259-1.083-0.853-2.147-1.285-3.115c-0.796-1.725-1.725-3.403-2.799-4.975
					c-0.01-0.01-0.029,0-0.019,0.01c0.671,1.764,1.38,3.528,2.042,5.291c0.451,1.198,0.719,2.607,1.419,3.7
					c-0.086,0.153-0.173,0.307-0.24,0.479c-0.575-0.767-1.217-1.486-1.821-2.234c-1.409-1.764-2.694-3.614-3.978-5.474
					c-2.588-3.729-4.946-7.535-7.237-11.455c-0.019-0.029-0.057,0-0.048,0.029c1.888,4.227,3.691,8.675,6.183,12.596
					c1.668,2.627,3.892,6.183,6.662,8.052c0.029,0.537,0.182,1.045,0.508,1.467c-0.24,0.077-0.47,0.153-0.738,0.22
					c-0.355,0.096-0.719,0.173-1.083,0.23c-1.658-1.045-3.528-1.802-5.234-2.79c-1.936-1.122-3.825-2.387-5.656-3.671
					c-1.917-1.342-3.691-2.914-5.493-4.39c-2.051-1.678-4.093-3.125-5.617-5.339c-0.038-0.058-0.153-0.029-0.125,0.048
					c1.725,4.4,6.547,7.64,10.075,10.535c2.483,2.042,5.704,4.534,9.059,5.646c-0.134-0.01-0.268-0.019-0.403-0.038
					c-2.349-0.316-4.486-1.265-6.777-1.783c-0.019-0.01-0.038,0.019-0.019,0.029c1.102,0.92,2.387,1.658,3.748,2.186
					c-16.68-2.512-25.69-9.365-29.697-13.439l-0.134-0.134c-0.671-0.671-0.566-1.716-0.336-2.502
					c0.69,0.824,1.447,1.601,2.291,2.301c3.662,3.039,8.1,4.381,12.788,4.735c0.048,0.01,0.048-0.058,0.01-0.077
					c-4.314-1.572-8.972-3.451-12.395-6.614c-1.745-1.61-3.077-3.576-4.304-5.598c-0.93-1.534-1.668-3.365-2.837-4.755
					c2.866-0.767,5.033-4.179,5.991-6.71c0.029-0.077-0.086-0.125-0.125-0.058c-1.84,3.24-6.049,6.71-9.768,4.304
					c-1.495-0.978-2.598-2.214-3.537-3.576c0.805,0.566,1.764,0.901,2.828,0.767c2.329-0.288,4.093-2.521,4.62-4.649
					c0.019-0.067-0.086-0.115-0.115-0.048c-0.796,1.793-3.058,3.671-5.119,3.461c-0.22-0.019-0.431-0.058-0.633-0.125
					c1.102-1.045,6.95-7.199,7.803-20.639c0.364-5.646-0.201-9.989-1.045-13.209c0.69,1.131,1.332,2.291,1.831,3.547
					c1.342,3.403,2.176,7.017,2.291,10.669c0,0.096,0.153,0.096,0.153,0c0.029-4.007-0.498-7.86-1.956-11.609
					c-0.844-2.157-1.888-4.525-3.384-6.442c0.796,0.767,1.62,1.515,2.358,2.291c1.908,1.994,3.576,4.189,5.061,6.518
					c2.799,4.381,5.157,9.231,6.24,14.341c0.019,0.096,0.163,0.048,0.153-0.048c-0.757-5.483-2.195-10.707-5.138-15.452
					c-1.831-2.962-4.544-6.94-7.793-9.174c2.972,1.332,7.515,3.719,12.682,7.669c8.225,6.269,24.77,15.222,27.866,13.708
					c0.422-0.211,0.661-0.604,0.661-1.083c0-1.994-4.064-6.202-8.119-9.902c5.176,3.652,14.897,10.66,15.174,10.391
					c0.345-0.345-13.631-10.267-14.753-11.388c-0.7-0.7-1.093-1.332-1.284-1.63c5.013,3.077,12.519,7.563,17.782,10.209
					C280.584,143.79,281.379,144.183,282.175,144.566z M277.574,165.377c1.543-6.499-1.515-11.637-6.451-15.711
					c-0.01-0.01-0.019,0.01-0.01,0.019c3.748,4.141,6.528,9.969,6.26,15.663C277.372,165.464,277.545,165.483,277.574,165.377z
					 M265.467,147.759c0.019,0,0.029-0.019,0.01-0.029c-5.253-2.444-10.42-4.889-15.577-7.535c-0.105-0.058-0.23,0.086-0.134,0.173
					C254.078,144.087,259.811,146.867,265.467,147.759z M247.215,138.92c0.038,0.01,0.105-0.038,0.067-0.086
					c-0.566-0.767-1.486-1.102-2.339-1.409c-0.067-0.029-0.115,0.067-0.067,0.105C245.547,138.134,246.275,138.786,247.215,138.92z"
					/>
				<path d="M295.164,306.837c0.01-0.01,0.019,0,0.019,0.01c-0.336,0.594-0.748,0.844-1.352,1.15
					c-0.939,0.489-1.821,0.968-2.694,1.572c-2.042,1.409-2.492,3.461-3.02,5.723c-0.019,0.086-0.163,0.096-0.173,0
					c-0.259-1.841-0.374-4.074,0.911-5.579c0.652-0.767,1.553-1.352,2.502-1.697C292.518,307.594,294.196,307.642,295.164,306.837z"
					/>
				<path fill="#DB1A21" d="M279.462,233.035l7.276-1.054c-2.464,3.183-4.429,6.825-6.145,10.42
					c-2.186,4.582-3.739,9.442-4.572,14.446c-0.815,4.918-0.863,9.797-0.451,14.743c0.249,3.068,0.556,6.528,1.476,9.663
					c-4.688-7.736-10.938-16.382-17.609-23.668c1.486-3.662,2.905-7.026,5.186-10.314c2.329-3.365,5.243-6.71,8.627-9.04
					c0.058-0.038,0.019-0.125-0.038-0.125l-0.451-1.102c0.546-0.23,1.102-0.451,1.649-0.681c1.141-0.47,2.368-1.045,3.317-1.888
					C278.36,234.061,278.944,233.6,279.462,233.035z"/>
				<path fill="#FDBF90" d="M282.453,206.587c-0.048,11.992-3.508,21.971-3.997,23.313c-0.594,0.316-3.623,1.687-12.26,1.687
					c-9.183,0-36.129-21.3-39.964-24.377c1.131-0.959,4.256-3.633,7.63-7.017c3.518-3.518,4.007-9.375,4.064-11.666
					c5.569,4.055,14.714,8.618,28.748,10.18c-1.112,1.438-3.326,5.013-3.336,10.65c-0.019,7.285,3.671,13.775,3.825,14.053
					l0.249,0.431l0.431-0.268c0.125-0.086,12.05-8.062,9.135-22.757c0.01,0,0.029-0.01,0.038-0.019
					C278.206,202.513,279.97,204.603,282.453,206.587z"/>
				<path fill="#FFFFFF" d="M280.689,192.343c2.521,1.725,0.364,3.834-1.62,5.646c0.067-0.249,0.125-0.479,0.153-0.681
					c0.163-1.054,0-2.262-0.92-2.905c-0.01,0-0.029,0.01-0.019,0.019c0.47,1.361,0.345,2.416-0.336,3.7
					c-0.058,0.105-0.125,0.22-0.201,0.336c-0.125-0.767-0.489-1.476-1.141-2.042c-1.045-0.901-2.454-0.968-3.643-0.46
					c-0.115-1.687,0.326-3.087,2.224-3.739C276.788,191.681,279.222,191.336,280.689,192.343z"/>
				<path fill="#DB1A21" d="M278.484,230.955c0.096,0.69-0.096,1.275-0.441,1.783c-2.866,1.256-5.752,2.406-8.982,2.253
					c-0.134,0-0.163,0.201-0.038,0.23c1.169,0.288,2.396,0.451,3.614,0.451c-1.658,0.623-3.288,1.285-4.889,2.051
					c-3.7,1.793-7.419,3.949-10.123,7.113c-0.105,0.134,0.029,0.326,0.182,0.24c2.636-1.438,5.1-3.183,7.707-4.668
					c2.339-1.342,4.774-2.387,7.247-3.403l0.451,1.102c-0.01,0-0.019,0-0.029,0.01c-3.758,2.186-6.998,4.592-9.557,8.148
					c-2.214,3.058-4.064,7.065-4.582,10.89c-2.291-2.483-4.63-4.783-6.959-6.835c0.249-0.105,0.47-0.278,0.604-0.546
					c0.307-0.681-0.115-1.562-1.342-2.78c-0.978-0.987-1.86-1.716-2.588-2.253l0.949-0.192c0.038,0.086,0.182,0.077,0.211-0.019
					c0.901-2.396,2.646-4.218,3.796-6.451c2.847,0.757,5.934,0.786,8.714,0.201l1.074,0.134c0,0.058,0.077,0.105,0.125,0.048
					c0.997-0.93,1.831-1.965,2.31-3.278c0.288-0.786,0.566-1.879,0.134-2.646c0.038,0,0.086,0.01,0.125,0.01
					c0.47,0,0.93-0.01,1.371-0.01c-0.144,0.681-0.201,1.38-0.403,2.051c-0.24,0.853-0.661,1.63-1.016,2.444
					c-0.067,0.163,0.105,0.307,0.249,0.192c1.208-1.054,1.917-3.115,1.486-4.697C274.305,232.383,277.305,231.463,278.484,230.955z"
					/>
				<path d="M271.122,149.666c4.937,4.074,7.995,9.212,6.451,15.711c-0.029,0.105-0.201,0.086-0.201-0.029
					c0.268-5.694-2.512-11.522-6.26-15.663C271.103,149.676,271.113,149.657,271.122,149.666z"/>
				<path fill="#FFFFFF" d="M275.177,197.826c4.86,14.609-5.148,22.968-7.429,24.645c-0.834-1.61-3.47-7.161-3.451-13.114
					c0.01-6.94,3.643-10.66,3.671-10.698l0.374-0.374c1.122,0.038,2.358-0.058,3.403-0.441c-0.824,0.786-1.534,1.725-2.051,2.416
					c-2.655,3.556-3.259,6.576-2.876,10.976c0,0.029,0.048,0.038,0.057,0.01c0.47-3.355,1.457-6.097,3.432-8.877
					c0.815-1.141,1.649-2.31,2.694-3.269c0.105-0.096,0.22-0.182,0.326-0.268c0,0.192,0.01,0.393,0.019,0.594
					c0.105,1.975,0.297,3.873-0.163,5.828c-0.019,0.077,0.096,0.105,0.125,0.029c0.508-1.313,1.054-2.617,1.361-3.997
					C274.909,200.184,274.727,198.861,275.177,197.826z"/>
				<path fill="#FDBF90" d="M255.842,291.691c-0.489,0.24-6.816,3.432-12.366,12.816c-8.608-3.144-27.09-16.507-28.24-17.341
					c-0.336-0.47-2.674-4.132-1.035-9.643c1.86-6.279,16.919-26.927,36.628-27.032c17.331,14.868,33.522,43.108,33.522,49.674
					c0,6.921-36.829,87.328-39.302,92.504c-2.291,4.831-4.553,13.363-8.647,28.863l-0.115,0.441
					c-3.576,13.535-9.845,23.725-11.34,26.045c-1.352-1.495-5.694-6.643-6.825-12.663c-0.566-3,0.086-6.365,0.93-9.931
					c0.776-2.444,1.562-4.879,1.706-7.956c0.336-2.339,0.403-4.62-0.115-6.758c-1.706-7.046,3.94-17.485,4.41-18.347l4.438-4.438
					c4.179-4.179,6.586-18.06,6.586-38.066c0-18.357,0.268-28.518,6.164-40.98C247.886,296.935,255.373,291.998,255.842,291.691z"/>
				<path fill="#FDBF90" d="M273.001,135.287c0.077,0.173,1.285,2.809,3.259,5.148c-8.378-4.601-18.971-11.311-19.095-11.388
					l-1.054-0.7c0.259-0.249,0.489-0.489,0.681-0.69c3.163-3.566,4.908-6.95,6.47-10.238
					C264.853,119.768,270.125,127.81,273.001,135.287z"/>
				<path fill="#FFBD52" d="M270.863,80.245c0.652,2.262,1.285,4.87,0.681,7.209c-0.058,0.201-0.134,0.383-0.201,0.575
					c-0.796,1.438-2.128,2.483-3.901,2.301c-2.818-0.297-5.243-2.234-6.586-4.649c-0.029-0.048-0.105-0.019-0.086,0.038
					c1.064,2.722,3.623,5.205,6.643,5.454c-1.706,0.278-3.489-0.048-5.224-1.112c-2.722-1.658-4.362-4.304-5.752-7.094
					c-0.019-0.038-0.086-0.01-0.077,0.038c1.064,3.451,3.087,6.806,6.47,8.349c-3.978-1.15-6.806-4.64-8.273-8.503
					c0.633-2.751,0.01-5.694-1.591-8.138c-0.038-0.067-0.125-0.01-0.096,0.048c2.684,6.049-0.844,12.347-6.471,14.724
					c2.502-1.783,3.461-4.649,3.135-7.745c-0.01-0.115-0.182-0.125-0.182,0c0.288,5.311-4.112,8.829-9.145,8.407
					c-0.182-0.019-0.336,0-0.498-0.01c1.965-0.69,3.882-1.62,5.33-2.866c0.633-0.431,1.141-0.968,1.515-1.687
					c1.131-1.706,1.486-3.863,0.489-6.576c-0.029-0.077-0.153-0.048-0.125,0.038c0.949,3.662-0.92,7.448-4.199,9.087
					c-1.122,0.451-2.32,0.805-3.48,1.227c2.147-1.332,4.112-2.828,5.071-5.502c0.01-0.01-0.01-0.019-0.019-0.01
					c-1.668,2.703-3.777,4.151-6.547,5.55c-0.623,0.316-1.265,0.652-1.85,1.035c1.064-1.428,2.301-2.742,3.614-4.036
					c0.058-0.058-0.019-0.134-0.077-0.086c-2.281,1.773-4.735,3.595-6.154,6.173c-1.198,2.157-1.409,4.582-2.253,6.787
					c0.412-1.486,0.403-3.345,0.288-4.563c-0.01-0.019-0.048-0.038-0.058,0c-0.173,1.131-0.345,2.262-0.652,3.374
					c-0.134,0.518-0.288,1.045-0.479,1.543c-0.163,0.412-0.393,0.652-0.661,0.767c-0.259-0.786-0.7-1.534-0.901-2.358
					c-0.288-1.189-0.307-2.416-0.355-3.633c0-0.038-0.058-0.038-0.067,0c-0.153,1.332-0.364,3.643,0.24,5.253
					c-0.096-0.105-0.192-0.22-0.297-0.345c-0.479-1.169-0.968-2.32-1.198-3.614c-0.441-2.483-0.326-4.994-0.278-7.496
					c0-0.01-0.019-0.019-0.019,0c-0.508,2.703-1.15,6.624-0.125,9.615c-0.652-0.489-1.371-0.863-2.061-0.92
					c-0.211-0.019-0.412,0-0.613,0.038c-0.163-0.201-0.364-0.383-0.508-0.613c-0.316-0.479-0.403-0.92-0.479-1.476
					c0-0.048-0.067-0.086-0.096-0.029c-0.23,0.489-0.173,1.16,0.048,1.658c0.096,0.22,0.249,0.479,0.451,0.671
					c-0.192,0.105-0.374,0.23-0.546,0.393c-0.067,0.077-0.125,0.163-0.201,0.24c-2.444-2.109-2.051-7.094-1.515-9.816
					c0-0.019-0.019-0.029-0.019-0.01c-0.949,2.138-1.122,4.563-0.613,6.835c0.201,0.92,0.633,3.039,1.697,3.528
					c-0.173,0.22-0.326,0.451-0.479,0.69c-0.144-0.125-0.307-0.22-0.498-0.345c-2.09-2.176-3.288-4.314-3.336-7.487
					c-0.038-2.857,0.681-5.886,1.898-8.484c2.234-4.803,6.308-8.397,11.532-9.423c-3.298,1.764-5.991,4.582-7.496,8.666
					c-0.019,0.048,0.058,0.077,0.086,0.029c2.128-4.333,5.704-7.535,10.295-9.097c3.048-1.035,6.164-1.141,9.298-1.007
					c0.192,0.134,0.383,0.115,0.575,0.038c1.61,0.077,3.23,0.211,4.841,0.307c0.086,0.01,0.105-0.115,0.019-0.144
					c-0.47-0.134-0.949-0.259-1.428-0.364c0.882-0.096,1.754-0.307,2.665-0.537c2.329-0.585,4.486-0.92,6.892-0.844
					c0.067,0.01,0.067-0.096,0-0.105c-3.815-0.451-7.094,0.709-10.784,1.227c-0.24-0.038-0.489-0.096-0.729-0.134
					c0.105-0.058,0.211-0.125,0.297-0.201c4.927-1.4,9.739-2.818,14.897-1.515C265.984,70.966,269.368,74.992,270.863,80.245z
					 M270.394,87.013c0.383-7.506-4.927-14.379-12.356-15.683c-0.067-0.01-0.096,0.086-0.029,0.105
					c7.074,2.444,11.628,8.1,12.289,15.577C270.307,87.07,270.394,87.08,270.394,87.013z M268.563,87.204
					c0.738-4.007-1.102-8.244-4.659-10.305c-0.01-0.01-0.019,0.01-0.019,0.019c2.914,2.809,4.477,6.202,4.563,10.267
					C268.448,87.252,268.544,87.271,268.563,87.204z M267.259,87.396c0.489-0.959,0.278-1.965-0.345-2.809
					c-0.01-0.019-0.048-0.01-0.048,0.019c0.22,0.901,0.249,1.84,0.297,2.761C267.163,87.415,267.23,87.434,267.259,87.396z
					 M241.674,73.429c0.038-0.01,0.019-0.067-0.019-0.058c-7.736,1.102-11.896,7.975-13.008,15.203
					c-0.01,0.077,0.096,0.105,0.125,0.029C230.842,81.52,234.121,75.577,241.674,73.429z M235.338,80.369
					c0.01-0.01-0.01-0.029-0.019-0.019c-1.793,1.812-3.048,4.362-3.058,6.921c0,0.077,0.105,0.086,0.134,0.019
					C233.229,84.875,234.073,82.603,235.338,80.369z M227.602,79.353c0.019-0.038-0.029-0.077-0.058-0.048
					c-3.633,4.362-4.908,10.41-2.569,15.711c0.019,0.038,0.077,0.01,0.067-0.029C223.768,89.553,224.4,84.022,227.602,79.353z
					 M224.87,78.769c0.019-0.019-0.01-0.058-0.038-0.029c-2.071,1.84-3.106,4.697-3.25,7.429c0,0.077,0.096,0.077,0.115,0.019
					C222.675,83.619,223.145,81.002,224.87,78.769z"/>
				<path d="M258.037,71.33c7.429,1.304,12.74,8.177,12.356,15.683c0,0.067-0.086,0.058-0.096,0
					c-0.661-7.477-5.215-13.133-12.289-15.577C257.942,71.416,257.97,71.32,258.037,71.33z"/>
				<path fill="#FDBF90" d="M270.029,145.698c0,0.144-0.038,0.182-0.134,0.23c-2.291,1.15-17.859-6.748-26.85-13.612
					c-4.189-3.192-7.918-5.368-10.784-6.806c-0.623-1.812-1.793-5.675-2.761-8.915l0.748-0.153c0,0,0.01,0.01,0.019,0.019
					c0,0.01,0.01,0.019,0.019,0.029c0.508,0.729,5.56,7.774,10.775,10.631c2.607,1.428,6.106,2.876,8.742,3.317
					c0.307,1.074,1.668,2.099,2.492,2.646c1.141,0.757,2.502,1.054,3.815,0.604c0.067-0.019,0.058-0.115-0.019-0.125
					c-1.486-0.019-2.866-0.652-3.959-1.639c-0.412-0.374-0.776-0.92-1.189-1.361c0.096,0.01,0.211,0.019,0.307,0.019
					c0.153,0,0.288,0,0.431-0.01c0.949-0.077,1.812-0.412,2.579-0.834l0.105,0.086C260.664,134.846,270.029,143.215,270.029,145.698
					z"/>
				<path d="M263.904,76.899c3.556,2.061,5.397,6.298,4.659,10.305c-0.019,0.067-0.115,0.048-0.115-0.019
					c-0.086-4.064-1.649-7.458-4.563-10.267C263.885,76.909,263.894,76.89,263.904,76.899z"/>
				<path d="M267.777,91.777l-0.105,0.642c-0.364,0.096-0.748,0.173-1.15,0.211L267.777,91.777z"/>
				<path d="M266.914,84.587c0.623,0.844,0.834,1.85,0.345,2.809c-0.029,0.038-0.096,0.019-0.096-0.029
					c-0.048-0.92-0.077-1.86-0.297-2.761C266.866,84.578,266.904,84.568,266.914,84.587z"/>
				<path fill="#FDBF90" d="M236.565,94.931c0.498-0.144,4.582-1.361,7.41-1.361c3.02,0,5.656,2.703,6.633,2.703
					s1.553-0.288,1.553-0.288s-4.132-3.278-7.467-3.278C241.55,92.707,237.054,94.7,236.565,94.931z M266.521,92.639l-0.527,3.489
					c-0.278-0.69-0.729-1.38-1.467-1.572c-1.649-0.431-6.087,2.243-6.087,2.243s0,0.01,0.01,0.019l-0.824,0.546
					c0,0,0,0.01-0.01,0.019c-0.105,0.067-1.946,1.572-1.658,4.17c0.297,2.674,2.31,6.221,2.847,7.314
					c0.527,1.093-0.594,1.706-1.831,2.31c-1.237,0.594-2.281-0.278-3.25-0.22c-0.968,0.067-0.853,1.447-0.853,1.447l1.122,0.24
					c0.613,0.144,1.256,0.125,1.86-0.058c2.713-0.786,4.4-2.349,3.844-3.489c-0.508-1.035-2.195-3.345-2.713-5.809l0.268-0.058
					c0.393,0.201,0.776,0.355,1.141,0.479c0.508,0.182,0.987,0.288,1.419,0.345c1.793,0.249,2.952-0.336,3.393-0.604
					c0.815-0.364,1.409-0.757,1.86-1.131l-0.173,1.169c-0.067,0.412-0.067,0.844,0,1.275c0.019,0.163,0.058,0.364,0.105,0.604
					c0.288,1.486,0.872,4.563-0.844,7.995c-0.441,0.891-0.863,1.764-1.275,2.646c-1.678,3.537-3.413,7.189-6.806,11.005
					c-0.805,0.901-2.444,2.435-4.467,2.598c-2.291,0.192-6.806-1.534-10.084-3.336c-4.946-2.713-10.707-9.193-11.235-9.787
					c-0.01-0.01-0.019-0.019-0.019-0.029c-0.01-0.01-0.019-0.019-0.019-0.019l-0.748,0.153c-0.853-2.866-1.534-5.234-1.553-5.291
					l-0.105-0.345h-0.355c-0.47,0-0.92-0.067-1.352-0.153c0.431-0.326,0.719-0.834,0.719-1.419c0-0.489-0.201-0.93-0.518-1.246
					l0.7-0.153c0.182,0.326,0.441,0.604,0.748,0.872c0.134,0.125,0.345-0.029,0.259-0.201c-0.297-0.575-0.642-1.189-0.7-1.85
					c-0.038-0.498,0.22-1.054,0.278-1.553c0.058-0.537,0.048-1.083-0.096-1.61c-0.278-1.007-0.987-1.927-2.042-2.166
					c-0.844-0.192-1.869,0.048-2.416,0.767c-0.757,1.016-0.422,2.377-0.086,3.461c0.01,0.029,0.067,0.029,0.058-0.01
					c-0.134-1.179-0.307-3.01,1.179-3.451c1.265-0.383,2.31,0.604,2.627,1.735c-0.431-0.077-0.92,0.029-1.208,0.297
					c-0.757,0.681-0.824,1.917-0.451,2.809l-0.105,0.537c-0.968,0-1.764,0.786-1.764,1.764c0,0.029,0.01,0.058,0.01,0.086
					c-0.939-0.757-1.678-1.773-2.099-3c-0.863-2.531,0.086-6.231,2.109-8.253c0.288-0.288,0.594-0.403,0.987-0.364
					c0.767,0.067,1.668,0.738,2.454,1.495c1.064,1.649,1.927,3.365,2.924,5.081c0.077,0.144,0.278,0.096,0.326-0.038
					c0.134-0.364,0.278-0.719,0.422-1.074c0.345-0.652,0.585-1.352,0.834-2.051c0.173-0.393,0.345-0.796,0.508-1.198
					c0.326-0.815,0.681-1.591,0.776-2.425c0.336-0.853,0.652-1.716,1.074-2.55c0.891-1.764,2.157-2.885,3.681-3.786
					c0.959-0.288,2.013-0.403,3.25-0.316c1.323,0.096,2.588-0.01,3.796-0.431c3.518-0.182,6.662-1.467,8.771-4.505
					c0.498-0.709,0.872-1.467,1.141-2.243c1.275,4.362,5.244,8.052,9.749,8.752C264.92,92.707,265.754,92.726,266.521,92.639z
					 M257.424,115.809c0.144-0.134,0.125-0.259-0.057-0.364c-0.671-0.345-1.332-0.144-1.898,0.038
					c-0.288,0.105-0.575,0.24-0.824,0.364c-0.22,0.105-0.47,0.125-0.7,0.058c-0.537-0.173-1.074-0.403-1.582-0.671
					c-0.22-0.115-0.556-0.307-0.853-0.345c-0.307-0.067-0.604-0.086-0.901-0.115c-1.687-0.096-3.355,0.019-5.023,0.192
					c-0.297,0-0.997,0.086-1.486,0.144c0.316-0.642,0.805-1.15,1.256-1.716c0.029-0.029-0.01-0.077-0.048-0.048
					c-0.69,0.546-1.352,1.141-1.745,1.84v0.01c-0.364,0.661-0.489,1.419-0.125,2.31c0.019,0.048,0.105,0.067,0.115,0
					c0.086-0.585,0.163-1.198,0.326-1.773c0.7,1.217,1.495,2.329,2.396,3.403c0.518,0.614,1.064,1.198,1.687,1.716
					c0.614,0.527,1.285,1.007,2.08,1.285c1.582,0.623,3.461,0.105,4.63-1.054c0.604-0.556,1.074-1.304,1.275-2.099
					c0.211-0.738,0.297-1.486,0.307-2.234C256.676,116.47,257.06,116.154,257.424,115.809z M253.283,107.939
					c0-0.019-0.019-0.029-0.038-0.019c-0.259,0.364-0.498,0.681-0.834,0.978c-0.259,0.22-0.527,0.422-0.729,0.7
					c-0.355,0.479-0.47,1.026-0.144,1.553c0.029,0.058,0.134,0.038,0.125-0.038C251.605,109.77,253.072,109.137,253.283,107.939z
					 M244.579,103.04c1.371,0.22,3.163,0.249,5.397-0.259c0,0-1.361-6.164-10.966-3.355l-1.524-0.47c0,0,0.613,1.524,4.055,3.077
					c0.048,0.029,0.105,0.058,0.163,0.086C242.211,102.388,243.17,102.82,244.579,103.04z"/>
				<path d="M265.476,147.73c0.019,0.01,0.01,0.029-0.01,0.029c-5.656-0.891-11.388-3.671-15.702-7.391
					c-0.096-0.086,0.029-0.23,0.134-0.173C255.056,142.841,260.223,145.285,265.476,147.73z"/>
				<path fill="#DB1A21" d="M265.677,232.517c-0.268,0.911-0.211,1.888-0.613,2.818c-0.451,1.045-1.045,2.023-1.553,3.039
					c-0.01,0.01-0.01,0.029-0.01,0.038l-1.074-0.134c0.134-0.029,0.096-0.23-0.029-0.23c-2.914-0.029-5.617-0.326-8.215-0.997
					c0.268-0.786,0.479-1.706,0.719-2.627c2.042,0.882,4.342,1.323,6.116,1.15c0.067-0.01,0.067-0.096,0-0.105
					c-2.003-0.22-3.978-0.987-5.867-1.908c0.508-1.61,1.256-3.02,2.914-3.317c0.096-0.01,0.144-0.086,0.163-0.163
					C261.143,231.482,263.722,232.383,265.677,232.517z M260.098,232.584c0-0.729-0.623-1.323-1.38-1.323
					c-0.767,0-1.38,0.594-1.38,1.323s0.613,1.323,1.38,1.323C259.475,233.907,260.098,233.313,260.098,232.584z"/>
				<path fill="#FFFFFF" d="M264.623,102.034l-1.419,1.419c-0.441,0.268-1.601,0.853-3.393,0.604
					c0.891-0.23,1.553-1.246,1.534-2.454c0-0.355-0.067-0.7-0.182-0.997C263.003,100.73,264.623,102.034,264.623,102.034z"/>
				<path d="M259.696,109.099c0.556,1.141-1.131,2.703-3.844,3.489c-0.604,0.182-1.246,0.201-1.86,0.058l-1.122-0.24
					c0,0-0.115-1.38,0.853-1.447c0.968-0.058,2.013,0.815,3.25,0.22c1.237-0.604,2.358-1.217,1.831-2.31
					c-0.537-1.093-2.55-4.64-2.847-7.314c-0.288-2.598,1.553-4.103,1.658-4.17c-0.077,0.144-0.709,1.457-0.796,4.294
					c-0.019,0.537,0.038,1.074,0.163,1.61C257.501,105.753,259.188,108.063,259.696,109.099z"/>
				<ellipse cx="258.718" cy="232.584" rx="1.38" ry="1.323"/>
				<path fill="#FFFFFF" d="M258.392,103.711c-0.364-0.125-0.748-0.278-1.141-0.479c0.125-0.259,0.259-0.489,0.403-0.709
					C257.798,103.011,258.057,103.433,258.392,103.711z"/>
				<path d="M257.366,115.444c0.182,0.105,0.201,0.23,0.057,0.364c-0.364,0.345-0.748,0.661-1.169,0.939
					c-0.01,0.748-0.096,1.495-0.307,2.234c-0.201,0.796-0.671,1.543-1.275,2.099c-1.169,1.16-3.048,1.678-4.63,1.054
					c-0.796-0.278-1.467-0.757-2.08-1.285c-0.623-0.518-1.169-1.102-1.687-1.716c-0.901-1.074-1.697-2.186-2.396-3.403
					c-0.163,0.575-0.24,1.189-0.326,1.773c-0.01,0.067-0.096,0.048-0.115,0c-0.364-0.891-0.24-1.649,0.125-2.31v-0.01
					c0.393-0.7,1.054-1.294,1.745-1.84c0.038-0.029,0.077,0.019,0.048,0.048c-0.451,0.566-0.939,1.074-1.256,1.716
					c0.489-0.058,1.189-0.144,1.486-0.144c1.668-0.173,3.336-0.288,5.023-0.192c0.297,0.029,0.594,0.048,0.901,0.115
					c0.297,0.038,0.633,0.23,0.853,0.345c0.508,0.268,1.045,0.498,1.582,0.671c0.23,0.067,0.479,0.048,0.7-0.058
					c0.249-0.125,0.537-0.259,0.824-0.364C256.034,115.301,256.695,115.099,257.366,115.444z M256.791,115.742
					c-0.355-0.058-0.786,0.038-1.169,0.173c-0.268,0.096-0.518,0.201-0.786,0.345c-0.316,0.144-0.69,0.163-1.016,0.058
					c-0.575-0.192-1.122-0.431-1.649-0.719c-0.278-0.153-0.47-0.268-0.757-0.326c-0.259-0.067-0.556-0.096-0.834-0.134
					c-1.15-0.115-2.32-0.105-3.489-0.077c-0.594,0.01-1.189,0.048-1.783,0.067c-0.048,0.067-0.067,0.134,0.019,0.22
					c0,0-0.029,0.01-0.067,0.01c1.821,0.22,3.623,0.633,5.406,1.045c1.16,0.24,2.358,0.633,3.461,0.681
					C255.104,116.988,256.034,116.422,256.791,115.742z M254.376,120.755c0.93-0.776,1.313-1.956,1.457-3.173
					c-0.096-0.115-0.23-0.201-0.364-0.058c-0.086,0.086-0.182,0.173-0.268,0.259c-0.134,0.374-0.326,0.709-0.594,0.997
					c-0.422,0.46-0.987,0.748-1.572,0.911c-1.208,0.336-2.435,0.01-3.528-0.412c-1.102-0.431-2.138-1.026-3.144-1.639
					c-0.518-0.278-0.997-0.633-1.428-1.035c-0.173-0.096-0.345-0.163-0.412-0.134c0.642,0.834,1.304,1.668,2.023,2.435
					c1.054,1.141,2.243,2.253,3.662,2.78C251.624,122.25,253.254,121.781,254.376,120.755z M254.385,118.569
					c0.307-0.336,0.508-0.776,0.585-1.217c-0.259,0.086-0.537,0.144-0.824,0.173c-0.671-0.01-1.227-0.173-1.821-0.307
					s-1.169-0.297-1.745-0.451c-1.16-0.316-2.31-0.623-3.48-0.901c-0.69-0.173-1.39-0.316-2.099-0.441
					c-0.115,0.048-0.23,0.105-0.278,0.201c-0.086,0.201,1.361,1.725,1.706,1.898c1.026,0.585,2.061,1.15,3.154,1.563
					c1.083,0.383,2.281,0.671,3.374,0.345C253.494,119.26,254.011,118.982,254.385,118.569z"/>
				<path fill="#DB1A21" d="M257.271,229.613c-1.994-0.163-2.703,1.553-3.24,3.384c-1.026-0.527-2.013-1.083-2.972-1.591
					c-0.096-0.058-0.23,0.048-0.153,0.153c0.671,0.901,1.697,1.687,2.876,2.329c-0.058,0.192-0.105,0.383-0.163,0.575
					c-0.23,0.767-0.508,1.486-0.805,2.186c-1.975-0.633-3.892-1.505-5.819-2.694c-0.067-0.048-0.134,0.048-0.086,0.105
					c1.486,1.668,3.374,2.847,5.454,3.595c-0.431,0.92-0.911,1.821-1.4,2.761c-0.69,1.313-1.227,2.579-1.265,4.084
					c0,0.019,0,0.038,0.01,0.048l-0.949,0.192c-0.105-0.077-0.211-0.153-0.307-0.22c-3.02-3.058-6.576-5.799-9.806-8.627
					c-3.077-2.694-6.394-4.879-10.238-6.308c-0.058-0.029-0.105,0.077-0.048,0.105c2.109,1.007,3.978,2.368,5.752,3.863
					c-1.246-0.642-2.559-1.16-3.892-1.543c-2.31-0.671-4.707-1.064-7.113-1.179c-2.31-0.115-4.726-0.46-6.969,0.23
					c-0.019,0.01-0.019,0.038,0,0.038c7.554,0.566,15.98,1.812,22.259,6.346c0.23,0.201,0.451,0.412,0.671,0.613
					c1.908,1.754,3.892,3.806,6.145,5.311c-4.678,0.316-25.221,3.096-36.877,26.515c-0.7-0.815-1.62-1.524-2.406-2.234
					c-1.026-0.939-2.003-1.898-2.933-2.933c-0.038-0.038-0.105,0.01-0.077,0.058c1.131,2.061,2.818,4.755,5.042,5.847
					c-1.256,2.617-2.406,5.474-3.413,8.618c-13.487-14.034-16.785-38.008-6.988-51.726c9.25-12.941,20.84-16.584,22.872-17.14
					c0.748,1.38,4.879,4.055,5.56,4.39c0.019,0.01,0.038-0.01,0.029-0.029c-1.035-1.275-2.301-2.368-3.461-3.518
					c-0.211-0.211-0.824-1.045-1.39-1.419c0.968-2.464,3.547-2.214,4.093-2.128c0.613,0.498,3.221,2.588,6.873,5.368
					c-0.824,0.288-1.668,1.093-2.118,1.563c-1.064,1.083-1.956,2.301-1.812,3.901c0.01,0.086,0.134,0.144,0.182,0.048
					c0.585-1.122,1.495-2.051,2.349-2.991c0.383-0.412,0.748-0.853,1.141-1.256c0.278-0.288,0.633-0.508,0.949-0.748
					c0.566,0.431,1.16,0.872,1.773,1.332c-1.016,0.403-2.032,1.361-2.713,2.051c-1.122,1.131-1.687,2.502-2.013,4.055
					c-0.019,0.096,0.105,0.153,0.153,0.067c0.786-1.304,1.476-2.617,2.569-3.7c0.719-0.709,1.86-1.285,2.531-2.09
					c3.671,2.722,7.995,5.799,12.308,8.599c-1.169,0.661-2.032,1.86-2.77,2.933c-0.872,1.285-1.869,2.627-1.428,4.247
					c0.029,0.096,0.173,0.105,0.192,0c0.633-2.694,2.761-4.793,4.448-6.892c0.451,0.288,0.901,0.575,1.352,0.853
					c-1.965,1.62-3.758,3.969-4.208,6.442c-0.01,0.067,0.077,0.144,0.134,0.077c0.853-1.054,1.486-2.234,2.243-3.355
					c0.681-1.007,1.447-1.965,2.195-2.933C252.248,226.9,254.855,228.405,257.271,229.613z M239.019,239.438
					c0.048,0.019,0.077-0.058,0.038-0.086c-8.589-4.477-17.168-5.771-26.754-4.889c-0.086,0.01-0.096,0.134,0,0.134
					C221.17,234.271,230.765,236.265,239.019,239.438z M221.247,218.349c0.01-0.144-0.23-0.173-0.249-0.029
					c-0.508,3.01-1.246,5.857-2.722,8.551c-0.038,0.067,0.048,0.134,0.105,0.077C220.777,224.772,220.988,221.378,221.247,218.349z
					 M220,215.061c0.019-0.115-0.144-0.163-0.182-0.048c-2.444,8.023-6.308,17.303-15.759,18.453c-0.182,0.019-0.192,0.268,0,0.288
					C214.402,234.645,218.371,223.123,220,215.061z M199.87,260.316c0.077,0.086,0.23-0.029,0.163-0.125
					c-3.518-5.148-4.889-11.752-4.783-17.935c0-0.048-0.077-0.048-0.086,0C194.598,248.804,195.154,255.284,199.87,260.316z"/>
				<path fill="#DB1A21" d="M255.622,115.914c0.383-0.134,0.815-0.23,1.169-0.173c-0.757,0.681-1.687,1.246-2.665,1.342
					c-1.102-0.048-2.301-0.441-3.461-0.681c-1.783-0.412-3.585-0.824-5.406-1.045c0.038,0,0.067-0.01,0.067-0.01
					c-0.086-0.086-0.067-0.153-0.019-0.22c0.594-0.019,1.189-0.058,1.783-0.067c1.169-0.029,2.339-0.038,3.489,0.077
					c0.278,0.038,0.575,0.067,0.834,0.134c0.288,0.058,0.479,0.173,0.757,0.326c0.527,0.288,1.074,0.527,1.649,0.719
					c0.326,0.105,0.7,0.086,1.016-0.058C255.104,116.115,255.353,116.01,255.622,115.914z"/>
				<path fill="#DB1A21" d="M255.833,117.582c-0.144,1.217-0.527,2.396-1.457,3.173c-1.122,1.026-2.751,1.495-4.17,0.93
					c-1.419-0.527-2.607-1.639-3.662-2.78c-0.719-0.767-1.38-1.601-2.023-2.435c0.067-0.029,0.24,0.038,0.412,0.134
					c0.431,0.403,0.911,0.757,1.428,1.035c1.007,0.613,2.042,1.208,3.144,1.639c1.093,0.422,2.32,0.748,3.528,0.412
					c0.585-0.163,1.15-0.451,1.572-0.911c0.268-0.288,0.46-0.623,0.594-0.997c0.086-0.086,0.182-0.173,0.268-0.259
					C255.603,117.381,255.737,117.467,255.833,117.582z"/>
				<path fill="#FFFFFF" d="M254.97,117.352c-0.077,0.441-0.278,0.882-0.585,1.217c-0.374,0.412-0.891,0.69-1.428,0.863
					c-1.093,0.326-2.291,0.038-3.374-0.345c-1.093-0.412-2.128-0.978-3.154-1.563c-0.345-0.173-1.793-1.697-1.706-1.898
					c0.048-0.096,0.163-0.153,0.278-0.201c0.709,0.125,1.409,0.268,2.099,0.441c1.169,0.278,2.32,0.585,3.48,0.901
					c0.575,0.153,1.15,0.316,1.745,0.451s1.15,0.297,1.821,0.307C254.433,117.496,254.711,117.438,254.97,117.352z"/>
				<path d="M253.244,107.919c0.019-0.01,0.038,0,0.038,0.019c-0.211,1.198-1.678,1.831-1.62,3.173
					c0.01,0.077-0.096,0.096-0.125,0.038c-0.326-0.527-0.211-1.074,0.144-1.553c0.201-0.278,0.47-0.479,0.729-0.7
					C252.746,108.6,252.986,108.284,253.244,107.919z"/>
				<path fill="#FFFFFF" d="M250.666,247.663c1.285,1.285,1.15,1.697,1.15,1.706c-0.048,0.105-0.441,0.182-0.805,0.163
					c-12.903,0-23.639,8.215-30.368,16.008l-1.256-1.054c2.396-2.799,4.966-5.426,7.899-7.803c0.048-0.038-0.01-0.105-0.058-0.077
					c-4.505,3-8.762,6.796-11.858,11.331l-1.208-0.863c0.489-0.613,0.949-1.246,1.467-1.831c0.048-0.038-0.01-0.134-0.067-0.086
					c-0.748,0.556-1.601,1.227-2.224,2.023l-1.85-1.064c12.816-21.032,33.158-21.808,34.605-21.837
					C246.448,244.413,248.183,245.18,250.666,247.663z"/>
				<path d="M252.161,95.985c0,0-0.575,0.288-1.553,0.288s-3.614-2.703-6.633-2.703c-2.828,0-6.911,1.217-7.41,1.361
					c0.489-0.23,4.985-2.224,8.129-2.224C248.03,92.707,252.161,95.985,252.161,95.985z"/>
				<path fill="#FFFFFF" d="M245.969,99.714c1.534,0.345,3.02,1.208,4.007,3.067c-2.234,0.508-4.026,0.479-5.397,0.259
					c0.824-0.307,1.467-1.035,1.591-1.975C246.237,100.586,246.151,100.126,245.969,99.714z"/>
				<path d="M249.976,102.781c-0.987-1.86-2.473-2.722-4.007-3.067c0.182,0.412,0.268,0.872,0.201,1.352
					c-0.125,0.939-0.767,1.668-1.591,1.975c-1.409-0.22-2.368-0.652-2.876-0.92c-0.336-0.489-0.498-1.083-0.412-1.706
					c0.019-0.201,0.077-0.383,0.144-0.566c-1.035,0.249-1.725,0.537-1.725,0.537l1.831,1.649c-3.441-1.553-4.055-3.077-4.055-3.077
					l1.524,0.47C248.614,96.618,249.976,102.781,249.976,102.781z"/>
				<path d="M247.282,138.834c0.038,0.048-0.029,0.096-0.067,0.086c-0.939-0.134-1.668-0.786-2.339-1.39
					c-0.048-0.038,0-0.134,0.067-0.105C245.796,137.732,246.716,138.067,247.282,138.834z"/>
				<path fill="#DB1A21" d="M244.579,67.275c0.939,0.911,2.051,2.751,0.067,3.729c0.163-0.412,0.192-0.882-0.048-1.275
					c-0.01-0.01-0.029-0.01-0.029,0.01c-0.019,0.498-0.144,0.968-0.489,1.352c-0.019,0.01-0.038,0.019-0.048,0.038
					c-0.249-0.029-0.498-0.048-0.748-0.067c0.345-0.46,0.546-1.045,0.527-1.572c-0.038-0.776-0.642-2.339-1.467-2.54
					c-0.019-0.01-0.029,0.019-0.019,0.029c0.594,0.585,0.978,1.994,0.805,2.828c-0.125,0.546-0.498,0.824-0.815,1.179
					c-2.837-0.134-5.656,0.192-8.244,1.035c-0.326,0.038-0.92-0.144-1.179-0.297c-0.441-0.268-0.709-0.844-0.834-1.323
					c-0.01-0.058-0.096-0.038-0.096,0.01c-0.048,0.729,0.038,1.476,0.671,1.946c0.058,0.048,0.125,0.086,0.192,0.125
					c-0.46,0.182-0.911,0.383-1.342,0.604c-0.01,0-0.01-0.01-0.019-0.01c-0.067,0-0.134,0.01-0.201,0.019l-0.038-0.47
					c0.048,0,0.096-0.067,0.048-0.105c-1.083-1.016-1.61-2.617-1.16-4.036c0.01-0.048-0.029-0.086-0.077-0.086l-0.24-1.102
					c0.633-0.144,1.285-0.278,1.936-0.393c1.083-0.201,2.176-0.393,3.23-0.709c1.332-0.393,2.79-1.217,4.208-1.141
					c1.054,0.058,2.176,0.757,3.192,1.026C243.591,66.403,243.524,66.23,244.579,67.275z"/>
				<path fill="#FFBD52" d="M233.574,53.385c6.25-0.364,15.836,5.819,11.263,12.807c-0.22-0.144-0.47-0.24-0.709-0.326
					c1.304-5.771-4.074-11.12-9.845-10.295c-0.029,0-0.019,0.038,0,0.048c5.857,0.297,9.346,4.525,9.375,10.104
					c-0.259-0.067-0.527-0.134-0.796-0.211c-0.173-0.048-0.345-0.125-0.518-0.192c0.796-0.815-0.125-3.01-0.508-3.758
					c-0.891-1.706-2.444-2.914-4.256-3.489c-0.029-0.019-0.058,0.038-0.019,0.048c1.447,0.633,2.579,1.649,3.393,3.01
					c0.144,0.23,1.438,3.518,1.141,4.103c-0.546-0.23-1.074-0.498-1.63-0.709c-0.297-2.071-1.812-4.467-4.064-4.582
					c-0.01,0-0.01,0.019,0,0.029c1.102,0.403,1.879,1.054,2.502,2.051c0.441,0.719,0.642,1.515,0.901,2.291
					c-0.038-0.01-0.086-0.029-0.125-0.029c-0.729-0.153-1.457-0.105-2.186,0.048c-0.211-1.208-0.959-2.138-2.032-2.722
					c-0.029-0.019-0.058,0.019-0.029,0.038c0.815,0.738,1.294,1.745,1.543,2.799c-0.364,0.096-0.729,0.201-1.083,0.326
					c-0.01-1.495-1.984-3-3.106-3.623c-1.898-1.045-4.247-1.294-6.279-0.546c-0.01,0-0.01,0.019,0,0.019
					c3.748-0.451,7.132,0.978,8.809,4.342c-0.355,0.125-0.7,0.24-1.045,0.355c-1.821-3.144-6.269-3.815-9.567-3.844
					c-0.029-0.01-0.038,0.038-0.01,0.048c1.668,0.364,3.365,0.671,4.975,1.265c1.639,0.613,2.876,1.62,4.237,2.636
					c-0.24,0.067-0.489,0.144-0.738,0.201c-3.211-1.754-7.697-3.365-11.666-3.077c0.613-0.364,1.217-0.642,1.965-0.652
					c0.058,0,0.077-0.096,0.019-0.105c-0.69-0.105-1.505-0.067-2.147,0.22c-0.364,0.173-0.891,0.412-1.265,0.729
					c-0.211,0.048-0.431,0.096-0.642,0.153C221.668,57.219,227.535,53.74,233.574,53.385z"/>
				<path fill="#FFFFFF" d="M241.703,102.12c-0.058-0.029-0.115-0.058-0.163-0.086l-1.831-1.649c0,0,0.69-0.288,1.725-0.537
					c-0.067,0.182-0.125,0.364-0.144,0.566C241.205,101.037,241.368,101.631,241.703,102.12z"/>
				<path d="M241.655,73.372c0.038-0.01,0.058,0.048,0.019,0.058c-7.554,2.147-10.832,8.091-12.903,15.175
					c-0.029,0.077-0.134,0.048-0.125-0.029C229.759,81.347,233.919,74.474,241.655,73.372z"/>
				<path d="M239.057,239.352c0.038,0.029,0.01,0.105-0.038,0.086c-8.253-3.173-17.849-5.167-26.716-4.841
					c-0.096,0-0.086-0.125,0-0.134C221.889,233.581,230.468,234.875,239.057,239.352z"/>
				<path d="M235.319,80.35c0.01-0.01,0.029,0.01,0.019,0.019c-1.265,2.234-2.109,4.505-2.943,6.921
					c-0.029,0.067-0.134,0.058-0.134-0.019C232.27,84.712,233.526,82.162,235.319,80.35z"/>
				<path d="M231.274,72.519c0.048,0.038,0,0.105-0.048,0.105c-0.01,0-0.01,0-0.019,0c-0.93-0.259-1.495-0.681-1.793-1.639
					c-0.278-0.93-0.019-1.831,0.575-2.569c0.01-0.019,0.029-0.019,0.048-0.019c0.048,0,0.086,0.038,0.077,0.086
					C229.663,69.902,230.19,71.503,231.274,72.519z"/>
				<path fill="#DB1A21" d="M231.226,72.624l0.038,0.47c-2.665,0.144-5.119,1.016-7.209,2.416c-0.268-0.307-0.46-0.585-0.508-1.026
					c0-0.058-0.105-0.086-0.115-0.01c-0.038,0.268-0.029,0.93,0.153,1.371c-0.182,0.125-0.355,0.24-0.527,0.374
					c-0.23-0.297-0.527-0.566-0.69-0.891c-0.508-0.978-0.566-2.099-0.058-3.087c0.029-0.067-0.058-0.125-0.105-0.058
					c-0.681,0.93-1.074,2.08-0.69,3.211c0.144,0.422,0.46,1.026,0.882,1.38c-0.23,0.201-0.46,0.393-0.671,0.614
					c-0.661-0.393-1.054-1.524-1.074-2.138c-0.019-0.949,0.355-1.917,0.834-2.722c0.652-1.131,1.601-2.032,2.646-2.809
					c1.725-1.294,3.643-1.956,5.665-2.425l0.24,1.102c-0.019,0-0.038,0-0.048,0.019c-0.594,0.738-0.853,1.639-0.575,2.569
					c0.297,0.959,0.863,1.38,1.793,1.639C231.216,72.624,231.216,72.624,231.226,72.624z"/>
				<path fill="#FDBF90" d="M227.746,127.312c1.352,3.115,2.828,8.493,2.31,16.612c-0.786,12.375-6.049,18.501-7.362,19.852
					c-1.735-1.534-9.95-9.164-14.494-19.67c-5.09-11.752-7.535-38.804-7.563-39.082l-0.01-0.182l-0.144-0.134
					c-0.086-0.077-8.752-7.784-15.079-19.872c-5.148-9.835-18.923-28.336-24.185-35.295c-1.361-2.224-2.665-4.563-4.841-6.02
					c-0.019-0.019-0.067,0.01-0.048,0.038c0.46,1.256,1.131,2.425,1.917,3.518c-0.69,1.725-2.013,4.026-2.943,4.026
					c-0.412,0-0.709,0.067-0.949,0.163c0.422-0.633,0.738-1.332,0.92-2.071c0.01-0.048-0.058-0.067-0.086-0.029
					c-1.026,1.38-2.128,2.646-3.518,3.461c-0.297,0.067-0.633,0.144-1.045,0.201c-3.278,0.518-4.208-0.115-4.208-0.115l-0.144-0.115
					h-0.173c-2.598,0-3.671-1.102-3.671-1.112l-0.144-0.153h-0.211c-1.754,0-2.655-1.534-2.694-1.601l-0.096-0.163l-0.173-0.058
					c-0.019,0-1.62-0.518-2.224-2.339c-0.355-1.074,2.876-5.186,6.346-8.723c0.259,1.054-0.518,3.087-1.016,4.055l-0.326,0.633
					c-1.141,0.796-2.118,1.716-2.531,3.077c-0.029,0.096,0.086,0.153,0.163,0.096c1.754-1.553,3.643-2.972,5.541-4.352
					c5.186-2.598,10.775-3.815,17.37-3.815c6.03,0,20.341,15.347,31.835,27.684c3.969,4.256,7.717,8.273,10.957,11.513
					c12.816,12.816,13.66,25.441,13.67,25.575l0.029,0.153c2.272,5.435,6.729,20.504,6.777,20.658l0.096,0.182
					c0.019,0.019,0.249,0.297,0.604,0.844c-0.029,0.048-0.048,0.115-0.019,0.163C226.797,125.749,227.257,126.535,227.746,127.312z"
					/>
				<path d="M228.043,108.658c0.086,0.173-0.125,0.326-0.259,0.201c-0.307-0.268-0.566-0.546-0.748-0.872
					c-0.182-0.316-0.307-0.671-0.345-1.093c-0.058-0.767,0.249-1.495,0.23-2.262c-0.431-0.134-0.824-0.211-1.227,0.278
					c-0.489,0.594-0.604,1.428-0.498,2.166c0,0.01-0.01,0.01-0.01,0.01c-0.374-0.891-0.307-2.128,0.451-2.809
					c0.288-0.268,0.776-0.374,1.208-0.297c-0.316-1.131-1.361-2.118-2.627-1.735c-1.486,0.441-1.313,2.272-1.179,3.451
					c0.01,0.038-0.048,0.038-0.058,0.01c-0.336-1.083-0.671-2.444,0.086-3.461c0.546-0.719,1.572-0.959,2.416-0.767
					c1.054,0.24,1.764,1.16,2.042,2.166c0.144,0.527,0.153,1.074,0.096,1.61c-0.058,0.498-0.316,1.054-0.278,1.553
					C227.401,107.469,227.746,108.082,228.043,108.658z"/>
				<path d="M227.545,79.305c0.029-0.029,0.077,0.01,0.058,0.048c-3.202,4.668-3.834,10.199-2.559,15.635
					c0.01,0.038-0.048,0.067-0.067,0.029C222.637,89.716,223.912,83.667,227.545,79.305z"/>
				<path d="M227.228,256.607c0.048-0.029,0.105,0.038,0.058,0.077c-2.933,2.377-5.502,5.004-7.899,7.803
					c-2.329,2.722-4.496,5.598-6.662,8.541c-0.067,0.086-0.182,0.019-0.144-0.077c0.757-1.754,1.706-3.432,2.79-5.013
					C218.467,263.403,222.723,259.607,227.228,256.607z"/>
				<path fill="#FFBD52" d="M232.692,65.732c-4.285,0.901-8.484,1.764-11.331,5.483c-0.949,1.246-2.099,4.611-0.959,6.077
					c-0.441-0.47-0.949-0.901-1.256-1.495c-0.719-1.409-0.939-3.077-0.24-4.534c0.048-0.086-0.077-0.153-0.125-0.067
					c-0.815,1.352-1.016,3.029-0.441,4.525c0.115,0.316,0.307,0.7,0.537,1.083c-0.623-0.383-1.169-0.863-1.572-1.543
					c-0.939-1.601-0.738-4.227,0.163-5.78c0.029-0.038-0.029-0.077-0.058-0.048c-1.773,2.109-1.486,5.004,0.058,6.864
					c-0.767-0.451-1.447-1.045-1.984-1.793c-0.939-2.118,0-4.592,1.265-6.442c0.029-0.048-0.038-0.086-0.067-0.058
					c-1.064,1.16-1.965,2.742-2.166,4.333c-0.623-2.742,0.681-5.78,3.067-7.295C222.359,61.993,227.813,64.179,232.692,65.732z"/>
				<path d="M224.832,78.74c0.029-0.029,0.058,0.01,0.038,0.029c-1.725,2.234-2.195,4.85-3.173,7.42
					c-0.019,0.058-0.115,0.058-0.115-0.019C221.726,83.437,222.761,80.58,224.832,78.74z"/>
				<path fill="#FDBF90" d="M224.87,55.091c-3.01,1.821-5.339,4.525-5.828,7.928c-1.4,0.441-2.655,1.217-3.7,2.416l-8.071-15.711
					c-0.652-1.275-2.042-2.023-3.451-1.86c-5.704,0.633-9.279,0.987-10.075,0.987c-0.422,0-0.93-0.163-1.428-0.383
					c2.512-0.22,4.688-2.003,5.167-2.435l4.525-2.214l-5.071,1.265l-0.086,0.086c-0.029,0.019-2.454,2.272-5.023,2.272
					c-1.745,0-3.25-0.7-4.055-1.16l6.902-4.908c0.077-0.058,8.186-4.985,12.893-3.413C211.881,39.399,222.637,52.35,224.87,55.091z"
					/>
				<path d="M220.997,218.321c0.019-0.144,0.259-0.115,0.249,0.029c-0.259,3.029-0.47,6.423-2.866,8.599
					c-0.058,0.058-0.144-0.01-0.105-0.077C219.751,224.178,220.489,221.33,220.997,218.321z"/>
				<path fill="#FFFFFF" d="M219.387,264.486l1.256,1.054c-4.036,4.678-6.624,9.202-7.362,11.714c-1.4,4.697-0.134,8.11,0.671,9.643
					c-0.872-0.173-1.764-0.192-2.579-0.585c-1.658-0.815-1.697-2.464-1.352-4.084c0.01-0.048-0.058-0.077-0.086-0.029
					c-0.815,1.467-1.562,3.317-0.393,4.745c-1.486-0.336-2.502-1.61-3.336-2.665c-0.307-0.383-0.594-0.738-0.872-1.016
					c-0.757-0.757-0.345-2.377-0.125-2.943l0.115-0.288l-0.019-0.019c1.687-5.406,3.806-9.998,6.183-13.9l1.85,1.064
					c-0.374,0.479-0.661,1.007-0.796,1.572c-0.019,0.086,0.067,0.125,0.125,0.077c0.604-0.479,1.016-1.169,1.495-1.754l1.208,0.863
					c-1.083,1.582-2.032,3.259-2.79,5.013c-0.038,0.096,0.077,0.163,0.144,0.077C214.891,270.085,217.058,267.209,219.387,264.486z"
					/>
				<path d="M219.818,215.013c0.038-0.115,0.201-0.067,0.182,0.048c-1.63,8.062-5.598,19.584-15.941,18.693
					c-0.192-0.019-0.182-0.268,0-0.288C213.511,232.316,217.374,223.037,219.818,215.013z"/>
				<path d="M215.562,265.157c0.058-0.048,0.115,0.048,0.067,0.086c-0.518,0.585-0.978,1.217-1.467,1.831
					c-0.479,0.585-0.891,1.275-1.495,1.754c-0.058,0.048-0.144,0.01-0.125-0.077c0.134-0.566,0.422-1.093,0.796-1.572
					C213.961,266.384,214.814,265.713,215.562,265.157z"/>
				<path d="M200.033,260.192c0.067,0.096-0.086,0.211-0.163,0.125c-4.716-5.033-5.272-11.513-4.707-18.06
					c0.01-0.048,0.086-0.048,0.086,0C195.144,248.439,196.515,255.044,200.033,260.192z"/>
				<path fill="#FDBF90" d="M194.166,37.885c0.278,0.671,0.604,1.86-0.144,2.636l-5.876,4.179c-0.249-0.882-0.46-2.205,0.096-2.761
					C189.038,41.134,192.22,39.093,194.166,37.885z"/>
			</g>
		</g>
	</g>
</g>
</svg>
