<?xml version="1.0" encoding="utf-8"?>
<!-- Generator: Adobe Illustrator 27.6.1, SVG Export Plug-In . SVG Version: 6.00 Build 0)  -->
<svg version="1.1" id="OBJECT" xmlns="http://www.w3.org/2000/svg" xmlns:xlink="http://www.w3.org/1999/xlink" x="0px" y="0px"
	 viewBox="0 0 500 500" enable-background="new 0 0 500 500" xml:space="preserve">
<g>
	<g>
		<path fill="#FFBD52" d="M257.625,128.148c-0.054,0-4.188-0.107-4.349,0c-0.161,0.107-1.288,7.57-1.127,7.57
			s6.442-0.43,6.496-0.644S257.625,128.148,257.625,128.148z"/>
	</g>
	<g>
		<g id="XMLID_2_">
			<g>
				<path d="M344.71,389.405c0.125,0.21,0.148,0.46,0.062,0.686c-0.031,0.078-0.748,1.87-2.898,2.633
					c-1.184,0.421-6.544-0.358-11.35-1.2c4.705,1.901,9.379,3.607,10.789,3.607c0.023,0,0.039,0,0.062,0
					c0.273,0,0.53,0.148,0.67,0.39c0.148,0.249,0.14,0.553-0.008,0.795c-0.055,0.086-1.246,1.979-4.105,2.384
					c-1.979,0.273-11.778-2.929-18.984-5.414c3.568,3.817,9.628,10.189,11.701,11.685c0.187,0.132,0.304,0.335,0.319,0.561
					c0.023,0.226-0.055,0.444-0.21,0.608c-0.132,0.132-1.044,1.005-3.054,1.005c-0.802,0-1.776-0.132-2.945-0.514
					c-1.932-0.623-6.583-4.666-13.461-10.75c-4.612-4.082-10.345-9.153-11.662-9.488c-1.48-0.382-4.222,0.911-6.645,2.049
					c-2.025,0.95-3.942,1.846-5.305,1.885c-2.921,0.055-6.123-1.184-6.598-3.724c-0.101-0.569-0.016-1.052,0.265-1.441
					c0.53-0.724,1.542-0.849,2.719-0.997c0.935-0.117,1.994-0.249,3.007-0.67c2.399-1.013,7.4-12.129,8.226-16.6
					c0.109-0.561,0.265-1.309,0.452-2.22c0.647-3.116,1.745-8.398,2.547-14.676c0.74-5.811,1.231-12.472,0.88-19.054
					c-0.865-16.172-0.834-37.758-0.483-46.491c0.125-3.178,0.553-10.968,1.13-19.864c-2.649,3.451-6.053,5.772-10.181,6.879
					c-8.016,2.15-16.04-0.016-20.433-1.667c11.677,13.695,24.297,41.411,24.866,42.666c0.125,0.28,0.07,0.615-0.14,0.841
					c-0.203,0.234-0.53,0.319-0.826,0.21c-0.031-0.008-1.161-0.389-2.945-0.763c1.597,4.76,6.762,20.854,7.252,30.841
					c0.094,2.033,0.008,4.144-0.257,6.255c-1.387,10.914-7.541,22.077-17.496,25.185c-2.703,0.849-5.617,1.176-8.507,1.176
					c-9.223,0-18.283-3.342-20.114-4.059c-3.794,4.791-11.179,6.139-17.496,6.31c2.049,4.721,3.84,7.237,4.752,7.65
					c0.312,0.14,0.631,0.249,0.958,0.335c0.016,0,0.039-0.016,0.055-0.023c0.078-0.016,0.14,0.023,0.164,0.086
					c0.623,0.164,1.246,0.265,1.815,0.351c1.168,0.179,2.181,0.327,2.688,1.067c0.273,0.389,0.351,0.872,0.226,1.441
					c-0.475,2.228-3.295,3.724-6.684,3.56c-1.371-0.07-3.264-1.02-5.266-2.018c-2.384-1.192-5.087-2.555-6.583-2.212
					c-1.324,0.304-7.182,5.235-11.88,9.192c-7.034,5.928-11.786,9.854-13.734,10.431c-1.091,0.319-2.01,0.444-2.781,0.444
					c-2.134,0-3.077-0.95-3.202-1.091c-0.156-0.164-0.226-0.389-0.203-0.615c0.031-0.226,0.148-0.421,0.335-0.553
					c2.127-1.449,8.32-7.65,11.989-11.381c-6.614,2.103-17.083,5.289-19.109,4.939c-2.851-0.475-4.004-2.392-4.051-2.477
					c-0.14-0.241-0.14-0.553,0.008-0.795s0.421-0.397,0.701-0.374c1.363,0.078,6.131-1.535,10.922-3.334
					c-4.83,0.709-10.205,1.363-11.373,0.911c-2.134-0.818-2.812-2.625-2.836-2.703c-0.086-0.226-0.055-0.483,0.07-0.686
					c0.132-0.203,0.343-0.335,0.584-0.358c0.857-0.078,1.971-0.257,3.217-0.491c-0.436,0-0.763-0.031-0.966-0.086
					c-1.947-0.53-2.485-2.43-2.508-2.508c-0.055-0.21-0.023-0.436,0.093-0.623c0.125-0.187,0.319-0.312,0.538-0.351
					c0.062-0.008,6.606-1.083,10.454-1.994l0.428-0.101c3.49-0.818,9.932-2.329,13.765-11.685
					c-5.57-4.339-11.381-14.653-16.561-23.97c-1.363,0.709-4.666,1.363-7.844,1.363c-1.589,0-3.155-0.164-4.425-0.569
					c-4.658-1.48-6.045-6.333-7.058-9.878c-1.052-3.685,0.374-13.882,0.693-16.04c-0.148-0.148-0.273-0.288-0.382-0.397
					c-11.451,3.085-15.315-8.943-15.354-9.068c-0.078-0.241-0.023-0.506,0.132-0.709c0.164-0.203,0.413-0.304,0.67-0.296
					c0.296,0.023,7.587,0.351,10.984-9.566c1.293-3.786,1.426-7.922,1.581-12.705c0.265-8.421,0.6-18.891,7.432-33.1
					c9.122-18.961,25.411-24.686,30.116-25.941l-0.187-1.87c-1.87-18.345,2.025-39.16,14.824-45.229
					c-2.353-3.03-1.768-6.995,0.008-9.792c2.36-3.724,6.388-5.328,10.252-4.098c4.035,1.285,6.777-0.312,8-2.236
					c0.919-1.457,0.989-3.093,0.164-3.887c-0.654-0.639-1.955-1.122-3.342-1.628c-3.467-1.278-8.218-3.03-8.218-9.239
					c0-6.988,5.328-9.66,7.424-10.439c-0.943-2.68-0.67-5.461,0.771-7.58c1.496-2.197,4.035-3.404,7.167-3.404
					c5.328,0,6.357-5.219,7.595-13.742l0.148-1.02c2.392-16.32,11.786-25.076,27.919-26.019c20.153-1.192,29.61,7.112,31.23,8.701
					c6.123,0.179,15.019,5.071,19.794,13.999c4.37,8.156,0.872,18.182-0.467,21.391c1.348,0.14,3.568,0.615,5.282,2.205
					c1.581,1.465,2.384,3.521,2.384,6.115c0,6.544-4.316,8.818-6.349,9.519c0.771,1.005,2.025,1.605,3.435,2.282
					c3.373,1.62,7.572,3.646,4.939,12.729c-1.433,4.947-3.505,7.798-6.162,8.483c-1.402,0.358-2.688,0.047-3.669-0.405
					c-0.28,0.016-0.561-0.031-0.834-0.132c-0.834,3.085-3.934,4.697-6.847,5.43c0.055,0.039,0.109,0.07,0.156,0.125
					c0.031,0.039,0.047,0.086,0.07,0.132c0.148,0.07,0.296,0.14,0.444,0.21c13.173,6.388,15.782,28.052,12.526,46.678
					c-3.038,17.403-8.888,49.497-9.293,51.71c0.14,1.192,1.083,10.252-0.919,28.488c-0.693,6.302-1.948,13.266-3.163,19.997
					c-2.516,13.944-5.118,28.363-2.859,37.61c3.163,12.994,10.664,14.933,14.684,15.977l0.428,0.109
					c3.833,1.02,10.345,2.243,10.407,2.259c0.218,0.039,0.405,0.171,0.522,0.358c0.117,0.187,0.148,0.413,0.078,0.631
					c-0.023,0.078-0.608,1.963-2.571,2.446c-0.195,0.047-0.514,0.07-0.95,0.062c1.231,0.265,2.345,0.467,3.194,0.576
					C344.375,389.063,344.586,389.203,344.71,389.405z M341.524,386.889c0.444-0.109,0.763-0.351,0.989-0.6
					c-0.709-0.14-1.722-0.343-2.867-0.576c-0.093,0.203-0.164,0.413-0.226,0.631c-0.016,0.039-0.078,0.055-0.101,0.008
					c-0.093-0.195-0.125-0.46-0.086-0.724c-2.025-0.421-4.378-0.943-6.17-1.41l-0.421-0.117
					c-4.027-1.044-12.425-3.217-15.814-17.107c-2.329-9.566,0.304-24.157,2.843-38.257c1.207-6.715,2.462-13.648,3.147-19.896
					c2.088-18.992,0.919-28.145,0.904-28.239c-0.008-0.078-0.008-0.164,0.008-0.241c0.062-0.335,6.185-33.879,9.317-51.811
					c3.054-17.473,0.701-39.004-11.669-45.01c-0.125-0.062-0.249-0.125-0.374-0.179c-1.207,1.379-4.947,6.333-8.662,18.229
					c-4.588,14.692-6.396,42.814-6.419,43.094c-0.125,4.69-0.982,11.514-4.362,17.34c-0.748,11.163-1.192,19.709-1.301,22.49
					c-0.351,8.709-0.382,30.217,0.475,46.35c0.74,13.882-2.197,28.067-3.451,34.12c-0.187,0.904-0.343,1.644-0.444,2.189
					c-0.787,4.222-5.827,16.351-9.161,17.753c-0.047,0.023-0.101,0.031-0.156,0.055c0.101,0.218,0.164,0.444,0.171,0.662
					c0.023,0.717-0.366,1.231-0.966,1.558c-0.008,0.008-0.023,0.008-0.031,0.008c-0.055,0-0.101-0.07-0.047-0.109
					c0.421-0.335,0.678-0.935,0.576-1.472c-0.039-0.187-0.109-0.335-0.203-0.467c-0.989,0.319-1.955,0.452-2.758,0.553
					c-0.608,0.07-1.527,0.187-1.651,0.366c0,0-0.023,0.062,0.008,0.234c0.234,1.239,1.893,2.228,3.965,2.423
					c0.343,0.031,0.701,0.047,1.059,0.031c1.036-0.023,2.89-0.896,4.682-1.737c2.368-1.114,4.806-2.259,6.731-2.259
					c0.335,0,0.662,0.031,0.958,0.109c1.605,0.405,5.726,3.996,12.308,9.831c5.227,4.627,11.147,9.862,12.908,10.439
					c1.722,0.553,2.859,0.491,3.544,0.312c-0.779-0.678-1.768-1.62-2.859-2.695c-0.132,0.039-0.273,0.07-0.405,0.132
					c-0.475,0.218-0.74,0.639-0.678,1.176c0.008,0.093-0.109,0.101-0.156,0.047c-0.366-0.538-0.226-1.13,0.156-1.62
					c0.125-0.164,0.28-0.273,0.46-0.358c-3.319-3.311-7.346-7.634-9.473-9.932l-0.148-0.164c-0.008,0-0.008-0.008-0.008-0.008
					l-0.008-0.008c-0.234-0.265-0.265-0.647-0.07-0.935c0.195-0.304,0.569-0.436,0.904-0.319l0.21,0.078
					c11.428,4.012,19.677,6.489,21.01,6.302c0.865-0.125,1.519-0.421,1.994-0.724c-1.114-0.273-2.555-0.732-4.121-1.293
					c-0.171,0.241-0.257,0.506-0.413,0.756c-0.023,0.039-0.078,0.047-0.117,0.016c-0.234-0.241-0.218-0.631-0.062-0.982
					c-4.908-1.784-12.277-5.336-12.16-5.718c0.125-0.382,0.506-0.608,0.896-0.53c5.609,1.106,11.693,2.134,15.074,2.493
					c1.324,0.148,2.243,0.187,2.547,0.086c0.608-0.218,1.044-0.553,1.355-0.865c-0.88-0.156-1.893-0.366-2.968-0.608
					c-0.335,0.218-0.639,0.405-0.818,0.826c-0.008,0.023-0.031,0.039-0.055,0.039c-0.016,0-0.039-0.008-0.055-0.031
					c-0.21-0.312-0.086-0.74,0.171-1.013c-4.993-1.176-11.654-3.467-11.56-3.872C327.518,385.339,340.948,387.029,341.524,386.889z
					 M337.396,167.89c2.282-7.883-0.834-9.379-4.129-10.968c-1.574-0.756-3.178-1.542-4.168-2.991
					c-0.53,0.428-1.176,0.732-1.924,0.841c-0.117,0.023-0.265-0.086-0.218-0.203c0.008-0.016,0.008-0.031,0.023-0.047
					c0.997-1.27,2.251-2.469,2.61-4.082c0.467-2.072-0.436-3.942-1.776-5.492c-1.394-1.62-4.059-3.49-3.225-5.874
					c0.016-0.047,0.078-0.031,0.07,0.016c-0.397,2.446,2.82,4.059,4.284,5.585c0.989,1.028,1.753,2.158,2.01,3.568
					c0.195,1.083,0.093,2.298-0.296,3.389c0.273-0.125,0.576-0.273,0.888-0.46c0.67-0.935,1.161-1.932,1.223-3.225
					c0.109-2.212-0.95-4.113-2.01-5.99c-0.047-0.086,0.07-0.179,0.148-0.109c1.932,1.729,3.108,4.331,2.727,6.894
					c-0.039,0.265-0.101,0.53-0.171,0.795c0.055-0.062,0.101-0.132,0.156-0.203c0.88-2.625,0.343-5.102-1.34-7.728
					c-0.008-0.008,0.016-0.023,0.023-0.016c1.831,1.332,2.633,3.482,2.485,5.578c0.327-0.95,0.53-2.064,0.53-3.404
					c0-2.158-0.639-3.848-1.893-5.009c-1.947-1.815-4.838-1.854-5.274-1.846c-0.678,1.511-0.795,2.867,0.195,4.752
					c0.039,0.078-0.047,0.187-0.125,0.125c-3.108-2.127-1.729-4.783-0.288-7.346c1.34-3.42,4.207-12.511,0.366-19.693
					c-2.82-5.266-6.824-8.709-10.61-10.758c0.195,0.156,0.374,0.304,0.538,0.436c3.116,2.641,5.025,6.318,6.31,10.072
					c0.016,0.039-0.047,0.07-0.07,0.031c-1.309-2.555-2.804-4.993-4.729-7.136c1.566,2.197,2.664,4.713,3.061,7.369
					c0.016,0.093-0.125,0.171-0.171,0.07c-2.15-4.643-4.884-8.546-8.585-11.794c-0.335-0.156-0.67-0.312-1.021-0.444
					c-1.13-0.421-2.54-0.46-3.622-0.989c-0.538-0.078-1.052-0.078-1.55-0.047c-1.348,5.422-1.449,10.587,2.594,15.128
					c3.482,3.911,6.645,7.237,7.151,12.705c0.008,0.086-0.125,0.101-0.148,0.023c-0.95-3.163-2.43-6.131-4.619-8.631
					c-1.885-2.15-4.214-3.911-5.578-6.481c-2.041-3.856-1.807-8.772,0.062-12.705c-1.714,0.234-3.202,1.059-4.417,2.236
					c-3.56,5.959-2.205,12.402-0.647,18.836c0.023,0.101-0.125,0.179-0.179,0.078c-2.563-5.017-3.482-11.521-0.974-16.632
					c-1.067,1.784-1.714,3.856-1.846,5.788c-0.008,0.086-0.132,0.086-0.14,0c-0.397-3.241,0.631-6.411,3.061-8.701
					c0.413-0.382,0.865-0.748,1.348-1.059c-1.145-1.098-2.095-2.353-3.373-3.35c-1.706-1.332-3.607-2.321-5.64-3.085
					c-0.031-0.016-0.023-0.055,0.008-0.047c3.381,0.826,7.712,3.054,9.41,6.24c0.428-0.257,0.88-0.467,1.348-0.639
					c-0.023-0.031-0.047-0.055-0.047-0.07c-0.14-0.203-0.296-0.405-0.452-0.608c-0.288-0.366-0.608-0.709-0.95-1.036
					c-0.732-0.701-1.55-1.223-2.376-1.799c-0.008-0.008,0-0.023,0.008-0.016c0.958,0.296,1.877,0.911,2.625,1.566
					c0.514,0.444,1.254,1.13,1.644,1.815c0.639-0.195,1.301-0.28,1.963-0.257c0.086-0.156,0.179-0.304,0.265-0.46
					c-2.875-2.368-12.09-8.538-29.205-7.541c-13.103,0.771-21.508,6.988-25.084,18.517c2.018-3.981,5.78-6.341,9.41-8.842
					c0.062-0.039,0.117,0.055,0.062,0.101c-3.763,2.797-7.104,5.975-8.912,10.306c-0.514,1.254-0.95,2.54-1.332,3.848
					c1.2-2.384,2.82-4.565,4.838-6.403c0.008-0.008,0.023,0,0.016,0.008c-4.238,5.04-5.92,10.594-6.341,16.99
					c-0.273,4.129-1.317,9.41-6.162,10.618c-0.055,0.016-0.086-0.062-0.039-0.086c4.417-1.955,4.923-6.388,5.243-10.657
					c-1.207,3.817-3.241,6.388-7.455,6.388c-2.586,0-4.674,0.966-5.866,2.726c-1.005,1.48-1.293,3.381-0.865,5.297
					c0.654-1.651,1.947-3.272,3.108-4.238c0.795-0.662,1.683-1.192,2.688-1.496c1.659-0.506,3.412-0.366,4.76-1.613
					c0.047-0.047,0.117,0.023,0.07,0.07c-1.581,1.706-4.16,1.667-6.029,2.968c-1.27,0.888-2.197,2.119-2.929,3.451
					c-0.436,0.802-0.701,1.714-1.13,2.516c0.07,0.195,0.062,0.405-0.031,0.592c0.312-0.132,0.608-0.273,0.88-0.452
					c1.013-0.67,1.496-1.823,2.446-2.547c1.605-1.231,3.794-1.41,5.757-1.402c0.023,0,0.031,0.039,0.008,0.047
					c-2.018,0.467-4.207,0.834-5.663,2.392c-1.083,1.161-1.55,2.158-3.077,2.836c-1.901,0.834-3.529,1.496-4.736,3.256
					c-1.34,1.94-1.667,4.409-0.958,6.614c0.016,0.047-0.062,0.078-0.086,0.031c-1.41-3.116-0.911-6.481,1.519-8.701
					c-1.815,1.348-3.669,3.661-3.669,7.564c0,5.165,3.833,6.583,7.214,7.829c1.519,0.553,2.836,1.044,3.731,1.823
					c-0.382-1.075-0.997-2.127-1.854-3.186c-0.039-0.047,0.023-0.101,0.07-0.062c1.605,1.254,3.233,2.882,3.622,4.931
					c0.039,0.179,0.062,0.351,0.078,0.522c0.164,1.737-0.514,3.459-1.285,4.993c-1.714,3.435-4.783,6.816-9.122,5.788
					c-0.21-0.055-0.156-0.343,0.047-0.351c3.428-0.078,5.78-2.493,7.346-5.211c-1.815,1.613-4.697,2.563-8.491,1.348
					c-3.84-1.223-6.949,1.098-8.444,3.459c-1.535,2.423-2.033,5.881,0.14,8.374c0.647-0.242,1.324-0.483,2.096-0.709
					c0.07-0.023,0.14-0.031,0.21-0.055c-1.239-0.989-1.792-3.264-1.651-4.658c0.257-2.547,1.862-5.313,4.573-5.671
					c0.078-0.008,0.086,0.117,0.016,0.14c-2.244,0.654-3.202,3.505-3.365,5.609c-0.156,2.08,0.763,3.023,2.01,4.175
					c0.81-0.187,1.628-0.327,2.446-0.444c-0.763-0.343-1.433-0.911-1.94-1.605c-0.989-1.355-0.958-2.945-0.257-4.409
					c0.031-0.062,0.132-0.023,0.109,0.039c-0.576,1.457,0.148,3.108,1.231,4.136c0.748,0.701,1.698,1.106,2.578,1.628
					c0.452-0.047,0.904-0.078,1.348-0.109c-0.678-0.623-1.176-1.465-1.317-2.275c-0.008-0.039,0.039-0.055,0.062-0.023
					c0.561,0.74,1.122,1.41,1.916,1.916c0.187,0.125,0.389,0.226,0.592,0.327c4.464-0.132,8.717,0.475,12.3,1.207
					c-0.008-0.031-0.008-0.062-0.008-0.093c-0.023-0.732,0.21-1.387,0.748-1.885c0.055-0.055,0.156,0.016,0.109,0.086
					c-0.428,0.623-0.405,1.324-0.203,2.025c0.818,0.179,1.613,0.351,2.345,0.53c-0.093-0.724,0.132-1.574,0.382-2.142
					c0.553-1.254,1.535-2.08,2.727-2.695c0.078-0.047,0.14,0.062,0.062,0.109c-1.301,0.872-1.932,2.407-2.002,3.926
					c-0.016,0.241,0.117,0.709,0.156,1.13c0.467,0.117,0.919,0.234,1.332,0.335c1.387,0.358,2.477,0.639,3.077,0.701
					c0.023,0.008,0.07,0.016,0.187-0.093c1.69-1.48,2.493-10.82,2.617-16.616c-0.974-1.761-1.799-3.396-2.399-4.752
					c-0.031-0.023-0.055-0.047-0.086-0.062c-0.678-0.413-1.418-0.717-2.134-1.075c-0.016,0-0.031,0-0.047,0
					c3.357,3.552,4.464,10.696,0.818,13.78c-0.031,0.031-0.07-0.016-0.047-0.047c2.306-2.493,1.745-6.715,0.421-9.551
					c-0.904-1.932-2.695-3.264-3.669-5.079c-0.086-0.047-0.164-0.093-0.241-0.14c3.739,5.648,5.344,14.941-1.932,17.839
					c-0.008,0.008-0.016-0.008-0.008-0.016c3.467-2.236,4.588-6.419,3.786-10.337c-0.693-3.396-2.781-6.154-3.981-9.34
					c0.047,0.28,0.086,0.545,0.148,0.81c0.28,1.192,0.631,2.337,1.005,3.498c0,0.016-0.023,0.023-0.031,0.008
					c-1.083-1.659-2.306-4.331-2.08-6.473c-0.366-0.865-0.724-1.87-1.036-2.991c-0.093,0.857-0.257,1.714-0.257,2.578
					c-0.008,1.838,0.109,3.778,1.192,5.321c0.039,0.055-0.039,0.109-0.086,0.07c-1.737-1.449-2.399-5.048-1.877-7.712
					c-1.278,3.194-1.729,6.816,0.865,9.519c0.016,0.016-0.008,0.047-0.023,0.031c-0.234-0.171-0.452-0.351-0.654-0.538
					c-1.574-1.465-2.244-3.521-2.088-5.671c0.109-1.636,0.615-5.009,2.36-5.99c0-0.016,0-0.031-0.008-0.047
					c-0.966,0.125-1.963,0.226-3.03,0.28c0,0,19.522-2.61,20.838-20.846c0.241-2.134,0.46-3.981,1.052-5.274
					c2.929-6.31,10.252-4.861,16.133-3.692c6.325,1.254,9.465-2.415,9.496-2.454c0.016-0.023,0.039-0.031,0.062-0.055
					c0.016-0.226,0.055-0.452,0.078-0.686c-1.114,0.841-3.498,1.27-4.199,1.402c-0.023,0-0.047-0.031-0.016-0.047
					c0.888-0.366,1.753-0.756,2.617-1.176c0.608-0.304,1.394-0.608,1.753-1.2c0.062-0.358,0.132-0.717,0.218-1.075
					c-0.732,0.421-1.605,0.693-2.353,0.911c-2.563,0.756-5.141,1.371-7.806,0.81c-0.055-0.008-0.039-0.093,0.016-0.093
					c2.181,0.101,4.214-0.39,6.279-1.028c1.737-0.538,3.038-1.137,4.308-2.15c0.28-0.849,0.631-1.683,1.028-2.477
					c-1.41,0.911-3.311,1.387-4.814,1.683c-2.672,0.538-5.406,0.499-8.102,0.164c-0.023,0-0.023-0.031,0-0.031
					c2.555-0.031,5.118-0.156,7.619-0.709c2.197-0.491,3.965-1.69,6.006-2.407c0.21-0.351,0.428-0.686,0.662-1.013
					c-3.576,2.119-9.145,1.005-12.721-0.078c-0.031-0.008-0.031-0.062,0.008-0.062c2.477,0.296,4.931,0.701,7.432,0.46
					c1.48-0.14,2.812-0.615,4.16-1.075c-5.57,0.623-11.28-2.571-16.834-2.493c-6.388,0.078-12.729,3.56-16.304,8.639
					c-0.062,0.086-0.195,0.008-0.148-0.086c2.82-5.235,7.969-8.756,14.006-9.574c7.517-1.005,14.256,3.513,21.765,2.571
					c0.062-0.07,0.14-0.14,0.21-0.21c-0.888,0.039-1.753-0.249-2.602-0.81c-2.353-1.566-4.627-3.132-7.603-3.186
					c-0.047,0-0.039-0.062,0-0.07c1.885-0.171,3.56,0.171,5.243,1.005c0.966,0.483,1.792,1.13,2.703,1.69
					c0.989,0.608,1.94,0.639,2.991,0.647c0.249-0.234,0.499-0.452,0.756-0.67c-1.488-0.413-2.314-1.792-3.482-2.781
					c-2.142-1.807-4.923-3.023-7.806-2.89c-0.086,0.008-0.086-0.125,0-0.132c2.111-0.226,4.059,0.047,5.959,1.005
					c0.927,0.467,1.784,1.067,2.555,1.753c1.075,0.935,1.877,2.134,3.248,2.688c0.382-0.288,0.771-0.553,1.176-0.795
					c0.039-0.023,0.078,0.023,0.047,0.055c-0.491,0.592-0.974,1.192-1.433,1.799c0.055,0.039,0.07,0.125-0.008,0.164
					c-0.062,0.039-0.132,0.062-0.203,0.101c-1.838,2.446-3.396,5.071-4.23,8.031c-0.779,2.765-0.763,5.554-0.444,8.343
					c0.795,4.682,3.132,11.903,9.963,15.393c5.687,2.906,9.395,3.077,11.599,2.625c0.522-0.631,1.098-1.184,1.706-1.566
					c0.023-0.039,0.055-0.086,0.078-0.125c-3.054,0.358-6.411-0.296-8.795-1.332c-4.877-2.127-8.211-6.489-9.605-11.553
					c-0.008-0.023,0.031-0.039,0.047-0.008c1.761,4.549,5.243,8.53,9.8,10.423c2.298,0.958,4.931,1.27,7.4,1.028
					c2.36-0.226,4.386-1.293,6.653-1.838c0.296-0.07,0.452,0.265,0.28,0.475c-0.834,1.013-1.916,1.714-3.132,2.181
					c-0.132,2.041,4.308,3.708,5.632,4.752c1.69,1.332,2.703,3.217,3.015,5.344c0.171,1.176,0.101,2.353-0.171,3.482
					c-0.273,1.137-0.756,2.236-1.41,3.209c-1.059,1.597-2.563,2.898-4.347,3.654c-0.039,0.023-0.07-0.031-0.031-0.062
					c4.246-2.843,6.902-9.737,2.773-13.921c-1.223-1.239-4.619-2.516-6.053-4.362c-0.062,0.101-0.288,0.405-0.608,0.888
					c0.023,0.351,0.055,0.693,0.125,1.036c0.312,1.605,1.122,2.43,2.314,3.42c1.192,0.997,2.002,2.173,2.555,3.615
					c0.008,0.031-0.031,0.047-0.047,0.023c-0.935-1.605-2.033-2.532-3.591-3.49c-0.779-0.483-1.371-0.966-1.838-1.776
					c-0.234-0.413-0.397-0.834-0.514-1.27c0,0-0.008,0.008-0.008,0.016c-0.047,1.145-0.093,2.298,0.031,3.443
					c0.312,3.007,1.955,4.269,4.284,5.905c0.008,0.008,0.008,0.023-0.008,0.016c-2.01-0.849-4.261-2.08-5.157-4.191
					c-0.319-0.763-0.53-1.675-0.639-2.633c-0.187,0.335-0.374,0.686-0.569,1.044c-0.008,0.265-0.008,0.53,0,0.802
					c0.07,2.259,1.083,4.098,2.797,5.523c0.008,0.008,0,0.023-0.008,0.016c-1.597-0.686-2.976-2.041-3.622-3.661
					c-0.078-0.203-0.148-0.405-0.203-0.6c-0.132,0.288-0.273,0.584-0.405,0.888c0,1.184,0.148,2.337,0.693,3.342
					c0.008,0.008,0,0.016-0.008,0.016c-0.639-0.522-1.067-1.137-1.348-1.799c-0.304,0.763-0.592,1.542-0.849,2.329
					c-0.086,0.327-0.179,0.67-0.288,1.044c1.34-0.46,3.186-0.826,4.674-0.132c1.176,0.553,1.916,1.628,2.212,3.194
					c0.647,3.404-2.43,7.704-4.316,9.971c-1.48,1.761-3.287,3.537-4.9,4.697c-0.802,1.932-2.314,3.287-4.347,4.222
					c-0.132,0.062-0.28,0.132-0.428,0.203c0.086-0.008,0.171-0.008,0.257-0.016c2.119-0.421,3.981-1.457,5.391-3.264
					c0.039-0.047,0.109,0.008,0.078,0.062c-0.779,1.161-1.784,2.345-2.96,3.124c0.491-0.008,1.013,0.016,1.527,0.031
					c0.545-0.288,1.059-0.647,1.535-1.098c1.2-1.153,1.932-2.555,2.703-3.981c0.008-0.023,0.047-0.008,0.039,0.016
					c-0.421,1.472-1.254,3.615-2.524,5.056c0.374,0.008,0.732,0.023,1.044,0.047c0.771-0.405,1.48-0.896,2.072-1.542
					c1.254-1.363,1.496-2.804,1.815-4.542c0.514-2.75,2.719-4.479,5.079-5.866c0.047-0.031,0.093,0.031,0.055,0.062
					c-1.55,1.441-3.311,2.875-3.864,4.978c-0.421,1.613-0.195,3.132-1.005,4.666c-0.475,0.911-1.168,1.737-1.986,2.407
					c0.943,0.07,1.877,0.273,2.836,0.257c2.158-0.047,4.495-0.787,6.575-1.324c0.062-0.016,0.078,0.07,0.031,0.086
					c-1.675,0.701-3.474,1.511-5.305,1.955c0.872,0.218,1.745,0.467,2.617,0.756c1.558-0.132,6.972-0.841,8.289-4.386
					c-1.55,0.872-3.311,1.098-5.001,0.078c-0.148-0.093-0.132-0.343,0.055-0.389c1.94-0.405,3.778-0.615,5.321-1.667
					c0.086-0.164,0.218-0.304,0.397-0.374c0.047-0.023,0.093-0.031,0.14-0.039c0.226-0.195,0.452-0.413,0.662-0.654
					c1.683-1.955,2.321-5.048,1.542-7.486c-0.732-2.267-3.396-2.166-4.284-4.23c-0.514-1.192-0.428-2.508,0.023-3.692
					c0.039-0.086,0.07-0.179,0.109-0.265c0.008-0.008,0.023,0,0.023,0.008c-0.078,1.877,0.101,3.521,1.955,4.518
					c0.974,0.522,1.901,0.748,2.617,1.636c1.363,1.675,1.441,4.292,1.059,6.286c-0.28,1.441-1.184,3.139-2.438,4.51
					c0.195,0.132,0.444,0.28,0.724,0.421c0.724-0.28,1.379-0.631,1.994-1.371c0.678-0.81,1.161-1.745,1.48-2.742
					c0.686-2.166,0.678-4.713-0.389-6.754c-0.039-0.07,0.062-0.125,0.109-0.062c1.542,2.578,2.119,5.352,0.911,8.195
					c-0.382,0.88-1.254,2.212-2.329,3.139c0.538-0.179,1.067-0.413,1.566-0.787c1.34-0.989,2.103-2.345,2.493-3.918
					c0.732-2.968,0.467-6.068-0.491-8.943c0-0.008,0.016-0.016,0.023-0.008c1.503,2.547,2.166,6.17,1.472,9.184
					C336.733,169.97,337.084,168.988,337.396,167.89z M319.502,182.714c-0.436-0.164-0.865-0.327-1.301-0.483
					c-3.412,2.929-5.157,7.665-7.291,11.475c-0.008,0.008-0.031,0-0.023-0.008c0.631-2.781,1.924-5.43,3.357-7.876
					c0.857-1.48,1.737-3.007,3.202-3.747c-0.506-0.132-1.706-0.444-3.124-0.787c-0.46,0.662-0.958,1.293-1.371,1.979
					c-0.062,0.093-0.203,0.016-0.148-0.086c0.335-0.67,0.631-1.355,0.989-2.025c-0.732-0.171-1.496-0.351-2.236-0.522
					c-0.428-0.062-0.857-0.117-1.285-0.164c-0.023,0.062-0.039,0.132-0.078,0.187c-0.055,0.078-5.173,7.977-7.541,26.408
					c-2.173,16.873-1.145,35.483-0.826,40.196c1.527-1.363,2.321-2.508,2.563-2.875c0.171-2.625,2.025-29.057,6.466-43.265
					C314.368,189.889,317.897,184.677,319.502,182.714z M315.669,141.443c0.016,0,0.031,0,0.055,0
					c-0.039-0.164-0.055-0.327-0.055-0.499c-0.008,0-0.008,0-0.016,0.008C315.662,141.108,315.662,141.279,315.669,141.443z
					 M310.668,168.528c2.836-3.396,4.316-6.598,3.95-8.546c-0.195-1.013-0.6-1.651-1.262-1.955
					c-1.348-0.631-3.521,0.164-4.573,0.686c-0.21,0.67-0.444,1.379-0.693,2.119c0.569-0.335,1.2-0.514,1.909-0.335
					c0.966,0.241,1.496,1.044,1.535,2.01c0.101,2.633-2.181,5.359-4.3,6.637c-0.07,0.039-0.148-0.062-0.086-0.109
					c0.584-0.522,1.137-1.091,1.62-1.714c0.483-0.615,0.904-1.285,1.207-2.018c0.257-0.615,0.795-1.877,0.647-2.571
					c-0.241-1.122-1.215-1.753-2.282-1.511c-0.14,0.031-0.288,0.086-0.436,0.148c-0.218,0.608-0.444,1.231-0.686,1.854
					c0.428,0.062,0.826,0.304,1.044,0.701c0.405,0.709,0.382,2.103-0.397,2.555c-0.008,0.008-0.016,0.008-0.016,0.008
					c-0.031,0-0.047-0.039-0.023-0.055c0.6-0.506,0.351-1.628-0.195-2.111c-0.257-0.226-0.545-0.125-0.849,0.008
					c-1.231,3.03-2.773,6.131-4.619,8.569c-0.242,0.319-0.506,0.631-0.771,0.95c0.584,0.039,1.503,0.086,2.812,0.101
					C304.88,173.95,307.685,172.096,310.668,168.528z M311.097,144.551c-2.547,0.117-6.131-0.506-10.945-2.968
					c-9.247-4.721-10.875-15.323-11.147-19.452c-1.667,1.2-4.876,2.758-9.691,1.799c-7.011-1.394-12.152-2.002-14.396,2.836
					c-0.499,1.067-0.701,2.804-0.927,4.822c-0.6,5.157-1.48,12.768-8.997,17.2c-0.382,2.695-0.989,8.491,0.21,12.332
					c0.257,0.818,2.064,4.44,1.994,4.487c3.568,6.91,10.571,17.379,14.497,20.137c4.721,3.319,11.911-0.958,11.981-0.997
					c0.179-0.093,12.036-6.209,17.115-12.892c3.599-4.729,6.053-12.394,7.19-16.523
					C307.926,151.788,308.713,147.348,311.097,144.551z M308.58,180.315c-0.016,0-0.031,0-0.047,0c-0.576,0.093-1.169,0.101-1.776,0
					c-0.07-0.016-0.109-0.047-0.14-0.093c-0.195,0-0.382-0.008-0.576-0.008c-2.345,0.07-5.196,0.273-7.712,0.483
					c-1.316,0.164-2.501,0.351-3.521,0.506c-1.005,0.164-1.831,0.288-2.462,0.343c-0.693,0.475-1.371,0.919-2.025,1.332
					c-0.312,0.53-0.6,1.075-0.717,1.659c-0.296,1.496,0.647,3.015,2.197,3.147c0.156,0.016,0.265,0.249,0.094,0.327
					c-1.488,0.67-3.186-0.467-3.638-1.947c-0.187-0.615-0.195-1.262-0.055-1.885c-2.064,1.223-3.521,1.979-3.685,2.064
					c-0.195,0.117-4.175,2.493-8.483,2.493c-1.799,0-3.661-0.413-5.321-1.581c-3.365-2.368-8.655-9.722-12.518-16.242
					c-0.218,4.814-0.904,13.329-3.054,15.222c-0.53,0.467-1.052,0.514-1.394,0.475c-0.709-0.078-1.792-0.351-3.287-0.74
					c-1.184-0.304-11.475-2.415-15.409-2.493c17.239,18.657,10.47,64.111,9.543,69.837c15.728,6.123,27.553,0.6,27.686,0.538
					c0.094-0.047,0.187-0.062,0.28-0.07c1.472-3.194,1.62-6.855,1.091-10.345c-0.592-3.918-1.363-7.572-0.421-11.506
					c0.008-0.047,0.078-0.031,0.07,0.008c-0.358,5.102,2.127,9.979,2.142,15.097c0,1.566-0.132,4.799-1.145,6.902
					c13.477,1.324,21.508-1.979,26.05-5.367c-0.094-1.207-1.698-22.505,0.756-41.606
					C303.213,190.465,307.389,182.363,308.58,180.315z M308.612,100.966c-0.132-0.117-0.296-0.265-0.499-0.436
					c-0.031,0.117-0.062,0.234-0.094,0.351C308.214,100.904,308.417,100.927,308.612,100.966z M302.917,248.641
					c0.086-0.164,0.164-0.327,0.249-0.483c-0.28,0.257-0.576,0.514-0.896,0.787c-4.105,3.412-11.428,7.081-23.705,6.731
					c-3.108,0.288-6.209,0.787-9.286,1.309c-4.269,0.724-8.561,1.379-12.853,0.53c-5.328-0.405-11.615-1.924-18.361-5.648
					c0,0.312,0,0.631,0.008,0.943c0.615,0.911,1.317,1.714,2.29,2.399c1.324,0.927,2.89,1.309,4.277,2.095
					c0.047,0.023,0.023,0.086-0.023,0.086c-1.932-0.078-4.892-0.966-6.536-2.633c0.016,5.437,0,10.758-0.031,15.541
					c0.608,0.14,1.223,0.257,1.854,0.343c0.857,0.117,1.714,0.016,2.563,0.117c0.07,0.008,0.132,0.101,0.062,0.156
					c-1.2,0.95-2.952,1.106-4.495,0.834c-0.062,7.338-0.164,13.227-0.249,15.962c-0.203,6.419-1.075,19.771-2.321,32.78
					c1.059-0.436,2.298-0.335,3.451-0.28c1.519,0.07,3.077,0.156,4.557,0.522c2.968,0.732,5.305,2.898,8.148,3.965
					c0.078,0.031,0.047,0.132-0.039,0.125c-2.68-0.389-4.845-2.127-7.439-2.789c-1.636-0.413-3.544-0.389-5.227-0.452
					c-1.153-0.047-2.407,0.148-3.544-0.101c-0.055,0.553-0.109,1.098-0.164,1.651c1.574-0.467,4.744-0.732,9.73,1.862
					c6.738,3.505,8.102,3.248,16.273-3.015c2.345-1.799,4.121-3.311,5.687-4.651c3.926-3.357,6.302-5.383,11.747-6.427
					c5.375-1.036,10.68-0.023,13.297,0.654c-2.921-6.232-14.24-29.649-24.359-41.24c-0.319,1.753-2.025,3.357-3.56,3.996
					c-0.039,0.016-0.07-0.047-0.039-0.07c0.935-0.732,1.605-1.729,2.049-2.828c0.28-0.701,0.405-1.449,0.576-2.181
					c-0.203-0.218-0.413-0.444-0.615-0.654c-0.327,0.343-0.717,0.654-1.013,1.028c-0.654,0.826-1.285,1.659-2.025,2.415
					c-1.433,1.457-3.093,2.726-4.877,3.724c-3.638,2.049-7.689,2.921-11.833,2.212c-0.07-0.008-0.047-0.117,0.023-0.125
					c4.401-0.46,8.904-1.776,12.581-4.308c1.916-1.324,3.467-2.937,4.9-4.744c0.218-0.273,0.444-0.584,0.678-0.872
					c-4.471-0.693-8.81,0.016-13.259,1.418c-0.031,0.008-0.047-0.031-0.023-0.039c4.316-2.773,8.748-3.934,13.851-2.906
					c5.321,1.075,10.143,3.654,15.603,4.059c0.125,0.008,0.171,0.21,0.031,0.234c-0.078,0.016-0.148,0.023-0.218,0.039
					c2.82,0.203,5.842,0.055,8.834-0.748c4.627-1.239,8.273-4.121,10.875-8.561c0-0.008,0-0.008,0.008-0.008
					c2.306-3.918,3.404-8.359,3.895-12.238c-0.857,1.55-2.142,2.976-3.311,3.926c-2.259,1.838-5.048,2.68-7.728,3.7
					c-0.07,0.023-0.117-0.086-0.047-0.117c2.578-1.176,5.157-2.602,7.276-4.495C301.344,251.157,302.201,249.965,302.917,248.641z
					 M279.212,373.545c11.163-3.482,17.231-17.925,16.655-29.875c-0.506-10.345-6.364-28.036-7.447-31.246
					c-2.01-0.319-4.479-0.53-7.042-0.319c-13.57,4.144-26.626,20.067-28.737,22.723c1.644,9.605,3.568,25.645,0.047,34.517
					c-0.21,0.522-0.46,1.013-0.732,1.48C255.056,371.979,268.953,376.754,279.212,373.545z M249.104,159.032
					c1.729,1.722,3.342,1.846,4.23,1.729c-0.273-1.137-0.428-2.368-0.499-3.622c-0.156-2.68,0.062-5.422,0.296-7.385
					c-0.654,0.296-1.348,0.576-2.088,0.826c-0.46,0.421-0.849,0.896-1.036,1.566c-0.444,1.542-0.179,3.817,0.888,5.056
					c0.008,0.008,0.008,0.016,0.008,0.023c0,0.031-0.023,0.055-0.055,0.031c-0.608-0.428-1.036-1.083-1.317-1.815
					c-0.421-1.091-0.499-2.376-0.319-3.396c0.07-0.366,0.179-0.693,0.312-0.997c-1.013,0.28-2.111,0.514-3.28,0.709
					c0.343,1.55,0.787,2.984,1.239,4.168C248.068,157.467,248.668,158.596,249.104,159.032z M251.239,368.77
					c4.253-10.703,0.039-33.302-1.215-39.363c-2.002-0.935-8.351-3.708-11.708-3.163c-1.831,0.296-2.913,0.802-3.568,1.27
					c-0.242,2.244-0.491,4.44-0.756,6.536c-0.343,2.711-0.686,5.406-1.02,8.039c-1.574,12.207-3.054,23.728-2.493,27.218
					c0.28,1.706,1.223,4.651,2.43,7.611C238.821,376.824,248.528,375.594,251.239,368.77z M243.106,252.598
					c1.052-6.84,7.206-52.045-10.018-69.011c-0.055-0.062-0.101-0.132-0.132-0.203c-0.428,0.008-0.857,0.039-1.293,0.062
					c0.351,0.475,0.6,0.989,0.67,1.574c0,0.047-0.055,0.055-0.078,0.023c-0.335-0.506-0.662-1.028-1.091-1.472
					c-0.031-0.031-0.062-0.055-0.101-0.086c-0.522,0.047-1.052,0.093-1.574,0.164c0.802,0.732,1.511,1.722,1.932,2.321
					c1.363,1.909,2.29,4.09,2.968,6.325c0.008,0.008-0.008,0.016-0.016,0.008c-0.904-1.519-1.706-3.093-2.649-4.596
					c-0.569-0.904-1.192-1.768-1.924-2.555c-0.327-0.351-0.818-0.927-1.324-1.355c-0.779,0.125-1.558,0.265-2.337,0.452
					c3.529,3.521,13.508,15.782,11.451,40.165l-0.21-0.016c0.397,7.073,0.6,16.343,0.67,25.66
					C239.772,251.048,241.454,251.889,243.106,252.598z M242.693,389.039c0.039-0.171,0.016-0.234,0.016-0.234
					c-0.125-0.179-1.036-0.319-1.644-0.405c-0.662-0.101-1.449-0.226-2.251-0.46c-0.031,0.164-0.039,0.327,0.016,0.491
					c0.187,0.623,1.067,1.036,1.628,1.254c0.062,0.023,0.055,0.125-0.016,0.117c-0.911-0.062-1.971-0.148-2.282-1.192
					c-0.093-0.296-0.086-0.608-0.016-0.904c-0.164-0.055-0.319-0.109-0.475-0.179c-1.098-0.491-2.275-2.095-3.342-3.957
					c-1.059-1.862-2.01-3.996-2.664-5.57c-1.34-3.217-2.407-6.536-2.719-8.444c-0.6-3.708,0.826-14.809,2.477-27.662
					c0.343-2.633,0.686-5.328,1.02-8.039c2.01-16.047,3.513-37.501,3.786-46.195c0.086-2.836,0.203-9.052,0.265-16.756
					c-0.008-0.031-0.016-0.055-0.016-0.086c0-0.062,0.008-0.117,0.016-0.164c0.117-14.933,0.047-35.351-0.748-47.651
					c-0.475-2.765-0.787-5.562-1.418-8.304c-0.911-3.973-2.29-8.016-4.09-11.677c-0.023-0.055,0.055-0.125,0.101-0.07
					c2.734,3.178,4.277,6.66,5.25,10.727c0,0.023,0.008,0.047,0.016,0.07l0.545-0.132c-1.262-18.158-9.854-27.109-11.778-28.893
					c-0.74,0.234-1.418,0.467-2.033,0.717c-12.768,5.102-16.647,26.424-14.848,44.068l0.249,2.469
					c1.916,18.525,5.328,49.56,5.359,49.871c0.008,0.078,0.008,0.164-0.008,0.241c-0.023,0.093-1.846,9.138-1.106,28.231
					c0.187,4.9,0.304,9.589,0.351,13.921c0.249,20.418-0.88,35.437-3.373,44.644c-0.358,1.309-0.748,2.501-1.153,3.552
					c-4.098,10.602-11.241,12.269-15.074,13.165l-0.421,0.101c-1.823,0.436-4.23,0.904-6.286,1.278
					c0.07,0.109,0.117,0.226,0.14,0.351c0.016,0.094-0.023,0.21-0.132,0.234c-0.125,0.023-0.241,0.078-0.28-0.093
					c0-0.016,0.008-0.023,0.016-0.031c-0.101-0.101-0.187-0.234-0.265-0.319c-0.008-0.016-0.023-0.031-0.031-0.039
					c-1.052,0.187-1.994,0.351-2.656,0.46c0.218,0.257,0.53,0.506,0.966,0.623c3.42,2.571,16.328-2.314,16.413-1.909
					c0.078,0.405-0.171,0.802-0.569,0.911c-1.963,0.514-9.34,2.952-13.594,3.833c0.008,0.078,0.023,0.156,0.008,0.241
					c-0.062,0.545-0.428,0.709-0.919,0.748c-0.039,0-0.047-0.047-0.023-0.062c0.312-0.164,0.389-0.483,0.366-0.81
					c-1.075,0.21-2.08,0.397-2.945,0.53c0.296,0.319,0.732,0.662,1.34,0.896c1.075,0.382,12.028-2.36,19.872-3.716
					c0.382-0.062,0.771,0.171,0.88,0.553c0.109,0.382-0.086,0.787-0.452,0.935c-1.036,0.428-9.589,4.588-14.653,6.255
					c0.016,0.031,0.023,0.062,0.031,0.093c0.109,0.647-0.46,1.075-1.052,1.044c-0.078,0-0.101-0.117-0.023-0.132
					c0.374-0.055,0.678-0.475,0.569-0.849c-1.387,0.444-2.656,0.81-3.661,1.028c0.467,0.319,1.114,0.631,1.979,0.771
					c1.324,0.234,9.878-2.119,21.267-5.819l0.093-0.031c0.335-0.117,0.709,0.023,0.904,0.327c0.187,0.304,0.14,0.701-0.109,0.958
					l-0.117,0.125c-2.158,2.22-6.248,6.396-9.628,9.621c0.241,0.148,0.444,0.343,0.553,0.569c0.265,0.569-0.117,1.371-0.81,1.176
					c-0.008,0-0.008-0.016,0-0.016c0.304-0.055,0.506-0.397,0.428-0.693c-0.062-0.241-0.273-0.389-0.491-0.475
					c-0.07-0.023-0.14-0.039-0.218-0.055c-1.2,1.137-2.298,2.127-3.155,2.836c0.686,0.195,1.815,0.288,3.552-0.226
					c1.776-0.53,7.829-5.624,13.173-10.127c6.723-5.663,10.929-9.153,12.534-9.519c2.041-0.452,4.884,0.966,7.626,2.337
					c1.776,0.888,3.607,1.799,4.651,1.854C240.192,391.501,242.381,390.496,242.693,389.039z M209.173,359.663
					c1.106-7.876,1.651-18.112,1.636-30.599c-2.493,0.265-15.946,2.734-18.712,8.616
					C194.434,343.351,199.412,352.395,209.173,359.663z M198.438,327.701c2.96-2.166,6.022-4.401,12.324-4.261
					c-0.047-4.09-0.156-8.475-0.335-13.056c-0.709-18.33,0.88-27.296,1.114-28.488c-0.234-2.096-3.389-30.833-5.258-48.851
					c-4.222,1.176-20.02,6.707-28.87,25.107c-6.692,13.905-7.019,24.196-7.284,32.469c-0.148,4.908-0.288,9.153-1.659,13.157
					c-2.119,6.201-5.757,8.779-8.577,9.854c0.514,1.145,1.254,2.002,2.142,2.921c0.95,0.982,2.033,2.181,3.357,2.641
					c0.039,0.016,0.031,0.078-0.016,0.078c-1.542-0.07-2.929-1.106-4.136-2.002c-1.091-0.81-2.064-1.947-2.508-3.248
					c-0.647,0.171-1.215,0.273-1.675,0.319c1.114,2.633,4.923,9.535,13.539,6.949c0.288-0.086,0.608,0,0.802,0.234
					c0.109,0.117,10.742,11.965,19.163,10.127C194.091,330.879,196.296,329.267,198.438,327.701z M207.459,368.474
					c0.553-2.049,1.036-4.425,1.457-7.073c-14.334-10.314-18.984-24.484-19.958-28.005c-0.078,0-0.164,0.008-0.241,0.008
					c-2.602,0-5.25-0.919-7.696-2.212c-3.576-1.901-6.731-4.612-8.694-6.497c-0.46,3.365-1.402,11.319-0.569,14.232
					c1.184,4.16,2.454,7.689,6.029,8.826c0.841,0.265,1.799,0.405,2.797,0.46c0.062-0.81-0.047-1.581-0.584-2.314
					c-0.475-0.647-1.184-0.849-1.675-1.41c-0.795-0.888-0.732-2.454-0.849-3.576c0-0.039,0.062-0.047,0.078-0.008
					c0.132,0.576,0.187,1.332,0.444,1.87c0.483,1.005,0.919,0.787,1.714,1.184c0.686,0.335,1.262,0.904,1.651,1.566
					c0.452,0.779,0.709,1.846,0.506,2.719c1.348-0.016,2.695-0.164,3.856-0.351c0.07-0.631-0.031-1.301-0.257-1.846
					c-0.358-0.888-0.958-1.145-1.62-1.714c-0.857-0.748-0.888-1.877-0.927-2.945c0-0.047,0.078-0.055,0.086-0.008
					c0.226,1.021,0.53,1.675,1.48,2.205c0.335,0.187,0.631,0.265,0.943,0.506c0.748,0.584,1.184,1.48,1.371,2.392
					c0.062,0.312,0.109,0.748,0.093,1.184c0.919-0.195,1.613-0.413,1.94-0.584c-3.716-6.668-7.182-12.83-9.239-13.991
					c0,0,0.039-0.008,0.117-0.008c0.678,0,4.331,0.678,10.875,13.96c4.83,8.686,10.781,19.381,16.133,23.837
					C206.976,370.133,207.225,369.338,207.459,368.474z"/>
				<path fill="#FDBF90" d="M342.514,386.289c-0.226,0.249-0.545,0.491-0.989,0.6c-0.576,0.14-14.006-1.55-14.1-1.153
					c-0.093,0.405,6.567,2.695,11.56,3.872c-0.257,0.273-0.382,0.701-0.171,1.013c0.016,0.023,0.039,0.031,0.055,0.031l-0.062,0.522
					c-3.381-0.358-9.465-1.387-15.074-2.493c-0.389-0.078-0.771,0.148-0.896,0.53c-0.117,0.382,7.252,3.934,12.16,5.718
					c-0.156,0.351-0.171,0.74,0.062,0.982c0.039,0.031,0.093,0.023,0.117-0.016c0.156-0.249,0.241-0.514,0.413-0.756
					c1.566,0.561,3.007,1.02,4.121,1.293c-0.475,0.304-1.13,0.6-1.994,0.724c-1.332,0.187-9.582-2.29-21.01-6.302l-0.21-0.078
					c-0.335-0.117-0.709,0.016-0.904,0.319c-0.195,0.288-0.164,0.67,0.07,0.935l0.008,0.008c0,0,0,0.008,0.008,0.008l0.148,0.164
					c2.127,2.298,6.154,6.621,9.473,9.932c-0.179,0.086-0.335,0.195-0.46,0.358c-0.382,0.491-0.522,1.083-0.156,1.62
					c0.047,0.055,0.164,0.047,0.156-0.047c-0.062-0.538,0.203-0.958,0.678-1.176c0.132-0.062,0.273-0.093,0.405-0.132
					c1.091,1.075,2.08,2.018,2.859,2.695c-0.686,0.179-1.823,0.241-3.544-0.312c-1.761-0.576-7.681-5.811-12.908-10.439
					c-6.583-5.835-10.703-9.426-12.308-9.831c-0.296-0.078-0.623-0.109-0.958-0.109c-1.924,0-4.362,1.145-6.731,2.259
					c-1.792,0.841-3.646,1.714-4.682,1.737c-0.358,0.016-0.717,0-1.059-0.031l0.109-1.527c0.008,0,0.023,0,0.031-0.008
					c0.6-0.327,0.989-0.841,0.966-1.558c-0.008-0.218-0.07-0.444-0.171-0.662c0.055-0.023,0.109-0.031,0.156-0.055
					c3.334-1.402,8.374-13.531,9.161-17.753c0.101-0.545,0.257-1.285,0.444-2.189c1.254-6.053,4.191-20.238,3.451-34.12
					c-0.857-16.133-0.826-37.641-0.475-46.35c0.109-2.781,0.553-11.327,1.301-22.49c3.381-5.827,4.238-12.651,4.362-17.34
					c0.023-0.28,1.831-28.402,6.419-43.094c3.716-11.895,7.455-16.85,8.662-18.229c0.125,0.055,0.249,0.117,0.374,0.179
					c12.37,6.006,14.723,27.538,11.669,45.01c-3.132,17.933-9.254,51.476-9.317,51.811c-0.016,0.078-0.016,0.164-0.008,0.241
					c0.016,0.093,1.184,9.247-0.904,28.239c-0.686,6.248-1.94,13.181-3.147,19.896c-2.54,14.1-5.173,28.69-2.843,38.257
					c3.389,13.89,11.786,16.063,15.814,17.107l0.421,0.117c1.792,0.467,4.144,0.989,6.17,1.41c-0.039,0.265-0.008,0.53,0.086,0.724
					c0.023,0.047,0.086,0.031,0.101-0.008c0.062-0.218,0.132-0.428,0.226-0.631C340.792,385.947,341.805,386.149,342.514,386.289z
					 M322.54,284.467c0.101,0.148,0.343,0.07,0.296-0.125c-0.802-3.233-1.091-6.567-0.249-9.815
					c0.008-0.023-0.023-0.039-0.039-0.016C320.507,277.596,320.281,281.436,322.54,284.467z"/>
				<path fill="#FDBF90" d="M342.708,390.395c-0.312,0.312-0.748,0.647-1.355,0.865c-0.304,0.101-1.223,0.062-2.547-0.086
					l0.062-0.522c0.023,0,0.047-0.016,0.055-0.039c0.179-0.421,0.483-0.608,0.818-0.826
					C340.815,390.028,341.828,390.239,342.708,390.395z"/>
				<path fill="#FFBD52" d="M333.267,156.921c3.295,1.589,6.411,3.085,4.129,10.968c-0.312,1.098-0.662,2.08-1.044,2.945
					c0.693-3.015,0.031-6.637-1.472-9.184c-0.008-0.008-0.023,0-0.023,0.008c0.958,2.874,1.223,5.975,0.491,8.943
					c-0.389,1.574-1.153,2.929-2.493,3.918c-0.499,0.374-1.028,0.608-1.566,0.787c1.075-0.927,1.948-2.259,2.329-3.139
					c1.207-2.843,0.631-5.617-0.911-8.195c-0.047-0.062-0.148-0.008-0.109,0.062c1.067,2.041,1.075,4.588,0.389,6.754
					c-0.319,0.997-0.802,1.932-1.48,2.742c-0.615,0.74-1.27,1.091-1.994,1.371c-0.28-0.14-0.53-0.288-0.724-0.421
					c1.254-1.371,2.158-3.069,2.438-4.51c0.382-1.994,0.304-4.612-1.059-6.286c-0.717-0.888-1.644-1.114-2.617-1.636
					c-1.854-0.997-2.033-2.641-1.955-4.518c0-0.008-0.016-0.016-0.023-0.008c-0.039,0.086-0.07,0.179-0.109,0.265l-1.48-0.436
					c0.654-0.974,1.137-2.072,1.41-3.209l1.566,0.428c-0.047,0.117,0.101,0.226,0.218,0.203c0.748-0.109,1.394-0.413,1.924-0.841
					C330.089,155.379,331.693,156.166,333.267,156.921z"/>
				<path fill="#FFBD52" d="M335.316,143.764c0,1.34-0.203,2.454-0.53,3.404c0.148-2.096-0.654-4.246-2.485-5.578
					c-0.008-0.008-0.031,0.008-0.023,0.016c1.683,2.625,2.22,5.102,1.34,7.728c-0.055,0.07-0.101,0.14-0.156,0.203
					c0.07-0.265,0.132-0.53,0.171-0.795c0.382-2.563-0.795-5.165-2.727-6.894c-0.078-0.07-0.195,0.023-0.148,0.109
					c1.059,1.877,2.119,3.778,2.01,5.99c-0.062,1.293-0.553,2.29-1.223,3.225c-0.312,0.187-0.615,0.335-0.888,0.46
					c0.389-1.091,0.491-2.306,0.296-3.389c-0.257-1.41-1.02-2.54-2.01-3.568c-1.465-1.527-4.682-3.139-4.284-5.585
					c0.008-0.047-0.055-0.062-0.07-0.016c-0.834,2.384,1.831,4.253,3.225,5.874c1.34,1.55,2.243,3.42,1.776,5.492
					c-0.358,1.613-1.613,2.812-2.61,4.082c-0.016,0.016-0.016,0.031-0.023,0.047l-1.566-0.428c0.273-1.13,0.343-2.306,0.171-3.482
					c-0.312-2.127-1.324-4.012-3.015-5.344c-1.324-1.044-5.765-2.711-5.632-4.752c1.215-0.467,2.298-1.168,3.132-2.181
					c0.171-0.21,0.016-0.545-0.28-0.475c-2.267,0.545-4.292,1.613-6.653,1.838c-2.469,0.241-5.102-0.07-7.4-1.028
					c-4.557-1.893-8.039-5.874-9.8-10.423c-0.016-0.031-0.055-0.016-0.047,0.008c1.394,5.063,4.729,9.426,9.605,11.553
					c2.384,1.036,5.741,1.69,8.795,1.332c-0.023,0.039-0.055,0.086-0.078,0.125c-0.608,0.382-1.184,0.935-1.706,1.566
					c-2.205,0.452-5.913,0.28-11.599-2.625c-6.832-3.49-9.169-10.711-9.963-15.393c-0.319-2.789-0.335-5.578,0.444-8.343
					c0.834-2.96,2.392-5.585,4.23-8.031c0.07-0.039,0.14-0.062,0.203-0.101c0.078-0.039,0.062-0.125,0.008-0.164
					c0.46-0.608,0.943-1.207,1.433-1.799c0.031-0.031-0.008-0.078-0.047-0.055c-0.405,0.241-0.795,0.506-1.176,0.795
					c-1.371-0.553-2.173-1.753-3.248-2.688c-0.771-0.686-1.628-1.285-2.555-1.753c-1.901-0.958-3.848-1.231-5.959-1.005
					c-0.086,0.008-0.086,0.14,0,0.132c2.882-0.132,5.663,1.083,7.806,2.89c1.168,0.989,1.994,2.368,3.482,2.781
					c-0.257,0.218-0.506,0.436-0.756,0.67c-1.052-0.008-2.002-0.039-2.991-0.647c-0.911-0.561-1.737-1.207-2.703-1.69
					c-1.683-0.834-3.357-1.176-5.243-1.005c-0.039,0.008-0.047,0.07,0,0.07c2.976,0.055,5.25,1.62,7.603,3.186
					c0.849,0.561,1.714,0.849,2.602,0.81c-0.07,0.07-0.148,0.14-0.21,0.21c-7.51,0.943-14.248-3.576-21.765-2.571
					c-6.037,0.818-11.186,4.339-14.006,9.574c-0.047,0.093,0.086,0.171,0.148,0.086c3.576-5.079,9.917-8.561,16.304-8.639
					c5.554-0.078,11.264,3.116,16.834,2.493c-1.348,0.46-2.68,0.935-4.16,1.075c-2.501,0.241-4.954-0.164-7.432-0.46
					c-0.039,0-0.039,0.055-0.008,0.062c3.576,1.083,9.145,2.197,12.721,0.078c-0.234,0.327-0.452,0.662-0.662,1.013
					c-2.041,0.717-3.809,1.916-6.006,2.407c-2.501,0.553-5.063,0.678-7.619,0.709c-0.023,0-0.023,0.031,0,0.031
					c2.695,0.335,5.43,0.374,8.102-0.164c1.503-0.296,3.404-0.771,4.814-1.683c-0.397,0.795-0.748,1.628-1.028,2.477
					c-1.27,1.013-2.571,1.613-4.308,2.15c-2.064,0.639-4.098,1.13-6.279,1.028c-0.055,0-0.07,0.086-0.016,0.093
					c2.664,0.561,5.243-0.055,7.806-0.81c0.748-0.218,1.62-0.491,2.353-0.911c-0.086,0.358-0.156,0.717-0.218,1.075
					c-0.358,0.592-1.145,0.896-1.753,1.2c-0.865,0.421-1.729,0.81-2.617,1.176c-0.031,0.016-0.008,0.047,0.016,0.047
					c0.701-0.132,3.085-0.561,4.199-1.402c-0.023,0.234-0.062,0.46-0.078,0.686c-0.023,0.023-0.047,0.031-0.062,0.055
					c-0.031,0.039-3.171,3.708-9.496,2.454c-5.881-1.168-13.204-2.617-16.133,3.692c-0.592,1.293-0.81,3.139-1.052,5.274
					c-1.316,18.236-20.838,20.846-20.838,20.846c1.067-0.055,2.064-0.156,3.03-0.28c0.008,0.016,0.008,0.031,0.008,0.047
					c-1.745,0.982-2.251,4.355-2.36,5.99c-0.156,2.15,0.514,4.207,2.088,5.671l-1.472,1.706c-0.008,0-0.023,0.008-0.023,0.016
					h-0.826c-0.016-0.171-0.039-0.343-0.078-0.522c-0.389-2.049-2.018-3.677-3.622-4.931c-0.047-0.039-0.109,0.016-0.07,0.062
					c0.857,1.059,1.472,2.111,1.854,3.186c-0.896-0.779-2.212-1.27-3.731-1.823c-3.381-1.246-7.214-2.664-7.214-7.829
					c0-3.903,1.854-6.216,3.669-7.564c-2.43,2.22-2.929,5.585-1.519,8.701c0.023,0.047,0.101,0.016,0.086-0.031
					c-0.709-2.205-0.382-4.674,0.958-6.614c1.207-1.761,2.836-2.423,4.736-3.256c1.527-0.678,1.994-1.675,3.077-2.836
					c1.457-1.558,3.646-1.924,5.663-2.392c0.023-0.008,0.016-0.047-0.008-0.047c-1.963-0.008-4.152,0.171-5.757,1.402
					c-0.95,0.724-1.433,1.877-2.446,2.547c-0.273,0.179-0.569,0.319-0.88,0.452c0.093-0.187,0.101-0.397,0.031-0.592
					c0.428-0.802,0.693-1.714,1.13-2.516c0.732-1.332,1.659-2.563,2.929-3.451c1.87-1.301,4.448-1.262,6.029-2.968
					c0.047-0.047-0.023-0.117-0.07-0.07c-1.348,1.246-3.1,1.106-4.76,1.613c-1.005,0.304-1.893,0.834-2.688,1.496
					c-1.161,0.966-2.454,2.586-3.108,4.238c-0.428-1.916-0.14-3.817,0.865-5.297c1.192-1.761,3.28-2.726,5.866-2.726
					c4.214,0,6.248-2.571,7.455-6.388c-0.319,4.269-0.826,8.701-5.243,10.657c-0.047,0.023-0.016,0.101,0.039,0.086
					c4.845-1.207,5.889-6.489,6.162-10.618c0.421-6.396,2.103-11.95,6.341-16.99c0.008-0.008-0.008-0.016-0.016-0.008
					c-2.018,1.838-3.638,4.02-4.838,6.403c0.382-1.309,0.818-2.594,1.332-3.848c1.807-4.331,5.149-7.51,8.912-10.306
					c0.055-0.047,0-0.14-0.062-0.101c-3.63,2.501-7.393,4.861-9.41,8.842c3.576-11.529,11.981-17.746,25.084-18.517
					c17.115-0.997,26.33,5.173,29.205,7.541c-0.086,0.156-0.179,0.304-0.265,0.46c-0.662-0.023-1.324,0.062-1.963,0.257
					c-0.389-0.686-1.13-1.371-1.644-1.815c-0.748-0.654-1.667-1.27-2.625-1.566c-0.008-0.008-0.016,0.008-0.008,0.016
					c0.826,0.576,1.644,1.098,2.376,1.799c0.343,0.327,0.662,0.67,0.95,1.036c0.156,0.203,0.312,0.405,0.452,0.608
					c0,0.016,0.023,0.039,0.047,0.07c-0.467,0.171-0.919,0.382-1.348,0.639c-1.698-3.186-6.029-5.414-9.41-6.24
					c-0.031-0.008-0.039,0.031-0.008,0.047c2.033,0.763,3.934,1.753,5.64,3.085c1.278,0.997,2.228,2.251,3.373,3.35
					c-0.483,0.312-0.935,0.678-1.348,1.059c-2.43,2.29-3.459,5.461-3.061,8.701c0.008,0.086,0.132,0.086,0.14,0
					c0.132-1.932,0.779-4.004,1.846-5.788c-2.508,5.11-1.589,11.615,0.974,16.632c0.055,0.101,0.203,0.023,0.179-0.078
					c-1.558-6.435-2.913-12.877,0.647-18.836c1.215-1.176,2.703-2.002,4.417-2.236c-1.87,3.934-2.103,8.849-0.062,12.705
					c1.363,2.571,3.692,4.331,5.578,6.481c2.189,2.501,3.669,5.469,4.619,8.631c0.023,0.078,0.156,0.062,0.148-0.023
					c-0.506-5.469-3.669-8.795-7.151-12.705c-4.043-4.542-3.942-9.706-2.594-15.128c0.499-0.031,1.013-0.031,1.55,0.047
					c1.083,0.53,2.493,0.569,3.622,0.989c0.351,0.132,0.686,0.288,1.021,0.444c3.7,3.248,6.435,7.151,8.585,11.794
					c0.047,0.101,0.187,0.023,0.171-0.07c-0.397-2.656-1.496-5.173-3.061-7.369c1.924,2.142,3.42,4.581,4.729,7.136
					c0.023,0.039,0.086,0.008,0.07-0.031c-1.285-3.755-3.194-7.432-6.31-10.072c-0.164-0.132-0.343-0.28-0.538-0.436
					c3.786,2.049,7.79,5.492,10.61,10.758c3.84,7.182,0.974,16.273-0.366,19.693c-1.441,2.563-2.82,5.219,0.288,7.346
					c0.078,0.062,0.164-0.047,0.125-0.125c-0.989-1.885-0.872-3.241-0.195-4.752c0.436-0.008,3.326,0.031,5.274,1.846
					C334.677,139.916,335.316,141.606,335.316,143.764z M327.331,151.149c1.838-1.714,1.262-5.149-0.849-6.388
					c-0.055-0.031-0.093,0.039-0.062,0.086c1.503,1.901,1.605,3.988,0.709,6.185C327.074,151.149,327.245,151.227,327.331,151.149z
					 M324.067,136.099c5.032-4.697,5.359-14.022,2.469-19.942c-0.008-0.016-0.039,0-0.031,0.016
					c1.706,6.333,1.207,14.326-2.524,19.857C323.942,136.083,324.02,136.138,324.067,136.099z M325.781,144.8
					c0.062,0.031,0.14-0.039,0.101-0.101c-1.558-2.399-2.781-4.658-2.633-7.619c0.008-0.055-0.07-0.062-0.086-0.008
					C322.454,139.838,323.171,143.273,325.781,144.8z M325.01,127.094c0.561-3.653,0.093-7.268-1.285-10.688
					c-0.016-0.055-0.101-0.039-0.086,0.023c1.667,6.248,1.215,13.921-3.147,19.031c-0.062,0.078,0.023,0.21,0.117,0.148
					C323.436,133.871,324.534,130.202,325.01,127.094z M324.417,131.884c0.008-0.047-0.062-0.055-0.078-0.016
					c-0.499,1.62-1.052,2.976-2.423,4.035c-0.055,0.039,0.008,0.109,0.055,0.101C323.748,135.67,324.262,133.38,324.417,131.884z
					 M322.844,142.783c0.039,0.039,0.117,0,0.101-0.055c-0.312-0.787-0.561-1.597-0.701-2.43c-0.008-0.062-0.109-0.062-0.125,0
					C321.948,141.225,322.19,142.12,322.844,142.783z M319.066,134.424c0.086-0.078-0.023-0.218-0.117-0.156
					c-2.797,1.831-6.318,2.656-9.621,2.01c-3.583-0.693-6.053-2.82-8.616-5.258c-0.016-0.016-0.039,0-0.023,0.016
					c2.22,3.038,5.11,5.749,8.966,6.388C313.192,138.007,316.503,136.886,319.066,134.424z M314.181,133.403
					c0.086-0.062,0.031-0.195-0.078-0.179c-2.399,0.444-4.658,0.078-6.731-1.184c-0.047-0.023-0.101,0.031-0.07,0.078
					C308.884,134.284,311.992,134.868,314.181,133.403z M313.597,114.63c0.062,0.062,0.171-0.016,0.125-0.093
					c-1.254-2.127-2.197-4.534-2.82-6.917c-0.016-0.086-0.132-0.047-0.117,0.031l-1.597,0.109c-0.132-1.574-0.086-3.171-0.055-4.744
					c0-0.039-0.055-0.047-0.062-0.008c-0.522,2.586-0.81,5.243-0.187,7.845c0.654,2.711,2.298,4.705,4.246,6.629
					c0.117,0.109,0.327-0.039,0.226-0.179c-1.083-1.558-2.251-3.132-3.038-4.877l1.605-0.132
					C312.296,113.15,312.818,113.936,313.597,114.63z M303.47,119.911c0.047,0.086,0.179,0.023,0.156-0.07
					c-0.615-2.882-1.223-5.733-1.145-8.701c0-0.039-0.07-0.055-0.078-0.008C301.834,114.147,301.967,117.193,303.47,119.911z
					 M295.875,124.204c0.031,0.055,0.109,0.016,0.093-0.039c-0.351-1.854-0.81-3.692-0.748-5.593c0-0.132-0.179-0.117-0.195,0
					C294.769,120.55,294.831,122.459,295.875,124.204z M295.735,102.321c0.101,0.101,0.296-0.031,0.203-0.156
					c-2.913-3.996-7.868-5.593-12.659-5.071c-0.086,0.008-0.093,0.14,0,0.14C288.062,97.024,292.299,99.143,295.735,102.321z
					 M295.158,110.073c0.016-0.047-0.047-0.062-0.07-0.031c-3.537,4.861-4.113,11.778-1.052,16.982
					c0.055,0.101,0.21,0.031,0.187-0.078C292.853,121.165,293.001,115.619,295.158,110.073z M294.979,99.299
					c0.062,0.039,0.132-0.055,0.078-0.101c-4.394-3.918-10.766-5.461-16.437-3.747c-0.047,0.016-0.039,0.093,0.008,0.086
					C284.486,94.804,290.048,96.004,294.979,99.299z M269.311,117.613c0.101-0.016,0.078-0.195-0.031-0.187
					c-3.303,0.265-6.123,1.94-8.016,4.651c-2.415,3.482-2.711,7.728-2.345,11.833c0.008,0.07,0.109,0.07,0.109,0
					C259.434,127.413,261.903,119.008,269.311,117.613z M259.846,120.566c0.023-0.031-0.023-0.055-0.039-0.039
					c-2.29,1.971-3.077,4.83-3.077,7.728l-2.142,0.016c-0.008-0.436-0.016-0.865-0.008-1.293c0.047-3.116,1.005-5.624,2.244-8.437
					c0-0.008-0.008-0.023-0.023-0.016c-2.945,3.209-2.999,7.533-2.968,11.615c0.039,5.118-2.064,9.41-6.411,12.215
					c-0.125,0.078-0.016,0.257,0.117,0.195c3.443-1.542,5.928-4.643,6.754-8.304l1.254,0.288c-0.467,2.259-0.95,4.456-2.602,6.177
					c-1.246,1.293-2.867,2.127-4.253,3.248c-0.07,0.062,0.008,0.195,0.093,0.164c1.963-0.709,3.872-1.94,5.157-3.599
					c1.34-1.729,1.644-3.848,1.706-5.975c0.008-0.031-0.023-0.055-0.055-0.055l1.815-1.239c0.047,0.031,0.125,0.008,0.125-0.062
					C257.299,128.675,257.089,124.406,259.846,120.566z M254.588,142.167c0.016-0.039-0.031-0.078-0.062-0.047
					c-0.491,0.475-0.935,0.989-1.488,1.394c-0.506,0.366-1.067,0.67-1.62,0.958c-0.078,0.039-0.023,0.14,0.055,0.125
					C252.742,144.333,254.058,143.382,254.588,142.167z M245.715,148.173c0.055-0.016,0.047-0.109-0.016-0.101
					c-2.368,0.296-4.729,0.678-6.325,2.649c-1.605,2.002-1.651,4.619-0.132,6.645c0.078,0.101,0.257,0.047,0.218-0.093
					c-0.506-2.025-0.421-4.277,0.763-6.053C241.47,149.334,243.628,148.664,245.715,148.173z M238.845,149.459
					c0.078-0.047,0.016-0.156-0.07-0.125c-1.418,0.608-2.407,2.064-1.971,3.622c0.023,0.101,0.171,0.07,0.179-0.031
					C237.076,151.562,237.637,150.183,238.845,149.459z M236.897,145.493c0.016-0.016,0-0.031-0.016-0.023
					c-4.682,2.212-3.957,8.491-1.519,12.067c0.078,0.109,0.265,0.047,0.218-0.086C234.21,153.237,233.267,148.851,236.897,145.493z"
					/>
				<path fill="#FFBD52" d="M329.722,165.708c0.779,2.438,0.14,5.531-1.542,7.486c-0.21,0.241-0.436,0.46-0.662,0.654
					c-0.047,0.008-0.094,0.016-0.14,0.039c-0.179,0.07-0.312,0.21-0.397,0.374c-1.542,1.052-3.381,1.262-5.321,1.667
					c-0.187,0.047-0.203,0.296-0.055,0.389c1.69,1.02,3.451,0.795,5.001-0.078c-1.316,3.544-6.731,4.253-8.289,4.386
					c-0.872-0.288-1.745-0.538-2.617-0.756c1.831-0.444,3.63-1.254,5.305-1.955c0.047-0.016,0.031-0.101-0.031-0.086
					c-2.08,0.538-4.417,1.278-6.575,1.324c-0.958,0.016-1.893-0.187-2.836-0.257c0.818-0.67,1.511-1.496,1.986-2.407
					c0.81-1.535,0.584-3.054,1.005-4.666c0.553-2.103,2.314-3.537,3.864-4.978c0.039-0.031-0.008-0.093-0.055-0.062
					c-2.36,1.387-4.565,3.116-5.079,5.866c-0.319,1.737-0.561,3.178-1.815,4.542c-0.592,0.647-1.301,1.137-2.072,1.542
					c-0.312-0.023-0.67-0.039-1.044-0.047c1.27-1.441,2.103-3.583,2.524-5.056c0.008-0.023-0.031-0.039-0.039-0.016
					c-0.771,1.426-1.503,2.828-2.703,3.981c-0.475,0.452-0.989,0.81-1.535,1.098c-0.514-0.016-1.036-0.039-1.527-0.031
					c1.176-0.779,2.181-1.963,2.96-3.124c0.031-0.055-0.039-0.109-0.078-0.062c-1.41,1.807-3.272,2.843-5.391,3.264
					c-0.086,0.008-0.171,0.008-0.257,0.016c0.148-0.07,0.296-0.14,0.428-0.203c2.033-0.935,3.544-2.29,4.347-4.222
					c1.613-1.161,3.42-2.937,4.9-4.697c1.885-2.267,4.962-6.567,4.316-9.971c-0.296-1.566-1.036-2.641-2.212-3.194
					c-1.488-0.693-3.334-0.327-4.674,0.132c0.109-0.374,0.203-0.717,0.288-1.044c0.257-0.787,0.545-1.566,0.849-2.329
					c0.28,0.662,0.709,1.278,1.348,1.799c0.008,0,0.016-0.008,0.008-0.016c-0.545-1.005-0.693-2.158-0.693-3.342
					c0.132-0.304,0.273-0.6,0.405-0.888c0.055,0.195,0.125,0.397,0.203,0.6c0.647,1.62,2.025,2.976,3.622,3.661
					c0.008,0.008,0.016-0.008,0.008-0.016c-1.714-1.426-2.727-3.264-2.797-5.523c-0.008-0.273-0.008-0.538,0-0.802
					c0.195-0.358,0.382-0.709,0.569-1.044c0.109,0.958,0.319,1.87,0.639,2.633c0.896,2.111,3.147,3.342,5.157,4.191
					c0.016,0.008,0.016-0.008,0.008-0.016c-2.329-1.636-3.973-2.898-4.284-5.905c-0.125-1.145-0.078-2.298-0.031-3.443
					c0-0.008,0.008-0.016,0.008-0.016c0.117,0.436,0.28,0.857,0.514,1.27c0.467,0.81,1.059,1.293,1.838,1.776
					c1.558,0.958,2.656,1.885,3.591,3.49c0.016,0.023,0.055,0.008,0.047-0.023c-0.553-1.441-1.363-2.617-2.555-3.615
					c-1.192-0.989-2.002-1.815-2.314-3.42c-0.07-0.343-0.101-0.686-0.125-1.036c0.319-0.483,0.545-0.787,0.608-0.888
					c1.433,1.846,4.83,3.124,6.053,4.362c4.129,4.183,1.472,11.077-2.773,13.921c-0.039,0.031-0.008,0.086,0.031,0.062
					c1.784-0.756,3.287-2.057,4.347-3.654l1.48,0.436c-0.452,1.184-0.538,2.501-0.023,3.692
					C326.326,163.543,328.99,163.442,329.722,165.708z M326.949,171.489c1.106-2.041,0.187-5.5-1.722-6.754
					c-0.016-0.008-0.031,0.008-0.016,0.023c1.62,1.636,2.36,5.593,0.156,7.19c-1.792,1.293-4.915,1.659-7.034,1.675
					c-0.109,0-0.14,0.179-0.031,0.195C320.912,174.246,325.454,174.231,326.949,171.489z"/>
				<path d="M326.482,144.761c2.111,1.239,2.688,4.674,0.849,6.388c-0.086,0.078-0.257,0-0.203-0.117
					c0.896-2.197,0.795-4.284-0.709-6.185C326.388,144.8,326.427,144.73,326.482,144.761z"/>
				<path d="M326.536,116.156c2.89,5.92,2.563,15.245-2.469,19.942c-0.047,0.039-0.125-0.016-0.086-0.07
					c3.731-5.531,4.23-13.523,2.524-19.857C326.497,116.156,326.529,116.141,326.536,116.156z"/>
				<path d="M325.228,164.735c1.909,1.254,2.828,4.713,1.722,6.754c-1.496,2.742-6.037,2.758-8.647,2.329
					c-0.109-0.016-0.078-0.195,0.031-0.195c2.119-0.016,5.243-0.382,7.034-1.675c2.205-1.597,1.465-5.554-0.156-7.19
					C325.197,164.743,325.212,164.727,325.228,164.735z"/>
				<path d="M325.882,144.699c0.039,0.062-0.039,0.132-0.101,0.101c-2.61-1.527-3.326-4.962-2.617-7.728
					c0.016-0.055,0.093-0.047,0.086,0.008C323.101,140.041,324.324,142.3,325.882,144.699z"/>
				<path d="M323.724,116.406c1.379,3.42,1.846,7.034,1.285,10.688c-0.475,3.108-1.574,6.777-4.401,8.514
					c-0.093,0.062-0.179-0.07-0.117-0.148c4.362-5.11,4.814-12.783,3.147-19.031C323.623,116.367,323.709,116.351,323.724,116.406z"
					/>
				<path d="M324.34,131.869c0.016-0.039,0.086-0.031,0.078,0.016c-0.156,1.496-0.67,3.786-2.446,4.121
					c-0.047,0.008-0.109-0.062-0.055-0.101C323.288,134.845,323.841,133.489,324.34,131.869z"/>
				<path d="M322.945,142.728c0.016,0.055-0.062,0.093-0.101,0.055c-0.654-0.662-0.896-1.558-0.724-2.485
					c0.016-0.062,0.117-0.062,0.125,0C322.384,141.131,322.634,141.941,322.945,142.728z"/>
				<path d="M322.836,284.342c0.047,0.195-0.195,0.273-0.296,0.125c-2.259-3.03-2.033-6.871,0.008-9.956
					c0.016-0.023,0.047-0.008,0.039,0.016C321.746,277.775,322.034,281.109,322.836,284.342z"/>
				<path fill="#FF6470" d="M318.201,182.231c0.436,0.156,0.865,0.319,1.301,0.483c-1.605,1.963-5.134,7.175-8.647,18.408
					c-4.44,14.209-6.294,40.64-6.466,43.265c-0.241,0.366-1.036,1.511-2.563,2.875c-0.319-4.713-1.348-23.323,0.826-40.196
					c2.368-18.431,7.486-26.33,7.541-26.408c0.039-0.055,0.055-0.125,0.078-0.187c0.428,0.047,0.857,0.101,1.285,0.164
					c0.74,0.171,1.503,0.351,2.236,0.522c-0.358,0.67-0.654,1.355-0.989,2.025c-0.055,0.101,0.086,0.179,0.148,0.086
					c0.413-0.686,0.911-1.316,1.371-1.979c1.418,0.343,2.617,0.654,3.124,0.787c-1.465,0.74-2.345,2.267-3.202,3.747
					c-1.433,2.446-2.727,5.095-3.357,7.876c-0.008,0.008,0.016,0.016,0.023,0.008C313.044,189.896,314.789,185.16,318.201,182.231z"
					/>
				<path d="M318.949,134.268c0.093-0.062,0.203,0.078,0.117,0.156c-2.563,2.462-5.874,3.583-9.41,2.999
					c-3.856-0.639-6.746-3.35-8.966-6.388c-0.016-0.016,0.008-0.031,0.023-0.016c2.563,2.438,5.032,4.565,8.616,5.258
					C312.631,136.925,316.152,136.099,318.949,134.268z"/>
				<path fill="#FDBF90" d="M314.618,159.983c0.366,1.947-1.114,5.149-3.95,8.546c-2.984,3.568-5.788,5.422-6.466,5.422
					c-1.309-0.016-2.228-0.062-2.812-0.101c0.265-0.319,0.53-0.631,0.771-0.95c1.846-2.438,3.389-5.539,4.619-8.569
					c0.304-0.132,0.592-0.234,0.849-0.008c0.545,0.483,0.795,1.605,0.195,2.111c-0.023,0.016-0.008,0.055,0.023,0.055l0.919,0.834
					c-0.483,0.623-1.036,1.192-1.62,1.714c-0.062,0.047,0.016,0.148,0.086,0.109c2.119-1.278,4.401-4.004,4.3-6.637
					c-0.039-0.966-0.569-1.768-1.535-2.01c-0.709-0.179-1.34,0-1.909,0.335c0.249-0.74,0.483-1.449,0.693-2.119
					c1.052-0.522,3.225-1.317,4.573-0.686C314.018,158.331,314.423,158.97,314.618,159.983z"/>
				<path d="M314.104,133.224c0.109-0.016,0.164,0.117,0.078,0.179c-2.189,1.465-5.297,0.88-6.879-1.285
					c-0.031-0.047,0.023-0.101,0.07-0.078C309.445,133.302,311.704,133.668,314.104,133.224z"/>
				<path d="M313.722,114.536c0.047,0.078-0.062,0.156-0.125,0.093c-0.779-0.693-1.301-1.48-1.675-2.337
					c-0.623-1.426-0.834-3.03-1.137-4.643c-0.016-0.078,0.101-0.117,0.117-0.031C311.525,110.002,312.468,112.41,313.722,114.536z"
					/>
				<path d="M313.356,117.302c0.101,0.14-0.109,0.288-0.226,0.179c-1.947-1.924-3.591-3.918-4.246-6.629
					c-0.623-2.602-0.335-5.258,0.187-7.845c0.008-0.039,0.062-0.031,0.062,0.008c-0.031,1.574-0.078,3.171,0.055,4.744
					c0.078,0.974,0.218,1.932,0.475,2.875c0.164,0.623,0.389,1.215,0.654,1.792C311.104,114.17,312.273,115.744,313.356,117.302z"/>
				<path fill="#FDBF90" d="M264.513,132.998c0.312-0.093,5.344-1.62,8.81-1.62c3.568,0,6.684,3.194,7.837,3.194
					s1.838-0.343,1.838-0.343s-4.884-3.872-8.826-3.872C270.347,130.358,264.855,132.843,264.513,132.998z M300.152,141.583
					c4.814,2.462,8.398,3.085,10.945,2.968c-2.384,2.797-3.171,7.237-3.116,10.781c-1.137,4.129-3.591,11.794-7.19,16.523
					c-5.079,6.684-16.935,12.799-17.115,12.892c-0.07,0.039-7.26,4.316-11.981,0.997c-3.926-2.758-10.929-13.227-14.497-20.137
					c0.07-0.047-1.737-3.669-1.994-4.487c-1.2-3.84-0.592-9.636-0.21-12.332c7.517-4.432,8.398-12.043,8.997-17.2
					c0.226-2.018,0.428-3.755,0.927-4.822c2.243-4.838,7.385-4.23,14.396-2.836c4.814,0.958,8.024-0.6,9.691-1.799
					C289.277,126.26,290.905,136.862,300.152,141.583z M307.077,151.063l-2.127-0.008c-0.187-0.125-0.374-0.249-0.561-0.358
					c0.506-0.055,0.989-0.241,1.278-0.53c0.008,0,0.008-0.016,0-0.016c-0.452,0.023-0.888,0.171-1.348,0.195
					c-0.179,0.008-0.358-0.008-0.53-0.023c-0.522-0.312-1.028-0.592-1.511-0.834c0.226-0.023,0.452-0.07,0.686-0.125
					c0.086-0.023,0.047-0.156-0.039-0.14c-0.335,0.055-0.67,0.086-1.013,0.086c-8.686-4.199-12.137,1.41-12.293,1.675l-0.008,0.008
					c2.578,1.488,4.822,2.173,6.629,2.454c2.189,0.343,3.739,0.086,4.44-0.062C305.69,152.762,307.077,151.063,307.077,151.063z
					 M288.872,148.773c1.254-2.111,2.111-4.129,2.111-4.129s-3.833,3.872-4.604,7.58c-0.771,3.7-1.153,6.902-1.348,8.413
					c-0.187,1.519-1.535,2.695-2.493,2.867c-0.958,0.164-3.069-0.171-4.035-1.013c-0.958-0.841-0.958-1.62-0.958-1.62
					s-0.67,1.441,0.865,2.719c1.161,0.958,1.535,1.176,2.501,1.262c0.958,0.078,2.976-1.184,3.544-1.262
					c0.576-0.086,1.254,0.078,1.542,0c0.288-0.086,1.153-1.433,0.865-2.275c-0.288-0.841-0.483-1.519-0.483-2.781
					S287.625,150.876,288.872,148.773z M288.568,173.093c0.351-0.351,0.397-0.756,0.319-1.215c0.023-0.086,0.016-0.179-0.031-0.257
					c-0.016-0.023-0.031-0.047-0.055-0.062c-0.14-0.436-0.405-0.717-0.795-0.997c-0.016-0.016-0.031,0.008-0.023,0.023
					c0.132,0.273,0.21,0.553,0.257,0.849c-0.343-0.125-1.387-0.631-4.144-2.75c-0.748-0.576-1.667-0.787-2.578-0.6l-1.309,0.273
					c-0.351-0.467-1.285-1.496-2.859-1.535c-0.654-0.008-1.457,0.132-2.384,0.304c-1.651,0.296-3.513,0.631-5.056,0.14
					c0.397-0.203,0.865-0.21,1.246-0.467c0.008,0,0.008-0.008,0-0.016c-0.6-0.288-1.472-0.327-2.018,0.101
					c-0.257,0.203-0.46,0.499-0.576,0.802c-0.125,0.319-0.031,0.545,0.109,0.834c0.023,0.047,0.078,0.047,0.109,0.016
					c0.171-0.148,0.343-0.241,0.452-0.444c0.039-0.062,0.062-0.117,0.093-0.179c0.841,1.137,5.687,7.502,9.052,8.008
					c0.218,0.031,0.452,0.047,0.693,0.047c3.209,0,7.954-2.789,9.286-3.615c0.023,0.241,0.055,0.483,0.109,0.717
					C288.475,173.109,288.537,173.125,288.568,173.093z M271.002,147.971c1.799,0.569,4.246,0.95,7.424,0.654
					c0,0-0.608-6.801-10.329-6.66c-0.257-0.343-0.701-0.608-0.935-0.927c-0.031-0.039-0.086-0.008-0.07,0.039
					c0.125,0.257,0.257,0.615,0.444,0.896c-0.491,0.023-0.997,0.055-1.535,0.117c-0.631-0.273-1.262-0.553-1.698-1.114
					c-0.008-0.008-0.031,0.008-0.023,0.023c0.265,0.46,0.608,0.857,1.013,1.169c-0.273,0.031-0.545,0.07-0.826,0.117l-1.94-0.872
					c0,0,0.553,2.119,4.845,4.767C267.909,146.576,269.093,147.379,271.002,147.971z"/>
				<path fill="#FDBF90" d="M310.621,162.733c0.148,0.693-0.389,1.955-0.647,2.571c-0.304,0.732-0.724,1.402-1.207,2.018
					l-0.919-0.834c0,0,0.008,0,0.016-0.008c0.779-0.452,0.802-1.846,0.397-2.555c-0.218-0.397-0.615-0.639-1.044-0.701
					c0.242-0.623,0.467-1.246,0.686-1.854c0.148-0.062,0.296-0.117,0.436-0.148C309.406,160.98,310.38,161.611,310.621,162.733z"/>
				<path fill="#FDBF90" d="M308.534,180.315c0.016,0,0.031,0,0.047,0c-1.192,2.049-5.367,10.15-7.478,26.548
					c-2.454,19.101-0.849,40.399-0.756,41.606c-4.542,3.389-12.573,6.692-26.05,5.367c1.013-2.103,1.145-5.336,1.145-6.902
					c-0.016-5.118-2.501-9.995-2.142-15.097c0.008-0.039-0.062-0.055-0.07-0.008c-0.943,3.934-0.171,7.587,0.421,11.506
					c0.53,3.49,0.382,7.151-1.091,10.345c-0.093,0.008-0.187,0.023-0.28,0.07c-0.132,0.062-11.958,5.585-27.686-0.538
					c0.927-5.726,7.697-51.18-9.543-69.837c3.934,0.078,14.224,2.189,15.409,2.493c1.496,0.389,2.578,0.662,3.287,0.74
					c0.343,0.039,0.865-0.008,1.394-0.475c2.15-1.893,2.836-10.407,3.054-15.222c3.864,6.52,9.153,13.874,12.518,16.242
					c1.659,1.169,3.521,1.581,5.321,1.581c4.308,0,8.289-2.376,8.483-2.493c0.164-0.086,1.62-0.841,3.685-2.064
					c-0.14,0.623-0.132,1.27,0.055,1.885c0.452,1.48,2.15,2.617,3.638,1.947c0.171-0.078,0.062-0.312-0.094-0.327
					c-1.55-0.132-2.493-1.651-2.197-3.147c0.117-0.584,0.405-1.13,0.717-1.659c0.654-0.413,1.332-0.857,2.025-1.332
					c0.631-0.055,1.457-0.179,2.462-0.343c1.021-0.156,2.205-0.343,3.521-0.506c2.516-0.21,5.367-0.413,7.712-0.483
					c0.195,0,0.382,0.008,0.576,0.008c0.031,0.047,0.07,0.078,0.14,0.093C307.365,180.416,307.957,180.408,308.534,180.315z
					 M303.034,189.733c0.07-0.047,0.031-0.179-0.062-0.148c-4.199,1.394-8.141,3.591-12.222,5.282
					c-1.947,0.81-3.926,1.55-5.936,2.173c-2.041,0.631-4.129,1.036-6.076,1.932c-0.249,0.117-0.093,0.452,0.132,0.467
					c4.051,0.405,8.452-1.542,12.121-3.093C295.166,194.578,299.412,192.483,303.034,189.733z M268.93,200.389
					c0.14,0.023,0.312-0.132,0.21-0.273c-2.057-2.921-6.91-2.337-10.026-2.282c-5.173,0.101-10.439-0.514-15.214-2.625
					c-0.062-0.031-0.125,0.062-0.055,0.093c3.864,2.018,7.899,3.529,12.293,3.833c2.049,0.14,4.09,0,6.138,0.047
					C264.637,199.237,266.663,199.969,268.93,200.389z"/>
				<path d="M304.95,151.056l2.127,0.008c0,0-1.387,1.698-6.396,2.321l2.984-1.371c0,0-1.441-1.223-3.544-2.205
					c0,0.14-0.016,0.273-0.023,0.405c-0.195-0.148-0.436-0.234-0.701-0.226c-0.6,0.023-1.067,0.522-1.044,1.122
					c0.016,0.53,0.413,0.958,0.919,1.036c-0.724,0.81-1.838,1.246-2.991,1.052c-1.799-0.304-3.007-2.002-2.703-3.794
					c0.039-0.226,0.101-0.444,0.179-0.647c-1.41,0.265-2.82,0.943-4.136,2.228c0.156-0.265,3.607-5.874,12.293-1.675
					c-0.475,0.016-0.95-0.023-1.418-0.086c-0.055-0.008-0.086,0.07-0.023,0.086c0.6,0.21,1.2,0.257,1.807,0.179
					c0.483,0.241,0.989,0.522,1.511,0.834c-0.28-0.031-0.561-0.062-0.841-0.031c-0.047,0.008-0.093,0.07-0.047,0.101
					c0.358,0.28,0.935,0.366,1.488,0.304C304.576,150.806,304.763,150.931,304.95,151.056z"/>
				<path d="M305.667,150.152c0.008,0,0.008,0.016,0,0.016c-0.288,0.288-0.771,0.475-1.278,0.53c-0.203-0.132-0.405-0.257-0.6-0.374
					c0.171,0.016,0.351,0.031,0.53,0.023C304.779,150.323,305.215,150.175,305.667,150.152z"/>
				<path d="M304.389,150.697c-0.553,0.062-1.13-0.023-1.488-0.304c-0.047-0.031,0-0.093,0.047-0.101
					c0.28-0.031,0.561,0,0.841,0.031C303.984,150.44,304.187,150.565,304.389,150.697z"/>
				<path fill="#FFFFFF" d="M303.665,152.014l-2.984,1.371c-0.701,0.148-2.251,0.405-4.44,0.062l0.039-0.249
					c1.153,0.195,2.267-0.241,2.991-1.052c-0.506-0.078-0.904-0.506-0.919-1.036c-0.023-0.6,0.444-1.098,1.044-1.122
					c0.265-0.008,0.506,0.078,0.701,0.226c0.008-0.132,0.023-0.265,0.023-0.405C302.224,150.791,303.665,152.014,303.665,152.014z"
					/>
				<path d="M303.626,119.841c0.023,0.093-0.109,0.156-0.156,0.07c-1.503-2.719-1.636-5.765-1.067-8.779
					c0.008-0.047,0.078-0.031,0.078,0.008C302.403,114.108,303.011,116.959,303.626,119.841z"/>
				<path fill="#FF6470" d="M300.121,261.4c-2.602,4.44-6.248,7.323-10.875,8.561c-2.991,0.802-6.014,0.95-8.834,0.748
					c0.07-0.016,0.14-0.023,0.218-0.039c0.14-0.023,0.093-0.226-0.031-0.234c-5.461-0.405-10.283-2.984-15.603-4.059
					c-5.102-1.028-9.535,0.132-13.851,2.906c-0.023,0.008-0.008,0.047,0.023,0.039c4.448-1.402,8.787-2.111,13.259-1.418
					c-0.234,0.288-0.46,0.6-0.678,0.872c-1.433,1.807-2.984,3.42-4.9,4.744c-3.677,2.532-8.179,3.848-12.581,4.308
					c-0.07,0.008-0.093,0.117-0.023,0.125c4.144,0.709,8.195-0.164,11.833-2.212c1.784-0.997,3.443-2.267,4.877-3.724
					c0.74-0.756,1.371-1.589,2.025-2.415c0.296-0.374,0.686-0.686,1.013-1.028c0.203,0.21,0.413,0.436,0.615,0.654
					c-0.171,0.732-0.296,1.48-0.576,2.181c-0.444,1.098-1.114,2.096-2.049,2.828c-0.031,0.023,0,0.086,0.039,0.07
					c1.535-0.639,3.241-2.244,3.56-3.996c10.119,11.591,21.438,35.008,24.359,41.24c-2.617-0.678-7.922-1.69-13.297-0.654
					c-5.445,1.044-7.821,3.069-11.747,6.427c-1.566,1.34-3.342,2.851-5.687,4.651c-8.172,6.263-9.535,6.52-16.273,3.015
					c-4.986-2.594-8.156-2.329-9.73-1.862c0.055-0.553,0.109-1.098,0.164-1.651c1.137,0.249,2.392,0.055,3.544,0.101
					c1.683,0.062,3.591,0.039,5.227,0.452c2.594,0.662,4.76,2.399,7.439,2.789c0.086,0.008,0.117-0.093,0.039-0.125
					c-2.843-1.067-5.18-3.233-8.148-3.965c-1.48-0.366-3.038-0.452-4.557-0.522c-1.153-0.055-2.392-0.156-3.451,0.28
					c1.246-13.009,2.119-26.361,2.321-32.78c0.086-2.734,0.187-8.624,0.249-15.962c1.542,0.273,3.295,0.117,4.495-0.834
					c0.07-0.055,0.008-0.148-0.062-0.156c-0.849-0.101-1.706,0-2.563-0.117c-0.631-0.086-1.246-0.203-1.854-0.343
					c0.031-4.783,0.047-10.104,0.031-15.541c1.644,1.667,4.604,2.555,6.536,2.633c0.047,0,0.07-0.062,0.023-0.086
					c-1.387-0.787-2.952-1.168-4.277-2.095c-0.974-0.686-1.675-1.488-2.29-2.399c-0.008-0.312-0.008-0.631-0.008-0.943
					c6.746,3.724,13.033,5.243,18.361,5.648c4.292,0.849,8.585,0.195,12.853-0.53c3.077-0.522,6.177-1.02,9.286-1.309
					c12.277,0.351,19.6-3.319,23.705-6.731c0.319-0.273,0.615-0.53,0.896-0.787c-0.086,0.156-0.164,0.319-0.249,0.483
					c-0.717,1.324-1.574,2.516-2.703,3.529c-2.119,1.893-4.697,3.319-7.276,4.495c-0.07,0.031-0.023,0.14,0.047,0.117
					c2.68-1.02,5.469-1.862,7.728-3.7c1.168-0.95,2.454-2.376,3.311-3.926c-0.491,3.879-1.589,8.32-3.895,12.238
					C300.121,261.393,300.121,261.393,300.121,261.4z M285.709,304.611c0.086-0.335-0.187-0.647-0.374-0.904
					c-0.234-0.319-0.491-0.615-0.771-0.896c-0.055-0.055-0.132,0-0.125,0.07c0.062,0.421,0.195,0.826,0.413,1.184
					c0.164,0.273,0.389,0.639,0.74,0.631C285.639,304.697,285.694,304.658,285.709,304.611z M283.271,300.148
					c0.047,0.062,0.156,0,0.132-0.07c-2.407-6.107-6.318-11.35-10.033-16.71c-0.039-0.062-0.132-0.008-0.093,0.062
					C276.244,289.226,279.025,295.154,283.271,300.148z M280.762,258.619c0.031,0,0.031-0.039,0.008-0.047
					c-8.343-2.672-16.655,2.921-24.943,0.872c-0.101-0.023-0.14,0.125-0.047,0.156C264.154,262.522,272.326,257.809,280.762,258.619
					z M259.434,315.401c0.117,0.016,0.21-0.148,0.086-0.203c-4.806-2.321-7.175-7.603-7.735-12.698c0-0.023-0.031-0.023-0.031,0
					c-0.319,2.843,0.171,5.952,1.503,8.491C254.721,313.772,256.364,314.964,259.434,315.401z M253.03,323.261
					c0.117,0.148,0.304-0.039,0.242-0.179c-2.454-5.702-5.617-11.046-6.092-17.372c-0.483-6.31,0.179-12.604-0.615-18.906
					c0-0.016-0.023-0.023-0.023-0.008c-1.067,6.567-1.511,13.765-0.724,20.386C246.526,313.219,249.307,318.555,253.03,323.261z"/>
				<path d="M302.972,189.585c0.093-0.031,0.132,0.101,0.062,0.148c-3.622,2.75-7.868,4.845-12.043,6.614
					c-3.669,1.55-8.07,3.498-12.121,3.093c-0.226-0.016-0.382-0.351-0.132-0.467c1.948-0.896,4.035-1.301,6.076-1.932
					c2.01-0.623,3.988-1.363,5.936-2.173C294.831,193.176,298.773,190.979,302.972,189.585z"/>
				<path d="M302.925,149.225c0.086-0.016,0.125,0.117,0.039,0.14c-0.234,0.055-0.46,0.101-0.686,0.125
					c-0.125-0.062-0.249-0.125-0.366-0.179C302.255,149.311,302.59,149.279,302.925,149.225z"/>
				<path d="M301.912,149.311c0.117,0.055,0.241,0.117,0.366,0.179c-0.608,0.078-1.207,0.031-1.807-0.179
					c-0.062-0.016-0.031-0.093,0.023-0.086C300.962,149.287,301.437,149.326,301.912,149.311z"/>
				<path fill="#FFFFFF" d="M296.28,153.198l-0.039,0.249c-1.807-0.28-4.051-0.966-6.629-2.454l0.008-0.008
					c1.316-1.285,2.727-1.963,4.136-2.228c-0.078,0.203-0.14,0.421-0.179,0.647C293.273,151.196,294.481,152.894,296.28,153.198z"/>
				<path d="M295.969,124.165c0.016,0.055-0.062,0.093-0.093,0.039c-1.044-1.745-1.106-3.653-0.849-5.632
					c0.016-0.117,0.195-0.132,0.195,0C295.158,120.472,295.618,122.311,295.969,124.165z"/>
				<path d="M295.937,102.166c0.094,0.125-0.101,0.257-0.203,0.156c-3.435-3.178-7.673-5.297-12.456-5.087
					c-0.093,0-0.086-0.132,0-0.14C288.069,96.572,293.024,98.169,295.937,102.166z"/>
				<path fill="#FDBF90" d="M295.867,343.67c0.576,11.95-5.492,26.392-16.655,29.875c-10.259,3.209-24.157-1.566-27.257-2.719
					c0.273-0.467,0.522-0.958,0.732-1.48c3.521-8.873,1.597-24.912-0.047-34.517c2.111-2.656,15.167-18.579,28.737-22.723
					c2.563-0.21,5.032,0,7.042,0.319C289.503,315.634,295.361,333.325,295.867,343.67z"/>
				<path d="M295.088,110.041c0.023-0.031,0.086-0.016,0.07,0.031c-2.158,5.546-2.306,11.093-0.935,16.873
					c0.023,0.109-0.132,0.179-0.187,0.078C290.975,121.82,291.552,114.902,295.088,110.041z"/>
				<path d="M295.057,99.198c0.055,0.047-0.016,0.14-0.078,0.101c-4.931-3.295-10.493-4.495-16.351-3.763
					c-0.047,0.008-0.055-0.07-0.008-0.086C284.291,93.737,290.664,95.279,295.057,99.198z"/>
				<path d="M290.983,144.644c0,0-0.857,2.018-2.111,4.129c-1.246,2.103-2.493,8.499-2.493,9.761s0.195,1.94,0.483,2.781
					c0.288,0.841-0.576,2.189-0.865,2.275c-0.288,0.078-0.966-0.086-1.542,0c-0.569,0.078-2.586,1.34-3.544,1.262
					c-0.966-0.086-1.34-0.304-2.501-1.262c-1.535-1.278-0.865-2.719-0.865-2.719s0,0.779,0.958,1.62
					c0.966,0.841,3.077,1.176,4.035,1.013c0.958-0.171,2.306-1.348,2.493-2.867c0.195-1.511,0.576-4.713,1.348-8.413
					C287.15,148.516,290.983,144.644,290.983,144.644z"/>
				<path d="M288.887,171.878c0.078,0.46,0.031,0.865-0.319,1.215c-0.031,0.031-0.093,0.016-0.101-0.023
					c-0.055-0.234-0.086-0.475-0.109-0.717c-1.332,0.826-6.076,3.615-9.286,3.615c-0.241,0-0.475-0.016-0.693-0.047
					c-3.365-0.506-8.211-6.871-9.052-8.008c-0.031,0.062-0.055,0.117-0.093,0.179c-0.109,0.203-0.28,0.296-0.452,0.444
					c-0.031,0.031-0.086,0.031-0.109-0.016c-0.14-0.288-0.234-0.514-0.109-0.834c0.117-0.304,0.319-0.6,0.576-0.802
					c0.545-0.428,1.418-0.389,2.018-0.101c0.008,0.008,0.008,0.016,0,0.016c-0.382,0.257-0.849,0.265-1.246,0.467
					c1.542,0.491,3.404,0.156,5.056-0.14c0.927-0.171,1.729-0.312,2.384-0.304c1.574,0.039,2.508,1.067,2.859,1.535l1.309-0.273
					c0.911-0.187,1.831,0.023,2.578,0.6c2.758,2.119,3.801,2.625,4.144,2.75c-0.047-0.296-0.125-0.576-0.257-0.849
					c-0.008-0.016,0.008-0.039,0.023-0.023c0.389,0.28,0.654,0.561,0.795,0.997c0.023,0.016,0.039,0.039,0.055,0.062
					C288.903,171.699,288.911,171.792,288.887,171.878z M287.431,172.042c-1.776-0.312-3.7-0.304-5.476-0.148
					c-1.511,0.132-2.664,0.218-4.098-0.358c-1.371-0.553-2.547-1.465-3.864-2.111c-1.044-0.514-2.22-0.631-3.303-0.966
					c1.659,2.096,5.297,6.357,7.798,6.731C281.082,175.571,285.553,173.156,287.431,172.042z M278.052,170.975
					c2.921,1.184,6.154-0.249,9.161,0.779c-0.724-0.405-1.831-1.153-3.568-2.485c-0.576-0.436-1.278-0.608-1.979-0.46l-1.55,0.327
					c-0.156,0.031-0.319-0.039-0.397-0.179c-0.031-0.055-0.81-1.348-2.392-1.394c-0.576-0.016-1.379,0.132-2.228,0.288
					c-0.826,0.156-1.745,0.319-2.672,0.382c0.428,0.109,0.857,0.241,1.262,0.421C275.208,169.307,276.517,170.351,278.052,170.975z"
					/>
				<path fill="#FDBF90" d="M287.228,385.627c0.101,0.538-0.156,1.137-0.576,1.472c-0.055,0.039-0.008,0.109,0.047,0.109
					l-0.109,1.527c-2.072-0.195-3.731-1.184-3.965-2.423c-0.031-0.171-0.008-0.234-0.008-0.234c0.125-0.179,1.044-0.296,1.651-0.366
					c0.802-0.101,1.768-0.234,2.758-0.553C287.119,385.292,287.189,385.44,287.228,385.627z"/>
				<path d="M285.335,303.708c0.187,0.257,0.46,0.569,0.374,0.904c-0.016,0.047-0.07,0.086-0.117,0.086
					c-0.351,0.008-0.576-0.358-0.74-0.631c-0.218-0.358-0.351-0.763-0.413-1.184c-0.008-0.07,0.07-0.125,0.125-0.07
					C284.844,303.092,285.102,303.388,285.335,303.708z"/>
				<path fill="#FF6470" d="M281.954,171.894c1.776-0.156,3.7-0.164,5.476,0.148c-1.877,1.114-6.349,3.529-8.943,3.147
					c-2.501-0.374-6.138-4.635-7.798-6.731c1.083,0.335,2.259,0.452,3.303,0.966c1.316,0.647,2.493,1.558,3.864,2.111
					C279.29,172.112,280.443,172.026,281.954,171.894z"/>
				<path fill="#FF6470" d="M287.213,171.753c-3.007-1.028-6.24,0.405-9.161-0.779c-1.535-0.623-2.843-1.667-4.362-2.321
					c-0.405-0.179-0.834-0.312-1.262-0.421c0.927-0.062,1.846-0.226,2.672-0.382c0.849-0.156,1.651-0.304,2.228-0.288
					c1.581,0.047,2.36,1.34,2.392,1.394c0.078,0.14,0.242,0.21,0.397,0.179l1.55-0.327c0.701-0.148,1.402,0.023,1.979,0.46
					C285.382,170.601,286.488,171.348,287.213,171.753z"/>
				<path d="M283.403,300.078c0.023,0.07-0.086,0.132-0.132,0.07c-4.246-4.993-7.027-10.922-9.995-16.717
					c-0.039-0.07,0.055-0.125,0.093-0.062C277.086,288.728,280.996,293.97,283.403,300.078z"/>
				<path d="M282.998,134.229c0,0-0.686,0.343-1.838,0.343s-4.269-3.194-7.837-3.194c-3.467,0-8.499,1.527-8.81,1.62
					c0.343-0.156,5.835-2.641,9.66-2.641C278.114,130.358,282.998,134.229,282.998,134.229z"/>
				<path d="M280.77,258.573c0.023,0.008,0.023,0.047-0.008,0.047c-8.437-0.81-16.608,3.903-24.982,0.982
					c-0.093-0.031-0.055-0.179,0.047-0.156C264.115,261.494,272.427,255.901,280.77,258.573z"/>
				<path fill="#FFFFFF" d="M278.426,148.625c-3.178,0.296-5.624-0.086-7.424-0.654l0.07-0.218c1.761,0.467,3.568-0.576,4.035-2.329
					c0.078-0.273,0.101-0.545,0.101-0.818C276.548,145.439,277.709,146.709,278.426,148.625z"/>
				<path d="M278.426,148.625c-0.717-1.916-1.877-3.186-3.217-4.02c0,0.273-0.023,0.545-0.101,0.818
					c-0.467,1.753-2.275,2.797-4.035,2.329c-1.114-0.304-1.94-1.137-2.275-2.166c0.07,0.016,0.14,0.023,0.21,0.016
					c0.6-0.016,1.075-0.522,1.052-1.122c-0.023-0.6-0.522-1.067-1.122-1.052c-0.031,0.008-0.062,0.016-0.093,0.016
					c0.039-0.093,0.062-0.187,0.101-0.273c-2.111,0.07-3.716,0.514-3.716,0.514l2.142,2.493c-4.292-2.649-4.845-4.767-4.845-4.767
					l1.94,0.872c0.28-0.047,0.553-0.086,0.826-0.117c0.584,0.467,1.309,0.74,2.103,0.732c0.062,0,0.078-0.078,0.031-0.117
					c-0.428-0.296-0.935-0.491-1.426-0.693c0.538-0.062,1.044-0.093,1.535-0.117c0.164,0.241,0.382,0.428,0.67,0.452
					c0.055,0,0.078-0.047,0.07-0.086c0.008,0,0.008,0.008,0.016,0.008c0.023,0.023,0.055-0.023,0.031-0.039
					c-0.023-0.023-0.055-0.039-0.078-0.062c-0.031-0.101-0.086-0.187-0.148-0.28C277.818,141.824,278.426,148.625,278.426,148.625z"
					/>
				<path fill="#FFFFFF" d="M271.072,147.753l-0.07,0.218c-1.909-0.592-3.093-1.394-3.63-1.792l-2.142-2.493
					c0,0,1.605-0.444,3.716-0.514c-0.039,0.086-0.062,0.179-0.101,0.273c0.031,0,0.062-0.008,0.093-0.016
					c0.6-0.016,1.098,0.452,1.122,1.052c0.023,0.6-0.452,1.106-1.052,1.122c-0.07,0.008-0.14,0-0.21-0.016
					C269.132,146.615,269.958,147.449,271.072,147.753z"/>
				<path d="M269.28,117.426c0.109-0.008,0.132,0.171,0.031,0.187c-7.408,1.394-9.878,9.8-10.283,16.297c0,0.07-0.101,0.07-0.109,0
					c-0.366-4.105-0.07-8.351,2.345-11.833C263.157,119.366,265.977,117.691,269.28,117.426z"/>
				<path d="M269.14,200.117c0.101,0.14-0.07,0.296-0.21,0.273c-2.267-0.421-4.292-1.153-6.653-1.207
					c-2.049-0.047-4.09,0.093-6.138-0.047c-4.394-0.304-8.429-1.815-12.293-3.833c-0.07-0.031-0.008-0.125,0.055-0.093
					c4.775,2.111,10.041,2.726,15.214,2.625C262.23,197.78,267.083,197.196,269.14,200.117z"/>
				<path d="M268.322,142.307c0.023,0.016-0.008,0.062-0.031,0.039c-0.008,0-0.008-0.008-0.016-0.008
					c0-0.008-0.008-0.016-0.008-0.016c0-0.023-0.008-0.055-0.023-0.078C268.267,142.268,268.299,142.284,268.322,142.307z"/>
				<path d="M268.275,142.339c0.008,0.039-0.016,0.086-0.07,0.086c-0.288-0.023-0.506-0.21-0.67-0.452
					c0.086,0,0.171-0.008,0.257-0.008c0.156,0.125,0.312,0.249,0.475,0.358C268.267,142.323,268.275,142.331,268.275,142.339z"/>
				<path d="M268.244,142.245c0.016,0.023,0.023,0.055,0.023,0.078c-0.164-0.109-0.319-0.234-0.475-0.358c0.031,0,0.07,0,0.101,0
					C268.01,142.058,268.127,142.152,268.244,142.245z"/>
				<path d="M268.244,142.245c-0.117-0.093-0.234-0.187-0.351-0.28c0.07,0,0.132-0.008,0.203,0
					C268.158,142.058,268.213,142.144,268.244,142.245z"/>
				<path d="M268.096,141.965c-0.07-0.008-0.132,0-0.203,0c-0.07-0.055-0.132-0.101-0.195-0.156
					c-0.047-0.031-0.086,0.023-0.047,0.055c0.047,0.039,0.093,0.07,0.14,0.101c-0.086,0-0.171,0.008-0.257,0.008
					c-0.187-0.28-0.319-0.639-0.444-0.896c-0.016-0.047,0.039-0.078,0.07-0.039C267.395,141.357,267.839,141.622,268.096,141.965z"
					/>
				<path d="M267.893,141.965c-0.031,0-0.07,0-0.101,0c-0.047-0.031-0.093-0.062-0.14-0.101c-0.039-0.031,0-0.086,0.047-0.055
					C267.761,141.863,267.823,141.91,267.893,141.965z"/>
				<path d="M267.426,142.783c0.047,0.039,0.031,0.117-0.031,0.117c-0.795,0.008-1.519-0.265-2.103-0.732
					c0.241-0.031,0.475-0.062,0.709-0.078C266.491,142.292,266.998,142.487,267.426,142.783z"/>
				<path d="M264.302,140.975c0.436,0.561,1.067,0.841,1.698,1.114c-0.234,0.016-0.467,0.047-0.709,0.078
					c-0.405-0.312-0.748-0.709-1.013-1.169C264.271,140.983,264.294,140.968,264.302,140.975z"/>
				<path d="M259.807,120.527c0.016-0.016,0.062,0.008,0.039,0.039c-2.758,3.84-2.547,8.109-2.314,12.628
					c0,0.07-0.078,0.093-0.125,0.062c-0.008-0.016-0.023-0.023-0.023-0.039c-0.389-1.558-0.654-3.272-0.654-4.962
					C256.73,125.356,257.517,122.498,259.807,120.527z"/>
				<path d="M259.519,315.198c0.125,0.055,0.031,0.218-0.086,0.203c-3.069-0.436-4.713-1.628-6.177-4.409
					c-1.332-2.54-1.823-5.648-1.503-8.491c0-0.023,0.031-0.023,0.031,0C252.345,307.595,254.713,312.877,259.519,315.198z"/>
				<path d="M256.801,118.525c0.016-0.008,0.023,0.008,0.023,0.016c-1.239,2.812-2.197,5.321-2.244,8.437
					c-0.008,0.428,0,0.857,0.008,1.293c0.031,1.893,0.148,3.801-0.226,5.671c-0.023,0.101-0.039,0.203-0.07,0.304
					c-0.826,3.661-3.311,6.762-6.754,8.304c-0.132,0.062-0.241-0.117-0.117-0.195c4.347-2.804,6.45-7.097,6.411-12.215
					C253.801,126.058,253.856,121.734,256.801,118.525z"/>
				<path fill="#FFBD52" d="M256.723,168.349c-0.125,5.796-0.927,15.136-2.617,16.616c-0.117,0.109-0.164,0.101-0.187,0.093
					c-0.6-0.062-1.69-0.343-3.077-0.701c-0.413-0.101-0.865-0.218-1.332-0.335c-0.039-0.421-0.171-0.888-0.156-1.13
					c0.07-1.519,0.701-3.054,2.002-3.926c0.078-0.047,0.016-0.156-0.062-0.109c-1.192,0.615-2.173,1.441-2.727,2.695
					c-0.249,0.569-0.475,1.418-0.382,2.142c-0.732-0.179-1.527-0.351-2.345-0.53c-0.203-0.701-0.226-1.402,0.203-2.025
					c0.047-0.07-0.055-0.14-0.109-0.086c-0.538,0.499-0.771,1.153-0.748,1.885c0,0.031,0,0.062,0.008,0.093
					c-3.583-0.732-7.837-1.34-12.3-1.207c-0.203-0.101-0.405-0.203-0.592-0.327c-0.795-0.506-1.355-1.176-1.916-1.916
					c-0.023-0.031-0.07-0.016-0.062,0.023c0.14,0.81,0.639,1.651,1.317,2.275c-0.444,0.031-0.896,0.062-1.348,0.109
					c-0.88-0.522-1.831-0.927-2.578-1.628c-1.083-1.028-1.807-2.68-1.231-4.136c0.023-0.062-0.078-0.101-0.109-0.039
					c-0.701,1.465-0.732,3.054,0.257,4.409c0.506,0.693,1.176,1.262,1.94,1.605c-0.818,0.117-1.636,0.257-2.446,0.444
					c-1.246-1.153-2.166-2.096-2.01-4.175c0.164-2.103,1.122-4.954,3.365-5.609c0.07-0.023,0.062-0.148-0.016-0.14
					c-2.711,0.358-4.316,3.124-4.573,5.671c-0.14,1.394,0.413,3.669,1.651,4.658c-0.07,0.023-0.14,0.031-0.21,0.055
					c-0.771,0.226-1.449,0.467-2.096,0.709c-2.173-2.493-1.675-5.952-0.14-8.374c1.496-2.36,4.604-4.682,8.444-3.459
					c3.794,1.215,6.676,0.265,8.491-1.348c-1.566,2.719-3.918,5.134-7.346,5.211c-0.203,0.008-0.257,0.296-0.047,0.351
					c4.339,1.028,7.408-2.353,9.122-5.788c0.771-1.535,1.449-3.256,1.285-4.993h0.826v0.008c0.514,1.924-0.623,5.422-1.488,7.151
					c-0.982,1.963-2.719,3.357-4.643,4.331c-0.14,0.07-0.039,0.265,0.101,0.241c2.516-0.491,4.401-2.134,5.43-4.479
					c0.771-1.776,1.636-5.469,0.647-7.26c-0.008-0.008-0.016-0.008-0.023-0.008l1.472-1.706c0.203,0.187,0.421,0.366,0.654,0.538
					c0.016,0.016,0.039-0.016,0.023-0.031c-2.594-2.703-2.142-6.325-0.865-9.519c-0.522,2.664,0.14,6.263,1.877,7.712
					c0.047,0.039,0.125-0.016,0.086-0.07c-1.083-1.542-1.2-3.482-1.192-5.321c0-0.865,0.164-1.722,0.257-2.578
					c0.312,1.122,0.67,2.127,1.036,2.991c-0.226,2.142,0.997,4.814,2.08,6.473c0.008,0.016,0.031,0.008,0.031-0.008
					c-0.374-1.161-0.724-2.306-1.005-3.498c-0.062-0.265-0.101-0.53-0.148-0.81c1.2,3.186,3.287,5.944,3.981,9.34
					c0.802,3.918-0.319,8.102-3.786,10.337c-0.008,0.008,0,0.023,0.008,0.016c7.276-2.898,5.671-12.191,1.932-17.839
					c0.078,0.047,0.156,0.093,0.241,0.14c0.974,1.815,2.765,3.147,3.669,5.079c1.324,2.836,1.885,7.058-0.421,9.551
					c-0.023,0.031,0.016,0.078,0.047,0.047c3.646-3.085,2.54-10.228-0.818-13.78c0.016,0,0.031,0,0.047,0
					c0.717,0.358,1.457,0.662,2.134,1.075c0.031,0.016,0.055,0.039,0.086,0.062C254.923,164.953,255.749,166.589,256.723,168.349z
					 M239.811,178.484c2.041-0.491,3.825-2.462,3.677-4.658c0-0.031-0.047-0.047-0.062-0.016c-0.818,1.885-1.877,3.428-3.669,4.549
					C239.694,178.398,239.733,178.5,239.811,178.484z"/>
				<path d="M255.593,134.494c0.031,0,0.062,0.023,0.055,0.055c-0.062,2.127-0.366,4.246-1.706,5.975
					c-1.285,1.659-3.194,2.89-5.157,3.599c-0.086,0.031-0.164-0.101-0.093-0.164c1.387-1.122,3.007-1.955,4.253-3.248
					c1.651-1.722,2.134-3.918,2.602-6.177C255.546,134.502,255.57,134.494,255.593,134.494z"/>
				<path d="M254.526,142.12c0.031-0.031,0.078,0.008,0.062,0.047c-0.53,1.215-1.846,2.166-3.116,2.43
					c-0.078,0.016-0.132-0.086-0.055-0.125c0.553-0.288,1.114-0.592,1.62-0.958C253.591,143.11,254.035,142.596,254.526,142.12z"/>
				<path d="M253.272,323.081c0.062,0.14-0.125,0.327-0.242,0.179c-3.724-4.705-6.505-10.041-7.214-16.078
					c-0.787-6.621-0.343-13.819,0.724-20.386c0-0.016,0.023-0.008,0.023,0.008c0.795,6.302,0.132,12.596,0.615,18.906
					C247.655,312.035,250.818,317.379,253.272,323.081z"/>
				<path fill="#FDBF90" d="M253.334,160.762c-0.888,0.117-2.501-0.008-4.23-1.729c-0.436-0.436-1.036-1.566-1.62-3.108l2.049-0.483
					c0.28,0.732,0.709,1.387,1.317,1.815c0.031,0.023,0.055,0,0.055-0.031l1.932-0.086
					C252.906,158.394,253.061,159.625,253.334,160.762z"/>
				<path fill="#FDBF90" d="M252.835,157.14l-1.932,0.086c0-0.008,0-0.016-0.008-0.023c-1.067-1.239-1.332-3.513-0.888-5.056
					c0.187-0.67,0.576-1.145,1.036-1.566c0.74-0.249,1.433-0.53,2.088-0.826C252.898,151.718,252.68,154.46,252.835,157.14z"/>
				<path fill="#FDBF90" d="M250.023,329.407c1.254,6.061,5.469,28.659,1.215,39.363c-2.711,6.824-12.417,8.055-18.33,8.148
					c-1.207-2.96-2.15-5.905-2.43-7.611c-0.561-3.49,0.919-15.011,2.493-27.218c0.335-2.633,0.678-5.328,1.02-8.039
					c0.265-2.095,0.514-4.292,0.756-6.536c0.654-0.467,1.737-0.974,3.568-1.27C241.672,325.699,248.021,328.472,250.023,329.407z"/>
				<path fill="#FDBF90" d="M249.533,155.441l-2.049,0.483c-0.452-1.184-0.896-2.617-1.239-4.168
					c1.169-0.195,2.267-0.428,3.28-0.709c-0.132,0.304-0.242,0.631-0.312,0.997C249.034,153.065,249.112,154.351,249.533,155.441z"
					/>
				<path d="M245.7,148.072c0.062-0.008,0.07,0.086,0.016,0.101c-2.088,0.491-4.246,1.161-5.492,3.046
					c-1.184,1.776-1.27,4.027-0.763,6.053c0.039,0.14-0.14,0.195-0.218,0.093c-1.519-2.025-1.472-4.643,0.132-6.645
					C240.971,148.75,243.332,148.368,245.7,148.072z"/>
				<path d="M243.487,173.826c0.148,2.197-1.636,4.168-3.677,4.658c-0.078,0.016-0.117-0.086-0.055-0.125
					c1.792-1.122,2.851-2.664,3.669-4.549C243.441,173.779,243.487,173.794,243.487,173.826z"/>
				<path fill="#FF6470" d="M233.088,183.586c17.224,16.967,11.07,62.172,10.018,69.011c-1.651-0.709-3.334-1.55-5.056-2.54
					c-0.07-9.317-0.273-18.587-0.67-25.66l0.21,0.016c2.057-24.383-7.922-36.644-11.451-40.165c0.779-0.187,1.558-0.327,2.337-0.452
					c0.506,0.428,0.997,1.005,1.324,1.355c0.732,0.787,1.355,1.651,1.924,2.555c0.943,1.503,1.745,3.077,2.649,4.596
					c0.008,0.008,0.023,0,0.016-0.008c-0.678-2.236-1.605-4.417-2.968-6.325c-0.421-0.6-1.13-1.589-1.932-2.321
					c0.522-0.07,1.052-0.117,1.574-0.164c0.039,0.031,0.07,0.055,0.101,0.086c0.428,0.444,0.756,0.966,1.091,1.472
					c0.023,0.031,0.078,0.023,0.078-0.023c-0.07-0.584-0.319-1.098-0.67-1.574c0.436-0.023,0.865-0.055,1.293-0.062
					C232.987,183.454,233.033,183.524,233.088,183.586z"/>
				<path d="M242.919,165.405c0.989,1.792,0.125,5.484-0.647,7.26c-1.028,2.345-2.913,3.988-5.43,4.479
					c-0.14,0.023-0.241-0.171-0.101-0.241c1.924-0.974,3.661-2.368,4.643-4.331c0.865-1.729,2.002-5.227,1.488-7.151v-0.008
					c0-0.008,0.016-0.016,0.023-0.016C242.903,165.397,242.911,165.397,242.919,165.405z"/>
				<path fill="#FDBF90" d="M242.708,388.805c0,0,0.023,0.062-0.016,0.234c-0.312,1.457-2.501,2.462-5.087,2.329
					c-1.044-0.055-2.874-0.966-4.651-1.854c-2.742-1.371-5.585-2.789-7.626-2.337c-1.605,0.366-5.811,3.856-12.534,9.519
					c-5.344,4.503-11.397,9.597-13.173,10.127c-1.737,0.514-2.867,0.421-3.552,0.226c0.857-0.709,1.955-1.698,3.155-2.836
					c0.078,0.016,0.148,0.031,0.218,0.055c0.218,0.086,0.428,0.234,0.491,0.475c0.078,0.296-0.125,0.639-0.428,0.693
					c-0.008,0-0.008,0.016,0,0.016c0.693,0.195,1.075-0.608,0.81-1.176c-0.109-0.226-0.312-0.421-0.553-0.569
					c3.381-3.225,7.471-7.4,9.628-9.621l0.117-0.125c0.249-0.257,0.296-0.654,0.109-0.958c-0.195-0.304-0.569-0.444-0.904-0.327
					l-0.093,0.031c-11.389,3.7-19.942,6.053-21.267,5.819c-0.865-0.14-1.511-0.452-1.979-0.771c1.005-0.218,2.275-0.584,3.661-1.028
					c0.109,0.374-0.195,0.795-0.569,0.849c-0.078,0.016-0.055,0.132,0.023,0.132c0.592,0.031,1.161-0.397,1.052-1.044
					c-0.008-0.031-0.016-0.062-0.031-0.093c5.063-1.667,13.617-5.827,14.653-6.255c0.366-0.148,0.561-0.553,0.452-0.935
					c-0.109-0.382-0.499-0.615-0.88-0.553c-7.845,1.355-18.797,4.098-19.872,3.716c-0.608-0.234-1.044-0.576-1.34-0.896
					c0.865-0.132,1.87-0.319,2.945-0.53c0.023,0.327-0.055,0.647-0.366,0.81c-0.023,0.016-0.016,0.062,0.023,0.062
					c0.491-0.039,0.857-0.203,0.919-0.748c0.016-0.086,0-0.164-0.008-0.241c4.253-0.88,11.63-3.319,13.594-3.833
					c0.397-0.109,0.647-0.506,0.569-0.911c-0.086-0.405-12.994,4.479-16.413,1.909c-0.436-0.117-0.748-0.366-0.966-0.623
					c0.662-0.109,1.605-0.273,2.656-0.46c0.008,0.008,0.023,0.023,0.031,0.039c0.078,0.086,0.164,0.218,0.265,0.319
					c-0.008,0.008-0.016,0.016-0.016,0.031c0.039,0.171,0.156,0.117,0.28,0.093c0.109-0.023,0.148-0.14,0.132-0.234
					c-0.023-0.125-0.07-0.241-0.14-0.351c2.057-0.374,4.464-0.841,6.286-1.278l0.421-0.101c3.833-0.896,10.976-2.563,15.074-13.165
					c0.405-1.052,0.795-2.243,1.153-3.552c2.493-9.208,3.622-24.227,3.373-44.644c-0.047-4.331-0.164-9.021-0.351-13.921
					c-0.74-19.093,1.083-28.137,1.106-28.231c0.016-0.078,0.016-0.164,0.008-0.241c-0.031-0.312-3.443-31.347-5.359-49.871
					l-0.249-2.469c-1.799-17.644,2.08-38.965,14.848-44.068c0.615-0.249,1.293-0.483,2.033-0.717
					c1.924,1.784,10.516,10.735,11.778,28.893l-0.545,0.132c-0.008-0.023-0.016-0.047-0.016-0.07
					c-0.974-4.066-2.516-7.548-5.25-10.727c-0.047-0.055-0.125,0.016-0.101,0.07c1.799,3.661,3.178,7.704,4.09,11.677
					c0.631,2.742,0.943,5.539,1.418,8.304c0.795,12.3,0.865,32.718,0.748,47.651c-0.008,0.047-0.016,0.101-0.016,0.164
					c0,0.031,0.008,0.055,0.016,0.086c-0.062,7.704-0.179,13.921-0.265,16.756c-0.273,8.694-1.776,30.147-3.786,46.195
					c-0.335,2.711-0.678,5.406-1.02,8.039c-1.651,12.853-3.077,23.954-2.477,27.662c0.312,1.909,1.379,5.227,2.719,8.444
					c0.654,1.574,1.605,3.708,2.664,5.57c1.067,1.862,2.244,3.467,3.342,3.957c0.156,0.07,0.312,0.125,0.475,0.179
					c-0.07,0.296-0.078,0.608,0.016,0.904c0.312,1.044,1.371,1.13,2.282,1.192c0.07,0.008,0.078-0.093,0.016-0.117
					c-0.561-0.218-1.441-0.631-1.628-1.254c-0.055-0.164-0.047-0.327-0.016-0.491c0.802,0.234,1.589,0.358,2.251,0.46
					C241.672,388.486,242.584,388.626,242.708,388.805z M215.989,287.894c0.452-1.87,0.826-3.474,0.686-5.422
					c-0.148-1.955-0.795-3.505-1.511-5.313c-0.039-0.109-0.187-0.07-0.164,0.047c0.312,1.823,0.296,3.755,0.382,5.624
					c0.078,1.651,0.241,3.35,0.156,5.001C215.529,288.089,215.927,288.143,215.989,287.894z"/>
				<path d="M238.775,149.334c0.086-0.031,0.148,0.078,0.07,0.125c-1.207,0.724-1.768,2.103-1.862,3.467
					c-0.008,0.101-0.156,0.132-0.179,0.031C236.367,151.398,237.357,149.942,238.775,149.334z"/>
				<path d="M236.882,145.47c0.016-0.008,0.031,0.008,0.016,0.023c-3.63,3.357-2.688,7.743-1.316,11.958
					c0.047,0.132-0.14,0.195-0.218,0.086C232.924,153.961,232.2,147.682,236.882,145.47z"/>
				<path d="M216.674,282.472c0.14,1.947-0.234,3.552-0.686,5.422c-0.062,0.249-0.46,0.195-0.452-0.062
					c0.086-1.651-0.078-3.35-0.156-5.001c-0.086-1.87-0.07-3.802-0.382-5.624c-0.023-0.117,0.125-0.156,0.164-0.047
					C215.88,278.967,216.526,280.517,216.674,282.472z"/>
				<path fill="#FDBF90" d="M210.809,329.064c0.016,12.487-0.53,22.723-1.636,30.599c-9.761-7.268-14.739-16.312-17.076-21.983
					C194.862,331.798,208.316,329.329,210.809,329.064z"/>
				<path fill="#FF6470" d="M210.762,323.44c-6.302-0.14-9.364,2.095-12.324,4.261c-2.142,1.566-4.347,3.178-7.876,3.949
					c-8.421,1.838-19.054-10.01-19.163-10.127c-0.195-0.234-0.514-0.319-0.802-0.234c-8.616,2.586-12.425-4.316-13.539-6.949
					c0.46-0.047,1.028-0.148,1.675-0.319c0.444,1.301,1.418,2.438,2.508,3.248c1.207,0.896,2.594,1.932,4.136,2.002
					c0.047,0,0.055-0.062,0.016-0.078c-1.324-0.46-2.407-1.659-3.357-2.641c-0.888-0.919-1.628-1.776-2.142-2.921
					c2.82-1.075,6.458-3.654,8.577-9.854c1.371-4.004,1.511-8.25,1.659-13.157c0.265-8.273,0.592-18.564,7.284-32.469
					c8.849-18.4,24.647-23.931,28.87-25.107c1.87,18.018,5.025,46.755,5.258,48.851c-0.234,1.192-1.823,10.158-1.114,28.488
					C210.606,314.964,210.715,319.35,210.762,323.44z M204.974,268.404c0.047-0.062-0.055-0.132-0.101-0.078
					c-2.874,3.241-4.549,6.684-5.406,10.945c-0.935,4.627-0.911,9.387-0.732,14.084c0.358,9.784,1.059,19.966-3.833,28.87
					c-0.093,0.171,0.148,0.382,0.28,0.218c5.648-7.198,5.601-16.632,5.25-25.356C200.051,287.474,199.607,276.91,204.974,268.404z
					 M202.411,315.876c2.594-4.386,1.838-9.457,1.153-14.302c-0.008-0.031-0.062-0.023-0.062,0.008
					c-0.522,4.651-0.14,9.636-1.387,14.17C202.068,315.93,202.317,316.039,202.411,315.876z M196.109,327.226
					c0.117-0.132-0.031-0.358-0.195-0.257c-2.275,1.465-5.461,1.332-8.078,1.153c-3.139-0.21-5.99-1.69-8.803-2.976
					c-0.023-0.008-0.047,0.016-0.023,0.039c2.578,2.142,5.367,4.09,8.826,4.339C190.695,329.726,194.076,329.508,196.109,327.226z
					 M191.162,246.833c0.055-0.055-0.023-0.156-0.086-0.109c-4.144,3.1-7.128,6.933-9.052,11.747
					c-2.306,5.741-2.82,11.568-2.96,17.683c0,0.125,0.203,0.156,0.226,0.031C180.817,266.012,182.765,253.813,191.162,246.833z
					 M189.324,294.633c0.46-4.16,0.164-8.203,0.164-12.363c0-0.039-0.062-0.039-0.062,0c-0.343,3.646-0.989,7.276-1.394,10.914
					c-0.405,3.724-0.989,7.424-1.986,11.038c-1.737,6.294-4.954,12.106-9.184,17.068c-0.117,0.14,0.039,0.389,0.203,0.265
					c5.352-3.879,8.327-9.8,10.174-16.032C188.296,301.978,188.919,298.309,189.324,294.633z M185.834,313.913
					c0-0.016-0.023-0.016-0.023-0.008c-0.857,1.784-1.667,3.677-2.166,5.593c-0.031,0.117,0.117,0.164,0.179,0.078
					C185.047,317.963,185.701,315.93,185.834,313.913z M178.667,305.546c1.698-6.536,1.449-13.017,0.904-19.67
					c-0.016-0.218-0.319-0.218-0.335,0c-0.319,6.045-0.436,12.378-1.807,18.291c-1.449,6.24-4.767,11.108-8.803,15.962
					c-0.093,0.117,0.023,0.296,0.164,0.21C174.063,317.169,177.156,311.365,178.667,305.546z"/>
				<path fill="#FDBF90" d="M208.916,361.4c-0.421,2.649-0.904,5.025-1.457,7.073c-0.234,0.865-0.483,1.659-0.74,2.407
					c-5.352-4.456-11.303-15.152-16.133-23.837c-6.544-13.282-10.197-13.96-10.875-13.96l1.309-1.893
					c2.446,1.293,5.095,2.212,7.696,2.212c0.078,0,0.164-0.008,0.241-0.008C189.931,336.916,194.582,351.086,208.916,361.4z"/>
				<path d="M204.873,268.326c0.047-0.055,0.148,0.016,0.101,0.078c-5.367,8.507-4.923,19.07-4.542,28.683
					c0.351,8.725,0.397,18.158-5.25,25.356c-0.132,0.164-0.374-0.047-0.28-0.218c4.892-8.904,4.191-19.085,3.833-28.87
					c-0.179-4.697-0.203-9.457,0.732-14.084C200.323,275.01,201.998,271.566,204.873,268.326z"/>
				<path d="M203.564,301.573c0.686,4.845,1.441,9.917-1.153,14.302c-0.093,0.164-0.343,0.055-0.296-0.125
					c1.246-4.534,0.865-9.519,1.387-14.17C203.502,301.55,203.556,301.542,203.564,301.573z"/>
				<path d="M195.914,326.969c0.164-0.101,0.312,0.125,0.195,0.257c-2.033,2.282-5.414,2.501-8.273,2.298
					c-3.459-0.249-6.248-2.197-8.826-4.339c-0.023-0.023,0-0.047,0.023-0.039c2.812,1.285,5.663,2.765,8.803,2.976
					C190.453,328.301,193.639,328.433,195.914,326.969z"/>
				<path d="M191.077,246.724c0.062-0.047,0.14,0.055,0.086,0.109c-8.398,6.98-10.345,19.179-11.872,29.353
					c-0.023,0.125-0.226,0.093-0.226-0.031c0.14-6.115,0.654-11.942,2.96-17.683C183.949,253.657,186.932,249.825,191.077,246.724z"
					/>
				<path d="M189.487,282.27c0,4.16,0.296,8.203-0.164,12.363c-0.405,3.677-1.028,7.346-2.088,10.89
					c-1.846,6.232-4.822,12.152-10.174,16.032c-0.164,0.125-0.319-0.125-0.203-0.265c4.23-4.962,7.447-10.774,9.184-17.068
					c0.997-3.615,1.581-7.315,1.986-11.038c0.405-3.638,1.052-7.268,1.394-10.914C189.425,282.231,189.487,282.231,189.487,282.27z"
					/>
				<path fill="#FDBF90" d="M188.833,347.082c-0.327,0.171-1.02,0.389-1.94,0.584c0.016-0.436-0.031-0.872-0.093-1.184
					c-0.187-0.911-0.623-1.807-1.371-2.392c-0.312-0.241-0.608-0.319-0.943-0.506c-0.95-0.53-1.254-1.184-1.48-2.205
					c-0.008-0.047-0.086-0.039-0.086,0.008c0.039,1.067,0.07,2.197,0.927,2.945c0.662,0.569,1.262,0.826,1.62,1.714
					c0.226,0.545,0.327,1.215,0.257,1.846c-1.161,0.187-2.508,0.335-3.856,0.351c0.203-0.872-0.055-1.94-0.506-2.719
					c-0.389-0.662-0.966-1.231-1.651-1.566c-0.795-0.397-1.231-0.179-1.714-1.184c-0.257-0.538-0.312-1.293-0.444-1.87
					c-0.016-0.039-0.078-0.031-0.078,0.008c0.117,1.122,0.055,2.688,0.849,3.576c0.491,0.561,1.2,0.763,1.675,1.41
					c0.538,0.732,0.647,1.503,0.584,2.314c-0.997-0.055-1.955-0.195-2.797-0.46c-3.576-1.137-4.845-4.666-6.029-8.826
					c-0.834-2.913,0.109-10.867,0.569-14.232c1.963,1.885,5.118,4.596,8.694,6.497l-1.309,1.893c-0.078,0-0.117,0.008-0.117,0.008
					C181.651,334.252,185.117,340.414,188.833,347.082z"/>
				<path d="M185.811,313.905c0-0.008,0.023-0.008,0.023,0.008c-0.132,2.018-0.787,4.051-2.01,5.663
					c-0.062,0.086-0.21,0.039-0.179-0.078C184.143,317.582,184.954,315.689,185.811,313.905z"/>
				<path d="M179.571,285.877c0.545,6.653,0.795,13.134-0.904,19.67c-1.511,5.819-4.604,11.623-9.878,14.793
					c-0.14,0.086-0.257-0.093-0.164-0.21c4.035-4.853,7.354-9.722,8.803-15.962c1.371-5.913,1.488-12.246,1.807-18.291
					C179.251,285.658,179.555,285.658,179.571,285.877z"/>
			</g>
		</g>
	</g>
	<g>
		<path d="M295.738,137.325l-1.963,0.28c0,0,0.467,1.028,1.589,1.402c1.122,0.374,2.057,0.467,2.337,0.467
			C297.982,139.475,295.738,137.325,295.738,137.325z"/>
	</g>
</g>
</svg>
