<?xml version="1.0" encoding="utf-8"?>
<!-- Generator: Adobe Illustrator 27.6.1, SVG Export Plug-In . SVG Version: 6.00 Build 0)  -->
<svg version="1.1" id="OBJECT" xmlns="http://www.w3.org/2000/svg" xmlns:xlink="http://www.w3.org/1999/xlink" x="0px" y="0px"
	 viewBox="0 0 500 500" enable-background="new 0 0 500 500" xml:space="preserve">
<g>
	<g id="XMLID_3_">
		<g>
			<path d="M384.956,356.104c0.469,1.025,0.285,1.779,0.044,2.225c-1.303,2.416-11.258,4.612-13.557,5.088
				c-1.025,0.6-8.982,5.124-20.482,7.752c-4.729,1.083-8.616,1.588-12.049,2.028c-5.322,0.695-9.172,1.193-12.276,3.47
				c-13.176,9.663-46.168,32.179-68.224,32.816c-0.227,0.007-0.454,0.015-0.673,0.015c-6.383,0-11.515-2.694-15.248-8.016
				c-4.67-6.647-6.552-16.5-6.376-26.763c-1.815,0.081-8.301,0.359-17.107,0.681c-0.176,2.196-0.849,7.071-3.455,10.109
				c-0.893,1.032-1.962,1.559-3.184,1.567c-0.007,0-0.007,0-0.015,0c-2.379,0-4.604-2.057-5.366-2.848
				c-0.856,0.081-2.848,0.073-5.256-1.31c-0.351-0.073-1.362-0.285-2.474-0.651l0.051,0.322c-0.198,0.037-1.135,0.198-2.269,0.198
				c-1.31,0-2.891-0.212-3.938-1.047c-0.651-0.527-1.091-0.593-1.559-0.659c-0.666-0.102-1.427-0.22-2.269-1.427
				c-0.227-0.329-0.468-0.996-0.556-3.367c-8.931,0.19-16.829,0.285-23.659,0.285c-17.744,0-28.366-0.644-31.674-1.925
				c-6.625-2.562-18.513-12.7-18.63-23.769c-0.095-8.491,6.405-15.489,19.325-20.811c13.799-5.673,30.437-8.975,49.47-9.816
				c-0.82-5.219-1.479-9.875-1.962-13.835c-2.284-18.827-3.506-32.743-4.216-48.013c-0.498-10.6-0.205-29.735,0-43.709
				c0.095-6.12,0.176-11.405,0.176-14.831c0-5.314,1.867-9.86,5.395-13.14c0.564-0.527,1.171-1.01,1.808-1.457
				c-4.231-0.512-8.338-4.67-8.857-8.638c-0.644-5.029,4.136-9.853,8.879-8.828c-2.064-1.42-3.697-3.411-4.524-6.142
				c-1.588-5.234,0.198-12.583,4.861-15.775l0.512,0.476c-3.594,3.689-5.505,10.08-4.033,14.926
				c1.742,5.724,8.191,8.462,13.616,9.304c0.102,0.015,0.073,0.176-0.029,0.176c-2.774-0.073-5.637-0.578-8.14-1.698
				c-2.665-0.578-5.534-0.403-7.65,1.523c-1.815,1.654-2.621,4.231-2.028,6.617c1.025,4.092,5.044,6.464,9.026,7.035
				c0.205-0.11,0.41-0.22,0.622-0.322c-2.621-0.176-5.066-1.559-6.639-3.887c-2.101-3.096-2.167-7.423,1.23-9.56
				c0.059-0.037,0.102,0.051,0.051,0.088c-3.257,2.46-2.006,7.262,0.388,9.838c1.669,1.801,3.997,2.694,6.398,2.87
				c0.198-0.073,0.388-0.154,0.593-0.227c-1.493-0.593-2.848-1.72-3.609-2.891c-0.856-1.332-1.296-2.972-1.186-4.553
				c0.066-1.061,0.212-2.591,1.288-3.067c0.029-0.015,0.051,0.022,0.022,0.037c-1.303,0.813-0.849,3.602-0.498,4.809
				c0.322,1.135,0.959,2.203,1.808,3.023c1.318,1.259,2.76,1.625,4.312,1.976c0.776-0.198,1.574-0.344,2.394-0.461
				c-0.761-0.512-1.442-1.098-1.954-1.625c-1.771-1.823-3.045-4.495-2.379-7.049c0.015-0.059,0.095-0.029,0.088,0.029
				c-0.373,2.723,1.742,5.38,3.741,6.983c0.849,0.673,1.815,1.054,2.782,1.442c1.105-0.051,2.24-0.044,3.404,0.044
				c10.007,0.739,14.538-0.285,15.599-0.578c0.329-0.637,0.63-1.288,0.908-1.947c-0.644,0.593-1.42,1.076-2.233,1.464
				c-0.066,0.037-0.124-0.059-0.059-0.102c1.244-0.739,2.145-1.903,2.972-3.089c0.22-0.615,0.425-1.237,0.608-1.867
				c-1.31,2.43-3.902,4.341-6.456,4.7c-0.022,0.007-0.044-0.029-0.022-0.044c1.72-0.798,3.316-1.786,4.553-3.25
				c0.952-1.127,1.537-2.408,2.057-3.748c-3.338,5.615-11.698,7.672-16.712,2.181c-0.037-0.044,0.022-0.095,0.059-0.066
				c3.126,2.555,7.569,3.162,11.236,1.42c2.921-1.384,5.022-4.165,6.251-7.137c-0.564,0.82-1.201,1.545-1.83,2.101
				c-2.335,2.086-5.175,3.14-8.279,2.569c-0.19-0.029-0.198-0.366,0-0.395c2.694-0.395,5.512-1.427,7.525-3.301
				c1.684-1.559,2.533-3.506,3.404-5.512c0.351-5.593-0.176-10.175-0.366-11.595c-1.222-1.574-2.225-3.17-2.84-4.692
				c-0.666,0.264-1.676,0.593-2.723,0.651c3.594,3.682,3.609,9.538,0.791,13.703c-0.044,0.073-0.176,0.029-0.146-0.059
				c0.959-2.452,1.215-5.519,0.747-8.111c-0.359-1.969-1.603-3.653-2.079-5.541c-0.403-0.029-0.805-0.117-1.179-0.271
				c2.76,4.714,3.074,10.929-1.201,14.853c-0.081,0.073-0.205-0.022-0.146-0.117c1.669-2.628,2.394-6.164,1.969-9.245
				c-0.337-2.43-1.296-4.626-2.408-6.771c-4.011-3.448-5.849-6.976-5.3-10.256c0.483-2.891,1.991-5.197,4.026-6.149
				c0.234-0.11,0.49-0.146,0.754-0.132c-0.249-0.124-0.498-0.264-0.754-0.381c-0.051-0.022-0.015-0.088,0.029-0.081
				c1.442,0.322,2.789,0.849,3.968,1.75c1.618,1.23,3.294,4.297,5.615,2.233c1.742-1.552,0.761-4.831,2.335-6.391
				c-0.11,0.015-0.22,0.022-0.329,0.037c-0.256,0.176-0.527,0.322-0.747,0.556c-0.395,0.425-0.644,0.996-0.791,1.552
				c-0.198,0.813-0.271,1.567-0.9,2.181c-0.739,0.717-2.533,1.215-2.804-0.19c-0.007-0.022,0.029-0.044,0.037-0.015
				c0.659,1.347,2.159,0.183,2.577-0.403c0.307-0.432,0.395-0.893,0.498-1.391c0.11-0.527,0.264-1.018,0.534-1.479
				c0.066-0.124,0.146-0.242,0.234-0.366c-0.183,0.095-0.359,0.19-0.527,0.315c-0.564,0.425-0.937,0.959-1.259,1.588
				c0,0.007-0.022,0.007-0.022-0.007c0.102-0.805,0.703-1.779,1.486-2.299c-0.322-0.022-0.644-0.051-0.966-0.11
				c-0.081-0.015-0.051-0.132,0.022-0.132c2.072-0.183,4.231-0.82,5.68-2.408c1.53-1.669,1.588-4.033,1.867-6.156
				c0.41-3.184,1.442-6.347,3.631-8.762c3.916-4.312,10.548-5.402,15.702-2.796c0.051,0.022,0.022,0.102-0.015,0.102
				c-0.007,0-0.015,0-0.022-0.007c-6.947-2.84-15.072,1.047-17.349,8.147c-1.01,3.148-0.41,7.196-2.591,9.875
				c-0.864,1.061-2.013,1.706-3.265,2.028c-2.218,2.32,0.124,7.847-4.487,8.286c-0.761,0.073-1.296-0.161-1.757-0.534
				c-0.403-0.337-0.754-0.783-1.135-1.252c-0.717-0.871-1.545-1.618-2.445-2.269c-0.732-0.176-1.471-0.102-2.181,0.234
				c-1.603,0.747-2.804,2.643-3.206,5.066c-0.3,1.779,0.337,3.748,1.823,5.761c0.966,1.31,2.299,2.643,3.968,3.953
				c1.215,0.952,3.675,0.015,4.517-0.425c0.19-0.102,0.417-0.11,0.615-0.029s0.351,0.242,0.425,0.447
				c0.52,1.603,1.632,3.404,3.067,5.212l0.037-0.007c0.007,0.015,0.007,0.044,0.015,0.073c3.572,4.495,9.187,9.048,13.22,10.761
				c5.49,2.342,14.435,2.101,17.107,0.212c1.771-1.252,2.262-3.162,2.818-5.38c0.293-1.149,0.6-2.342,1.113-3.536
				c0.22-0.512,0.49-1.113,0.783-1.779c1.596-3.572,4.253-9.553,4.114-12.386c-0.154-3.155-1.903-10.351-2.064-11.354
				c-0.403,0.403-0.878,0.82-1.449,1.23c-0.732,0.534-1.552,0.827-2.364,0.981c-0.659-0.322-1.105-1.061-1.069-1.896
				c0.022-0.512,0.22-0.966,0.52-1.31c-1.157,0.41-2.46,1.274-3.806,2.906c-0.066,0.081-0.124,0.146-0.19,0.227
				c0.066-0.176,1.266-2.928,4.26-3.989c0.944-0.337,1.75-0.41,2.46-0.395c0.285-0.212,0.564-0.49,0.732-0.842
				c0.007-0.029,0.044-0.022,0.029,0.007c-0.102,0.315-0.242,0.608-0.432,0.849c0.351,0.022,0.681,0.059,0.981,0.088
				c0.271-0.154,0.542-0.381,0.747-0.673c0.212-1.515,0.447-3.411,0.534-4.978c0.007-0.051,0-0.124,0-0.183
				c-0.337-0.212-0.747-0.41-1.142-0.41c-0.908,0.007-6.369,3.785-6.369,3.785c-0.007,0.029-0.015,0.037-0.022,0.037
				c-0.051,0-0.015-1.244,0.461-1.771c1.552-1.742,5.036-3.499,5.776-3.543c0.41-0.022,0.798,0.242,1.12,0.549
				c-0.717-3.448-3.411-10.014-4.751-13.074c-0.798,0.212-1.581,0.534-2.379,0.813c-1.581,0.549-3.199,0.974-4.831,1.325
				c-0.007,0-0.015-0.007-0.015-0.015c0-0.007,0-0.015,0.007-0.015c3.323-2.064,7.767-4.934,11.764-3.053
				c3.294,1.559,4.612,5.358,2.635,8.462c-0.073,0.117-0.234,0.037-0.212-0.088c0.578-2.818-0.52-5.959-3.082-7.174
				c1.823,1.01,2.555,3.338,1.852,5.263c-0.015,0.029-0.066,0.029-0.066-0.015c0.059-1.654-0.571-3.016-1.954-3.946
				c-0.102-0.073-0.205-0.132-0.307-0.183c0.827,0.842,1.362,2.042,1.296,3.038c-0.007,0.044-0.066,0.051-0.081,0.007
				c-0.373-0.9-0.783-1.618-1.566-2.233c-0.227-0.183-0.476-0.337-0.732-0.483c0.974,2.342,2.313,5.71,3.184,8.55
				c1.076-0.893,2.167-1.515,2.935-2.796c0.849-1.427,1.135-3.001,1.142-4.641c0-0.015,0.029-0.022,0.037,0
				c0.703,2.701-0.988,7.108-4.004,7.803c0.073,0.234,0.139,0.468,0.198,0.695c0.996-1.003,2.35-1.691,3.272-2.826
				c1.135-1.405,1.911-3.089,2.269-4.861c0.732-3.623-0.468-7.364-2.628-10.292c-2.482-3.382-6.237-5.827-10.512-5.863
				c-4.026-0.044-7.928,1.515-11.28,3.638c-0.029,0.022-0.059-0.022-0.037-0.044c1.508-1.23,3.177-2.372,4.956-3.243
				c-1.003,0.059-2.006,0.146-2.994,0.373c-2.482,0.571-4.809,1.742-6.603,3.558l-0.117-0.095c1.479-1.903,3.426-3.148,5.724-3.975
				c1.574-0.564,3.499-0.974,5.402-1.076c-1.039-0.468-2.072-0.952-3.184-1.237c-1.859-0.468-3.741-0.783-5.666-0.791
				c-0.6,0-1.208,0.029-1.808,0.102c-3.082,0.329-6.09,1.537-8.352,3.66c-0.102,0.095-0.271-0.022-0.198-0.146
				c0.688-1.076,1.53-1.933,2.482-2.606l0.168-0.534c0.146,0.037,0.285,0.088,0.432,0.139c1.889-1.142,4.143-1.647,6.493-1.728
				c2.152-0.081,4.348,0.264,6.391,0.944c1.53,0.512,3.47,1.164,4.89,2.189c0.081,0,0.161,0,0.234,0.007
				c1.281-0.322,2.591-0.476,3.938-0.403c4.392,0.249,8.242,2.994,10.775,6.471c2.452,3.36,3.682,7.701,2.635,11.807
				c-0.447,1.764-1.281,3.448-2.438,4.861c-0.915,1.127-2.452,2.657-4.026,2.811c0.249,1.032,0.388,1.918,0.351,2.54
				c-0.11,1.881-0.6,3.909-1.047,5.417c0.183-0.088,0.351-0.212,0.512-0.395c0,0-0.227,0.615-0.842,1.471
				c-0.124,0.366-0.227,0.666-0.3,0.878c0.52,1.376,2.628,8.352,2.789,11.617c0.139,2.818-1.918,7.796-3.609,11.632
				c0.007,0.007,0.015,0.007,0.022,0.015l-0.139,0.256c-0.176,0.395-0.351,0.783-0.512,1.149c-0.293,0.659-0.564,1.259-0.776,1.764
				c-0.468,1.083-0.761,2.218-1.039,3.323c-0.578,2.284-1.179,4.648-3.397,6.215c-0.307,0.212-0.681,0.403-1.083,0.578
				c1.127,0.344,2.225,0.556,3.594-0.037c2.511-1.091,3.477-2.848,3.375-5.527c0-0.044,0.066-0.051,0.073-0.007
				c0.468,2.423,0.271,4.114-1.479,5.446c-0.285,0.22-0.608,0.432-0.981,0.63c-1.889,1.025-4.165,1.12-5.929-0.015
				c-0.805,0.227-1.728,0.388-2.701,0.505c0.439,1.61,0.769,3.126,1.94,4.487c1.545,1.793,3.741,2.635,6.032,2.899
				c0.051,0,0.051,0.066,0,0.073c-2.438,0.249-4.846-0.681-6.522-2.482c-0.659-0.703-1.266-1.618-1.654-2.599c0,0.095,0,0.198,0,0.3
				c0.483,1.464,0.878,2.877,1.94,4.092c1.105,1.266,2.708,2.24,4.312,2.723c0.007,0.007,0.007,0.022,0,0.022
				c-2.101-0.022-4.517-1.413-5.805-3.353c0.637,2.584,2.101,5.366,5.263,7.262c1.632,0.981,3.492,1.771,5.468,2.613
				c0.615,0.264,1.23,0.527,1.852,0.805c0.673,0.073,1.362,0.073,1.976-0.044c0.637-0.124,2.525-0.717,3.14-1.545l0.3,0.059
				c-0.227,0.922-1.552,1.669-2.284,1.969c-0.454,0.183-0.908,0.3-1.354,0.373c0.029,0.015,0.059,0.029,0.088,0.044
				c0.015-0.015,0.037-0.029,0.044-0.037l0.059,0.088c6.281,3.045,12.151,7.708,12.151,20.548c0,14.531-2.108,33.9-7.562,51.622
				l0.183-0.007l0.769,16.463c1.164,0.637,5.373,2.928,14.897,7.686c7.371,3.689,13.93,9.392,17.825,13.176
				c2.079,1.069,4.063,2.628,4.721,4.604c2.921,2.482,10.395,10.373,9.223,25.628c-1.135,14.662-11.947,26.755-16.339,31.096
				c3.558-0.49,10.461-0.864,17.964,1.889c4.619,1.698,8.696,1.413,11.756,0.615c-0.644-1.918-1.954-6.61-0.944-10.644
				c0.673-2.708,1.596-3.763,2.328-4.619c0.651-0.747,1.12-1.288,1.347-2.862c0.505-3.543-0.168-8.528-0.176-8.579
				c-0.029-0.198,0.022-0.395,0.146-0.549c0.124-0.161,0.3-0.256,0.498-0.278l8.257-0.878c0.227-0.029,0.454,0.059,0.608,0.22
				c0.154,0.168,0.227,0.395,0.198,0.615c-0.015,0.095-1.332,9.062,1.098,12.466c1.083,1.515,6.925,8.931,15.899,6.398
				c7.701-2.174,9.18-1.852,15.431-0.498l1.435,0.315C378.119,350.058,383.638,353.257,384.956,356.104z M383.712,357.634
				c0.117-0.227,0.088-0.534-0.088-0.915c-0.988-2.137-5.863-5.234-11.544-6.456l-1.442-0.307
				c-6.105-1.325-7.371-1.603-14.721,0.476c-6.896,1.947-12.752-1.354-16.346-5.512c-0.41-0.476-0.791-0.959-1.142-1.449
				c-2.291-3.206-1.764-10.08-1.479-12.598l-6.595,0.703c0.176,1.574,0.505,5.3,0.088,8.242c-0.285,1.969-0.981,2.789-1.654,3.58
				c0.249-0.073,0.505-0.139,0.776-0.183c2.796-0.454,5.673,0.922,8.177,2.116c0.146,0.066,0.293,0.139,0.432,0.205
				c0.066,0.029,0.015,0.132-0.051,0.11c-3.074-0.952-7.825-2.167-10.724-0.176c-0.234,0.52-0.454,1.149-0.659,1.976
				c-0.915,3.66,0.344,8.118,0.93,9.86c2.745-0.937,4.377-2.159,4.414-2.189c0.051-0.037,0.102-0.073,0.161-0.095
				c0.285-0.117,7.042-2.884,16.339,0.337c4.926,1.706,9.282,1.625,12.781,1.567c2.928-0.051,5.454-0.095,7.357,0.944
				c2.591,1.413,3.236,2.906,3.309,3.924C376.78,360.745,383.024,358.908,383.712,357.634z M370.565,362.231
				c0.073-0.432,0.007-1.684-2.547-3.082c-1.559-0.849-3.799-0.805-6.625-0.761c-3.623,0.066-8.118,0.139-13.293-1.647
				c-8.221-2.848-14.457-0.688-15.211-0.395c-0.944,0.688-8.565,5.929-18.886,2.145c-7.152-2.621-13.872-2.255-17.268-1.793
				c-2.013,0.483-4.238,1.215-6.508,2.32c-0.937,0.564-1.881,1.105-2.84,1.632c-6.771,3.763-12.313,8.989-16.91,15.219
				c-0.022,0.029-0.073,0-0.051-0.029c1.764-3.126,3.616-6.273,6.112-8.879c2.408-2.511,5.146-4.641,8.155-6.383
				c3.411-1.976,6.888-3.726,9.933-6.281c2.46-2.064,4.722-4.275,6.749-6.749c4.443-5.783,9.319-14.121,10.043-23.527
				c1.332-17.327-9.245-24.852-9.67-25.145c-1.025-0.505-16.609-7.847-31.843,3.902c-15.724,12.115-27.048,44.66-27.165,44.982
				c0,0.015-0.015,0.022-0.015,0.029l0.007,0.007c-6.251,15.863-7.657,40.576,0.952,52.844c3.572,5.073,8.506,7.576,14.684,7.379
				c22.253-0.644,57.2-25.05,67.382-32.516c3.426-2.518,7.43-3.038,12.971-3.755c3.397-0.439,7.247-0.944,11.917-2.006
				C361.532,367.253,369.167,363.044,370.565,362.231z M299.325,296.357c-0.476-0.483-1.032-1.032-1.64-1.618
				c-1.135-0.534-2.335-0.915-3.558-1.193c-2.379-0.542-4.839-0.725-7.254-0.937c-2.394-0.205-4.839-0.249-7.181,0.359
				c-0.051,0.015-0.073-0.066-0.022-0.088c4.714-1.691,10.739-1.669,15.585-0.395c-3.85-3.455-9.114-7.613-14.794-10.453
				c-7.876-3.938-12.137-6.193-14.047-7.225c-0.015,1.64-0.856,3.47-1.72,4.531c-0.007,0.007-0.015,0-0.015-0.015
				c0.549-1.281,0.783-2.577,0.776-3.975c-0.007-0.381-0.059-0.754-0.11-1.12c-0.037-0.022-0.073-0.044-0.102-0.059
				c-0.827,2.716-2.716,5.205-4.765,7.079c-0.051,0.044-0.11-0.022-0.073-0.073c2.408-2.979,3.287-6.376,4.268-9.882l-0.527-11.215
				c-1.735,5.131-3.763,10.087-6.112,14.699c-0.381,1.72-5.754,25.606-16.404,43.862c-3.096,5.3-6.625,11.134-10.504,17.334
				c3.192,4.151,6.288,7.357,9.223,9.531c0.198-1.208,0.439-2.408,0.688-3.616c0.63-3.067,1.523-6.164,3.016-8.923
				c0.015-0.022,0.044-0.007,0.037,0.015c-1.405,4.341-1.75,8.894-2.562,13.345c0.044,0.029,0.088,0.066,0.139,0.095
				c1.94-5.395,12.547-33.402,27.348-44.799C281.215,292.207,293.674,294.52,299.325,296.357z M271.362,204.957
				c0-11.559-4.897-15.973-10.643-18.893c-2.313,1.771-9.816,8.103-15.643,19.75c-4.678,9.362-4.465,18.915-3.821,24.149
				c1.684-8.301,3.338-15.585,4.67-19.611l1.391,0.454c-1.508,4.575-3.448,13.396-5.373,23.132c0.015,0.044,0.022,0.073,0.022,0.081
				l-0.037,0.015c-0.827,4.18-1.647,8.521-2.423,12.774c-0.051,0.754-0.19,1.501-0.41,2.233
				c-2.635,14.494-4.714,27.282-4.758,27.538c-0.015,0.088-0.044,0.168-0.088,0.249c-0.044,0.081-4.956,8.74-10.482,23.952
				c-1.567,4.304-3.419,9.421-5.336,14.75c-4.194,11.661-9.538,26.616-11.954,33.629l-0.454,1.325
				c-0.49,1.442-1.127,3.25-1.83,5.256c-2.174,6.186-5.153,14.648-6.456,19.794l-0.71-0.176l0.703,0.183
				c-0.783,3.067-0.681,3.902-0.637,4.077c1.201,1.01,4.026,1.698,5.036,1.889c0.081,0.015,0.161,0.044,0.234,0.088
				c2.672,1.567,4.656,1.164,4.743,1.142c0.256-0.059,0.534,0.037,0.71,0.234c0.022,0.029,2.328,2.643,4.538,2.643
				c0.007,0,0.007,0,0.015,0c0.783-0.007,1.464-0.351,2.072-1.054c2.269-2.65,2.913-7.13,3.096-9.106c-0.022,0-0.044,0-0.066,0
				c-0.791,0.359-1.567,1.098-2.24,1.969s-1.244,1.867-1.654,2.738l-0.029,0.081c-0.037,0.081-0.088,0.154-0.146,0.212l-0.037-0.037
				c-0.198,0.154-0.454,0.212-0.703,0.124c-0.264-0.095-0.439-0.337-0.476-0.6h-0.029l0.007-0.015c0-0.066,0.007-0.132,0.029-0.198
				h-0.007l0.007-0.015v-0.007c0.007-0.022,0.015-0.037,0.022-0.059l0.081-0.322c0.212-0.761,0.688-2.518,1.266-4.678
				c0.878-3.316,1.596-6.142,2.123-8.404c1.303-5.541-0.081-8.045-0.095-8.074c-0.132-0.234-0.132-0.542,0.022-0.776
				c0,0,1.179-1.771,3.133-4.743c3.806-5.841,7.459-11.566,10.87-17.012c3.975-6.354,7.591-12.32,10.746-17.737
				c10.885-18.652,16.207-43.277,16.258-43.526c0.015-0.066,0.037-0.124,0.066-0.183
				C267.504,253.066,271.362,224.576,271.362,204.957z M259.24,185.347c-0.981-0.454-1.969-0.878-2.965-1.303
				c-0.651-0.278-1.296-0.556-1.925-0.835c-0.556,0.849-1.31,1.537-1.852,2.423c-0.527,0.856-1.047,1.698-1.618,2.525
				c-1.157,1.684-2.32,3.265-3.865,4.612c-0.037,0.029-0.081-0.015-0.051-0.044c1.684-2.035,2.767-4.297,3.96-6.625
				c0.578-1.12,1.259-2.73,2.452-3.331c-0.329-0.154-0.644-0.307-0.959-0.468c-1.786,2.233-8.294,10.636-14.735,21.968
				c-7.576,13.315-12.715,19.106-22.897,25.811c-9.626,6.332-10.995,16.251-11.01,16.346c-0.044,0.351-0.329,0.622-0.688,0.637
				c-0.007,0-0.022,0-0.037,0c-0.337,0-0.63-0.227-0.71-0.556c-0.029-0.117-2.928-11.8-7.789-18.454
				c-5.022-6.866,5.205-37.53,8.887-44.631c-0.366-0.007-0.732-0.022-1.113-0.037c-0.285,0.776-0.747,1.464-1.157,2.203
				c-0.586,1.047-1.113,2.116-1.647,3.184c-0.029,0.066-0.132,0.022-0.11-0.044c0.447-1.669,1.083-3.916,2.269-5.373
				c-0.63-0.037-1.274-0.073-1.947-0.117c-0.893,3.404-5.629,20.95-11.295,34.646c-5.966,14.428-8.718,24.947-4.004,32.809
				c1.962,3.272,4.919,5.761,7.935,7.803c2.452,1.369,5.014,2.599,7.613,3.499c1.911,0.666,3.865,1.208,5.746,1.94
				c1.823,0.71,3.426,1.83,5,2.987c0.088,0.059,0.015,0.19-0.081,0.139c-2.935-1.53-6.288-2.284-9.516-3.25v0.154
				c0.666,0.476,1.215,0.922,1.64,1.347c0.271,0.271,0.534,0.637,0.791,1.076c2.064,1.647,4.143,3.265,6.186,4.912
				c0.037,0.029-0.015,0.088-0.051,0.066c-1.545-0.915-3.382-1.786-5.117-2.796c1.274,3.323,2.46,8.491,3.77,14.186
				c1.471,6.398,3.14,13.637,5.131,18.923c2.489,6.588,3.682,9.846,4.253,11.456c1.669-4.641,3.272-9.062,4.656-12.854
				c5.227-14.384,9.919-22.971,10.526-24.069c0.183-1.113,1.501-9.187,3.309-19.45c-0.827,1.215-1.962,2.247-3.265,2.95
				c-0.015,0.007-0.022-0.007-0.015-0.015c1.669-1.764,2.687-3.763,3.433-5.937c-2.262,2.584-5.432,4.48-8.506,4.948
				c-0.029,0.007-0.051-0.037-0.022-0.051c2.467-1.42,5-3.206,6.918-5.322c1.142-1.266,2.013-2.708,2.818-4.194
				c0.908-4.985,1.881-10.182,2.862-15.16c-0.608-2.533-3.257-15.68,3.316-28.819C249.365,193.97,256.326,187.667,259.24,185.347z
				 M255.536,130.621c0.285-0.3,1.625-1.72,1.369-1.837c-0.051-0.022-0.835-0.534-2.064-0.637c0.534,0.366,0.886,1.025,0.849,1.764
				C255.682,130.167,255.623,130.402,255.536,130.621z M251.1,181.599c-0.154-0.088-0.315-0.168-0.468-0.256
				c-6.757-4.063-6.581-11.815-6.281-14.552c-0.534,0.029-1.083,0.051-1.647,0.051c-3.528,0-7.364-0.608-10.212-1.823
				c-3.426-1.457-8.506-5.234-12.334-9.458c0.498,5.249,0.864,17.027-4.165,26.55c-0.081,0.154-0.22,0.278-0.388,0.344
				c-0.139,0.051-2.811,1.01-9.677,1.01c-0.271,0-0.549,0-0.842,0c-3.031,4.948-13.996,37.369-9.348,43.723
				c2.284,3.133,4.129,7.24,5.468,10.827c0.117-2.943,0.908-5.841,2.328-8.426c2.899-5.285,8.813-9.509,9.582-15.76
				c0.007-0.051,0.095-0.059,0.088,0c-0.41,5.549-3.946,9.567-6.94,13.967c-1.889,2.767-3.243,5.776-3.565,9.15
				c-0.161,1.72-0.088,3.477,0.242,5.183c0.051,0.285,0.117,0.564,0.19,0.842c1.201-3.667,4.092-9.67,10.848-14.113
				c10.08-6.632,14.897-12.071,22.429-25.313C242.703,192.462,249.079,184.154,251.1,181.599z M234.3,354.216
				c1.032-0.798,2.547-2.54,1.457-5.454c-1.252-3.338-4.809-7.876-6.5-9.802c-2.782,4.407-5.695,8.967-8.718,13.616
				C226.043,353.835,230.83,354.186,234.3,354.216z M231.013,373.468c1.12-1.896,4.48-8.008,4.041-12.408
				c-0.293-2.899-0.739-4.517-1.083-5.388c-3.645-0.044-8.609-0.447-14.282-1.793c-1.303,1.984-2.225,3.382-2.628,3.982
				c0.417,1.017,1.201,3.821,0.051,8.718c-0.483,2.05-1.12,4.575-1.881,7.489l1.976-0.073c0.351-0.124,0.71-0.212,1.083-0.234
				c0.183-0.007,0.366,0.059,0.512,0.176C223.722,373.76,227.931,373.599,231.013,373.468z M217.903,172.148
				c0.059-0.293,0.117-0.578,0.168-0.871c-0.059,0.176-0.117,0.351-0.183,0.52C217.903,171.914,217.895,172.031,217.903,172.148z
				 M216.951,315.309l-0.081-0.161c-0.015-0.044-0.029-0.081-0.037-0.124c-0.015-0.044-0.403-1.398-4.722-12.832
				c-2.028-5.373-3.704-12.671-5.19-19.106c-1.588-6.918-3.096-13.484-4.648-16.017c-0.417-0.315-0.813-0.637-1.186-0.981
				l-0.293,16.807c1.501,7.635,2.262,19.874,2.342,37.369c6.142,0.293,10.409,0.761,11.705,0.922
				C215.56,319.174,216.27,317.205,216.951,315.309z M214.806,375.656c0.037-0.037,0.081-0.073,0.117-0.11h-0.088
				C214.828,375.583,214.814,375.62,214.806,375.656z M214.33,322.6c-1.567-0.183-5.578-0.6-11.185-0.864
				c0.007,4.253-0.015,8.184-0.037,11.676c-0.037,5.512-0.066,10.278,0.124,11.039c0.307,1.23,0.908,2.467,1.413,3.36l0.044,0.015
				c0.212,0.059,0.425,0.124,0.637,0.19C207.303,342.298,210.905,332.167,214.33,322.6z M204.514,350.365
				c-0.227-0.322-0.593-0.878-0.996-1.574c-0.827-1.427-1.405-2.774-1.706-3.989c-0.227-0.9-0.212-4.341-0.168-11.405
				c0.022-3.689,0.051-7.884,0.037-12.43c-0.066-17.839-0.827-30.225-2.342-37.867c-0.007-0.051-0.015-0.102-0.007-0.154
				l0.322-18.227c-0.944-0.622-2.05-1.274-3.221-1.969c-4.473-2.65-10.036-5.951-13.249-11.302
				c-1.801-3.009-2.606-6.332-2.606-10.043c0-6.654,2.569-14.552,6.508-24.076c5.49-13.271,10.109-30.203,11.163-34.178
				c-0.168-0.007-0.329-0.007-0.49-0.015c-0.461,0.102-0.944,0.095-1.427,0.007c-4.963,0.161-9.289,1.771-12.393,4.648
				c-3.228,3.001-4.926,7.174-4.926,12.071c0,3.433-0.081,8.726-0.176,14.853c-0.117,8.059-0.271,17.832-0.278,26.682
				c-0.007,6.486,0.066,12.474,0.271,16.932c0.71,15.241,1.933,29.12,4.216,47.91c0.505,4.151,1.201,9.055,2.072,14.589
				c1.376,8.748,2.95,17.612,4.026,23.512c1.039,5.724,1.793,9.597,1.801,9.633c0.007,0.059,0.015,0.124,0.007,0.19
				c-0.007,0.139-0.966,14.428-0.791,21.353l-0.732,0.022l0.732-0.015c0.059,2.745,0.293,3.257,0.322,3.309
				c0.476,0.673,0.747,0.717,1.281,0.798c0.549,0.081,1.296,0.198,2.255,0.966c0.688,0.549,1.896,0.71,2.987,0.717
				c-0.351-0.198-0.673-0.417-0.944-0.651c-0.278-0.249-0.461-0.637-0.461-1.405c0-0.827,0.205-2.086,0.717-4.085
				c1.318-5.212,4.312-13.711,6.493-19.918C203.46,353.418,204.046,351.741,204.514,350.365z M188.681,374.822
				c-0.095-6.896,0.725-19.442,0.805-20.665c-0.117-0.6-0.783-4.077-1.691-9.055c-13.513-2.496-24.947-2.028-34.932,1.442
				c0,0,14.56-8.367,34.632-3.074c-1.039-5.717-2.452-13.762-3.719-21.763c-18.93,0.82-35.459,4.085-49.14,9.714
				c-12.305,5.073-18.505,11.61-18.418,19.442c0.11,10.409,11.405,19.984,17.7,22.422
				C138.259,374.961,157.197,375.495,188.681,374.822z"/>
			<path fill="#DB1A21" d="M383.624,356.719c0.176,0.381,0.205,0.688,0.088,0.915c-0.688,1.274-6.932,3.111-11.683,4.158
				c-0.073-1.017-0.717-2.511-3.309-3.924c-1.903-1.039-4.429-0.996-7.357-0.944c-3.499,0.059-7.855,0.139-12.781-1.567
				c-9.297-3.221-16.053-0.454-16.339-0.337c-0.059,0.022-0.11,0.059-0.161,0.095c-0.037,0.029-1.669,1.252-4.414,2.189
				c-0.586-1.742-1.845-6.2-0.93-9.86c0.205-0.827,0.425-1.457,0.659-1.976c2.899-1.991,7.65-0.776,10.724,0.176
				c0.066,0.022,0.117-0.081,0.051-0.11c-0.139-0.066-0.285-0.139-0.432-0.205l1.83-0.41c3.594,4.158,9.45,7.459,16.346,5.512
				c7.349-2.079,8.616-1.801,14.721-0.476l1.442,0.307C377.76,351.485,382.636,354.582,383.624,356.719z M347.367,353.959
				c0.117,0.029,0.198-0.146,0.088-0.198c-5.798-2.767-12.166-3.499-17.488,0.71c-0.029,0.022,0.015,0.073,0.044,0.051
				C335.179,351.346,341.855,352.349,347.367,353.959z"/>
			<path fill="#FFC7A2" d="M368.017,359.149c2.555,1.398,2.621,2.65,2.547,3.082c-1.398,0.813-9.033,5.022-19.925,7.51
				c-4.67,1.061-8.521,1.567-11.917,2.006c-5.541,0.717-9.546,1.237-12.971,3.755c-10.182,7.467-45.129,31.872-67.382,32.516
				c-6.178,0.198-11.112-2.306-14.684-7.379c-8.609-12.269-7.203-36.981-0.952-52.844l-0.007-0.007c0-0.007,0.015-0.015,0.015-0.029
				c0.117-0.322,11.441-32.868,27.165-44.982c15.233-11.749,30.818-4.407,31.843-3.902c0.425,0.293,11.002,7.818,9.67,25.145
				c-0.725,9.406-5.6,17.744-10.043,23.527c-2.028,2.474-4.29,4.685-6.749,6.749c-3.045,2.555-6.522,4.304-9.933,6.281
				c-3.009,1.742-5.746,3.872-8.155,6.383c-2.496,2.606-4.348,5.754-6.112,8.879c-0.022,0.029,0.029,0.059,0.051,0.029
				c4.597-6.229,10.138-11.456,16.91-15.219c0.959-0.527,1.903-1.069,2.84-1.632c2.269-1.105,4.495-1.837,6.508-2.32
				c3.397-0.461,10.116-0.827,17.268,1.793c10.321,3.785,17.942-1.457,18.886-2.145c0.754-0.293,6.991-2.452,15.211,0.395
				c5.175,1.786,9.67,1.713,13.293,1.647C364.218,358.344,366.458,358.3,368.017,359.149z M338.027,361.221
				c0.081,0.022,0.132-0.095,0.059-0.139c-2.02-1.274-4.187-2.379-6.566-1.266c-1.157,0.542-1.984,1.581-3.023,2.299
				c-1.464,0.996-3.009,1.654-4.751,1.976c-0.139,0.029-0.088,0.212,0.029,0.227c2.138,0.278,4.312-0.139,6.039-1.464
				c1.186-0.915,2.086-2.013,3.689-2.159C334.974,360.562,336.621,360.826,338.027,361.221z"/>
			<path d="M347.455,353.762c0.11,0.051,0.029,0.227-0.088,0.198c-5.512-1.61-12.188-2.613-17.356,0.564
				c-0.029,0.022-0.073-0.029-0.044-0.051C335.289,350.263,341.657,350.995,347.455,353.762z"/>
			<path fill="#DB1A21" d="M339.571,344.919l-1.83,0.41c-2.504-1.193-5.38-2.569-8.177-2.116c-0.271,0.044-0.527,0.11-0.776,0.183
				c0.673-0.791,1.369-1.61,1.654-3.58c0.417-2.943,0.088-6.669-0.088-8.242l6.595-0.703c-0.285,2.518-0.813,9.392,1.479,12.598
				C338.781,343.96,339.161,344.443,339.571,344.919z"/>
			<path d="M338.085,361.082c0.073,0.044,0.022,0.161-0.059,0.139c-1.405-0.395-3.053-0.659-4.524-0.527
				c-1.603,0.146-2.504,1.244-3.689,2.159c-1.728,1.325-3.902,1.742-6.039,1.464c-0.117-0.015-0.168-0.198-0.029-0.227
				c1.742-0.322,3.287-0.981,4.751-1.976c1.039-0.717,1.867-1.757,3.023-2.299C333.898,358.703,336.065,359.808,338.085,361.082z"/>
			<path fill="#DB1A21" d="M297.685,294.739c0.608,0.586,1.164,1.135,1.64,1.618c-5.651-1.837-18.11-4.151-30.313,5.263
				c-14.801,11.397-25.408,39.404-27.348,44.799c-0.051-0.029-0.095-0.066-0.139-0.095c0.813-4.451,1.157-9.004,2.562-13.345
				c0.007-0.022-0.022-0.037-0.037-0.015c-1.493,2.76-2.386,5.856-3.016,8.923c-0.249,1.208-0.49,2.408-0.688,3.616
				c-2.935-2.174-6.032-5.38-9.223-9.531c3.88-6.2,7.408-12.034,10.504-17.334c10.651-18.256,16.024-42.142,16.404-43.862
				c2.35-4.612,4.377-9.567,6.112-14.699l0.527,11.215c-0.981,3.506-1.859,6.903-4.268,9.882c-0.037,0.051,0.022,0.117,0.073,0.073
				c2.05-1.874,3.938-4.363,4.765-7.079c0.029,0.015,0.066,0.037,0.102,0.059c0.051,0.366,0.102,0.739,0.11,1.12
				c0.007,1.398-0.227,2.694-0.776,3.975c0,0.015,0.007,0.022,0.015,0.015c0.864-1.061,1.706-2.891,1.72-4.531
				c1.911,1.032,6.171,3.287,14.047,7.225c5.68,2.84,10.944,6.998,14.794,10.453c-4.846-1.274-10.87-1.296-15.585,0.395
				c-0.051,0.022-0.029,0.102,0.022,0.088c2.342-0.608,4.787-0.564,7.181-0.359c2.416,0.212,4.875,0.395,7.254,0.937
				C295.35,293.824,296.55,294.205,297.685,294.739z M262.68,299.439c0.044-0.044-0.029-0.117-0.073-0.073
				c-4.187,4.326-8.111,8.909-11.149,14.135c-3.082,5.314-5.08,10.812-6.588,16.756c-0.015,0.088,0.102,0.117,0.132,0.037
				c1.962-5.556,4.648-11.039,7.547-16.156C255.492,308.955,258.713,303.904,262.68,299.439z"/>
			<path d="M270.103,172.258c0.19,3.858-2.372,8.44-5.951,9.56c-0.007,0.051-0.015,0.102-0.029,0.154l-0.3-0.059
				c-1.398,0.344-2.935,0.161-4.509-0.791c-0.095-0.051-0.037-0.212,0.073-0.176c5.519,1.779,10.058-4.385,9.319-9.436
				c-0.395-2.643-2.423-4.934-5.219-5c-1.398-0.037-2.482,0.739-3.682,1.23l-0.176-0.454c2.094-0.944,3.85-2.233,6.42-1.179
				C268.573,167.141,269.971,169.601,270.103,172.258z"/>
			<path fill="#825845" d="M268.705,171.512c0.739,5.051-3.799,11.214-9.319,9.436c-0.11-0.037-0.168,0.124-0.073,0.176
				c1.574,0.952,3.111,1.135,4.509,0.791c-0.615,0.827-2.503,1.42-3.14,1.545c-0.615,0.117-1.303,0.117-1.976,0.044
				c-0.622-0.278-1.237-0.542-1.852-0.805c-1.976-0.842-3.836-1.632-5.468-2.613c-3.162-1.896-4.626-4.678-5.263-7.262
				c1.288,1.94,3.704,3.331,5.805,3.353c0.007,0,0.007-0.015,0-0.022c-1.603-0.483-3.206-1.457-4.312-2.723
				c-1.061-1.215-1.457-2.628-1.94-4.092c0-0.102,0-0.205,0-0.3c0.388,0.981,0.996,1.896,1.654,2.599
				c1.676,1.801,4.085,2.73,6.522,2.482c0.051-0.007,0.051-0.073,0-0.073c-2.291-0.264-4.487-1.105-6.032-2.899
				c-1.171-1.362-1.501-2.877-1.94-4.487c0.974-0.117,1.896-0.278,2.701-0.505c1.764,1.135,4.041,1.039,5.929,0.015
				c0.373-0.198,0.695-0.41,0.981-0.63l0.285,0.659c-0.124,0.059-0.256,0.117-0.388,0.168c-0.073,0.029-0.066,0.132,0.015,0.139
				c2.145,0.081,3.697-1.632,4.18-3.623l1.025,0.271c-0.981,3.221-3.975,5.278-7.357,5.783c-0.102,0.015-0.088,0.161,0,0.183
				c2.042,0.542,3.946,0.051,5.461-1.047c0.381-0.066,0.739-0.183,1.091-0.329c1.201-0.49,2.284-1.266,3.682-1.23
				C266.282,166.578,268.309,168.869,268.705,171.512z M265.63,169.894c1.018,1.471,0.652,4.312,0.037,5.878
				c-0.776,1.976-2.613,3.316-4.765,3.272c-0.088,0-0.102,0.132-0.022,0.154c4.926,1.64,8.162-6.149,4.773-9.326
				C265.637,169.857,265.615,169.879,265.63,169.894z M263.061,172.902c0.007-0.073-0.11-0.088-0.117-0.015
				c-0.717,4.809-5.49,6.325-9.707,5.395c-0.161-0.037-0.227,0.161-0.102,0.249C257.534,181.877,262.731,177.668,263.061,172.902z"
				/>
			<path fill="#FFC7A2" d="M260.718,186.064c5.746,2.921,10.643,7.335,10.643,18.893c0,19.618-3.858,48.108-14.677,69.234
				c-0.029,0.059-0.051,0.117-0.066,0.183c-0.051,0.249-5.373,24.874-16.258,43.526c-3.155,5.417-6.771,11.383-10.746,17.737
				c-3.411,5.446-7.064,11.171-10.87,17.012c-1.954,2.972-3.133,4.743-3.133,4.743c-0.154,0.234-0.154,0.542-0.022,0.776
				c0.015,0.029,1.398,2.533,0.095,8.074c-0.527,2.262-1.244,5.087-2.123,8.404c-0.578,2.159-1.054,3.916-1.266,4.678l-0.081,0.322
				c-0.007,0.022-0.015,0.037-0.022,0.059v0.007l-0.007,0.015h0.007c-0.022,0.066-0.029,0.132-0.029,0.198l-0.007,0.015h0.029
				c0.037,0.264,0.212,0.505,0.476,0.6c0.249,0.088,0.505,0.029,0.703-0.124l0.037,0.037c0.059-0.059,0.11-0.132,0.146-0.212
				l0.029-0.081c0.41-0.871,0.981-1.867,1.654-2.738s1.449-1.61,2.24-1.969c0.022,0,0.044,0,0.066,0
				c-0.183,1.976-0.827,6.456-3.096,9.106c-0.608,0.703-1.288,1.047-2.072,1.054c-0.007,0-0.007,0-0.015,0
				c-2.211,0-4.517-2.613-4.538-2.643c-0.176-0.198-0.454-0.293-0.71-0.234c-0.088,0.022-2.072,0.425-4.743-1.142
				c-0.073-0.044-0.154-0.073-0.234-0.088c-1.01-0.19-3.836-0.878-5.036-1.889c-0.044-0.176-0.146-1.01,0.637-4.077l-0.703-0.183
				l0.71,0.176c1.303-5.146,4.282-13.608,6.456-19.794c0.703-2.006,1.34-3.814,1.83-5.256l0.454-1.325
				c2.416-7.013,7.759-21.968,11.954-33.629c1.918-5.329,3.77-10.446,5.336-14.75c5.527-15.211,10.439-23.871,10.482-23.952
				c0.044-0.081,0.073-0.161,0.088-0.249c0.044-0.256,2.123-13.045,4.758-27.538c0.22-0.732,0.359-1.479,0.41-2.233
				c0.776-4.253,1.596-8.594,2.423-12.774l0.037-0.015c0-0.007-0.007-0.037-0.022-0.081c1.925-9.736,3.865-18.557,5.373-23.132
				l-1.391-0.454c-1.332,4.026-2.987,11.31-4.67,19.611c-0.644-5.234-0.856-14.787,3.821-24.149
				C250.902,194.168,258.405,187.836,260.718,186.064z"/>
			<path d="M265.667,175.772c0.615-1.567,0.981-4.407-0.037-5.878c-0.015-0.015,0.007-0.037,0.022-0.022
				c3.389,3.177,0.154,10.966-4.773,9.326c-0.081-0.022-0.066-0.154,0.022-0.154C263.053,179.088,264.891,177.748,265.667,175.772z"
				/>
			<path fill="#825845" d="M261.692,100.382c2.159,2.928,3.36,6.669,2.628,10.292c-0.359,1.771-1.135,3.455-2.269,4.861
				c-0.922,1.135-2.277,1.823-3.272,2.826c-0.059-0.227-0.124-0.461-0.198-0.695c3.016-0.695,4.707-5.102,4.004-7.803
				c-0.007-0.022-0.037-0.015-0.037,0c-0.007,1.64-0.293,3.214-1.142,4.641c-0.769,1.281-1.859,1.903-2.935,2.796
				c-0.871-2.84-2.211-6.207-3.184-8.55c0.256,0.146,0.505,0.3,0.732,0.483c0.783,0.615,1.193,1.332,1.566,2.233
				c0.015,0.044,0.073,0.037,0.081-0.007c0.066-0.996-0.469-2.196-1.296-3.038c0.103,0.051,0.205,0.11,0.307,0.183
				c1.384,0.93,2.013,2.291,1.954,3.946c0,0.044,0.051,0.044,0.066,0.015c0.703-1.925-0.029-4.253-1.852-5.263
				c2.562,1.215,3.66,4.355,3.082,7.174c-0.022,0.124,0.139,0.205,0.212,0.088c1.976-3.104,0.659-6.903-2.635-8.462
				c-3.997-1.881-8.44,0.988-11.764,3.053c-0.007,0-0.007,0.007-0.007,0.015l-1.918-0.813c0.037,0,0.066-0.081,0.015-0.102
				c-5.153-2.606-11.785-1.515-15.702,2.796c-2.189,2.416-3.221,5.578-3.631,8.762c-0.278,2.123-0.337,4.487-1.867,6.156
				c-1.449,1.588-3.609,2.225-5.68,2.408c-0.073,0-0.102,0.117-0.022,0.132c0.322,0.059,0.644,0.088,0.966,0.11
				c-0.783,0.52-1.383,1.493-1.486,2.299c0,0.015,0.022,0.015,0.022,0.007c0.322-0.63,0.695-1.164,1.259-1.588
				c0.168-0.124,0.344-0.22,0.527-0.315c-0.088,0.124-0.168,0.242-0.234,0.366c-0.271,0.461-0.425,0.952-0.534,1.479
				c-0.102,0.498-0.19,0.959-0.498,1.391c-0.417,0.586-1.918,1.75-2.577,0.403c-0.007-0.029-0.044-0.007-0.037,0.015
				c0.271,1.405,2.064,0.908,2.804,0.19c0.63-0.615,0.703-1.369,0.9-2.181c0.146-0.556,0.395-1.127,0.791-1.552
				c0.22-0.234,0.49-0.381,0.747-0.556c0.11-0.015,0.22-0.022,0.329-0.037c-1.574,1.559-0.593,4.839-2.335,6.391
				c-2.32,2.064-3.997-1.003-5.615-2.233c-1.179-0.9-2.525-1.427-3.968-1.75c-0.044-0.007-0.081,0.059-0.029,0.081
				c0.256,0.117,0.505,0.256,0.754,0.381c-0.264-0.015-0.52,0.022-0.754,0.132c-2.035,0.952-3.543,3.257-4.026,6.149
				c-0.549,3.279,1.288,6.808,5.3,10.256c1.113,2.145,2.072,4.341,2.408,6.771c0.425,3.082-0.3,6.617-1.969,9.245
				c-0.059,0.095,0.066,0.19,0.146,0.117c4.275-3.924,3.96-10.138,1.201-14.853c0.373,0.154,0.776,0.242,1.179,0.271
				c0.476,1.889,1.72,3.572,2.079,5.541c0.468,2.591,0.212,5.658-0.747,8.111c-0.029,0.088,0.102,0.132,0.146,0.059
				c2.818-4.165,2.804-10.021-0.791-13.703c1.047-0.059,2.057-0.388,2.723-0.651c0.615,1.523,1.618,3.118,2.84,4.692
				c0.19,1.42,0.717,6.003,0.366,11.595c-0.871,2.006-1.72,3.953-3.404,5.512c-2.013,1.874-4.831,2.906-7.525,3.301
				c-0.198,0.029-0.19,0.366,0,0.395c3.104,0.571,5.944-0.483,8.279-2.569c0.63-0.556,1.266-1.281,1.83-2.101
				c-1.23,2.972-3.331,5.754-6.251,7.137c-3.667,1.742-8.111,1.135-11.236-1.42c-0.037-0.029-0.095,0.022-0.059,0.066
				c5.014,5.49,13.374,3.433,16.712-2.181c-0.52,1.34-1.105,2.621-2.057,3.748c-1.237,1.464-2.833,2.452-4.553,3.25
				c-0.022,0.015,0,0.051,0.022,0.044c2.555-0.359,5.146-2.269,6.456-4.7c-0.183,0.63-0.388,1.252-0.608,1.867
				c-0.827,1.186-1.728,2.35-2.972,3.089c-0.066,0.044-0.007,0.139,0.059,0.102c0.813-0.388,1.588-0.871,2.233-1.464
				c-0.278,0.659-0.578,1.31-0.908,1.947c-1.061,0.293-5.593,1.318-15.599,0.578c-1.164-0.088-2.299-0.095-3.404-0.044
				c-0.966-0.388-1.933-0.769-2.782-1.442c-1.998-1.603-4.114-4.26-3.741-6.983c0.007-0.059-0.073-0.088-0.088-0.029
				c-0.666,2.555,0.608,5.227,2.379,7.049c0.512,0.527,1.193,1.113,1.954,1.625c-0.82,0.117-1.618,0.264-2.394,0.461
				c-1.552-0.351-2.994-0.717-4.312-1.976c-0.849-0.82-1.486-1.889-1.808-3.023c-0.351-1.208-0.805-3.997,0.498-4.809
				c0.029-0.015,0.007-0.051-0.022-0.037c-1.076,0.476-1.222,2.006-1.288,3.067c-0.11,1.581,0.329,3.221,1.186,4.553
				c0.761,1.171,2.116,2.299,3.609,2.891c-0.205,0.073-0.395,0.154-0.593,0.227c-2.401-0.176-4.729-1.069-6.398-2.87
				c-2.394-2.577-3.645-7.379-0.388-9.838c0.051-0.037,0.007-0.124-0.051-0.088c-3.397,2.137-3.331,6.464-1.23,9.56
				c1.574,2.328,4.019,3.711,6.639,3.887c-0.212,0.102-0.417,0.212-0.622,0.322c-3.982-0.571-8.001-2.943-9.026-7.035
				c-0.593-2.386,0.212-4.963,2.028-6.617c2.116-1.925,4.985-2.101,7.65-1.523c2.503,1.12,5.366,1.625,8.14,1.698
				c0.102,0,0.132-0.161,0.029-0.176c-5.424-0.842-11.873-3.58-13.616-9.304c-1.471-4.846,0.439-11.236,4.033-14.926
				c0.183-0.19,0.373-0.381,0.571-0.556c1.083,1.091,2.445,1.969,4.041,2.562c0.073,0.029,0.11-0.088,0.051-0.124
				c-5.724-3.697-7.591-11.127-2.891-16.536c0.981-1.127,2.137-2.05,3.419-2.811c0.798-0.468,1.786-0.805,2.299-1.632
				c0.264-0.41,0.388-0.93,0.432-1.501c0.249,0.447,0.512,0.893,0.798,1.325c0.176,0.264,0.556,0.037,0.425-0.249
				c-4.238-9.062-1.771-20.284,5.483-27.077c3.916-3.667,8.967-5.922,14.201-6.969c5.102-1.018,9.963-0.615,15.058-0.154
				c-0.952,0.673-1.793,1.53-2.482,2.606c-0.073,0.124,0.095,0.242,0.198,0.146c2.262-2.123,5.271-3.331,8.352-3.66l0.132,1.237
				h-0.007c-2.452,0.564-5.388,2.072-6.778,4.37c-3.909-0.476-7.935-0.41-11.756,0.6c-6.5,1.706-12.627,6.588-13.176,13.667
				c-0.007,0.11,0.161,0.124,0.183,0.029c1.823-6.434,7.21-11.097,13.601-12.708c2.064-0.512,4.187-0.739,6.31-0.769
				c-1.464,0.19-2.884,0.542-4.18,1.018c-4.765,1.757-9.099,5.82-11.251,10.409c-0.007,0.015,0.007,0.022,0.015,0.015
				c3.053-4.231,6.515-7.628,11.507-9.428c1.545-0.556,3.06-0.834,4.568-0.922c-2.225,0.468-4.326,1.325-6.237,2.628
				c-0.029,0.022,0,0.081,0.037,0.059c2.76-1.486,5.82-2.364,8.975-2.24c0.571,0.022,1.142,0.073,1.713,0.132
				c-0.586,0.059-1.113,0.139-1.486,0.22c-2.672,0.556-5.336,1.874-7.159,3.931c-0.007,0.007,0,0.015,0.007,0.007
				c2.299-1.669,4.685-2.789,7.547-3.031c1.222-0.102,2.452-0.088,3.66,0.102c-0.908,0.198-1.815,0.476-2.694,0.849
				c-6.559,2.767-10.138,9.428-9.553,16.39c0.007,0.081,0.124,0.081,0.124,0c0.168-6.068,4.07-12.452,9.648-14.992
				c4.648-2.116,10.343-1.427,14.779,1.113c0.022,0.037,0.066,0.059,0.11,0.066c0.864,0.498,1.684,1.069,2.43,1.706
				c0.081,0.066,0.168-0.037,0.11-0.11c-0.542-0.695-1.149-1.31-1.793-1.867c0.344-0.176,0.681-0.388,1.032-0.527
				c0.754-0.3,1.523-0.432,2.328-0.432c0.022,0,0.029-0.037,0.007-0.044c-1.061-0.19-2.891-0.19-3.836,0.615
				c-0.205-0.161-0.41-0.322-0.622-0.468c2.218-1.545,5.263-2.935,7.972-2.482c0.015,0,0.015-0.022,0-0.022
				c-1.42-0.534-3.177-0.088-4.604,0.271c-1.405,0.351-2.796,0.908-3.858,1.903c-0.285-0.183-0.564-0.366-0.856-0.527
				c2.613-2.372,5.951-3.85,9.494-4.107c0.022,0,0.029-0.037,0-0.044c-2.101-0.425-4.129,0.117-6.039,1.032
				c-1.325,0.637-3.148,1.479-3.975,2.833c-0.388-0.19-0.791-0.366-1.193-0.52c0.791-0.864,1.53-1.728,2.562-2.401
				c1.31-0.856,2.855-1.186,4.165-2.006c0.007-0.007,0-0.022-0.007-0.015c-2.643,0.688-5.973,1.588-7.379,4.18
				c-0.212-0.073-0.432-0.124-0.652-0.19c0.095-0.183,0.176-0.388,0.278-0.534c0.285-0.403,0.615-0.761,0.996-1.076
				c0.007-0.007,0-0.029-0.015-0.022c-0.483,0.176-0.908,0.454-1.23,0.856c-0.132,0.168-0.322,0.41-0.432,0.666
				c-0.285-0.073-0.578-0.132-0.864-0.19c-0.732-0.952-1.808-1.647-3.009-2.159c1.793-1.815,4.121-2.987,6.603-3.558
				c0.988-0.227,1.991-0.315,2.994-0.373c-1.779,0.871-3.448,2.013-4.956,3.243c-0.022,0.022,0.007,0.066,0.037,0.044
				c3.353-2.123,7.254-3.682,11.28-3.638C255.455,94.555,259.21,97,261.692,100.382z M262.563,107.409
				c0.015,0.095,0.176,0.073,0.176-0.029c-0.154-6.032-4.685-11.61-11.097-10.951c-0.037,0.007-0.037,0.066,0,0.066
				C257.856,96.473,261.392,101.933,262.563,107.409z M260.945,106.348c0.015,0.095,0.183,0.073,0.176-0.029
				c-0.161-2.438-1.523-4.282-3.748-5.292c-0.029-0.015-0.059,0.029-0.029,0.051C259.166,102.204,260.506,104.254,260.945,106.348z
				 M242.586,106.911c0.029,0.007,0.059-0.044,0.022-0.059c-5.095-2.291-10.805-1.537-15.065,2.064
				c-0.059,0.051,0.022,0.146,0.088,0.11C232.053,106.318,237.587,105.498,242.586,106.911z M233.678,104.73
				c0.081-0.037,0.081-0.168-0.022-0.168c-1.42-0.015-2.965,0.461-4.165,1.201c-0.059,0.037-0.022,0.124,0.044,0.11
				C230.903,105.63,232.389,105.25,233.678,104.73z M225.706,112.731c0.015-0.007,0-0.022-0.007-0.015
				c-2.159,1.31-2.877,3.631-3.221,6.01c-0.256,1.815-0.205,3.77-1.237,5.366c-0.988,1.53-2.613,2.474-4.355,2.848
				c-0.095,0.022-0.073,0.161,0.022,0.161c2.379-0.022,4.487-1.427,5.373-3.667c0.549-1.391,0.49-2.928,0.637-4.392
				C223.159,116.625,223.766,114.334,225.706,112.731z M220.714,121.207c0.007-0.037-0.044-0.051-0.059-0.022
				c-0.908,2.211-2.752,3.77-5.051,4.385c-2.137,0.571-5.593,0.681-6.72-1.654c-0.022-0.044-0.095-0.015-0.081,0.037
				c0.769,2.621,3.828,2.935,6.149,2.496C217.756,125.914,220.004,123.989,220.714,121.207z M215.348,163.928
				c1.559-1.984,1.998-4.173,1.515-6.639c-0.015-0.059-0.117-0.044-0.11,0.015c0.081,2.225-0.512,4.56-1.501,6.544
				C215.223,163.906,215.304,163.987,215.348,163.928z M216.153,128.132c0.051-0.029,0.015-0.095-0.029-0.088
				c-1.647,0.359-3.316,0.146-4.839-0.578c-0.051-0.022-0.117,0.044-0.066,0.088C212.647,128.711,214.491,128.908,216.153,128.132z
				 M214.894,167.522c0.037-0.044-0.037-0.095-0.066-0.059c-4.026,4.436-10.526,5.849-16.119,3.821
				c-0.066-0.022-0.11,0.081-0.044,0.117C204.492,174.462,211.036,172.785,214.894,167.522z M212.354,131.353
				c0.051,0.022,0.088-0.066,0.037-0.095c-2.599-1.581-5.637-2.313-7.928,0.22c-2.042,2.262-3.155,5.41-2.284,8.404
				c0.022,0.081,0.161,0.066,0.154-0.022c-0.337-2.525,0.556-4.934,2.006-6.998C206.344,130.021,209.404,130.123,212.354,131.353z
				 M205.934,163.071c2.855-1.867,3.814-4.956,3.009-8.228c-1.003-4.099-5.08-6.273-6.127-10.219
				c-0.029-0.088-0.161-0.051-0.139,0.037c0.615,2.891,2.489,5.029,3.894,7.554c1.859,3.338,2.028,7.767-0.798,10.651
				C205.671,162.969,205.81,163.159,205.934,163.071z M208.394,169.22c0-0.007-0.007-0.022-0.015-0.015
				c-2.277,1.31-4.897,1.72-7.415,0.871c-0.059-0.022-0.088,0.066-0.037,0.095C203.35,171.636,206.454,171.365,208.394,169.22z
				 M201.754,101.831c0.044-0.044-0.022-0.102-0.066-0.066c-6.339,5.717-9.143,13.996-6.222,22.202
				c0.029,0.081,0.154,0.051,0.132-0.044C194.112,116.383,196.213,107.328,201.754,101.831z M200.891,131.251
				c0.015-0.022-0.022-0.044-0.044-0.029c-4.004,3.653-4.853,10.124-1.076,14.23c0.132,0.146,0.322-0.037,0.249-0.19
				C197.963,140.796,197.97,135.328,200.891,131.251z M198.658,125.138c0.066,0.102,0.256,0.037,0.205-0.088
				c-1.354-3.543-1.808-7.467-0.542-11.105c0.022-0.051-0.059-0.088-0.088-0.037C196.55,117.599,196.411,121.654,198.658,125.138z
				 M196.967,143.527c0.059,0.073,0.19,0,0.154-0.088c-0.9-2.247-1.266-4.443-0.615-6.815c0.015-0.044-0.051-0.073-0.081-0.037
				C195.188,138.776,195.239,141.616,196.967,143.527z M197.018,167.925c0.081-0.007,0.117-0.146,0.022-0.161
				c-2.796-0.439-5.446-1.523-7.379-3.667c-1.984-2.203-4.011-7.035-1.881-9.714c0-0.007-0.007-0.022-0.015-0.015
				c-2.584,1.896-1.237,6.603,0.132,8.835C189.822,166.329,193.322,168.283,197.018,167.925z M195.503,165.15
				c0.102,0.029,0.168-0.117,0.073-0.176c-1.83-1.12-3.536-3.089-3.711-5.292c0-0.022-0.029-0.022-0.029,0
				C191.718,162.208,192.919,164.55,195.503,165.15z M194.866,147.297c0.073,0.015,0.117-0.088,0.051-0.124
				c-3.711-2.013-5.754-6.273-4.07-10.351c0.015-0.051-0.059-0.081-0.081-0.037C188.534,140.884,190.086,146.052,194.866,147.297z
				 M191.243,131.858c0.015-0.015,0.007-0.051-0.022-0.044c-2.613,0.791-4.414,3.316-4.758,5.966
				c-0.447,3.375,1.237,6.222,3.66,8.411c0.088,0.081,0.198-0.037,0.132-0.132C186.872,141.726,186.177,135.196,191.243,131.858z
				 M190.43,167.595c0.066,0.022,0.11-0.081,0.044-0.117c-7.13-3.367-8.996-12.964-3.272-18.52c0.029-0.022-0.007-0.066-0.037-0.044
				C180.021,154.177,181.77,165.238,190.43,167.595z"/>
			<path d="M262.944,172.888c0.007-0.073,0.124-0.059,0.117,0.015c-0.329,4.765-5.527,8.975-9.926,5.629
				c-0.124-0.088-0.059-0.285,0.102-0.249C257.453,179.212,262.226,177.697,262.944,172.888z"/>
			<path d="M262.739,107.38c0,0.102-0.161,0.124-0.176,0.029c-1.171-5.475-4.707-10.936-10.922-10.914c-0.037,0-0.037-0.059,0-0.066
				C258.054,95.77,262.585,101.348,262.739,107.38z"/>
			<path d="M262.607,299.366c0.044-0.044,0.117,0.029,0.073,0.073c-3.968,4.465-7.188,9.516-10.131,14.699
				c-2.899,5.117-5.585,10.6-7.547,16.156c-0.029,0.081-0.146,0.051-0.132-0.037c1.508-5.944,3.506-11.441,6.588-16.756
				C254.496,308.274,258.42,303.692,262.607,299.366z"/>
			<path d="M256.875,152.377c3.565,1.859,5.834,5.38,5.336,9.597c-0.234,2.013-1.186,3.938-2.584,5.314l0.176,0.454
				c-0.351,0.146-0.71,0.264-1.091,0.329c-1.515,1.098-3.419,1.588-5.461,1.047c-0.088-0.022-0.102-0.168,0-0.183
				c3.382-0.505,6.376-2.562,7.357-5.783c0.139-0.461,0.242-0.944,0.293-1.449c0.373-3.506-1.515-6.866-4.165-9.07L256.875,152.377z
				"/>
			<path d="M261.121,106.318c0.007,0.102-0.161,0.124-0.176,0.029c-0.439-2.094-1.779-4.143-3.602-5.271
				c-0.029-0.022,0-0.066,0.029-0.051C259.598,102.036,260.96,103.881,261.121,106.318z"/>
			<path fill="#825845" d="M256.736,152.633c2.65,2.203,4.539,5.563,4.165,9.07c-0.051,0.505-0.154,0.988-0.293,1.449l-1.025-0.271
				c0-0.015,0.007-0.022,0.007-0.037c0.593-2.533-0.622-4.934-2.299-6.757c-0.015-0.015-0.037,0-0.022,0.022
				c1.984,3.448,2.657,8.147-1.493,10.087l-0.285-0.659c1.75-1.332,1.947-3.023,1.479-5.446c-0.007-0.044-0.073-0.037-0.073,0.007
				c0.102,2.679-0.864,4.436-3.375,5.527c-1.369,0.593-2.467,0.381-3.594,0.037c0.403-0.176,0.776-0.366,1.083-0.578
				c2.218-1.567,2.818-3.931,3.397-6.215c0.278-1.105,0.571-2.24,1.039-3.323c0.212-0.505,0.483-1.105,0.776-1.764
				C256.385,153.416,256.56,153.028,256.736,152.633z"/>
			<path d="M257.292,156.088c1.676,1.823,2.891,4.224,2.299,6.757c0,0.015-0.007,0.022-0.007,0.037
				c-0.483,1.991-2.035,3.704-4.18,3.623c-0.081-0.007-0.088-0.11-0.015-0.139c0.132-0.051,0.264-0.11,0.388-0.168
				c4.151-1.94,3.477-6.639,1.493-10.087C257.256,156.088,257.278,156.073,257.292,156.088z"/>
			<path fill="#FFC7A2" d="M225.406,123.777c0.337-0.139,6.281-2.672,7.855-2.116c1.61,0.578,8.63,4.334,8.63,4.334
				s0.776-0.944-0.19-1.925c-0.959-0.988-7.349-4.458-9.465-4.033C230.179,120.446,225.684,123.579,225.406,123.777z
				 M244.533,140.43c-0.11,0.081-1.083,0.878-0.966,2.101c0.132,1.288,1.647,2.013,2.189,1.984c0.534-0.037,1.442-0.476,1.442-0.476
				s-0.351-0.154,0.117-0.695c0.468-0.549,3.177-1.574,3.177-1.574s-1.867,0-3.184,0.578c-1.31,0.578-1.471,1.61-1.471,1.61
				s-1.135-0.029-1.654-1.252C243.677,141.543,244.46,140.525,244.533,140.43z M240.156,131.58
				c-0.088-0.161-1.654-2.716-5.637-2.804c-1.259-0.022-2.335,0.19-3.279,0.461c-0.373-0.124-0.747-0.337-0.966-0.659
				c-0.015-0.022-0.059,0-0.044,0.022c0.139,0.307,0.315,0.571,0.564,0.769c-0.468,0.146-0.9,0.307-1.303,0.454
				c-0.527-0.102-1.039-0.366-1.296-0.849c-0.015-0.029-0.059-0.007-0.051,0.022c0.168,0.425,0.425,0.783,0.783,1.018
				c-0.959,0.322-1.728,0.461-2.386,0.015c0,0,1.018,2.006,4.407,3.053c0,0,2.189,0.593,4.414,0.315
				c0.366-0.044,0.732-0.117,1.091-0.212c0.527-0.146,0.966-0.315,1.34-0.49c1.435-0.681,1.837-1.464,1.837-1.464
				s-0.037-0.029-0.088-0.073C239.746,131.28,239.951,131.426,240.156,131.58z M258.998,140.804
				c0.139,2.833-2.518,8.813-4.114,12.386c-0.293,0.666-0.564,1.266-0.783,1.779c-0.512,1.193-0.82,2.386-1.113,3.536
				c-0.556,2.218-1.047,4.129-2.818,5.38c-2.672,1.889-11.617,2.13-17.107-0.212c-4.033-1.713-9.648-6.266-13.22-10.761
				c-0.007-0.029-0.007-0.059-0.015-0.073l-0.037,0.007c-1.435-1.808-2.547-3.609-3.067-5.212c-0.073-0.205-0.227-0.366-0.425-0.447
				s-0.425-0.073-0.615,0.029c-0.842,0.439-3.301,1.376-4.517,0.425c-1.669-1.31-3.001-2.643-3.968-3.953l1.83-0.703
				c0.351,0.483,0.754,0.915,1.179,1.266c0.037,0.029,0.11-0.015,0.073-0.059c-0.996-1.31-1.552-2.723-1.464-4.392
				c0.11-2.211,2.569-3.96,3.997-2.05c-0.608,0.205-1.237,0.842-1.471,1.266c-0.593,1.083-0.388,2.269,0.285,3.265
				c0.044,0.066,0.146,0.007,0.11-0.066c-0.454-0.813-0.403-1.881,0.022-2.701c0.212-0.395,0.52-0.769,0.937-0.966
				c0.168-0.081,0.337-0.102,0.505-0.132c0.498,1.12,0.139,2.299,0.944,3.316c0.505,0.644,1.222,0.959,2.02,1.069
				c0.088,0.015,0.168-0.11,0.066-0.154c-2.46-1.215-1.222-3.799-2.738-5.615c-0.242-0.285-0.512-0.527-0.805-0.717l1.654-0.168
				c0.461,0.373,0.996,0.608,1.757,0.534c4.612-0.439,2.269-5.966,4.487-8.286c1.252-0.322,2.401-0.966,3.265-2.028
				c2.181-2.679,1.581-6.727,2.591-9.875c2.277-7.101,10.402-10.988,17.349-8.147c0.007,0.007,0.015,0.007,0.022,0.007l1.918,0.813
				c0,0.007,0.007,0.015,0.015,0.015c1.632-0.351,3.25-0.776,4.831-1.325c0.798-0.278,1.581-0.6,2.379-0.813
				c1.34,3.06,4.033,9.626,4.751,13.074c-0.322-0.307-0.71-0.571-1.12-0.549c-0.739,0.044-4.224,1.801-5.776,3.543
				c-0.476,0.527-0.512,1.771-0.461,1.771l-0.571,1.362c0,0,0,0-0.007,0.007c-0.132,0.198-2.299,3.477-2.196,4.985
				c0.11,1.552,5.432,8.513,5.439,9.319c0.007,0.805-1.105,2.686-2.525,3.389c-1.413,0.71-2.379,0.761-2.379,0.761
				s0.864,0.388,1.391,0.425c0.059,0.007,0.139,0.007,0.227,0c-0.015,0.088-0.015,0.176-0.007,0.249
				c0.051,0.63,0.373,1.354,0.637,1.918c0.007,0.029,0.051,0.015,0.051-0.015c-0.022-0.454-0.102-0.915-0.168-1.362
				c-0.037-0.205-0.11-0.425-0.095-0.63c0.007-0.102,0.037-0.19,0.073-0.271c0.622-0.176,1.435-0.578,2.028-1.244
				c0.871-0.988,1.647-2.035,1.75-2.848c0.11-0.813-0.285-1.244-1.676-2.855c-1.274-1.479-3.58-4.941-3.997-6.405l0.242-0.073
				c0,0,0,0,0.007-0.007c0.066-0.081,0.124-0.146,0.19-0.227c0.227,0.073,2.255,0.681,4.355,0.3
				c0.813-0.154,1.632-0.447,2.364-0.981c0.571-0.41,1.047-0.827,1.449-1.23C257.095,130.453,258.844,137.649,258.998,140.804z
				 M253.903,148.365c0.007-0.051,0-0.11-0.015-0.154c-0.015-0.022-0.278-0.608-0.871-0.842c-0.373-0.146-0.791-0.117-1.23,0.081
				c-0.944,0.425-1.654,0.996-1.969,1.266c-0.52-0.366-2.057-1.259-3.821-0.615c-0.264,0.102-0.564,0.22-0.9,0.351
				c-2.02,0.798-5.358,2.108-7.042,1.083c0.271-0.388,0.6-0.732,0.966-0.996c0.029-0.022,0.007-0.066-0.022-0.051
				c-1.113,0.278-2.225,1.325-1.596,2.503c0.022,0.037,0.088,0.029,0.088-0.015c0.037-0.315,0.132-0.63,0.271-0.922
				c0.439,0.461,1.75,1.728,3.938,2.943l0.198,0.11c1.984,1.105,4.019,2.24,6.098,2.24c0.681,0,1.362-0.117,2.05-0.403
				c2.43-1.003,2.218-3.104,2.064-3.814C252.578,150.891,253.61,150.166,253.903,148.365z M249.065,139.991
				c0.051,0.007,0.095-0.059,0.051-0.102c-0.403-0.337-0.791-0.651-1.061-1.12c-0.329-0.564-0.454-1.237-0.71-1.837
				c-0.007,0-0.015,0-0.015,0.007C247.3,138.029,247.762,139.808,249.065,139.991z M238.846,129.121
				c0.007,0.007,0.022-0.015,0.015-0.022c-1.479-1.42-3.001-2.496-5.117-2.613c-2.335-0.124-4.392,1.076-6.193,2.445
				c-0.007,0.007,0,0.022,0.015,0.015c1.881-1.025,3.77-2.167,5.995-2.094C235.581,126.917,237.235,128.001,238.846,129.121z"/>
			<path fill="#FFC7A2" d="M257.885,121.471c0,0.059,0.007,0.132,0,0.183c-0.088,1.567-0.322,3.462-0.534,4.978
				c-0.205,0.293-0.476,0.52-0.747,0.673c-0.3-0.029-0.63-0.066-0.981-0.088c0.19-0.242,0.329-0.534,0.432-0.849
				c0.015-0.029-0.022-0.037-0.029-0.007c-0.168,0.351-0.447,0.63-0.732,0.842c-0.71-0.015-1.515,0.059-2.46,0.395
				c-2.994,1.061-4.194,3.814-4.26,3.989c-0.007,0.007-0.007,0.007-0.007,0.007l-0.242,0.073c-0.044-0.139-0.066-0.256-0.073-0.359
				c-0.044-1.113,1.435-4.824,1.523-5.058c0.007-0.007,0.007-0.007,0.007-0.007l0.571-1.362c0.007,0,0.015-0.007,0.022-0.037
				c0,0,5.461-3.777,6.369-3.785C257.139,121.061,257.549,121.259,257.885,121.471z"/>
			<path fill="#DB1A21" d="M256.275,184.044c0.996,0.425,1.984,0.849,2.965,1.303c-2.913,2.32-9.875,8.623-15.475,19.816
				c-6.574,13.14-3.924,26.287-3.316,28.819c-0.981,4.978-1.954,10.175-2.862,15.16c-0.805,1.486-1.676,2.928-2.818,4.194
				c-1.918,2.116-4.451,3.902-6.918,5.322c-0.029,0.015-0.007,0.059,0.022,0.051c3.074-0.469,6.244-2.364,8.506-4.948
				c-0.747,2.174-1.764,4.172-3.433,5.937c-0.007,0.007,0,0.022,0.015,0.015c1.303-0.703,2.438-1.735,3.265-2.95
				c-1.808,10.263-3.126,18.337-3.309,19.45c-0.608,1.098-5.3,9.685-10.526,24.069c-1.384,3.792-2.987,8.213-4.656,12.854
				c-0.571-1.61-1.764-4.868-4.253-11.456c-1.991-5.285-3.66-12.525-5.131-18.923c-1.31-5.695-2.496-10.863-3.77-14.186
				c1.735,1.01,3.572,1.881,5.117,2.796c0.037,0.022,0.088-0.037,0.051-0.066c-2.042-1.647-4.121-3.265-6.186-4.912
				c-0.256-0.439-0.52-0.805-0.791-1.076c-0.425-0.425-0.974-0.871-1.64-1.347v-0.154c3.228,0.966,6.581,1.72,9.516,3.25
				c0.095,0.051,0.168-0.081,0.081-0.139c-1.574-1.157-3.177-2.277-5-2.987c-1.881-0.732-3.836-1.274-5.746-1.94
				c-2.599-0.9-5.161-2.13-7.613-3.499c-3.016-2.042-5.973-4.531-7.935-7.803c-4.714-7.862-1.962-18.381,4.004-32.809
				c5.666-13.696,10.402-31.242,11.295-34.646c0.673,0.044,1.318,0.081,1.947,0.117c-1.186,1.457-1.823,3.704-2.269,5.373
				c-0.022,0.066,0.081,0.11,0.11,0.044c0.534-1.069,1.061-2.137,1.647-3.184c0.41-0.739,0.871-1.427,1.157-2.203
				c0.381,0.015,0.747,0.029,1.113,0.037c-3.682,7.101-13.908,37.765-8.887,44.631c4.861,6.654,7.759,18.337,7.789,18.454
				c0.081,0.329,0.373,0.556,0.71,0.556c0.015,0,0.029,0,0.037,0c0.359-0.015,0.644-0.285,0.688-0.637
				c0.015-0.095,1.384-10.014,11.01-16.346c10.182-6.705,15.321-12.496,22.897-25.811c6.442-11.332,12.949-19.735,14.735-21.968
				c0.315,0.161,0.63,0.315,0.959,0.468c-1.193,0.6-1.874,2.211-2.452,3.331c-1.193,2.328-2.277,4.59-3.96,6.625
				c-0.029,0.029,0.015,0.073,0.051,0.044c1.545-1.347,2.708-2.928,3.865-4.612c0.571-0.827,1.091-1.669,1.618-2.525
				c0.542-0.886,1.296-1.574,1.852-2.423C254.979,183.487,255.623,183.766,256.275,184.044z M220.143,230.044
				c0.037-0.022,0.007-0.081-0.037-0.059c-3.653,1.735-7.005,4.414-9.384,7.693c-2.503,3.448-3.953,7.071-4.334,11.295
				c-0.022,0.227,0.337,0.264,0.395,0.051C208.987,241.375,213.481,234.48,220.143,230.044z M198.087,240.424
				c0.066,0.117,0.271,0.066,0.264-0.073c-0.256-3.924-2.708-7.049-5.468-9.648c-0.037-0.037-0.117,0.015-0.081,0.066
				C195.034,233.726,196.294,237.21,198.087,240.424z"/>
			<path fill="#FFFFFF" d="M256.904,128.784c0.256,0.117-1.083,1.537-1.369,1.837c0.088-0.22,0.146-0.454,0.154-0.71
				c0.037-0.739-0.315-1.398-0.849-1.764C256.07,128.249,256.853,128.762,256.904,128.784z"/>
			<path d="M252.322,138.073c1.391,1.61,1.786,2.042,1.676,2.855c-0.102,0.813-0.878,1.859-1.75,2.848
				c-0.593,0.666-1.405,1.069-2.028,1.244c-0.037,0.081-0.066,0.168-0.073,0.271c-0.015,0.205,0.059,0.425,0.095,0.63
				c0.066,0.447,0.146,0.908,0.168,1.362c0,0.029-0.044,0.044-0.051,0.015c-0.264-0.564-0.586-1.288-0.637-1.918
				c-0.007-0.073-0.007-0.161,0.007-0.249c-0.088,0.007-0.168,0.007-0.227,0c-0.527-0.037-1.391-0.425-1.391-0.425
				s0.966-0.051,2.379-0.761c1.42-0.703,2.533-2.584,2.525-3.389c-0.007-0.805-5.329-7.767-5.439-9.319
				c-0.102-1.508,2.064-4.787,2.196-4.985c-0.088,0.234-1.567,3.946-1.523,5.058c0.007,0.102,0.029,0.22,0.073,0.359
				C248.742,133.132,251.048,136.594,252.322,138.073z"/>
			<path d="M253.889,148.212c0.015,0.044,0.022,0.102,0.015,0.154c-0.293,1.801-1.325,2.525-1.793,2.767
				c0.154,0.71,0.366,2.811-2.064,3.814c-0.688,0.285-1.369,0.403-2.05,0.403c-2.079,0-4.114-1.135-6.098-2.24l-0.198-0.11
				c-2.189-1.215-3.499-2.482-3.938-2.943c-0.139,0.293-0.234,0.608-0.271,0.922c0,0.044-0.066,0.051-0.088,0.015
				c-0.63-1.179,0.483-2.225,1.596-2.503c0.029-0.015,0.051,0.029,0.022,0.051c-0.366,0.264-0.695,0.608-0.966,0.996
				c1.684,1.025,5.022-0.285,7.042-1.083c0.337-0.132,0.637-0.249,0.9-0.351c1.764-0.644,3.301,0.249,3.821,0.615
				c0.315-0.271,1.025-0.842,1.969-1.266c0.439-0.198,0.856-0.227,1.23-0.081C253.61,147.604,253.874,148.19,253.889,148.212z
				 M253.274,148.702c0.029-0.117,0.066-0.22,0.088-0.344c-0.117-0.212-0.527-0.791-1.354-0.425
				c-1.164,0.527-1.969,1.318-1.984,1.325c-0.095,0.095-0.249,0.102-0.359,0.015c-0.015-0.015-1.647-1.34-3.477-0.666
				c-0.264,0.095-0.564,0.212-0.893,0.344c-1.318,0.52-3.023,1.186-4.59,1.42c-0.63,0.095-1.244,0.117-1.801,0.029
				c0.666,0.586,1.691,1.376,3.053,2.13l0.198,0.117c2.525,1.398,5.131,2.855,7.686,1.808c2.474-1.025,1.735-3.294,1.706-3.389
				c-0.007-0.007,0-0.022,0-0.029c-0.966,0.49-2.137,0.703-3.309,0.849c-2.613,0.329-5.432,0.146-7.847-0.944
				c-0.029-0.015-0.015-0.066,0.015-0.059c0.051,0.015,0.095,0.029,0.146,0.037v0.007c2.203,0.622,4.319,0.688,6.588,0.454
				c1.127-0.117,2.284-0.256,3.397-0.498c1.018-0.212,1.823-0.63,2.386-1.552C253.054,149.119,253.164,148.907,253.274,148.702z"/>
			<path fill="#DB1A21" d="M253.362,148.358c-0.022,0.124-0.059,0.227-0.088,0.344c-0.11,0.205-0.22,0.417-0.351,0.63
				c-0.564,0.922-1.369,1.34-2.386,1.552c-1.113,0.242-2.269,0.381-3.397,0.498c-2.269,0.234-4.385,0.168-6.588-0.454v-0.007
				l0.154-0.549c1.567-0.234,3.272-0.9,4.59-1.42c0.329-0.132,0.63-0.249,0.893-0.344c1.83-0.673,3.462,0.651,3.477,0.666
				c0.11,0.088,0.264,0.081,0.359-0.015c0.015-0.007,0.82-0.798,1.984-1.325C252.834,147.567,253.244,148.146,253.362,148.358z"/>
			<path fill="#FFFFFF" d="M252.051,129.765c-0.037,0.834,0.41,1.574,1.069,1.896c-2.101,0.381-4.129-0.227-4.355-0.3
				c1.347-1.632,2.65-2.496,3.806-2.906C252.271,128.798,252.073,129.252,252.051,129.765z"/>
			<path d="M252.015,98.347c0.029,0.007,0.022,0.044,0,0.044c-3.543,0.256-6.881,1.735-9.494,4.107
				c0.293,0.161,0.571,0.344,0.856,0.527c1.061-0.996,2.452-1.552,3.858-1.903c1.427-0.359,3.184-0.805,4.604-0.271
				c0.015,0,0.015,0.022,0,0.022c-2.708-0.454-5.754,0.937-7.972,2.482c0.212,0.146,0.417,0.307,0.622,0.468
				c0.944-0.805,2.774-0.805,3.836-0.615c0.022,0.007,0.015,0.044-0.007,0.044c-0.805,0-1.574,0.132-2.328,0.432
				c-0.351,0.139-0.688,0.351-1.032,0.527c0.644,0.556,1.252,1.171,1.793,1.867c0.059,0.073-0.029,0.176-0.11,0.11
				c-0.747-0.637-1.567-1.208-2.43-1.706c-0.044-0.007-0.088-0.029-0.11-0.066c-4.436-2.54-10.131-3.228-14.779-1.113
				c-5.578,2.54-9.48,8.923-9.648,14.992c0,0.081-0.117,0.081-0.124,0c-0.586-6.961,2.994-13.623,9.553-16.39
				c0.878-0.373,1.786-0.651,2.694-0.849c-1.208-0.19-2.438-0.205-3.66-0.102c-2.862,0.242-5.249,1.362-7.547,3.031
				c-0.007,0.007-0.015,0-0.007-0.007c1.823-2.057,4.487-3.375,7.159-3.931c0.373-0.081,0.9-0.161,1.486-0.22
				c-0.571-0.059-1.142-0.11-1.713-0.132c-3.155-0.124-6.215,0.754-8.975,2.24c-0.037,0.022-0.066-0.037-0.037-0.059
				c1.911-1.303,4.011-2.159,6.237-2.628c-1.508,0.088-3.023,0.366-4.568,0.922c-4.992,1.801-8.455,5.197-11.507,9.428
				c-0.007,0.007-0.022,0-0.015-0.015c2.152-4.59,6.486-8.652,11.251-10.409c1.296-0.476,2.716-0.827,4.18-1.018
				c-2.123,0.029-4.246,0.256-6.31,0.769c-6.391,1.61-11.778,6.273-13.601,12.708c-0.022,0.095-0.19,0.081-0.183-0.029
				c0.549-7.079,6.676-11.961,13.176-13.667c3.821-1.01,7.847-1.076,11.756-0.6c1.391-2.299,4.326-3.806,6.778-4.37h0.007
				c0.029,0,0.059,0.051,0.022,0.066c-1.501,0.651-2.965,1.53-4.194,2.606c-0.637,0.556-1.186,1.186-1.742,1.808
				c0.41,0.059,0.834,0.124,1.274,0.198c0.871-0.856,1.947-1.537,3.089-1.918c0.037-0.015,0.051,0.037,0.022,0.059
				c-0.842,0.644-1.647,1.31-2.452,1.991c1.12,0.22,2.284,0.52,3.36,0.959c0.007-0.007,0.015-0.022,0.022-0.029l0.117,0.095
				c1.201,0.512,2.277,1.208,3.009,2.159c0.285,0.059,0.578,0.117,0.864,0.19c0.11-0.256,0.3-0.498,0.432-0.666
				c0.322-0.403,0.747-0.681,1.23-0.856c0.015-0.007,0.022,0.015,0.015,0.022c-0.381,0.315-0.71,0.673-0.996,1.076
				c-0.102,0.146-0.183,0.351-0.278,0.534c0.22,0.066,0.439,0.117,0.652,0.19c1.405-2.591,4.736-3.492,7.379-4.18
				c0.007-0.007,0.015,0.007,0.007,0.015c-1.31,0.82-2.855,1.149-4.165,2.006c-1.032,0.673-1.771,1.537-2.562,2.401
				c0.403,0.154,0.805,0.329,1.193,0.52c0.827-1.354,2.65-2.196,3.975-2.833C247.886,98.464,249.914,97.922,252.015,98.347z"/>
			<path fill="#DB1A21" d="M251.546,151.066c0.029,0.095,0.769,2.364-1.706,3.389c-2.555,1.047-5.161-0.41-7.686-1.808l-0.198-0.117
				c-1.362-0.754-2.386-1.545-3.053-2.13c0.556,0.088,1.171,0.066,1.801-0.029l-0.154,0.549c-0.051-0.007-0.095-0.022-0.146-0.037
				c-0.029-0.007-0.044,0.044-0.015,0.059c2.416,1.091,5.234,1.274,7.847,0.944c1.171-0.146,2.342-0.359,3.309-0.849
				C251.546,151.044,251.539,151.059,251.546,151.066z"/>
			<path fill="#FFC7A2" d="M250.631,181.343c0.154,0.088,0.315,0.168,0.468,0.256c-2.02,2.555-8.396,10.863-14.692,21.946
				c-7.532,13.242-12.349,18.681-22.429,25.313c-6.757,4.443-9.648,10.446-10.848,14.113c-0.073-0.278-0.139-0.556-0.19-0.842
				c-0.329-1.706-0.403-3.462-0.242-5.183c0.322-3.375,1.676-6.383,3.565-9.15c2.994-4.399,6.53-8.418,6.94-13.967
				c0.007-0.059-0.081-0.051-0.088,0c-0.769,6.251-6.683,10.475-9.582,15.76c-1.42,2.584-2.211,5.483-2.328,8.426
				c-1.34-3.587-3.184-7.693-5.468-10.827c-4.648-6.354,6.317-38.775,9.348-43.723c0.293,0,0.571,0,0.842,0
				c6.866,0,9.538-0.959,9.677-1.01c0.168-0.066,0.307-0.19,0.388-0.344c5.029-9.524,4.663-21.302,4.165-26.55
				c3.828,4.224,8.909,8.001,12.334,9.458c2.848,1.215,6.683,1.823,10.212,1.823c0.564,0,1.113-0.022,1.647-0.051
				C244.05,169.528,243.875,177.28,250.631,181.343z M243.34,186.503c0.029-0.015,0.007-0.059-0.022-0.051
				c-2.116,0.534-4.238,0.878-6.42,0.63c-1.757-0.205-3.47-0.637-5.212-0.871c-3.294-0.447-6.017,0.146-8.477,2.416
				c-0.22,0.205,0.059,0.534,0.307,0.403c3.689-1.984,7.232-1.537,11.193-0.959C237.755,188.516,240.661,188.048,243.34,186.503z
				 M217.925,189.139c0.059,0.066,0.161,0.015,0.124-0.073c-0.798-1.793-2.496-2.255-4.334-2.116
				c-3.045,0.227-5.856,0.395-8.543-1.347c-0.088-0.059-0.19,0.073-0.117,0.146c1.303,1.266,2.913,2.401,4.743,2.672
				C212.237,188.773,216.168,186.84,217.925,189.139z"/>
			<path d="M247.308,142.348c1.318-0.578,3.184-0.578,3.184-0.578s-2.708,1.025-3.177,1.574c-0.468,0.542-0.117,0.695-0.117,0.695
				s-0.908,0.439-1.442,0.476c-0.542,0.029-2.057-0.695-2.189-1.984c-0.117-1.222,0.856-2.02,0.966-2.101
				c-0.073,0.095-0.856,1.113-0.351,2.277c0.52,1.222,1.654,1.252,1.654,1.252S245.997,142.926,247.308,142.348z"/>
			<path d="M249.116,139.889c0.044,0.044,0,0.11-0.051,0.102c-1.303-0.183-1.764-1.962-1.735-3.053c0-0.007,0.007-0.007,0.015-0.007
				c0.256,0.6,0.381,1.274,0.71,1.837C248.325,139.237,248.713,139.552,249.116,139.889z"/>
			<path fill="#825845" d="M243.047,92.417c1.113,0.285,2.145,0.769,3.184,1.237c-1.903,0.102-3.828,0.512-5.402,1.076
				c-2.299,0.827-4.246,2.072-5.724,3.975c-0.007,0.007-0.015,0.022-0.022,0.029c-1.076-0.439-2.24-0.739-3.36-0.959
				c0.805-0.681,1.61-1.347,2.452-1.991c0.029-0.022,0.015-0.073-0.022-0.059c-1.142,0.381-2.218,1.061-3.089,1.918
				c-0.439-0.073-0.864-0.139-1.274-0.198c0.556-0.622,1.105-1.252,1.742-1.808c1.23-1.076,2.694-1.954,4.194-2.606
				c0.037-0.015,0.007-0.066-0.022-0.066l-0.132-1.237c0.6-0.073,1.208-0.102,1.808-0.102
				C239.307,91.634,241.188,91.949,243.047,92.417z"/>
			<path d="M243.318,186.452c0.029-0.007,0.051,0.037,0.022,0.051c-2.679,1.545-5.585,2.013-8.63,1.567
				c-3.96-0.578-7.503-1.025-11.193,0.959c-0.249,0.132-0.527-0.198-0.307-0.403c2.46-2.269,5.183-2.862,8.477-2.416
				c1.742,0.234,3.455,0.666,5.212,0.871C239.08,187.331,241.203,186.986,243.318,186.452z"/>
			<path d="M242.608,106.853c0.037,0.015,0.007,0.066-0.022,0.059c-5-1.413-10.534-0.593-14.955,2.116
				c-0.066,0.037-0.146-0.059-0.088-0.11C231.804,105.315,237.513,104.561,242.608,106.853z"/>
			<path d="M241.7,124.07c0.966,0.981,0.19,1.925,0.19,1.925s-7.02-3.755-8.63-4.334c-1.574-0.556-7.518,1.976-7.855,2.116
				c0.278-0.198,4.773-3.331,6.83-3.741C234.351,119.612,240.742,123.081,241.7,124.07z"/>
			<path d="M240.156,131.58c-0.205-0.154-0.41-0.3-0.615-0.425c-0.022-0.022-0.037-0.029-0.059-0.044
				c-0.454-0.3-0.9-0.549-1.34-0.747c0.102,0.271,0.168,0.564,0.168,0.871c0,0.556-0.205,1.054-0.52,1.457
				c-0.373,0.176-0.813,0.344-1.34,0.49c-0.359,0.095-0.725,0.168-1.091,0.212c-0.878-0.307-1.515-1.149-1.515-2.159
				c0-0.63,0.249-1.208,0.652-1.618c-3.096,0.073-5.329,1.852-5.432,1.918c-0.381,0.242,1.881,1.545,1.881,1.545
				c-3.389-1.047-4.407-3.053-4.407-3.053c0.659,0.447,1.427,0.307,2.386-0.015c-0.359-0.234-0.615-0.593-0.783-1.018
				c-0.007-0.029,0.037-0.051,0.051-0.022c0.256,0.483,0.769,0.747,1.296,0.849c0.403-0.146,0.834-0.307,1.303-0.454
				c-0.249-0.198-0.425-0.461-0.564-0.769c-0.015-0.022,0.029-0.044,0.044-0.022c0.22,0.322,0.593,0.534,0.966,0.659
				c0.944-0.271,2.02-0.483,3.279-0.461C238.502,128.864,240.068,131.419,240.156,131.58z"/>
			<path fill="#FFFFFF" d="M239.541,131.156c0.051,0.044,0.088,0.073,0.088,0.073s-0.403,0.783-1.837,1.464
				c0.315-0.403,0.52-0.9,0.52-1.457c0-0.307-0.066-0.6-0.168-0.871c0.439,0.198,0.886,0.447,1.34,0.747
				C239.504,131.126,239.519,131.134,239.541,131.156z"/>
			<path d="M238.86,129.099c0.007,0.007-0.007,0.029-0.015,0.022c-1.61-1.12-3.265-2.203-5.285-2.269
				c-2.225-0.073-4.114,1.069-5.995,2.094c-0.015,0.007-0.022-0.007-0.015-0.015c1.801-1.369,3.858-2.569,6.193-2.445
				C235.859,126.602,237.382,127.678,238.86,129.099z"/>
			<path fill="#FFC7A2" d="M235.757,348.762c1.091,2.913-0.425,4.656-1.457,5.454c-3.47-0.029-8.257-0.381-13.762-1.64
				c3.023-4.648,5.937-9.209,8.718-13.616C230.947,340.886,234.505,345.424,235.757,348.762z"/>
			<path fill="#FFC7A2" d="M235.054,361.06c0.439,4.399-2.921,10.512-4.041,12.408c-3.082,0.132-7.291,0.293-12.21,0.468
				c-0.146-0.117-0.329-0.183-0.512-0.176c-0.373,0.022-0.732,0.11-1.083,0.234l-1.976,0.073c0.761-2.913,1.398-5.439,1.881-7.489
				c1.149-4.897,0.366-7.701-0.051-8.718c0.403-0.6,1.325-1.998,2.628-3.982c5.673,1.347,10.636,1.75,14.282,1.793
				C234.314,356.543,234.761,358.161,235.054,361.06z"/>
			<path fill="#FFFFFF" d="M235.361,133.396c-2.225,0.278-4.414-0.315-4.414-0.315s-2.262-1.303-1.881-1.545
				c0.102-0.066,2.335-1.845,5.432-1.918c-0.403,0.41-0.652,0.988-0.652,1.618C233.846,132.246,234.483,133.088,235.361,133.396z"/>
			<path d="M233.656,104.561c0.102,0,0.102,0.132,0.022,0.168c-1.288,0.52-2.774,0.9-4.143,1.142
				c-0.066,0.015-0.102-0.073-0.044-0.11C230.691,105.023,232.236,104.547,233.656,104.561z"/>
			<path d="M229.673,92.102l-0.168,0.534c-5.095-0.461-9.955-0.864-15.058,0.154c-5.234,1.047-10.285,3.301-14.201,6.969
				c-7.254,6.793-9.721,18.015-5.483,27.077c0.132,0.285-0.249,0.512-0.425,0.249c-0.285-0.432-0.549-0.878-0.798-1.325
				c-0.044,0.571-0.168,1.091-0.432,1.501c-0.512,0.827-1.501,1.164-2.299,1.632c-1.281,0.761-2.438,1.684-3.419,2.811
				c-4.7,5.41-2.833,12.84,2.891,16.536c0.059,0.037,0.022,0.154-0.051,0.124c-1.596-0.593-2.957-1.471-4.041-2.562
				c-0.198,0.176-0.388,0.366-0.571,0.556l-0.512-0.476c0.234-0.161,0.483-0.315,0.732-0.454c-2.218-2.467-3.133-5.871-2.233-9.472
				c0.695-2.804,2.46-5.227,4.714-6.983c1.039-0.813,2.386-1.215,3.389-2.013c0.754-0.6,1.003-1.691,1.018-2.877
				c-3.477-8.301-0.285-18.52,5.966-24.779c3.982-3.997,9.341-6.552,14.831-7.686C218.657,90.558,224.615,90.433,229.673,92.102z"/>
			<path d="M225.699,112.716c0.007-0.007,0.022,0.007,0.007,0.015c-1.94,1.603-2.547,3.894-2.789,6.31
				c-0.146,1.464-0.088,3.001-0.637,4.392c-0.886,2.24-2.994,3.645-5.373,3.667c-0.095,0-0.117-0.139-0.022-0.161
				c1.742-0.373,3.367-1.318,4.355-2.848c1.032-1.596,0.981-3.55,1.237-5.366C222.822,116.347,223.539,114.026,225.699,112.716z"/>
			<path d="M220.655,121.186c0.015-0.029,0.066-0.015,0.059,0.022c-0.71,2.782-2.957,4.707-5.761,5.241
				c-2.32,0.439-5.38,0.124-6.149-2.496c-0.015-0.051,0.059-0.081,0.081-0.037c1.127,2.335,4.582,2.225,6.72,1.654
				C217.903,124.955,219.747,123.396,220.655,121.186z"/>
			<path d="M220.106,229.985c0.044-0.022,0.073,0.037,0.037,0.059c-6.661,4.436-11.156,11.332-13.359,18.981
				c-0.059,0.212-0.417,0.176-0.395-0.051c0.381-4.224,1.83-7.847,4.334-11.295C213.101,234.399,216.453,231.72,220.106,229.985z"/>
			<path d="M218.049,189.065c0.037,0.088-0.066,0.139-0.124,0.073c-1.757-2.299-5.688-0.366-8.125-0.717
				c-1.83-0.271-3.44-1.405-4.743-2.672c-0.073-0.073,0.029-0.205,0.117-0.146c2.687,1.742,5.497,1.574,8.543,1.347
				C215.553,186.811,217.251,187.272,218.049,189.065z"/>
			<path d="M216.863,157.289c0.483,2.467,0.044,4.656-1.515,6.639c-0.044,0.059-0.124-0.022-0.095-0.081
				c0.988-1.984,1.581-4.319,1.501-6.544C216.746,157.245,216.849,157.23,216.863,157.289z"/>
			<path d="M216.234,142.648c0.102,0.044,0.022,0.168-0.066,0.154c-0.798-0.11-1.515-0.425-2.02-1.069
				c-0.805-1.018-0.447-2.196-0.944-3.316c-0.168,0.029-0.337,0.051-0.505,0.132c-0.417,0.198-0.725,0.571-0.937,0.966
				c-0.425,0.82-0.476,1.889-0.022,2.701c0.037,0.073-0.066,0.132-0.11,0.066c-0.673-0.996-0.878-2.181-0.285-3.265
				c0.234-0.425,0.864-1.061,1.471-1.266c-1.427-1.911-3.887-0.161-3.997,2.05c-0.088,1.669,0.468,3.082,1.464,4.392
				c0.037,0.044-0.037,0.088-0.073,0.059c-0.425-0.351-0.827-0.783-1.179-1.266c-1.581-2.211-2.116-5.505,0.783-6.881
				c0.981-0.468,2.028-0.337,2.877,0.212c0.293,0.19,0.564,0.432,0.805,0.717C215.011,138.849,213.774,141.433,216.234,142.648z"/>
			<path d="M216.124,128.044c0.044-0.007,0.081,0.059,0.029,0.088c-1.662,0.776-3.506,0.578-4.934-0.578
				c-0.051-0.044,0.015-0.11,0.066-0.088C212.808,128.191,214.477,128.403,216.124,128.044z"/>
			<path d="M214.828,167.464c0.029-0.037,0.102,0.015,0.066,0.059c-3.858,5.263-10.402,6.94-16.229,3.88
				c-0.066-0.037-0.022-0.139,0.044-0.117C204.302,173.312,210.802,171.9,214.828,167.464z"/>
			<path fill="#FFC7A2" d="M214.345,136.148l-1.654,0.168c-0.849-0.549-1.896-0.681-2.877-0.212
				c-2.899,1.376-2.364,4.67-0.783,6.881l-1.83,0.703c-1.486-2.013-2.123-3.982-1.823-5.761c0.403-2.423,1.603-4.319,3.206-5.066
				c0.71-0.337,1.449-0.41,2.181-0.234c0.9,0.651,1.728,1.398,2.445,2.269C213.591,135.365,213.942,135.811,214.345,136.148z"/>
			<path d="M212.391,131.258c0.051,0.029,0.015,0.117-0.037,0.095c-2.95-1.23-6.01-1.332-8.016,1.508
				c-1.449,2.064-2.342,4.473-2.006,6.998c0.007,0.088-0.132,0.102-0.154,0.022c-0.871-2.994,0.242-6.142,2.284-8.404
				C206.754,128.945,209.792,129.677,212.391,131.258z"/>
			<path fill="#FFC7A2" d="M203.145,321.736c5.607,0.264,9.619,0.681,11.185,0.864c-3.426,9.567-7.027,19.699-9.004,25.416
				c-0.212-0.066-0.425-0.132-0.637-0.19l-0.044-0.015c-0.505-0.893-1.105-2.13-1.413-3.36c-0.19-0.761-0.161-5.527-0.124-11.039
				C203.131,329.92,203.152,325.989,203.145,321.736z"/>
			<path d="M208.943,154.844c0.805,3.272-0.154,6.361-3.009,8.228c-0.124,0.088-0.264-0.102-0.161-0.205
				c2.826-2.884,2.657-7.313,0.798-10.651c-1.405-2.525-3.279-4.663-3.894-7.554c-0.022-0.088,0.11-0.124,0.139-0.037
				C203.863,148.57,207.94,150.744,208.943,154.844z"/>
			<path d="M208.379,169.206c0.007-0.007,0.015,0.007,0.015,0.015c-1.94,2.145-5.044,2.416-7.467,0.952
				c-0.051-0.029-0.022-0.117,0.037-0.095C203.482,170.926,206.103,170.516,208.379,169.206z"/>
			<path fill="#FFC7A2" d="M203.519,348.791c0.403,0.695,0.769,1.252,0.996,1.574c-0.468,1.376-1.054,3.052-1.706,4.89
				c-2.181,6.207-5.175,14.706-6.493,19.918c-0.512,1.998-0.717,3.257-0.717,4.085c0,0.769,0.183,1.157,0.461,1.405
				c0.271,0.234,0.593,0.454,0.944,0.651c-1.091-0.007-2.299-0.168-2.987-0.717c-0.959-0.769-1.706-0.886-2.255-0.966
				c-0.534-0.081-0.805-0.124-1.281-0.798c-0.029-0.051-0.264-0.564-0.322-3.309l-0.732,0.015l0.732-0.022
				c-0.176-6.925,0.783-21.214,0.791-21.353c0.007-0.066,0-0.132-0.007-0.19c-0.007-0.037-0.761-3.909-1.801-9.633
				c-1.076-5.9-2.65-14.765-4.026-23.512c-0.871-5.534-1.567-10.439-2.072-14.589c-2.284-18.791-3.506-32.67-4.216-47.91
				c-0.205-4.458-0.278-10.446-0.271-16.932l2.02,0.007c0,3.711,0.805,7.035,2.606,10.043c3.214,5.351,8.777,8.652,13.249,11.302
				c1.171,0.695,2.277,1.347,3.221,1.969l-0.322,18.227c-0.007,0.051,0,0.102,0.007,0.154c1.515,7.642,2.277,20.028,2.342,37.867
				c0.015,4.546-0.015,8.74-0.037,12.43c-0.044,7.064-0.059,10.504,0.168,11.405C202.113,346.017,202.691,347.364,203.519,348.791z"
				/>
			<path d="M201.688,101.765c0.044-0.037,0.11,0.022,0.066,0.066c-5.541,5.497-7.642,14.552-6.156,22.092
				c0.022,0.095-0.102,0.124-0.132,0.044C192.546,115.761,195.349,107.482,201.688,101.765z"/>
			<path d="M200.847,131.221c0.022-0.015,0.059,0.007,0.044,0.029c-2.921,4.077-2.928,9.545-0.871,14.011
				c0.073,0.154-0.117,0.337-0.249,0.19C195.993,141.345,196.843,134.874,200.847,131.221z"/>
			<path d="M198.863,125.051c0.051,0.124-0.139,0.19-0.205,0.088c-2.247-3.484-2.108-7.54-0.425-11.229
				c0.029-0.051,0.11-0.015,0.088,0.037C197.055,117.584,197.509,121.508,198.863,125.051z"/>
			<path d="M198.35,240.35c0.007,0.139-0.198,0.19-0.264,0.073c-1.793-3.214-3.053-6.698-5.285-9.655
				c-0.037-0.051,0.044-0.102,0.081-0.066C195.642,233.301,198.094,236.427,198.35,240.35z"/>
			<path fill="#FFC7A2" d="M197.758,183.136c0.161,0.007,0.322,0.007,0.49,0.015c-1.054,3.975-5.673,20.906-11.163,34.178
				c-3.938,9.524-6.508,17.422-6.508,24.076l-2.02-0.007c0.007-8.85,0.161-18.622,0.278-26.682
				c0.095-6.127,0.176-11.419,0.176-14.853c0-4.897,1.698-9.07,4.926-12.071c3.104-2.877,7.43-4.487,12.393-4.648
				C196.813,183.231,197.296,183.239,197.758,183.136z"/>
			<path d="M197.121,143.439c0.037,0.088-0.095,0.161-0.154,0.088c-1.728-1.911-1.779-4.751-0.542-6.94
				c0.029-0.037,0.095-0.007,0.081,0.037C195.854,138.995,196.22,141.192,197.121,143.439z"/>
			<path d="M197.04,167.764c0.095,0.015,0.059,0.154-0.022,0.161c-3.697,0.359-7.196-1.596-9.121-4.722
				c-1.369-2.233-2.716-6.94-0.132-8.835c0.007-0.007,0.015,0.007,0.015,0.015c-2.13,2.679-0.102,7.51,1.881,9.714
				C191.594,166.241,194.244,167.324,197.04,167.764z"/>
			<path d="M195.576,164.975c0.095,0.059,0.029,0.205-0.073,0.176c-2.584-0.6-3.785-2.943-3.667-5.468c0-0.022,0.029-0.022,0.029,0
				C192.04,161.886,193.746,163.855,195.576,164.975z"/>
			<path d="M194.917,147.172c0.066,0.037,0.022,0.139-0.051,0.124c-4.78-1.244-6.332-6.412-4.099-10.512
				c0.022-0.044,0.095-0.015,0.081,0.037C189.164,140.899,191.206,145.159,194.917,147.172z"/>
			<path d="M191.221,131.814c0.029-0.007,0.037,0.029,0.022,0.044c-5.066,3.338-4.37,9.868-0.988,14.201
				c0.066,0.095-0.044,0.212-0.132,0.132c-2.423-2.189-4.107-5.036-3.66-8.411C186.807,135.13,188.607,132.605,191.221,131.814z"/>
			<path d="M190.474,167.478c0.066,0.037,0.022,0.139-0.044,0.117c-8.66-2.357-10.409-13.418-3.265-18.681
				c0.029-0.022,0.066,0.022,0.037,0.044C181.477,154.514,183.344,164.111,190.474,167.478z"/>
			<path fill="#FFC7A2" d="M189.486,354.157c-0.081,1.222-0.9,13.769-0.805,20.665c-31.484,0.673-50.421,0.139-54.762-1.537
				c-6.295-2.438-17.59-12.012-17.7-22.422c-0.088-7.833,6.112-14.369,18.418-19.442c13.681-5.629,30.21-8.894,49.14-9.714
				c1.266,8.001,2.679,16.046,3.719,21.763c-20.072-5.292-34.632,3.074-34.632,3.074c9.985-3.47,21.419-3.938,34.932-1.442
				C188.702,350.08,189.369,353.557,189.486,354.157z"/>
		</g>
	</g>
</g>
</svg>
