<?xml version="1.0" encoding="utf-8"?>
<!-- Generator: Adobe Illustrator 27.6.1, SVG Export Plug-In . SVG Version: 6.00 Build 0)  -->
<svg version="1.1" id="OBJECT" xmlns="http://www.w3.org/2000/svg" xmlns:xlink="http://www.w3.org/1999/xlink" x="0px" y="0px"
	 viewBox="0 0 500 500" enable-background="new 0 0 500 500" xml:space="preserve">
<g>
	<g>
		<path fill="#FDBF90" d="M217.624,260.961l2.222,0.72c0,0,0.123-0.576,0.062-1.214s-0.844-1.584-0.844-1.584l1.687-0.7
			c0,0-0.885-1.296-1.173-1.564c-0.288-0.267-0.288-0.309-0.103-0.35c0.185-0.041,1.44-0.782,1.44-0.782s-1.049-1.255-2.202-1.399
			s-2.654-0.021-2.654-0.021l-3.95,2.798L217.624,260.961z"/>
	</g>
	<g>
		<g id="XMLID_6_">
			<g>
				<g>
					<path fill="#FDBF90" d="M321.022,446.559c-0.211-0.78-0.459-1.45-0.652-1.918c0.11,0.009,0.22,0.028,0.33,0.028
						c1.643,0,2.689,0.78,3.184,1.615c-0.119-0.073-0.257-0.138-0.395-0.184C322.683,445.825,321.747,446.119,321.022,446.559z"/>
				</g>
				<g>
					<path fill="#FDBF90" d="M320.967,451.432c0.615-1.496,0.459-3.221,0.11-4.634c0.578-0.138,1.138-0.312,1.753-0.22
						c0.624,0.083,1.083,0.44,1.432,0.936c0.028,0.679-0.211,1.349-0.716,1.854C322.94,449.964,322.05,450.707,320.967,451.432z"/>
				</g>
				<g>
					<path fill="#FDBF90" d="M219.596,425.187c0.349,0.349,0.385,0.826,0.11,1.303c-0.551,0.964-2.588,2.083-5.946,1.202
						c-1.019-0.266-1.799-0.541-2.423-0.844c1.826-0.954,3.12-2.771,3.671-3.643c0.055,0.073,0.119,0.156,0.184,0.22
						c0.725,0.734,1.532,0.835,2.312,0.927c0.321,0.046,0.633,0.083,0.936,0.174c-0.128,0.073-0.165,0.184-0.239,0.321
						c-0.156,0.266-0.34,0.486-0.615,0.642c-0.532,0.294-1.046,0.092-1.606,0.046c-0.064,0-0.092,0.073-0.073,0.128
						c0.321,0.67,1.331,0.661,1.9,0.33c0.349-0.202,1.101-1.009,0.743-1.441C218.908,424.664,219.257,424.848,219.596,425.187z"/>
				</g>
				<g>
					<path fill="#DB1A21" d="M213.154,418.489c0.514,1.762,0.908,3.083,1.395,4.01c-0.349,0.596-1.872,3.028-4.028,3.9
						c-0.927-0.606-1.441-1.303-2.074-2.156c-0.514-0.697-1.101-1.487-2.019-2.404c-0.532-0.532-1.138-1.165-1.78-1.844
						c0.358,0.055,0.734,0.037,1.037-0.009c1.276-0.165,2.404-0.863,3.147-1.909c0.028-0.037-0.028-0.092-0.064-0.064
						c-0.771,0.587-1.578,1.037-2.523,1.276c-0.982,0.248-1.643,0.138-2.514-0.257c-0.018-0.018-0.028-0.028-0.046-0.046
						c2.624-0.835,6.653-4.267,7.928-5.387C212.264,415.479,212.75,417.121,213.154,418.489z"/>
				</g>
				<g>
					<path fill="#DB1A21" d="M199.518,417.452c-2.826-3.927-7.58-6.075-12.416-5.598c-0.028,0.009-0.028,0.046,0,0.055
						c4.726,0.477,8.846,2.367,12.306,5.625C199.463,417.589,199.564,417.516,199.518,417.452z M203.675,421.902
						c-0.44-1.11-1.331-2.129-2.459-2.588c-0.073-0.028-0.11,0.073-0.073,0.119c0.762,0.881,1.597,1.707,2.377,2.56
						C203.583,422.058,203.712,421.994,203.675,421.902z M220.422,425.187c1.074,0.716,1.395,2.358,1.468,2.964
						c-0.716,0.34-3.193,1.432-6.222,2.111c-3.267,0.725-12.177-0.431-13.847-0.652c-0.11-1.101-0.697-5.084-3.083-7.47
						c-1.395-1.395-2.964-2.413-4.405-2.863c-1.661-0.514-3.047-0.266-4.019,0.707c-1.744,1.743-1.56,8.58-1.487,10.268h-1.441
						c-0.229-2.276-1.679-16.38-1.679-17.857c0-1.441,0.89-2.221,0.881-2.23c0.018-0.009,1.11-0.523,3.193-0.193
						c0.413,0.184,0.881,0.349,1.413,0.541c0.789,0.275,1.688,0.587,2.725,1.083c3.276,1.551,7.148,5.634,9.975,8.607
						c0.752,0.789,1.441,1.514,2.046,2.12c0.881,0.881,1.45,1.652,1.955,2.322c1.184,1.606,2.037,2.762,5.689,3.716
						c0.908,0.229,1.734,0.34,2.487,0.34c2.156,0,3.652-0.853,4.23-1.872C220.624,426.279,220.651,425.692,220.422,425.187z"/>
				</g>
				<g>
					<path fill="#DB1A21" d="M313.47,446.422c-0.817,0.752-1.597,1.551-2.358,2.358c-0.578,0.624-1.771,1.78-2.643,1.321
						c-0.037-0.064-0.073-0.128-0.11-0.202c0.055-0.018,0.092-0.064,0.083-0.128c3.175-1.789,4.919-7.488,5.469-9.608
						c0.927,1.156,2.946,3.423,5.221,4.221c1.349,2.643,1.312,6.203-0.707,8.451c-1.643,0.743-3.496,1.276-5.432,1.276
						c-1.679,0-2.9-1.312-4.038-3.184c0.349,0.055,0.734,0.009,1.101-0.165c0.652-0.294,1.064-0.844,1.477-1.404
						c0.697-0.936,1.358-1.909,1.973-2.9C313.525,446.431,313.489,446.403,313.47,446.422z"/>
				</g>
				<g>
					<path fill="#DB1A21" d="M312.993,454.8c1.872,0,3.68-0.477,5.295-1.156c2.744-0.661,7.525-2.634,6.735-6.139
						c2.257,0.34,2.771,3.368,2.863,4.111c-0.725,0.633-4.414,3.735-8.305,4.597c-3.992,0.881-14.921-0.541-16.784-0.798
						c-0.128-1.23-0.798-6.111-3.707-9.02c-3.056-3.056-7.506-5.166-10.066-2.606c-2.111,2.111-1.854,10.525-1.771,12.416h-1.881
						c-0.257-2.533-2.037-19.821-2.037-21.629c0-1.248,0.541-2.092,0.89-2.496c0.33,0.505,0.734,0.991,1.22,1.477
						c1.505,1.505,4.175,2.276,7.002,3.092c0.964,0.275,1.964,0.569,2.955,0.899c-3.588-1-7.479-1.45-11.002-2.212
						c-0.028-0.009-0.046,0.028-0.018,0.046c3.744,2.294,8.525,2.285,12.654,3.515c2.34,0.688,4.377,1.725,6.075,3.414
						c1.45,1.78,2.569,3.937,3.57,5.882C308.497,451.735,310.075,454.8,312.993,454.8z"/>
				</g>
				<g>
					<path fill="#FFFFFF" d="M205.217,246.01c0.028-0.037-0.028-0.064-0.055-0.046c-5.258,4.285-9.617,9.14-9.709,16.196
						c0,0.284,0.358,0.284,0.45,0.064c1.257-2.982,2.285-6.029,4.019-8.782C201.546,250.846,203.4,248.478,205.217,246.01z
						 M232.672,277.586c0.055,0.037,0.11-0.046,0.064-0.092c-2-2.12-4.974-2.927-7.837-2.551c-1.716,0.229-3.102,1.101-4.717,1.606
						c-2.909,0.89-5.469-0.266-7.213-2.661c-0.055-0.073-0.165-0.009-0.128,0.073c1.285,2.588,3.973,4.652,6.983,3.937
						c1.835-0.431,3.404-1.615,5.267-2.019C227.781,275.292,230.378,276.218,232.672,277.586z M238.527,275.787
						c0.551,3.193-3.083,3.193-3.083,3.193s0.257,1.404,1.707,2.496l-2.111,0.239c-2.918-2.312-6.066-4.496-12.131-2.23
						c-7.341,2.753-9.14-0.119-11.626-4.093c-0.945-1.514-2.028-3.239-3.533-4.744c-2.982-2.982-4.441-2.634-6.286-2.193
						c-1.477,0.358-3.322,0.808-6.726-0.532c-4.35-1.698-4.506-3.505-4.68-5.607c-0.119-1.404-0.248-3.001-1.799-4.551
						c-1.771-1.771-3.533-1.835-5.387-1.9c-2.101-0.073-4.267-0.156-6.836-2.725c-3.909-3.909-4.01-8.057-3.918-9.452
						c7.717,4.028,14.398-1.064,26.345-10.186c9.837-7.506,16.132-20.206,18.389-25.345c-0.505,4.423-0.982,8.929-1.367,12.599
						c-0.037,0.009-0.073,0.018-0.101,0.046c-0.083,0.119-0.174,0.229-0.257,0.349c-2.267,3.111-4.386,6.323-6.827,9.314
						c-2.303,2.835-4.772,5.515-7.222,8.222c-2.423,2.679-4.873,5.286-8.13,6.956c-3.441,1.78-7.194,2.478-11.039,2.423
						c-0.101,0-0.128,0.156-0.028,0.184c7.69,2.019,14.288-1.643,19.316-7.24c5.221-5.809,11.461-12.186,14.223-19.647
						c-0.422,4.056-0.716,6.992-0.762,7.47c-0.615,1.138-7.497,14.021-7.497,17.72c0,3.579,1.716,11.333,2.523,12.14
						c0.67,0.67,7.24,4.854,7.983,5.331l0.413,0.257l0.11-0.468c0.018-0.073,0.284-1.239-0.064-2.468
						c0.505,0.248,1.055,0.404,1.551,0.697c0.165,0.101,0.34,0,0.404-0.165c0.413-1.028,0.229-2.092-0.44-2.9
						c0.468-0.037,0.954-0.165,1.321-0.395c0.083-0.046,0.147-0.147,0.138-0.248c-0.046-0.624-0.587-1.276-1.193-1.789
						c0.496-0.083,0.991-0.376,1.376-0.652c0.147-0.119,0.257-0.34,0.128-0.523c-1.138-1.652-3.166-2.056-4.974-1.395
						c0.128-0.321,0.248-0.67,0.321-1.083c0.303-1.569,0.128-2.863-0.018-3.9c-0.128-0.899-0.22-1.615,0-2.202
						c0.174-0.45,0.587-0.743,1.156-1.156c0.991-0.716,2.367-1.698,3.625-4.322c0.138-0.284,0.257-0.569,0.358-0.853
						c0.284,0.046,1.22,0.248,2.331,0.927c0.34,5.249,1.964,10.544,4.001,15.141c0.028,0.055,0.119,0.009,0.101-0.046
						c-1.312-3.661-2.147-7.488-2.67-11.342c-0.128-0.964-0.211-1.927-0.275-2.891c0.431,0.376,0.863,0.835,1.266,1.386
						C228.727,246.496,237.976,272.594,238.527,275.787z"/>
				</g>
				<g>
					<path fill="#FFFFFF" d="M265.652,147.3c0.486-8.13-0.037-16.646-6.515-22.427c-0.055-0.046-0.128,0.028-0.083,0.073
						c5.442,6.038,6.479,14.554,6.561,22.354C265.616,147.327,265.652,147.327,265.652,147.3z M271.69,259.582
						c0.073,0.064,0.211-0.018,0.138-0.11c-2.184-2.845-4.047-6.185-5.46-9.479c-0.009-0.037-0.046-0.009-0.046,0.018
						C266.891,253.984,268.653,257.012,271.69,259.582z M273.067,268.005c0.193,0.147,0.431-0.165,0.257-0.33
						c-11.158-10.764-13.994-26.474-16.747-41.028c0-0.018-0.037-0.018-0.037,0.009C257.88,241.651,260.165,258.379,273.067,268.005
						z M282.298,153.916c0.367-1.019,0.395-2.257-0.184-3.212c-0.037-0.064-0.147-0.037-0.138,0.037
						c0.073,1.064,0.229,2.083,0.193,3.157C282.161,153.98,282.28,153.989,282.298,153.916z M257.779,281.843
						c0.046,0.046,0.156,0,0.128-0.083c-0.385-1.019-1.12-1.982-1.872-2.762c-0.073-0.083-0.184,0.018-0.147,0.11
						C256.338,280.091,256.971,281.118,257.779,281.843z M285.482,257.847c4.524,5.487,12.553,12.342,19.995,7.772
						c0.064-0.037,0.018-0.147-0.055-0.119c-8.773,2.597-14.994-4.166-19.931-10.388c-4.79-6.029-9.81-12.471-12.159-19.894
						c-0.018-0.073-0.11-0.046-0.101,0.028C274.645,244.092,279.922,251.112,285.482,257.847z M236.572,238.779
						c4.001,12.829,9.36,25.464,17.279,36.403c0.073,0.092,0.22,0.009,0.165-0.092c-6.24-11.92-12.535-23.758-17.362-36.338
						C236.637,238.705,236.554,238.724,236.572,238.779z M282.161,147.621c-0.257-6.13-2.643-12.232-7.763-15.884
						c-0.028-0.028-0.064,0.028-0.037,0.046c4.551,4.175,6.488,9.966,7.662,15.857C282.041,147.722,282.17,147.703,282.161,147.621z
						 M296.751,237.411c1.376,2.294,3.368,4.322,6.121,4.671c0.101,0.009,0.128-0.138,0.046-0.184
						c-2.212-1.294-4.478-2.487-6.102-4.542C296.788,237.32,296.723,237.366,296.751,237.411z M277.517,209.524
						c3.515,17.591,15.756,37.329,35.219,39.247c0.147,0.018,0.174-0.22,0.037-0.257c-8.442-2.358-16.095-7.378-21.776-14.012
						c-6.203-7.258-9.956-16.205-13.407-24.996C277.572,209.46,277.508,209.469,277.517,209.524z M316.609,247.193
						c-3.744,3.744-4.423,6.111-4.34,7.442c0.055,0.835,0.413,1.321,0.606,1.532c-0.009,1.12-0.321,8.837-7.727,12.094
						c-3.9,1.716-6.258,1.587-8.158,1.487c-2.083-0.11-3.735-0.202-6.148,2.221c-1.257,1.257-2.193,2.597-3.102,3.9
						c-2.331,3.349-4.35,6.24-10.865,6.24c-3.707,0-6.102-0.596-7.846-1.037c-2.652-0.661-4.111-1.028-6.598,1.468
						c-2.991,2.992-2.991,2.992-4.891,1.973c-0.541-0.294-1.211-0.652-2.101-1.055c-2.386-1.074-3.661-0.468-5.276,0.294
						c-1.56,0.743-3.505,1.661-7.314,1.661c-3.175,0-5.231-1.633-7.396-3.368c-0.138-0.11-0.275-0.22-0.413-0.33l2.111-0.239
						c0.661,0.496,1.569,0.936,2.808,1.138c3.964,0.661,10.021-1.321,10.021-1.321s-6.442-3.542-8.213-6.873
						c-2.505-7.525-5.57-14.847-7.91-22.445c-1.661-5.405-3.065-10.993-3.918-16.646c-0.514-4.166-0.808-8.25-0.881-11.177
						c0-0.725,0.009-1.441,0.028-2.166c0-0.018-0.037-0.028-0.037,0c0.119-5.221,6.616-24.492,7.497-28.015
						c0.633-2.514,0.973-4.23,1.12-5.01c1.633-0.954,3.854-2.129,6.304-3.092c2.569-1,5.965-2.799,8.433-5.781
						c-0.514,1.863-0.248,4.12,0.413,5.68c0.009,0.018,0.046,0,0.037-0.018c-0.239-1.45-0.34-2.872-0.083-4.331
						c0.128-0.725,0.404-1.395,0.652-2.074c-0.303,3.891,3.111,8.002,5.304,10.69c0.028,0.028,0.073-0.009,0.055-0.046
						c-1.12-1.964-2.551-3.827-3.469-5.891c-1.129-2.533-0.67-4.753-0.817-7.369c1.019-2.349,1.459-5.185,0.918-8.626
						c-0.092-0.596-0.22-1.175-0.376-1.762c0.541,0.642,1.175,1.211,1.643,1.569c1.23,0.964,3.157,2.056,4.744,1.615
						c0.046-0.018,0.037-0.083-0.009-0.083c-1.844,0.009-3.652-1.349-4.891-2.597c-0.541-0.541-1.028-1.147-1.432-1.799
						c-0.239-0.376-0.376-0.688-0.624-0.954c4.625,0.046,7.268-4.139,9.296-7.681c0.018-0.037-0.037-0.073-0.064-0.037
						c-1.12,1.542-2.34,3.065-3.735,4.359c-1.376,1.257-2.863,1.826-4.487,2.423c7.249-4.533,10.232-14.682,7.424-25.923
						c-2.744-10.947-14.508-24.18-17.123-27.024c0.174-0.009,0.349-0.037,0.505-0.073c1.175,1.532,2.808,2.9,4.083,4.166
						c2.147,2.138,4.295,4.313,6.011,6.818c0.018,0.018,0.055,0,0.037-0.018c-1.239-2.478-2.891-4.487-4.818-6.46
						c-1.459-1.505-2.927-3.303-4.487-4.827c0.018-0.018,0.037-0.037,0.055-0.046c2.138,1.367,21.913,14.067,29.805,21.959
						c6.414,6.414,7.185,15.471,7.213,19.179c-0.092,0.707-0.156,1.413-0.165,2.111c0,0.046,0.037,0.073,0.073,0.073l-0.046,0.486
						l0.688-0.716c0.284-0.303,7.029-7.46,7.029-15.435c0-3.671-0.899-6.497-1.881-8.497c2.404,2.826,3.9,6.111,3.698,10.268
						c-0.009,0.055,0.083,0.064,0.092,0.009c0.835-4.662-1.11-10.498-5.432-12.92c-0.055-0.083-0.119-0.156-0.174-0.229
						c2.45,0.569,8.745,2.762,10.287,10.452c1.239,6.231-0.734,11.158-2.294,13.884c-0.284,0.44-0.541,0.899-0.853,1.349
						c0,0.009,0,0.009-0.009,0.018c-0.092,0.128-0.184,0.266-0.284,0.395c-0.945,1.202-2.028,2.294-2.955,3.515
						c-0.028,0.037,0.018,0.055,0.046,0.037c0.798-0.633,1.615-1.294,2.358-2.01c-0.193,11.37-4.726,23.978-8.396,34.164
						c-1.138,3.138-2.147,5.955-2.891,8.35c-2.652,1.321-5.57,1.588-8.47,1.074c-0.037,0-0.073,0.055-0.028,0.073
						c2.735,1.276,5.671,1.037,8.259-0.34c-0.193,0.642-0.349,1.248-0.496,1.826c-0.128,0.202-0.266,0.404-0.422,0.587
						c-0.707,0.789-1.588,1.303-2.542,1.716c-0.037,0.018-0.018,0.083,0.018,0.083c0.964-0.083,1.945-0.587,2.698-1.321
						c-0.174,0.863-0.266,1.624-0.266,2.267c0,7.231,11.746,30.603,20.72,33.365c7.561,2.331,11.37-0.092,12.333-0.863
						c0.835,0.752,3.863,3.661,4.047,7.148C319.031,243.743,318.251,245.551,316.609,247.193z M271.231,230.704
						c0.018,0.037,0.073,0.009,0.064-0.028c-1.505-5.79-3.386-11.654-3.239-17.692c0-0.11-0.174-0.138-0.193-0.028
						C266.864,219.224,268.763,225.005,271.231,230.704z"/>
				</g>
				<g>
					<path fill="#FDBF90" d="M203.602,399.668c0.046,2.459-1.643,4.239-2.982,6.148c-0.055,0.083,0.055,0.165,0.128,0.128
						c1.854-0.899,3.349-2,3.927-4.093c0.688-2.487-0.688-4.836-0.514-7.295c0-0.083-0.128-0.128-0.165-0.046
						C203.244,396.282,203.565,397.796,203.602,399.668z M219.706,295.792c0-0.083-0.128-0.092-0.147-0.018
						c-1.542,4.432-3.671,8.295-6.029,12.315c-0.064,0.11,0.073,0.202,0.156,0.128C217.329,305.225,219.413,300.444,219.706,295.792
						z M238.307,290.983c4.873,5.616,3.019,14.278,2.872,14.93c-0.752,1.386-1.514,2.716-2.248,3.882
						c-1.321,2.092-2.689,4.194-4.001,6.222c-2.799,4.322-5.442,8.406-6.809,10.984c-2.322,4.395-20.739,64.565-20.739,67.767
						c0,3.469,1.606,11.7,3.762,17.518c0.073,0.184,0.128,0.358,0.193,0.532c-0.908,0.808-5.726,5.019-8.25,5.533
						c-2.762-2.872-5.955-5.992-8.874-7.378c-0.101-0.046-0.193-0.083-0.294-0.128c1.597,0.395,3.203,0.762,4.671,1.597
						c0.092,0.055,0.202-0.046,0.147-0.138c-0.789-1.276-2.202-1.578-3.597-1.854c-2.092-0.413-4.028-1.019-6.047-1.707
						c-0.615-0.56-0.899-1.413-0.899-3.074c0-1.808,1.202-3.689,2.735-6.066c2.111-3.285,4.735-7.378,6.121-13.792
						c1.45-6.699,1.413-15.481,1.376-24.785c-0.028-6.203-0.055-12.617,0.395-18.426c1.202-15.664,9.442-29.52,14.251-36.384
						c4.386-6.258,5.497-16.343,5.772-21.711C221.11,284.651,233.709,285.679,238.307,290.983z"/>
				</g>
				<g>
					<path fill="#FDBF90" d="M256.76,302.903c2.432,4.937,2.872,10.663,2.413,16.077c-0.018,0.174,0.239,0.184,0.294,0.037
						c2.092-5.643,0.707-11.314-2.624-16.169C256.806,302.802,256.733,302.848,256.76,302.903z M290.906,413.056
						c0.477,2.588-1.23,4.928-0.817,7.515c0.376,2.312,2.037,3.092,3.882,4.194c0.11,0.073,0.248-0.064,0.184-0.174
						c-0.551-0.863-1.202-1.643-1.753-2.487c-0.908-1.376-0.927-2.496-0.817-4.065c0.128-1.753,0.184-3.414-0.578-5.029
						C290.979,412.955,290.896,413.001,290.906,413.056z M308.708,424.407c2.212,5.827,4.267,13.581,4.57,14.765l-0.073-0.009
						c-0.009,0.073-1.679,7.635-5.047,9.718c-0.844-2.294-2.23-4.478-3.964-6.304c-0.468-0.642-0.973-1.248-1.523-1.799
						c-2.661-2.661-6.579-3.799-10.03-4.79c-2.744-0.798-5.331-1.542-6.708-2.918c-3.102-3.102-2.698-6.304,0.303-15.728
						l0.018-0.092c0.009-0.119,0.541-12.627-10.415-27.529c-1.56-2.111-3.074-4.12-4.542-6.056
						c-8.818-11.672-15.793-20.904-17.857-36.513c-1.643-12.333-0.56-19.83,0.312-25.859c0.422-2.909,0.789-5.423,0.789-8.011
						c0-7.378-7.277-24.528-8.534-27.437c2.028-0.34,3.386-0.964,4.451-1.468c1.624-0.771,2.606-1.23,4.698-0.284
						c0.872,0.385,1.532,0.743,2.056,1.028c2.358,1.257,2.542,1.074,5.708-2.092c2.221-2.221,3.386-1.927,5.946-1.285
						c1.78,0.44,4.221,1.055,8.011,1.055c0.413,0,0.798-0.018,1.175-0.037c0.028,1.808,0.064,10.122-1.285,15.912l-0.018,0.073
						l0.018,0.083c0.028,0.128,3.019,13.388,0.028,19.592l-0.055,0.11l0.028,0.119c0.89,3.597,21.84,87.974,24.473,93.232
						c1.138,2.285,2.248,3.762,3.313,5.194C305.992,418.984,307.34,420.792,308.708,424.407z"/>
				</g>
				<g>
					<path fill="#FDBF90" d="M227.791,113.998c5.075-5.075,10.7-4.441,14.801-3.973c0.844,0.092,1.597,0.184,2.257,0.202
						c1.23,1.303,14.48,15.572,17.38,27.171c2.881,11.535-0.45,21.84-8.286,25.813c-1.624-3.744-4.212-7.148-6.598-9.8
						c-0.532-1.588-2.248-6.882-2.735-10.011c-0.413-2.634-0.532-5.882-0.56-7.552c1.101-2.964,2.212-4.854,2.349-5.084
						c-2.468,2.468-5.377,7.479-5.377,17.398c0,8.947-3.102,24.226-3.138,24.391c-0.009,0.092-1.514,9.397-4.616,22.611
						c-3.102,13.205-11.636,37.21-11.718,37.458l-0.037,0.101l0.037,0.11c0.009,0.046,1.257,4.212-0.642,8.176
						c-1.193,2.468-2.478,3.395-3.414,4.065c-0.615,0.44-1.147,0.826-1.395,1.468c-0.284,0.752-0.174,1.588-0.037,2.542
						c0.138,1.046,0.303,2.221,0.028,3.68c-0.422,2.156-1.799,2.881-2.303,3.074c-0.523-0.808-0.532-1.844-0.541-2.891
						c0.147-0.092,0.303-0.165,0.477-0.193c0.431-0.073,0.789,0.073,1.055,0.422c0.009,0.009,0.037,0,0.028-0.018
						c-0.128-0.44-0.514-0.826-0.982-0.881c-0.184-0.028-0.404,0.009-0.596,0.092c-0.018-0.725-0.092-1.441-0.376-2.065
						c-0.661-1.413-1.202-1.624-1.11-3.57c0.064-1.303,0.239-2.505,0.11-3.817c-0.009-0.073-0.092-0.083-0.119-0.018
						c-0.587,1.459-1.276,3.377-1.037,4.992c0.211,1.395,1.413,2.322,1.688,3.744c0.165,0.863-0.496,4.68,1.11,4.928
						c0.376,0.477,1.982,2.413,3.239,3.671c0.899,0.899,0.927,2.211,0.863,2.927c-0.771-0.496-1.624-1.046-2.468-1.587
						c0.174-0.138,0.193-0.367,0.385-0.496c0.376-0.266,0.752,0.138,1.064,0.358c0.009,0.009,0.018,0,0.018-0.009
						c-0.165-0.395-0.541-0.798-1.019-0.743c-0.321,0.046-0.679,0.44-0.615,0.78c-2.285-1.487-4.478-2.946-4.79-3.258
						c-0.56-0.569-2.322-7.901-2.322-11.654c0-3.615,7.369-17.316,7.442-17.453l0.046-0.128c0.018-0.22,2.221-22.363,3.744-33.237
						c0.44-3.166,0.982-6.644,1.551-10.323c1.404-9.002,2.854-18.316,2.854-23.207c0-1.184-0.11-3.166-0.239-5.671
						C222.624,144.822,221.34,120.449,227.791,113.998z"/>
				</g>
				<g>
					<path fill="#FDBF90" d="M273.25,70.952c1.083,1.175,0.661,5.754,0.055,8.038c-0.128-0.028-0.257-0.055-0.395-0.055
						c-0.45,0-0.863,0.184-1.165,0.477c-0.055-1.496-0.165-2.955-0.33-4.295c0.596,0.064,0.697,0.56,0.725,1.083
						c0.018,0.514,0.009,0.973,0.303,1.404c0.046,0.055,0.138,0.009,0.101-0.055c-0.404-0.808,0.211-1.817-0.413-2.551
						c-0.174-0.193-0.486-0.349-0.771-0.34c-0.018-0.156-0.037-0.33-0.064-0.486c-0.018-0.11-0.037-0.22-0.046-0.34
						c0.156-0.367,0.376-0.688,0.78-0.596c0.808,0.202,0.881,1.266,0.954,1.918c0,0.018,0.018,0.028,0.028,0.009
						c0.349-0.817,0.055-2.212-0.908-2.459c-0.367-0.092-0.716,0.037-0.982,0.275c-0.092-0.569-0.174-1.129-0.257-1.688
						c0.294-0.303,0.872-0.771,1.45-0.78C272.654,70.503,272.957,70.64,273.25,70.952z"/>
				</g>
				<g>
					<path fill="#FDBF90" d="M256.696,62.436c3.248,0.881,6.827-0.055,10.021,1.101c0.239,0.092,0.459,0.202,0.67,0.321
						c-1.34-0.496-2.817-0.679-4.175-0.532c-2.257,0.239-4.405,0.927-6.69,0.385c-2.606-0.624-4.487-2.377-5.249-4.79
						C251.979,59.684,254.072,61.73,256.696,62.436z"/>
				</g>
				<g>
					<path fill="#FDBF90" d="M246.63,65.144c0.128-3.542,1.193-5.166,2.239-5.91c-0.881,1.386-0.936,3.551-0.927,5.047
						c0.018,1.67,0.037,3.303-0.367,4.854c-0.532-0.055-1.074-0.083-1.606-0.073C246.336,67.86,246.575,66.548,246.63,65.144z"/>
				</g>
				<g>
					<path fill="#FDBF90" d="M246.474,71.585c-1.028,1.468-2.395,2.459-3.955,3.074c1.266-1.101,2.413-2.735,3.175-4.781
						c0.514,0.046,1.055,0.101,1.588,0.165C247.07,70.576,246.822,71.09,246.474,71.585z"/>
				</g>
				<g>
					<path fill="#FDBF90" d="M287.602,126.607c1.202,1.514,3.469,5.139,3.469,10.819c0,6.286-4.515,12.223-6.212,14.242
						c0.009-0.083,0.009-0.184,0.009-0.266c1.551-4.249,1.707-9.672,0.239-13.746c-1.743-4.873-5.607-8.295-9.332-11.654
						c-0.046-0.037-0.101,0.018-0.064,0.055c3.294,3.459,6.855,7.268,8.47,11.847c0.835,2.377,1.037,4.882,0.844,7.378
						c-0.064,0.835-0.193,1.679-0.33,2.514c-0.468-4.542-2.056-11.37-7.24-16.554c-7.8-7.8-27.098-20.252-29.805-21.977
						c1.578-2.358,0.202-9.103-0.303-11.305c0.798,0.486,1.643,0.954,2.523,1.404c1.615,1.386,4.368,3.469,7.46,4.065
						c3.028,0.587,4.717-0.303,5.543-1.009c0.119,2.707,0.624,7.029,2.533,8.938c2.744,2.744,17.453,12.838,21.161,14.352
						C286.923,126.001,287.263,126.304,287.602,126.607z"/>
				</g>
				<g>
					<path fill="#FDBF90" d="M260.284,85.221c0,0-0.762-0.532-1.046-0.22c-0.275,0.321-0.266,0.945-0.266,0.945
						S259.376,86.176,260.284,85.221z M259.853,82.854c0.716,0.725,0.991,1.588,0.707,2.569c-0.009,0.028,0.018,0.055,0.037,0.037
						c0.844-0.881,0.119-2.083-0.697-2.643C259.871,82.799,259.825,82.836,259.853,82.854z M268.24,74.531
						c0.817-0.808,0.863-1.422,0.863-1.422s-0.376,0.496-0.734,0.44c-0.092-0.009-0.284-0.11-0.569-0.229
						c0.009,0,0.009-0.009,0.009-0.009c0.248-0.248,0.321-0.56,0.422-0.872c0.009-0.018-0.009-0.028-0.018-0.018
						c-0.184,0.202-0.385,0.395-0.596,0.56c-0.083,0.064-0.156,0.11-0.239,0.165c-0.835-0.312-2.129-0.642-3.827-0.321
						c-2.762,0.523-3.836,3.239-3.836,3.239c0.147-0.193,0.312-0.385,0.477-0.569c0.358,0.22,2.679,1.551,5.249,0.633
						c-0.395,0.257-0.679,0.422-0.679,0.422C265.992,76.284,267.414,75.329,268.24,74.531z M252.585,76.229
						c0.018,0.018,0.037,0,0.028-0.018c-2.055-2.845-6.066-2.845-8.718-0.789c-0.018,0.018,0,0.055,0.028,0.037
						C246.832,74.072,250.163,73.723,252.585,76.229z M257.65,86.506c0.294-0.349,0.275-1.037-0.092-1.422
						c-0.367-0.385-1.551-0.523-1.808-1.422c-0.257-0.899,0.239-2.083,0.073-3.294c-0.156-1.147-1.826-4.313-2.01-4.643
						c0-0.018-0.009-0.028-0.009-0.028s0,0.009,0.009,0.028c0.073,0.257,0.661,2.349,0.964,3.827c0.33,1.588,0.22,2.101-0.211,3.322
						c-0.44,1.22-0.872,1.597-0.835,2.386c0.037,0.789,0.459,1.165,0.899,1.432c0.45,0.275,0.918-0.211,1.358-0.239
						c0.33-0.018,0.918,0.211,1.321,0.193c0.046,0.468,0.193,0.964,0.294,1.331c0.009,0.028,0.037,0.018,0.037,0
						c-0.018-0.45-0.046-0.89-0.055-1.331c0-0.028,0-0.055,0-0.083C257.605,86.543,257.632,86.534,257.65,86.506z M265.377,65.52
						c-1.679,0.037-6.433,2-6.717,4.093c0,0,5.405-3.414,6.708-3.441c1.22-0.028,3.074,1.404,3.303,1.578
						C268.515,67.529,266.955,65.474,265.377,65.52z M258.779,75.32c1.551-3.12,4.827-3.808,8.02-3.368
						c0.028,0.009,0.037-0.037,0.009-0.046c-3.147-1.147-6.965,0.064-8.066,3.404C258.742,75.329,258.77,75.338,258.779,75.32z
						 M259.045,88.718c-0.156,0.073-0.275,0.174-0.395,0.284c-0.45-0.229-0.964-0.33-1.487-0.184
						c-0.312,0.083-0.606,0.303-0.789,0.541c-0.174,0.229-0.303,0.477-0.45,0.707c-0.275,0.468-0.56,0.908-0.936,1.257
						c-0.376,0.358-0.863,0.541-1.34,0.532h-0.642l0.505,0.459c0.78,0.716,1.578,1.422,2.404,2.083l0.633,0.496
						c0.211,0.147,0.44,0.349,0.762,0.486c0.606,0.248,1.23,0.266,1.799,0.193c0.294-0.028,0.578-0.092,0.844-0.165
						c0.294-0.101,0.505-0.147,0.844-0.321c0.615-0.367,0.899-0.927,1.138-1.413c0.248-0.505,0.395-1.019,0.587-1.496
						c0.202-0.459,0.33-0.863,0.808-1.165l0.009-0.009h0.009c0.018-0.028,0.028-0.037,0.055-0.055c0-0.018-0.037-0.046-0.055-0.037
						l-0.009-0.009h-0.018l-0.046-0.009l-0.073-0.018l-0.156-0.055c-0.11-0.037-0.202-0.083-0.303-0.138
						c-0.193-0.092-0.367-0.22-0.523-0.367c-0.156-0.138-0.294-0.284-0.431-0.45c-0.147-0.184-0.312-0.358-0.477-0.532
						c-0.358-0.321-0.771-0.661-1.367-0.762C259.651,88.525,259.321,88.571,259.045,88.718z M258.761,84.634
						c1.239-0.642,0.624-2.202,0.055-3.083c-0.018-0.018-0.046,0-0.037,0.018c0.395,1.019,0.615,2.056-0.064,3.01
						C258.697,84.616,258.733,84.652,258.761,84.634z M241.528,75.412c2.358-0.486,4.496-2.028,5.726-4.102
						c0.229-0.385,0.404-0.789,0.56-1.193c1.725,0.22,3.23,0.477,3.23,0.477c-0.422-0.771-1.597-1.202-2.936-1.395
						c0.202-0.78,0.303-1.588,0.33-2.413c0.092-2.45-0.606-6.212,1.34-8.011c0.496-0.156,0.908-0.165,1.101-0.156
						c0.459,2.9,2.992,4.992,5.864,5.625c1.991,0.44,3.781,0.046,5.744-0.248c2.725-0.404,4.652,0.257,6.579,1.597
						c0.138,0.229,0.266,0.459,0.367,0.697c0.34,2.349,0.752,5.111,1.184,7.993c0.532,3.551,0.624,8.194,0.239,12.104
						c-0.385,3.872-1.854,7.424-4.129,9.993c-2.579,2.9-5.019,4.845-8.571,4.909c-0.037,0.009-0.064,0.009-0.092,0.009
						c-3.753,0-11.535-3.973-14.058-6.717c-2.303-2.505-4.212-7.671-4.524-8.562c0.248-0.294,0.404-0.67,0.404-1.092
						c0-0.936-0.752-1.698-1.688-1.698c-0.881,0-1.597,0.679-1.679,1.542c-0.22-0.128-0.44-0.266-0.642-0.431
						c-1.331-1.092-3.597-5.524-2.946-7.782c0.018-0.064,0.037-0.138,0.064-0.193c0.009-0.028,0.028-0.055,0.037-0.083
						c0.165-0.33,0.395-0.578,0.707-0.743c0,0,0.009,0,0.009-0.009c0.055-0.018,0.119-0.028,0.174-0.055
						c0.275-0.092,0.569-0.147,0.872-0.147c0.349,0,0.697,0.055,1,0.119c0.376,0.147,1,0.376,2.34,0.707
						C239.169,76.421,240.371,76.137,241.528,75.412z M243.381,77.064c-0.229,0.202-0.385,0.358-0.468,0.395
						c-0.33,0.156-0.844-0.193-0.844-0.193s0.239,0.569,1.266,1.083c1.019,0.514,2.67,0.991,3.918,0.872
						c0,0-0.321-0.073-0.771-0.193c2.735,0.092,4.533-1.881,4.808-2.202c0.202,0.128,0.413,0.248,0.615,0.376
						c-0.202-0.239-2-2.221-4.625-1.9c-1.716,0.211-2.854,0.918-3.551,1.468c-0.092-0.028-0.184-0.046-0.275-0.083
						c-0.248-0.092-0.505-0.22-0.734-0.349c-0.018-0.009-0.028,0-0.018,0.018c0.193,0.266,0.358,0.541,0.661,0.707
						C243.372,77.064,243.381,77.064,243.381,77.064z M238.692,81.422c0.055,0,0.055-0.073,0.009-0.092
						c-1.257-0.505-0.927-1.716-1.56-2.689c-0.395-0.596-0.991-0.973-1.716-0.991c-1.854-0.055-1.413,2.129-0.67,3.138
						c0.028,0.037,0.101,0.018,0.083-0.037c-0.202-0.688-0.817-2.67,0.78-2.395c0.532,0.083,0.826,0.468,1.037,0.908
						c-1.211,0.725-0.56,2.441,0.046,3.368c0.028,0.046,0.092,0,0.073-0.046c-0.404-0.954-0.752-2.083,0.073-2.845
						c0.037,0.092,0.064,0.184,0.101,0.275C237.27,80.918,237.719,81.377,238.692,81.422z"/>
				</g>
				<g>
					<path fill="#FFFFFF" d="M272.911,79.624c0.551,0,1,0.459,1,1.009s-0.45,1-1,1c-0.551,0-1-0.45-1-1
						S272.36,79.624,272.911,79.624z"/>
				</g>
				<g>
					<path fill="#FFFFFF" d="M238.197,83.918c0.551,0,1,0.459,1,1.009s-0.45,1-1,1c-0.551,0-1-0.45-1-1
						S237.646,83.918,238.197,83.918z"/>
				</g>
				<g>
					<path fill="#DB1A21" d="M258.486,92.03c0.808-0.073,1.505,0.56,1.679,1.367c0.009,0.046,0.073,0.037,0.073-0.009
						c-0.009-0.514-0.174-1.046-0.578-1.386c0.174,0.028,0.413,0.055,0.78,0.083c0.459,0.037,1.441-0.349,1.927-0.551
						c-0.101,0.138-0.202,0.275-0.294,0.413c-0.294,0.468-0.551,0.927-0.808,1.358c-0.257,0.422-0.578,0.798-0.908,0.945
						c-0.128,0.064-0.431,0.147-0.652,0.202c-0.239,0.055-0.477,0.092-0.707,0.128c-0.468,0.055-0.945,0.028-1.331-0.101
						c-0.174-0.055-0.358-0.184-0.587-0.34l-0.642-0.44c-0.652-0.468-1.321-0.908-1.982-1.358c0.596,0.018,2.349,0.055,3.23-0.101
						c-0.138,0.147-0.257,0.33-0.321,0.523c-0.028,0.055,0.064,0.083,0.101,0.037C257.751,92.416,258.091,92.214,258.486,92.03z"/>
				</g>
				<g>
					<path fill="#DB1A21" d="M258.926,90.957c0,0-0.523,0.826-1.624,1.046c-0.78,0.156-2.129,0.128-2.845,0.101
						c0.284-0.147,0.532-0.34,0.743-0.56c0.385-0.404,0.679-0.863,1.009-1.294c0.321-0.431,0.67-0.808,1.092-0.826
						c0.404-0.046,0.844,0.184,1.165,0.44l0.33,0.257l0.275-0.33c0.239-0.294,0.468-0.45,0.771-0.422
						c0.312,0.028,0.688,0.229,1.028,0.486c0.165,0.119,0.34,0.257,0.505,0.404c0.184,0.156,0.376,0.312,0.587,0.431
						c0.22,0.119,0.45,0.211,0.679,0.266c0.11,0.028,0.22,0.046,0.34,0.055c-0.018,0.009-0.037,0.009-0.046,0.018
						c-0.028,0.009-0.037,0.037-0.064,0.046c-0.496,0.211-1.743,0.697-2.377,0.679C259.697,91.727,258.926,90.957,258.926,90.957z"
						/>
				</g>
				<g>
					<path d="M296.815,237.356c1.624,2.056,3.891,3.248,6.102,4.542c0.083,0.046,0.055,0.193-0.046,0.184
						c-2.753-0.349-4.744-2.377-6.121-4.671C296.723,237.366,296.788,237.32,296.815,237.356z"/>
				</g>
				<g>
					<path d="M293.971,424.765c-1.844-1.101-3.505-1.881-3.882-4.194c-0.413-2.588,1.294-4.928,0.817-7.515
						c-0.009-0.055,0.073-0.101,0.101-0.046c0.762,1.615,0.707,3.276,0.578,5.029c-0.11,1.569-0.092,2.689,0.817,4.065
						c0.551,0.844,1.202,1.624,1.753,2.487C294.218,424.701,294.081,424.839,293.971,424.765z"/>
				</g>
				<g>
					<path d="M282.115,150.704c0.578,0.954,0.551,2.193,0.184,3.212c-0.018,0.073-0.138,0.064-0.128-0.018
						c0.037-1.074-0.119-2.092-0.193-3.157C281.968,150.667,282.078,150.64,282.115,150.704z"/>
				</g>
				<g>
					<path d="M312.736,248.772c-19.463-1.918-31.704-21.656-35.219-39.247c-0.009-0.055,0.055-0.064,0.073-0.018
						c3.45,8.791,7.203,17.738,13.407,24.996c5.68,6.635,13.333,11.654,21.776,14.012
						C312.911,248.552,312.883,248.79,312.736,248.772z"/>
				</g>
				<g>
					<path d="M282.023,147.639c-1.175-5.891-3.111-11.682-7.662-15.857c-0.028-0.018,0.009-0.073,0.037-0.046
						c5.12,3.652,7.506,9.754,7.763,15.884C282.17,147.703,282.041,147.722,282.023,147.639z"/>
				</g>
				<g>
					<path d="M285.492,255.113c4.937,6.222,11.158,12.985,19.931,10.388c0.073-0.028,0.119,0.083,0.055,0.119
						c-7.442,4.57-15.471-2.285-19.995-7.772c-5.561-6.735-10.837-13.755-12.25-22.601c-0.009-0.073,0.083-0.101,0.101-0.028
						C275.682,242.642,280.701,249.084,285.492,255.113z"/>
				</g>
				<g>
					<path d="M271.296,230.676c0.009,0.037-0.046,0.064-0.064,0.028c-2.468-5.699-4.368-11.48-3.368-17.747
						c0.018-0.11,0.193-0.083,0.193,0.028C267.91,219.022,269.791,224.886,271.296,230.676z"/>
				</g>
				<g>
					<path d="M271.828,259.471c0.073,0.092-0.064,0.174-0.138,0.11c-3.037-2.569-4.799-5.598-5.368-9.571
						c0-0.028,0.037-0.055,0.046-0.018C267.781,253.287,269.644,256.627,271.828,259.471z"/>
				</g>
				<g>
					<path fill="#FFFFFF" d="M265.111,74.191c0.037,0.284-0.138,0.551-0.385,0.587c-0.257,0.028-0.496-0.174-0.532-0.459
						c-0.037-0.294,0.138-0.56,0.385-0.587C264.836,73.696,265.074,73.898,265.111,74.191z"/>
				</g>
				<g>
					<path d="M265.377,65.52c1.578-0.046,3.138,2.01,3.294,2.23c-0.229-0.174-2.083-1.606-3.303-1.578
						c-1.303,0.028-6.708,3.441-6.708,3.441C258.944,67.52,263.698,65.556,265.377,65.52z"/>
				</g>
				<g>
					<path fill="#FFFFFF" d="M265.505,73.411c1.294,0.211,2.037,0.844,2.037,0.844c-0.211,0.578-1.349,1.386-2.101,1.872
						c-2.569,0.918-4.891-0.413-5.249-0.633c0.459-0.514,0.982-0.973,1.578-1.34c-0.009,0.138-0.009,0.284,0.009,0.422
						c0.147,1.074,1.147,1.826,2.23,1.679c1.092-0.147,1.854-1.138,1.707-2.212C265.689,73.815,265.616,73.604,265.505,73.411z"/>
				</g>
				<g>
					<path d="M264.725,74.779c0.248-0.037,0.422-0.303,0.385-0.587c-0.037-0.294-0.275-0.496-0.532-0.459
						c-0.248,0.028-0.422,0.294-0.385,0.587C264.23,74.604,264.469,74.806,264.725,74.779z M269.103,73.109
						c0,0-0.046,0.615-0.863,1.422c-0.826,0.798-2.248,1.753-3.478,2.019c0,0,0.284-0.165,0.679-0.422
						c0.752-0.486,1.89-1.294,2.101-1.872c0,0-0.743-0.633-2.037-0.844c0.11,0.193,0.184,0.404,0.211,0.633
						c0.147,1.074-0.615,2.065-1.707,2.212c-1.083,0.147-2.083-0.606-2.23-1.679c-0.018-0.138-0.018-0.284-0.009-0.422
						c-0.596,0.367-1.12,0.826-1.578,1.34c-0.165,0.184-0.33,0.376-0.477,0.569c0,0,1.074-2.716,3.836-3.239
						c1.698-0.321,2.991,0.009,3.827,0.321c0.083-0.055,0.156-0.101,0.239-0.165c0.211-0.165,0.413-0.358,0.596-0.56
						c0.009-0.009,0.028,0,0.018,0.018c-0.101,0.312-0.174,0.624-0.422,0.872c0,0,0,0.009-0.009,0.009
						c0.284,0.119,0.477,0.22,0.569,0.229C268.726,73.604,269.103,73.109,269.103,73.109z"/>
				</g>
				<g>
					<path d="M259.899,82.817c0.817,0.56,1.542,1.762,0.697,2.643c-0.018,0.018-0.046-0.009-0.037-0.037
						c0.284-0.982,0.009-1.844-0.707-2.569C259.825,82.836,259.871,82.799,259.899,82.817z"/>
				</g>
				<g>
					<path d="M259.238,85.001c0.284-0.312,1.046,0.22,1.046,0.22c-0.908,0.954-1.312,0.725-1.312,0.725
						S258.963,85.322,259.238,85.001z"/>
				</g>
				<g>
					<path d="M259.137,124.872c6.479,5.781,7.002,14.297,6.515,22.427c0,0.028-0.037,0.028-0.037,0
						c-0.083-7.8-1.12-16.316-6.561-22.354C259.009,124.9,259.082,124.827,259.137,124.872z"/>
				</g>
				<g>
					<path d="M258.742,75.311c1.101-3.34,4.919-4.551,8.066-3.404c0.028,0.009,0.018,0.055-0.009,0.046
						c-3.193-0.44-6.469,0.248-8.02,3.368C258.77,75.338,258.742,75.329,258.742,75.311z"/>
				</g>
				<g>
					<path d="M258.715,84.579c0.679-0.954,0.459-1.991,0.064-3.01c-0.009-0.018,0.018-0.037,0.037-0.018
						c0.569,0.881,1.184,2.441-0.055,3.083C258.733,84.652,258.697,84.616,258.715,84.579z"/>
				</g>
				<g>
					<path d="M256.843,302.848c3.331,4.854,4.717,10.525,2.624,16.169c-0.055,0.147-0.312,0.138-0.294-0.037
						c0.459-5.414,0.018-11.14-2.413-16.077C256.733,302.848,256.806,302.802,256.843,302.848z"/>
				</g>
				<g>
					<path d="M256.577,226.648c2.753,14.554,5.588,30.264,16.747,41.028c0.174,0.165-0.064,0.477-0.257,0.33
						c-12.902-9.626-15.187-26.355-16.527-41.349C256.54,226.629,256.577,226.629,256.577,226.648z"/>
				</g>
				<g>
					<path d="M257.907,281.761c0.028,0.083-0.083,0.128-0.128,0.083c-0.808-0.725-1.441-1.753-1.89-2.735
						c-0.037-0.092,0.073-0.193,0.147-0.11C256.788,279.779,257.522,280.742,257.907,281.761z"/>
				</g>
				<g>
					<path d="M257.559,85.084c0.367,0.385,0.385,1.074,0.092,1.422c-0.018,0.028-0.046,0.037-0.064,0.055c0,0.028,0,0.055,0,0.083
						c0.009,0.44,0.037,0.881,0.055,1.331c0,0.018-0.028,0.028-0.037,0c-0.101-0.367-0.248-0.863-0.294-1.331
						c-0.404,0.018-0.991-0.211-1.321-0.193c-0.44,0.028-0.908,0.514-1.358,0.239c-0.44-0.266-0.863-0.642-0.899-1.432
						c-0.037-0.789,0.395-1.165,0.835-2.386c0.431-1.22,0.541-1.734,0.211-3.322c-0.303-1.477-0.89-3.57-0.964-3.827
						c0.184,0.33,1.854,3.496,2.01,4.643c0.165,1.211-0.33,2.395-0.073,3.294C256.008,84.561,257.192,84.698,257.559,85.084z"/>
				</g>
				<g>
					<path d="M253.815,75.724c-0.009-0.018-0.009-0.028-0.009-0.028S253.815,75.706,253.815,75.724z"/>
				</g>
				<g>
					<path d="M260.165,93.398c-0.174-0.808-0.872-1.441-1.679-1.367c-0.395,0.184-0.734,0.385-1.019,0.771
						c-0.037,0.046-0.128,0.018-0.101-0.037c0.064-0.193,0.184-0.376,0.321-0.523c-0.881,0.156-2.634,0.119-3.23,0.101
						c0.661,0.45,1.331,0.89,1.982,1.358l0.642,0.44c0.229,0.156,0.413,0.284,0.587,0.34c0.385,0.128,0.863,0.156,1.331,0.101
						c0.229-0.037,0.468-0.073,0.707-0.128c0.22-0.055,0.523-0.138,0.652-0.202c0.33-0.147,0.652-0.523,0.908-0.945
						c0.257-0.431,0.514-0.89,0.808-1.358c0.092-0.138,0.193-0.275,0.294-0.413c-0.486,0.202-1.468,0.587-1.927,0.551
						c-0.367-0.028-0.606-0.055-0.78-0.083c0.404,0.34,0.569,0.872,0.578,1.386C260.238,93.434,260.174,93.443,260.165,93.398z
						 M257.302,92.003c1.101-0.22,1.624-1.046,1.624-1.046s0.771,0.771,1.569,0.798c0.633,0.018,1.881-0.468,2.377-0.679
						c0.028-0.009,0.037-0.037,0.064-0.046c0.009-0.009,0.028-0.009,0.046-0.018c-0.119-0.009-0.229-0.028-0.34-0.055
						c-0.229-0.055-0.459-0.147-0.679-0.266c-0.211-0.119-0.404-0.275-0.587-0.431c-0.165-0.147-0.34-0.284-0.505-0.404
						c-0.34-0.257-0.716-0.459-1.028-0.486c-0.303-0.028-0.532,0.128-0.771,0.422l-0.275,0.33l-0.33-0.257
						c-0.321-0.257-0.762-0.486-1.165-0.44c-0.422,0.018-0.771,0.395-1.092,0.826c-0.33,0.431-0.624,0.89-1.009,1.294
						c-0.211,0.22-0.459,0.413-0.743,0.56C255.173,92.131,256.522,92.159,257.302,92.003z M258.651,89.002
						c0.119-0.11,0.239-0.211,0.395-0.284c0.275-0.147,0.606-0.193,0.899-0.147c0.596,0.101,1.009,0.44,1.367,0.762
						c0.165,0.174,0.33,0.349,0.477,0.532c0.138,0.165,0.275,0.312,0.431,0.45c0.156,0.147,0.33,0.275,0.523,0.367
						c0.101,0.055,0.193,0.101,0.303,0.138l0.156,0.055l0.073,0.018l0.046,0.009h0.018l0.009,0.009
						c0.018-0.009,0.055,0.018,0.055,0.037c-0.028,0.018-0.037,0.028-0.055,0.055h-0.009l-0.009,0.009
						c-0.477,0.303-0.606,0.707-0.808,1.165c-0.193,0.477-0.34,0.991-0.587,1.496c-0.239,0.486-0.523,1.046-1.138,1.413
						c-0.34,0.174-0.551,0.22-0.844,0.321c-0.266,0.073-0.551,0.138-0.844,0.165c-0.569,0.073-1.193,0.055-1.799-0.193
						c-0.321-0.138-0.551-0.34-0.762-0.486l-0.633-0.496c-0.826-0.661-1.624-1.367-2.404-2.083l-0.505-0.459h0.642
						c0.477,0.009,0.964-0.174,1.34-0.532c0.376-0.349,0.661-0.789,0.936-1.257c0.147-0.229,0.275-0.477,0.45-0.707
						c0.184-0.239,0.477-0.459,0.789-0.541C257.687,88.672,258.201,88.773,258.651,89.002z"/>
				</g>
				<g>
					<path fill="#FFFFFF" d="M246.208,77.082c-0.055-0.294,0.11-0.56,0.367-0.606c0.248-0.046,0.496,0.156,0.551,0.44
						c0.046,0.284-0.119,0.56-0.367,0.606C246.501,77.559,246.253,77.366,246.208,77.082z"/>
				</g>
				<g>
					<path fill="#FFFFFF" d="M243.913,77.88c0,0,0.514-0.826,1.679-1.422c-0.037,0.22-0.046,0.44-0.009,0.67
						c0.193,1.064,1.22,1.771,2.294,1.588c1.083-0.193,1.808-1.211,1.624-2.276c-0.028-0.147-0.073-0.275-0.119-0.404
						c0.679,0.165,1.312,0.44,1.909,0.789c-0.275,0.321-2.074,2.294-4.808,2.202C245.62,78.789,244.29,78.367,243.913,77.88z"/>
				</g>
				<g>
					<path d="M243.895,75.421c2.652-2.056,6.662-2.056,8.718,0.789c0.009,0.018-0.009,0.037-0.028,0.018
						c-2.423-2.505-5.754-2.156-8.662-0.771C243.895,75.476,243.877,75.439,243.895,75.421z"/>
				</g>
				<g>
					<path d="M246.208,77.082c0.046,0.284,0.294,0.477,0.551,0.44c0.248-0.046,0.413-0.321,0.367-0.606
						c-0.055-0.284-0.303-0.486-0.551-0.44C246.318,76.522,246.152,76.788,246.208,77.082z M242.721,76.339
						c0.229,0.128,0.486,0.257,0.734,0.349c0.092,0.037,0.184,0.055,0.275,0.083c0.697-0.551,1.835-1.257,3.551-1.468
						c2.624-0.321,4.423,1.661,4.625,1.9c-0.202-0.128-0.413-0.248-0.615-0.376c-0.596-0.349-1.23-0.624-1.909-0.789
						c0.046,0.128,0.092,0.257,0.119,0.404c0.184,1.064-0.541,2.083-1.624,2.276c-1.074,0.184-2.101-0.523-2.294-1.588
						c-0.037-0.229-0.028-0.45,0.009-0.67c-1.165,0.596-1.679,1.422-1.679,1.422c0.376,0.486,1.707,0.908,2.569,1.147
						c0.45,0.119,0.771,0.193,0.771,0.193c-1.248,0.119-2.9-0.358-3.918-0.872c-1.028-0.514-1.266-1.083-1.266-1.083
						s0.514,0.349,0.844,0.193c0.083-0.037,0.239-0.193,0.468-0.395c0,0-0.009,0-0.018,0c-0.303-0.165-0.468-0.44-0.661-0.707
						C242.693,76.339,242.702,76.33,242.721,76.339z"/>
				</g>
				<g>
					<path d="M253.851,275.181c-7.919-10.938-13.278-23.574-17.279-36.403c-0.018-0.055,0.064-0.073,0.083-0.028
						c4.827,12.581,11.122,24.418,17.362,36.338C254.072,275.191,253.925,275.273,253.851,275.181z"/>
				</g>
				<g>
					<path d="M238.701,81.331c0.046,0.018,0.046,0.092-0.009,0.092c-0.973-0.046-1.422-0.505-1.743-1.404
						c-0.037-0.092-0.064-0.184-0.101-0.275c-0.826,0.762-0.477,1.89-0.073,2.845c0.018,0.046-0.046,0.092-0.073,0.046
						c-0.606-0.927-1.257-2.643-0.046-3.368c-0.211-0.44-0.505-0.826-1.037-0.908c-1.597-0.275-0.982,1.707-0.78,2.395
						c0.018,0.055-0.055,0.073-0.083,0.037c-0.743-1.009-1.184-3.193,0.67-3.138c0.725,0.018,1.321,0.395,1.716,0.991
						C237.774,79.615,237.444,80.826,238.701,81.331z"/>
				</g>
				<g>
					<path d="M213.53,308.088c2.358-4.019,4.487-7.882,6.029-12.315c0.018-0.073,0.147-0.064,0.147,0.018
						c-0.294,4.652-2.377,9.433-6.02,12.425C213.604,308.29,213.466,308.198,213.53,308.088z"/>
				</g>
				<g>
					<path d="M232.737,277.494c0.046,0.046-0.009,0.128-0.064,0.092c-2.294-1.367-4.891-2.294-7.58-1.707
						c-1.863,0.404-3.432,1.588-5.267,2.019c-3.01,0.716-5.699-1.349-6.983-3.937c-0.037-0.083,0.073-0.147,0.128-0.073
						c1.744,2.395,4.304,3.551,7.213,2.661c1.615-0.505,3.001-1.376,4.717-1.606C227.763,274.567,230.736,275.374,232.737,277.494z"
						/>
				</g>
				<g>
					<path d="M203.675,421.902c0.037,0.092-0.092,0.156-0.156,0.092c-0.78-0.853-1.615-1.679-2.377-2.56
						c-0.037-0.046,0-0.147,0.073-0.119C202.344,419.773,203.235,420.792,203.675,421.902z"/>
				</g>
				<g>
					<path d="M204.161,394.557c-0.174,2.459,1.202,4.808,0.514,7.295c-0.578,2.092-2.074,3.193-3.927,4.093
						c-0.073,0.037-0.184-0.046-0.128-0.128c1.34-1.909,3.028-3.689,2.982-6.148c-0.037-1.872-0.358-3.386,0.395-5.157
						C204.033,394.428,204.161,394.474,204.161,394.557z"/>
				</g>
				<g>
					<path d="M205.217,246.01c-1.817,2.468-3.671,4.836-5.295,7.433c-1.734,2.753-2.762,5.799-4.019,8.782
						c-0.092,0.22-0.45,0.22-0.45-0.064c0.092-7.057,4.451-11.911,9.709-16.196C205.189,245.945,205.244,245.973,205.217,246.01z"/>
				</g>
				<g>
					<path d="M199.518,417.452c0.046,0.064-0.055,0.138-0.11,0.083c-3.459-3.258-7.58-5.148-12.306-5.625
						c-0.028-0.009-0.028-0.046,0-0.055C191.938,411.377,196.692,413.524,199.518,417.452z"/>
				</g>
				<g>
					<path d="M215.421,221.362c-2.762,7.46-9.002,13.838-14.223,19.647c-5.029,5.598-11.626,9.259-19.316,7.24
						c-0.101-0.028-0.073-0.184,0.028-0.184c3.845,0.055,7.598-0.642,11.039-2.423c3.258-1.67,5.708-4.276,8.13-6.956
						c2.45-2.707,4.919-5.387,7.222-8.222c2.441-2.992,4.561-6.203,6.827-9.314L215.421,221.362z"/>
				</g>
				<g>
					<path d="M210.521,426.399c2.156-0.872,3.68-3.303,4.028-3.9c-0.486-0.927-0.881-2.248-1.395-4.01
						c-0.404-1.367-0.89-3.01-1.542-4.891c-1.276,1.12-5.304,4.551-7.928,5.387c0.018,0.018,0.028,0.028,0.046,0.046
						c0.872,0.395,1.532,0.505,2.514,0.257c0.945-0.239,1.753-0.688,2.523-1.276c0.037-0.028,0.092,0.028,0.064,0.064
						c-0.743,1.046-1.872,1.744-3.147,1.909c-0.303,0.046-0.679,0.064-1.037,0.009c0.642,0.679,1.248,1.312,1.78,1.844
						c0.918,0.918,1.505,1.707,2.019,2.404C209.08,425.096,209.594,425.793,210.521,426.399z M219.229,256.039
						c0.413-0.229,0.872-0.33,1.285-0.56c-1.055-1.129-2.689-1.156-4.157-1.312c-0.202,0.45-0.44,0.817-0.697,1.12
						c1.019-0.165,2.175,0.037,3.019,0.44C218.844,255.81,219.036,255.92,219.229,256.039z M219.706,426.491
						c0.275-0.477,0.239-0.954-0.11-1.303c-0.34-0.34-0.688-0.523-1.046-0.633c0.358,0.431-0.395,1.239-0.743,1.441
						c-0.569,0.33-1.578,0.34-1.9-0.33c-0.018-0.055,0.009-0.128,0.073-0.128c0.56,0.046,1.074,0.248,1.606-0.046
						c0.275-0.156,0.459-0.376,0.615-0.642c0.073-0.138,0.11-0.248,0.239-0.321c-0.303-0.092-0.615-0.128-0.936-0.174
						c-0.78-0.092-1.588-0.193-2.312-0.927c-0.064-0.064-0.128-0.147-0.184-0.22c-0.551,0.872-1.844,2.689-3.671,3.643
						c0.624,0.303,1.404,0.578,2.423,0.844C217.118,428.574,219.156,427.454,219.706,426.491z M219.642,261.38
						c0.606-2.432-2.799-3.368-4.863-4.34c0.67,0.798,1.633,1.9,2.441,2.707c0.349,0.349,0.587,0.743,0.752,1.147
						C218.541,260.83,219.119,261.086,219.642,261.38z M219.367,258.6c0.376-0.229,0.771-0.083,0.808-0.578
						c0.046-0.532-0.881-1.211-1.303-1.468c-1.312-0.817-2.643-0.33-3.973-0.56c-0.073,0.055-0.147,0.11-0.22,0.156
						c0.771,0.312,1.514,0.716,2.248,1.101c0.743,0.395,1.588,0.725,2.248,1.248c0.055,0.046,0.101,0.092,0.147,0.138
						C219.339,258.627,219.348,258.618,219.367,258.6z M221.89,428.151c-0.073-0.606-0.395-2.248-1.468-2.964
						c0.229,0.505,0.202,1.092-0.119,1.643c-0.578,1.019-2.074,1.872-4.23,1.872c-0.752,0-1.578-0.11-2.487-0.34
						c-3.652-0.954-4.506-2.111-5.689-3.716c-0.505-0.67-1.074-1.441-1.955-2.322c-0.606-0.606-1.294-1.331-2.046-2.12
						c-2.826-2.973-6.699-7.057-9.975-8.607c-1.037-0.496-1.936-0.808-2.725-1.083c-0.532-0.193-1-0.358-1.413-0.541
						c-2.083-0.33-3.175,0.184-3.193,0.193c0.009,0.009-0.881,0.789-0.881,2.23c0,1.477,1.45,15.581,1.679,17.857h1.441
						c-0.073-1.688-0.257-8.525,1.487-10.268c0.973-0.973,2.358-1.22,4.019-0.707c1.441,0.45,3.01,1.468,4.405,2.863
						c2.386,2.386,2.973,6.368,3.083,7.47c1.67,0.22,10.58,1.376,13.847,0.652C218.697,429.583,221.174,428.491,221.89,428.151z
						 M272.911,81.633c0.551,0,1-0.45,1-1s-0.45-1.009-1-1.009c-0.551,0-1,0.459-1,1.009S272.36,81.633,272.911,81.633z
						 M273.305,78.991c0.606-2.285,1.028-6.864-0.055-8.038c-0.294-0.312-0.596-0.45-0.936-0.44c-0.578,0.009-1.156,0.477-1.45,0.78
						c0.083,0.56,0.165,1.12,0.257,1.688c0.266-0.239,0.615-0.367,0.982-0.275c0.964,0.248,1.257,1.643,0.908,2.459
						c-0.009,0.018-0.028,0.009-0.028-0.009c-0.073-0.652-0.147-1.716-0.954-1.918c-0.404-0.092-0.624,0.229-0.78,0.596
						c0.009,0.119,0.028,0.229,0.046,0.34c0.028,0.156,0.046,0.33,0.064,0.486c0.284-0.009,0.596,0.147,0.771,0.34
						c0.624,0.734,0.009,1.744,0.413,2.551c0.037,0.064-0.055,0.11-0.101,0.055c-0.294-0.431-0.284-0.89-0.303-1.404
						c-0.028-0.523-0.128-1.019-0.725-1.083c0.165,1.34,0.275,2.799,0.33,4.295c0.303-0.294,0.716-0.477,1.165-0.477
						C273.048,78.936,273.177,78.963,273.305,78.991z M247.575,69.135c0.404-1.551,0.385-3.184,0.367-4.854
						c-0.009-1.496,0.046-3.661,0.927-5.047c-1.046,0.743-2.111,2.368-2.239,5.91c-0.055,1.404-0.294,2.716-0.661,3.918
						C246.501,69.053,247.043,69.08,247.575,69.135z M323.885,446.284c-0.496-0.835-1.542-1.615-3.184-1.615
						c-0.11,0-0.22-0.018-0.33-0.028c0.193,0.468,0.44,1.138,0.652,1.918c0.725-0.44,1.661-0.734,2.468-0.459
						C323.629,446.146,323.766,446.211,323.885,446.284z M321.078,446.798c0.349,1.413,0.505,3.138-0.11,4.634
						c1.083-0.725,1.973-1.468,2.579-2.065c0.505-0.505,0.743-1.175,0.716-1.854c-0.349-0.496-0.808-0.853-1.432-0.936
						C322.215,446.486,321.656,446.66,321.078,446.798z M256.522,63.712c2.285,0.541,4.432-0.147,6.69-0.385
						c1.358-0.147,2.836,0.037,4.175,0.532c-0.211-0.119-0.431-0.229-0.67-0.321c-3.193-1.156-6.772-0.22-10.021-1.101
						c-2.624-0.707-4.717-2.753-5.423-3.515C252.035,61.335,253.916,63.088,256.522,63.712z M242.519,74.659
						c1.56-0.615,2.927-1.606,3.955-3.074c0.349-0.496,0.596-1.009,0.808-1.542c-0.532-0.064-1.074-0.119-1.588-0.165
						C244.932,71.925,243.785,73.558,242.519,74.659z M241.179,305.913c0.147-0.652,2-9.314-2.872-14.93
						c-4.597-5.304-17.197-6.332-19.463-6.479c-0.275,5.368-1.386,15.453-5.772,21.711c-4.808,6.864-13.049,20.72-14.251,36.384
						c-0.45,5.809-0.422,12.223-0.395,18.426c0.037,9.305,0.073,18.087-1.376,24.785c-1.386,6.414-4.01,10.507-6.121,13.792
						c-1.532,2.377-2.735,4.258-2.735,6.066c0,1.661,0.284,2.514,0.899,3.074c2.019,0.688,3.955,1.294,6.047,1.707
						c1.395,0.275,2.808,0.578,3.597,1.854c0.055,0.092-0.055,0.193-0.147,0.138c-1.468-0.835-3.074-1.202-4.671-1.597
						c0.101,0.046,0.193,0.083,0.294,0.128c2.918,1.386,6.111,4.506,8.874,7.378c2.524-0.514,7.341-4.726,8.25-5.533
						c-0.064-0.174-0.119-0.349-0.193-0.532c-2.156-5.818-3.762-14.049-3.762-17.518c0-3.203,18.417-63.372,20.739-67.767
						c1.367-2.579,4.01-6.662,6.809-10.984c1.312-2.028,2.68-4.129,4.001-6.222C239.665,308.629,240.426,307.299,241.179,305.913z
						 M237.885,172.553c0.037-0.165,3.138-15.444,3.138-24.391c0-9.92,2.909-14.93,5.377-17.398
						c-0.138,0.229-1.248,2.12-2.349,5.084c0.028,1.67,0.147,4.919,0.56,7.552c0.486,3.129,2.202,8.424,2.735,10.011
						c2.386,2.652,4.974,6.056,6.598,9.8c7.837-3.973,11.168-14.278,8.286-25.813c-2.9-11.599-16.15-25.868-17.38-27.171
						c-0.661-0.018-1.413-0.11-2.257-0.202c-4.102-0.468-9.727-1.101-14.801,3.973c-6.451,6.451-5.166,30.823-4.542,42.532
						c0.128,2.505,0.239,4.487,0.239,5.671c0,4.891-1.45,14.205-2.854,23.207c-0.569,3.68-1.11,7.158-1.551,10.323
						c-1.523,10.874-3.726,33.017-3.744,33.237l-0.046,0.128c-0.073,0.138-7.442,13.838-7.442,17.453
						c0,3.753,1.762,11.085,2.322,11.654c0.312,0.312,2.505,1.771,4.79,3.258c-0.064-0.34,0.294-0.734,0.615-0.78
						c0.477-0.055,0.853,0.349,1.019,0.743c0,0.009-0.009,0.018-0.018,0.009c-0.312-0.22-0.688-0.624-1.064-0.358
						c-0.193,0.128-0.211,0.358-0.385,0.496c0.844,0.541,1.698,1.092,2.468,1.587c0.064-0.716,0.037-2.028-0.863-2.927
						c-1.257-1.257-2.863-3.193-3.239-3.671c-1.606-0.248-0.945-4.065-1.11-4.928c-0.275-1.422-1.477-2.349-1.688-3.744
						c-0.239-1.615,0.45-3.533,1.037-4.992c0.028-0.064,0.11-0.055,0.119,0.018c0.128,1.312-0.046,2.514-0.11,3.817
						c-0.092,1.945,0.45,2.156,1.11,3.57c0.284,0.624,0.358,1.34,0.376,2.065c0.193-0.083,0.413-0.119,0.596-0.092
						c0.468,0.055,0.853,0.44,0.982,0.881c0.009,0.018-0.018,0.028-0.028,0.018c-0.266-0.349-0.624-0.496-1.055-0.422
						c-0.174,0.028-0.33,0.101-0.477,0.193c0.009,1.046,0.018,2.083,0.541,2.891c0.505-0.193,1.881-0.918,2.303-3.074
						c0.275-1.459,0.11-2.634-0.028-3.68c-0.138-0.954-0.248-1.789,0.037-2.542c0.248-0.642,0.78-1.028,1.395-1.468
						c0.936-0.67,2.221-1.597,3.414-4.065c1.9-3.964,0.652-8.13,0.642-8.176l-0.037-0.11l0.037-0.101
						c0.083-0.248,8.617-24.253,11.718-37.458C236.37,181.949,237.875,172.645,237.885,172.553z M281.628,109.676
						c0.064-3.414-1.936-6.341-4.854-7.956c-0.707-0.385-1.459-0.734-2.202-1.11c2.661,1.588,5.79,3.34,5.965,7.525
						c0.275,6.781-4.772,8.571-6.414,8.974c0.174,0.119,0.34,0.239,0.514,0.358C278.646,118.054,281.555,113.246,281.628,109.676z
						 M239.885,84.928c0,0.422-0.156,0.798-0.404,1.092c0.312,0.89,2.221,6.056,4.524,8.562c2.523,2.744,10.305,6.717,14.058,6.717
						c0.028,0,0.055,0,0.092-0.009c3.551-0.064,5.992-2.01,8.571-4.909c2.276-2.569,3.744-6.121,4.129-9.993
						c0.385-3.909,0.294-8.552-0.239-12.104c-0.431-2.881-0.844-5.643-1.184-7.993c-0.101-0.239-0.229-0.468-0.367-0.697
						c-1.927-1.34-3.854-2-6.579-1.597c-1.964,0.294-3.753,0.688-5.744,0.248c-2.872-0.633-5.405-2.725-5.864-5.625
						c-0.193-0.009-0.606,0-1.101,0.156c-1.945,1.799-1.248,5.561-1.34,8.011c-0.028,0.826-0.128,1.633-0.33,2.413
						c1.34,0.193,2.514,0.624,2.936,1.395c0,0-1.505-0.257-3.23-0.477c-0.156,0.404-0.33,0.808-0.56,1.193
						c-1.23,2.074-3.368,3.615-5.726,4.102c-1.156,0.725-2.358,1.009-3.395,0.743c-1.34-0.33-1.964-0.56-2.34-0.707
						c-0.303-0.064-0.652-0.119-1-0.119c-0.303,0-0.596,0.055-0.872,0.147c-0.055,0.028-0.119,0.037-0.174,0.055
						c0,0.009-0.009,0.009-0.009,0.009c-0.312,0.165-0.541,0.413-0.707,0.743c-0.009,0.028-0.028,0.055-0.037,0.083
						c-0.028,0.055-0.046,0.128-0.064,0.193c-0.652,2.257,1.615,6.69,2.946,7.782c0.202,0.165,0.422,0.303,0.642,0.431
						c0.083-0.863,0.798-1.542,1.679-1.542C239.133,83.23,239.885,83.992,239.885,84.928z M241.702,148.887
						c-0.156,9.085-3.111,23.638-3.138,23.794c-0.009,0.064-1.101,6.818-3.34,16.976c1.395-0.918,4.68-2.936,8.497-4.432
						c4.808-1.881,12.645-6.598,11.012-17.022C253.328,159.174,244.069,150.878,241.702,148.887z M238.197,85.928
						c0.551,0,1-0.45,1-1s-0.45-1.009-1-1.009c-0.551,0-1,0.459-1,1.009S237.646,85.928,238.197,85.928z M291.071,137.426
						c0-5.68-2.267-9.305-3.469-10.819c-0.34-0.303-0.679-0.606-1.037-0.899c-3.707-1.514-18.417-11.608-21.161-14.352
						c-1.909-1.909-2.413-6.231-2.533-8.938c-0.826,0.707-2.514,1.597-5.543,1.009c-3.092-0.596-5.845-2.679-7.46-4.065
						c-0.881-0.45-1.725-0.918-2.523-1.404c0.505,2.202,1.881,8.947,0.303,11.305c2.707,1.725,22.005,14.177,29.805,21.977
						c5.185,5.185,6.772,12.012,7.24,16.554c0.138-0.835,0.266-1.679,0.33-2.514c0.193-2.496-0.009-5.001-0.844-7.378
						c-1.615-4.579-5.175-8.387-8.47-11.847c-0.037-0.037,0.018-0.092,0.064-0.055c3.726,3.359,7.589,6.781,9.332,11.654
						c1.468,4.074,1.312,9.498-0.239,13.746c0,0.083,0,0.184-0.009,0.266C286.556,149.649,291.071,143.712,291.071,137.426z
						 M313.911,440.163c-0.551,2.12-2.294,7.818-5.469,9.608c0.009,0.064-0.028,0.11-0.083,0.128
						c0.037,0.073,0.073,0.138,0.11,0.202c0.872,0.459,2.065-0.697,2.643-1.321c0.762-0.808,1.542-1.606,2.358-2.358
						c0.018-0.018,0.055,0.009,0.037,0.037c-0.615,0.991-1.276,1.964-1.973,2.9c-0.413,0.56-0.826,1.11-1.477,1.404
						c-0.367,0.174-0.752,0.22-1.101,0.165c1.138,1.872,2.358,3.184,4.038,3.184c1.936,0,3.79-0.532,5.432-1.276
						c2.019-2.248,2.056-5.809,0.707-8.451C316.856,443.586,314.838,441.32,313.911,440.163z M276.765,298.673
						c1.349-5.79,1.312-14.104,1.285-15.912c-0.376,0.018-0.762,0.037-1.175,0.037c-3.79,0-6.231-0.615-8.011-1.055
						c-2.56-0.642-3.726-0.936-5.946,1.285c-3.166,3.166-3.349,3.349-5.708,2.092c-0.523-0.284-1.184-0.642-2.056-1.028
						c-2.092-0.945-3.074-0.486-4.698,0.284c-1.064,0.505-2.423,1.129-4.451,1.468c1.257,2.909,8.534,20.06,8.534,27.437
						c0,2.588-0.367,5.102-0.789,8.011c-0.872,6.029-1.955,13.526-0.312,25.859c2.065,15.609,9.039,24.84,17.857,36.513
						c1.468,1.936,2.982,3.946,4.542,6.056c10.957,14.902,10.424,27.41,10.415,27.529l-0.018,0.092
						c-3.001,9.424-3.404,12.627-0.303,15.728c1.376,1.376,3.964,2.12,6.708,2.918c3.45,0.991,7.369,2.129,10.03,4.79
						c0.551,0.551,1.055,1.156,1.523,1.799c1.734,1.826,3.12,4.01,3.964,6.304c3.368-2.083,5.038-9.644,5.047-9.718l0.073,0.009
						c-0.303-1.184-2.358-8.938-4.57-14.765c-1.367-3.615-2.716-5.423-4.157-7.332c-1.064-1.432-2.175-2.909-3.313-5.194
						c-2.634-5.258-23.583-89.635-24.473-93.232l-0.028-0.119l0.055-0.11c2.991-6.203,0-19.463-0.028-19.592l-0.018-0.083
						L276.765,298.673z M318.288,453.643c-1.615,0.679-3.423,1.156-5.295,1.156c-2.918,0-4.496-3.065-6.313-6.607
						c-1-1.945-2.12-4.102-3.57-5.882c-1.698-1.688-3.735-2.725-6.075-3.414c-4.129-1.23-8.91-1.22-12.654-3.515
						c-0.028-0.018-0.009-0.055,0.018-0.046c3.524,0.762,7.415,1.211,11.002,2.212c-0.991-0.33-1.991-0.624-2.955-0.899
						c-2.826-0.817-5.497-1.587-7.002-3.092c-0.486-0.486-0.89-0.973-1.22-1.477c-0.349,0.404-0.89,1.248-0.89,2.496
						c0,1.808,1.78,19.096,2.037,21.629h1.881c-0.083-1.89-0.34-10.305,1.771-12.416c2.56-2.56,7.011-0.45,10.066,2.606
						c2.909,2.909,3.579,7.791,3.707,9.02c1.863,0.257,12.792,1.679,16.784,0.798c3.891-0.863,7.58-3.964,8.305-4.597
						c-0.092-0.743-0.606-3.771-2.863-4.111C325.812,451.01,321.032,452.983,318.288,453.643z M313.975,439.108
						c0.367,0.514,3.606,4.873,6.726,4.873c2.221,0,3.524,1.239,4.001,2.395c0.055,0.147,0.101,0.284,0.138,0.431
						c2.689,0.165,3.634,3.258,3.753,4.928l0.009,0.165l-0.119,0.11c-0.174,0.156-4.249,3.872-8.754,4.873
						c-0.982,0.22-2.349,0.303-3.891,0.303c-5.442,0-13.003-1.064-13.407-1.129l-0.275-0.037l-0.018-0.275
						c0-0.055-0.44-5.772-3.533-8.864c-2.817-2.817-6.864-4.836-9.094-2.606c-1.753,1.753-1.716,9.442-1.551,12.25l0.018,0.367
						h-3.23l-0.028-0.312c-0.083-0.817-2.074-20.023-2.074-22.005c0-1.652,0.826-2.707,1.211-3.12
						c-1.487-2.872-0.743-6.561,1.707-14.278c0.028-0.798,0.202-12.783-10.287-27.043c-1.551-2.12-3.065-4.12-4.524-6.056
						c-8.892-11.755-15.912-21.041-18.004-36.834c-1.643-12.434-0.551-19.977,0.321-26.052c0.422-2.881,0.78-5.377,0.78-7.91
						c0-4.726-3.175-13.838-5.68-20.289c-0.248,0.596-0.596,1.34-1.009,2.175c-1.716,3.854-4.827,10.534-7.653,14.994
						c-1.321,2.092-2.689,4.203-4.001,6.231c-2.79,4.304-5.423,8.378-6.781,10.929c-2.12,4.01-20.656,64.528-20.656,67.446
						c0,3.414,1.588,11.526,3.716,17.279c0.918,2.468,1.532,4.561,2.028,6.249c0.688,2.367,1.147,3.927,1.863,4.643
						c0.56,0.56,1.193,0.642,1.918,0.734c0.56,0.073,1.175,0.156,1.78,0.496c2.34,0.073,3.138,2.744,3.23,4.166l0.009,0.229
						l-0.202,0.101c-0.119,0.055-2.909,1.441-6.598,2.267c-0.826,0.184-1.964,0.257-3.248,0.257c-4.506,0-10.773-0.89-11.103-0.936
						l-0.275-0.046l-0.028-0.275c0-0.046-0.358-4.763-2.909-7.304c-1.321-1.321-2.79-2.276-4.129-2.689
						c-0.973-0.303-2.331-0.459-3.322,0.532c-1.432,1.441-1.395,7.782-1.266,10.103l0.028,0.367h-2.79l-0.037-0.312
						c-0.073-0.679-1.716-16.591-1.716-18.233c0-1.78,1.147-2.762,1.193-2.799c0.092-0.055,0.872-0.44,2.322-0.431
						c-0.67-0.661-1.028-1.661-1.028-3.496c0-2.01,1.257-3.964,2.845-6.442c2.083-3.239,4.671-7.268,6.029-13.563
						c1.432-6.625,1.395-15.37,1.358-24.639c-0.028-6.212-0.055-12.645,0.395-18.472c1.22-15.829,9.525-29.814,14.379-36.733
						c5.543-7.919,5.735-22.188,5.726-24.574c-4.038,0.11-5.699-2.542-7.543-5.487c-0.973-1.56-1.982-3.175-3.432-4.625
						c-2.716-2.716-3.872-2.432-5.634-2.01c-1.578,0.385-3.533,0.853-7.148-0.56c-4.744-1.854-4.928-4.056-5.111-6.185
						c-0.11-1.422-0.229-2.762-1.597-4.129c-1.578-1.578-3.129-1.633-4.928-1.698c-2.129-0.073-4.533-0.165-7.295-2.927
						c-5.029-5.029-4.102-10.323-4.056-10.553l0.083-0.468l0.422,0.239c7.222,4.083,13.205-0.083,26.052-9.883
						c12.14-9.268,18.821-26.575,19.087-27.272c0.431-3.716,0.872-7.259,1.257-10.057c0.45-3.166,0.991-6.644,1.56-10.323
						c1.395-8.984,2.845-18.261,2.845-23.106c0-1.165-0.11-3.138-0.239-5.634c-0.486-9.241-1.395-26.299,1.432-36.485
						c-0.918-1.312-6.295-9.543-2.863-17.619c0.22-0.514,0.44-0.991,0.67-1.441c-0.101,0.174-0.202,0.34-0.294,0.514
						c-3.01,5.653-2.496,12.131,0.395,17.72c0.018,0.028-0.028,0.055-0.055,0.028c-3.496-4.9-4.056-11.287-1.698-16.811
						c0.551-1.312,1.257-2.459,2.046-3.496c-3.891,3.817-5.643,9.709-4.423,15.04c0.018,0.092-0.119,0.128-0.147,0.037
						c-1.432-4.799-0.505-9.819,2.478-13.856c1.404-1.9,3.221-3.478,5.322-4.561c0.037-0.018,0.064-0.028,0.092-0.046
						c1.211-0.973,2.514-1.835,3.891-2.652c1.055-1,1.881-2.193,2.294-4.129c1.321-6.167-2.863-14.095-3.303-24.446
						s7.488-14.976,14.095-13.654c0,0,5.451-4.689,14.095-7.323c7.598-2.312,25.905,1.606,15.701,26.382
						c0.587-0.009,1.074,0.211,1.505,0.679c1.413,1.523,0.817,6.579,0.193,8.883c0.376,0.312,0.615,0.78,0.615,1.303
						c0,0.936-0.752,1.688-1.688,1.688c-0.44,0-0.835-0.165-1.138-0.44c0,0.101,0,0.211,0,0.321h0.009c0,0,1.624,6.203-0.624,12.434
						c0.037,1.349,0.349,2.56,1.193,3.588c1.175,1.101,2.964,1.588,4.414,2.156c2.202,0.872,4.111,2.257,5.387,4.276
						c0,0.009-0.009,0.018-0.018,0.009c-1.615-1.707-3.285-2.991-5.487-3.836c-0.312-0.119-0.624-0.229-0.936-0.33
						c0.652,0.312,1.303,0.624,1.918,1.009c2.413,1.468,4.111,3.909,4.515,6.726c0.541,3.707-2.478,10.434-6.891,9.663
						c5.075,3.487,10.507,6.937,11.938,7.295c0.624,0.083,9.883,1.422,11.828,11.177c1.863,9.296-3.221,15.82-3.955,16.71
						c-0.037,11.645-4.9,25.143-8.461,35.008c-1.266,3.505-2.377,6.607-3.129,9.14c-0.037,0.431-0.156,0.853-0.349,1.257
						c-0.385,1.487-0.615,2.735-0.615,3.689c0,6.91,11.7,30.08,20.234,32.714c8.259,2.533,11.847-0.872,11.883-0.908l0.22-0.22
						l0.239,0.193c0.174,0.138,4.295,3.496,4.524,7.837c0.119,2.12-0.734,4.102-2.514,5.891c-3.533,3.533-4.203,5.689-4.139,6.873
						c0.046,0.844,0.459,1.184,0.477,1.202l0.119,0.101l0.009,0.156c0,0.092,0.239,9.195-8.139,12.884
						c-4.056,1.78-6.497,1.652-8.47,1.542c-2.065-0.11-3.423-0.184-5.625,2.019c-1.211,1.211-2.129,2.533-3.019,3.808
						c-2.12,3.028-4.139,5.91-9.571,6.433c0.028,1.725,0.073,10.149-1.285,16.049c0.266,1.211,2.936,13.581,0.009,19.858
						c0.918,3.698,21.84,87.864,24.391,92.975c1.12,2.23,2.202,3.68,3.248,5.084c1.468,1.955,2.845,3.799,4.249,7.497
						C311.644,430.207,313.773,438.319,313.975,439.108z M318.921,241.825c-0.184-3.487-3.212-6.396-4.047-7.148
						c-0.964,0.771-4.772,3.193-12.333,0.863c-8.974-2.762-20.72-26.134-20.72-33.365c0-0.642,0.092-1.404,0.266-2.267
						c-0.752,0.734-1.734,1.239-2.698,1.321c-0.037,0-0.055-0.064-0.018-0.083c0.954-0.413,1.835-0.927,2.542-1.716
						c0.156-0.184,0.294-0.385,0.422-0.587c0.147-0.578,0.303-1.184,0.496-1.826c-2.588,1.376-5.524,1.615-8.259,0.34
						c-0.046-0.018-0.009-0.073,0.028-0.073c2.9,0.514,5.818,0.248,8.47-1.074c0.743-2.395,1.753-5.212,2.891-8.35
						c3.671-10.186,8.204-22.794,8.396-34.164c-0.743,0.716-1.56,1.376-2.358,2.01c-0.028,0.018-0.073,0-0.046-0.037
						c0.927-1.22,2.01-2.312,2.955-3.515c0.101-0.128,0.193-0.266,0.284-0.395c0.009-0.009,0.009-0.009,0.009-0.018
						c0.312-0.45,0.569-0.908,0.853-1.349c1.56-2.725,3.533-7.653,2.294-13.884c-1.542-7.69-7.837-9.883-10.287-10.452
						c0.055,0.073,0.119,0.147,0.174,0.229c4.322,2.423,6.267,8.259,5.432,12.92c-0.009,0.055-0.101,0.046-0.092-0.009
						c0.202-4.157-1.294-7.442-3.698-10.268c0.982,2,1.881,4.827,1.881,8.497c0,7.974-6.745,15.132-7.029,15.435l-0.688,0.716
						l0.046-0.486c-0.037,0-0.073-0.028-0.073-0.073c0.009-0.697,0.073-1.404,0.165-2.111c-0.028-3.707-0.798-12.764-7.213-19.179
						c-7.892-7.892-27.667-20.592-29.805-21.959c-0.018,0.009-0.037,0.028-0.055,0.046c1.56,1.523,3.028,3.322,4.487,4.827
						c1.927,1.973,3.579,3.983,4.818,6.46c0.018,0.018-0.018,0.037-0.037,0.018c-1.716-2.505-3.863-4.68-6.011-6.818
						c-1.276-1.266-2.909-2.634-4.083-4.166c-0.156,0.037-0.33,0.064-0.505,0.073c2.615,2.845,14.379,16.077,17.123,27.024
						c2.808,11.241-0.174,21.39-7.424,25.923c1.624-0.596,3.111-1.165,4.487-2.423c1.395-1.294,2.615-2.817,3.735-4.359
						c0.028-0.037,0.083,0,0.064,0.037c-2.028,3.542-4.671,7.727-9.296,7.681c0.248,0.266,0.385,0.578,0.624,0.954
						c0.404,0.652,0.89,1.257,1.432,1.799c1.239,1.248,3.047,2.606,4.891,2.597c0.046,0,0.055,0.064,0.009,0.083
						c-1.587,0.44-3.515-0.652-4.744-1.615c-0.468-0.358-1.101-0.927-1.643-1.569c0.156,0.587,0.284,1.165,0.376,1.762
						c0.541,3.441,0.101,6.277-0.918,8.626c0.147,2.615-0.312,4.836,0.817,7.369c0.918,2.065,2.349,3.927,3.469,5.891
						c0.018,0.037-0.028,0.073-0.055,0.046c-2.193-2.689-5.607-6.8-5.304-10.69c-0.248,0.679-0.523,1.349-0.652,2.074
						c-0.257,1.459-0.156,2.881,0.083,4.331c0.009,0.018-0.028,0.037-0.037,0.018c-0.661-1.56-0.927-3.817-0.413-5.68
						c-2.468,2.982-5.864,4.781-8.433,5.781c-2.45,0.964-4.671,2.138-6.304,3.092c-0.147,0.78-0.486,2.496-1.12,5.01
						c-0.881,3.524-7.378,22.794-7.497,28.015c0-0.028,0.037-0.018,0.037,0c-0.018,0.725-0.028,1.441-0.028,2.166
						c0.073,2.927,0.367,7.011,0.881,11.177c0.853,5.653,2.257,11.241,3.918,16.646c2.34,7.598,5.405,14.921,7.91,22.445
						c1.771,3.331,8.213,6.873,8.213,6.873s-6.056,1.982-10.021,1.321c-1.239-0.202-2.147-0.642-2.808-1.138
						c-1.45-1.092-1.707-2.496-1.707-2.496s3.634,0,3.083-3.193c-0.551-3.193-9.8-29.291-11.893-32.154
						c-0.404-0.551-0.835-1.009-1.266-1.386c0.064,0.964,0.147,1.927,0.275,2.891c0.523,3.854,1.358,7.681,2.67,11.342
						c0.018,0.055-0.073,0.101-0.101,0.046c-2.037-4.597-3.661-9.892-4.001-15.141c-1.11-0.679-2.046-0.881-2.331-0.927
						c-0.101,0.284-0.22,0.569-0.358,0.853c-1.257,2.624-2.634,3.606-3.625,4.322c-0.569,0.413-0.982,0.707-1.156,1.156
						c-0.22,0.587-0.128,1.303,0,2.202c0.147,1.037,0.321,2.331,0.018,3.9c-0.073,0.413-0.193,0.762-0.321,1.083
						c1.808-0.661,3.836-0.257,4.974,1.395c0.128,0.184,0.018,0.404-0.128,0.523c-0.385,0.275-0.881,0.569-1.376,0.652
						c0.606,0.514,1.147,1.165,1.193,1.789c0.009,0.101-0.055,0.202-0.138,0.248c-0.367,0.229-0.853,0.358-1.321,0.395
						c0.67,0.808,0.853,1.872,0.44,2.9c-0.064,0.165-0.239,0.266-0.404,0.165c-0.496-0.294-1.046-0.45-1.551-0.697
						c0.349,1.23,0.083,2.395,0.064,2.468l-0.11,0.468l-0.413-0.257c-0.743-0.477-7.314-4.662-7.983-5.331
						c-0.808-0.808-2.523-8.562-2.523-12.14c0-3.698,6.882-16.582,7.497-17.72c0.046-0.477,0.34-3.414,0.762-7.47l-0.294-0.211
						c0.083-0.119,0.174-0.229,0.257-0.349c0.028-0.028,0.064-0.037,0.101-0.046c0.385-3.671,0.863-8.176,1.367-12.599
						c-2.257,5.139-8.552,17.839-18.389,25.345c-11.948,9.121-18.628,14.214-26.345,10.186c-0.092,1.395,0.009,5.543,3.918,9.452
						c2.569,2.569,4.735,2.652,6.836,2.725c1.854,0.064,3.615,0.128,5.387,1.9c1.551,1.551,1.679,3.147,1.799,4.551
						c0.174,2.101,0.33,3.909,4.68,5.607c3.404,1.34,5.249,0.89,6.726,0.532c1.844-0.44,3.303-0.789,6.286,2.193
						c1.505,1.505,2.588,3.23,3.533,4.744c2.487,3.973,4.285,6.846,11.626,4.093c6.066-2.267,9.213-0.083,12.131,2.23
						c0.138,0.11,0.275,0.22,0.413,0.33c2.166,1.734,4.221,3.368,7.396,3.368c3.808,0,5.754-0.918,7.314-1.661
						c1.615-0.762,2.891-1.367,5.276-0.294c0.89,0.404,1.56,0.762,2.101,1.055c1.9,1.019,1.9,1.019,4.891-1.973
						c2.487-2.496,3.946-2.129,6.598-1.468c1.744,0.44,4.139,1.037,7.846,1.037c6.515,0,8.534-2.891,10.865-6.24
						c0.908-1.303,1.844-2.643,3.102-3.9c2.413-2.423,4.065-2.331,6.148-2.221c1.9,0.101,4.258,0.229,8.158-1.487
						c7.405-3.258,7.717-10.975,7.727-12.094c-0.193-0.211-0.551-0.697-0.606-1.532c-0.083-1.331,0.596-3.698,4.34-7.442
						C318.251,245.551,319.031,243.743,318.921,241.825z"/>
				</g>
			</g>
		</g>
	</g>
</g>
</svg>
