<?xml version="1.0" encoding="utf-8"?>
<!-- Generator: Adobe Illustrator 27.6.1, SVG Export Plug-In . SVG Version: 6.00 Build 0)  -->
<svg version="1.1" id="OBJECT" xmlns="http://www.w3.org/2000/svg" xmlns:xlink="http://www.w3.org/1999/xlink" x="0px" y="0px"
	 viewBox="0 0 500 500" enable-background="new 0 0 500 500" xml:space="preserve">
<g>
	<g id="XMLID_7_">
		<g>
			<g>
				<path fill="#FF4856" d="M150.914,167.748c0.351,0.112,2.088,0.677,2.406,0.868c0.359,0.215,1.251,1.147,1.251,1.147
					s1.155-0.287,1.976-0.207c0.685,0.056,2.327,0.215,2.948,0.327c-0.183,0.072-0.367,0.143-0.55,0.223
					c-0.351,0.159-0.717,0.398-1.1,0.661c-0.861,0.582-1.833,1.243-3.076,1.243c-0.327,0-0.661-0.048-0.996-0.143
					c-2.024-0.558-2.271-1.928-2.47-3.02c-0.024-0.143-0.048-0.271-0.072-0.382C151.177,168.202,151.057,167.963,150.914,167.748z"
					/>
			</g>
			<g>
				<path fill="#FF4856" d="M152.93,167.908c-0.47-0.255-1.681-0.374-2.215-0.414c-0.016-0.016-0.024-0.04-0.04-0.056
					c0.821-0.215,1.45-0.637,1.984-0.996c0.47-0.311,0.868-0.582,1.211-0.582v-0.008l0.04,0.008c0.789,0.04,0.924,0.582,0.94,0.741
					c0.016,0.199,0.127,0.374,0.303,0.478c0.096,0.056,0.207,0.088,0.319,0.088c0.08,0,0.167-0.016,0.247-0.056
					c0.526-0.223,0.876-0.327,1.147-0.327c0.367,0,0.821,0.151,1.689,2c0.239,0.494,0.574,0.837,0.94,1.092
					c-0.614-0.183-2.279-0.677-2.948-0.821c-0.207-0.048-0.382-0.072-0.534-0.088c0.239-0.104,0.47-0.223,0.693-0.359
					c0.04-0.032,0-0.088-0.04-0.064c-0.645,0.295-1.394,0.454-2.088,0.271c-0.088-0.032-0.175-0.048-0.271-0.088
					c0-0.008-0.008-0.008-0.016-0.008c-0.048-0.024-0.104-0.064-0.159-0.088c-0.422-0.263-0.582-0.685-0.845-1.163
					c-0.032-0.056-0.112-0.04-0.135,0.016c-0.056,0.199-0.04,0.39,0.032,0.574C153.097,168.003,153.009,167.947,152.93,167.908z"/>
			</g>
			<g>
				<path fill="#FFC7A2" d="M347.493,275.862c2.43,1.147,5.354,1.841,7.537,3.426c1.88,1.362,2.829,3.323,5.147,4.111
					c3.506,1.179,7.681-0.398,8.565-4.215c0.008-0.04-0.048-0.08-0.08-0.04c-1.259,1.442-2.725,2.582-4.637,3.036
					c-2.534,0.606-4.518-0.606-6.35-2.199c-2.837-2.462-6.565-3.346-10.143-4.223C347.477,275.743,347.43,275.83,347.493,275.862z
					 M261.864,228.351c5.904,0,15.752,5.8,15.912,5.896l88.155,37.161c0.207,0.056,20.453,6.175,25.847,9.976
					c3.498,2.47,8.502,4.605,12.151,6.175c2.103,0.9,3.928,1.681,4.629,2.175c1.745,1.227,5.53,1.123,6.948,1.036
					c0.008,0.988-0.199,3.203-1.968,4.43c-1.625,1.131-3.777,0.614-4.908,0.207c0.367-0.351,0.621-0.797,0.693-1.307
					c0.008-0.056-0.048-0.088-0.088-0.056c-0.422,0.374-0.797,0.781-1.243,1.108c-0.048-0.024-0.088-0.04-0.104-0.056
					c0.008-0.016,0.016-0.032,0.024-0.04c0.319-0.645,0.526-1.426,0.343-2.135c-0.008-0.024-0.048-0.032-0.056-0.008
					c-0.287,0.645-0.486,1.323-0.868,1.928c-0.072,0.128-0.167,0.239-0.255,0.351c-0.956,0.351-3.809,1.347-6.964,1.896
					c-2.095,0.359-4.629-0.805-7.075-1.928c-1.944-0.9-3.793-1.753-5.482-1.896c-3.96-0.343-7.761-0.39-14.198,2.454
					c-4.693,2.08-8.27,2.39-10.661,0.924c-0.518-0.319-0.988-0.725-1.394-1.219c-0.566-1.211-1.227-2.382-1.538-3.681
					c-0.311-1.291-0.191-2.613-0.382-3.912c-0.223-1.538-0.837-2.805-2.358-3.346c-0.072-0.024-0.135,0.08-0.072,0.128
					c1.02,0.829,1.291,1.928,1.386,3.099c-1.92-1.092-8.47-4.486-17.115-5.434c-0.167-0.024-16.756-1.793-27.807-2.374
					c-0.239-0.016-14.19-0.821-28.596-4.86c-2.167-2.645-8.581-10.557-13.202-17.059c-3.131-4.406-7.004-10.669-9.824-15.37
					c-3.37-6.637-6.079-11.099-7.609-11.952c-0.319-0.175-0.629-0.343-0.948-0.518C254.606,229.498,257.617,228.351,261.864,228.351
					z"/>
			</g>
			<g>
				<path fill="#FFC7A2" d="M285.17,348.886c0.486,3.362,3.944,5.155,6.653,6.573c0.239,0.127,0.478-0.175,0.287-0.374
					c-1.251-1.355-2.645-2.47-3.976-3.729c-1.673-1.602-1.841-3.331-1.681-5.522c0.239-3.307-0.311-5.944-1.753-8.908
					c-0.024-0.04-0.096-0.008-0.072,0.032c0.749,1.952,0.964,4.111,0.9,6.191C285.465,345.062,284.891,346.974,285.17,348.886z
					 M323.192,392.98c0.327-0.964,0-1.856-0.94-2.59c-0.677-0.534-1.49-0.829-2.295-1.108c-1.299-0.446-2.183-0.98-3.195-1.912
					c-0.032-0.024-0.088,0-0.072,0.04c0.414,1.139,1.339,1.888,2.374,2.454c0.582,0.311,1.49,0.677,2.263,1.171
					c-0.08,0.032-0.159,0.064-0.239,0.096c-0.478,0.143-0.972,0.215-1.466,0.183c-0.016,0-0.024,0.032-0.008,0.032
					c0.566,0.183,1.482,0.271,2.103-0.032c0.606,0.462,1.052,1.012,1.06,1.721c-1.243,0.159-2.669,0.287-4.143,0.335
					c0.175-0.892-0.43-1.936-1.084-2.486c-0.526-0.438-1.187-0.653-1.817-0.892c-0.964-0.367-1.928-0.781-2.805-1.315
					c-0.032-0.024-0.056,0.016-0.04,0.04c0.829,0.98,1.729,1.721,2.916,2.223c0.367,0.159,0.693,0.311,0.972,0.51
					c-0.088,0.024-0.183,0.056-0.279,0.072c-0.422,0.096-0.861,0.151-1.291,0.135c-0.032,0-0.032,0.04-0.008,0.048
					c0.502,0.167,1.378,0.319,1.928,0.032c0.175,0.175,0.327,0.382,0.454,0.653c0.151,0.319,0.215,0.653,0.303,0.988
					c-1.394,0.008-2.836-0.064-4.215-0.287c-4.279-0.677-6.207-2.311-6.948-3.171c-0.064-0.12-0.128-0.247-0.167-0.382
					c-0.215-0.685-0.112-1.442-0.359-2.111c-0.008-0.024-0.04-0.032-0.056,0c-0.255,0.414-0.359,0.98-0.319,1.546
					c-0.948-0.566-4.167-2.59-7.067-5.482c-1.339-1.347-1.721-2.876-2.127-4.51c-0.606-2.43-1.299-5.187-5.275-7.753
					c-1.841-1.187-3.426-2-4.82-2.709c-3.506-1.793-5.816-2.972-8.621-8.286c-2.526-4.773-0.335-8.438,1.602-11.665
					c1.02-1.705,1.896-3.179,1.896-4.581c0-4.43-5.195-15.131-16.621-28.166c-3.307-3.777-6.629-7.139-9.84-10.398
					c-8.478-8.597-15.8-16.015-17.864-26.222c-2.813-13.92-0.303-29.273-0.303-29.273c-0.024,0.104-1.665,7.139-1.817,16.079
					c-0.876,2.908-2.837,10.278-2.837,15.402c0,4.43,0.127,8.374,0.215,10.493c-3.362,11.904-8.43,29.018-12.462,39.034
					c-2.924,7.267-7.012,15.433-12.366,21.752c-2.032,2.024-4.757,4.629-7.298,6.693c-2.765,1.864-5.761,3.171-9.019,3.705
					c-12.23,2.008-20.166-5.099-20.27-5.195c-0.12-0.096-11.545-9.458-5.689-31.759c1.41-5.378,4.454-12.143,8.486-19.545
					c3.378-5.506,7.386-12.159,10.796-17.848c11.983-18.246,26.787-36.93,37.074-47.217c16.541-16.541,24.023-14.43,32.078-9.952
					c6,3.331,33.616,70.897,47.384,106.154l0.056,0.104c0.104,0.143,9.737,14.087,12.27,21.951c2.629,8.199,6.207,17.88,7.49,20.31
					c1.474,2.781,4.135,4.573,6.773,4.573c1.347,0,2.757,0.239,3.745,0.741c-0.048,0.08-0.096,0.159-0.151,0.231
					c-0.223,0.311-0.502,0.629-0.853,0.797c-0.056,0.032-0.016,0.12,0.048,0.104c0.422-0.088,0.821-0.199,1.147-0.486
					c0.112-0.096,0.215-0.215,0.295-0.343c0.518,0.374,0.845,0.853,0.845,1.45c0,0.845-0.43,2.04-1.251,3.06
					c0.135-0.685,0.072-1.426-0.231-2.016c-0.454-0.892-1.315-1.506-2.295-1.681c-0.765-0.135-1.546-0.056-2.319-0.183
					c-1.076-0.175-2.143-0.566-3.091-1.1c-0.056-0.032-0.112,0.04-0.072,0.088c1.179,1.171,2.438,1.737,4.079,1.944
					c0.932,0.12,1.96,0.239,2.59,0.813c-0.104,0.151-0.207,0.303-0.343,0.43c-0.374,0.374-0.837,0.661-1.378,0.709
					c-0.072,0.008-0.064,0.096,0,0.104c0.606,0.08,1.203-0.032,1.681-0.422c0.135-0.112,0.263-0.239,0.374-0.382
					c0.151,0.271,0.247,0.606,0.255,1.036c0.024,0.996-0.558,1.617-1.219,2.207c-0.574,0.263-1.219,0.43-1.944,0.454
					c0.446-0.988-0.343-2.024-1.179-2.773c-0.741-0.661-1.617-0.669-2.486-1.084c-1.044-0.502-1.92-1.434-2.797-2.191
					c-0.04-0.032-0.096,0.008-0.072,0.056c0.677,1.147,1.466,2.207,2.709,2.813c0.765,0.374,1.609,0.43,2.263,1.044
					c0.08,0.072,0.143,0.151,0.215,0.231c-0.271,0.159-0.526,0.382-0.821,0.494c-0.502,0.183-1.036,0.255-1.554,0.112
					c-0.064-0.016-0.112,0.088-0.048,0.12c0.542,0.239,1.131,0.343,1.705,0.167c0.335-0.096,0.757-0.295,0.98-0.598
					c0.39,0.486,0.669,1.028,0.693,1.649C326.897,392.326,325.343,392.685,323.192,392.98z"/>
			</g>
			<g>
				<path fill="#FFC7A2" d="M131.186,257.178c-0.024-0.024-0.056,0.008-0.048,0.032c1.976,4.326,2.072,9.107,1.729,13.776
					c-0.008,0.096,0.135,0.104,0.167,0.024C134.771,266.381,134.604,261.034,131.186,257.178z M91.945,361.531
					c0.382,0.406,0.701,1.458-0.104,1.602c-0.096,0.016-0.072,0.167,0.024,0.167c0.908-0.016,1.028-1.052,0.725-1.729
					c-0.12-0.271-0.43-0.621-0.773-0.821c1.649-1.649,3.299-3.53,4.358-4.797c0.526-0.621,1.299-0.98,2.111-0.98h8.494l0.247-0.088
					l11.848-4.143c1.713-0.502,3.426-0.964,5.163-1.434c2.008-0.534,3.84-1.147,5.235-2.765c0.032-0.04-0.008-0.112-0.064-0.08
					c-1.856,1.347-4.247,1.442-6.406,2.08c0.112-5.259,1.131-52.89,1.131-61.782c0-9.322,1.705-23.035,1.721-23.17l0.016-0.128
					l-0.048-0.12c-0.096-0.263-9.76-26.509-12.015-41.488c-0.223-1.434-0.351-2.908-0.43-4.39c0.494-0.677,3.562-4.191,12.78-1.721
					c8.39,2.247,14.876,7.147,17.147,9.027c0.271,0.343,0.534,0.693,0.789,1.052c1.41,13.298,3.96,38.532,3.96,47.169
					c0,11.864-11.067,76.992-11.179,77.645l-0.008,0.088c0,4.135-0.725,8.741-9.362,10.972c-3.976,1.02-6.621,1.028-8.549,1.036
					c-2.454,0.008-4.079,0.016-6.032,1.968c-2.287,2.287-5.354,1.06-6.693,0.343c0.677-0.526,1.187-1.625,1.665-2.183
					c0.215-0.247,0.43-0.494,0.661-0.725c0.167-0.191,0.359-0.359,0.566-0.51c0.343,0.151,0.685,0.303,1.036,0.454
					c0.542,0.661-0.263,1.976-0.821,2.255c-0.048,0.024-0.008,0.096,0.04,0.088c1.562-0.319,2.263-3.044,0.542-3.657
					c0.12-0.127,0.239-0.255,0.367-0.39c1.275-1.434,2.366-2.868,4.287-3.426c2.119-0.621,4.868-0.534,6.279-2.502
					c0.024-0.04-0.032-0.08-0.072-0.064c-2.621,1.362-5.673,0.574-8.239,1.944c-1.936,1.036-3.601,3.044-4.876,5.075l-8.334-1.785
					l-0.199,0.231c-1.155,1.307-4.669,4.701-7.067,4.701c-1.673,0-2.916-0.43-3.673-0.797c0.9-0.51,2.008-1.45,3.139-2.534
					C91.546,361.26,91.746,361.324,91.945,361.531z"/>
			</g>
			<g>
				<path fill="#FFC7A2" d="M139.48,155.271c-2.486-1.904-3.315-4.613-3.227-7.705c0.04-1.474,1.49-11.29,5.291-7.187
					c-0.008,0-0.008,0.008-0.008,0.016c-0.008,0.048,0.04,0.08,0.08,0.072c0.024,0.024,0.056,0.056,0.08,0.08
					c-0.319,0.9-0.566,1.681-0.733,2.311c-0.008,0.032-0.032,0.12-0.072,0.247c-0.367-0.374-1.012-0.534-1.586-0.231
					c-1.801,0.956-1.737,3.617-1.681,5.338c0.008,0.096,0.151,0.104,0.159,0c0.088-1.004,0.263-2.024,0.661-2.964
					c0.143-0.351,0.542-1.179,0.908-1.394c0.876-0.502,1.044-0.04,1.251,0.406c-0.12,0.486-0.247,1.084-0.374,1.745
					c-0.247,0.04-0.534,0.215-0.693,0.382c-0.598,0.637-0.916,1.522-0.861,2.382c0,0.064,0.104,0.096,0.12,0.024
					c0.096-0.438,0.223-0.845,0.446-1.235c0.048-0.08,0.55-0.797,0.884-0.996c-0.279,1.546-0.518,3.386-0.526,5.187
					C139.592,152.904,139.536,154.092,139.48,155.271z"/>
			</g>
			<g>
				<path fill="#FFC7A2" d="M146.165,132.539c2.613-3.856,5.944-7.171,10.167-6.804c0.024,0,0.048,0.008,0.072,0.008
					c0.311,1.641,0.199,3.482,0.335,5.036c0.207,2.343,0.55,4.701,1.506,6.868c0.462,1.06,1.052,1.936,1.729,2.661l-2.279,0.008
					c-1.068-1.147-2.51-2.422-4.008-2.9c-2.996-0.948-7.984-0.327-7.984-0.327l-1.538-0.024
					C144.763,135.606,145.448,134.069,146.165,132.539z"/>
			</g>
			<g>
				<path fill="#FFC7A2" d="M163.375,182.823c-0.853,4.263-1.817,9.649-1.896,12.565c-0.072,2.51,2.406,3.601,3.729,3.824
					c0,0-2.749-1.562-2.693-3.793c0.048-1.761,0.446-4.502,0.932-7.346c0.191-0.263,1.291-1.657,3.275-2.837
					c2.159-1.275,5.378-2.287,9.641-1.291c7.872,1.833,9.784,13.33,8.685,21.258c-1.968-2.127-3.777-4.072-3.777-4.072
					c2.661,5.314,6.661,9.004,7.84,10.023c-0.932,1.697-4.709,8.804-5.785,15.075c-0.916-2.765-3.331-4.876-5.506-6.693
					c-2.996-2.494-6.486-4.725-8.215-8.358c-0.016-0.032-0.064-0.008-0.056,0.024c0.924,3.354,3.243,5.984,5.84,8.199
					c2.558,2.183,4.884,4.303,6.86,6.932c-4.573-2.295-17.991-8.039-33.6-5.546c-1.474-2.574-11.107-18.724-23.537-22.867
					c-3.697-1.235-6.597-1.602-8.86-1.482c2.215-6.079,5.426-10.661,9.051-11.872c8.239-2.749,18.063,4.717,18.158,4.797
					c0.135-0.143-1.466-1.841-4.064-3.482c4.143-2.566,3.665-11.944,3.338-15.378c0.088,0.183,0.175,0.359,0.263,0.542
					c0.797,3.083,2.86,9.298,7.091,11.975C155.073,186.178,161.71,183.564,163.375,182.823z M159.065,199.898
					c2.151,0.255,2.924,1.689,3.801,3.45c0.032,0.072,0.135,0.016,0.12-0.056c-0.446-1.936-1.211-4.048-3.354-4.526
					c-1.37-0.311-2.789,0.064-4.175-0.191c-1.689-0.311-3.37-0.98-4.637-2.143c-0.04-0.04-0.112,0.008-0.08,0.056
					c1.187,1.697,2.597,2.972,4.693,3.299C156.643,199.978,157.854,199.747,159.065,199.898z M167.59,199.022
					c-1.355,0.422-2.064,1.418-2.064,2.837c0,0.159,0.231,0.231,0.303,0.088c1.115-2.255,3.665-1.928,5.53-3.179
					c0.749-0.51,2.478-1.761,2.032-2.829c-0.016-0.032-0.064-0.032-0.072,0c-0.303,0.9-1.609,1.705-2.382,2.111
					C169.837,198.623,168.746,198.655,167.59,199.022z"/>
			</g>
			<g>
				<path fill="#FFC7A2" d="M157.822,153.04c-0.016,0.032,0.032,0.048,0.048,0.024c1.283-2.111,1.498-4.486,0.303-6.701
					c-0.016-0.032-0.056-0.016-0.048,0.016C158.65,148.554,158.635,150.936,157.822,153.04z M157.591,161.892
					c-0.056,0.008-0.056,0.104,0,0.12c0.542,0.159,1.02,0.056,1.378-0.406c0.534-0.677,0.367-1.665,0.374-2.462
					c0-0.048-0.064-0.064-0.072-0.016C159.017,160.211,158.929,161.653,157.591,161.892z M156.435,158.115
					c-0.645,0.781-2.406,2.837-0.701,3.498c0.064,0.032,0.104-0.056,0.064-0.104c-0.741-1.012,0.263-2.414,0.653-3.378
					C156.459,158.115,156.443,158.107,156.435,158.115z M154.898,161.414c-0.606-0.374-0.892-0.629-0.629-1.386
					c0.175-0.51,0.454-0.988,0.645-1.506c0.016-0.04-0.04-0.072-0.072-0.04c-0.598,0.574-1.562,1.609-1.227,2.526
					c0.279,0.765,1.155,1.02,1.793,1.474c0.008,0.04,0.016,0.08,0.048,0.112c0.43,0.478,0.685,1.084,0.677,1.729
					c0,0.024,0.024,0.032,0.032,0.016c0.112-0.207,0.167-0.414,0.191-0.629c0.04,0.024,0.088,0.04,0.143,0.056
					c0.12,0.048,0.374,0.096,0.621,0.096c-0.191,0.374-0.215,0.805-0.072,1.211c0.008,0.032,0.056,0.048,0.064,0.008
					c0.112-0.454,0.367-0.861,0.693-1.187c0.263-0.255,0.614-0.335,0.821-0.614c0.693,0.135,1.386,0.359,2.072,0.088
					c1.1-0.438,0.781-1.88,0.709-2.813c0-0.032-0.048-0.048-0.056-0.008c-0.096,0.494-0.088,1.068-0.263,1.538
					c-0.263,0.685-0.797,0.813-1.45,0.757c-0.255-0.024-0.51-0.056-0.749-0.056c0.064-0.072,0.127-0.143,0.191-0.215
					c0.032-0.048-0.024-0.127-0.08-0.112c-0.765,0.247-1.41,0.637-2.231,0.311c-0.446-0.175-0.773-0.526-1.147-0.789
					C155.447,161.757,155.185,161.597,154.898,161.414z M149.129,142.602c3.299,0.629,5.976,2.542,7.729,5.386
					c0.016,0.016,0.04,0,0.032-0.016c-1.275-3.147-4.382-5.259-7.753-5.402C149.113,142.57,149.113,142.602,149.129,142.602z
					 M150.627,168.593c0.223,1.044,0.295,3.131,2.98,3.872c0.406,0.12,0.797,0.167,1.163,0.167c2.032,0,3.418-1.514,4.422-1.952
					c1.195-0.526,2.311-0.821,2.311-0.821c-0.223,0-1.801-0.096-2.382-1.339c-0.813-1.721-1.41-2.358-2.255-2.358
					c-0.398,0-0.845,0.143-1.394,0.382c0,0-0.112-1.227-1.53-1.307c-0.024,0-0.048,0-0.072,0c-1.227,0-2.175,1.721-4.295,1.721
					c-0.255,0-0.526-0.024-0.813-0.08C148.763,166.88,150.404,167.549,150.627,168.593z M163.79,149.67
					c0.614-0.534,1.331-0.861,1.888-1.474c0.016-0.024-0.008-0.064-0.032-0.048c-0.765,0.526-1.681,0.781-2.358,1.434
					c-0.693,0.661-1.076,1.49-1.339,2.398c-0.016,0.056,0.064,0.096,0.104,0.04C162.61,151.247,163.057,150.307,163.79,149.67z
					 M165.216,150.65c3.076-1.307,6.358-1.315,9.41,0.08c0.024,0.008,0.032-0.024,0.016-0.032c-2.829-1.833-6.581-1.912-9.442-0.08
					C165.176,150.626,165.192,150.658,165.216,150.65z M156.228,150.179c-0.693-4.605-4.143-5.729-5.92-5.832
					c-0.151-0.008-0.311-0.008-0.47-0.008c-0.008-0.008-0.008-0.016-0.016-0.016c-0.215-0.088-0.446-0.072-0.669-0.127
					c-0.287-0.072-0.534-0.207-0.749-0.414c-0.04-0.032-0.104,0.008-0.072,0.048c0.135,0.199,0.359,0.414,0.614,0.558
					c-0.414,0.04-0.821,0.096-1.187,0.167c-0.127-0.08-0.271-0.104-0.43-0.159c-0.319-0.112-0.526-0.279-0.733-0.534
					c-0.016-0.024-0.048-0.008-0.048,0.016c0.024,0.311,0.295,0.621,0.621,0.789c-0.526,0.12-0.876,0.215-0.876,0.215
					c-0.502-0.032-1.259-0.534-1.355-0.598c0.048,0.112,0.462,0.972,1.068,1.745c0.606,0.773,1.928,1.378,2.088,1.45
					c0.008,0.008,0.016,0.008,0.016,0.008c0.319,0.223,0.829,0.542,1.546,0.845c0.566,0.239,1.267,0.47,2.08,0.653
					c1.163,0.255,2.582,0.414,4.247,0.319C156.117,149.693,156.196,150.004,156.228,150.179z M184.88,157.948
					c0.199-0.773,0.98-3.012-0.04-3.585c-0.94-0.534-2.088,0.964-2.518,1.546c-0.598,0.797-1.227,1.801-1.57,2.741
					c-0.072,0.183-0.127,0.374-0.183,0.558c-0.048,0.582-0.167,1.147-0.367,1.697c-0.39,0.518-0.892,0.861-1.514,1.012
					c-0.096,0.032-0.072,0.151,0.016,0.159c0.789,0.08,1.474-0.255,1.928-0.916c0.255-0.374,0.295-0.725,0.39-1.147
					c0.135-0.606,0.311-1.147,0.534-1.681c0.39-0.311,1.028-0.765,1.315-0.263c0.135,0.239,0.064,0.629,0.04,0.892
					c-0.032,0.374-0.104,0.725-0.207,1.084c-0.008,0.032,0.04,0.056,0.056,0.024c0.279-0.621,1.012-2.08,0.247-2.613
					c-0.287-0.191-0.677-0.199-0.988-0.064c-0.008,0-0.008,0-0.008,0c0.032-0.064,0.064-0.12,0.096-0.183
					c0.335-0.566,0.821-1.602,1.418-1.896c1.872-0.924,1.211,1.108,1.052,1.88c-0.319,1.562-0.9,3.036-1.992,4.231
					c-0.056,0.064,0.016,0.183,0.096,0.127C183.908,160.649,184.506,159.39,184.88,157.948z M172.674,151.08
					c-1.53-0.892-5.004-1.856-8.111,1.546c0.135-0.127,0.351-0.327,0.645-0.55c1.339,1.004,2.605,1.657,3.713,2.08
					c0.789,0.303,1.498,0.486,2.103,0.598c0.773,0.143,1.386,0.167,1.769,0.151c-0.008,0-0.008,0.008-0.016,0.008
					c0,0,1.562,0.279,2.558-0.056c0.988-0.327,1.864-0.868,1.864-0.868s-1.004,0.024-1.474-0.247c0,0-0.231-0.271-0.614-0.661
					c0.367,0.04,0.765-0.072,0.956-0.319c0.016-0.016,0-0.048-0.024-0.04c-0.319,0.096-0.582,0.127-0.916,0.04
					c-0.159-0.04-0.295-0.096-0.438-0.104c-0.271-0.255-0.574-0.534-0.9-0.797c0.287,0.024,0.598-0.032,0.821-0.12
					c0.048-0.024,0.016-0.096-0.032-0.088c-0.295,0.056-0.574,0.04-0.861-0.064c-0.215-0.08-0.39-0.215-0.621-0.263
					c-0.008-0.008-0.016,0-0.024,0.008C172.937,151.247,172.809,151.152,172.674,151.08z M169.2,143.686
					c-1.633,0.327-2.892,0.797-2.892,0.797s0.43,0.422,1.315,0.701c0.558,0.183,2.048-0.43,3.761-0.669
					c0.374,0.343,0.693,0.837,0.916,1.554c0.956,3.028,2.709,4.924,5.609,6.279c0.422,0.199,1.06,0.454,1.753,0.661
					c0.263,0.319,0.574,0.813,0.693,1.45c0.207,1.108-0.653,3.96-0.709,4.151c0.12-0.167,2.088-2.9,2.645-4.223
					c0.327-0.781,1.068-1.434,1.649-1.856c4.765-0.876,1.944,4.462,1.474,5.673c-0.43,1.076-0.717,2.127-1.355,3.131
					c-1.378,2.159-3.41,3.546-5.88,4.048c-0.39-0.159-0.94-0.478-1.004-0.749c-0.016-0.064-0.104-0.056-0.127,0
					c-0.175,0.51-0.167,0.98,0.016,1.331c-0.876,2.088-1.888,4.318-3.593,5.37c-3.091,1.888-13.426,8.111-16.724,8.565
					c-3.171,0.446-6.366-0.223-8.326-1.753c-1.1-0.853-3.577-5.553-5.49-9.641c-1.275-2.741-2.303-5.203-2.478-6.032
					c-0.247-1.155-0.12-3.45,0.008-5.88c0.08-1.586,0.167-3.235,0.175-4.844c0.024-4.064,1.315-8.565,1.331-8.605v-0.016
					c0.39-1.458,1.187-3.641,2.199-6.063l1.538,0.024c0,0,4.382,0.032,7.091,0.9c2.717,0.861,4.303,4.04,5.179,4.318
					s1.474,0.191,1.474,0.191s-0.693-1.036-1.753-2.183l2.279-0.008c1.506,1.594,3.482,2.422,5.697,2.669
					c0.191,0.096,0.382,0.191,0.59,0.263C167.24,143.574,168.268,143.582,169.2,143.686z"/>
			</g>
			<g>
				<path fill="#FFBD52" d="M150.356,275.018c6.892,4.534,15.051,5.721,23.13,4.948c-1.841,0.51-3.028,0.773-3.028,0.773
					c-9.466,2.582-22.087,0-22.087,0l-0.08,0.239c0.255-2.398,0.446-4.462,0.534-6.079l1.498,0.056
					C150.324,274.978,150.332,275.002,150.356,275.018z"/>
			</g>
			<g>
				<path fill="#FFBD52" d="M155.726,224.279c0.462,0,1.044,0.064,1.402-0.263c0-0.008,0-0.016,0-0.016
					c-0.343-0.351-0.94-0.319-1.402-0.343c-0.574-0.024-1.115-0.04-1.657,0.207c-0.048,0.016-0.048,0.104,0,0.127
					C154.603,224.263,155.145,224.271,155.726,224.279z M185.725,230.781c0.629,6.279,0.239,13.011-2.86,18.7
					c-0.08,0.143,0.12,0.247,0.207,0.127c2.096-2.908,3.506-5.538,4.008-9.139c0.454-3.283,0.223-6.701-1.131-9.752
					C185.9,230.614,185.717,230.661,185.725,230.781z M180.315,229.888c0.04,0.016,0.072-0.032,0.032-0.056
					c-5.992-3.896-12.932-5.928-20.071-5.689c-0.08,0.008-0.104,0.127-0.016,0.143C167.176,225.291,173.909,227.108,180.315,229.888
					z M139.066,220.566c-3.243-2.088-7.681-4.446-12.836-5.824c-9.354-2.51-12.876,0.805-13.784,1.968
					c-1.562-0.582-7.633-3.147-7.633-7.776c0-0.884,0.127-1.681,0.327-2.398c1.275-1.434,2.574-2.311,4.757-2.757
					c2.574-0.526,5.402-0.837,8-0.319c0.096,0.016,0.135-0.127,0.04-0.151c-3.052-0.749-6.406-0.861-9.466-0.024
					c-0.725,0.191-1.562,0.526-2.311,0.988c0.853-1.315,1.912-2.143,2.558-2.558c3.394-1.227,6.804-1.458,10.454-0.677
					c3.809,0.813,7.697,1.888,10.9,4.199c0.064,0.048,0.143-0.056,0.088-0.112c-4.86-4.39-13.513-7.872-19.911-5.091
					c1.378-1.633,5.203-4.239,14.533-1.123c8.733,2.908,16.238,12.27,20.174,18.023c1.57,3.02,2.948,6.127,4.279,9.258
					c0.048,0.112,0.183,0.024,0.175-0.072c-0.239-1.458-0.629-2.86-1.171-4.207l0.223-0.04c18.979-3.179,34.771,6.151,34.923,6.247
					l0.701,0.422l0.088-0.813c0.653-6.183,4.749-14.039,5.808-15.983c0.502,0.287,1.394,0.813,2.494,1.554
					c-1.466,0.645-2.558,2.972-3.163,4.263c-0.892,1.92-1.482,3.976-1.45,6.103c0,0.032,0.048,0.04,0.056,0.008
					c0.582-2.064,1.171-4.095,2.231-5.984c0.542-0.956,1.131-1.88,1.825-2.733c0.43-0.526,0.765-0.805,0.94-1.355
					c3.904,2.701,9.88,7.784,10.493,13.936c0.781,7.832-2.733,13.649-5.307,17.895c-0.486,0.805-0.948,1.57-1.323,2.263
					c-2.35,4.295-3.697,16.477-3.697,19.561c0,1.968-0.677,2.844-1.036,3.179c0.223-2.024-0.327-4.072-1.602-5.904
					c-0.008-0.016-0.032-0.008-0.024,0.008c0.948,2.741,0.797,5.928-0.677,8.454c-2.223,1.586-4.924,2.932-7.609,4.04
					c-4.35,0.733-8.685,1.538-13.107,1.657c-6.294,0.175-13.035-0.677-18.597-3.801c-0.056-0.032-0.104,0.016-0.104,0.064
					l-1.498-0.056c0.04-0.733,0.064-1.37,0.064-1.904c0-1.602-0.088-3.777-0.239-6.326c0.781,1.227,1.809,2.342,2.701,3.187
					c1.888,1.761,4.47,3.163,7.067,3.418c0.016,0,0.016-0.024,0.008-0.032c-2.422-1.076-4.502-2.175-6.422-4.04
					c-0.932-0.916-1.761-1.936-2.438-3.052c-0.406-0.669-0.717-1.402-1.084-2.103c-0.359-5.251-0.908-11.649-1.514-18.023
					c0.988,1.442,2.494,2.813,3.315,3.498c2.191,1.825,5.123,3.115,7.992,3.203c0.024,0,0.024-0.024,0.008-0.032
					c-2.685-0.988-5.004-2.103-7.211-3.96c-1.864-1.578-3.052-3.49-4.366-5.474c-0.534-5.561-1.084-10.948-1.554-15.37
					c0.932,1.745,1.633,3.625,2.127,5.506c0.024,0.088,0.143,0.048,0.127-0.032c-0.327-1.944-0.398-4.032-1.052-5.904
					c-0.558-1.578-1.546-2.932-2.661-4.151c-2.669-2.884-5.546-5.697-8.741-8c-6-4.334-13.402-7.45-20.78-5.036
					c-0.064,0.024-0.032,0.12,0.032,0.104c7.545-1.713,14.931,1.41,20.605,6.247C136.277,217.881,137.687,219.204,139.066,220.566z"
					/>
			</g>
			<g>
				<path fill="#FFBD52" d="M185.502,168.171c-0.104,0.056-0.048,0.239,0.072,0.199c4.271-1.347,6.597-5.777,5.283-10.095
					c-0.024-0.072-0.143-0.072-0.135,0.008C191.103,162.529,189.223,166.043,185.502,168.171z M188.537,161.717
					c-0.908,2.072-2.159,3.665-3.984,5.004c-0.064,0.048-0.008,0.159,0.064,0.135c2.215-0.685,3.896-2.781,3.984-5.131
					C188.601,161.685,188.553,161.677,188.537,161.717z M185.637,170.298c-0.096,0.04-0.024,0.167,0.056,0.159
					c1.123-0.112,2.151-0.462,3.099-0.956c-0.526,3.267-2.868,5.426-6.079,6.366c-3.291,0.964-8.406,0.677-9.474-3.171
					c0.271-0.167,0.534-0.335,0.773-0.478c0.048-0.032,0.096-0.072,0.143-0.104c0.032,1.386,1.984,2.119,3.195,2.414
					c2.048,0.502,4.016,0.207,5.625-1.171c0.056-0.056-0.016-0.151-0.088-0.112c-2.366,1.514-6.948,1.434-8.231-1.498
					c0.327-0.271,0.629-0.574,0.908-0.9c0.319,0.916,1.594,1.649,2.446,1.841c1.841,0.422,4.494-0.231,5.944-1.442
					c0.048-0.04-0.016-0.127-0.072-0.088c-1.1,0.781-2.9,1.115-4.239,1.155c-1.761,0.048-2.94-0.558-3.617-2.064
					c0.159-0.223,0.311-0.462,0.454-0.701c0.064,0.104,0.127,0.199,0.183,0.263c0.263,0.351,0.621,0.582,1.012,0.749
					c0.072,0.032,0.135-0.064,0.064-0.112c-0.359-0.231-0.621-0.55-0.813-0.924c-0.072-0.12-0.12-0.287-0.191-0.414
					c0.231-0.43,0.454-0.861,0.661-1.307c0.207,0.207,0.494,0.367,0.757,0.446c0.701,0.223,1.434,0.024,2.056-0.319
					c0.04-0.016,0.008-0.08-0.032-0.064c-0.749,0.311-1.641,0.343-2.271-0.263c-0.104-0.104-0.191-0.223-0.263-0.351
					c0.096-0.231,0.199-0.462,0.295-0.685c0.151,0.024,0.327,0.032,0.518,0.016c1.108-0.104,2.199-0.781,3.052-1.562
					c2.757-1.586,4.239-5.012,5.561-8.055c0.048-0.12,0.104-0.239,0.151-0.367c0.303,1.108,0.454,2.151,0.12,3.378
					c-0.39,1.458-1.203,2.789-2.064,4.016c-0.016,0.024,0.016,0.048,0.032,0.024c1.801-1.952,3.952-5.522,2.175-8.103
					c0.024-0.056,0.048-0.112,0.064-0.167c1.187,0.016,2.35-0.167,3.45-0.502c1.37,2.797,2.358,5.633,1.283,8.764
					C191.254,166.991,188.498,169.19,185.637,170.298z"/>
			</g>
			<g>
				<path fill="#FFBD52" d="M137.544,170.696c-0.653-0.406-1.227-1.02-1.737-1.721c-0.805-1.45-1.331-2.972-1.123-4.781
					c0.367-3.211,1.633-6.151,4.589-7.697c0.08-0.04,0.112-0.104,0.112-0.167h0.04c0,0.072-0.008,0.135-0.008,0.207
					c-0.135,2.613-0.255,4.86,0.024,6.151c0.159,0.765,1.068,3.012,2.263,5.609c-0.422,0.12-0.829,0.327-1.331,0.271
					c-1.02-0.12-1.801-0.829-2.398-1.609c-0.032-0.048-0.112-0.008-0.08,0.04c0.542,0.98,1.299,2,2.462,2.239
					c0.263,0.056,0.661,0.064,1.036-0.008c-1.028,0.908-2.645,0.494-3.848-0.151c-0.016,0-0.032,0.008-0.024,0.024
					c0.661,0.924,1.769,1.53,2.916,1.41c0.335-0.04,0.725-0.159,1.092-0.351c-0.096,0.151-0.199,0.287-0.335,0.422
					C140.165,171.581,138.707,171.421,137.544,170.696z M137.656,159.884c-1.896,1.737-2.924,4.948-1.211,7.171
					c0.048,0.072,0.151,0,0.143-0.072c-0.462-2.526-0.534-4.9,1.171-7.012C137.807,159.908,137.711,159.836,137.656,159.884z"/>
			</g>
			<g>
				<path fill="#FFBD52" d="M130.078,155.518c-1.171,1.904-1.896,4.637-0.685,6.693c0.04,0.064,0.167,0.056,0.159-0.032
					c-0.151-2.358-0.422-4.366,0.637-6.589C130.222,155.518,130.126,155.446,130.078,155.518z M126.811,156.777
					c-0.454,2.247,0.367,4.757,2.008,6.302c0.088,0.08,0.239-0.008,0.183-0.127c-0.757-1.554-1.474-3.593-1.362-5.354
					c0.127-1.912,1.785-4.988,3.562-5.769c0.056-0.024,0.024-0.096-0.032-0.088C129.027,152.004,127.21,154.801,126.811,156.777z
					 M134.923,155.096c0.359-0.733,1.076-1.291,1.41-2c0.621,1.219,1.554,2.255,2.916,2.94c0.064,0.04,0.127,0.048,0.191,0.048
					c-0.008,0.08-0.008,0.167-0.016,0.247h-0.04c0-0.12-0.104-0.239-0.247-0.215c-3.538,0.598-4.924,4.231-5.434,7.418
					c-0.151,0.972-0.104,1.848,0.088,2.661c-0.741,0.08-1.45,0.199-2.223,0.08c-0.765-0.127-1.466-0.406-2.111-0.789
					c1.02,0.422,2.143,0.574,3.307,0.335c0.024,0,0.016-0.04-0.008-0.04c-2.295-0.088-4.008-0.98-5.275-2.406
					c-2.502-4.056-2.111-9.115,1.713-12.462c1.849-1.609,5.593-1.88,5.92-4.653c0.056,0.08,0.096,0.159,0.151,0.239
					c-0.112,1.649-0.016,3.346,0.414,4.884c-4.852,1.729-5.753,7.761-4.239,12.151c0.024,0.08,0.135,0.056,0.12-0.024
					c-0.884-4.462,0.104-9.362,4.191-11.864c0.12,0.398,0.271,0.789,0.446,1.163c-0.853,0.175-1.53,1.235-1.912,1.928
					c-0.566,1.044-0.829,2.175-0.494,3.323c0.04,0.135,0.279,0.183,0.311,0.016C134.301,157.064,134.468,156.028,134.923,155.096z"
					/>
			</g>
			<g>
				<path fill="#FFBD52" d="M135.935,142.419c-0.526-3.601-0.263-6.796,1.474-10.27c0.024-0.04-0.024-0.088-0.056-0.048
					c-2.621,2.948-3.49,7.641-1.633,11.211c-0.127,0.606-0.239,1.235-0.327,1.896c-1.012-2.797-1.458-5.713-1.139-8.741
					c0.478-4.502,2.582-7.123,5.785-10.063c0.295,1.052,0.773,2.056,1.458,2.964c0.08,0.096,0.199-0.016,0.159-0.112
					c-0.924-2.454-0.837-5.004-0.008-7.195l1.02,0.367c-0.502,1.323-0.566,2.813-0.112,4.231c0.024,0.056,0.12,0.056,0.12-0.016
					l0.916,0.151c0,0.024-0.008,0.048-0.008,0.072c-0.191,1.362-0.032,3.076,0.661,4.382c-0.685,0.143-1.45,0.621-1.849,0.908
					c-1.418,1.004-2.295,2.462-2.821,4.087c-0.016,0.048,0.064,0.088,0.088,0.04c0.629-1.131,1.506-2.135,2.542-2.932
					c0.51-0.39,1.06-0.797,1.665-1.044c0.303-0.127,0.629-0.167,0.948-0.223c0.016,0.024,0.032,0.048,0.056,0.072
					c0,0.024,0,0.048,0,0.072c-1.825,0.566-3.052,2.852-3.84,4.382c-0.048,0.088,0.064,0.167,0.127,0.088
					c0.661-0.924,1.355-1.833,2.159-2.637c0.343-0.335,0.717-0.606,1.092-0.861c-1.331,2.303-2.303,4.725-2.773,6.741
					c-0.629-0.956-1.602-1.394-2.86-1.028c-0.55,0.167-0.996,0.446-1.37,0.797c-0.064-1.163,0.064-2.319,0.343-3.45
					c0.016-0.072-0.072-0.096-0.096-0.032c-0.574,1.267-0.757,2.566-0.661,3.936C136.492,140.809,136.158,141.606,135.935,142.419z"
					/>
			</g>
			<g>
				<path fill="#FFBD52" d="M171.598,142.148c1.418,0.486,2.566,1.721,3.028,3.147c0.016,0.032,0.072,0.024,0.064-0.008
					c-0.207-1.665-1.426-2.884-3.076-3.187C171.574,142.092,171.566,142.14,171.598,142.148z M175.08,135.439
					c0.008-0.016-0.008-0.04-0.024-0.024c-0.685,0.502-1.41,0.829-2.215,1.092c-0.04,0.016-0.04,0.08,0.008,0.08
					C173.725,136.579,174.554,136.116,175.08,135.439z M176.769,128.77c-0.08,0.072-0.016,0.239,0.104,0.199
					c1.928-0.629,2.996-3.426,1.793-5.131c-0.024-0.032-0.072-0.008-0.072,0.024C178.745,125.894,178.251,127.352,176.769,128.77z
					 M172.96,138.021c2.597-0.064,4.637-2.08,5.673-4.311c0.016-0.032-0.032-0.064-0.056-0.032
					c-1.267,2.215-3.354,3.338-5.625,4.263C172.905,137.957,172.905,138.021,172.96,138.021z M191.613,143.032
					c-0.088,0.072,0.008,0.191,0.104,0.151c3.147-1.418,4.653-5.378,3.267-8.549c-0.032-0.08-0.143-0.024-0.135,0.056
					C195.238,137.997,194.115,140.841,191.613,143.032z M188.633,153.064c3.338,1.139,6.334-2.072,5.267-5.386
					c-0.024-0.056-0.104-0.04-0.096,0.024c0.295,3.076-2.111,5.338-5.139,5.179C188.553,152.873,188.529,153.032,188.633,153.064z
					 M158.905,133.399c-0.088,0.693,0.175,1.442,0.518,2.032c0.024,0.04,0.096,0.016,0.08-0.032
					c-0.199-0.669-0.287-1.347-0.446-2.016C159.033,133.288,158.913,133.32,158.905,133.399z M156.85,120.149
					c-0.024,0.12,0.112,0.191,0.191,0.096c1.052-1.323,1.729-2.773,2.98-3.96c0.12-0.112-0.04-0.279-0.159-0.183
					C158.603,117.113,157.176,118.5,156.85,120.149z M156.316,122.372c0.988,1.355,1.729,2.932,2.008,4.597
					c0.263,1.586-0.008,3.179,0.494,4.725c0.04,0.112,0.231,0.104,0.215-0.024c-0.223-1.801,0.056-3.609-0.398-5.378
					c-0.39-1.554-1.171-2.813-2.231-3.992C156.364,122.253,156.276,122.316,156.316,122.372z M159.567,112.994
					c-2.016,1.235-3.673,3.299-3.928,5.705c-0.008,0.056,0.08,0.064,0.096,0.016c0.908-2.247,1.952-4.119,3.88-5.649
					C159.654,113.034,159.607,112.97,159.567,112.994z M182.323,130.738c0.542,6.016-3.88,10.366-9.84,10.239
					c-0.08-0.008-0.096,0.12-0.016,0.143c6.135,1.657,11.665-4.382,9.912-10.39C182.37,130.698,182.323,130.706,182.323,130.738z
					 M180.498,117.233c0.064,0.04,0.12-0.04,0.08-0.096c-1.108-1.554-3.06-2.597-4.924-2.892c-0.008,0-0.016,0.008-0.008,0.016
					C177.383,115.137,178.873,116.165,180.498,117.233z M172.243,139.208c5.139,1.737,8.717-3.777,8.486-8.318
					c-0.008-0.048-0.088-0.064-0.096-0.008c-0.685,4.406-3.378,8.621-8.382,8.255C172.212,139.128,172.204,139.192,172.243,139.208z
					 M178.267,119.966c4.215,3.203,2.653,8.517-1.506,10.868c-0.056,0.032-0.024,0.127,0.048,0.112
					c5.219-1.267,6.948-8.812,1.506-11.083C178.251,119.838,178.219,119.926,178.267,119.966z M165.439,109.026
					c-5.697-0.223-9.641,3.984-10.9,9.298c-0.008,0.064,0.072,0.112,0.104,0.048c1.235-2.127,2.032-4.502,3.824-6.263
					c1.88-1.841,4.374-2.813,6.972-3.004C165.487,109.098,165.495,109.026,165.439,109.026z M185.9,130.587
					c-0.048,0.032-0.024,0.096,0.032,0.104c1.275,0.135,2.239-0.892,2.749-1.976c0.693-1.474,0.47-3.02,0.072-4.534
					c-0.016-0.08-0.151-0.064-0.143,0.016c0.127,1.243,0.191,2.613-0.223,3.817C187.948,129.272,187.008,129.941,185.9,130.587z
					 M184.163,148.1c1.068,0.884,2.51,0.813,3.745,0.406c0.048-0.016,0.056-0.104,0-0.112c-1.044-0.151-2.303-0.056-3.219-0.629
					c-1.044-0.653-1.235-1.912-1.681-2.956c-0.008-0.016-0.032,0-0.032,0.008C182.92,145.98,183.239,147.335,184.163,148.1z
					 M163.176,117.352c1.952-0.9,5.155-2.08,7.275-1.562c0.016,0,0.032-0.016,0.016-0.032c-2.016-1.362-4.996-0.438-7.083,0.367
					c-2.39,0.932-3.673,2.438-4.765,4.725c-0.024,0.048,0.04,0.127,0.088,0.072C160.005,119.424,161.359,118.181,163.176,117.352z
					 M186.784,138.132c-1.402,2.279-0.701,5.306,1.625,6.613c0.104,0.064,0.239-0.072,0.143-0.167
					c-1.681-1.665-2.398-4.143-1.689-6.406C186.872,138.124,186.808,138.092,186.784,138.132z M185.342,132.316
					c-0.08,0.008-0.127,0.143-0.024,0.159c2.319,0.518,4.438-0.892,5.338-3.036c1.139-2.709-0.016-5.633-1.809-7.737
					c-0.032-0.04-0.096,0.008-0.072,0.048C190.928,125.567,191.199,131.909,185.342,132.316z M172.283,126.778
					c-3.331,1.689-6.996,0.231-10.111-1.179c-0.056-0.032-0.096,0.064-0.048,0.096c3.091,1.864,7.02,3.617,10.549,1.841
					c1.299-0.653,2.343-1.777,2.805-3.179c0.207-0.637,0.295-1.339,0.199-2.008c-0.04-0.319-0.709-1.856-0.789-2.032
					c0,0,0.008,0,0.016,0c0.024-0.024,0.056-0.048,0.088-0.064c0.008-0.008,0.008-0.024,0-0.032
					c-0.112-0.207-0.048-0.167-0.271-0.191c-0.016-0.008-0.04,0.008-0.048,0.024c-0.335,0.566,0.064,0.08-0.032,0.733
					c0.398,0.892,0.486,1.801,0.255,2.733c-0.056,0.199-0.12,0.398-0.175,0.598C174.283,125.336,173.415,126.205,172.283,126.778z
					 M152.42,118.42c0.064,0.008,0.12-0.08,0.056-0.12c-1.131-0.614-2.566-0.797-3.817-0.486c-0.08,0.024-0.072,0.151,0.016,0.159
					C149.966,118.03,151.153,118.165,152.42,118.42z M163.551,121.87c0.518,1.219,2,1.753,3.227,1.378
					c0.183-0.056,0.127-0.311-0.064-0.295c-1.203,0.143-2.183-0.343-3.012-1.187C163.63,121.687,163.511,121.775,163.551,121.87z
					 M179.056,114.046c1.793,1.259,3.593,3.012,5.052,4.653c0.064,0.072,0.183-0.008,0.135-0.096
					c-2.757-4.932-7.298-6.51-12.501-7.792c-0.016-0.008-0.024,0.024-0.008,0.024C174.188,111.815,176.881,112.524,179.056,114.046z
					 M167.925,137.28c-0.04-0.048-0.096,0.008-0.072,0.056c0.183,0.398,0.414,0.749,0.749,1.044
					c0.319,0.295,0.661,0.422,1.068,0.558c0.088,0.032,0.135-0.104,0.056-0.143C169.072,138.427,168.403,137.861,167.925,137.28z
					 M162.642,123.559c2.191,2.964,6.9,3.107,9.45,0.55c0.04-0.04-0.008-0.12-0.056-0.088c-2.972,2.032-6.581,1.705-9.338-0.526
					C162.658,123.464,162.61,123.527,162.642,123.559z M184.091,150.1c1.108,0.964,2.717,0.143,3.745-0.526
					c0.048-0.032,0.024-0.127-0.04-0.104c-0.892,0.255-1.872,0.606-2.813,0.382c-0.215-0.048-0.845-0.406-0.948-0.016
					C184.012,149.924,184.02,150.036,184.091,150.1z M185.024,139.407c-2.008,2.876-0.868,7.354,2.996,7.625
					c0.104,0.008,0.159-0.151,0.064-0.199c-2.685-1.418-4.446-4.406-2.94-7.346C185.191,139.399,185.079,139.327,185.024,139.407z
					 M185.573,129.272c0.55,0,0.956-0.223,1.323-0.637c0.295-0.327,0.542-0.813,0.478-1.267c0-0.008-0.008-0.008-0.016,0
					c-0.263,0.351-0.462,0.717-0.781,1.028c-0.295,0.295-0.677,0.558-1.028,0.781C185.502,129.2,185.518,129.272,185.573,129.272z
					 M165.319,136.379c0.327,1.681,1.578,3.498,3.41,3.713c0.08,0.008,0.096-0.104,0.04-0.143c-1.498-0.884-2.813-1.841-3.315-3.601
					C165.423,136.26,165.304,136.3,165.319,136.379z M155.798,120.101c-1.713-1.41-4.462-1.729-6.271-0.295
					c-0.104,0.08-0.008,0.247,0.112,0.215c2.143-0.59,4.032-0.749,6.135,0.127C155.806,120.165,155.822,120.117,155.798,120.101z
					 M183.167,149.176c-1.1-1.323-1.546-2.605-1.45-4.318c0.008-0.048-0.064-0.064-0.08-0.024c-0.717,1.522-0.048,3.665,1.434,4.462
					C183.151,149.343,183.223,149.239,183.167,149.176z M170.594,141.718c-1.912-0.669-4.056-0.924-5.402-2.582
					c-1.323-1.641-2.319-4.032-2.454-6.111c0-0.016-0.016-0.016-0.016-0.008c-0.422,2.175,0.59,4.812,1.96,6.518
					c1.49,1.864,3.665,2.056,5.888,2.319C170.658,141.869,170.666,141.742,170.594,141.718z M168.873,142.522
					c-2.494,0.112-3.848-0.406-5.267-2.597c-1.809-2.813-2.589-6.382-2.446-9.689c0.008-0.096-0.135-0.088-0.143,0
					c-0.374,3.641,0.191,7.482,2.327,10.549c0.359,0.51,0.773,1.012,1.251,1.434c-1.315-0.414-2.534-1.068-3.466-2.096
					c-2.032-2.199-2.821-5.147-3.179-8.047c-0.374-3.044,0.279-9.099-3.737-9.984c-0.088-0.016-0.151,0.112-0.064,0.159
					c1.299,0.733,1.904,1.896,2.199,3.219c-0.048-0.072-0.104-0.143-0.159-0.207c-3.912-0.765-7.466,1.856-10.119,5.386
					c-0.008,0-0.024,0-0.04,0.008c1.291-2.98,2.813-5.729,6.677-5.952c0.064,0,0.096-0.104,0.016-0.12
					c-3.832-0.725-7.035,2.366-7.713,5.952c-0.446-0.996-0.821-1.984-0.741-3.235c0.143-2.422,1.657-4.534,3.689-5.785
					c0.096-0.056,0.024-0.199-0.08-0.151c-2.279,1.044-3.896,2.892-4.287,5.426l-0.916-0.151c-0.191-3.091,1.187-5.84,3.609-7.697
					c0.064-0.056-0.008-0.135-0.08-0.112c-1.705,0.653-2.932,2-3.538,3.593l-1.02-0.367c1.609-4.319,6.087-7.243,11.306-5.33
					c0.024,0.008,0.04,0.016,0.064,0.024c-0.008,0.223-0.032,0.446-0.024,0.669c0.008,0.167,0.223,0.207,0.287,0.056
					c2.542-6.526,7.8-11.521,15.298-10.079c3.801,0.725,7.394,2.653,10.557,4.836c2.59,1.785,5.665,4.072,6.9,7.051
					c0.008,0.024,0.016,0.048,0.032,0.064c0.438,1.084,0.637,2.247,0.478,3.522c0,0.04,0.064,0.048,0.08,0.008
					c0.398-1.171,0.43-2.271,0.207-3.299c1.115,0.311,2.103,0.789,2.932,1.434c1.179,1.147,2.048,2.669,2.494,4.287
					c0.032,0.199,0.064,0.398,0.08,0.614c0.271,2.964-1.243,5.896-2.829,8.31c-0.016,0.024,0.024,0.056,0.048,0.04
					c1.888-1.036,3.275-3.187,3.801-5.458c0.064,0.645,0.151,1.299,0.064,1.96c-0.191,1.41-0.765,2.717-1.538,3.912
					c-0.04,0.064,0.056,0.127,0.104,0.08c1.084-1.076,1.721-2.382,1.968-3.888c0.08-0.494,0.135-1.092,0.104-1.673
					c0.056,0.12,0.12,0.247,0.159,0.367c0.382,1.092,0.534,2.231,0.151,3.331c-0.016,0.056,0.072,0.096,0.096,0.04
					c0.414-0.956,0.574-1.928,0.359-2.964c-0.04-0.175-0.088-0.359-0.143-0.55c4.526,4.677,2.582,12.685-2.749,16.198
					c-0.112,0.072-0.032,0.231,0.088,0.183c1.012-0.422,1.912-0.98,2.717-1.625c0.08,0.574,0.231,1.147,0.287,1.721
					c0.096,0.948,0.072,1.864-0.064,2.813c-0.008,0.048,0.064,0.072,0.08,0.024c0.311-1.434,0.621-3.386,0.056-4.844
					c0.367-0.311,0.717-0.645,1.036-1.004c1.299,2.813,0.414,6.334-1.49,8.733c-1.689,2.127-4.374,3.076-6.964,3.721
					c0.223-0.892,0.199-1.769-0.47-2.613c-0.223-0.271-0.47-0.478-0.725-0.637c0.518-0.048,0.98-0.12,1.251-0.183
					c1.793-0.406,2.701-2.096,3.147-3.761c0.008-0.024-0.032-0.04-0.048-0.016c-0.837,1.139-1.522,2.382-2.964,2.844
					c-0.741,0.231-1.57,0.287-2.35,0.239c-0.614-0.032-1.131-0.311-1.729-0.367c-0.04,0-0.08,0.04-0.08,0.08
					c0,0.008,0,0.008,0,0.016c-2.223-1.131-3.315-4.295-2.852-6.621c0.016-0.088-0.096-0.12-0.127-0.04
					c-0.717,1.968-0.454,3.912,0.757,5.625c0.367,0.51,0.813,1.012,1.315,1.386c-1.641-0.382-3.139-1.506-4.016-2.94
					c-0.032-0.064-0.127-0.008-0.096,0.056c0.494,1.06,1.888,2.733,3.331,3.307c-3.155-0.223-5.585-3.171-6.956-6.087
					c-0.008-0.016-0.04,0-0.032,0.016c0.693,2.319,1.912,4.374,3.936,5.769c0.765,0.534,1.721,0.956,2.661,1.076
					c-0.287,0.032-0.59,0.032-0.884-0.008c-2.422-0.271-5.163-2.542-6.215-4.111c-1.187-1.793-1.012-4.175-3.044-5.37
					C170.658,142.515,169.805,142.475,168.873,142.522z"/>
			</g>
			<g>
				<path d="M347.493,275.862c-0.064-0.032-0.016-0.12,0.04-0.104c3.577,0.876,7.306,1.761,10.143,4.223
					c1.833,1.594,3.817,2.805,6.35,2.199c1.912-0.454,3.378-1.594,4.637-3.036c0.032-0.04,0.088,0,0.08,0.04
					c-0.884,3.817-5.06,5.394-8.565,4.215c-2.319-0.789-3.267-2.749-5.147-4.111C352.848,277.703,349.923,277.01,347.493,275.862z"
					/>
			</g>
			<g>
				<path d="M286.453,345.835c-0.159,2.191,0.008,3.92,1.681,5.522c1.331,1.259,2.725,2.374,3.976,3.729
					c0.191,0.199-0.048,0.502-0.287,0.374c-2.709-1.418-6.167-3.211-6.653-6.573c-0.279-1.912,0.295-3.824,0.359-5.737
					c0.064-2.08-0.151-4.239-0.9-6.191c-0.024-0.04,0.048-0.072,0.072-0.032C286.142,339.891,286.692,342.528,286.453,345.835z"/>
			</g>
			<g>
				<path d="M191.716,143.184c-0.096,0.04-0.191-0.08-0.104-0.151c2.502-2.191,3.625-5.036,3.235-8.342
					c-0.008-0.08,0.104-0.135,0.135-0.056C196.37,137.806,194.864,141.766,191.716,143.184z"/>
			</g>
			<g>
				<path d="M193.9,147.678c1.068,3.315-1.928,6.526-5.267,5.386c-0.104-0.032-0.08-0.191,0.032-0.183
					c3.028,0.159,5.434-2.103,5.139-5.179C193.796,147.638,193.876,147.622,193.9,147.678z"/>
			</g>
			<g>
				<path d="M188.41,144.745c-2.327-1.307-3.028-4.334-1.625-6.613c0.024-0.04,0.088-0.008,0.08,0.04
					c-0.709,2.263,0.008,4.741,1.689,6.406C188.649,144.674,188.513,144.809,188.41,144.745z"/>
			</g>
			<g>
				<path d="M185.9,130.587c1.108-0.645,2.048-1.315,2.486-2.574c0.414-1.203,0.351-2.574,0.223-3.817
					c-0.008-0.08,0.127-0.096,0.143-0.016c0.398,1.514,0.621,3.06-0.072,4.534c-0.51,1.084-1.474,2.111-2.749,1.976
					C185.876,130.682,185.852,130.619,185.9,130.587z"/>
			</g>
			<g>
				<path d="M185.318,132.475c-0.104-0.016-0.056-0.151,0.024-0.159c5.856-0.406,5.585-6.749,3.434-10.565
					c-0.024-0.04,0.04-0.088,0.072-0.048c1.793,2.103,2.948,5.028,1.809,7.737C189.756,131.583,187.637,132.993,185.318,132.475z"/>
			</g>
			<g>
				<path d="M185.549,129.177c0.351-0.223,0.733-0.486,1.028-0.781c0.319-0.311,0.518-0.677,0.781-1.028
					c0.008-0.008,0.016-0.008,0.016,0c0.064,0.454-0.183,0.94-0.478,1.267c-0.367,0.414-0.773,0.637-1.323,0.637
					C185.518,129.272,185.502,129.2,185.549,129.177z"/>
			</g>
			<g>
				<path d="M190.856,158.275c1.315,4.318-1.012,8.749-5.283,10.095c-0.12,0.04-0.175-0.143-0.072-0.199
					c3.721-2.127,5.601-5.641,5.219-9.888C190.713,158.203,190.832,158.203,190.856,158.275z"/>
			</g>
			<g>
				<path d="M188.601,161.725c-0.088,2.35-1.769,4.446-3.984,5.131c-0.072,0.024-0.127-0.088-0.064-0.135
					c1.825-1.339,3.076-2.932,3.984-5.004C188.553,161.677,188.601,161.685,188.601,161.725z"/>
			</g>
			<g>
				<path d="M185.024,139.407c0.056-0.08,0.167-0.008,0.12,0.08c-1.506,2.94,0.255,5.928,2.94,7.346
					c0.096,0.048,0.04,0.207-0.064,0.199C184.155,146.761,183.016,142.283,185.024,139.407z"/>
			</g>
			<g>
				<path d="M184.984,149.853c0.94,0.223,1.92-0.127,2.813-0.382c0.064-0.024,0.088,0.072,0.04,0.104
					c-1.028,0.669-2.637,1.49-3.745,0.526c-0.072-0.064-0.08-0.175-0.056-0.263C184.139,149.446,184.769,149.805,184.984,149.853z"
					/>
			</g>
			<g>
				<path d="M182.864,249.481c3.099-5.689,3.49-12.422,2.86-18.7c-0.008-0.12,0.175-0.167,0.223-0.064
					c1.355,3.052,1.586,6.47,1.131,9.752c-0.502,3.601-1.912,6.231-4.008,9.139C182.984,249.728,182.785,249.624,182.864,249.481z"
					/>
			</g>
			<g>
				<path d="M184.689,147.765c0.916,0.574,2.175,0.478,3.219,0.629c0.056,0.008,0.048,0.096,0,0.112
					c-1.235,0.406-2.677,0.478-3.745-0.406c-0.924-0.765-1.243-2.119-1.187-3.283c0-0.008,0.024-0.024,0.032-0.008
					C183.454,145.853,183.645,147.112,184.689,147.765z"/>
			</g>
			<g>
				<path d="M181.717,144.857c-0.096,1.713,0.351,2.996,1.45,4.318c0.056,0.064-0.016,0.167-0.096,0.12
					c-1.482-0.797-2.151-2.94-1.434-4.462C181.653,144.793,181.725,144.809,181.717,144.857z"/>
			</g>
			<g>
				<path d="M181.645,152.809c0,0,1.219-0.502,1.434-0.502c0.199,0,1.474-0.255,1.633-0.279c-0.072,0.04-0.39,0.223-0.773,0.502
					c-0.582,0.422-1.323,1.076-1.649,1.856c-0.558,1.323-2.526,4.056-2.645,4.223c0.056-0.191,0.916-3.044,0.709-4.151
					c-0.12-0.637-0.43-1.131-0.693-1.45c-0.207-0.263-0.382-0.414-0.382-0.414l1.442,0.127L181.645,152.809z"/>
			</g>
			<g>
				<path d="M183.526,155.311c-0.598,0.295-1.084,1.331-1.418,1.896c-0.032,0.064-0.064,0.12-0.096,0.183c0,0,0,0,0.008,0
					c0.311-0.135,0.701-0.127,0.988,0.064c0.765,0.534,0.032,1.992-0.247,2.613c-0.016,0.032-0.064,0.008-0.056-0.024
					c0.104-0.359,0.175-0.709,0.207-1.084c0.024-0.263,0.096-0.653-0.04-0.892c-0.287-0.502-0.924-0.048-1.315,0.263
					c-0.223,0.534-0.398,1.076-0.534,1.681c-0.096,0.422-0.135,0.773-0.39,1.147c-0.454,0.661-1.139,0.996-1.928,0.916
					c-0.088-0.008-0.112-0.127-0.016-0.159c0.621-0.151,1.123-0.494,1.514-1.012c0.199-0.55,0.319-1.115,0.367-1.697
					c0.056-0.183,0.112-0.374,0.183-0.558c0.343-0.94,0.972-1.944,1.57-2.741c0.43-0.582,1.578-2.08,2.518-1.546
					c1.02,0.574,0.239,2.813,0.04,3.585c-0.374,1.442-0.972,2.701-2.199,3.601c-0.08,0.056-0.151-0.064-0.096-0.127
					c1.092-1.195,1.673-2.669,1.992-4.231C184.737,156.418,185.398,154.386,183.526,155.311z"/>
			</g>
			<g>
				<path d="M177.908,167.605c0.629,0.606,1.522,0.574,2.271,0.263c0.04-0.016,0.072,0.048,0.032,0.064
					c-0.621,0.343-1.355,0.542-2.056,0.319c-0.263-0.08-0.55-0.239-0.757-0.446c-0.183-0.175-0.311-0.398-0.335-0.645
					c-0.008-0.135,0.127-0.271,0.263-0.263c0.096,0.008,0.127,0.04,0.199,0.104c0.056,0.048,0.04,0.135,0.072,0.191
					c0.008,0.024,0.032,0.04,0.048,0.064C177.717,167.382,177.805,167.501,177.908,167.605z"/>
			</g>
			<g>
				<path d="M178.315,119.862c5.442,2.271,3.713,9.816-1.506,11.083c-0.072,0.016-0.104-0.08-0.048-0.112
					c4.159-2.35,5.721-7.665,1.506-10.868C178.219,119.926,178.251,119.838,178.315,119.862z"/>
			</g>
			<g>
				<path d="M176.769,128.77c1.482-1.418,1.976-2.876,1.825-4.908c0-0.032,0.048-0.056,0.072-0.024
					c1.203,1.705,0.135,4.502-1.793,5.131C176.753,129.009,176.689,128.842,176.769,128.77z"/>
			</g>
			<g>
				<path d="M177.741,170.449c0.072,0.048,0.008,0.143-0.064,0.112c-0.39-0.167-0.749-0.398-1.012-0.749
					c-0.056-0.064-0.12-0.159-0.183-0.263c-0.12-0.215-0.207-0.47-0.04-0.637c0.016-0.016,0.04-0.016,0.064-0.016
					c0.104,0.032,0.175,0.12,0.231,0.215c0.072,0.127,0.12,0.295,0.191,0.414C177.12,169.9,177.383,170.218,177.741,170.449z"/>
			</g>
			<g>
				<path d="M175.654,114.245c1.864,0.295,3.817,1.339,4.924,2.892c0.04,0.056-0.016,0.135-0.08,0.096
					c-1.625-1.068-3.115-2.096-4.852-2.972C175.638,114.253,175.646,114.245,175.654,114.245z"/>
			</g>
			<g>
				<path d="M183.956,171.246c-1.45,1.211-4.103,1.864-5.944,1.442c-0.853-0.191-2.127-0.924-2.446-1.841
					c-0.127-0.351-0.12-0.717,0.104-1.1c0.04-0.064,0.143-0.048,0.167,0.024c0.056,0.175,0.127,0.327,0.191,0.478
					c0.677,1.506,1.856,2.111,3.617,2.064c1.339-0.04,3.139-0.374,4.239-1.155C183.94,171.119,184.004,171.206,183.956,171.246z"/>
			</g>
			<g>
				<path d="M175.056,135.415c0.016-0.016,0.032,0.008,0.024,0.024c-0.526,0.677-1.355,1.139-2.231,1.147
					c-0.048,0-0.048-0.064-0.008-0.08C173.646,136.244,174.371,135.917,175.056,135.415z"/>
			</g>
			<g>
				<path d="M182.976,173.358c-1.609,1.378-3.577,1.673-5.625,1.171c-1.211-0.295-3.163-1.028-3.195-2.414
					c-0.008-0.215,0.032-0.446,0.127-0.701c0.048-0.112,0.199-0.12,0.239,0c0.032,0.12,0.088,0.223,0.135,0.335
					c1.283,2.932,5.864,3.012,8.231,1.498C182.96,173.206,183.032,173.302,182.976,173.358z"/>
			</g>
			<g>
				<path d="M172.953,137.941c2.271-0.924,4.358-2.048,5.625-4.263c0.024-0.032,0.072,0,0.056,0.032
					c-1.036,2.231-3.076,4.247-5.673,4.311C172.905,138.021,172.905,137.957,172.953,137.941z"/>
			</g>
			<g>
				<path d="M185.637,170.298c2.86-1.108,5.617-3.307,6.645-6.287c1.076-3.131,0.088-5.968-1.283-8.764l0.287-0.08
					c4.629,4.04,2.725,11.123-1.92,14.023c0.024,0.183,0.048,0.359,0.056,0.534c0,0.016,0.008,0.024,0.008,0.032h-0.008
					c0.303,7.92-15.234,11.051-16.509,3.131c-0.032-0.207-0.064-0.422-0.08-0.645c-0.008-0.159,0.247-0.191,0.279-0.04
					c0.032,0.175,0.08,0.327,0.127,0.494c1.068,3.848,6.183,4.135,9.474,3.171c3.211-0.94,5.553-3.099,6.079-6.366
					c-0.948,0.494-1.976,0.845-3.099,0.956C185.613,170.465,185.542,170.338,185.637,170.298z"/>
			</g>
			<g>
				<path d="M172.251,139.136c5.004,0.367,7.697-3.848,8.382-8.255c0.008-0.056,0.088-0.04,0.096,0.008
					c0.231,4.542-3.346,10.055-8.486,8.318C172.204,139.192,172.212,139.128,172.251,139.136z"/>
			</g>
			<g>
				<path fill="#FFFFFF" d="M172.745,151.685c1.849,1.163,2.358,2.701,2.358,2.701s-1.402,0.43-2.311,0.518
					c-0.382,0.016-0.996-0.008-1.769-0.151c0.821-0.167,1.53-0.773,1.777-1.641C172.937,152.626,172.905,152.132,172.745,151.685z"
					/>
			</g>
			<g>
				<path d="M172.482,140.977c5.96,0.127,10.382-4.223,9.84-10.239c0-0.032,0.048-0.04,0.056-0.008
					c1.753,6.008-3.777,12.047-9.912,10.39C172.387,141.096,172.403,140.969,172.482,140.977z"/>
			</g>
			<g>
				<path fill="#FFFFFF" d="M171.335,152.307c0.112-0.295,0.39-0.462,0.629-0.374c0.231,0.088,0.343,0.398,0.231,0.693
					c-0.104,0.287-0.382,0.454-0.621,0.374C171.335,152.912,171.231,152.602,171.335,152.307z"/>
			</g>
			<g>
				<path d="M184.107,118.699c-1.458-1.641-3.259-3.394-5.052-4.653c-2.175-1.522-4.868-2.231-7.322-3.211
					c-0.016,0-0.008-0.032,0.008-0.024c5.203,1.283,9.745,2.86,12.501,7.792C184.291,118.691,184.171,118.771,184.107,118.699z"/>
			</g>
			<g>
				<path d="M174.689,145.287c0.008,0.032-0.048,0.04-0.064,0.008c-0.462-1.426-1.609-2.661-3.028-3.147
					c-0.032-0.008-0.024-0.056,0.016-0.048C173.263,142.403,174.482,143.622,174.689,145.287z"/>
			</g>
			<g>
				<path fill="#FFFFFF" d="M165.208,152.076c0.821-0.629,2.223-1.458,3.944-1.482c-0.406,0.303-0.717,0.717-0.868,1.235
					c-0.247,0.868,0.04,1.745,0.637,2.327C167.813,153.733,166.546,153.08,165.208,152.076z"/>
			</g>
			<g>
				<path d="M166.307,144.483c0,0,1.259-0.47,2.892-0.797c0.829,0.096,1.586,0.271,2.183,0.829
					c-1.713,0.239-3.203,0.853-3.761,0.669C166.738,144.905,166.307,144.483,166.307,144.483z"/>
			</g>
			<g>
				<path d="M167.853,137.335c-0.024-0.048,0.032-0.104,0.072-0.056c0.478,0.582,1.147,1.147,1.801,1.514
					c0.08,0.04,0.032,0.175-0.056,0.143c-0.406-0.135-0.749-0.263-1.068-0.558C168.268,138.084,168.036,137.734,167.853,137.335z"/>
			</g>
			<g>
				<path d="M165.527,201.858c0-1.418,0.709-2.414,2.064-2.837c1.155-0.367,2.247-0.398,3.346-0.972
					c0.773-0.406,2.08-1.211,2.382-2.111c0.008-0.032,0.056-0.032,0.072,0c0.446,1.068-1.283,2.319-2.032,2.829
					c-1.864,1.251-4.414,0.924-5.53,3.179C165.758,202.089,165.527,202.017,165.527,201.858z"/>
			</g>
			<g>
				<path d="M168.73,140.092c-1.833-0.215-3.083-2.032-3.41-3.713c-0.016-0.08,0.104-0.12,0.135-0.032
					c0.502,1.761,1.817,2.717,3.315,3.601C168.825,139.989,168.809,140.1,168.73,140.092z"/>
			</g>
			<g>
				<path d="M165.2,150.618c2.86-1.833,6.613-1.753,9.442,0.08c0.016,0.008,0.008,0.04-0.016,0.032
					c-3.052-1.394-6.334-1.386-9.41-0.08C165.192,150.658,165.176,150.626,165.2,150.618z"/>
			</g>
			<g>
				<path d="M172.196,152.626c0.112-0.295,0-0.606-0.231-0.693c-0.239-0.088-0.518,0.08-0.629,0.374
					c-0.104,0.295,0,0.606,0.239,0.693C171.813,153.08,172.092,152.912,172.196,152.626z M165.208,152.076
					c-0.295,0.223-0.51,0.422-0.645,0.55c3.107-3.402,6.581-2.438,8.111-1.546c0.135,0.072,0.263,0.167,0.398,0.255
					c0.008-0.008,0.016-0.016,0.024-0.008c0.231,0.048,0.406,0.183,0.621,0.263c0.287,0.104,0.566,0.12,0.861,0.064
					c0.048-0.008,0.08,0.064,0.032,0.088c-0.223,0.088-0.534,0.143-0.821,0.12c0.327,0.263,0.629,0.542,0.9,0.797
					c0.143,0.008,0.279,0.064,0.438,0.104c0.335,0.088,0.598,0.056,0.916-0.04c0.024-0.008,0.04,0.024,0.024,0.04
					c-0.191,0.247-0.59,0.359-0.956,0.319c0.382,0.39,0.614,0.661,0.614,0.661c0.47,0.271,1.474,0.247,1.474,0.247
					s-0.876,0.542-1.864,0.868c-0.996,0.335-2.558,0.056-2.558,0.056c0.008,0,0.008-0.008,0.016-0.008
					c0.908-0.088,2.311-0.518,2.311-0.518s-0.51-1.538-2.358-2.701c0.159,0.446,0.191,0.94,0.056,1.426
					c-0.247,0.868-0.956,1.474-1.777,1.641c-0.606-0.112-1.315-0.295-2.103-0.598c-0.598-0.582-0.884-1.458-0.637-2.327
					c0.151-0.518,0.462-0.932,0.868-1.235C167.431,150.618,166.029,151.446,165.208,152.076z"/>
			</g>
			<g>
				<path d="M166.714,122.954c0.191-0.016,0.247,0.239,0.064,0.295c-1.227,0.374-2.709-0.159-3.227-1.378
					c-0.04-0.096,0.08-0.183,0.151-0.104C164.531,122.611,165.511,123.097,166.714,122.954z"/>
			</g>
			<g>
				<path d="M172.092,124.109c-2.55,2.558-7.259,2.414-9.45-0.55c-0.032-0.032,0.016-0.096,0.056-0.064
					c2.757,2.231,6.366,2.558,9.338,0.526C172.084,123.99,172.132,124.069,172.092,124.109z"/>
			</g>
			<g>
				<path d="M170.57,141.853c-2.223-0.263-4.398-0.454-5.888-2.319c-1.37-1.705-2.382-4.342-1.96-6.518
					c0-0.008,0.016-0.008,0.016,0.008c0.135,2.08,1.131,4.47,2.454,6.111c1.347,1.657,3.49,1.912,5.402,2.582
					C170.666,141.742,170.658,141.869,170.57,141.853z"/>
			</g>
			<g>
				<path d="M162.172,125.599c3.115,1.41,6.781,2.868,10.111,1.179c1.131-0.574,2-1.442,2.438-2.661
					c0.056-0.199,0.12-0.398,0.175-0.598c0.231-0.932,0.143-1.841-0.255-2.733c0.096-0.653-0.303-0.167,0.032-0.733
					c0.008-0.016,0.032-0.032,0.048-0.024c0.223,0.024,0.159-0.016,0.271,0.191c0.008,0.008,0.008,0.024,0,0.032
					c-0.032,0.016-0.064,0.04-0.088,0.064c-0.008,0-0.016,0-0.016,0c0.08,0.175,0.749,1.713,0.789,2.032
					c0.096,0.669,0.008,1.37-0.199,2.008c-0.462,1.402-1.506,2.526-2.805,3.179c-3.53,1.777-7.458,0.024-10.549-1.841
					C162.077,125.663,162.116,125.567,162.172,125.599z"/>
			</g>
			<g>
				<path d="M165.678,148.195c-0.558,0.614-1.275,0.94-1.888,1.474c-0.733,0.637-1.179,1.578-1.737,2.35
					c-0.04,0.056-0.12,0.016-0.104-0.04c0.263-0.908,0.645-1.737,1.339-2.398c0.677-0.653,1.594-0.908,2.358-1.434
					C165.67,148.132,165.694,148.172,165.678,148.195z"/>
			</g>
			<g>
				<path d="M180.347,229.833c0.04,0.024,0.008,0.072-0.032,0.056c-6.406-2.781-13.139-4.597-20.055-5.601
					c-0.088-0.016-0.064-0.135,0.016-0.143C167.415,223.905,174.355,225.936,180.347,229.833z"/>
			</g>
			<g>
				<path d="M159.423,135.431c-0.343-0.59-0.606-1.339-0.518-2.032c0.008-0.08,0.127-0.112,0.151-0.016
					c0.159,0.669,0.247,1.347,0.446,2.016C159.519,135.447,159.447,135.471,159.423,135.431z"/>
			</g>
			<g>
				<path d="M163.383,116.125c2.088-0.805,5.067-1.729,7.083-0.367c0.016,0.016,0,0.032-0.016,0.032
					c-2.119-0.518-5.322,0.661-7.275,1.562c-1.817,0.829-3.171,2.072-4.47,3.57c-0.048,0.056-0.112-0.024-0.088-0.072
					C159.71,118.564,160.993,117.058,163.383,116.125z"/>
			</g>
			<g>
				<path d="M157.87,153.064c-0.016,0.024-0.064,0.008-0.048-0.024c0.813-2.103,0.829-4.486,0.303-6.661
					c-0.008-0.032,0.032-0.048,0.048-0.016C159.368,148.578,159.152,150.952,157.87,153.064z"/>
			</g>
			<g>
				<path d="M157.591,162.012c-0.056-0.016-0.056-0.112,0-0.12c1.339-0.239,1.426-1.681,1.681-2.765
					c0.008-0.048,0.072-0.032,0.072,0.016c-0.008,0.797,0.159,1.785-0.374,2.462C158.611,162.067,158.133,162.171,157.591,162.012z"
					/>
			</g>
			<g>
				<path d="M156.85,120.149c0.327-1.649,1.753-3.036,3.012-4.048c0.12-0.096,0.279,0.072,0.159,0.183
					c-1.251,1.187-1.928,2.637-2.98,3.96C156.961,120.34,156.826,120.269,156.85,120.149z"/>
			</g>
			<g>
				<path d="M156.316,122.372c-0.04-0.056,0.048-0.12,0.088-0.072c1.06,1.179,1.841,2.438,2.231,3.992
					c0.454,1.769,0.175,3.577,0.398,5.378c0.016,0.127-0.175,0.135-0.215,0.024c-0.502-1.546-0.231-3.139-0.494-4.725
					C158.045,125.304,157.304,123.727,156.316,122.372z"/>
			</g>
			<g>
				<path d="M155.639,118.699c0.255-2.406,1.912-4.47,3.928-5.705c0.04-0.024,0.088,0.04,0.048,0.072
					c-1.928,1.53-2.972,3.402-3.88,5.649C155.718,118.763,155.631,118.755,155.639,118.699z"/>
			</g>
			<g>
				<path d="M155.734,161.613c-1.705-0.661,0.056-2.717,0.701-3.498c0.008-0.008,0.024,0,0.016,0.016
					c-0.39,0.964-1.394,2.366-0.653,3.378C155.838,161.557,155.798,161.645,155.734,161.613z"/>
			</g>
			<g>
				<path d="M165.439,109.026c0.056,0,0.048,0.072,0,0.08c-2.597,0.191-5.091,1.163-6.972,3.004
					c-1.793,1.761-2.589,4.135-3.824,6.263c-0.032,0.064-0.112,0.016-0.104-0.048C155.798,113.01,159.742,108.803,165.439,109.026z"
					/>
			</g>
			<g>
				<path d="M163.606,139.925c1.418,2.191,2.773,2.709,5.267,2.597c0.932-0.048,1.785-0.008,2.613,0.478
					c2.032,1.195,1.856,3.577,3.044,5.37c1.052,1.57,3.793,3.84,6.215,4.111l-0.024,0.239l-1.442-0.127c0,0,0.175,0.151,0.382,0.414
					c-0.693-0.207-1.331-0.462-1.753-0.661c-2.9-1.355-4.653-3.251-5.609-6.279c-0.223-0.717-0.542-1.211-0.916-1.554
					c-0.598-0.558-1.355-0.733-2.183-0.829c-0.932-0.104-1.96-0.112-2.94-0.446c-0.207-0.072-0.398-0.167-0.59-0.263
					c-2.215-0.247-4.191-1.076-5.697-2.669c-0.677-0.725-1.267-1.602-1.729-2.661c-0.956-2.167-1.299-4.526-1.506-6.868
					c-0.135-1.554-0.024-3.394-0.335-5.036c-0.024,0-0.048-0.008-0.072-0.008l0.016-0.263c-0.295-1.323-0.9-2.486-2.199-3.219
					c-0.088-0.048-0.024-0.175,0.064-0.159c4.016,0.884,3.362,6.94,3.737,9.984c0.359,2.9,1.147,5.848,3.179,8.047
					c0.932,1.028,2.151,1.681,3.466,2.096c-0.478-0.422-0.892-0.924-1.251-1.434c-2.135-3.068-2.701-6.908-2.327-10.549
					c0.008-0.088,0.151-0.096,0.143,0C161.017,133.543,161.798,137.112,163.606,139.925z"/>
			</g>
			<g>
				<path d="M155.726,224.279c-0.582-0.008-1.123-0.016-1.657-0.287c-0.048-0.024-0.048-0.112,0-0.127
					c0.542-0.247,1.084-0.231,1.657-0.207c0.462,0.024,1.06-0.008,1.402,0.343c0,0,0,0.008,0,0.016
					C156.77,224.343,156.188,224.279,155.726,224.279z"/>
			</g>
			<g>
				<path d="M153.615,161.008c-0.335-0.916,0.629-1.952,1.227-2.526c0.032-0.032,0.088,0,0.072,0.04
					c-0.191,0.518-0.47,0.996-0.645,1.506c-0.263,0.757,0.024,1.012,0.629,1.386c0.287,0.183,0.55,0.343,0.725,0.566
					c0.374,0.263,0.701,0.614,1.147,0.789c0.821,0.327,1.466-0.064,2.231-0.311c0.056-0.016,0.112,0.064,0.08,0.112
					c-0.064,0.072-0.127,0.143-0.191,0.215c0.239,0,0.494,0.032,0.749,0.056c0.653,0.056,1.187-0.072,1.45-0.757
					c0.175-0.47,0.167-1.044,0.263-1.538c0.008-0.04,0.056-0.024,0.056,0.008c0.072,0.932,0.39,2.374-0.709,2.813
					c-0.685,0.271-1.378,0.048-2.072-0.088c-0.207,0.279-0.558,0.359-0.821,0.614c-0.327,0.327-0.582,0.733-0.693,1.187
					c-0.008,0.04-0.056,0.024-0.064-0.008c-0.143-0.406-0.12-0.837,0.072-1.211c-0.247,0-0.502-0.048-0.621-0.096
					c-0.056-0.016-0.104-0.032-0.143-0.056c-0.024,0.215-0.08,0.422-0.191,0.629c-0.008,0.016-0.032,0.008-0.032-0.016
					c0.008-0.645-0.247-1.251-0.677-1.729c-0.032-0.032-0.04-0.072-0.048-0.112C154.77,162.027,153.894,161.772,153.615,161.008z"/>
			</g>
			<g>
				<path fill="#FFFFFF" d="M155.981,149.303c-1.665,0.096-3.084-0.064-4.247-0.319c0.829-0.151,1.546-0.733,1.817-1.586
					c0.167-0.51,0.135-1.036-0.032-1.506C154.938,146.857,155.647,148.323,155.981,149.303z"/>
			</g>
			<g>
				<path d="M152.993,117.424c-0.008-0.223,0.016-0.446,0.024-0.669c-0.024-0.008-0.04-0.016-0.064-0.024l0.064-0.167
					c0.319-7.33,8.693-12.055,15.425-10.788c4.876,0.924,9.482,3.904,13.218,7.035c2.072,1.737,4.303,3.793,5.052,6.287
					c0.319,0.048,0.637,0.127,0.948,0.215c0.08,0.024,0.159,0.048,0.239,0.072c0.064,0.024,0.127,0.048,0.199,0.072
					c0.709,0.239,1.362,0.59,1.96,1.012c0.072,0.056,0.135,0.104,0.207,0.159c0.064,0.048,0.127,0.088,0.183,0.143
					c1.307,1.028,2.319,2.446,2.844,4.056c0.167,0.51,0.255,1.06,0.295,1.617c0.048,0.351,0.072,0.701,0.088,1.06
					c0.231,0.223,0.422,0.502,0.582,0.813c2.94,1.49,4.414,5.02,4.326,8.31c-0.056,2.319-0.868,4.334-2.199,5.96
					c2.056,2.088,1.259,5.649,0.064,8.135c-1.076,2.255-2.964,3.705-5.163,4.446l-0.287,0.08c-1.1,0.335-2.263,0.518-3.45,0.502
					c-0.016,0.056-0.04,0.112-0.064,0.167c1.777,2.582-0.374,6.151-2.175,8.103c-0.016,0.024-0.048,0-0.032-0.024
					c0.861-1.227,1.673-2.558,2.064-4.016c0.335-1.227,0.183-2.271-0.12-3.378c-0.048,0.127-0.104,0.247-0.151,0.367
					c-1.323,3.044-2.805,6.47-5.561,8.055c0.231-0.215,0.446-0.43,0.629-0.653c0.04-0.04,0.008-0.104-0.048-0.096
					c-0.821,0.191-1.442,0.526-2.183,0.9c-0.478,0.247-0.892,0.438-1.45,0.311c-0.072-0.024-0.167-0.056-0.279-0.104
					c2.47-0.502,4.502-1.888,5.88-4.048c0.637-1.004,0.924-2.056,1.355-3.131c0.47-1.211,3.291-6.549-1.474-5.673
					c0.382-0.279,0.701-0.462,0.773-0.502c-0.159,0.024-1.434,0.279-1.633,0.279c-0.215,0-1.434,0.502-1.434,0.502l-0.924-0.088
					l0.024-0.239c0.295,0.04,0.598,0.04,0.884,0.008c-0.94-0.12-1.896-0.542-2.661-1.076c-2.024-1.394-3.243-3.45-3.936-5.769
					c-0.008-0.016,0.024-0.032,0.032-0.016c1.37,2.916,3.801,5.864,6.956,6.087c-1.442-0.574-2.837-2.247-3.331-3.307
					c-0.032-0.064,0.064-0.12,0.096-0.056c0.876,1.434,2.374,2.558,4.016,2.94c-0.502-0.374-0.948-0.876-1.315-1.386
					c-1.211-1.713-1.474-3.657-0.757-5.625c0.032-0.08,0.143-0.048,0.127,0.04c-0.462,2.327,0.629,5.49,2.852,6.621
					c0-0.008,0-0.008,0-0.016c0-0.04,0.04-0.08,0.08-0.08c0.598,0.056,1.115,0.335,1.729,0.367c0.781,0.048,1.609-0.008,2.35-0.239
					c1.442-0.462,2.127-1.705,2.964-2.844c0.016-0.024,0.056-0.008,0.048,0.016c-0.446,1.665-1.355,3.354-3.147,3.761
					c-0.271,0.064-0.733,0.135-1.251,0.183c0.255,0.159,0.502,0.367,0.725,0.637c0.669,0.845,0.693,1.721,0.47,2.613
					c2.59-0.645,5.275-1.594,6.964-3.721c1.904-2.398,2.789-5.92,1.49-8.733c-0.319,0.359-0.669,0.693-1.036,1.004
					c0.566,1.458,0.255,3.41-0.056,4.844c-0.016,0.048-0.088,0.024-0.08-0.024c0.135-0.948,0.159-1.864,0.064-2.813
					c-0.056-0.574-0.207-1.147-0.287-1.721c-0.805,0.645-1.705,1.203-2.717,1.625c-0.12,0.048-0.199-0.112-0.088-0.183
					c5.33-3.514,7.275-11.521,2.749-16.198c0.056,0.191,0.104,0.374,0.143,0.55c0.215,1.036,0.056,2.008-0.359,2.964
					c-0.024,0.056-0.112,0.016-0.096-0.04c0.382-1.1,0.231-2.239-0.151-3.331c-0.04-0.12-0.104-0.247-0.159-0.367
					c0.032,0.582-0.024,1.179-0.104,1.673c-0.247,1.506-0.884,2.813-1.968,3.888c-0.048,0.048-0.143-0.016-0.104-0.08
					c0.773-1.195,1.347-2.502,1.538-3.912c0.088-0.661,0-1.315-0.064-1.96c-0.526,2.271-1.912,4.422-3.801,5.458
					c-0.024,0.016-0.064-0.016-0.048-0.04c1.586-2.414,3.099-5.346,2.829-8.31c-0.016-0.215-0.048-0.414-0.08-0.614
					c-0.446-1.617-1.315-3.139-2.494-4.287c-0.829-0.645-1.817-1.123-2.932-1.434c0.223,1.028,0.191,2.127-0.207,3.299
					c-0.016,0.04-0.08,0.032-0.08-0.008c0.159-1.275-0.04-2.438-0.478-3.522c-0.016-0.016-0.024-0.04-0.032-0.064
					c-1.235-2.98-4.311-5.267-6.9-7.051c-3.163-2.183-6.757-4.111-10.557-4.836c-7.498-1.442-12.756,3.554-15.298,10.079
					C153.216,117.631,153.001,117.591,152.993,117.424z"/>
			</g>
			<g>
				<path d="M155.432,199.786c-2.096-0.327-3.506-1.602-4.693-3.299c-0.032-0.048,0.04-0.096,0.08-0.056
					c1.267,1.163,2.948,1.833,4.637,2.143c1.386,0.255,2.805-0.12,4.175,0.191c2.143,0.478,2.908,2.589,3.354,4.526
					c0.016,0.072-0.088,0.127-0.12,0.056c-0.876-1.761-1.649-3.195-3.801-3.45C157.854,199.747,156.643,199.978,155.432,199.786z"/>
			</g>
			<g>
				<path fill="#FFFFFF" d="M150.165,146.554c-0.239-0.056-0.382-0.351-0.311-0.653c0.072-0.303,0.335-0.502,0.574-0.446
					c0.247,0.064,0.39,0.351,0.319,0.653C150.675,146.419,150.412,146.61,150.165,146.554z"/>
			</g>
			<g>
				<path d="M149.527,119.807c1.809-1.434,4.558-1.115,6.271,0.295c0.024,0.016,0.008,0.064-0.024,0.048
					c-2.103-0.876-3.992-0.717-6.135-0.127C149.519,120.054,149.424,119.886,149.527,119.807z"/>
			</g>
			<g>
				<path d="M148.659,117.815c1.251-0.311,2.685-0.127,3.817,0.486c0.064,0.04,0.008,0.127-0.056,0.12
					c-1.267-0.255-2.454-0.39-3.745-0.446C148.587,117.966,148.579,117.838,148.659,117.815z"/>
			</g>
			<g>
				<path d="M149.575,166.959c2.119,0,3.068-1.721,4.295-1.721c0.024,0,0.048,0,0.072,0c1.418,0.08,1.53,1.307,1.53,1.307
					c0.55-0.239,0.996-0.382,1.394-0.382c0.845,0,1.442,0.637,2.255,2.358c0.582,1.243,2.159,1.339,2.382,1.339
					c0,0-1.115,0.295-2.311,0.821c-1.004,0.438-2.39,1.952-4.422,1.952c-0.367,0-0.757-0.048-1.163-0.167
					c-2.685-0.741-2.757-2.829-2.98-3.872c-0.223-1.044-1.864-1.713-1.864-1.713C149.049,166.936,149.32,166.959,149.575,166.959z
					 M151.304,168.848c0.199,1.092,0.446,2.462,2.47,3.02c0.335,0.096,0.669,0.143,0.996,0.143c1.243,0,2.215-0.661,3.076-1.243
					c0.382-0.263,0.749-0.502,1.1-0.661c0.183-0.08,0.367-0.151,0.55-0.223c-0.621-0.112-2.263-0.271-2.948-0.327
					c-0.821-0.08-1.976,0.207-1.976,0.207s-0.892-0.932-1.251-1.147c-0.319-0.191-2.056-0.757-2.406-0.868
					c0.143,0.215,0.263,0.454,0.319,0.717C151.256,168.577,151.28,168.704,151.304,168.848z M150.715,167.493
					c0.534,0.04,1.745,0.159,2.215,0.414c0.08,0.04,0.167,0.096,0.255,0.151c-0.072-0.183-0.088-0.374-0.032-0.574
					c0.024-0.056,0.104-0.072,0.135-0.016c0.263,0.478,0.422,0.9,0.845,1.163c0.056,0.024,0.112,0.064,0.159,0.088
					c0.008,0,0.016,0,0.016,0.008c0.096,0.04,0.183,0.056,0.271,0.088c0.693,0.183,1.442,0.024,2.088-0.271
					c0.04-0.024,0.08,0.032,0.04,0.064c-0.223,0.135-0.454,0.255-0.693,0.359c0.151,0.016,0.327,0.04,0.534,0.088
					c0.669,0.143,2.335,0.637,2.948,0.821c-0.367-0.255-0.701-0.598-0.94-1.092c-0.868-1.849-1.323-2-1.689-2
					c-0.271,0-0.621,0.104-1.147,0.327c-0.08,0.04-0.167,0.056-0.247,0.056c-0.112,0-0.223-0.032-0.319-0.088
					c-0.175-0.104-0.287-0.279-0.303-0.478c-0.016-0.159-0.151-0.701-0.94-0.741l-0.04-0.008v0.008
					c-0.343,0-0.741,0.271-1.211,0.582c-0.534,0.359-1.163,0.781-1.984,0.996C150.691,167.453,150.699,167.477,150.715,167.493z"/>
			</g>
			<g>
				<path d="M145.703,137.088c0,0,4.988-0.621,7.984,0.327c1.498,0.478,2.94,1.753,4.008,2.9c1.06,1.147,1.753,2.183,1.753,2.183
					s-0.598,0.088-1.474-0.191s-2.462-3.458-5.179-4.318C150.085,137.12,145.703,137.088,145.703,137.088z"/>
			</g>
			<g>
				<path d="M156.858,147.988c-1.753-2.844-4.43-4.757-7.729-5.386c-0.016,0-0.016-0.032,0.008-0.032
					c3.37,0.143,6.478,2.255,7.753,5.402C156.898,147.988,156.874,148.004,156.858,147.988z"/>
			</g>
			<g>
				<path fill="#FFFFFF" d="M148.093,147.478c-0.709-0.582-1.641-1.713-1.641-1.713s1.283-0.996,3.458-0.948
					c-0.374,0.279-0.669,0.677-0.829,1.155c-0.271,0.861-0.016,1.753,0.574,2.358c-0.717-0.303-1.227-0.621-1.546-0.845
					C148.109,147.486,148.101,147.486,148.093,147.478z"/>
			</g>
			<g>
				<path d="M146.069,130.651c-0.024,0.032-0.056,0.072-0.08,0.104c0.016-0.032,0.032-0.064,0.04-0.096
					C146.046,130.651,146.061,130.651,146.069,130.651z"/>
			</g>
			<g>
				<path d="M149.854,145.901c-0.072,0.303,0.072,0.598,0.311,0.653c0.247,0.056,0.51-0.135,0.582-0.446
					c0.072-0.303-0.072-0.59-0.319-0.653C150.189,145.399,149.926,145.598,149.854,145.901z M150.308,144.347
					c1.777,0.104,5.227,1.227,5.92,5.832c-0.032-0.175-0.112-0.486-0.247-0.876c-0.335-0.98-1.044-2.446-2.462-3.41
					c0.167,0.47,0.199,0.996,0.032,1.506c-0.271,0.853-0.988,1.434-1.817,1.586c-0.813-0.183-1.514-0.414-2.08-0.653
					c-0.59-0.606-0.845-1.498-0.574-2.358c0.159-0.478,0.454-0.876,0.829-1.155c-2.175-0.048-3.458,0.948-3.458,0.948
					s0.932,1.131,1.641,1.713c-0.159-0.072-1.482-0.677-2.088-1.45c-0.606-0.773-1.02-1.633-1.068-1.745
					c0.096,0.064,0.853,0.566,1.355,0.598c0,0,0.351-0.096,0.876-0.215c-0.327-0.167-0.598-0.478-0.621-0.789
					c0-0.024,0.032-0.04,0.048-0.016c0.207,0.255,0.414,0.422,0.733,0.534c0.159,0.056,0.303,0.08,0.43,0.159
					c0.367-0.072,0.773-0.127,1.187-0.167c-0.255-0.143-0.478-0.359-0.614-0.558c-0.032-0.04,0.032-0.08,0.072-0.048
					c0.215,0.207,0.462,0.343,0.749,0.414c0.223,0.056,0.454,0.04,0.669,0.127c0.008,0,0.008,0.008,0.016,0.016
					C149.998,144.339,150.157,144.339,150.308,144.347z"/>
			</g>
			<g>
				<path d="M146.285,118.946c-2.422,1.856-3.801,4.605-3.609,7.697c0,0.072-0.096,0.072-0.12,0.016
					c-0.454-1.418-0.39-2.908,0.112-4.231c0.606-1.594,1.833-2.94,3.538-3.593C146.277,118.811,146.348,118.89,146.285,118.946z"/>
			</g>
			<g>
				<path d="M172.913,172.887c-1.928,1.171-4.597,2.749-7.267,4.199c-0.223,1.02-1.092,4.956-1.856,9.099
					c0.598-0.558,1.418-1.219,2.446-1.833l0.486,0.884c-1.984,1.179-3.084,2.574-3.275,2.837c-0.486,2.844-0.884,5.585-0.932,7.346
					c-0.056,2.231,2.693,3.793,2.693,3.793c-1.323-0.223-3.801-1.315-3.729-3.824c0.08-2.916,1.044-8.302,1.896-12.565
					c-1.665,0.741-8.302,3.354-13.282,0.199c-4.231-2.677-6.294-8.892-7.091-11.975c-0.088-0.183-0.175-0.359-0.263-0.542
					l-0.08-0.04c0.056-0.088,0.096-0.175,0.135-0.271c-0.12-0.526-0.183-0.861-0.191-0.932c0.032,0.056,0.143,0.247,0.303,0.534
					c0.064-0.382,0.024-0.789-0.151-1.211l0.175-0.08c1.912,4.087,4.39,8.788,5.49,9.641c1.96,1.53,5.155,2.199,8.326,1.753
					c3.299-0.454,13.633-6.677,16.724-8.565c1.705-1.052,2.717-3.283,3.593-5.37c-0.183-0.351-0.191-0.821-0.016-1.331
					c0.024-0.056,0.112-0.064,0.127,0c0.064,0.271,0.614,0.59,1.004,0.749c0.112,0.048,0.207,0.08,0.279,0.104
					c0.558,0.127,0.972-0.064,1.45-0.311c0.741-0.374,1.362-0.709,2.183-0.9c0.056-0.008,0.088,0.056,0.048,0.096
					c-0.183,0.223-0.398,0.438-0.629,0.653c-0.853,0.781-1.944,1.458-3.052,1.562c-0.191,0.016-0.367,0.008-0.518-0.016
					c-0.096,0.223-0.199,0.454-0.295,0.685c-0.016-0.024-0.04-0.04-0.048-0.064c-0.032-0.056-0.016-0.143-0.072-0.191
					c-0.072-0.064-0.104-0.096-0.199-0.104c-0.135-0.008-0.271,0.127-0.263,0.263c0.024,0.247,0.151,0.47,0.335,0.645
					c-0.207,0.446-0.43,0.876-0.661,1.307c-0.056-0.096-0.127-0.183-0.231-0.215c-0.024,0-0.048,0-0.064,0.016
					c-0.167,0.167-0.08,0.422,0.04,0.637c-0.143,0.239-0.295,0.478-0.454,0.701c-0.064-0.151-0.135-0.303-0.191-0.478
					c-0.024-0.072-0.127-0.088-0.167-0.024c-0.223,0.382-0.231,0.749-0.104,1.1c-0.279,0.327-0.582,0.629-0.908,0.9
					c-0.048-0.112-0.104-0.215-0.135-0.335c-0.04-0.12-0.191-0.112-0.239,0c-0.096,0.255-0.135,0.486-0.127,0.701
					c-0.048,0.032-0.096,0.072-0.143,0.104c-0.239,0.143-0.502,0.311-0.773,0.478c-0.048-0.167-0.096-0.319-0.127-0.494
					c-0.032-0.151-0.287-0.12-0.279,0.04C172.849,172.465,172.881,172.68,172.913,172.887z"/>
			</g>
			<g>
				<path d="M139.6,151.749c0.008-1.801,0.247-3.641,0.526-5.187c0.096-0.056,0.175-0.08,0.223-0.016
					c0.112,0.112,0.359,0.056,0.351-0.127c-0.024-0.359-0.231-0.446-0.47-0.414c0.127-0.661,0.255-1.259,0.374-1.745
					c0.04,0.088,0.088,0.183,0.135,0.263c0.04,0.064,0.12,0.072,0.167,0.008c0.438-0.526,0.335-1.076-0.016-1.426
					c0.04-0.127,0.064-0.215,0.072-0.247c0.167-0.629,0.414-1.41,0.733-2.311c0.032,0.04,0.064,0.072,0.096,0.112
					c0.08,0.096,0.223-0.016,0.175-0.12c-0.048-0.112-0.104-0.207-0.159-0.311c0.024-0.056,0.048-0.12,0.064-0.175
					c1.147-2.135,2.558-4.94,4.295-7.514c-0.717,1.53-1.402,3.068-2,4.526c-1.012,2.422-1.809,4.605-2.199,6.063v0.016
					c-0.016,0.04-1.307,4.542-1.331,8.605c-0.008,1.609-0.096,3.259-0.175,4.844c-0.127,2.43-0.255,4.725-0.008,5.88
					c0.175,0.829,1.203,3.291,2.478,6.032l-0.175,0.08c-0.032-0.08-0.112-0.112-0.191-0.12c-0.04-0.064-0.104-0.104-0.167-0.135
					c0-0.008,0.008-0.016,0.008-0.032c-0.008-0.048-0.04-0.08-0.088-0.088c-0.215-0.016-0.422,0.024-0.614,0.088
					c-1.195-2.597-2.103-4.844-2.263-5.609c-0.279-1.291-0.159-3.538-0.024-6.151c0-0.072,0.008-0.135,0.008-0.207
					c0.008-0.08,0.008-0.167,0.016-0.247c0.327-0.008,0.55-0.43,0.215-0.669c-0.064-0.048-0.112-0.104-0.175-0.143
					C139.536,154.092,139.592,152.904,139.6,151.749z"/>
			</g>
			<g>
				<path d="M152.722,124.587c0.08,0.016,0.048,0.12-0.016,0.12c-3.864,0.223-5.386,2.972-6.677,5.952
					c-0.008,0.032-0.024,0.064-0.04,0.096c0.024-0.032,0.056-0.072,0.08-0.104c2.653-3.53,6.207-6.151,10.119-5.386
					c0.056,0.064,0.112,0.135,0.159,0.207l-0.016,0.263c-4.223-0.367-7.553,2.948-10.167,6.804
					c-1.737,2.574-3.147,5.378-4.295,7.514l-0.231-0.112c0.47-2.016,1.442-4.438,2.773-6.741c-0.374,0.255-0.749,0.526-1.092,0.861
					c-0.805,0.805-1.498,1.713-2.159,2.637c-0.064,0.08-0.175,0-0.127-0.088c0.789-1.53,2.016-3.817,3.84-4.382
					c0-0.024,0-0.048,0-0.072c-0.024-0.024-0.04-0.048-0.056-0.072c-0.319,0.056-0.645,0.096-0.948,0.223
					c-0.606,0.247-1.155,0.653-1.665,1.044c-1.036,0.797-1.912,1.801-2.542,2.932c-0.024,0.048-0.104,0.008-0.088-0.04
					c0.526-1.625,1.402-3.084,2.821-4.087c0.398-0.287,1.163-0.765,1.849-0.908c-0.693-1.307-0.853-3.02-0.661-4.382
					c0-0.024,0.008-0.048,0.008-0.072c0.39-2.534,2.008-4.382,4.287-5.426c0.104-0.048,0.175,0.096,0.08,0.151
					c-2.032,1.251-3.546,3.362-3.689,5.785c-0.08,1.251,0.295,2.239,0.741,3.235C145.687,126.954,148.89,123.862,152.722,124.587z"
					/>
			</g>
			<g>
				<path d="M140.349,146.546c-0.048-0.064-0.127-0.04-0.223,0.016c-0.335,0.199-0.837,0.916-0.884,0.996
					c-0.223,0.39-0.351,0.797-0.446,1.235c-0.016,0.072-0.12,0.04-0.12-0.024c-0.056-0.861,0.263-1.745,0.861-2.382
					c0.159-0.167,0.446-0.343,0.693-0.382c0.239-0.032,0.446,0.056,0.47,0.414C140.707,146.602,140.46,146.658,140.349,146.546z"/>
			</g>
			<g>
				<path d="M140.604,144.259c-0.207-0.446-0.374-0.908-1.251-0.406c-0.367,0.215-0.765,1.044-0.908,1.394
					c-0.398,0.94-0.574,1.96-0.661,2.964c-0.008,0.104-0.151,0.096-0.159,0c-0.056-1.721-0.12-4.382,1.681-5.338
					c0.574-0.303,1.219-0.143,1.586,0.231c0.351,0.351,0.454,0.9,0.016,1.426c-0.048,0.064-0.127,0.056-0.167-0.008
					C140.691,144.443,140.643,144.347,140.604,144.259z"/>
			</g>
			<g>
				<path d="M136.444,167.055c-1.713-2.223-0.685-5.434,1.211-7.171c0.056-0.048,0.151,0.024,0.104,0.088
					c-1.705,2.111-1.633,4.486-1.171,7.012C136.596,167.055,136.492,167.127,136.444,167.055z"/>
			</g>
			<g>
				<path d="M137.409,132.149c-1.737,3.474-2,6.669-1.474,10.27c0.223-0.813,0.558-1.609,1.06-2.255
					c-0.096-1.37,0.088-2.669,0.661-3.936c0.024-0.064,0.112-0.04,0.096,0.032c-0.279,1.131-0.406,2.287-0.343,3.45
					c0.374-0.351,0.821-0.629,1.37-0.797c1.259-0.367,2.231,0.072,2.86,1.028l0.231,0.112c-0.024,0.048-0.048,0.096-0.08,0.143
					c0.008,0.016,0.016,0.024,0.016,0.032c0.056,0.104,0.112,0.199,0.159,0.311c0.048,0.104-0.096,0.215-0.175,0.12
					c-0.032-0.04-0.064-0.072-0.096-0.112c-0.024-0.024-0.056-0.056-0.08-0.08c-0.04,0.008-0.088-0.024-0.08-0.072
					c0-0.008,0-0.016,0.008-0.016c-3.801-4.103-5.251,5.713-5.291,7.187c-0.088,3.091,0.741,5.8,3.227,7.705
					c0.064,0.04,0.112,0.096,0.175,0.143c0.335,0.239,0.112,0.661-0.215,0.669c-0.064,0-0.127-0.008-0.191-0.048
					c-1.362-0.685-2.295-1.721-2.916-2.94c-0.335,0.709-1.052,1.267-1.41,2c-0.454,0.932-0.621,1.968-0.821,2.98
					c-0.032,0.167-0.271,0.12-0.311-0.016c-0.335-1.147-0.072-2.279,0.494-3.323c0.382-0.693,1.06-1.753,1.912-1.928
					c-0.175-0.374-0.327-0.765-0.446-1.163c-4.087,2.502-5.075,7.402-4.191,11.864c0.016,0.08-0.096,0.104-0.12,0.024
					c-1.514-4.39-0.614-10.422,4.239-12.151c-0.43-1.538-0.526-3.235-0.414-4.884c-0.056-0.08-0.096-0.159-0.151-0.239l-0.12-0.056
					c0.008-0.024,0.024-0.056,0.032-0.08c-4.398-6.565-2.574-16.82,4.9-20.126c-0.598-2.645,0.04-5.49,1.952-7.633
					c2.908-3.267,7.378-3.657,11.139-1.801l-0.064,0.167c-5.219-1.912-9.697,1.012-11.306,5.33
					c-0.829,2.191-0.916,4.741,0.008,7.195c0.04,0.096-0.08,0.207-0.159,0.112c-0.685-0.908-1.163-1.912-1.458-2.964
					c-3.203,2.94-5.306,5.561-5.785,10.063c-0.319,3.028,0.127,5.944,1.139,8.741c0.088-0.661,0.199-1.291,0.327-1.896
					c-1.856-3.57-0.988-8.263,1.633-11.211C137.385,132.061,137.432,132.109,137.409,132.149z"/>
			</g>
			<g>
				<path d="M131.186,257.178c3.418,3.856,3.585,9.203,1.849,13.832c-0.032,0.08-0.175,0.072-0.167-0.024
					c0.343-4.669,0.247-9.45-1.729-13.776C131.13,257.186,131.162,257.154,131.186,257.178z"/>
			</g>
			<g>
				<path d="M129.393,162.211c-1.211-2.056-0.486-4.789,0.685-6.693c0.048-0.072,0.143,0,0.112,0.072
					c-1.06,2.223-0.789,4.231-0.637,6.589C129.56,162.266,129.433,162.274,129.393,162.211z"/>
			</g>
			<g>
				<path d="M128.819,163.079c-1.641-1.546-2.462-4.056-2.008-6.302c0.398-1.976,2.215-4.773,4.358-5.036
					c0.056-0.008,0.088,0.064,0.032,0.088c-1.777,0.781-3.434,3.856-3.562,5.769c-0.112,1.761,0.606,3.801,1.362,5.354
					C129.058,163.071,128.907,163.159,128.819,163.079z"/>
			</g>
			<g>
				<path d="M133.704,163.533c0.51-3.187,1.896-6.82,5.434-7.418c0.143-0.024,0.247,0.096,0.247,0.215
					c0,0.064-0.032,0.127-0.112,0.167c-2.956,1.546-4.223,4.486-4.589,7.697c-0.207,1.809,0.319,3.331,1.123,4.781
					c0.51,0.701,1.084,1.315,1.737,1.721c1.163,0.725,2.621,0.884,3.649-0.112c0.135-0.135,0.239-0.271,0.335-0.422
					c-0.367,0.191-0.757,0.311-1.092,0.351c-1.147,0.12-2.255-0.486-2.916-1.41c-0.008-0.016,0.008-0.024,0.024-0.024
					c1.203,0.645,2.821,1.06,3.848,0.151c-0.374,0.072-0.773,0.064-1.036,0.008c-1.163-0.239-1.92-1.259-2.462-2.239
					c-0.032-0.048,0.048-0.088,0.08-0.04c0.598,0.781,1.378,1.49,2.398,1.609c0.502,0.056,0.908-0.151,1.331-0.271
					c0.191-0.064,0.398-0.104,0.614-0.088c0.048,0.008,0.08,0.04,0.088,0.088c0,0.016-0.008,0.024-0.008,0.032
					c0.064,0.032,0.127,0.072,0.167,0.135c0.08,0.008,0.159,0.04,0.191,0.12c0.175,0.422,0.215,0.829,0.151,1.211
					c-0.159-0.287-0.271-0.478-0.303-0.534c0.008,0.072,0.072,0.406,0.191,0.932c-0.04,0.096-0.08,0.183-0.135,0.271
					c-0.159,0.303-0.382,0.574-0.661,0.813c-0.861,0.765-2.151,1.171-3.171,0.98c-1.984-0.374-3.466-2.191-4.263-4.167
					c-0.247-0.43-0.462-0.884-0.621-1.355c-1.936,0.956-4.597-0.223-6.095-1.538c-1.713-1.498-3.036-3.601-3.171-5.848
					c-0.367-1.474-0.382-3.02,0.064-4.526c0.542-1.841,1.689-3.593,3.211-4.773c1.888-1.482,6.04-1.562,7.043-3.848l0.12,0.056
					c-0.327,2.773-4.072,3.044-5.92,4.653c-3.825,3.346-4.215,8.406-1.713,12.462c1.267,1.426,2.98,2.319,5.275,2.406
					c0.024,0,0.032,0.04,0.008,0.04c-1.163,0.239-2.287,0.088-3.307-0.335c0.645,0.382,1.347,0.661,2.111,0.789
					c0.773,0.12,1.482,0,2.223-0.08C133.6,165.382,133.552,164.505,133.704,163.533z"/>
			</g>
			<g>
				<path d="M92.59,361.571c0.303,0.677,0.183,1.713-0.725,1.729c-0.096,0-0.12-0.151-0.024-0.167
					c0.805-0.143,0.486-1.195,0.104-1.602c-0.199-0.207-0.398-0.271-0.614-0.311c-1.131,1.084-2.239,2.024-3.139,2.534l-0.653-0.629
					l0.016-0.016c-2.438,0.645-4.103-1.673-4.103-1.673l12.063-6.502c0.629-0.637,1.482-0.996,2.382-0.996h8.796l0.335,0.948
					l-0.247,0.088h-8.494c-0.813,0-1.586,0.359-2.111,0.98c-1.06,1.267-2.709,3.147-4.358,4.797
					C92.16,360.949,92.471,361.3,92.59,361.571z"/>
			</g>
			<g>
				<path d="M271.617,257.983c4.621,6.502,11.035,14.414,13.202,17.059c14.406,4.04,28.357,4.844,28.596,4.86
					c11.051,0.582,27.64,2.35,27.807,2.374c8.645,0.948,15.194,4.342,17.115,5.434c-0.096-1.171-0.367-2.271-1.386-3.099
					c-0.064-0.048,0-0.151,0.072-0.128c1.522,0.542,2.135,1.809,2.358,3.346c0.191,1.299,0.072,2.621,0.382,3.912
					c0.311,1.299,0.972,2.47,1.538,3.681c0.406,0.494,0.876,0.9,1.394,1.219c2.39,1.466,5.968,1.155,10.661-0.924
					c6.438-2.844,10.239-2.797,14.198-2.454c1.689,0.143,3.538,0.996,5.482,1.896c2.446,1.123,4.98,2.287,7.075,1.928
					c3.155-0.55,6.008-1.546,6.964-1.896c0.088-0.112,0.183-0.223,0.255-0.351c0.382-0.606,0.582-1.283,0.868-1.928
					c0.008-0.024,0.048-0.016,0.056,0.008c0.183,0.709-0.024,1.49-0.343,2.135c-0.008,0.008-0.016,0.024-0.024,0.04
					c0.016,0.016,0.056,0.032,0.104,0.056c0.446-0.327,0.821-0.733,1.243-1.108c0.04-0.032,0.096,0,0.088,0.056
					c-0.072,0.51-0.327,0.956-0.693,1.307c1.131,0.406,3.283,0.924,4.908-0.207c1.769-1.227,1.976-3.442,1.968-4.43
					c-1.418,0.088-5.203,0.191-6.948-1.036c-0.701-0.494-2.526-1.275-4.629-2.175c-3.649-1.57-8.653-3.705-12.151-6.175
					c-5.394-3.801-25.64-9.92-25.847-9.976l-88.155-37.161c-0.159-0.096-10.007-5.896-15.912-5.896
					c-4.247,0-7.259,1.147-8.629,1.793c0.319,0.175,0.629,0.343,0.948,0.518c1.53,0.853,4.239,5.314,7.609,11.952
					C264.613,247.314,268.485,253.576,271.617,257.983z M147.83,284.921c-0.717,5.912-1.745,13.179-2.876,20.7
					c1.084-2.98,2.837-8,3.418-10.828C148.986,291.814,148.292,287.296,147.83,284.921z M170.929,357.89
					c0.104,0.096,8.039,7.203,20.27,5.195c3.259-0.534,6.255-1.841,9.019-3.705c2.542-2.064,5.267-4.669,7.298-6.693
					c5.354-6.318,9.442-14.485,12.366-21.752c4.032-10.015,9.099-27.13,12.462-39.034c-0.088-2.119-0.215-6.063-0.215-10.493
					c0-5.123,1.96-12.493,2.837-15.402c0.151-8.94,1.793-15.975,1.817-16.079c0,0-2.51,15.354,0.303,29.273
					c2.064,10.207,9.386,17.625,17.864,26.222c3.211,3.259,6.534,6.621,9.84,10.398c11.426,13.035,16.621,23.736,16.621,28.166
					c0,1.402-0.876,2.876-1.896,4.581c-1.936,3.227-4.127,6.892-1.602,11.665c2.805,5.314,5.115,6.494,8.621,8.286
					c1.394,0.709,2.98,1.522,4.82,2.709c3.976,2.566,4.669,5.322,5.275,7.753c0.406,1.633,0.789,3.163,2.127,4.51
					c2.9,2.892,6.119,4.916,7.067,5.482c-0.04-0.566,0.064-1.131,0.319-1.546c0.016-0.032,0.048-0.024,0.056,0
					c0.247,0.669,0.143,1.426,0.359,2.111c0.04,0.135,0.104,0.263,0.167,0.382c0.741,0.861,2.669,2.494,6.948,3.171
					c1.378,0.223,2.821,0.295,4.215,0.287c-0.088-0.335-0.151-0.669-0.303-0.988c-0.127-0.271-0.279-0.478-0.454-0.653
					c-0.55,0.287-1.426,0.135-1.928-0.032c-0.024-0.008-0.024-0.048,0.008-0.048c0.43,0.016,0.868-0.04,1.291-0.135
					c0.096-0.016,0.191-0.048,0.279-0.072c-0.279-0.199-0.606-0.351-0.972-0.51c-1.187-0.502-2.088-1.243-2.916-2.223
					c-0.016-0.024,0.008-0.064,0.04-0.04c0.876,0.534,1.841,0.948,2.805,1.315c0.629,0.239,1.291,0.454,1.817,0.892
					c0.653,0.55,1.259,1.594,1.084,2.486c1.474-0.048,2.9-0.175,4.143-0.335c-0.008-0.709-0.454-1.259-1.06-1.721
					c-0.621,0.303-1.538,0.215-2.103,0.032c-0.016,0-0.008-0.032,0.008-0.032c0.494,0.032,0.988-0.04,1.466-0.183
					c0.08-0.032,0.159-0.064,0.239-0.096c-0.773-0.494-1.681-0.861-2.263-1.171c-1.036-0.566-1.96-1.315-2.374-2.454
					c-0.016-0.04,0.04-0.064,0.072-0.04c1.012,0.932,1.896,1.466,3.195,1.912c0.805,0.279,1.617,0.574,2.295,1.108
					c0.94,0.733,1.267,1.625,0.94,2.59c2.151-0.295,3.705-0.653,3.976-0.725c-0.024-0.621-0.303-1.163-0.693-1.649
					c-0.223,0.303-0.645,0.502-0.98,0.598c-0.574,0.175-1.163,0.072-1.705-0.167c-0.064-0.032-0.016-0.135,0.048-0.12
					c0.518,0.143,1.052,0.072,1.554-0.112c0.295-0.112,0.55-0.335,0.821-0.494c-0.072-0.08-0.135-0.159-0.215-0.231
					c-0.653-0.614-1.498-0.669-2.263-1.044c-1.243-0.606-2.032-1.665-2.709-2.813c-0.024-0.048,0.032-0.088,0.072-0.056
					c0.876,0.757,1.753,1.689,2.797,2.191c0.868,0.414,1.745,0.422,2.486,1.084c0.837,0.749,1.625,1.785,1.179,2.773
					c0.725-0.024,1.37-0.191,1.944-0.454c0.661-0.59,1.243-1.211,1.219-2.207c-0.008-0.43-0.104-0.765-0.255-1.036
					c-0.112,0.143-0.239,0.271-0.374,0.382c-0.478,0.39-1.076,0.502-1.681,0.422c-0.064-0.008-0.072-0.096,0-0.104
					c0.542-0.048,1.004-0.335,1.378-0.709c0.135-0.127,0.239-0.279,0.343-0.43c-0.629-0.574-1.657-0.693-2.59-0.813
					c-1.641-0.207-2.9-0.773-4.079-1.944c-0.04-0.048,0.016-0.12,0.072-0.088c0.948,0.534,2.016,0.924,3.091,1.1
					c0.773,0.128,1.554,0.048,2.319,0.183c0.98,0.175,1.841,0.789,2.295,1.681c0.303,0.59,0.367,1.331,0.231,2.016
					c0.821-1.02,1.251-2.215,1.251-3.06c0-0.598-0.327-1.076-0.845-1.45c-0.08,0.127-0.183,0.247-0.295,0.343
					c-0.327,0.287-0.725,0.398-1.147,0.486c-0.064,0.016-0.104-0.072-0.048-0.104c0.351-0.167,0.629-0.486,0.853-0.797
					c0.056-0.072,0.104-0.151,0.151-0.231c-0.988-0.502-2.398-0.741-3.745-0.741c-2.637,0-5.299-1.793-6.773-4.573
					c-1.283-2.43-4.86-12.111-7.49-20.31c-2.534-7.864-12.167-21.808-12.27-21.951l-0.056-0.104
					c-13.768-35.257-41.384-102.823-47.384-106.154c-8.055-4.478-15.537-6.589-32.078,9.952
					c-10.286,10.286-25.09,28.971-37.074,47.217c-3.41,5.689-7.418,12.342-10.796,17.848c-4.032,7.402-7.075,14.167-8.486,19.545
					C159.383,348.432,170.809,357.794,170.929,357.89z M126.23,214.742c5.155,1.378,9.593,3.737,12.836,5.824
					c-1.378-1.362-2.789-2.685-4.255-3.944c-5.673-4.836-13.059-7.96-20.605-6.247c-0.064,0.016-0.096-0.08-0.032-0.104
					c7.378-2.414,14.78,0.701,20.78,5.036c3.195,2.303,6.071,5.115,8.741,8c1.115,1.219,2.103,2.574,2.661,4.151
					c0.653,1.872,0.725,3.96,1.052,5.904c0.016,0.08-0.104,0.12-0.127,0.032c-0.494-1.88-1.195-3.761-2.127-5.506
					c0.47,4.422,1.02,9.808,1.554,15.37c1.315,1.984,2.502,3.896,4.366,5.474c2.207,1.856,4.526,2.972,7.211,3.96
					c0.016,0.008,0.016,0.032-0.008,0.032c-2.868-0.088-5.8-1.378-7.992-3.203c-0.821-0.685-2.327-2.056-3.315-3.498
					c0.606,6.374,1.155,12.772,1.514,18.023c0.367,0.701,0.677,1.434,1.084,2.103c0.677,1.116,1.506,2.135,2.438,3.052
					c1.92,1.864,4,2.964,6.422,4.04c0.008,0.008,0.008,0.032-0.008,0.032c-2.597-0.255-5.179-1.657-7.067-3.418
					c-0.892-0.845-1.92-1.96-2.701-3.187c0.151,2.55,0.239,4.725,0.239,6.326c0,0.534-0.024,1.171-0.064,1.904
					c-0.088,1.617-0.279,3.681-0.534,6.079l0.08-0.239c0,0,12.621,2.582,22.087,0c0,0,1.187-0.263,3.028-0.773
					c-8.079,0.773-16.238-0.414-23.13-4.948c-0.024-0.016-0.032-0.04-0.032-0.064c0-0.048,0.048-0.096,0.104-0.064
					c5.561,3.123,12.302,3.976,18.597,3.801c4.422-0.12,8.757-0.924,13.107-1.657c2.685-1.108,5.386-2.454,7.609-4.04
					c1.474-2.526,1.625-5.713,0.677-8.454c-0.008-0.016,0.016-0.024,0.024-0.008c1.275,1.833,1.825,3.88,1.602,5.904
					c0.359-0.335,1.036-1.211,1.036-3.179c0-3.083,1.347-15.266,3.697-19.561c0.374-0.693,0.837-1.458,1.323-2.263
					c2.574-4.247,6.087-10.063,5.307-17.895c-0.614-6.151-6.589-11.234-10.493-13.936c-0.175,0.55-0.51,0.829-0.94,1.355
					c-0.693,0.853-1.283,1.777-1.825,2.733c-1.06,1.888-1.649,3.92-2.231,5.984c-0.008,0.032-0.056,0.024-0.056-0.008
					c-0.032-2.127,0.558-4.183,1.45-6.103c0.606-1.291,1.697-3.617,3.163-4.263c-1.1-0.741-1.992-1.267-2.494-1.554
					c-1.06,1.944-5.155,9.8-5.808,15.983l-0.088,0.813l-0.701-0.422c-0.151-0.096-15.943-9.426-34.923-6.247l-0.223,0.04
					c0.542,1.347,0.932,2.749,1.171,4.207c0.008,0.096-0.127,0.183-0.175,0.072c-1.331-3.131-2.709-6.239-4.279-9.258
					c-3.936-5.753-11.442-15.115-20.174-18.023c-9.33-3.115-13.155-0.51-14.533,1.123c6.398-2.781,15.051,0.701,19.911,5.091
					c0.056,0.056-0.024,0.159-0.088,0.112c-3.203-2.311-7.091-3.386-10.9-4.199c-3.649-0.781-7.059-0.55-10.454,0.677
					c-0.645,0.414-1.705,1.243-2.558,2.558c0.749-0.462,1.586-0.797,2.311-0.988c3.06-0.837,6.414-0.725,9.466,0.024
					c0.096,0.024,0.056,0.167-0.04,0.151c-2.597-0.518-5.426-0.207-8,0.319c-2.183,0.446-3.482,1.323-4.757,2.757
					c-0.199,0.717-0.327,1.514-0.327,2.398c0,4.629,6.071,7.195,7.633,7.776C113.354,215.547,116.876,212.232,126.23,214.742z
					 M137.703,350.775c-0.008,4.844-1.251,9.641-10.143,11.928c-4.095,1.06-6.812,1.068-8.804,1.076
					c-2.35,0.008-3.649,0.008-5.299,1.657c-1.203,1.211-2.59,1.609-3.888,1.609c-2.542,0-4.773-1.522-4.805-1.546l-0.438-0.303
					l2.135-2.94l-6.956-1.49c-0.924,0.996-4.661,4.82-7.641,4.82c-3.307,0-5.131-1.49-5.211-1.554l0.884-0.908l0.653,0.629
					c0.757,0.366,2,0.797,3.673,0.797c2.398,0,5.912-3.394,7.067-4.701l0.199-0.231l8.334,1.785c1.275-2.032,2.94-4.04,4.876-5.075
					c2.566-1.37,5.617-0.582,8.239-1.944c0.04-0.016,0.096,0.024,0.072,0.064c-1.41,1.968-4.159,1.88-6.279,2.502
					c-1.92,0.558-3.012,1.992-4.287,3.426c-0.127,0.135-0.247,0.263-0.367,0.39c1.721,0.614,1.02,3.338-0.542,3.657
					c-0.048,0.008-0.088-0.064-0.04-0.088c0.558-0.279,1.362-1.594,0.821-2.255c-0.351-0.151-0.693-0.303-1.036-0.454
					c-0.207,0.151-0.398,0.319-0.566,0.51c-0.231,0.231-0.446,0.478-0.661,0.725c-0.478,0.558-0.988,1.657-1.665,2.183
					c1.339,0.717,4.406,1.944,6.693-0.343c1.952-1.952,3.577-1.96,6.032-1.968c1.928-0.008,4.573-0.016,8.549-1.036
					c8.637-2.231,9.362-6.836,9.362-10.972l0.008-0.088c0.112-0.653,11.179-65.781,11.179-77.645c0-8.637-2.55-33.871-3.96-47.169
					c-0.255-0.359-0.518-0.709-0.789-1.052c-2.271-1.88-8.757-6.781-17.147-9.027c-9.219-2.47-12.286,1.044-12.78,1.721
					c0.08,1.482,0.207,2.956,0.43,4.39c2.255,14.979,11.92,41.225,12.015,41.488l0.048,0.12l-0.016,0.128
					c-0.016,0.135-1.721,13.848-1.721,23.17c0,8.892-1.02,56.523-1.131,61.782c2.159-0.637,4.55-0.733,6.406-2.08
					c0.056-0.032,0.096,0.04,0.064,0.08c-1.394,1.617-3.227,2.231-5.235,2.765c-1.737,0.47-3.45,0.932-5.163,1.434l-11.848,4.143
					l-0.335-0.948l15.067-5.307c0.096-4.669,1.139-52.93,1.139-61.869c0-8.908,1.538-21.76,1.705-23.17
					c-0.717-1.952-9.832-27.019-12.031-41.576c-0.207-1.386-0.327-2.829-0.398-4.295c-1.57-0.558-8.398-3.323-8.398-8.788
					c0-5.426,3.992-7.912,4.9-8.414c0.367-0.749,1.968-3.402,6.518-3.992c2.255-6.35,5.633-11.354,9.776-12.948
					c5.044-1.936,10.095-0.223,13.641,1.825c3.864-1.785,3.681-10.262,3.386-14.127c0.279-0.239,0.502-0.51,0.661-0.813l0.08,0.04
					c0.327,3.434,0.805,12.812-3.338,15.378c2.597,1.641,4.199,3.338,4.064,3.482c-0.096-0.08-9.92-7.545-18.158-4.797
					c-3.625,1.211-6.836,5.793-9.051,11.872c2.263-0.12,5.163,0.247,8.86,1.482c12.43,4.143,22.063,20.294,23.537,22.867
					c15.609-2.494,29.026,3.251,33.6,5.546c-1.976-2.629-4.303-4.749-6.86-6.932c-2.597-2.215-4.916-4.844-5.84-8.199
					c-0.008-0.032,0.04-0.056,0.056-0.024c1.729,3.633,5.219,5.864,8.215,8.358c2.175,1.817,4.589,3.928,5.506,6.693
					c1.076-6.271,4.852-13.378,5.785-15.075c-1.179-1.02-5.179-4.709-7.84-10.023c0,0,1.809,1.944,3.777,4.072
					c1.1-7.928-0.813-19.425-8.685-21.258c-4.263-0.996-7.482,0.016-9.641,1.291l-0.486-0.884c2.358-1.378,5.832-2.478,10.366-1.426
					c8.892,2.072,10.804,14.7,9.354,23.25c2,2.151,3.92,4.223,4.119,4.43c1.084,0.574,13.418,7.322,14.366,16.82
					c0.821,8.191-2.956,14.422-5.45,18.549c-0.478,0.797-0.94,1.546-1.307,2.215c-2.167,3.976-3.57,15.848-3.57,19.067
					c0,2.805-1.243,3.896-1.689,4.191l-0.382,0.669v3.84c10.039-14.047,20.804-27.154,28.819-35.169
					c15.569-15.577,23.712-14.924,31.225-11.227c0.932-0.526,4.406-2.247,9.776-2.247c6.191,0,15.967,5.753,16.382,6l88.035,37.114
					c0.789,0.231,20.565,6.207,26.102,10.103c3.41,2.406,8.35,4.526,11.952,6.071c2.255,0.964,4.032,1.721,4.82,2.279
					c1.506,1.06,5.418,0.948,6.796,0.805l0.502-0.048l0.064,0.51c0.016,0.159,0.438,3.944-2.382,5.904
					c-2.478,1.729-5.681,0.454-6.549,0.056c-0.151,0.056-0.382,0.143-0.669,0.247c-0.175,0.127-0.367,0.223-0.574,0.247
					c-0.032,0.008-0.072,0-0.104-0.016c-1.394,0.47-3.57,1.115-5.944,1.53c-2.43,0.422-5.099-0.813-7.689-2.008
					c-1.864-0.861-3.633-1.673-5.139-1.809c-3.952-0.335-7.466-0.374-13.689,2.374c-2.884,1.275-5.402,1.912-7.529,1.912
					c-1.586,0-2.948-0.351-4.095-1.052c-2.374-1.45-3.721-4.39-4.008-8.733c-1.291-0.765-7.992-4.502-17.043-5.498
					c-0.159-0.016-16.716-1.785-27.744-2.366c-0.287-0.016-20.501-1.179-37.592-7.816c12.294,28.524,25.138,61.351,26.238,64.164
					c0.741,1.076,9.84,14.326,12.366,22.174c2.621,8.151,6.159,17.752,7.426,20.134c1.275,2.414,3.625,4.032,5.848,4.032
					c3.044,0,6.111,1.092,6.111,3.53c0,2.542-2.406,6.079-6.334,6.111c-0.606,0.151-4.948,1.163-9.713,1.163
					c-1.394,0-2.821-0.088-4.199-0.303c-5.769-0.924-7.649-3.49-8.047-4.151c-0.725-0.422-4.231-2.542-7.442-5.753
					c-1.546-1.546-1.984-3.291-2.406-4.988c-0.59-2.358-1.195-4.797-4.82-7.131c-1.809-1.163-3.362-1.96-4.733-2.661
					c-3.554-1.809-6.119-3.123-9.075-8.717c-2.797-5.299-0.343-9.402,1.633-12.701c0.94-1.57,1.753-2.924,1.753-4.04
					c0-3.044-3.426-12.708-16.366-27.481c-3.291-3.753-6.597-7.107-9.8-10.35c-8.151-8.263-15.25-15.465-17.776-25.146
					c-2.111,7.84-9.88,36.134-15.577,50.308c-2.701,6.709-6.39,14.167-11.147,20.302c-2.215,4.326-8.757,13.951-24.62,18.326
					c-20.039,5.53-44.261-5.585-47.057-21.106C137.863,349.842,137.751,350.504,137.703,350.775z"/>
			</g>
		</g>
	</g>
</g>
</svg>
