<?xml version="1.0" encoding="utf-8"?>
<!-- Generator: Adobe Illustrator 26.5.0, SVG Export Plug-In . SVG Version: 6.00 Build 0)  -->
<svg version="1.1" id="Layer_1" xmlns="http://www.w3.org/2000/svg" xmlns:xlink="http://www.w3.org/1999/xlink" x="0px" y="0px"
	 viewBox="0 0 1000 1000" style="enable-background:new 0 0 1000 1000;" xml:space="preserve">
<style type="text/css">
	.st0{fill:#010101;}
</style>
<g>
	<g>
		<g>
			<g>
				<g>
					<g>
						<path class="st0" d="M288.6,258.1c-0.2-0.3-0.4-0.6-0.7-0.9c-3-4-7.5-6.8-12.6-7.8v-4h-2.1c0.6-0.6,1-1.4,1-2.3
							c0-1.3-0.8-2.4-1.9-2.8v-35.9h-2v35.8c-1.3,0.4-2.2,1.5-2.2,2.9c0,0.9,0.4,1.7,1,2.3h-1.8v4c-4.3,0.8-8.2,3-11.1,6.1
							c-0.1,0.1-0.3,0.3-0.4,0.4c-3.3,3.7-5.4,8.6-5.4,13.9c0,11.5,9.4,20.9,20.9,20.9c6.6,0,12.5-3.1,16.4-7.9
							c0.3-0.4,0.6-0.8,0.9-1.2c2.3-3.3,3.6-7.4,3.6-11.7C292.3,265.5,290.9,261.4,288.6,258.1z M272.8,251.2c0.1,0,0.2,0,0.2,0
							c4.4,0.4,8.3,2.3,11.3,5.2c0.1,0.1,0.2,0.2,0.4,0.4c0.2,0.2,0.5,0.5,0.7,0.7c0.1,0.1,0.2,0.2,0.3,0.4c0.1,0.1,0.1,0.1,0.1,0.2
							c0.1,0.2,0.3,0.3,0.4,0.5c0.1,0.1,0.1,0.2,0.2,0.3c0,0,0,0,0,0c0.1,0.2,0.3,0.4,0.4,0.5c0.1,0.1,0.1,0.2,0.2,0.3c0,0,0,0,0,0
							c-0.2,0-0.3,0.1-0.5,0.2c-0.6,0.4-1.3,0.8-1.9,1.1l-0.3,0.2l0-0.1c0.1-0.3,0.2-0.6,0.2-0.9c0.1-0.5-0.1-1-0.5-1.2
							c-0.2-0.1-0.4-0.2-0.6-0.2c-0.3,0-0.5,0.1-0.7,0.3c-0.2,0.1-0.3,0.3-0.3,0.6c-0.1,0.4-0.2,0.9-0.3,1.3l-0.2,0.8
							c-0.1,0.3-0.2,0.7-0.3,1c-0.7,0.4-1.3,0.8-2,1.1c0.1-0.5,0.9-3.5,0.9-3.5c0.1-0.4,0.2-0.7,0.3-1.1c0.1-0.4,0-0.7-0.2-1
							c-0.2-0.2-0.5-0.4-0.8-0.4c-0.1,0-0.2,0-0.2,0c-0.4,0.1-0.7,0.4-0.8,0.8c-0.1,0.4-0.2,0.8-0.3,1.1l-0.1,0.4
							c-0.5,1.7-0.9,3.5-1.4,5.2c-1.1,0.6-2.1,1.2-3.1,1.8c-0.4-0.4-0.8-0.6-1.3-0.8c0-1.2,0-2.5,0-3.8c1.3-1.3,2.6-2.6,4-4l0.7-0.7
							c0.4-0.4,0.4-0.8,0.3-1c-0.1-0.5-0.6-0.9-1.1-0.9c-0.3,0-0.5,0.1-0.7,0.3c0,0-0.1,0.1-0.1,0.1c0,0-2.1,2.1-3.1,3.1v-0.1
							c0-0.7,0-1.5,0-2.2c0.3-0.3,0.7-0.7,1-1c0.4-0.4,0.8-0.8,1.2-1.2c0.1-0.1,0.1-0.1,0.1-0.2c0.2-0.3,0.2-0.6,0.2-0.9
							c-0.1-0.4-0.4-0.7-0.8-0.8c-0.1,0-0.2,0-0.3,0c-0.3,0-0.6,0.1-0.8,0.3c0,0-0.5,0.5-0.7,0.7v-2.4c0-0.2,0-0.4-0.1-0.5
							C272.6,251.2,272.7,251.2,272.8,251.2z M256.5,258.6C256.5,258.6,256.5,258.6,256.5,258.6c0.2-0.2,0.3-0.4,0.4-0.6
							c0.3-0.4,0.6-0.8,1-1.1c0.1-0.1,0.2-0.2,0.3-0.3c0.2-0.2,0.5-0.4,0.7-0.7c0.1-0.1,0.2-0.2,0.3-0.2c0.1-0.1,0.2-0.1,0.2-0.2
							c0.1-0.1,0.2-0.2,0.3-0.2c0.3-0.2,0.6-0.5,0.9-0.7c0.3-0.2,0.6-0.4,0.9-0.6c2.7-1.7,5.8-2.7,9.1-2.9c-0.1,0.2-0.1,0.4-0.1,0.6
							v2.6c-0.3-0.2-0.5-0.5-0.7-0.7c-0.3-0.3-0.6-0.4-0.8-0.4c-0.1,0-0.2,0-0.3,0c-0.4,0.1-0.6,0.4-0.7,0.7c-0.1,0.2-0.1,0.4,0,0.6
							c0,0.1,0.1,0.3,0.2,0.4c0,0,0.1,0.1,0.1,0.1l0.6,0.6c0.6,0.6,1.1,1.1,1.7,1.7v2.3c-1.1-1.1-2.2-2.2-3.3-3.3
							c-0.2-0.2-0.5-0.4-0.8-0.4c0,0-0.1,0-0.1,0c-0.4,0-0.7,0.3-0.9,0.7c-0.2,0.4-0.1,0.8,0.2,1.1c0,0,0.1,0.1,0.1,0.1l0.7,0.7
							c1.4,1.4,2.8,2.8,4.2,4.2v3.6c-0.5,0.1-1,0.4-1.4,0.7c-1-0.6-2.1-1.2-3.2-1.9c-0.6-2.1-1.1-4.2-1.7-6.3l0,0c0,0,0-0.1,0-0.1
							l0,0c-0.2-0.5-0.6-0.7-1-0.7c-0.1,0-0.2,0-0.3,0c-0.6,0.2-0.9,0.7-0.8,1.3c0.1,0.5,0.3,1,0.4,1.5l0.1,0.3l0.7,2.5l0,0
							c-0.6-0.4-1.3-0.8-2-1.1c-0.3-1-0.5-2-0.8-3c-0.1-0.5-0.6-0.8-1.1-0.8c-0.1,0-0.2,0-0.4,0.1c-0.5,0.2-0.8,0.7-0.7,1.3
							c0.1,0.3,0.2,0.7,0.3,1c0,0-0.6-0.3-0.9-0.5l-0.3-0.2c-0.3-0.2-0.6-0.4-0.9-0.5c-0.1-0.1-0.3-0.1-0.4-0.1
							C256,259.3,256.3,258.9,256.5,258.6z M254.7,278.2c-0.6-1.1-1-2.3-1.3-3.5c-0.2-0.7-0.3-1.4-0.4-2.2c-0.1-0.9-0.2-1.8-0.2-2.7
							c0-1.2,0.1-2.4,0.3-3.5c0.2-1.2,0.6-2.4,1.1-3.6c0.2-0.5,0.4-1,0.7-1.5c0.1,0.1,0.2,0.2,0.3,0.3c0.4,0.2,0.7,0.4,1.1,0.6
							c0.2,0.1,0.4,0.2,0.6,0.4c0,0,0.5,0.3,0.6,0.3c-0.4,0.1-0.7,0.2-1.1,0.3c-0.5,0.1-0.8,0.6-0.8,1.1c0,0.5,0.4,0.9,0.8,1
							c0.1,0,0.2,0,0.3,0c0.1,0,0.2,0,0.3,0l2.6-0.7l0.1,0c0.1,0,0.2-0.1,0.3-0.1c0.6,0.4,1.3,0.7,1.9,1.1l0.1,0.1l-4.6,1.2
							c-0.6,0.2-1,0.7-0.8,1.3c0.1,0.5,0.5,0.9,1.1,0.9c0.1,0,0.2,0,0.3,0c0.4-0.1,0.9-0.2,1.3-0.4l0.8-0.2l1.5-0.4
							c1-0.3,2-0.5,3.1-0.8c0.9,0.5,1.9,1.1,3.1,1.8c-0.1,0.5-0.1,1,0,1.5c-1.1,0.6-2.1,1.2-3.2,1.9c-1-0.3-2-0.5-3-0.8l-2.1-0.6
							c-0.4-0.1-0.9-0.2-1.3-0.3c-0.1,0-0.2,0-0.3,0c-0.4,0-0.8,0.2-1,0.6c-0.2,0.5-0.1,1,0.3,1.4c0.1,0.1,0.3,0.2,0.4,0.2l0.1,0
							c1.1,0.3,2.2,0.6,3.4,0.9c0.3,0.1,0.5,0.1,0.8,0.2l0,0c-0.7,0.4-1.3,0.8-2,1.1l-3-0.8c-0.1,0-0.2,0-0.3,0
							c-0.5,0-0.9,0.3-1,0.7c-0.1,0.3-0.1,0.6,0,0.9c0.1,0.3,0.4,0.5,0.7,0.6c0.3,0.1,0.6,0.2,1,0.3l0,0c-0.7,0.4-1.4,0.8-2.1,1.2
							C255,277.9,254.8,278,254.7,278.2z M260.1,284.6c-0.3-0.2-0.6-0.5-0.9-0.7c-0.1-0.1-0.2-0.2-0.3-0.3c-0.1-0.1-0.3-0.2-0.4-0.4
							c-0.1-0.1-0.3-0.3-0.4-0.4c-0.1-0.2-0.3-0.3-0.4-0.5c-0.1-0.1-0.2-0.2-0.3-0.3c-0.1-0.1-0.2-0.3-0.4-0.4
							c-0.1-0.2-0.3-0.3-0.4-0.5c-0.1-0.2-0.2-0.3-0.3-0.5c-0.2-0.3-0.4-0.5-0.6-0.8c0.2,0,0.3-0.1,0.5-0.2l1.7-1l0.5-0.3
							c-0.1,0.3-0.2,0.7-0.3,1.1c-0.2,0.6,0.2,1.2,0.7,1.3c0.1,0,0.2,0.1,0.3,0.1c0.5,0,0.9-0.3,1-0.8c0.1-0.3,0.2-0.7,0.3-1
							c0-0.1,0.1-0.3,0.1-0.4l0.1-0.3c0.1-0.5,0.3-1,0.4-1.5c0.6-0.3,1.1-0.7,1.7-1c0.1-0.1,0.2-0.1,0.3-0.2c-0.4,1.5-0.8,3-1.2,4.5
							c0,0.1-0.1,0.4,0,0.7c0.1,0.5,0.6,0.8,1,0.8h0c0.5,0,0.9-0.3,1-0.8c0.1-0.4,0.2-0.9,0.4-1.3l0.1-0.3c0.5-1.7,0.9-3.4,1.4-5.1
							c0.9-0.5,2-1.1,3.1-1.8c0.4,0.4,0.8,0.6,1.3,0.8v3.7l-4.7,4.7c-0.4,0.4-0.4,0.8-0.3,1.1c0.1,0.5,0.6,0.9,1.1,0.9
							c0.3,0,0.5-0.1,0.7-0.3c0,0,0.1-0.1,0.1-0.1l3.1-3.1v2.3c-0.8,0.8-1.5,1.5-2.2,2.2c-0.2,0.2-0.3,0.5-0.3,0.8
							c0,0.3,0.1,0.6,0.3,0.8c0.2,0.2,0.5,0.3,0.8,0.3c0.3,0,0.6-0.1,0.8-0.3c0.2-0.2,0.5-0.5,0.7-0.7v2.4c0,0.2,0,0.4,0.1,0.6
							C266.5,288.2,262.9,286.8,260.1,284.6z M271.4,271.7c-1.1,0-1.9-0.9-1.9-1.9c0-1.1,0.9-1.9,1.9-1.9c1.1,0,1.9,0.9,1.9,1.9
							C273.3,270.9,272.4,271.7,271.4,271.7z M286.4,280.9c-0.1,0.1-0.2,0.3-0.3,0.4c-0.2,0.3-0.5,0.6-0.7,0.9
							c-0.5,0.6-1,1.1-1.6,1.6c-2.9,2.6-6.6,4.3-10.7,4.6c-0.3,0-0.5,0-0.8,0.1c0.1-0.3,0.1-0.6,0.1-0.8c0,0,0-0.1,0-0.1
							c0,0,0-1.8,0-2.2c0.3,0.3,0.5,0.5,0.8,0.8c0.3,0.3,0.6,0.4,0.8,0.4c0.1,0,0.2,0,0.3,0c0.4-0.1,0.7-0.4,0.8-0.8
							c0.1-0.4,0-0.8-0.3-1.1c-0.3-0.3-0.6-0.6-0.8-0.8c-0.1-0.2-0.3-0.3-0.5-0.5l-0.3-0.3c-0.2-0.2-0.5-0.5-0.7-0.7
							c0-0.8,0-1.5,0-2.3c1.1,1.1,2.2,2.2,3.3,3.3c0.2,0.2,0.5,0.4,0.8,0.4c0.1,0,0.2,0,0.3,0c0.4-0.1,0.6-0.4,0.8-0.7
							c0.1-0.4,0-0.8-0.2-1c0,0-0.1-0.1-0.1-0.1l-0.7-0.7c-1.4-1.4-2.8-2.8-4.2-4.2c0-1.2,0-2.4,0-3.6c0.5-0.1,1-0.4,1.4-0.7
							c1.3,0.7,2.3,1.3,3.2,1.9c0.5,1.9,1,3.7,1.5,5.6l0,0.1c0.1,0.2,0.1,0.5,0.2,0.7c0.1,0.5,0.6,0.8,1.1,0.8c0.1,0,0.2,0,0.3,0
							c0.6-0.2,0.9-0.8,0.8-1.4c0,0-1.1-4-1.2-4.3l0.4,0.2c0.5,0.3,1.1,0.6,1.6,0.9c0.3,1,0.5,2,0.8,3.1c0.1,0.5,0.5,0.8,0.9,0.8
							c0.1,0,0.1,0,0.2,0c0.4,0,0.7-0.2,0.9-0.5c0.2-0.3,0.2-0.6,0.1-0.9c-0.1-0.3-0.2-0.6-0.3-1c0.7,0.4,1.4,0.8,2.1,1.2
							c0.1,0.1,0.3,0.2,0.6,0.2C286.8,280.3,286.6,280.6,286.4,280.9z M288.3,277.8c-0.1,0.2-0.2,0.4-0.3,0.7
							c-0.1-0.2-0.2-0.3-0.4-0.4c-0.4-0.2-0.8-0.5-1.2-0.7l-1.1-0.7c0.4-0.1,0.7-0.2,1.1-0.3c0.5-0.1,0.8-0.6,0.8-1.1
							c0-0.5-0.3-0.9-0.8-1c-0.1,0-0.2,0-0.3,0c-0.1,0-0.3,0-0.4,0.1l-0.8,0.2c-0.8,0.2-1.5,0.4-2.3,0.6c-0.7-0.4-1.3-0.8-2-1.1
							l1.1-0.3c1.2-0.3,2.3-0.6,3.5-0.9c0.5-0.1,0.8-0.6,0.8-1.1c0-0.5-0.4-0.9-0.8-1c-0.1,0-0.2,0-0.2,0c-0.1,0-0.2,0-0.3,0.1
							c-0.5,0.1-3.2,0.9-3.2,0.9c-1.1,0.3-2.3,0.6-3.4,0.9c-0.7-0.4-1.4-0.8-2.2-1.3c-0.3-0.2-0.6-0.4-0.9-0.5c0.1-0.5,0.1-1,0-1.5
							c1-0.6,2.1-1.2,3.2-1.9c1.2,0.3,2.4,0.6,3.6,1c0.9,0.2,1.9,0.5,2.8,0.7c0.1,0,0.2,0,0.3,0c0.3,0,0.6-0.1,0.8-0.4
							c0.2-0.3,0.3-0.7,0.2-1c-0.1-0.4-0.4-0.6-0.8-0.7c-0.4-0.1-0.8-0.2-1.2-0.3l-0.4-0.1c0,0-2.1-0.6-2.7-0.7l0.1-0.1
							c0.6-0.4,1.3-0.7,1.9-1.1c0.9,0.2,1.8,0.5,2.6,0.7l0.4,0.1c0.1,0,0.2,0,0.3,0c0.4,0,0.8-0.2,1-0.6c0.1-0.3,0.1-0.6,0-0.9
							c-0.1-0.3-0.4-0.5-0.7-0.6c-0.3-0.1-0.6-0.2-1-0.3c0.7-0.4,1.4-0.8,2.1-1.2c0.1-0.1,0.3-0.2,0.5-0.4c0.2,0.4,0.4,0.9,0.6,1.3
							c0.9,2.1,1.4,4.4,1.4,6.8c0,0.1,0,0.2,0,0.3c0,0.6,0,1.1-0.1,1.7C289.8,273.7,289.2,275.8,288.3,277.8z"/>
					</g>
				</g>
			</g>
		</g>
		<g>
			<g>
				<g>
					<path class="st0" d="M307.9,218.7l2.9,9c0.2,0.5,0.7,0.9,1.3,0.9h9.5c1.3,0,1.8,1.6,0.8,2.4l-7.7,5.6c-0.5,0.3-0.7,0.9-0.5,1.5
						l2.9,9c0.4,1.2-1,2.2-2,1.5l-7.7-5.6c-0.5-0.3-1.1-0.3-1.6,0l-7.7,5.6c-1,0.8-2.4-0.3-2-1.5l2.9-9c0.2-0.5,0-1.1-0.5-1.5
						l-7.7-5.6c-1-0.8-0.5-2.4,0.8-2.4h9.5c0.6,0,1.1-0.4,1.3-0.9l2.9-9C305.8,217.5,307.5,217.5,307.9,218.7z"/>
				</g>
				<g>
					<rect x="306" y="202.6" class="st0" width="1.3" height="18.4"/>
				</g>
			</g>
			<g>
				<g>
					<path class="st0" d="M234.7,218.7l2.9,9c0.2,0.5,0.7,0.9,1.3,0.9h9.5c1.3,0,1.8,1.6,0.8,2.4l-7.7,5.6c-0.5,0.3-0.7,0.9-0.5,1.5
						l2.9,9c0.4,1.2-1,2.2-2,1.5l-7.7-5.6c-0.5-0.3-1.1-0.3-1.6,0l-7.7,5.6c-1,0.8-2.4-0.3-2-1.5l2.9-9c0.2-0.5,0-1.1-0.5-1.5
						l-7.7-5.6c-1-0.8-0.5-2.4,0.8-2.4h9.5c0.6,0,1.1-0.4,1.3-0.9l2.9-9C232.6,217.5,234.3,217.5,234.7,218.7z"/>
				</g>
				<g>
					<rect x="232.8" y="202.6" class="st0" width="1.3" height="18.4"/>
				</g>
			</g>
		</g>
	</g>
	<g>
		<g>
			<g>
				<g>
					<g>
						<path class="st0" d="M724.6,260.6c-0.2-0.3-0.4-0.6-0.7-0.9c-3-4-7.5-6.8-12.6-7.8v-4h-2.1c0.6-0.6,1-1.4,1-2.3
							c0-1.3-0.8-2.4-1.9-2.8v-35.9h-2v35.8c-1.3,0.4-2.2,1.5-2.2,2.9c0,0.9,0.4,1.7,1,2.3h-1.8v4c-4.3,0.8-8.2,3-11.1,6.1
							c-0.1,0.1-0.3,0.3-0.4,0.4c-3.3,3.7-5.4,8.6-5.4,13.9c0,11.5,9.4,20.9,20.9,20.9c6.6,0,12.5-3.1,16.4-7.9
							c0.3-0.4,0.6-0.8,0.9-1.2c2.3-3.3,3.6-7.4,3.6-11.7C728.3,268,726.9,264,724.6,260.6z M708.8,253.8c0.1,0,0.2,0,0.2,0
							c4.4,0.4,8.3,2.3,11.3,5.2c0.1,0.1,0.2,0.2,0.4,0.4c0.2,0.2,0.5,0.5,0.7,0.7c0.1,0.1,0.2,0.2,0.3,0.4c0.1,0.1,0.1,0.1,0.1,0.2
							c0.1,0.2,0.3,0.3,0.4,0.5c0.1,0.1,0.1,0.2,0.2,0.3c0,0,0,0,0,0c0.1,0.2,0.3,0.4,0.4,0.5c0.1,0.1,0.1,0.2,0.2,0.3c0,0,0,0,0,0
							c-0.2,0-0.3,0.1-0.5,0.2c-0.6,0.4-1.3,0.8-1.9,1.1l-0.3,0.2l0-0.1c0.1-0.3,0.2-0.6,0.2-0.9c0.1-0.5-0.1-1-0.5-1.2
							c-0.2-0.1-0.4-0.2-0.6-0.2c-0.3,0-0.5,0.1-0.7,0.3c-0.2,0.1-0.3,0.3-0.3,0.6c-0.1,0.4-0.2,0.9-0.3,1.3l-0.2,0.8
							c-0.1,0.3-0.2,0.7-0.3,1c-0.7,0.4-1.3,0.8-2,1.1c0.1-0.5,0.9-3.5,0.9-3.5c0.1-0.4,0.2-0.7,0.3-1.1c0.1-0.4,0-0.7-0.2-1
							c-0.2-0.2-0.5-0.4-0.8-0.4c-0.1,0-0.2,0-0.2,0c-0.4,0.1-0.7,0.4-0.8,0.8c-0.1,0.4-0.2,0.8-0.3,1.1l-0.1,0.4
							c-0.5,1.7-0.9,3.5-1.4,5.2c-1.1,0.6-2.1,1.2-3.1,1.8c-0.4-0.4-0.8-0.6-1.3-0.8c0-1.2,0-2.5,0-3.8c1.3-1.3,2.6-2.6,4-4l0.7-0.7
							c0.4-0.4,0.4-0.8,0.3-1c-0.1-0.5-0.6-0.9-1.1-0.9c-0.3,0-0.5,0.1-0.7,0.3c0,0-0.1,0.1-0.1,0.1c0,0-2.1,2.1-3.1,3.1V262
							c0-0.7,0-1.5,0-2.2c0.3-0.3,0.7-0.7,1-1c0.4-0.4,0.8-0.8,1.2-1.2c0.1-0.1,0.1-0.1,0.1-0.2c0.2-0.3,0.2-0.6,0.2-0.9
							c-0.1-0.4-0.4-0.7-0.8-0.8c-0.1,0-0.2,0-0.3,0c-0.3,0-0.6,0.1-0.8,0.3c0,0-0.5,0.5-0.7,0.7v-2.4c0-0.2,0-0.4-0.1-0.5
							C708.6,253.8,708.7,253.8,708.8,253.8z M692.5,261.2C692.5,261.2,692.5,261.2,692.5,261.2c0.2-0.2,0.3-0.4,0.4-0.6
							c0.3-0.4,0.6-0.8,1-1.1c0.1-0.1,0.2-0.2,0.3-0.3c0.2-0.2,0.5-0.4,0.7-0.7c0.1-0.1,0.2-0.2,0.3-0.2c0.1-0.1,0.2-0.1,0.2-0.2
							c0.1-0.1,0.2-0.2,0.3-0.2c0.3-0.2,0.6-0.5,0.9-0.7c0.3-0.2,0.6-0.4,0.9-0.6c2.7-1.7,5.8-2.7,9.1-2.9c-0.1,0.2-0.1,0.4-0.1,0.6
							v2.6c-0.3-0.2-0.5-0.5-0.7-0.7c-0.3-0.3-0.6-0.4-0.8-0.4c-0.1,0-0.2,0-0.3,0c-0.4,0.1-0.6,0.4-0.7,0.7c-0.1,0.2-0.1,0.4,0,0.6
							c0,0.1,0.1,0.3,0.2,0.4c0,0,0.1,0.1,0.1,0.1l0.6,0.6c0.6,0.6,1.1,1.1,1.7,1.7v2.3c-1.1-1.1-2.2-2.2-3.3-3.3
							c-0.2-0.2-0.5-0.4-0.8-0.4c0,0-0.1,0-0.1,0c-0.4,0-0.7,0.3-0.9,0.7c-0.2,0.4-0.1,0.8,0.2,1.1c0,0,0.1,0.1,0.1,0.1l0.7,0.7
							c1.4,1.4,2.8,2.8,4.2,4.2v3.6c-0.5,0.1-1,0.4-1.4,0.7c-1-0.6-2.1-1.2-3.2-1.9c-0.6-2.1-1.1-4.2-1.7-6.3l0,0c0,0,0-0.1,0-0.1
							l0,0c-0.2-0.5-0.6-0.7-1-0.7c-0.1,0-0.2,0-0.3,0c-0.6,0.2-0.9,0.7-0.8,1.3c0.1,0.5,0.3,1,0.4,1.5l0.1,0.3l0.7,2.5l0,0
							c-0.6-0.4-1.3-0.8-2-1.1c-0.3-1-0.5-2-0.8-3c-0.1-0.5-0.6-0.8-1.1-0.8c-0.1,0-0.2,0-0.4,0.1c-0.5,0.2-0.8,0.7-0.7,1.3
							c0.1,0.3,0.2,0.7,0.3,1c0,0-0.6-0.3-0.9-0.5l-0.3-0.2c-0.3-0.2-0.6-0.4-0.9-0.5c-0.1-0.1-0.3-0.1-0.4-0.1
							C692.1,261.8,692.3,261.5,692.5,261.2z M690.7,280.8c-0.6-1.1-1-2.3-1.3-3.5c-0.2-0.7-0.3-1.4-0.4-2.2
							c-0.1-0.9-0.2-1.8-0.2-2.7c0-1.2,0.1-2.4,0.3-3.5c0.2-1.2,0.6-2.4,1.1-3.6c0.2-0.5,0.4-1,0.7-1.5c0.1,0.1,0.2,0.2,0.3,0.3
							c0.4,0.2,0.7,0.4,1.1,0.6c0.2,0.1,0.4,0.2,0.6,0.4c0,0,0.5,0.3,0.6,0.3c-0.4,0.1-0.7,0.2-1.1,0.3c-0.5,0.1-0.8,0.6-0.8,1.1
							c0,0.5,0.4,0.9,0.8,1c0.1,0,0.2,0,0.3,0c0.1,0,0.2,0,0.3,0l2.6-0.7l0.1,0c0.1,0,0.2-0.1,0.3-0.1c0.6,0.4,1.3,0.7,1.9,1.1
							l0.1,0.1l-4.6,1.2c-0.6,0.2-1,0.7-0.8,1.3c0.1,0.5,0.5,0.9,1.1,0.9c0.1,0,0.2,0,0.3,0c0.4-0.1,0.9-0.2,1.3-0.4l0.8-0.2
							l1.5-0.4c1-0.3,2-0.5,3.1-0.8c0.9,0.5,1.9,1.1,3.1,1.8c-0.1,0.5-0.1,1,0,1.5c-1.1,0.6-2.1,1.2-3.2,1.9c-1-0.3-2-0.5-3-0.8
							l-2.1-0.6c-0.4-0.1-0.9-0.2-1.3-0.3c-0.1,0-0.2,0-0.3,0c-0.4,0-0.8,0.2-1,0.6c-0.2,0.5-0.1,1,0.3,1.4c0.1,0.1,0.3,0.2,0.4,0.2
							l0.1,0c1.1,0.3,2.2,0.6,3.4,0.9c0.3,0.1,0.5,0.1,0.8,0.2l0,0c-0.7,0.4-1.3,0.8-2,1.1l-3-0.8c-0.1,0-0.2,0-0.3,0
							c-0.5,0-0.9,0.3-1,0.7c-0.1,0.3-0.1,0.6,0,0.9c0.1,0.3,0.4,0.5,0.7,0.6c0.3,0.1,0.6,0.2,1,0.3l0,0c-0.7,0.4-1.4,0.8-2.1,1.2
							C691,280.5,690.8,280.6,690.7,280.8z M696.1,287.2c-0.3-0.2-0.6-0.5-0.9-0.7c-0.1-0.1-0.2-0.2-0.3-0.3
							c-0.1-0.1-0.3-0.2-0.4-0.4c-0.1-0.1-0.3-0.3-0.4-0.4c-0.1-0.2-0.3-0.3-0.4-0.5c-0.1-0.1-0.2-0.2-0.3-0.3
							c-0.1-0.1-0.2-0.3-0.4-0.4c-0.1-0.2-0.3-0.3-0.4-0.5c-0.1-0.2-0.2-0.3-0.3-0.5c-0.2-0.3-0.4-0.5-0.6-0.8
							c0.2,0,0.3-0.1,0.5-0.2l1.7-1l0.5-0.3c-0.1,0.3-0.2,0.7-0.3,1.1c-0.2,0.6,0.2,1.2,0.7,1.3c0.1,0,0.2,0.1,0.3,0.1
							c0.5,0,0.9-0.3,1-0.8c0.1-0.3,0.2-0.7,0.3-1c0-0.1,0.1-0.3,0.1-0.4l0.1-0.3c0.1-0.5,0.3-1,0.4-1.5c0.6-0.3,1.1-0.7,1.7-1
							c0.1-0.1,0.2-0.1,0.3-0.2c-0.4,1.5-0.8,3-1.2,4.5c0,0.1-0.1,0.4,0,0.7c0.1,0.5,0.6,0.8,1,0.8h0c0.5,0,0.9-0.3,1-0.8
							c0.1-0.4,0.2-0.9,0.4-1.3l0.1-0.3c0.5-1.7,0.9-3.4,1.4-5.1c0.9-0.5,2-1.1,3.1-1.8c0.4,0.4,0.8,0.6,1.3,0.8v3.7l-4.7,4.7
							c-0.4,0.4-0.4,0.8-0.3,1.1c0.1,0.5,0.6,0.9,1.1,0.9c0.3,0,0.5-0.1,0.7-0.3c0,0,0.1-0.1,0.1-0.1l3.1-3.1v2.3
							c-0.8,0.8-1.5,1.5-2.2,2.2c-0.2,0.2-0.3,0.5-0.3,0.8c0,0.3,0.1,0.6,0.3,0.8c0.2,0.2,0.5,0.3,0.8,0.3c0.3,0,0.6-0.1,0.8-0.3
							c0.2-0.2,0.5-0.5,0.7-0.7v2.4c0,0.2,0,0.4,0.1,0.6C702.5,290.8,699,289.4,696.1,287.2z M707.4,274.3c-1.1,0-1.9-0.9-1.9-1.9
							c0-1.1,0.9-1.9,1.9-1.9c1.1,0,1.9,0.9,1.9,1.9C709.3,273.4,708.4,274.3,707.4,274.3z M722.4,283.5c-0.1,0.1-0.2,0.3-0.3,0.4
							c-0.2,0.3-0.5,0.6-0.7,0.9c-0.5,0.6-1,1.1-1.6,1.6c-2.9,2.6-6.6,4.3-10.7,4.6c-0.3,0-0.5,0-0.8,0.1c0.1-0.3,0.1-0.6,0.1-0.8
							c0,0,0-0.1,0-0.1c0,0,0-1.8,0-2.2c0.3,0.3,0.5,0.5,0.8,0.8c0.3,0.3,0.6,0.4,0.8,0.4c0.1,0,0.2,0,0.3,0
							c0.4-0.1,0.7-0.4,0.8-0.8c0.1-0.4,0-0.8-0.3-1.1c-0.3-0.3-0.6-0.6-0.8-0.8c-0.1-0.2-0.3-0.3-0.5-0.5l-0.3-0.3
							c-0.2-0.2-0.5-0.5-0.7-0.7c0-0.8,0-1.5,0-2.3c1.1,1.1,2.2,2.2,3.3,3.3c0.2,0.2,0.5,0.4,0.8,0.4c0.1,0,0.2,0,0.3,0
							c0.4-0.1,0.6-0.4,0.8-0.7c0.1-0.4,0-0.8-0.2-1c0,0-0.1-0.1-0.1-0.1l-0.7-0.7c-1.4-1.4-2.8-2.8-4.2-4.2c0-1.2,0-2.4,0-3.6
							c0.5-0.1,1-0.4,1.4-0.7c1.3,0.7,2.3,1.3,3.2,1.9c0.5,1.9,1,3.7,1.5,5.6l0,0.1c0.1,0.2,0.1,0.5,0.2,0.7
							c0.1,0.5,0.6,0.8,1.1,0.8c0.1,0,0.2,0,0.3,0c0.6-0.2,0.9-0.8,0.8-1.4c0,0-1.1-4-1.2-4.3l0.4,0.2c0.5,0.3,1.1,0.6,1.6,0.9
							c0.3,1,0.5,2,0.8,3.1c0.1,0.5,0.5,0.8,0.9,0.8c0.1,0,0.1,0,0.2,0c0.4,0,0.7-0.2,0.9-0.5c0.2-0.3,0.2-0.6,0.1-0.9
							c-0.1-0.3-0.2-0.6-0.3-1c0.7,0.4,1.4,0.8,2.1,1.2c0.1,0.1,0.3,0.2,0.6,0.2C722.8,282.9,722.6,283.2,722.4,283.5z M724.3,280.3
							c-0.1,0.2-0.2,0.4-0.3,0.7c-0.1-0.2-0.2-0.3-0.4-0.4c-0.4-0.2-0.8-0.5-1.2-0.7l-1.1-0.7c0.4-0.1,0.7-0.2,1.1-0.3
							c0.5-0.1,0.8-0.6,0.8-1.1c0-0.5-0.3-0.9-0.8-1c-0.1,0-0.2,0-0.3,0c-0.1,0-0.3,0-0.4,0.1l-0.8,0.2c-0.8,0.2-1.5,0.4-2.3,0.6
							c-0.7-0.4-1.3-0.8-2-1.1l1.1-0.3c1.2-0.3,2.3-0.6,3.5-0.9c0.5-0.1,0.8-0.6,0.8-1.1c0-0.5-0.4-0.9-0.8-1c-0.1,0-0.2,0-0.2,0
							c-0.1,0-0.2,0-0.3,0.1c-0.5,0.1-3.2,0.9-3.2,0.9c-1.1,0.3-2.3,0.6-3.4,0.9c-0.7-0.4-1.4-0.8-2.2-1.3c-0.3-0.2-0.6-0.4-0.9-0.5
							c0.1-0.5,0.1-1,0-1.5c1-0.6,2.1-1.2,3.2-1.9c1.2,0.3,2.4,0.6,3.6,1c0.9,0.2,1.9,0.5,2.8,0.7c0.1,0,0.2,0,0.3,0
							c0.3,0,0.6-0.1,0.8-0.4c0.2-0.3,0.3-0.7,0.2-1c-0.1-0.4-0.4-0.6-0.8-0.7c-0.4-0.1-0.8-0.2-1.2-0.3l-0.4-0.1
							c0,0-2.1-0.6-2.7-0.7l0.1-0.1c0.6-0.4,1.3-0.7,1.9-1.1c0.9,0.2,1.8,0.5,2.6,0.7l0.4,0.1c0.1,0,0.2,0,0.3,0
							c0.4,0,0.8-0.2,1-0.6c0.1-0.3,0.1-0.6,0-0.9c-0.1-0.3-0.4-0.5-0.7-0.6c-0.3-0.1-0.6-0.2-1-0.3c0.7-0.4,1.4-0.8,2.1-1.2
							c0.1-0.1,0.3-0.2,0.5-0.4c0.2,0.4,0.4,0.9,0.6,1.3c0.9,2.1,1.4,4.4,1.4,6.8c0,0.1,0,0.2,0,0.3c0,0.6,0,1.1-0.1,1.7
							C725.8,276.3,725.2,278.4,724.3,280.3z"/>
					</g>
				</g>
			</g>
		</g>
		<g>
			<g>
				<g>
					<path class="st0" d="M743.9,221.3l2.9,9c0.2,0.5,0.7,0.9,1.3,0.9h9.5c1.3,0,1.8,1.6,0.8,2.4l-7.7,5.6c-0.5,0.3-0.7,0.9-0.5,1.5
						l2.9,9c0.4,1.2-1,2.2-2,1.5l-7.7-5.6c-0.5-0.3-1.1-0.3-1.6,0l-7.7,5.6c-1,0.8-2.4-0.3-2-1.5l2.9-9c0.2-0.5,0-1.1-0.5-1.5
						l-7.7-5.6c-1-0.8-0.5-2.4,0.8-2.4h9.5c0.6,0,1.1-0.4,1.3-0.9l2.9-9C741.8,220.1,743.6,220.1,743.9,221.3z"/>
				</g>
				<g>
					<rect x="742" y="205.2" class="st0" width="1.3" height="18.4"/>
				</g>
			</g>
			<g>
				<g>
					<path class="st0" d="M670.7,221.3l2.9,9c0.2,0.5,0.7,0.9,1.3,0.9h9.5c1.3,0,1.8,1.6,0.8,2.4l-7.7,5.6c-0.5,0.3-0.7,0.9-0.5,1.5
						l2.9,9c0.4,1.2-1,2.2-2,1.5l-7.7-5.6c-0.5-0.3-1.1-0.3-1.6,0l-7.7,5.6c-1,0.8-2.4-0.3-2-1.5l2.9-9c0.2-0.5,0-1.1-0.5-1.5
						l-7.7-5.6c-1-0.8-0.5-2.4,0.8-2.4h9.5c0.6,0,1.1-0.4,1.3-0.9l2.9-9C668.6,220.1,670.3,220.1,670.7,221.3z"/>
				</g>
				<g>
					<rect x="668.8" y="205.2" class="st0" width="1.3" height="18.4"/>
				</g>
			</g>
		</g>
	</g>
	<g>
		<g>
			<path class="st0" d="M416.9,224.8c-0.3-0.9-0.9-1.3-1.3-1.5c-0.3-0.1-0.5-0.1-0.8-0.1c0,0-0.1,0-0.1,0c-0.3,0-0.7,0.1-1,0.3
				c-1.3,0.7-2.5,1.5-3.8,2.2l-0.7,0.4l0.1-0.3c0.2-0.6,0.3-1.2,0.5-1.8c0.2-0.9-0.1-1.9-0.9-2.4c-0.3-0.2-0.7-0.3-1.1-0.3
				c-0.5,0-1,0.2-1.4,0.5c-0.3,0.3-0.6,0.7-0.7,1.1c-0.2,0.8-0.4,1.7-0.7,2.6l-0.4,1.7c-0.2,0.6-0.3,1.3-0.5,1.9
				c-1.3,0.7-2.6,1.5-3.9,2.2c0.3-0.9,1.8-6.9,1.8-6.9c0.2-0.7,0.4-1.4,0.6-2.2c0.2-0.7,0-1.4-0.4-2c-0.4-0.5-1-0.8-1.6-0.8
				c-0.2,0-0.3,0-0.5,0.1c-0.8,0.2-1.4,0.7-1.6,1.6c-0.2,0.7-0.4,1.5-0.6,2.2l-0.2,0.7c-0.9,3.4-1.8,6.8-2.7,10.2
				c-2.1,1.2-4.1,2.4-6.1,3.5c-0.7-0.7-1.6-1.3-2.6-1.6v-7.4c2.6-2.6,5.2-5.2,7.8-7.8l1.4-1.4c0.7-0.7,0.7-1.5,0.6-2
				c-0.2-1-1.1-1.7-2.1-1.7c-0.5,0-1,0.2-1.4,0.5c-0.1,0.1-0.2,0.1-0.2,0.2c0,0-4.1,4.1-6.1,6.1v-4.5l2-2c0.8-0.8,1.6-1.6,2.4-2.4
				c0.1-0.1,0.2-0.2,0.3-0.3c0.5-0.6,0.5-1.3,0.4-1.7c-0.2-0.8-0.7-1.4-1.5-1.6c-0.2-0.1-0.4-0.1-0.6-0.1c-0.6,0-1.1,0.2-1.5,0.6
				c0,0-0.9,0.9-1.4,1.4v-4.8c0-0.4-0.1-0.7-0.2-1c-0.1-0.3-0.3-0.5-0.6-0.8c-0.3-0.2-0.6-0.4-0.9-0.5h-0.8
				c-0.6,0.1-1.2,0.6-1.5,1.2c-0.2,0.3-0.3,0.7-0.3,1.1v5c-0.5-0.5-1-1-1.5-1.5c-0.6-0.6-1.2-0.7-1.6-0.7c-0.2,0-0.4,0-0.6,0.1
				c-0.7,0.2-1.3,0.8-1.5,1.5c-0.1,0.4-0.1,0.8,0,1.3c0.1,0.3,0.3,0.6,0.5,0.8c0.1,0.1,0.1,0.1,0.2,0.2l1.1,1.1
				c1.1,1.1,2.2,2.2,3.3,3.3v4.5c-2.2-2.2-4.3-4.3-6.5-6.5c-0.5-0.5-1-0.7-1.6-0.7c-0.1,0-0.2,0-0.3,0c-0.8,0.1-1.4,0.6-1.8,1.3
				c-0.3,0.8-0.2,1.6,0.4,2.2c0.1,0.1,0.1,0.1,0.2,0.2l1.4,1.4c2.7,2.7,5.5,5.5,8.2,8.2v7c-1,0.3-1.9,0.8-2.7,1.4
				c-2-1.2-4.2-2.4-6.4-3.7c-1.1-4.1-2.2-8.3-3.3-12.5l0,0c0-0.1,0-0.2-0.1-0.2l0,0c-0.3-0.9-1.1-1.5-2-1.5c-0.2,0-0.4,0-0.6,0.1
				c-1.1,0.3-1.8,1.5-1.5,2.6c0.3,1,0.5,1.9,0.8,2.9l0.2,0.7l1.3,4.9l-0.1,0c-1.2-0.7-2.6-1.5-3.8-2.2c-0.5-2-1.1-4-1.6-6
				c-0.3-1-1.1-1.7-2.1-1.7c-0.2,0-0.5,0-0.7,0.1c-1,0.3-1.6,1.4-1.4,2.5c0.2,0.7,0.3,1.4,0.5,2c0,0-1.2-0.7-1.8-1l-0.7-0.4
				c-0.6-0.3-1.2-0.7-1.8-1.1c-0.3-0.1-0.5-0.2-0.8-0.3c-0.1,0-0.2,0-0.3,0c-0.9,0-1.7,0.5-2,1.4c-0.3,0.7-0.2,1.4,0.3,2
				c0.2,0.2,0.4,0.4,0.7,0.6c0.7,0.4,1.4,0.8,2.1,1.2l1.2,0.7c0,0,1,0.6,1.2,0.7c-0.7,0.2-1.4,0.4-2.1,0.6c-1,0.3-1.6,1.1-1.6,2.1
				c0,1,0.7,1.8,1.6,2c0.2,0,0.3,0.1,0.5,0.1c0.2,0,0.4,0,0.7-0.1l5.2-1.4l0.3-0.1c0.2-0.1,0.4-0.1,0.7-0.2c1.2,0.7,2.5,1.4,3.7,2.1
				l0.2,0.1l-8.9,2.4c-1.2,0.3-1.9,1.4-1.6,2.5c0.2,1,1.1,1.7,2.1,1.7c0.2,0,0.4,0,0.6-0.1c0.9-0.2,1.7-0.5,2.6-0.7l1.6-0.4l2.9-0.8
				c2-0.5,4-1.1,6-1.6c1.8,1,3.7,2.2,6.1,3.5c-0.3,1-0.3,2-0.1,3c-2.1,1.2-4.2,2.4-6.4,3.7c-2-0.5-3.9-1.1-5.9-1.6l-4.2-1.1
				c-0.9-0.2-1.7-0.5-2.6-0.7c-0.2-0.1-0.4-0.1-0.6-0.1c-0.8,0-1.6,0.5-1.9,1.2c-0.4,0.9-0.2,2,0.7,2.7c0.3,0.2,0.6,0.3,0.8,0.4
				l0.2,0c2.2,0.6,4.4,1.2,6.6,1.8c0.5,0.1,1.1,0.3,1.6,0.4l0,0c-1.3,0.8-2.6,1.5-3.9,2.3c-2-0.5-4-1.1-6-1.6
				c-0.2-0.1-0.4-0.1-0.6-0.1c-0.9,0-1.7,0.5-2,1.4c-0.2,0.6-0.2,1.2,0.1,1.7c0.3,0.5,0.8,0.9,1.4,1.1l1.9,0.5
				c-1.4,0.8-2.7,1.6-4.1,2.4c-0.3,0.2-0.6,0.4-0.8,0.7c-0.3,0.4-0.4,0.9-0.4,1.4c0.1,0.8,0.6,1.5,1.3,1.8c0.3,0.1,0.5,0.1,0.8,0.1
				c0.1,0,0.1,0,0.2,0c0.3,0,0.7-0.1,1-0.3c1.1-0.7,2.3-1.3,3.4-2l1-0.6c-0.2,0.7-0.4,1.4-0.6,2.1c-0.3,1.2,0.3,2.3,1.4,2.6
				c0.2,0.1,0.4,0.1,0.6,0.1c1,0,1.8-0.6,2-1.5c0.2-0.6,0.3-1.3,0.5-1.9c0.1-0.3,0.1-0.5,0.2-0.8l0.2-0.5c0.3-1,0.5-2,0.8-3
				c1.1-0.6,2.2-1.3,3.4-1.9c0.2-0.1,0.3-0.2,0.5-0.3c-0.8,3-1.6,5.9-2.4,8.9c-0.1,0.3-0.2,0.8,0,1.4c0.3,0.9,1.1,1.5,2,1.5h0
				c0.9,0,1.8-0.6,2-1.6c0.2-0.9,0.5-1.8,0.7-2.6l0.2-0.7c0.9-3.3,1.8-6.6,2.7-9.9c1.7-1,3.9-2.2,6.1-3.5c0.7,0.7,1.6,1.3,2.6,1.6
				v7.3c-1.5,1.5-3,3-4.4,4.5c-1.6,1.6-3.1,3.1-4.7,4.7c-0.8,0.8-0.8,1.5-0.6,2.1c0.2,1,1.1,1.7,2.1,1.7c0.5,0,1-0.2,1.4-0.5
				c0.1-0.1,0.1-0.1,0.2-0.2l6.1-6.1v4.5c-1.5,1.5-3,3-4.4,4.4c-0.4,0.4-0.7,1-0.7,1.6c0,0.6,0.2,1.1,0.6,1.5
				c0.4,0.4,0.9,0.6,1.5,0.6c0.6,0,1.1-0.2,1.5-0.6c0.5-0.4,0.9-0.9,1.4-1.4v4.7c0,0.4,0.1,0.8,0.3,1.1c0.2,0.5,0.6,0.8,1.1,1
				c0.2,0.1,0.5,0.2,0.8,0.2c0.6,0,1.2-0.3,1.6-0.7c0.1-0.1,0.2-0.3,0.3-0.4h0c0.3-0.6,0.3-1.2,0.3-1.6v-0.2c0,0,0-3.6,0-4.4
				c0.5,0.5,1,1,1.5,1.5c0.6,0.6,1.2,0.7,1.6,0.7c0.2,0,0.4,0,0.6-0.1c0.7-0.2,1.3-0.8,1.5-1.5c0.2-0.7,0-1.5-0.5-2.1l-1.6-1.6
				c-0.3-0.3-0.6-0.6-0.9-0.9l-2.1-2.1c0-1.5,0-3,0-4.4c2.2,2.2,4.4,4.4,6.5,6.5c0.5,0.5,1,0.7,1.6,0.7c0.2,0,0.4,0,0.6-0.1
				c0.7-0.2,1.3-0.7,1.5-1.5c0.2-0.7,0-1.5-0.5-2c-0.1-0.1-0.1-0.1-0.2-0.2l-1.4-1.4c-2.7-2.7-5.5-5.5-8.2-8.2c0-2.3,0-4.7,0-7
				c1-0.3,1.9-0.8,2.7-1.4c2.5,1.5,4.5,2.6,6.4,3.7c1,3.6,1.9,7.3,2.9,10.9l0.1,0.3c0.1,0.5,0.3,0.9,0.4,1.4c0.3,1,1.1,1.6,2.1,1.6
				c0.2,0,0.4,0,0.6-0.1c1.2-0.3,1.8-1.5,1.5-2.7c0,0-2.1-7.9-2.3-8.4l0.8,0.4c1.1,0.6,2.1,1.2,3.2,1.8c0.5,2,1.1,4,1.6,6
				c0.2,0.9,0.9,1.5,1.8,1.6c0.1,0,0.2,0,0.3,0c0.7,0,1.4-0.3,1.8-1c0.3-0.5,0.4-1.1,0.3-1.7c-0.2-0.6-0.3-1.3-0.5-1.9
				c1.4,0.8,2.7,1.6,4.1,2.4c0.3,0.2,0.6,0.3,1.1,0.4c0,0,0.1,0,0.1,0c0.1,0,0.3,0,0.4,0c0.9-0.2,1.6-0.9,1.7-1.8
				c0.1-0.5,0-1-0.3-1.4c-0.2-0.3-0.4-0.6-0.8-0.7c-0.8-0.4-1.5-0.9-2.3-1.3l-2.2-1.3c0.7-0.2,1.4-0.4,2.1-0.6
				c1-0.3,1.6-1.1,1.6-2.1c0-1-0.7-1.8-1.6-2.1c-0.2,0-0.3-0.1-0.5-0.1c-0.3,0-0.5,0.1-0.7,0.1l-1.6,0.4c-1.5,0.4-3,0.8-4.5,1.2
				c-1.3-0.8-2.6-1.5-3.9-2.2l2.1-0.6l6.9-1.9c1-0.3,1.6-1.1,1.6-2.1c0-1-0.7-1.8-1.6-2c-0.2,0-0.3-0.1-0.5-0.1
				c-0.2,0-0.4,0-0.7,0.1c-0.9,0.3-6.3,1.7-6.3,1.7c-2.2,0.6-4.5,1.2-6.7,1.8c-1.4-0.8-2.8-1.6-4.3-2.5c-0.6-0.3-1.2-0.7-1.8-1
				c0.3-1,0.3-2,0.1-3c2-1.2,4.1-2.4,6.4-3.7c2.3,0.6,4.7,1.3,7,1.9c1.8,0.5,3.6,1,5.5,1.5c0.2,0.1,0.5,0.1,0.7,0.1
				c0.6,0,1.2-0.3,1.6-0.7c0.5-0.6,0.6-1.3,0.4-2c-0.2-0.7-0.8-1.3-1.5-1.5c-0.8-0.2-1.6-0.4-2.4-0.6l-0.8-0.2c0,0-4.1-1.1-5.2-1.4
				l0.2-0.1c1.3-0.7,2.5-1.4,3.7-2.2c1.7,0.5,3.4,0.9,5.1,1.4l0.9,0.2c0.2,0.1,0.4,0.1,0.6,0.1c0.8,0,1.6-0.5,1.9-1.2
				c0.3-0.6,0.3-1.2,0-1.8c-0.3-0.6-0.8-1-1.4-1.2c-0.6-0.2-1.3-0.3-1.9-0.5c1.3-0.8,2.7-1.6,4.1-2.3c0.3-0.2,0.7-0.4,0.9-0.8
				c0.1-0.2,0.2-0.4,0.3-0.6l0-0.1v-0.8L416.9,224.8z M383.9,246.6c-2.1,0-3.7-1.7-3.7-3.7c0-2.1,1.7-3.7,3.7-3.7s3.7,1.7,3.7,3.7
				C387.6,245,386,246.6,383.9,246.6z"/>
		</g>
	</g>
	<g>
		<g>
			<path class="st0" d="M640.3,224.7c-0.3-0.9-0.9-1.3-1.3-1.5c-0.3-0.1-0.5-0.1-0.8-0.1c0,0-0.1,0-0.1,0c-0.3,0-0.7,0.1-1,0.3
				c-1.3,0.7-2.5,1.5-3.8,2.2l-0.7,0.4l0.1-0.3c0.2-0.6,0.3-1.2,0.5-1.8c0.2-0.9-0.1-1.9-0.9-2.4c-0.3-0.2-0.7-0.3-1.1-0.3
				c-0.5,0-1,0.2-1.4,0.5c-0.3,0.3-0.6,0.7-0.7,1.1c-0.2,0.8-0.4,1.7-0.7,2.6l-0.4,1.7c-0.2,0.6-0.3,1.3-0.5,1.9
				c-1.3,0.7-2.6,1.5-3.9,2.2c0.3-0.9,1.8-6.9,1.8-6.9c0.2-0.7,0.4-1.4,0.6-2.2c0.2-0.7,0-1.4-0.4-2c-0.4-0.5-1-0.8-1.6-0.8
				c-0.2,0-0.3,0-0.5,0.1c-0.8,0.2-1.4,0.7-1.6,1.6c-0.2,0.7-0.4,1.5-0.6,2.2l-0.2,0.7c-0.9,3.4-1.8,6.8-2.7,10.2
				c-2.1,1.2-4.1,2.4-6.1,3.5c-0.7-0.7-1.6-1.3-2.6-1.6v-7.4c2.6-2.6,5.2-5.2,7.8-7.8l1.4-1.4c0.7-0.7,0.7-1.5,0.6-2
				c-0.2-1-1.1-1.7-2.1-1.7c-0.5,0-1,0.2-1.4,0.5c-0.1,0.1-0.2,0.1-0.2,0.2c0,0-4.1,4.1-6.1,6.1v-4.5l2-2c0.8-0.8,1.6-1.6,2.4-2.4
				c0.1-0.1,0.2-0.2,0.3-0.3c0.5-0.6,0.5-1.3,0.4-1.7c-0.2-0.8-0.7-1.4-1.5-1.6c-0.2-0.1-0.4-0.1-0.6-0.1c-0.6,0-1.1,0.2-1.5,0.6
				c0,0-0.9,0.9-1.4,1.4v-4.8c0-0.4-0.1-0.7-0.2-1c-0.1-0.3-0.3-0.5-0.6-0.8c-0.3-0.2-0.6-0.4-0.9-0.5h-0.8
				c-0.6,0.1-1.2,0.6-1.5,1.2c-0.2,0.3-0.3,0.7-0.3,1.1v5c-0.5-0.5-1-1-1.5-1.5c-0.6-0.6-1.2-0.7-1.6-0.7c-0.2,0-0.4,0-0.6,0.1
				c-0.7,0.2-1.3,0.8-1.5,1.5c-0.1,0.4-0.1,0.8,0,1.3c0.1,0.3,0.3,0.6,0.5,0.8c0.1,0.1,0.1,0.1,0.2,0.2l1.1,1.1
				c1.1,1.1,2.2,2.2,3.3,3.3v4.5c-2.2-2.2-4.3-4.3-6.5-6.5c-0.5-0.5-1-0.7-1.6-0.7c-0.1,0-0.2,0-0.3,0c-0.8,0.1-1.4,0.6-1.8,1.3
				c-0.3,0.8-0.2,1.6,0.4,2.2c0.1,0.1,0.1,0.1,0.2,0.2l1.4,1.4c2.7,2.7,5.5,5.5,8.2,8.2v7c-1,0.3-1.9,0.8-2.7,1.4
				c-2-1.2-4.2-2.4-6.4-3.7c-1.1-4.1-2.2-8.3-3.3-12.5l0,0c0-0.1,0-0.2-0.1-0.2l0,0c-0.3-0.9-1.1-1.5-2-1.5c-0.2,0-0.4,0-0.6,0.1
				c-1.1,0.3-1.8,1.5-1.5,2.6c0.3,1,0.5,1.9,0.8,2.9l0.2,0.7l1.3,4.9l-0.1,0c-1.2-0.7-2.6-1.5-3.8-2.2c-0.5-2-1.1-4-1.6-6
				c-0.3-1-1.1-1.7-2.1-1.7c-0.2,0-0.5,0-0.7,0.1c-1,0.3-1.6,1.4-1.4,2.5c0.2,0.7,0.3,1.4,0.5,2c0,0-1.2-0.7-1.8-1l-0.7-0.4
				c-0.6-0.3-1.2-0.7-1.8-1.1c-0.3-0.1-0.5-0.2-0.8-0.3c-0.1,0-0.2,0-0.3,0c-0.9,0-1.7,0.5-2,1.4c-0.3,0.7-0.2,1.4,0.3,2
				c0.2,0.2,0.4,0.4,0.7,0.6c0.7,0.4,1.4,0.8,2.1,1.2l1.2,0.7c0,0,1,0.6,1.2,0.7c-0.7,0.2-1.4,0.4-2.1,0.6c-1,0.3-1.6,1.1-1.6,2.1
				c0,1,0.7,1.8,1.6,2c0.2,0,0.3,0.1,0.5,0.1c0.2,0,0.4,0,0.7-0.1l5.2-1.4l0.3-0.1c0.2-0.1,0.4-0.1,0.7-0.2c1.2,0.7,2.5,1.4,3.7,2.1
				l0.2,0.1l-8.9,2.4c-1.2,0.3-1.9,1.4-1.6,2.5c0.2,1,1.1,1.7,2.1,1.7c0.2,0,0.4,0,0.6-0.1c0.9-0.2,1.7-0.5,2.6-0.7l1.6-0.4l2.9-0.8
				c2-0.5,4-1.1,6-1.6c1.8,1,3.7,2.2,6.1,3.5c-0.3,1-0.3,2-0.1,3c-2.1,1.2-4.2,2.4-6.4,3.7c-2-0.5-3.9-1.1-5.9-1.6l-4.2-1.1
				c-0.9-0.2-1.7-0.5-2.6-0.7c-0.2-0.1-0.4-0.1-0.6-0.1c-0.8,0-1.6,0.5-1.9,1.2c-0.4,0.9-0.2,2,0.7,2.7c0.3,0.2,0.6,0.3,0.8,0.4
				l0.2,0c2.2,0.6,4.4,1.2,6.6,1.8c0.5,0.1,1.1,0.3,1.6,0.4l0,0c-1.3,0.8-2.6,1.5-3.9,2.3c-2-0.5-4-1.1-6-1.6
				c-0.2-0.1-0.4-0.1-0.6-0.1c-0.9,0-1.7,0.5-2,1.4c-0.2,0.6-0.2,1.2,0.1,1.7c0.3,0.5,0.8,0.9,1.4,1.1l1.9,0.5
				c-1.4,0.8-2.7,1.6-4.1,2.4c-0.3,0.2-0.6,0.4-0.8,0.7c-0.3,0.4-0.4,0.9-0.4,1.4c0.1,0.8,0.6,1.5,1.3,1.8c0.3,0.1,0.5,0.1,0.8,0.1
				c0.1,0,0.1,0,0.2,0c0.3,0,0.7-0.1,1-0.3c1.1-0.7,2.3-1.3,3.4-2l1-0.6c-0.2,0.7-0.4,1.4-0.6,2.1c-0.3,1.2,0.3,2.3,1.4,2.6
				c0.2,0.1,0.4,0.1,0.6,0.1c1,0,1.8-0.6,2-1.5c0.2-0.6,0.3-1.3,0.5-1.9c0.1-0.3,0.1-0.5,0.2-0.8l0.2-0.5c0.3-1,0.5-2,0.8-3
				c1.1-0.6,2.2-1.3,3.4-1.9c0.2-0.1,0.3-0.2,0.5-0.3c-0.8,3-1.6,5.9-2.4,8.9c-0.1,0.3-0.2,0.8,0,1.4c0.3,0.9,1.1,1.5,2,1.5h0
				c0.9,0,1.8-0.6,2-1.6c0.2-0.9,0.5-1.8,0.7-2.6l0.2-0.7c0.9-3.3,1.8-6.6,2.7-9.9c1.7-1,3.9-2.2,6.1-3.5c0.7,0.7,1.6,1.3,2.6,1.6
				v7.3c-1.5,1.5-3,3-4.4,4.5c-1.6,1.6-3.1,3.1-4.7,4.7c-0.8,0.8-0.8,1.5-0.6,2.1c0.2,1,1.1,1.7,2.1,1.7c0.5,0,1-0.2,1.4-0.5
				c0.1-0.1,0.1-0.1,0.2-0.2l6.1-6.1v4.5c-1.5,1.5-3,3-4.4,4.4c-0.4,0.4-0.7,1-0.7,1.6c0,0.6,0.2,1.1,0.6,1.5
				c0.4,0.4,0.9,0.6,1.5,0.6c0.6,0,1.1-0.2,1.5-0.6c0.5-0.4,0.9-0.9,1.4-1.4v4.7c0,0.4,0.1,0.8,0.3,1.1c0.2,0.5,0.6,0.8,1.1,1
				c0.2,0.1,0.5,0.2,0.8,0.2c0.6,0,1.2-0.3,1.6-0.7c0.1-0.1,0.2-0.3,0.3-0.4h0c0.3-0.6,0.3-1.2,0.3-1.6v-0.2c0,0,0-3.6,0-4.4
				c0.5,0.5,1,1,1.5,1.5c0.6,0.6,1.2,0.7,1.6,0.7c0.2,0,0.4,0,0.6-0.1c0.7-0.2,1.3-0.8,1.5-1.5c0.2-0.7,0-1.5-0.5-2.1l-1.6-1.6
				c-0.3-0.3-0.6-0.6-0.9-0.9l-2.1-2.1c0-1.5,0-3,0-4.4c2.2,2.2,4.4,4.4,6.5,6.5c0.5,0.5,1,0.7,1.6,0.7c0.2,0,0.4,0,0.6-0.1
				c0.7-0.2,1.3-0.7,1.5-1.5c0.2-0.7,0-1.5-0.5-2c-0.1-0.1-0.1-0.1-0.2-0.2l-1.4-1.4c-2.7-2.7-5.5-5.5-8.2-8.2c0-2.3,0-4.7,0-7
				c1-0.3,1.9-0.8,2.7-1.4c2.5,1.5,4.5,2.6,6.4,3.7c1,3.6,1.9,7.3,2.9,10.9l0.1,0.3c0.1,0.5,0.3,0.9,0.4,1.4c0.3,1,1.1,1.6,2.1,1.6
				c0.2,0,0.4,0,0.6-0.1c1.2-0.3,1.8-1.5,1.5-2.7c0,0-2.1-7.9-2.3-8.4l0.8,0.4c1.1,0.6,2.1,1.2,3.2,1.8c0.5,2,1.1,4,1.6,6
				c0.2,0.9,0.9,1.5,1.8,1.6c0.1,0,0.2,0,0.3,0c0.7,0,1.4-0.3,1.8-1c0.3-0.5,0.4-1.1,0.3-1.7c-0.2-0.6-0.3-1.3-0.5-1.9
				c1.4,0.8,2.7,1.6,4.1,2.4c0.3,0.2,0.6,0.3,1.1,0.4c0,0,0.1,0,0.1,0c0.1,0,0.3,0,0.4,0c0.9-0.2,1.6-0.9,1.7-1.8
				c0.1-0.5,0-1-0.3-1.4c-0.2-0.3-0.4-0.6-0.8-0.7c-0.8-0.4-1.5-0.9-2.3-1.3l-2.2-1.3c0.7-0.2,1.4-0.4,2.1-0.6
				c1-0.3,1.6-1.1,1.6-2.1c0-1-0.7-1.8-1.6-2.1c-0.2,0-0.3-0.1-0.5-0.1c-0.3,0-0.5,0.1-0.7,0.1l-1.6,0.4c-1.5,0.4-3,0.8-4.5,1.2
				c-1.3-0.8-2.6-1.5-3.9-2.2l2.1-0.6l6.9-1.9c1-0.3,1.6-1.1,1.6-2.1c0-1-0.7-1.8-1.6-2c-0.2,0-0.3-0.1-0.5-0.1
				c-0.2,0-0.4,0-0.7,0.1c-0.9,0.3-6.3,1.7-6.3,1.7c-2.2,0.6-4.5,1.2-6.7,1.8c-1.4-0.8-2.8-1.6-4.3-2.5c-0.6-0.3-1.2-0.7-1.8-1
				c0.3-1,0.3-2,0.1-3c2-1.2,4.1-2.4,6.4-3.7c2.3,0.6,4.7,1.3,7,1.9c1.8,0.5,3.6,1,5.5,1.5c0.2,0.1,0.5,0.1,0.7,0.1
				c0.6,0,1.2-0.3,1.6-0.7c0.5-0.6,0.6-1.3,0.4-2c-0.2-0.7-0.8-1.3-1.5-1.5c-0.8-0.2-1.6-0.4-2.4-0.6l-0.8-0.2c0,0-4.1-1.1-5.2-1.4
				l0.2-0.1c1.3-0.7,2.5-1.4,3.7-2.2c1.7,0.5,3.4,0.9,5.1,1.4l0.9,0.2c0.2,0.1,0.4,0.1,0.6,0.1c0.8,0,1.6-0.5,1.9-1.2
				c0.3-0.6,0.3-1.2,0-1.8c-0.3-0.6-0.8-1-1.4-1.2c-0.6-0.2-1.3-0.3-1.9-0.5c1.3-0.8,2.7-1.6,4.1-2.3c0.3-0.2,0.7-0.4,0.9-0.8
				c0.1-0.2,0.2-0.4,0.3-0.6l0-0.1v-0.8L640.3,224.7z M607.3,246.6c-2.1,0-3.7-1.7-3.7-3.7c0-2.1,1.7-3.7,3.7-3.7
				c2.1,0,3.7,1.7,3.7,3.7C611,244.9,609.3,246.6,607.3,246.6z"/>
		</g>
	</g>
	<g>
		<path class="st0" d="M866.4,127.5h-37.3c-18.7,17.5-24.5,19.8-56,19.8h-555c-29.8-0.7-35.5-0.4-56-19.8h-37.3l-21,218h47.8
			c22.2-123.6,36.1-137.6,125.9-137.6h137.6v248.9h160.9V207.9h137.6c89.8,0,103.8,15.2,125.9,137.6h47.8L866.4,127.5z M576.1,739.6
			V616H415.2c-8.4,121.9,43.8,224.3-129.4,211v45.5h419.7V827C622.5,831.1,571.4,816.7,576.1,739.6z"/>
		<g>
			<path class="st0" d="M961.9,424.9c-10.6,0-19.6,6.9-22.7,16.4h-98.6c-4.2,0-7.6,3.4-7.6,7.6c0,4.2,3.4,7.6,7.6,7.6h98.6
				c8,25.3,47,19.3,46.7-7.6C985.9,435.6,975.2,424.9,961.9,424.9z M961.9,457.7c-11.5-0.1-11.5-17.5,0-17.6
				C973.4,440.1,973.4,457.6,961.9,457.7z"/>
			<path class="st0" d="M159.4,441.3H60.8c-8-25.2-47-19.3-46.7,7.6c-0.3,26.9,38.7,32.9,46.7,7.6h98.6
				C169.3,456.4,169.3,441.3,159.4,441.3z M38.1,457.7c-11.5-0.1-11.5-17.5,0-17.6C49.6,440.1,49.6,457.6,38.1,457.7z"/>
		</g>
		<g>
			<path class="st0" d="M961.9,599.9c-10.6,0-19.6,6.9-22.7,16.4h-98.6c-4.2,0-7.6,3.4-7.6,7.6c0,4.2,3.4,7.6,7.6,7.6h98.6
				c8,25.3,47,19.3,46.7-7.6C985.9,610.7,975.2,599.9,961.9,599.9z M961.9,632.7c-11.5-0.1-11.5-17.5,0-17.6
				C973.4,615.2,973.4,632.7,961.9,632.7z"/>
			<path class="st0" d="M159.4,616.3H60.8c-8-25.2-47-19.3-46.7,7.6c-0.3,26.9,38.7,32.9,46.7,7.6h98.6
				C169.3,631.5,169.3,616.4,159.4,616.3z M38.1,632.7c-11.5-0.1-11.5-17.5,0-17.6C49.6,615.2,49.6,632.7,38.1,632.7z"/>
		</g>
		<g>
			<g>
				<g>
					<rect x="60.2" y="616" class="st0" width="877.9" height="15.7"/>
					<rect x="60.2" y="441.2" class="st0" width="877.9" height="15.7"/>
				</g>
			</g>
		</g>
	</g>
	<g>
		<g>
			<g>
				<path class="st0" d="M829.6,370c-0.1-0.5-0.2-1-0.3-1.5c-0.1-0.5-0.3-1-0.4-1.5c-4.2-15.3-15.5-26.8-28.9-32.8
					c-11.8-5.3-24.5-6.6-36.9-5c-0.5-4.2,2-7.8,5.1-10.4c2.7-2.2,5.5-3.5,8.5-5c1-0.5,1-0.8,0.4-1.6c-0.1-0.1-0.3-0.2-0.4-0.4
					c-1.7-1.9-3.2-3.5-2.9-6.3c0.5-4,1.7-7.3,4.1-10.6c0.6-0.8,0.3-1.1-0.5-1.4c-0.8-0.3-1.6-0.4-2.3-0.8c-2.1-1.4-3-3.3-3.4-5.7
					c-0.5-3.4-0.6-6.7-0.5-10.1c0-0.2-0.1-0.5-0.3-0.6c-0.2-0.1-0.5,0.1-0.7,0.2c-0.2,0.1-0.2,0.3-0.3,0.5c-0.9,1.9-1.6,3.5-3,5.2
					c-3.7,4.4-9.6,6-14.9,3.5c-0.3-0.1-0.6,0-0.8,0.2c0.2,0.5,0.6,0.9,0.8,1.3c0.6,1,0.9,2.2,1.2,3.3c0.4,1.4,0.8,2.8,0.9,4.2
					c0.2,2.2,0.2,4.3-1,6.3c-1.3,2.3-3.1,2.9-5.6,2.8c-0.9,0-1.9-0.4-2.9-0.4c-0.5,0-1,0.1-1.5,0.1c0.3,0.4,0.6,0.8,0.9,1.1
					c3.5,3,4.9,6.5,4.2,11c-0.5,3.4-1.6,6.3-1.9,9.7c-0.3,2.9,0,5.5-1.5,8.1c-17.7,6.6-32.5,19.1-46.9,32
					c-15.2,13.6-30.7,27-48.1,37.2c-4.2,2.5-8.5,4.7-12.8,6.7c-1.9,0.6-3.8,1.3-5.7,2c0.7-2.6,1.2-5.4,2.9-7.5
					c1.8-2.3,4.3-3.9,6.9-5.1c1.6-0.7,3.3-1,5.1-0.9c1.7,0.1,3.6,1.2,5.3,0.8c0.2-1.2-0.4-2.4-0.3-3.6c0.1-0.6,0.3-1.2,0.5-1.8
					c1.9-4.6,4.6-9.6,9.9-10.6c0.5-0.1,1-0.5,1.5-0.7c-0.4-0.5-0.7-1-1.1-1.5c-0.6-0.7-1.4-1.4-1.8-2.2c-1.3-2.7-1.1-5.5,0-8.2
					c0.8-1.9,1.7-3.7,2.7-5.4c0.4-0.8,0.5-1.5-0.3-1.9c-2.4-1.2-3.3-3.4-3.9-5.8c-1.3-5.1-4.2-8.9-8.9-11.3c-0.4-0.2-1,0-1.5,0.1
					c0.2,0.4,0.4,0.9,0.6,1.3c0.8,1.1,1.8,2,2.4,3.2c1.4,2.7,1.4,5.7,0.8,8.4c-0.9,4.5-5.3,8.2-10.3,6.6c-0.5-0.2-1.1,0-1.7,0
					c0.2,0.6,0.4,1.2,0.8,1.6c2.7,2.6,3.9,6.3,3.1,10c-0.2,0.9-0.7,1.8-1.4,2.4c-1.6,1.2-3.3,1.9-5.4,1.8c-1.5-0.1-2.9-0.4-4.4-0.5
					c-0.5,0-1,0.1-1.2,0.5c-0.1,0.2,0,0.5,0.2,0.7c1.1,2.2,3.2,3.5,4.2,5.8c0.9,2.1,1,4.4,0.5,6.6c-0.2,0.6-0.4,1.1-0.8,1.6
					c-1.2,1.6-2.6,3-3.6,4.7c-2.1,3.8-4.6,7.4-4.1,11.9c-0.4,0.2-0.9,0.4-1.3,0.5c-0.7,0.3-2.7,0.8-4.2,1.7
					c-8.7,2.8-17.7,4.5-26.9,4.7c-8.8,0.3-17.6-0.8-26.1-3.3c-5.7-1.7-11-4.2-16.2-7c-2.9-1.6-5.8-3.2-8.7-4.9
					c-1.1-0.6-1.9,1.1-1.1,1.9c3.6,3.8,7.7,6.8,12.2,9.2c10.5,5.6,22.8,7.8,33.9,8.3c17.3,0.7,34.3-3.7,50-11.1
					c0.1,0,0.2-0.1,0.3-0.1c5.6-1.5,11.2-0.6,16.7,0.9c9.1,2.6,16.8,7,18.6,17.5c0.1,0.5,0.5,1.3,0.9,1.4c0.4,0.1,1.1-0.4,1.5-0.8
					c5.7-6,17.1-3.4,18.8,4.9c0,0.1,0,0.2,0,0.2c0.3,1.3,0.4,2.7,0.7,4c0.1,0.6,0.6,1.2,0.9,1.8c0.5-0.5,1.2-1,1.4-1.6
					c0.6-1.7,1.4-3.1,2.5-4.3c1.4-1.5,3.3-2.5,5.3-3.1c4.4-1.3,8.1-0.6,10.6,3.1c0.2,0.3,0.3,0.6,0.5,0.8c0.1,0.1,0.1,0.2,0.2,0.3
					c0.5,0.5,1,0.9,1.6,1.4c0.4-0.5,1.1-1,1.2-1.6c0.1-0.3,0.2-0.6,0.3-0.9c0.6-1.2,1.5-2,2.8-2.6c4-1.8,8.1-2.4,12.4-1.8
					c1.3,0.2,2.5,0.5,3.8,0.6c0.5,0,1.1-0.4,1.7-0.6c-0.4-0.4-0.8-1-1.2-1.3c-1-0.6-2.3-0.8-3-1.6c-2.1-2.3-4.2-4.7-5.7-7.4
					c-1.6-3.1-2.7-6.7-1.6-10.2c1-3.4,0.9-4.6-3.5-3.8c-5,1-9.3-1.8-11-6.3c-1.2-3.4-1.6-7-2.3-10.6c-0.1-0.5-0.4-1.1-0.6-1.6
					c-0.6,0.3-1.3,0.4-1.6,0.8c-2.1,2.6-5,4.1-7.9,5.6c-5.6,2.8-11.5,0.1-13.9-5c-0.8-1.7-1.1-3.6-1.8-5.3c-0.2-0.6-0.7-1-1.1-1.5
					c-0.4,0.5-1,0.9-1.1,1.5c-0.7,3.2-1.9,6.1-4.2,8.3c-5.2,4.9-10.9,8.9-18.4,9.8c-3.4,0.4-6.8,0.9-10.2,1.5
					c10.7-6.5,20.9-14.1,30.6-22.3c13.6-11.4,26.2-24.4,40.7-34.4c4.5-3.1,9.5-6,14.8-8.3c0.7-0.2,1.4-0.2,2.1-0.2
					c3.2,0.2,6.3,0.7,9.2,1.8c2.9,1.1,4.9,2.8,7,5c-1.7,1.8-2.2,4.3-0.7,6.3c1.4,2,4.1,2.6,6.2,1.4c2.1-1.2,2.9-3.8,1.9-6.1
					c-1.1-2.3-3.5-3.1-5.9-2.5c-0.2,0.1-0.4,0.2-0.6,0.1c-0.2-0.1-0.3-0.2-0.4-0.3c-2-2.1-4.2-3.8-7-4.9c-2.5-0.9-5.1-1.2-7.6-1.7
					c2.9-0.9,6.1-0.5,9-0.5c3.7,0,7,0.6,10.6,1.2c0.7,0.1,1.4,0.4,2,0.6c0.1,0.1,0.3,0.2,0.4,0.3c0,1.8,0.4,3.5,1.9,4.7
					c2.5,2,5.7,1.9,7.8-0.5c2.1-2.4,1.9-5.7-0.5-7.8c-2.4-2.2-5.6-1.7-7.9,0.4c-0.5,0.5-0.8,1.2-1.1,1.8c-0.3,0-0.5,0-0.7,0
					c-2.8-0.6-5.7-1.4-8.5-1.6c-2.1-0.1-4-0.2-6.2-0.3c-1.1,0-2,0-3.2,0c-0.4,0-1.1,0.2-1.7,0.2c16.8-6.1,35.7-7.6,51.7-0.5
					c4.1,2.7,8.8,5.9,8,11.2c-0.4,2.3-1.3,2-3.1,2.4c-0.3,0.1-0.9,0.3-1.2,0.2c0.9,1.9,1.8,4.1,1.2,6.2c-0.6,2.1-2,2.8-3.8,3.6
					c1.1,0.7,1.4,1.5,1,2.9c-0.3,1.4-1.3,2.8-2,4c1.7,0.5,2.8,1.1,2.7,3.2c-0.1,2.1-1.1,4.4-1.8,6.5c-0.1,0.3-0.3,0.7-0.1,1
					c0.6-0.9,1.2-1.9,2-2.6c1-0.9,2.1-1.2,3.3-1.2c1.2,0,2,0.4,3.2,0.6c0.2,0,0.5,0,0.6-0.2c0.2-0.2,0.1-0.4,0.2-0.6
					c0.3-2.3,1.3-4.1,2.9-5.8c1.5-1.7,3.2-3,5.2-4.2c-1-1.5-1.5-2.5-1.4-4.5c0.1-2,0.7-4.1,1.7-5.9c0.1-0.2,0.4-0.4,0.3-0.8
					c-0.1-0.3-0.4-0.2-0.8-0.2c-2.1,0.1-2.9-0.9-4.2-2.7c-1.5-2.1-2.2-4.4-3.4-6.6c-0.2-0.3-0.4-0.6-0.6-1c3,2.2,5.8,4.7,8.4,7.6
					c9.2,10.3,12.9,25.4,10.1,39.3c-3.4,16.7-16.5,25.4-31.8,25.3c-8,0-17.2-1.4-24.4-5.8c-7.2-4.4-11.2-13.6-9-22.3
					c2-7.8,9.2-13.7,17.4-11.5c3.3,0.9,4.5,5.3,1.6,7.5c-0.6,0.5-1.4,0.6-2,0c-0.4-0.4-0.5-1-0.3-1.5c0.1-0.3,0.4-0.6,0.8-0.6
					c0-0.6-0.8-0.9-1.3-0.7c-0.6,0.2-0.9,0.7-1.2,1.3c-0.7,1.6-0.7,3.5,0.2,4.9c0.5,0.8,1.2,1.4,2,1.8c1.9,1.1,4.7,0.5,6-1.2
					c0.1-0.1,0.1-0.1,0.2-0.2c0.1-0.1,0.3-0.1,0.4-0.1c0.6,0,1.2,0.3,1.6,0.8c1.4,2-1.3,4.1-3.1,4.1c-0.4,0-0.8-0.1-1.1-0.4
					c-0.3-0.3-0.4-0.8-0.1-1.1c-1.1,0.1-1.9,1.1-2,2.2c-0.1,1.1,0.5,2.1,1.4,2.8c0.9,0.6,1.9,0.9,3,1c3.8,0.3,7.7-2,9-5.5
					c0.9-2.6,1.1-5.9,0.2-8.5c-0.9-2.5-1.8-5.1-3.5-7.2c-5.6-7.1-15.9-7.1-22.9-3c-7.5,4.4-12,13.3-11.1,22.7c0.3,2.9,1,5.5,2.1,7.9
					c-0.6-0.3-1.3-0.6-2-0.8c-5.2-1.6-12.4,0.6-12.8,6.9c-0.2,2.4,0.8,4.4,2.4,5.6c2.6,2.4,7.3,2.4,10.1-0.1
					c1.5-1.3,2.1-3.5,1.5-5.4c-0.5-2-3.2-2.5-5-2.4c-0.3,0-0.7,0.1-1,0.2c-0.8,0.3-1.3,1.1-1.3,1.9c-0.1,0.8,0.2,1.7,0.7,2.3
					c0-0.3,0.2-0.6,0.4-0.8c0.3-0.2,0.6-0.1,0.9,0c0.4,0.3,0.5,1,0.2,1.5c-0.7,1.4-2.5,1.3-3.7,0.7c-1.7-1.2-2.1-2.7-1.4-4.5
					c0.8-1.9,3.1-2.8,5-2.9c3.7-0.1,7,2.4,9.7,4.6c3.4,2.7,6.9,5.4,11,6.8c4.3,1.5,8.9,2.6,13.4,3.3c12.2,1.8,25.9-0.7,34.6-10.1
					C830,399.6,832.5,383.9,829.6,370z M636.8,398.4c0,0,0.1-0.1,0.1-0.1c0.4-2,1.8-3.7,2.3-5.7c0.7-2.9-0.1-5.3-1.5-7.8
					c-0.1-0.1,0.1-0.2,0.2-0.1c1.8,2.1,3,4.2,2.8,7.1c0,0.3-0.1,0.6-0.1,0.9c2.6-3.1,4.7-6.1,5.8-10.2c1.3-4.6,1.1-9.1,0.1-13.7
					c0-0.1,0.1-0.1,0.1,0c1.8,4.6,1.9,10.3,0.3,15.5c1.2-2.2,2.3-4.3,3.3-6.5c3.6-7.3,5.8-15.1,5.1-23.3c0,0,0,0,0,0
					c0.9,6.1-0.1,12.2-2.2,18c1.8-2.9,4.3-5.3,6.9-7.4c0.1,0,0.1,0,0.1,0.1c-3.5,3.2-5.9,6.9-8.3,11c0,0.1-0.1,0.1-0.1,0.1
					c-0.2,0.5-0.4,0.9-0.6,1.4c-1,2.3-2.2,4.5-3.4,6.6c2.8-2.3,6.5-3.7,10.1-4.3c0.1,0,0.1,0.1,0,0.1c-2.5,1.1-5,1.8-7.4,3.2
					c-1.8,1.1-3.1,2.4-4.4,3.9c-0.6,1-1.2,2-1.8,3c-0.8,1.4-1.7,2.9-2.6,4.3c2-1,4.5-1.1,6.5-0.1c0,0,0,0,0,0
					c-4.3-0.4-7,0.7-9.6,4.1c-0.1,0.2-0.3,0.2-0.4,0.1c-0.2,0.2-0.4,0.4-0.6,0.6c-0.1,0.1-0.3,0.1-0.4,0.1
					C636.9,399.2,636.5,398.7,636.8,398.4z M662.1,409.9c0-0.3,0.1-0.6,0.4-0.7c0.1,0,0.2,0,0.3-0.1c0.1-0.1,0.3-0.2,0.4-0.3
					c0.2-0.1,0.5-0.2,0.7-0.3c3.7-2,8.8-1.8,12.8-3.1c4.6-1.5,8.7-4.4,10.3-9.2c0-0.1,0.2-0.1,0.2,0c-0.4,4.1-2.8,7.2-6.2,9.5
					c-1,0.7-2.1,1.3-3.2,1.8c2.9,0.2,5.8,0.5,8.6,0.6c9.6,0.2,17.6-2.9,23.7-10.5c0.1-0.1,0.3,0,0.2,0.2
					c-3.4,6.4-9.6,10.8-16.6,12.2c0.9,0.2,1.9,0.4,2.8,0.6c1.3,0.3,2.6,0.7,3.9,1.1c1.9,0.5,3.8,1.1,5.7,1.9
					c4.4,0.4,8.1-0.2,12.4-1.4c2.6-0.7,5.4-2,8.2-1.5c0,0,0,0.1,0,0.1c-4.8,1.3-10.3,4.3-15.6,4.8c6,2.7,11.8,6,17.1,9.9
					c0.3,0.2,0,0.6-0.3,0.5c-4.9-3.3-10.1-6.1-15.6-8.5c3.3,3.1,5.3,7.3,6.7,11.9c0,0,0,0.1-0.1,0c-4.1-6.8-7.3-12.5-15.4-15
					c-5.4-1.7-11.1-2.7-16.7-3.8c-1.4,0-2.9-0.1-4.3-0.2c8.4,2.9,15.9,8,17.6,17.3c0,0.1-0.2,0.2-0.2,0.1
					c-4.8-11.1-14.9-15.7-25.8-17.7c-1.4,0-2.8,0.1-4.2,0.2c4.9,1.6,8.8,5.5,9.8,11.1c0,0.1-0.1,0.1-0.1,0.1
					c-2.8-6.6-9.1-11.1-16.5-9.9C662.1,411.6,661.6,410.4,662.1,409.9z M761.4,326.8c-1.3-1.2-2.5-1.7-4.3-1.3
					c-0.7,0.2-1.4,0.5-2.1,0.8c-1.1,0.5-2.2,1.2-3.2,1.8c-0.2,0.1-0.4,0.4-0.7,0.5c-0.7,0.4-1.5,0.3-1.5-0.7c0-0.4,0.1-0.7,0.5-0.9
					c0,0,0.1,0,0.2-0.1c1-1.4,2.3-2.8,3.3-4.1c1-1.3,2-2.4,2.8-3.7c0.3-0.4,0.5-0.8,0.6-1.2c0.1-1.7,0-3.2-0.7-4.7
					c-1-2.1-2.6-3.9-4.1-5.7c0-0.1,0-0.1,0.1-0.1c2.7,2.3,4.9,4.8,6,8.3c1.1-2.4,2.9-4.4,3.8-6.8c2.6-7.1-0.2-12.5-4.4-18.3
					c0,0,0-0.1,0,0c4.3,5,7,9.8,5.9,16.5c0,0,0,0,0,0c1.4-3.6,2.7-7.2,3.4-11c0.7-3.8,0.8-7.3,0.9-11.1c0,0,0.1,0,0.1,0
					c0.7,7.1-0.4,13.5-2.6,20.2c1.1-1.5,2.4-2.9,3.7-4.3c1.6-1.6,3.4-2.9,5.3-4.2c0.1,0,0.1,0,0.1,0.1c-3.5,3.3-6.5,7-9.1,11
					c-1,1.4-2,2.8-2.8,4.2c-1,1.7-1.7,3.5-2.8,5.1c0.3-0.2,0.5-0.5,0.8-0.7c3.9-2.9,8.1-3.5,12.9-3.7c0,0,0,0,0,0
					c-2.3,0.4-4.5,0.8-6.7,1.7c-2.2,0.9-4.1,2.4-5.8,4c-1.7,1.6-3,3.4-4.6,5.1c-0.4,0.5-0.9,1-1.4,1.4c0.5-0.1,1-0.3,1.5-0.3
					C758.8,324.3,760.3,324.8,761.4,326.8C761.5,326.9,761.5,326.9,761.4,326.8z M807.6,346.8c0.2,0.2,0.2,0.4,0.4,0.6
					c0.2,0.2,0.1,0.2,0.3,0.6c0.1,0.4,0.2,1.1,0.5,1.6c0.3,0.7,1,2,1.4,2.6c0.9,1.4,1.9,2.1,3.1,3.2c0,0,0,0.1,0,0.1
					c-1.2-0.6-2.2-1.1-3.1-2.1c-0.2-0.2-0.5-0.7-0.7-1c0.1,0.7,0.2,1.5,0.3,2.2c0,0.1,0,0.3,0,0.4c0.1,0.6,0.2,1.3,0.3,1.9
					c0.1,0.8,0.3,1.7,0.5,2.4c0.6,1.7,1.4,3.1,2,4.7c0,0,0,0.1-0.1,0.1c-1-1.3-1.8-2.7-2.5-4.3c-0.3-0.6-0.5-1.3-0.7-2
					c-0.3,1.2-0.6,2.4-0.9,3.6c-0.6,1.8-1.3,3.4-2,5.1c-0.4,1-0.6,1.9-0.6,2.9c0,1.3,0.3,2.4,0.5,3.6c0,0,0,0.1-0.1,0
					c-0.6-1.7-0.9-3.2-0.8-5c-1.3,1.9-2.6,3.8-3.8,5.8c0,0-0.1,0,0,0c0.9-2,2.2-3.7,3.4-5.5c0.4-0.6,0.7-1.2,1-1.8c0,0,0-0.1,0-0.1
					c0.3-0.7,0.6-1.3,0.9-2c-0.6,0.6-1.4,1.1-2.2,1.5c-1.1,0.6-2,1-3.2,0.9c-0.1,0,0-0.1,0-0.1c0.5-0.1,0.9-0.2,1.4-0.4
					c0.5-0.2,1.2-0.6,1.7-0.9c0.5-0.3,1.1-0.7,1.5-1.1c0.4-0.4,0.8-0.8,1.1-1.2c0.2-0.3,0.2-0.7,0.4-1.1c0.4-1.1,0.6-2.3,0.9-3.5
					c-0.3,0.4-0.8,0.9-1.2,1.3c-1.1,0.9-2.3,1.2-3.7,1.4c0,0,0,0,0-0.1c1.2-0.4,2.4-0.8,3.2-1.6c0.9-0.8,1.4-1.7,1.9-2.8
					c0.2-0.4,0.1-0.8,0.1-1.3c-0.1-0.8-0.3-1.8-0.4-2.6c-0.1,0.3-0.3,0.8-0.5,1.1c-0.9,1-1.9,1.3-3.1,0.9c0,0,0-0.1,0-0.1
					c1.4-0.5,2.2-0.9,2.6-2.4c0.3-1-0.1-2.3-0.2-3.4c0-0.1-0.1-0.1-0.1-0.2c0,0,0,0,0-0.1c-0.1-0.4-0.2-0.9-0.2-1.4
					C806.9,346.7,807.3,346.6,807.6,346.8z"/>
			</g>
			<path class="st0" d="M828.2,373.1C828.2,373.1,828.1,373.1,828.2,373.1c0,0.1,0.1,0.1,0.1,0.2
				C828.3,373.2,828.2,373.2,828.2,373.1z"/>
			<path class="st0" d="M849.1,380.9c-1.5-0.6-2.1-2-1.8-3.5c0.2-1.1,0.8-2.1,1.2-3.1c0.1-0.2,0.1-0.3,0.1-0.5
				c-0.2,0-0.4-0.1-0.6-0.1c-1,0.3-2,0.2-3,0.1c-1.9-0.2-3-1.9-2.7-3.6c0.1-0.6,0.3-1.1,0.4-1.7c0-0.2,0-0.4,0-0.6
				c-0.2,0.1-0.4,0.1-0.5,0.2c-0.7,0.7-1.5,1.3-2.5,1.4c-2.2,0.4-4.3,0.5-6.4-0.6c-0.7-0.3-1.4-0.6-2.1-0.9l-2.4-1.1l-0.3-0.1
				l-0.3,1c0,0-0.1,0.6-0.1,0.6c0,0,0.1,0.2,0.2,0.3c0.1,0.1,0.1,0.1,0.1,0.1c0.4,0.3,0.8,0.7,1.1,1.1c0.1,0.1,0.2,0.2,0.3,0.4
				c1.9,2.2,3.1,4.6,1.8,7.7c-0.1,0.1-0.1,0.4,0,0.5c0.1,0.1,0.3,0.1,0.5,0c2.5-0.6,5,2,4,4.4c-0.2,0.4-0.4,0.8-0.5,1.2
				c-0.1,0.2,0,0.4-0.1,0.6c0.2-0.1,0.5,0,0.6-0.2c1-0.8,2.1-0.9,3.3-0.6c1.5,0.4,2.3,1.3,2.2,2.9c0,0,0,0.1,0,0.1
				c0.1,0.2,0.1,0.4,0.2,0.6c0.2-0.1,0.4-0.1,0.6-0.2c0.4-0.4,0.9-0.5,1.4-0.4c1.3,0.2,2.5,0.7,3.5,1.6c0.3,0.3,0.6,0.6,0.9,0.8
				c0.1,0.1,0.4,0.1,0.5,0.1c0-0.2,0-0.4-0.1-0.5c-0.1-0.3-0.4-0.6-0.5-0.9c-0.1-1-0.3-1.9-0.2-2.9c0.1-1.1,0.4-2.2,1.3-2.9
				C850.2,381.8,850.4,381.4,849.1,380.9z M848.4,381.4c-1.5-0.5-3.4-0.6-4.8-1.4c1.1,1.7,2,3.5,2.7,5.4c0,0.1-0.1,0.2-0.1,0.1
				c-0.7-1.7-1.6-3.3-2.6-4.8c0.3,1.4,0.2,2.8-0.3,4.2c0,0,0,0,0,0c0.1-2.4,0.2-4.5-1.4-6.5c-1.1-1.4-2.4-2.6-3.7-3.8
				c-0.4-0.2-0.7-0.5-1.1-0.8c1.7,2.2,2.8,4.7,1.6,7.4c0,0-0.1,0-0.1,0c0.6-3.7-1.2-6.5-3.7-8.9c-0.4-0.2-0.7-0.5-1.1-0.7
				c1,1.2,1.4,2.9,0.6,4.5c0,0,0,0,0,0c0.4-2.2-0.5-4.4-2.6-5.3c-0.3-0.1-0.2-0.5,0-0.6c0-0.1,0.1-0.1,0.2-0.1c0,0,0.1,0,0.1,0
				c0,0,0.1,0,0.2,0c0.1,0,0.2,0,0.2,0.1c1.3,0.1,2.6,1,3.8,1.4c1.4,0.4,3,0.3,4.2-0.6c0,0,0.1,0,0,0c-0.8,1-2,1.4-3.2,1.4
				c-0.4,0-0.8,0-1.1-0.1c0.7,0.6,1.4,1.1,2.1,1.6c2.4,1.7,5,2.2,7.9,1.3c0.1,0,0.1,0.1,0,0.1c-1.9,1.1-4.3,1.2-6.3,0.3
				c0.2,0.2,0.4,0.4,0.6,0.6c0.3,0.3,0.6,0.6,0.8,0.9c0.4,0.5,0.8,0.9,1.2,1.4c1.1,0.8,2.1,1.3,3.4,1.7
				C846.9,380.6,847.8,380.8,848.4,381.4C848.4,381.4,848.4,381.4,848.4,381.4z"/>
		</g>
		<path class="st0" d="M637.2,363.6c-0.7-0.1-7.9-2.6-7.7-2.9c-5.2,5.1-14.4,4.6-18.7-1c-2,3.6-6.1,4.9-10.2,4.9
			c0.6-1,1.3-2,1.9-3.1c3.5-0.5,6.9-1.5,10.2-2.9c0.2,0.5,0.4,0.9,0.9,1.2c0.5,0.3,1,0.4,1.6,0.4c1,0,2-0.2,2.7-0.9
			c1.5-1.3,1-4-0.8-4.9c-0.4-0.2-0.8-0.3-1.2-0.3c0.8-0.6,1.6-1.2,2.4-1.9c1.2,1,2.8,0.9,4,0c0.4-0.3,0.7-0.6,0.9-1.1
			c0.2-0.6,0.1-1.2,0-1.8c-0.5-2.1-2.7-3.7-4.8-2.6c-0.5,0.2-0.8,0.6-1,1c-0.6,1.2-0.4,2.8,0.4,3.9c-1.1,0.9-2.2,1.8-3.4,2.6
			c-0.1,0-0.1,0-0.2,0.1c-0.6,0.2-1.1,0.6-1.4,1c-0.6,0.4-1.1,0.7-1.7,1c-2.4,1.3-5,2.4-7.5,3.5c0.7-1.2,1.4-2.5,2-3.7
			c1-1.1,2-2,3.2-2.9c0.2,0.3,0.4,0.6,0.8,0.8c0.5,0.3,1.2,0.4,1.8,0.4c1.1,0,2.3-0.3,3.1-1c1.7-1.5,1.1-4.6-0.9-5.6
			c-1-0.5-2.3-0.5-3.3-0.1c-0.4,0.2-0.9,0.4-1.2,0.7c0.5-1.3,0.9-2.5,1.4-3.9c3.6-2.5,9.3-5.2,11-5.2c0.3,0,0.5,0,0.8-0.2
			c0.6-0.4,0.1-1.3-0.2-1.9c-0.9-1.8,0-4.1,1.6-5.4c1.5-1.3,3.6-1.9,5.5-2.4c-1.4-1.5-2-3.7-1.4-5.6c0.5-1.9,2.1-3.6,4.1-4.1
			c-0.3-0.4-0.5-0.8-0.7-1.1c-2.6-4.6,0-9.2-1.1-13.9c-2.2,1.2-3.2,3.8-5.1,5.4c-0.5,0.4-6,3.7-6,3.5c0.4,5.8-4.8,11.5-10.8,11.5
			c1.8,4.1-1.4,8.7-5,11.3c1.6-1.2,3.7,8,4.3,10.9c-2.2,5.7-4.9,11.2-8.3,16.3c0,0,0,0,0,0.1c0,0,0,0.1-0.1,0.1
			c-0.1,0.2-0.3,0.4-0.4,0.7c0,0,0,0,0,0c-0.8,1.1-2.3,3.3-4,5.4l0,0c-0.2,0.3-0.4,0.6-0.6,0.8c0.7-3.1,0.9-6.3,0.7-9.5
			c0-0.1,0-0.2,0-0.4c0.3-2.8,1.5-11.6,5.8-10.9c-2.2-1.7-4.2-3.8-5-6.6c-0.8-2.8-0.1-5,2.1-6.9c-2.9-1.8-6-2.9-8.3-5.6
			c-1-1.1-2.3-5.1-0.5-6.3c-6.1,0.6-9.6-3.1-13.1-7.5c0,2.7,0.7,13.6-1.8,14.1c2.4,1.5,4.6,2.6,5.8,5.5c0.2,0.6,0.7,5.1-1.1,5.2
			c2.9,1.2,10.4,4.7,7,8.4c3.4,2.5,5.1,5.6,6.2,9.6c0.2,0.7,0.3,1.5,0.8,2c0.2,0.2,0.5,0.3,0.7,0.4c0.2,3.8-0.3,7.5-1.6,11.1
			c0,0,0,0,0,0c-0.1,0.1-0.2,0.3-0.3,0.4c0,0,0,0-0.1,0.1c-0.4,0.5-0.8,0.9-1.2,1.3c0,0-0.1,0.1-0.1,0.1c0,0,0,0-0.1,0.1
			c-0.8,0.8-8.2,7.9-14.2,12.4c-1.4,1-2.7,1.9-3.8,2.6l3.5,0.6c0,0,0.6-0.4,1.7-1.2c2.7-2,8.2-6.3,14.1-12.9
			c4.8,0.3,14.3,4.8,15.9,6.6c0.2,0.2,0.4,0.5,0.7,0.6c0.8,0.2,1.3-0.9,1.7-1.7c1.1-2.2,3.9-3.2,6.2-2.8c2.4,0.4,4.4,1.8,6.3,3.2
			c0.4-2.5,2.1-4.7,4.3-5.8c2.2-1,4.9-0.8,6.9,0.5c0.1-0.6,0.3-1.1,0.5-1.6c2.5-6,8.7-7.3,12.4-12
			C643.4,362.9,640.1,364,637.2,363.6z M611.6,356.9c0.3-0.2,0.5-0.3,0.8-0.5c0,0.5,0.1,1,0.2,1.4c-2.7,1.1-5.6,2-8.5,2.6
			C606.6,359.4,609.2,358.3,611.6,356.9z M607.9,341.6c2.7-9,12.1-13.8,15-22.7c0.2-0.7,1.3-0.3,1.1,0.3c-2.7,8.2-11,13-14.3,20.7
			c-0.1,0.1-0.2,0.2-0.3,0.4c-0.2,0.6-0.3,1.1-0.5,1.7C608.7,342.6,607.7,342.3,607.9,341.6z M608,350.7c0,0.4,0.1,0.8,0.2,1.2
			c0,0.2,0.1,0.4,0.2,0.6c-0.6,0.5-1.3,0.9-1.8,1.5C607.1,352.9,607.6,351.8,608,350.7z M592.3,354.7c-0.7-8.1-6.2-14.8-9.6-22
			c-0.3-0.7,0.7-1.2,1-0.5c3.2,6.9,8.6,13.3,9.6,20.9c-0.1,0.1-0.1,0.3,0,0.5c0,0.1,0.1,0.2,0.1,0.4c0,0.2,0,0.4,0.1,0.6
			C593.5,355.2,592.4,355.4,592.3,354.7z M631,368.2c-3,2.9-8.9,2.5-12.8,2.5c-2.8,0-5.5-0.1-8.3-0.3c-2.5-0.1-5,0-7.4,0.9
			c-1.8,0.7-3.4,1.7-5.2,2.3c-0.7,0.3-1.2-0.8-0.5-1c3.1-1.2,5.7-2.9,9.1-3.3c3.2-0.3,6.4,0.1,9.6,0.2c4.2,0.1,11.5,1.1,14.8-2.1
			C630.7,366.9,631.5,367.7,631,368.2z"/>
	</g>
	<g>
		<g>
			<g>
				<path class="st0" d="M142.4,411.1c8.7,9.3,22.4,11.9,34.6,10.1c4.5-0.7,9.1-1.8,13.4-3.3c4.1-1.5,7.6-4.2,11-6.8
					c2.8-2.2,6-4.7,9.7-4.6c2,0.1,4.2,0.9,5,2.9c0.7,1.8,0.3,3.3-1.4,4.5c-1.2,0.6-2.9,0.7-3.7-0.7c-0.3-0.5-0.2-1.2,0.2-1.5
					c0.3-0.2,0.6-0.2,0.9,0c0.3,0.2,0.4,0.5,0.4,0.8c0.5-0.7,0.8-1.5,0.7-2.3c-0.1-0.8-0.6-1.6-1.3-1.9c-0.3-0.1-0.7-0.2-1-0.2
					c-1.8-0.2-4.5,0.4-5,2.4c-0.5,1.9,0,4.1,1.5,5.4c2.8,2.4,7.6,2.5,10.1,0.1c1.6-1.2,2.6-3.2,2.4-5.6c-0.4-6.3-7.6-8.5-12.8-6.9
					c-0.7,0.2-1.4,0.5-2,0.8c1.1-2.4,1.8-5,2.1-7.9c0.9-9.4-3.5-18.3-11.1-22.7c-7-4.1-17.3-4.1-22.9,3c-1.7,2.1-2.6,4.7-3.5,7.2
					c-0.9,2.6-0.7,5.8,0.2,8.5c1.2,3.6,5.2,5.9,9,5.5c1.1-0.1,2.1-0.4,3-1c0.9-0.6,1.4-1.7,1.4-2.8c-0.1-1.1-0.9-2.1-2-2.2
					c0.3,0.3,0.2,0.8-0.1,1.1c-0.3,0.3-0.7,0.4-1.1,0.4c-1.9,0-4.5-2.2-3.1-4.1c0.4-0.5,1-0.8,1.6-0.8c0.1,0,0.3,0,0.4,0.1
					c0.1,0.1,0.1,0.1,0.2,0.2c1.3,1.7,4.1,2.3,6,1.2c0.8-0.5,1.5-1,2-1.8c0.9-1.4,0.9-3.3,0.2-4.9c-0.2-0.5-0.6-1.1-1.2-1.3
					c-0.6-0.2-1.3,0.2-1.3,0.7c0.4,0,0.7,0.3,0.8,0.6c0.2,0.5,0.1,1.1-0.3,1.5c-0.6,0.6-1.4,0.5-2,0c-2.9-2.2-1.7-6.6,1.6-7.5
					c8.2-2.2,15.5,3.7,17.4,11.5c2.2,8.7-1.8,17.9-9,22.3c-7.1,4.3-16.4,5.8-24.4,5.8c-15.3,0-28.3-8.6-31.8-25.3
					c-2.8-13.9,0.9-28.9,10.1-39.3c2.6-3,5.4-5.5,8.4-7.6c-0.2,0.3-0.4,0.6-0.6,1c-1.2,2.2-2,4.5-3.4,6.6c-1.3,1.8-2.1,2.8-4.2,2.7
					c-0.4,0-0.7-0.2-0.8,0.2c-0.1,0.3,0.1,0.5,0.3,0.8c1,1.9,1.5,4,1.7,5.9c0.1,2-0.4,3-1.4,4.5c1.9,1.2,3.6,2.5,5.2,4.2
					c1.5,1.7,2.5,3.5,2.9,5.8c0,0.2,0,0.4,0.2,0.6c0.2,0.2,0.4,0.2,0.6,0.2c1.1-0.2,2-0.6,3.2-0.6c1.2,0,2.3,0.3,3.3,1.2
					c0.8,0.7,1.4,1.7,2,2.6c0.2-0.3,0-0.7-0.1-1c-0.7-2.1-1.7-4.4-1.8-6.5c-0.1-2.1,0.9-2.7,2.7-3.2c-0.8-1.2-1.7-2.6-2-4
					c-0.3-1.4-0.1-2.2,1-2.9c-1.8-0.8-3.2-1.5-3.8-3.6c-0.5-2.1,0.3-4.2,1.2-6.2c-0.3,0.1-0.9-0.1-1.2-0.2c-1.8-0.4-2.8-0.1-3.1-2.4
					c-0.8-5.3,3.9-8.5,8-11.2c16.1-7.1,34.9-5.6,51.7,0.5c-0.6,0-1.3-0.2-1.7-0.2c-1.2,0-2.1-0.1-3.2,0c-2.1,0.1-4.1,0.2-6.2,0.3
					c-2.9,0.2-5.7,1-8.5,1.6c-0.3,0.1-0.5,0.1-0.7,0c-0.3-0.6-0.6-1.3-1.1-1.8c-2.3-2.2-5.5-2.6-7.9-0.4c-2.4,2.2-2.6,5.4-0.5,7.8
					c2.1,2.4,5.4,2.5,7.8,0.5c1.5-1.2,1.9-2.9,1.9-4.7c0.1-0.1,0.2-0.3,0.4-0.3c0.7-0.3,1.3-0.5,2-0.6c3.6-0.6,6.9-1.2,10.6-1.2
					c2.9,0,6.1-0.4,9,0.5c-2.6,0.5-5.2,0.8-7.6,1.7c-2.8,1-4.9,2.7-7,4.9c-0.1,0.1-0.2,0.2-0.4,0.3c-0.2,0.1-0.4,0-0.6-0.1
					c-2.4-0.6-4.8,0.2-5.9,2.5c-1,2.3-0.2,4.8,1.9,6.1c2.1,1.2,4.8,0.7,6.2-1.4c1.4-2,0.9-4.6-0.7-6.3c2.1-2.2,4.1-3.9,7-5
					c2.9-1.1,6-1.7,9.2-1.8c0.7,0,1.4,0.1,2.1,0.2c5.3,2.4,10.3,5.2,14.8,8.3c14.5,10,27.1,23,40.7,34.4
					c9.7,8.2,19.8,15.8,30.6,22.3c-3.4-0.6-6.8-1.2-10.2-1.5c-7.5-0.9-13.2-4.8-18.4-9.8c-2.3-2.2-3.5-5.1-4.2-8.3
					c-0.1-0.5-0.7-1-1.1-1.5c-0.4,0.5-0.9,0.9-1.1,1.5c-0.6,1.8-1,3.6-1.8,5.3c-2.3,5.1-8.3,7.7-13.9,5c-2.9-1.5-5.8-2.9-7.9-5.6
					c-0.3-0.4-1.1-0.6-1.6-0.8c-0.2,0.5-0.5,1-0.6,1.6c-0.8,3.5-1.1,7.2-2.3,10.6c-1.7,4.5-6,7.3-11,6.3c-4.4-0.9-4.5,0.4-3.5,3.8
					c1.1,3.4,0,7.1-1.6,10.2c-1.5,2.7-3.6,5.1-5.7,7.4c-0.7,0.8-2,1-3,1.6c-0.5,0.3-0.8,0.8-1.2,1.3c0.6,0.2,1.1,0.7,1.7,0.6
					c1.3-0.1,2.5-0.4,3.8-0.6c4.3-0.6,8.4,0,12.4,1.8c1.3,0.6,2.2,1.4,2.8,2.6c0.1,0.3,0.2,0.6,0.3,0.9c0.2,0.6,0.8,1.1,1.2,1.6
					c0.5-0.5,1-0.9,1.6-1.4c0.1-0.1,0.1-0.2,0.2-0.3c0.2-0.3,0.3-0.6,0.5-0.8c2.5-3.8,6.2-4.5,10.6-3.1c2.1,0.6,3.9,1.7,5.3,3.1
					c1.1,1.1,2,2.6,2.5,4.3c0.2,0.6,0.9,1.1,1.4,1.6c0.3-0.6,0.8-1.2,0.9-1.8c0.3-1.3,0.4-2.7,0.7-4c0-0.1,0-0.2,0-0.2
					c1.8-8.3,13.2-10.9,18.8-4.9c0.4,0.4,1,0.9,1.5,0.8c0.4-0.1,0.8-0.8,0.9-1.4c1.8-10.5,9.5-14.9,18.6-17.5
					c5.4-1.5,11-2.5,16.7-0.9c0.1,0,0.2,0,0.3,0.1c15.7,7.5,32.7,11.8,50,11.1c11.1-0.4,23.4-2.7,33.9-8.3c4.5-2.4,8.7-5.4,12.2-9.2
					c0.8-0.9,0.1-2.6-1.1-1.9c-2.9,1.6-5.8,3.3-8.7,4.9c-5.2,2.8-10.6,5.3-16.2,7c-8.5,2.5-17.4,3.5-26.1,3.3
					c-9.2-0.3-18.2-2-26.9-4.7c-1.4-0.8-3.5-1.4-4.2-1.7c-0.4-0.2-0.9-0.4-1.3-0.5c0.5-4.5-2-8.1-4.1-11.9c-1-1.7-2.4-3.1-3.6-4.7
					c-0.4-0.5-0.6-1-0.8-1.6c-0.6-2.2-0.5-4.5,0.5-6.6c1-2.3,3.1-3.6,4.2-5.8c0.1-0.2,0.2-0.5,0.2-0.7c-0.1-0.4-0.7-0.6-1.2-0.5
					c-1.5,0-2.9,0.4-4.4,0.5c-2.1,0.1-3.8-0.6-5.4-1.8c-0.7-0.5-1.2-1.5-1.4-2.4c-0.8-3.7,0.5-7.4,3.1-10c0.4-0.4,0.5-1.1,0.8-1.6
					c-0.6,0-1.2-0.2-1.7,0c-5,1.6-9.4-2.1-10.3-6.6c-0.6-2.8-0.6-5.8,0.8-8.4c0.6-1.2,1.6-2.1,2.4-3.2c0.3-0.4,0.4-0.8,0.6-1.3
					c-0.5,0-1.1-0.3-1.5-0.1c-4.7,2.4-7.6,6.2-8.9,11.3c-0.6,2.4-1.4,4.6-3.9,5.8c-0.8,0.4-0.8,1.1-0.3,1.9c1,1.8,1.9,3.6,2.7,5.4
					c1.2,2.7,1.3,5.5,0,8.2c-0.4,0.8-1.2,1.4-1.8,2.2c-0.4,0.5-0.7,1-1.1,1.5c0.5,0.3,1,0.6,1.5,0.7c5.3,1,8,6,9.9,10.6
					c0.2,0.6,0.5,1.2,0.5,1.8c0.1,1.2-0.4,2.4-0.3,3.6c1.7,0.4,3.6-0.7,5.3-0.8c1.7-0.1,3.5,0.2,5.1,0.9c2.6,1.2,5.1,2.8,6.9,5.1
					c1.7,2.1,2.2,4.9,2.9,7.5c-1.9-0.7-3.8-1.4-5.7-2c-4.4-2-8.7-4.3-12.8-6.7c-17.4-10.2-32.9-23.6-48.1-37.2
					c-14.3-12.9-29.1-25.4-46.9-32c-1.5-2.6-1.2-5.2-1.5-8.1c-0.4-3.4-1.4-6.3-1.9-9.7c-0.7-4.5,0.8-8,4.2-11
					c0.4-0.3,0.6-0.8,0.9-1.1c-0.5-0.1-1-0.2-1.5-0.1c-1,0.1-1.9,0.4-2.9,0.4c-2.6,0.1-4.3-0.6-5.6-2.8c-1.2-2-1.2-4.1-1-6.3
					c0.1-1.4,0.5-2.8,0.9-4.2c0.3-1.1,0.6-2.3,1.2-3.3c0.3-0.5,0.7-0.8,0.8-1.3c-0.2-0.2-0.5-0.3-0.8-0.2
					c-5.3,2.4-11.2,0.8-14.9-3.5c-1.4-1.7-2.2-3.3-3-5.2c-0.1-0.2-0.1-0.4-0.3-0.5c-0.2-0.1-0.4-0.3-0.7-0.2
					c-0.2,0.1-0.3,0.4-0.3,0.6c0.1,3.4,0,6.7-0.5,10.1c-0.4,2.4-1.3,4.3-3.4,5.7c-0.7,0.4-1.5,0.6-2.3,0.8c-0.8,0.3-1.1,0.6-0.5,1.4
					c2.5,3.2,3.7,6.6,4.1,10.6c0.3,2.7-1.2,4.4-2.9,6.3c-0.1,0.1-0.3,0.2-0.4,0.4c-0.6,0.8-0.6,1.1,0.4,1.6c3,1.5,5.8,2.7,8.5,5
					c3.1,2.6,5.6,6.1,5.1,10.4c-12.4-1.6-25.1-0.3-36.9,5c-13.4,6-24.8,17.5-28.9,32.8c-0.1,0.5-0.3,1-0.4,1.5
					c-0.1,0.5-0.2,1-0.3,1.5C130.5,385.3,133,401,142.4,411.1z M325.8,400.6c-0.1,0-0.3,0-0.4-0.1c-0.2-0.2-0.4-0.4-0.6-0.6
					c-0.1,0.1-0.3,0.1-0.4-0.1c-2.6-3.4-5.3-4.5-9.6-4.1c0,0,0,0,0,0c2-1,4.4-0.9,6.5,0.1c-1-1.4-1.8-2.9-2.6-4.3
					c-0.6-1-1.2-2-1.8-3c-1.3-1.4-2.5-2.8-4.4-3.9c-2.3-1.4-4.9-2.1-7.4-3.2c0,0,0-0.1,0-0.1c3.5,0.6,7.2,2,10.1,4.3
					c-1.2-2.2-2.4-4.4-3.4-6.6c-0.2-0.5-0.4-0.9-0.6-1.4c0,0-0.1-0.1-0.1-0.1c-2.4-4.1-4.8-7.8-8.3-11c0,0,0-0.1,0.1-0.1
					c2.6,2.1,5.1,4.6,6.9,7.4c-2-5.8-3.1-11.9-2.2-18c0,0,0,0,0,0c-0.7,8.2,1.5,16,5.1,23.3c1,2.1,2.1,4.3,3.3,6.5
					c-1.6-5.1-1.5-10.9,0.3-15.5c0-0.1,0.1,0,0.1,0c-1,4.6-1.1,9.1,0.1,13.7c1.1,4.1,3.3,7.1,5.8,10.2c0-0.3-0.1-0.6-0.1-0.9
					c-0.2-2.8,1-5,2.8-7.1c0.1-0.1,0.2,0,0.2,0.1c-1.4,2.5-2.3,4.9-1.5,7.8c0.5,2,1.9,3.7,2.3,5.7c0,0,0.1,0.1,0.1,0.1
					C326.4,400.2,326.1,400.6,325.8,400.6z M299.9,412.9c-7.3-1.1-13.6,3.3-16.5,9.9c0,0.1-0.1,0-0.1-0.1c0.9-5.6,4.8-9.5,9.8-11.1
					c-1.4-0.1-2.8-0.2-4.2-0.2c-11,2.1-21,6.7-25.8,17.7c-0.1,0.1-0.3,0-0.2-0.1c1.7-9.3,9.2-14.4,17.6-17.3
					c-1.4,0.1-2.9,0.2-4.3,0.2c-5.6,1.1-11.3,2.1-16.7,3.8c-8.1,2.5-11.3,8.2-15.4,15c0,0-0.1,0-0.1,0c1.4-4.6,3.4-8.8,6.7-11.9
					c-5.4,2.4-10.6,5.2-15.6,8.5c-0.3,0.2-0.5-0.3-0.3-0.5c5.3-3.9,11.1-7.3,17.1-9.9c-5.3-0.5-10.7-3.5-15.6-4.8c0,0,0-0.1,0-0.1
					c2.7-0.5,5.5,0.8,8.2,1.5c4.3,1.2,8,1.7,12.4,1.4c1.8-0.7,3.7-1.4,5.7-1.9c1.3-0.4,2.6-0.7,3.9-1.1c0.9-0.2,1.8-0.4,2.8-0.6
					c-7-1.4-13.2-5.8-16.6-12.2c-0.1-0.1,0.1-0.3,0.2-0.2c6.1,7.6,14.1,10.7,23.7,10.5c2.8-0.1,5.7-0.4,8.6-0.6
					c-1.1-0.5-2.2-1.1-3.2-1.8c-3.4-2.3-5.8-5.4-6.2-9.5c0-0.1,0.1-0.1,0.2,0c1.6,4.8,5.6,7.7,10.3,9.2c4,1.3,9.1,1.1,12.8,3.1
					c0.2,0.1,0.5,0.2,0.7,0.3c0.2,0.1,0.3,0.2,0.4,0.3c0.1,0,0.2,0,0.3,0.1c0.3,0.1,0.5,0.4,0.4,0.7
					C301.4,411.8,300.9,413,299.9,412.9z M201.5,328.2c1.2-2,2.7-2.5,5-2.3c0.5,0,1,0.2,1.5,0.3c-0.5-0.5-0.9-1-1.4-1.4
					c-1.6-1.7-2.9-3.4-4.6-5.1c-1.7-1.6-3.6-3.1-5.8-4c-2.2-0.9-4.4-1.2-6.7-1.7c0,0,0-0.1,0,0c4.8,0.2,9,0.8,12.9,3.7
					c0.3,0.2,0.5,0.5,0.8,0.7c-1.1-1.6-1.8-3.4-2.8-5.1c-0.9-1.5-1.8-2.8-2.8-4.2c-2.6-4-5.6-7.7-9.1-11c0,0,0-0.1,0.1-0.1
					c1.9,1.3,3.7,2.6,5.3,4.2c1.3,1.3,2.5,2.8,3.7,4.3c-2.2-6.7-3.3-13.1-2.6-20.2c0,0,0.1,0,0.1,0c0.1,3.8,0.2,7.4,0.9,11.1
					c0.7,3.7,2,7.4,3.4,11c0,0,0,0,0,0c-1.1-6.7,1.6-11.5,5.9-16.5c0,0,0.1,0,0,0c-4.2,5.8-7,11.2-4.4,18.3c0.9,2.5,2.7,4.5,3.8,6.8
					c1.2-3.5,3.3-5.9,6-8.3c0.1,0,0.1,0,0.1,0.1c-1.5,1.8-3.1,3.6-4.1,5.7c-0.7,1.6-0.9,3.1-0.7,4.7c0,0.5,0.3,0.8,0.6,1.2
					c0.9,1.3,1.8,2.4,2.8,3.7c1,1.3,2.3,2.7,3.3,4.1c0,0,0.1,0.1,0.2,0.1c0.4,0.2,0.4,0.5,0.5,0.9c0.1,0.9-0.8,1.1-1.5,0.7
					c-0.2-0.1-0.4-0.4-0.7-0.5c-1-0.6-2.1-1.3-3.2-1.8c-0.7-0.3-1.4-0.6-2.1-0.8C204,326.6,202.9,327,201.5,328.2
					C201.5,328.3,201.5,328.3,201.5,328.2z M156.1,348.5c0,0.4-0.1,0.9-0.2,1.4c0,0,0,0,0,0.1c0,0-0.1,0.1-0.1,0.2
					c-0.1,1.1-0.4,2.3-0.2,3.4c0.4,1.6,1.2,1.9,2.6,2.4c0,0,0.1,0.1,0,0.1c-1.2,0.4-2.3,0.2-3.1-0.9c-0.2-0.3-0.4-0.7-0.5-1.1
					c-0.2,0.8-0.3,1.8-0.4,2.6c-0.1,0.5-0.1,0.9,0.1,1.3c0.5,1.1,1,2,1.9,2.8c0.9,0.8,2.1,1.3,3.2,1.6c0,0,0.1,0.1,0,0.1
					c-1.4-0.2-2.5-0.5-3.7-1.4c-0.4-0.3-0.8-0.8-1.2-1.3c0.3,1.2,0.5,2.4,0.9,3.5c0.1,0.4,0.2,0.8,0.4,1.1c0.3,0.5,0.7,0.8,1.1,1.2
					c0.4,0.4,1,0.8,1.5,1.1c0.5,0.3,1.2,0.7,1.7,0.9c0.5,0.2,0.9,0.3,1.4,0.4c0.1,0,0.1,0.1,0,0.1c-1.2,0.1-2.1-0.3-3.2-0.9
					c-0.7-0.4-1.5-0.9-2.2-1.5c0.3,0.7,0.6,1.3,0.9,2c0,0,0,0.1,0,0.1c0.3,0.6,0.6,1.2,1,1.8c1.2,1.8,2.5,3.5,3.4,5.5c0,0,0,0,0,0
					c-1.2-2-2.5-3.9-3.8-5.8c0.1,1.8-0.2,3.3-0.8,5c0,0-0.1,0-0.1,0c0.2-1.2,0.6-2.4,0.5-3.6c0-1-0.2-1.9-0.6-2.9
					c-0.7-1.7-1.4-3.3-2-5.1c-0.4-1.1-0.7-2.4-0.9-3.6c-0.2,0.7-0.4,1.4-0.7,2c-0.7,1.6-1.5,2.9-2.5,4.3c0,0-0.1,0-0.1-0.1
					c0.6-1.6,1.4-3.1,2-4.7c0.2-0.7,0.4-1.6,0.5-2.4c0.1-0.6,0.1-1.3,0.3-1.9c0-0.1,0-0.2,0-0.4c0.1-0.7,0.2-1.5,0.3-2.2
					c-0.2,0.3-0.5,0.8-0.7,1c-1,1-1.9,1.5-3.1,2.1c0,0-0.1,0,0-0.1c1.2-1.1,2.1-1.8,3.1-3.2c0.4-0.6,1.1-1.9,1.4-2.6
					c0.2-0.5,0.3-1.2,0.5-1.6c0.1-0.4,0.1-0.4,0.3-0.6c0.2-0.2,0.2-0.4,0.4-0.6C155.7,348,156.1,348.1,156.1,348.5z"/>
			</g>
			<path class="st0" d="M134.7,374.7c0.1-0.1,0.1-0.1,0.2-0.1c0,0,0,0-0.1,0C134.8,374.6,134.7,374.7,134.7,374.7z"/>
			<path class="st0" d="M113.6,383.9c0.9,0.7,1.2,1.8,1.3,2.9c0.1,0.9-0.1,1.9-0.2,2.9c0,0.3-0.3,0.6-0.5,0.9
				c-0.1,0.2-0.1,0.4-0.1,0.5c0.2,0,0.4,0,0.5-0.1c0.3-0.2,0.6-0.5,0.9-0.8c1-0.9,2.2-1.4,3.5-1.6c0.5-0.1,1,0,1.4,0.4
				c0.1,0.1,0.4,0.1,0.6,0.2c0.1-0.2,0.1-0.4,0.2-0.6c0,0,0-0.1,0-0.1c-0.1-1.6,0.7-2.5,2.2-2.9c1.1-0.3,2.3-0.2,3.3,0.6
				c0.2,0.1,0.4,0.1,0.6,0.2c0-0.2,0-0.4-0.1-0.6c-0.2-0.4-0.4-0.8-0.5-1.2c-0.9-2.4,1.6-5,4-4.4c0.2,0,0.4,0.1,0.5,0
				c0.1-0.1,0.1-0.4,0-0.5c-1.3-3-0.1-5.4,1.8-7.7c0.1-0.1,0.2-0.2,0.3-0.4c0.4-0.4,0.7-0.7,1.1-1.1c0,0,0.1-0.1,0.1-0.1
				c0.1-0.1,0.2-0.2,0.2-0.3c0-0.1-0.1-0.6-0.1-0.6l-0.3-1l-0.3,0.1l-2.4,1.1c-0.7,0.3-1.4,0.6-2.1,0.9c-2.1,1-4.2,1-6.4,0.6
				c-1-0.2-1.8-0.7-2.5-1.4c-0.1-0.1-0.3-0.1-0.5-0.2c0,0.2-0.1,0.4,0,0.6c0.1,0.6,0.4,1.1,0.4,1.7c0.2,1.7-0.8,3.4-2.7,3.6
				c-1,0.1-2,0.2-3-0.1c-0.2-0.1-0.4,0-0.6,0.1c0,0.2,0.1,0.4,0.1,0.5c0.4,1,0.9,2.1,1.2,3.1c0.3,1.4-0.3,2.9-1.8,3.5
				C112.6,382.8,112.8,383.2,113.6,383.9z M114.6,382.8c0.6-0.6,1.6-0.7,2.4-1c1.3-0.4,2.4-0.9,3.4-1.7c0.4-0.5,0.7-1,1.2-1.4
				c0.3-0.3,0.5-0.6,0.8-0.9c0.2-0.2,0.4-0.4,0.6-0.6c-2.1,0.8-4.4,0.7-6.3-0.3c0,0,0-0.1,0-0.1c2.8,0.9,5.4,0.4,7.9-1.3
				c0.7-0.5,1.4-1,2.1-1.6c-0.4,0.1-0.7,0.1-1.1,0.1c-1.2,0-2.4-0.4-3.2-1.4c0,0,0-0.1,0,0c1.2,1,2.7,1,4.2,0.6
				c1.2-0.3,2.5-1.3,3.8-1.4c0.1,0,0.2,0,0.2-0.1c0.1,0,0.1,0,0.2,0c0,0,0.1,0,0.1,0c0.1,0,0.2,0,0.2,0.1c0.2,0.1,0.3,0.4,0,0.6
				c-2.1,0.9-3,3.1-2.6,5.3c0,0,0,0,0,0c-0.7-1.6-0.4-3.3,0.6-4.5c-0.4,0.2-0.8,0.4-1.1,0.7c-2.5,2.4-4.3,5.3-3.7,8.9
				c0,0.1-0.1,0.1-0.1,0c-1.1-2.7,0-5.3,1.6-7.4c-0.4,0.3-0.7,0.5-1.1,0.8c-1.3,1.2-2.6,2.4-3.7,3.8c-1.7,2-1.5,4-1.4,6.5
				c0,0,0,0,0,0c-0.4-1.4-0.6-2.8-0.3-4.2c-1,1.5-1.9,3.1-2.6,4.8c0,0.1-0.2,0-0.1-0.1c0.7-1.9,1.6-3.7,2.7-5.4
				C117.9,382.2,116,382.3,114.6,382.8C114.6,382.8,114.5,382.8,114.6,382.8z"/>
		</g>
		<path class="st0" d="M327.2,384.6c5.5,4.4,13,4.2,17.5,10.4c0.4,0.5,0.7,1.1,1,1.7c1.9-2.1,4.9-3.1,7.7-2.5
			c2.8,0.6,5.4,2.7,6.5,5.5c1.8-2.1,3.7-4.3,6.3-5.4c2.6-1.1,6.1-0.8,7.9,1.5c0.7,0.8,1.5,2,2.4,1.5c0.3-0.2,0.5-0.5,0.6-0.9
			c1.3-2.5,11-10.2,16.4-11.8c8.6,5.9,16,9.4,19.6,10.9c1.5,0.6,2.3,0.9,2.3,0.9l3.8-1.6c-1.5-0.4-3.2-1.1-5-1.9
			c-8.1-3.5-18.5-9.7-19.6-10.4c-0.1,0-0.1-0.1-0.1-0.1c0,0-0.1-0.1-0.1-0.1c-0.5-0.3-1.1-0.7-1.7-1.2c0,0-0.1,0-0.1-0.1
			c-0.2-0.1-0.3-0.2-0.5-0.4c0,0,0,0,0,0c-2.4-3.8-4-8-4.8-12.3c0.3-0.2,0.5-0.4,0.7-0.7c0.5-0.7,0.4-1.7,0.4-2.5
			c0.1-4.8,1.2-8.9,4.5-12.6c-4.8-3.4,2.8-9.4,5.8-11.5c-2.2,0.5-2.8-4.9-2.7-5.6c0.6-3.7,2.8-5.5,5.2-7.9c-3,0-5.1-12.7-5.8-15.7
			c-2.9,5.9-5.8,11.1-13,12.1c2.4,0.9,1.9,5.8,1.1,7.3c-1.9,3.8-5.2,5.8-8,8.6c3,1.6,4.4,4,4.2,7.4c-0.1,3.4-1.9,6.2-4,8.8
			c4.7-2,8.5,7.8,9.6,10.9c0.1,0.2,0.1,0.4,0.1,0.5c0.5,3.7,1.7,7.3,3.3,10.7c-0.3-0.3-0.6-0.5-1-0.8l0,0c-2.5-2-4.8-4.1-6-5.1
			c0,0,0,0-0.1,0c-0.2-0.2-0.4-0.4-0.7-0.7c0,0-0.1-0.1-0.1-0.1c0,0-0.1-0.1-0.1-0.1c-5.2-5-9.8-10.5-13.8-16.4
			c-0.1-3.4-0.2-14.5,2-13.6c-4.9-2.1-9.7-6.5-8.8-11.6c-6.8,1.6-14.4-3.4-15.4-10.2c0,0.3-7.2-2-7.9-2.3c-2.5-1.4-4.4-4.1-7.3-4.8
			c0,5.7,4.2,10.3,2.5,16.2c-0.1,0.5-0.3,1-0.6,1.5c2.4,0.1,4.7,1.6,5.8,3.6c1.1,2.1,1.1,4.7-0.2,6.8c2.4,0.1,4.9,0.2,7,1.3
			c2.1,1.1,3.8,3.4,3.3,5.7c-0.2,0.8-0.5,2,0.3,2.3c0.3,0.1,0.6,0,0.9,0c2-0.4,9.2,1.1,14,3c0.8,1.4,1.7,2.7,2.6,4
			c-0.5-0.3-1-0.4-1.5-0.5c-1.3-0.1-2.7,0.2-3.8,1c-2.1,1.7-1.9,5.4,0.5,6.6c1.1,0.6,2.6,0.6,3.9,0.3c0.7-0.2,1.4-0.4,1.9-0.9
			c0.3-0.3,0.5-0.7,0.6-1.2c1.6,0.7,3.1,1.5,4.4,2.5c1.1,1.3,2.2,2.5,3.3,3.7c-3.2-0.5-6.5-1.1-9.6-2c-0.8-0.2-1.5-0.5-2.2-0.7
			c-0.5-0.5-1.2-0.7-1.9-0.8c-0.1,0-0.2,0-0.2,0c-1.5-0.6-3.1-1.3-4.5-2.1c0.6-1.5,0.4-3.4-0.6-4.6c-0.4-0.4-0.9-0.7-1.5-0.9
			c-2.7-0.7-4.8,1.8-4.8,4.2c0,0.7,0.1,1.5,0.5,2.1c0.3,0.4,0.8,0.8,1.3,1c1.6,0.8,3.6,0.4,4.6-1c1.1,0.5,2.1,1,3.2,1.5
			c-0.5,0.2-0.9,0.4-1.3,0.7c-1.8,1.5-1.6,4.7,0.4,5.8c1,0.6,2.3,0.5,3.4,0.3c0.6-0.1,1.2-0.4,1.7-0.8c0.4-0.4,0.6-1,0.7-1.6
			c4.1,0.7,8.3,0.9,12.5,0.5c1,1,2,2,3,3c-4.7,1.2-9.8,0.8-13-2.8c-3.4,7.5-13.8,10.5-21.2,6.1c0.4,0.2-7.2,5.1-8,5.4
			C334,383,330,382.6,327.2,384.6z M374.3,369.3c-3.5,0.1-6.9-0.1-10.4-0.6c0-0.6,0-1.1-0.2-1.7c0.4,0.1,0.7,0.2,1,0.3
			C367.9,368.2,371.1,368.7,374.3,369.3z M363.8,349.6c-0.4-0.6-0.7-1.2-1-1.8c-0.1-0.2-0.2-0.3-0.4-0.3c-5.9-8-16.7-11.2-22-19.9
			c-0.4-0.7,0.7-1.4,1.2-0.7c5.7,9.4,17.8,12.3,23.3,21.9C365.2,349.5,364.2,350.1,363.8,349.6z M369.7,362.5
			c-0.8-0.4-1.6-0.8-2.5-1.2c0-0.2,0-0.5,0-0.7c0-0.5,0-1-0.1-1.5C368,360.3,368.8,361.4,369.7,362.5z M384.9,359.6
			c0-0.2-0.1-0.4-0.1-0.7c0-0.1,0-0.3,0-0.5c0-0.2,0-0.4-0.2-0.6c-0.9-8.9,3.5-17.7,5.3-26.4c0.2-0.8,1.5-0.5,1.3,0.3
			c-1.9,9.2-6.5,18.4-5.1,27.8C386.3,360.4,385,360.4,384.9,359.6z M346.3,384.2c4.6,2.8,12.7-0.3,17.5-1.5
			c3.6-0.9,7.2-2.3,10.9-2.7c3.9-0.5,7.4,0.8,11.2,1.3c0.9,0.1,0.6,1.4-0.3,1.3c-2.2-0.3-4.4-1-6.6-1.3c-3-0.4-5.8,0.2-8.7,1
			c-3.1,0.9-6.3,1.8-9.4,2.5c-4.4,1.1-11.1,3.2-15.3,0.6C344.9,384.9,345.5,383.8,346.3,384.2z"/>
	</g>
	<g>
		<g>
			<g>
				<path class="st0" d="M131.5,698.8c0.1,0.5,0.2,1,0.3,1.5c0.1,0.5,0.3,1,0.4,1.5c4.2,15.3,15.5,26.8,28.9,32.8
					c11.8,5.3,24.5,6.6,36.9,5c0.5,4.2-2,7.8-5.1,10.4c-2.7,2.2-5.5,3.5-8.5,5c-1,0.5-1,0.8-0.4,1.6c0.1,0.1,0.3,0.2,0.4,0.4
					c1.7,1.9,3.2,3.5,2.9,6.3c-0.5,4-1.7,7.3-4.1,10.6c-0.6,0.8-0.3,1.1,0.5,1.4c0.8,0.3,1.6,0.4,2.3,0.8c2.1,1.4,3,3.3,3.4,5.7
					c0.5,3.4,0.6,6.7,0.5,10.1c0,0.2,0.1,0.5,0.3,0.6c0.2,0.1,0.5-0.1,0.7-0.2c0.2-0.1,0.2-0.3,0.3-0.5c0.9-1.9,1.6-3.5,3-5.2
					c3.7-4.4,9.6-6,14.9-3.5c0.3,0.1,0.6,0,0.8-0.2c-0.2-0.5-0.6-0.9-0.8-1.3c-0.6-1-0.9-2.2-1.2-3.3c-0.4-1.4-0.8-2.8-0.9-4.2
					c-0.2-2.2-0.2-4.3,1-6.3c1.3-2.3,3.1-2.9,5.6-2.8c0.9,0,1.9,0.4,2.9,0.4c0.5,0,1-0.1,1.5-0.1c-0.3-0.4-0.6-0.8-0.9-1.1
					c-3.5-3-4.9-6.5-4.2-11c0.5-3.4,1.6-6.3,1.9-9.7c0.3-2.9,0-5.5,1.5-8.1c17.7-6.6,32.5-19.1,46.9-32c15.2-13.6,30.7-27,48.1-37.2
					c4.2-2.5,8.5-4.7,12.8-6.7c1.9-0.6,3.8-1.3,5.7-2c-0.7,2.6-1.2,5.4-2.9,7.5c-1.8,2.3-4.3,3.9-6.9,5.1c-1.6,0.7-3.3,1-5.1,0.9
					c-1.7-0.1-3.6-1.2-5.3-0.8c-0.2,1.2,0.4,2.4,0.3,3.6c-0.1,0.6-0.3,1.2-0.5,1.8c-1.9,4.6-4.6,9.6-9.9,10.6
					c-0.5,0.1-1,0.5-1.5,0.7c0.4,0.5,0.7,1,1.1,1.5c0.6,0.7,1.4,1.4,1.8,2.2c1.3,2.7,1.1,5.5,0,8.2c-0.8,1.9-1.7,3.7-2.7,5.4
					c-0.4,0.8-0.5,1.5,0.3,1.9c2.4,1.2,3.3,3.4,3.9,5.8c1.3,5.1,4.2,8.9,8.9,11.3c0.4,0.2,1,0,1.5-0.1c-0.2-0.4-0.4-0.9-0.6-1.3
					c-0.8-1.1-1.8-2-2.4-3.2c-1.4-2.7-1.4-5.7-0.8-8.4c0.9-4.5,5.3-8.2,10.3-6.6c0.5,0.2,1.1,0,1.7,0c-0.2-0.6-0.4-1.2-0.8-1.6
					c-2.7-2.6-3.9-6.3-3.1-10c0.2-0.9,0.7-1.8,1.4-2.4c1.6-1.2,3.3-1.9,5.4-1.8c1.5,0.1,2.9,0.4,4.4,0.5c0.5,0,1-0.1,1.2-0.5
					c0.1-0.2,0-0.5-0.2-0.7c-1.1-2.2-3.2-3.5-4.2-5.8c-0.9-2.1-1-4.4-0.5-6.6c0.2-0.6,0.4-1.1,0.8-1.6c1.2-1.6,2.6-3,3.6-4.7
					c2.1-3.8,4.6-7.4,4.1-11.9c0.4-0.2,0.9-0.4,1.3-0.5c0.7-0.3,2.7-0.8,4.2-1.7c8.7-2.8,17.7-4.5,26.9-4.7
					c8.8-0.3,17.6,0.8,26.1,3.3c5.7,1.7,11,4.2,16.2,7c2.9,1.6,5.8,3.2,8.7,4.9c1.1,0.6,1.9-1.1,1.1-1.9c-3.6-3.8-7.7-6.8-12.2-9.2
					c-10.5-5.6-22.8-7.8-33.9-8.3c-17.3-0.7-34.3,3.7-50,11.1c-0.1,0-0.2,0.1-0.3,0.1c-5.6,1.5-11.2,0.6-16.7-0.9
					c-9.1-2.6-16.8-7-18.6-17.5c-0.1-0.5-0.5-1.3-0.9-1.4c-0.4-0.1-1.1,0.4-1.5,0.8c-5.7,6-17.1,3.4-18.8-4.9c0-0.1,0-0.2,0-0.2
					c-0.3-1.3-0.4-2.7-0.7-4c-0.1-0.6-0.6-1.2-0.9-1.8c-0.5,0.5-1.2,1-1.4,1.6c-0.6,1.7-1.4,3.1-2.5,4.3c-1.4,1.5-3.3,2.5-5.3,3.1
					c-4.4,1.3-8.1,0.6-10.6-3.1c-0.2-0.3-0.3-0.6-0.5-0.8c-0.1-0.1-0.1-0.2-0.2-0.3c-0.5-0.5-1-0.9-1.6-1.4c-0.4,0.5-1.1,1-1.2,1.6
					c-0.1,0.3-0.2,0.6-0.3,0.9c-0.6,1.2-1.5,2-2.8,2.6c-4,1.8-8.1,2.4-12.4,1.8c-1.3-0.2-2.5-0.5-3.8-0.6c-0.5,0-1.1,0.4-1.7,0.6
					c0.4,0.4,0.8,1,1.2,1.3c1,0.6,2.3,0.8,3,1.6c2.1,2.3,4.2,4.7,5.7,7.4c1.6,3.1,2.7,6.7,1.6,10.2c-1,3.4-0.9,4.6,3.5,3.8
					c5-1,9.3,1.8,11,6.3c1.2,3.4,1.6,7,2.3,10.6c0.1,0.5,0.4,1.1,0.6,1.6c0.6-0.3,1.3-0.4,1.6-0.8c2.1-2.6,5-4.1,7.9-5.6
					c5.6-2.8,11.5-0.1,13.9,5c0.8,1.7,1.1,3.6,1.8,5.3c0.2,0.6,0.7,1,1.1,1.5c0.4-0.5,1-0.9,1.1-1.5c0.7-3.2,1.9-6.1,4.2-8.3
					c5.2-4.9,10.9-8.9,18.4-9.8c3.4-0.4,6.8-0.9,10.2-1.5c-10.7,6.5-20.9,14.1-30.6,22.3c-13.6,11.4-26.2,24.4-40.7,34.4
					c-4.5,3.1-9.5,6-14.8,8.3c-0.7,0.2-1.4,0.2-2.1,0.2c-3.2-0.2-6.3-0.7-9.2-1.8c-2.9-1.1-4.9-2.8-7-5c1.7-1.8,2.2-4.3,0.7-6.3
					c-1.4-2-4.1-2.6-6.2-1.4c-2.1,1.2-2.9,3.8-1.9,6.1c1.1,2.3,3.5,3.1,5.9,2.5c0.2-0.1,0.4-0.2,0.6-0.1c0.2,0.1,0.3,0.2,0.4,0.3
					c2,2.1,4.2,3.8,7,4.9c2.5,0.9,5.1,1.2,7.6,1.7c-2.9,0.9-6.1,0.5-9,0.5c-3.7,0-7-0.6-10.6-1.2c-0.7-0.1-1.4-0.4-2-0.6
					c-0.1-0.1-0.3-0.2-0.4-0.3c0-1.8-0.4-3.5-1.9-4.7c-2.5-2-5.7-1.9-7.8,0.5c-2.1,2.4-1.9,5.7,0.5,7.8c2.4,2.2,5.6,1.7,7.9-0.4
					c0.5-0.5,0.8-1.2,1.1-1.8c0.3,0,0.5,0,0.7,0c2.8,0.6,5.7,1.4,8.5,1.6c2.1,0.1,4,0.2,6.2,0.3c1.1,0,2,0,3.2,0
					c0.4,0,1.1-0.2,1.7-0.2c-16.8,6.1-35.7,7.6-51.7,0.5c-4.1-2.7-8.8-5.9-8-11.2c0.4-2.3,1.3-2,3.1-2.4c0.3-0.1,0.9-0.3,1.2-0.2
					c-0.9-1.9-1.8-4.1-1.2-6.2c0.6-2.1,2-2.8,3.8-3.6c-1.1-0.7-1.4-1.5-1-2.9c0.3-1.4,1.3-2.8,2-4c-1.7-0.5-2.8-1.1-2.7-3.2
					c0.1-2.1,1.1-4.4,1.8-6.5c0.1-0.3,0.3-0.7,0.1-1c-0.6,0.9-1.2,1.9-2,2.6c-1,0.9-2.1,1.2-3.3,1.2c-1.2,0-2-0.4-3.2-0.6
					c-0.2,0-0.5,0-0.6,0.2c-0.2,0.2-0.1,0.4-0.2,0.6c-0.3,2.3-1.3,4.1-2.9,5.8c-1.5,1.7-3.2,3-5.2,4.2c1,1.5,1.5,2.5,1.4,4.5
					c-0.1,2-0.7,4.1-1.7,5.9c-0.1,0.2-0.4,0.4-0.3,0.8c0.1,0.3,0.4,0.2,0.8,0.2c2.1-0.1,2.9,0.9,4.2,2.7c1.5,2.1,2.2,4.4,3.4,6.6
					c0.2,0.3,0.4,0.6,0.6,1c-3-2.2-5.8-4.7-8.4-7.6c-9.2-10.3-12.9-25.4-10.1-39.3c3.4-16.7,16.5-25.4,31.8-25.3
					c8,0,17.2,1.4,24.4,5.8c7.2,4.4,11.2,13.6,9,22.3c-2,7.8-9.2,13.7-17.4,11.5c-3.3-0.9-4.5-5.3-1.6-7.5c0.6-0.5,1.4-0.6,2,0
					c0.4,0.4,0.5,1,0.3,1.5c-0.1,0.3-0.4,0.6-0.8,0.6c0,0.6,0.8,0.9,1.3,0.7c0.6-0.2,0.9-0.7,1.2-1.3c0.7-1.6,0.7-3.5-0.2-4.9
					c-0.5-0.8-1.2-1.4-2-1.8c-1.9-1.1-4.7-0.5-6,1.2c-0.1,0.1-0.1,0.1-0.2,0.2c-0.1,0.1-0.3,0.1-0.4,0.1c-0.6,0-1.2-0.3-1.6-0.8
					c-1.4-2,1.3-4.1,3.1-4.1c0.4,0,0.8,0.1,1.1,0.4c0.3,0.3,0.4,0.8,0.1,1.1c1.1-0.1,1.9-1.1,2-2.2c0.1-1.1-0.5-2.1-1.4-2.8
					c-0.9-0.6-1.9-0.9-3-1c-3.8-0.3-7.7,2-9,5.5c-0.9,2.6-1.1,5.9-0.2,8.5c0.9,2.5,1.8,5.1,3.5,7.2c5.6,7.1,15.9,7.1,22.9,3
					c7.5-4.4,12-13.3,11.1-22.7c-0.3-2.9-1-5.5-2.1-7.9c0.6,0.3,1.3,0.6,2,0.8c5.2,1.6,12.4-0.6,12.8-6.9c0.2-2.4-0.8-4.4-2.4-5.6
					c-2.6-2.4-7.3-2.4-10.1,0.1c-1.5,1.3-2.1,3.5-1.5,5.4c0.5,2,3.2,2.5,5,2.4c0.3,0,0.7-0.1,1-0.2c0.8-0.3,1.3-1.1,1.3-1.9
					c0.1-0.8-0.2-1.7-0.7-2.3c0,0.3-0.2,0.6-0.4,0.8c-0.3,0.2-0.6,0.1-0.9,0c-0.4-0.3-0.5-1-0.2-1.5c0.7-1.4,2.5-1.3,3.7-0.7
					c1.7,1.2,2.1,2.7,1.4,4.5c-0.8,1.9-3.1,2.8-5,2.9c-3.7,0.1-7-2.4-9.7-4.6c-3.4-2.7-6.9-5.4-11-6.8c-4.3-1.5-8.9-2.6-13.4-3.3
					c-12.2-1.8-25.9,0.7-34.6,10.1C131.1,669.2,128.7,685,131.5,698.8z M324.3,670.4c0,0-0.1,0.1-0.1,0.1c-0.4,2-1.8,3.7-2.3,5.7
					c-0.7,2.9,0.1,5.3,1.5,7.8c0.1,0.1-0.1,0.2-0.2,0.1c-1.8-2.1-3-4.2-2.8-7.1c0-0.3,0.1-0.6,0.1-0.9c-2.6,3.1-4.7,6.1-5.8,10.2
					c-1.3,4.6-1.1,9.1-0.1,13.7c0,0.1-0.1,0.1-0.1,0c-1.8-4.6-1.9-10.3-0.3-15.5c-1.2,2.2-2.3,4.3-3.3,6.5
					c-3.6,7.3-5.8,15.1-5.1,23.3c0,0,0,0,0,0c-0.9-6.1,0.1-12.2,2.2-18c-1.8,2.9-4.3,5.3-6.9,7.4c-0.1,0-0.1,0-0.1-0.1
					c3.5-3.2,5.9-6.9,8.3-11c0-0.1,0.1-0.1,0.1-0.1c0.2-0.5,0.4-0.9,0.6-1.4c1-2.3,2.2-4.5,3.4-6.6c-2.8,2.3-6.5,3.7-10.1,4.3
					c-0.1,0-0.1-0.1,0-0.1c2.5-1.1,5-1.8,7.4-3.2c1.8-1.1,3.1-2.4,4.4-3.9c0.6-1,1.2-2,1.8-3c0.8-1.4,1.7-2.9,2.6-4.3
					c-2,1-4.5,1.1-6.5,0.1c0,0,0,0,0,0c4.3,0.4,7-0.7,9.6-4.1c0.1-0.2,0.3-0.2,0.4-0.1c0.2-0.2,0.4-0.4,0.6-0.6
					c0.1-0.1,0.3-0.1,0.4-0.1C324.3,669.7,324.6,670.1,324.3,670.4z M299.1,659c0,0.3-0.1,0.6-0.4,0.7c-0.1,0-0.2,0-0.3,0.1
					c-0.1,0.1-0.3,0.2-0.4,0.3c-0.2,0.1-0.5,0.2-0.7,0.3c-3.7,2-8.8,1.8-12.8,3.1c-4.6,1.5-8.7,4.4-10.3,9.2c0,0.1-0.2,0.1-0.2,0
					c0.4-4.1,2.8-7.2,6.2-9.5c1-0.7,2.1-1.3,3.2-1.8c-2.9-0.2-5.8-0.5-8.6-0.6c-9.6-0.2-17.6,2.9-23.7,10.5c-0.1,0.1-0.3,0-0.2-0.2
					c3.4-6.4,9.6-10.8,16.6-12.2c-0.9-0.2-1.9-0.4-2.8-0.6c-1.3-0.3-2.6-0.7-3.9-1.1c-1.9-0.5-3.8-1.1-5.7-1.9
					c-4.4-0.4-8.1,0.2-12.4,1.4c-2.6,0.7-5.4,2-8.2,1.5c0,0,0-0.1,0-0.1c4.8-1.3,10.3-4.3,15.6-4.8c-6-2.7-11.8-6-17.1-9.9
					c-0.3-0.2,0-0.6,0.3-0.5c4.9,3.3,10.1,6.1,15.6,8.5c-3.3-3.1-5.3-7.3-6.7-11.9c0,0,0-0.1,0.1,0c4.1,6.8,7.3,12.5,15.4,15
					c5.4,1.7,11.1,2.7,16.7,3.8c1.4,0,2.9,0.1,4.3,0.2c-8.4-2.9-15.9-8-17.6-17.3c0-0.1,0.2-0.2,0.2-0.1
					c4.8,11.1,14.9,15.7,25.8,17.7c1.4,0,2.8-0.1,4.2-0.2c-4.9-1.6-8.8-5.5-9.8-11.1c0-0.1,0.1-0.1,0.1-0.1
					c2.8,6.6,9.1,11.1,16.5,9.9C299.1,657.2,299.6,658.4,299.1,659z M199.7,742c1.3,1.2,2.5,1.7,4.3,1.3c0.7-0.2,1.4-0.5,2.1-0.8
					c1.1-0.5,2.2-1.2,3.2-1.8c0.2-0.1,0.4-0.4,0.7-0.5c0.7-0.4,1.5-0.3,1.5,0.7c0,0.4-0.1,0.7-0.5,0.9c0,0-0.1,0-0.2,0.1
					c-1,1.4-2.3,2.8-3.3,4.1c-1,1.3-2,2.4-2.8,3.7c-0.3,0.4-0.5,0.8-0.6,1.2c-0.1,1.7,0,3.2,0.7,4.7c1,2.1,2.6,3.9,4.1,5.7
					c0,0.1,0,0.1-0.1,0.1c-2.7-2.3-4.9-4.8-6-8.3c-1.1,2.4-2.9,4.4-3.8,6.8c-2.6,7.1,0.2,12.5,4.4,18.3c0,0,0,0.1,0,0
					c-4.3-5-7-9.8-5.9-16.5c0,0,0,0,0,0c-1.4,3.6-2.7,7.2-3.4,11c-0.7,3.8-0.8,7.3-0.9,11.1c0,0-0.1,0-0.1,0
					c-0.7-7.1,0.4-13.5,2.6-20.2c-1.1,1.5-2.4,2.9-3.7,4.3c-1.6,1.6-3.4,2.9-5.3,4.2c-0.1,0-0.1,0-0.1-0.1c3.5-3.3,6.5-7,9.1-11
					c1-1.4,2-2.8,2.8-4.2c1-1.7,1.7-3.5,2.8-5.1c-0.3,0.2-0.5,0.5-0.8,0.7c-3.9,2.9-8.1,3.5-12.9,3.7c0,0,0,0,0,0
					c2.3-0.4,4.5-0.8,6.7-1.7c2.2-0.9,4.1-2.4,5.8-4c1.7-1.6,3-3.4,4.6-5.1c0.4-0.5,0.9-1,1.4-1.4c-0.5,0.1-1,0.3-1.5,0.3
					C202.4,744.5,200.9,744,199.7,742C199.6,742,199.7,742,199.7,742z M153.6,722c-0.2-0.2-0.2-0.4-0.4-0.6
					c-0.2-0.2-0.1-0.2-0.3-0.6c-0.1-0.4-0.2-1.1-0.5-1.6c-0.3-0.7-1-2-1.4-2.6c-0.9-1.4-1.9-2.1-3.1-3.2c0,0,0-0.1,0-0.1
					c1.2,0.6,2.2,1.1,3.1,2.1c0.2,0.2,0.5,0.7,0.7,1c-0.1-0.7-0.2-1.5-0.3-2.2c0-0.1,0-0.3,0-0.4c-0.1-0.6-0.2-1.3-0.3-1.9
					c-0.1-0.8-0.3-1.7-0.5-2.4c-0.6-1.7-1.4-3.1-2-4.7c0,0,0-0.1,0.1-0.1c1,1.3,1.8,2.7,2.5,4.3c0.3,0.6,0.5,1.3,0.7,2
					c0.3-1.2,0.6-2.4,0.9-3.6c0.6-1.8,1.3-3.4,2-5.1c0.4-1,0.6-1.9,0.6-2.9c0-1.3-0.3-2.4-0.5-3.6c0,0,0-0.1,0.1,0
					c0.6,1.7,0.9,3.2,0.8,5c1.3-1.9,2.6-3.8,3.8-5.8c0,0,0.1,0,0,0c-0.9,2-2.2,3.7-3.4,5.5c-0.4,0.6-0.7,1.2-1,1.8c0,0,0,0.1,0,0.1
					c-0.3,0.7-0.6,1.3-0.9,2c0.6-0.6,1.4-1.1,2.2-1.5c1.1-0.6,2-1,3.2-0.9c0.1,0,0,0.1,0,0.1c-0.5,0.1-0.9,0.2-1.4,0.4
					c-0.5,0.2-1.2,0.6-1.7,0.9c-0.5,0.3-1.1,0.7-1.5,1.1c-0.4,0.4-0.8,0.8-1.1,1.2c-0.2,0.3-0.2,0.7-0.4,1.1
					c-0.4,1.1-0.6,2.3-0.9,3.5c0.3-0.4,0.8-0.9,1.2-1.3c1.1-0.9,2.3-1.2,3.7-1.4c0,0,0,0,0,0.1c-1.2,0.4-2.4,0.8-3.2,1.6
					c-0.9,0.8-1.4,1.7-1.9,2.8c-0.2,0.4-0.1,0.8-0.1,1.3c0.1,0.8,0.3,1.8,0.4,2.6c0.1-0.3,0.3-0.8,0.5-1.1c0.9-1,1.9-1.3,3.1-0.9
					c0,0,0,0.1,0,0.1c-1.4,0.5-2.2,0.9-2.6,2.4c-0.3,1,0.1,2.3,0.2,3.4c0,0.1,0.1,0.1,0.1,0.2c0,0,0,0,0,0.1
					c0.1,0.4,0.2,0.9,0.2,1.4C154.2,722.2,153.8,722.3,153.6,722z"/>
			</g>
			<path class="st0" d="M133,695.8C133,695.8,133,695.8,133,695.8c0-0.1-0.1-0.1-0.1-0.2C132.9,695.6,132.9,695.7,133,695.8z"/>
			<path class="st0" d="M112,688c1.5,0.6,2.1,2,1.8,3.5c-0.2,1.1-0.8,2.1-1.2,3.1c-0.1,0.2-0.1,0.3-0.1,0.5c0.2,0,0.4,0.1,0.6,0.1
				c1-0.3,2-0.2,3-0.1c1.9,0.2,3,1.9,2.7,3.6c-0.1,0.6-0.3,1.1-0.4,1.7c0,0.2,0,0.4,0,0.6c0.2-0.1,0.4-0.1,0.5-0.2
				c0.7-0.7,1.5-1.3,2.5-1.4c2.2-0.4,4.3-0.5,6.4,0.6c0.7,0.3,1.4,0.6,2.1,0.9l2.4,1.1l0.3,0.1l0.3-1c0,0,0.1-0.6,0.1-0.6
				c0,0-0.1-0.2-0.2-0.3c-0.1-0.1-0.1-0.1-0.1-0.1c-0.4-0.3-0.8-0.7-1.1-1.1c-0.1-0.1-0.2-0.2-0.3-0.4c-1.9-2.2-3.1-4.6-1.8-7.7
				c0.1-0.1,0.1-0.4,0-0.5c-0.1-0.1-0.3-0.1-0.5,0c-2.5,0.6-5-2-4-4.4c0.2-0.4,0.4-0.8,0.5-1.2c0.1-0.2,0-0.4,0.1-0.6
				c-0.2,0.1-0.5,0-0.6,0.2c-1,0.8-2.1,0.9-3.3,0.6c-1.5-0.4-2.3-1.3-2.2-2.9c0,0,0-0.1,0-0.1c-0.1-0.2-0.1-0.4-0.2-0.6
				c-0.2,0.1-0.4,0.1-0.6,0.2c-0.4,0.4-0.9,0.5-1.4,0.4c-1.3-0.2-2.5-0.7-3.5-1.6c-0.3-0.3-0.6-0.6-0.9-0.8
				c-0.1-0.1-0.4-0.1-0.5-0.1c0,0.2,0,0.4,0.1,0.5c0.1,0.3,0.4,0.6,0.5,0.9c0.1,1,0.3,1.9,0.2,2.9c-0.1,1.1-0.4,2.2-1.3,2.9
				C111,687.1,110.8,687.5,112,688z M112.7,687.5c1.5,0.5,3.4,0.6,4.8,1.4c-1.1-1.7-2-3.5-2.7-5.4c0-0.1,0.1-0.2,0.1-0.1
				c0.7,1.7,1.6,3.3,2.6,4.8c-0.3-1.4-0.2-2.8,0.3-4.2c0,0,0,0,0,0c-0.1,2.4-0.2,4.5,1.4,6.5c1.1,1.4,2.4,2.6,3.7,3.8
				c0.4,0.2,0.7,0.5,1.1,0.8c-1.7-2.2-2.8-4.7-1.6-7.4c0,0,0.1,0,0.1,0c-0.6,3.7,1.2,6.5,3.7,8.9c0.4,0.2,0.7,0.5,1.1,0.7
				c-1-1.2-1.4-2.9-0.6-4.5c0,0,0,0,0,0c-0.4,2.2,0.5,4.4,2.6,5.3c0.3,0.1,0.2,0.5,0,0.6c0,0.1-0.1,0.1-0.2,0.1c0,0-0.1,0-0.1,0
				c0,0-0.1,0-0.2,0c-0.1,0-0.2,0-0.2-0.1c-1.3-0.1-2.6-1-3.8-1.4c-1.4-0.4-3-0.3-4.2,0.6c0,0-0.1,0,0,0c0.8-1,2-1.4,3.2-1.4
				c0.4,0,0.8,0,1.1,0.1c-0.7-0.6-1.4-1.1-2.1-1.6c-2.4-1.7-5-2.2-7.9-1.3c-0.1,0-0.1-0.1,0-0.1c1.9-1.1,4.3-1.2,6.3-0.3
				c-0.2-0.2-0.4-0.4-0.6-0.6c-0.3-0.3-0.6-0.6-0.8-0.9c-0.4-0.5-0.8-0.9-1.2-1.4c-1.1-0.8-2.1-1.3-3.4-1.7
				C114.3,688.2,113.4,688.1,112.7,687.5C112.7,687.5,112.7,687.5,112.7,687.5z"/>
		</g>
		<path class="st0" d="M335.3,688.5c0.8,0.3,8.4,5.2,8,5.4c7.3-4.4,17.7-1.4,21.2,6.1c3.2-3.6,8.3-4,13-2.8c-1,1-2,1.9-3,3
			c-4.2-0.3-8.3-0.1-12.5,0.5c-0.1-0.6-0.3-1.2-0.7-1.6c-0.4-0.5-1.1-0.7-1.7-0.8c-1.1-0.3-2.4-0.3-3.4,0.3c-2,1.1-2.2,4.3-0.4,5.8
			c0.4,0.3,0.8,0.5,1.3,0.7c-1.1,0.5-2.2,1-3.2,1.5c-1.1-1.5-3-1.8-4.6-1c-0.5,0.2-1,0.5-1.3,1c-0.4,0.6-0.5,1.4-0.5,2.1
			c0,2.5,2,5,4.8,4.2c0.6-0.2,1.1-0.5,1.5-0.9c1-1.2,1.2-3.1,0.6-4.6c1.5-0.7,3-1.4,4.5-2.1c0.1,0,0.2,0,0.2,0
			c0.7-0.1,1.4-0.3,1.9-0.8c0.7-0.3,1.5-0.5,2.2-0.7c3.1-0.9,6.4-1.4,9.6-2c-1.1,1.2-2.2,2.5-3.3,3.7c-1.4,1-2.9,1.8-4.4,2.5
			c-0.1-0.4-0.3-0.8-0.6-1.2c-0.5-0.5-1.2-0.8-1.9-0.9c-1.3-0.3-2.7-0.3-3.9,0.3c-2.3,1.3-2.5,4.9-0.5,6.6c1,0.9,2.4,1.2,3.8,1
			c0.5-0.1,1.1-0.2,1.5-0.5c-0.9,1.3-1.8,2.7-2.6,4c-4.8,2-12,3.4-14,3c-0.3-0.1-0.6-0.1-0.9,0c-0.8,0.3-0.5,1.4-0.3,2.3
			c0.5,2.3-1.1,4.6-3.3,5.7c-2.1,1.1-4.6,1.2-7,1.3c1.2,2,1.3,4.7,0.2,6.8c-1.1,2.1-3.4,3.5-5.8,3.6c0.2,0.5,0.4,1,0.6,1.5
			c1.7,5.9-2.5,10.5-2.5,16.2c2.8-0.7,4.7-3.4,7.3-4.8c0.7-0.4,7.8-2.7,7.9-2.3c1.1-6.8,8.6-11.8,15.4-10.2
			c-0.9-5.2,3.9-9.5,8.8-11.6c-2.2,0.9-2.1-10.2-2-13.6c4-5.9,8.6-11.4,13.8-16.4c0,0,0,0,0.1-0.1c0,0,0.1-0.1,0.1-0.1
			c0.2-0.2,0.4-0.4,0.7-0.7c0,0,0,0,0.1,0c1.2-1.1,3.6-3.1,6-5.1l0,0c0.3-0.3,0.6-0.5,1-0.8c-1.7,3.4-2.8,7-3.3,10.7
			c0,0.1-0.1,0.3-0.1,0.5c-1.1,3.1-4.9,12.9-9.6,10.9c2.1,2.6,3.8,5.5,4,8.8c0.1,3.4-1.3,5.8-4.2,7.4c2.8,2.8,6.1,4.9,8,8.6
			c0.8,1.6,1.3,6.4-1.1,7.3c7.1,0.9,10.1,6.2,13,12.1c0.8-3,2.9-15.7,5.8-15.7c-2.3-2.4-4.5-4.2-5.2-7.9c-0.1-0.7,0.5-6.1,2.7-5.6
			c-3-2.2-10.6-8.2-5.8-11.5c-3.2-3.8-4.4-7.8-4.5-12.6c0-0.9,0.1-1.8-0.4-2.5c-0.2-0.3-0.4-0.5-0.7-0.7c0.8-4.3,2.4-8.5,4.8-12.3
			c0,0,0,0,0,0c0.2-0.1,0.3-0.2,0.5-0.4c0,0,0.1,0,0.1-0.1c0.6-0.4,1.2-0.9,1.7-1.2c0,0,0.1-0.1,0.1-0.1c0,0,0,0,0.1-0.1
			c1.2-0.7,11.5-6.9,19.6-10.4c1.8-0.8,3.6-1.5,5-1.9l-3.8-1.6c0,0-0.8,0.3-2.3,0.9c-3.6,1.5-11,5-19.6,10.9
			c-5.4-1.7-15.1-9.3-16.4-11.8c-0.2-0.3-0.3-0.7-0.6-0.9c-0.9-0.5-1.8,0.7-2.4,1.5c-1.8,2.3-5.3,2.6-7.9,1.5
			c-2.6-1.1-4.5-3.3-6.3-5.4c-1.1,2.7-3.6,4.9-6.5,5.5c-2.8,0.6-5.9-0.4-7.7-2.5c-0.3,0.6-0.7,1.2-1,1.7c-4.4,6.2-11.9,6-17.5,10.4
			C328.1,687.7,332.1,687.3,335.3,688.5z M362.9,703c-0.3,0.1-0.7,0.2-1,0.3c0.2-0.5,0.2-1.1,0.2-1.7c3.4-0.6,6.9-0.8,10.4-0.6
			C369.2,701.6,366,702.1,362.9,703z M363,721.5c-5.5,9.6-17.6,12.6-23.3,21.9c-0.4,0.7-1.6,0-1.2-0.7c5.3-8.7,16-11.9,22-19.9
			c0.1,0,0.3-0.1,0.4-0.3c0.3-0.6,0.7-1.2,1-1.8C362.4,720.1,363.4,720.8,363,721.5z M365.3,711.1c0.1-0.5,0.1-1,0.1-1.5
			c0-0.2,0-0.5,0-0.7c0.9-0.4,1.7-0.7,2.5-1.2C367,708.8,366.1,710,365.3,711.1z M384.4,710.7c-1.4,9.4,3.1,18.6,5.1,27.8
			c0.2,0.8-1.1,1.2-1.3,0.3c-1.9-8.8-6.2-17.5-5.3-26.4c0.1-0.2,0.2-0.3,0.2-0.6c0-0.2,0-0.3,0-0.5c0-0.2,0.1-0.4,0.1-0.7
			C383.2,709.9,384.5,709.9,384.4,710.7z M343.8,684.9c4.2-2.6,10.9-0.5,15.3,0.6c3.2,0.8,6.3,1.7,9.4,2.5c2.9,0.8,5.7,1.4,8.7,1
			c2.2-0.3,4.3-1,6.6-1.3c0.9-0.1,1.1,1.2,0.3,1.3c-3.8,0.5-7.3,1.8-11.2,1.3c-3.7-0.5-7.3-1.8-10.9-2.7c-4.8-1.2-12.9-4.3-17.5-1.5
			C343.7,686.5,343,685.4,343.8,684.9z"/>
	</g>
	<g>
		<g>
			<g>
				<path class="st0" d="M848.2,659.2c-8.7-9.3-22.4-11.9-34.6-10.1c-4.5,0.7-9.1,1.8-13.4,3.3c-4.1,1.5-7.6,4.2-11,6.8
					c-2.8,2.2-6,4.7-9.7,4.6c-2-0.1-4.2-0.9-5-2.9c-0.7-1.8-0.3-3.3,1.4-4.5c1.2-0.6,2.9-0.7,3.7,0.7c0.3,0.5,0.2,1.2-0.2,1.5
					c-0.3,0.2-0.6,0.2-0.9,0c-0.3-0.2-0.4-0.5-0.4-0.8c-0.5,0.7-0.8,1.5-0.7,2.3c0.1,0.8,0.6,1.6,1.3,1.9c0.3,0.1,0.7,0.2,1,0.2
					c1.8,0.2,4.5-0.4,5-2.4c0.5-1.9,0-4.1-1.5-5.4c-2.8-2.4-7.6-2.5-10.1-0.1c-1.6,1.2-2.6,3.2-2.4,5.6c0.4,6.3,7.6,8.5,12.8,6.9
					c0.7-0.2,1.4-0.5,2-0.8c-1.1,2.4-1.8,5-2.1,7.9c-0.9,9.4,3.5,18.3,11.1,22.7c7,4.1,17.3,4.1,22.9-3c1.7-2.1,2.6-4.7,3.5-7.2
					c0.9-2.6,0.7-5.8-0.2-8.5c-1.2-3.6-5.2-5.9-9-5.5c-1.1,0.1-2.1,0.4-3,1c-0.9,0.6-1.4,1.7-1.4,2.8c0.1,1.1,0.9,2.1,2,2.2
					c-0.3-0.3-0.2-0.8,0.1-1.1c0.3-0.3,0.7-0.4,1.1-0.4c1.9,0,4.5,2.2,3.1,4.1c-0.4,0.5-1,0.8-1.6,0.8c-0.1,0-0.3,0-0.4-0.1
					c-0.1-0.1-0.1-0.1-0.2-0.2c-1.3-1.7-4.1-2.3-6-1.2c-0.8,0.5-1.5,1-2,1.8c-0.9,1.4-0.9,3.3-0.2,4.9c0.2,0.5,0.6,1.1,1.2,1.3
					c0.6,0.2,1.3-0.2,1.3-0.7c-0.4,0-0.7-0.3-0.8-0.6c-0.2-0.5-0.1-1.1,0.3-1.5c0.6-0.6,1.4-0.5,2,0c2.9,2.2,1.7,6.6-1.6,7.5
					c-8.2,2.2-15.5-3.7-17.4-11.5c-2.2-8.7,1.8-17.9,9-22.3c7.1-4.3,16.4-5.8,24.4-5.8c15.3,0,28.3,8.6,31.8,25.3
					c2.8,13.9-0.9,28.9-10.1,39.3c-2.6,3-5.4,5.5-8.4,7.6c0.2-0.3,0.4-0.6,0.6-1c1.2-2.2,2-4.5,3.4-6.6c1.3-1.8,2.1-2.8,4.2-2.7
					c0.4,0,0.7,0.2,0.8-0.2c0.1-0.3-0.1-0.5-0.3-0.8c-1-1.9-1.5-4-1.7-5.9c-0.1-2,0.4-3,1.4-4.5c-1.9-1.2-3.6-2.5-5.2-4.2
					c-1.5-1.7-2.5-3.5-2.9-5.8c0-0.2,0-0.4-0.2-0.6c-0.2-0.2-0.4-0.2-0.6-0.2c-1.1,0.2-2,0.6-3.2,0.6c-1.2,0-2.3-0.3-3.3-1.2
					c-0.8-0.7-1.4-1.7-2-2.6c-0.2,0.3,0,0.7,0.1,1c0.7,2.1,1.7,4.4,1.8,6.5c0.1,2.1-0.9,2.7-2.7,3.2c0.8,1.2,1.7,2.6,2,4
					c0.3,1.4,0.1,2.2-1,2.9c1.8,0.8,3.2,1.5,3.8,3.6c0.5,2.1-0.3,4.2-1.2,6.2c0.3-0.1,0.9,0.1,1.2,0.2c1.8,0.4,2.8,0.1,3.1,2.4
					c0.8,5.3-3.9,8.5-8,11.2c-16.1,7-34.9,5.6-51.7-0.5c0.6,0,1.3,0.2,1.7,0.2c1.2,0,2.1,0.1,3.2,0c2.1-0.1,4.1-0.2,6.2-0.3
					c2.9-0.2,5.7-1,8.5-1.6c0.3-0.1,0.5-0.1,0.7,0c0.3,0.6,0.6,1.3,1.1,1.8c2.3,2.2,5.5,2.6,7.9,0.4c2.4-2.2,2.6-5.4,0.5-7.8
					c-2.1-2.4-5.4-2.5-7.8-0.5c-1.5,1.2-1.9,2.9-1.9,4.7c-0.1,0.1-0.2,0.3-0.4,0.3c-0.7,0.3-1.3,0.5-2,0.6
					c-3.6,0.6-6.9,1.2-10.6,1.2c-2.9,0-6.1,0.4-9-0.5c2.6-0.5,5.2-0.8,7.6-1.7c2.8-1,4.9-2.7,7-4.9c0.1-0.1,0.2-0.2,0.4-0.3
					c0.2-0.1,0.4,0,0.6,0.1c2.4,0.6,4.8-0.2,5.9-2.5c1-2.3,0.2-4.8-1.9-6.1c-2.1-1.2-4.8-0.7-6.2,1.4c-1.4,2-0.9,4.6,0.7,6.3
					c-2.1,2.2-4.1,3.9-7,5c-2.9,1.1-6,1.7-9.2,1.8c-0.7,0-1.4-0.1-2.1-0.2c-5.3-2.4-10.3-5.2-14.8-8.3c-14.5-10-27.1-23-40.7-34.4
					c-9.7-8.2-19.8-15.8-30.6-22.3c3.4,0.6,6.8,1.2,10.2,1.5c7.5,0.9,13.2,4.8,18.4,9.8c2.3,2.2,3.5,5.1,4.2,8.3
					c0.1,0.5,0.7,1,1.1,1.5c0.4-0.5,0.9-0.9,1.1-1.5c0.6-1.8,1-3.6,1.8-5.3c2.3-5.1,8.3-7.7,13.9-5c2.9,1.5,5.8,2.9,7.9,5.6
					c0.3,0.4,1.1,0.6,1.6,0.8c0.2-0.5,0.5-1,0.6-1.6c0.8-3.5,1.1-7.2,2.3-10.6c1.7-4.5,6-7.3,11-6.3c4.4,0.9,4.5-0.4,3.5-3.8
					c-1.1-3.4,0-7.1,1.6-10.2c1.5-2.7,3.6-5.1,5.7-7.4c0.7-0.8,2-1,3-1.6c0.5-0.3,0.8-0.8,1.2-1.3c-0.6-0.2-1.1-0.7-1.7-0.6
					c-1.3,0.1-2.5,0.4-3.8,0.6c-4.3,0.6-8.4,0-12.4-1.8c-1.3-0.6-2.2-1.4-2.8-2.6c-0.1-0.3-0.2-0.6-0.3-0.9
					c-0.2-0.6-0.8-1.1-1.2-1.6c-0.5,0.5-1,0.9-1.6,1.4c-0.1,0.1-0.1,0.2-0.2,0.3c-0.2,0.3-0.3,0.6-0.5,0.8
					c-2.5,3.8-6.2,4.5-10.6,3.1c-2.1-0.6-3.9-1.7-5.3-3.1c-1.1-1.1-2-2.6-2.5-4.3c-0.2-0.6-0.9-1.1-1.4-1.6
					c-0.3,0.6-0.8,1.2-0.9,1.8c-0.3,1.3-0.4,2.7-0.7,4c0,0.1,0,0.2,0,0.2c-1.8,8.3-13.2,10.9-18.8,4.9c-0.4-0.4-1-0.9-1.5-0.8
					c-0.4,0.1-0.8,0.8-0.9,1.4c-1.8,10.5-9.5,14.9-18.6,17.5c-5.4,1.5-11,2.5-16.7,0.9c-0.1,0-0.2,0-0.3-0.1
					c-15.7-7.5-32.7-11.8-50-11.1c-11.1,0.4-23.4,2.7-33.9,8.3c-4.5,2.4-8.7,5.4-12.2,9.2c-0.8,0.9-0.1,2.6,1.1,1.9
					c2.9-1.6,5.8-3.3,8.7-4.9c5.2-2.8,10.6-5.3,16.2-7c8.5-2.5,17.4-3.5,26.1-3.3c9.2,0.3,18.2,2,26.9,4.7c1.4,0.8,3.5,1.4,4.2,1.7
					c0.4,0.2,0.9,0.4,1.3,0.5c-0.5,4.5,2,8.1,4.1,11.9c1,1.7,2.4,3.1,3.6,4.7c0.4,0.5,0.6,1,0.8,1.6c0.6,2.2,0.5,4.5-0.5,6.6
					c-1,2.3-3.1,3.6-4.2,5.8c-0.1,0.2-0.2,0.5-0.2,0.7c0.1,0.4,0.7,0.6,1.2,0.5c1.5,0,2.9-0.4,4.4-0.5c2.1-0.1,3.8,0.6,5.4,1.8
					c0.7,0.5,1.2,1.5,1.4,2.4c0.8,3.7-0.5,7.4-3.1,10c-0.4,0.4-0.5,1.1-0.8,1.6c0.6,0,1.2,0.2,1.7,0c5-1.6,9.4,2.1,10.3,6.6
					c0.6,2.8,0.6,5.8-0.8,8.4c-0.6,1.2-1.6,2.1-2.4,3.2c-0.3,0.4-0.4,0.8-0.6,1.3c0.5,0,1.1,0.3,1.5,0.1c4.7-2.4,7.6-6.2,8.9-11.3
					c0.6-2.4,1.4-4.6,3.9-5.8c0.8-0.4,0.8-1.1,0.3-1.9c-1-1.8-1.9-3.6-2.7-5.4c-1.2-2.7-1.3-5.5,0-8.2c0.4-0.8,1.2-1.4,1.8-2.2
					c0.4-0.5,0.7-1,1.1-1.5c-0.5-0.3-1-0.6-1.5-0.7c-5.3-1-8-6-9.9-10.6c-0.2-0.6-0.5-1.2-0.5-1.8c-0.1-1.2,0.4-2.4,0.3-3.6
					c-1.7-0.4-3.6,0.7-5.3,0.8c-1.7,0.1-3.5-0.2-5.1-0.9c-2.6-1.2-5.1-2.8-6.9-5.1c-1.7-2.1-2.2-4.9-2.9-7.5c1.9,0.7,3.8,1.4,5.7,2
					c4.4,2,8.7,4.3,12.8,6.7c17.4,10.2,32.9,23.6,48.1,37.2c14.3,12.9,29.1,25.4,46.9,32c1.5,2.6,1.2,5.2,1.5,8.1
					c0.4,3.4,1.4,6.3,1.9,9.7c0.7,4.5-0.8,8-4.2,11c-0.4,0.3-0.6,0.8-0.9,1.1c0.5,0.1,1,0.2,1.5,0.1c1-0.1,1.9-0.4,2.9-0.4
					c2.6-0.1,4.3,0.6,5.6,2.8c1.2,2,1.2,4.1,1,6.3c-0.1,1.4-0.5,2.8-0.9,4.2c-0.3,1.1-0.6,2.3-1.2,3.3c-0.3,0.5-0.7,0.8-0.8,1.3
					c0.2,0.2,0.5,0.3,0.8,0.2c5.3-2.4,11.2-0.8,14.9,3.5c1.4,1.7,2.2,3.3,3,5.2c0.1,0.2,0.1,0.4,0.3,0.5c0.2,0.1,0.4,0.3,0.7,0.2
					c0.2-0.1,0.3-0.4,0.3-0.6c-0.1-3.4,0-6.7,0.5-10.1c0.4-2.4,1.3-4.3,3.4-5.7c0.7-0.4,1.5-0.6,2.3-0.8c0.8-0.3,1.1-0.6,0.5-1.4
					c-2.5-3.2-3.7-6.6-4.1-10.6c-0.3-2.7,1.2-4.4,2.9-6.3c0.1-0.1,0.3-0.2,0.4-0.4c0.6-0.8,0.6-1.1-0.4-1.6c-3-1.5-5.8-2.7-8.5-5
					c-3.1-2.6-5.6-6.1-5.1-10.4c12.4,1.6,25.1,0.3,36.9-5c13.4-6,24.8-17.5,28.9-32.8c0.1-0.5,0.3-1,0.4-1.5c0.1-0.5,0.2-1,0.3-1.5
					C860.1,685,857.6,669.2,848.2,659.2z M664.8,669.7c0.1,0,0.3,0,0.4,0.1c0.2,0.2,0.4,0.4,0.6,0.6c0.1-0.1,0.3-0.1,0.4,0.1
					c2.6,3.4,5.3,4.5,9.6,4.1c0,0,0,0,0,0c-2,1-4.4,0.9-6.5-0.1c1,1.4,1.8,2.9,2.6,4.3c0.6,1,1.2,2,1.8,3c1.3,1.4,2.5,2.8,4.4,3.9
					c2.3,1.4,4.9,2.1,7.4,3.2c0,0,0,0.1,0,0.1c-3.5-0.6-7.2-2-10.1-4.3c1.2,2.2,2.4,4.4,3.4,6.6c0.2,0.5,0.4,0.9,0.6,1.4
					c0,0,0.1,0.1,0.1,0.1c2.4,4.1,4.8,7.8,8.3,11c0,0,0,0.1-0.1,0.1c-2.6-2.1-5.1-4.6-6.9-7.4c2,5.8,3.1,11.9,2.2,18c0,0,0,0,0,0
					c0.7-8.2-1.5-16-5.1-23.3c-1-2.1-2.1-4.3-3.3-6.5c1.6,5.1,1.5,10.9-0.3,15.5c0,0.1-0.1,0-0.1,0c1-4.6,1.1-9.1-0.1-13.7
					c-1.1-4.1-3.3-7.1-5.8-10.2c0,0.3,0.1,0.6,0.1,0.9c0.2,2.8-1,5-2.8,7.1c-0.1,0.1-0.2,0-0.2-0.1c1.4-2.5,2.3-4.9,1.5-7.8
					c-0.5-2-1.9-3.7-2.3-5.7c0,0-0.1-0.1-0.1-0.1C664.1,670.1,664.4,669.7,664.8,669.7z M690.6,657.4c7.3,1.1,13.6-3.3,16.5-9.9
					c0-0.1,0.1,0,0.1,0.1c-0.9,5.6-4.8,9.5-9.8,11.1c1.4,0.1,2.8,0.2,4.2,0.2c11-2.1,21-6.7,25.8-17.7c0.1-0.1,0.3,0,0.2,0.1
					c-1.7,9.3-9.2,14.4-17.6,17.3c1.4-0.1,2.9-0.2,4.3-0.2c5.6-1.1,11.3-2.1,16.7-3.8c8.1-2.5,11.3-8.2,15.4-15c0,0,0.1,0,0.1,0
					c-1.4,4.6-3.4,8.8-6.7,11.9c5.4-2.4,10.6-5.2,15.6-8.5c0.3-0.2,0.5,0.3,0.3,0.5c-5.3,3.9-11.1,7.3-17.1,9.9
					c5.3,0.5,10.7,3.5,15.6,4.8c0,0,0,0.1,0,0.1c-2.7,0.5-5.5-0.8-8.2-1.5c-4.3-1.2-8-1.7-12.4-1.4c-1.8,0.7-3.7,1.4-5.7,1.9
					c-1.3,0.4-2.6,0.7-3.9,1.1c-0.9,0.2-1.8,0.4-2.8,0.6c7,1.4,13.2,5.8,16.6,12.2c0.1,0.1-0.1,0.3-0.2,0.2
					c-6.1-7.6-14.1-10.7-23.7-10.5c-2.8,0.1-5.7,0.4-8.6,0.6c1.1,0.5,2.2,1.1,3.2,1.8c3.4,2.3,5.8,5.4,6.2,9.5c0,0.1-0.1,0.1-0.2,0
					c-1.6-4.8-5.6-7.7-10.3-9.2c-4-1.3-9.1-1.1-12.8-3.1c-0.2-0.1-0.5-0.2-0.7-0.3c-0.2-0.1-0.3-0.2-0.4-0.3c-0.1,0-0.2,0-0.3-0.1
					c-0.3-0.1-0.5-0.4-0.4-0.7C689.2,658.4,689.6,657.2,690.6,657.4z M789.1,742c-1.2,2-2.7,2.5-5,2.3c-0.5,0-1-0.2-1.5-0.3
					c0.5,0.5,0.9,1,1.4,1.4c1.6,1.7,2.9,3.4,4.6,5.1c1.7,1.6,3.6,3.1,5.8,4c2.2,0.9,4.4,1.2,6.7,1.7c0,0,0,0.1,0,0
					c-4.8-0.2-9-0.8-12.9-3.7c-0.3-0.2-0.5-0.5-0.8-0.7c1.1,1.6,1.8,3.4,2.8,5.1c0.9,1.5,1.8,2.8,2.8,4.2c2.6,4,5.6,7.7,9.1,11
					c0,0,0,0.1-0.1,0.1c-1.9-1.3-3.7-2.6-5.3-4.2c-1.3-1.3-2.5-2.8-3.7-4.3c2.2,6.7,3.3,13.1,2.6,20.2c0,0-0.1,0-0.1,0
					c-0.1-3.8-0.2-7.4-0.9-11.1c-0.7-3.7-2-7.4-3.4-11c0,0,0,0,0,0c1.1,6.7-1.6,11.5-5.9,16.5c0,0-0.1,0,0,0
					c4.2-5.8,7-11.2,4.4-18.3c-0.9-2.5-2.7-4.5-3.8-6.8c-1.2,3.5-3.3,5.9-6,8.3c-0.1,0-0.1,0-0.1-0.1c1.5-1.8,3.1-3.6,4.1-5.7
					c0.7-1.6,0.9-3.1,0.7-4.7c0-0.5-0.3-0.8-0.6-1.2c-0.9-1.3-1.8-2.4-2.8-3.7c-1-1.3-2.3-2.7-3.3-4.1c0,0-0.1-0.1-0.2-0.1
					c-0.4-0.2-0.4-0.5-0.5-0.9c-0.1-0.9,0.8-1.1,1.5-0.7c0.2,0.1,0.4,0.4,0.7,0.5c1,0.6,2.1,1.3,3.2,1.8c0.7,0.3,1.4,0.6,2.1,0.8
					C786.5,743.7,787.7,743.2,789.1,742C789,742,789.1,742,789.1,742z M834.5,721.7c0-0.4,0.1-0.9,0.2-1.4c0,0,0,0,0-0.1
					c0,0,0.1-0.1,0.1-0.2c0.1-1.1,0.4-2.3,0.2-3.4c-0.4-1.6-1.2-1.9-2.6-2.4c0,0-0.1-0.1,0-0.1c1.2-0.4,2.3-0.2,3.1,0.9
					c0.2,0.3,0.4,0.7,0.5,1.1c0.2-0.8,0.3-1.8,0.4-2.6c0.1-0.5,0.1-0.9-0.1-1.3c-0.5-1.1-1-2-1.9-2.8c-0.9-0.8-2.1-1.3-3.2-1.6
					c0,0-0.1-0.1,0-0.1c1.4,0.2,2.5,0.5,3.7,1.4c0.4,0.3,0.8,0.8,1.2,1.3c-0.3-1.2-0.5-2.4-0.9-3.5c-0.1-0.4-0.2-0.8-0.4-1.1
					c-0.3-0.5-0.7-0.8-1.1-1.2c-0.4-0.4-1-0.8-1.5-1.1c-0.5-0.3-1.2-0.7-1.7-0.9c-0.5-0.2-0.9-0.3-1.4-0.4c-0.1,0-0.1-0.1,0-0.1
					c1.2-0.1,2.1,0.3,3.2,0.9c0.7,0.4,1.5,0.9,2.2,1.5c-0.3-0.7-0.6-1.3-0.9-2c0,0,0-0.1,0-0.1c-0.3-0.6-0.6-1.2-1-1.8
					c-1.2-1.8-2.5-3.5-3.4-5.5c0,0,0,0,0,0c1.2,2,2.5,3.9,3.8,5.8c-0.1-1.8,0.2-3.3,0.8-5c0,0,0.1,0,0.1,0c-0.2,1.2-0.6,2.4-0.5,3.6
					c0,1,0.2,1.9,0.6,2.9c0.7,1.7,1.4,3.3,2,5.1c0.4,1.1,0.7,2.4,0.9,3.6c0.2-0.7,0.4-1.4,0.7-2c0.7-1.6,1.5-2.9,2.5-4.3
					c0,0,0.1,0,0.1,0.1c-0.6,1.6-1.4,3.1-2,4.7c-0.2,0.7-0.4,1.6-0.5,2.4c-0.1,0.6-0.1,1.3-0.3,1.9c0,0.1,0,0.2,0,0.4
					c-0.1,0.7-0.2,1.5-0.3,2.2c0.2-0.3,0.5-0.8,0.7-1c1-1,1.9-1.5,3.1-2.1c0,0,0.1,0,0,0.1c-1.2,1.1-2.1,1.8-3.1,3.2
					c-0.4,0.6-1.1,1.9-1.4,2.6c-0.2,0.5-0.3,1.2-0.5,1.6c-0.1,0.4-0.1,0.4-0.3,0.6c-0.2,0.2-0.2,0.4-0.4,0.6
					C834.9,722.3,834.5,722.2,834.5,721.7z"/>
			</g>
			<path class="st0" d="M855.9,695.6c-0.1,0.1-0.1,0.1-0.2,0.1c0,0,0,0,0.1,0C855.8,695.7,855.9,695.6,855.9,695.6z"/>
			<path class="st0" d="M876.9,686.4c-0.9-0.7-1.2-1.8-1.3-2.9c-0.1-0.9,0.1-1.9,0.2-2.9c0-0.3,0.3-0.6,0.5-0.9
				c0.1-0.2,0.1-0.4,0.1-0.5c-0.2,0-0.4,0-0.5,0.1c-0.3,0.2-0.6,0.5-0.9,0.8c-1,0.9-2.2,1.4-3.5,1.6c-0.5,0.1-1,0-1.4-0.4
				c-0.1-0.1-0.4-0.1-0.6-0.2c-0.1,0.2-0.1,0.4-0.2,0.6c0,0,0,0.1,0,0.1c0.1,1.6-0.7,2.5-2.2,2.9c-1.1,0.3-2.3,0.2-3.3-0.6
				c-0.2-0.1-0.4-0.1-0.6-0.2c0,0.2,0,0.4,0.1,0.6c0.2,0.4,0.4,0.8,0.5,1.2c0.9,2.4-1.6,5-4,4.4c-0.2,0-0.4-0.1-0.5,0
				c-0.1,0.1-0.1,0.4,0,0.5c1.3,3,0.1,5.4-1.8,7.7c-0.1,0.1-0.2,0.2-0.3,0.4c-0.4,0.4-0.7,0.7-1.1,1.1c0,0-0.1,0.1-0.1,0.1
				c-0.1,0.1-0.2,0.2-0.2,0.3c0,0.1,0.1,0.6,0.1,0.6l0.3,1l0.3-0.1l2.4-1.1c0.7-0.3,1.4-0.6,2.1-0.9c2.1-1,4.2-1,6.4-0.6
				c1,0.2,1.8,0.7,2.5,1.4c0.1,0.1,0.3,0.1,0.5,0.2c0-0.2,0.1-0.4,0-0.6c-0.1-0.6-0.4-1.1-0.4-1.7c-0.2-1.7,0.8-3.4,2.7-3.6
				c1-0.1,2-0.2,3,0.1c0.2,0.1,0.4,0,0.6-0.1c0-0.2-0.1-0.4-0.1-0.5c-0.4-1-0.9-2.1-1.2-3.1c-0.3-1.4,0.3-2.9,1.8-3.5
				C878,687.5,877.8,687.1,876.9,686.4z M876,687.5c-0.6,0.6-1.6,0.7-2.4,1c-1.3,0.4-2.4,0.9-3.4,1.7c-0.4,0.5-0.7,1-1.2,1.4
				c-0.3,0.3-0.5,0.6-0.8,0.9c-0.2,0.2-0.4,0.4-0.6,0.6c2.1-0.8,4.4-0.7,6.3,0.3c0,0,0,0.1,0,0.1c-2.8-0.9-5.4-0.4-7.9,1.3
				c-0.7,0.5-1.4,1-2.1,1.6c0.4-0.1,0.7-0.1,1.1-0.1c1.2,0,2.4,0.4,3.2,1.4c0,0,0,0.1,0,0c-1.2-1-2.7-1-4.2-0.6
				c-1.2,0.3-2.5,1.3-3.8,1.4c-0.1,0-0.2,0-0.2,0.1c-0.1,0-0.1,0-0.2,0c0,0-0.1,0-0.1,0c-0.1,0-0.2,0-0.2-0.1
				c-0.2-0.1-0.3-0.4,0-0.6c2.1-0.9,3-3.1,2.6-5.3c0,0,0,0,0,0c0.7,1.6,0.4,3.3-0.6,4.5c0.4-0.2,0.8-0.4,1.1-0.7
				c2.5-2.4,4.3-5.3,3.7-8.9c0-0.1,0.1-0.1,0.1,0c1.1,2.7,0,5.3-1.6,7.4c0.4-0.3,0.7-0.5,1.1-0.8c1.3-1.2,2.6-2.4,3.7-3.8
				c1.7-2,1.5-4,1.4-6.5c0,0,0,0,0,0c0.4,1.4,0.6,2.8,0.3,4.2c1-1.5,1.9-3.1,2.6-4.8c0-0.1,0.2,0,0.1,0.1c-0.7,1.9-1.6,3.7-2.7,5.4
				C872.6,688.1,874.5,688,876,687.5C876,687.5,876,687.5,876,687.5z"/>
		</g>
		<path class="st0" d="M663.4,685.6c-5.5-4.4-13-4.2-17.5-10.4c-0.4-0.5-0.7-1.1-1-1.7c-1.9,2.1-4.9,3.1-7.7,2.5
			c-2.8-0.6-5.4-2.7-6.5-5.5c-1.8,2.1-3.7,4.3-6.3,5.4c-2.6,1.1-6.1,0.8-7.9-1.5c-0.7-0.8-1.5-2-2.4-1.5c-0.3,0.2-0.5,0.5-0.6,0.9
			c-1.3,2.5-11,10.2-16.4,11.8c-8.6-5.9-16-9.4-19.6-10.9c-1.5-0.6-2.3-0.9-2.3-0.9l-3.8,1.6c1.5,0.4,3.2,1.1,5,1.9
			c8.1,3.5,18.5,9.7,19.6,10.4c0.1,0,0.1,0.1,0.1,0.1c0,0,0.1,0.1,0.1,0.1c0.5,0.3,1.1,0.7,1.7,1.2c0,0,0.1,0,0.1,0.1
			c0.2,0.1,0.3,0.2,0.5,0.4c0,0,0,0,0,0c2.4,3.8,4,8,4.8,12.3c-0.3,0.2-0.5,0.4-0.7,0.7c-0.5,0.7-0.4,1.7-0.4,2.5
			c-0.1,4.8-1.2,8.9-4.5,12.6c4.8,3.4-2.8,9.4-5.8,11.5c2.2-0.5,2.8,4.9,2.7,5.6c-0.6,3.7-2.8,5.5-5.2,7.9c3,0,5.1,12.7,5.8,15.7
			c2.9-5.9,5.8-11.1,13-12.1c-2.4-0.9-1.9-5.8-1.1-7.3c1.9-3.8,5.2-5.8,8-8.6c-3-1.6-4.4-4-4.2-7.4c0.1-3.4,1.9-6.2,4-8.8
			c-4.7,2-8.5-7.8-9.6-10.9c-0.1-0.2-0.1-0.4-0.1-0.5c-0.5-3.7-1.7-7.3-3.3-10.7c0.3,0.3,0.6,0.5,1,0.8l0,0c2.5,2,4.8,4.1,6,5.1
			c0,0,0,0,0.1,0c0.2,0.2,0.4,0.4,0.7,0.7c0,0,0.1,0.1,0.1,0.1c0,0,0.1,0.1,0.1,0.1c5.2,5,9.8,10.5,13.8,16.4
			c0.1,3.4,0.2,14.5-2,13.6c4.9,2.1,9.7,6.5,8.8,11.6c6.8-1.6,14.4,3.4,15.4,10.2c0-0.3,7.2,2,7.9,2.3c2.5,1.4,4.4,4.1,7.3,4.8
			c0-5.7-4.2-10.3-2.5-16.2c0.1-0.5,0.3-1,0.6-1.5c-2.4-0.1-4.7-1.6-5.8-3.6c-1.1-2.1-1.1-4.7,0.2-6.8c-2.4-0.1-4.9-0.2-7-1.3
			c-2.1-1.1-3.8-3.4-3.3-5.7c0.2-0.8,0.5-2-0.3-2.3c-0.3-0.1-0.6,0-0.9,0c-2,0.4-9.2-1.1-14-3c-0.8-1.4-1.7-2.7-2.6-4
			c0.5,0.3,1,0.4,1.5,0.5c1.3,0.1,2.7-0.2,3.8-1c2.1-1.7,1.9-5.4-0.5-6.6c-1.1-0.6-2.6-0.6-3.9-0.3c-0.7,0.2-1.4,0.4-1.9,0.9
			c-0.3,0.3-0.5,0.7-0.6,1.2c-1.6-0.7-3.1-1.5-4.4-2.5c-1.1-1.3-2.2-2.5-3.3-3.7c3.2,0.5,6.5,1.1,9.6,2c0.8,0.2,1.5,0.5,2.2,0.7
			c0.5,0.5,1.2,0.7,1.9,0.8c0.1,0,0.2,0,0.2,0c1.5,0.6,3.1,1.3,4.5,2.1c-0.6,1.5-0.4,3.4,0.6,4.6c0.4,0.4,0.9,0.7,1.5,0.9
			c2.7,0.7,4.8-1.8,4.8-4.2c0-0.7-0.1-1.5-0.5-2.1c-0.3-0.4-0.8-0.8-1.3-1c-1.6-0.8-3.6-0.4-4.6,1c-1.1-0.5-2.1-1-3.2-1.5
			c0.5-0.2,0.9-0.4,1.3-0.7c1.8-1.5,1.6-4.7-0.4-5.8c-1-0.6-2.3-0.5-3.4-0.3c-0.6,0.1-1.2,0.4-1.7,0.8c-0.4,0.4-0.6,1-0.7,1.6
			c-4.1-0.7-8.3-0.9-12.5-0.5c-1-1-2-2-3-3c4.7-1.2,9.8-0.8,13,2.8c3.4-7.5,13.8-10.5,21.2-6.1c-0.4-0.2,7.2-5.1,8-5.4
			C656.6,687.3,660.6,687.7,663.4,685.6z M616.3,701c3.5-0.1,6.9,0.1,10.4,0.6c0,0.6,0,1.1,0.2,1.7c-0.4-0.1-0.7-0.2-1-0.3
			C622.7,702.1,619.5,701.6,616.3,701z M626.8,720.7c0.4,0.6,0.7,1.2,1,1.8c0.1,0.2,0.2,0.3,0.4,0.3c5.9,8,16.7,11.2,22,19.9
			c0.4,0.7-0.7,1.4-1.2,0.7c-5.7-9.4-17.8-12.3-23.3-21.9C625.4,720.8,626.4,720.1,626.8,720.7z M620.9,707.8
			c0.8,0.4,1.6,0.8,2.5,1.2c0,0.2,0,0.5,0,0.7c0,0.5,0,1,0.1,1.5C622.6,710,621.8,708.8,620.9,707.8z M605.7,710.7
			c0,0.2,0.1,0.4,0.1,0.7c0,0.2,0,0.3,0,0.5c0,0.2,0,0.4,0.2,0.6c0.9,8.9-3.5,17.7-5.3,26.4c-0.2,0.8-1.5,0.5-1.3-0.3
			c1.9-9.2,6.5-18.4,5.1-27.8C604.2,709.9,605.6,709.9,605.7,710.7z M644.3,686.1c-4.6-2.8-12.7,0.3-17.5,1.5
			c-3.6,0.9-7.2,2.3-10.9,2.7c-3.9,0.5-7.4-0.8-11.2-1.3c-0.9-0.1-0.6-1.4,0.3-1.3c2.2,0.3,4.4,1,6.6,1.3c3,0.4,5.8-0.2,8.7-1
			c3.1-0.9,6.3-1.8,9.4-2.5c4.4-1.1,11.1-3.2,15.3-0.6C645.7,685.4,645,686.5,644.3,686.1z"/>
	</g>
</g>
</svg>
