<?xml version="1.0" encoding="utf-8"?>
<!-- Generator: Adobe Illustrator 26.3.1, SVG Export Plug-In . SVG Version: 6.00 Build 0)  -->
<svg version="1.1" id="Layer_1" xmlns="http://www.w3.org/2000/svg" xmlns:xlink="http://www.w3.org/1999/xlink" x="0px" y="0px"
	 viewBox="0 0 909 1000" style="enable-background:new 0 0 909 1000;" xml:space="preserve">
<style type="text/css">
	.st0{clip-path:url(#SVGID_00000137845063260448299230000017876616854357950871_);}
	.st1{fill:#ED2024;}
</style>
<g>
	<path d="M702.2,246.4H540.6v666.6H368.4V246.4H206.8V87.1h495.5V246.4z"/>
	<g>
		<defs>
			<path id="SVGID_1_" d="M368.4,307V693h172.3V307H368.4z"/>
		</defs>
		<clipPath id="SVGID_00000042697357773437832340000006133430303443744936_">
			<use xlink:href="#SVGID_1_"  style="overflow:visible;"/>
		</clipPath>
		<g style="clip-path:url(#SVGID_00000042697357773437832340000006133430303443744936_);">
			<rect x="339" y="248.8" class="st1" width="259.5" height="472.9"/>
			<g>
				<g>
					<g>
						<g>
							<rect x="339" y="248.8" width="47.7" height="10"/>
						</g>
						<g>
							<g>
								<g>
									<g>
										<polygon points="394.9,248.8 386.7,257.3 386.7,258.7 391.8,258.7 401.4,248.8 										"/>
									</g>
									<g>
										<polygon points="407.8,248.8 398.3,258.7 404.7,258.7 414.3,248.8 										"/>
									</g>
								</g>
								<g>
									<g>
										<polygon points="420.8,248.8 411.2,258.7 417.7,258.7 427.3,248.8 										"/>
									</g>
									<g>
										<polygon points="433.7,248.8 424.1,258.7 430.6,258.7 440.2,248.8 										"/>
									</g>
								</g>
								<g>
									<g>
										<polygon points="443.6,252 443.6,258.7 443.6,258.7 437.1,258.7 										"/>
									</g>
								</g>
							</g>
							<rect x="443.6" y="248.8" width="56.9" height="10"/>
						</g>
						<g>
							<g>
								<g>
									<g>
										<polygon points="508.6,248.8 500.4,257.3 500.4,258.7 505.5,258.7 515.1,248.8 										"/>
									</g>
									<g>
										<polygon points="521.6,248.8 512,258.7 518.5,258.7 528.1,248.8 										"/>
									</g>
								</g>
								<g>
									<g>
										<polygon points="534.5,248.8 524.9,258.7 531.4,258.7 541,248.8 										"/>
									</g>
									<g>
										<polygon points="547.5,248.8 537.9,258.7 544.4,258.7 553.9,248.8 										"/>
									</g>
								</g>
								<g>
									<g>
										<polygon points="557.3,252 557.3,258.7 557.3,258.7 550.8,258.7 										"/>
									</g>
								</g>
							</g>
							<rect x="557.3" y="248.8" width="41.2" height="10"/>
						</g>
						<g>
							<g>
								<g>
									<g>
										<polygon points="339,271.1 350.9,258.7 344.4,258.7 339,264.4 										"/>
									</g>
								</g>
								<g>
									<g>
										<polygon points="339,284.5 363.9,258.7 357.4,258.7 339,277.8 										"/>
									</g>
									<g>
										<polygon points="339,297.9 376.8,258.7 370.3,258.7 339,291.2 										"/>
									</g>
								</g>
								<g>
									<g>
										<polygon points="383.3,258.7 339,304.7 339,311.4 386.7,261.8 386.7,258.7 										"/>
									</g>
									<g>
										<polygon points="386.7,268.6 386.7,275.3 347.9,315.6 341.4,315.6 										"/>
									</g>
								</g>
								<g>
									<g>
										<polygon points="386.7,282 386.7,288.7 360.8,315.6 354.4,315.6 										"/>
									</g>
									<g>
										<polygon points="386.7,295.4 386.7,302.1 373.8,315.6 367.3,315.6 										"/>
									</g>
								</g>
								<g>
									<g>
										<polygon points="386.7,308.9 386.7,315.6 386.7,315.6 380.2,315.6 										"/>
									</g>
								</g>
							</g>
							<g>
								<g>
									<g>
										<polygon points="451.7,258.7 443.6,267.1 443.6,260.4 445.2,258.7 										"/>
									</g>
									<g>
										<polygon points="464.7,258.7 443.6,280.6 443.6,273.9 458.2,258.7 										"/>
									</g>
								</g>
								<g>
									<g>
										<polygon points="477.6,258.7 443.6,294 443.6,287.3 471.1,258.7 										"/>
									</g>
									<g>
										<polygon points="490.5,258.7 443.6,307.4 443.6,300.7 484.1,258.7 										"/>
									</g>
								</g>
								<g>
									<g>
										<polygon points="500.5,258.7 500.5,261.8 448.7,315.6 443.6,315.6 443.6,314.1 497,258.7 										"/>
									</g>
									<g>
										<polygon points="500.5,268.6 500.5,275.3 461.6,315.6 455.2,315.6 										"/>
									</g>
								</g>
								<g>
									<g>
										<polygon points="500.5,282 500.5,288.7 474.6,315.6 468.1,315.6 										"/>
									</g>
									<g>
										<polygon points="500.5,295.4 500.5,302.1 487.5,315.6 481.1,315.6 										"/>
									</g>
								</g>
								<g>
									<g>
										<polygon points="500.5,308.9 500.5,315.6 500.5,315.6 494,315.6 										"/>
									</g>
								</g>
							</g>
							<g>
								<g>
									<g>
										<polygon points="565.5,258.7 557.4,267.1 557.4,260.4 559,258.7 										"/>
									</g>
									<g>
										<polygon points="578.4,258.7 557.4,280.6 557.4,273.9 571.9,258.7 										"/>
									</g>
								</g>
								<g>
									<g>
										<polygon points="591.4,258.7 557.4,294 557.4,287.3 584.9,258.7 										"/>
									</g>
									<g>
										<polygon points="598.5,258.7 597.8,258.7 557.4,300.7 557.4,307.4 598.5,264.8 										"/>
									</g>
								</g>
								<g>
									<g>
										<polygon points="598.5,271.5 557.4,314.1 557.4,315.6 562.4,315.6 598.5,278.2 										"/>
									</g>
									<g>
										<polygon points="598.5,284.9 568.9,315.6 575.4,315.6 598.5,291.6 										"/>
									</g>
								</g>
								<g>
									<g>
										<polygon points="598.5,298.3 581.9,315.6 588.3,315.6 598.5,305.1 										"/>
									</g>
								</g>
							</g>
						</g>
					</g>
					<g>
						<g>
							<rect x="339" y="315.6" width="47.7" height="56.9"/>
						</g>
						<g>
							<g>
								<g>
									<g>
										<polygon points="394.8,315.6 386.7,324 386.7,317.3 388.3,315.6 										"/>
									</g>
									<g>
										<polygon points="407.8,315.6 386.7,337.4 386.7,330.7 401.3,315.6 										"/>
									</g>
								</g>
								<g>
									<g>
										<polygon points="420.7,315.6 386.7,350.9 386.7,344.2 414.2,315.6 										"/>
									</g>
									<g>
										<polygon points="433.6,315.6 386.7,364.3 386.7,357.6 427.2,315.6 										"/>
									</g>
								</g>
								<g>
									<g>
										<polygon points="443.6,315.6 443.6,318.7 391.8,372.5 386.7,372.5 386.7,371 440.1,315.6 										"/>
									</g>
									<g>
										<polygon points="443.6,325.4 443.6,332.2 404.7,372.5 398.3,372.5 										"/>
									</g>
								</g>
								<g>
									<g>
										<polygon points="443.6,338.9 443.6,345.6 417.7,372.5 411.2,372.5 										"/>
									</g>
									<g>
										<polygon points="443.6,352.3 443.6,359 430.6,372.5 424.1,372.5 										"/>
									</g>
								</g>
								<g>
									<g>
										<polygon points="443.6,365.7 443.6,372.5 443.6,372.5 437.1,372.5 										"/>
									</g>
								</g>
							</g>
							<rect x="443.6" y="315.6" width="56.9" height="56.9"/>
						</g>
						<g>
							<g>
								<g>
									<g>
										<polygon points="508.6,315.6 500.4,324 500.4,317.3 502.1,315.6 										"/>
									</g>
									<g>
										<polygon points="521.5,315.6 500.4,337.4 500.4,330.7 515,315.6 										"/>
									</g>
								</g>
								<g>
									<g>
										<polygon points="534.4,315.6 500.4,350.9 500.4,344.2 528,315.6 										"/>
									</g>
									<g>
										<polygon points="547.4,315.6 500.4,364.3 500.4,357.6 540.9,315.6 										"/>
									</g>
								</g>
								<g>
									<g>
										<polygon points="557.3,315.6 557.3,318.7 505.5,372.5 500.4,372.5 500.4,371 553.8,315.6 										"/>
									</g>
									<g>
										<polygon points="557.3,325.4 557.3,332.2 518.5,372.5 512,372.5 										"/>
									</g>
								</g>
								<g>
									<g>
										<polygon points="557.3,338.9 557.3,345.6 531.4,372.5 524.9,372.5 										"/>
									</g>
									<g>
										<polygon points="557.3,352.3 557.3,359 544.4,372.5 537.9,372.5 										"/>
									</g>
								</g>
								<g>
									<g>
										<polygon points="557.3,365.7 557.3,372.5 557.3,372.5 550.8,372.5 										"/>
									</g>
								</g>
							</g>
							<rect x="557.3" y="315.6" width="41.2" height="56.9"/>
						</g>
						<g>
							<g>
								<g>
									<g>
										<polygon points="339,384.8 350.9,372.5 344.4,372.5 339,378.1 										"/>
									</g>
								</g>
								<g>
									<g>
										<polygon points="339,398.3 363.9,372.5 357.4,372.5 339,391.6 										"/>
									</g>
									<g>
										<polygon points="339,411.7 376.8,372.5 370.3,372.5 339,405 										"/>
									</g>
								</g>
								<g>
									<g>
										<polygon points="383.3,372.5 339,418.4 339,425.1 386.7,375.6 386.7,372.5 										"/>
									</g>
									<g>
										<polygon points="386.7,382.3 386.7,389 347.9,429.4 341.4,429.4 										"/>
									</g>
								</g>
								<g>
									<g>
										<polygon points="386.7,395.8 386.7,402.5 360.8,429.4 354.4,429.4 										"/>
									</g>
									<g>
										<polygon points="386.7,409.2 386.7,415.9 373.8,429.4 367.3,429.4 										"/>
									</g>
								</g>
								<g>
									<g>
										<polygon points="386.7,422.6 386.7,429.4 386.7,429.4 380.2,429.4 										"/>
									</g>
								</g>
							</g>
							<g>
								<g>
									<g>
										<polygon points="451.7,372.5 443.6,380.9 443.6,374.2 445.2,372.5 										"/>
									</g>
									<g>
										<polygon points="464.7,372.5 443.6,394.3 443.6,387.6 458.2,372.5 										"/>
									</g>
								</g>
								<g>
									<g>
										<polygon points="477.6,372.5 443.6,407.8 443.6,401.1 471.1,372.5 										"/>
									</g>
									<g>
										<polygon points="490.5,372.5 443.6,421.2 443.6,414.5 484.1,372.5 										"/>
									</g>
								</g>
								<g>
									<g>
										<polygon points="500.5,372.5 500.5,375.6 448.7,429.4 443.6,429.4 443.6,427.9 497,372.5 										"/>
									</g>
									<g>
										<polygon points="500.5,382.3 500.5,389 461.6,429.4 455.2,429.4 										"/>
									</g>
								</g>
								<g>
									<g>
										<polygon points="500.5,395.8 500.5,402.5 474.6,429.4 468.1,429.4 										"/>
									</g>
									<g>
										<polygon points="500.5,409.2 500.5,415.9 487.5,429.4 481.1,429.4 										"/>
									</g>
								</g>
								<g>
									<g>
										<polygon points="500.5,422.6 500.5,429.4 500.5,429.4 494,429.4 										"/>
									</g>
								</g>
							</g>
							<g>
								<g>
									<g>
										<polygon points="565.5,372.5 557.4,380.9 557.4,374.2 559,372.5 										"/>
									</g>
									<g>
										<polygon points="578.4,372.5 557.4,394.3 557.4,387.6 571.9,372.5 										"/>
									</g>
								</g>
								<g>
									<g>
										<polygon points="591.4,372.5 557.4,407.8 557.4,401.1 584.9,372.5 										"/>
									</g>
									<g>
										<polygon points="598.5,372.5 597.8,372.5 557.4,414.5 557.4,421.2 598.5,378.5 										"/>
									</g>
								</g>
								<g>
									<g>
										<polygon points="598.5,385.2 557.4,427.9 557.4,429.4 562.4,429.4 598.5,392 										"/>
									</g>
									<g>
										<polygon points="598.5,398.7 568.9,429.4 575.4,429.4 598.5,405.4 										"/>
									</g>
								</g>
								<g>
									<g>
										<polygon points="598.5,412.1 581.9,429.4 588.3,429.4 598.5,418.8 										"/>
									</g>
								</g>
							</g>
						</g>
					</g>
					<g>
						<g>
							<rect x="339" y="429.4" width="47.7" height="56.9"/>
						</g>
						<g>
							<g>
								<g>
									<g>
										<polygon points="394.8,429.4 386.7,437.8 386.7,431.1 388.3,429.4 										"/>
									</g>
									<g>
										<polygon points="407.8,429.4 386.7,451.2 386.7,444.5 401.3,429.4 										"/>
									</g>
								</g>
								<g>
									<g>
										<polygon points="420.7,429.4 386.7,464.7 386.7,457.9 414.2,429.4 										"/>
									</g>
									<g>
										<polygon points="433.6,429.4 386.7,478.1 386.7,471.4 427.2,429.4 										"/>
									</g>
								</g>
								<g>
									<g>
										<polygon points="443.6,429.4 443.6,432.5 391.8,486.2 386.7,486.2 386.7,484.8 440.1,429.4 										"/>
									</g>
									<g>
										<polygon points="443.6,439.2 443.6,445.9 404.7,486.2 398.3,486.2 										"/>
									</g>
								</g>
								<g>
									<g>
										<polygon points="443.6,452.6 443.6,459.4 417.7,486.2 411.2,486.2 										"/>
									</g>
									<g>
										<polygon points="443.6,466.1 443.6,472.8 430.6,486.2 424.1,486.2 										"/>
									</g>
								</g>
								<g>
									<g>
										<polygon points="443.6,479.5 443.6,486.2 443.6,486.2 437.1,486.2 										"/>
									</g>
								</g>
							</g>
							<rect x="443.6" y="429.4" width="56.9" height="56.9"/>
						</g>
						<g>
							<g>
								<g>
									<g>
										<polygon points="508.6,429.4 500.4,437.8 500.4,431.1 502.1,429.4 										"/>
									</g>
									<g>
										<polygon points="521.5,429.4 500.4,451.2 500.4,444.5 515,429.4 										"/>
									</g>
								</g>
								<g>
									<g>
										<polygon points="534.4,429.4 500.4,464.7 500.4,457.9 528,429.4 										"/>
									</g>
									<g>
										<polygon points="547.4,429.4 500.4,478.1 500.4,471.4 540.9,429.4 										"/>
									</g>
								</g>
								<g>
									<g>
										<polygon points="557.3,429.4 557.3,432.5 505.5,486.2 500.4,486.2 500.4,484.8 553.8,429.4 										"/>
									</g>
									<g>
										<polygon points="557.3,439.2 557.3,445.9 518.5,486.2 512,486.2 										"/>
									</g>
								</g>
								<g>
									<g>
										<polygon points="557.3,452.6 557.3,459.4 531.4,486.2 524.9,486.2 										"/>
									</g>
									<g>
										<polygon points="557.3,466.1 557.3,472.8 544.4,486.2 537.9,486.2 										"/>
									</g>
								</g>
								<g>
									<g>
										<polygon points="557.3,479.5 557.3,486.2 557.3,486.2 550.8,486.2 										"/>
									</g>
								</g>
							</g>
							<rect x="557.3" y="429.4" width="41.2" height="56.9"/>
						</g>
						<g>
							<g>
								<g>
									<g>
										<polygon points="339,498.6 350.9,486.3 344.4,486.3 339,491.9 										"/>
									</g>
								</g>
								<g>
									<g>
										<polygon points="339,512 363.9,486.3 357.4,486.3 339,505.3 										"/>
									</g>
									<g>
										<polygon points="339,525.5 376.8,486.3 370.3,486.3 339,518.8 										"/>
									</g>
								</g>
								<g>
									<g>
										<polygon points="383.3,486.3 339,532.2 339,538.9 386.7,489.4 386.7,486.3 										"/>
									</g>
									<g>
										<polygon points="386.7,496.1 386.7,502.8 347.9,543.1 341.4,543.1 										"/>
									</g>
								</g>
								<g>
									<g>
										<polygon points="386.7,509.5 386.7,516.2 360.8,543.1 354.4,543.1 										"/>
									</g>
									<g>
										<polygon points="386.7,523 386.7,529.7 373.8,543.1 367.3,543.1 										"/>
									</g>
								</g>
								<g>
									<g>
										<polygon points="386.7,536.4 386.7,543.1 386.7,543.1 380.2,543.1 										"/>
									</g>
								</g>
							</g>
							<g>
								<g>
									<g>
										<polygon points="451.7,486.3 443.6,494.7 443.6,487.9 445.2,486.3 										"/>
									</g>
									<g>
										<polygon points="464.7,486.3 443.6,508.1 443.6,501.4 458.2,486.3 										"/>
									</g>
								</g>
								<g>
									<g>
										<polygon points="477.6,486.3 443.6,521.5 443.6,514.8 471.1,486.3 										"/>
									</g>
									<g>
										<polygon points="490.5,486.3 443.6,535 443.6,528.3 484.1,486.3 										"/>
									</g>
								</g>
								<g>
									<g>
										<polygon points="500.5,486.3 500.5,489.4 448.7,543.1 443.6,543.1 443.6,541.7 497,486.3 										"/>
									</g>
									<g>
										<polygon points="500.5,496.1 500.5,502.8 461.6,543.1 455.2,543.1 										"/>
									</g>
								</g>
								<g>
									<g>
										<polygon points="500.5,509.5 500.5,516.2 474.6,543.1 468.1,543.1 										"/>
									</g>
									<g>
										<polygon points="500.5,523 500.5,529.7 487.5,543.1 481.1,543.1 										"/>
									</g>
								</g>
								<g>
									<g>
										<polygon points="500.5,536.4 500.5,543.1 500.5,543.1 494,543.1 										"/>
									</g>
								</g>
							</g>
							<g>
								<g>
									<g>
										<polygon points="565.5,486.3 557.4,494.7 557.4,487.9 559,486.3 										"/>
									</g>
									<g>
										<polygon points="578.4,486.3 557.4,508.1 557.4,501.4 571.9,486.3 										"/>
									</g>
								</g>
								<g>
									<g>
										<polygon points="591.4,486.3 557.4,521.5 557.4,514.8 584.9,486.3 										"/>
									</g>
									<g>
										<polygon points="598.5,486.3 597.8,486.3 557.4,528.3 557.4,535 598.5,492.3 										"/>
									</g>
								</g>
								<g>
									<g>
										<polygon points="598.5,499 557.4,541.7 557.4,543.1 562.4,543.1 598.5,505.7 										"/>
									</g>
									<g>
										<polygon points="598.5,512.4 568.9,543.1 575.4,543.1 598.5,519.2 										"/>
									</g>
								</g>
								<g>
									<g>
										<polygon points="598.5,525.9 581.9,543.1 588.3,543.1 598.5,532.6 										"/>
									</g>
								</g>
							</g>
						</g>
					</g>
					<g>
						<g>
							<rect x="339" y="543.1" width="47.7" height="56.9"/>
						</g>
						<g>
							<g>
								<g>
									<g>
										<polygon points="394.8,543.1 386.7,551.5 386.7,544.8 388.3,543.1 										"/>
									</g>
									<g>
										<polygon points="407.8,543.1 386.7,565 386.7,558.3 401.3,543.1 										"/>
									</g>
								</g>
								<g>
									<g>
										<polygon points="420.7,543.1 386.7,578.4 386.7,571.7 414.2,543.1 										"/>
									</g>
									<g>
										<polygon points="433.6,543.1 386.7,591.8 386.7,585.1 427.2,543.1 										"/>
									</g>
								</g>
								<g>
									<g>
										<polygon points="443.6,543.1 443.6,546.3 391.8,600 386.7,600 386.7,598.6 440.1,543.1 										"/>
									</g>
									<g>
										<polygon points="443.6,553 443.6,559.7 404.7,600 398.3,600 										"/>
									</g>
								</g>
								<g>
									<g>
										<polygon points="443.6,566.4 443.6,573.1 417.7,600 411.2,600 										"/>
									</g>
									<g>
										<polygon points="443.6,579.8 443.6,586.6 430.6,600 424.1,600 										"/>
									</g>
								</g>
								<g>
									<g>
										<polygon points="443.6,593.3 443.6,600 443.6,600 437.1,600 										"/>
									</g>
								</g>
							</g>
							<rect x="443.6" y="543.1" width="56.9" height="56.9"/>
						</g>
						<g>
							<g>
								<g>
									<g>
										<polygon points="508.6,543.1 500.4,551.5 500.4,544.8 502.1,543.1 										"/>
									</g>
									<g>
										<polygon points="521.5,543.1 500.4,565 500.4,558.3 515,543.1 										"/>
									</g>
								</g>
								<g>
									<g>
										<polygon points="534.4,543.1 500.4,578.4 500.4,571.7 528,543.1 										"/>
									</g>
									<g>
										<polygon points="547.4,543.1 500.4,591.8 500.4,585.1 540.9,543.1 										"/>
									</g>
								</g>
								<g>
									<g>
										<polygon points="557.3,543.1 557.3,546.3 505.5,600 500.4,600 500.4,598.6 553.8,543.1 										"/>
									</g>
									<g>
										<polygon points="557.3,553 557.3,559.7 518.5,600 512,600 										"/>
									</g>
								</g>
								<g>
									<g>
										<polygon points="557.3,566.4 557.3,573.1 531.4,600 524.9,600 										"/>
									</g>
									<g>
										<polygon points="557.3,579.8 557.3,586.6 544.4,600 537.9,600 										"/>
									</g>
								</g>
								<g>
									<g>
										<polygon points="557.3,593.3 557.3,600 557.3,600 550.8,600 										"/>
									</g>
								</g>
							</g>
							<rect x="557.3" y="543.1" width="41.2" height="56.9"/>
						</g>
						<g>
							<g>
								<g>
									<g>
										<polygon points="339,612.4 350.9,600 344.4,600 339,605.7 										"/>
									</g>
								</g>
								<g>
									<g>
										<polygon points="339,625.8 363.9,600 357.4,600 339,619.1 										"/>
									</g>
									<g>
										<polygon points="339,639.2 376.8,600 370.3,600 339,632.5 										"/>
									</g>
								</g>
								<g>
									<g>
										<polygon points="383.3,600 339,646 339,652.7 386.7,603.1 386.7,600 										"/>
									</g>
									<g>
										<polygon points="386.7,609.9 386.7,616.6 347.9,656.9 341.4,656.9 										"/>
									</g>
								</g>
								<g>
									<g>
										<polygon points="386.7,623.3 386.7,630 360.8,656.9 354.4,656.9 										"/>
									</g>
									<g>
										<polygon points="386.7,636.7 386.7,643.4 373.8,656.9 367.3,656.9 										"/>
									</g>
								</g>
								<g>
									<g>
										<polygon points="386.7,650.2 386.7,656.9 386.7,656.9 380.2,656.9 										"/>
									</g>
								</g>
							</g>
							<g>
								<g>
									<g>
										<polygon points="451.7,600 443.6,608.4 443.6,601.7 445.2,600 										"/>
									</g>
									<g>
										<polygon points="464.7,600 443.6,621.9 443.6,615.2 458.2,600 										"/>
									</g>
								</g>
								<g>
									<g>
										<polygon points="477.6,600 443.6,635.3 443.6,628.6 471.1,600 										"/>
									</g>
									<g>
										<polygon points="490.5,600 443.6,648.7 443.6,642 484.1,600 										"/>
									</g>
								</g>
								<g>
									<g>
										<polygon points="500.5,600 500.5,603.1 448.7,656.9 443.6,656.9 443.6,655.5 497,600 										"/>
									</g>
									<g>
										<polygon points="500.5,609.9 500.5,616.6 461.6,656.9 455.2,656.9 										"/>
									</g>
								</g>
								<g>
									<g>
										<polygon points="500.5,623.3 500.5,630 474.6,656.9 468.1,656.9 										"/>
									</g>
									<g>
										<polygon points="500.5,636.7 500.5,643.4 487.5,656.9 481.1,656.9 										"/>
									</g>
								</g>
								<g>
									<g>
										<polygon points="500.5,650.2 500.5,656.9 500.5,656.9 494,656.9 										"/>
									</g>
								</g>
							</g>
							<g>
								<g>
									<g>
										<polygon points="565.5,600 557.4,608.4 557.4,601.7 559,600 										"/>
									</g>
									<g>
										<polygon points="578.4,600 557.4,621.9 557.4,615.2 571.9,600 										"/>
									</g>
								</g>
								<g>
									<g>
										<polygon points="591.4,600 557.4,635.3 557.4,628.6 584.9,600 										"/>
									</g>
									<g>
										<polygon points="598.5,600 597.8,600 557.4,642 557.4,648.7 598.5,606.1 										"/>
									</g>
								</g>
								<g>
									<g>
										<polygon points="598.5,612.8 557.4,655.5 557.4,656.9 562.4,656.9 598.5,619.5 										"/>
									</g>
									<g>
										<polygon points="598.5,626.2 568.9,656.9 575.4,656.9 598.5,632.9 										"/>
									</g>
								</g>
								<g>
									<g>
										<polygon points="598.5,639.6 581.9,656.9 588.3,656.9 598.5,646.4 										"/>
									</g>
								</g>
							</g>
						</g>
					</g>
				</g>
				<g>
					<g>
						<g>
							<rect x="339" y="656.9" width="47.7" height="56.9"/>
						</g>
						<g>
							<g>
								<g>
									<g>
										<polygon points="394.8,656.9 386.7,665.3 386.7,658.6 388.3,656.9 										"/>
									</g>
									<g>
										<polygon points="407.8,656.9 386.7,678.8 386.7,672.1 401.3,656.9 										"/>
									</g>
								</g>
								<g>
									<g>
										<polygon points="420.7,656.9 386.7,692.2 386.7,685.5 414.2,656.9 										"/>
									</g>
									<g>
										<polygon points="433.6,656.9 386.7,705.6 386.7,698.9 427.2,656.9 										"/>
									</g>
								</g>
								<g>
									<g>
										<polygon points="443.6,656.9 443.6,660 391.8,713.8 386.7,713.8 386.7,712.4 440.1,656.9 										"/>
									</g>
									<g>
										<polygon points="443.6,666.8 443.6,673.5 404.7,713.8 398.3,713.8 										"/>
									</g>
								</g>
								<g>
									<g>
										<polygon points="443.6,680.2 443.6,686.9 417.7,713.8 411.2,713.8 										"/>
									</g>
									<g>
										<polygon points="443.6,693.6 443.6,700.3 430.6,713.8 424.1,713.8 										"/>
									</g>
								</g>
								<g>
									<g>
										<polygon points="443.6,707.1 443.6,713.8 443.6,713.8 437.1,713.8 										"/>
									</g>
								</g>
							</g>
							<rect x="443.6" y="656.9" width="56.9" height="56.9"/>
						</g>
						<g>
							<g>
								<g>
									<g>
										<polygon points="508.6,656.9 500.4,665.3 500.4,658.6 502.1,656.9 										"/>
									</g>
									<g>
										<polygon points="521.5,656.9 500.4,678.8 500.4,672.1 515,656.9 										"/>
									</g>
								</g>
								<g>
									<g>
										<polygon points="534.4,656.9 500.4,692.2 500.4,685.5 528,656.9 										"/>
									</g>
									<g>
										<polygon points="547.4,656.9 500.4,705.6 500.4,698.9 540.9,656.9 										"/>
									</g>
								</g>
								<g>
									<g>
										<polygon points="557.3,656.9 557.3,660 505.5,713.8 500.4,713.8 500.4,712.4 553.8,656.9 										"/>
									</g>
									<g>
										<polygon points="557.3,666.8 557.3,673.5 518.5,713.8 512,713.8 										"/>
									</g>
								</g>
								<g>
									<g>
										<polygon points="557.3,680.2 557.3,686.9 531.4,713.8 524.9,713.8 										"/>
									</g>
									<g>
										<polygon points="557.3,693.6 557.3,700.3 544.4,713.8 537.9,713.8 										"/>
									</g>
								</g>
								<g>
									<g>
										<polygon points="557.3,707.1 557.3,713.8 557.3,713.8 550.8,713.8 										"/>
									</g>
								</g>
							</g>
							<rect x="557.3" y="656.9" width="41.2" height="56.9"/>
						</g>
						<g>
							<g>
								<g>
									<g>
										<polygon points="344.4,713.8 339,719.4 339,721.6 343.4,721.6 350.9,713.8 										"/>
									</g>
								</g>
								<g>
									<g>
										<polygon points="356.3,721.6 363.9,713.8 357.4,713.8 349.8,721.6 										"/>
									</g>
									<g>
										<polygon points="369.3,721.6 376.8,713.8 370.3,713.8 362.8,721.6 										"/>
									</g>
								</g>
								<g>
									<g>
										<polygon points="382.2,721.6 386.7,716.9 386.7,713.8 383.3,713.8 375.7,721.6 										"/>
									</g>
								</g>
							</g>
							<g>
								<g>
									<g>
										<polygon points="444.2,721.6 451.7,713.8 445.2,713.8 443.6,715.5 443.6,721.6 										"/>
									</g>
									<g>
										<polygon points="457.1,721.6 464.7,713.8 458.2,713.8 450.6,721.6 										"/>
									</g>
								</g>
								<g>
									<g>
										<polygon points="470.1,721.6 477.6,713.8 471.1,713.8 463.6,721.6 										"/>
									</g>
									<g>
										<polygon points="483,721.6 490.5,713.8 484.1,713.8 476.5,721.6 										"/>
									</g>
								</g>
								<g>
									<g>
										<polygon points="495.9,721.6 500.5,716.9 500.5,713.8 497,713.8 489.5,721.6 										"/>
									</g>
								</g>
							</g>
							<g>
								<g>
									<g>
										<polygon points="557.9,721.6 565.5,713.8 559,713.8 557.4,715.5 557.4,721.6 										"/>
									</g>
									<g>
										<polygon points="570.9,721.6 578.4,713.8 571.9,713.8 564.4,721.6 										"/>
									</g>
								</g>
								<g>
									<g>
										<polygon points="583.8,721.6 591.4,713.8 584.9,713.8 577.3,721.6 										"/>
									</g>
									<g>
										<polygon points="596.8,721.6 598.5,719.8 598.5,713.8 597.8,713.8 590.3,721.6 										"/>
									</g>
								</g>
							</g>
						</g>
					</g>
				</g>
			</g>
		</g>
	</g>
</g>
</svg>
