<?xml version="1.0" encoding="utf-8"?>
<!-- Generator: Adobe Illustrator 26.5.0, SVG Export Plug-In . SVG Version: 6.00 Build 0)  -->
<svg version="1.1" id="Layer_1" xmlns="http://www.w3.org/2000/svg" xmlns:xlink="http://www.w3.org/1999/xlink" x="0px" y="0px"
	 viewBox="0 0 1000 1000" style="enable-background:new 0 0 1000 1000;" xml:space="preserve">
<style type="text/css">
	.st0{fill:#010101;}
</style>
<g>
	<g>
		<g>
			<g>
				<path class="st0" d="M88.1,375.9c7,7.5,18,9.5,27.8,8.1c3.6-0.5,7.3-1.4,10.8-2.7c3.3-1.2,6.1-3.3,8.8-5.5
					c2.2-1.8,4.8-3.8,7.8-3.7c1.6,0,3.4,0.7,4,2.3c0.6,1.4,0.2,2.6-1.1,3.6c-1,0.5-2.4,0.5-3-0.6c-0.2-0.4-0.2-0.9,0.2-1.2
					c0.2-0.1,0.5-0.2,0.7,0c0.2,0.1,0.4,0.4,0.3,0.6c0.4-0.5,0.6-1.2,0.6-1.9c-0.1-0.7-0.5-1.3-1.1-1.6c-0.3-0.1-0.5-0.2-0.8-0.2
					c-1.5-0.1-3.6,0.3-4,1.9c-0.4,1.6,0,3.3,1.2,4.4c2.3,2,6.1,2,8.1,0.1c1.3-1,2.1-2.6,1.9-4.5c-0.3-5-6.1-6.8-10.3-5.5
					c-0.6,0.2-1.1,0.4-1.6,0.6c0.9-1.9,1.5-4.1,1.7-6.3c0.7-7.6-2.8-14.7-8.9-18.2c-5.6-3.3-13.9-3.3-18.4,2.4
					c-1.3,1.7-2.1,3.8-2.8,5.8c-0.7,2.1-0.6,4.7,0.2,6.8c1,2.9,4.2,4.7,7.2,4.4c0.9-0.1,1.7-0.3,2.4-0.8c0.7-0.5,1.2-1.4,1.1-2.2
					c-0.1-0.9-0.8-1.7-1.6-1.7c0.2,0.2,0.2,0.6-0.1,0.9c-0.2,0.2-0.6,0.3-0.9,0.3c-1.5,0-3.6-1.7-2.5-3.3c0.3-0.4,0.8-0.7,1.3-0.7
					c0.1,0,0.2,0,0.3,0.1c0.1,0,0.1,0.1,0.1,0.2c1.1,1.4,3.3,1.9,4.8,1c0.6-0.4,1.2-0.8,1.6-1.5c0.7-1.1,0.7-2.7,0.2-3.9
					c-0.2-0.4-0.5-0.9-0.9-1c-0.4-0.2-1.1,0.1-1.1,0.6c0.3,0,0.5,0.2,0.7,0.5c0.2,0.4,0.1,0.9-0.2,1.2c-0.5,0.5-1.1,0.4-1.6,0
					c-2.4-1.8-1.4-5.3,1.3-6c6.6-1.8,12.4,3,14,9.2c1.8,7-1.4,14.4-7.2,17.9c-5.7,3.5-13.2,4.6-19.6,4.6c-12.3,0-22.8-6.9-25.5-20.4
					c-2.3-11.1,0.7-23.2,8.1-31.5c2.1-2.4,4.4-4.4,6.8-6.1c-0.2,0.3-0.3,0.5-0.5,0.8c-0.9,1.8-1.6,3.6-2.8,5.3
					c-1,1.5-1.7,2.2-3.4,2.2c-0.3,0-0.6-0.1-0.7,0.1c-0.1,0.3,0.1,0.4,0.2,0.6c0.8,1.5,1.2,3.2,1.3,4.8c0.1,1.6-0.3,2.4-1.1,3.6
					c1.5,0.9,2.9,2,4.1,3.4c1.2,1.4,2,2.8,2.3,4.7c0,0.2,0,0.3,0.1,0.5c0.1,0.1,0.3,0.2,0.5,0.1c0.9-0.1,1.6-0.5,2.5-0.5
					c1,0,1.8,0.2,2.6,0.9c0.6,0.6,1.1,1.4,1.6,2.1c0.1-0.3,0-0.6-0.1-0.8c-0.6-1.7-1.4-3.5-1.5-5.2c-0.1-1.7,0.8-2.2,2.2-2.6
					c-0.6-1-1.4-2.1-1.6-3.2c-0.3-1.1-0.1-1.7,0.8-2.3c-1.4-0.6-2.6-1.2-3-2.9c-0.4-1.7,0.3-3.4,1-5c-0.3,0.1-0.7-0.1-1-0.2
					c-1.4-0.3-2.2-0.1-2.5-1.9c-0.7-4.2,3.1-6.9,6.4-9c12.9-5.7,28.1-4.5,41.6,0.4c-0.5,0-1-0.1-1.4-0.2c-0.9,0-1.7,0-2.6,0
					c-1.7,0-3.3,0.1-5,0.2c-2.3,0.1-4.6,0.8-6.9,1.3c-0.2,0-0.4,0.1-0.6,0c-0.2-0.5-0.4-1-0.9-1.4c-1.8-1.7-4.4-2.1-6.3-0.3
					s-2.1,4.4-0.4,6.3c1.7,1.9,4.3,2,6.3,0.4c1.2-0.9,1.5-2.3,1.5-3.8c0.1-0.1,0.2-0.2,0.3-0.3c0.5-0.2,1.1-0.4,1.6-0.5
					c2.9-0.5,5.5-1,8.5-1c2.3,0,4.9-0.4,7.2,0.4c-2.1,0.4-4.2,0.6-6.1,1.4c-2.2,0.8-4,2.2-5.6,3.9c-0.1,0.1-0.1,0.2-0.3,0.2
					c-0.1,0-0.3,0-0.5-0.1c-1.9-0.5-3.9,0.2-4.7,2c-0.8,1.8-0.2,3.9,1.5,4.9c1.7,1,3.8,0.5,5-1.1c1.2-1.6,0.7-3.7-0.6-5.1
					c1.7-1.8,3.3-3.1,5.6-4s4.8-1.3,7.4-1.5c0.6,0,1.1,0,1.7,0.2c4.2,1.9,8.3,4.2,11.9,6.7c11.7,8.1,21.8,18.5,32.7,27.6
					c7.8,6.6,15.9,12.7,24.6,17.9c-2.7-0.5-5.4-0.9-8.2-1.2c-6-0.7-10.6-3.9-14.8-7.8c-1.9-1.8-2.8-4.1-3.4-6.7
					c-0.1-0.4-0.6-0.8-0.9-1.2c-0.3,0.4-0.7,0.8-0.8,1.2c-0.5,1.4-0.8,2.9-1.4,4.3c-1.9,4.1-6.7,6.2-11.1,4
					c-2.4-1.2-4.7-2.4-6.4-4.5c-0.3-0.3-0.9-0.5-1.3-0.7c-0.2,0.4-0.4,0.8-0.5,1.3c-0.6,2.8-0.9,5.8-1.9,8.5
					c-1.3,3.6-4.8,5.8-8.8,5.1c-3.5-0.7-3.6,0.3-2.8,3c0.9,2.8,0,5.7-1.3,8.2c-1.2,2.2-2.9,4.1-4.6,6c-0.6,0.6-1.6,0.8-2.4,1.3
					c-0.4,0.2-0.7,0.7-1,1c0.4,0.2,0.9,0.5,1.3,0.5c1-0.1,2-0.3,3-0.5c3.5-0.5,6.8,0,9.9,1.4c1,0.5,1.8,1.1,2.3,2.1
					c0.1,0.2,0.2,0.5,0.3,0.7c0.1,0.5,0.7,0.9,1,1.3c0.4-0.4,0.8-0.7,1.2-1.1c0.1-0.1,0.1-0.2,0.2-0.2c0.1-0.2,0.3-0.5,0.4-0.7
					c2-3,5-3.6,8.5-2.5c1.7,0.5,3.1,1.3,4.3,2.5c0.9,0.9,1.6,2.1,2,3.4c0.2,0.5,0.8,0.9,1.1,1.3c0.2-0.5,0.6-0.9,0.7-1.5
					c0.2-1.1,0.3-2.2,0.5-3.3c0-0.1,0-0.1,0-0.2c1.4-6.7,10.6-8.8,15.1-3.9c0.3,0.3,0.8,0.7,1.2,0.6c0.3-0.1,0.6-0.7,0.7-1.1
					c1.5-8.4,7.6-12,14.9-14.1c4.3-1.2,8.9-2,13.4-0.8c0.1,0,0.2,0,0.2,0.1c12.6,6,26.3,9.5,40.2,9c8.9-0.3,18.8-2.2,27.2-6.7
					c3.6-1.9,7-4.4,9.8-7.4c0.7-0.7,0-2.1-0.9-1.6c-2.3,1.3-4.6,2.7-7,3.9c-4.2,2.3-8.5,4.3-13,5.6c-6.9,2-13.9,2.8-21,2.6
					c-7.4-0.2-14.6-1.6-21.6-3.8c-1.2-0.7-2.8-1.1-3.4-1.3c-0.3-0.1-0.7-0.3-1-0.4c0.4-3.6-1.6-6.5-3.3-9.6
					c-0.8-1.4-1.9-2.5-2.9-3.8c-0.3-0.4-0.5-0.8-0.6-1.3c-0.4-1.8-0.4-3.6,0.4-5.3c0.8-1.8,2.5-2.9,3.4-4.6c0.1-0.2,0.2-0.4,0.1-0.6
					c-0.1-0.4-0.6-0.4-0.9-0.4c-1.2,0-2.3,0.3-3.5,0.4c-1.7,0.1-3-0.5-4.3-1.5c-0.5-0.4-0.9-1.2-1.1-1.9c-0.6-3,0.4-5.9,2.5-8
					c0.3-0.3,0.4-0.9,0.6-1.3c-0.5,0-1-0.2-1.4,0c-4,1.3-7.6-1.7-8.3-5.3c-0.5-2.2-0.5-4.6,0.7-6.8c0.5-0.9,1.3-1.7,1.9-2.6
					c0.2-0.3,0.3-0.7,0.5-1c-0.4,0-0.9-0.2-1.2,0c-3.7,1.9-6.1,5-7.1,9.1c-0.5,1.9-1.1,3.7-3.1,4.6c-0.7,0.3-0.6,0.9-0.3,1.5
					c0.8,1.4,1.5,2.9,2.2,4.4c0.9,2.2,1,4.4,0,6.6c-0.3,0.7-1,1.2-1.5,1.8c-0.3,0.4-0.6,0.8-0.9,1.2c0.4,0.2,0.8,0.5,1.2,0.6
					c4.3,0.8,6.4,4.8,8,8.5c0.2,0.5,0.4,0.9,0.4,1.4c0.1,1-0.3,1.9-0.2,2.9c1.3,0.3,2.9-0.6,4.2-0.7c1.4-0.1,2.8,0.1,4.1,0.7
					c2.1,0.9,4.1,2.3,5.6,4.1c1.3,1.7,1.8,3.9,2.4,6c-1.5-0.6-3-1.1-4.6-1.6c-3.5-1.6-7-3.4-10.3-5.4c-14-8.2-26.4-18.9-38.6-29.9
					c-11.5-10.3-23.4-20.4-37.7-25.7c-1.2-2.1-0.9-4.2-1.2-6.5c-0.3-2.7-1.1-5-1.6-7.8c-0.5-3.6,0.6-6.4,3.4-8.8
					c0.3-0.2,0.5-0.6,0.7-0.9c-0.4-0.1-0.8-0.1-1.2-0.1c-0.8,0.1-1.6,0.3-2.3,0.3c-2.1,0.1-3.5-0.5-4.5-2.3c-0.9-1.6-1-3.3-0.8-5
					c0.1-1.2,0.4-2.2,0.7-3.4c0.2-0.9,0.4-1.9,0.9-2.7c0.2-0.4,0.5-0.7,0.7-1.1c-0.2-0.1-0.4-0.3-0.6-0.2c-4.3,2-9,0.6-11.9-2.9
					c-1.1-1.4-1.7-2.6-2.4-4.1c-0.1-0.2-0.1-0.3-0.2-0.4c-0.1-0.1-0.4-0.2-0.5-0.2c-0.2,0.1-0.3,0.3-0.3,0.5c0,2.7,0,5.4-0.4,8.1
					c-0.3,2-1,3.5-2.7,4.6c-0.5,0.4-1.2,0.5-1.8,0.7c-0.6,0.2-0.9,0.5-0.4,1.1c2,2.6,3,5.3,3.3,8.5c0.2,2.2-1,3.5-2.3,5
					c-0.1,0.1-0.3,0.2-0.3,0.3c-0.5,0.6-0.5,0.9,0.3,1.3c2.4,1.2,4.7,2.2,6.8,4c2.5,2.1,4.5,4.9,4.1,8.3c-10-1.3-20.2-0.2-29.6,4
					c-10.8,4.8-19.9,14-23.2,26.3c-0.1,0.4-0.2,0.8-0.3,1.2c-0.1,0.4-0.2,0.8-0.3,1.2C78.6,355.1,80.6,367.8,88.1,375.9z
					 M235.5,367.4c-0.1,0-0.2,0-0.3-0.1c-0.2-0.1-0.3-0.3-0.4-0.4c-0.1,0.1-0.2,0.1-0.3-0.1c-2.1-2.7-4.3-3.6-7.7-3.3c0,0,0,0,0,0
					c1.6-0.8,3.6-0.7,5.2,0.1c-0.8-1.1-1.4-2.3-2.1-3.5c-0.5-0.8-1-1.6-1.4-2.4c-1-1.1-2-2.2-3.5-3.1c-1.9-1.1-4-1.7-5.9-2.6
					c0,0,0-0.1,0-0.1c2.8,0.5,5.8,1.6,8.1,3.4c-1-1.7-1.9-3.5-2.7-5.3c-0.2-0.4-0.3-0.7-0.5-1.1c0,0-0.1,0-0.1-0.1
					c-1.9-3.3-3.8-6.3-6.7-8.8c0,0,0-0.1,0.1-0.1c2.1,1.7,4.1,3.7,5.5,5.9c-1.6-4.6-2.5-9.5-1.7-14.5c0,0,0,0,0,0
					c-0.6,6.6,1.2,12.9,4.1,18.7c0.8,1.7,1.7,3.5,2.7,5.2c-1.3-4.1-1.2-8.8,0.3-12.4c0-0.1,0.1,0,0.1,0c-0.8,3.7-0.9,7.3,0.1,11
					c0.9,3.3,2.6,5.7,4.7,8.2c0-0.2-0.1-0.5-0.1-0.7c-0.2-2.3,0.8-4,2.3-5.7c0.1-0.1,0.2,0,0.1,0.1c-1.2,2-1.8,3.9-1.2,6.3
					c0.4,1.6,1.5,3,1.9,4.6c0,0,0.1,0.1,0.1,0.1C236.1,367.1,235.8,367.5,235.5,367.4z M214.8,377.3c-5.9-0.9-11,2.7-13.2,8
					c0,0.1-0.1,0-0.1,0c0.7-4.5,3.9-7.6,7.8-8.9c-1.1-0.1-2.3-0.1-3.4-0.1c-8.8,1.7-16.9,5.4-20.7,14.3c0,0.1-0.2,0-0.2-0.1
					c1.4-7.4,7.4-11.6,14.2-13.9c-1.2,0.1-2.3,0.1-3.5,0.1c-4.5,0.9-9.1,1.7-13.5,3c-6.5,2-9.1,6.6-12.4,12.1c0,0-0.1,0-0.1,0
					c1.1-3.7,2.7-7.1,5.4-9.6c-4.4,1.9-8.5,4.2-12.5,6.8c-0.2,0.2-0.4-0.2-0.2-0.4c4.3-3.2,8.9-5.8,13.8-8
					c-4.3-0.4-8.6-2.8-12.5-3.9c0,0,0,0,0,0c2.2-0.4,4.5,0.6,6.6,1.2c3.4,0.9,6.4,1.4,9.9,1.1c1.5-0.6,3-1.1,4.6-1.5
					c1-0.3,2.1-0.6,3.2-0.9c0.7-0.2,1.5-0.3,2.2-0.5c-5.6-1.1-10.6-4.7-13.3-9.8c-0.1-0.1,0.1-0.2,0.2-0.1
					c4.9,6.1,11.4,8.6,19.1,8.4c2.2,0,4.6-0.3,6.9-0.5c-0.9-0.4-1.8-0.8-2.6-1.4c-2.7-1.8-4.7-4.3-5-7.6c0-0.1,0.1-0.1,0.1,0
					c1.3,3.8,4.5,6.2,8.2,7.4c3.2,1,7.3,0.9,10.3,2.5c0.2,0.1,0.4,0.1,0.6,0.2c0.1,0.1,0.3,0.1,0.3,0.2c0.1,0,0.2,0,0.2,0.1
					c0.3,0.1,0.4,0.3,0.3,0.5C216,376.5,215.6,377.4,214.8,377.3z M135.7,309.3c1-1.6,2.2-2,4-1.8c0.4,0,0.8,0.2,1.2,0.3
					c-0.4-0.4-0.7-0.8-1.1-1.2c-1.3-1.4-2.3-2.8-3.7-4.1c-1.4-1.3-2.9-2.5-4.7-3.2c-1.8-0.7-3.5-1-5.4-1.3c0,0,0,0,0,0
					c3.8,0.2,7.2,0.6,10.4,3c0.2,0.2,0.4,0.4,0.7,0.5c-0.9-1.3-1.5-2.7-2.3-4.1c-0.7-1.2-1.5-2.3-2.3-3.4c-2.1-3.2-4.5-6.2-7.3-8.8
					c0,0,0-0.1,0.1-0.1c1.5,1,3,2.1,4.2,3.4c1.1,1.1,2,2.2,3,3.4c-1.8-5.4-2.7-10.6-2.1-16.2c0,0,0,0,0,0c0,3,0.1,5.9,0.7,8.9
					c0.6,3,1.6,6,2.8,8.8c0,0,0,0,0,0c-0.9-5.4,1.3-9.2,4.7-13.2c0,0,0,0,0,0c-3.4,4.7-5.6,9-3.5,14.7c0.7,2,2.2,3.6,3.1,5.5
					c0.9-2.8,2.7-4.8,4.8-6.6c0,0,0.1,0,0.1,0.1c-1.2,1.5-2.5,2.9-3.3,4.6c-0.6,1.3-0.7,2.5-0.6,3.8c0,0.4,0.3,0.7,0.5,1
					c0.7,1,1.5,1.9,2.3,3c0.8,1,1.8,2.2,2.7,3.3c0,0,0.1,0,0.1,0.1c0.3,0.2,0.4,0.4,0.4,0.7c0,0.8-0.6,0.9-1.2,0.5
					c-0.2-0.1-0.3-0.3-0.5-0.4c-0.8-0.5-1.7-1-2.6-1.4c-0.5-0.3-1.1-0.5-1.7-0.6C137.7,308,136.8,308.3,135.7,309.3
					C135.7,309.4,135.6,309.3,135.7,309.3z M99.2,325.6c0,0.4-0.1,0.7-0.2,1.1c0,0,0,0,0,0c0,0,0,0.1,0,0.1
					c-0.1,0.9-0.4,1.9-0.1,2.7c0.3,1.3,1,1.5,2.1,1.9c0,0,0,0.1,0,0.1c-1,0.3-1.8,0.1-2.5-0.7c-0.2-0.2-0.3-0.6-0.4-0.9
					c-0.1,0.7-0.3,1.4-0.3,2.1c0,0.4-0.1,0.8,0,1.1c0.4,0.9,0.8,1.6,1.5,2.2c0.7,0.7,1.7,1,2.6,1.3c0,0,0,0.1,0,0
					c-1.1-0.1-2-0.4-3-1.1c-0.3-0.3-0.7-0.7-0.9-1c0.2,0.9,0.4,1.9,0.7,2.8c0.1,0.3,0.1,0.6,0.3,0.9c0.3,0.4,0.6,0.7,0.9,1
					c0.3,0.4,0.8,0.7,1.2,0.9c0.4,0.3,0.9,0.5,1.4,0.7c0.4,0.2,0.7,0.2,1.1,0.3c0,0,0.1,0.1,0,0.1c-1,0.1-1.7-0.3-2.6-0.7
					c-0.6-0.3-1.2-0.7-1.7-1.2c0.2,0.5,0.5,1.1,0.7,1.6c0,0,0,0.1,0,0.1c0.3,0.5,0.5,1,0.8,1.5c0.9,1.5,2,2.8,2.7,4.4c0,0,0,0,0,0
					c-0.9-1.6-2-3.1-3.1-4.7c0.1,1.4-0.1,2.7-0.6,4c0,0-0.1,0,0,0c0.2-1,0.5-1.9,0.4-2.9c0-0.8-0.1-1.5-0.5-2.3
					c-0.6-1.3-1.2-2.7-1.6-4.1c-0.3-0.9-0.5-1.9-0.8-2.9c-0.1,0.5-0.3,1.1-0.5,1.6c-0.5,1.3-1.2,2.4-2,3.4c0,0-0.1,0,0-0.1
					c0.5-1.3,1.2-2.5,1.6-3.8c0.2-0.6,0.3-1.2,0.4-1.9c0.1-0.5,0.1-1.1,0.2-1.5c0-0.1,0-0.2,0-0.3c0.1-0.6,0.1-1.2,0.2-1.8
					c-0.2,0.2-0.4,0.6-0.6,0.8c-0.8,0.8-1.5,1.2-2.5,1.7c0,0-0.1,0,0-0.1c0.9-0.9,1.7-1.4,2.5-2.6c0.3-0.5,0.9-1.5,1.1-2.1
					c0.2-0.4,0.3-1,0.4-1.3c0.1-0.3,0.1-0.3,0.2-0.5c0.1-0.2,0.1-0.3,0.3-0.5C98.8,325.2,99.2,325.2,99.2,325.6z"/>
			</g>
			<path class="st0" d="M82,346.6c0,0,0.1-0.1,0.1-0.1c0,0,0,0,0,0C82,346.5,82,346.6,82,346.6z"/>
			<path class="st0" d="M65.1,354c0.7,0.6,1,1.5,1,2.3c0.1,0.8-0.1,1.5-0.2,2.3c0,0.3-0.3,0.5-0.4,0.7c-0.1,0.1-0.1,0.3-0.1,0.4
				c0.1,0,0.3,0,0.4-0.1c0.2-0.2,0.5-0.4,0.7-0.6c0.8-0.7,1.8-1.1,2.8-1.3c0.4-0.1,0.8,0,1.1,0.3c0.1,0.1,0.3,0.1,0.5,0.2
				c0-0.2,0.1-0.3,0.1-0.5c0,0,0-0.1,0-0.1c-0.1-1.3,0.6-2,1.8-2.3c0.9-0.3,1.8-0.2,2.6,0.5c0.1,0.1,0.3,0.1,0.5,0.1
				c0-0.2,0-0.3-0.1-0.5c-0.1-0.3-0.3-0.6-0.4-1c-0.8-2,1.3-4,3.2-3.6c0.1,0,0.3,0,0.4,0c0.1-0.1,0.1-0.3,0-0.4
				c-1-2.4-0.1-4.4,1.5-6.2c0.1-0.1,0.2-0.2,0.3-0.3c0.3-0.3,0.6-0.6,0.9-0.9c0,0,0-0.1,0.1-0.1c0.1-0.1,0.2-0.2,0.2-0.2
				c0-0.1-0.1-0.5-0.1-0.5l-0.3-0.8l-0.2,0.1l-1.9,0.8c-0.6,0.2-1.1,0.5-1.6,0.8c-1.7,0.8-3.4,0.8-5.1,0.5c-0.8-0.1-1.4-0.6-2-1.1
				c-0.1-0.1-0.3-0.1-0.4-0.2c0,0.1,0,0.3,0,0.5c0.1,0.4,0.3,0.9,0.4,1.3c0.2,1.4-0.7,2.7-2.2,2.9c-0.8,0.1-1.6,0.2-2.4-0.1
				c-0.1,0-0.3,0-0.5,0c0,0.1,0,0.3,0.1,0.4c0.3,0.8,0.8,1.6,0.9,2.5c0.3,1.2-0.3,2.3-1.4,2.8C64.2,353.2,64.4,353.4,65.1,354z
				 M65.8,353.1c0.5-0.5,1.3-0.6,1.9-0.8c1-0.3,1.9-0.7,2.7-1.4c0.3-0.4,0.6-0.8,0.9-1.2c0.2-0.3,0.4-0.5,0.7-0.8
				c0.2-0.2,0.3-0.3,0.5-0.5c-1.6,0.7-3.5,0.6-5.1-0.3c0,0,0-0.1,0-0.1c2.3,0.8,4.4,0.3,6.3-1c0.6-0.4,1.1-0.8,1.7-1.3
				c-0.3,0-0.6,0.1-0.9,0.1c-1,0-1.9-0.3-2.6-1.1c0,0,0,0,0,0c1,0.8,2.2,0.8,3.4,0.5c1-0.3,2-1,3.1-1.1c0.1,0,0.1,0,0.2,0
				c0,0,0.1,0,0.1,0c0,0,0,0,0.1,0c0.1,0,0.1,0,0.2,0.1c0.2,0,0.2,0.4,0,0.5c-1.7,0.8-2.4,2.5-2.1,4.3c0,0,0,0,0,0
				c-0.6-1.3-0.3-2.6,0.5-3.6c-0.3,0.2-0.6,0.3-0.9,0.5c-2,1.9-3.5,4.2-3,7.2c0,0-0.1,0-0.1,0c-0.9-2.2,0-4.2,1.3-6
				c-0.3,0.2-0.6,0.4-0.9,0.6c-1,1-2.1,2-3,3.1c-1.3,1.6-1.2,3.2-1.2,5.2c0,0,0,0,0,0c-0.3-1.1-0.5-2.3-0.2-3.4
				c-0.8,1.2-1.5,2.5-2.1,3.9c0,0.1-0.1,0-0.1-0.1c0.6-1.5,1.3-3,2.2-4.4C68.5,352.6,67,352.7,65.8,353.1
				C65.8,353.1,65.8,353.1,65.8,353.1z"/>
		</g>
		<path class="st0" d="M247,371c3.8,1.5,8,0,11.5,2.7c0.3,0.2,0.6,0.5,0.9,0.7c0.7-1.5,2.2-2.6,3.9-2.7c1.7-0.2,3.5,0.6,4.5,1.9
			c0.6-1.5,1.3-3,2.6-4.1c1.3-1.1,3.2-1.5,4.6-0.5c0.5,0.3,1.2,0.8,1.6,0.4c0.1-0.2,0.2-0.4,0.2-0.6c0.3-1.6,4.3-7.6,7.1-9.4
			c5.8,1.8,10.6,2.4,12.8,2.6c0.9,0.1,1.4,0.1,1.4,0.1l1.8-1.6c-0.9,0-2-0.1-3.1-0.2c-5.1-0.6-11.9-2.2-12.7-2.4c-0.1,0-0.1,0-0.1,0
			c0,0-0.1,0-0.1,0c-0.3-0.1-0.7-0.2-1.1-0.4c0,0,0,0-0.1,0c-0.1,0-0.2-0.1-0.3-0.1c0,0,0,0,0,0c-2-1.7-3.6-3.7-4.8-6
			c0.1-0.1,0.2-0.3,0.3-0.5c0.2-0.5-0.1-1-0.2-1.5c-0.8-2.7-0.9-5.1,0.3-7.8c-3.3-1-0.1-5.7,1.2-7.4c-1.1,0.6-2.4-2.2-2.5-2.6
			c-0.3-2.2,0.6-3.6,1.5-5.3c-1.6,0.5-5-6.2-6-7.7c-0.6,3.8-1.3,7.2-5.1,9c1.5,0.1,2.1,2.9,1.9,3.9c-0.4,2.4-1.9,4.1-2.9,6.2
			c1.9,0.4,3.1,1.5,3.6,3.4c0.5,1.9,0,3.8-0.7,5.6c2.3-1.9,6.1,2.8,7.2,4.4c0.1,0.1,0.1,0.2,0.2,0.2c0.9,2,2.2,3.8,3.7,5.3
			c-0.2-0.1-0.4-0.2-0.7-0.3l0,0c-1.7-0.7-3.4-1.4-4.2-1.8c0,0,0,0,0,0c-0.2-0.1-0.3-0.2-0.5-0.2c0,0,0,0-0.1,0c0,0,0,0,0,0
			c-3.7-1.9-7.3-4.1-10.5-6.7c-0.7-1.9-2.6-8-1.3-7.9c-3.1-0.3-6.5-1.9-6.9-4.9c-3.5,2.1-8.6,0.6-10.4-3c0.1,0.2-4.3,0.2-4.8,0.1
			c-1.7-0.3-3.2-1.5-4.9-1.4c1,3.1,4.1,5,4.2,8.5c0,0.3,0,0.6,0,0.9c1.4-0.3,2.9,0,3.9,1c1,1,1.4,2.4,1.1,3.8
			c1.3-0.4,2.7-0.7,4.1-0.5c1.4,0.2,2.7,1.2,2.8,2.6c0,0.5,0.1,1.2,0.6,1.2c0.2,0,0.3-0.1,0.5-0.2c1-0.5,5.3-1,8.3-0.7
			c0.7,0.6,1.4,1.2,2.2,1.8c-0.3-0.1-0.6,0-0.9,0c-0.8,0.2-1.5,0.6-1.9,1.2c-0.8,1.3-0.1,3.3,1.4,3.6c0.7,0.1,1.5-0.1,2.2-0.5
			c0.4-0.2,0.7-0.5,0.9-0.9c0.1-0.2,0.2-0.5,0.1-0.8c1,0.1,2,0.3,2.9,0.6c0.8,0.5,1.7,1,2.5,1.5c-1.9,0.3-3.8,0.5-5.7,0.6
			c-0.5,0-0.9,0-1.4,0c-0.4-0.2-0.8-0.2-1.2-0.1c0,0-0.1,0-0.1,0c-1-0.1-1.9-0.2-2.9-0.4c0.1-0.9-0.4-2-1.1-2.4
			c-0.3-0.2-0.6-0.3-1-0.2c-1.6,0.1-2.4,1.8-1.9,3.2c0.1,0.4,0.3,0.8,0.6,1.1c0.3,0.2,0.6,0.3,0.9,0.3c1,0.1,2.1-0.4,2.4-1.4
			c0.7,0.1,1.4,0.2,2.1,0.3c-0.2,0.2-0.4,0.4-0.6,0.6c-0.7,1.2-0.1,2.9,1.2,3.2c0.7,0.1,1.3-0.1,1.9-0.4c0.3-0.2,0.6-0.4,0.8-0.8
			c0.2-0.3,0.2-0.7,0.1-1c2.4-0.3,4.8-1,7-1.9c0.7,0.4,1.5,0.8,2.2,1.1c-2.4,1.5-5.3,2.2-7.7,0.7c-0.6,4.8-5.8,8.2-10.7,7.1
			c0.3,0.1-3.1,4.1-3.5,4.4C250.5,368.9,248.2,369.4,247,371z M270.5,354.3c-1.9,0.7-3.9,1.2-5.9,1.4c-0.1-0.3-0.2-0.6-0.4-0.9
			c0.2,0,0.4,0,0.6,0C266.7,354.8,268.6,354.5,270.5,354.3z M261.2,345.2c-0.3-0.3-0.6-0.5-0.9-0.8c-0.1-0.1-0.2-0.1-0.3-0.1
			c-4.7-3.4-11.2-3.3-15.7-7.2c-0.4-0.3,0.1-0.9,0.5-0.6c4.8,4.2,12,3.7,16.8,8.1C262,344.9,261.5,345.4,261.2,345.2z M266.7,351.3
			c-0.5-0.1-1.1-0.2-1.6-0.2c0-0.1-0.1-0.3-0.1-0.4c-0.1-0.3-0.2-0.5-0.3-0.8C265.4,350.4,266.1,350.9,266.7,351.3z M274.7,347
			c-0.1-0.1-0.1-0.2-0.2-0.3c0-0.1,0-0.2-0.1-0.3c0-0.1-0.1-0.2-0.2-0.3c-2.1-4.8-1.2-10.4-1.7-15.6c0-0.5,0.7-0.5,0.8,0
			c0.5,5.4-0.4,11.3,2,16.3C275.6,347.2,274.9,347.5,274.7,347z M257.5,367.5c3,0.8,7-2.4,9.4-3.9c1.8-1.1,3.6-2.5,5.6-3.4
			c2.1-1,4.3-0.9,6.5-1.2c0.5-0.1,0.6,0.7,0.1,0.8c-1.3,0.2-2.6,0.2-3.9,0.4c-1.7,0.3-3.2,1.1-4.7,2c-1.6,1-3.2,2.1-4.8,3.1
			c-2.3,1.4-5.6,3.7-8.4,3C256.9,368.1,257,367.3,257.5,367.5z"/>
	</g>
	<g>
		<g>
			<g>
				<path class="st0" d="M927.3,344.2c-0.1-0.4-0.2-0.8-0.3-1.2c-0.1-0.4-0.2-0.8-0.3-1.2c-3.4-12.3-12.5-21.5-23.2-26.3
					c-9.4-4.2-19.7-5.3-29.6-4c-0.4-3.4,1.6-6.2,4.1-8.3c2.2-1.8,4.4-2.8,6.8-4c0.8-0.4,0.8-0.7,0.3-1.3c-0.1-0.1-0.2-0.2-0.3-0.3
					c-1.4-1.5-2.6-2.8-2.3-5c0.4-3.2,1.3-5.9,3.3-8.5c0.5-0.6,0.2-0.9-0.4-1.1c-0.6-0.2-1.3-0.3-1.8-0.7c-1.7-1.1-2.4-2.6-2.7-4.6
					c-0.4-2.7-0.5-5.4-0.4-8.1c0-0.2-0.1-0.4-0.3-0.5c-0.2-0.1-0.4,0.1-0.5,0.2c-0.1,0.1-0.2,0.3-0.2,0.4c-0.7,1.5-1.3,2.8-2.4,4.1
					c-2.9,3.5-7.7,4.8-11.9,2.9c-0.2-0.1-0.5,0-0.6,0.2c0.1,0.4,0.4,0.7,0.7,1.1c0.5,0.8,0.7,1.8,0.9,2.7c0.3,1.1,0.6,2.2,0.7,3.4
					c0.2,1.8,0.1,3.5-0.8,5c-1.1,1.8-2.5,2.4-4.5,2.3c-0.7,0-1.5-0.3-2.3-0.3c-0.4,0-0.8,0.1-1.2,0.1c0.2,0.3,0.5,0.7,0.7,0.9
					c2.8,2.4,3.9,5.2,3.4,8.8c-0.4,2.7-1.3,5.1-1.6,7.8c-0.3,2.3,0,4.4-1.2,6.5c-14.3,5.3-26.1,15.4-37.7,25.7
					c-12.2,11-24.6,21.7-38.6,29.9c-3.4,2-6.8,3.8-10.3,5.4c-1.5,0.5-3.1,1.1-4.6,1.6c0.6-2.1,1-4.3,2.4-6c1.5-1.8,3.5-3.1,5.6-4.1
					c1.3-0.6,2.7-0.8,4.1-0.7c1.4,0.1,2.9,1,4.2,0.7c0.1-1-0.3-1.9-0.2-2.9c0-0.5,0.2-1,0.4-1.4c1.5-3.7,3.7-7.7,8-8.5
					c0.4-0.1,0.8-0.4,1.2-0.6c-0.3-0.4-0.5-0.8-0.9-1.2c-0.5-0.6-1.2-1.1-1.5-1.8c-1-2.2-0.9-4.4,0-6.6c0.6-1.5,1.4-2.9,2.2-4.4
					c0.4-0.7,0.4-1.2-0.3-1.5c-2-0.9-2.6-2.7-3.1-4.6c-1-4.1-3.4-7.1-7.1-9.1c-0.3-0.2-0.8,0-1.2,0c0.2,0.3,0.3,0.7,0.5,1
					c0.6,0.9,1.4,1.6,1.9,2.6c1.2,2.1,1.1,4.5,0.7,6.8c-0.7,3.6-4.3,6.6-8.3,5.3c-0.4-0.1-0.9,0-1.4,0c0.2,0.4,0.3,1,0.6,1.3
					c2.1,2.1,3.2,5,2.5,8c-0.2,0.7-0.6,1.5-1.1,1.9c-1.3,1-2.7,1.6-4.3,1.5c-1.2-0.1-2.3-0.3-3.5-0.4c-0.4,0-0.8,0.1-0.9,0.4
					c-0.1,0.2,0,0.4,0.1,0.6c0.9,1.7,2.6,2.8,3.4,4.6c0.7,1.7,0.8,3.5,0.4,5.3c-0.1,0.5-0.4,0.9-0.6,1.3c-0.9,1.3-2.1,2.4-2.9,3.8
					c-1.7,3-3.7,5.9-3.3,9.6c-0.3,0.1-0.7,0.3-1,0.4c-0.5,0.2-2.2,0.7-3.4,1.3c-7,2.2-14.2,3.6-21.6,3.8c-7,0.2-14.1-0.6-21-2.6
					c-4.5-1.3-8.8-3.4-13-5.6c-2.4-1.3-4.7-2.6-7-3.9c-0.9-0.5-1.5,0.9-0.9,1.6c2.9,3,6.2,5.5,9.8,7.4c8.4,4.5,18.3,6.3,27.2,6.7
					c13.9,0.5,27.6-2.9,40.2-9c0.1,0,0.2,0,0.2-0.1c4.5-1.2,9-0.5,13.4,0.8c7.3,2.1,13.5,5.7,14.9,14.1c0.1,0.4,0.4,1,0.7,1.1
					c0.3,0.1,0.9-0.3,1.2-0.6c4.5-4.8,13.7-2.7,15.1,3.9c0,0.1,0,0.1,0,0.2c0.2,1.1,0.3,2.2,0.5,3.3c0.1,0.5,0.5,1,0.7,1.5
					c0.4-0.4,1-0.8,1.1-1.3c0.5-1.4,1.2-2.5,2-3.4c1.2-1.2,2.6-2,4.3-2.5c3.5-1.1,6.5-0.5,8.5,2.5c0.1,0.2,0.3,0.4,0.4,0.7
					c0,0.1,0.1,0.2,0.2,0.2c0.4,0.4,0.8,0.7,1.2,1.1c0.3-0.4,0.8-0.8,1-1.3c0.1-0.3,0.2-0.5,0.3-0.7c0.5-1,1.2-1.6,2.3-2.1
					c3.2-1.4,6.5-1.9,9.9-1.4c1,0.1,2,0.4,3,0.5c0.4,0,0.9-0.3,1.3-0.5c-0.3-0.3-0.6-0.8-1-1c-0.8-0.5-1.8-0.7-2.4-1.3
					c-1.6-1.9-3.4-3.8-4.6-6c-1.3-2.5-2.2-5.4-1.3-8.2c0.8-2.7,0.8-3.7-2.8-3c-4,0.8-7.5-1.4-8.8-5.1c-1-2.7-1.3-5.7-1.9-8.5
					c-0.1-0.4-0.3-0.8-0.5-1.3c-0.4,0.2-1,0.3-1.3,0.7c-1.7,2.1-4,3.3-6.4,4.5c-4.5,2.2-9.3,0.1-11.1-4c-0.6-1.3-0.9-2.9-1.4-4.3
					c-0.2-0.4-0.6-0.8-0.8-1.2c-0.3,0.4-0.8,0.7-0.9,1.2c-0.5,2.5-1.5,4.9-3.4,6.7c-4.2,3.9-8.8,7.1-14.8,7.8
					c-2.7,0.3-5.5,0.8-8.2,1.2c8.6-5.2,16.8-11.3,24.6-17.9c10.9-9.2,21-19.6,32.7-27.6c3.6-2.5,7.7-4.8,11.9-6.7
					c0.6-0.1,1.1-0.2,1.7-0.2c2.5,0.1,5,0.6,7.4,1.5c2.3,0.9,3.9,2.2,5.6,4c-1.3,1.4-1.8,3.5-0.6,5.1c1.2,1.6,3.3,2.1,5,1.1
					c1.7-1,2.4-3.1,1.5-4.9c-0.8-1.8-2.8-2.5-4.7-2c-0.2,0-0.3,0.1-0.5,0.1c-0.2,0-0.2-0.1-0.3-0.2c-1.6-1.7-3.4-3.1-5.6-3.9
					c-2-0.7-4.1-1-6.1-1.4c2.3-0.7,4.9-0.4,7.2-0.4c3,0,5.6,0.5,8.5,1c0.6,0.1,1.1,0.3,1.6,0.5c0.1,0,0.2,0.2,0.3,0.3
					c0,1.4,0.4,2.8,1.5,3.8c2,1.6,4.6,1.5,6.3-0.4c1.7-1.9,1.5-4.6-0.4-6.3c-1.9-1.7-4.5-1.4-6.3,0.3c-0.4,0.4-0.6,0.9-0.9,1.4
					c-0.2,0-0.4,0-0.6,0c-2.3-0.5-4.6-1.2-6.9-1.3c-1.7-0.1-3.3-0.2-5-0.2c-0.8,0-1.6,0-2.6,0c-0.3,0-0.9,0.2-1.4,0.2
					c13.5-4.9,28.7-6.1,41.6-0.4c3.3,2.2,7.1,4.8,6.4,9c-0.3,1.8-1.1,1.6-2.5,1.9c-0.3,0.1-0.7,0.2-1,0.2c0.7,1.5,1.4,3.3,1,5
					c-0.4,1.7-1.6,2.2-3,2.9c0.9,0.5,1.1,1.2,0.8,2.3c-0.3,1.1-1,2.3-1.6,3.2c1.4,0.4,2.3,0.9,2.2,2.6c-0.1,1.7-0.9,3.6-1.5,5.2
					c-0.1,0.3-0.2,0.6-0.1,0.8c0.5-0.7,1-1.5,1.6-2.1c0.8-0.7,1.7-1,2.6-0.9c1,0,1.6,0.3,2.5,0.5c0.2,0,0.4,0,0.5-0.1
					c0.1-0.1,0.1-0.3,0.1-0.5c0.3-1.9,1.1-3.3,2.3-4.7c1.2-1.4,2.6-2.4,4.1-3.4c-0.8-1.2-1.2-2-1.1-3.6c0.1-1.6,0.5-3.3,1.3-4.8
					c0.1-0.2,0.3-0.3,0.2-0.6c-0.1-0.3-0.3-0.1-0.7-0.1c-1.7,0.1-2.4-0.7-3.4-2.2c-1.2-1.7-1.8-3.5-2.8-5.3
					c-0.1-0.3-0.3-0.5-0.5-0.8c2.4,1.7,4.6,3.8,6.8,6.1c7.4,8.3,10.4,20.4,8.1,31.5c-2.8,13.5-13.2,20.4-25.5,20.4
					c-6.4,0-13.9-1.2-19.6-4.6c-5.8-3.5-9-10.9-7.2-17.9c1.6-6.3,7.4-11,14-9.2c2.7,0.7,3.7,4.2,1.3,6c-0.5,0.4-1.1,0.5-1.6,0
					c-0.3-0.3-0.4-0.8-0.2-1.2c0.1-0.3,0.4-0.5,0.7-0.5c0-0.5-0.6-0.8-1.1-0.6c-0.4,0.2-0.7,0.6-0.9,1c-0.5,1.2-0.5,2.8,0.2,3.9
					c0.4,0.6,1,1.1,1.6,1.5c1.5,0.9,3.8,0.4,4.8-1c0-0.1,0.1-0.1,0.1-0.2c0.1-0.1,0.2-0.1,0.3-0.1c0.5,0,1,0.3,1.3,0.7
					c1.1,1.6-1,3.3-2.5,3.3c-0.3,0-0.7-0.1-0.9-0.3c-0.2-0.2-0.3-0.6-0.1-0.9c-0.9,0.1-1.6,0.9-1.6,1.7c-0.1,0.9,0.4,1.7,1.1,2.2
					c0.7,0.5,1.5,0.8,2.4,0.8c3,0.3,6.2-1.6,7.2-4.4c0.7-2.1,0.9-4.7,0.2-6.8c-0.7-2-1.5-4.1-2.8-5.8c-4.5-5.7-12.8-5.7-18.4-2.4
					c-6.1,3.5-9.6,10.7-8.9,18.2c0.2,2.3,0.8,4.4,1.7,6.3c-0.5-0.2-1-0.5-1.6-0.6c-4.2-1.3-10,0.5-10.3,5.5c-0.1,2,0.7,3.5,1.9,4.5
					c2.1,2,5.9,1.9,8.1-0.1c1.2-1.1,1.7-2.8,1.2-4.4c-0.4-1.6-2.6-2-4-1.9c-0.3,0-0.6,0.1-0.8,0.2c-0.6,0.3-1,0.9-1.1,1.6
					c-0.1,0.7,0.2,1.3,0.6,1.9c0-0.3,0.1-0.5,0.3-0.6c0.2-0.1,0.5-0.1,0.7,0c0.4,0.2,0.4,0.8,0.2,1.2c-0.6,1.1-2,1-3,0.6
					c-1.3-1-1.7-2.2-1.1-3.6c0.7-1.6,2.5-2.3,4-2.3c3-0.1,5.6,1.9,7.8,3.7c2.7,2.2,5.5,4.3,8.8,5.5c3.5,1.2,7.2,2.1,10.8,2.7
					c9.8,1.5,20.8-0.6,27.8-8.1C927.7,368,929.6,355.3,927.3,344.2z M772.4,367c0,0,0.1-0.1,0.1-0.1c0.3-1.6,1.5-3,1.9-4.6
					c0.6-2.4-0.1-4.2-1.2-6.3c0-0.1,0.1-0.2,0.1-0.1c1.4,1.7,2.4,3.4,2.3,5.7c0,0.2,0,0.5-0.1,0.7c2.1-2.5,3.8-4.9,4.7-8.2
					c1-3.7,0.9-7.3,0.1-11c0-0.1,0.1-0.1,0.1,0c1.5,3.7,1.5,8.3,0.3,12.4c0.9-1.7,1.8-3.5,2.7-5.2c2.9-5.9,4.7-12.1,4.1-18.7
					c0,0,0,0,0,0c0.8,4.9-0.1,9.8-1.7,14.5c1.5-2.3,3.4-4.3,5.5-5.9c0,0,0.1,0,0.1,0.1c-2.9,2.6-4.8,5.6-6.7,8.8
					c0,0-0.1,0.1-0.1,0.1c-0.2,0.4-0.3,0.7-0.5,1.1c-0.8,1.8-1.8,3.6-2.7,5.3c2.3-1.9,5.2-3,8.1-3.4c0,0,0.1,0.1,0,0.1
					c-2,0.9-4.1,1.5-5.9,2.6c-1.5,0.9-2.5,2-3.5,3.1c-0.5,0.8-0.9,1.6-1.4,2.4c-0.7,1.2-1.4,2.3-2.1,3.5c1.6-0.8,3.6-0.9,5.2-0.1
					c0,0,0,0,0,0c-3.4-0.3-5.6,0.5-7.7,3.3c-0.1,0.1-0.2,0.1-0.3,0.1c-0.1,0.2-0.3,0.3-0.4,0.4c-0.1,0.1-0.2,0.1-0.3,0.1
					C772.5,367.7,772.2,367.3,772.4,367z M792.7,376.2c0-0.2,0.1-0.5,0.3-0.5c0.1,0,0.2,0,0.2-0.1c0.1-0.1,0.2-0.2,0.3-0.2
					c0.2-0.1,0.4-0.1,0.6-0.2c3-1.6,7.1-1.5,10.3-2.5c3.7-1.2,7-3.5,8.2-7.4c0-0.1,0.1-0.1,0.1,0c-0.3,3.3-2.3,5.8-5,7.6
					c-0.8,0.6-1.7,1-2.6,1.4c2.4,0.2,4.7,0.4,6.9,0.5c7.7,0.2,14.2-2.3,19.1-8.4c0.1-0.1,0.2,0,0.2,0.1c-2.7,5.1-7.7,8.6-13.3,9.8
					c0.8,0.2,1.5,0.3,2.2,0.5c1.1,0.3,2.1,0.5,3.2,0.9c1.6,0.4,3.1,0.9,4.6,1.5c3.5,0.3,6.5-0.1,9.9-1.1c2.1-0.6,4.4-1.6,6.6-1.2
					c0,0,0,0,0,0c-3.9,1-8.3,3.4-12.5,3.9c4.9,2.1,9.5,4.8,13.8,8c0.2,0.2,0,0.5-0.2,0.4c-4-2.7-8.1-4.9-12.5-6.8
					c2.7,2.5,4.3,5.9,5.4,9.6c0,0,0,0.1-0.1,0c-3.3-5.5-5.9-10.1-12.4-12.1c-4.4-1.4-8.9-2.2-13.5-3c-1.1,0-2.3-0.1-3.5-0.1
					c6.8,2.3,12.8,6.4,14.2,13.9c0,0.1-0.1,0.2-0.2,0.1c-3.8-8.9-11.9-12.6-20.7-14.3c-1.1,0-2.3,0-3.4,0.1c4,1.3,7.1,4.4,7.8,8.9
					c0,0.1-0.1,0.1-0.1,0c-2.3-5.3-7.3-8.9-13.2-8C792.7,377.6,792.3,376.7,792.7,376.2z M872.5,309.5c-1-1-2-1.3-3.4-1
					c-0.6,0.1-1.2,0.4-1.7,0.6c-0.9,0.4-1.8,0.9-2.6,1.4c-0.2,0.1-0.4,0.3-0.5,0.4c-0.6,0.3-1.2,0.2-1.2-0.5c0-0.3,0.1-0.5,0.4-0.7
					c0,0,0.1,0,0.1-0.1c0.8-1.1,1.8-2.3,2.7-3.3c0.8-1,1.6-1.9,2.3-3c0.2-0.3,0.4-0.6,0.5-1c0.1-1.3,0-2.5-0.6-3.8
					c-0.8-1.7-2.1-3.2-3.3-4.6c0,0,0-0.1,0.1-0.1c2.2,1.9,3.9,3.9,4.8,6.6c0.9-1.9,2.4-3.5,3.1-5.5c2.1-5.7-0.2-10.1-3.5-14.7
					c0,0,0,0,0,0c3.4,4,5.6,7.9,4.7,13.2c0,0,0,0,0,0c1.1-2.9,2.2-5.8,2.8-8.8c0.6-3,0.7-5.9,0.7-8.9c0,0,0,0,0,0
					c0.6,5.7-0.3,10.9-2.1,16.2c0.9-1.2,1.9-2.4,3-3.4c1.3-1.3,2.7-2.4,4.2-3.4c0,0,0.1,0,0.1,0.1c-2.8,2.6-5.2,5.6-7.3,8.8
					c-0.8,1.2-1.6,2.2-2.3,3.4c-0.8,1.4-1.4,2.8-2.3,4.1c0.2-0.2,0.4-0.4,0.7-0.5c3.2-2.4,6.5-2.8,10.4-3c0,0,0,0,0,0
					c-1.8,0.4-3.6,0.6-5.4,1.3c-1.8,0.7-3.3,1.9-4.7,3.2c-1.4,1.3-2.4,2.7-3.7,4.1c-0.4,0.4-0.7,0.8-1.1,1.2
					c0.4-0.1,0.8-0.2,1.2-0.3C870.4,307.5,871.6,307.9,872.5,309.5C872.6,309.5,872.6,309.6,872.5,309.5z M909.6,325.6
					c0.2,0.2,0.2,0.3,0.3,0.5c0.1,0.2,0.1,0.2,0.2,0.5c0.1,0.3,0.2,0.9,0.4,1.3c0.3,0.6,0.8,1.6,1.1,2.1c0.8,1.2,1.5,1.7,2.5,2.6
					c0,0,0,0.1,0,0.1c-1-0.5-1.8-0.9-2.5-1.7c-0.2-0.2-0.4-0.6-0.6-0.8c0.1,0.6,0.2,1.2,0.2,1.8c0,0.1,0,0.2,0,0.3
					c0.1,0.5,0.1,1.1,0.2,1.5c0.1,0.7,0.2,1.3,0.4,1.9c0.5,1.3,1.1,2.5,1.6,3.8c0,0,0,0.1,0,0.1c-0.8-1.1-1.5-2.2-2-3.4
					c-0.2-0.5-0.4-1.1-0.5-1.6c-0.2,0.9-0.5,1.9-0.8,2.9c-0.4,1.4-1,2.8-1.6,4.1c-0.3,0.8-0.4,1.5-0.5,2.3c0,1,0.3,1.9,0.4,2.9
					c0,0,0,0.1,0,0c-0.5-1.3-0.7-2.6-0.6-4c-1,1.6-2.1,3.1-3.1,4.7c0,0,0,0,0,0c0.7-1.6,1.7-3,2.7-4.4c0.3-0.5,0.5-1,0.8-1.5
					c0,0,0-0.1,0-0.1c0.3-0.5,0.5-1.1,0.7-1.6c-0.5,0.5-1.2,0.9-1.7,1.2c-0.9,0.5-1.6,0.8-2.6,0.7c0,0,0-0.1,0-0.1
					c0.4-0.1,0.7-0.2,1.1-0.3c0.4-0.2,0.9-0.5,1.4-0.7c0.4-0.3,0.9-0.6,1.2-0.9c0.3-0.3,0.7-0.6,0.9-1c0.2-0.3,0.2-0.6,0.3-0.9
					c0.3-0.9,0.5-1.9,0.7-2.8c-0.3,0.3-0.6,0.8-0.9,1c-0.9,0.7-1.8,1-3,1.1c0,0,0,0,0,0c0.9-0.3,1.9-0.6,2.6-1.3
					c0.7-0.7,1.1-1.4,1.5-2.2c0.1-0.3,0.1-0.7,0-1.1c-0.1-0.7-0.2-1.4-0.3-2.1c-0.1,0.3-0.2,0.6-0.4,0.9c-0.7,0.8-1.5,1-2.5,0.7
					c0,0,0-0.1,0-0.1c1.1-0.4,1.8-0.7,2.1-1.9c0.2-0.8,0-1.8-0.1-2.7c0,0,0-0.1,0-0.1c0,0,0,0,0,0c-0.1-0.4-0.2-0.7-0.2-1.1
					C909.1,325.4,909.4,325.4,909.6,325.6z"/>
			</g>
			<path class="st0" d="M926.2,346.7C926.2,346.7,926.2,346.7,926.2,346.7c0,0,0.1,0.1,0.1,0.1C926.3,346.8,926.2,346.7,926.2,346.7
				z"/>
			<path class="st0" d="M943,352.9c-1.2-0.5-1.7-1.6-1.4-2.8c0.2-0.9,0.6-1.7,0.9-2.5c0-0.1,0.1-0.3,0.1-0.4c-0.2,0-0.3-0.1-0.5,0
				c-0.8,0.3-1.6,0.2-2.4,0.1c-1.5-0.2-2.4-1.5-2.2-2.9c0.1-0.5,0.2-0.9,0.4-1.3c0-0.1,0-0.3,0-0.5c-0.1,0.1-0.3,0.1-0.4,0.2
				c-0.6,0.6-1.2,1-2,1.1c-1.7,0.3-3.5,0.4-5.1-0.5c-0.5-0.3-1.1-0.5-1.6-0.8l-1.9-0.8l-0.2-0.1l-0.3,0.8c0,0-0.1,0.4-0.1,0.5
				c0,0,0.1,0.2,0.2,0.2c0,0.1,0.1,0.1,0.1,0.1c0.3,0.3,0.6,0.6,0.9,0.9c0.1,0.1,0.2,0.2,0.3,0.3c1.5,1.8,2.5,3.7,1.5,6.2
				c-0.1,0.1-0.1,0.3,0,0.4c0.1,0.1,0.3,0.1,0.4,0c2-0.5,4,1.6,3.2,3.6c-0.1,0.3-0.3,0.7-0.4,1c-0.1,0.2,0,0.3-0.1,0.5
				c0.2,0,0.4,0,0.5-0.1c0.8-0.6,1.7-0.7,2.6-0.5c1.2,0.3,1.9,1.1,1.8,2.3c0,0,0,0.1,0,0.1c0,0.2,0.1,0.3,0.1,0.5
				c0.2-0.1,0.4-0.1,0.5-0.2c0.3-0.3,0.7-0.4,1.1-0.3c1.1,0.2,2,0.6,2.8,1.3c0.2,0.2,0.4,0.4,0.7,0.6c0.1,0.1,0.3,0.1,0.4,0.1
				c0-0.1,0-0.3-0.1-0.4c-0.1-0.3-0.4-0.5-0.4-0.7c-0.1-0.8-0.2-1.6-0.2-2.3c0.1-0.9,0.3-1.8,1-2.3C943.9,353.6,944,353.4,943,352.9
				z M942.5,353.3c-1.2-0.4-2.7-0.5-3.9-1.1c0.9,1.4,1.6,2.8,2.2,4.4c0,0.1-0.1,0.1-0.1,0.1c-0.6-1.4-1.3-2.6-2.1-3.9
				c0.3,1.1,0.1,2.2-0.2,3.4c0,0,0,0,0,0c0.1-2,0.2-3.6-1.2-5.2c-0.9-1.1-1.9-2.1-3-3.1c-0.3-0.2-0.6-0.4-0.9-0.6
				c1.4,1.7,2.2,3.8,1.3,6c0,0-0.1,0-0.1,0c0.5-2.9-1-5.3-3-7.2c-0.3-0.2-0.6-0.4-0.9-0.5c0.8,1,1.1,2.3,0.5,3.6c0,0,0,0,0,0
				c0.3-1.8-0.4-3.5-2.1-4.3c-0.2-0.1-0.2-0.4,0-0.5c0-0.1,0.1-0.1,0.2-0.1c0,0,0.1,0,0.1,0c0,0,0.1,0,0.1,0c0.1,0,0.1,0,0.2,0
				c1,0.1,2.1,0.8,3.1,1.1c1.2,0.3,2.4,0.3,3.4-0.5c0,0,0,0,0,0c-0.6,0.8-1.6,1.1-2.6,1.1c-0.3,0-0.6,0-0.9-0.1
				c0.6,0.4,1.1,0.9,1.7,1.3c2,1.3,4.1,1.8,6.3,1c0,0,0.1,0,0,0.1c-1.6,0.9-3.4,0.9-5.1,0.3c0.2,0.2,0.3,0.3,0.5,0.5
				c0.2,0.2,0.5,0.5,0.7,0.8c0.3,0.4,0.6,0.8,0.9,1.2c0.9,0.7,1.7,1.1,2.7,1.4C941.2,352.7,942,352.8,942.5,353.3
				C942.5,353.3,942.5,353.3,942.5,353.3z"/>
		</g>
		<path class="st0" d="M756.2,367.9c-0.4-0.3-3.7-4.3-3.5-4.4c-4.8,1.2-10.1-2.3-10.7-7.1c-2.4,1.5-5.3,0.8-7.7-0.7
			c0.7-0.4,1.5-0.7,2.2-1.1c2.3,0.9,4.6,1.5,7,1.9c-0.1,0.3-0.1,0.7,0.1,1c0.2,0.3,0.5,0.6,0.8,0.8c0.6,0.3,1.3,0.6,1.9,0.4
			c1.3-0.3,2-2,1.2-3.2c-0.2-0.2-0.4-0.4-0.6-0.6c0.7-0.1,1.4-0.2,2.1-0.3c0.3,1,1.4,1.5,2.4,1.4c0.3,0,0.6-0.1,0.9-0.3
			c0.3-0.3,0.5-0.7,0.6-1.1c0.4-1.4-0.3-3.1-1.9-3.2c-0.4,0-0.7,0.1-1,0.2c-0.8,0.5-1.2,1.5-1.1,2.4c-1,0.1-1.9,0.3-2.9,0.4
			c0,0-0.1,0-0.1,0c-0.4-0.1-0.8-0.1-1.2,0.1c-0.5,0-0.9,0-1.4,0c-1.9-0.1-3.8-0.3-5.7-0.6c0.8-0.5,1.7-1,2.5-1.5
			c0.9-0.3,1.9-0.5,2.9-0.6c0,0.3,0,0.5,0.1,0.8c0.2,0.4,0.5,0.6,0.9,0.9c0.7,0.4,1.5,0.6,2.2,0.5c1.5-0.3,2.3-2.3,1.4-3.6
			c-0.4-0.7-1.1-1.1-1.9-1.2c-0.3-0.1-0.6-0.1-0.9,0c0.7-0.6,1.4-1.2,2.2-1.8c3-0.3,7.3,0.2,8.3,0.7c0.2,0.1,0.3,0.2,0.5,0.2
			c0.5,0,0.5-0.7,0.6-1.2c0.1-1.4,1.4-2.4,2.8-2.6c1.4-0.2,2.8,0.1,4.1,0.5c-0.3-1.3,0.1-2.8,1.1-3.8c1-1,2.5-1.4,3.9-1
			c0-0.3-0.1-0.6,0-0.9c0.1-3.6,3.2-5.4,4.2-8.5c-1.7-0.1-3.2,1.1-4.9,1.4c-0.4,0.1-4.8,0.1-4.8-0.1c-1.8,3.6-6.8,5.1-10.4,3
			c-0.4,3-3.8,4.6-6.9,4.9c1.4-0.1-0.6,6-1.3,7.9c-3.3,2.6-6.8,4.9-10.5,6.7c0,0,0,0,0,0c0,0,0,0-0.1,0c-0.2,0.1-0.3,0.2-0.5,0.2
			c0,0,0,0,0,0c-0.9,0.4-2.5,1.1-4.2,1.8l0,0c-0.2,0.1-0.4,0.2-0.7,0.3c1.5-1.6,2.8-3.4,3.7-5.3c0-0.1,0.1-0.1,0.2-0.2
			c1.1-1.5,5-6.3,7.2-4.4c-0.7-1.8-1.2-3.7-0.7-5.6c0.5-1.9,1.7-3,3.6-3.4c-1.1-2.1-2.5-3.8-2.9-6.2c-0.2-1,0.4-3.8,1.9-3.9
			c-3.8-1.8-4.5-5.2-5.1-9c-1,1.6-4.3,8.2-6,7.7c0.9,1.7,1.8,3.1,1.5,5.3c-0.1,0.4-1.4,3.3-2.5,2.6c1.3,1.7,4.5,6.4,1.2,7.4
			c1.1,2.6,1.1,5.1,0.3,7.8c-0.1,0.5-0.4,1-0.2,1.5c0.1,0.2,0.2,0.4,0.3,0.5c-1.2,2.3-2.8,4.3-4.8,6c0,0,0,0,0,0
			c-0.1,0-0.2,0.1-0.3,0.1c0,0,0,0-0.1,0c-0.4,0.1-0.8,0.3-1.1,0.4c0,0-0.1,0-0.1,0c0,0,0,0-0.1,0c-0.8,0.2-7.6,1.8-12.7,2.4
			c-1.2,0.1-2.2,0.2-3.1,0.2l1.8,1.6c0,0,0.5,0,1.4-0.1c2.3-0.2,7-0.9,12.8-2.6c2.7,1.9,6.8,7.8,7.1,9.4c0,0.2,0.1,0.4,0.2,0.6
			c0.4,0.4,1.1-0.1,1.6-0.4c1.4-0.9,3.4-0.5,4.6,0.5c1.2,1.1,1.9,2.6,2.6,4.1c1.1-1.3,2.9-2.1,4.5-1.9c1.7,0.2,3.2,1.2,3.9,2.7
			c0.3-0.3,0.6-0.5,0.9-0.7c3.6-2.7,7.7-1.2,11.5-2.7C760.1,369.6,757.8,369.1,756.2,367.9z M743.4,355c0.2,0,0.4,0,0.6,0
			c-0.2,0.3-0.3,0.6-0.4,0.9c-2-0.3-4-0.8-5.9-1.4C739.7,354.7,741.6,355,743.4,355z M746.6,344.7c4.7-4.4,12-3.9,16.8-8.1
			c0.4-0.3,0.9,0.3,0.5,0.6c-4.4,3.9-11,3.8-15.7,7.2c-0.1,0-0.2,0-0.3,0.1c-0.3,0.3-0.6,0.6-0.9,0.8
			C746.7,345.6,746.3,345.1,746.6,344.7z M743.5,350.1c-0.1,0.3-0.2,0.5-0.3,0.8c0,0.1-0.1,0.3-0.1,0.4c-0.5,0-1.1,0.1-1.6,0.2
			C742.2,351.1,742.9,350.6,743.5,350.1z M732.9,347c2.4-5,1.5-10.9,2-16.3c0-0.5,0.8-0.5,0.8,0c-0.5,5.2,0.4,10.8-1.7,15.6
			c-0.1,0.1-0.2,0.2-0.2,0.3c0,0.1,0,0.2-0.1,0.3c-0.1,0.1-0.1,0.2-0.2,0.3C733.4,347.7,732.7,347.4,732.9,347z M750.9,368.4
			c-2.8,0.7-6.1-1.6-8.4-3c-1.6-1-3.2-2-4.8-3.1c-1.5-0.9-2.9-1.8-4.7-2c-1.3-0.2-2.6-0.2-3.9-0.4c-0.5-0.1-0.4-0.9,0.1-0.8
			c2.2,0.4,4.4,0.3,6.5,1.2c2,0.9,3.7,2.3,5.6,3.4c2.5,1.5,6.4,4.7,9.4,3.9C751.3,367.5,751.4,368.3,750.9,368.4z"/>
	</g>
	<g>
		<g>
			<g>
				<path class="st0" d="M862.5,606.6c-9.2-9.8-23.5-12.5-36.4-10.6c-4.8,0.7-9.6,1.8-14.1,3.5c-4.3,1.5-8,4.4-11.5,7.2
					c-2.9,2.3-6.3,4.9-10.2,4.8c-2.1-0.1-4.4-1-5.3-3c-0.8-1.9-0.3-3.4,1.5-4.7c1.3-0.6,3.1-0.7,3.9,0.7c0.3,0.5,0.2,1.2-0.2,1.5
					c-0.3,0.2-0.7,0.2-1,0c-0.3-0.2-0.5-0.5-0.4-0.8c-0.5,0.7-0.8,1.6-0.7,2.4c0.1,0.9,0.6,1.7,1.4,2c0.3,0.1,0.7,0.2,1.1,0.2
					c1.9,0.2,4.7-0.4,5.2-2.5c0.5-2,0-4.3-1.6-5.7c-3-2.6-8-2.7-10.7-0.1c-1.6,1.3-2.7,3.3-2.5,5.9c0.4,6.6,8,8.9,13.5,7.2
					c0.7-0.2,1.4-0.5,2.1-0.8c-1.1,2.5-1.9,5.3-2.2,8.3c-1,9.9,3.7,19.3,11.6,23.9c7.4,4.3,18.2,4.3,24.1-3.1c1.8-2.2,2.8-5,3.7-7.6
					c0.9-2.7,0.7-6.1-0.2-8.9c-1.3-3.8-5.5-6.2-9.4-5.8c-1.1,0.1-2.3,0.4-3.2,1.1c-0.9,0.7-1.5,1.8-1.4,2.9c0.1,1.1,1,2.2,2.1,2.3
					c-0.3-0.3-0.2-0.8,0.1-1.1c0.3-0.3,0.7-0.4,1.2-0.4c2,0,4.7,2.3,3.3,4.3c-0.4,0.5-1,0.9-1.7,0.9c-0.1,0-0.3,0-0.4-0.1
					c-0.1-0.1-0.1-0.1-0.2-0.2c-1.4-1.8-4.3-2.5-6.3-1.3c-0.8,0.5-1.6,1.1-2.1,1.9c-1,1.5-1,3.5-0.3,5.1c0.3,0.6,0.6,1.1,1.2,1.4
					c0.6,0.2,1.4-0.2,1.4-0.8c-0.4,0-0.7-0.3-0.9-0.7c-0.2-0.5-0.1-1.2,0.3-1.6c0.6-0.7,1.4-0.5,2.1,0c3.1,2.4,1.8,7-1.7,7.9
					c-8.7,2.3-16.2-3.9-18.3-12.1c-2.3-9.2,1.9-18.9,9.5-23.5c7.5-4.6,17.2-6.1,25.6-6.1c16.1,0,29.8,9,33.4,26.6
					c3,14.6-0.9,30.4-10.6,41.3c-2.8,3.1-5.7,5.7-8.8,8c0.2-0.3,0.4-0.7,0.6-1c1.2-2.3,2.1-4.7,3.6-7c1.3-1.9,2.2-2.9,4.4-2.9
					c0.4,0,0.7,0.2,0.9-0.2c0.1-0.4-0.1-0.5-0.3-0.8c-1-2-1.6-4.2-1.8-6.3c-0.1-2.1,0.4-3.1,1.5-4.7c-2-1.2-3.8-2.6-5.4-4.4
					c-1.6-1.8-2.7-3.7-3-6.1c0-0.2,0-0.4-0.2-0.6c-0.2-0.2-0.4-0.2-0.7-0.2c-1.2,0.2-2.1,0.6-3.3,0.6c-1.3,0-2.4-0.3-3.4-1.2
					c-0.8-0.7-1.5-1.8-2.1-2.7c-0.2,0.3,0,0.7,0.1,1.1c0.7,2.2,1.8,4.6,1.9,6.8c0.1,2.2-1,2.8-2.8,3.3c0.8,1.2,1.8,2.8,2.2,4.2
					c0.3,1.4,0.1,2.3-1.1,3c1.8,0.8,3.4,1.6,4,3.8c0.6,2.2-0.3,4.5-1.3,6.5c0.4-0.1,0.9,0.1,1.3,0.2c1.9,0.4,2.9,0.1,3.3,2.5
					c0.9,5.6-4.1,9-8.4,11.8c-16.9,7.4-36.7,5.9-54.4-0.5c0.6,0,1.4,0.2,1.8,0.2c1.2,0,2.2,0.1,3.4,0c2.2-0.1,4.3-0.2,6.5-0.3
					c3-0.2,6-1,9-1.7c0.3-0.1,0.5-0.1,0.8,0c0.3,0.7,0.6,1.3,1.1,1.9c2.4,2.3,5.7,2.7,8.3,0.4c2.5-2.3,2.7-5.7,0.5-8.2
					c-2.2-2.5-5.6-2.6-8.2-0.5c-1.5,1.2-2,3-2,4.9c-0.1,0.2-0.3,0.3-0.4,0.4c-0.7,0.3-1.4,0.5-2.1,0.6c-3.8,0.7-7.2,1.3-11.1,1.3
					c-3.1,0-6.4,0.5-9.5-0.5c2.7-0.5,5.4-0.8,8-1.8c2.9-1.1,5.2-2.9,7.3-5.1c0.1-0.1,0.2-0.3,0.4-0.3c0.2-0.1,0.4,0,0.6,0.1
					c2.5,0.6,5.1-0.2,6.2-2.6c1.1-2.4,0.2-5.1-2-6.4c-2.2-1.3-5-0.7-6.5,1.4c-1.5,2.1-1,4.8,0.8,6.7c-2.2,2.3-4.3,4.1-7.3,5.2
					c-3,1.2-6.3,1.8-9.6,1.9c-0.7,0-1.5-0.1-2.2-0.2c-5.6-2.5-10.8-5.4-15.6-8.7c-15.3-10.6-28.5-24.2-42.8-36.2
					c-10.2-8.6-20.9-16.6-32.1-23.4c3.6,0.6,7.1,1.2,10.7,1.6c7.8,0.9,13.9,5.1,19.3,10.3c2.4,2.3,3.7,5.4,4.4,8.7
					c0.1,0.6,0.7,1,1.1,1.5c0.4-0.5,0.9-1,1.1-1.6c0.7-1.8,1-3.8,1.8-5.6c2.5-5.3,8.7-8.1,14.6-5.2c3.1,1.5,6.1,3.1,8.3,5.9
					c0.4,0.5,1.1,0.6,1.7,0.9c0.2-0.6,0.5-1.1,0.6-1.7c0.8-3.7,1.2-7.6,2.5-11.1c1.8-4.7,6.3-7.6,11.5-6.6c4.6,0.9,4.7-0.5,3.6-4
					c-1.1-3.6,0-7.4,1.7-10.7c1.5-2.9,3.8-5.3,6-7.8c0.7-0.8,2.1-1.1,3.1-1.7c0.5-0.3,0.9-0.9,1.3-1.3c-0.6-0.2-1.2-0.7-1.8-0.7
					c-1.3,0.1-2.6,0.4-4,0.6c-4.5,0.6-8.9,0-13-1.9c-1.4-0.6-2.3-1.5-3-2.8c-0.1-0.3-0.3-0.6-0.4-0.9c-0.2-0.6-0.9-1.1-1.3-1.7
					c-0.5,0.5-1.1,0.9-1.6,1.4c-0.1,0.1-0.1,0.2-0.2,0.3c-0.2,0.3-0.3,0.6-0.5,0.9c-2.6,4-6.5,4.7-11.1,3.3
					c-2.2-0.7-4.1-1.7-5.6-3.3c-1.2-1.2-2.1-2.7-2.7-4.5c-0.2-0.7-1-1.1-1.5-1.7c-0.3,0.6-0.8,1.2-0.9,1.9c-0.3,1.4-0.4,2.8-0.7,4.3
					c0,0.1,0,0.2,0,0.2c-1.8,8.7-13.8,11.5-19.8,5.1c-0.4-0.4-1.1-0.9-1.5-0.8c-0.4,0.1-0.8,0.9-0.9,1.4c-1.9,11-9.9,15.7-19.5,18.4
					c-5.7,1.6-11.6,2.6-17.5,1c-0.1,0-0.2,0-0.3-0.1c-16.5-7.9-34.3-12.4-52.5-11.7c-11.6,0.5-24.6,2.8-35.6,8.7
					c-4.7,2.5-9.1,5.7-12.9,9.7c-0.9,0.9-0.1,2.7,1.1,2c3-1.7,6.1-3.5,9.1-5.1c5.5-3,11.1-5.6,17.1-7.3c9-2.6,18.2-3.7,27.5-3.4
					c9.7,0.3,19.1,2.1,28.3,5c1.5,0.9,3.7,1.4,4.4,1.8c0.4,0.2,0.9,0.4,1.4,0.6c-0.5,4.8,2.1,8.5,4.3,12.5c1,1.8,2.5,3.3,3.8,4.9
					c0.4,0.5,0.7,1.1,0.8,1.7c0.6,2.3,0.5,4.8-0.5,7c-1,2.4-3.3,3.8-4.5,6.1c-0.1,0.2-0.2,0.5-0.2,0.8c0.1,0.5,0.7,0.6,1.2,0.6
					c1.5,0,3.1-0.4,4.6-0.5c2.2-0.1,4,0.6,5.7,1.9c0.7,0.5,1.2,1.6,1.4,2.5c0.8,3.9-0.5,7.8-3.3,10.5c-0.4,0.4-0.6,1.1-0.8,1.7
					c0.6,0,1.2,0.2,1.8,0c5.3-1.7,9.9,2.2,10.9,6.9c0.6,2.9,0.6,6.1-0.9,8.9c-0.7,1.2-1.7,2.2-2.6,3.4c-0.3,0.4-0.5,0.9-0.7,1.3
					c0.5,0,1.2,0.3,1.6,0.1c4.9-2.5,8-6.5,9.3-11.9c0.6-2.5,1.5-4.8,4.1-6.1c0.9-0.4,0.8-1.2,0.3-2c-1-1.9-2-3.8-2.9-5.7
					c-1.2-2.8-1.3-5.8,0-8.6c0.4-0.9,1.3-1.5,1.9-2.3c0.4-0.5,0.7-1,1.1-1.6c-0.5-0.3-1-0.7-1.6-0.8c-5.6-1-8.4-6.3-10.4-11.1
					c-0.3-0.6-0.5-1.2-0.6-1.9c-0.1-1.2,0.5-2.5,0.3-3.7c-1.7-0.4-3.7,0.8-5.5,0.9c-1.8,0.1-3.6-0.2-5.3-0.9c-2.8-1.2-5.4-3-7.3-5.3
					c-1.8-2.2-2.3-5.2-3.1-7.9c2,0.8,4,1.5,6,2.2c4.6,2.1,9.1,4.5,13.5,7.1c18.3,10.7,34.6,24.8,50.5,39.1
					c15.1,13.5,30.6,26.7,49.3,33.6c1.6,2.7,1.2,5.5,1.6,8.5c0.4,3.5,1.5,6.6,2,10.2c0.7,4.7-0.8,8.4-4.5,11.6
					c-0.4,0.3-0.7,0.8-1,1.2c0.5,0.1,1,0.2,1.5,0.2c1-0.1,2-0.4,3-0.5c2.7-0.1,4.5,0.6,5.9,3c1.2,2.1,1.3,4.3,1,6.6
					c-0.1,1.5-0.5,2.9-0.9,4.4c-0.3,1.1-0.6,2.4-1.2,3.5c-0.3,0.5-0.7,0.9-0.9,1.4c0.2,0.2,0.5,0.4,0.8,0.2
					c5.6-2.6,11.8-0.8,15.6,3.7c1.5,1.8,2.3,3.4,3.2,5.4c0.1,0.2,0.1,0.4,0.3,0.6c0.2,0.1,0.5,0.3,0.7,0.2c0.2-0.1,0.3-0.4,0.3-0.6
					c-0.1-3.6,0-7,0.6-10.6c0.4-2.6,1.3-4.5,3.6-6c0.7-0.5,1.5-0.6,2.4-0.9c0.8-0.3,1.2-0.7,0.5-1.5c-2.6-3.4-3.9-6.9-4.4-11.1
					c-0.3-2.9,1.3-4.6,3.1-6.6c0.1-0.1,0.3-0.2,0.4-0.4c0.7-0.8,0.7-1.2-0.4-1.7c-3.1-1.6-6.1-2.8-8.9-5.2
					c-3.2-2.7-5.9-6.4-5.4-10.9c13,1.7,26.4,0.3,38.7-5.2c14.1-6.3,26-18.3,30.4-34.5c0.1-0.5,0.3-1.1,0.4-1.6
					c0.1-0.5,0.2-1,0.3-1.5C874.9,633.7,872.3,617.2,862.5,606.6z M669.7,617.6c0.1,0,0.3,0,0.4,0.1c0.2,0.2,0.4,0.4,0.6,0.6
					c0.1-0.1,0.3-0.1,0.5,0.1c2.7,3.6,5.6,4.7,10.1,4.3c0,0,0,0,0,0c-2.1,1.1-4.7,0.9-6.8-0.1c1,1.5,1.9,3,2.8,4.5
					c0.6,1.1,1.2,2.1,1.9,3.2c1.4,1.5,2.7,2.9,4.6,4.1c2.5,1.5,5.2,2.2,7.8,3.4c0,0,0,0.1,0,0.1c-3.7-0.6-7.6-2.1-10.6-4.5
					c1.3,2.3,2.5,4.6,3.6,7c0.2,0.5,0.4,1,0.6,1.4c0,0,0.1,0.1,0.1,0.1c2.5,4.3,5,8.2,8.7,11.6c0,0,0,0.1-0.1,0.1
					c-2.7-2.2-5.3-4.8-7.2-7.8c2.1,6.1,3.3,12.5,2.3,18.9c0,0,0,0,0,0c0.7-8.6-1.6-16.8-5.4-24.5c-1.1-2.2-2.2-4.5-3.5-6.8
					c1.6,5.4,1.6,11.5-0.3,16.2c0,0.1-0.1,0-0.1,0c1.1-4.8,1.2-9.6-0.1-14.4c-1.2-4.3-3.4-7.4-6.1-10.7c0,0.3,0.1,0.6,0.1,0.9
					c0.2,3-1.1,5.2-3,7.4c-0.1,0.1-0.2,0-0.2-0.1c1.5-2.7,2.4-5.1,1.6-8.2c-0.5-2.1-2-3.9-2.4-6c0,0-0.1-0.1-0.1-0.1
					C669,618.1,669.3,617.6,669.7,617.6z M696.8,604.7c7.7,1.2,14.3-3.5,17.3-10.5c0-0.1,0.2,0,0.1,0.1c-1,5.9-5.1,10-10.3,11.7
					c1.5,0.1,3,0.2,4.4,0.2c11.5-2.2,22.1-7,27.1-18.6c0.1-0.2,0.3,0,0.3,0.1c-1.8,9.7-9.7,15.1-18.5,18.1c1.5-0.1,3-0.2,4.5-0.2
					c5.9-1.1,11.9-2.2,17.6-4c8.5-2.6,11.9-8.6,16.2-15.8c0,0,0.1,0,0.1,0c-1.4,4.9-3.6,9.3-7,12.5c5.7-2.5,11.2-5.5,16.4-8.9
					c0.3-0.2,0.6,0.3,0.3,0.5c-5.6,4.1-11.6,7.6-18,10.4c5.6,0.5,11.3,3.7,16.4,5c0,0,0,0.1,0,0.1c-2.9,0.5-5.8-0.8-8.6-1.6
					c-4.5-1.2-8.4-1.8-13-1.4c-1.9,0.8-3.9,1.4-6,2c-1.4,0.4-2.7,0.8-4.1,1.1c-1,0.2-1.9,0.5-2.9,0.7c7.4,1.5,13.9,6.1,17.4,12.8
					c0.1,0.1-0.1,0.3-0.2,0.2c-6.4-8-14.9-11.2-24.9-11c-2.9,0.1-6,0.4-9.1,0.6c1.2,0.5,2.3,1.1,3.4,1.8c3.5,2.4,6.1,5.7,6.5,10
					c0,0.1-0.2,0.1-0.2,0c-1.7-5-5.9-8.1-10.8-9.6c-4.2-1.4-9.6-1.2-13.5-3.3c-0.3-0.1-0.5-0.2-0.8-0.3c-0.2-0.1-0.3-0.2-0.5-0.3
					c-0.1,0-0.2,0-0.3-0.1c-0.3-0.1-0.5-0.4-0.4-0.7C695.3,605.8,695.8,604.5,696.8,604.7z M800.3,693.7c-1.3,2.1-2.9,2.6-5.3,2.4
					c-0.5,0-1.1-0.2-1.6-0.4c0.5,0.5,1,1,1.4,1.5c1.6,1.8,3.1,3.6,4.8,5.3c1.8,1.7,3.8,3.3,6.1,4.2c2.3,0.9,4.6,1.3,7,1.8
					c0,0,0,0.1,0,0c-5-0.2-9.5-0.8-13.6-3.9c-0.3-0.2-0.6-0.5-0.9-0.7c1.1,1.7,1.9,3.6,3,5.4c0.9,1.5,1.9,3,3,4.5
					c2.8,4.2,5.9,8.1,9.6,11.6c0,0,0,0.1-0.1,0.1c-2-1.3-3.9-2.7-5.6-4.4c-1.4-1.4-2.7-2.9-3.9-4.5c2.3,7,3.5,13.8,2.7,21.2
					c0,0-0.1,0-0.1,0c-0.1-4-0.2-7.7-0.9-11.7c-0.8-3.9-2.1-7.8-3.6-11.5c0,0,0,0,0,0c1.2,7-1.7,12.1-6.2,17.3c0,0-0.1,0,0,0
					c4.4-6.1,7.3-11.8,4.6-19.3c-1-2.6-2.9-4.7-4-7.2c-1.2,3.6-3.5,6.2-6.3,8.7c-0.1,0-0.1,0-0.1-0.1c1.5-1.9,3.3-3.8,4.3-6
					c0.8-1.7,0.9-3.2,0.8-5c0-0.5-0.3-0.9-0.6-1.3c-0.9-1.4-1.9-2.5-3-3.9c-1.1-1.4-2.4-2.9-3.5-4.3c0,0-0.1-0.1-0.2-0.1
					c-0.4-0.2-0.5-0.5-0.5-0.9c-0.1-1,0.8-1.1,1.6-0.7c0.2,0.1,0.4,0.4,0.7,0.6c1.1,0.6,2.2,1.3,3.4,1.9c0.7,0.3,1.5,0.6,2.2,0.8
					C797.6,695.4,798.9,694.9,800.3,693.7C800.3,693.6,800.3,693.6,800.3,693.7z M848,672.3c0-0.5,0.1-1,0.2-1.4c0,0,0,0,0-0.1
					c0,0,0.1-0.1,0.1-0.2c0.1-1.1,0.5-2.5,0.2-3.5c-0.4-1.6-1.3-2-2.8-2.5c0,0-0.1-0.1,0-0.1c1.3-0.4,2.4-0.2,3.3,0.9
					c0.2,0.3,0.4,0.8,0.5,1.1c0.2-0.9,0.4-1.9,0.4-2.8c0.1-0.5,0.1-1-0.1-1.4c-0.6-1.2-1.1-2.1-2-2.9c-0.9-0.9-2.2-1.3-3.4-1.7
					c0,0-0.1-0.1,0-0.1c1.5,0.2,2.7,0.6,3.9,1.5c0.4,0.3,0.9,0.9,1.2,1.3c-0.3-1.2-0.5-2.5-0.9-3.7c-0.1-0.4-0.2-0.8-0.4-1.2
					c-0.3-0.5-0.8-0.9-1.2-1.3c-0.4-0.5-1.1-0.9-1.6-1.2c-0.5-0.3-1.2-0.7-1.8-0.9c-0.6-0.2-1-0.3-1.5-0.4c-0.1,0-0.1-0.1,0-0.1
					c1.3-0.1,2.2,0.3,3.4,1c0.8,0.4,1.6,1,2.3,1.6c-0.3-0.7-0.6-1.4-0.9-2.1c0,0,0-0.1,0-0.1c-0.4-0.7-0.6-1.3-1-1.9
					c-1.2-1.9-2.6-3.7-3.5-5.8c0,0,0,0,0,0c1.2,2.1,2.7,4.1,4,6.1c-0.1-1.9,0.2-3.5,0.8-5.3c0,0,0.1,0,0.1,0
					c-0.2,1.3-0.6,2.5-0.6,3.8c0,1.1,0.2,2,0.6,3c0.7,1.7,1.5,3.5,2.1,5.4c0.4,1.2,0.7,2.5,1,3.7c0.2-0.7,0.4-1.4,0.7-2.1
					c0.7-1.6,1.6-3.1,2.6-4.5c0,0,0.1,0,0.1,0.1c-0.7,1.7-1.5,3.2-2.1,5c-0.3,0.8-0.4,1.6-0.6,2.5c-0.1,0.6-0.1,1.4-0.3,2
					c0,0.1,0,0.3,0,0.4c-0.1,0.8-0.2,1.6-0.3,2.3c0.2-0.3,0.5-0.8,0.8-1.1c1-1.1,2-1.6,3.3-2.2c0,0,0.1,0,0,0.1
					c-1.2,1.1-2.2,1.8-3.2,3.4c-0.4,0.6-1.1,2-1.5,2.8c-0.2,0.5-0.3,1.3-0.5,1.7c-0.2,0.4-0.1,0.4-0.3,0.6c-0.2,0.2-0.2,0.4-0.4,0.6
					C848.5,672.9,848,672.8,848,672.3z"/>
			</g>
			<path class="st0" d="M870.5,644.9c-0.1,0.1-0.1,0.1-0.2,0.1c0,0,0,0,0.1,0C870.5,645,870.5,644.9,870.5,644.9z"/>
			<path class="st0" d="M892.7,635.2c-0.9-0.7-1.3-1.9-1.4-3c-0.1-1,0.1-2,0.2-3c0-0.3,0.4-0.6,0.5-1c0.1-0.2,0.1-0.4,0.1-0.6
				c-0.2,0-0.4,0-0.6,0.1c-0.3,0.2-0.6,0.5-0.9,0.8c-1.1,0.9-2.3,1.5-3.7,1.7c-0.6,0.1-1,0-1.5-0.4c-0.2-0.1-0.4-0.2-0.6-0.2
				c-0.1,0.2-0.1,0.4-0.2,0.6c0,0,0,0.1,0,0.1c0.1,1.7-0.8,2.6-2.3,3c-1.2,0.4-2.4,0.2-3.4-0.6c-0.2-0.1-0.4-0.1-0.7-0.2
				c0,0.2,0,0.5,0.1,0.7c0.2,0.4,0.4,0.8,0.6,1.3c1,2.6-1.6,5.3-4.2,4.7c-0.2,0-0.4-0.1-0.5,0c-0.1,0.1-0.1,0.4,0,0.5
				c1.4,3.2,0.1,5.7-1.9,8.1c-0.1,0.1-0.2,0.2-0.3,0.4c-0.4,0.4-0.8,0.8-1.2,1.1c0,0-0.1,0.1-0.1,0.2c-0.1,0.1-0.2,0.3-0.2,0.3
				c0,0.1,0.1,0.7,0.1,0.7l0.3,1.1l0.3-0.1l2.5-1.1c0.7-0.3,1.5-0.6,2.2-1c2.2-1.1,4.4-1,6.7-0.6c1,0.2,1.9,0.8,2.6,1.5
				c0.1,0.1,0.4,0.1,0.6,0.2c0-0.2,0.1-0.4,0-0.6c-0.1-0.6-0.4-1.2-0.5-1.7c-0.3-1.8,0.9-3.6,2.9-3.8c1.1-0.1,2.1-0.2,3.1,0.1
				c0.2,0.1,0.4,0,0.6-0.1c0-0.2-0.1-0.4-0.1-0.5c-0.4-1.1-1-2.2-1.2-3.3c-0.3-1.5,0.3-3,1.9-3.7
				C893.7,636.3,893.5,635.9,892.7,635.2z M891.7,636.3c-0.7,0.6-1.6,0.8-2.5,1c-1.4,0.4-2.5,0.9-3.6,1.8c-0.4,0.5-0.8,1-1.2,1.5
				c-0.3,0.3-0.6,0.7-0.9,1c-0.2,0.2-0.4,0.4-0.6,0.7c2.2-0.9,4.6-0.8,6.7,0.4c0,0,0,0.1,0,0.1c-3-1-5.7-0.4-8.3,1.4
				c-0.7,0.5-1.5,1.1-2.2,1.7c0.4-0.1,0.8-0.1,1.2-0.1c1.3,0,2.5,0.4,3.4,1.5c0,0,0,0.1,0,0c-1.3-1-2.9-1.1-4.4-0.7
				c-1.3,0.4-2.7,1.3-4,1.4c-0.1,0-0.2,0-0.2,0.1c-0.1,0-0.1,0-0.2,0c0,0-0.1,0-0.1,0c-0.1,0-0.2,0-0.2-0.1c-0.2-0.1-0.3-0.5,0-0.6
				c2.2-1,3.1-3.3,2.7-5.6c0,0,0,0,0,0c0.8,1.7,0.4,3.4-0.7,4.7c0.4-0.2,0.8-0.5,1.2-0.7c2.6-2.5,4.5-5.5,3.9-9.4
				c0-0.1,0.1-0.1,0.1,0c1.2,2.8,0,5.5-1.7,7.8c0.4-0.3,0.8-0.6,1.1-0.8c1.3-1.3,2.7-2.6,3.9-4c1.7-2.1,1.6-4.2,1.5-6.8c0,0,0,0,0,0
				c0.4,1.5,0.6,3,0.3,4.4c1.1-1.6,2-3.3,2.7-5.1c0-0.1,0.2,0,0.2,0.1c-0.7,2-1.7,3.9-2.9,5.7C888.1,637,890.1,636.8,891.7,636.3
				C891.7,636.3,891.7,636.3,891.7,636.3z"/>
		</g>
		<path class="st0" d="M656.6,614.4c-6-2.3-12.4-0.1-17.9-4.3c-0.5-0.3-0.9-0.7-1.3-1.2c-1.1,2.3-3.4,4-6,4.2
			c-2.6,0.3-5.4-0.9-7.1-3c-1,2.3-2.1,4.7-4,6.4c-1.9,1.7-5,2.3-7.2,0.8c-0.8-0.5-1.9-1.3-2.5-0.6c-0.2,0.2-0.3,0.6-0.3,0.9
			c-0.5,2.6-6.7,11.8-11,14.7c-9-2.8-16.4-3.8-20-4.1c-1.4-0.1-2.2-0.2-2.2-0.2l-2.9,2.4c1.4,0,3.1,0.1,4.9,0.3
			c8,0.9,18.6,3.4,19.8,3.7c0.1,0,0.1,0,0.1,0c0,0,0.1,0,0.2,0c0.5,0.1,1.1,0.3,1.8,0.6c0,0,0.1,0,0.1,0c0.2,0.1,0.4,0.1,0.5,0.2
			c0,0,0,0,0,0c3.1,2.6,5.6,5.8,7.5,9.4c-0.2,0.2-0.4,0.5-0.5,0.8c-0.2,0.8,0.1,1.5,0.3,2.3c1.2,4.2,1.3,8-0.4,12.1
			c5.1,1.6,0.1,8.9-1.9,11.5c1.7-1,3.8,3.4,3.9,4.1c0.5,3.4-0.9,5.6-2.3,8.2c2.5-0.8,7.8,9.6,9.3,12c0.9-5.9,2-11.2,7.9-14
			c-2.3-0.1-3.2-4.5-3-6.1c0.6-3.8,2.9-6.5,4.6-9.7c-3-0.6-4.9-2.3-5.7-5.2c-0.8-3-0.1-5.9,1-8.7c-3.5,3-9.5-4.4-11.3-6.8
			c-0.1-0.2-0.2-0.3-0.3-0.4c-1.5-3-3.4-5.9-5.8-8.3c0.3,0.1,0.7,0.3,1,0.4l0,0c2.7,1.1,5.3,2.2,6.6,2.8c0,0,0,0,0,0
			c0.3,0.1,0.5,0.2,0.8,0.4c0,0,0.1,0,0.1,0.1c0,0,0.1,0,0.1,0c5.8,2.9,11.3,6.4,16.4,10.5c1,3,4.1,12.5,2,12.3
			c4.8,0.5,10.2,3,10.8,7.7c5.5-3.2,13.4-0.9,16.1,4.7c-0.1-0.3,6.8-0.2,7.4-0.1c2.6,0.5,5,2.3,7.6,2.2c-1.6-4.9-6.5-7.7-6.6-13.3
			c0-0.5,0-0.9,0.1-1.4c-2.1,0.5-4.5-0.1-6-1.6c-1.5-1.5-2.2-3.8-1.7-5.9c-2.1,0.6-4.3,1.1-6.4,0.8c-2.1-0.4-4.2-1.9-4.4-4.1
			c-0.1-0.8-0.1-1.8-0.9-1.9c-0.3,0-0.5,0.1-0.8,0.3c-1.6,0.8-8.2,1.5-12.9,1.2c-1.1-1-2.2-1.9-3.4-2.8c0.5,0.1,1,0.1,1.5,0
			c1.2-0.2,2.3-0.9,3-1.9c1.3-2.1,0.2-5.1-2.2-5.6c-1.2-0.2-2.4,0.2-3.4,0.8c-0.6,0.3-1.1,0.8-1.4,1.3c-0.2,0.4-0.2,0.8-0.2,1.2
			c-1.5-0.1-3-0.5-4.5-0.9c-1.3-0.8-2.6-1.6-3.9-2.3c2.9-0.4,5.9-0.8,8.8-0.9c0.7,0,1.4,0,2.1,0c0.6,0.3,1.3,0.3,1.9,0.2
			c0.1,0,0.1,0,0.2-0.1c1.5,0.1,3,0.3,4.5,0.5c-0.1,1.4,0.6,3.1,1.8,3.8c0.4,0.3,1,0.4,1.5,0.4c2.6-0.1,3.7-2.8,3-5
			c-0.2-0.6-0.5-1.3-1-1.7c-0.4-0.3-0.9-0.4-1.4-0.5c-1.6-0.2-3.2,0.6-3.7,2.2c-1.1-0.2-2.1-0.3-3.2-0.4c0.4-0.3,0.7-0.6,0.9-1
			c1.2-1.8,0.1-4.5-1.9-4.9c-1-0.2-2.1,0.1-3,0.7c-0.5,0.3-1,0.7-1.2,1.2c-0.2,0.5-0.2,1-0.2,1.6c-3.7,0.5-7.4,1.5-10.9,2.9
			c-1.1-0.6-2.3-1.2-3.4-1.8c3.7-2.3,8.3-3.4,12-1.1c0.9-7.4,9.1-12.9,16.7-11.1c-0.4-0.1,4.8-6.3,5.4-6.8
			C651.1,617.7,654.7,616.9,656.6,614.4z M620,640.5c3-1.1,6-1.8,9.1-2.3c0.1,0.5,0.3,1,0.6,1.4c-0.3,0-0.7,0-1,0
			C625.8,639.7,622.9,640.1,620,640.5z M634.5,654.7c0.5,0.4,0.9,0.9,1.4,1.3c0.1,0.1,0.3,0.2,0.4,0.2c7.3,5.3,17.5,5.2,24.4,11.3
			c0.6,0.5-0.2,1.4-0.8,0.9c-7.5-6.6-18.8-5.8-26.1-12.7C633.2,655.2,633.9,654.4,634.5,654.7z M625.8,645.1
			c0.8,0.2,1.6,0.3,2.5,0.3c0,0.2,0.1,0.4,0.2,0.6c0.1,0.4,0.3,0.9,0.5,1.3C627.9,646.6,626.9,645.8,625.8,645.1z M613.5,651.8
			c0.1,0.2,0.2,0.4,0.3,0.5c0,0.1,0.1,0.3,0.1,0.4c0,0.2,0.2,0.4,0.3,0.5c3.2,7.5,1.8,16.3,2.6,24.3c0.1,0.8-1.1,0.8-1.2,0.1
			c-0.8-8.5,0.6-17.6-3.2-25.4C612,651.5,613.1,651.1,613.5,651.8z M640.2,620c-4.7-1.2-10.9,3.7-14.7,6.1c-2.9,1.8-5.6,3.9-8.7,5.3
			c-3.3,1.5-6.7,1.3-10.1,1.9c-0.8,0.1-0.9-1.1-0.1-1.2c2-0.3,4-0.3,6-0.7c2.7-0.5,5-1.7,7.3-3.2c2.5-1.6,5-3.2,7.5-4.8
			c3.5-2.1,8.7-5.8,13.1-4.7C641.2,619,640.9,620.2,640.2,620z"/>
	</g>
	<g>
		<g>
			<g>
				<path class="st0" d="M152.9,650c0.1,0.5,0.2,1,0.3,1.5c0.1,0.5,0.3,1.1,0.4,1.6c4.4,16.1,16.3,28.1,30.4,34.5
					c12.4,5.5,25.7,6.9,38.7,5.2c0.5,4.5-2.1,8.2-5.4,10.9c-2.8,2.4-5.8,3.6-8.9,5.2c-1,0.5-1.1,0.9-0.4,1.7
					c0.1,0.1,0.3,0.2,0.4,0.4c1.8,2,3.4,3.7,3.1,6.6c-0.5,4.2-1.8,7.7-4.4,11.1c-0.6,0.8-0.3,1.2,0.5,1.5c0.8,0.3,1.7,0.4,2.4,0.9
					c2.2,1.5,3.2,3.5,3.6,6c0.5,3.6,0.6,7,0.6,10.6c0,0.2,0.1,0.5,0.3,0.6c0.2,0.1,0.5-0.1,0.7-0.2c0.2-0.1,0.2-0.4,0.3-0.6
					c0.9-2,1.7-3.7,3.2-5.4c3.8-4.6,10-6.3,15.6-3.7c0.3,0.1,0.6,0,0.8-0.2c-0.2-0.5-0.6-0.9-0.9-1.4c-0.6-1-0.9-2.3-1.2-3.5
					c-0.4-1.5-0.8-2.9-0.9-4.4c-0.2-2.3-0.2-4.5,1-6.6c1.4-2.4,3.2-3.1,5.9-3c1,0,2,0.4,3,0.5c0.5,0,1-0.1,1.5-0.2
					c-0.3-0.4-0.6-0.9-1-1.2c-3.7-3.1-5.2-6.9-4.5-11.6c0.5-3.6,1.7-6.6,2-10.2c0.3-3,0-5.8,1.6-8.5c18.6-6.9,34.2-20.1,49.3-33.6
					c16-14.3,32.2-28.4,50.5-39.1c4.4-2.6,8.9-4.9,13.5-7.1c2-0.7,4-1.4,6-2.2c-0.8,2.7-1.3,5.7-3.1,7.9c-1.9,2.4-4.5,4.1-7.3,5.3
					c-1.7,0.8-3.5,1.1-5.3,0.9c-1.8-0.1-3.8-1.3-5.5-0.9c-0.2,1.2,0.4,2.5,0.3,3.7c-0.1,0.7-0.3,1.3-0.6,1.9
					c-2,4.8-4.9,10-10.4,11.1c-0.5,0.1-1,0.5-1.6,0.8c0.4,0.5,0.7,1.1,1.1,1.6c0.6,0.8,1.5,1.4,1.9,2.3c1.3,2.8,1.2,5.8,0,8.6
					c-0.8,2-1.8,3.8-2.9,5.7c-0.5,0.9-0.5,1.6,0.3,2c2.6,1.2,3.4,3.6,4.1,6.1c1.4,5.3,4.4,9.3,9.3,11.9c0.4,0.2,1,0,1.6-0.1
					c-0.2-0.4-0.4-0.9-0.7-1.3c-0.8-1.1-1.9-2.1-2.6-3.4c-1.5-2.8-1.5-5.9-0.9-8.9c1-4.8,5.6-8.6,10.9-6.9c0.5,0.2,1.2,0,1.8,0
					c-0.3-0.6-0.4-1.3-0.8-1.7c-2.8-2.7-4.1-6.6-3.3-10.5c0.2-0.9,0.7-1.9,1.4-2.5c1.7-1.3,3.5-2,5.7-1.9c1.5,0.1,3.1,0.4,4.6,0.5
					c0.5,0,1.1-0.1,1.2-0.6c0.1-0.3,0-0.5-0.2-0.8c-1.2-2.3-3.4-3.6-4.5-6.1c-1-2.2-1.1-4.6-0.5-7c0.2-0.6,0.5-1.2,0.8-1.7
					c1.2-1.7,2.8-3.2,3.8-4.9c2.3-4,4.8-7.7,4.3-12.5c0.4-0.2,0.9-0.4,1.4-0.6c0.7-0.3,2.9-0.9,4.4-1.8c9.2-2.9,18.6-4.7,28.3-5
					c9.2-0.3,18.5,0.8,27.5,3.4c5.9,1.7,11.6,4.4,17.1,7.3c3.1,1.6,6.1,3.4,9.1,5.1c1.2,0.7,2-1.1,1.1-2c-3.8-4-8.1-7.1-12.9-9.7
					c-11-5.9-24-8.2-35.6-8.7c-18.2-0.7-36,3.9-52.5,11.7c-0.1,0-0.2,0.1-0.3,0.1c-5.9,1.6-11.8,0.6-17.5-1
					c-9.6-2.7-17.6-7.4-19.5-18.4c-0.1-0.5-0.5-1.4-0.9-1.4c-0.4-0.1-1.1,0.4-1.5,0.8c-5.9,6.3-17.9,3.6-19.8-5.1c0-0.1,0-0.2,0-0.2
					c-0.3-1.4-0.4-2.9-0.7-4.3c-0.2-0.7-0.6-1.3-0.9-1.9c-0.5,0.6-1.3,1-1.5,1.7c-0.6,1.8-1.5,3.3-2.7,4.5c-1.5,1.6-3.4,2.6-5.6,3.3
					c-4.6,1.4-8.5,0.7-11.1-3.3c-0.2-0.3-0.4-0.6-0.5-0.9c-0.1-0.1-0.1-0.2-0.2-0.3c-0.5-0.5-1.1-1-1.6-1.4
					c-0.4,0.6-1.1,1.1-1.3,1.7c-0.1,0.3-0.2,0.6-0.4,0.9c-0.6,1.3-1.6,2.2-3,2.8c-4.2,1.9-8.5,2.5-13,1.9c-1.3-0.2-2.6-0.5-4-0.6
					c-0.6,0-1.2,0.4-1.8,0.7c0.4,0.4,0.8,1,1.3,1.3c1,0.6,2.4,0.9,3.1,1.7c2.2,2.5,4.4,4.9,6,7.8c1.7,3.2,2.9,7.1,1.7,10.7
					c-1.1,3.5-1,4.9,3.6,4c5.3-1,9.8,1.9,11.5,6.6c1.3,3.5,1.7,7.4,2.5,11.1c0.1,0.6,0.4,1.1,0.6,1.7c0.6-0.3,1.4-0.4,1.7-0.9
					c2.2-2.8,5.3-4.3,8.3-5.9c5.9-2.9,12.1-0.1,14.6,5.2c0.8,1.8,1.2,3.7,1.8,5.6c0.2,0.6,0.7,1,1.1,1.6c0.4-0.5,1-1,1.1-1.5
					c0.7-3.3,2-6.4,4.4-8.7c5.5-5.2,11.5-9.3,19.3-10.3c3.6-0.4,7.1-1,10.7-1.6c-11.3,6.8-21.9,14.8-32.1,23.4
					c-14.3,12-27.5,25.6-42.8,36.2c-4.8,3.3-10,6.3-15.6,8.7c-0.7,0.2-1.5,0.3-2.2,0.2c-3.3-0.2-6.6-0.8-9.6-1.9
					c-3-1.2-5.1-2.9-7.3-5.2c1.8-1.9,2.3-4.5,0.8-6.7c-1.5-2.1-4.3-2.7-6.5-1.4c-2.2,1.3-3.1,4-2,6.4c1.1,2.4,3.7,3.2,6.2,2.6
					c0.2-0.1,0.4-0.2,0.6-0.1c0.2,0.1,0.3,0.2,0.4,0.3c2.1,2.2,4.4,4,7.3,5.1c2.6,1,5.3,1.3,8,1.8c-3.1,0.9-6.4,0.5-9.5,0.5
					c-3.9,0-7.3-0.6-11.1-1.3c-0.7-0.1-1.4-0.4-2.1-0.6c-0.1-0.1-0.3-0.2-0.4-0.4c0-1.9-0.5-3.7-2-4.9c-2.6-2.1-6-2-8.2,0.5
					c-2.2,2.5-2,6,0.5,8.2c2.5,2.3,5.9,1.8,8.3-0.4c0.6-0.5,0.8-1.2,1.1-1.9c0.3,0,0.5,0,0.8,0c2.9,0.6,6,1.5,9,1.7
					c2.2,0.1,4.3,0.2,6.5,0.3c1.1,0,2.1,0,3.4,0c0.5,0,1.2-0.2,1.8-0.2c-17.6,6.5-37.5,7.9-54.4,0.5c-4.3-2.8-9.2-6.2-8.4-11.8
					c0.4-2.4,1.4-2.1,3.3-2.5c0.3-0.1,0.9-0.3,1.3-0.2c-0.9-2-1.8-4.3-1.3-6.5c0.6-2.2,2.1-2.9,4-3.8c-1.2-0.7-1.4-1.6-1.1-3
					c0.3-1.4,1.3-3,2.2-4.2c-1.8-0.5-2.9-1.1-2.8-3.3c0.1-2.2,1.2-4.7,1.9-6.8c0.1-0.3,0.3-0.7,0.1-1.1c-0.6,0.9-1.3,2-2.1,2.7
					c-1,0.9-2.2,1.3-3.4,1.2c-1.3,0-2.1-0.4-3.3-0.6c-0.2,0-0.5,0-0.7,0.2c-0.2,0.2-0.1,0.4-0.2,0.6c-0.4,2.4-1.4,4.3-3,6.1
					c-1.6,1.8-3.4,3.2-5.4,4.4c1.1,1.6,1.6,2.6,1.5,4.7c-0.1,2.1-0.7,4.3-1.8,6.3c-0.1,0.2-0.4,0.4-0.3,0.8c0.1,0.4,0.4,0.2,0.9,0.2
					c2.2-0.1,3.1,0.9,4.4,2.9c1.5,2.2,2.4,4.6,3.6,7c0.2,0.3,0.4,0.7,0.6,1c-3.1-2.3-6.1-4.9-8.8-8c-9.7-10.9-13.6-26.7-10.6-41.3
					c3.6-17.6,17.3-26.7,33.4-26.6c8.4,0,18.1,1.5,25.6,6.1c7.6,4.6,11.8,14.3,9.5,23.5c-2.1,8.2-9.7,14.4-18.3,12.1
					c-3.5-0.9-4.8-5.6-1.7-7.9c0.7-0.5,1.4-0.6,2.1,0c0.4,0.4,0.5,1.1,0.3,1.6c-0.1,0.4-0.5,0.7-0.9,0.7c0,0.6,0.8,1,1.4,0.8
					c0.6-0.2,1-0.8,1.2-1.4c0.7-1.6,0.7-3.6-0.3-5.1c-0.5-0.8-1.3-1.4-2.1-1.9c-2-1.2-4.9-0.5-6.3,1.3c-0.1,0.1-0.1,0.2-0.2,0.2
					c-0.1,0.1-0.3,0.1-0.4,0.1c-0.7,0-1.3-0.4-1.7-0.9c-1.5-2.1,1.3-4.4,3.3-4.3c0.4,0,0.9,0.1,1.2,0.4c0.3,0.3,0.4,0.8,0.1,1.1
					c1.1-0.1,2-1.1,2.1-2.3c0.1-1.1-0.5-2.2-1.4-2.9c-0.9-0.7-2-1-3.2-1.1c-4-0.4-8.1,2.1-9.4,5.8c-0.9,2.8-1.1,6.2-0.2,8.9
					c0.9,2.6,1.9,5.4,3.7,7.6c5.9,7.4,16.7,7.4,24.1,3.1c7.9-4.6,12.6-14,11.6-23.9c-0.3-3-1.1-5.8-2.2-8.3c0.7,0.3,1.4,0.6,2.1,0.8
					c5.5,1.7,13-0.6,13.5-7.2c0.2-2.6-0.9-4.6-2.5-5.9c-2.7-2.6-7.7-2.5-10.7,0.1c-1.6,1.4-2.2,3.7-1.6,5.7c0.6,2.1,3.3,2.7,5.2,2.5
					c0.4,0,0.7-0.1,1.1-0.2c0.8-0.4,1.3-1.2,1.4-2c0.1-0.9-0.2-1.7-0.7-2.4c0,0.3-0.2,0.7-0.4,0.8c-0.3,0.2-0.7,0.1-1,0
					c-0.5-0.3-0.5-1-0.2-1.5c0.8-1.4,2.6-1.3,3.9-0.7c1.8,1.3,2.3,2.9,1.5,4.7c-0.9,2-3.2,3-5.3,3c-3.9,0.1-7.3-2.5-10.2-4.8
					c-3.5-2.8-7.2-5.7-11.5-7.2c-4.5-1.6-9.4-2.8-14.1-3.5c-12.8-1.9-27.2,0.8-36.4,10.6C152.5,618.9,149.9,635.4,152.9,650z
					 M355.5,620.1c0,0-0.1,0.1-0.1,0.1c-0.4,2.1-1.9,3.9-2.4,6c-0.8,3.1,0.1,5.6,1.6,8.2c0.1,0.1-0.1,0.3-0.2,0.1
					c-1.9-2.2-3.2-4.4-3-7.4c0-0.3,0.1-0.6,0.1-0.9c-2.7,3.3-4.9,6.4-6.1,10.7c-1.3,4.8-1.2,9.5-0.1,14.4c0,0.1-0.1,0.1-0.1,0
					c-1.9-4.8-2-10.8-0.3-16.2c-1.2,2.3-2.4,4.6-3.5,6.8c-3.8,7.7-6.1,15.9-5.4,24.5c0,0,0,0,0,0c-1-6.4,0.1-12.8,2.3-18.9
					c-1.9,3-4.5,5.6-7.2,7.8c-0.1,0-0.1,0-0.1-0.1c3.7-3.4,6.2-7.3,8.7-11.6c0-0.1,0.1-0.1,0.1-0.1c0.2-0.5,0.4-1,0.6-1.4
					c1.1-2.4,2.3-4.7,3.6-7c-3,2.4-6.9,3.9-10.6,4.5c-0.1,0-0.1-0.1,0-0.1c2.6-1.2,5.3-1.9,7.8-3.4c1.9-1.1,3.2-2.6,4.6-4.1
					c0.6-1.1,1.2-2.1,1.9-3.2c0.9-1.5,1.8-3.1,2.8-4.5c-2.2,1-4.7,1.2-6.8,0.1c0,0,0,0,0,0c4.5,0.4,7.3-0.7,10.1-4.3
					c0.1-0.2,0.3-0.2,0.5-0.1c0.2-0.2,0.4-0.4,0.6-0.6c0.1-0.1,0.3-0.2,0.4-0.1C355.5,619.3,355.9,619.8,355.5,620.1z M329,608.1
					c0,0.3-0.1,0.6-0.4,0.7c-0.1,0-0.2,0-0.3,0.1c-0.1,0.1-0.3,0.2-0.5,0.3c-0.3,0.1-0.5,0.2-0.8,0.3c-3.9,2.1-9.3,1.9-13.5,3.3
					c-4.9,1.6-9.1,4.6-10.8,9.6c0,0.1-0.2,0.1-0.2,0c0.4-4.3,3-7.6,6.5-10c1.1-0.7,2.2-1.3,3.4-1.8c-3.1-0.2-6.1-0.6-9.1-0.6
					c-10.1-0.2-18.6,3-24.9,11c-0.1,0.1-0.3,0-0.2-0.2c3.6-6.7,10.1-11.3,17.4-12.8c-1-0.2-2-0.4-2.9-0.7c-1.4-0.3-2.8-0.7-4.1-1.1
					c-2-0.6-4-1.2-6-2c-4.6-0.4-8.5,0.2-13,1.4c-2.8,0.8-5.7,2.1-8.6,1.6c0,0,0-0.1,0-0.1c5.1-1.4,10.8-4.5,16.4-5
					c-6.4-2.8-12.4-6.3-18-10.4c-0.3-0.2,0-0.7,0.3-0.5c5.2,3.5,10.7,6.5,16.4,8.9c-3.5-3.3-5.6-7.7-7-12.5c0,0,0-0.1,0.1,0
					c4.3,7.2,7.7,13.2,16.2,15.8c5.7,1.8,11.7,2.8,17.6,4c1.5,0,3,0.1,4.5,0.2c-8.8-3-16.7-8.4-18.5-18.1c0-0.1,0.2-0.3,0.3-0.1
					c5,11.6,15.6,16.5,27.1,18.6c1.5,0,3-0.1,4.4-0.2c-5.2-1.7-9.3-5.8-10.3-11.7c0-0.1,0.1-0.1,0.1-0.1c3,7,9.6,11.6,17.3,10.5
					C329,606.3,329.5,607.6,329,608.1z M224.6,695.4c1.4,1.3,2.6,1.7,4.5,1.4c0.7-0.2,1.5-0.5,2.2-0.8c1.2-0.6,2.3-1.2,3.4-1.9
					c0.3-0.2,0.5-0.4,0.7-0.6c0.7-0.4,1.6-0.3,1.6,0.7c0,0.4-0.1,0.7-0.5,0.9c0,0-0.1,0-0.2,0.1c-1.1,1.4-2.4,3-3.5,4.3
					c-1.1,1.4-2.1,2.5-3,3.9c-0.3,0.4-0.6,0.8-0.6,1.3c-0.1,1.8,0,3.3,0.8,5c1,2.2,2.8,4.1,4.3,6c0,0.1,0,0.1-0.1,0.1
					c-2.8-2.5-5.1-5.1-6.3-8.7c-1.2,2.5-3.1,4.6-4,7.2c-2.7,7.5,0.2,13.2,4.6,19.3c0,0,0,0.1,0,0c-4.5-5.2-7.3-10.3-6.2-17.3
					c0,0,0,0,0,0c-1.5,3.8-2.9,7.6-3.6,11.5c-0.8,3.9-0.9,7.7-0.9,11.7c0,0-0.1,0-0.1,0c-0.8-7.4,0.4-14.2,2.7-21.2
					c-1.2,1.6-2.5,3.1-3.9,4.5c-1.7,1.7-3.6,3.1-5.6,4.4c-0.1,0-0.1,0-0.1-0.1c3.7-3.4,6.8-7.4,9.6-11.6c1-1.5,2.1-2.9,3-4.5
					c1-1.8,1.8-3.7,3-5.4c-0.3,0.2-0.6,0.5-0.9,0.7c-4.1,3.1-8.6,3.7-13.6,3.9c0,0,0,0,0,0c2.4-0.5,4.7-0.8,7-1.8
					c2.3-0.9,4.4-2.5,6.1-4.2c1.8-1.7,3.2-3.6,4.8-5.3c0.5-0.5,0.9-1,1.4-1.5c-0.5,0.1-1.1,0.3-1.6,0.4
					C227.4,698,225.8,697.5,224.6,695.4C224.5,695.4,224.5,695.3,224.6,695.4z M176.1,674.4c-0.2-0.2-0.2-0.4-0.4-0.6
					c-0.2-0.2-0.1-0.2-0.3-0.6c-0.2-0.4-0.2-1.2-0.5-1.7c-0.4-0.8-1.1-2.1-1.5-2.8c-1-1.5-2-2.2-3.2-3.4c0,0,0-0.1,0-0.1
					c1.3,0.6,2.3,1.2,3.3,2.2c0.2,0.2,0.6,0.8,0.8,1.1c-0.1-0.8-0.2-1.5-0.3-2.3c0-0.1,0-0.3,0-0.4c-0.1-0.6-0.2-1.4-0.3-2
					c-0.1-0.9-0.3-1.7-0.6-2.5c-0.6-1.8-1.5-3.3-2.1-5c0,0,0-0.1,0.1-0.1c1.1,1.4,1.9,2.8,2.6,4.5c0.3,0.7,0.5,1.4,0.7,2.1
					c0.3-1.2,0.6-2.5,1-3.7c0.6-1.9,1.4-3.6,2.1-5.4c0.4-1,0.6-2,0.6-3c0-1.3-0.3-2.5-0.6-3.8c0,0,0-0.1,0.1,0
					c0.7,1.8,1,3.4,0.8,5.3c1.3-2,2.8-4,4-6.1c0,0,0.1,0,0,0c-0.9,2.1-2.3,3.9-3.5,5.8c-0.4,0.6-0.7,1.3-1,1.9c0,0,0,0.1,0,0.1
					c-0.3,0.7-0.7,1.4-0.9,2.1c0.6-0.6,1.5-1.2,2.3-1.6c1.2-0.6,2.1-1.1,3.4-1c0.1,0,0,0.1,0,0.1c-0.5,0.2-0.9,0.2-1.5,0.4
					c-0.6,0.2-1.2,0.6-1.8,0.9c-0.5,0.3-1.2,0.7-1.6,1.2c-0.4,0.5-0.9,0.8-1.2,1.3c-0.2,0.3-0.3,0.8-0.4,1.2
					c-0.4,1.2-0.7,2.4-0.9,3.7c0.4-0.4,0.8-1,1.2-1.3c1.2-0.9,2.4-1.3,3.9-1.5c0,0,0,0,0,0.1c-1.2,0.4-2.5,0.8-3.4,1.7
					c-0.9,0.9-1.5,1.8-2,2.9c-0.2,0.4-0.1,0.9-0.1,1.4c0.1,0.9,0.3,1.9,0.4,2.8c0.1-0.4,0.3-0.8,0.5-1.1c0.9-1.1,2-1.3,3.3-0.9
					c0,0,0,0.1,0,0.1c-1.5,0.5-2.3,0.9-2.8,2.5c-0.3,1.1,0.1,2.4,0.2,3.5c0,0.1,0.1,0.2,0.1,0.2c0,0,0,0,0,0.1
					c0.1,0.5,0.2,1,0.2,1.4C176.8,674.6,176.3,674.6,176.1,674.4z"/>
			</g>
			<path class="st0" d="M154.4,646.8C154.4,646.8,154.4,646.8,154.4,646.8c0-0.1-0.1-0.1-0.1-0.2
				C154.3,646.7,154.4,646.7,154.4,646.8z"/>
			<path class="st0" d="M132.4,638.6c1.5,0.6,2.2,2.1,1.9,3.7c-0.3,1.1-0.8,2.2-1.2,3.3c-0.1,0.2-0.1,0.4-0.1,0.5
				c0.2,0,0.4,0.1,0.6,0.1c1-0.3,2.1-0.2,3.1-0.1c2,0.2,3.1,2,2.9,3.8c-0.1,0.6-0.3,1.2-0.5,1.7c0,0.2,0,0.4,0,0.6
				c0.2-0.1,0.4-0.1,0.6-0.2c0.7-0.7,1.6-1.3,2.6-1.5c2.3-0.4,4.5-0.5,6.7,0.6c0.7,0.4,1.4,0.7,2.2,1l2.5,1.1l0.3,0.1l0.3-1.1
				c0,0,0.1-0.6,0.1-0.7c0,0-0.1-0.2-0.2-0.3c-0.1-0.1-0.1-0.2-0.1-0.2c-0.4-0.4-0.8-0.7-1.2-1.1c-0.1-0.1-0.2-0.2-0.3-0.4
				c-2-2.3-3.3-4.9-1.9-8.1c0.1-0.2,0.1-0.4,0-0.5c-0.1-0.1-0.4-0.1-0.5,0c-2.6,0.6-5.2-2.1-4.2-4.7c0.2-0.4,0.4-0.9,0.6-1.3
				c0.1-0.2,0-0.4,0.1-0.7c-0.2,0.1-0.5,0-0.7,0.2c-1,0.8-2.2,1-3.4,0.6c-1.5-0.4-2.4-1.4-2.3-3c0,0,0-0.1,0-0.1
				c-0.1-0.2-0.1-0.4-0.2-0.6c-0.2,0.1-0.5,0.1-0.6,0.2c-0.4,0.4-0.9,0.5-1.5,0.4c-1.4-0.2-2.6-0.8-3.7-1.7
				c-0.3-0.3-0.6-0.6-0.9-0.8c-0.2-0.1-0.4-0.1-0.6-0.1c0,0.2,0,0.4,0.1,0.6c0.2,0.3,0.5,0.6,0.5,1c0.1,1,0.3,2,0.2,3
				c-0.1,1.1-0.5,2.3-1.4,3C131.3,637.7,131.1,638,132.4,638.6z M133.1,638.1c1.5,0.5,3.6,0.7,5.1,1.5c-1.2-1.8-2.1-3.7-2.9-5.7
				c0-0.1,0.1-0.2,0.2-0.1c0.8,1.8,1.7,3.5,2.7,5.1c-0.3-1.4-0.2-2.9,0.3-4.4c0,0,0,0,0,0c-0.1,2.6-0.2,4.7,1.5,6.8
				c1.2,1.4,2.5,2.7,3.9,4c0.4,0.3,0.8,0.5,1.1,0.8c-1.8-2.3-2.9-5-1.7-7.8c0,0,0.1,0,0.1,0c-0.7,3.9,1.3,6.9,3.9,9.4
				c0.4,0.2,0.8,0.5,1.2,0.7c-1.1-1.3-1.4-3.1-0.7-4.7c0,0,0,0,0,0c-0.4,2.3,0.5,4.6,2.7,5.6c0.3,0.1,0.2,0.6,0,0.6
				c0,0.1-0.1,0.1-0.2,0.1c0,0-0.1,0-0.1,0c0,0-0.1,0-0.2,0c-0.1,0-0.2,0-0.2-0.1c-1.4-0.1-2.7-1.1-4-1.4c-1.5-0.4-3.1-0.3-4.4,0.7
				c0,0-0.1,0,0,0c0.8-1,2.1-1.5,3.4-1.5c0.4,0,0.8,0,1.2,0.1c-0.8-0.6-1.5-1.2-2.2-1.7c-2.6-1.8-5.3-2.3-8.3-1.4
				c-0.1,0-0.1-0.1,0-0.1c2-1.1,4.5-1.2,6.7-0.4c-0.2-0.2-0.4-0.4-0.6-0.7c-0.3-0.3-0.6-0.6-0.9-1c-0.4-0.5-0.8-1-1.2-1.5
				c-1.1-0.9-2.2-1.4-3.6-1.8C134.8,638.9,133.8,638.7,133.1,638.1C133.1,638.1,133.1,638.1,133.1,638.1z"/>
		</g>
		<path class="st0" d="M376.1,621.4c0.6,0.5,5.8,6.7,5.4,6.8c7.5-1.8,15.7,3.6,16.7,11.1c3.8-2.3,8.3-1.2,12,1.1
			c-1.1,0.6-2.3,1.1-3.4,1.8c-3.5-1.4-7.2-2.4-10.9-2.9c0.1-0.5,0.1-1.1-0.2-1.6c-0.3-0.5-0.7-0.9-1.2-1.2c-0.9-0.5-2-0.9-3-0.7
			c-2.1,0.4-3.1,3.1-1.9,4.9c0.2,0.4,0.6,0.7,0.9,1c-1.1,0.1-2.1,0.3-3.2,0.4c-0.5-1.6-2.1-2.4-3.7-2.2c-0.5,0.1-1,0.2-1.4,0.5
			c-0.5,0.4-0.8,1-1,1.7c-0.7,2.2,0.4,4.8,3,5c0.6,0,1.1-0.1,1.5-0.4c1.2-0.7,1.9-2.4,1.8-3.8c1.5-0.2,3-0.4,4.5-0.5
			c0.1,0,0.1,0,0.2,0.1c0.6,0.1,1.3,0.1,1.9-0.2c0.7,0,1.4,0,2.1,0c2.9,0.1,5.9,0.5,8.8,0.9c-1.3,0.7-2.6,1.5-3.9,2.3
			c-1.5,0.5-3,0.8-4.5,0.9c0-0.4,0-0.8-0.2-1.2c-0.3-0.6-0.9-1-1.4-1.3c-1-0.6-2.3-1-3.4-0.8c-2.4,0.5-3.5,3.6-2.2,5.6
			c0.7,1,1.8,1.7,3,1.9c0.5,0.1,1,0.1,1.5,0c-1.1,0.9-2.2,1.8-3.4,2.8c-4.7,0.4-11.3-0.3-12.9-1.2c-0.2-0.1-0.5-0.3-0.8-0.3
			c-0.8,0-0.8,1.1-0.9,1.9c-0.2,2.1-2.2,3.7-4.4,4.1c-2.1,0.4-4.3-0.2-6.4-0.8c0.5,2.1-0.2,4.4-1.7,5.9c-1.5,1.5-3.9,2.1-6,1.6
			c0.1,0.5,0.1,1,0.1,1.4c-0.1,5.6-5,8.4-6.6,13.3c2.6,0.1,5-1.7,7.6-2.2c0.7-0.1,7.5-0.2,7.4,0.1c2.8-5.6,10.7-7.9,16.1-4.7
			c0.6-4.7,6-7.2,10.8-7.7c-2.1,0.2,0.9-9.4,2-12.3c5.1-4.1,10.6-7.6,16.4-10.5c0,0,0,0,0.1,0c0,0,0.1,0,0.1-0.1
			c0.3-0.1,0.5-0.3,0.8-0.4c0,0,0,0,0,0c1.3-0.6,3.9-1.7,6.6-2.8l0,0c0.3-0.1,0.7-0.3,1-0.4c-2.4,2.5-4.3,5.3-5.8,8.3
			c-0.1,0.1-0.1,0.2-0.3,0.4c-1.8,2.4-7.7,9.8-11.3,6.8c1.1,2.8,1.8,5.8,1,8.7c-0.8,3-2.7,4.7-5.7,5.2c1.7,3.2,3.9,5.9,4.6,9.7
			c0.3,1.6-0.6,5.9-3,6.1c5.9,2.7,7.1,8.1,7.9,14c1.5-2.4,6.8-12.9,9.3-12c-1.4-2.7-2.8-4.9-2.3-8.2c0.1-0.7,2.1-5.1,3.9-4.1
			c-2-2.7-7-10-1.9-11.5c-1.8-4.1-1.7-7.9-0.4-12.1c0.2-0.8,0.6-1.5,0.3-2.3c-0.1-0.3-0.2-0.6-0.5-0.8c1.9-3.5,4.4-6.7,7.5-9.4
			c0,0,0,0,0,0c0.2-0.1,0.4-0.1,0.5-0.2c0,0,0.1,0,0.1,0c0.7-0.2,1.3-0.4,1.8-0.6c0,0,0.1,0,0.2,0c0,0,0,0,0.1,0
			c1.2-0.3,11.8-2.8,19.8-3.7c1.8-0.2,3.5-0.3,4.9-0.3l-2.9-2.4c0,0-0.8,0-2.2,0.2c-3.5,0.3-10.9,1.3-20,4.1
			c-4.3-2.9-10.5-12.2-11-14.7c-0.1-0.3-0.1-0.7-0.3-0.9c-0.6-0.7-1.7,0.1-2.5,0.6c-2.2,1.5-5.3,0.8-7.2-0.8c-1.9-1.7-3-4.1-4-6.4
			c-1.7,2.1-4.5,3.2-7.1,3c-2.6-0.2-5-1.9-6-4.2c-0.4,0.4-0.9,0.8-1.3,1.2c-5.5,4.2-11.9,1.9-17.9,4.3
			C370.1,618.7,373.7,619.4,376.1,621.4z M396,641.4c-0.3,0-0.7,0-1,0c0.3-0.4,0.5-0.9,0.6-1.4c3.1,0.4,6.2,1.2,9.1,2.3
			C401.9,641.9,399,641.5,396,641.4z M391.1,657.5c-7.3,6.8-18.7,6.1-26.1,12.7c-0.6,0.5-1.4-0.4-0.8-0.9
			c6.9-6.1,17.1-5.9,24.4-11.3c0.1,0,0.3,0,0.4-0.2c0.5-0.4,0.9-0.9,1.4-1.3C390.9,656.1,391.6,657,391.1,657.5z M395.9,649.1
			c0.2-0.4,0.4-0.8,0.5-1.3c0.1-0.2,0.1-0.4,0.2-0.6c0.8-0.1,1.7-0.2,2.5-0.3C398,647.6,396.9,648.3,395.9,649.1z M412.5,653.9
			c-3.8,7.8-2.3,17-3.2,25.4c-0.1,0.8-1.3,0.7-1.2-0.1c0.8-8.1-0.6-16.9,2.6-24.3c0.1-0.1,0.3-0.3,0.3-0.5c0-0.1,0.1-0.3,0.1-0.4
			c0.1-0.2,0.2-0.4,0.3-0.5C411.7,652.9,412.8,653.3,412.5,653.9z M384.4,620.5c4.3-1.1,9.6,2.6,13.1,4.7c2.5,1.5,5,3.1,7.5,4.8
			c2.3,1.5,4.6,2.7,7.3,3.2c2,0.3,4,0.3,6,0.7c0.8,0.1,0.7,1.3-0.1,1.2c-3.4-0.6-6.8-0.4-10.1-1.9c-3.1-1.4-5.8-3.6-8.7-5.3
			c-3.8-2.4-10-7.3-14.7-6.1C383.9,621.9,383.6,620.7,384.4,620.5z"/>
	</g>
	<path class="st0" d="M625.4,201.1v37.5h11.5c67.3,0,59.6,37.5,34.6,76.9l-51.6,81l-8.1,12.6h66.6l8.2-12.6l20.6-31.7l25.4-39
		l13-19.9c34.6-52.9,50.9-63.4,106.7-67.3v-37.5H625.4z M581.2,690.3V565.6H448.5v126.6c0,43.2-15.4,69.2-73,69.2h-24v37.5h327.7
		v-37.5h-14.4C595.6,761.4,581.2,736.4,581.2,690.3z M488.8,396.5l-82.6-108.9c-20.2-26-12.5-49,43.2-49H461v-37.5H147.7v37.5h6.7
		c48.1,0,59.6,8.7,87.5,45.2l30.4,40.4c0,0,0,0,0,0l27.1,36.1l27.2,36.1l9.5,12.6h162.2L488.8,396.5z"/>
	<g>
		<path class="st0" d="M132.4,396.5H53.1c-2.6-7.6-9.8-13.2-18.3-13.2c-10.6,0-19.3,8.7-19.3,19.3s8.7,19.3,19.3,19.3
			c8.5,0,15.7-5.5,18.3-13.2h79.3c3.4,0,6.1-2.7,6.1-6.1C138.5,399.2,135.7,396.5,132.4,396.5z M41.9,402.6c0,3.9-3.2,7.1-7.1,7.1
			s-7.1-3.2-7.1-7.1c0-3.9,3.2-7.1,7.1-7.1S41.9,398.7,41.9,402.6z"/>
		<path class="st0" d="M132.4,565.8H53.1c-2.6-7.6-9.8-13.2-18.3-13.2c-10.6,0-19.3,8.7-19.3,19.3s8.7,19.3,19.3,19.3
			c8.5,0,15.7-5.5,18.3-13.2h79.3c3.4,0,6.1-2.7,6.1-6.1C138.5,568.5,135.7,565.8,132.4,565.8z M41.9,571.9c0,3.9-3.2,7.1-7.1,7.1
			s-7.1-3.2-7.1-7.1s3.2-7.1,7.1-7.1S41.9,568,41.9,571.9z"/>
	</g>
	<g>
		<path class="st0" d="M965.2,383.3c-8.5,0-15.7,5.5-18.3,13.2v0h-79.3c-3.4,0-6.1,2.7-6.1,6.1c0,3.4,2.7,6.1,6.1,6.1h79.3
			c0,0.1,0.1,0.3,0.1,0.4c2.7,7.4,9.8,12.8,18.1,12.8c10.6,0,19.3-8.7,19.3-19.3C984.5,392,975.8,383.3,965.2,383.3z M965.2,409.7
			c-3.9,0-7.1-3.2-7.1-7.1c0-3.9,3.2-7.1,7.1-7.1c3.9,0,7.1,3.2,7.1,7.1C972.3,406.5,969.1,409.7,965.2,409.7z"/>
		<path class="st0" d="M965.2,552.6c-8.4,0-15.6,5.4-18.2,13c0,0.1,0,0.1-0.1,0.2h-79.3c-3.4,0-6.1,2.7-6.1,6.1
			c0,3.4,2.7,6.1,6.1,6.1h79.3c0,0.1,0.1,0.2,0.1,0.2c2.6,7.5,9.8,13,18.2,13c10.6,0,19.3-8.7,19.3-19.3
			C984.5,561.2,975.8,552.6,965.2,552.6z M965.2,578.9c-3.9,0-7.1-3.2-7.1-7.1c0-3.9,3.2-7.1,7.1-7.1c3.9,0,7.1,3.2,7.1,7.1
			C972.3,575.8,969.1,578.9,965.2,578.9z"/>
	</g>
	<g>
		<rect x="42.3" y="565.6" class="st0" width="915.3" height="12.6"/>
		<rect x="42.3" y="396.5" class="st0" width="915.3" height="12.6"/>
	</g>
	<g>
		<path d="M595.9,384.7c-0.2-0.2-0.4-0.4-0.7-0.6c-1.4-1.2-3.3-3-5.1-5c-1.9-2-3.8-4.2-5.4-6.1c-1.6-1.9-2.9-3.5-3.6-4.4
			c-0.7-0.9-2-2.5-3.4-4.5c-0.6-0.9-1.3-1.9-2-2.9c1.1,1.2,2.7,2.7,4.4,3.8c1.2,0.8,2.4,1.4,3.3,1.8c0.9,0.4,1.5,0.5,1.5,0.4
			c0-0.1-0.5-0.5-1.3-1c-0.8-0.6-1.9-1.3-3-2.2c-2.2-1.7-4.2-4.2-5-5.1c-0.2-0.2-0.4-0.6-0.7-0.9c-0.3-0.4-0.6-0.9-1-1.4
			c-0.7-1.1-1.5-2.3-2.2-3.6c-0.4-0.6-0.6-1.3-0.9-1.9c-0.3-0.6-0.5-1.1-0.7-1.6c-0.1-0.3-0.2-0.5-0.3-0.8c0.4,0.4,0.7,0.7,1,1
			c0.4,0.4,1.2,1.1,2.1,1.8c0.1,0.1,0.1,0.2,0.2,0.2c0.6,0.6,1.2,1.3,1.8,1.9c1.3,1.2,2.5,2.5,3.9,3.6c1.3,1.2,2.7,2.1,3.9,3
			c1.3,0.9,2.5,1.6,3.5,2.2c2.1,1.1,3.4,1.7,3.5,1.5c0.1-0.2-1.1-1.2-3-2.7c-0.5-0.4-2.2-2-2.6-2.5c-1.2-1.5-2.9-3.5-4.6-5.7
			c-1.7-2.2-3.4-4.6-4.8-6.8c-0.1-0.2-0.2-0.3-0.3-0.5c0.6,0.5,1.2,0.9,1.7,1.2c0.9,0.5,1.5,0.8,1.6,0.7c0.1-0.1-0.5-0.5-1.3-1.2
			c-0.8-0.7-1.8-1.7-2.8-2.9c-0.7-0.9-1.4-1.9-2-2.8c1.5,1.2,3,1.9,3.1,1.7c0.1-0.2-1.3-1.3-2.7-2.8c-1.4-1.4-2.6-3.3-3-4
			c-0.2-0.4-0.6-1-1-1.8c-0.5-1.2-1.1-2.6-1.7-4c-0.2-0.5-0.4-1-0.6-1.4c-0.1-0.3-0.2-0.6-0.3-0.8c0.2,0.3,0.5,0.5,0.6,0.7
			c0.6,0.6,1.8,1.7,3.3,2.9c1.4,1.8,3,3.5,4.6,5.1c2.3,2.1,4.6,3.9,6.4,4.9c0.9,0.6,1.7,0.9,2.2,1.1c0.1,0,0.1,0,0.2,0.1
			c0.8,0.5,1.5,1,2.2,1.5c2.3,1.4,3.9,2,4,1.8c0.1-0.3-1.3-1.3-3.4-2.9c-2.1-1.7-4.7-4.1-7.3-7.1c-1.3-1.5-2.6-3.1-3.8-4.7
			c1.2,1,2.3,1.5,2.4,1.3c0.1-0.2-1-1.2-2.1-2.5c-1.1-1.2-2.2-2.7-2.6-3.3c-0.4-0.5-1.5-2-2.4-3.4c-0.1-0.2-0.3-0.4-0.4-0.6
			c0,0,0-0.1-0.1-0.1c0.1,0.1,0.1,0.2,0.2,0.3c0.8,0.9,1.8,1.9,2.8,2.8c2,1.7,4,3,4.1,2.8c0.1-0.2-1.6-1.8-3.5-3.7
			c-0.9-0.9-1.8-2-2.6-2.9c-0.7-0.9-1.3-1.8-1.6-2.2c-0.3-0.5-0.8-1.3-1.4-2.3c-0.6-1.1-1.1-2.3-1.7-3.6c-0.2-0.6-0.5-1.2-0.7-1.8
			c0.7,0.7,1.2,1.2,1.6,1.5c1.7,1.4,8.2,6.5,10.6,7.6c0.5,0.4,1,0.8,1.5,1.1c0.3,0.2,0.5,0.4,0.8,0.5c1.1,1,2.1,1.9,3,2.6
			c2,1.5,3.6,1.8,3.6,1.5c0.1-0.2-1-0.8-2.5-2.2c-0.1-0.1-0.2-0.3-0.5-0.5c-0.8-0.8-1.8-1.9-2.8-3c-1.1-1.2-2.1-2.5-3.3-3.9
			c-2.2-2.8-4.4-5.8-6.1-8.5c-0.4-0.7-0.8-1.3-1.2-1.9c-0.1-0.2-0.1-0.3-0.2-0.5c0.6,0.8,1.2,1.6,1.9,2.4c0.8,0.8,1.6,1.5,2.3,1.9
			c0.7,0.4,1.1,0.6,1.2,0.5c0.1-0.1-0.3-0.5-0.8-1c-0.5-0.6-1.2-1.3-1.9-2.2c-1.4-1.7-2.6-3.9-3-4.8c-0.5-0.8-1.6-3-2.6-5
			c0,0,0-0.1-0.1-0.1c0.1,0.1,0.2,0.2,0.3,0.3c0.8,0.9,3.2,3.4,5.7,5.2c0.5,0.4,1,0.7,1.5,1c4.7,5.4,9.7,8.9,9.9,8.6
			c0.3-0.5-4.4-4.7-8.7-10.5c-0.6-0.8-1.2-1.6-1.7-2.4c-0.2-0.5-0.6-1.2-1-2.1c-0.8-1.6-1.9-3.7-3-6c1.3,1.6,2.7,2.6,2.9,2.4
			c0.1-0.2-1.1-1.6-2.2-3.3c-1.2-1.7-2.1-3.8-2.5-4.6c-0.4-0.8-1.3-2.8-1.8-4.9c0-0.1,0-0.1-0.1-0.2c1.1,1.3,3.8,3.9,6.5,5.7
			c1.6,1.2,3.3,2,4.4,2.5c1,0.6,1.7,1,1.8,0.8c0-0.1-0.1-0.3-0.3-0.6c0.1-0.3-0.7-1-1.8-2c-1.3-1.4-3-3.2-4.7-5.3
			c-0.9-1-1.7-2.2-2.5-3.3c-0.4-0.5-0.8-1.1-1.1-1.7c-0.4-0.6-0.7-1.1-1-1.6c-1.3-2.1-2.3-4-2.8-5c-0.3-0.5-0.6-1.2-1.1-2.1
			c-0.4-0.9-0.9-1.9-1.4-3c-1-2.3-2.1-5-2.9-7.6c-0.3-0.9-0.6-1.8-0.8-2.7c0.2,0.5,0.3,0.9,0.5,1.4c0.4,1,0.8,1.9,1.1,2.7
			c0.4,0.8,0.7,1.4,0.9,1.8c0.2,0.4,0.5,0.9,0.9,1.6c0.3,0.7,0.5,1.3,0.7,1.6c0.4,0.8,1.4,3,2.6,4.9c1.1,1.9,2.3,3.4,2.5,3.2
			c0.2-0.2-0.7-1.9-1.6-3.9c-0.1-0.1-0.1-0.3-0.2-0.4c0.7,0.8,1.5,1.7,2.3,2.4c1.6,1.6,3.3,2.9,4.6,3.7c1.3,0.8,2.2,1.2,2.3,0.9
			c0.1-0.2-0.6-1-1.7-2.1c-1.1-1.1-2.5-2.6-3.9-4.3c-0.7-0.8-1.4-1.8-2.1-2.7c-0.6-0.9-1.3-1.8-1.8-2.7c-1.1-1.7-1.9-3.2-2.3-4
			c-0.2-0.4-0.5-1-0.9-1.7c-0.4-0.7-0.7-1.5-1.2-2.5c-0.3-0.6-0.5-1.2-0.8-1.9c1.1,0.9,2.2,1.4,2.3,1.2c0.1-0.2-0.8-1.1-1.7-2.1
			c-0.8-0.9-1.5-1.9-1.9-2.5c-0.1-0.3-0.2-0.6-0.3-0.9c-0.4-1.1-0.6-2.2-0.9-3.2c-0.3-1-0.5-1.9-0.7-2.7c-0.2-0.9-0.4-1.6-0.5-2.1
			c-0.1-0.6-0.3-1.1-0.6-1.1c-0.2,0-0.3,0.4-0.4,0.8c-0.2,0.4-0.4,1.2-0.6,2.3c-0.2,0.8-0.4,1.7-0.7,2.7c-0.2,0.5-0.3,1.1-0.4,1.6
			c-0.6,1.1-1.2,2-1.4,2.4c-0.4,0.6-1.4,2.2-2.4,3.4c-1,1.3-2.1,2.3-2,2.6c0.1,0.2,1.4-0.5,2.7-1.7c0.5-0.5,1-1,1.5-1.5
			c-0.3,0.9-0.7,1.7-1,2.5c-0.4,0.9-0.8,1.8-1.2,2.5c-0.4,0.7-0.7,1.3-0.9,1.7c-0.4,0.8-1.2,2.3-2.3,4c-0.5,0.9-1.2,1.8-1.8,2.7
			c-0.7,0.9-1.3,1.8-2.1,2.7c-1.4,1.7-2.9,3.2-3.9,4.3c-1.1,1.1-1.8,1.8-1.7,2.1c0.1,0.2,1-0.2,2.3-0.9c1.3-0.8,3-2.1,4.6-3.7
			c0.8-0.8,1.6-1.7,2.4-2.5c-0.9,1.8-1.7,3.4-1.5,3.6c0.2,0.2,1.3-1.3,2.4-3c1.1-1.7,2.1-3.8,2.4-4.6c0.1-0.3,0.3-0.8,0.6-1.5
			c0.3-0.6,0.6-1.1,0.8-1.4c0.2-0.4,0.5-1.1,0.9-1.8c0.4-0.8,0.7-1.7,1.1-2.7c0.2-0.5,0.3-0.9,0.5-1.4c-0.3,0.9-0.5,1.8-0.8,2.7
			c-0.8,2.7-1.9,5.3-2.9,7.6c-0.5,1.1-1,2.2-1.4,3c-0.4,0.9-0.8,1.6-1.1,2.1c-0.5,1-1.5,2.9-2.8,5c-0.3,0.5-0.7,1.1-1,1.6
			c-0.4,0.5-0.7,1.1-1.1,1.7c-0.8,1.1-1.6,2.3-2.5,3.3c-1.7,2.1-3.4,3.9-4.7,5.3c-1.1,1-1.9,1.7-1.8,2c-0.2,0.3-0.3,0.5-0.3,0.6
			c0.1,0.2,4.6-2.1,6.2-3.3c2.9-1.9,5.8-4.8,6.7-5.9c0.1-0.1,0.3-0.3,0.4-0.5c-0.2,0.3-0.3,0.5-0.5,0.8c-0.9,1.6-2,3.2-2.5,3.8
			c-0.4,0.6-1.5,2.3-2.6,3.8c-1.1,1.5-2.1,2.8-2,3c0.1,0.2,1.4-0.8,2.7-2.1c0.8-0.8,1.5-1.7,2-2.4c-0.6,1.1-1.5,2.8-2.5,4.2
			c-1.3,2-2.7,3.6-2.5,3.8c0.1,0.2,1.7-1.1,3.2-2.9c-1,2-2,3.8-2.7,5.3c-0.5,0.9-0.8,1.6-1,2.1c-0.6,0.8-1.2,1.6-1.7,2.4
			c-0.9,1.3-1.9,2.4-2.8,3.5c-0.3,0.3-0.5,0.6-0.7,0.9c-3,3.5-5.4,5.8-5.2,6.1c0.2,0.4,9.1-7.3,9.5-7.6c2.3-1.6,4.7-3.8,5.6-4.6
			c0.4-0.4,1.2-1.2,2-2.1c-0.1,0.3-0.3,0.6-0.4,0.9c-0.9,1.9-2,3.8-2.4,4.5c-0.4,0.7-1.6,2.7-2.8,4.3c-1.2,1.7-2.4,3.1-2.3,3.3
			c0.1,0.2,1.6-0.9,3-2.4c0.6-0.6,1.2-1.4,1.7-2.1c-0.3,0.5-0.6,1-1,1.6c-1.7,2.7-3.9,5.8-6.1,8.5c-1.1,1.4-2.2,2.7-3.3,3.9
			c-0.3,0.4-5.8,5.5-5.8,5.8c0.1,0.2,1.6-0.1,3.6-1.5c0.4-0.3,3.4-2.3,4.4-3c3.3-2.1,6.6-5,7.8-6.1c1.1-1,3.9-3.8,6.4-6.8
			c-0.1,0.3-0.2,0.6-0.4,1c-0.4,1-1.2,2-1.4,2.3c-0.3,0.4-1,1.4-1.8,2.3c-0.8,0.9-1.5,1.7-1.3,1.9c0.1,0.2,1-0.3,2-1
			c0.2-0.2,0.4-0.3,0.6-0.5c-0.5,1-1.4,2.6-2.3,4c-1.2,1.8-2.4,3.3-2.2,3.5c0.1,0.2,1.2-0.7,2.3-2c-1.2,2.3-2.4,4.8-3.9,7
			c-0.3,0.6-0.6,1.1-1,1.6c-1.5,2.2-3.2,4.4-5,6.4c-2.6,2.9-5.3,5.4-7.3,7.1c-2.1,1.7-3.5,2.7-3.4,2.9c0.1,0.2,1.7-0.4,4-1.8
			c0.7-0.4,3.7-2.1,4.6-2.6c1.5-0.9,3.4-2.2,5.3-3.9c2.9-2.2,5.6-4.8,6.6-5.9c0.6-0.6,1.6-1.8,2.8-3.3c0.5-0.6,1-1.3,1.5-2
			c-0.3,0.6-0.6,1.4-0.9,2.1c-0.5,1.2-1.2,2.3-1.7,3.3c-0.6,1-1.1,1.8-1.4,2.2c-0.6,0.9-2.1,3.3-3.7,5.2c-1.6,2-3.3,3.5-3.2,3.7
			c0.1,0.2,2-1,3.8-2.8c0.2-0.2,0.5-0.5,0.7-0.7c-0.5,0.8-0.9,1.5-1.1,2c-0.6,1-1.7,2.8-3.1,5c-1.4,2.1-3.1,4.6-4.8,6.8
			c-1.7,2.2-3.4,4.2-4.6,5.7c-0.4,0.4-0.7,0.8-1,1.2c-0.6,0.5-1.1,0.9-1.6,1.3c-1.9,1.4-3.1,2.4-3,2.7c0.1,0.2,1.5-0.4,3.5-1.5
			c1-0.6,2.2-1.3,3.5-2.2c1.2-0.9,2.6-1.9,3.9-3c1.3-1.1,2.6-2.4,3.9-3.6c0.6-0.6,1.2-1.3,1.8-1.9c0.1-0.1,0.1-0.2,0.2-0.2
			c0.9-0.8,1.6-1.4,2.1-1.8c1-0.9,3.6-3.6,5.7-6.3c-0.3,0.8-0.7,1.7-1.1,2.6c-0.6,1.3-1.3,2.6-1.9,3.8c-0.6,1.1-1.2,2-1.5,2.5
			c-0.6,1-2.4,3.6-4.2,5.8c-1.8,2.2-3.7,3.8-3.6,4c0.1,0.2,2.2-1.1,4.2-3c-1.9,2.7-3.5,4.9-4.4,6c-0.8,1-2.1,2.9-3.8,5
			c-0.8,1.1-1.8,2.2-2.8,3.3c-1,1.1-1.9,2.3-3,3.4c-3.5,3.8-7.1,6.5-7.9,7.5c-0.2,0.1-0.3,0.2-0.5,0.3c-2.3,1.5-3.8,2.5-3.7,2.8
			c0.1,0.2,1.7-0.4,4.2-1.6c1.2-0.7,2.7-1.4,4.2-2.4c1.3-0.9,2.8-1.8,4.2-2.9c0.6-0.3,1.1-0.7,1.7-1c2.1-1.3,4.2-2.8,6-4.1
			c1.8-1.3,3.3-2.5,4-3.2c0.9-0.8,2.8-2.5,4.9-4.5c0.5-0.4,1-0.8,1.3-1c0.4-0.4,1.1-0.9,1.9-1.7c-0.2,0.4-0.3,0.8-0.5,1.2
			c-0.7,1.7-1.7,3.5-2.1,4.2c-0.4,0.7-1.3,2.5-2.4,4.1c-1,1.6-2,3-1.9,3.2c0.1,0.1,0.4-0.1,0.8-0.5c0.4-0.2,1-0.6,1.6-1.1
			c0.9-0.8,1.8-1.9,2.1-2.3c0.3-0.4,0.9-1.4,1.4-2.4c-0.1,0.4-0.2,0.7-0.3,0.9c-0.3,1.1-1.1,4-2.2,6.5c-1,2.6-2.1,4.8-1.8,5.1
			c0.2,0.2,3.7-2.1,5.2-3.2c2.4-1.7,4.9-4,5.8-5c0.2-0.3,0.6-0.7,1-1.2c-0.1,0.2-0.1,0.4-0.2,0.5c-0.4,1.1-0.9,2.1-0.7,2.3
			c0.2,0.2,0.9-0.6,1.6-1.7c0.7-1,1.2-2.3,1.4-2.8c0.1-0.3,0.3-0.8,0.4-1.3c0,1.4-0.1,2.8-0.1,4.3c-0.2,9.3-0.4,18.8-0.4,19.7
			c0,1.9,1.4,2.6,3,2.6c1.7,0,3-0.8,3-2.7c0-0.9-0.5-9.9-1.3-18.9c0.1,0.1,0.1,0.1,0.2,0.2c0.7,1,1.5,1.6,1.7,1.5
			c0.2-0.2-0.4-1.1-0.8-2.1c-0.5-1-0.9-2.2-1-2.6c0,0,0-0.1,0-0.1c0.2,0.2,0.3,0.5,0.4,0.6c0.4,0.5,1.1,1.6,2.1,2.6
			c1,1.1,2.2,2.2,3.5,3.1c1.3,0.9,2.6,1.6,3.5,2c1,0.4,1.7,0.5,1.8,0.2c0.1-0.2-0.7-2.5-0.9-3.7c-0.3-1.6-0.6-3.3-0.8-3.9
			c-0.1-0.3-0.2-0.7-0.3-1.2c0.3,0.3,0.6,0.6,0.9,0.8c0.6,0.5,2.7,2.3,2.9,2.1c0.1-0.1,0.1-1.3-0.1-1.6c-0.2-0.7-0.4-1.6-0.6-2.6
			c-0.3-1.4-0.5-3-0.6-4.1c0.3,0.7,1,1.9,1.9,2.8c1,1.1,2,1.6,2.1,1.4c0.1-0.2-0.4-0.8-1.1-1.7c-0.1-0.3-0.3-0.7-0.4-1.1
			c-0.4-1.2-0.8-2.5-0.9-3c0-0.2-0.1-0.4-0.2-0.8c1.4,1.8,3.1,3.9,4.8,5.7c1.4,1.4,2.7,2.7,3.9,3.7c0.5,0.5,1,0.9,1.5,1.4
			c1.6,1.3,3.1,2.7,4.8,3.9c1.6,1.3,3.3,2.3,4.8,3.3c1.5,1,3,1.7,4.2,2.4c2.5,1.2,4.1,1.8,4.2,1.6
			C599.2,386.9,597.9,386,595.9,384.7z M555.5,244.6L555.5,244.6c0,0,0,0.1,0,0.1C555.5,244.8,555.5,244.7,555.5,244.6
			C555.5,244.7,555.5,244.7,555.5,244.6z"/>
	</g>
	<g>
		<path d="M633.2,388.6c-0.2-0.2-0.3-0.3-0.5-0.5c-1.1-1-2.6-2.4-4.1-3.9c-1.5-1.6-3-3.3-4.3-4.7c-1.3-1.5-2.3-2.7-2.9-3.4
			c-0.6-0.7-1.6-1.9-2.7-3.5c-0.5-0.7-1-1.5-1.5-2.3c0.8,0.9,2.1,2.1,3.5,3c0.9,0.6,1.9,1.1,2.6,1.4c0.7,0.3,1.2,0.4,1.2,0.3
			c0-0.1-0.4-0.4-1-0.8c-0.6-0.4-1.5-1-2.4-1.7c-1.7-1.4-3.4-3.2-3.9-4c-0.1-0.2-0.3-0.4-0.6-0.7c-0.2-0.3-0.5-0.7-0.8-1.1
			c-0.6-0.8-1.2-1.8-1.7-2.8c-0.3-0.5-0.5-1-0.7-1.5c-0.2-0.5-0.4-0.9-0.6-1.3c-0.1-0.2-0.2-0.4-0.3-0.6c0.3,0.3,0.6,0.6,0.8,0.7
			c0.3,0.3,0.9,0.8,1.6,1.4c0.1,0.1,0.1,0.1,0.2,0.2c0.5,0.5,0.9,1,1.4,1.5c1,1,2,1.9,3.1,2.8c1,0.9,2.1,1.7,3.1,2.4
			c1,0.7,2,1.2,2.7,1.7c1.6,0.9,2.7,1.3,2.8,1.1c0.1-0.2-0.9-1-2.3-2.1c-0.4-0.3-1.7-1.6-2-1.9c-1-1.2-2.3-2.7-3.7-4.5
			c-1.3-1.7-2.7-3.6-3.8-5.3c-0.1-0.1-0.2-0.2-0.2-0.4c0.5,0.4,0.9,0.7,1.3,1c0.7,0.4,1.2,0.6,1.2,0.5c0-0.1-0.4-0.4-1-1
			c-0.6-0.5-1.4-1.3-2.2-2.2c-0.6-0.7-1.1-1.4-1.6-2.2c1.2,1,2.4,1.5,2.4,1.3c0.1-0.2-1-1-2.1-2.1c-1.1-1.1-2.1-2.6-2.4-3.1
			c-0.2-0.3-0.5-0.8-0.8-1.4c-0.4-0.9-0.9-2-1.3-3.1c-0.2-0.4-0.3-0.8-0.5-1.1c-0.1-0.3-0.2-0.5-0.2-0.6c0.2,0.2,0.4,0.4,0.5,0.5
			c0.4,0.4,1.4,1.3,2.6,2.2c1.1,1.4,2.4,2.8,3.7,4c1.8,1.7,3.6,3.1,5.1,3.9c0.7,0.4,1.3,0.7,1.8,0.9c0.1,0,0.1,0,0.1,0.1
			c0.6,0.4,1.2,0.8,1.7,1.1c1.8,1.1,3.1,1.5,3.1,1.4c0.1-0.2-1-1-2.7-2.3c-1.6-1.3-3.8-3.2-5.8-5.5c-1-1.2-2-2.4-3-3.7
			c0.9,0.7,1.8,1.2,1.9,1c0.1-0.2-0.8-1-1.7-1.9c-0.9-1-1.8-2.1-2.1-2.5c-0.3-0.4-1.2-1.5-1.9-2.6c-0.1-0.2-0.2-0.3-0.3-0.5
			c0,0,0-0.1,0-0.1c0.1,0.1,0.1,0.1,0.2,0.2c0.6,0.7,1.5,1.5,2.3,2.2c1.6,1.3,3.1,2.3,3.2,2.2c0.1-0.2-1.3-1.4-2.7-2.9
			c-0.7-0.7-1.5-1.5-2-2.3c-0.6-0.7-1-1.4-1.2-1.7c-0.2-0.4-0.6-1-1.1-1.8c-0.4-0.8-0.9-1.8-1.3-2.8c-0.2-0.5-0.4-0.9-0.6-1.4
			c0.5,0.5,1,0.9,1.3,1.1c1.3,1.1,6.5,5.1,8.4,5.9c0.4,0.3,0.8,0.6,1.2,0.9c0.2,0.1,0.4,0.3,0.6,0.4c0.8,0.8,1.7,1.5,2.4,2
			c1.6,1.1,2.8,1.4,2.9,1.2c0.1-0.2-0.8-0.7-2-1.7c0-0.1-0.2-0.2-0.4-0.4c-0.7-0.6-1.4-1.4-2.2-2.4c-0.8-0.9-1.7-1.9-2.6-3
			c-1.7-2.2-3.4-4.5-4.8-6.6c-0.3-0.5-0.6-1-0.9-1.5c-0.1-0.1-0.1-0.2-0.2-0.4c0.4,0.6,1,1.3,1.5,1.8c0.6,0.7,1.3,1.2,1.8,1.5
			c0.5,0.3,0.9,0.5,0.9,0.4c0-0.1-0.2-0.4-0.7-0.8c-0.4-0.4-1-1-1.5-1.7c-1.1-1.3-2-3.1-2.4-3.7c-0.4-0.6-1.3-2.3-2-3.9
			c0,0,0-0.1,0-0.1c0.1,0.1,0.1,0.2,0.2,0.2c0.7,0.7,2.6,2.6,4.5,4c0.4,0.3,0.8,0.6,1.2,0.8c3.7,4.2,7.6,7,7.8,6.7
			c0.2-0.4-3.5-3.7-6.9-8.2c-0.5-0.6-0.9-1.2-1.4-1.9c-0.2-0.4-0.5-1-0.8-1.6c-0.6-1.3-1.5-2.9-2.4-4.7c1,1.2,2.2,2,2.3,1.9
			c0.1-0.2-0.9-1.2-1.7-2.6c-0.9-1.3-1.7-3-2-3.6c-0.3-0.6-1-2.2-1.4-3.8c0,0,0-0.1,0-0.1c0.9,1,3,3,5.2,4.5
			c1.3,0.9,2.6,1.6,3.5,1.9c0.8,0.5,1.4,0.7,1.4,0.6c0-0.1,0-0.2-0.2-0.4c0-0.2-0.6-0.8-1.4-1.5c-1-1.1-2.4-2.5-3.7-4.2
			c-0.7-0.8-1.3-1.7-2-2.6c-0.3-0.4-0.6-0.9-0.9-1.3c-0.3-0.4-0.6-0.8-0.8-1.3c-1-1.6-1.8-3.1-2.3-3.9c-0.2-0.4-0.5-0.9-0.8-1.6
			c-0.3-0.7-0.7-1.5-1.1-2.3c-0.8-1.8-1.7-3.9-2.3-5.9c-0.3-0.7-0.5-1.4-0.7-2.1c0.1,0.4,0.3,0.7,0.4,1.1c0.3,0.8,0.6,1.5,0.9,2.1
			c0.3,0.6,0.5,1.1,0.7,1.4c0.2,0.3,0.4,0.7,0.7,1.2c0.2,0.6,0.4,1,0.5,1.3c0.3,0.6,1.1,2.3,2,3.8c0.9,1.5,1.8,2.6,2,2.5
			c0.1-0.1-0.6-1.5-1.3-3c-0.1-0.1-0.1-0.2-0.2-0.3c0.6,0.7,1.2,1.3,1.8,1.9c1.3,1.3,2.6,2.3,3.7,2.9c1.1,0.6,1.8,0.9,1.8,0.7
			c0.1-0.2-0.5-0.8-1.3-1.6c-0.8-0.9-2-2-3.1-3.4c-0.6-0.7-1.1-1.4-1.6-2.1c-0.5-0.7-1-1.4-1.4-2.1c-0.9-1.3-1.5-2.5-1.8-3.1
			c-0.2-0.3-0.4-0.8-0.7-1.3c-0.3-0.5-0.6-1.2-0.9-1.9c-0.2-0.5-0.4-1-0.6-1.5c0.9,0.7,1.8,1.1,1.8,0.9c0.1-0.2-0.7-0.8-1.4-1.6
			c-0.6-0.7-1.2-1.5-1.5-1.9c-0.1-0.2-0.2-0.5-0.2-0.7c-0.3-0.8-0.5-1.7-0.7-2.5c-0.2-0.8-0.4-1.5-0.5-2.1c-0.2-0.7-0.3-1.3-0.4-1.6
			c-0.1-0.4-0.3-0.9-0.5-0.9c-0.2,0-0.3,0.3-0.3,0.7c-0.1,0.3-0.3,1-0.5,1.8c-0.2,0.6-0.3,1.3-0.5,2.1c-0.1,0.4-0.2,0.8-0.4,1.3
			c-0.5,0.8-0.9,1.6-1.1,1.9c-0.3,0.5-1.1,1.7-1.9,2.7c-0.8,1-1.7,1.8-1.6,2c0.1,0.2,1.1-0.4,2.1-1.3c0.4-0.4,0.8-0.8,1.2-1.2
			c-0.3,0.7-0.6,1.4-0.8,2c-0.3,0.7-0.6,1.4-0.9,1.9c-0.3,0.5-0.5,1-0.7,1.3c-0.3,0.6-1,1.8-1.8,3.1c-0.4,0.7-0.9,1.4-1.4,2.1
			c-0.5,0.7-1.1,1.4-1.6,2.1c-1.1,1.4-2.3,2.5-3.1,3.4c-0.9,0.8-1.4,1.4-1.3,1.6c0.1,0.2,0.8-0.1,1.9-0.7c1-0.7,2.4-1.6,3.7-2.9
			c0.7-0.6,1.3-1.3,1.9-2c-0.7,1.4-1.4,2.7-1.2,2.8c0.1,0.1,1-1,1.9-2.3c0.9-1.4,1.7-3,1.9-3.6c0.1-0.2,0.3-0.6,0.5-1.1
			c0.3-0.4,0.5-0.8,0.6-1.1c0.2-0.3,0.4-0.8,0.7-1.4c0.3-0.6,0.6-1.3,0.9-2.1c0.1-0.4,0.3-0.7,0.4-1.1c-0.2,0.7-0.4,1.4-0.7,2.1
			c-0.6,2.1-1.5,4.2-2.3,5.9c-0.4,0.9-0.8,1.7-1.1,2.3c-0.3,0.7-0.6,1.2-0.8,1.6c-0.4,0.8-1.2,2.2-2.2,3.9c-0.2,0.4-0.5,0.8-0.8,1.3
			c-0.3,0.4-0.6,0.9-0.9,1.3c-0.6,0.9-1.3,1.8-2,2.6c-1.3,1.7-2.7,3.1-3.7,4.2c-0.9,0.8-1.5,1.3-1.4,1.5c-0.2,0.2-0.2,0.4-0.2,0.4
			c0.1,0.1,3.6-1.6,4.9-2.5c2.3-1.5,4.6-3.7,5.3-4.6c0.1-0.1,0.2-0.2,0.3-0.4c-0.1,0.2-0.3,0.4-0.4,0.7c-0.7,1.2-1.6,2.5-2,3
			c-0.3,0.5-1.2,1.8-2.1,3c-0.9,1.2-1.7,2.2-1.6,2.3c0.1,0.2,1.1-0.6,2.1-1.7c0.6-0.6,1.2-1.3,1.6-1.9c-0.5,0.9-1.2,2.1-2,3.3
			c-1,1.6-2.1,2.8-2,3c0.1,0.1,1.3-0.9,2.5-2.3c-0.8,1.6-1.6,3-2.1,4.1c-0.4,0.7-0.6,1.2-0.8,1.6c-0.5,0.6-0.9,1.3-1.4,1.9
			c-0.7,1-1.5,1.9-2.2,2.7c-0.2,0.3-0.4,0.5-0.6,0.7c-2.4,2.7-4.3,4.5-4.1,4.8c0.1,0.3,7.2-5.7,7.5-5.9c1.8-1.3,3.8-2.9,4.4-3.6
			c0.3-0.3,0.9-0.9,1.6-1.7c-0.1,0.2-0.2,0.5-0.3,0.7c-0.7,1.4-1.6,2.9-1.9,3.5c-0.3,0.6-1.3,2.1-2.2,3.4c-0.9,1.3-1.9,2.4-1.8,2.5
			c0.1,0.2,1.3-0.7,2.4-1.9c0.5-0.5,0.9-1.1,1.3-1.6c-0.2,0.4-0.5,0.8-0.8,1.2c-1.4,2.1-3.1,4.5-4.8,6.6c-0.9,1.1-1.7,2.1-2.6,3
			c-0.3,0.3-4.6,4.3-4.6,4.5c0,0.2,1.3,0,2.9-1.2c0.3-0.2,2.7-1.8,3.5-2.3c2.6-1.7,5.3-3.9,6.2-4.7c0.9-0.8,3.1-3,5-5.3
			c-0.1,0.2-0.2,0.5-0.3,0.8c-0.3,0.8-0.9,1.5-1.1,1.8c-0.2,0.3-0.8,1.1-1.4,1.8c-0.6,0.7-1.2,1.3-1.1,1.5c0.1,0.2,0.8-0.2,1.5-0.8
			c0.2-0.1,0.3-0.3,0.5-0.4c-0.4,0.8-1.1,2-1.8,3.1c-0.9,1.4-1.9,2.6-1.8,2.7c0.1,0.1,0.9-0.5,1.8-1.5c-0.9,1.8-1.9,3.7-3.1,5.5
			c-0.2,0.4-0.5,0.8-0.8,1.3c-1.2,1.7-2.5,3.4-3.9,5c-2,2.3-4.2,4.2-5.8,5.5c-1.6,1.3-2.7,2.1-2.7,2.3c0.1,0.2,1.3-0.3,3.1-1.4
			c0.5-0.3,2.9-1.6,3.6-2.1c1.2-0.7,2.7-1.7,4.2-3c2.3-1.7,4.4-3.8,5.3-4.6c0.5-0.5,1.3-1.4,2.2-2.5c0.4-0.5,0.8-1,1.2-1.5
			c-0.2,0.5-0.5,1.1-0.7,1.6c-0.4,0.9-0.9,1.8-1.4,2.6c-0.5,0.8-0.9,1.4-1.1,1.7c-0.4,0.7-1.7,2.6-3,4c-1.3,1.5-2.6,2.7-2.5,2.9
			c0.1,0.2,1.6-0.8,3-2.2c0.2-0.2,0.4-0.4,0.5-0.5c-0.4,0.6-0.7,1.2-0.9,1.6c-0.5,0.8-1.3,2.2-2.4,3.9c-1.1,1.7-2.4,3.6-3.8,5.3
			c-1.3,1.7-2.7,3.3-3.7,4.5c-0.3,0.3-0.6,0.6-0.8,0.9c-0.4,0.4-0.9,0.7-1.2,1c-1.5,1.1-2.4,1.9-2.3,2.1c0.1,0.2,1.2-0.3,2.8-1.1
			c0.8-0.5,1.7-1,2.7-1.7c1-0.7,2.1-1.5,3.1-2.4c1.1-0.8,2.1-1.8,3.1-2.8c0.5-0.5,1-1,1.4-1.5c0.1-0.1,0.1-0.1,0.2-0.2
			c0.7-0.6,1.3-1.1,1.6-1.4c0.8-0.7,2.8-2.8,4.5-4.9c-0.3,0.6-0.6,1.3-0.9,2c-0.5,1-1,2-1.5,2.9c-0.5,0.9-1,1.6-1.2,1.9
			c-0.5,0.8-1.9,2.8-3.4,4.5c-1.5,1.7-3,2.9-2.9,3.1c0.1,0.2,1.7-0.8,3.3-2.4c-1.5,2.1-2.8,3.8-3.4,4.7c-0.6,0.8-1.7,2.2-3,3.9
			c-0.7,0.8-1.4,1.7-2.2,2.6c-0.8,0.9-1.5,1.8-2.3,2.6c-2.8,2.9-5.7,5.1-6.3,5.8c-0.1,0.1-0.2,0.2-0.4,0.3c-1.8,1.2-3,2-2.9,2.2
			c0.1,0.2,1.4-0.3,3.3-1.2c1-0.5,2.1-1.1,3.3-1.8c1.1-0.7,2.2-1.4,3.3-2.2c0.4-0.3,0.9-0.5,1.4-0.8c1.6-1,3.3-2.1,4.7-3.2
			c1.4-1,2.6-2,3.2-2.5c0.7-0.6,2.2-1.9,3.8-3.5c0.4-0.3,0.8-0.6,1-0.8c0.3-0.3,0.9-0.7,1.5-1.3c-0.1,0.3-0.3,0.6-0.4,0.9
			c-0.6,1.4-1.3,2.8-1.6,3.3c-0.3,0.5-1.1,2-1.9,3.2c-0.8,1.3-1.6,2.3-1.5,2.5c0.1,0.1,0.3-0.1,0.6-0.4c0.3-0.1,0.8-0.5,1.2-0.9
			c0.7-0.6,1.5-1.5,1.7-1.8c0.2-0.3,0.7-1.1,1.1-1.9c-0.1,0.3-0.2,0.6-0.2,0.7c-0.2,0.8-0.9,3.1-1.7,5c-0.8,2-1.7,3.7-1.4,4
			c0.1,0.1,2.9-1.6,4.1-2.5c1.9-1.3,3.9-3.1,4.6-3.9c0.2-0.2,0.5-0.5,0.8-1c-0.1,0.1-0.1,0.3-0.2,0.4c-0.3,0.9-0.7,1.7-0.6,1.8
			c0.1,0.1,0.7-0.5,1.2-1.3c0.5-0.8,1-1.8,1.1-2.2c0.1-0.2,0.2-0.6,0.3-1c0,1.1-0.1,2.2-0.1,3.3c-0.2,7.2-0.3,14.6-0.3,15.4
			c0,1.5,1.1,2,2.4,2c1.3,0,2.4-0.7,2.3-2.1c0-0.7-0.4-7.7-1-14.7c0,0.1,0.1,0.1,0.1,0.2c0.6,0.8,1.2,1.3,1.3,1.1
			c0.1-0.1-0.3-0.8-0.7-1.6c-0.4-0.8-0.7-1.7-0.8-2.1c0,0,0,0,0-0.1c0.1,0.2,0.2,0.4,0.3,0.5c0.3,0.4,0.9,1.2,1.7,2.1
			c0.8,0.8,1.8,1.7,2.8,2.4c1,0.7,2,1.3,2.8,1.6c0.8,0.3,1.3,0.4,1.4,0.2c0-0.1-0.5-1.9-0.7-2.9c-0.3-1.2-0.5-2.6-0.6-3.1
			c0-0.2-0.1-0.5-0.2-0.9c0.2,0.2,0.5,0.4,0.7,0.6c0.5,0.4,2.1,1.8,2.3,1.6c0.1-0.1,0.1-1-0.1-1.3c-0.1-0.6-0.3-1.3-0.4-2
			c-0.2-1.1-0.4-2.3-0.5-3.2c0.3,0.5,0.8,1.5,1.5,2.2c0.8,0.8,1.6,1.3,1.7,1.1c0.1-0.1-0.4-0.7-0.8-1.3c-0.1-0.3-0.2-0.5-0.3-0.9
			c-0.4-0.9-0.6-1.9-0.7-2.3c0-0.1-0.1-0.3-0.1-0.6c1.1,1.4,2.4,3,3.8,4.4c1.1,1.1,2.2,2.1,3.1,2.9c0.4,0.4,0.8,0.7,1.2,1.1
			c1.2,1,2.5,2.1,3.8,3c1.3,1,2.6,1.8,3.8,2.5c1.2,0.7,2.4,1.3,3.3,1.8c2,0.9,3.3,1.4,3.3,1.2C635.8,390.3,634.8,389.6,633.2,388.6z
			 M601.2,279.6L601.2,279.6C601.2,279.6,601.2,279.6,601.2,279.6C601.2,279.6,601.2,279.6,601.2,279.6
			C601.2,279.6,601.2,279.6,601.2,279.6z"/>
	</g>
	<g>
		<path d="M540,392.8c-0.2-0.1-0.3-0.3-0.5-0.5c-1.1-0.9-2.4-2.2-3.8-3.7c-1.4-1.5-2.8-3.1-4.1-4.5c-1.2-1.4-2.2-2.6-2.7-3.2
			c-0.5-0.6-1.5-1.8-2.5-3.3c-0.5-0.7-1-1.4-1.5-2.2c0.8,0.8,2,2,3.2,2.8c0.9,0.6,1.8,1,2.4,1.3c0.7,0.3,1.1,0.4,1.1,0.3
			c0-0.1-0.4-0.4-1-0.7c-0.6-0.4-1.4-0.9-2.2-1.6c-1.6-1.3-3.2-3-3.7-3.7c-0.1-0.2-0.3-0.4-0.6-0.7c-0.2-0.3-0.5-0.6-0.8-1
			c-0.5-0.8-1.1-1.7-1.6-2.7c-0.3-0.5-0.5-0.9-0.7-1.4c-0.2-0.4-0.4-0.8-0.5-1.2c-0.1-0.2-0.2-0.4-0.2-0.6c0.3,0.3,0.5,0.5,0.7,0.7
			c0.3,0.3,0.9,0.8,1.5,1.4c0.1,0.1,0.1,0.1,0.2,0.2c0.4,0.5,0.9,0.9,1.3,1.4c0.9,0.9,1.9,1.8,2.9,2.6c1,0.9,2,1.6,2.9,2.2
			c0.9,0.7,1.8,1.2,2.6,1.6c1.5,0.8,2.6,1.2,2.6,1.1c0.1-0.2-0.8-0.9-2.2-1.9c-0.4-0.3-1.6-1.5-1.9-1.8c-0.9-1.1-2.2-2.6-3.4-4.2
			c-1.3-1.6-2.5-3.4-3.5-5c-0.1-0.1-0.1-0.2-0.2-0.3c0.5,0.4,0.9,0.7,1.3,0.9c0.7,0.4,1.1,0.6,1.2,0.5c0-0.1-0.4-0.4-0.9-0.9
			c-0.6-0.5-1.3-1.2-2.1-2.1c-0.6-0.6-1.1-1.4-1.5-2.1c1.1,0.9,2.2,1.4,2.3,1.2c0.1-0.2-1-0.9-2-2c-1-1-1.9-2.4-2.3-2.9
			c-0.2-0.3-0.5-0.7-0.8-1.3c-0.4-0.9-0.8-1.9-1.2-2.9c-0.2-0.4-0.3-0.7-0.4-1.1c-0.1-0.2-0.2-0.4-0.2-0.6c0.2,0.2,0.4,0.4,0.5,0.5
			c0.4,0.4,1.3,1.3,2.5,2.1c1,1.3,2.2,2.6,3.5,3.7c1.7,1.6,3.4,2.9,4.8,3.6c0.7,0.4,1.3,0.7,1.7,0.8c0,0,0.1,0,0.1,0.1
			c0.6,0.4,1.1,0.8,1.6,1.1c1.7,1,2.9,1.4,3,1.3c0.1-0.2-1-0.9-2.5-2.1c-1.5-1.2-3.5-3-5.5-5.2c-1-1.1-1.9-2.3-2.8-3.5
			c0.9,0.7,1.7,1.1,1.8,1c0.1-0.2-0.7-0.9-1.6-1.8c-0.8-0.9-1.7-2-2-2.4c-0.3-0.4-1.1-1.5-1.8-2.5c-0.1-0.2-0.2-0.3-0.3-0.5
			c0,0,0-0.1,0-0.1c0.1,0.1,0.1,0.1,0.2,0.2c0.6,0.7,1.4,1.4,2.1,2.1c1.5,1.3,3,2.2,3,2c0.1-0.2-1.2-1.3-2.6-2.7
			c-0.7-0.7-1.4-1.4-1.9-2.1c-0.6-0.7-1-1.3-1.2-1.6c-0.2-0.3-0.6-0.9-1-1.7c-0.4-0.8-0.9-1.7-1.2-2.6c-0.2-0.4-0.4-0.9-0.5-1.3
			c0.5,0.5,0.9,0.9,1.2,1.1c1.2,1,6.1,4.8,7.9,5.5c0.4,0.3,0.8,0.6,1.1,0.8c0.2,0.1,0.4,0.3,0.6,0.4c0.8,0.7,1.6,1.4,2.3,1.9
			c1.5,1.1,2.7,1.3,2.7,1.1c0-0.2-0.8-0.6-1.9-1.6c0-0.1-0.2-0.2-0.4-0.4c-0.6-0.6-1.3-1.4-2.1-2.2c-0.8-0.9-1.6-1.8-2.4-2.8
			c-1.6-2-3.2-4.3-4.5-6.3c-0.3-0.5-0.6-1-0.9-1.4c-0.1-0.1-0.1-0.2-0.2-0.4c0.4,0.6,0.9,1.2,1.5,1.7c0.6,0.6,1.2,1.1,1.7,1.4
			c0.5,0.3,0.8,0.4,0.9,0.4c0-0.1-0.2-0.4-0.6-0.8c-0.4-0.4-0.9-1-1.4-1.6c-1-1.3-1.9-2.9-2.3-3.5c-0.3-0.6-1.2-2.2-1.9-3.7
			c0,0,0-0.1,0-0.1c0.1,0.1,0.1,0.2,0.2,0.2c0.6,0.7,2.4,2.5,4.2,3.8c0.4,0.3,0.7,0.5,1.1,0.8c3.5,4,7.2,6.6,7.4,6.3
			c0.2-0.3-3.3-3.4-6.5-7.7c-0.4-0.6-0.9-1.2-1.3-1.8c-0.2-0.4-0.4-0.9-0.8-1.5c-0.6-1.2-1.4-2.7-2.3-4.4c1,1.2,2,1.9,2.1,1.8
			c0.1-0.2-0.8-1.2-1.6-2.4c-0.9-1.3-1.6-2.8-1.8-3.4c-0.3-0.6-0.9-2.1-1.4-3.6c0,0,0-0.1,0-0.1c0.8,0.9,2.8,2.8,4.9,4.2
			c1.2,0.8,2.4,1.5,3.3,1.8c0.8,0.5,1.3,0.7,1.3,0.6c0-0.1,0-0.2-0.2-0.4c0-0.2-0.5-0.7-1.3-1.4c-1-1-2.3-2.4-3.5-3.9
			c-0.6-0.8-1.3-1.6-1.9-2.4c-0.3-0.4-0.6-0.8-0.9-1.2c-0.3-0.4-0.5-0.8-0.8-1.2c-1-1.5-1.7-2.9-2.1-3.6c-0.2-0.4-0.5-0.9-0.8-1.5
			c-0.3-0.6-0.7-1.4-1.1-2.2c-0.7-1.7-1.6-3.6-2.2-5.6c-0.2-0.7-0.4-1.3-0.6-2c0.1,0.4,0.2,0.7,0.4,1c0.3,0.7,0.6,1.4,0.8,2
			c0.3,0.6,0.5,1,0.7,1.3c0.2,0.3,0.4,0.7,0.7,1.2c0.2,0.5,0.4,1,0.5,1.2c0.3,0.6,1.1,2.2,1.9,3.6c0.8,1.4,1.7,2.5,1.8,2.4
			c0.1-0.1-0.5-1.4-1.2-2.8c0-0.1-0.1-0.2-0.2-0.3c0.6,0.6,1.1,1.2,1.7,1.8c1.2,1.2,2.5,2.1,3.5,2.7c1,0.6,1.7,0.9,1.7,0.7
			c0.1-0.2-0.4-0.7-1.3-1.5c-0.8-0.8-1.9-1.9-2.9-3.2c-0.5-0.6-1-1.3-1.5-2c-0.5-0.7-0.9-1.3-1.3-2c-0.8-1.3-1.4-2.4-1.7-3
			c-0.2-0.3-0.4-0.7-0.6-1.2c-0.3-0.5-0.5-1.1-0.9-1.8c-0.2-0.4-0.4-0.9-0.6-1.4c0.8,0.7,1.7,1,1.7,0.9c0.1-0.2-0.6-0.8-1.3-1.5
			c-0.6-0.6-1.1-1.4-1.4-1.8c-0.1-0.2-0.2-0.5-0.2-0.7c-0.3-0.8-0.5-1.6-0.7-2.3c-0.2-0.7-0.3-1.4-0.5-2c-0.1-0.7-0.3-1.2-0.4-1.5
			c-0.1-0.4-0.3-0.8-0.4-0.8c-0.1,0-0.2,0.3-0.3,0.6c-0.1,0.3-0.3,0.9-0.5,1.7c-0.2,0.6-0.3,1.3-0.5,2c-0.1,0.4-0.2,0.8-0.3,1.2
			c-0.4,0.8-0.9,1.5-1.1,1.8c-0.3,0.4-1,1.6-1.8,2.5c-0.8,1-1.6,1.7-1.5,1.9c0.1,0.2,1.1-0.4,2-1.2c0.4-0.3,0.8-0.7,1.1-1.1
			c-0.3,0.7-0.5,1.3-0.8,1.9c-0.3,0.7-0.6,1.3-0.9,1.8c-0.3,0.5-0.5,0.9-0.7,1.2c-0.3,0.6-0.9,1.7-1.7,3c-0.4,0.6-0.9,1.3-1.3,2
			c-0.5,0.7-1,1.3-1.5,2c-1,1.3-2.1,2.3-2.9,3.2c-0.8,0.8-1.3,1.3-1.3,1.5c0.1,0.2,0.8-0.1,1.7-0.7c1-0.6,2.2-1.5,3.4-2.7
			c0.6-0.6,1.2-1.2,1.8-1.9c-0.6,1.3-1.3,2.5-1.2,2.6c0.1,0.1,1-0.9,1.8-2.2c0.8-1.3,1.6-2.8,1.8-3.4c0.1-0.2,0.3-0.6,0.4-1.1
			c0.2-0.4,0.5-0.8,0.6-1c0.2-0.3,0.4-0.8,0.7-1.3c0.3-0.6,0.5-1.2,0.8-2c0.1-0.3,0.2-0.7,0.4-1c-0.2,0.6-0.4,1.3-0.6,2
			c-0.6,2-1.4,3.9-2.2,5.6c-0.4,0.8-0.7,1.6-1.1,2.2c-0.3,0.6-0.6,1.1-0.8,1.5c-0.4,0.7-1.1,2.1-2.1,3.6c-0.2,0.4-0.5,0.8-0.8,1.2
			c-0.3,0.4-0.5,0.8-0.8,1.2c-0.6,0.8-1.2,1.7-1.9,2.4c-1.2,1.6-2.6,2.9-3.5,3.9c-0.8,0.7-1.4,1.2-1.3,1.4c-0.2,0.2-0.2,0.4-0.2,0.4
			c0.1,0.1,3.4-1.5,4.6-2.4c2.2-1.4,4.3-3.5,5-4.4c0.1-0.1,0.2-0.2,0.3-0.4c-0.1,0.2-0.2,0.4-0.4,0.6c-0.7,1.1-1.5,2.3-1.8,2.8
			c-0.3,0.5-1.1,1.7-2,2.8c-0.8,1.1-1.6,2-1.5,2.2c0.1,0.1,1.1-0.6,2-1.6c0.6-0.6,1.1-1.2,1.5-1.8c-0.4,0.8-1.1,2-1.8,3.1
			c-1,1.5-2,2.6-1.9,2.8c0.1,0.1,1.2-0.8,2.4-2.1c-0.7,1.5-1.5,2.8-2,3.9c-0.3,0.6-0.6,1.2-0.8,1.5c-0.4,0.6-0.9,1.2-1.3,1.8
			c-0.7,0.9-1.4,1.8-2.1,2.6c-0.2,0.2-0.4,0.5-0.5,0.6c-2.2,2.5-4,4.2-3.9,4.5c0.1,0.3,6.8-5.3,7.1-5.6c1.7-1.2,3.5-2.8,4.2-3.4
			c0.3-0.3,0.9-0.9,1.5-1.6c-0.1,0.2-0.2,0.4-0.3,0.7c-0.7,1.4-1.5,2.8-1.8,3.3c-0.3,0.5-1.2,2-2.1,3.2c-0.9,1.2-1.8,2.2-1.7,2.4
			c0.1,0.1,1.2-0.7,2.2-1.8c0.5-0.5,0.9-1,1.3-1.5c-0.2,0.4-0.5,0.8-0.7,1.2c-1.3,2-2.9,4.2-4.6,6.3c-0.8,1-1.6,2-2.4,2.8
			c-0.3,0.3-4.3,4-4.3,4.2c0,0.2,1.2,0,2.7-1.1c0.3-0.2,2.5-1.7,3.3-2.2c2.4-1.6,4.9-3.6,5.8-4.4c0.9-0.8,2.9-2.8,4.8-5
			c-0.1,0.2-0.2,0.5-0.3,0.7c-0.3,0.8-0.9,1.5-1.1,1.7c-0.2,0.3-0.8,1-1.3,1.7c-0.6,0.7-1.1,1.2-1,1.4c0.1,0.2,0.8-0.2,1.5-0.7
			c0.2-0.1,0.3-0.2,0.5-0.4c-0.4,0.7-1,1.9-1.7,2.9c-0.9,1.3-1.8,2.4-1.7,2.6c0.1,0.1,0.9-0.5,1.7-1.4c-0.9,1.7-1.8,3.5-2.9,5.1
			c-0.2,0.4-0.5,0.8-0.7,1.2c-1.1,1.6-2.4,3.2-3.7,4.7c-1.9,2.1-3.9,3.9-5.5,5.2c-1.5,1.2-2.6,2-2.5,2.1c0.1,0.2,1.2-0.3,3-1.3
			c0.5-0.3,2.8-1.5,3.4-1.9c1.1-0.6,2.5-1.6,3.9-2.9c2.2-1.6,4.2-3.5,4.9-4.4c0.4-0.5,1.2-1.3,2.1-2.4c0.4-0.5,0.7-0.9,1.1-1.4
			c-0.2,0.5-0.4,1-0.7,1.5c-0.4,0.9-0.9,1.7-1.3,2.5c-0.4,0.7-0.8,1.3-1,1.6c-0.4,0.7-1.6,2.4-2.8,3.8c-1.2,1.4-2.5,2.5-2.4,2.7
			c0.1,0.2,1.5-0.7,2.9-2.1c0.2-0.2,0.3-0.3,0.5-0.5c-0.4,0.6-0.6,1.1-0.9,1.5c-0.4,0.7-1.2,2.1-2.3,3.6c-1,1.6-2.3,3.3-3.5,5
			c-1.2,1.6-2.5,3.1-3.4,4.2c-0.3,0.3-0.5,0.6-0.7,0.9c-0.4,0.3-0.8,0.6-1.2,0.9c-1.4,1-2.3,1.8-2.2,1.9c0.1,0.2,1.1-0.3,2.6-1.1
			c0.7-0.5,1.6-1,2.6-1.6c0.9-0.7,1.9-1.4,2.9-2.2c1-0.8,2-1.7,2.9-2.6c0.5-0.4,0.9-0.9,1.3-1.4c0-0.1,0.1-0.1,0.2-0.2
			c0.7-0.6,1.2-1.1,1.5-1.4c0.8-0.7,2.7-2.6,4.2-4.6c-0.2,0.6-0.5,1.2-0.8,1.9c-0.4,1-1,1.9-1.4,2.7c-0.5,0.8-0.9,1.5-1.1,1.8
			c-0.5,0.7-1.8,2.7-3.2,4.2c-1.4,1.6-2.8,2.8-2.7,2.9c0.1,0.2,1.6-0.8,3.1-2.2c-1.4,2-2.6,3.6-3.2,4.4c-0.6,0.7-1.6,2.1-2.8,3.7
			c-0.6,0.8-1.3,1.6-2.1,2.4c-0.7,0.8-1.5,1.7-2.2,2.5c-2.6,2.7-5.3,4.8-5.9,5.5c-0.1,0.1-0.2,0.2-0.3,0.2c-1.7,1.1-2.8,1.9-2.7,2
			c0.1,0.2,1.3-0.3,3.1-1.1c0.9-0.5,2-1,3.1-1.7c1-0.6,2.1-1.3,3.1-2.1c0.4-0.2,0.9-0.5,1.3-0.8c1.5-0.9,3.1-2,4.5-3
			c1.3-1,2.4-1.9,3-2.3c0.7-0.6,2.1-1.8,3.6-3.3c0.4-0.3,0.7-0.6,1-0.8c0.3-0.3,0.8-0.7,1.4-1.2c-0.1,0.3-0.2,0.6-0.4,0.9
			c-0.6,1.3-1.3,2.6-1.5,3.1c-0.3,0.5-1,1.9-1.8,3c-0.8,1.2-1.5,2.2-1.4,2.3c0,0.1,0.3-0.1,0.6-0.3c0.3-0.1,0.7-0.4,1.2-0.8
			c0.7-0.6,1.4-1.4,1.6-1.7c0.2-0.3,0.7-1,1.1-1.8c-0.1,0.3-0.2,0.5-0.2,0.7c-0.2,0.8-0.8,2.9-1.6,4.8c-0.7,1.9-1.6,3.5-1.3,3.7
			c0.1,0.1,2.8-1.5,3.9-2.3c1.8-1.2,3.7-2.9,4.3-3.6c0.2-0.2,0.4-0.5,0.7-0.9c-0.1,0.1-0.1,0.3-0.2,0.4c-0.3,0.8-0.7,1.6-0.5,1.7
			c0.1,0.1,0.7-0.5,1.2-1.2c0.5-0.8,0.9-1.7,1.1-2.1c0.1-0.2,0.2-0.6,0.3-1c0,1-0.1,2.1-0.1,3.1c-0.2,6.8-0.3,13.8-0.3,14.5
			c0,1.4,1,1.9,2.3,1.9c1.2,0,2.2-0.6,2.2-2c0-0.7-0.3-7.2-1-13.8c0,0.1,0.1,0.1,0.1,0.2c0.5,0.7,1.1,1.2,1.2,1.1
			c0.1-0.1-0.3-0.8-0.6-1.6c-0.4-0.8-0.7-1.6-0.8-1.9c0,0,0,0,0-0.1c0.1,0.2,0.2,0.3,0.3,0.5c0.3,0.4,0.9,1.1,1.6,1.9
			c0.8,0.8,1.7,1.6,2.6,2.3c0.9,0.7,1.9,1.2,2.6,1.5c0.7,0.3,1.2,0.4,1.3,0.2c0-0.1-0.5-1.8-0.7-2.7c-0.3-1.2-0.5-2.4-0.6-2.9
			c0-0.2-0.1-0.5-0.2-0.9c0.2,0.2,0.4,0.4,0.7,0.6c0.4,0.4,2,1.7,2.1,1.5c0.1-0.1,0.1-0.9,0-1.2c-0.1-0.5-0.3-1.2-0.4-1.9
			c-0.2-1.1-0.4-2.2-0.4-3c0.2,0.5,0.8,1.4,1.4,2c0.7,0.8,1.5,1.2,1.6,1.1c0.1-0.1-0.3-0.6-0.8-1.3c-0.1-0.2-0.2-0.5-0.3-0.8
			c-0.3-0.9-0.6-1.8-0.7-2.2c0-0.1-0.1-0.3-0.1-0.6c1,1.4,2.3,2.9,3.6,4.2c1,1.1,2,2,2.9,2.7c0.4,0.3,0.7,0.7,1.1,1
			c1.2,1,2.3,2,3.6,2.8c1.2,0.9,2.4,1.7,3.5,2.4c1.1,0.7,2.2,1.2,3.1,1.7c1.9,0.9,3.1,1.3,3.1,1.1
			C542.4,394.5,541.5,393.8,540,392.8z M509.9,290.2L509.9,290.2C509.9,290.3,509.9,290.3,509.9,290.2
			C509.9,290.3,509.9,290.3,509.9,290.2C509.9,290.3,509.9,290.2,509.9,290.2z"/>
	</g>
</g>
</svg>
