<?xml version="1.0" encoding="utf-8"?>
<!-- Generator: Adobe Illustrator 26.5.0, SVG Export Plug-In . SVG Version: 6.00 Build 0)  -->
<svg version="1.1" id="Layer_1" xmlns="http://www.w3.org/2000/svg" xmlns:xlink="http://www.w3.org/1999/xlink" x="0px" y="0px"
	 viewBox="0 0 1000 1000" style="enable-background:new 0 0 1000 1000;" xml:space="preserve">
<style type="text/css">
	.st0{fill:#010101;}
</style>
<g>
	<g>
		<g>
			<path d="M199.9,409.2c-0.2-0.2-0.5-0.4-0.7-0.6c-1.4-1.3-3.3-3.1-5.3-5.2c-1.9-2.1-3.9-4.3-5.6-6.2c-1.7-1.9-3-3.6-3.7-4.5
				c-0.7-0.9-2-2.5-3.5-4.6c-0.7-0.9-1.3-1.9-2-3c1.1,1.2,2.7,2.8,4.5,3.9c1.2,0.8,2.4,1.5,3.3,1.9c0.9,0.4,1.5,0.5,1.6,0.4
				c0-0.1-0.5-0.5-1.3-1c-0.8-0.6-1.9-1.3-3.1-2.2c-2.2-1.8-4.3-4.3-5.1-5.2c-0.2-0.2-0.4-0.6-0.8-1c-0.3-0.4-0.7-0.9-1-1.4
				c-0.7-1.1-1.6-2.4-2.2-3.7c-0.4-0.6-0.7-1.3-1-1.9c-0.3-0.6-0.5-1.2-0.7-1.7c-0.1-0.3-0.2-0.6-0.3-0.8c0.4,0.4,0.8,0.8,1,1
				c0.4,0.4,1.2,1.1,2.1,1.9c0.1,0.1,0.1,0.2,0.2,0.2c0.6,0.6,1.2,1.3,1.8,1.9c1.3,1.3,2.6,2.6,4,3.7c1.3,1.2,2.7,2.2,4,3.1
				c1.3,0.9,2.5,1.6,3.5,2.3c2.1,1.1,3.5,1.7,3.6,1.5c0.1-0.2-1.1-1.3-3-2.7c-0.5-0.4-2.2-2.1-2.6-2.5c-1.3-1.5-3-3.6-4.7-5.9
				c-1.7-2.3-3.5-4.8-4.9-6.9c-0.1-0.2-0.2-0.3-0.3-0.5c0.6,0.5,1.2,1,1.7,1.3c0.9,0.6,1.6,0.8,1.6,0.7c0.1-0.1-0.5-0.6-1.3-1.3
				c-0.8-0.7-1.8-1.7-2.8-2.9c-0.8-0.9-1.5-1.9-2.1-2.9c1.5,1.3,3.1,1.9,3.1,1.7c0.1-0.2-1.4-1.3-2.7-2.8c-1.4-1.5-2.7-3.4-3.1-4.1
				c-0.2-0.4-0.6-1-1.1-1.8c-0.6-1.2-1.2-2.7-1.7-4.1c-0.2-0.5-0.4-1-0.6-1.5c-0.1-0.3-0.2-0.6-0.3-0.8c0.3,0.3,0.5,0.5,0.7,0.7
				c0.6,0.6,1.9,1.8,3.4,2.9c1.4,1.8,3.1,3.6,4.8,5.2c2.3,2.2,4.7,4,6.6,5.1c0.9,0.6,1.7,0.9,2.3,1.1c0.1,0,0.1,0,0.2,0.1
				c0.8,0.6,1.5,1.1,2.2,1.5c2.4,1.4,4,2,4.1,1.8c0.1-0.3-1.3-1.3-3.5-3c-2.1-1.7-4.9-4.2-7.5-7.2c-1.3-1.5-2.7-3.2-3.9-4.8
				c1.2,1,2.4,1.6,2.5,1.4c0.1-0.2-1-1.3-2.1-2.5c-1.2-1.3-2.3-2.8-2.7-3.3c-0.4-0.6-1.5-2-2.4-3.5c-0.1-0.2-0.3-0.4-0.4-0.6
				c0,0,0-0.1-0.1-0.1c0.1,0.1,0.1,0.2,0.2,0.3c0.8,1,1.9,2,2.9,2.9c2.1,1.8,4.1,3,4.2,2.8c0.1-0.2-1.7-1.9-3.6-3.8
				c-0.9-1-1.9-2-2.6-3c-0.8-1-1.3-1.8-1.6-2.3c-0.3-0.5-0.8-1.3-1.4-2.4c-0.6-1.1-1.2-2.4-1.7-3.7c-0.3-0.6-0.5-1.2-0.7-1.8
				c0.7,0.7,1.3,1.2,1.6,1.5c1.7,1.4,8.4,6.7,10.8,7.8c0.5,0.4,1,0.8,1.5,1.1c0.3,0.2,0.5,0.4,0.8,0.5c1.1,1,2.1,2,3.1,2.7
				c2.1,1.5,3.7,1.8,3.7,1.6c0.1-0.2-1-0.9-2.5-2.3c-0.1-0.1-0.2-0.3-0.5-0.5c-0.9-0.8-1.8-1.9-2.9-3.1c-1.1-1.2-2.2-2.6-3.3-4
				c-2.2-2.8-4.5-6-6.3-8.8c-0.4-0.7-0.8-1.3-1.2-2c-0.1-0.2-0.1-0.3-0.2-0.5c0.6,0.8,1.3,1.7,2,2.4c0.8,0.9,1.7,1.5,2.3,2
				c0.7,0.4,1.1,0.6,1.2,0.5c0.1-0.1-0.3-0.5-0.9-1.1c-0.5-0.6-1.3-1.3-2-2.3c-1.4-1.8-2.6-4-3.1-4.9c-0.5-0.8-1.6-3.1-2.6-5.2
				c0,0,0-0.1-0.1-0.1c0.1,0.1,0.2,0.2,0.3,0.3c0.9,1,3.3,3.5,5.8,5.3c0.5,0.4,1,0.7,1.5,1.1c4.8,5.6,9.9,9.2,10.1,8.8
				c0.3-0.5-4.5-4.8-8.9-10.8c-0.6-0.8-1.2-1.6-1.8-2.5c-0.2-0.5-0.6-1.3-1.1-2.2c-0.8-1.6-2-3.8-3.1-6.1c1.4,1.6,2.8,2.7,2.9,2.5
				c0.1-0.2-1.1-1.6-2.3-3.4c-1.2-1.8-2.2-3.9-2.5-4.7c-0.4-0.8-1.3-2.9-1.9-5c0-0.1,0-0.1-0.1-0.2c1.2,1.3,3.9,4,6.7,5.9
				c1.7,1.2,3.3,2.1,4.5,2.5c1.1,0.7,1.8,1,1.8,0.8c0-0.1-0.1-0.3-0.3-0.6c0.1-0.3-0.7-1-1.9-2c-1.3-1.4-3.1-3.3-4.8-5.5
				c-0.9-1.1-1.7-2.2-2.6-3.4c-0.4-0.6-0.8-1.2-1.2-1.7c-0.4-0.6-0.7-1.1-1.1-1.7c-1.4-2.2-2.4-4.1-2.9-5.1
				c-0.3-0.5-0.6-1.2-1.1-2.1c-0.4-0.9-0.9-2-1.5-3.1c-1-2.3-2.2-5.1-3-7.8c-0.3-0.9-0.6-1.9-0.9-2.8c0.2,0.5,0.3,1,0.5,1.4
				c0.4,1,0.8,2,1.2,2.8c0.4,0.8,0.7,1.4,0.9,1.9c0.2,0.4,0.5,1,0.9,1.6c0.3,0.7,0.5,1.3,0.7,1.7c0.4,0.8,1.5,3.1,2.7,5
				c1.2,1.9,2.4,3.5,2.5,3.3c0.2-0.2-0.7-1.9-1.7-4c-0.1-0.1-0.1-0.3-0.2-0.5c0.8,0.9,1.5,1.7,2.3,2.5c1.7,1.7,3.4,3,4.8,3.8
				c1.4,0.8,2.3,1.2,2.4,1c0.1-0.2-0.6-1-1.7-2.1c-1.1-1.2-2.6-2.7-4-4.5c-0.7-0.9-1.4-1.8-2.1-2.7c-0.7-0.9-1.3-1.9-1.8-2.8
				c-1.1-1.8-1.9-3.3-2.4-4.1c-0.2-0.4-0.5-1-0.9-1.7c-0.4-0.7-0.7-1.6-1.2-2.5c-0.3-0.6-0.5-1.3-0.8-2c1.1,0.9,2.3,1.5,2.4,1.2
				c0.1-0.2-0.8-1.1-1.8-2.2c-0.8-0.9-1.5-1.9-1.9-2.5c-0.1-0.3-0.2-0.6-0.3-1c-0.4-1.1-0.6-2.2-0.9-3.2c-0.3-1-0.5-2-0.7-2.8
				c-0.2-0.9-0.4-1.7-0.5-2.1c-0.1-0.6-0.3-1.2-0.6-1.1c-0.2,0-0.3,0.4-0.4,0.9c-0.2,0.4-0.4,1.3-0.6,2.4c-0.2,0.8-0.4,1.8-0.7,2.8
				c-0.2,0.5-0.3,1.1-0.5,1.7c-0.6,1.1-1.2,2.1-1.5,2.5c-0.4,0.6-1.4,2.2-2.5,3.5c-1.1,1.3-2.2,2.4-2.1,2.6c0.1,0.2,1.4-0.5,2.7-1.7
				c0.5-0.5,1-1,1.5-1.6c-0.4,0.9-0.7,1.8-1.1,2.6c-0.5,0.9-0.8,1.8-1.2,2.5c-0.4,0.7-0.7,1.3-0.9,1.7c-0.4,0.8-1.3,2.4-2.4,4.1
				c-0.5,0.9-1.2,1.8-1.8,2.8c-0.7,0.9-1.4,1.9-2.1,2.7c-1.4,1.8-2.9,3.3-4,4.5c-1.1,1.1-1.8,1.9-1.7,2.1c0.1,0.2,1-0.2,2.4-1
				c1.3-0.9,3.1-2.2,4.7-3.8c0.9-0.8,1.6-1.7,2.4-2.6c-0.9,1.9-1.8,3.5-1.6,3.7c0.2,0.2,1.4-1.3,2.5-3.1c1.1-1.8,2.2-3.9,2.5-4.7
				c0.1-0.3,0.4-0.8,0.6-1.5c0.3-0.6,0.6-1.1,0.8-1.5c0.2-0.5,0.5-1.1,0.9-1.9c0.4-0.8,0.7-1.7,1.2-2.8c0.2-0.5,0.3-0.9,0.5-1.4
				c-0.3,0.9-0.5,1.8-0.9,2.8c-0.8,2.7-2,5.5-3,7.8c-0.5,1.1-1,2.2-1.5,3.1c-0.5,0.9-0.8,1.6-1.1,2.1c-0.6,1-1.6,2.9-2.9,5.1
				c-0.3,0.6-0.7,1.1-1.1,1.7c-0.4,0.6-0.8,1.2-1.2,1.7c-0.8,1.1-1.7,2.3-2.6,3.4c-1.7,2.2-3.5,4-4.8,5.5c-1.1,1-1.9,1.7-1.9,2
				c-0.2,0.3-0.3,0.5-0.3,0.6c0.1,0.2,4.7-2.2,6.3-3.3c3-2,5.9-4.9,6.9-6.1c0.1-0.1,0.3-0.3,0.4-0.5c-0.2,0.3-0.3,0.6-0.5,0.9
				c-1,1.6-2.1,3.3-2.5,3.9c-0.4,0.6-1.6,2.4-2.7,3.9c-1.1,1.5-2.2,2.8-2,3c0.1,0.2,1.5-0.8,2.8-2.2c0.8-0.8,1.5-1.7,2.1-2.5
				c-0.6,1.1-1.5,2.8-2.5,4.3c-1.3,2.1-2.7,3.7-2.6,3.9c0.1,0.2,1.7-1.1,3.2-3c-1,2.1-2,3.9-2.8,5.4c-0.5,0.9-0.8,1.6-1.1,2.2
				c-0.6,0.8-1.2,1.7-1.8,2.5c-1,1.3-1.9,2.5-2.9,3.6c-0.3,0.3-0.5,0.6-0.7,0.9c-3,3.5-5.5,5.9-5.3,6.3c0.2,0.4,9.3-7.5,9.8-7.8
				c2.4-1.7,4.9-3.9,5.7-4.7c0.4-0.4,1.2-1.2,2-2.2c-0.1,0.3-0.3,0.6-0.4,0.9c-0.9,1.9-2.1,3.9-2.5,4.6c-0.4,0.7-1.6,2.8-2.9,4.4
				c-1.2,1.7-2.5,3.1-2.3,3.3c0.1,0.2,1.6-0.9,3.1-2.5c0.6-0.7,1.2-1.4,1.7-2.1c-0.3,0.5-0.6,1.1-1,1.6c-1.8,2.8-4,5.9-6.3,8.8
				c-1.1,1.4-2.3,2.8-3.3,4c-0.4,0.4-5.9,5.7-5.9,5.9c0.1,0.2,1.6-0.1,3.7-1.6c0.4-0.3,3.5-2.3,4.6-3.1c3.3-2.2,6.8-5.1,8-6.2
				c1.2-1.1,4-3.9,6.5-6.9c-0.1,0.3-0.2,0.7-0.4,1c-0.4,1.1-1.2,2-1.5,2.4c-0.3,0.4-1,1.4-1.8,2.3c-0.8,0.9-1.5,1.7-1.4,2
				c0.1,0.2,1.1-0.3,2-1c0.2-0.2,0.4-0.3,0.6-0.5c-0.5,1-1.4,2.7-2.3,4.1c-1.2,1.9-2.4,3.4-2.3,3.6c0.1,0.2,1.2-0.7,2.4-2
				c-1.2,2.4-2.5,4.9-4,7.2c-0.3,0.6-0.7,1.1-1,1.6c-1.5,2.2-3.3,4.5-5.1,6.6c-2.6,3-5.4,5.5-7.5,7.2c-2.1,1.7-3.6,2.7-3.5,3
				c0.1,0.2,1.7-0.4,4.1-1.8c0.7-0.4,3.8-2.1,4.7-2.7c1.6-0.9,3.5-2.3,5.4-4c3-2.3,5.8-5,6.8-6.1c0.6-0.6,1.7-1.8,2.9-3.3
				c0.5-0.6,1-1.3,1.5-2c-0.3,0.7-0.6,1.4-0.9,2.1c-0.5,1.2-1.2,2.4-1.8,3.4c-0.6,1-1.1,1.8-1.4,2.3c-0.6,0.9-2.1,3.4-3.8,5.3
				c-1.7,2-3.4,3.5-3.3,3.8c0.1,0.2,2.1-1,3.9-2.9c0.2-0.2,0.5-0.5,0.7-0.7c-0.5,0.8-0.9,1.5-1.2,2c-0.6,1-1.7,2.9-3.1,5.1
				c-1.4,2.2-3.1,4.7-4.9,6.9c-1.7,2.3-3.5,4.3-4.7,5.9c-0.4,0.5-0.7,0.8-1,1.2c-0.6,0.5-1.1,0.9-1.6,1.3c-1.9,1.5-3.1,2.5-3,2.7
				c0.1,0.2,1.5-0.4,3.6-1.5c1-0.6,2.3-1.3,3.5-2.3c1.3-0.9,2.7-1.9,4-3.1c1.4-1.1,2.7-2.4,4-3.7c0.6-0.6,1.2-1.3,1.8-1.9
				c0.1-0.1,0.1-0.2,0.2-0.2c0.9-0.8,1.7-1.5,2.1-1.9c1.1-1,3.7-3.7,5.8-6.5c-0.3,0.8-0.7,1.7-1.2,2.7c-0.6,1.3-1.3,2.7-2,3.8
				c-0.7,1.1-1.2,2.1-1.6,2.6c-0.6,1-2.4,3.7-4.3,5.9c-1.9,2.2-3.8,3.9-3.7,4.1c0.1,0.2,2.2-1.1,4.3-3.1c-1.9,2.7-3.6,5-4.5,6.1
				c-0.8,1-2.2,2.9-3.9,5.1c-0.9,1.1-1.8,2.3-2.8,3.4c-1,1.1-2,2.4-3,3.5c-3.6,3.8-7.3,6.7-8.1,7.7c-0.2,0.1-0.3,0.2-0.5,0.3
				c-2.4,1.5-3.9,2.6-3.8,2.8c0.1,0.2,1.8-0.4,4.3-1.6c1.2-0.7,2.7-1.4,4.3-2.4c1.4-0.9,2.9-1.8,4.3-2.9c0.6-0.3,1.2-0.7,1.8-1.1
				c2.1-1.3,4.3-2.8,6.1-4.2c1.8-1.4,3.3-2.6,4.2-3.3c1-0.8,2.9-2.5,5-4.6c0.5-0.4,1-0.8,1.3-1.1c0.4-0.4,1.1-1,1.9-1.7
				c-0.2,0.4-0.3,0.8-0.5,1.2c-0.8,1.8-1.7,3.6-2.1,4.3c-0.4,0.7-1.4,2.6-2.4,4.2c-1,1.6-2.1,3-1.9,3.2c0.1,0.1,0.4-0.1,0.8-0.5
				c0.4-0.2,1-0.6,1.6-1.1c1-0.8,1.9-1.9,2.2-2.4c0.3-0.4,0.9-1.4,1.4-2.5c-0.1,0.4-0.2,0.7-0.3,1c-0.3,1.1-1.2,4.1-2.2,6.7
				c-1,2.6-2.2,4.9-1.8,5.2c0.2,0.2,3.8-2.2,5.3-3.3c2.5-1.7,5.1-4.1,5.9-5.1c0.2-0.3,0.6-0.7,1-1.3c-0.1,0.2-0.1,0.4-0.2,0.6
				c-0.5,1.2-0.9,2.2-0.7,2.4c0.2,0.2,0.9-0.7,1.6-1.7c0.7-1.1,1.3-2.4,1.4-2.9c0.1-0.3,0.3-0.8,0.4-1.4c0,1.4-0.1,2.9-0.1,4.4
				c-0.2,9.5-0.4,19.3-0.4,20.2c0,1.9,1.4,2.7,3.1,2.7c1.7,0,3.1-0.9,3-2.8c0-0.9-0.5-10.1-1.3-19.4c0.1,0.1,0.1,0.1,0.2,0.2
				c0.7,1,1.6,1.7,1.7,1.5c0.2-0.2-0.4-1.1-0.9-2.2c-0.5-1.1-0.9-2.3-1.1-2.7c0,0,0-0.1,0-0.1c0.2,0.2,0.3,0.5,0.4,0.6
				c0.4,0.6,1.2,1.6,2.2,2.7c1,1.1,2.3,2.3,3.6,3.2c1.3,1,2.6,1.7,3.6,2.1c1,0.4,1.7,0.5,1.8,0.3c0.1-0.2-0.7-2.5-0.9-3.8
				c-0.3-1.6-0.7-3.4-0.8-4c-0.1-0.3-0.2-0.7-0.3-1.2c0.3,0.3,0.6,0.6,0.9,0.8c0.6,0.5,2.8,2.3,3,2.2c0.1-0.1,0.1-1.3-0.1-1.7
				c-0.2-0.8-0.4-1.7-0.6-2.7c-0.3-1.5-0.5-3.1-0.6-4.2c0.3,0.7,1.1,1.9,1.9,2.8c1,1.1,2.1,1.7,2.2,1.5c0.1-0.2-0.5-0.9-1.1-1.8
				c-0.1-0.3-0.3-0.7-0.4-1.1c-0.5-1.2-0.8-2.6-0.9-3.1c0-0.2-0.1-0.4-0.2-0.8c1.4,1.9,3.1,4,4.9,5.9c1.4,1.5,2.8,2.8,4,3.8
				c0.5,0.5,1,1,1.5,1.4c1.6,1.4,3.2,2.8,4.9,4c1.6,1.3,3.3,2.3,4.9,3.3c1.6,1,3,1.7,4.3,2.4c2.5,1.2,4.2,1.8,4.3,1.6
				C203.3,411.5,202,410.5,199.9,409.2z M158.5,265.6L158.5,265.6c0,0,0,0.1,0,0.1C158.5,265.7,158.5,265.7,158.5,265.6
				C158.5,265.7,158.5,265.6,158.5,265.6z"/>
		</g>
		<g>
			<path d="M238.1,413.2c-0.2-0.2-0.4-0.3-0.6-0.5c-1.1-1-2.6-2.4-4.2-4c-1.5-1.6-3.1-3.3-4.4-4.9c-1.3-1.5-2.4-2.8-2.9-3.5
				c-0.6-0.7-1.6-2-2.7-3.6c-0.5-0.7-1.1-1.5-1.6-2.3c0.9,0.9,2.2,2.1,3.5,3c1,0.7,1.9,1.1,2.6,1.4c0.7,0.3,1.2,0.4,1.3,0.3
				c0-0.1-0.4-0.4-1.1-0.8c-0.7-0.4-1.5-1-2.4-1.7c-1.8-1.4-3.4-3.3-4-4.1c-0.1-0.2-0.4-0.4-0.6-0.8c-0.2-0.3-0.5-0.7-0.8-1.1
				c-0.6-0.9-1.2-1.9-1.8-2.9c-0.3-0.5-0.5-1-0.8-1.5c-0.2-0.5-0.4-0.9-0.6-1.3c-0.1-0.2-0.2-0.4-0.3-0.6c0.3,0.3,0.6,0.6,0.8,0.8
				c0.3,0.3,0.9,0.9,1.7,1.5c0.1,0.1,0.1,0.1,0.2,0.2c0.5,0.5,0.9,1,1.5,1.5c1,1,2.1,2,3.2,2.9c1.1,0.9,2.2,1.7,3.2,2.4
				c1,0.7,2,1.3,2.8,1.8c1.7,0.9,2.8,1.4,2.9,1.2c0.1-0.2-0.9-1-2.4-2.1c-0.4-0.3-1.8-1.6-2.1-2c-1-1.2-2.4-2.8-3.7-4.6
				c-1.4-1.8-2.7-3.7-3.9-5.4c-0.1-0.1-0.2-0.2-0.2-0.4c0.5,0.4,1,0.8,1.4,1c0.7,0.4,1.2,0.6,1.3,0.5c0-0.1-0.4-0.4-1-1
				c-0.6-0.6-1.5-1.4-2.2-2.3c-0.6-0.7-1.2-1.5-1.7-2.2c1.2,1,2.4,1.5,2.5,1.3c0.1-0.2-1.1-1-2.2-2.2c-1.1-1.1-2.1-2.6-2.5-3.2
				c-0.2-0.3-0.5-0.8-0.9-1.4c-0.4-1-0.9-2.1-1.4-3.2c-0.2-0.4-0.3-0.8-0.5-1.2c-0.1-0.3-0.2-0.5-0.2-0.6c0.2,0.2,0.4,0.4,0.5,0.5
				c0.5,0.5,1.5,1.4,2.7,2.3c1.1,1.4,2.4,2.8,3.8,4.1c1.8,1.7,3.7,3.1,5.2,4c0.7,0.5,1.4,0.7,1.8,0.9c0.1,0,0.1,0,0.1,0.1
				c0.6,0.4,1.2,0.8,1.8,1.2c1.9,1.1,3.2,1.6,3.2,1.4c0.1-0.2-1.1-1-2.7-2.3c-1.7-1.3-3.9-3.3-6-5.6c-1.1-1.2-2.1-2.5-3.1-3.8
				c1,0.8,1.9,1.2,2,1.1c0.1-0.2-0.8-1-1.7-2c-0.9-1-1.8-2.2-2.1-2.6c-0.3-0.4-1.2-1.6-1.9-2.7c-0.1-0.2-0.2-0.3-0.3-0.5
				c0,0,0-0.1,0-0.1c0.1,0.1,0.1,0.1,0.2,0.2c0.7,0.8,1.5,1.6,2.3,2.2c1.6,1.4,3.2,2.4,3.3,2.2c0.1-0.2-1.3-1.4-2.8-2.9
				c-0.7-0.7-1.5-1.6-2.1-2.3c-0.6-0.7-1-1.4-1.3-1.8c-0.2-0.4-0.7-1-1.1-1.9c-0.5-0.8-0.9-1.9-1.3-2.9c-0.2-0.5-0.4-1-0.6-1.4
				c0.5,0.5,1,0.9,1.3,1.2c1.3,1.1,6.7,5.2,8.6,6c0.4,0.3,0.8,0.6,1.2,0.9c0.2,0.2,0.4,0.3,0.6,0.4c0.9,0.8,1.7,1.5,2.5,2.1
				c1.6,1.2,2.9,1.4,2.9,1.2c0.1-0.2-0.8-0.7-2-1.8c0-0.1-0.2-0.2-0.4-0.4c-0.7-0.7-1.4-1.5-2.3-2.4c-0.9-0.9-1.7-2-2.7-3.1
				c-1.8-2.2-3.5-4.6-5-6.8c-0.3-0.5-0.7-1-1-1.5c-0.1-0.1-0.1-0.3-0.2-0.4c0.5,0.6,1,1.3,1.6,1.9c0.6,0.7,1.3,1.2,1.8,1.5
				c0.5,0.3,0.9,0.5,0.9,0.4c0-0.1-0.2-0.4-0.7-0.8c-0.4-0.5-1-1.1-1.5-1.8c-1.1-1.4-2.1-3.2-2.5-3.8c-0.4-0.6-1.3-2.4-2.1-4
				c0,0,0-0.1,0-0.1c0.1,0.1,0.2,0.2,0.2,0.2c0.7,0.8,2.6,2.7,4.6,4.1c0.4,0.3,0.8,0.6,1.2,0.8c3.8,4.3,7.8,7.1,8,6.8
				c0.2-0.4-3.6-3.7-7.1-8.4c-0.5-0.6-0.9-1.3-1.4-1.9c-0.2-0.4-0.5-1-0.8-1.7c-0.7-1.3-1.6-3-2.5-4.8c1.1,1.3,2.2,2.1,2.3,1.9
				c0.1-0.2-0.9-1.3-1.8-2.6c-0.9-1.4-1.7-3-2-3.7c-0.3-0.6-1-2.3-1.5-3.9c0,0,0-0.1,0-0.1c0.9,1,3.1,3.1,5.3,4.6
				c1.3,0.9,2.6,1.6,3.6,2c0.8,0.5,1.4,0.8,1.5,0.6c0-0.1,0-0.2-0.2-0.5c0-0.2-0.6-0.8-1.5-1.6c-1-1.1-2.5-2.6-3.8-4.3
				c-0.7-0.8-1.4-1.7-2-2.6c-0.3-0.4-0.6-0.9-0.9-1.3c-0.3-0.4-0.6-0.9-0.8-1.3c-1.1-1.7-1.9-3.2-2.3-4c-0.2-0.4-0.5-1-0.9-1.7
				c-0.4-0.7-0.7-1.5-1.2-2.4c-0.8-1.8-1.7-4-2.4-6.1c-0.3-0.7-0.5-1.5-0.7-2.2c0.1,0.4,0.3,0.8,0.4,1.1c0.3,0.8,0.6,1.5,0.9,2.2
				c0.3,0.6,0.6,1.1,0.7,1.5c0.2,0.3,0.4,0.8,0.7,1.3c0.2,0.6,0.4,1,0.5,1.3c0.3,0.7,1.2,2.4,2.1,3.9c0.9,1.5,1.9,2.7,2,2.6
				c0.1-0.1-0.6-1.5-1.3-3.1c-0.1-0.1-0.1-0.2-0.2-0.4c0.6,0.7,1.2,1.4,1.8,2c1.3,1.3,2.7,2.3,3.8,3c1.1,0.6,1.8,0.9,1.9,0.8
				c0.1-0.2-0.5-0.8-1.4-1.7c-0.9-0.9-2.1-2.1-3.2-3.5c-0.6-0.7-1.1-1.4-1.7-2.1c-0.5-0.7-1-1.4-1.5-2.1c-0.9-1.4-1.5-2.6-1.9-3.2
				c-0.2-0.3-0.4-0.8-0.7-1.4c-0.3-0.6-0.6-1.2-0.9-2c-0.2-0.5-0.4-1-0.6-1.5c0.9,0.7,1.8,1.1,1.9,1c0.1-0.2-0.7-0.8-1.4-1.7
				c-0.6-0.7-1.2-1.5-1.5-2c-0.1-0.2-0.2-0.5-0.2-0.8c-0.3-0.9-0.5-1.7-0.7-2.5c-0.2-0.8-0.4-1.5-0.5-2.2c-0.2-0.7-0.3-1.3-0.4-1.7
				c-0.1-0.5-0.3-0.9-0.5-0.9c-0.2,0-0.3,0.3-0.3,0.7c-0.1,0.3-0.3,1-0.5,1.9c-0.2,0.6-0.3,1.4-0.5,2.2c-0.1,0.4-0.2,0.9-0.4,1.3
				c-0.5,0.9-0.9,1.6-1.2,1.9c-0.3,0.5-1.1,1.7-2,2.7c-0.8,1-1.7,1.9-1.6,2c0.1,0.2,1.1-0.4,2.2-1.3c0.4-0.4,0.8-0.8,1.2-1.2
				c-0.3,0.7-0.6,1.4-0.8,2c-0.4,0.7-0.7,1.4-0.9,2c-0.3,0.6-0.5,1-0.7,1.4c-0.4,0.6-1,1.9-1.9,3.2c-0.4,0.7-0.9,1.4-1.5,2.1
				c-0.5,0.7-1.1,1.5-1.7,2.1c-1.1,1.4-2.3,2.6-3.2,3.5c-0.9,0.9-1.5,1.5-1.4,1.7c0.1,0.2,0.8-0.1,1.9-0.8c1.1-0.7,2.4-1.7,3.8-3
				c0.7-0.6,1.3-1.3,1.9-2c-0.7,1.5-1.4,2.7-1.3,2.9c0.1,0.1,1.1-1,2-2.4c0.9-1.4,1.7-3.1,2-3.7c0.1-0.2,0.3-0.7,0.5-1.2
				c0.3-0.5,0.5-0.8,0.7-1.1c0.2-0.4,0.4-0.9,0.7-1.5c0.3-0.6,0.6-1.4,0.9-2.2c0.1-0.4,0.3-0.7,0.4-1.1c-0.2,0.7-0.4,1.4-0.7,2.2
				c-0.7,2.1-1.6,4.3-2.4,6.1c-0.4,0.9-0.8,1.7-1.2,2.4c-0.4,0.7-0.7,1.2-0.9,1.7c-0.4,0.8-1.2,2.3-2.3,4c-0.3,0.4-0.6,0.9-0.9,1.3
				c-0.3,0.4-0.6,0.9-0.9,1.3c-0.7,0.9-1.3,1.8-2,2.6c-1.4,1.7-2.8,3.2-3.8,4.3c-0.9,0.8-1.5,1.3-1.5,1.6c-0.2,0.2-0.3,0.4-0.2,0.5
				c0.1,0.1,3.7-1.7,5-2.6c2.4-1.6,4.7-3.8,5.5-4.7c0.1-0.1,0.2-0.2,0.3-0.4c-0.1,0.2-0.3,0.4-0.4,0.7c-0.8,1.2-1.7,2.5-2,3
				c-0.3,0.5-1.2,1.9-2.1,3c-0.9,1.2-1.7,2.2-1.6,2.4c0.1,0.2,1.2-0.6,2.2-1.7c0.6-0.6,1.2-1.3,1.7-1.9c-0.5,0.9-1.2,2.2-2,3.3
				c-1.1,1.6-2.2,2.9-2,3c0.1,0.2,1.4-0.9,2.6-2.3c-0.8,1.6-1.6,3.1-2.2,4.2c-0.4,0.7-0.7,1.3-0.8,1.7c-0.5,0.6-0.9,1.3-1.4,1.9
				c-0.8,1-1.5,2-2.3,2.8c-0.2,0.3-0.4,0.5-0.6,0.7c-2.4,2.8-4.4,4.6-4.2,4.9c0.1,0.3,7.4-5.8,7.7-6.1c1.9-1.3,3.8-3,4.5-3.7
				c0.3-0.3,0.9-0.9,1.6-1.7c-0.1,0.2-0.2,0.5-0.3,0.7c-0.7,1.5-1.6,3-2,3.6c-0.3,0.6-1.3,2.1-2.3,3.5c-1,1.3-2,2.4-1.8,2.6
				c0.1,0.2,1.3-0.7,2.4-2c0.5-0.5,1-1.1,1.4-1.6c-0.3,0.4-0.5,0.8-0.8,1.3c-1.4,2.2-3.2,4.6-5,6.8c-0.9,1.1-1.8,2.2-2.6,3.1
				c-0.3,0.3-4.7,4.4-4.7,4.6c0,0.2,1.3,0,2.9-1.2c0.4-0.3,2.7-1.8,3.6-2.4c2.7-1.7,5.4-4,6.4-4.8c0.9-0.8,3.2-3.1,5.2-5.4
				c-0.1,0.3-0.2,0.5-0.3,0.8c-0.3,0.8-0.9,1.6-1.2,1.9c-0.2,0.3-0.8,1.1-1.4,1.8c-0.6,0.7-1.2,1.4-1.1,1.5c0.1,0.2,0.8-0.2,1.6-0.8
				c0.2-0.1,0.3-0.3,0.5-0.4c-0.4,0.8-1.1,2.1-1.8,3.2c-0.9,1.5-1.9,2.6-1.8,2.8c0.1,0.1,0.9-0.5,1.9-1.6c-0.9,1.8-2,3.8-3.1,5.6
				c-0.3,0.4-0.5,0.9-0.8,1.3c-1.2,1.7-2.6,3.5-4,5.1c-2.1,2.3-4.3,4.3-6,5.6c-1.7,1.3-2.8,2.1-2.7,2.3c0.1,0.2,1.4-0.3,3.2-1.4
				c0.5-0.3,3-1.7,3.7-2.1c1.2-0.7,2.7-1.8,4.3-3.1c2.4-1.8,4.6-3.9,5.4-4.7c0.5-0.5,1.3-1.4,2.3-2.6c0.4-0.5,0.8-1,1.2-1.6
				c-0.2,0.5-0.5,1.1-0.7,1.7c-0.4,0.9-0.9,1.9-1.4,2.7c-0.5,0.8-0.9,1.4-1.1,1.8c-0.4,0.7-1.7,2.6-3,4.1c-1.3,1.6-2.7,2.8-2.6,2.9
				c0.1,0.2,1.6-0.8,3.1-2.3c0.2-0.2,0.4-0.4,0.6-0.6c-0.4,0.7-0.7,1.2-0.9,1.6c-0.5,0.8-1.4,2.3-2.5,4c-1.1,1.7-2.5,3.6-3.9,5.4
				c-1.4,1.8-2.7,3.4-3.7,4.6c-0.3,0.4-0.6,0.7-0.8,0.9c-0.5,0.4-0.9,0.7-1.3,1c-1.5,1.1-2.5,1.9-2.4,2.1c0.1,0.2,1.2-0.3,2.9-1.2
				c0.8-0.5,1.8-1.1,2.8-1.8c1-0.7,2.1-1.5,3.2-2.4c1.1-0.9,2.1-1.9,3.2-2.9c0.5-0.5,1-1,1.5-1.5c0.1-0.1,0.1-0.1,0.2-0.2
				c0.7-0.6,1.3-1.1,1.7-1.5c0.8-0.8,2.9-2.9,4.6-5c-0.3,0.6-0.6,1.4-0.9,2.1c-0.5,1.1-1,2.1-1.5,3c-0.5,0.9-1,1.6-1.2,2
				c-0.5,0.8-1.9,2.9-3.4,4.6c-1.5,1.7-3,3-2.9,3.2c0.1,0.2,1.7-0.9,3.4-2.4c-1.5,2.1-2.8,3.9-3.5,4.8c-0.6,0.8-1.7,2.3-3.1,4
				c-0.7,0.9-1.4,1.8-2.2,2.7c-0.8,0.9-1.6,1.9-2.4,2.7c-2.8,3-5.8,5.2-6.4,6c-0.1,0.1-0.3,0.2-0.4,0.3c-1.9,1.2-3.1,2-3,2.2
				c0.1,0.2,1.4-0.3,3.4-1.2c1-0.5,2.2-1.1,3.4-1.9c1.1-0.7,2.3-1.4,3.4-2.3c0.5-0.3,0.9-0.5,1.4-0.8c1.7-1,3.4-2.2,4.9-3.2
				c1.5-1.1,2.6-2,3.3-2.6c0.8-0.6,2.3-2,3.9-3.6c0.4-0.3,0.8-0.6,1-0.8c0.3-0.3,0.9-0.7,1.5-1.3c-0.1,0.3-0.3,0.6-0.4,0.9
				c-0.6,1.4-1.4,2.8-1.7,3.4c-0.3,0.5-1.1,2-1.9,3.3c-0.8,1.3-1.7,2.4-1.5,2.5c0.1,0.1,0.3-0.1,0.6-0.4c0.3-0.1,0.8-0.5,1.3-0.9
				c0.8-0.6,1.5-1.5,1.7-1.8c0.2-0.3,0.7-1.1,1.1-1.9c-0.1,0.3-0.2,0.6-0.2,0.8c-0.3,0.8-0.9,3.2-1.8,5.2c-0.8,2-1.7,3.8-1.5,4.1
				c0.1,0.1,3-1.7,4.2-2.5c2-1.3,4-3.2,4.7-4c0.2-0.2,0.5-0.6,0.8-1c-0.1,0.2-0.1,0.3-0.2,0.4c-0.4,0.9-0.7,1.7-0.6,1.8
				c0.1,0.1,0.7-0.5,1.3-1.4c0.5-0.8,1-1.9,1.1-2.2c0.1-0.2,0.2-0.6,0.3-1.1c0,1.1-0.1,2.3-0.1,3.4c-0.2,7.4-0.3,15-0.3,15.8
				c0,1.5,1.1,2.1,2.5,2.1c1.3,0,2.4-0.7,2.4-2.2c0-0.7-0.4-7.9-1-15.1c0,0.1,0.1,0.1,0.1,0.2c0.6,0.8,1.2,1.3,1.3,1.2
				c0.1-0.2-0.3-0.9-0.7-1.7c-0.4-0.8-0.7-1.8-0.8-2.1c0,0,0,0,0-0.1c0.1,0.2,0.2,0.4,0.3,0.5c0.3,0.4,0.9,1.2,1.7,2.1
				c0.8,0.9,1.8,1.8,2.9,2.5c1,0.8,2.1,1.3,2.9,1.6c0.8,0.3,1.4,0.4,1.4,0.2c0-0.1-0.6-2-0.7-2.9c-0.3-1.3-0.5-2.6-0.6-3.2
				c0-0.2-0.1-0.5-0.2-1c0.2,0.2,0.5,0.4,0.7,0.6c0.5,0.4,2.2,1.8,2.3,1.7c0.1-0.1,0.1-1-0.1-1.3c-0.1-0.6-0.3-1.3-0.5-2.1
				c-0.3-1.2-0.4-2.4-0.5-3.3c0.3,0.5,0.8,1.5,1.5,2.2c0.8,0.8,1.6,1.3,1.7,1.1c0.1-0.2-0.4-0.7-0.9-1.4c-0.1-0.3-0.2-0.6-0.3-0.9
				c-0.4-0.9-0.6-2-0.7-2.4c0-0.1-0.1-0.3-0.1-0.6c1.1,1.5,2.5,3.1,3.9,4.6c1.1,1.1,2.2,2.1,3.2,2.9c0.4,0.4,0.8,0.8,1.2,1.1
				c1.3,1.1,2.6,2.2,3.9,3.1c1.3,1,2.6,1.8,3.9,2.6c1.2,0.8,2.4,1.4,3.4,1.9c2,0.9,3.3,1.4,3.4,1.2
				C240.8,415,239.8,414.3,238.1,413.2z M205.3,301.4L205.3,301.4C205.3,301.4,205.3,301.5,205.3,301.4
				C205.3,301.5,205.3,301.5,205.3,301.4C205.3,301.4,205.3,301.4,205.3,301.4z"/>
		</g>
		<g>
			<path d="M142.5,417.5c-0.2-0.1-0.3-0.3-0.5-0.5c-1.1-0.9-2.5-2.3-3.9-3.8c-1.4-1.5-2.9-3.2-4.2-4.6c-1.2-1.4-2.2-2.6-2.8-3.3
				c-0.5-0.7-1.5-1.8-2.6-3.4c-0.5-0.7-1-1.4-1.5-2.2c0.8,0.9,2,2,3.3,2.9c0.9,0.6,1.8,1.1,2.5,1.4c0.7,0.3,1.2,0.4,1.2,0.3
				c0-0.1-0.4-0.4-1-0.8c-0.6-0.4-1.5-1-2.3-1.6c-1.7-1.3-3.2-3.1-3.8-3.8c-0.1-0.2-0.3-0.4-0.6-0.7c-0.2-0.3-0.5-0.7-0.8-1
				c-0.5-0.8-1.2-1.8-1.7-2.7c-0.3-0.5-0.5-1-0.7-1.4c-0.2-0.4-0.4-0.9-0.6-1.2c-0.1-0.2-0.2-0.4-0.2-0.6c0.3,0.3,0.6,0.6,0.7,0.7
				c0.3,0.3,0.9,0.8,1.6,1.4c0.1,0.1,0.1,0.1,0.2,0.2c0.4,0.5,0.9,1,1.4,1.4c1,0.9,1.9,1.9,3,2.7c1,0.9,2,1.6,3,2.3
				c1,0.7,1.9,1.2,2.6,1.7c1.6,0.8,2.6,1.3,2.7,1.1c0.1-0.2-0.8-0.9-2.3-2c-0.4-0.3-1.7-1.5-2-1.8c-0.9-1.1-2.2-2.6-3.5-4.3
				c-1.3-1.7-2.6-3.5-3.6-5.1c-0.1-0.1-0.1-0.2-0.2-0.3c0.5,0.4,0.9,0.7,1.3,0.9c0.7,0.4,1.2,0.6,1.2,0.5c0-0.1-0.4-0.4-1-0.9
				c-0.6-0.5-1.4-1.3-2.1-2.1c-0.6-0.7-1.1-1.4-1.6-2.1c1.1,0.9,2.3,1.4,2.3,1.3c0.1-0.2-1-1-2-2.1c-1.1-1.1-2-2.5-2.3-3
				c-0.2-0.3-0.5-0.7-0.8-1.3c-0.4-0.9-0.9-2-1.3-3c-0.2-0.4-0.3-0.7-0.4-1.1c-0.1-0.3-0.2-0.4-0.2-0.6c0.2,0.2,0.4,0.4,0.5,0.5
				c0.4,0.4,1.4,1.3,2.5,2.2c1.1,1.3,2.3,2.7,3.5,3.8c1.7,1.6,3.5,2.9,4.9,3.7c0.7,0.4,1.3,0.7,1.7,0.8c0,0,0.1,0,0.1,0.1
				c0.6,0.4,1.2,0.8,1.7,1.1c1.8,1,3,1.5,3,1.3c0.1-0.2-1-0.9-2.6-2.2c-1.6-1.3-3.6-3.1-5.6-5.3c-1-1.1-2-2.3-2.9-3.5
				c0.9,0.7,1.8,1.2,1.8,1c0.1-0.2-0.8-0.9-1.6-1.9c-0.9-0.9-1.7-2-2-2.5c-0.3-0.4-1.1-1.5-1.8-2.6c-0.1-0.2-0.2-0.3-0.3-0.5
				c0,0,0-0.1,0-0.1c0.1,0.1,0.1,0.1,0.2,0.2c0.6,0.7,1.4,1.5,2.2,2.1c1.5,1.3,3,2.2,3.1,2.1c0.1-0.2-1.2-1.4-2.7-2.8
				c-0.7-0.7-1.4-1.5-2-2.2c-0.6-0.7-1-1.3-1.2-1.7c-0.2-0.3-0.6-1-1-1.8c-0.4-0.8-0.9-1.8-1.3-2.7c-0.2-0.5-0.4-0.9-0.5-1.3
				c0.5,0.5,0.9,0.9,1.2,1.1c1.3,1.1,6.3,4.9,8.1,5.7c0.4,0.3,0.8,0.6,1.1,0.8c0.2,0.1,0.4,0.3,0.6,0.4c0.8,0.8,1.6,1.4,2.3,1.9
				c1.5,1.1,2.7,1.3,2.8,1.1c0-0.2-0.8-0.6-1.9-1.7c0-0.1-0.2-0.2-0.4-0.4c-0.6-0.6-1.4-1.4-2.1-2.3c-0.8-0.9-1.6-1.9-2.5-2.9
				c-1.7-2.1-3.3-4.4-4.7-6.4c-0.3-0.5-0.6-1-0.9-1.4c-0.1-0.1-0.1-0.2-0.2-0.4c0.4,0.6,0.9,1.2,1.5,1.8c0.6,0.6,1.2,1.1,1.7,1.5
				c0.5,0.3,0.8,0.4,0.9,0.4c0-0.1-0.2-0.4-0.6-0.8c-0.4-0.4-0.9-1-1.5-1.7c-1.1-1.3-2-3-2.3-3.6c-0.4-0.6-1.2-2.2-2-3.8
				c0,0,0-0.1,0-0.1c0.1,0.1,0.1,0.2,0.2,0.2c0.6,0.7,2.5,2.5,4.3,3.9c0.4,0.3,0.8,0.5,1.1,0.8c3.6,4.1,7.4,6.7,7.5,6.4
				c0.2-0.3-3.4-3.5-6.7-7.9c-0.4-0.6-0.9-1.2-1.3-1.8c-0.2-0.4-0.4-0.9-0.8-1.6c-0.6-1.2-1.5-2.8-2.3-4.5c1,1.2,2.1,2,2.2,1.8
				c0.1-0.2-0.8-1.2-1.7-2.5c-0.9-1.3-1.6-2.9-1.9-3.4c-0.3-0.6-1-2.1-1.4-3.6c0,0,0-0.1,0-0.1c0.9,0.9,2.9,2.9,5,4.3
				c1.3,0.9,2.5,1.5,3.4,1.8c0.8,0.5,1.3,0.7,1.4,0.6c0-0.1,0-0.2-0.2-0.4c0-0.2-0.5-0.8-1.4-1.5c-1-1.1-2.3-2.4-3.6-4
				c-0.7-0.8-1.3-1.6-1.9-2.5c-0.3-0.4-0.6-0.9-0.9-1.3c-0.3-0.4-0.6-0.8-0.8-1.2c-1-1.6-1.8-3-2.2-3.7c-0.2-0.4-0.5-0.9-0.8-1.6
				c-0.3-0.6-0.7-1.4-1.1-2.3c-0.7-1.7-1.6-3.7-2.2-5.7c-0.2-0.7-0.4-1.4-0.6-2c0.1,0.4,0.2,0.7,0.4,1.1c0.3,0.8,0.6,1.5,0.9,2
				c0.3,0.6,0.5,1,0.7,1.4c0.2,0.3,0.4,0.7,0.7,1.2c0.2,0.5,0.4,1,0.5,1.2c0.3,0.6,1.1,2.3,2,3.7c0.9,1.4,1.8,2.5,1.9,2.4
				c0.1-0.1-0.5-1.4-1.3-2.9c0-0.1-0.1-0.2-0.2-0.3c0.6,0.6,1.1,1.3,1.7,1.8c1.2,1.2,2.6,2.2,3.5,2.8c1,0.6,1.7,0.9,1.8,0.7
				c0.1-0.2-0.4-0.8-1.3-1.6c-0.8-0.9-1.9-2-3-3.3c-0.6-0.6-1.1-1.3-1.6-2c-0.5-0.7-1-1.4-1.4-2c-0.8-1.3-1.4-2.4-1.8-3
				c-0.2-0.3-0.4-0.7-0.7-1.3c-0.3-0.5-0.6-1.2-0.9-1.8c-0.2-0.4-0.4-0.9-0.6-1.4c0.8,0.7,1.7,1.1,1.8,0.9c0.1-0.2-0.6-0.8-1.3-1.6
				c-0.6-0.6-1.1-1.4-1.4-1.9c-0.1-0.2-0.2-0.5-0.2-0.7c-0.3-0.8-0.5-1.6-0.7-2.4c-0.2-0.8-0.3-1.5-0.5-2c-0.1-0.7-0.3-1.2-0.4-1.6
				c-0.1-0.4-0.3-0.8-0.4-0.8c-0.1,0-0.2,0.3-0.3,0.6c-0.1,0.3-0.3,0.9-0.5,1.8c-0.2,0.6-0.3,1.3-0.5,2c-0.1,0.4-0.2,0.8-0.3,1.2
				c-0.4,0.8-0.9,1.5-1.1,1.8c-0.3,0.4-1,1.6-1.8,2.6c-0.8,1-1.6,1.7-1.5,1.9c0.1,0.2,1.1-0.4,2-1.3c0.4-0.3,0.8-0.8,1.1-1.1
				c-0.3,0.7-0.5,1.3-0.8,1.9c-0.3,0.7-0.6,1.3-0.9,1.8c-0.3,0.5-0.5,1-0.7,1.3c-0.3,0.6-0.9,1.7-1.8,3c-0.4,0.7-0.9,1.3-1.4,2
				c-0.5,0.7-1,1.4-1.6,2c-1.1,1.3-2.2,2.4-3,3.3c-0.8,0.8-1.4,1.4-1.3,1.6c0.1,0.2,0.8-0.1,1.8-0.7c1-0.6,2.3-1.6,3.5-2.8
				c0.6-0.6,1.2-1.3,1.8-1.9c-0.7,1.4-1.3,2.6-1.2,2.7c0.1,0.1,1-0.9,1.8-2.3c0.8-1.3,1.6-2.9,1.9-3.5c0.1-0.2,0.3-0.6,0.4-1.1
				c0.3-0.4,0.5-0.8,0.6-1.1c0.2-0.3,0.4-0.8,0.7-1.4c0.3-0.6,0.5-1.3,0.9-2c0.1-0.3,0.2-0.7,0.4-1.1c-0.2,0.7-0.4,1.4-0.6,2
				c-0.6,2-1.5,4-2.2,5.7c-0.4,0.8-0.8,1.6-1.1,2.3c-0.3,0.6-0.6,1.2-0.8,1.6c-0.4,0.7-1.2,2.1-2.2,3.7c-0.2,0.4-0.5,0.8-0.8,1.2
				c-0.3,0.4-0.6,0.8-0.9,1.3c-0.6,0.8-1.2,1.7-1.9,2.5c-1.3,1.6-2.6,3-3.6,4c-0.9,0.7-1.4,1.3-1.4,1.5c-0.2,0.2-0.2,0.4-0.2,0.4
				c0.1,0.1,3.5-1.6,4.7-2.4c2.2-1.5,4.4-3.6,5.2-4.5c0.1-0.1,0.2-0.2,0.3-0.4c-0.1,0.2-0.3,0.4-0.4,0.6c-0.7,1.2-1.6,2.4-1.9,2.9
				c-0.3,0.5-1.2,1.8-2,2.9c-0.8,1.1-1.6,2.1-1.5,2.2c0.1,0.1,1.1-0.6,2.1-1.6c0.6-0.6,1.1-1.3,1.6-1.8c-0.5,0.8-1.1,2.1-1.9,3.1
				c-1,1.5-2,2.7-1.9,2.9c0.1,0.1,1.3-0.8,2.4-2.2c-0.8,1.5-1.5,2.9-2.1,4c-0.3,0.7-0.6,1.2-0.8,1.6c-0.4,0.6-0.9,1.2-1.3,1.8
				c-0.7,1-1.4,1.8-2.1,2.7c-0.2,0.2-0.4,0.5-0.6,0.7c-2.3,2.6-4.1,4.3-4,4.6c0.1,0.3,6.9-5.5,7.3-5.7c1.8-1.2,3.6-2.8,4.3-3.4
				c0.3-0.3,0.9-0.9,1.5-1.6c-0.1,0.2-0.2,0.4-0.3,0.7c-0.7,1.4-1.5,2.8-1.9,3.4c-0.3,0.5-1.2,2-2.1,3.2c-0.9,1.3-1.8,2.3-1.7,2.5
				c0.1,0.1,1.2-0.7,2.3-1.8c0.5-0.5,0.9-1,1.3-1.5c-0.2,0.4-0.5,0.8-0.7,1.2c-1.3,2-3,4.3-4.7,6.4c-0.9,1-1.7,2-2.5,2.9
				c-0.3,0.3-4.4,4.1-4.4,4.3c0,0.2,1.2,0,2.8-1.1c0.3-0.2,2.6-1.7,3.4-2.3c2.5-1.6,5.1-3.7,6-4.6c0.9-0.8,3-2.9,4.9-5.1
				c-0.1,0.2-0.2,0.5-0.3,0.7c-0.3,0.8-0.9,1.5-1.1,1.8c-0.2,0.3-0.8,1-1.4,1.7c-0.6,0.7-1.1,1.3-1,1.4c0.1,0.2,0.8-0.2,1.5-0.8
				c0.2-0.1,0.3-0.3,0.5-0.4c-0.4,0.8-1,2-1.7,3c-0.9,1.4-1.8,2.5-1.7,2.6c0.1,0.1,0.9-0.5,1.8-1.5c-0.9,1.7-1.9,3.6-3,5.3
				c-0.2,0.4-0.5,0.8-0.8,1.2c-1.2,1.6-2.4,3.3-3.8,4.8c-2,2.2-4,4-5.6,5.3c-1.6,1.3-2.7,2-2.6,2.2c0.1,0.2,1.3-0.3,3-1.3
				c0.5-0.3,2.8-1.6,3.5-2c1.2-0.6,2.6-1.7,4-2.9c2.2-1.7,4.3-3.6,5.1-4.5c0.4-0.5,1.2-1.4,2.2-2.5c0.4-0.5,0.8-1,1.2-1.5
				c-0.2,0.5-0.4,1-0.7,1.6c-0.4,0.9-0.9,1.8-1.3,2.5c-0.4,0.7-0.8,1.3-1,1.7c-0.4,0.7-1.6,2.5-2.9,3.9c-1.2,1.5-2.5,2.6-2.4,2.8
				c0.1,0.2,1.5-0.7,2.9-2.1c0.2-0.2,0.4-0.3,0.5-0.5c-0.4,0.6-0.7,1.1-0.9,1.5c-0.5,0.7-1.3,2.1-2.3,3.7c-1.1,1.6-2.3,3.4-3.6,5.1
				c-1.3,1.7-2.6,3.2-3.5,4.3c-0.3,0.3-0.5,0.6-0.8,0.9c-0.4,0.3-0.8,0.7-1.2,1c-1.4,1.1-2.3,1.8-2.3,2c0.1,0.2,1.1-0.3,2.7-1.1
				c0.8-0.5,1.7-1,2.6-1.7c1-0.7,2-1.4,3-2.3c1-0.8,2-1.8,3-2.7c0.5-0.5,0.9-1,1.4-1.4c0-0.1,0.1-0.1,0.2-0.2
				c0.7-0.6,1.3-1.1,1.6-1.4c0.8-0.7,2.7-2.7,4.4-4.8c-0.2,0.6-0.5,1.3-0.9,2c-0.4,1-1,2-1.5,2.8c-0.5,0.8-0.9,1.5-1.2,1.9
				c-0.5,0.7-1.8,2.7-3.2,4.3c-1.4,1.6-2.9,2.8-2.8,3c0.1,0.2,1.6-0.8,3.2-2.3c-1.4,2-2.7,3.7-3.3,4.5c-0.6,0.8-1.6,2.2-2.9,3.7
				c-0.6,0.8-1.4,1.7-2.1,2.5c-0.8,0.8-1.5,1.7-2.3,2.5c-2.7,2.8-5.5,4.9-6,5.6c-0.1,0.1-0.2,0.2-0.3,0.2c-1.8,1.1-2.9,1.9-2.8,2.1
				c0.1,0.2,1.3-0.3,3.2-1.2c0.9-0.5,2-1.1,3.2-1.8c1-0.6,2.1-1.3,3.2-2.2c0.4-0.3,0.9-0.5,1.3-0.8c1.6-1,3.2-2.1,4.6-3.1
				c1.4-1,2.5-1.9,3.1-2.4c0.7-0.6,2.1-1.9,3.7-3.4c0.4-0.3,0.7-0.6,1-0.8c0.3-0.3,0.8-0.7,1.4-1.3c-0.1,0.3-0.2,0.6-0.4,0.9
				c-0.6,1.3-1.3,2.7-1.6,3.2c-0.3,0.5-1,1.9-1.8,3.1c-0.8,1.2-1.6,2.2-1.4,2.4c0,0.1,0.3-0.1,0.6-0.3c0.3-0.1,0.7-0.4,1.2-0.8
				c0.7-0.6,1.4-1.4,1.6-1.7c0.2-0.3,0.7-1,1.1-1.8c-0.1,0.3-0.2,0.5-0.2,0.7c-0.2,0.8-0.9,3-1.7,4.9c-0.8,1.9-1.6,3.6-1.4,3.8
				c0.1,0.1,2.8-1.6,4-2.4c1.9-1.2,3.8-3,4.4-3.7c0.2-0.2,0.5-0.5,0.8-0.9c-0.1,0.1-0.1,0.3-0.2,0.4c-0.3,0.8-0.7,1.6-0.5,1.7
				c0.1,0.1,0.7-0.5,1.2-1.3c0.5-0.8,0.9-1.7,1.1-2.1c0.1-0.2,0.2-0.6,0.3-1c0,1.1-0.1,2.1-0.1,3.2c-0.2,7-0.3,14.1-0.3,14.8
				c0,1.4,1.1,2,2.3,2c1.3,0,2.3-0.6,2.3-2c0-0.7-0.4-7.4-1-14.2c0,0.1,0.1,0.1,0.1,0.2c0.5,0.7,1.2,1.2,1.3,1.1
				c0.1-0.1-0.3-0.8-0.6-1.6c-0.4-0.8-0.7-1.7-0.8-2c0,0,0,0,0-0.1c0.1,0.2,0.2,0.3,0.3,0.5c0.3,0.4,0.9,1.2,1.6,2
				c0.8,0.8,1.7,1.7,2.7,2.4c1,0.7,2,1.2,2.7,1.5c0.8,0.3,1.3,0.4,1.3,0.2c0-0.1-0.5-1.9-0.7-2.8c-0.3-1.2-0.5-2.5-0.6-3
				c0-0.2-0.1-0.5-0.2-0.9c0.2,0.2,0.4,0.4,0.7,0.6c0.5,0.4,2.1,1.7,2.2,1.6c0.1-0.1,0.1-0.9,0-1.2c-0.1-0.6-0.3-1.2-0.4-2
				c-0.2-1.1-0.4-2.3-0.4-3.1c0.2,0.5,0.8,1.4,1.5,2.1c0.7,0.8,1.5,1.2,1.6,1.1c0.1-0.1-0.3-0.6-0.8-1.3c-0.1-0.3-0.2-0.5-0.3-0.8
				c-0.3-0.9-0.6-1.9-0.7-2.3c0-0.1-0.1-0.3-0.1-0.6c1.1,1.4,2.3,2.9,3.7,4.3c1,1.1,2.1,2,3,2.8c0.4,0.4,0.8,0.7,1.2,1.1
				c1.2,1,2.4,2,3.7,2.9c1.2,0.9,2.5,1.7,3.6,2.5c1.2,0.7,2.3,1.3,3.2,1.8c1.9,0.9,3.1,1.3,3.2,1.2
				C145.1,419.2,144.1,418.5,142.5,417.5z M111.7,312.3L111.7,312.3C111.7,312.4,111.7,312.4,111.7,312.3
				C111.7,312.4,111.7,312.4,111.7,312.3C111.7,312.4,111.7,312.4,111.7,312.3z"/>
		</g>
	</g>
	<g>
		<g>
			<g>
				<path class="st0" d="M316.9,404.2c6.1,6.6,15.7,8.4,24.3,7.1c3.2-0.5,6.4-1.2,9.5-2.3c2.9-1,5.4-2.9,7.7-4.8
					c1.9-1.5,4.2-3.3,6.8-3.2c1.4,0,3,0.7,3.5,2c0.5,1.3,0.2,2.3-1,3.2c-0.9,0.4-2.1,0.5-2.6-0.5c-0.2-0.3-0.2-0.8,0.2-1
					c0.2-0.1,0.4-0.1,0.6,0c0.2,0.1,0.3,0.3,0.3,0.6c0.3-0.5,0.6-1,0.5-1.6c-0.1-0.6-0.4-1.1-0.9-1.4c-0.2-0.1-0.5-0.1-0.7-0.2
					c-1.3-0.1-3.1,0.3-3.5,1.7c-0.4,1.4,0,2.9,1.1,3.8c2,1.7,5.3,1.8,7.1,0.1c1.1-0.9,1.8-2.2,1.7-4c-0.3-4.4-5.4-6-9-4.8
					c-0.5,0.1-1,0.3-1.4,0.5c0.8-1.7,1.3-3.5,1.5-5.6c0.7-6.6-2.5-12.9-7.8-16c-4.9-2.9-12.2-2.9-16.1,2.1c-1.2,1.5-1.9,3.3-2.5,5.1
					c-0.6,1.8-0.5,4.1,0.1,6c0.9,2.5,3.6,4.1,6.3,3.9c0.8-0.1,1.5-0.3,2.1-0.7c0.6-0.5,1-1.2,1-1.9c-0.1-0.7-0.7-1.5-1.4-1.5
					c0.2,0.2,0.2,0.6,0,0.8c-0.2,0.2-0.5,0.3-0.8,0.3c-1.3,0-3.2-1.5-2.2-2.9c0.2-0.4,0.7-0.6,1.1-0.6c0.1,0,0.2,0,0.3,0.1
					c0.1,0,0.1,0.1,0.1,0.1c0.9,1.2,2.9,1.6,4.2,0.9c0.5-0.3,1.1-0.7,1.4-1.3c0.7-1,0.7-2.3,0.2-3.4c-0.2-0.4-0.4-0.8-0.8-0.9
					c-0.4-0.1-0.9,0.1-0.9,0.5c0.3,0,0.5,0.2,0.6,0.5c0.1,0.4,0.1,0.8-0.2,1.1c-0.4,0.4-1,0.4-1.4,0c-2.1-1.6-1.2-4.7,1.1-5.3
					c5.8-1.5,10.9,2.6,12.3,8.1c1.6,6.1-1.3,12.6-6.3,15.7c-5,3-11.5,4.1-17.2,4.1c-10.8,0-19.9-6-22.3-17.8
					c-2-9.8,0.6-20.3,7.1-27.6c1.8-2.1,3.8-3.8,5.9-5.4c-0.1,0.2-0.3,0.4-0.4,0.7c-0.8,1.6-1.4,3.2-2.4,4.7c-0.9,1.3-1.5,2-3,1.9
					c-0.3,0-0.5-0.1-0.6,0.1c-0.1,0.2,0.1,0.4,0.2,0.5c0.7,1.3,1.1,2.8,1.2,4.2c0.1,1.4-0.3,2.1-1,3.1c1.4,0.8,2.5,1.7,3.6,2.9
					c1.1,1.2,1.8,2.5,2,4.1c0,0.2,0,0.3,0.1,0.4c0.1,0.1,0.3,0.1,0.5,0.1c0.8-0.1,1.4-0.4,2.2-0.4c0.8,0,1.6,0.2,2.3,0.8
					c0.5,0.5,1,1.2,1.4,1.8c0.1-0.2,0-0.5-0.1-0.7c-0.5-1.5-1.2-3.1-1.3-4.6c-0.1-1.5,0.7-1.9,1.9-2.2c-0.6-0.8-1.2-1.9-1.4-2.8
					c-0.2-1,0-1.5,0.7-2c-1.2-0.5-2.3-1-2.6-2.5c-0.4-1.5,0.2-3,0.9-4.3c-0.2,0.1-0.6-0.1-0.8-0.1c-1.3-0.3-1.9-0.1-2.2-1.7
					c-0.6-3.7,2.7-6,5.6-7.9c11.3-5,24.6-4,36.4,0.4c-0.4,0-0.9-0.1-1.2-0.1c-0.8,0-1.5,0-2.2,0c-1.5,0-2.9,0.1-4.3,0.2
					c-2,0.1-4,0.7-6,1.1c-0.2,0-0.3,0.1-0.5,0c-0.2-0.4-0.4-0.9-0.8-1.3c-1.6-1.5-3.8-1.8-5.5-0.3c-1.7,1.5-1.8,3.8-0.3,5.5
					c1.5,1.7,3.8,1.7,5.5,0.4c1-0.8,1.3-2,1.3-3.3c0.1-0.1,0.2-0.2,0.3-0.2c0.5-0.2,0.9-0.3,1.4-0.4c2.5-0.4,4.8-0.8,7.4-0.9
					c2.1,0,4.3-0.3,6.3,0.3c-1.8,0.3-3.6,0.5-5.4,1.2c-2,0.7-3.5,1.9-4.9,3.4c-0.1,0.1-0.1,0.2-0.3,0.2c-0.1,0-0.3,0-0.4-0.1
					c-1.7-0.4-3.4,0.1-4.1,1.7c-0.7,1.6-0.2,3.4,1.3,4.3c1.5,0.9,3.3,0.5,4.4-1c1-1.4,0.7-3.2-0.5-4.5c1.5-1.5,2.9-2.7,4.9-3.5
					c2-0.8,4.2-1.2,6.4-1.3c0.5,0,1,0,1.5,0.1c3.7,1.7,7.2,3.6,10.4,5.8c10.2,7.1,19.1,16.2,28.6,24.2c6.8,5.7,14,11.1,21.5,15.7
					c-2.4-0.4-4.8-0.8-7.2-1.1c-5.2-0.6-9.3-3.4-12.9-6.9c-1.6-1.5-2.5-3.6-3-5.8c-0.1-0.4-0.5-0.7-0.8-1c-0.3,0.3-0.6,0.7-0.7,1
					c-0.4,1.2-0.7,2.6-1.2,3.7c-1.6,3.6-5.8,5.4-9.7,3.5c-2.1-1-4.1-2.1-5.6-3.9c-0.2-0.3-0.8-0.4-1.1-0.6c-0.1,0.4-0.3,0.7-0.4,1.1
					c-0.5,2.5-0.8,5.1-1.6,7.4c-1.2,3.2-4.2,5.1-7.7,4.4c-3.1-0.6-3.2,0.3-2.4,2.7c0.8,2.4,0,5-1.2,7.1c-1,1.9-2.6,3.6-4,5.2
					c-0.5,0.6-1.4,0.7-2.1,1.1c-0.3,0.2-0.6,0.6-0.9,0.9c0.4,0.2,0.8,0.5,1.2,0.5c0.9-0.1,1.8-0.3,2.6-0.4c3-0.4,5.9,0,8.7,1.3
					c0.9,0.4,1.6,1,2,1.8c0.1,0.2,0.2,0.4,0.2,0.6c0.1,0.4,0.6,0.8,0.9,1.1c0.4-0.3,0.7-0.6,1.1-1c0.1-0.1,0.1-0.1,0.1-0.2
					c0.1-0.2,0.2-0.4,0.4-0.6c1.7-2.7,4.3-3.2,7.4-2.2c1.5,0.4,2.7,1.2,3.8,2.2c0.8,0.8,1.4,1.8,1.8,3c0.1,0.4,0.7,0.8,1,1.1
					c0.2-0.4,0.5-0.8,0.6-1.3c0.2-0.9,0.3-1.9,0.5-2.8c0-0.1,0-0.1,0-0.2c1.2-5.8,9.3-7.7,13.2-3.4c0.3,0.3,0.7,0.6,1,0.6
					c0.3-0.1,0.6-0.6,0.6-1c1.3-7.4,6.7-10.5,13.1-12.3c3.8-1.1,7.8-1.7,11.7-0.7c0.1,0,0.1,0,0.2,0.1c11,5.3,23,8.3,35.2,7.8
					c7.8-0.3,16.5-1.9,23.8-5.8c3.2-1.7,6.1-3.8,8.6-6.5c0.6-0.6,0-1.8-0.8-1.4c-2,1.2-4.1,2.3-6.1,3.4c-3.7,2-7.4,3.7-11.4,4.9
					c-6,1.8-12.2,2.5-18.4,2.3c-6.5-0.2-12.8-1.4-18.9-3.3c-1-0.6-2.5-1-3-1.2c-0.3-0.1-0.6-0.3-0.9-0.4c0.3-3.2-1.4-5.7-2.9-8.4
					c-0.7-1.2-1.7-2.2-2.5-3.3c-0.2-0.3-0.5-0.7-0.6-1.1c-0.4-1.6-0.3-3.2,0.3-4.7c0.7-1.6,2.2-2.5,3-4.1c0.1-0.2,0.2-0.4,0.1-0.5
					c-0.1-0.3-0.5-0.4-0.8-0.4c-1,0-2,0.3-3.1,0.3c-1.5,0.1-2.7-0.4-3.8-1.3c-0.5-0.4-0.8-1.1-1-1.7c-0.6-2.6,0.3-5.2,2.2-7
					c0.3-0.3,0.4-0.8,0.5-1.2c-0.4,0-0.8-0.1-1.2,0c-3.5,1.1-6.6-1.5-7.3-4.6c-0.4-1.9-0.4-4.1,0.6-5.9c0.4-0.8,1.1-1.5,1.7-2.2
					c0.2-0.3,0.3-0.6,0.5-0.9c-0.4,0-0.8-0.2-1,0c-3.3,1.7-5.3,4.4-6.2,7.9c-0.4,1.7-1,3.2-2.7,4.1c-0.6,0.3-0.5,0.8-0.2,1.3
					c0.7,1.3,1.3,2.5,1.9,3.8c0.8,1.9,0.9,3.9,0,5.8c-0.3,0.6-0.9,1-1.3,1.5c-0.3,0.3-0.5,0.7-0.7,1c0.4,0.2,0.7,0.5,1,0.5
					c3.7,0.7,5.6,4.2,7,7.4c0.2,0.4,0.3,0.8,0.4,1.3c0.1,0.8-0.3,1.7-0.2,2.5c1.2,0.3,2.5-0.5,3.7-0.6c1.2-0.1,2.4,0.1,3.6,0.6
					c1.8,0.8,3.6,2,4.9,3.6c1.2,1.5,1.5,3.5,2.1,5.3c-1.3-0.5-2.6-1-4-1.4c-3.1-1.4-6.1-3-9-4.7c-12.2-7.2-23.1-16.6-33.8-26.2
					c-10.1-9-20.5-17.9-33-22.5c-1.1-1.8-0.8-3.7-1-5.7c-0.3-2.4-1-4.4-1.4-6.8c-0.5-3.1,0.5-5.6,3-7.7c0.2-0.2,0.5-0.5,0.6-0.8
					c-0.3,0-0.7-0.1-1-0.1c-0.7,0.1-1.4,0.3-2,0.3c-1.8,0.1-3-0.4-4-2c-0.8-1.4-0.8-2.9-0.7-4.4c0.1-1,0.4-2,0.6-3
					c0.2-0.8,0.4-1.6,0.8-2.3c0.2-0.3,0.5-0.6,0.6-0.9c-0.2-0.1-0.4-0.2-0.6-0.1c-3.7,1.7-7.9,0.6-10.5-2.5c-1-1.2-1.5-2.3-2.1-3.6
					c-0.1-0.1-0.1-0.3-0.2-0.4c-0.1-0.1-0.3-0.2-0.5-0.2c-0.2,0.1-0.2,0.3-0.2,0.4c0,2.4,0,4.7-0.4,7.1c-0.3,1.7-0.9,3-2.4,4
					c-0.5,0.3-1,0.4-1.6,0.6c-0.6,0.2-0.8,0.4-0.4,1c1.7,2.3,2.6,4.6,2.9,7.4c0.2,1.9-0.9,3.1-2,4.4c-0.1,0.1-0.2,0.2-0.3,0.2
					c-0.5,0.5-0.4,0.8,0.2,1.1c2.1,1.1,4.1,1.9,6,3.5c2.2,1.8,3.9,4.3,3.6,7.3c-8.7-1.1-17.7-0.2-25.9,3.5
					c-9.4,4.2-17.4,12.3-20.3,23.1c-0.1,0.4-0.2,0.7-0.3,1.1c-0.1,0.3-0.2,0.7-0.2,1C308.6,386,310.3,397.1,316.9,404.2z M446,396.8
					c-0.1,0-0.2,0-0.3-0.1c-0.1-0.1-0.3-0.2-0.4-0.4c-0.1,0.1-0.2,0.1-0.3,0c-1.8-2.4-3.7-3.2-6.7-2.9c0,0,0,0,0,0
					c1.4-0.7,3.1-0.6,4.6,0.1c-0.7-1-1.3-2-1.9-3c-0.4-0.7-0.8-1.4-1.3-2.1c-0.9-1-1.8-2-3.1-2.7c-1.6-1-3.5-1.5-5.2-2.3
					c0,0,0-0.1,0-0.1c2.5,0.4,5.1,1.4,7.1,3c-0.8-1.5-1.7-3.1-2.4-4.7c-0.1-0.3-0.3-0.6-0.4-1c0,0-0.1,0-0.1-0.1
					c-1.7-2.9-3.4-5.5-5.9-7.7c0,0,0-0.1,0.1-0.1c1.8,1.4,3.6,3.2,4.8,5.2c-1.4-4.1-2.2-8.3-1.5-12.7c0,0,0,0,0,0
					c-0.5,5.8,1.1,11.3,3.6,16.4c0.7,1.5,1.5,3,2.3,4.5c-1.1-3.6-1.1-7.7,0.2-10.9c0-0.1,0.1,0,0.1,0c-0.7,3.2-0.8,6.4,0.1,9.6
					c0.8,2.9,2.3,5,4.1,7.2c0-0.2-0.1-0.4-0.1-0.6c-0.2-2,0.7-3.5,2-5c0.1-0.1,0.2,0,0.1,0.1c-1,1.8-1.6,3.4-1.1,5.5
					c0.4,1.4,1.3,2.6,1.6,4c0,0,0.1,0.1,0.1,0.1C446.4,396.5,446.2,396.8,446,396.8z M427.8,405.4c-5.2-0.8-9.6,2.3-11.6,7
					c0,0.1-0.1,0-0.1,0c0.7-4,3.4-6.7,6.9-7.8c-1-0.1-2-0.1-3-0.1c-7.7,1.5-14.8,4.7-18.2,12.5c0,0.1-0.2,0-0.2-0.1
					c1.2-6.5,6.5-10.1,12.4-12.1c-1,0.1-2,0.1-3,0.1c-4,0.8-8,1.5-11.8,2.7c-5.7,1.8-8,5.8-10.8,10.6c0,0-0.1,0,0,0
					c1-3.2,2.4-6.2,4.7-8.4c-3.8,1.7-7.5,3.6-10.9,6c-0.2,0.1-0.4-0.2-0.2-0.3c3.7-2.8,7.8-5.1,12-7c-3.7-0.4-7.5-2.5-11-3.4
					c0,0,0,0,0,0c1.9-0.3,3.9,0.5,5.7,1.1c3,0.8,5.6,1.2,8.7,1c1.3-0.5,2.6-1,4-1.3c0.9-0.3,1.8-0.5,2.8-0.7
					c0.6-0.2,1.3-0.3,1.9-0.4c-4.9-1-9.3-4.1-11.7-8.6c0-0.1,0.1-0.2,0.1-0.1c4.3,5.3,9.9,7.5,16.7,7.4c2,0,4-0.3,6.1-0.4
					c-0.8-0.3-1.6-0.7-2.3-1.2c-2.4-1.6-4.1-3.8-4.4-6.7c0-0.1,0.1-0.1,0.1,0c1.1,3.4,3.9,5.4,7.2,6.4c2.8,0.9,6.4,0.8,9,2.2
					c0.2,0.1,0.4,0.1,0.5,0.2c0.1,0,0.2,0.1,0.3,0.2c0.1,0,0.1,0,0.2,0.1c0.2,0.1,0.3,0.3,0.3,0.5
					C428.8,404.7,428.5,405.5,427.8,405.4z M358.5,345.9c0.9-1.4,1.9-1.7,3.5-1.6c0.4,0,0.7,0.1,1.1,0.2c-0.3-0.3-0.6-0.7-1-1
					c-1.1-1.2-2-2.4-3.2-3.6c-1.2-1.1-2.6-2.2-4.1-2.8c-1.5-0.6-3.1-0.9-4.7-1.2c0,0,0,0,0,0c3.4,0.1,6.3,0.6,9.1,2.6
					c0.2,0.1,0.4,0.3,0.6,0.5c-0.8-1.1-1.3-2.4-2-3.6c-0.6-1-1.3-2-2-3c-1.9-2.8-4-5.4-6.4-7.7c0,0,0-0.1,0-0.1
					c1.3,0.9,2.6,1.8,3.7,3c0.9,0.9,1.8,2,2.6,3c-1.6-4.7-2.3-9.2-1.8-14.2c0,0,0,0,0,0c0,2.7,0.1,5.2,0.6,7.8
					c0.5,2.6,1.4,5.2,2.4,7.7c0,0,0,0,0,0c-0.8-4.7,1.1-8.1,4.1-11.6c0,0,0,0,0,0c-2.9,4.1-4.9,7.9-3.1,12.9
					c0.6,1.7,1.9,3.1,2.7,4.8c0.8-2.4,2.3-4.2,4.2-5.8c0,0,0.1,0,0.1,0.1c-1,1.3-2.2,2.5-2.9,4c-0.5,1.1-0.6,2.2-0.5,3.3
					c0,0.3,0.2,0.6,0.4,0.9c0.6,0.9,1.3,1.7,2,2.6c0.7,0.9,1.6,1.9,2.3,2.9c0,0,0.1,0,0.1,0.1c0.3,0.2,0.3,0.3,0.3,0.6
					c0,0.7-0.6,0.7-1,0.5c-0.2-0.1-0.3-0.3-0.5-0.4c-0.7-0.4-1.5-0.9-2.3-1.3c-0.5-0.2-1-0.4-1.5-0.5
					C360.3,344.7,359.5,345,358.5,345.9C358.6,345.9,358.5,345.9,358.5,345.9z M326.6,360.2c0,0.3-0.1,0.7-0.2,1c0,0,0,0,0,0
					c0,0,0,0.1,0,0.1c-0.1,0.8-0.3,1.7-0.1,2.4c0.3,1.1,0.9,1.4,1.8,1.7c0,0,0,0,0,0.1c-0.9,0.3-1.6,0.1-2.2-0.6
					c-0.2-0.2-0.3-0.5-0.4-0.8c-0.1,0.6-0.2,1.3-0.3,1.9c0,0.3-0.1,0.7,0,0.9c0.4,0.8,0.7,1.4,1.4,2c0.6,0.6,1.5,0.9,2.3,1.2
					c0,0,0,0,0,0c-1-0.1-1.8-0.4-2.6-1c-0.3-0.2-0.6-0.6-0.8-0.9c0.2,0.8,0.4,1.7,0.6,2.4c0.1,0.3,0.1,0.6,0.3,0.8
					c0.2,0.3,0.5,0.6,0.8,0.9c0.3,0.3,0.7,0.6,1.1,0.8c0.4,0.2,0.8,0.5,1.2,0.6c0.4,0.1,0.7,0.2,1,0.3c0,0,0.1,0.1,0,0.1
					c-0.9,0.1-1.5-0.2-2.3-0.6c-0.5-0.3-1.1-0.7-1.5-1.1c0.2,0.5,0.4,0.9,0.6,1.4c0,0,0,0.1,0,0.1c0.2,0.4,0.4,0.9,0.7,1.3
					c0.8,1.3,1.7,2.5,2.4,3.9c0,0,0,0,0,0c-0.8-1.4-1.8-2.7-2.7-4.1c0.1,1.3-0.1,2.4-0.6,3.5c0,0,0,0,0,0c0.2-0.9,0.4-1.7,0.4-2.6
					c0-0.7-0.1-1.3-0.4-2c-0.5-1.2-1-2.3-1.4-3.6c-0.3-0.8-0.5-1.7-0.7-2.5c-0.1,0.5-0.3,1-0.5,1.4c-0.5,1.1-1,2.1-1.8,3
					c0,0-0.1,0,0-0.1c0.4-1.1,1-2.1,1.4-3.3c0.2-0.5,0.3-1.1,0.4-1.7c0.1-0.4,0.1-0.9,0.2-1.4c0-0.1,0-0.2,0-0.3
					c0.1-0.5,0.1-1,0.2-1.5c-0.1,0.2-0.4,0.5-0.5,0.7c-0.7,0.7-1.3,1.1-2.2,1.5c0,0,0,0,0-0.1c0.8-0.8,1.5-1.2,2.2-2.2
					c0.3-0.4,0.8-1.3,1-1.9c0.2-0.3,0.2-0.8,0.3-1.1c0.1-0.3,0.1-0.3,0.2-0.4c0.1-0.2,0.1-0.3,0.3-0.4
					C326.3,359.8,326.6,359.9,326.6,360.2z"/>
			</g>
			<path class="st0" d="M311.5,378.5c0,0,0.1-0.1,0.1-0.1c0,0,0,0,0,0C311.6,378.5,311.6,378.5,311.5,378.5z"/>
			<path class="st0" d="M296.7,385c0.6,0.5,0.8,1.3,0.9,2c0.1,0.7-0.1,1.4-0.2,2c0,0.2-0.2,0.4-0.3,0.6c-0.1,0.1-0.1,0.2-0.1,0.4
				c0.1,0,0.3,0,0.4-0.1c0.2-0.2,0.4-0.4,0.6-0.5c0.7-0.6,1.5-1,2.5-1.1c0.4-0.1,0.7,0,1,0.3c0.1,0.1,0.3,0.1,0.4,0.1
				c0-0.1,0.1-0.3,0.1-0.4c0,0,0-0.1,0-0.1c-0.1-1.1,0.5-1.7,1.5-2c0.8-0.2,1.6-0.1,2.3,0.4c0.1,0.1,0.3,0.1,0.4,0.1
				c0-0.1,0-0.3,0-0.4c-0.1-0.3-0.3-0.6-0.4-0.9c-0.7-1.7,1.1-3.5,2.8-3.1c0.1,0,0.3,0,0.4,0c0.1-0.1,0-0.2,0-0.4
				c-0.9-2.1-0.1-3.8,1.3-5.4c0.1-0.1,0.1-0.2,0.2-0.2c0.3-0.3,0.5-0.5,0.8-0.8c0,0,0,0,0.1-0.1c0.1-0.1,0.1-0.2,0.2-0.2
				c0-0.1-0.1-0.4-0.1-0.4l-0.2-0.7l-0.2,0.1l-1.7,0.7c-0.5,0.2-1,0.4-1.4,0.7c-1.5,0.7-3,0.7-4.5,0.4c-0.7-0.1-1.3-0.5-1.7-1
				c-0.1-0.1-0.2-0.1-0.4-0.1c0,0.1,0,0.3,0,0.4c0.1,0.4,0.3,0.8,0.3,1.2c0.2,1.2-0.6,2.4-1.9,2.6c-0.7,0.1-1.4,0.2-2.1-0.1
				c-0.1,0-0.3,0-0.4,0c0,0.1,0,0.2,0.1,0.4c0.3,0.7,0.7,1.4,0.8,2.2c0.2,1-0.2,2-1.3,2.4C296,384.3,296.1,384.5,296.7,385z
				 M297.4,384.2c0.4-0.4,1.1-0.5,1.7-0.7c0.9-0.3,1.7-0.6,2.4-1.2c0.2-0.4,0.5-0.7,0.8-1c0.2-0.2,0.4-0.4,0.6-0.7
				c0.1-0.1,0.3-0.3,0.4-0.4c-1.4,0.6-3.1,0.5-4.5-0.2c0,0,0-0.1,0-0.1c2,0.7,3.8,0.3,5.5-0.9c0.5-0.3,1-0.7,1.5-1.1
				c-0.3,0-0.5,0.1-0.8,0.1c-0.9,0-1.7-0.3-2.3-1c0,0,0,0,0,0c0.9,0.7,1.9,0.7,3,0.5c0.9-0.2,1.8-0.9,2.7-1c0.1,0,0.1,0,0.2,0
				c0,0,0.1,0,0.1,0c0,0,0,0,0.1,0c0.1,0,0.1,0,0.2,0.1c0.2,0,0.2,0.3,0,0.4c-1.5,0.7-2.1,2.2-1.8,3.8c0,0,0,0,0,0
				c-0.5-1.1-0.3-2.3,0.5-3.2c-0.3,0.1-0.5,0.3-0.8,0.5c-1.7,1.7-3,3.7-2.6,6.3c0,0-0.1,0-0.1,0c-0.8-1.9,0-3.7,1.2-5.2
				c-0.2,0.2-0.5,0.4-0.8,0.5c-0.9,0.9-1.8,1.7-2.6,2.7c-1.2,1.4-1.1,2.8-1,4.6c0,0,0,0,0,0c-0.3-1-0.4-2-0.2-3
				c-0.7,1.1-1.3,2.2-1.8,3.4c0,0.1-0.1,0-0.1-0.1c0.5-1.3,1.1-2.6,1.9-3.8C299.8,383.8,298.4,383.9,297.4,384.2
				C297.4,384.3,297.4,384.3,297.4,384.2z"/>
		</g>
		<path class="st0" d="M447,385.6c3.9,3.1,9.2,2.9,12.3,7.3c0.3,0.4,0.5,0.8,0.7,1.2c1.3-1.5,3.5-2.2,5.4-1.7c2,0.4,3.8,1.9,4.5,3.8
			c1.3-1.5,2.6-3,4.5-3.8c1.8-0.8,4.3-0.5,5.6,1.1c0.5,0.6,1.1,1.4,1.7,1c0.2-0.1,0.3-0.4,0.5-0.6c0.9-1.8,7.7-7.2,11.5-8.3
			c6,4.2,11.3,6.6,13.8,7.7c1,0.4,1.6,0.6,1.6,0.6l2.7-1.1c-1-0.3-2.2-0.8-3.5-1.3c-5.7-2.5-13-6.8-13.8-7.3c-0.1,0-0.1,0-0.1,0
			c0,0-0.1,0-0.1-0.1c-0.4-0.2-0.8-0.5-1.2-0.8c0,0,0,0-0.1,0c-0.1-0.1-0.2-0.2-0.4-0.3c0,0,0,0,0,0c-1.7-2.7-2.8-5.6-3.4-8.7
			c0.2-0.1,0.4-0.3,0.5-0.5c0.4-0.5,0.3-1.2,0.3-1.8c0.1-3.4,0.9-6.2,3.1-8.9c-3.4-2.4,2-6.6,4.1-8.1c-1.5,0.3-2-3.4-1.9-3.9
			c0.4-2.6,2-3.9,3.6-5.6c-2.1,0-3.6-8.9-4.1-11c-2,4.1-4.1,7.8-9.1,8.5c1.7,0.6,1.4,4.1,0.8,5.2c-1.3,2.7-3.6,4.1-5.6,6.1
			c2.1,1.1,3.1,2.8,3,5.2c-0.1,2.4-1.3,4.4-2.8,6.2c3.3-1.4,6,5.5,6.8,7.7c0.1,0.1,0.1,0.3,0.1,0.3c0.4,2.6,1.2,5.1,2.3,7.5
			c-0.2-0.2-0.4-0.4-0.7-0.5l0,0c-1.7-1.4-3.4-2.8-4.2-3.6c0,0,0,0,0,0c-0.2-0.2-0.3-0.3-0.5-0.5c0,0,0,0-0.1-0.1c0,0,0,0,0,0
			c-3.6-3.5-6.9-7.4-9.7-11.6c-0.1-2.4-0.1-10.2,1.4-9.6c-3.4-1.5-6.8-4.5-6.2-8.2c-4.8,1.1-10.1-2.4-10.9-7.2
			c0,0.2-5.1-1.4-5.5-1.6c-1.8-1-3.1-2.9-5.1-3.4c0,4,3,7.2,1.8,11.4c-0.1,0.3-0.2,0.7-0.4,1c1.7,0.1,3.3,1.1,4.1,2.6
			c0.8,1.5,0.8,3.3-0.1,4.8c1.7,0.1,3.4,0.1,4.9,0.9c1.5,0.8,2.7,2.4,2.3,4c-0.1,0.6-0.3,1.4,0.2,1.6c0.2,0.1,0.4,0,0.6,0
			c1.4-0.3,6.5,0.8,9.8,2.1c0.6,1,1.2,1.9,1.8,2.8c-0.3-0.2-0.7-0.3-1.1-0.3c-0.9-0.1-1.9,0.1-2.7,0.7c-1.5,1.2-1.3,3.8,0.3,4.7
			c0.8,0.4,1.8,0.4,2.7,0.2c0.5-0.1,1-0.3,1.4-0.7c0.2-0.2,0.4-0.5,0.4-0.8c1.1,0.5,2.1,1,3.1,1.7c0.8,0.9,1.5,1.8,2.3,2.6
			c-2.3-0.4-4.5-0.8-6.7-1.4c-0.5-0.1-1.1-0.3-1.6-0.5c-0.4-0.3-0.9-0.5-1.4-0.6c-0.1,0-0.1,0-0.2,0c-1.1-0.4-2.1-0.9-3.2-1.4
			c0.4-1,0.3-2.4-0.4-3.2c-0.3-0.3-0.6-0.5-1-0.6c-1.9-0.5-3.4,1.2-3.4,3c0,0.5,0.1,1,0.4,1.5c0.2,0.3,0.6,0.5,0.9,0.7
			c1.2,0.5,2.5,0.3,3.3-0.7c0.7,0.4,1.5,0.7,2.3,1.1c-0.3,0.1-0.6,0.3-0.9,0.5c-1.3,1.1-1.2,3.3,0.3,4.1c0.7,0.4,1.6,0.4,2.4,0.2
			c0.4-0.1,0.9-0.3,1.2-0.6c0.3-0.3,0.4-0.7,0.5-1.1c2.9,0.5,5.8,0.6,8.8,0.4c0.7,0.7,1.4,1.4,2.1,2.1c-3.3,0.8-6.9,0.6-9.1-2
			c-2.4,5.3-9.7,7.4-14.9,4.3c0.3,0.2-5,3.6-5.6,3.8C451.7,384.4,448.9,384.1,447,385.6z M480.1,374.7c-2.4,0.1-4.9-0.1-7.3-0.5
			c0-0.4,0-0.8-0.1-1.2c0.2,0.1,0.5,0.2,0.7,0.2C475.6,374,477.8,374.4,480.1,374.7z M472.7,360.9c-0.2-0.4-0.5-0.8-0.7-1.3
			c-0.1-0.1-0.2-0.2-0.3-0.2c-4.2-5.6-11.7-7.9-15.4-14c-0.3-0.5,0.5-1,0.8-0.5c4,6.6,12.5,8.7,16.4,15.4
			C473.7,360.8,473,361.3,472.7,360.9z M476.8,370c-0.6-0.3-1.2-0.6-1.8-0.8c0-0.2,0-0.3,0-0.5c0-0.3,0-0.7-0.1-1
			C475.6,368.5,476.2,369.2,476.8,370z M487.5,367.9c0-0.2,0-0.3-0.1-0.5c0-0.1,0-0.2,0-0.3c0-0.2,0-0.3-0.1-0.4
			c-0.6-6.3,2.4-12.4,3.7-18.6c0.1-0.6,1-0.4,0.9,0.2c-1.4,6.5-4.5,12.9-3.6,19.5C488.5,368.5,487.6,368.5,487.5,367.9z
			 M460.4,385.3c3.2,2,8.9-0.2,12.3-1.1c2.5-0.6,5.1-1.6,7.7-1.9c2.8-0.3,5.2,0.6,7.9,0.9c0.6,0.1,0.4,1-0.2,0.9
			c-1.6-0.2-3.1-0.7-4.6-0.9c-2.1-0.3-4.1,0.1-6.1,0.7c-2.2,0.6-4.4,1.2-6.6,1.8c-3.1,0.8-7.8,2.2-10.8,0.4
			C459.4,385.8,459.8,385,460.4,385.3z"/>
	</g>
	<g>
		<g>
			<g>
				<path class="st0" d="M682.4,603.2c-6.1-7.3-16.2-9.8-25.4-9c-3.4,0.3-6.9,0.9-10.2,1.9c-3.1,0.9-5.9,2.8-8.5,4.6
					c-2.2,1.5-4.7,3.2-7.4,3c-1.5-0.1-3.1-0.9-3.6-2.4c-0.5-1.4-0.1-2.5,1.2-3.3c0.9-0.4,2.2-0.4,2.7,0.7c0.2,0.4,0.1,0.9-0.2,1.1
					c-0.2,0.1-0.5,0.1-0.7,0c-0.2-0.1-0.3-0.4-0.3-0.6c-0.4,0.5-0.7,1.1-0.6,1.7c0,0.6,0.4,1.2,0.9,1.5c0.2,0.1,0.5,0.2,0.7,0.2
					c1.3,0.2,3.3-0.1,3.8-1.5c0.5-1.4,0.2-3.1-0.9-4.1c-2-1.9-5.5-2.2-7.6-0.5c-1.2,0.8-2.1,2.3-2,4.1c0.1,4.7,5.3,6.6,9.3,5.7
					c0.5-0.1,1-0.3,1.5-0.5c-0.9,1.7-1.6,3.7-1.9,5.8c-1.1,7,1.9,13.8,7.3,17.4c5.1,3.3,12.8,3.8,17.2-1.3c1.3-1.5,2.2-3.4,2.9-5.2
					c0.8-1.9,0.8-4.3,0.2-6.3c-0.8-2.7-3.6-4.6-6.4-4.5c-0.8,0-1.6,0.2-2.3,0.6c-0.7,0.4-1.2,1.2-1.1,2c0,0.8,0.6,1.6,1.4,1.7
					c-0.2-0.2-0.1-0.6,0.1-0.8c0.2-0.2,0.5-0.2,0.8-0.2c1.4,0.1,3.3,1.8,2.1,3.2c-0.3,0.4-0.8,0.6-1.2,0.6c-0.1,0-0.2,0-0.3-0.1
					c-0.1,0-0.1-0.1-0.1-0.2c-0.9-1.3-3-1.9-4.4-1.2c-0.6,0.3-1.2,0.7-1.6,1.3c-0.8,1-0.8,2.4-0.4,3.6c0.2,0.4,0.4,0.8,0.8,1
					s1-0.1,1-0.5c-0.3,0-0.5-0.3-0.6-0.5c-0.1-0.4,0-0.8,0.3-1.1c0.5-0.4,1-0.3,1.5,0.1c2.1,1.8,1,5-1.5,5.5
					c-6.2,1.3-11.4-3.4-12.5-9.3c-1.3-6.6,2.1-13.3,7.7-16.3c5.5-2.9,12.5-3.6,18.4-3.3c11.4,0.6,20.8,7.6,22.6,20.2
					c1.5,10.5-1.9,21.5-9.2,28.9c-2.1,2.1-4.3,3.8-6.6,5.3c0.2-0.2,0.3-0.5,0.5-0.7c1-1.6,1.7-3.3,2.8-4.8c1-1.3,1.7-2,3.3-1.8
					c0.3,0,0.5,0.2,0.6-0.1c0.1-0.2-0.1-0.4-0.2-0.6c-0.7-1.4-1-3-1-4.5c0-1.5,0.4-2.2,1.2-3.3c-1.4-1-2.6-2-3.7-3.3
					c-1.1-1.3-1.7-2.7-1.9-4.5c0-0.2,0-0.3-0.1-0.5c-0.1-0.1-0.3-0.2-0.5-0.2c-0.8,0.1-1.5,0.3-2.4,0.3c-0.9,0-1.7-0.3-2.4-1
					c-0.6-0.5-1-1.3-1.4-2c-0.1,0.2,0,0.5,0,0.8c0.4,1.6,1.1,3.4,1.1,4.9c0,1.6-0.8,2-2.1,2.3c0.5,0.9,1.2,2,1.4,3.1
					c0.2,1,0,1.6-0.9,2.1c1.3,0.7,2.3,1.2,2.7,2.8c0.3,1.6-0.4,3.2-1.2,4.6c0.3,0,0.7,0.1,0.9,0.2c1.3,0.4,2.1,0.2,2.2,1.9
					c0.4,4-3.3,6.2-6.4,8c-12.3,4.6-26.3,2.7-38.6-2.6c0.5,0,1,0.2,1.3,0.2c0.9,0.1,1.6,0.1,2.4,0.2c1.6,0,3,0,4.6,0.1
					c2.1,0,4.3-0.5,6.4-0.8c0.2,0,0.4,0,0.5,0c0.2,0.5,0.4,1,0.7,1.4c1.6,1.7,4,2.1,5.8,0.6c1.9-1.5,2.2-3.9,0.7-5.8
					c-1.5-1.9-3.9-2.1-5.8-0.7c-1.1,0.8-1.5,2.1-1.6,3.4c-0.1,0.1-0.2,0.2-0.3,0.2c-0.5,0.2-1,0.3-1.5,0.4c-2.7,0.3-5.2,0.6-7.9,0.5
					c-2.2-0.1-4.6,0.1-6.7-0.7c1.9-0.2,3.9-0.4,5.8-0.9c2.1-0.7,3.8-1.8,5.4-3.3c0.1-0.1,0.1-0.2,0.3-0.2c0.1,0,0.3,0,0.5,0.1
					c1.7,0.5,3.6,0,4.5-1.6c0.9-1.6,0.4-3.6-1.1-4.6c-1.5-1-3.5-0.7-4.7,0.7c-1.2,1.5-0.9,3.4,0.3,4.8c-1.6,1.5-3.2,2.7-5.4,3.4
					c-2.2,0.7-4.6,1-6.9,1c-0.5,0-1-0.1-1.6-0.2c-3.8-2-7.5-4.3-10.7-6.8c-10.4-8.1-19.3-18.3-28.9-27.4
					c-6.9-6.5-14.1-12.6-21.9-17.9c2.5,0.6,5,1.1,7.5,1.6c5.5,1,9.6,4.2,13.3,8.1c1.6,1.7,2.4,4,2.8,6.4c0.1,0.4,0.5,0.8,0.7,1.1
					c0.3-0.4,0.7-0.7,0.9-1.1c0.5-1.3,0.9-2.7,1.5-3.9c2-3.7,6.5-5.4,10.5-3.1c2.1,1.2,4.2,2.4,5.7,4.5c0.2,0.3,0.8,0.5,1.2,0.7
					c0.2-0.4,0.4-0.8,0.5-1.2c0.7-2.6,1.1-5.3,2.2-7.8c1.4-3.3,4.8-5.2,8.5-4.2c3.3,0.8,3.4-0.1,2.7-2.7c-0.7-2.6,0.3-5.3,1.7-7.5
					c1.2-2,2.9-3.6,4.6-5.3c0.6-0.6,1.5-0.7,2.3-1.1c0.4-0.2,0.7-0.6,1-0.9c-0.4-0.2-0.8-0.6-1.2-0.6c-0.9,0-1.9,0.2-2.8,0.3
					c-3.2,0.3-6.3-0.4-9.2-1.9c-0.9-0.5-1.6-1.1-2-2.1c-0.1-0.2-0.2-0.4-0.2-0.7c-0.1-0.5-0.6-0.8-0.9-1.3c-0.4,0.3-0.8,0.6-1.2,0.9
					c-0.1,0.1-0.1,0.1-0.2,0.2c-0.1,0.2-0.3,0.4-0.4,0.6c-2,2.7-4.8,3.1-8,1.9c-1.5-0.6-2.8-1.4-3.9-2.6c-0.8-0.9-1.4-2-1.7-3.3
					c-0.1-0.5-0.7-0.8-1-1.3c-0.3,0.4-0.6,0.8-0.7,1.3c-0.3,1-0.4,2-0.7,3c0,0.1,0,0.1,0,0.2c-1.7,6.1-10.3,7.6-14.2,2.8
					c-0.3-0.3-0.7-0.7-1.1-0.7c-0.3,0-0.6,0.6-0.7,1c-1.8,7.7-7.7,10.7-14.6,12.3c-4.1,0.9-8.3,1.4-12.5,0c-0.1,0-0.1,0-0.2-0.1
					c-11.4-6.2-23.9-10.2-36.8-10.4c-8.3-0.1-17.6,1-25.6,4.7c-3.5,1.6-6.7,3.7-9.5,6.3c-0.6,0.6-0.1,1.9,0.7,1.5
					c2.2-1.1,4.4-2.2,6.7-3.3c4-1.9,8.1-3.5,12.4-4.5c6.5-1.5,13.1-1.9,19.6-1.3c6.9,0.6,13.5,2.2,19.9,4.7c1,0.7,2.6,1.2,3.1,1.4
					c0.3,0.2,0.6,0.3,0.9,0.5c-0.6,3.4,1.1,6.1,2.6,9c0.6,1.3,1.7,2.4,2.5,3.7c0.2,0.4,0.4,0.8,0.5,1.2c0.3,1.7,0.1,3.4-0.6,4.9
					c-0.8,1.7-2.5,2.6-3.4,4.1c-0.1,0.2-0.2,0.4-0.1,0.6c0.1,0.3,0.5,0.4,0.8,0.5c1.1,0,2.2-0.2,3.3-0.2c1.6,0,2.8,0.6,4,1.6
					c0.5,0.4,0.8,1.2,0.9,1.8c0.4,2.8-0.7,5.5-2.8,7.3c-0.3,0.3-0.4,0.8-0.7,1.2c0.4,0,0.9,0.2,1.3,0.1c3.8-1,6.9,2,7.4,5.4
					c0.3,2.1,0.2,4.3-1,6.3c-0.5,0.8-1.3,1.5-1.9,2.3c-0.2,0.3-0.4,0.6-0.5,0.9c0.4,0,0.8,0.2,1.1,0.1c3.6-1.6,5.9-4.3,7.1-8
					c0.6-1.7,1.3-3.4,3.1-4.1c0.6-0.3,0.6-0.8,0.3-1.4c-0.7-1.4-1.3-2.8-1.8-4.2c-0.8-2.1-0.7-4.2,0.3-6.1c0.3-0.6,1-1,1.5-1.6
					c0.3-0.3,0.6-0.7,0.9-1.1c-0.4-0.2-0.7-0.5-1.1-0.6c-3.9-1-5.7-4.8-7-8.3c-0.2-0.4-0.3-0.9-0.3-1.4c0-0.9,0.4-1.8,0.4-2.6
					c-1.2-0.4-2.7,0.4-4,0.4c-1.3,0-2.6-0.3-3.7-0.9c-1.9-1-3.7-2.3-5-4.1c-1.2-1.6-1.4-3.8-1.9-5.7c1.4,0.6,2.7,1.2,4.1,1.8
					c3.2,1.7,6.3,3.5,9.3,5.5c12.5,8.3,23.5,19,34.3,29.8c10.1,10.2,20.7,20.2,33.6,25.8c1,2,0.7,3.9,0.8,6.1c0.1,2.5,0.8,4.7,1,7.3
					c0.3,3.4-0.9,5.9-3.6,8c-0.3,0.2-0.5,0.5-0.7,0.8c0.3,0.1,0.7,0.2,1.1,0.2c0.7,0,1.5-0.2,2.2-0.2c1.9,0,3.2,0.6,4.1,2.4
					c0.8,1.5,0.7,3.1,0.5,4.7c-0.2,1.1-0.5,2.1-0.8,3.1c-0.3,0.8-0.5,1.7-1,2.4c-0.2,0.3-0.5,0.6-0.7,0.9c0.2,0.1,0.4,0.3,0.6,0.2
					c4.1-1.6,8.4-0.1,10.9,3.3c1,1.3,1.5,2.5,2,4c0.1,0.2,0.1,0.3,0.2,0.4c0.1,0.1,0.3,0.2,0.5,0.2c0.2,0,0.3-0.3,0.3-0.4
					c0.1-2.5,0.3-5,0.8-7.5c0.4-1.8,1.1-3.2,2.8-4.1c0.5-0.3,1.1-0.4,1.7-0.5c0.6-0.2,0.8-0.4,0.4-1c-1.7-2.5-2.5-5-2.6-8.1
					c-0.1-2,1.1-3.2,2.4-4.5c0.1-0.1,0.2-0.2,0.3-0.2c0.5-0.5,0.5-0.8-0.2-1.2c-2.2-1.2-4.2-2.3-6.1-4.1c-2.2-2.1-3.9-4.8-3.4-8
					c9.2,1.7,18.7,1.3,27.7-2.2c10.2-3.9,19.2-12,23-23.2c0.1-0.4,0.2-0.8,0.4-1.1c0.1-0.4,0.2-0.7,0.3-1.1
					C690.1,622.9,689,611.1,682.4,603.2z M545.1,603.2c0.1,0,0.2,0,0.3,0.1c0.1,0.1,0.3,0.3,0.4,0.4c0.1-0.1,0.2-0.1,0.3,0.1
					c1.8,2.7,3.8,3.6,7,3.5c0,0,0,0,0,0c-1.5,0.7-3.3,0.5-4.8-0.3c0.7,1.1,1.2,2.2,1.8,3.3c0.4,0.8,0.8,1.6,1.2,2.3
					c0.9,1.1,1.8,2.2,3.1,3.1c1.7,1.1,3.6,1.8,5.4,2.7c0,0,0,0.1,0,0.1c-2.6-0.6-5.3-1.8-7.3-3.6c0.8,1.7,1.6,3.4,2.2,5.1
					c0.1,0.3,0.3,0.7,0.4,1.1c0,0,0.1,0,0.1,0.1c1.6,3.2,3.2,6,5.7,8.6c0,0,0,0.1-0.1,0.1c-1.8-1.6-3.6-3.6-4.8-5.8
					c1.3,4.4,1.8,9,0.8,13.5c0,0,0,0,0,0c0.9-6.1-0.5-12-2.8-17.6c-0.7-1.6-1.4-3.3-2.2-5c1,3.9,0.7,8.2-0.9,11.5c0,0.1-0.1,0-0.1,0
					c1-3.4,1.2-6.7,0.5-10.2c-0.7-3.1-2.1-5.4-3.9-7.9c0,0.2,0,0.4,0,0.6c0,2.1-1,3.7-2.4,5.1c-0.1,0.1-0.2,0-0.1-0.1
					c1.2-1.8,1.9-3.6,1.5-5.8c-0.3-1.5-1.3-2.8-1.5-4.3c0,0-0.1-0.1-0.1-0.1C544.6,603.5,544.8,603.2,545.1,603.2z M564.9,595.1
					c5.4,1.2,10.3-1.9,12.7-6.7c0-0.1,0.1,0,0.1,0c-0.9,4.2-4,6.9-7.8,7.9c1,0.1,2.1,0.2,3.1,0.3c8.3-1.1,16-4.1,20-12.1
					c0.1-0.1,0.2,0,0.2,0.1c-1.7,6.8-7.5,10.3-13.9,12.1c1.1,0,2.2,0,3.2,0.1c4.2-0.6,8.5-1.1,12.7-2.1c6.1-1.5,8.8-5.6,12.1-10.6
					c0,0,0.1,0,0,0c-1.2,3.4-2.9,6.4-5.5,8.6c4.1-1.5,8.1-3.4,12-5.7c0.2-0.1,0.4,0.2,0.2,0.3c-4.1,2.7-8.6,4.9-13.2,6.7
					c3.9,0.6,7.9,3.1,11.4,4.2c0,0,0,0,0,0c-2.1,0.2-4.1-0.8-6-1.5c-3.1-1.1-5.9-1.6-9.2-1.5c-1.4,0.5-2.8,0.9-4.3,1.2
					c-1,0.2-2,0.4-3,0.6c-0.7,0.1-1.4,0.2-2.1,0.4c5.2,1.4,9.6,4.9,11.9,9.8c0,0.1-0.1,0.2-0.2,0.1c-4.2-5.9-10.1-8.6-17.2-8.8
					c-2.1-0.1-4.3,0-6.4,0.1c0.8,0.4,1.6,0.9,2.3,1.4c2.4,1.8,4.1,4.3,4.2,7.4c0,0.1-0.1,0.1-0.1,0c-1-3.6-3.9-6-7.3-7.3
					c-2.9-1.1-6.7-1.2-9.4-2.9c-0.2-0.1-0.4-0.1-0.5-0.2c-0.1-0.1-0.2-0.1-0.3-0.2c-0.1,0-0.1,0-0.2-0.1c-0.2-0.1-0.3-0.3-0.3-0.5
					C563.8,595.9,564.2,595,564.9,595.1z M634.7,662.5c-1,1.4-2.1,1.7-3.8,1.5c-0.4-0.1-0.8-0.2-1.1-0.3c0.3,0.4,0.6,0.7,0.9,1.1
					c1.1,1.3,2,2.7,3.2,4c1.2,1.3,2.6,2.5,4.2,3.2c1.6,0.7,3.2,1.1,4.9,1.5c0,0,0,0,0,0c-3.6-0.4-6.7-1-9.5-3.3
					c-0.2-0.2-0.4-0.4-0.6-0.5c0.7,1.3,1.2,2.6,1.9,3.9c0.6,1.1,1.3,2.2,1.9,3.3c1.8,3.1,3.9,6,6.3,8.6c0,0,0,0.1-0.1,0.1
					c-1.4-1-2.6-2.1-3.8-3.4c-0.9-1.1-1.8-2.2-2.6-3.3c1.4,5.1,1.9,10,1.1,15.2c0,0,0,0,0,0c0.1-2.8,0.2-5.5-0.2-8.3
					c-0.4-2.8-1.2-5.6-2.1-8.3c0,0,0,0,0,0c0.5,5-1.7,8.5-5.1,12c0,0,0,0,0,0c3.4-4.2,5.7-8.1,4.1-13.5c-0.6-1.9-1.9-3.4-2.6-5.3
					c-1,2.5-2.7,4.3-4.8,5.9c0,0-0.1,0-0.1-0.1c1.2-1.3,2.5-2.6,3.3-4.1c0.6-1.1,0.8-2.3,0.8-3.5c0-0.3-0.2-0.6-0.4-0.9
					c-0.6-1-1.2-1.9-1.9-2.9c-0.7-1-1.6-2.1-2.3-3.2c0,0-0.1,0-0.1-0.1c-0.3-0.2-0.3-0.4-0.3-0.7c0-0.7,0.6-0.8,1.1-0.4
					c0.2,0.1,0.3,0.3,0.5,0.4c0.8,0.5,1.5,1,2.3,1.5c0.5,0.3,1,0.5,1.5,0.7C632.8,663.6,633.7,663.3,634.7,662.5
					C634.7,662.4,634.8,662.4,634.7,662.5z M669.5,649.3c0-0.3,0.1-0.7,0.2-1c0,0,0,0,0,0c0,0,0-0.1,0.1-0.1
					c0.1-0.8,0.4-1.7,0.3-2.5c-0.2-1.2-0.8-1.5-1.9-1.9c0,0,0-0.1,0-0.1c0.9-0.3,1.7,0,2.3,0.8c0.2,0.2,0.3,0.6,0.3,0.8
					c0.2-0.6,0.3-1.3,0.4-1.9c0.1-0.4,0.1-0.7,0-1c-0.3-0.8-0.7-1.5-1.3-2.2c-0.6-0.7-1.5-1-2.4-1.4c0,0,0-0.1,0,0
					c1,0.2,1.9,0.5,2.7,1.2c0.3,0.3,0.6,0.7,0.8,1c-0.1-0.9-0.3-1.8-0.5-2.6c-0.1-0.3-0.1-0.6-0.2-0.9c-0.2-0.4-0.5-0.6-0.8-1
					c-0.3-0.3-0.7-0.7-1.1-0.9c-0.4-0.3-0.8-0.6-1.2-0.7c-0.4-0.2-0.7-0.2-1-0.4c0,0-0.1-0.1,0-0.1c0.9,0,1.6,0.3,2.4,0.8
					c0.5,0.3,1.1,0.8,1.5,1.2c-0.2-0.5-0.4-1-0.6-1.5c0,0,0-0.1,0-0.1c-0.2-0.5-0.4-0.9-0.7-1.4c-0.8-1.4-1.7-2.7-2.3-4.3
					c0,0,0,0,0,0c0.8,1.6,1.7,3,2.6,4.5c0-1.3,0.3-2.5,0.8-3.7c0,0,0,0,0,0c-0.2,0.9-0.5,1.7-0.6,2.7c0,0.8,0.1,1.4,0.3,2.2
					c0.5,1.3,0.9,2.5,1.3,3.9c0.2,0.9,0.4,1.8,0.6,2.7c0.2-0.5,0.4-1,0.6-1.4c0.6-1.1,1.2-2.1,2-3.1c0,0,0.1,0,0,0.1
					c-0.5,1.2-1.2,2.2-1.7,3.4c-0.2,0.5-0.4,1.1-0.5,1.7c-0.1,0.4-0.1,1-0.3,1.4c0,0.1,0,0.2,0,0.3c-0.1,0.5-0.2,1.1-0.3,1.6
					c0.2-0.2,0.4-0.6,0.6-0.7c0.8-0.7,1.5-1.1,2.4-1.4c0,0,0,0,0,0.1c-0.9,0.8-1.7,1.2-2.4,2.3c-0.3,0.4-0.9,1.4-1.2,1.9
					c-0.2,0.3-0.3,0.9-0.4,1.2c-0.1,0.3-0.1,0.3-0.2,0.4c-0.1,0.2-0.1,0.3-0.3,0.4C669.8,649.7,669.5,649.6,669.5,649.3z"/>
			</g>
			<path class="st0" d="M686.6,630.7c0,0-0.1,0.1-0.1,0.1c0,0,0,0,0,0C686.5,630.7,686.5,630.7,686.6,630.7z"/>
			<path class="st0" d="M702.6,624.7c-0.6-0.6-0.8-1.4-0.8-2.2c0-0.7,0.1-1.4,0.3-2.1c0-0.2,0.3-0.4,0.4-0.7
				c0.1-0.1,0.1-0.3,0.1-0.4c-0.1,0-0.3,0-0.4,0.1c-0.2,0.2-0.5,0.4-0.7,0.5c-0.8,0.6-1.7,1-2.7,1.1c-0.4,0-0.7-0.1-1-0.3
				c-0.1-0.1-0.3-0.1-0.4-0.2c-0.1,0.2-0.1,0.3-0.2,0.5c0,0,0,0.1,0,0.1c0,1.2-0.6,1.8-1.8,2.1c-0.9,0.2-1.7,0.1-2.4-0.6
				c-0.1-0.1-0.3-0.1-0.5-0.2c0,0.2,0,0.3,0,0.5c0.1,0.3,0.2,0.6,0.3,0.9c0.6,1.9-1.4,3.7-3.2,3.1c-0.1,0-0.3-0.1-0.4,0
				c-0.1,0.1-0.1,0.3,0,0.4c0.8,2.3-0.2,4.1-1.7,5.6c-0.1,0.1-0.2,0.2-0.3,0.3c-0.3,0.3-0.6,0.5-0.9,0.8c0,0,0,0-0.1,0.1
				c-0.1,0.1-0.2,0.2-0.2,0.2c0,0.1,0.1,0.5,0.1,0.5l0.2,0.8l0.2-0.1l1.8-0.7c0.5-0.2,1.1-0.4,1.6-0.6c1.6-0.7,3.2-0.5,4.8-0.2
				c0.7,0.2,1.3,0.6,1.8,1.2c0.1,0.1,0.3,0.1,0.4,0.2c0-0.1,0.1-0.3,0-0.4c-0.1-0.4-0.2-0.8-0.3-1.3c-0.1-1.3,0.8-2.5,2.2-2.6
				c0.8,0,1.5-0.1,2.2,0.2c0.1,0,0.3,0,0.4,0c0-0.1,0-0.3-0.1-0.4c-0.3-0.8-0.6-1.6-0.7-2.4c-0.2-1.1,0.4-2.1,1.5-2.5
				C703.4,625.5,703.2,625.3,702.6,624.7z M701.9,625.5c-0.5,0.4-1.2,0.5-1.8,0.6c-1,0.3-1.8,0.6-2.6,1.1c-0.3,0.4-0.6,0.7-0.9,1
				c-0.2,0.2-0.4,0.5-0.7,0.7c-0.2,0.1-0.3,0.3-0.5,0.4c1.6-0.5,3.3-0.4,4.7,0.5c0,0,0,0.1,0,0.1c-2.1-0.8-4-0.5-5.9,0.6
				c-0.5,0.3-1.1,0.7-1.7,1.1c0.3,0,0.6,0,0.9,0c0.9,0.1,1.8,0.4,2.3,1.2c0,0,0,0,0,0c-0.9-0.8-2-0.9-3.1-0.7
				c-0.9,0.2-1.9,0.8-2.9,0.8c-0.1,0-0.1,0-0.2,0c0,0-0.1,0-0.1,0c0,0,0,0-0.1,0c-0.1,0-0.1,0-0.2-0.1c-0.2,0-0.2-0.3,0-0.4
				c1.6-0.6,2.3-2.2,2.1-3.9c0,0,0,0,0,0c0.5,1.2,0.1,2.5-0.7,3.3c0.3-0.1,0.6-0.3,0.9-0.5c2-1.7,3.4-3.7,3.1-6.5c0,0,0.1,0,0.1,0
				c0.7,2-0.2,3.9-1.5,5.5c0.3-0.2,0.6-0.4,0.8-0.5c1-0.9,2-1.7,2.9-2.7c1.3-1.4,1.3-2.9,1.4-4.8c0,0,0,0,0,0c0.3,1.1,0.3,2.1,0,3.1
				c0.8-1.1,1.5-2.3,2.1-3.5c0-0.1,0.1,0,0.1,0.1c-0.6,1.4-1.4,2.7-2.3,3.9C699.4,625.8,700.8,625.8,701.9,625.5
				C701.9,625.5,701.9,625.5,701.9,625.5z"/>
		</g>
		<path class="st0" d="M541.7,615.1c-3.9-3.5-9.5-3.7-12.6-8.5c-0.2-0.4-0.5-0.8-0.7-1.3c-1.5,1.5-3.8,2.1-5.9,1.5
			c-2.1-0.6-3.9-2.3-4.6-4.4c-1.5,1.5-3,3-5,3.8c-2,0.7-4.5,0.3-5.8-1.5c-0.5-0.6-1.1-1.5-1.7-1.2c-0.2,0.1-0.4,0.4-0.5,0.6
			c-1.1,1.8-8.6,7.1-12.8,8.1c-6.2-4.8-11.6-7.7-14.2-9c-1.1-0.5-1.7-0.8-1.7-0.8l-2.9,1c1.1,0.4,2.3,1,3.7,1.6
			c5.9,3,13.4,8,14.2,8.6c0.1,0,0.1,0,0.1,0c0,0,0.1,0,0.1,0.1c0.4,0.3,0.8,0.6,1.2,0.9c0,0,0,0,0.1,0c0.1,0.1,0.2,0.2,0.4,0.3
			c0,0,0,0,0,0c1.6,2.9,2.7,6.1,3.1,9.4c-0.2,0.1-0.4,0.3-0.6,0.5c-0.4,0.5-0.4,1.2-0.4,1.9c-0.3,3.6-1.3,6.6-3.9,9.2
			c3.4,2.7-2.5,6.9-4.8,8.3c1.6-0.3,1.9,3.7,1.8,4.3c-0.6,2.7-2.3,4-4.2,5.7c2.2,0.1,3.2,9.7,3.7,12c2.4-4.3,4.8-8.1,10.2-8.4
			c-1.8-0.8-1.2-4.4-0.5-5.5c1.6-2.7,4.1-4.1,6.3-6.1c-2.2-1.3-3.1-3.2-2.8-5.7c0.3-2.5,1.7-4.6,3.3-6.4c-3.6,1.3-6-6.2-6.7-8.5
			c0-0.2-0.1-0.3-0.1-0.4c-0.3-2.8-0.9-5.5-2-8.1c0.2,0.2,0.5,0.4,0.7,0.6l0,0c1.8,1.6,3.4,3.2,4.3,4.1c0,0,0,0,0,0
			c0.2,0.2,0.3,0.3,0.5,0.5c0,0,0,0,0.1,0.1c0,0,0,0,0,0c3.6,3.9,6.9,8.2,9.6,12.8c-0.1,2.6-0.5,10.8-2.1,10.1c3.5,1.8,7,5.2,6.1,9
			c5.1-0.9,10.6,3.2,11.1,8.3c0-0.2,5.3,1.8,5.8,2.1c1.8,1.1,3.1,3.2,5.2,3.9c0.2-4.2-2.7-7.8-1.2-12.2c0.1-0.4,0.3-0.7,0.5-1.1
			c-1.8-0.2-3.4-1.4-4.2-3c-0.8-1.6-0.6-3.6,0.4-5.1c-1.8-0.2-3.6-0.4-5.1-1.3c-1.5-0.9-2.7-2.7-2.2-4.4c0.2-0.6,0.4-1.4-0.1-1.7
			c-0.2-0.1-0.5,0-0.7,0c-1.5,0.2-6.8-1.2-10.3-2.9c-0.6-1.1-1.2-2.1-1.8-3.1c0.3,0.2,0.7,0.3,1.1,0.4c1,0.2,2.1,0,2.9-0.6
			c1.6-1.2,1.6-3.9-0.1-5c-0.8-0.5-1.9-0.6-2.9-0.4c-0.5,0.1-1.1,0.3-1.5,0.6c-0.2,0.2-0.4,0.5-0.5,0.8c-1.1-0.6-2.2-1.2-3.2-2
			c-0.8-1-1.5-2-2.3-2.9c2.4,0.5,4.8,1.1,7.1,1.9c0.6,0.2,1.1,0.4,1.6,0.6c0.4,0.4,0.9,0.6,1.4,0.7c0.1,0,0.1,0,0.2,0
			c1.1,0.5,2.2,1.1,3.3,1.7c-0.5,1.1-0.4,2.5,0.3,3.4c0.3,0.3,0.6,0.6,1.1,0.7c2,0.6,3.6-1.1,3.7-3c0-0.5,0-1.1-0.3-1.6
			c-0.2-0.3-0.6-0.6-0.9-0.8c-1.2-0.6-2.7-0.5-3.5,0.6c-0.8-0.4-1.5-0.9-2.3-1.3c0.4-0.1,0.7-0.2,1-0.5c1.4-1.1,1.4-3.4,0-4.3
			c-0.7-0.5-1.7-0.5-2.5-0.4c-0.5,0.1-0.9,0.2-1.3,0.5c-0.3,0.3-0.5,0.7-0.6,1.2c-3-0.7-6.1-1-9.3-0.9c-0.7-0.8-1.4-1.6-2.1-2.4
			c3.6-0.7,7.3-0.2,9.6,2.6c2.9-5.4,10.8-7.3,16-3.7c-0.3-0.2,5.6-3.5,6.2-3.7C536.6,616,539.6,616.4,541.7,615.1z M506,624.5
			c2.6,0,5.2,0.4,7.7,0.9c0,0.4,0,0.9,0.1,1.3c-0.3-0.1-0.5-0.2-0.8-0.3C510.7,625.6,508.4,625.1,506,624.5z M513,639.6
			c0.2,0.5,0.5,0.9,0.7,1.4c0.1,0.1,0.2,0.2,0.3,0.3c4.1,6.2,12,9.1,15.5,15.8c0.3,0.6-0.6,1-0.9,0.5c-3.8-7.2-12.8-10-16.4-17.3
			C511.9,639.7,512.7,639.2,513,639.6z M509.1,629.7c0.6,0.4,1.2,0.7,1.8,1c0,0.2,0,0.3-0.1,0.5c0,0.4,0,0.7,0,1.1
			C510.3,631.5,509.7,630.6,509.1,629.7z M497.7,631.3c0,0.2,0,0.3,0,0.5c0,0.1,0,0.2,0,0.3c0,0.2,0,0.3,0.1,0.4
			c0.3,6.7-3.3,13-5.1,19.5c-0.2,0.6-1.1,0.3-1-0.3c1.8-6.8,5.6-13.4,5-20.5C496.6,630.6,497.6,630.7,497.7,631.3z M527.5,614.6
			c-3.3-2.3-9.5-0.3-13.1,0.4c-2.7,0.5-5.5,1.4-8.2,1.6c-2.9,0.2-5.5-0.9-8.3-1.5c-0.6-0.1-0.4-1.1,0.3-1c1.6,0.3,3.2,0.9,4.8,1.2
			c2.2,0.4,4.4,0.1,6.5-0.3c2.4-0.5,4.8-1,7.2-1.5c3.3-0.6,8.4-1.9,11.4,0.2C528.6,614.1,528,614.9,527.5,614.6z"/>
	</g>
	<g>
		<g>
			<g>
				<path class="st0" d="M65.9,642.6c0.1,0.4,0.2,0.9,0.3,1.3c0.1,0.5,0.2,0.9,0.3,1.3c3.6,13.4,13.5,23.3,25.2,28.6
					c10.2,4.6,21.3,5.7,32.1,4.3c0.4,3.7-1.8,6.8-4.5,9c-2.3,2-4.8,3-7.4,4.3c-0.9,0.4-0.9,0.7-0.3,1.4c0.1,0.1,0.3,0.2,0.4,0.3
					c1.5,1.6,2.8,3.1,2.5,5.5c-0.4,3.5-1.5,6.4-3.6,9.2c-0.5,0.7-0.3,1,0.4,1.2c0.7,0.2,1.4,0.3,2,0.7c1.8,1.2,2.6,2.9,2.9,5
					c0.4,3,0.5,5.8,0.5,8.8c0,0.2,0.1,0.5,0.3,0.5c0.2,0.1,0.4-0.1,0.6-0.2c0.2-0.1,0.2-0.3,0.3-0.5c0.8-1.7,1.4-3,2.6-4.5
					c3.2-3.8,8.3-5.2,13-3.1c0.3,0.1,0.5,0,0.7-0.2c-0.2-0.4-0.5-0.8-0.7-1.1c-0.5-0.9-0.8-1.9-1-2.9c-0.3-1.2-0.7-2.4-0.8-3.7
					c-0.2-1.9-0.1-3.8,0.9-5.5c1.2-2,2.7-2.5,4.9-2.5c0.8,0,1.7,0.3,2.5,0.4c0.4,0,0.9-0.1,1.3-0.1c-0.2-0.3-0.5-0.7-0.8-1
					c-3-2.6-4.3-5.7-3.7-9.6c0.5-3,1.4-5.5,1.7-8.4c0.3-2.5,0-4.8,1.3-7c15.5-5.7,28.4-16.7,40.9-27.9
					c13.2-11.9,26.7-23.6,41.9-32.4c3.6-2.1,7.4-4.1,11.2-5.8c1.7-0.5,3.3-1.1,4.9-1.8c-0.6,2.3-1.1,4.7-2.5,6.5
					c-1.6,2-3.8,3.4-6.1,4.4c-1.4,0.6-2.9,0.9-4.4,0.8c-1.5-0.1-3.1-1.1-4.6-0.7c-0.1,1,0.3,2.1,0.2,3.1c0,0.5-0.2,1.1-0.5,1.6
					c-1.7,4-4,8.3-8.7,9.2c-0.5,0.1-0.9,0.4-1.3,0.6c0.3,0.4,0.6,0.9,0.9,1.3c0.5,0.7,1.3,1.2,1.6,1.9c1.1,2.4,1,4.8,0,7.2
					c-0.7,1.6-1.5,3.2-2.4,4.7c-0.4,0.7-0.4,1.3,0.3,1.7c2.1,1,2.8,3,3.4,5c1.1,4.4,3.7,7.7,7.7,9.8c0.3,0.2,0.9,0,1.3-0.1
					c-0.2-0.4-0.3-0.8-0.6-1.1c-0.7-0.9-1.6-1.8-2.1-2.8c-1.3-2.3-1.2-4.9-0.7-7.3c0.8-4,4.6-7.2,9-5.8c0.4,0.1,1,0,1.5,0
					c-0.2-0.5-0.3-1.1-0.7-1.4c-2.3-2.3-3.4-5.5-2.7-8.7c0.2-0.7,0.6-1.6,1.2-2.1c1.4-1.1,2.9-1.7,4.7-1.6c1.3,0.1,2.5,0.4,3.8,0.4
					c0.4,0,0.9-0.1,1-0.5c0.1-0.2,0-0.4-0.1-0.7c-1-1.9-2.8-3-3.7-5c-0.8-1.8-0.9-3.8-0.4-5.8c0.1-0.5,0.4-1,0.7-1.4
					c1-1.4,2.3-2.6,3.1-4.1c1.9-3.3,4-6.4,3.6-10.4c0.4-0.2,0.7-0.3,1.1-0.5c0.6-0.3,2.4-0.7,3.7-1.5c7.6-2.4,15.4-3.9,23.5-4.1
					c7.6-0.2,15.3,0.7,22.8,2.8c4.9,1.4,9.6,3.6,14.2,6.1c2.5,1.4,5.1,2.8,7.6,4.2c1,0.6,1.7-0.9,0.9-1.7c-3.1-3.3-6.7-5.9-10.7-8
					c-9.1-4.9-19.9-6.8-29.5-7.2c-15.1-0.6-29.9,3.2-43.6,9.7c-0.1,0-0.2,0-0.2,0.1c-4.9,1.3-9.8,0.5-14.5-0.8
					c-8-2.3-14.6-6.1-16.2-15.3c-0.1-0.5-0.4-1.1-0.8-1.2c-0.4-0.1-0.9,0.4-1.3,0.7c-4.9,5.2-14.9,3-16.4-4.3c0-0.1,0-0.1,0-0.2
					c-0.2-1.2-0.3-2.4-0.6-3.5c-0.1-0.6-0.5-1.1-0.8-1.6c-0.4,0.5-1.1,0.9-1.2,1.4c-0.5,1.5-1.3,2.7-2.2,3.7
					c-1.3,1.3-2.8,2.2-4.7,2.7c-3.8,1.2-7.1,0.6-9.2-2.7c-0.2-0.2-0.3-0.5-0.4-0.7c0-0.1-0.1-0.2-0.2-0.3c-0.4-0.4-0.9-0.8-1.4-1.2
					c-0.4,0.5-0.9,0.9-1.1,1.4c-0.1,0.3-0.2,0.5-0.3,0.8c-0.5,1.1-1.3,1.8-2.5,2.3c-3.5,1.5-7,2.1-10.8,1.6
					c-1.1-0.2-2.2-0.4-3.3-0.5c-0.5,0-1,0.4-1.5,0.6c0.4,0.4,0.7,0.8,1.1,1.1c0.8,0.5,2,0.7,2.6,1.4c1.8,2,3.7,4.1,5,6.5
					c1.4,2.7,2.4,5.9,1.4,8.8c-0.9,2.9-0.8,4,3,3.3c4.4-0.8,8.1,1.6,9.6,5.5c1.1,2.9,1.4,6.1,2,9.2c0.1,0.5,0.3,0.9,0.5,1.4
					c0.5-0.2,1.1-0.4,1.4-0.7c1.9-2.3,4.4-3.6,6.9-4.9c4.9-2.4,10-0.1,12.1,4.3c0.7,1.5,1,3.1,1.5,4.6c0.2,0.5,0.6,0.9,0.9,1.3
					c0.3-0.4,0.8-0.8,0.9-1.3c0.6-2.7,1.7-5.3,3.7-7.2c4.5-4.3,9.5-7.8,16-8.5c3-0.3,5.9-0.8,8.9-1.3c-9.4,5.6-18.2,12.3-26.7,19.4
					c-11.8,9.9-22.8,21.2-35.5,30c-4,2.7-8.3,5.2-12.9,7.2c-0.6,0.1-1.2,0.2-1.8,0.2c-2.7-0.1-5.5-0.6-8-1.6c-2.5-1-4.3-2.4-6.1-4.3
					c1.5-1.5,1.9-3.8,0.6-5.5c-1.3-1.8-3.6-2.3-5.4-1.2c-1.8,1.1-2.5,3.3-1.6,5.3c0.9,2,3.1,2.7,5.1,2.2c0.2,0,0.4-0.1,0.5-0.1
					c0.2,0.1,0.2,0.2,0.3,0.3c1.8,1.9,3.6,3.3,6.1,4.3c2.1,0.8,4.4,1.1,6.7,1.5c-2.5,0.8-5.3,0.4-7.8,0.4c-3.2,0-6.1-0.5-9.2-1.1
					c-0.6-0.1-1.2-0.3-1.8-0.5c-0.1,0-0.3-0.2-0.3-0.3c0-1.6-0.4-3.1-1.7-4.1c-2.1-1.7-5-1.7-6.8,0.4c-1.8,2.1-1.7,5,0.4,6.8
					c2.1,1.9,4.9,1.5,6.8-0.4c0.5-0.4,0.7-1,0.9-1.5c0.2,0,0.4,0,0.6,0c2.4,0.5,4.9,1.3,7.4,1.4c1.8,0.1,3.5,0.2,5.4,0.2
					c0.9,0,1.8,0,2.8,0c0.4,0,1-0.2,1.5-0.2c-14.6,5.4-31.1,6.6-45.1,0.4c-3.6-2.3-7.7-5.2-6.9-9.8c0.3-2,1.2-1.7,2.7-2.1
					c0.3-0.1,0.7-0.2,1-0.2c-0.8-1.7-1.5-3.6-1.1-5.4c0.5-1.8,1.7-2.4,3.3-3.1c-1-0.6-1.2-1.3-0.9-2.5c0.3-1.2,1.1-2.4,1.8-3.5
					c-1.5-0.4-2.4-0.9-2.3-2.8c0.1-1.8,1-3.9,1.6-5.7c0.1-0.3,0.2-0.6,0.1-0.9c-0.5,0.8-1.1,1.7-1.7,2.3c-0.9,0.8-1.8,1-2.9,1
					c-1,0-1.8-0.4-2.8-0.5c-0.2,0-0.4,0-0.6,0.1c-0.1,0.2-0.1,0.3-0.1,0.5c-0.3,2-1.2,3.6-2.5,5.1c-1.3,1.5-2.8,2.6-4.5,3.6
					c0.9,1.3,1.3,2.2,1.2,3.9c-0.1,1.7-0.6,3.6-1.5,5.2c-0.1,0.2-0.3,0.4-0.2,0.7c0.1,0.3,0.4,0.1,0.7,0.1c1.9-0.1,2.6,0.8,3.7,2.4
					c1.3,1.8,2,3.8,3,5.8c0.2,0.3,0.3,0.6,0.5,0.8c-2.6-1.9-5-4.1-7.3-6.6c-8-9-11.3-22.1-8.8-34.2c3-14.6,14.4-22.1,27.7-22.1
					c7,0,15,1.3,21.3,5c6.3,3.8,9.8,11.8,7.9,19.5c-1.7,6.8-8,11.9-15.2,10c-2.9-0.8-4-4.6-1.4-6.6c0.5-0.4,1.2-0.5,1.7,0
					c0.3,0.4,0.4,0.9,0.3,1.3c-0.1,0.3-0.4,0.6-0.7,0.6c0,0.5,0.7,0.8,1.2,0.6c0.5-0.2,0.8-0.6,1-1.1c0.6-1.4,0.6-3-0.2-4.3
					c-0.4-0.7-1.1-1.2-1.7-1.6c-1.7-1-4.1-0.4-5.2,1.1c-0.1,0.1-0.1,0.1-0.2,0.2c-0.1,0.1-0.2,0.1-0.3,0.1c-0.5,0-1.1-0.3-1.4-0.7
					c-1.2-1.7,1.1-3.6,2.7-3.6c0.4,0,0.7,0.1,1,0.3c0.3,0.2,0.3,0.7,0.1,0.9c0.9-0.1,1.7-0.9,1.8-1.9c0.1-0.9-0.5-1.8-1.2-2.4
					c-0.7-0.6-1.7-0.8-2.6-0.9c-3.3-0.3-6.7,1.7-7.8,4.8c-0.8,2.3-0.9,5.1-0.2,7.4c0.7,2.2,1.6,4.5,3,6.3c4.9,6.2,13.9,6.2,20,2.6
					c6.6-3.8,10.5-11.6,9.6-19.8c-0.2-2.5-0.9-4.8-1.8-6.9c0.6,0.3,1.1,0.5,1.7,0.7c4.5,1.4,10.8-0.5,11.2-6
					c0.1-2.1-0.7-3.8-2.1-4.9c-2.2-2.1-6.4-2.1-8.8,0.1c-1.3,1.2-1.8,3.1-1.3,4.8c0.5,1.7,2.8,2.2,4.4,2.1c0.3,0,0.6-0.1,0.9-0.2
					c0.7-0.3,1.1-1,1.2-1.7c0.1-0.7-0.2-1.4-0.6-2c0,0.3-0.1,0.6-0.4,0.7c-0.2,0.1-0.6,0.1-0.8,0c-0.4-0.3-0.4-0.9-0.2-1.3
					c0.7-1.2,2.1-1.1,3.2-0.6c1.5,1.1,1.9,2.4,1.2,3.9c-0.7,1.7-2.7,2.5-4.4,2.5c-3.3,0.1-6.1-2.1-8.5-4c-2.9-2.3-6-4.7-9.6-6
					c-3.8-1.3-7.8-2.3-11.7-2.9c-10.7-1.6-22.6,0.6-30.2,8.8C65.6,616.8,63.4,630.5,65.9,642.6z M234,617.8c0,0-0.1,0.1-0.1,0.1
					c-0.4,1.7-1.6,3.2-2,4.9c-0.6,2.6,0.1,4.6,1.3,6.8c0.1,0.1-0.1,0.2-0.1,0.1c-1.6-1.8-2.7-3.7-2.5-6.2c0-0.2,0-0.5,0.1-0.7
					c-2.2,2.7-4.1,5.3-5.1,8.9c-1.1,4-1,7.9-0.1,11.9c0,0.1-0.1,0.1-0.1,0c-1.6-4-1.6-9-0.3-13.5c-1,1.9-2,3.8-2.9,5.6
					c-3.1,6.4-5.1,13.2-4.5,20.3c0,0,0,0,0,0c-0.8-5.3,0.1-10.7,1.9-15.7c-1.6,2.5-3.7,4.7-6,6.5c-0.1,0-0.1,0-0.1-0.1
					c3.1-2.8,5.2-6,7.3-9.6c0-0.1,0.1-0.1,0.1-0.1c0.2-0.4,0.4-0.8,0.5-1.2c0.9-2,1.9-3.9,3-5.8c-2.5,2-5.7,3.2-8.8,3.7
					c-0.1,0-0.1-0.1,0-0.1c2.1-1,4.4-1.6,6.4-2.8c1.6-0.9,2.7-2.1,3.8-3.4c0.5-0.9,1-1.8,1.5-2.6c0.7-1.3,1.5-2.5,2.3-3.7
					c-1.8,0.8-3.9,1-5.6,0.1c0,0,0,0,0,0c3.7,0.4,6.1-0.6,8.3-3.6c0.1-0.1,0.3-0.1,0.4-0.1c0.2-0.2,0.3-0.3,0.5-0.5
					c0.1-0.1,0.3-0.1,0.4-0.1C234,617.1,234.2,617.6,234,617.8z M212,607.8c0,0.2-0.1,0.5-0.4,0.6c-0.1,0-0.2,0-0.3,0.1
					c-0.1,0.1-0.2,0.2-0.4,0.2c-0.2,0.1-0.4,0.1-0.7,0.2c-3.2,1.7-7.7,1.6-11.2,2.7c-4,1.3-7.6,3.8-8.9,8c0,0.1-0.2,0.1-0.1,0
					c0.3-3.6,2.5-6.3,5.4-8.3c0.9-0.6,1.8-1.1,2.8-1.5c-2.5-0.2-5.1-0.5-7.5-0.5c-8.4-0.2-15.4,2.5-20.7,9.1c-0.1,0.1-0.2,0-0.2-0.1
					c3-5.6,8.3-9.4,14.5-10.6c-0.8-0.2-1.6-0.4-2.4-0.6c-1.1-0.3-2.3-0.6-3.4-0.9c-1.7-0.5-3.4-1-5-1.6c-3.8-0.3-7.1,0.2-10.8,1.2
					c-2.3,0.6-4.7,1.7-7.1,1.3c0,0,0,0,0-0.1c4.2-1.1,9-3.7,13.6-4.2c-5.3-2.3-10.3-5.2-14.9-8.6c-0.2-0.2,0-0.6,0.2-0.4
					c4.3,2.9,8.8,5.4,13.6,7.4c-2.9-2.7-4.7-6.4-5.8-10.4c0,0,0-0.1,0.1,0c3.5,6,6.4,10.9,13.4,13.1c4.7,1.5,9.7,2.4,14.6,3.3
					c1.2,0,2.5,0.1,3.8,0.1c-7.3-2.5-13.9-7-15.4-15c0-0.1,0.2-0.2,0.2-0.1c4.2,9.7,12.9,13.6,22.5,15.5c1.2,0,2.5,0,3.7-0.1
					c-4.3-1.4-7.7-4.8-8.5-9.7c0-0.1,0.1-0.1,0.1,0c2.5,5.8,8,9.6,14.4,8.7C212,606.3,212.4,607.4,212,607.8z M125.4,680.2
					c1.1,1.1,2.1,1.4,3.7,1.1c0.6-0.1,1.3-0.4,1.8-0.7c1-0.5,1.9-1,2.8-1.6c0.2-0.1,0.4-0.4,0.6-0.5c0.6-0.3,1.3-0.2,1.3,0.6
					c0,0.3-0.1,0.6-0.4,0.8c0,0-0.1,0-0.1,0.1c-0.9,1.2-2,2.5-2.9,3.6c-0.9,1.1-1.7,2.1-2.5,3.2c-0.2,0.3-0.5,0.7-0.5,1.1
					c-0.1,1.5,0,2.7,0.7,4.1c0.8,1.8,2.3,3.4,3.6,5c0,0,0,0.1-0.1,0.1c-2.4-2-4.2-4.2-5.2-7.2c-1,2.1-2.6,3.8-3.4,6
					c-2.2,6.2,0.2,10.9,3.8,16c0,0,0,0.1,0,0c-3.7-4.3-6.1-8.5-5.1-14.4c0,0,0,0,0,0c-1.2,3.1-2.4,6.3-3,9.6
					c-0.6,3.3-0.7,6.4-0.8,9.7c0,0-0.1,0-0.1,0c-0.7-6.2,0.3-11.8,2.3-17.6c-1,1.3-2.1,2.6-3.2,3.7c-1.4,1.4-2.9,2.6-4.6,3.7
					c-0.1,0-0.1,0-0.1-0.1c3-2.9,5.6-6.1,8-9.6c0.8-1.3,1.7-2.4,2.4-3.7c0.9-1.5,1.5-3,2.4-4.5c-0.2,0.2-0.5,0.4-0.7,0.6
					c-3.4,2.5-7.1,3.1-11.3,3.2c0,0,0,0,0,0c2-0.4,3.9-0.7,5.8-1.5c1.9-0.8,3.6-2.1,5.1-3.5c1.5-1.4,2.6-2.9,4-4.4
					c0.4-0.4,0.8-0.8,1.2-1.3c-0.4,0.1-0.9,0.3-1.3,0.3C127.7,682.4,126.4,682,125.4,680.2C125.3,680.2,125.3,680.2,125.4,680.2z
					 M85.2,662.8c-0.2-0.2-0.2-0.3-0.3-0.5c-0.2-0.2-0.1-0.2-0.2-0.5c-0.1-0.3-0.2-1-0.4-1.4c-0.3-0.7-0.9-1.8-1.2-2.3
					c-0.8-1.3-1.7-1.8-2.7-2.8c0,0,0-0.1,0-0.1c1.1,0.5,1.9,1,2.7,1.8c0.2,0.2,0.5,0.6,0.6,0.9c-0.1-0.6-0.2-1.3-0.3-1.9
					c0-0.1,0-0.2,0-0.3c-0.1-0.5-0.1-1.2-0.2-1.7c-0.1-0.7-0.2-1.4-0.5-2.1c-0.5-1.5-1.2-2.7-1.8-4.1c0,0,0-0.1,0.1-0.1
					c0.9,1.2,1.6,2.4,2.2,3.7c0.2,0.5,0.4,1.1,0.6,1.7c0.2-1,0.5-2.1,0.8-3.1c0.5-1.5,1.1-3,1.7-4.4c0.4-0.8,0.5-1.6,0.5-2.5
					c0-1.1-0.3-2.1-0.5-3.2c0,0,0-0.1,0.1,0c0.5,1.5,0.8,2.8,0.7,4.4c1.1-1.7,2.3-3.3,3.3-5.1c0,0,0,0,0,0c-0.8,1.7-1.9,3.2-2.9,4.8
					c-0.3,0.5-0.6,1-0.9,1.6c0,0,0,0.1,0,0.1c-0.3,0.6-0.5,1.1-0.8,1.7c0.5-0.5,1.3-1,1.9-1.3c1-0.5,1.7-0.9,2.8-0.8
					c0,0,0,0.1,0,0.1c-0.4,0.1-0.8,0.2-1.2,0.3c-0.5,0.2-1,0.5-1.5,0.8c-0.5,0.3-1,0.6-1.3,1c-0.3,0.4-0.7,0.7-1,1.1
					c-0.2,0.3-0.2,0.7-0.3,1c-0.3,1-0.5,2-0.8,3c0.3-0.4,0.7-0.8,1-1.1c1-0.8,2-1.1,3.2-1.2c0,0,0,0,0,0.1c-1,0.3-2.1,0.7-2.8,1.4
					c-0.8,0.7-1.2,1.5-1.7,2.4c-0.2,0.3-0.1,0.7-0.1,1.2c0.1,0.7,0.2,1.6,0.4,2.3c0.1-0.3,0.2-0.7,0.5-0.9c0.7-0.9,1.6-1.1,2.7-0.7
					c0,0,0,0.1,0,0.1c-1.2,0.4-1.9,0.7-2.3,2.1c-0.2,0.9,0.1,2,0.2,2.9c0,0,0,0.1,0.1,0.2c0,0,0,0,0,0.1c0.1,0.4,0.2,0.8,0.2,1.2
					C85.7,662.9,85.4,663,85.2,662.8z"/>
			</g>
			<path class="st0" d="M67.2,639.9C67.2,639.9,67.2,639.9,67.2,639.9c0-0.1-0.1-0.1-0.1-0.1C67.1,639.8,67.1,639.8,67.2,639.9z"/>
			<path class="st0" d="M48.9,633.1c1.3,0.5,1.8,1.8,1.5,3c-0.2,0.9-0.7,1.8-1,2.7c-0.1,0.1-0.1,0.3-0.1,0.4c0.2,0,0.4,0.1,0.5,0.1
				c0.9-0.3,1.7-0.2,2.6-0.1c1.7,0.2,2.6,1.7,2.4,3.2c-0.1,0.5-0.3,1-0.4,1.4c0,0.2,0,0.3,0,0.5c0.2-0.1,0.4-0.1,0.5-0.2
				c0.6-0.6,1.3-1.1,2.2-1.2c1.9-0.3,3.8-0.4,5.6,0.5c0.6,0.3,1.2,0.6,1.8,0.8l2.1,0.9l0.3,0.1l0.3-0.9c0,0,0.1-0.5,0.1-0.5
				c0,0-0.1-0.2-0.2-0.3c-0.1-0.1-0.1-0.1-0.1-0.1c-0.3-0.3-0.7-0.6-1-0.9c-0.1-0.1-0.2-0.2-0.3-0.3c-1.7-1.9-2.7-4-1.6-6.7
				c0.1-0.1,0.1-0.4,0-0.4c-0.1-0.1-0.3-0.1-0.4,0c-2.2,0.5-4.3-1.7-3.5-3.9c0.1-0.4,0.3-0.7,0.5-1.1c0.1-0.2,0-0.4,0.1-0.5
				c-0.2,0-0.4,0-0.6,0.1c-0.9,0.7-1.9,0.8-2.9,0.5c-1.3-0.4-2-1.1-1.9-2.5c0,0,0-0.1,0-0.1c0-0.2-0.1-0.4-0.2-0.5
				c-0.2,0.1-0.4,0.1-0.5,0.2c-0.4,0.3-0.8,0.4-1.2,0.3c-1.1-0.2-2.2-0.6-3.1-1.4c-0.3-0.2-0.5-0.5-0.8-0.7
				c-0.1-0.1-0.3-0.1-0.5-0.1c0,0.1,0,0.3,0.1,0.5c0.1,0.3,0.4,0.5,0.4,0.8c0.1,0.8,0.3,1.7,0.2,2.5c-0.1,0.9-0.4,1.9-1.1,2.5
				C48,632.4,47.8,632.7,48.9,633.1z M49.5,632.7c1.3,0.4,2.9,0.5,4.2,1.2c-1-1.5-1.8-3.1-2.4-4.7c0-0.1,0.1-0.2,0.1-0.1
				c0.6,1.5,1.4,2.9,2.3,4.2c-0.3-1.2-0.1-2.4,0.2-3.7c0,0,0,0,0,0c-0.1,2.1-0.2,3.9,1.3,5.6c1,1.2,2.1,2.2,3.2,3.3
				c0.3,0.2,0.6,0.4,0.9,0.7c-1.5-1.9-2.4-4.1-1.4-6.5c0,0,0.1,0,0.1,0c-0.5,3.2,1,5.7,3.2,7.8c0.3,0.2,0.6,0.4,1,0.6
				c-0.9-1.1-1.2-2.5-0.6-3.9c0,0,0,0,0,0c-0.3,1.9,0.4,3.8,2.2,4.7c0.2,0.1,0.2,0.5,0,0.5c0,0.1-0.1,0.1-0.2,0.1c0,0-0.1,0-0.1,0
				c0,0-0.1,0-0.1,0c-0.1,0-0.1,0-0.2-0.1c-1.1-0.1-2.3-0.9-3.3-1.2c-1.3-0.3-2.6-0.3-3.7,0.6c0,0-0.1,0,0,0
				c0.7-0.9,1.7-1.2,2.8-1.2c0.3,0,0.7,0,1,0.1c-0.6-0.5-1.2-1-1.9-1.4c-2.1-1.5-4.4-1.9-6.9-1.1c0,0-0.1-0.1,0-0.1
				c1.7-0.9,3.7-1,5.5-0.3c-0.2-0.2-0.4-0.4-0.5-0.5c-0.3-0.3-0.5-0.5-0.7-0.8c-0.4-0.4-0.7-0.8-1-1.3c-0.9-0.7-1.8-1.1-3-1.5
				C50.9,633.3,50.1,633.2,49.5,632.7C49.5,632.7,49.5,632.7,49.5,632.7z"/>
		</g>
		<path class="st0" d="M252.9,631.1c0.4,0.3,3.6,4.3,3.3,4.3c4.7-1,9.8,2.4,10.3,7.1c2.4-1.4,5.2-0.7,7.5,0.8
			c-0.7,0.3-1.4,0.7-2.2,1.1c-2.2-0.9-4.5-1.6-6.8-2c0.1-0.3,0.1-0.7-0.1-1c-0.2-0.3-0.5-0.6-0.8-0.7c-0.6-0.3-1.2-0.6-1.9-0.5
			c-1.3,0.2-2,1.9-1.3,3.1c0.1,0.2,0.3,0.4,0.6,0.6c-0.7,0.1-1.3,0.1-2,0.2c-0.3-1-1.3-1.5-2.3-1.4c-0.3,0-0.6,0.1-0.9,0.3
			c-0.3,0.2-0.5,0.6-0.6,1c-0.5,1.3,0.2,3,1.8,3.1c0.4,0,0.7-0.1,1-0.2c0.8-0.4,1.2-1.5,1.2-2.4c0.9-0.1,1.9-0.2,2.8-0.3
			c0,0,0.1,0,0.1,0c0.4,0.1,0.8,0.1,1.2-0.1c0.4,0,0.9,0,1.3,0c1.8,0.1,3.7,0.4,5.5,0.7c-0.8,0.4-1.6,0.9-2.5,1.4
			c-0.9,0.3-1.9,0.5-2.8,0.5c0-0.3,0-0.5-0.1-0.7c-0.2-0.4-0.5-0.6-0.9-0.9c-0.6-0.4-1.4-0.7-2.1-0.5c-1.5,0.3-2.2,2.2-1.4,3.5
			c0.4,0.6,1.1,1.1,1.8,1.2c0.3,0.1,0.6,0.1,0.9,0c-0.7,0.5-1.4,1.1-2.1,1.7c-2.9,0.2-7.1-0.3-8.1-0.9c-0.2-0.1-0.3-0.2-0.5-0.2
			c-0.5,0-0.5,0.7-0.6,1.2c-0.1,1.3-1.4,2.3-2.8,2.5c-1.3,0.2-2.7-0.2-4-0.6c0.3,1.3-0.2,2.8-1.1,3.7c-1,0.9-2.5,1.3-3.8,0.9
			c0,0.3,0,0.6,0,0.9c-0.1,3.5-3.2,5.2-4.3,8.3c1.7,0.1,3.2-1,4.8-1.3c0.4-0.1,4.7,0,4.7,0.1c1.8-3.5,6.8-4.8,10.2-2.7
			c0.4-2.9,3.8-4.4,6.8-4.7c-1.3,0.1,0.7-5.9,1.4-7.7c3.2-2.5,6.7-4.6,10.4-6.4c0,0,0,0,0,0c0,0,0,0,0.1,0c0.2-0.1,0.3-0.2,0.5-0.2
			c0,0,0,0,0,0c0.8-0.4,2.5-1,4.2-1.7l0,0c0.2-0.1,0.4-0.2,0.7-0.2c-1.5,1.5-2.7,3.3-3.7,5.2c0,0.1-0.1,0.1-0.2,0.2
			c-1.1,1.5-5,6.1-7.1,4.1c0.7,1.8,1.1,3.6,0.6,5.5c-0.5,1.8-1.7,2.9-3.6,3.2c1,2,2.4,3.7,2.7,6.1c0.1,1-0.5,3.7-1.9,3.8
			c3.7,1.8,4.3,5.1,4.8,8.8c1-1.5,4.4-8,6-7.4c-0.8-1.7-1.7-3.1-1.4-5.2c0.1-0.4,1.4-3.2,2.5-2.5c-1.2-1.7-4.3-6.3-1.1-7.3
			c-1.1-2.6-1-5-0.1-7.6c0.1-0.5,0.4-0.9,0.2-1.4c-0.1-0.2-0.1-0.4-0.3-0.5c1.2-2.2,2.8-4.2,4.8-5.8c0,0,0,0,0,0
			c0.1,0,0.2-0.1,0.3-0.1c0,0,0,0,0.1,0c0.4-0.1,0.8-0.2,1.1-0.3c0,0,0.1,0,0.1,0c0,0,0,0,0.1,0c0.7-0.2,7.4-1.6,12.4-2.1
			c1.1-0.1,2.2-0.1,3.1-0.1l-1.8-1.6c0,0-0.5,0-1.4,0.1c-2.2,0.2-6.9,0.7-12.5,2.4c-2.6-1.9-6.5-7.7-6.7-9.3c0-0.2-0.1-0.4-0.2-0.6
			c-0.4-0.4-1.1,0-1.6,0.4c-1.4,0.9-3.3,0.4-4.5-0.6c-1.2-1.1-1.8-2.6-2.4-4c-1.1,1.3-2.8,2-4.5,1.8c-1.6-0.2-3.1-1.3-3.7-2.7
			c-0.3,0.3-0.6,0.5-0.9,0.7c-3.5,2.6-7.5,1.1-11.3,2.5C249.2,629.3,251.4,629.8,252.9,631.1z M265.2,643.8c-0.2,0-0.4,0-0.6,0
			c0.2-0.3,0.3-0.6,0.4-0.9c1.9,0.3,3.9,0.8,5.7,1.5C268.8,644.2,267,643.9,265.2,643.8z M261.9,653.8c-4.7,4.2-11.7,3.6-16.5,7.6
			c-0.4,0.3-0.9-0.3-0.5-0.6c4.4-3.7,10.8-3.5,15.4-6.8c0.1,0,0.2,0,0.3-0.1c0.3-0.3,0.6-0.5,0.9-0.8
			C261.8,653,262.2,653.5,261.9,653.8z M265,648.6c0.1-0.2,0.2-0.5,0.3-0.8c0-0.1,0.1-0.3,0.1-0.4c0.5,0,1-0.1,1.6-0.2
			C266.3,647.7,265.6,648.2,265,648.6z M275.3,651.9c-2.4,4.8-1.7,10.6-2.3,15.9c-0.1,0.5-0.8,0.4-0.8-0.1
			c0.6-5.1-0.2-10.6,1.9-15.2c0.1-0.1,0.2-0.2,0.2-0.3c0-0.1,0-0.2,0.1-0.2c0.1-0.1,0.1-0.2,0.2-0.3
			C274.8,651.2,275.5,651.4,275.3,651.9z M258.1,630.6c2.7-0.6,6,1.7,8.1,3.1c1.6,1,3.1,2,4.6,3.1c1.4,0.9,2.8,1.8,4.5,2.1
			c1.2,0.2,2.5,0.3,3.8,0.5c0.5,0.1,0.4,0.8-0.1,0.7c-2.2-0.4-4.3-0.3-6.3-1.3c-1.9-0.9-3.6-2.3-5.4-3.4c-2.4-1.5-6.2-4.7-9.1-4
			C257.8,631.5,257.6,630.7,258.1,630.6z"/>
	</g>
	<g>
		<g>
			<g>
				<path class="st0" d="M921.5,359.2c-0.1-0.5-0.2-0.9-0.3-1.3c-0.1-0.5-0.2-0.9-0.4-1.4c-3.8-14.1-14.2-24.5-26.5-30
					c-10.8-4.8-22.4-6-33.8-4.6c-0.4-3.9,1.9-7.1,4.7-9.5c2.5-2.1,5.1-3.2,7.8-4.5c0.9-0.5,0.9-0.8,0.3-1.5
					c-0.1-0.1-0.3-0.2-0.4-0.3c-1.5-1.7-2.9-3.2-2.7-5.7c0.4-3.7,1.5-6.7,3.8-9.7c0.5-0.7,0.3-1-0.5-1.3c-0.7-0.2-1.5-0.4-2.1-0.8
					c-1.9-1.3-2.8-3-3.1-5.2c-0.5-3.1-0.5-6.1-0.5-9.2c0-0.2-0.1-0.5-0.3-0.5c-0.2-0.1-0.4,0.1-0.6,0.2c-0.2,0.1-0.2,0.3-0.3,0.5
					c-0.8,1.7-1.5,3.2-2.8,4.7c-3.4,4-8.8,5.5-13.6,3.3c-0.3-0.1-0.5,0-0.7,0.2c0.2,0.5,0.5,0.8,0.8,1.2c0.6,0.9,0.8,2,1.1,3
					c0.3,1.3,0.7,2.5,0.8,3.9c0.2,2,0.2,4-0.9,5.7c-1.2,2.1-2.8,2.7-5.2,2.6c-0.8,0-1.8-0.3-2.6-0.4c-0.4,0-0.9,0.1-1.3,0.1
					c0.3,0.3,0.5,0.8,0.8,1c3.2,2.7,4.5,6,3.9,10.1c-0.5,3.1-1.4,5.8-1.8,8.9c-0.3,2.6,0,5.1-1.4,7.4c-16.3,6-29.8,17.5-43,29.3
					c-13.9,12.5-28.1,24.8-44.1,34.1c-3.8,2.2-7.8,4.3-11.8,6.2c-1.7,0.6-3.5,1.2-5.2,1.9c0.7-2.4,1.1-5,2.7-6.9
					c1.7-2.1,4-3.6,6.4-4.6c1.5-0.7,3-0.9,4.6-0.8c1.6,0.1,3.3,1.1,4.8,0.8c0.1-1.1-0.4-2.2-0.3-3.3c0-0.6,0.3-1.1,0.5-1.6
					c1.7-4.2,4.3-8.8,9.1-9.7c0.5-0.1,0.9-0.4,1.4-0.7c-0.3-0.5-0.6-0.9-1-1.4c-0.5-0.7-1.3-1.3-1.7-2c-1.2-2.5-1.1-5,0-7.5
					c0.7-1.7,1.6-3.4,2.5-5c0.4-0.7,0.5-1.4-0.3-1.8c-2.2-1.1-3-3.1-3.5-5.3c-1.2-4.7-3.9-8.1-8.1-10.3c-0.3-0.2-0.9,0-1.4,0.1
					c0.2,0.4,0.3,0.8,0.6,1.2c0.7,1,1.6,1.9,2.2,2.9c1.3,2.4,1.3,5.2,0.8,7.7c-0.9,4.2-4.9,7.5-9.5,6.1c-0.5-0.2-1,0-1.6,0
					c0.2,0.5,0.3,1.1,0.7,1.5c2.4,2.4,3.6,5.7,2.9,9.2c-0.2,0.8-0.6,1.7-1.3,2.2c-1.5,1.1-3.1,1.8-5,1.7c-1.3-0.1-2.7-0.4-4-0.4
					c-0.4,0-1,0.1-1.1,0.5c-0.1,0.2,0,0.5,0.1,0.7c1,2,3,3.2,3.9,5.3c0.8,1.9,0.9,4,0.4,6.1c-0.1,0.5-0.4,1.1-0.7,1.5
					c-1.1,1.4-2.4,2.7-3.3,4.3c-2,3.4-4.2,6.7-3.8,10.9c-0.4,0.2-0.8,0.3-1.2,0.5c-0.6,0.3-2.5,0.8-3.8,1.5
					c-8,2.5-16.2,4.1-24.7,4.3c-8,0.2-16.1-0.7-24-3c-5.2-1.5-10.1-3.8-14.9-6.4c-2.7-1.4-5.3-3-8-4.5c-1-0.6-1.7,1-1,1.8
					c3.3,3.5,7.1,6.2,11.2,8.4c9.6,5.1,20.9,7.2,31,7.6c15.9,0.6,31.4-3.4,45.8-10.2c0.1,0,0.2,0,0.3-0.1c5.1-1.4,10.3-0.5,15.3,0.9
					c8.4,2.4,15.4,6.5,17,16.1c0.1,0.5,0.5,1.2,0.8,1.3c0.4,0.1,1-0.4,1.3-0.7c5.2-5.5,15.7-3.1,17.3,4.5c0,0.1,0,0.1,0,0.2
					c0.2,1.2,0.3,2.5,0.6,3.7c0.1,0.6,0.5,1.1,0.8,1.7c0.5-0.5,1.1-0.9,1.3-1.5c0.5-1.6,1.3-2.9,2.3-3.9c1.3-1.4,3-2.3,4.9-2.9
					c4-1.2,7.4-0.6,9.7,2.9c0.2,0.2,0.3,0.5,0.5,0.8c0,0.1,0.1,0.2,0.2,0.3c0.5,0.4,1,0.8,1.4,1.2c0.4-0.5,1-0.9,1.1-1.5
					c0.1-0.3,0.2-0.6,0.3-0.8c0.5-1.1,1.4-1.9,2.6-2.4c3.6-1.6,7.4-2.2,11.4-1.7c1.2,0.2,2.3,0.5,3.5,0.5c0.5,0,1-0.4,1.5-0.6
					c-0.4-0.4-0.7-0.9-1.1-1.1c-0.9-0.5-2.1-0.7-2.7-1.5c-1.9-2.2-3.9-4.3-5.2-6.8c-1.5-2.8-2.5-6.2-1.5-9.3c1-3.1,0.9-4.3-3.2-3.5
					c-4.6,0.9-8.5-1.7-10.1-5.8c-1.1-3.1-1.4-6.5-2.1-9.7c-0.1-0.5-0.4-1-0.5-1.4c-0.5,0.2-1.2,0.4-1.5,0.8
					c-1.9,2.4-4.6,3.8-7.3,5.1c-5.1,2.5-10.6,0.1-12.7-4.6c-0.7-1.5-1-3.3-1.6-4.9c-0.2-0.5-0.6-0.9-1-1.4c-0.3,0.4-0.9,0.8-1,1.3
					c-0.6,2.9-1.7,5.6-3.9,7.6c-4.8,4.5-10,8.2-16.9,8.9c-3.1,0.4-6.2,0.9-9.3,1.4c9.8-5.9,19.1-12.9,28-20.4
					c12.5-10.5,24-22.3,37.3-31.5c4.2-2.9,8.7-5.5,13.6-7.6c0.6-0.1,1.3-0.2,1.9-0.2c2.9,0.1,5.8,0.7,8.4,1.7s4.5,2.6,6.4,4.6
					c-1.5,1.6-2,4-0.7,5.8c1.3,1.9,3.8,2.4,5.7,1.2c1.9-1.1,2.7-3.5,1.7-5.6c-1-2.1-3.2-2.8-5.4-2.3c-0.2,0-0.4,0.1-0.6,0.1
					c-0.2-0.1-0.2-0.2-0.3-0.3c-1.9-2-3.8-3.5-6.4-4.5c-2.3-0.8-4.6-1.1-7-1.6c2.7-0.8,5.6-0.4,8.2-0.4c3.4,0,6.4,0.5,9.7,1.1
					c0.6,0.1,1.2,0.3,1.9,0.6c0.1,0,0.3,0.2,0.3,0.3c0,1.6,0.4,3.2,1.8,4.3c2.3,1.8,5.3,1.7,7.2-0.5c1.9-2.2,1.8-5.2-0.4-7.2
					s-5.1-1.6-7.2,0.4c-0.5,0.5-0.7,1.1-1,1.6c-0.2,0-0.4,0-0.7,0c-2.6-0.6-5.2-1.3-7.8-1.5c-1.9-0.1-3.7-0.2-5.7-0.3
					c-1,0-1.9,0-2.9,0c-0.4,0-1,0.2-1.6,0.2c15.4-5.6,32.7-6.9,47.4-0.5c3.7,2.5,8.1,5.4,7.3,10.3c-0.3,2.1-1.2,1.8-2.9,2.2
					c-0.3,0.1-0.8,0.3-1.1,0.2c0.8,1.8,1.6,3.8,1.1,5.7c-0.5,1.9-1.8,2.6-3.5,3.3c1,0.6,1.2,1.4,0.9,2.6c-0.3,1.2-1.1,2.6-1.9,3.7
					c1.6,0.4,2.6,1,2.5,2.9c-0.1,1.9-1,4.1-1.7,6c-0.1,0.3-0.2,0.6-0.1,0.9c0.5-0.8,1.1-1.8,1.8-2.4c0.9-0.8,1.9-1.1,3-1.1
					c1.1,0,1.9,0.4,2.9,0.5c0.2,0,0.4,0,0.6-0.2c0.2-0.2,0.1-0.3,0.2-0.6c0.3-2.1,1.2-3.8,2.6-5.3c1.4-1.6,3-2.7,4.7-3.8
					c-1-1.4-1.4-2.3-1.3-4.1c0.1-1.8,0.6-3.7,1.5-5.5c0.1-0.2,0.3-0.4,0.2-0.7c-0.1-0.3-0.4-0.2-0.7-0.1c-2,0.1-2.7-0.8-3.9-2.5
					c-1.3-1.9-2.1-4-3.1-6.1c-0.2-0.3-0.4-0.6-0.5-0.9c2.7,2,5.3,4.3,7.7,7c8.4,9.5,11.8,23.3,9.2,36c-3.1,15.4-15.1,23.3-29.1,23.2
					c-7.3,0-15.8-1.3-22.4-5.3c-6.6-4-10.3-12.5-8.3-20.5c1.8-7.2,8.4-12.5,16-10.5c3,0.8,4.2,4.8,1.5,6.9c-0.6,0.4-1.3,0.5-1.8,0
					c-0.3-0.4-0.5-0.9-0.3-1.4c0.1-0.3,0.4-0.6,0.7-0.6c0-0.5-0.7-0.9-1.2-0.7c-0.5,0.2-0.8,0.7-1.1,1.2c-0.6,1.4-0.6,3.2,0.2,4.5
					c0.5,0.7,1.1,1.2,1.8,1.7c1.7,1,4.3,0.5,5.5-1.1c0.1-0.1,0.1-0.1,0.2-0.2c0.1-0.1,0.2-0.1,0.4-0.1c0.6,0,1.1,0.3,1.5,0.8
					c1.3,1.8-1.2,3.8-2.9,3.8c-0.4,0-0.8-0.1-1-0.3c-0.3-0.3-0.3-0.7-0.1-1c-1,0.1-1.8,1-1.8,2c-0.1,1,0.5,1.9,1.3,2.5
					c0.8,0.6,1.8,0.9,2.7,0.9c3.5,0.3,7.1-1.8,8.2-5.1c0.8-2.4,1-5.4,0.2-7.8c-0.8-2.3-1.7-4.7-3.2-6.6c-5.1-6.5-14.6-6.5-21-2.7
					c-6.9,4-11,12.2-10.1,20.8c0.3,2.6,0.9,5,1.9,7.2c-0.6-0.3-1.2-0.5-1.8-0.7c-4.8-1.5-11.4,0.5-11.7,6.3c-0.2,2.2,0.8,4,2.2,5.2
					c2.4,2.2,6.7,2.2,9.3-0.1c1.4-1.2,1.9-3.2,1.4-5c-0.5-1.8-2.9-2.3-4.6-2.2c-0.3,0-0.6,0.1-0.9,0.2c-0.7,0.3-1.1,1-1.2,1.8
					c-0.1,0.8,0.2,1.5,0.6,2.1c0-0.3,0.1-0.6,0.4-0.7c0.3-0.1,0.6-0.1,0.8,0c0.4,0.3,0.5,0.9,0.2,1.3c-0.7,1.3-2.2,1.2-3.4,0.6
					c-1.5-1.1-2-2.5-1.3-4.1c0.8-1.8,2.8-2.6,4.6-2.6c3.4-0.1,6.4,2.2,8.9,4.2c3.1,2.5,6.3,4.9,10,6.3c4,1.4,8.2,2.4,12.3,3
					c11.2,1.7,23.7-0.7,31.7-9.2C921.9,386.3,924.2,371.9,921.5,359.2z M744.8,385.2c0,0,0.1-0.1,0.1-0.1c0.4-1.8,1.7-3.4,2.1-5.2
					c0.7-2.7-0.1-4.8-1.4-7.2c-0.1-0.1,0.1-0.2,0.2-0.1c1.6,1.9,2.8,3.9,2.6,6.5c0,0.3,0,0.5-0.1,0.8c2.4-2.9,4.3-5.6,5.3-9.3
					c1.2-4.2,1.1-8.3,0.1-12.5c0-0.1,0.1-0.1,0.1,0c1.7,4.2,1.7,9.5,0.3,14.2c1.1-2,2.1-4,3-5.9c3.3-6.7,5.4-13.9,4.7-21.4
					c0,0,0,0,0,0c0.9,5.6-0.1,11.2-2,16.5c1.7-2.6,3.9-4.9,6.3-6.8c0.1,0,0.1,0,0.1,0.1c-3.3,2.9-5.4,6.3-7.6,10.1
					c0,0.1-0.1,0.1-0.1,0.1c-0.2,0.4-0.4,0.8-0.6,1.3c-1,2.1-2,4.1-3.1,6.1c2.6-2.1,6-3.4,9.2-3.9c0.1,0,0.1,0.1,0,0.1
					c-2.3,1-4.6,1.7-6.8,2.9c-1.7,1-2.8,2.2-4,3.5c-0.5,0.9-1.1,1.9-1.6,2.8c-0.8,1.3-1.6,2.7-2.4,3.9c1.9-0.9,4.1-1,5.9-0.1
					c0,0,0,0,0,0c-3.9-0.4-6.4,0.6-8.8,3.8c-0.1,0.2-0.3,0.1-0.4,0.1c-0.2,0.2-0.3,0.4-0.5,0.5c-0.1,0.1-0.3,0.1-0.4,0.1
					C744.8,385.9,744.5,385.5,744.8,385.2z M767.9,395.7c0-0.3,0.1-0.5,0.4-0.6c0.1,0,0.2,0,0.3-0.1c0.1-0.1,0.2-0.2,0.4-0.2
					c0.2-0.1,0.5-0.2,0.7-0.2c3.4-1.8,8.1-1.7,11.8-2.8c4.3-1.4,7.9-4,9.4-8.4c0-0.1,0.2-0.1,0.2,0c-0.4,3.8-2.6,6.6-5.7,8.7
					c-0.9,0.6-1.9,1.2-3,1.6c2.7,0.2,5.3,0.5,7.9,0.5c8.8,0.2,16.2-2.6,21.7-9.6c0.1-0.1,0.3,0,0.2,0.2c-3.1,5.8-8.8,9.9-15.2,11.2
					c0.9,0.2,1.7,0.4,2.5,0.6c1.2,0.3,2.4,0.6,3.6,1c1.8,0.5,3.5,1,5.2,1.7c4,0.3,7.4-0.2,11.3-1.2c2.4-0.7,5-1.8,7.5-1.4
					c0,0,0,0,0,0.1c-4.4,1.2-9.4,3.9-14.3,4.4c5.5,2.4,10.8,5.5,15.7,9.1c0.2,0.2,0,0.6-0.3,0.4c-4.5-3-9.3-5.6-14.3-7.8
					c3,2.8,4.9,6.7,6.1,10.9c0,0,0,0.1-0.1,0c-3.7-6.3-6.7-11.5-14.1-13.8c-5-1.5-10.2-2.5-15.3-3.5c-1.3,0-2.6-0.1-4-0.1
					c7.7,2.6,14.6,7.3,16.2,15.8c0,0.1-0.2,0.2-0.2,0.1c-4.4-10.2-13.6-14.4-23.7-16.3c-1.3,0-2.6,0-3.9,0.1c4.5,1.5,8.1,5,8.9,10.2
					c0,0.1-0.1,0.1-0.1,0c-2.6-6.1-8.4-10.1-15.1-9.1C767.9,397.3,767.5,396.2,767.9,395.7z M859,319.6c-1.2-1.1-2.3-1.5-3.9-1.2
					c-0.6,0.1-1.3,0.4-1.9,0.7c-1,0.5-2,1.1-3,1.6c-0.2,0.1-0.4,0.4-0.6,0.5c-0.6,0.4-1.4,0.2-1.4-0.6c0-0.4,0.1-0.6,0.4-0.8
					c0,0,0.1,0,0.1-0.1c0.9-1.3,2.1-2.6,3-3.8c0.9-1.2,1.8-2.2,2.6-3.4c0.2-0.4,0.5-0.7,0.5-1.1c0.1-1.5,0-2.9-0.7-4.3
					c-0.9-1.9-2.4-3.6-3.7-5.3c0,0,0-0.1,0.1-0.1c2.5,2.2,4.5,4.4,5.5,7.6c1-2.2,2.7-4,3.5-6.3c2.4-6.5-0.2-11.5-4-16.8
					c0,0,0-0.1,0,0c3.9,4.6,6.4,9,5.4,15.1c0,0,0,0,0,0c1.3-3.3,2.5-6.6,3.2-10.1c0.7-3.4,0.8-6.7,0.8-10.2c0,0,0.1,0,0.1,0
					c0.7,6.5-0.3,12.4-2.4,18.5c1-1.4,2.2-2.7,3.4-3.9c1.5-1.5,3.1-2.7,4.8-3.9c0.1,0,0.1,0,0.1,0.1c-3.2,3-5.9,6.4-8.4,10.1
					c-0.9,1.3-1.8,2.5-2.6,3.9c-0.9,1.6-1.6,3.2-2.6,4.7c0.3-0.2,0.5-0.4,0.7-0.6c3.6-2.7,7.5-3.2,11.9-3.4c0,0,0,0,0,0
					c-2.1,0.4-4.1,0.7-6.1,1.5c-2,0.8-3.8,2.2-5.4,3.7c-1.6,1.5-2.8,3.1-4.2,4.6c-0.4,0.5-0.8,0.9-1.2,1.3c0.5-0.1,0.9-0.3,1.4-0.3
					C856.6,317.3,857.9,317.7,859,319.6C859.1,319.6,859,319.6,859,319.6z M901.3,337.9c0.2,0.2,0.2,0.3,0.3,0.5
					c0.2,0.2,0.1,0.2,0.2,0.5c0.1,0.3,0.2,1,0.4,1.4c0.3,0.7,0.9,1.9,1.3,2.4c0.9,1.3,1.7,1.9,2.8,2.9c0,0,0,0.1,0,0.1
					c-1.1-0.5-2-1-2.9-1.9c-0.2-0.2-0.5-0.7-0.7-0.9c0.1,0.7,0.2,1.3,0.3,2c0,0.1,0,0.2,0,0.3c0.1,0.6,0.1,1.2,0.2,1.8
					c0.1,0.7,0.3,1.5,0.5,2.2c0.5,1.5,1.3,2.9,1.8,4.3c0,0,0,0.1-0.1,0.1c-0.9-1.2-1.7-2.5-2.3-3.9c-0.2-0.6-0.4-1.2-0.6-1.8
					c-0.3,1.1-0.5,2.2-0.9,3.3c-0.5,1.6-1.2,3.2-1.8,4.7c-0.4,0.9-0.5,1.7-0.5,2.6c0,1.2,0.3,2.2,0.5,3.3c0,0,0,0.1-0.1,0
					c-0.6-1.5-0.8-3-0.7-4.6c-1.2,1.8-2.4,3.5-3.5,5.3c0,0,0,0,0,0c0.8-1.8,2-3.4,3.1-5.1c0.4-0.6,0.6-1.1,0.9-1.7c0,0,0-0.1,0-0.1
					c0.3-0.6,0.6-1.2,0.8-1.8c-0.6,0.6-1.3,1.1-2,1.4c-1,0.5-1.8,0.9-3,0.8c0,0,0-0.1,0-0.1c0.5-0.1,0.8-0.2,1.3-0.4
					c0.5-0.2,1.1-0.5,1.6-0.8c0.5-0.3,1-0.6,1.4-1.1c0.4-0.4,0.7-0.7,1-1.1c0.2-0.3,0.2-0.7,0.3-1c0.4-1,0.6-2.1,0.8-3.2
					c-0.3,0.4-0.7,0.9-1.1,1.2c-1.1,0.8-2.1,1.1-3.4,1.3c0,0,0,0,0-0.1c1.1-0.3,2.2-0.7,3-1.5c0.8-0.8,1.3-1.6,1.8-2.6
					c0.2-0.3,0.1-0.8,0.1-1.2c-0.1-0.8-0.2-1.6-0.4-2.4c-0.1,0.3-0.3,0.7-0.5,1c-0.8,0.9-1.7,1.2-2.9,0.8c0,0,0-0.1,0-0.1
					c1.3-0.4,2-0.8,2.4-2.2c0.2-0.9-0.1-2.1-0.2-3.1c0,0,0-0.1-0.1-0.2c0,0,0,0,0-0.1c-0.1-0.4-0.2-0.8-0.2-1.3
					C900.7,337.7,901.1,337.7,901.3,337.9z"/>
			</g>
			<path class="st0" d="M920.2,362C920.2,362,920.2,362,920.2,362c0,0.1,0.1,0.1,0.1,0.1C920.3,362.1,920.3,362,920.2,362z"/>
			<path class="st0" d="M939.4,369.1c-1.3-0.5-1.9-1.9-1.6-3.2c0.2-1,0.7-1.9,1.1-2.9c0.1-0.1,0.1-0.3,0.1-0.5
				c-0.2,0-0.4-0.1-0.5-0.1c-0.9,0.3-1.8,0.2-2.7,0.1c-1.7-0.2-2.7-1.8-2.5-3.3c0.1-0.5,0.3-1,0.4-1.5c0-0.2,0-0.3,0-0.5
				c-0.2,0.1-0.4,0.1-0.5,0.2c-0.6,0.6-1.4,1.2-2.3,1.3c-2,0.4-4,0.4-5.9-0.5c-0.6-0.3-1.3-0.6-1.9-0.9l-2.2-1l-0.3-0.1l-0.3,0.9
				c0,0-0.1,0.5-0.1,0.6c0,0,0.1,0.2,0.2,0.3c0.1,0.1,0.1,0.1,0.1,0.1c0.4,0.3,0.7,0.6,1,1c0.1,0.1,0.2,0.2,0.3,0.3
				c1.8,2,2.9,4.3,1.7,7c-0.1,0.1-0.1,0.4,0,0.5c0.1,0.1,0.3,0.1,0.5,0c2.3-0.5,4.6,1.8,3.7,4.1c-0.2,0.4-0.3,0.7-0.5,1.1
				c-0.1,0.2,0,0.4-0.1,0.6c0.2,0,0.4,0,0.6-0.2c0.9-0.7,2-0.8,3-0.5c1.3,0.4,2.1,1.2,2,2.7c0,0,0,0.1,0,0.1c0,0.2,0.1,0.4,0.2,0.6
				c0.2-0.1,0.4-0.1,0.5-0.2c0.4-0.3,0.8-0.4,1.3-0.3c1.2,0.2,2.3,0.7,3.2,1.5c0.3,0.2,0.5,0.5,0.8,0.7c0.1,0.1,0.3,0.1,0.5,0.1
				c0-0.2,0-0.3-0.1-0.5c-0.1-0.3-0.4-0.6-0.5-0.8c-0.1-0.9-0.3-1.8-0.2-2.6c0.1-1,0.4-2,1.2-2.7
				C940.4,369.9,940.6,369.6,939.4,369.1z M938.8,369.6c-1.3-0.4-3.1-0.6-4.4-1.3c1,1.6,1.9,3.2,2.5,5c0,0.1-0.1,0.2-0.1,0.1
				c-0.7-1.5-1.4-3-2.4-4.4c0.3,1.2,0.1,2.5-0.3,3.8c0,0,0,0,0,0c0.1-2.2,0.2-4.1-1.3-5.9c-1-1.2-2.2-2.4-3.4-3.5
				c-0.3-0.2-0.7-0.5-1-0.7c1.5,2,2.5,4.4,1.5,6.8c0,0-0.1,0-0.1,0c0.6-3.4-1.1-6-3.4-8.2c-0.3-0.2-0.7-0.4-1-0.6
				c0.9,1.1,1.3,2.7,0.6,4.1c0,0,0,0,0,0c0.4-2-0.5-4-2.4-4.9c-0.3-0.1-0.2-0.5,0-0.5c0-0.1,0.1-0.1,0.2-0.1c0,0,0.1,0,0.1,0
				c0,0,0.1,0,0.1,0c0.1,0,0.1,0,0.2,0.1c1.2,0.1,2.4,0.9,3.5,1.2c1.3,0.4,2.7,0.3,3.8-0.6c0,0,0.1,0,0,0c-0.7,0.9-1.8,1.3-2.9,1.3
				c-0.4,0-0.7,0-1-0.1c0.7,0.5,1.3,1,1.9,1.5c2.2,1.5,4.6,2,7.2,1.2c0,0,0.1,0.1,0,0.1c-1.8,1-3.9,1.1-5.8,0.3
				c0.2,0.2,0.4,0.4,0.6,0.6c0.3,0.3,0.5,0.6,0.8,0.9c0.4,0.4,0.7,0.9,1.1,1.3c1,0.8,1.9,1.2,3.1,1.6
				C937.3,368.9,938.2,369,938.8,369.6C938.8,369.5,938.8,369.6,938.8,369.6z"/>
		</g>
		<path class="st0" d="M721.7,381.7c-0.3-0.4-2.8-4.7-2.6-4.7c-4.7,0.3-9.1-3.9-8.9-8.5c-2.5,1-5.1-0.2-7.1-2
			c0.7-0.2,1.5-0.4,2.3-0.7c2,1.2,4.1,2.2,6.3,2.9c-0.1,0.3-0.2,0.6-0.1,1c0.1,0.3,0.4,0.6,0.6,0.8c0.5,0.4,1.1,0.7,1.7,0.7
			c1.3,0,2.2-1.5,1.7-2.8c-0.1-0.3-0.3-0.5-0.5-0.7c0.7,0,1.3,0.1,2,0.1c0.1,1,1,1.7,2,1.7c0.3,0,0.6,0,0.9-0.2
			c0.4-0.2,0.6-0.5,0.8-0.9c0.6-1.2,0.3-3-1.3-3.3c-0.3-0.1-0.7,0-1,0.1c-0.8,0.3-1.4,1.2-1.5,2.1c-0.9,0-1.9-0.1-2.8-0.2
			c0,0-0.1,0-0.1-0.1c-0.4-0.1-0.8-0.2-1.2-0.1c-0.4-0.1-0.9-0.1-1.3-0.2c-1.8-0.4-3.5-0.9-5.2-1.5c0.9-0.3,1.7-0.6,2.6-1
			c0.9-0.1,1.9-0.2,2.8-0.1c-0.1,0.2-0.1,0.5,0,0.7c0.1,0.4,0.4,0.7,0.7,1c0.6,0.5,1.3,0.8,2,0.8c1.5,0,2.5-1.8,1.9-3.2
			c-0.3-0.7-0.9-1.2-1.6-1.5c-0.3-0.1-0.6-0.2-0.9-0.2c0.8-0.4,1.6-0.9,2.3-1.3c2.9,0.3,6.8,1.4,7.7,2.1c0.1,0.1,0.3,0.2,0.4,0.2
			c0.5,0.1,0.6-0.6,0.7-1c0.3-1.3,1.8-2,3.1-2c1.3,0,2.6,0.6,3.8,1.2c-0.1-1.3,0.6-2.7,1.7-3.4c1.1-0.7,2.6-0.9,3.8-0.3
			c0-0.3,0.1-0.6,0.1-0.9c0.7-3.4,3.9-4.5,5.4-7.3c-1.6-0.4-3.2,0.5-4.8,0.5c-0.4,0-4.6-0.7-4.5-0.9c-2.3,3.1-7.3,3.6-10.3,1.1
			c-0.9,2.8-4.4,3.7-7.3,3.5c1.3,0.1-1.6,5.6-2.5,7.2c-3.5,1.9-7.2,3.4-11.1,4.6c0,0,0,0,0,0c0,0,0,0-0.1,0
			c-0.2,0.1-0.3,0.1-0.5,0.1c0,0,0,0,0,0c-0.9,0.2-2.6,0.6-4.3,1l0,0c-0.2,0-0.4,0.1-0.7,0.1c1.7-1.2,3.2-2.7,4.4-4.4
			c0-0.1,0.1-0.1,0.2-0.2c1.3-1.3,5.7-5.1,7.6-2.9c-0.4-1.8-0.5-3.7,0.3-5.4c0.8-1.7,2.1-2.5,4-2.6c-0.7-2.1-1.7-4-1.7-6.3
			c0-1,1-3.5,2.4-3.3c-3.3-2.3-3.4-5.6-3.3-9.3c-1.2,1.3-5.5,7-6.9,6.3c0.6,1.8,1.2,3.2,0.5,5.2c-0.1,0.4-1.8,2.9-2.8,2.1
			c0.9,1.8,3.1,6.8-0.1,7.2c0.6,2.7,0.2,5-1,7.4c-0.2,0.4-0.5,0.9-0.5,1.3c0,0.2,0.1,0.4,0.2,0.5c-1.5,1.9-3.4,3.6-5.6,4.8
			c0,0,0,0,0,0c-0.1,0-0.2,0-0.3,0c0,0,0,0-0.1,0c-0.4,0.1-0.8,0.1-1.1,0.1c0,0-0.1,0-0.1,0c0,0,0,0-0.1,0c-0.7,0-7.4,0.4-12.4,0.1
			c-1.1-0.1-2.1-0.2-3-0.4l1.5,1.8c0,0,0.5,0.1,1.4,0.1c2.2,0.2,6.8,0.4,12.5-0.3c2.3,2.2,5.1,8.5,5.1,10.1c0,0.2,0,0.4,0.1,0.6
			c0.3,0.5,1,0.1,1.6-0.1c1.5-0.7,3.3,0.1,4.3,1.3c1,1.2,1.4,2.8,1.7,4.3c1.2-1.1,3-1.5,4.6-1c1.5,0.4,2.8,1.7,3.2,3.2
			c0.3-0.2,0.6-0.4,0.9-0.6c3.8-1.9,7.4,0.1,11.3-0.6C725.1,384,723,383.2,721.7,381.7z M711.8,367.5c0.2,0,0.4,0.1,0.6,0.1
			c-0.2,0.2-0.4,0.5-0.5,0.8c-1.8-0.6-3.6-1.4-5.3-2.3C708.3,366.6,710.1,367.1,711.8,367.5z M716.6,358.3
			c5.2-3.3,11.9-1.7,17.1-4.8c0.4-0.2,0.8,0.4,0.4,0.6c-4.8,2.9-11,1.7-16,4.2c-0.1,0-0.2,0-0.3,0.1c-0.3,0.2-0.7,0.4-1,0.6
			C716.5,359.2,716.2,358.6,716.6,358.3z M712.8,362.9c-0.2,0.2-0.3,0.5-0.4,0.7c-0.1,0.1-0.1,0.2-0.2,0.4c-0.5,0-1-0.1-1.5-0.1
			C711.3,363.6,712.1,363.2,712.8,362.9z M703.2,358.1c3.1-4.3,3.2-10,4.6-15c0.1-0.5,0.9-0.3,0.7,0.2c-1.3,4.8-1.4,10.3-4.2,14.4
			c-0.1,0-0.2,0.1-0.2,0.2c0,0.1-0.1,0.2-0.1,0.2c-0.1,0.1-0.1,0.2-0.2,0.3C703.6,358.9,703,358.5,703.2,358.1z M716.6,381.4
			c-2.7,0.2-5.5-2.6-7.4-4.2c-1.4-1.2-2.7-2.4-4-3.7c-1.2-1.1-2.5-2.1-4-2.7c-1.2-0.4-2.4-0.6-3.6-1.1c-0.5-0.2-0.3-0.9,0.2-0.7
			c2,0.7,4.1,1,5.9,2.2c1.7,1.2,3.1,2.8,4.7,4.2c2.1,1.8,5.2,5.5,8.2,5.3C717.1,380.6,717.1,381.3,716.6,381.4z"/>
	</g>
	<g>
		<path class="st0" d="M740.2,593.7c-22.8,95.4-38.8,122.4-100.5,122.4H381.4L473,610.9l9.4-10.8l17.9-20.5l9.6-11.1H355.8
			l-9.6,11.1l-20.5,23.6l-41.2,47.6l-56.7,65.4v46.4h534.4l10.1-168.8H740.2z M268.2,237.5l-5.4,130l-0.5,11.1
			c0.1,0.2,0.2,0.5,0.3,0.7h22.9c-1.5-0.7-3.1-1.4-4.6-2.3c5.2-0.5,9.7-1.7,14-3.2c0.3-3.5,0.7-6.9,1.2-10.1
			c8.3-60.3,34.1-79.7,79.3-79.7h227.1l-81.4,93.9l-9.6,11l-27.4,31.7l-9.6,11.1h154.6l9.6-11.1l25.5-29.3l42.5-48.8l49.4-56.8
			v-48.1H268.2z"/>
		<g>
			<path class="st0" d="M119.4,420.4H50c-2.2-6.7-8.6-11.5-16-11.5c-9.3,0-16.9,7.6-16.9,16.9c0,9.3,7.6,16.9,16.9,16.9
				c7.4,0,13.8-4.8,16-11.5h69.4c3,0,5.4-2.4,5.4-5.4C124.8,422.8,122.4,420.4,119.4,420.4z M40.2,425.8c0,3.4-2.8,6.2-6.2,6.2
				s-6.2-2.8-6.2-6.2c0-3.4,2.8-6.2,6.2-6.2S40.2,422.4,40.2,425.8z"/>
			<path class="st0" d="M119.4,568.6H50c-2.2-6.7-8.6-11.5-16-11.5c-9.3,0-16.9,7.6-16.9,16.9c0,9.3,7.6,16.9,16.9,16.9
				c7.4,0,13.8-4.8,16-11.5h69.4c3,0,5.4-2.4,5.4-5.4C124.8,571,122.4,568.6,119.4,568.6z M40.2,573.9c0,3.4-2.8,6.2-6.2,6.2
				s-6.2-2.8-6.2-6.2c0-3.4,2.8-6.2,6.2-6.2S40.2,570.5,40.2,573.9z"/>
		</g>
		<g>
			<path class="st0" d="M966,408.9c-7.4,0-13.8,4.8-16,11.5h-69.4c-0.2,0-0.4,0-0.6,0c-2.7,0.3-4.8,2.6-4.8,5.3c0,3,2.4,5.4,5.4,5.4
				H950c0,0.1,0.1,0.3,0.1,0.4c2.4,6.5,8.6,11.1,15.9,11.1c9.3,0,16.9-7.6,16.9-16.9C982.9,416.5,975.3,408.9,966,408.9z M966,432
				c-3.4,0-6.2-2.8-6.2-6.2c0-3.4,2.8-6.2,6.2-6.2c3.4,0,6.2,2.8,6.2,6.2C972.2,429.2,969.4,432,966,432z"/>
			<path class="st0" d="M966,557.1c-7.4,0-13.7,4.8-16,11.4c0,0,0,0.1,0,0.1h-69.4c-3,0-5.4,2.4-5.4,5.3c0,3,2.4,5.4,5.4,5.4H950
				c0,0.1,0.1,0.2,0.1,0.2c2.3,6.6,8.6,11.3,15.9,11.3c9.3,0,16.9-7.6,16.9-16.9C982.9,564.6,975.3,557.1,966,557.1z M966,580.1
				c-3.4,0-6.2-2.8-6.2-6.2c0-3.4,2.8-6.2,6.2-6.2c3.4,0,6.2,2.8,6.2,6.2C972.2,577.4,969.4,580.1,966,580.1z"/>
		</g>
		<g>
			<rect x="71" y="568.5" class="st0" width="879.3" height="11.1"/>
			<rect x="71" y="420.5" class="st0" width="879.3" height="11.1"/>
		</g>
	</g>
	<g>
		<g>
			<g>
				<g>
					<g>
						<path class="st0" d="M880,657.5c-3.5-4.5-8.5-7.7-14.3-8.9v-4.6h-2.3c0.7-0.6,1.2-1.6,1.2-2.6c0-1.5-0.9-2.7-2.2-3.2v-62.1
							h-2.3v62c-1.4,0.4-2.5,1.8-2.5,3.3c0,1,0.4,1.9,1.2,2.6h-2v4.6c-4.9,0.9-9.3,3.4-12.6,6.9c-0.2,0.2-0.3,0.3-0.5,0.5
							c-3.8,4.2-6.1,9.7-6.1,15.8c0,13,10.6,23.6,23.6,23.6c7.5,0,14.2-3.5,18.5-9c0.4-0.5,0.7-0.9,1-1.4c2.6-3.8,4.1-8.3,4.1-13.2
							c0-4.9-1.5-9.5-4.1-13.3C880.5,658.2,880.3,657.8,880,657.5z M862.8,650.8c0.1,0,0.2,0,0.3,0c5,0.4,9.5,2.6,12.8,5.8
							c0.1,0.1,0.3,0.3,0.4,0.4c0.3,0.3,0.5,0.5,0.8,0.8c0.1,0.1,0.2,0.3,0.4,0.4c0.1,0.1,0.1,0.1,0.2,0.2c0.2,0.2,0.3,0.4,0.4,0.6
							c0.1,0.1,0.2,0.2,0.2,0.3c0,0,0,0,0,0c0.1,0.2,0.3,0.4,0.4,0.6c0.1,0.1,0.2,0.2,0.2,0.4c0,0,0,0,0,0c-0.2,0-0.4,0.1-0.6,0.2
							c-0.7,0.4-1.5,0.9-2.2,1.3l-0.4,0.2l0-0.2c0.1-0.3,0.2-0.7,0.3-1.1c0.1-0.5-0.1-1.1-0.5-1.4c-0.2-0.1-0.4-0.2-0.6-0.2
							c-0.3,0-0.6,0.1-0.8,0.3c-0.2,0.2-0.3,0.4-0.4,0.7c-0.1,0.5-0.3,1-0.4,1.5l-0.3,1c-0.1,0.4-0.2,0.7-0.3,1.1
							c-0.7,0.4-1.5,0.9-2.2,1.3c0.1-0.5,1.1-4,1.1-4c0.1-0.4,0.2-0.8,0.3-1.2c0.1-0.4,0-0.8-0.3-1.1c-0.2-0.3-0.6-0.4-0.9-0.4
							c-0.1,0-0.2,0-0.3,0c-0.5,0.1-0.8,0.4-0.9,0.9c-0.1,0.4-0.2,0.9-0.3,1.3l-0.1,0.4c-0.5,2-1.1,3.9-1.6,5.9
							c-1.2,0.7-2.4,1.4-3.5,2c-0.4-0.4-0.9-0.7-1.5-0.9c0-1.4,0-2.8,0-4.2c1.5-1.5,3-3,4.5-4.5l0.8-0.8c0.4-0.4,0.4-0.9,0.4-1.2
							c-0.1-0.6-0.6-1-1.2-1c-0.3,0-0.6,0.1-0.8,0.3c0,0-0.1,0.1-0.1,0.1c0,0-2.4,2.4-3.5,3.5v-0.1c0-0.8,0-1.7,0-2.5
							c0.4-0.4,0.8-0.8,1.2-1.2c0.5-0.5,0.9-0.9,1.4-1.4c0.1-0.1,0.1-0.1,0.1-0.2c0.3-0.4,0.3-0.7,0.2-1c-0.1-0.5-0.4-0.8-0.9-0.9
							c-0.1,0-0.2-0.1-0.4-0.1c-0.3,0-0.6,0.1-0.9,0.4c0,0-0.5,0.5-0.8,0.8v-2.8c0-0.2,0-0.4-0.1-0.6
							C862.6,650.8,862.7,650.8,862.8,650.8z M844.3,659.2C844.4,659.2,844.4,659.2,844.3,659.2c0.2-0.3,0.3-0.4,0.5-0.6
							c0.4-0.4,0.7-0.9,1.1-1.3c0.1-0.1,0.2-0.2,0.3-0.3c0.3-0.3,0.5-0.5,0.8-0.8c0.1-0.1,0.2-0.2,0.3-0.3c0.1-0.1,0.2-0.2,0.3-0.2
							c0.1-0.1,0.2-0.2,0.3-0.3c0.3-0.3,0.7-0.5,1-0.8c0.3-0.2,0.7-0.5,1-0.7c3-1.9,6.5-3.1,10.3-3.3c-0.1,0.2-0.2,0.4-0.2,0.6v2.9
							c-0.3-0.3-0.6-0.6-0.8-0.8c-0.3-0.3-0.7-0.4-0.9-0.4c-0.1,0-0.2,0-0.3,0c-0.4,0.1-0.7,0.4-0.8,0.8c-0.1,0.2-0.1,0.5,0,0.7
							c0.1,0.2,0.1,0.3,0.3,0.5c0,0,0.1,0.1,0.1,0.1l0.7,0.7c0.6,0.6,1.3,1.3,1.9,1.9v2.6c-1.3-1.3-2.5-2.5-3.8-3.8
							c-0.3-0.3-0.6-0.4-0.9-0.4c0,0-0.1,0-0.1,0c-0.5,0.1-0.8,0.3-1,0.8c-0.2,0.4-0.1,0.9,0.2,1.3c0,0,0.1,0.1,0.1,0.1l0.8,0.8
							c1.6,1.6,3.1,3.1,4.7,4.7v4.1c-0.6,0.2-1.1,0.4-1.5,0.8c-1.2-0.7-2.4-1.4-3.7-2.1c-0.6-2.4-1.3-4.8-1.9-7.2l0,0
							c0,0,0-0.1,0-0.1l0,0c-0.2-0.5-0.6-0.8-1.2-0.8c-0.1,0-0.2,0-0.3,0c-0.6,0.2-1,0.8-0.9,1.5c0.1,0.6,0.3,1.1,0.4,1.7l0.1,0.4
							l0.8,2.8l0,0c-0.7-0.4-1.5-0.9-2.2-1.3c-0.3-1.1-0.6-2.3-0.9-3.4c-0.2-0.6-0.6-1-1.2-1c-0.1,0-0.3,0-0.4,0.1
							c-0.6,0.2-1,0.8-0.8,1.4c0.1,0.4,0.2,0.8,0.3,1.2c0,0-0.7-0.4-1-0.6l-0.4-0.2c-0.3-0.2-0.7-0.4-1.1-0.6
							c-0.1-0.1-0.3-0.1-0.5-0.1C843.8,659.9,844.1,659.5,844.3,659.2z M842.3,681.3c-0.6-1.3-1.1-2.6-1.5-4
							c-0.2-0.8-0.4-1.6-0.5-2.5c-0.1-1-0.2-2-0.2-3c0-1.4,0.1-2.7,0.4-4c0.3-1.4,0.7-2.7,1.2-4c0.2-0.6,0.5-1.1,0.8-1.7
							c0.1,0.1,0.2,0.3,0.4,0.4c0.4,0.2,0.8,0.5,1.2,0.7c0.2,0.1,0.5,0.3,0.7,0.4c0,0,0.6,0.3,0.7,0.4c-0.4,0.1-0.8,0.2-1.2,0.3
							c-0.6,0.2-0.9,0.6-0.9,1.2c0,0.6,0.4,1,0.9,1.2c0.1,0,0.2,0,0.3,0c0.1,0,0.2,0,0.4-0.1l3-0.8l0.2,0c0.1,0,0.3-0.1,0.4-0.1
							c0.7,0.4,1.4,0.8,2.1,1.2l0.1,0.1l-5.2,1.4c-0.7,0.2-1.1,0.8-0.9,1.5c0.1,0.6,0.6,1,1.2,1c0.1,0,0.2,0,0.4,0
							c0.5-0.1,1-0.3,1.5-0.4l0.9-0.3l1.7-0.4c1.2-0.3,2.3-0.6,3.5-0.9c1,0.6,2.2,1.3,3.5,2c-0.1,0.6-0.2,1.2-0.1,1.8
							c-1.2,0.7-2.4,1.4-3.7,2.1c-1.1-0.3-2.3-0.6-3.4-0.9l-2.4-0.6c-0.5-0.1-1-0.3-1.5-0.4c-0.1,0-0.2,0-0.3,0
							c-0.5,0-0.9,0.3-1.1,0.7c-0.3,0.5-0.1,1.2,0.4,1.5c0.2,0.1,0.3,0.2,0.5,0.2l0.1,0c1.3,0.3,2.5,0.7,3.8,1
							c0.3,0.1,0.6,0.2,0.9,0.3l0,0c-0.8,0.4-1.5,0.9-2.3,1.3l-3.4-0.9c-0.1,0-0.2,0-0.4,0c-0.5,0-1,0.3-1.2,0.8
							c-0.1,0.3-0.1,0.7,0,1c0.2,0.3,0.4,0.5,0.8,0.6c0.4,0.1,0.7,0.2,1.1,0.3l0,0c-0.8,0.4-1.6,0.9-2.4,1.4
							C842.6,681,842.5,681.2,842.3,681.3z M848.4,688.6c-0.4-0.3-0.7-0.6-1-0.8c-0.1-0.1-0.2-0.2-0.3-0.3c-0.2-0.1-0.3-0.3-0.4-0.4
							c-0.1-0.1-0.3-0.3-0.4-0.4c-0.2-0.2-0.3-0.3-0.5-0.5c-0.1-0.1-0.2-0.2-0.3-0.3c-0.1-0.2-0.3-0.3-0.4-0.5
							c-0.2-0.2-0.3-0.4-0.5-0.6c-0.1-0.2-0.3-0.4-0.4-0.5c-0.2-0.3-0.4-0.6-0.6-0.9c0.2,0,0.4-0.1,0.6-0.2l2-1.1l0.6-0.3
							c-0.1,0.4-0.2,0.8-0.3,1.2c-0.2,0.7,0.2,1.3,0.8,1.5c0.1,0,0.2,0.1,0.4,0.1c0.6,0,1-0.4,1.2-0.9c0.1-0.4,0.2-0.7,0.3-1.1
							c0-0.2,0.1-0.3,0.1-0.5l0.1-0.3c0.2-0.6,0.3-1.2,0.5-1.7c0.6-0.4,1.3-0.7,1.9-1.1c0.1-0.1,0.2-0.1,0.3-0.2
							c-0.5,1.7-0.9,3.4-1.4,5.1c0,0.2-0.1,0.4,0,0.8c0.2,0.5,0.6,0.9,1.2,0.9h0c0.5,0,1-0.4,1.2-0.9c0.1-0.5,0.3-1,0.4-1.5l0.1-0.4
							c0.5-1.9,1-3.8,1.5-5.7c1-0.6,2.2-1.3,3.5-2c0.4,0.4,0.9,0.7,1.5,0.9v4.2l-5.3,5.3c-0.4,0.4-0.4,0.9-0.4,1.2
							c0.1,0.6,0.6,1,1.2,1c0.3,0,0.6-0.1,0.8-0.3c0,0,0.1-0.1,0.1-0.1l3.5-3.5v2.6c-0.9,0.9-1.7,1.7-2.5,2.5
							c-0.2,0.2-0.4,0.6-0.4,0.9c0,0.3,0.1,0.6,0.4,0.9c0.2,0.2,0.5,0.4,0.9,0.4c0.3,0,0.6-0.1,0.9-0.4c0.3-0.3,0.5-0.5,0.8-0.8v2.7
							c0,0.2,0.1,0.5,0.2,0.7C855.7,692.7,851.6,691.1,848.4,688.6z M861.2,674c-1.2,0-2.2-1-2.2-2.2c0-1.2,1-2.2,2.2-2.2
							c1.2,0,2.2,1,2.2,2.2C863.4,673,862.4,674,861.2,674z M878.2,684.4c-0.1,0.2-0.2,0.3-0.4,0.5c-0.3,0.3-0.5,0.7-0.8,1
							c-0.6,0.6-1.2,1.2-1.8,1.8c-3.3,2.9-7.5,4.8-12.1,5.2c-0.3,0-0.6,0-0.9,0.1c0.2-0.3,0.2-0.7,0.2-0.9c0,0,0-0.1,0-0.1
							c0,0,0-2.1,0-2.5c0.3,0.3,0.6,0.6,0.9,0.9c0.3,0.3,0.7,0.4,0.9,0.4c0.1,0,0.2,0,0.3,0c0.4-0.1,0.8-0.4,0.9-0.9
							c0.1-0.4,0-0.9-0.3-1.2c-0.3-0.3-0.6-0.6-0.9-0.9c-0.2-0.2-0.3-0.3-0.5-0.5l-0.3-0.3c-0.3-0.3-0.6-0.6-0.8-0.8
							c0-0.9,0-1.7,0-2.6c1.3,1.3,2.5,2.5,3.8,3.8c0.3,0.3,0.6,0.4,0.9,0.4c0.1,0,0.2,0,0.3,0c0.4-0.1,0.7-0.4,0.9-0.8
							c0.1-0.4,0-0.9-0.3-1.2c0,0-0.1-0.1-0.1-0.1l-0.8-0.8c-1.6-1.6-3.1-3.2-4.7-4.7c0-1.3,0-2.7,0-4c0.6-0.2,1.1-0.4,1.6-0.8
							c1.4,0.8,2.6,1.5,3.7,2.1c0.6,2.1,1.1,4.2,1.7,6.3l0,0.2c0.1,0.3,0.1,0.5,0.2,0.8c0.2,0.6,0.6,0.9,1.2,0.9c0.1,0,0.2,0,0.3,0
							c0.7-0.2,1-0.9,0.9-1.5c0,0-1.2-4.6-1.3-4.9l0.4,0.3c0.6,0.4,1.2,0.7,1.8,1.1c0.3,1.2,0.6,2.3,0.9,3.5c0.1,0.5,0.5,0.9,1,0.9
							c0.1,0,0.1,0,0.2,0c0.4,0,0.8-0.2,1-0.6c0.2-0.3,0.2-0.6,0.2-1c-0.1-0.4-0.2-0.7-0.3-1.1c0.8,0.5,1.6,0.9,2.4,1.4
							c0.1,0.1,0.4,0.2,0.7,0.2C878.7,683.8,878.5,684.1,878.2,684.4z M882.4,671.6c0,0.1,0,0.2,0,0.3c0,0.6,0,1.3-0.1,1.9
							c-0.2,2.5-0.9,4.9-1.9,7.1c-0.1,0.3-0.2,0.5-0.4,0.7c-0.1-0.2-0.3-0.3-0.4-0.4c-0.4-0.3-0.9-0.5-1.3-0.8l-1.3-0.7
							c0.4-0.1,0.8-0.2,1.2-0.3c0.6-0.2,0.9-0.6,0.9-1.2c0-0.6-0.4-1-0.9-1.2c-0.1,0-0.2,0-0.3,0c-0.2,0-0.3,0-0.4,0.1l-0.9,0.3
							c-0.9,0.2-1.7,0.5-2.6,0.7c-0.7-0.4-1.5-0.9-2.2-1.3l1.2-0.3c1.3-0.4,2.6-0.7,4-1.1c0.6-0.2,0.9-0.6,0.9-1.2
							c0-0.6-0.4-1-0.9-1.2c-0.1,0-0.2,0-0.3,0c-0.1,0-0.3,0-0.4,0.1c-0.5,0.1-3.7,1-3.7,1c-1.3,0.3-2.6,0.7-3.9,1
							c-0.8-0.5-1.6-0.9-2.5-1.4c-0.4-0.2-0.7-0.4-1.1-0.6c0.1-0.6,0.2-1.2,0-1.8c1.2-0.7,2.4-1.4,3.7-2.1c1.4,0.4,2.7,0.7,4.1,1.1
							c1.1,0.3,2.1,0.6,3.2,0.8c0.1,0,0.3,0.1,0.4,0.1c0.4,0,0.7-0.1,0.9-0.4c0.3-0.3,0.4-0.8,0.3-1.2c-0.1-0.4-0.5-0.7-0.9-0.8
							c-0.5-0.1-0.9-0.2-1.4-0.4l-0.5-0.1c0,0-2.4-0.6-3-0.8l0.1-0.1c0.7-0.4,1.4-0.8,2.2-1.3c1,0.3,2,0.5,3,0.8l0.5,0.1
							c0.1,0,0.2,0,0.4,0c0.5,0,0.9-0.3,1.1-0.7c0.2-0.3,0.2-0.7,0-1.1c-0.2-0.3-0.5-0.6-0.8-0.7c-0.4-0.1-0.7-0.2-1.1-0.3
							c0.8-0.4,1.6-0.9,2.3-1.4c0.2-0.1,0.4-0.2,0.5-0.5c0.3,0.5,0.5,1,0.7,1.5C881.8,666.2,882.3,668.8,882.4,671.6z"/>
					</g>
				</g>
			</g>
		</g>
		<g>
			<g>
				<g>
					<path class="st0" d="M902.6,614l3.3,10.2c0.2,0.6,0.8,1,1.4,1h10.7c1.5,0,2.1,1.9,0.9,2.7l-8.7,6.3c-0.5,0.4-0.7,1.1-0.5,1.7
						l3.3,10.2c0.4,1.4-1.1,2.5-2.3,1.7l-8.7-6.3c-0.5-0.4-1.2-0.4-1.8,0l-8.7,6.3c-1.2,0.9-2.8-0.3-2.3-1.7l3.3-10.2
						c0.2-0.6,0-1.3-0.5-1.7l-8.7-6.3c-1.2-0.9-0.6-2.7,0.9-2.7H895c0.6,0,1.2-0.4,1.4-1l3.3-10.2
						C900.2,612.6,902.2,612.6,902.6,614z"/>
				</g>
				<g>
					<rect x="900.4" y="576.2" class="st0" width="1.5" height="40.3"/>
				</g>
			</g>
			<g>
				<g>
					<path class="st0" d="M819.7,614l3.3,10.2c0.2,0.6,0.8,1,1.4,1h10.7c1.5,0,2.1,1.9,0.9,2.7l-8.7,6.3c-0.5,0.4-0.7,1.1-0.5,1.7
						l3.3,10.2c0.4,1.4-1.1,2.5-2.3,1.7l-8.7-6.3c-0.5-0.4-1.2-0.4-1.8,0l-8.7,6.3c-1.2,0.9-2.8-0.3-2.3-1.7l3.3-10.2
						c0.2-0.6,0-1.3-0.5-1.7l-8.7-6.3c-1.2-0.9-0.6-2.7,0.9-2.7h10.7c0.6,0,1.2-0.4,1.4-1l3.3-10.2
						C817.3,612.6,819.2,612.6,819.7,614z"/>
				</g>
				<g>
					<rect x="817.5" y="576.2" class="st0" width="1.5" height="40.3"/>
				</g>
			</g>
		</g>
	</g>
</g>
</svg>
