<?xml version="1.0" encoding="utf-8"?>
<!-- Generator: Adobe Illustrator 26.3.1, SVG Export Plug-In . SVG Version: 6.00 Build 0)  -->
<svg version="1.1" id="Layer_1" xmlns="http://www.w3.org/2000/svg" xmlns:xlink="http://www.w3.org/1999/xlink" x="0px" y="0px"
	 viewBox="0 0 1000 1000" style="enable-background:new 0 0 1000 1000;" xml:space="preserve">
<style type="text/css">
	.st0{fill:#010101;}
</style>
<g>
	<g>
		<path class="st0" d="M569.84,869.95c4.86-2.81,9.72-5.63,14.59-8.42c2.83-1.62,7.14-4.6,7.51-8.15c0.15-1.35-0.32-2.74-1.13-3.83
			c-3.63-4.87-8.77-1.71-12.77,0.61c-4.86,2.8-9.72,5.6-14.58,8.41c-0.38,0.22-0.74,0.44-1.17,0.56c-1.16,0.33-1.88-0.25-1.73-1.46
			c0.05-0.37,0.15-0.73,0.24-1.1c0.68-2.56,1.36-5.11,2.04-7.67c0.71-2.68,0.89-5.41,0.62-8.18c-0.16-1.6-0.99-2.78-2.33-3.59
			c-1.79-1.09-3.71-1.21-5.7-0.6c-0.77,0.24-1.38,0.71-1.81,1.41c-1.59,2.56-2.78,5.28-3.55,8.2c-1.71,6.46-3.44,12.93-5.19,19.38
			c-0.79,2.92-2.54,5.15-5.12,6.71c-1.25,0.75-2.51,1.49-3.79,2.18c-2.59,1.4-5.23,1.43-7.8,0c-3.27-1.83-6.51-3.72-9.74-5.62
			c-2.67-1.56-4-3.92-4.05-7c-0.02-1.32-0.03-2.65,0-3.96c0.06-3.01,1.09-5.66,3.22-7.8c4.88-4.92,9.8-9.81,14.7-14.71
			c1.95-1.95,3.44-4.22,4.63-6.68c0.84-1.72,0.65-3.37-0.39-4.9c-1.17-1.73-2.74-2.81-4.93-2.76c-0.57,0.01-1.12,0.15-1.64,0.39
			c-2.5,1.15-4.77,2.62-6.73,4.56c-1.96,1.94-3.9,3.9-5.84,5.83c-0.34,0.34-0.69,0.7-1.13,0.91c-0.86,0.4-1.47,0.13-1.75-0.77
			c-0.15-0.5-0.15-1.01-0.15-1.52c0-5.67-0.01-11.33,0.01-16.99c0.01-2.33-0.26-5.08-1.09-7.25c-0.63-1.68-1.86-3.24-3.56-3.84
			c-0.63-0.23-1.31-0.31-1.98-0.3c-1.08,0.01-2.17,0.26-3.05,0.87c-2.84,1.95-3.36,7.17-3.36,10.29
			c-0.01,5.78-0.01,11.55-0.01,17.33c0,0.5,0.02,1.02-0.16,1.51c-0.29,0.78-0.84,1.03-1.59,0.73c-0.49-0.18-0.86-0.55-1.23-0.92
			l-5.95-5.95c-1.57-1.57-3.27-2.98-5.03-4.33c-0.66-0.52-1.36-0.83-2.22-0.73c-0.64,0.06-1.29,0-1.94,0.15
			c-1.8,0.42-3.2,1.41-4.16,2.98c-0.88,1.44-1.08,2.98-0.34,4.55c1.12,2.42,2.53,4.64,4.42,6.54c4.88,4.88,9.75,9.77,14.66,14.64
			c1.87,1.86,2.97,4.07,3.45,6.63c0.07,0.4,0.09,0.8,0.09,1.2c0,1.54,0.05,3.08,0,4.62c-0.09,2.85-1.39,5.09-3.82,6.55
			c-3.25,1.96-6.57,3.84-9.88,5.71c-2.62,1.49-5.31,1.46-7.95,0.02c-1.23-0.66-2.43-1.39-3.64-2.11c-2.64-1.57-4.41-3.84-5.21-6.82
			c-1.78-6.57-3.54-13.12-5.29-19.69c-0.69-2.6-1.8-5.02-3.12-7.36c-0.73-1.29-1.8-1.96-3.22-2.17c-1.59-0.22-3.13-0.02-4.53,0.81
			c-1.41,0.84-2.26,2.04-2.42,3.71c-0.28,2.76-0.07,5.49,0.64,8.18c0.65,2.5,1.34,5,2.01,7.51c0.1,0.41,0.22,0.84,0.26,1.26
			c0.1,1.17-0.57,1.72-1.72,1.4c-0.45-0.13-0.84-0.37-1.24-0.6c-4.9-2.83-9.81-5.67-14.71-8.5c-1.57-0.91-3.17-1.72-4.77-2.58
			c-1.47-0.78-2.96-0.76-4.47-0.29c-2.26,0.7-4.24,2.66-4.51,5.06c-0.47,4.18,4.21,7.25,7.3,9.11c4.79,2.86,9.66,5.6,14.5,8.39
			c0.47,0.27,0.95,0.52,1.38,0.87c1.02,0.86,0.92,1.75-0.29,2.31c-0.34,0.16-0.71,0.26-1.07,0.37c-2.8,0.76-5.58,1.48-8.37,2.26
			c-2.62,0.73-5.01,1.98-7.21,3.58c-0.83,0.6-1.34,1.42-1.58,2.38c-0.55,2.18-0.01,4.11,1.49,5.76c0.71,0.78,1.63,1.24,2.69,1.35
			c2.74,0.3,5.44,0.17,8.11-0.54c6.77-1.79,13.54-3.62,20.32-5.43c3.12-0.83,6.08-0.47,8.89,1.17c1.12,0.65,2.27,1.26,3.37,1.94
			c2.42,1.5,3.77,3.69,3.8,6.55c0.07,3.93,0.06,7.87,0,11.81c-0.03,2.8-1.35,4.95-3.71,6.44c-1.41,0.88-2.85,1.73-4.34,2.5
			c-2.56,1.33-5.27,1.68-8.08,0.94c-4.85-1.28-9.69-2.6-14.54-3.88c-3.41-0.91-6.85-1.75-10.24-2.72c-2.48-0.7-6.04,0.53-7.41,3.75
			c-0.19,0.44-0.34,0.91-0.45,1.42c-0.18,0.97-0.15,1.94,0.18,2.88c0.31,0.88,0.81,1.63,1.59,2.18c2.27,1.6,4.7,2.86,7.38,3.59
			c2.56,0.7,5.11,1.38,7.67,2.06c0.55,0.14,1.1,0.29,1.57,0.62c0.68,0.48,0.76,1.09,0.23,1.73c-0.33,0.4-0.77,0.68-1.21,0.93
			c-4.88,2.82-9.76,5.64-14.64,8.46c-1.11,0.64-2.43,1.48-3.66,2.5c6.37,1.36,12.79,2.56,19.24,3.56c1.74-1.01,3.47-2.02,5.21-3.01
			c0.4-0.23,0.8-0.45,1.21-0.66c0.33-0.17,0.7-0.28,1.09-0.26c0.61,0.01,0.94,0.3,1.03,0.92c0.09,0.65-0.06,1.28-0.22,1.91
			c-0.21,0.74-0.4,1.48-0.61,2.22c4.35,0.6,8.72,1.09,13.1,1.5c1.12-4.19,2.25-8.39,3.37-12.58c0.85-3.15,2.67-5.56,5.5-7.18
			c1.17-0.66,2.33-1.39,3.52-2.01c2.52-1.33,5.09-1.39,7.59,0c3.41,1.9,6.82,3.84,10.16,5.87c2.37,1.43,3.61,3.66,3.71,6.44
			c0.06,1.51,0.02,3.03,0.01,4.54c-0.02,2.44-0.7,4.62-2.04,6.5c0.55,0.01,1.1,0.01,1.65,0.01c5.12,0,10.22-0.11,15.3-0.33
			c-1.24-1.87-1.86-4-1.87-6.39c0-1.4-0.05-2.81,0.01-4.21c0.1-2.81,1.31-5.08,3.71-6.53c3.39-2.06,6.82-4.06,10.3-5.95
			c2.43-1.33,4.98-1.27,7.45,0.03c1.35,0.72,2.68,1.5,3.99,2.31c2.44,1.5,4.14,3.63,4.89,6.41c1.05,3.84,2.09,7.69,3.12,11.54
			c4.34-0.58,8.66-1.25,12.96-1.99c-0.02-0.1-0.06-0.21-0.08-0.31c-0.15-0.55-0.28-1.1-0.23-1.67c0.08-0.73,0.45-1.07,1.18-1.04
			c0.62,0.02,1.13,0.32,1.65,0.62c0.86,0.49,1.71,0.99,2.57,1.48c6.36-1.19,12.67-2.57,18.94-4.11c-0.03-0.02-0.06-0.03-0.09-0.06
			c-4.57-2.64-9.16-5.28-13.73-7.93c-0.49-0.29-1-0.55-1.47-0.87c-0.55-0.38-1.19-0.78-1.05-1.58c0.13-0.78,0.84-0.99,1.47-1.21
			c0.23-0.09,0.47-0.14,0.7-0.21c2.58-0.69,5.17-1.38,7.73-2.09c2.58-0.7,4.92-1.91,7.1-3.44c1.49-1.03,2.1-2.52,2.03-4.26
			c-0.08-2.17-1.25-4.06-2.96-5.17c-1.07-0.71-2.36-1.11-3.72-1.09c-0.41,0-0.8,0.09-1.19,0.2c-6.26,1.56-12.47,3.31-18.7,4.95
			c-1.98,0.53-3.96,1.05-5.94,1.59c-3.13,0.85-6.1,0.42-8.89-1.18c-1.17-0.68-2.35-1.34-3.51-2.03c-2.59-1.55-3.98-3.83-4-6.86
			c-0.03-3.77-0.02-7.55,0-11.33c0.01-3.04,1.41-5.31,3.98-6.86c1.07-0.64,2.14-1.25,3.22-1.87c2.78-1.62,5.74-1.99,8.82-1.18
			c6.73,1.79,13.44,3.61,20.17,5.41c2.72,0.72,5.48,0.88,8.26,0.6c1.35-0.15,2.4-0.8,3.2-1.86c0.89-1.18,1.31-2.54,1.25-4.02
			c-0.06-1.58-0.7-2.91-2.06-3.84c-2.19-1.5-4.53-2.72-7.1-3.43c-2.74-0.74-5.47-1.47-8.2-2.2c-0.45-0.13-0.88-0.25-1.28-0.48
			c-0.88-0.52-0.99-1.26-0.28-1.99C568.95,870.45,569.39,870.2,569.84,869.95z M490.2,892.52c0.02-3.04,1.41-5.32,4-6.85
			c3.16-1.86,6.35-3.68,9.52-5.51c2.74-1.56,5.49-1.58,8.23-0.01c3.19,1.82,6.35,3.68,9.53,5.49c1.83,1.03,2.99,2.59,3.7,4.53
			c0.22,0.62,0.32,1.26,0.32,1.9c-0.01,4.7,0.07,9.39-0.05,14.08c-0.01,0.16-0.02,0.32-0.02,0.48c-0.01,1.11-0.46,1.93-1.42,2.54
			c-2.15,1.41-4.39,2.65-6.61,3.93c-2.35,1.36-4.69,2.77-7.09,4.05c-0.33,0.18-0.69,0.32-1.01,0.52c-0.97,0.58-1.91,0.5-2.91,0
			c-2.34-1.18-4.57-2.54-6.84-3.84c-2.78-1.6-5.55-3.24-8.33-4.84c-0.71-0.41-1.02-0.91-1.01-1.74c0.05-2.57,0.01-5.12,0.01-7.69
			c-0.01,0-0.01,0-0.02,0C490.2,897.21,490.17,894.86,490.2,892.52z"/>
	</g>
	<g>
		<g>
			<path class="st0" d="M829.21,414.32c-0.38-1.38-0.91-2.76-1.05-4.16c-0.26-2.88-1.91-4.52-4.37-5.67c-0.51-0.23-1-0.49-1.48-0.78
				c3.02,5.61,5.89,11.3,8.63,17.07C830.35,418.61,829.78,416.47,829.21,414.32z M537.32,208.59c-3.03-2.9-5.48-5.6-7.35-7.78
				c-0.05-0.18-0.09-0.35-0.13-0.52c-1.48-1.67-2.94-3.37-4.33-5.13c0-0.01-0.01-0.03-0.01-0.03c-2.29-2.88-4.42-5.87-6.3-9.02
				c-1.44,0.92-2.93,1.76-4.49,2.47c-0.1,0.05-0.22,0.1-0.34,0.16c-0.03,0.01-0.05,0.04-0.08,0.04c-2.36,1.07-4.81,1.85-7.34,2.37
				c-0.17,0.04-0.34,0.06-0.49,0.09c-8.51,1.46-16.1-0.74-18.83-1.69c-0.2-0.08-0.38-0.13-0.52-0.2c-0.09-0.03-0.17-0.07-0.26-0.1
				c0,0,0,0-0.01,0c-0.14-0.05-0.25-0.08-0.26-0.1c-2.03-0.81-3.99-1.77-5.87-2.89c0,0-0.03,0.04-0.09,0.14
				c-0.05,0.09-0.14,0.23-0.26,0.43c-0.12,0.18-0.26,0.42-0.43,0.69c-0.09,0.13-0.2,0.27-0.29,0.44c-0.42,0.64-0.96,1.44-1.61,2.39
				c-0.35,0.48-0.73,1-1.13,1.56c-0.22,0.31-0.47,0.64-0.7,0.96c-0.6,0.81-1.26,1.67-1.98,2.59c-0.18,0.21-0.35,0.43-0.52,0.65
				c-0.26,0.34-0.53,0.66-0.81,0.99c-0.09,0.1-0.17,0.21-0.26,0.31c-0.79,0.96-1.63,1.93-2.46,2.86c0,0.01-0.01,0.03-0.01,0.05
				c-2.02,2.29-4.31,4.74-6.9,7.25c0.04-0.07,0.08-0.13,0.1-0.18c-2.19,2.12-4.45,4.18-6.81,6.13c14.25-1.7,28.74-2.56,43.45-2.56
				c14.42,0,28.65,0.83,42.64,2.47C540.7,211.78,538.93,210.15,537.32,208.59z M829.21,414.32c-0.38-1.38-0.91-2.76-1.05-4.16
				c-0.26-2.88-1.91-4.52-4.37-5.67c-0.51-0.23-1-0.49-1.48-0.78c3.02,5.61,5.89,11.3,8.63,17.07
				C830.35,418.61,829.78,416.47,829.21,414.32z M537.32,208.59c-3.03-2.9-5.48-5.6-7.35-7.78c-0.05-0.18-0.09-0.35-0.13-0.52
				c-1.48-1.67-2.94-3.37-4.33-5.13c0-0.01-0.01-0.03-0.01-0.03c-2.29-2.88-4.42-5.87-6.3-9.02c-1.44,0.92-2.93,1.76-4.49,2.47
				c-0.1,0.05-0.22,0.1-0.34,0.16c-0.03,0.01-0.05,0.04-0.08,0.04c-2.36,1.07-4.81,1.85-7.34,2.37c-0.17,0.04-0.34,0.06-0.49,0.09
				c-8.51,1.46-16.1-0.74-18.83-1.69c-0.2-0.08-0.38-0.13-0.52-0.2c-0.09-0.03-0.17-0.07-0.26-0.1c0,0,0,0-0.01,0
				c-0.14-0.05-0.25-0.08-0.26-0.1c-2.03-0.81-3.99-1.77-5.87-2.89c0,0-0.03,0.04-0.09,0.14c-0.05,0.09-0.14,0.23-0.26,0.43
				c-0.12,0.18-0.26,0.42-0.43,0.69c-0.09,0.13-0.2,0.27-0.29,0.44c-0.42,0.64-0.96,1.44-1.61,2.39c-0.35,0.48-0.73,1-1.13,1.56
				c-0.22,0.31-0.47,0.64-0.7,0.96c-0.6,0.81-1.26,1.67-1.98,2.59c-0.18,0.21-0.35,0.43-0.52,0.65c-0.26,0.34-0.53,0.66-0.81,0.99
				c-0.09,0.1-0.17,0.21-0.26,0.31c-0.79,0.96-1.63,1.93-2.46,2.86c0,0.01-0.01,0.03-0.01,0.05c-2.02,2.29-4.31,4.74-6.9,7.25
				c0.04-0.07,0.08-0.13,0.1-0.18c-2.19,2.12-4.45,4.18-6.81,6.13c14.25-1.7,28.74-2.56,43.45-2.56c14.42,0,28.65,0.83,42.64,2.47
				C540.7,211.78,538.93,210.15,537.32,208.59z M829.21,414.32c-0.38-1.38-0.91-2.76-1.05-4.16c-0.26-2.88-1.91-4.52-4.37-5.67
				c-0.51-0.23-1-0.49-1.48-0.78c3.02,5.61,5.89,11.3,8.63,17.07C830.35,418.61,829.78,416.47,829.21,414.32z M537.32,208.59
				c-3.03-2.9-5.48-5.6-7.35-7.78c-0.05-0.18-0.09-0.35-0.13-0.52c-1.48-1.67-2.94-3.37-4.33-5.13c0-0.01-0.01-0.03-0.01-0.03
				c-2.29-2.88-4.42-5.87-6.3-9.02c-1.44,0.92-2.93,1.76-4.49,2.47c-0.1,0.05-0.22,0.1-0.34,0.16c-0.03,0.01-0.05,0.04-0.08,0.04
				c-2.36,1.07-4.81,1.85-7.34,2.37c-0.17,0.04-0.34,0.06-0.49,0.09c-8.51,1.46-16.1-0.74-18.83-1.69c-0.2-0.08-0.38-0.13-0.52-0.2
				c-0.09-0.03-0.17-0.07-0.26-0.1c0,0,0,0-0.01,0c-0.14-0.05-0.25-0.08-0.26-0.1c-2.03-0.81-3.99-1.77-5.87-2.89
				c0,0-0.03,0.04-0.09,0.14c-0.05,0.09-0.14,0.23-0.26,0.43c-0.12,0.18-0.26,0.42-0.43,0.69c-0.09,0.13-0.2,0.27-0.29,0.44
				c-0.42,0.64-0.96,1.44-1.61,2.39c-0.35,0.48-0.73,1-1.13,1.56c-0.22,0.31-0.47,0.64-0.7,0.96c-0.6,0.81-1.26,1.67-1.98,2.59
				c-0.18,0.21-0.35,0.43-0.52,0.65c-0.26,0.34-0.53,0.66-0.81,0.99c-0.09,0.1-0.17,0.21-0.26,0.31c-0.79,0.96-1.63,1.93-2.46,2.86
				c0,0.01-0.01,0.03-0.01,0.05c-2.02,2.29-4.31,4.74-6.9,7.25c0.04-0.07,0.08-0.13,0.1-0.18c-2.19,2.12-4.45,4.18-6.81,6.13
				c14.25-1.7,28.74-2.56,43.45-2.56c14.42,0,28.65,0.83,42.64,2.47C540.7,211.78,538.93,210.15,537.32,208.59z M537.32,208.59
				c-3.03-2.9-5.48-5.6-7.35-7.78c-0.05-0.18-0.09-0.35-0.13-0.52c-1.48-1.67-2.94-3.37-4.33-5.13c0-0.01-0.01-0.03-0.01-0.03
				c-2.29-2.88-4.42-5.87-6.3-9.02c-1.44,0.92-2.93,1.76-4.49,2.47c-0.1,0.05-0.22,0.1-0.34,0.16c-0.03,0.01-0.05,0.04-0.08,0.04
				c-2.36,1.07-4.81,1.85-7.34,2.37c-0.17,0.04-0.34,0.06-0.49,0.09c-8.51,1.46-16.1-0.74-18.83-1.69c-0.2-0.08-0.38-0.13-0.52-0.2
				c-0.09-0.03-0.17-0.07-0.26-0.1c0,0,0,0-0.01,0c-0.14-0.05-0.25-0.08-0.26-0.1c-2.03-0.81-3.99-1.77-5.87-2.89
				c0,0-0.03,0.04-0.09,0.14c-0.05,0.09-0.14,0.23-0.26,0.43c-0.12,0.18-0.26,0.42-0.43,0.69c-0.09,0.13-0.2,0.27-0.29,0.44
				c-0.42,0.64-0.96,1.44-1.61,2.39c-0.35,0.48-0.73,1-1.13,1.56c-0.22,0.31-0.47,0.64-0.7,0.96c-0.6,0.81-1.26,1.67-1.98,2.59
				c-0.18,0.21-0.35,0.43-0.52,0.65c-0.26,0.34-0.53,0.66-0.81,0.99c-0.09,0.1-0.17,0.21-0.26,0.31c-0.79,0.96-1.63,1.93-2.46,2.86
				c0,0.01-0.01,0.03-0.01,0.05c-2.02,2.29-4.31,4.74-6.9,7.25c0.04-0.07,0.08-0.13,0.1-0.18c-2.19,2.12-4.45,4.18-6.81,6.13
				c14.25-1.7,28.74-2.56,43.45-2.56c14.42,0,28.65,0.83,42.64,2.47C540.7,211.78,538.93,210.15,537.32,208.59z M537.32,208.59
				c-3.03-2.9-5.48-5.6-7.35-7.78c-0.05-0.18-0.09-0.35-0.13-0.52c-1.48-1.67-2.94-3.37-4.33-5.13c0-0.01-0.01-0.03-0.01-0.03
				c-2.29-2.88-4.42-5.87-6.3-9.02c-1.44,0.92-2.93,1.76-4.49,2.47c-0.1,0.05-0.22,0.1-0.34,0.16c-0.03,0.01-0.05,0.04-0.08,0.04
				c-2.36,1.07-4.81,1.85-7.34,2.37c-0.17,0.04-0.34,0.06-0.49,0.09c-8.51,1.46-16.1-0.74-18.83-1.69c-0.2-0.08-0.38-0.13-0.52-0.2
				c-0.09-0.03-0.17-0.07-0.26-0.1c0,0,0,0-0.01,0c-0.14-0.05-0.25-0.08-0.26-0.1c-2.03-0.81-3.99-1.77-5.87-2.89
				c0,0-0.03,0.04-0.09,0.14c-0.05,0.09-0.14,0.23-0.26,0.43c-0.12,0.18-0.26,0.42-0.43,0.69c-0.09,0.13-0.2,0.27-0.29,0.44
				c-0.42,0.64-0.96,1.44-1.61,2.39c-0.35,0.48-0.73,1-1.13,1.56c-0.22,0.31-0.47,0.64-0.7,0.96c-0.6,0.81-1.26,1.67-1.98,2.59
				c-0.18,0.21-0.35,0.43-0.52,0.65c-0.26,0.34-0.53,0.66-0.81,0.99c-0.09,0.1-0.17,0.21-0.26,0.31c-0.79,0.96-1.63,1.93-2.46,2.86
				c0,0.01-0.01,0.03-0.01,0.05c-2.02,2.29-4.31,4.74-6.9,7.25c0.04-0.07,0.08-0.13,0.1-0.18c-2.19,2.12-4.45,4.18-6.81,6.13
				c14.25-1.7,28.74-2.56,43.45-2.56c14.42,0,28.65,0.83,42.64,2.47C540.7,211.78,538.93,210.15,537.32,208.59z M864.31,422.99
				c-2.81-6.65-5.8-13.19-8.95-19.65c-2.16-4.44-4.41-8.82-6.74-13.16c-2.28-4.28-4.65-8.51-7.1-12.69
				c-2.51-4.33-5.13-8.61-7.82-12.83c-10.71-16.84-22.72-32.84-35.95-47.96c-3.24-3.7-6.56-7.34-9.94-10.93
				c-2.69-2.85-5.43-5.67-8.21-8.46c-1.93-1.93-3.88-3.84-5.84-5.73c-3.58-3.42-7.21-6.79-10.89-10.07
				c-5.02-4.48-10.15-8.82-15.37-13.01c-6.56-5.28-13.27-10.34-20.14-15.17c-0.31-0.22-0.62-0.44-0.94-0.66
				c-8.97-6.29-18.19-12.18-27.66-17.7c-13.35-7.77-27.2-14.76-41.48-20.95c-1.12-0.48-2.23-0.98-3.36-1.44
				C605.15,191.96,553.38,181.5,500,181.5h-0.08c-53.34,0.01-105.1,10.46-153.83,31.07c-1.13,0.49-2.28,0.98-3.41,1.47
				c-34.01,14.76-65.51,34.05-93.98,57.55c-4.88,4.02-9.68,8.18-14.39,12.47c-1.81,1.63-3.59,3.29-5.36,4.96
				c-2.89,2.72-5.73,5.48-8.54,8.29c-0.72,0.72-1.43,1.43-2.15,2.16c-0.83,0.85-1.65,1.69-2.49,2.55
				c-3.45,3.57-6.83,7.2-10.14,10.88c-1.55,1.7-3.07,3.44-4.58,5.17c-4.09,4.71-8.04,9.5-11.89,14.38
				c-5.4,6.86-10.58,13.88-15.5,21.07c-6.68,9.72-12.9,19.74-18.67,30.03c-3.62,6.47-7.07,13.04-10.32,19.71
				c-1.82,3.72-3.59,7.47-5.28,11.26c-1.28,2.81-2.51,5.63-3.71,8.47c-7.22,17.09-13.19,34.52-17.91,52.28
				c-1.69,6.35-3.23,12.75-4.58,19.18c-5.71,26.9-8.59,54.44-8.59,82.43c0,29.55,3.2,58.62,9.58,86.95
				c1.43,6.43,3.03,12.82,4.81,19.17c4.5,16.21,10.07,32.17,16.68,47.8c3.96,9.36,8.25,18.5,12.88,27.47
				c1.85,3.6,3.76,7.18,5.74,10.72c3.45,6.22,7.08,12.34,10.87,18.35c0.61,0.98,1.22,1.95,1.85,2.91
				c9.73,15.19,20.52,29.68,32.32,43.45c5.43,6.35,11.07,12.54,16.94,18.58c1.37,1.41,2.73,2.8,4.12,4.19
				c3.51,3.51,7.08,6.95,10.7,10.31c2.68,2.49,5.39,4.94,8.13,7.35c4.81,4.24,9.73,8.34,14.73,12.32
				c7.89,6.3,16.01,12.26,24.33,17.91c21.25,14.43,43.9,26.74,67.78,36.85c22.85,9.67,46.38,17.1,70.41,22.26
				c7.23,1.55,14.52,2.9,21.85,4.05c2.91,0.46,5.84,0.88,8.77,1.26c4.94,0.68,9.9,1.24,14.87,1.7c11.95,1.15,24,1.73,36.14,1.78
				c0.62,0.01,1.25,0.01,1.87,0.01c5.82,0,11.61-0.13,17.37-0.38c12.06-0.51,24.03-1.57,35.89-3.16c4.93-0.66,9.84-1.42,14.72-2.26
				c1.93-0.33,3.85-0.68,5.78-1.05c7.22-1.35,14.39-2.92,21.51-4.67c19.96-4.94,39.53-11.46,58.63-19.54
				c38.7-16.37,74.16-38.54,105.73-66.09c5.17-4.5,10.23-9.16,15.19-13.95c1.44-1.41,2.89-2.81,4.31-4.23l0.47-0.47
				c3.6-3.6,7.12-7.26,10.57-10.98c0.49-0.53,0.99-1.07,1.47-1.6c3.51-3.81,6.94-7.69,10.27-11.63c1.03-1.21,2.04-2.42,3.04-3.63
				c4.11-4.97,8.11-10.03,11.96-15.19c5.02-6.71,9.82-13.59,14.39-20.6c5.73-8.76,11.1-17.75,16.11-26.96
				c6.18-11.37,11.83-23.07,16.92-35.08c20.62-48.76,31.07-100.54,31.07-153.91C895.39,523.52,884.94,471.74,864.31,422.99z
				 M853.72,670.73c-1.08,4.13-2.25,8.21-3.49,12.27c-12.82,42.23-33.06,81.24-59.23,115.5c-3.92,5.14-7.96,10.16-12.15,15.07
				c-5.75,6.79-11.78,13.36-18.02,19.71c-6.68,6.79-13.62,13.34-20.82,19.6c-12.02,10.49-24.75,20.18-38.07,29.04
				c-6.19,4.1-12.52,8.03-18.96,11.76c-5.87,3.41-11.85,6.66-17.93,9.75c-5.39,2.73-10.85,5.34-16.38,7.81
				c-17.24,7.69-35.17,14.09-53.69,19.06c-30.29,8.16-62.14,12.51-94.97,12.51c-28.17,0-55.62-3.2-81.98-9.26
				c-51.62-11.85-99.09-34.65-139.85-65.83c-4.59-3.5-9.1-7.12-13.51-10.84c-2.9-2.43-5.75-4.91-8.56-7.44
				c-3.47-3.1-6.88-6.27-10.23-9.5c-1.74-1.68-3.46-3.37-5.15-5.09c-3.29-3.29-6.51-6.66-9.67-10.08c-2.63-2.85-5.21-5.74-7.74-8.67
				c-3.83-4.41-7.55-8.93-11.15-13.52c-4.5-5.73-8.84-11.58-12.99-17.57c-2.73-3.94-5.4-7.94-7.98-11.98
				c-0.7-1.09-1.39-2.2-2.08-3.31c-8.43-13.56-16.02-27.7-22.65-42.36c-6.48-14.33-12.08-29.13-16.7-44.36
				c-1.93-6.31-3.67-12.71-5.26-19.17c-6.82-27.87-10.44-57-10.44-86.95c0-28.34,3.24-55.93,9.36-82.43c1.5-6.47,3.16-12.86,5-19.18
				c13.36-46.18,35.6-88.62,64.74-125.36c5.23-6.6,10.7-13.01,16.36-19.23c5.5-6.02,11.19-11.87,17.07-17.52
				c6.75-6.51,13.77-12.75,21.02-18.72c11.32-9.32,23.2-17.98,35.59-25.91c5.82-3.73,11.75-7.3,17.79-10.7
				c5.53-3.12,11.15-6.09,16.85-8.93c5.41-2.68,10.89-5.23,16.46-7.65c5.84-2.55,11.76-4.94,17.76-7.2
				c26.82-10.06,55.13-17.03,84.49-20.52c14.25-1.7,28.74-2.56,43.45-2.56c14.42,0,28.65,0.83,42.64,2.47
				c29.69,3.46,58.31,10.48,85.4,20.64c36.2,13.57,69.71,32.71,99.46,56.4c4.92,3.92,9.75,7.95,14.46,12.11
				c1.94,1.7,3.85,3.44,5.74,5.19c3.64,3.34,7.22,6.78,10.72,10.28c0.99,0.98,1.96,1.97,2.93,2.95c3.49,3.54,6.88,7.16,10.2,10.84
				c1.7,1.89,3.4,3.8,5.06,5.73c4.07,4.7,8.03,9.5,11.85,14.4c5.27,6.73,10.31,13.65,15.08,20.75c6.74,9.98,13,20.31,18.75,30.96
				c3.02,5.61,5.89,11.3,8.63,17.07c2.1,4.41,4.1,8.86,6.01,13.36c5.66,13.32,10.57,27.05,14.64,41.13
				c1.65,5.7,3.18,11.46,4.54,17.28c6.42,27.08,9.81,55.32,9.81,84.33C865.93,609.31,861.68,640.78,853.72,670.73z M537.32,208.59
				c-3.03-2.9-5.48-5.6-7.35-7.78c-0.05-0.18-0.09-0.35-0.13-0.52c-1.48-1.67-2.94-3.37-4.33-5.13c0-0.01-0.01-0.03-0.01-0.03
				c-2.29-2.88-4.42-5.87-6.3-9.02c-1.44,0.92-2.93,1.76-4.49,2.47c-0.1,0.05-0.22,0.1-0.34,0.16c-0.03,0.01-0.05,0.04-0.08,0.04
				c-2.36,1.07-4.81,1.85-7.34,2.37c-0.17,0.04-0.34,0.06-0.49,0.09c-8.51,1.46-16.1-0.74-18.83-1.69c-0.2-0.08-0.38-0.13-0.52-0.2
				c-0.09-0.03-0.17-0.07-0.26-0.1c0,0,0,0-0.01,0c-0.14-0.05-0.25-0.08-0.26-0.1c-2.03-0.81-3.99-1.77-5.87-2.89
				c0,0-0.03,0.04-0.09,0.14c-0.05,0.09-0.14,0.23-0.26,0.43c-0.12,0.18-0.26,0.42-0.43,0.69c-0.09,0.13-0.2,0.27-0.29,0.44
				c-0.42,0.64-0.96,1.44-1.61,2.39c-0.35,0.48-0.73,1-1.13,1.56c-0.22,0.31-0.47,0.64-0.7,0.96c-0.6,0.81-1.26,1.67-1.98,2.59
				c-0.18,0.21-0.35,0.43-0.52,0.65c-0.26,0.34-0.53,0.66-0.81,0.99c-0.09,0.1-0.17,0.21-0.26,0.31c-0.79,0.96-1.63,1.93-2.46,2.86
				c0,0.01-0.01,0.03-0.01,0.05c-2.02,2.29-4.31,4.74-6.9,7.25c0.04-0.07,0.08-0.13,0.1-0.18c-2.19,2.12-4.45,4.18-6.81,6.13
				c14.25-1.7,28.74-2.56,43.45-2.56c14.42,0,28.65,0.83,42.64,2.47C540.7,211.78,538.93,210.15,537.32,208.59z M537.32,208.59
				c-3.03-2.9-5.48-5.6-7.35-7.78c-0.05-0.18-0.09-0.35-0.13-0.52c-1.48-1.67-2.94-3.37-4.33-5.13c0-0.01-0.01-0.03-0.01-0.03
				c-2.29-2.88-4.42-5.87-6.3-9.02c-1.44,0.92-2.93,1.76-4.49,2.47c-0.1,0.05-0.22,0.1-0.34,0.16c-0.03,0.01-0.05,0.04-0.08,0.04
				c-2.36,1.07-4.81,1.85-7.34,2.37c-0.17,0.04-0.34,0.06-0.49,0.09c-8.51,1.46-16.1-0.74-18.83-1.69c-0.2-0.08-0.38-0.13-0.52-0.2
				c-0.09-0.03-0.17-0.07-0.26-0.1c0,0,0,0-0.01,0c-0.14-0.05-0.25-0.08-0.26-0.1c-2.03-0.81-3.99-1.77-5.87-2.89
				c0,0-0.03,0.04-0.09,0.14c-0.05,0.09-0.14,0.23-0.26,0.43c-0.12,0.18-0.26,0.42-0.43,0.69c-0.09,0.13-0.2,0.27-0.29,0.44
				c-0.42,0.64-0.96,1.44-1.61,2.39c-0.35,0.48-0.73,1-1.13,1.56c-0.22,0.31-0.47,0.64-0.7,0.96c-0.6,0.81-1.26,1.67-1.98,2.59
				c-0.18,0.21-0.35,0.43-0.52,0.65c-0.26,0.34-0.53,0.66-0.81,0.99c-0.09,0.1-0.17,0.21-0.26,0.31c-0.79,0.96-1.63,1.93-2.46,2.86
				c0,0.01-0.01,0.03-0.01,0.05c-2.02,2.29-4.31,4.74-6.9,7.25c0.04-0.07,0.08-0.13,0.1-0.18c-2.19,2.12-4.45,4.18-6.81,6.13
				c14.25-1.7,28.74-2.56,43.45-2.56c14.42,0,28.65,0.83,42.64,2.47C540.7,211.78,538.93,210.15,537.32,208.59z M537.32,208.59
				c-3.03-2.9-5.48-5.6-7.35-7.78c-0.05-0.18-0.09-0.35-0.13-0.52c-1.48-1.67-2.94-3.37-4.33-5.13c0-0.01-0.01-0.03-0.01-0.03
				c-2.29-2.88-4.42-5.87-6.3-9.02c-1.44,0.92-2.93,1.76-4.49,2.47c-0.1,0.05-0.22,0.1-0.34,0.16c-0.03,0.01-0.05,0.04-0.08,0.04
				c-2.36,1.07-4.81,1.85-7.34,2.37c-0.17,0.04-0.34,0.06-0.49,0.09c-8.51,1.46-16.1-0.74-18.83-1.69c-0.2-0.08-0.38-0.13-0.52-0.2
				c-0.09-0.03-0.17-0.07-0.26-0.1c0,0,0,0-0.01,0c-0.14-0.05-0.25-0.08-0.26-0.1c-2.03-0.81-3.99-1.77-5.87-2.89
				c0,0-0.03,0.04-0.09,0.14c-0.05,0.09-0.14,0.23-0.26,0.43c-0.12,0.18-0.26,0.42-0.43,0.69c-0.09,0.13-0.2,0.27-0.29,0.44
				c-0.42,0.64-0.96,1.44-1.61,2.39c-0.35,0.48-0.73,1-1.13,1.56c-0.22,0.31-0.47,0.64-0.7,0.96c-0.6,0.81-1.26,1.67-1.98,2.59
				c-0.18,0.21-0.35,0.43-0.52,0.65c-0.26,0.34-0.53,0.66-0.81,0.99c-0.09,0.1-0.17,0.21-0.26,0.31c-0.79,0.96-1.63,1.93-2.46,2.86
				c0,0.01-0.01,0.03-0.01,0.05c-2.02,2.29-4.31,4.74-6.9,7.25c0.04-0.07,0.08-0.13,0.1-0.18c-2.19,2.12-4.45,4.18-6.81,6.13
				c14.25-1.7,28.74-2.56,43.45-2.56c14.42,0,28.65,0.83,42.64,2.47C540.7,211.78,538.93,210.15,537.32,208.59z M829.21,414.32
				c-0.38-1.38-0.91-2.76-1.05-4.16c-0.26-2.88-1.91-4.52-4.37-5.67c-0.51-0.23-1-0.49-1.48-0.78c3.02,5.61,5.89,11.3,8.63,17.07
				C830.35,418.61,829.78,416.47,829.21,414.32z M537.32,208.59c-3.03-2.9-5.48-5.6-7.35-7.78c-0.05-0.18-0.09-0.35-0.13-0.52
				c-1.48-1.67-2.94-3.37-4.33-5.13c0-0.01-0.01-0.03-0.01-0.03c-2.29-2.88-4.42-5.87-6.3-9.02c-1.44,0.92-2.93,1.76-4.49,2.47
				c-0.1,0.05-0.22,0.1-0.34,0.16c-0.03,0.01-0.05,0.04-0.08,0.04c-2.36,1.07-4.81,1.85-7.34,2.37c-0.17,0.04-0.34,0.06-0.49,0.09
				c-8.51,1.46-16.1-0.74-18.83-1.69c-0.2-0.08-0.38-0.13-0.52-0.2c-0.09-0.03-0.17-0.07-0.26-0.1c0,0,0,0-0.01,0
				c-0.14-0.05-0.25-0.08-0.26-0.1c-2.03-0.81-3.99-1.77-5.87-2.89c0,0-0.03,0.04-0.09,0.14c-0.05,0.09-0.14,0.23-0.26,0.43
				c-0.12,0.18-0.26,0.42-0.43,0.69c-0.09,0.13-0.2,0.27-0.29,0.44c-0.42,0.64-0.96,1.44-1.61,2.39c-0.35,0.48-0.73,1-1.13,1.56
				c-0.22,0.31-0.47,0.64-0.7,0.96c-0.6,0.81-1.26,1.67-1.98,2.59c-0.18,0.21-0.35,0.43-0.52,0.65c-0.26,0.34-0.53,0.66-0.81,0.99
				c-0.09,0.1-0.17,0.21-0.26,0.31c-0.79,0.96-1.63,1.93-2.46,2.86c0,0.01-0.01,0.03-0.01,0.05c-2.02,2.29-4.31,4.74-6.9,7.25
				c0.04-0.07,0.08-0.13,0.1-0.18c-2.19,2.12-4.45,4.18-6.81,6.13c14.25-1.7,28.74-2.56,43.45-2.56c14.42,0,28.65,0.83,42.64,2.47
				C540.7,211.78,538.93,210.15,537.32,208.59z M829.21,414.32c-0.38-1.38-0.91-2.76-1.05-4.16c-0.26-2.88-1.91-4.52-4.37-5.67
				c-0.51-0.23-1-0.49-1.48-0.78c3.02,5.61,5.89,11.3,8.63,17.07C830.35,418.61,829.78,416.47,829.21,414.32z"/>
		</g>
		<path class="st0" d="M689.35,95.41c-1.35-12.64-3.92-25.48-10.18-36.68c-7.53-13.47-19.86-25.14-35-29.33
			c-35.69-9.88-60.63,25.96-78.93,50.42c-5.4,7.18-11.02,14.14-17.14,20.73c-5.31,5.71-10.96,11.07-16.57,16.51
			c-0.08,0.08-0.17,0.17-0.26,0.25c-0.07,0.06-0.16,0.14-0.23,0.22c-1.12-0.78-2.29-1.48-3.5-2.08c-0.96-0.29-1.96-0.52-2.98-0.69
			c-1-0.17-2.04-0.27-3.07-0.31l-0.03-0.01h-0.2l-0.36,0.01c-2.19,0.04-4.27,0.27-6.19,0.66c-8.54,1.73-12.83,6.27-14.68,8.98
			c-0.39-0.44-0.81-0.9-1.22-1.33l-0.07-0.05c-3.83-3.86-8.13-5.73-8.76-5.99c-2.25-1.01-4.66-1.7-7.13-2.06
			c-1.13-0.16-2.29-0.23-3.44-0.23c-3.85,0-7.64,0.88-11,2.55c-9.2-9.1-18.48-17.97-26.65-28.08
			c-9.67-11.98-18.09-24.98-28.52-36.33c-10.14-11.02-22.88-21.37-37.98-24.13c-14.9-2.72-29.77,3.08-40.81,13.06
			c-10.87,9.82-18.36,23.34-21.16,37.7c-2.41,12.23-3.73,24.53-3.77,36.98c-0.04,28.13,6.25,57.13,20.94,81.34
			c3.53,5.82,7.59,11.44,12.22,16.51c4.45,4.91,9.43,9.29,14.94,12.9c4.55,2.98,9.4,5.35,14.44,7.12
			c26.82-10.06,55.13-17.03,84.49-20.52c2.36-1.95,4.62-4.01,6.81-6.13c-0.03,0.05-0.07,0.12-0.1,0.18c2.59-2.51,4.88-4.96,6.9-7.25
			c0-0.03,0.01-0.04,0.01-0.05c0.83-0.94,1.67-1.9,2.46-2.86c0.09-0.1,0.17-0.21,0.26-0.31c0.27-0.33,0.55-0.65,0.81-0.99
			c0.17-0.22,0.34-0.44,0.52-0.65c0.72-0.92,1.38-1.78,1.98-2.59c0.23-0.33,0.48-0.65,0.7-0.96c0.4-0.56,0.78-1.08,1.13-1.56
			c0.65-0.95,1.2-1.76,1.61-2.39c0.09-0.17,0.2-0.31,0.29-0.44c0.17-0.27,0.31-0.51,0.43-0.69c0.12-0.2,0.21-0.34,0.26-0.43
			c0.07-0.1,0.09-0.14,0.09-0.14c1.87,1.12,3.84,2.08,5.87,2.89c0.01,0.03,0.12,0.05,0.26,0.1c0.01,0,0.01,0,0.01,0
			c0.09,0.04,0.17,0.08,0.26,0.1c0.14,0.07,0.33,0.12,0.52,0.2c2.73,0.95,10.32,3.15,18.83,1.69c0.16-0.03,0.33-0.05,0.49-0.09
			c2.52-0.52,4.98-1.3,7.34-2.37c0.03,0,0.05-0.03,0.08-0.04c0.12-0.05,0.23-0.1,0.34-0.16c1.56-0.72,3.04-1.55,4.49-2.47
			c1.87,3.15,4.01,6.14,6.3,9.02c0,0,0.01,0.01,0.01,0.03c1.39,1.76,2.85,3.46,4.33,5.13c0.04,0.17,0.08,0.34,0.13,0.52
			c1.87,2.19,4.32,4.88,7.35,7.78c1.61,1.56,3.38,3.19,5.32,4.85c29.69,3.46,58.31,10.48,85.4,20.64c0.2-0.07,0.39-0.13,0.57-0.2
			c11.07-4.07,20.78-11.1,28.64-19.87c0.35-0.39,0.7-0.79,1.05-1.2c16.14-18.73,25.67-42.26,29.66-66.53
			C690.73,129.49,691.22,112.34,689.35,95.41z M578.31,103.24c6.43-6.65,12.02-13.91,17.74-21.2c5.3-6.75,11.29-14.53,19.22-18.32
			c3.75-1.78,7.68-1.87,11.11,0.69c3.16,2.34,5.27,5.7,6.44,9.45c2.69,8.52,0.92,18.48-2.36,26.58
			c-6.39,15.85-20.14,28.39-35.49,35.43c-9,4.14-18.74,6.39-28.64,6.87c-7.18,0.33-14.22-0.39-21.3-1.33c0.27-3.19-0.05-6.36-1-9.41
			c-0.23-0.78-0.51-1.54-0.82-2.28C556.51,123.57,568.24,113.69,578.31,103.24z M366.1,79.43c0.66-7.29,5.47-18.17,14.5-17.01
			c3.96,0.49,7.57,3.1,10.54,5.62c3.45,2.94,6.48,6.29,9.37,9.73c5.95,7.12,11.29,14.7,17.54,21.59
			c6.68,7.35,13.98,14.17,21.97,20.09c5.21,3.85,10.76,7.5,16.66,10.24c-1.54,3.72-2.21,7.78-1.91,11.74
			c-6.15,0.82-12.27,1.5-18.48,1.39c-8.73-0.16-17.46-1.64-25.66-4.63c-16.08-5.89-30.71-17.48-38.76-32.74
			C367.71,97.58,365.27,88.35,366.1,79.43z M499.95,181.52c-0.01,0-0.01-0.01-0.03-0.03c-0.13-0.25-0.29-0.48-0.43-0.72l-0.22-0.38
			c-0.72-1.2-1.57-2.38-2.6-3.63c-2.13-2.58-4.7-5.05-8.07-7.76c-1.93-1.56-3.94-3.05-5.89-4.49c-4.23-3.15-8.6-6.39-12.11-10.31
			c-1.34-1.5-2.72-3.29-3.86-5.31c-2.16-3.79-3.54-8.41-2.34-13.42c1.57-6.7,7.2-11.92,13.98-12.96c0.92-0.14,1.87-0.22,2.82-0.22
			c3.02,0,6.08,0.68,8.86,1.96c1.63,0.74,3.24,1.72,4.94,2.97c0.79,0.57,1.57,1.25,2.15,1.77c0.04,0.03,0.09,0.06,0.16,0.14
			c0.77,0.74,1.52,1.41,2.45,1.41c0.09,0,0.16,0,0.23-0.01h0.12c0.33,0,0.64-0.09,0.91-0.22c0.43-0.2,0.77-0.49,1-0.69l0.04-0.03
			c0.59-0.46,1.15-0.94,1.7-1.41c0.7-0.59,1.38-1.13,2.07-1.64c1.42-1,2.86-1.82,4.35-2.46c2.71-1.17,5.66-1.8,8.54-1.8
			c0.4,0,0.81,0.01,1.18,0.04c3.68,0.23,7.09,1.63,9.81,3.86c0.22,0.3,0.44,0.6,0.62,0.91c3.64,5.58,4.09,12.91,3.23,19.35
			c-0.12,0.81-0.26,1.63-0.43,2.42c-0.85,1.52-1.77,2.84-2.59,3.84c-3.7,4.62-8.61,8.26-13.36,11.79c-1.2,0.87-2.42,1.78-3.62,2.71
			c-2.69,2.06-6.19,4.87-9.25,8.28c-1.33,1.5-3.04,3.57-4.33,5.99C499.95,181.51,499.95,181.52,499.95,181.52z"/>
	</g>
	<path class="st0" d="M851.65,732.11c-2.17-2.13-4.83-2.62-7.66-1.67c-2.37,0.79-4.15,2.26-4.68,4.88c-0.3,0.47-0.51,0.96-0.4,1.55
		c-0.59,1.26-0.94,2.6-1.26,3.94c-0.31,1.34-0.59,2.69-0.99,4.01c-1.13,4.29-2.26,8.6-3.4,12.91c-0.03,0.12-0.05,0.23-0.09,0.35
		c-0.91,3.27-1.81,6.51-2.71,9.77c-0.22,0.91-0.44,1.82-0.66,2.75c-0.12,0.29-0.31,0.57-0.34,0.86c-0.43,4.09-2.3,7.05-6.3,8.47
		c-0.65,0.22-1.25,0.61-1.83,0.95c-10.08,5.86-20.16,11.71-30.32,17.62c-0.85,0.49-1.7,0.99-2.55,1.48c0.01-0.3-0.03-0.49,0.05-0.62
		c5.47-9.49,10.97-18.97,16.43-28.46c2.33-4.03,4.78-8,6.87-12.15c1.73-3.44,0.01-7.83-3.34-9.56c-3.79-1.94-8.11-0.79-10.19,2.78
		c-6.77,11.7-13.51,23.44-20.27,35.16c-0.94,1.63-1.94,3.23-2.9,4.84c-0.3-14.94-0.29-29.72-0.31-44.5c0-0.79,0.3-1.28,0.82-1.8
		c7.48-7.47,14.96-14.94,22.42-22.43c2.25-2.25,4.5-4.5,6.74-6.75c3.4-3.42,3.58-8.15,0.52-11.11c-3.36-3.28-7.91-3.07-11.43,0.47
		c-1.63,1.64-3.28,3.28-4.91,4.91c-1.98,1.96-3.96,3.96-5.93,5.93c-2.62,2.67-5.21,5.36-7.81,8.04c-0.4-6.9-0.4-13.52-0.42-20.14
		c0-0.55,0.27-0.88,0.65-1.26c1.86-1.85,3.71-3.68,5.56-5.53c3.77-3.77,7.53-7.55,11.32-11.29c3.28-3.25,3.46-8.05,0.31-11.14
		c-0.56-0.57-1.2-1.02-1.86-1.37c-1.85-0.96-3.96-1.12-5.91-0.46c-1.17,0.39-2.28,1.08-3.24,2.04c-2.71,2.72-5.43,5.41-8.15,8.13
		c-1.74,1.74-3.49,3.5-5.21,5.27c-0.9,0.91-1.39,0.85-2.2-0.05c-1.21-1.35-2.55-2.59-3.83-3.89c-3.11-3.1-6.17-6.21-9.3-9.27
		l-0.23-0.23c-3.31-3.23-8.12-3.2-11.14-0.01c-2.98,3.12-2.76,7.73,0.51,10.98l4.14,4.14c4.2,4.2,8.39,8.39,12.61,12.56
		c0.66,0.66,0.81,1.33,0.81,2.19c-0.03,5.75-0.01,11.52-0.03,17.25c0,0.65,0.2,1.34-0.23,2.13c-1.95-1.98-3.8-3.88-5.66-5.74
		c-4.74-4.71-9.38-9.5-14.25-14.07c-0.29-0.26-0.57-0.49-0.87-0.7c-3.04-2.08-7.16-1.48-9.64,1.28c-2.76,3.08-2.64,7.68,0.27,10.61
		c0.29,0.27,0.56,0.56,0.83,0.83c9.45,9.46,18.87,18.93,28.34,28.34c0.88,0.88,1.25,1.72,1.25,2.94
		c-0.04,13.85-0.03,27.68-0.03,41.52v2.17c-2.55-3.72-4.72-7.53-6.91-11.32c-5.58-9.64-11.14-19.31-16.79-28.93
		c-1.5-2.56-4.02-3.64-6.91-3.44c-2.8,0.2-4.94,1.6-6.25,4.23c-1.7,3.42-0.36,6.31,1.34,9.23c6.17,10.62,12.31,21.25,18.45,31.88
		c1.11,1.91,2.2,3.84,3.31,5.76c-1.83-0.57-3.33-1.43-4.83-2.29c-11.14-6.42-22.26-12.84-33.39-19.26
		c-0.82-0.46-1.25-1.03-1.54-1.98c-1.86-6.14-2.98-12.49-5.24-18.52c0.01,0,0.03,0,0.03,0c-0.09-0.62-0.13-1.25-0.29-1.86
		c-0.42-1.59-0.85-3.17-1.26-4.78c-0.29-1.05-0.57-2.12-0.86-3.18c0,0,0,0,0.01,0c-0.2-0.65-0.38-1.29-0.56-1.94v-0.01
		c-0.01-0.12-0.04-0.23-0.1-0.38c-0.79-3.03-1.61-6.06-2.38-9.1c-1.01-4.16-5.01-6.84-8.91-5.96c-4.46,1-7.03,4.92-5.92,9.37
		c1.48,5.97,3.15,11.89,4.72,17.83c0.25,0.75,0.48,1.52,0.73,2.28c0.04,0.51,0.13,1.02,0.25,1.51c0.1,0.52,0.26,1.04,0.42,1.55
		c0.3,1,0.64,1.99,0.87,3.01c-0.12,0.23-0.23,0.31-0.35,0.31c-0.27,0-0.57-0.42-0.85-0.26c-0.42-0.43-0.92-0.69-1.44-0.92
		c-0.52-0.23-1.05-0.44-1.54-0.75c-0.14-0.21-0.3-0.39-0.47-0.52c-0.43-0.36-0.96-0.59-1.48-0.79c-3.6-2.08-7.18-4.19-10.8-6.22
		c-0.77-0.44-1.16-0.91-1.39-1.83c-0.81-3.15-1.64-6.31-2.47-9.46c-0.03-0.14-0.08-0.29-0.1-0.43c-1.16-4.36-2.33-8.71-3.53-13.05
		c-1.18-4.29-5.22-6.69-9.12-5.6c-4.59,1.29-6.79,5.11-5.57,9.73c1.46,5.57,2.95,11.13,4.41,16.68c0.05,0.21,0.1,0.42,0.16,0.62
		c0.64,2.42,0.59,2.38-1.94,3.05c-5.76,1.5-11.54,2.99-17.29,4.61c-4.44,1.25-6.61,5.23-5.41,9.55c1.13,4.03,5.07,6.27,9.34,5.17
		c3.77-0.98,7.55-1.94,11.31-2.94c2.98-0.79,5.95-1.6,8.91-2.47c2.69-0.79,4.88-0.83,7.39,0.81c0.95,0.62,1.93,1.24,2.9,1.82
		c3.8,2.32,7.77,4.46,11.82,6.82c-6.02,1.6-11.76,3.12-17.5,4.66c-3.28,0.89-6.6,1.64-9.8,2.73c-3.73,1.28-5.84,5.37-4.87,8.94
		c1.05,3.88,4.63,6.32,8.59,5.73c1.67-0.25,3.31-0.77,4.94-1.21c12.08-3.24,24.14-6.49,36.21-9.75c0.69-0.2,1.26-0.26,1.95,0.14
		c12.53,7.26,25.08,14.48,37.62,21.72c0.31,0.18,0.94,0.2,0.77,0.91h-3.21c-14.35,0-28.69-0.01-43.03,0.01
		c-4.87,0-8.38,4.58-7.25,9.32c0.87,3.58,3.72,5.83,7.59,5.83c14.67,0.03,29.33,0.01,43.98,0.01h2.37
		c-0.56,0.46-0.73,0.62-0.92,0.74c-12.61,7.26-25.22,14.51-37.8,21.8c-0.74,0.43-1.38,0.4-2.13,0.2
		c-13.36-3.57-26.74-7.1-40.1-10.68c-4.14-1.12-8.09,0.95-9.4,4.98c-1.38,4.22,0.91,8.33,5.63,9.75c4.37,1.3,8.84,2.37,13.25,3.55
		c4.28,1.14,8.58,2.3,13.1,3.54c-5.53,3.19-10.85,6.18-16.08,9.33c-1.41,0.85-2.63,1.04-4.22,0.6c-7.44-2.08-14.91-4.06-22.38-6.04
		c-2.65-0.7-5.04,0.03-6.96,1.9c-4.45,4.35-2.43,11.35,3.73,13.01c5.95,1.61,11.91,3.16,17.87,4.68c1.28,0.33,1.7,0.68,1.29,2.13
		c-1.69,5.99-3.24,12.02-4.81,18.04c-0.47,1.82-0.4,3.57,0.14,5.09c0.78,2.23,2.55,3.93,5.01,4.59c4.32,1.16,8.37-1.2,9.58-5.69
		c0.61-2.24,1.21-4.48,1.8-6.71c1.41-5.23,2.77-10.48,4.12-15.72c0.27-1.03,0.69-1.72,1.69-2.26c2.76-1.48,5.44-3.15,8.16-4.72
		c2.78-1.6,5.58-3.16,8.68-4.92c-0.64,2.52-1.16,4.58-1.67,6.64c-0.4,1.51-0.81,3.02-1.2,4.53c-0.79,1.83-1.09,3.79-1.44,5.74
		c-0.16,0.33-0.29,0.65-0.42,0.98c-0.27,0.72-0.49,1.46-0.68,2.21c-0.27,1.08-0.48,2.19-0.74,3.28c-0.68,1.22-0.82,2.6-1.08,3.93
		c-0.61,3.05,1.09,6.53,3.75,8.03c2.55,1.43,5.73,1.17,7.89-0.64c0.73-0.05,1.2-0.51,1.6-1.07c0.83-0.89,1.41-1.91,1.69-3.08
		c0.69-2.76,1.35-5.54,2.02-8.31c1.55-4.48,2.5-9.12,3.79-13.68c0.23-0.81,0.49-1.61,0.73-2.43c0.38-1.28,0.72-2.58,0.88-3.9
		c0.33-1.07,0.65-2.11,0.98-3.15c0.7-2.62,1.57-5.19,2.06-7.85c0.33-1.81,1.43-2.65,2.8-3.45c10.31-5.95,20.62-11.89,30.93-17.83
		c2.13-1.24,4.31-2.41,6.83-3.83c-0.68,1.12-1.11,1.81-1.51,2.51c-1.64,2.81-3.27,5.62-4.89,8.44c-3.01,5.19-6.01,10.38-9,15.58
		c-2.73,4.74-5.58,9.43-8.13,14.27c-2.03,3.84-0.6,8.18,2.99,10.08c3.94,2.09,8.16,0.9,10.41-3.01
		c6.78-11.71,13.52-23.46,20.34-35.16c0.88-1.51,1.47-3.25,3.02-4.71v25.18c5.17-4.5,10.23-9.16,15.19-13.95
		c-0.01-3.23,0-6.47,0-9.69c0-0.43-0.3-1,0.36-1.38c1.31,2.28,2.63,4.57,3.94,6.84l0.47-0.47c3.6-3.6,7.12-7.26,10.57-10.98
		c-0.59-1.02-1.17-2.03-1.76-3.05c0.77-0.34,1.08,0.18,1.48,0.42c0.59,0.34,1.16,0.69,1.74,1.03c3.51-3.81,6.94-7.69,10.27-11.63
		c-1.89-1.09-3.76-2.2-5.63-3.29c0.03-0.1,0.05-0.21,0.08-0.34h8.6c4.11-4.97,8.11-10.03,11.96-15.19c-6.3,0.01-12.58,0-18.87,0
		c-0.57,0-1.21,0.25-1.87-0.33c3.34-1.91,6.56-3.73,9.77-5.6c8.47-4.89,16.92-9.77,25.36-14.68c5.73-8.76,11.1-17.75,16.11-26.96
		c-0.52,0.18-0.68-0.12-0.52-0.92c0.03-0.07,0.05-0.12,0.07-0.18c0,0,0,0,0-0.01c1.22-3.55,2.03-7.21,2.9-10.85
		c1.15-3.32,1.93-6.75,2.73-10.16c0.09-0.14,0.12-0.29,0.13-0.42c0.33-1.02,0.85-1.96,0.91-3.06c0.29-0.94,0.43-1.86,0.43-2.73
		C854.05,735.52,853.28,733.7,851.65,732.11z M767.3,834.81c-2.33,0.03-4.54-0.52-6.48-1.52c-4.42-2.26-7.46-6.84-7.48-12.15
		c-0.04-7.59,6.23-13.95,13.74-13.95c4.98-0.01,9.32,2.52,11.76,6.39c1.35,2.11,2.13,4.63,2.15,7.34
		C781.06,828.61,775.05,834.72,767.3,834.81z"/>
	<path class="st0" d="M386.79,849.88c-6.56,1.7-13.1,3.5-19.65,5.23c-0.85,0.23-1.67,0.69-2.56,0.16
		c-5.1-2.97-10.19-5.92-15.43-8.97c2.32-0.64,4.46-1.22,6.62-1.81c5.78-1.56,11.58-3.06,17.35-4.72c3.55-1.03,5.6-4.71,4.63-8.02
		c-1.09-3.84-4.61-6-8.28-5.02c-11.97,3.19-23.94,6.39-35.91,9.63c-0.81,0.21-1.44,0.16-2.2-0.27c-8.25-4.79-16.53-9.54-24.79-14.3
		c-3.08-1.78-6.15-3.59-9.24-5.39c0.03-0.09,0.05-0.2,0.08-0.3h1.77c13.03,0,26.04,0.03,39.05,0c4.16-0.01,7.22-3.03,7.14-6.9
		c-0.09-3.83-3.15-6.64-7.23-6.64c-13.08,0-26.16,0-39.22-0.01c-0.52,0-1.09,0.22-1.68-0.3c2.98-1.69,5.86-3.33,8.72-4.98
		c8.56-4.93,17.11-9.88,25.65-14.85c0.59-0.34,1.08-0.36,1.74-0.2c3.29,0.91,6.61,1.74,9.92,2.63c8.77,2.34,17.54,4.72,26.31,7.05
		c2.82,0.74,6.06-0.64,7.39-3.1c2.32-4.27,0.52-8.73-4.27-10.12c-5.11-1.5-10.28-2.77-15.42-4.15c-2.64-0.7-5.28-1.42-8.17-2.2
		c1.96-1.13,3.89-2.24,5.79-3.33c2.89-1.65,5.7-3.29,8.48-4.97c0.48-0.29,0.94-0.49,1.41-0.61c0.79-0.22,1.59-0.18,2.51,0.08
		c6.58,1.83,13.21,3.58,19.82,5.35c3.53,0.95,7.35-1.38,8.12-4.94c0.9-4.22-1.21-7.35-5.76-8.54c-5.04-1.33-10.07-2.68-15.13-3.93
		c-0.81-0.21-1.29-0.42-1.42-0.9c-0.12-0.31-0.08-0.73,0.09-1.31c1.6-5.49,3.07-11.02,4.41-16.56c0.09-0.36,0.16-0.72,0.17-1.08
		c0.33-4.42-4.02-8.05-8.51-6.84c-0.55,0.14-1.05,0.34-1.5,0.57c-2.15,1.12-3.16,3.19-3.79,5.6c-1.38,5.26-2.77,10.53-4.15,15.8
		c-0.33,1.24-0.65,2.47-0.98,3.72c-0.12,0.43-0.25,0.81-0.69,1.07c-0.31,0.18-0.64,0.36-0.95,0.56c-4.55,2.6-9.11,5.23-13.64,7.86
		c-0.83,0.49-1.09,0.33-0.91-0.6c0.01-0.05,0.04-0.1,0.05-0.16c0,0,0,0,0-0.01c1.08-3.18,1.81-6.43,2.59-9.68
		c1.02-2.97,1.72-6.02,2.43-9.07c0.08-0.12,0.1-0.25,0.12-0.36c0.29-0.9,0.75-1.76,0.81-2.73c0.26-0.83,0.39-1.65,0.39-2.43
		c0-1.8-0.69-3.42-2.13-4.84c-1.94-1.9-4.31-2.33-6.84-1.48c-2.11,0.7-3.7,2.03-4.18,4.36c-0.26,0.42-0.46,0.86-0.35,1.37
		c-0.52,1.13-0.85,2.32-1.13,3.51c-0.27,1.2-0.52,2.41-0.88,3.58c-1,3.84-2.02,7.68-3.02,11.53c-0.03,0.09-0.05,0.21-0.09,0.3
		c-0.81,2.91-1.61,5.8-2.41,8.72c-0.2,0.81-0.39,1.63-0.59,2.45c-0.12,0.26-0.29,0.51-0.31,0.77c-0.39,3.64-2.06,6.29-5.62,7.56
		c-0.57,0.2-1.11,0.53-1.64,0.85c-9.73,5.66-19.48,11.31-29.3,17.03c0.01-0.26-0.03-0.44,0.04-0.56
		c4.89-8.46,9.79-16.92,14.67-25.37c2.07-3.59,4.26-7.14,6.13-10.84c1.54-3.07,0.01-7-2.98-8.54c-3.38-1.73-7.23-0.7-9.08,2.49
		c-6.04,10.44-12.05,20.9-18.09,31.35c-0.83,1.46-1.73,2.89-2.59,4.33c-0.26-13.32-0.26-26.51-0.29-39.7c0-0.7,0.27-1.13,0.74-1.6
		c6.68-6.66,13.35-13.32,19.99-20c2.02-2,4.02-4.01,6.01-6.02c3.03-3.05,3.19-7.26,0.47-9.9c-2.99-2.93-7.05-2.75-10.19,0.42
		l-4.37,4.37c-1.77,1.76-3.54,3.51-5.28,5.3c-2.36,2.37-4.66,4.78-6.97,7.17c-0.36-6.15-0.36-12.06-0.36-17.97
		c0-0.49,0.23-0.79,0.57-1.13c1.65-1.64,3.31-3.28,4.96-4.93c3.36-3.36,6.71-6.73,10.1-10.07c2.93-2.89,3.08-7.18,0.29-9.93
		c-0.52-0.51-1.08-0.91-1.67-1.22c-1.65-0.86-3.53-0.99-5.27-0.4c-1.04,0.35-2.03,0.96-2.89,1.82c-2.42,2.42-4.84,4.83-7.26,7.26
		c-1.56,1.55-3.11,3.12-4.65,4.68c-0.81,0.82-1.25,0.77-1.96-0.04c-1.08-1.21-2.28-2.32-3.41-3.46c-2.77-2.77-5.5-5.54-8.3-8.28
		c-0.07-0.07-0.14-0.13-0.21-0.2c-2.95-2.89-7.25-2.86-9.94-0.03c-2.65,2.8-2.45,6.91,0.47,9.81l3.68,3.68
		c3.75,3.75,7.48,7.48,11.24,11.2c0.6,0.59,0.73,1.18,0.73,1.95c-0.03,5.13-0.01,10.25-0.03,15.38c0,0.57,0.17,1.2-0.21,1.91
		c-1.74-1.78-3.4-3.46-5.06-5.13c-4.22-4.2-8.35-8.48-12.7-12.54c-0.25-0.23-0.51-0.44-0.78-0.62c-2.71-1.86-6.38-1.33-8.59,1.13
		c-2.46,2.75-2.37,6.84,0.25,9.46c0.25,0.25,0.49,0.49,0.74,0.74c8.42,8.45,16.81,16.88,25.27,25.27c0.79,0.79,1.12,1.54,1.11,2.63
		c-0.03,12.34-0.01,24.68-0.01,37.03v1.93c-2.28-3.32-4.22-6.7-6.17-10.08c-4.98-8.6-9.94-17.22-14.96-25.8
		c-1.34-2.28-3.59-3.24-6.17-3.06c-2.5,0.17-4.4,1.42-5.57,3.76c-1.52,3.06-0.33,5.63,1.2,8.24c5.5,9.46,10.97,18.96,16.46,28.43
		c0.98,1.7,1.95,3.42,2.94,5.14c-1.64-0.51-2.97-1.28-4.31-2.04c-9.93-5.73-19.86-11.45-29.79-17.16c-0.72-0.42-1.11-0.92-1.35-1.77
		c-1.67-5.48-2.67-11.14-4.68-16.51c0.01,0,0.01-0.01,0.01-0.01c-0.08-0.55-0.1-1.12-0.25-1.65c-0.38-1.42-0.74-2.84-1.12-4.26
		c-0.26-0.95-0.52-1.9-0.77-2.84c-0.17-0.59-0.33-1.16-0.48-1.73c-0.01-0.12-0.04-0.22-0.1-0.35c-0.7-2.69-1.44-5.4-2.12-8.11
		c-0.91-3.71-4.46-6.1-7.95-5.31c-3.98,0.9-6.26,4.39-5.27,8.35c1.31,5.32,2.8,10.59,4.2,15.9c0.22,0.66,0.43,1.34,0.65,2.03
		c0.04,0.46,0.12,0.9,0.22,1.34c0.1,0.47,0.23,0.92,0.36,1.38c0.27,0.9,0.57,1.77,0.78,2.68c-0.1,0.21-0.2,0.27-0.31,0.27
		c-0.25,0-0.51-0.36-0.74-0.22c-0.38-0.38-0.83-0.62-1.3-0.83c-0.47-0.21-0.94-0.39-1.37-0.66c-0.13-0.2-0.27-0.35-0.42-0.47
		c-0.39-0.33-0.86-0.52-1.33-0.72c-3.21-1.85-6.4-3.72-9.63-5.54c-0.69-0.39-1.03-0.82-1.24-1.63c-0.73-2.81-1.47-5.63-2.2-8.45
		c-0.04-0.13-0.08-0.25-0.1-0.38c-1.04-3.89-2.08-7.77-3.15-11.65c-1.05-3.83-4.65-5.96-8.13-4.98c-1.78,0.49-3.16,1.43-4.06,2.67
		c-1.16,1.59-1.52,3.68-0.91,6.01c1.31,4.97,2.64,9.92,3.94,14.87c0.04,0.18,0.09,0.38,0.14,0.56c0.56,2.16,0.52,2.12-1.73,2.71
		c-5.15,1.35-10.31,2.68-15.42,4.12c-1.72,0.47-3.04,1.41-3.92,2.63c1.85,3.6,3.76,7.18,5.74,10.72c0.55-0.01,1.12-0.09,1.68-0.23
		c3.37-0.87,6.73-1.73,10.08-2.62c2.65-0.72,5.3-1.44,7.94-2.21c2.41-0.7,4.36-0.74,6.6,0.72c0.86,0.56,1.72,1.11,2.59,1.63
		c1.93,1.18,3.9,2.3,5.92,3.45c1.52,0.86,3.06,1.73,4.62,2.63c-0.85,0.22-1.69,0.46-2.54,0.68c-4.46,1.18-8.77,2.33-13.08,3.49
		c-2.91,0.79-5.88,1.46-8.73,2.43c-3.33,1.13-5.21,4.8-4.35,7.98c0.04,0.14,0.08,0.27,0.13,0.42c0.61,0.98,1.22,1.95,1.85,2.91
		c1.47,1.39,3.51,2.09,5.69,1.77c1.48-0.22,2.94-0.68,4.41-1.08c7.35-1.98,14.7-3.96,22.06-5.93c3.41-0.92,6.82-1.83,10.24-2.76
		c0.61-0.17,1.12-0.23,1.74,0.13c11.18,6.47,22.36,12.91,33.55,19.36c0.27,0.17,0.83,0.18,0.68,0.82h-2.86
		c-10.11,0-20.23-0.01-30.36,0.01c-2.67-0.01-5.35,0-8.03,0c-4.32,0-7.46,4.09-6.45,8.3c0.78,3.19,3.32,5.21,6.77,5.21
		c6.29,0.01,12.57,0.01,18.87,0.01h22.46c-0.49,0.4-0.64,0.55-0.82,0.66c-4.63,2.67-9.26,5.33-13.9,8
		c-6.61,3.8-13.22,7.61-19.82,11.43c-0.66,0.39-1.22,0.36-1.9,0.18c-3.33-0.88-6.66-1.78-9.99-2.67
		c5.43,6.35,11.07,12.54,16.94,18.58c0.16-0.64,0.3-1.29,0.42-1.94c0.29-1.63,1.28-2.37,2.5-3.08c7.17-4.14,14.35-8.28,21.52-12.41
		c2.02-1.16,4.03-2.33,6.05-3.49c1.91-1.09,3.84-2.13,6.1-3.4c-0.61,0.99-0.99,1.6-1.35,2.23c-1.89,3.25-3.76,6.49-5.65,9.75
		c-2.25,3.89-4.5,7.78-6.75,11.67c-2.43,4.23-4.97,8.42-7.25,12.74c-0.42,0.81-0.68,1.63-0.77,2.43c2.68,2.49,5.39,4.94,8.13,7.35
		c1.83-0.36,3.49-1.55,4.59-3.47c4.1-7.07,8.17-14.16,12.27-21.22c1.95-3.38,3.9-6.75,5.87-10.12c0.79-1.35,1.31-2.91,2.69-4.22
		v21.78c0,6.09,0,12.15,0.01,18.22c0,0.66-0.38,1.02-0.77,1.41c-3.32,3.32-6.62,6.64-9.94,9.95c7.89,6.3,16.01,12.26,24.33,17.91
		c0.08-2.99-0.1-6.06-0.1-9.25c0.39,0.34,0.56,0.46,0.7,0.61c5.52,5.53,11.05,11.07,16.58,16.6c2.91,2.91,7.03,2.94,9.95,0.1
		c2.43-2.37,2.51-6.9,0.08-9.34c-8.73-8.77-17.49-17.53-26.27-26.26c-0.75-0.74-1.08-1.44-1.08-2.49c0.01-2.21,0.01-4.41,0.01-6.62
		c0.03-10.41,0.01-20.83,0.04-31.26c0-0.38-0.27-0.88,0.33-1.21c6.38,11.06,12.73,22.11,19.1,33.14c1.13,1.98,2.04,4.18,4.36,5.17
		c2.94,1.26,6.02,0.62,8.15-1.69c1.93-2.08,2.12-5.4,0.44-8.33c-4.57-7.92-9.16-15.85-13.74-23.77c-2.17-3.77-4.33-7.55-6.52-11.35
		c0.68-0.31,0.95,0.16,1.31,0.38c2.9,1.69,5.79,3.44,8.72,5.13c8.07,4.66,16.15,9.3,24.24,13.95c0.55,0.31,1.04,0.6,1.22,1.3
		c1.72,6.56,3.46,13.1,5.19,19.66c0.21,0.59,0.12,1.25,0.57,1.74c0.6,2.36,1.2,4.71,1.81,7.07c0.26,0.91,0.53,1.83,0.79,2.76
		c0,0,0,0,0,0.01c0.01,0.1,0.05,0.21,0.1,0.34c0.39,1.56,0.79,3.14,1.21,4.68c0.91,3.4,4.23,5.54,7.56,4.94
		c3.71-0.66,6.4-3.89,5.71-7.44c-0.91-4.63-2.21-9.21-3.67-13.73c-0.1-1.12-0.36-2.2-0.69-3.27c-0.31-1.05-0.68-2.11-0.98-3.19
		v-0.08c0-0.7-0.29-1.34-0.61-1.96c-0.12-0.78-0.25-1.56-0.36-2.34c1.68,0.9,3.37,1.8,5.06,2.71c1.21,0.7,2.43,1.41,3.63,2.11
		c0,0,0,0,0,0.01c1.37,0.77,2.68,1.64,4.09,2.3c2.32,1.08,3.88,2.62,4.12,5.32c0.12,1.33,0.64,2.63,0.99,3.92
		c1.31,4.87,2.55,9.77,3.99,14.6c1.11,3.71,4.74,5.56,8.38,4.5c3.58-1.03,5.56-4.63,4.57-8.35c-1.41-5.37-2.77-10.75-4.31-16.07
		c-0.43-1.5-0.07-1.87,1.33-2.21c5.15-1.28,10.29-2.71,15.43-4.05c2.63-0.69,4.65-2.1,5.41-4.78
		C396.69,853.06,392.16,848.46,386.79,849.88z M271.5,821.6c-6.82,0.09-12.4-5.37-12.44-12.19c-0.04-6.77,5.56-12.44,12.26-12.44
		c6.87-0.01,12.35,5.4,12.4,12.25C283.77,816.08,278.42,821.52,271.5,821.6z"/>
	<path class="st0" d="M842.63,408.65c-0.44-1.57-0.07-1.98,1.41-2.34c3.79-0.94,7.56-1.95,11.32-2.97
		c-2.16-4.44-4.41-8.82-6.74-13.16c-4.07,1.09-8.13,2.19-12.21,3.27c-0.9,0.23-1.77,0.73-2.73,0.16c-5.41-3.15-10.81-6.28-16.4-9.54
		c2.46-0.66,4.75-1.29,7.04-1.91c5.73-1.54,11.48-3.03,17.19-4.66c-2.51-4.33-5.13-8.61-7.82-12.83
		c-10.06,2.67-20.1,5.37-30.15,8.08c-0.94,0.25-1.89,0.51-2.82,0.75c-0.86,0.23-1.55,0.18-2.34-0.29
		c-8.77-5.09-17.57-10.14-26.35-15.2c-3.28-1.89-6.55-3.81-9.82-5.71c0.04-0.12,0.05-0.21,0.08-0.33h1.9
		c8.09,0,16.19,0.01,24.28,0.01c5.75,0,11.48-0.01,17.23-0.03c4.41,0,7.66-3.2,7.57-7.31c-0.09-4.07-3.33-7.05-7.68-7.05
		c-9.66,0-19.32,0-28.98-0.01c-4.24,0-8.48,0-12.71-0.01c-0.55,0-1.16,0.23-1.78-0.31c3.16-1.8,6.22-3.54,9.26-5.3
		c0.05-0.03,0.12-0.07,0.17-0.1c8.74-5.04,17.46-10.08,26.19-15.16c-3.24-3.7-6.56-7.34-9.94-10.93c-0.03,0.01-0.07,0.03-0.09,0.04
		c-0.61,0.22-1.18,0.59-1.74,0.91c-8.2,4.75-16.38,9.51-24.62,14.3c-2.17,1.26-4.36,2.52-6.55,3.8c0.03-0.27-0.01-0.47,0.05-0.59
		c1.18-2.06,2.37-4.11,3.57-6.17c4.01-6.94,8.03-13.87,12.02-20.81c1.09-1.9,2.21-3.77,3.31-5.67c-3.58-3.42-7.21-6.79-10.89-10.07
		c-5.06,8.76-10.1,17.51-15.16,26.27c-0.92,1.61-1.85,3.23-2.78,4.84c-0.88,1.55-1.83,3.07-2.76,4.59c-0.1-4.89-0.16-9.76-0.2-14.63
		c-0.09-9.21-0.09-18.39-0.1-27.56c0-0.74,0.29-1.21,0.79-1.7c1.61-1.61,3.23-3.23,4.84-4.83c-6.56-5.28-13.27-10.34-20.14-15.17
		c-0.01,0.07-0.05,0.14-0.09,0.21c-0.29-0.29-0.57-0.59-0.85-0.87c-8.97-6.29-18.19-12.18-27.66-17.7
		c-0.12,0.09-0.22,0.21-0.33,0.33c-2.62,2.91-2.51,7.27,0.26,10.05c0.26,0.27,0.53,0.53,0.79,0.81
		c8.94,8.97,17.88,17.93,26.86,26.86c0.85,0.85,1.18,1.63,1.18,2.78c-0.01,4.89-0.03,9.79-0.01,14.69
		c-0.01,8.22-0.01,16.45-0.01,24.67v2.06c-2.42-3.53-4.48-7.13-6.55-10.72c-5.3-9.15-10.57-18.31-15.91-27.43
		c-1.43-2.42-3.81-3.45-6.55-3.25c-2.65,0.18-4.68,1.51-5.93,4.01c-1.61,3.24-0.34,5.99,1.28,8.74
		c5.86,10.06,11.67,20.14,17.5,30.23c1.04,1.81,2.08,3.63,3.12,5.45c-1.74-0.53-3.16-1.35-4.57-2.16
		c-10.57-6.08-21.11-12.18-31.66-18.26c-0.77-0.43-1.18-0.98-1.46-1.87c-1.76-5.83-2.82-11.84-4.96-17.55l0.01-0.01
		c-0.09-0.59-0.13-1.18-0.27-1.74c-0.39-1.52-0.79-3.02-1.2-4.53c-0.27-1.01-0.53-2.02-0.81-3.02c-0.17-0.62-0.35-1.22-0.52-1.83
		v-0.01c-0.01-0.12-0.04-0.22-0.1-0.36c-0.75-2.86-1.52-5.74-2.25-8.63c-0.96-3.93-4.75-6.48-8.46-5.63
		c-4.23,0.95-6.65,4.66-5.61,8.89c1.41,5.65,2.98,11.26,4.48,16.89c0.23,0.72,0.47,1.43,0.69,2.16c0.04,0.48,0.13,0.96,0.23,1.43
		c0.1,0.49,0.25,0.98,0.39,1.46c0.29,0.95,0.61,1.89,0.83,2.85c-0.1,0.22-0.21,0.3-0.33,0.3c-0.27,0-0.55-0.39-0.81-0.23
		c-0.39-0.42-0.87-0.66-1.37-0.89c-0.49-0.22-1-0.43-1.46-0.72c-0.13-0.21-0.29-0.36-0.44-0.49c-0.42-0.35-0.92-0.55-1.42-0.75
		c-3.41-1.98-6.81-3.97-10.23-5.89c-0.73-0.42-1.09-0.87-1.31-1.73c-0.77-2.99-1.56-5.99-2.34-8.98c-0.04-0.13-0.08-0.27-0.1-0.4
		c-1.11-4.14-2.21-8.25-3.34-12.37c-1.13-4.06-4.94-6.34-8.64-5.3c-4.36,1.22-6.44,4.84-5.28,9.23c1.38,5.28,2.8,10.54,4.18,15.81
		c0.05,0.2,0.1,0.39,0.16,0.59c0.6,2.3,0.55,2.26-1.83,2.89c-5.48,1.43-10.96,2.84-16.4,4.37c-4.22,1.18-6.27,4.96-5.14,9.04
		c1.07,3.83,4.81,5.95,8.86,4.89c3.58-0.91,7.16-1.83,10.72-2.77c2.82-0.75,5.63-1.52,8.43-2.34c2.56-0.75,4.63-0.79,7.01,0.75
		c0.91,0.6,1.82,1.17,2.76,1.73c3.59,2.2,7.35,4.23,11.2,6.47c-5.73,1.51-11.16,2.95-16.6,4.42c-3.11,0.83-6.26,1.55-9.29,2.58
		c-3.54,1.21-5.53,5.1-4.61,8.47c1,3.68,4.39,6,8.15,5.44c1.57-0.23,3.12-0.73,4.68-1.15c11.44-3.08,22.89-6.15,34.33-9.25
		c0.65-0.18,1.18-0.25,1.86,0.14c11.87,6.87,23.76,13.72,35.65,20.59c0.3,0.17,0.88,0.18,0.73,0.86h-3.06
		c-13.6,0.01-27.2-0.01-40.79,0.01c-4.61,0.01-7.94,4.35-6.86,8.84c0.82,3.38,3.53,5.52,7.18,5.53c13.91,0.01,27.81,0.01,41.71,0.01
		h2.23c-0.52,0.42-0.68,0.59-0.86,0.7c-11.96,6.88-23.92,13.75-35.84,20.65c-0.72,0.42-1.31,0.39-2.03,0.2
		c-12.66-3.38-25.35-6.74-38.01-10.14c-3.93-1.05-7.68,0.9-8.91,4.74c-1.3,3.99,0.87,7.9,5.34,9.23c4.16,1.24,8.38,2.25,12.57,3.38
		c4.06,1.08,8.12,2.17,12.41,3.34c-5.23,3.02-10.28,5.87-15.24,8.85c-1.34,0.81-2.5,0.98-4.01,0.56
		c-7.05-1.96-14.13-3.85-21.21-5.71c-2.51-0.68-4.78,0.03-6.6,1.8c-4.23,4.11-2.3,10.75,3.54,12.34c5.63,1.54,11.29,3.01,16.94,4.44
		c1.2,0.31,1.6,0.65,1.22,2.03c-1.61,5.67-3.08,11.39-4.57,17.1c-1.12,4.27,0.95,8.11,4.88,9.17c4.09,1.11,7.92-1.13,9.08-5.39
		c1.91-7.08,3.79-14.17,5.62-21.26c0.25-0.99,0.64-1.64,1.59-2.15c2.63-1.42,5.15-2.99,7.74-4.49c2.63-1.51,5.28-2.99,8.22-4.66
		c-0.61,2.39-1.09,4.35-1.59,6.3c-0.38,1.42-0.75,2.85-1.13,4.28c-0.75,1.74-1.03,3.59-1.37,5.44c-0.47,0.98-0.78,1.99-1.03,3.02
		c-0.26,1.03-0.47,2.08-0.72,3.11c-0.62,1.16-0.77,2.47-1.03,3.73c-0.57,2.89,1.04,6.19,3.57,7.6c2.42,1.35,5.41,1.12,7.47-0.6
		c0.69-0.05,1.13-0.48,1.52-1.02c0.78-0.83,1.33-1.81,1.6-2.91c0.65-2.63,1.28-5.26,1.91-7.89c1.47-4.24,2.37-8.64,3.59-12.96
		c0.57-1.99,1.26-3.94,1.54-6.01c0.3-1,0.61-2,0.91-2.99c0.68-2.47,1.51-4.92,1.96-7.43c0.3-1.72,1.34-2.52,2.64-3.27
		c9.77-5.63,19.54-11.27,29.32-16.9c2.03-1.17,4.09-2.28,6.48-3.62c-0.64,1.05-1.04,1.7-1.43,2.37c-4.4,7.59-8.8,15.17-13.18,22.77
		c-2.59,4.49-5.28,8.94-7.7,13.53c-1.93,3.64-0.56,7.76,2.84,9.56c3.73,1.98,7.73,0.85,9.86-2.85c6.44-11.1,12.83-22.24,19.3-33.33
		c0.83-1.43,1.39-3.1,2.85-4.48c0,14.37-0.01,28.43,0.01,42.51c0,0.72-0.39,1.07-0.81,1.5l-27.76,27.79
		c-3.06,3.07-3.24,7.53-0.39,10.41c2.94,2.97,7.3,2.99,10.42-0.07c4.19-4.09,8.29-8.26,12.43-12.41c1.94-1.94,3.9-3.86,6.09-6.04
		c0,6.51-0.01,12.56,0.01,18.61c0.01,0.83-0.22,1.44-0.83,2.04c-5.4,5.32-10.77,10.67-16.12,16.04c-0.79,0.79-1.35,1.72-1.7,2.71
		c-0.92,2.56-0.39,5.52,1.59,7.5c2.86,2.88,7.46,2.97,10.33,0.12c2.56-2.52,5.1-5.06,7.63-7.61c1.68-1.69,3.36-3.38,5.01-5.1
		c0.99-1.02,1.51-1.03,2.49-0.04c1.68,1.72,3.36,3.44,5.06,5.14c2.46,2.5,4.96,5,7.44,7.47c3.02,3.01,7.66,2.95,10.59-0.05
		c1.96-2,2.46-4.88,1.48-7.42c-0.38-0.99-0.96-1.93-1.77-2.73c-4.09-4.13-8.03-8.42-12.36-12.26c-3.37-2.99-5.05-6.17-4.55-10.83
		c0.46-4.35,0.09-8.8,0.09-13.49c0.43,0.35,0.61,0.48,0.75,0.64c5.88,5.88,11.75,11.79,17.63,17.66c3.1,3.1,7.46,3.14,10.57,0.12
		c2.6-2.52,2.68-7.34,0.09-9.93c-9.29-9.33-18.59-18.65-27.94-27.92c-0.78-0.78-1.13-1.52-1.13-2.63
		c0.04-13.43,0.03-26.84,0.05-40.26c0-0.4-0.29-0.95,0.34-1.3c6.78,11.76,13.53,23.5,20.31,35.24c1.21,2.1,2.17,4.42,4.63,5.49
		c3.12,1.34,6.4,0.66,8.67-1.8c2.04-2.23,2.25-5.75,0.47-8.85c-4.87-8.43-9.73-16.85-14.61-25.27c-2.3-4.02-4.61-8.03-6.94-12.06
		c0.73-0.34,1.03,0.16,1.41,0.39c3.08,1.81,6.15,3.66,9.26,5.45c8.58,4.96,17.18,9.89,25.76,14.83c0.59,0.33,1.11,0.64,1.3,1.38
		c1.82,6.96,3.68,13.94,5.53,20.9c0.21,0.61,0.12,1.31,0.6,1.85c0.64,2.51,1.28,5.01,1.93,7.51c0.27,0.98,0.56,1.95,0.83,2.94
		c0,0,0,0,0,0.01c0.03,0.1,0.07,0.22,0.12,0.35c0.43,1.67,0.85,3.33,1.29,5c0.98,3.59,4.5,5.88,8.03,5.24
		c3.96-0.72,6.82-4.13,6.08-7.91c-0.98-4.93-2.34-9.8-3.89-14.59c-0.12-1.2-0.4-2.34-0.73-3.47c-0.35-1.13-0.73-2.25-1.04-3.4v-0.08
		c0-0.75-0.31-1.43-0.66-2.08c-0.12-0.83-0.26-1.67-0.39-2.5c1.8,0.96,3.59,1.91,5.4,2.88c1.28,0.74,2.58,1.5,3.85,2.25
		c0.96,0.55,1.9,1.13,2.86,1.67c0.48,0.29,0.98,0.55,1.48,0.78c2.46,1.16,4.11,2.8,4.37,5.67c0.14,1.41,0.68,2.78,1.05,4.16
		c0.57,2.15,1.15,4.29,1.72,6.45c0.81,3.03,1.63,6.05,2.52,9.06c0.6,1.99,1.87,3.47,3.49,4.31c1.59,0.83,3.5,1.03,5.43,0.48
		c3.8-1.09,5.91-4.92,4.85-8.89C845.72,420.03,844.27,414.32,842.63,408.65z M734.76,357.83c-7.26,0.08-13.19-5.73-13.23-12.96
		c-0.04-7.2,5.91-13.22,13.04-13.23c7.3-0.01,13.13,5.74,13.18,13.01C747.8,351.96,742.11,357.74,734.76,357.83z"/>
	<path class="st0" d="M369.33,373.56c-6.96,1.82-13.92,3.72-20.89,5.57c-0.9,0.23-1.77,0.73-2.73,0.16
		c-5.41-3.15-10.81-6.28-16.4-9.54c2.46-0.66,4.75-1.29,7.04-1.91c6.14-1.65,12.31-3.25,18.44-5.01c3.77-1.09,5.93-5.02,4.93-8.54
		c-1.17-4.07-4.91-6.38-8.8-5.33c-12.74,3.38-25.47,6.81-38.18,10.23c-0.86,0.23-1.55,0.18-2.34-0.29
		c-8.77-5.09-17.57-10.14-26.35-15.2c-3.28-1.89-6.55-3.81-9.82-5.71c0.04-0.12,0.05-0.21,0.08-0.33h1.9
		c13.83,0,27.68,0.03,41.51-0.01c4.41,0,7.66-3.2,7.57-7.31c-0.09-4.07-3.33-7.05-7.68-7.05c-13.9,0-27.81,0-41.69-0.03
		c-0.55,0-1.16,0.23-1.78-0.31c3.16-1.8,6.22-3.54,9.26-5.3c9.1-5.24,18.18-10.5,27.26-15.78c0.62-0.36,1.16-0.39,1.85-0.21
		c3.51,0.98,7.04,1.86,10.55,2.8c9.32,2.49,18.63,5.01,27.96,7.48c3.01,0.81,6.44-0.68,7.85-3.28c2.47-4.53,0.56-9.28-4.53-10.76
		c-5.43-1.59-10.92-2.95-16.4-4.41c-2.8-0.74-5.61-1.51-8.69-2.34c2.1-1.2,4.15-2.38,6.17-3.54c3.07-1.76,6.05-3.49,9.02-5.28
		c0.51-0.3,0.99-0.52,1.48-0.65c0.85-0.23,1.69-0.2,2.68,0.08c7,1.96,14.03,3.81,21.05,5.7c3.76,1,7.83-1.48,8.64-5.27
		c0.96-4.48-1.29-7.81-6.13-9.07c-5.36-1.41-10.71-2.85-16.08-4.18c-0.86-0.22-1.37-0.44-1.51-0.95c-0.12-0.34-0.08-0.78,0.1-1.41
		c1.69-5.84,3.27-11.7,4.68-17.61c0.09-0.38,0.16-0.75,0.18-1.13c0.04-0.47,0.01-0.94-0.05-1.38c-0.53-4.06-4.71-7.07-9-5.91
		c-0.59,0.16-1.11,0.36-1.59,0.61c-2.29,1.18-3.36,3.38-4.02,5.95c-0.61,2.33-1.22,4.67-1.85,7c-0.85,3.27-1.7,6.52-2.56,9.79
		c-0.35,1.31-0.7,2.63-1.04,3.96c-0.12,0.46-0.26,0.86-0.73,1.14c-0.34,0.18-0.69,0.38-1.02,0.59c-4.84,2.77-9.68,5.56-14.5,8.37
		c-0.87,0.51-1.16,0.33-0.98-0.65c0.03-0.05,0.05-0.12,0.07-0.17c0,0,0,0,0-0.01c1.16-3.36,1.93-6.83,2.76-10.29
		c0.43-1.25,0.81-2.51,1.15-3.79c0.52-1.94,0.98-3.89,1.44-5.84c0.08-0.13,0.1-0.26,0.1-0.39c0.33-0.96,0.81-1.87,0.87-2.9
		c0.27-0.9,0.42-1.76,0.42-2.59c0-1.91-0.74-3.64-2.28-5.14c-2.06-2.03-4.58-2.49-7.27-1.57c-2.24,0.74-3.93,2.15-4.42,4.62
		c-0.29,0.44-0.49,0.91-0.39,1.47c-0.55,1.2-0.9,2.46-1.2,3.72c-0.3,1.28-0.55,2.56-0.94,3.81c-1.07,4.07-2.15,8.16-3.21,12.24
		c-0.03,0.1-0.05,0.22-0.09,0.33c-0.27,0.98-0.55,1.96-0.82,2.94c-0.59,2.11-1.17,4.2-1.76,6.31c-0.2,0.87-0.4,1.74-0.61,2.62
		c-0.12,0.26-0.3,0.53-0.34,0.82c-0.4,3.85-2.17,6.68-5.96,8.02c-0.61,0.22-1.18,0.59-1.74,0.91c-10.36,6.01-20.7,12.02-31.17,18.1
		c0.03-0.27-0.01-0.47,0.05-0.59c1.98-3.44,3.96-6.86,5.93-10.28c3.23-5.57,6.45-11.13,9.66-16.69c2.2-3.83,4.53-7.6,6.51-11.53
		c1.64-3.27,0.03-7.43-3.16-9.07c-3.59-1.83-7.69-0.75-9.66,2.64c-6.42,11.1-12.8,22.23-19.22,33.33c-0.88,1.55-1.83,3.07-2.76,4.59
		c-0.18-8.74-0.23-17.44-0.27-26.1c-4.88,4.02-9.68,8.18-14.39,12.47v13.62c-1.96-2.85-3.68-5.76-5.36-8.67
		c-2.89,2.72-5.73,5.48-8.54,8.29c-0.72,0.72-1.43,1.43-2.15,2.16c1,1.74,2,3.49,3.01,5.24c-1.74-0.53-3.16-1.35-4.57-2.16
		c-0.31-0.18-0.61-0.35-0.92-0.53c-3.45,3.57-6.83,7.2-10.14,10.88c2.49,1.43,4.97,2.88,7.46,4.31c0.3,0.17,0.88,0.18,0.73,0.86
		h-12.77c-4.09,4.71-8.04,9.5-11.89,14.38c7.61,0.01,15.22,0.01,22.84,0.01h2.23c-0.52,0.42-0.68,0.59-0.86,0.7
		c-11.96,6.88-23.92,13.75-35.84,20.65c-0.72,0.42-1.31,0.39-2.03,0.2c-0.61-0.17-1.22-0.33-1.83-0.49
		c-6.68,9.72-12.9,19.74-18.67,30.03c0.96-0.57,1.93-1.14,2.9-1.7c2.63-1.51,5.28-2.99,8.22-4.66c-0.61,2.39-1.09,4.35-1.59,6.3
		c-0.38,1.42-0.75,2.85-1.13,4.28c-0.75,1.74-1.03,3.59-1.37,5.44c-0.47,0.98-0.78,1.99-1.03,3.02c-0.26,1.03-0.47,2.08-0.72,3.11
		c-0.62,1.16-0.77,2.47-1.03,3.73c-0.57,2.89,1.04,6.19,3.57,7.6c2.42,1.35,5.41,1.12,7.47-0.6c0.69-0.05,1.13-0.48,1.52-1.02
		c0.78-0.83,1.33-1.81,1.6-2.91c0.65-2.63,1.28-5.26,1.91-7.89c1.47-4.24,2.37-8.64,3.59-12.96c0.57-1.99,1.26-3.94,1.54-6.01
		c0.3-1,0.61-2,0.91-2.99c0.68-2.47,1.51-4.92,1.96-7.43c0.3-1.72,1.34-2.52,2.64-3.27c9.06-5.22,18.13-10.45,27.18-15.68
		c0.72-0.4,1.42-0.81,2.13-1.22c2.03-1.17,4.09-2.28,6.48-3.62c-0.64,1.05-1.04,1.7-1.43,2.37c-4.4,7.59-8.8,15.17-13.18,22.77
		c-2.59,4.49-5.28,8.94-7.7,13.53c-1.93,3.64-0.56,7.76,2.84,9.56c3.73,1.98,7.73,0.85,9.86-2.85c6.44-11.1,12.83-22.24,19.3-33.33
		c0.83-1.43,1.39-3.1,2.85-4.48c0,14.37-0.01,28.43,0.01,42.51c0,0.72-0.39,1.07-0.81,1.5l-27.76,27.79
		c-3.06,3.07-3.24,7.53-0.39,10.41c2.94,2.97,7.3,2.99,10.42-0.07c4.19-4.09,8.29-8.26,12.43-12.41c1.94-1.94,3.9-3.86,6.09-6.04
		c0,6.51-0.01,12.56,0.01,18.61c0.01,0.83-0.22,1.44-0.83,2.04c-5.4,5.32-10.77,10.67-16.12,16.04c-2.84,2.84-2.85,7.47-0.12,10.2
		c2.86,2.88,7.46,2.97,10.33,0.12c4.26-4.2,8.48-8.42,12.64-12.71c0.99-1.02,1.51-1.03,2.49-0.04c4.13,4.24,8.32,8.45,12.51,12.61
		c3.02,3.01,7.66,2.95,10.59-0.05c2.72-2.77,2.62-7.24-0.29-10.15c-4.09-4.13-8.03-8.42-12.36-12.26
		c-3.37-2.99-5.05-6.17-4.55-10.83c0.46-4.35,0.09-8.8,0.09-13.49c0.43,0.35,0.61,0.48,0.75,0.64c5.88,5.88,11.75,11.79,17.63,17.66
		c3.1,3.1,7.46,3.14,10.57,0.12c2.6-2.52,2.68-7.34,0.09-9.93c-9.29-9.33-18.6-18.65-27.94-27.92c-0.78-0.78-1.13-1.52-1.13-2.63
		c0.04-13.43,0.03-26.84,0.05-40.26c0-0.4-0.29-0.95,0.34-1.3c6.78,11.76,13.53,23.5,20.31,35.24c1.21,2.1,2.17,4.42,4.63,5.49
		c3.12,1.34,6.4,0.66,8.67-1.8c2.04-2.23,2.25-5.75,0.47-8.85c-4.87-8.43-9.73-16.85-14.61-25.27c-2.3-4.02-4.61-8.03-6.94-12.06
		c0.73-0.34,1.03,0.16,1.41,0.39c3.08,1.81,6.15,3.66,9.26,5.45c8.58,4.96,17.18,9.89,25.76,14.83c0.59,0.33,1.11,0.64,1.3,1.38
		c1.82,6.96,3.68,13.94,5.53,20.9c0.21,0.61,0.12,1.31,0.6,1.85c0.64,2.51,1.28,5.01,1.93,7.51c0.27,0.98,0.56,1.95,0.83,2.94
		c0,0,0,0,0,0.01c0.03,0.1,0.07,0.22,0.12,0.35c0.43,1.67,0.85,3.33,1.29,5c0.98,3.59,4.5,5.88,8.03,5.24
		c3.96-0.72,6.82-4.13,6.08-7.91c-0.98-4.93-2.34-9.8-3.89-14.59c-0.12-1.2-0.4-2.34-0.73-3.47c-0.35-1.13-0.73-2.25-1.04-3.4v-0.08
		c0-0.75-0.31-1.43-0.66-2.08c-0.12-0.83-0.26-1.67-0.39-2.5c1.8,0.96,3.59,1.91,5.4,2.88c1.28,0.74,2.58,1.5,3.85,2.25
		c1.44,0.82,2.85,1.74,4.35,2.45c2.46,1.16,4.11,2.8,4.37,5.67c0.14,1.41,0.68,2.78,1.05,4.16c1.39,5.17,2.71,10.37,4.24,15.51
		c1.18,3.94,5.04,5.89,8.91,4.79c3.8-1.09,5.91-4.92,4.85-8.89c-1.5-5.7-2.94-11.41-4.58-17.09c-0.44-1.57-0.07-1.98,1.41-2.34
		c5.49-1.37,10.94-2.88,16.41-4.31c2.8-0.73,4.93-2.23,5.76-5.07C379.85,376.95,375.04,372.07,369.33,373.56z M246.79,343.52
		c-5.36,0.05-9.99-3.08-12.06-7.64c-0.74-1.63-1.16-3.42-1.17-5.32c-0.04-7.2,5.91-13.22,13.04-13.23c1.85,0,3.6,0.36,5.21,1.04
		c4.68,1.97,7.94,6.55,7.98,11.97C259.83,337.65,254.14,343.43,246.79,343.52z M144.6,419.72c1.67-0.95,2.95-2.6,3.55-4.78
		c0.59-2.16,1.16-4.32,1.73-6.48C148.06,412.19,146.29,415.93,144.6,419.72z"/>
	<rect x="126" y="475.27" class="st0" width="747.03" height="19.18"/>
	<rect x="123.6" y="666.43" class="st0" width="747.03" height="19.18"/>
	<g>
		<path class="st0" d="M588.63,385.22h-16.72l7.49-7.49c1.99-1.99,1.99-5.21,0-7.2c-1.99-1.99-5.21-1.99-7.2,0l-14.71,14.7h-24.72
			l11-11.81c1.92-2.06,1.79-5.29-0.27-7.2c-0.84-0.79-1.88-1.22-2.95-1.33c-0.65-0.04-14.61,0-14.61,0l16.35-16.35h20.51
			c2.81,0,5.09-2.28,5.09-5.09s-2.28-5.11-5.09-5.11h-10.32l12.02-12.02c2-1.99,2-5.21,0-7.2c-1.99-2-5.32-2-7.31,0l-12.29,12.16
			v-10.61c0-2.81-2.28-5.09-5.09-5.09c-2.81,0-5.09,2.28-5.09,5.09v20.8l-16.88,17l-0.28-15.4c0-0.02,0.02-0.04,0.02-0.06
			c-0.02-1.25-0.49-2.47-1.41-3.44c-1.96-2.03-5.29-2.09-7.32-0.13l-10.83,10.34v-23.93l14.59-14.48c1.99-1.99,2.05-5.23,0.05-7.22
			c-1.99-1.99-5.3-1.99-7.29,0l-7.35,7.28v-16.58c0-2.81-2.29-5.11-5.11-5.11c-2.81,0-5.09,2.29-5.09,5.11v16.58l-7.16-7.28
			c-1.99-1.99-5.17-1.99-7.16,0c-1.99,2-2.07,5.23-0.08,7.22l14.4,14.48v24.07l-11-10.51c-2.04-1.94-5.2-1.86-7.14,0.19
			c-0.73,0.76-1.14,1.71-1.3,2.68c-0.1,0.4-0.15,0.81-0.15,1.24l-0.06,14.43l-17.05-16.95v-20.33c0-2.81-2.28-5.09-5.11-5.09
			c-2.81,0-5.09,2.28-5.09,5.09v10.13l-11.57-11.68c-1.99-2-5.17-2-7.16,0c-1.99,1.99-1.96,5.21,0.04,7.2l12.04,12.02h-10.79
			c-2.83,0-5.11,2.29-5.11,5.11s2.28,5.09,5.11,5.09h20.99l16.82,16.82l-15.68,0.56c-2.73,0.11-5.11,2.34-5.13,5.05
			c-0.01,0.07-0.24,0.16-0.24,0.23c0,0,0,0,0,0.01c0,0,0.23,0,0.23,0.01c0.04,1.27,0.65,2.53,1.64,3.5l10.76,10.51h-23.6l-14.7-14.7
			c-1.99-1.99-5.23-1.99-7.22,0c-1.99,1.99-1.99,5.21,0,7.2l7.49,7.49h-17.2c-2.81,0-5.09,2.28-5.09,5.11
			c0,2.81,2.28,5.09,5.09,5.09h17l-7.3,7.3c-1.99,1.99-1.99,5.21,0,7.2c0.99,0.99,2.3,1.49,3.61,1.49c1.3,0,2.61-0.5,3.6-1.49
			l14.5-14.5h23.81l-10.37,11.15c-1.92,2.06-1.79,5.28,0.27,7.2c0.98,0.91,2.22,1.36,3.47,1.36h0.15l14.97-0.08l-17.08,17.08h-20.8
			c-2.83,0-5.11,2.28-5.11,5.09c0,2.83,2.28,5.11,5.11,5.11h10.6l-11.82,11.82c-1.99,1.99-1.99,5.21,0,7.2
			c0.99,0.99,2.3,1.49,3.6,1.49c1.31,0,2.5-0.5,3.49-1.49l11.57-11.68v10.32c0,2.81,2.28,5.09,5.09,5.09c2.83,0,5.11-2.28,5.11-5.09
			v-20.52l17.29-17.17l0.65,16.57c0.11,2.75,2.4,4.97,5.13,4.91c0.92-0.01,1.93-0.32,2.92-1.04c0.73-0.53,10.7-10.75,10.7-10.75
			v24.05l-14.25,14.36c-1.99,1.99-1.94,5.23,0.05,7.22c0.99,0.99,2.33,1.49,3.64,1.49c1.3,0,2.51-0.5,3.5-1.49l7.06-7.16v16.71
			c0,0.19,0.01,0.39,0.04,0.57c0.28,2.56,2.44,4.54,5.06,4.54c2.62,0,4.79-1.98,5.07-4.54c0.02-0.18,0.04-0.38,0.04-0.57v-17.2
			l7.75,7.64c0.99,0.99,2.35,1.49,3.66,1.49c1.3,0,2.63-0.5,3.63-1.49c1.99-1.99,1.89-5.21-0.1-7.22l-14.94-14.84v-24.27
			c0,0,9.33,8.77,10.79,10.19c1.48,1.41,2.68,2.21,4.44,2.21h0.04c2.81,0,5.08-2.45,5.06-5.26l-0.21-16.11l16.58,16.69v20.99
			c0,2.81,2.28,5.09,5.09,5.09c2.81,0,5.09-2.28,5.09-5.09v-10.81l12.29,12.16c0.99,0.99,2.35,1.49,3.66,1.49
			c1.3,0,2.63-0.5,3.63-1.49c1.99-1.99,2.01-5.21,0.01-7.2l-11.81-11.82h10.13c2.81,0,5.09-2.28,5.09-5.11
			c0-2.81-2.28-5.09-5.09-5.09h-20.31l-17.5-17.49l15.67-0.57c0.06,0,0.12-0.01,0.17-0.01c0.02,0,0.04,0,0.06-0.01
			c2.7-0.22,4.78-2.52,4.68-5.25c-0.06-1.65-0.9-3.08-2.13-3.97l-9.42-9.4h23.67l14.5,14.5c1.01,0.99,2.3,1.49,3.61,1.49
			c1.3,0,2.61-0.5,3.6-1.49c1.99-1.99,1.99-5.21,0-7.2l-7.3-7.3h16.53c2.81,0,5.09-2.28,5.09-5.09
			C593.73,387.5,591.45,385.22,588.63,385.22z M471.13,375.19l10.04,10.03h-13.79l-9.68-9.54L471.13,375.19z M471.57,404.83
			l-13.59,0.08l8.83-9.5h14.18L471.57,404.83z M487.82,417.45l-9.05,9.29l-0.58-14.3l9.63-9.68V417.45z M487.82,377.67l-9.46-9.52
			l0.01-13.27l9.45,9.06V377.67z M515.78,375.03l12.56-0.01l-9.5,10.2h-13.27L515.78,375.03z M498.02,363.92l9.54-9.1l0.23,13.59
			l-9.77,9.74V363.92z M498.02,417.35v-15.07l9.81,9.76l0.15,14.48L498.02,417.35z M515.14,404.78l-9.35-9.36h13.79l8.9,8.88
			L515.14,404.78z"/>
	</g>
</g>
</svg>
