<?xml version="1.0" encoding="utf-8"?>
<!-- Generator: Adobe Illustrator 26.5.0, SVG Export Plug-In . SVG Version: 6.00 Build 0)  -->
<svg version="1.1" id="Layer_1" xmlns="http://www.w3.org/2000/svg" xmlns:xlink="http://www.w3.org/1999/xlink" x="0px" y="0px"
	 viewBox="0 0 4325 3200" style="enable-background:new 0 0 4325 3200;" xml:space="preserve">
<style type="text/css">
	.st0{fill:#EE2524;}
	.st1{fill:none;stroke:#EE2524;stroke-width:9;stroke-miterlimit:10;stroke-dasharray:31;}
</style>
<g>
	<polygon class="st0" points="3561.6,1194.6 2690,531 2689.2,530.3 	"/>
	<path d="M4113.6,1575.6l-872.8,686.2l-921.5,715.4c-81.8,63.5-196.1,63.6-278,0.3l-906-702.1l-15.8-12.3L653.5,1893l-405-321.7
		l868.9-661.4l923.9-711.5c82-63.1,196.4-63,278.3,0.3l921.4,712.5l0.3,0.2l0.8,0.6L4113.6,1575.6z"/>
	<polygon class="st0" points="583.3,1894.4 583.3,1895 577.3,1889.9 567.5,1882.1 	"/>
	<polyline class="st1" points="1138.5,2278 3223.9,2278 1138.5,2278 1138.5,899 3223.9,899 3223.9,2278 	"/>
</g>
</svg>
