<svg width="510" height="509" viewBox="0 0 510 509" fill="none" xmlns="http://www.w3.org/2000/svg">
<g clip-path="url(#clip0_19_19043)">
<path d="M255.001 471.312C374.85 471.312 472.008 374.155 472.008 254.305C472.008 134.455 374.85 37.2981 255.001 37.2981C135.151 37.2981 37.9937 134.455 37.9937 254.305C37.9937 374.155 135.151 471.312 255.001 471.312Z" fill="#324A5E"/>
<path d="M224.823 38.993C224.823 38.993 226.518 43.74 232.961 37.637C232.961 37.637 232.621 29.499 229.23 30.856C225.84 31.534 224.823 38.993 224.823 38.993Z" fill="#2B3B4E"/>
<path d="M287.213 40.011C287.213 40.011 285.518 44.758 278.736 38.655C278.736 38.655 279.075 30.517 282.466 31.534C286.196 32.551 287.213 40.011 287.213 40.011Z" fill="#2B3B4E"/>
<path d="M298.063 101.383L283.144 94.2621C277.38 91.5491 272.972 85.7851 272.294 79.3431L270.599 68.1541H239.743L238.048 79.3431C237.031 85.7851 232.962 91.5501 226.859 94.2621L214.991 100.026L210.583 126.813L257.375 142.071L302.133 126.813L298.063 101.383Z" fill="#FFD05B"/>
<path d="M294.333 496.742C294.333 496.742 303.488 511.661 281.787 507.931C281.787 507.931 263.477 512 270.598 496.742C270.598 496.742 290.264 494.029 294.333 496.742Z" fill="#2B3B4E"/>
<path d="M289.247 482.501C289.247 482.501 290.603 491.317 293.316 493.012C293.316 493.012 301.793 503.184 286.535 502.167C283.483 501.828 280.771 501.828 277.719 501.828C274.328 501.828 269.92 501.15 268.564 498.098C268.564 498.098 267.208 494.029 271.616 488.604C271.616 488.604 274.329 483.857 272.633 480.805C271.615 477.076 291.96 474.024 289.247 482.501Z" fill="#54C0EB"/>
<path d="M216.347 496.742C216.347 496.742 207.192 511.661 228.893 507.931C228.893 507.931 247.203 512 240.082 496.742C240.421 496.742 220.755 494.029 216.347 496.742Z" fill="#2B3B4E"/>
<path d="M221.772 482.501C221.772 482.501 220.416 491.317 217.703 493.012C217.703 493.012 209.226 503.184 224.484 502.167C227.536 501.828 230.248 501.828 233.3 501.828C236.691 501.828 241.099 501.15 242.455 498.098C242.455 498.098 243.811 494.029 239.403 488.604C239.403 488.604 236.69 483.857 238.386 480.805C239.064 477.076 219.059 474.024 221.772 482.501Z" fill="#54C0EB"/>
<path d="M303.488 278.04C304.166 269.902 297.724 237.351 297.724 237.351C283.483 241.759 264.834 240.064 257.035 239.385V238.707C257.035 238.707 256.357 238.707 255.001 239.046C253.645 238.707 252.967 238.707 252.967 238.707V239.385C245.168 240.402 226.18 242.098 212.278 237.351C212.278 237.351 205.836 269.902 206.514 278.04C207.87 286.517 212.617 334.665 216.008 348.567C219.06 362.469 221.772 470.633 218.382 476.058C218.382 476.058 218.382 486.908 219.399 490.299C219.399 490.299 233.301 482.161 240.082 490.299C240.082 490.299 244.151 474.363 244.151 471.65C243.812 464.529 248.22 366.876 248.22 360.773C248.559 342.463 249.915 300.418 253.306 286.855C253.645 285.838 254.323 285.16 255.34 285.16C256.357 285.16 257.035 285.838 257.374 286.855C260.426 300.418 262.121 342.463 262.46 360.773C262.46 366.876 266.868 464.529 266.529 471.65C266.529 474.363 270.598 490.299 270.598 490.299C277.379 482.161 291.281 490.299 291.281 490.299C292.637 486.908 292.298 476.058 292.298 476.058C289.246 470.633 291.62 362.469 294.672 348.567C298.063 334.665 302.81 286.517 303.488 278.04Z" fill="#2C9984"/>
<path d="M323.833 135.29C323.833 135.29 321.459 186.151 324.85 193.271C324.85 193.271 332.649 217.345 326.206 247.184C326.206 247.184 327.223 274.31 325.867 279.735C325.867 279.735 324.172 304.148 325.867 309.912C325.867 309.912 319.425 322.797 305.523 323.475L304.167 320.084C304.167 320.084 315.356 318.389 312.305 297.027L309.253 295.671L310.27 310.59C310.27 310.59 306.54 317.032 304.167 310.251C304.167 310.251 302.133 289.907 307.897 282.786C307.897 282.786 316.713 266.171 310.271 247.522C304.846 231.586 300.777 202.425 301.455 189.201C301.794 184.454 301.455 179.368 300.777 174.621C299.76 165.127 299.082 151.225 303.151 143.426C309.592 130.882 323.833 135.29 323.833 135.29Z" fill="#FFD05B"/>
<path d="M186.169 135.29C186.169 135.29 188.543 186.151 185.152 193.271C185.152 193.271 177.353 217.345 183.796 247.184C183.796 247.184 182.779 274.31 184.135 279.735C184.135 279.735 185.83 304.148 184.135 309.912C184.135 309.912 190.577 322.797 204.479 323.475L205.835 320.084C205.835 320.084 194.646 318.389 197.697 297.027L200.749 295.671L199.732 310.59C199.732 310.59 203.462 317.032 205.835 310.251C205.835 310.251 207.869 289.907 202.105 282.786C202.105 282.786 193.289 266.171 199.731 247.522C205.156 231.586 209.225 202.425 208.547 189.201C208.208 184.454 208.547 179.368 209.225 174.621C210.242 165.127 210.92 151.225 206.851 143.426C200.41 130.882 186.169 135.29 186.169 135.29Z" fill="#FFD05B"/>
<path d="M323.833 135.29C324.511 102.061 288.569 96.9751 288.569 96.9751C281.448 125.796 263.478 129.865 255.001 129.865C246.524 129.526 228.553 125.457 221.433 96.9751C221.433 96.9751 185.491 102.061 186.169 135.29C186.169 135.29 196.68 145.123 207.531 146.14C205.157 149.531 204.14 155.634 205.836 162.755C207.192 168.519 209.905 173.944 213.296 177.335C214.313 190.22 213.635 204.461 208.549 213.955C208.549 213.955 203.124 237.012 207.193 248.201C207.193 248.54 207.532 248.879 207.532 248.879L208.549 250.574C208.549 250.574 234.997 259.051 255.68 255.321C275.007 258.712 300.099 251.252 302.472 250.574H302.811L303.828 248.879V248.54C308.236 237.351 302.472 213.955 302.472 213.955C297.386 204.461 296.708 190.559 297.725 178.013C301.116 174.283 304.167 168.858 305.524 162.755C307.219 155.634 306.202 149.531 303.829 146.14C313.66 144.784 323.833 135.29 323.833 135.29Z" fill="#E6E9EE"/>
<path d="M323.833 135.29C323.833 135.29 320.442 138.342 315.695 141.393C312.982 143.088 309.931 144.445 306.879 145.462C305.523 145.801 304.505 146.14 303.149 146.14C304.844 148.174 305.523 151.226 305.523 154.956C305.523 157.33 305.184 160.042 304.845 162.755C304.506 164.111 304.167 165.468 303.489 166.824C301.794 171.232 299.42 175.301 296.708 178.013C296.369 183.438 296.369 188.863 296.708 193.949C297.047 199.713 298.064 205.477 300.099 210.224C300.438 211.58 301.116 212.937 301.794 213.954C301.794 213.954 307.558 237.35 303.15 248.539V248.878L302.133 250.573C302.133 250.573 302.133 250.573 301.794 250.573C299.42 251.251 274.329 259.05 255.002 255.32C234.658 259.05 207.871 250.573 207.871 250.573L206.854 248.878C206.854 248.878 206.515 248.539 206.515 248.2C202.446 237.011 207.871 213.954 207.871 213.954C212.957 204.46 213.635 190.219 212.618 177.334C209.227 173.604 206.515 168.518 205.158 162.754C203.463 155.633 204.48 149.53 206.853 146.139C196.342 145.122 185.491 135.289 185.491 135.289C185.491 102.06 221.433 96.9741 221.433 96.9741C228.554 125.795 246.524 129.864 255.001 129.864C263.478 129.525 281.449 125.456 288.569 96.9741C288.569 96.9741 324.511 102.061 323.833 135.29Z" fill="#E6E9EE"/>
<path d="M271.955 76.9701C267.547 82.7341 261.783 86.1251 255.68 86.1251C249.238 86.1251 243.473 82.3951 238.726 75.9531L240.082 68.1541H270.938L271.955 76.9701Z" fill="#F9B54C"/>
<path d="M280.431 37.2981C280.431 59.3381 269.581 81.7171 255.679 81.7171C242.116 81.7171 230.927 59.3381 230.927 37.2981C230.927 15.2581 242.116 1.69507 255.679 1.69507C269.242 1.69507 280.431 15.2581 280.431 37.2981Z" fill="#FFD05B"/>
<path d="M228.892 21.3621C218.381 52.5571 238.725 68.4931 238.725 68.4931C231.944 56.9651 235.334 45.4361 237.708 40.0111C238.725 37.9771 239.742 36.2811 241.438 35.2641C246.185 31.1951 249.576 26.4481 251.61 21.3621H228.892Z" fill="#324A5E"/>
<path d="M281.449 59.6769C284.501 54.2519 286.196 48.1489 286.196 41.7059C285.857 35.6029 285.179 28.1429 283.483 21.0229H253.645C257.714 29.1609 264.834 43.4019 269.921 48.4879C269.921 48.4879 271.277 38.9939 269.921 32.5519C269.921 32.5519 280.432 53.5749 261.444 75.6139C261.444 75.6139 252.289 90.5329 251.611 111.556C251.611 111.556 251.95 114.608 248.559 116.642C248.559 116.642 263.478 119.355 267.886 105.453C267.886 105.453 267.886 115.964 259.748 119.355C259.748 119.355 281.449 122.068 284.161 107.487C284.161 107.487 284.839 113.251 283.822 115.625C285.178 112.912 291.96 98.3319 279.075 79.6829C279.414 80.0209 275.345 70.5269 281.449 59.6769Z" fill="#324A5E"/>
<path d="M228.553 35.603C231.944 28.482 248.897 24.753 256.018 23.396V34.924C247.202 34.585 237.03 41.027 231.605 45.096C229.91 46.113 227.875 45.096 228.214 42.722L228.553 35.603Z" fill="#ACB3BA"/>
<path d="M235.674 6.781C243.473 0.678 253.645 0.339 256.018 0V27.465C242.116 27.465 224.823 38.993 224.823 38.993C227.197 16.615 235.674 6.781 235.674 6.781Z" fill="#E6E9EE"/>
<path d="M224.823 38.9931C224.823 38.9931 227.875 36.9591 232.283 34.9241C232.283 23.7351 234.317 12.5451 235.674 7.12012C234.317 8.47712 226.858 18.6491 224.823 38.9931Z" fill="#CED5E0"/>
<path d="M283.483 35.603C280.092 28.482 263.139 24.753 256.018 23.396V34.924C264.834 34.585 275.006 41.027 280.431 45.096C282.126 46.113 284.161 45.096 283.822 42.722L283.483 35.603Z" fill="#ACB3BA"/>
<path d="M276.362 6.781C268.564 0.678 258.392 0.339 256.018 0V27.465C269.92 27.465 287.213 38.993 287.213 38.993C285.178 16.615 276.362 6.781 276.362 6.781Z" fill="#E6E9EE"/>
<path d="M287.213 38.9931C287.213 38.9931 284.161 36.9591 279.753 34.9241C279.753 23.7351 277.719 12.5451 276.362 7.12012C277.719 8.47712 285.178 18.6491 287.213 38.9931Z" fill="#CED5E0"/>
<path d="M231.605 229.213L224.145 228.874C225.501 182.421 203.801 135.968 203.462 135.29L210.243 131.899C210.921 134.273 232.961 180.726 231.605 229.213Z" fill="#2B3B4E"/>
<path d="M184.474 116.302C184.474 116.302 190.577 117.658 200.41 139.02C200.41 139.02 216.685 150.209 215.329 129.865C215.329 129.865 207.53 102.061 199.054 104.435C199.054 104.435 184.813 111.216 184.474 116.302Z" fill="white"/>
<path d="M217.364 239.724V286.177C217.364 288.211 219.059 290.246 221.433 290.246H307.558C309.592 290.246 311.627 288.551 311.627 286.177V239.724H217.364Z" fill="#F1543F"/>
<path d="M311.626 248.201V230.23C311.626 225.822 308.235 222.431 303.827 222.431H225.162C220.754 222.431 217.363 225.822 217.363 230.23V248.201C217.363 250.235 219.058 251.931 221.093 251.931H307.557C309.931 251.931 311.626 250.236 311.626 248.201Z" fill="#FF7058"/>
<path d="M293.994 246.845H287.213V263.799H293.994V246.845Z" fill="#FFD05B"/>
<path d="M241.777 246.845H234.996V263.799H241.777V246.845Z" fill="#FFD05B"/>
</g>
<defs>
<clipPath id="clip0_19_19043">
<rect width="508.53" height="508.53" fill="white" transform="translate(0.735596)"/>
</clipPath>
</defs>
</svg>
