<svg width="60" height="61" viewBox="0 0 60 61" fill="none" xmlns="http://www.w3.org/2000/svg">
<g clip-path="url(#clip0_19_18894)">
<path d="M59.8012 54.6329C59.7985 54.2944 59.5434 54.1067 59.2355 54.0671C58.7475 54.0047 58.2595 53.9419 57.7715 53.8795C57.7851 53.518 57.7871 53.1556 57.803 52.7942C57.8336 52.0926 57.9373 51.3967 57.9622 50.6947C57.9721 50.4184 57.7642 50.1632 57.5031 50.0922C57.0197 49.9599 56.4235 49.6779 55.8471 49.5577C55.9072 48.9029 55.962 48.2438 56.0511 47.5977C56.1012 47.2366 56.0205 46.9181 55.6916 46.7151C55.1591 46.3859 54.5167 46.2793 53.9124 46.148C53.6988 46.1012 53.4912 46.0554 53.2872 46.0178C51.7864 35.8634 54.0599 25.7582 52.7959 15.5313C52.7415 15.0899 52.4385 14.6148 51.9213 14.6567C51.4021 14.6989 50.8828 14.7407 50.3636 14.7829C50.5075 13.9142 50.5829 13.0323 50.7968 12.1662C51.0636 11.0853 51.2718 10.0332 51.3223 8.92007C51.3947 7.32157 49.6936 6.46319 48.5555 5.63005C48.6621 4.04484 48.5844 2.41345 48.3466 0.853477C48.2791 0.410334 47.5679 0.43558 47.4795 0.853477C47.1387 2.46228 47.3463 4.14051 47.538 5.76857C46.3278 7.0897 45.4349 7.91785 44.9765 9.70803C44.628 11.0687 44.328 12.6027 44.4679 14.0411C43.7454 13.9484 43.4982 13.9604 42.595 14.0913C42.2927 14.1351 42.0917 14.4793 42.0878 14.7577C41.9559 23.5866 42.119 32.1479 42.9498 40.94C40.7949 41.0353 40.5338 38.9438 38.7871 38.6867C36.9451 38.415 35.1327 38.7618 33.2784 38.8352C30.1355 38.9604 25.3686 37.9064 23.3515 40.8968C23.2276 40.7891 23.0708 40.7127 22.8758 40.7051C20.9485 40.63 19.0071 40.841 17.0724 40.8224C15.8181 40.8101 14.1568 40.3915 12.9337 40.732C11.2292 41.2067 10.4731 43.8137 9.66127 45.3591C9.13574 45.1096 8.45076 45.1322 7.89534 45.1438C7.12233 45.1594 6.36959 45.4215 5.97029 46.1205C5.64109 46.6968 5.72181 47.4878 5.79091 48.1179C5.83376 48.5083 5.89289 48.8989 5.97661 49.2839C5.20725 49.1793 4.46049 49.1185 3.67585 49.1633C3.38386 49.1803 3.07459 49.3597 3.01147 49.6693C2.53278 52.0175 2.57896 54.3907 2.4102 56.7652C1.87139 56.7562 1.3339 56.7293 0.792434 56.7127C0.418386 56.7011 0.142336 57.0243 0.127387 57.3778C0.0935037 58.1717 0.187182 58.9009 0.395133 59.6676C0.398455 59.6795 0.409085 59.6812 0.412739 59.6921C0.348959 59.9602 0.499441 60.2941 0.862858 60.3263C7.08546 60.8834 13.4964 59.5858 19.7821 59.7729C26.8767 59.9838 33.9351 60.4691 41.038 60.5253C44.062 60.5492 47.069 60.5027 50.0872 60.3143C52.2863 60.1775 56.5696 60.7698 58.5259 59.9695C60.342 59.2241 59.8125 56.2031 59.8012 54.6329ZM54.9113 58.6637C52.5139 58.7102 50.0939 59.0474 47.7015 59.2138C42.4359 59.5795 37.0418 59.3795 31.7699 59.2443C21.5431 58.9819 11.4142 59.3922 1.2203 59.3487C1.25252 58.9181 1.29404 58.4949 1.35483 58.0714C1.9169 58.1043 2.47697 58.1391 3.0427 58.1235C3.44099 58.1126 3.6815 57.8216 3.72036 57.4459C3.95688 55.1574 3.84826 52.8135 4.25984 50.5459C4.77208 50.5542 5.27136 50.5875 5.80719 50.6775C6.10217 50.7266 6.33238 50.6044 6.48851 50.4223C6.79346 50.5336 7.22332 50.2852 7.22398 49.9204C7.22564 48.9767 7.12532 47.9794 7.38144 47.0589C7.41599 46.9343 8.03586 46.9666 8.25278 46.9785C8.84673 47.0114 9.43106 47.2257 9.95193 46.8241C10.1622 46.6619 10.2771 46.4503 10.2934 46.2294C11.4727 45.1734 12.6228 42.4444 14.1548 42.5235C17.0635 42.6727 20.2386 42.9696 23.0821 42.2308C23.4279 42.1408 23.5963 41.8867 23.6272 41.611C27.3611 39.6746 32.6067 40.7918 36.6953 40.3307C39.2415 40.044 40.3175 43.0686 43.1305 42.7225C43.7042 42.6521 43.9866 42.1544 43.9749 41.7023C44.0537 41.6123 44.1135 41.4974 44.1241 41.3406C44.2855 38.9159 42.8588 15.3181 44.4762 15.5586C44.8429 15.6131 45.1263 15.431 45.2861 15.1792C45.4788 15.1011 45.6385 14.9317 45.6525 14.6866C45.7316 13.2967 45.8399 11.954 46.1199 10.585C46.4315 9.05992 47.1278 8.22612 48.1223 7.28204C48.5598 7.6913 48.996 8.10288 49.4335 8.51314C49.8946 8.94465 49.4724 10.6893 49.4006 11.1411C49.1734 12.5645 48.6259 14.1896 49.1285 15.5911C49.1422 15.819 49.2737 16.0216 49.5747 16.0655C49.5767 16.0658 49.578 16.0665 49.5797 16.0665C49.6242 16.0785 49.664 16.0981 49.7089 16.0987C53.9523 17.0142 51.5064 30.667 51.3612 32.895C51.0682 37.3739 50.5264 42.3418 51.6907 46.7168C51.6562 46.9134 51.6881 47.1234 51.7728 47.313C52.0761 47.9944 52.77 47.9797 53.4168 48.0402C53.7908 48.0754 54.1768 48.1113 54.5619 48.1379C54.5735 48.6687 54.5615 49.1966 54.609 49.7267C54.6034 49.7311 54.5967 49.7321 54.5911 49.736C54.1715 50.0503 54.1097 50.6462 54.5911 50.9492C54.9857 51.1974 55.285 51.1641 55.7375 51.1638C56.0537 51.1635 56.373 51.197 56.6912 51.2366C56.6244 52.2723 56.4437 53.4576 56.8895 54.3681C56.8025 54.7867 57.0064 55.2986 57.5479 55.2743C57.8589 55.667 58.1698 56.06 58.481 56.4526C58.1552 58.5942 56.9656 59.3314 54.9113 58.6637Z" fill="black"/>
<path d="M17.615 52.6085C17.4067 51.4039 16.5789 49.6952 15.0379 50.1061C13.647 50.4765 13.2982 52.1338 13.1866 53.3748C13.0969 54.3734 13.0255 55.9912 13.6284 56.9525C13.5407 57.0877 13.5347 57.2668 13.7171 57.3611C14.5691 57.8019 15.7531 57.7053 16.6862 57.7033C16.8832 57.7026 16.9998 57.58 17.0699 57.4342C17.2253 57.3997 17.3682 57.314 17.4011 57.1432C17.6884 55.6391 17.8794 54.1399 17.615 52.6085ZM14.5007 56.7243C14.4107 55.9417 14.3572 55.1541 14.3861 54.3658C14.417 53.5276 14.4778 51.9165 15.2256 51.3435C16.3185 50.5064 16.4885 53.7001 16.4889 54.117C16.4892 55.0012 16.4158 55.8603 16.4945 56.735C15.8557 56.632 15.1634 56.6622 14.5007 56.7243Z" fill="black"/>
<path d="M44.7924 53.221C43.8254 53.432 43.5669 54.4375 43.455 55.2919C43.3623 56.0035 43.3543 56.9615 43.7629 57.6126C43.7686 57.6953 43.8138 57.7634 43.8848 57.8149C43.8961 57.8279 43.9001 57.8468 43.9118 57.8594C43.9782 57.9305 44.0629 57.9252 44.1297 57.884C44.6691 57.9066 45.1937 57.8979 45.7322 57.8438C45.7727 57.8395 45.7906 57.8119 45.8232 57.7986C45.9717 58.0517 46.3643 58.0109 46.4115 57.6564C46.5686 56.4715 47.0931 52.7188 44.7924 53.221ZM44.2416 57.2678C44.228 56.2184 44.0509 54.6803 44.9213 54.1306C45.7428 53.6117 45.7431 56.0965 45.7468 57.1957C45.7401 57.195 45.7388 57.189 45.7322 57.1887C45.2259 57.1542 44.7402 57.2196 44.2416 57.2678Z" fill="black"/>
<path d="M50.7713 55.5621C50.6933 54.7764 50.3979 53.8526 49.5435 53.638C47.3946 53.0992 47.6135 56.564 47.6736 57.7276C47.6793 57.8402 47.7344 57.913 47.8052 57.9615C47.8676 58.1641 48.0626 58.3362 48.3038 58.2658C48.7838 58.1253 49.2831 58.2512 49.7522 58.1369C49.7585 58.1601 49.7568 58.1857 49.7638 58.209C49.9136 58.682 50.5458 58.6634 50.7029 58.209C50.9667 57.4469 50.85 56.3507 50.7713 55.5621ZM48.2995 57.3911C48.3221 56.3706 48.4174 53.8902 49.4482 54.4619C49.9322 54.7306 49.808 55.9574 49.7963 56.4005C49.7897 56.6517 49.7502 56.9244 49.7213 57.1978C49.2761 57.138 48.744 57.232 48.2995 57.3911Z" fill="black"/>
<path d="M50.9758 26.3431C50.9014 26.1598 50.7632 26.0817 50.5676 26.1116C49.9756 26.2016 49.1727 26.1701 48.9093 26.8281C48.8681 26.9308 48.8538 27.0441 48.8312 27.154C48.7213 26.5763 48.4113 26.1455 47.6808 26.2036C47.0314 26.2554 46.8723 26.9351 46.8228 27.4646C46.8191 27.3995 46.8224 27.3344 46.8188 27.2696C46.8035 26.9866 46.8248 26.6039 46.6344 26.372C46.1348 25.7621 44.7682 25.5313 44.4244 26.393C44.1158 27.166 44.2769 28.5459 44.6669 29.2734C44.6868 29.3106 44.7223 29.3285 44.7532 29.3528C44.6788 29.5149 44.736 29.7375 44.9582 29.7079C45.8594 29.588 46.7769 29.7634 46.8401 28.6276C46.8723 28.8688 46.9387 29.0837 47.0271 29.2724C46.9563 29.376 46.9487 29.5162 47.0905 29.587C47.4098 29.7454 47.7307 29.8066 48.0818 29.8604C48.307 29.8949 48.5336 29.8069 48.5987 29.5671C48.6814 29.2608 48.7917 28.7761 48.8495 28.2715C48.9083 28.5409 48.9887 28.8027 49.1036 29.0302C49.1282 29.0787 49.168 29.0854 49.1996 29.1166C49.1435 29.2452 49.1647 29.4116 49.3082 29.5033C50.0417 29.9697 50.8496 29.7674 51.1011 28.8881C51.3226 28.1141 51.2755 27.0853 50.9758 26.3431ZM45.9518 28.2167C45.9358 28.4443 45.9066 28.6678 45.9043 28.896C45.9039 28.9376 45.5807 29.0219 45.2944 29.097C45.3724 28.6094 45.2851 28.1154 45.2645 27.6244C45.2522 27.3241 45.2751 27.0338 45.307 26.7361C45.3286 26.5355 45.9933 26.6913 45.9983 26.774C46.0278 27.2507 45.9857 27.741 45.9518 28.2167ZM48.1296 27.055C48.1104 27.349 48.0894 27.6214 48.024 27.9111C47.9373 28.2938 47.8499 28.6871 47.8097 29.0814C47.7855 29.0844 47.7612 29.0867 47.7373 29.0897C47.7323 28.8266 47.6699 28.5499 47.6519 28.3041C47.6131 27.7756 47.6021 27.3347 47.6758 26.8129C47.6925 26.6956 47.7008 26.684 47.832 26.6401C48.1818 26.5229 48.1389 26.9112 48.1296 27.055ZM50.2048 28.4177C50.1507 28.8043 50.0782 29.0033 49.8009 28.9974C49.8477 28.914 49.873 28.8163 49.8567 28.7127C49.7756 28.1928 49.4404 27.5507 49.6677 27.0271C49.7105 26.9281 49.7451 26.8268 49.7979 26.7321C49.9653 26.4298 50.2131 26.7195 50.3131 26.4146C50.25 26.6079 50.2364 26.7966 50.2277 26.9986C50.2078 27.4706 50.2709 27.9473 50.2048 28.4177Z" fill="black"/>
<path d="M47.8188 33.3231C47.8105 33.0275 47.5238 32.7773 47.2248 32.8707C46.7581 33.0162 46.216 32.9936 45.732 32.9843C45.4636 32.9786 45.2609 33.2069 45.2523 33.4636C45.2174 34.4964 45.146 35.9112 45.6413 36.8463C45.7619 37.0742 45.9888 37.0898 46.1735 36.9995C46.4768 37.0968 46.8239 37.0792 47.1385 37.1197C47.3607 37.149 47.5477 36.9467 47.6125 36.759C47.9812 35.6877 47.8507 34.439 47.8188 33.3231ZM46.8455 33.8251C46.7977 34.6233 46.7232 35.4189 46.6771 36.2145C46.5904 36.2305 46.509 36.255 46.4243 36.278C46.4013 35.8667 46.3303 35.4538 46.294 35.0459C46.2602 34.6592 46.2489 34.2705 46.2333 33.8822C46.4386 33.8536 46.6405 33.8457 46.8455 33.8251Z" fill="black"/>
<path d="M50.7062 33.3936C50.7185 33.0972 50.4501 32.8501 50.1627 32.8501C49.786 32.8501 49.4116 32.8694 49.0376 32.9112C48.9496 32.9209 48.8805 32.9697 48.8177 33.0218C48.8001 33.0222 48.7881 33.0052 48.7695 33.0152C48.0862 33.3856 47.9749 34.3974 47.9061 35.0831C47.8194 35.9481 47.8673 37.059 48.7967 37.4174C49.7186 37.7728 50.4052 36.8324 50.5733 36.0554C50.7633 35.1768 50.6696 34.2818 50.7062 33.3936ZM49.1362 36.3251C48.9117 36.4899 48.7981 35.2568 48.7914 35.0831C48.7762 34.706 48.729 34.1157 48.7964 33.6381C48.8389 33.667 48.8632 33.7088 48.928 33.7204C49.1495 33.7603 49.3671 33.8091 49.5857 33.852C49.5628 34.2015 49.5442 34.5509 49.5096 34.8994C49.4777 35.2249 49.4286 36.1109 49.1362 36.3251Z" fill="black"/>
</g>
<defs>
<clipPath id="clip0_19_18894">
<rect width="60" height="60" fill="white" transform="translate(0.000488281 0.530029)"/>
</clipPath>
</defs>
</svg>
