<svg width="60" height="60" viewBox="0 0 60 60" fill="none" xmlns="http://www.w3.org/2000/svg">
<g clip-path="url(#clip0_19_15914)">
<path d="M45.2234 27.0675C43.6634 13.1836 39.491 -1.32246 30.4841 0.0963173C20.4133 1.68317 16.4052 13.3871 14.8174 21.999C14.4525 23.9783 14.2249 25.9833 14.0496 27.9946C3.73728 26.7138 3.50692 41.8675 3.50098 48.7974C3.50035 49.3843 3.88846 49.8081 4.41522 49.998C7.47343 51.101 11.3185 51.5755 14.5176 50.5589C14.5592 50.6303 14.583 50.7204 14.6274 50.7883C14.8925 51.1955 15.4665 51.2049 15.7298 50.7883C15.809 50.6635 15.8712 50.5185 15.9414 50.3827C16.3007 50.6907 16.7057 50.9445 17.1063 51.2034C16.8165 51.1176 16.4199 51.2434 16.2903 51.5646C15.6306 53.2009 15.0966 54.9721 13.9839 56.3661C13.4966 56.9771 13.5933 57.9868 14.4687 58.2027C18.2484 59.1351 22.1817 58.7486 26.0237 59.1661C26.1714 59.3339 26.3532 59.4675 26.5579 59.4995C29.2875 59.9329 32.0334 59.984 34.7914 59.9996C35.3423 60.0027 35.7886 59.6037 35.9204 59.0922C38.6008 59.2982 41.3194 59.0447 43.9726 58.6929C44.6953 58.5971 45.2684 58.0434 45.064 57.26C44.6769 55.7736 44.1767 54.1642 43.3633 52.8056C44.1795 52.2938 44.7561 51.62 44.9485 50.7358C44.9817 50.5818 44.9748 50.4403 44.9511 50.3051C44.9748 50.2926 44.9914 50.2669 45.014 50.2525C49.3548 52.3113 52.804 51.076 54.7501 48.1348C54.9251 48.0309 55.0359 47.8522 55.0612 47.6516C55.9251 46.1367 56.4262 44.2394 56.4897 42.1348C56.7088 34.8725 52.5351 27.4472 45.2234 27.0675ZM7.07813 36.3389C8.24777 36.3667 9.41772 36.3949 10.5877 36.4234C11.5824 36.4478 12.6763 36.6253 13.6737 36.466C13.6684 36.9739 13.6528 37.4835 13.6515 37.9899C12.9836 37.9264 12.2371 37.9927 11.7363 37.9736C10.2672 37.917 8.71569 37.7455 7.25027 37.9023C6.65215 37.9664 6.65904 38.7558 7.25027 38.8268C9.31538 39.0753 11.6008 39.1207 13.6209 39.2685C13.6005 39.7958 13.5742 40.3492 13.5432 40.9358C11.1144 40.8153 8.66029 40.8725 6.23494 40.8938C6.39174 39.3289 6.65466 37.7758 7.07813 36.3389ZM6.15231 41.8415C7.09253 42.025 8.08439 42.0494 9.02336 42.1198C10.4788 42.2287 11.993 42.43 13.4719 42.4415C13.4572 42.7861 13.4418 43.1298 13.4331 43.4791C12.5188 43.4143 11.5072 43.5627 10.6885 43.5639C9.14167 43.5674 7.59894 43.5045 6.05653 43.4131C6.07876 42.8938 6.11256 42.3683 6.15231 41.8415ZM6.01929 44.444C7.38423 44.6196 8.76264 44.6929 10.1373 44.762C11.0781 44.8096 12.3326 45.0369 13.4187 44.9533C13.423 45.3045 13.4334 45.6538 13.4509 45.9987C11.8127 45.8985 10.1558 45.9298 8.51444 45.8682C7.92414 45.8459 6.8437 45.6256 5.99644 45.717C6.00051 45.3007 6.00802 44.8753 6.01929 44.444ZM5.98987 47.8722C5.98924 47.5805 5.98924 47.2728 5.98924 46.9661C6.72132 47.1045 7.62743 47.04 8.12883 47.081C9.89347 47.2253 11.7382 47.5079 13.5097 47.4203C13.536 47.419 13.5536 47.4071 13.5783 47.404C13.6149 47.6885 13.6484 47.9761 13.701 48.2472C11.0575 48.3946 8.61178 48.6002 5.98987 47.8722ZM13.6913 35.2588C12.6891 35.0941 11.588 35.2741 10.5877 35.2985C9.5232 35.3245 8.45904 35.3498 7.39456 35.3749C7.70317 34.5298 8.08877 33.7483 8.54793 33.0372C9.29096 33.0697 10.034 33.0991 10.7761 33.1423C11.7464 33.1993 12.7567 33.4635 13.7379 33.4829C13.7213 34.075 13.7022 34.6672 13.6913 35.2588ZM13.7777 32.189C13.1047 32.0384 12.4021 32.0478 11.6935 32.0131C10.9107 31.9746 10.1273 31.9771 9.34417 31.9937C10.4575 30.7389 11.9291 29.8541 13.911 29.5808C13.8522 30.4497 13.8115 31.3192 13.7777 32.189ZM32.7968 3.21995C31.3698 3.05688 29.8496 3.12104 28.4202 3.20086C30.055 2.47535 31.5079 2.56424 32.7968 3.21995ZM25.1558 5.55109C25.7216 4.99616 26.2697 4.53043 26.8008 4.14577C26.8259 4.15046 26.8356 4.173 26.8634 4.17394C28.1849 4.23059 29.5069 4.25719 30.8277 4.32636C32.095 4.39272 33.3645 4.65219 34.6324 4.61744C34.9545 4.95172 35.265 5.31948 35.5623 5.72042C32.1523 5.20618 28.6011 5.71917 25.0982 5.61306C25.1185 5.59334 25.1354 5.57081 25.1558 5.55109ZM35.7614 6.72042C35.921 6.69225 36.0086 6.57644 36.0631 6.44217C36.1955 6.64561 36.3273 6.85031 36.4543 7.06502C35.7354 7.30133 35.0155 7.51854 34.2957 7.72449C30.7091 7.48474 27.003 7.46283 23.4024 7.52824C23.6819 7.18521 23.9698 6.84749 24.2672 6.51604C27.9761 7.16205 32.2086 7.34765 35.7614 6.72042ZM22.8327 8.27347C25.0609 8.36048 27.3251 8.60117 29.5839 8.76799C27.2619 9.10164 24.9079 9.14295 22.4922 8.72449C22.5999 8.5705 22.7201 8.42464 22.8327 8.27347ZM16.3889 33.0218C16.6331 25.1821 17.598 16.3614 21.9129 9.58771C26.188 11.7771 33.337 11.8077 37.5182 9.11353C39.716 13.8728 40.9457 20.06 41.4966 23.2619C42.5248 29.2309 43.1216 34.9411 43.1329 40.989C43.1348 42.025 43.0944 43.0954 43.064 44.1708C38.3977 44.7574 34.3767 45.4322 29.5758 44.9789C26.459 44.6847 23.3532 44.1066 20.285 43.4973C19.1457 43.271 18.0653 42.8725 16.9683 42.9298C16.8462 39.3145 16.3119 35.4938 16.3889 33.0218ZM25.1392 56.7267C22.1921 56.4919 19.2437 56.5295 16.3019 56.2146C16.8312 54.7592 17.2209 53.2581 17.4259 51.7182C17.4456 51.5702 17.4086 51.4606 17.3482 51.3736C19.6321 52.7677 22.475 53.4553 25.3166 53.8159C25.4878 54.8046 25.3723 55.7714 25.1392 56.7267ZM27.8252 57.3636C27.757 57.0538 27.6866 56.7458 27.6165 56.439C27.7501 55.6516 27.8099 54.8572 27.7329 54.0625C29.1088 54.1671 30.4415 54.2225 31.6584 54.275C32.1379 54.2954 32.8061 54.3257 33.5727 54.3445C33.5401 54.8566 33.5958 55.4027 33.5968 55.839C33.5983 56.4353 33.6002 57.0322 33.6014 57.6284C31.6725 57.6337 29.7398 57.5965 27.8252 57.3636ZM35.9827 57.6024C35.9842 57.0146 35.9861 56.4272 35.9874 55.8394C35.9883 55.4027 36.044 54.8566 36.0115 54.3448C37.7332 54.2976 39.6118 54.1279 41.2086 53.6926C41.6587 54.6747 42.1129 55.6337 42.485 56.6412C40.3173 56.9577 38.1479 57.27 35.9827 57.6024ZM30.4108 51.7195C26.1464 51.5714 20.3495 51.3135 16.4822 49.0212C16.8459 47.7307 16.968 46.1768 16.9802 44.5373C20.1388 46.5558 26.5216 46.8284 29.5764 47.1908C33.2731 47.6297 39.6184 48.6838 43.0578 46.2481C43.0756 47.3984 43.1392 48.5401 43.367 49.634C39.1855 51.6591 35.0753 51.881 30.4108 51.7195ZM54.023 40.8685C54.0246 40.886 54.0243 40.9063 54.0262 40.9239C53.2021 40.948 52.3507 41.0735 51.6512 41.0926C49.7598 41.1445 47.8678 41.1743 45.9833 41.3307C45.9883 40.6525 45.9795 39.9292 45.9711 39.2056C48.4293 39.6788 51.3022 40.0359 53.8813 39.8369C53.9282 40.1808 53.9924 40.5176 54.023 40.8685ZM53.6781 38.5473C52.7138 38.5239 51.741 38.5918 50.778 38.5908C49.1983 38.5893 47.6324 38.4609 46.0594 38.3473C46.0183 38.3442 45.9977 38.3749 45.962 38.3824C45.9454 37.5329 45.9163 36.6516 45.8794 35.7555C47.1097 35.9339 48.3435 36.0926 49.6027 36.1836C50.4722 36.2466 51.9517 36.5383 53.039 36.2954C53.2944 37.0199 53.5188 37.7649 53.6781 38.5473ZM52.013 34.034C52.1667 34.3048 52.3188 34.5774 52.4543 34.8631C50.2737 34.8306 47.9968 34.947 45.8522 35.1639C45.8306 34.6891 45.7964 34.1955 45.7695 33.7113C46.7116 33.8156 47.6653 33.9085 48.6343 33.9392C49.5454 33.9683 50.9836 34.2613 52.013 34.034ZM45.4262 29.029C46.6672 29.3063 47.7529 29.7855 48.7054 30.4171C47.6869 30.3364 46.6644 30.2381 45.6421 30.2422C45.5961 30.2425 45.562 30.2588 45.521 30.2669C45.4919 29.8572 45.4665 29.4506 45.4262 29.029ZM45.6421 31.4641C46.6014 31.4926 47.5579 31.6149 48.511 31.7214C49.0681 31.7836 49.8346 31.9871 50.5025 31.9962C50.6841 32.1955 50.8813 32.3783 51.0481 32.5915C50.2008 32.599 49.2834 32.7536 48.6346 32.7743C47.6518 32.8056 46.685 32.9001 45.7301 33.0065C45.6988 32.4991 45.6537 31.9758 45.6118 31.4566C45.623 31.4578 45.6306 31.4635 45.6421 31.4641ZM51.9917 48.085C50.2287 49.4165 47.6669 48.5029 45.6343 48.229C45.6706 47.9361 45.6997 47.5846 45.7313 47.2519C47.8306 47.4409 49.9388 47.8062 52.0384 48.0409C52.0212 48.0538 52.0093 48.0716 51.9917 48.085ZM53.2334 46.6002C50.8468 46.1314 48.1952 46.0879 45.8196 46.2015C45.859 45.6459 45.891 45.0444 45.9173 44.4134C48.4387 44.8359 51.2834 45.1627 53.8111 44.9527C53.6772 45.5323 53.5029 46.0944 53.2334 46.6002ZM54.0359 43.5101C52.7648 43.4347 51.4744 43.5636 50.2002 43.5702C48.7798 43.5774 47.3645 43.4994 45.9486 43.4243C45.9617 42.9833 45.9701 42.5235 45.977 42.0553C47.655 42.1933 49.3367 42.2503 51.0215 42.2963C51.8919 42.3201 53.0202 42.5048 54.0712 42.5107C54.0672 42.8419 54.0637 43.1736 54.0359 43.5101Z" fill="black"/>
<path d="M37.8276 21.2998C36.8783 17.3543 32.9635 14.4854 28.9566 14.7139C24.397 14.974 19.9669 19.2945 20.8395 24.0166C21.7281 28.826 26.1794 31.5477 30.8292 30.6895C31.0787 30.8513 31.402 30.908 31.7797 30.7847C36.0859 29.3784 38.9485 25.9574 37.8276 21.2998ZM29.4164 17.0889C30.719 17.0166 31.9259 17.4845 32.935 18.2463C32.2032 18.1149 31.448 18.0629 30.7231 17.9962C29.4639 17.8801 28.1995 17.8081 26.9353 17.7336C27.7447 17.3712 28.596 17.1343 29.4164 17.0889ZM31.1278 28.4181C30.6301 28.579 30.3869 28.9515 30.3146 29.3543C28.0173 29.2203 25.8959 28.2131 24.5237 26.4942C25.37 26.574 26.3143 26.5343 26.7372 26.5756C28.7729 26.7737 31.2621 27.5771 33.2752 27.2325C33.7666 27.1483 33.8279 26.4047 33.4123 26.1865C31.4952 25.1818 28.3384 25.5433 26.2233 25.4576C26.0999 25.4526 24.7682 25.364 23.8411 25.4563C23.5779 24.9649 23.3488 24.4463 23.2026 23.8704C23.1588 23.6973 23.1353 23.5274 23.1125 23.3574C24.5165 23.7145 26.2746 23.6726 27.4355 23.7887C29.3945 23.984 32.8402 24.8839 34.6777 23.8601C35.3203 23.502 34.8439 22.6745 34.2154 22.7637C32.2405 23.0435 29.9453 22.7258 27.9585 22.6369C26.6298 22.5775 24.6314 22.753 23.0727 22.5199C23.1785 20.7793 24.3519 19.2967 25.8671 18.3158C27.0633 18.5127 28.2693 18.6538 29.4715 18.8059C31.0711 19.0081 32.693 19.5546 34.2956 19.6128C34.5644 19.9665 34.8114 20.3355 35.0107 20.7258C33.7344 19.939 31.206 20.2973 29.8361 20.2369C27.9272 20.1527 25.5369 19.7458 23.806 20.6053C23.5193 20.7477 23.7284 21.1584 24.0139 21.0983C24.3128 21.035 25.1463 21.2535 25.5134 21.2742C26.7998 21.3462 28.0833 21.457 29.3672 21.5637C30.6527 21.6704 31.9369 21.7944 33.2211 21.9152C33.8311 21.9728 34.551 22.153 35.0896 21.764C35.1954 21.6876 35.273 21.5668 35.3256 21.4379C35.3391 21.4735 35.3591 21.5073 35.3716 21.543C36.5935 24.9324 34.1923 27.4272 31.1278 28.4181Z" fill="black"/>
<path d="M29.6261 33.6698C29.0596 33.5587 28.6586 33.8776 28.499 34.2842C27.1109 34.4501 26.001 35.461 25.6123 36.9208C25.0417 39.0638 26.648 40.7108 28.6858 40.9765C30.7425 41.2448 32.9344 40.2391 33.1087 37.9602C33.2689 35.8632 31.6229 34.062 29.6261 33.6698ZM28.9497 39.057C26.6267 38.8926 27.2821 36.3164 28.6899 35.2964C28.7973 35.4013 28.9281 35.4926 29.1078 35.5484C30.1065 35.8554 31.0727 36.4773 31.1422 37.62C31.2201 38.8792 29.9391 39.1271 28.9497 39.057Z" fill="black"/>
</g>
<defs>
<clipPath id="clip0_19_15914">
<rect width="60" height="60" fill="white"/>
</clipPath>
</defs>
</svg>
