<svg width="60" height="60" viewBox="0 0 60 60" fill="none" xmlns="http://www.w3.org/2000/svg">
<g clip-path="url(#clip0_10_150)">
<path d="M51.379 10.3125H34.129L30.1915 18.1875H8.0665V25.6875H0.941498L8.0665 49.6875H55.3165V10.3125H51.379ZM37.879 14.25H51.1915V18.1875H36.004L37.879 14.25ZM48.1915 25.6875H12.379V22.125H51.379V36.375L48.1915 25.6875Z" fill="#B6C133"/>
<path d="M58.5771 34.6146H43.6915C43.1755 33.4515 42.3287 32.466 41.2566 31.7808C40.1845 31.0956 38.9345 30.7409 37.6623 30.7611C36.3901 30.7812 35.152 31.1752 34.1021 31.8939C33.0522 32.6127 32.237 33.6245 31.758 34.8032C31.2791 35.982 31.1575 37.2756 31.4085 38.523C31.6595 39.7704 32.2719 40.9163 33.1695 41.8181C34.0671 42.7198 35.2102 43.3376 36.4564 43.5944C37.7026 43.8511 38.9968 43.7356 40.1777 43.2621C41.7743 42.6488 43.1107 41.5039 43.9615 40.0202H58.5659C58.2555 38.2313 58.2593 36.4021 58.5771 34.6146ZM37.7496 40.2883C37.162 40.2883 36.5876 40.1141 36.0989 39.7877C35.6103 39.4613 35.2294 38.9974 35.0043 38.4546C34.7793 37.9118 34.7202 37.3144 34.8346 36.738C34.9489 36.1616 35.2316 35.6321 35.6469 35.2163C36.0621 34.8006 36.5913 34.5172 37.1675 34.4021C37.7438 34.287 38.3412 34.3453 38.8843 34.5697C39.4274 34.7941 39.8918 35.1744 40.2188 35.6626C40.5458 36.1508 40.7207 36.7251 40.7215 37.3127C40.7222 37.7033 40.6459 38.0903 40.4968 38.4514C40.3478 38.8125 40.129 39.1407 39.8529 39.4171C39.5769 39.6935 39.249 39.9127 38.8881 40.0622C38.5271 40.2117 38.1403 40.2886 37.7496 40.2883Z" fill="white"/>
<path d="M47.3271 26.1582C45.1298 24.183 42.3926 22.9092 39.4664 22.5002C36.5403 22.0912 33.5587 22.5656 30.904 23.8625C28.2493 25.1594 26.0425 27.2198 24.5667 29.7794C23.0908 32.339 22.4132 35.281 22.6207 38.2283C22.8282 41.1756 23.9114 43.9937 25.7313 46.3212C27.5512 48.6487 30.0249 50.3796 32.8352 51.2918C35.6454 52.2039 38.6641 52.2558 41.504 51.4409C44.344 50.6259 46.8757 48.9811 48.7746 46.7176" stroke="white" stroke-width="3.75" stroke-miterlimit="10"/>
</g>
<defs>
<clipPath id="clip0_10_150">
<rect width="60" height="60" fill="white" transform="translate(0.0039978)"/>
</clipPath>
</defs>
</svg>
