<svg width="32" height="32" viewBox="0 0 32 32" fill="none" xmlns="http://www.w3.org/2000/svg">
<path d="M16 7C9.9 7 5 11.9 5 18C5 24.1 9.9 29 16 29C22.1 29 27 24.1 27 18C27 11.9 22.1 7 16 7ZM19 16C19 15.4 19.4 15 20 15C20.6 15 21 15.4 21 16V17C21 17.6 20.6 18 20 18C19.4 18 19 17.6 19 17V16ZM11 16C11 15.4 11.4 15 12 15C12.6 15 13 15.4 13 16V17C13 17.6 12.6 18 12 18C11.4 18 11 17.6 11 17V16ZM16 27C12.6 27 9.7 25 9.7 22.5C9.7 20.3 12 18.4 15 18.1V20C15 20.6 15.4 21 16 21C16.6 21 17 20.6 17 20V18.1C20 18.4 22.3 20.3 22.3 22.5C22.3 25 19.4 27 16 27Z" fill="black"/>
<path d="M11.2 5.9C10.3 5.3 9.2 5 8 5C4.7 5 2 7.7 2 11C2 12.4 2.5 13.8 3.4 14.8C4.4 10.8 7.4 7.5 11.2 5.9Z" fill="black"/>
<path d="M24 5C22.8 5 21.7 5.3 20.8 5.9C24.6 7.4 27.6 10.7 28.6 14.8C29.5 13.7 30 12.4 30 11C30 7.7 27.3 5 24 5Z" fill="black"/>
</svg>
