<svg width="512" height="512" viewBox="0 0 512 512" fill="none" xmlns="http://www.w3.org/2000/svg">
<g clip-path="url(#clip0_10_467)">
<path d="M256.004 512C397.389 512 512.004 397.385 512.004 256C512.004 114.615 397.389 0 256.004 0C114.619 0 0.00402832 114.615 0.00402832 256C0.00402832 397.385 114.619 512 256.004 512Z" fill="#E1E5EA"/>
<path d="M64.004 353.176V120.672C64.004 116.544 67.532 113.168 71.836 113.168H440.164C444.468 113.168 447.996 116.544 447.996 120.672V353.168H64.004V353.176Z" fill="black"/>
<path d="M448.004 353.176V385.176C448.004 389.576 444.476 393.176 440.172 393.176H71.836C67.532 393.176 64.004 389.576 64.004 385.176V353.176H448.004Z" fill="#636363"/>
<path d="M200.004 449.176H312.004L304.004 393.176H208.004L200.004 449.176Z" fill="#C9C9C9"/>
<path d="M304.004 393.176H208.004L203.02 428.08L305.868 406.224L304.004 393.176Z" fill="#AAAAAA"/>
<path d="M340.004 449.2H172.004V457.2H340.004V449.2Z" fill="#636363"/>
<path d="M208.004 393.176H304.004L304.548 396.96L205.516 410.624L208.004 393.176Z" fill="#939393"/>
<path d="M401.164 34.9922H110.844V109.912H401.164V34.9922Z" fill="#E1E5EA"/>
<path d="M242.556 146.48H110.844V221.4H242.556V146.48Z" fill="#DB2B42"/>
<path d="M242.556 244.944H110.844V319.864H242.556V244.944Z" fill="#8AD5DD"/>
<path d="M401.164 146.48H269.452V221.4H401.164V146.48Z" fill="#DB2B42"/>
<path d="M401.164 244.944H269.452V319.864H401.164V244.944Z" fill="#8AD5DD"/>
<path d="M488.588 511.977H365.052C360.972 511.977 357.636 508.64 357.636 504.56V272.312C357.636 268.233 360.972 264.896 365.052 264.896H488.588C492.668 264.896 496.004 268.233 496.004 272.312V504.56C496.004 508.64 492.668 511.977 488.588 511.977Z" fill="black"/>
<path d="M488.588 284.672H365.052V482.336H488.588V284.672Z" fill="black"/>
<path d="M441.516 277.257H411.868C410.508 277.257 409.396 276.144 409.396 274.784C409.396 273.424 410.508 272.312 411.868 272.312H441.516C442.876 272.312 443.988 273.424 443.988 274.784C443.988 276.144 442.876 277.257 441.516 277.257Z" fill="#999999"/>
<path d="M441.644 497.153H411.996C410.636 497.153 409.524 496.041 409.524 494.681C409.524 493.321 410.636 492.209 411.996 492.209H441.644C443.004 492.209 444.116 493.321 444.116 494.681C444.116 496.041 443.004 497.153 441.644 497.153Z" fill="#999999"/>
<path d="M422.324 302.328H379.844V341.784H422.324V302.328Z" fill="#DB2B42"/>
<path d="M473.78 302.328H431.3V341.784H473.78V302.328Z" fill="#DB2B42"/>
<path d="M422.324 351.544H379.844V391H422.324V351.544Z" fill="#8AD5DD"/>
<path d="M473.78 351.544H431.3V391H473.78V351.544Z" fill="#8AD5DD"/>
<path d="M473.732 460.72H379.844V464.72H473.732V460.72Z" fill="#C9C9C9"/>
<path d="M473.732 444.984H379.844V448.984H473.732V444.984Z" fill="#C9C9C9"/>
<path d="M473.732 429.28H379.844V433.28H473.732V429.28Z" fill="#C9C9C9"/>
<path d="M473.732 413.584H379.844V417.584H473.732V413.584Z" fill="#C9C9C9"/>
</g>
<defs>
<clipPath id="clip0_10_467">
<rect width="512" height="512" fill="white" transform="translate(0.00402832)"/>
</clipPath>
</defs>
</svg>
