<svg width="512" height="513" viewBox="0 0 512 513" fill="none" xmlns="http://www.w3.org/2000/svg">
<g clip-path="url(#clip0_19_18906)">
<path d="M205.975 18.6812C238.304 18.6812 264.517 44.8939 264.517 77.2231C264.517 109.552 238.304 135.765 205.975 135.765C205.66 135.765 205.334 135.765 205.019 135.753L148.342 66.8311C153.258 39.465 177.187 18.6812 205.975 18.6812Z" fill="#EAB932"/>
<path d="M264.517 77.2232C264.517 109.552 238.304 135.753 205.975 135.753C200.767 135.753 195.711 135.078 190.9 133.796C181.335 124.581 175.393 111.649 175.393 97.3197C175.393 69.3244 198.088 46.6416 226.071 46.6416C240.401 46.6416 253.333 52.5832 262.56 62.1479C263.841 66.9594 264.517 72.0156 264.517 77.2232Z" fill="#FFD039"/>
<path d="M407.728 36.3335H393.748V66.6227H407.728V36.3335Z" fill="#CCCCCC"/>
<path d="M417.343 57.3013H384.14V95.1642H417.343V57.3013Z" fill="#E6E6E6"/>
<path d="M439.187 87.0093V158.658H362.296V87.0093H384.14H417.343H439.187Z" fill="#CCCCCC"/>
<path d="M458.398 148.172V470.497H419.964L343.073 385.451V385.439V148.172H362.296H439.187H458.398Z" fill="#E6E6E6"/>
<path d="M406.924 168.564H394.547V447.001H406.924V168.564Z" fill="#4D4D4D"/>
<path d="M435.467 168.559H423.09V447H435.467V168.559Z" fill="#4D4D4D"/>
<path d="M378.381 168.559H366.004V447H378.381V168.559Z" fill="#4D4D4D"/>
<path d="M396.662 103.408H379.187V131.769H396.662V103.408Z" fill="#4D4D4D"/>
<path d="M422.29 103.408H404.815V131.769H422.29V103.408Z" fill="#4D4D4D"/>
<path d="M126.975 225.378H53.5911V470.497H126.975V225.378Z" fill="#BCA2A2"/>
<path d="M205.02 135.753V470.496H174.741H114.16V225.378V66.8311H148.342H205.02V135.753Z" fill="#E6E6E6"/>
<path d="M140.737 81.8398H127.553V455.5H140.737V81.8398Z" fill="#4D4D4D"/>
<path d="M166.182 81.8398H152.998V455.5H166.182V81.8398Z" fill="#4D4D4D"/>
<path d="M191.628 81.8398H178.445V455.5H191.628V81.8398Z" fill="#4D4D4D"/>
<path d="M93.6559 263.509C93.6559 268.332 89.7414 272.246 84.9183 272.246H53.5911V254.771H84.9183C89.7414 254.771 93.6559 258.685 93.6559 263.509Z" fill="#4D4D4D"/>
<path d="M93.6559 427.776C93.6559 432.599 89.7414 436.513 84.9183 436.513H53.5911V419.038H84.9183C89.7414 419.038 93.6559 422.953 93.6559 427.776Z" fill="#4D4D4D"/>
<path d="M93.6559 394.922C93.6559 399.745 89.7414 403.66 84.9183 403.66H53.5911V386.185H84.9183C89.7414 386.185 93.6559 390.099 93.6559 394.922Z" fill="#4D4D4D"/>
<path d="M93.6559 296.362C93.6559 301.185 89.7414 305.1 84.9183 305.1H53.5911V287.625H84.9183C89.7414 287.625 93.6559 291.539 93.6559 296.362Z" fill="#4D4D4D"/>
<path d="M93.6559 362.069C93.6559 366.892 89.7414 370.806 84.9183 370.806H53.5911V353.331H84.9183C89.7414 353.331 93.6559 357.245 93.6559 362.069Z" fill="#4D4D4D"/>
<path d="M93.6559 329.216C93.6559 334.039 89.7414 337.953 84.9183 337.953H53.5911V320.478H84.9183C89.7414 320.478 93.6559 324.392 93.6559 329.216Z" fill="#4D4D4D"/>
<path d="M265.6 385.439V385.45L254.835 470.496H205.019H174.741V192.827H205.019H265.6V385.439Z" fill="#CCCCCC"/>
<path d="M226.359 215.163H213.982V444.671H226.359V215.163Z" fill="#4D4D4D"/>
<path d="M254.902 215.16H242.525V444.67H254.902V215.16Z" fill="#4D4D4D"/>
<path d="M197.816 215.16H185.439V444.67H197.816V215.16Z" fill="#4D4D4D"/>
<path d="M419.964 385.451V470.497H343.074H265.6H235.31V385.451H265.6H343.074H419.964Z" fill="#BCA2A2"/>
<path d="M400.45 399.043H254.824V409.596H400.45V399.043Z" fill="#4D4D4D"/>
<path d="M400.45 420.367H254.824V430.92H400.45V420.367Z" fill="#4D4D4D"/>
<path d="M400.45 441.693H254.824V452.246H400.45V441.693Z" fill="#4D4D4D"/>
<path d="M512 494.379H0.000488281C0.000488281 488.904 1.48006 483.766 4.07803 479.362C9.22739 470.566 18.7805 464.671 29.7083 464.671H482.293C490.494 464.671 497.927 467.992 503.298 473.374C505.08 475.157 506.641 477.172 507.923 479.362C510.509 483.766 512 488.904 512 494.379Z" fill="#B3B3B3"/>
<path d="M512 494.379H0.000488281C0.000488281 488.904 1.48006 483.766 4.07803 479.362H507.923C510.509 483.766 512 488.904 512 494.379Z" fill="#999999"/>
</g>
<defs>
<clipPath id="clip0_19_18906">
<rect width="512" height="512" fill="white" transform="translate(0.000488281 0.530273)"/>
</clipPath>
</defs>
</svg>
