<svg width="60" height="60" viewBox="0 0 60 60" fill="none" xmlns="http://www.w3.org/2000/svg">
<g clip-path="url(#clip0_15_5589)">
<path d="M30.0001 60.0001C46.5686 60.0001 60.0001 46.5686 60.0001 30.0001C60.0001 13.4315 46.5686 0 30.0001 0C13.4315 0 0 13.4315 0 30.0001C0 46.5686 13.4315 60.0001 30.0001 60.0001Z" fill="#B6E2EB"/>
<path d="M19.1204 15.6718C19.1218 15.6628 19.1223 15.6557 19.1242 15.6462C19.1223 15.6552 19.1218 15.6632 19.1204 15.6718Z" fill="#4EA3B1"/>
<path d="M14.8755 33.9748C14.857 33.9781 14.838 33.9824 14.8195 33.9852C14.9677 34.9814 15.1923 35.9491 15.4836 36.8824C16.4538 36.2235 17.7238 36.0942 18.8972 36.1761C18.7532 35.8024 18.6266 35.4187 18.5121 35.0293C17.9118 34.4892 16.395 33.7162 14.8755 33.9748Z" fill="#4EA3B1"/>
<path d="M46.1966 26.8228C46.2051 26.8219 46.2137 26.8209 46.2222 26.82C44.1193 19.3914 36.9237 13.5173 31.2245 13.6172C25.7205 13.7143 20.7972 15.5936 19.1303 15.8379C19.1303 15.8379 19.1246 15.8224 19.1199 15.7996C19.1313 15.9459 19.199 16.0862 19.3283 16.1757L31.7016 19.5462C31.9314 19.7072 32.2474 19.6499 32.4074 19.4192L31.8754 16.4732C37.0056 16.9872 41.2739 20.8602 42.8697 26.0866C43.785 26.5699 44.9754 26.9445 46.1966 26.8228Z" fill="#4EA3B1"/>
<path d="M17.5196 40.4116C17.3978 40.5006 17.2776 40.5982 17.1596 40.7001C17.9521 42.0639 18.9057 43.3012 19.9924 44.3774C20.0952 44.0445 20.2283 43.7318 20.3988 43.4481C20.8967 42.62 21.7641 42.071 22.673 41.7029C22.0046 41.1056 21.3902 40.4376 20.8416 39.7066C20.0247 39.5612 18.5922 39.6275 17.5196 40.4116Z" fill="#4EA3B1"/>
<path d="M15.1758 27.4348C14.9731 28.2126 14.8062 28.9886 14.7049 29.7139C15.7958 29.5936 16.9087 29.9697 17.8854 30.505C17.8887 30.0715 17.9143 29.641 17.9526 29.2127C17.532 28.6087 16.4756 27.6859 15.1758 27.4348Z" fill="#4EA3B1"/>
<path d="M39.2236 44.8749C39.4221 45.161 39.6532 45.4401 39.9308 45.693C41.1614 44.7381 42.267 43.5997 43.2135 42.3102C42.0832 41.8275 41.1827 40.8669 40.4897 39.8252C39.9071 40.5851 39.2533 41.2762 38.5399 41.8873C38.4576 42.7389 38.5756 43.9336 39.2236 44.8749Z" fill="#4EA3B1"/>
<path d="M17.1786 21.6187C17.0383 21.954 16.7613 22.6301 16.4382 23.5012C17.361 23.8347 18.1867 24.4922 18.8607 25.197C18.9848 24.8655 19.1203 24.5391 19.2667 24.2179C19.0929 23.5353 18.3733 22.2624 17.1786 21.6187Z" fill="#4EA3B1"/>
<path d="M45.4846 37.8227C45.5254 37.836 45.5665 37.8488 45.6078 37.8616C46.2477 36.1473 46.6505 34.2988 46.7773 32.367C46.6243 32.395 46.4713 32.4195 46.3183 32.4352C45.3561 32.5323 44.3941 32.3197 43.4868 31.9421C43.3816 33.2084 43.1278 34.4272 42.7417 35.5765C43.2933 36.4253 44.2416 37.4055 45.4846 37.8227Z" fill="#4EA3B1"/>
<path d="M31.7788 47.8708C31.9314 48.1962 32.119 48.5221 32.369 48.8234C33.7493 48.6666 35.0776 48.3137 36.3335 47.794C36.0597 47.5473 35.8167 47.281 35.6177 46.9911C35.0455 46.1589 34.8774 45.1044 34.8986 44.0698C33.8725 44.4634 32.7882 44.716 31.6632 44.8079C31.415 45.5803 31.2843 46.8101 31.7788 47.8708Z" fill="#4EA3B1"/>
<path d="M23.4458 45.6263C23.2511 45.9521 23.0787 46.3122 22.9764 46.7196C24.4866 47.6396 26.1451 48.2957 27.9001 48.6395C27.5619 47.3088 27.9641 45.7754 28.4236 44.6206C27.5795 44.4514 26.7643 44.1909 25.9859 43.8474C25.2401 44.0222 24.0682 44.5884 23.4458 45.6263Z" fill="#4EA3B1"/>
<path d="M19.1242 15.6465C19.1384 15.5849 19.1625 15.5247 19.2004 15.4697C19.1558 15.5371 19.1359 15.5944 19.1242 15.6465Z" fill="#67B8CB"/>
<path d="M19.1189 15.7997C19.1151 15.7571 19.1127 15.7144 19.1203 15.6719C19.1118 15.7272 19.1128 15.7718 19.1189 15.7997Z" fill="#67B8CB"/>
<path d="M15.494 23.2823C15.819 23.3102 16.1326 23.3908 16.4377 23.5012C16.7613 22.63 17.0384 21.954 17.1781 21.6186C17.0933 21.5727 17.0127 21.5215 16.9237 21.4826C15.9971 21.0828 14.8739 20.8422 13.4069 21.6608C13.0114 22.422 12.665 23.2055 12.3747 24.0085C13.4283 23.4717 14.4988 23.1955 15.494 23.2823Z" fill="#67B8CB"/>
<path d="M31.224 13.6173C36.9232 13.5173 44.1188 19.3913 46.2217 26.8201C47.2998 26.7102 48.4514 26.4028 49.4823 25.3563C47.1919 17.2217 39.7484 11.2247 30.9115 11.1355L30.3202 7.86026C30.0905 7.69922 29.7745 7.75657 29.6149 7.98724L19.2004 15.47C19.1625 15.5249 19.1384 15.5851 19.1242 15.6467C19.1223 15.6562 19.1218 15.6633 19.1204 15.6723C19.1128 15.7149 19.1152 15.7576 19.119 15.8001C19.1242 15.8229 19.1294 15.8385 19.1294 15.8385C20.7968 15.5935 25.7201 13.7148 31.224 13.6173Z" fill="#67B8CB"/>
<path d="M45.6073 37.8617C46.541 38.1563 47.6087 38.3012 48.8541 37.7693C49.7143 35.5897 50.196 33.2211 50.2098 30.7432C49.1084 31.5792 47.9417 32.1544 46.7764 32.3676C46.6505 34.2994 46.2474 36.1472 45.6073 37.8617Z" fill="#67B8CB"/>
<path d="M19.9929 44.3776C18.9058 43.3017 17.9522 42.0639 17.1601 40.7002C16.5272 41.2477 15.9887 42.0138 15.8919 43.2861C17.025 44.6106 18.3287 45.7845 19.773 46.7674C19.7068 45.9077 19.7731 45.0924 19.9929 44.3776Z" fill="#67B8CB"/>
<path d="M27.8996 48.6391C26.1451 48.2953 24.4866 47.6396 22.9759 46.7192C22.8442 47.2427 22.839 47.8495 23.0673 48.5705C24.7921 49.3081 26.6438 49.8026 28.5794 50.0139C28.3917 49.7661 28.2298 49.5075 28.1042 49.2369C28.0152 49.045 27.9517 48.8437 27.8996 48.6391Z" fill="#67B8CB"/>
<path d="M15.389 36.9413C15.4188 36.9196 15.4529 36.9039 15.4837 36.8831C15.1923 35.9494 14.9678 34.9817 14.8195 33.9858C13.8252 34.1659 12.7626 34.5766 11.9611 35.975C12.3334 37.2801 12.8371 38.5297 13.4594 39.7083C13.8963 38.5335 14.5429 37.5576 15.389 36.9413Z" fill="#67B8CB"/>
<path d="M32.369 48.8233C32.7215 49.2478 33.2065 49.6202 33.9176 49.865C35.2753 49.639 36.5846 49.2724 37.8329 48.7812C37.2644 48.5059 36.758 48.1763 36.334 47.7939C35.0778 48.3136 33.7495 48.6666 32.369 48.8233Z" fill="#67B8CB"/>
<path d="M43.5234 42.4287C43.4182 42.3936 43.315 42.3539 43.2136 42.3103C42.2672 43.5997 41.1616 44.7381 39.9309 45.6931C40.4027 46.1214 41.0199 46.4638 41.9062 46.586C43.4591 45.4932 44.8446 44.1804 46.0195 42.6925C45.1299 42.7645 44.2838 42.685 43.5234 42.4287Z" fill="#67B8CB"/>
<path d="M14.7049 29.7138C14.8063 28.9891 14.9731 28.2126 15.1758 27.4348C15.0555 27.4111 14.9361 27.3841 14.8115 27.3733C13.7523 27.2862 12.5471 27.4187 11.3572 28.7826L11.3123 28.7437C11.2521 29.369 11.2105 29.9976 11.2105 30.632C11.2105 30.9521 11.2195 31.2695 11.2347 31.586C12.2352 30.6026 13.3564 29.9243 14.5008 29.732C14.5685 29.7204 14.6367 29.7213 14.7049 29.7138Z" fill="#67B8CB"/>
</g>
<defs>
<clipPath id="clip0_15_5589">
<rect width="60" height="60" fill="white"/>
</clipPath>
</defs>
</svg>
