<svg width="512" height="512" viewBox="0 0 512 512" fill="none" xmlns="http://www.w3.org/2000/svg">
<path d="M504.865 124.396H456.398L486.253 87.0127H504.865V124.396Z" fill="#666666"/>
<path d="M498.351 149.931V192.281H372.641L372.145 192.219C374.093 175.194 388.549 149.931 406.094 149.931H498.351Z" fill="#808080"/>
<path d="M512 158.244H419.743C402.198 158.244 387.742 171.472 385.794 188.496C385.633 189.787 385.558 191.102 385.558 192.442V199.813L349.886 199.845L276.476 208.25L269.858 208.664L262.529 207.01L234.817 205.808C207.965 205.808 185.261 219.604 185.261 243.825C185.261 252.908 189.344 261.135 195.945 267.091C201.119 271.757 207.845 275.033 215.377 276.211C217.436 276.546 219.558 276.72 221.73 276.72V276.894H214.173C187.83 276.894 165.197 295.581 160.209 321.44L143.122 409.949C141.435 418.672 133.791 424.988 124.907 424.988H62.5298C43.4456 424.988 29.027 407.716 32.4145 388.942L54.8738 264.411C55.519 260.862 55.8292 257.326 55.8292 253.851C55.8292 228.948 40.0085 206.637 16.631 198.324C12.9705 197.021 9.12391 196.053 5.1284 195.482L7.26265 171.72C10.464 136.145 40.2815 108.884 76.0053 108.884H511.826L512 158.244Z" fill="#999999"/>
<path d="M53.695 114.573C48.0293 108.611 40.0196 104.887 31.134 104.887C13.9433 104.887 0 118.831 0 136.022C0 146.762 5.42868 156.239 13.7051 161.817" fill="#666666"/>
<path d="M58.4722 388.942L80.9314 264.411C81.5767 260.862 81.8869 257.326 81.8869 253.851C81.8869 225.051 60.7181 199.713 31.1861 195.482L33.3203 171.72C36.5217 136.145 66.3391 108.884 102.063 108.884H76.0053C40.2815 108.884 10.464 136.145 7.26265 171.72L5.1284 195.482C34.6604 199.713 55.8292 225.051 55.8292 253.851C55.8292 257.326 55.519 260.862 54.8738 264.411L32.4145 388.942C29.027 407.716 43.4456 424.988 62.5298 424.988H88.5874C69.5033 424.988 55.0847 407.716 58.4722 388.942Z" fill="#808080"/>
<path d="M243.953 205.798V205.932C226.604 220.746 225.377 250.026 242.119 265.319H223.802V265.3V265.185C214.666 265.185 206.395 262.334 200.421 257.735C194.435 253.127 190.734 246.762 190.734 239.734C190.734 220.995 210.469 205.807 234.817 205.807L243.953 205.798Z" fill="#666666"/>
<path d="M145.567 424.988H73.7494C68.6099 424.988 64.4431 420.821 64.4431 415.682C64.4431 410.542 68.6099 406.375 73.7494 406.375H145.567C150.706 406.375 154.873 410.542 154.873 415.682C154.873 420.821 150.706 424.988 145.567 424.988Z" fill="#808080"/>
<path d="M342.389 108.884H260.345L204.06 199.937L286.127 199.901L342.389 108.884Z" fill="#CCCCCC"/>
<path d="M380.706 108.884L324.496 199.813L346.186 199.825C346.496 199.813 346.819 199.813 347.142 199.813H357.428L413.638 108.884H380.706Z" fill="#CCCCCC"/>
<path d="M16.631 198.324C40.0085 206.637 55.8292 228.948 55.8292 253.851C55.8292 257.326 55.519 260.862 54.8738 264.411L32.4145 388.942C29.027 407.716 43.4456 424.988 62.5298 424.988H124.907C133.791 424.988 141.435 418.672 143.122 409.949L160.209 321.44C165.178 295.68 187.658 277.044 213.87 276.9C235.462 278.431 260.904 278.666 260.904 278.666C283.943 278.666 304.381 263.839 311.515 241.929L317.303 224.184C317.328 224.108 317.354 224.019 317.393 223.943C322.089 209.854 335.088 200.232 349.889 199.825H37.4089L16.631 198.324ZM292.257 218.513C295.866 218.509 298.426 222.032 297.307 225.463L293.815 236.167C289.223 250.273 276.271 259.809 261.474 260.048C243.83 258.825 222.896 256.525 211.974 254.402C207.404 253.514 203.916 249.604 203.874 244.948C203.874 244.911 203.874 244.874 203.874 244.837C203.874 230.364 217.835 218.589 235.018 218.589L245.328 218.577L292.257 218.513Z" fill="#808080"/>
<path d="M95.3538 277.738C83.6675 277.738 73.6576 286.104 71.5829 297.605L54.3948 392.908C53.7967 396.223 55.2621 398.58 56.189 399.689C57.1147 400.796 59.1671 402.653 62.5298 402.653H106.941C115.558 402.653 122.964 396.54 124.598 388.08L138.278 317.21C139.76 309.532 142.358 302.303 145.883 295.673C150.208 287.54 144.118 277.738 134.907 277.738H95.3538Z" fill="#666666"/>
</svg>
