<svg width="60" height="60" viewBox="0 0 60 60" fill="none" xmlns="http://www.w3.org/2000/svg">
<path fill-rule="evenodd" clip-rule="evenodd" d="M8.44688 13.8469C4.725 13.8563 4.6875 16.0313 4.6875 17.4094V35.25L24.0281 19.3031C24.0281 19.3031 18.7781 13.8094 8.44688 13.8375V13.8469Z" fill="#FECCC7"/>
<path fill-rule="evenodd" clip-rule="evenodd" d="M55.2937 35.2594H55.3125C55.3125 33.4969 55.3031 30.7125 54.9187 29.7562C54.0281 27.5344 51.9656 23.6531 47.7 20.8312L33.5812 17.4375C20.3062 18.1125 8.45623 27.2344 5.79373 30.7125C4.8656 31.9219 4.6781 33.9469 4.6781 35.2406H55.2937V35.2594Z" fill="#FFDED4"/>
<path fill-rule="evenodd" clip-rule="evenodd" d="M32.7187 29.8407C32.7187 29.8407 38.7281 27.2438 45.2156 29.8407L46.1812 54.1126H12.1687L16.5468 31.4907L32.7093 29.8407H32.7187Z" fill="#62D9FA"/>
<path fill-rule="evenodd" clip-rule="evenodd" d="M55.3125 36.5908C55.3125 33.7876 55.3125 29.8408 49.35 29.8408C49.35 29.8408 46.8375 29.8595 45.2156 29.8408C42.5813 29.822 39.2625 30.422 35.0906 31.9783C28.4719 34.7064 21.2813 41.5033 33.0094 44.5501C39.9 46.3408 42.3188 49.322 43.1438 51.4876C43.6688 52.8564 44.7094 54.1126 46.1906 54.1126L53.0531 46.9033L55.3219 37.5751V36.5908H55.3125Z" fill="#9AF6D3"/>
<path fill-rule="evenodd" clip-rule="evenodd" d="M6.30938 54.122C5.40938 54.122 4.6875 53.4001 4.6875 52.5001V35.2501C4.6875 34.1626 5.05313 29.8876 9.975 29.8501H32.7188C32.7188 29.8501 23.1375 33.197 19.0031 40.7813C15.2813 47.6063 21.1031 54.122 12.1781 54.122H6.30938Z" fill="#9AF6D3"/>
<path fill-rule="evenodd" clip-rule="evenodd" d="M55.3124 44.5408V37.5752C54.5531 37.6314 53.8312 37.9221 53.2406 38.4002L51.2531 39.9939C50.6437 40.4908 50.3156 41.2596 50.3906 42.0377L50.6249 44.5689L55.3218 44.5502L55.3124 44.5408Z" fill="#FCBFAD"/>
<path fill-rule="evenodd" clip-rule="evenodd" d="M52.7907 44.0066C52.2469 43.9878 51.7125 44.0909 51.2063 44.3066L48.8625 45.3003C48.1407 45.6097 47.6157 46.2566 47.475 47.0347L46.1813 54.1128H53.6907C54.5907 54.1128 55.3125 53.3909 55.3125 52.4909V44.5409L53.5875 44.1191C53.325 44.0534 53.0532 44.0159 52.7813 44.0066H52.7907Z" fill="#FECCBA"/>
<path fill-rule="evenodd" clip-rule="evenodd" d="M31.0781 8.94385C29.8594 8.94385 28.875 9.92822 28.875 11.147C28.875 12.3657 29.8594 13.3501 31.0781 13.3501H36.1406C36.9937 13.3501 37.6781 14.0438 37.6781 14.897C37.6781 15.7501 36.9937 16.4345 36.1406 16.4438H35.4281C34.2094 16.4438 33.225 17.4282 33.225 18.647C33.225 19.8657 34.2094 20.8501 35.4281 20.8501H51.6469C52.8656 20.8501 53.85 19.8657 53.85 18.647C53.85 17.4282 52.8656 16.4438 51.6469 16.4438H47.3437C46.4906 16.4438 45.7969 15.7501 45.7969 14.897C45.7969 14.0438 46.4906 13.3501 47.3437 13.3501H48.6281C49.8469 13.3501 50.8313 12.3657 50.8313 11.147C50.8313 9.92822 49.8469 8.94385 48.6281 8.94385H31.0781Z" fill="#D1F1F4"/>
<path fill-rule="evenodd" clip-rule="evenodd" d="M13.3687 5.8877H19.35C20.5312 5.8877 21.4781 6.83457 21.4781 8.01582C21.4781 9.19707 20.5312 10.1439 19.35 10.1439H13.3687C12.1875 10.1439 11.2406 9.19707 11.2406 8.01582C11.2406 6.83457 12.1875 5.8877 13.3687 5.8877Z" fill="#D1F1F4"/>
<path fill-rule="evenodd" clip-rule="evenodd" d="M12.5063 36.1875C11.9906 36.1875 11.5688 36.6094 11.5688 37.125V37.7344C11.2594 37.575 10.875 37.3781 10.875 37.3781C10.3782 37.2563 9.86253 37.5656 9.74065 38.0625C9.7219 38.1375 9.71252 38.2125 9.71252 38.2875C9.71252 38.7188 10.0125 39.0938 10.425 39.1969C10.425 39.1969 11.2406 39.3094 11.6063 40.5375C11.7281 40.9313 12.0938 41.2031 12.5063 41.2031C12.9188 41.2031 13.2844 40.9313 13.4063 40.5375C13.7813 39.3188 14.5875 39.1969 14.5875 39.1969C15 39.0938 15.3 38.7188 15.3 38.2875C15.3 38.2125 15.3 38.1375 15.2719 38.0625C15.15 37.5656 14.6344 37.2563 14.1375 37.3781C14.1375 37.3781 13.7531 37.575 13.4438 37.7344V37.125C13.4438 36.6094 13.0219 36.1875 12.5063 36.1875Z" fill="#6DF4C0"/>
<path fill-rule="evenodd" clip-rule="evenodd" d="M38.7281 37.5376C38.2125 37.5376 37.7906 37.9595 37.7906 38.4751V39.0845C37.4812 38.9251 37.0969 38.7282 37.0969 38.7282C36.6 38.6063 36.0844 38.9157 35.9625 39.4126C35.8406 39.9095 36.15 40.4251 36.6469 40.547C36.6469 40.547 37.4625 40.6595 37.8281 41.8876C37.95 42.2813 38.3156 42.5532 38.7281 42.5532C39.1406 42.5532 39.5062 42.2813 39.6281 41.8876C40.0031 40.6688 40.8094 40.547 40.8094 40.547C41.3062 40.4251 41.6156 39.9095 41.4937 39.4126C41.3906 39.0001 41.0156 38.7001 40.5844 38.7001C40.5094 38.7001 40.4344 38.7001 40.3594 38.7282C40.3594 38.7282 39.975 38.9251 39.6656 39.0845V38.4751C39.6656 37.9595 39.2437 37.5376 38.7281 37.5376Z" fill="#6DF4C0"/>
<path fill-rule="evenodd" clip-rule="evenodd" d="M46.6312 33.1973C46.1156 33.1973 45.6937 33.6191 45.6937 34.1348V34.7441C45.3843 34.5848 44.9999 34.3879 44.9999 34.3879C44.5031 34.266 43.9874 34.5754 43.8656 35.0723C43.7437 35.5691 44.0531 36.0848 44.5499 36.2066C44.5499 36.2066 45.3656 36.3191 45.7312 37.5473C45.8531 37.941 46.2187 38.2129 46.6312 38.2129C47.0437 38.2129 47.4093 37.941 47.5312 37.5473C47.9062 36.3285 48.7124 36.2066 48.7124 36.2066C49.2093 36.0848 49.5187 35.5691 49.3968 35.0723C49.2749 34.5754 48.7593 34.266 48.2624 34.3879C48.2624 34.3879 47.8781 34.5848 47.5687 34.7441V34.1348C47.5687 33.6191 47.1468 33.1973 46.6312 33.1973Z" fill="#6DF4C0"/>
</svg>
