<svg width="60" height="60" viewBox="0 0 60 60" fill="none" xmlns="http://www.w3.org/2000/svg">
<path d="M20.8922 43.9875C20.8922 43.9875 22.1438 47.3532 21.4219 48.5391C20.6953 49.7251 17.7938 49.4954 16.9031 50.0579C16.2656 50.461 16.275 51.5766 16.6735 52.036C17.0672 52.5001 22.8094 52.1016 23.9344 49.9266C25.0594 47.7516 23.5313 43.5891 23.5313 43.5891L20.8922 43.9875Z" fill="#F97D23"/>
<path d="M30.061 43.5891L27.6188 44.1188C27.6188 44.1188 28.6735 48.5391 27.8156 49.9922C26.9578 51.4454 23.8828 52.9969 23.3297 54.2157C22.8328 55.3032 24.0563 56.1938 25.9688 55.0079C27.8813 53.8219 30.0469 52.05 30.4547 51.1782C31.4485 49.0688 30.061 43.5891 30.061 43.5891Z" fill="#F97D23"/>
<path d="M13.3688 10.2656C8.17505 11.4328 4.12973 15.8109 5.64848 22.4719C6.54848 26.4234 7.10161 27.8156 7.42973 29.5969C8.12348 33.3422 7.93598 34.9875 9.52036 38.4187C11.2032 42.0703 17.3954 46.7578 25.1157 45.6328C32.836 44.5078 35.9391 43.4531 35.9391 43.4531L38.7094 41.0109L41.3485 40.35L41.7422 38.4375C41.7422 38.4375 43.7157 38.3484 44.1188 37.7109C44.7563 36.6984 44.3813 35.8641 43.261 35.4656C42.1407 35.0719 41.4797 34.7391 41.4797 34.7391C41.4797 34.7391 52.3688 27.5438 53.686 26.7563C55.0032 25.9688 57.0516 24.6094 57.15 24.1172C57.3985 22.8656 54.0141 20.0906 49.5938 18.7734C45.1735 17.4516 41.3766 17.0906 40.7532 17.5875C39.9235 18.2391 36.2672 25.1109 33.825 24.7828C30.6563 24.3516 28.4813 21.3844 27.886 19.7016C27.211 17.7938 23.1563 8.06719 13.3688 10.2656Z" fill="#36B4E1"/>
<path d="M6.70312 20.5595C5.91093 20.4282 3.88593 22.5845 3.49218 23.1095C3.09843 23.6345 2.47499 24.3891 2.69999 24.9563C3.05156 25.8376 4.85624 25.8845 5.91093 25.9688C7.01249 26.0579 9.12187 26.2313 9.47343 25.5751C9.82499 24.9141 9.07968 23.2454 8.46093 22.2329C7.88906 21.2907 7.52812 20.7001 6.70312 20.5595Z" fill="#F97D23"/>
<path d="M15.3331 22.4713C16.3663 22.3466 17.0943 21.3371 16.9591 20.2165C16.8239 19.0959 15.8767 18.2885 14.8435 18.4132C13.8102 18.5379 13.0823 19.5473 13.2175 20.6679C13.3527 21.7886 14.2999 22.5959 15.3331 22.4713Z" fill="#2A2D2F"/>
<path d="M21.286 34.5517C20.3719 34.8845 21.5719 38.1142 22.8047 39.5673C24.1032 41.0954 27.2438 44.5267 32.0438 44.9767C35.3016 45.286 36.7501 44.3626 37.5188 43.5235C38.0907 42.9001 38.7047 42.1782 39.1266 41.8501C39.7407 41.3673 40.3594 41.7845 41.4141 41.0157C42.1735 40.4626 42.3376 39.5438 42.736 39.211C43.1297 38.8829 43.8001 38.9579 44.1422 38.6392C44.7563 38.0673 44.6719 36.3938 44.2313 36.3095C43.7907 36.2251 43.7485 37.4954 43.3079 37.6735C42.8672 37.8517 42.2813 37.7392 41.461 38.2032C40.7579 38.597 40.9782 39.3892 40.4954 39.7407C40.0126 40.0923 39.1313 39.6095 37.9454 40.2704C37.3032 40.6267 36.7594 42.3376 34.9079 42.736C32.611 43.2282 29.1657 41.5548 27.5157 40.3595C23.686 37.5845 22.8469 33.9798 21.286 34.5517Z" fill="#026AA8"/>
</svg>
