<svg width="60" height="61" viewBox="0 0 60 61" fill="none" xmlns="http://www.w3.org/2000/svg">
<path d="M42.5 47.6211H17.5C16.5151 47.6211 15.5398 47.4271 14.6299 47.0502C13.7199 46.6733 12.8931 46.1209 12.1967 45.4244C11.5002 44.728 10.9478 43.9012 10.5709 42.9912C10.194 42.0813 9.99998 41.106 10 40.1211C10 39.3581 11.4793 38.3841 11.4793 37.6211C11.4793 36.8581 10 36.5663 10 35.1211V32.6211C10 27.9798 11.8437 23.5286 15.1256 20.2467C18.4075 16.9648 22.8587 15.1211 27.5 15.1211H32.5C37.1413 15.1211 41.5925 16.9648 44.8744 20.2467C48.1563 23.5286 50 27.9798 50 32.6211V35.1211C50 36.4101 48.5208 36.8581 48.5208 37.6211C48.5208 38.3841 50 38.9883 50 40.1211C50 41.106 49.806 42.0813 49.4291 42.9912C49.0522 43.9012 48.4998 44.728 47.8033 45.4244C47.1069 46.1209 46.2801 46.6733 45.3701 47.0502C44.4602 47.4271 43.4849 47.6211 42.5 47.6211Z" fill="#D9E3E6"/>
<path d="M36.25 55.1212H23.75C22.7554 55.1212 21.8016 54.7261 21.0983 54.0229C20.3951 53.3196 20 52.3658 20 51.3712V45.1212C21.875 45.1212 24.529 43.4312 27.0918 39.9477C27.9173 39.2875 28.9429 38.9277 30 38.9277C31.0571 38.9277 32.0827 39.2875 32.9082 39.9477C35.4707 43.431 38.125 45.1212 40 45.1212V51.3712C40 52.3658 39.6049 53.3196 38.9017 54.0229C38.1984 54.7261 37.2446 55.1212 36.25 55.1212Z" fill="#D9E3E6"/>
<path d="M26.9245 46.7581C27.3926 45.4454 28.0259 44.1976 28.8093 43.0449C28.9287 42.8484 29.0967 42.686 29.2971 42.5733C29.4975 42.4606 29.7236 42.4014 29.9535 42.4014C30.1834 42.4014 30.4095 42.4606 30.6099 42.5733C30.8103 42.686 30.9783 42.8484 31.0978 43.0449C31.8821 44.1972 32.5159 45.4451 32.9838 46.7581C33.0381 46.9583 33.0452 47.1684 33.0045 47.3717C32.9638 47.5751 32.8764 47.7663 32.7491 47.9301C32.6219 48.0939 32.4584 48.2259 32.2714 48.3158C32.0844 48.4056 31.8792 48.4507 31.6718 48.4476C30.361 48.4476 30.6745 46.9269 30 46.9386C29.2913 46.9519 29.5073 48.4476 28.2353 48.4476C28.0279 48.4508 27.8226 48.4058 27.6356 48.316C27.4486 48.2262 27.2851 48.0941 27.158 47.9302C27.0308 47.7663 26.9435 47.5751 26.903 47.3717C26.8625 47.1683 26.8699 46.9582 26.9245 46.7581Z" fill="#738394"/>
<path d="M45.06 40.5699C44.4893 41.7809 42.6673 42.0397 39.9438 42.1329C37.377 42.2189 35.4308 43.1229 34.2123 37.8224C33.834 36.4604 36.4665 35.4464 39.5128 34.1669C46.2408 31.3412 46.4583 38.9192 45.06 40.5699Z" fill="#738394"/>
<path d="M14.866 40.5699C15.437 41.7809 17.2585 42.0397 19.9822 42.1329C22.5487 42.2189 24.4952 43.1229 25.7137 37.8224C26.092 36.4604 23.4595 35.4464 20.4132 34.1669C13.685 31.3412 13.4675 38.9192 14.866 40.5699Z" fill="#738394"/>
<path d="M31.25 52.6211H28.75V55.1211H31.25V52.6211Z" fill="#738394"/>
<path d="M26.25 52.6211H23.75V55.1211H26.25V52.6211Z" fill="#738394"/>
<path d="M36.25 52.6211H33.75V55.1211H36.25V52.6211Z" fill="#738394"/>
<path d="M50 25.1211H10V32.6211H50V25.1211Z" fill="#FA6D62"/>
<path d="M52.5 27.6211H7.5C6.83696 27.6211 6.20107 27.3577 5.73223 26.8889C5.26339 26.42 5 25.7841 5 25.1211C5 23.795 5.52678 22.5232 6.46447 21.5856C7.40215 20.6479 8.67392 20.1211 10 20.1211H50C51.3261 20.1211 52.5979 20.6479 53.5355 21.5856C54.4732 22.5232 55 23.795 55 25.1211C55 25.7841 54.7366 26.42 54.2678 26.8889C53.7989 27.3577 53.163 27.6211 52.5 27.6211Z" fill="#4B5661"/>
<path d="M47.5 25.1211H12.5V22.6211C12.5 17.9798 14.3437 13.5286 17.6256 10.2467C20.9075 6.96484 25.3587 5.12109 30 5.12109C34.6413 5.12109 39.0925 6.96484 42.3744 10.2467C45.6563 13.5286 47.5 17.9798 47.5 22.6211V25.1211Z" fill="#4B5661"/>
<path d="M33.0936 12.4564L24.255 21.2949L26.9064 23.9464L35.745 15.1078L33.0936 12.4564Z" fill="white"/>
<path d="M26.9068 12.4562L24.2552 15.1074L33.0931 23.9466L35.7448 21.2954L26.9068 12.4562Z" fill="white"/>
</svg>
