<svg width="60" height="60" viewBox="0 0 60 60" fill="none" xmlns="http://www.w3.org/2000/svg">
<g clip-path="url(#clip0_10_182)">
<path fill-rule="evenodd" clip-rule="evenodd" d="M17.504 28.75V38.37C17.5044 39.4521 17.9059 40.4956 18.6308 41.299C19.3557 42.1024 20.3526 42.6087 21.429 42.72L36.5665 44.2875L39.0815 47.2225C39.4923 47.7017 40.002 48.0864 40.5755 48.35C41.149 48.6137 41.7728 48.7501 42.404 48.75H45.629C46.7893 48.75 47.9021 48.2891 48.7226 47.4686C49.5431 46.6481 50.004 45.5353 50.004 44.375V38.75H58.129C58.6263 38.75 59.1032 38.5525 59.4548 38.2008C59.8065 37.8492 60.004 37.3723 60.004 36.875C60.004 36.3777 59.8065 35.9008 59.4548 35.5492C59.1032 35.1975 58.6263 35 58.129 35H50.004V18.75H58.129C58.6263 18.75 59.1032 18.5525 59.4548 18.2008C59.8065 17.8492 60.004 17.3723 60.004 16.875C60.004 16.3777 59.8065 15.9008 59.4548 15.5492C59.1032 15.1975 58.6263 15 58.129 15H50.004V9.375C50.004 8.21468 49.5431 7.10188 48.7226 6.28141C47.9021 5.46094 46.7893 5 45.629 5H42.404C41.129 5 39.914 5.5575 39.0815 6.5275L36.5665 9.4625L21.429 11.0275C20.3526 11.1388 19.3557 11.6451 18.6308 12.4485C17.9059 13.2519 17.5044 14.2954 17.504 15.3775V25H7.3465C5.39892 25.0007 3.53133 25.7748 2.15441 27.1522C0.7775 28.5296 0.00399769 30.3974 0.0039978 32.345L0.0039978 53.125C0.0039978 53.6223 0.201542 54.0992 0.553173 54.4508C0.904803 54.8025 1.38172 55 1.879 55C2.37628 55 2.85319 54.8025 3.20482 54.4508C3.55645 54.0992 3.754 53.6223 3.754 53.125V32.3425C3.754 30.36 5.364 28.75 7.349 28.75H17.504ZM41.929 8.9675C41.9878 8.89912 42.0607 8.84428 42.1427 8.80674C42.2247 8.7692 42.3138 8.74984 42.404 8.75H45.629C45.7948 8.75 45.9537 8.81585 46.0709 8.93306C46.1882 9.05027 46.254 9.20924 46.254 9.375V44.375C46.254 44.5408 46.1882 44.6997 46.0709 44.8169C45.9537 44.9342 45.7948 45 45.629 45H42.404C42.3138 45.0002 42.2247 44.9808 42.1427 44.9433C42.0607 44.9057 41.9878 44.8509 41.929 44.7825L38.929 41.28C38.6161 40.9149 38.1748 40.684 37.6965 40.635L21.814 38.9925C21.6602 38.9764 21.5178 38.9039 21.4143 38.7889C21.3109 38.6739 21.2538 38.5247 21.254 38.37V15.38C21.2538 15.2253 21.3109 15.0761 21.4143 14.9611C21.5178 14.8461 21.6602 14.7736 21.814 14.7575L37.6965 13.115C38.1739 13.0654 38.6142 12.8345 38.9265 12.47L41.929 8.97V8.9675Z" fill="black"/>
</g>
<defs>
<clipPath id="clip0_10_182">
<rect width="60" height="60" fill="white" transform="translate(0.0039978)"/>
</clipPath>
</defs>
</svg>
