<svg width="60" height="60" viewBox="0 0 60 60" fill="none" xmlns="http://www.w3.org/2000/svg">
<g clip-path="url(#clip0_14_5298)">
<path d="M57.2696 9.09229C56.5516 9.09229 55.848 9.38315 55.3409 9.89045C54.8337 10.3995 54.5426 11.1012 54.5426 11.8195C54.5426 12.5376 54.8337 13.2394 55.3409 13.7485C55.848 14.2557 56.5516 14.5467 57.2696 14.5467C57.9878 14.5467 58.6897 14.2558 59.197 13.7485C59.7061 13.2413 59.9968 12.5377 59.9968 11.8195C59.9968 11.1012 59.706 10.3978 59.197 9.89045C58.6897 9.38315 57.9859 9.09229 57.2696 9.09229Z" fill="#6E76E5"/>
<path d="M41.7053 0.801875C41.1981 1.3073 40.907 2.0109 40.907 2.72902C40.907 3.44715 41.1981 4.15074 41.7053 4.65805C42.2125 5.16523 42.9161 5.45621 43.6341 5.45621C44.3504 5.45621 45.0541 5.16535 45.5614 4.65805C46.0705 4.15086 46.3612 3.44727 46.3612 2.72902C46.3612 2.01078 46.0704 1.30906 45.5614 0.801875C45.0543 0.292813 44.3507 0.00195312 43.6341 0.00195312C42.9162 0.00195312 42.2126 0.292813 41.7053 0.801875Z" fill="#6E76E5"/>
<path d="M31.9259 13.7485C32.4349 13.2413 32.7257 12.5377 32.7257 11.8195C32.7257 11.1012 32.4348 10.3995 31.9259 9.89045C31.4187 9.38326 30.7168 9.09229 29.9985 9.09229C29.2805 9.09229 28.5769 9.38315 28.0697 9.89045C27.5625 10.3995 27.2714 11.1012 27.2714 11.8195C27.2714 12.5377 27.5625 13.2412 28.0697 13.7485C28.5769 14.2557 29.2805 14.5467 29.9985 14.5467C30.7148 14.5465 31.4187 14.2557 31.9259 13.7485Z" fill="#6E76E5"/>
<path d="M0.798632 28.0711C0.291445 28.5802 0.000350952 29.2819 0.000350952 30.0001C0.000350952 30.7183 0.291445 31.4219 0.798632 31.9292C1.30582 32.4363 2.00941 32.7273 2.72742 32.7273C3.44379 32.7273 4.14738 32.4365 4.65644 31.9292C5.16363 31.422 5.45461 30.7184 5.45461 30.0001C5.45461 29.282 5.16375 28.5802 4.65644 28.0711C4.14738 27.5639 3.44379 27.2729 2.72742 27.2729C2.00953 27.2729 1.30594 27.5638 0.798632 28.0711Z" fill="#6E76E5"/>
<path d="M24.4336 28.0711C23.9264 28.5802 23.6353 29.2819 23.6353 30.0001C23.6353 30.7183 23.9264 31.4219 24.4336 31.9292C24.9408 32.4363 25.6444 32.7273 26.3624 32.7273C27.0788 32.7273 27.7825 32.4365 28.2914 31.9292C28.7986 31.4201 29.0896 30.7184 29.0896 30.0001C29.0896 29.282 28.7987 28.5802 28.2914 28.0711C27.7823 27.5639 27.0806 27.2729 26.3624 27.2729C25.6445 27.2729 24.9409 27.5638 24.4336 28.0711Z" fill="#6E76E5"/>
<path d="M12.6162 37.1614C12.109 37.6705 11.8179 38.3722 11.8179 39.0905C11.8179 39.8087 12.109 40.5104 12.6162 41.0195C13.1234 41.5267 13.8269 41.8177 14.545 41.8177C15.2631 41.8177 15.965 41.5268 16.4723 41.0195C16.9814 40.5104 17.2721 39.8087 17.2721 39.0905C17.2721 38.3722 16.9813 37.6705 16.4723 37.1614C15.9652 36.6543 15.2633 36.3633 14.545 36.3633C13.8269 36.3633 13.1234 36.6541 12.6162 37.1614Z" fill="#6E76E5"/>
<path d="M46.3608 54.5443V47.9385H43.6337H40.9066V54.5443H43.6337H46.3608Z" fill="#A78966"/>
<path d="M2.72707 59.9981H43.6337H57.2693C58.7754 59.9981 59.9964 58.7771 59.9964 57.271C59.9964 55.7647 58.7754 54.5439 57.2693 54.5439H46.3609H43.6338H40.9066H2.72707C1.22098 54.5439 0 55.7647 0 57.271C0 58.7771 1.22098 59.9981 2.72707 59.9981Z" fill="#368B4C"/>
<path d="M21.4209 19.2152C19.5791 17.7384 18.5228 15.5397 18.5228 13.1834V13.1832C18.5228 10.8264 19.5792 8.62789 21.4212 7.15086C22.0668 6.63324 22.4422 5.85055 22.4422 5.0232C22.4422 4.19586 22.0666 3.41316 21.4211 2.89555C19.0939 1.02957 16.1672 0.00195312 13.1804 0.00195312C5.91293 0.00195312 0 5.91488 0 13.183V13.1832C0 20.4512 5.91293 26.364 13.1804 26.364C16.1672 26.364 19.0937 25.3364 21.4208 23.4704C22.0664 22.9528 22.442 22.1701 22.442 21.3427C22.4422 20.5153 22.0665 19.7328 21.4209 19.2152Z" fill="#6E76E5"/>
<path d="M21.4211 7.15063C22.0666 6.63301 22.4421 5.85031 22.4421 5.02297C22.4421 4.19563 22.0665 3.41293 21.4209 2.89531C19.0939 1.02957 16.1672 0.00195312 13.1804 0.00195312C5.91293 0.00195312 0 5.91488 0 13.183H18.5227C18.5227 10.8264 19.5792 8.62766 21.4211 7.15063Z" fill="#424EDE"/>
<path d="M59.6453 45.0171L46.0729 17.8722C45.611 16.9483 44.6667 16.3647 43.6337 16.3647C42.6007 16.3647 41.6564 16.9483 41.1946 17.8722L27.5591 45.1433C27.1364 45.9887 27.1815 46.9926 27.6784 47.7965C28.1753 48.6005 29.0532 49.0899 29.9982 49.0899H40.9066H43.6337H46.3608H57.2692C57.2702 49.0899 57.2714 49.0899 57.2728 49.0899C58.7791 49.0899 59.9999 47.869 59.9999 46.3629C60 45.8734 59.8711 45.4144 59.6453 45.0171Z" fill="#A4E276"/>
<path d="M41.1946 17.8724L27.5591 45.1434C27.1364 45.9888 27.1815 46.9928 27.6784 47.7967C28.1753 48.6006 29.0532 49.0901 29.9982 49.0901H40.9066H43.6337V16.3647C42.6007 16.3647 41.6564 16.9483 41.1946 17.8724Z" fill="#64C37D"/>
</g>
<defs>
<clipPath id="clip0_14_5298">
<rect width="60" height="60" fill="white"/>
</clipPath>
</defs>
</svg>
