<svg width="60" height="60" viewBox="0 0 60 60" fill="none" xmlns="http://www.w3.org/2000/svg">
<g clip-path="url(#clip0_14_5018)">
<path d="M40.1269 56.4387H35.5512L34.83 3.77372C34.827 3.55066 34.6453 3.3715 34.4222 3.3715H33.5334C33.149 2.54572 31.8164 0 30 0C28.1835 0 26.851 2.54585 26.4666 3.3715H25.5777C25.3547 3.3715 25.1729 3.55066 25.17 3.77372L24.4488 56.4387H19.8731C19.6479 56.4387 19.4653 56.6213 19.4653 56.8465V59.5922C19.4653 59.8174 19.6479 60 19.8731 60H40.1269C40.3521 60 40.5347 59.8174 40.5347 59.5922V56.8465C40.5347 56.6213 40.3521 56.4387 40.1269 56.4387ZM30 0.815587C31.0808 0.815587 32.1008 2.34767 32.6274 3.3715H27.3726C27.8992 2.34767 28.9193 0.815587 30 0.815587ZM25.394 46.9842C25.4368 46.9993 25.4823 47.0093 25.5303 47.0093H30C30.2251 47.0093 30.4078 46.8268 30.4078 46.6015C30.4078 46.3763 30.2251 46.1937 30 46.1937H25.5303C25.4861 46.1937 25.4444 46.2024 25.4044 46.2155L25.461 42.0826C25.4837 42.0865 25.5065 42.0896 25.5303 42.0896H30C30.2251 42.0896 30.4078 41.9072 30.4078 41.6818C30.4078 41.4567 30.2251 41.274 30 41.274H25.5303C25.5103 41.274 25.4912 41.277 25.472 41.2798L25.5283 37.1697C25.5289 37.1697 25.5296 37.1698 25.5303 37.1698H30C30.2251 37.1698 30.4078 36.9871 30.4078 36.762C30.4078 36.5368 30.2251 36.3542 30 36.3542H25.5396L25.5958 32.2501H30C30.2251 32.2501 30.4078 32.0675 30.4078 31.8423C30.4078 31.6172 30.2251 31.4345 30 31.4345H25.6068L25.6631 27.3303H30C30.2251 27.3303 30.4078 27.1476 30.4078 26.9225C30.4078 26.6973 30.2251 26.5147 30 26.5147H25.6743L25.7305 22.4104H30C30.2251 22.4104 30.4078 22.2279 30.4078 22.0026C30.4078 21.7775 30.2251 21.5948 30 21.5948H25.7415L25.7978 17.4907H30C30.2251 17.4907 30.4078 17.308 30.4078 17.0829C30.4078 16.8576 30.2251 16.6751 30 16.6751H25.809L25.8652 12.5709H30C30.2251 12.5709 30.4078 12.3882 30.4078 12.1631C30.4078 11.9379 30.2251 11.7553 30 11.7553H25.8764L25.9327 7.65102H30C30.2251 7.65102 30.4078 7.46846 30.4078 7.24323C30.4078 7.01812 30.2251 6.83543 30 6.83543H25.9437L25.98 4.18763H34.02L34.7356 56.4393H25.2646L25.394 46.9842ZM39.7191 59.1844H20.2809V57.2543H24.8511H35.1489C35.1499 57.2545 35.151 57.2545 35.1518 57.2543H39.7191V59.1844Z" fill="black"/>
<path d="M31.0343 52.5615H26.5646C26.3394 52.5615 26.1568 52.7442 26.1568 52.9693C26.1568 53.1946 26.3394 53.3771 26.5646 53.3771H31.0343C31.2594 53.3771 31.4421 53.1946 31.4421 52.9693C31.4421 52.7442 31.2594 52.5615 31.0343 52.5615Z" fill="black"/>
<path d="M33.2689 9.8252H28.7992C28.5739 9.8252 28.3914 10.0079 28.3914 10.233C28.3914 10.4582 28.5739 10.6408 28.7992 10.6408H33.2689C33.4941 10.6408 33.6767 10.4582 33.6767 10.233C33.6767 10.0079 33.4941 9.8252 33.2689 9.8252Z" fill="black"/>
<path d="M33.2689 14.7451H28.7992C28.5739 14.7451 28.3914 14.9277 28.3914 15.1529C28.3914 15.378 28.5739 15.5607 28.7992 15.5607H33.2689C33.4941 15.5607 33.6767 15.378 33.6767 15.1529C33.6767 14.9277 33.4941 14.7451 33.2689 14.7451Z" fill="black"/>
<path d="M33.2689 19.665H28.7992C28.5739 19.665 28.3914 19.8476 28.3914 20.0728C28.3914 20.2979 28.5739 20.4806 28.7992 20.4806H33.2689C33.4941 20.4806 33.6767 20.2979 33.6767 20.0728C33.6767 19.8475 33.4941 19.665 33.2689 19.665Z" fill="black"/>
<path d="M33.2689 24.585H28.7992C28.5739 24.585 28.3914 24.7677 28.3914 24.9928C28.3914 25.218 28.5739 25.4005 28.7992 25.4005H33.2689C33.4941 25.4005 33.6767 25.218 33.6767 24.9928C33.6767 24.7677 33.4941 24.585 33.2689 24.585Z" fill="black"/>
<path d="M33.2689 29.5049H28.7992C28.5739 29.5049 28.3914 29.6874 28.3914 29.9127C28.3914 30.1378 28.5739 30.3205 28.7992 30.3205H33.2689C33.4941 30.3205 33.6767 30.1378 33.6767 29.9127C33.6767 29.6874 33.4941 29.5049 33.2689 29.5049Z" fill="black"/>
<path d="M33.2689 34.4258H28.7992C28.5739 34.4258 28.3914 34.6085 28.3914 34.8336C28.3914 35.0588 28.5739 35.2414 28.7992 35.2414H33.2689C33.4941 35.2414 33.6767 35.0588 33.6767 34.8336C33.6767 34.6085 33.4941 34.4258 33.2689 34.4258Z" fill="black"/>
<path d="M33.2689 39.3457H28.7992C28.5739 39.3457 28.3914 39.5283 28.3914 39.7535C28.3914 39.9787 28.5739 40.1613 28.7992 40.1613H33.2689C33.4941 40.1613 33.6767 39.9787 33.6767 39.7535C33.6767 39.5283 33.4941 39.3457 33.2689 39.3457Z" fill="black"/>
<path d="M33.2689 44.2656H28.7992C28.5739 44.2656 28.3914 44.4482 28.3914 44.6734C28.3914 44.8985 28.5739 45.0812 28.7992 45.0812H33.2689C33.4941 45.0812 33.6767 44.8985 33.6767 44.6734C33.6767 44.448 33.4941 44.2656 33.2689 44.2656Z" fill="black"/>
<path d="M33.2689 49.1855H28.7992C28.5739 49.1855 28.3914 49.3682 28.3914 49.5933C28.3914 49.8186 28.5739 50.0011 28.7992 50.0011H33.2689C33.4941 50.0011 33.6767 49.8186 33.6767 49.5933C33.6767 49.3682 33.4941 49.1855 33.2689 49.1855Z" fill="black"/>
</g>
<defs>
<clipPath id="clip0_14_5018">
<rect width="60" height="60" fill="white"/>
</clipPath>
</defs>
</svg>
