<svg width="60" height="60" viewBox="0 0 60 60" fill="none" xmlns="http://www.w3.org/2000/svg">
<g clip-path="url(#clip0_15_5526)">
<path d="M23.7497 41.8762H16.2497C15.5593 41.8762 15 42.4347 15 43.1267V55.6256C15 56.3158 15.5593 56.8761 16.2497 56.8761H23.7497C24.44 56.8761 25.0002 56.3158 25.0002 55.6256V43.1267C25.0002 42.4346 24.44 41.8762 23.7497 41.8762Z" fill="#ED5564"/>
<path d="M30 28.1258C29.6804 28.1258 29.36 28.0031 29.1165 27.7596L25.3664 24.0096C24.8775 23.5207 24.8775 22.7297 25.3664 22.2408C25.8544 21.7537 26.6455 21.7537 27.1334 22.2408L30.8835 25.9907C31.3724 26.4796 31.3724 27.2707 30.8835 27.7596C30.64 28.0031 30.3196 28.1258 30 28.1258Z" fill="#ED5564"/>
<path d="M33.7501 31.8766H26.2499C25.5596 31.8766 25.0002 31.3154 25.0002 30.6252C25.0002 29.9348 25.5596 29.3745 26.2499 29.3745H33.2319L34.9988 27.6075V23.1252C34.9988 22.4348 35.5591 21.8745 36.2513 21.8745C36.9398 21.8745 37.4999 22.4348 37.4999 23.1252V28.1257C37.4999 28.4572 37.368 28.7739 37.1339 29.0083L34.6326 31.5095C34.3982 31.7438 34.0815 31.8766 33.7501 31.8766Z" fill="#AAB2BC"/>
<path d="M26.2499 21.8745H13.7503C13.0599 21.8745 12.4996 22.4348 12.4996 23.1252V43.1266C12.4996 43.8169 13.0599 44.3753 13.7503 44.3753H26.2499C26.9403 44.3753 27.4996 43.8168 27.4996 43.1266V23.125C27.4998 22.4348 26.9403 21.8745 26.2499 21.8745Z" fill="#434A54"/>
<path d="M19.9998 46.8767C19.3094 46.8767 18.7501 47.4352 18.7501 48.1255V56.876H21.2503V48.1255C21.2503 47.4351 20.69 46.8767 19.9998 46.8767Z" fill="#DA4453"/>
<path d="M58.7512 11.8752H48.7501C48.0597 11.8752 47.5013 12.4338 47.5013 13.1258V16.8758C47.5013 17.5662 48.0598 18.1246 48.7501 18.1246H58.7512C59.4397 18.1246 60 17.5662 60 16.8758V13.1258C60 12.4338 59.4397 11.8752 58.7512 11.8752Z" fill="#AAB2BC"/>
<path d="M48.7501 9.37573H45C44.3096 9.37573 43.7512 9.93426 43.7512 10.6245V19.375C43.7512 20.0654 44.3098 20.6257 45 20.6257H48.7501C49.4404 20.6257 49.9988 20.0654 49.9988 19.375V10.6245C49.9988 9.93426 49.4404 9.37573 48.7501 9.37573Z" fill="#434A54"/>
<path d="M8.74971 3.12451H3.75006C3.41865 3.12451 3.10095 3.25635 2.86657 3.49073L0.366217 5.99003C0.131838 6.2244 0 6.54292 0 6.87434V8.12498C0 8.81534 0.559345 9.37562 1.24971 9.37562H8.74971C9.44007 9.37562 10.0004 8.81534 10.0004 8.12498V4.37504C10.0004 3.68479 9.44007 3.12451 8.74971 3.12451Z" fill="#434A54"/>
<path d="M45.8698 3.47793C45.6263 3.24168 45.3004 3.11535 44.9597 3.12449C44.9011 3.12812 43.4802 3.17757 42.0446 3.73786C39.9206 4.56732 38.7487 6.12559 38.7487 8.12507C38.7487 8.81544 39.3089 9.37572 40.0012 9.37572H45C45.6904 9.37572 46.2488 8.81544 46.2488 8.12507V4.37513C46.2488 4.03645 46.1133 3.71231 45.8698 3.47793Z" fill="#434A54"/>
<path d="M37.4999 3.12451C36.8097 3.12451 36.2513 3.68479 36.2513 4.37516V8.1251C36.2513 8.81546 36.8099 9.37574 37.4999 9.37574C38.1902 9.37574 38.7486 8.81546 38.7486 8.1251V4.37504C38.7486 3.68479 38.1902 3.12451 37.4999 3.12451Z" fill="#AAB2BC"/>
<path d="M45 6.87451H1.24971C0.559345 6.87451 0 7.43479 0 8.12516V18.1246C0 18.8149 0.559345 19.3751 1.24971 19.3751H3.45521L13.1909 24.2421C13.3649 24.33 13.5562 24.3758 13.7503 24.3758H38.7486C39.0819 24.3758 39.4005 24.244 39.6348 24.0096L41.768 21.8745H44.9999C45.6902 21.8745 46.2486 21.316 46.2486 20.6257V8.12504C46.2488 7.43479 45.6904 6.87451 45 6.87451Z" fill="#656D78"/>
<path d="M36.2513 14.3745H13.7503C13.0599 14.3745 12.4996 13.816 12.4996 13.1258C12.4996 12.4337 13.0599 11.8752 13.7503 11.8752H36.2512C36.9397 11.8752 37.4998 12.4338 37.4998 13.1258C37.4999 13.816 36.9398 14.3745 36.2513 14.3745Z" fill="#434A54"/>
<path d="M36.2513 19.375H13.7503C13.0599 19.375 12.4996 18.8147 12.4996 18.1245C12.4996 17.4343 13.0599 16.8757 13.7503 16.8757H36.2512C36.9397 16.8757 37.4998 17.4343 37.4998 18.1245C37.4999 18.8149 36.9398 19.375 36.2513 19.375Z" fill="#434A54"/>
<path d="M13.7503 28.1256C13.7503 27.4335 13.19 26.875 12.4996 26.875V29.3744C13.19 29.3745 13.7503 28.816 13.7503 28.1256Z" fill="#656D78"/>
<path d="M13.7503 33.1255C13.7503 32.4351 13.19 31.8767 12.4996 31.8767V34.3761C13.19 34.3761 13.7503 33.8158 13.7503 33.1255Z" fill="#656D78"/>
<path d="M26.2499 33.1255C26.2499 33.8158 26.8093 34.3761 27.4996 34.3761V31.8767C26.8094 31.8767 26.2499 32.4351 26.2499 33.1255Z" fill="#656D78"/>
<path d="M26.2499 28.1256C26.2499 28.816 26.8093 29.3744 27.4996 29.3744V26.875C26.8094 26.875 26.2499 27.4335 26.2499 28.1256Z" fill="#656D78"/>
<path d="M23.7497 39.3767C23.7497 38.6847 23.1904 38.1262 22.5 38.1262H17.5004C16.81 38.1262 16.2497 38.6847 16.2497 39.3767V44.3755H23.7497V39.3767Z" fill="#656D78"/>
<path d="M6.25029 13.1258C6.25029 13.8143 5.69001 14.3745 4.99965 14.3745C4.3094 14.3745 3.74994 13.8143 3.74994 13.1258C3.74994 12.4337 4.30928 11.8752 4.99965 11.8752C5.69001 11.8752 6.25029 12.4338 6.25029 13.1258Z" fill="#ED5564"/>
</g>
<defs>
<clipPath id="clip0_15_5526">
<rect width="60" height="60" fill="white"/>
</clipPath>
</defs>
</svg>
