<svg width="60" height="60" viewBox="0 0 60 60" fill="none" xmlns="http://www.w3.org/2000/svg">
<path d="M21.8613 39.2931L11.0624 10.4592C10.6054 9.24627 11.2206 7.89861 12.4335 7.44158C13.6464 6.98455 14.9941 7.59978 15.4511 8.81267L25.5527 35.7775L46.1367 31.6174C47.4081 31.3595 48.6445 32.1799 48.8964 33.4513C49.1542 34.7228 48.3339 35.9592 47.0624 36.2111L24.5214 40.7697C23.3964 40.9982 22.2656 40.3713 21.8613 39.2931Z" fill="#FF4C22"/>
<path d="M19.7168 42.75L6.15239 7.26567C5.92387 6.66215 6.2227 5.98247 6.82622 5.75395C7.42973 5.52543 8.10942 5.82426 8.33793 6.42778L21.9082 41.9122C22.1368 42.5157 21.8379 43.1954 21.2344 43.4239C20.6309 43.6582 19.9512 43.3536 19.7168 42.75Z" fill="#93643D"/>
<path d="M11.8242 46.4942L12.791 43.922L51.3691 36.4806C52.002 36.3575 52.6172 36.7735 52.7402 37.4063C52.8633 38.0392 52.4473 38.6544 51.8145 38.7774L11.8242 46.4942Z" fill="#93643D"/>
<path d="M7.4999 54.3633C6.93154 53.9941 6.71475 53.127 7.01943 52.4355L16.5233 28.1426L41.2558 27.5977C41.6835 27.5977 42.0761 27.8789 42.2811 28.3359L52.9686 51.9551C53.2792 52.6406 53.0741 53.5078 52.5058 53.8887C51.9374 54.2695 51.2284 54.0176 50.912 53.3262L40.5644 30.4395L17.6835 30.8613L9.08779 53.7832C8.78311 54.4746 8.07412 54.7324 7.4999 54.3633Z" fill="#93643D"/>
</svg>
