<svg width="60" height="60" viewBox="0 0 60 60" fill="none" xmlns="http://www.w3.org/2000/svg">
<path d="M48.1616 32.5383C48.4903 30.9196 48.6138 29.4194 48.6138 27.9859H46.3726L46.0472 26.7493C46.0472 26.7493 44.8707 26.0684 44.2816 25.728C44.2666 25.3892 44.2299 25.0538 44.1598 24.73C44.6254 24.3295 45.5582 23.5302 45.5582 23.5302V21.9215L43.2603 19.243H41.6483C41.6483 19.243 40.8839 19.8972 40.5018 20.2243C40.0896 20.024 39.6507 19.8588 39.1951 19.7337C39.1584 19.2814 39.085 18.3736 39.085 18.3736L37.9452 17.2338L34.429 17.5192L33.2909 18.6573C33.2909 18.6573 33.3877 19.8521 33.4344 20.4496C33.089 20.6448 32.7652 20.8668 32.4615 21.1104C31.9676 20.8851 30.9746 20.4329 30.9746 20.4329L29.4176 20.8417L27.9457 24.0525L27.894 24.2711L28.3546 25.6095C28.3546 25.6095 29.5027 26.1335 30.0785 26.3988C30.1035 26.7777 30.1619 27.1448 30.2554 27.5036C30.1002 27.6354 29.8899 27.814 29.683 27.9892H27.5152L27.3683 27.4251C27.3683 27.4251 26.7292 27.0563 26.4105 26.8711C26.4021 26.6892 26.3804 26.5056 26.3437 26.3304C26.5957 26.1135 27.103 25.6779 27.103 25.6779V24.8085L25.8564 23.3533H24.982C24.982 23.3533 24.5664 23.7087 24.3595 23.8856C24.1359 23.7772 23.8972 23.6887 23.6503 23.6203C23.6302 23.375 23.5902 22.881 23.5902 22.881L22.9727 22.2636L21.0636 22.4188L20.4462 23.0379C20.4462 23.0379 20.4979 23.6854 20.5229 24.0091C20.336 24.1143 20.1591 24.2361 19.9956 24.3679C19.7269 24.2478 19.1896 23.9991 19.1896 23.9991L18.3451 24.2227L17.5458 25.965L17.5191 26.0818L17.7694 26.8077C17.7694 26.8077 18.3935 27.0914 18.7056 27.2366C18.719 27.4402 18.7507 27.6404 18.8024 27.834C18.7507 27.8774 18.6856 27.9341 18.6188 27.9909H11.1092L42.2023 6.9373C35.3452 -3.23736 22.8726 -1.42505 13.6475 7.22934C3.34431 16.8917 8.50758 23.5869 10.0863 27.3801C10.1964 27.6154 10.3316 27.8357 10.4634 28.061C9.73581 37.8351 19.3164 48.2751 19.3164 48.2751L18.724 60.0001H35.6406L36.9339 54.6082C36.9339 54.6082 37.6682 55.8398 42.0404 56.2103C46.411 56.5824 45.8787 51.2439 45.8787 51.2439C45.8787 51.2439 48.789 49.9589 48.789 48.996C48.789 48.0348 47.0668 46.7916 47.0668 46.7916C47.0668 46.7916 48.9175 47.1253 49.5884 46.3443C50.2542 45.565 48.7707 42.7497 48.7707 42.7497C48.7707 42.7497 51.0536 42.693 52.4003 41.2094C53.742 39.7359 48.1616 35.3586 48.1616 32.5383ZM33.4378 26.0234C33.4378 24.0609 35.0265 22.4722 36.9873 22.4722C38.9498 22.4722 40.5385 24.0609 40.5385 26.0234C40.5385 26.7526 40.3182 27.4251 39.9444 27.9875H34.0335C33.658 27.4251 33.4378 26.7493 33.4378 26.0234ZM20.5279 27.028C20.5279 25.9633 21.3907 25.1022 22.4537 25.1022C23.5184 25.1022 24.3812 25.9649 24.3812 27.028C24.3812 27.3851 24.2577 27.6988 24.0892 27.9859H20.8183C20.6498 27.7005 20.5279 27.3851 20.5279 27.028Z" fill="black"/>
<path d="M32.1829 19.2012L32.6034 19.091L33.0807 18.2667L32.9706 17.8461C32.9706 17.8461 32.6552 17.6642 32.4949 17.5724C32.4899 17.479 32.4799 17.3905 32.4599 17.3021C32.5851 17.1953 32.8371 16.9783 32.8371 16.9783V16.5445L32.2179 15.8202H31.784C31.784 15.8202 31.5771 15.9954 31.4753 16.0839C31.3635 16.0305 31.2433 15.9871 31.1215 15.9537C31.1098 15.8319 31.0898 15.5866 31.0898 15.5866L30.7828 15.2778L29.8349 15.3546L29.5278 15.665C29.5278 15.665 29.5545 15.9837 29.5662 16.1473C29.4744 16.199 29.386 16.2574 29.3059 16.3242C29.1707 16.2641 28.9037 16.1406 28.9037 16.1406L28.4832 16.2524L28.086 17.1185L28.0726 17.1769L28.1978 17.5374C28.1978 17.5374 28.5082 17.6792 28.6634 17.751C28.6701 17.8528 28.6851 17.9529 28.7101 18.048C28.5916 18.1498 28.3563 18.3501 28.3563 18.3501V18.784L28.9704 19.5132C28.9704 19.5132 29.3276 19.555 29.3476 19.5433C29.366 19.5333 29.406 19.5132 29.406 19.5132C29.406 19.5132 29.6296 19.3213 29.7431 19.2279C29.8382 19.2696 29.9367 19.3046 30.0401 19.3313C30.0518 19.4598 30.0752 19.7152 30.0752 19.7152L30.3822 20.0239L31.3301 19.9371L31.6372 19.6284C31.6372 19.6284 31.6071 19.2996 31.5921 19.1344C31.6689 19.0927 31.7457 19.0426 31.8157 18.9876C31.9359 19.0577 32.1829 19.2012 32.1829 19.2012ZM30.5258 18.6071C29.9984 18.6071 29.5679 18.1765 29.5679 17.6492C29.5679 17.1219 29.9968 16.6913 30.5258 16.6913C31.0548 16.6913 31.4837 17.1219 31.4837 17.6492C31.4837 18.1765 31.0548 18.6071 30.5258 18.6071Z" fill="black"/>
<path d="M41.5331 11.0361C41.3596 10.951 41.171 10.8809 40.9774 10.8291C40.9607 10.6372 40.9323 10.2501 40.9323 10.2501L40.4484 9.76611L38.9532 9.88794L38.4692 10.3736C38.4692 10.3736 38.5093 10.8792 38.5293 11.1329C38.3841 11.2163 38.2456 11.3081 38.1171 11.4132C37.9068 11.3164 37.4863 11.1228 37.4863 11.1228L36.8254 11.2981L36.1996 12.6598L36.1763 12.7566L36.3732 13.324C36.3732 13.324 36.8605 13.5476 37.1041 13.6594C37.1158 13.8196 37.1392 13.9765 37.1792 14.1267C36.994 14.2869 36.6235 14.6023 36.6235 14.6023V15.2832L37.5914 16.4296C37.5914 16.4296 38.1538 16.498 38.1838 16.478C38.2155 16.4613 38.2739 16.4296 38.2739 16.4296C38.2739 16.4296 38.6277 16.1292 38.803 15.9807C38.9532 16.0475 39.1083 16.0992 39.2702 16.1443C39.2886 16.3462 39.327 16.75 39.327 16.75L39.8092 17.2323L41.3012 17.0955L41.7851 16.6132C41.7851 16.6132 41.7384 16.0925 41.715 15.8355C41.8368 15.7671 41.9537 15.6887 42.0638 15.6019C42.2574 15.7154 42.6462 15.9407 42.6462 15.9407L43.3087 15.7671L44.0597 14.4721L43.8895 13.8096C43.8895 13.8096 43.3905 13.5209 43.1402 13.3774C43.1335 13.2305 43.1168 13.0904 43.0884 12.9535C43.2854 12.7833 43.6809 12.4412 43.6809 12.4412V11.7603L42.7029 10.6205H42.0187C42.0187 10.6205 41.695 10.8992 41.5331 11.0361ZM40.0379 15.0078C39.2068 15.0078 38.5309 14.3319 38.5309 13.5009C38.5309 12.6682 39.2068 11.9923 40.0379 11.9923C40.8706 11.9923 41.5448 12.6682 41.5448 13.5009C41.5465 14.3319 40.8723 15.0078 40.0379 15.0078Z" fill="black"/>
</svg>
