<svg width="61" height="60" viewBox="0 0 61 60" fill="none" xmlns="http://www.w3.org/2000/svg">
<path d="M26.6709 13.125C27.704 13.125 28.5459 13.965 28.5459 15C28.5459 16.035 27.704 16.875 26.6709 16.875C25.6378 16.875 24.7959 16.035 24.7959 15C24.7959 13.965 25.6378 13.125 26.6709 13.125ZM26.6709 11.25C24.599 11.25 22.9209 12.93 22.9209 15C22.9209 17.07 24.599 18.75 26.6709 18.75C28.7428 18.75 30.4209 17.07 30.4209 15C30.4209 12.93 28.7428 11.25 26.6709 11.25ZM28.5459 37.5C32.6821 37.5 36.0459 40.8637 36.0459 45C36.0459 49.1363 32.6821 52.5 28.5459 52.5C24.4096 52.5 21.0459 49.1363 21.0459 45C21.0459 40.8637 24.4096 37.5 28.5459 37.5ZM28.5459 35.625C23.369 35.625 19.1709 39.8231 19.1709 45C19.1709 50.1769 23.369 54.375 28.5459 54.375C33.7228 54.375 37.9209 50.1769 37.9209 45C37.9209 39.8231 33.7228 35.625 28.5459 35.625ZM28.5459 41.25C30.614 41.25 32.2959 42.9319 32.2959 45C32.2959 47.0681 30.614 48.75 28.5459 48.75C26.4778 48.75 24.7959 47.0681 24.7959 45C24.7959 42.9319 26.4778 41.25 28.5459 41.25ZM28.5459 39.375C25.439 39.375 22.9209 41.8931 22.9209 45C22.9209 48.1069 25.439 50.625 28.5459 50.625C31.6528 50.625 34.1709 48.1069 34.1709 45C34.1709 41.8931 31.6528 39.375 28.5459 39.375ZM28.3584 22.5H26.4271C26.5959 23.1 26.6709 23.7188 26.6709 24.375C26.6709 28.5188 23.3146 31.875 19.1709 31.875C17.1459 31.875 15.2896 31.0687 13.9396 29.7562C13.6209 30.3187 13.3396 30.9 13.0771 31.5C14.7084 32.9062 16.8459 33.75 19.1709 33.75C24.3459 33.75 28.5459 29.55 28.5459 24.375C28.5459 23.7375 28.4896 23.1 28.3584 22.5ZM24.4584 22.5H22.4146C22.7334 23.0437 22.9209 23.7 22.9209 24.375C22.9209 26.4375 21.2334 28.125 19.1709 28.125C17.9521 28.125 16.8646 27.525 16.1709 26.625C15.7396 27.0937 15.3459 27.5812 14.9709 28.1062C15.9834 29.2687 17.5021 30 19.1709 30C22.2834 30 24.7959 27.4875 24.7959 24.375C24.7959 23.7188 24.6834 23.0813 24.4584 22.5ZM47.2584 37.2563C46.6771 37.425 46.0584 37.5 45.4209 37.5C41.2771 37.5 37.9209 34.1438 37.9209 30C37.9209 27.7687 38.8959 25.7625 40.4334 24.3938C39.9271 24 39.4021 23.625 38.8584 23.2875C37.1334 25.0125 36.0459 27.375 36.0459 30C36.0459 35.175 40.2459 39.375 45.4209 39.375C46.0584 39.375 46.6771 39.3187 47.2771 39.1875C47.2959 38.9437 47.2959 38.6812 47.2959 38.4375C47.2959 38.0438 47.2771 37.65 47.2584 37.2563ZM46.6209 33.5437C46.2459 33.675 45.8334 33.75 45.4209 33.75C43.3584 33.75 41.6709 32.0625 41.6709 30C41.6709 28.7813 42.2522 27.7125 43.1522 27.0187C42.7397 26.5312 42.3084 26.0625 41.8584 25.65C40.6021 26.6813 39.7959 28.2375 39.7959 30C39.7959 33.1125 42.3084 35.625 45.4209 35.625C45.9834 35.625 46.5084 35.55 47.0146 35.3813C46.9209 34.7625 46.7896 34.1437 46.6209 33.5437ZM21.0459 18.75H19.1709V20.625H21.0459V18.75ZM36.0459 15H34.1709V16.875H36.0459V15ZM36.0459 18.75V20.625H39.7959V18.75H36.0459ZM32.2959 18.75V20.625H34.1709V18.75H32.2959Z" fill="#CC2954"/>
<path d="M40.2084 21.9375L41.6709 19.0125C41.6709 15.8419 39.3178 10.5056 34.1709 8.40187V1.875H32.2959V7.8075C31.7034 7.67625 31.0734 7.5975 30.4209 7.5525V3.75H28.5459V7.5525C20.7759 8.09062 17.2959 15.1538 17.2959 19.0125L18.7584 21.9375C13.3584 25.4437 9.7959 31.5187 9.7959 38.4375C9.7959 49.3125 18.6084 58.125 29.4834 58.125C40.3584 58.125 49.1709 49.3125 49.1709 38.4375C49.1709 31.5187 45.6084 25.4437 40.2084 21.9375ZM29.4834 9.375C36.389 9.375 39.5353 15.2494 39.7809 18.6019L38.7684 20.625H20.1984L19.1859 18.6019C19.4315 15.2494 22.5778 9.375 29.4834 9.375ZM29.4834 56.25C19.6584 56.25 11.6709 48.2625 11.6709 38.4375C11.6709 31.4812 15.6834 25.4438 21.4959 22.5H37.4709C43.2834 25.4438 47.2959 31.4812 47.2959 38.4375C47.2959 48.2625 39.3084 56.25 29.4834 56.25Z" fill="#2B4099"/>
</svg>
