<svg width="60" height="60" viewBox="0 0 60 60" fill="none" xmlns="http://www.w3.org/2000/svg">
<g clip-path="url(#clip0_16_15325)">
<path d="M35.7781 12.5691C33.03 9.82307 29.3791 8.31006 25.4951 8.31006C21.6101 8.31006 17.9601 9.82307 15.2121 12.5701C9.54613 18.239 9.54613 27.4631 15.2181 33.1381C15.3471 33.2651 25.0091 42.9111 25.0091 42.9111L25.4951 43.399L25.9811 42.9111C25.9811 42.9111 35.7311 33.1801 35.7781 33.1331C38.5231 30.3861 40.0381 26.7351 40.0381 22.851C40.0381 18.9662 38.5231 15.3141 35.7781 12.5691ZM33.627 30.9701C33.574 31.0202 28.277 36.3051 25.4939 39.0851L20.7829 34.3811C18.9549 32.5571 17.4309 31.0371 17.3728 30.9751C12.8938 26.496 12.8938 19.206 17.3728 14.727C19.5408 12.558 22.4269 11.362 25.4938 11.362C28.5607 11.362 31.4468 12.5569 33.6148 14.727C38.095 19.2072 38.098 26.4962 33.627 30.9701Z" fill="black"/>
<path d="M25.4951 15.4702C21.4261 15.4702 18.1121 18.7812 18.1121 22.8512C18.1121 26.9212 21.4251 30.2322 25.4951 30.2322C29.5651 30.2322 32.8782 26.9212 32.8782 22.8512C32.8782 18.7812 29.5642 15.4702 25.4951 15.4702ZM25.4951 27.1802C23.1071 27.1802 21.1681 25.2381 21.1681 22.8512C21.1681 20.4642 23.1071 18.5221 25.4951 18.5221C27.8832 18.5221 29.8221 20.4642 29.8221 22.8512C29.8221 25.2381 27.8821 27.1802 25.4951 27.1802Z" fill="black"/>
<path d="M59.561 57.439L44.561 42.439C44.554 42.432 44.545 42.43 44.538 42.424C48.545 37.92 51 32.004 51 25.5C51 11.417 39.583 0 25.5 0C11.417 0 0 11.417 0 25.5C0 39.583 11.417 51 25.5 51C32.004 51 37.9189 48.545 42.424 44.537C42.431 44.544 42.433 44.553 42.439 44.56L57.439 59.56C57.732 59.854 58.116 60 58.5 60C58.884 60 59.268 59.854 59.561 59.561C60.146 58.975 60.146 58.025 59.561 57.439ZM25.5 48C13.0939 48 3 37.9061 3 25.5C3 13.0939 13.0939 3 25.5 3C37.9061 3 48 13.0939 48 25.5C48 37.9061 37.9061 48 25.5 48Z" fill="black"/>
</g>
<defs>
<clipPath id="clip0_16_15325">
<rect width="60" height="60" fill="white"/>
</clipPath>
</defs>
</svg>
