<svg width="60" height="60" viewBox="0 0 60 60" fill="none" xmlns="http://www.w3.org/2000/svg">
<g clip-path="url(#clip0_14_4344)">
<path d="M3 19.5H57V32.64C57 38.2095 54.7875 43.551 50.8492 47.4892C46.911 51.4275 41.5695 53.64 36 53.64H24C18.4305 53.64 13.089 51.4275 9.15076 47.4892C5.21249 43.551 3 38.2095 3 32.64V19.5Z" fill="#1B5CF3"/>
<path d="M15 30H9C9.00648 27.8357 9.71143 25.7314 11.01 24C11.7151 23.1654 12.0698 22.0903 12 21C12.0315 19.9606 11.6791 18.946 11.01 18.15C9.69034 16.3725 8.98484 14.2138 9 12C9.00648 9.83575 9.71143 7.7314 11.01 6C11.7151 5.16538 12.0698 4.09033 12 3H18C18.0282 5.22029 17.3332 7.38948 16.02 9.18C15.3495 9.9653 14.987 10.9674 15 12C14.9447 13.0935 15.3096 14.1668 16.02 15C17.306 16.7361 18.0001 18.8395 18 21C18.0282 23.2203 17.3332 25.3895 16.02 27.18C15.3495 27.9653 14.987 28.9674 15 30Z" fill="#F92115"/>
<path d="M27 30H21C21.0065 27.8357 21.7114 25.7314 23.01 24C23.7151 23.1654 24.0698 22.0903 24 21C24.0315 19.9606 23.6791 18.946 23.01 18.15C21.6903 16.3725 20.9848 14.2138 21 12C21.0065 9.83575 21.7114 7.7314 23.01 6C23.7151 5.16538 24.0698 4.09033 24 3H30C30.0282 5.22029 29.3332 7.38948 28.02 9.18C27.3495 9.9653 26.987 10.9674 27 12C26.9447 13.0935 27.3096 14.1668 28.02 15C29.306 16.7361 30.0001 18.8395 30 21C30.0282 23.2203 29.3332 25.3895 28.02 27.18C27.3495 27.9653 26.987 28.9674 27 30Z" fill="#F92115"/>
<path d="M24 21.0004C24.0698 22.0908 23.715 23.1658 23.01 24.0004C21.7114 25.7318 21.0065 27.8362 21 30.0004H27C26.9796 28.9576 27.3426 27.9435 28.02 27.1504C29.327 25.3681 30.0217 23.2105 30 21.0004C30.0321 20.4809 30.0321 19.9599 30 19.4404H24C24.1085 19.9548 24.1085 20.4861 24 21.0004Z" fill="#190D15"/>
<path d="M12 21C12.0698 22.0903 11.715 23.1654 11.01 24C9.71143 25.7314 9.00647 27.8357 9 30H15C14.9796 28.9572 15.3426 27.9431 16.02 27.15C17.327 25.3677 18.0217 23.2101 18 21C18.0296 20.5004 18.0296 19.9996 18 19.5H12C12.1002 19.995 12.1002 20.505 12 21Z" fill="#190D15"/>
</g>
<defs>
<clipPath id="clip0_14_4344">
<rect width="60" height="60" fill="white"/>
</clipPath>
</defs>
</svg>
