<svg width="60" height="60" viewBox="0 0 60 60" fill="none" xmlns="http://www.w3.org/2000/svg">
<g clip-path="url(#clip0_19_18984)">
<path d="M24.4675 52.8065L24.1103 54.1222C24.0144 54.4706 23.9186 54.8365 23.8576 55.2113H23.8402C23.7704 54.8365 23.6746 54.4706 23.5788 54.1222L23.2215 52.8152H22.2805L23.1605 55.4466L23.3261 55.9519H24.3107L24.3716 55.7776L25.391 52.8064L24.4675 52.8065Z" fill="#7E7966"/>
<path d="M26.8724 53.6169C26.1231 53.6169 25.5654 54.0526 25.5654 54.8194C25.5654 55.5512 26.0882 55.9956 26.8463 55.9956C27.4475 55.9956 28.1271 55.6819 28.1271 54.7933C28.1271 54.1049 27.6566 53.6169 26.8724 53.6169ZM26.8551 55.4728C26.5588 55.4728 26.428 55.1854 26.428 54.8021C26.428 54.4884 26.5326 54.1398 26.8551 54.1398C27.1513 54.1398 27.2645 54.4709 27.2645 54.8021C27.2645 55.1679 27.1337 55.4728 26.8551 55.4728Z" fill="#7E7966"/>
<path d="M28.6062 52.6846V55.9521H29.4688V52.6846H28.6062Z" fill="#7E7966"/>
<path d="M32.449 55.2114V53.6604H31.5864V55.0632C31.5864 55.2986 31.4208 55.4118 31.2465 55.4118C31.0025 55.4118 30.898 55.2288 30.898 54.9238V53.6604H30.0442V55.0198C30.0442 55.6819 30.3579 55.9956 30.9155 55.9956C31.3076 55.9956 31.5602 55.8127 31.6736 55.6645H31.691L31.7346 55.952H32.4752C32.4578 55.7427 32.449 55.4902 32.449 55.2114Z" fill="#7E7966"/>
<path d="M36.0299 53.6169C35.603 53.6169 35.3503 53.8348 35.2457 53.9655H35.237C35.1325 53.7564 34.8885 53.6169 34.5487 53.6169C34.1565 53.6169 33.9213 53.8085 33.7994 53.948H33.7819L33.7383 53.6605H33.0151C33.0238 53.8784 33.0326 54.1224 33.0326 54.3924V55.9521H33.8691V54.5755C33.8691 54.288 34.0956 54.2008 34.2176 54.2008C34.4616 54.2008 34.5226 54.3924 34.5226 54.619V55.9521H35.3678V54.5755C35.3678 54.3402 35.5072 54.2008 35.7076 54.2008C35.9429 54.2008 36.0213 54.3837 36.0213 54.6712V55.9521H36.8665V54.558C36.8664 53.948 36.5615 53.6169 36.0299 53.6169Z" fill="#7E7966"/>
<path d="M38.5918 53.6169C37.7727 53.6169 37.3196 54.1921 37.3196 54.8455C37.3196 55.1592 37.4154 55.4207 37.6072 55.6123C37.825 55.8563 38.191 55.9869 38.6702 55.9869C38.9925 55.9869 39.3149 55.9521 39.5764 55.8651L39.4631 55.3683C39.2627 55.4207 39.0536 55.4555 38.8008 55.4555C38.644 55.4555 38.5046 55.4294 38.3914 55.3858C38.2433 55.3247 38.1474 55.2203 38.1386 55.0634H39.6809C39.6896 55.0285 39.6984 54.985 39.6984 54.9414C39.707 54.889 39.707 54.8194 39.707 54.7585C39.7072 53.9829 39.2453 53.6169 38.5918 53.6169ZM38.1299 54.5667C38.1474 54.3749 38.2607 54.1136 38.5482 54.1136C38.8444 54.1136 38.9228 54.3664 38.9228 54.5667H38.1299Z" fill="#7E7966"/>
<path d="M24.4675 52.8065L24.1103 54.1222C24.0144 54.4706 23.9186 54.8365 23.8576 55.2113H23.8402C23.7704 54.8365 23.6746 54.4706 23.5788 54.1222L23.2215 52.8152H22.2805L23.1605 55.4466L23.3261 55.9519H24.3107L24.3716 55.7776L25.391 52.8064L24.4675 52.8065Z" fill="#7E7966"/>
<path d="M26.8724 53.6169C26.1231 53.6169 25.5654 54.0526 25.5654 54.8194C25.5654 55.5512 26.0882 55.9956 26.8463 55.9956C27.4475 55.9956 28.1271 55.6819 28.1271 54.7933C28.1271 54.1049 27.6566 53.6169 26.8724 53.6169ZM26.8551 55.4728C26.5588 55.4728 26.428 55.1854 26.428 54.8021C26.428 54.4884 26.5326 54.1398 26.8551 54.1398C27.1513 54.1398 27.2645 54.4709 27.2645 54.8021C27.2645 55.1679 27.1337 55.4728 26.8551 55.4728Z" fill="#7E7966"/>
<path d="M28.6062 52.6846V55.9521H29.4688V52.6846H28.6062Z" fill="#7E7966"/>
<path d="M32.449 55.2114V53.6604H31.5864V55.0632C31.5864 55.2986 31.4208 55.4118 31.2465 55.4118C31.0025 55.4118 30.898 55.2288 30.898 54.9238V53.6604H30.0442V55.0198C30.0442 55.6819 30.3579 55.9956 30.9155 55.9956C31.3076 55.9956 31.5602 55.8127 31.6736 55.6645H31.691L31.7346 55.952H32.4752C32.4578 55.7427 32.449 55.4902 32.449 55.2114Z" fill="#7E7966"/>
<path d="M36.0299 53.6169C35.603 53.6169 35.3503 53.8348 35.2457 53.9655H35.237C35.1325 53.7564 34.8885 53.6169 34.5487 53.6169C34.1565 53.6169 33.9213 53.8085 33.7994 53.948H33.7819L33.7383 53.6605H33.0151C33.0238 53.8784 33.0326 54.1224 33.0326 54.3924V55.9521H33.8691V54.5755C33.8691 54.288 34.0956 54.2008 34.2176 54.2008C34.4616 54.2008 34.5226 54.3924 34.5226 54.619V55.9521H35.3678V54.5755C35.3678 54.3402 35.5072 54.2008 35.7076 54.2008C35.9429 54.2008 36.0213 54.3837 36.0213 54.6712V55.9521H36.8665V54.558C36.8664 53.948 36.5615 53.6169 36.0299 53.6169Z" fill="#7E7966"/>
<path d="M38.5918 53.6169C37.7727 53.6169 37.3196 54.1921 37.3196 54.8455C37.3196 55.1592 37.4154 55.4207 37.6072 55.6123C37.825 55.8563 38.191 55.9869 38.6702 55.9869C38.9925 55.9869 39.3149 55.9521 39.5764 55.8651L39.4631 55.3683C39.2627 55.4207 39.0536 55.4555 38.8008 55.4555C38.644 55.4555 38.5046 55.4294 38.3914 55.3858C38.2433 55.3247 38.1474 55.2203 38.1386 55.0634H39.6809C39.6896 55.0285 39.6984 54.985 39.6984 54.9414C39.707 54.889 39.707 54.8194 39.707 54.7585C39.7072 53.9829 39.2453 53.6169 38.5918 53.6169ZM38.1299 54.5667C38.1474 54.3749 38.2607 54.1136 38.5482 54.1136C38.8444 54.1136 38.9228 54.3664 38.9228 54.5667H38.1299Z" fill="#7E7966"/>
<path d="M12.6658 45.8625L13.3841 46.6163L8.7961 51.2043L7.8811 50.245L12.6658 45.8625Z" fill="#7E7966"/>
<path d="M11.328 44.2674L9.46328 45.6964L9.30648 45.8184L7.77297 46.9946C7.77297 46.9946 7.57258 46.7506 7.39832 46.4979C7.22406 46.2453 7.04102 45.9925 7.04102 45.9925L8.47867 44.9906L8.80984 44.7552L10.718 43.4221C10.718 43.4221 10.8661 43.64 11.0229 43.849C11.1624 44.067 11.328 44.2674 11.328 44.2674Z" fill="#7E7966"/>
<path d="M9.60282 41.6709L7.6336 42.7949V42.8036L6.77978 43.2914L5.71677 43.9014C5.71677 43.9014 5.55997 43.6313 5.41173 43.3698C5.2636 43.0911 5.12427 42.8123 5.12427 42.8123L5.8997 42.4114L7.11962 41.7841L9.10618 40.7559C9.10618 40.7559 9.22817 40.9912 9.34149 41.2177C9.47216 41.4443 9.60282 41.6709 9.60282 41.6709Z" fill="#7E7966"/>
<path d="M8.23457 38.8739L6.20441 39.7104L4.51398 40.3987L4.08707 40.573C4.08707 40.573 3.97375 40.2766 3.85176 39.9893C3.79949 39.8497 3.74723 39.7017 3.70363 39.5972C3.66004 39.4839 3.64258 39.4141 3.64258 39.4141L5.81219 38.63L6.52668 38.3774L6.53547 38.3687L7.8598 37.8982C7.8598 37.8982 7.87727 37.9679 7.91207 38.0551C7.94699 38.151 7.99047 38.2642 8.04273 38.3862C8.13871 38.6299 8.23457 38.8739 8.23457 38.8739Z" fill="#7E7966"/>
<path d="M7.00787 34.907C7.00787 34.907 7.06658 35.1599 7.12541 35.4129C7.15447 35.5394 7.18354 35.666 7.20533 35.7609C7.22561 35.8562 7.24424 35.9184 7.24424 35.9184L2.90584 37.0475C2.90584 37.0475 2.88404 36.9732 2.8592 36.8598C2.83295 36.7467 2.79791 36.5958 2.76299 36.445C2.69326 36.1432 2.62354 35.8415 2.62354 35.8415L7.00787 34.907Z" fill="#7E7966"/>
<path d="M6.56755 31.8225C6.56755 31.8225 6.58688 32.082 6.60634 32.3413C6.63317 32.5998 6.66974 32.8572 6.66974 32.8572L2.21966 33.3986C2.21966 33.3986 2.177 33.0918 2.14536 32.7839C2.12169 32.4752 2.0979 32.1667 2.0979 32.1667L6.56755 31.8225Z" fill="#7E7966"/>
<path d="M6.51588 28.9588L6.48893 30H0.000488281L0.0336523 28.675L6.51588 28.9588Z" fill="#7E7966"/>
<path d="M6.86201 25.8611C6.86201 25.8611 6.81584 26.1167 6.76955 26.3724C6.73193 26.6294 6.70217 26.8877 6.70217 26.8877L2.2583 26.2975C2.2583 26.2975 2.29463 25.99 2.33986 25.6838C2.39424 25.379 2.44873 25.0742 2.44873 25.0742L6.86201 25.8611Z" fill="#7E7966"/>
<path d="M7.60821 22.8383C7.60821 22.8383 7.58724 22.8998 7.5556 22.9919C7.52876 23.0855 7.49302 23.2103 7.45728 23.3351C7.38614 23.5848 7.31513 23.8346 7.31513 23.8346L2.9895 22.6575C2.9895 22.6575 3.07423 22.3596 3.15907 22.0617C3.20208 21.913 3.24509 21.7643 3.27743 21.6528C3.31458 21.5427 3.33942 21.4695 3.33942 21.4695L7.60821 22.8383Z" fill="#7E7966"/>
<path d="M8.75419 19.9424L8.32657 20.8896L4.19653 19.1462L4.70571 18.0171L8.75419 19.9424Z" fill="#7E7966"/>
<path d="M10.2805 17.2245C10.2805 17.2245 10.1398 17.4432 9.99921 17.662C9.92667 17.7701 9.8594 17.8813 9.81288 17.9671C9.76437 18.0517 9.73214 18.108 9.73214 18.108L5.86987 15.8321C5.86987 15.8321 5.90855 15.7651 5.96655 15.6646C6.02269 15.5629 6.10272 15.4304 6.18827 15.3014C6.35538 15.0409 6.52249 14.7803 6.52249 14.7803L10.2805 17.2245Z" fill="#7E7966"/>
<path d="M12.15 14.727C12.15 14.727 12.1073 14.7761 12.0433 14.8498C11.9809 14.9248 11.8903 15.0186 11.8118 15.1226C11.6512 15.3273 11.4905 15.5322 11.4905 15.5322L7.96191 12.7672C7.96191 12.7672 8.15328 12.5241 8.34465 12.2808C8.43875 12.1579 8.54516 12.0451 8.61945 11.9561C8.69539 11.8683 8.74602 11.8098 8.74602 11.8098L12.15 14.727Z" fill="#7E7966"/>
<path d="M14.1379 12.6653L13.3842 13.3836L8.79614 8.79562L9.75544 7.88062L14.1379 12.6653Z" fill="#7E7966"/>
<path d="M16.5753 10.7171C16.5753 10.7171 16.3633 10.8679 16.1513 11.0188C15.9355 11.1645 15.735 11.3308 15.735 11.3308L13.0085 7.77231C13.0085 7.77231 13.2481 7.57603 13.5037 7.40118C13.7558 7.22165 14.0079 7.04224 14.0079 7.04224L16.5753 10.7171Z" fill="#7E7966"/>
<path d="M19.2442 9.10545C19.2442 9.10545 19.0131 9.22428 18.7819 9.34322C18.5567 9.4733 18.3316 9.60338 18.3316 9.60338L16.0981 5.71639C16.0981 5.71639 16.3665 5.56205 16.6349 5.40783C16.9099 5.26568 17.1848 5.12354 17.1848 5.12354L19.2442 9.10545Z" fill="#7E7966"/>
<path d="M22.0985 7.85881C22.0985 7.85881 22.0369 7.87943 21.9446 7.91049C21.854 7.94623 21.7332 7.99393 21.6124 8.0415C21.3708 8.1369 21.1292 8.23229 21.1292 8.23229L19.4314 4.08326C19.4314 4.08326 19.7194 3.96947 20.0074 3.85568C20.1515 3.79932 20.2958 3.74283 20.4038 3.70053C20.5137 3.66314 20.5871 3.63818 20.5871 3.63818L22.0985 7.85881Z" fill="#7E7966"/>
<path d="M25.0937 7.00738C25.0937 7.00738 24.8408 7.06609 24.5878 7.12492C24.4612 7.15398 24.3346 7.18305 24.2397 7.20484C24.1445 7.22512 24.0822 7.24375 24.0822 7.24375L22.9531 2.90535C22.9531 2.90535 23.0274 2.88355 23.1409 2.85871C23.2539 2.83246 23.4049 2.79742 23.5557 2.7625C23.8575 2.69277 24.1592 2.62305 24.1592 2.62305L25.0937 7.00738Z" fill="#7E7966"/>
<path d="M28.1781 6.56694C28.1781 6.56694 27.9187 6.58628 27.6593 6.60573C27.4008 6.63257 27.1435 6.66913 27.1435 6.66913L26.6021 2.21905C26.6021 2.21905 26.9088 2.1764 27.2167 2.14476C27.5254 2.12108 27.8339 2.09741 27.8339 2.09741L28.1781 6.56694Z" fill="#7E7966"/>
<path d="M31.0417 6.51539L30.0005 6.48844V0L31.3254 0.0331641L31.0417 6.51539Z" fill="#7E7966"/>
<path d="M34.1394 6.8614C34.1394 6.8614 33.8838 6.81522 33.6281 6.76894C33.3711 6.73132 33.1128 6.70144 33.1128 6.70144L33.703 2.25757C33.703 2.25757 34.0105 2.2939 34.3167 2.33913C34.6215 2.39351 34.9263 2.448 34.9263 2.448L34.1394 6.8614Z" fill="#7E7966"/>
<path d="M37.162 7.60772C37.162 7.60772 37.1006 7.58675 37.0085 7.55511C36.9148 7.52827 36.79 7.49253 36.6652 7.45679C36.4155 7.38565 36.1658 7.31464 36.1658 7.31464L37.3428 2.98901C37.3428 2.98901 37.6407 3.07374 37.9386 3.15858C38.0873 3.20159 38.236 3.24472 38.3476 3.27694C38.4576 3.31409 38.5309 3.33894 38.5309 3.33894L37.162 7.60772Z" fill="#7E7966"/>
<path d="M41.9813 4.70905L41.4672 5.78964L40.0556 8.75202L39.1145 8.32511L40.378 5.3278L40.8572 4.19507L41.9813 4.70905Z" fill="#7E7966"/>
<path d="M45.2225 6.52136L44.8304 7.13132L44.5952 7.48862L42.7741 10.2769C42.7741 10.2769 42.5563 10.1375 42.3384 9.99796C42.2339 9.92835 42.1206 9.85862 42.0335 9.81503C41.9463 9.76276 41.894 9.72796 41.894 9.72796L43.5757 6.87011L43.9417 6.24269L44.1682 5.86792C44.1682 5.86792 44.2379 5.91151 44.3338 5.9639C44.4383 6.02483 44.569 6.10323 44.6997 6.19042C44.9611 6.35589 45.2225 6.52136 45.2225 6.52136Z" fill="#7E7966"/>
<path d="M45.2733 12.1496C45.2733 12.1496 45.2242 12.1069 45.1505 12.0429C45.0755 11.9805 44.9817 11.8899 44.8778 11.8114C44.6731 11.6508 44.4683 11.4902 44.4683 11.4902L47.2332 7.96143C47.2332 7.96143 47.4763 8.15279 47.7196 8.34416C47.8426 8.43826 47.9553 8.54467 48.0444 8.61896C48.1321 8.6949 48.1906 8.74553 48.1906 8.74553L45.2733 12.1496Z" fill="#7E7966"/>
<path d="M47.3353 14.1374L46.6169 13.3837L51.205 8.79565L52.12 9.75495L47.3353 14.1374Z" fill="#7E7966"/>
<path d="M49.2834 16.5748C49.2834 16.5748 49.1326 16.3628 48.9817 16.1508C48.836 15.935 48.6697 15.7345 48.6697 15.7345L52.2282 13.0081C52.2282 13.0081 52.4245 13.2476 52.5993 13.5032C52.7789 13.7554 52.9583 14.0074 52.9583 14.0074L49.2834 16.5748Z" fill="#7E7966"/>
<path d="M50.8949 19.2437C50.8949 19.2437 50.7761 19.0126 50.6571 18.7814C50.5271 18.5563 50.397 18.3311 50.397 18.3311L54.284 16.0977C54.284 16.0977 54.4383 16.366 54.5925 16.6344C54.7347 16.9094 54.8768 17.1843 54.8768 17.1843L50.8949 19.2437Z" fill="#7E7966"/>
<path d="M52.1417 22.0982C52.1417 22.0982 52.121 22.0367 52.09 21.9444C52.0542 21.8538 52.0065 21.733 51.9588 21.6121C51.8635 21.3705 51.7681 21.129 51.7681 21.129L55.9171 19.4312C55.9171 19.4312 56.0309 19.7192 56.1447 20.0071C56.2012 20.1513 56.2575 20.2955 56.2998 20.4036C56.3372 20.5135 56.3622 20.5869 56.3622 20.5869L52.1417 22.0982Z" fill="#7E7966"/>
<path d="M52.993 25.0932C52.993 25.0932 52.9342 24.8402 52.8754 24.5873C52.8464 24.4607 52.8173 24.3342 52.7955 24.2392C52.7752 24.144 52.7566 24.0817 52.7566 24.0817L57.095 22.9526C57.095 22.9526 57.1168 23.0269 57.1416 23.1404C57.1679 23.2535 57.2028 23.4044 57.2378 23.5552C57.3076 23.857 57.3773 24.1587 57.3773 24.1587L52.993 25.0932Z" fill="#7E7966"/>
<path d="M53.4335 28.1776C53.4335 28.1776 53.4142 27.9182 53.3947 27.6588C53.3679 27.4003 53.3313 27.143 53.3313 27.143L57.7814 26.6016C57.7814 26.6016 57.824 26.9084 57.8557 27.2162C57.8793 27.5249 57.903 27.8334 57.903 27.8334L53.4335 28.1776Z" fill="#7E7966"/>
<path d="M53.4851 31.0413L53.5121 30H60.0005L59.9673 31.3249L53.4851 31.0413Z" fill="#7E7966"/>
<path d="M53.1392 34.139C53.1392 34.139 53.1853 33.8834 53.2316 33.6278C53.2692 33.3708 53.2991 33.1125 53.2991 33.1125L57.743 33.7027C57.743 33.7027 57.7067 34.0102 57.6614 34.3164C57.6071 34.6212 57.5526 34.926 57.5526 34.926L53.1392 34.139Z" fill="#7E7966"/>
<path d="M52.3926 37.1615C52.3926 37.1615 52.4136 37.1001 52.4452 37.008C52.472 36.9143 52.5078 36.7895 52.5435 36.6647C52.6147 36.415 52.6857 36.1653 52.6857 36.1653L57.0113 37.3423C57.0113 37.3423 56.9266 37.6402 56.8417 37.9381C56.7987 38.0868 56.7556 38.2355 56.7234 38.3471C56.6862 38.4571 56.6614 38.5305 56.6614 38.5305L52.3926 37.1615Z" fill="#7E7966"/>
<path d="M30.0006 50.0104C41.0521 50.0104 50.0112 41.0514 50.0112 29.9998C50.0112 18.9483 41.0521 9.98926 30.0006 9.98926C18.949 9.98926 9.98999 18.9483 9.98999 29.9998C9.98999 41.0514 18.949 50.0104 30.0006 50.0104Z" fill="#FCF3CF"/>
<path opacity="0.8" d="M30.0005 47.7622C20.2064 47.7622 12.2383 39.7941 12.2383 30C12.2383 20.206 20.2064 12.2378 30.0005 12.2378C39.7946 12.2378 47.7627 20.206 47.7627 30C47.7627 39.7941 39.7946 47.7622 30.0005 47.7622Z" fill="#E4D498"/>
<path d="M18.0509 30.9235C19.2926 30.9235 20.2992 29.9169 20.2992 28.6751C20.2992 27.4334 19.2926 26.4268 18.0509 26.4268C16.8091 26.4268 15.8025 27.4334 15.8025 28.6751C15.8025 29.9169 16.8091 30.9235 18.0509 30.9235Z" fill="#BB4661"/>
<path opacity="0.2" d="M18.0509 26.764C19.2356 26.764 20.2042 27.681 20.2907 28.8438C20.2948 28.7879 20.2992 28.7321 20.2992 28.6751C20.2992 27.4334 19.2926 26.4268 18.0509 26.4268C16.8091 26.4268 15.8025 27.4334 15.8025 28.6751C15.8025 28.7321 15.8068 28.7879 15.811 28.8438C15.8975 27.681 16.866 26.764 18.0509 26.764Z" fill="#040000"/>
<path opacity="0.1" d="M49.856 33.1386C50.7843 27.28 49.068 21.6135 45.5918 17.3525L27.0281 30.838L39.3225 47.762C44.7554 44.9319 48.8237 39.6536 49.856 33.1386Z" fill="#040000"/>
<path opacity="0.1" d="M16.0601 15.74C13.1078 18.639 11.025 22.475 10.3277 26.8755C9.52651 31.9321 10.6957 36.8455 13.2656 40.8357L27.028 30.8381L16.0601 15.74Z" fill="#040000"/>
</g>
<defs>
<clipPath id="clip0_19_18984">
<rect width="60" height="60" fill="white" transform="translate(0.000488281)"/>
</clipPath>
</defs>
</svg>
