<svg width="264" height="264" viewBox="0 0 264 264" fill="none" xmlns="http://www.w3.org/2000/svg">
<path d="M148.371 187.572C152.664 185.821 154.95 182.733 156.088 179.388H107.919C109.056 182.733 111.343 185.821 115.635 187.572C121.699 190.048 121.121 195.597 118.793 200.793C118.347 201.788 117.84 202.748 117.288 203.677H146.719C146.167 202.748 145.66 201.788 145.214 200.793C142.888 195.597 142.307 190.048 148.371 187.572Z" fill="#231F20"/>
<path d="M162.493 216.601L159.795 215.363C156.964 214.065 154.367 212.345 152.099 210.277H111.908C109.64 212.345 107.044 214.065 104.215 215.363L101.517 216.601C98.697 217.895 96.8912 220.712 96.8912 223.811H167.115C167.115 222.261 166.664 220.783 165.861 219.529C165.056 218.275 163.9 217.248 162.493 216.601Z" fill="#231F20"/>
<path d="M40.1933 164.868C40.1933 169.242 43.7393 172.788 48.1133 172.788H215.895C220.269 172.788 223.815 169.242 223.815 164.868V146.773H40.1933V164.868Z" fill="#231F20"/>
<path d="M66.092 88.6235V99.6202C69.0527 100.302 71.3847 102.624 72.0806 105.58H83.0482C81.1629 101.176 78.9863 97.7629 76.4476 95.2256C73.909 92.6854 70.496 90.5088 66.092 88.6235Z" fill="#231F20"/>
<path d="M66.092 72.1982V81.5148C72.5404 83.9465 77.4733 86.9154 81.1144 90.5589C84.7563 94.1984 87.7249 99.1313 90.1569 105.58H99.4735C97.8966 87.8996 83.7723 73.7754 66.092 72.1982Z" fill="#231F20"/>
<path d="M215.895 40.189H48.1133C43.7393 40.189 40.1933 43.735 40.1933 48.109V140.173H223.815V48.109C223.815 43.7347 220.269 40.189 215.895 40.189ZM106.22 112.18H70.7289C69.2703 114.151 66.9288 115.43 64.2881 115.43C59.8653 115.43 56.2799 111.844 56.2799 107.422C56.2799 104.798 57.5418 102.469 59.492 101.008V65.4519H62.792C86.7383 65.4519 106.22 84.9335 106.22 108.88V112.18ZM129.662 104.513L127.78 106.348C127.553 106.569 127.449 106.887 127.503 107.2L127.947 109.79C128.082 110.577 127.257 111.176 126.551 110.805L124.224 109.582C123.944 109.435 123.609 109.435 123.328 109.582L121.002 110.805C120.296 111.176 119.47 110.577 119.605 109.79L120.05 107.2C120.103 106.887 120 106.569 119.773 106.348L117.891 104.513C117.319 103.956 117.635 102.986 118.424 102.871L121.025 102.493C121.339 102.448 121.61 102.251 121.75 101.967L122.913 99.6095C123.266 98.8941 124.286 98.8941 124.639 99.6095L125.802 101.967C125.943 102.251 126.214 102.448 126.527 102.493L129.128 102.871C129.918 102.986 130.233 103.956 129.662 104.513ZM127.076 84.7321H116.228C114.406 84.7321 112.928 83.2545 112.928 81.4321C112.928 79.6094 114.406 78.1321 116.228 78.1321H127.076C128.899 78.1321 130.376 79.6094 130.376 81.4321C130.376 83.2547 128.899 84.7321 127.076 84.7321ZM147.76 104.513L145.878 106.348C145.652 106.569 145.548 106.887 145.601 107.2L146.046 109.79C146.181 110.577 145.355 111.176 144.649 110.805L142.322 109.582C142.042 109.435 141.707 109.435 141.427 109.582L139.1 110.805C138.394 111.176 137.569 110.577 137.704 109.79L138.148 107.2C138.201 106.887 138.098 106.569 137.871 106.348L135.989 104.513C135.418 103.956 135.733 102.986 136.522 102.871L139.123 102.493C139.437 102.448 139.708 102.251 139.848 101.967L141.011 99.6095C141.364 98.8941 142.385 98.8941 142.737 99.6095L143.901 101.967C144.041 102.251 144.312 102.448 144.625 102.493L147.226 102.871C148.016 102.986 148.332 103.956 147.76 104.513ZM142.628 84.7321C140.806 84.7321 139.328 83.2545 139.328 81.4321C139.328 79.6094 140.806 78.1321 142.628 78.1321H153.476C155.299 78.1321 156.776 79.6094 156.776 81.4321C156.776 83.2545 155.299 84.7321 153.476 84.7321H142.628ZM165.859 104.513L163.977 106.348C163.75 106.569 163.647 106.887 163.7 107.2L164.144 109.79C164.279 110.577 163.454 111.176 162.748 110.805L160.421 109.582C160.141 109.435 159.806 109.435 159.526 109.582L157.199 110.805C156.493 111.176 155.667 110.577 155.802 109.79L156.247 107.2C156.3 106.887 156.197 106.569 155.97 106.348L154.088 104.513C153.517 103.956 153.832 102.986 154.621 102.871L157.222 102.493C157.536 102.448 157.807 102.251 157.947 101.967L159.111 99.6095C159.464 98.8941 160.484 98.8941 160.837 99.6095L162 101.967C162.14 102.251 162.412 102.448 162.725 102.493L165.326 102.871C166.115 102.986 166.43 103.956 165.859 104.513ZM189.884 104.258L187.007 107.062C186.661 107.4 186.502 107.887 186.584 108.365L187.263 112.324C187.469 113.526 186.208 114.442 185.129 113.875L181.573 112.005C181.144 111.78 180.632 111.78 180.204 112.005L176.648 113.875C175.569 114.442 174.307 113.526 174.513 112.324L175.192 108.365C175.274 107.887 175.116 107.4 174.769 107.062L171.893 104.258C171.019 103.407 171.501 101.924 172.708 101.749L176.683 101.171C177.163 101.101 177.577 100.8 177.791 100.366L179.569 96.7639C180.109 95.6704 181.668 95.6704 182.208 96.7639L183.985 100.366C184.2 100.8 184.614 101.101 185.093 101.171L189.068 101.749C190.275 101.924 190.757 103.407 189.884 104.258ZM204.428 84.7321H169.028C167.206 84.7321 165.728 83.2545 165.728 81.4321C165.728 79.6094 167.206 78.1321 169.028 78.1321H204.428C206.251 78.1321 207.728 79.6094 207.728 81.4321C207.728 83.2547 206.251 84.7321 204.428 84.7321ZM204.428 71.5321H116.228C114.406 71.5321 112.928 70.0545 112.928 68.2321C112.928 66.4094 114.406 64.9321 116.228 64.9321H204.428C206.251 64.9321 207.728 66.4094 207.728 68.2321C207.728 70.0547 206.251 71.5321 204.428 71.5321Z" fill="#231F20"/>
</svg>
