<svg width="60" height="60" viewBox="0 0 60 60" fill="none" xmlns="http://www.w3.org/2000/svg">
<g clip-path="url(#clip0_15_5386)">
<path d="M10.0012 16.2499C9.31084 16.2499 8.75055 15.6906 8.75055 15.0003C8.75055 14.31 9.31084 13.7506 10.0012 13.7506C11.0487 13.7506 11.7262 13.3926 12.1343 12.6245C12.4768 11.9809 12.5005 11.2869 12.5005 11.2429V7.50021C12.5005 6.80996 13.0608 6.25049 13.7512 6.25049C14.4416 6.25049 15 6.80984 15 7.50021V11.2502C15 11.3765 14.9835 12.5163 14.3994 13.6846C13.5736 15.339 12.0098 16.2499 10.0012 16.2499Z" fill="#7F4545"/>
<path d="M50.0005 16.2499C47.9919 16.2499 46.4283 15.339 45.6025 13.6846C45.0184 12.5163 45 11.3765 45 11.2502V7.50021C45 6.80996 45.5603 6.25049 46.2507 6.25049C46.941 6.25049 47.5012 6.80984 47.5012 7.50021V11.2429C47.5012 11.2869 47.525 11.9809 47.8674 12.6245C48.2757 13.3927 48.9533 13.7506 50.0005 13.7506C50.6909 13.7506 51.2512 14.31 51.2512 15.0003C51.2512 15.6906 50.6909 16.2499 50.0005 16.2499Z" fill="#7F4545"/>
<path d="M55.0013 23.7499C52.4872 23.7499 50.537 22.6174 49.508 20.5593C48.772 19.0881 48.75 17.658 48.75 17.5005V7.50021C48.75 6.80996 49.3103 6.25049 50.0005 6.25049C50.6909 6.25049 51.2512 6.80984 51.2512 7.50021V17.5005C51.2512 17.5032 51.2677 18.5332 51.7767 19.5046C52.3901 20.6792 53.4448 21.2505 55.0013 21.2505C55.6916 21.2505 56.25 21.8098 56.25 22.5002C56.25 23.1906 55.6916 23.7499 55.0013 23.7499Z" fill="#965353"/>
<path d="M5.00055 23.7499C4.31017 23.7499 3.75 23.1906 3.75 22.5002C3.75 21.8098 4.31017 21.2505 5.00055 21.2505C6.55696 21.2505 7.61168 20.6792 8.22506 19.5046C8.73414 18.5332 8.75055 17.5032 8.75055 17.4931V7.50021C8.75055 6.80996 9.31084 6.25049 10.0012 6.25049C10.6916 6.25049 11.25 6.80984 11.25 7.50021V17.5005C11.25 17.658 11.2298 19.088 10.4938 20.5593C9.46471 22.6175 7.51465 23.7499 5.00055 23.7499Z" fill="#965353"/>
<path d="M13.7512 53.7493C13.0608 53.7493 12.5005 53.1907 12.5005 52.5005V46.2493C12.5005 45.5608 13.0608 45.0005 13.7512 45.0005C14.4416 45.0005 15 45.5608 15 46.2493V52.5005C15 53.1909 14.4415 53.7493 13.7512 53.7493Z" fill="#656D78"/>
<path d="M17.5012 52.5005C16.8108 52.5005 16.2505 51.9402 16.2505 51.2517V46.2493C16.2505 45.5608 16.8108 45.0005 17.5012 45.0005C18.1916 45.0005 18.75 45.5608 18.75 46.2493V51.2517C18.75 51.9402 18.1915 52.5005 17.5012 52.5005Z" fill="#434A54"/>
<path d="M42.5006 52.5005C41.8102 52.5005 41.25 51.9402 41.25 51.2517V46.2493C41.25 45.5608 41.8102 45.0005 42.5006 45.0005C43.1909 45.0005 43.7512 45.5608 43.7512 46.2493V51.2517C43.7512 51.9402 43.1909 52.5005 42.5006 52.5005Z" fill="#434A54"/>
<path d="M46.2507 53.7493C45.5603 53.7493 45 53.1907 45 52.5005V46.2493C45 45.5608 45.5603 45.0005 46.2507 45.0005C46.941 45.0005 47.5012 45.5608 47.5012 46.2493V52.5005C47.5012 53.1909 46.941 53.7493 46.2507 53.7493Z" fill="#656D78"/>
<path d="M5.00055 6.25098H1.25055C0.560174 6.25098 0 6.81033 0 7.5007V52.5008C0 53.1912 0.560174 53.7496 1.25055 53.7496H5.00055C5.69092 53.7496 6.25121 53.1911 6.25121 52.5008V7.50059C6.25121 6.81033 5.6908 6.25098 5.00055 6.25098Z" fill="#A85D5D"/>
<path d="M58.7512 6.25098H55.0013C54.311 6.25098 53.7507 6.81033 53.7507 7.5007V52.5008C53.7507 53.1912 54.311 53.7496 55.0013 53.7496H58.7512C59.4416 53.7496 60 53.1911 60 52.5008V7.50059C60 6.81033 59.4416 6.25098 58.7512 6.25098Z" fill="#A85D5D"/>
<path d="M17.5012 43.7515C16.8108 43.7515 16.2505 43.1912 16.2505 42.4989V28.7505C16.2505 28.0602 16.8108 27.5 17.5012 27.5C18.1916 27.5 18.75 28.0603 18.75 28.7505V42.4989C18.75 43.1911 18.1915 43.7515 17.5012 43.7515Z" fill="#434A54"/>
<path d="M42.5006 43.7515C41.8102 43.7515 41.25 43.1912 41.25 42.4989V28.7505C41.25 28.0602 41.8102 27.5 42.5006 27.5C43.1909 27.5 43.7512 28.0603 43.7512 28.7505V42.4989C43.7512 43.1911 43.1909 43.7515 42.5006 43.7515Z" fill="#434A54"/>
<path d="M45 36.2517H15C14.3115 36.2517 13.7512 35.6914 13.7512 34.9992C13.7512 34.3108 14.3115 33.7505 15 33.7505H45C45.6921 33.7505 46.2507 34.3108 46.2507 34.9992C46.2507 35.6913 45.6921 36.2517 45 36.2517Z" fill="#F4BE8E"/>
<path d="M45 40.0017H15C14.3115 40.0017 13.7512 39.4415 13.7512 38.7493C13.7512 38.0608 14.3115 37.5005 15 37.5005H45C45.6921 37.5005 46.2507 38.0608 46.2507 38.7493C46.2507 39.4414 45.6921 40.0017 45 40.0017Z" fill="#F4BE8E"/>
<path d="M45 32.5017H15C14.3115 32.5017 13.7512 31.9414 13.7512 31.2502C13.7512 30.5598 14.3115 30.0005 15 30.0005H45C45.6921 30.0005 46.2507 30.5598 46.2507 31.2502C46.2507 31.9413 45.6921 32.5017 45 32.5017Z" fill="#F4BE8E"/>
<path d="M46.2507 41.2505H13.7512C13.0608 41.2505 12.5005 41.8108 12.5005 42.4992V46.2493C12.5005 46.9414 13.0608 47.5018 13.7512 47.5018H46.2507C46.941 47.5018 47.5012 46.9415 47.5012 46.2493V42.4992C47.5012 41.8108 46.941 41.2505 46.2507 41.2505Z" fill="#FFD2A6"/>
</g>
<defs>
<clipPath id="clip0_15_5386">
<rect width="60" height="60" fill="white"/>
</clipPath>
</defs>
</svg>
