<svg width="60" height="60" viewBox="0 0 60 60" fill="none" xmlns="http://www.w3.org/2000/svg">
<g clip-path="url(#clip0_19_18535)">
<path d="M25.0001 27.9107C24.6082 28.0499 24.188 28.125 23.7494 28.125C21.6785 28.125 19.9994 26.4459 19.9994 24.3748C19.9994 22.304 21.6785 20.6248 23.7494 20.6248C24.1879 20.6248 24.6081 20.7 25.0001 20.8391V12.4995H16.0352C16.1735 12.8915 16.2495 13.3117 16.2495 13.7502C16.2495 15.8211 14.5704 17.5002 12.4995 17.5002C10.4286 17.5002 8.74951 15.8212 8.74951 13.7502C8.74951 13.3117 8.82551 12.8915 8.96378 12.4995H1.24951V36.2492H9.589C9.45072 36.6412 9.37473 37.0623 9.37473 37.4999C9.37473 39.5708 11.0538 41.2499 13.1247 41.2499C15.1956 41.2499 16.8747 39.5709 16.8747 37.4999C16.8747 37.0623 16.7987 36.6412 16.6605 36.2492H24.9999V27.9107H25.0001Z" fill="#8CC153"/>
<path d="M47.5013 51.8757C45.4285 51.8757 43.7512 50.1966 43.7512 48.1255C43.7512 46.0545 45.4285 44.3755 47.5013 44.3755C47.937 44.3755 48.3583 44.4506 48.75 44.5897V36.2493H25.0002V60.0001H48.75V51.6614C48.3581 51.7987 47.9369 51.8757 47.5013 51.8757Z" fill="#37BC9B"/>
<path d="M26.2498 44.3755C25.8113 44.3755 25.3911 44.4506 25.0001 44.5897V36.2493H1.24951V44.5897C1.64134 44.4505 2.06155 44.3755 2.50018 44.3755C4.57109 44.3755 6.25018 46.0545 6.25018 48.1255C6.25018 50.1966 4.57109 51.8757 2.50018 51.8757C2.06167 51.8757 1.64146 51.7987 1.24951 51.6614V59.9999H25.0002V51.6613C25.3911 51.7986 25.8114 51.8755 26.2499 51.8755C28.3208 51.8755 29.9999 50.1965 29.9999 48.1254C29.9999 46.0544 28.3207 44.3755 26.2498 44.3755Z" fill="#4A89DC"/>
<path d="M58.7513 17.9106C58.3595 18.0489 57.9382 18.1248 57.4989 18.1248C55.4298 18.1248 53.7488 16.4466 53.7488 14.3748C53.7488 12.3039 55.4298 10.6246 57.4989 10.6246C57.9382 10.6246 58.3595 10.7006 58.7513 10.8389V2.50049H34.9988V10.839C34.6088 10.7008 34.1894 10.6248 33.7501 10.6248C31.6792 10.6248 30 12.3039 30 14.3749C30 16.4467 31.6791 18.1249 33.7501 18.1249C34.1894 18.1249 34.6088 18.049 34.9988 17.9107V26.2502H43.3392C43.2019 26.642 43.1251 27.0613 43.1251 27.5008C43.1251 29.5717 44.804 31.2508 46.8751 31.2508C48.9461 31.2508 50.6251 29.5718 50.6251 27.5008C50.6251 27.0613 50.5481 26.642 50.4109 26.2502H58.7513V17.9106Z" fill="#F6BB42"/>
<path d="M47.5013 49.3745C45.4285 49.3745 43.7512 47.6954 43.7512 45.6244C43.7512 43.5536 45.4285 41.8744 47.5013 41.8744C47.937 41.8744 48.3583 41.9512 48.75 42.0887V33.75H25.0002V57.5005H48.75V49.1601C48.3581 49.2995 47.9369 49.3745 47.5013 49.3745Z" fill="#48CFAD"/>
<path d="M26.2498 41.8744C25.8113 41.8744 25.3911 41.9512 25.0001 42.0887V33.75H1.24951V42.0887C1.64134 41.9512 2.06155 41.8744 2.50018 41.8744C4.57109 41.8744 6.25018 43.5535 6.25018 45.6244C6.25018 47.6953 4.57109 49.3745 2.50018 49.3745C2.06167 49.3745 1.64146 49.2993 1.24951 49.1602V57.5007H25.0002V49.1602C25.3911 49.2995 25.8114 49.3745 26.2499 49.3745C28.3208 49.3745 29.9999 47.6954 29.9999 45.6244C29.9998 43.5535 28.3207 41.8744 26.2498 41.8744Z" fill="#5D9CEC"/>
<path d="M58.7513 15.4111C58.3595 15.5493 57.9382 15.6252 57.4989 15.6252C55.4298 15.6252 53.7488 13.9462 53.7488 11.8752C53.7488 9.80418 55.4298 8.1251 57.4989 8.1251C57.9382 8.1251 58.3595 8.2011 58.7513 8.33937V0H34.9988V8.33948C34.6088 8.20121 34.1894 8.12522 33.7501 8.12522C31.6792 8.12522 30 9.8043 30 11.8753C30 13.9464 31.6791 15.6253 33.7501 15.6253C34.1894 15.6253 34.6088 15.5495 34.9988 15.4112V23.7507H43.3392C43.2019 24.1406 43.1251 24.5618 43.1251 24.9993C43.1251 27.0703 44.804 28.7495 46.8751 28.7495C48.9461 28.7495 50.6251 27.0704 50.6251 24.9993C50.6251 24.5618 50.5481 24.1406 50.4109 23.7507H58.7513V15.4111Z" fill="#FFCE54"/>
<path d="M25.0001 25.4114C24.6082 25.5488 24.188 25.6257 23.7494 25.6257C21.6785 25.6257 19.9994 23.9466 19.9994 21.8757C19.9994 19.8048 21.6785 18.1248 23.7494 18.1248C24.1879 18.1248 24.6081 18.2008 25.0001 18.339V10.0005H16.0352C16.1735 10.3914 16.2495 10.8116 16.2495 11.2501C16.2495 13.321 14.5704 15.0001 12.4995 15.0001C10.4286 15.0001 8.74951 13.3211 8.74951 11.2501C8.74951 10.8116 8.82551 10.3914 8.96378 10.0005H1.24951V33.7502H9.589C9.45072 34.142 9.37473 34.5613 9.37473 35.0008C9.37473 37.0717 11.0538 38.7508 13.1247 38.7508C15.1956 38.7508 16.8747 37.0718 16.8747 35.0008C16.8747 34.5613 16.7987 34.142 16.6605 33.7502H24.9999V25.4114H25.0001Z" fill="#A0D468"/>
</g>
<defs>
<clipPath id="clip0_19_18535">
<rect width="60" height="60" fill="white" transform="translate(0.000488281)"/>
</clipPath>
</defs>
</svg>
