<svg width="60" height="61" viewBox="0 0 60 61" fill="none" xmlns="http://www.w3.org/2000/svg">
<g clip-path="url(#clip0_16_7505)">
<path d="M54.375 3.87109H48.75L13.125 37.6211L20.625 45.1211L54.375 9.49609V3.87109Z" fill="#C4CCCC"/>
<path d="M54.375 3.87109L16.875 41.3711L20.625 45.1211L54.375 9.49609V3.87109Z" fill="#A3AFAF"/>
<path d="M9.37585 37.6226L20.6254 48.8721L22.5001 46.9974L11.2505 35.7479L9.37585 37.6226Z" fill="#C4CCCC"/>
<path d="M0.000664994 46.9976L11.2502 58.2471L13.1249 56.3724L1.87537 45.1229L0.000664994 46.9976Z" fill="#C4CCCC"/>
<path d="M12.1883 40.4335L4.68817 47.9336L10.3136 53.559L17.8137 46.0589L12.1883 40.4335Z" fill="#A3AFAF"/>
<path d="M5.625 3.87109V9.49609L39.375 45.1211L46.875 37.6211L11.25 3.87109H5.625Z" fill="#E1E5E5"/>
<path d="M39.3763 48.8696L50.6259 37.6201L48.7512 35.7454L37.5016 46.9949L39.3763 48.8696Z" fill="#E1E5E5"/>
<path d="M48.7515 58.2446L60.001 46.9951L58.1263 45.1204L46.8768 56.3699L48.7515 58.2446Z" fill="#E1E5E5"/>
<path d="M5.625 3.87109L43.125 41.3711L46.875 37.6211L11.25 3.87109H5.625Z" fill="#FDFFFF"/>
<path d="M42.1872 46.0575L49.6873 53.5576L55.3127 47.9322L47.8126 40.4321L42.1872 46.0575Z" fill="#C4CCCC"/>
<path d="M17.8125 46.0586L12.1875 40.4336V51.6836L17.8125 46.0586Z" fill="#8D9999"/>
<path d="M47.8125 40.4336L42.1875 46.0586L47.8125 51.6836V40.4336Z" fill="#A3AFAF"/>
<path d="M23.2144 42.3872L30 35.2247L26.6044 31.6416L23.2144 35.0316V42.3872Z" fill="#8D9999"/>
<path d="M26.6044 31.6419L23.2144 28.0625V35.0319L26.6044 31.6419Z" fill="#A3AFAF"/>
<path d="M26.6044 31.6419L23.2144 28.0625V35.0319L26.6044 31.6419Z" fill="#A3AFAF"/>
</g>
<defs>
<clipPath id="clip0_16_7505">
<rect width="60" height="60" fill="white" transform="translate(0 0.121094)"/>
</clipPath>
</defs>
</svg>
