<svg width="60" height="60" viewBox="0 0 60 60" fill="none" xmlns="http://www.w3.org/2000/svg">
<path d="M14.1867 26.5498C14.1867 29.3115 17.4767 29.8831 13.3333 29.8831C9.19167 29.8831 3.33334 28.2165 3.33334 26.5498C3.33334 24.8831 5.87667 21.5498 10.02 21.5498C14.1633 21.5498 14.1867 23.7881 14.1867 26.5498Z" fill="#F4900C"/>
<path d="M46.4667 55.045C46.3047 54.7631 46.0621 54.5361 45.77 54.3933C43.1083 51.5516 45 48.2166 45 48.2166C45 47.295 46.6667 44.8833 45 44.8833L43.3333 46.55C41.6667 48.2166 41.6667 53.2166 41.6667 53.2166H38.3333C37.8913 53.2166 37.4674 53.3922 37.1548 53.7048C36.8423 54.0173 36.6667 54.4413 36.6667 54.8833C36.6667 55.3253 36.8423 55.7493 37.1548 56.0618C37.4674 56.3744 37.8913 56.55 38.3333 56.55H40.1783L39.8083 56.75C39.6158 56.8541 39.4457 56.9952 39.3078 57.1651C39.1698 57.3351 39.0666 57.5305 39.0042 57.7403C38.9417 57.9501 38.9212 58.1701 38.9438 58.3878C38.9664 58.6055 39.0317 58.8166 39.1358 59.0091C39.24 59.2016 39.3811 59.3717 39.551 59.5097C39.7209 59.6477 39.9164 59.7508 40.1261 59.8133C40.3359 59.8757 40.5559 59.8962 40.7737 59.8736C40.9914 59.8511 41.2025 59.7858 41.395 59.6816L45.7933 57.3033C45.986 57.1994 46.1562 57.0585 46.2943 56.8887C46.4324 56.7189 46.5357 56.5235 46.5983 56.3137C46.6608 56.104 46.6814 55.884 46.6588 55.6663C46.6362 55.4485 46.5709 55.2374 46.4667 55.045ZM34.8 55.045C34.638 54.7631 34.3954 54.5361 34.1033 54.3933C31.4417 51.5516 33.3333 48.2166 33.3333 48.2166C33.3333 47.295 35 44.8833 33.3333 44.8833L31.6667 46.55C30 48.2166 30 53.2166 30 53.2166H26.6667C26.2246 53.2166 25.8007 53.3922 25.4882 53.7048C25.1756 54.0173 25 54.4413 25 54.8833C25 55.3253 25.1756 55.7493 25.4882 56.0618C25.8007 56.3744 26.2246 56.55 26.6667 56.55H28.5133L28.1433 56.75C27.9508 56.8541 27.7807 56.9952 27.6428 57.1651C27.5048 57.3351 27.4016 57.5305 27.3392 57.7403C27.2767 57.9501 27.2562 58.1701 27.2788 58.3878C27.3014 58.6055 27.3667 58.8166 27.4708 59.0091C27.575 59.2016 27.7161 59.3717 27.886 59.5097C28.0559 59.6477 28.2514 59.7508 28.4611 59.8133C28.6709 59.8757 28.8909 59.8962 29.1087 59.8736C29.3264 59.8511 29.5375 59.7858 29.73 59.6816L34.1283 57.3033C34.5167 57.0928 34.8057 56.7366 34.9316 56.3132C35.0576 55.8897 35.0102 55.4335 34.8 55.045Z" fill="#FFAC33"/>
<path d="M58.695 28.8417C56.4583 28.8417 45.5217 36.53 39.44 19.8834C39.4317 19.86 39.42 19.8434 39.41 19.82C38.6199 16.9778 37.0519 14.4127 34.8826 12.4136C32.7132 10.4145 30.0288 9.06079 27.1317 8.50502L27.07 8.43502C30.6483 6.14002 31.6667 7.84502 31.6667 6.55002C31.6667 4.58502 28.195 4.37836 25 6.57002C21.805 4.37836 18.3333 4.58502 18.3333 6.55002C18.3333 7.81836 19.305 6.20336 22.705 8.29002C14.6467 9.02836 8.33334 15.7984 8.33334 24.05C8.33334 31.5134 13.505 37.755 20.455 39.4284C22.1267 46.38 28.3683 51.55 35.8333 51.55C42.4217 51.55 47.39 48.7534 50.8167 44.885C51.7417 43.8417 51.0017 45.8884 52.22 45.2767C59.2867 41.7234 60.8333 28.8417 58.695 28.8417Z" fill="#FFCC4D"/>
<path d="M20.8333 24.8833C22.214 24.8833 23.3333 23.764 23.3333 22.3833C23.3333 21.0026 22.214 19.8833 20.8333 19.8833C19.4526 19.8833 18.3333 21.0026 18.3333 22.3833C18.3333 23.764 19.4526 24.8833 20.8333 24.8833Z" fill="#662113"/>
<path d="M36.35 26.5502C36.35 26.5502 33.0167 43.2169 53.0167 43.2169C54.6833 43.2169 53.0167 46.5502 46.35 46.5502C39.6833 46.5502 29.685 38.2169 34.6833 28.2169C35.7383 26.1086 36.35 26.5502 36.35 26.5502Z" fill="#FFAC33"/>
</svg>
