<svg width="512" height="512" viewBox="0 0 512 512" fill="none" xmlns="http://www.w3.org/2000/svg">
<path d="M256 250.722C279.33 250.722 298.227 269.618 298.227 292.949C298.227 316.28 279.33 335.175 256 335.175C232.67 335.175 213.773 316.279 213.773 292.948C213.773 269.617 232.67 250.722 256 250.722Z" fill="#009FD3"/>
<path d="M256 208.495C329.897 208.495 393.237 292.949 393.237 292.949C393.237 292.949 329.897 377.402 256 377.402C182.103 377.402 118.763 292.948 118.763 292.948C118.763 292.948 182.103 208.495 256 208.495ZM298.227 292.948C298.227 269.618 279.331 250.721 256 250.721C232.669 250.721 213.773 269.617 213.773 292.948C213.773 316.279 232.67 335.175 256 335.175C279.33 335.175 298.227 316.279 298.227 292.948Z" fill="#E7ECED"/>
<path d="M467.134 435.464H256H44.866V150.433H256H467.134V435.464ZM393.237 292.948C393.237 292.948 329.897 208.494 256 208.494C182.103 208.494 118.763 292.948 118.763 292.948C118.763 292.948 182.103 377.402 256 377.402C329.897 377.402 393.237 292.948 393.237 292.948Z" fill="#FFD311"/>
<path d="M504.082 113.485V472.412H256V435.464H467.134V150.433H256V113.485H504.082Z" fill="#E7ECED"/>
<path d="M504.082 39.5879H256V113.485H504.082V39.5879Z" fill="#546A79"/>
<path d="M256 39.5879H7.91797V113.485H256V39.5879Z" fill="#455865"/>
<path d="M44.866 435.464H256V472.412H7.91797V113.485H256V150.433H44.866V435.464Z" fill="#CCD1D2"/>
<path d="M256 335.175C232.67 335.175 213.773 316.279 213.773 292.948H118.763C118.763 292.948 182.103 377.402 256 377.402C329.897 377.402 393.237 292.948 393.237 292.948H298.227C298.227 316.279 279.33 335.175 256 335.175Z" fill="#D7DCDD"/>
<path d="M393.237 292.948C393.237 292.948 329.897 377.402 256 377.402C182.103 377.402 118.763 292.948 118.763 292.948H44.866V435.463H256H467.134V292.948H393.237Z" fill="#FBC319"/>
<path d="M244.399 252.537C226.755 257.6 213.773 273.669 213.773 292.948C213.773 316.278 232.669 335.175 256 335.175C269.357 335.175 281.118 328.859 288.854 319.184C268.947 301.171 253.543 278.378 244.399 252.537Z" fill="#008BC8"/>
<path d="M60.7009 68.6191H39.5879V84.4541H60.7009V68.6191Z" fill="white"/>
<path d="M92.3708 68.6191H71.2578V84.4541H92.3708V68.6191Z" fill="white"/>
<path d="M472.412 68.6191H451.299V84.4541H472.412V68.6191Z" fill="white"/>
<path d="M0 31.6699V480.33H512V31.6699H0ZM496.165 47.5049V105.567H15.835V47.5049H496.165ZM15.835 464.495V121.402H496.165V464.495H15.835Z" fill="black"/>
<path d="M36.948 443.381H475.051V142.515H36.948V443.381ZM52.784 158.351H459.217V427.547H52.784V158.351Z" fill="black"/>
<path d="M357.43 244.665C323.18 215.822 288.105 200.577 256 200.577C223.895 200.577 188.82 215.822 154.57 244.665C129.099 266.114 113.097 287.306 112.429 288.198L108.866 292.949L112.429 297.7C113.097 298.592 129.099 319.784 154.57 341.233C188.82 370.076 223.895 385.321 256 385.321C288.105 385.321 323.18 370.076 357.43 341.233C382.9 319.784 398.903 298.591 399.571 297.7L403.134 292.949L399.571 288.198C398.903 287.306 382.9 266.114 357.43 244.665ZM256 369.485C196.831 369.485 143.346 310.332 128.909 292.945C143.337 275.543 196.736 216.413 256 216.413C315.165 216.413 368.647 275.56 383.091 292.953C368.663 310.354 315.264 369.485 256 369.485Z" fill="black"/>
<path d="M256 242.804C228.351 242.804 205.856 265.299 205.856 292.948C205.856 320.597 228.351 343.092 256 343.092C283.649 343.092 306.144 320.597 306.144 292.948C306.144 265.299 283.649 242.804 256 242.804ZM256 327.258C237.082 327.258 221.691 311.867 221.691 292.949C221.691 274.03 237.083 258.64 256 258.64C274.918 258.64 290.309 274.031 290.309 292.949C290.309 311.867 274.918 327.258 256 327.258Z" fill="black"/>
<path d="M271.835 285.031H240.165V300.866H271.835V285.031Z" fill="white"/>
<path d="M92.3711 179.464H71.2581V195.299H92.3711V179.464Z" fill="white"/>
<path d="M92.3711 390.598H71.2581V406.433H92.3711V390.598Z" fill="white"/>
<path d="M440.742 390.598H419.629V406.433H440.742V390.598Z" fill="white"/>
<path d="M440.742 179.464H419.629V195.299H440.742V179.464Z" fill="white"/>
</svg>
