<svg width="600" height="601" viewBox="0 0 600 601" fill="none" xmlns="http://www.w3.org/2000/svg">
<g clip-path="url(#clip0_16_7486)">
<path d="M478.097 74.9178C472.882 80.0248 460.581 86.0201 454.688 88.6451C455.27 87.1451 455.635 85.6334 455.676 84.1615C456.988 76.9463 447.941 51.5717 440.74 43.1378C439.884 41.8827 438.174 42.512 438.318 44.0237C440.349 55.1553 436.068 75.608 435.361 83.0775C435.343 85.5877 436.367 89.1162 437.635 92.558C429.835 83.9424 418.608 78.7416 406.581 78.7416C403.966 78.7416 401.311 78.9877 398.646 79.4986C388.251 81.4908 379.503 87.172 373.477 94.9181C373.477 94.9181 449.73 104.726 452.55 104.726C455.339 104.727 458.139 104.294 460.182 102.995C465.293 100.745 477.442 84.2107 479.69 76.0685C480.12 74.9822 478.977 74.1924 478.097 74.9178Z" fill="black"/>
<path d="M365.072 114.585C364.411 119.104 364.471 123.806 365.379 128.547C369.225 148.616 386.787 162.575 406.491 162.575C428.278 162.575 445.891 146.119 448.199 125.29L365.072 114.585Z" fill="black"/>
<path d="M595.847 126.882C591.319 121.22 584.205 118.85 577.542 120.096L576.682 83.8219L586.589 81.3551C588.465 80.8887 589.767 79.1812 589.72 77.25L589.371 62.4856C589.325 60.586 587.991 58.9617 586.136 58.5516L576.032 56.3133L575.79 46.1497C575.735 43.8692 573.844 42.0633 571.563 42.1184L556.206 42.4829C553.925 42.5379 552.12 44.4305 552.175 46.711L552.278 51.0528L535.611 47.3602C520.406 60.5449 520.899 81.3293 536.711 93.7804L553.192 89.6765L554.286 135.855L508.397 172.554L469.908 174.615C463.996 170.785 456.659 169.135 449.195 170.567C441.351 172.07 405.003 179.035 399.612 180.07C384.256 183.012 374.194 197.846 377.136 213.201L381.461 235.775L415.4 196.59L383.429 261.342L318.286 269.718C307.885 271.055 300.54 280.571 301.877 290.973C303.042 300.029 310.755 308.335 323.131 307.382L398.37 297.706C404.508 296.92 410.166 292.961 412.973 287.28L448.275 215.778L430.728 291.4C428.88 299.364 418.593 313.484 400.691 315.785L396.885 316.273L402.708 346.66L373.035 412.321C372.408 413.712 371.92 415.164 371.582 416.653L345.746 530.288C342.956 542.559 350.641 554.768 362.911 557.556C375.156 560.345 387.386 552.679 390.18 540.391L415.507 428.992L452.741 346.6L464.371 344.373L450.942 429.904C450.331 433.799 450.742 437.788 452.132 441.48L490.567 543.381C495.015 555.173 508.171 561.092 519.927 556.658C531.7 552.218 537.646 539.073 533.204 527.298L496.894 431.028L509.297 352.807C510.366 346.067 510.257 339.195 508.977 332.493L485.902 211.717L516.493 210.078C520.443 209.867 524.228 208.424 527.317 205.954L592.876 153.526C601.058 146.985 602.386 135.056 595.847 126.882Z" fill="black"/>
<path d="M318.366 512.479L236.901 479.724L261.012 504.559C271.726 515.593 275.307 530.908 271.857 544.809L300.704 556.409C312.84 561.291 326.627 555.398 331.501 543.274C336.377 531.145 330.496 517.357 318.366 512.479Z" fill="black"/>
<path d="M247.215 517.953L178.051 446.709C169.299 437.695 155.032 437.087 145.545 445.321L86.9623 496.169L132.943 430.801C141.352 418.845 156.037 413.933 169.401 417.375L172.527 393.817C174.395 379.738 164.496 366.81 150.417 364.942L103.737 358.746C89.6577 356.878 76.7296 366.777 74.8616 380.856L73.5866 390.457L86.3366 385.949L34.3488 422.718C30.5625 425.396 27.839 429.322 26.6589 433.807L0.655089 532.54C-2.12108 543.083 4.17422 553.878 14.7152 556.654C25.2539 559.429 36.0527 553.136 38.8288 542.593L63.0022 450.802L109.129 418.176L81.0772 452.901C80.8475 453.771 57.628 541.944 57.4229 542.722C61.7823 553.819 74.0741 560.156 85.903 556.815C87.2038 556.445 167.756 533.609 169.218 533.196L151.426 514.867L117.994 531.929L159.67 495.757L213.237 550.937C222.352 560.324 237.339 560.534 246.717 551.432C256.099 542.326 256.321 527.336 247.215 517.953Z" fill="black"/>
<path d="M206.273 286.297C204.058 279.098 196.423 275.062 189.234 277.275C186.227 278.2 183.2 279.006 180.164 279.749L171.614 247.815C170.901 245.155 168.208 243.538 165.527 244.159L149.639 247.834C145.203 248.861 140.591 248.861 136.155 247.834L120.267 244.159C117.585 243.538 114.893 245.156 114.18 247.815L105.63 279.749C102.593 279.008 99.5659 278.201 96.56 277.275C89.3729 275.061 81.7358 279.098 79.521 286.297C77.3061 293.495 81.3444 301.123 88.5421 303.336C93.8038 304.956 99.1147 306.305 104.451 307.445C103.19 327.473 117.633 345.343 137.829 348.023C158.924 350.823 178.292 335.992 181.092 314.897C181.426 312.377 181.502 309.886 181.353 307.442C186.688 306.302 191.995 304.953 197.253 303.337C204.447 301.123 208.487 293.495 206.273 286.297Z" fill="black"/>
</g>
<defs>
<clipPath id="clip0_16_7486">
<rect width="600" height="600" fill="white" transform="translate(0 0.121094)"/>
</clipPath>
</defs>
</svg>
