<svg width="60" height="60" viewBox="0 0 60 60" fill="none" xmlns="http://www.w3.org/2000/svg">
<g clip-path="url(#clip0_14_5316)">
<path d="M52.5751 19.155C56.6692 19.155 60 15.8242 60 11.7301C60 7.63595 56.6691 4.30518 52.5751 4.30518C48.4811 4.30518 45.1502 7.63595 45.1502 11.7301C45.1501 15.8242 48.481 19.155 52.5751 19.155Z" fill="black"/>
<path d="M10.194 31.5371H20.9856H27.3895H34.3208H41.4823C42.4551 31.5371 43.3187 31.0815 43.7927 30.3185C44.2667 29.5556 44.2924 28.5794 43.8614 27.7076L36.6831 13.1828C36.2172 12.24 35.377 11.6772 34.436 11.6772C33.4948 11.6772 32.6549 12.24 32.1889 13.1828L30.8551 15.8815L29.6933 13.5306C29.6931 13.5304 29.693 13.53 29.6929 13.5297L24.5043 3.03158C24.3673 2.75449 24.1973 2.51116 24.0026 2.30431C23.7098 1.99333 23.36 1.76701 22.9759 1.64136C22.9638 1.63736 22.9519 1.63246 22.9398 1.62872C22.915 1.62099 22.8893 1.61532 22.8642 1.60836C22.8342 1.60024 22.8045 1.59109 22.7741 1.58413C22.7555 1.57988 22.7366 1.5773 22.7179 1.57344C22.6803 1.56583 22.6429 1.55771 22.6049 1.55191C22.5846 1.54882 22.564 1.54753 22.5437 1.54495C22.5067 1.54031 22.4698 1.53516 22.4324 1.53245C22.4056 1.53039 22.3784 1.53052 22.3514 1.52936C22.32 1.52807 22.2889 1.52588 22.2573 1.52588H22.257C22.141 1.52588 22.0266 1.53464 21.9141 1.5514C21.9127 1.55165 21.9111 1.55165 21.9096 1.55191C21.7532 1.5755 21.6014 1.61622 21.4545 1.67061C21.4407 1.67577 21.4265 1.67989 21.4129 1.68517C21.3788 1.69858 21.3456 1.71404 21.3122 1.72899C21.2934 1.73737 21.2742 1.74472 21.2555 1.75361C21.2335 1.76418 21.2122 1.77642 21.1905 1.78763C21.1613 1.80284 21.1316 1.81728 21.1029 1.83364C21.1019 1.83429 21.1008 1.83493 21.0998 1.83558C20.6509 2.09308 20.2716 2.50227 20.0104 3.03132L15.5897 11.9757L14.0823 8.92577C13.6165 7.98289 12.7764 7.41994 11.8352 7.41994C10.8941 7.41994 10.0542 7.98276 9.58814 8.92551L0.305702 27.7077C-0.125143 28.5797 -0.0993669 29.5557 0.374653 30.3187C0.848673 31.0816 1.7123 31.5371 2.68495 31.5371H10.194ZM22.2574 7.2118L25.1719 13.1086C24.4079 13.1685 23.9442 13.4821 23.6565 13.6778C23.4595 13.8119 23.4595 13.8119 23.3311 13.8119C23.2029 13.8119 23.2029 13.8119 23.0061 13.678C22.687 13.4609 22.153 13.0977 21.2313 13.0977C20.3095 13.0977 19.7756 13.4609 19.4565 13.678C19.2597 13.8119 19.2597 13.8119 19.1314 13.8119C19.0716 13.8119 19.0395 13.8113 19.0026 13.7977L22.2574 7.2118Z" fill="black"/>
<path d="M57.6878 54.6071H51.845V44.2706C51.845 44.2007 51.904 44.1417 51.9739 44.1417H53.0196C53.7352 44.1417 53.9396 43.7351 53.9942 43.5602C54.0488 43.3854 54.1124 42.9347 53.5242 42.5272L44.0394 35.9594C43.7635 35.7684 43.4075 35.6631 43.0368 35.6631C42.6662 35.6631 42.3101 35.7683 42.0342 35.9593L38.9843 38.0712V36.9442C38.9843 36.3046 38.4641 35.7842 37.8244 35.7842H36.1281C35.4885 35.7842 34.9682 36.3046 34.9682 36.9442V40.555C34.9682 40.65 34.9811 40.7412 35.0031 40.8282L32.5494 42.5274C31.9612 42.9347 32.0247 43.3854 32.0793 43.5602C32.134 43.7351 32.3384 44.1417 33.0539 44.1417H34.0997C34.1695 44.1417 34.2285 44.2007 34.2285 44.2706V54.6071H30.6404V46.09C30.6404 45.7734 30.4882 45.4123 30.2615 45.1909L27.9883 42.9731C27.8182 42.8073 27.5929 42.7159 27.354 42.7159C27.1149 42.7159 26.8895 42.8073 26.7195 42.9733L24.4464 45.1908C24.2197 45.4118 24.0675 45.7732 24.0675 46.09V48.6087H20.2978V46.09C20.2978 45.7734 20.1456 45.4123 19.9189 45.1909L17.6457 42.9731C17.4756 42.8073 17.2503 42.7159 17.0114 42.7159C16.7723 42.7159 16.5469 42.8073 16.3769 42.9733L14.1038 45.1908C13.8771 45.4118 13.7249 45.7732 13.7249 46.09V48.6087H9.9552V46.09C9.9552 45.7734 9.80299 45.4123 9.57629 45.1909L7.30311 42.9731C7.13299 42.8073 6.9077 42.7159 6.66876 42.7159C6.42969 42.7159 6.20428 42.8073 6.03428 42.9733L3.76123 45.1908C3.53453 45.4118 3.38232 45.7732 3.38232 46.09V54.6113C2.35283 54.6543 1.53071 55.5001 1.53071 56.5403C1.53071 57.608 2.39627 58.4735 3.46391 58.4735H57.6879C58.7555 58.4735 59.6211 57.608 59.6211 56.5403C59.6211 55.4727 58.7554 54.6071 57.6878 54.6071ZM45.1866 45.5823C45.1866 45.2988 45.4185 45.0668 45.7021 45.0668H48.9705C49.254 45.0668 49.486 45.2988 49.486 45.5823V48.4018C49.486 48.6854 49.254 48.9173 48.9705 48.9173H45.7021C45.4185 48.9173 45.1866 48.6854 45.1866 48.4018V45.5823ZM38.9391 48.7243C38.9391 48.4407 39.1711 48.2088 39.4546 48.2088H42.4167C42.7002 48.2088 42.9322 48.4407 42.9322 48.7243V54.0616C42.9322 54.3451 42.7002 54.5771 42.4167 54.5771H39.4546C39.1711 54.5771 38.9391 54.3451 38.9391 54.0616V48.7243ZM24.0673 52.4751V54.6071H20.2975V52.4751H24.0673ZM13.7247 52.4751V54.6071H9.95494V52.4751H13.7247Z" fill="black"/>
</g>
<defs>
<clipPath id="clip0_14_5316">
<rect width="60" height="60" fill="white"/>
</clipPath>
</defs>
</svg>
