<svg width="60" height="60" viewBox="0 0 60 60" fill="none" xmlns="http://www.w3.org/2000/svg">
<g clip-path="url(#clip0_16_5937)">
<path d="M37.8261 23.4785C36.746 23.4785 35.8696 24.3543 35.8696 25.4351V29.3481C35.8696 30.4269 34.9918 31.3046 33.913 31.3046H31.9564V25.6969C31.9564 24.6161 31.08 23.7403 29.9999 23.7403C28.9198 23.7403 28.0433 24.6161 28.0433 25.6969V31.3046H26.0868C25.0079 31.3046 24.1302 30.4269 24.1302 29.3481C24.1302 28.2673 23.2538 27.3915 22.1736 27.3915C21.0935 27.3915 20.2171 28.2673 20.2171 29.3481C20.2171 32.18 20.2171 34.3421 20.2171 37.1742C20.2171 39.725 21.8525 41.9012 24.1301 42.7089V58.0438C24.1301 59.1246 25.0065 60.0003 26.0866 60.0003H33.9128C34.9929 60.0003 35.8693 59.1246 35.8693 58.0438V42.7088C38.1469 41.9012 39.7823 39.7249 39.7823 37.1741C39.7823 30.1522 39.7823 41.6531 39.7823 25.435C39.7826 24.3543 38.9063 23.4785 37.8261 23.4785Z" fill="#DBE1E5"/>
<path d="M33.913 59.9999C34.9931 59.9999 35.8696 59.1241 35.8696 58.0433V42.7084C38.1471 41.9008 39.7826 39.7246 39.7826 37.1737C39.7826 35.6579 39.7826 35.0075 39.7826 34.7528C39.7826 34.6387 39.7826 34.6024 39.7826 34.6062C39.7826 34.1212 39.7826 32.1729 39.7826 25.4346C39.7826 24.3538 38.9061 23.478 37.826 23.478C36.7459 23.478 35.8695 24.3538 35.8695 25.4346V29.3476C35.8695 30.4264 34.9917 31.3042 33.9129 31.3042H31.9563V25.6964C31.9563 24.6156 31.0799 23.7398 29.9998 23.7398V59.9999H33.913Z" fill="#C9D3D9"/>
<path d="M30 27.6531C19.9856 27.6531 10.5799 23.763 3.5182 16.6993C1.66992 14.8528 0.652149 12.3957 0.652149 9.78258C0.652149 7.16941 1.66992 4.71234 3.5182 2.86535C5.36391 1.01848 7.81969 0 10.4347 0C13.0498 0 15.5057 1.01848 17.3525 2.86664C24.3252 9.83555 35.6733 9.83801 42.6485 2.86535C44.4943 1.01848 46.9501 0 49.5653 0C52.1803 0 54.6362 1.01848 56.4831 2.86664C58.3301 4.71234 59.3479 7.16941 59.3479 9.78258C59.3479 12.3957 58.3301 14.8528 56.4818 16.6998C49.4201 23.763 40.0144 27.6531 30 27.6531Z" fill="#E6563A"/>
<path d="M49.5653 0C46.9502 0 44.4943 1.01848 42.6488 2.86535C39.1609 6.35168 34.5805 8.09414 30 8.09402V27.653C40.0144 27.653 49.4201 23.7629 56.4818 16.6997C58.3301 14.8528 59.3479 12.3957 59.3479 9.78258C59.3479 7.16941 58.3301 4.71234 56.4831 2.86664C54.6361 1.01848 52.1803 0 49.5653 0Z" fill="#D9472B"/>
<path d="M22.1739 35.2176C21.0937 35.2176 20.2173 34.3419 20.2173 33.2611V17.6089C20.2173 16.5281 21.0937 15.6523 22.1739 15.6523C23.254 15.6523 24.1304 16.5281 24.1304 17.6089V33.2611C24.1304 34.3419 23.2541 35.2176 22.1739 35.2176Z" fill="#DBE1E5"/>
</g>
<defs>
<clipPath id="clip0_16_5937">
<rect width="60" height="60" fill="white"/>
</clipPath>
</defs>
</svg>
