<svg width="60" height="60" viewBox="0 0 60 60" fill="none" xmlns="http://www.w3.org/2000/svg">
<g clip-path="url(#clip0_14_5267)">
<path d="M0 30C0 37.9565 3.16071 45.5871 8.7868 51.2132C14.4129 56.8393 22.0435 60 30 60C37.9565 60 45.5871 56.8393 51.2132 51.2132C56.8393 45.5871 60 37.9565 60 30C60 22.0435 56.8393 14.4129 51.2132 8.7868C45.5871 3.16071 37.9565 0 30 0C22.0435 0 14.4129 3.16071 8.7868 8.7868C3.16071 14.4129 0 22.0435 0 30Z" fill="#8DD9FF"/>
<path d="M0.689766 23.6062C0.242109 25.6673 0 27.805 0 30.0001C0 32.1952 0.242227 34.3329 0.689766 36.3939C8.57426 42.8953 28.1089 47.5 50.9766 47.5C52.1231 47.5 53.2581 47.4846 54.387 47.4617C57.9158 42.5422 60 36.5163 60 30.0001C60 23.4839 57.9157 17.4579 54.387 12.5383C53.2581 12.5156 52.1232 12.5 50.9766 12.5C28.1089 12.5001 8.57426 17.1049 0.689766 23.6062Z" fill="#FFFFF4"/>
<path d="M0 30C0 36.3394 1.97145 42.2158 5.32734 47.0601C16.1805 50.1131 31.4768 52.3272 49.0105 53.2063C55.7187 47.7044 60 39.3529 60 30C60 26.0105 59.2145 22.2062 57.8007 18.7241C33.5031 19.2947 12.5437 22.3887 0.168633 26.8248C0.056883 27.8795 0.000594573 28.9394 0 30Z" fill="#FFFFF4"/>
<path d="M20.625 16.8748C19.5703 17.1092 18.2813 19.5701 16.875 19.6873C15.4688 19.8045 12.8906 19.6873 12.1875 20.6248C11.85 21.0749 11.4048 22.855 11.0327 24.3748H25.957L26.6797 19.9607C25.5079 19.1404 21.6797 16.6404 20.625 16.8748Z" fill="#BBE6FF"/>
<path d="M0 30C0 46.5686 13.4314 60 30 60C46.5686 60 60 46.5686 60 30C60 28.0765 59.8117 26.1979 59.4656 24.375H0.534375C0.18832 26.1979 0 28.0765 0 30Z" fill="#3B87C5"/>
<path d="M29.9503 30C18.8532 30 8.6734 32.4094 0.696678 36.4234C3.52207 49.3702 14.7013 59.1919 28.3058 59.9496C28.8707 59.9682 29.4312 60 30.002 60C30.0095 60 30.0169 59.9994 30.0244 59.9994C30.5841 59.9992 31.1336 59.9681 31.6875 59.9501C45.2791 59.1961 56.4507 49.395 59.2929 36.4686C51.3029 32.4275 41.0889 30 29.9503 30Z" fill="#3C9BD4"/>
<path d="M22.2266 10.7744C21.9315 10.7744 21.6526 10.8325 21.3853 10.9168C20.5386 9.69969 19.1341 8.89941 17.5391 8.89941C15.9441 8.89941 14.5396 9.69969 13.6929 10.9168C13.4256 10.8325 13.1467 10.7744 12.8516 10.7744C11.2983 10.7744 10.0391 12.0336 10.0391 13.5869H25.0391C25.0391 12.0336 23.7799 10.7744 22.2266 10.7744Z" fill="white"/>
<path d="M18.4766 11.0551C18.4766 9.71918 19.5595 8.63625 20.8955 8.63625C21.0971 8.63625 21.2899 8.66812 21.4771 8.71465C22.1082 8.03309 23.0032 7.59961 24.0054 7.59961C25.9138 7.59961 27.4609 9.14672 27.4609 11.0551H18.4766Z" fill="white"/>
<path d="M30 8.60979C30 7.47143 30.9229 6.54846 32.0613 6.54846C32.2331 6.54846 32.3974 6.57564 32.557 6.61525C33.0949 6.03436 33.8576 5.6651 34.7116 5.6651C36.338 5.6651 37.6563 6.98346 37.6563 8.60979H30ZM46.5625 16.8594C46.5625 15.7211 47.4853 14.7981 48.6238 14.7981C48.7956 14.7981 48.9599 14.8253 49.1195 14.8649C49.6574 14.284 50.42 13.9147 51.2741 13.9147C52.9004 13.9147 54.2188 15.2331 54.2188 16.8594H46.5625ZM22.5694 6.01291C22.5694 5.19717 23.2307 4.53588 24.0464 4.53588C24.1696 4.53588 24.2872 4.55533 24.4016 4.58369C24.787 4.16744 25.3335 3.90283 25.9455 3.90283C27.1109 3.90283 28.0556 4.8476 28.0556 6.01291H22.5694Z" fill="white"/>
<path d="M40.8203 15C40.8203 13.4898 42.0445 12.2656 43.5546 12.2656C43.7825 12.2656 44.0005 12.3017 44.2121 12.3542C44.9256 11.5837 45.9373 11.0938 47.0702 11.0938C49.2277 11.0938 50.9766 12.8427 50.9766 15H40.8203Z" fill="white"/>
<path d="M47.8125 24.375C47.8125 21.4063 45.2586 20.2595 44.0625 19.6875C42.6441 19.0092 39.6875 19.2188 38.4375 16.875C37.1875 14.5312 36.3238 13.125 35.625 13.125C34.2969 13.125 31.0157 13.75 29.0625 15.9375C27.474 17.7166 27.8125 19.375 25.3125 20.625C24.5599 21.0013 22.5 21.5582 22.5 24.375V29.0625C22.5 32.5781 26.5625 35 28.125 35.625C29.6875 36.25 31.6654 51.5625 33.75 51.5625C35.7812 51.5625 38.125 43.9063 39.375 43.125C40.625 42.3437 43.125 42.2005 43.125 38.4375V30C45.6232 27.5018 47.8125 30.4688 47.8125 24.375Z" fill="#BBE6FF"/>
<path d="M11.0327 24.375C10.8777 25.0083 10.735 25.5975 10.6186 26.0246C10.5198 26.3851 10.4972 26.7621 10.5522 27.1318C10.6072 27.5015 10.7385 27.8556 10.9378 28.1718C12.1568 30.1106 14.7543 34.3471 15 35.625C15.8789 40.1953 17.8125 40.7812 18.75 43.125C19.2366 44.3414 21.7383 43.5938 22.5 43.125C23.575 42.4635 25.3125 34.6875 25.3125 34.6875L25.957 24.375H11.0327Z" fill="#75C3F0"/>
<path d="M28.125 35.625C29.6875 36.25 31.6654 51.5625 33.75 51.5625C35.7812 51.5625 38.125 43.9063 39.375 43.125C40.625 42.3437 43.125 42.2005 43.125 38.4375V30C45.6232 27.5018 47.8125 30.4688 47.8125 24.375H22.5V29.0625C22.5 32.5781 26.5625 35 28.125 35.625Z" fill="#8DD9FF"/>
<path d="M20.625 16.8748C19.5703 17.1092 18.2813 19.5701 16.875 19.6873C15.4688 19.8045 12.8906 19.6873 12.1875 20.6248C11.9494 20.9423 11.658 21.9238 11.3762 23.0065C12.7368 23.1141 13.1097 21.797 13.3984 21.3279C13.7109 20.8202 15.4296 21.0545 16.6015 20.8982C17.7734 20.742 17.6952 21.6404 18.8562 21.9139C20.017 22.1873 20.2343 19.5311 20.7812 19.0232C21.3281 18.5154 25.3125 20.6248 26.211 21.2889L26.5262 20.8987L26.6797 19.9608C25.5079 19.1404 21.6797 16.6404 20.625 16.8748Z" fill="white"/>
<path d="M44.0625 19.6875C42.6441 19.0092 39.6875 19.2188 38.4375 16.875C37.1875 14.5312 36.3238 13.125 35.625 13.125C34.2969 13.125 31.0157 13.75 29.0625 15.9375C27.474 17.7166 27.8125 19.375 25.3125 20.625C24.5861 20.9883 22.6591 21.54 22.525 24.1099C23.4961 22.793 26.6016 21.9727 28.5352 22.4414C29.8085 22.7501 28.9453 23.7142 30.417 23.7142C31.5225 23.7142 31.4327 19.0141 32.2266 18.2812C32.9883 17.5781 33.8179 17.7629 34.3359 19.6875C35.1562 22.7344 40.3125 20.4492 46.9532 21.755C46.0997 20.6334 44.8137 20.0467 44.0625 19.6875ZM0.345936 25.4297H59.6541C59.5999 25.0752 59.5322 24.7253 59.4657 24.375H0.534373C0.467811 24.7253 0.400194 25.0752 0.345936 25.4297Z" fill="white"/>
<path d="M38.6719 34.0804C38.6719 31.8508 36.9531 31.4122 36.9531 33.0695C36.9531 34.026 35.5908 34.9033 34.7391 33.6916C34.0444 32.7034 33.8282 29.8349 33.8282 28.5158C33.8282 25.8986 31.7007 25.7601 31.7007 28.4365C31.7007 32.3438 29.9947 31.6619 29.9947 33.2033C29.9947 36.094 31.5234 38.5549 30 40.4299C29.9766 40.4587 29.9603 40.4968 29.9382 40.5275C31.1097 45.216 32.4076 51.5627 33.75 51.5627C35.7812 51.5627 38.125 43.9065 39.375 43.1252C39.8882 42.8045 40.6115 42.5881 41.2866 42.1877C39.1406 41.9533 38.6719 38.3215 38.6719 34.0804Z" fill="#75C3F0"/>
<path d="M21.7383 35.4492C21.7383 32.4999 21.9141 30.7813 20.7422 30.2734C19.7031 29.8231 18.5449 31.2597 18.24 30C17.6795 27.684 17.6563 26.897 16.9059 26.897C16.1718 26.897 15.8788 28.0568 15.8788 30.9375C15.8788 35.2814 16.328 35.9652 15.1835 36.4619C16.1252 40.2771 17.8732 40.9328 18.75 43.125C19.2366 44.3414 21.7383 43.5937 22.5 43.125C23.2209 42.6813 24.2379 39.0433 24.8309 36.6915C24.2968 37.9687 21.7383 38.0509 21.7383 35.4492Z" fill="#5AB0E2"/>
</g>
<defs>
<clipPath id="clip0_14_5267">
<rect width="60" height="60" fill="white"/>
</clipPath>
</defs>
</svg>
