<svg width="60" height="60" viewBox="0 0 60 60" fill="none" xmlns="http://www.w3.org/2000/svg">
<g clip-path="url(#clip0_16_13950)">
<path d="M29.9999 59.9999C41.7352 59.9999 51.2492 58.321 51.2492 56.2501L49.9988 23.7498C49.9988 23.7498 45 21.2495 30 21.2495C14.9992 21.2495 9.99947 23.7498 9.99947 23.7498L8.74963 56.2501C8.74963 58.321 18.2639 59.9999 29.9999 59.9999Z" fill="#434A54"/>
<g opacity="0.1">
<path d="M49.9988 23.7498C49.9988 23.7498 45.0001 21.2495 30.0001 21.2495C29.5743 21.2495 29.1586 21.2522 28.7495 21.256C42.7771 21.3897 47.4995 23.7498 47.4995 23.7498L48.7501 56.2501C48.7501 58.2458 39.9024 59.8791 28.7495 59.9927C29.1632 59.9963 29.5798 59.9999 30.0001 59.9999C41.7354 59.9999 51.2494 58.321 51.2494 56.2501L49.9988 23.7498Z" fill="white"/>
</g>
<path d="M60 22.5001C60 27.3322 46.5675 31.2498 30.0001 31.2498C13.4309 31.2498 0.00012207 27.3322 0.00012207 22.5001C0.00012207 17.6671 13.4309 13.7495 30.0001 13.7495C46.5675 13.7495 60 17.6671 60 22.5001Z" fill="#656D78"/>
<path d="M30 26.25C24.5775 26.25 19.4504 25.7656 15.5622 24.8877C11.1622 23.8943 10.0635 22.7627 10.0004 22.5C10.0635 22.2363 11.1622 21.1048 15.5622 20.1114C19.4505 19.2334 24.5775 18.75 30 18.75C35.4218 18.75 40.5488 19.2334 44.4361 20.1114C48.838 21.1048 49.9367 22.2363 49.9989 22.5C49.9367 22.7627 48.838 23.8943 44.4361 24.8877C40.5489 25.7656 35.4219 26.25 30 26.25Z" fill="#434A54"/>
<path d="M14.9342 24.7394C15.1356 24.7898 15.3453 24.8392 15.5622 24.8877C19.1465 25.6971 23.7836 26.1712 28.7339 26.2408C27.9018 10.7236 19.7472 0 17.0589 0C16.6589 0 16.3796 0.237076 16.2643 0.73244C14.392 8.76163 12.7615 15.6482 14.6943 23.7864C14.7713 24.1114 14.8517 24.4281 14.9342 24.7394Z" fill="#E6E9ED"/>
<path d="M18.8334 14.1525C18.849 14.1983 20.2791 18.4582 21.2494 25.8016C22.0762 25.8914 22.9285 25.9673 23.8002 26.0305C22.8324 18.3566 21.362 13.831 21.211 13.3779C21.2054 13.3642 21.2028 13.3531 21.1999 13.3467L21.199 13.3476C21.0314 12.8552 20.5664 12.5 20.0171 12.5C19.3268 12.5 18.7665 13.0592 18.7665 13.7496C18.7665 13.8906 18.7912 14.0261 18.8342 14.1525H18.8334Z" fill="#EC87C0"/>
<path d="M44.4361 24.8879C44.6539 24.8393 44.8645 24.7899 45.066 24.7395C45.1466 24.4282 45.2271 24.1115 45.304 23.7864C47.2376 15.6483 45.608 8.76163 43.7347 0.73244C43.6195 0.237076 43.3411 0 42.9401 0C40.252 0 32.0985 10.7236 31.2653 26.2408C36.2146 26.1713 40.8526 25.6972 44.4361 24.8879Z" fill="#E6E9ED"/>
<path d="M38.7507 25.8016C39.5216 19.9881 40.6348 15.7171 41.1658 14.1516C41.2078 14.0252 41.2316 13.8906 41.2316 13.7496C41.2316 13.0592 40.6713 12.5 39.9829 12.5C39.4336 12.5 38.9686 12.8552 38.8 13.3476V13.3467C38.7964 13.3531 38.7928 13.364 38.789 13.3779C38.637 13.831 37.1667 18.3565 36.1998 26.0305C37.0716 25.9673 37.9231 25.8912 38.7507 25.8016Z" fill="#EC87C0"/>
</g>
<defs>
<clipPath id="clip0_16_13950">
<rect width="60" height="60" fill="white"/>
</clipPath>
</defs>
</svg>
