<svg width="60" height="60" viewBox="0 0 60 60" fill="none" xmlns="http://www.w3.org/2000/svg">
<path d="M14.9634 55.3446L18.0668 58.4481L21.1703 55.3446L24.2738 58.4481L27.3773 55.3446L30.4808 58.4481L33.5842 55.3446L36.6877 58.4481L39.7912 55.3446L42.8947 58.4481L45.9981 55.3446L47.5871 56.9336V19.1377H12.4143V57.8936L14.9634 55.3446Z" fill="#CEC9AE"/>
<path d="M9.3103 19.1377H50.6896V5.68945H9.3103V19.1377Z" fill="#EDEBDA"/>
<path d="M33.1036 25.3445H28.9657C28.3946 25.3445 27.9312 24.882 27.9312 24.3099C27.9312 23.7378 28.3946 23.2754 28.9657 23.2754H33.1036C33.6746 23.2754 34.1381 23.7378 34.1381 24.3099C34.138 24.882 33.6746 25.3445 33.1036 25.3445Z" fill="#EDEBDA"/>
<path d="M42.4139 25.3445H38.276C37.7049 25.3445 37.2415 24.882 37.2415 24.3099C37.2415 23.7378 37.7049 23.2754 38.276 23.2754H42.4139C42.9849 23.2754 43.4484 23.7378 43.4484 24.3099C43.4484 24.882 42.9849 25.3445 42.4139 25.3445Z" fill="#EDEBDA"/>
<path d="M33.1036 29.4826H28.9657C28.3946 29.4826 27.9312 29.0202 27.9312 28.4481C27.9312 27.876 28.3946 27.4136 28.9657 27.4136H33.1036C33.6746 27.4136 34.1381 27.876 34.1381 28.4481C34.138 29.0202 33.6746 29.4826 33.1036 29.4826Z" fill="#EDEBDA"/>
<path d="M42.4139 29.4826H38.276C37.7049 29.4826 37.2415 29.0202 37.2415 28.4481C37.2415 27.876 37.7049 27.4136 38.276 27.4136H42.4139C42.9849 27.4136 43.4484 27.876 43.4484 28.4481C43.4484 29.0202 42.9849 29.4826 42.4139 29.4826Z" fill="#EDEBDA"/>
<path d="M33.1036 33.6203H28.9657C28.3946 33.6203 27.9312 33.1579 27.9312 32.5858C27.9312 32.0137 28.3946 31.5513 28.9657 31.5513H33.1036C33.6746 31.5513 34.1381 32.0137 34.1381 32.5858C34.1381 33.1579 33.6746 33.6203 33.1036 33.6203Z" fill="#EDEBDA"/>
<path d="M42.4139 33.6203H38.276C37.7049 33.6203 37.2415 33.1579 37.2415 32.5858C37.2415 32.0137 37.7049 31.5513 38.276 31.5513H42.4139C42.9849 31.5513 43.4484 32.0137 43.4484 32.5858C43.4484 33.1579 42.9849 33.6203 42.4139 33.6203Z" fill="#EDEBDA"/>
<path d="M33.1036 37.7585H28.9657C28.3946 37.7585 27.9312 37.2961 27.9312 36.724C27.9312 36.1519 28.3946 35.6895 28.9657 35.6895H33.1036C33.6746 35.6895 34.1381 36.1519 34.1381 36.724C34.138 37.2961 33.6746 37.7585 33.1036 37.7585Z" fill="#EDEBDA"/>
<path d="M42.4139 37.7585H38.276C37.7049 37.7585 37.2415 37.2961 37.2415 36.724C37.2415 36.1519 37.7049 35.6895 38.276 35.6895H42.4139C42.9849 35.6895 43.4484 36.1519 43.4484 36.724C43.4484 37.2961 42.9849 37.7585 42.4139 37.7585Z" fill="#EDEBDA"/>
<path d="M33.1036 41.8962H28.9657C28.3946 41.8962 27.9312 41.4338 27.9312 40.8617C27.9312 40.2896 28.3946 39.8271 28.9657 39.8271H33.1036C33.6746 39.8271 34.1381 40.2896 34.1381 40.8617C34.138 41.4338 33.6746 41.8962 33.1036 41.8962Z" fill="#EDEBDA"/>
<path d="M42.4139 41.8962H38.276C37.7049 41.8962 37.2415 41.4338 37.2415 40.8617C37.2415 40.2896 37.7049 39.8271 38.276 39.8271H42.4139C42.9849 39.8271 43.4484 40.2896 43.4484 40.8617C43.4484 41.4338 42.9849 41.8962 42.4139 41.8962Z" fill="#EDEBDA"/>
<path d="M33.1036 46.0344H28.9657C28.3946 46.0344 27.9312 45.572 27.9312 44.9999C27.9312 44.4278 28.3946 43.9653 28.9657 43.9653H33.1036C33.6746 43.9653 34.1381 44.4278 34.1381 44.9999C34.1381 45.572 33.6746 46.0344 33.1036 46.0344Z" fill="#EDEBDA"/>
<path d="M42.4139 46.0344H38.276C37.7049 46.0344 37.2415 45.572 37.2415 44.9999C37.2415 44.4278 37.7049 43.9653 38.276 43.9653H42.4139C42.9849 43.9653 43.4484 44.4278 43.4484 44.9999C43.4484 45.572 42.9849 46.0344 42.4139 46.0344Z" fill="#EDEBDA"/>
<path d="M33.1036 50.1721H28.9657C28.3946 50.1721 27.9312 49.7097 27.9312 49.1376C27.9312 48.5654 28.3946 48.103 28.9657 48.103H33.1036C33.6746 48.103 34.1381 48.5654 34.1381 49.1376C34.138 49.7097 33.6746 50.1721 33.1036 50.1721Z" fill="#EDEBDA"/>
<path d="M42.4139 50.1721H38.276C37.7049 50.1721 37.2415 49.7097 37.2415 49.1376C37.2415 48.5654 37.7049 48.103 38.276 48.103H42.4139C42.9849 48.103 43.4484 48.5654 43.4484 49.1376C43.4484 49.7097 42.9849 50.1721 42.4139 50.1721Z" fill="#EDEBDA"/>
<path d="M22.7586 37.7585H18.6207C18.0497 37.7585 17.5862 37.2961 17.5862 36.724C17.5862 36.1519 18.0497 35.6895 18.6207 35.6895H22.7586C23.3297 35.6895 23.7931 36.1519 23.7931 36.724C23.793 37.2961 23.3297 37.7585 22.7586 37.7585Z" fill="#EDEBDA"/>
<path d="M22.7586 41.8962H18.6207C18.0497 41.8962 17.5862 41.4338 17.5862 40.8617C17.5862 40.2896 18.0497 39.8271 18.6207 39.8271H22.7586C23.3297 39.8271 23.7931 40.2896 23.7931 40.8617C23.793 41.4338 23.3297 41.8962 22.7586 41.8962Z" fill="#EDEBDA"/>
<path d="M22.7586 46.0344H18.6207C18.0497 46.0344 17.5862 45.572 17.5862 44.9999C17.5862 44.4278 18.0497 43.9653 18.6207 43.9653H22.7586C23.3297 43.9653 23.7931 44.4278 23.7931 44.9999C23.7931 45.572 23.3297 46.0344 22.7586 46.0344Z" fill="#EDEBDA"/>
<path d="M22.7586 50.1721H18.6207C18.0497 50.1721 17.5862 49.7097 17.5862 49.1376C17.5862 48.5654 18.0497 48.103 18.6207 48.103H22.7586C23.3297 48.103 23.7931 48.5654 23.7931 49.1376C23.793 49.7097 23.3297 50.1721 22.7586 50.1721Z" fill="#EDEBDA"/>
<path d="M22.2137 32.5863H19.1661C18.294 32.5863 17.5864 31.8787 17.5864 31.0066V24.8556C17.5864 23.9835 18.294 23.2759 19.1661 23.2759H22.2137C23.0858 23.2759 23.7934 23.9835 23.7934 24.8556V31.0066C23.7933 31.8787 23.0857 32.5863 22.2137 32.5863Z" fill="#DD342E"/>
<path d="M9.31025 3.6207V20.1724C9.31025 21.3103 8.3792 22.2413 7.24131 22.2413C6.10342 22.2413 5.17236 21.3103 5.17236 20.1724V3.6207C5.17236 2.48281 6.10342 1.55176 7.24131 1.55176C8.3792 1.55176 9.31025 2.4827 9.31025 3.6207Z" fill="#424A60"/>
<path d="M54.8276 3.6207V20.1724C54.8276 21.3103 53.8965 22.2413 52.7586 22.2413C51.6208 22.2413 50.6897 21.3103 50.6897 20.1724V3.6207C50.6897 2.48281 51.6208 1.55176 52.7586 1.55176C53.8965 1.55164 54.8276 2.4827 54.8276 3.6207Z" fill="#424A60"/>
<path d="M54.8276 13.1598C55.3779 13.6553 56.0979 13.9657 56.8966 13.9657C58.6107 13.9657 60.0001 12.5754 60.0001 10.8623C60.0001 9.14816 58.6108 7.75879 56.8966 7.75879C56.0979 7.75879 55.3779 8.06805 54.8276 8.56363V13.1598Z" fill="#7383BF"/>
<path d="M5.17242 9.59838C4.62211 9.10291 3.90211 8.79248 3.10348 8.79248C1.38926 8.79248 0 10.1828 0 11.896C0 13.6101 1.38926 14.9994 3.10348 14.9994C3.90211 14.9994 4.62211 14.6902 5.17242 14.1946V9.59838Z" fill="#7383BF"/>
<path d="M27.931 10.862H18.6207C18.0497 10.862 17.5862 10.3996 17.5862 9.8275C17.5862 9.25539 18.0497 8.79297 18.6207 8.79297H27.931C28.5021 8.79297 28.9656 9.25539 28.9656 9.8275C28.9654 10.3996 28.5021 10.862 27.931 10.862Z" fill="#CEC9AE"/>
<path d="M14.4827 10.8621C14.3481 10.8621 14.2137 10.8404 14.0896 10.7794C13.9655 10.7277 13.8517 10.6553 13.7482 10.5621C13.6552 10.4576 13.5828 10.3449 13.531 10.2207C13.4689 10.0966 13.4482 9.96212 13.4482 9.8277C13.4482 9.76466 13.4586 9.69317 13.469 9.63118C13.4793 9.55876 13.5 9.49665 13.5311 9.43466C13.5518 9.37255 13.5828 9.31055 13.6241 9.24739C13.6552 9.19665 13.7069 9.14497 13.7482 9.09329C13.8517 9.00024 13.9552 8.92782 14.0896 8.87602C14.4723 8.71055 14.9275 8.8036 15.2172 9.09329C15.4034 9.28876 15.5172 9.55876 15.5172 9.82782C15.5172 10.1071 15.4137 10.3657 15.2172 10.5624C15.1137 10.6554 14.9999 10.7278 14.8758 10.7796C14.7516 10.8403 14.6172 10.8621 14.4827 10.8621Z" fill="#CEC9AE"/>
<path d="M27.9311 16.0344H14.4828C13.9117 16.0344 13.4482 15.572 13.4482 14.9999C13.4482 14.4278 13.9117 13.9653 14.4828 13.9653H27.9311C28.5021 13.9653 28.9656 14.4278 28.9656 14.9999C28.9655 15.572 28.5021 16.0344 27.9311 16.0344Z" fill="#CEC9AE"/>
<path d="M45.5172 10.862H36.2069C35.6358 10.862 35.1724 10.3996 35.1724 9.8275C35.1724 9.25539 35.6358 8.79297 36.2069 8.79297H45.5172C46.0883 8.79297 46.5517 9.25539 46.5517 9.8275C46.5516 10.3996 46.0883 10.862 45.5172 10.862Z" fill="#CEC9AE"/>
<path d="M32.069 10.8622C31.7897 10.8622 31.5311 10.7576 31.3344 10.5622C31.1379 10.3657 31.0344 10.107 31.0344 9.82765C31.0344 9.54734 31.1482 9.2887 31.3344 9.09312C31.4379 9.00007 31.5414 8.92765 31.6758 8.87585C31.9241 8.77132 32.2137 8.76206 32.462 8.87585C32.5965 8.92753 32.6999 8.99995 32.8034 9.09312C32.8447 9.1448 32.8964 9.19659 32.9275 9.24722C32.9688 9.31027 32.9999 9.37238 33.0205 9.43449C33.0516 9.4966 33.0722 9.55859 33.0826 9.63101C33.0929 9.69312 33.1034 9.76449 33.1034 9.82753C33.1034 9.96206 33.0826 10.0965 33.0206 10.2206C32.969 10.3447 32.8965 10.4575 32.8034 10.5619C32.607 10.7576 32.3483 10.8622 32.069 10.8622Z" fill="#CEC9AE"/>
<path d="M45.5173 16.0344H32.069C31.4979 16.0344 31.0344 15.572 31.0344 14.9999C31.0344 14.4278 31.4979 13.9653 32.069 13.9653H45.5173C46.0883 13.9653 46.5518 14.4278 46.5518 14.9999C46.5517 15.572 46.0883 16.0344 45.5173 16.0344Z" fill="#CEC9AE"/>
</svg>
