<svg width="60" height="60" viewBox="0 0 60 60" fill="none" xmlns="http://www.w3.org/2000/svg">
<path d="M56.5635 27.3849C56.522 26.5885 56.4006 25.8122 56.2137 25.0605C54.6555 14.3395 43.4867 5.9978 29.9734 5.9978C18.6351 5.9978 8.94451 11.8696 5.19622 20.0915C4.88615 20.7604 4.61973 21.451 4.39585 22.1579C4.37235 22.2307 4.35164 22.304 4.32925 22.3768C4.26433 22.5917 4.2022 22.8083 4.14567 23.026C4.09586 23.2124 4.05052 23.3999 4.00687 23.5879C3.99455 23.6439 3.98224 23.6993 3.97049 23.7553C3.82664 24.4023 3.72142 25.0599 3.64978 25.7249C3.4634 26.2582 3.33187 26.8168 3.2759 27.3995C1.43674 27.6026 0 29.1603 0 31.052C0 32.9354 1.42163 34.4919 3.24792 34.708C3.70239 45.4245 12.5585 54.0024 23.3841 54.0024C34.2355 54.0024 43.1061 45.3831 43.5214 34.6319C45.1384 34.2429 46.3451 32.7877 46.3451 31.052C46.3451 29.5095 45.3908 28.187 44.0419 27.639C43.8975 26.2806 43.349 25.0381 42.5224 24.0116C42.0041 21.3962 40.8936 18.9744 39.3237 16.8721C40.5293 16.4949 41.8143 16.2878 43.1509 16.2878C49.2102 16.2878 54.2586 20.4906 55.2722 26.0025C55.3209 26.4972 55.3545 26.9948 55.3584 27.4985C53.7902 27.9217 52.631 29.3522 52.631 31.0526C52.631 33.0843 54.2838 34.7371 56.3155 34.7371C58.3467 34.7371 59.9994 33.0843 59.9994 31.0526C59.9994 29.1043 58.4782 27.5136 56.5635 27.3849ZM29.6298 28.4148C31.085 28.4148 32.2682 29.598 32.2682 31.0526C32.2682 32.5073 31.085 33.6905 29.6298 33.6905C28.1751 33.6905 26.9919 32.5073 26.9919 31.0526C26.9919 29.598 28.1751 28.4148 29.6298 28.4148ZM30.6238 23.4055C28.9083 16.7165 23.6225 11.8282 17.3769 11.8282C16.229 11.8282 15.114 11.9966 14.0467 12.3073C16.7562 10.8677 19.8866 10.0399 23.2218 10.0399C28.9828 10.0399 34.1404 12.4964 37.5528 16.3443C34.39 17.7397 31.8887 20.2785 30.6238 23.4055ZM17.3769 12.8742C23.6035 12.8742 28.8042 18.1919 29.9387 25.2088C29.5906 25.8833 29.351 26.6159 29.2391 27.3894C27.391 27.5853 25.9458 29.153 25.9458 31.052C25.9458 33.0837 27.5986 34.7365 29.6298 34.7365C29.7926 34.7365 29.9516 34.7225 30.1089 34.7018C29.7395 38.0186 26.9219 40.6072 23.5078 40.6072C20.1015 40.6072 17.2896 38.0303 16.9101 34.7237C18.8254 34.5949 20.345 32.9998 20.345 31.0515C20.345 29.2823 19.0901 27.8008 17.4245 27.4482C17.0982 23.8017 14.0512 20.9339 10.3488 20.9339C8.37921 20.9339 6.5949 21.746 5.30648 23.054C7.05777 17.1324 11.8057 12.8742 17.3769 12.8742ZM16.661 28.4148C18.1157 28.4148 19.2989 29.598 19.2989 31.0526C19.2989 32.5073 18.1157 33.6905 16.661 33.6905C15.2064 33.6905 14.0226 32.5073 14.0226 31.0526C14.0226 29.598 15.2064 28.4148 16.661 28.4148ZM1.04551 31.052C1.04551 29.5974 2.22871 28.4142 3.68336 28.4142C5.13857 28.4142 6.32177 29.5974 6.32177 31.052C6.32177 32.5067 5.13857 33.6899 3.68336 33.6899C2.22871 33.6899 1.04551 32.5067 1.04551 31.052ZM45.2985 31.052C45.2985 32.5067 44.1158 33.6899 42.6606 33.6899C41.2054 33.6899 40.0228 32.5067 40.0228 31.052C40.0228 29.5974 41.2054 28.4142 42.6606 28.4142C44.1158 28.4142 45.2985 29.598 45.2985 31.052ZM42.8683 27.3788C42.7994 27.3748 42.7306 27.3681 42.6606 27.3681C40.6295 27.3681 38.9767 29.0209 38.9767 31.052C38.9767 33.0199 40.5282 34.6279 42.4726 34.7259C42.0102 44.857 33.6249 52.9552 23.3835 52.9552C13.126 52.9552 4.73335 44.8312 4.29287 34.6817C6.03465 34.3901 7.3684 32.8744 7.3684 31.052C7.3684 29.3366 6.18744 27.8948 4.59679 27.4868C4.5979 27.4476 4.5979 27.4073 4.59958 27.3681H4.63428C4.63428 27.0474 4.64548 26.7284 4.66395 26.4116C4.6729 26.3137 4.68634 26.2168 4.69697 26.1194C5.51133 23.757 7.73444 22.0544 10.3499 22.0544C13.4137 22.0544 15.9441 24.3889 16.2939 27.3872C14.4346 27.573 12.9782 29.1457 12.9782 31.0526C12.9782 32.8056 14.2101 34.2742 15.8534 34.6442C16.2004 38.5665 19.4993 41.6533 23.51 41.6533C27.6059 41.6533 30.9557 38.4316 31.179 34.3906C32.4389 33.8041 33.3154 32.5308 33.3154 31.0515C33.3154 29.5862 32.4529 28.3213 31.2109 27.728C31.1991 27.0676 31.1493 26.4178 31.071 25.7786C31.1057 25.6107 31.1454 25.4439 31.1868 25.2788C32.2962 23.518 34.3144 22.3331 36.622 22.3331C38.6258 22.3331 40.4117 23.2253 41.5748 24.6111C41.7293 25.5088 41.8127 26.4295 41.8127 27.367H42.6634H42.8599C42.8599 27.3424 42.8582 27.3178 42.8582 27.2931C42.8599 27.3222 42.8627 27.3513 42.8683 27.3788ZM41.1102 22.67C39.8599 21.7605 38.3073 21.2143 36.6209 21.2143C34.9889 21.2143 33.4827 21.7258 32.2525 22.5827C33.5633 20.2079 35.6974 18.3111 38.2927 17.2427C39.5498 18.8652 40.5125 20.6965 41.1102 22.67ZM43.1503 15.1684C41.5457 15.1684 40.0054 15.4404 38.5776 15.938C34.9771 11.7106 29.4344 8.99442 23.2218 8.99442C21.0418 8.99442 18.9463 9.33359 16.9857 9.94982C20.7882 8.10674 25.2294 7.04444 29.9729 7.04444C40.5394 7.04444 49.6115 12.3073 53.4286 19.7686C50.9631 16.9583 47.2714 15.1684 43.1503 15.1684ZM56.3155 33.6899C54.8597 33.6899 53.6771 32.5067 53.6771 31.052C53.6771 29.5974 54.8597 28.4142 56.3155 28.4142C57.7702 28.4142 58.9534 29.5974 58.9534 31.052C58.9534 32.5067 57.7702 33.6899 56.3155 33.6899Z" fill="black"/>
</svg>
