<svg width="60" height="60" viewBox="0 0 60 60" fill="none" xmlns="http://www.w3.org/2000/svg">
<g clip-path="url(#clip0_14_5032)">
<path d="M30 60C46.5685 60 60 46.5685 60 30C60 13.4315 46.5685 0 30 0C13.4315 0 0 13.4315 0 30C0 46.5685 13.4315 60 30 60Z" fill="#B9E8EA"/>
<path d="M0.339237 34.5059C2.51399 48.936 14.966 59.9999 30.0024 59.9999C45.0398 59.9999 57.4917 48.9364 59.6666 34.5059H0.339237Z" fill="#83A34B"/>
<path d="M50.2701 23.089L35.379 19.8374L32.7661 21.025V21.5001L26.5301 23.2818L24.8077 26.4883L20.5917 26.7853L20.4135 31.8336H50.4036L50.2701 23.089Z" fill="#CC9B7A"/>
<path d="M35.379 19.8374L32.7661 21.025V21.5001L26.5301 23.2818L24.8077 26.4883L20.3435 26.7792L20.4135 31.8336H35.8541L35.379 19.8374Z" fill="#B78967"/>
<path d="M9.96069 25.5386L6.39746 26.548L6.35857 27.0009L19.3444 28.8048L19.5818 26.7261L9.96069 25.5386Z" fill="#E2DDDC"/>
<path d="M36.5965 19.5703V19.9858L38.0218 20.342V19.9265L36.5965 19.5703Z" fill="#F0F2F2"/>
<path d="M37.2791 20.4312H35.8541L35.6164 30.1705H37.5169L37.2791 20.4312Z" fill="#F0F2F2"/>
<path d="M36.5287 20.4312H35.8541L35.6164 30.1705H36.5586L36.5287 20.4312Z" fill="#E6E8E8"/>
<path d="M35.1857 19.8521L35.171 20.3419L35.8541 20.5498H37.2791L38.0218 20.3419V19.8521H35.1857Z" fill="#EAE5E4"/>
<path d="M35.171 19.9265V20.342L36.5965 19.9858V19.5703L35.171 19.9265Z" fill="#F0F2F2"/>
<path d="M36.5965 19.5703V19.9858L38.0218 20.342V19.9265L36.5965 19.5703Z" fill="#F0F2F2"/>
<path d="M50.5268 23.6094L50.5155 24.01L51.0593 24.1802H52.1952L52.5273 24.01V23.6094H50.5268Z" fill="#EAE5E4"/>
<path d="M50.5268 23.6094L50.5155 24.01L51.0593 24.1802H51.6509V23.6094H50.5268Z" fill="#D8D6D6"/>
<path d="M50.5155 23.4252V24.0101L51.6509 23.7188V23.1333L50.5155 23.4252Z" fill="#CCCACA"/>
<path d="M51.6509 23.3784V23.7185L52.5273 24.0099V23.6698L51.6509 23.3784Z" fill="#E2DDDC"/>
<path d="M39.5505 20.431V19.7186L38.1459 19.6963L38.1261 20.431L37.8883 30.1704H39.7883L39.5505 20.431Z" fill="#EDEDED"/>
<path d="M38.1459 19.6963L38.1261 20.431L37.8883 30.1704H38.838V19.7186L38.1459 19.6963Z" fill="#DDDDDD"/>
<path d="M37.5458 20.3423L37.532 20.8321L38.172 21.04H39.5078L40.2042 20.8321V20.3423H37.5458Z" fill="#EAE5E4"/>
<path d="M37.532 20.4163V20.8318L38.8679 20.4754V20.0601L37.532 20.4163Z" fill="#CCCACA"/>
<path d="M38.8679 20.0601V20.4754L40.2042 20.8318V20.4163L38.8679 20.0601Z" fill="#E2DDDC"/>
<path d="M44.3392 21.389V20.6761L43.0659 20.6538L43.0474 21.389L42.8319 31.1285H44.5543L44.3392 21.389Z" fill="#EDEDED"/>
<path d="M43.0659 20.6538L43.0474 21.389L42.8319 31.1285H43.693V20.6761L43.0659 20.6538Z" fill="#DDDDDD"/>
<path d="M42.5988 21.605L42.5869 22.0058L43.1312 22.1759H44.2667L44.8584 22.0058V21.605H42.5988Z" fill="#EAE5E4"/>
<path d="M42.5988 21.605L42.5869 22.0058L43.1312 22.1759H43.7229V21.605H42.5988Z" fill="#D8D6D6"/>
<path d="M42.5869 21.2034V22.0058L43.7229 21.7145V20.9116L42.5869 21.2034Z" fill="#CCCACA"/>
<path d="M43.7229 21.374V21.7141L44.8584 22.0055V21.6654L43.7229 21.374Z" fill="#E2DDDC"/>
<path d="M46.6106 22.0122V21.2996L45.3373 21.2773L45.3189 22.0122L45.1033 31.7516H46.8262L46.6106 22.0122Z" fill="#EDEDED"/>
<path d="M45.3373 21.2773L45.3189 22.0122L45.1033 31.7516H45.9646V21.2996L45.3373 21.2773Z" fill="#DDDDDD"/>
<path d="M44.8479 22.2285L44.8367 22.6292L45.3805 22.7993H46.5159L47.1076 22.6292V22.2285H44.8479Z" fill="#EAE5E4"/>
<path d="M44.8555 22.2285L44.8438 22.6292L45.3881 22.7993H45.9796V22.2285H44.8555Z" fill="#D8D6D6"/>
<path d="M44.8367 21.7321V22.6289L45.972 22.3376V21.4409L44.8367 21.7321Z" fill="#CCCACA"/>
<path d="M45.972 21.9976V22.3377L47.1075 22.6289V22.2893L45.972 21.9976Z" fill="#E2DDDC"/>
<path d="M41.9782 20.9432V20.2308L40.7054 20.2085L40.6869 20.9432L40.4714 30.6832H42.1938L41.9782 20.9432Z" fill="#EDEDED"/>
<path d="M40.7054 20.2085L40.6869 20.9432L40.4714 30.6832H41.3326V20.2308L40.7054 20.2085Z" fill="#DDDDDD"/>
<path d="M40.3046 21.0703L40.2932 21.4715L40.837 21.6411H41.9736L42.5651 21.4715V21.0703H40.3046Z" fill="#EAE5E4"/>
<path d="M40.2975 21.0557L40.2857 21.4563L40.8304 21.627H41.4216V21.0557H40.2975Z" fill="#D8D6D6"/>
<path d="M40.2932 20.5746V21.4713L41.4287 21.1794V20.2827L40.2932 20.5746Z" fill="#CCCACA"/>
<path d="M41.4287 20.8398V21.1795L42.5651 21.4713V21.1312L41.4287 20.8398Z" fill="#E2DDDC"/>
<path d="M48.7485 22.703V21.9901L47.4757 21.9678L47.4567 22.703L47.2416 32.4424H48.9636L48.7485 22.703Z" fill="#EDEDED"/>
<path d="M47.4757 21.9678L47.4567 22.703L47.2416 32.4424H48.1028V21.9901L47.4757 21.9678Z" fill="#DDDDDD"/>
<path d="M47.0977 22.7852L47.0858 23.1863L47.6296 23.3565H48.7656L49.3572 23.1863V22.7852H47.0977Z" fill="#EAE5E4"/>
<path d="M47.0977 22.7773L47.0858 23.1785L47.6296 23.3486H48.2213L48.2218 22.7773H47.0977Z" fill="#D8D6D6"/>
<path d="M47.0858 22.3265V23.1863L48.2218 22.8945V22.0347L47.0858 22.3265Z" fill="#CCCACA"/>
<path d="M48.2218 22.5547V22.8944L49.3572 23.1862V22.846L48.2218 22.5547Z" fill="#E2DDDC"/>
<path d="M49.146 23.3198L49.1346 23.7205L49.6784 23.8906H50.8143L51.4065 23.7205V23.3198H49.146Z" fill="#EAE5E4"/>
<path d="M49.146 23.312L49.1346 23.7128L49.6784 23.8828H50.2701V23.312H49.146Z" fill="#D8D6D6"/>
<path d="M49.1346 22.9798V23.7206L50.2701 23.4289V22.688L49.1346 22.9798Z" fill="#CCCACA"/>
<path d="M50.2701 23.0894V23.429L51.4065 23.7207V23.3806L50.2701 23.0894Z" fill="#E2DDDC"/>
<path d="M34.83 20.431L34.8091 19.6963L33.4046 19.7186V20.431L33.1667 30.1704H35.0669L34.83 20.431Z" fill="#EDEDED"/>
<path d="M34.83 20.431L34.8091 19.6963L34.1171 19.7186V30.1704H35.0669L34.83 20.431Z" fill="#DDDDDD"/>
<path d="M35.4093 20.3423H32.7509V20.8321L33.4472 21.04H34.7831L35.4231 20.8321L35.4093 20.3423Z" fill="#EAE5E4"/>
<path d="M34.0872 20.0601V20.4754L35.4231 20.8318V20.4163L34.0872 20.0601Z" fill="#CCCACA"/>
<path d="M32.7509 20.4163V20.8318L34.0872 20.4754V20.0601L32.7509 20.4163Z" fill="#E2DDDC"/>
<path d="M29.6111 21.389L29.5921 20.6538L28.3193 20.6761V21.389L28.1038 31.1285H29.8262L29.6111 21.389Z" fill="#EDEDED"/>
<path d="M29.6111 21.389L29.5921 20.6538L28.9654 20.6761V31.1285H29.8262L29.6111 21.389Z" fill="#DDDDDD"/>
<path d="M30.0593 21.605H27.7997V22.0058L28.3914 22.1759H29.5267L30.0711 22.0058L30.0593 21.605Z" fill="#EAE5E4"/>
<path d="M30.0593 21.605H28.9352L28.9356 22.1759H29.5267L30.0711 22.0058L30.0593 21.605Z" fill="#D8D6D6"/>
<path d="M28.9352 20.9116V21.7145L30.0711 22.0058V21.2034L28.9352 20.9116Z" fill="#CCCACA"/>
<path d="M27.7997 21.6654V22.0055L28.9352 21.7141V21.374L27.7997 21.6654Z" fill="#C4C4C4"/>
<path d="M27.1611 22.0122L27.1426 21.2773L25.8693 21.2996V22.0122L25.6542 31.7516H27.3766L27.1611 22.0122Z" fill="#EDEDED"/>
<path d="M27.1611 22.0122L27.1426 21.2773L26.5154 21.2996V31.7516H27.3766L27.1611 22.0122Z" fill="#DDDDDD"/>
<path d="M27.6319 22.2285H25.3719V22.6292L25.964 22.7993H27.0995L27.6439 22.6292L27.6319 22.2285Z" fill="#EAE5E4"/>
<path d="M27.6249 22.2285H26.5007V22.7993H27.0924L27.6363 22.6292L27.6249 22.2285Z" fill="#D8D6D6"/>
<path d="M26.5078 21.4409V22.3376L27.6438 22.6289V21.7321L26.5078 21.4409Z" fill="#CCCACA"/>
<path d="M25.3719 22.2893V22.6289L26.5078 22.3377V21.9976L25.3719 22.2893Z" fill="#C4C4C4"/>
<path d="M31.9716 20.9432L31.9527 20.2085L30.6802 20.2308V20.9432L30.4648 30.6832H32.1867L31.9716 20.9432Z" fill="#EDEDED"/>
<path d="M31.9716 20.9432L31.9527 20.2085L31.3259 20.2308V30.6832H32.1867L31.9716 20.9432Z" fill="#DDDDDD"/>
<path d="M32.3534 21.0703H30.0928V21.4715L30.6851 21.6411H31.8209L32.3648 21.4715L32.3534 21.0703Z" fill="#EAE5E4"/>
<path d="M32.361 21.0557H31.2369V21.627H31.8286L32.3724 21.4563L32.361 21.0557Z" fill="#D8D6D6"/>
<path d="M31.2292 20.2827V21.1794L32.3648 21.4713V20.5746L31.2292 20.2827Z" fill="#CCCACA"/>
<path d="M30.0928 21.1312V21.4713L31.2292 21.1795V20.8398L30.0928 21.1312Z" fill="#C4C4C4"/>
<path d="M5.28804 26.1024V26.8153L5.17619 33.2046L5.80006 33.1346V26.1024L6.29802 26.0806L5.28804 26.1024Z" fill="#EDEDED"/>
<path d="M6.3122 26.8153L6.29801 26.0806L5.80006 26.1024V33.1346L6.24253 33.0853L6.3326 27.9517L6.3122 26.8153Z" fill="#DDDDDD"/>
<path d="M6.91708 26.6973H4.91714V27.0981L5.24877 27.2681H6.38466L6.92848 27.0981L6.91708 26.6973Z" fill="#EAE5E4"/>
<path d="M6.91707 26.6973H5.79296V27.2681H6.38466L6.92847 27.0981L6.91707 26.6973Z" fill="#D8D6D6"/>
<path d="M5.79296 26.2212V26.8062L6.92847 27.098V26.5129L5.79296 26.2212Z" fill="#CCCACA"/>
<path d="M4.91714 26.7582V27.0983L5.79297 26.8064V26.4663L4.91714 26.7582Z" fill="#E2DDDC"/>
<path d="M6.39746 25.8353V26.5482L6.37326 27.9517L6.46282 33.065L6.90998 33.0153V25.8353L7.40743 25.8135L6.39746 25.8353Z" fill="#EDEDED"/>
<path d="M7.42213 26.5482L7.40743 25.8135L6.90998 25.8353V33.0153L7.53436 32.9456L7.42213 26.5482Z" fill="#DDDDDD"/>
<path d="M8.02649 26.4297H6.02655V26.8309L6.35856 27.001H7.49408L8.0384 26.8309L8.02649 26.4297Z" fill="#EAE5E4"/>
<path d="M8.02649 26.4297H6.90238V27.001H7.49408L8.0384 26.8309L8.02649 26.4297Z" fill="#D8D6D6"/>
<path d="M6.90238 25.9541V26.5391L8.0384 26.8308V26.2458L6.90238 25.9541Z" fill="#CCCACA"/>
<path d="M6.02655 26.4909V26.8311L6.90238 26.5393V26.1997L6.02655 26.4909Z" fill="#E2DDDC"/>
<path d="M6.37326 27.9517L6.28333 33.0853L6.46282 33.0649L6.37326 27.9517Z" fill="#DDDDDD"/>
<path d="M7.73374 25.6273V26.3402L7.61822 32.9361L8.24589 32.8656V25.6273L8.74372 25.6055L7.73374 25.6273Z" fill="#EDEDED"/>
<path d="M8.75842 26.3402L8.74373 25.6055L8.2459 25.6273V32.8656L8.87167 32.7959L8.75842 26.3402Z" fill="#DDDDDD"/>
<path d="M9.36291 26.2222H7.36285V26.623L7.69448 26.793H8.83037L9.37469 26.623L9.36291 26.2222Z" fill="#EAE5E4"/>
<path d="M9.36291 26.2222H8.2388V26.793H8.83037L9.37469 26.623L9.36291 26.2222Z" fill="#D8D6D6"/>
<path d="M8.2388 25.7461V26.3311L9.37469 26.6229V26.0378L8.2388 25.7461Z" fill="#CCCACA"/>
<path d="M7.36285 26.2831V26.6232L8.2388 26.3313V25.9917L7.36285 26.2831Z" fill="#C4C4C4"/>
<path d="M9.18949 25.2415V25.9541L9.06966 32.7735L9.70164 32.7029V25.2415L10.1985 25.2192L9.18949 25.2415Z" fill="#EDEDED"/>
<path d="M10.2137 25.9541L10.1985 25.2192L9.70164 25.2415V32.7029L10.3307 32.6324L10.2137 25.9541Z" fill="#DDDDDD"/>
<path d="M10.8176 25.8359H8.81757V26.2367L9.14971 26.4069H10.2852L10.8294 26.2367L10.8176 25.8359Z" fill="#EAE5E4"/>
<path d="M10.8176 25.8359H9.69353L9.69404 26.4069H10.2852L10.8294 26.2367L10.8176 25.8359Z" fill="#D8D6D6"/>
<path d="M9.69353 25.3604V25.9453L10.8294 26.2367V25.6517L9.69353 25.3604Z" fill="#CCCACA"/>
<path d="M8.81757 25.8968V26.2369L9.69353 25.9456V25.6055L8.81757 25.8968Z" fill="#C4C4C4"/>
<path d="M10.5846 24.9744V25.6869L10.4628 32.6177L11.0967 32.5467V24.9744L11.5945 24.9521L10.5846 24.9744Z" fill="#EDEDED"/>
<path d="M11.6092 25.6869L11.5945 24.9521L11.0967 24.9744V32.5467L11.7281 32.4766L11.6092 25.6869Z" fill="#DDDDDD"/>
<path d="M12.2132 25.5688H10.2137V25.9696L10.5453 26.1396H11.6807L12.2255 25.9696L12.2132 25.5688Z" fill="#EAE5E4"/>
<path d="M12.2132 25.5688H11.0891V26.1396H11.6807L12.2255 25.9696L12.2132 25.5688Z" fill="#D8D6D6"/>
<path d="M11.0891 25.0928V25.6783L12.2255 25.9696V25.3846L11.0891 25.0928Z" fill="#CCCACA"/>
<path d="M10.2137 25.6297V25.9699L11.0891 25.6785V25.3384L10.2137 25.6297Z" fill="#C4C4C4"/>
<path d="M12.2179 24.5584V25.2714L12.0919 32.4357L12.7301 32.3641V24.5584L13.2274 24.5361L12.2179 24.5584Z" fill="#EDEDED"/>
<path d="M13.2421 25.2714L13.2274 24.5361L12.7301 24.5584V32.3641L13.3652 32.2931L13.2421 25.2714Z" fill="#DDDDDD"/>
<path d="M13.8466 25.1533H11.8465V25.554L12.1781 25.7241H13.314L13.8583 25.554L13.8466 25.1533Z" fill="#EAE5E4"/>
<path d="M13.8466 25.1533H12.7225V25.7241H13.314L13.8583 25.554L13.8466 25.1533Z" fill="#D8D6D6"/>
<path d="M12.7225 24.6772V25.2624L13.8583 25.5541V24.9686L12.7225 24.6772Z" fill="#CCCACA"/>
<path d="M11.8465 25.2141V25.5542L12.7225 25.2625V24.9224L11.8465 25.2141Z" fill="#C4C4C4"/>
<path d="M13.8806 24.2616V24.9745L13.7527 32.2497L14.3927 32.1787V24.2616L14.8906 24.2393L13.8806 24.2616Z" fill="#EDEDED"/>
<path d="M14.9048 24.9745L14.8906 24.2393L14.3927 24.2616V32.1787L15.0303 32.1072L14.9048 24.9745Z" fill="#DDDDDD"/>
<path d="M15.5093 24.8564H13.5097V25.2572L13.8414 25.4272H14.9768L15.5211 25.2572L15.5093 24.8564Z" fill="#EAE5E4"/>
<path d="M15.5093 24.8564H14.3852V25.4272H14.9768L15.5211 25.2572L15.5093 24.8564Z" fill="#D8D6D6"/>
<path d="M14.3852 24.3804V24.9659L15.5211 25.2572V24.6716L14.3852 24.3804Z" fill="#CCCACA"/>
<path d="M13.5097 24.9168V25.2575L14.3852 24.9661V24.6255L13.5097 24.9168Z" fill="#C4C4C4"/>
<path d="M15.603 23.9051V24.618L15.4723 32.0576L16.1152 31.9857V23.9051L16.612 23.8828L15.603 23.9051Z" fill="#EDEDED"/>
<path d="M16.6272 24.618L16.612 23.8828L16.1152 23.9051V31.9857L16.7551 31.9141L16.6272 24.618Z" fill="#DDDDDD"/>
<path d="M17.2317 24.5H15.2316V24.9008L15.5638 25.0708H16.6992L17.2435 24.9008L17.2317 24.5Z" fill="#EAE5E4"/>
<path d="M17.2317 24.5H16.1076V25.0708H16.6992L17.2435 24.9008L17.2317 24.5Z" fill="#D8D6D6"/>
<path d="M16.1076 24.0239V24.609L17.2435 24.9004V24.3153L16.1076 24.0239Z" fill="#CCCACA"/>
<path d="M15.2316 24.5608V24.9005L16.1076 24.6092V24.269L15.2316 24.5608Z" fill="#C4C4C4"/>
<path d="M17.3842 23.43V24.1429L17.2492 31.8587L17.8962 31.7862V23.43L18.3942 23.4077L17.3842 23.43Z" fill="#EDEDED"/>
<path d="M18.4089 24.1429L18.3942 23.4077L17.8962 23.43V31.7862L18.5419 31.7147L18.4089 24.1429Z" fill="#DDDDDD"/>
<path d="M19.0132 24.0244H17.0133V24.4252L17.3449 24.5957H18.4808L19.0246 24.4252L19.0132 24.0244Z" fill="#EAE5E4"/>
<path d="M19.0132 24.0244H17.8891V24.5957H18.4808L19.0246 24.4252L19.0132 24.0244Z" fill="#D8D6D6"/>
<path d="M17.8891 23.5493V24.1343L19.0246 24.4257V23.841L17.8891 23.5493Z" fill="#CCCACA"/>
<path d="M17.0133 24.0858V24.4254L17.8891 24.1341V23.7939L17.0133 24.0858Z" fill="#C4C4C4"/>
<path d="M20.4278 23.7274L20.4135 22.9927L19.4037 23.0148V23.7274L19.233 33.4668H20.5988L20.4278 23.7274Z" fill="#EDEDED"/>
<path d="M20.4278 23.7274L20.4135 22.9927L19.9157 23.0148V33.4668H20.5988L20.4278 23.7274Z" fill="#DDDDDD"/>
<path d="M21.0327 23.6094H19.0328V24.01L19.3643 24.1802H20.5003L21.0441 24.01L21.0327 23.6094Z" fill="#EAE5E4"/>
<path d="M21.0327 23.6094H19.9081V24.1802H20.5003L21.0441 24.01L21.0327 23.6094Z" fill="#D8D6D6"/>
<path d="M19.9081 23.1333V23.7188L21.0441 24.0101V23.4252L19.9081 23.1333Z" fill="#CCCACA"/>
<path d="M19.0328 23.6698V24.0099L19.9081 23.7185V23.3784L19.0328 23.6698Z" fill="#C4C4C4"/>
<path d="M22.6182 23.3265L22.5993 22.5913L21.3268 22.6141V23.3265L21.1114 33.066H22.8332L22.6182 23.3265Z" fill="#EDEDED"/>
<path d="M22.6182 23.3265L22.5993 22.5913L21.9725 22.6141V33.066H22.8333L22.6182 23.3265Z" fill="#DDDDDD"/>
<path d="M22.9773 23.3198H20.7173V23.7205L21.3093 23.8906H22.4449L22.9892 23.7205L22.9773 23.3198Z" fill="#EAE5E4"/>
<path d="M22.9773 23.312H21.8532L21.8537 23.8828H22.4449L22.9892 23.7128L22.9773 23.312Z" fill="#D8D6D6"/>
<path d="M21.8532 22.688V23.4289L22.9892 23.7206V22.9798L21.8532 22.688Z" fill="#CCCACA"/>
<path d="M20.7173 23.3806V23.7207L21.8532 23.429V23.0894L20.7173 23.3806Z" fill="#C4C4C4"/>
<path d="M24.7258 22.703L24.7078 21.9678L23.4344 21.9901V22.703L23.2194 32.4424H24.9412L24.7258 22.703Z" fill="#EDEDED"/>
<path d="M24.7258 22.703L24.7078 21.9678L24.0801 21.9901V32.4424H24.9412L24.7258 22.703Z" fill="#DDDDDD"/>
<path d="M25.0858 22.7852H22.8262V23.1863L23.4179 23.3565H24.5534L25.0976 23.1863L25.0858 22.7852Z" fill="#EAE5E4"/>
<path d="M25.0858 22.7773H23.9617V23.3486H24.5534L25.0976 23.1785L25.0858 22.7773Z" fill="#D8D6D6"/>
<path d="M23.9617 22.0347V22.8945L25.0976 23.1863V22.3265L23.9617 22.0347Z" fill="#CCCACA"/>
<path d="M22.8262 22.846V23.1862L23.9617 22.8944V22.5547L22.8262 22.846Z" fill="#C4C4C4"/>
<path d="M36.5671 18.4819V19.7587L52.542 23.7274L52.7201 23.4304V22.896L36.5671 18.4819Z" fill="#F0F2F2"/>
<path d="M4.97249 26.1622V26.6971L4.9431 27.0235L36.5965 19.7781V18.5015L4.97249 26.1622Z" fill="#E8E8E8"/>
<path d="M37.6253 20.4619L37.613 20.8627L38.1577 21.0327H38.838V20.4619H37.6253Z" fill="#D8D6D6"/>
<path d="M36.6855 16.2148L31.7561 17.581V18.6497L36.4481 17.4029L52.6012 21.6194L53.2544 21.5601V21.2034L36.6855 16.2148Z" fill="#E0D4CA"/>
<path d="M52.6012 21.6191L36.4481 17.0459L32.1128 18.2931L31.7561 18.3528L31.2218 18.2931L30.9247 18.5907L30.5685 18.3528L30.3306 18.709H29.7968L29.559 18.7683L28.7277 18.9464L28.4306 19.1838L28.2525 18.709L27.8963 18.8872L27.5401 19.7186H27.1241L25.1047 20.1345L23.5604 20.431L22.5514 20.9066H21.5414L20.4728 21.2031L18.9882 21.8564L18.3344 21.6783L17.8001 22.0345H16.7901L16.1966 22.5689L16.1379 22.9848L15.8404 22.8663L15.1279 23.1037V23.6977L12.9303 24.232L11.6239 24.4698L11.3269 24.232L10.9707 24.1724V24.5291L10.5547 24.6479L9.72342 24.232V23.935L8.47656 23.7569L7.40743 24.1132L6.81333 24.3505V24.8853L6.39745 25.3604L6.33868 24.7663L5.86314 24.7072L5.68503 25.3012L5.03177 25.4196L4.97249 26.1619L36.5965 18.5011L52.7201 22.8957L52.6012 21.6191Z" fill="#DBD2CC"/>
<path d="M48.7902 18.7252L47.9247 18.2486L47.3014 17.9369L46.876 17.9355L45.2966 17.2836L45.1777 16.3926L37.8139 16.8084L52.7201 21.2628L48.7902 18.7252Z" fill="#F0F2F2"/>
<path d="M52.2947 31.6327L52.1559 23.7274V23.0148L51.1459 22.9927L51.6438 23.0148V31.5526L52.2947 31.6327Z" fill="#EDEDED"/>
<path d="M51.1459 22.9927L51.1318 23.7274L50.9953 31.4725L51.6438 31.5526V23.0148L51.1459 22.9927Z" fill="#DDDDDD"/>
<path d="M50.9773 31.4706L50.7977 23.3265V22.6141L49.5245 22.5913L50.1517 22.6141V31.3687L50.9773 31.4706Z" fill="#EDEDED"/>
<path d="M51.0052 32.7246H50.974L50.9678 33.0663H51.0128L51.0052 32.7246Z" fill="#EDEDED"/>
<path d="M49.5245 22.5913L49.506 23.3265L49.3302 31.2674L50.1517 31.3687V22.6141L49.5245 22.5913Z" fill="#DDDDDD"/>
<path d="M50.9773 31.4702L50.9877 31.9307L50.9953 31.4721L50.9773 31.4702Z" fill="#F0F2F2"/>
<path d="M50.9877 31.9307L50.974 32.724H51.0052L50.9877 31.9307Z" fill="#F0F2F2"/>
<path d="M36.5671 29.6986L36.5804 29.6972L36.5671 29.6953V29.6986Z" fill="#F0F2F2"/>
<path d="M18.5419 31.7146L17.8962 31.7862L17.2492 31.8587L16.7551 31.9141L16.1152 31.9857L15.4723 32.0577L15.0303 32.1069L14.3927 32.1785L13.7527 32.2495L13.3652 32.293L12.73 32.3641L12.0919 32.4357L11.7281 32.4765L11.0967 32.5465L10.4628 32.6176L10.3307 32.6323L9.70164 32.7028L9.06966 32.7734L8.87166 32.7957L8.24589 32.8653L7.61822 32.9359L7.53436 32.9454L6.90998 33.0151L6.46282 33.0647L6.28332 33.0851L5.84084 33.1344L5.21697 33.2045L3.66609 33.3779V34.2685L5.19949 34.1964L5.84084 34.1666L6.26482 34.1467L6.48182 34.1363L6.90998 34.1164L7.55425 34.0861L7.59833 34.0842L8.24589 34.0538L8.89345 34.023L9.04787 34.0159L9.70164 33.9857L10.3539 33.9549L10.4396 33.9506L11.0967 33.9198L11.7528 33.889L12.0668 33.8748L12.73 33.8435L13.3923 33.8122L13.7262 33.7967L14.3927 33.7654L15.0583 33.7341L15.4434 33.7161L16.1152 33.6848L16.7859 33.6531L17.2179 33.6327L17.8962 33.6009L18.5742 33.5698L36.5965 32.7241V29.6953L18.5419 31.7146Z" fill="#E2E2E2"/>
<path d="M36.5671 29.6953V32.7241H51.8883V31.6555L36.5671 29.6953Z" fill="#E6E8E8"/>
<path d="M56.4316 32.8134C55.2739 32.6353 55.541 32.5463 53.8484 32.5463C52.1558 32.5463 52.6012 32.4572 51.0872 32.4572H47.613C47.1677 32.4572 46.811 32.3681 45.0293 32.3681C43.2476 32.3681 43.7821 31.7448 42.4462 32.19C41.178 32.6126 39.9516 32.3681 39.6844 32.3681C39.4178 32.3681 36.7451 32.2791 35.5869 32.2791C34.4291 32.2791 35.765 32.2791 33.8052 32.2791C31.8454 32.2791 31.4892 32.101 30.9544 32.2791C30.4201 32.4572 29.8852 32.6353 29.1727 32.7244C28.4598 32.8134 27.8364 32.7244 27.1238 32.6353C26.4109 32.5463 24.7188 32.5463 24.7188 32.5463L23.8278 32.7244L20.977 32.5463L19.1953 32.7244L17.2351 32.19L17.057 32.8134H15.632C15.632 32.8134 15.4539 32.8134 15.1868 32.8134C14.9201 32.8134 13.4947 32.7244 13.4947 32.7244L12.6036 33.0806C12.6036 33.0806 11.8022 32.9025 11.4458 32.8134C11.0891 32.7244 9.66414 32.3681 9.21888 32.3681H7.34866C6.81384 32.3681 6.10142 32.3681 6.10142 32.3681L4.05258 32.101C4.05258 32.101 5.47792 31.4776 3.25111 31.7448C1.02429 32.0119 0.311242 32.101 0.311242 32.101L0.0847473 32.1185C0.160119 33.1985 0.292747 34.2624 0.479846 35.308H2.80534C4.85418 35.308 4.67607 35.1299 5.5671 35.4861C6.45763 35.8423 6.99207 36.0204 7.61543 35.9314C8.2388 35.8423 9.30793 35.6642 9.30793 35.6642L11.6244 35.9314C11.6244 35.9314 14.119 35.1299 15.5439 35.1299C16.9687 35.1299 17.5927 35.0409 18.038 35.1299C18.4832 35.219 20.5326 34.5956 21.2455 34.7737C21.9579 34.9518 24.0068 34.5956 24.9863 35.308C25.9664 36.0204 27.3919 35.3971 28.1939 35.3971C28.9958 35.3971 31.9347 35.4861 31.9347 35.4861L33.0038 35.0409L35.6765 35.3971C35.6765 35.3971 37.0125 35.4861 37.7254 35.4861C38.4383 35.4861 37.3692 35.308 40.6653 35.6642C43.9608 36.0204 42.8031 36.1095 46.4554 36.0204C50.1077 35.9314 50.7311 36.1095 51.7113 36.1095C52.6915 36.1095 54.0278 34.5951 55.6307 35.3971C57.2338 36.199 57.3232 36.5553 58.1253 36.6443C58.5863 36.6955 58.6961 36.8343 59.2121 36.8418C59.5053 35.5856 59.7265 34.3022 59.8563 32.9905C54.9328 33.5969 57.5007 32.9782 56.4316 32.8134Z" fill="#EBEDED"/>
<path d="M15.1894 48.6197C15.1894 48.6197 13.8606 47.4454 10.7902 47.0346C10.1089 46.9431 10.3359 47.7977 9.84364 48.3724C9.35139 48.9471 9.23155 50.3985 9.23155 50.3985H15.6314C15.631 50.1526 15.1894 48.6197 15.1894 48.6197Z" fill="#E2E2E2"/>
<path d="M22.7589 35.7826L22.2246 34.4463L21.6012 34.5353C21.6012 34.5353 19.1962 34.5353 18.6613 34.5353C18.127 34.5353 17.7708 34.8915 17.7708 34.8915L18.0375 38.4548L22.4917 38.9891L22.9365 37.92L22.7589 35.7826Z" fill="#E2E2E2"/>
<path d="M18.6613 34.5356C18.127 34.5356 17.7708 34.8919 17.7708 34.8919L18.0375 38.4551L18.7509 38.5408C18.7509 38.5408 19.1962 34.5356 18.6613 34.5356Z" fill="#D4D6D6"/>
<path d="M17.3946 40.236C17.3946 40.236 17.4339 39.0152 12.522 40.1469L12.9929 43.4383C12.9929 43.4383 15.5145 44.5785 17.7357 43.1172L17.3946 40.236Z" fill="#E2E2E2"/>
<path d="M13.766 39.8901C13.3918 39.9574 12.9782 40.0421 12.522 40.1469L12.9929 43.4383C12.9929 43.4383 13.4828 43.8898 14.2265 43.7836C14.6069 43.7295 13.766 39.8901 13.766 39.8901Z" fill="#D4D6D6"/>
<path d="M20.0403 42.1299L19.5079 41.2417L19.0749 41.3762C19.0749 41.3762 17.3653 41.6519 16.9854 41.7131C16.6055 41.7742 16.3929 42.0684 16.3929 42.0684L16.9911 44.5705L20.2186 44.4406L20.4128 43.6296L20.0403 42.1299Z" fill="#E2E2E2"/>
<path d="M16.9853 41.7129C16.6054 41.7739 16.3927 42.0682 16.3927 42.0682L16.991 44.5703L17.5078 44.5494C17.5073 44.5495 17.3648 41.6518 16.9853 41.7129Z" fill="#D4D6D6"/>
<path d="M34.1138 53.965C32.9428 52.5988 32.0649 52.2085 30.5032 52.6963C29.2398 53.0909 22.9295 56.9995 20.567 58.477C20.8788 58.5802 21.1928 58.6793 21.5092 58.7725L24.3552 56.5997C24.3552 56.5997 25.2335 56.2094 25.9166 56.4045C25.9166 56.4045 27.5756 54.9407 28.2582 54.9407C28.9413 54.9407 29.9177 54.8432 31.0886 56.7949C31.8177 58.0094 32.1678 59.1857 32.3288 59.9015C33.0209 59.8484 33.7073 59.7773 34.3851 59.6779C34.6315 58.0526 34.9635 54.9565 34.1138 53.965Z" fill="#E2E2E2"/>
<path d="M31.0886 56.7949C29.9177 54.8432 28.9418 54.9407 28.2582 54.9407C27.5756 54.9407 25.9166 56.4045 25.9166 56.4045C25.2336 56.2093 24.3552 56.5997 24.3552 56.5997L21.5092 58.7725C24.2032 59.5664 27.0511 59.9999 30.0024 59.9999C30.7859 59.9999 31.5604 59.9606 32.3288 59.9013C32.1678 59.1857 31.8177 58.0096 31.0886 56.7949Z" fill="#D4D6D6"/>
<path d="M42.704 47.3323C41.9938 46.5042 42.3211 45.2722 41.3388 45.4038C36.9134 45.9959 34.9982 47.6885 34.9982 47.6885C34.9982 47.6885 34.361 49.8978 34.361 50.2526H43.586C43.586 50.2521 43.4131 48.1598 42.704 47.3323Z" fill="#E2E2E2"/>
<path d="M40.5211 48.4898C39.8115 47.3074 39.153 47.1089 38.739 47.1089C38.3251 47.1089 37.8034 47.1535 37.8034 47.1535C37.3894 47.0355 34.9976 47.6878 34.9976 47.6878L34.3604 50.2519L42.521 50.1928C42.5215 50.1933 41.2302 49.6727 40.5211 48.4898Z" fill="#D4D6D6"/>
<path d="M16.6466 49.3708C16.2449 48.9027 16.4306 48.2064 15.8744 48.2803C13.3727 48.6153 12.2899 49.5727 12.2899 49.5727C12.2899 49.5727 11.9293 50.8218 11.9293 51.0222H17.1453C17.1449 51.0216 17.0474 49.8388 16.6466 49.3708Z" fill="#E2E2E2"/>
<path d="M15.4121 50.0258C15.011 49.357 14.639 49.2451 14.4046 49.2451C14.171 49.2451 13.876 49.2702 13.876 49.2702C13.642 49.2034 12.2895 49.5724 12.2895 49.5724L11.929 51.022L16.5428 50.9888C16.5433 50.9889 15.8133 50.6947 15.4121 50.0258Z" fill="#D4D6D6"/>
<path d="M51.4866 45.6682L50.7405 44.4248L50.1346 44.6129C50.1346 44.6129 47.7418 44.9985 47.2104 45.0843C46.6789 45.1695 46.3809 45.5812 46.3809 45.5812L47.218 49.0834L51.7349 48.9015L52.0063 47.7665L51.4866 45.6682Z" fill="#E2E2E2"/>
<path d="M47.2099 45.0848C46.6784 45.1701 46.3804 45.5818 46.3804 45.5818L47.2175 49.084L47.9408 49.0546C47.9408 49.0546 47.7414 44.9991 47.2099 45.0848Z" fill="#D4D6D6"/>
<path d="M49.6547 47.4757C49.6547 47.4757 49.6841 46.5776 46.0697 47.4109L46.416 49.8329C46.416 49.8329 48.2716 50.6714 49.9054 49.596L49.6547 47.4757Z" fill="#E2E2E2"/>
<path d="M46.9853 47.2212C46.7092 47.2705 46.405 47.333 46.0696 47.4102L46.4159 49.8322C46.4159 49.8322 46.7764 50.1642 47.3235 50.0861C47.6036 50.0459 46.9853 47.2212 46.9853 47.2212Z" fill="#D4D6D6"/>
<path d="M43.3667 34.8634V36.5882C43.3667 36.5882 44.5775 37.3589 45.8252 36.772L45.8612 35.2675C45.8617 35.2675 45.9717 34.6433 43.3667 34.8634Z" fill="#E2E2E2"/>
<path d="M44.0247 34.8228C43.8272 34.8298 43.6088 34.8431 43.3667 34.8635V36.5883C43.3667 36.5883 43.5851 36.8565 43.9745 36.8565C44.1739 36.8564 44.0247 34.8228 44.0247 34.8228Z" fill="#D4D6D6"/>
<path d="M44.911 35.814V37.5388C44.911 37.5388 46.1218 38.3091 47.3691 37.7221L47.4056 36.2176C47.4056 36.2176 47.516 35.5942 44.911 35.814Z" fill="#E2E2E2"/>
<path d="M45.5681 35.7729C45.371 35.78 45.1526 35.7928 44.9105 35.8137V37.5385C44.9105 37.5385 45.1284 37.8062 45.5183 37.8062C45.7182 37.8062 45.5681 35.7729 45.5681 35.7729Z" fill="#D4D6D6"/>
<path d="M48.5334 34.5807V36.8232C48.5334 36.8232 49.6291 37.825 50.7574 37.062L50.7906 35.106C50.7911 35.106 50.8906 34.2945 48.5334 34.5807Z" fill="#E2E2E2"/>
<path d="M49.1284 34.5283C48.9498 34.5373 48.7523 34.5544 48.5334 34.5809V36.8234C48.5334 36.8234 48.7305 37.1716 49.0834 37.1716C49.2639 37.1716 49.1284 34.5283 49.1284 34.5283Z" fill="#D4D6D6"/>
<path d="M54.1749 34.6853V36.4101C54.1749 36.4101 56.0778 37.1808 58.037 36.5939L58.0948 35.0894C58.0953 35.0889 58.2682 34.465 54.1749 34.6853Z" fill="#E2E2E2"/>
<path d="M55.2085 34.645C54.8983 34.6521 54.5553 34.6649 54.1749 34.6858V36.4106C54.1749 36.4106 54.5178 36.6783 55.1304 36.6783C55.4435 36.6782 55.2085 34.645 55.2085 34.645Z" fill="#D4D6D6"/>
<path d="M47.1976 34.812L46.9087 36.803C46.9087 36.803 48.0437 37.8764 49.445 37.3879L49.7358 35.6571C49.7357 35.6566 49.9556 34.9536 47.1976 34.812Z" fill="#E2E2E2"/>
<path d="M47.1976 34.812L46.9087 36.803C46.9087 36.803 47.0915 37.1455 47.4985 37.2041C47.7065 37.2344 47.8917 34.865 47.8917 34.865C47.684 34.8433 47.4539 34.8253 47.1976 34.812Z" fill="#D4D6D6"/>
<path d="M52.3937 34.6998V36.9418C52.3937 36.9418 53.605 37.9437 54.8518 37.1806L54.8888 35.2246C54.8888 35.2246 54.9991 34.4137 52.3937 34.6998Z" fill="#E2E2E2"/>
<path d="M53.0513 34.647C52.8538 34.656 52.6354 34.6731 52.3933 34.7001V36.9421C52.3933 36.9421 52.6117 37.2903 53.0011 37.2903C53.2009 37.2903 53.0513 34.647 53.0513 34.647Z" fill="#D4D6D6"/>
<path d="M50.4932 35.2993V36.6957C50.4932 36.6957 51.4733 37.3196 52.4838 36.8445L52.5136 35.6261C52.5136 35.6261 52.6026 35.1212 50.4932 35.2993Z" fill="#E2E2E2"/>
<path d="M51.0256 35.2666C50.866 35.2723 50.6888 35.2827 50.4932 35.2993V36.6957C50.4932 36.6957 50.6699 36.9127 50.9853 36.9127C51.147 36.9122 51.0256 35.2666 51.0256 35.2666Z" fill="#D4D6D6"/>
<path d="M24.1842 34.2702V35.9951C24.1842 35.9951 25.3955 36.7654 26.6427 36.1783L26.6792 34.6738C26.6792 34.6738 26.7897 34.05 24.1842 34.2702Z" fill="#E2E2E2"/>
<path d="M24.8423 34.2295C24.6448 34.2366 24.4264 34.2494 24.1844 34.2698V35.9946C24.1844 35.9946 24.4027 36.2622 24.7927 36.2622C24.9915 36.2626 24.8423 34.2295 24.8423 34.2295Z" fill="#D4D6D6"/>
<path d="M26.1445 34.2702V35.9951C26.1445 35.9951 27.3553 36.7654 28.6027 36.1783L28.6396 34.6738C28.6396 34.6738 28.7495 34.05 26.1445 34.2702Z" fill="#E2E2E2"/>
<path d="M26.8016 34.2295C26.6045 34.2366 26.3857 34.2494 26.144 34.2698V35.9946C26.144 35.9946 26.3624 36.2622 26.7518 36.2622C26.9517 36.2626 26.8016 34.2295 26.8016 34.2295Z" fill="#D4D6D6"/>
<path d="M30.3316 33.9928V36.2353C30.3316 36.2353 31.4274 37.2377 32.5562 36.4741L32.5894 34.5177C32.5897 34.5177 32.6893 33.7066 30.3316 33.9928Z" fill="#E2E2E2"/>
<path d="M30.9271 33.9404C30.7485 33.9499 30.551 33.9665 30.3316 33.993V36.2355C30.3316 36.2355 30.5296 36.5837 30.882 36.5837C31.062 36.5837 30.9271 33.9404 30.9271 33.9404Z" fill="#D4D6D6"/>
<path d="M35.2303 34.3233V35.8126C35.2303 35.8126 36.8736 36.4777 38.5661 35.9708L38.6159 34.6719C38.6163 34.6719 38.7655 34.1333 35.2303 34.3233Z" fill="#E2E2E2"/>
<path d="M36.1232 34.2881C35.855 34.2943 35.559 34.3056 35.2303 34.3232V35.8125C35.2303 35.8125 35.5268 36.0432 36.0554 36.0432C36.326 36.0432 36.1232 34.2881 36.1232 34.2881Z" fill="#D4D6D6"/>
<path d="M28.4316 33.8618L28.1422 35.8524C28.1422 35.8524 29.2772 36.9263 30.6789 36.4379L30.9692 34.7065C30.9692 34.7065 31.1891 34.0034 28.4316 33.8618Z" fill="#E2E2E2"/>
<path d="M28.4316 33.8618L28.1422 35.8524C28.1422 35.8524 28.3255 36.1949 28.7325 36.2541C28.94 36.284 29.1252 33.9149 29.1252 33.9149C28.9176 33.8931 28.6874 33.8751 28.4316 33.8618Z" fill="#D4D6D6"/>
<path d="M33.3889 34.4973V35.8455C33.3889 35.8455 34.7731 36.4476 36.1985 35.9891L36.2411 34.8133C36.2411 34.8128 36.3667 34.3249 33.3889 34.4973Z" fill="#E2E2E2"/>
<path d="M34.1407 34.4658C33.9153 34.4715 33.6656 34.4814 33.3889 34.4976V35.8458C33.3889 35.8458 33.6386 36.0552 34.0839 36.0552C34.3123 36.0551 34.1407 34.4658 34.1407 34.4658Z" fill="#D4D6D6"/>
<path d="M31.7267 34.3491V35.7455C31.7267 35.7455 32.7068 36.3694 33.7173 35.8942L33.7472 34.6764C33.7467 34.6764 33.8361 34.171 31.7267 34.3491Z" fill="#E2E2E2"/>
<path d="M32.2591 34.3164C32.0995 34.3221 31.9223 34.333 31.7267 34.3491V35.7455C31.7267 35.7455 31.9034 35.9625 32.2188 35.9625C32.3805 35.9625 32.2591 34.3164 32.2591 34.3164Z" fill="#D4D6D6"/>
<path d="M27.1801 39.817V44.0036C27.1801 44.0036 30.1195 45.8743 33.1484 44.4489L33.2374 40.7966C33.2374 40.7966 33.505 39.2822 27.1801 39.817Z" fill="#E2E2E2"/>
<path d="M28.7764 39.7183C28.2975 39.7357 27.767 39.7675 27.1801 39.8168V44.0034C27.1801 44.0034 27.7097 44.6534 28.6557 44.6534C29.1398 44.6538 28.7764 39.7183 28.7764 39.7183Z" fill="#D4D6D6"/>
<path d="M1.73569 34.3164V35.6793C1.73569 35.6793 2.6931 36.2885 3.67927 35.8242L3.70865 34.6352C3.70815 34.6358 3.79492 34.1426 1.73569 34.3164Z" fill="#E2E2E2"/>
<path d="M2.25582 34.2842C2.10001 34.2899 1.92748 34.3003 1.73569 34.3164V35.6792C1.73569 35.6792 1.9081 35.891 2.21655 35.891C2.37426 35.891 2.25582 34.2842 2.25582 34.2842Z" fill="#D4D6D6"/>
<path d="M2.95596 35.0679V36.4308C2.95596 36.4308 3.91336 37.04 4.89953 36.5757L4.92841 35.3867C4.92803 35.3867 5.01518 34.8941 2.95596 35.0679Z" fill="#E2E2E2"/>
<path d="M3.47608 35.0356C3.32027 35.0413 3.14774 35.0512 2.95596 35.0678V36.4307C2.95596 36.4307 3.12836 36.6425 3.43681 36.6425C3.59452 36.6425 3.47608 35.0356 3.47608 35.0356Z" fill="#D4D6D6"/>
<path d="M5.81906 34.0927V35.8653C5.81906 35.8653 6.68552 36.6569 7.57743 36.0538L7.60391 34.5076C7.60391 34.5076 7.68257 33.8667 5.81906 34.0927Z" fill="#E2E2E2"/>
<path d="M6.2894 34.0513C6.14829 34.0584 5.99197 34.0722 5.81906 34.0929V35.8655C5.81906 35.8655 5.97538 36.1408 6.25444 36.1408C6.39644 36.1404 6.2894 34.0513 6.2894 34.0513Z" fill="#D4D6D6"/>
<path d="M10.2781 34.1758V35.5387C10.2781 35.5387 11.7816 36.1479 13.3307 35.6836L13.3767 34.4947C13.3766 34.495 13.513 34.0019 10.2781 34.1758Z" fill="#E2E2E2"/>
<path d="M11.0952 34.1436C10.8498 34.1493 10.5789 34.1596 10.278 34.1757V35.5386C10.278 35.5386 10.549 35.7504 11.0331 35.7504C11.2809 35.7504 11.0952 34.1436 11.0952 34.1436Z" fill="#D4D6D6"/>
<path d="M4.76411 34.2759L4.53534 35.8491C4.53534 35.8491 5.43296 36.6975 6.54009 36.3119L6.76988 34.9438C6.76976 34.9433 6.94317 34.3876 4.76411 34.2759Z" fill="#E2E2E2"/>
<path d="M4.76411 34.2759L4.53534 35.8491C4.53534 35.8491 4.68026 36.1195 5.00188 36.1665C5.16631 36.1907 5.31211 34.3181 5.31211 34.3181C5.14832 34.3005 4.96641 34.2863 4.76411 34.2759Z" fill="#D4D6D6"/>
<path d="M8.87065 34.1869V35.9591C8.87065 35.9591 9.82755 36.7512 10.8138 36.1476L10.8427 34.6014C10.8422 34.6018 10.929 33.961 8.87065 34.1869Z" fill="#E2E2E2"/>
<path d="M9.3904 34.145C9.23408 34.1526 9.06168 34.1654 8.87027 34.1867V35.9589C8.87027 35.9589 9.04267 36.2341 9.35062 36.2341C9.50782 36.2346 9.3904 34.145 9.3904 34.145Z" fill="#D4D6D6"/>
<path d="M7.36803 34.6611V35.7648C7.36803 35.7648 8.14354 36.258 8.94171 35.8822L8.9649 34.9196C8.9649 34.9193 9.03558 34.5199 7.36803 34.6611Z" fill="#E2E2E2"/>
<path d="M7.78923 34.6348C7.66281 34.6391 7.52258 34.6476 7.36766 34.6609V35.7646C7.36766 35.7646 7.50789 35.9361 7.75706 35.9361C7.88538 35.9361 7.78923 34.6348 7.78923 34.6348Z" fill="#D4D6D6"/>
<path d="M11.3568 30.4083L10.6444 38.6929L13.0494 38.4257L13.2275 30.4973C12.8712 28.9828 11.3568 30.4083 11.3568 30.4083Z" fill="#E2E2E2"/>
<path d="M12.1302 29.8967C11.7186 30.0683 11.3566 30.4084 11.3566 30.4084L10.6442 38.693L11.8157 38.5628C11.8157 38.5628 12.5604 29.7172 12.1302 29.8967Z" fill="#D4D6D6"/>
<path d="M15.8105 35.2189C15.6324 34.2393 14.3852 33.9717 14.3852 33.9717C12.9598 34.4169 13.316 35.4861 13.316 35.4861L13.5832 38.604L16.434 38.0697C16.4344 38.0692 15.9891 36.1986 15.8105 35.2189Z" fill="#E2E2E2"/>
<path d="M14.3852 33.9717C12.9598 34.4169 13.316 35.4861 13.316 35.4861L13.5832 38.604L14.4454 38.4425L14.3852 33.9717Z" fill="#D4D6D6"/>
<path d="M2.53768 31.2988L1.64716 31.5665L2.44863 37.0895L3.60631 37.891L2.53768 31.2988Z" fill="#D4D6D6"/>
<path d="M3.96264 31.7446C3.96264 31.7446 4.05169 31.2993 3.60643 31.2993C3.16117 31.2993 2.53729 31.2993 2.53729 31.2993L3.51687 37.8915H4.85316L3.96264 31.7446Z" fill="#E2E2E2"/>
</g>
<defs>
<clipPath id="clip0_14_5032">
<rect width="60" height="60" fill="white"/>
</clipPath>
</defs>
</svg>
