<svg width="512" height="512" viewBox="0 0 512 512" fill="none" xmlns="http://www.w3.org/2000/svg">
<g clip-path="url(#clip0_15_5409)">
<path d="M503.83 44.936V377.191H471.149L427.574 211.064L471.149 44.936H503.83Z" fill="#63ABA1"/>
<path d="M471.149 44.936H8.17V377.191H471.149V44.936Z" fill="#83C49A"/>
<path d="M397.617 12.2549L408.511 386.603H430.298V44.9359C430.298 26.9619 415.591 12.2549 397.617 12.2549Z" fill="#55B9D3"/>
<path d="M397.617 12.2549C403.608 12.2549 408.511 26.9609 408.511 44.9359V386.603H364.937V44.9359C364.936 26.9619 379.643 12.2549 397.617 12.2549Z" fill="#8CE6FE"/>
<path d="M430.297 344.511H397.616L430.297 385.961L462.978 377.192C462.978 359.141 448.348 344.511 430.297 344.511Z" fill="#D9F7FF"/>
<path d="M430.297 377.191V385.96L338.246 410.678V344.51H397.616C415.667 344.511 430.297 359.141 430.297 377.191Z" fill="white"/>
<path d="M114.383 12.2549L125.277 386.603H147.064V44.9359C147.064 26.9619 132.357 12.2549 114.383 12.2549Z" fill="#55B9D3"/>
<path d="M114.383 12.2549C120.374 12.2549 125.277 26.9609 125.277 44.9359V386.603H81.702V44.9359C81.702 26.9619 96.409 12.2549 114.383 12.2549Z" fill="#8CE6FE"/>
<path d="M81.702 344.511C63.653 344.511 49.022 359.143 49.022 377.192L173.754 410.676V344.511H81.702Z" fill="white"/>
<path d="M114.383 320C109.87 320 106.213 316.342 106.213 311.83V142.979C106.213 138.467 109.87 134.809 114.383 134.809C118.896 134.809 122.553 138.467 122.553 142.979V311.83C122.553 316.342 118.896 320 114.383 320Z" fill="white"/>
<path d="M114.383 118.468C109.87 118.468 106.213 114.81 106.213 110.298V44.9361C106.213 40.4241 109.87 36.7661 114.383 36.7661C118.896 36.7661 122.553 40.4241 122.553 44.9361V110.298C122.553 114.81 118.896 118.468 114.383 118.468Z" fill="white"/>
<path d="M288.681 12.2549H256L288.681 333.617H321.362V44.9359C321.362 26.9619 306.655 12.2549 288.681 12.2549Z" fill="#55B9D3"/>
<path d="M288.681 44.9359V333.617H190.638V44.9359C190.638 26.9619 205.344 12.2549 223.319 12.2549H256C273.974 12.2549 288.681 26.9619 288.681 44.9359Z" fill="#8CE6FE"/>
<path d="M321.362 333.617C306.46 313.769 282.733 300.936 256 300.936L332.255 377.191H364.936C364.936 353.127 345.426 333.617 321.362 333.617Z" fill="#D9F7FF"/>
<path d="M332.255 377.191H147.064C147.064 353.127 166.574 333.617 190.638 333.617C205.54 313.769 229.267 300.936 256 300.936C274.715 300.936 291.317 313.769 301.753 333.617C318.595 333.617 332.255 353.127 332.255 377.191Z" fill="white"/>
<path d="M503.83 377.191V507.915H471.149L427.574 442.553L471.149 377.191H503.83Z" fill="#55B9D3"/>
<path d="M471.149 377.191H8.17V507.914H471.149V377.191Z" fill="#8CE6FE"/>
<path d="M364.936 418.043H147.064C142.551 418.043 138.894 414.385 138.894 409.873C138.894 405.361 142.551 401.703 147.064 401.703H364.936C369.449 401.703 373.106 405.361 373.106 409.873C373.106 414.384 369.449 418.043 364.936 418.043Z" fill="white"/>
<path d="M332.255 450.723H179.745C175.232 450.723 171.575 447.065 171.575 442.553C171.575 438.041 175.232 434.383 179.745 434.383H332.256C336.769 434.383 340.426 438.041 340.426 442.553C340.426 447.065 336.769 450.723 332.255 450.723Z" fill="white"/>
<path d="M364.936 483.404H147.064C142.551 483.404 138.894 479.746 138.894 475.234C138.894 470.722 142.551 467.064 147.064 467.064H364.936C369.449 467.064 373.106 470.722 373.106 475.234C373.106 479.746 369.449 483.404 364.936 483.404Z" fill="white"/>
<path d="M147.064 450.723H8.17C3.657 450.723 0 447.065 0 442.553C0 438.041 3.657 434.383 8.17 434.383H147.064C151.577 434.383 155.234 438.041 155.234 442.553C155.234 447.065 151.577 450.723 147.064 450.723Z" fill="white"/>
<path d="M503.83 450.723H364.936C360.423 450.723 356.766 447.065 356.766 442.553C356.766 438.041 360.423 434.383 364.936 434.383H503.83C508.343 434.383 512 438.041 512 442.553C512 447.065 508.343 450.723 503.83 450.723Z" fill="white"/>
<path d="M471.149 483.404H397.617C393.104 483.404 389.447 479.746 389.447 475.234C389.447 470.722 393.104 467.064 397.617 467.064H471.149C475.662 467.064 479.319 470.722 479.319 475.234C479.319 479.746 475.662 483.404 471.149 483.404Z" fill="white"/>
<path d="M114.383 483.404H40.851C36.338 483.404 32.681 479.746 32.681 475.234C32.681 470.722 36.338 467.064 40.851 467.064H114.383C118.896 467.064 122.553 470.722 122.553 475.234C122.553 479.746 118.896 483.404 114.383 483.404Z" fill="white"/>
<path d="M256 276.426C251.487 276.426 247.83 272.768 247.83 268.256V110.298C247.83 105.786 251.487 102.128 256 102.128C260.513 102.128 264.17 105.786 264.17 110.298V268.255C264.17 272.767 260.513 276.426 256 276.426Z" fill="white"/>
<path d="M256 85.7871C251.487 85.7871 247.83 82.1291 247.83 77.6171V44.9361C247.83 40.4241 251.487 36.7661 256 36.7661C260.513 36.7661 264.17 40.4241 264.17 44.9361V77.6171C264.17 82.1291 260.513 85.7871 256 85.7871Z" fill="white"/>
<path d="M223.319 281.256C218.806 281.256 215.149 277.598 215.149 273.086V240.405C215.149 235.893 218.806 232.235 223.319 232.235C227.832 232.235 231.489 235.893 231.489 240.405V273.086C231.489 277.598 227.832 281.256 223.319 281.256Z" fill="white"/>
<path d="M223.319 215.894C218.806 215.894 215.149 212.236 215.149 207.724V77.6173C215.149 73.1053 218.806 69.4473 223.319 69.4473C227.832 69.4473 231.489 73.1053 231.489 77.6173V207.724C231.489 212.236 227.832 215.894 223.319 215.894Z" fill="white"/>
<path d="M288.681 281.256C284.168 281.256 280.511 277.598 280.511 273.086V77.6173C280.511 73.1053 284.168 69.4473 288.681 69.4473C293.194 69.4473 296.851 73.1053 296.851 77.6173V273.086C296.851 277.598 293.194 281.256 288.681 281.256Z" fill="white"/>
<path d="M397.617 320C393.104 320 389.447 316.342 389.447 311.83V142.979C389.447 138.467 393.104 134.809 397.617 134.809C402.13 134.809 405.787 138.467 405.787 142.979V311.83C405.787 316.342 402.13 320 397.617 320Z" fill="white"/>
<path d="M397.617 118.468C393.104 118.468 389.447 114.81 389.447 110.298V44.9361C389.447 40.4241 393.104 36.7661 397.617 36.7661C402.13 36.7661 405.787 40.4241 405.787 44.9361V110.298C405.787 114.81 402.13 118.468 397.617 118.468Z" fill="white"/>
<path d="M114.383 134.809C109.87 134.809 106.213 138.467 106.213 142.979V311.83C106.213 316.342 109.87 320 114.383 320C118.896 320 122.553 316.342 122.553 311.83V142.979C122.553 138.467 118.896 134.809 114.383 134.809Z" fill="black"/>
<path d="M114.383 36.7661C109.87 36.7661 106.213 40.4241 106.213 44.9361V110.298C106.213 114.81 109.87 118.468 114.383 118.468C118.896 118.468 122.553 114.81 122.553 110.298V44.9361C122.553 40.4241 118.896 36.7661 114.383 36.7661Z" fill="black"/>
<path d="M332.255 385.362C336.768 385.362 340.425 381.704 340.425 377.192C340.425 372.68 336.768 369.022 332.255 369.022H179.745C175.232 369.022 171.575 372.68 171.575 377.192C171.575 381.704 175.232 385.362 179.745 385.362H332.255Z" fill="black"/>
<path d="M256 102.128C251.487 102.128 247.83 105.786 247.83 110.298V268.255C247.83 272.767 251.487 276.425 256 276.425C260.513 276.425 264.17 272.767 264.17 268.255V110.298C264.17 105.786 260.513 102.128 256 102.128Z" fill="black"/>
<path d="M256 36.7661C251.487 36.7661 247.83 40.4241 247.83 44.9361V77.6171C247.83 82.1291 251.487 85.7871 256 85.7871C260.513 85.7871 264.17 82.1291 264.17 77.6171V44.9361C264.17 40.4241 260.513 36.7661 256 36.7661Z" fill="black"/>
<path d="M223.319 232.234C218.806 232.234 215.149 235.892 215.149 240.404V273.085C215.149 277.597 218.806 281.255 223.319 281.255C227.832 281.255 231.489 277.597 231.489 273.085V240.404C231.489 235.893 227.832 232.234 223.319 232.234Z" fill="black"/>
<path d="M223.319 69.4468C218.806 69.4468 215.149 73.1048 215.149 77.6168V207.724C215.149 212.236 218.806 215.894 223.319 215.894C227.832 215.894 231.489 212.236 231.489 207.724V77.6168C231.489 73.1048 227.832 69.4468 223.319 69.4468Z" fill="black"/>
<path d="M288.681 69.4468C284.168 69.4468 280.511 73.1048 280.511 77.6168V273.086C280.511 277.598 284.168 281.256 288.681 281.256C293.194 281.256 296.851 277.598 296.851 273.086V77.6168C296.851 73.1048 293.194 69.4468 288.681 69.4468Z" fill="black"/>
<path d="M503.83 369.021H470.326C467.069 353.039 454.451 340.42 438.469 337.163V53.106H503.831C508.344 53.106 512.001 49.448 512.001 44.936C512.001 40.424 508.344 36.766 503.831 36.766H437.647C433.852 18.142 417.347 4.08496 397.618 4.08496C377.889 4.08496 361.385 18.142 357.589 36.766H328.711C324.916 18.142 308.411 4.08496 288.682 4.08496H223.32C203.592 4.08496 187.087 18.142 183.291 36.766H154.413C150.618 18.142 134.113 4.08496 114.384 4.08496C94.655 4.08496 78.152 18.142 74.357 36.766H8.17C3.657 36.766 0 40.424 0 44.936C0 49.448 3.657 53.106 8.17 53.106H73.532V337.163C57.55 340.421 44.932 353.039 41.675 369.021H8.17C3.657 369.021 0 372.679 0 377.191C0 381.703 3.657 385.361 8.17 385.361H147.064C151.577 385.361 155.234 381.703 155.234 377.191C155.234 357.67 171.116 341.787 190.637 341.787C190.944 341.787 191.246 341.767 191.544 341.734C191.624 341.725 191.701 341.709 191.779 341.698C192.001 341.666 192.22 341.63 192.436 341.581C192.522 341.561 192.607 341.537 192.692 341.515C192.899 341.462 193.102 341.402 193.302 341.332C193.387 341.303 193.471 341.272 193.555 341.239C193.753 341.163 193.946 341.08 194.137 340.99C194.217 340.953 194.295 340.916 194.373 340.877C194.573 340.774 194.767 340.661 194.957 340.543C195.017 340.506 195.079 340.472 195.139 340.433C195.384 340.271 195.622 340.097 195.847 339.91C195.876 339.886 195.904 339.858 195.932 339.833C196.125 339.669 196.31 339.496 196.486 339.314C196.552 339.246 196.613 339.175 196.677 339.104C196.815 338.951 196.949 338.796 197.076 338.633C197.105 338.596 197.139 338.563 197.168 338.525C211.213 319.829 232.655 309.108 255.999 309.108C279.343 309.108 300.785 319.831 314.83 338.525C314.858 338.563 314.892 338.596 314.922 338.633C315.048 338.795 315.182 338.951 315.321 339.104C315.384 339.174 315.446 339.247 315.512 339.314C315.688 339.496 315.874 339.668 316.067 339.833C316.096 339.858 316.123 339.886 316.152 339.91C316.377 340.097 316.615 340.271 316.86 340.433C316.92 340.472 316.982 340.506 317.042 340.543C317.232 340.662 317.425 340.775 317.626 340.877C317.704 340.917 317.783 340.953 317.862 340.99C318.053 341.08 318.245 341.164 318.444 341.239C318.528 341.271 318.612 341.302 318.697 341.332C318.897 341.401 319.1 341.461 319.307 341.515C319.392 341.537 319.477 341.562 319.563 341.581C319.779 341.63 319.999 341.666 320.22 341.698C320.298 341.709 320.376 341.725 320.455 341.734C320.753 341.767 321.055 341.787 321.362 341.787C340.883 341.787 356.765 357.67 356.765 377.191C356.765 381.703 360.422 385.361 364.935 385.361H503.829C508.342 385.361 511.999 381.703 511.999 377.191C511.998 372.679 508.343 369.021 503.83 369.021ZM139.539 369.021H58.598C61.971 359.512 71.052 352.681 81.702 352.681H129.918C134.431 352.681 138.088 349.023 138.088 344.511C138.088 339.999 134.431 336.341 129.918 336.341H89.872V44.936C89.872 31.42 100.868 20.425 114.383 20.425C127.898 20.425 138.894 31.42 138.894 44.936V321.237C138.894 325.749 142.551 329.407 147.064 329.407C151.577 329.407 155.234 325.749 155.234 321.237V53.106H182.468L182.467 326.098C160.466 329.604 143.043 347.021 139.539 369.021ZM256 292.766C234.71 292.766 214.715 300.063 198.807 313.257L198.808 44.936C198.808 31.42 209.804 20.425 223.319 20.425H288.681C302.196 20.425 313.192 31.42 313.192 44.936L313.193 313.257C297.285 300.063 277.29 292.766 256 292.766ZM329.533 326.098L329.532 53.106H356.766V321.237C356.766 325.749 360.423 329.407 364.936 329.407C369.449 329.407 373.106 325.749 373.106 321.237V44.936C373.106 31.42 384.102 20.425 397.617 20.425C411.132 20.425 422.128 31.42 422.128 44.936V336.34H382.082C377.569 336.34 373.912 339.998 373.912 344.51C373.912 349.022 377.569 352.68 382.082 352.68H430.298C440.949 352.68 450.03 359.511 453.402 369.02H372.461C368.957 347.021 351.534 329.604 329.533 326.098Z" fill="black"/>
<path d="M397.617 320C402.13 320 405.787 316.342 405.787 311.83V142.979C405.787 138.467 402.13 134.809 397.617 134.809C393.104 134.809 389.447 138.467 389.447 142.979V311.83C389.447 316.342 393.104 320 397.617 320Z" fill="black"/>
<path d="M397.617 118.468C402.13 118.468 405.787 114.81 405.787 110.298V44.9361C405.787 40.4241 402.13 36.7661 397.617 36.7661C393.104 36.7661 389.447 40.4241 389.447 44.9361V110.298C389.447 114.81 393.104 118.468 397.617 118.468Z" fill="black"/>
</g>
<defs>
<clipPath id="clip0_15_5409">
<rect width="512" height="512" fill="white"/>
</clipPath>
</defs>
</svg>
