<svg width="60" height="60" viewBox="0 0 60 60" fill="none" xmlns="http://www.w3.org/2000/svg">
<path d="M37.8734 27.1386L32.5709 21.8548L44.4771 9.9917L49.7177 15.2136L37.8734 27.1386Z" fill="#FDCD31"/>
<path d="M37.879 27.6994L32.0103 21.855L44.4771 9.43311L50.2765 15.2119L37.879 27.6994ZM33.1353 21.8569L37.879 26.5781L49.1665 15.2137L44.479 10.5506L33.1353 21.8569Z" fill="#E9AD0F"/>
<path d="M24.7236 29.6637L11.7809 42.6064L17.0776 47.9031L30.0203 34.9604L24.7236 29.6637Z" fill="#FDCD31"/>
<path d="M17.0777 48.4612L11.224 42.6074L24.724 29.1074L30.5815 34.9649L17.0777 48.4612ZM12.3434 42.6074L17.0777 47.3437L29.4527 34.9687L24.7146 30.2305L12.3434 42.6074Z" fill="#E9AD0F"/>
<path d="M10.489 43.9033L15.7577 49.1533L4.18899 55.5002C4.18401 55.5029 4.17828 55.504 4.17267 55.5031C4.16705 55.5023 4.16185 55.4997 4.15784 55.4957C4.15382 55.4917 4.15122 55.4865 4.15041 55.4809C4.14961 55.4753 4.15064 55.4695 4.15336 55.4646L10.489 43.9033Z" fill="#FDCD31"/>
<path d="M4.17588 55.9031C4.10223 55.9039 4.02964 55.8855 3.96533 55.8496C3.90102 55.8137 3.84722 55.7616 3.8093 55.6984C3.77138 55.6353 3.75065 55.5633 3.74917 55.4897C3.74769 55.416 3.76552 55.3433 3.80088 55.2787L10.3896 43.2524L16.4065 49.2524L4.38025 55.8506C4.31761 55.8849 4.24733 55.903 4.17588 55.9031ZM10.5828 44.5556L5.10963 54.5474L15.1034 49.0631L10.5828 44.5556Z" fill="#E9AD0F"/>
<path d="M54.5552 10.4774L50.9196 14.1111L45.6059 8.79737L49.0821 5.3155C49.5294 4.93344 50.0998 4.72604 50.688 4.73155C51.2763 4.73707 51.8427 4.95512 52.2827 5.3455L54.5327 7.65175C54.862 8.04777 55.0442 8.54552 55.0483 9.06055C55.0524 9.57557 54.8782 10.0762 54.5552 10.4774Z" fill="#FDCD31"/>
<path d="M50.9196 14.6718L45.0453 8.79741L48.7953 5.03616C49.318 4.58169 49.9889 4.33392 50.6816 4.33945C51.3742 4.34497 52.041 4.60341 52.5565 5.06616L54.8065 7.37616C55.2014 7.8447 55.4216 8.43572 55.4295 9.04844C55.4373 9.66116 55.2324 10.2576 54.8496 10.7362L54.829 10.7568L50.9196 14.6718ZM46.1646 8.79741L50.9196 13.5524L54.2646 10.2074C54.5225 9.87832 54.6597 9.47071 54.6532 9.05267C54.6467 8.63463 54.497 8.23147 54.229 7.91053L51.9996 5.62491C51.6322 5.313 51.1672 5.1396 50.6853 5.13481C50.2034 5.13001 49.735 5.29413 49.3615 5.59866L46.1646 8.79741Z" fill="#E9AD0F"/>
<path d="M41.555 33.2879L36.2438 38.5991L41.4317 43.7871L46.743 38.4758L41.555 33.2879Z" fill="#FDCD31"/>
<path d="M41.4303 44.3455L35.6834 38.5987L41.554 32.728L47.3009 38.4749L41.4303 44.3455ZM36.8028 38.5987L41.4303 43.228L46.1815 38.4768L41.554 33.8474L36.8028 38.5987Z" fill="#E9AD0F"/>
<path d="M39.8534 32.6249L35.5409 36.9374C35.4747 37.0037 35.3961 37.0563 35.3095 37.0922C35.223 37.1282 35.1302 37.1466 35.0365 37.1466C34.9428 37.1466 34.85 37.1282 34.7635 37.0922C34.6769 37.0563 34.5983 37.0037 34.5321 36.9374L8.30276 10.6874C8.05773 10.4424 7.86336 10.1516 7.73074 9.83145C7.59813 9.51134 7.52988 9.16825 7.52988 8.82176C7.52988 8.47527 7.59813 8.13218 7.73074 7.81207C7.86336 7.49196 8.05773 7.20112 8.30276 6.95614L10.0709 5.18801C10.2913 4.96742 10.5531 4.79242 10.8412 4.67303C11.1293 4.55364 11.4381 4.49219 11.7499 4.49219C12.0618 4.49219 12.3706 4.55364 12.6587 4.67303C12.9468 4.79242 13.2086 4.96742 13.429 5.18801L39.8534 31.6143C39.92 31.6805 39.9729 31.7592 40.0089 31.8459C40.045 31.9327 40.0636 32.0257 40.0636 32.1196C40.0636 32.2135 40.045 32.3065 40.0089 32.3932C39.9729 32.4799 39.92 32.5587 39.8534 32.6249Z" fill="#FDCD31"/>
<path d="M35.0459 37.5301C34.9003 37.5302 34.7562 37.5016 34.6217 37.446C34.4872 37.3903 34.365 37.3087 34.2621 37.2057L8.02336 10.9651C7.45453 10.3961 7.13498 9.62458 7.13498 8.82007C7.13498 8.01556 7.45453 7.24399 8.02336 6.67507L9.79148 4.90694C10.3113 4.38838 11.0156 4.09717 11.7499 4.09717C12.4842 4.09717 13.1885 4.38838 13.7084 4.90694L40.129 31.3332C40.2319 31.4361 40.3136 31.5583 40.3693 31.6928C40.4251 31.8272 40.4537 31.9714 40.4537 32.1169C40.4537 32.2625 40.4251 32.4066 40.3693 32.5411C40.3136 32.6756 40.2319 32.7978 40.129 32.9007L35.8259 37.2038C35.7236 37.3068 35.6022 37.3886 35.4683 37.4445C35.3345 37.5005 35.1909 37.5296 35.0459 37.5301ZM11.749 4.88819C11.4892 4.88788 11.2318 4.93891 10.9918 5.03834C10.7518 5.13776 10.5337 5.28363 10.3502 5.46757L8.58211 7.23569C8.16361 7.65718 7.92876 8.22705 7.92876 8.82101C7.92876 9.41497 8.16361 9.98483 8.58211 10.4063L34.8227 36.6451C34.8824 36.704 34.9629 36.7371 35.0468 36.7371C35.1307 36.7371 35.2112 36.704 35.2709 36.6451L39.5665 32.3419C39.6259 32.2825 39.6593 32.2019 39.6593 32.1179C39.6593 32.0338 39.6259 31.9532 39.5665 31.8938L13.1477 5.46757C12.9642 5.28363 12.7462 5.13776 12.5062 5.03834C12.2661 4.93891 12.0088 4.88788 11.749 4.88819Z" fill="#E9AD0F"/>
<path d="M43.8115 43.9481L46.8434 40.8956C47.1703 40.5669 47.6034 40.365 48.0654 40.3262C48.5274 40.2874 48.9881 40.4141 49.3653 40.6838C50.6558 41.5596 51.8679 42.5458 52.9878 43.6313C57.0078 48.0713 55.714 54.36 55.4496 55.4663C55.4474 55.4706 55.4441 55.4743 55.44 55.4768C55.4358 55.4793 55.4311 55.4807 55.4262 55.4807C55.4213 55.4807 55.4166 55.4793 55.4124 55.4768C55.4083 55.4743 55.405 55.4706 55.4028 55.4663C54.7318 54.2998 53.8212 53.2888 52.7309 52.5C50.8109 51.1294 49.3165 51.2344 47.554 50.4094C45.7857 49.5325 44.3605 48.0908 43.504 46.3125C43.2695 45.945 43.1717 45.5067 43.228 45.0744C43.2842 44.6421 43.4908 44.2434 43.8115 43.9481Z" fill="#FDCD31"/>
<path d="M55.4234 55.8751C55.3499 55.8749 55.2778 55.8554 55.2143 55.8186C55.1508 55.7817 55.0981 55.7288 55.0615 55.6651C54.4207 54.5455 53.5489 53.5753 52.504 52.8188C51.57 52.1746 50.521 51.7157 49.414 51.4669C48.7202 51.2915 48.0427 51.0569 47.389 50.7657C45.5477 49.8479 44.0603 48.3486 43.1571 46.5001C42.8813 46.0573 42.7679 45.5325 42.8363 45.0153C42.9047 44.4982 43.1507 44.0209 43.5321 43.6651L46.5659 40.6126C46.9583 40.2163 47.4791 39.973 48.0348 39.9262C48.5905 39.8795 49.1447 40.0324 49.5977 40.3576C50.912 41.2476 52.1455 42.2515 53.284 43.3576C57.409 47.9138 56.134 54.3132 55.8359 55.5451C55.8164 55.6275 55.7725 55.7022 55.71 55.7594C55.6474 55.8166 55.5691 55.8536 55.4852 55.8657L55.4234 55.8751ZM48.229 40.7063C48.0235 40.7062 47.8201 40.7469 47.6305 40.8261C47.4409 40.9053 47.269 41.0213 47.1246 41.1676L44.0909 44.2201C43.8294 44.4564 43.6616 44.7788 43.6183 45.1286C43.5749 45.4784 43.6588 45.832 43.8546 46.1251C44.6785 47.8186 46.0363 49.1942 47.719 50.0401C48.3334 50.3129 48.9701 50.5324 49.6221 50.6963C51.9115 51.1953 53.9237 52.5502 55.2471 54.4838C55.628 52.6394 55.5973 50.7337 55.1572 48.9026C54.7171 47.0714 53.8784 45.3599 52.7009 43.8901C51.5994 42.8249 50.4074 41.8576 49.1384 40.9988C48.8723 40.8114 48.5544 40.7118 48.229 40.7138V40.7063Z" fill="#E9AD0F"/>
</svg>
