<svg width="60" height="60" viewBox="0 0 60 60" fill="none" xmlns="http://www.w3.org/2000/svg">
<g clip-path="url(#clip0_16_15455)">
<path d="M34.6866 35.9457V35.6026C34.6866 33.043 32.5591 30.96 29.9995 30.96C27.4399 30.96 25.3119 33.0426 25.3119 35.6026V35.9457C24.375 36.4459 23.906 37.5399 23.906 38.81V42.8025C23.906 44.5429 24.9002 45.9375 26.6393 45.9375H33.2935C35.0335 45.9375 36.5615 44.5429 36.5615 42.8025V38.81C36.562 37.5404 36.093 36.4459 34.6866 35.9457ZM30.9369 40.8756V42.1849C30.9369 42.7026 30.5167 43.1224 29.9995 43.1224C29.4823 43.1224 29.0626 42.7022 29.0626 42.1849V40.8893C28.8619 40.8604 28.5709 40.2391 28.5709 39.8023C28.5709 39.0078 29.2211 38.3652 30.0147 38.3652C30.8087 38.3652 31.4404 39.0078 31.4404 39.8023C31.44 40.2311 31.4059 40.6125 30.9369 40.8756ZM32.8118 35.6248H32.7304C32.7044 35.6248 32.6769 35.6263 32.6509 35.6286C32.6235 35.6263 32.5974 35.6248 32.57 35.6248H27.1872V35.6031C27.1872 34.077 28.4739 32.8358 29.9995 32.8358C31.5251 32.8358 32.8118 34.077 32.8118 35.6031V35.6248Z" fill="black"/>
<path d="M29.9674 24.416C22.2229 24.416 15.9226 30.7154 15.9226 38.4599C15.9226 46.2044 22.2234 52.5047 29.9674 52.5047C37.711 52.5047 44.0118 46.2044 44.0118 38.4599C44.0118 30.7154 37.711 24.416 29.9674 24.416ZM29.9674 50.6294C23.2564 50.6294 17.7979 45.1705 17.7979 38.4599C17.7979 31.7498 23.2564 26.2909 29.9674 26.2909C36.6771 26.2909 42.1365 31.7498 42.1369 38.4599C42.1369 45.1705 36.6775 50.6294 29.9674 50.6294Z" fill="black"/>
<path d="M48.9832 19.2146C48.757 19.2146 48.5247 19.2231 48.2881 19.2378C46.5278 15.226 42.6063 12.6526 38.2026 12.6526C36.3074 12.6526 34.4548 13.1386 32.8113 14.0633C31.0624 10.1139 27.0817 7.49609 22.7339 7.49609C16.6603 7.49609 11.7185 12.4378 11.7185 18.5114C11.7185 18.7495 11.7275 18.9932 11.745 19.2402C11.4971 19.2236 11.2534 19.2142 11.0158 19.2142C4.94172 19.2142 0 24.1563 0 30.23C0 36.146 4.79124 41.0698 10.6955 41.2406C10.7234 41.2453 10.7522 41.2501 10.7816 41.2501H17.16C16.9659 40.3126 16.8604 39.4183 16.8604 38.4619C16.8604 31.2232 22.7292 25.3545 29.9678 25.3545C37.206 25.3545 43.0748 31.2237 43.0748 38.4624C43.0748 39.4187 42.9692 40.3122 42.7752 41.2501H49.2184C49.2478 41.2501 49.2762 41.2453 49.3036 41.2406C55.2088 41.0702 60 36.147 60 30.2309C59.9991 24.1578 55.0583 19.2146 48.9832 19.2146Z" fill="black"/>
</g>
<defs>
<clipPath id="clip0_16_15455">
<rect width="60" height="60" fill="white"/>
</clipPath>
</defs>
</svg>
