<svg width="24" height="24" viewBox="0 0 24 24" fill="none" xmlns="http://www.w3.org/2000/svg">
<path d="M15.004 4H21.004V10H15.004V4Z" fill="black"/>
<path d="M3.004 12C3.004 16.9706 7.03344 21 12.004 21C16.9746 21 21.004 16.9706 21.004 12H17.004C17.004 14.7614 14.7654 17 12.004 17C9.24258 17 7.004 14.7614 7.004 12H3.004Z" fill="black"/>
<path d="M6.004 10C7.66085 10 9.004 8.65685 9.004 7C9.004 5.34315 7.66085 4 6.004 4C4.34715 4 3.004 5.34315 3.004 7C3.004 8.65685 4.34715 10 6.004 10Z" fill="black"/>
</svg>
