<svg width="61" height="60" viewBox="0 0 61 60" fill="none" xmlns="http://www.w3.org/2000/svg">
<g clip-path="url(#clip0_19_15866)">
<path d="M60.4209 30C60.4209 46.5667 46.9892 60 30.4209 60C13.8526 60 0.420898 46.5667 0.420898 30C0.420898 13.4317 13.8526 0 30.4209 0C46.9892 0 60.4209 13.4317 60.4209 30Z" fill="#DD2E44"/>
<path d="M16.4675 37.8934C16.4675 35.8234 16.5575 33.8434 16.7375 31.91C15.1625 33.53 13.4541 35.1484 11.6091 36.5884C11.3103 36.814 10.9484 36.9405 10.5741 36.95C10.0341 36.95 9.49413 36.68 9.13413 36.14C8.93068 35.8499 8.8213 35.5043 8.8208 35.15C8.8208 34.61 9.0908 34.07 9.5408 33.755C14.0391 30.6517 19.4825 24.8934 21.6425 20.5734C21.7571 20.3996 21.8196 20.1966 21.8225 19.9884C21.8225 19.6734 21.5525 19.4934 21.0125 19.4934H11.2508C10.4408 19.4934 9.9908 18.8634 9.9908 17.965C9.9908 17.065 10.4408 16.39 11.2508 16.39H16.4241V10.0017C16.4241 9.1917 17.1441 8.7417 18.1341 8.7417C19.1691 8.7417 19.8891 9.1917 19.8891 10.0017V16.39H22.8125C24.5675 16.39 25.6908 17.38 25.6908 18.9084C25.6908 19.4934 25.5108 20.1684 25.1958 20.8884C24.0708 23.0934 22.3175 25.6567 20.5175 27.8617C22.6758 30.0667 24.6558 31.5967 26.2308 32.63C26.8158 32.99 27.0858 33.44 27.0858 33.9817C27.0858 34.34 26.9508 34.655 26.7258 35.015C26.6158 35.1958 26.4688 35.3514 26.2945 35.4714C26.1201 35.5915 25.9225 35.6734 25.7143 35.7118C25.5062 35.7502 25.2922 35.7442 25.0866 35.6942C24.8809 35.6442 24.6881 35.5513 24.5208 35.4217C22.9008 34.2067 21.2825 32.6317 19.5725 30.7884C19.7525 33.0384 19.8425 34.8367 19.8425 36.9967V49.3234C19.8425 50.1317 19.1675 50.5834 18.1325 50.5834C17.1425 50.5834 16.4675 50.0884 16.4675 49.3234V37.8934ZM35.6775 28.9417C35.4991 39.425 32.3925 45.9017 25.1508 49.9517C24.7908 50.1767 24.4308 50.3117 24.1158 50.3117C23.5758 50.3117 23.0358 50.0417 22.6758 49.4567C22.4641 49.1536 22.3538 48.7913 22.3608 48.4217C22.3608 47.8817 22.6308 47.4317 23.1708 47.0734C29.6041 43.475 32.2141 38.525 32.3925 28.9434H31.0441C28.3441 28.9434 27.1741 27.9084 27.1741 25.39V14.68C27.1741 12.115 28.3441 11.035 31.0441 11.035H45.2608C47.9158 11.035 49.1291 12.115 49.1291 14.68V25.3867C49.1291 27.9067 47.9158 28.94 45.2608 28.94H42.7875V45.27C42.7875 46.305 43.1458 46.485 45.3075 46.485C47.1958 46.485 47.8258 46.1717 48.1408 45.1817C48.4108 44.1 48.5908 41.9867 48.6358 40.1884C48.6358 39.3784 49.2208 38.8834 50.0741 38.8834H50.2091C51.1991 38.9284 51.7391 39.3784 51.7391 40.2334V40.325C51.6941 43.0684 51.3791 45.6784 50.6608 47.3434C50.3919 47.9627 49.9355 48.4821 49.3558 48.8284C48.5008 49.3234 47.0608 49.6367 45.1275 49.6367H44.3625C40.2691 49.5934 39.4591 48.6467 39.4591 46.3534V28.9417H35.6775ZM44.4058 25.8367C45.2625 25.8367 45.7575 25.5217 45.7575 24.5317V15.535C45.7575 14.5 45.2625 14.2767 44.4058 14.2767H31.9008C31.0008 14.2767 30.5508 14.5017 30.5508 15.535V24.5334C30.5508 25.5234 31.0008 25.8384 31.9008 25.8384H44.4058V25.8367Z" fill="white"/>
</g>
<defs>
<clipPath id="clip0_19_15866">
<rect width="60" height="60" fill="white" transform="translate(0.420898)"/>
</clipPath>
</defs>
</svg>
