<svg width="60" height="60" viewBox="0 0 60 60" fill="none" xmlns="http://www.w3.org/2000/svg">
<g clip-path="url(#clip0_16_13960)">
<path d="M56.6292 9.77539H3.37079C1.50947 9.77539 0 11.2849 0 13.1462V46.854C0 48.7155 1.50947 50.2248 3.37079 50.2248H56.6292C58.4905 50.2248 60 48.7156 60 46.854V13.1462C60 11.2849 58.4906 9.77539 56.6292 9.77539ZM29.5199 45.8915H18.1234H7.97731C6.11599 45.8915 5.67372 44.8242 6.99031 43.5076L16.3652 34.1327C17.0231 33.4748 17.8861 33.1458 18.749 33.1458C19.6118 33.1458 20.4741 33.4748 21.1327 34.1327L23.822 36.8221L30.5076 43.5076C31.8236 44.8241 31.382 45.8915 29.5199 45.8915ZM11.3481 16.1799C14.3266 16.1799 16.7414 18.5947 16.7414 21.5731C16.7414 24.5516 14.3265 26.9664 11.3481 26.9664C8.36968 26.9664 5.95484 24.5516 5.95484 21.5731C5.95484 18.5947 8.36957 16.1799 11.3481 16.1799ZM54.4307 45.8915H33.1031C33.3425 45.2577 33.6223 43.7624 31.9375 42.0778L25.2519 35.392L33.8933 26.7508C35.2099 25.4342 37.3436 25.4342 38.6602 26.7508L55.4177 43.5084C56.7343 44.8241 56.2921 45.8915 54.4307 45.8915Z" fill="black"/>
</g>
<defs>
<clipPath id="clip0_16_13960">
<rect width="60" height="60" fill="white"/>
</clipPath>
</defs>
</svg>
