<svg width="60" height="60" viewBox="0 0 60 60" fill="none" xmlns="http://www.w3.org/2000/svg">
<g clip-path="url(#clip0_16_15383)">
<path d="M30.0003 45.2545C29.3901 45.2545 28.9834 44.746 28.9834 44.2376C28.9834 43.7291 29.3901 43.2207 30.0003 43.2207C30.6105 43.2207 31.0172 43.7292 31.0172 44.2376C31.0172 44.7461 30.6105 45.2545 30.0003 45.2545Z" fill="#E4F2DE"/>
<path d="M12.712 49.3224C12.712 45.2546 17.7968 43.2207 24.9154 43.2207L25.0171 44.2376L26.9492 59.4918H18.8136V58.4749L12.7119 57.458L12.712 49.3224ZM35.0849 43.2207C42.2035 43.2207 47.2882 45.2546 47.2882 49.3224V57.458L41.1866 58.4749V59.4918H33.0509L34.9831 44.2376L35.0849 43.2207Z" fill="#E4F2DE"/>
<path d="M38.1355 27.9664V30.0003C38.1355 30.5088 37.7288 31.0172 37.1186 31.0172C37.1186 33.0512 36.1017 35.085 36.1017 35.085C35.0848 37.1189 33.9661 39.1527 30 39.1527C26.0339 39.1527 24.9152 37.1188 23.8983 35.085C23.8983 35.085 22.8814 33.051 22.8814 31.0172C22.2712 31.0172 21.8645 30.5087 21.8645 30.0003V27.9664C21.8645 27.4579 22.2712 26.9495 22.8814 26.9495V25.9324C22.8814 23.085 25.1187 20.8477 27.9662 20.8477H32.0338C34.8812 20.8477 37.1186 23.0849 37.1186 25.9324V26.9493C37.7288 26.9493 38.1355 27.4579 38.1355 27.9664Z" fill="#FFD0A1"/>
<path d="M34.8813 44.2373H34.983L33.0508 59.4915H26.9491L25.0168 44.2373H25.1186H34.8813Z" fill="#AAB1BA"/>
<path d="M30.0001 0.508789C31.7289 0.508789 33.0509 1.83078 33.0509 3.55963C33.0509 5.28849 31.7289 6.61048 30.0001 6.61048C28.2712 6.61048 26.9492 5.28849 26.9492 3.55963C26.9492 1.83078 28.2712 0.508789 30.0001 0.508789ZM3.55939 18.8139C5.28824 18.8139 6.61024 20.1359 6.61024 21.8647C6.61024 23.5936 5.28824 24.9156 3.55939 24.9156C1.83054 24.9156 0.508545 23.5936 0.508545 21.8647C0.508545 20.1359 1.83054 18.8139 3.55939 18.8139ZM56.4407 18.8139C58.1695 18.8139 59.4915 20.1359 59.4915 21.8647C59.4915 23.5936 58.1695 24.9156 56.4407 24.9156C54.7118 24.9156 53.3898 23.5936 53.3898 21.8647C53.3898 20.1359 54.7119 18.8139 56.4407 18.8139Z" fill="#7EE1E6"/>
<path d="M26.9492 60C26.7458 60 26.4407 59.7966 26.4407 59.5933L24.5085 43.8305C19.7288 43.8305 16.1696 44.8474 14.4407 46.5763C13.6272 47.3899 13.2204 48.3051 13.2204 49.4237V57.5593C13.2204 57.8644 13.017 58.0678 12.7119 58.0678C12.4068 58.0678 12.2034 57.8644 12.2034 57.5593V49.4237C12.2034 48.1017 12.7119 46.8814 13.7288 45.8643C15.7627 43.8304 19.7288 42.8135 24.9153 42.8135C25.2204 42.8135 25.4238 43.0169 25.4238 43.2202L27.4576 59.4915C27.4576 59.6949 27.2543 60 26.9492 60ZM33.0509 60C32.7458 60 32.5424 59.6949 32.5424 59.3898L34.5763 43.1187C34.5763 42.8136 34.8814 42.712 35.1865 42.712C40.3729 42.712 44.339 43.8306 46.373 45.7628C47.3899 46.7797 47.8984 47.8984 47.8984 49.3222V57.4578C47.8984 57.7629 47.695 57.9663 47.3899 57.9663C47.0848 57.9663 46.8814 57.7629 46.8814 57.4578V49.3222C46.8814 48.2035 46.4746 47.2882 45.661 46.4747C43.9322 44.7459 40.3729 43.729 35.5932 43.729L33.6611 59.4915C33.5593 59.7966 33.2542 60 33.0509 60ZM41.1864 60C40.8813 60 40.6779 59.7966 40.6779 59.4915L40.7796 55.4237C40.7796 55.1186 40.983 54.9152 41.2881 54.9152C41.5932 54.9152 41.7966 55.1186 41.7966 55.4237L41.6949 59.4915C41.6949 59.7966 41.4915 60 41.1864 60ZM18.8136 60C18.5085 60 18.3051 59.7966 18.3051 59.4915V55.4237C18.3051 55.1186 18.5085 54.9152 18.8136 54.9152C19.1187 54.9152 19.3221 55.1186 19.3221 55.4237V59.4915C19.3221 59.7966 19.1187 60 18.8136 60ZM30.0001 53.8983C29.695 53.8983 29.4915 53.6949 29.4915 53.3898V45.661C28.8814 45.4576 28.4746 44.8474 28.4746 44.2373C28.4746 43.4237 29.1865 42.7118 30.0001 42.7118C30.8137 42.7118 31.5255 43.4237 31.5255 44.2373C31.5255 44.9491 31.1187 45.4576 30.5086 45.661V53.3898C30.5085 53.6949 30.3051 53.8983 30.0001 53.8983ZM30.0001 43.7287C29.695 43.7287 29.4915 43.9322 29.4915 44.2373C29.4915 44.5423 29.695 44.7458 30.0001 44.7458C30.3051 44.7458 30.5085 44.5423 30.5085 44.2373C30.5085 43.9322 30.3051 43.7287 30.0001 43.7287ZM30.0001 39.661C25.6272 39.661 24.4069 37.1187 23.4916 35.2882C23.4916 35.1865 22.5764 33.356 22.4747 31.4237C21.8646 31.2203 21.4578 30.6101 21.4578 29.9999V27.966C21.4578 27.2542 21.8646 26.7457 22.4747 26.5422V25.9321C22.4747 22.8812 25.0171 20.3389 28.0679 20.3389H32.1357C35.1865 20.3389 37.7288 22.8812 37.7288 25.9321V26.5422C38.339 26.7457 38.7457 27.3558 38.7457 27.966V29.9999C38.7457 30.7118 38.339 31.2203 37.7288 31.4237C37.6272 33.3559 36.7119 35.1864 36.7119 35.2882C35.5932 37.1187 34.3729 39.661 30.0001 39.661ZM27.9661 21.3559C25.4238 21.3559 23.3899 23.3899 23.3899 25.9322V26.9491C23.3899 27.2542 23.1864 27.4576 22.8813 27.4576C22.5763 27.4576 22.3728 27.661 22.3728 27.9661V30.0001C22.3728 30.3051 22.5763 30.5086 22.8813 30.5086C23.1864 30.5086 23.3899 30.712 23.3899 31.0171C23.3899 32.9493 24.3051 34.8815 24.3051 34.8815C25.4238 37.1188 26.4407 38.6442 30.0001 38.6442C33.4576 38.6442 34.5763 37.1188 35.695 34.8815C35.695 34.8815 36.6103 32.9494 36.6103 31.0171C36.6103 30.712 36.8137 30.5086 37.1188 30.5086C37.4239 30.5086 37.6273 30.3051 37.6273 30.0001V27.9661C37.6273 27.661 37.4239 27.4576 37.1188 27.4576C36.8137 27.4576 36.6103 27.2542 36.6103 26.9491V25.9322C36.6103 23.3899 34.5763 21.3559 32.034 21.3559H27.9661ZM33.0509 29.4915H32.0339C31.7288 29.4915 31.5254 29.2881 31.5254 28.983C31.5254 28.6779 31.7288 28.4745 32.0339 28.4745H33.0508C33.3559 28.4745 33.5593 28.6779 33.5593 28.983C33.5593 29.2881 33.356 29.4915 33.0509 29.4915ZM27.9661 29.4915H26.9492C26.6441 29.4915 26.4407 29.2881 26.4407 28.983C26.4407 28.6779 26.6441 28.4745 26.9492 28.4745H27.9661C28.2712 28.4745 28.4746 28.6779 28.4746 28.983C28.4746 29.2881 28.2712 29.4915 27.9661 29.4915ZM43.2204 27.4576C43.0169 27.4576 42.8136 27.356 42.7118 27.1525C42.7118 27.0509 42.7118 27.0509 42.7118 26.9491C42.7118 26.7457 42.8135 26.5424 43.0169 26.4406L52.9831 22.5761C52.9831 22.3727 52.8814 22.0676 52.8814 21.8643C52.8814 19.9322 54.5085 18.305 56.4408 18.305C58.373 18.305 60.0001 19.932 60.0001 21.8643C60.0001 23.7966 58.373 25.4237 56.4408 25.4237C55.1188 25.4237 53.8984 24.6101 53.2883 23.4915L43.4239 27.356C43.322 27.4576 43.322 27.4576 43.2204 27.4576ZM54 22.7797C54.305 23.7966 55.322 24.4068 56.4406 24.4068C57.8644 24.4068 58.983 23.2881 58.983 21.8644C58.983 20.4407 57.8643 19.3221 56.4406 19.3221C55.017 19.3221 53.8983 20.4408 53.8983 21.8644C53.8983 22.1695 53.8983 22.4746 54 22.7797ZM16.7797 27.4576C16.678 27.4576 16.678 27.4576 16.5762 27.4576L6.71186 23.5933C6.10169 24.712 4.88135 25.5254 3.55936 25.5254C1.62708 25.5254 0 23.8983 0 21.9661C0 20.0339 1.62708 18.4067 3.55936 18.4067C5.49164 18.4067 7.11872 20.0338 7.11872 21.9661C7.11872 22.1695 7.11872 22.4746 7.01706 22.6779L16.9832 26.5424C17.1866 26.644 17.2883 26.8474 17.2883 27.0509C17.2883 27.1525 17.2883 27.1525 17.2883 27.2543C17.1865 27.356 16.9831 27.4576 16.7797 27.4576ZM3.55936 19.322C2.13559 19.322 1.01703 20.4407 1.01703 21.8643C1.01703 23.2881 2.13571 24.4066 3.55936 24.4066C4.67804 24.4066 5.5933 23.6948 6.00004 22.7796C6.10169 22.4745 6.10169 22.2711 6.10169 21.966C6.10169 20.4407 4.98313 19.322 3.55936 19.322ZM30.0001 17.2882C29.695 17.2882 29.4915 17.0847 29.4915 16.7797V7.1186C27.7627 6.91517 26.4407 5.38975 26.4407 3.55924C26.4407 1.6272 28.0678 0 30.0001 0C31.9323 0 33.5593 1.6272 33.5593 3.55936C33.5593 5.38987 32.2373 6.81363 30.5085 7.11872V16.7797C30.5085 17.0847 30.3051 17.2882 30.0001 17.2882ZM30.0001 1.01691C28.5763 1.01691 27.4577 2.13559 27.4577 3.55924C27.4577 4.98289 28.5763 6.10169 30.0001 6.10169C31.4238 6.10169 32.5424 4.98301 32.5424 3.55936C32.5424 2.13571 31.4237 1.01691 30.0001 1.01691Z" fill="#51565F"/>
</g>
<defs>
<clipPath id="clip0_16_15383">
<rect width="60" height="60" fill="white"/>
</clipPath>
</defs>
</svg>
