<svg width="60" height="60" viewBox="0 0 60 60" fill="none" xmlns="http://www.w3.org/2000/svg">
<g clip-path="url(#clip0_10_90)">
<path d="M0.0039978 6V54H60.004V6H0.0039978ZM3.004 9H57.004V15H3.004V9ZM3.004 18H57.004V51H24.004V45H6.004V51H3.004V18ZM6.004 24V42H24.004V24H6.004ZM30.004 24V27H45.004V24H30.004ZM9.004 27H21.004V39H9.004V27ZM30.004 30V33H51.004V30H30.004ZM30.004 36V39H39.004V36H30.004ZM30.004 45V48H45.004V45H30.004ZM9.004 48H21.004V51H9.004V48Z" fill="#222222"/>
</g>
<defs>
<clipPath id="clip0_10_90">
<rect width="60" height="60" fill="white" transform="translate(0.0039978)"/>
</clipPath>
</defs>
</svg>
