<svg width="612" height="613" viewBox="0 0 612 613" fill="none" xmlns="http://www.w3.org/2000/svg">
<g clip-path="url(#clip0_16_7527)">
<path d="M293.468 379.744C297.924 379.744 301.536 376.132 301.536 371.676C301.536 367.221 297.924 363.608 293.468 363.608C289.012 363.608 285.4 367.221 285.4 371.676C285.4 376.132 289.012 379.744 293.468 379.744Z" fill="black"/>
<path d="M475.754 436.734C478.807 435.132 481.489 433.062 483.997 430.555C490.52 424.033 494.038 415.364 494.038 406.147C494.038 396.929 490.41 388.264 483.888 381.75C483.888 381.75 370.607 267.88 369.112 266.557C385.114 250.239 394.291 228.198 394.597 204.964C406.398 202.397 415.281 191.848 415.281 179.309C415.281 166.766 406.386 156.214 394.581 153.653C394.398 142.667 392.365 132.188 388.525 122.393C396.735 119.896 404.918 117.022 413.056 113.744L408.678 103.606C400.036 107.087 391.889 110.106 382.326 112.67V58.2941C382.325 26.2131 356.815 0.121094 324.733 0.121094H286.562C254.48 0.121094 227.959 26.2131 227.959 58.2941V109.496C219.763 106.373 210.89 102.745 202.504 98.5781L197.747 108.365C206.103 112.518 214.685 116.16 223.347 119.321C218.469 130.362 215.853 142.178 215.66 153.902C204.297 156.836 196.008 167.149 196.008 179.31C196.008 191.472 204.321 201.786 215.685 204.719C215.939 227.971 225.394 250.234 241.892 266.83C238.889 270.833 128.049 381.749 128.049 381.749C114.601 395.198 114.6 417.091 128.049 430.555C134.774 437.279 143.607 440.642 152.446 440.641C161.282 440.64 170.123 437.279 176.855 430.555L210.204 397.208V471.417H237.525V568.408H237.119C215.718 568.408 197.909 585.259 197.909 606.658V612.121H413.748V606.657C413.748 585.258 395.937 568.407 374.538 568.407H374.132V471.416H401.453V396.947L435.061 430.554C436.95 432.443 438.684 434.077 440.896 435.458C433.779 440.551 428.776 448.865 428.776 458.265V470.05H439.705V458.266C439.705 448.824 448.022 441.141 457.464 441.141C466.906 441.141 475.223 448.824 475.223 458.266V612.121H486.152V458.266C486.147 449.621 481.92 441.884 475.754 436.734ZM394.62 165.058C400.301 167.304 404.346 172.849 404.346 179.309C404.346 185.769 400.302 191.313 394.62 193.56V165.058ZM215.665 193.128C210.493 190.654 206.949 185.376 206.949 179.307C206.949 173.239 210.493 167.962 215.665 165.486V193.128ZM237.522 601.192H209.773C212.319 588.425 223.613 579.335 237.118 579.335H237.524V601.192H237.522ZM383.659 154.036C371.263 151.319 361.321 141.957 357.772 129.903C364.509 128.654 371.246 127.146 377.971 125.377C381.615 134.299 383.514 143.916 383.659 154.036ZM238.888 58.2941C238.888 32.2391 260.507 11.0501 286.563 11.0501H324.734C350.789 11.0501 371.398 32.2391 371.398 58.2941V95.1721C327.684 106.319 281.237 105.457 238.889 92.6721L238.888 58.2941ZM238.888 104.061C262.111 110.591 284.948 113.873 308.81 113.873C329.593 113.873 350.905 111.368 371.397 106.398V115.624C327.683 126.864 281.236 126.017 238.888 113.131V104.061ZM233.792 122.846C240.849 125.073 247.988 126.976 255.197 128.559C251.821 142.016 240.554 152.398 226.617 154.462C226.734 143.606 229.137 132.993 233.792 122.846ZM226.593 203.761V165.48C245.841 163.335 261.526 149.162 265.928 130.693C280.198 133.177 294.7 134.424 309.323 134.424C321.795 134.424 334.356 133.507 346.932 131.696C351.459 148.933 365.856 162.237 383.69 165.162V203.762C383.69 226.515 374.011 248.062 357.136 262.877C342.798 275.453 324.473 282.38 305.537 282.38C286.381 282.38 267.933 275.454 253.598 262.878C236.437 247.809 226.593 226.263 226.593 203.761ZM282.104 307.176L293.99 333.327L265.987 324.442L282.104 307.176ZM256.218 304.643L256.409 278.692C261.649 282.118 267.224 284.969 273.033 287.22L281.559 305.976L256.218 304.643ZM286.911 291.341C292.991 292.626 299.228 293.307 305.536 293.307C311.981 293.307 318.361 292.588 324.578 291.221L306.486 334.403L286.911 291.341ZM329.682 307.32L345.662 324.441L318.958 332.913L329.682 307.32ZM330.248 305.968L338.169 287.063C344.139 284.704 349.864 281.704 355.237 278.088L355.432 304.642L330.248 305.968ZM169.127 422.824C159.925 432.015 144.963 432.016 135.777 422.828C126.587 413.628 126.586 398.665 135.774 389.475L148.216 377.033L182.222 409.729L169.127 422.824ZM210.2 338.538V381.751L189.95 402.001L155.944 369.305L214.029 311.22C211.505 319.951 210.2 329.119 210.2 338.538ZM221.129 460.487V338.538C221.129 319.841 226.857 302.273 237.693 287.739C240.207 284.373 242.791 281.329 245.481 278.555L245.213 315.007L259.161 315.742L246.2 329.629L300.082 346.724L311.676 372.229L272.147 460.487H221.129ZM300.361 601.192H248.45V567.846V471.415H300.361V601.192ZM284.121 460.487L306.38 410.789L327.595 460.487H284.121ZM363.2 567.847V601.193H311.29V471.416H363.2V567.847ZM374.535 579.335C388.04 579.335 399.333 588.425 401.88 601.192H374.13V579.335H374.535ZM390.522 460.487H339.305L339.45 460.426L312.463 397.206L323.665 372.196L311.915 346.652L365.453 329.631L352.492 315.744L366.44 315.009L366.174 278.845C368.088 280.79 369.942 282.879 371.831 285.237C384.06 300.406 390.524 318.838 390.524 338.54V460.489H390.522V460.487ZM401.45 381.491V338.538C401.45 329.041 400.036 319.648 397.331 310.676L457.281 370.634L423.281 403.323L401.45 381.491ZM459.454 429.73C453.156 429.73 447.237 427.279 442.785 422.826L431.011 411.052L465.01 378.363L476.124 389.479C480.581 393.931 483.035 399.85 483.035 406.146C483.035 412.444 480.58 418.368 476.121 422.826C471.671 427.278 465.751 429.73 459.454 429.73Z" fill="black"/>
<path d="M270.083 202.617C277.212 202.617 282.991 196.838 282.991 189.709C282.991 182.58 277.212 176.801 270.083 176.801C262.954 176.801 257.175 182.58 257.175 189.709C257.175 196.838 262.954 202.617 270.083 202.617Z" fill="black"/>
<path d="M342.153 202.617C349.282 202.617 355.061 196.838 355.061 189.709C355.061 182.58 349.282 176.801 342.153 176.801C335.024 176.801 329.245 182.58 329.245 189.709C329.245 196.838 335.024 202.617 342.153 202.617Z" fill="black"/>
<path d="M316.136 216.542H296.1V228.255H316.136V216.542Z" fill="black"/>
</g>
<defs>
<clipPath id="clip0_16_7527">
<rect width="612" height="612" fill="white" transform="translate(0 0.121094)"/>
</clipPath>
</defs>
</svg>
