<svg width="60" height="60" viewBox="0 0 60 60" fill="none" xmlns="http://www.w3.org/2000/svg">
<g clip-path="url(#clip0_16_14270)">
<path d="M60 30C60 33.3138 57.3136 36 54 36H42C38.6864 36 36 38.6862 36 42V54C36 57.3138 33.3137 60 30 60C13.4314 60 0 46.5686 0 30C0 13.4314 13.4314 0 30 0C46.5686 0 60 13.4314 60 30Z" fill="#BFA993"/>
<path d="M30 0L29.9999 60H30C33.3136 60 36 57.3138 36 54V42C36 38.6862 38.6864 36 42 36H54C57.3136 36 60 33.3138 60 30C60 13.4314 46.5685 0 30 0Z" fill="#B29A7E"/>
<path d="M14.0625 30.2295C16.5478 30.2295 18.5625 28.2148 18.5625 25.7295C18.5625 23.2442 16.5478 21.2295 14.0625 21.2295C11.5772 21.2295 9.5625 23.2442 9.5625 25.7295C9.5625 28.2148 11.5772 30.2295 14.0625 30.2295Z" fill="#E07188"/>
<path d="M18.333 46.167C20.8183 46.167 22.833 44.1523 22.833 41.667C22.833 39.1817 20.8183 37.167 18.333 37.167C15.8477 37.167 13.833 39.1817 13.833 41.667C13.833 44.1523 15.8477 46.167 18.333 46.167Z" fill="#98C8ED"/>
<path d="M41.667 22.833C44.1523 22.833 46.167 20.8183 46.167 18.333C46.167 15.8477 44.1523 13.833 41.667 13.833C39.1817 13.833 37.167 15.8477 37.167 18.333C37.167 20.8183 39.1817 22.833 41.667 22.833Z" fill="#95D5A7"/>
<path d="M25.7295 18.5625C28.2148 18.5625 30.2295 16.5478 30.2295 14.0625C30.2295 11.5772 28.2148 9.5625 25.7295 9.5625C23.2442 9.5625 21.2295 11.5772 21.2295 14.0625C21.2295 16.5478 23.2442 18.5625 25.7295 18.5625Z" fill="#F8E99B"/>
</g>
<defs>
<clipPath id="clip0_16_14270">
<rect width="60" height="60" fill="white"/>
</clipPath>
</defs>
</svg>
