<svg width="60" height="60" viewBox="0 0 60 60" fill="none" xmlns="http://www.w3.org/2000/svg">
<g clip-path="url(#clip0_16_14312)">
<path d="M25.5077 25.5077C26.0161 24.999 26.6941 24.7192 27.4167 24.7192C28.1392 24.7192 28.8173 24.9993 29.3256 25.5077L34.4924 30.6744C34.6714 30.8531 34.914 30.9538 35.1666 30.9538C35.4193 30.9538 35.6623 30.8533 35.8408 30.6744L41.0075 25.5077C41.1866 25.329 41.287 25.0861 41.287 24.8334C41.287 24.5807 41.1865 24.3378 41.0075 24.1592L35.8408 18.9924C33.5898 16.742 30.5977 15.5029 27.4163 15.5029C24.2348 15.5029 21.2427 16.7421 18.9917 18.9921L3.49084 34.4929C1.2398 36.744 0 39.7364 0 42.9189C0 46.1017 1.2398 49.0931 3.49116 51.3425L8.65761 56.5089C10.9068 58.7599 13.8984 59.9998 17.081 59.9998C20.2635 59.9998 23.2558 58.7599 25.5071 56.5089L34.2423 47.7738C34.5233 47.4927 34.6005 47.067 34.4365 46.7053C34.2811 46.363 33.9403 46.1457 33.5684 46.1457C33.5471 46.1457 33.5261 46.1465 33.5045 46.1479C33.1971 46.1686 32.8855 46.1788 32.5781 46.1788C30.1519 46.1788 27.7658 45.5338 25.6782 44.3134C25.5282 44.2257 25.3622 44.1831 25.1973 44.1831C24.9506 44.1831 24.7064 44.2788 24.5227 44.4624L18.9919 49.9932C18.4826 50.5024 17.8048 50.7832 17.0832 50.7832C16.3613 50.7832 15.6829 50.5028 15.1737 49.9932L10.0069 44.8265C9.49703 44.3178 9.21632 43.641 9.2157 42.9203C9.21539 42.198 9.49609 41.519 10.0069 41.0082L25.5077 25.5077Z" fill="black"/>
<path d="M56.5091 8.65636L51.3423 3.4896C49.0929 1.23949 46.1016 0 42.9191 0C39.7366 0 36.7442 1.23918 34.4933 3.48929L25.7577 12.2282C25.4767 12.5093 25.3995 12.9353 25.5638 13.297C25.7193 13.639 26.06 13.8562 26.4316 13.8562C26.4529 13.8562 26.4746 13.8555 26.4962 13.854C26.8065 13.833 27.1208 13.8225 27.4312 13.8225C29.8621 13.8225 32.2428 14.4672 34.3162 15.687C34.4669 15.7757 34.6338 15.8186 34.7993 15.8186C35.046 15.8186 35.2902 15.7229 35.474 15.5393L41.0085 10.0047C41.5168 9.49609 42.1949 9.21632 42.9174 9.21632C43.64 9.21632 44.318 9.4964 44.8264 10.0047L49.9931 15.1715C51.0448 16.2244 51.0448 17.9384 49.9928 18.992L34.4926 34.4923C33.9842 35.0018 33.3075 35.2822 32.5865 35.2822C31.8639 35.2822 31.1845 35.0015 30.6734 34.4916L25.5078 29.3258C25.3288 29.1471 25.0863 29.0464 24.8335 29.0464C24.5808 29.0464 24.3379 29.1468 24.1593 29.3258L18.9925 34.4926C18.62 34.8651 18.62 35.4688 18.9925 35.8414L24.1593 41.0081C26.4104 43.2592 29.4024 44.499 32.5839 44.499C35.7655 44.499 38.7575 43.2592 41.0086 41.0081L56.5092 25.5074C58.7602 23.2574 60.0002 20.265 60.0002 17.0819C60.0002 13.8988 58.7601 10.9065 56.5091 8.65636Z" fill="black"/>
</g>
<defs>
<clipPath id="clip0_16_14312">
<rect width="60" height="60" fill="white"/>
</clipPath>
</defs>
</svg>
