<svg width="60" height="60" viewBox="0 0 60 60" fill="none" xmlns="http://www.w3.org/2000/svg">
<path d="M43.1343 50.3115C43.1343 57.6174 16.6777 57.6174 16.6777 50.3115C16.6777 43.0058 22.6001 37.0833 29.9059 37.0833C37.2117 37.0833 43.1343 43.0058 43.1343 50.3115Z" fill="#E89C21"/>
<path d="M29.906 37.0833C23.3761 37.0833 17.952 41.8148 16.8732 48.0364C19.149 53.9445 40.6631 53.9445 42.9388 48.0364C41.8602 41.8148 36.4359 37.0833 29.906 37.0833Z" fill="#FFC866"/>
<path d="M16.6922 50.3116C16.6922 52.3101 18.6727 53.7612 21.5488 54.6662V40.072C18.5851 42.4978 16.6922 46.183 16.6922 50.3116Z" fill="#ED9572"/>
<path d="M43.1115 50.3116C43.1115 46.5849 41.5696 43.2192 39.0899 40.8149V54.3788C41.5075 53.4659 43.1115 52.1104 43.1115 50.3116Z" fill="#ED9572"/>
<path d="M16.8878 48.0365C17.4525 49.5027 19.2027 50.6046 21.5489 51.343V40.0715C19.1423 42.0416 17.4417 44.8419 16.8878 48.0365Z" fill="#FFBF94"/>
<path d="M42.9161 48.0365C42.4287 45.2252 41.0531 42.719 39.09 40.8154V51.0548C41.0122 50.3286 42.4205 49.3229 42.9161 48.0365Z" fill="#FFBF94"/>
<path d="M36.9006 45.7178C36.9006 48.9538 34.2772 51.5771 31.0412 51.5771H28.9318C25.6958 51.5771 23.0725 48.9538 23.0725 45.7178V39.3896C23.0725 36.1536 25.6958 33.5303 28.9318 33.5303H31.0412C34.2772 33.5303 36.9006 36.1536 36.9006 39.3896V45.7178Z" fill="white"/>
<path d="M31.0412 35.874C32.9797 35.874 34.5568 37.4511 34.5568 39.3896V45.7178C34.5568 47.6563 32.9797 49.2334 31.0412 49.2334H28.9318C26.9933 49.2334 25.4162 47.6563 25.4162 45.7178V39.3896C25.4162 37.4511 26.9933 35.874 28.9318 35.874H31.0412ZM31.0412 34.7021H28.9318C26.3472 34.7021 24.2443 36.8048 24.2443 39.3896V45.7178C24.2443 48.3026 26.3472 50.4053 28.9318 50.4053H31.0412C33.6259 50.4053 35.7287 48.3026 35.7287 45.7178V39.3896C35.7287 36.8048 33.6258 34.7021 31.0412 34.7021Z" fill="#B2AF79"/>
<path d="M30 33.7329C27.6632 33.7329 25.6845 35.263 25.0088 37.3756C25.6845 39.4881 27.663 41.0181 30 41.0181C32.337 41.0181 34.3157 39.4881 34.9914 37.3756C34.3157 35.263 32.3368 33.7329 30 33.7329Z" fill="#E5E5E5"/>
<path d="M13.6794 29.2596C16.0441 29.2596 17.9611 27.3427 17.9611 24.978C17.9611 22.6133 16.0441 20.6963 13.6794 20.6963C11.3147 20.6963 9.39774 22.6133 9.39774 24.978C9.39774 27.3427 11.3147 29.2596 13.6794 29.2596Z" fill="#FFBF94"/>
<path d="M13.6793 27.598C11.599 27.598 9.8659 26.1142 9.47895 24.1472C9.4261 24.416 9.39774 24.6937 9.39774 24.9781C9.39774 27.3427 11.3147 29.2596 13.6793 29.2596C16.0441 29.2596 17.961 27.3427 17.961 24.9781C17.961 24.6937 17.9326 24.416 17.8798 24.1472C17.4929 26.1142 15.7597 27.598 13.6793 27.598Z" fill="#ED9572"/>
<path d="M46.3206 29.2596C48.6853 29.2596 50.6023 27.3427 50.6023 24.978C50.6023 22.6133 48.6853 20.6963 46.3206 20.6963C43.9559 20.6963 42.0389 22.6133 42.0389 24.978C42.0389 27.3427 43.9559 29.2596 46.3206 29.2596Z" fill="#FFBF94"/>
<path d="M46.3207 27.598C44.2403 27.598 42.5072 26.1142 42.1202 24.1472C42.0674 24.416 42.039 24.6937 42.039 24.9781C42.039 27.3427 43.956 29.2596 46.3207 29.2596C48.6854 29.2596 50.6023 27.3427 50.6023 24.9781C50.6023 24.6937 50.5739 24.416 50.5211 24.1472C50.1342 26.1142 48.4009 27.598 46.3207 27.598Z" fill="#ED9572"/>
<path d="M44.9812 18.5875C44.6464 10.5923 38.4456 4.21262 29.9851 4.2091C29.9839 4.2091 29.9828 4.20898 29.9817 4.20898C29.9807 4.20898 29.9794 4.20898 29.9781 4.20898C21.518 4.2125 15.3171 10.5924 14.9822 18.5875H14.9675V27.7898H14.9822C15.3168 35.7848 22.0286 39.6098 29.9781 39.6121C29.9795 39.6121 29.9805 39.6121 29.9817 39.6121C29.9829 39.6121 29.9841 39.6121 29.9851 39.6121C37.9346 39.6098 44.6463 35.7848 44.9812 27.7898H44.9957V18.5875H44.9812Z" fill="#FFBF94"/>
<path d="M20.3959 32.5829C22.3723 32.5829 23.9746 30.9807 23.9746 29.0042C23.9746 27.0278 22.3723 25.4255 20.3959 25.4255C18.4195 25.4255 16.8172 27.0278 16.8172 29.0042C16.8172 30.9807 18.4195 32.5829 20.3959 32.5829Z" fill="#F97A7A"/>
<path d="M39.5674 32.5829C41.5439 32.5829 43.1461 30.9807 43.1461 29.0042C43.1461 27.0278 41.5439 25.4255 39.5674 25.4255C37.591 25.4255 35.9888 27.0278 35.9888 29.0042C35.9888 30.9807 37.591 32.5829 39.5674 32.5829Z" fill="#F97A7A"/>
<path d="M24.4095 24.7864C25.5388 24.7864 26.4544 23.8708 26.4544 22.7415C26.4544 21.6121 25.5388 20.6965 24.4095 20.6965C23.2801 20.6965 22.3645 21.6121 22.3645 22.7415C22.3645 23.8708 23.2801 24.7864 24.4095 24.7864Z" fill="#493E2F"/>
<path d="M35.554 24.7864C36.6834 24.7864 37.5989 23.8708 37.5989 22.7415C37.5989 21.6121 36.6834 20.6965 35.554 20.6965C34.4246 20.6965 33.5091 21.6121 33.5091 22.7415C33.5091 23.8708 34.4246 24.7864 35.554 24.7864Z" fill="#493E2F"/>
<path d="M29.9817 33.2959C31.9557 33.2959 33.5559 31.6957 33.5559 29.7217C33.5559 27.7477 31.9557 26.1475 29.9817 26.1475C28.0077 26.1475 26.4075 27.7477 26.4075 29.7217C26.4075 31.6957 28.0077 33.2959 29.9817 33.2959Z" fill="#19929B"/>
<path d="M29.9817 32.124C31.3085 32.124 32.3841 31.0485 32.3841 29.7217C32.3841 28.3949 31.3085 27.3193 29.9817 27.3193C28.6549 27.3193 27.5794 28.3949 27.5794 29.7217C27.5794 31.0485 28.6549 32.124 29.9817 32.124Z" fill="white"/>
<path d="M29.9817 30.9521C28.8574 30.9521 27.9163 30.1787 27.6543 29.1357C27.6072 29.3237 27.5794 29.5192 27.5794 29.7217C27.5794 31.0485 28.6549 32.124 29.9817 32.124C31.3085 32.124 32.3841 31.0485 32.3841 29.7217C32.3841 29.5192 32.3562 29.3237 32.3089 29.1357C32.0472 30.1787 31.106 30.9521 29.9817 30.9521Z" fill="#E5E5E5"/>
</svg>
