<svg width="60" height="61" viewBox="0 0 60 61" fill="none" xmlns="http://www.w3.org/2000/svg">
<g clip-path="url(#clip0_16_7313)">
<path d="M30 60.915C46.5685 60.915 60 47.4836 60 30.915C60 14.3465 46.5685 0.915039 30 0.915039C13.4315 0.915039 0 14.3465 0 30.915C0 47.4836 13.4315 60.915 30 60.915Z" fill="#FFD05B"/>
<path d="M12.6191 34.5343C13.4762 34.5343 13.7619 33.9152 13.9048 33.0581C14.1429 31.5343 14.4762 30.0105 14.8096 28.5343C14.9048 28.1057 15.2857 27.7724 15.8096 27.0581C16 27.82 16.1429 28.1057 16.1429 28.4391C16.1905 29.0105 16.1429 29.6295 16.1429 30.201C16.1429 35.1533 16.1429 46.0581 16.1429 48.9152C16.1429 49.2962 16.4762 49.6295 16.8572 49.6295H17.7619C18.1429 49.6295 18.4762 49.2962 18.4762 48.9152C18.4762 46.0105 18.4762 41.82 18.4762 39.1057C18.4762 37.82 19.1905 37.2486 20.4286 37.5343C21.4286 37.7248 21.5715 38.4867 21.5715 39.2962C21.5715 41.9152 21.5715 46.0581 21.5715 48.9152C21.5715 49.2962 21.9048 49.6295 22.2857 49.6295H23.1905C23.5715 49.6295 23.9048 49.2962 23.9048 48.9152C23.9048 43.4391 23.9048 36.1533 23.9048 30.6771C23.9048 30.1533 24.0476 29.6295 24.0953 29.0581C24.2857 29.0105 24.2857 29.0105 24.4286 28.9629C24.7143 29.3438 25.0953 29.7248 25.3334 30.1057C26.1429 31.2962 26.8572 32.4867 27.6667 33.6771C28.0476 34.201 28.4762 34.4867 28.8572 34.5343V30.6295C27.0953 27.9152 25.4762 25.3438 23.7619 22.9152C23.381 22.3438 22.4762 21.9152 21.7619 21.82C20.381 21.6295 18.9048 21.7248 17.5238 21.7724C16.9524 21.82 16.2857 21.9629 15.9048 22.2962C12.6667 25.1057 11.2381 28.7724 11.1429 32.9629C11.2381 33.8676 11.7143 34.5343 12.6191 34.5343Z" fill="#F1543F"/>
<path d="M30.3333 33.6767C31.0476 32.6767 31.6667 31.6291 32.3809 30.5815C32.8095 29.9624 33.2381 29.391 33.9047 28.4863C34.3333 30.1529 34.0476 31.3434 33.5238 32.5339C32.619 34.4863 31.7143 36.4386 30.7619 38.3434C30.2857 39.3434 30.619 39.8196 31.7143 39.772C32.4762 39.772 33.2381 39.772 34.0476 39.772C34.0952 40.2005 34.1905 40.4863 34.1905 40.7243C34.1905 42.8672 34.1905 46.4863 34.1905 48.9148C34.1905 49.2958 34.5238 49.6291 34.9048 49.6291H35.8095C36.1905 49.6291 36.5238 49.2958 36.5238 48.9148C36.5238 46.9624 36.5238 43.9148 36.5238 42.2958C36.5238 39.5815 36.5238 39.5815 39.2381 39.8672C39.3333 39.8672 39.3809 39.9624 39.619 40.1053C39.619 40.4863 39.619 41.0101 39.619 41.4863C39.619 43.391 39.5714 46.772 39.619 48.9624C39.619 49.3434 39.9524 49.6767 40.3333 49.6767H41.2381C41.619 49.6767 41.9524 49.3434 41.9524 48.9624C41.9524 46.9624 41.9524 43.8672 41.9524 42.2005C41.9524 41.4386 41.9524 40.6767 41.9524 39.8672C42.8095 39.8672 43.3809 39.8672 44 39.8672C45.7619 39.8672 45.9524 39.5339 45.1905 37.9148C44.2857 35.9148 43.2857 33.9624 42.4762 31.9148C42.1428 31.1053 42.0952 30.1529 41.9524 29.2482C42.2381 29.1053 42.1905 29.1529 42.4286 29.0101C42.7143 29.4386 43 29.8672 43.3333 30.2482C44.3333 31.4386 45.2857 32.6767 46.3809 33.7244C47.0476 34.3434 48 34.2482 48.5238 33.391C49.0476 32.5339 48.5714 31.9624 47.8571 31.4386C47.2381 31.0101 46.6667 30.4386 46.2857 29.772C44.9524 27.5339 43.7143 25.2482 42.4762 22.9624C42.0476 22.1529 41.4762 21.7244 40.5238 21.7244C39.0476 21.772 37.5714 21.6291 36.1428 21.772C35.4762 21.8196 34.6667 22.2482 34.2857 22.8196C32.7619 24.9624 31.3809 27.2482 29.9047 29.4386C29.6667 29.8196 29.3809 30.1529 29.0476 30.5815V34.4863C29.4762 34.5815 29.9048 34.2958 30.3333 33.6767Z" fill="#324A5E"/>
<path d="M24.3333 16.439C24.3333 18.82 22.4762 20.7247 20.0952 20.7724C17.7619 20.82 15.8571 18.8676 15.8095 16.4867C15.7619 14.1057 17.6667 12.2009 20.0476 12.1533C22.381 12.1533 24.3333 14.1057 24.3333 16.439Z" fill="#FF7058"/>
<path d="M42.2857 16.5339C42.2381 18.9148 40.3333 20.8196 38 20.772C35.6667 20.7244 33.7619 18.8196 33.8095 16.4387C33.8095 14.1053 35.8095 12.1529 38.1429 12.2006C40.4762 12.2006 42.2857 14.1529 42.2857 16.5339Z" fill="#324A5E"/>
<path d="M20.3333 24.9625C20.8571 24.3435 21.5714 24.2006 22.0952 24.3911C23.3809 24.8673 23.6666 26.6768 22.5714 27.8196C20.3333 30.153 20.3333 30.153 20.3333 30.153C20.3333 30.153 20.3333 30.153 18.0952 27.8196C17 26.6768 17.2857 24.8673 18.5714 24.3911C19.0952 24.2006 19.8095 24.3435 20.3333 24.9625Z" fill="white"/>
<path d="M38.5238 24.9625C39.0476 24.3435 39.7619 24.2006 40.2857 24.3911C41.5714 24.8673 41.8571 26.6768 40.7619 27.8196C38.5238 30.153 38.5238 30.153 38.5238 30.153C38.5238 30.153 38.5238 30.153 36.2857 27.8196C35.1905 26.6768 35.4762 24.8673 36.7619 24.3911C37.2857 24.2006 38 24.3435 38.5238 24.9625Z" fill="white"/>
</g>
<defs>
<clipPath id="clip0_16_7313">
<rect width="60" height="60" fill="white" transform="translate(0 0.915039)"/>
</clipPath>
</defs>
</svg>
