<svg width="60" height="61" viewBox="0 0 60 61" fill="none" xmlns="http://www.w3.org/2000/svg">
<path d="M1.87549 30.53C1.87549 34.2235 2.60296 37.8807 4.01638 41.293C5.42979 44.7053 7.50146 47.8058 10.1131 50.4174C12.7248 53.0291 15.8252 55.1007 19.2375 56.5141C22.6498 57.9276 26.3071 58.655 30.0005 58.655C33.6939 58.655 37.3512 57.9276 40.7635 56.5141C44.1757 55.1007 47.2762 53.0291 49.8879 50.4174C52.4995 47.8058 54.5712 44.7053 55.9846 41.293C57.398 37.8807 58.1255 34.2235 58.1255 30.53C58.1255 26.8366 57.398 23.1793 55.9846 19.7671C54.5712 16.3548 52.4995 13.2543 49.8879 10.6427C47.2762 8.031 44.1757 5.95933 40.7635 4.54592C37.3512 3.1325 33.6939 2.40503 30.0005 2.40503C26.3071 2.40503 22.6498 3.1325 19.2375 4.54592C15.8252 5.95933 12.7248 8.031 10.1131 10.6427C7.50146 13.2543 5.42979 16.3548 4.01638 19.7671C2.60296 23.1793 1.87549 26.8366 1.87549 30.53Z" fill="#E5F1FF"/>
<path d="M30.0005 11.03C24.3755 17.03 14.6255 24.905 14.6255 33.53C14.6255 42.155 21.3755 48.905 30.0005 48.905C38.6255 48.905 45.3755 42.155 45.3755 33.53C45.3755 24.905 36.0005 17.03 30.0005 11.03Z" fill="#9FC8FE"/>
<path d="M30.0005 40.655C26.6255 40.655 24.0005 38.03 24.0005 34.28C24.0005 30.905 27.7505 28.28 30.0005 25.655C32.2505 28.28 36.0005 30.905 36.0005 34.28C36.0005 37.655 33.3755 40.655 30.0005 40.655Z" fill="#72AEFD"/>
</svg>
