<svg width="60" height="60" viewBox="0 0 60 60" fill="none" xmlns="http://www.w3.org/2000/svg">
<path d="M40.004 30C45.9382 32.9566 50.004 39.1266 50.004 47.5V57.5H10.004V47.5C10.004 39.1143 14.0817 32.9386 20.004 30M45.004 17.5C45.004 25.7843 38.2883 32.5 30.004 32.5C21.7197 32.5 15.004 25.7843 15.004 17.5M45.004 17.5C45.004 9.21573 38.2883 2.5 30.004 2.5C21.7197 2.5 15.004 9.21573 15.004 17.5M45.004 17.5C41.254 17.5 37.504 18.4 32.504 12.5C27.504 18.4 21.254 20 15.004 17.5M17.504 32.5L30.0663 45.643L42.504 32.5M30.004 45V57.5" stroke="black" stroke-width="5"/>
</svg>
