<svg width="60" height="60" viewBox="0 0 60 60" fill="none" xmlns="http://www.w3.org/2000/svg">
<g clip-path="url(#clip0_19_19108)">
<path d="M30.0005 30.3392C23.7 30.3392 18.3688 12.3101 16.2363 0.872314V41.5831C16.2363 44.6849 18.7565 47.2051 21.8583 47.2051H38.0457C41.1475 47.2051 43.6677 44.6849 43.6677 41.5831V0.872314C41.6321 12.3101 36.301 30.3392 30.0005 30.3392Z" fill="#491E3C"/>
<path d="M30.0005 28.5945C23.7 28.5945 18.3688 11.5347 16.2363 0.0969305V24.3296C18.3688 35.7674 23.7969 39.1599 30.0005 39.1599C36.3009 39.1599 41.6321 35.7674 43.7646 24.3296V0C41.6321 11.5347 36.3009 28.5945 30.0005 28.5945Z" fill="#FF6700"/>
<path d="M30.0005 28.5945C23.7 28.5945 18.3688 11.5347 16.2363 0.0969305V24.3296C18.3688 35.7674 23.7969 39.1599 30.0005 39.1599C36.3009 39.1599 41.6321 35.7674 43.7646 24.3296V0C41.6321 11.5347 36.3009 28.5945 30.0005 28.5945Z" fill="#CE391B"/>
<path d="M30.0005 34.992C23.7 34.992 18.3688 17.9322 16.2363 6.49438V23.0695C18.3688 34.5073 23.7969 37.8999 30.0005 37.8999C36.3009 37.8999 41.6321 34.5073 43.7646 23.0695V6.49438C41.6321 17.9322 36.3009 34.992 30.0005 34.992Z" fill="#AA2A07"/>
<path d="M30.0005 28.5945C23.7 28.5945 18.3688 11.5347 16.2363 0.0969305V3.78029C18.3688 15.2181 23.7969 32.2779 30.0005 32.2779C36.3009 32.2779 41.6321 15.2181 43.7646 3.78029V0C41.6321 11.5347 36.3009 28.5945 30.0005 28.5945Z" fill="#D85039"/>
<path d="M30.0005 28.5945C23.7 28.5945 18.3688 11.5347 16.2363 0.0969305V1.64782C18.3688 13.0856 23.7969 30.1454 30.0005 30.1454C36.3009 30.1454 41.6321 13.0856 43.7646 1.64782V0C41.6321 11.5347 36.3009 28.5945 30.0005 28.5945Z" fill="#E07055"/>
<path d="M49.3867 45.1695C49.3867 47.0112 49.2898 48.4652 47.4481 48.4652H12.65C10.8084 48.4652 10.7114 47.0112 10.7114 45.1695C10.7114 43.3278 12.1654 40.4199 14.0071 40.4199H45.9941C47.8358 40.4199 49.3867 43.3278 49.3867 45.1695Z" fill="#1E0313"/>
<path d="M14.0071 41.0015H45.9941C47.8358 41.0015 49.2898 43.8125 49.2898 45.6542C49.2898 45.4603 49.2898 45.2665 49.2898 45.0726C49.2898 43.2309 47.8358 40.323 45.9941 40.323H14.0071C12.1654 40.323 10.7114 43.2309 10.7114 45.0726C10.7114 45.2665 10.7114 45.4603 10.7114 45.6542C10.7114 43.9094 12.1654 41.0015 14.0071 41.0015Z" fill="#350D27"/>
<path d="M13.4254 41.874C10.2267 42.1648 9.35429 35.6704 8.67578 31.5994V46.4297C8.67578 47.5929 9.54816 48.4653 10.7113 48.4653H13.4254V41.874Z" fill="#1E0313"/>
<path d="M46.5757 41.874C49.7744 42.1648 50.6468 35.6704 51.3253 31.5994V46.4297C51.3253 47.5929 50.4529 48.4653 49.2897 48.4653H46.5757V41.874Z" fill="#1E0313"/>
<path d="M30.0004 34.895C26.1232 34.895 22.8275 35.0889 20.8889 35.2827C21.1797 35.6705 21.5674 35.9613 21.9552 36.349C23.9907 36.5428 26.8017 38.5784 30.0973 38.5784C33.296 38.5784 36.2039 36.4459 38.2395 36.349C38.6272 36.0582 38.918 35.6705 39.3057 35.2827C37.1732 35.0889 33.8776 34.895 30.0004 34.895Z" fill="#7A1805"/>
<path d="M30.0005 37.9C23.7 37.9 18.3688 34.5074 16.2363 23.0696V24.3297C18.3688 35.7675 23.7969 39.5478 30.0005 39.5478C36.3009 39.5478 41.6321 35.8644 43.7646 24.3297V23.0696C41.6321 34.5074 36.3009 37.9 30.0005 37.9Z" fill="#602551"/>
<path d="M30.0004 36.0582C32.9447 36.0582 35.3315 35.8846 35.3315 35.6704C35.3315 35.4563 32.9447 35.2827 30.0004 35.2827C27.056 35.2827 24.6692 35.4563 24.6692 35.6704C24.6692 35.8846 27.056 36.0582 30.0004 36.0582Z" fill="#932106"/>
<path d="M30.0975 32.084V31.5994C30.0975 31.6963 30.0975 31.7932 30.0975 31.7932C30.0975 31.6963 30.0975 31.5994 30.0975 31.5994V32.084C29.3221 36.1551 28.3527 42.2617 25.3479 41.874V48.4653H28.062C29.0313 48.4653 29.9036 47.7868 30.0975 46.8175C30.2914 47.7868 31.0668 48.4653 32.133 48.4653H34.8471V41.874C31.7453 42.1648 30.776 36.1551 30.0975 32.084Z" fill="#1E0313"/>
<path d="M8.67578 31.5994V33.3441C9.45123 37.4152 10.3236 43.9095 13.4254 43.6188V41.874C10.3236 42.2617 9.45123 35.6704 8.67578 31.5994Z" fill="#602551"/>
<path d="M46.5757 41.874V43.6188C49.7744 43.9095 50.6468 37.4152 51.3253 33.3441V31.5994C50.5498 35.6704 49.6775 42.2617 46.5757 41.874Z" fill="#602551"/>
<path d="M30.0975 32.084V31.5994C30.0975 31.6963 30.0975 31.7932 30.0975 31.7932C30.0975 31.6963 30.0975 31.5994 30.0975 31.5994V32.084C29.3221 36.1551 28.3527 42.2617 25.3479 41.874V43.6188C28.3527 43.9095 29.3221 37.8999 30.0006 33.8288V33.3441C30.0006 33.441 30.0006 33.538 30.0006 33.538C30.0006 33.441 30.0006 33.3441 30.0006 33.3441V33.8288C30.776 37.8999 31.6484 43.9095 34.6532 43.6188V41.874C31.7453 42.1648 30.776 36.1551 30.0975 32.084Z" fill="#491E3C"/>
<path d="M48.5141 48.8531C48.5141 49.1439 48.2233 49.4347 47.9325 49.4347H12.1652C11.8744 49.4347 11.5836 49.1439 11.5836 48.8531C11.5836 48.5623 9.93575 48.2715 10.3235 48.2715H49.7742C50.065 48.2715 48.5141 48.5623 48.5141 48.8531Z" fill="#1E0313"/>
<path d="M21.7612 59.3215C21.7612 59.5154 21.7612 59.8062 21.7612 60H38.2393C38.2393 59.8062 38.2393 59.5154 38.2393 59.3215C38.2393 53.7965 41.8258 49.4346 44.1521 49.4346V48.853C44.1521 46.9144 42.6012 45.3635 40.6626 45.3635H19.241C17.3024 45.3635 15.7515 46.9144 15.7515 48.853V49.4346C18.1747 49.4346 21.7612 53.8934 21.7612 59.3215Z" fill="#1E0313"/>
<path opacity="0.2" d="M43.2799 18.4169C43.2799 22.0033 37.2702 28.013 30.0004 28.013C22.7306 28.013 16.7209 22.0033 16.7209 18.4169C16.7209 14.8304 22.7306 9.59619 30.0004 9.59619C37.2702 9.59619 43.2799 14.8304 43.2799 18.4169Z" fill="#602551"/>
<path d="M43.2799 18.4169C43.2799 22.0033 37.2702 26.4621 30.0004 26.4621C22.7306 26.4621 16.7209 22.0033 16.7209 18.4169C16.7209 14.8304 22.7306 9.59619 30.0004 9.59619C37.2702 9.59619 43.2799 14.8304 43.2799 18.4169Z" fill="#FF9700"/>
<path d="M30.0005 9.59619C37.3672 9.59619 43.28 14.8304 43.28 18.4169Z" fill="#FFBC00"/>
<path d="M16.7209 18.4169C16.7209 14.8304 22.7306 9.59619 30.0004 9.59619Z" fill="#FFBC00"/>
<path d="M43.2799 18.4167C43.2799 22.0032 37.2702 26.462 30.0004 26.462C22.7306 26.462 16.7209 22.0032 16.7209 18.4167" fill="#FF7F00"/>
<path d="M43.28 18.4167C43.28 22.0032 37.2703 26.462 30.0005 26.462Z" fill="#FF6700"/>
<path d="M30.0004 26.462C22.6337 26.462 16.7209 22.0032 16.7209 18.4167Z" fill="#FF6700"/>
<path d="M26.1232 42.7464C26.1232 43.231 25.7355 43.6188 25.2508 43.6188H13.91C13.4253 43.6188 13.0376 43.231 13.0376 42.7464C13.0376 42.2617 13.4253 41.874 13.91 41.874H25.2508C25.7355 41.874 26.1232 42.2617 26.1232 42.7464Z" fill="#491E3C"/>
<path d="M46.9633 42.7464C46.9633 43.231 46.5756 43.6188 46.0909 43.6188H34.7501C34.2654 43.6188 33.8777 43.231 33.8777 42.7464C33.8777 42.2617 34.2654 41.874 34.7501 41.874H46.0909C46.5756 41.874 46.9633 42.2617 46.9633 42.7464Z" fill="#491E3C"/>
<path d="M41.3414 49.5315C41.3414 49.6284 41.2445 49.7254 41.1476 49.7254H18.8535C18.7566 49.7254 18.6597 49.6284 18.6597 49.5315C18.6597 49.4346 18.7566 49.3376 18.8535 49.3376H41.1476C41.2445 49.3376 41.3414 49.4346 41.3414 49.5315Z" fill="#491E3C"/>
<path d="M19.2412 51.8579C19.3381 51.9548 19.4351 52.1487 19.532 52.2456H40.469C40.5659 52.1487 40.6629 51.9548 40.7598 51.8579H19.2412Z" fill="#491E3C"/>
<path d="M20.6951 54.2812C20.792 54.3782 20.792 54.572 20.8889 54.669H39.2088C39.3057 54.572 39.3057 54.3782 39.4027 54.2812H20.6951Z" fill="#491E3C"/>
<path d="M21.4705 56.7043C21.4705 56.8013 21.5674 56.9951 21.5674 57.0921H38.4333C38.4333 56.9951 38.5302 56.8013 38.5302 56.7043H21.4705Z" fill="#491E3C"/>
<path d="M38.2394 59.6123C38.2394 59.5154 38.2394 59.4185 38.2394 59.4185C38.2394 59.3215 38.2394 59.3215 38.2394 59.2246H21.7612C21.7612 59.3215 21.7612 59.3215 21.7612 59.4185C21.7612 59.5154 21.7612 59.6123 21.7612 59.6123H38.2394Z" fill="#491E3C"/>
<path d="M32.2298 18.0291C32.2298 21.6155 30.6789 25.4927 30.0004 25.4927C29.3219 25.4927 27.771 21.6155 27.771 18.0291C27.771 14.4427 29.3219 10.5654 30.0004 10.5654C30.6789 10.5654 32.2298 14.4427 32.2298 18.0291Z" fill="#FFE000"/>
<path d="M27.771 18.4167C27.8679 21.9062 29.3219 25.4927 30.0004 25.4927C30.6789 25.4927 32.1329 21.9062 32.2298 18.4167H27.771Z" fill="#FF9700"/>
<path d="M30.0006 24.5234C30.6965 24.5234 31.2607 21.6157 31.2607 18.029C31.2607 14.4423 30.6965 11.5347 30.0006 11.5347C29.3046 11.5347 28.7405 14.4423 28.7405 18.029C28.7405 21.6157 29.3046 24.5234 30.0006 24.5234Z" fill="#491E3C"/>
<path d="M30.0005 11.5347C30.679 11.5347 31.2606 14.4426 31.2606 18.029C31.2606 21.6154 30.679 24.5234 30.0005 24.5234" fill="#1E0313"/>
<path d="M29.7097 13.0857C29.8703 13.0857 30.0005 12.9555 30.0005 12.7949C30.0005 12.6343 29.8703 12.5042 29.7097 12.5042C29.5491 12.5042 29.4189 12.6343 29.4189 12.7949C29.4189 12.9555 29.5491 13.0857 29.7097 13.0857Z" fill="#997A92"/>
<path d="M29.419 13.8611C29.4725 13.8611 29.5159 13.8177 29.5159 13.7642C29.5159 13.7106 29.4725 13.6672 29.419 13.6672C29.3654 13.6672 29.322 13.7106 29.322 13.7642C29.322 13.8177 29.3654 13.8611 29.419 13.8611Z" fill="#754167"/>
</g>
<defs>
<clipPath id="clip0_19_19108">
<rect width="60" height="60" fill="white" transform="translate(0.000488281)"/>
</clipPath>
</defs>
</svg>
