<svg width="60" height="60" viewBox="0 0 60 60" fill="none" xmlns="http://www.w3.org/2000/svg">
<g clip-path="url(#clip0_15_5571)">
<path d="M1.72684 30.0587H2.70251L3.55584 29.4489L3.06891 28.8396L1.72684 30.0587Z" fill="black"/>
<path d="M11.1219 25.0113L11.7914 25.438H12.0976L12.5236 24.158L10.817 23.853L11.1219 24.158V25.0113Z" fill="black"/>
<path d="M12.4826 28.7362L12.0421 29.3593V30.4374L13.2167 29.7853L14.0501 29.4226L13.9772 28.4077L12.84 28.1323L12.5116 28.8772L12.4826 28.7362Z" fill="black"/>
<path d="M11.0098 27.5096L10.5639 27.4512L10.2517 27.7543L10.6308 27.9206L11.0098 27.5096Z" fill="black"/>
<path d="M11.2147 26.1832L10.832 25.9741L10.6934 26.7479L11.2924 26.6268L11.2147 26.1832Z" fill="black"/>
<path d="M1.76541 28.2462L1.36526 28.0847L1.51954 28.8398L1.89136 28.6741L1.76541 28.2462Z" fill="black"/>
<path d="M2.20835 26.9529L1.57378 26.0586L1.25137 26.2876L1.24535 26.965L1.56233 27.4121L2.20835 26.9529Z" fill="black"/>
<path d="M0.0756306 27.509L0.000301361 27.8369L0.454687 27.9405L0.490845 27.7772L0.301618 27.5609L0.0756306 27.509Z" fill="black"/>
<path d="M13.7325 25.4342L13.3149 25.2739L12.8967 25.4342V26.076L13.4981 26.3165L13.7325 25.4342Z" fill="black"/>
<path d="M8.70775 23.6023H7.7568L7.33797 23.7632V24.4044L7.94602 24.1236L8.70775 23.6023Z" fill="black"/>
<path d="M8.70776 25.7186L9.80696 25.7565L9.84372 24.4368L9.12418 24.9159L8.70776 25.0768V25.7186Z" fill="black"/>
<path d="M11.563 29.4489H11.1147L9.69306 29.0235L10.1577 28.4618L8.35943 28.8391L9.12477 26.7353L8.35943 27.4114L6.94927 25.0129C6.90708 25.0256 6.8655 25.0322 6.82332 25.0461C5.46619 25.5047 4.555 26.6774 4.36216 28.0032L5.35771 28.3726L4.32781 28.7221C4.34408 29.0512 4.40314 29.3832 4.51282 29.7105C5.16246 31.6359 7.25179 32.6706 9.176 32.0204C10.4006 31.607 11.2629 30.6126 11.563 29.4489Z" fill="black"/>
<path d="M28.2156 44.2218L24.3383 43.2474L23.7838 43.812L22.8232 42.8677L18.365 41.7486C18.4035 41.4497 17.9214 39.878 17.8413 39.5581L17.8316 39.5761L15.9592 40.1089L17.3459 38.9289L16.1792 37.6857L17.1115 37.3627L16.046 34.0819C19.2556 32.729 24.0568 30.8645 24.1111 30.8428C24.8457 30.5571 25.2103 29.7303 24.9258 28.9945C24.6396 28.2593 23.817 27.8917 23.0769 28.1803C22.9166 28.2424 20.4675 29.1946 17.9039 30.2293L17.7955 31.1616L16.4233 30.8319C15.7821 31.0953 15.1601 31.3532 14.5955 31.5942C13.9223 31.164 13.0738 31.0043 12.3344 31.0669C12.3344 31.0669 11.9306 31.0808 11.5425 31.2212C11.1719 31.3568 10.7832 31.584 10.7832 31.584L10.7748 31.5888C9.69908 32.2722 8.77283 33.6492 9.25615 35.0829L9.50805 35.8296L10.0552 35.2962L9.86902 36.901L10.9285 40.0371L12.0692 38.9241L11.8517 40.8055L11.1611 40.7254L11.8529 42.7791C12.0717 43.4252 12.5086 43.8916 13.0485 44.1917L15.0945 50.2036L15.4675 50.0113L16.175 51.3787L15.4428 51.2238L16.859 55.385C17.2049 56.4023 18.3101 56.947 19.3298 56.6017C20.3488 56.2546 20.8942 55.1488 20.5471 54.1297L17.6388 45.5832L27.2683 48.0034C27.6449 48.098 28.0252 48.0763 28.3675 47.9594C28.9737 47.7539 29.4655 47.2543 29.633 46.5884C29.8927 45.5428 29.2594 44.4846 28.2156 44.2218Z" fill="black"/>
<path d="M37.545 29.4622C38.2121 29.3308 38.7466 28.7794 38.8244 28.0671C39.0588 25.8916 39.4565 23.2256 39.6964 22.5362C40.0085 22.2023 41.0818 21.4135 42.1997 20.6897C42.9156 23.9204 43.3736 24.467 43.5478 24.6737C44.1962 25.4439 47.1244 27.9014 48.0049 28.636C48.3038 28.8849 48.6672 29.006 49.0276 29.006C49.4844 29.006 49.9399 28.8102 50.2551 28.4311C50.8192 27.7532 50.7282 26.7468 50.0502 26.1821C48.4303 24.8322 46.5098 23.1689 46.0505 22.6814C45.7456 22.0215 45.1382 19.306 44.744 17.0896C44.7229 16.9732 44.5626 16.4333 44.4722 16.2218L42.2985 11.0903C41.3747 11.69 40.1339 12.3842 38.8443 12.7771C38.7792 12.7976 38.7123 12.8127 38.646 12.8235C37.9198 12.9404 37.2081 12.4969 36.9936 11.7906C36.7549 11.0084 37.1985 10.1786 37.9819 9.93991C40.0019 9.32522 42.2889 7.53239 42.8409 6.88757C42.8656 6.81465 43.2224 7.14309 43.2224 7.14309C42.6963 7.79032 40.2538 9.72477 38.1127 10.3768C37.5727 10.5419 37.266 11.1169 37.4299 11.658C37.5932 12.1913 38.1669 12.5071 38.7105 12.3408C39.985 11.9521 41.215 11.2555 42.1178 10.6631L42.1141 10.6546C42.6047 10.328 43.0205 10.017 43.3242 9.7778C45.8499 7.79152 45.6841 7.04004 45.5853 6.59108C45.478 6.10596 45.1605 5.71786 44.7145 5.52622C43.7171 5.09775 42.6179 5.76004 40.6256 6.9623C39.9555 7.36787 39.2661 7.78007 38.6104 8.12779C39.0919 7.2823 39.1908 6.2313 38.7822 5.26589C38.0855 3.6219 36.189 2.85475 34.5451 3.55079C32.9017 4.24743 32.1333 6.14453 32.83 7.78791C33.4489 9.2505 35.0193 10.017 36.5163 9.67777C36.5012 9.70127 36.4855 9.72477 36.4705 9.74827L36.4566 9.72055L26.7343 14.7947L26.621 14.585L25.6641 15.0991L25.7701 15.2967L25.476 15.4504L26.0033 16.4616L30.508 14.1125C30.9684 14.1849 31.6169 14.1764 32.4232 13.8962C32.4599 13.9275 32.4925 13.9607 32.5329 13.9878C32.7143 14.1107 34.3396 15.2015 35.4894 15.598C35.8733 15.7306 36.2523 15.7812 36.6073 15.7812C37.0454 15.7812 37.4455 15.7047 37.7728 15.6113L39.0124 18.5371C39.063 18.6558 39.1239 18.7643 39.189 18.8673C38.2543 19.5314 37.3437 20.2684 36.9785 20.8416C36.5103 21.5798 36.0625 23.8951 35.6485 27.7248C35.5605 28.5571 36.1264 29.3079 36.9351 29.4628H34.2196V32.5815H37.2376V56.6247H59.1645V32.5809H60.0015V29.4622H37.545ZM36.3078 13.2261C35.9829 13.1134 35.5448 12.8868 35.1272 12.6469C35.6708 12.3866 36.0709 12.195 36.2819 12.0937L36.776 13.2604C36.6181 13.2779 36.4524 13.2761 36.3078 13.2261ZM45.7462 42.2778H39.6313V36.3455H45.7456V42.2778H45.7462ZM56.5828 42.2778H50.4685V36.3455H56.5828V42.2778Z" fill="black"/>
<path d="M22.4695 17.6735L19.3418 22.1131L23.3463 18.5123L23.3168 19.7122L24.3093 18.4081L24.6233 23.8529L25.479 18.8426L28.1909 21.3815L25.9051 17.5216L25.9702 18.6142L25.1422 17.8398L24.8704 19.4265L24.733 17.0256L23.8574 18.1742L23.8785 17.3613L22.3092 18.7702L23.3626 17.2751L22.2574 17.1431L23.7067 16.9889L23.4379 16.6128L24.0327 16.5116L23.8405 14.7525L24.607 15.187L22.64 11.115L23.5795 16.0662L20.426 13.2574L22.7991 16.5809L17.7931 17.1148L22.4695 17.6735Z" fill="black"/>
</g>
<defs>
<clipPath id="clip0_15_5571">
<rect width="60" height="60" fill="white"/>
</clipPath>
</defs>
</svg>
