<svg width="60" height="60" viewBox="0 0 60 60" fill="none" xmlns="http://www.w3.org/2000/svg">
<g clip-path="url(#clip0_16_13964)">
<path d="M13.3605 12.068C13.6993 12.068 14.0305 11.9674 14.3122 11.7792C14.5938 11.591 14.8134 11.3236 14.943 11.0106C15.0727 10.6976 15.1066 10.3531 15.0405 10.0209C14.9744 9.6886 14.8113 9.38334 14.5717 9.14379C14.3321 8.90424 14.027 8.7411 13.6947 8.67501C13.3624 8.60892 13.018 8.64282 12.705 8.77246C12.392 8.90211 12.1245 9.12165 11.9363 9.40333C11.7481 9.68502 11.6476 10.0163 11.6476 10.3551C11.6479 10.8093 11.8284 11.2448 12.1496 11.5659C12.4708 11.8871 12.9063 12.0677 13.3605 12.068Z" fill="#1A1A1A"/>
<path d="M59.7418 15.5561C59.6601 15.4743 59.5631 15.4095 59.4563 15.3652C59.3495 15.3209 59.2351 15.2981 59.1195 15.2981C59.0039 15.2981 58.8895 15.3209 58.7827 15.3652C58.676 15.4095 58.579 15.4743 58.4973 15.5561L46.5562 27.496C46.4036 27.2448 46.2416 27.0041 46.0866 26.7564C45.9516 26.5427 45.8177 26.3278 45.6804 26.1176C45.3282 25.5815 44.9678 25.0571 44.5991 24.5445C44.5322 24.4517 44.47 24.3543 44.4031 24.2639C43.9664 23.6663 43.5178 23.0899 43.0599 22.5299C42.9249 22.3655 42.7864 22.2082 42.6502 22.0462C42.426 21.7821 42.2065 21.5108 41.9787 21.2537L46.4318 16.8018C46.597 16.6366 46.6897 16.4125 46.6897 16.1789C46.6897 15.9453 46.597 15.7213 46.4318 15.5561C46.2666 15.3909 46.0425 15.2981 45.8089 15.2981C45.5753 15.2981 45.3513 15.3909 45.1862 15.5561L40.7624 19.9811C38.6022 17.733 36.1279 15.8095 33.4165 14.2706C31.7327 13.3022 29.9277 12.5619 28.0489 12.0692C27.301 10.9739 24.5373 7.57733 17.796 5.35841C15.821 4.60169 13.6686 4.43542 11.6007 4.8796C9.53279 5.32377 7.63852 6.35937 6.14843 7.86039C4.22915 7.63401 2.28438 7.93088 0.520118 8.7197C0.357234 8.79193 0.220115 8.91192 0.12672 9.06366C0.0333254 9.2154 -0.0119488 9.39174 -0.00305089 9.5697C0.00584702 9.74766 0.0684565 9.91874 0.176522 10.0604C0.284587 10.2021 0.433032 10.3078 0.602309 10.3634L4.46491 11.6548C4.6645 11.9565 4.85353 12.2313 5.02377 12.4767C5.56522 13.1433 5.9618 13.9153 6.18834 14.7436C6.63327 17.4194 6.79073 20.1352 6.65798 22.8445C6.65798 28.9107 9.67879 33.9977 15.3916 37.5644C17.0534 38.5827 18.8096 39.4379 20.636 40.118L6.91043 53.8271C6.74995 53.9931 6.6611 54.2155 6.663 54.4464C6.66489 54.6773 6.75735 54.8982 6.92053 55.0615C7.08371 55.2248 7.30455 55.3175 7.53542 55.3196C7.76629 55.3217 7.98875 55.2332 8.1549 55.0728L17.9838 45.2438C19.3234 44.7614 20.7902 44.7673 22.1258 45.2603C22.8555 45.6477 23.4877 46.1959 23.9746 46.8634C24.4615 47.5309 24.7904 48.3002 24.9365 49.1134L20.2215 53.8271C20.1397 53.9089 20.0749 54.0061 20.0306 54.1129C19.9864 54.2198 19.9636 54.3343 19.9636 54.45C19.9636 54.5657 19.9864 54.6802 20.0306 54.7871C20.0749 54.8939 20.1397 54.991 20.2215 55.0728C20.3033 55.1546 20.4004 55.2195 20.5073 55.2637C20.6142 55.308 20.7287 55.3308 20.8444 55.3308C20.96 55.3308 21.0746 55.308 21.1814 55.2637C21.2883 55.2195 21.3854 55.1546 21.4672 55.0728L26.4556 50.0844L34.2418 42.2982C36.7038 42.0283 39.0751 41.2154 41.185 39.9184C42.102 40.0628 43.0353 40.2061 44.0086 40.3493C44.051 40.3553 44.0937 40.3584 44.1365 40.3586C44.3548 40.3606 44.5658 40.2793 44.7261 40.1312C44.8865 39.983 44.9842 39.7793 44.9995 39.5615L46.4083 40.6182L50.2615 43.5087C50.4144 43.6229 50.6001 43.6846 50.791 43.6847H54.1181C54.3517 43.6847 54.5756 43.592 54.7408 43.4268C54.9059 43.2617 54.9987 43.0377 54.9987 42.8041V39.477C54.9988 39.3402 54.967 39.2054 54.9059 39.0831C54.8447 38.9608 54.7559 38.8545 54.6465 38.7726L50.3261 35.5322L49.7332 35.0872C49.7799 35.0528 49.8228 35.0135 49.8611 34.9699C49.9414 34.8483 49.9903 34.7088 50.0035 34.5637C50.0166 34.4186 49.9934 34.2726 49.9362 34.1386C49.1955 32.4139 48.3655 30.7289 47.4497 29.0904L59.7324 16.8088C59.8159 16.7275 59.8824 16.6305 59.9281 16.5233C59.9738 16.4161 59.9979 16.3009 59.9988 16.1844C59.9996 16.0678 59.9773 15.9524 59.9332 15.8446C59.8891 15.7367 59.8241 15.6386 59.7418 15.5561ZM8.89454 9.06495L9.09647 9.02023C9.36259 8.9631 9.64396 8.9072 9.94059 8.85241L10.126 8.8183C10.2857 8.7913 10.4501 8.76557 10.6168 8.74091C10.7002 8.728 10.7847 8.7174 10.8692 8.70566C11.401 8.63287 11.9575 8.58 12.5258 8.55418C12.649 8.5483 12.7723 8.54362 12.898 8.54128C13.0494 8.54128 13.202 8.54128 13.3546 8.54128C13.5073 8.54128 13.6799 8.54954 13.843 8.55776C14.0285 8.56598 14.2117 8.57887 14.396 8.59531C14.5803 8.61174 14.7811 8.63408 14.9713 8.66109C15.0887 8.6787 15.2061 8.69857 15.3235 8.7197C15.5113 8.75375 15.6968 8.79481 15.88 8.83708C15.9727 8.86056 16.0666 8.88061 16.1582 8.90644C16.42 8.98033 16.6775 9.06848 16.9296 9.17057C16.9989 9.19875 17.0646 9.23277 17.1315 9.26329C17.3292 9.35071 17.522 9.44869 17.7092 9.5568C17.7808 9.59789 17.8524 9.63902 17.9228 9.68364C18.1639 9.83339 18.3931 10.0014 18.6085 10.1861C18.8491 10.3974 19.3985 10.9257 19.2893 11.2708C18.9817 12.2559 15.5325 13.2843 12.48 13.6354H7.69464C7.49184 13.0817 7.22049 12.5555 6.88693 12.0692H9.20331C9.37734 12.0688 9.54732 12.0168 9.69187 11.9199C9.83642 11.823 9.94901 11.6855 10.0155 11.5247C10.0821 11.3638 10.0995 11.1869 10.0657 11.0162C10.0319 10.8455 9.94833 10.6886 9.82551 10.5653L8.43665 9.17645L8.52823 9.15294L8.89454 9.06495ZM6.12851 9.67661C6.42243 9.77182 6.69096 9.93226 6.91394 10.1461L7.07474 10.3082H6.01815L3.83448 9.57916C4.59612 9.42995 5.38226 9.46336 6.12851 9.67661ZM8.41666 22.8352C8.48039 20.3512 8.37803 17.8656 8.11026 15.3953H12.5281C12.5611 15.3957 12.594 15.3937 12.6267 15.3894C12.8686 15.3624 13.1926 15.3213 13.5659 15.272C15.2072 15.08 16.8152 14.668 18.3466 14.0474C19.356 13.7075 20.2234 13.0413 20.8121 12.1538C20.8773 12.0425 20.93 11.9243 20.9694 11.8015C21.1819 11.1265 21.1444 10.071 19.7696 8.86646C19.4758 8.60943 19.1617 8.37658 18.8303 8.17024C18.7235 8.10332 18.6084 8.05295 18.4993 7.99425C18.2715 7.86745 18.0438 7.73945 17.8066 7.63496C17.6704 7.57508 17.5272 7.53155 17.3886 7.47989C17.1679 7.39654 16.9484 7.31089 16.7218 7.24514C16.5703 7.20053 16.4153 7.16886 16.2615 7.12777C16.0408 7.07376 15.8201 7.0185 15.5958 6.97858C15.4362 6.9504 15.2754 6.93281 15.1145 6.9105C14.8926 6.87998 14.6719 6.84946 14.4488 6.83068C14.2845 6.81659 14.1225 6.81081 13.9581 6.80259C13.7386 6.79202 13.5202 6.78141 13.3018 6.78023C13.1363 6.78023 12.9731 6.78024 12.8087 6.78611C12.5962 6.78611 12.3861 6.79672 12.1771 6.80846C12.0092 6.81903 11.8472 6.83078 11.6829 6.84487C11.4845 6.8613 11.2896 6.87888 11.0959 6.90119C11.0254 6.90941 10.9502 6.91289 10.881 6.92111C12.9578 6.24698 15.2004 6.2862 17.2524 7.03261C23.0803 8.95097 25.6632 11.8098 26.4568 12.8652C25.3083 14.5064 23.7218 15.7919 21.8781 16.5752L21.6844 16.6503C21.3428 16.7846 20.9935 16.8983 20.6384 16.9908L19.6475 17.2397C15.1216 18.368 9.99104 19.6465 9.99104 24.4999C9.99104 24.6361 9.99104 24.7723 9.99104 24.9085C9.99104 24.9848 9.99109 25.0622 9.99813 25.1432C9.99813 25.2019 9.99809 25.2607 10.0063 25.3194C10.0063 25.4121 10.0169 25.5036 10.0239 25.5964C10.0239 25.641 10.031 25.6856 10.0357 25.7302C10.0439 25.83 10.0533 25.9298 10.065 26.0308C10.065 26.0648 10.0756 26.1 10.0803 26.1353C10.099 26.2855 10.1225 26.4362 10.1507 26.5873C10.1683 26.6812 10.1859 26.7751 10.2059 26.869L10.2411 27.0146C10.2716 27.1403 10.3057 27.267 10.3432 27.3938L10.3609 27.4526C10.8904 29.1866 12.1348 30.9335 14.9772 32.6476V35.1589C12.9456 33.8117 11.2819 31.9795 10.1364 29.8277C8.99097 27.676 8.39988 25.2727 8.41666 22.8352ZM20.0983 43.134L22.471 40.7613C22.9406 40.9104 23.4231 41.0384 23.9021 41.1722C24.0735 41.2204 24.2368 41.2779 24.4105 41.3237L22.2832 43.4499C21.5734 43.2425 20.8378 43.1361 20.0983 43.134ZM26.4216 47.6307C25.9307 46.3009 25.0538 45.1479 23.9033 44.3198L26.4251 41.7992C26.7303 41.865 27.0286 41.9436 27.3362 42.0034C28.0805 42.1478 28.8178 42.2548 29.5481 42.3288C29.7946 42.3534 30.0353 42.3533 30.2807 42.3709C30.7245 42.4014 31.1706 42.4426 31.6061 42.4461L26.4216 47.6307ZM33.7429 40.5865C31.7148 40.7819 29.6691 40.6761 27.6719 40.2729C25.9242 39.9358 24.2005 39.484 22.5121 38.9205C20.4999 38.2575 18.5636 37.3831 16.7358 36.3119V33.5928C17.3076 33.8722 17.9263 34.1516 18.5967 34.4287L18.6296 34.4428C18.9145 34.5602 19.2087 34.6776 19.5124 34.795L19.7167 34.8736C19.9633 34.9675 20.2204 35.0614 20.4799 35.1542L20.832 35.281C21.0504 35.3573 21.2781 35.4336 21.5059 35.5157C21.6668 35.5697 21.8253 35.625 21.9908 35.679C22.1904 35.7436 22.4006 35.8093 22.6072 35.8739C22.8138 35.9385 22.997 35.9983 23.1942 36.0605C23.4161 36.1286 23.6521 36.1956 23.8822 36.2637L24.4621 36.4351C24.8977 36.5525 25.345 36.6828 25.8053 36.8049C28.947 37.6443 32.6546 38.4485 36.8236 39.1882C37.3065 39.2751 37.7983 39.3611 38.2993 39.4464C36.8449 40.0491 35.3096 40.4325 33.7429 40.5865ZM48.5615 36.3999L46.7828 38.688L45.0218 37.3697V35.362H47.1797L48.5615 36.3999ZM53.247 41.9177H51.0939L48.1917 39.7411L49.9715 37.4529L53.247 39.9102V41.9177ZM47.4719 33.5975H44.1436C43.9101 33.5975 43.6861 33.6902 43.521 33.8553C43.3559 34.0204 43.2631 34.2445 43.2631 34.478V38.4485C42.5383 38.339 41.8304 38.2293 41.1393 38.1198C39.7398 37.8983 38.4046 37.674 37.1335 37.447C33.0138 36.7133 29.3555 35.9208 26.2631 35.099C25.7606 34.9651 25.2746 34.829 24.7979 34.6917C24.6805 34.6588 24.5713 34.6247 24.4563 34.5907C24.0829 34.4815 23.7155 34.3711 23.3598 34.2607L23.0827 34.1727C22.6823 34.046 22.2902 33.918 21.9086 33.7888L21.8089 33.7547C19.8999 33.1284 18.0528 32.3275 16.2909 31.3621C16.0385 31.2177 15.8013 31.0745 15.5759 30.9313L15.5207 30.896C15.3141 30.7633 15.1192 30.6307 14.9337 30.4992C14.9138 30.4851 14.8915 30.471 14.8715 30.4557C14.6743 30.3141 14.4887 30.1729 14.315 30.032L14.2857 30.006C14.1342 29.8886 13.9945 29.7607 13.8607 29.6374C13.8102 29.5916 13.7632 29.5446 13.7151 29.4988C13.6211 29.4084 13.5296 29.3181 13.4451 29.2277C13.4051 29.1866 13.3653 29.1443 13.3277 29.102C13.2103 28.9776 13.1069 28.8532 13.0095 28.73C12.0877 27.522 11.6386 26.019 11.7462 24.5033C11.7462 21.2747 15.1955 20.1665 20.0678 18.9513L21.068 18.7001C21.4822 18.5921 21.8899 18.4604 22.2891 18.3057C22.3748 18.2728 22.4604 18.2412 22.5449 18.206C22.9052 18.0607 23.2579 17.8971 23.6016 17.7163L23.7366 17.6389C24.0383 17.4733 24.3236 17.2996 24.5913 17.1188C24.65 17.08 24.7087 17.0437 24.7662 17.0014C25.0527 16.8034 25.3208 16.601 25.5704 16.3943C25.6198 16.3544 25.6643 16.3145 25.7125 16.277C25.9355 16.0879 26.1457 15.899 26.3383 15.7111L26.4228 15.6312C26.6318 15.4245 26.8196 15.2239 26.9922 15.029L27.0978 14.9116C27.3786 14.589 27.6421 14.2514 27.8868 13.9007L27.9138 13.8631C29.5354 14.3285 31.0958 14.9855 32.5618 15.8202C35.3803 17.4174 37.9304 19.4474 40.119 21.836C42.2313 24.131 44.0751 26.6594 45.6147 29.3721C46.3872 30.7176 47.1151 32.1404 47.7866 33.6127L47.4719 33.5975Z" fill="#1A1A1A"/>
<path d="M30.8323 21.9544C30.6997 21.9541 30.5688 21.9838 30.4493 22.0413C30.3298 22.0987 30.2249 22.1826 30.1424 22.2863C30.0598 22.3901 30.0018 22.5111 29.9727 22.6405C29.9435 22.7698 29.944 22.9041 29.9741 23.0333C29.9905 23.1061 31.7622 30.371 39.1515 30.371C39.2786 30.3712 39.4043 30.3438 39.5198 30.2907C39.6353 30.2377 39.7379 30.1602 39.8206 30.0637C39.9033 29.9672 39.964 29.8539 39.9987 29.7317C40.0334 29.6094 40.0412 29.481 40.0215 29.3555C39.6497 27.2164 38.5122 25.2856 36.8212 23.9237C35.1303 22.5618 33.0015 21.8619 30.8323 21.9544ZM32.0921 23.7929C33.4242 23.9359 34.6872 24.4587 35.7308 25.2989C36.7744 26.1392 37.5546 27.2615 37.9786 28.5324C36.6665 28.3321 35.4307 27.7882 34.3968 26.9558C33.3629 26.1234 32.5677 25.0321 32.0921 23.7929Z" fill="#1A1A1A"/>
</g>
<defs>
<clipPath id="clip0_16_13964">
<rect width="60" height="60" fill="white"/>
</clipPath>
</defs>
</svg>
