<svg width="60" height="60" viewBox="0 0 60 60" fill="none" xmlns="http://www.w3.org/2000/svg">
<g clip-path="url(#clip0_15_5562)">
<path d="M50.4027 4.76392L47.7279 7.43866V10.2986L50.4027 7.62396V4.76392Z" fill="#6ECCAE"/>
<path d="M52.376 9.59741L49.7013 12.272H52.5613L55.2359 9.59741H52.376Z" fill="#6ECCAE"/>
<path d="M10.4026 35.7691C10.4026 43.3942 16.606 49.5975 24.2311 49.5975C31.8561 49.5975 38.0595 43.394 38.0595 35.7691C38.0595 32.4581 36.8893 29.4156 34.9415 27.0322L31.5064 30.4672C32.5942 31.9559 33.2385 33.7883 33.2385 35.769C33.2385 40.7356 29.1978 44.7763 24.2312 44.7763C19.2646 44.7763 15.224 40.7356 15.224 35.769C15.224 30.8024 19.2646 26.7617 24.2312 26.7617C26.212 26.7617 28.0444 27.406 29.533 28.4938L32.968 25.0587C30.5846 23.1108 27.5421 21.9407 24.2311 21.9407C16.6059 21.9407 10.4026 28.1441 10.4026 35.7691Z" fill="white"/>
<path d="M40.3383 21.6349L36.9216 25.0516C39.3709 27.9472 40.8501 31.6883 40.8501 35.7688C40.8501 44.9327 33.3947 52.3879 24.2309 52.3879C15.0671 52.3879 7.61177 44.9325 7.61177 35.7688C7.61177 26.605 15.0671 19.1497 24.2309 19.1497C28.3115 19.1497 32.0526 20.6289 34.9482 23.0781L38.3648 19.6615C34.5885 16.3436 29.6408 14.3286 24.2308 14.3286C12.4088 14.3288 2.7907 23.9468 2.7907 35.769C2.7907 47.5912 12.4088 57.2092 24.2309 57.2092C36.053 57.2092 45.6712 47.5911 45.6712 35.769C45.6712 30.3589 43.6561 25.4113 40.3383 21.6349Z" fill="white"/>
<path d="M24.2309 19.1499C15.0671 19.1499 7.61176 26.6053 7.61176 35.7691C7.61176 44.9329 15.0671 52.3881 24.2309 52.3881C33.3947 52.3881 40.8501 44.9327 40.8501 35.7691C40.8501 31.6884 39.3709 27.9474 36.9216 25.0518L34.9412 27.0322C36.8891 29.4156 38.0593 32.4582 38.0593 35.7692C38.0593 43.3942 31.856 49.5975 24.2308 49.5975C16.6056 49.5975 10.4023 43.3941 10.4023 35.7692C10.4023 28.1443 16.6058 21.9407 24.2308 21.9407C27.5418 21.9407 30.5844 23.1109 32.9678 25.0588L34.9482 23.0784C32.0527 20.6291 28.3116 19.1499 24.2309 19.1499Z" fill="#E85512"/>
<path d="M18.0145 35.769C18.0145 39.1969 20.8033 41.9856 24.2311 41.9856C27.6589 41.9856 30.4476 39.197 30.4476 35.769C30.4476 34.5594 30.0992 33.4303 29.4992 32.4744L25.2179 36.7557C24.9453 37.0281 24.5883 37.1644 24.2312 37.1644C23.8741 37.1644 23.5169 37.0281 23.2446 36.7557C22.6997 36.2108 22.6997 35.3273 23.2446 34.7823L27.5259 30.5009C26.57 29.9009 25.4408 29.5525 24.2312 29.5525C20.8031 29.5525 18.0145 32.3411 18.0145 35.769Z" fill="#E85512"/>
<path d="M59.8938 7.66792C59.6778 7.14662 59.1691 6.80657 58.6047 6.80657H53.1934V1.39527C53.1934 0.830847 52.8534 0.322103 52.332 0.106103C51.8104 -0.109618 51.2104 0.00968473 50.8114 0.408615L45.3461 5.87392C45.0844 6.13569 44.9374 6.49052 44.9374 6.86057V13.0893L40.3532 17.6734C35.9121 13.7075 30.2403 11.5381 24.2309 11.5381C17.7536 11.5381 11.6673 14.0572 7.09326 18.6313C2.51916 23.2054 0 29.2916 0 35.769C0 42.2463 2.51916 48.3326 7.09326 52.9067C11.6673 57.4808 17.7536 59.9999 24.2309 59.9999C30.7083 59.9999 36.7945 57.4808 41.3686 52.9067C45.9427 48.3326 48.4619 42.2463 48.4619 35.769C48.4619 29.7596 46.2922 24.0878 42.3264 19.6468L46.9107 15.0626H53.1392C53.5093 15.0626 53.8642 14.9155 54.1259 14.6539L59.5913 9.18857C59.9904 8.7895 60.1098 8.18936 59.8938 7.66792ZM24.2309 57.2092C12.4088 57.2092 2.7907 47.5911 2.7907 35.769C2.7907 23.9469 12.4088 14.3288 24.2309 14.3288C29.641 14.3288 34.5885 16.3438 38.365 19.6616L34.9483 23.0783L32.9679 25.0587L29.5328 28.4938C28.0443 27.406 26.2118 26.7617 24.2311 26.7617C19.2645 26.7617 15.2238 30.8024 15.2238 35.769C15.2238 40.7356 19.2645 44.7762 24.2311 44.7762C29.1977 44.7762 33.2383 40.7356 33.2383 35.769C33.2383 33.7882 32.5941 31.9558 31.5063 30.4672L34.9413 27.0322L36.9218 25.0517L40.3384 21.6351C43.6563 25.4115 45.6713 30.3591 45.6713 35.7691C45.6712 47.5911 36.0532 57.2092 24.2309 57.2092ZM23.2443 34.7822C22.6994 35.3271 22.6994 36.2106 23.2443 36.7556C23.5168 37.028 23.8739 37.1643 24.2309 37.1643C24.588 37.1643 24.9452 37.028 25.2176 36.7556L29.4989 32.4743C30.0989 33.4302 30.4473 34.5594 30.4473 35.769C30.4473 39.1968 27.6586 41.9855 24.2308 41.9855C20.803 41.9855 18.0142 39.1969 18.0142 35.769C18.0142 32.341 20.803 29.5524 24.2308 29.5524C25.4404 29.5524 26.5695 29.9008 27.5255 30.5008L23.2443 34.7822ZM49.7014 12.2719L52.376 9.59727H55.2359L52.5613 12.2719H49.7014ZM47.7279 7.43866L50.4025 4.76392V7.62396L47.7279 10.2986V7.43866Z" fill="black"/>
</g>
<defs>
<clipPath id="clip0_15_5562">
<rect width="60" height="60" fill="white"/>
</clipPath>
</defs>
</svg>
