<svg width="60" height="60" viewBox="0 0 60 60" fill="none" xmlns="http://www.w3.org/2000/svg">
<path d="M11.8499 45.394C10.4012 46.7544 9.25735 48.4063 8.49364 50.2409C7.99676 51.4222 9.06551 52.5003 10.3124 52.5003H33.7499C35.0343 52.5003 36.103 51.4222 35.6249 50.2409C34.8592 48.4074 33.7156 46.7559 32.2686 45.394H11.8499Z" fill="#E0E9EE"/>
<path d="M22.9875 49.5938C23.7991 49.426 24.5822 49.1418 25.3125 48.75C30.3562 46.2188 34.6219 45.1875 34.6219 42.1875C34.5757 40.8968 34.2339 39.6339 33.6228 38.4962C33.0117 37.3584 32.1475 36.3761 31.0968 35.625H13.0312C11.9806 36.3761 11.1164 37.3584 10.5053 38.4962C9.89414 39.6339 9.55234 40.8968 9.50623 42.1875C9.50623 45.2344 13.7718 46.2656 18.8156 48.75C19.5367 49.1381 20.3104 49.4192 21.1125 49.5844L22.05 48.8813L22.9875 49.5938Z" fill="#F0F4F7"/>
<path d="M22.0499 43.9033C21.8013 43.9033 21.5628 44.0021 21.387 44.1779C21.2112 44.3537 21.1124 44.5922 21.1124 44.8408V49.5846C21.7319 49.7018 22.3679 49.7018 22.9874 49.5846V44.8408C22.9874 44.5922 22.8887 44.3537 22.7128 44.1779C22.537 44.0021 22.2986 43.9033 22.0499 43.9033Z" fill="#D0E1E8"/>
<path d="M31.3781 33.2348C31.3079 34.7016 31.0399 36.1522 30.5812 37.5473C29.0437 41.4098 25.8 44.8316 22.0594 44.8316C18.3188 44.8316 15.0844 41.4098 13.5469 37.5473C13.0793 36.1545 12.811 34.7026 12.75 33.2348L22.0594 30.7598L31.3781 33.2348Z" fill="#EFC89D"/>
<path d="M27.7781 7.50015C27.6647 7.50929 27.5537 7.53783 27.4499 7.58453L23.1749 9.51578C20.9607 10.524 19.1789 12.2892 18.1499 14.4939L13.5656 24.3752L22.0031 26.6814L30.5343 24.3752L26.0343 14.8314C25.7732 14.2731 25.6837 13.6499 25.7772 13.0407C25.8706 12.4316 26.1428 11.8638 26.5593 11.4095L28.5937 9.17828C28.7348 9.03172 28.8276 8.84536 28.8595 8.64438C28.8913 8.44339 28.8607 8.23748 28.7717 8.05446C28.6828 7.87145 28.5398 7.72015 28.3621 7.62102C28.1844 7.52188 27.9805 7.4797 27.7781 7.50015Z" fill="#E0E9EE"/>
<path d="M13.5656 24.375L11.325 29.1937L22.0593 31.0687L32.8031 29.1937L30.5343 24.375H13.5656Z" fill="#748A95"/>
<path d="M24.4593 26.7563C24.4649 27.2339 24.3284 27.7025 24.067 28.1024C23.8057 28.5023 23.4314 28.8155 22.9916 29.0022C22.5519 29.1889 22.0666 29.2406 21.5974 29.1508C21.1282 29.0611 20.6962 28.8338 20.3565 28.498C20.0167 28.1622 19.7844 27.733 19.6891 27.2649C19.5939 26.7967 19.6399 26.3109 19.8214 25.869C20.0029 25.4271 20.3117 25.0491 20.7085 24.7831C21.1053 24.5171 21.5722 24.375 22.05 24.375C22.6841 24.375 23.2927 24.6249 23.7438 25.0707C24.1948 25.5165 24.4519 26.1221 24.4593 26.7563Z" fill="#F0F4F7"/>
<path d="M7.55619 31.8749C7.83643 31.0802 8.35702 30.3924 9.04577 29.907C9.73453 29.4215 10.5573 29.1624 11.3999 29.1656H32.7281C33.5688 29.1657 34.3889 29.4262 35.0755 29.9114C35.7621 30.3966 36.2816 31.0825 36.5624 31.8749C36.6069 32.0441 36.61 32.2216 36.5712 32.3922C36.5325 32.5628 36.4532 32.7216 36.34 32.855C36.2268 32.9885 36.0831 33.0926 35.9211 33.1586C35.7591 33.2247 35.5835 33.2506 35.4093 33.2343H8.70932C8.53456 33.2529 8.35791 33.2285 8.19475 33.1632C8.03158 33.0979 7.88686 32.9937 7.77317 32.8596C7.65949 32.7256 7.58029 32.5658 7.54247 32.3942C7.50465 32.2226 7.50936 32.0443 7.55619 31.8749Z" fill="#E0E9EE"/>
<path d="M20.0906 39.5813C20.081 39.6967 20.081 39.8127 20.0906 39.9281C20.0906 40.1904 20.1423 40.45 20.2426 40.6923C20.343 40.9346 20.4901 41.1547 20.6755 41.3401C20.8609 41.5256 21.081 41.6726 21.3233 41.773C21.5656 41.8734 21.8253 41.925 22.0875 41.925C22.3497 41.925 22.6094 41.8734 22.8517 41.773C23.0939 41.6726 23.3141 41.5256 23.4995 41.3401C23.6849 41.1547 23.832 40.9346 23.9324 40.6923C24.0327 40.45 24.0844 40.1904 24.0844 39.9281C24.094 39.8127 24.094 39.6967 24.0844 39.5813L23.3437 37.8844L21.1875 37.5938L20.0906 39.5813Z" fill="#F0F4F7"/>
<path d="M22.6218 39.6281C22.8626 39.7797 23.1297 39.8847 23.4093 39.9375C24.2841 40.1389 25.2011 40.0432 26.0155 39.6656C26.5665 39.3269 27.0394 38.8751 27.403 38.3402C27.7666 37.8054 28.0126 37.1994 28.1249 36.5625C28.1497 36.4705 28.144 36.373 28.1087 36.2845C28.0734 36.196 28.0103 36.1214 27.929 36.0718C27.8477 36.0222 27.7525 36.0002 27.6577 36.0092C27.5629 36.0183 27.4735 36.0578 27.403 36.1219C27.1721 36.3211 26.909 36.4796 26.6249 36.5906C26.5106 36.6383 26.3879 36.6629 26.264 36.6629C26.1401 36.6629 26.0174 36.6383 25.903 36.5906C25.7291 36.5047 25.5828 36.3715 25.4812 36.2062C25.291 35.9377 25.0447 35.7138 24.7593 35.55C24.4438 35.3613 24.0924 35.2406 23.7276 35.1954C23.3628 35.1502 22.9926 35.1815 22.6405 35.2875C22.1085 35.3667 21.5659 35.3348 21.0468 35.1937C20.9127 35.1809 20.7777 35.1809 20.6437 35.1937C20.2309 35.2075 19.8278 35.3223 19.4698 35.5283C19.1118 35.7343 18.8099 36.025 18.5905 36.375C18.4684 36.5163 18.3045 36.6152 18.1225 36.6573C17.9405 36.6994 17.7499 36.6826 17.578 36.6094C17.297 36.4753 17.0273 36.3185 16.7718 36.1406C16.6961 36.0965 16.6092 36.0754 16.5217 36.08C16.4342 36.0846 16.35 36.1146 16.2793 36.1664C16.2087 36.2181 16.1546 36.2894 16.1239 36.3714C16.0931 36.4534 16.087 36.5426 16.1062 36.6281C16.2123 37.2781 16.4595 37.8969 16.8304 38.4411C17.2013 38.9853 17.6869 39.4417 18.253 39.7781C19.0995 40.1327 20.0406 40.1921 20.9249 39.9469C21.2181 39.8621 21.4964 39.7325 21.7499 39.5625C21.8777 39.4792 22.029 39.4397 22.1812 39.45C22.3356 39.4886 22.4839 39.5486 22.6218 39.6281Z" fill="#748A95"/>
<path d="M44.4281 18.816C44.7798 18.6238 45.18 18.5383 45.5796 18.57C45.9792 18.6016 46.3609 18.749 46.6781 18.9941C47.4377 19.4153 48.1169 19.9676 48.6843 20.6253L48.2999 22.9222L46.5187 24.4691C46.3043 24.6537 46.1344 24.8845 46.0218 25.1441L40.1249 38.8972C40.0387 39.1028 39.988 39.3215 39.9749 39.5441L39.4312 50.5316C39.4183 50.7778 39.454 51.0242 39.5362 51.2566C39.6185 51.4891 39.7458 51.703 39.9108 51.8863C40.2439 52.2563 40.7105 52.4789 41.2078 52.505C41.705 52.5311 42.1923 52.3586 42.5624 52.0255C42.9325 51.6923 43.1551 51.2258 43.1812 50.7285L43.7156 40.0691L49.3406 27.0191L51.2624 25.3128C51.5943 25.0286 51.8165 24.6373 51.8906 24.2066L52.4999 20.6253C52.505 20.5567 52.505 20.4878 52.4999 20.4191C52.4895 20.125 52.4487 19.8329 52.3781 19.5472C52.2416 19.1569 52.0456 18.79 51.7968 18.4597C50.9338 17.3804 49.8746 16.4739 48.6749 15.7878C48.1921 15.481 47.6681 15.2443 47.1187 15.0847C46.0327 14.7597 44.8773 14.7455 43.7837 15.0438C42.69 15.3421 41.7018 15.9409 40.9312 16.7722C40.6238 17.04 40.3764 17.3696 40.2052 17.7396C40.0339 18.1095 39.9427 18.5115 39.9374 18.9191C39.8725 19.2762 39.7784 19.6273 39.6562 19.9691C39.4968 20.4003 39.3468 20.7097 39.3468 20.7097C39.2354 20.954 39.1777 21.2194 39.1777 21.4878C39.1777 21.7563 39.2354 22.0217 39.3468 22.266L40.0781 23.9347C40.1419 24.1987 40.2623 24.4457 40.431 24.6586C40.5997 24.8714 40.8126 25.0451 41.055 25.1676C41.2974 25.2901 41.5636 25.3584 41.835 25.3679C42.1065 25.3774 42.3767 25.3278 42.6271 25.2226C42.8775 25.1173 43.102 24.9589 43.2852 24.7584C43.4683 24.5578 43.6057 24.3199 43.6878 24.061C43.7699 23.8021 43.7948 23.5284 43.7608 23.259C43.7267 22.9895 43.6345 22.7307 43.4906 22.5003L43.1249 21.5628C43.1249 21.4503 43.1249 21.4597 43.2187 21.3285C43.5055 20.6618 43.6797 19.9522 43.7343 19.2285C43.9775 19.112 44.2096 18.974 44.4281 18.816Z" fill="#E5936B"/>
</svg>
