<svg width="60" height="60" viewBox="0 0 60 60" fill="none" xmlns="http://www.w3.org/2000/svg">
<path d="M51.15 6.84387C49.2541 6.84249 47.4155 6.19465 45.9375 5.0073C44.3747 6.26491 42.4109 6.91696 40.4062 6.84387C39.2631 6.79874 38.1416 6.51846 37.1117 6.02052C36.0818 5.52258 35.1656 4.81767 34.4203 3.9498L33.9722 3.42762L35.3953 2.20887L35.8434 2.73199C36.418 3.40758 37.1275 3.95557 37.9263 4.34079C38.7252 4.72601 39.5958 4.93995 40.4822 4.96887C41.3674 5.00656 42.2509 4.85928 43.076 4.53645C43.9012 4.21361 44.65 3.7223 45.2747 3.09387C45.4505 2.91811 45.6889 2.81938 45.9375 2.81938C46.1861 2.81938 46.4245 2.91811 46.6003 3.09387C47.225 3.7223 47.9738 4.21361 48.7989 4.53645C49.6241 4.85928 50.5075 5.00656 51.3928 4.96887C52.2788 4.93908 53.1488 4.72446 53.9469 4.33876C54.7451 3.95307 55.4539 3.40482 56.0278 2.72918L56.4759 2.20605L57.899 3.4248L57.4509 3.94699C56.7063 4.81492 55.7908 5.52009 54.7615 6.0185C53.7323 6.51691 52.6114 6.79788 51.4687 6.84387C51.36 6.84387 51.254 6.84387 51.15 6.84387Z" fill="#DD4A43"/>
<path d="M38.4375 8.4375H36.5625V10.3125H38.4375V8.4375Z" fill="#FDB62F"/>
<path d="M41.25 1.875H39.375V3.75H41.25V1.875Z" fill="#FD6D2F"/>
<path d="M45.9375 7.5H44.0625V9.375H45.9375V7.5Z" fill="#FDB62F"/>
<path d="M53.4375 1.875H51.5625V3.75H53.4375V1.875Z" fill="#FDB62F"/>
<path d="M56.25 7.5H54.375V9.375H56.25V7.5Z" fill="#FD6D2F"/>
<path d="M19.275 6.84379C17.3792 6.84241 15.5405 6.19457 14.0625 5.00723C12.4999 6.26521 10.536 6.91731 8.53126 6.84379C7.38847 6.79757 6.26747 6.51631 5.23821 6.01757C4.20896 5.51883 3.29354 4.81331 2.54908 3.94504L2.10095 3.42285L3.52408 2.2041L3.9722 2.72723C4.54593 3.40321 5.25462 3.95181 6.05281 4.33783C6.85101 4.72385 7.72107 4.93877 8.6072 4.96879C9.49242 5.00596 10.3757 4.85845 11.2008 4.53564C12.0259 4.21283 12.7747 3.7218 13.3997 3.09379C13.5755 2.91803 13.8139 2.8193 14.0625 2.8193C14.3111 2.8193 14.5495 2.91803 14.7253 3.09379C15.35 3.72222 16.0988 4.21353 16.924 4.53637C17.7491 4.85921 18.6326 5.00648 19.5178 4.96879C20.4038 4.939 21.2738 4.72438 22.072 4.33869C22.8702 3.95299 23.5789 3.40475 24.1528 2.7291L24.601 2.20598L26.0241 3.42473L25.576 3.94691C24.8313 4.81484 23.9158 5.52001 22.8866 6.01842C21.8573 6.51683 20.7364 6.7978 19.5938 6.84379C19.485 6.84379 19.3791 6.84379 19.275 6.84379Z" fill="#DD4A43"/>
<path d="M6.5625 8.4375H4.6875V10.3125H6.5625V8.4375Z" fill="#FDB62F"/>
<path d="M9.375 1.875H7.5V3.75H9.375V1.875Z" fill="#FDB62F"/>
<path d="M14.0625 7.5H12.1875V9.375H14.0625V7.5Z" fill="#FD6D2F"/>
<path d="M19.6875 1.875H17.8125V3.75H19.6875V1.875Z" fill="#FD6D2F"/>
<path d="M20.625 8.4375H18.75V10.3125H20.625V8.4375Z" fill="#FDB62F"/>
<path d="M58.125 56.25H1.875V58.125H58.125V56.25Z" fill="#FDB62F"/>
<path d="M45 47.8125H35.625V57.1875H45V47.8125Z" fill="#7EA82D"/>
<path d="M45 48.2812L36.0938 57.1875H45V48.2812Z" fill="#729C22"/>
<path d="M42.1875 47.8125H40.3125V57.1875H42.1875V47.8125Z" fill="#DD4A43"/>
<path d="M45 50.625H35.625V52.5H45V50.625Z" fill="#DD4A43"/>
<path d="M24.375 51.5625H16.875V57.1875H24.375V51.5625Z" fill="#7EA82D"/>
<path d="M17.8903 57.1875H24.3749V51.5625H23.5153L17.8903 57.1875Z" fill="#729C22"/>
<path d="M19.1691 55.2188L18.3309 53.5406C18.7019 53.3474 19.0197 53.0659 19.2562 52.7209C19.4928 52.376 19.6409 51.9782 19.6875 51.5625H21.5625C21.516 52.3275 21.2707 53.067 20.851 53.7082C20.4312 54.3494 19.8515 54.8701 19.1691 55.2188Z" fill="#DD4A43"/>
<path d="M22.0809 55.2188C21.3985 54.8701 20.8188 54.3494 20.399 53.7082C19.9793 53.067 19.734 52.3275 19.6875 51.5625H21.5625C21.6101 51.9783 21.7593 52.3761 21.9968 52.7207C22.2344 53.0653 22.553 53.3463 22.9247 53.5388L22.0809 55.2188Z" fill="#DD4A43"/>
<path d="M20.625 52.5H18.75C18.1937 52.5 17.65 52.335 17.1875 52.026C16.7249 51.717 16.3645 51.2777 16.1516 50.7638C15.9387 50.2499 15.883 49.6844 15.9915 49.1388C16.1001 48.5932 16.3679 48.0921 16.7613 47.6988C17.1546 47.3054 17.6557 47.0376 18.2013 46.929C18.7469 46.8205 19.3124 46.8762 19.8263 47.0891C20.3402 47.302 20.7795 47.6624 21.0885 48.125C21.3976 48.5875 21.5625 49.1312 21.5625 49.6875V51.5625C21.5625 51.8111 21.4637 52.0496 21.2879 52.2254C21.1121 52.4012 20.8736 52.5 20.625 52.5ZM18.75 48.75C18.5014 48.75 18.2629 48.8488 18.0871 49.0246C17.9113 49.2004 17.8125 49.4389 17.8125 49.6875C17.8125 49.9361 17.9113 50.1746 18.0871 50.3504C18.2629 50.5262 18.5014 50.625 18.75 50.625H19.6875V49.6875C19.6875 49.4389 19.5887 49.2004 19.4129 49.0246C19.2371 48.8488 18.9986 48.75 18.75 48.75Z" fill="#DD4A43"/>
<path d="M22.5 52.5H20.625C20.3764 52.5 20.1379 52.4012 19.9621 52.2254C19.7863 52.0496 19.6875 51.8111 19.6875 51.5625V49.6875C19.6875 49.1312 19.8524 48.5875 20.1615 48.125C20.4705 47.6624 20.9098 47.302 21.4237 47.0891C21.9376 46.8762 22.5031 46.8205 23.0487 46.929C23.5943 47.0376 24.0954 47.3054 24.4887 47.6988C24.8821 48.0921 25.1499 48.5932 25.2585 49.1388C25.367 49.6844 25.3113 50.2499 25.0984 50.7638C24.8855 51.2777 24.5251 51.717 24.0625 52.026C23.6 52.335 23.0563 52.5 22.5 52.5ZM21.5625 50.625H22.5C22.6854 50.625 22.8667 50.57 23.0208 50.467C23.175 50.364 23.2952 50.2176 23.3661 50.0463C23.4371 49.875 23.4557 49.6865 23.4195 49.5046C23.3833 49.3227 23.294 49.1557 23.1629 49.0246C23.0318 48.8935 22.8648 48.8042 22.6829 48.768C22.501 48.7318 22.3125 48.7504 22.1412 48.8214C21.9699 48.8923 21.8235 49.0125 21.7205 49.1667C21.6175 49.3208 21.5625 49.5021 21.5625 49.6875V50.625Z" fill="#DD4A43"/>
<path d="M13.125 46.875H3.75V57.1875H13.125V46.875Z" fill="#FD6D2F"/>
<path d="M3.75 57.1875H13.125V47.8125L3.75 57.1875Z" fill="#F7612D"/>
<path d="M13.125 49.6875H3.75V51.5625H13.125V49.6875Z" fill="#DD4A43"/>
<path d="M8.4375 47.8125H6.5625C6.00624 47.8125 5.46247 47.6475 4.99996 47.3385C4.53745 47.0295 4.17696 46.5902 3.96409 46.0763C3.75122 45.5624 3.69552 44.9969 3.80404 44.4513C3.91256 43.9057 4.18043 43.4046 4.57376 43.0113C4.9671 42.6179 5.46824 42.3501 6.01381 42.2415C6.55938 42.133 7.12488 42.1887 7.6388 42.4016C8.15272 42.6145 8.59197 42.9749 8.90101 43.4375C9.21005 43.9 9.375 44.4437 9.375 45V46.875C9.375 47.1236 9.27623 47.3621 9.10041 47.5379C8.9246 47.7137 8.68614 47.8125 8.4375 47.8125ZM6.5625 44.0625C6.31386 44.0625 6.0754 44.1613 5.89959 44.3371C5.72377 44.5129 5.625 44.7514 5.625 45C5.625 45.2486 5.72377 45.4871 5.89959 45.6629C6.0754 45.8387 6.31386 45.9375 6.5625 45.9375H7.5V45C7.5 44.7514 7.40123 44.5129 7.22541 44.3371C7.0496 44.1613 6.81114 44.0625 6.5625 44.0625Z" fill="#DD4A43"/>
<path d="M10.3125 47.8125H8.4375C8.18886 47.8125 7.9504 47.7137 7.77459 47.5379C7.59877 47.3621 7.5 47.1236 7.5 46.875V45C7.5 44.4437 7.66495 43.9 7.97399 43.4375C8.28303 42.9749 8.72229 42.6145 9.2362 42.4016C9.75012 42.1887 10.3156 42.133 10.8612 42.2415C11.4068 42.3501 11.9079 42.6179 12.3012 43.0113C12.6946 43.4046 12.9624 43.9057 13.071 44.4513C13.1795 44.9969 13.1238 45.5624 12.9109 46.0763C12.698 46.5902 12.3376 47.0295 11.875 47.3385C11.4125 47.6475 10.8688 47.8125 10.3125 47.8125ZM9.375 45.9375H10.3125C10.4979 45.9375 10.6792 45.8825 10.8333 45.7795C10.9875 45.6765 11.1077 45.5301 11.1786 45.3588C11.2496 45.1875 11.2682 44.999 11.232 44.8171C11.1958 44.6352 11.1065 44.4682 10.9754 44.3371C10.8443 44.206 10.6773 44.1167 10.4954 44.0805C10.3135 44.0443 10.125 44.0629 9.95373 44.1339C9.78243 44.2048 9.63601 44.325 9.533 44.4792C9.42998 44.6333 9.375 44.8146 9.375 45V45.9375Z" fill="#DD4A43"/>
<path d="M9.375 46.875H7.5V57.1875H9.375V46.875Z" fill="#DD4A43"/>
<path d="M56.25 42.1875H48.75V57.1875H56.25V42.1875Z" fill="#FD6D2F"/>
<path d="M48.75 52.9688V57.1875H56.25V45.4688L48.75 52.9688Z" fill="#F7612D"/>
<path d="M52.5 43.125H50.625C50.0687 43.125 49.525 42.96 49.0625 42.651C48.5999 42.342 48.2395 41.9027 48.0266 41.3888C47.8137 40.8749 47.758 40.3094 47.8665 39.7638C47.9751 39.2182 48.2429 38.7171 48.6363 38.3238C49.0296 37.9304 49.5307 37.6626 50.0763 37.554C50.6219 37.4455 51.1874 37.5012 51.7013 37.7141C52.2152 37.927 52.6545 38.2874 52.9635 38.75C53.2725 39.2125 53.4375 39.7562 53.4375 40.3125V42.1875C53.4375 42.4361 53.3387 42.6746 53.1629 42.8504C52.9871 43.0262 52.7486 43.125 52.5 43.125ZM50.625 39.375C50.3764 39.375 50.1379 39.4738 49.9621 39.6496C49.7863 39.8254 49.6875 40.0639 49.6875 40.3125C49.6875 40.5611 49.7863 40.7996 49.9621 40.9754C50.1379 41.1512 50.3764 41.25 50.625 41.25H51.5625V40.3125C51.5625 40.0639 51.4637 39.8254 51.2879 39.6496C51.1121 39.4738 50.8736 39.375 50.625 39.375Z" fill="#DD4A43"/>
<path d="M54.375 43.125H52.5C52.2514 43.125 52.0129 43.0262 51.8371 42.8504C51.6613 42.6746 51.5625 42.4361 51.5625 42.1875V40.3125C51.5625 39.7562 51.7275 39.2125 52.0365 38.75C52.3455 38.2874 52.7848 37.927 53.2987 37.7141C53.8126 37.5012 54.3781 37.4455 54.9237 37.554C55.4693 37.6626 55.9704 37.9304 56.3637 38.3238C56.7571 38.7171 57.0249 39.2182 57.1335 39.7638C57.242 40.3094 57.1863 40.8749 56.9734 41.3888C56.7605 41.9027 56.4001 42.342 55.9375 42.651C55.475 42.96 54.9313 43.125 54.375 43.125ZM53.4375 41.25H54.375C54.5604 41.25 54.7417 41.195 54.8958 41.092C55.05 40.989 55.1702 40.8426 55.2411 40.6713C55.3121 40.5 55.3307 40.3115 55.2945 40.1296C55.2583 39.9477 55.169 39.7807 55.0379 39.6496C54.9068 39.5185 54.7398 39.4292 54.5579 39.393C54.376 39.3568 54.1875 39.3754 54.0162 39.4464C53.8449 39.5173 53.6985 39.6375 53.5955 39.7917C53.4925 39.9458 53.4375 40.1271 53.4375 40.3125V41.25Z" fill="#DD4A43"/>
<path d="M56.25 45H48.75V46.875H56.25V45Z" fill="#DD4A43"/>
<path d="M30.0001 6.56252C29.8168 6.56247 29.6375 6.50869 29.4844 6.40783L26.641 4.53283L27.6722 2.96721L30.0001 4.50002L32.3279 2.96533L33.3591 4.53096L30.5157 6.40596C30.3628 6.50748 30.1835 6.56192 30.0001 6.56252Z" fill="#FDB62F"/>
<path d="M32.3279 8.2829L30.0001 6.75009L27.6722 8.2829L26.641 6.71728L29.4844 4.84228C29.6375 4.74147 29.8168 4.68774 30.0001 4.68774C30.1833 4.68774 30.3626 4.74147 30.5157 4.84228L33.3591 6.71728L32.3279 8.2829Z" fill="#FDB62F"/>
<path d="M30.9375 1.875H29.0625V11.25H30.9375V1.875Z" fill="#FDB62F"/>
<path d="M43.125 44.0625L36.5625 33.75H40.5L33.9375 21.5625H37.875L30 9.375L22.125 21.5625H26.0625L19.5 33.75H23.4375L16.875 44.0625H43.125Z" fill="#7EA82D"/>
<path d="M36.5625 33.75H40.5L38.4656 29.9719L24.375 44.0625H43.125L36.5625 33.75Z" fill="#729C22"/>
<path d="M31.8956 39.375C32.9425 39.375 33.7912 38.5355 33.7912 37.5C33.7912 36.4645 32.9425 35.625 31.8956 35.625C30.8487 35.625 30 36.4645 30 37.5C30 38.5355 30.8487 39.375 31.8956 39.375Z" fill="#DD4A43"/>
<path d="M29.0419 28.125C30.0888 28.125 30.9375 27.2855 30.9375 26.25C30.9375 25.2145 30.0888 24.375 29.0419 24.375C27.9949 24.375 27.1462 25.2145 27.1462 26.25C27.1462 27.2855 27.9949 28.125 29.0419 28.125Z" fill="#DD4A43"/>
<path d="M29.834 24.5513C29.9428 24.7903 29.9994 25.0499 29.9999 25.3125C29.9973 25.6289 29.9152 25.9395 29.7614 26.216C29.6075 26.4925 29.3868 26.7259 29.1193 26.8949C28.8519 27.064 28.5463 27.1632 28.2306 27.1835C27.9148 27.2038 27.599 27.1446 27.3121 27.0113C27.4905 27.4043 27.7975 27.7248 28.1825 27.9199C28.5676 28.115 29.0076 28.1729 29.43 28.0842C29.8524 27.9955 30.232 27.7655 30.506 27.432C30.7801 27.0986 30.9323 26.6816 30.9374 26.25C30.9355 25.8909 30.8305 25.54 30.6349 25.2388C30.4393 24.9377 30.1613 24.699 29.834 24.5513Z" fill="#D3433C"/>
<path d="M31.8853 17.8125H30.0103V19.6875H31.8853V17.8125Z" fill="#FDB62F"/>
<path d="M33.75 30H31.875V31.875H33.75V30Z" fill="#FD6D2F"/>
<path d="M27.1875 39.375H25.3125V41.25H27.1875V39.375Z" fill="#FDB62F"/>
<path d="M31.875 44.0625H28.125V57.1875H31.875V44.0625Z" fill="#A65B2D"/>
<path d="M31.875 44.0625H28.125V46.875H31.875V44.0625Z" fill="#894520"/>
<path d="M32.6878 35.8013C32.7966 36.0403 32.8532 36.2999 32.8537 36.5625C32.851 36.8789 32.769 37.1895 32.6151 37.466C32.4613 37.7425 32.2405 37.9759 31.9731 38.1449C31.7056 38.314 31.4001 38.4132 31.0843 38.4335C30.7686 38.4538 30.4528 38.3946 30.1659 38.2613C30.3442 38.6543 30.6513 38.9748 31.0363 39.1699C31.4213 39.365 31.8614 39.4229 32.2838 39.3342C32.7062 39.2455 33.0857 39.0155 33.3598 38.682C33.6339 38.3486 33.786 37.9316 33.7912 37.5C33.79 37.1408 33.6852 36.7895 33.4895 36.4882C33.2938 36.187 33.0155 35.9485 32.6878 35.8013Z" fill="#D3433C"/>
</svg>
