<svg width="61" height="60" viewBox="0 0 61 60" fill="none" xmlns="http://www.w3.org/2000/svg">
<path fill-rule="evenodd" clip-rule="evenodd" d="M30.4209 3.75C24.7367 3.75 20.1084 8.37823 20.1084 14.0625C20.1084 15.7548 20.5211 17.352 21.2473 18.7628C19.5695 18.901 18.2334 20.32 18.2334 22.0312C18.2334 23.0077 18.6708 23.8874 19.3559 24.4904C18.1829 25.4227 17.1347 26.5042 16.2284 27.6984L12.5187 21.2732L14.1337 15.2435C14.2688 14.7429 13.9718 14.2276 13.4708 14.0936C13.3754 14.0678 13.2766 14.0573 13.1779 14.0625C12.772 14.0836 12.426 14.3639 12.3209 14.7565L11.1912 18.9752L9.04153 15.2509C8.91738 15.0363 8.71329 14.8796 8.4739 14.8151C8.23349 14.7504 7.97722 14.784 7.76162 14.9084C7.31392 15.1676 7.1607 15.7403 7.41921 16.1884L9.56887 19.9109L5.35196 18.7811C4.8513 18.646 4.33606 18.943 4.20205 19.444C4.06694 19.9446 4.36393 20.4599 4.86488 20.5939L10.8946 22.2089L15.0657 29.4324C13.5084 32.0762 12.6084 35.1514 12.6084 38.4375C12.6084 48.2639 20.5945 56.25 30.4209 56.25C40.2473 56.25 48.2334 48.2639 48.2334 38.4375C48.2334 35.1514 47.3334 32.0762 45.7761 29.4324L49.9473 22.2089L55.9769 20.5939C56.096 20.562 56.2077 20.507 56.3055 20.4319C56.4033 20.3568 56.4853 20.2632 56.5469 20.1564C56.6085 20.0496 56.6484 19.9317 56.6643 19.8094C56.6802 19.6872 56.6719 19.563 56.6398 19.444C56.6079 19.3249 56.5529 19.2132 56.4778 19.1154C56.4028 19.0176 56.3091 18.9356 56.2023 18.874C56.0955 18.8125 55.9776 18.7725 55.8554 18.7566C55.7331 18.7407 55.6089 18.749 55.4899 18.7811L51.273 19.9109L53.4226 16.1884C53.6811 15.7403 53.5279 15.1676 53.0802 14.9084C52.6322 14.65 52.0594 14.8032 51.8003 15.2509L49.6507 18.9734L48.5209 14.7565C48.489 14.6374 48.434 14.5257 48.3589 14.4279C48.2839 14.3301 48.1902 14.2481 48.0834 14.1865C47.9766 14.125 47.8587 14.0851 47.7365 14.0691C47.6142 14.0532 47.49 14.0615 47.371 14.0936C47.2519 14.1255 47.1402 14.1805 47.0424 14.2556C46.9446 14.3307 46.8626 14.4243 46.801 14.5311C46.7395 14.6379 46.6996 14.7558 46.6836 14.8781C46.6677 15.0003 46.676 15.1245 46.7081 15.2435L48.3231 21.2732L44.6134 27.6984C43.7071 26.5042 42.6589 25.4227 41.486 24.4904C42.1715 23.8878 42.6084 23.0079 42.6084 22.0312C42.6084 20.32 41.2723 18.901 39.5945 18.7628C40.3207 17.3519 40.7334 15.7548 40.7334 14.0625C40.7334 8.37823 36.1052 3.75 30.4209 3.75ZM30.4209 5.625C35.0919 5.625 38.8584 9.3915 38.8584 14.0625C38.8584 15.7993 38.3374 17.4104 37.443 18.75H23.3988C22.5045 17.4104 21.9834 15.7993 21.9834 14.0625C21.9834 9.3915 25.7499 5.625 30.4209 5.625ZM21.5147 20.625H39.3272C40.1224 20.625 40.7334 21.236 40.7334 22.0312C40.7334 22.8265 40.1224 23.4375 39.3272 23.4375H38.3897H21.5147C20.7194 23.4375 20.1084 22.8265 20.1084 22.0312C20.1084 21.236 20.7194 20.625 21.5147 20.625ZM21.381 25.3052H21.3829C21.427 25.3071 21.4702 25.3127 21.5147 25.3127H33.7535L34.1728 32.8639C34.2001 33.3609 34.6108 33.7499 35.1085 33.7502H40.7335C41.3531 33.7497 41.8019 33.1589 41.6362 32.5618L39.6623 25.4537C43.7149 28.3406 46.3584 33.0737 46.3584 38.4375C46.3584 47.2506 39.234 54.375 30.4209 54.375C21.6078 54.375 14.4834 47.2506 14.4834 38.4375C14.4834 32.9838 17.2127 28.1774 21.381 25.3052ZM35.6303 25.3125H37.6774L39.5011 31.875H35.9946L35.6303 25.3125Z" fill="black"/>
<path fill-rule="evenodd" clip-rule="evenodd" d="M30.4209 43.125C28.8787 43.125 27.6084 44.3953 27.6084 45.9375C27.6084 47.4797 28.8787 48.75 30.4209 48.75C31.9631 48.75 33.2334 47.4797 33.2334 45.9375C33.2334 44.3953 31.9631 43.125 30.4209 43.125ZM30.4209 45C30.9498 45 31.3584 45.4086 31.3584 45.9375C31.3584 46.4664 30.9498 46.875 30.4209 46.875C29.892 46.875 29.4834 46.4664 29.4834 45.9375C29.4834 45.4086 29.892 45 30.4209 45Z" fill="black"/>
<path fill-rule="evenodd" clip-rule="evenodd" d="M30.4209 37.5C29.3965 37.5 28.5459 38.3506 28.5459 39.375C28.5459 40.3994 29.3965 41.25 30.4209 41.25C31.4453 41.25 32.2959 40.3994 32.2959 39.375C32.2959 38.3506 31.4453 37.5 30.4209 37.5Z" fill="black"/>
<path fill-rule="evenodd" clip-rule="evenodd" d="M30.4209 30.9375C29.3965 30.9375 28.5459 31.7881 28.5459 32.8125C28.5459 33.8369 29.3965 34.6875 30.4209 34.6875C31.4453 34.6875 32.2959 33.8369 32.2959 32.8125C32.2959 31.7881 31.4453 30.9375 30.4209 30.9375Z" fill="black"/>
<path fill-rule="evenodd" clip-rule="evenodd" d="M27.6084 8.4375C27.3598 8.4375 27.1213 8.53629 26.9455 8.7121C26.7697 8.88792 26.6709 9.12636 26.6709 9.375C26.6709 9.62364 26.7697 9.86208 26.9455 10.0379C27.1213 10.2137 27.3598 10.3125 27.6084 10.3125C27.857 10.3125 28.0955 10.2137 28.2713 10.0379C28.4471 9.86208 28.5459 9.62364 28.5459 9.375C28.5459 9.12636 28.4471 8.88792 28.2713 8.7121C28.0955 8.53629 27.857 8.4375 27.6084 8.4375Z" fill="black"/>
<path fill-rule="evenodd" clip-rule="evenodd" d="M33.2339 8.4375C32.9852 8.4375 32.7468 8.53629 32.571 8.7121C32.3952 8.88792 32.2964 9.12636 32.2964 9.375C32.2964 9.62364 32.3952 9.86208 32.571 10.0379C32.7468 10.2137 32.9852 10.3125 33.2339 10.3125C33.4825 10.3125 33.721 10.2137 33.8968 10.0379C34.0726 9.86208 34.1714 9.62364 34.1714 9.375C34.1714 9.12636 34.0726 8.88792 33.8968 8.7121C33.721 8.53629 33.4825 8.4375 33.2339 8.4375Z" fill="black"/>
<path fill-rule="evenodd" clip-rule="evenodd" d="M30.4209 11.25C30.1723 11.25 29.9338 11.3488 29.758 11.5246C29.5822 11.7004 29.4834 11.9389 29.4834 12.1875C29.4834 12.4361 29.5822 12.6746 29.758 12.8504C29.9338 13.0262 30.1723 13.125 30.4209 13.125C30.6695 13.125 30.908 13.0262 31.0838 12.8504C31.2596 12.6746 31.3584 12.4361 31.3584 12.1875C31.3584 11.9389 31.2596 11.7004 31.0838 11.5246C30.908 11.3488 30.6695 11.25 30.4209 11.25Z" fill="black"/>
<path fill-rule="evenodd" clip-rule="evenodd" d="M28.3261 14.1798C28.2193 14.2411 28.1257 14.3228 28.0505 14.4203C27.9753 14.5178 27.9201 14.6292 27.888 14.7481C27.8558 14.8669 27.8474 14.9909 27.8632 15.113C27.879 15.2351 27.9187 15.3529 27.98 15.4597C28.4651 16.3059 29.3834 16.8751 30.4208 16.8751C31.4572 16.8751 32.3743 16.3081 32.8598 15.4633C32.9838 15.2479 33.0172 14.9921 32.9526 14.7521C32.8881 14.5121 32.7309 14.3076 32.5155 14.1834C32.3002 14.0594 32.0443 14.026 31.8043 14.0906C31.5643 14.1551 31.3598 14.3124 31.2356 14.5277C31.0741 14.8088 30.7762 15.0001 30.4208 15.0001C30.065 15.0001 29.7674 14.8093 29.606 14.5277C29.5448 14.4208 29.4632 14.3269 29.3658 14.2516C29.2683 14.1762 29.157 14.1208 29.0381 14.0885C28.9193 14.0562 28.7952 14.0476 28.673 14.0633C28.5509 14.0789 28.433 14.1185 28.3261 14.1798Z" fill="black"/>
<path fill-rule="evenodd" clip-rule="evenodd" d="M53.1038 40.7578C52.8551 40.7578 52.6167 40.8566 52.4408 41.0324C52.265 41.2082 52.1663 41.4467 52.1663 41.6953C52.1663 41.944 52.265 42.1824 52.4408 42.3582C52.6167 42.534 52.8551 42.6328 53.1038 42.6328C53.3524 42.6328 53.5908 42.534 53.7667 42.3582C53.9425 42.1824 54.0413 41.944 54.0413 41.6953C54.0413 41.4467 53.9425 41.2082 53.7667 41.0324C53.5908 40.8566 53.3524 40.7578 53.1038 40.7578Z" fill="black"/>
<path fill-rule="evenodd" clip-rule="evenodd" d="M54.4863 5.00146C54.2377 5.00146 53.9992 5.10025 53.8234 5.27607C53.6476 5.45188 53.5488 5.69032 53.5488 5.93896C53.5488 6.18761 53.6476 6.42608 53.8234 6.60189C53.9992 6.77771 54.2377 6.87646 54.4863 6.87646C54.735 6.87646 54.9734 6.77771 55.1492 6.60189C55.3251 6.42608 55.4238 6.18761 55.4238 5.93896C55.4238 5.69032 55.3251 5.45188 55.1492 5.27607C54.9734 5.10025 54.735 5.00146 54.4863 5.00146Z" fill="black"/>
<path fill-rule="evenodd" clip-rule="evenodd" d="M5.69287 39.061C5.44423 39.061 5.20577 39.1598 5.02996 39.3356C4.85414 39.5114 4.75537 39.7499 4.75537 39.9985C4.75537 40.2472 4.85414 40.4856 5.02996 40.6614C5.20577 40.8372 5.44423 40.936 5.69287 40.936C5.94151 40.936 6.17997 40.8372 6.35578 40.6614C6.5316 40.4856 6.63037 40.2472 6.63037 39.9985C6.63037 39.7499 6.5316 39.5114 6.35578 39.3356C6.17997 39.1598 5.94151 39.061 5.69287 39.061Z" fill="black"/>
<path fill-rule="evenodd" clip-rule="evenodd" d="M6.84033 53.3833C6.59169 53.3833 6.35323 53.4821 6.17742 53.6579C6.0016 53.8337 5.90283 54.0722 5.90283 54.3208C5.90283 54.5694 6.0016 54.8079 6.17742 54.9837C6.35323 55.1595 6.59169 55.2583 6.84033 55.2583C7.08897 55.2583 7.32743 55.1595 7.50325 54.9837C7.67906 54.8079 7.77783 54.5694 7.77783 54.3208C7.77783 54.0722 7.67906 53.8337 7.50325 53.6579C7.32743 53.4821 7.08897 53.3833 6.84033 53.3833Z" fill="black"/>
<path fill-rule="evenodd" clip-rule="evenodd" d="M54.5271 54.1646C54.2785 54.1646 54.04 54.2633 53.8642 54.4392C53.6884 54.615 53.5896 54.8534 53.5896 55.1021C53.5896 55.3507 53.6884 55.5892 53.8642 55.765C54.04 55.9408 54.2785 56.0396 54.5271 56.0396C54.7757 56.0396 55.0142 55.9408 55.19 55.765C55.3658 55.5892 55.4646 55.3507 55.4646 55.1021C55.4646 54.8534 55.3658 54.615 55.19 54.4392C55.0142 54.2633 54.7757 54.1646 54.5271 54.1646Z" fill="black"/>
<path fill-rule="evenodd" clip-rule="evenodd" d="M45.4629 9.3667C45.2143 9.3667 44.9758 9.46546 44.8 9.64127C44.6242 9.81709 44.5254 10.0556 44.5254 10.3042C44.5254 10.5528 44.6242 10.7913 44.8 10.9671C44.9758 11.1429 45.2143 11.2417 45.4629 11.2417C45.7115 11.2417 45.95 11.1429 46.1258 10.9671C46.3016 10.7913 46.4004 10.5528 46.4004 10.3042C46.4004 10.0556 46.3016 9.81709 46.1258 9.64127C45.95 9.46546 45.7115 9.3667 45.4629 9.3667Z" fill="black"/>
<path fill-rule="evenodd" clip-rule="evenodd" d="M17.6035 8.26904C17.3549 8.26904 17.1164 8.36783 16.9406 8.54364C16.7648 8.71946 16.666 8.9579 16.666 9.20654C16.666 9.45518 16.7648 9.69366 16.9406 9.86947C17.1164 10.0453 17.3549 10.144 17.6035 10.144C17.8522 10.144 18.0906 10.0453 18.2664 9.86947C18.4422 9.69366 18.541 9.45518 18.541 9.20654C18.541 8.9579 18.4422 8.71946 18.2664 8.54364C18.0906 8.36783 17.8522 8.26904 17.6035 8.26904Z" fill="black"/>
<path fill-rule="evenodd" clip-rule="evenodd" d="M6.46509 5.5498C6.21645 5.5498 5.97799 5.64859 5.80217 5.82441C5.62636 6.00022 5.52759 6.23866 5.52759 6.4873C5.52759 6.73595 5.62636 6.97442 5.80217 7.15023C5.97799 7.32605 6.21645 7.4248 6.46509 7.4248C6.71373 7.4248 6.95219 7.32605 7.128 7.15023C7.30382 6.97442 7.40259 6.73595 7.40259 6.4873C7.40259 6.23866 7.30382 6.00022 7.128 5.82441C6.95219 5.64859 6.71373 5.5498 6.46509 5.5498Z" fill="black"/>
</svg>
