<svg width="512" height="512" viewBox="0 0 512 512" fill="none" xmlns="http://www.w3.org/2000/svg">
<g clip-path="url(#clip0_16_15294)">
<path d="M465.454 201.697H46.5449V465.455H465.454V201.697Z" fill="#9BC9FF"/>
<path d="M465.454 46.5449H46.5449V155.151H465.454V46.5449Z" fill="#9BC9FF"/>
<path d="M488.727 0H23.273C10.42 0 0 10.42 0 23.273V178.425V488.728C0 501.58 10.42 512 23.273 512H488.728C501.58 512 512 501.58 512 488.727V178.424V23.273C512 10.42 501.58 0 488.727 0ZM465.455 465.455H46.545V201.697H465.454L465.455 465.455ZM465.455 155.152H46.545V46.545H465.454L465.455 155.152Z" fill="#5286FA"/>
<path d="M465.455 201.697H256V465.455H465.455V201.697Z" fill="#BDFDFF"/>
<path d="M465.455 46.5449H256V155.151H465.455V46.5449Z" fill="#BDFDFF"/>
<path d="M46.545 465.455V201.697H256V155.152H46.545V46.545H256V0H23.273C10.42 0 0 10.42 0 23.273V178.425V488.728C0 501.58 10.42 512 23.273 512H256V465.455H46.545Z" fill="#3D6DEB"/>
</g>
<defs>
<clipPath id="clip0_16_15294">
<rect width="512" height="512" fill="white"/>
</clipPath>
</defs>
</svg>
