<svg width="512" height="512" viewBox="0 0 512 512" fill="none" xmlns="http://www.w3.org/2000/svg">
<g clip-path="url(#clip0_10_337)">
<path d="M256.004 512C397.389 512 512.004 397.385 512.004 256C512.004 114.615 397.389 0 256.004 0C114.619 0 0.00402832 114.615 0.00402832 256C0.00402832 397.385 114.619 512 256.004 512Z" fill="#E0E0E0"/>
<path d="M448.004 164H64.004V396H448.004V164Z" fill="#3B3B3B"/>
<path d="M448.004 116H64.004V164.08H448.004V116Z" fill="black"/>
<path d="M97.148 146.736C100.846 146.736 103.844 143.738 103.844 140.04C103.844 136.342 100.846 133.344 97.148 133.344C93.4499 133.344 90.452 136.342 90.452 140.04C90.452 143.738 93.4499 146.736 97.148 146.736Z" fill="#00C454"/>
<path d="M117.228 146.736C120.926 146.736 123.924 143.738 123.924 140.04C123.924 136.342 120.926 133.344 117.228 133.344C113.53 133.344 110.532 136.342 110.532 140.04C110.532 143.738 113.53 146.736 117.228 146.736Z" fill="white"/>
<path d="M137.284 146.736C140.982 146.736 143.98 143.738 143.98 140.04C143.98 136.342 140.982 133.344 137.284 133.344C133.586 133.344 130.588 136.342 130.588 140.04C130.588 143.738 133.586 146.736 137.284 146.736Z" fill="#666666"/>
<path d="M400.004 151.8H192.332L206.676 128.288H414.356L400.004 151.8Z" fill="#666666"/>
<path d="M221.78 134.792L223.172 140.136C223.476 141.304 223.756 142.392 223.956 143.48H224.028C224.26 142.416 224.612 141.288 224.956 140.16L226.676 134.792H228.284L229.908 140.048C230.3 141.304 230.604 142.416 230.844 143.48H230.908C231.084 142.416 231.372 141.312 231.716 140.072L233.22 134.792H235.108L231.716 145.304H229.98L228.372 140.288C228.004 139.112 227.7 138.072 227.436 136.824H227.396C227.132 138.088 226.812 139.176 226.436 140.304L224.74 145.304H223.004L219.836 134.792H221.78Z" fill="white"/>
<path d="M238.004 134.792L239.396 140.136C239.7 141.304 239.98 142.392 240.18 143.48H240.244C240.484 142.416 240.828 141.288 241.18 140.16L242.892 134.792H244.5L246.132 140.048C246.524 141.304 246.828 142.416 247.06 143.48H247.132C247.3 142.416 247.588 141.312 247.94 140.072L249.444 134.792H251.332L247.94 145.304H246.196L244.588 140.288C244.22 139.112 243.916 138.072 243.66 136.824H243.612C243.356 138.088 243.028 139.176 242.66 140.304L240.964 145.304H239.22L236.052 134.792H238.004Z" fill="white"/>
<path d="M254.228 134.792L255.62 140.136C255.924 141.304 256.204 142.392 256.404 143.48H256.468C256.708 142.416 257.052 141.288 257.404 140.16L259.116 134.792H260.724L262.356 140.048C262.748 141.304 263.052 142.416 263.284 143.48H263.356C263.524 142.416 263.812 141.312 264.164 140.072L265.668 134.792H267.556L264.164 145.304H262.42L260.804 140.288C260.436 139.112 260.132 138.072 259.876 136.824H259.828C259.572 138.088 259.244 139.176 258.876 140.304L257.18 145.304H255.436L252.268 134.792H254.228Z" fill="white"/>
<path d="M64.004 372.688H126.148L149.46 396H64.004V372.688Z" fill="#666666"/>
<path d="M448.004 372.688H385.86L362.548 396H448.004V372.688Z" fill="#666666"/>
<path d="M256.004 272.464C272.652 272.464 286.148 258.968 286.148 242.32C286.148 225.672 272.652 212.176 256.004 212.176C239.356 212.176 225.86 225.672 225.86 242.32C225.86 258.968 239.356 272.464 256.004 272.464Z" fill="white"/>
<path d="M254.58 342.552L225.46 279.416C225.46 279.416 194.908 279.824 194.908 307.928C194.908 336.032 194.908 342.552 194.908 342.552C194.908 342.552 254.78 342.552 254.58 342.552Z" fill="white"/>
<path d="M257.428 342.552L286.548 279.416C286.548 279.416 317.1 279.824 317.1 307.928C317.1 336.032 317.1 342.552 317.1 342.552C317.1 342.552 257.228 342.552 257.428 342.552Z" fill="white"/>
<path d="M256.004 279.416H235.028L256.004 325.848L276.98 279.416H256.004Z" fill="#00C454"/>
</g>
<defs>
<clipPath id="clip0_10_337">
<rect width="512" height="512" fill="white" transform="translate(0.00402832)"/>
</clipPath>
</defs>
</svg>
