<svg width="60" height="60" viewBox="0 0 60 60" fill="none" xmlns="http://www.w3.org/2000/svg">
<g clip-path="url(#clip0_16_15060)">
<path d="M56.9053 56.9552V13.0283H2.99512V56.7555C2.99512 57.9535 3.89362 58.9518 4.99183 58.9518H15.9736H37.9369H43.927L56.9053 56.9552Z" fill="#FFDD09"/>
<path d="M56.9053 13.0284H2.99512V2.94514C2.99512 1.84693 3.79383 1.04834 4.89192 1.04834H55.1083C56.1066 1.04834 57.0051 1.84705 57.0051 2.94514V13.0284H56.9053Z" fill="#FFDD09"/>
<path d="M2.99513 56.7555V13.0284V2.94514C2.99513 1.84693 3.79384 1.04834 4.89193 1.04834H2.89534C1.79713 1.04834 0.998535 1.84705 0.998535 2.94514V13.0284V56.7555C0.998535 57.9535 1.99683 58.9518 3.19484 58.9518H4.99184C3.89363 58.9518 2.99513 57.9535 2.99513 56.7555Z" fill="white"/>
<path d="M57.0051 1.04834H55.0084C56.0067 1.04834 56.9052 1.84705 56.9052 2.94514V13.0284V51.9635C56.9052 53.1615 56.0067 54.1598 54.9084 54.1598H56.7055C57.9035 54.1598 58.9018 53.1615 58.9018 51.9635V13.0284V2.94514C58.902 1.84705 58.1033 1.04834 57.0051 1.04834Z" fill="#FD9808"/>
<path d="M9.98343 7.03798C9.98343 8.73519 8.68563 10.033 6.98842 10.033C5.29121 10.033 3.99341 8.73519 3.99341 7.03798C3.99341 5.34077 5.29121 4.04297 6.98842 4.04297C8.68563 4.04297 9.98343 5.34077 9.98343 7.03798Z" fill="#54C9FD"/>
<path d="M18.9685 7.03798C18.9685 8.73519 17.6707 10.033 15.9735 10.033C14.2763 10.033 12.9785 8.73519 12.9785 7.03798C12.9785 5.34077 14.2763 4.04297 15.9735 4.04297C17.6707 4.04297 18.9685 5.34077 18.9685 7.03798Z" fill="#54C9FD"/>
<path d="M27.9534 7.03798C27.9534 8.73519 26.6556 10.033 24.9584 10.033C23.2612 10.033 21.9634 8.73519 21.9634 7.03798C21.9634 5.34077 23.2612 4.04297 24.9584 4.04297C26.6556 4.04297 27.9534 5.34077 27.9534 7.03798Z" fill="#54C9FD"/>
<path d="M51.9136 49.0677C51.9136 45.1742 50.7156 41.9795 46.9219 41.9795C44.3262 41.9795 43.1282 43.3772 41.9302 45.4737C41.5309 45.3739 41.0317 45.274 40.6324 45.274C38.5359 45.274 36.8386 46.7715 36.4393 48.7682C34.6423 49.6667 33.4443 51.4637 33.4443 53.5602C33.4443 56.4555 35.7406 58.9513 38.6356 58.9513H46.4227C46.5225 58.9513 46.5225 58.9513 46.6224 58.9513C46.7223 58.9513 46.7222 58.9513 46.8221 58.9513H51.1149C53.8104 58.9513 55.9069 56.755 55.9069 53.9595C55.907 51.5636 54.2098 49.4671 51.9136 49.0677Z" fill="#54C9FD"/>
<path d="M54.9084 49.0682C54.9084 45.1747 51.8136 41.98 47.9201 41.98C47.7204 41.98 47.6206 41.98 47.4209 41.98C50.8152 42.2795 51.8136 45.3743 51.9134 49.0682C54.1097 49.4675 55.9067 51.564 55.9067 53.96C55.9067 56.6555 53.7104 58.9517 51.1147 58.9517H54.1097C56.8052 58.9517 58.9017 56.7554 58.9017 53.96C58.9018 51.5641 57.2046 49.4676 54.9084 49.0682Z" fill="#33A9F8"/>
<path d="M6.98843 11.0315C4.79212 11.0315 2.99512 9.23453 2.99512 7.03823C2.99512 4.84193 4.79212 3.04492 6.98843 3.04492C9.18473 3.04492 10.9817 4.84193 10.9817 7.03823C10.9817 9.23453 9.18484 11.0315 6.98843 11.0315ZM6.98843 5.04152C5.89022 5.04152 4.99171 5.94002 4.99171 7.03823C4.99171 8.13644 5.89022 9.03494 6.98843 9.03494C8.08663 9.03494 8.98514 8.13644 8.98514 7.03823C8.98514 5.94002 8.08663 5.04152 6.98843 5.04152Z" fill="black"/>
<path d="M15.9733 11.0315C13.777 11.0315 11.98 9.23453 11.98 7.03823C11.98 4.84193 13.777 3.04492 15.9733 3.04492C18.1696 3.04492 19.9666 4.84193 19.9666 7.03823C19.9666 9.23453 18.1697 11.0315 15.9733 11.0315ZM15.9733 5.04152C14.8751 5.04152 13.9766 5.94002 13.9766 7.03823C13.9766 8.13644 14.8751 9.03494 15.9733 9.03494C17.0715 9.03494 17.97 8.13644 17.97 7.03823C17.97 5.94002 17.0715 5.04152 15.9733 5.04152Z" fill="black"/>
<path d="M24.9584 11.0315C22.7621 11.0315 20.9651 9.23453 20.9651 7.03823C20.9651 4.84193 22.7621 3.04492 24.9584 3.04492C27.1547 3.04492 28.9517 4.84193 28.9517 7.03823C28.9517 9.23453 27.1548 11.0315 24.9584 11.0315ZM24.9584 5.04152C23.8602 5.04152 22.9617 5.94002 22.9617 7.03823C22.9617 8.13644 23.8602 9.03494 24.9584 9.03494C26.0566 9.03494 26.9551 8.13644 26.9551 7.03823C26.9551 5.94002 26.0566 5.04152 24.9584 5.04152Z" fill="black"/>
<path d="M59.9002 14.0264H0V2.9449C0 1.3476 1.2978 0.0498047 2.89522 0.0498047H57.1049C58.6024 0.0498047 59.9002 1.3476 59.9002 2.94502V14.0264ZM1.99671 12.0298H57.9036V2.9449C57.9036 2.4457 57.5043 2.0464 57.0051 2.0464H2.89522C2.39601 2.0464 1.99671 2.4457 1.99671 2.9449V12.0298Z" fill="black"/>
<path d="M18.9683 21.0147H5.99C5.391 21.0147 4.9917 20.6154 4.9917 20.0164C4.9917 19.4174 5.391 19.0181 5.99 19.0181H18.9683C19.5673 19.0181 19.9666 19.4174 19.9666 20.0164C19.9668 20.6152 19.5673 21.0147 18.9683 21.0147Z" fill="black"/>
<path d="M32.945 21.0147H22.9617C22.3627 21.0147 21.9634 20.6154 21.9634 20.0164C21.9634 19.4174 22.3627 19.0181 22.9617 19.0181H32.945C33.544 19.0181 33.9433 19.4174 33.9433 20.0164C33.9433 20.6152 33.544 21.0147 32.945 21.0147Z" fill="black"/>
<path d="M38.9352 21.0147H36.9385C36.3395 21.0147 35.9402 20.6154 35.9402 20.0164C35.9402 19.4174 36.3395 19.0181 36.9385 19.0181H38.9352C39.5342 19.0181 39.9335 19.4174 39.9335 20.0164C39.9335 20.6152 39.5342 21.0147 38.9352 21.0147Z" fill="black"/>
<path d="M43.927 25.0083H28.9519C28.3529 25.0083 27.9536 24.609 27.9536 24.01C27.9536 23.411 28.3529 23.0117 28.9519 23.0117H43.927C44.526 23.0117 44.9253 23.411 44.9253 24.01C44.9253 24.609 44.526 25.0083 43.927 25.0083Z" fill="black"/>
<path d="M24.9583 25.0083H10.9817C10.3827 25.0083 9.9834 24.609 9.9834 24.01C9.9834 23.411 10.3827 23.0117 10.9817 23.0117H24.9584C25.5575 23.0117 25.9567 23.411 25.9567 24.01C25.9567 24.609 25.5573 25.0083 24.9583 25.0083Z" fill="black"/>
<path d="M6.98829 25.0083H5.99C5.391 25.0083 4.9917 24.609 4.9917 24.01C4.9917 23.411 5.391 23.0117 5.99 23.0117H6.98829C7.5873 23.0117 7.98659 23.411 7.98659 24.01C7.98671 24.609 7.5873 25.0083 6.98829 25.0083Z" fill="black"/>
<path d="M14.975 29.0015H5.99C5.391 29.0015 4.9917 28.6022 4.9917 28.0032C4.9917 27.4042 5.391 27.0049 5.99 27.0049H14.975C15.574 27.0049 15.9733 27.4042 15.9733 28.0032C15.9733 28.6022 15.574 29.0015 14.975 29.0015Z" fill="black"/>
<path d="M20.965 29.0015H18.9683C18.3693 29.0015 17.97 28.6022 17.97 28.0032C17.97 27.4042 18.3693 27.0049 18.9683 27.0049H20.965C21.564 27.0049 21.9633 27.4042 21.9633 28.0032C21.9633 28.6022 21.564 29.0015 20.965 29.0015Z" fill="black"/>
<path d="M38.935 29.0015H24.9583C24.3593 29.0015 23.96 28.6022 23.96 28.0032C23.96 27.4042 24.3593 27.0049 24.9583 27.0049H38.935C39.534 27.0049 39.9333 27.4042 39.9333 28.0032C39.9333 28.6022 39.534 29.0015 38.935 29.0015Z" fill="black"/>
<path d="M18.9683 32.9951H5.99C5.391 32.9951 4.9917 32.5958 4.9917 31.9968C4.9917 31.3978 5.391 30.9985 5.99 30.9985H18.9683C19.5673 30.9985 19.9666 31.3978 19.9666 31.9968C19.9666 32.5958 19.5673 32.9951 18.9683 32.9951Z" fill="black"/>
<path d="M32.945 32.9951H22.9617C22.3627 32.9951 21.9634 32.5958 21.9634 31.9968C21.9634 31.3978 22.3627 30.9985 22.9617 30.9985H32.945C33.544 30.9985 33.9433 31.3978 33.9433 31.9968C33.9433 32.5958 33.544 32.9951 32.945 32.9951Z" fill="black"/>
<path d="M32.9452 36.9883H28.9519C28.3529 36.9883 27.9536 36.589 27.9536 35.99C27.9536 35.391 28.3529 34.9917 28.9519 34.9917H32.9452C33.5442 34.9917 33.9435 35.391 33.9435 35.99C33.9435 36.589 33.5442 36.9883 32.9452 36.9883Z" fill="black"/>
<path d="M24.9583 36.9883H10.9817C10.3827 36.9883 9.9834 36.589 9.9834 35.99C9.9834 35.391 10.3827 34.9917 10.9817 34.9917H24.9584C25.5575 34.9917 25.9567 35.391 25.9567 35.99C25.9567 36.589 25.5573 36.9883 24.9583 36.9883Z" fill="black"/>
<path d="M6.98829 36.9883H5.99C5.391 36.9883 4.9917 36.589 4.9917 35.99C4.9917 35.391 5.391 34.9917 5.99 34.9917H6.98829C7.5873 34.9917 7.98659 35.391 7.98659 35.99C7.98659 36.589 7.5873 36.9883 6.98829 36.9883Z" fill="black"/>
<path d="M14.975 40.9815H5.99C5.391 40.9815 4.9917 40.5822 4.9917 39.9832C4.9917 39.3842 5.391 38.9849 5.99 38.9849H14.975C15.574 38.9849 15.9733 39.3842 15.9733 39.9832C15.9733 40.5822 15.574 40.9815 14.975 40.9815Z" fill="black"/>
<path d="M20.965 40.9815H18.9683C18.3693 40.9815 17.97 40.5822 17.97 39.9832C17.97 39.3842 18.3693 38.9849 18.9683 38.9849H20.965C21.564 38.9849 21.9633 39.3842 21.9633 39.9832C21.9633 40.5822 21.564 40.9815 20.965 40.9815Z" fill="black"/>
<path d="M31.9468 40.9815H24.9585C24.3595 40.9815 23.9602 40.5822 23.9602 39.9832C23.9602 39.3842 24.3595 38.9849 24.9585 38.9849H31.9468C32.5458 38.9849 32.9451 39.3842 32.9451 39.9832C32.9451 40.5822 32.5458 40.9815 31.9468 40.9815Z" fill="black"/>
<path d="M18.9683 44.9751H5.99C5.391 44.9751 4.9917 44.5758 4.9917 43.9768C4.9917 43.3778 5.391 42.9785 5.99 42.9785H18.9683C19.5673 42.9785 19.9666 43.3778 19.9666 43.9768C19.9666 44.5758 19.5673 44.9751 18.9683 44.9751Z" fill="black"/>
<path d="M27.9534 44.9751H22.9617C22.3627 44.9751 21.9634 44.5758 21.9634 43.9768C21.9634 43.3778 22.3627 42.9785 22.9617 42.9785H27.9534C28.5524 42.9785 28.9517 43.3778 28.9517 43.9768C28.9517 44.5758 28.5524 44.9751 27.9534 44.9751Z" fill="black"/>
<path d="M24.9583 48.9683H10.9817C10.3827 48.9683 9.9834 48.569 9.9834 47.97C9.9834 47.371 10.3827 46.9717 10.9817 46.9717H24.9584C25.5575 46.9717 25.9567 47.371 25.9567 47.97C25.9567 48.569 25.5573 48.9683 24.9583 48.9683Z" fill="black"/>
<path d="M6.98829 48.9683H5.99C5.391 48.9683 4.9917 48.569 4.9917 47.97C4.9917 47.371 5.391 46.9717 5.99 46.9717H6.98829C7.5873 46.9717 7.98659 47.371 7.98659 47.97C7.98671 48.569 7.5873 48.9683 6.98829 48.9683Z" fill="black"/>
<path d="M14.975 52.9614H5.99C5.391 52.9614 4.9917 52.5621 4.9917 51.9631C4.9917 51.3641 5.391 50.9648 5.99 50.9648H14.975C15.574 50.9648 15.9733 51.3641 15.9733 51.9631C15.9733 52.5621 15.574 52.9614 14.975 52.9614Z" fill="black"/>
<path d="M20.965 52.9614H18.9683C18.3693 52.9614 17.97 52.5621 17.97 51.9631C17.97 51.3641 18.3693 50.9648 18.9683 50.9648H20.965C21.564 50.9648 21.9633 51.3641 21.9633 51.9631C21.9633 52.5621 21.564 52.9614 20.965 52.9614Z" fill="black"/>
<path d="M29.95 52.9614H24.9583C24.3593 52.9614 23.96 52.5621 23.96 51.9631C23.96 51.3641 24.3593 50.9648 24.9583 50.9648H29.95C30.549 50.9648 30.9483 51.3641 30.9483 51.9631C30.9483 52.5621 30.549 52.9614 29.95 52.9614Z" fill="black"/>
<path d="M54.1098 59.9498H49.817C49.7172 59.9498 49.7172 59.9498 49.6173 59.9498C49.5175 59.9498 49.5175 59.9498 49.4176 59.9498H38.6355C35.2412 59.9498 32.4458 57.0546 32.4458 53.5605C32.4458 51.2643 33.6438 49.1678 35.5406 48.0697C36.2394 45.8734 38.2361 44.276 40.6321 44.276C40.9316 44.276 41.2311 44.276 41.5306 44.3758C43.0281 42.2792 45.4241 40.9814 48.0199 40.9814C52.1131 40.9814 55.5074 44.1762 56.0066 48.2693C58.4026 49.068 59.9999 51.3641 59.9999 53.9598C59.9001 57.2543 57.3044 59.9498 54.1098 59.9498ZM49.5174 57.9531H49.7171H54.0099C56.1064 57.9531 57.8036 56.1561 57.8036 53.9598C57.8036 52.063 56.5058 50.3658 54.7088 50.0663C54.2096 49.9665 53.9101 49.5671 53.9101 49.068C53.9101 45.6737 51.2146 42.9782 47.9201 42.9782C45.8236 42.9782 43.8268 44.0764 42.7287 45.9732C42.529 46.3725 42.0299 46.5722 41.5307 46.4724C41.2312 46.3726 40.8319 46.2727 40.5324 46.2727C39.0349 46.2727 37.6372 47.3709 37.3377 48.9682C37.2379 49.2677 37.0382 49.5672 36.8385 49.667C35.341 50.3658 34.4425 51.9632 34.4425 53.5605C34.4425 55.9565 36.3393 57.9532 38.6355 57.9532H49.4176L49.5174 57.9531Z" fill="black"/>
<path d="M38.6356 59.9499H3.39431C1.49751 59.9499 0 58.4524 0 56.5555V12.0298H59.9002V53.9599H57.9035C57.9035 52.0631 56.6057 50.3659 54.8087 50.0664L54.01 49.8667V49.068C54.01 45.6737 51.3145 42.9782 48.02 42.9782C45.9235 42.9782 43.9267 44.0764 42.8286 45.9732L42.4293 46.672L41.6306 46.3725C39.8336 45.7735 37.8369 46.9715 37.4376 48.8683L37.3378 49.3675L36.9385 49.5672C35.441 50.266 34.5425 51.8634 34.5425 53.4607C34.5425 55.8567 36.4393 57.8534 38.7355 57.8534V59.9499H38.6356ZM1.99671 14.0264V56.5555C1.99671 57.3542 2.59571 57.9532 3.39442 57.9532H34.1431C33.1448 56.855 32.4459 55.2577 32.4459 53.5605C32.4459 51.2643 33.6439 49.1678 35.5407 48.0697C36.2395 45.8734 38.2362 44.276 40.6322 44.276C40.9317 44.276 41.2312 44.276 41.5307 44.3758C43.0282 42.2793 45.4242 40.9815 48.02 40.9815C52.1132 40.9815 55.5075 44.1762 56.0067 48.2693C56.7055 48.5688 57.4044 48.9681 58.0034 49.4673V14.0264H1.99671Z" fill="black"/>
</g>
<defs>
<clipPath id="clip0_16_15060">
<rect width="60" height="60" fill="white"/>
</clipPath>
</defs>
</svg>
