<svg width="60" height="60" viewBox="0 0 60 60" fill="none" xmlns="http://www.w3.org/2000/svg">
<path d="M34.3859 3.23012C34.3631 3.07571 34.3059 2.94879 34.2337 2.83792C34.5326 2.07299 33.8396 1.29972 32.9509 1.42201C29.3779 1.91426 25.9519 7.21847 23.7618 9.68436C20.8716 12.9383 17.4789 17.3615 13.2355 19.0893C13.0616 18.997 12.8612 18.9346 12.6027 18.9571C9.21318 19.2484 5.70843 19.3849 2.42573 20.3586C1.9588 19.8163 0.893387 20.0019 0.836565 20.9231C0.468457 26.8857 -1.1766 34.3216 1.50391 39.9482C1.58699 40.1218 1.69414 40.2432 1.81119 40.3358C1.73954 40.707 1.95108 41.1298 2.4668 41.1749C4.40029 41.3435 6.331 41.5794 8.2716 41.6186C9.72241 41.6486 11.5299 41.8098 12.7723 40.992C12.7914 41.0946 12.8257 41.1983 12.8902 41.3005C15.169 44.9041 18.4063 47.9586 21.5673 50.7771C22.7411 51.8231 25.7351 55.0564 27.9928 55.5511C29.1141 56.7839 30.3503 57.8743 31.9102 58.5309C32.3802 58.7291 33.0503 58.4092 33.2714 57.9769C33.319 57.8839 33.3604 57.7879 33.3928 57.6884C33.4465 57.5275 33.4388 57.346 33.4064 57.1656C33.4255 57.1418 33.4552 57.1372 33.4718 57.11C34.3992 55.5848 33.8986 52.8783 33.9341 51.144C34.0296 46.5001 34.2081 41.8579 34.2766 37.2134C34.3467 32.5046 34.0388 27.8402 34.2927 23.1224C34.6521 16.4366 35.3695 9.89435 34.3859 3.23012ZM32.3579 9.03708C31.6566 8.26381 30.8901 7.53686 30.107 6.82936C30.7919 6.21049 31.4951 5.61016 32.1785 4.99685C32.298 6.34174 32.3431 7.6891 32.3579 9.03708ZM20.2617 17.2235C21.139 18.9698 23.5481 20.269 25.0372 21.3363C27.042 22.7732 29.2244 24.6659 31.5038 25.9076C31.4716 26.672 31.4429 27.4363 31.4358 28.2009C29.8257 26.4722 27.3005 25.227 25.4232 24.0751C22.7621 22.4427 19.9636 20.9885 17.0849 19.7718C18.233 19.0649 19.2951 18.1434 20.2617 17.2235ZM13.4226 21.0256C14.3698 20.9916 15.2953 20.7026 16.1868 20.2644C18.9211 21.4474 21.479 22.88 23.96 24.5306C26.4537 26.1896 28.7238 28.8837 31.4361 30.0989C31.451 31.4095 31.4834 32.7207 31.5167 34.032C29.4798 31.1251 26.0921 28.9075 23.2797 26.8724C20.2033 24.6461 16.8076 22.5863 13.2509 21.1609C13.3078 21.1151 13.3748 21.0787 13.4226 21.0256ZM2.67926 21.9422C2.70737 21.9412 2.73516 21.9406 2.76326 21.9397C2.73423 22.1006 2.78704 22.2781 2.96399 22.3973C13.2062 29.2938 21.5207 38.1441 30.93 46.0365C30.9751 46.0742 31.0232 46.0896 31.0699 46.115C30.993 47.3391 30.9321 48.6179 30.9145 49.8603C22.512 40.4748 13.0113 32.26 2.73547 24.9926C2.72126 23.9785 2.71045 22.9665 2.67926 21.9422ZM3.47354 39.6607C3.53808 39.4822 3.57575 39.2923 3.54209 39.0885C3.40807 38.2809 3.30245 37.4771 3.21197 36.6757C4.1835 37.6627 5.23996 38.5956 6.37485 39.355C5.40765 39.452 4.44044 39.5594 3.47354 39.6607ZM8.5449 39.1642C7.38561 38.4205 6.19543 37.7504 5.1013 36.8829C4.37713 36.3095 3.7033 35.6764 3.05046 35.022C2.95442 33.8566 2.89543 32.6936 2.85436 31.5318C5.90237 33.9588 8.88892 36.4438 11.8128 38.9921C10.7653 38.8356 9.59858 39.0709 8.5449 39.1642ZM31.2811 55.4591C22.7556 46.2166 13.4656 37.5444 2.83614 30.7635C2.7926 29.2342 2.77561 27.7031 2.75678 26.1658C12.6892 33.9788 21.8891 42.6522 30.4427 51.9537C30.598 52.1227 30.7709 52.1897 30.9429 52.2104C30.9985 53.5191 31.1258 54.7044 31.3725 55.6083C31.3416 55.5585 31.3253 55.507 31.2811 55.4591ZM31.1965 44.3081C22.9511 35.937 14.1227 27.7806 3.89291 21.907C5.07721 21.8733 6.26337 21.8338 7.4483 21.7837C7.45015 21.785 7.45015 21.7881 7.45169 21.789C11.9542 24.3747 15.9259 27.5456 19.8481 30.9833C23.6095 34.2806 27.0439 38.5268 31.0659 41.4509C31.1891 41.5408 31.3083 41.5698 31.4228 41.5726C31.3558 42.3573 31.2749 43.2868 31.1965 44.3081ZM31.5649 39.6428C30.5579 38.1614 28.8597 36.9101 27.6331 35.7582C24.7132 33.0166 21.6785 30.4049 18.561 27.8918C17.3582 26.9221 13.1771 22.9616 10.1254 21.6417C10.8693 21.5923 11.6117 21.5317 12.3529 21.461C15.6585 23.0777 18.6969 24.9716 21.6665 27.171C25.0452 29.6737 27.6979 32.9428 30.9701 35.4979C31.1483 35.6369 31.3614 35.6662 31.5544 35.6285C31.5803 36.9277 31.5946 38.2272 31.5702 39.527C31.5692 39.5594 31.5661 39.6058 31.5649 39.6428ZM31.6205 23.7262C30.1521 22.7667 28.4335 21.9752 27.138 21.1519C25.6221 20.1884 24.1191 19.202 22.6506 18.1675C22.1843 17.8389 21.206 17.3285 20.6721 16.8288C21.1967 16.3155 21.6989 15.8103 22.1451 15.3576C22.3097 15.1908 22.4613 15.0114 22.6241 14.8425C24.3887 16.1451 26.0575 17.5604 27.7736 18.9377C28.9696 19.8981 30.308 21.0015 31.7681 21.6553C31.7165 22.3461 31.6665 23.0363 31.6205 23.7262ZM31.8978 19.8956C30.5671 19.1085 29.1898 18.3756 27.9397 17.4458C26.4123 16.3097 24.9377 15.109 23.3643 14.047C23.9177 13.4556 24.4591 12.8531 25.0032 12.2531C26.4827 13.2484 27.9144 14.3107 29.3229 15.4045C30.1833 16.0731 31.076 16.9239 32.0738 17.4538C32.0173 18.2676 31.9586 19.0819 31.8978 19.8956ZM32.1896 15.6445C31.3506 15.067 30.4244 14.5615 29.641 14.0223C28.3572 13.1394 27.0855 12.2466 25.7731 11.4091C26.3021 10.8211 26.8314 10.2347 27.3604 9.6473C28.108 10.4203 28.8693 11.1787 29.6941 11.8735C30.4198 12.485 31.3271 13.2549 32.2959 13.4967C32.2653 14.2128 32.2323 14.9287 32.1896 15.6445ZM30.4899 10.8421C29.6385 10.2458 28.8544 9.54971 28.0889 8.83851C28.1726 8.74648 28.255 8.65353 28.3384 8.5615C28.6315 8.2391 28.9372 7.92812 29.25 7.62456C30.1561 8.62821 31.0788 9.62784 32.1097 10.466C32.189 10.5308 32.2705 10.5685 32.3515 10.5917C32.3465 11.0231 32.357 11.4539 32.3456 11.8853C31.7267 11.5437 31.068 11.2467 30.4899 10.8421Z" fill="black"/>
<path d="M37.5541 22.6261C35.9658 21.8426 34.5684 24.1977 36.1595 25.0114C38.9169 26.4211 39.9313 30.6368 36.5063 31.96C34.9548 32.5595 35.56 35.0272 37.2073 34.5016C42.9299 32.6765 42.6199 25.1253 37.5541 22.6261Z" fill="black"/>
<path d="M45.4672 17.3809C44.0852 16.1802 42.0585 18.194 43.4512 19.3968C49.6464 24.7474 47.2759 34.0733 41.9501 39.048C41.1156 39.8274 42.1851 41.1495 43.1483 40.6001C51.0935 36.0719 52.3056 23.3228 45.4672 17.3809Z" fill="black"/>
<path d="M48.8029 10.6628C47.5396 10.5566 47.2397 12.3214 48.1921 12.9178C53.907 16.4951 56.6413 20.3568 57.0403 27.3203C57.4146 33.8511 54.9011 40.6731 48.97 43.8632C47.8839 44.4475 48.6374 46.3201 49.8196 45.8779C57.2972 43.0822 60.0379 34.6874 59.9993 27.3206C59.966 20.8092 56.3519 11.2974 48.8029 10.6628Z" fill="black"/>
</svg>
