<svg width="60" height="61" viewBox="0 0 60 61" fill="none" xmlns="http://www.w3.org/2000/svg">
<g clip-path="url(#clip0_13_588)">
<path d="M3.30399 15.5321L20.974 6.43457V9.06145L6.08461 16.5221V16.5989L20.974 24.0633V26.6902L3.30399 17.5889V15.5321Z" fill="#FF6600"/>
<path d="M23.4321 28.2149L34.054 0.607422H36.6452L25.984 28.2149H23.4321Z" fill="#FF6600"/>
<path d="M56.704 17.6302L39.034 26.6921V24.0633L54.0359 16.5989V16.5221L39.034 9.06144V6.43457L56.704 15.4964V17.6302Z" fill="#FF6600"/>
<path d="M30.004 45.1405C33.6812 45.1405 36.6621 42.1595 36.6621 38.4823C36.6621 34.8052 33.6812 31.8242 30.004 31.8242C26.3268 31.8242 23.3459 34.8052 23.3459 38.4823C23.3459 42.1595 26.3268 45.1405 30.004 45.1405Z" fill="black"/>
<path d="M29.689 60.6074L23.2559 46.6611C23.2559 46.6611 16.5078 46.7511 16.5078 52.9593C16.5078 59.1674 16.5078 60.6074 16.5078 60.6074C16.5078 60.6074 29.734 60.6074 29.689 60.6074Z" fill="black"/>
<path d="M30.319 60.6074L36.7521 46.6611C36.7521 46.6611 43.5002 46.7511 43.5002 52.9593C43.5002 59.1674 43.5002 60.6074 43.5002 60.6074C43.5002 60.6074 30.274 60.6074 30.319 60.6074Z" fill="black"/>
<path d="M30.004 46.6611H25.3709L30.004 56.9193L34.6371 46.6611H30.004Z" fill="#22ACDD"/>
</g>
<defs>
<clipPath id="clip0_13_588">
<rect width="60" height="60" fill="white" transform="translate(0.0039978 0.607422)"/>
</clipPath>
</defs>
</svg>
