<svg width="60" height="60" viewBox="0 0 60 60" fill="none" xmlns="http://www.w3.org/2000/svg">
<g clip-path="url(#clip0_10_207)">
<path d="M53.9133 37.1919V47.6887H45.4899V37.1919H53.9133ZM51.7103 40.3669C51.7103 39.8304 51.2748 39.3949 50.7383 39.3949H48.6649C48.1284 39.3949 47.693 39.8304 47.693 40.3669C47.693 40.9034 48.1284 41.3388 48.6649 41.3388H50.7383C51.2748 41.3388 51.7103 40.9034 51.7103 40.3669ZM51.7103 44.5137C51.7103 43.9772 51.2748 43.5417 50.7383 43.5417H48.6649C48.1284 43.5417 47.693 43.9772 47.693 44.5137C47.693 45.0502 48.1284 45.4856 48.6649 45.4856H50.7383C51.2748 45.4856 51.7103 45.0503 51.7103 44.5137Z" fill="white"/>
<path d="M39.3992 37.1919V47.6887H30.9758V37.1919H39.3992ZM37.1962 40.3669C37.1962 39.8304 36.7607 39.3949 36.2242 39.3949H34.1508C33.6143 39.3949 33.1789 39.8304 33.1789 40.3669C33.1789 40.9034 33.6143 41.3388 34.1508 41.3388H36.2242C36.7608 41.3388 37.1962 40.9034 37.1962 40.3669ZM37.1962 44.5137C37.1962 43.9772 36.7607 43.5417 36.2242 43.5417H34.1508C33.6143 43.5417 33.1789 43.9772 33.1789 44.5137C33.1789 45.0502 33.6143 45.4856 34.1508 45.4856H36.2242C36.7608 45.4856 37.1962 45.0503 37.1962 44.5137Z" fill="white"/>
<path d="M24.8853 37.1919V47.6887H6.09473V37.1919H24.8853ZM22.6822 40.3669C22.6822 39.8304 22.2467 39.3949 21.7103 39.3949H9.26971C8.73324 39.3949 8.29777 39.8304 8.29777 40.3669C8.29777 40.9034 8.73324 41.3388 9.26971 41.3388H21.7103C22.2467 41.3388 22.6822 40.9034 22.6822 40.3669ZM22.6822 44.5137C22.6822 43.9772 22.2467 43.5417 21.7103 43.5417H9.26971C8.73324 43.5417 8.29777 43.9772 8.29777 44.5137C8.29777 45.0502 8.73324 45.4856 9.26971 45.4856H21.7103C22.2467 45.4856 22.6822 45.0503 22.6822 44.5137Z" fill="white"/>
<path d="M58.0601 24.7515V48.6608C58.0601 50.4116 56.6359 51.8357 54.8851 51.8357H5.12277C3.37198 51.8357 1.94778 50.4116 1.94778 48.6608V24.7515H58.0601ZM55.8571 48.6608V27.9265C55.8571 27.39 55.4216 26.9545 54.8851 26.9545H44.518C43.9815 26.9545 43.546 27.39 43.546 27.9265V48.6608C43.546 49.1972 43.9815 49.6327 44.518 49.6327H54.8851C55.4217 49.6327 55.8571 49.1972 55.8571 48.6608ZM41.3431 48.6608V27.9265C41.3431 27.39 40.9076 26.9545 40.3712 26.9545H30.004C29.4675 26.9545 29.0321 27.39 29.0321 27.9265V48.6608C29.0321 49.1972 29.4675 49.6327 30.004 49.6327H40.3712C40.9076 49.6327 41.3431 49.1972 41.3431 48.6608ZM26.829 48.6608V27.9265C26.829 27.39 26.3936 26.9545 25.8571 26.9545H5.12277C4.58629 26.9545 4.15082 27.39 4.15082 27.9265V48.6608C4.15082 49.1972 4.58629 49.6327 5.12277 49.6327H25.8571C26.3937 49.6327 26.829 49.1972 26.829 48.6608Z" fill="white"/>
<path d="M58.0601 11.339V14.514H1.94791V11.339C1.94791 9.58825 3.3721 8.16406 5.12289 8.16406H54.8853C56.6359 8.16406 58.0601 9.58825 58.0601 11.339ZM16.4619 11.339C16.4619 10.8026 16.0264 10.3671 15.4899 10.3671H14.4532C13.9167 10.3671 13.4813 10.8026 13.4813 11.339C13.4813 11.8755 13.9167 12.311 14.4532 12.311H15.4899C16.0265 12.311 16.4619 11.8755 16.4619 11.339ZM12.3151 11.339C12.3151 10.8026 11.8796 10.3671 11.3431 10.3671H10.3064C9.76993 10.3671 9.33446 10.8026 9.33446 11.339C9.33446 11.8755 9.76993 12.311 10.3064 12.311H11.3431C11.8796 12.311 12.3151 11.8755 12.3151 11.339ZM8.16813 11.339C8.16813 10.8026 7.73266 10.3671 7.19618 10.3671H6.15948C5.623 10.3671 5.18753 10.8026 5.18753 11.339C5.18753 11.8755 5.623 12.311 6.15948 12.311H7.19618C7.73278 12.311 8.16813 11.8755 8.16813 11.339Z" fill="white"/>
<path d="M53.9133 28.8984V35.2483H45.4899V28.8984H53.9133ZM51.7102 32.0734C51.7102 31.5369 51.2748 31.1015 50.7383 31.1015H48.6649C48.1284 31.1015 47.6929 31.5369 47.6929 32.0734C47.6929 32.6099 48.1284 33.0454 48.6649 33.0454H50.7383C51.2748 33.0454 51.7102 32.6099 51.7102 32.0734Z" fill="#C2E95D"/>
<path d="M39.3992 28.8984V35.2483H30.9758V28.8984H39.3992ZM37.1961 32.0734C37.1961 31.5369 36.7607 31.1015 36.2242 31.1015H34.1508C33.6143 31.1015 33.1788 31.5369 33.1788 32.0734C33.1788 32.6099 33.6143 33.0454 34.1508 33.0454H36.2242C36.7608 33.0454 37.1961 32.6099 37.1961 32.0734Z" fill="#C2E95D"/>
<path d="M24.8852 28.8984V35.2483H6.0947V28.8984H24.8852ZM22.6822 32.0734C22.6822 31.5369 22.2467 31.1015 21.7102 31.1015H9.26968C8.73321 31.1015 8.29774 31.5369 8.29774 32.0734C8.29774 32.6099 8.73321 33.0454 9.26968 33.0454H21.7102C22.2467 33.0454 22.6822 32.6099 22.6822 32.0734Z" fill="#C2E95D"/>
<path d="M58.0601 16.458V22.8079H1.94788V16.458H58.0601ZM55.8571 19.633C55.8571 19.0965 55.4216 18.661 54.8851 18.661H50.7383C50.2018 18.661 49.7663 19.0965 49.7663 19.633C49.7663 20.1695 50.2018 20.6049 50.7383 20.6049H54.8851C55.4217 20.6049 55.8571 20.1695 55.8571 19.633ZM47.5633 19.633C47.5633 19.0965 47.1278 18.661 46.5914 18.661H42.4445C41.9081 18.661 41.4726 19.0965 41.4726 19.633C41.4726 20.1695 41.9081 20.6049 42.4445 20.6049H46.5914C47.128 20.6049 47.5633 20.1695 47.5633 19.633ZM39.2696 19.633C39.2696 19.0965 38.8341 18.661 38.2976 18.661H34.1508C33.6143 18.661 33.1788 19.0965 33.1788 19.633C33.1788 20.1695 33.6143 20.6049 34.1508 20.6049H38.2976C38.8342 20.6049 39.2696 20.1695 39.2696 19.633ZM30.9759 19.633C30.9759 19.0965 30.5405 18.661 30.004 18.661H25.8572C25.3207 18.661 24.8852 19.0965 24.8852 19.633C24.8852 20.1695 25.3207 20.6049 25.8572 20.6049H30.004C30.5405 20.6049 30.9759 20.1695 30.9759 19.633ZM22.6822 19.633C22.6822 19.0965 22.2467 18.661 21.7102 18.661H5.12274C4.58627 18.661 4.1508 19.0965 4.1508 19.633C4.1508 20.1695 4.58627 20.6049 5.12274 20.6049H21.7102C22.2467 20.6049 22.6822 20.1695 22.6822 19.633Z" fill="#C2E95D"/>
<path d="M60.004 11.339V48.6608C60.004 51.4832 57.7077 53.7795 54.8852 53.7795H5.12276C2.3003 53.7795 0.0039978 51.4832 0.0039978 48.6608V11.339C0.0039978 8.51652 2.3003 6.22021 5.12276 6.22021H54.8851C57.7076 6.22021 60.004 8.51652 60.004 11.339ZM58.0601 48.6608V24.7515H1.94789V48.6608C1.94789 50.4116 3.37208 51.8358 5.12288 51.8358H54.8852C56.6359 51.8356 58.0601 50.4115 58.0601 48.6608ZM58.0601 22.8076V16.4577H1.94789V22.8076H58.0601ZM58.0601 14.514V11.339C58.0601 9.58818 56.6359 8.16399 54.8851 8.16399H5.12276C3.37196 8.16399 1.94777 9.58818 1.94777 11.339V14.514H58.0601Z" fill="#535757"/>
<path d="M55.8571 27.9265V48.6608C55.8571 49.1973 55.4216 49.6328 54.8851 49.6328H44.518C43.9815 49.6328 43.546 49.1973 43.546 48.6608V27.9265C43.546 27.3901 43.9815 26.9546 44.518 26.9546H54.8851C55.4217 26.9546 55.8571 27.3899 55.8571 27.9265ZM53.9133 47.6889V37.1921H45.4899V47.6889H53.9133ZM53.9133 35.2483V28.8985H45.4899V35.2483H53.9133Z" fill="#535757"/>
<path d="M54.8851 18.6606C55.4216 18.6606 55.8571 19.0961 55.8571 19.6326C55.8571 20.1691 55.4216 20.6045 54.8851 20.6045H50.7383C50.2018 20.6045 49.7664 20.1691 49.7664 19.6326C49.7664 19.0961 50.2018 18.6606 50.7383 18.6606H54.8851Z" fill="#535757"/>
<path d="M50.7383 31.1016C51.2748 31.1016 51.7103 31.537 51.7103 32.0735C51.7103 32.61 51.2748 33.0455 50.7383 33.0455H48.6649C48.1284 33.0455 47.693 32.61 47.693 32.0735C47.693 31.537 48.1284 31.1016 48.6649 31.1016H50.7383Z" fill="#535757"/>
<path d="M50.7383 39.395C51.2748 39.395 51.7103 39.8305 51.7103 40.367C51.7103 40.9034 51.2748 41.3389 50.7383 41.3389H48.6649C48.1284 41.3389 47.693 40.9034 47.693 40.367C47.693 39.8305 48.1284 39.395 48.6649 39.395H50.7383Z" fill="#535757"/>
<path d="M50.7383 43.542C51.2748 43.542 51.7103 43.9775 51.7103 44.5139C51.7103 45.0504 51.2748 45.4859 50.7383 45.4859H48.6649C48.1284 45.4859 47.693 45.0504 47.693 44.5139C47.693 43.9775 48.1284 43.542 48.6649 43.542H50.7383Z" fill="#535757"/>
<path d="M46.5915 18.6606C47.128 18.6606 47.5634 19.0961 47.5634 19.6326C47.5634 20.1691 47.128 20.6045 46.5915 20.6045H42.4447C41.9082 20.6045 41.4727 20.1691 41.4727 19.6326C41.4727 19.0961 41.9082 18.6606 42.4447 18.6606H46.5915Z" fill="#535757"/>
<path d="M41.3431 27.9265V48.6608C41.3431 49.1973 40.9076 49.6328 40.3711 49.6328H30.004C29.4675 49.6328 29.032 49.1973 29.032 48.6608V27.9265C29.032 27.3901 29.4675 26.9546 30.004 26.9546H40.3711C40.9076 26.9546 41.3431 27.3899 41.3431 27.9265ZM39.3992 47.6889V37.1921H30.9758V47.6889H39.3992ZM39.3992 35.2483V28.8985H30.9758V35.2483H39.3992Z" fill="#535757"/>
<path d="M38.2977 18.6606C38.8342 18.6606 39.2697 19.0961 39.2697 19.6326C39.2697 20.1691 38.8342 20.6045 38.2977 20.6045H34.1509C33.6145 20.6045 33.179 20.1691 33.179 19.6326C33.179 19.0961 33.6145 18.6606 34.1509 18.6606H38.2977Z" fill="#535757"/>
<path d="M36.2242 31.1016C36.7607 31.1016 37.1962 31.537 37.1962 32.0735C37.1962 32.61 36.7607 33.0455 36.2242 33.0455H34.1508C33.6143 33.0455 33.1789 32.61 33.1789 32.0735C33.1789 31.537 33.6143 31.1016 34.1508 31.1016H36.2242Z" fill="#535757"/>
<path d="M36.2242 39.395C36.7607 39.395 37.1962 39.8305 37.1962 40.367C37.1962 40.9034 36.7607 41.3389 36.2242 41.3389H34.1508C33.6143 41.3389 33.1789 40.9034 33.1789 40.367C33.1789 39.8305 33.6143 39.395 34.1508 39.395H36.2242Z" fill="#535757"/>
<path d="M36.2242 43.542C36.7607 43.542 37.1962 43.9775 37.1962 44.5139C37.1962 45.0504 36.7607 45.4859 36.2242 45.4859H34.1508C33.6143 45.4859 33.1789 45.0504 33.1789 44.5139C33.1789 43.9775 33.6143 43.542 34.1508 43.542H36.2242Z" fill="#535757"/>
<path d="M30.004 18.6606C30.5405 18.6606 30.9759 19.0961 30.9759 19.6326C30.9759 20.1691 30.5405 20.6045 30.004 20.6045H25.8572C25.3207 20.6045 24.8852 20.1691 24.8852 19.6326C24.8852 19.0961 25.3207 18.6606 25.8572 18.6606H30.004Z" fill="#535757"/>
<path d="M26.829 27.9265V48.6608C26.829 49.1973 26.3935 49.6328 25.8571 49.6328H5.12276C4.58629 49.6328 4.15082 49.1973 4.15082 48.6608V27.9265C4.15082 27.3901 4.58629 26.9546 5.12276 26.9546H25.8571C26.3937 26.9546 26.829 27.3899 26.829 27.9265ZM24.8852 47.6889V37.1921H6.09471V47.6889H24.8852ZM24.8852 35.2483V28.8985H6.09471V35.2483H24.8852Z" fill="#535757"/>
<path d="M21.7103 18.6606C22.2467 18.6606 22.6822 19.0961 22.6822 19.6326C22.6822 20.1691 22.2467 20.6045 21.7103 20.6045H5.12276C4.58629 20.6045 4.15082 20.1691 4.15082 19.6326C4.15082 19.0961 4.58629 18.6606 5.12276 18.6606H21.7103Z" fill="#535757"/>
<path d="M21.7102 31.1016C22.2467 31.1016 22.6822 31.537 22.6822 32.0735C22.6822 32.61 22.2467 33.0455 21.7102 33.0455H9.26968C8.7332 33.0455 8.29773 32.61 8.29773 32.0735C8.29773 31.537 8.7332 31.1016 9.26968 31.1016H21.7102Z" fill="#535757"/>
<path d="M21.7102 39.395C22.2467 39.395 22.6822 39.8305 22.6822 40.367C22.6822 40.9034 22.2467 41.3389 21.7102 41.3389H9.26968C8.7332 41.3389 8.29773 40.9034 8.29773 40.367C8.29773 39.8305 8.7332 39.395 9.26968 39.395H21.7102Z" fill="#535757"/>
<path d="M21.7102 43.542C22.2467 43.542 22.6822 43.9775 22.6822 44.5139C22.6822 45.0504 22.2467 45.4859 21.7102 45.4859H9.26968C8.7332 45.4859 8.29773 45.0504 8.29773 44.5139C8.29773 43.9775 8.7332 43.542 9.26968 43.542H21.7102Z" fill="#535757"/>
<path d="M15.4899 10.3672C16.0264 10.3672 16.4619 10.8027 16.4619 11.3391C16.4619 11.8756 16.0264 12.3111 15.4899 12.3111H14.4532C13.9167 12.3111 13.4813 11.8756 13.4813 11.3391C13.4813 10.8027 13.9167 10.3672 14.4532 10.3672H15.4899Z" fill="#535757"/>
<path d="M11.3431 10.3672C11.8796 10.3672 12.315 10.8027 12.315 11.3391C12.315 11.8756 11.8796 12.3111 11.3431 12.3111H10.3064C9.76991 12.3111 9.33444 11.8756 9.33444 11.3391C9.33444 10.8027 9.76991 10.3672 10.3064 10.3672H11.3431Z" fill="#535757"/>
<path d="M7.19618 10.3672C7.73266 10.3672 8.16813 10.8027 8.16813 11.3391C8.16813 11.8756 7.73266 12.3111 7.19618 12.3111H6.15948C5.623 12.3111 5.18753 11.8756 5.18753 11.3391C5.18753 10.8027 5.623 10.3672 6.15948 10.3672H7.19618Z" fill="#535757"/>
</g>
<defs>
<clipPath id="clip0_10_207">
<rect width="60" height="60" fill="white" transform="translate(0.0039978)"/>
</clipPath>
</defs>
</svg>
