<svg width="61" height="60" viewBox="0 0 61 60" fill="none" xmlns="http://www.w3.org/2000/svg">
<path d="M44.3662 52.3477H33.9951C32.7881 52.3477 31.6865 52.7812 30.9014 53.4727C30.1045 54.1758 29.624 55.1367 29.624 56.2031H48.749C48.749 54.082 46.7803 52.3477 44.3662 52.3477Z" fill="#2B79C2"/>
<path d="M25.0537 49.2305C24.6084 49.0898 24.1162 49.0195 23.6123 49.0195H13.2412C12.0342 49.0195 10.9326 49.4531 10.1475 50.1445C9.35059 50.8477 8.87012 51.8086 8.87012 52.875H27.9951C27.9951 51.1875 26.7646 49.7578 25.0537 49.2305Z" fill="#2B79C2"/>
<path d="M40.0068 13.8047L39.3857 13.4531L39.1865 13.8047L38.0146 15.8437H38.6943C39.8662 15.8437 40.9678 16.3008 41.7881 17.1211C42.6318 17.9648 43.0771 19.0781 43.0654 20.2617C43.042 22.6523 41.0498 24.5859 38.624 24.5859H32.9639L31.874 26.4727L27.96 33.2461L27.9365 33.2813L27.9834 33.1992L27.9365 33.293L32.249 36.375L32.4014 36.4805L37.0889 39.832L40.7451 42.4453L35.9756 50.6953H42.292L45.21 45.6328L46.8271 42.832C47.4717 41.7188 47.1553 40.3125 46.124 39.5625L43.4873 37.6758L39.8311 35.0625L49.0889 19.0312L44.999 16.6758L40.0068 13.8047Z" fill="#3B4652"/>
<path d="M17.167 22.9453H38.6123C40.124 22.9453 41.4014 21.75 41.4131 20.2383C41.4248 19.4648 41.1201 18.7734 40.6162 18.2695C40.124 17.7773 39.4326 17.4727 38.6826 17.4727H17.167C15.6553 17.4727 14.4365 18.6914 14.4365 20.2031C14.4365 21.7266 15.6553 22.9453 17.167 22.9453Z" fill="#3B4652"/>
<path d="M23.6123 47.3789C24.2686 47.3789 24.9131 47.4727 25.5342 47.6602C25.6514 47.6953 25.7686 47.7422 25.8857 47.7773L31.5811 37.9102L31.2998 37.6992L27.1162 34.7109L19.8037 47.3672H23.6123V47.3789Z" fill="#3B4652"/>
<path d="M37.2881 13.8047H27.6318C26.6123 13.8047 25.6982 14.2148 25.0303 14.8828C24.749 15.1641 24.5146 15.4922 24.3389 15.8437H36.1045L37.2881 13.8047Z" fill="#3B4652"/>
<path d="M50.6475 15.0586C53.7605 15.0586 56.2842 12.5349 56.2842 9.42188C56.2842 6.3088 53.7605 3.78516 50.6475 3.78516C47.5344 3.78516 45.0107 6.3088 45.0107 9.42188C45.0107 12.5349 47.5344 15.0586 50.6475 15.0586Z" fill="#2B79C2"/>
<path d="M13.5928 34.0781C13.1357 34.0781 12.7725 34.4414 12.7725 34.8984C12.7725 35.3555 13.1357 35.7188 13.5928 35.7188H18.4326C18.8896 35.7188 19.2529 35.3555 19.2529 34.8984C19.2529 34.4414 18.8896 34.0781 18.4326 34.0781H13.5928Z" fill="#3B4652"/>
<path d="M26.4482 26.6016C26.4482 26.1445 26.085 25.7812 25.6279 25.7812H6.91309C6.45605 25.7812 6.09277 26.1445 6.09277 26.6016C6.09277 27.0586 6.45605 27.4219 6.91309 27.4219H25.6396C26.085 27.4219 26.4482 27.0586 26.4482 26.6016Z" fill="#3B4652"/>
<path d="M16.1709 13.8047C16.1709 13.3477 15.8076 12.9844 15.3506 12.9844H12.6553C12.1982 12.9844 11.835 13.3477 11.835 13.8047C11.835 14.2617 12.1982 14.625 12.6553 14.625H15.3506C15.7959 14.625 16.1709 14.25 16.1709 13.8047Z" fill="#3B4652"/>
<path d="M10.8975 11.0156H22.2646C22.7217 11.0156 23.085 10.6523 23.085 10.1953C23.085 9.73828 22.7217 9.375 22.2646 9.375H10.8975C10.4404 9.375 10.0771 9.73828 10.0771 10.1953C10.0771 10.6523 10.4404 11.0156 10.8975 11.0156Z" fill="#3B4652"/>
<path d="M8.43652 20.2969C8.43652 19.8398 8.07324 19.4766 7.61621 19.4766H5.38965C4.93262 19.4766 4.56934 19.8398 4.56934 20.2969C4.56934 20.7539 4.93262 21.1172 5.38965 21.1172H7.61621C8.06152 21.1172 8.43652 20.7539 8.43652 20.2969Z" fill="#3B4652"/>
</svg>
