<svg width="60" height="60" viewBox="0 0 60 60" fill="none" xmlns="http://www.w3.org/2000/svg">
<path d="M48.754 5.625V54.375C48.754 54.8723 48.5565 55.3492 48.2048 55.7008C47.8532 56.0525 47.3763 56.25 46.879 56.25H13.129C12.6317 56.25 12.1548 56.0525 11.8032 55.7008C11.4515 55.3492 11.254 54.8723 11.254 54.375V16.875C11.2531 16.4369 11.4057 16.0123 11.6853 15.675L21.0603 4.425C21.2365 4.21335 21.4573 4.04313 21.7068 3.92647C21.9564 3.80981 22.2285 3.74956 22.504 3.75H46.879C47.3763 3.75 47.8532 3.94755 48.2048 4.29918C48.5565 4.65081 48.754 5.12772 48.754 5.625Z" fill="#8C9EFF"/>
<path d="M26.254 3.75V18.75C26.254 19.2473 26.0565 19.7242 25.7048 20.0758C25.3532 20.4275 24.8763 20.625 24.379 20.625H11.254V16.875C11.2531 16.4369 11.4057 16.0123 11.6853 15.675L21.0603 4.425C21.2365 4.21335 21.4573 4.04313 21.7068 3.92647C21.9564 3.80981 22.2285 3.74956 22.504 3.75H26.254Z" fill="#5F7CF9"/>
</svg>
