<svg width="60" height="60" viewBox="0 0 60 60" fill="none" xmlns="http://www.w3.org/2000/svg">
<path d="M40.3044 42.1705C40.3044 50.8166 37.2182 56.4774 33.985 56.2061C28.6817 55.7613 30.5239 50.0455 29.8887 40.7098C29.3028 32.0836 29.0631 25.0863 32.9356 24.9592C37.8288 24.7992 40.3044 33.5244 40.3044 42.1705Z" fill="#8EC2B1"/>
<path d="M39.542 42.996C40.8756 42.6785 41.8916 41.7896 42.5889 40.0113C43.2861 38.2329 44.0496 34.3587 44.6209 33.089C45.1922 31.8193 48.75 29.3413 50.5928 32.5781C52.4355 35.8148 50.6561 39.5642 47.2904 42.2953C43.9248 45.0263 38.6531 46.0423 38.6531 46.0423L39.542 42.996ZM35.3426 28.4578C35.3426 28.4578 37.1672 25.9681 37.1285 21.4652C37.0898 16.9622 34.3564 14.5564 34.7619 13.0822C35.1674 11.6079 38.1855 9.7974 40.8873 13.9693C43.5891 18.1411 40.6945 23.1486 39.8736 24.7318C39.0527 26.315 36.4553 29.4322 36.4553 29.4322L35.3426 28.4578ZM30.7775 36.137C26.7129 36.2003 22.5211 30.8636 22.077 27.3726C21.6328 23.8816 22.7121 17.0203 20.0449 13.2732C17.3777 9.52611 12.8684 7.94115 10.8996 14.162C8.93086 20.3829 14.3285 28.9605 15.9803 31.0546C17.632 33.1488 26.0783 39.6298 30.7143 39.757C35.3502 39.8841 30.7775 36.137 30.7775 36.137Z" fill="#8EC2B1"/>
<path d="M11.847 7.7765C11.847 7.7765 11.5043 4.65111 11.9531 3.89466C12.4019 3.13822 14.1943 6.51322 14.1972 6.77279C14.2002 7.03236 15.1968 3.90814 15.5273 3.98431C15.8578 4.06048 16.0388 7.74193 16.0388 7.74193C16.0388 7.74193 18.0258 4.99915 18.2883 5.25521C18.5508 5.51126 18.3468 8.58041 17.0877 10.1074C15.8285 11.6343 13.708 12.9837 11.8008 12.041C9.89353 11.0982 9.18161 7.05755 9.52849 6.15873C9.87536 5.2599 11.847 7.7765 11.847 7.7765Z" fill="#E37171"/>
<path d="M33.9755 14.6414C33.8238 14.9789 36.4599 16.6237 36.7851 15.8666C37.3722 14.499 34.1818 14.1838 33.9755 14.6414ZM36.157 10.3512C35.8523 10.5621 37.2615 13.3313 37.9306 12.8508C39.1406 11.983 36.5695 10.0658 36.157 10.3512ZM40.664 13.2856C40.2949 13.2592 39.658 16.3002 40.4806 16.3447C41.9666 16.4256 41.165 13.3219 40.664 13.2856ZM43.1835 17.86C42.9837 17.5483 40.1654 18.8561 40.6218 19.5422C41.4433 20.7815 43.4519 18.2813 43.1835 17.86ZM41.4668 22.9406C41.2669 22.6289 38.4486 23.9367 38.905 24.6229C39.7265 25.8627 41.7369 23.3637 41.4668 22.9406ZM36.2888 19.1508C36.0351 19.4209 37.9933 21.8332 38.547 21.2233C39.5466 20.1211 36.6328 18.7846 36.2888 19.1508ZM8.37886 17.3086C8.2271 17.6461 10.8632 19.2908 11.1884 18.5338C11.7773 17.168 8.58745 16.851 8.37886 17.3086ZM10.5627 13.019C10.258 13.2299 11.6671 15.999 12.3363 15.5186C13.5451 14.6485 10.9752 12.733 10.5627 13.019ZM19.0072 11.1914C18.638 11.1651 18.0011 14.2061 18.8238 14.2506C20.3103 14.3297 19.5082 11.226 19.0072 11.1914ZM21.5244 15.7617C21.3246 15.45 18.5062 16.7578 18.9627 17.444C19.7865 18.6856 21.7968 16.1871 21.5244 15.7617ZM23.6502 30.2549C23.2845 30.1963 22.3939 33.1746 23.2095 33.2883C24.6843 33.4934 24.1464 30.3328 23.6502 30.2549ZM10.6945 21.818C10.4408 22.0881 12.399 24.5004 12.9527 23.8904C13.9523 22.7883 11.0384 21.4524 10.6945 21.818ZM29.581 26.9279C29.2623 27.1166 30.474 29.9783 31.1748 29.5459C32.4416 28.7649 30.0128 26.6719 29.581 26.9279ZM33.4136 23.9649C33.0451 24 32.9197 27.1043 33.7382 27.0117C35.2148 26.8465 33.9134 23.9174 33.4136 23.9649ZM35.8447 27.7072C35.4767 27.6645 34.705 30.6744 35.5248 30.7541C37.006 30.9024 36.3439 27.7658 35.8447 27.7072ZM45.9427 30.0586C45.5748 30.0158 44.8031 33.0258 45.6228 33.1055C47.1041 33.252 46.4419 30.1172 45.9427 30.0586ZM51.2109 32.5682C50.8839 32.3924 49.0716 34.919 49.8046 35.2922C51.1312 35.9666 51.6527 32.8037 51.2109 32.5682ZM51.621 39.0569C51.5666 38.6906 48.457 38.7293 48.5947 39.542C48.8414 41.0098 51.6972 39.5508 51.621 39.0569ZM46.3013 43.9031C46.3546 43.5369 43.3681 42.6791 43.2632 43.4959C43.074 44.9719 46.2304 44.4 46.3013 43.9031ZM46.3693 39.1072C46.1179 38.8354 43.5744 40.6201 44.1427 41.2166C45.1757 42.2895 46.7103 39.4758 46.3693 39.1072ZM43.4449 35.291C43.0804 35.3561 43.2105 38.461 44.0209 38.3016C45.481 38.0127 43.9388 35.202 43.4449 35.291ZM32.1029 30.7828C31.7513 30.9 32.3419 33.9522 33.1177 33.675C34.5199 33.1735 32.5781 30.6223 32.1029 30.7828ZM32.5628 37.0899C32.2447 37.2791 33.4623 40.1367 34.1625 39.7043C35.4275 38.9215 32.9941 36.8344 32.5628 37.0899ZM32.2945 43.8018C31.9429 43.919 32.5289 46.9711 33.3076 46.6945C34.7097 46.1947 32.7703 43.6412 32.2945 43.8018ZM35.7492 51.8221C35.4562 51.5965 33.2502 53.7856 33.9123 54.276C35.1087 55.1613 36.1476 52.1279 35.7492 51.8221ZM39.924 49.2381C39.665 48.9733 37.1701 50.826 37.756 51.4061C38.8148 52.452 40.275 49.5973 39.924 49.2381ZM36.999 45.8496C36.6738 45.6738 34.8339 48.1764 35.564 48.5578C36.8836 49.2475 37.4414 46.0899 36.999 45.8496ZM38.2271 39.9862C37.9582 39.7319 35.5388 41.6819 36.147 42.2373C37.2457 43.2422 38.5916 40.3313 38.2271 39.9862ZM40.8398 34.9535C40.5369 34.7408 38.4269 37.0219 39.1089 37.483C40.34 38.3162 41.25 35.2418 40.8398 34.9535ZM28.7595 32.9197C28.4601 33.1377 29.9314 35.8729 30.5912 35.3772C31.7794 34.4807 29.1656 32.6244 28.7595 32.9197ZM15.7359 21.9112C15.4171 22.0998 16.6289 24.9615 17.3296 24.5291C18.5964 23.7475 16.1677 21.6551 15.7359 21.9112ZM15.631 15.7723C15.2625 15.8074 15.1371 18.9117 15.9556 18.8192C17.4351 18.6539 16.1308 15.7248 15.631 15.7723ZM20.9935 23.8799C20.6378 23.7762 19.3734 26.6139 20.1679 26.8313C21.6035 27.2244 21.4752 24.0235 20.9935 23.8799ZM14.0103 29.0121C13.9207 29.3713 16.8076 30.5209 16.9927 29.7153C17.3273 28.2674 14.1316 28.5252 14.0103 29.0121ZM22.5673 36.5279C22.4976 36.8918 25.4431 37.8815 25.5837 37.0699C25.8398 35.6039 22.6623 36.0352 22.5673 36.5279ZM18.3615 31.3647C18.1125 31.6389 20.1105 34.0184 20.6537 33.399C21.6351 32.2805 18.699 30.9932 18.3615 31.3647ZM29.5839 40.7631C29.2494 40.9213 30.1869 43.8838 30.9257 43.517C32.2605 42.8596 30.038 40.5469 29.5839 40.7631ZM30.774 47.3971C30.4048 47.4258 30.2255 50.5278 31.0459 50.4498C32.5277 50.3092 31.2744 47.3584 30.774 47.3971ZM39.2419 31.0307C38.9115 30.8631 37.1484 33.4219 37.8896 33.7811C39.2291 34.4303 39.6902 31.2574 39.2419 31.0307Z" fill="#6CB099"/>
</svg>
