<svg width="60" height="60" viewBox="0 0 60 60" fill="none" xmlns="http://www.w3.org/2000/svg">
<path d="M25 45V55C25 55 25 60 30 60C35 60 35 55 35 55V45H25Z" fill="#DD2E44"/>
<path d="M25 55L25.0017 55.0617C26.7367 55.0033 28.3617 54.605 29.3883 52.9183C29.451 52.8115 29.5404 52.7229 29.6479 52.6614C29.7553 52.5998 29.877 52.5674 30.0008 52.5674C30.1247 52.5674 30.2463 52.5998 30.3538 52.6614C30.4612 52.7229 30.5507 52.8115 30.6133 52.9183C31.64 54.6033 33.265 55.0033 35 55.0617V45H25V55Z" fill="#BE1931"/>
<path d="M53.2567 36.0317C53.2567 46.4917 44.9233 46.4917 44.9233 46.4917H14.9233C14.9233 46.4917 6.59 46.4917 6.59 36.0317C6.59 24.825 14.9233 5 29.9233 5C44.9233 5 53.2567 26.4917 53.2567 36.0317Z" fill="#D99E82"/>
<path d="M30 33.3333C18.3333 33.3333 13.3333 39.2116 13.3333 43.9916C13.3333 46.4227 14.2991 48.7543 16.0182 50.4734C17.7373 52.1925 20.0689 53.1583 22.5 53.1583C25.175 53.1583 27.57 52.0516 29.2483 48.5466C29.3139 48.4025 29.4196 48.2803 29.5527 48.1947C29.6859 48.109 29.8409 48.0635 29.9992 48.0635C30.1575 48.0635 30.3125 48.109 30.4456 48.1947C30.5787 48.2803 30.6844 48.4025 30.75 48.5466C32.4283 52.0516 34.825 53.1583 37.4983 53.1583C39.9295 53.1583 42.2611 52.1925 43.9801 50.4734C45.6992 48.7543 46.665 46.4227 46.665 43.9916C46.6667 39.2116 41.6667 33.3333 30 33.3333Z" fill="#F4C7B5"/>
<path d="M25 38.1584C23.3333 39.8251 28.3333 44.8251 30 44.8251C31.6667 44.8251 36.6667 39.8251 35 38.1584C33.3333 36.4917 26.6667 36.4917 25 38.1584ZM21.6667 31.6667C19.8333 31.6667 18.3333 30.1667 18.3333 28.3334V25.0001C18.3333 23.1667 19.8333 21.6667 21.6667 21.6667C23.5 21.6667 25 23.1667 25 25.0001V28.3334C25 30.1667 23.5 31.6667 21.6667 31.6667ZM38.3333 31.6667C36.5 31.6667 35 30.1667 35 28.3334V25.0001C35 23.1667 36.5 21.6667 38.3333 21.6667C40.1667 21.6667 41.6667 23.1667 41.6667 25.0001V28.3334C41.6667 30.1667 40.1667 31.6667 38.3333 31.6667Z" fill="#292F33"/>
<path d="M25 6.01335C23.235 3.66501 19.4683 1.46835 4.71333 7.00001C-2.19333 9.59001 1.18 29.6733 6.55833 30.975C8.40167 30.975 13.935 30.975 13.935 16.2217C13.935 15.855 13.9317 15.5167 13.9267 15.18C17.25 10.4967 20.8333 8.09501 25 6.01335ZM55.2867 7.00001C40.5317 1.46835 36.765 3.66501 35 6.01335C39.1667 8.09668 42.75 10.4983 46.0733 15.1817C46.0683 15.5167 46.065 15.855 46.065 16.2233C46.065 30.9767 51.5967 30.9767 53.4417 30.9767C58.82 29.6733 62.1933 9.59001 55.2867 7.00001Z" fill="#662113"/>
<path d="M39.1667 43.3334C39.6269 43.3334 40 42.9603 40 42.5001C40 42.0398 39.6269 41.6667 39.1667 41.6667C38.7064 41.6667 38.3333 42.0398 38.3333 42.5001C38.3333 42.9603 38.7064 43.3334 39.1667 43.3334Z" fill="#D99E82"/>
<path d="M19.1667 43.3334C19.6269 43.3334 20 42.9603 20 42.5001C20 42.0398 19.6269 41.6667 19.1667 41.6667C18.7064 41.6667 18.3333 42.0398 18.3333 42.5001C18.3333 42.9603 18.7064 43.3334 19.1667 43.3334Z" fill="#D99E82"/>
<path d="M42.5 46.6667C42.9602 46.6667 43.3333 46.2936 43.3333 45.8333C43.3333 45.3731 42.9602 45 42.5 45C42.0398 45 41.6667 45.3731 41.6667 45.8333C41.6667 46.2936 42.0398 46.6667 42.5 46.6667Z" fill="#D99E82"/>
<path d="M17.5 46.6667C17.9602 46.6667 18.3333 46.2936 18.3333 45.8333C18.3333 45.3731 17.9602 45 17.5 45C17.0398 45 16.6667 45.3731 16.6667 45.8333C16.6667 46.2936 17.0398 46.6667 17.5 46.6667Z" fill="#D99E82"/>
<path d="M38.3333 48.3333C39.2538 48.3333 40 47.5871 40 46.6667C40 45.7462 39.2538 45 38.3333 45C37.4129 45 36.6667 45.7462 36.6667 46.6667C36.6667 47.5871 37.4129 48.3333 38.3333 48.3333Z" fill="#D99E82"/>
<path d="M21.6667 48.3333C22.5871 48.3333 23.3333 47.5871 23.3333 46.6667C23.3333 45.7462 22.5871 45 21.6667 45C20.7462 45 20 45.7462 20 46.6667C20 47.5871 20.7462 48.3333 21.6667 48.3333Z" fill="#D99E82"/>
<path d="M16.4717 12.0532C16.04 10.9316 15.415 9.72491 14.5117 8.82158C14.3569 8.66684 14.1732 8.54409 13.971 8.46034C13.7689 8.3766 13.5522 8.3335 13.3333 8.3335C13.1145 8.3335 12.8978 8.3766 12.6956 8.46034C12.4934 8.54409 12.3097 8.66684 12.155 8.82158C12.0003 8.97632 11.8775 9.16002 11.7938 9.3622C11.71 9.56438 11.6669 9.78107 11.6669 9.99991C11.6669 10.2187 11.71 10.4354 11.7938 10.6376C11.8775 10.8398 12.0003 11.0235 12.155 11.1782C13.105 12.1282 13.9317 14.4016 13.935 15.0882C14.1767 14.4149 15.3333 13.1716 16.4717 12.0532ZM43.5 12.0532C43.9317 10.9332 44.5567 9.72491 45.46 8.82158C45.6147 8.66684 45.7984 8.54409 46.0006 8.46034C46.2028 8.3766 46.4195 8.3335 46.6383 8.3335C46.8572 8.3335 47.0739 8.3766 47.276 8.46034C47.4782 8.54409 47.6619 8.66684 47.8167 8.82158C47.9714 8.97632 48.0942 9.16002 48.1779 9.3622C48.2616 9.56438 48.3047 9.78107 48.3047 9.99991C48.3047 10.2187 48.2616 10.4354 48.1779 10.6376C48.0942 10.8398 47.9714 11.0235 47.8167 11.1782C46.8667 12.1282 46.04 14.4016 46.0367 15.0882C45.795 14.4149 44.6383 13.1716 43.5 12.0532Z" fill="#380F09"/>
</svg>
