<svg width="60" height="61" viewBox="0 0 60 61" fill="none" xmlns="http://www.w3.org/2000/svg">
<g clip-path="url(#clip0_16_7077)">
<path d="M49.6438 32.7926C50.188 32.3796 50.6825 31.892 51.1122 31.3379C52.3977 29.6799 52.9598 27.6208 52.6969 25.5392C52.2459 21.9781 49.4374 19.2143 45.9671 18.7429C44.4346 17.2087 42.4376 16.0656 39.9674 15.3012C40.3064 13.6345 40.7697 12.293 41.1578 11.3521C42.4471 12.3752 44.5492 13.6433 47.3533 14.3143C47.941 14.4548 48.4951 14.4617 49.0007 14.4617H49.0015C50.56 14.4617 51.4692 13.8565 51.9579 13.295C53.1757 11.8957 52.9388 9.94165 52.9076 9.7196L52.7677 8.70156L51.7329 8.56663C51.6962 8.56103 48.0412 8.00314 45.765 5.12182C44.2486 3.20264 41.919 0.917691 39.4276 0.917691C38.7646 0.917691 38.3392 1.08936 38.1869 1.16269L37.7036 1.39656L32.6014 14.1409C31.773 14.1011 30.9024 14.0806 30.0006 14.0806C29.0989 14.0806 28.2282 14.1011 27.3997 14.1409L22.2969 1.39891L21.8161 1.16565C21.6613 1.08981 21.2284 0.915039 20.5537 0.915039C18.0486 0.915039 15.732 3.20809 14.2301 5.13228C11.9066 8.10814 8.43751 8.55406 8.31932 8.56837L7.2434 8.66663L7.09227 9.75248C7.06113 9.97452 6.82484 11.9609 8.04258 13.3596C8.53137 13.9212 9.44123 14.5909 10.9998 14.5909C11.5054 14.5909 12.0595 14.5194 12.6472 14.3789C15.4514 13.7084 17.5529 12.3757 18.8428 11.3526C19.2309 12.2936 19.6935 13.6357 20.0331 15.3018C17.5634 16.0655 15.5671 17.2079 14.0347 18.7416C10.56 19.2087 7.74583 21.9749 7.29431 25.5392C7.03067 27.6201 7.59348 29.6799 8.87895 31.3378C9.31183 31.8957 9.80873 32.3858 10.3578 32.8007C10.5637 34.7852 10.9673 36.7934 11.5569 38.7288C12.0227 40.2568 12.6067 41.7456 13.2877 43.1549C12.3678 44.2284 11.4723 45.5126 10.6041 47.0076C8.89569 49.9493 7.92993 52.6242 7.88947 52.7368L7.64811 53.4103L8.05925 53.9961C10.9555 58.1268 14.2461 60.4323 17.8383 60.8484C18.2338 60.8944 18.62 60.915 18.9956 60.915C23.0996 60.915 25.9599 58.408 26.0898 58.2917L28.524 56.1187L25.2696 55.8817C22.6867 55.6933 21.1139 54.2082 20.3496 53.233L21.1065 52.5458C23.8143 54.3419 26.8356 55.2884 29.9999 55.2884C33.1649 55.2884 36.1855 54.3413 38.8933 52.5458L39.6502 53.233C38.8871 54.205 37.3124 55.6933 34.7302 55.8817L31.4757 56.1187L33.9099 58.2917C34.0399 58.408 36.9001 60.915 41.0041 60.915C41.3797 60.915 41.7666 60.8938 42.1615 60.8484C45.7543 60.4323 49.0444 58.1268 51.9406 53.9961L52.3517 53.4103L52.1103 52.7368C52.0699 52.6242 51.104 49.9493 49.3956 47.0076C48.5275 45.5126 47.6318 44.2283 46.7121 43.1549C47.393 41.7463 47.9776 40.2574 48.4428 38.7288C49.0337 36.7909 49.4379 34.7796 49.6438 32.7926ZM13.0005 31.3211C12.2467 30.9841 11.5831 30.3895 11.0632 29.7184C10.7043 29.2558 10.4332 28.7072 10.2535 28.1674C10.0159 27.454 9.93881 26.6723 10.0365 25.9042C10.1665 24.8781 10.5987 23.9452 11.2356 23.2082C12.1741 22.123 13.5572 21.4395 15.0771 21.4395C15.1598 21.4395 15.2438 21.4395 15.3271 21.4438C15.4596 21.4501 15.5927 21.46 15.7245 21.4768C15.7824 21.4843 16.0137 21.7131 16.2065 22.3512C16.4584 23.1865 16.5511 24.3719 16.4683 25.6891C16.3664 27.3117 16.0143 29.0736 15.5031 30.262C14.9832 31.4704 14.5229 31.874 14.4539 31.874C14.4527 31.874 14.4502 31.874 14.4465 31.874C13.9395 31.2534 13.4538 31.5239 13.0005 31.3211ZM46.9839 48.3592C48.0865 50.2511 48.8696 52.0614 49.2488 53.0011C46.954 56.0715 44.4762 57.7855 41.8766 58.0983C40.5836 58.2538 39.4075 58.0368 38.4386 57.7027C41.3442 56.2754 42.6204 53.7536 42.69 53.6125L43.1502 52.6783L41.1078 50.8243L39.0505 48.9567L38.775 48.7061C39.6315 46.4635 39.3198 44.5442 38.8621 43.2668C38.5729 42.4596 38.1973 41.819 37.8887 41.3755C37.6045 40.9664 37.3782 40.7251 37.3315 40.6765L36.3364 41.6361L35.3413 42.5958C35.3644 42.6199 37.6387 45.0374 35.8775 48.4163L35.3842 49.3621L36.7711 50.6209C34.661 51.884 32.3835 52.5252 29.9992 52.5252C27.6141 52.5252 25.3367 51.8846 23.2265 50.6209L24.6134 49.3621L24.1208 48.4163C22.3863 45.0884 24.5705 42.6884 24.6644 42.5876L24.657 42.5957L23.6619 41.6361L22.6668 40.6764C22.6195 40.725 22.3932 40.9669 22.1096 41.3754C21.8018 41.8189 21.4261 42.4595 21.1363 43.2668C20.6785 44.5441 20.3669 46.4634 21.2233 48.7061L20.9478 48.9567L18.8905 50.8243L16.8481 52.6782L17.3084 53.6124C17.378 53.7535 18.6542 56.2754 21.5598 57.7027C20.5908 58.0373 19.4141 58.2536 18.1218 58.0983C15.5223 57.7854 13.0445 56.0714 10.7497 53.001C11.129 52.0613 11.9127 50.2509 13.0147 48.3591C13.5763 47.3951 14.1479 46.5319 14.7243 45.7744C15.368 44.9286 16.0179 44.2146 16.6665 43.6393C17.5037 42.898 18.3382 42.3875 19.156 42.1244L18.7325 40.8084L18.3103 39.4925C17.3165 39.8121 16.34 40.3526 15.3854 41.1076C14.9314 40.0807 14.5327 39.0135 14.2007 37.9227C13.8269 36.6969 13.5358 35.44 13.3294 34.1819C13.5819 34.2391 13.8381 34.2845 14.0987 34.3174C14.2163 34.3323 14.3357 34.3398 14.4532 34.3398C16.3052 34.3398 17.4272 32.6351 18.0422 31.2054C18.6741 29.7371 19.1057 27.7899 19.227 25.8638C19.4229 22.7629 18.824 20.496 17.5883 19.4164C18.7886 18.6433 20.2333 18.0581 21.9386 17.6426L23.1656 17.3435L22.9784 16.0947C22.2688 11.3582 20.5324 8.47936 20.459 8.35867L19.4739 6.74858L18.2364 8.17345C18.214 8.19898 15.9695 10.7407 12.0035 11.6898C11.626 11.7799 11.2884 11.826 10.9991 11.826C10.3766 11.826 10.1925 11.6176 10.1315 11.5492C10.0209 11.4242 9.94623 11.2501 9.89767 11.0623C11.5072 10.6381 14.2903 9.54725 16.4092 6.8332C18.2905 4.42326 19.6164 3.8437 20.2458 3.71431L25.5768 17.0301L26.5837 16.9586C27.6385 16.8834 28.7872 16.8454 29.9993 16.8454C31.2114 16.8454 32.3601 16.8834 33.4148 16.9586L34.4216 17.0301L39.7496 3.72181C40.3846 3.85795 41.7055 4.44818 43.5943 6.83889C45.6628 9.45717 48.5 10.5822 50.1082 11.0349C50.061 11.2283 49.9857 11.4124 49.8713 11.5436C49.811 11.6133 49.6269 11.8247 49 11.8247H48.9994C48.7103 11.8247 48.3718 11.7787 47.9943 11.6885C44.0706 10.75 41.7807 8.19458 41.7615 8.17216L40.5238 6.74729L39.5389 8.35754C39.4655 8.47754 37.7291 11.3564 37.0195 16.0935L36.8323 17.3423L38.0593 17.6415C39.7621 18.0563 41.2056 18.6409 42.4046 19.4121C41.1663 20.4905 40.5662 22.7581 40.7615 25.8608C40.8828 27.7875 41.3144 29.7347 41.9463 31.2037C43.0608 33.7952 44.5129 34.3394 45.5354 34.3394H45.536C45.6536 34.3394 45.773 34.332 45.8906 34.317C46.1543 34.2835 46.4143 34.2374 46.6698 34.179C46.4633 35.4377 46.1724 36.6959 45.7978 37.9223C45.4651 39.0138 45.067 40.081 44.6131 41.1071C43.6584 40.3521 42.682 39.8116 41.6882 39.492L41.2647 40.808L40.8412 42.1239C41.659 42.387 42.4941 42.8977 43.3313 43.639C43.9799 44.2143 44.6298 44.9282 45.2736 45.774C45.8508 46.532 46.4222 47.3951 46.9839 48.3592ZM45.5441 31.8753C45.5397 31.8753 45.5379 31.8753 45.5372 31.8753C45.4682 31.8753 45.0073 31.471 44.4874 30.262C43.9762 29.0729 43.6241 27.3857 43.5223 25.7631C43.4395 24.4465 43.5322 23.2238 43.7841 22.3892C43.9762 21.7517 44.2076 21.5036 44.2654 21.4961C44.4004 21.4793 44.536 21.4587 44.6722 21.4519C44.753 21.4482 44.8333 21.4407 44.9136 21.4407C46.4429 21.4407 47.8334 22.1255 48.772 23.2219C49.4001 23.9557 49.8255 24.8706 49.9542 25.8874C50.0505 26.6467 49.9766 27.4017 49.7453 28.1083C49.5655 28.6562 49.2912 29.1749 48.9273 29.6438C48.4093 30.3117 47.7495 30.9797 46.9995 31.3168C46.543 31.522 46.0541 31.2534 45.5441 31.8753Z" fill="black"/>
<path d="M33.602 35.6799L31.5864 37.6956C31.0348 38.2472 31.0348 39.1422 31.5864 39.6938C31.8626 39.97 32.2239 40.1073 32.5858 40.1073C32.9477 40.1073 33.3091 39.9693 33.5852 39.6938L35.6014 37.6775C36.153 37.1259 36.153 36.2309 35.6014 35.6793C35.0486 35.1283 34.1543 35.1283 33.602 35.6799Z" fill="black"/>
<path d="M26.3363 35.6803C25.7847 35.1287 24.8897 35.1287 24.3381 35.6803C23.7864 36.232 23.7864 37.1269 24.3381 37.6786L26.3537 39.6948C26.6298 39.9709 26.9912 40.1084 27.3531 40.1084C27.7151 40.1084 28.0764 39.9703 28.3525 39.6948C28.9042 39.1431 28.9042 38.2482 28.3525 37.6965L26.3363 35.6803Z" fill="black"/>
<path d="M32.0877 27.522H27.7343V31.8753H32.0877V27.522Z" fill="black"/>
</g>
<defs>
<clipPath id="clip0_16_7077">
<rect width="60" height="60" fill="white" transform="translate(0 0.915039)"/>
</clipPath>
</defs>
</svg>
