<svg width="60" height="60" viewBox="0 0 60 60" fill="none" xmlns="http://www.w3.org/2000/svg">
<g clip-path="url(#clip0_13_1189)">
<path d="M58.0434 0H48.2609V11.7391H60V1.95656C60 0.875039 59.125 0 58.0434 0Z" fill="black"/>
<path d="M1.95656 0C0.875039 0 0 0.875039 0 1.95656V11.7391H44.3479V0H1.95656Z" fill="black"/>
<path d="M31.9566 23.6628V27.5719C34.2666 27.9061 36.3723 28.82 38.1612 30.1595L40.9413 27.3791C38.4141 25.3575 35.3377 24.0423 31.9566 23.6628Z" fill="black"/>
<path d="M19.0586 27.3787L21.8387 30.159C23.6276 28.8198 25.7333 27.9057 28.0433 27.5716V23.6626C24.6623 24.0422 21.5859 25.3572 19.0586 27.3787Z" fill="black"/>
<path d="M16.2632 30.1167C14.2356 32.6502 12.8756 35.7392 12.4983 39.1304H16.4419C16.7756 36.8147 17.7178 34.7053 19.0601 32.9136L16.2632 30.1167Z" fill="black"/>
<path d="M30 43.0435C28.9223 43.0435 28.0434 43.9224 28.0434 45C28.0434 46.0777 28.9223 46.9566 30 46.9566C31.0777 46.9566 31.9566 46.0777 31.9566 45C31.9566 43.9224 31.0777 43.0435 30 43.0435Z" fill="black"/>
<path d="M43.7368 30.1167L40.9399 32.9136C42.2822 34.7054 43.2244 36.8148 43.558 39.1305H47.5016C47.1243 35.7394 45.7643 32.6503 43.7368 30.1167Z" fill="black"/>
<path d="M0 15.6521V58.0434C0 59.1249 0.875039 60 1.95656 60H58.0436C59.125 60 60.0001 59.1249 60.0001 58.0434V15.6521H0ZM49.5653 43.0434H41.7391C40.6577 43.0434 39.7826 42.1683 39.7826 41.0868C39.7826 38.3923 38.6877 35.9498 36.9204 34.179C36.918 34.1769 36.9152 34.1764 36.9127 34.1741C36.9102 34.1717 36.9098 34.1689 36.9077 34.1663C35.5774 32.8384 33.8677 31.8911 31.9564 31.5019V39.4907C34.2288 40.3011 35.8695 42.4525 35.8695 45C35.8695 48.2366 33.2365 50.8695 29.9999 50.8695C26.7633 50.8695 24.1303 48.2366 24.1303 45C24.1303 42.4525 25.7709 40.3012 28.0433 39.4907V31.5019C26.1322 31.8912 24.4223 32.8385 23.092 34.1663C23.0899 34.1687 23.0895 34.1716 23.0871 34.1741C23.0848 34.1765 23.082 34.1769 23.0794 34.179C21.3121 35.9498 20.2172 38.3923 20.2172 41.0868C20.2172 42.1682 19.3421 43.0434 18.2606 43.0434H10.4348C9.35344 43.0434 8.47828 42.1683 8.47828 41.0868C8.47828 35.1747 10.8776 29.8129 14.7513 25.9188C14.7652 25.9041 14.7691 25.8846 14.7836 25.8703C14.798 25.856 14.8174 25.8519 14.8321 25.838C18.7262 21.9644 24.088 19.565 30.0001 19.565C35.9122 19.565 41.274 21.9643 45.1682 25.838C45.1828 25.8519 45.2024 25.8558 45.2167 25.8703C45.231 25.8847 45.2351 25.9041 45.2489 25.9188C49.1225 29.8129 51.522 35.1747 51.522 41.0868C51.5217 42.1683 50.6467 43.0434 49.5653 43.0434Z" fill="black"/>
</g>
<defs>
<clipPath id="clip0_13_1189">
<rect width="60" height="60" fill="white"/>
</clipPath>
</defs>
</svg>
