<svg width="60" height="60" viewBox="0 0 60 60" fill="none" xmlns="http://www.w3.org/2000/svg">
<g clip-path="url(#clip0_16_14406)">
<path d="M49.8658 40.3742C51.0834 40.3742 52.0705 39.3871 52.0705 38.1695C52.0705 36.9519 51.0834 35.9648 49.8658 35.9648C48.6482 35.9648 47.6611 36.9519 47.6611 38.1695C47.6611 39.3871 48.6482 40.3742 49.8658 40.3742Z" fill="black"/>
<path d="M45.9463 29.08C46.1437 29.6492 48.1222 34.8784 48.5689 35.5456C50.4594 34.7718 51.5531 35.6407 51.5531 35.6407C51.5531 35.6407 55.0532 30.6362 55.4595 30.0872C55.6627 29.8163 53.3816 28.446 50.932 28.1924C48.4781 27.9402 45.8498 28.7961 45.9463 29.08Z" fill="black"/>
<path d="M59.8603 37.5288C59.2608 37.5101 53.8673 37.6787 52.8832 37.6945C52.9408 39.7378 51.7405 40.4568 51.7405 40.4568C51.7405 40.4568 55.1858 45.4973 55.5518 46.0679C55.7391 46.3575 57.8228 44.7105 58.9294 42.5102C60.0346 40.2969 60.1614 37.536 59.8603 37.5288Z" fill="black"/>
<path d="M46.785 37.7663C46.1812 37.5991 40.4088 37.5559 39.8108 37.5645C39.5082 37.576 39.6234 40.3369 40.7215 42.5502C41.8195 44.7549 43.8944 46.4163 44.0803 46.1252C44.4478 45.5546 47.9176 40.5271 47.9176 40.5271C47.9176 40.5271 46.7202 39.8124 46.785 37.7663Z" fill="black"/>
<path d="M48.8859 23.8741C49.2159 23.8741 49.5444 23.9015 49.8715 23.9231C49.9191 23.5975 49.9551 23.2704 49.9724 22.9404C49.651 16.9835 45.4103 12.7471 39.4577 12.4257C35.9648 12.2384 33.0527 14.0209 31.1837 16.629C29.3177 14.1707 26.4113 12.6159 22.904 12.4257C16.9629 12.1058 12.6876 17.4691 12.3922 22.9404C12.3591 23.6436 12.4038 24.3194 12.5133 24.9736C12.1415 24.9203 11.7625 24.8843 11.3764 24.8626C4.95401 24.5168 0.332858 30.3138 0.0144069 36.2246C-0.31269 42.2665 4.79838 46.7133 10.3288 47.4828V47.588H38.5038C36.1795 45.0677 34.7472 41.7117 34.7472 38.0114C34.7472 30.2043 41.0788 23.8741 48.8859 23.8741Z" fill="black"/>
</g>
<defs>
<clipPath id="clip0_16_14406">
<rect width="60" height="60" fill="white"/>
</clipPath>
</defs>
</svg>
