<svg width="60" height="60" viewBox="0 0 60 60" fill="none" xmlns="http://www.w3.org/2000/svg">
<g clip-path="url(#clip0_16_15402)">
<path d="M59.7344 47.98C59.4969 47.675 59.1344 47.5 58.7495 47.5H49.597L44.912 35.785C44.722 35.3101 44.2619 35 43.7519 35H28.7519C28.0619 35 27.5019 35.56 27.5019 36.25V47.5H22.5019V43.75C22.5019 43.06 21.9418 42.5 21.2518 42.5H15.0019V41.2501C15.0019 40.5601 14.4418 40 13.7518 40H6.25182C5.56182 40 5.00178 40.5601 5.00178 41.2501V47.5H3.75186C3.1794 47.5 2.67936 47.89 2.53932 48.4475L0.0393576 58.4476C-0.0556815 58.8201 0.0293966 59.2176 0.266818 59.5201C0.504358 59.8251 0.866818 60.0001 1.25178 60.0001H45.9443C52.5868 60.0001 58.3517 55.4976 59.9618 49.0525C60.0544 48.6801 59.9719 48.2826 59.7344 47.98ZM23.7494 56.2501C22.3719 56.2501 21.2495 55.1275 21.2495 53.7501C21.2495 52.3727 22.372 51.2502 23.7494 51.2502C25.127 51.2502 26.2494 52.3727 26.2494 53.7501C26.2494 55.1275 25.1269 56.2501 23.7494 56.2501ZM38.7494 56.2501C37.3719 56.2501 36.2495 55.1275 36.2495 53.7501C36.2495 52.3727 37.372 51.2502 38.7494 51.2502C40.1269 51.2502 41.2494 52.3727 41.2494 53.7501C41.2494 55.1275 40.1269 56.2501 38.7494 56.2501ZM29.9994 47.5V37.5001H42.9044L46.9044 47.5H29.9994Z" fill="black"/>
<path d="M8.74955 32.5H23.7495C24.4395 32.5 24.9996 31.9399 24.9996 31.2499V23.7499C24.9996 23.0599 24.4395 22.4999 23.7495 22.4999H21.9196L17.4996 15.8723V9.77004C18.5596 9.39258 19.3921 8.56008 19.7696 7.5H42.4997V27.5H41.2496C40.5596 27.5 39.9996 28.0601 39.9996 28.7501V31.25C39.9996 31.94 40.5596 32.5001 41.2496 32.5001H43.7496C45.2921 32.5001 46.6596 33.425 47.2321 34.8575L49.9746 41.715C50.1646 42.19 50.6246 42.5 51.1346 42.5H51.2496C51.9396 42.5 52.4996 41.94 52.4996 41.25V28.75C52.4996 28.06 51.9396 27.4999 51.2496 27.4999H49.9996V11.4525L52.4346 4.14504C52.4521 4.09008 52.4471 4.035 52.4571 3.98004C52.4696 3.91254 52.4846 3.8475 52.4871 3.77754C52.4896 3.67254 52.4721 3.57504 52.4496 3.47508C52.4396 3.43512 52.4471 3.39258 52.4346 3.35262C52.4296 3.34008 52.4196 3.33258 52.4146 3.31758C52.3746 3.20508 52.3096 3.10758 52.2396 3.01008C52.2171 2.97762 52.2021 2.94012 52.1771 2.91258C52.0971 2.82504 51.9971 2.75508 51.8921 2.69262C51.8621 2.67258 51.8372 2.64516 51.8046 2.62758L46.807 0.129961C46.6345 0.045 46.4446 0 46.2496 0H11.2495C10.5595 0 9.99947 0.560039 9.99947 1.25004V6.25008C9.99947 6.93996 10.5595 7.5 11.2495 7.5H12.7295C13.1069 8.55996 13.9394 9.39246 14.9995 9.77004V15.8726L10.5796 22.5H8.74955C8.05955 22.5 7.49951 23.06 7.49951 23.75V31.25C7.49951 31.94 8.05955 32.5 8.74955 32.5ZM16.2495 18.5025L18.9145 22.5H13.5871L16.2495 18.5025Z" fill="black"/>
</g>
<defs>
<clipPath id="clip0_16_15402">
<rect width="60" height="60" fill="white"/>
</clipPath>
</defs>
</svg>
