<svg width="512" height="512" viewBox="0 0 512 512" fill="none" xmlns="http://www.w3.org/2000/svg">
<g clip-path="url(#clip0_10_358)">
<path d="M256.004 508C117.044 508 4.00403 394.96 4.00403 256C4.00403 117.04 117.044 4 256.004 4C394.964 4 508.004 117.04 508.004 256C508.004 394.96 394.964 508 256.004 508Z" fill="white"/>
<path d="M256.004 8C392.756 8 504.004 119.248 504.004 256C504.004 392.752 392.756 504 256.004 504C119.252 504 8.00403 392.752 8.00403 256C8.00403 119.248 119.252 8 256.004 8ZM256.004 0C114.612 0 0.00402832 114.608 0.00402832 256C0.00402832 397.392 114.612 512 256.004 512C397.396 512 512.004 397.392 512.004 256C512.004 114.608 397.396 0 256.004 0Z" fill="#D6D6D6"/>
<path d="M256.004 156.848C278.785 156.848 297.252 138.38 297.252 115.6C297.252 92.8189 278.785 74.3516 256.004 74.3516C233.223 74.3516 214.756 92.8189 214.756 115.6C214.756 138.38 233.223 156.848 256.004 156.848Z" fill="#D6D6D6"/>
<path d="M254.052 252.752L214.196 166.336C214.196 166.336 172.388 166.896 172.388 205.36C172.388 243.824 172.388 252.752 172.388 252.752C172.388 252.752 254.324 252.752 254.052 252.752Z" fill="#333333"/>
<path d="M257.956 252.752L297.812 166.336C297.812 166.336 339.62 166.896 339.62 205.36C339.62 243.824 339.62 252.752 339.62 252.752C339.62 252.752 257.684 252.752 257.956 252.752Z" fill="#333333"/>
<path d="M256.004 166.336H227.3L256.004 229.888L284.708 166.336H256.004Z" fill="#0BA4E0"/>
<path d="M256.004 430.464L212.484 372L225.332 362.432L256.004 403.664L286.676 362.432L299.524 372L256.004 430.464Z" fill="#0BA4E0"/>
<path d="M264.004 302.016H248.004V417.056H264.004V302.016Z" fill="#0BA4E0"/>
</g>
<defs>
<clipPath id="clip0_10_358">
<rect width="512" height="512" fill="white" transform="translate(0.00402832)"/>
</clipPath>
</defs>
</svg>
