<svg width="60" height="60" viewBox="0 0 60 60" fill="none" xmlns="http://www.w3.org/2000/svg">
<g clip-path="url(#clip0_15_5467)">
<path d="M22.9412 58.235H1.7647C1.48503 58.2351 1.20936 58.1687 0.960395 58.0412C0.711434 57.9138 0.496323 57.729 0.332796 57.5022C0.169268 57.2753 0.0620091 57.0128 0.0198575 56.7363C-0.0222941 56.4598 0.00185347 56.1773 0.0903423 55.912L10.6786 24.1473C10.7958 23.7959 11.0205 23.4903 11.321 23.2738C11.6215 23.0573 11.9826 22.9409 12.3529 22.9409C15.6279 22.9448 18.7677 24.2476 21.0834 26.5633C23.3992 28.8791 24.702 32.0189 24.7059 35.2939V56.4703C24.7059 56.9384 24.52 57.3872 24.189 57.7182C23.8581 58.0491 23.4092 58.235 22.9412 58.235ZM4.2134 54.7056H21.1765V35.2939C21.1737 33.1697 20.406 31.1176 19.0139 29.5133C17.6218 27.9089 15.6985 26.8595 13.596 26.5572L4.2134 54.7056Z" fill="#FD8F50"/>
<path d="M54.7059 58.2354H40.5882C40.1202 58.2354 39.6713 58.0495 39.3404 57.7186C39.0094 57.3876 38.8235 56.9388 38.8235 56.4707V42.3531C38.8235 41.8851 39.0094 41.4362 39.3404 41.1053C39.6713 40.7743 40.1202 40.5884 40.5882 40.5884H54.7059C55.7276 40.5889 56.7274 40.8852 57.5845 41.4413C58.4416 41.9974 59.1195 42.7897 59.5364 43.7225C59.9532 44.6554 60.0913 45.6889 59.9338 46.6984C59.7763 47.708 59.3301 48.6503 58.6489 49.4119C59.3301 50.1735 59.7763 51.1159 59.9338 52.1254C60.0913 53.1349 59.9532 54.1685 59.5364 55.1013C59.1195 56.0341 58.4416 56.8264 57.5845 57.3825C56.7274 57.9386 55.7276 58.2349 54.7059 58.2354ZM42.3529 54.706H54.7059C55.1739 54.706 55.6228 54.5201 55.9537 54.1892C56.2846 53.8582 56.4706 53.4093 56.4706 52.9413C56.4706 52.4733 56.2846 52.0244 55.9537 51.6935C55.6228 51.3625 55.1739 51.1766 54.7059 51.1766H42.3529V54.706ZM42.3529 47.6472H54.7059C55.1739 47.6472 55.6228 47.4613 55.9537 47.1303C56.2846 46.7994 56.4706 46.3505 56.4706 45.8825C56.4706 45.4145 56.2846 44.9656 55.9537 44.6347C55.6228 44.3037 55.1739 44.1178 54.7059 44.1178H42.3529V47.6472Z" fill="#C74A2E"/>
<path d="M58.2353 8.82347H56.4706V3.52935C56.4706 3.06133 56.2847 2.61246 55.9537 2.28152C55.6228 1.95057 55.1739 1.76465 54.7059 1.76465H51.1765C50.8487 1.76466 50.5275 1.85593 50.2487 2.02823C49.97 2.20053 49.7447 2.44706 49.5981 2.74018L46.5565 8.82347H26.4706C25.0986 8.82461 23.7459 9.14637 22.5203 9.76307C21.2947 10.3798 20.2302 11.2744 19.4118 12.3755C18.5933 11.2744 17.5288 10.3798 16.3032 9.76307C15.0777 9.14637 13.7249 8.82461 12.3529 8.82347C11.8849 8.82347 11.436 9.00939 11.1051 9.34034C10.7742 9.67129 10.5882 10.1201 10.5882 10.5882C10.5882 11.0562 10.7742 11.5051 11.1051 11.836C11.436 12.167 11.8849 12.3529 12.3529 12.3529C13.757 12.3529 15.1036 12.9107 16.0964 13.9035C17.0893 14.8963 17.6471 16.2429 17.6471 17.647C17.6471 19.0511 17.0893 20.3977 16.0964 21.3905C15.1036 22.3833 13.757 22.9411 12.3529 22.9411C11.8849 22.9411 11.436 23.127 11.1051 23.458C10.7742 23.7889 10.5882 24.2378 10.5882 24.7058C10.5882 25.1739 10.7742 25.6227 11.1051 25.9537C11.436 26.2846 11.8849 26.4705 12.3529 26.4705C14.6923 26.4679 16.9351 25.5375 18.5892 23.8833C20.2434 22.2291 21.1738 19.9863 21.1765 17.647C21.178 16.2434 21.7362 14.8977 22.7287 13.9051C23.7212 12.9126 25.067 12.3544 26.4706 12.3529H38.8235V15.8823H26.4706C26.0026 15.8823 25.5537 16.0682 25.2227 16.3992C24.8918 16.7301 24.7059 17.179 24.7059 17.647V31.7646C24.7059 32.2327 24.8918 32.6815 25.2227 33.0125C25.5537 33.3434 26.0026 33.5294 26.4706 33.5294H38.5144C38.1493 34.5602 37.4741 35.4528 36.5816 36.0847C35.6891 36.7166 34.623 37.0568 33.5294 37.0588H30C27.6606 37.0614 25.4179 37.9918 23.7637 39.646C22.1095 41.3002 21.1791 43.543 21.1765 45.8823C21.1765 46.3503 21.3624 46.7992 21.6933 47.1301C22.0243 47.4611 22.4731 47.647 22.9412 47.647C23.4092 47.647 23.8581 47.4611 24.189 47.1301C24.5199 46.7992 24.7059 46.3503 24.7059 45.8823C24.7074 44.4787 25.2656 43.133 26.2581 42.1404C27.2507 41.1479 28.5964 40.5897 30 40.5882H33.5294C35.8687 40.5856 38.1115 39.6551 39.7657 38.0009C41.4198 36.3468 42.3503 34.104 42.3529 31.7646V22.9411H58.2353C58.7033 22.9411 59.1522 22.7552 59.4831 22.4242C59.8141 22.0933 60 21.6444 60 21.1764V10.5882C60 10.1201 59.8141 9.67129 59.4831 9.34034C59.1522 9.00939 58.7033 8.82347 58.2353 8.82347ZM52.267 5.29406H52.9412V8.82347H50.5023L52.267 5.29406ZM28.2353 19.4117H38.8235V22.9411H33.5294C33.0614 22.9411 32.6125 23.127 32.2816 23.458C31.9506 23.7889 31.7647 24.2378 31.7647 24.7058C31.7647 25.1739 31.9506 25.6227 32.2816 25.9537C32.6125 26.2846 33.0614 26.4705 33.5294 26.4705H38.8235V29.9999H28.2353V19.4117ZM56.4706 19.4117H42.3529V12.3529H56.4706V19.4117Z" fill="#C74A2E"/>
</g>
<defs>
<clipPath id="clip0_15_5467">
<rect width="60" height="60" fill="white"/>
</clipPath>
</defs>
</svg>
