<svg width="60" height="60" viewBox="0 0 60 60" fill="none" xmlns="http://www.w3.org/2000/svg">
<g clip-path="url(#clip0_10_4)">
<path d="M34.8497 46.8984H15.9649C15.338 46.8984 14.8282 47.4082 14.8282 48.0352C14.8282 48.6621 15.338 49.1719 15.9649 49.1719H34.8497C35.4767 49.1719 35.9864 48.6621 35.9864 48.0352C35.9864 47.4023 35.4767 46.8984 34.8497 46.8984Z" fill="#005BFF"/>
<path d="M53.4942 45.1992V47.4844H56.7227C56.2481 46.1543 54.9825 45.1992 53.4942 45.1992Z" fill="#E6E6E6"/>
<path d="M47.7931 39.6035V13.7812C47.7931 12.8379 47.0255 12.0762 46.088 12.0762H4.72665C3.78329 12.0762 3.02158 12.8437 3.02158 13.7812V39.6035C3.02158 40.5469 3.78915 41.3086 4.72665 41.3086H46.088C47.0313 41.3145 47.7931 40.5469 47.7931 39.6035ZM45.2208 37.1426C45.2208 38.0801 44.4532 38.8477 43.5157 38.8477H7.30478C6.36728 38.8477 5.5997 38.0801 5.5997 37.1426V16.248C5.5997 15.3105 6.36728 14.543 7.30478 14.543H43.5157C44.4532 14.543 45.2208 15.3105 45.2208 16.248V37.1426Z" fill="white"/>
<path d="M43.5157 14.543H7.30478C6.36728 14.543 5.5997 15.3105 5.5997 16.248V37.1426C5.5997 38.0801 6.36728 38.8477 7.30478 38.8477H43.5157C44.4532 38.8477 45.2208 38.0801 45.2208 37.1426V16.248C45.2208 15.3105 44.4532 14.543 43.5157 14.543ZM12.8536 16.4297C12.8536 16.3359 12.9298 16.2656 13.0177 16.2656H16.6095C16.7032 16.2656 16.7735 16.3418 16.7735 16.4297V17.4551C16.7735 17.5488 16.6974 17.6191 16.6095 17.6191H13.0177C12.9239 17.6191 12.8536 17.543 12.8536 17.4551V16.4297ZM11.0782 16.2246C11.4649 16.2246 11.7755 16.5352 11.7755 16.9219C11.7755 17.3086 11.4649 17.6191 11.0782 17.6191C10.6915 17.6191 10.381 17.3086 10.381 16.9219C10.381 16.5352 10.6974 16.2246 11.0782 16.2246ZM8.79306 16.2246C9.17978 16.2246 9.49033 16.5352 9.49033 16.9219C9.49033 17.3086 9.17978 17.6191 8.79306 17.6191C8.40634 17.6191 8.0958 17.3086 8.0958 16.9219C8.0958 16.5352 8.40634 16.2246 8.79306 16.2246ZM22.6974 26.8711C22.6974 30.8438 19.463 34.0781 15.4903 34.0781C11.5177 34.0781 8.28329 30.8438 8.28329 26.8711C8.28329 22.8984 11.5177 19.6641 15.4903 19.6641H16.0587V26.3027H22.6974V26.8711ZM17.4181 24.6035V19.0547C20.4825 19.0547 22.9669 21.5391 22.9669 24.6035H17.4181ZM39.3087 33.3281H31.0645C30.7481 33.3281 30.4962 33.0762 30.4962 32.7598C30.4962 32.4434 30.7481 32.1914 31.0645 32.1914H39.3087C39.6251 32.1914 39.877 32.4434 39.877 32.7598C39.877 33.0703 39.6251 33.3281 39.3087 33.3281ZM39.3087 29.0332H30.7774C30.461 29.0332 30.2091 28.7812 30.2091 28.4648C30.2091 28.1484 30.461 27.8965 30.7774 27.8965H39.3087C39.6251 27.8965 39.877 28.1484 39.877 28.4648C39.877 28.7812 39.6251 29.0332 39.3087 29.0332ZM39.3087 24.7324H27.0274C26.711 24.7324 26.4591 24.4805 26.4591 24.1641C26.4591 23.8477 26.711 23.5957 27.0274 23.5957H39.3145C39.631 23.5957 39.8829 23.8477 39.8829 24.1641C39.8829 24.4805 39.6251 24.7324 39.3087 24.7324ZM39.3087 20.4375H27.0274C26.711 20.4375 26.4591 20.1855 26.4591 19.8691C26.4591 19.5527 26.711 19.3008 27.0274 19.3008H39.3145C39.631 19.3008 39.8829 19.5527 39.8829 19.8691C39.8829 20.1855 39.6251 20.4375 39.3087 20.4375Z" fill="#E6E6E6"/>
<path d="M14.922 20.8301C11.8399 21.1172 9.42001 23.7188 9.42001 26.8711C9.42001 30.2168 12.1446 32.9414 15.4903 32.9414C18.6427 32.9414 21.2442 30.5215 21.5313 27.4395H14.922V20.8301Z" fill="white"/>
<path d="M16.0587 19.6641H15.4903C11.5177 19.6641 8.28329 22.8984 8.28329 26.8711C8.28329 30.8438 11.5177 34.0781 15.4903 34.0781C19.463 34.0781 22.6974 30.8438 22.6974 26.8711V26.3027H16.0587V19.6641ZM21.5313 27.4453C21.2442 30.5273 18.6427 32.9473 15.4903 32.9473C12.1446 32.9473 9.42001 30.2227 9.42001 26.877C9.42001 23.7246 11.8399 21.123 14.922 20.8359V27.4453H21.5313Z" fill="#005BFF"/>
<path d="M17.4181 19.0547V24.6035H22.9669C22.9669 21.5391 20.4825 19.0547 17.4181 19.0547Z" fill="#005BFF"/>
<path d="M8.09579 16.9219C8.09579 17.1068 8.16926 17.2842 8.30002 17.4149C8.43078 17.5457 8.60813 17.6191 8.79306 17.6191C8.97799 17.6191 9.15534 17.5457 9.2861 17.4149C9.41686 17.2842 9.49033 17.1068 9.49033 16.9219C9.49033 16.7369 9.41686 16.5596 9.2861 16.4288C9.15534 16.2981 8.97799 16.2246 8.79306 16.2246C8.60813 16.2246 8.43078 16.2981 8.30002 16.4288C8.16926 16.5596 8.09579 16.7369 8.09579 16.9219Z" fill="white"/>
<path d="M10.381 16.9219C10.381 17.1068 10.4544 17.2842 10.5852 17.4149C10.7159 17.5457 10.8933 17.6191 11.0782 17.6191C11.2631 17.6191 11.4405 17.5457 11.5713 17.4149C11.702 17.2842 11.7755 17.1068 11.7755 16.9219C11.7755 16.7369 11.702 16.5596 11.5713 16.4288C11.4405 16.2981 11.2631 16.2246 11.0782 16.2246C10.8933 16.2246 10.7159 16.2981 10.5852 16.4288C10.4544 16.5596 10.381 16.7369 10.381 16.9219Z" fill="white"/>
<path d="M13.0177 17.6191H16.6095C16.7032 17.6191 16.7735 17.543 16.7735 17.4551V16.4297C16.7735 16.3359 16.6974 16.2656 16.6095 16.2656H13.0177C12.9239 16.2656 12.8536 16.3418 12.8536 16.4297V17.4551C12.8536 17.5488 12.9298 17.6191 13.0177 17.6191Z" fill="white"/>
<path d="M53.4942 42.9199C50.7403 42.9199 48.4376 44.8828 47.9102 47.4785H41.131C40.4454 47.4785 39.9474 47.3438 39.7716 47.1094C39.6544 46.9512 39.6544 46.6992 39.6544 46.582V43.5879H46.0938C48.2911 43.5879 50.0724 41.8008 50.0724 39.6094V13.7812C50.0724 11.584 48.2852 9.80273 46.0938 9.80273H4.72665C2.52939 9.80273 0.748138 11.5898 0.748138 13.7812V39.6035C0.748138 41.8008 2.53525 43.582 4.72665 43.582H37.3751V46.582C37.3751 46.8633 37.3751 47.7129 37.9552 48.4805C38.5938 49.3242 39.6602 49.752 41.131 49.752H59.1895V48.6152C59.1895 45.4746 56.6349 42.9199 53.4942 42.9199ZM4.72665 41.3145C3.78329 41.3145 3.02158 40.5469 3.02158 39.6094V13.7812C3.02158 12.8379 3.78915 12.0762 4.72665 12.0762H46.088C47.0313 12.0762 47.7931 12.8437 47.7931 13.7812V39.6035C47.7931 40.5469 47.0255 41.3086 46.088 41.3086H4.72665V41.3145ZM53.4942 47.4785H50.2657C50.7345 46.1484 52.006 45.1934 53.4942 45.1934C54.9825 45.1934 56.254 46.1484 56.7227 47.4785H53.4942Z" fill="#005BFF"/>
<path d="M39.3087 19.3008H27.0274C26.711 19.3008 26.4591 19.5527 26.4591 19.8691C26.4591 20.1855 26.711 20.4375 27.0274 20.4375H39.3145C39.631 20.4375 39.8829 20.1855 39.8829 19.8691C39.8829 19.5527 39.6251 19.3008 39.3087 19.3008Z" fill="#005BFF"/>
<path d="M39.3087 23.5957H27.0274C26.711 23.5957 26.4591 23.8477 26.4591 24.1641C26.4591 24.4805 26.711 24.7324 27.0274 24.7324H39.3145C39.631 24.7324 39.8829 24.4805 39.8829 24.1641C39.8829 23.8477 39.6251 23.5957 39.3087 23.5957ZM39.3087 27.8965H30.7774C30.461 27.8965 30.2091 28.1484 30.2091 28.4648C30.2091 28.7812 30.461 29.0332 30.7774 29.0332H39.3087C39.6251 29.0332 39.877 28.7812 39.877 28.4648C39.877 28.1484 39.6251 27.8965 39.3087 27.8965Z" fill="#06F3FF"/>
<path d="M39.3087 32.1914H31.0645C30.7481 32.1914 30.4962 32.4434 30.4962 32.7598C30.4962 33.0762 30.7481 33.3281 31.0645 33.3281H39.3087C39.6251 33.3281 39.877 33.0762 39.877 32.7598C39.877 32.4434 39.6251 32.1914 39.3087 32.1914Z" fill="#005BFF"/>
</g>
<defs>
<clipPath id="clip0_10_4">
<rect width="60" height="60" fill="white" transform="translate(0.0039978)"/>
</clipPath>
</defs>
</svg>
