<svg width="60" height="60" viewBox="0 0 60 60" fill="none" xmlns="http://www.w3.org/2000/svg">
<path d="M48.1915 21.5437C47.9417 16.9008 46.0551 12.4966 42.8665 9.11249C39.4531 5.70504 34.8271 3.79126 30.004 3.79126C25.1809 3.79126 20.5549 5.70504 17.1415 9.11249C13.953 12.4966 12.0664 16.9008 11.8165 21.5437C11.3103 27.4125 14.104 32.4187 17.029 37.05C17.7228 38.1375 23.854 47.8875 26.8165 52.7062C27.152 53.2501 27.621 53.6993 28.1788 54.011C28.7367 54.3228 29.3649 54.4868 30.004 54.4875C30.6431 54.4868 31.2713 54.3228 31.8292 54.011C32.3871 53.6993 32.856 53.2501 33.1915 52.7062C36.154 47.8875 42.2853 38.1375 42.979 37.05C45.904 32.4187 48.754 27.4125 48.1915 21.5437Z" fill="#8C9EFF"/>
<path d="M33.1915 52.7063C36.154 47.8875 42.2852 38.1375 42.979 37.05C45.904 32.4188 48.604 27.4125 48.1915 21.5438C47.9416 16.9009 46.0551 12.4966 42.8665 9.11251C41.184 7.41198 39.1808 6.06234 36.9728 5.14182C34.7649 4.22131 32.3962 3.74823 30.004 3.75001V54.375C30.6326 54.3863 31.254 54.2395 31.8109 53.9479C32.3679 53.6563 32.8427 53.2293 33.1915 52.7063Z" fill="#5F7CF9"/>
<path d="M30.004 30C34.1461 30 37.504 26.6421 37.504 22.5C37.504 18.3579 34.1461 15 30.004 15C25.8619 15 22.504 18.3579 22.504 22.5C22.504 26.6421 25.8619 30 30.004 30Z" fill="#5F7CF9"/>
<path d="M37.504 22.5C37.504 20.5109 36.7138 18.6032 35.3073 17.1967C33.9008 15.7902 31.9931 15 30.004 15V30C31.9931 30 33.9008 29.2098 35.3073 27.8033C36.7138 26.3968 37.504 24.4891 37.504 22.5Z" fill="#4062ED"/>
</svg>
