<svg width="60" height="60" viewBox="0 0 60 60" fill="none" xmlns="http://www.w3.org/2000/svg">
<g clip-path="url(#clip0_16_5943)">
<path d="M43.1472 33.0455C43.1472 34.1623 43.0458 37.7155 42.2335 40.0506L42.335 40.3551C39.0863 41.7765 34.8223 43.0962 30.0508 43.0962C25.2792 43.0962 21.0152 41.7765 17.7666 40.3551L17.8681 40.152C16.8529 37.614 16.8529 34.0607 16.8529 32.9439C16.8529 30.1013 17.1574 27.3602 17.6651 24.7205C18.5788 20.2535 20.3047 16.1926 22.8428 13.6546C24.7717 11.7257 27.1067 10.6089 30.0509 10.6089C32.9951 10.6089 35.3301 11.7257 37.2591 13.6546C39.8987 16.2942 41.6245 20.3551 42.5382 24.9236C42.9442 27.5632 43.1472 30.3044 43.1472 33.0455Z" fill="#FFD0A1"/>
<path d="M42.2335 40.0504C43.1472 37.6139 43.1472 34.1621 43.1472 33.0453C43.1472 30.3042 42.9442 27.5631 42.4366 25.0251C44.5686 26.4464 46.5991 25.9388 46.5991 25.9388C47.6143 25.9388 48.2234 24.1114 48.2234 21.8779C48.2234 20.7611 46.8021 17.1063 46.1929 15.7865C44.1624 11.7255 41.1168 10.7103 39.0863 10.7103C37.0558 10.7103 37.1574 13.756 37.1574 13.756C35.2285 11.8271 32.8934 10.7103 29.9492 10.7103C27.005 10.7103 24.6701 11.8271 22.741 13.756C22.741 13.756 22.8425 10.7103 20.8121 10.7103C18.7816 10.7103 15.736 11.7255 13.7056 15.7865C13.0964 17.1063 11.6751 20.7611 11.6751 21.8779C11.6751 24.1114 12.2842 25.9388 13.2994 25.9388C13.2994 25.9388 15.0253 26.751 17.3603 24.822H17.4618C16.9541 27.4616 16.6496 30.2027 16.6496 33.0453C16.6496 34.1621 16.6495 37.7153 17.6647 40.2535L17.5633 40.4566C13.9084 38.8323 11.5734 37.1063 11.5734 37.1063C11.5734 37.1063 8.12163 34.4667 4.77138 30.1013C4.56829 28.7815 4.46681 27.3601 4.46681 25.9388C4.46681 11.9286 15.8373 0.558105 29.8475 0.558105C43.8576 0.558105 55.2281 11.9286 55.2281 25.9388C55.2281 27.3601 55.1267 28.7814 54.9236 30.1013H54.8223C52.1827 34.4667 48.1218 37.1063 48.1218 37.1063C48.1218 37.1063 45.7868 38.8323 42.1319 40.4566L42.2335 40.0504ZM29.9492 57.4108V59.4413H0.507656C0.507656 54.3651 6.59903 51.3194 6.59903 51.3194C6.59903 51.3194 8.42644 50.8118 10.6599 50.8118C15.939 54.9743 22.6396 57.4108 29.9492 57.4108ZM59.3909 59.4413H29.9492V57.4108C37.2588 57.4108 43.9594 54.9743 49.2385 50.8118C52.1827 50.8118 53.2994 51.3194 53.2994 51.3194C53.2994 51.3194 59.3909 54.3651 59.3909 59.4413Z" fill="#ECF4F7"/>
<path d="M34.0102 22.8931C34.6193 22.8931 35.0254 23.4007 35.0254 23.9083C35.0254 24.4158 34.6193 24.9234 34.0102 24.9234C33.4011 24.9234 32.995 24.4158 32.995 23.9083C32.995 23.4007 33.4011 22.8931 34.0102 22.8931ZM25.8883 22.8931C26.4975 22.8931 26.9035 23.4007 26.9035 23.9083C26.9035 24.4158 26.4975 24.9234 25.8883 24.9234C25.2792 24.9234 24.8731 24.4158 24.8731 23.9083C24.8731 23.4007 25.2792 22.8931 25.8883 22.8931Z" fill="#FFE079"/>
<path d="M22.7412 13.7563C20.1015 16.2943 18.4772 20.3553 17.5635 24.8222H17.462C15.1269 26.7511 13.4011 25.939 13.4011 25.939C12.3859 25.939 11.7768 24.1116 11.7768 21.8781C11.7768 20.7613 13.1982 17.1065 13.8073 15.7867C15.8378 11.7259 18.8835 10.7106 20.9139 10.7106C22.9442 10.7106 22.7412 13.7563 22.7412 13.7563ZM48.2233 21.878C48.2233 24.1115 47.6142 25.9389 46.599 25.9389C46.599 25.9389 44.5685 26.4465 42.4365 25.0252C41.5228 20.4566 39.7969 16.3958 37.1574 13.7561C37.1574 13.7561 37.0559 10.7104 39.0863 10.7104C41.1168 10.7104 44.1624 11.7256 46.1928 15.7866C46.8021 17.1065 48.2233 20.7613 48.2233 21.878Z" fill="#FFD0A1"/>
<path d="M49.2386 42.3857V50.8122C43.8579 54.9745 37.2588 57.4111 29.9492 57.4111C22.6396 57.4111 15.9391 54.9745 10.6599 50.8121V42.4872C15.3299 47.9695 22.2335 51.4212 29.9492 51.4212C37.6649 51.4212 44.5685 47.868 49.2386 42.3857Z" fill="#AAB1BA"/>
<path d="M55.0254 30.1015C54.2132 34.7715 52.1828 39.0355 49.2386 42.3857C44.5686 47.8679 37.665 51.3197 29.9493 51.3197C22.2336 51.3197 15.3299 47.8681 10.6599 42.3858C7.7157 38.9341 5.68532 34.6701 4.8731 30C8.22335 34.467 11.6751 37.0051 11.6751 37.0051C11.6751 37.0051 14.0102 38.731 17.665 40.3553C20.9137 41.7767 25.1777 43.0964 29.9492 43.0964C34.7208 43.0964 38.9848 41.7767 42.2334 40.3553C45.8882 38.731 48.2233 37.0051 48.2233 37.0051C48.2233 37.0051 52.2843 34.467 55.0254 30.1015Z" fill="#AAB1BA"/>
<path d="M29.9492 31.0151C31.6751 31.0151 32.9949 31.9288 32.9949 33.0456C32.9949 34.1624 31.6751 35.0761 29.9492 35.0761C28.2233 35.0761 26.9035 34.1624 26.9035 33.0456C26.9035 31.9288 28.2234 31.0151 29.9492 31.0151Z" fill="#AE938D"/>
<path d="M6.59903 2.5886C6.59903 3.70539 5.68532 4.6191 4.56853 4.6191C3.45174 4.6191 2.53803 3.70539 2.53803 2.5886C2.53803 1.47181 3.45174 0.558105 4.56853 0.558105C5.68532 0.558105 6.59903 1.47181 6.59903 2.5886Z" fill="#80D6FA"/>
<path d="M59.3909 59.9492C59.0863 59.9492 58.8832 59.7461 58.8832 59.4415C58.8832 54.7715 53.0964 51.8273 53.0964 51.7258C52.8933 51.6243 52.7918 51.3198 52.8933 51.0152C52.9948 50.8121 53.2994 50.7106 53.6039 50.8121C53.9085 50.9136 59.9999 54.0609 59.9999 59.34C59.8985 59.7462 59.6954 59.9492 59.3909 59.9492ZM0.507654 59.9492C0.203085 59.9492 0 59.7461 0 59.4415C0 54.1624 6.09137 51.0151 6.39594 50.9136C6.59902 50.8121 6.90359 50.9136 7.10656 51.1167C7.20804 51.3198 7.10656 51.6243 6.90347 51.8273C6.80199 51.8273 1.11667 54.7715 1.11667 59.543C1.01519 59.7462 0.812222 59.9492 0.507654 59.9492ZM29.9492 57.9188C22.741 57.9188 16.0405 55.5837 10.3553 51.2183C10.2538 51.1168 10.1522 51.0152 10.1522 50.8122V42.5889C6.39594 38.1218 4.06087 32.2336 4.06087 25.9391V5.02536C2.9442 4.82228 2.0305 3.80709 2.0305 2.58881C2.0305 1.16745 3.14729 0.0507812 4.56853 0.0507812C5.98977 0.0507812 7.10656 1.16745 7.10656 2.58881C7.10656 3.80709 6.19285 4.82228 5.07606 5.02536V18.7309C8.22335 7.96956 18.1726 0.0507812 29.9492 0.0507812C44.2639 0.0507812 55.8375 11.6244 55.8375 25.9391C55.8375 32.2336 53.5025 38.1218 49.7462 42.5889V50.8122C49.7462 51.0153 49.6447 51.1168 49.5431 51.2183C43.8579 55.5837 37.1574 57.9188 29.9492 57.9188ZM11.1676 50.5076C16.6498 54.67 23.0457 56.9035 29.9493 56.9035C36.8529 56.9035 43.2487 54.67 48.731 50.5076V43.7056C43.9594 48.6801 37.3604 51.8274 29.9492 51.8274C22.538 51.8274 15.939 48.6803 11.1674 43.7056L11.1676 50.5076ZM29.9492 1.06597C16.2436 1.06597 5.07606 12.2335 5.07606 25.9391C5.07606 39.6447 16.2436 50.8122 29.9492 50.8122C37.4619 50.8122 44.1624 47.462 48.731 42.1828C48.731 42.0814 48.8324 41.8783 49.0355 41.8783C52.6904 37.5128 54.8223 32.0306 54.8223 25.9392C54.8223 12.2335 43.6548 1.06597 29.9492 1.06597ZM4.56853 1.06597C3.75631 1.06597 3.04569 1.77659 3.04569 2.58881C3.04569 3.40104 3.75631 4.11166 4.56853 4.11166C5.38075 4.11166 6.09137 3.40104 6.09137 2.58881C6.09137 1.77659 5.38075 1.06597 4.56853 1.06597ZM29.9492 43.7056C19.6954 43.7056 11.6751 37.7157 11.3705 37.5127C11.1674 37.3096 11.066 37.0051 11.269 36.8021C11.4721 36.599 11.7767 36.4975 11.9797 36.7006C12.0811 36.8021 20.1015 42.6905 29.9492 42.6905C39.7969 42.6905 47.8173 36.8022 47.9187 36.7006C48.1218 36.4975 48.4264 36.5991 48.6294 36.8021C48.8324 37.0052 48.7308 37.3097 48.5279 37.5127C48.2233 37.7157 40.203 43.7056 29.9492 43.7056ZM34.0102 38.6294C32.3859 38.6294 30.7614 38.0202 29.9493 36.802C29.1371 38.0202 27.5128 38.6294 25.8884 38.6294C25.5839 38.6294 25.3808 38.4263 25.3808 38.1217C25.3808 37.8172 25.5839 37.6141 25.8884 37.6141C27.4113 37.6141 29.1372 37.0049 29.4418 35.5836C27.7159 35.3805 26.3961 34.3653 26.3961 33.0455C26.3961 31.6242 27.9189 30.5075 29.9494 30.5075C31.9799 30.5075 33.5028 31.6243 33.5028 33.0455C33.5028 34.3653 32.183 35.3806 30.4571 35.5836C30.7617 37.0049 32.386 37.6141 34.0104 37.6141C34.315 37.6141 34.5181 37.8172 34.5181 38.1217C34.5177 38.4264 34.3148 38.6294 34.0102 38.6294ZM29.9492 31.5228C28.5278 31.5228 27.4112 32.2334 27.4112 33.0457C27.4112 33.8579 28.528 34.5685 29.9492 34.5685C31.3706 34.5685 32.4872 33.8579 32.4872 33.0457C32.4872 32.2334 31.3706 31.5228 29.9492 31.5228ZM42.9442 36.7005C42.6396 36.7005 42.4365 36.3959 42.4365 36.0913C42.538 35.1776 42.6396 34.1625 42.6396 33.0457C42.6396 22.1827 38.6802 11.2182 29.9492 11.2182C21.2182 11.2182 17.2588 22.1827 17.2588 33.0457C17.2588 34.0609 17.3603 35.0762 17.4619 35.9899C17.4619 36.2944 17.2588 36.4975 17.0558 36.599C16.7513 36.599 16.5482 36.3959 16.4467 36.193C16.3452 35.2792 16.2436 34.1625 16.2436 33.0458C16.2436 25.4316 18.1725 17.8174 22.2335 13.5534C22.2335 13.0457 22.132 12.0306 21.6244 11.5229C21.4213 11.3198 21.1167 11.2183 20.8121 11.2183C19.4924 11.2183 16.3451 11.726 14.1116 15.9899C13.5025 17.2082 12.1827 20.863 12.1827 21.8782C12.1827 24.2133 12.8934 25.4316 13.2995 25.4316C13.6041 25.4316 13.8072 25.6347 13.8072 25.9392C13.8072 26.2438 13.6041 26.4469 13.2995 26.4469C11.9798 26.4469 11.1676 24.6195 11.1676 21.8784C11.1676 20.5586 12.6904 16.8022 13.2995 15.5839C15.7361 10.7108 19.3909 10.2031 20.8123 10.2031C21.4214 10.2031 21.9291 10.4062 22.3351 10.8123C22.8428 11.3199 23.0457 12.0306 23.1473 12.6397C24.9747 11.1168 27.3098 10.1017 29.9493 10.1017C32.5889 10.1017 34.9239 11.0154 36.7513 12.6397C36.8528 12.0306 37.0559 11.3199 37.5635 10.8123C37.9696 10.4062 38.4772 10.2031 39.0864 10.2031C40.5077 10.2031 44.264 10.7108 46.5991 15.5839C47.2082 16.8022 48.7311 20.5585 48.7311 21.8784C48.7311 24.6195 47.9189 26.4469 46.5991 26.4469C46.2945 26.4469 46.0914 26.2438 46.0914 25.9392C46.0914 25.6347 46.2945 25.4316 46.5991 25.4316C47.1068 25.4316 47.7159 24.2133 47.7159 21.8782C47.7159 20.863 46.3961 17.3097 45.787 15.9899C43.655 11.6245 40.4062 11.2183 39.0865 11.2183C38.7819 11.2183 38.4774 11.3198 38.2743 11.5229C37.7666 12.0306 37.6651 13.0457 37.6651 13.5534C41.726 17.8174 43.655 25.4316 43.655 33.0458C43.655 34.2641 43.5535 35.2792 43.4519 36.2946C43.4518 36.4974 43.2487 36.7005 42.9442 36.7005ZM34.0102 25.4315C33.198 25.4315 32.4873 24.7208 32.4873 23.9086C32.4873 23.0964 33.198 22.3858 34.0102 22.3858C34.8224 22.3858 35.533 23.0964 35.533 23.9086C35.533 24.7208 34.8223 25.4315 34.0102 25.4315ZM34.0102 23.401C33.7056 23.401 33.5025 23.604 33.5025 23.9086C33.5025 24.2132 33.7056 24.4163 34.0102 24.4163C34.3148 24.4163 34.5178 24.2132 34.5178 23.9086C34.5178 23.604 34.3148 23.401 34.0102 23.401ZM25.8883 25.4315C25.0761 25.4315 24.3655 24.7208 24.3655 23.9086C24.3655 23.0964 25.0761 22.3858 25.8883 22.3858C26.7005 22.3858 27.4112 23.0964 27.4112 23.9086C27.4112 24.7208 26.7005 25.4315 25.8883 25.4315ZM25.8883 23.401C25.5838 23.401 25.3807 23.604 25.3807 23.9086C25.3807 24.2132 25.5838 24.4163 25.8883 24.4163C26.1929 24.4163 26.396 24.2132 26.396 23.9086C26.396 23.604 26.1929 23.401 25.8883 23.401Z" fill="#51565F"/>
</g>
<defs>
<clipPath id="clip0_16_5943">
<rect width="60" height="60" fill="white"/>
</clipPath>
</defs>
</svg>
