<svg width="60" height="60" viewBox="0 0 60 60" fill="none" xmlns="http://www.w3.org/2000/svg">
<g clip-path="url(#clip0_19_15599)">
<path d="M23.2662 29.7537C25.3515 29.7537 27.042 28.0632 27.042 25.9779C27.042 23.8926 25.3515 22.2021 23.2662 22.2021C21.1809 22.2021 19.4905 23.8926 19.4905 25.9779C19.4905 28.0632 21.1809 29.7537 23.2662 29.7537Z" fill="black"/>
<path d="M2.47489 34.4834C3.1786 35.0806 4.23071 35.0592 4.90957 34.4117C4.91062 34.4106 4.91179 34.4099 4.91283 34.4088L6.40871 32.9755L9.46319 30.049L16.2247 31.563L10.1912 31.7736C9.40855 32.5235 11.697 30.331 6.23347 35.5655C5.50452 36.2639 4.69075 36.6641 3.65268 36.6641C3.32054 36.6641 2.99204 36.6158 2.67628 36.5257L2.40841 36.7458C2.9504 36.8873 3.44751 37.1702 3.85434 37.5769C4.10933 37.832 4.44993 37.9724 4.8133 37.9724C5.17667 37.9724 5.51714 37.8319 5.7724 37.5767C6.37072 36.9785 7.05115 36.4924 7.78712 36.1244C8.84782 35.5943 10.0251 35.3118 11.247 35.3118C11.7913 35.3118 12.3266 35.3689 12.8471 35.4774C14.2633 35.7729 15.5663 36.4607 16.6263 37.4861L20.4327 34.424L25.9605 35.3086C26.3923 35.3781 26.8407 35.2895 27.2188 35.0514L34.4588 30.4939C35.3103 29.9578 35.5661 28.8331 35.0301 27.9816C34.4941 27.1303 33.3695 26.8746 32.5179 27.4104L25.8586 31.6023L20.8496 30.8008L18.0055 27.2653C17.1493 26.201 15.6152 26.0081 14.522 26.8023L16.7545 27.9301L9.41375 26.1811C9.41284 26.1809 9.41193 26.1808 9.41102 26.1807C8.80723 26.0465 8.17898 26.238 7.75603 26.6428C7.75576 26.643 7.7555 26.6432 7.75524 26.6434L2.39241 31.7777C1.61532 32.5218 1.64642 33.7797 2.47489 34.4834Z" fill="black"/>
<path d="M39.8263 37.5989C39.003 37.2004 37.9224 36.9058 36.9808 36.9058C35.3392 36.9058 33.7959 37.5449 32.6353 38.7057C31.4839 39.8569 29.6108 39.8571 28.4595 38.7057C27.2988 37.5449 25.7554 36.9058 24.1139 36.9058H24.1138C22.4723 36.9058 20.9291 37.5449 19.7683 38.7056C18.6171 39.8571 16.7438 39.8569 15.5927 38.7057C13.1963 36.3098 9.29778 36.3095 6.90135 38.7057C5.75023 39.8571 3.87692 39.8571 2.72567 38.7057C2.10223 38.0823 1.09149 38.0821 0.46805 38.7058C-0.155387 39.3293 -0.155387 40.34 0.46818 40.9636C1.66627 42.1617 3.23995 42.7605 4.81364 42.7605C6.38745 42.7605 7.96114 42.1615 9.15923 40.9636C10.3103 39.8122 12.1838 39.8122 13.335 40.9636C15.7312 43.3597 19.6302 43.3596 22.0262 40.9634C22.5838 40.4058 23.3253 40.0987 24.1139 40.0987C24.9027 40.0987 25.6442 40.4058 26.202 40.9636C28.5983 43.3596 32.497 43.3594 34.8932 40.9634C35.4508 40.4058 36.1922 40.0987 36.981 40.0987C37.7698 40.0987 38.5111 40.4058 39.069 40.9636C39.3075 41.202 39.5614 41.4157 39.8266 41.6067V37.5989H39.8263Z" fill="black"/>
<path d="M32.6351 45.5172C31.484 46.6686 29.6105 46.6686 28.4593 45.5172C26.063 43.1209 22.1641 43.1214 19.7682 45.5172C18.617 46.6687 16.7435 46.6685 15.5924 45.5172C13.1963 43.1212 9.29755 43.1213 6.90125 45.5173C6.34364 46.075 5.6022 46.3821 4.81341 46.3821C4.02475 46.3821 3.28331 46.0749 2.72557 45.5172C2.10213 44.8938 1.09113 44.8938 0.467822 45.5172C-0.155615 46.1408 -0.155615 47.1514 0.467822 47.775C1.6287 48.9357 3.17194 49.5749 4.81341 49.5749C6.45501 49.5749 7.99825 48.9357 9.15887 47.775C10.3104 46.6238 12.1836 46.6237 13.3347 47.775C14.4956 48.9357 16.0388 49.5749 17.6804 49.5749C19.3219 49.5749 20.8651 48.9357 22.026 47.775C23.1771 46.6236 25.0505 46.6236 26.2015 47.775C27.3624 48.9357 28.9058 49.5749 30.5471 49.5749C32.1887 49.5749 33.732 48.9357 34.8928 47.775C36.044 46.6236 37.9174 46.6236 39.0684 47.775C39.3069 48.0134 39.5608 48.2272 39.8261 48.4182V44.4136C38.9583 43.9591 37.9882 43.7173 36.9805 43.7173C35.3392 43.7173 33.7958 44.3566 32.6351 45.5172Z" fill="black"/>
<path d="M48.0947 10.3994C50.7777 10.3994 52.9527 8.22447 52.9527 5.54151C52.9527 2.85856 50.7777 0.683594 48.0947 0.683594C45.4118 0.683594 43.2368 2.85856 43.2368 5.54151C43.2368 8.22447 45.4118 10.3994 48.0947 10.3994Z" fill="black"/>
<path d="M41.8715 41.5758C41.8574 41.5758 41.8444 41.5743 41.8306 41.5737V56.8928C41.8306 58.4464 43.0898 59.7056 44.6433 59.7056C46.1968 59.7056 47.4561 58.4464 47.4561 56.8928V41.5758H41.8715Z" fill="black"/>
<path d="M48.6704 41.5757V56.8926C48.6704 57.4934 48.8604 58.049 49.1813 58.5061C49.6901 59.2306 50.5306 59.7053 51.4832 59.7053C53.0367 59.7053 54.2959 58.4461 54.2959 56.8926V41.5757H48.6704Z" fill="black"/>
<path d="M54.2448 31.916H41.8294L41.5982 38.5739C41.5845 38.7993 41.6645 39.0204 41.8194 39.1849C41.9742 39.3494 42.19 39.4427 42.4159 39.4427H46.8244C47.2085 39.4427 47.541 39.1758 47.6241 38.801L48.0947 36.6814L48.4196 38.7505C48.4821 39.149 48.8255 39.4427 49.2289 39.4427H53.7736C53.9994 39.4427 54.2152 39.3494 54.3701 39.1849C54.5249 39.0204 54.6049 38.7993 54.5912 38.5739L54.2448 31.916Z" fill="black"/>
<path d="M54.2448 28.4199H41.8293V30.3127H54.2448V28.4199Z" fill="black"/>
<path d="M59.9136 17.4668C59.8983 14.4235 57.41 11.9477 54.3668 11.9477C52.3203 11.9477 45.4284 11.9477 43.3968 11.9477C42.9651 11.9477 42.5418 12.0671 42.1736 12.2923L38.462 14.563L39.2001 11.0286C39.3934 10.1027 39.01 9.19211 38.296 8.66469V7.62792H39.19C40.5191 7.62792 41.5966 6.55044 41.5966 5.22134C41.5966 3.89224 40.5191 2.81476 39.19 2.81476H34.3307L30.6241 0.405961C30.4127 0.268576 30.1432 0.257907 29.9216 0.37825C29.7 0.498462 29.562 0.730299 29.562 0.982432V9.46024C29.562 9.71238 29.7 9.94422 29.9216 10.0644C30.1432 10.1846 30.4127 10.174 30.6241 10.0366L34.3306 7.62779H35.5151V8.6656C35.0677 8.99566 34.7337 9.48301 34.611 10.07L32.7644 18.9134C32.5733 19.8287 32.9445 20.7699 33.7088 21.3086C34.472 21.8464 35.4836 21.8805 36.282 21.3919L41.8294 17.9982V26.3572H54.2448V17.5057C54.2448 17.2379 54.4596 17.0196 54.7274 17.0151C54.9953 17.0108 55.2173 17.2221 55.2257 17.4899V17.49L55.3122 34.7101C55.3167 35.5744 55.7893 36.325 56.4874 36.728C56.8318 36.9268 57.2302 37.0423 57.656 37.0423H57.668C58.9624 37.0358 60.0066 35.9811 60.0001 34.6866L59.9136 17.4668Z" fill="black"/>
</g>
<defs>
<clipPath id="clip0_19_15599">
<rect width="60" height="60" fill="white"/>
</clipPath>
</defs>
</svg>
