<svg width="100" height="100" viewBox="0 0 100 100" fill="none" xmlns="http://www.w3.org/2000/svg">
<g clip-path="url(#clip0_14_3560)">
<path fill-rule="evenodd" clip-rule="evenodd" d="M1.50467 49.4763C1.80391 21.2978 18.8734 14.1995 49.9937 14.209C81.1424 14.2185 98.195 21.3274 98.4953 49.4763C98.8051 78.4838 80.821 85.912 49.2566 85.7799C18.0815 85.6466 1.20331 77.7764 1.50467 49.4763Z" fill="#A4D4B2"/>
<path opacity="0.15" fill-rule="evenodd" clip-rule="evenodd" d="M1.50467 49.4768C1.52053 47.9669 1.58715 46.5161 1.69923 45.1309C3.65858 68.8166 20.2766 75.6262 49.2577 75.7499C78.6533 75.8726 96.2695 69.4362 98.2986 45.1172C98.4118 46.5119 98.4795 47.9616 98.4953 49.4768C98.8041 78.4844 80.822 85.9126 49.2577 85.7804C18.0815 85.6471 1.20437 77.778 1.50467 49.4768Z" fill="#1A1818"/>
<path fill-rule="evenodd" clip-rule="evenodd" d="M-1.11942e-06 49.4649C0.155436 34.8062 4.73396 25.5921 13.375 20.008C21.8426 14.5359 34.1496 12.7045 49.9894 12.7119C65.8292 12.7193 78.1468 14.5571 86.6197 20.0344C95.2608 25.6196 99.8372 34.8284 99.9915 49.467C100.152 64.5455 95.4955 74.0567 86.6419 79.8143C77.9607 85.4618 65.309 87.3471 49.2471 87.2795C33.364 87.2118 21.0802 85.1435 12.7247 79.4315C4.21161 73.6158 -0.156496 64.1722 -1.11942e-06 49.4649ZM15.0023 22.5373C7.25479 27.544 3.14681 35.9683 3.00406 49.4924C2.8592 63.0852 6.77896 71.7305 14.4239 76.954C22.2243 82.2865 33.9678 84.2194 49.2641 84.2839C64.7655 84.3494 76.8885 82.5857 85.0125 77.3051C92.9641 72.1312 97.145 63.4236 96.997 49.4956C96.8521 35.9863 92.7494 27.5652 85.0019 22.5563C77.0873 17.4406 65.2942 15.7213 49.9947 15.716C34.7143 15.7044 22.9243 17.4184 15.0023 22.5373Z" fill="#1A1818"/>
<path fill-rule="evenodd" clip-rule="evenodd" d="M34.9691 47.9256C34.8384 47.7768 34.7384 47.6037 34.6749 47.4161C34.6114 47.2286 34.5857 47.0303 34.5992 46.8327C34.6127 46.6352 34.6651 46.4423 34.7536 46.2651C34.842 46.0879 34.9646 45.93 35.1143 45.8004C35.264 45.6708 35.4379 45.5722 35.626 45.5101C35.814 45.4481 36.0125 45.4239 36.2099 45.4389C36.4074 45.4539 36.5999 45.5079 36.7764 45.5976C36.9529 45.6874 37.1099 45.8112 37.2383 45.962C37.7537 46.5602 38.3121 47.12 38.909 47.6369C42.0149 50.2439 45.9402 51.6729 49.9952 51.6729C54.0503 51.6729 57.9756 50.2439 61.0815 47.6369C61.6814 47.1204 62.2426 46.5606 62.7606 45.962C62.8891 45.8112 63.046 45.6874 63.2225 45.5976C63.399 45.5079 63.5915 45.4539 63.789 45.4389C63.9864 45.4239 64.1849 45.4481 64.3729 45.5101C64.561 45.5722 64.7349 45.6708 64.8846 45.8004C65.0344 45.93 65.157 46.0879 65.2454 46.2651C65.3338 46.4423 65.3863 46.6352 65.3998 46.8327C65.4133 47.0303 65.3875 47.2286 65.324 47.4161C65.2605 47.6037 65.1605 47.7768 65.0298 47.9256C64.418 48.6338 63.7546 49.2958 63.0451 49.9061C59.3932 52.9837 54.7711 54.6717 49.9952 54.6717C45.2194 54.6717 40.5973 52.9837 36.9454 49.9061C36.2388 49.2954 35.5783 48.6334 34.9691 47.9256Z" fill="#1A1818"/>
<path fill-rule="evenodd" clip-rule="evenodd" d="M28.0939 50.6483H21.6893C21.3359 50.6484 20.9904 50.5431 20.6972 50.3458C20.404 50.1484 20.1763 49.8681 20.0432 49.5407C19.9101 49.2133 19.8778 48.8536 19.9503 48.5077C20.0227 48.1618 20.1967 47.8453 20.45 47.5988C21.5171 46.4559 22.9832 45.7678 24.5442 45.6772C26.1051 45.5866 27.641 46.1006 28.8331 47.1124C29.0475 47.2978 29.2483 47.4985 29.4337 47.713C29.6551 47.9701 29.7981 48.2853 29.8459 48.6212C29.8936 48.9571 29.844 49.2997 29.703 49.6082C29.562 49.9168 29.3355 50.1785 29.0503 50.3623C28.7651 50.5461 28.4332 50.6443 28.0939 50.6452V50.6483Z" fill="#EB505E"/>
<path fill-rule="evenodd" clip-rule="evenodd" d="M78.3086 50.6503H71.9029C71.5479 50.6507 71.2009 50.5447 70.9068 50.346C70.6126 50.1473 70.3847 49.865 70.2525 49.5356C70.1202 49.2061 70.0897 48.8446 70.1649 48.4977C70.2401 48.1508 70.4175 47.8343 70.6742 47.5891C70.8275 47.421 70.9906 47.2621 71.1627 47.1133C72.2646 46.1801 73.6618 45.668 75.1057 45.668C76.5497 45.668 77.9469 46.1801 79.0488 47.1133C79.2625 47.2961 79.4628 47.494 79.6483 47.7054C79.8718 47.9626 80.0166 48.2786 80.0655 48.6157C80.1144 48.9528 80.0653 49.2969 79.9241 49.607C79.7829 49.917 79.5555 50.1799 79.2691 50.3643C78.9827 50.5487 78.6493 50.6469 78.3086 50.6471V50.6503Z" fill="#EB505E"/>
<path fill-rule="evenodd" clip-rule="evenodd" d="M24.8932 43.7028C26.1953 43.7028 27.4682 43.3167 28.5508 42.5933C29.6335 41.8698 30.4773 40.8416 30.9755 39.6386C31.4738 38.4356 31.6041 37.1118 31.35 35.8347C31.0959 34.5577 30.4688 33.3846 29.548 32.464C28.6272 31.5433 27.454 30.9164 26.1769 30.6625C24.8998 30.4086 23.5761 30.5391 22.3731 31.0376C21.1702 31.536 20.1421 32.38 19.4188 33.4627C18.6956 34.5455 18.3096 35.8184 18.3099 37.1205C18.3132 38.8654 19.0079 40.5379 20.2418 41.7716C21.4758 43.0053 23.1483 43.6997 24.8932 43.7028Z" fill="#1A1818"/>
<path fill-rule="evenodd" clip-rule="evenodd" d="M24.2641 36.7071C24.6823 36.7071 25.0912 36.5831 25.439 36.3507C25.7867 36.1183 26.0578 35.7881 26.2179 35.4016C26.3779 35.0152 26.4198 34.59 26.3382 34.1798C26.2566 33.7695 26.0552 33.3927 25.7594 33.0969C25.4637 32.8012 25.0869 32.5998 24.6766 32.5182C24.2664 32.4366 23.8412 32.4785 23.4548 32.6385C23.0683 32.7986 22.738 33.0696 22.5057 33.4174C22.2733 33.7652 22.1493 34.1741 22.1493 34.5923C22.1493 35.1532 22.3721 35.6911 22.7687 36.0877C23.1653 36.4843 23.7032 36.7071 24.2641 36.7071Z" fill="white"/>
<path fill-rule="evenodd" clip-rule="evenodd" d="M22.0456 40.2163C22.3052 40.2163 22.559 40.1393 22.7748 39.995C22.9906 39.8508 23.1588 39.6458 23.2581 39.4059C23.3574 39.1661 23.3833 38.9022 23.3326 38.6476C23.2819 38.3931 23.1568 38.1592 22.9732 37.9758C22.7895 37.7923 22.5556 37.6674 22.301 37.6169C22.0464 37.5664 21.7825 37.5925 21.5427 37.692C21.303 37.7915 21.0981 37.9598 20.954 38.1758C20.81 38.3917 20.7332 38.6455 20.7334 38.9051C20.734 39.2528 20.8724 39.5862 21.1184 39.832C21.3644 40.0778 21.6979 40.216 22.0456 40.2163Z" fill="white"/>
<path fill-rule="evenodd" clip-rule="evenodd" d="M75.1068 43.7028C76.4087 43.702 77.6812 43.3151 78.7633 42.5912C79.8454 41.8673 80.6885 40.8387 81.1861 39.6356C81.6837 38.4326 81.8134 37.1089 81.5588 35.8321C81.3042 34.5554 80.6768 33.3827 79.7558 32.4625C78.8349 31.5423 77.6617 30.9158 76.3847 30.6622C75.1077 30.4086 73.7842 30.5394 72.5815 31.038C71.3788 31.5365 70.351 32.3805 69.6279 33.4632C68.9048 34.5459 68.519 35.8186 68.5192 37.1205C68.5229 38.8661 69.2183 40.539 70.453 41.7728C71.6878 43.0066 73.3613 43.7006 75.1068 43.7028Z" fill="#1A1818"/>
<path fill-rule="evenodd" clip-rule="evenodd" d="M74.4787 36.7071C74.897 36.7071 75.3058 36.5831 75.6536 36.3507C76.0014 36.1183 76.2725 35.7881 76.4325 35.4016C76.5926 35.0152 76.6345 34.59 76.5529 34.1798C76.4713 33.7695 76.2698 33.3927 75.9741 33.0969C75.6783 32.8012 75.3015 32.5998 74.8913 32.5182C74.481 32.4366 74.0558 32.4785 73.6694 32.6385C73.283 32.7986 72.9527 33.0696 72.7203 33.4174C72.4879 33.7652 72.3639 34.1741 72.3639 34.5923C72.3639 35.1532 72.5867 35.6911 72.9833 36.0877C73.3799 36.4843 73.9178 36.7071 74.4787 36.7071Z" fill="white"/>
<path fill-rule="evenodd" clip-rule="evenodd" d="M72.2592 40.2163C72.5188 40.2163 72.7726 40.1393 72.9884 39.995C73.2042 39.8508 73.3724 39.6458 73.4717 39.4059C73.571 39.1661 73.5969 38.9022 73.5462 38.6476C73.4955 38.3931 73.3704 38.1592 73.1867 37.9758C73.0031 37.7923 72.7692 37.6674 72.5146 37.6169C72.26 37.5664 71.9961 37.5925 71.7563 37.692C71.5166 37.7915 71.3117 37.9598 71.1676 38.1758C71.0236 38.3917 70.9468 38.6455 70.947 38.9051C70.9478 39.2528 71.0864 39.5859 71.3323 39.8317C71.5783 40.0774 71.9116 40.2157 72.2592 40.2163Z" fill="white"/>
</g>
<defs>
<clipPath id="clip0_14_3560">
<rect width="100" height="100" fill="white"/>
</clipPath>
</defs>
</svg>
