<svg width="60" height="60" viewBox="0 0 60 60" fill="none" xmlns="http://www.w3.org/2000/svg">
<path d="M59.4 18.5C59.1 18.2 58.5 18 58 18L49 18.4L34.9999 19H10.9999C9.29988 19 7.99992 20.2999 7.99992 22H0.999961C0.399961 22 0 22.3999 0 22.9999V37C0 37.6 0.399961 37.9999 0.999961 37.9999H7.99992C7.99992 39.7 9.29988 40.9999 10.9999 40.9999H34.9999L48.5771 41.4848C48.71 41.5569 48.8548 41.5999 48.9998 41.5999L57.9998 41.9999C58.4999 41.9999 58.9998 41.7998 59.3999 41.4998C59.7998 41.0999 59.9999 40.5998 59.9999 39.9998V20C60 19.4 59.8 18.9 59.4 18.5ZM2.00004 36V24H8.00004V36H2.00004ZM9.99996 38V37.0001V23V22.0001C9.99996 21.4001 10.3999 21.0001 10.9999 21.0001H34V39.0001H11C10.4 39 9.99996 38.6 9.99996 38ZM36 21L48 20.4V39.5L36 39V21ZM58 40L49.9999 39.6V20.4L58 20V40Z" fill="black"/>
<path d="M45 27H39C38.4 27 38 27.4 38 28C38 28.6 38.4 28.9999 39 28.9999H45C45.6 28.9999 45.9999 28.6 45.9999 28C45.9999 27.4 45.6 27 45 27Z" fill="black"/>
<path d="M45 23H39C38.4 23 38 23.4 38 24C38 24.6 38.4 24.9999 39 24.9999H45C45.6 24.9999 45.9999 24.6 45.9999 24C45.9999 23.4 45.6 23 45 23Z" fill="black"/>
<path d="M45 31H39C38.4 31 38 31.4 38 32C38 32.6 38.4 32.9999 39 32.9999H45C45.6 32.9999 45.9999 32.6 45.9999 32C45.9999 31.4 45.6 31 45 31Z" fill="black"/>
<path d="M45 35H39C38.4 35 38 35.4 38 36C38 36.6 38.4 36.9999 39 36.9999H45C45.6 36.9999 45.9999 36.6 45.9999 36C45.9999 35.4 45.6 35 45 35Z" fill="black"/>
<path d="M21 34H13C12.4 34 12 34.4 12 35C12 35.6 12.4 35.9999 13 35.9999H21C21.6 35.9999 22 35.6 22 35C22 34.4 21.6 34 21 34Z" fill="black"/>
<path d="M31 24H23C22.4 24 22 24.4 22 25C22 25.6 22.4 25.9999 23 25.9999H31C31.6 25.9999 32 25.6 32 25C32 24.4 31.6 24 31 24Z" fill="black"/>
</svg>
