<svg width="60" height="60" viewBox="0 0 60 60" fill="none" xmlns="http://www.w3.org/2000/svg">
<g clip-path="url(#clip0_16_5955)">
<path d="M29.9995 0C13.4316 0 0 13.4306 0 30.0005C0 46.5684 13.4316 60 29.9995 60C46.5684 60 60 46.5684 60 30.0005C60 13.4306 46.5684 0 29.9995 0Z" fill="#EDC92F"/>
<path d="M29.9995 27.9021C16.704 27.9021 5.92662 31.3955 5.92662 35.7049C5.92662 40.0134 16.704 43.5069 29.9995 43.5069C43.2951 43.5069 54.0734 40.0135 54.0734 35.7049C54.0734 31.3956 43.2951 27.9021 29.9995 27.9021Z" fill="#C1C1C1"/>
<path d="M30 26.4543C39.9219 26.4543 47.9652 24.2242 47.9652 21.4733C47.9652 18.7223 39.9219 16.4922 30 16.4922C20.0781 16.4922 12.0348 18.7223 12.0348 21.4733C12.0348 24.2242 20.0781 26.4543 30 26.4543Z" fill="#DDDDDD"/>
<path d="M29.9995 29.6562C17.951 29.6562 8.18413 32.3642 8.18413 35.705C8.18413 39.0448 17.9511 41.7528 29.9995 41.7528C42.049 41.7528 51.8159 39.0448 51.8159 35.705C51.8159 32.3642 42.049 29.6562 29.9995 29.6562Z" fill="#DDDDDD"/>
<path d="M47.9655 21.4741H12.0337L8.2978 35.3488H51.7012L47.9655 21.4741Z" fill="#DDDDDD"/>
<path d="M29.9995 17.6699C21.7119 17.6699 14.9943 19.5322 14.9943 21.8304C14.9943 24.1275 21.7119 25.9899 29.9995 25.9899C38.2872 25.9899 45.0057 24.1275 45.0057 21.8304C45.0057 19.5322 38.2872 17.6699 29.9995 17.6699Z" fill="#C4C4C4"/>
<path d="M29.9995 17.6699C21.7119 17.6699 14.9943 19.5322 14.9943 21.8304C14.9943 24.1275 21.7119 25.9899 29.9995 25.9899C38.2872 25.9899 45.0057 24.1275 45.0057 21.8304C45.0057 19.5322 38.2872 17.6699 29.9995 17.6699Z" fill="#C4C4C4"/>
<path d="M31.2226 22.4696L27.4867 20.8774C27.1362 20.7275 26.7308 20.8913 26.581 21.241L25.7705 23.145C25.6207 23.4947 25.7834 23.9 26.1341 24.049L29.8709 25.6421C30.2206 25.7909 30.6258 25.6282 30.7748 25.2776L31.5862 23.3745C31.7361 23.0238 31.5733 22.6185 31.2226 22.4696Z" fill="#663514"/>
<path d="M29.9995 17.6699C21.7119 17.6699 14.9943 19.5322 14.9943 21.8304C14.9943 24.1275 21.7119 25.9899 29.9995 25.9899C38.2872 25.9899 45.0057 24.1275 45.0057 21.8304C45.0057 19.5322 38.2872 17.6699 29.9995 17.6699Z" fill="#919191"/>
<path d="M30.0319 21.116L27.3675 16.0007C27.1178 15.5205 26.5261 15.3346 26.0449 15.5843L23.4396 16.9425C22.9608 17.1919 22.774 17.7831 23.0242 18.2632L25.6891 23.3788C25.9385 23.8581 26.5301 24.0441 27.0093 23.7942L29.616 22.437C30.0953 22.187 30.2818 21.5962 30.0319 21.116Z" fill="#843C0B"/>
<path d="M42.1123 17.1535L39.309 16.2741C38.7936 16.1126 38.2441 16.3985 38.0818 16.9157L36.3541 22.4186C36.1917 22.9339 36.4789 23.484 36.9953 23.6454L39.799 24.5262C40.3149 24.6881 40.8639 24.4012 41.0262 23.885L42.7544 18.3826C42.9163 17.8663 42.6295 17.3162 42.1123 17.1535Z" fill="#843C0B"/>
<path d="M39.6185 19.6473L34.3112 17.3857C33.8135 17.1733 33.238 17.4051 33.0261 17.9028L31.8739 20.6056C31.6625 21.1029 31.8938 21.6779 32.392 21.8903L37.6974 24.1519C38.1955 24.3633 38.7705 24.1319 38.9824 23.6352L40.1347 20.9319C40.3462 20.434 40.1149 19.8587 39.6185 19.6473Z" fill="#421E06"/>
<path d="M33.4731 23.5269L31.9489 17.9639C31.8058 17.4426 31.2675 17.135 30.7452 17.2784L27.9113 18.0546C27.3896 18.1971 27.0825 18.7359 27.2254 19.2578L28.7496 24.8207C28.893 25.3421 29.432 25.6497 29.9532 25.5068L32.7871 24.7297C33.3089 24.5872 33.6165 24.0487 33.4731 23.5269Z" fill="#B04902"/>
<path d="M33.238 22.7209L30.7743 21.1204C30.3209 20.8253 29.714 20.9534 29.4194 21.4076L26.5158 25.8762C27.6343 25.9492 28.7995 25.9899 29.9995 25.9899C30.7864 25.9899 31.5589 25.9728 32.3129 25.9405L33.5245 24.0759C33.82 23.6224 33.6914 23.0156 33.238 22.7209Z" fill="#421E06"/>
<path d="M43.4048 20.9635L37.6461 20.6323C37.1063 20.6009 36.6423 21.0135 36.6117 21.5533L36.4425 24.4866C36.4166 24.9561 36.7241 25.3668 37.1605 25.4868C40.4952 24.9835 43.0626 24.1397 44.2612 23.1248L44.3259 21.9975C44.3573 21.4575 43.9451 20.994 43.4048 20.9635Z" fill="#B04902"/>
<path d="M30.9113 20.0614L25.2549 18.93C24.7252 18.8235 24.2081 19.1677 24.1025 19.6974L23.5257 22.5788C23.4193 23.1099 23.7639 23.6252 24.2926 23.7311L29.9491 24.863C30.4802 24.9694 30.9968 24.6252 31.1013 24.0951L31.6783 21.2141C31.7847 20.684 31.441 20.1678 30.9113 20.0614Z" fill="#9D633C"/>
<path d="M15.2834 22.644C15.3404 22.7236 15.4041 22.8027 15.4773 22.8805C15.4046 22.8027 15.3402 22.7236 15.2834 22.644Z" fill="#919191"/>
<path d="M17.8604 24.2737C18.3876 24.4754 18.9789 24.6622 19.6246 24.8335C18.9789 24.6622 18.3878 24.4749 17.8604 24.2737Z" fill="#919191"/>
<path d="M15.1403 22.4048C15.17 22.4649 15.2056 22.5241 15.2445 22.5834C15.2056 22.5246 15.1704 22.4649 15.1403 22.4048Z" fill="#919191"/>
<path d="M14.9943 21.8301C14.9943 21.7404 15.008 21.6515 15.028 21.5627C15.0072 21.6516 14.9943 21.7404 14.9943 21.8301Z" fill="#919191"/>
<path d="M15.0377 21.5276C15.0608 21.4425 15.0908 21.3583 15.131 21.2751C15.0909 21.3585 15.0599 21.4426 15.0377 21.5276Z" fill="#919191"/>
<path d="M15.1316 21.2732C15.1311 21.2742 15.1311 21.2742 15.1311 21.2751C15.1311 21.2742 15.1316 21.2737 15.1321 21.2732H15.1316Z" fill="#9D633C"/>
<path d="M21.6315 23.1855L16.3241 20.9244C15.8866 20.7375 15.3897 20.8938 15.1321 21.2731C15.1316 21.2736 15.1311 21.2741 15.1311 21.2751C15.0909 21.3583 15.0609 21.4426 15.0378 21.5276C15.035 21.5397 15.0308 21.5512 15.0281 21.5628C15.0072 21.6515 14.9944 21.7404 14.9944 21.8301C14.9944 21.913 15.0055 21.9953 15.0229 22.0771C15.0281 22.1021 15.0363 22.127 15.0434 22.1521C15.0596 22.2095 15.0789 22.2678 15.1035 22.3251C15.1151 22.3515 15.127 22.3783 15.1405 22.4047C15.1706 22.4648 15.2058 22.5245 15.2446 22.5833C15.2579 22.6036 15.269 22.6239 15.2834 22.6439C15.3404 22.7234 15.4041 22.8025 15.4772 22.8803C15.4851 22.8878 15.4944 22.896 15.5018 22.9039C15.5689 22.9738 15.6423 23.0422 15.7219 23.1102C15.745 23.1301 15.7704 23.1504 15.7949 23.1703C15.8662 23.2281 15.9416 23.2855 16.022 23.3428C16.048 23.3613 16.0739 23.3799 16.1011 23.3984C16.201 23.4664 16.3065 23.5334 16.4189 23.6001C16.4268 23.6047 16.4337 23.6094 16.4417 23.6135C16.5712 23.6889 16.7085 23.763 16.8533 23.836C16.8598 23.8393 16.8672 23.8425 16.8737 23.8458C17.0078 23.9129 17.1489 23.9781 17.2951 24.0423C17.3201 24.0534 17.3455 24.0646 17.3705 24.0752C17.5115 24.1358 17.6577 24.1959 17.8095 24.2542C17.8267 24.2607 17.8432 24.2671 17.8604 24.2736C18.3877 24.4749 18.9789 24.6622 19.6246 24.8334C19.6376 24.837 19.6502 24.8403 19.6626 24.8436C20.318 25.0166 21.0295 25.173 21.789 25.3108L22.1476 24.4708C22.359 23.9724 22.1278 23.3974 21.6315 23.1855Z" fill="#9D633C"/>
<path d="M22.1536 25.3755C23.9092 25.6753 25.9042 25.876 28.04 25.9528C25.9038 25.876 23.9087 25.6748 22.1536 25.3755Z" fill="#919191"/>
<path d="M28.5711 23.7963L26.3152 21.9136C25.9016 21.5676 25.2841 21.6231 24.9371 22.0385L22.1513 25.3755C22.1523 25.3755 22.1528 25.3755 22.1528 25.3755C23.9088 25.6748 25.9039 25.8761 28.0401 25.9529C28.0425 25.9533 28.0453 25.9533 28.0476 25.9538L28.6961 25.1767C29.043 24.7612 28.986 24.1431 28.5711 23.7963Z" fill="#632D08"/>
<path d="M36.3823 25.5948C36.9485 25.5208 37.4937 25.4375 38.0188 25.345C37.4939 25.4375 36.948 25.5208 36.3823 25.5948Z" fill="#919191"/>
<path d="M33.6178 25.8667C34.2346 25.8246 34.8358 25.7714 35.4196 25.7085C34.8354 25.7714 34.2346 25.8246 33.6178 25.8667Z" fill="#919191"/>
<path d="M38.8479 25.1886C38.8525 25.1877 38.8571 25.1872 38.8612 25.1863V25.1858C38.8571 25.1868 38.8525 25.1877 38.8479 25.1886Z" fill="#843C0B"/>
<path d="M38.7942 22.0051C38.7035 21.4717 38.1979 21.1133 37.6659 21.204L31.9795 22.1716C31.4462 22.2623 31.0872 22.7684 31.1778 23.3017L31.6312 25.9648C31.9448 25.9552 32.2552 25.9426 32.5627 25.9278C32.609 25.926 32.6549 25.9232 32.7012 25.9214C32.9917 25.9065 33.2803 25.89 33.5649 25.8705C33.5825 25.8695 33.6004 25.8686 33.618 25.8668C34.2347 25.8247 34.836 25.7715 35.4197 25.7086C35.46 25.7044 35.5002 25.7002 35.5405 25.6956C35.8125 25.6655 36.0813 25.6336 36.3453 25.5994C36.3574 25.5976 36.3698 25.5966 36.3824 25.5948C36.9481 25.5208 37.4939 25.4375 38.0189 25.345C38.0517 25.3394 38.0846 25.3333 38.1171 25.3274C38.366 25.283 38.6102 25.2372 38.848 25.1886C38.8526 25.1877 38.8572 25.1868 38.8613 25.1858C38.9132 25.0397 38.9969 24.9037 39.1246 24.7935L39.2499 24.6838L38.7942 22.0051Z" fill="#843C0B"/>
<path d="M44.6606 20.943C44.3035 20.7081 43.822 20.7238 43.4834 21.017L39.2497 24.684L39.1245 24.7937C38.9968 24.9038 38.9131 25.0397 38.8612 25.1864C42.5859 24.4292 45.0057 23.2085 45.0057 21.8304C45.0057 21.5254 44.8846 21.2289 44.6606 20.943Z" fill="#9D633C"/>
<path d="M22.7545 16.5856L19.8546 16.1146C19.3218 16.0281 18.8185 16.3903 18.7315 16.9241L17.8068 22.6175C17.7199 23.1514 18.0825 23.6546 18.6163 23.7407L21.5167 24.2125C22.0505 24.2986 22.5533 23.9368 22.6404 23.403L23.5655 17.7094C23.6524 17.1758 23.2898 16.6725 22.7545 16.5856Z" fill="#5B2C12"/>
<path d="M26.1472 22.7646L24.5416 20.3041C24.2461 19.8517 23.6386 19.7235 23.1853 20.0187L18.3558 23.1717C17.9696 23.4233 17.8224 23.9007 17.9696 24.3165C19.4345 24.8601 21.3687 25.3004 23.6044 25.5928L25.8618 24.12C26.315 23.825 26.4427 23.217 26.1472 22.7646Z" fill="#421E06"/>
</g>
<defs>
<clipPath id="clip0_16_5955">
<rect width="60" height="60" fill="white"/>
</clipPath>
</defs>
</svg>
