<svg width="60" height="60" viewBox="0 0 60 60" fill="none" xmlns="http://www.w3.org/2000/svg">
<path d="M54.87 52.983V38.9252C54.87 37.8893 54.0309 37.0502 52.995 37.0502C51.9591 37.0502 51.12 37.8893 51.12 38.9252V48.4877C48.4751 45.8604 44.5364 41.9463 40.6645 38.0873V21.9131C44.5376 18.0553 48.4751 14.1412 51.12 11.5139V21.0752C51.12 22.1111 51.9591 22.9502 52.995 22.9502C54.0309 22.9502 54.87 22.1111 54.87 21.0752V7.01738C54.87 7.01621 54.87 7.01621 54.87 7.01504V7.00918C54.87 6.99512 54.8677 6.98223 54.8677 6.96816C54.8665 6.92129 54.8653 6.87324 54.8606 6.82637C54.8583 6.79941 54.8536 6.77363 54.8489 6.74668C54.8442 6.7127 54.8395 6.67871 54.8337 6.64473C54.8278 6.61543 54.8196 6.58613 54.8126 6.55684C54.8055 6.52637 54.7985 6.49707 54.7891 6.4666C54.7809 6.4373 54.7692 6.40918 54.7598 6.38105C54.7493 6.35176 54.7399 6.32246 54.7282 6.29316C54.7165 6.26621 54.7036 6.24043 54.6919 6.21348C54.6778 6.18418 54.6649 6.15488 54.6497 6.12676C54.6356 6.10098 54.6204 6.07754 54.6063 6.05176C54.5899 6.02363 54.5735 5.99551 54.5559 5.96855C54.5384 5.9416 54.5184 5.91699 54.4997 5.89121C54.4821 5.86777 54.4657 5.84434 54.447 5.8209C54.42 5.78691 54.3907 5.75645 54.3602 5.7248C54.3485 5.71191 54.338 5.69785 54.3251 5.68613C54.3239 5.68496 54.3227 5.68496 54.3227 5.68379C54.2794 5.64043 54.2337 5.59824 54.1856 5.55957C54.1669 5.54434 54.1458 5.53027 54.127 5.51504C54.0977 5.49277 54.0696 5.47051 54.0391 5.44941C54.0134 5.43184 53.9864 5.4166 53.9595 5.4002C53.9337 5.38496 53.9091 5.36855 53.8821 5.35449C53.8552 5.34043 53.8282 5.32871 53.8013 5.31582C53.7731 5.30176 53.745 5.2877 53.7157 5.27598C53.6911 5.26543 53.6653 5.25723 53.6395 5.24785C53.6067 5.23613 53.5751 5.22324 53.5423 5.21387C53.5188 5.20684 53.4942 5.20215 53.4708 5.19512C53.4356 5.18574 53.4005 5.17637 53.3641 5.16816C53.3384 5.16348 53.3114 5.15996 53.2856 5.15645C53.2516 5.15059 53.2177 5.14473 53.1825 5.14121C53.1216 5.13535 53.0606 5.13184 52.9997 5.13184C52.9985 5.13184 52.9962 5.13184 52.995 5.13184H38.929C37.893 5.13184 37.054 5.9709 37.054 7.00684C37.054 8.04277 37.893 8.88184 38.929 8.88184H48.4458C45.8079 11.5021 41.8997 15.3857 38.0524 19.2189H21.7973C17.9782 15.3846 14.1169 11.4998 11.5165 8.88184H21.079C22.1149 8.88184 22.954 8.04277 22.954 7.00684C22.954 5.9709 22.1149 5.13184 21.079 5.13184H7.01297C6.99422 5.13184 6.97547 5.13418 6.95672 5.13418C6.9157 5.13535 6.87352 5.13652 6.8325 5.14004C6.80203 5.14238 6.77391 5.14824 6.74461 5.15293C6.71414 5.15762 6.6825 5.16113 6.65203 5.16699C6.62039 5.17285 6.58875 5.18223 6.55828 5.18926C6.53016 5.19629 6.50203 5.20215 6.47391 5.21035C6.44344 5.21973 6.41297 5.23145 6.38367 5.24199C6.35555 5.25137 6.32859 5.26074 6.30047 5.27246C6.27234 5.28418 6.24539 5.29824 6.21727 5.31113C6.18914 5.32402 6.16102 5.33691 6.13406 5.35098C6.10711 5.36504 6.08133 5.38145 6.05555 5.39668C6.02859 5.41309 6.00164 5.42715 5.97586 5.44473C5.94774 5.46348 5.92195 5.4834 5.895 5.50332C5.87274 5.51973 5.85047 5.53496 5.8282 5.55371C5.79305 5.58301 5.76024 5.61348 5.72625 5.64512C5.7157 5.65566 5.70281 5.66504 5.69227 5.67559C5.69109 5.67676 5.69109 5.67676 5.68992 5.67793C5.64656 5.72129 5.60438 5.76699 5.56453 5.81504C5.5493 5.83379 5.53641 5.85371 5.52117 5.87246C5.49891 5.90176 5.47547 5.93105 5.45555 5.96152C5.43797 5.98848 5.42156 6.0166 5.40516 6.04355C5.38992 6.06816 5.37469 6.09277 5.36063 6.11855C5.34539 6.14668 5.3325 6.17598 5.31961 6.2041C5.30672 6.23105 5.29383 6.25684 5.28211 6.28496C5.27039 6.31191 5.26219 6.34004 5.25164 6.36816C5.24109 6.39746 5.22938 6.42793 5.22 6.4584C5.2118 6.48535 5.20594 6.51348 5.19891 6.5416C5.1907 6.57324 5.18133 6.60371 5.17547 6.63652C5.16844 6.67168 5.16375 6.70684 5.15906 6.74199C5.15555 6.76777 5.15086 6.79238 5.14734 6.81816C5.14149 6.8791 5.13797 6.94121 5.13797 7.00332C5.13797 7.00449 5.13797 7.00566 5.13797 7.00684V21.0729C5.13797 22.1088 5.97703 22.9479 7.01297 22.9479C8.04891 22.9479 8.88797 22.1088 8.88797 21.0729V11.5584C11.5083 14.1963 15.393 18.1045 19.2251 21.9518V38.0486C15.3919 41.8959 11.5083 45.8041 8.88797 48.442V38.9252C8.88797 37.8893 8.04891 37.0502 7.01297 37.0502C5.97703 37.0502 5.13797 37.8893 5.13797 38.9252V52.9912C5.13797 52.9924 5.13797 52.9936 5.13797 52.9947C5.13797 53.0568 5.14149 53.1178 5.14734 53.1799C5.14969 53.2045 5.15438 53.2291 5.15789 53.2525C5.16258 53.2889 5.16727 53.3252 5.1743 53.3604C5.18016 53.392 5.18953 53.4225 5.19774 53.4529C5.20477 53.4811 5.21063 53.5103 5.22 53.5385C5.22938 53.5689 5.24109 53.5971 5.25164 53.6264C5.26219 53.6545 5.27156 53.6838 5.28328 53.7119C5.295 53.7389 5.30789 53.7646 5.31961 53.7904C5.33367 53.8197 5.34656 53.849 5.3618 53.8783C5.37469 53.9029 5.38992 53.9264 5.40399 53.9498C5.42156 53.9791 5.4368 54.0072 5.45555 54.0354C5.4743 54.0635 5.49539 54.0904 5.51649 54.1174C5.53289 54.1396 5.54813 54.1619 5.5657 54.183C5.60438 54.2311 5.64656 54.2756 5.68992 54.3201C5.69109 54.3213 5.69109 54.3225 5.69227 54.3225C5.70516 54.3353 5.71922 54.3459 5.73211 54.3588C5.76258 54.3881 5.79422 54.4174 5.82703 54.4443C5.85047 54.4631 5.87391 54.4795 5.89852 54.4971C5.9243 54.5158 5.94891 54.5346 5.97469 54.5521C6.00164 54.5697 6.02977 54.5861 6.05789 54.6025C6.0825 54.6166 6.10594 54.6318 6.13172 54.6459C6.15984 54.6611 6.18914 54.674 6.21844 54.6881C6.24422 54.6998 6.27 54.7139 6.29695 54.7244C6.32508 54.7361 6.35438 54.7455 6.38367 54.7561C6.4118 54.7666 6.43992 54.7771 6.46922 54.7854C6.49852 54.7947 6.52781 54.8006 6.55828 54.8076C6.58758 54.8146 6.61688 54.8228 6.64734 54.8287C6.68133 54.8357 6.71531 54.8393 6.7493 54.8439C6.77508 54.8475 6.80203 54.8521 6.82781 54.8557C6.88875 54.8615 6.95086 54.865 7.01297 54.865H21.079C22.1149 54.865 22.954 54.026 22.954 52.99C22.954 51.9541 22.1149 51.115 21.079 51.115H11.5165C14.1438 48.4701 18.0579 44.5314 21.9157 40.6596H37.9329C41.8188 44.5314 45.7798 48.4678 48.4446 51.115H38.9278C37.8919 51.115 37.0528 51.9541 37.0528 52.99C37.0528 54.026 37.8919 54.865 38.9278 54.865H52.9938C53.0559 54.865 53.118 54.8615 53.179 54.8557C53.2071 54.8533 53.2352 54.8475 53.2634 54.8439C53.2962 54.8393 53.3278 54.8357 53.3606 54.8287C53.3923 54.8228 53.4239 54.8135 53.4555 54.8053C53.4837 54.7982 53.5118 54.7924 53.5387 54.7842C53.5692 54.7748 53.5985 54.7631 53.629 54.7525C53.6571 54.742 53.6852 54.7338 53.7122 54.7221C53.7391 54.7103 53.7661 54.6975 53.793 54.6846C53.8223 54.6705 53.8516 54.6576 53.8798 54.6436C53.9044 54.6307 53.929 54.6143 53.9524 54.6002C53.9805 54.5838 54.0098 54.5674 54.0368 54.5486C54.0649 54.5299 54.0907 54.5088 54.1177 54.4889C54.1399 54.4725 54.1634 54.4572 54.1845 54.4385C54.2325 54.3998 54.277 54.3576 54.3216 54.3143C54.3227 54.3131 54.3239 54.3119 54.3251 54.3119C54.3391 54.2978 54.3509 54.2826 54.3638 54.2686C54.3919 54.2381 54.42 54.2088 54.4458 54.1771C54.4645 54.1537 54.4821 54.1291 54.4997 54.1045C54.5184 54.0799 54.5372 54.0553 54.5548 54.0295C54.5735 54.0025 54.5888 53.9732 54.6063 53.9451C54.6204 53.9205 54.6356 53.8971 54.6497 53.8713C54.6649 53.842 54.6778 53.8127 54.6919 53.7834C54.7036 53.7576 54.7165 53.7318 54.7282 53.7049C54.7399 53.6756 54.7505 53.6463 54.761 53.617C54.7716 53.5889 54.7821 53.5607 54.7903 53.5314C54.7997 53.5021 54.8055 53.4717 54.8138 53.4412C54.8208 53.4119 54.829 53.3826 54.8348 53.3533C54.8419 53.3193 54.8454 53.2854 54.8501 53.2514C54.8536 53.2244 54.8583 53.1986 54.8618 53.1717C54.8665 53.1248 54.8677 53.0779 54.8688 53.0311C54.8688 53.017 54.8712 53.0029 54.8712 52.9889V52.983C54.87 52.9842 54.87 52.9842 54.87 52.983ZM22.9751 22.9713H36.9145V36.9107H22.9751V22.9713Z" fill="#333333"/>
</svg>
