<svg width="61" height="60" viewBox="0 0 61 60" fill="none" xmlns="http://www.w3.org/2000/svg">
<g clip-path="url(#clip0_19_16169)">
<path d="M46.5511 56.2233L44.0094 54.468L41.2509 47.7825C41.0863 47.3335 40.5886 47.1029 40.1399 47.2675C39.691 47.4321 39.4603 47.9294 39.6249 48.3784L42.3966 55.0997C42.4126 55.1435 42.4319 55.1852 42.4539 55.2247L41.5756 57.993C41.431 58.4489 41.6833 58.9356 42.139 59.0802C42.2261 59.1078 42.3143 59.121 42.401 59.121C42.7683 59.121 43.1092 58.8854 43.2262 58.5168L43.8729 56.4783L45.5671 57.6483C45.9605 57.92 46.4997 57.8212 46.7716 57.4278C47.0433 57.0342 46.9446 56.4949 46.5511 56.2233Z" fill="#EFB899"/>
<path d="M34.17 57.3309L32.4456 54.9039C32.4579 54.8458 32.4647 54.7856 32.4647 54.7237V50.2707C32.4647 49.7924 32.077 49.4048 31.5989 49.4048C31.1207 49.4048 30.733 49.7924 30.733 50.2707V54.7237C30.733 54.7808 30.7389 54.8364 30.7494 54.8903L28.8864 57.3032C28.5941 57.6817 28.6641 58.2255 29.0426 58.5178C29.4211 58.8099 29.9648 58.7401 30.2571 58.3615L31.57 56.6612L32.7584 58.3338C32.9272 58.5714 33.1939 58.6982 33.4649 58.6982C33.6383 58.6982 33.8135 58.6462 33.9656 58.5381C34.3556 58.2612 34.447 57.7208 34.17 57.3309Z" fill="#EFB899"/>
<path d="M14.3761 32.3338C14.0742 37.2211 17.021 41.5179 20.3481 43.7229C23.5183 45.8241 26.6917 45.799 31.3849 45.7621C35.5217 45.7295 39.5491 45.6978 43.869 43.3086C45.7204 42.2846 52.2423 38.2739 53.1338 31.3272C53.2504 30.4185 53.7677 26.388 51.7272 22.6877C51.0841 21.5213 50.3985 20.7718 49.5091 18.7703C48.3875 16.2466 47.6796 14.6535 48.3188 13.3505C49.2094 11.5357 51.7013 12.3466 53.2963 10.1845C54.6737 8.31731 54.1201 5.94344 54.0536 5.67684C53.2954 2.63231 49.926 0.64223 47.0204 0.90098C43.7899 1.18856 41.8585 4.19149 41.4479 4.87199C37.7368 11.022 42.8072 18.772 40.0903 20.5217C39.0703 21.1785 38.1446 20.2223 34.9016 19.6826C31.1303 19.0551 27.3122 19.5047 24.6763 20.4339C20.9795 21.7369 14.7868 25.6827 14.3761 32.3338Z" fill="#AF602D"/>
<path d="M53.2961 10.1842C54.6735 8.31707 54.1199 5.9432 54.0535 5.6766C54.0099 5.50176 53.9568 5.33078 53.8966 5.16309L57.7613 10.1102C58.0573 10.4891 57.7873 11.0427 57.3064 11.0427H52.4341C52.7387 10.8216 53.03 10.545 53.2961 10.1842Z" fill="#FFAAA1"/>
<path d="M57.7612 10.1106L53.8965 5.16357C53.9567 5.33127 54.0098 5.50225 54.0534 5.67709C54.0829 5.79557 54.2084 6.33111 54.218 7.05287L56.6068 10.1106C56.9028 10.4896 56.6328 11.0432 56.1519 11.0432H57.3063C57.7872 11.0432 58.0572 10.4896 57.7612 10.1106Z" fill="#FF938A"/>
<path d="M51.7271 22.6875C51.084 21.5211 50.3983 20.7716 49.509 18.7701C48.3874 16.2464 47.6795 14.6533 48.3187 13.3503C48.9663 12.0304 50.4609 12.0985 51.8415 11.4025L52.2272 11.1992C51.6992 14.2043 53.6206 16.1943 53.6206 16.1943C53.6206 16.1943 56.0011 18.7164 55.8388 20.9165C55.6765 23.1166 52.4717 24.3359 52.4717 24.3359C52.4717 24.3359 52.1249 23.4086 51.7271 22.6875Z" fill="#F54432"/>
<path d="M12.3683 9.86241C16.0404 4.11799 18.6631 8.09956 18.6631 8.09956L24.9465 20.3441C24.8563 20.374 24.7639 20.4028 24.6761 20.4338C20.9795 21.7369 14.7868 25.6827 14.3761 32.3339C14.0742 37.2212 17.021 41.518 20.3481 43.723C20.8941 44.0849 21.4405 44.3824 21.9944 44.629C20.3058 48.3221 17.8675 48.7153 17.2408 48.7542C17.1464 48.7601 17.0534 48.7431 16.9673 48.7039C15.9044 48.2199 8.16735 44.389 4.12497 33.7432C-0.221399 22.2965 8.69634 15.6068 12.3683 9.86241Z" fill="#D97C41"/>
<path d="M53.2961 10.1845C54.6734 8.31731 54.12 5.94344 54.0535 5.67684C53.2953 2.63219 49.9258 0.642231 47.0203 0.900981C46.8096 0.919731 46.6047 0.950551 46.4052 0.991098C48.8084 1.44133 51.1312 3.21368 51.7446 5.67696C51.811 5.94356 52.3645 8.31731 50.9872 10.1846C49.3923 12.3467 46.9003 11.5359 46.0098 13.3506C45.3704 14.6536 46.0784 16.2467 47.2 18.7704C48.0895 20.7718 48.775 21.5214 49.4182 22.6878C51.4587 26.3881 50.9415 30.4186 50.8248 31.3273C49.9332 38.2742 43.4113 42.2847 41.5599 43.3087C37.2402 45.6979 33.2127 45.7296 29.0758 45.7623C28.9477 45.7634 28.8212 45.7643 28.6953 45.7653C29.5377 45.7765 30.4292 45.7698 31.3846 45.7623C35.5215 45.7298 39.5489 45.698 43.8688 43.3087C45.7202 42.2847 52.242 38.2741 53.1336 31.3273C53.2502 30.4186 53.7675 26.3881 51.727 22.6878C51.0839 21.5214 50.3982 20.7719 49.5089 18.7704C48.3873 16.2467 47.6793 14.6536 48.3186 13.3506C49.2092 11.5357 51.7012 12.3466 53.2961 10.1845Z" fill="#A05423"/>
<path d="M53.6207 16.1948C53.6207 16.1948 51.6993 14.2047 52.2271 11.1997L51.8414 11.403C51.5635 11.5432 51.2809 11.6521 51.0017 11.7478C50.7762 14.4444 52.4662 16.1948 52.4662 16.1948C52.4662 16.1948 54.8466 18.7169 54.6843 20.917C54.5809 22.3173 53.246 23.3194 52.2885 23.8636C52.3525 24.0196 52.412 24.1753 52.4686 24.3309L52.4796 24.3334C52.6435 24.2695 55.6807 23.0579 55.8387 20.9171C56.0011 18.7169 53.6207 16.1948 53.6207 16.1948Z" fill="#E83826"/>
<path d="M41.276 44.4888L42.7379 49.5732C42.8415 49.9337 42.5792 50.2956 42.2045 50.3095L40.1825 50.3841C40.0929 50.3874 40.0053 50.3558 39.9385 50.2959L34.7954 45.6854C36.9362 45.575 39.0774 45.2867 41.276 44.4888Z" fill="#D97C41"/>
<path d="M31.3849 45.762C33.1822 45.7478 34.9589 45.7336 36.7479 45.5264C34.5223 47.1248 33.3661 49.1735 32.981 49.9573C32.8836 50.1556 32.6829 50.2821 32.462 50.2821H30.2226C30.0078 50.2821 29.8108 50.1629 29.7112 49.9726L27.4912 45.733C28.6777 45.783 29.9611 45.7733 31.3849 45.762Z" fill="#D97C41"/>
<path d="M29.1806 45.7692C28.595 45.7657 28.0324 45.7558 27.4912 45.7329L27.5075 45.764C28.0441 45.7716 28.5999 45.7722 29.1806 45.7692Z" fill="#C76D33"/>
<path d="M35.4307 45.6468C32.7409 47.6523 31.6775 50.2821 31.6775 50.2821H32.4621C32.683 50.2821 32.8837 50.1556 32.9811 49.9573C33.3662 49.1736 34.5225 47.1248 36.748 45.5264C36.3083 45.5773 35.8693 45.6164 35.4307 45.6468Z" fill="#C76D33"/>
<path d="M48.6872 6.43687H46.3386C45.8603 6.43687 45.4727 6.04922 45.4727 5.57098C45.4727 5.09273 45.8603 4.70508 46.3386 4.70508H48.6871C49.1654 4.70508 49.5529 5.09273 49.5529 5.57098C49.5529 6.04922 49.1654 6.43687 48.6872 6.43687Z" fill="#EFB899"/>
<path d="M20.117 43.5649C20.117 43.5653 20.117 43.5656 20.117 43.5661C20.0983 43.7366 19.8821 44.2183 19.6852 44.629C19.6852 44.629 19.6854 44.6291 19.6857 44.6292C19.5811 44.8579 19.4736 45.0733 19.3639 45.2774C19.3606 45.2837 19.3585 45.2879 19.3585 45.2879H19.3581C18.381 47.1006 17.2253 47.968 16.3196 48.3819C16.6172 48.54 16.8385 48.6453 16.9658 48.7033C17.0524 48.7428 17.1461 48.7603 17.2411 48.7545C17.8681 48.7154 20.3061 48.3221 21.9946 44.6292C21.4407 44.3827 20.8943 44.0851 20.3483 43.7233C20.2708 43.6719 20.1939 43.6184 20.117 43.5649Z" fill="#C76D33"/>
<path d="M18.6631 8.09971C18.6631 8.09971 17.2911 6.01811 15.1426 7.03823C15.9141 7.43233 16.3542 8.09971 16.3542 8.09971L22.6375 20.3443C22.6352 20.3451 22.6327 20.3458 22.6304 20.3466C22.7463 20.5998 22.9687 21.086 22.9912 21.1408C23.5869 20.8528 24.1562 20.6172 24.6761 20.4339C24.7638 20.403 24.8561 20.374 24.9465 20.3443L18.6631 8.09971Z" fill="#C76D33"/>
<path d="M42.738 49.5732L41.2761 44.4888C40.9229 44.617 40.5713 44.7306 40.2209 44.8339L41.7747 50.2378L41.803 50.3244L42.2047 50.3095C42.5795 50.2956 42.8417 49.9337 42.738 49.5732Z" fill="#C76D33"/>
<path d="M29.3777 47.3279C25.4501 47.3279 22.4188 47.1015 19.4026 45.1025C16.2046 42.9829 12.5954 38.4773 12.9489 32.7547C13.3955 25.5223 20.0989 21.2717 23.9894 19.9002C27.1275 18.794 31.1708 18.4949 34.8055 19.0995C36.2075 19.3328 37.2102 19.6425 37.9423 19.8687C38.9484 20.1796 39.2086 20.2364 39.4523 20.0792C40.1891 19.6047 39.8706 17.6978 39.5334 15.6789C39.0084 12.5356 38.2894 8.23059 40.5539 4.47813C41.1355 3.51415 43.311 0.343989 46.8851 0.0258247C48.5277 -0.119839 50.3291 0.355473 51.8293 1.33106C53.4288 2.37133 54.5389 3.865 54.9553 5.5368C55.0819 6.04493 55.6325 8.68903 54.0409 10.8466C53.0455 12.196 51.7713 12.5973 50.7476 12.9197C49.8275 13.2095 49.3351 13.3859 49.0701 13.9258C48.6021 14.8797 49.2746 16.3928 50.2924 18.6831C50.8604 19.9613 51.334 20.6988 51.7917 21.4121C52.0397 21.7983 52.2739 22.1631 52.5105 22.5923C53.9564 25.2142 54.4855 28.4323 54.0405 31.8985C53.6296 35.1006 52.0875 38.0753 49.4572 40.7398C47.4431 42.78 45.2922 44.108 44.1894 44.718C39.6091 47.2513 35.2826 47.2854 31.0984 47.3184C30.5054 47.3234 29.9325 47.3279 29.3777 47.3279ZM30.9863 20.5482C28.7119 20.5482 26.4602 20.8931 24.5739 21.5581C21.0913 22.7857 15.0933 26.5483 14.7034 32.8631C14.3961 37.838 17.5659 41.7763 20.3737 43.6373C23.368 45.6218 26.4378 45.5969 31.0846 45.5609C35.2317 45.5282 39.1488 45.4974 43.3386 43.1801C45.2279 42.1352 51.4574 38.2173 52.297 31.6751C52.694 28.5815 52.2357 25.7343 50.9712 23.4414C50.7629 23.0637 50.5441 22.7229 50.3124 22.3621C49.8419 21.6291 49.3086 20.7984 48.6861 19.3976C47.4673 16.6551 46.6621 14.8434 47.492 13.1519C48.1009 11.9109 49.2264 11.5564 50.2194 11.2435C51.1201 10.9598 51.9709 10.6918 52.6262 9.80336C53.7743 8.247 53.3066 6.19118 53.2495 5.96184C52.559 3.18942 49.4818 1.55957 47.0409 1.77696C44.2912 2.02176 42.5325 4.60165 42.0589 5.38645C40.1303 8.58239 40.7607 12.3568 41.2672 15.3895C41.7213 18.1082 42.1134 20.4563 40.4041 21.5572C39.4471 22.1734 38.554 21.8976 37.4233 21.5482C36.701 21.3251 35.8019 21.0474 34.517 20.8335C33.3664 20.6422 32.1732 20.5482 30.9863 20.5482Z" fill="black"/>
<path d="M34.8845 37.6623C30.8149 37.6623 27.1479 36.2513 26.9291 36.1657C26.4772 35.9886 26.2543 35.4786 26.4314 35.0267C26.6085 34.575 27.1179 34.3522 27.5699 34.5288C27.6402 34.5562 34.6591 37.2482 39.4942 35.0135C41.3564 34.1526 42.6726 32.6394 43.4064 30.5155C43.4095 30.5064 43.4128 30.4974 43.4162 30.4885C43.4232 30.4695 44.2419 28.2107 43.1382 25.8843C42.2401 23.9915 40.3302 22.5365 37.4616 21.5599C37.0021 21.4034 36.7563 20.9041 36.9128 20.4446C37.0692 19.9851 37.5687 19.7392 38.028 19.8958C41.3783 21.0364 43.6368 22.8079 44.7408 25.1612C46.1134 28.0872 45.1619 30.8349 45.0644 31.0995C44.167 33.6898 42.5392 35.5442 40.2261 36.6117C38.5404 37.3894 36.6734 37.6623 34.8845 37.6623Z" fill="black"/>
<path d="M29.3777 47.3279C25.4501 47.3279 22.4188 47.1015 19.4026 45.1025C16.2046 42.9829 12.5954 38.4773 12.9489 32.7547C13.3955 25.5223 20.0989 21.2717 23.9894 19.9002C27.1275 18.794 31.1708 18.4949 34.8055 19.0995C36.2075 19.3328 37.2102 19.6425 37.9423 19.8687C38.9484 20.1796 39.2086 20.2364 39.4523 20.0792C40.1891 19.6047 39.8706 17.6978 39.5334 15.6789C39.0084 12.5356 38.2894 8.23059 40.5539 4.47813C41.1355 3.51415 43.311 0.343989 46.8851 0.0258247C48.5277 -0.119839 50.3291 0.355473 51.8293 1.33106C53.4288 2.37133 54.5389 3.865 54.9553 5.5368C55.0819 6.04493 55.6325 8.68903 54.0409 10.8466C53.0455 12.196 51.7713 12.5973 50.7476 12.9197C49.8275 13.2095 49.3351 13.3859 49.0701 13.9258C48.6021 14.8797 49.2746 16.3928 50.2924 18.6831C50.8604 19.9613 51.334 20.6988 51.7917 21.4121C52.0397 21.7983 52.2739 22.1631 52.5105 22.5923C53.9564 25.2142 54.4855 28.4323 54.0405 31.8985C53.6296 35.1006 52.0875 38.0753 49.4572 40.7398C47.4431 42.78 45.2922 44.108 44.1894 44.718C39.6091 47.2513 35.2826 47.2854 31.0984 47.3184C30.5054 47.3234 29.9325 47.3279 29.3777 47.3279ZM30.9863 20.5482C28.7119 20.5482 26.4602 20.8931 24.5739 21.5581C21.0913 22.7857 15.0933 26.5483 14.7034 32.8631C14.3961 37.838 17.5659 41.7763 20.3737 43.6373C23.368 45.6218 26.4378 45.5969 31.0846 45.5609C35.2317 45.5282 39.1488 45.4974 43.3386 43.1801C45.2279 42.1352 51.4574 38.2173 52.297 31.6751C52.694 28.5815 52.2357 25.7343 50.9712 23.4414C50.7629 23.0637 50.5441 22.7229 50.3124 22.3621C49.8419 21.6291 49.3086 20.7984 48.6861 19.3976C47.4673 16.6551 46.6621 14.8434 47.492 13.1519C48.1009 11.9109 49.2264 11.5564 50.2194 11.2435C51.1201 10.9598 51.9709 10.6918 52.6262 9.80336C53.7743 8.247 53.3066 6.19118 53.2495 5.96184C52.559 3.18942 49.4818 1.55957 47.0409 1.77696C44.2912 2.02176 42.5325 4.60165 42.0589 5.38645C40.1303 8.58239 40.7607 12.3568 41.2672 15.3895C41.7213 18.1082 42.1134 20.4563 40.4041 21.5572C39.4471 22.1734 38.554 21.8976 37.4233 21.5482C36.701 21.3251 35.8019 21.0474 34.517 20.8335C33.3664 20.6422 32.1732 20.5482 30.9863 20.5482Z" fill="black"/>
<path d="M58.6056 12.0753H52.4586C52.0778 12.0753 51.7403 11.8302 51.6227 11.4679C51.505 11.1058 51.6339 10.7091 51.942 10.4853C52.2044 10.2947 52.4282 10.0715 52.6261 9.80317C53.7742 8.2468 53.3065 6.19098 53.2495 5.96164C53.2143 5.82008 53.1706 5.67735 53.1159 5.525C52.9701 5.11883 53.1407 4.66672 53.5188 4.45836C53.8968 4.25012 54.37 4.3468 54.6358 4.687L59.2983 10.6554C59.5052 10.9202 59.543 11.2797 59.3957 11.5817C59.2483 11.8837 58.9417 12.0753 58.6056 12.0753ZM54.3849 10.3175H56.8038L55.0948 8.12985C55.0069 8.82653 54.8007 9.58696 54.3849 10.3175Z" fill="black"/>
<path d="M52.6776 26.1038C52.6319 26.1038 52.5859 26.1003 52.54 26.093C52.2101 26.0408 51.9382 25.8059 51.8386 25.4872C51.7867 25.321 51.7313 25.1567 51.6727 24.9946C51.6715 24.9915 51.6703 24.9882 51.6692 24.985C51.4724 24.4432 51.2387 23.9257 50.9716 23.4412C50.7633 23.0635 50.5444 22.7227 50.3127 22.3619C49.8422 21.6289 49.3089 20.7982 48.6864 19.3974C47.4675 16.6549 46.6623 14.8432 47.4923 13.1517C48.1013 11.9105 49.2269 11.5556 50.2199 11.2425C50.6371 11.111 51.0685 10.9749 51.4615 10.7768C51.6672 10.673 51.9053 10.6542 52.1247 10.7244L52.5162 10.8494C52.9349 10.9832 53.1904 11.4057 53.1143 11.8387C52.6698 14.3693 54.2228 15.7475 54.2385 15.7611C54.2608 15.7804 54.2821 15.8008 54.3024 15.8223C54.5769 16.1131 56.9793 18.7377 56.7913 21.2837C56.6444 23.2771 54.7122 24.5662 53.5927 25.1504C53.5843 25.3577 53.519 25.5574 53.3942 25.7334C53.2279 25.968 52.9594 26.1038 52.6776 26.1038ZM51.2757 12.7479C51.0938 12.81 50.9169 12.8657 50.7484 12.9188C49.8279 13.209 49.3353 13.3856 49.0702 13.9258C48.6021 14.8797 49.2747 16.3928 50.2925 18.6832C50.8605 19.9613 51.334 20.6988 51.7918 21.4121C52.0397 21.7984 52.274 22.1632 52.5106 22.5923C52.6721 22.8852 52.8229 23.1877 52.9625 23.4989C53.8443 23.012 54.9634 22.1678 55.0382 21.1544C55.1486 19.6571 53.6581 17.7093 53.0455 17.0519C52.7652 16.7916 51.2793 15.2918 51.2757 12.7479Z" fill="black"/>
<path d="M16.6037 50.3597C16.57 50.3597 16.548 50.3589 16.5388 50.3584C16.4376 50.3536 16.3378 50.3314 16.2442 50.2926C16.1495 50.2534 13.8945 49.3054 11.0814 46.8834C8.50573 44.6657 4.94312 40.726 2.59855 34.5515C0.962492 30.2426 0.939406 26.1849 2.52788 22.1462C3.88527 18.6953 6.20558 15.8014 8.25296 13.248C9.30425 11.9368 10.2972 10.6984 11.0475 9.52469C12.5499 7.17437 14.1398 5.97695 15.7729 5.96582C15.7805 5.96582 15.7881 5.96582 15.7957 5.96582C17.7306 5.96582 18.8644 7.65309 18.9119 7.72516C18.9293 7.75176 18.9454 7.77906 18.9599 7.80742L25.3382 20.2368C25.4554 20.4653 25.4669 20.7337 25.3695 20.9713C25.2721 21.209 25.0757 21.3921 24.8318 21.4727L24.7431 21.5017C24.6862 21.5202 24.6292 21.5386 24.5742 21.558C21.0914 22.7857 15.0934 26.5482 14.7035 32.863C14.3963 37.838 17.5661 41.7763 20.3739 43.6373C20.8763 43.9702 21.381 44.248 21.9169 44.4865C22.1312 44.5819 22.2986 44.7591 22.3816 44.9786C22.4645 45.1981 22.4563 45.4416 22.3588 45.655C20.2928 50.173 17.1127 50.3597 16.6037 50.3597ZM15.7948 7.72363C15.7878 7.72363 15.7809 7.72363 15.7737 7.72375C14.791 7.73758 13.6688 8.68773 12.5285 10.4714C11.7276 11.7245 10.7059 12.9987 9.62429 14.3475C5.54734 19.4323 0.926281 25.1954 4.24198 33.9272C6.44241 39.7223 9.76714 43.4189 12.1688 45.4996C14.3619 47.3997 16.2082 48.3382 16.7542 48.5946C17.2598 48.5472 18.965 48.1982 20.3742 45.6857C20.0455 45.5083 19.7235 45.3149 19.4026 45.1022C16.2045 42.9827 12.5953 38.477 12.9488 32.7544C13.3707 25.922 19.3766 21.7506 23.3198 20.1539L17.4241 8.66477C17.3067 8.50738 16.6779 7.72363 15.7948 7.72363Z" fill="black"/>
<path d="M39.8801 52.0156C39.664 52.0156 39.4551 51.9359 39.2935 51.791L33.9671 47.0162C33.702 46.7787 33.6065 46.4046 33.7251 46.069C33.8437 45.7334 34.153 45.5024 34.5085 45.484C37.023 45.3543 38.9733 44.9956 40.8324 44.3208C41.0611 44.2377 41.3142 44.2533 41.5313 44.3639C41.7482 44.4744 41.9096 44.6701 41.9768 44.9042L43.6677 50.7851C43.7424 51.0449 43.6934 51.3246 43.5348 51.5435C43.3762 51.7626 43.1257 51.8963 42.8555 51.9062L39.9127 52.015C39.9018 52.0155 39.8909 52.0156 39.8801 52.0156ZM36.6608 47.0704L40.2025 50.2452L41.6678 50.1911L40.5412 46.2726C39.3339 46.646 38.0745 46.9056 36.6608 47.0704Z" fill="black"/>
<path d="M32.5602 51.9071H29.5571C29.23 51.9071 28.9301 51.7256 28.7785 51.4359L26.3606 46.8182C26.2148 46.5399 26.2287 46.205 26.397 45.9397C26.5654 45.6745 26.8628 45.5189 27.1762 45.5324C28.3679 45.5825 29.6875 45.5722 31.0845 45.5611C32.9246 45.5465 34.6626 45.5329 36.4342 45.3276C36.8315 45.2817 37.2106 45.5101 37.3551 45.8836C37.4995 46.257 37.3733 46.6809 37.0481 46.9146C34.4526 48.7787 33.3849 51.3337 33.3744 51.3593C33.2392 51.6895 32.917 51.9071 32.5602 51.9071ZM30.089 50.1493H32.0036C32.3296 49.5137 32.9766 48.4107 34.0254 47.2654C33.0388 47.3036 32.0599 47.3114 31.0986 47.319C30.2382 47.3258 29.4065 47.3324 28.6101 47.3249L30.089 50.1493Z" fill="black"/>
<path d="M48.6551 6.52051H46.271C45.7856 6.52051 45.3921 6.12699 45.3921 5.6416C45.3921 5.15621 45.7856 4.7627 46.271 4.7627H48.6551C49.1404 4.7627 49.534 5.15621 49.534 5.6416C49.534 6.12699 49.1404 6.52051 48.6551 6.52051Z" fill="black"/>
<path d="M31.3091 56.4154C30.8237 56.4154 30.4302 56.0219 30.4302 55.5365V51.1367C30.4302 50.6513 30.8237 50.2578 31.3091 50.2578C31.7945 50.2578 32.188 50.6513 32.188 51.1367V55.5365C32.188 56.0219 31.7945 56.4154 31.3091 56.4154Z" fill="black"/>
<path d="M43.0947 56.4951C42.7364 56.4951 42.3999 56.2744 42.2693 55.9184L40.6276 51.4394C40.4606 50.9837 40.6947 50.4788 41.1504 50.3117C41.6059 50.1447 42.1111 50.3787 42.2781 50.8345L43.9198 55.3135C44.0868 55.7693 43.8527 56.2741 43.397 56.4412C43.2973 56.4778 43.1952 56.4951 43.0947 56.4951Z" fill="black"/>
<path d="M33.2031 59.5712C32.9281 59.5712 32.6573 59.4426 32.4859 59.2013L31.2796 57.5033L29.9469 59.2294C29.6503 59.6135 29.0983 59.6846 28.7141 59.388C28.3299 59.0912 28.259 58.5393 28.5556 58.1551L30.6133 55.4902C30.7835 55.2699 31.0484 55.1437 31.3264 55.1486C31.6048 55.1541 31.8641 55.2912 32.0254 55.5183L33.9189 58.1833C34.2 58.5789 34.1072 59.1277 33.7115 59.4088C33.5569 59.5185 33.3791 59.5712 33.2031 59.5712Z" fill="black"/>
<path d="M42.2739 60.0001C42.1859 60.0001 42.0962 59.9867 42.0079 59.9587C41.5452 59.8119 41.2892 59.3178 41.4359 58.8552L42.4518 55.6532C42.536 55.3876 42.7414 55.1776 43.005 55.0875C43.2688 54.9971 43.5594 55.0373 43.7889 55.1959L46.4866 57.0588C46.886 57.3346 46.9862 57.882 46.7104 58.2814C46.4344 58.6808 45.887 58.781 45.4878 58.5052L43.768 57.3177L43.1116 59.3868C42.9927 59.761 42.6468 60.0001 42.2739 60.0001Z" fill="black"/>
</g>
<defs>
<clipPath id="clip0_19_16169">
<rect width="60" height="60" fill="white" transform="translate(0.420898)"/>
</clipPath>
</defs>
</svg>
