<svg width="60" height="60" viewBox="0 0 60 60" fill="none" xmlns="http://www.w3.org/2000/svg">
<g clip-path="url(#clip0_16_6014)">
<path d="M51.6873 31.9233V27.1267L52.4724 27.1341L53.2574 27.1414L53.2717 29.1329L53.2858 31.1247L53.3687 31.1946C53.4751 31.2841 53.6399 31.2704 53.7499 31.1629L53.8232 31.091L53.8309 29.1086L53.8386 27.1267L54.7928 27.134L55.747 27.1412V27.6955L55.6269 27.704L55.5067 27.7125V36.1655H55.7635L55.7552 36.4358L55.747 36.7062L54.7921 36.7134L53.8373 36.7208V34.8475C53.8373 32.8705 53.8384 32.8875 53.7115 32.7844C53.6313 32.719 53.4454 32.7389 53.3611 32.8217L53.2858 32.8953L53.2781 34.8079L53.2704 36.7203H51.6873V31.9233ZM45.7808 36.6398C45.5107 36.5485 45.3215 36.3529 45.2022 36.0408L45.1383 35.8745L45.1308 31.501L45.1231 27.1274H46.7083V31.0097C46.7083 35.1715 46.7037 35.0356 46.8455 35.1098C46.9559 35.1678 47.1024 35.1463 47.1914 35.0589L47.2741 34.9778V27.1273H48.83V31.0241C48.83 35.2232 48.8236 35.0345 48.9699 35.1114C49.0776 35.1679 49.2249 35.1454 49.313 35.0589L49.3958 34.9778V27.1273H51.2367L51.2285 27.4113L51.2202 27.6957L51.1143 27.7042L51.008 27.7129V36.138H51.2344V36.6925L48.5822 36.6911C46.088 36.69 45.9216 36.6875 45.7808 36.6398ZM56.8832 36.6535C56.615 36.5816 56.36 36.3355 56.2522 36.0448C56.2019 35.9088 56.1992 35.7288 56.1919 32.0209C56.1864 29.3159 56.1936 28.0955 56.2149 27.9946C56.2869 27.6543 56.5208 27.3458 56.8076 27.2131L56.9632 27.1412H58.109C59.4125 27.1412 59.4678 27.1484 59.6988 27.3474C59.8493 27.4774 59.9338 27.6522 59.976 27.9205C59.9962 28.0499 60.0034 29.3491 59.9981 31.9513L59.99 35.7914L59.9246 35.9716C59.8059 36.2995 59.5991 36.5105 59.2828 36.6267C59.1551 36.6735 59.0393 36.6792 58.0805 36.6842C57.2746 36.6886 56.9871 36.6815 56.8833 36.6534L56.8832 36.6535ZM58.2853 34.948L58.3777 34.8671L58.3862 32.0301C58.391 30.4696 58.3869 29.127 58.3771 29.0464C58.3541 28.8562 58.2757 28.7649 58.1175 28.7441C58.0122 28.7302 57.9889 28.7382 57.9125 28.813L57.8263 28.8976V34.8585L57.8995 34.9439C58.0004 35.0614 58.1541 35.063 58.2853 34.948Z" fill="black"/>
<path d="M-2.2886e-07 36.4541V36.188H0.217441V27.6584H-0.000137329V27.1265L1.60969 27.1347L3.21952 27.1429L3.42792 27.2351C3.74092 27.373 3.92038 27.598 4.00703 27.9605C4.03225 28.0657 4.04213 29.1848 4.04171 31.9039C4.04103 36.0396 4.04583 35.9234 3.86595 36.2198C3.75613 36.401 3.55446 36.5594 3.33167 36.6401C3.15824 36.7029 3.13809 36.7037 1.57816 36.7122L0.000136871 36.7209V36.4541H-2.2886e-07ZM2.3207 35.0071L2.39418 34.9304V28.9084L2.30328 28.8269C2.22527 28.757 2.18853 28.7455 2.04526 28.7455C1.9534 28.7455 1.86127 28.7606 1.84084 28.7789C1.81233 28.8046 1.80342 29.5385 1.80342 31.9124C1.80342 33.6175 1.81246 35.0337 1.82357 35.0598C1.8403 35.0989 1.87731 35.1047 2.04554 35.0954C2.21856 35.0856 2.25749 35.0729 2.3207 35.0071ZM5.42602 36.6926C5.13056 36.6255 4.87131 36.4127 4.75998 36.1462C4.72228 36.0557 4.67772 35.8807 4.661 35.7573C4.64221 35.6183 4.63426 34.1039 4.63988 31.7838C4.64866 28.2214 4.65195 28.0269 4.70665 27.8812C4.83662 27.5353 5.02747 27.3166 5.2944 27.2086C5.4559 27.1431 5.46468 27.1427 6.60755 27.1427C7.7537 27.1427 7.7585 27.1427 7.92234 27.2093C8.13402 27.295 8.30745 27.4717 8.38258 27.6786C8.43852 27.8327 8.44154 28.008 8.4499 31.7686C8.45854 35.6238 8.45758 35.7015 8.39643 35.9187C8.28922 36.2989 8.09399 36.5148 7.74479 36.6399C7.5789 36.6994 7.52571 36.7022 6.54517 36.7079C5.981 36.7111 5.47715 36.7044 5.42602 36.6926ZM6.74711 34.994C6.80607 34.9412 6.84185 34.8737 6.85501 34.7917C6.86598 34.7242 6.87078 33.3748 6.86543 31.793C6.85611 28.9203 6.85597 28.9169 6.79085 28.8382C6.6617 28.6827 6.45975 28.6827 6.33074 28.8382C6.26548 28.9167 6.26534 28.9196 6.25616 31.8346C6.24971 33.854 6.25712 34.7842 6.28015 34.8554C6.34897 35.0677 6.58643 35.1381 6.74711 34.994ZM9.78855 36.6795C9.47651 36.602 9.27236 36.4128 9.13595 36.074L9.06383 35.8951L9.05506 32.0625C9.04861 29.3339 9.05616 28.176 9.08083 28.043C9.12498 27.8061 9.28607 27.5071 9.44127 27.3739C9.50735 27.3172 9.63143 27.242 9.71684 27.2067C9.86656 27.145 9.9081 27.1422 10.8154 27.1339C12.0854 27.1219 12.3379 27.1528 12.5726 27.3479C12.8326 27.5641 12.8707 27.7884 12.8719 29.1147L12.873 30.1669H11.2559V29.5525C11.2559 28.8708 11.2417 28.8094 11.0681 28.7449C10.945 28.6993 10.835 28.7311 10.7462 28.8382C10.6808 28.9167 10.6808 28.9193 10.6719 31.8348C10.6669 33.4395 10.6708 34.7916 10.6804 34.84C10.7245 35.0614 10.9935 35.1455 11.1652 34.9915L11.2559 34.9101V33.54H12.8774L12.8669 34.6899C12.8567 35.8018 12.854 35.8455 12.7858 36.0161C12.6516 36.3517 12.4756 36.5266 12.1579 36.6408C11.9954 36.6991 11.9358 36.7024 10.9608 36.7091C10.194 36.7139 9.89768 36.7066 9.78855 36.6795ZM14.4796 36.6989C14.4682 36.6889 14.4589 34.9325 14.4589 32.7965C14.4589 28.9499 14.4582 28.9122 14.3968 28.857C14.3403 28.8062 14.2931 28.8012 13.8837 28.8012H13.4327V27.1285H17.2262V28.8012L16.7365 28.8025C16.2255 28.8039 16.1833 28.8121 16.1119 28.9322C16.0849 28.9777 16.0757 29.9725 16.0757 32.8555V36.7181H15.2878C14.8547 36.7181 14.4908 36.7096 14.4794 36.6994L14.4796 36.6989ZM18.495 36.6795C18.1833 36.602 17.9627 36.3966 17.8355 36.0653C17.7707 35.8961 17.7702 35.8731 17.7619 32.0222C17.7537 28.2119 17.7545 28.1453 17.8164 27.9256C17.9216 27.5529 18.1104 27.3292 18.4387 27.1891C18.5342 27.1484 18.6873 27.1425 19.6825 27.1425C20.5006 27.1425 20.8531 27.1521 20.9449 27.1775C21.2338 27.2563 21.4168 27.4396 21.5087 27.7419C21.56 27.9112 21.5635 28.1806 21.5635 31.8534C21.5635 35.5893 21.5608 35.792 21.5065 35.9509C21.3813 36.3173 21.1894 36.5217 20.8579 36.6422C20.7021 36.6989 20.6356 36.7027 19.6668 36.709C18.9008 36.714 18.6041 36.7068 18.495 36.6795ZM19.7923 35.0398C19.9702 34.9671 19.9623 35.1086 19.9623 31.8939C19.9623 29.1835 19.9582 28.9288 19.9107 28.8567C19.7881 28.6706 19.522 28.6789 19.4198 28.872C19.3773 28.9524 19.3716 29.3072 19.3716 31.9083C19.3716 34.0228 19.3813 34.8707 19.4063 34.9146C19.4885 35.058 19.6328 35.1047 19.7923 35.0398ZM21.9526 36.4666V36.2157H22.1702V27.6584H21.9526V27.1261L23.5616 27.1346C25.1649 27.1431 25.1713 27.1432 25.3261 27.207C25.6538 27.3419 25.871 27.6122 25.9503 27.9843C26.0142 28.2839 26.0139 30.7647 25.9499 31.0355C25.8505 31.4556 25.6212 31.6607 25.1912 31.7137L25.0309 31.7336V32.1744H25.1321C25.377 32.1757 25.7108 32.3921 25.8512 32.6419C25.9897 32.8882 25.9949 32.9713 25.9949 34.8931V36.7176H24.3789L24.3707 32.7989L24.3624 28.8803L24.2608 28.799C24.1259 28.6909 23.9986 28.6909 23.8781 28.799L23.7873 28.8804V36.7175H21.9528L21.9526 36.4666ZM30.4331 44.5745L26.6756 42.6965V41.9052L26.7946 41.8144L26.9136 41.7239V22.8979L26.7936 22.8239L26.6735 22.7495L26.6831 22.3229L26.6925 21.8962L30.4153 19.8222C33.4601 18.1258 34.1661 17.7454 34.2921 17.7328C34.4268 17.7193 34.4655 17.7314 34.5982 17.8318C34.7848 17.9724 34.8893 18.1753 34.9366 18.4896C34.9614 18.6541 34.9695 22.893 34.9632 32.2417C34.9544 45.17 34.9512 45.7635 34.8924 45.9362C34.7855 46.251 34.542 46.4517 34.2659 46.4524C34.2247 46.4524 32.4996 45.6073 30.4331 44.5745ZM30.8603 39.7796C30.9236 39.737 31.0097 39.6414 31.0518 39.5672L31.1283 39.432L31.1281 32.0885C31.1277 24.9201 31.1263 24.7418 31.0625 24.6015C30.9936 24.4493 30.8259 24.3204 30.697 24.3203C30.6557 24.3203 30.5372 24.3518 30.4336 24.3906L30.2451 24.461V39.7191L30.4408 39.7737C30.5483 39.8036 30.6515 39.8335 30.6703 39.8398C30.7323 39.8616 30.7443 39.8577 30.8603 39.7796ZM36.4874 46.2781C36.3782 46.1686 36.3179 46.067 36.2585 45.8917L36.1781 45.6536L36.1694 31.6892C36.1646 24.0085 36.1672 17.7247 36.1753 17.7247C36.1834 17.7247 36.8298 18.0524 37.6121 18.4532L39.0341 19.1817L39.0511 29.5279L39.0681 39.8741L39.1377 39.9931C39.1912 40.0845 39.2332 40.1145 39.3187 40.1229C39.5363 40.144 39.6915 39.9501 39.7619 39.5694C39.788 39.4274 39.799 36.4778 39.799 29.4816C39.799 24.0438 39.8086 19.5946 39.8204 19.5946C39.8321 19.5946 40.2909 19.8249 40.84 20.1065L41.8383 20.6185L41.8471 29.8043L41.8559 38.9902L41.927 39.1262C42.0174 39.2989 42.1279 39.3209 42.2577 39.191C42.4634 38.9854 42.451 39.5923 42.451 29.8415V20.9263L43.4701 21.4417L44.4893 21.9572L44.4897 22.3653L44.4901 22.7731L44.3544 22.8506L44.2187 22.9282V41.6576L44.3558 41.7275L44.4929 41.7974L44.4833 42.2063L44.4737 42.6155L42.1109 43.8383C40.8112 44.5106 39.1461 45.362 38.4103 45.7299C37.1596 46.3552 37.0585 46.3996 36.8546 46.4128L36.6363 46.4266L36.4874 46.2781ZM34.0955 15.7472L34.1042 14.3545L34.8521 13.9514L35.6001 13.5483L35.974 13.7449C36.1797 13.8533 36.5279 14.0368 36.7475 14.153L37.147 14.3644V17.1391L36.4008 16.8028C35.9905 16.6179 35.6378 16.4665 35.6171 16.4665C35.5966 16.4665 35.2437 16.618 34.8331 16.8031L34.0865 17.1394L34.0955 15.7472Z" fill="#010101"/>
</g>
<defs>
<clipPath id="clip0_16_6014">
<rect width="60" height="60" fill="white"/>
</clipPath>
</defs>
</svg>
