<svg width="60" height="60" viewBox="0 0 60 60" fill="none" xmlns="http://www.w3.org/2000/svg">
<g clip-path="url(#clip0_14_5285)">
<path d="M28.175 30.54L37.5 15L57.5 52.5H5L22.5 20L28.175 30.54ZM30.975 35.595L37.4675 47.5H49.1675L37.2425 25.145L30.975 35.595ZM13.37 47.5H31.63L22.5 30.5475L13.37 47.5ZM13.75 20C12.0924 20 10.5027 19.3415 9.33058 18.1694C8.15848 16.9973 7.5 15.4076 7.5 13.75C7.5 12.0924 8.15848 10.5027 9.33058 9.33058C10.5027 8.15848 12.0924 7.5 13.75 7.5C15.4076 7.5 16.9973 8.15848 18.1694 9.33058C19.3415 10.5027 20 12.0924 20 13.75C20 15.4076 19.3415 16.9973 18.1694 18.1694C16.9973 19.3415 15.4076 20 13.75 20Z" fill="black"/>
</g>
<defs>
<clipPath id="clip0_14_5285">
<rect width="60" height="60" fill="white"/>
</clipPath>
</defs>
</svg>
