<svg width="60" height="61" viewBox="0 0 60 61" fill="none" xmlns="http://www.w3.org/2000/svg">
<g clip-path="url(#clip0_19_18839)">
<path d="M2.67505 44.3682L26.9316 58.4108L57.3263 40.925L33.0182 26.8389L2.67505 44.3682Z" fill="#898890"/>
<path d="M26.9644 49.0429L47.1067 37.4137V23.9126L26.9644 35.5305V49.0429Z" fill="#ACABB1"/>
<path d="M2.67505 44.3682V46.4905L26.9316 60.5301V58.4107L2.67505 44.3682Z" fill="#E0E0E2"/>
<path d="M26.9314 60.5304L57.3261 43.2189V40.9253L26.9314 58.4111V60.5304Z" fill="#D8D8DA"/>
<path d="M35.4513 50.5906V49.0328C35.4513 49.0312 35.4513 49.0296 35.4513 49.028V49.0269H35.4512C35.4501 48.6673 35.214 48.3075 34.7424 48.0338C33.7961 47.4846 32.2457 47.4833 31.297 48.0311C30.8225 48.3049 30.5851 48.6661 30.5847 49.0269V50.5899C30.5841 50.9507 30.8209 51.3116 31.2946 51.5851C32.2421 52.1323 33.7926 52.1333 34.7401 51.5878C35.2154 51.3143 35.4522 50.9526 35.4513 50.5906Z" fill="#D8D8DA"/>
<path d="M31.2947 50.0217C30.3472 49.4745 30.3481 48.5789 31.297 48.0311C32.2458 47.4834 33.7962 47.4846 34.7424 48.0338C35.6887 48.583 35.6876 49.4789 34.7401 50.0244C33.7926 50.5698 32.2421 50.5686 31.2947 50.0217Z" fill="#E0E0E2"/>
<path d="M34.4587 49.0267V35.4053H31.5774V49.0267C31.5772 49.2402 31.7172 49.4538 31.9977 49.6157C32.5587 49.9396 33.4767 49.9403 34.0376 49.6173C34.3191 49.4551 34.4593 49.2409 34.4587 49.0267Z" fill="#D8D8DA"/>
<path d="M41.5377 47.0367V45.4791C41.5377 45.4774 41.5377 45.4759 41.5377 45.4743V45.4732C41.5366 45.1136 41.3004 44.7538 40.8288 44.4801C39.8826 43.9309 38.3322 43.9296 37.3834 44.4774C36.9089 44.7512 36.6715 45.1124 36.6711 45.4732V47.0362C36.6706 47.397 36.9073 47.7579 37.3811 48.0314C38.3285 48.5785 39.879 48.5796 40.8265 48.0341C41.3018 47.7606 41.5388 47.3987 41.5377 47.0367Z" fill="#D8D8DA"/>
<path d="M37.3811 46.468C36.4336 45.9208 36.4346 45.0251 37.3834 44.4774C38.3323 43.9297 39.8826 43.9308 40.8289 44.4801C41.7752 45.0294 41.774 45.9251 40.8265 46.4707C39.8791 47.0162 38.3286 47.015 37.3811 46.468Z" fill="#E0E0E2"/>
<path d="M40.5452 45.4735L40.5454 31.8521H37.6641V45.4735C37.6638 45.687 37.8039 45.9006 38.0844 46.0624C38.6454 46.3863 39.5633 46.387 40.1243 46.0641C40.4057 45.9019 40.5458 45.6878 40.5452 45.4735Z" fill="#D8D8DA"/>
<path d="M47.6244 43.4836V41.9259C47.6244 41.9242 47.6244 41.9227 47.6244 41.9211V41.92H47.6243C47.6232 41.5604 47.3871 41.2006 46.9155 40.9268C45.9692 40.3777 44.4188 40.3764 43.4701 40.9241C42.9956 41.198 42.7582 41.5592 42.7578 41.92V43.4829C42.7572 43.8438 42.9939 44.2047 43.4677 44.4782C44.4152 45.0254 45.9657 45.0264 46.9132 44.4809C47.3885 44.2073 47.6254 43.8456 47.6244 43.4836Z" fill="#D8D8DA"/>
<path d="M43.4678 42.9147C42.5203 42.3676 42.5212 41.4719 43.4701 40.9242C44.419 40.3765 45.9692 40.3776 46.9155 40.9269C47.8618 41.476 47.8607 42.3719 46.9132 42.9174C45.9657 43.4628 44.4152 43.4616 43.4678 42.9147Z" fill="#E0E0E2"/>
<path d="M46.6317 41.9197L46.6318 28.2983H43.7505V41.9197C43.7503 42.1333 43.8903 42.3469 44.1708 42.5087C44.7318 42.8326 45.6497 42.8333 46.2107 42.5104C46.4921 42.3483 46.6322 42.1341 46.6317 41.9197Z" fill="#D8D8DA"/>
<path d="M53.7108 39.9299V38.3721C53.7108 38.3705 53.7108 38.369 53.7108 38.3673V38.3663H53.7107C53.7096 38.0066 53.4735 37.6469 53.0019 37.3731C52.0556 36.824 50.5053 36.8227 49.5565 37.3704C49.082 37.6443 48.8446 38.0055 48.8442 38.3663V39.9292C48.8437 40.29 49.0804 40.651 49.5542 40.9245C50.5016 41.4714 52.0521 41.4727 52.9996 40.9272C53.4749 40.6537 53.7119 40.2919 53.7108 39.9299Z" fill="#D8D8DA"/>
<path d="M49.5542 39.361C48.6067 38.8139 48.6077 37.9182 49.5565 37.3705C50.5054 36.8227 52.0557 36.8239 53.002 37.3732C53.9483 37.9223 53.9471 38.8182 52.9996 39.3637C52.0522 39.9093 50.5017 39.9082 49.5542 39.361Z" fill="#E0E0E2"/>
<path d="M52.718 38.3665V24.7451H49.8367V38.3665C49.8364 38.58 49.9765 38.7937 50.257 38.9555C50.818 39.2794 51.7359 39.2801 52.2969 38.9571C52.5784 38.7951 52.7185 38.5809 52.718 38.3665Z" fill="#D8D8DA"/>
<path d="M11.2308 43.5784V42.0206C11.2308 42.0189 11.2308 42.0174 11.2308 42.0158V42.0147C11.2298 41.6551 10.9935 41.2953 10.522 41.0216C9.57566 40.4724 8.02527 40.4711 7.07652 41.0189C6.60203 41.2927 6.36461 41.6539 6.36426 42.0147V43.5777C6.36367 43.9385 6.60039 44.2994 7.07418 44.5729C8.02164 45.12 9.57215 45.1211 10.5196 44.5756C10.9949 44.302 11.2318 43.9401 11.2308 43.5784Z" fill="#D8D8DA"/>
<path d="M7.07421 43.0095C6.12675 42.4623 6.12769 41.5666 7.07655 41.0189C8.02542 40.4712 9.57569 40.4723 10.522 41.0216C11.4683 41.5707 11.4671 42.4666 10.5196 43.0122C9.57218 43.5577 8.02167 43.5566 7.07421 43.0095Z" fill="#E0E0E2"/>
<path d="M10.2381 42.0145L10.2382 28.3931H7.35693V42.0145C7.3567 42.228 7.49674 42.4416 7.77729 42.6035C8.33826 42.9274 9.25619 42.9281 9.81717 42.6051C10.0985 42.4429 10.2388 42.2287 10.2381 42.0145Z" fill="#D8D8DA"/>
<path d="M17.7704 40.5934V39.0357C17.7704 39.0341 17.7704 39.0326 17.7704 39.0309V39.0299H17.7703C17.7692 38.6702 17.5331 38.3104 17.0615 38.0367C16.1152 37.4876 14.5648 37.4863 13.6161 38.034C13.1416 38.3079 12.9042 38.669 12.9038 39.0299V40.5928C12.9032 40.9536 13.1399 41.3146 13.6137 41.5881C14.5612 42.1351 16.1117 42.1363 17.0592 41.5908C17.5345 41.317 17.7713 40.9553 17.7704 40.5934Z" fill="#D8D8DA"/>
<path d="M13.614 40.0246C12.6665 39.4774 12.6675 38.5818 13.6163 38.0341C14.5652 37.4863 16.1155 37.4875 17.0618 38.0367C18.0081 38.5859 18.0069 39.4818 17.0594 40.0273C16.112 40.5728 14.5616 40.5717 13.614 40.0246Z" fill="#E0E0E2"/>
<path d="M16.7779 39.0296L16.778 25.4082H13.8967V39.0296C13.8965 39.2431 14.0365 39.4568 14.3171 39.6186C14.8781 39.9425 15.796 39.9432 16.357 39.6202C16.6383 39.4583 16.7785 39.2439 16.7779 39.0296Z" fill="#D8D8DA"/>
<path d="M14.7109 42.0939V28.4561L26.9643 35.5305V49.043L14.7109 42.0939Z" fill="#C6C5CB"/>
<path d="M17.2755 47.1002V45.5426C17.2755 45.5409 17.2755 45.5394 17.2755 45.5378V45.5367C17.2744 45.1771 17.0382 44.8173 16.5666 44.5435C15.6203 43.9944 14.07 43.9931 13.1212 44.5408C12.6467 44.8147 12.4093 45.1759 12.4089 45.5367V47.0996C12.4084 47.4605 12.6451 47.8214 13.1189 48.0949C14.0663 48.6421 15.6168 48.6431 16.5643 48.0976C17.0397 47.824 17.2766 47.4621 17.2755 47.1002Z" fill="#D8D8DA"/>
<path d="M13.1189 46.5309C12.1714 45.9838 12.1724 45.0881 13.1212 44.5404C14.07 43.9927 15.6204 43.9938 16.5667 44.5431C17.513 45.0924 17.5118 45.9881 16.5643 46.5336C15.6169 47.0791 14.0663 47.078 13.1189 46.5309Z" fill="#E0E0E2"/>
<path d="M16.2828 45.5364L16.2829 31.915H13.4016V45.5364C13.4014 45.75 13.5414 45.9636 13.822 46.1254C14.3829 46.4493 15.3009 46.45 15.8618 46.1271C16.1432 45.965 16.2835 45.7508 16.2828 45.5364Z" fill="#D8D8DA"/>
<path d="M29.3646 54.1442V52.5865C29.3646 52.5849 29.3646 52.5833 29.3646 52.5817V52.5806C29.3636 52.221 29.1273 51.8612 28.6557 51.5875C27.7095 51.0383 26.1591 51.0371 25.2103 51.5848C24.7358 51.8587 24.4984 52.2198 24.498 52.5806V54.1436C24.4975 54.5044 24.7342 54.8653 25.208 55.1388C26.1554 55.686 27.7059 55.6871 28.6534 55.1415C29.1287 54.8678 29.3655 54.506 29.3646 54.1442Z" fill="#D8D8DA"/>
<path d="M25.2082 53.5749C24.2608 53.0277 24.2617 52.1321 25.2106 51.5843C26.1593 51.0366 27.7097 51.0378 28.656 51.587C29.6023 52.1363 29.6011 53.0321 28.6537 53.5776C27.7062 54.1231 26.1557 54.122 25.2082 53.5749Z" fill="#E0E0E2"/>
<path d="M28.3721 52.5804L28.3723 38.959H25.491V52.5804C25.4907 52.7939 25.6308 53.0075 25.9113 53.1694C26.4723 53.4933 27.3902 53.494 27.9512 53.171C28.2326 53.0088 28.3727 52.7947 28.3721 52.5804Z" fill="#D8D8DA"/>
<path d="M18.8677 44.451V35.019L22.9159 37.3563L22.8798 46.7263L18.8677 44.451Z" fill="#77767E"/>
<path d="M23.3202 50.6218V49.064C23.3202 49.0624 23.3202 49.0609 23.3202 49.0592V49.0582H23.3201C23.319 48.6985 23.0829 48.3388 22.6113 48.065C21.665 47.5159 20.1146 47.5146 19.1659 48.0623C18.6914 48.3362 18.454 48.6974 18.4536 49.0582V50.6211C18.453 50.9819 18.6897 51.3429 19.1635 51.6164C20.111 52.1634 21.6615 52.1646 22.609 51.6191C23.0844 51.3455 23.3211 50.9837 23.3202 50.6218Z" fill="#D8D8DA"/>
<path d="M19.1638 50.0529C18.2163 49.5058 18.2173 48.6101 19.1662 48.0624C20.115 47.5146 21.6653 47.5158 22.6116 48.0651C23.5579 48.6142 23.5567 49.5101 22.6092 50.0556C21.6617 50.6012 20.1112 50.6001 19.1638 50.0529Z" fill="#E0E0E2"/>
<path d="M22.3275 49.0584L22.3276 35.437H19.4463V49.0584C19.4461 49.2719 19.5861 49.4856 19.8666 49.6474C20.4276 49.9713 21.3455 49.972 21.9065 49.649C22.188 49.4871 22.3282 49.2728 22.3275 49.0584Z" fill="#D8D8DA"/>
<path d="M4.69897 24.8877V27.2249L28.9885 41.2486V38.9113L4.69897 24.8877Z" fill="#E0E0E2"/>
<path d="M31.0127 37.7427V40.0799L28.9885 41.2486V38.9113L31.0127 37.7427Z" fill="#C6C5CB"/>
<path d="M2.67505 23.7188L31.0127 40.0796L16.8438 20.2129L2.67505 23.7188Z" fill="#E0E0E2"/>
<path d="M5.35571 24.0982L16.419 21.3608L27.4824 36.8731L5.35571 24.0982Z" fill="#C6C5CB"/>
<path d="M5.35571 24.0982L6.77274 23.7476L26.0654 34.8863L27.4824 36.873L5.35571 24.0982Z" fill="#E0E0E2"/>
<path d="M16.8438 20.213L41.1332 6.18945L55.3021 26.0561L31.0127 40.0797L16.8438 20.213Z" fill="#57565C"/>
<path d="M2.67505 23.7189L26.9645 9.69535L41.1333 6.18945L16.8438 20.213L2.67505 23.7189Z" fill="#77767E"/>
<path d="M40.4527 11.6399V11.6336H40.4525C40.4656 10.0695 39.4475 8.50632 37.3935 7.32038C33.2787 4.94464 26.4998 4.94464 22.3293 7.32038C20.2426 8.50913 19.1897 10.077 19.1747 11.645V16.4979C19.159 18.064 20.1788 19.6302 22.2378 20.819C26.3577 23.1976 33.1367 23.1976 37.302 20.819C39.3836 19.6301 40.4351 18.0639 40.4527 16.4979H40.4528V16.4965C40.4527 16.4957 40.4527 11.6407 40.4527 11.6399Z" fill="#D8D8DA"/>
<path d="M26.5873 20.671C26.2627 20.6133 25.9423 20.5467 25.627 20.471V18.0604C25.9423 18.1362 26.2627 18.2028 26.5873 18.2604V20.671ZM24.1164 17.6106C23.7865 17.4922 23.4658 17.3626 23.1561 17.2212V19.6318C23.4658 19.7731 23.7865 19.9026 24.1164 20.0212V17.6106ZM29.0583 18.5211C28.7369 18.5092 28.4166 18.4892 28.098 18.4608V20.8714C28.4166 20.8997 28.7369 20.9198 29.0583 20.9316V18.5211ZM21.6454 16.3771C21.2861 16.1319 20.9658 15.8743 20.6851 15.6062V18.0167C20.9658 18.2847 21.2861 18.5425 21.6454 18.7877V16.3771ZM38.9422 15.5464C38.6615 15.8164 38.3406 16.0761 37.9818 16.3236V18.7341C38.3406 18.4866 38.6615 18.2269 38.9422 17.9569V15.5464ZM36.4713 17.1786C36.1618 17.322 35.8406 17.453 35.5109 17.5736V19.9842C35.8405 19.8636 36.1618 19.7326 36.4713 19.5891V17.1786ZM34.0003 18.0325C33.6849 18.1104 33.3645 18.1794 33.0399 18.2391V20.6497C33.3645 20.5899 33.6849 20.5211 34.0003 20.4431V18.0325ZM31.5292 18.4492C31.2106 18.4797 30.8903 18.5021 30.5689 18.5162V20.9267C30.8903 20.9128 31.2106 20.8904 31.5292 20.8598V18.4492Z" fill="#77767E"/>
<path d="M22.2376 15.9648C18.1176 13.5862 18.1588 9.69612 22.3292 7.32038C26.4997 4.94464 33.2785 4.94464 37.3935 7.32038C41.5084 9.69612 41.4671 13.5862 37.3018 15.9648C33.1365 18.3435 26.3578 18.3436 22.2376 15.9648Z" fill="#E0E0E2"/>
<path d="M39.1186 11.4595C39.1135 12.8378 38.193 14.2179 36.3617 15.2629C32.7183 17.3441 26.7877 17.3441 23.1832 15.2629C21.4117 14.2401 20.52 12.8992 20.5047 11.5514C20.5029 11.5275 20.5029 11.5039 20.5029 11.4816C20.5029 6.34223 24.6706 2.1748 29.8115 2.1748C34.927 2.1748 39.0793 6.3032 39.1168 11.4086C39.1186 11.4254 39.1186 11.4423 39.1186 11.4595Z" fill="#57565C"/>
<path d="M36.5519 11.0465C36.5477 12.1639 35.8014 13.2827 34.3171 14.1296C31.3637 15.8166 26.5562 15.8166 23.6345 14.1296C22.1984 13.3005 21.4756 12.2136 21.4632 11.1209C21.4619 11.1016 21.4619 11.0824 21.4619 11.0643C21.4619 6.8983 24.8402 3.52002 29.0076 3.52002C33.1543 3.52002 36.5203 6.86666 36.5506 11.0051C36.5519 11.019 36.5519 11.0328 36.5519 11.0465Z" fill="#77767E"/>
<path d="M30.2623 0.787646V0.787412C30.2629 0.721436 30.2199 0.655576 30.1333 0.60542C29.9597 0.505225 29.6738 0.505225 29.4979 0.60542C29.4099 0.655459 29.3655 0.721787 29.3648 0.787881V4.80612C29.3642 4.8721 29.4072 4.93819 29.4939 4.98835C29.6677 5.08866 29.9535 5.08866 30.1293 4.98835C30.2171 4.93831 30.2614 4.8721 30.2622 4.80612L30.2623 0.787646Z" fill="#D8D8DA"/>
<path d="M29.4942 0.970107C29.3204 0.869795 29.3222 0.705732 29.4981 0.60542C29.674 0.505225 29.9599 0.505225 30.1335 0.60542C30.307 0.705615 30.3053 0.869678 30.1296 0.970107C29.9539 1.07054 29.668 1.07054 29.4942 0.970107Z" fill="#E0E0E2"/>
</g>
<defs>
<clipPath id="clip0_19_18839">
<rect width="60" height="60" fill="white" transform="translate(0.000488281 0.530273)"/>
</clipPath>
</defs>
</svg>
