<svg width="512" height="512" viewBox="0 0 512 512" fill="none" xmlns="http://www.w3.org/2000/svg">
<path d="M23.637 274.637H170.507V226.315H47.685L23.637 274.637Z" fill="#5B5D6E"/>
<path d="M255.897 100.745C256.683 100.745 257.451 101.022 258.067 101.528L344.067 172.143V144.272L255.896 71.8662L167.933 144.135V171.997L253.707 101.536C254.506 100.882 255.339 100.745 255.897 100.745Z" fill="#5B5D6E"/>
<path d="M341.493 274.637H488.363L464.315 226.315H341.493V274.637Z" fill="#5B5D6E"/>
<path d="M252.855 382.713H213.682V467.154H252.855V382.713Z" fill="#707487"/>
<path d="M298.89 382.713H259.717V467.154H298.89V382.713Z" fill="#707487"/>
<path d="M256.286 265.888C279.57 265.888 298.512 246.95 298.512 223.673C298.512 200.389 279.57 181.447 256.286 181.447C233.002 181.447 214.06 200.389 214.06 223.673C214.06 246.95 233.002 265.888 256.286 265.888ZM252.855 205.384C252.855 203.492 254.394 201.953 256.286 201.953C258.178 201.953 259.717 203.492 259.717 205.384V220.241H274.414C276.306 220.241 277.845 221.78 277.845 223.672C277.845 225.564 276.306 227.103 274.414 227.103H256.286C254.394 227.103 252.855 225.564 252.855 223.672V205.384Z" fill="#EFF2FA"/>
<path d="M177.369 173.139V467.16H206.82V379.288C206.82 377.396 208.359 375.857 210.251 375.857H302.321C304.213 375.857 305.752 377.396 305.752 379.288V467.16H334.631V173.276L255.896 108.626L177.369 173.139ZM305.375 223.673C305.375 250.735 283.354 272.75 256.286 272.75C229.219 272.75 207.197 250.733 207.197 223.673C207.197 196.606 229.218 174.584 256.286 174.584C283.353 174.584 305.375 196.605 305.375 223.673Z" fill="#FFD782"/>
<path d="M30.686 467.16H170.506V281.499H30.686V467.16ZM133.621 315.045C133.621 313.153 135.16 311.614 137.052 311.614C138.944 311.614 140.483 313.153 140.483 315.045V415.167C140.483 417.059 138.944 418.598 137.052 418.598C135.16 418.598 133.621 417.059 133.621 415.167V315.045ZM97.022 315.045C97.022 313.153 98.561 311.614 100.453 311.614C102.345 311.614 103.884 313.153 103.884 315.045V415.167C103.884 417.059 102.345 418.598 100.453 418.598C98.561 418.598 97.022 417.059 97.022 415.167V315.045ZM60.423 315.045C60.423 313.153 61.962 311.614 63.854 311.614C65.746 311.614 67.285 313.153 67.285 315.045V415.167C67.285 417.059 65.746 418.598 63.854 418.598C61.962 418.598 60.423 417.059 60.423 415.167V315.045Z" fill="#FFC36E"/>
<path d="M341.493 467.16H481.313V281.499H341.493V467.16ZM444.577 315.045C444.577 313.153 446.116 311.614 448.008 311.614C449.9 311.614 451.439 313.153 451.439 315.045V415.167C451.439 417.059 449.9 418.598 448.008 418.598C446.116 418.598 444.577 417.059 444.577 415.167V315.045ZM407.978 315.045C407.978 313.153 409.517 311.614 411.409 311.614C413.301 311.614 414.84 313.153 414.84 315.045V415.167C414.84 417.059 413.301 418.598 411.409 418.598C409.517 418.598 407.978 417.059 407.978 415.167V315.045ZM371.379 315.045C371.379 313.153 372.918 311.614 374.81 311.614C376.702 311.614 378.241 313.153 378.241 315.045V415.167C378.241 417.059 376.702 418.598 374.81 418.598C372.918 418.598 371.379 417.059 371.379 415.167V315.045Z" fill="#FFC36E"/>
<path d="M502.85 461.442C507.905 461.442 512 465.537 512 470.592C512 475.647 507.905 479.742 502.85 479.742H9.15C4.095 479.742 0 475.647 0 470.592C0 465.537 4.095 461.442 9.15 461.442H18.105V287.218C18.105 287.218 18.105 287.218 18.094 287.218C16.733 287.218 15.338 286.909 14.034 286.257C9.505 284.004 7.663 278.514 9.917 273.985L37.365 218.8C38.909 215.7 42.077 213.733 45.554 213.733H164.787V188.388C163.357 188.434 161.928 188.171 160.59 187.53C157.388 186.02 155.352 182.795 155.352 179.261V142.513C155.352 139.768 156.576 137.172 158.692 135.433L246.747 63.1038V41.4088C246.747 36.3538 250.842 32.2588 255.897 32.2588C260.952 32.2588 265.047 36.3538 265.047 41.4088V63.1048L353.308 135.571C355.424 137.309 356.648 139.906 356.648 142.651V179.399C356.648 182.933 354.612 186.158 351.41 187.668C350.163 188.263 348.825 188.549 347.498 188.549C347.407 188.549 347.315 188.538 347.212 188.538V213.734H466.445C469.922 213.734 473.09 215.701 474.634 218.801L502.083 273.986C504.336 278.515 502.495 284.005 497.966 286.258C496.662 286.91 495.267 287.219 493.906 287.219C493.895 287.219 493.895 287.219 493.895 287.219V461.443H502.85V461.442ZM479.129 268.918L460.772 232.033H347.212V268.918H479.129ZM475.595 461.442V287.218H347.212V461.442H475.595ZM338.348 160.047V146.974L255.897 79.2648L173.652 146.836V159.897L250.087 97.1058C251.78 95.7218 253.838 95.0238 255.897 95.0238C257.956 95.0238 260.014 95.7218 261.696 97.1058L338.348 160.047ZM328.912 461.442V278.068V175.979L255.897 116.025L183.087 175.842V278.068V461.441H201.101V379.287C201.101 374.232 205.196 370.137 210.251 370.137H302.321C307.376 370.137 311.471 374.232 311.471 379.287V461.441L328.912 461.442ZM293.171 461.442V388.438H265.436V461.442H293.171ZM247.136 461.442V388.438H219.401V461.442H247.136ZM164.788 461.442V287.218H36.405V461.442H164.788ZM164.788 268.918V232.033H51.227L32.87 268.918H164.788Z" fill="black"/>
<path d="M457.158 315.045V415.167C457.158 420.222 453.063 424.317 448.008 424.317C442.953 424.317 438.858 420.222 438.858 415.167V315.045C438.858 309.99 442.953 305.895 448.008 305.895C453.064 305.895 457.158 309.99 457.158 315.045Z" fill="black"/>
<path d="M420.559 315.045V415.167C420.559 420.222 416.464 424.317 411.409 424.317C406.354 424.317 402.259 420.222 402.259 415.167V315.045C402.259 309.99 406.354 305.895 411.409 305.895C416.465 305.895 420.559 309.99 420.559 315.045Z" fill="black"/>
<path d="M383.96 315.045V415.167C383.96 420.222 379.865 424.317 374.81 424.317C369.755 424.317 365.66 420.222 365.66 415.167V315.045C365.66 309.99 369.755 305.895 374.81 305.895C379.865 305.895 383.96 309.99 383.96 315.045Z" fill="black"/>
<path d="M256.286 168.865C286.503 168.865 311.093 193.444 311.093 223.672C311.093 253.889 286.503 278.468 256.286 278.468C226.069 278.468 201.479 253.889 201.479 223.672C201.479 193.444 226.069 168.865 256.286 168.865ZM292.794 223.673C292.794 203.543 276.416 187.165 256.286 187.165C236.156 187.165 219.778 203.543 219.778 223.673C219.778 243.791 236.156 260.169 256.286 260.169C276.416 260.169 292.794 243.791 292.794 223.673Z" fill="black"/>
<path d="M274.414 214.523C279.469 214.523 283.564 218.618 283.564 223.673C283.564 228.717 279.469 232.823 274.414 232.823H256.286C251.231 232.823 247.136 228.717 247.136 223.673V205.385C247.136 200.33 251.231 196.235 256.286 196.235C261.341 196.235 265.436 200.33 265.436 205.385V214.523H274.414Z" fill="black"/>
<path d="M146.202 315.045V415.167C146.202 420.222 142.107 424.317 137.052 424.317C131.997 424.317 127.902 420.222 127.902 415.167V315.045C127.902 309.99 131.997 305.895 137.052 305.895C142.108 305.895 146.202 309.99 146.202 315.045Z" fill="black"/>
<path d="M109.603 315.045V415.167C109.603 420.222 105.508 424.317 100.453 424.317C95.398 424.317 91.303 420.222 91.303 415.167V315.045C91.303 309.99 95.398 305.895 100.453 305.895C105.509 305.895 109.603 309.99 109.603 315.045Z" fill="black"/>
<path d="M73.004 315.045V415.167C73.004 420.222 68.909 424.317 63.854 424.317C58.799 424.317 54.704 420.222 54.704 415.167V315.045C54.704 309.99 58.799 305.895 63.854 305.895C68.909 305.895 73.004 309.99 73.004 315.045Z" fill="black"/>
</svg>
