<svg width="60" height="60" viewBox="0 0 60 60" fill="none" xmlns="http://www.w3.org/2000/svg">
<path d="M56.1797 17.1562C56.1973 17.4727 56.2031 17.8008 56.2031 18.1172C56.2031 22.4648 54.6328 26.7246 51.668 30.4277C50.5957 31.7637 49.3594 33.0176 47.9707 34.1719C47.9766 34.2539 47.9766 34.3359 47.9648 34.418C47.6016 36.9375 46.2305 39.1875 44.1797 40.6758V48.0586C46.1309 48.6621 47.5078 50.4727 47.5078 52.6055C47.5078 53.6895 46.6231 54.5742 45.5391 54.5742H33.9492C31.6641 54.5742 29.8066 52.7168 29.8066 50.4316V42.4805H29.1973C27.9609 44.7187 25.6055 46.1309 23.0098 46.1309H22.9688V48.1055C24.8555 48.75 26.1855 50.543 26.1855 52.6113C26.1855 53.6953 25.3008 54.5801 24.2168 54.5801H12.5156C10.2305 54.5801 8.37305 52.7227 8.37305 50.4375V42.6914C8.37305 41.6543 8.70117 40.6699 9.28125 39.8613C9.58594 39.4395 9.96094 39.0645 10.3945 38.7539V33.0879C10.3945 31.6934 10.7402 30.3809 11.3379 29.2207C9.24023 29.959 7.72852 31.9512 7.7168 34.2949C8.69531 34.6699 9.39258 35.6191 9.39258 36.7324V38.3145C9.39258 38.8066 9.25195 39.2695 9.01172 39.6621C8.55469 40.418 7.72852 40.916 6.78516 40.916H6.45117C5.01563 40.916 3.84375 39.75 3.84375 38.3086V36.7266C3.84375 35.6133 4.54102 34.6641 5.52539 34.2891C5.54297 30.1113 8.94141 26.7187 13.125 26.7187H13.3184C14.7891 25.4473 16.7109 24.6738 18.8027 24.6738H24.1289C23.3262 22.5586 22.9102 20.3496 22.9102 18.1172C22.9102 17.8008 22.9219 17.4727 22.9336 17.1562C23.3613 9.04102 31.8516 5.34375 39.5566 5.34375C47.2617 5.34375 55.752 9.04102 56.1797 17.1562Z" fill="#663333"/>
<path d="M54.2109 17.2617C54.2285 17.543 54.2344 17.8359 54.2344 18.123C54.2344 22.0195 52.8164 25.8457 50.1328 29.2031C47.5605 32.4023 43.9102 35.1035 39.5566 37.0195C35.2031 35.1035 31.5527 32.4023 28.9863 29.1973C26.3027 25.8398 24.8848 22.0137 24.8848 18.1172C24.8848 17.8301 24.8906 17.543 24.9082 17.2559C25.2656 10.4238 32.7539 7.3125 39.5566 7.3125C46.3594 7.3125 53.8477 10.4297 54.2109 17.2617Z" fill="#C85E4C"/>
<path d="M50.8243 15.3103C50.8887 16.2713 50.5664 17.1853 49.9102 17.8885C49.4942 18.3338 48.9668 18.656 48.3868 18.8318V22.699C48.3868 23.3904 48.17 24.0467 47.7657 24.6092L44.1914 29.5076C43.5879 30.3396 42.6094 30.8377 41.5782 30.8377H37.541C36.5098 30.8377 35.5313 30.3396 34.9278 29.5076L31.3477 24.6092C30.9434 24.0525 30.7266 23.3904 30.7266 22.699V18.8318C30.1524 18.656 29.625 18.3338 29.209 17.8885C28.5528 17.1853 28.2305 16.2713 28.295 15.3103C28.4121 13.617 29.7774 12.2459 31.4766 12.1287C32.4375 12.0642 33.3575 12.3865 34.0547 13.0428C34.5293 13.4881 34.8692 14.0564 35.0332 14.6775H44.086C44.25 14.0564 44.584 13.4881 45.0645 13.0428C45.7676 12.3865 46.6817 12.0642 47.6426 12.1287C49.336 12.2459 50.7071 13.617 50.8243 15.3103Z" fill="#663333"/>
<path d="M48.8555 15.4455C48.8848 15.8556 48.7442 16.2482 48.4688 16.5412C48.1875 16.84 47.8125 17.0041 47.4024 17.0041C46.8574 17.0041 46.418 17.4435 46.418 17.9884V22.6994C46.418 22.9689 46.336 23.2267 46.1778 23.4435L42.6035 28.342C42.3692 28.6642 41.9883 28.8634 41.584 28.8634H40.5469V27.0412C40.9922 26.8947 41.4141 26.6427 41.7657 26.2853C42.1524 25.8986 42.1524 25.2775 41.7657 24.8908C41.3789 24.5041 40.7578 24.5041 40.3711 24.8908C39.9258 25.342 39.1934 25.342 38.7481 24.8908C38.3614 24.5041 37.7403 24.5041 37.3535 24.8908C36.9668 25.2775 36.9668 25.8986 37.3535 26.2853C37.711 26.6369 38.127 26.8888 38.5723 27.0412V28.8634H37.541C37.1426 28.8634 36.7559 28.6701 36.5215 28.342L32.9473 23.4435C32.7891 23.2267 32.7071 22.9689 32.7071 22.6994V17.9884C32.7071 17.4435 32.2676 17.0041 31.7227 17.0041C31.3125 17.0041 30.9375 16.84 30.6563 16.5412C30.3809 16.2423 30.2403 15.8498 30.2696 15.4396C30.3164 14.7189 30.8965 14.1447 31.6172 14.092C31.6524 14.0861 32.2207 14.0451 32.7129 14.4787C33.1289 14.842 33.1758 15.592 33.1758 15.6095C33.1641 15.8791 33.2637 16.1427 33.4453 16.3361C33.6328 16.5295 33.8907 16.6408 34.1602 16.6408H44.9649C45.2344 16.6408 45.4922 16.5295 45.6797 16.3361C45.8672 16.1427 45.9668 15.8791 45.9492 15.6095C45.9492 15.5861 45.9551 14.9299 46.4121 14.4787C46.6992 14.1916 47.1035 14.0627 47.5078 14.092C48.2227 14.1506 48.8028 14.7306 48.8555 15.4455ZM45.3047 52.383H41.4082C41.3145 50.3498 39.9727 48.6506 38.086 48.0646V42.4806H38.6367C39.791 42.4806 40.9219 42.2697 41.9883 41.8654V48.9552C41.9883 49.5236 42.4219 49.9982 42.9844 50.0451C44.2383 50.1623 45.1992 51.1466 45.3047 52.383Z" fill="#F9DCB2"/>
<path d="M45.123 36.2637C44.5371 37.4414 43.6406 38.4492 42.498 39.1758C41.3496 39.9082 40.0137 40.2891 38.6367 40.2891H36.9902C36.3867 40.2891 35.8945 40.7812 35.8945 41.3848V48.9551C35.8945 49.5234 36.3281 49.998 36.8906 50.0449C38.1445 50.1562 39.1055 51.1406 39.2109 52.377H33.9434C32.8711 52.377 31.9922 51.5039 31.9922 50.4316V41.3848C31.9922 40.7812 31.5 40.2891 30.8965 40.2891H21.3223C21.0059 40.2891 20.7012 40.4297 20.4961 40.6699C20.0389 41.1992 19.4731 41.6239 18.8371 41.9151C18.2012 42.2063 17.51 42.3572 16.8105 42.3574H15.6738C15.0703 42.3574 14.5781 42.8496 14.5781 43.4531V48.9727C14.5781 49.5234 14.9941 49.9922 15.5391 50.0625C16.7461 50.209 17.6777 51.1934 17.7832 52.3828H12.5156C11.4434 52.3828 10.5645 51.5098 10.5645 50.4375V42.6914C10.5645 41.7012 11.1152 40.7988 11.9941 40.3477C12.3574 40.1602 12.5859 39.7852 12.5859 39.375V33.0879C12.5859 29.6602 15.375 26.8711 18.7969 26.8711H25.1074C25.752 28.1016 26.5254 29.291 27.4395 30.4277C30.293 33.9844 34.3477 36.9492 39.1699 39.0059C39.293 39.0586 39.4219 39.082 39.5566 39.082C39.6914 39.082 39.8203 39.0586 39.9434 39.0059C41.7891 38.2207 43.5234 37.3008 45.123 36.2637Z" fill="#F9DCB2"/>
<path d="M43.0254 19.1836C43.6289 19.1836 44.1211 19.6758 44.1211 20.2793C44.1211 20.8828 43.6289 21.375 43.0254 21.375C42.4219 21.375 41.9297 20.8828 41.9297 20.2793C41.9297 19.6758 42.416 19.1836 43.0254 19.1836ZM36.0938 19.1836C36.6973 19.1836 37.1895 19.6758 37.1895 20.2793C37.1895 20.8828 36.6973 21.375 36.0938 21.375C35.4902 21.375 34.998 20.8828 34.998 20.2793C34.998 19.6758 35.4902 19.1836 36.0938 19.1836Z" fill="#663333"/>
<path d="M21.7969 42.4805H26.4844C25.5879 43.3945 24.3398 43.9336 23.0098 43.9336H21.8789C21.2754 43.9336 20.7832 44.4258 20.7832 45.0293V48.9668C20.7832 49.5176 21.1934 49.9863 21.7441 50.0566C22.9512 50.2031 23.8828 51.1875 23.9883 52.3828H19.9805C19.8867 50.4141 18.5918 48.7266 16.7695 48.1055V44.5488H16.8105C18.6855 44.543 20.4785 43.7988 21.7969 42.4805Z" fill="#F9DCB2"/>
<path d="M18.8027 29.8359C19.4063 29.8359 19.8984 30.3281 19.8984 30.9316C19.8984 31.5352 19.4063 32.0273 18.8027 32.0273C18.2168 32.0273 17.7422 32.502 17.7422 33.0879C17.7422 33.6914 17.25 34.1836 16.6465 34.1836C16.043 34.1836 15.5508 33.6914 15.5508 33.0879C15.5508 31.2949 17.0098 29.8359 18.8027 29.8359Z" fill="#663333"/>
<path d="M7.20703 36.7324V38.3145C7.20703 38.543 7.01953 38.7305 6.79102 38.7305H6.45703C6.22852 38.7305 6.04102 38.543 6.04102 38.3145V36.7324C6.04102 36.5039 6.22852 36.3164 6.45703 36.3164H6.79102C7.01953 36.3223 7.20703 36.5098 7.20703 36.7324Z" fill="#C85E4C"/>
</svg>
