<svg width="60" height="60" viewBox="0 0 60 60" fill="none" xmlns="http://www.w3.org/2000/svg">
<path d="M17.2967 5.11987C21.2017 9.02487 20.0234 14.1782 16.1184 18.0832C12.2134 21.9882 7.06003 23.1665 3.15503 19.2615C-0.749973 15.3565 -0.893306 6.81154 1.97669 3.94154C4.84669 1.07154 13.3917 1.21487 17.2967 5.11987Z" fill="#CCD6DD"/>
<path d="M14.4916 7.44481C17.095 10.0481 15.9166 13.0915 13.3133 15.6948C10.71 18.2981 7.66662 19.4765 5.06328 16.8731C2.45995 14.2698 2.70662 7.44481 3.88662 6.26647C5.06662 5.08814 11.89 4.84147 14.4916 7.44481Z" fill="#66757F"/>
<path d="M42.7034 5.11987C38.7984 9.02487 39.9767 14.1782 43.8817 18.0832C47.7867 21.9882 52.94 23.1665 56.845 19.2615C60.75 15.3565 60.8934 6.81154 58.0234 3.94154C55.1534 1.07154 46.6084 1.21487 42.7034 5.11987Z" fill="#CCD6DD"/>
<path d="M45.5084 7.44481C42.905 10.0481 44.0834 13.0915 46.6867 15.6948C49.29 18.2981 52.3334 19.4765 54.9367 16.8731C57.54 14.2698 57.2934 7.44481 56.115 6.26647C54.935 5.08814 48.11 4.84147 45.5084 7.44481Z" fill="#66757F"/>
<path d="M56.695 25.0002C56.695 25.0002 58.3617 3.3335 30.0284 3.3335C1.39836 3.3335 3.36169 23.3335 3.36169 23.3335C3.36169 45.0002 21.695 55.0002 30.0284 55.0002C38.3617 55.0002 56.695 46.6668 56.695 25.0002Z" fill="#E1E8ED"/>
<path d="M30 56.6668C33.6819 56.6668 36.6667 53.6821 36.6667 50.0002C36.6667 46.3183 33.6819 43.3335 30 43.3335C26.3181 43.3335 23.3334 46.3183 23.3334 50.0002C23.3334 53.6821 26.3181 56.6668 30 56.6668Z" fill="#DD2E44"/>
<path d="M30 25C21.6667 25 18.3334 41.145 18.3334 46.6667C18.3334 52.1883 21.6667 58.3333 30 58.3333C38.3334 58.3333 41.6667 52.1883 41.6667 46.6667C41.6667 41.145 38.3334 25 30 25Z" fill="#CCD6DD"/>
<path d="M24.2983 40.4966C21.21 42.3966 26.1983 49.9999 30 49.9999C33.8017 49.9999 38.7917 42.3966 35.7017 40.4966C32.6133 38.5949 27.3867 38.5949 24.2983 40.4966Z" fill="#272B2B"/>
<path d="M26.6666 53.3333C26.6666 53.3333 26.825 56.6667 30.1583 56.6667C33.4916 56.6667 33.65 53.3333 33.65 53.3333C33.65 53.3333 30.1583 53.5967 30.1583 50C30.1583 51.6667 26.6666 53.3333 26.6666 53.3333Z" fill="#DD2E44"/>
<path d="M26.6666 54.1667C23.845 54.1667 22.66 52.1684 22.6116 52.0834C22.556 51.9885 22.5198 51.8837 22.5049 51.7748C22.49 51.6659 22.4968 51.5551 22.5249 51.4489C22.553 51.3426 22.6018 51.243 22.6686 51.1557C22.7353 51.0684 22.8187 50.9952 22.9138 50.9402C23.009 50.8853 23.1141 50.8497 23.2231 50.8355C23.3321 50.8214 23.4428 50.8289 23.5489 50.8577C23.6549 50.8865 23.7542 50.936 23.8411 51.0033C23.928 51.0706 24.0006 51.1545 24.055 51.25C24.0816 51.2934 24.8366 52.5 26.6666 52.5C28.8533 52.5 29.145 50.185 29.17 49.9217C29.1971 49.7047 29.3061 49.5063 29.4746 49.3669C29.6431 49.2275 29.8584 49.1577 30.0766 49.1717C30.2958 49.192 30.4981 49.2982 30.6392 49.4672C30.7804 49.6361 30.8489 49.854 30.83 50.0734C30.7033 51.49 29.6716 54.1667 26.6666 54.1667Z" fill="#292F33"/>
<path d="M33.3333 54.1669C30.3283 54.1669 29.2966 51.4902 29.17 50.0735C29.1506 49.8534 29.2194 49.6346 29.3613 49.4652C29.5032 49.2958 29.7065 49.1897 29.9266 49.1702C30.395 49.1519 30.7916 49.4685 30.83 49.9269C30.855 50.1852 31.1466 52.5002 33.3333 52.5002C35.1633 52.5002 35.9183 51.2935 35.9483 51.2419C36.0628 51.0542 36.2463 50.9189 36.4594 50.8649C36.6726 50.811 36.8984 50.8428 37.0883 50.9535C37.4816 51.1869 37.6166 51.6869 37.3883 52.0835C37.3383 52.1685 36.1533 54.1669 33.3333 54.1669Z" fill="#292F33"/>
<path d="M42.5 31.6667C41.125 31.6667 40 30.5417 40 29.1667V27.5C40 26.125 41.125 25 42.5 25C43.875 25 45 26.125 45 27.5V29.1667C45 30.5417 43.875 31.6667 42.5 31.6667ZM17.5 31.6667C16.125 31.6667 15 30.5417 15 29.1667V27.5C15 26.125 16.125 25 17.5 25C18.875 25 20 26.125 20 27.5V29.1667C20 30.5417 18.875 31.6667 17.5 31.6667Z" fill="#272B2B"/>
</svg>
