<svg width="60" height="60" viewBox="0 0 60 60" fill="none" xmlns="http://www.w3.org/2000/svg">
<g clip-path="url(#clip0_16_5771)">
<path d="M30 0C27.6266 0 25.8228 1.89873 25.8228 4.17722C25.8228 6.55063 27.7215 8.35443 30 8.35443C32.2785 8.35443 34.1772 6.4557 34.1772 4.17722C34.1772 1.89873 32.3734 0 30 0ZM30 5.6962C29.2405 5.6962 28.5759 5.03165 28.5759 4.27215C28.5759 3.51266 29.2405 2.8481 30 2.8481C30.7595 2.8481 31.424 3.51266 31.424 4.27215C31.424 5.03165 30.7595 5.6962 30 5.6962Z" fill="#2FADF4"/>
<path d="M55.538 37.5951H50.5063C50.5063 26.2027 41.2975 16.9938 29.9051 16.9938C18.5127 16.9938 9.39873 26.2027 9.39873 37.5951H4.46202C4.46202 23.3546 15.9494 12.0571 30 12.0571C44.0506 12.0571 55.538 23.3546 55.538 37.5951Z" fill="#0D7DC9"/>
<path d="M30 13.8609C43.481 13.8609 54.5886 24.304 55.443 37.5951H55.538C55.538 23.3546 44.0506 12.0571 30 12.0571C15.9494 12.0571 4.46202 23.3546 4.46202 37.5951H4.55696C5.41139 24.304 16.519 13.8609 30 13.8609Z" fill="#2FADF4"/>
<path d="M30 20.2216C30.4195 20.2216 30.7595 19.8816 30.7595 19.4621C30.7595 19.0427 30.4195 18.7026 30 18.7026C29.5805 18.7026 29.2405 19.0427 29.2405 19.4621C29.2405 19.8816 29.5805 20.2216 30 20.2216Z" fill="#AAAAAA"/>
<path d="M30 23.6391C30.4195 23.6391 30.7595 23.2991 30.7595 22.8796C30.7595 22.4602 30.4195 22.1201 30 22.1201C29.5805 22.1201 29.2405 22.4602 29.2405 22.8796C29.2405 23.2991 29.5805 23.6391 30 23.6391Z" fill="#AAAAAA"/>
<path d="M30 27.0571C30.4195 27.0571 30.7595 26.717 30.7595 26.2976C30.7595 25.8781 30.4195 25.5381 30 25.5381C29.5805 25.5381 29.2405 25.8781 29.2405 26.2976C29.2405 26.717 29.5805 27.0571 30 27.0571Z" fill="#AAAAAA"/>
<path d="M30 30.4746C30.4195 30.4746 30.7595 30.1345 30.7595 29.7151C30.7595 29.2956 30.4195 28.9556 30 28.9556C29.5805 28.9556 29.2405 29.2956 29.2405 29.7151C29.2405 30.1345 29.5805 30.4746 30 30.4746Z" fill="#AAAAAA"/>
<path d="M30 33.8925C30.4195 33.8925 30.7595 33.5525 30.7595 33.133C30.7595 32.7136 30.4195 32.3735 30 32.3735C29.5805 32.3735 29.2405 32.7136 29.2405 33.133C29.2405 33.5525 29.5805 33.8925 30 33.8925Z" fill="#AAAAAA"/>
<path d="M30 37.31C30.4195 37.31 30.7595 36.97 30.7595 36.5505C30.7595 36.1311 30.4195 35.791 30 35.791C29.5805 35.791 29.2405 36.1311 29.2405 36.5505C29.2405 36.97 29.5805 37.31 30 37.31Z" fill="#AAAAAA"/>
<path d="M30 38.6392L32.5633 48.3227L41.2025 46.8037L33.7975 54.0189L36.9304 59.9999L30 56.2974L23.0696 59.9999L26.2025 54.0189L18.7975 46.8037L27.4367 48.3227L30 38.6392Z" fill="#930941"/>
<path d="M21.6456 21.3609C21.6456 21.6457 21.4557 21.8356 21.1709 21.8356C20.8861 21.8356 20.6962 21.6457 20.6962 21.3609C20.6962 21.0761 20.8861 20.8862 21.1709 20.8862C21.4557 20.8862 21.6456 21.171 21.6456 21.3609Z" fill="#AAAAAA"/>
<path d="M21.6456 23.7344C21.6456 24.0193 21.4557 24.2091 21.1709 24.2091C20.8861 24.2091 20.6962 24.0193 20.6962 23.7344C20.6962 23.4496 20.8861 23.2598 21.1709 23.2598C21.4557 23.2598 21.6456 23.4496 21.6456 23.7344Z" fill="#AAAAAA"/>
<path d="M21.6456 26.0128C21.6456 26.2976 21.4557 26.4875 21.1709 26.4875C20.8861 26.4875 20.6962 26.2976 20.6962 26.0128C20.6962 25.728 20.8861 25.5381 21.1709 25.5381C21.4557 25.5381 21.6456 25.728 21.6456 26.0128Z" fill="#AAAAAA"/>
<path d="M21.6456 28.2911C21.6456 28.5759 21.4557 28.7658 21.1709 28.7658C20.8861 28.7658 20.6962 28.5759 20.6962 28.2911C20.6962 28.0063 20.8861 27.8164 21.1709 27.8164C21.4557 27.8164 21.6456 28.0063 21.6456 28.2911Z" fill="#AAAAAA"/>
<path d="M21.6456 30.6647C21.6456 30.9495 21.4557 31.1394 21.1709 31.1394C20.8861 31.1394 20.6962 30.9495 20.6962 30.6647C20.6962 30.3799 20.8861 30.19 21.1709 30.19C21.4557 30.0951 21.6456 30.3799 21.6456 30.6647Z" fill="#AAAAAA"/>
<path d="M21.6456 32.9434C21.6456 33.2282 21.4557 33.4181 21.1709 33.4181C20.8861 33.4181 20.6962 33.2282 20.6962 32.9434C20.6962 32.6586 20.8861 32.4688 21.1709 32.4688C21.4557 32.4688 21.6456 32.6586 21.6456 32.9434Z" fill="#AAAAAA"/>
<path d="M17.6582 36.6458L20.981 34.7471L24.3038 36.6458V40.5382L20.981 42.5319L17.6582 40.5382V36.6458Z" fill="#59AA04"/>
<path d="M20.981 34.7471L24.3038 36.6458V40.5382L20.981 42.5319" fill="#2E8400"/>
<path d="M20.981 38.4496L24.3038 36.6458L20.981 34.7471L17.6582 36.6458L20.981 38.4496Z" fill="#6ACE09"/>
<path d="M38.8291 21.8356C39.0913 21.8356 39.3038 21.6231 39.3038 21.3609C39.3038 21.0988 39.0913 20.8862 38.8291 20.8862C38.567 20.8862 38.3544 21.0988 38.3544 21.3609C38.3544 21.6231 38.567 21.8356 38.8291 21.8356Z" fill="#AAAAAA"/>
<path d="M38.8291 24.2091C39.0913 24.2091 39.3038 23.9966 39.3038 23.7344C39.3038 23.4723 39.0913 23.2598 38.8291 23.2598C38.567 23.2598 38.3544 23.4723 38.3544 23.7344C38.3544 23.9966 38.567 24.2091 38.8291 24.2091Z" fill="#AAAAAA"/>
<path d="M38.8291 26.4875C39.0913 26.4875 39.3038 26.2749 39.3038 26.0128C39.3038 25.7506 39.0913 25.5381 38.8291 25.5381C38.567 25.5381 38.3544 25.7506 38.3544 26.0128C38.3544 26.2749 38.567 26.4875 38.8291 26.4875Z" fill="#AAAAAA"/>
<path d="M38.8291 28.7658C39.0913 28.7658 39.3038 28.5533 39.3038 28.2911C39.3038 28.0289 39.0913 27.8164 38.8291 27.8164C38.567 27.8164 38.3544 28.0289 38.3544 28.2911C38.3544 28.5533 38.567 28.7658 38.8291 28.7658Z" fill="#AAAAAA"/>
<path d="M38.8291 31.1393C39.0913 31.1393 39.3038 30.9268 39.3038 30.6646C39.3038 30.4025 39.0913 30.1899 38.8291 30.1899C38.567 30.1899 38.3544 30.4025 38.3544 30.6646C38.3544 30.9268 38.567 31.1393 38.8291 31.1393Z" fill="#AAAAAA"/>
<path d="M38.8291 33.4181C39.0913 33.4181 39.3038 33.2056 39.3038 32.9434C39.3038 32.6813 39.0913 32.4688 38.8291 32.4688C38.567 32.4688 38.3544 32.6813 38.3544 32.9434C38.3544 33.2056 38.567 33.4181 38.8291 33.4181Z" fill="#AAAAAA"/>
<path d="M35.6962 36.6458L39.019 34.7471L42.3418 36.6458V40.5382L39.019 42.5319L35.6962 40.5382V36.6458Z" fill="#D362C8"/>
<path d="M39.019 34.7471L42.3418 36.6458V40.5382L39.019 42.5319" fill="#BA3AB4"/>
<path d="M39.019 38.4496L42.3418 36.6458L39.019 34.7471L35.6962 36.6458L39.019 38.4496Z" fill="#F7ADF3"/>
<path d="M13.576 30.0949C13.7857 30.0949 13.9557 29.9249 13.9557 29.7152C13.9557 29.5055 13.7857 29.3354 13.576 29.3354C13.3662 29.3354 13.1962 29.5055 13.1962 29.7152C13.1962 29.9249 13.3662 30.0949 13.576 30.0949Z" fill="#AAAAAA"/>
<path d="M13.576 31.9939C13.7857 31.9939 13.9557 31.8238 13.9557 31.6141C13.9557 31.4044 13.7857 31.2344 13.576 31.2344C13.3662 31.2344 13.1962 31.4044 13.1962 31.6141C13.1962 31.8238 13.3662 31.9939 13.576 31.9939Z" fill="#AAAAAA"/>
<path d="M13.576 33.9875C13.7857 33.9875 13.9557 33.8175 13.9557 33.6078C13.9557 33.398 13.7857 33.228 13.576 33.228C13.3662 33.228 13.1962 33.398 13.1962 33.6078C13.1962 33.8175 13.3662 33.9875 13.576 33.9875Z" fill="#AAAAAA"/>
<path d="M13.9557 35.6012C13.9557 35.7911 13.7658 35.981 13.576 35.981C13.3861 35.981 13.1962 35.7911 13.1962 35.6012C13.1962 35.4113 13.3861 35.2215 13.576 35.2215C13.7658 35.1265 13.9557 35.3164 13.9557 35.6012Z" fill="#AAAAAA"/>
<path d="M13.576 37.8796C13.7857 37.8796 13.9557 37.7096 13.9557 37.4999C13.9557 37.2901 13.7857 37.1201 13.576 37.1201C13.3662 37.1201 13.1962 37.2901 13.1962 37.4999C13.1962 37.7096 13.3662 37.8796 13.576 37.8796Z" fill="#AAAAAA"/>
<path d="M13.576 39.8733C13.7857 39.8733 13.9557 39.7032 13.9557 39.4935C13.9557 39.2838 13.7857 39.1138 13.576 39.1138C13.3662 39.1138 13.1962 39.2838 13.1962 39.4935C13.1962 39.7032 13.3662 39.8733 13.576 39.8733Z" fill="#AAAAAA"/>
<path d="M13.576 46.2341C14.9392 46.2341 16.0443 45.129 16.0443 43.7657C16.0443 42.4025 14.9392 41.2974 13.576 41.2974C12.2127 41.2974 11.1076 42.4025 11.1076 43.7657C11.1076 45.129 12.2127 46.2341 13.576 46.2341Z" fill="#62A7B7"/>
<path d="M13.576 41.2974C14.9051 41.2974 16.0443 42.4366 16.0443 43.7657C16.0443 45.0948 14.9051 46.2341 13.576 46.2341" fill="#428E9B"/>
<path d="M46.4241 30.0949C46.6338 30.0949 46.8038 29.9249 46.8038 29.7152C46.8038 29.5055 46.6338 29.3354 46.4241 29.3354C46.2143 29.3354 46.0443 29.5055 46.0443 29.7152C46.0443 29.9249 46.2143 30.0949 46.4241 30.0949Z" fill="#AAAAAA"/>
<path d="M46.4241 31.9939C46.6338 31.9939 46.8038 31.8238 46.8038 31.6141C46.8038 31.4044 46.6338 31.2344 46.4241 31.2344C46.2143 31.2344 46.0443 31.4044 46.0443 31.6141C46.0443 31.8238 46.2143 31.9939 46.4241 31.9939Z" fill="#AAAAAA"/>
<path d="M46.4241 33.9875C46.6338 33.9875 46.8038 33.8175 46.8038 33.6078C46.8038 33.398 46.6338 33.228 46.4241 33.228C46.2143 33.228 46.0443 33.398 46.0443 33.6078C46.0443 33.8175 46.2143 33.9875 46.4241 33.9875Z" fill="#AAAAAA"/>
<path d="M46.8987 35.6012C46.8987 35.7911 46.7089 35.981 46.519 35.981C46.3291 35.981 46.1392 35.7911 46.1392 35.6012C46.1392 35.4113 46.3291 35.2215 46.519 35.2215C46.7089 35.1265 46.8987 35.3164 46.8987 35.6012Z" fill="#AAAAAA"/>
<path d="M46.4241 37.8796C46.6338 37.8796 46.8038 37.7096 46.8038 37.4999C46.8038 37.2901 46.6338 37.1201 46.4241 37.1201C46.2143 37.1201 46.0443 37.2901 46.0443 37.4999C46.0443 37.7096 46.2143 37.8796 46.4241 37.8796Z" fill="#AAAAAA"/>
<path d="M46.4241 39.8733C46.6338 39.8733 46.8038 39.7032 46.8038 39.4935C46.8038 39.2838 46.6338 39.1138 46.4241 39.1138C46.2143 39.1138 46.0443 39.2838 46.0443 39.4935C46.0443 39.7032 46.2143 39.8733 46.4241 39.8733Z" fill="#AAAAAA"/>
<path d="M46.4241 46.2341C47.7873 46.2341 48.8924 45.129 48.8924 43.7657C48.8924 42.4025 47.7873 41.2974 46.4241 41.2974C45.0608 41.2974 43.9557 42.4025 43.9557 43.7657C43.9557 45.129 45.0608 46.2341 46.4241 46.2341Z" fill="#EDBD24"/>
<path d="M46.4241 41.2974C47.7532 41.2974 48.8924 42.4366 48.8924 43.7657C48.8924 45.0948 47.7532 46.2341 46.4241 46.2341" fill="#EF9614"/>
<path d="M10.0633 38.0696C10.0633 38.8291 9.39874 39.4936 8.63924 39.4936H4.84178C4.08228 39.4936 3.41772 38.8291 3.41772 38.0696C3.41772 37.3101 4.08228 36.6455 4.84178 36.6455H8.63924C9.39874 36.6455 10.0633 37.3101 10.0633 38.0696Z" fill="#D362C8"/>
<path d="M10.0633 38.0698C10.0633 38.9243 9.49367 39.4939 8.63924 39.4939H4.84178C3.98734 39.4939 3.41772 38.9243 3.41772 38.0698" fill="#BA3AB4"/>
<path d="M56.5823 38.0696C56.5823 38.8291 55.9177 39.4936 55.1582 39.4936H51.3608C50.6013 39.4936 49.9367 38.8291 49.9367 38.0696C49.9367 37.3101 50.6013 36.6455 51.3608 36.6455H55.1582C55.9177 36.6455 56.5823 37.3101 56.5823 38.0696Z" fill="#D362C8"/>
<path d="M56.5823 38.0698C56.5823 38.9243 56.0127 39.4939 55.1582 39.4939H51.3608C50.5063 39.4939 49.9367 38.9243 49.9367 38.0698" fill="#BA3AB4"/>
<path d="M30.9494 13.5759C30.9494 14.2405 30.6646 14.8101 30 14.8101C29.3354 14.8101 29.0506 14.2405 29.0506 13.5759V9.39873C29.0506 8.73417 29.3354 8.16455 30 8.16455C30.6646 8.16455 30.9494 8.73417 30.9494 9.39873V13.5759Z" fill="#0D7DC9"/>
<path d="M30 0.759277C27.6266 0.759277 25.8228 2.65801 25.8228 4.93649C25.8228 7.30991 27.7215 9.11371 30 9.11371C32.2785 9.11371 34.1772 7.21497 34.1772 4.93649C34.1772 2.65801 32.3734 0.759277 30 0.759277ZM30 6.45548C29.2405 6.45548 28.5759 5.79092 28.5759 5.03143C28.5759 4.27194 29.2405 3.60738 30 3.60738C30.7595 3.60738 31.424 4.27194 31.424 5.03143C31.424 5.79092 30.7595 6.45548 30 6.45548Z" fill="#0D7DC9"/>
<path d="M30 0.759277C27.6266 0.759277 25.8228 2.65801 25.8228 4.93649C25.8228 7.30991 27.7215 9.11371 30 9.11371C32.2785 9.11371 34.1772 7.21497 34.1772 4.93649C34.1772 2.65801 32.3734 0.759277 30 0.759277ZM30 6.45548C29.2405 6.45548 28.5759 5.79092 28.5759 5.03143C28.5759 4.27194 29.2405 3.60738 30 3.60738C30.7595 3.60738 31.424 4.27194 31.424 5.03143C31.424 5.79092 30.7595 6.45548 30 6.45548Z" fill="#0D7DC9"/>
<path d="M43.2911 45.0001C43.2911 45.19 43.1962 45.285 43.0063 45.285C42.8165 45.285 42.7215 45.19 42.7215 45.0001C42.7215 44.8103 42.8165 44.7153 43.0063 44.7153C43.1013 44.7153 43.2911 44.8103 43.2911 45.0001Z" fill="#AAAAAA"/>
<path d="M43.2911 46.2345C43.2911 46.4244 43.1962 46.5193 43.0063 46.5193C42.8165 46.5193 42.7215 46.4244 42.7215 46.2345C42.7215 46.0446 42.8165 45.9497 43.0063 45.9497C43.1013 45.9497 43.2911 46.1396 43.2911 46.2345Z" fill="#AAAAAA"/>
<path d="M43.2911 47.5636C43.2911 47.7535 43.1962 47.8484 43.0063 47.8484C42.8165 47.8484 42.7215 47.7535 42.7215 47.5636C42.7215 47.3737 42.8165 47.2788 43.0063 47.2788C43.1013 47.2788 43.2911 47.3737 43.2911 47.5636Z" fill="#AAAAAA"/>
<path d="M43.2911 48.7975C43.2911 48.9874 43.1962 49.0823 43.0063 49.0823C42.8165 49.0823 42.7215 48.9874 42.7215 48.7975C42.7215 48.6076 42.8165 48.5127 43.0063 48.5127C43.1013 48.5127 43.2911 48.7026 43.2911 48.7975Z" fill="#AAAAAA"/>
<path d="M43.2911 50.1266C43.2911 50.3165 43.1962 50.4114 43.0063 50.4114C42.8165 50.4114 42.7215 50.3165 42.7215 50.1266C42.7215 49.9367 42.8165 49.8418 43.0063 49.8418C43.1013 49.8418 43.2911 49.9367 43.2911 50.1266Z" fill="#AAAAAA"/>
<path d="M43.2911 51.361C43.2911 51.5509 43.1962 51.6458 43.0063 51.6458C42.8165 51.6458 42.7215 51.5509 42.7215 51.361C42.7215 51.1711 42.8165 51.0762 43.0063 51.0762C43.1013 51.0762 43.2911 51.266 43.2911 51.361Z" fill="#AAAAAA"/>
<path d="M41.3924 53.4496L43.2911 52.4053L45.1899 53.4496V55.6331L43.2911 56.6774L41.3924 55.6331V53.4496Z" fill="#59AA04"/>
<path d="M43.2911 52.4053L45.1899 53.4496V55.6331L43.2911 56.6774" fill="#2E8400"/>
<path d="M43.2911 54.3989L45.1899 53.4496L43.2911 52.4053L41.3924 53.4496L43.2911 54.3989Z" fill="#6ACE09"/>
<path d="M16.9937 45.285C17.151 45.285 17.2785 45.1574 17.2785 45.0001C17.2785 44.8428 17.151 44.7153 16.9937 44.7153C16.8364 44.7153 16.7089 44.8428 16.7089 45.0001C16.7089 45.1574 16.8364 45.285 16.9937 45.285Z" fill="#AAAAAA"/>
<path d="M16.9937 46.5193C17.151 46.5193 17.2785 46.3918 17.2785 46.2345C17.2785 46.0772 17.151 45.9497 16.9937 45.9497C16.8364 45.9497 16.7089 46.0772 16.7089 46.2345C16.7089 46.3918 16.8364 46.5193 16.9937 46.5193Z" fill="#AAAAAA"/>
<path d="M16.9937 47.8484C17.151 47.8484 17.2785 47.7209 17.2785 47.5636C17.2785 47.4063 17.151 47.2788 16.9937 47.2788C16.8364 47.2788 16.7089 47.4063 16.7089 47.5636C16.7089 47.7209 16.8364 47.8484 16.9937 47.8484Z" fill="#AAAAAA"/>
<path d="M16.9937 49.0823C17.151 49.0823 17.2785 48.9548 17.2785 48.7975C17.2785 48.6402 17.151 48.5127 16.9937 48.5127C16.8364 48.5127 16.7089 48.6402 16.7089 48.7975C16.7089 48.9548 16.8364 49.0823 16.9937 49.0823Z" fill="#AAAAAA"/>
<path d="M16.9937 50.4114C17.151 50.4114 17.2785 50.2839 17.2785 50.1266C17.2785 49.9693 17.151 49.8418 16.9937 49.8418C16.8364 49.8418 16.7089 49.9693 16.7089 50.1266C16.7089 50.2839 16.8364 50.4114 16.9937 50.4114Z" fill="#AAAAAA"/>
<path d="M16.9937 51.6458C17.151 51.6458 17.2785 51.5183 17.2785 51.361C17.2785 51.2037 17.151 51.0762 16.9937 51.0762C16.8364 51.0762 16.7089 51.2037 16.7089 51.361C16.7089 51.5183 16.8364 51.6458 16.9937 51.6458Z" fill="#AAAAAA"/>
<path d="M14.8101 53.4496L16.7089 52.4053L18.6076 53.4496V55.6331L16.7089 56.6774L14.8101 55.6331V53.4496Z" fill="#D362C8"/>
<path d="M16.7089 52.4053L18.6076 53.4496V55.6331L16.7089 56.6774" fill="#BA3AB4"/>
<path d="M16.7089 54.3989L18.6076 53.4496L16.7089 52.4053L14.8101 53.4496L16.7089 54.3989Z" fill="#F7ADF3"/>
</g>
<defs>
<clipPath id="clip0_16_5771">
<rect width="60" height="60" fill="white"/>
</clipPath>
</defs>
</svg>
