<svg width="60" height="61" viewBox="0 0 60 61" fill="none" xmlns="http://www.w3.org/2000/svg">
<path d="M30 56.1148C43.9176 56.1148 55.2 44.8324 55.2 30.9148C55.2 16.9973 43.9176 5.71484 30 5.71484C16.0824 5.71484 4.79999 16.9973 4.79999 30.9148C4.79999 44.8324 16.0824 56.1148 30 56.1148Z" fill="#C2B170" stroke="#4A4334" stroke-width="1.8"/>
<path d="M18 27.915C21.3137 27.915 24 25.2287 24 21.915C24 18.6013 21.3137 15.915 18 15.915C14.6863 15.915 12 18.6013 12 21.915C12 25.2287 14.6863 27.915 18 27.915Z" fill="#DDDDDD" stroke="#222222" stroke-width="1.8"/>
<path d="M18 24.3151C19.3255 24.3151 20.4 23.2406 20.4 21.9151C20.4 20.5897 19.3255 19.5151 18 19.5151C16.6745 19.5151 15.6 20.5897 15.6 21.9151C15.6 23.2406 16.6745 24.3151 18 24.3151Z" fill="#222222"/>
<path d="M42 27.915C45.3137 27.915 48 25.2287 48 21.915C48 18.6013 45.3137 15.915 42 15.915C38.6863 15.915 36 18.6013 36 21.915C36 25.2287 38.6863 27.915 42 27.915Z" fill="#DDDDDD" stroke="#222222" stroke-width="1.8"/>
<path d="M42 24.3151C43.3255 24.3151 44.4 23.2406 44.4 21.9151C44.4 20.5897 43.3255 19.5151 42 19.5151C40.6745 19.5151 39.6 20.5897 39.6 21.9151C39.6 23.2406 40.6745 24.3151 42 24.3151Z" fill="#222222"/>
<path d="M12 36.915C30 48.915 30 48.915 48 36.915" stroke="#222222" stroke-width="2.4"/>
</svg>
