<svg width="60" height="60" viewBox="0 0 60 60" fill="none" xmlns="http://www.w3.org/2000/svg">
<path d="M52.4211 4.50961H36.2685V1.1952C36.2685 0.535078 35.7334 0 35.0733 0H24.9267C24.2666 0 23.7315 0.535078 23.7315 1.1952V4.50949H7.57887C4.82977 4.50949 2.59301 6.74613 2.59301 9.49535V36.1868C2.59301 38.9359 4.82965 41.1727 7.57887 41.1727H23.7315V58.8048C23.7315 59.4649 24.2666 60 24.9267 60H35.0733C35.7334 60 36.2685 59.4649 36.2685 58.8048V41.1727H52.421C55.1701 41.1727 57.4069 38.936 57.4069 36.1868V9.49547C57.407 6.74613 55.1704 4.50961 52.4211 4.50961ZM26.122 2.39039H33.8782V4.50949H26.122V2.39039ZM33.878 57.6096H26.1218V41.1727H33.878V57.6096ZM55.0165 36.1868C55.0165 37.618 53.8522 38.7823 52.421 38.7823H7.57887C6.14766 38.7823 4.9834 37.618 4.9834 36.1868V9.49547C4.9834 8.06426 6.14766 6.9 7.57887 6.9H52.4211C53.8523 6.9 55.0166 8.06426 55.0166 9.49547V36.1868H55.0165Z" fill="black"/>
<path d="M31.7929 43.9839C31.1327 43.9839 30.5977 44.519 30.5977 45.1791V45.6572C30.5977 46.3173 31.1327 46.8524 31.7929 46.8524C32.453 46.8524 32.988 46.3173 32.988 45.6572V45.1791C32.988 44.519 32.453 43.9839 31.7929 43.9839Z" fill="black"/>
<path d="M31.7929 47.9282C31.1327 47.9282 30.5977 48.4633 30.5977 49.1234V55.4581C30.5977 56.1182 31.1327 56.6533 31.7929 56.6533C32.453 56.6533 32.988 56.1182 32.988 55.4581V49.1234C32.988 48.4633 32.453 47.9282 31.7929 47.9282Z" fill="black"/>
<path d="M24.8125 12.5488H20.6135C20.202 12.5488 19.7906 12.7423 19.7906 13.1296L19.7907 20.8136C19.7907 21.2007 20.2627 21.3944 20.7346 21.3944C21.2065 21.3944 21.6783 21.2008 21.6783 20.8136V17.6916H23.5056C23.905 17.6916 24.0743 17.3043 24.0743 16.9777C24.0743 16.5904 23.8686 16.2395 23.5056 16.2395H21.6783V14.1945H24.8123C25.1754 14.1945 25.3812 13.8073 25.3812 13.3596C25.3813 12.9723 25.2118 12.5488 24.8125 12.5488Z" fill="black"/>
<path d="M29.7736 12.5488C28.1037 12.5488 26.8089 13.3232 26.8089 15.4046V18.6112C26.8089 20.6925 28.1037 21.4669 29.7736 21.4669C31.4433 21.4669 32.7503 20.6925 32.7503 18.6112V15.4046C32.7503 13.3233 31.4435 12.5488 29.7736 12.5488ZM30.8626 18.6113C30.8626 19.4462 30.4512 19.8214 29.7737 19.8214C29.096 19.8214 28.6968 19.4462 28.6968 18.6113V15.4047C28.6968 14.5697 29.0961 14.1945 29.7737 14.1945C30.4513 14.1945 30.8626 14.5697 30.8626 15.4047V18.6113Z" fill="black"/>
<path d="M41.0024 20.2691L39.5261 17.5948C40.3731 17.2682 40.9902 16.4937 40.9902 15.1384C40.9902 13.1659 39.6713 12.5488 38.0135 12.5488H35.5086C35.1578 12.5488 34.9277 12.815 34.9277 13.1175V20.8137C34.9277 21.2008 35.3997 21.3945 35.8716 21.3945C36.3435 21.3945 36.8153 21.2009 36.8153 20.8137V17.8975H37.6139L39.2716 21.1162C39.4049 21.3702 39.6349 21.4671 39.8768 21.4671C40.4334 21.4671 41.0627 20.9589 41.0627 20.487C41.0629 20.4264 41.0507 20.3417 41.0024 20.2691ZM38.0134 16.4453H36.8154V14.1946L38.0134 14.1945C38.691 14.1945 39.1024 14.4728 39.1024 15.32C39.1023 16.167 38.691 16.4453 38.0134 16.4453Z" fill="black"/>
<path d="M21.697 32.3409L20.2207 29.6666C21.0677 29.34 21.6848 28.5655 21.6848 27.2102C21.6848 25.2377 20.3659 24.6206 18.7082 24.6206H16.2034C15.8524 24.6206 15.6225 24.8867 15.6225 25.1893V32.8855C15.6225 33.2727 16.0944 33.4663 16.5663 33.4663C17.0382 33.4663 17.51 33.2727 17.51 32.8855V29.9693H18.3087L19.9664 33.1879C20.0996 33.442 20.3297 33.5389 20.5716 33.5389C21.1282 33.5389 21.7575 33.0307 21.7575 32.5588C21.7575 32.4982 21.7453 32.4135 21.697 32.3409ZM18.7082 28.5171H17.5102V26.2664V26.2663H18.7082C19.3857 26.2663 19.7971 26.5446 19.7971 27.3917C19.7971 28.2388 19.3857 28.5171 18.7082 28.5171Z" fill="black"/>
<path d="M28.7876 31.8204H25.5445V29.7633H27.3598C27.7591 29.7633 27.9285 29.376 27.9285 29.0494C27.9285 28.6621 27.7228 28.3112 27.3598 28.3112H25.5445V26.2662H28.7876C29.1505 26.2662 29.3564 25.879 29.3564 25.4313C29.3564 25.044 29.187 24.6206 28.7876 24.6206H24.4798C24.0682 24.6206 23.6569 24.8141 23.6569 25.2014V32.8854C23.6569 33.2726 24.0684 33.4662 24.4798 33.4662H28.7876C29.187 33.4662 29.3564 33.0426 29.3564 32.6554C29.3564 32.2077 29.1505 31.8204 28.7876 31.8204Z" fill="black"/>
<path d="M36.3861 24.6206C35.9142 24.6206 35.4424 24.7899 35.4424 25.1893V29.3037L33.4821 25.5645C33.0221 24.6812 32.7681 24.6207 32.0905 24.6207C31.6185 24.6207 31.1467 24.8021 31.1467 25.2015V32.8855C31.1467 33.2727 31.6186 33.4663 32.0905 33.4663C32.5624 33.4663 33.0342 33.2727 33.0342 32.8855V28.7713L35.3333 32.9581C35.5632 33.3818 35.9504 33.4664 36.386 33.4663C36.8579 33.4663 37.3298 33.2727 37.3298 32.8855V25.1894C37.3301 24.7901 36.858 24.6206 36.3861 24.6206Z" fill="black"/>
<path d="M44.8438 24.6206H39.6164C39.217 24.6206 39.0476 25.0562 39.0476 25.4554C39.0476 25.9153 39.2534 26.3146 39.6164 26.3146H41.2863V32.8853C41.2863 33.2724 41.7582 33.466 42.23 33.466C42.702 33.466 43.1737 33.2724 43.1737 32.8853V26.3146H44.8437C45.2066 26.3146 45.4125 25.9153 45.4125 25.4554C45.4126 25.0563 45.2432 24.6206 44.8438 24.6206Z" fill="black"/>
</svg>
