<svg width="60" height="60" viewBox="0 0 60 60" fill="none" xmlns="http://www.w3.org/2000/svg">
<g clip-path="url(#clip0_15_5550)">
<path d="M25.7735 38.0032L20.3623 43.4159L16.755 39.8086L15.5299 41.0338L19.1372 44.6411L15.6049 48.1717L16.8299 49.3972L20.975 45.2537L26.9988 39.2282L25.7735 38.0032Z" fill="#666666"/>
<path d="M51.6728 1.82519L50.3104 0.461132L48.7362 2.03531L48.9753 4.52261L41.3233 12.1746L38.8554 11.1179C38.5298 10.9785 38.1522 11.0512 37.9019 11.3018L27.8605 21.345L29.0858 22.57L38.7126 12.9416L40.0036 13.4945L28.9041 24.5939L30.4968 26.1865L55.0907 1.59258L53.4981 0L51.6728 1.82519Z" fill="#666666"/>
<path d="M44.5193 38.8097L45.6099 45.1119C45.6842 45.5413 45.407 45.9534 44.9814 46.047C37.9619 47.5896 30.4266 46.2306 24.3098 41.9732C23.0537 41.0981 21.8564 40.1019 20.7371 38.9809L21.4934 35.4379L26.4099 33.3083C31.0511 37.9512 37.5729 39.5672 43.5242 38.1592C43.9828 38.0507 44.4389 38.3451 44.5193 38.8097Z" fill="#808080"/>
<path d="M44.3495 44.9413C37.6246 46.3162 30.6325 44.8962 25.0026 40.9778C23.9657 40.2555 22.2564 38.7282 21.3403 37.8575L22.5489 36.3024L24.6787 33.1101L24.9291 33.3874C28.0529 36.8452 32.2919 39.1413 36.9162 39.7155C39.0511 39.9807 41.2407 39.8935 43.396 39.4314L44.3495 44.9413Z" fill="#666666"/>
<path d="M18.2768 48.1952L20.8107 56.9481C21.0603 57.8106 20.6266 58.7237 19.8002 59.0749L17.957 59.8582C17.053 60.2423 16.009 59.8191 15.6275 58.9141L13.5569 54.0014C13.1169 52.9601 12.306 52.1181 11.2802 51.6415L9.09186 50.6262L10.4054 46.1582L14.8997 44.8184L18.2768 48.1952Z" fill="#FCBB29"/>
<path d="M19.503 57.8393C19.4525 57.8898 19.3927 57.93 19.3257 57.9585L17.4825 58.7418C17.2958 58.8211 17.1324 58.7781 17.0518 58.7454C16.9711 58.7127 16.8239 58.63 16.745 58.4431L14.6744 53.5303C14.115 52.2065 13.0911 51.1453 11.7911 50.5416L9.18045 49.3437L11.3833 47.1324L13.5983 45.2322L17.1986 48.8325L19.6459 57.2855C19.7027 57.4821 19.6481 57.6945 19.503 57.8393Z" fill="#D39A29"/>
<path d="M34.0178 23.3594L27.0405 30.3368L22.0293 29.5418L22.5373 25.8337L29.5147 18.8564C29.8932 18.4779 30.5067 18.4779 30.8851 18.8564L34.0177 21.989C34.3962 22.3674 34.3962 22.981 34.0178 23.3594Z" fill="#FCBB29"/>
<path d="M33.1908 22.5325L26.2135 29.5098L22.1227 28.8608L22.0294 29.5418L27.0406 30.3368L34.0179 23.3595C34.3963 22.981 34.3963 22.3674 34.0179 21.9891L33.191 21.1621C33.5692 21.5405 33.5692 22.154 33.1908 22.5325Z" fill="#D39A29"/>
<path d="M20.737 38.981L17.7205 41.9993L14.8997 44.8182L9.09186 50.626L8.5426 50.0767L4.90921 46.4417V44.112C4.90921 43.6966 5.07421 43.2983 5.36788 43.0046L22.5371 25.8337L22.6272 25.9239L27.0403 30.3369L26.4096 33.3083L20.737 38.981Z" fill="#4D4D4D"/>
<path d="M13.786 41.2719L13.7859 41.272L11.2754 43.7808C10.9708 44.0853 10.4771 44.0851 10.1727 43.7805C9.86834 43.4759 9.86846 42.9823 10.1728 42.6781L10.1729 42.678L12.6836 40.1691C12.9882 39.8647 13.4819 39.8649 13.7864 40.1695C14.0906 40.4739 14.0905 40.9675 13.786 41.2719Z" fill="#808080"/>
</g>
<defs>
<clipPath id="clip0_15_5550">
<rect width="60" height="60" fill="white"/>
</clipPath>
</defs>
</svg>
