<svg width="60" height="60" viewBox="0 0 60 60" fill="none" xmlns="http://www.w3.org/2000/svg">
<g clip-path="url(#clip0_16_15396)">
<path d="M26.7557 41.0772L52.0042 38.463L9.1709 1.82227" fill="#F4B2B0"/>
<path d="M53.8075 38.7194C53.8184 38.6417 53.8255 38.5637 53.8265 38.4855C53.8267 38.4746 53.8255 38.4636 53.8255 38.4525C53.8252 38.3842 53.8204 38.3161 53.8124 38.2484C53.8102 38.2292 53.8081 38.21 53.8052 38.1909C53.7937 38.1148 53.7783 38.0391 53.7572 37.9646C53.7549 37.9564 53.7517 37.9486 53.7494 37.9406C53.729 37.8721 53.7038 37.8048 53.6752 37.7388C53.6689 37.7238 53.6624 37.7091 53.6557 37.6943C53.6222 37.6221 53.5848 37.5513 53.5415 37.4833C53.5395 37.4803 53.5371 37.4774 53.5352 37.4742C53.4945 37.4113 53.4486 37.3512 53.3996 37.2928C53.3871 37.278 53.3746 37.2635 53.3616 37.2489C53.3082 37.1892 53.2519 37.1314 53.1893 37.0779L10.356 0.437024C10.2956 0.385227 10.2319 0.339875 10.1668 0.297219C10.15 0.286321 10.1333 0.276125 10.1163 0.265813C10.0591 0.231008 10.0007 0.199484 9.94085 0.171594C9.93066 0.166906 9.92081 0.161164 9.91038 0.156594C9.8389 0.124836 9.76601 0.0982342 9.69218 0.0762029C9.67905 0.0723357 9.66569 0.0692888 9.65257 0.0657732C9.58917 0.0484294 9.52519 0.0346013 9.46062 0.0241716C9.44491 0.0215934 9.42944 0.0186638 9.41362 0.0165544C9.33862 0.00659342 9.26315 0.000734031 9.18769 3.09043e-05C9.17515 -0.000203471 9.16272 0.000968406 9.15019 0.00108559C9.0855 0.00178872 9.02093 0.00635904 8.95636 0.0138591C8.93737 0.0160856 8.91862 0.018195 8.89987 0.0210075C8.82405 0.0322575 8.7487 0.0474919 8.67476 0.0683513C8.67018 0.0696404 8.66561 0.0713982 8.66104 0.0729217C8.58862 0.0938983 8.51772 0.1205 8.44811 0.150617C8.44085 0.153664 8.43311 0.155539 8.42585 0.15882C8.41987 0.161516 8.4146 0.165383 8.4085 0.168078C8.26706 0.233 8.133 0.316789 8.0096 0.419329C7.9946 0.431751 7.98007 0.444524 7.96553 0.457297C7.91925 0.498313 7.87495 0.541907 7.83229 0.588196C7.82104 0.600384 7.80909 0.611751 7.79819 0.624056C7.79421 0.628626 7.78975 0.63261 7.78577 0.637181C7.7396 0.691087 7.69811 0.747337 7.65944 0.804876C7.651 0.817298 7.64397 0.830189 7.63589 0.842845C7.60085 0.897689 7.56921 0.953705 7.5405 1.01113C7.533 1.02624 7.52538 1.04124 7.51823 1.05648C7.45202 1.19898 7.40573 1.34757 7.37854 1.49886C7.37549 1.51632 7.37268 1.53367 7.36999 1.55136C7.35874 1.62648 7.35089 1.70171 7.34901 1.77742C7.34901 1.77976 7.34842 1.78199 7.34831 1.78433V1.78855C7.34831 1.7889 7.34831 1.78925 7.34831 1.78949L6.17373 58.1391C6.15862 58.8679 6.57897 59.5357 7.2426 59.8368C7.48413 59.9465 7.74089 59.9999 7.996 59.9999C8.44155 59.9999 8.88183 59.8366 9.22437 59.5243L21.9038 47.9666C22.648 47.2883 22.7014 46.1354 22.023 45.3913C21.3447 44.6474 20.192 44.5941 19.4477 45.2721L9.90745 53.9684L10.9135 5.71188L47.5915 37.0875L27.8802 39.1283L18.8744 19.0242C18.463 18.1054 17.3839 17.6941 16.4655 18.1058C15.5468 18.5174 15.1354 19.5959 15.5471 20.5147L25.0922 41.8228C25.0949 41.829 25.0987 41.8341 25.1017 41.8402C25.1708 41.9898 25.2588 42.1279 25.3632 42.2514C25.3751 42.2654 25.3865 42.2796 25.3987 42.2931C25.448 42.3479 25.5001 42.4 25.5553 42.4484C25.5688 42.4602 25.583 42.471 25.5967 42.4822C25.6472 42.5238 25.6994 42.5628 25.7542 42.5987C25.7651 42.6059 25.7757 42.6138 25.7866 42.6207C25.8508 42.6611 25.9179 42.6968 25.987 42.729C25.9999 42.735 26.013 42.7407 26.026 42.7464C26.1675 42.8084 26.3177 42.8528 26.4739 42.877C26.4901 42.8796 26.5062 42.8817 26.5226 42.8839C26.598 42.8936 26.6742 42.9004 26.7519 42.9004C26.7535 42.9004 26.7549 42.9007 26.7566 42.9007C26.8219 42.9007 26.8873 42.8967 26.9529 42.8896L52.192 40.2765C52.2027 40.2755 52.2129 40.2722 52.2235 40.2709C52.293 40.2625 52.3616 40.2503 52.4298 40.2339C52.443 40.2308 52.4563 40.2284 52.4695 40.225C52.5453 40.205 52.6197 40.1796 52.6928 40.1498C52.7073 40.1439 52.7214 40.1373 52.7358 40.1309C52.8 40.1027 52.8627 40.0711 52.9238 40.0355C52.9333 40.0298 52.9432 40.0249 52.9526 40.0193C53.0195 39.9785 53.0841 39.9329 53.1462 39.8828C53.1586 39.8727 53.1702 39.862 53.1823 39.8516C53.2302 39.8108 53.2764 39.767 53.3208 39.7206C53.3354 39.7055 53.35 39.6907 53.3641 39.675C53.3723 39.6657 53.3814 39.6576 53.3894 39.6482C53.4326 39.5979 53.472 39.5455 53.5086 39.4919C53.5135 39.4847 53.5177 39.4768 53.5224 39.4696C53.563 39.4085 53.5988 39.3455 53.6313 39.281C53.6389 39.2659 53.6464 39.2508 53.6536 39.2353C53.6888 39.1602 53.72 39.084 53.7442 39.006V39.0057C53.7442 39.0054 53.7442 39.0051 53.7445 39.0048C53.7685 38.9275 53.7857 38.8489 53.7989 38.77C53.8022 38.7533 53.8052 38.7366 53.8075 38.7194Z" fill="#B3404A"/>
<path d="M31.4201 53.3113C30.7235 53.3113 30.0585 52.9099 29.7553 52.2329L27.7679 47.796C27.3563 46.8772 27.7676 45.7985 28.6863 45.387C29.605 44.9759 30.6836 45.3868 31.0952 46.3057L33.0826 50.7426C33.4943 51.6614 33.083 52.7401 32.1642 53.1516C31.9222 53.2601 31.6692 53.3113 31.4201 53.3113Z" fill="#B3404A"/>
<path d="M34.2773 59.6897C33.5808 59.6897 32.9157 59.2884 32.6126 58.6116L31.9794 57.1986C31.5677 56.2798 31.9788 55.2011 32.8977 54.7897C33.8168 54.378 34.8951 54.7893 35.3068 55.7081L35.94 57.1211C36.3517 58.0399 35.9406 59.1186 35.0217 59.53C34.7796 59.6383 34.5264 59.6897 34.2773 59.6897Z" fill="#B3404A"/>
</g>
<defs>
<clipPath id="clip0_16_15396">
<rect width="60" height="60" fill="white"/>
</clipPath>
</defs>
</svg>
