<svg width="480" height="480" viewBox="0 0 480 480" fill="none" xmlns="http://www.w3.org/2000/svg">
<path d="M240 65.5007V41.4497L242.909 36.7917L255.259 36.3637L249.455 25.4547L255.259 14.5457L242.909 14.1177L236.364 3.63672L229.819 14.1177L217.469 14.5457L223.273 25.4547L217.469 36.3637L229.819 36.7917L232.728 41.4497V65.5007C233.936 65.4707 235.149 65.4547 236.364 65.4547C237.579 65.4547 238.792 65.4697 240 65.5007Z" fill="#695A69"/>
<path d="M377.232 190.871C377.31 191.55 377.393 192.228 377.462 192.91C377.393 192.229 377.311 191.551 377.232 190.871Z" fill="#DFD0C6"/>
<path d="M376.761 187.201C376.864 187.93 376.97 188.657 377.063 189.389C376.971 188.658 376.864 187.93 376.761 187.201Z" fill="#DFD0C6"/>
<path d="M377.609 194.565C377.665 195.196 377.727 195.825 377.775 196.459C377.727 195.826 377.665 195.197 377.609 194.565Z" fill="#DFD0C6"/>
<path d="M378.086 202.316C378.101 202.758 378.124 203.198 378.136 203.642C378.125 203.198 378.101 202.758 378.086 202.316Z" fill="#DFD0C6"/>
<path d="M240 105.455V65.6391C303.447 67.2501 356.561 110.441 372.955 169.015C356.57 110.393 303.466 67.0981 240 65.5011C238.792 65.4711 237.579 65.4551 236.364 65.4551C235.149 65.4551 233.936 65.4711 232.728 65.5011C156.084 67.4301 94.545 130.164 94.545 207.273H240V105.455Z" fill="#DFD0C6"/>
<path d="M72.727 454.545H87.272V447.272C87.272 362.924 155.651 294.545 240 294.545C324.35 294.545 392.727 362.924 392.727 447.272V454.545H407.272V309.091V272.727V258.182H378.181H356.363H334.545H320H298.182H283.637H261.819H247.273H240H225.454H210.909H189.091H174.546H152.728H138.183H116.365H94.545H72.727V272.727L0 309.091H72.727V454.545Z" fill="#DFD0C6"/>
<path d="M240 294.545C155.651 294.545 87.272 362.924 87.272 447.272V454.545H392.727V447.272C392.727 362.924 324.35 294.545 240 294.545ZM167.272 440H138.181V382.545C138.181 378.127 141.763 374.545 146.181 374.545H159.272C163.69 374.545 167.272 378.127 167.272 382.545V440ZM210.909 440H181.818V382.545C181.818 378.127 185.4 374.545 189.818 374.545H202.909C207.327 374.545 210.909 378.127 210.909 382.545V440ZM254.545 440H225.454V382.545C225.454 378.127 229.036 374.545 233.454 374.545H246.545C250.963 374.545 254.545 378.127 254.545 382.545V440ZM298.182 440H269.091V382.545C269.091 378.127 272.673 374.545 277.091 374.545H290.182C294.6 374.545 298.182 378.127 298.182 382.545V440ZM341.818 440H312.727V382.545C312.727 378.127 316.309 374.545 320.727 374.545H333.818C338.236 374.545 341.818 378.127 341.818 382.545V440Z" fill="#C8B2A8"/>
<path d="M116.364 258.181V232.726C116.364 226.702 121.249 221.817 127.273 221.817C133.298 221.817 138.182 226.702 138.182 232.726V258.181H152.727V232.726C152.727 226.702 157.612 221.817 163.636 221.817C169.66 221.817 174.545 226.702 174.545 232.726V258.181H189.09V232.726C189.09 226.702 193.975 221.817 199.999 221.817C206.023 221.817 210.908 226.702 210.908 232.726V258.181H225.453V232.726C225.453 226.702 230.338 221.817 236.362 221.817C237.639 221.817 238.859 222.048 239.998 222.451V207.271H94.545V258.18H116.364V258.181Z" fill="#C8B2A8"/>
<path d="M240 222.451C244.234 223.95 247.272 227.978 247.272 232.726V258.181H261.818V232.726C261.818 226.702 266.703 221.817 272.727 221.817C278.752 221.817 283.636 226.702 283.636 232.726V258.181H298.181V232.726C298.181 226.702 303.066 221.817 309.09 221.817C315.114 221.817 320 226.702 320 232.726V258.181H334.545V232.726C334.545 226.702 339.43 221.817 345.454 221.817C351.479 221.817 356.363 226.702 356.363 232.726V258.181H378.181V207.272H240V222.451Z" fill="#A08A8A"/>
<path d="M407.272 309.091V454.546H480V309.091H407.272ZM458.182 440H429.091V411.636C429.091 407.218 432.673 403.636 437.091 403.636H456.182C457.286 403.636 458.182 404.531 458.182 405.636V440ZM458.182 381.818H429.091V353.454C429.091 349.036 432.673 345.454 437.091 345.454H450.182C454.6 345.454 458.182 349.036 458.182 353.454V381.818Z" fill="#A08A8A"/>
<path d="M72.727 309.091H0V454.546H72.727V309.091ZM50.909 440H21.818V411.636C21.818 407.218 25.4 403.636 29.818 403.636H42.909C47.327 403.636 50.909 407.218 50.909 411.636V440ZM50.909 381.818H21.818V353.454C21.818 349.036 25.4 345.454 29.818 345.454H42.909C47.327 345.454 50.909 349.036 50.909 353.454V381.818Z" fill="#C8B2A8"/>
<path d="M480 309.091L407.272 272.727V309.091H480Z" fill="#C8B2A8"/>
<path d="M333.818 374.545H320.727C316.309 374.545 312.727 378.127 312.727 382.545V440H341.818V382.545C341.818 378.127 338.236 374.545 333.818 374.545Z" fill="#695A69"/>
<path d="M290.182 374.545H277.091C272.673 374.545 269.091 378.127 269.091 382.545V440H298.182V382.545C298.182 378.127 294.6 374.545 290.182 374.545Z" fill="#695A69"/>
<path d="M202.909 374.545H189.818C185.4 374.545 181.818 378.127 181.818 382.545V440H210.909V382.545C210.909 378.127 207.327 374.545 202.909 374.545Z" fill="#695A69"/>
<path d="M246.545 374.545H233.454C229.036 374.545 225.454 378.127 225.454 382.545V440H254.545V382.545C254.545 378.127 250.964 374.545 246.545 374.545Z" fill="#695A69"/>
<path d="M159.272 374.545H146.181C141.763 374.545 138.181 378.127 138.181 382.545V440H167.272V382.545C167.272 378.127 163.691 374.545 159.272 374.545Z" fill="#695A69"/>
<path d="M450.182 345.455H437.091C432.673 345.455 429.091 349.037 429.091 353.455V381.819H458.182V353.455C458.182 349.036 454.6 345.455 450.182 345.455Z" fill="#695A69"/>
<path d="M456.182 403.636H437.091C432.673 403.636 429.091 407.218 429.091 411.636V440H458.182V405.636C458.182 404.532 457.286 403.636 456.182 403.636Z" fill="#695A69"/>
<path d="M42.909 345.455H29.818C25.4 345.455 21.818 349.037 21.818 353.455V381.819H50.909V353.455C50.909 349.036 47.327 345.455 42.909 345.455Z" fill="#695A69"/>
<path d="M42.909 403.636H29.818C25.4 403.636 21.818 407.218 21.818 411.636V440H50.909V411.636C50.909 407.218 47.327 403.636 42.909 403.636Z" fill="#695A69"/>
<path d="M127.272 221.817C121.248 221.817 116.363 226.702 116.363 232.726V258.181H138.181V232.726C138.182 226.702 133.297 221.817 127.272 221.817Z" fill="#695A69"/>
<path d="M345.454 221.817C339.43 221.817 334.545 226.702 334.545 232.726V258.181H356.363V232.726C356.364 226.702 351.479 221.817 345.454 221.817Z" fill="#695A69"/>
<path d="M309.091 221.817C303.067 221.817 298.182 226.702 298.182 232.726V258.181H320V232.726C320 226.702 315.115 221.817 309.091 221.817Z" fill="#695A69"/>
<path d="M272.727 221.817C266.703 221.817 261.818 226.702 261.818 232.726V258.181H283.636V232.726C283.636 226.702 278.752 221.817 272.727 221.817Z" fill="#695A69"/>
<path d="M240 222.451C238.861 222.048 237.641 221.817 236.364 221.817C230.339 221.817 225.455 226.702 225.455 232.726V258.181H240H247.272V232.726C247.272 227.979 244.234 223.951 240 222.451Z" fill="#695A69"/>
<path d="M200 221.817C193.975 221.817 189.091 226.702 189.091 232.726V258.181H210.909V232.726C210.909 226.702 206.024 221.817 200 221.817Z" fill="#695A69"/>
<path d="M163.636 221.817C157.612 221.817 152.727 226.702 152.727 232.726V258.181H174.545V232.726C174.545 226.702 169.661 221.817 163.636 221.817Z" fill="#695A69"/>
<path d="M240 65.6387V105.454V207.272H378.182C378.182 206.058 378.166 204.848 378.136 203.642C378.125 203.199 378.102 202.759 378.086 202.316C378.06 201.555 378.037 200.794 377.999 200.036C377.971 199.475 377.929 198.918 377.894 198.358C377.855 197.725 377.821 197.09 377.774 196.46C377.726 195.827 377.665 195.197 377.608 194.566C377.559 194.014 377.516 193.46 377.461 192.91C377.392 192.228 377.31 191.55 377.231 190.871C377.174 190.377 377.124 189.882 377.062 189.39C376.97 188.658 376.864 187.93 376.76 187.202C376.698 186.769 376.643 186.334 376.578 185.903C376.458 185.109 376.324 184.321 376.191 183.531C376.13 183.172 376.076 182.811 376.012 182.453C375.861 181.597 375.696 180.747 375.53 179.897C375.474 179.611 375.423 179.322 375.365 179.036C375.179 178.12 374.981 177.208 374.778 176.298C374.73 176.084 374.687 175.869 374.638 175.656C374.415 174.678 374.179 173.706 373.936 172.736C373.901 172.595 373.869 172.454 373.833 172.313C373.566 171.263 373.287 170.217 372.997 169.176C372.982 169.122 372.968 169.069 372.953 169.015C356.561 110.441 303.447 67.2497 240 65.6387Z" fill="#C8B2A8"/>
<path d="M392.727 454.545H87.272V476.363H392.727V454.545Z" fill="#A08A8A"/>
<path d="M72.727 454.545H0V476.363H72.727V454.545Z" fill="#A08A8A"/>
<path d="M480 454.545H407.272V476.363H480V454.545Z" fill="#695A69"/>
<path d="M407.272 454.545H392.727V476.363H407.272V454.545Z" fill="#C8B2A8"/>
<path d="M87.272 454.545H72.727V476.363H87.272V454.545Z" fill="#C8B2A8"/>
</svg>
