<svg width="60" height="60" viewBox="0 0 60 60" fill="none" xmlns="http://www.w3.org/2000/svg">
<g clip-path="url(#clip0_16_13997)">
<path d="M51.7454 4.23839C51.6362 4.22561 51.5704 4.22168 51.5704 4.22168L49.5057 7.00892L50.8999 8.40204L51.0729 8.3588L56.4734 7.00892C55.3143 5.50945 53.62 4.51663 51.7454 4.23839Z" fill="#FDA654"/>
<path d="M45.3273 1.43555C43.3452 1.43555 39.3713 1.66856 36.9705 7.00906H41.1508C41.1508 7.00906 42.6118 4.22182 45.3312 4.22182C47.1636 4.30464 48.9633 4.73573 50.6344 5.49205L51.5743 4.22182C51.5743 4.22182 51.6401 4.22182 51.7493 4.23854C50.9235 3.36193 49.9288 2.66164 48.8251 2.1799C47.7214 1.69817 46.5315 1.44496 45.3273 1.43555Z" fill="#B3B3B3"/>
<path d="M41.1469 7.00928H36.9666C35.6344 9.96857 31.3931 11.1897 31.3931 11.1897C31.3931 11.1897 38.3607 10.4907 38.3607 16.7632C39.6925 15.5618 40.6598 14.0103 41.1525 12.2858C41.6451 10.5612 41.6432 8.73284 41.1469 7.00928Z" fill="#BE8A66"/>
<path d="M51.0749 8.3588L50.9018 8.40204L49.5077 7.00892L50.6305 5.49191C48.9595 4.73559 47.1597 4.3045 45.3273 4.22168C42.6079 4.22168 41.147 7.00892 41.147 7.00892C42.4131 6.96775 43.6554 7.35952 44.6688 8.11953C45.6823 8.87953 46.4063 9.96236 46.7215 11.1893V15.3697H43.9303C45.9098 17.0357 47.3245 19.274 47.9799 21.7769C49.1039 18.8465 49.6223 15.7187 49.5038 12.5824C49.5803 11.0464 50.129 9.57145 51.0749 8.3588Z" fill="#333333"/>
<path d="M15.8907 36.2707C15.7305 36.5271 15.6584 36.8288 15.6855 37.1299C15.7126 37.4311 15.8373 37.7151 16.0406 37.9388C16.244 38.1625 16.5149 38.3137 16.812 38.3693C17.1092 38.4249 17.4164 38.3819 17.6869 38.2468L22.6115 35.784C21.6863 35.1717 20.8839 34.3913 20.2461 33.4835V32.0903L17.7125 33.3566L15.8907 36.2707Z" fill="#B3B3B3"/>
<path d="M20.2461 32.8296C20.0799 32.8299 19.9185 32.7739 19.7881 32.6709C19.6576 32.5678 19.5658 32.4237 19.5276 32.2619C19.4894 32.1002 19.5069 31.9302 19.5773 31.7797C19.6478 31.6292 19.7671 31.5068 19.9158 31.4326L21.4357 30.6726C21.6107 30.5851 21.8132 30.5707 21.9988 30.6326C22.1844 30.6944 22.3378 30.8275 22.4253 31.0025C22.5128 31.1774 22.5272 31.38 22.4653 31.5655C22.4034 31.7511 22.2704 31.9045 22.0954 31.992L20.5755 32.752C20.4731 32.8028 20.3604 32.8293 20.2461 32.8296Z" fill="#7A7A7A"/>
<path d="M15.9919 34.2177L0.737305 52.9959C1.8116 52.9569 2.86504 52.6879 3.82652 52.2071C4.788 51.7263 5.63516 51.0448 6.31081 50.2087L17.6869 38.2506C17.4164 38.3856 17.1092 38.4286 16.812 38.373C16.5149 38.3174 16.244 38.1663 16.0406 37.9425C15.8373 37.7188 15.7126 37.4348 15.6855 37.1337C15.6584 36.8325 15.7305 36.5308 15.8907 36.2744L17.7125 33.3604L15.9919 34.2177Z" fill="#BE8A66"/>
<path d="M31.393 11.1892C26.0044 11.1892 11.8853 36.2715 11.8853 36.2715L15.9919 34.2177L17.7124 33.3574L20.246 32.0911L21.766 31.3311L23.0323 30.697C23.0323 30.697 38.3606 23.0353 38.3606 16.7627C38.3606 10.4902 31.393 11.1892 31.393 11.1892Z" fill="#985C4C"/>
<path d="M43.9302 15.37H46.7175V11.1897C46.4023 9.96273 45.6783 8.87991 44.6648 8.1199C43.6514 7.3599 42.4091 6.96813 41.143 7.00929C41.6392 8.73285 41.6411 10.5612 41.1485 12.2858C40.6559 14.0104 39.6885 15.5618 38.3567 16.7632C38.3567 23.0357 23.0283 30.6974 23.0283 30.6974L21.762 31.3316L20.2421 32.0915V33.4847C20.8799 34.3926 21.6823 35.1729 22.6075 35.7853C24.404 36.9338 26.4742 37.5826 28.6048 37.6651H29.9989V36.2709C41.1548 32.7739 45.9358 26.8887 47.9828 21.7763C47.3264 19.2734 45.9106 17.0354 43.9302 15.37Z" fill="#E5E5E5"/>
<path d="M59.2625 20.9434L21.6392 58.5667H27.2166L59.2675 26.5159L59.2625 20.9434Z" fill="#FDA654"/>
<path d="M38.3607 48.1561C38.1651 48.1561 37.9776 48.0784 37.8393 47.9401C37.701 47.8019 37.6233 47.6143 37.6233 47.4188C37.6233 45.6629 35.7101 45.3905 35.4918 45.3649C35.2989 45.3413 35.1226 45.2436 35.0003 45.0926L29.4268 38.126C29.3046 37.9732 29.2481 37.7781 29.2698 37.5837C29.2915 37.3893 29.3895 37.2114 29.5423 37.0893C29.6951 36.9671 29.8901 36.9106 30.0846 36.9323C30.279 36.9539 30.4568 37.052 30.579 37.2048L35.9726 43.9472C36.8232 44.0557 37.6067 44.4657 38.1807 45.1027C38.7548 45.7397 39.0813 46.5615 39.101 47.4188C39.101 47.5159 39.0818 47.612 39.0446 47.7016C39.0074 47.7913 38.9528 47.8727 38.884 47.9412C38.8152 48.0097 38.7336 48.064 38.6438 48.1008C38.554 48.1377 38.4578 48.1565 38.3607 48.1561Z" fill="#7A7A7A"/>
<path d="M35.5734 45.3697C35.4229 45.3698 35.276 45.3238 35.1524 45.2379C35.0288 45.152 34.9345 45.0304 34.882 44.8893C34.8296 44.7483 34.8216 44.5945 34.859 44.4488C34.8965 44.303 34.9777 44.1722 35.0917 44.0739C36.3157 43.0171 39.2671 41.6672 41.6729 44.1152C41.7424 44.1839 41.7976 44.2658 41.8352 44.356C41.8728 44.4463 41.8921 44.5431 41.892 44.6408C41.8918 44.7386 41.8722 44.8353 41.8344 44.9254C41.7965 45.0156 41.7411 45.0973 41.6713 45.1658C41.6016 45.2343 41.5189 45.2882 41.4281 45.3245C41.3373 45.3607 41.2403 45.3786 41.1425 45.377C41.0448 45.3754 40.9483 45.3543 40.8588 45.3151C40.7692 45.2759 40.6884 45.2193 40.6209 45.1485C38.572 43.0623 36.1574 45.1023 36.0552 45.1898C35.9216 45.306 35.7505 45.37 35.5734 45.3697Z" fill="#7A7A7A"/>
<path d="M48.1146 38.4024C47.9191 38.4024 47.7315 38.3247 47.5932 38.1864C47.4549 38.0482 47.3773 37.8606 47.3773 37.665C47.3773 35.859 45.3362 35.6211 45.2497 35.6112C45.0821 35.5937 44.9255 35.5191 44.8063 35.3999L40.6259 31.2195C40.4875 31.0811 40.4096 30.8935 40.4095 30.6978C40.4095 30.5021 40.4871 30.3143 40.6254 30.1759C40.7638 30.0374 40.9514 29.9596 41.1471 29.9595C41.3429 29.9594 41.5306 30.0371 41.6691 30.1754L45.6764 34.1837C46.5361 34.2841 47.3308 34.6914 47.9142 35.3308C48.4976 35.9702 48.8306 36.7987 48.852 37.664C48.8521 37.761 48.8331 37.857 48.7961 37.9465C48.7591 38.0361 48.7049 38.1175 48.6364 38.1861C48.5679 38.2547 48.4866 38.3091 48.397 38.3462C48.3075 38.3833 48.2115 38.4024 48.1146 38.4024Z" fill="#7A7A7A"/>
<path d="M45.3273 35.6158C45.1768 35.6158 45.0299 35.5698 44.9063 35.4839C44.7827 35.3981 44.6884 35.2764 44.6359 35.1354C44.5835 34.9943 44.5755 34.8405 44.6129 34.6948C44.6504 34.549 44.7316 34.4182 44.8456 34.3199C46.0706 33.2631 49.022 31.9122 51.4278 34.3613C51.4973 34.43 51.5525 34.5118 51.5901 34.602C51.6277 34.6923 51.647 34.7891 51.6469 34.8869C51.6467 34.9846 51.6271 35.0814 51.5892 35.1715C51.5514 35.2616 51.4959 35.3433 51.4262 35.4118C51.3565 35.4803 51.2738 35.5342 51.183 35.5705C51.0922 35.6068 50.9951 35.6246 50.8974 35.623C50.7997 35.6214 50.7032 35.6004 50.6137 35.5612C50.5241 35.5219 50.4433 35.4653 50.3758 35.3946C48.3259 33.3073 45.9113 35.3483 45.8091 35.4358C45.6754 35.5518 45.5043 35.6157 45.3273 35.6158Z" fill="#7A7A7A"/>
<path d="M58.7405 25.9958L50.8655 33.8709C50.1244 33.2863 49.205 32.9739 48.2611 32.9861L59.7837 21.4625C59.8541 21.3945 59.9102 21.3131 59.9488 21.2231C59.9874 21.1331 60.0077 21.0363 60.0085 20.9384C60.0093 20.8405 59.9906 20.7434 59.9535 20.6528C59.9164 20.5622 59.8616 20.4799 59.7923 20.4107C59.723 20.3415 59.6407 20.2868 59.5501 20.2498C59.4594 20.2127 59.3623 20.1942 59.2644 20.195C59.1665 20.1959 59.0698 20.2163 58.9798 20.255C58.8899 20.2937 58.8085 20.3499 58.7405 20.4204L45.3274 33.8355L42.2462 30.7543C45.084 28.439 47.2927 25.4459 48.6681 22.0514C49.8032 19.1263 50.3398 16.0031 50.2461 12.8668V12.5826C50.3075 11.2874 50.7569 10.0405 51.536 9.00395L56.6553 7.72586C56.7755 7.69571 56.8862 7.63573 56.9771 7.55148C57.068 7.46722 57.1362 7.36142 57.1754 7.24382C57.2146 7.12622 57.2236 7.00063 57.2014 6.87868C57.1792 6.75672 57.1266 6.64232 57.0485 6.54606C55.8243 4.97584 54.067 3.9087 52.1092 3.54646C50.3006 1.75619 47.8699 0.734582 45.3254 0.695312C43.7602 0.695312 38.9978 0.695305 36.2922 6.70337C35.1714 9.19567 31.573 10.3587 31.222 10.4669C25.4814 10.8995 12.6935 33.3262 11.2404 35.907C11.1628 36.0446 11.1315 36.2034 11.151 36.3601C11.1705 36.5168 11.2398 36.6631 11.3486 36.7775C11.4575 36.8919 11.6002 36.9683 11.7558 36.9955C11.9113 37.0227 12.0715 36.9992 12.2127 36.9285L13.2618 36.4035L0.16318 52.5273C0.0752826 52.6354 0.019836 52.7663 0.0032727 52.9047C-0.0132906 53.0431 0.00970649 53.1833 0.0695955 53.3092C0.129484 53.435 0.223813 53.5413 0.341649 53.6157C0.459485 53.6902 0.596001 53.7296 0.735373 53.7296C1.91719 53.6938 3.07728 53.4028 4.13617 52.8768C5.19506 52.3507 6.12772 51.602 6.87026 50.6819L18.1303 38.8447L22.5693 36.6247C24.4019 37.7084 26.4763 38.3167 28.6039 38.3944H29.6441L34.5834 44.5696L21.1142 58.0388C21.0438 58.1069 20.9877 58.1883 20.9491 58.2782C20.9105 58.3682 20.8902 58.465 20.8894 58.5629C20.8886 58.6608 20.9073 58.7579 20.9444 58.8485C20.9815 58.9391 21.0363 59.0214 21.1056 59.0906C21.1748 59.1598 21.2572 59.2145 21.3478 59.2516C21.4385 59.2886 21.5356 59.3072 21.6335 59.3063C21.7314 59.3054 21.8281 59.285 21.9181 59.2463C22.008 59.2076 22.0894 59.1514 22.1573 59.081L35.8173 45.421C36.2548 45.4887 36.6604 45.691 36.9776 45.9999C37.2947 46.3088 37.5078 46.7089 37.587 47.1445L26.6917 58.0457C26.6192 58.1132 26.5611 58.1946 26.5208 58.2851C26.4805 58.3755 26.4588 58.4732 26.4571 58.5722C26.4553 58.6712 26.4735 58.7695 26.5106 58.8613C26.5477 58.9531 26.6029 59.0366 26.6729 59.1066C26.743 59.1766 26.8264 59.2318 26.9182 59.2689C27.01 59.306 27.1083 59.3242 27.2073 59.3224C27.3064 59.3207 27.404 59.299 27.4944 59.2587C27.5849 59.2184 27.6663 59.1603 27.7338 59.0879L38.8818 47.9408L48.6357 38.1879L51.418 35.4066L59.7827 27.0419C59.921 26.9036 59.9987 26.716 59.9987 26.5204C59.9987 26.3247 59.921 26.1371 59.7827 25.9988C59.6444 25.8605 59.4567 25.7828 59.2611 25.7828C59.0655 25.7828 58.8779 25.8605 58.7396 25.9988L58.7405 25.9958ZM49.8056 34.9317L48.5374 36.2C48.2203 35.5582 47.7091 35.0326 47.0764 34.6977C47.5153 34.5087 47.9942 34.4311 48.4704 34.472C48.9466 34.5128 49.4053 34.6707 49.8056 34.9317ZM41.1116 43.6248C40.3696 43.0411 39.4502 42.7289 38.5062 42.74L45.5751 35.6711C46.0111 35.7418 46.4146 35.9455 46.7304 36.2544C47.0461 36.5632 47.2586 36.9622 47.3389 37.3965L41.1116 43.6248ZM48.7714 12.8717C48.8263 15.0938 48.5614 17.3122 47.9848 19.4588C47.9642 19.4146 47.9396 19.3753 47.919 19.331C47.7882 19.0567 47.6525 18.7923 47.508 18.5386C47.4893 18.5062 47.4726 18.4708 47.4539 18.4403C47.2888 18.1542 47.1157 17.8868 46.9407 17.6302C46.8906 17.5574 46.8424 17.4915 46.7923 17.4217C46.6586 17.233 46.5258 17.054 46.3921 16.883C46.343 16.82 46.2938 16.7571 46.2456 16.6971C46.0736 16.4858 45.9045 16.2842 45.7432 16.1072H46.7166C46.9121 16.1072 47.0997 16.0296 47.238 15.8913C47.3762 15.753 47.4539 15.5654 47.4539 15.3699V11.1895C47.4539 11.1363 47.448 11.0832 47.4362 11.0312C47.3943 10.8477 47.3414 10.6668 47.2779 10.4895C47.2681 10.463 47.2612 10.4384 47.2514 10.4108C47.1783 10.2141 47.0953 10.0211 47.0027 9.83276C46.985 9.79639 46.9682 9.76098 46.9486 9.7246C46.842 9.51633 46.7246 9.31387 46.5966 9.11802C46.576 9.08558 46.5524 9.05411 46.5298 9.0197C46.3828 8.80108 46.2222 8.59192 46.049 8.39343C46.0382 8.38065 46.0264 8.36884 46.0146 8.35704C45.831 8.15145 45.6339 7.95834 45.4247 7.77896C45.3991 7.75733 45.3765 7.7347 45.351 7.71308C45.1267 7.52818 44.8895 7.35963 44.6411 7.20872L44.5045 7.12615C44.2382 6.97422 43.9608 6.84273 43.6747 6.73286C43.6226 6.71221 43.5685 6.69354 43.5144 6.67486C43.1925 6.55792 42.8618 6.46685 42.5254 6.40252L42.4988 6.39466C42.5676 6.31699 42.6306 6.24031 42.7102 6.16165L42.724 6.14692C42.8657 6.00688 43.0157 5.87553 43.1733 5.75364C43.1988 5.73397 43.2234 5.71335 43.25 5.69369C43.4154 5.57089 43.5899 5.46077 43.772 5.36431C43.8064 5.34563 43.8418 5.32795 43.8772 5.31123C44.0736 5.21329 44.2791 5.13459 44.4907 5.07625C44.5222 5.0674 44.5556 5.06248 44.589 5.05461C44.6224 5.04675 44.6588 5.04775 44.6873 5.04087C44.5985 5.25218 44.5615 5.48165 44.5795 5.71016C44.5974 5.93867 44.6697 6.15958 44.7904 6.35446C44.911 6.54933 45.0766 6.71251 45.2731 6.8304C45.4697 6.94829 45.6916 7.01749 45.9203 7.03218C46.1491 7.04686 46.378 7.00662 46.5881 6.91483C46.7981 6.82304 46.9831 6.68235 47.1277 6.5045C47.2723 6.32666 47.3723 6.1168 47.4193 5.89246C47.4663 5.66812 47.4589 5.43582 47.3979 5.21489C47.4264 5.22177 47.4569 5.22472 47.4854 5.2316L47.6171 5.25912C47.9357 5.33482 48.2385 5.41938 48.5236 5.5059L48.7448 5.57568C48.969 5.64745 49.1803 5.71923 49.3701 5.78805C49.3996 5.79985 49.433 5.81066 49.4615 5.82147L48.906 6.57162C48.8011 6.71366 48.7507 6.88864 48.7638 7.06473C48.777 7.24082 48.8529 7.40634 48.9778 7.53119L50.0396 8.59299C49.2385 9.77252 48.7947 11.1582 48.7615 12.5836L48.7714 12.8717ZM46.0647 5.57274C46.0647 5.61797 45.9841 5.61797 45.9841 5.57274C45.9841 5.56205 45.9884 5.5518 45.9959 5.54424C46.0035 5.53668 46.0137 5.53245 46.0244 5.53245C46.0351 5.53245 46.0454 5.53668 46.0529 5.54424C46.0605 5.5518 46.0647 5.56205 46.0647 5.57274ZM51.128 7.58427L50.4791 6.93541L51.2233 5.92865L51.6874 5.30139L51.9066 5.00646C53.0907 5.23288 54.1887 5.78355 55.0783 6.59718L51.128 7.58427ZM45.3274 2.17104C47.2892 2.21296 49.1788 2.91896 50.6875 4.17371L50.3818 4.58665C50.312 4.55814 50.2284 4.52766 50.1517 4.49817L49.962 4.42541C49.782 4.35856 49.5903 4.29072 49.3839 4.2219L49.2855 4.18946C49.1096 4.13244 48.9267 4.07539 48.736 4.02033C48.6583 3.99772 48.5777 3.97709 48.498 3.95546C48.3407 3.91221 48.1824 3.87091 48.0173 3.83158L47.7371 3.76866C47.5749 3.73327 47.4117 3.70082 47.2455 3.67034C47.1472 3.65363 47.0489 3.63594 46.9505 3.62021C46.7716 3.59268 46.5907 3.57005 46.4078 3.55039C46.3203 3.54056 46.2338 3.52876 46.1444 3.52089C45.875 3.49828 45.6036 3.48255 45.3313 3.48255C45.0634 3.48453 44.7963 3.51019 44.533 3.55924C44.4779 3.56809 44.4229 3.57693 44.3688 3.58873C44.1323 3.63607 43.8999 3.70183 43.6737 3.78537C43.6373 3.79914 43.6029 3.81584 43.5675 3.83059C43.373 3.90931 43.1836 3.99994 43.0002 4.10194C42.9658 4.1216 42.9304 4.13833 42.897 4.15898C42.7095 4.26926 42.5286 4.39039 42.3553 4.52175L42.2462 4.60729C42.0869 4.73313 41.9355 4.86292 41.7969 4.99368L41.7752 5.01333C41.6297 5.15294 41.4999 5.29255 41.382 5.42921L41.3072 5.51376C41.1952 5.6455 41.0929 5.77133 41.0044 5.88931L40.97 5.9375C40.8884 6.04663 40.8186 6.14691 40.7586 6.23834L40.739 6.26589H38.1631C38.822 4.95435 39.8532 3.86641 41.1276 3.13835C42.402 2.41029 43.8629 2.07446 45.3274 2.17299V2.17104ZM37.4198 7.74455H40.5758C41.0601 9.99306 40.6662 12.3417 39.4746 14.3091C39.4107 14.4074 39.3488 14.5116 39.278 14.6129C39.2072 14.7141 39.1345 14.8095 39.0607 14.9078C39.0165 14.9648 38.9673 15.0219 38.9221 15.0789C38.9142 15.0415 38.8995 15.0081 38.8906 14.9707C38.8414 14.7659 38.7816 14.5638 38.7117 14.3651C38.693 14.312 38.6773 14.256 38.6567 14.2039C38.5664 13.9698 38.4603 13.7422 38.3391 13.5225C38.3086 13.4694 38.2752 13.4183 38.2408 13.3662C38.1403 13.199 38.0307 13.0376 37.9124 12.8825C37.8691 12.8255 37.8259 12.7685 37.7807 12.7144C37.6217 12.5196 37.4489 12.3366 37.2635 12.1668C37.0668 11.9915 36.8579 11.8305 36.6382 11.685C36.595 11.6555 36.5527 11.626 36.5094 11.5985C36.3026 11.4661 36.0883 11.346 35.8674 11.2387C35.8271 11.219 35.7878 11.2033 35.7485 11.1846C35.542 11.0896 35.3346 11.0054 35.1261 10.9319C35.0996 10.9221 35.074 10.9113 35.0475 10.9024C34.8233 10.8267 34.6011 10.7638 34.3819 10.7058C34.3603 10.7009 34.3386 10.692 34.318 10.6871C35.591 9.99466 36.6605 8.98081 37.4198 7.7465V7.74455ZM31.3931 11.9249C31.4173 11.9264 31.4416 11.9264 31.4659 11.9249H31.4777C31.5121 11.9249 31.6969 11.9082 31.9928 11.9082C32.8701 11.9018 33.7428 12.0346 34.5785 12.3015L34.6011 12.3093C34.9844 12.439 35.3513 12.6129 35.6944 12.8274L35.8045 12.8992C35.9718 13.009 36.1309 13.1309 36.2804 13.264C36.3985 13.383 36.5085 13.5098 36.6097 13.6435C36.7004 13.7372 36.7861 13.8356 36.8663 13.9384C36.9579 14.0895 37.0393 14.2465 37.1102 14.4084C37.1672 14.5234 37.2389 14.6256 37.2861 14.7475C37.3602 14.9624 37.419 15.1822 37.4621 15.4053C37.4847 15.5036 37.5211 15.5882 37.5388 15.6894C37.5965 16.0437 37.6247 16.4021 37.6234 16.7611C37.6212 17.0691 37.5803 17.3756 37.5014 17.6734C36.5822 21.2334 30.6607 25.458 26.1952 28.1126C25.9985 28.2276 25.8098 28.3397 25.622 28.4488C25.2454 28.668 24.8826 28.8735 24.5405 29.0653C23.8523 29.4497 23.226 29.777 22.7079 30.0366L19.9207 31.4297L17.3851 32.698L15.6656 33.5583L13.7406 34.5208C19.2757 25.0048 28.0376 11.9269 31.3931 11.9269V11.9249ZM5.777 49.6977C5.75736 49.7183 5.73898 49.7399 5.72194 49.7626C4.87577 50.7777 3.7676 51.5414 2.51783 51.9708L14.9695 36.6454C14.9695 36.669 14.9695 36.6926 14.9695 36.7152C14.9538 36.8265 14.9469 36.939 14.9488 37.0514C14.9488 37.0848 14.9488 37.1173 14.9488 37.1497C14.9584 37.2897 14.9817 37.4283 15.0187 37.5636C15.0265 37.5921 15.0383 37.6187 15.0472 37.6472C15.0827 37.7583 15.1278 37.8662 15.1819 37.9697C15.1996 38.0051 15.2182 38.0405 15.2389 38.0749C15.4182 38.396 15.6847 38.6599 16.0077 38.8358C16.0293 38.8486 16.0461 38.8703 16.0677 38.882L5.777 49.6977ZM17.3566 37.5882C17.23 37.6518 17.086 37.6722 16.9467 37.6463C16.8074 37.6204 16.6804 37.5496 16.5851 37.4447C16.4899 37.3398 16.4315 37.2067 16.419 37.0655C16.4065 36.9244 16.4406 36.783 16.516 36.6631L18.2277 33.925L19.5058 33.284V33.4806C19.506 33.6319 19.5527 33.7794 19.6395 33.9034C19.8439 34.1924 20.0649 34.4695 20.3012 34.7331C20.37 34.8118 20.4437 34.8865 20.5155 34.9622C20.6954 35.1529 20.8832 35.3358 21.0798 35.5128C21.129 35.557 21.1712 35.6111 21.2214 35.6514L17.3566 37.5882ZM29.2626 36.9275H28.6078C26.624 36.841 24.6976 36.2359 23.0206 35.1726C22.236 34.6519 21.5466 34.0005 20.9825 33.2466V32.5476L21.8958 32.0904L22.0925 31.9921L23.3597 31.358C23.3991 31.3383 23.4935 31.2911 23.636 31.2174C23.752 31.1584 23.9074 31.0768 24.0843 30.9834L24.2053 30.9195L24.4019 30.8212L24.5887 30.7228L24.8286 30.5921L25.0252 30.4859L25.3113 30.3266L25.5129 30.2155L25.8127 30.0454L26.0497 29.9108L26.3574 29.7328L26.6268 29.5765C26.7349 29.5136 26.847 29.4467 26.9581 29.3798L27.2344 29.2167L27.5804 28.9954L27.8754 28.8145L28.2224 28.5992C28.3286 28.5324 28.4348 28.4675 28.5429 28.4026C28.6511 28.3377 28.7828 28.2502 28.9028 28.1735L29.2292 27.9641L29.6028 27.7183C29.7119 27.6465 29.821 27.5758 29.9302 27.502C30.056 27.4175 30.1828 27.3319 30.3087 27.2454L30.6439 27.0173L31.0205 26.7529C31.1336 26.6732 31.2466 26.5946 31.3597 26.513C31.4727 26.4314 31.6114 26.3311 31.7372 26.2387C31.863 26.1463 31.9624 26.0745 32.0744 25.9909C32.1865 25.9073 32.3232 25.8031 32.447 25.7088C32.5709 25.6144 32.6722 25.5377 32.7843 25.4502L33.149 25.1621C33.2598 25.0736 33.3706 24.9848 33.4813 24.8957C33.6013 24.7974 33.7183 24.6991 33.8372 24.6007C33.9562 24.5024 34.0535 24.4198 34.1607 24.3274C34.2679 24.235 34.3917 24.1308 34.5058 24.0256C34.6198 23.9204 34.7162 23.8398 34.8194 23.7454C34.9226 23.651 35.0396 23.5419 35.1478 23.4396C35.2559 23.3374 35.3513 23.2489 35.4506 23.1516C35.5499 23.0542 35.658 22.9471 35.7603 22.8438C35.8625 22.7406 35.9569 22.6472 36.0493 22.5489C36.1417 22.4506 36.246 22.3424 36.3394 22.2382C36.4328 22.134 36.5212 22.0416 36.6087 21.9433C36.6962 21.8449 36.7887 21.7348 36.8752 21.6306C36.9617 21.5264 37.0453 21.4271 37.1259 21.3249C37.2065 21.2226 37.2891 21.1164 37.3677 21.0112C37.4464 20.906 37.5201 20.8058 37.5939 20.7035C37.6676 20.6013 37.7394 20.4921 37.8092 20.3869C37.879 20.2817 37.9439 20.1805 38.0058 20.0763C38.0677 19.972 38.1316 19.8668 38.1906 19.7616C38.2496 19.6564 38.3066 19.5512 38.3607 19.447C38.4148 19.3428 38.4649 19.2376 38.5131 19.1334C38.5613 19.0292 38.6114 18.923 38.6517 18.8168C38.692 18.7107 38.7333 18.6094 38.7697 18.5062C38.8061 18.4029 38.8405 18.2938 38.868 18.1876C38.8956 18.0814 38.9251 17.9821 38.9496 17.8789C38.9742 17.7757 38.9949 17.6665 39.0126 17.5613C39.0303 17.4561 39.045 17.3578 39.0558 17.2566C39.0558 17.2064 39.0725 17.1583 39.0765 17.1052C39.5363 16.6691 39.9562 16.1926 40.331 15.6816C40.388 15.6039 40.4401 15.5272 40.4942 15.4495C40.6318 15.2529 40.7606 15.0563 40.8786 14.8518C40.9228 14.7771 40.969 14.7033 41.0103 14.6286C41.1578 14.3631 41.2935 14.0987 41.4105 13.8352L41.4301 13.785C41.5393 13.5353 41.6327 13.2866 41.7162 13.0408C41.7428 12.9621 41.7664 12.8855 41.79 12.8088C41.8516 12.6122 41.906 12.4175 41.9532 12.2248C41.9699 12.1559 41.9886 12.0871 42.0043 12.0193C42.0603 11.7666 42.1026 11.5179 42.1429 11.276C42.1429 11.2485 42.1488 11.2229 42.1528 11.1964C42.1832 10.9781 42.2049 10.7648 42.2206 10.5554C42.2255 10.4865 42.2294 10.4197 42.2334 10.3519C42.2432 10.1778 42.2491 10.0078 42.2511 9.8426C42.2511 9.78656 42.2511 9.73051 42.2511 9.67546C42.2511 9.46408 42.2432 9.25958 42.2314 9.06491C42.2314 9.0364 42.2314 9.00987 42.2245 8.98135C42.2127 8.81422 42.199 8.65591 42.1813 8.50451C42.1754 8.45142 42.1695 8.40621 42.1626 8.35017C42.1469 8.21941 42.1292 8.0965 42.1095 7.97951C42.1036 7.94411 42.0987 7.90773 42.0928 7.87332L42.0869 7.83402L42.1704 7.84776C42.4693 7.89705 42.7631 7.97308 43.0484 8.07489C43.0877 8.08963 43.1251 8.10635 43.1634 8.12208C43.4211 8.22132 43.6692 8.34372 43.9047 8.4878C43.9205 8.49763 43.9342 8.50944 43.95 8.51927C44.1627 8.65517 44.3633 8.8091 44.5497 8.97937L44.5861 9.01085C44.7531 9.16712 44.9083 9.33571 45.0501 9.51521C45.0688 9.5388 45.0894 9.5614 45.1071 9.58499C45.2272 9.74045 45.3378 9.90299 45.4385 10.0717C45.4552 10.0982 45.4709 10.1257 45.4866 10.1513C45.5751 10.3066 45.6518 10.4551 45.7137 10.5908C45.7246 10.6134 45.7344 10.636 45.7442 10.6586C45.8022 10.7904 45.8514 10.9142 45.8868 11.0155L45.8996 11.0519C45.933 11.1502 45.9595 11.2357 45.9733 11.2878V14.6404H43.9303C43.7775 14.6404 43.6284 14.6879 43.5038 14.7764C43.3791 14.8648 43.285 14.9898 43.2345 15.134C43.184 15.2782 43.1795 15.4346 43.2217 15.5815C43.2639 15.7284 43.3508 15.8585 43.4702 15.9539L43.5557 16.0266L43.6098 16.0719L43.658 16.1151L43.7641 16.2134L43.8448 16.2891C43.8831 16.3245 43.9205 16.3589 43.9637 16.4012C44.007 16.4435 44.0325 16.4691 44.062 16.4995L44.1997 16.6342L44.3177 16.7571C44.3678 16.8092 44.416 16.8554 44.4691 16.9164C44.5222 16.9773 44.5546 17.0147 44.5979 17.057C44.6529 17.1189 44.708 17.1789 44.766 17.2448C44.8092 17.2949 44.8545 17.349 44.8987 17.4021C44.9577 17.4709 45.0157 17.5387 45.0757 17.6115C45.1229 17.6695 45.174 17.7324 45.2182 17.7934C45.2625 17.8543 45.3362 17.9418 45.3952 18.0205C45.4424 18.0844 45.4935 18.1522 45.5378 18.2171C45.5967 18.2987 45.6557 18.3803 45.7147 18.4649C45.7737 18.5494 45.813 18.6104 45.8583 18.6831C45.9035 18.7559 45.9713 18.8571 46.0274 18.9476C46.0834 19.038 46.1198 19.1039 46.166 19.1816C46.2201 19.2799 46.2741 19.3674 46.3262 19.4637C46.3783 19.5601 46.4128 19.6299 46.456 19.7145C46.4993 19.799 46.5543 19.9111 46.6035 20.0094C46.6527 20.1077 46.6821 20.1864 46.7205 20.2758C46.7588 20.3653 46.809 20.4813 46.8503 20.5865C46.8916 20.6917 46.9191 20.7743 46.9486 20.8687C46.9781 20.9631 47.0233 21.083 47.0567 21.1921C47.0902 21.3013 47.1118 21.3888 47.1383 21.4871C47.159 21.5657 47.1786 21.6444 47.1973 21.724C44.5497 28.1145 38.6871 32.7757 29.766 35.5718C29.6163 35.619 29.4856 35.7127 29.3927 35.8393C29.2999 35.9659 29.2499 36.1187 29.2498 36.2757L29.2626 36.9275ZM30.7373 37.4063V36.8105C34.4398 35.6678 37.9327 33.9327 41.0801 31.6726L44.2852 34.8777L35.6334 43.5294L30.7373 37.4063ZM37.3245 44.4526C37.7632 44.2636 38.2419 44.186 38.7179 44.2266C39.1938 44.2673 39.6524 44.425 40.0527 44.6856L38.7864 45.9519C38.4683 45.3106 37.956 44.786 37.3225 44.4526H37.3245Z" fill="#1A1A1A"/>
</g>
<defs>
<clipPath id="clip0_16_13997">
<rect width="60" height="60" fill="white"/>
</clipPath>
</defs>
</svg>
