<svg width="60" height="60" viewBox="0 0 60 60" fill="none" xmlns="http://www.w3.org/2000/svg">
<path d="M29.9999 13.3333C20.7949 13.3333 13.3333 20.7949 13.3333 29.9999C13.3333 39.2049 20.7949 46.6666 29.9999 46.6666C39.2049 46.6666 46.6666 39.2049 46.6666 29.9999C46.6666 20.7949 39.2049 13.3333 29.9999 13.3333ZM29.9999 39.9999C27.3478 39.9999 24.8042 38.9464 22.9289 37.071C21.0535 35.1956 19.9999 32.6521 19.9999 29.9999C19.9999 27.3478 21.0535 24.8042 22.9289 22.9289C24.8042 21.0535 27.3478 19.9999 29.9999 19.9999C32.6521 19.9999 35.1956 21.0535 37.071 22.9289C38.9464 24.8042 39.9999 27.3478 39.9999 29.9999C39.9999 32.6521 38.9464 35.1956 37.071 37.071C35.1956 38.9464 32.6521 39.9999 29.9999 39.9999Z" fill="#FFAC33"/>
<path d="M30.0001 11.6667C31.841 11.6667 33.3334 10.1743 33.3334 8.33333C33.3334 6.49238 31.841 5 30.0001 5C28.1591 5 26.6667 6.49238 26.6667 8.33333C26.6667 10.1743 28.1591 11.6667 30.0001 11.6667Z" fill="#FFAC33"/>
<path d="M30.0001 54.9999C31.841 54.9999 33.3334 53.5075 33.3334 51.6666C33.3334 49.8256 31.841 48.3333 30.0001 48.3333C28.1591 48.3333 26.6667 49.8256 26.6667 51.6666C26.6667 53.5075 28.1591 54.9999 30.0001 54.9999Z" fill="#FFAC33"/>
<path d="M17.0366 12.3233C16.7291 12.0049 16.3613 11.751 15.9546 11.5763C15.548 11.4016 15.1106 11.3096 14.668 11.3058C14.2254 11.3019 13.7864 11.3863 13.3768 11.5539C12.9671 11.7215 12.595 11.969 12.282 12.282C11.969 12.595 11.7215 12.9671 11.5539 13.3768C11.3863 13.7864 11.3019 14.2254 11.3058 14.668C11.3096 15.1106 11.4016 15.548 11.5763 15.9546C11.751 16.3613 12.0049 16.7291 12.3233 17.0366C12.952 17.6438 13.794 17.9798 14.668 17.9722C15.542 17.9646 16.378 17.614 16.996 16.996C17.614 16.378 17.9646 15.542 17.9722 14.668C17.9798 13.794 17.6438 12.952 17.0366 12.3233ZM47.6766 42.9633C47.995 43.2708 48.2489 43.6386 48.4236 44.0453C48.5983 44.452 48.6903 44.8894 48.6941 45.332C48.698 45.7745 48.6136 46.2135 48.446 46.6231C48.2784 47.0328 48.0309 47.405 47.7179 47.7179C47.405 48.0309 47.0328 48.2784 46.6231 48.446C46.2135 48.6136 45.7745 48.698 45.332 48.6941C44.8894 48.6903 44.452 48.5983 44.0453 48.4236C43.6386 48.2489 43.2708 47.995 42.9633 47.6766C42.3561 47.048 42.0201 46.2059 42.0277 45.332C42.0353 44.458 42.3859 43.6219 43.0039 43.0039C43.6219 42.3859 44.458 42.0353 45.332 42.0277C46.2059 42.0201 47.048 42.3561 47.6766 42.9633Z" fill="#FFAC33"/>
<path d="M8.33333 33.3334C10.1743 33.3334 11.6667 31.841 11.6667 30.0001C11.6667 28.1591 10.1743 26.6667 8.33333 26.6667C6.49238 26.6667 5 28.1591 5 30.0001C5 31.841 6.49238 33.3334 8.33333 33.3334Z" fill="#FFAC33"/>
<path d="M51.6666 33.3334C53.5075 33.3334 54.9999 31.841 54.9999 30.0001C54.9999 28.1591 53.5075 26.6667 51.6666 26.6667C49.8256 26.6667 48.3333 28.1591 48.3333 30.0001C48.3333 31.841 49.8256 33.3334 51.6666 33.3334Z" fill="#FFAC33"/>
<path d="M47.675 17.0366C48.3002 16.4111 48.6514 15.5629 48.6512 14.6785C48.6511 13.7941 48.2996 12.946 47.6741 12.3207C47.0487 11.6955 46.2004 11.3443 45.316 11.3445C44.4316 11.3446 43.5835 11.6961 42.9583 12.3216C42.333 12.947 41.9819 13.7953 41.982 14.6797C41.9822 15.5641 42.3337 16.4122 42.9591 17.0374C43.5846 17.6627 44.4328 18.0138 45.3172 18.0137C46.2016 18.0135 47.0497 17.662 47.675 17.0366ZM17.0366 47.6766C16.7291 47.9949 16.3613 48.2489 15.9546 48.4236C15.548 48.5983 15.1106 48.6902 14.668 48.6941C14.2254 48.6979 13.7864 48.6136 13.3768 48.446C12.9671 48.2784 12.595 48.0309 12.282 47.7179C11.969 47.4049 11.7215 47.0327 11.5539 46.6231C11.3863 46.2134 11.3019 45.7745 11.3058 45.3319C11.3096 44.8893 11.4016 44.4519 11.5763 44.0452C11.751 43.6385 12.0049 43.2707 12.3233 42.9632C12.952 42.356 13.794 42.0201 14.668 42.0277C15.542 42.0353 16.378 42.3858 16.996 43.0038C17.614 43.6219 17.9646 44.4579 17.9722 45.3319C17.9798 46.2059 17.6438 47.0479 17.0366 47.6766Z" fill="#FFAC33"/>
</svg>
