<svg width="61" height="60" viewBox="0 0 61 60" fill="none" xmlns="http://www.w3.org/2000/svg">
<path fill-rule="evenodd" clip-rule="evenodd" d="M32.321 21.3281C31.9007 21.3281 31.56 21.6703 31.56 22.0838V23.8505C31.5599 23.9251 31.5746 23.9989 31.6032 24.0678C31.6317 24.1367 31.6736 24.1993 31.7265 24.2519C31.7793 24.3046 31.842 24.3462 31.911 24.3746C31.9801 24.4029 32.054 24.4173 32.1286 24.417H48.8367C48.9112 24.4171 48.9851 24.4026 49.054 24.3743C49.1229 24.3459 49.1856 24.3042 49.2384 24.2516C49.2912 24.199 49.3331 24.1365 49.3618 24.0676C49.3904 23.9988 49.4052 23.925 49.4053 23.8505V21.8946C49.4053 21.82 49.3907 21.7462 49.3621 21.6773C49.3335 21.6084 49.2916 21.5458 49.2387 21.4932C49.1859 21.4405 49.1232 21.3988 49.0542 21.3705C48.9852 21.3422 48.9113 21.3278 48.8367 21.3281H32.321ZM32.1286 25.8759C32.054 25.8758 31.9802 25.8903 31.9112 25.9186C31.8423 25.947 31.7796 25.9887 31.7268 26.0413C31.674 26.0939 31.6321 26.1564 31.6035 26.2253C31.5748 26.2941 31.5601 26.3679 31.56 26.4424V28.3983C31.5599 28.4729 31.5746 28.5467 31.6032 28.6156C31.6317 28.6845 31.6736 28.7471 31.7265 28.7997C31.7793 28.8524 31.842 28.8941 31.911 28.9224C31.9801 28.9507 32.054 28.9651 32.1286 28.9648H48.8367C48.9112 28.965 48.9851 28.9504 49.054 28.9221C49.1229 28.8937 49.1856 28.852 49.2384 28.7994C49.2912 28.7468 49.3331 28.6843 49.3618 28.6154C49.3904 28.5466 49.4052 28.4728 49.4053 28.3983V26.4424C49.4053 26.3678 49.3907 26.294 49.3621 26.2251C49.3335 26.1562 49.2916 26.0936 49.2387 26.041C49.1859 25.9883 49.1232 25.9467 49.0542 25.9183C48.9852 25.89 48.9113 25.8756 48.8367 25.8759H32.1286ZM32.1286 30.803C32.054 30.8028 31.9802 30.8173 31.9112 30.8457C31.8423 30.8741 31.7796 30.9157 31.7268 30.9684C31.674 31.021 31.6321 31.0835 31.6035 31.1523C31.5748 31.2211 31.5601 31.2949 31.56 31.3695V33.3251C31.5599 33.3997 31.5746 33.4735 31.6032 33.5424C31.6317 33.6113 31.6736 33.6739 31.7265 33.7265C31.7793 33.7792 31.842 33.8209 31.911 33.8492C31.9801 33.8775 32.054 33.8919 32.1286 33.8916H48.8367C48.9112 33.8918 48.9851 33.8772 49.054 33.8489C49.1229 33.8205 49.1856 33.7788 49.2384 33.7262C49.2912 33.6736 49.3331 33.6111 49.3618 33.5422C49.3904 33.4734 49.4052 33.3996 49.4053 33.3251V31.3695C49.4053 31.2949 49.3907 31.221 49.3621 31.1521C49.3335 31.0832 49.2916 31.0207 49.2387 30.968C49.1859 30.9154 49.1232 30.8737 49.0542 30.8454C48.9852 30.817 48.9113 30.8026 48.8367 30.803H32.1286ZM32.1286 35.7298C32.054 35.7296 31.9802 35.7441 31.9112 35.7725C31.8423 35.8009 31.7796 35.8425 31.7268 35.8952C31.674 35.9478 31.6321 36.0103 31.6035 36.0791C31.5748 36.1479 31.5601 36.2217 31.56 36.2963V38.2519C31.5599 38.3265 31.5745 38.4004 31.6031 38.4693C31.6317 38.5382 31.6736 38.6008 31.7264 38.6535C31.7792 38.7062 31.842 38.7479 31.911 38.7762C31.98 38.8045 32.0539 38.8189 32.1286 38.8186H48.8367C48.9112 38.8188 48.9851 38.8043 49.0541 38.7759C49.123 38.7475 49.1857 38.7058 49.2385 38.6531C49.2913 38.6005 49.3332 38.538 49.3618 38.4691C49.3904 38.4003 49.4052 38.3264 49.4053 38.2519V36.2963C49.4053 36.2217 49.3907 36.1478 49.3621 36.0789C49.3335 36.01 49.2916 35.9474 49.2387 35.8948C49.1859 35.8422 49.1232 35.8005 49.0542 35.7722C48.9852 35.7438 48.9113 35.7294 48.8367 35.7298H32.1286ZM27.0037 38.5732C27.0037 38.6478 27.0183 38.7216 27.0469 38.7904C27.0754 38.8593 27.1172 38.9219 27.1699 38.9746C27.2226 39.0273 27.2852 39.0691 27.3541 39.0976C27.423 39.1261 27.4968 39.1407 27.5714 39.1406H29.5307C29.6053 39.1408 29.6792 39.1263 29.7481 39.0978C29.817 39.0694 29.8797 39.0276 29.9324 38.9748C29.9851 38.9221 30.0269 38.8595 30.0554 38.7906C30.0838 38.7216 30.0984 38.6478 30.0982 38.5732V21.8953C30.0982 21.8208 30.0835 21.747 30.0549 21.6782C30.0264 21.6093 29.9846 21.5468 29.9319 21.4941C29.8792 21.4414 29.8166 21.3996 29.7477 21.3712C29.6788 21.3427 29.605 21.3281 29.5305 21.3281H27.5711C27.4966 21.3279 27.4227 21.3425 27.3538 21.3709C27.2848 21.3994 27.2222 21.4412 27.1695 21.4939C27.1168 21.5466 27.075 21.6093 27.0465 21.6782C27.0181 21.7471 27.0035 21.821 27.0037 21.8956V38.5732ZM16.7522 38.5732C16.7521 38.6478 16.7668 38.7216 16.7953 38.7904C16.8238 38.8593 16.8656 38.9219 16.9184 38.9746C16.9711 39.0273 17.0337 39.0691 17.1026 39.0976C17.1714 39.1261 17.2453 39.1407 17.3198 39.1406H19.2792C19.3537 39.1408 19.4276 39.1263 19.4965 39.0978C19.5655 39.0694 19.6281 39.0276 19.6808 38.9748C19.7335 38.9221 19.7753 38.8595 19.8038 38.7906C19.8322 38.7216 19.8468 38.6478 19.8466 38.5732V21.8953C19.8466 21.8208 19.8319 21.747 19.8034 21.6782C19.7749 21.6093 19.733 21.5468 19.6803 21.4941C19.6276 21.4414 19.565 21.3996 19.4961 21.3712C19.4273 21.3427 19.3535 21.3281 19.2789 21.3281H17.3196C17.245 21.3279 17.1711 21.3425 17.1022 21.3709C17.0333 21.3994 16.9707 21.4412 16.9179 21.4939C16.8652 21.5466 16.8234 21.6093 16.795 21.6782C16.7665 21.7471 16.752 21.821 16.7522 21.8956V38.5732ZM14.531 38.5732C14.531 38.6478 14.5163 38.7216 14.4878 38.7904C14.4593 38.8593 14.4175 38.9219 14.3648 38.9746C14.312 39.0273 14.2495 39.0691 14.1806 39.0976C14.1117 39.1261 14.0379 39.1407 13.9633 39.1406H12.0039C11.9294 39.1408 11.8555 39.1263 11.7866 39.0978C11.7177 39.0694 11.655 39.0276 11.6023 38.9748C11.5496 38.9221 11.5078 38.8595 11.4793 38.7906C11.4509 38.7216 11.4363 38.6478 11.4365 38.5732V21.8953C11.4365 21.8208 11.4512 21.747 11.4797 21.6782C11.5083 21.6093 11.5501 21.5468 11.6028 21.4941C11.6555 21.4414 11.7181 21.3996 11.787 21.3712C11.8559 21.3427 11.9297 21.3281 12.0042 21.3281H13.9636C14.0381 21.3279 14.112 21.3425 14.1809 21.3709C14.2498 21.3994 14.3125 21.4412 14.3652 21.4939C14.4179 21.5466 14.4597 21.6093 14.4882 21.6782C14.5166 21.7471 14.5312 21.821 14.531 21.8956V38.5732ZM21.6881 38.5732C21.6881 38.6478 21.7027 38.7216 21.7312 38.7904C21.7598 38.8593 21.8016 38.9219 21.8543 38.9746C21.907 39.0273 21.9696 39.0691 22.0385 39.0976C22.1074 39.1261 22.1812 39.1407 22.2557 39.1406H24.2151C24.2897 39.1408 24.3636 39.1263 24.4325 39.0978C24.5014 39.0694 24.564 39.0276 24.6168 38.9748C24.6695 38.9221 24.7113 38.8595 24.7397 38.7906C24.7682 38.7216 24.7827 38.6478 24.7825 38.5732V21.8953C24.7825 21.8208 24.7679 21.747 24.7393 21.6782C24.7108 21.6093 24.669 21.5468 24.6162 21.4941C24.5635 21.4414 24.501 21.3996 24.4321 21.3712C24.3632 21.3427 24.2894 21.3281 24.2149 21.3281H22.2555C22.1809 21.3279 22.1071 21.3425 22.0381 21.3709C21.9692 21.3994 21.9066 21.4412 21.8539 21.4939C21.8011 21.5466 21.7594 21.6093 21.7309 21.6782C21.7025 21.7471 21.6879 21.821 21.6881 21.8956V38.5732Z" fill="black"/>
</svg>
