<svg width="60" height="60" viewBox="0 0 60 60" fill="none" xmlns="http://www.w3.org/2000/svg">
<path d="M12.6316 30C12.6316 32.2809 13.0808 34.5394 13.9537 36.6466C14.8265 38.7539 16.1059 40.6685 17.7187 42.2813C19.3315 43.8941 21.2462 45.1735 23.3534 46.0463C25.4606 46.9192 27.7191 47.3684 30 47.3684C32.2809 47.3684 34.5394 46.9192 36.6466 46.0463C38.7538 45.1735 40.6685 43.8941 42.2813 42.2813C43.8941 40.6685 45.1735 38.7539 46.0463 36.6466C46.9192 34.5394 47.3684 32.2809 47.3684 30C47.3684 25.3936 45.5385 20.9759 42.2813 17.7187C39.0241 14.4615 34.6064 12.6316 30 12.6316C25.3936 12.6316 20.9759 14.4615 17.7187 17.7187C14.4615 20.9759 12.6316 25.3936 12.6316 30Z" fill="#D6B196"/>
<path d="M56.8421 30.0001C56.8421 43.1827 47.2816 54.1516 34.7368 56.3985V53.2074C45.5353 51.0064 53.6842 41.438 53.6842 30.0001C53.6842 16.9406 43.0595 6.31585 30 6.31585C16.9405 6.31585 6.31579 16.9406 6.31579 30.0001C6.31579 43.0595 16.9405 53.6843 30 53.6843C30.5321 53.6843 31.0547 53.6401 31.579 53.6037V56.7616C31.0532 56.7932 30.5321 56.8422 30 56.8422C15.199 56.8422 3.1579 44.8011 3.1579 30.0001C3.1579 15.199 15.199 3.15796 30 3.15796C44.8011 3.15796 56.8421 15.199 56.8421 30.0001ZM34.8347 38.8122C36.8084 41.4222 39.2416 43.189 42.1437 44.1332L42.8132 44.3511L43.4226 43.999C45.7737 42.6411 47.3684 36.4785 47.3684 34.7369H44.2105C44.2105 36.0301 43.0895 39.4753 42.2353 40.8016C40.1953 39.9459 38.4537 38.5011 37.0058 36.458C39.8368 33.2195 42.4011 29.5832 44.0684 25.9169L41.1947 24.6111C39.8021 27.6727 37.6942 30.7469 35.3321 33.5559C33.9253 30.5716 32.9211 26.7632 32.3053 22.1069H41.0526V18.949H31.9595C31.6943 15.7977 31.5674 12.6362 31.579 9.47375H28.4211C28.4211 12.8843 28.5474 16.0406 28.8016 18.9474H18.9474V20.5264C18.9474 33.2148 18.1753 35.9685 13.0468 41.5643L15.3758 43.699C19.0863 39.6506 20.8137 36.769 21.57 31.579H28.4211V28.4211H21.8984C22.031 26.3184 22.0984 24.2122 22.1005 22.1053H29.1411C29.88 27.8622 31.1937 32.5043 33.09 36.0616C29.4584 39.9016 25.5868 42.9743 22.9358 44.3985L24.4311 47.1806C27.2195 45.6822 31.1163 42.6427 34.8347 38.8122ZM42.169 14.6732L37.4321 9.93638L35.1995 12.169L39.9363 16.9059L42.169 14.6732Z" fill="#231F20"/>
</svg>
