<svg width="60" height="61" viewBox="0 0 60 61" fill="none" xmlns="http://www.w3.org/2000/svg">
<path d="M29.6212 57.0674C43.879 57.0674 55.4372 45.5092 55.4372 31.2515C55.4372 16.9937 43.879 5.43555 29.6212 5.43555C15.3635 5.43555 3.8053 16.9937 3.8053 31.2515C3.8053 45.5092 15.3635 57.0674 29.6212 57.0674Z" fill="#AF8756"/>
<path d="M29.6821 53.3373C41.8631 53.3373 51.7378 43.4627 51.7378 31.2817C51.7378 19.1007 41.8631 9.22607 29.6821 9.22607C17.5012 9.22607 7.62653 19.1007 7.62653 31.2817C7.62653 43.4627 17.5012 53.3373 29.6821 53.3373Z" fill="#89643D"/>
<path d="M34.0022 30.3029C34.2921 30.3029 34.5272 30.0679 34.5272 29.7779C34.5272 29.488 34.2921 29.2529 34.0022 29.2529C33.7122 29.2529 33.4772 29.488 33.4772 29.7779C33.4772 30.0679 33.7122 30.3029 34.0022 30.3029Z" fill="#FFD7A3"/>
<path d="M12.7237 28.665C12.7237 28.665 11.7488 26.7843 13.1363 26.1431C14.5238 25.5018 14.7422 26.1637 14.7422 26.1637C14.7422 26.1637 13.0162 24.164 13.8647 22.9659C14.518 22.1206 15.2882 21.3725 16.1522 20.744C16.1522 20.744 14.9213 20.7825 15.7153 19.4193C16.5094 18.0562 18.5953 17.9193 18.5953 17.9193C18.471 17.7928 18.3837 17.6347 18.3427 17.4621C18.3017 17.2896 18.3085 17.1091 18.3626 16.9402C18.4166 16.7712 18.5157 16.6202 18.6493 16.5035C18.7828 16.3868 18.9457 16.3087 19.1203 16.2778C20.5622 15.8025 21.2681 17.4028 21.2681 17.4028C21.1205 17.2502 21.0064 17.0684 20.9332 16.869C20.86 16.6697 20.8293 16.4573 20.843 16.2454C20.8568 16.0335 20.9148 15.8268 21.0132 15.6387C21.1116 15.4505 21.2482 15.285 21.4144 15.1528C21.8308 14.8357 22.3295 14.6449 22.8511 14.6031C23.3728 14.5612 23.8955 14.67 24.3572 14.9165C24.3572 14.9165 24.7762 13.4943 25.4166 13.2825C26.0569 13.0706 28.5338 15.1912 28.5338 15.1912C29.0417 14.6148 29.7098 14.2026 30.4528 14.0071C31.4681 13.8553 31.9022 14.6306 31.6941 15.6168C32.1951 15.2495 32.7744 15.0029 33.3865 14.8964C33.9986 14.7898 34.6271 14.8263 35.2228 15.0028C36.2995 15.3352 37.2235 16.0384 37.8309 16.9875C38.0231 16.8375 38.243 16.7272 38.4781 16.6628C38.7132 16.5985 38.9587 16.5814 39.2004 16.6126C39.4421 16.6438 39.6752 16.7227 39.8862 16.8447C40.0973 16.9666 40.282 17.1292 40.4297 17.3231C41.2527 18.2845 41.9354 19.3577 42.4575 20.5106C42.4575 20.5106 47.8238 22.7784 48.2259 26.9587C48.6079 27.3227 48.9057 27.7658 49.0985 28.257C49.2912 28.7481 49.3741 29.2755 49.3416 29.8021C49.3416 29.8021 50.4206 31.1896 49.7053 32.2509C48.99 33.3121 49.3575 32.2743 49.3575 32.2743C49.3575 32.2743 50.0419 34.6181 49.0069 36.06C47.9719 37.5018 45.4059 37.799 45.4059 37.799C45.4059 37.799 47.4281 40.1596 46.6359 41.7975C46.5249 42.016 46.3703 42.2095 46.1817 42.3661C45.993 42.5227 45.7744 42.639 45.5391 42.7079C45.3039 42.7769 45.057 42.7969 44.8137 42.7669C44.5704 42.7369 44.3358 42.6574 44.1244 42.5334C44.1244 42.5334 44.7675 42.5971 44.1028 43.275C43.61 43.7288 43.0293 44.0766 42.3966 44.2968L41.5791 46.1259C41.5791 46.1259 41.5538 46.3134 40.5375 46.47C40.5375 46.47 40.8666 47.7375 38.3306 48.6656C38.0966 49.0138 37.7708 49.2904 37.3892 49.4648C37.0076 49.6392 36.5852 49.7046 36.1688 49.6537C36.1688 49.6537 35.1075 51.014 32.7478 50.324C32.7478 50.324 29.2303 52.5853 27.7397 49.6818C27.7397 49.6818 26.0878 50.8687 25.1962 49.5112C25.1962 49.5112 24.0713 50.1562 23.5903 49.4906C23.5903 49.4906 20.9653 49.3462 20.925 47.0662C20.925 47.0662 19.8619 48.1509 19.3978 46.7446C19.3978 46.7446 16.8047 47.2321 15.9825 44.2003L15.7819 42.2475C15.7819 42.2475 14.3934 42.614 14.3072 41.8162C14.2904 41.5905 14.3568 41.3664 14.4937 41.1861C14.6306 41.0059 14.8287 40.8819 15.0506 40.8375C15.0506 40.8375 12.5034 40.1175 13.4269 38.069L14.3334 37.5871C13.9047 37.21 13.5904 36.7201 13.4261 36.1732C13.2619 35.6263 13.2544 35.0444 13.4044 34.4934C13.4044 34.4934 10.125 31.8168 12.7237 28.665Z" fill="#FFE9CC"/>
<path d="M18.3065 28.4521C17.6831 28.664 17.1637 28.7812 16.8637 29.4384C16.6059 30.0009 16.6087 30.7237 17.4262 30.7152C17.1281 31.2449 16.4503 31.6621 16.4128 32.309C16.365 33.1218 17.0934 33.1584 17.5959 33.5165C17.0522 34.0002 16.0678 34.8955 16.0294 35.6727C16.0608 36.0025 16.1614 36.322 16.3247 36.6102C16.6997 37.1849 16.9575 36.9187 17.4497 37.198C17.1356 37.8974 16.5534 39.0965 16.9706 39.8671C17.43 40.7155 18.7144 40.364 19.245 39.899C19.5337 40.6574 19.9772 40.4024 20.5069 40.4755C21.39 40.5974 21.5803 40.7334 21.6731 39.7574C21.6853 39.6243 21.539 39.1668 21.5794 39.1012C21.7744 38.7749 22.7981 38.9305 23.1919 38.9137C23.7375 38.8921 24.9281 38.9802 25.3734 38.5237C25.8825 38.0005 25.3734 37.2796 25.5609 36.7743C25.8609 35.9399 27.4987 35.8724 28.1522 35.0708C28.8609 34.2018 29.0897 31.7221 27.4406 32.4027C27.809 31.7624 27.5344 30.9693 26.6681 31.1277C26.6334 29.2124 24.6712 29.8837 23.6465 30.4321C23.5337 29.581 23.1505 28.7887 22.5534 28.1718C22.0369 27.6909 21.5972 27.7321 21.0703 27.5418C20.82 27.3891 20.54 27.2916 20.249 27.2557C19.958 27.2199 19.6627 27.2464 19.3828 27.3337C18.9053 27.4289 18.4487 27.6089 18.0347 27.8652" fill="#FFF7ED"/>
<path d="M20.8481 43.0228C20.9728 43.6688 21.0178 44.2003 21.6281 44.5866C22.1522 44.9185 22.8666 45.0141 22.9697 44.2069C23.4544 44.5735 23.775 45.3028 24.4078 45.4256C25.2056 45.5831 25.3453 44.8631 25.7653 44.4178C26.1703 45.0225 26.9222 46.1194 27.6844 46.2638C28.016 46.2771 28.3468 46.2212 28.6556 46.0997C29.2762 45.8044 29.0475 45.5138 29.3916 45.0685C30.0422 45.4744 31.1494 46.215 31.9706 45.9066C32.8734 45.5672 32.7 44.2472 32.3119 43.6566C33.1031 43.4691 32.9109 43.0003 33.0553 42.4838C33.2962 41.626 33.4575 41.4525 32.5022 41.2313C32.3719 41.2013 31.8994 41.2838 31.8459 41.2378C31.5497 40.9997 31.8459 40.006 31.8806 39.615C31.9331 39.0713 32.1834 37.9041 31.7916 37.4006C31.3425 36.8241 30.5597 37.2291 30.0834 36.9797C29.2987 36.5691 29.4544 34.9369 28.7503 34.1813C27.9853 33.36 25.5628 32.791 26.0091 34.5216C25.425 34.0697 24.6028 34.2403 24.6412 35.1131C22.7391 34.8863 23.1366 36.9225 23.5406 38.0119C22.6818 38.0075 21.8444 38.2793 21.1519 38.7872C20.6053 39.2335 20.5894 39.6741 20.325 40.17C20.1403 40.3972 20.0059 40.661 19.9307 40.944C19.8556 41.227 19.8414 41.5227 19.8891 41.8116C19.9191 42.297 20.0352 42.7732 20.2322 43.2178" fill="#FFF7ED"/>
<path d="M35.6306 34.2367C35.7562 34.8826 35.8012 35.4142 36.4106 35.8005C36.9356 36.1323 37.65 36.228 37.7531 35.4208C38.2368 35.7873 38.5575 36.5167 39.1903 36.6395C39.989 36.797 40.1278 36.077 40.5478 35.6317C40.9537 36.2364 41.7056 37.3333 42.4668 37.4776C42.7988 37.491 43.1298 37.4351 43.439 37.3136C44.0587 37.0183 43.8309 36.7276 44.175 36.2823C44.8246 36.6883 45.9328 37.4289 46.7531 37.1205C47.6568 36.7811 47.4834 35.4611 47.0953 34.8705C47.8856 34.683 47.6934 34.2142 47.8378 33.6976C48.0787 32.8398 48.24 32.6664 47.2856 32.4451C47.1553 32.4151 46.6818 32.4976 46.6246 32.4517C46.3275 32.2136 46.6246 31.2198 46.6593 30.8289C46.7118 30.2851 46.9621 29.118 46.5656 28.6145C46.1165 28.038 45.3337 28.443 44.8575 28.1936C44.0718 27.783 44.2284 26.1508 43.5234 25.3951C42.7584 24.5739 40.3359 24.0048 40.7831 25.7355C40.199 25.2836 39.3768 25.4542 39.4153 26.327C37.5131 26.1001 37.9106 28.1364 38.3137 29.2258C37.4549 29.2215 36.6175 29.4933 35.925 30.0011C35.3784 30.4473 35.3625 30.888 35.099 31.3839C34.914 31.6109 34.7794 31.8747 34.7042 32.1577C34.6291 32.4408 34.615 32.7366 34.6631 33.0255C34.6928 33.5108 34.8086 33.987 35.0053 34.4317" fill="#FFF7ED"/>
<path d="M20.8125 35.0211C20.8125 35.0211 18.9263 34.198 19.4916 32.8208C19.5284 32.6544 19.612 32.502 19.7325 32.3814C19.853 32.2609 20.0054 32.1772 20.1718 32.1403C20.3382 32.1034 20.5116 32.1147 20.6718 32.173C20.832 32.2313 20.9722 32.3341 21.0759 32.4693C21.0437 32.3404 21.0401 32.2061 21.0655 32.0757C21.0908 31.9453 21.1446 31.8221 21.2228 31.7148C21.3011 31.6075 21.4019 31.5186 21.5183 31.4546C21.6347 31.3906 21.7637 31.3529 21.8963 31.3443C22.9434 31.1689 22.8113 32.5724 22.8113 32.5724C22.8113 32.5724 24.165 32.2911 24.1116 33.1639C24.0357 33.7463 23.7639 34.2855 23.3409 34.693C23.3409 34.693 24.9703 36.0261 23.9466 36.7883C23.6403 36.9938 23.2726 37.0874 22.9054 37.0532C22.5382 37.0191 22.194 36.8593 21.9309 36.6008C21.9309 36.6008 19.7344 37.1614 20.8125 35.0211Z" fill="white"/>
<path d="M26.834 40.5147C27.3208 40.3541 27.5909 39.8465 27.4374 39.3808C27.2838 38.9152 26.7646 38.6678 26.2778 38.8284C25.791 38.989 25.5209 39.4966 25.6745 39.9623C25.8281 40.4279 26.3473 40.6752 26.834 40.5147Z" fill="white"/>
<path d="M26.1918 41.6618C26.6786 41.5013 26.96 41.0279 26.8204 40.6045C26.6807 40.1812 26.1729 39.9681 25.6861 40.1287C25.1993 40.2893 24.9179 40.7626 25.0575 41.186C25.1972 41.6094 25.705 41.8224 26.1918 41.6618Z" fill="white"/>
<path d="M28.201 42.1474C28.8466 41.9345 29.2001 41.2468 28.9905 40.6115C28.781 39.9763 28.0877 39.6339 27.4421 39.8468C26.7965 40.0598 26.443 40.7474 26.6526 41.3827C26.8621 42.018 27.5553 42.3604 28.201 42.1474Z" fill="white"/>
<path d="M28.5642 40.1572C29.2098 39.9442 29.5633 39.2566 29.3537 38.6213C29.1442 37.986 28.451 37.6436 27.8053 37.8566C27.1597 38.0696 26.8062 38.7572 27.0158 39.3925C27.2253 40.0278 27.9186 40.3701 28.5642 40.1572Z" fill="white"/>
<path d="M25.9247 39.795C25.946 39.8612 25.954 39.9309 25.9483 40.0002C25.9427 40.0695 25.9234 40.1369 25.8916 40.1988C25.8598 40.2606 25.8162 40.3155 25.7631 40.3605C25.7101 40.4054 25.6487 40.4394 25.5825 40.4606C25.5169 40.4853 25.4469 40.4963 25.3769 40.4928C25.3069 40.4894 25.2384 40.4716 25.1755 40.4406C25.1127 40.4095 25.0569 40.3659 25.0116 40.3125C24.9663 40.259 24.9325 40.1968 24.9122 40.1297C24.8184 39.7219 24.9712 39.3797 25.2544 39.4641C25.5375 39.5484 25.8347 39.5203 25.9247 39.795Z" fill="white"/>
<path d="M43.2617 32.2056C43.7484 32.045 44.0186 31.5374 43.865 31.0717C43.7114 30.6061 43.1922 30.3588 42.7054 30.5193C42.2187 30.6799 41.9485 31.1875 42.1021 31.6532C42.2557 32.1188 42.7749 32.3662 43.2617 32.2056Z" fill="white"/>
<path d="M42.6194 33.3527C43.1062 33.1922 43.3876 32.7188 43.248 32.2955C43.1083 31.8721 42.6005 31.6591 42.1137 31.8196C41.6269 31.9802 41.3455 32.4536 41.4851 32.8769C41.6248 33.3003 42.1326 33.5133 42.6194 33.3527Z" fill="white"/>
<path d="M44.6286 33.8383C45.2742 33.6254 45.6277 32.9377 45.4181 32.3025C45.2086 31.6672 44.5153 31.3248 43.8697 31.5378C43.2241 31.7507 42.8706 32.4383 43.0802 33.0736C43.2897 33.7089 43.983 34.0513 44.6286 33.8383Z" fill="white"/>
<path d="M44.9918 31.8481C45.6374 31.6351 45.9909 30.9475 45.7814 30.3122C45.5718 29.6769 44.8786 29.3346 44.233 29.5475C43.5873 29.7605 43.2338 30.4481 43.4434 31.0834C43.6529 31.7187 44.3462 32.0611 44.9918 31.8481Z" fill="white"/>
<path d="M42.011 32.1518C42.2908 32.0595 42.4439 31.7615 42.3531 31.4862C42.2623 31.2108 41.9618 31.0624 41.6821 31.1547C41.4023 31.247 41.2491 31.545 41.3399 31.8204C41.4308 32.0957 41.7312 32.2441 42.011 32.1518Z" fill="white"/>
<path d="M43.6158 31.0273C44.1646 30.8463 44.4651 30.2619 44.287 29.722C44.1089 29.1821 43.5197 28.8912 42.971 29.0722C42.4222 29.2532 42.1217 29.8376 42.2998 30.3775C42.4779 30.9174 43.0671 31.2083 43.6158 31.0273Z" fill="white"/>
<path d="M24.1397 25.2889C24.6523 25.2889 25.0678 24.8733 25.0678 24.3607C25.0678 23.8482 24.6523 23.4326 24.1397 23.4326C23.6271 23.4326 23.2115 23.8482 23.2115 24.3607C23.2115 24.8733 23.6271 25.2889 24.1397 25.2889Z" fill="#FFD7A3"/>
<path d="M31.9422 27.5243C32.4079 27.3707 32.6552 26.8515 32.4946 26.3648C32.3341 25.878 31.8264 25.6079 31.3608 25.7614C30.8951 25.915 30.6478 26.4342 30.8084 26.921C30.9689 27.4078 31.4766 27.6779 31.9422 27.5243Z" fill="#FFD7A3"/>
<path d="M32.9737 48.6913C33.397 48.5517 33.6214 48.0781 33.4748 47.6336C33.3281 47.1891 32.8661 46.942 32.4427 47.0816C32.0193 47.2213 31.795 47.6948 31.9416 48.1393C32.0882 48.5838 32.5503 48.831 32.9737 48.6913Z" fill="#FFD7A3"/>
<path d="M41.1422 41.6078C41.6993 41.6078 42.1509 41.1562 42.1509 40.5991C42.1509 40.042 41.6993 39.5903 41.1422 39.5903C40.5851 39.5903 40.1334 40.042 40.1334 40.5991C40.1334 41.1562 40.5851 41.6078 41.1422 41.6078Z" fill="#FFD7A3"/>
<path d="M18.2362 43.4848C18.6152 43.4848 18.9225 43.1776 18.9225 42.7986C18.9225 42.4195 18.6152 42.1123 18.2362 42.1123C17.8572 42.1123 17.55 42.4195 17.55 42.7986C17.55 43.1776 17.8572 43.4848 18.2362 43.4848Z" fill="#FFD7A3"/>
<path d="M18.8315 24.585C19.2328 24.585 19.5581 24.2597 19.5581 23.8584C19.5581 23.4571 19.2328 23.1318 18.8315 23.1318C18.4303 23.1318 18.105 23.4571 18.105 23.8584C18.105 24.2597 18.4303 24.585 18.8315 24.585Z" fill="#FFD7A3"/>
<path d="M32.9578 38.6719C33.7826 38.6719 34.4512 38.0033 34.4512 37.1785C34.4512 36.3537 33.7826 35.6851 32.9578 35.6851C32.133 35.6851 31.4644 36.3537 31.4644 37.1785C31.4644 38.0033 32.133 38.6719 32.9578 38.6719Z" fill="#FFD7A3"/>
<path d="M32.1581 40.8348C32.6707 40.8348 33.0862 40.4192 33.0862 39.9066C33.0862 39.394 32.6707 38.9785 32.1581 38.9785C31.6455 38.9785 31.23 39.394 31.23 39.9066C31.23 40.4192 31.6455 40.8348 32.1581 40.8348Z" fill="#FFD7A3"/>
<path d="M32.1628 39.3102C32.6086 39.3102 32.97 38.9488 32.97 38.503C32.97 38.0572 32.6086 37.6958 32.1628 37.6958C31.717 37.6958 31.3556 38.0572 31.3556 38.503C31.3556 38.9488 31.717 39.3102 32.1628 39.3102Z" fill="#FFD7A3"/>
<path d="M37.1119 40.4783C37.6022 40.4783 37.9997 40.0808 37.9997 39.5905C37.9997 39.1001 37.6022 38.7026 37.1119 38.7026C36.6215 38.7026 36.2241 39.1001 36.2241 39.5905C36.2241 40.0808 36.6215 40.4783 37.1119 40.4783Z" fill="#FFD7A3"/>
<path d="M29.7722 36.5175C30.3293 36.5175 30.7809 36.0659 30.7809 35.5088C30.7809 34.9516 30.3293 34.5 29.7722 34.5C29.2151 34.5 28.7634 34.9516 28.7634 35.5088C28.7634 36.0659 29.2151 36.5175 29.7722 36.5175Z" fill="#FFD7A3"/>
<path d="M24.0206 22.2048C24.3106 22.2048 24.5456 21.9697 24.5456 21.6798C24.5456 21.3898 24.3106 21.1548 24.0206 21.1548C23.7307 21.1548 23.4956 21.3898 23.4956 21.6798C23.4956 21.9697 23.7307 22.2048 24.0206 22.2048Z" fill="#FFD7A3"/>
<path d="M16.6172 38.3953C17.107 38.3953 17.504 37.9983 17.504 37.5085C17.504 37.0186 17.107 36.6216 16.6172 36.6216C16.1274 36.6216 15.7303 37.0186 15.7303 37.5085C15.7303 37.9983 16.1274 38.3953 16.6172 38.3953Z" fill="#FFD7A3"/>
<path d="M40.5956 28.0479C40.841 28.0479 41.04 27.849 41.04 27.6036C41.04 27.3581 40.841 27.1592 40.5956 27.1592C40.3502 27.1592 40.1512 27.3581 40.1512 27.6036C40.1512 27.849 40.3502 28.0479 40.5956 28.0479Z" fill="white"/>
<path d="M28.065 34.9883C28.2882 34.9883 28.4691 34.8074 28.4691 34.5842C28.4691 34.3611 28.2882 34.1802 28.065 34.1802C27.8419 34.1802 27.6609 34.3611 27.6609 34.5842C27.6609 34.8074 27.8419 34.9883 28.065 34.9883Z" fill="#FFD7A3"/>
<path d="M35.7853 47.653C36.053 47.653 36.27 47.436 36.27 47.1683C36.27 46.9006 36.053 46.6836 35.7853 46.6836C35.5176 46.6836 35.3006 46.9006 35.3006 47.1683C35.3006 47.436 35.5176 47.653 35.7853 47.653Z" fill="#FFD7A3"/>
<path d="M24.2466 47.8864C24.5365 47.8864 24.7716 47.6514 24.7716 47.3614C24.7716 47.0715 24.5365 46.8364 24.2466 46.8364C23.9566 46.8364 23.7216 47.0715 23.7216 47.3614C23.7216 47.6514 23.9566 47.8864 24.2466 47.8864Z" fill="#FFD7A3"/>
<path d="M28.274 25.2262C28.5194 25.2262 28.7184 25.0272 28.7184 24.7818C28.7184 24.5364 28.5194 24.3374 28.274 24.3374C28.0286 24.3374 27.8297 24.5364 27.8297 24.7818C27.8297 25.0272 28.0286 25.2262 28.274 25.2262Z" fill="#FFD7A3"/>
<path d="M14.7262 31.0557C14.9717 31.0557 15.1706 30.8568 15.1706 30.6114C15.1706 30.3659 14.9717 30.167 14.7262 30.167C14.4808 30.167 14.2819 30.3659 14.2819 30.6114C14.2819 30.8568 14.4808 31.0557 14.7262 31.0557Z" fill="#FFD7A3"/>
<path d="M31.3612 33.9873C31.5616 33.9873 31.724 33.8249 31.724 33.6245C31.724 33.4242 31.5616 33.2617 31.3612 33.2617C31.1609 33.2617 30.9984 33.4242 30.9984 33.6245C30.9984 33.8249 31.1609 33.9873 31.3612 33.9873Z" fill="#FFD7A3"/>
<path d="M23.5219 39.4694L23.5115 40.1332C23.5101 40.2204 23.5316 40.3064 23.5739 40.3827C23.6161 40.459 23.6777 40.5229 23.7524 40.5679C23.8272 40.6129 23.9124 40.6375 23.9996 40.6392C24.0868 40.6408 24.1729 40.6196 24.2494 40.5775L24.2644 40.5691C24.3407 40.5269 24.4046 40.4655 24.4498 40.3909C24.4949 40.3163 24.5197 40.2311 24.5217 40.144C24.5237 40.0568 24.5028 39.9706 24.4611 39.894C24.4194 39.8175 24.3584 39.7532 24.284 39.7075L23.7215 39.3616C23.7021 39.349 23.6796 39.3418 23.6564 39.3409C23.6332 39.34 23.6102 39.3453 23.5898 39.3564C23.5693 39.3674 23.5523 39.3837 23.5403 39.4036C23.5284 39.4235 23.522 39.4462 23.5219 39.4694Z" fill="#301E08"/>
<path d="M21.495 39.2183L21.5325 39.8801C21.5374 39.9672 21.565 40.0515 21.6127 40.1245C21.6603 40.1975 21.7263 40.2568 21.8041 40.2962C21.8818 40.3357 21.9686 40.3541 22.0557 40.3495C22.1428 40.345 22.2271 40.3176 22.3003 40.2701L22.3153 40.2608C22.3886 40.2133 22.4481 40.1474 22.4878 40.0697C22.5276 39.992 22.5462 39.9052 22.5419 39.818C22.5375 39.7308 22.5103 39.6463 22.463 39.573C22.4156 39.4996 22.3498 39.44 22.2722 39.4001L21.6834 39.0964C21.6632 39.086 21.6406 39.0811 21.6178 39.0822C21.5951 39.0833 21.573 39.0904 21.5539 39.1028C21.5348 39.1151 21.5193 39.1323 21.5089 39.1526C21.4986 39.1729 21.4938 39.1955 21.495 39.2183Z" fill="#301E08"/>
<path d="M22.875 37.8663L22.2113 37.8719C22.124 37.8728 22.0384 37.8966 21.9632 37.9409C21.888 37.9852 21.8258 38.0485 21.7827 38.1244C21.7396 38.2004 21.7172 38.2863 21.7177 38.3735C21.7182 38.4608 21.7417 38.5465 21.7856 38.6219L21.795 38.6369C21.8387 38.7124 21.9016 38.7751 21.9772 38.8187C22.0528 38.8623 22.1385 38.8852 22.2258 38.8852C22.3131 38.8852 22.3988 38.8623 22.4744 38.8187C22.55 38.7751 22.6128 38.7124 22.6566 38.6369L22.9875 38.0622C22.9997 38.0425 23.0063 38.0199 23.0067 37.9967C23.0071 37.9736 23.0012 37.9508 22.9896 37.9307C22.9781 37.9106 22.9614 37.894 22.9412 37.8827C22.921 37.8713 22.8982 37.8657 22.875 37.8663Z" fill="#301E08"/>
<path d="M22.9772 38.6381L23.5331 39C23.6062 39.0476 23.6906 39.0752 23.7778 39.0799C23.8649 39.0847 23.9518 39.0664 24.0296 39.027C24.1075 38.9876 24.1736 38.9284 24.2214 38.8554C24.2692 38.7824 24.2969 38.6981 24.3019 38.6109V38.594C24.307 38.507 24.2892 38.4201 24.2502 38.3421C24.2112 38.2641 24.1524 38.1977 24.0797 38.1496C24.007 38.1015 23.9229 38.0733 23.8358 38.0679C23.7488 38.0624 23.6619 38.08 23.5837 38.1187L22.9903 38.415C22.9701 38.4252 22.953 38.4405 22.9406 38.4595C22.9282 38.4784 22.921 38.5002 22.9197 38.5228C22.9183 38.5453 22.9229 38.5679 22.933 38.5881C22.9431 38.6083 22.9583 38.6256 22.9772 38.6381Z" fill="#301E08"/>
<path d="M23.0194 39.0308L22.4681 39.4002C22.3956 39.4487 22.3371 39.5154 22.2984 39.5937C22.2598 39.6719 22.2424 39.7589 22.248 39.846C22.2536 39.9331 22.282 40.0172 22.3304 40.0898C22.3787 40.1624 22.4453 40.2211 22.5234 40.2599L22.5384 40.2674C22.6165 40.3063 22.7035 40.3241 22.7905 40.3188C22.8776 40.3135 22.9618 40.2855 23.0346 40.2374C23.1075 40.1894 23.1664 40.123 23.2055 40.045C23.2446 39.967 23.2625 39.8801 23.2575 39.793L23.22 39.1302C23.2185 39.1076 23.2111 39.0858 23.1985 39.0669C23.1859 39.048 23.1686 39.0328 23.1483 39.0227C23.128 39.0127 23.1054 39.0081 23.0827 39.0095C23.0601 39.011 23.0383 39.0183 23.0194 39.0308Z" fill="#54350E"/>
<path d="M25.875 40.7092L25.8638 41.3729C25.8625 41.4601 25.8842 41.5462 25.9266 41.6225C25.9689 41.6987 26.0306 41.7625 26.1054 41.8075C26.1801 41.8525 26.2654 41.877 26.3526 41.8788C26.4399 41.8805 26.526 41.8593 26.6025 41.8173L26.6175 41.8088C26.6938 41.7667 26.7578 41.7052 26.8029 41.6306C26.8481 41.556 26.8729 41.4709 26.8749 41.3837C26.8769 41.2965 26.856 41.2104 26.8143 41.1338C26.7726 41.0572 26.7115 40.9929 26.6372 40.9473L26.0747 40.6013C26.0552 40.5887 26.0327 40.5816 26.0095 40.5807C25.9863 40.5797 25.9633 40.5851 25.9429 40.5961C25.9225 40.6071 25.9054 40.6234 25.8935 40.6433C25.8815 40.6632 25.8752 40.686 25.875 40.7092Z" fill="#301E08"/>
<path d="M23.85 40.4577L23.8865 41.1196C23.8913 41.2068 23.9189 41.2912 23.9666 41.3644C24.0144 41.4375 24.0805 41.4968 24.1584 41.5364C24.2363 41.5759 24.3232 41.5942 24.4104 41.5895C24.4976 41.5848 24.5821 41.5572 24.6553 41.5096L24.6694 41.5002C24.7427 41.4528 24.8022 41.387 24.8421 41.3093C24.8819 41.2317 24.9006 41.1449 24.8964 41.0577C24.8921 40.9705 24.865 40.886 24.8177 40.8126C24.7705 40.7392 24.7048 40.6795 24.6272 40.6396L24.0375 40.3358C24.0173 40.3253 23.9947 40.3203 23.972 40.3214C23.9493 40.3225 23.9272 40.3296 23.9082 40.342C23.8891 40.3544 23.8737 40.3717 23.8634 40.392C23.8532 40.4123 23.8486 40.435 23.85 40.4577Z" fill="#301E08"/>
<path d="M25.2262 39.106L24.5625 39.1116C24.4751 39.1123 24.3894 39.1359 24.314 39.1801C24.2386 39.2244 24.1762 39.2877 24.1331 39.3637C24.09 39.4397 24.0676 39.5258 24.0683 39.6132C24.0689 39.7006 24.0926 39.7863 24.1368 39.8616L24.1453 39.8766C24.189 39.9521 24.2518 40.0148 24.3275 40.0584C24.4031 40.102 24.4888 40.1249 24.5761 40.1249C24.6633 40.1249 24.7491 40.102 24.8247 40.0584C24.9003 40.0148 24.9631 39.9521 25.0068 39.8766L25.3387 39.3019C25.3509 39.2822 25.3575 39.2596 25.3579 39.2365C25.3583 39.2133 25.3524 39.1905 25.3409 39.1704C25.3293 39.1504 25.3126 39.1338 25.2924 39.1224C25.2722 39.1111 25.2494 39.1054 25.2262 39.106Z" fill="#301E08"/>
<path d="M25.3322 39.8774L25.8881 40.2392C25.9613 40.2866 26.0456 40.3139 26.1326 40.3185C26.2197 40.3231 26.3064 40.3048 26.3842 40.2655C26.462 40.2261 26.5281 40.167 26.5759 40.0942C26.6237 40.0213 26.6516 39.9372 26.6568 39.8502V39.8333C26.6621 39.7461 26.6443 39.6591 26.6052 39.581C26.5662 39.5028 26.5073 39.4364 26.4344 39.3882C26.3616 39.34 26.2773 39.3119 26.1901 39.3066C26.103 39.3013 26.0159 39.319 25.9378 39.358L25.3443 39.6533C25.324 39.6635 25.3067 39.679 25.2943 39.698C25.2818 39.7171 25.2746 39.7391 25.2734 39.7618C25.2721 39.7845 25.2769 39.8072 25.2872 39.8275C25.2976 39.8478 25.3131 39.865 25.3322 39.8774Z" fill="#301E08"/>
<path d="M25.3734 40.2701L24.8222 40.6395C24.7496 40.688 24.6911 40.7547 24.6525 40.8329C24.6139 40.9112 24.5965 40.9982 24.6021 41.0853C24.6077 41.1723 24.6361 41.2564 24.6844 41.3291C24.7328 41.4017 24.7993 41.4604 24.8775 41.4992L24.8934 41.5067C24.9715 41.5456 25.0585 41.5633 25.1455 41.558C25.2326 41.5528 25.3168 41.5247 25.3896 41.4767C25.4625 41.4286 25.5214 41.3623 25.5605 41.2843C25.5996 41.2063 25.6175 41.1194 25.6125 41.0323L25.574 40.3695C25.5726 40.3469 25.5652 40.325 25.5526 40.3061C25.54 40.2873 25.5227 40.272 25.5024 40.262C25.4821 40.2519 25.4594 40.2474 25.4368 40.2488C25.4142 40.2502 25.3923 40.2576 25.3734 40.2701Z" fill="#54350E"/>
<path d="M24.4481 37.5834L24.8381 37.0462C24.8894 36.9756 24.9212 36.8928 24.9304 36.8061C24.9396 36.7194 24.9259 36.6317 24.8905 36.552C24.8552 36.4722 24.7996 36.4032 24.7292 36.3517C24.6587 36.3002 24.576 36.2682 24.4893 36.2587H24.4715C24.3849 36.2494 24.2973 36.263 24.2175 36.2981C24.1377 36.3332 24.0685 36.3887 24.0168 36.4588C23.9651 36.529 23.9328 36.6115 23.9229 36.6981C23.913 36.7847 23.926 36.8724 23.9606 36.9524L24.225 37.5609C24.2343 37.5816 24.2489 37.5996 24.2673 37.6129C24.2858 37.6262 24.3074 37.6344 24.33 37.6366C24.3526 37.6389 24.3755 37.6352 24.3962 37.6259C24.4169 37.6165 24.4348 37.6019 24.4481 37.5834Z" fill="#301E08"/>
<path d="M25.9622 38.953L26.3128 38.3905C26.3589 38.3164 26.3846 38.2315 26.3875 38.1443C26.3905 38.0571 26.3704 37.9707 26.3294 37.8937C26.2884 37.8167 26.2278 37.7518 26.1538 37.7056C26.0798 37.6593 25.995 37.6333 25.9078 37.6302H25.8909C25.8037 37.627 25.7171 37.6468 25.6399 37.6875C25.5626 37.7283 25.4975 37.7886 25.4509 37.8625C25.4043 37.9363 25.3779 38.0211 25.3743 38.1083C25.3708 38.1956 25.3902 38.2822 25.4306 38.3596L25.739 38.9474C25.7498 38.9674 25.7656 38.9842 25.7849 38.996C25.8042 39.0079 25.8263 39.0145 25.849 39.0151C25.8716 39.0156 25.894 39.0102 25.9139 38.9993C25.9338 38.9884 25.9504 38.9724 25.9622 38.953Z" fill="#301E08"/>
<path d="M24.06 39.2689L24.6056 39.6439C24.6775 39.6932 24.7611 39.7228 24.848 39.7298C24.9349 39.7367 25.0221 39.7208 25.101 39.6835C25.1798 39.6462 25.2475 39.5889 25.2973 39.5173C25.347 39.4457 25.3772 39.3623 25.3847 39.2755V39.2576C25.3918 39.1707 25.376 39.0835 25.3388 39.0046C25.3016 38.9256 25.2445 38.8579 25.1729 38.808C25.1014 38.7581 25.018 38.7278 24.9312 38.7202C24.8443 38.7125 24.7569 38.7278 24.6778 38.7645L24.0768 39.0458C24.0562 39.0554 24.0385 39.0704 24.0256 39.0891C24.0127 39.1079 24.005 39.1297 24.0032 39.1524C24.0015 39.1751 24.0059 39.1979 24.0158 39.2183C24.0258 39.2388 24.041 39.2563 24.06 39.2689Z" fill="#301E08"/>
<path d="M24.4153 38.577L24.1688 37.9611C24.136 37.8802 24.0827 37.8094 24.014 37.7556C23.9454 37.7018 23.8638 37.6669 23.7775 37.6545C23.6912 37.6421 23.6031 37.6525 23.522 37.6848C23.441 37.717 23.3698 37.7699 23.3156 37.8383L23.3053 37.8514C23.2511 37.9198 23.2158 38.0012 23.203 38.0875C23.1902 38.1739 23.2002 38.262 23.2322 38.3432C23.2643 38.4244 23.317 38.4958 23.3853 38.5501C23.4536 38.6045 23.535 38.64 23.6213 38.653L24.2775 38.7523C24.2999 38.7556 24.3228 38.753 24.3438 38.7446C24.3648 38.7362 24.3833 38.7224 24.3973 38.7047C24.4113 38.6869 24.4203 38.6657 24.4235 38.6433C24.4266 38.6209 24.4238 38.598 24.4153 38.577Z" fill="#301E08"/>
<path d="M24.6075 38.2273L25.2703 38.2423C25.3577 38.2444 25.444 38.2235 25.5207 38.1817C25.5974 38.1398 25.6617 38.0785 25.7072 38.0039C25.7528 37.9294 25.7778 37.8441 25.78 37.7568C25.7821 37.6694 25.7612 37.5831 25.7194 37.5064L25.7109 37.4914C25.6694 37.4146 25.6084 37.35 25.534 37.3043C25.4596 37.2585 25.3745 37.2331 25.2872 37.2307C25.1999 37.2282 25.1135 37.2487 25.0367 37.2902C24.9598 37.3317 24.8952 37.3927 24.8494 37.467L24.5006 38.0295C24.4882 38.0488 24.4812 38.0711 24.4804 38.094C24.4795 38.117 24.4848 38.1397 24.4957 38.1599C24.5066 38.1801 24.5228 38.197 24.5424 38.2089C24.5621 38.2207 24.5846 38.2271 24.6075 38.2273Z" fill="#54350E"/>
<path d="M13.86 27.3911C13.86 27.3911 13.709 25.9848 13.0847 25.8179C12.9183 25.7587 12.7417 25.7338 12.5654 25.7447C12.3892 25.7556 12.2169 25.8022 12.0592 25.8816C11.9015 25.961 11.7615 26.0716 11.6477 26.2066C11.5339 26.3417 11.4487 26.4984 11.3972 26.6673C11.0662 27.5551 10.8684 27.287 10.0434 27.7923C9.21842 28.2976 8.56123 29.7179 9.37873 30.5111C10.1962 31.3042 10.7278 31.7692 11.6503 31.5517C12.8447 31.2704 12.914 30.8017 13.695 30.4848C14.4759 30.1679 15.735 27.8945 13.86 27.3911Z" fill="#FF3333"/>
<path d="M13.621 28.603C13.6912 28.6555 13.7465 28.7254 13.7815 28.8057C13.8165 28.8861 13.8299 28.9743 13.8205 29.0614C13.811 29.1486 13.779 29.2318 13.7275 29.3028C13.6761 29.3738 13.6071 29.4302 13.5272 29.4664C12.8981 29.8545 12.5222 29.9127 12.2475 30.2774C11.9728 30.642 10.9913 30.4236 10.8225 29.833C10.6538 29.2424 11.5594 29.2705 11.4956 28.7445C11.4319 28.2186 11.5941 27.2502 12.0581 27.2923C12.5222 27.3345 13.9856 27.8567 13.621 28.603Z" fill="#FF0F0F"/>
<path d="M13.7597 30.7826C13.7597 30.7826 13.4784 29.398 12.8381 29.2901C12.6666 29.2463 12.488 29.2378 12.3131 29.2652C12.1382 29.2926 11.9707 29.3552 11.8208 29.4493C11.6709 29.5433 11.5416 29.6669 11.4409 29.8125C11.3402 29.9581 11.2702 30.1226 11.235 30.2961C10.9903 31.2111 10.7663 30.9626 9.99376 31.5486C9.22126 32.1345 8.70188 33.6054 9.59157 34.3217C10.4813 35.0379 11.0531 35.4467 11.9513 35.142C13.1138 34.7483 13.1391 34.2776 13.8853 33.8858C14.6316 33.4939 15.6731 31.1023 13.7597 30.7826Z" fill="#FF3333"/>
<path d="M13.6359 32.0118C13.7106 32.0576 13.7721 32.1221 13.8143 32.199C13.8564 32.2758 13.8779 32.3623 13.8765 32.4499C13.875 32.5375 13.8508 32.6233 13.8062 32.6987C13.7615 32.7741 13.698 32.8366 13.6219 32.8799C13.0331 33.3262 12.6637 33.4209 12.4256 33.8099C12.1875 34.199 11.1891 34.0743 10.9641 33.5024C10.7391 32.9306 11.6447 32.8715 11.5312 32.354C11.4178 31.8365 11.4872 30.854 11.9494 30.854C12.4116 30.854 13.9275 31.2346 13.6359 32.0118Z" fill="#FF0F0F"/>
<path d="M10.5309 34.4547C10.5309 34.4547 9.13214 34.6553 8.98589 35.2853C8.93191 35.4538 8.91274 35.6316 8.92955 35.8077C8.94635 35.9839 8.99878 36.1548 9.08365 36.3101C9.16852 36.4653 9.28406 36.6017 9.42326 36.711C9.56246 36.8203 9.7224 36.9001 9.8934 36.9456C10.7925 37.2447 10.5309 37.4528 11.07 38.2581C11.609 39.0635 13.0453 39.6728 13.814 38.8272C14.5828 37.9816 15.0234 37.435 14.774 36.521C14.4506 35.3369 13.9818 35.2835 13.6359 34.5147C13.29 33.746 10.9687 32.5638 10.5309 34.4547Z" fill="#FF3333"/>
<path d="M11.7506 34.6517C11.8008 34.5798 11.8688 34.5221 11.948 34.4846C12.0272 34.447 12.1149 34.4308 12.2023 34.4375C12.2897 34.4442 12.3739 34.4737 12.4464 34.5229C12.519 34.5722 12.5774 34.6395 12.6159 34.7183C13.0266 35.3333 13.0978 35.7073 13.4719 35.9689C13.8459 36.2304 13.6594 37.2186 13.0781 37.4089C12.4969 37.5992 12.4884 36.6917 11.9663 36.7733C11.4441 36.8548 10.4663 36.7273 10.4953 36.2661C10.5244 35.8048 10.9922 34.3142 11.7506 34.6517Z" fill="#FF0F0F"/>
<path d="M12.7818 33.8382C12.7818 33.8382 11.9653 34.3304 12.0403 34.7598C12.0509 34.8786 12.0856 34.9941 12.1423 35.0991C12.1989 35.2041 12.2764 35.2965 12.3698 35.3707C12.4633 35.4449 12.5709 35.4993 12.686 35.5306C12.8012 35.5619 12.9215 35.5695 13.0396 35.5529C13.6771 35.5023 13.5693 35.7001 14.1159 36.0601C14.6625 36.4201 15.7143 36.4192 15.9693 35.6926C16.2243 34.966 16.3556 34.5104 15.96 34.0051C15.449 33.3554 15.1434 33.4426 14.7262 33.0582C14.309 32.6738 12.5568 32.5492 12.7818 33.8382Z" fill="#FF5757"/>
<path d="M13.5937 33.6402C13.6059 33.5822 13.633 33.5284 13.6723 33.484C13.7117 33.4397 13.7619 33.4064 13.8181 33.3875C13.8742 33.3685 13.9344 33.3646 13.9926 33.376C14.0507 33.3875 14.1049 33.4139 14.1497 33.4527C14.565 33.7265 14.7122 33.9402 15.0094 34.004C15.3066 34.0677 15.4556 34.7305 15.1425 35.0024C14.8294 35.2743 14.5884 34.7118 14.2847 34.8993C13.9809 35.0868 13.3472 35.264 13.2384 34.9705C13.1297 34.6771 13.0312 33.6337 13.5937 33.6402Z" fill="#FF2E2E"/>
<path d="M27.104 12.7567C27.104 12.7567 21.1471 12.6995 16.9415 16.5657C12.7359 20.432 10.6078 24.0714 13.6875 24.6882C16.7671 25.3051 16.7606 25.697 16.5834 26.147C16.6838 27.2385 17.1588 28.2616 17.9278 29.0428C18.6968 29.8239 19.7123 30.3148 20.8021 30.4323C23.0416 30.5564 25.2708 30.0473 27.2343 28.9632C28.2159 28.5751 27.1912 30.2176 28.2656 30.9067C29.34 31.5957 30.1096 30.3639 30.8156 30.1314C31.5215 29.8989 30.7275 33.4229 33.6843 34.0792C36.6412 34.7354 37.019 32.9139 38.5659 33.4473C40.1128 33.9807 43.2075 40.5948 42.4096 43.532C41.6118 46.4692 41.8312 46.7242 43.754 45.8289C45.6768 44.9336 48.4481 42.4539 48.5353 40.3379C48.6225 38.222 48.2118 37.1814 49.274 35.852C50.3362 34.5226 51.7631 29.5501 49.6387 26.0748C47.3963 22.5193 44.7568 19.2304 41.7712 16.2714C38.3915 12.7529 33.4181 11.5229 27.104 12.7567Z" fill="#D96600"/>
<path d="M31.9445 22.9172L31.7298 24.3591C31.6577 24.8436 31.9919 25.2948 32.4764 25.3669L33.9183 25.5816C34.4028 25.6537 34.854 25.3195 34.9261 24.835L35.1408 23.3931C35.2129 22.9086 34.8786 22.4574 34.3942 22.3853L32.9523 22.1706C32.4678 22.0985 32.0166 22.4327 31.9445 22.9172Z" fill="#FF8800"/>
<path d="M34.0594 24.7694L33.2681 24.6513C33.133 24.6214 33.0151 24.5393 32.9403 24.4228C32.8655 24.3064 32.8397 24.165 32.8688 24.0297L33.0028 23.125C33.0148 22.9872 33.0805 22.8597 33.1858 22.7701C33.2911 22.6804 33.4274 22.6358 33.5653 22.6459L34.3566 22.7641C34.4916 22.7942 34.6093 22.8763 34.6841 22.9927C34.7589 23.1091 34.7847 23.2503 34.7559 23.3856L34.6209 24.2903C34.6092 24.428 34.5437 24.5555 34.4386 24.6452C34.3334 24.7349 34.1972 24.7795 34.0594 24.7694Z" fill="#FFB300"/>
<path d="M20.1543 26.5442L19.9396 27.9861C19.8675 28.4705 20.2018 28.9218 20.6862 28.9939L22.1281 29.2086C22.6126 29.2807 23.0638 28.9464 23.136 28.4619L23.3506 27.02C23.4228 26.5356 23.0885 26.0843 22.604 26.0122L21.1621 25.7975C20.6776 25.7254 20.2264 26.0597 20.1543 26.5442Z" fill="#FFFF52"/>
<path d="M22.2684 28.397L21.4772 28.2788C21.3419 28.2488 21.224 28.1665 21.149 28.0499C21.074 27.9334 21.0481 27.7919 21.0769 27.6563L21.2119 26.7517C21.2236 26.6139 21.2893 26.4863 21.3946 26.3967C21.5 26.3072 21.6365 26.2629 21.7744 26.2735L22.5656 26.3907C22.7008 26.421 22.8186 26.5033 22.8935 26.6198C22.9684 26.7363 22.9944 26.8777 22.9659 27.0132L22.8309 27.9179C22.8192 28.0558 22.7536 28.1834 22.6482 28.2731C22.5429 28.3628 22.4064 28.4073 22.2684 28.397Z" fill="#FFFF8F"/>
<path d="M39.3684 21.2549L39.018 23.6084C38.9002 24.3996 39.4462 25.1365 40.2374 25.2543L42.5908 25.6047C43.3821 25.7225 44.119 25.1766 44.2368 24.3853L44.5872 22.0319C44.7049 21.2407 44.159 20.5038 43.3678 20.386L41.0144 20.0356C40.2231 19.9178 39.4862 20.4637 39.3684 21.2549Z" fill="#FFFF52"/>
<path d="M42.8212 24.2795L41.5312 24.0873C41.3098 24.039 41.1164 23.905 40.9935 23.7145C40.8705 23.5241 40.8279 23.2928 40.875 23.071L41.0943 21.5945C41.1137 21.3691 41.2213 21.1605 41.3937 21.014C41.5661 20.8676 41.7894 20.7952 42.015 20.8126L43.3068 21.0001C43.5283 21.0484 43.7216 21.1824 43.8446 21.3728C43.9676 21.5633 44.0102 21.7946 43.9631 22.0163L43.7428 23.4929C43.7246 23.7193 43.6174 23.9293 43.4446 24.0767C43.2719 24.2242 43.0477 24.2971 42.8212 24.2795Z" fill="#FFFF8F"/>
<path d="M29.301 15.6462L29.0863 17.0881C29.0142 17.5726 29.3485 18.0238 29.833 18.0959L31.2749 18.3106C31.7593 18.3827 32.2106 18.0485 32.2827 17.564L32.4974 16.1221C32.5695 15.6376 32.2352 15.1864 31.7507 15.1143L30.3088 14.8996C29.8244 14.8275 29.3731 15.1617 29.301 15.6462Z" fill="#FF8800"/>
<path d="M31.4156 17.4985L30.6244 17.3813C30.4892 17.351 30.3714 17.2686 30.2965 17.1521C30.2216 17.0356 30.1955 16.8943 30.224 16.7588L30.359 15.8541C30.3708 15.7162 30.4364 15.5886 30.5418 15.4988C30.6471 15.4091 30.7836 15.3646 30.9215 15.375L31.7128 15.4931C31.8481 15.5232 31.966 15.6055 32.041 15.7221C32.1159 15.8386 32.1419 15.9801 32.1131 16.1156L31.9781 17.0203C31.9664 17.1581 31.9007 17.2857 31.7953 17.3752C31.69 17.4648 31.5535 17.5091 31.4156 17.4985Z" fill="#FFB300"/>
<path d="M21.4974 18.1156L19.7346 18.6971C19.1416 18.8927 18.8195 19.532 19.0151 20.125L19.5965 21.8878C19.7921 22.4808 20.4314 22.803 21.0244 22.6074L22.7872 22.0259C23.3802 21.8303 23.7024 21.191 23.5068 20.598L22.9253 18.8352C22.7297 18.2422 22.0904 17.92 21.4974 18.1156Z" fill="#FF8800"/>
<path d="M22.4822 21.0205L21.5137 21.3402C21.3427 21.3836 21.1615 21.3575 21.0096 21.2678C20.8577 21.178 20.7474 21.0319 20.7028 20.8612L20.3381 19.7549C20.2724 19.5911 20.2741 19.408 20.3428 19.2454C20.4114 19.0828 20.5415 18.954 20.7047 18.8868L21.6731 18.568C21.8442 18.5244 22.0255 18.5504 22.1775 18.6402C22.3295 18.7299 22.4397 18.8763 22.4841 19.0471L22.8497 20.1534C22.9153 20.3171 22.9134 20.5002 22.8446 20.6627C22.7758 20.8251 22.6455 20.9538 22.4822 21.0205Z" fill="#FFB300"/>
<path d="M19.0144 20.1245C19.0144 20.1245 19.4831 21.7783 22.2103 22.1504C24.9375 22.5226 21.2812 23.2651 20.5987 23.2651C19.9162 23.2651 17.4309 20.5164 19.0144 20.1245Z" fill="#D96600"/>
<path d="M44.1098 29.7719L42.8648 31.1487C42.446 31.6119 42.4819 32.3268 42.945 32.7456L44.3218 33.9907C44.785 34.4095 45.4999 34.3736 45.9188 33.9104L47.1638 32.5336C47.5826 32.0705 47.5467 31.3555 47.0835 30.9367L45.7067 29.6917C45.2436 29.2728 44.5286 29.3088 44.1098 29.7719Z" fill="#FF8800"/>
<path d="M46.4062 31.8104L45.7219 32.567C45.5949 32.6881 45.4253 32.7543 45.2498 32.7513C45.0744 32.7483 44.9072 32.6764 44.7844 32.551L43.92 31.7701C43.7816 31.66 43.6923 31.4996 43.6718 31.324C43.6512 31.1483 43.701 30.9717 43.8103 30.8326L44.4937 30.076C44.6211 29.9537 44.7916 29.8868 44.9681 29.8897C45.1446 29.8927 45.3128 29.9654 45.4359 30.092L46.3003 30.8729C46.4379 30.9837 46.5263 31.1443 46.5461 31.3199C46.566 31.4954 46.5157 31.6717 46.4062 31.8104Z" fill="#FFB300"/>
<path d="M43.5272 34.6651C43.7712 34.2865 43.8779 33.8356 43.8296 33.3877C43.7814 32.9399 43.581 32.5221 43.2619 32.2042C42.1013 31.1945 41.0738 31.0164 41.34 31.8179C41.6284 32.9304 41.7802 34.0738 41.7919 35.2229C41.73 35.6589 43.3406 36.527 43.5272 34.6651Z" fill="#D96600"/>
<path d="M43.4349 38.7668L43.2203 40.2087C43.1481 40.6932 43.4824 41.1444 43.9669 41.2165L45.4088 41.4312C45.8933 41.5033 46.3445 41.1691 46.4166 40.6846L46.6313 39.2427C46.7034 38.7582 46.3691 38.307 45.8847 38.2349L44.4427 38.0202C43.9583 37.9481 43.5071 38.2823 43.4349 38.7668Z" fill="#FFFF52"/>
<path d="M45.5493 40.6191L44.7581 40.5019C44.6229 40.4716 44.5051 40.3892 44.4302 40.2727C44.3553 40.1562 44.3293 40.0149 44.3578 39.8794L44.4928 38.9747C44.5045 38.8368 44.5701 38.7092 44.6755 38.6195C44.7808 38.5297 44.9173 38.4852 45.0553 38.4956L45.8465 38.6137C45.9818 38.6438 46.0997 38.7261 46.1747 38.8427C46.2497 38.9592 46.2756 39.1007 46.2468 39.2362L46.1118 40.1409C46.1001 40.2787 46.0344 40.4063 45.9291 40.4959C45.8237 40.5854 45.6872 40.6297 45.5493 40.6191Z" fill="#FFFF8F"/>
<path d="M42.8437 39.2529C42.8437 39.2529 43.4015 38.757 43.8347 40.1829C44.2678 41.6088 45.4003 41.0623 46.4147 40.6845C47.429 40.3066 47.5115 40.991 46.634 41.7954C45.7565 42.5998 42.5353 41.9773 42.8437 39.2529Z" fill="#D96600"/>
<path d="M24.9585 24.4492L24.9185 24.4624C23.8352 24.8197 23.2467 25.9875 23.604 27.0707L26.529 35.9383C26.8863 37.0215 28.0541 37.61 29.1373 37.2527L29.1774 37.2395C30.2606 36.8822 30.8491 35.7144 30.4918 34.6312L27.5668 25.7636C27.2095 24.6804 26.0418 24.0919 24.9585 24.4492Z" fill="#FF5C5C"/>
<path d="M25.1297 27.2588C25.9736 27.6172 26.8997 27.7375 27.8072 27.6066C27.384 27.8484 26.8934 27.9452 26.41 27.8825C25.9267 27.8197 25.4771 27.6007 25.1297 27.2588Z" fill="#FF3838"/>
<path d="M26.04 30.0176C26.8843 30.376 27.8106 30.4963 28.7184 30.3654C28.2951 30.6072 27.8043 30.7042 27.3208 30.6414C26.8373 30.5786 26.3875 30.3595 26.04 30.0176Z" fill="#FF3838"/>
<path d="M27.0206 32.9897C27.8648 33.3486 28.7912 33.4693 29.6991 33.3385C29.2756 33.5802 28.7848 33.677 28.3013 33.614C27.8178 33.5511 27.3681 33.3319 27.0206 32.9897Z" fill="#FF3838"/>
<path d="M24.7772 24.7751C24.7772 24.7751 26.6184 24.1011 27.3534 25.7229C28.0884 27.3448 26.6709 26.6801 26.3109 26.5995C25.9509 26.5189 23.4375 25.6507 24.7772 24.7751Z" fill="#FF8080"/>
<path d="M28.185 29.9934C28.185 29.9934 26.8219 30.2746 26.2322 29.669C25.6425 29.0634 26.5481 28.7456 27.3394 28.86C28.1306 28.9743 28.8478 29.7459 28.185 29.9934Z" fill="#FF8080"/>
<path d="M29.0156 32.9146C29.0156 32.9146 27.6525 33.1958 27.0628 32.5911C26.4731 31.9865 27.3787 31.6668 28.17 31.7821C28.9612 31.8974 29.6784 32.6671 29.0156 32.9146Z" fill="#FF8080"/>
<path d="M31.5006 27.0278L31.4605 27.041C30.3773 27.3983 29.7888 28.5661 30.1461 29.6494L33.071 38.5169C33.4283 39.6002 34.5961 40.1886 35.6794 39.8313L35.7194 39.8181C36.8027 39.4608 37.3911 38.293 37.0338 37.2098L34.1089 28.3422C33.7516 27.259 32.5838 26.6705 31.5006 27.0278Z" fill="#FF5C5C"/>
<path d="M31.6716 29.834C32.5159 30.1924 33.4422 30.3127 34.35 30.1818C33.9267 30.4237 33.4359 30.5206 32.9524 30.4578C32.4689 30.395 32.0191 30.1759 31.6716 29.834Z" fill="#FF3838"/>
<path d="M32.5828 32.5957C33.4271 32.9541 34.3534 33.0747 35.2613 32.9445C34.8378 33.1862 34.347 33.2829 33.8635 33.22C33.38 33.157 32.9303 32.9378 32.5828 32.5957Z" fill="#FF3838"/>
<path d="M33.5625 35.5688C34.4068 35.9272 35.3331 36.0475 36.2409 35.9167C35.8175 36.1584 35.3268 36.2552 34.8433 36.1924C34.3599 36.1296 33.9101 35.9107 33.5625 35.5688Z" fill="#FF3838"/>
<path d="M31.32 27.3523C31.32 27.3523 33.1612 26.6782 33.8962 28.3001C34.6312 29.9219 33.2128 29.2573 32.8537 29.1766C32.4947 29.096 29.9775 28.2288 31.32 27.3523Z" fill="#FF8080"/>
<path d="M34.7278 32.5713C34.7278 32.5713 33.3647 32.8479 32.775 32.2469C32.1853 31.646 33.0909 31.3235 33.8822 31.4379C34.6734 31.5522 35.3897 32.321 34.7278 32.5713Z" fill="#FF8080"/>
<path d="M35.5584 35.4927C35.5584 35.4927 34.1953 35.774 33.6056 35.1693C33.0159 34.5646 33.9215 34.2449 34.7128 34.3602C35.504 34.4755 36.2203 35.2461 35.5584 35.4927Z" fill="#FF8080"/>
</svg>
