<svg width="60" height="60" viewBox="0 0 60 60" fill="none" xmlns="http://www.w3.org/2000/svg">
<path d="M29.4271 41.1923V31.3846C29.4271 31.3846 25.0425 37.9615 22.2732 42.4615C19.504 46.9615 19.8502 50.5384 19.8502 50.5384C19.8502 54.1153 22.504 57.1153 25.7348 57.1153C27.6963 57.1153 29.4271 56.0769 30.4655 54.3461C31.504 55.8461 33.1194 56.6538 34.9655 56.6538C38.1963 56.6538 40.8502 53.7692 40.8502 50.0769C40.8502 49.7307 40.7348 49.3846 40.7348 49.0384C40.7348 44.1923 30.1194 31.1538 30.1194 31.1538V40.8461V41.1923L31.504 44.5384C31.504 44.6538 31.6194 44.7692 31.6194 45C31.6194 45.8077 30.9271 46.5 30.1194 46.5C29.3117 46.5 28.6194 45.8077 28.6194 45C28.6194 44.8846 28.6194 44.6538 28.7348 44.5384L29.4271 41.1923Z" fill="black"/>
<path d="M18.3502 32.6538L27.5809 29.1923C27.5809 29.1923 19.9655 27.3461 14.6579 26.3076C9.35016 25.2692 6.23478 26.8846 6.23478 26.8846C2.88863 28.1538 1.04247 31.6153 2.08093 34.6153C2.77324 36.4615 4.38863 37.7307 6.35016 38.1923C5.3117 39.6923 5.08093 41.5384 5.65786 43.2692C6.8117 46.2692 10.3886 47.7692 13.8502 46.5C14.1963 46.3846 14.5425 46.1538 14.7732 46.0384C19.3886 44.423 27.8117 29.8846 27.8117 29.8846L18.8117 33.2307L18.4655 33.3461L15.8117 35.7692C15.6963 35.8846 15.5809 35.8846 15.4655 36C14.6579 36.3461 13.7348 35.8846 13.504 35.0769C13.1579 34.2692 13.6194 33.3461 14.4271 33.1153C14.5425 33.1153 14.7732 33 14.8886 33L18.3502 32.6538Z" fill="black"/>
<path d="M22.9656 18.9231L28.8502 26.8846C28.8502 26.8846 28.3886 19.0384 27.9271 13.7308C27.4656 8.42306 25.0425 5.76922 25.0425 5.76922C22.8502 2.8846 19.0425 2.07691 16.504 4.03845C14.8886 5.19229 14.1963 7.15383 14.3117 9.11537C12.5809 8.53845 10.7348 8.76922 9.23478 9.80768C6.69632 11.7692 6.35017 15.6923 8.42709 18.5769C8.65786 18.8077 8.88863 19.1538 9.1194 19.3846C12.004 23.3077 28.3886 27.3461 28.3886 27.3461L22.6194 19.6154L22.3886 19.3846L19.2732 17.5384C19.1579 17.4231 19.0425 17.3077 18.9271 17.1923C18.4656 16.5 18.5809 15.5769 19.2732 15C19.9656 14.5384 20.8886 14.6538 21.4656 15.3461C21.5809 15.4615 21.5809 15.5769 21.6963 15.6923L22.9656 18.9231Z" fill="black"/>
<path d="M41.6579 32.6538L32.4271 29.1923C32.4271 29.1923 40.0425 27.3461 45.3502 26.3076C50.6579 25.2692 53.7732 26.8846 53.7732 26.8846C57.1194 28.1538 58.9656 31.6153 57.9271 34.6153C57.2348 36.4615 55.6194 37.7307 53.6579 38.1923C54.6963 39.6923 54.9271 41.5384 54.3502 43.2692C53.1963 46.2692 49.6194 47.7692 46.1579 46.5C45.8117 46.3846 45.4656 46.1538 45.2348 46.0384C40.6194 44.423 32.1963 29.8846 32.1963 29.8846L41.1963 33.2307L41.5425 33.3461L44.1963 35.7692C44.3117 35.8846 44.4271 35.8846 44.5425 36C45.3502 36.3461 46.2732 35.8846 46.504 35.0769C46.8502 34.2692 46.3886 33.3461 45.5809 33.1153C45.4656 33.1153 45.2348 33 45.1194 33L41.6579 32.6538Z" fill="black"/>
<path d="M36.5809 18.9231L30.6963 26.8846C30.6963 26.8846 31.1579 19.0384 31.6194 13.7308C32.0809 8.42306 34.504 5.76922 34.504 5.76922C36.6963 2.8846 40.504 2.07691 43.0425 4.03845C44.6579 5.19229 45.3502 7.15383 45.2348 9.11537C46.9656 8.65383 48.8117 8.8846 50.1963 9.92306C52.7348 11.8846 53.0809 15.8077 51.004 18.6923C50.7732 18.9231 50.5425 19.2692 50.3117 19.5C47.5425 23.3077 31.1579 27.2308 31.1579 27.2308L36.9271 19.5L37.1579 19.2692L40.2732 17.4231C40.3886 17.3077 40.504 17.1923 40.6194 17.0769C41.0809 16.3846 40.9656 15.4615 40.2732 14.8846C39.5809 14.4231 38.6579 14.5384 38.0809 15.2308C37.9655 15.3461 37.9655 15.4615 37.8502 15.5769L36.5809 18.9231Z" fill="black"/>
</svg>
