<svg width="60" height="61" viewBox="0 0 60 61" fill="none" xmlns="http://www.w3.org/2000/svg">
<path d="M17.5572 47.4662C20.8779 48.45 24.3629 48.7534 27.8037 48.3586L45.8683 46.2856C46.9388 46.1153 48.0294 46.1158 49.0998 46.2871L54.7481 47.1908C56.6455 47.4941 58.5013 46.2023 58.8051 44.3047V39.4233C58.8051 37.6471 57.5262 36.3303 55.5614 35.9437L47.1353 34.7379C45.8933 34.6679 44.648 34.6833 43.4081 34.7838L25.1869 37.1085C23.2678 37.2113 21.7957 38.8503 21.8985 40.7693C21.9168 41.1114 21.9843 41.439 22.0931 41.7463L5.69986 36.6957C3.86327 36.13 1.91576 37.1599 1.34994 38.9965C0.784117 40.8331 1.81417 42.7805 3.65076 43.3464L17.5572 47.4662Z" fill="#EBD2B4"/>
<path d="M49.9004 24.0608C49.9004 30.0018 40.9906 28.9612 29.9998 28.9612C19.0091 28.9612 10.0992 30.0018 10.0992 24.0608C10.0992 18.1198 19.0091 13.3037 29.9998 13.3037C40.9906 13.3037 49.9004 18.1198 49.9004 24.0608Z" fill="#FF2E3D"/>
<path d="M55.7921 34.7708C55.7717 34.7668 55.7512 34.7632 55.7305 34.7604L47.3044 33.5546C47.2706 33.5497 47.2365 33.5464 47.2023 33.5446C45.9103 33.4717 44.6013 33.4878 43.3112 33.5924C43.2931 33.5938 43.2748 33.5957 43.2566 33.5981L25.0757 35.9177C22.7811 36.0635 20.9671 37.854 20.7253 40.0742L6.05171 35.5534C3.58834 34.7944 0.966605 36.1812 0.207752 38.6445C-0.551219 41.1079 0.835488 43.7295 3.29886 44.4886C3.30304 44.4899 3.30711 44.4911 3.31129 44.4923L17.2177 48.612C19.7155 49.352 22.271 49.7236 24.8479 49.7236C25.8759 49.7236 26.9074 49.6644 27.94 49.546L46.0046 47.473C46.0218 47.471 46.039 47.4687 46.0561 47.4659C47.0032 47.3152 47.9638 47.3155 48.9108 47.4671L54.5592 48.3708C54.8151 48.4117 55.0692 48.4315 55.3203 48.4315C57.6048 48.4313 59.6173 46.7917 59.9851 44.4932C59.995 44.4309 60 44.3676 60 44.3044V39.4231C60.0001 37.1 58.3483 35.2738 55.7921 34.7708ZM57.6097 44.199C57.3721 45.3831 56.1679 46.2071 54.9368 46.0105L49.2885 45.1068C48.1005 44.9167 46.8956 44.9148 45.707 45.101L27.6675 47.1712C24.368 47.5497 21.0808 47.2633 17.8967 46.32L3.99735 42.2023C2.7971 41.8292 2.12203 40.5503 2.49232 39.3483C2.67184 38.7652 3.06782 38.2869 3.60723 38.0016C4.14664 37.7163 4.76505 37.6581 5.34796 37.8377L21.2547 42.7384C22.0476 44.2017 23.595 45.1877 25.3631 45.1877C25.447 45.1877 25.5312 45.1854 25.616 45.1809C25.6451 45.1793 25.6741 45.1767 25.703 45.173L33.01 44.2438C33.6649 44.1606 34.1282 43.5622 34.045 42.9074C33.9617 42.2525 33.3625 41.7886 32.7086 41.8725L25.4492 42.7955C24.2252 42.8407 23.1922 41.9101 23.092 40.7017C23.0265 39.4453 23.9943 38.369 25.251 38.3017C25.2802 38.3002 25.3093 38.2975 25.3383 38.2938L43.532 35.9727C44.6877 35.8802 45.86 35.8653 47.0175 35.9281L55.3595 37.1218C56.7693 37.4085 57.6099 38.2672 57.6099 39.423V44.199H57.6097Z" fill="black"/>
<path d="M37.5801 41.2532L35.9563 41.4597C35.3014 41.5429 34.8382 42.1414 34.9213 42.7961C34.9981 43.3998 35.5125 43.8407 36.1055 43.8407C36.1557 43.8407 36.2066 43.8376 36.2577 43.8311L37.8816 43.6245C38.5364 43.5413 38.9997 42.9429 38.9165 42.2881C38.8333 41.6334 38.2345 41.1694 37.5801 41.2532Z" fill="black"/>
<path d="M25.707 30.1932C27.094 30.175 28.5283 30.1563 29.9998 30.1563C31.4714 30.1563 32.9057 30.175 34.2926 30.1932C35.5824 30.2101 36.8221 30.2263 38.0045 30.2263C43.3496 30.2263 47.5072 29.8946 49.6382 27.7914C50.6052 26.8369 51.0956 25.5816 51.0956 24.0607C51.0956 20.7279 48.803 17.6531 44.6401 15.4028C40.7098 13.2784 35.5104 12.1084 29.9998 12.1084C24.4892 12.1084 19.2898 13.2784 15.3596 15.4028C11.1966 17.6531 8.90399 20.7278 8.90399 24.0607C8.90399 25.5818 9.3944 26.8369 10.3615 27.7914C12.9638 30.3598 18.5872 30.2862 25.707 30.1932ZM21.932 15.4691V19.3993C21.932 20.0594 22.4671 20.5945 23.1272 20.5945C23.7874 20.5945 24.3225 20.0594 24.3225 19.3993V14.9687C25.8472 14.711 27.451 14.5528 29.1034 14.5106V16.6503C29.1034 17.3104 29.6385 17.8455 30.2986 17.8455C30.9588 17.8455 31.4939 17.3104 31.4939 16.6503V14.5311C33.108 14.6 34.6715 14.7793 36.1553 15.0533V19.3993C36.1553 20.0594 36.6904 20.5945 37.3505 20.5945C38.0106 20.5945 38.5457 20.0594 38.5457 19.3993V15.5944C44.5234 17.2114 48.7052 20.4395 48.7052 24.0607C48.7052 24.9427 48.468 25.5876 47.959 26.0901C46.0679 27.9566 40.6254 27.8856 34.3239 27.8031C32.9292 27.7848 31.487 27.7659 29.9998 27.7659C28.5126 27.7659 27.0704 27.7848 25.6757 27.8031C19.3745 27.8854 13.9317 27.9567 12.0406 26.0901C11.5316 25.5876 11.2945 24.9427 11.2945 24.0607C11.2945 20.3437 15.7001 17.0405 21.932 15.4691Z" fill="black"/>
<path d="M30.2986 22.2679C30.9588 22.2679 31.4939 21.7328 31.4939 21.0726V20.475C31.4939 19.8149 30.9588 19.2798 30.2986 19.2798C29.6385 19.2798 29.1034 19.8149 29.1034 20.475V21.0726C29.1034 21.7328 29.6385 22.2679 30.2986 22.2679Z" fill="black"/>
</svg>
