<svg width="60" height="60" viewBox="0 0 60 60" fill="none" xmlns="http://www.w3.org/2000/svg">
<g clip-path="url(#clip0_16_13990)">
<path d="M53.8168 2.29008H51.7594C51.8125 2.11969 51.8675 1.94931 51.8675 1.76061C51.8675 0.789618 51.076 0 50.1032 0C49.1304 0 48.3426 0.789618 48.3426 1.76061C48.3426 1.94931 48.3939 2.11969 48.4507 2.29008H41.7087C41.7618 2.11969 41.8168 1.94931 41.8168 1.76061C41.8131 0.789618 41.0253 0 40.0507 0C39.0797 0 38.2901 0.789618 38.2901 1.76061C38.2901 1.94931 38.3432 2.11969 38.3981 2.29008H31.6525C31.7056 2.11969 31.7606 1.94931 31.7606 1.76061C31.7606 0.789618 30.9728 0 30 0C29.0272 0 28.2394 0.789618 28.2394 1.76061C28.2394 1.94931 28.2907 2.11969 28.3456 2.29008H21.6018C21.6549 2.11969 21.7099 1.94931 21.7099 1.76061C21.7099 0.789618 20.9203 0 19.9493 0C18.9765 0 18.1869 0.789618 18.1869 1.76061C18.1869 1.94931 18.2381 2.11969 18.2931 2.29008H11.5511C11.6061 2.11969 11.6592 1.94931 11.6592 1.76061C11.6592 0.787786 10.8714 0 9.89861 0C8.92578 0 8.13616 0.789618 8.13616 1.76061C8.13616 1.94931 8.18746 2.11969 8.24242 2.29008H6.18319C3.40212 2.29008 1.14502 4.54901 1.14502 7.32824V54.9618C1.14502 57.7429 3.40212 60 6.18319 60H48.1282L58.8549 49.2733V7.32824C58.8549 4.54901 56.5978 2.29008 53.8168 2.29008ZM56.1069 48.1337L55.5371 48.7035H51.2226C49.2036 48.7035 47.5585 50.3524 47.5585 52.3676V56.6821L46.9887 57.2519H6.18319C4.9209 57.2519 3.89311 56.2241 3.89311 54.9618V16.4885H56.1069V48.1337Z" fill="black"/>
<path d="M11.8443 43.625H16.6003V32.9221H20.8727V29.1133H7.57007V32.9221H11.8443V43.625Z" fill="black"/>
<path d="M26.6344 38.0024H31.1303V43.625H35.8864V29.1133H31.1303V34.0104H26.6344V29.1133H21.8766V43.625H26.6344V38.0024Z" fill="black"/>
<path d="M44.6729 44.0079C49.4912 44.0079 51.6457 41.9725 51.6457 37.3173V29.1133H46.8897V37.7991C46.8897 39.371 46.3859 40.4611 44.6729 40.4611C42.7181 40.4611 42.4341 39.2318 42.4341 37.7991V29.1133H37.6781V37.2953C37.6781 42.295 40.177 44.0079 44.6729 44.0079Z" fill="black"/>
</g>
<defs>
<clipPath id="clip0_16_13990">
<rect width="60" height="60" fill="white"/>
</clipPath>
</defs>
</svg>
