<svg width="60" height="60" viewBox="0 0 60 60" fill="none" xmlns="http://www.w3.org/2000/svg">
<path fill-rule="evenodd" clip-rule="evenodd" d="M25.1669 51.0435L27.8818 51.403C27.8818 51.403 28.6905 52.8127 28.5819 53.5838C28.4738 54.3549 25.1208 56.3651 23.4125 56.2287C21.7047 56.0929 21.5986 54.5359 21.7196 53.9165C21.8406 53.2967 25.1669 51.0435 25.1669 51.0435Z" fill="#D7DCDA"/>
<path fill-rule="evenodd" clip-rule="evenodd" d="M22.9893 55.5792C24.6083 55.7081 28.0838 53.8412 28.5351 52.9897C28.5842 53.2045 28.6065 53.4102 28.5822 53.5838C28.4736 54.3549 25.1205 56.3651 23.4128 56.2292C22.4766 56.1544 22.0224 55.6531 21.822 55.1131C22.0848 55.358 22.4597 55.537 22.9893 55.5792Z" fill="#FEFDFC"/>
<path fill-rule="evenodd" clip-rule="evenodd" d="M28.1311 51.8882C28.32 52.2631 28.5352 52.9895 28.5352 52.9895C28.3676 53.3778 27.4354 53.9545 27.4354 53.9545C26.9083 52.6627 28.1311 51.8882 28.1311 51.8882Z" fill="#FEFDFC"/>
<path fill-rule="evenodd" clip-rule="evenodd" d="M22.783 52.8008C24.0123 54.0132 23.6905 55.537 23.6905 55.537L23.4971 56.2322C23.4688 56.2312 23.4401 56.2312 23.4128 56.2287C21.7045 56.0928 21.5989 54.5358 21.7199 53.9165C21.763 53.6943 22.2177 53.2629 22.783 52.8008Z" fill="#FEFDFC"/>
<path fill-rule="evenodd" clip-rule="evenodd" d="M24.3921 51.5845C24.3921 51.5845 25.7404 52.7126 25.7404 52.9213C25.7404 53.1301 25.2113 53.6394 24.9242 53.6394C24.6366 53.6394 23.4802 52.2534 23.4802 52.2534C23.7748 51.6038 24.3921 51.5845 24.3921 51.5845Z" fill="#FEFDFC"/>
<path fill-rule="evenodd" clip-rule="evenodd" d="M25.7762 49.937L27.2053 49.939C27.2053 49.939 27.6337 49.9415 27.8905 50.1379C28.1474 50.3342 28.2168 51.0751 27.8236 51.4678C27.4309 51.861 26.4243 52.0162 25.9219 51.7703C25.2114 51.4227 24.9391 50.7275 25.0755 50.3645C25.2565 49.881 25.7762 49.937 25.7762 49.937Z" fill="#A2A5A5"/>
<path fill-rule="evenodd" clip-rule="evenodd" d="M34.2588 53.5344C33.881 53.2071 31.6853 52.7152 31.2717 53.4625C30.8235 54.2732 30.9504 58.6403 31.7666 59.5017C32.5828 60.3635 35.5545 59.6871 35.7588 58.5759C35.9626 57.4651 34.6367 53.8617 34.2588 53.5344Z" fill="#D7DCDA"/>
<path fill-rule="evenodd" clip-rule="evenodd" d="M34.2987 55.0264C34.1697 54.9054 32.2349 55.3928 32.1441 55.5649C32.0534 55.737 32.1441 56.3196 32.2954 56.3866C32.4466 56.454 34.4038 55.9914 34.4568 55.8426C34.5099 55.6938 34.4276 55.1474 34.2987 55.0264Z" fill="#FEFDFC"/>
<path fill-rule="evenodd" clip-rule="evenodd" d="M34.1395 52.6C33.8673 52.2599 33.5306 52.2207 33.5306 52.2207L31.9091 52.3124C31.9091 52.3124 31.4113 52.4736 31.1242 52.91C30.905 53.2427 31.0924 54.104 31.6909 54.4819C32.289 54.8597 33.5703 54.7338 33.9804 54.1452C34.4772 53.4321 34.2789 52.7741 34.1395 52.6Z" fill="#A2A5A5"/>
<path fill-rule="evenodd" clip-rule="evenodd" d="M27.0332 28.0659C26.8894 27.7823 25.5143 27.2646 25.196 27.456C24.8781 27.6474 22.2599 35.6815 22.2599 35.6815C22.2599 35.6815 20.93 36.4238 20.9628 38.14C20.9836 39.2383 21.8275 39.8393 22.6993 40.0624C23.571 40.2856 23.753 37.9213 23.753 37.9213C23.753 37.9213 23.871 38.0205 24.4066 38.077C24.9416 38.134 25.4449 37.8692 25.4147 37.5697C25.3849 37.2702 24.0242 36.3152 24.0242 36.3152C24.0242 36.3152 27.177 28.3496 27.0332 28.0659Z" fill="#F3B679"/>
<path fill-rule="evenodd" clip-rule="evenodd" d="M25.196 27.456C25.131 27.4951 24.9684 27.8661 24.7532 28.4254C25.0552 28.768 25.612 29.2272 26.5869 29.5783C26.8829 28.7378 27.0704 28.1398 27.0332 28.0659C26.8894 27.7828 25.5138 27.2646 25.196 27.456Z" fill="#D58F66"/>
<path fill-rule="evenodd" clip-rule="evenodd" d="M28.4064 22.9282L26.2841 28.72C24.8421 28.0173 24.7291 27.2844 24.8233 26.9264C25.3598 24.8929 28.4064 22.9282 28.4064 22.9282Z" fill="#D7DCDA"/>
<path fill-rule="evenodd" clip-rule="evenodd" d="M26.2842 28.7203C24.8417 28.0176 24.7291 27.2842 24.8233 26.9267C24.8709 26.7462 24.9394 26.5662 25.0227 26.3877C25.4402 27.1374 26.0675 27.6541 26.5584 27.971L26.2842 28.7203Z" fill="#C3C8C7"/>
<path fill-rule="evenodd" clip-rule="evenodd" d="M19.6184 34.1919C19.6214 34.1473 19.6278 34.1042 19.6363 34.0615C19.6278 34.1037 19.6219 34.1473 19.6184 34.1919Z" fill="#E57472"/>
<path fill-rule="evenodd" clip-rule="evenodd" d="M19.6258 34.4451C19.6219 34.4178 19.6209 34.391 19.6184 34.3643C19.6204 34.391 19.6229 34.4178 19.6258 34.4451Z" fill="#E57472"/>
<path fill-rule="evenodd" clip-rule="evenodd" d="M33.1907 36.2344H31.0356C31.0356 36.2344 31.8166 52.9962 32.0244 53.2843C32.2322 53.5729 33.3132 53.4931 33.4912 53.2238C33.6692 52.954 33.1907 36.2344 33.1907 36.2344Z" fill="#F3B679"/>
<path fill-rule="evenodd" clip-rule="evenodd" d="M28.7077 35.9359L26.6028 35.2124C26.6028 35.2124 25.7871 50.2912 25.9948 50.5793C26.2026 50.8674 27.1254 51.0504 27.3034 50.7807C27.4814 50.5114 28.7077 35.9359 28.7077 35.9359Z" fill="#F3B679"/>
<path fill-rule="evenodd" clip-rule="evenodd" d="M25.6499 35.8389C25.6499 35.8389 24.7896 42.9962 24.7896 43.8724C24.7896 45.2613 28.9648 45.5341 29.3912 45.2613C29.8172 44.9881 29.8172 36.6868 29.8172 36.6868L25.6499 35.8389Z" fill="#FEFDFC"/>
<path fill-rule="evenodd" clip-rule="evenodd" d="M28.4065 45.3508C28.8984 45.3657 29.2782 45.3335 29.3908 45.2611C29.6536 45.0925 29.7543 41.8768 29.7929 39.4321L28.4065 45.3508Z" fill="#D7DCDA"/>
<path fill-rule="evenodd" clip-rule="evenodd" d="M29.2555 37.3158C29.2555 37.3158 29.1692 44.7305 29.2763 45.6002C29.4454 46.9787 34.0833 46.2949 34.4735 45.9721C34.8633 45.6488 34.1061 37.0063 34.1061 37.0063L29.2555 37.3158Z" fill="#FEFDFC"/>
<path fill-rule="evenodd" clip-rule="evenodd" d="M34.205 38.1977C34.1351 37.3166 34.1059 37.0061 34.1059 37.0061L29.8156 37.2799C29.8171 36.9095 29.8171 36.6868 29.8171 36.6868L25.6498 35.8384C25.6498 35.8384 25.6002 36.248 25.511 37.0061C28.0488 38.9331 32.9212 38.6167 34.205 38.1977Z" fill="#D7DCDA"/>
<path fill-rule="evenodd" clip-rule="evenodd" d="M30.7833 21.5136C34.7656 21.7169 35.2491 36.827 34.4726 37.3818C33.6961 37.9367 26.7837 38.2813 24.6103 35.2119C24.0157 34.3719 26.801 21.3103 30.7833 21.5136Z" fill="#FEFDFC"/>
<path fill-rule="evenodd" clip-rule="evenodd" d="M32.2258 23.6458C32.2258 23.6458 31.0342 25.0333 29.7251 24.7868C28.4066 24.5389 28.6714 23.019 28.6714 23.019L32.2258 23.6458Z" fill="#D7DCDA"/>
<path fill-rule="evenodd" clip-rule="evenodd" d="M31.9874 23.1078C31.9874 23.1078 30.9713 24.7606 29.7252 24.291C28.734 23.9176 29.0776 22.4736 29.0776 22.4736L31.9874 23.1078Z" fill="#D58F66"/>
<path fill-rule="evenodd" clip-rule="evenodd" d="M23.7119 18.8867C25.2605 23.1507 32.3043 24.2956 34.1519 23.3208C36.6878 21.9834 37.9884 17.5851 37.9884 17.5851L25.6592 6.66309C25.6592 6.66309 22.7445 16.2224 23.7119 18.8867Z" fill="#F3B679"/>
<path fill-rule="evenodd" clip-rule="evenodd" d="M25.6591 16.9221C25.6591 16.4569 25.3884 16.0796 25.0542 16.0796C24.72 16.0796 24.4492 16.4569 24.4492 16.9221C24.4492 17.3872 24.72 17.7645 25.0542 17.7645C25.3884 17.7645 25.6591 17.3872 25.6591 16.9221Z" fill="#050000"/>
<path fill-rule="evenodd" clip-rule="evenodd" d="M31.6254 19.7624C31.6254 19.2973 31.3547 18.9199 31.0205 18.9199C30.6863 18.9199 30.4155 19.2973 30.4155 19.7624C30.4155 20.2275 30.6863 20.6049 31.0205 20.6049C31.3547 20.6049 31.6254 20.2275 31.6254 19.7624Z" fill="#050000"/>
<path fill-rule="evenodd" clip-rule="evenodd" d="M33.1986 31.0986C33.3662 30.8283 34.7804 30.4296 35.0809 30.6478C35.3814 30.8655 37.3044 39.0939 37.3044 39.0939C37.3044 39.0939 38.5659 39.9468 38.3869 41.6541C38.2723 42.747 37.3798 43.2731 36.4927 43.4214C35.6051 43.5691 35.794 41.1349 35.794 41.1349C35.794 41.1349 35.4994 41.2867 34.9614 41.2976C34.4229 41.3085 33.9444 41.0015 33.9999 40.7055C34.0555 40.41 35.4925 39.5744 35.4925 39.5744C35.4925 39.5744 33.031 31.3688 33.1986 31.0986Z" fill="#F3B679"/>
<path fill-rule="evenodd" clip-rule="evenodd" d="M33.2645 24.3541C33.995 24.6893 36.5184 29.5528 35.9363 30.255C35.6611 30.5872 32.9779 31.2903 32.5158 31.1059C32.0536 30.9209 31.4353 26.3267 31.766 25.2521C32.0973 24.1771 33.2645 24.3541 33.2645 24.3541Z" fill="#D7DCDA"/>
<path fill-rule="evenodd" clip-rule="evenodd" d="M33.1988 31.0986C33.3664 30.8283 34.7806 30.4296 35.0811 30.6478C35.1243 30.6786 35.2011 30.8779 35.2998 31.1893C34.7286 31.3951 33.9024 31.6078 33.2841 31.7025C33.2087 31.3604 33.1735 31.1392 33.1988 31.0986Z" fill="#D58F66"/>
<path fill-rule="evenodd" clip-rule="evenodd" d="M35.9545 29.415C36.0448 29.8132 36.0517 30.1157 35.9367 30.255C35.6615 30.5873 32.9778 31.2904 32.5157 31.1055C32.4205 31.0678 32.3223 30.7911 32.2256 30.3755C33.071 30.3349 35.2762 29.7527 35.9545 29.415Z" fill="#C3C8C7"/>
<path fill-rule="evenodd" clip-rule="evenodd" d="M37.7021 18.4086C37.7021 18.4086 39.0072 18.3461 39.2537 19.2679C39.4387 19.9617 39.1848 21.1195 38.4821 21.4369C37.7795 21.7537 36.4431 20.9876 36.4431 20.9876L37.7021 18.4086Z" fill="#F3B679"/>
<path fill-rule="evenodd" clip-rule="evenodd" d="M23.6726 15.3177C26.7078 15.2597 29.9339 13.1334 29.9339 13.1334C29.9339 13.1334 30.0857 15.223 30.7516 15.584C31.962 16.2405 34.0184 15.584 34.0184 15.584L35.8075 10.3774L24.7209 10.0952C24.7209 10.0952 24.167 11.557 23.6726 15.3177Z" fill="#D58F66"/>
<path fill-rule="evenodd" clip-rule="evenodd" d="M22.8706 9.17013C22.8706 9.17013 20.2569 6.92385 21.0756 5.31526C21.8943 3.70716 25.5682 4.90022 25.5682 4.90022C25.5682 4.90022 24.3414 2.02865 26.064 0.567323C27.1306 -0.337636 32.1315 4.50303 32.1315 4.50303C32.1315 4.50303 33.4277 1.02699 34.2062 1.28584C36.745 2.12931 36.6067 7.11724 36.6067 7.11724C36.6067 7.11724 39.6196 8.27658 39.6196 10.57C39.6196 12.1012 37.5017 10.8819 37.5017 10.8819C37.5017 10.8819 38.4067 13.4589 38.4092 15.9318C38.4116 18.4414 37.0698 19.2263 36.0225 18.7518C33.9429 17.8096 33.8477 14.2533 33.8477 14.2533C33.8477 14.2533 32.1022 14.8339 31.3877 14.5825C30.6731 14.3306 30.8159 11.2949 30.8159 11.2949C30.8159 11.2949 25.1789 15.661 21.7713 14.0936C18.3637 12.5257 22.8706 9.17013 22.8706 9.17013Z" fill="#5C4555"/>
<path fill-rule="evenodd" clip-rule="evenodd" d="M26.0639 0.567323C27.1305 -0.337636 32.1318 4.50302 32.1318 4.50302C32.1318 4.50302 33.4275 1.02699 34.2065 1.28584C36.7449 2.12931 36.607 7.11724 36.607 7.11724C36.607 7.11724 36.2192 4.92352 33.6809 4.07955C32.9019 3.82071 32.2979 6.06898 32.2979 6.06898C32.2979 6.06898 27.967 2.20418 26.6911 2.77691C25.632 3.25245 25.568 4.90021 25.568 4.90021C25.568 4.90021 24.3417 2.02864 26.0639 0.567323Z" fill="#463141"/>
<path fill-rule="evenodd" clip-rule="evenodd" d="M35.7201 57.6797C33.8571 56.7797 31.8597 57.9117 31.342 58.5465C31.4541 58.9754 31.5944 59.3195 31.767 59.502C32.5832 60.3633 35.5544 59.687 35.7587 58.5762C35.7984 58.359 35.7786 58.0446 35.7201 57.6797Z" fill="#FEFDFC"/>
<path fill-rule="evenodd" clip-rule="evenodd" d="M32.2754 21.7492C32.2754 21.1428 32.685 20.6509 33.1908 20.6509C33.6961 20.6509 34.1061 21.1428 34.1061 21.7492C34.1061 22.3557 33.6961 22.8476 33.1908 22.8476C32.685 22.8476 32.2754 22.3557 32.2754 21.7492Z" fill="#EB8E71"/>
</svg>
