<svg width="60" height="61" viewBox="0 0 60 61" fill="none" xmlns="http://www.w3.org/2000/svg">
<g clip-path="url(#clip0_18_15509)">
<path d="M30.9375 43.2461C42.8461 43.2461 52.5 33.5922 52.5 21.6836C52.5 9.77495 42.8461 0.121094 30.9375 0.121094C19.0289 0.121094 9.375 9.77495 9.375 21.6836C9.375 33.5922 19.0289 43.2461 30.9375 43.2461Z" fill="#EDEBDC"/>
<path d="M6.5625 16.0586V17.9336" stroke="#4C241D" stroke-width="1.875" stroke-linecap="round" stroke-linejoin="round"/>
<path d="M6.5625 21.6836V23.5586" stroke="#4C241D" stroke-width="1.875" stroke-linecap="round" stroke-linejoin="round"/>
<path d="M20.4169 44.1836H44.2706C46.4532 44.1836 48.5464 45.0506 50.0897 46.5939C51.633 48.1372 52.5 50.2304 52.5 52.413V57.3086H12.1875V52.413C12.1875 50.2304 13.0545 48.1372 14.5978 46.5939C16.1411 45.0506 18.2343 44.1836 20.4169 44.1836Z" fill="#9DC1E4" stroke="#4C241D" stroke-width="1.875" stroke-linecap="round" stroke-linejoin="round"/>
<path d="M30 57.3086H26.25L31.875 46.0586H35.625L30 57.3086Z" fill="white" stroke="#4C241D" stroke-width="1.875" stroke-linecap="round" stroke-linejoin="round"/>
<path d="M55.3125 36.6836H10.3125V40.6548C10.3124 41.3645 10.4521 42.0672 10.7236 42.7229C10.9951 43.3786 11.3931 43.9743 11.8949 44.4761C12.3968 44.978 12.9925 45.376 13.6482 45.6475C14.3038 45.919 15.0066 46.0587 15.7162 46.0586L31.875 51.6836L49.9088 46.0586C50.6184 46.0587 51.3212 45.919 51.9768 45.6475C52.6325 45.376 53.2282 44.978 53.7301 44.4761C54.2319 43.9743 54.6299 43.3786 54.9014 42.7229C55.1729 42.0672 55.3126 41.3645 55.3125 40.6548V36.6836Z" fill="#9DC1E4" stroke="#4C241D" stroke-width="1.875" stroke-linecap="round" stroke-linejoin="round"/>
<path d="M2.8125 19.8086H4.6875" stroke="#4C241D" stroke-width="1.875" stroke-linecap="round" stroke-linejoin="round"/>
<path d="M8.4375 19.8086H10.3125" stroke="#4C241D" stroke-width="1.875" stroke-linecap="round" stroke-linejoin="round"/>
<path d="M52.0312 8.55859C53.3257 8.55859 54.375 7.50926 54.375 6.21484C54.375 4.92043 53.3257 3.87109 52.0312 3.87109C50.7368 3.87109 49.6875 4.92043 49.6875 6.21484C49.6875 7.50926 50.7368 8.55859 52.0312 8.55859Z" stroke="#4C241D" stroke-width="1.875" stroke-linecap="round" stroke-linejoin="round"/>
<path d="M13.11 7.31395C13.6635 7.31395 14.1122 6.86525 14.1122 6.31176C14.1122 5.75827 13.6635 5.30957 13.11 5.30957C12.5565 5.30957 12.1078 5.75827 12.1078 6.31176C12.1078 6.86525 12.5565 7.31395 13.11 7.31395Z" fill="#4C241D"/>
<path d="M32.8125 42.3086C45.2389 42.3086 55.3125 39.7902 55.3125 36.6836C55.3125 33.577 45.2389 31.0586 32.8125 31.0586C20.3861 31.0586 10.3125 33.577 10.3125 36.6836C10.3125 39.7902 20.3861 42.3086 32.8125 42.3086Z" fill="#6B4F5B" stroke="#4C241D" stroke-width="1.875" stroke-linecap="round" stroke-linejoin="round"/>
<path d="M5.60998 29.8139C6.16347 29.8139 6.61216 29.3653 6.61216 28.8118C6.61216 28.2583 6.16347 27.8096 5.60998 27.8096C5.05648 27.8096 4.60779 28.2583 4.60779 28.8118C4.60779 29.3653 5.05648 29.8139 5.60998 29.8139Z" fill="#4C241D"/>
<path d="M45 12.3086V9.63016C45 8.10276 44.3932 6.63792 43.3132 5.55788C42.2332 4.47785 40.7683 3.87109 39.2409 3.87109H25.4466C23.9192 3.87109 22.4543 4.47785 21.3743 5.55788C20.2943 6.63792 19.6875 8.10276 19.6875 9.63016V12.3086" fill="#9DC1E4"/>
<path d="M45 12.3086V9.63016C45 8.10276 44.3932 6.63792 43.3132 5.55788C42.2332 4.47785 40.7683 3.87109 39.2409 3.87109H25.4466C23.9192 3.87109 22.4543 4.47785 21.3743 5.55788C20.2943 6.63792 19.6875 8.10276 19.6875 9.63016V12.3086" stroke="#4C241D" stroke-width="1.875" stroke-linecap="round" stroke-linejoin="round"/>
<path d="M45.9375 16.8184H18.75V30.1215H45.9375V16.8184Z" fill="#FFE8DC" stroke="#4C241D" stroke-width="1.875" stroke-linecap="round" stroke-linejoin="round"/>
<path d="M39.3488 12.3086H45C45.9946 12.3086 46.9484 12.7037 47.6516 13.4069C48.3549 14.1102 48.75 15.064 48.75 16.0586C48.75 17.0532 48.3549 18.007 47.6516 18.7102C46.9484 19.4135 45.9946 19.8086 45 19.8086H19.6875C18.6929 19.8086 17.7391 19.4135 17.0359 18.7102C16.3326 18.007 15.9375 17.0532 15.9375 16.0586C15.9375 15.064 16.3326 14.1102 17.0359 13.4069C17.7391 12.7037 18.6929 12.3086 19.6875 12.3086H34.6875" fill="white"/>
<path d="M39.3488 12.3086H45C45.9946 12.3086 46.9484 12.7037 47.6516 13.4069C48.3549 14.1102 48.75 15.064 48.75 16.0586C48.75 17.0532 48.3549 18.007 47.6516 18.7102C46.9484 19.4135 45.9946 19.8086 45 19.8086H19.6875C18.6929 19.8086 17.7391 19.4135 17.0359 18.7102C16.3326 18.007 15.9375 17.0532 15.9375 16.0586C15.9375 15.064 16.3326 14.1102 17.0359 13.4069C17.7391 12.7037 18.6929 12.3086 19.6875 12.3086H34.6875" stroke="#4C241D" stroke-width="1.875" stroke-linecap="round" stroke-linejoin="round"/>
<path d="M37.0312 25.0919C37.6194 25.0919 38.0963 24.6151 38.0963 24.0269C38.0963 23.4387 37.6194 22.9619 37.0312 22.9619C36.4431 22.9619 35.9662 23.4387 35.9662 24.0269C35.9662 24.6151 36.4431 25.0919 37.0312 25.0919Z" fill="#4C241D"/>
<path d="M27.6562 25.0919C28.2444 25.0919 28.7212 24.6151 28.7212 24.0269C28.7212 23.4387 28.2444 22.9619 27.6562 22.9619C27.0681 22.9619 26.5912 23.4387 26.5912 24.0269C26.5912 24.6151 27.0681 25.0919 27.6562 25.0919Z" fill="#4C241D"/>
<path d="M41.1328 30.1211C40.527 29.4289 39.7717 28.8836 38.924 28.5263C38.0763 28.1689 37.1585 28.009 36.24 28.0586C35.5573 28.1376 34.899 28.36 34.3083 28.7112C33.7176 29.0625 33.2079 29.5346 32.8125 30.0968C32.4171 29.5346 31.9074 29.0625 31.3167 28.7112C30.726 28.36 30.0677 28.1376 29.385 28.0586C28.4665 28.009 27.5487 28.1689 26.701 28.5263C25.8534 28.8836 25.098 29.4289 24.4922 30.1211H18.75V34.3399C18.75 37.9452 20.1822 41.4028 22.7315 43.9521C25.2808 46.5014 28.7385 47.9336 32.3438 47.9336C35.949 47.9336 39.4067 46.5014 41.956 43.9521C44.5053 41.4028 45.9375 37.9452 45.9375 34.3399V30.1211H41.1328Z" fill="white" stroke="#4C241D" stroke-width="1.875" stroke-linecap="round" stroke-linejoin="round"/>
<path d="M30.9375 33.8711H34.6875" stroke="#4C241D" stroke-width="1.875" stroke-linecap="round" stroke-linejoin="round"/>
<path d="M32.3437 8.52528L29.0292 11.8398L32.3437 15.1544L35.6583 11.8398L32.3437 8.52528Z" fill="#BD53B5" stroke="#4C241D" stroke-width="1.875" stroke-linecap="round" stroke-linejoin="round"/>
</g>
<defs>
<clipPath id="clip0_18_15509">
<rect width="60" height="60" fill="white" transform="translate(0 0.121094)"/>
</clipPath>
</defs>
</svg>
