<svg width="60" height="60" viewBox="0 0 60 60" fill="none" xmlns="http://www.w3.org/2000/svg">
<path d="M58.5287 51.6476L56.4178 42.5455C55.7702 41.88 55.0081 41.324 54.1265 40.8696C49.7013 38.6026 45.123 36.7206 40.4939 34.9446C40.149 34.8136 39.7347 34.5496 39.5923 34.2476C39.3533 33.7202 39.1658 33.1721 38.9884 32.6211C38.6921 32.9545 38.3315 33.2286 37.915 33.4204L35.7962 34.3971C35.3639 34.5954 34.9031 34.6984 34.428 34.6984C33.1507 34.6984 31.9807 33.9492 31.4469 32.7907L31.0526 31.9355C30.2869 32.0264 29.5162 32.0593 28.7427 32.0236L28.4157 32.9095C28.113 33.7302 27.5076 34.385 26.7119 34.7514C26.2789 34.9503 25.8174 35.0526 25.3422 35.0526C24.9544 35.0526 24.5716 34.9832 24.2052 34.8487L22.0169 34.0408C21.4316 33.824 20.9378 33.4504 20.5665 32.9688C20.4262 33.3817 20.2774 33.7903 20.1164 34.1961C20.0155 34.4479 19.7643 34.7056 19.5167 34.8186C18.0834 35.4397 16.6193 36.0172 15.1724 36.6226C13.6346 37.2702 12.0797 37.8892 10.577 38.6026C9.02772 39.3454 7.52214 40.1769 6.00654 40.9926C5.1135 41.4699 4.27913 41.9995 3.58215 42.6557L1.47119 51.6462C11.7541 51.6462 17.1238 59.0832 27.8232 59.9992L23.881 54.5579L29.9949 37.8355L28.1037 33.7732H31.8912L29.9949 37.8355L36.1096 54.5579L32.2698 59.8668C40.0603 58.5644 52.4964 51.6476 58.5287 51.6476Z" fill="black"/>
<path d="M14.0962 14.2199L15.8265 14.8597C15.6905 16.1205 15.7349 17.4079 15.9725 18.6873L14.3009 19.4566C13.2576 19.9374 12.7996 21.1775 13.2805 22.2201L14.2565 24.3397C14.7367 25.383 15.9768 25.841 17.0201 25.3601L18.6917 24.5901C19.5096 25.6027 20.4585 26.4728 21.5068 27.1891L20.8678 28.918C20.6739 29.4396 20.696 30.0057 20.9293 30.5116C21.1612 31.0168 21.5776 31.4025 22.1 31.5964L24.2882 32.4043C24.8099 32.5975 25.3759 32.5753 25.8818 32.3427C26.3878 32.1102 26.772 31.693 26.9638 31.172L27.6028 29.4411C28.8644 29.577 30.1517 29.5334 31.4305 29.2951L32.2004 30.9667C32.6813 32.01 33.9207 32.4687 34.9633 31.9878L37.0821 31.0118C38.1261 30.5309 38.5841 29.2915 38.1032 28.2475L37.3333 26.5759C38.3451 25.7572 39.2153 24.8091 39.9316 23.7622L41.6618 24.4012C42.1835 24.5951 42.7502 24.5715 43.2561 24.3383C43.7621 24.1064 44.1463 23.6899 44.3395 23.1683L45.1474 20.9793C45.546 19.9017 44.9921 18.7016 43.9145 18.303L42.1842 17.664C42.3202 16.4025 42.2765 15.1159 42.0389 13.8364L43.7105 13.0664C44.7539 12.5863 45.2118 11.3462 44.731 10.3021L43.7556 8.18402C43.2747 7.1407 42.0354 6.68202 40.9928 7.16289L39.3197 7.93357C38.5018 6.92102 37.553 6.05087 36.5054 5.33458L37.1451 3.60502C37.5429 2.52736 36.9898 1.3259 35.9121 0.928748L33.7239 0.120142C32.6791 -0.26484 31.4326 0.309771 31.0476 1.35309L30.4079 3.08336C29.147 2.9474 27.8597 2.99177 26.581 3.22862L25.811 1.55774C25.3308 0.513712 24.09 0.0557399 23.0467 0.53661L20.9286 1.51195C19.8853 1.99282 19.4273 3.23292 19.9075 4.27623L20.6781 5.94783C19.6663 6.76646 18.7962 7.71531 18.0792 8.76293L16.351 8.12463C15.3084 7.73678 14.059 8.31139 13.6733 9.35614L12.8654 11.5451C12.6729 12.0675 12.6951 12.6335 12.9277 13.1394C13.1595 13.6439 13.576 14.0289 14.0962 14.2199ZM26.0064 9.75186C29.6014 8.09672 33.8584 9.66742 35.5143 13.2625C37.1701 16.8576 35.5987 21.1146 32.0036 22.7704C28.4086 24.4256 24.1516 22.8549 22.4957 19.2598C20.8399 15.6647 22.4113 11.4084 26.0064 9.75186Z" fill="black"/>
</svg>
