<svg width="60" height="60" viewBox="0 0 60 60" fill="none" xmlns="http://www.w3.org/2000/svg">
<g clip-path="url(#clip0_16_15419)">
<path d="M57 0H3C1.34602 0 0 1.34602 0 3V12H60V3C60 1.34602 58.654 0 57 0ZM6.99996 11C4.79391 11 3 9.20602 3 7.00008C3 4.79414 4.79402 3 6.99996 3C9.2059 3 10.9999 4.79402 10.9999 6.99996C10.9999 9.2059 9.20602 11 6.99996 11ZM17 11C14.794 11 13.0001 9.20602 13.0001 7.00008C13.0001 4.79414 14.794 3 17 3C19.2061 3 21 4.79402 21 6.99996C21 9.2059 19.206 11 17 11ZM26 11C23.794 11 22.0001 9.20602 22.0001 7.00008C22.0001 4.79414 23.794 3 26 3C28.2061 3 30 4.79402 30 6.99996C30 9.2059 28.206 11 26 11Z" fill="black"/>
<path d="M7.00004 5C5.89707 5 5 5.89695 5 7.00004C5 8.10313 5.89707 8.99996 7.00004 8.99996C8.10301 8.99996 9.00008 8.10301 9.00008 6.99992C9.00008 5.89684 8.10312 5 7.00004 5Z" fill="black"/>
<path d="M17 5C15.8971 5 15 5.89695 15 7.00004C15 8.10313 15.897 8.99996 17 8.99996C18.103 8.99996 19.0001 8.10301 19.0001 6.99992C19.0001 5.89684 18.103 5 17 5Z" fill="black"/>
<path d="M0 57C0 58.6539 1.34602 60 3 60H57C58.654 60 60 58.6539 60 57V14H0V57ZM37.279 27.2929C37.67 26.9019 38.303 26.9019 38.693 27.2929L46.6399 35.2389C46.7589 35.3389 46.855 35.4679 46.917 35.617C47.072 35.9909 46.993 36.421 46.707 36.707L38.7 44.714C38.505 44.909 38.2489 45.007 37.993 45.007C37.737 45.007 37.481 44.909 37.286 44.714C36.895 44.323 36.895 43.69 37.286 43.3L44.5791 36.007L37.2791 28.707C36.889 28.316 36.889 27.684 37.279 27.2929ZM27.03 43.757L31.03 27.757C31.1639 27.222 31.708 26.897 32.243 27.03C32.7779 27.1639 33.1039 27.707 32.97 28.243L28.97 44.2429C28.856 44.6969 28.449 45 28.001 45C27.92 45 27.8391 44.9909 27.757 44.97C27.222 44.836 26.8961 44.293 27.03 43.757ZM13.293 35.293L21.3 27.286C21.69 26.8951 22.323 26.8951 22.714 27.286C23.104 27.6771 23.104 28.31 22.714 28.7L15.4209 35.993L22.7209 43.293C23.1109 43.6841 23.1109 44.3161 22.7209 44.707C22.5248 44.902 22.2698 45 22.0139 45C21.7579 45 21.5019 44.902 21.3069 44.707L13.36 36.761C13.241 36.661 13.1449 36.532 13.0829 36.3829C12.928 36.009 13.007 35.5789 13.293 35.293Z" fill="black"/>
<path d="M26 5C24.8971 5 24 5.89695 24 7.00004C24 8.10313 24.897 8.99996 26 8.99996C27.103 8.99996 28.0001 8.10301 28.0001 6.99992C28.0001 5.89684 27.103 5 26 5Z" fill="black"/>
</g>
<defs>
<clipPath id="clip0_16_15419">
<rect width="60" height="60" fill="white"/>
</clipPath>
</defs>
</svg>
