<svg width="60" height="60" viewBox="0 0 60 60" fill="none" xmlns="http://www.w3.org/2000/svg">
<path d="M30 6.5625C17.0559 6.5625 6.5625 17.0559 6.5625 30H53.4375C53.4375 17.0559 42.9441 6.5625 30 6.5625Z" fill="#6BC4D2"/>
<path d="M30 53.4375C42.9441 53.4375 53.4375 42.9441 53.4375 30H6.5625C6.5625 42.9441 17.0559 53.4375 30 53.4375Z" fill="#508D9B"/>
<path d="M27.795 35.1016C27.5869 35.2601 16.1878 48.1863 16.1878 48.1863C16.1878 48.1863 12.6281 48.1226 12.1209 45.1254C12.8888 44.6116 24.0497 33.5604 24.4922 32.4973C24.4913 33.2248 25.6641 34.6498 27.795 35.1016ZM49.1025 26.412C45.6056 31.6966 41.4638 36.3401 38.7713 35.4663C37.9059 35.1851 37.2009 34.4041 36.6309 33.2838C36.4491 33.3841 36.2888 33.4695 36.18 33.5154C35.8809 33.642 35.4113 33.7704 34.8525 33.8951C35.7891 35.8263 37.2713 37.4426 39.4163 37.4426C43.8281 37.4416 48.8869 30.4788 52.0641 25.2532C51.1163 25.6573 50.7366 25.8485 49.1025 26.412ZM32.7253 22.3385L33.0759 27.0654L33.765 27.2173C33.9666 27.2613 34.1747 27.2398 34.3613 27.1516L34.9688 26.8976L34.5609 19.002L32.7253 22.3385Z" fill="#644638"/>
<path d="M16.1869 48.1865C16.2909 47.9924 27.6328 35.2246 27.7941 35.1018C26.7656 34.8834 26.07 34.4915 25.5825 34.0762L13.5975 47.3877C14.7703 48.1593 16.1869 48.1865 16.1869 48.1865Z" fill="#4B322A"/>
<path d="M31.1644 25.7632L29.9522 23.2957L32.7253 18.4404L34.3809 19.3367C34.0725 19.9067 31.0434 25.1951 31.1644 25.7632ZM27.795 35.1017C27.9253 35.0023 28.0706 34.9273 28.2366 34.9076C29.6222 34.7464 34.7634 34.1164 36.1809 33.5136C37.4241 32.9857 44.0719 28.4698 44.0719 28.4698L42.8616 26.382L34.3041 30.5754C33.9141 30.7667 33.4941 30.8886 33.0619 30.9354L29.3222 31.3451C28.4063 31.4454 27.5597 31.8795 26.9438 32.5639L25.5816 34.0761C26.0709 34.4914 26.7656 34.8832 27.795 35.1017Z" fill="#BE5652"/>
<path d="M41.5641 24.1436L34.3622 27.1511C34.1756 27.2383 33.9675 27.2608 33.7659 27.2167L32.1037 26.8501C31.8591 26.7958 31.6453 26.6467 31.5122 26.4339L29.9531 23.2951L34.6716 15.0329L36.6966 9.31982L34.14 9.33107C33.6722 9.3442 33.2859 9.69764 33.2353 10.1626C33.0947 11.4629 32.76 13.9698 32.1881 14.9036C31.4006 16.1879 26.2378 22.0267 25.7653 23.2895C25.3275 24.4604 24.7584 30.7117 24.4922 32.4967C24.4922 32.4967 24.7706 33.6611 25.5788 34.0811L26.9456 32.5633C27.5616 31.8789 28.4081 31.4448 29.3241 31.3445L33.0638 30.9348C33.495 30.888 33.9159 30.7661 34.3059 30.5748L42.8634 26.3814L41.5641 24.1436Z" fill="#FF786E"/>
<path d="M8.66907 52.86L6.26063 50.9203C5.84719 50.6044 5.77032 50.0119 6.08907 49.6013L8.21625 46.8591C8.31844 46.7269 8.45532 46.6247 8.61 46.5628C8.75625 46.5047 11.9916 45.2316 12.1228 45.1453C12.3131 46.2403 12.9131 46.9416 13.5947 47.3897L8.66907 52.86ZM56.6653 19.7644L55.23 18.1491C54.9188 17.7984 54.3966 17.73 54.0075 17.9925C51.9722 19.365 49.8966 20.7056 47.7253 21.8559C45.7791 22.8872 43.65 23.4675 41.5631 24.1434L42.8606 26.3822L56.6653 19.7644ZM36.6956 9.31969L34.6706 15.0328L32.7244 18.4397L34.38 19.3359C36.3225 15.7472 35.2716 17.3334 38.9438 12.555C39.2306 12.1819 39.1959 11.6531 38.8631 11.3203L37.08 9.53906C36.9984 9.45656 36.8053 9.36375 36.6956 9.31969ZM15 7.5C12.9291 7.5 11.25 9.17906 11.25 11.25C11.25 13.3209 12.9291 15 15 15C17.0709 15 18.75 13.3209 18.75 11.25C18.75 9.17906 17.0709 7.5 15 7.5Z" fill="#FFC865"/>
<path d="M11.4759 55.1193L8.66907 52.859L13.5966 47.3868C14.7703 48.1584 16.1869 48.1856 16.1869 48.1856L14.9588 51.7968C14.9184 51.8718 12.8653 54.8371 12.8175 54.9074C12.5128 55.3481 11.9016 55.4446 11.4759 55.1193ZM44.0719 28.4709C46.1803 27.2137 48.7519 26.6418 51.0216 25.6996C52.4644 25.1006 53.8959 24.4734 55.3041 23.7965C56.0897 23.4196 59.0175 22.4137 57.885 21.1387L56.6653 19.7653C41.8416 26.8668 43.6022 26.0203 42.8616 26.3831L44.0719 28.4709ZM14.4422 7.55713C13.0856 7.76432 11.8884 8.69619 11.4356 10.0903C10.7953 12.059 11.8734 14.1749 13.8422 14.8143C15.2363 15.2671 16.6941 14.8481 17.6597 13.8712C14.0981 14.4149 11.9109 10.1165 14.4422 7.55713Z" fill="#BE9148"/>
</svg>
