<svg width="60" height="61" viewBox="0 0 60 61" fill="none" xmlns="http://www.w3.org/2000/svg">
<g clip-path="url(#clip0_16_7336)">
<path d="M51.8599 10.9135L49.2087 8.26211C48.7217 7.77331 47.9289 7.77331 47.4418 8.26211L17.5358 38.1662C17.3014 38.4006 17.1696 38.7192 17.1696 39.0506C17.1696 39.382 17.3014 39.7007 17.5358 39.935L20.1871 42.5863C20.4325 42.8299 20.751 42.9526 21.0715 42.9526C21.3919 42.9526 21.7105 42.8299 21.9558 42.5863L51.8599 12.6804C52.0943 12.446 52.2261 12.1292 52.2261 11.7961C52.2261 11.4647 52.0943 11.1479 51.8599 10.9135Z" fill="#CCD1D9"/>
<path d="M23.2815 42.1435L17.977 36.8408C17.49 36.3539 16.6989 36.3539 16.21 36.8408L1.46487 51.5859C0.521845 52.5307 0 53.7851 0 55.1216C0 56.4566 0.521845 57.7126 1.46487 58.6574C2.40965 59.6004 3.66581 60.1204 5.0006 60.1204C6.33726 60.1204 7.59142 59.6003 8.5362 58.6574L23.2815 43.9122C23.5158 43.6778 23.6477 43.3592 23.6477 43.0278C23.6477 42.6964 23.5158 42.3777 23.2815 42.1435ZM5.88502 56.0042C5.39623 56.4931 4.6052 56.4931 4.11628 56.0042C3.62924 55.5172 3.62924 54.7261 4.11628 54.2372C4.6052 53.7484 5.39623 53.7484 5.88502 54.2372C6.37206 54.7261 6.37206 55.5172 5.88502 56.0042Z" fill="#48CFAD"/>
<path d="M59.0723 13.9418L52.7169 12.2425L59.0742 10.5343C59.7408 10.3549 60.1362 9.67 59.9567 9.00167C59.7773 8.3351 59.0925 7.9397 58.426 8.11912L52.0596 9.83114L56.7214 5.16758C57.2103 4.67867 57.2103 3.88775 56.7214 3.4006C56.2343 2.9118 55.4434 2.9118 54.9545 3.4006L50.3054 8.04951L52.0027 1.69408C52.1804 1.02751 51.7849 0.342886 51.1183 0.165227C50.45 -0.0141902 49.7653 0.383082 49.5877 1.04954L47.8867 7.41235L46.1784 1.04778C45.999 0.381325 45.3141 -0.0141902 44.6477 0.165344C43.9812 0.344879 43.5857 1.0295 43.7651 1.69607L45.4716 8.06076L40.8116 3.40071C40.3247 2.91192 39.5336 2.91192 39.0447 3.40071C38.5558 3.88775 38.5558 4.68054 39.0447 5.1677L46.1162 12.239L45.2318 13.1235L38.1603 6.05213C37.6733 5.56321 36.8804 5.56321 36.3934 6.05213C35.9045 6.53917 35.9045 7.33195 36.3934 7.81899L43.4648 14.8903L42.5803 15.7748L35.509 8.70331C35.0201 8.21439 34.2292 8.21439 33.7421 8.70331C33.2532 9.19222 33.2532 9.98325 33.7421 10.4703L40.8116 17.5416L39.9292 18.4261L32.8577 11.3546C32.3689 10.8658 31.5779 10.8658 31.089 11.3546C30.6019 11.8435 30.6019 12.6344 31.089 13.1233L38.1603 20.1929L37.2759 21.0772L30.2064 14.0059C29.7175 13.5189 28.9265 13.5189 28.4377 14.0059C27.9506 14.4948 27.9506 15.2857 28.4377 15.7746L36.3934 23.7285L44.3473 31.6843C44.5927 31.9278 44.9112 32.0505 45.2318 32.0505C45.5523 32.0505 45.8708 31.9278 46.1162 31.6843C46.6032 31.1954 46.6032 30.4044 46.1162 29.9156L39.0447 22.8441L39.9292 21.9615L46.9987 29.0311C47.2441 29.2765 47.5627 29.3973 47.8832 29.3973C48.2034 29.3973 48.524 29.2765 48.7675 29.0311C49.2545 28.5441 49.2545 27.7531 48.7675 27.2641L41.696 20.1928L42.5803 19.3102L49.6519 26.3798C49.8954 26.6251 50.2157 26.746 50.5342 26.746C50.8546 26.746 51.1751 26.6252 51.4187 26.3798C51.9076 25.8928 51.9076 25.0999 51.4187 24.6128L44.3473 17.5415L45.2318 16.6571L52.3031 23.7284C52.5466 23.9719 52.867 24.0946 53.1856 24.0946C53.506 24.0946 53.8266 23.9719 54.0701 23.7284C54.559 23.2414 54.559 22.4486 54.0701 21.9615L46.9987 14.8901L47.8832 14.0058L54.9545 21.0771C55.198 21.3206 55.5184 21.4433 55.8389 21.4433C56.1575 21.4433 56.4778 21.3206 56.7214 21.0771C57.2103 20.5882 57.2103 19.7973 56.7214 19.3102L52.0705 14.6576L58.4259 16.3567C58.5339 16.386 58.6437 16.4007 58.75 16.4007C59.3031 16.4007 59.8084 16.0308 59.9567 15.4724C60.1362 14.8061 59.7389 14.1213 59.0723 13.9418Z" fill="#E6E9ED"/>
</g>
<defs>
<clipPath id="clip0_16_7336">
<rect width="60" height="60" fill="white" transform="translate(0 0.121094)"/>
</clipPath>
</defs>
</svg>
