<svg width="60" height="60" viewBox="0 0 60 60" fill="none" xmlns="http://www.w3.org/2000/svg">
<g clip-path="url(#clip0_16_15376)">
<path d="M59.7351 47.98C59.4975 47.6775 59.1351 47.5 58.7501 47.5H49.5951L47.595 42.4999H51.25C51.94 42.4999 52.5 41.9399 52.5 41.2499V28.75C52.5 28.06 51.94 27.4999 51.25 27.4999H49.9999V11.4525L52.435 4.14504C52.455 4.09008 52.45 4.03254 52.4599 3.97758C52.4725 3.91254 52.4849 3.85254 52.4875 3.78504C52.4899 3.67254 52.4725 3.56754 52.4475 3.46008C52.44 3.42504 52.4475 3.39012 52.435 3.35508C52.4325 3.34512 52.4224 3.33762 52.4175 3.32508C52.375 3.20508 52.3075 3.09504 52.2276 2.99262C52.2101 2.96766 52.1976 2.93766 52.1775 2.91516C52.1001 2.82762 52 2.76012 51.895 2.6952C51.8625 2.67516 51.84 2.64516 51.805 2.63016L46.81 0.132539C46.635 0.045 46.4451 0 46.2501 0H11.25C10.56 0 9.99997 0.560039 9.99997 1.25004V6.25008C9.99997 6.93996 10.56 7.5 11.25 7.5H12.73C13.1074 8.55996 13.9399 9.39246 15 9.77004V15.8726L10.5825 22.5H8.75005C8.06005 22.5 7.50001 23.06 7.50001 23.75V31.25C7.50001 31.94 8.06005 32.5001 8.75005 32.5001H23.7501C24.4401 32.5001 25.0001 31.94 25.0001 31.25V23.75C25.0001 23.06 24.4401 22.5 23.7501 22.5H21.915L17.5 15.875V9.77004C18.5599 9.39258 19.3924 8.56008 19.77 7.5H42.5001V27.5H41.25C40.56 27.5 40 28.0601 40 28.7501V35H28.75C28.06 35 27.4999 35.5601 27.4999 36.2501V47.5001H22.5V43.7501C22.5 43.0601 21.94 42.5 21.25 42.5H15V41.25C15 40.56 14.44 40 13.75 40H6.24997C5.55997 40 4.99994 40.56 4.99994 41.25V47.5H3.75001C3.17497 47.5 2.67751 47.89 2.53747 48.4474L0.0375135 58.4475C-0.0549474 58.8225 0.0275525 59.2175 0.264974 59.52C0.502513 59.8225 0.864975 60 1.24994 60H45.9424C52.5874 60 58.3499 55.4975 59.9624 49.0525C60.055 48.6775 59.9725 48.2825 59.7351 47.98ZM22.5 25V30H9.99997V25H22.5ZM18.9126 22.5H13.5851L16.2501 18.505L18.9126 22.5ZM12.5001 5.00004V2.49996H45.9551L47.9926 3.51996L43.5502 4.99992L12.5001 5.00004ZM49.275 5.72496L47.565 10.855C47.5225 10.9825 47.5 11.115 47.5 11.25V27.5H45V7.14996L49.275 5.72496ZM42.5001 30H50.0001V40H46.5951L44.91 35.785C44.7201 35.3125 44.2626 34.9999 43.75 34.9999H42.4999V30H42.5001ZM30 37.5H42.9051L44.5901 41.715C44.5901 41.715 44.5901 41.715 44.5901 41.7175L46.9051 47.5H30V37.5ZM15 45H20.0001V47.5H15V45ZM7.50001 42.5H12.5001V47.5001H7.50001V42.5ZM45.945 57.5H2.85247L4.72747 50H57.0375C55.2426 54.485 50.8875 57.5 45.945 57.5Z" fill="black"/>
<path d="M23.75 56.2499C25.13 56.2499 26.2499 55.13 26.2499 53.75C26.2499 52.37 25.13 51.25 23.75 51.25C22.37 51.25 21.25 52.37 21.25 53.75C21.25 55.13 22.37 56.2499 23.75 56.2499Z" fill="black"/>
<path d="M38.75 56.2499C40.13 56.2499 41.2499 55.13 41.2499 53.75C41.2499 52.37 40.13 51.25 38.75 51.25C37.37 51.25 36.25 52.37 36.25 53.75C36.25 55.13 37.37 56.2499 38.75 56.2499Z" fill="black"/>
</g>
<defs>
<clipPath id="clip0_16_15376">
<rect width="60" height="60" fill="white"/>
</clipPath>
</defs>
</svg>
