<svg width="61" height="60" viewBox="0 0 61 60" fill="none" xmlns="http://www.w3.org/2000/svg">
<g clip-path="url(#clip0_19_16584)">
<path d="M59.8926 8.02351C59.5523 6.37961 58.5927 4.73183 56.947 3.08781C55.4819 1.62273 54.0244 0.703631 52.5575 0.277772C51.4615 -0.0433222 50.3752 -0.0712128 49.3849 0.118045C47.8908 0.401639 46.6277 1.12949 45.5413 1.94851C44.4569 2.77058 43.5302 3.70304 42.7361 4.49617C39.9174 7.31594 36.2507 10.9806 32.0226 15.2097C30.8498 16.3864 29.6884 17.9352 28.4962 19.6858C26.71 22.3094 24.8699 25.3858 23.0607 28.2121C21.259 31.0356 19.4651 33.615 17.9269 35.1466L7.69212 45.3814C5.89634 44.5641 3.70821 44.8775 2.23165 46.3524C0.333916 48.2511 0.333916 51.338 2.23165 53.2368L6.7981 57.8022C8.69583 59.7 11.7837 59.7 13.6815 57.8012C15.1563 56.3264 15.4696 54.1375 14.6525 52.3425L24.8872 42.1078C25.9081 41.0849 27.3964 39.9389 29.1095 38.7621C31.6802 36.9952 34.7527 35.1483 37.5984 33.3372C40.4498 31.5191 43.0609 29.7647 44.8242 28.0111C49.0523 23.7821 52.717 20.1163 55.5377 17.2976C56.2414 16.591 57.0567 15.7806 57.8065 14.8471C58.37 14.1471 58.8967 13.3752 59.3044 12.5091C59.9157 11.2182 60.2368 9.66555 59.8926 8.02351ZM11.5934 55.7133C10.8455 56.4603 9.63216 56.4603 8.88614 55.7143L4.3197 51.1477C3.57356 50.4007 3.57356 49.1883 4.3197 48.4415C5.06759 47.6935 6.28083 47.6935 7.02884 48.4405L11.5934 53.0061C12.3413 53.753 12.3413 54.9653 11.5934 55.7133ZM12.7912 50.0267L10.007 47.2425L11.2127 46.0371L15.1908 47.6271L12.7912 50.0267ZM16.7059 46.113L12.7278 44.5219L15.0408 42.2079L19.019 43.799L16.7059 46.113ZM20.5341 42.2839L16.5558 40.6936L19.8765 37.3731L22.6606 40.1582L20.5341 42.2839ZM57.0122 10.102C56.8546 10.9577 56.3893 11.8402 55.7299 12.7102C55.0722 13.5793 54.2417 14.4186 53.4476 15.2097C50.6289 18.0284 46.9641 21.6941 42.734 25.9232C41.7958 26.8635 40.3614 27.9566 38.6867 29.0968C36.1679 30.8109 33.105 32.646 30.2286 34.4862C27.9674 35.9359 25.8312 37.377 24.1143 38.8268L21.2052 35.9178C22.0397 34.9285 22.8685 33.8113 23.7049 32.5981C25.5468 29.9168 27.4042 26.8221 29.1865 24.0207C30.9631 21.223 32.6917 18.7081 34.1108 17.2988C38.3389 13.0697 42.0054 9.4041 44.8243 6.58527C45.528 5.87957 46.2663 5.1441 47.0354 4.52887C47.6103 4.06644 48.1967 3.67515 48.7774 3.40316C49.6579 2.99734 50.4752 2.84465 51.4115 3.03308C52.3478 3.22633 53.4899 3.8098 54.8589 5.17597C56.0723 6.38933 56.6682 7.4323 56.9201 8.30043C57.1085 8.95504 57.1182 9.52715 57.0122 10.102Z" fill="black"/>
<path d="M53.436 41.5909C53.0804 41.0553 52.6708 40.5459 52.2189 40.0652L52.2131 40.0594L52.0804 39.9258C49.7751 37.5551 46.6967 36.3628 43.628 36.3628C42.4995 36.3628 41.3746 36.5233 40.2807 36.8463C39.3385 37.1212 38.4137 37.5232 37.5485 38.0462L37.5562 38.0423L37.5447 38.049C36.8275 38.4778 36.1429 38.9951 35.5103 39.59C33.0513 41.9117 31.8091 45.0517 31.8091 48.1857C31.8091 50.3151 32.3801 52.4513 33.5395 54.3375C33.8375 54.8325 34.1798 55.3065 34.5624 55.7613C34.5624 55.7622 34.5643 55.7633 34.5643 55.7641C34.5663 55.7651 34.5663 55.7651 34.5663 55.767C34.7162 55.9478 34.8739 56.1266 35.0374 56.2997C37.36 58.7569 40.4979 60.0009 43.6319 60C45.3604 60 47.0929 59.6202 48.6965 58.8568C49.7887 58.3415 50.8191 57.6446 51.7441 56.7717C52.3055 56.2429 52.8036 55.6728 53.2322 55.0652C54.7012 53.0233 55.4453 50.6112 55.4453 48.1952V48.1856V48.1836V48.1779V48.1585C55.4453 45.8706 54.7763 43.5747 53.4322 41.5867L53.436 41.5909ZM35.9353 53.107L35.8815 53.1512C34.9297 51.6784 34.426 49.9643 34.4221 48.1857C34.426 45.9467 35.2277 43.8048 36.6871 42.1367C36.6583 42.4039 36.6448 42.6732 36.6448 42.9491C36.6448 43.697 36.7505 44.4661 36.9563 45.2361C37.2486 46.2964 37.4062 47.4896 37.4043 48.5961C37.4062 49.3257 37.3389 50.0218 37.1985 50.6669C36.987 51.6485 36.6025 52.4426 36.0795 52.9733L35.9353 53.107ZM43.632 57.3861C41.0806 57.3861 38.7118 56.3708 36.9602 54.5279L37.0274 54.4731C37.2793 54.2625 37.5139 54.0145 37.7253 53.7367C38.2195 53.0915 38.5945 52.2831 38.8367 51.3351C39.0444 50.5132 39.1501 49.5922 39.1501 48.5953C39.1501 47.3185 38.9751 45.9977 38.6424 44.7747C38.4752 44.1586 38.3904 43.5452 38.3904 42.9492C38.3904 42.1445 38.5404 41.3369 38.8385 40.5495C38.875 40.4457 38.9192 40.3447 38.9173 40.2793C40.3401 39.4265 41.9705 38.9767 43.628 38.9767C46.1833 38.9767 48.5599 40.0005 50.3173 41.8588C50.5076 42.0617 50.6845 42.2693 50.8538 42.4817L50.7788 42.6009C50.3174 43.2769 49.5829 43.8335 48.5947 44.2603C46.8008 45.0294 45.3241 46.2926 44.3222 47.9116C43.4321 49.3469 42.9418 51.035 42.9418 52.6646C42.9418 54.1961 43.3571 55.5487 44.1415 56.5755C44.3473 56.8486 44.5799 57.0927 44.8299 57.3014L44.8358 57.3061C44.4397 57.3592 44.034 57.3861 43.632 57.3861ZM49.9502 54.8721C49.1945 55.5854 48.3236 56.1622 47.4313 56.5747C47.291 56.5612 47.1564 56.5411 47.0256 56.5056C46.8335 56.4613 46.6508 56.3959 46.4681 56.3036C45.924 56.0335 45.4874 55.5758 45.1741 54.9433C44.8567 54.3077 44.6895 53.5195 44.6895 52.6649C44.6895 51.3554 45.0856 49.9932 45.8047 48.83C46.6237 47.5149 47.8274 46.4891 49.2829 45.8632C50.3345 45.4172 51.1921 44.8182 51.8306 44.0876L51.8575 44.0559C52.496 45.3192 52.8324 46.742 52.8324 48.1783C52.8324 50.7383 51.8095 53.1157 49.9502 54.8721Z" fill="black"/>
<path d="M33.5414 54.3413C33.5414 54.3403 33.5414 54.3394 33.5396 54.3374V54.3383L33.5414 54.3413Z" fill="black"/>
<path d="M53.2321 55.0665V55.0654L53.2283 55.0712L53.2321 55.0665Z" fill="black"/>
</g>
<defs>
<clipPath id="clip0_19_16584">
<rect width="60" height="60" fill="white" transform="translate(0.420898)"/>
</clipPath>
</defs>
</svg>
