<svg width="60" height="60" viewBox="0 0 60 60" fill="none" xmlns="http://www.w3.org/2000/svg">
<g clip-path="url(#clip0_16_14415)">
<path d="M57.3814 42.3521C57.3634 42.2147 57.3567 41.9968 57.3058 41.7526C57.2296 41.2461 57.0802 40.5557 56.8222 39.7894C56.566 39.0219 56.2028 38.1753 55.7391 37.3302C55.5095 36.905 55.251 36.4827 54.9756 36.0649C54.8351 35.8577 54.6942 35.6486 54.543 35.4459L54.4311 35.2933L54.3743 35.2171L54.0605 34.8943L54.0506 34.8857L54.0332 34.8697L53.9966 34.8393L53.9255 34.7766L53.8895 34.7462L53.8717 34.7303L53.7698 34.6576C53.4635 34.4454 53.0789 34.2739 52.704 34.1867C52.6133 34.1672 52.5098 34.1453 52.433 34.138L52.2265 34.13C52.0862 34.1286 51.9445 34.1359 51.805 34.1504C51.5201 34.1751 51.2578 34.236 50.9999 34.3596C50.7564 34.4642 50.4581 34.6474 50.3099 34.7628L50.1675 34.8874C49.9746 35.0513 49.7903 35.2222 49.6069 35.3928C49.2436 35.7374 48.9007 36.0948 48.5801 36.4553C47.9385 37.1755 47.3972 37.9194 46.9779 38.6119C46.5558 39.3022 46.2574 39.9425 46.0713 40.4213C45.9687 40.6496 45.9141 40.8603 45.867 40.9903C45.8255 41.1307 45.8044 41.2038 45.8044 41.2038C45.8044 41.2038 45.8817 41.1988 46.0269 41.19C46.1634 41.1718 46.3814 41.1652 46.6259 41.1158C47.1342 41.0404 47.8245 40.892 48.592 40.6348C49.3608 40.3789 50.2066 40.017 51.0511 39.5507C51.0622 39.5448 51.0722 39.5375 51.0829 39.5318C50.8548 40.0186 50.6364 40.5375 50.3957 41.0833C50.1099 41.6536 49.7701 42.2378 49.4408 42.8533C49.0783 43.4542 48.6503 44.0567 48.2426 44.6895C47.3018 45.8874 46.2813 47.1499 44.9885 48.2573C43.7583 49.4193 42.2734 50.4106 40.7021 51.2992C39.129 52.2002 37.3629 52.8165 35.5667 53.3353C35.1099 53.4371 34.6504 53.5373 34.1884 53.6405C34.0147 53.6843 33.8351 53.7054 33.6578 53.7284L32.7436 14.948C34.3527 15.259 36.1459 15.937 38.0978 17.1861L39.301 15.3059C37.4668 14.1323 35.7404 13.3966 34.141 12.9741C36.0623 11.7089 37.3348 9.53625 37.3348 7.06889C37.3343 3.17118 34.1631 0 30.2651 0C26.3677 0 23.1962 3.17118 23.1962 7.06903C23.1962 9.64501 24.5863 11.8972 26.6512 13.1326C24.0342 13.9876 22.5247 15.414 22.4925 15.4445L24.0492 17.0458C24.0768 17.0181 25.5559 15.6268 28.1353 15.015L26.3091 53.7373C26.1112 53.7133 25.9116 53.6873 25.6998 53.6349C25.2391 53.5331 24.779 53.4315 24.3217 53.3304C22.5277 52.805 20.759 52.1975 19.1881 51.2913C17.6187 50.4041 16.1343 49.4119 14.9049 48.2499C13.6119 47.1445 12.5931 45.8815 11.6523 44.6846C11.2432 44.0517 10.8139 43.4514 10.4523 42.8499C10.1233 42.235 9.78269 41.6508 9.49744 41.0805C9.41777 40.9009 9.34446 40.7294 9.26797 40.5566C10.005 40.9404 10.7379 41.2584 11.41 41.4831C12.1757 41.741 12.8677 41.89 13.376 41.9649C13.6206 42.0128 13.8378 42.0193 13.9756 42.0391C14.1208 42.0478 14.1982 42.0523 14.1982 42.0523C14.1982 42.0523 14.1765 41.9779 14.1356 41.8386C14.0882 41.7086 14.032 41.4985 13.9307 41.2704C13.7448 40.7911 13.4459 40.1506 13.0239 39.4594C12.6041 38.7678 12.0624 38.0236 11.4214 37.3043C11.1011 36.9439 10.7582 36.5866 10.3949 36.2419C10.212 36.0719 10.0274 35.899 9.83382 35.7361L9.69106 35.6113C9.54352 35.4949 9.24526 35.3133 9.00105 35.2089C8.74396 35.085 8.48102 35.024 8.19617 34.998C8.05594 34.9834 7.91464 34.9777 7.77481 34.9789L7.56897 34.9863C7.49062 34.9949 7.38864 35.0154 7.2974 35.0357C6.92199 35.1215 6.53847 35.2936 6.23105 35.5066L6.12959 35.5792L6.1118 35.5945L6.07621 35.6256L6.00397 35.6875L5.96838 35.7187L5.95071 35.7346L5.94075 35.7421L5.62682 36.0653L5.57038 36.1416L5.4587 36.2941C5.30745 36.4969 5.16482 36.7056 5.02565 36.9133C4.75103 37.3326 4.49221 37.7534 4.263 38.1794C3.79795 39.0233 3.43621 39.8694 3.17952 40.6381C2.92056 41.4044 2.77117 42.0945 2.69521 42.6017C2.64594 42.8459 2.6385 43.063 2.61925 43.2004C2.61022 43.3451 2.60583 43.4227 2.60583 43.4227C2.60583 43.4227 2.6802 43.401 2.81858 43.3589C2.94818 43.3111 3.158 43.2558 3.38469 43.1525C3.86329 42.9665 4.5023 42.667 5.19298 42.244C5.83226 41.8561 6.51523 41.3597 7.18479 40.7806C7.22237 41.096 7.26221 41.4215 7.30179 41.7623C7.41334 42.4609 7.62076 43.1832 7.79977 43.9707C8.01703 44.7417 8.34132 45.5208 8.63891 46.3642C8.8235 46.7654 9.03093 47.1679 9.23663 47.585C9.4499 47.9967 9.639 48.4381 9.90898 48.8363C10.4217 49.6517 10.9506 50.5113 11.6203 51.2997C12.884 52.9452 14.5199 54.4433 16.382 55.7658C16.8588 56.0813 17.3366 56.4052 17.8307 56.715C18.3361 57.004 18.8644 57.2583 19.3892 57.5329C19.6532 57.6652 19.914 57.8094 20.185 57.9312L21.0153 58.2647C21.5789 58.4674 22.1306 58.7177 22.7136 58.8789C23.2977 59.0395 23.8842 59.2 24.4717 59.3601C25.0502 59.5328 25.7277 59.5946 26.3582 59.7031L27.3209 59.8425C27.647 59.8903 27.8798 59.883 28.1635 59.9048L29.7966 59.9971C30.1002 60.0037 29.8976 59.9979 29.9721 59.9995L29.9991 59.9979L30.0565 59.9951L30.1715 59.9891L30.4017 59.9761L30.8624 59.9517L31.7818 59.8996C32.3966 59.8846 33.0051 59.7885 33.6102 59.6899C34.2141 59.5836 34.8251 59.5283 35.4122 59.3553C35.9994 59.1941 36.5866 59.0342 37.17 58.8745C37.7514 58.7129 38.3066 58.4659 38.8662 58.2581L39.6972 57.9245C39.9676 57.8031 40.2292 57.6593 40.4938 57.5271C41.0176 57.2538 41.5462 56.9983 42.0509 56.7096C42.5371 56.3894 43.0195 56.0737 43.498 55.7583C45.3601 54.4374 46.9959 52.9376 48.2574 51.2939C48.9259 50.5053 49.4566 49.6472 49.9683 48.8311C50.2398 48.4337 50.4272 47.9921 50.6409 47.5805C50.8475 47.1642 51.0537 46.7608 51.2381 46.3598C51.5355 45.5168 51.8617 44.7386 52.0781 43.9676C52.2569 43.1813 52.4656 42.459 52.5766 41.76C52.6543 41.093 52.7353 40.4796 52.7862 39.907C53.4645 40.4963 54.1579 41.0013 54.8075 41.3955C55.4971 41.8167 56.1376 42.1175 56.615 42.3038C56.8421 42.4067 57.0514 42.462 57.1811 42.5099C57.3203 42.552 57.3944 42.5732 57.3944 42.5732C57.3944 42.5732 57.3914 42.4966 57.3814 42.3521ZM8.91553 39.0581L8.94315 39.0355L8.98033 39.0057L8.998 38.9897L8.94169 39.0464C8.92987 39.0565 8.91341 39.0632 8.90066 39.0733C8.9057 39.069 8.91115 39.064 8.91553 39.0581ZM7.06727 39.2021C7.06953 39.2035 7.07165 39.2049 7.07311 39.2063C7.07311 39.2091 7.07311 39.2122 7.07311 39.2151C6.99928 39.1681 6.93606 39.1177 6.91468 39.09L7.06727 39.2021ZM30.2638 2.23377C32.9306 2.23377 35.1008 4.40353 35.1008 7.07049C35.1008 9.73731 32.9306 11.9071 30.2638 11.9071C27.5969 11.9071 25.4272 9.73731 25.4272 7.07049C25.4271 4.40353 27.5968 2.23377 30.2638 2.23377ZM50.9998 38.1413L51.0172 38.157L51.0537 38.1862L51.0826 38.2096C51.0872 38.2153 51.0922 38.2195 51.0966 38.2254C51.084 38.2153 51.0681 38.2095 51.0564 38.1979L50.9998 38.1413ZM52.8371 38.4187C52.8675 38.3969 52.8992 38.3751 52.93 38.3534L53.0826 38.2413C53.0529 38.2791 52.9444 38.3604 52.8371 38.4187Z" fill="black"/>
</g>
<defs>
<clipPath id="clip0_16_14415">
<rect width="60" height="60" fill="white"/>
</clipPath>
</defs>
</svg>
