<svg width="60" height="60" viewBox="0 0 60 60" fill="none" xmlns="http://www.w3.org/2000/svg">
<g clip-path="url(#clip0_16_14231)">
<path d="M59.0177 27.2743L40.9191 45.373C40.2635 46.0278 39.4057 46.3553 38.5471 46.3553C37.6893 46.3553 36.8314 46.0278 36.1766 45.373L26.6934 35.8891C25.384 34.5793 25.384 32.4563 26.6934 31.1478C28.0032 29.838 30.1256 29.838 31.4353 31.1478L38.5471 38.2603L54.2759 22.5316C55.5862 21.2229 57.7087 21.2234 59.0178 22.5316C60.3274 23.8415 60.3274 25.9646 59.0177 27.2743ZM13.9822 20.2446H17.2923V23.5546V24.3398V26.8431V27.6506V30.1531V30.9377V33.4635V34.2481V37.5362H13.1977V34.2481V33.4635V30.9377H10.6725H9.88695H7.38436V30.9599H4.07364V33.4635V34.2481V37.5362H0V34.2481V33.4635V30.9599V30.1531V27.6506V26.8647V24.3398V23.5546V20.2659H3.28845V16.9558H6.5985V13.6451H10.6725V16.9123H13.9832V20.2446H13.9822ZM13.197 21.0075H9.88629V17.7403H7.36176V21.0504H4.07298V23.554V24.3392V26.864H6.59784H7.38369H9.88629V26.8424H13.197V24.3392V23.554V21.0075ZM25.638 37.5362H25.261H22.7362H21.951H18.6622V34.2481V33.4635V30.9599V30.1746V27.6506V26.8647V24.3618V23.5546V21.051V20.2665V17.762V16.9552V13.6445H21.951H22.7362H25.261H26.0462H28.5488H29.334H32.6447V16.9552H35.9538V20.244V21.0498V24.3386H32.6447V26.8419H35.9538V30.1519V30.9365V33.6312L32.7881 30.4643C32.5053 30.182 32.1915 29.9416 31.8595 29.7372V27.6492H29.334H28.5488H26.0462H25.261H22.7362V30.1734V30.9587V33.4623H24.2385C24.078 34.912 24.544 36.4176 25.638 37.5362ZM22.7362 23.554H25.261H26.0462H28.5488H29.334H31.8595V21.0504V20.2446V17.7403H29.334H28.5488H26.0462H25.261H22.7362V17.7626V20.2659V21.0504V23.554ZM40.6139 34.4944L41.6459 33.4623H41.42V30.1526H41.3984V27.65V26.8641V24.3393V23.5541V21.0505V20.266V17.7404H43.9236H44.7094H47.2125H47.9969H50.5222V21.0505H54.3073C54.4082 20.9916 54.5123 20.9373 54.6178 20.8859V16.9559H51.3073V13.6452H47.9956H47.211H44.7088H43.9229H40.6125V16.9559H37.3251V20.266V21.0505V23.5541V24.3393V26.8641V27.65V30.1526V30.9371V34.2482H40.6125V34.4945H40.6139V34.4944Z" fill="black"/>
</g>
<defs>
<clipPath id="clip0_16_14231">
<rect width="60" height="60" fill="white"/>
</clipPath>
</defs>
</svg>
