<svg width="60" height="60" viewBox="0 0 60 60" fill="none" xmlns="http://www.w3.org/2000/svg">
<g clip-path="url(#clip0_10_175)">
<path d="M4.96424 26.5887H8.71374L8.13306 28.8119C8.04435 29.1217 7.87844 29.3706 7.63533 29.5585C7.39194 29.7467 7.10984 29.8406 6.78925 29.8406H5.0472C4.64896 29.8406 4.29768 29.9567 3.99362 30.189C3.68923 30.4213 3.47648 30.7364 3.35481 31.1346C3.27739 31.4333 3.26909 31.7154 3.32998 31.9808C3.3907 32.2463 3.49849 32.4814 3.65351 32.6859C3.8083 32.8907 4.00733 33.0537 4.25083 33.1754C4.49395 33.2972 4.75946 33.3578 5.0472 33.3578H6.10896C6.30805 33.3578 6.47114 33.4382 6.59839 33.5984C6.72543 33.7589 6.76148 33.9385 6.70629 34.1376L6.04265 36.593H4.88129C4.08492 36.593 3.35205 36.4188 2.68299 36.0705C2.0136 35.722 1.45781 35.2604 1.0156 34.6851C0.573067 34.1101 0.271555 33.4548 0.111397 32.7192C-0.0490926 31.9837 -0.0296812 31.2287 0.16941 30.4544L0.235829 30.2055C0.379396 29.6747 0.603373 29.1852 0.907651 28.7373C1.21182 28.2893 1.57129 27.9077 1.98606 27.5925C2.40083 27.2772 2.86262 27.0312 3.37146 26.8542C3.88008 26.6774 4.41099 26.5887 4.96424 26.5887ZM6.85546 36.5931L10.1239 24.349C10.2122 24.0394 10.3781 23.7906 10.6216 23.6024C10.8647 23.4144 11.1468 23.3203 11.4677 23.3203H14.9352C15.7316 23.3203 16.4642 23.4945 17.1335 23.8429C17.8025 24.1913 18.3584 24.6533 18.8009 25.2283C19.2431 25.8035 19.5475 26.4589 19.7134 27.1943C19.8793 27.93 19.857 28.6849 19.647 29.459L19.5807 29.7078C19.4368 30.2387 19.2157 30.7282 18.9171 31.1761C18.6184 31.6241 18.2617 32.0085 17.8469 32.3292C17.4322 32.6501 16.9702 32.899 16.4616 33.0758C15.9527 33.2529 15.4218 33.3413 14.8689 33.3413H11.8659L12.4632 31.1015C12.5516 30.8028 12.7175 30.5597 12.9609 30.3715C13.2041 30.1835 13.4861 30.0894 13.807 30.0894H14.7693C15.1675 30.0894 15.5242 29.9678 15.8394 29.7244C16.1547 29.4812 16.3621 29.166 16.4616 28.7787C16.5388 28.5024 16.5471 28.2312 16.4865 27.9658C16.4256 27.7003 16.3177 27.4654 16.1629 27.2607C16.0079 27.0561 15.8088 26.8902 15.5657 26.7629C15.3223 26.6359 15.0569 26.5721 14.7693 26.5721H12.9111L10.4888 35.5811C10.4002 35.8796 10.2343 36.1231 9.99109 36.311C9.74776 36.4992 9.47113 36.5931 9.16154 36.5931H6.85546ZM27.5441 30.0562L27.5939 29.8737C27.6159 29.7853 27.6022 29.7107 27.5524 29.6497C27.5026 29.5891 27.4335 29.5585 27.345 29.5585H21.953C21.7208 29.5585 21.5104 29.5088 21.3225 29.4092C21.1344 29.3096 20.9796 29.1797 20.8581 29.0193C20.7362 28.8591 20.6532 28.6738 20.6092 28.4635C20.5648 28.2535 20.5703 28.0378 20.6257 27.8164L20.9575 26.5555H28.2575C28.711 26.5555 29.1258 26.6551 29.5018 26.8542C29.8777 27.0533 30.1905 27.3132 30.4393 27.6339C30.6882 27.9549 30.8595 28.3225 30.9535 28.7372C31.0475 29.152 31.0391 29.5808 30.9287 30.023L29.618 34.9008C29.4854 35.3986 29.217 35.8024 28.8134 36.112C28.4095 36.4218 27.9478 36.5765 27.428 36.5765L22.0359 36.5599C21.5603 36.5599 21.1234 36.4577 20.7253 36.2529C20.3271 36.0485 20.0008 35.7775 19.7464 35.44C19.4919 35.1028 19.3151 34.7157 19.2155 34.2787C19.116 33.8418 19.1271 33.3967 19.2486 32.943L19.3151 32.6942C19.3923 32.3847 19.5225 32.097 19.7049 31.8315C19.8875 31.566 20.1002 31.3394 20.3437 31.1512C20.5868 30.9632 20.8581 30.8168 21.1566 30.7116C21.4552 30.6066 21.7706 30.5539 22.1024 30.5539H26.6316L26.2998 31.7983C26.2112 32.097 26.0453 32.3403 25.8021 32.5283C25.5587 32.7165 25.2821 32.8103 24.9725 32.8103H22.9484C22.7603 32.8103 22.6387 32.9045 22.5835 33.0924C22.5503 33.2142 22.5724 33.3221 22.6498 33.4159C22.7271 33.51 22.8266 33.5569 22.9484 33.5569H26.2168C26.3384 33.5569 26.4435 33.5237 26.5321 33.4574C26.6205 33.391 26.6757 33.3026 26.698 33.1919L26.7312 33.0592L27.5441 30.0562ZM37.2001 26.5887C38.0072 26.5887 38.7456 26.7629 39.4148 27.1113C40.0841 27.4597 40.6397 27.9217 41.0823 28.4967C41.5245 29.0719 41.8261 29.7301 41.9864 30.471C42.1467 31.2122 42.1219 31.97 41.9119 32.744L41.0823 35.8631C41.0268 36.0844 40.908 36.2612 40.7257 36.394C40.5431 36.5267 40.3412 36.593 40.12 36.593H38.3282C38.118 36.593 37.9521 36.513 37.8305 36.3525C37.7086 36.1923 37.6754 36.0124 37.7309 35.8133L38.7264 32.0472C38.8037 31.7708 38.8119 31.4997 38.7512 31.2342C38.6903 30.9687 38.5825 30.7338 38.4278 30.529C38.2727 30.3245 38.0737 30.1586 37.8305 30.0313C37.587 29.9043 37.3215 29.8406 37.0342 29.8406H35.1759L33.5665 35.8631C33.5112 36.0844 33.3924 36.2612 33.2099 36.394C33.0273 36.5267 32.8199 36.593 32.5877 36.593H30.8125C30.6134 36.593 30.4501 36.513 30.3231 36.3525C30.1961 36.1923 30.16 36.0124 30.2152 35.8133L32.6707 26.5887H37.2001ZM46.9719 29.7493C46.8393 29.8545 46.7451 29.9899 46.6899 30.1558L45.9433 32.9762C45.899 33.1313 45.9268 33.2749 46.0262 33.4076C46.1258 33.5404 46.2586 33.6067 46.4245 33.6067H53.2931L52.7622 35.5811C52.6736 35.8796 52.5076 36.1231 52.2645 36.311C52.021 36.4992 51.7444 36.5931 51.4349 36.5931H45.1802C44.7265 36.5931 44.3117 36.4964 43.9359 36.3027C43.5597 36.1094 43.2472 35.8494 42.9984 35.5229C42.7495 35.1969 42.5779 34.8262 42.4842 34.4114C42.3903 33.9966 42.404 33.5735 42.5257 33.1421L43.5376 29.376C43.6481 28.967 43.8196 28.5908 44.052 28.2478C44.2842 27.9051 44.558 27.6119 44.8732 27.3685C45.1884 27.1253 45.5422 26.9346 45.935 26.7961C46.3275 26.658 46.7339 26.5887 47.1545 26.5887H51.5842C52.0377 26.5887 52.4524 26.6883 52.8285 26.8874C53.2044 27.0865 53.5171 27.3465 53.766 27.6671C54.0149 27.9881 54.1833 28.3585 54.2719 28.7787C54.3604 29.1992 54.3492 29.6249 54.2387 30.0562L53.9401 31.1844C53.8075 31.6822 53.5392 32.0831 53.1355 32.3873C52.7316 32.6916 52.2754 32.8436 51.7667 32.8436H46.7563L47.0882 31.6158C47.1654 31.3171 47.3257 31.074 47.5692 30.8858C47.8124 30.6978 48.0944 30.6037 48.4154 30.6037H50.4395C50.6274 30.6037 50.7489 30.5099 50.8045 30.3217L50.8708 30.0728C50.9041 29.9512 50.8817 29.8405 50.8045 29.741C50.7269 29.6415 50.6274 29.5917 50.5058 29.5917H47.42C47.2541 29.5917 47.1046 29.6443 46.9719 29.7493ZM53.2762 36.5931L56.611 24.0669C56.6662 23.8458 56.7852 23.6661 56.9677 23.5277C57.1502 23.3896 57.3576 23.3203 57.5899 23.3203H59.3651C59.5751 23.3203 59.7438 23.4007 59.8711 23.5609C59.9982 23.7214 60.0341 23.901 59.9789 24.1001L57.4903 33.3413C57.3685 33.8281 57.1722 34.2703 56.9013 34.6686C56.6302 35.0667 56.3095 35.4069 55.939 35.6888C55.5683 35.9709 55.1564 36.1923 54.703 36.3525C54.2494 36.513 53.774 36.5931 53.2762 36.5931Z" fill="#FF6C2C"/>
</g>
<defs>
<clipPath id="clip0_10_175">
<rect width="60" height="60" fill="white" transform="translate(0.0039978)"/>
</clipPath>
</defs>
</svg>
