<svg width="60" height="60" viewBox="0 0 60 60" fill="none" xmlns="http://www.w3.org/2000/svg">
<g clip-path="url(#clip0_16_14277)">
<path d="M27.0636 42.7147C26.7085 42.1222 26.605 41.4263 26.7705 40.7553C26.9541 40.0211 27.2449 39.3831 27.606 38.8232H4.63021V13.2941L26.283 29.173C26.4876 29.3225 26.7633 29.3225 26.9678 29.173L29.2961 27.4653C29.2783 27.3256 29.2594 27.1878 29.2484 27.0436C29.2 26.354 29.4239 25.6851 29.8784 25.1619C30.3331 24.6385 30.9647 24.3232 31.6559 24.276L31.8387 24.2697C32.3166 24.2697 32.7647 24.4071 33.152 24.6378L48.6196 13.2939V25.0322C49.0565 25.6573 49.3589 26.3829 49.4787 27.1687C50.2781 27.6455 51.0235 28.241 51.7055 28.9269C51.7369 28.9206 51.7669 28.9068 51.8014 28.9014C51.852 28.8929 52.5766 28.761 53.2499 28.3615V6.98875C53.2499 6.66896 52.9916 6.40967 52.6715 6.40967H0.5784C0.258466 6.40967 0 6.66896 0 6.98875V42.875C0 43.194 0.258466 43.4534 0.5784 43.4534H27.7282C27.4659 43.2541 27.2386 43.0067 27.0636 42.7147ZM43.862 11.0404L26.6249 23.6813L9.38747 11.0404H43.862ZM33.8778 43.4534H30.844C31.307 43.105 31.6561 42.6053 31.8047 42.009C31.9655 41.3632 32.6779 40.9955 33.3299 40.7898C33.434 41.7123 33.6232 42.6009 33.8778 43.4534ZM51.7307 30.8488C51.894 30.822 55.7141 30.1619 55.9437 26.8697C55.9691 26.5014 56.2876 26.219 56.6646 26.2423C57.0378 26.268 57.3191 26.5923 57.2936 26.9639C56.9881 31.3343 51.9959 32.1754 51.9461 32.1837C51.9109 32.19 51.8747 32.1926 51.8387 32.1926C51.5063 32.1926 51.2263 31.9529 51.172 31.6237C51.1119 31.2557 51.363 30.9086 51.7307 30.8488ZM36.2391 32.1926C36.2031 32.1926 36.1673 32.1899 36.1315 32.1837C36.0829 32.1762 31.0897 31.3358 30.7851 26.9646C30.7586 26.5934 31.0402 26.2687 31.4128 26.2435C31.7964 26.2157 32.1084 26.5027 32.134 26.8702C32.3633 30.1625 36.1846 30.8218 36.3469 30.8488C36.714 30.9088 36.9657 31.2564 36.9058 31.6237C36.8525 31.9529 36.5724 32.1926 36.2391 32.1926ZM59.9028 41.7831C59.8107 41.9373 59.6623 42.0473 59.4873 42.09C59.4349 42.1035 59.3786 42.1102 59.323 42.1102C59.0123 42.1102 58.7424 41.8996 58.6678 41.5984C57.9903 38.8919 54.2376 38.6844 54.1998 38.683C54.0201 38.6754 53.8529 38.5991 53.7307 38.4658C53.6097 38.3326 53.5453 38.1602 53.5527 37.9787C53.5682 37.6155 53.8629 37.3309 54.2239 37.3309L54.2597 37.3317C54.4515 37.3394 59.0557 37.5736 59.9799 41.2704C60.0234 41.4465 59.9956 41.627 59.9028 41.7831ZM34.0368 38.683C33.9992 38.6859 30.2424 38.9018 29.5682 41.5984C29.4931 41.8996 29.2232 42.1102 28.9123 42.1102C28.8573 42.1102 28.8012 42.1033 28.7483 42.09C28.5727 42.0466 28.4257 41.9373 28.3326 41.7831C28.2396 41.627 28.2128 41.4458 28.2558 41.2706C29.1801 37.5747 33.7835 37.3407 33.9782 37.3331H34.0068C34.3711 37.3331 34.6676 37.617 34.6825 37.9788C34.6989 38.3513 34.4083 38.6671 34.0368 38.683ZM36.5105 33.0556L36.2421 32.9342L36.3859 32.6782C37.4866 30.7168 39.0852 29.2068 40.9053 28.4037C40.8884 28.2684 40.8791 28.1336 40.8791 27.9991C40.8791 26.2443 42.307 24.8165 44.0613 24.8165C45.8174 24.8165 47.2447 26.2443 47.2447 27.9991C47.2447 28.1336 47.2363 28.2684 47.2196 28.4037C49.1283 29.2457 50.7801 30.8533 51.8867 32.9515L52.0125 33.1921L51.7721 33.3178C49.698 34.3966 47.3828 34.9435 44.8916 34.9435C41.2028 34.9435 38.0567 33.76 36.5105 33.0556ZM53.3611 39.0908C53.3611 45.3562 49.1889 50.4525 44.0612 50.4525C38.9331 50.4525 34.7616 45.3545 34.7616 39.0908C34.7616 37.1975 35.1521 35.3228 35.8891 33.6673L36.0007 33.4175L36.2488 33.5307C36.7782 33.772 39.5988 34.996 43.144 35.3758L43.1292 35.6417L43.3733 35.6072C43.3804 35.6582 43.8259 38.9318 44.1284 42.7912C44.3202 40.3635 44.646 37.7475 45.199 35.6148L45.2462 35.4315L45.4368 35.414C47.4706 35.2282 50.2596 34.7112 51.9822 33.8198L52.2429 33.6851L52.3559 33.9562C53.0236 35.5568 53.3611 37.2845 53.3611 39.0908ZM37.3683 48.0154C37.4586 48.3773 37.2386 48.7451 36.8774 48.8356C36.8415 48.8456 33.2486 49.8117 32.7828 53.012C32.7347 53.3417 32.4464 53.5904 32.1129 53.5904C32.0816 53.5904 32.0487 53.5881 32.0156 53.5836C31.647 53.5296 31.3901 53.1859 31.444 52.8164C32.0439 48.6954 36.3635 47.569 36.5476 47.524C36.6018 47.5104 36.6581 47.5029 36.7125 47.5029C37.0244 47.5029 37.293 47.7136 37.3683 48.0154ZM56.7918 52.8165C56.8442 53.1852 56.5881 53.5298 56.2197 53.5837C56.1872 53.5882 56.1545 53.5905 56.1219 53.5905C55.7882 53.5905 55.5018 53.341 55.4533 53.0116C54.9866 49.8001 51.3949 48.8459 51.3592 48.8359C51.1841 48.7925 51.0369 48.6842 50.9437 48.5281C50.8505 48.3737 50.8235 48.1916 50.8677 48.0171C50.9563 47.6609 51.331 47.4345 51.6883 47.5254C51.871 47.5692 56.1909 48.6956 56.7918 52.8165Z" fill="black"/>
</g>
<defs>
<clipPath id="clip0_16_14277">
<rect width="60" height="60" fill="white"/>
</clipPath>
</defs>
</svg>
