<svg width="512" height="513" viewBox="0 0 512 513" fill="none" xmlns="http://www.w3.org/2000/svg">
<g clip-path="url(#clip0_19_18727)">
<path d="M510.948 28.9174V251.333C510.948 266.928 498.215 279.661 482.621 279.661H28.3285C25.7585 279.661 23.3055 279.31 20.9695 278.668C11.2735 276.098 3.62249 268.447 1.05249 258.751C0.350488 256.414 0.000488281 253.903 0.000488281 251.333V28.9174C0.000488281 13.3224 12.7335 0.589355 28.3285 0.589355H482.621C485.541 0.589355 488.404 1.05636 491.033 1.87436C491.092 1.87436 491.149 1.93236 491.149 1.93236C499.91 4.67736 506.861 11.6284 509.606 20.3894C509.664 20.4474 509.664 20.5064 509.664 20.5064C510.481 23.1934 510.948 25.9974 510.948 28.9174Z" fill="#974532"/>
<path d="M467.308 127.156H284.068V39.0191C284.068 31.7291 278.104 25.7651 270.814 25.7651H43.6415C36.3515 25.7651 30.3875 31.7291 30.3875 39.0191V238.087C30.3875 245.377 36.3525 251.341 43.6415 251.341H125.382H270.814H467.308C474.602 251.341 480.559 245.383 480.559 238.089V140.407C480.559 133.114 474.602 127.156 467.308 127.156Z" fill="#F0EAD6"/>
<path d="M96.1146 41.2876H50.5276V86.8746H96.1146V41.2876Z" fill="#3F3D3C"/>
<path d="M77.3315 51.4046C77.5655 50.7626 77.8575 50.2946 78.2665 50.0026C78.8505 49.5936 79.5515 49.4186 80.4865 49.4186H81.5375V48.3086H65.1245V49.4186H66.1175C67.0515 49.4186 67.7535 49.5936 68.2205 49.9446C68.7465 50.3536 69.0965 50.8206 69.2715 51.2876C69.4465 51.8136 69.5635 53.0396 69.5635 55.0846V73.0736C69.5635 75.0596 69.4465 76.2866 69.2715 76.7536C69.0965 77.4546 68.7455 77.8636 68.3375 78.1556C67.8115 78.5646 67.0525 78.7976 66.1185 78.7976H65.1255V79.8486H81.5375V78.7976H80.4865C79.6105 78.7976 78.9095 78.5636 78.3835 78.2136C77.8585 77.8626 77.5075 77.3966 77.3325 76.8706C77.1575 76.4036 77.0995 75.1186 77.0995 73.0736V55.0846C77.0985 53.0986 77.1565 51.8716 77.3315 51.4046Z" fill="white"/>
<path opacity="0.5" d="M30.3884 203.664H112.13H284.064H480.559V197.376H284.064H112.13H30.3884V203.664Z" fill="#80665B"/>
<path opacity="0.5" d="M30.3884 216.239H112.13H284.064H480.559V209.952H284.064H112.13H30.3884V216.239Z" fill="#80665B"/>
<path d="M100.231 231.406C93.5135 231.406 88.0485 225.941 88.0485 219.223V197.608H66.4345C59.7165 197.608 54.2515 192.143 54.2515 185.425V153.201C54.2515 146.483 59.7165 141.018 66.4345 141.018H88.0495V119.404C88.0495 112.686 93.5145 107.221 100.232 107.221H132.457C139.175 107.221 144.64 112.686 144.64 119.404V141.018H166.254C172.972 141.018 178.437 146.483 178.437 153.201V185.426C178.437 192.144 172.972 197.609 166.254 197.609H144.64V219.224C144.64 225.942 139.175 231.407 132.457 231.407H100.231V231.406Z" fill="#904A37"/>
<path d="M166.255 147.306H138.353V119.404C138.353 116.162 135.7 113.509 132.458 113.509H100.233C96.9906 113.509 94.3375 116.162 94.3375 119.404V147.306H66.4345C63.1925 147.306 60.5396 149.959 60.5396 153.201V185.426C60.5396 188.668 63.1925 191.321 66.4345 191.321H94.3365V219.223C94.3365 222.465 96.9896 225.118 100.232 225.118H132.457C135.699 225.118 138.352 222.465 138.352 219.223V191.321H166.254C169.496 191.321 172.149 188.668 172.149 185.426V153.201C172.15 149.959 169.497 147.306 166.255 147.306Z" fill="#232120"/>
<path opacity="0.5" d="M116.345 189.946C127.739 189.946 136.977 180.709 136.977 169.314C136.977 157.919 127.739 148.682 116.345 148.682C104.95 148.682 95.7126 157.919 95.7126 169.314C95.7126 180.709 104.95 189.946 116.345 189.946Z" fill="#3F3D3C"/>
<path d="M362.429 232.126C378.05 232.126 390.714 219.463 390.714 203.841C390.714 188.22 378.05 175.556 362.429 175.556C346.807 175.556 334.144 188.22 334.144 203.841C334.144 219.463 346.807 232.126 362.429 232.126Z" fill="#95503E"/>
<path d="M362.428 226.362C374.866 226.362 384.949 216.279 384.949 203.841C384.949 191.403 374.866 181.32 362.428 181.32C349.99 181.32 339.907 191.403 339.907 203.841C339.907 216.279 349.99 226.362 362.428 226.362Z" fill="#232120"/>
<path d="M429.237 232.126C444.858 232.126 457.522 219.463 457.522 203.841C457.522 188.22 444.858 175.556 429.237 175.556C413.615 175.556 400.952 188.22 400.952 203.841C400.952 219.463 413.615 232.126 429.237 232.126Z" fill="#95503E"/>
<path d="M429.237 226.362C441.675 226.362 451.758 216.279 451.758 203.841C451.758 191.403 441.675 181.32 429.237 181.32C416.799 181.32 406.716 191.403 406.716 203.841C406.716 216.279 416.799 226.362 429.237 226.362Z" fill="#232120"/>
<g opacity="0.5">
<path d="M208.632 163.313C208.515 163.021 208.398 162.788 208.165 162.554C207.99 162.379 207.756 162.262 207.523 162.145C207.289 162.087 206.997 161.97 206.588 161.912L205.654 161.795C205.479 161.737 205.304 161.737 205.187 161.678C205.07 161.62 204.953 161.561 204.895 161.444C204.778 161.386 204.72 161.269 204.72 161.21C204.661 161.093 204.661 160.976 204.661 160.918C204.661 160.626 204.778 160.392 204.953 160.159C205.187 159.984 205.479 159.867 205.887 159.867C206.179 159.867 206.471 159.867 206.763 159.984C207.055 160.043 207.347 160.159 207.581 160.393L208.574 159.4C208.224 159.108 207.815 158.816 207.406 158.699C206.997 158.524 206.53 158.466 205.946 158.466C205.479 158.466 205.128 158.524 204.778 158.641C204.428 158.758 204.136 158.933 203.844 159.167C203.61 159.4 203.435 159.634 203.318 159.926C203.201 160.276 203.143 160.568 203.143 160.919C203.143 161.62 203.318 162.204 203.668 162.554C203.902 162.729 204.077 162.846 204.369 162.963C204.603 163.08 204.895 163.197 205.245 163.197L206.238 163.372C206.472 163.431 206.588 163.431 206.705 163.489C206.822 163.489 206.88 163.547 206.997 163.664C207.172 163.839 207.23 164.014 207.23 164.307C207.23 164.657 207.114 164.891 206.88 165.066C206.647 165.241 206.238 165.358 205.77 165.358C205.42 165.358 205.069 165.3 204.719 165.183C204.369 165.066 204.077 164.891 203.843 164.658L202.792 165.709C203.201 166.059 203.609 166.351 204.135 166.526C204.602 166.701 205.128 166.76 205.77 166.76C206.179 166.76 206.588 166.701 206.938 166.585C207.347 166.468 207.639 166.293 207.931 166.118C208.164 165.884 208.398 165.651 208.573 165.359C208.69 165.009 208.807 164.658 208.807 164.308C208.807 163.897 208.748 163.605 208.632 163.313Z" fill="#3F3D3C"/>
<path d="M215.641 159.983V158.523H210.268V166.7H215.641V165.24H211.845V163.312H215.057V161.852H211.845V159.983H215.641Z" fill="#3F3D3C"/>
<path d="M218.795 165.24V158.523H217.218V166.7H222.475V165.24H218.795Z" fill="#3F3D3C"/>
<path d="M229.133 159.983V158.523H223.76V166.7H229.133V165.24H225.337V163.312H228.549V161.852H225.337V159.983H229.133Z" fill="#3F3D3C"/>
<path d="M234.331 165.007C234.098 165.241 233.806 165.357 233.397 165.357C233.222 165.357 232.988 165.299 232.813 165.24C232.638 165.123 232.521 165.065 232.404 164.89C232.346 164.831 232.287 164.715 232.229 164.656C232.171 164.539 232.112 164.364 232.112 164.189C232.053 164.072 232.053 163.839 232.053 163.605V163.547C231.995 163.255 231.995 163.021 231.995 162.612C231.995 162.203 231.995 161.911 232.053 161.678C232.053 161.386 232.053 161.211 232.112 161.035C232.112 160.86 232.17 160.685 232.229 160.626C232.288 160.509 232.346 160.392 232.404 160.334C232.521 160.217 232.638 160.1 232.813 159.984C232.988 159.926 233.222 159.867 233.397 159.867C233.806 159.867 234.098 159.984 234.331 160.218C234.506 160.393 234.623 160.627 234.74 160.86C234.74 160.918 234.799 160.977 234.799 161.035H236.376C236.317 160.51 236.142 160.101 235.85 159.75C235.792 159.517 235.617 159.283 235.383 159.108C234.857 158.699 234.157 158.466 233.397 158.466C232.93 158.466 232.521 158.524 232.17 158.699C231.82 158.874 231.528 159.049 231.236 159.341C231.002 159.516 230.886 159.75 230.769 159.983C230.652 160.217 230.594 160.45 230.535 160.684C230.477 160.976 230.418 161.268 230.418 161.56V163.663C230.418 163.955 230.477 164.247 230.535 164.539C230.593 164.656 230.593 164.831 230.652 164.948C230.71 165.065 230.71 165.182 230.769 165.24C230.886 165.473 231.002 165.707 231.236 165.882C231.528 166.174 231.82 166.408 232.17 166.524C232.52 166.699 232.929 166.758 233.397 166.758C234.156 166.758 234.857 166.524 235.383 166.116C235.909 165.649 236.259 165.064 236.376 164.188H234.799C234.681 164.539 234.565 164.773 234.331 165.007Z" fill="#3F3D3C"/>
<path d="M237.193 158.523V159.983H239.296V166.7H240.873V159.983H243.034V158.523H237.193Z" fill="#3F3D3C"/>
</g>
<g opacity="0.5">
<path d="M261.257 163.313C261.199 163.021 261.024 162.788 260.79 162.554C260.615 162.379 260.439 162.262 260.146 162.145C259.913 162.087 259.62 161.97 259.27 161.912L258.278 161.795C258.103 161.737 257.927 161.737 257.811 161.678C257.694 161.62 257.636 161.561 257.519 161.444C257.461 161.386 257.401 161.269 257.343 161.21C257.343 161.093 257.286 160.976 257.286 160.918C257.286 160.626 257.402 160.392 257.577 160.159C257.811 159.984 258.104 159.867 258.571 159.867C258.805 159.867 259.097 159.867 259.389 159.984C259.681 160.043 259.972 160.159 260.206 160.393L261.2 159.4C260.85 159.108 260.498 158.816 260.089 158.699C259.622 158.524 259.155 158.466 258.571 158.466C258.162 158.466 257.753 158.524 257.403 158.641C257.053 158.758 256.761 158.933 256.527 159.167C256.294 159.4 256.06 159.634 255.943 159.926C255.826 160.276 255.768 160.568 255.768 160.919C255.768 161.62 255.943 162.204 256.352 162.554C256.527 162.729 256.761 162.846 256.994 162.963C257.227 163.08 257.578 163.197 257.929 163.197L258.863 163.372C259.096 163.431 259.272 163.431 259.33 163.489C259.447 163.489 259.564 163.547 259.622 163.664C259.797 163.839 259.856 164.014 259.856 164.307C259.856 164.657 259.739 164.891 259.506 165.066C259.272 165.241 258.921 165.358 258.395 165.358C258.045 165.358 257.694 165.3 257.344 165.183C256.994 165.066 256.702 164.891 256.468 164.658L255.417 165.709C255.826 166.059 256.293 166.351 256.761 166.526C257.228 166.701 257.811 166.76 258.395 166.76C258.862 166.76 259.214 166.701 259.623 166.585C259.973 166.468 260.265 166.293 260.557 166.118C260.849 165.884 261.024 165.651 261.2 165.359C261.375 165.009 261.433 164.658 261.433 164.308C261.433 163.897 261.374 163.605 261.257 163.313Z" fill="#3F3D3C"/>
<path d="M262.309 158.523V159.983H264.47V166.7H266.047V159.983H268.15V158.523H262.309Z" fill="#3F3D3C"/>
<path d="M272.764 158.523H271.537L268.558 166.7H270.194L270.72 165.24H273.582L274.108 166.7H275.743L272.764 158.523ZM271.128 163.897L272.18 160.918L273.173 163.897H271.128Z" fill="#3F3D3C"/>
<path d="M281.116 163.196C281.291 163.079 281.467 163.021 281.642 162.904C281.817 162.787 281.992 162.612 282.109 162.437C282.284 162.262 282.401 162.028 282.459 161.794C282.517 161.561 282.576 161.327 282.576 161.035C282.576 160.685 282.517 160.393 282.401 160.101C282.284 159.751 282.109 159.517 281.875 159.283C281.642 159.049 281.349 158.874 281.057 158.758C280.707 158.641 280.356 158.524 279.947 158.524H276.735V166.701H278.312V163.43H279.48L281.057 166.701H282.926L281.116 163.196ZM280.649 161.794C280.474 162.028 280.182 162.086 279.831 162.086H278.312V159.983H279.831C280.181 159.983 280.473 160.042 280.649 160.275C280.883 160.45 280.999 160.742 280.999 161.034C280.999 161.385 280.883 161.619 280.649 161.794Z" fill="#3F3D3C"/>
<path d="M283.627 158.523V159.983H285.73V166.7H287.307V159.983H289.468V158.523H283.627Z" fill="#3F3D3C"/>
</g>
<path opacity="0.5" d="M438.708 162.788H418.797C412.313 162.788 407.007 157.483 407.007 150.998C407.007 144.514 412.312 139.208 418.797 139.208H438.708C445.192 139.208 450.498 144.513 450.498 150.998C450.498 157.482 445.192 162.788 438.708 162.788Z" fill="#80665B"/>
<path d="M430.172 141.527H427.31L420.476 160.276H424.273L425.441 156.947H432.099L433.209 160.276H437.006L430.172 141.527ZM426.434 153.851L428.829 147.076L431.107 153.851H426.434Z" fill="#F0EAD6"/>
<path opacity="0.5" d="M373.21 162.788H353.298C346.814 162.788 341.508 157.483 341.508 150.998C341.508 144.514 346.813 139.208 353.298 139.208H373.21C379.694 139.208 385 144.513 385 150.998C384.999 157.482 379.694 162.788 373.21 162.788Z" fill="#80665B"/>
<path d="M369.779 153.208C369.604 152.682 369.312 152.215 368.903 151.748C368.728 151.573 368.553 151.398 368.319 151.281C368.144 151.106 367.852 150.931 367.501 150.756C369.02 149.88 369.837 148.595 369.837 146.784C369.837 145.966 369.662 145.265 369.428 144.623C369.136 143.981 368.727 143.455 368.26 142.988C367.734 142.579 367.15 142.229 366.391 141.937C365.69 141.703 364.873 141.587 363.996 141.587H356.403V160.394H364.288C365.164 160.394 365.982 160.277 366.683 160.044C367.442 159.752 368.026 159.402 368.552 158.934C369.019 158.467 369.428 157.941 369.661 157.24C369.953 156.598 370.07 155.838 370.07 155.02C370.071 154.376 370.013 153.734 369.779 153.208ZM360.083 144.856H363.704C364.463 144.856 365.047 145.031 365.515 145.44C365.924 145.849 366.157 146.375 366.157 147.017C366.157 147.718 365.923 148.244 365.515 148.594C365.048 149.003 364.464 149.178 363.704 149.178H360.083V144.856ZM365.748 156.538C365.281 156.947 364.697 157.122 363.937 157.122H360.082V152.508H363.937C364.696 152.508 365.28 152.683 365.748 153.092C366.157 153.501 366.39 154.085 366.39 154.786C366.391 155.545 366.157 156.07 365.748 156.538Z" fill="#F0EAD6"/>
<path d="M273.397 228.548H221.522C207.256 228.548 195.585 216.876 195.585 202.611C195.585 188.345 207.257 176.674 221.522 176.674H273.397C287.663 176.674 299.334 188.346 299.334 202.611C299.335 216.876 287.663 228.548 273.397 228.548Z" fill="#904A37"/>
<path d="M236.456 210.47H219.164C215.273 210.47 212.09 207.287 212.09 203.396C212.09 199.505 215.273 196.322 219.164 196.322H236.456C240.347 196.322 243.53 199.505 243.53 203.396C243.53 207.287 240.347 210.47 236.456 210.47Z" fill="#232120"/>
<path d="M275.755 210.47H258.463C254.572 210.47 251.389 207.287 251.389 203.396C251.389 199.505 254.572 196.322 258.463 196.322H275.755C279.646 196.322 282.829 199.505 282.829 203.396C282.829 207.287 279.646 210.47 275.755 210.47Z" fill="#232120"/>
<g opacity="0.1">
<path d="M284.069 45.2725C284.069 37.9655 278.086 31.9825 270.837 31.9825H43.6494C36.3434 31.9825 30.3594 37.9655 30.3594 45.2725V36.6425C30.3594 29.3355 36.3424 23.3525 43.6494 23.3525H270.837C278.086 23.3525 284.069 29.3355 284.069 36.6425V45.2725Z" fill="white"/>
<path d="M480.536 138.013V146.643C480.536 139.336 474.61 133.411 467.304 133.411H284.069V124.781H467.304C474.61 124.781 480.536 130.706 480.536 138.013Z" fill="white"/>
</g>
<path opacity="0.06" d="M510.948 28.9174V251.333C510.948 266.928 498.215 279.661 482.621 279.661H115.939L144.266 251.333L230.651 164.948L232.053 163.604V163.546L395.01 0.589355H482.621C485.541 0.589355 488.403 1.05636 491.032 1.87436C491.091 1.87436 491.149 1.93236 491.149 1.93236C499.91 4.67736 506.861 11.6284 509.606 20.3894C509.664 20.4474 509.664 20.5064 509.664 20.5064C510.481 23.1934 510.948 25.9974 510.948 28.9174Z" fill="#040000"/>
<path opacity="0.06" d="M512.001 28.8592V36.1603C512.001 33.2403 511.534 30.4363 510.716 27.7493C510.716 27.7493 510.716 27.6902 510.658 27.6322C507.913 18.8713 500.963 11.9202 492.201 9.17525C492.201 9.17525 492.142 9.11725 492.084 9.11725C489.456 8.29925 486.594 7.83225 483.673 7.83225H29.3795C13.7845 7.83225 1.05151 20.5653 1.05151 36.1603V28.8592C1.05151 13.2642 13.7845 0.53125 29.3795 0.53125H483.673C486.593 0.53125 489.455 0.99825 492.084 1.81625C492.143 1.81625 492.201 1.87425 492.201 1.87425C500.962 4.61925 507.913 11.5702 510.658 20.3312C510.716 20.3902 510.716 20.4482 510.716 20.4482C511.534 23.1352 512.001 25.9382 512.001 28.8592Z" fill="white"/>
</g>
<defs>
<clipPath id="clip0_19_18727">
<rect width="512" height="512" fill="white" transform="translate(0.000488281 0.53125)"/>
</clipPath>
</defs>
</svg>
