<svg width="61" height="60" viewBox="0 0 61 60" fill="none" xmlns="http://www.w3.org/2000/svg">
<path d="M56.6799 15.4711C53.8679 10.5998 47.7386 10.5768 41.5735 12.2358C40.7976 7.24711 38.3618 0 30.9739 0C25.35 0 22.2681 5.28258 20.6206 11.4476C15.9148 9.63574 8.40895 8.11816 4.71473 14.5289C1.90329 19.4002 4.93868 24.7174 9.45614 29.2233C5.52696 32.3886 0.46774 38.1295 4.16208 44.5289C6.97411 49.4002 13.1034 49.4232 19.2563 47.7642C20.0444 52.7527 22.4794 60 29.8681 60C35.4915 60 38.5738 54.7059 40.2208 48.5409C44.9388 50.3643 52.4324 51.8704 56.1266 45.4711C58.9387 40.6112 55.9033 35.2942 51.3858 30.7882C55.315 27.6114 60.3735 21.8704 56.6799 15.4711ZM52.7736 43.9648C50.3265 48.1882 44.5033 46.8818 40.8912 45.5525C41.6914 41.3647 41.9384 37.0818 41.9384 34.0234H39.7503C39.7503 36.7177 39.3149 40.6468 38.3618 44.4703C38.1149 45.447 37.8327 46.412 37.5152 47.3529C35.8797 52.2586 33.2677 56.3407 29.5034 56.3407C24.6211 56.3407 22.8329 50.6468 22.1854 46.8589C26.2209 45.4583 30.0445 43.5294 32.6915 41.9887L31.5972 40.0943C29.2679 41.4349 25.6443 43.024 21.8563 44.1062C20.8797 44.3889 19.9032 44.6359 18.9265 44.8232C13.8679 45.8596 9.03286 45.647 7.15036 42.3761C4.71473 38.1527 8.73872 33.7651 11.7034 31.2939C14.9388 34.0822 18.5146 36.4351 21.1738 37.9643L22.2681 36.0709C19.9387 34.7291 16.7499 32.3761 13.9151 29.6234C13.1976 28.9294 12.5031 28.2125 11.8442 27.4703C8.40895 23.5997 6.18532 19.3062 8.0677 16.0354C10.5034 11.8119 16.3266 13.1183 19.9388 14.4476C19.1386 18.6353 18.8915 22.9184 18.8915 25.9767H21.0917C21.0917 23.2825 21.5266 19.3533 22.4794 15.5298C22.7265 14.5532 23.0091 13.5766 23.3268 12.6357C24.9623 7.73004 27.5737 3.65941 31.3386 3.65941C36.2208 3.65941 38.009 9.35344 38.6559 13.1413C34.6211 14.5417 30.7854 16.4708 28.1383 18.0115L29.2441 19.9059C31.562 18.5653 35.1856 16.9762 38.9856 15.894C39.9501 15.6114 40.9267 15.3643 41.9032 15.1771C46.974 14.1407 51.809 14.3532 53.6915 17.6242C56.1265 21.8475 52.1031 26.2351 49.1384 28.7064C45.9031 25.918 42.315 23.5651 39.668 22.0359L38.5737 23.9292C40.8911 25.2712 44.0914 27.6241 46.9148 30.3769C47.6443 31.0707 48.3381 31.8005 48.9971 32.5413C52.4324 36.4004 54.6561 40.6938 52.7736 43.9648Z" fill="black"/>
<path d="M30.4211 25.7837C28.0929 25.7837 26.2053 27.6702 26.2053 29.9989C26.2053 32.3277 28.093 34.2153 30.4211 34.2153C32.749 34.2153 34.6365 32.3277 34.6365 29.9989C34.6365 27.6701 32.749 25.7837 30.4211 25.7837Z" fill="black"/>
</svg>
