<svg width="60" height="61" viewBox="0 0 60 61" fill="none" xmlns="http://www.w3.org/2000/svg">
<g clip-path="url(#clip0_19_18686)">
<path d="M60.0005 3.57812L57.1503 8.49836L54.6714 12.7758L43.7377 20.4183L16.8983 39.1796L10.8556 43.4042L7.11366 46.0193C6.52936 46.4283 5.84217 46.5814 5.18569 46.5006C4.4276 46.4089 3.70983 46.0082 3.23815 45.3321L1.28791 42.5417C0.40596 41.2813 0.71346 39.5467 1.97369 38.6662L5.71561 36.0496L16.4574 28.542L37.233 14.0194L49.5313 5.42266L60.0005 3.57812Z" fill="#23CE9E"/>
<path d="M57.1501 8.49854L54.6713 12.776L43.7376 20.4185L16.8983 39.1797L10.8556 43.4044L7.11366 46.0195C6.52936 46.4285 5.84217 46.5815 5.18569 46.5008L5.04377 46.2977C4.16182 45.0374 4.46932 43.3028 5.72955 42.4222L9.47147 39.8056L20.2132 32.298L40.9888 17.7754L53.2872 9.17869L57.1501 8.49854Z" fill="#19B783"/>
<path d="M60.0004 3.57812L56.7008 9.27309L54.6712 12.7758L49.5312 5.42266L53.5181 4.72012L60.0004 3.57812Z" fill="#ABEFE6"/>
<path d="M5.71561 36.0498L10.8556 43.4044L7.11366 46.0195C5.85471 46.9001 4.11869 46.5927 3.23815 45.3323L1.28791 42.5419C0.40596 41.2815 0.71346 39.5469 1.97369 38.6664L5.71561 36.0498Z" fill="#F23488"/>
<path d="M44.4589 24.1937C44.2068 21.3587 43.0208 18.6709 41.0282 16.6385C39.2144 14.7886 36.485 13.1885 32.4693 13.1885C22.9505 13.1885 12.3743 23.0598 17.6624 33.8124C22.9505 44.5651 31.7642 60.4296 40.5779 59.5482C46.0788 58.9981 46.9104 53.8473 46.7583 50.053L44.4589 24.1937Z" fill="#EF9C7D"/>
<path d="M31.2354 41.7447C31.2354 41.7447 33.7033 47.3854 36.6999 47.3854C38.0566 47.3854 38.9796 46.5905 39.5836 45.7206L41.8437 40.3972C42.2438 39.4548 41.7461 38.3649 40.766 38.0681C39.3269 37.6323 37.467 36.6171 36.6119 34.2525C35.1135 30.1104 40.754 30.1104 40.754 26.2334C40.754 22.3549 31.588 19.1823 26.652 21.8262C25.1222 22.6458 24.2869 24.007 23.8623 25.4956C23.2305 27.7112 23.6472 30.0954 24.9046 32.0261L31.2354 41.7447Z" fill="#D1866C"/>
<path d="M33.0547 2.12881L31.4844 2.79982C30.4368 3.24584 29.3983 3.7092 28.3601 4.1735C26.2853 5.1049 24.223 6.06045 22.1693 7.03264C20.1182 8.00986 18.0721 8.9967 16.0385 10.0076L14.5124 10.764L12.9915 11.5306C11.9763 12.0392 10.9656 12.5564 9.95592 13.0759L6.96623 14.6141L10.3071 15.0285C11.0197 15.1168 11.732 15.21 12.4454 15.2922L14.5851 15.5457C14.9827 15.5941 15.3804 15.6389 15.7786 15.6828L13.8327 16.7712C12.2751 17.6524 10.7204 18.5395 9.17463 19.4429C7.62705 20.3434 6.08908 21.2619 4.55709 22.1917L3.41088 22.8942L2.26982 23.6067C1.50752 24.0791 0.752129 24.5641 0.000488281 25.0563C0.831113 24.7138 1.65799 24.3642 2.4783 24.0022L3.71064 23.4628L4.93771 22.9134C6.57014 22.1741 8.1967 21.4233 9.81365 20.6546C11.4322 19.889 13.0422 19.1068 14.649 18.3187L17.0533 17.1252L19.449 15.9159L22.2395 14.5074L19.1072 14.0594C18.3961 13.9577 17.6835 13.8685 16.9718 13.7726C16.2598 13.6796 15.5482 13.5805 14.8354 13.4935L13.858 13.3708C13.8804 13.3589 13.9028 13.3472 13.9252 13.3353L15.4297 12.5372L16.929 11.7287C18.9292 10.653 20.9169 9.55334 22.8997 8.44416C24.88 7.32994 26.8514 6.19885 28.8107 5.04385C29.7894 4.46494 30.768 3.8851 31.7372 3.28779L33.1922 2.394C33.6736 2.08908 34.1584 1.79061 34.6363 1.479C34.1056 1.689 33.5819 1.91225 33.0547 2.12881Z" fill="#EA9B22"/>
<path d="M60.0004 3.57812L56.7008 9.27309C55.0524 8.31602 53.8574 6.66484 53.5181 4.72012L60.0004 3.57812Z" fill="#F23488"/>
</g>
<defs>
<clipPath id="clip0_19_18686">
<rect width="60" height="60" fill="white" transform="translate(0.000488281 0.53125)"/>
</clipPath>
</defs>
</svg>
