<svg width="61" height="60" viewBox="0 0 61 60" fill="none" xmlns="http://www.w3.org/2000/svg">
<path d="M26.5304 16.9424C31.5221 7.84734 38.1985 22.3148 28.9581 23.0817C26.8458 23.2568 26.5834 22.1685 26.0708 20.4693" stroke="black" stroke-opacity="0.9" stroke-width="2.4" stroke-linecap="round" stroke-linejoin="round"/>
<path d="M30.3763 6.8999C41.1077 7.54235 19.4761 13.5398 26.4281 8.06332" stroke="black" stroke-opacity="0.5" stroke-width="2.4" stroke-linecap="round" stroke-linejoin="round"/>
<path d="M23.2208 25.7555C23.1467 23.1809 13.1371 11.9476 11.8264 13.4959C8.35478 17.5976 17.8817 24.3688 19.4774 27.1181C19.9238 27.8872 14.8726 24.7285 14.5127 27.9194C14.2431 30.307 18.8263 30.287 18.8263 31.7653C18.8263 33.2434 17.0629 32.1125 16.8728 32.4868C16.105 33.9986 17.6554 34.6501 18.8263 34.6501" stroke="black" stroke-opacity="0.5" stroke-width="2.4" stroke-linecap="round" stroke-linejoin="round"/>
<path d="M35.9709 23.8132C37.7303 21.9689 39.2228 19.904 40.8003 17.909C41.3912 17.1625 47.2473 10.8158 48.8504 12.404C52.767 16.2859 40.4783 25.7054 40.4783 26.0473C40.4783 26.7184 45.8757 24.9863 45.6303 26.4458C45.3312 28.2251 42.9438 28.6039 42.0081 29.7167C41.6847 30.1009 45.783 33.1355 41.4443 32.828" stroke="black" stroke-opacity="0.5" stroke-width="2.4" stroke-linecap="round" stroke-linejoin="round"/>
<path d="M26.3708 52.8992C28.6093 47.5367 26.3711 39.0656 26.6588 27.0719M33.2035 26.7002C32.396 32.9021 31.5145 51.3198 32.6869 52.659C33.1045 53.1363 32.9953 52.8992 33.7208 52.8302" stroke="black" stroke-opacity="0.9" stroke-width="2.4" stroke-linecap="round" stroke-linejoin="round"/>
<path d="M26.2209 52.9502C25.9698 53.1453 25.7289 53.147 25.4709 53.2502" stroke="black" stroke-opacity="0.9" stroke-width="2.4" stroke-linecap="round" stroke-linejoin="round"/>
<path d="M26.5209 27.1499C25.1709 32.8676 24.2004 35.8987 22.4709 39.1499" stroke="black" stroke-opacity="0.9" stroke-width="2.4" stroke-linecap="round" stroke-linejoin="round"/>
<path d="M33.4209 27C33.7824 31.3299 34.7764 35.4218 36.1209 37.8" stroke="black" stroke-opacity="0.9" stroke-width="2.4" stroke-linecap="round" stroke-linejoin="round"/>
</svg>
