<svg width="60" height="60" viewBox="0 0 60 60" fill="none" xmlns="http://www.w3.org/2000/svg">
<path d="M18.0042 5.35453C16.3148 7.85719 16.1072 10.7822 17.1473 13.3275C20.1605 12.9497 22.9641 11.4131 24.6534 8.91047C26.3428 6.40781 26.5505 3.48281 25.5103 0.9375C22.4972 1.31531 19.6936 2.85188 18.0042 5.35453Z" fill="#286F0D"/>
<path d="M17.3742 19.5889C16.8567 19.5889 16.4367 19.1689 16.4367 18.6514V15.184C16.4367 12.8567 15.2161 10.7046 13.1719 9.42822C12.7327 9.15401 12.5991 8.57557 12.8733 8.13635C13.1475 7.69713 13.7255 7.56354 14.1652 7.83776C16.7616 9.45916 18.3117 12.2056 18.3117 15.184V18.6514C18.3117 19.1693 17.8922 19.5889 17.3742 19.5889Z" fill="#63271D"/>
<path d="M17.6109 53.4498C25.7839 53.4498 32.4094 45.4096 32.4094 35.4915C32.4094 25.5734 25.7839 17.5332 17.6109 17.5332C9.43799 17.5332 2.8125 25.5734 2.8125 35.4915C2.8125 45.4096 9.43799 53.4498 17.6109 53.4498Z" fill="#7D4B12"/>
<path d="M9.12375 35.4915C9.12375 26.888 14.1103 19.7016 20.7666 17.9462C19.7494 17.678 18.6942 17.5327 17.6109 17.5327C9.43781 17.5327 2.8125 25.5732 2.8125 35.4915C2.8125 45.4097 9.43781 53.4497 17.6109 53.4497C18.6942 53.4497 19.7494 53.3044 20.7666 53.0363C14.1103 51.2813 9.12375 44.0949 9.12375 35.4915Z" fill="#75480C"/>
<path d="M6.21094 35.4915C6.21094 26.2712 11.9381 18.6779 19.3102 17.6546C18.7523 17.5773 18.1861 17.5332 17.6109 17.5332C9.43781 17.5327 2.8125 25.5732 2.8125 35.4915C2.8125 45.4098 9.43781 53.4498 17.6109 53.4498C18.1861 53.4498 18.7523 53.4057 19.3102 53.3284C11.9381 52.3051 6.21094 44.7118 6.21094 35.4915Z" fill="#66410C"/>
<path d="M13.5891 23.3888C14.948 24.8349 17.5519 27.9933 21.2705 23.3888C21.2705 23.3888 24.3431 23.0785 26.1291 20.8102C23.7202 18.7482 20.7834 17.5327 17.6114 17.5327C14.4848 17.5327 11.5866 18.7126 9.19688 20.7212C9.84422 21.9727 11.1056 23.2154 13.5891 23.3888Z" fill="#88550D"/>
<path d="M9.1814 42.0984C8.76093 42.0984 8.37797 41.8134 8.2725 41.3864C7.83844 39.6384 7.61859 37.8183 7.61859 35.9756C7.61859 33.509 8.00765 31.1109 8.77547 28.8469C8.9414 28.3565 9.4739 28.0959 9.96422 28.26C10.4545 28.4264 10.717 28.9584 10.5511 29.4492C9.84937 31.5183 9.49359 33.7144 9.49359 35.9756C9.49359 37.6655 9.69515 39.3342 10.0922 40.935C10.2169 41.437 9.91078 41.9456 9.40828 42.0708C9.33187 42.0895 9.25593 42.0984 9.1814 42.0984Z" fill="#FFFEE9"/>
<path d="M11.4984 46.0404C11.25 46.0404 11.0156 45.942 10.8375 45.7638C10.7906 45.7217 10.7531 45.6748 10.7203 45.6232C10.6828 45.5717 10.6547 45.5154 10.6312 45.4587C10.6078 45.4024 10.5937 45.3467 10.5797 45.2853C10.5656 45.2243 10.5609 45.1634 10.5609 45.1024C10.5609 45.0415 10.5703 44.9806 10.5797 44.9196C10.5937 44.8587 10.6078 44.7973 10.6312 44.7415C10.6547 44.6853 10.6875 44.6337 10.7203 44.5817C10.7531 44.5306 10.7906 44.4832 10.8375 44.4363C10.8797 44.3942 10.9266 44.3567 10.9781 44.3238C11.0297 44.2863 11.0859 44.2582 11.1422 44.2353C11.1984 44.2113 11.2547 44.1931 11.3156 44.1837C11.4375 44.1556 11.5594 44.1556 11.6812 44.1837C11.7422 44.1935 11.8031 44.2118 11.8594 44.2353C11.9156 44.2587 11.9672 44.2863 12.0187 44.3238C12.0703 44.3567 12.1172 44.3942 12.1641 44.4363C12.2062 44.4832 12.2437 44.5301 12.2766 44.5817C12.3141 44.6332 12.3422 44.6853 12.3656 44.7415C12.3891 44.7973 12.4078 44.8587 12.4172 44.9196C12.4312 44.9806 12.4359 45.0415 12.4359 45.1024C12.4359 45.1634 12.4312 45.2243 12.4172 45.2853C12.4078 45.3467 12.3891 45.4024 12.3656 45.4587C12.3422 45.5149 12.3141 45.5712 12.2812 45.6232C12.2437 45.6743 12.2062 45.7217 12.1641 45.7638C12.1172 45.8107 12.0703 45.8482 12.0187 45.881C11.9672 45.9138 11.9156 45.9467 11.8594 45.9696C11.8031 45.9935 11.7422 46.0071 11.6812 46.0212C11.625 46.0357 11.5594 46.0404 11.4984 46.0404Z" fill="#FFFEE9"/>
<path d="M57.1875 44.6097C57.1875 52.5921 50.6053 59.0627 42.4856 59.0627C34.3659 59.0627 27.967 52.4027 27.7837 44.6097C27.5962 36.6297 34.3659 30.1567 42.4856 30.1567C50.6053 30.1567 57.1875 36.6278 57.1875 44.6097Z" fill="#9B9F1A"/>
<path d="M42.4856 47.3728C44.5782 47.3728 46.2745 45.7161 46.2745 43.6725C46.2745 41.6289 44.5782 39.9722 42.4856 39.9722C40.3931 39.9722 38.6967 41.6289 38.6967 43.6725C38.6967 45.7161 40.3931 47.3728 42.4856 47.3728Z" fill="#F6E177"/>
<path d="M42.4856 57.1256C34.6973 57.1256 28.328 51.1716 27.8203 43.6416C27.7988 43.9622 27.7838 44.2842 27.7838 44.6105C27.7838 52.5928 34.3659 59.0635 42.4856 59.0635C50.6053 59.0635 57.1875 52.5924 57.1875 44.61C57.1875 44.2842 57.1725 43.9617 57.1509 43.6411C56.6433 51.1711 50.2739 57.1256 42.4856 57.1256Z" fill="#66410C"/>
<path d="M42.4856 37.3072C41.9681 37.3072 41.5481 36.8872 41.5481 36.3697V32.9492C41.5481 32.4317 41.9681 32.0117 42.4856 32.0117C43.0031 32.0117 43.4231 32.4317 43.4231 32.9492V36.3697C43.4231 36.8872 43.0036 37.3072 42.4856 37.3072Z" fill="#443A00"/>
<path d="M37.1986 39.446C36.9623 39.446 36.7261 39.3574 36.5437 39.1793L34.0673 36.7605C33.697 36.3991 33.69 35.8052 34.0519 35.4349C34.4137 35.0641 35.0077 35.0575 35.3775 35.4194L37.8539 37.8382C38.2242 38.1996 38.2312 38.7935 37.8694 39.1638C37.6856 39.3518 37.4419 39.446 37.1986 39.446Z" fill="#443A00"/>
<path d="M35.0086 44.6099H31.5066C30.9891 44.6099 30.5691 44.1899 30.5691 43.6724C30.5691 43.1549 30.9891 42.7349 31.5066 42.7349H35.0086C35.5261 42.7349 35.9461 43.1549 35.9461 43.6724C35.9461 44.1899 35.5266 44.6099 35.0086 44.6099Z" fill="#443A00"/>
<path d="M34.7222 52.1922C34.4784 52.1922 34.2351 52.098 34.0514 51.9096C33.6895 51.5392 33.6966 50.9453 34.0669 50.5839L36.5433 48.1656C36.9141 47.8042 37.508 47.8108 37.8689 48.1811C38.2308 48.5514 38.2237 49.1453 37.8534 49.5067L35.377 51.925C35.1952 52.1031 34.9584 52.1922 34.7222 52.1922Z" fill="#443A00"/>
<path d="M42.4856 55.3331C41.9681 55.3331 41.5481 54.9131 41.5481 54.3956V50.9751C41.5481 50.4576 41.9681 50.0376 42.4856 50.0376C43.0031 50.0376 43.4231 50.4576 43.4231 50.9751V54.3956C43.4231 54.9131 43.0036 55.3331 42.4856 55.3331Z" fill="#443A00"/>
<path d="M50.2491 52.1924C50.0128 52.1924 49.7766 52.1038 49.5942 51.9257L47.1178 49.5074C46.7475 49.146 46.7405 48.5521 47.1023 48.1818C47.4637 47.8115 48.0577 47.8044 48.428 48.1663L50.9044 50.5846C51.2747 50.946 51.2817 51.5399 50.9198 51.9102C50.7361 52.0982 50.4928 52.1924 50.2491 52.1924Z" fill="#443A00"/>
<path d="M53.4652 44.6099H49.9631C49.4456 44.6099 49.0256 44.1899 49.0256 43.6724C49.0256 43.1549 49.4456 42.7349 49.9631 42.7349H53.4652C53.9827 42.7349 54.4027 43.1549 54.4027 43.6724C54.4027 44.1899 53.9827 44.6099 53.4652 44.6099Z" fill="#443A00"/>
<path d="M47.7731 39.4461C47.5294 39.4461 47.2861 39.3519 47.1023 39.1634C46.7405 38.7931 46.7475 38.1992 47.1178 37.8378L49.5942 35.4191C49.965 35.0577 50.5584 35.0642 50.9198 35.4345C51.2817 35.8048 51.2747 36.3988 50.9044 36.7602L48.428 39.1789C48.2456 39.3575 48.0089 39.4461 47.7731 39.4461Z" fill="#443A00"/>
</svg>
