<svg width="32" height="33" viewBox="0 0 32 33" fill="none" xmlns="http://www.w3.org/2000/svg">
<path d="M16.004 10.6074C19.87 10.6074 23.004 8.81656 23.004 6.60742C23.004 4.39828 19.87 2.60742 16.004 2.60742C12.138 2.60742 9.004 4.39828 9.004 6.60742C9.004 8.81656 12.138 10.6074 16.004 10.6074Z" stroke="black" stroke-width="2" stroke-miterlimit="10" stroke-linecap="round" stroke-linejoin="round"/>
<path d="M9.004 6.60742V11.6074C9.004 13.8074 12.104 15.6074 16.004 15.6074C19.904 15.6074 23.004 13.8074 23.004 11.6074V6.60742" stroke="black" stroke-width="2" stroke-miterlimit="10" stroke-linecap="round" stroke-linejoin="round"/>
<path d="M2.004 12.6074V21.6074L16.004 30.6074L30.004 21.6074V12.6074" stroke="black" stroke-width="2" stroke-miterlimit="10" stroke-linecap="round" stroke-linejoin="round"/>
<path d="M9.004 8.10742L2.004 12.6074L16.004 21.6074L30.004 12.6074L23.004 8.10742" stroke="black" stroke-width="2" stroke-miterlimit="10" stroke-linecap="round" stroke-linejoin="round"/>
<path d="M16.004 21.6074V30.6074" stroke="black" stroke-width="2" stroke-miterlimit="10" stroke-linecap="round" stroke-linejoin="round"/>
</svg>
