<svg width="32" height="32" viewBox="0 0 32 32" fill="none" xmlns="http://www.w3.org/2000/svg">
<path d="M28.9999 19H16.9999V17H21.9999C22.2999 17 22.6999 16.8 22.8999 16.5C23.0999 16.2 23.0999 15.8 22.8999 15.5L16.8999 3.5C16.8999 3.5 16.8999 3.5 16.7999 3.4C16.6999 3.3 16.6999 3.2 16.5999 3.2L16.4999 3.1C16.3999 3.1 16.2999 3 16.1999 3H16.0999H15.9999C15.8999 3 15.7999 3 15.6999 3.1C15.6999 3.1 15.6999 3.1 15.5999 3.1C15.4999 3.1 15.3999 3.2 15.2999 3.3L2.2999 15.3C1.9999 15.5 1.8999 16 2.0999 16.4C2.2999 16.8 2.5999 17 2.9999 17H14.9999V19H2.9999C2.3999 19 1.9999 19.4 1.9999 20C1.9999 25 5.9999 29 10.9999 29H20.9999C25.9999 29 29.9999 25 29.9999 20C29.9999 19.4 29.5999 19 28.9999 19ZM16.9999 15V8.2L20.3999 15H16.9999ZM5.5999 15L14.9999 6.3V15H5.5999Z" fill="black"/>
</svg>
