<svg width="60" height="60" viewBox="0 0 60 60" fill="none" xmlns="http://www.w3.org/2000/svg">
<g clip-path="url(#clip0_10_178)">
<path d="M0.0039978 0H60.004V60H0.0039978V0Z" fill="#34BDB2"/>
<path d="M39.487 20.4002C36.3192 18.5622 33.5072 17.1168 29.8285 17.1806C27.7238 17.2172 25.9167 18.3611 25.5368 20.4548C25.1831 22.4027 26.9147 23.4832 28.7161 24.1465C31.7037 25.2466 34.3045 26.4082 37.2401 27.6314C42.5766 29.8554 45.3129 33.457 44.9895 38.0782C44.5779 43.9579 41.0393 48.1751 35.4155 49.5654C28.0669 51.3822 20.9309 48.6147 14.9016 44.7513C16.4234 42.4331 18.1889 40.8506 19.7016 38.5465C23.1849 40.0291 25.9214 42.0326 29.5655 42.345C32.1349 42.5653 35.0463 42.4427 35.6236 39.4247C36.1439 36.7031 33.7753 35.2441 31.4651 34.4292C28.7147 33.4591 25.9695 32.2725 23.2723 31.1709C18.2864 29.1344 16.2577 25.1512 16.5992 20.4588C16.5992 17.7075 18.882 12.1465 24.4791 10.4168C33.0788 7.75895 37.8169 10.4805 44.0529 14.4881C42.3966 16.6786 41.1232 18.236 39.487 20.4002Z" fill="white"/>
</g>
<defs>
<clipPath id="clip0_10_178">
<rect width="60" height="60" fill="white" transform="translate(0.0039978)"/>
</clipPath>
</defs>
</svg>
