<svg width="60" height="60" viewBox="0 0 60 60" fill="none" xmlns="http://www.w3.org/2000/svg">
<path d="M51.979 12.7961C51.9283 12.4977 51.766 12.2663 51.5253 12.1324L39.8684 0.475418C39.7345 0.234652 39.503 0.0723932 39.2047 0.0216428C39.1197 0.00258161 39.032 -0.00349415 38.9427 0.00424946H10.9993C9.29937 0.00424946 7.99951 1.3041 7.99951 3.00401V57.0004C7.99951 58.7003 9.29937 60.0002 10.9993 60.0002H48.9967C50.6966 60.0002 51.9964 58.7003 51.9964 57.0004V13.0582C52.0043 12.969 51.9982 12.8812 51.979 12.7961ZM48.5966 12.0035H40.9972C40.3972 12.0035 39.9973 11.6036 39.9973 11.0036V3.40417L48.5966 12.0035ZM49.9966 57.0004C49.9966 57.6004 49.5966 58.0003 48.9967 58.0003H10.9993C10.3993 58.0003 9.99939 57.6004 9.99939 57.0004V3.00412C9.99939 2.50413 10.3993 2.00425 10.9993 2.00425H37.9974V11.0036C37.9974 12.7035 39.2973 14.0034 40.9972 14.0034H49.9966V57.0004Z" fill="black"/>
<path d="M13.999 19.0029V27.0024V35.0019V43.0015V51.0008C13.999 51.6008 14.399 52.0007 14.9989 52.0007H24.9982H34.9974H44.9967C45.5966 52.0007 45.9966 51.6008 45.9966 51.0008V43.0013V35.0018V27.0023V19.0028C45.9966 18.4029 45.5966 18.0029 44.9967 18.0029H14.999C14.3991 18.003 13.999 18.403 13.999 19.0029ZM33.9977 28.0023V34.0019H25.9982V28.0023H33.9977ZM43.9969 28.0023V34.0019H35.9974V28.0023H43.9969ZM15.9989 36.0018H23.9984V42.0015H15.9989V36.0018ZM25.9982 36.0018H33.9977V42.0015H25.9982V36.0018ZM35.9976 36.0018H43.9971V42.0015H35.9976V36.0018ZM23.9984 34.0019H15.9989V28.0023H23.9984V34.0019ZM15.9989 44.0012H23.9984V50.0008H15.9989V44.0012ZM25.9982 44.0012H33.9977V50.0008H25.9982V44.0012ZM43.9969 50.0008H35.9974V44.0012H43.9969V50.0008ZM15.9989 20.0029H43.9969V26.0026H34.9976H24.9983H15.9989V20.0029Z" fill="black"/>
<path d="M41.9972 23.0028C41.9972 22.4029 41.5973 22.0029 40.9973 22.0029H18.9987C18.3987 22.0029 17.9988 22.4029 17.9988 23.0028C17.9988 23.6028 18.3987 24.0027 18.9987 24.0027H40.9972C41.5971 24.0028 41.9972 23.6028 41.9972 23.0028Z" fill="black"/>
</svg>
