<svg width="60" height="60" viewBox="0 0 60 60" fill="none" xmlns="http://www.w3.org/2000/svg">
<g clip-path="url(#clip0_16_14401)">
<path d="M50 0H10C4.485 0 0 4.485 0 10V50C0 55.515 4.485 60 10 60H50C55.515 60 60 55.515 60 50V10C60 4.485 55.515 0 50 0ZM55 50C55 52.76 52.76 55 50 55H10C7.2425 55 5 52.76 5 50V10C5 7.2425 7.2425 5 10 5H50C52.76 5 55 7.2425 55 10V50Z" fill="black"/>
<path d="M43.5575 16.9473H34.75L32.455 21.1648C31.76 22.4473 31.1175 23.7798 30.425 25.1698H30.32C29.6275 23.9423 28.9325 22.6073 28.185 21.2698L25.6225 16.9473H16.5475L25.195 29.7598L16.335 43.0498H25.25L27.7025 38.3523C28.3425 37.0723 29.04 35.7923 29.6775 34.4023H29.8375C30.4775 35.7373 31.1175 37.0698 31.865 38.3523L34.48 43.0498H43.6625L34.9625 29.3848L43.5575 16.9473Z" fill="black"/>
</g>
<defs>
<clipPath id="clip0_16_14401">
<rect width="60" height="60" fill="white"/>
</clipPath>
</defs>
</svg>
