<svg width="61" height="60" viewBox="0 0 61 60" fill="none" xmlns="http://www.w3.org/2000/svg">
<path d="M53.1003 12.3752L34.2251 1.0534C33.0545 0.350859 31.7374 0 30.4221 0C29.105 0 27.7874 0.350859 26.6174 1.0534L7.74208 12.3752C5.51411 13.7119 4.15063 16.1194 4.15063 18.7171V41.2829C4.15063 43.8807 5.51411 46.2881 7.74208 47.6248L26.6174 58.9466C27.7874 59.6483 29.105 60 30.4221 60C31.7375 60 33.0545 59.6483 34.2251 58.9466L53.1003 47.6248C55.3283 46.2881 56.6909 43.8807 56.6909 41.2829V18.7171C56.6909 16.1194 55.3283 13.7119 53.1003 12.3752ZM29.7879 57.7421C29.0813 57.6548 28.3898 57.4235 27.7582 57.0451L8.8829 45.7233C7.3236 44.7871 6.36853 43.1019 6.36853 41.2829V18.7171C6.36853 18.0114 6.51337 17.327 6.78079 16.6976L29.788 30.4976V57.7421H29.7879ZM7.41325 15.5993C7.80747 15.0762 8.30306 14.6245 8.8829 14.2768L27.7582 2.955C28.5779 2.46328 29.4984 2.21777 30.4221 2.21777C31.3441 2.21777 32.2646 2.46328 33.0843 2.955L51.9596 14.2768C52.5386 14.6245 53.0359 15.0762 53.4292 15.5993L30.4221 29.4001L7.41325 15.5993ZM54.474 41.2829C54.474 43.1019 53.5189 44.7871 51.9596 45.7233L33.0843 57.0451C32.4518 57.4235 31.7611 57.6548 31.0545 57.7421V30.4976L54.0617 16.6976C54.3293 17.3269 54.474 18.0114 54.474 18.7171V41.2829Z" fill="black"/>
<path d="M19.1952 14.0477C18.0435 13.1948 16.1459 13.1729 14.9571 13.9997C13.7684 14.8265 13.7385 16.1876 14.8903 17.0403C16.0421 17.8931 17.9398 17.9144 19.1277 17.0884C20.3172 16.2615 20.3471 14.9005 19.1952 14.0477Z" fill="black"/>
<path d="M33.1348 5.70546C31.983 4.85268 30.0854 4.83147 28.8959 5.65823C27.708 6.48428 27.678 7.84542 28.8298 8.69819C29.9817 9.55178 31.8793 9.57218 33.0672 8.74694C34.2567 7.91936 34.2866 6.55823 33.1348 5.70546Z" fill="black"/>
<path d="M26.2711 9.61238C25.1187 8.76043 23.2209 8.7384 22.0322 9.56516C20.8427 10.3912 20.8127 11.7523 21.9653 12.6051C23.1171 13.4587 25.0147 13.4791 26.2035 12.6539C27.3915 11.8263 27.4221 10.4653 26.2711 9.61238Z" fill="black"/>
<path d="M31.7611 21.6509C30.6094 20.7981 28.7125 20.7768 27.5237 21.6029C26.3342 22.4298 26.3044 23.7909 27.4561 24.6435C28.6078 25.4971 30.5054 25.5176 31.695 24.6916C32.8829 23.8647 32.9128 22.5037 31.7611 21.6509Z" fill="black"/>
<path d="M45.7003 13.3082C44.5485 12.4562 42.6509 12.4342 41.463 13.261C40.2734 14.0871 40.2435 15.4482 41.3954 16.301C42.5471 17.1546 44.4446 17.1749 45.6343 16.3497C46.8222 15.5221 46.8521 14.1611 45.7003 13.3082Z" fill="black"/>
<path d="M38.8369 17.2154C37.6851 16.3635 35.7875 16.3414 34.598 17.1682C33.4101 17.9942 33.3802 19.3554 34.5319 20.2081C35.6837 21.0617 37.5813 21.0829 38.7692 20.2569C39.9589 19.4293 39.9888 18.0691 38.8369 17.2154Z" fill="black"/>
<path d="M10.8844 29.098C12.1919 29.8108 13.2508 29.3278 13.2508 28.021C13.2508 26.7135 12.1919 25.0764 10.8844 24.3636C9.5769 23.6508 8.51636 24.1331 8.51636 25.4406C8.51624 26.7473 9.57679 28.3853 10.8844 29.098Z" fill="black"/>
<path d="M24.0999 36.3012C25.4075 37.0139 26.468 36.5317 26.468 35.2249C26.468 33.9175 25.4075 32.2794 24.0999 31.5667C22.7932 30.8547 21.7334 31.3369 21.7334 32.6446C21.7334 33.9513 22.7932 35.5885 24.0999 36.3012Z" fill="black"/>
<path d="M10.8844 42.3143C12.1919 43.0264 13.2508 42.5448 13.2508 41.2374C13.2508 39.9298 12.1919 38.2926 10.8844 37.58C9.5769 36.8671 8.51636 37.3493 8.51636 38.6569C8.51624 39.9644 9.57679 41.6016 10.8844 42.3143Z" fill="black"/>
<path d="M24.0999 49.5175C25.4075 50.2303 26.468 49.748 26.468 48.4405C26.468 47.1337 25.4075 45.4958 24.0999 44.783C22.7932 44.071 21.7334 44.5532 21.7334 45.86C21.7334 47.1676 22.7932 48.8048 24.0999 49.5175Z" fill="black"/>
<path d="M17.4921 39.3073C18.7996 40.0201 19.8594 39.5378 19.8594 38.2303C19.8594 36.9235 18.7995 35.2856 17.4921 34.5735C16.1845 33.8608 15.1248 34.343 15.1248 35.6499C15.1248 36.9573 16.1845 38.5945 17.4921 39.3073Z" fill="black"/>
<path d="M49.445 24.3636C48.1375 25.0764 47.0769 26.7136 47.0769 28.021C47.0769 29.3278 48.1375 29.8108 49.445 29.098C50.751 28.3853 51.8115 26.7473 51.8115 25.4406C51.8115 24.1331 50.7511 23.6508 49.445 24.3636Z" fill="black"/>
<path d="M36.2281 44.783C34.9205 45.4957 33.8616 47.1337 33.8616 48.4404C33.8616 49.748 34.9205 50.2302 36.2281 49.5175C37.5356 48.8047 38.5945 47.1675 38.5945 45.8599C38.5945 44.5532 37.5358 44.0711 36.2281 44.783Z" fill="black"/>
<path d="M42.8365 34.5735C41.5289 35.2855 40.4685 36.9234 40.4685 38.2302C40.4685 39.5378 41.5291 40.02 42.8365 39.3073C44.1441 38.5944 45.203 36.9573 45.203 35.6498C45.203 34.3431 44.1441 33.8609 42.8365 34.5735Z" fill="black"/>
</svg>
