<svg width="60" height="60" viewBox="0 0 60 60" fill="none" xmlns="http://www.w3.org/2000/svg">
<g clip-path="url(#clip0_16_5714)">
<path d="M12.3913 25.4348C11.8818 25.4348 11.3812 25.2349 11.008 24.8616L1.22543 15.079C0.461249 14.3148 0.461249 13.0766 1.22543 12.3123L10.6718 2.86594C11.4819 2.05582 12.4168 1.40121 13.4537 0.91711C14.0869 0.624141 14.8318 0.686485 15.4051 1.08902C15.9784 1.49156 16.2916 2.17043 16.2292 2.86723L14.3402 23.6554C14.2714 24.412 13.7709 25.0591 13.0575 25.3177C12.8395 25.3966 12.6155 25.4348 12.3913 25.4348Z" fill="#CFDBE6"/>
<path d="M47.6086 25.4348C47.3844 25.4348 47.1601 25.3966 46.9425 25.3176C46.2292 25.0591 45.7286 24.412 45.6598 23.6553L43.7694 2.86729C43.707 2.17049 44.0204 1.49162 44.5935 1.08908C45.1666 0.686545 45.9144 0.622912 46.5449 0.91717C47.5843 1.40256 48.5204 2.05846 49.3281 2.86729L58.7745 12.3124C59.1414 12.6793 59.3477 13.1773 59.3477 13.6958C59.3477 14.2142 59.1414 14.7122 58.7745 15.079L48.9919 24.8616C48.6188 25.2349 48.1181 25.4348 47.6086 25.4348Z" fill="#B8C9D9"/>
<path d="M38.4859 60H21.5285L8.4859 46.9566L10.4501 23.3127L12.4329 1.4782C13.9557 0.516562 15.7848 0 17.5971 0H42.4179C44.2423 0 45.9889 0.495234 47.58 1.47012L49.565 23.3012C49.565 23.305 49.565 23.3089 49.565 23.3127L51.5292 46.9564L38.4859 60Z" fill="#E6F3FF"/>
<path d="M49.5652 23.3012L47.5792 1.47012C45.9877 0.495117 44.2403 0 42.4152 0H30V60H38.4816L51.5302 46.9566L49.5653 23.3127C49.5652 23.3088 49.5652 23.3051 49.5652 23.3012Z" fill="#CFDBE6"/>
<path d="M30 39.6042C29.4994 39.6042 28.9988 39.413 28.6167 39.0309L18.5972 29.0113C17.1182 27.5324 16.3043 25.5683 16.3043 23.478C16.3043 21.3877 17.1182 19.4235 18.5971 17.9446C20.076 16.4657 22.0402 15.6519 24.1304 15.6519C26.2207 15.6519 28.1849 16.4657 29.6638 17.9446L30 18.2811L30.3362 17.9449C31.8151 16.466 33.7793 15.6521 35.8696 15.6521C37.9598 15.6521 39.924 16.466 41.4029 17.9449C42.8818 19.4238 43.6957 21.3879 43.6957 23.4782C43.6957 25.5685 42.8818 27.5327 41.4029 29.0116L31.3834 39.0311C31.0011 39.413 30.5005 39.6042 30 39.6042Z" fill="#FF80AA"/>
<path d="M31.3832 39.0309L41.4027 29.0113C42.8817 27.5324 43.6956 25.5683 43.6956 23.478C43.6956 21.3877 42.8817 19.4235 41.4028 17.9446C39.9239 16.4657 37.9597 15.6519 35.8695 15.6519C33.7792 15.6519 31.815 16.4657 30.3361 17.9446L30 18.2811V39.6042C30.5005 39.6042 31.0011 39.413 31.3832 39.0309Z" fill="#FF5991"/>
<path d="M19.4155 49.0626C16.5432 46.1902 12.2116 45.3562 8.47816 46.9565L21.5209 60C23.1216 56.2666 22.2878 51.9349 19.4155 49.0626Z" fill="#CFDBE6"/>
<path d="M38.9839 4.51418C39.6118 3.06188 39.8452 1.53199 39.7362 0H20.263C20.1614 1.38023 20.3405 2.76375 20.8491 4.10414C22.2859 7.89105 25.9634 10.4347 30 10.4347C33.9015 10.4347 37.4286 8.11148 38.9839 4.51418Z" fill="#CFDBE6"/>
<path d="M30 0V10.4347C33.9015 10.4347 37.4286 8.11137 38.9839 4.51418C39.6118 3.06188 39.8452 1.53199 39.7362 0L30 0Z" fill="#B8C9D9"/>
<path d="M40.5844 49.0626C43.4566 46.1902 47.7882 45.3562 51.5217 46.9565L38.479 60C36.8783 56.2666 37.7122 51.9349 40.5844 49.0626Z" fill="#B8C9D9"/>
</g>
<defs>
<clipPath id="clip0_16_5714">
<rect width="60" height="60" fill="white"/>
</clipPath>
</defs>
</svg>
