<svg width="60" height="60" viewBox="0 0 60 60" fill="none" xmlns="http://www.w3.org/2000/svg">
<path d="M35.4556 27.7711C36.9521 28.2774 38.5563 28.5516 40.2251 28.5516C41.1134 28.5516 41.9853 28.4743 42.8313 28.3243V25.8305C42.8313 22.4368 41.5142 19.3489 39.3626 17.052C39.2243 20.9532 37.8544 24.7043 35.4556 27.7711Z" fill="#333333"/>
<path d="M50.7157 35.1234V25.8304C50.7157 20.2921 48.5606 15.0867 44.6466 11.1738C43.0177 9.54136 41.1403 8.2019 39.0661 7.1894C36.2184 5.80073 33.1622 5.09644 29.9817 5.09644C27.4153 5.09644 24.9052 5.56284 22.5216 6.48159C18.6567 7.97339 15.3567 10.5597 12.9778 13.964C10.538 17.4562 9.24891 21.5589 9.24891 25.8292V35.1679C7.87196 36.6222 7.02704 38.5863 7.02704 40.746C7.02704 43.6769 8.57977 46.248 10.9083 47.6742C11.5704 48.0796 12.2958 48.3937 13.0657 48.5964C12.9333 47.7457 12.8641 46.8749 12.8641 45.9878V32.9566C12.863 32.9566 12.863 32.9566 12.8618 32.9578V25.8316C12.8618 22.3054 13.9259 18.9175 15.9391 16.0359C17.9044 13.2234 20.6302 11.0871 23.8212 9.85542C25.7876 9.09722 27.8606 8.71284 29.9806 8.71284C32.6079 8.71284 35.1309 9.29409 37.4806 10.439C39.1927 11.2746 40.7419 12.3808 42.0884 13.7296C45.3204 16.9617 47.0993 21.2589 47.0993 25.8316V38.1726C47.0993 38.3027 47.1134 38.4292 47.1403 38.5523V45.9902C47.1403 46.8773 47.0724 47.748 46.9388 48.5988C47.7099 48.396 48.4341 48.082 49.0962 47.6765C51.4247 46.2492 52.9774 43.6792 52.9774 40.7484C52.9809 38.5652 52.1184 36.5835 50.7157 35.1234Z" fill="#333333"/>
<path d="M32.7321 30.5813C29.4333 33.3352 25.2509 34.8715 20.8927 34.8715C19.6259 34.8715 18.3638 34.7426 17.1333 34.4872V45.1606C17.1333 50.5407 21.495 54.9012 26.8739 54.9012H33.0895C37.3692 54.9012 41.0021 52.1403 42.3099 48.3024H33.2079C32.5751 49.4297 31.3681 50.1926 29.9829 50.1926C27.9403 50.1926 26.2856 48.5368 26.2856 46.4954C26.2856 44.4528 27.9415 42.7981 29.9829 42.7981C31.3681 42.7981 32.5751 43.561 33.2079 44.6883H42.8313V31.9805C41.9724 32.1036 41.0981 32.1645 40.2251 32.1645C37.6224 32.1645 35.0771 31.6243 32.7321 30.5813ZM26.0231 37.7028C26.0173 37.7602 26.0079 37.82 25.9974 37.8774C25.9856 37.9348 25.9716 37.9922 25.954 38.0497C25.9376 38.1047 25.9165 38.161 25.8942 38.2161C25.872 38.27 25.8462 38.3251 25.8181 38.3766C25.7899 38.4282 25.7595 38.4797 25.7278 38.5278C25.695 38.577 25.6587 38.625 25.6212 38.6708C25.5837 38.7153 25.5438 38.7598 25.5028 38.802C25.4618 38.8442 25.4161 38.884 25.3704 38.9215C25.3235 38.959 25.2767 38.9942 25.2274 39.027C25.1794 39.0598 25.1278 39.0903 25.0763 39.1184C25.0247 39.1454 24.9696 39.1711 24.9157 39.1934C24.8618 39.2157 24.8067 39.2368 24.7493 39.2532C24.6931 39.2708 24.6356 39.286 24.5771 39.2977C24.5196 39.3094 24.4599 39.3176 24.4024 39.3235C24.3438 39.3305 24.2841 39.3329 24.2243 39.3329C24.1657 39.3329 24.106 39.3305 24.0474 39.3235C23.9888 39.3176 23.9302 39.3083 23.8728 39.2977C23.8153 39.286 23.7579 39.2719 23.7017 39.2532C23.6454 39.2368 23.5892 39.2157 23.5341 39.1934C23.4802 39.1723 23.4274 39.1465 23.3747 39.1184C23.3231 39.0903 23.2704 39.0598 23.2224 39.027C23.1743 38.9942 23.1251 38.959 23.0806 38.9215C23.0337 38.884 22.9903 38.8442 22.9481 38.802C22.906 38.7598 22.8661 38.7165 22.8286 38.6708C22.7911 38.6239 22.756 38.577 22.7231 38.5278C22.6903 38.4797 22.6599 38.4282 22.6329 38.3766C22.6048 38.3251 22.5802 38.27 22.5567 38.2161C22.5345 38.1622 22.5134 38.1059 22.497 38.0497C22.4806 37.9934 22.4653 37.936 22.4536 37.8774C22.4407 37.82 22.4325 37.7602 22.4267 37.7028C22.4208 37.643 22.4173 37.5833 22.4173 37.5247C22.4173 37.4661 22.4208 37.4063 22.4267 37.3477C22.4325 37.2891 22.4419 37.2305 22.4536 37.1731C22.4653 37.1157 22.4794 37.0571 22.497 37.002C22.5134 36.9458 22.5345 36.8895 22.5567 36.8344C22.579 36.7805 22.6036 36.7254 22.6329 36.675C22.6599 36.6235 22.6903 36.5708 22.7231 36.5227C22.756 36.4735 22.7911 36.4254 22.8286 36.3809C22.8661 36.334 22.9071 36.2907 22.9481 36.2485C22.9892 36.2063 23.0337 36.1665 23.0806 36.129C23.1263 36.0915 23.1743 36.0563 23.2224 36.0235C23.2704 35.9907 23.3231 35.9602 23.3747 35.9321C23.4263 35.9051 23.4802 35.8805 23.5341 35.8571C23.588 35.8348 23.6442 35.8137 23.7017 35.7973C23.7579 35.7809 23.8153 35.7657 23.8728 35.7528C23.9302 35.7411 23.9888 35.7329 24.0474 35.727C24.1646 35.7141 24.2841 35.7141 24.4036 35.727C24.4622 35.7329 24.5208 35.7422 24.5782 35.7528C24.6356 35.7657 24.6931 35.7797 24.7505 35.7973C24.8067 35.8137 24.8618 35.8348 24.9169 35.8571C24.9708 35.8793 25.0259 35.904 25.0774 35.9321C25.129 35.9602 25.1806 35.9907 25.2286 36.0235C25.2778 36.0563 25.3271 36.0915 25.3716 36.129C25.4161 36.1665 25.4618 36.2075 25.504 36.2485C25.5462 36.2895 25.5849 36.334 25.6224 36.3809C25.6599 36.4254 25.6962 36.4735 25.729 36.5227C25.7606 36.5708 25.7911 36.6235 25.8192 36.675C25.8462 36.7254 25.872 36.7805 25.8954 36.8344C25.9177 36.8883 25.9388 36.9446 25.9552 37.002C25.9716 37.0571 25.9868 37.1157 25.9985 37.1731C26.0103 37.2305 26.0185 37.2891 26.0243 37.3477C26.0313 37.4063 26.0337 37.4661 26.0337 37.5247C26.0313 37.5833 26.0302 37.643 26.0231 37.7028ZM37.538 37.7028C37.531 37.7602 37.5228 37.82 37.511 37.8774C37.4993 37.9348 37.4853 37.9922 37.4677 38.0497C37.4513 38.1047 37.4302 38.161 37.4079 38.2161C37.3856 38.27 37.361 38.3251 37.3317 38.3766C37.3048 38.4282 37.2743 38.4797 37.2415 38.5278C37.2087 38.577 37.1735 38.625 37.136 38.6708C37.0985 38.7153 37.0587 38.7598 37.0165 38.802C36.9743 38.8442 36.931 38.884 36.8841 38.9215C36.8384 38.959 36.7903 38.9942 36.7423 39.027C36.6931 39.0598 36.6415 39.0903 36.5899 39.1184C36.5384 39.1454 36.4845 39.1711 36.4306 39.1934C36.3755 39.2157 36.3204 39.2368 36.263 39.2532C36.2067 39.2708 36.1493 39.286 36.0907 39.2977C36.0333 39.3094 35.9747 39.3176 35.9161 39.3235C35.8575 39.3305 35.7978 39.3329 35.7392 39.3329C35.6794 39.3329 35.6196 39.3305 35.561 39.3235C35.5024 39.3176 35.4438 39.3083 35.3864 39.2977C35.329 39.286 35.2716 39.2719 35.2153 39.2532C35.1591 39.2368 35.104 39.2157 35.0489 39.1934C34.995 39.1723 34.9399 39.1465 34.8884 39.1184C34.8368 39.0903 34.7853 39.0598 34.7372 39.027C34.688 38.9942 34.6388 38.959 34.5942 38.9215C34.5485 38.884 34.504 38.8442 34.4618 38.802C34.4196 38.7598 34.381 38.7165 34.3435 38.6708C34.306 38.6239 34.2696 38.577 34.2368 38.5278C34.2052 38.4797 34.1735 38.4282 34.1466 38.3766C34.1196 38.3251 34.0938 38.27 34.0704 38.2161C34.0481 38.1622 34.0271 38.1059 34.0106 38.0497C33.9942 37.9934 33.979 37.936 33.9673 37.8774C33.9556 37.82 33.9474 37.7602 33.9415 37.7028C33.9345 37.643 33.9321 37.5833 33.9321 37.5247C33.9321 37.4661 33.9345 37.4063 33.9415 37.3477C33.9474 37.2891 33.9567 37.2305 33.9673 37.1731C33.979 37.1157 33.9931 37.0571 34.0106 37.002C34.0271 36.9458 34.0481 36.8895 34.0704 36.8344C34.0927 36.7805 34.1185 36.7254 34.1466 36.675C34.1735 36.6235 34.2052 36.5708 34.2368 36.5227C34.2696 36.4735 34.306 36.4254 34.3435 36.3809C34.381 36.334 34.4208 36.2907 34.4618 36.2485C34.5028 36.2063 34.5485 36.1665 34.5942 36.129C34.6388 36.0915 34.688 36.0563 34.7372 36.0235C34.7864 35.9907 34.8368 35.9602 34.8884 35.9321C34.9399 35.9051 34.995 35.8805 35.0489 35.8571C35.1028 35.8348 35.1591 35.8137 35.2153 35.7973C35.2716 35.7809 35.329 35.7657 35.3864 35.7528C35.4438 35.7411 35.5024 35.7329 35.561 35.727C35.6794 35.7141 35.7989 35.7141 35.9173 35.727C35.9759 35.7329 36.0345 35.7422 36.0919 35.7528C36.1493 35.7657 36.2067 35.7797 36.2642 35.7973C36.3216 35.8149 36.3755 35.8348 36.4317 35.8571C36.4856 35.8793 36.5395 35.904 36.5911 35.9321C36.6427 35.9602 36.6942 35.9907 36.7435 36.0235C36.7927 36.0563 36.8407 36.0915 36.8853 36.129C36.9321 36.1665 36.9755 36.2075 37.0177 36.2485C37.0599 36.2895 37.0997 36.334 37.1372 36.3809C37.1747 36.4254 37.2099 36.4735 37.2427 36.5227C37.2755 36.5708 37.306 36.6235 37.3329 36.675C37.361 36.7254 37.3856 36.7805 37.4091 36.8344C37.4313 36.8883 37.4524 36.9446 37.4688 37.002C37.4853 37.0571 37.5005 37.1157 37.5122 37.1731C37.5251 37.2305 37.5321 37.2891 37.5392 37.3477C37.545 37.4063 37.5474 37.4661 37.5474 37.5247C37.5462 37.5833 37.5438 37.643 37.538 37.7028Z" fill="#333333"/>
<path d="M32.1134 26.1456C34.3856 23.5358 35.7603 20.1245 35.7603 16.3933C35.7603 15.6749 35.7087 14.9683 35.6103 14.2769C33.911 13.4483 32.0009 12.9819 29.9817 12.9819C28.3517 12.9819 26.7931 13.2854 25.3587 13.8386C20.5458 15.6948 17.1333 20.3636 17.1333 25.8304V30.778C18.3345 31.0921 19.5931 31.2585 20.8927 31.2585C25.3728 31.2585 29.3876 29.278 32.1134 26.1456Z" fill="#333333"/>
</svg>
