<svg width="60" height="60" viewBox="0 0 60 60" fill="none" xmlns="http://www.w3.org/2000/svg">
<g clip-path="url(#clip0_10_370)">
<path d="M1.00397 16V44C1.00397 45.1 1.90397 46 3.00401 46H57.004C58.104 46 59.004 45.1 59.004 44V16C59.004 14.9 58.104 14 57.004 14H3.00401C1.90397 14.0001 1.00397 14.9001 1.00397 16Z" fill="#FFE100"/>
<path d="M57.004 14H54.004C55.104 14 56.004 14.9 56.004 16V44C56.004 45.1 55.104 46 54.004 46H57.004C58.104 46 59.004 45.1 59.004 44V15.9999C59.004 14.9 58.104 14 57.004 14Z" fill="#FFA800"/>
<path d="M3.00401 14H6.00401C4.90397 14 4.00397 14.9 4.00397 16V44C4.00397 45.1 4.90397 46 6.00401 46H3.00401C1.90397 46 1.00397 45.1 1.00397 44V15.9999C1.00397 14.9 1.90397 14 3.00401 14Z" fill="white"/>
<path d="M8.00403 22V34L12.004 38.0001H48.004L52.004 34V22H8.00403Z" fill="#63D3FD"/>
<path d="M50.004 22V34L46.004 38.0001H48.004L52.004 34V22H50.004Z" fill="#3DB9F9"/>
<path d="M12.004 31H48.004V27H12.004V31Z" fill="#FFE100"/>
<path d="M57.004 47.0001H3.004C1.30396 47.0001 0.0039978 45.7001 0.0039978 44.0001V16C0.0039978 14.3 1.30396 13 3.004 13H57.004C58.704 13 60.004 14.3 60.004 16V44C60.004 45.7 58.704 47.0001 57.004 47.0001ZM3.004 15C2.404 15 2.00404 15.5001 2.00404 16V44C2.00404 44.6 2.404 44.9999 3.004 44.9999H57.004C57.604 44.9999 58.004 44.6 58.004 44V16C58.004 15.4 57.604 15 57.004 15H3.004Z" fill="black"/>
<path d="M48.004 38.9999H12.004C11.704 38.9999 11.504 38.8999 11.3041 38.6999L7.30409 34.6999C7.10405 34.4999 7.00409 34.3 7.00409 34V22C7.00409 21.4 7.40405 21 8.00405 21H52.0041C52.6041 21 53.004 21.4 53.004 22V34C53.004 34.3 52.9041 34.5 52.704 34.6999L48.7041 38.6999C48.504 38.8999 48.304 38.9999 48.004 38.9999ZM12.404 36.9998H47.6039L51.004 33.5999V22.9999H9.00401V33.5999L12.404 36.9998Z" fill="black"/>
<path d="M48.004 32H12.004C11.404 32 11.004 31.6 11.004 31V27C11.004 26.4 11.404 26 12.004 26H48.004C48.604 26 49.0039 26.4 49.0039 27V30.9999C49.0039 31.5999 48.604 32 48.004 32ZM13.004 30H47.0039V27.9999H13.004V30Z" fill="black"/>
</g>
<defs>
<clipPath id="clip0_10_370">
<rect width="60" height="60" fill="white" transform="translate(0.0039978)"/>
</clipPath>
</defs>
</svg>
