<svg width="60" height="60" viewBox="0 0 60 60" fill="none" xmlns="http://www.w3.org/2000/svg">
<g clip-path="url(#clip0_16_15103)">
<path d="M44.6473 58.8046H15.3528V39.0396C15.3528 30.9446 21.8952 24.3823 29.9903 24.3823C38.0853 24.3823 44.6475 30.9446 44.6475 39.0396V58.8046H44.6473Z" fill="#FFAD61"/>
<path d="M29.9906 19.8478C35.1413 19.8478 39.3168 15.6723 39.3168 10.5216C39.3168 5.37082 35.1413 1.19531 29.9906 1.19531C24.8398 1.19531 20.6643 5.37082 20.6643 10.5216C20.6643 15.6723 24.8398 19.8478 29.9906 19.8478Z" fill="#FFAD61"/>
<path d="M29.9901 21.042C35.7915 21.042 40.511 16.3222 40.511 10.5211C40.511 4.71996 35.7915 0 29.9901 0C24.1888 0 19.4692 4.71973 19.4692 10.5209C19.4692 16.322 24.189 21.042 29.9901 21.042ZM29.9901 2.39039C34.4732 2.39039 38.1206 6.03773 38.1206 10.5209C38.1206 15.004 34.4732 18.6513 29.9901 18.6513C25.507 18.6513 21.8596 15.004 21.8596 10.5209C21.8596 6.03773 25.507 2.39039 29.9901 2.39039Z" fill="#4D3D36"/>
<path d="M51.9374 60.0002C52.5975 60.0002 53.1326 59.465 53.1326 58.805C53.1326 58.145 52.5975 57.6098 51.9374 57.6098H45.8423V39.0399C45.8423 30.2988 38.7309 23.1875 29.9899 23.1875C21.2598 23.1875 14.1573 30.2988 14.1573 39.0399V57.6098H8.06238C7.40227 57.6098 6.86719 58.145 6.86719 58.805C6.86719 59.465 7.40227 60.0002 8.06238 60.0002H51.9374ZM16.5478 57.6098V39.0399C16.5478 31.617 22.5779 25.5779 29.99 25.5779C37.4129 25.5779 43.4521 31.6169 43.4521 39.0399V57.6098H16.5478Z" fill="#4D3D36"/>
<path d="M19.3624 44.7637C18.7023 44.7637 18.1672 45.2989 18.1672 45.9589V54.6583C18.1672 55.3183 18.7023 55.8535 19.3624 55.8535C20.0225 55.8535 20.5576 55.3183 20.5576 54.6583V45.9589C20.5576 45.2989 20.0225 44.7637 19.3624 44.7637Z" fill="#4D3D36"/>
<path d="M19.3624 40.3984C18.7023 40.3984 18.1672 40.9336 18.1672 41.5936V41.9802C18.1672 42.6402 18.7023 43.1754 19.3624 43.1754C20.0225 43.1754 20.5576 42.6402 20.5576 41.9802V41.5936C20.5576 40.9336 20.0225 40.3984 19.3624 40.3984Z" fill="#4D3D36"/>
</g>
<defs>
<clipPath id="clip0_16_15103">
<rect width="60" height="60" fill="white"/>
</clipPath>
</defs>
</svg>
