<svg width="60" height="60" viewBox="0 0 60 60" fill="none" xmlns="http://www.w3.org/2000/svg">
<g clip-path="url(#clip0_16_14085)">
<path d="M44.7387 9.36394C39.8376 9.36394 39.8251 7.39836 39.8251 7.39836C39.8251 4.0406 44.2132 3.55181 45.4168 3.4804C45.3474 3.40414 45.2822 3.32854 45.2087 3.25367C43.9934 2.75136 42.6622 2.59727 41.3642 2.80862C40.0663 3.01997 38.8528 3.58842 37.8596 4.45035C36.8664 3.58828 35.6529 3.01974 34.3549 2.80839C33.0569 2.59703 31.7257 2.7512 30.5104 3.25367C30.441 3.32854 30.3717 3.40414 30.3023 3.4804C31.5052 3.54973 35.894 4.0406 35.894 7.39836C35.894 7.39836 35.8808 9.36394 30.9804 9.36394H28.0297C28.0297 9.36394 28.4845 11.2068 33.4258 11.3233L34.9081 12.3119C35.7584 12.949 36.7922 13.2933 37.8547 13.2933C38.9172 13.2933 39.951 12.949 40.8013 12.3119L42.2843 11.3233C47.2256 11.2068 47.6804 9.36394 47.6804 9.36394H44.7387Z" fill="#E5E5E5"/>
<path d="M39.8237 7.39843C39.8237 7.39843 39.8362 9.36401 44.7373 9.36401H47.6853C47.5902 7.20784 46.7931 5.14181 45.4154 3.48047C44.2118 3.55188 39.8237 4.04067 39.8237 7.39843Z" fill="#E4CEC0"/>
<path d="M30.3017 3.48047C28.9236 5.1416 28.1265 7.20776 28.0317 9.36401H30.9797C35.8801 9.36401 35.8933 7.39843 35.8933 7.39843C35.8933 4.04067 31.5046 3.55188 30.3017 3.48047Z" fill="#E4CEC0"/>
<path d="M37.8582 0.52002C34.2356 0.52002 31.9504 1.72984 30.509 3.25376C31.7244 2.75138 33.0555 2.59725 34.3535 2.80861C35.6515 3.01996 36.865 3.58844 37.8582 4.45044C38.8515 3.58866 40.065 3.02031 41.363 2.80896C42.6609 2.59762 43.9921 2.75162 45.2074 3.25376C43.7681 1.72984 41.4801 0.52002 37.8582 0.52002Z" fill="#985C4C"/>
<path d="M39.8238 10.3464C39.8238 10.3464 38.5154 7.39844 37.8582 7.39844C37.2009 7.39844 35.8933 10.3464 35.8933 10.3464C36.6228 10.7307 37.243 11.2937 37.6959 11.9827L37.8602 12.312L38.0253 11.9827C38.477 11.2942 39.0957 10.7313 39.8238 10.3464Z" fill="#FFFF40"/>
<path d="M44.7387 17.2254C37.4547 38.7024 22.9025 39.8276 19.1891 39.8276C15.4757 39.8276 16.2411 30.0012 16.2411 30.0012L6.41467 44.7412C6.94885 44.8246 7.49524 44.7788 8.00812 44.6078C8.521 44.4367 8.98547 44.1454 9.36268 43.7581L6.41467 48.6717C6.41467 48.6717 9.31482 49.652 11.3282 47.6892L10.3451 49.6541C10.3451 49.6541 11.8607 50.4909 15.2587 48.6717C18.6566 46.8524 22.1371 44.7412 22.1371 44.7412L33.9291 36.8796C33.9291 36.8796 45.7211 27.499 45.7211 21.1572C45.7604 19.7236 45.4471 18.3023 44.8087 17.0181L44.7387 17.2254Z" fill="#BE8A66"/>
<path d="M25.0838 15.2598C25.0838 15.2598 17.8407 19.706 16.2398 29.9998C16.2398 29.9998 15.4771 39.8262 19.1877 39.8262C22.8984 39.8262 37.4533 38.7023 44.7373 17.2239C31.9067 23.2759 25.0838 15.2598 25.0838 15.2598Z" fill="#985C4C"/>
<path d="M37.8582 13.2947C36.803 13.2492 35.7817 12.9088 34.9102 12.3122L33.4278 11.3236C28.4865 11.2071 28.0318 9.36426 28.0318 9.36426C28.0318 9.36426 25.4748 12.7019 25.0837 15.2575C25.0837 15.2575 31.9067 23.2736 44.7373 17.223L44.8067 17.015C43.2765 14.1086 40.1323 13.2947 37.8582 13.2947Z" fill="#985C4C"/>
<path d="M53.5806 35.896L41.4517 48.0249C41.9354 48.1335 42.3868 48.3547 42.769 48.6704C43.343 49.122 43.7503 49.7518 43.9268 50.4606L53.5779 40.8089L53.5806 35.896Z" fill="#FDA654"/>
<path d="M38.8413 50.6359C38.8051 52.0798 39.0313 53.5182 39.5089 54.8812L42.3467 52.0434C41.8946 51.575 41.3486 51.2074 40.7445 50.9648C40.1403 50.7223 39.4918 50.6102 38.8413 50.6359Z" fill="#FDA654"/>
<path d="M37.0532 52.4233L29.9973 59.48H34.9102L39.0791 55.311C38.5377 55.0236 38.0719 54.6121 37.7198 54.1102C37.3677 53.6084 37.1393 53.0303 37.0532 52.4233Z" fill="#FDA654"/>
<path d="M43.9296 50.4636C43.7531 49.7549 43.3458 49.125 42.7718 48.6734C42.3895 48.3577 41.9382 48.1365 41.4544 48.028C40.2182 47.8394 38.9543 48.0664 37.861 48.6734C38.6726 48.8046 39.4752 48.9866 40.264 49.2184C41.3421 49.5436 42.4466 50.0143 42.7745 50.639C42.8868 50.8526 42.9936 51.0772 43.0914 51.3046C43.2307 51.6179 43.3427 51.9427 43.4262 52.2752L43.7569 52.6059C44.0313 51.9261 44.0915 51.1786 43.9296 50.4636Z" fill="#FFFF40"/>
<path d="M43.0885 51.3014C42.9907 51.074 42.884 50.8493 42.7717 50.6358C42.4437 50.0118 41.3393 49.5404 40.2611 49.2152C39.4723 48.9835 38.6697 48.8014 37.8581 48.6702L31.9649 44.7398V44.3467L30 45.5253V45.7216L36.8785 50.6351C36.8735 51.2355 36.933 51.8348 37.0559 52.4225C37.142 53.0295 37.3704 53.6075 37.7225 54.1093C38.0745 54.6112 38.5404 55.0227 39.0818 55.3102C39.316 55.4281 39.5672 55.5084 39.8264 55.548C39.7074 55.3324 39.6022 55.1093 39.5117 54.8803C39.034 53.5173 38.8078 52.0789 38.844 50.6351C39.4945 50.6093 40.1431 50.7214 40.7472 50.964C41.3514 51.2066 41.8974 51.5741 42.3494 52.0426C42.5114 52.211 42.654 52.397 42.7744 52.5972V54.5628C43.1117 54.298 43.3565 53.9331 43.4736 53.5206C43.5907 53.108 43.5741 52.669 43.4262 52.2665C43.3414 51.9357 43.2285 51.6128 43.0885 51.3014Z" fill="#FFFF40"/>
<path d="M41.7892 36.8784H41.5771C40.3668 38.1294 39.0813 39.3054 37.7278 40.3998C37.7652 40.5384 37.8075 40.6716 37.8581 40.8089C38.6021 42.8271 39.8237 42.7744 39.8237 42.7744C39.5582 42.1532 39.4214 41.4847 39.4214 40.8092C39.4214 40.1337 39.5582 39.4651 39.8237 38.844H41.7892C44.22 40.1613 41.7892 42.7744 41.7892 42.7744C42.1838 42.7865 42.5768 42.7192 42.9449 42.5766C43.3129 42.434 43.6486 42.2189 43.932 41.9441C44.2154 41.6692 44.4407 41.3403 44.5945 40.9768C44.7484 40.6133 44.8277 40.2225 44.8277 39.8278C44.8277 39.433 44.7484 39.0423 44.5945 38.6788C44.4407 38.3153 44.2154 37.9863 43.932 37.7115C43.6486 37.4367 43.3129 37.2216 42.9449 37.079C42.5768 36.9363 42.1838 36.8691 41.7892 36.8812V36.8784Z" fill="#FFFF40"/>
<path d="M47.6853 9.36426C47.6853 9.36426 47.2305 11.2071 42.2892 11.3236L40.8062 12.3122C39.9347 12.9088 38.9134 13.2492 37.8582 13.2947C40.9712 13.2947 45.7198 14.8145 45.7198 21.1563C45.7198 27.4981 33.9278 36.8787 33.9278 36.8787L22.1365 44.7403V46.7051L25.0844 44.7403V46.7051L28.0325 44.7403V46.7051L29.998 45.5265L31.9629 44.3479L32.946 43.7578C34.6238 42.7622 36.223 41.6398 37.7299 40.4007C39.0835 39.3063 40.369 38.1304 41.5793 36.8794C45.6601 32.6501 49.6523 26.6127 49.6523 19.1914C49.6502 19.1907 49.531 12.1188 47.6853 9.36426Z" fill="#E4CEC0"/>
<path d="M31.9622 14.7977C31.9064 14.7975 31.8509 14.7884 31.7979 14.7707L28.8499 13.7882C28.7191 13.7446 28.6109 13.6507 28.5493 13.5273C28.4877 13.4039 28.4776 13.2611 28.5213 13.1303C28.5649 12.9995 28.6588 12.8913 28.7822 12.8297C28.9056 12.7681 29.0484 12.758 29.1792 12.8017L32.1272 13.7841C32.2447 13.823 32.3444 13.9024 32.4085 14.0082C32.4726 14.114 32.4969 14.2392 32.4771 14.3613C32.4572 14.4834 32.3944 14.5944 32.3 14.6744C32.2057 14.7544 32.0859 14.7981 31.9622 14.7977Z" fill="#7A7A7A"/>
<path d="M34.9101 17.7455C34.8542 17.7453 34.7987 17.7361 34.7458 17.7185L31.7978 16.736C31.667 16.6924 31.5588 16.5985 31.4972 16.4751C31.4355 16.3517 31.4255 16.2089 31.4692 16.078C31.5128 15.9472 31.6066 15.8391 31.73 15.7775C31.8534 15.7158 31.9963 15.7057 32.1271 15.7494L35.0751 16.7318C35.1925 16.7707 35.2923 16.8502 35.3564 16.956C35.4205 17.0618 35.4448 17.1869 35.4249 17.309C35.4051 17.4311 35.3423 17.5422 35.2479 17.6221C35.1536 17.7021 35.0338 17.7459 34.9101 17.7455Z" fill="#7A7A7A"/>
<path d="M27.0493 21.6762C26.9932 21.6763 26.9374 21.6672 26.8842 21.6491L23.939 20.6667C23.8742 20.6451 23.8143 20.6109 23.7628 20.5661C23.7112 20.5214 23.669 20.4669 23.6384 20.4058C23.6079 20.3447 23.5897 20.2781 23.5849 20.21C23.5801 20.1419 23.5888 20.0735 23.6104 20.0087C23.632 19.9439 23.6662 19.884 23.7109 19.8325C23.7557 19.7809 23.8102 19.7387 23.8713 19.7081C23.9324 19.6776 23.9989 19.6594 24.067 19.6546C24.1352 19.6498 24.2035 19.6585 24.2683 19.6801L27.2163 20.6632C27.3332 20.7025 27.4324 20.7819 27.4961 20.8875C27.5598 20.993 27.5839 21.1177 27.5641 21.2394C27.5444 21.3611 27.4821 21.4719 27.3883 21.5519C27.2945 21.6318 27.1753 21.6759 27.052 21.6762H27.0493Z" fill="#7A7A7A"/>
<path d="M32.9453 22.6613C32.8894 22.6614 32.8339 22.6525 32.7809 22.635L29.8322 21.6491C29.7655 21.6291 29.7034 21.5959 29.6497 21.5515C29.596 21.5071 29.5518 21.4523 29.5197 21.3905C29.4876 21.3287 29.4682 21.261 29.4628 21.1915C29.4573 21.1221 29.4659 21.0522 29.488 20.9861C29.51 20.92 29.5452 20.859 29.5913 20.8068C29.6374 20.7545 29.6935 20.7121 29.7564 20.6819C29.8192 20.6518 29.8875 20.6346 29.9571 20.6314C30.0267 20.6282 30.0962 20.639 30.1616 20.6632L33.1096 21.6456C33.2264 21.6848 33.3256 21.7643 33.3893 21.8698C33.453 21.9754 33.4771 22.1001 33.4574 22.2218C33.4376 22.3435 33.3753 22.4542 33.2815 22.5342C33.1877 22.6142 33.0685 22.6582 32.9453 22.6585V22.6613Z" fill="#7A7A7A"/>
<path d="M38.8413 23.6409C38.7855 23.641 38.73 23.6321 38.677 23.6146L35.729 22.6321C35.6634 22.6112 35.6026 22.5775 35.5501 22.5329C35.4976 22.4884 35.4545 22.4338 35.4233 22.3724C35.3921 22.311 35.3734 22.244 35.3683 22.1754C35.3631 22.1067 35.3717 22.0377 35.3934 21.9723C35.4152 21.907 35.4497 21.8467 35.495 21.7948C35.5403 21.7429 35.5955 21.7005 35.6572 21.6701C35.719 21.6397 35.7863 21.6219 35.855 21.6177C35.9237 21.6135 35.9926 21.6229 36.0577 21.6456L39.0057 22.628C39.1225 22.6672 39.2216 22.7467 39.2853 22.8522C39.349 22.9578 39.3732 23.0825 39.3534 23.2042C39.3337 23.3259 39.2714 23.4366 39.1776 23.5166C39.0838 23.5966 38.9646 23.6407 38.8413 23.6409Z" fill="#7A7A7A"/>
<path d="M24.1013 25.6063C24.0452 25.6064 23.9895 25.5975 23.9362 25.58L20.9883 24.5969C20.9215 24.5769 20.8594 24.5437 20.8057 24.4993C20.752 24.4549 20.7078 24.4001 20.6757 24.3383C20.6436 24.2764 20.6242 24.2087 20.6188 24.1393C20.6133 24.0698 20.6219 24 20.644 23.9339C20.666 23.8678 20.7012 23.8068 20.7473 23.7546C20.7934 23.7023 20.8495 23.6599 20.9124 23.6297C20.9752 23.5996 21.0434 23.5824 21.113 23.5792C21.1827 23.5759 21.2522 23.5867 21.3176 23.6109L24.2656 24.5934C24.3824 24.6326 24.4815 24.7121 24.5452 24.8176C24.6089 24.9232 24.6331 25.0479 24.6133 25.1696C24.5936 25.2913 24.5313 25.402 24.4375 25.482C24.3437 25.5619 24.2245 25.606 24.1013 25.6063Z" fill="#7A7A7A"/>
<path d="M29.9966 26.589C29.9408 26.589 29.8854 26.5801 29.8323 26.5627L26.8843 25.5802C26.7535 25.5366 26.6454 25.4427 26.5837 25.3193C26.5221 25.1959 26.512 25.0531 26.5557 24.9223C26.5994 24.7915 26.6932 24.6833 26.8166 24.6217C26.94 24.56 27.0828 24.55 27.2137 24.5937L30.1616 25.5761C30.2786 25.6153 30.3777 25.6949 30.4414 25.8005C30.5051 25.9061 30.5292 26.0309 30.5094 26.1526C30.4896 26.2744 30.4271 26.3851 30.3332 26.465C30.2393 26.5449 30.12 26.5889 29.9966 26.589Z" fill="#7A7A7A"/>
<path d="M35.8934 27.5718C35.8375 27.5721 35.7819 27.5629 35.729 27.5448L32.781 26.5624C32.6519 26.5174 32.5457 26.4235 32.4853 26.3008C32.425 26.1781 32.4153 26.0366 32.4585 25.9069C32.5017 25.7772 32.5943 25.6697 32.7162 25.6078C32.838 25.5458 32.9794 25.5343 33.1097 25.5758L36.0577 26.5582C36.175 26.5971 36.2747 26.6765 36.3389 26.7822C36.403 26.8879 36.4273 27.013 36.4075 27.1351C36.3878 27.2571 36.3251 27.3681 36.2309 27.4482C36.1367 27.5282 36.017 27.572 35.8934 27.5718Z" fill="#7A7A7A"/>
<path d="M21.1533 29.5368C21.0973 29.5369 21.0416 29.528 20.9883 29.5105L18.0403 28.528C17.9095 28.4844 17.8014 28.3905 17.7397 28.2671C17.6781 28.1437 17.668 28.0009 17.7117 27.87C17.7554 27.7392 17.8492 27.6311 17.9726 27.5695C18.096 27.5078 18.2388 27.4977 18.3696 27.5414L21.3176 28.5239C21.4345 28.5631 21.5337 28.6426 21.5974 28.7481C21.6611 28.8537 21.6852 28.9784 21.6654 29.1001C21.6457 29.2217 21.5834 29.3325 21.4896 29.4124C21.3958 29.4924 21.2766 29.5365 21.1533 29.5368Z" fill="#7A7A7A"/>
<path d="M27.0494 30.5199C26.9933 30.52 26.9375 30.5109 26.8843 30.4928L23.9391 29.5104C23.8083 29.4667 23.7002 29.3729 23.6386 29.2495C23.5769 29.1261 23.5668 28.9833 23.6105 28.8525C23.6542 28.7216 23.748 28.6135 23.8714 28.5519C23.9948 28.4902 24.1376 28.4802 24.2684 28.5238L27.2164 29.5063C27.3338 29.5451 27.4335 29.6245 27.4976 29.7303C27.5618 29.836 27.5861 29.961 27.5663 30.0831C27.5465 30.2051 27.4839 30.3161 27.3897 30.3962C27.2955 30.4762 27.1758 30.5201 27.0521 30.5199H27.0494Z" fill="#7A7A7A"/>
<path d="M32.9453 31.5025C32.8895 31.5026 32.834 31.4937 32.781 31.4762L29.8323 30.4958C29.7015 30.4521 29.5934 30.3583 29.5317 30.2349C29.4701 30.1115 29.46 29.9686 29.5037 29.8378C29.5474 29.707 29.6412 29.5989 29.7646 29.5372C29.888 29.4756 30.0308 29.4655 30.1616 29.5092L33.1096 30.4923C33.2265 30.5316 33.3257 30.611 33.3894 30.7166C33.4531 30.8221 33.4772 30.9468 33.4574 31.0685C33.4377 31.1902 33.3754 31.3009 33.2816 31.3809C33.1878 31.4609 33.0686 31.505 32.9453 31.5053V31.5025Z" fill="#7A7A7A"/>
<path d="M22.1364 34.4478C22.0806 34.4479 22.0251 34.4391 21.9721 34.4215L19.0241 33.4383C18.8949 33.3934 18.7887 33.2994 18.7284 33.1768C18.668 33.0541 18.6584 32.9126 18.7016 32.7829C18.7448 32.6532 18.8373 32.5457 18.9592 32.4838C19.0811 32.4218 19.2224 32.4103 19.3527 32.4518L22.3007 33.4349C22.4176 33.4741 22.5167 33.5536 22.5804 33.6591C22.6441 33.7647 22.6682 33.8894 22.6485 34.0111C22.6287 34.1328 22.5664 34.2435 22.4726 34.3235C22.3788 34.4035 22.2597 34.4475 22.1364 34.4478Z" fill="#7A7A7A"/>
<path d="M28.0296 35.433C27.9738 35.433 27.9183 35.4241 27.8653 35.4066L24.9173 34.4242C24.7881 34.3793 24.6819 34.2853 24.6215 34.1626C24.5612 34.0399 24.5516 33.8984 24.5948 33.7687C24.638 33.639 24.7305 33.5316 24.8524 33.4696C24.9742 33.4076 25.1156 33.3961 25.2459 33.4376L28.1939 34.42C28.3108 34.4593 28.4099 34.5387 28.4736 34.6443C28.5373 34.7498 28.5614 34.8746 28.5417 34.9963C28.5219 35.1179 28.4596 35.2287 28.3658 35.3086C28.272 35.3886 28.1529 35.4327 28.0296 35.433Z" fill="#7A7A7A"/>
<path d="M39.8238 16.7632C39.7679 16.7631 39.7124 16.754 39.6594 16.7362L36.7114 15.7538C36.6458 15.7329 36.585 15.6991 36.5325 15.6545C36.48 15.6099 36.437 15.5554 36.4057 15.494C36.3745 15.4326 36.3558 15.3656 36.3507 15.297C36.3456 15.2283 36.3541 15.1593 36.3759 15.094C36.3976 15.0286 36.4322 14.9682 36.4775 14.9164C36.5228 14.8645 36.5779 14.8221 36.6397 14.7917C36.7015 14.7613 36.7687 14.7435 36.8374 14.7393C36.9062 14.735 36.975 14.7445 37.0401 14.7671L39.9881 15.7496C40.1055 15.7884 40.2052 15.8678 40.2693 15.9736C40.3334 16.0793 40.3577 16.2044 40.338 16.3264C40.3182 16.4485 40.2555 16.5595 40.1613 16.6395C40.0671 16.7196 39.9474 16.7634 39.8238 16.7632Z" fill="#7A7A7A"/>
<path d="M42.2802 7.39917C43.0942 7.39917 43.7542 6.73924 43.7542 5.92517C43.7542 5.1111 43.0942 4.45117 42.2802 4.45117C41.4661 4.45117 40.8062 5.1111 40.8062 5.92517C40.8062 6.73924 41.4661 7.39917 42.2802 7.39917Z" fill="#FFFF40"/>
<path d="M33.4362 7.39917C34.2502 7.39917 34.9102 6.73924 34.9102 5.92517C34.9102 5.1111 34.2502 4.45117 33.4362 4.45117C32.6221 4.45117 31.9622 5.1111 31.9622 5.92517C31.9622 6.73924 32.6221 7.39917 33.4362 7.39917Z" fill="#FFFF40"/>
<path d="M53.2131 40.4416L44.1306 49.524C44.1105 49.4852 44.0786 49.4513 44.0572 49.4131C43.9727 49.2634 43.8779 49.1198 43.7735 48.9833C43.7285 48.9243 43.6869 48.8633 43.6349 48.8058C43.472 48.6125 43.2927 48.4337 43.099 48.2713C42.99 48.1812 42.8759 48.0977 42.7572 48.021C42.7073 47.9884 42.6532 47.9627 42.6019 47.9322C42.5325 47.8927 42.4632 47.8504 42.3938 47.815L53.9439 36.265C54.0414 36.1675 54.0963 36.0351 54.0963 35.8972C54.0963 35.7592 54.0414 35.6269 53.9439 35.5294C53.8463 35.4318 53.7141 35.377 53.5761 35.377C53.4381 35.377 53.3058 35.4318 53.2083 35.5294L41.2721 47.4663C40.1095 47.3384 38.9347 47.5478 37.888 48.0695L32.6187 44.5578L33.1942 44.2112C34.6883 43.3285 36.1191 42.3427 37.4761 41.2611C38.3574 43.3286 39.7863 43.2946 39.8404 43.2953C39.9263 43.2915 40.0101 43.2664 40.084 43.2223C40.158 43.1783 40.2198 43.1165 40.264 43.0427C40.3083 42.9689 40.3335 42.8852 40.3375 42.7992C40.3415 42.7132 40.3241 42.6276 40.2868 42.55C39.8515 41.5397 39.8124 40.4026 40.1773 39.3648H41.6458C41.8188 39.4517 41.97 39.5763 42.0882 39.7296C42.2065 39.8829 42.2886 40.0608 42.3287 40.2502C42.4625 41.0649 41.7047 42.0937 41.4031 42.421C41.3341 42.4951 41.2883 42.5878 41.2712 42.6876C41.2541 42.7874 41.2666 42.89 41.307 42.9829C41.3474 43.0757 41.414 43.1547 41.4987 43.2102C41.5834 43.2657 41.6825 43.2953 41.7837 43.2953C42.6273 43.2973 43.4425 42.9911 44.0762 42.4343C44.7098 41.8775 45.1183 41.1084 45.2247 40.2716C45.3312 39.4348 45.1283 38.5879 44.6542 37.8902C44.1802 37.1925 43.4675 36.6919 42.6504 36.4827C47.5667 31.1018 50.1646 25.1427 50.1646 19.183C50.1597 18.8925 50.0211 12.1464 48.1949 9.21922C48.0756 6.98789 47.2361 4.8554 45.8022 3.1416C45.7329 3.05909 45.6587 2.97866 45.5831 2.89893C43.7625 0.97774 41.1618 0.00292969 37.854 0.00292969C34.5462 0.00292969 31.9455 0.97774 30.1255 2.89893C30.0506 2.97728 29.9793 3.0577 29.9092 3.13813C28.4825 4.84408 27.6432 6.96427 27.5159 9.18457C27.0479 9.81688 25.0768 12.5895 24.6157 14.944C23.4225 15.7434 17.2665 20.2826 15.7454 29.8032L5.98201 44.4517C5.93571 44.521 5.90678 44.6003 5.89759 44.6831C5.88839 44.7658 5.89922 44.8496 5.9292 44.9273C5.95917 45.005 6.00741 45.0744 6.06982 45.1295C6.13222 45.1847 6.20699 45.224 6.28779 45.2442C6.82654 45.3495 7.38271 45.3239 7.90946 45.1693L5.96817 48.403C5.92756 48.4695 5.90242 48.5443 5.89467 48.6219C5.88691 48.6995 5.89672 48.7777 5.92336 48.851C5.94999 48.9243 5.99281 48.9906 6.04857 49.0451C6.10434 49.0995 6.17161 49.1407 6.24547 49.1656C7.48245 49.5446 8.80714 49.5262 10.0331 49.1129L9.87779 49.4235C9.81774 49.5436 9.80642 49.6822 9.84622 49.8104C9.88602 49.9386 9.97384 50.0464 10.0913 50.1113C10.5084 50.3048 10.9661 50.3942 11.4253 50.372C12.865 50.2985 14.2647 49.8725 15.5013 49.1316C17.912 47.8414 20.3802 46.3937 21.6143 45.6602V46.7085C21.6143 46.8026 21.6399 46.8949 21.6882 46.9757C21.7366 47.0564 21.806 47.1225 21.889 47.1669C21.9719 47.2113 22.0654 47.2324 22.1594 47.2278C22.2534 47.2233 22.3444 47.1933 22.4227 47.1411L24.5623 45.7143V46.7085C24.5623 46.8026 24.5879 46.8949 24.6363 46.9757C24.6846 47.0564 24.754 47.1225 24.837 47.1669C24.9199 47.2113 25.0134 47.2324 25.1074 47.2278C25.2014 47.2233 25.2924 47.1933 25.3707 47.1411L27.5103 45.7143V46.7085C27.5103 46.8005 27.5348 46.8909 27.5811 46.9704C27.6275 47.0499 27.6941 47.1157 27.7742 47.161C27.8543 47.2063 27.945 47.2296 28.037 47.2284C28.129 47.2272 28.219 47.2017 28.2979 47.1543L29.8233 46.2398L36.3599 50.9086C36.3721 51.3575 36.4184 51.8049 36.4985 52.2467L29.6298 59.1148C29.5323 59.2123 29.4775 59.3446 29.4775 59.4826C29.4775 59.6205 29.5323 59.7529 29.6298 59.8504C29.7274 59.948 29.8597 60.0027 29.9976 60.0027C30.1356 60.0027 30.2679 59.948 30.3654 59.8504L36.8022 53.4136C36.823 53.4698 36.8494 53.5135 36.8716 53.5668C36.9305 53.7104 36.9915 53.8476 37.0581 53.9752C37.0955 54.048 37.1336 54.1173 37.1724 54.1832C37.2418 54.3024 37.3146 54.4134 37.3895 54.5188C37.429 54.5735 37.4671 54.6311 37.5073 54.6824C37.5944 54.7912 37.687 54.8956 37.7846 54.9951C37.8124 55.0235 37.8387 55.0568 37.8665 55.0838C37.9823 55.1968 38.1052 55.3021 38.2346 55.3993L38.2485 55.4111L34.5468 59.1134C34.4972 59.1614 34.4576 59.2188 34.4304 59.2823C34.4032 59.3457 34.3888 59.4139 34.3883 59.483C34.3877 59.552 34.4009 59.6205 34.4271 59.6844C34.4533 59.7483 34.4919 59.8063 34.5407 59.8551C34.5896 59.9039 34.6477 59.9425 34.7116 59.9686C34.7755 59.9947 34.844 60.0079 34.9131 60.0072C34.9821 60.0066 35.0503 59.9922 35.1137 59.9649C35.1771 59.9376 35.2345 59.898 35.2825 59.8483L39.2046 55.9255C39.389 55.9928 39.5804 56.0393 39.7752 56.0642C39.7925 56.0642 39.8105 56.0642 39.8279 56.0642C39.9187 56.0643 40.008 56.0406 40.0869 55.9955C40.1657 55.9503 40.2313 55.8852 40.2771 55.8068C40.3229 55.7283 40.3474 55.6392 40.348 55.5484C40.3486 55.4575 40.3254 55.3681 40.2806 55.289C40.23 55.1989 40.1801 55.0997 40.1309 54.9944L42.2559 52.8693V54.5618C42.2559 54.6577 42.2824 54.7519 42.3326 54.8337C42.3828 54.9155 42.4547 54.9818 42.5402 55.0253C42.6258 55.0688 42.7217 55.0878 42.8174 55.0801C42.9131 55.0725 43.0048 55.0384 43.0823 54.9819C43.3899 54.7593 43.6379 54.4643 43.8044 54.1231C43.9709 53.7818 44.0508 53.4048 44.037 53.0254C44.1208 52.9748 44.1882 52.9011 44.2312 52.8132C44.5087 52.1225 44.5981 51.3706 44.4905 50.6341L53.9487 41.173C54.0434 41.0749 54.0958 40.9435 54.0945 40.8072C54.0933 40.6708 54.0385 40.5405 53.9421 40.4441C53.8456 40.3477 53.7151 40.2931 53.5788 40.292C53.4425 40.2909 53.3112 40.3433 53.2131 40.4381V40.4416ZM41.3345 48.5313C41.7406 48.6215 42.1195 48.8065 42.4403 49.0713C42.9258 49.4527 43.2716 49.9838 43.4241 50.5821C43.4489 50.6872 43.4676 50.7937 43.4803 50.901C43.4013 50.727 43.3174 50.5543 43.2321 50.3935C42.8854 49.7328 41.9612 49.1843 40.411 48.7177C40.203 48.6553 39.9949 48.5992 39.796 48.5472L39.7551 48.5361C40.2754 48.4241 40.8135 48.4225 41.3345 48.5313ZM38.3463 40.6274C38.34 40.6107 38.3345 40.5948 38.3289 40.5788C38.5383 40.4064 38.7463 40.2324 38.9529 40.0568C38.8681 40.6109 38.8697 41.1748 38.9577 41.7284C38.6902 41.4014 38.4831 41.0292 38.3463 40.6294V40.6274ZM44.2173 39.8245C44.2171 40.254 44.103 40.6759 43.8867 41.0469C43.6704 41.418 43.3596 41.7252 42.9859 41.937C43.302 41.3731 43.4329 40.7241 43.3604 40.0817C43.2908 39.7141 43.1345 39.3683 42.9044 39.0732C42.6744 38.7781 42.3771 38.5422 42.0375 38.3852C41.9613 38.3437 41.876 38.322 41.7893 38.3221H40.8658C40.8935 38.295 40.9199 38.2673 40.9483 38.2403C41.1112 38.0822 41.2693 37.922 41.4288 37.7626C41.5515 37.6405 41.6777 37.5199 41.7976 37.3965C42.4402 37.3996 43.0554 37.657 43.5088 38.1123C43.9622 38.5677 44.2169 39.184 44.2173 39.8266V39.8245ZM46.3042 10.0062C46.2633 10.0283 46.2189 10.0505 46.1738 10.0755C46.1177 10.1032 46.0581 10.1309 45.995 10.158C45.9451 10.1802 45.8917 10.2017 45.8376 10.2239C45.7683 10.2502 45.6989 10.2766 45.6227 10.3029C45.5624 10.3237 45.5013 10.3445 45.4361 10.3646C45.3557 10.3896 45.2684 10.4138 45.1803 10.4381C45.111 10.4568 45.0417 10.4762 44.9654 10.4943C44.8697 10.5172 44.765 10.5386 44.6603 10.5601C44.5813 10.5761 44.5036 10.5927 44.4197 10.6073C44.3039 10.6281 44.1778 10.6454 44.0523 10.6634C43.9663 10.6759 43.8838 10.6891 43.793 10.7002C43.6467 10.7182 43.4872 10.7314 43.3285 10.7453C43.2453 10.7522 43.1676 10.7619 43.0809 10.7674C42.8279 10.7855 42.5616 10.7986 42.2774 10.8049C42.1786 10.8075 42.0825 10.8377 42 10.8922L40.4997 11.8934C39.7905 12.3676 38.9773 12.6637 38.1292 12.7566C38.2117 12.7065 38.2786 12.6344 38.3227 12.5486L38.4724 12.2477C38.874 11.6464 39.4186 11.1542 40.0574 10.8153C40.1766 10.7552 40.2681 10.6515 40.3129 10.5258C40.3577 10.4001 40.3523 10.2619 40.2979 10.14C38.853 6.88135 38.1036 6.88138 37.8575 6.88138C37.6113 6.88138 36.8625 6.88135 35.417 10.14C35.3628 10.2622 35.3577 10.4005 35.4028 10.5264C35.4478 10.6522 35.5395 10.7559 35.6589 10.816C36.2881 11.1494 36.8266 11.631 37.2279 12.2192L37.393 12.5493C37.4368 12.6351 37.5035 12.707 37.5857 12.7573C36.7314 12.6602 35.9129 12.3599 35.1986 11.8816L33.7156 10.8929C33.6331 10.8384 33.537 10.8081 33.4382 10.8056C33.154 10.7993 32.8877 10.7861 32.6347 10.7681C32.5473 10.7626 32.4697 10.7529 32.3865 10.7459C32.227 10.7321 32.0676 10.7182 31.9206 10.7009C31.8311 10.6898 31.75 10.6766 31.6647 10.6648C31.5378 10.6468 31.4103 10.6288 31.2931 10.608C31.2113 10.5934 31.135 10.5775 31.0574 10.5615C30.9506 10.5393 30.8438 10.5178 30.7461 10.4922C30.6767 10.4748 30.6074 10.4561 30.5381 10.4381C30.4466 10.4131 30.3571 10.3882 30.2739 10.3618C30.2122 10.3431 30.154 10.3237 30.0964 10.3036C30.0181 10.2766 29.9418 10.2488 29.8704 10.2204C29.8205 10.2003 29.7712 10.1809 29.7248 10.1608C29.6554 10.131 29.5917 10.1011 29.5307 10.0706C29.4918 10.0519 29.4523 10.0325 29.4156 10.0131C29.3559 9.9812 29.3012 9.94998 29.2492 9.91809L29.193 9.88415H30.9783C32.0129 9.90634 33.0457 9.78786 34.0483 9.53195C36.3162 8.8934 36.4105 7.59061 36.4119 7.39926C36.4119 7.34448 36.4119 7.28139 36.4057 7.21344C36.4057 7.19195 36.4056 7.1677 36.4008 7.14413C36.3966 7.09351 36.3918 7.04151 36.3856 6.98535C36.3821 6.95485 36.3772 6.92366 36.3724 6.89107C36.3647 6.83699 36.3551 6.78152 36.344 6.72329C36.337 6.68723 36.3301 6.65394 36.3217 6.61373C36.3079 6.55341 36.2919 6.49172 36.2746 6.42863C36.2642 6.3905 36.2545 6.35374 36.2427 6.3156C36.2205 6.24211 36.1935 6.16725 36.165 6.09099C36.1526 6.06048 36.1436 6.03065 36.1304 5.99945C36.0853 5.88709 36.0344 5.77718 35.9779 5.67014C35.9702 5.65489 35.9598 5.63961 35.9515 5.62436C35.9002 5.52868 35.8427 5.43278 35.7789 5.33664C35.7553 5.30128 35.7283 5.2673 35.7026 5.23055C35.6478 5.1536 35.5903 5.07734 35.5272 5.00107C35.4939 4.96086 35.4579 4.92134 35.4225 4.88182C35.3573 4.81249 35.2887 4.7383 35.2145 4.66689C35.1736 4.62807 35.132 4.58854 35.0883 4.54972C35.0072 4.48039 34.9192 4.41106 34.8283 4.34173C34.7826 4.30706 34.7396 4.27238 34.6897 4.23771C34.5746 4.1566 34.4498 4.07827 34.3188 4.00201C34.2862 3.9826 34.2577 3.9625 34.2251 3.94378C34.0553 3.84949 33.8736 3.76003 33.6774 3.67545C33.6372 3.65812 33.5922 3.64355 33.5513 3.62691C33.3925 3.56174 33.2275 3.50004 33.0514 3.44249C32.9765 3.41823 32.8961 3.39675 32.8184 3.37318C32.722 3.34475 32.6319 3.31424 32.53 3.28859C32.5743 3.28373 32.6201 3.27607 32.6638 3.27191C32.7539 3.26359 32.8427 3.25669 32.9307 3.25253C33.0347 3.24768 33.1387 3.24559 33.2365 3.24559C33.3342 3.24559 33.4313 3.24559 33.5263 3.24559C33.6019 3.24559 33.6754 3.25531 33.7495 3.26155C34.1571 3.29251 34.5608 3.36214 34.9552 3.46953H34.9663C35.0967 3.50628 35.2222 3.54579 35.3442 3.58739L35.3837 3.60127C35.5057 3.64379 35.6233 3.6886 35.7366 3.73575L35.7477 3.74062C36.3874 3.99979 36.9781 4.36655 37.4942 4.82499C37.5279 4.85253 37.565 4.8758 37.6044 4.8943C37.6224 4.90771 37.6414 4.91976 37.6612 4.93036C37.7542 4.96764 37.8559 4.97739 37.9542 4.95846C38.0526 4.93953 38.1434 4.89272 38.2159 4.82359C38.227 4.81319 38.2651 4.77713 38.3241 4.72652L38.3386 4.71403L38.4461 4.62597L38.4641 4.61213C38.5099 4.57608 38.5598 4.53724 38.6166 4.49564C39.0286 4.19618 39.4736 3.94517 39.943 3.74756L39.9873 3.72885C40.0927 3.68517 40.2016 3.64355 40.3153 3.60334L40.3846 3.58045C40.4983 3.54162 40.6155 3.50418 40.7368 3.47021C40.7528 3.46536 40.7701 3.46189 40.7861 3.45773C41.1705 3.35502 41.5637 3.28842 41.9605 3.25875C42.034 3.25251 42.1068 3.24557 42.1824 3.2428C42.2801 3.23864 42.3807 3.23933 42.4805 3.2428C42.5803 3.24627 42.6733 3.24281 42.7717 3.24974C42.8702 3.25667 42.961 3.26155 43.0574 3.27056C43.0976 3.27403 43.1406 3.28094 43.1815 3.28579C43.0817 3.31145 42.9922 3.34126 42.8965 3.36899C42.8161 3.39256 42.7336 3.41477 42.6566 3.43835C42.4854 3.49381 42.3252 3.55413 42.1713 3.61722C42.1255 3.63525 42.0749 3.65189 42.0326 3.6713C41.8473 3.75085 41.6661 3.83969 41.4898 3.93752C41.4496 3.9597 41.4149 3.98465 41.3761 4.00683C41.2534 4.07617 41.1348 4.15315 41.0259 4.22942C40.9733 4.26686 40.9261 4.30499 40.8769 4.34313C40.7909 4.41246 40.7077 4.47555 40.6307 4.5435C40.5829 4.58579 40.5378 4.62805 40.4921 4.67104C40.4227 4.74037 40.3583 4.80486 40.2973 4.87281C40.2577 4.91649 40.2182 4.96018 40.1815 5.00386C40.1232 5.07319 40.0705 5.14251 40.0199 5.216C39.9901 5.2569 39.9582 5.29784 39.9312 5.33944C39.8757 5.42333 39.8265 5.50722 39.7807 5.59042C39.7655 5.61815 39.7475 5.64518 39.7329 5.67222C39.6761 5.78037 39.6275 5.88713 39.5845 5.99251C39.5679 6.03342 39.5554 6.07295 39.5402 6.11316C39.5159 6.17833 39.4923 6.24352 39.4708 6.30731C39.4562 6.35307 39.4445 6.39602 39.4327 6.4404C39.4181 6.49656 39.4036 6.55065 39.3918 6.60404C39.38 6.65742 39.3731 6.68933 39.3654 6.73162C39.3578 6.77391 39.3474 6.83143 39.3405 6.87927C39.3335 6.9271 39.3294 6.95486 39.3252 6.99022C39.319 7.03945 39.3155 7.08452 39.312 7.12889C39.312 7.15801 39.3065 7.1878 39.3051 7.21484C39.3017 7.27516 39.3003 7.32996 39.3003 7.37988V7.40137C39.3003 7.65513 39.4687 9.88275 44.7338 9.88275H46.5129L46.4491 9.92228C46.4026 9.95209 46.3569 9.9798 46.3042 10.0082V10.0062ZM43.2605 17.3054C43.0331 17.3997 42.8091 17.4857 42.5852 17.571C42.4597 17.6188 42.3321 17.6701 42.208 17.7152C41.9411 17.8123 41.6791 17.8996 41.4177 17.9842C41.3414 18.0092 41.2637 18.0376 41.1875 18.0612C40.8457 18.168 40.5094 18.2657 40.1787 18.3516C39.8521 18.4369 39.5325 18.5118 39.2163 18.5784C39.1352 18.595 39.0569 18.6082 38.9765 18.6241C38.7435 18.6699 38.512 18.7143 38.2832 18.751C38.184 18.767 38.0877 18.7788 37.9906 18.7926C37.7826 18.8224 37.5815 18.8508 37.3811 18.873C37.2792 18.8841 37.1794 18.8925 37.0782 18.9015C36.8868 18.9195 36.6969 18.9354 36.5103 18.9465C36.4091 18.9528 36.3099 18.9569 36.2101 18.9611C36.0285 18.9687 35.8482 18.9742 35.6707 18.9763H35.3788C35.2027 18.9763 35.0287 18.9722 34.8568 18.9639C34.7659 18.9597 34.6758 18.9562 34.5864 18.9507C34.4123 18.941 34.2397 18.9271 34.0733 18.9119C33.9908 18.9043 33.9076 18.8973 33.8265 18.889C33.6525 18.8696 33.4798 18.8474 33.3128 18.8197C33.2434 18.81 33.1706 18.8009 33.1006 18.7898C32.9162 18.7607 32.7359 18.7274 32.5584 18.6928C32.5092 18.6831 32.4586 18.6748 32.41 18.6644C32.1861 18.6179 31.967 18.568 31.7541 18.5132C31.3139 18.4009 30.8965 18.2713 30.502 18.1298C30.4701 18.1187 30.4403 18.1062 30.4084 18.0951C30.2489 18.0369 30.0932 17.977 29.9411 17.9156C29.8919 17.8955 29.8447 17.8747 29.7962 17.8539C29.6666 17.7991 29.5376 17.7443 29.4135 17.6875L29.2533 17.6126C29.1389 17.5585 29.0259 17.5044 28.9171 17.4489C28.863 17.4219 28.8103 17.3942 28.7576 17.3665C28.6536 17.3124 28.5519 17.2578 28.4526 17.2028C28.4013 17.1744 28.3499 17.146 28.3 17.1169C28.2043 17.0628 28.1121 17.008 28.0227 16.9532L27.8799 16.8666C27.7916 16.812 27.7056 16.7573 27.622 16.7023C27.579 16.6738 27.5353 16.6461 27.4937 16.6177C27.4098 16.5615 27.3294 16.5061 27.251 16.4506C27.215 16.4256 27.1775 16.4 27.1429 16.375C27.061 16.3161 26.9834 16.2585 26.9078 16.201L26.8246 16.1393C26.7322 16.069 26.646 16.0009 26.566 15.9348L26.5418 15.916C26.4493 15.8411 26.3636 15.7691 26.2845 15.6997L26.2804 15.6963C26.2048 15.6269 26.1341 15.5673 26.0689 15.5077C26.0474 15.4889 26.0294 15.4716 26.01 15.4529C25.967 15.4134 25.9247 15.3738 25.8873 15.3378L25.8256 15.2775C25.7944 15.247 25.7625 15.2158 25.7361 15.1887L25.6869 15.1388L25.6425 15.0931C25.9968 13.3598 27.3273 11.2701 28.0206 10.2682L28.0345 10.2814L28.0449 10.2918C28.1017 10.3479 28.1655 10.4062 28.2356 10.4644L28.2668 10.4908C28.3393 10.5504 28.4198 10.6105 28.508 10.6711C28.5226 10.6815 28.5385 10.6918 28.5545 10.7015C28.6404 10.7591 28.7334 10.8167 28.8318 10.8735L28.8575 10.8881C28.9642 10.947 29.0814 11.0046 29.2041 11.0614L29.2838 11.0967C29.4135 11.1536 29.5501 11.2084 29.6999 11.2618L29.729 11.2708C29.8711 11.3207 30.0243 11.3678 30.1851 11.4094L30.2857 11.4379C30.4569 11.4836 30.6372 11.5266 30.83 11.5661L30.9326 11.5855C31.1128 11.6209 31.3021 11.6549 31.5018 11.6819L31.5982 11.6965C31.8186 11.7263 32.0523 11.7513 32.297 11.7728C32.3497 11.7776 32.4045 11.7811 32.4586 11.7852C32.7151 11.8053 32.9799 11.8213 33.2635 11.8303L34.6044 12.724C35.5641 13.3862 36.6924 13.7615 37.8575 13.8063C37.9414 13.8063 38.0419 13.8063 38.1424 13.8118C38.1986 13.8118 38.2575 13.8159 38.3199 13.8194L38.4205 13.8264C39.8383 13.92 42.6344 14.4296 44.1521 16.9075C44.001 16.9759 43.8508 17.0429 43.7015 17.1085C43.5545 17.1841 43.4061 17.2472 43.2605 17.3075V17.3054ZM36.561 10.1365C36.8973 9.36135 37.3333 8.63346 37.8581 7.97125C38.3831 8.6337 38.8195 9.36185 39.156 10.1372C38.6649 10.4543 38.2274 10.8477 37.8602 11.3027C37.4926 10.8472 37.0539 10.4541 36.561 10.1386V10.1365ZM33.4368 4.96849C33.6255 4.96849 33.8099 5.02441 33.9668 5.12921C34.1237 5.234 34.2459 5.38296 34.3182 5.55724C34.3904 5.73152 34.4093 5.92334 34.3726 6.10838C34.3358 6.29342 34.245 6.46339 34.1117 6.59684C33.9783 6.73029 33.8084 6.82122 33.6234 6.85811C33.4384 6.895 33.2466 6.87617 33.0722 6.80407C32.8979 6.73197 32.7488 6.6098 32.6439 6.45301C32.539 6.29621 32.483 6.11185 32.4828 5.9232C32.4837 5.67047 32.5847 5.42836 32.7636 5.24985C32.9425 5.07134 33.1848 4.97092 33.4375 4.97056L33.4368 4.96849ZM42.2801 4.96849C42.4688 4.96849 42.6532 5.02441 42.8101 5.12921C42.967 5.234 43.0892 5.38296 43.1615 5.55724C43.2337 5.73152 43.2526 5.92334 43.2159 6.10838C43.1791 6.29342 43.0883 6.46339 42.955 6.59684C42.8216 6.73029 42.6517 6.82122 42.4667 6.85811C42.2817 6.895 42.0899 6.87617 41.9155 6.80407C41.7412 6.73197 41.5922 6.6098 41.4872 6.45301C41.3823 6.29621 41.3263 6.11185 41.3261 5.9232C41.3269 5.67053 41.4277 5.42843 41.6065 5.24989C41.7852 5.07136 42.0275 4.97092 42.2801 4.97056V4.96849ZM44.7387 8.84417C44.4801 8.84417 44.2374 8.83862 44.0079 8.82822C43.9254 8.82475 43.854 8.81712 43.7749 8.81226C43.6363 8.80394 43.4935 8.79561 43.3652 8.78382C43.2709 8.77412 43.187 8.76164 43.0983 8.75124C42.9991 8.73876 42.8951 8.72835 42.8029 8.71379C42.7107 8.69923 42.6199 8.68191 42.5311 8.66458C42.4618 8.6514 42.3841 8.63892 42.3176 8.62505C42.2205 8.60356 42.1332 8.58 42.0458 8.55574C41.998 8.54326 41.9467 8.53149 41.9023 8.51901C41.8038 8.48989 41.7158 8.45938 41.6298 8.42887C41.6049 8.41986 41.5765 8.41154 41.5529 8.40183C41.4544 8.36508 41.365 8.32623 41.2818 8.2874L41.2624 8.27839C40.4692 7.89706 40.361 7.45334 40.3458 7.3847C40.3463 7.22016 40.3607 7.05595 40.3888 6.89382C40.395 6.85846 40.4075 6.82451 40.4151 6.79192C40.4227 6.75934 40.4338 6.72605 40.4429 6.69277C40.5609 6.97729 40.7434 7.23056 40.9759 7.43264C41.2084 7.63473 41.4846 7.78012 41.7828 7.85742C42.081 7.93472 42.393 7.9418 42.6944 7.87812C42.9958 7.81443 43.2783 7.68169 43.5198 7.49036C43.7612 7.29904 43.955 7.05433 44.0858 6.77546C44.2167 6.49659 44.2811 6.19118 44.274 5.88321C44.2669 5.57524 44.1884 5.27313 44.0448 5.0006C43.9012 4.72808 43.6963 4.49258 43.4463 4.31262C43.4976 4.29875 43.5489 4.28625 43.6002 4.27377C43.6647 4.25782 43.7292 4.24189 43.7923 4.22802C43.8554 4.21416 43.9309 4.1989 44.0003 4.18503C44.0696 4.17116 44.1265 4.15938 44.1875 4.14898C44.2485 4.13858 44.3185 4.12679 44.383 4.11639C44.4475 4.10599 44.5022 4.09698 44.5584 4.08935C44.6146 4.08172 44.6742 4.07411 44.7317 4.06718L44.8988 4.04568L44.9772 4.03806L45.1886 4.01796C46.2744 5.41288 46.9459 7.08503 47.1264 8.84345L44.7387 8.84417ZM37.8595 1.04014C39.6562 0.985209 41.4369 1.39095 43.0324 2.21877C42.9922 2.21531 42.9561 2.21877 42.9166 2.21877C42.6627 2.20257 42.4082 2.19911 42.1539 2.20838C42.0846 2.20838 42.0153 2.21946 41.946 2.22432C41.7602 2.23749 41.5799 2.25691 41.4038 2.28257C41.3157 2.29574 41.2277 2.30753 41.1424 2.32279C40.9386 2.36023 40.741 2.40389 40.5524 2.4545C40.4581 2.47946 40.37 2.50789 40.2792 2.53562C40.1637 2.57167 40.0511 2.60934 39.9416 2.64863C39.8528 2.68052 39.7641 2.71103 39.6802 2.74431C39.529 2.80532 39.3855 2.86911 39.2489 2.93359C39.1609 2.97519 39.0791 3.01679 38.9973 3.05908C38.9155 3.10137 38.8496 3.13744 38.7789 3.17696C38.6714 3.23727 38.5709 3.29482 38.4773 3.35376C38.408 3.39813 38.3338 3.44318 38.2693 3.48617C38.2048 3.52915 38.1604 3.55895 38.1091 3.595C38.044 3.64076 37.985 3.68378 37.9303 3.72538C37.9088 3.74133 37.8803 3.76002 37.8609 3.77527C37.8346 3.75448 37.7978 3.72953 37.7687 3.70596C37.7257 3.67337 37.6827 3.64148 37.6301 3.60681C37.5774 3.57214 37.5198 3.53052 37.4595 3.49031C37.4186 3.46258 37.3749 3.43487 37.3305 3.40644C37.205 3.32601 37.0671 3.24559 36.9146 3.1617C36.8723 3.13882 36.8341 3.11594 36.7911 3.09236C36.7058 3.0473 36.6164 3.00361 36.5249 2.95993C36.4667 2.93151 36.4063 2.90379 36.3446 2.87536C36.249 2.83168 36.1533 2.78938 36.05 2.74778C35.9467 2.70618 35.842 2.66875 35.7338 2.63062C35.5952 2.58278 35.4565 2.53839 35.3178 2.49679C35.2207 2.46837 35.1223 2.44133 35.0204 2.41637C34.9184 2.39141 34.8179 2.36714 34.7126 2.34704C34.5593 2.31584 34.4019 2.29089 34.2404 2.26871C34.1301 2.25415 34.0185 2.24236 33.9041 2.23265C33.7405 2.21809 33.5727 2.20768 33.4008 2.20422C33.3522 2.20422 33.3086 2.1966 33.2621 2.1966C33.1928 2.1966 33.1234 2.20283 33.0541 2.20422C32.9848 2.2056 32.9328 2.20839 32.8711 2.21185C32.8094 2.21532 32.7526 2.21184 32.6915 2.21877C34.2851 1.39196 36.0636 0.986248 37.8581 1.04014H37.8595ZM30.5284 4.02143C30.6206 4.02975 30.7211 4.03944 30.8279 4.05122L30.9138 4.06163C30.9943 4.07134 31.0761 4.08102 31.1634 4.0935L31.3195 4.11847C31.3888 4.12956 31.4581 4.13999 31.533 4.15317C31.5933 4.16356 31.6557 4.17671 31.7181 4.1885L31.9261 4.23149C31.9954 4.24605 32.0592 4.26267 32.1258 4.27931C32.175 4.2911 32.2235 4.30291 32.2721 4.31609C32.0219 4.49619 31.8169 4.73195 31.6734 5.00475C31.5298 5.27756 31.4515 5.57996 31.4447 5.88816C31.4379 6.19636 31.5027 6.50192 31.6341 6.78079C31.7655 7.05967 31.9599 7.30425 32.2019 7.49523C32.4439 7.68621 32.7269 7.81836 33.0287 7.88133C33.3305 7.9443 33.6428 7.93636 33.9409 7.8581C34.2391 7.77984 34.515 7.63338 34.747 7.43032C34.979 7.22726 35.1606 6.97312 35.2776 6.68791C35.2818 6.70385 35.2873 6.71915 35.2908 6.73509C35.3033 6.7864 35.3213 6.83351 35.3303 6.88621C35.3588 7.04852 35.3731 7.21301 35.3733 7.3778C35.3733 7.39167 35.227 8.50651 32.3747 8.78522C31.9677 8.82474 31.5046 8.84764 30.979 8.84764H28.5891C28.7688 7.08799 29.4399 5.41436 30.5256 4.01796L30.5284 4.02143ZM25.013 15.9465L25.0248 15.9569C25.0996 16.0311 25.1863 16.1136 25.2862 16.2058L25.3396 16.2544C25.4318 16.3376 25.5337 16.427 25.6453 16.5213L25.7084 16.5754C25.836 16.6815 25.9753 16.7938 26.1244 16.9096L26.2222 16.9838C26.3608 17.0905 26.514 17.1994 26.6749 17.3103L26.7505 17.3637C26.9307 17.4864 27.1242 17.6112 27.328 17.7367L27.4667 17.822C27.6656 17.9412 27.8722 18.0605 28.0906 18.1783L28.1489 18.2102C28.3832 18.3343 28.6342 18.4557 28.8894 18.5749C28.9504 18.6033 29.0114 18.6304 29.0731 18.6581C29.3414 18.778 29.6173 18.8952 29.9099 19.0048C30.0948 19.0741 30.285 19.1414 30.4805 19.2065C30.5117 19.2169 30.5457 19.2266 30.5776 19.2363C30.7447 19.2904 30.9145 19.3438 31.0913 19.3944C31.1461 19.4104 31.205 19.4236 31.2612 19.4388C31.4186 19.4818 31.5774 19.5248 31.7424 19.5643C31.8159 19.5816 31.8935 19.5962 31.9684 19.6128C32.1216 19.6475 32.2742 19.6821 32.4336 19.7126C32.521 19.7293 32.6132 19.7425 32.7019 19.7577C32.8551 19.7841 33.007 19.8118 33.1657 19.8347C33.2642 19.8486 33.3675 19.8583 33.4681 19.8707C33.6227 19.8902 33.7759 19.9102 33.9354 19.9255C34.0477 19.9366 34.1649 19.9421 34.282 19.9511C34.4359 19.9622 34.5885 19.9754 34.7465 19.983C34.8693 19.9886 34.9968 19.9886 35.1223 19.9921C35.2644 19.9921 35.3996 20.0025 35.5487 20.0025H35.5917C35.9023 20.0025 36.2198 19.9935 36.545 19.9754C36.597 19.9754 36.6525 19.9657 36.7045 19.9622C36.9818 19.9449 37.2591 19.922 37.5448 19.8929C37.664 19.8797 37.7867 19.861 37.9081 19.8451C38.1327 19.816 38.3587 19.7855 38.5896 19.748C38.7283 19.7244 38.8732 19.6967 39.0153 19.6704C39.2351 19.6295 39.4555 19.5858 39.6802 19.5366C39.832 19.5033 39.986 19.4672 40.1399 19.4284C40.3636 19.3743 40.5894 19.3156 40.8172 19.2523C40.976 19.2086 41.1355 19.1628 41.297 19.1136C41.5307 19.0443 41.7685 18.966 42.0077 18.8862C42.1678 18.8329 42.3273 18.7801 42.493 18.7226C42.7495 18.6304 43.0109 18.5292 43.273 18.4259C43.4234 18.3669 43.5711 18.3122 43.7229 18.2491C43.7625 18.2324 43.7999 18.2199 43.8388 18.2033C43.8069 18.2927 43.7757 18.3835 43.7431 18.4723C43.6529 18.717 43.56 18.9576 43.4657 19.1975C43.3555 19.4832 43.2446 19.7681 43.1309 20.0475C43.0338 20.2847 42.9353 20.5183 42.8362 20.7512C42.7197 21.0286 42.6025 21.2976 42.4826 21.5659C42.3807 21.7947 42.2746 22.02 42.1713 22.2447C42.0493 22.5068 41.9254 22.7663 41.7997 23.0233C41.6915 23.2437 41.582 23.4619 41.471 23.6777C41.343 23.9292 41.2124 24.1781 41.0793 24.4245C40.9661 24.6348 40.8519 24.8428 40.7368 25.0485C40.6009 25.2897 40.4634 25.5282 40.3243 25.764C40.2057 25.965 40.0865 26.1647 39.9659 26.3609C39.823 26.5925 39.6788 26.8199 39.5325 27.0459C39.4098 27.2366 39.2857 27.4265 39.1602 27.6131C39.0111 27.8349 38.8586 28.0519 38.7061 28.2675C38.5778 28.4478 38.4496 28.6288 38.3192 28.8049C38.1632 29.017 38.0031 29.2209 37.8429 29.4289C37.7112 29.5994 37.5787 29.77 37.4442 29.9364C37.2799 30.1388 37.1121 30.335 36.9444 30.5312C36.8057 30.6907 36.6726 30.8516 36.5339 31.0069C36.3613 31.2003 36.1873 31.3875 36.007 31.5754C35.8683 31.723 35.7297 31.8721 35.591 32.0156C35.408 32.2014 35.2207 32.3803 35.0363 32.5599C34.8977 32.6951 34.759 32.8331 34.6148 32.9641C34.4207 33.143 34.2217 33.3107 34.0234 33.4855C33.8847 33.6075 33.7461 33.733 33.6019 33.8509C33.3939 34.0249 33.1775 34.1906 32.9633 34.357C32.8246 34.4631 32.6929 34.5733 32.5549 34.6759C32.3144 34.8555 32.0696 35.0226 31.8228 35.1952C31.7063 35.2756 31.5926 35.3609 31.4761 35.4393C31.1105 35.6833 30.7394 35.917 30.3627 36.1402C26.9857 38.1691 23.1304 39.2645 19.1912 39.3142C18.9881 39.3139 18.7875 39.2695 18.6033 39.184C18.419 39.0986 18.2555 38.9741 18.1241 38.8192C18.0238 38.7096 17.9331 38.5915 17.8531 38.4663C17.8184 38.4129 17.7886 38.3498 17.756 38.2923C17.7088 38.2098 17.6596 38.1314 17.6174 38.0413C17.5841 37.972 17.5556 37.8936 17.5251 37.8201C17.4877 37.7314 17.4475 37.6468 17.4135 37.5518C17.3865 37.4783 17.3643 37.3965 17.3386 37.3195C17.3053 37.2176 17.2693 37.1178 17.2402 37.0103C17.2159 36.9237 17.1958 36.8308 17.1708 36.7413C17.1445 36.6366 17.1161 36.5333 17.0925 36.4265C17.0689 36.3198 17.053 36.2186 17.0335 36.1187C17.0141 36.0189 16.9919 35.9156 16.9739 35.8102C16.9559 35.7048 16.942 35.5918 16.9261 35.4829C16.9102 35.3741 16.8935 35.275 16.8796 35.1703C16.8658 35.0656 16.8561 34.9553 16.8436 34.8479C16.8311 34.7404 16.8179 34.6288 16.8075 34.5178C16.7971 34.4069 16.7888 34.2897 16.7798 34.1753C16.7715 34.0713 16.7618 33.9673 16.7548 33.8647C16.7479 33.7621 16.7424 33.6422 16.7368 33.5312C16.7313 33.4203 16.7243 33.3198 16.7195 33.2158C16.7146 33.1118 16.7126 33.0002 16.7098 32.892C16.707 32.7838 16.7022 32.6875 16.7001 32.5883C16.7001 32.4746 16.7001 32.3658 16.6966 32.2555C16.6966 32.1661 16.6966 32.0739 16.6966 31.9872C16.6966 31.8798 16.6966 31.7792 16.6966 31.6759C16.6966 31.5913 16.6966 31.504 16.6966 31.4228C16.6966 31.3029 16.7022 31.1913 16.7056 31.0762C16.7056 31.0214 16.7056 30.9618 16.7105 30.9084C16.7146 30.7926 16.7202 30.6865 16.725 30.5804C16.725 30.5381 16.7292 30.4903 16.7313 30.4494C16.7375 30.333 16.7444 30.2283 16.7521 30.1277L16.7562 30.0646C17.556 24.4582 20.5193 19.3879 25.0116 15.9396L25.013 15.9465ZM15.0132 48.2192C13.0199 49.2856 11.7421 49.3792 11.0994 49.3147L11.7928 47.9281C11.8494 47.8176 11.8647 47.6905 11.8359 47.5697C11.8071 47.449 11.7361 47.3425 11.6357 47.2694C11.5353 47.1964 11.4121 47.1616 11.2884 47.1714C11.1646 47.1812 11.0484 47.2349 10.9608 47.3228C10.4588 47.7686 9.86014 48.0916 9.21198 48.2665C8.56381 48.4413 7.88387 48.4631 7.22583 48.3302L9.80429 44.0316C9.86825 43.9243 9.89147 43.7975 9.86967 43.6745C9.84786 43.5515 9.78249 43.4405 9.68555 43.3617C9.5886 43.283 9.46654 43.2417 9.34168 43.2456C9.21682 43.2494 9.09753 43.2981 9.0056 43.3826C8.55631 43.8166 7.99127 44.1115 7.37838 44.2319L15.6511 31.8215C15.6508 31.8271 15.6508 31.8326 15.6511 31.8381V31.8416C15.6511 32.0267 15.6511 32.2236 15.6511 32.4261C15.6511 32.4725 15.6511 32.519 15.6511 32.5647C15.6546 32.7658 15.6594 32.9717 15.6677 33.1853V33.2213C15.676 33.4418 15.6885 33.6685 15.7038 33.8987C15.7072 33.9528 15.7114 34.0062 15.7155 34.0609C15.7294 34.2615 15.7465 34.4633 15.7669 34.6662C15.7703 34.705 15.7731 34.7432 15.7773 34.7813C15.8015 35.0149 15.8306 35.2486 15.8632 35.4815C15.8709 35.5349 15.8792 35.5869 15.8868 35.6396C15.9159 35.8342 15.9485 36.0272 15.9846 36.2185C15.9943 36.2685 16.0026 36.3191 16.0123 36.369C16.0581 36.5964 16.108 36.8196 16.1641 37.0387C16.1752 37.081 16.1877 37.1213 16.1988 37.1636C16.2478 37.3443 16.3012 37.5208 16.359 37.6932C16.3763 37.7452 16.3929 37.7972 16.4117 37.8485C16.481 38.0503 16.5607 38.2458 16.646 38.4302C16.6571 38.4545 16.6702 38.476 16.6813 38.4996C16.7562 38.6554 16.8393 38.8073 16.9303 38.9544C16.9566 38.9974 16.9836 39.0404 17.0114 39.082C17.1117 39.2369 17.2241 39.3837 17.3476 39.5208C17.5754 39.7826 17.8568 39.9924 18.1727 40.1359C18.4886 40.2795 18.8317 40.3535 19.1787 40.3528C23.304 40.3024 27.3418 39.157 30.8792 37.0339C31.2693 36.8028 31.6541 36.5608 32.0336 36.308C32.1604 36.2234 32.2839 36.1305 32.41 36.0431C32.6596 35.8712 32.9092 35.6965 33.1533 35.5183C33.2996 35.4087 33.4417 35.2923 33.5859 35.18C33.8036 35.0101 34.0227 34.8423 34.237 34.6655C34.3888 34.5393 34.5364 34.4062 34.6862 34.2759C34.8873 34.1018 35.089 33.9292 35.2859 33.7489C35.4364 33.6103 35.5841 33.4647 35.7324 33.3219C35.9224 33.1395 36.1131 32.9586 36.2996 32.7672C36.4479 32.6168 36.5921 32.4593 36.7384 32.3047C36.9187 32.1134 37.0997 31.9234 37.2765 31.7258C37.4214 31.5636 37.5628 31.3958 37.7049 31.2301C37.8769 31.029 38.0516 30.828 38.2187 30.6207C38.3573 30.448 38.496 30.2705 38.6347 30.0944C38.7997 29.8864 38.964 29.6715 39.1249 29.4538C39.2635 29.2715 39.3925 29.0843 39.5256 28.8991C39.683 28.6773 39.8404 28.4547 39.9936 28.2273C40.1239 28.0339 40.2522 27.837 40.3798 27.6401C40.5302 27.4078 40.6793 27.1749 40.8256 26.9371C40.9511 26.7339 41.0738 26.5273 41.1965 26.32C41.3393 26.078 41.4814 25.8347 41.6208 25.5851C41.741 25.372 41.8593 25.1568 41.9758 24.9396C42.1145 24.6858 42.2492 24.4295 42.38 24.1707C42.4937 23.9484 42.6063 23.724 42.7177 23.4975C42.8473 23.2341 42.9742 22.9678 43.1004 22.6988C43.209 22.4677 43.3167 22.2324 43.4235 21.993C43.5455 21.7198 43.6647 21.4432 43.7833 21.161C43.8866 20.9183 43.9913 20.6757 44.0904 20.4268C44.2048 20.1439 44.3171 19.8568 44.4287 19.5684C44.5265 19.314 44.625 19.0595 44.72 18.8009C44.7567 18.7025 44.7955 18.6075 44.8316 18.5083C44.8468 18.5617 44.8649 18.6116 44.8794 18.6657C44.912 18.7857 44.9439 18.9063 44.9709 19.0304C45.0285 19.2946 45.0777 19.5698 45.1096 19.8624C45.1193 19.9414 45.1255 20.0233 45.1331 20.1037C45.1657 20.4406 45.1893 20.7873 45.1893 21.1603C45.1893 27.0736 34.1066 36.0632 33.6109 36.4626L21.8591 44.3006C21.7391 44.372 18.3162 46.4423 15.0119 48.2123L15.0132 48.2192ZM28.2785 44.2881C28.1954 44.244 28.102 44.2231 28.008 44.2278C27.914 44.2324 27.823 44.2624 27.7447 44.3145L25.6051 45.7406V44.7471C25.6053 44.6529 25.5799 44.5604 25.5316 44.4795C25.4833 44.3987 25.4139 44.3324 25.3308 44.288C25.2477 44.2435 25.1541 44.2225 25.0601 44.2272C24.966 44.2318 24.8749 44.262 24.7967 44.3145L22.6571 45.7406V45.0251L34.2175 37.3181C34.2299 37.3104 34.2417 37.3018 34.2529 37.2925C34.7424 36.9036 46.2411 27.6803 46.2411 21.1631C46.2411 20.7762 46.2182 20.4115 46.1856 20.0538C46.178 19.9719 46.1683 19.8915 46.1593 19.8104C46.1198 19.4686 46.0692 19.1386 46.0005 18.8252C46.0005 18.8148 45.9971 18.803 45.995 18.7926C45.9172 18.4432 45.8179 18.0988 45.6975 17.7617L45.6844 17.7256C45.276 16.5832 44.5869 15.5618 43.6804 14.7556C42.7739 13.9493 41.6792 13.3839 40.4969 13.1115L40.5052 13.1074L40.56 13.0769C40.646 13.0304 40.7222 12.9874 40.7888 12.9472L40.8658 12.9008C40.9157 12.8696 40.9566 12.8446 40.9906 12.8218C41.0086 12.81 41.0204 12.803 41.0336 12.7933C41.0682 12.7704 41.0918 12.7538 41.0959 12.7503L42.4542 11.8449C42.8099 11.8338 43.1378 11.8116 43.4505 11.7838C43.5538 11.7748 43.6481 11.7624 43.7472 11.7513C43.9504 11.7291 44.1473 11.7055 44.3324 11.6764C44.4336 11.6611 44.5314 11.6445 44.627 11.6271C44.7962 11.5966 44.9564 11.5634 45.1124 11.5287C45.197 11.5086 45.2829 11.4898 45.3634 11.469C45.5263 11.4268 45.6774 11.3817 45.8223 11.3346C45.8743 11.3179 45.9312 11.3027 45.9811 11.2853C46.1683 11.2202 46.3402 11.1515 46.4976 11.0774C46.5385 11.0586 46.5718 11.0399 46.6106 11.0212C46.7243 10.9664 46.8325 10.9116 46.9309 10.8548C46.9788 10.8277 47.0211 10.8 47.0655 10.773C47.1445 10.7237 47.2187 10.6745 47.2873 10.6253C47.3269 10.5962 47.365 10.5685 47.4017 10.5393C47.4655 10.4894 47.523 10.4402 47.5771 10.3903C47.5958 10.3736 47.6201 10.3563 47.6375 10.3396C49.0172 13.287 49.1336 19.1372 49.1343 19.1934C49.1343 25.2357 46.4671 31.0651 41.2069 36.5201C40.0112 37.7554 38.7415 38.9168 37.4047 39.9978C35.9158 41.22 34.337 42.3286 32.6818 43.314L31.6994 43.9033L29.7338 45.082L28.5552 45.7884V44.7416C28.5551 44.6468 28.5292 44.5538 28.4802 44.4727C28.4312 44.3915 28.361 44.3254 28.2772 44.2812L28.2785 44.2881ZM30.796 45.6609L31.6404 45.1541C31.6515 45.1631 31.6633 45.1714 31.6758 45.1797L37.569 49.1101C37.576 49.115 37.585 49.115 37.5919 49.1192C37.6493 49.1558 37.7134 49.1806 37.7805 49.192C38.5675 49.3197 39.3458 49.4964 40.1108 49.721C41.8136 50.2327 42.2164 50.7055 42.3106 50.8844C42.416 51.0854 42.5186 51.3004 42.6102 51.5139C42.6261 51.5507 42.6358 51.5832 42.6511 51.6172C42.6282 51.5943 42.5991 51.5687 42.5755 51.5479C42.5353 51.509 42.4965 51.4709 42.4514 51.43C42.4063 51.3891 42.3509 51.344 42.2975 51.3003C42.2441 51.2567 42.1997 51.2186 42.1443 51.1763C42.0888 51.134 42.0188 51.0868 41.9536 51.0417C41.8884 50.9967 41.8364 50.9599 41.772 50.9197C41.7075 50.8795 41.6194 50.8317 41.5397 50.7887C41.4703 50.7506 41.4052 50.7117 41.3317 50.675C41.2457 50.6327 41.15 50.5953 41.0543 50.5557C40.976 50.5232 40.9011 50.4864 40.8179 50.458C40.7146 50.4205 40.6002 50.3886 40.4893 50.3581C40.404 50.3339 40.3236 50.3054 40.2335 50.2839C40.1066 50.2541 39.9679 50.2347 39.832 50.2146C39.7454 50.2001 39.6642 50.1806 39.5734 50.1702C39.38 50.1474 39.172 50.1384 38.9605 50.1349C38.9182 50.1349 38.8815 50.128 38.8392 50.128C38.7049 50.1279 38.5758 50.1798 38.4789 50.2729C38.3821 50.366 38.3251 50.4929 38.3199 50.6271V50.6965V50.7589V50.7977C38.3199 50.8261 38.3199 50.8552 38.3199 50.8899V50.9481C38.3199 50.9835 38.3199 51.0175 38.3199 51.0584V51.1367C38.3199 51.177 38.3199 51.2186 38.3199 51.2629C38.3199 51.2934 38.3199 51.3239 38.3199 51.3558C38.3199 51.4037 38.3234 51.4529 38.3261 51.5049L38.3303 51.604C38.334 51.6586 38.3374 51.7147 38.3407 51.7725C38.3407 51.8093 38.3448 51.8418 38.3476 51.8834C38.3525 51.9424 38.3574 52.0041 38.3629 52.0665C38.3629 52.106 38.3691 52.1441 38.3726 52.1843C38.3788 52.2537 38.3865 52.323 38.3941 52.3923C38.3982 52.4305 38.4017 52.4672 38.4059 52.506C38.4156 52.5858 38.426 52.6683 38.4371 52.7508C38.4419 52.782 38.4447 52.8125 38.4496 52.8444C38.4662 52.9581 38.4842 53.0732 38.5036 53.191C38.5092 53.2215 38.5161 53.2534 38.5217 53.2846C38.5369 53.372 38.5528 53.4594 38.5716 53.5481C38.5806 53.5952 38.5917 53.6424 38.6021 53.6868C38.618 53.7603 38.634 53.8337 38.652 53.9072C38.6645 53.9606 38.6791 54.0147 38.6929 54.0688C38.711 54.1381 38.7283 54.2074 38.7477 54.2719C38.7671 54.3364 38.781 54.3857 38.7983 54.4425C38.8108 54.4841 38.8219 54.5264 38.835 54.5673L38.8288 54.5631C38.8136 54.5513 38.7976 54.5368 38.7823 54.5243C38.7232 54.4781 38.6642 54.4261 38.6055 54.3683C38.5806 54.3447 38.5563 54.3191 38.5314 54.2941C38.4794 54.24 38.4267 54.1811 38.3754 54.1194C38.3532 54.0924 38.3303 54.0667 38.306 54.0383C38.2314 53.9429 38.162 53.8436 38.098 53.7408C38.0904 53.7284 38.0835 53.7138 38.0759 53.7006C38.0176 53.6029 37.9621 53.4968 37.9088 53.3845C37.89 53.3457 37.872 53.3034 37.854 53.2618C37.8117 53.1654 37.7722 53.0628 37.734 52.9553C37.7181 52.9103 37.7021 52.8659 37.6869 52.8166C37.6377 52.662 37.5919 52.4998 37.5531 52.323C37.4385 51.7717 37.3829 51.2097 37.3874 50.6465C37.3874 50.5637 37.3677 50.4821 37.3298 50.4084C37.292 50.3347 37.2371 50.2712 37.1697 50.223L30.796 45.6609ZM39.7045 53.7915C39.6913 53.7408 39.6788 53.6909 39.667 53.6403C39.6414 53.5335 39.6185 53.4275 39.5977 53.3221C39.5887 53.2777 39.579 53.2327 39.5699 53.1876C39.5436 53.0489 39.52 52.9102 39.5006 52.7716C39.5006 52.7522 39.4951 52.7341 39.4923 52.7154C39.4743 52.5865 39.4576 52.461 39.4438 52.339C39.4382 52.2877 39.4334 52.2384 39.4285 52.1885C39.4202 52.106 39.4126 52.0249 39.4056 51.9465C39.4015 51.8959 39.398 51.8467 39.3945 51.7982C39.389 51.7226 39.3841 51.6512 39.3807 51.5812C39.3807 51.5409 39.3752 51.4986 39.3738 51.4605C39.3689 51.3614 39.3654 51.2671 39.3634 51.1832V51.1776H39.3758C39.586 51.1995 39.7944 51.2351 39.9998 51.2844L40.1385 51.3184C40.3185 51.3655 40.4953 51.4246 40.6675 51.4952C40.6876 51.5035 40.7056 51.5132 40.7257 51.5222C40.8665 51.583 41.0033 51.6525 41.1355 51.7302C41.1646 51.7468 41.1944 51.7635 41.2215 51.7808C41.3469 51.8585 41.4675 51.9438 41.5827 52.036L41.5993 52.0498L39.7398 53.9093C39.728 53.874 39.7149 53.8331 39.7045 53.7915Z" fill="#1A1A1A"/>
<path d="M31.9628 14.7977C32.0864 14.7979 32.2061 14.7541 32.3003 14.674C32.3946 14.594 32.4572 14.483 32.477 14.3609C32.4968 14.2389 32.4724 14.1138 32.4083 14.0081C32.3442 13.9024 32.2445 13.823 32.1271 13.7841L29.1791 12.8017C29.0483 12.758 28.9055 12.7681 28.7821 12.8297C28.6587 12.8913 28.5648 12.9995 28.5211 13.1303C28.4775 13.2611 28.4876 13.4039 28.5492 13.5273C28.6108 13.6507 28.7189 13.7446 28.8498 13.7882L31.7978 14.7707C31.851 14.7884 31.9067 14.7975 31.9628 14.7977Z" fill="#1A1A1A"/>
<path d="M35.0751 16.7318L32.1271 15.7494C31.9963 15.7057 31.8534 15.7158 31.73 15.7775C31.6066 15.8391 31.5128 15.9472 31.4692 16.078C31.4255 16.2089 31.4355 16.3517 31.4972 16.4751C31.5588 16.5985 31.667 16.6924 31.7978 16.736L34.7458 17.7185C34.799 17.7362 34.8547 17.7453 34.9108 17.7455C35.0344 17.7457 35.1541 17.7019 35.2483 17.6218C35.3425 17.5418 35.4052 17.4308 35.425 17.3087C35.4448 17.1867 35.4204 17.0615 35.3563 16.9558C35.2922 16.8501 35.1925 16.7707 35.0751 16.7318Z" fill="#1A1A1A"/>
<path d="M23.939 20.6667L26.887 21.6491C26.9402 21.6672 26.9959 21.6763 27.052 21.6762C27.1753 21.6759 27.2945 21.6318 27.3883 21.5519C27.4821 21.4719 27.5444 21.3611 27.5641 21.2394C27.5839 21.1177 27.5598 20.993 27.4961 20.8875C27.4324 20.7819 27.3332 20.7025 27.2163 20.6632L24.2683 19.6801C24.2035 19.6585 24.1352 19.6498 24.067 19.6546C23.9989 19.6594 23.9324 19.6776 23.8713 19.7081C23.8102 19.7387 23.7557 19.7809 23.7109 19.8325C23.6662 19.884 23.632 19.9439 23.6104 20.0087C23.5888 20.0735 23.5801 20.1419 23.5849 20.21C23.5897 20.2781 23.6079 20.3447 23.6384 20.4058C23.669 20.4669 23.7112 20.5214 23.7628 20.5661C23.8143 20.6109 23.8742 20.6451 23.939 20.6667Z" fill="#1A1A1A"/>
<path d="M29.8322 21.6491L32.7809 22.6322C32.9112 22.6736 33.0526 22.6622 33.1744 22.6002C33.2963 22.5382 33.3889 22.4307 33.4321 22.301C33.4753 22.1713 33.4656 22.0298 33.4053 21.9071C33.3449 21.7845 33.2387 21.6905 33.1096 21.6456L30.1616 20.6632C30.0962 20.639 30.0267 20.6282 29.9571 20.6314C29.8875 20.6346 29.8192 20.6518 29.7564 20.6819C29.6935 20.7121 29.6374 20.7545 29.5913 20.8068C29.5452 20.859 29.51 20.92 29.488 20.9861C29.4659 21.0522 29.4573 21.1221 29.4628 21.1915C29.4682 21.261 29.4876 21.3287 29.5197 21.3905C29.5518 21.4523 29.596 21.5071 29.6497 21.5515C29.7034 21.5959 29.7655 21.6291 29.8322 21.6491Z" fill="#1A1A1A"/>
<path d="M35.7289 22.6322L38.6769 23.6146C38.8072 23.6561 38.9486 23.6446 39.0704 23.5827C39.1923 23.5207 39.2848 23.4132 39.328 23.2835C39.3712 23.1538 39.3616 23.0123 39.3013 22.8896C39.2409 22.7669 39.1347 22.673 39.0055 22.628L36.0575 21.6456C35.9273 21.6041 35.7859 21.6156 35.664 21.6776C35.5422 21.7396 35.4496 21.847 35.4064 21.9767C35.3632 22.1064 35.3728 22.248 35.4332 22.3706C35.4935 22.4933 35.5998 22.5873 35.7289 22.6322Z" fill="#1A1A1A"/>
<path d="M20.9882 24.5973L23.9389 25.5804C23.9922 25.598 24.0479 25.6069 24.1039 25.6068C24.2272 25.6065 24.3464 25.5624 24.4402 25.4824C24.534 25.4025 24.5963 25.2917 24.6161 25.1701C24.6358 25.0484 24.6117 24.9236 24.548 24.8181C24.4843 24.7126 24.3851 24.6331 24.2683 24.5939L21.3203 23.6114C21.2549 23.5872 21.1854 23.5764 21.1158 23.5797C21.0462 23.5829 20.9779 23.6001 20.9151 23.6302C20.8522 23.6604 20.7961 23.7028 20.75 23.7551C20.7039 23.8073 20.6688 23.8683 20.6467 23.9344C20.6246 24.0005 20.616 24.0703 20.6215 24.1398C20.6269 24.2092 20.6463 24.2769 20.6784 24.3387C20.7105 24.4006 20.7547 24.4553 20.8084 24.4998C20.8621 24.5442 20.9242 24.5774 20.9909 24.5973H20.9882Z" fill="#1A1A1A"/>
<path d="M29.8322 26.5627C29.8855 26.5802 29.9411 26.5891 29.9972 26.589C30.1205 26.5888 30.2397 26.5447 30.3335 26.4647C30.4272 26.3847 30.4896 26.274 30.5093 26.1523C30.5291 26.0306 30.5049 25.9059 30.4412 25.8003C30.3775 25.6948 30.2784 25.6153 30.1615 25.5761L27.2135 24.5937C27.0827 24.55 26.9399 24.56 26.8165 24.6217C26.6931 24.6833 26.5992 24.7915 26.5556 24.9223C26.5119 25.0531 26.522 25.1959 26.5836 25.3193C26.6453 25.4427 26.7534 25.5366 26.8842 25.5802L29.8322 26.5627Z" fill="#1A1A1A"/>
<path d="M36.0575 26.5587L33.1095 25.5763C32.9793 25.5348 32.8379 25.5463 32.716 25.6083C32.5942 25.6702 32.5016 25.7777 32.4584 25.9074C32.4152 26.0371 32.4248 26.1786 32.4852 26.3013C32.5455 26.424 32.6518 26.5179 32.7809 26.5628L35.7289 27.5453C35.7818 27.5634 35.8373 27.5726 35.8932 27.5723C36.0169 27.5725 36.1366 27.5287 36.2308 27.4487C36.325 27.3686 36.3876 27.2576 36.4074 27.1356C36.4272 27.0135 36.4029 26.8884 36.3387 26.7827C36.2746 26.677 36.1749 26.5976 36.0575 26.5587Z" fill="#1A1A1A"/>
<path d="M18.0402 28.528L20.9882 29.5105C21.0415 29.5279 21.0972 29.5368 21.1532 29.5368C21.2765 29.5365 21.3957 29.4924 21.4895 29.4124C21.5833 29.3325 21.6456 29.2217 21.6653 29.1001C21.6851 28.9784 21.6609 28.8537 21.5972 28.7481C21.5335 28.6426 21.4344 28.5631 21.3175 28.5239L18.3695 27.5414C18.2387 27.4977 18.0959 27.5078 17.9725 27.5695C17.8491 27.6311 17.7552 27.7392 17.7116 27.87C17.6679 28.0009 17.678 28.1437 17.7396 28.2671C17.8013 28.3905 17.9094 28.4844 18.0402 28.528Z" fill="#1A1A1A"/>
<path d="M27.0492 30.5199C27.1729 30.5201 27.2925 30.4762 27.3867 30.3962C27.481 30.3161 27.5436 30.2051 27.5634 30.0831C27.5832 29.961 27.5588 29.836 27.4947 29.7303C27.4306 29.6245 27.3309 29.5451 27.2135 29.5063L24.2655 28.5238C24.2007 28.5022 24.1323 28.4935 24.0642 28.4984C23.9961 28.5032 23.9296 28.5213 23.8685 28.5519C23.8074 28.5824 23.7529 28.6246 23.7081 28.6762C23.6634 28.7278 23.6292 28.7877 23.6075 28.8525C23.5859 28.9173 23.5773 28.9856 23.5821 29.0538C23.5869 29.1219 23.6051 29.1884 23.6356 29.2495C23.6661 29.3106 23.7084 29.3651 23.76 29.4098C23.8115 29.4546 23.8714 29.4888 23.9362 29.5104L26.8842 30.4928C26.9373 30.5109 26.9931 30.52 27.0492 30.5199Z" fill="#1A1A1A"/>
<path d="M33.1095 30.4894L30.1615 29.5063C30.0307 29.4626 29.8879 29.4726 29.7645 29.5343C29.6411 29.5959 29.5472 29.7041 29.5036 29.8349C29.4599 29.9657 29.47 30.1085 29.5316 30.2319C29.5932 30.3553 29.7014 30.4492 29.8322 30.4928L32.7809 31.476C32.9112 31.5175 33.0525 31.506 33.1744 31.444C33.2963 31.382 33.3888 31.2745 33.432 31.1448C33.4752 31.0151 33.4656 30.8736 33.4052 30.7509C33.3449 30.6283 33.2386 30.5343 33.1095 30.4894Z" fill="#1A1A1A"/>
<path d="M22.3007 33.4376L19.3527 32.4545C19.2879 32.4328 19.2195 32.4242 19.1514 32.429C19.0833 32.4338 19.0167 32.452 18.9556 32.4825C18.8945 32.513 18.8401 32.5553 18.7953 32.6069C18.7505 32.6585 18.7163 32.7183 18.6947 32.7831C18.6731 32.8479 18.6645 32.9163 18.6693 32.9844C18.6741 33.0526 18.6922 33.1191 18.7228 33.1802C18.7533 33.2413 18.7955 33.2957 18.8471 33.3405C18.8987 33.3853 18.9585 33.4195 19.0233 33.4411L21.9713 34.4242C22.1022 34.4679 22.245 34.4578 22.3684 34.3962C22.4918 34.3345 22.5857 34.2264 22.6293 34.0956C22.673 33.9647 22.6629 33.8219 22.6013 33.6985C22.5396 33.5751 22.4315 33.4813 22.3007 33.4376Z" fill="#1A1A1A"/>
<path d="M28.196 34.42L25.248 33.4376C25.1177 33.3961 24.9763 33.4076 24.8545 33.4696C24.7326 33.5316 24.64 33.639 24.5968 33.7687C24.5536 33.8984 24.5633 34.0399 24.6236 34.1626C24.684 34.2853 24.7902 34.3793 24.9193 34.4242L27.8673 35.4066C27.9324 35.4292 28.0013 35.4387 28.07 35.4345C28.1387 35.4303 28.206 35.4125 28.2677 35.3821C28.3295 35.3517 28.3847 35.3093 28.4299 35.2574C28.4752 35.2056 28.5097 35.1452 28.5315 35.0798C28.5533 35.0145 28.5619 34.9455 28.5567 34.8768C28.5516 34.8081 28.5329 34.7412 28.5017 34.6798C28.4705 34.6184 28.4274 34.5638 28.3749 34.5192C28.3224 34.4746 28.2616 34.4409 28.196 34.42Z" fill="#1A1A1A"/>
<path d="M39.988 15.7498L37.04 14.7674C36.9093 14.7238 36.7666 14.7339 36.6433 14.7956C36.5201 14.8572 36.4263 14.9653 36.3827 15.096C36.3392 15.2268 36.3493 15.3695 36.4109 15.4927C36.4726 15.616 36.5806 15.7097 36.7114 15.7533L39.6594 16.7364C39.7897 16.7779 39.931 16.7664 40.0529 16.7045C40.1748 16.6425 40.2673 16.535 40.3105 16.4053C40.3537 16.2756 40.3441 16.1341 40.2837 16.0114C40.2234 15.8887 40.1172 15.7947 39.988 15.7498Z" fill="#1A1A1A"/>
</g>
<defs>
<clipPath id="clip0_16_14085">
<rect width="60" height="60" fill="white"/>
</clipPath>
</defs>
</svg>
