<svg width="61" height="60" viewBox="0 0 61 60" fill="none" xmlns="http://www.w3.org/2000/svg">
<path d="M30.4209 6.5625C17.4768 6.5625 6.9834 17.0559 6.9834 30H53.8584C53.8584 17.0559 43.365 6.5625 30.4209 6.5625Z" fill="#FFC865"/>
<path d="M30.4209 53.4375C43.365 53.4375 53.8584 42.9441 53.8584 30H6.9834C6.9834 42.9441 17.4768 53.4375 30.4209 53.4375Z" fill="#BE9148"/>
<path d="M54.568 13.0679C50.4758 5.78919 41.2433 2.31013 32.9455 6.47919C29.7721 12.7951 31.0387 19.6529 35.0015 24.3592C40.4399 22.7111 49.1896 18.7661 54.568 13.0679Z" fill="#FF786E"/>
<path d="M35.0006 24.359C31.0734 19.6949 29.7468 12.8446 32.9446 6.479C25.5787 10.1784 21.9909 18.6674 24.8278 26.6053C27.5081 26.2846 31.0884 25.5824 35.0006 24.359Z" fill="#BE5652"/>
<path d="M56.1262 16.9634C50.9578 21.9218 44.3259 25.1721 38.2087 27.2834C42.8053 30.4756 49.0406 31.3409 54.8747 28.4093C56.6775 24.8206 57.1744 21.0003 56.1262 16.9634Z" fill="#EFEAE0"/>
<path d="M38.2087 27.2832C33.8203 28.7673 29.7019 29.6326 26.5369 30.061C33.4087 40.5545 49.1175 39.871 54.8747 28.4091C49.1709 31.2751 42.9272 30.5598 38.2087 27.2832Z" fill="#AA9991"/>
<path d="M56.1263 16.9631C55.7691 15.5869 55.2479 14.2781 54.5673 13.0669C52.8751 14.8078 50.9176 16.4006 48.7857 17.8369C47.6907 16.4663 46.0332 15.6835 44.2829 15.8963C41.3813 16.2488 39.3207 19.2403 39.9423 22.5469C34.9069 24.6516 29.6073 26.0316 24.8279 26.6044C25.2657 27.8288 25.8357 28.9894 26.5369 30.06C31.5226 29.3841 36.8298 27.9844 41.8266 25.9181C42.7285 26.7103 43.8648 27.181 45.0835 27.181C47.9035 27.181 50.1132 24.6966 50.101 21.6488C52.3041 20.2425 54.3394 18.6788 56.1263 16.9631Z" fill="#3A3A3A"/>
<path d="M45.426 25.2842C47.208 25.0676 48.4477 23.2069 48.195 21.1284C47.9422 19.0498 46.2928 17.5404 44.5108 17.7571C42.7288 17.9738 41.4891 19.8344 41.7418 21.913C41.9945 23.9916 43.644 25.5009 45.426 25.2842Z" fill="#FFFAFA"/>
</svg>
