<svg width="61" height="60" viewBox="0 0 61 60" fill="none" xmlns="http://www.w3.org/2000/svg">
<g clip-path="url(#clip0_19_16270)">
<path d="M59.4834 0H8.8584C8.34063 0 7.9209 0.419733 7.9209 0.9375V3.75C7.9209 4.26777 8.34063 4.6875 8.8584 4.6875H59.4834C60.0012 4.6875 60.4209 4.26777 60.4209 3.75V0.9375C60.4209 0.419733 60.0012 0 59.4834 0Z" fill="#9E724A"/>
<path d="M59.4834 2.8125H8.8584C8.34063 2.8125 7.9209 3.23223 7.9209 3.75V6.5625C7.9209 7.08027 8.34063 7.5 8.8584 7.5H59.4834C60.0012 7.5 60.4209 7.08027 60.4209 6.5625V3.75C60.4209 3.23223 60.0012 2.8125 59.4834 2.8125Z" fill="#AA7B50"/>
<path d="M25.0387 15C25.0387 14.874 25.0133 14.7493 24.964 14.6333C24.9148 14.5173 24.8426 14.4125 24.7519 14.325L22.5356 12.1875L24.7519 10.05C24.8426 9.96255 24.9148 9.8577 24.9641 9.74172C25.0134 9.62574 25.0388 9.50102 25.0388 9.375C25.0388 9.24898 25.0134 9.12426 24.9641 9.00828C24.9148 8.8923 24.8426 8.78745 24.7519 8.7L22.5356 6.5625L24.7519 4.425C24.8864 4.2953 24.9791 4.12835 25.0181 3.94557C25.0571 3.76278 25.0406 3.57252 24.9707 3.39921C24.9007 3.22589 24.7806 3.07743 24.6257 2.97289C24.4708 2.86835 24.2881 2.8125 24.1012 2.8125H20.2125C19.9699 2.81308 19.7369 2.90709 19.5619 3.075L16.6453 5.8875C16.5546 5.97495 16.4824 6.0798 16.4331 6.19578C16.3838 6.31176 16.3584 6.43648 16.3584 6.5625C16.3584 6.68852 16.3838 6.81324 16.4331 6.92922C16.4824 7.0452 16.5546 7.15005 16.6453 7.2375L18.8625 9.375L16.6453 11.5125C16.5546 11.6 16.4824 11.7048 16.4331 11.8208C16.3838 11.9368 16.3584 12.0615 16.3584 12.1875C16.3584 12.3135 16.3838 12.4382 16.4331 12.5542C16.4824 12.6702 16.5546 12.775 16.6453 12.8625L18.8625 15L16.6453 17.1375C16.5546 17.225 16.4824 17.3298 16.4331 17.4458C16.3838 17.5618 16.3584 17.6865 16.3584 17.8125C16.3584 17.9385 16.3838 18.0632 16.4331 18.1792C16.4824 18.2952 16.5546 18.4 16.6453 18.4875L18.8625 20.625L16.6453 22.7625C16.5546 22.85 16.4824 22.9548 16.4331 23.0708C16.3838 23.1868 16.3584 23.3115 16.3584 23.4375C16.3584 23.5635 16.3838 23.6882 16.4331 23.8042C16.4824 23.9202 16.5546 24.025 16.6453 24.1125L18.8625 26.25L16.6453 28.3875C16.5546 28.475 16.4824 28.5798 16.4331 28.6958C16.3838 28.8118 16.3584 28.9365 16.3584 29.0625C16.3584 29.1885 16.3838 29.3132 16.4331 29.4292C16.4824 29.5452 16.5546 29.65 16.6453 29.7375L19.5619 32.55C19.7369 32.7179 19.9699 32.8119 20.2125 32.8125H24.1012C24.2881 32.8125 24.4708 32.7566 24.6257 32.6521C24.7806 32.5476 24.9007 32.3991 24.9707 32.2258C25.0406 32.0525 25.0571 31.8622 25.0181 31.6794C24.9791 31.4967 24.8864 31.3297 24.7519 31.2L22.5356 29.0625L24.7519 26.925C24.8426 26.8375 24.9148 26.7327 24.9641 26.6167C25.0134 26.5007 25.0388 26.376 25.0388 26.25C25.0388 26.124 25.0134 25.9993 24.9641 25.8833C24.9148 25.7673 24.8426 25.6625 24.7519 25.575L22.5356 23.4375L24.7519 21.3C24.8426 21.2125 24.9148 21.1077 24.9641 20.9917C25.0134 20.8757 25.0388 20.751 25.0388 20.625C25.0388 20.499 25.0134 20.3743 24.9641 20.2583C24.9148 20.1423 24.8426 20.0375 24.7519 19.95L22.5356 17.8125L24.7519 15.675C24.8426 15.5875 24.9148 15.4827 24.964 15.3667C25.0133 15.2507 25.0387 15.126 25.0387 15Z" fill="#EAC180"/>
<path d="M28.9275 15C28.9282 14.8744 28.9037 14.7499 28.8554 14.634C28.807 14.518 28.7359 14.4129 28.6462 14.325L26.4234 12.1875L28.6396 10.05C28.7304 9.96256 28.8025 9.85771 28.8518 9.74174C28.9011 9.62576 28.9265 9.50104 28.9265 9.37502C28.9265 9.249 28.9011 9.12427 28.8518 9.0083C28.8025 8.89232 28.7304 8.78747 28.6396 8.70002L26.4234 6.56252L28.6396 4.42502C28.7746 4.29499 28.8674 4.12751 28.9062 3.9442C28.945 3.76089 28.928 3.57016 28.8574 3.39661C28.7868 3.22305 28.6658 3.07465 28.51 2.97054C28.3542 2.86642 28.1708 2.81138 27.9834 2.81252H24.1012C23.8567 2.81164 23.6214 2.90576 23.445 3.07502L20.5293 5.88752C20.4386 5.97497 20.3664 6.07982 20.3171 6.1958C20.2678 6.31177 20.2424 6.4365 20.2424 6.56252C20.2424 6.68854 20.2678 6.81326 20.3171 6.92924C20.3664 7.04521 20.4386 7.15006 20.5293 7.23752L22.7503 9.37502L20.534 11.5125C20.4433 11.6 20.3711 11.7048 20.3218 11.8208C20.2725 11.9368 20.2471 12.0615 20.2471 12.1875C20.2471 12.3135 20.2725 12.4383 20.3218 12.5542C20.3711 12.6702 20.4433 12.7751 20.534 12.8625L22.7503 15L20.534 17.1375C20.4433 17.225 20.3711 17.3298 20.3218 17.4458C20.2725 17.5618 20.2471 17.6865 20.2471 17.8125C20.2471 17.9385 20.2725 18.0633 20.3218 18.1792C20.3711 18.2952 20.4433 18.4001 20.534 18.4875L22.7503 20.625L20.534 22.7625C20.4433 22.85 20.3711 22.9548 20.3218 23.0708C20.2725 23.1868 20.2471 23.3115 20.2471 23.4375C20.2471 23.5635 20.2725 23.6883 20.3218 23.8042C20.3711 23.9202 20.4433 24.0251 20.534 24.1125L22.7503 26.25L20.534 28.3875C20.4433 28.475 20.3711 28.5798 20.3218 28.6958C20.2725 28.8118 20.2471 28.9365 20.2471 29.0625C20.2471 29.1885 20.2725 29.3133 20.3218 29.4292C20.3711 29.5452 20.4433 29.6501 20.534 29.7375L23.4496 32.55C23.6261 32.7193 23.8614 32.8134 24.1059 32.8125H27.9946C28.182 32.8137 28.3654 32.7586 28.5212 32.6545C28.677 32.5504 28.798 32.402 28.8687 32.2284C28.9393 32.0549 28.9563 31.8641 28.9175 31.6808C28.8787 31.4975 28.7858 31.33 28.6509 31.2L26.4234 29.0625L28.6396 26.925C28.7304 26.8376 28.8025 26.7327 28.8518 26.6167C28.9011 26.5008 28.9265 26.376 28.9265 26.25C28.9265 26.124 28.9011 25.9993 28.8518 25.8833C28.8025 25.7673 28.7304 25.6625 28.6396 25.575L26.4234 23.4375L28.6396 21.3C28.7304 21.2126 28.8025 21.1077 28.8518 20.9917C28.9011 20.8758 28.9265 20.751 28.9265 20.625C28.9265 20.499 28.9011 20.3743 28.8518 20.2583C28.8025 20.1423 28.7304 20.0375 28.6396 19.95L26.4234 17.8125L28.6396 15.675C28.7305 15.5876 28.8029 15.4828 28.8523 15.3668C28.9018 15.2509 28.9273 15.1261 28.9275 15Z" fill="#FCD08A"/>
<path d="M32.8172 15C32.8172 14.874 32.7918 14.7493 32.7425 14.6333C32.6932 14.5173 32.621 14.4125 32.5303 14.325L30.3131 12.1875L32.5303 10.05C32.621 9.96255 32.6932 9.8577 32.7425 9.74172C32.7918 9.62574 32.8172 9.50102 32.8172 9.375C32.8172 9.24898 32.7918 9.12426 32.7425 9.00828C32.6932 8.8923 32.621 8.78745 32.5303 8.7L30.3131 6.5625L32.5303 4.425C32.6649 4.2953 32.7576 4.12835 32.7966 3.94557C32.8356 3.76278 32.819 3.57252 32.7491 3.39921C32.6792 3.22589 32.559 3.07743 32.4041 2.97289C32.2492 2.86835 32.0666 2.8125 31.8797 2.8125H27.99C27.7473 2.81249 27.5141 2.90659 27.3394 3.075L24.4228 5.8875C24.3321 5.97495 24.2599 6.0798 24.2106 6.19578C24.1613 6.31176 24.1359 6.43648 24.1359 6.5625C24.1359 6.68852 24.1613 6.81324 24.2106 6.92922C24.2599 7.0452 24.3321 7.15005 24.4228 7.2375L26.64 9.375L24.4209 11.5125C24.3302 11.6 24.258 11.7048 24.2087 11.8208C24.1594 11.9368 24.134 12.0615 24.134 12.1875C24.134 12.3135 24.1594 12.4382 24.2087 12.5542C24.258 12.6702 24.3302 12.775 24.4209 12.8625L26.64 15L24.4209 17.1375C24.3302 17.225 24.258 17.3298 24.2087 17.4458C24.1594 17.5618 24.134 17.6865 24.134 17.8125C24.134 17.9385 24.1594 18.0632 24.2087 18.1792C24.258 18.2952 24.3302 18.4 24.4209 18.4875L26.64 20.625L24.4209 22.7625C24.3302 22.85 24.258 22.9548 24.2087 23.0708C24.1594 23.1868 24.134 23.3115 24.134 23.4375C24.134 23.5635 24.1594 23.6882 24.2087 23.8042C24.258 23.9202 24.3302 24.025 24.4209 24.1125L26.64 26.25L24.4209 28.3875C24.3302 28.475 24.258 28.5798 24.2087 28.6958C24.1594 28.8118 24.134 28.9365 24.134 29.0625C24.134 29.1885 24.1594 29.3132 24.2087 29.4292C24.258 29.5452 24.3302 29.65 24.4209 29.7375L27.3375 32.55C27.5122 32.7184 27.7454 32.8125 27.9881 32.8125H31.8778C32.0647 32.8125 32.2473 32.7566 32.4022 32.6521C32.5572 32.5476 32.6773 32.3991 32.7472 32.2258C32.8172 32.0525 32.8337 31.8622 32.7947 31.6794C32.7557 31.4967 32.663 31.3297 32.5284 31.2L30.3131 29.0625L32.5303 26.925C32.621 26.8375 32.6932 26.7327 32.7425 26.6167C32.7918 26.5007 32.8172 26.376 32.8172 26.25C32.8172 26.124 32.7918 25.9993 32.7425 25.8833C32.6932 25.7673 32.621 25.6625 32.5303 25.575L30.3131 23.4375L32.5303 21.3C32.621 21.2125 32.6932 21.1077 32.7425 20.9917C32.7918 20.8757 32.8172 20.751 32.8172 20.625C32.8172 20.499 32.7918 20.3743 32.7425 20.2583C32.6932 20.1423 32.621 20.0375 32.5303 19.95L30.3131 17.8125L32.5303 15.675C32.621 15.5875 32.6932 15.4827 32.7425 15.3667C32.7918 15.2507 32.8172 15.126 32.8172 15Z" fill="#EAC180"/>
<path d="M36.7022 15C36.7022 14.874 36.6768 14.7493 36.6275 14.6333C36.5783 14.5173 36.5061 14.4125 36.4154 14.325L34.2019 12.1875L36.421 10.05C36.5117 9.96256 36.5839 9.85771 36.6332 9.74174C36.6825 9.62576 36.7079 9.50104 36.7079 9.37502C36.7079 9.249 36.6825 9.12427 36.6332 9.0083C36.5839 8.89232 36.5117 8.78747 36.421 8.70002L34.2019 6.56252L36.421 4.42502C36.5559 4.29499 36.6487 4.12751 36.6876 3.9442C36.7264 3.76089 36.7094 3.57016 36.6387 3.39661C36.5681 3.22305 36.4471 3.07465 36.2913 2.97054C36.1355 2.86642 35.9521 2.81138 35.7647 2.81252H31.8797C31.6352 2.81164 31.3999 2.90576 31.2235 3.07502L28.3069 5.88752C28.2162 5.97497 28.144 6.07982 28.0947 6.1958C28.0454 6.31177 28.02 6.4365 28.02 6.56252C28.02 6.68854 28.0454 6.81326 28.0947 6.92924C28.144 7.04521 28.2162 7.15006 28.3069 7.23752L30.5288 9.37502L28.3116 11.5125C28.2209 11.6 28.1487 11.7048 28.0994 11.8208C28.0501 11.9368 28.0247 12.0615 28.0247 12.1875C28.0247 12.3135 28.0501 12.4383 28.0994 12.5542C28.1487 12.6702 28.2209 12.7751 28.3116 12.8625L30.5288 15L28.3116 17.1375C28.2209 17.225 28.1487 17.3298 28.0994 17.4458C28.0501 17.5618 28.0247 17.6865 28.0247 17.8125C28.0247 17.9385 28.0501 18.0633 28.0994 18.1792C28.1487 18.2952 28.2209 18.4001 28.3116 18.4875L30.5288 20.625L28.3116 22.7625C28.2209 22.85 28.1487 22.9548 28.0994 23.0708C28.0501 23.1868 28.0247 23.3115 28.0247 23.4375C28.0247 23.5635 28.0501 23.6883 28.0994 23.8042C28.1487 23.9202 28.2209 24.0251 28.3116 24.1125L30.5288 26.25L28.3116 28.3875C28.2209 28.475 28.1487 28.5798 28.0994 28.6958C28.0501 28.8118 28.0247 28.9365 28.0247 29.0625C28.0247 29.1885 28.0501 29.3133 28.0994 29.4292C28.1487 29.5452 28.2209 29.6501 28.3116 29.7375L31.2282 32.55C31.4046 32.7193 31.6399 32.8134 31.8844 32.8125H35.7647C35.9516 32.8125 36.1343 32.7567 36.2892 32.6521C36.4441 32.5476 36.5642 32.3991 36.6342 32.2258C36.7041 32.0525 36.7206 31.8622 36.6816 31.6795C36.6426 31.4967 36.5499 31.3297 36.4154 31.2L34.2019 29.0625L36.421 26.925C36.5117 26.8376 36.5839 26.7327 36.6332 26.6167C36.6825 26.5008 36.7079 26.376 36.7079 26.25C36.7079 26.124 36.6825 25.9993 36.6332 25.8833C36.5839 25.7673 36.5117 25.6625 36.421 25.575L34.2019 23.4375L36.421 21.3C36.5117 21.2126 36.5839 21.1077 36.6332 20.9917C36.6825 20.8758 36.7079 20.751 36.7079 20.625C36.7079 20.499 36.6825 20.3743 36.6332 20.2583C36.5839 20.1423 36.5117 20.0375 36.421 19.95L34.2019 17.8125L36.421 15.675C36.5107 15.5871 36.5818 15.482 36.6301 15.3661C36.6784 15.2501 36.703 15.1256 36.7022 15Z" fill="#FCD08A"/>
<path d="M40.5947 15C40.5947 14.874 40.5693 14.7493 40.52 14.6333C40.4707 14.5173 40.3985 14.4125 40.3078 14.325L38.0916 12.1875L40.3078 10.05C40.3986 9.96255 40.4707 9.8577 40.52 9.74172C40.5693 9.62574 40.5947 9.50102 40.5947 9.375C40.5947 9.24898 40.5693 9.12426 40.52 9.00828C40.4707 8.8923 40.3986 8.78745 40.3078 8.7L38.0916 6.5625L40.3078 4.425C40.4424 4.2953 40.5351 4.12835 40.5741 3.94557C40.6131 3.76278 40.5965 3.57252 40.5266 3.39921C40.4567 3.22589 40.3365 3.07743 40.1816 2.97289C40.0267 2.86835 39.8441 2.8125 39.6572 2.8125H35.7647C35.522 2.81249 35.2888 2.90659 35.1141 3.075L32.1966 5.8875C32.1058 5.97495 32.0337 6.0798 31.9844 6.19578C31.9351 6.31176 31.9097 6.43648 31.9097 6.5625C31.9097 6.68852 31.9351 6.81324 31.9844 6.92922C32.0337 7.0452 32.1058 7.15005 32.1966 7.2375L34.4184 9.375L32.2022 11.5125C32.1115 11.6 32.0393 11.7048 31.99 11.8208C31.9407 11.9368 31.9153 12.0615 31.9153 12.1875C31.9153 12.3135 31.9407 12.4382 31.99 12.5542C32.0393 12.6702 32.1115 12.775 32.2022 12.8625L34.4184 15L32.2022 17.1375C32.1115 17.225 32.0393 17.3298 31.99 17.4458C31.9407 17.5618 31.9153 17.6865 31.9153 17.8125C31.9153 17.9385 31.9407 18.0632 31.99 18.1792C32.0393 18.2952 32.1115 18.4 32.2022 18.4875L34.4184 20.625L32.2022 22.7625C32.1115 22.85 32.0393 22.9548 31.99 23.0708C31.9407 23.1868 31.9153 23.3115 31.9153 23.4375C31.9153 23.5635 31.9407 23.6882 31.99 23.8042C32.0393 23.9202 32.1115 24.025 32.2022 24.1125L34.4184 26.25L32.2022 28.3875C32.1115 28.475 32.0393 28.5798 31.99 28.6958C31.9407 28.8118 31.9153 28.9365 31.9153 29.0625C31.9153 29.1885 31.9407 29.3132 31.99 29.4292C32.0393 29.5452 32.1115 29.65 32.2022 29.7375L35.1197 32.55C35.293 32.7171 35.524 32.8111 35.7647 32.8125H39.6534C39.8403 32.8125 40.023 32.7566 40.1779 32.6521C40.3328 32.5476 40.4529 32.3991 40.5229 32.2258C40.5928 32.0525 40.6093 31.8622 40.5703 31.6794C40.5314 31.4967 40.4386 31.3297 40.3041 31.2L38.0916 29.0625L40.3078 26.925C40.3986 26.8375 40.4707 26.7327 40.52 26.6167C40.5693 26.5007 40.5947 26.376 40.5947 26.25C40.5947 26.124 40.5693 25.9993 40.52 25.8833C40.4707 25.7673 40.3986 25.6625 40.3078 25.575L38.0916 23.4375L40.3078 21.3C40.3986 21.2125 40.4707 21.1077 40.52 20.9917C40.5693 20.8757 40.5947 20.751 40.5947 20.625C40.5947 20.499 40.5693 20.3743 40.52 20.2583C40.4707 20.1423 40.3986 20.0375 40.3078 19.95L38.0916 17.8125L40.3078 15.675C40.3985 15.5875 40.4707 15.4827 40.52 15.3667C40.5693 15.2507 40.5947 15.126 40.5947 15Z" fill="#EAC180"/>
<path d="M44.4834 15C44.4834 14.874 44.458 14.7493 44.4087 14.6333C44.3594 14.5173 44.2872 14.4125 44.1965 14.325L41.9793 12.1875L44.1965 10.05C44.2872 9.96255 44.3594 9.8577 44.4087 9.74173C44.458 9.62575 44.4834 9.50102 44.4834 9.37501C44.4834 9.24899 44.458 9.12426 44.4087 9.00829C44.3594 8.89231 44.2872 8.78746 44.1965 8.70001L41.9793 6.56251L44.1965 4.42501C44.3311 4.29531 44.4238 4.12835 44.4628 3.94557C44.5018 3.76279 44.4852 3.57253 44.4153 3.39921C44.3454 3.2259 44.2252 3.07744 44.0703 2.9729C43.9154 2.86836 43.7328 2.8125 43.5459 2.81251H39.6571C39.4126 2.81163 39.1773 2.90575 39.0009 3.07501L36.0852 5.88751C35.9945 5.97496 35.9223 6.07981 35.873 6.19579C35.8237 6.31176 35.7983 6.43649 35.7983 6.56251C35.7983 6.68852 35.8237 6.81325 35.873 6.92923C35.9223 7.0452 35.9945 7.15005 36.0852 7.23751L38.3062 9.37501L36.0899 11.5125C35.9992 11.6 35.927 11.7048 35.8777 11.8208C35.8284 11.9368 35.803 12.0615 35.803 12.1875C35.803 12.3135 35.8284 12.4382 35.8777 12.5542C35.927 12.6702 35.9992 12.7751 36.0899 12.8625L38.3062 15L36.0899 17.1375C35.9992 17.225 35.927 17.3298 35.8777 17.4458C35.8284 17.5618 35.803 17.6865 35.803 17.8125C35.803 17.9385 35.8284 18.0632 35.8777 18.1792C35.927 18.2952 35.9992 18.4001 36.0899 18.4875L38.3062 20.625L36.0899 22.7625C35.9992 22.85 35.927 22.9548 35.8777 23.0708C35.8284 23.1868 35.803 23.3115 35.803 23.4375C35.803 23.5635 35.8284 23.6882 35.8777 23.8042C35.927 23.9202 35.9992 24.0251 36.0899 24.1125L38.3062 26.25L36.0899 28.3875C35.9992 28.475 35.927 28.5798 35.8777 28.6958C35.8284 28.8118 35.803 28.9365 35.803 29.0625C35.803 29.1885 35.8284 29.3132 35.8777 29.4292C35.927 29.5452 35.9992 29.6501 36.0899 29.7375L39.0056 32.55C39.182 32.7193 39.4173 32.8134 39.6618 32.8125H43.5459C43.7328 32.8125 43.9154 32.7567 44.0703 32.6521C44.2252 32.5476 44.3454 32.3991 44.4153 32.2258C44.4852 32.0525 44.5018 31.8622 44.4628 31.6794C44.4238 31.4967 44.3311 31.3297 44.1965 31.2L41.9793 29.0625L44.1965 26.925C44.2872 26.8376 44.3594 26.7327 44.4087 26.6167C44.458 26.5007 44.4834 26.376 44.4834 26.25C44.4834 26.124 44.458 25.9993 44.4087 25.8833C44.3594 25.7673 44.2872 25.6625 44.1965 25.575L41.9793 23.4375L44.1965 21.3C44.2872 21.2126 44.3594 21.1077 44.4087 20.9917C44.458 20.8757 44.4834 20.751 44.4834 20.625C44.4834 20.499 44.458 20.3743 44.4087 20.2583C44.3594 20.1423 44.2872 20.0375 44.1965 19.95L41.9793 17.8125L44.1965 15.675C44.2872 15.5876 44.3594 15.4827 44.4087 15.3667C44.458 15.2507 44.4834 15.126 44.4834 15Z" fill="#FCD08A"/>
<path d="M60.1321 30.2813C60.0445 30.1919 59.9399 30.121 59.8245 30.0727C59.709 30.0243 59.5851 29.9996 59.46 30H1.38183C1.25615 29.9999 1.13174 30.0251 1.01599 30.0741C0.900251 30.1231 0.795538 30.1949 0.708079 30.2851C0.62062 30.3754 0.552202 30.4823 0.506892 30.5995C0.461583 30.7167 0.440306 30.8419 0.444328 30.9675C0.69067 38.7534 3.95676 46.138 9.55139 51.5584C15.146 56.9788 22.6302 60.0097 30.42 60.0097C38.2097 60.0097 45.6939 56.9788 51.2885 51.5584C56.8831 46.138 60.1492 38.7534 60.3956 30.9675C60.4002 30.8413 60.3792 30.7154 60.3339 30.5975C60.2887 30.4796 60.22 30.372 60.1321 30.2813Z" fill="#C73B40"/>
<path d="M60.1321 30.2813C60.0445 30.1919 59.9399 30.121 59.8245 30.0727C59.7091 30.0243 59.5851 29.9996 59.46 30H57.585C57.7106 29.9999 57.8351 30.0251 57.9508 30.0741C58.0665 30.1231 58.1713 30.1949 58.2587 30.2851C58.3462 30.3754 58.4146 30.4823 58.4599 30.5995C58.5052 30.7167 58.5265 30.8419 58.5225 30.9675C58.3112 38.5997 55.1831 45.8608 49.7816 51.2569C44.38 56.6531 37.1158 59.7739 29.4834 59.9775C29.7956 59.9869 30.1068 60 30.4209 60C38.2191 60.0338 45.7211 57.0153 51.3228 51.5899C56.9244 46.1645 60.1811 38.7628 60.3965 30.9675C60.401 30.8412 60.3799 30.7153 60.3344 30.5974C60.289 30.4794 60.2202 30.3719 60.1321 30.2813Z" fill="#D26266"/>
</g>
<defs>
<clipPath id="clip0_19_16270">
<rect width="60" height="60" fill="white" transform="translate(0.420898)"/>
</clipPath>
</defs>
</svg>
