<svg width="60" height="60" viewBox="0 0 60 60" fill="none" xmlns="http://www.w3.org/2000/svg">
<path d="M7.5 50H52.5C52.9399 50.0001 53.372 49.8842 53.7528 49.6639C54.1335 49.4436 54.4494 49.1267 54.6685 48.7453C54.8876 48.3639 55.0022 47.9314 55.0007 47.4915C54.9992 47.0516 54.8817 46.6199 54.66 46.24L37.16 16.24C36.2625 14.7025 33.7375 14.7075 32.8375 16.24L24.665 30.25L22.115 26.17C21.8905 25.8118 21.5786 25.5164 21.2086 25.3118C20.8387 25.1071 20.4228 24.9998 20 25C19.5764 25.0004 19.1574 25.1085 18.787 25.314C18.4166 25.5195 18.1045 25.8158 17.88 26.175L5.38 46.175C5.14348 46.5534 5.01257 46.9883 5.00085 47.4344C4.98914 47.8805 5.09705 48.3216 5.31339 48.7119C5.52972 49.1022 5.84659 49.4275 6.2311 49.654C6.61561 49.8805 7.05374 50 7.5 50ZM35 22.4625L48.1475 45H33.8875L27.6725 35.0325L35 22.4625ZM20.0025 32.2125L27.9925 45H12.0125L20.0025 32.2125ZM15 20C19.135 20 22.5 16.635 22.5 12.5C22.5 8.365 19.135 5 15 5C10.865 5 7.5 8.365 7.5 12.5C7.5 16.635 10.865 20 15 20ZM15 10C15.663 10 16.2989 10.2634 16.7678 10.7322C17.2366 11.2011 17.5 11.837 17.5 12.5C17.5 13.163 17.2366 13.7989 16.7678 14.2678C16.2989 14.7366 15.663 15 15 15C14.337 15 13.7011 14.7366 13.2322 14.2678C12.7634 13.7989 12.5 13.163 12.5 12.5C12.5 11.837 12.7634 11.2011 13.2322 10.7322C13.7011 10.2634 14.337 10 15 10Z" fill="black"/>
</svg>
