<svg width="512" height="513" viewBox="0 0 512 513" fill="none" xmlns="http://www.w3.org/2000/svg">
<g clip-path="url(#clip0_16_6115)">
<path d="M228.303 505.148H419.43C450.387 505.148 475.483 480.052 475.483 449.095C475.483 418.138 450.387 393.042 419.43 393.042H228.303" fill="#5A5A28"/>
<path d="M227.248 505.15C258.206 505.15 283.302 480.054 283.302 449.096C283.302 418.138 258.206 393.042 227.248 393.042C196.291 393.042 171.194 418.138 171.194 449.096C171.194 480.054 196.291 505.15 227.248 505.15Z" fill="#7B7B53"/>
<path d="M68.1535 505.148H131.502C162.459 505.148 187.555 480.052 187.555 449.095C187.555 418.138 162.459 393.042 131.502 393.042H68.1535C68.1535 393.042 123.154 394.037 123.154 449.095C123.154 500.468 68.1535 505.148 68.1535 505.148Z" fill="#5A5A28"/>
<path d="M427.438 88.759L424.784 133.858C435.87 139.381 444.533 149.04 448.716 160.823L165.933 160.829C170.113 149.042 178.778 139.381 189.867 133.858L187.214 88.759H427.438Z" fill="white"/>
<path d="M195.222 88.759H187.212L189.864 133.858C174.067 141.727 163.189 157.995 163.189 176.842" fill="white"/>
<path d="M165.932 160.828C164.157 165.834 163.19 171.223 163.19 176.84C163.19 197.687 176.492 215.382 195.052 222.031L203.227 393.041H411.422L419.597 222.031C438.157 215.382 451.46 197.687 451.46 176.84C451.46 171.219 450.492 165.828 448.714 160.82" fill="#FA9C1C"/>
<path d="M165.932 160.828C164.157 165.834 163.19 171.223 163.19 176.84C163.19 197.687 176.492 215.382 195.052 222.031H419.597C438.157 215.382 451.46 197.687 451.46 176.84C451.46 171.219 450.492 165.828 448.714 160.82L165.932 160.828Z" fill="#FBB049"/>
<path d="M235.256 153.054H219.242V168.59H235.256V153.054Z" fill="#1D1D1B"/>
<path d="M347.364 16.6911C338.032 16.6911 329.193 18.7321 321.197 22.3191C313.861 14.0211 303.257 8.68408 291.311 8.68408C273.261 8.68408 258.18 20.7071 253.183 37.1231C247.769 34.3911 241.737 32.7071 235.258 32.7071C213.146 32.7071 195.221 50.6321 195.221 72.7441C195.221 94.8561 213.146 112.781 235.258 112.781C251.647 112.781 265.588 102.87 271.756 88.7571L411.423 88.7581V80.7511C411.423 45.3731 382.742 16.6911 347.364 16.6911Z" fill="white"/>
<path d="M67.1015 505.15C98.0592 505.15 123.155 480.054 123.155 449.096C123.155 418.138 98.0592 393.042 67.1015 393.042C36.1437 393.042 11.0475 418.138 11.0475 449.096C11.0475 480.054 36.1437 505.15 67.1015 505.15Z" fill="#7B7B53"/>
<path d="M59.0925 441.329H43.0785V456.865H59.0925V441.329Z" fill="white"/>
<path d="M91.1245 441.329H75.1105V456.865H91.1245V441.329Z" fill="white"/>
<path d="M75.1125 417.3H59.0985V432.836H75.1125V417.3Z" fill="white"/>
<path d="M75.1125 465.347H59.0985V480.883H75.1125V465.347Z" fill="white"/>
<path d="M219.244 441.329H203.23V456.865H219.244V441.329Z" fill="white"/>
<path d="M251.269 441.329H235.255V456.865H251.269V441.329Z" fill="white"/>
<path d="M235.256 417.3H219.242V432.836H235.256V417.3Z" fill="white"/>
<path d="M235.256 465.347H219.242V480.883H235.256V465.347Z" fill="white"/>
<path d="M482.779 441.469C479.002 409.908 452.115 385.349 419.57 385.278L427.123 227.319C446.523 218.201 459.228 198.534 459.228 176.841C459.228 157.313 449.235 139.593 432.826 129.451L435.676 80.99H419.189V80.751C419.189 41.146 386.967 8.92302 347.361 8.92302C339.03 8.92302 330.878 10.355 323.06 13.188C314.315 5.33202 303.014 0.916016 291.31 0.916016C273.082 0.916016 256.921 11.125 248.891 27.026C244.422 25.639 239.86 24.939 235.258 24.939C208.898 24.939 187.453 46.385 187.453 72.744C187.453 75.557 187.711 78.309 188.179 80.99H178.974L181.824 129.451C165.415 139.593 155.421 157.312 155.421 176.841C155.421 198.532 168.12 218.196 187.516 227.314L195.155 394.572C189.447 398.042 184.278 402.401 179.87 407.532C168.157 393.92 150.824 385.275 131.499 385.275H68.1535C32.9625 385.275 4.33246 413.905 4.33246 449.095C4.33246 484.285 32.9625 512.916 68.1535 512.916H131.501C150.826 512.916 168.158 504.271 179.871 490.659C191.867 504.622 209.491 512.916 228.303 512.916H419.43C451.939 512.916 478.831 488.476 482.743 457.008L507.359 457.496L507.667 441.963L482.779 441.469ZM68.1535 497.38C41.5295 497.38 19.8685 475.72 19.8685 449.095C19.8685 422.472 41.5285 400.811 68.1535 400.811C94.7785 400.811 116.438 422.471 116.438 449.095C116.437 475.72 94.7765 497.38 68.1535 497.38ZM131.501 497.38H109.814C123.369 485.668 131.972 468.372 131.972 449.095C131.972 429.818 123.369 412.523 109.814 400.811H131.5C158.124 400.811 179.785 422.471 179.785 449.095C179.786 475.72 158.126 497.38 131.501 497.38ZM235.257 40.475C240.117 40.475 244.969 41.681 249.682 44.059L257.924 48.217L260.613 39.386C264.788 25.668 277.125 16.452 291.31 16.452C300.552 16.452 309.099 20.363 315.375 27.464L319.16 31.747L324.374 29.407C331.692 26.125 339.427 24.46 347.362 24.46C378.402 24.46 403.654 49.712 403.654 80.752V80.991L266.673 80.99L264.638 85.647C259.496 97.412 247.963 105.014 235.257 105.014C217.463 105.014 202.988 90.538 202.988 72.745C202.988 54.951 217.464 40.475 235.257 40.475ZM170.958 176.841C170.958 174.028 171.252 171.27 171.807 168.594H203.228V153.058H178.734C182.465 147.986 187.411 143.758 193.328 140.811L197.92 138.524L195.622 99.447C204.221 112.17 218.779 120.551 235.257 120.551C252.396 120.551 268.086 111.273 276.53 96.527H419.2L416.729 138.524L421.322 140.811C427.238 143.759 432.185 147.987 435.915 153.058H251.272V168.594H442.842C443.397 171.27 443.69 174.028 443.69 176.841C443.69 193.773 432.955 208.994 416.976 214.719L412.084 216.47L404.016 385.274H228.303C222.156 385.274 216.139 386.168 210.401 387.846L202.575 216.473L197.673 214.717C181.694 208.995 170.958 193.773 170.958 176.841ZM228.303 497.38C212.541 497.38 197.898 489.668 188.901 476.971C193.011 468.543 195.323 459.085 195.323 449.095C195.323 439.105 193.011 429.647 188.901 421.219C197.898 408.522 212.539 400.811 228.303 400.811C254.927 400.811 276.588 422.471 276.588 449.095C276.587 475.72 254.927 497.38 228.303 497.38ZM419.43 497.38H269.964C283.52 485.668 292.123 468.372 292.123 449.095C292.123 429.818 283.519 412.523 269.965 400.811H419.43C446.054 400.811 467.715 422.471 467.715 449.095C467.714 475.72 446.054 497.38 419.43 497.38Z" fill="#1D1D1B"/>
</g>
<defs>
<clipPath id="clip0_16_6115">
<rect width="511.999" height="511.999" fill="white" transform="translate(0.000488281 0.916016)"/>
</clipPath>
</defs>
</svg>
