<svg width="60" height="60" viewBox="0 0 60 60" fill="none" xmlns="http://www.w3.org/2000/svg">
<g clip-path="url(#clip0_19_15693)">
<path d="M38.1672 29.2976C38.5543 28.8746 38.6095 28.295 38.289 28.0018C37.9697 27.7094 37.3968 27.8149 37.0098 28.2379L36.344 28.9656C36.8182 29.2849 37.2614 29.581 37.6629 29.848L38.1672 29.2976Z" fill="#010002"/>
<path d="M40.1027 30.2653C40.4898 29.8424 40.545 29.2627 40.2245 28.9695C39.9052 28.6772 39.3323 28.7827 38.9453 29.2056L38.0957 30.1337C38.7024 30.5333 39.1698 30.8352 39.4351 30.9939L40.1027 30.2653Z" fill="#010002"/>
<path d="M42.0381 31.2331C42.4252 30.8102 42.4804 30.2305 42.1599 29.9373C41.8406 29.645 41.2677 29.7505 40.8807 30.1734L40.0137 31.1208C40.4627 31.1644 41.1469 31.2196 41.9936 31.2804L42.0381 31.2331Z" fill="#010002"/>
<path d="M31.4463 25.6371C32.8496 26.5981 34.4144 27.6645 35.8011 28.5993L36.7041 27.6964C36.7041 27.6964 34.79 26.3938 33.0974 25.2354C32.6008 25.3062 32.0541 25.4357 31.4463 25.6371Z" fill="#010002"/>
<path d="M16.0332 41.5896C16.4126 40.7902 17.0842 39.0087 16.9157 37.6006C16.7309 37.3771 16.0555 36.663 13.9177 35.0138C14.2236 35.7203 14.3948 36.4993 14.3948 37.3179C14.3948 40.5249 11.7955 43.1242 8.58846 43.1242C5.38142 43.1242 2.78216 40.5249 2.78216 37.3179C2.78216 34.1109 5.38142 31.5116 8.58846 31.5116C8.8468 31.5116 9.09945 31.5338 9.34818 31.5668C8.1908 30.6435 7.23857 29.7939 6.50784 28.9937C2.77255 29.9245 0 33.2933 0 37.3181C0 42.0609 3.84471 45.9067 8.58864 45.9067C11.7754 45.9065 14.5508 44.1666 16.0332 41.5896Z" fill="#010002"/>
<path d="M9.09865 33.4985C8.93033 33.4763 8.7638 33.4473 8.58961 33.4473C6.45473 33.4473 4.71875 35.1834 4.71875 37.3181C4.71875 39.453 6.45491 41.189 8.58961 41.189C10.7243 41.189 12.4605 39.4528 12.4605 37.3181C12.4605 36.8004 12.355 36.3088 12.1692 35.8569L10.1196 38.5036C9.75091 38.9806 9.19241 39.2536 8.58766 39.2536C8.15602 39.2536 7.74662 39.1132 7.40412 38.849C6.56024 38.1948 6.40545 36.9774 7.0586 36.1335L9.09865 33.4985Z" fill="#010002"/>
<path d="M50.9277 27.6411C47.9075 27.6411 45.2394 29.1227 43.5904 31.3929C45.0081 31.4887 46.6213 31.5913 48.1697 31.6862C48.9883 31.2362 49.9281 30.9787 50.9277 30.9787C54.0942 30.9787 56.6614 33.5462 56.6614 36.7125C56.6614 39.8787 54.094 42.4462 50.9277 42.4462C49.1693 42.4462 47.5988 41.6526 46.5467 40.4072C45.2141 40.0124 43.6358 39.5816 42.2346 39.2971C43.3484 43.047 46.8168 45.7847 50.9277 45.7847C55.9385 45.7847 60.0001 41.7231 60.0001 36.7123C60.0001 31.7015 55.9376 27.6411 50.9277 27.6411Z" fill="#010002"/>
<path d="M8.58667 19.8557C9.83995 18.8783 11.5411 17.8941 13.9295 16.934L15.5447 14.0928L13.314 15.1012C10.6411 16.723 9.28822 18.4718 8.58667 19.8557Z" fill="#010002"/>
<path d="M53.7118 18.0237C53.7109 18.0237 53.7098 18.0237 53.7098 18.0237C53.0691 17.9919 52.4644 17.9762 51.8943 17.9762C48.904 17.9762 46.865 18.3904 45.4831 18.9082C44.2435 20.1914 41.0258 23.3705 39.4909 23.4459C39.483 23.4459 39.3814 23.4488 39.3727 23.4488C37.5515 23.4488 31.4566 21.4117 31.1974 21.3245C31.0077 21.2607 30.8761 21.0865 30.8684 20.8872C30.8597 20.6869 30.9748 20.5031 31.1588 20.4227L33.5684 19.3727C32.9085 18.705 32.5416 18.6285 32.5416 18.6285C29.3819 17.0046 24.7901 16.782 22.5072 16.782C21.643 16.782 21.1098 16.8139 21.1098 16.8139C21.1261 16.4973 20.7488 16.3833 20.1924 16.3833C18.7292 16.3833 16.0292 17.1768 16.0292 17.1768C14.9434 17.5522 13.997 17.9326 13.1463 18.3139C10.5441 19.4791 8.95504 20.654 7.90708 21.7475C7.03616 22.6561 6.52801 23.5087 6.10901 24.2538C5.39678 25.5206 5.63573 26.7796 7.64678 28.7837C8.40259 29.5376 9.41283 30.3998 10.7184 31.4072C10.8453 31.5049 10.97 31.6017 11.1026 31.7024C11.1259 31.7198 11.1461 31.7362 11.1684 31.7536L10.9604 32.0226L10.8723 32.1358L10.5752 32.518L10.3419 32.8199L9.71299 33.6328L7.69838 36.2353C7.23578 36.8333 7.34521 37.6917 7.94231 38.1543C8.19193 38.3468 8.48622 38.4408 8.77943 38.4408C9.18776 38.4408 9.59236 38.2588 9.86226 37.9104L11.881 35.3044L12.5051 34.4982L12.7761 34.1488L13.0721 33.7655L13.1245 33.6977L13.3684 33.3832C13.3926 33.4006 13.412 33.4161 13.4351 33.4335C13.5716 33.5351 13.6935 33.628 13.8223 33.7248C15.5787 35.0496 16.5783 35.9031 17.1337 36.4324C17.8179 37.0856 17.8451 37.2589 17.8451 37.2589C18.2486 39.4565 16.7969 42.2387 16.7969 42.2387C16.7969 42.2387 32.24 42.2387 33.974 42.2387C35.7081 42.2387 36.3934 41.271 36.3934 41.271C36.3934 41.271 37.5624 39.8193 38.5708 38.3678C38.743 38.1191 39.1873 38.0156 39.8036 38.0156C40.4016 38.0156 41.1653 38.1152 41.9994 38.27C43.1906 38.4917 44.5251 38.8283 45.7551 39.1738C46.2419 39.3103 46.7065 39.4457 47.1429 39.5773C48.6796 40.0389 49.808 40.4251 49.808 40.4251L49.8108 40.4068C50.167 40.5152 50.5377 40.5897 50.9285 40.5897C53.0691 40.5897 54.8042 38.8546 54.8042 36.7141C54.8042 34.6655 53.2104 33.0058 51.1976 32.8654L51.2024 32.8384C51.2024 32.8384 50.0343 32.7706 48.4309 32.6729C47.9702 32.6448 47.4747 32.6139 46.9589 32.582C45.6631 32.5007 44.2522 32.4098 42.9913 32.3226C42.3255 32.2762 41.7042 32.2317 41.1642 32.19C40.12 32.1087 39.3827 32.0392 39.2549 31.9965C39.2501 31.9945 39.2336 31.9849 39.2279 31.9819C39.1581 31.9529 38.9977 31.86 38.7731 31.7205C38.4479 31.5193 37.9931 31.2241 37.4367 30.8572C37.3003 30.7672 37.1512 30.6676 37.0051 30.5708C36.5929 30.297 36.1516 30.0018 35.6862 29.6883C35.4946 29.5596 35.302 29.4299 35.1056 29.2974C32.4076 27.4762 29.3979 25.4043 29.3979 25.4043C30.3957 24.96 31.2463 24.6611 31.9827 24.4714C32.7065 24.2857 33.3202 24.2053 33.8486 24.2053C35.6022 24.2053 36.4295 25.0666 37.3508 25.7062C37.8444 26.0487 38.3621 26.1629 38.8324 26.1629C39.773 26.1629 40.5258 25.7062 40.5258 25.7062C56.3644 18.0837 53.7942 18.0237 53.7118 18.0237ZM25.9177 32.7089L29.3 29.6983C29.7007 29.3431 30.3113 29.3789 30.6665 29.7776C31.0216 30.1772 30.9867 30.7889 30.5871 31.144L27.59 33.812L25.9177 32.7089ZM26.3967 27.7628C26.7963 27.4077 27.408 27.4434 27.7631 27.8422C28.1183 28.2418 28.0834 28.8535 27.6838 29.2086L24.6742 31.8883L23.002 30.785L26.3967 27.7628ZM33.4903 33.0797L30.5047 35.7371L28.8325 34.6338L32.2021 31.6339C32.6028 31.2787 33.2123 31.3145 33.5685 31.7132C33.9247 32.1128 33.8899 32.7243 33.4903 33.0797Z" fill="#010002"/>
<path d="M39.3719 22.9658L39.3728 22.961L39.4415 22.4801C39.7425 22.4655 40.2254 22.2043 40.802 21.796C41.2675 21.4659 41.794 21.0393 42.3348 20.5679C42.3427 20.5612 42.3503 20.5544 42.3571 20.5486C42.4654 20.4546 42.5729 20.3608 42.6812 20.2641C42.6425 20.2737 42.596 20.2835 42.5389 20.2911C42.3774 20.3133 42.1276 20.3269 41.7134 20.3269C41.7085 20.3269 41.7055 20.3269 41.7007 20.3269C40.1058 20.3269 36.9173 20.1381 35.3573 20.0385C35.095 20.0221 34.884 20.0084 34.7292 19.9979C34.6732 19.994 34.6189 19.9901 34.5792 19.9883L34.228 20.1411L32.7107 20.803C33.4395 21.0343 34.3143 21.3024 35.1939 21.5559C35.4224 21.6218 35.6468 21.6846 35.8733 21.7476C36.5826 21.944 37.2639 22.1192 37.8599 22.2507C38.3158 22.3514 38.7077 22.421 39.0212 22.4539C39.1451 22.4674 39.2767 22.484 39.3707 22.484V22.963V22.9658H39.3719Z" fill="#010002"/>
</g>
<defs>
<clipPath id="clip0_19_15693">
<rect width="60" height="60" fill="white"/>
</clipPath>
</defs>
</svg>
