<svg width="60" height="60" viewBox="0 0 60 60" fill="none" xmlns="http://www.w3.org/2000/svg">
<g clip-path="url(#clip0_16_14334)">
<path d="M1 59.0001H28V1H1V59.0001Z" fill="white"/>
<path d="M32 59.0001H59V1H32V59.0001Z" fill="#CCCCCC"/>
<path d="M4 59.0001H56.0001V1H4V59.0001Z" fill="#E2E3E5"/>
<path d="M42 14C42 17.3 44.7 20 48 20C51.3 20 54 17.3 54 14C54 10.7 51.3 8 48 8C44.7 8 42 10.7 42 14Z" fill="#E0E0E0"/>
<path d="M42 14C42 17.3 44 20 46.5 20C49 20 51 17.3 51 14C51 10.7 49 8 46.5 8C44 8 42 10.7 42 14Z" fill="#F0F0F0"/>
<path d="M24 29C24 32.3 26.7 35 30 35C33.3 35 36 32.3 36 29C36 25.7 33.3 23 30 23C26.7 23 24 25.7 24 29Z" fill="#E0E0E0"/>
<path d="M24 29C24 32.3 26 35 28.5 35C31 35 33 32.3 33 29C33 25.7 31 23 28.5 23C26 23 24 25.7 24 29Z" fill="#F0F0F0"/>
<path d="M6 46C6 49.3 8.7 52 12 52C15.3 52 18 49.3 18 46C18 42.7 15.3 40 12 40C8.7 40 6 42.7 6 46Z" fill="#E0E0E0"/>
<path d="M6 46C6 49.3 8.00004 52 10.5 52C13 52 15 49.3 15 46C15 42.7 13 40 10.5 40C8.00004 40 6 42.7 6 46Z" fill="#F0F0F0"/>
<path d="M12 53C8.09996 53 5 49.9001 5 46.0001C5 42.1001 8.09996 39 12 39C15.9 39 18.9999 42.1 18.9999 46C18.9999 49.9 15.9 53 12 53ZM12 41C9.2 41 6.99992 43.2 6.99992 46.0001C6.99992 48.8002 9.2 51 12 51C14.7999 51 17 48.8 17 46C17 43.1999 14.7999 41 12 41Z" fill="#B6B6B6"/>
<path d="M12 41C11.4 41 11 40.6 11 40V7.99996C11 7.39996 11.4 7 12 7C12.6 7 12.9999 7.39996 12.9999 7.99996V40C12.9999 40.5999 12.6 41 12 41Z" fill="#B6B6B6"/>
<path d="M48 21C44.1 21 41 17.9001 41 14.0001C41 10.1001 44.1 7 48 7C51.9 7 54.9999 10.1 54.9999 14C54.9999 17.9 51.9 21 48 21ZM48 9.00004C45.2 9.00004 42.9999 11.2 42.9999 14.0001C42.9999 16.8002 45.1999 19.0001 48 19.0001C50.7999 19.0001 53 16.8002 53 14.0001C53 11.2 50.7999 9.00004 48 9.00004Z" fill="#B6B6B6"/>
<path d="M30 36C26.1 36 23 32.9001 23 29.0001C23 25.1001 26.1 22 30 22C33.9 22 36.9999 25.1 36.9999 29C36.9999 32.9 33.9 36 30 36ZM30 24C27.2 24 24.9999 26.2 24.9999 29.0001C24.9999 31.8002 27.1999 34.0001 30 34.0001C32.8 34.0001 35 31.8002 35 29.0001C35 26.2 32.7999 24 30 24Z" fill="#B6B6B6"/>
<path d="M48 53C47.4 53 47 52.6 47 52V20C47 19.4 47.4 19 48 19C48.6 19 48.9999 19.4 48.9999 20V52C48.9999 52.5999 48.6 53 48 53Z" fill="#B6B6B6"/>
<path d="M30 23.9999C29.4 23.9999 29 23.6 29 23V7.99996C29 7.39996 29.4 7 30 7C30.6 7 30.9999 7.39996 30.9999 7.99996V23C30.9999 23.6 30.6 23.9999 30 23.9999Z" fill="#B6B6B6"/>
<path d="M30 53C29.4 53 29 52.6 29 52V35C29 34.4 29.4 34 30 34C30.6 34 30.9999 34.4 30.9999 35V52C30.9999 52.5999 30.6 53 30 53Z" fill="#B6B6B6"/>
<path d="M59 60H0.999961C0.399961 60 0 59.6 0 59V0.999961C0 0.399961 0.399961 0 0.999961 0H58.9999C59.6 0 60 0.399961 60 0.999961V58.9999C60 59.6 59.6 60 59 60ZM2.00004 58H58.0001V2.00004H2.00004V58Z" fill="#B6B6B6"/>
</g>
<defs>
<clipPath id="clip0_16_14334">
<rect width="60" height="60" fill="white"/>
</clipPath>
</defs>
</svg>
