<svg width="61" height="60" viewBox="0 0 61 60" fill="none" xmlns="http://www.w3.org/2000/svg">
<path d="M55.2646 38.9062C56.2021 24.8438 54.7959 17.3438 53.3896 13.125V8.4375H7.45215V13.125C6.0459 17.3438 4.63965 24.8438 5.57715 38.9062C5.86091 43.1298 5.70382 47.3715 5.1084 51.5625H26.2021C28.5459 45 28.0771 39.8438 30.4209 31.4062C32.7646 39.8438 32.2959 45 34.6396 51.5625H55.7334C55.138 47.3715 54.9809 43.1298 55.2646 38.9062Z" fill="#CB525F"/>
<path d="M7.45215 8.4375H53.3896V13.125H7.45215V8.4375Z" fill="#953745"/>
<path d="M44.6381 34.3735L40.9818 31.0172L45.7209 29.5313L44.6381 34.3735ZM23.7787 20.7797L24.3881 24.8063L20.5959 23.3204L23.7787 20.7797ZM17.7646 42.5016L12.7584 41.9532L15.735 37.8938L17.7646 42.5016ZM11.0475 26.4047L15.3881 29.0532L10.9209 31.4907L11.0475 26.4047ZM39.9506 18.9844L36.074 19.036L37.9678 15.6516L39.9506 18.9844ZM41.5912 42.1079L39.074 45.5954L37.3162 41.6719L41.5912 42.1079ZM48.6928 36.811L51.5006 40.0875L47.2584 40.8844L48.6928 36.811ZM35.1084 27.9704L32.2162 26.2032L35.1881 24.5813L35.1084 27.9704ZM14.3287 18.9844L12.2709 17.0485L14.9756 16.2329L14.3287 18.9844ZM22.0162 34.4204L24.7865 35.1657L22.7568 37.1954L22.0162 34.4204ZM49.56 21.6422L46.8084 21.2016L48.5662 19.036L49.56 21.6422Z" fill="#FDD54F"/>
</svg>
