<svg width="60" height="60" viewBox="0 0 60 60" fill="none" xmlns="http://www.w3.org/2000/svg">
<path d="M39.004 1.80005V13.2H50.404L39.004 1.80005Z" fill="white"/>
<path d="M39.004 1.80005V13.2H50.404V57.6001H7.20401V1.80005H39.004L50.404 13.2Z" fill="#EBEBDA"/>
<path d="M39.004 1.80005V13.2H50.404M39.004 1.80005H7.20401V57.6001H50.404V13.2M39.004 1.80005L50.404 13.2" stroke="#777777" stroke-width="1.2"/>
<path d="M27.004 30C24.4554 30.0332 22.0807 30.1474 20.2296 30.3257C18.3784 30.504 17.1487 30.737 16.7213 30.9904C16.294 31.2439 16.6916 31.5043 17.8557 31.7335C19.0198 31.9626 20.8889 32.1483 23.1877 32.2633C25.4865 32.3782 28.0937 32.4163 30.6253 32.3719C33.1569 32.3276 35.4792 32.2031 37.2503 32.0169C39.0214 31.8306 40.1477 31.5924 40.4634 31.3373C40.7791 31.0823 40.2675 30.8238 39.004 30.6" stroke="#4B2B14" stroke-width="1.2"/>
<path d="M27.004 34.8C25.0925 34.8333 23.3115 34.9474 21.9232 35.1257C20.5348 35.304 19.6125 35.537 19.292 35.7905C18.9715 36.0439 19.2697 36.3044 20.1428 36.5335C21.0159 36.7627 22.4177 36.9484 24.1418 37.0633C25.8659 37.1782 27.8212 37.2163 29.7199 37.172C31.6186 37.1276 33.3604 37.0032 34.6887 36.8169C36.017 36.6307 36.8618 36.3925 37.0985 36.1374C37.3353 35.8823 36.9516 35.6239 36.004 35.4" stroke="#4B2B14" stroke-width="1.2"/>
<path d="M27.004 39.6001C25.4748 39.6333 24.05 39.7475 22.9393 39.9258C21.8287 40.1041 21.0908 40.3371 20.8344 40.5905C20.578 40.844 20.8166 41.1044 21.515 41.3336C22.2135 41.5627 23.3349 41.7484 24.7142 41.8634C26.0935 41.9783 27.6578 42.0164 29.1768 41.972C30.6957 41.9277 32.0891 41.8032 33.1518 41.617C34.2144 41.4307 34.8902 41.1925 35.0796 40.9374C35.2691 40.6824 34.9621 40.4239 34.204 40.2001" stroke="#4B2B14" stroke-width="1.2"/>
<path d="M27.004 44.4001C23.8182 44.4334 20.8499 44.5475 18.536 44.7258C16.222 44.9041 14.6848 45.1371 14.1507 45.3906C13.6165 45.644 14.1135 45.9045 15.5687 46.1336C17.0238 46.3627 19.3601 46.5485 22.2336 46.6634C25.1072 46.7783 28.3661 46.8164 31.5306 46.7721C34.6951 46.7277 37.598 46.6033 39.8118 46.417C42.0257 46.2308 43.4336 45.9926 43.8283 45.7375C44.2229 45.4824 43.5834 45.224 42.004 45.0001" stroke="#4B2B14" stroke-width="1.2"/>
<path d="M27.004 27.0001C27.7131 25.929 28.0443 24.6002 27.9335 23.2704C27.8227 21.9407 27.2778 20.7043 26.404 19.8001C25.6948 18.729 25.3637 17.4002 25.4745 16.0704C25.5853 14.7407 26.1302 13.5043 27.004 12.6001" stroke="#4B2B14" stroke-width="1.2"/>
<path d="M33.004 28.2001C33.4917 27.6545 33.8557 26.9814 34.0646 26.2388C34.2734 25.4963 34.3208 24.7068 34.2026 23.9387C34.0845 23.1705 33.8043 22.4469 33.3863 21.8303C32.9684 21.2137 32.4253 20.7228 31.804 20.4001C31.4036 19.8092 31.116 19.1316 30.959 18.4099C30.802 17.6882 30.7792 16.9378 30.8918 16.2057C31.0044 15.4735 31.2502 14.7754 31.6136 14.155C31.977 13.5346 32.4504 13.0053 33.004 12.6001" stroke="#4B2B14" stroke-width="1.2"/>
</svg>
