<svg width="60" height="60" viewBox="0 0 60 60" fill="none" xmlns="http://www.w3.org/2000/svg">
<g clip-path="url(#clip0_16_5727)">
<path d="M30.0004 0C13.4314 0 0 13.4301 0 30C0 46.568 13.4314 60 30.0004 60C46.5683 60 60 46.568 60 30C60 13.4301 46.5683 0 30.0004 0Z" fill="#EA4949"/>
<path d="M41.6725 12.8276L36.703 11.9321C36.703 11.9321 35.5471 11.8021 34.7383 12.2497C34.7383 12.2497 33.8797 13.1061 30 13.1701C26.1201 13.1061 25.2616 12.2497 25.2616 12.2497C24.4094 11.7586 23.2967 11.9321 23.2967 11.9321L18.3275 12.8276L10.6999 16.6413L13.9356 23.691L17.0561 23.1132C19.0788 22.5356 19.1362 24.1534 19.1362 24.1534C19.1362 24.1534 18.4951 42.0738 18.6164 42.8179C18.7868 43.8621 23.2391 49.5063 24.0307 50.1565C24.9529 50.9076 26.0203 50.8498 26.0203 50.8498H33.9791C33.9791 50.8498 35.0467 50.9076 35.9687 50.1565C36.6738 49.6362 41.2129 43.8621 41.3831 42.8179C41.5042 42.0739 40.863 24.1534 40.863 24.1534C40.863 24.1534 40.921 22.5356 42.9433 23.1132L46.0637 23.691L49.2996 16.6413L41.6725 12.8276Z" fill="#F0F2F2"/>
<path d="M34.7384 12.2497C34.7384 12.2497 33.8798 13.1061 30.0001 13.1701C26.1202 13.1061 25.2617 12.2497 25.2617 12.2497C24.4095 11.7586 23.2969 11.9321 23.2969 11.9321C23.2969 11.9321 25.3633 17.1758 30.0001 17.1758C34.6373 17.1758 36.7031 11.9321 36.7031 11.9321C36.7031 11.9321 35.5472 11.8021 34.7384 12.2497Z" fill="#CBD1D1"/>
<path d="M42.0913 13.0371L41.6725 12.8276C38.4363 18.9526 41.2103 23.2865 41.2103 23.2865L41.6146 23.0481C39.4478 18.671 42.0913 13.0371 42.0913 13.0371Z" fill="#E1E5E5"/>
<path d="M38.6174 13.5861C38.1372 13.1255 37.542 12.5885 36.8042 11.9645C36.5224 11.726 34.7094 12.0185 34.4422 12.4412C34.4422 12.4412 36.3014 13.5046 38.1251 15.3777C38.876 16.1494 39.6213 17.0581 40.2278 18.0859L40.618 16.1355C40.618 16.1355 40.6927 15.5761 38.6174 13.5861Z" fill="#E1E5E5"/>
<path d="M18.3062 12.8276L17.8871 13.0371C17.8871 13.0371 20.5306 18.671 18.3638 23.0481L18.7682 23.2865C18.7682 23.2865 21.5421 18.9528 18.3062 12.8276Z" fill="#E1E5E5"/>
<path d="M23.1741 11.9646C22.4366 12.5886 21.8414 13.1257 21.3611 13.5862C19.2861 15.5762 19.3608 16.1357 19.3608 16.1357L19.7507 18.0861C20.3573 17.0582 21.1025 16.1495 21.8534 15.3779C23.6773 13.5048 25.5362 12.4414 25.5362 12.4414C25.2617 11.9605 23.456 11.726 23.1741 11.9646Z" fill="#E1E5E5"/>
<path d="M36.1251 12.0327C36.1251 12.0327 34.2263 16.3307 30.0024 16.3307C25.7786 16.3307 23.9183 12.0327 23.9183 12.0327L23.1671 13.3331C23.1671 13.3331 25.4296 17.6309 30.0024 17.6309C34.575 17.6309 36.8764 13.3331 36.8764 13.3331L36.1251 12.0327Z" fill="#E1E5E5"/>
<path d="M30.0008 46.2559C26.2006 46.2559 24.1772 47.4759 23.8423 49.979C23.9183 50.0559 23.9815 50.1157 24.031 50.1562C24.3559 50.4209 24.6984 50.5838 25.0063 50.6856L25.6874 50.8494L34.3027 50.847L35.0007 50.6829C35.307 50.581 35.6464 50.4188 35.9689 50.1562C36.0173 50.1206 36.0852 50.0582 36.1668 49.9762C35.8424 47.4432 33.8607 46.2559 30.0008 46.2559Z" fill="#F0F2F2"/>
<path d="M27.3118 46.8993C25.065 43.9501 23.2576 42.5703 21.4511 42.4252C20.1216 42.3185 19.1412 42.3573 18.6018 42.3997C18.6035 42.6187 18.6079 42.7641 18.6166 42.8177C18.6429 42.9783 18.7711 43.2485 18.9709 43.592C19.4943 43.5637 20.309 43.5507 21.354 43.6347C22.7677 43.7482 24.3541 45.0194 26.3465 47.6346C26.4658 47.7914 26.6467 47.8737 26.8297 47.8737C26.9578 47.8737 27.0871 47.8332 27.197 47.7497C27.4633 47.5464 27.5147 47.1657 27.3118 46.8993Z" fill="#E1E5E5"/>
<path d="M38.5057 42.4251C36.6991 42.5702 34.8916 43.9501 32.645 46.8993C32.4418 47.1657 32.4932 47.5464 32.7598 47.7495C32.8696 47.833 32.9989 47.8735 33.1268 47.8735C33.3099 47.8735 33.4908 47.7912 33.61 47.6344C35.6026 45.0191 37.189 43.748 38.6026 43.6344C39.675 43.5485 40.5057 43.564 41.0268 43.5939C41.228 43.2485 41.3571 42.9771 41.3834 42.8175C41.3921 42.7642 41.3967 42.6199 41.3979 42.4027C40.8688 42.3597 39.871 42.3157 38.5057 42.4251Z" fill="#E1E5E5"/>
<path d="M30.0008 46.2559C26.2006 46.2559 24.1772 47.4759 23.8423 49.979C23.9183 50.0559 23.9815 50.1157 24.031 50.1562C24.3559 50.4209 24.6984 50.5838 25.0063 50.6856C25.0256 49.0821 25.6686 47.4692 30.0008 47.4692C34.3274 47.4692 34.9816 49.0032 35.0008 50.6829C35.3071 50.581 35.6465 50.4188 35.969 50.1562C36.0174 50.1206 36.0853 50.0582 36.167 49.9762C35.8424 47.4432 33.8607 46.2559 30.0008 46.2559Z" fill="#E1E5E5"/>
<path d="M29.9867 47.3588C30.2526 47.3588 30.4682 47.1432 30.4682 46.8773C30.4682 46.6113 30.2526 46.3958 29.9867 46.3958C29.7208 46.3958 29.5052 46.6113 29.5052 46.8773C29.5052 47.1432 29.7208 47.3588 29.9867 47.3588Z" fill="#F0F2F2"/>
<path d="M31.3447 47.4105C31.6105 47.4105 31.8261 47.195 31.8261 46.9292C31.8261 46.6633 31.6105 46.4478 31.3447 46.4478C31.0788 46.4478 30.8633 46.6633 30.8633 46.9292C30.8633 47.195 31.0788 47.4105 31.3447 47.4105Z" fill="#F0F2F2"/>
<path d="M28.6275 47.4105C28.8934 47.4105 29.1089 47.195 29.1089 46.9292C29.1089 46.6633 28.8934 46.4478 28.6275 46.4478C28.3617 46.4478 28.1461 46.6633 28.1461 46.9292C28.1461 47.195 28.3617 47.4105 28.6275 47.4105Z" fill="#F0F2F2"/>
<path d="M29.9892 26.946C27.6986 26.946 25.8416 30.8811 25.8416 33.9068C25.8416 36.9323 27.6985 37.9022 29.9892 37.9022C32.2795 37.9022 34.1365 36.9323 34.1365 33.9068C34.1365 30.881 32.2796 26.946 29.9892 26.946Z" fill="#CE7E42"/>
<path d="M28.6173 24.2381C28.2352 23.4661 27.1155 23.241 26.1163 23.7354C25.1171 24.2298 24.6167 25.2565 24.9988 26.0286C25.3808 26.8006 26.5005 27.0257 27.4997 26.5313C28.4989 26.0369 28.9993 25.0102 28.6173 24.2381Z" fill="#D88845"/>
<path d="M28.1454 24.4715C27.863 23.9009 27.0354 23.7346 26.2969 24.1C25.5583 24.4654 25.1885 25.2243 25.4709 25.7949C25.7532 26.3655 26.5808 26.5319 27.3194 26.1664C28.0579 25.801 28.4277 25.0422 28.1454 24.4715Z" fill="#ED9B5F"/>
<path d="M33.8605 23.7375C32.8615 23.243 31.7418 23.4679 31.3597 24.2399C30.9776 25.0119 31.4777 26.0386 32.4768 26.5331C33.4758 27.0276 34.5955 26.8027 34.9776 26.0307C35.3597 25.2587 34.8596 24.232 33.8605 23.7375Z" fill="#D88845"/>
<path d="M33.6585 24.1394C32.9503 23.789 32.1567 23.9485 31.886 24.4957C31.6152 25.0428 31.9698 25.7705 32.678 26.1209C33.3862 26.4713 34.1798 26.3118 34.4505 25.7646C34.7213 25.2175 34.3667 24.4898 33.6585 24.1394Z" fill="#ED9B5F"/>
<path d="M29.9891 31.1315C32.5316 31.1315 34.5927 29.5388 34.5927 27.5742C34.5927 25.6095 32.5316 24.0168 29.9891 24.0168C27.4466 24.0168 25.3856 25.6095 25.3856 27.5742C25.3856 29.5388 27.4466 31.1315 29.9891 31.1315Z" fill="#D88845"/>
<path d="M28.1525 26.2957C27.8731 26.2957 27.6466 26.5024 27.6466 26.7577C27.6466 27.013 27.8731 27.2198 28.1525 27.2198C28.4316 27.2198 28.6582 27.013 28.6582 26.7577C28.6581 26.5024 28.4315 26.2957 28.1525 26.2957Z" fill="#BF6C2E"/>
<path d="M31.7788 27.22C32.0581 27.22 32.2846 27.0131 32.2846 26.7579C32.2846 26.5028 32.0581 26.2959 31.7788 26.2959C31.4994 26.2959 31.273 26.5028 31.273 26.7579C31.273 27.0131 31.4994 27.22 31.7788 27.22Z" fill="#BF6C2E"/>
<path d="M29.9892 24.1287C29.9458 24.1287 29.9109 24.1639 29.9109 24.2071V24.8432C29.9109 24.8865 29.9458 24.9216 29.9892 24.9216C30.0324 24.9216 30.0675 24.8865 30.0675 24.8432V24.2071C30.0676 24.1637 30.0325 24.1287 29.9892 24.1287Z" fill="#BA6E3A"/>
<path d="M29.9892 33.1516C29.9458 33.1516 29.9109 33.1867 29.9109 33.23V34.4071C29.9109 34.4504 29.9458 34.4855 29.9892 34.4855C30.0324 34.4855 30.0675 34.4504 30.0675 34.4071V33.23C30.0676 33.1867 30.0325 33.1516 29.9892 33.1516ZM29.9892 35.0644C29.9458 35.0644 29.9109 35.0995 29.9109 35.1428V36.32C29.9109 36.3632 29.9458 36.3982 29.9892 36.3982C30.0324 36.3982 30.0675 36.3632 30.0675 36.32V35.1428C30.0676 35.0995 30.0325 35.0644 29.9892 35.0644ZM29.9892 31.2389C29.9458 31.2389 29.9109 31.274 29.9109 31.3173V32.4943C29.9109 32.5376 29.9458 32.5728 29.9892 32.5728C30.0324 32.5728 30.0675 32.5376 30.0675 32.4943V31.3173C30.0676 31.274 30.0325 31.2389 29.9892 31.2389ZM29.9892 29.3261C29.9458 29.3261 29.9109 29.3612 29.9109 29.4045V30.5814C29.9109 30.6247 29.9458 30.6599 29.9892 30.6599C30.0324 30.6599 30.0675 30.6247 30.0675 30.5814V29.4045C30.0676 29.3612 30.0325 29.3261 29.9892 29.3261ZM29.9892 25.5005C29.9458 25.5005 29.9109 25.5357 29.9109 25.579V26.756C29.9109 26.7993 29.9458 26.8345 29.9892 26.8345C30.0324 26.8345 30.0675 26.7993 30.0675 26.756V25.579C30.0676 25.5356 30.0325 25.5005 29.9892 25.5005ZM29.9892 27.4133C29.9458 27.4133 29.9109 27.4483 29.9109 27.4916V28.6687C29.9109 28.7119 29.9458 28.747 29.9892 28.747C30.0324 28.747 30.0675 28.7119 30.0675 28.6687V27.4916C30.0676 27.4483 30.0325 27.4133 29.9892 27.4133Z" fill="#BA6E3A"/>
<path d="M29.9892 36.9771C29.9458 36.9771 29.9109 37.0122 29.9109 37.0555V37.6916C29.9109 37.7349 29.9458 37.7698 29.9892 37.7698C30.0324 37.7698 30.0675 37.7348 30.0675 37.6916V37.0555C30.0676 37.0122 30.0325 36.9771 29.9892 36.9771Z" fill="#BA6E3A"/>
<path d="M29.9565 30.9261C31.3623 30.9261 32.5019 30.0453 32.5019 28.9588C32.5019 27.8722 31.3623 26.9915 29.9565 26.9915C28.5507 26.9915 27.411 27.8722 27.411 28.9588C27.411 30.0453 28.5507 30.9261 29.9565 30.9261Z" fill="#ED9B5F"/>
<path d="M29.9892 27.3936C29.4112 27.3936 28.943 27.5927 28.943 28.0393C28.943 28.4857 29.9892 29.0105 29.9892 29.0105C29.9892 29.0105 31.0353 28.4857 31.0353 28.0393C31.0355 27.5927 30.5671 27.3936 29.9892 27.3936Z" fill="#BF6C2E"/>
<path d="M31.3074 29.4242C31.2497 29.3733 31.1615 29.3786 31.1104 29.4363C31.0877 29.4619 31.0035 29.5412 30.9187 29.5664C30.8359 29.5908 30.5309 29.6126 30.3287 29.4618C30.1943 29.3613 30.1259 29.1959 30.1259 28.9699C30.1259 28.8928 30.0634 28.8303 29.9865 28.8303C29.9092 28.8303 29.8469 28.8928 29.8469 28.9699C29.8469 29.367 30.0181 29.5781 30.1619 29.6854C30.3452 29.8223 30.5745 29.8629 30.7552 29.8629C30.8575 29.8629 30.9442 29.8498 30.998 29.8339C31.1736 29.7817 31.3049 29.6374 31.3194 29.6212C31.3704 29.5634 31.3651 29.4753 31.3074 29.4242Z" fill="#BF6C2E"/>
<path d="M29.9925 28.8303C29.9155 28.8303 29.8531 28.8928 29.8531 28.9699C29.8531 29.1959 29.7848 29.3613 29.6503 29.4618C29.4482 29.6126 29.1428 29.5908 29.0603 29.5664C28.9766 29.5415 28.8932 29.4637 28.8682 29.4359C28.817 29.3786 28.729 29.3734 28.6715 29.4242C28.6137 29.4752 28.6085 29.5634 28.6594 29.621C28.6738 29.6374 28.8052 29.7817 28.9809 29.8337C29.0347 29.8497 29.1214 29.8628 29.2237 29.8628C29.4043 29.8628 29.6337 29.8221 29.8169 29.6853C29.9606 29.578 30.1319 29.3669 30.1319 28.9697C30.1322 28.8928 30.0695 28.8303 29.9925 28.8303Z" fill="#BF6C2E"/>
<path d="M26.7069 30.0605C26.5432 30.1153 24.8245 30.7089 24.4108 31.6365C24.2722 31.7965 24.163 31.9911 24.1005 32.2125C23.8893 32.9599 24.2739 33.7231 24.9602 33.9173C25.6463 34.1112 26.3739 33.6627 26.5851 32.9153C26.6083 32.8339 26.623 32.7522 26.6323 32.6709C26.6455 32.6713 26.6544 32.6714 26.6544 32.6714C26.6544 32.6714 26.6196 30.2206 26.7069 30.0605Z" fill="#D88845"/>
<path d="M35.9025 32.2226C35.8413 32.0007 35.7338 31.8054 35.5963 31.6444C35.1892 30.7141 33.4746 30.108 33.3112 30.0522C33.3977 30.2131 33.3455 32.6632 33.3455 32.6632C33.3455 32.6632 33.3542 32.6631 33.3676 32.6631C33.3762 32.7441 33.3903 32.826 33.4129 32.9077C33.619 33.6565 34.3433 34.1103 35.0309 33.9212C35.7184 33.7319 36.1086 32.9716 35.9025 32.2226Z" fill="#D88845"/>
<path d="M29.2711 35.9851C29.0208 34.7848 27.6618 33.5663 26.5213 33.8045C25.3807 34.042 24.8907 35.6466 25.1411 36.8467C25.3914 38.0467 26.2872 38.3881 27.4276 38.1504C28.5681 37.9125 29.5214 37.1853 29.2711 35.9851Z" fill="#D88845"/>
<path d="M28.8012 35.9774C28.605 35.038 27.5417 34.0841 26.6486 34.2706C25.7561 34.4566 25.3726 35.7124 25.5683 36.6518C25.7643 37.5912 26.4656 37.8583 27.3581 37.6722C28.251 37.4858 28.9971 36.9168 28.8012 35.9774Z" fill="#ED9B5F"/>
<path d="M33.4323 33.8045C32.2916 33.5663 30.9328 34.7848 30.6825 35.9851C30.4322 37.1853 31.3854 37.9125 32.5261 38.1504C33.6665 38.3881 34.5623 38.0467 34.8125 36.8467C35.0628 35.6466 34.5727 34.042 33.4323 33.8045Z" fill="#D88845"/>
<path d="M33.3047 34.2706C32.4117 34.0841 31.3484 35.0381 31.1524 35.9774C30.9564 36.9168 31.7025 37.4858 32.5954 37.6722C33.488 37.8583 34.1891 37.5912 34.385 36.6518C34.5808 35.7124 34.1974 34.4565 33.3047 34.2706Z" fill="#ED9B5F"/>
</g>
<defs>
<clipPath id="clip0_16_5727">
<rect width="60" height="60" fill="white"/>
</clipPath>
</defs>
</svg>
