<svg width="61" height="60" viewBox="0 0 61 60" fill="none" xmlns="http://www.w3.org/2000/svg">
<path d="M18.4866 41.9344L24.4528 47.9004C24.8028 48.25 25.2194 48.5258 25.6779 48.7114C26.1364 48.8971 26.6275 48.9888 27.1221 48.9812C28.1349 48.9684 29.1022 48.5588 29.8163 47.8404L39.6998 37.9567L31.0821 29.3389L18.4866 41.9344Z" fill="#00AC47"/>
<path d="M18.4865 41.9344L12.5204 35.9681C12.1708 35.6182 11.895 35.2016 11.7094 34.7431C11.5238 34.2846 11.432 33.7935 11.4396 33.2989C11.4524 32.2861 11.862 31.3187 12.5804 30.6047L22.4641 20.7212L31.082 29.3389L18.4865 41.9344Z" fill="#FBC02D"/>
<path d="M48.8244 27.4153L49.3983 14.9091C49.4243 14.3919 49.3415 13.875 49.1553 13.3917C48.9692 12.9085 48.6838 12.4697 48.3176 12.1035L31.082 29.3391L39.6997 37.957L47.6962 29.9606C48.3762 29.2823 48.7785 28.3747 48.8244 27.4153Z" fill="#4285F4"/>
<path d="M33.0057 11.5967L45.512 11.0227C46.0292 10.9968 46.5461 11.0796 47.0293 11.2657C47.5126 11.4519 47.9514 11.7373 48.3176 12.1035L31.082 29.339L22.4641 20.7213L30.4604 12.7248C31.1387 12.0449 32.0464 11.6425 33.0057 11.5967Z" fill="#EA4435"/>
<path d="M31.082 34.4951C33.9297 34.4951 36.2383 32.1866 36.2383 29.3389C36.2383 26.4911 33.9297 24.1826 31.082 24.1826C28.2343 24.1826 25.9258 26.4911 25.9258 29.3389C25.9258 32.1866 28.2343 34.4951 31.082 34.4951Z" fill="#4285F4"/>
<path d="M41.6885 21.0762C42.9829 21.0762 44.0322 20.0268 44.0322 18.7324C44.0322 17.438 42.9829 16.3887 41.6885 16.3887C40.3941 16.3887 39.3447 17.438 39.3447 18.7324C39.3447 20.0268 40.3941 21.0762 41.6885 21.0762Z" fill="white"/>
<path d="M31.082 37.3076C29.7714 37.3078 28.481 36.9848 27.3252 36.3671C26.1693 35.7494 25.1836 34.8562 24.4554 33.7666C23.7272 32.677 23.279 31.4246 23.1505 30.1204C23.022 28.8161 23.2171 27.5003 23.7186 26.2895C24.2201 25.0787 25.0125 24.0103 26.0256 23.1789C27.0386 22.3475 28.2411 21.7788 29.5265 21.5232C30.8119 21.2675 32.1405 21.3329 33.3946 21.7134C34.6487 22.0939 35.7895 22.7779 36.7161 23.7047L34.7286 25.6922C33.7466 24.7544 32.4409 24.2311 31.083 24.2311C29.7251 24.2311 28.4194 24.7544 27.4373 25.6922C26.5244 26.6035 25.9861 27.8239 25.9287 29.1126C25.8712 30.4013 26.2989 31.6647 27.1272 32.6536C27.9555 33.6425 29.1243 34.2851 30.4031 34.4546C31.6819 34.6241 32.9777 34.3082 34.0351 33.5692C35.0096 32.8863 35.7193 31.8887 36.0451 30.7442H31.082V27.9317H37.96C38.1032 27.9317 38.2451 27.9599 38.3774 28.0147C38.5097 28.0695 38.63 28.1499 38.7312 28.2511C38.8325 28.3524 38.9129 28.4727 38.9677 28.605C39.0225 28.7373 39.0507 28.8791 39.0507 29.0224C39.089 30.88 38.51 32.6979 37.4045 34.1912C36.6613 35.162 35.7042 35.9482 34.6076 36.4888C33.5111 37.0293 32.3045 37.3095 31.082 37.3076Z" fill="white"/>
</svg>
