<svg width="60" height="60" viewBox="0 0 60 60" fill="none" xmlns="http://www.w3.org/2000/svg">
<path d="M8.60413 28.3534V44.7059L35.0942 60L51.3958 50.5883V34.2358L24.9057 18.9417L8.60413 28.3534Z" fill="#3E3D43"/>
<path d="M12.6796 28.2353L35.0943 41.1766L47.3204 34.1176L24.9057 21.1765L12.6796 28.2353Z" fill="#2E2E30"/>
<path d="M8.60413 28.3535V44.706L35.0942 60.0001V43.6477L8.60413 28.3535Z" fill="#2E2E30"/>
<path d="M51.3958 34.2358V50.5883L35.0942 60.0001V43.6476L51.3958 34.2358Z" fill="#1D1D1F"/>
<path d="M12.6796 23.2116V28.239L20.8237 32.9411L25.8356 30.0475V25.02L17.6913 20.3179L12.6796 23.2116Z" fill="#FEC377"/>
<path d="M12.6796 23.2117V28.2391L20.8237 32.9412V27.9137L12.6796 23.2117Z" fill="#FFB657"/>
<path d="M25.8356 25.02V30.0475L20.8237 32.9411V27.9136L25.8356 25.02Z" fill="#FFA834"/>
<path d="M30.0043 33.2717V28.9819C30.005 28.4539 29.6584 27.9258 28.9643 27.5251C27.5765 26.7237 25.3053 26.7237 23.9174 27.5251C23.2232 27.9258 22.876 28.454 22.8757 28.9819V33.2717H22.8759C22.875 33.7998 23.2212 34.3277 23.9146 34.7281C25.3008 35.5285 27.5721 35.5285 28.9615 34.7281C29.6563 34.3278 30.004 33.7998 30.0043 33.2717Z" fill="#898890"/>
<path d="M23.9171 27.5251C22.5293 28.3264 22.5279 29.6369 23.9142 30.4372C25.3004 31.2376 27.5715 31.2376 28.9611 30.4372C30.3507 29.6368 30.3519 28.3264 28.9641 27.5251C27.5763 26.7237 25.3052 26.7237 23.9171 27.5251Z" fill="#ACABB1"/>
<path d="M28.9812 32.6211V37.6486L35.0943 41.1764L40.1062 38.2828V33.2554L33.993 29.7275L28.9812 32.6211Z" fill="#FEC377"/>
<path d="M28.9812 32.6213V37.6488L35.0943 41.1766V36.1491L28.9812 32.6213Z" fill="#FFB657"/>
<path d="M40.1061 33.2554V38.2828L35.0942 41.1764V36.149L40.1061 33.2554Z" fill="#FFA834"/>
<path d="M11.0941 11.3657V11.3652C11.0939 11.2983 11.05 11.2315 10.9623 11.1805C10.7863 11.0784 10.4981 11.0781 10.3216 11.18C10.2335 11.231 10.1892 11.298 10.1892 11.3652V28.4657C10.1892 28.5328 10.2332 28.5997 10.3212 28.6507C10.4974 28.7524 10.7856 28.7525 10.9618 28.6512C11.0502 28.6002 11.0942 28.533 11.0941 28.4657C11.0941 28.4657 11.0941 11.3658 11.0941 11.3657Z" fill="#D8D8DA"/>
<path d="M35.5467 25.3415V25.341H35.5466C35.5464 25.2741 35.5025 25.2073 35.4149 25.1563C35.2389 25.0543 34.9507 25.0539 34.7742 25.1559C34.6861 25.2068 34.6418 25.2739 34.6418 25.341V42.4414C34.6418 42.5085 34.6857 42.5754 34.7737 42.6263C34.95 42.728 35.2382 42.7281 35.4144 42.6268C35.5028 42.5758 35.5468 42.5086 35.5466 42.4413L35.5467 25.3415Z" fill="#D8D8DA"/>
<path d="M49.8107 17.1899V17.1894H49.8106C49.8103 17.1225 49.7665 17.0557 49.6788 17.0047C49.5028 16.9027 49.2147 16.9023 49.0382 17.0043C48.9501 17.0552 48.9058 17.1223 48.9058 17.1894V34.2899C48.9058 34.357 48.9497 34.4239 49.0377 34.4748C49.214 34.5765 49.5021 34.5766 49.6784 34.4753C49.7667 34.4243 49.8108 34.3571 49.8106 34.2898L49.8107 17.1899Z" fill="#C6C5CB"/>
<path d="M8.60413 11.7647L35.0942 27.0588L51.3958 17.6471V15.2941L24.9057 0L8.60413 9.4118V11.7647Z" fill="#CD2A01"/>
<path d="M8.60413 9.4118L35.0942 24.7059L51.3958 15.2941L24.9057 0L8.60413 9.4118Z" fill="#AD2201"/>
<path d="M24.9057 0V2.35289L8.60413 9.4118L24.9057 0Z" fill="#CD2A01"/>
<path d="M8.60413 9.41169L24.9057 2.35278L41.3167 11.8276L35.0942 24.7058L8.60413 9.41169Z" fill="#FF3502"/>
<path d="M13.6219 3.19764V12.3324L31.4612 22.6319L32.5665 22.002V12.8469L14.7627 2.56787L13.6219 3.19764Z" fill="#2E2E30"/>
<path d="M31.4612 22.632L32.5665 22.0021V12.8469L31.4612 13.4769V22.632Z" fill="#1D1D1F"/>
<path d="M13.6219 3.19764L14.7627 2.56787L32.5665 12.8469L31.4612 13.4769L13.6219 3.19764Z" fill="#3E3D43"/>
<path d="M41.3167 11.8276L51.3958 15.294L35.0942 24.7058L41.3167 11.8276Z" fill="#891D00"/>
<path d="M35.0942 24.706V27.0589L51.3958 17.6472V15.2942L35.0942 24.706Z" fill="#791900"/>
<path d="M18.0929 8.4335L18.0908 9.14729L16.3499 8.14217L16.3468 9.22217L17.7947 10.0581L17.7928 10.7187L16.345 9.88275L16.34 11.6176L15.6312 11.2084L15.643 7.01904L18.0929 8.4335ZM20.06 13.074C20.2314 13.1729 20.3826 13.2198 20.5147 13.2151C20.6467 13.2109 20.7586 13.1683 20.8494 13.0865C20.9408 13.0057 21.0098 12.8946 21.0561 12.7536C21.1029 12.6129 21.1269 12.4565 21.1274 12.2835C21.1278 12.1026 21.1032 11.913 21.054 11.7151C21.0048 11.5178 20.9348 11.3277 20.8448 11.1453C20.7543 10.9632 20.6434 10.7959 20.5119 10.6429C20.3804 10.4906 20.2321 10.3664 20.0679 10.2717C19.8966 10.1728 19.744 10.1252 19.6104 10.1283C19.4768 10.132 19.3653 10.1744 19.2757 10.2542C19.1865 10.3352 19.1185 10.4455 19.0718 10.5856C19.025 10.7264 19.001 10.8827 19.0005 11.0558C19.0001 11.2366 19.0235 11.4256 19.0711 11.6226C19.1187 11.8196 19.1875 12.0091 19.278 12.1912C19.368 12.3737 19.4795 12.542 19.6109 12.6969C19.7425 12.8516 19.892 12.9771 20.06 13.074ZM20.08 9.55123C20.344 9.70369 20.5837 9.90443 20.801 10.1539C21.0184 10.4033 21.2031 10.6726 21.3567 10.9624C21.5101 11.2521 21.6295 11.5496 21.7143 11.8542C21.7994 12.1597 21.8412 12.4439 21.8403 12.7076C21.8396 12.9865 21.7946 13.2279 21.7046 13.4297C21.6151 13.6324 21.4912 13.7857 21.3333 13.8892C21.1753 13.9932 20.9863 14.0395 20.767 14.0292C20.5473 14.0187 20.3094 13.9391 20.0526 13.791C19.7853 13.6365 19.5432 13.4371 19.3266 13.1918C19.1092 12.9462 18.9232 12.6788 18.768 12.3907C18.6129 12.1019 18.493 11.8053 18.4078 11.4998C18.3232 11.1947 18.2809 10.9081 18.2817 10.6407C18.2824 10.3618 18.3289 10.1206 18.4202 9.91709C18.512 9.71365 18.6376 9.56014 18.7972 9.45514C18.9568 9.35014 19.1464 9.30279 19.3662 9.31334C19.5854 9.32412 19.8233 9.40299 20.08 9.55123ZM23.9423 15.3156C24.1132 15.4141 24.265 15.4613 24.397 15.4567C24.529 15.4524 24.6403 15.4095 24.7317 15.3281C24.8225 15.2469 24.8917 15.1358 24.9384 14.9952C24.9852 14.8544 25.0086 14.6978 25.0091 14.5246C25.0096 14.3437 24.9855 14.1544 24.9363 13.9564C24.8871 13.7591 24.8171 13.569 24.7271 13.3867C24.6366 13.2046 24.5257 13.0372 24.3937 12.8839C24.2623 12.7316 24.1145 12.6077 23.9503 12.5129C23.779 12.414 23.6264 12.3664 23.4928 12.3695C23.3592 12.3732 23.2473 12.4153 23.1581 12.4954C23.0685 12.5761 23.0005 12.6865 22.9536 12.8264C22.9073 12.9674 22.8834 13.1238 22.883 13.297C22.8825 13.4778 22.9059 13.6669 22.9535 13.8638C23.0011 14.0608 23.0699 14.2503 23.1605 14.4324C23.2505 14.6149 23.3613 14.7829 23.4933 14.9381C23.6249 15.0931 23.7744 15.2185 23.9423 15.3156ZM23.9624 11.7927C24.2258 11.9448 24.4662 12.1459 24.6835 12.3954C24.9003 12.6445 25.0856 12.914 25.2393 13.2038C25.3929 13.4937 25.5121 13.7911 25.5968 14.0956C25.6814 14.4008 25.7237 14.6853 25.7229 14.949C25.7222 15.2279 25.6767 15.4691 25.5872 15.6711C25.4972 15.8735 25.3731 16.0268 25.2152 16.1301C25.0573 16.2342 24.8687 16.2808 24.649 16.2703C24.43 16.26 24.1914 16.1802 23.9346 16.0321C23.6678 15.8781 23.4257 15.6785 23.209 15.4332C22.9916 15.1876 22.8056 14.9203 22.6505 14.6322C22.4953 14.3435 22.3748 14.0465 22.2902 13.7414C22.2056 13.4362 22.1633 13.1497 22.1641 12.8823C22.1648 12.6034 22.2109 12.362 22.3026 12.1587C22.3937 11.9549 22.5196 11.8013 22.6791 11.6962C22.8393 11.5916 23.0289 11.5442 23.248 11.5544C23.4677 11.5656 23.7057 11.6444 23.9624 11.7927ZM26.972 17.0409L27.5882 17.3966C27.7629 17.4975 27.9176 17.5515 28.0534 17.5592C28.1887 17.5659 28.3017 17.5337 28.393 17.4623C28.4837 17.3907 28.5539 17.2848 28.6024 17.1432C28.6503 17.0013 28.675 16.8323 28.6754 16.6356C28.676 16.4348 28.6526 16.2363 28.6055 16.0395C28.558 15.8426 28.488 15.6562 28.3957 15.4809C28.3039 15.306 28.1904 15.1459 28.0549 15.0009C27.9201 14.8556 27.7671 14.734 27.5959 14.6351L26.9797 14.2794L26.972 17.0409ZM27.5981 13.9213C27.8961 14.0933 28.1566 14.2991 28.3807 14.5387C28.6048 14.778 28.7919 15.0356 28.942 15.3119C29.0917 15.5872 29.2043 15.8738 29.2789 16.1713C29.3535 16.4687 29.3903 16.7604 29.3894 17.0476C29.3886 17.3663 29.3459 17.6301 29.2614 17.8395C29.1764 18.0487 29.0551 18.1991 28.8973 18.2911C28.7393 18.3837 28.5498 18.4155 28.3284 18.3886C28.1076 18.3614 27.8603 18.2686 27.5863 18.1104L26.2612 17.3454L26.2731 13.156L27.5981 13.9213Z" fill="white"/>
</svg>
