<svg width="510" height="509" viewBox="0 0 510 509" fill="none" xmlns="http://www.w3.org/2000/svg">
<g clip-path="url(#clip0_16_13864)">
<path d="M255 509C395.556 509 509.5 395.056 509.5 254.5C509.5 113.944 395.556 0 255 0C114.444 0 0.5 113.944 0.5 254.5C0.5 395.056 114.444 509 255 509Z" fill="#F0582F"/>
<path d="M100.253 403.837L137.87 441.454L416.606 162.718L378.989 125.101L100.253 403.837Z" fill="#333842"/>
<path d="M100.208 403.931L137.825 441.548L151.543 427.831L113.926 390.214L100.208 403.931Z" fill="#DEDEDF"/>
<path d="M283.838 220.256L321.456 257.874L416.631 162.699L379.013 125.081L283.838 220.256Z" fill="#FBD303"/>
<path d="M178.4 207.7L187.8 236.6H218.2L193.6 254.4L203 283.3L178.4 265.5L153.8 283.3L163.2 254.4L138.7 236.6H169L178.4 207.7Z" fill="#F5EA0A"/>
<path d="M183.1 87.1001L188.9 105H207.7L192.5 116L198.3 133.9L183.1 122.8L167.9 133.9L173.7 116L158.5 105H177.3L183.1 87.1001Z" fill="#F5EA0A"/>
<path d="M431.8 216.6L435.4 227.7H447L437.6 234.5L441.2 245.5L431.8 238.7L422.4 245.5L426 234.5L416.6 227.7H428.2L431.8 216.6Z" fill="#F5EA0A"/>
<path d="M384.7 324.6L392.8 349.7H419.2L397.9 365.2L406 390.2L384.7 374.7L363.4 390.2L371.5 365.2L350.2 349.7H376.6L384.7 324.6Z" fill="#F1F3F7"/>
<path d="M293.5 119.4L297.1 130.4H308.6L299.3 137.3L302.9 148.3L293.5 141.5L284.1 148.3L287.7 137.3L278.3 130.4H289.9L293.5 119.4Z" fill="#F1F3F7"/>
</g>
<defs>
<clipPath id="clip0_16_13864">
<rect width="509" height="509" fill="white" transform="translate(0.5)"/>
</clipPath>
</defs>
</svg>
