<svg width="60" height="60" viewBox="0 0 60 60" fill="none" xmlns="http://www.w3.org/2000/svg">
<path d="M12.5201 39.0531C12.5201 40.883 10.9791 42.5202 9.14928 42.5202H3.5634C1.73355 42.5202 0.288925 40.883 0.288925 39.0531L4.62279 22.5844C4.62279 20.7546 6.06742 19.4062 7.89727 19.4062H13.4831C15.313 19.4062 16.7576 20.4656 16.7576 22.2955L12.5201 39.0531Z" fill="#454949"/>
<path d="M46.5169 15.5537H4.14125V22.5842L0 39.0529C0 40.8828 1.73355 42.52 3.5634 42.52H9.14928C10.9791 42.52 12.5201 40.8828 12.5201 39.0529L14.8315 29.9999H25.8106C27.6404 29.9999 28.2183 28.5553 28.2183 26.7255V22.2953H46.5169V15.5537ZM24.366 24.9919C24.366 26.4365 24.1734 28.0738 22.7287 28.0738H15.5056L16.8539 22.2953H24.366V24.9919Z" fill="#454949"/>
<path d="M14.7352 29.9999H25.8106C27.6404 29.9999 28.2183 28.5553 28.2183 26.7255V22.2953H46.5169V15.5537H4.14125V22.2953M24.366 24.9919C24.366 26.4365 24.1734 28.0738 22.7287 28.0738H15.5056L16.8539 22.2953H24.366V24.9919Z" fill="#252828"/>
<path d="M20.5136 27.1106H19.2616L18.1059 23.2583H20.5136V27.1106Z" fill="#2ABA9E"/>
<path d="M18.5875 23.2583H20.5136V27.1106" fill="#1A9992"/>
<path d="M49.695 3.03369L48.6356 6.88602H6.45265L4.52648 14.5907H51.3323V7.17494V6.98233V3.03369H49.695Z" fill="#2ABA9E"/>
<path d="M8.57142 25.1846H3.46709L2.98555 27.1107H8.57142C8.95666 27.1107 9.24558 26.5329 9.24558 26.1477C9.24558 25.7624 8.95666 25.1846 8.57142 25.1846Z" fill="#2ABA9E"/>
<path d="M7.60834 29.0371H2.50401L2.02247 30.9633H7.60834C7.99358 30.9633 8.2825 30.3854 8.2825 30.0002C8.2825 29.615 7.99358 29.0371 7.60834 29.0371Z" fill="#2ABA9E"/>
<path d="M6.64526 32.8892H1.54093L1.05939 34.8153H6.64526C7.03049 34.8153 7.31942 34.2375 7.31942 33.8522C7.31942 33.467 7.03049 32.8892 6.64526 32.8892Z" fill="#2ABA9E"/>
<path d="M47.4799 21.3322C47.4799 21.9101 47.0947 22.2953 46.5169 22.2953C45.939 22.2953 45.5538 21.9101 45.5538 21.3322V16.5168C45.5538 15.9389 45.939 15.5537 46.5169 15.5537C47.0947 15.5537 47.4799 15.9389 47.4799 16.5168V21.3322Z" fill="#252828"/>
<path d="M5.7785 9.77539L4.52649 14.5908H51.3323V9.77539H5.7785Z" fill="#1A9992"/>
<path d="M51.3323 13.8203C51.3323 14.2056 50.7544 14.5908 50.3692 14.5908C49.9839 14.5908 49.4061 14.2056 49.4061 13.8203V10.5459C49.4061 10.1606 49.9839 9.77539 50.3692 9.77539C50.7544 9.77539 51.3323 10.1606 51.3323 10.5459V13.8203Z" fill="#2ABA9E"/>
<path d="M4.14125 43.4829H7.0305V50.5134C7.0305 52.247 8.2825 53.4027 10.016 53.4027C11.7496 53.4027 13.0016 52.1506 13.0016 50.2245H15.8908C15.8908 54.0768 13.2905 56.2919 10.016 56.2919C6.74157 56.2919 4.14125 53.7879 4.14125 50.5134V43.4829Z" fill="#4C5254"/>
<path d="M14.3499 51.9582C15.1204 51.9582 15.7945 51.2841 15.7945 50.5136C15.7945 48.78 17.4318 47.4317 19.069 47.4317C20.7063 47.4317 22.3435 48.78 22.3435 50.5136V56.9662H25.2327V50.5136C25.2327 47.2391 22.3435 44.5425 19.069 44.5425C15.7945 44.5425 12.9053 47.2391 12.9053 50.5136C12.9053 51.3804 13.5795 51.9582 14.3499 51.9582Z" fill="#252828"/>
<path d="M26.6774 19.7912C27.1561 19.7912 27.5441 19.4031 27.5441 18.9244C27.5441 18.4457 27.1561 18.0576 26.6774 18.0576C26.1987 18.0576 25.8106 18.4457 25.8106 18.9244C25.8106 19.4031 26.1987 19.7912 26.6774 19.7912Z" fill="#2ABA9E"/>
<path d="M31.3965 19.7912C31.8752 19.7912 32.2632 19.4031 32.2632 18.9244C32.2632 18.4457 31.8752 18.0576 31.3965 18.0576C30.9178 18.0576 30.5297 18.4457 30.5297 18.9244C30.5297 19.4031 30.9178 19.7912 31.3965 19.7912Z" fill="#2ABA9E"/>
<path d="M36.1156 19.7912C36.5943 19.7912 36.9823 19.4031 36.9823 18.9244C36.9823 18.4457 36.5943 18.0576 36.1156 18.0576C35.6369 18.0576 35.2488 18.4457 35.2488 18.9244C35.2488 19.4031 35.6369 19.7912 36.1156 19.7912Z" fill="#2ABA9E"/>
<path d="M52.2953 22.5843C50.2729 22.5843 48.5393 20.9471 48.5393 18.8283C48.5393 16.7095 50.1766 15.0723 52.2953 15.0723" fill="#EA1F0A"/>
<path d="M60 18.4429H51.236C50.7544 18.4429 50.4655 18.4429 50.4655 18.9244C50.4655 19.406 50.8507 19.406 51.236 19.406H60V18.4429Z" fill="#FF5512"/>
</svg>
