<svg width="60" height="60" viewBox="0 0 60 60" fill="none" xmlns="http://www.w3.org/2000/svg">
<path d="M30 53.4375C42.9441 53.4375 53.4375 42.9441 53.4375 30H6.5625C6.5625 42.9441 17.0559 53.4375 30 53.4375Z" fill="#685683"/>
<path d="M30 6.5625C17.0559 6.5625 6.5625 17.0559 6.5625 30H53.4375C53.4375 17.0559 42.9441 6.5625 30 6.5625Z" fill="#8579A3"/>
<path d="M52.5424 33.4238C50.1368 37.5976 43.2086 36.8157 41.9336 35.2932L28.4111 41.1545C27.8533 42.2298 25.4674 43.8882 24.5974 44.2388C24.4924 45.7323 20.4011 49.3248 15.3077 48.9817C13.2518 48.8429 13.4346 48.7135 11.0964 48.0638C4.93707 48.047 -4.20731 36.0582 8.013 26.7479L11.4133 24.7848C13.8255 23.9654 15.8064 24.3488 16.8086 24.6676C17.3093 24.827 17.8558 24.7557 18.3143 24.4988L24.3443 21.4904L24.7108 22.0632L28.6718 20.9682C29.7039 20.6832 30.8721 20.8557 31.7936 21.4501C32.2305 21.7313 32.6618 22.0276 33.1024 22.2788L33.7502 19.8048C34.1543 18.871 34.743 18.4276 35.6646 18.2035L44.7274 15.1698C45.5871 14.8313 45.9724 14.9457 46.2555 15.7332L49.5799 16.5367C49.4796 16.5582 49.3783 16.5723 49.278 16.6013C45.6021 17.672 45.0611 22.697 46.1852 26.5548C47.3083 30.4088 49.8789 33.1501 52.5424 33.4238ZM47.9852 26.0298C49.038 29.6438 51.5589 32.0888 53.6149 31.4898C55.6708 30.8907 56.4846 27.4754 55.4318 23.8604C54.3789 20.2454 51.858 17.8013 49.8021 18.4004C47.7461 18.9995 46.9324 22.4157 47.9852 26.0298Z" fill="#4D4D4D"/>
<path d="M9.2402 26.0371C8.86052 26.2565 8.45177 26.4937 8.01302 26.7477C-3.47698 35.5012 3.63302 47.4609 11.0965 48.0637C3.12489 40.1277 4.60989 33.1021 9.2402 26.0371Z" fill="#666666"/>
<path d="M35.6646 18.2036C35.6646 18.2036 40.5499 18.9142 41.2943 19.8199C43.4777 22.4758 38.3346 25.0736 36.3977 24.0396L33.1024 22.2799L33.7502 19.8049C34.1543 18.8711 34.743 18.4277 35.6646 18.2036ZM18.3143 24.4989L24.3565 21.4839C23.1715 21.5327 20.1593 21.6517 19.0811 21.6883C18.6593 21.7024 18.2468 21.7708 17.8446 21.8992C16.7393 22.2517 14.3158 23.1246 11.4152 24.7839C13.8274 23.9646 15.8083 24.348 16.8105 24.6667C17.3093 24.828 17.8549 24.7558 18.3143 24.4989ZM24.5505 44.4836C24.0733 46.0886 20.1424 49.308 15.3077 48.9827C13.2508 48.8439 13.4346 48.7146 11.0965 48.0649C7.77396 44.7564 6.09396 41.6064 5.60083 38.5464C9.00208 40.5667 12.5365 40.6755 15.6058 40.0389C17.5165 43.2996 21.0086 45.5336 24.5505 44.4836ZM52.5583 33.4342C50.1593 37.6108 43.2949 36.7877 41.9336 35.2933L28.5452 41.0964C29.8624 38.6561 29.9477 35.6036 29.1621 32.9074C28.5686 30.8711 27.4849 29.0636 26.1105 27.7296C26.6168 26.5736 27.8561 25.8705 29.149 26.0861L41.3674 28.1252C43.294 28.743 45.1586 28.4683 46.6718 27.9452C47.9552 31.0652 50.2221 33.2036 52.5583 33.4342ZM24.0011 42.6911C22.8611 43.023 21.6649 42.8627 20.5474 42.318C22.8883 40.6024 24.0377 37.6052 23.1996 34.728C22.3493 31.8077 19.7055 29.883 16.758 29.7424C17.4115 28.6099 18.364 27.7746 19.5555 27.4277C22.6399 26.5296 26.1358 29.2174 27.363 33.4324C28.5902 37.6474 27.0855 41.792 24.0011 42.6911ZM53.6149 31.4899C52.5893 31.7889 51.4483 31.3295 50.4311 30.347C52.3305 29.8127 53.283 27.3105 52.5433 24.7708C51.798 22.2114 49.6174 20.5952 47.7002 21.2224C48.0133 19.773 48.7408 18.7108 49.8011 18.4014C51.8571 17.8024 54.378 20.2464 55.4308 23.8614C56.4836 27.4764 55.6718 30.8908 53.6149 31.4899Z" fill="#3A3A3A"/>
<path d="M29.162 32.9073C27.721 27.9601 23.3804 24.3591 19.0295 25.6266C14.8885 26.8332 12.8513 31.921 14.3926 37.2104C15.9141 42.4341 20.3888 45.6966 24.5251 44.491C29.0007 43.1869 30.5495 37.6698 29.162 32.9073ZM24.001 42.691C20.9166 43.5891 17.4207 40.9013 16.1935 36.6854C14.9654 32.4704 16.471 28.3248 19.5545 27.4266C22.6388 26.5285 26.1348 29.2163 27.362 33.4313C28.5891 37.6463 27.0854 41.7919 24.001 42.691ZM41.881 25.7729C38.5876 27.3966 33.2532 26.5669 32.6195 30.5073C32.2135 33.0301 32.3916 36.7791 32.5951 39.3413C31.9426 39.6244 31.3266 39.8907 30.7791 40.1288C30.5513 37.4954 30.2982 33.1341 30.7679 30.2101C31.6445 24.7623 38.0813 25.5563 41.0513 24.091C42.2616 23.4938 44.1976 20.9916 42.1473 19.1607C40.696 17.8641 38.2473 17.9823 36.3695 17.9673L39.5579 16.9004C39.8045 16.8179 42.0507 17.0579 43.0801 17.6513C46.682 19.7279 44.5951 24.4369 41.881 25.7729ZM57.2316 23.3363C55.8845 18.7116 52.4523 15.676 49.277 16.6004C45.601 17.671 45.0601 22.696 46.1841 26.5538C47.5313 31.1785 50.9635 34.2141 54.1388 33.2888C57.8157 32.2191 58.3557 27.1941 57.2316 23.3363ZM53.6148 31.4898C51.5588 32.0888 49.0379 29.6448 47.9851 26.0298C46.9323 22.4148 47.746 18.9994 49.802 18.4004C51.8579 17.8013 54.3788 20.2454 55.4316 23.8604C56.4845 27.4754 55.6716 30.8907 53.6148 31.4898Z" fill="#6BC4D2"/>
<path d="M1.24508 39.0705C0.487584 35.8586 1.98102 32.5136 2.04571 32.3721C2.55383 31.2499 4.26571 32.0074 3.7529 33.1455C3.73977 33.1736 2.46196 36.0602 3.0704 38.6393C3.3554 39.8439 1.53477 40.2893 1.24508 39.0705ZM9.30102 39.0405C7.9454 36.1999 9.74165 32.9964 9.76977 32.9468C10.3951 31.8658 8.76665 30.9405 8.14883 32.0055C8.05227 32.1714 5.81727 36.0939 7.60977 39.8477C8.1404 40.9577 9.84196 40.1721 9.30102 39.0405Z" fill="#EFEAE0"/>
</svg>
