<svg width="60" height="60" viewBox="0 0 60 60" fill="none" xmlns="http://www.w3.org/2000/svg">
<g clip-path="url(#clip0_19_15908)">
<path d="M59.8601 38.5753C59.3924 38.1455 58.8937 37.7461 58.3935 37.3485C59.3181 33.5037 59.6247 29.436 59.2568 25.3693C58.4779 16.746 54.0433 6.87705 45.8489 3.02743C41.2415 0.863079 31.9906 -1.2033 26.8346 1.79941C26.5218 1.56336 26.1097 1.45844 25.6085 1.62656C13.8925 5.55297 3.03821 15.6725 0.544895 27.6894C0.313893 27.7494 0.208345 28.0942 0.423232 28.2557C-0.46033 33.0451 -0.00938477 38.1231 2.24755 43.2209C7.94456 56.0913 22.3562 61.2723 35.6317 59.2969C47.4997 57.5308 55.1456 49.0036 58.0604 38.5772C58.4829 38.8085 58.9013 39.055 59.3311 39.2604C59.7565 39.4639 60.246 38.9298 59.8601 38.5753ZM42.0757 4.75915C44.7451 5.77828 47.1174 7.11216 48.7072 8.50481C50.6826 10.2353 52.2152 12.4012 53.3895 14.8026C52.6222 14.3503 51.7839 14.0037 51.1458 13.743C48.6035 12.7036 45.6046 12.4951 42.8692 12.8338C42.9176 11.6289 42.0211 10.3367 41.1363 9.58746C40.5899 9.12514 39.9563 8.72475 39.281 8.39926C39.7676 7.62093 40.2846 6.86061 40.8351 6.12747C41.2026 5.63861 41.6627 5.21452 42.0757 4.75915ZM52.8058 17.1919C51.2893 16.4167 49.7415 15.6994 48.2032 15.0121C48.5877 15.1258 48.9723 15.2342 49.3541 15.3695C50.4329 15.7518 51.4189 16.2319 52.3761 16.8535C52.5322 16.9549 52.6718 17.0712 52.8058 17.1919ZM37.3391 13.2563C35.3451 12.9128 34.2924 11.5319 34.7608 9.85954C35.5435 10.07 36.6609 9.96477 37.2841 10.1323C38.5418 10.4701 39.9683 11.2699 40.5776 12.4672C41.019 13.335 37.7742 13.3312 37.3391 13.2563ZM39.877 4.01685C39.7758 4.15811 39.6738 4.30094 39.5774 4.43619C39.414 4.66625 39.2797 4.91495 39.1283 5.15322C38.4979 4.6713 37.8529 4.21436 37.3005 3.61046C37.231 3.5343 37.1849 3.44045 37.1182 3.36176C38.0454 3.53936 38.9703 3.74824 39.877 4.01685ZM35.705 3.11749C36.4107 4.35024 37.3258 5.50304 38.466 6.24566C38.1895 6.7557 37.9278 7.27459 37.6902 7.80327C36.794 7.06634 35.718 6.49468 34.7911 5.80957C33.6807 4.98889 32.6716 4.04529 31.8623 2.93705C33.1008 2.8691 34.3977 2.94147 35.705 3.11749ZM31.1222 3.01194C31.7739 4.13124 32.5926 5.12193 33.5561 6.00676C34.1272 6.53102 34.7709 7.10868 35.45 7.63199C35.2133 7.65443 34.9779 7.69045 34.7456 7.74418C34.6717 7.76156 34.6129 7.82539 34.5424 7.86142C34.404 7.87279 34.2653 7.9224 34.1461 8.03964C34.0523 8.13192 33.985 8.23462 33.9003 8.33069C32.909 7.40699 31.8481 6.55819 30.7408 5.77797C29.9524 5.22211 29.1134 4.74778 28.257 4.30568C28.2077 4.28008 27.965 4.18307 27.6721 4.07089C27.6812 3.98999 27.6717 3.9211 27.6585 3.84115C28.7092 3.39368 29.8851 3.13866 31.1222 3.01194ZM24.6583 5.18166C25.5333 5.98622 27.3292 6.1714 28.2589 6.57652C30.0099 7.33937 31.553 8.42928 33.128 9.48159C32.3958 11.0575 32.7004 12.8313 34.1673 14.0836C33.4114 14.6212 32.701 15.2089 32.0017 15.8087C31.2003 15.2393 30.2908 14.8019 29.442 14.3197C28.6447 13.8672 27.8478 13.4143 27.0505 12.9615C28.6997 12.6606 30.3815 12.3848 32.1253 12.0511C32.9936 11.8852 32.8767 10.6464 32.1253 10.4141C24.2462 7.97834 14.5255 13.6065 7.45822 19.1742C11.5714 12.9441 17.9889 7.85983 24.6583 5.18166ZM19.3718 20.7571C17.6742 19.543 15.9453 18.3482 14.0777 17.409C14.9246 16.9467 15.7715 16.4847 16.6411 16.0555C16.7682 15.993 16.8933 15.9462 17.02 15.8861C18.73 17.0203 20.4108 18.1968 22.1033 19.3569C23.41 20.2524 24.7664 21.2817 26.2244 21.9974C25.6322 22.8001 25.0523 23.6132 24.5192 24.4598C22.9619 23.0649 21.0735 21.9741 19.3718 20.7571ZM24.0199 25.2776C23.4928 26.1587 22.985 27.0526 22.5202 27.9719C20.79 26.3454 18.5991 25.112 16.6421 23.7829C14.4926 22.3233 12.2887 20.966 9.97018 19.7968C10.9735 19.1682 11.993 18.565 13.0247 17.9803C13.0389 17.9905 13.0459 18.0031 13.0617 18.0123C14.8187 19.026 16.4917 20.1279 18.14 21.3104C19.9981 22.644 21.8347 24.3539 23.9441 25.2599C23.9687 25.2707 23.9943 25.271 24.0199 25.2776ZM22.6586 18.4073C21.0975 17.427 19.5494 16.4268 17.9826 15.4554C19.058 14.9944 20.1248 14.6224 21.192 14.3007C22.2411 15.3786 23.648 16.1971 24.8751 17.0421C25.8774 17.7326 26.8934 18.4025 27.9208 19.0548C28.068 19.1483 28.2222 19.2529 28.3764 19.3566C27.9132 19.8824 27.4562 20.4142 27.0208 20.9647C25.6142 20.0524 24.0667 19.2915 22.6586 18.4073ZM25.8202 16.321C24.6488 15.5717 23.4271 14.8218 22.2974 13.9907C23.4416 13.6851 24.5941 13.4418 25.7545 13.2143C26.809 13.8817 27.8636 14.5494 28.9181 15.2168C29.6417 15.6751 30.3581 16.1838 31.1153 16.5997C30.4779 17.1868 29.8468 17.78 29.2524 18.4095C29.1352 18.3482 29.016 18.2872 28.9061 18.2237C27.8604 17.6185 26.8381 16.9716 25.8202 16.321ZM9.19343 20.2796C11.3145 21.4558 13.336 22.7758 15.3202 24.1694C17.5098 25.7071 19.6369 27.722 22.0853 28.821C21.6467 29.7375 21.2324 30.6668 20.8557 31.6133C18.8169 30.1998 16.6026 28.9964 14.5463 27.6218C11.8397 25.8126 9.22472 23.866 6.49977 22.0853C7.38523 21.4631 8.2849 20.8639 9.19343 20.2796ZM6.04408 44.1351C5.20856 42.7355 4.55947 41.3236 4.07029 39.9073C5.95908 42.2208 7.82258 44.5545 9.73823 46.8468C11.7266 49.2264 13.9285 51.9049 16.5549 53.7181C12.2673 51.5636 8.55193 48.3371 6.04408 44.1351ZM10.6117 45.974C8.18378 43.1362 5.89114 40.1907 3.3776 37.4301C3.10962 36.1717 2.96584 34.9153 2.93361 33.6667C5.30399 36.2776 7.69428 38.8704 10.1095 41.4396C12.052 43.506 14.497 46.9868 17.2646 47.9693C17.3468 47.9987 17.428 47.986 17.506 47.9645C17.4748 49.6881 17.5316 51.4065 17.6979 53.1047C15.3212 50.7366 12.8187 48.5539 10.6117 45.974ZM17.544 46.9059C15.7351 44.5953 13.0396 42.6382 10.9865 40.5627C8.31777 37.8643 5.74072 35.065 2.95446 32.4852C2.98132 31.6035 3.06981 30.7278 3.20095 29.8582C8.6856 33.2837 13.203 38.0352 17.7984 42.5602C17.8394 42.6006 17.8843 42.6167 17.9273 42.6445C17.7374 44.0618 17.6027 45.4842 17.544 46.9059ZM3.38424 28.9351C3.55994 28.0241 3.79315 27.1231 4.06808 26.2317C6.58825 28.1745 8.90555 30.4447 11.3208 32.4722C12.9002 33.7982 15.6539 36.8214 17.9892 36.2235C18.6193 36.0624 18.4029 35.2515 17.8477 35.1785C15.112 34.8189 11.816 31.2502 9.80522 29.6673C8.00934 28.2538 6.22705 26.7515 4.32025 25.4609C4.6211 24.5868 4.96175 23.7225 5.36372 22.8769C5.58018 22.7189 5.8036 22.5738 6.02133 22.4184C8.32377 24.2907 10.7245 26.0452 13.1145 27.8028C15.4314 29.5065 17.8091 31.4019 20.3899 32.7547C19.416 35.4079 18.6712 38.1521 18.1931 40.9384C13.7591 36.4577 9.0013 31.8888 3.38424 28.9351ZM37.5104 55.6827C35.8911 56.1419 34.2179 56.4816 32.4928 56.6608C28.1341 57.1133 23.6853 56.5338 19.5939 55.0447C18.9132 40.2805 23.9229 24.1273 36.647 15.5471C36.7267 15.4933 36.7677 15.4235 36.8303 15.3622C37.3941 15.4937 37.9746 15.5796 38.556 15.5774C38.5646 15.6024 38.563 15.6258 38.575 15.651C39.421 17.4599 40.2154 19.5626 40.9113 21.8391C40.6701 21.9001 40.5343 22.2341 40.8127 22.376C40.9204 22.4307 41.0184 22.498 41.1249 22.5543C41.8033 24.8845 42.3763 27.3813 42.7801 29.9463C42.5074 29.9574 42.2764 30.2857 42.5343 30.5174C42.6578 30.6283 42.7804 30.7424 42.904 30.8533C43.1059 32.2813 43.2703 33.7204 43.3572 35.1608C43.2339 35.0777 43.111 34.9835 42.9874 34.9023C42.5396 34.6056 42.1418 35.3125 42.5712 35.6146C42.861 35.8187 43.1375 36.038 43.4194 36.2513C43.6988 43.6077 42.2723 50.7609 37.8163 55.2271C37.6699 55.3724 37.5717 55.5266 37.5104 55.6827ZM42.3017 53.8407C43.1113 52.6355 43.7623 51.3032 44.2922 49.889C44.7062 50.4032 45.1426 50.8987 45.6128 51.3626C45.7057 51.4542 45.8065 51.5443 45.9058 51.6353C44.7634 52.4509 43.5755 53.209 42.3017 53.8407ZM46.8156 50.9739C46.5817 50.7893 46.3596 50.5956 46.1719 50.4332C45.6176 49.9551 45.1195 49.4169 44.631 48.8709C44.9508 47.8776 45.1922 46.8367 45.3964 45.7768C46.065 46.4907 46.7366 47.2017 47.4545 47.8682C47.9036 48.2843 48.4092 48.7211 48.9575 49.069C48.2758 49.7386 47.5699 50.3839 46.8156 50.9739ZM49.7061 48.2998C49.0697 47.8786 48.4196 47.475 47.8341 46.958C47.05 46.2647 46.3254 45.506 45.5939 44.7555C45.7231 43.9304 45.8103 43.0857 45.878 42.234C46.5669 43.0187 47.2864 43.7768 48.0591 44.4809C48.9335 45.2775 50.018 46.2524 51.2387 46.4676C50.7527 47.1012 50.249 47.7184 49.7061 48.2998ZM51.7965 45.7234C50.5271 45.4229 49.3291 44.406 48.3719 43.602C47.5168 42.8837 46.7192 42.0978 45.9443 41.2904C45.9968 40.3203 45.9924 39.3334 45.975 38.3446C48.224 40.3304 50.3375 42.4701 52.6462 44.368C52.3669 44.8228 52.1033 45.2905 51.7965 45.7234ZM53.3225 43.2585C51.0558 40.9975 48.5334 38.8625 45.9235 36.9535C45.8634 35.734 45.7399 34.512 45.5882 33.2938C48.4768 35.9407 51.3724 38.6075 54.3331 41.1391C54.0244 41.8649 53.6929 42.5756 53.3225 43.2585ZM54.7569 40.0463C52.177 36.9478 48.6405 34.465 45.3983 31.9457C45.2109 30.7035 44.9704 29.4777 44.7034 28.268C48.1994 31.2015 51.7823 34.5458 55.6246 37.1049C55.3842 38.1142 55.1057 39.1014 54.7569 40.0463ZM56.0108 35.2679C55.9969 35.3586 55.9703 35.4421 55.9552 35.5321C54.6757 34.6369 53.375 33.7678 52.1387 32.847C49.5787 30.9396 47.0339 29.017 44.4512 27.1408C44.1946 26.0819 43.9054 25.0476 43.597 24.0376C48.0142 26.9828 51.6729 30.9159 56.2146 33.6658C56.1546 34.2068 56.0917 34.7459 56.0108 35.2679ZM56.3287 32.3793C52.1937 29.0653 47.8985 25.4824 43.2235 22.9189C42.2913 20.0995 41.189 17.5158 39.9695 15.4096C40.7754 15.2251 41.5322 14.8958 42.144 14.3551C42.2293 14.2799 42.2739 14.1949 42.3434 14.1159C43.4472 14.1269 44.5283 14.2315 45.5958 14.4075C45.5841 14.5292 45.6141 14.6518 45.762 14.7311C48.9673 16.4445 52.0796 18.4629 55.3083 20.1387C55.5684 21.1556 55.7965 22.1829 55.9618 23.2232C54.1805 22.0211 52.2279 20.978 50.4497 19.8909C47.7633 18.2483 44.9789 16.7902 41.9961 15.7695C41.4213 15.573 41.1941 16.4607 41.748 16.6689C44.9644 17.8764 47.8679 19.6463 50.7344 21.5174C52.5293 22.6892 54.287 24.1381 56.2029 25.1673C56.3129 26.2165 56.3947 27.2653 56.4216 28.3053C54.4409 26.53 52.2528 24.9528 50.1232 23.3806C48.0812 21.8733 45.0529 18.9982 42.3254 19.0399C41.9361 19.0459 41.8334 19.6463 42.2315 19.7326C44.7877 20.2866 47.4786 22.9414 49.4862 24.4702C51.8104 26.2405 54.007 28.2279 56.4305 29.8635C56.4197 30.7127 56.3913 31.5555 56.3287 32.3793Z" fill="black"/>
</g>
<defs>
<clipPath id="clip0_19_15908">
<rect width="60" height="60" fill="white"/>
</clipPath>
</defs>
</svg>
