<svg width="512" height="512" viewBox="0 0 512 512" fill="none" xmlns="http://www.w3.org/2000/svg">
<g clip-path="url(#clip0_13_568)">
<path d="M478.246 489.495H512.004V90.0222L455.74 56.2642L478.246 489.495Z" fill="#B9B9B9"/>
<path d="M0.00402832 90.0222V489.495H478.246V56.2642L0.00402832 90.0222Z" fill="#DCDCDC"/>
<path d="M478.246 22.5049L455.74 56.2639L478.246 90.0219H512.004V22.5049H478.246Z" fill="#FE5F1A"/>
<path d="M360.092 22.5049L337.586 56.2639L360.092 90.0219H478.246V22.5049H360.092Z" fill="#FE834D"/>
<path d="M326.334 22.5049L292.575 56.2639L326.334 90.0219H360.092V22.5049H326.334Z" fill="#02ACAB"/>
<path d="M326.334 22.5049H0.00402832V90.0209H326.334V22.5049Z" fill="#42C8C6"/>
<path d="M444.488 123.78L421.982 279.154L444.488 455.736H478.246V123.78H444.488Z" fill="#D5F6F5"/>
<path d="M444.487 123.78H33.762V455.736H444.487V123.78Z" fill="white"/>
<path d="M436.048 64.7042C440.709 64.7042 444.488 60.9255 444.488 56.2642C444.488 51.6029 440.709 47.8242 436.048 47.8242C431.387 47.8242 427.608 51.6029 427.608 56.2642C427.608 60.9255 431.387 64.7042 436.048 64.7042Z" fill="#272727"/>
<path d="M469.806 64.7042C474.467 64.7042 478.246 60.9255 478.246 56.2642C478.246 51.6029 474.467 47.8242 469.806 47.8242C465.145 47.8242 461.366 51.6029 461.366 56.2642C461.366 60.9255 465.145 64.7042 469.806 64.7042Z" fill="#272727"/>
<path d="M402.29 64.7042C406.951 64.7042 410.73 60.9255 410.73 56.2642C410.73 51.6029 406.951 47.8242 402.29 47.8242C397.629 47.8242 393.85 51.6029 393.85 56.2642C393.85 60.9255 397.629 64.7042 402.29 64.7042Z" fill="#272727"/>
<path d="M256.004 178.919V400.598C316.982 400.598 370.389 356.655 402.29 289.758C370.389 222.862 316.982 178.919 256.004 178.919Z" fill="#FEA680"/>
<path d="M368.531 289.758C343.992 222.862 302.909 178.918 256.004 178.918C195.025 178.918 141.619 222.859 109.718 289.758C141.618 356.657 195.025 400.598 256.004 400.598C302.91 400.598 343.993 356.655 368.531 289.758Z" fill="#FFC1A6"/>
<path d="M256.004 212.677C195.027 212.677 141.619 243.235 109.718 289.758C141.618 336.281 195.026 366.839 256.004 366.839C316.982 366.839 370.389 336.28 402.29 289.758C370.389 243.236 316.982 212.677 256.004 212.677Z" fill="white"/>
<path d="M256.004 212.677V366.84C298.574 366.84 333.085 332.329 333.085 289.759C333.085 247.187 298.574 212.677 256.004 212.677Z" fill="#42C8C6"/>
<path d="M299.327 289.758C299.327 247.187 279.931 212.677 256.004 212.677C213.434 212.677 178.923 247.187 178.923 289.758C178.923 332.328 213.434 366.839 256.004 366.839C279.931 366.84 299.327 332.329 299.327 289.758Z" fill="#81E3E2"/>
<path d="M256.004 253.187L244.751 289.758L256.004 326.33C276.202 326.33 292.575 309.956 292.575 289.759C292.575 269.561 276.202 253.187 256.004 253.187Z" fill="#272727"/>
<path d="M219.433 289.758C219.433 309.956 235.807 326.329 256.004 326.329V253.186C235.806 253.187 219.433 269.561 219.433 289.758Z" fill="#4D4D4D"/>
</g>
<defs>
<clipPath id="clip0_13_568">
<rect width="512" height="512" fill="white" transform="translate(0.00402832)"/>
</clipPath>
</defs>
</svg>
