<svg width="56" height="55" viewBox="0 0 56 55" fill="none" xmlns="http://www.w3.org/2000/svg">
<g clip-path="url(#clip0_16_14317)">
<path d="M9.5 18H3.5V21H9.5V18Z" fill="#546A79"/>
<path d="M12.5 7H0.5V18H12.5V7Z" fill="#38454F"/>
<path d="M11.5 7H1.5V3.248C1.5 2.006 2.506 1 3.748 1H9.252C10.494 1 11.5 2.006 11.5 3.248V7Z" fill="#EEAF4B"/>
<path d="M26.5 53C33.1274 53 38.5 47.6274 38.5 41C38.5 34.3726 33.1274 29 26.5 29C19.8726 29 14.5 34.3726 14.5 41C14.5 47.6274 19.8726 53 26.5 53Z" stroke="#38454F" stroke-width="2" stroke-miterlimit="10"/>
<path d="M6.5 21V34.514V33.541C6.5 44.296 15.204 53 25.959 53C38.867 53 49.5 45.556 49.5 32.649V28" stroke="#38454F" stroke-width="2" stroke-miterlimit="10"/>
<path d="M26.5 53C34.7843 53 41.5 46.2843 41.5 38C41.5 29.7157 34.7843 23 26.5 23C18.2157 23 11.5 29.7157 11.5 38C11.5 46.2843 18.2157 53 26.5 53Z" stroke="#38454F" stroke-width="2" stroke-miterlimit="10"/>
<path d="M52.5 26H46.5V29H52.5V26Z" fill="#546A79"/>
<path d="M55.5 15H43.5V26H55.5V15Z" fill="#38454F"/>
<path d="M54.5 15H44.5V11.248C44.5 10.006 45.506 9 46.748 9H52.252C53.494 9 54.5 10.006 54.5 11.248V15Z" fill="#EEAF4B"/>
</g>
<defs>
<clipPath id="clip0_16_14317">
<rect width="55" height="55" fill="white" transform="translate(0.5)"/>
</clipPath>
</defs>
</svg>
