<svg width="60" height="60" viewBox="0 0 60 60" fill="none" xmlns="http://www.w3.org/2000/svg">
<g clip-path="url(#clip0_16_15428)">
<path d="M55.3334 55.9434H4.66664C2.09344 55.9434 0 53.8498 0 51.2766V16.0284C0 14.9239 0.89543 14.0283 2.00004 14.0283H58.0001C59.1046 14.0283 60.0001 14.9238 60.0001 16.0284V51.2766C60 53.8498 57.9066 55.9434 55.3334 55.9434Z" fill="#FFE49C"/>
<path d="M58 14.0283H30V55.9432H55.3334C57.9066 55.9432 60 53.8498 60 51.2766V16.0282C60 14.9238 59.1046 14.0283 58 14.0283Z" fill="#FFD155"/>
<path d="M60 18.0276H0V8.7234C0 6.14598 2.08934 4.05664 4.66664 4.05664H55.3334C57.9107 4.05664 60 6.14598 60 8.7234V18.0276Z" fill="#8DC3E9"/>
<path d="M8.41462 12.5465C9.24538 12.5465 9.91884 11.8731 9.91884 11.0423C9.91884 10.2115 9.24538 9.53809 8.41462 9.53809C7.58386 9.53809 6.9104 10.2115 6.9104 11.0423C6.9104 11.8731 7.58386 12.5465 8.41462 12.5465Z" fill="#FFE49C"/>
<path d="M13.2374 12.5465C14.0681 12.5465 14.7416 11.8731 14.7416 11.0423C14.7416 10.2115 14.0681 9.53809 13.2374 9.53809C12.4066 9.53809 11.7332 10.2115 11.7332 11.0423C11.7332 11.8731 12.4066 12.5465 13.2374 12.5465Z" fill="#FFE49C"/>
<path d="M18.0599 12.5465C18.8906 12.5465 19.5641 11.8731 19.5641 11.0423C19.5641 10.2115 18.8906 9.53809 18.0599 9.53809C17.2291 9.53809 16.5557 10.2115 16.5557 11.0423C16.5557 11.8731 17.2291 12.5465 18.0599 12.5465Z" fill="#FFE49C"/>
<path d="M60 8.72426C60 6.14695 57.9107 4.05762 55.3334 4.05762H30V18.0286H60V8.72426Z" fill="#48AEE2"/>
<path d="M48.1044 53.7436H11.8958C10.7913 53.7436 9.89575 52.8482 9.89575 51.7436V22.2276C9.89575 21.1231 10.7912 20.2275 11.8958 20.2275H48.1042C49.2086 20.2275 50.1042 21.123 50.1042 22.2276V51.7436C50.1043 52.8482 49.2089 53.7436 48.1044 53.7436Z" fill="#FFD155"/>
<path d="M48.1043 20.2275H30V53.7435H48.1043C49.2088 53.7435 50.1043 52.8481 50.1043 51.7435V22.2275C50.1042 21.123 49.2088 20.2275 48.1043 20.2275Z" fill="#FFBE00"/>
<path d="M27.1957 35.9956H17.5669C16.541 35.9956 15.7095 35.164 15.7095 34.1382V27.0039C15.7095 25.978 16.541 25.1465 17.5669 25.1465H27.1957C28.2216 25.1465 29.0531 25.978 29.0531 27.0039V34.1382C29.0533 35.1639 28.2216 35.9956 27.1957 35.9956Z" fill="#FFE49C"/>
<path d="M27.1957 48.8247H17.5669C16.541 48.8247 15.7095 47.9931 15.7095 46.9673V39.833C15.7095 38.8071 16.541 37.9756 17.5669 37.9756H27.1957C28.2216 37.9756 29.0531 38.8071 29.0531 39.833V46.9673C29.0533 47.9931 28.2216 48.8247 27.1957 48.8247Z" fill="#FFE49C"/>
<path d="M42.4329 35.9956H32.8042C31.7783 35.9956 30.9468 35.164 30.9468 34.1382V27.0039C30.9468 25.978 31.7783 25.1465 32.8042 25.1465H42.433C43.4589 25.1465 44.2905 25.978 44.2905 27.0039V34.1382C44.2903 35.1639 43.4587 35.9956 42.4329 35.9956Z" fill="#FFD155"/>
<path d="M42.4329 48.8247H32.8042C31.7783 48.8247 30.9468 47.9931 30.9468 46.9673V39.833C30.9468 38.8071 31.7783 37.9756 32.8042 37.9756H42.433C43.4589 37.9756 44.2905 38.8071 44.2905 39.833V46.9673C44.2903 47.9931 43.4587 48.8247 42.4329 48.8247Z" fill="#FFD155"/>
</g>
<defs>
<clipPath id="clip0_16_15428">
<rect width="60" height="60" fill="white"/>
</clipPath>
</defs>
</svg>
