<svg width="60" height="60" viewBox="0 0 60 60" fill="none" xmlns="http://www.w3.org/2000/svg">
<path d="M56.5566 34.9588C56.3669 33.6309 55.4824 32.5055 54.237 32.0073L51.5625 30.9375V27.1875H47.8125V30.9375L45.138 32.0073C43.8926 32.5055 43.0081 33.6309 42.8184 34.9588L42.1875 39.375H57.1875L56.5566 34.9588Z" fill="#6E6E6E"/>
<path d="M54.237 32.0073L51.5625 30.9375C50.527 31.973 48.848 31.973 47.8125 30.9375L45.138 32.0073C43.8926 32.5055 43.0081 33.6309 42.8184 34.9588L42.1875 39.375H57.1875L56.5566 34.9588C56.3669 33.6309 55.4824 32.5055 54.237 32.0073Z" fill="#F4C762"/>
<path d="M55.6278 26.0414C56.0098 25.6981 56.25 25.2003 56.25 24.6463C56.25 23.8321 55.731 23.1392 55.0059 22.8801C55.2937 22.5131 55.4652 22.0506 55.4652 21.548C55.4652 20.3546 54.4978 19.3872 53.3044 19.3872C52.906 19.3872 52.5328 19.495 52.2124 19.6831C52.0186 18.6191 51.0872 17.8125 49.9673 17.8125C48.9265 17.8125 48.0485 18.5092 47.7741 19.4617C47.3893 19.1846 46.9168 19.0213 46.4062 19.0213C45.1118 19.0213 44.0625 20.0707 44.0625 21.3651C44.0625 21.9153 44.2521 22.4212 44.5694 22.821C43.7414 23.0156 43.125 23.759 43.125 24.6463C43.125 25.2089 43.3727 25.7136 43.7651 26.0573L43.7654 26.0569C43.5821 26.3595 43.4766 26.7146 43.4766 27.0943C43.4766 28.2017 44.3743 29.0995 45.4818 29.0995C46.1968 29.0995 46.8245 28.7252 47.1795 28.1618L47.4392 27.7449L47.4342 27.1875H52.2965L52.3849 27.6876C52.5539 28.5588 53.3209 29.2167 54.2415 29.2167C55.286 29.2167 56.1328 28.3699 56.1328 27.3253C56.1328 26.8292 55.9417 26.3776 55.6291 26.0402L55.6278 26.0414Z" fill="#EAB84B"/>
<path d="M12.7033 18.469C11.2555 17.5038 9.36946 17.5038 7.92171 18.469L4.6875 20.6251L6.5625 22.5001H14.0625L15.9375 20.6251L12.7033 18.469Z" fill="#EAB84B"/>
<path d="M15.2484 31.9578L12.1875 30.9375V28.125H8.4375V30.9375L5.37665 31.9578C3.84536 32.4682 2.8125 33.9012 2.8125 35.5153V39.375H17.8125V35.5153C17.8125 33.9012 16.7796 32.4682 15.2484 31.9578Z" fill="#DFDFDF"/>
<path d="M2.8125 35.5153V39.375H17.8125V35.5153C17.8125 33.9012 16.7796 32.4682 15.2484 31.9578L12.1875 30.9375C11.152 31.973 9.47303 31.973 8.4375 30.9375L5.37665 31.9578C3.84536 32.4682 2.8125 33.9012 2.8125 35.5153Z" fill="#F4C762"/>
<path d="M7.5001 34.6875L10.3126 31.875L13.1251 34.6875L16.3442 32.5414C16.0197 32.2923 15.652 32.0923 15.2485 31.9578L12.1876 30.9375C11.1521 31.973 9.47313 31.973 8.4376 30.9375L5.37675 31.9578C4.9732 32.0923 4.60555 32.2923 4.28101 32.5414L7.5001 34.6875Z" fill="#CC993E"/>
<path d="M14.0405 22.0241C11.5784 21.4086 9.00264 21.4086 6.54053 22.0241L6.54053 25.3565C6.54053 27.4276 8.21945 29.1065 10.2905 29.1065C12.3616 29.1065 14.0405 27.4276 14.0405 25.3565L14.0405 22.0241Z" fill="#DFDFDF"/>
<path d="M36.1542 13.2456C35.8176 12.5724 35.785 11.7875 36.0645 11.0888C36.7764 9.30903 35.8627 7.32379 34.1113 6.674L25.8893 6.67383C24.1376 7.32345 23.2237 9.30883 23.9356 11.0887C24.2152 11.7875 24.1825 12.5724 23.8459 13.2456C22.9775 14.9825 22.759 16.9729 23.23 18.8569L23.3627 19.3877L36.6374 19.3881L36.7702 18.8569C37.2412 16.9729 37.0227 14.9825 36.1542 13.2456Z" fill="#CECECE"/>
<path d="M26.25 6.5625V10.8545C26.25 12.246 27.0362 13.5181 28.2808 14.1404L29.1615 14.5807C29.6893 14.8447 30.3107 14.8447 30.8385 14.5807L31.7192 14.1404C32.9638 13.5181 33.75 12.246 33.75 10.8545V6.5625H26.25Z" fill="#EDEDED"/>
<path d="M37.8597 21.4859C37.6327 20.3512 36.8946 19.3848 35.8596 18.8673L31.875 16.875V13.125H28.125V16.875L24.1404 18.8673C23.1054 19.3848 22.3673 20.3512 22.1403 21.4859L21.5625 24.375H38.4375L37.8597 21.4859Z" fill="#EDEDED"/>
<path d="M22.1403 21.4859L21.5625 24.375H38.4375L37.8597 21.4859C37.6327 20.3512 36.8946 19.3848 35.8596 18.8673L31.875 16.875L30 18.75L28.125 16.875L24.1404 18.8673C23.1054 19.3848 22.3673 20.3512 22.1403 21.4859Z" fill="#75BBAD"/>
<path d="M32.7135 11.052L30.8385 11.9895C30.3107 12.2535 29.6893 12.2535 29.1615 11.9895L27.2865 11.052C26.6512 10.7344 26.25 10.0852 26.25 9.375V10.8545C26.25 12.246 27.0362 13.5181 28.2808 14.1404L29.1615 14.5807C29.6893 14.8447 30.3107 14.8447 30.8385 14.5807L31.7192 14.1404C32.9638 13.5181 33.75 12.246 33.75 10.8545V9.375C33.75 10.0852 33.3487 10.7344 32.7135 11.052Z" fill="#9B9B9B"/>
<path d="M25.3125 6.5625L26.6642 6.83284C28.8663 7.27325 31.1337 7.27325 33.3358 6.83284L34.6875 6.5625C34.6875 4.49143 33.0086 2.8125 30.9375 2.8125H29.0625C26.9914 2.8125 25.3125 4.49143 25.3125 6.5625Z" fill="#BEBEBE"/>
<path d="M48.7981 21.8592C47.6497 22.242 46.875 23.3168 46.875 24.5273V26.2502C46.875 26.8505 47.1135 27.4262 47.5379 27.8506L48.0871 28.3998C48.5115 28.8243 49.0872 29.0627 49.6875 29.0627C50.2878 29.0627 50.8635 28.8243 51.2879 28.3998L51.8371 27.8506C52.2615 27.4262 52.5 26.8505 52.5 26.2502V24.5273C52.5 23.3168 51.7254 22.242 50.5769 21.8592C49.9996 21.6667 49.3754 21.6667 48.7981 21.8592Z" fill="#6E6E6E"/>
<path d="M6.59507 17.1016L5.77441 16.6484C9.49266 9.91596 15.8895 4.99774 23.3247 3.15479L23.5503 4.06482C16.3675 5.84506 10.1876 10.5969 6.59507 17.1016Z" fill="#DFDFDF"/>
<path d="M17.736 54.7953C11.694 51.8012 6.95893 46.7211 4.40283 40.4907L5.27018 40.1348C7.7397 46.1542 12.3146 51.0625 18.1522 53.9553L17.736 54.7953Z" fill="#DFDFDF"/>
<path d="M42.2641 54.795L41.8479 53.955C47.8165 50.9972 52.4434 45.9596 54.8763 39.77L55.7488 40.1129C53.2306 46.5195 48.4416 51.7338 42.2641 54.795Z" fill="#DFDFDF"/>
<path d="M53.4049 17.1016C49.8124 10.5969 43.6325 5.84506 36.4497 4.06482L36.6753 3.15479C44.1105 4.99774 50.5073 9.91595 54.2256 16.6484L53.4049 17.1016Z" fill="#DFDFDF"/>
<path d="M31.875 16.875L30 18.75L28.125 16.875L26.25 17.8125L30 22.5L33.75 17.8125L31.875 16.875Z" fill="#41A08E"/>
<path d="M30.4688 18.2812L30 18.75L29.5312 18.2812V21.9141L30 22.5L30.4688 21.9141V18.2812Z" fill="#349381"/>
<path d="M10.3126 29.5311C9.65526 29.5311 9.02532 29.3839 8.44019 29.0937L8.85675 28.2539C9.31125 28.4792 9.80106 28.5936 10.3126 28.5936C10.8148 28.5936 11.2965 28.4832 11.7443 28.2657L12.154 29.1089C11.5775 29.389 10.958 29.5311 10.3126 29.5311Z" fill="#CECECE"/>
<path d="M56.7105 36.1282L56.7235 36.1271L56.5908 35.1982C54.5259 35.491 52.9688 37.2866 52.9688 39.3751H53.9062C53.9062 37.7547 55.111 36.361 56.7105 36.1282Z" fill="#CC993E"/>
<path d="M55.3376 32.6899C52.672 33.9382 50.744 36.3897 50.1653 39.2829L50.1641 39.2892L50.1482 39.3748H51.1044C51.6572 36.765 53.4321 34.5648 55.8705 33.476L55.9782 33.4327C55.7982 33.1585 55.5831 32.9087 55.3376 32.6899Z" fill="#CC993E"/>
<path d="M48.3778 38.9392C48.8927 36.3648 50.3053 34.0438 52.3544 32.4045L53.3159 31.639L52.3141 31.2383L51.7696 31.6718C50.5259 32.6667 49.4991 33.8931 48.7378 35.2693C48.2856 34.267 47.5358 33.4124 46.579 32.8384L45.1689 31.9952L45.1381 32.0075C44.8087 32.1392 44.5055 32.3159 44.2328 32.5276L46.0973 33.6426C47.1375 34.2667 47.8826 35.2918 48.1602 36.4693C47.9749 36.9128 47.815 37.3677 47.6832 37.8326C46.8089 36.3426 45.2545 35.3277 43.4747 35.1762L42.7963 35.1141L42.6636 36.0433L43.3922 36.1101C45.2603 36.269 46.8268 37.5752 47.327 39.3752H48.2906L48.3778 38.9392Z" fill="#CC993E"/>
<path d="M30 27.1875C21.7157 27.1875 15 33.9032 15 42.1875C15 50.4718 21.7157 57.1875 30 57.1875C38.2843 57.1875 45 50.4718 45 42.1875C45 33.9032 38.2843 27.1875 30 27.1875ZM18.75 42.1875C18.75 36.6131 22.8043 31.9857 28.1249 31.0931L28.125 40.3125L20.393 48.0444C19.3506 46.3384 18.75 44.3331 18.75 42.1875ZM23.0378 51.025L28.125 45.9375L28.1261 53.2821C26.2263 52.9636 24.4879 52.1689 23.0378 51.025ZM31.875 53.2819L31.875 45.9375L36.9623 51.0249C35.5125 52.1687 33.7744 52.9633 31.875 53.2819ZM39.6071 48.0444L31.875 40.3125L31.8731 31.0927C37.1947 31.9846 41.25 36.6125 41.25 42.1875C41.25 44.3331 40.6494 46.3384 39.6071 48.0444Z" fill="#41A08E"/>
<path d="M49.6875 29.5312C48.9914 29.5312 48.3283 29.2692 47.8203 28.7936L48.4611 28.1093C48.7947 28.4217 49.2302 28.5937 49.6875 28.5937C50.1475 28.5937 50.585 28.4197 50.9195 28.104L51.5631 28.7856C51.0539 29.2664 50.3878 29.5312 49.6875 29.5312Z" fill="#575757"/>
<path d="M23.5003 11.263C23.7298 11.837 23.703 12.4832 23.4266 13.0361C22.5087 14.8719 22.2773 16.9795 22.7751 18.9708L22.8402 19.2311C22.2545 19.8122 21.8478 20.5577 21.6806 21.394L21.1028 24.2831L22.0221 24.4669L22.5999 21.5778C22.7999 20.5779 23.4378 19.7427 24.35 19.2866L26.1207 18.4013L29.6339 22.7929C29.7229 22.904 29.8575 22.9688 29.9999 22.9688C30.1424 22.9688 30.277 22.904 30.366 22.7929L33.8792 18.4013L35.6499 19.2866C36.5621 19.7427 37.2 20.5778 37.4 21.5778L37.9778 24.4669L38.8971 24.2831L38.3193 21.394C38.152 20.5577 37.7454 19.8122 37.1597 19.2311L37.2248 18.9708C37.7226 16.9795 37.4912 14.8719 36.5733 13.0361C36.2969 12.4832 36.27 11.837 36.4996 11.263C36.8876 10.2929 36.8683 9.23321 36.445 8.27911C36.1556 7.62674 35.7047 7.08189 35.1378 6.68633C35.1488 6.64653 35.1562 6.60542 35.1562 6.5625C35.1562 4.23626 33.2637 2.34375 30.9374 2.34375H29.0624C26.7362 2.34375 24.8437 4.23626 24.8437 6.5625C24.8437 6.60542 24.8511 6.64656 24.8621 6.68633C24.2952 7.08183 23.8444 7.6266 23.555 8.27888C23.1316 9.23298 23.1122 10.2928 23.5003 11.263ZM26.7187 7.31987C27.8079 7.52827 28.9037 7.63367 29.9999 7.63367C31.096 7.63367 32.1922 7.52827 33.2812 7.31987V9.375C33.2812 9.91116 32.9834 10.3931 32.5038 10.6327L30.6287 11.5703C30.2351 11.7672 29.7649 11.7673 29.3711 11.5702L27.496 10.6327C27.0165 10.3931 26.7187 9.91115 26.7187 9.375V7.31987ZM27.0768 11.4713L28.9517 12.4087C29.2799 12.5729 29.6399 12.655 29.9999 12.655C30.3599 12.655 30.72 12.5729 31.0481 12.4088L32.923 11.4713C33.0403 11.4127 33.1501 11.3445 33.2537 11.2695C33.1188 12.3209 32.4769 13.2375 31.5095 13.7211L30.6287 14.1615C30.2351 14.3583 29.7649 14.3584 29.371 14.1614L28.4904 13.7211C27.523 13.2375 26.8811 12.321 26.7462 11.2695C26.8497 11.3445 26.9596 11.4127 27.0768 11.4713ZM29.9999 18.087L28.5937 16.6809V14.8209L28.9517 14.9999C29.2799 15.1641 29.6399 15.2462 29.9999 15.2462C30.3599 15.2462 30.7199 15.1641 31.048 15L31.4062 14.821V16.6808L29.9999 18.087ZM28.0324 17.4454L29.5312 18.9441V21.1637L26.9782 17.9725L28.0324 17.4454ZM30.4687 21.1637V18.9441L31.9674 17.4454L33.0216 17.9725L30.4687 21.1637ZM35.6291 10.9149C35.3002 11.7373 35.3387 12.6632 35.7348 13.4554C36.531 15.0477 36.7456 16.8694 36.3474 18.6018C36.2567 18.5478 36.1646 18.4957 36.0691 18.448L32.3437 16.5854V14.3193C33.5101 13.5594 34.2187 12.2721 34.2187 10.8545V7.22983C34.8272 7.52798 35.3076 8.02694 35.5881 8.65917C35.9079 9.38038 35.9225 10.1815 35.6291 10.9149ZM29.0624 3.28125H30.9374C32.6183 3.28125 34.008 4.55154 34.1968 6.18255L33.2438 6.37321C31.0913 6.80374 28.9085 6.80374 26.756 6.37321L25.803 6.18255C25.9919 4.55154 27.3816 3.28125 29.0624 3.28125ZM24.4119 8.65906C24.6924 8.02683 25.1727 7.52804 25.7812 7.22989V10.8545C25.7812 12.272 26.4897 13.5594 27.6562 14.3193V16.5853L23.9308 18.448C23.8354 18.4957 23.7432 18.5478 23.6525 18.6018C23.2543 16.8694 23.4689 15.0477 24.2651 13.4554C24.6612 12.6632 24.6997 11.7373 24.3708 10.9149C24.0773 10.1813 24.0919 9.38015 24.4119 8.65906Z" fill="#365650"/>
<path d="M28.5938 40.3126L28.5937 31.0932C28.5937 30.9553 28.533 30.8243 28.4278 30.7353C28.3225 30.6463 28.1835 30.6084 28.0474 30.6308C25.3465 31.084 22.8742 32.4867 21.0858 34.5804C19.2772 36.6977 18.2812 39.3993 18.2812 42.1876C18.2812 44.3462 18.8731 46.4561 19.9929 48.2889C20.0679 48.4116 20.1949 48.4931 20.3376 48.51C20.3561 48.5123 20.3746 48.5134 20.393 48.5134C20.5166 48.5134 20.636 48.4645 20.7244 48.376L28.4565 40.6441C28.5444 40.5562 28.5938 40.4369 28.5938 40.3126ZM20.4948 47.2799C19.6583 45.7206 19.2188 43.9724 19.2188 42.1876C19.2188 39.6223 20.135 37.1369 21.7986 35.1892C23.3228 33.4049 25.3863 32.1662 27.6562 31.6619L27.6563 40.1184L20.4948 47.2799Z" fill="#365650"/>
<path d="M31.9505 30.6303C31.8145 30.608 31.6754 30.6457 31.5702 30.7349C31.465 30.8239 31.4042 30.9549 31.4043 31.0928L31.4062 40.3126C31.4062 40.4369 31.4557 40.556 31.5435 40.6439L39.2756 48.3757C39.3641 48.4642 39.4835 48.5131 39.607 48.5131C39.6254 48.5131 39.644 48.512 39.6625 48.5097C39.8052 48.4928 39.9321 48.4113 40.0071 48.2886C41.1269 46.4559 41.7187 44.346 41.7187 42.1875C41.7187 39.3988 40.7225 36.6968 38.9136 34.5794C37.1247 32.4855 34.6518 31.083 31.9505 30.6303ZM39.5053 47.2796L32.3437 40.1183L32.3419 31.6613C34.6122 32.1652 36.6762 33.4039 38.2008 35.1884C39.8648 37.1361 40.7812 39.6218 40.7812 42.1875C40.7812 43.9722 40.3417 45.7204 39.5053 47.2796Z" fill="#365650"/>
<path d="M28.3044 45.5044C28.1293 45.4319 27.9276 45.472 27.7936 45.6061L22.7064 50.6935C22.6117 50.7882 22.5621 50.9189 22.5699 51.0525C22.5778 51.1861 22.6424 51.31 22.7475 51.393C24.2878 52.6081 26.1209 53.4212 28.0487 53.7444C28.0745 53.7486 28.1004 53.7508 28.1262 53.7508C28.2362 53.7508 28.3438 53.712 28.429 53.6398C28.5343 53.5508 28.5949 53.4199 28.5949 53.282L28.5938 45.9374C28.5937 45.7478 28.4795 45.5769 28.3044 45.5044ZM23.7514 50.9743L27.6565 47.069L27.6573 52.7133C26.2569 52.4022 24.9241 51.8089 23.7514 50.9743Z" fill="#365650"/>
<path d="M32.2065 45.606C32.0724 45.472 31.8709 45.4319 31.6956 45.5044C31.5205 45.5769 31.4062 45.7478 31.4062 45.9374L31.4063 53.2819C31.4063 53.4198 31.467 53.5507 31.5722 53.6398C31.6575 53.7119 31.765 53.7506 31.8751 53.7506C31.9009 53.7506 31.9268 53.7485 31.9526 53.7442C33.88 53.4208 35.7127 52.6077 37.2526 51.3929C37.3577 51.31 37.4223 51.186 37.4302 51.0524C37.438 50.9188 37.3884 50.7881 37.2937 50.6935L32.2065 45.606ZM32.3438 52.7131L32.3438 47.0691L36.2486 50.9742C35.0764 51.8085 33.7437 52.4018 32.3438 52.7131Z" fill="#365650"/>
<path d="M23.5503 4.06482L23.3247 3.15479C15.8895 4.99774 9.49266 9.91595 5.77441 16.6484L6.59507 17.1016C10.1876 10.5969 16.3675 5.84506 23.5503 4.06482Z" fill="#365650"/>
<path d="M5.27018 40.1348L4.40283 40.4907C6.95893 46.7211 11.694 51.8012 17.736 54.7953L18.1522 53.9553C12.3146 51.0625 7.7397 46.1542 5.27018 40.1348Z" fill="#365650"/>
<path d="M41.8479 53.955L42.2641 54.795C48.4416 51.7338 53.2306 46.5195 55.7488 40.1129L54.8763 39.77C52.4434 45.9596 47.8165 50.9972 41.8479 53.955Z" fill="#365650"/>
<path d="M53.4049 17.1016L54.2256 16.6484C50.5073 9.91596 44.1105 4.99774 36.6753 3.15479L36.4497 4.06482C43.6325 5.84506 49.8124 10.5969 53.4049 17.1016Z" fill="#365650"/>
<path d="M57.0206 34.8927C56.8079 33.4033 55.808 32.131 54.4111 31.5723L52.0312 30.6204V28.3194L52.0805 28.2702C52.4494 29.113 53.2898 29.6856 54.2415 29.6856C55.5429 29.6856 56.6016 28.6269 56.6016 27.3256C56.6016 26.8759 56.4747 26.4414 56.2387 26.0676C56.5473 25.6622 56.7187 25.163 56.7187 24.6466C56.7187 23.8518 56.3145 23.1224 55.6724 22.6945C55.8446 22.3406 55.934 21.9522 55.934 21.5482C55.934 20.0982 54.7544 18.9187 53.3044 18.9187C53.0335 18.9187 52.7654 18.9604 52.5097 19.0413C52.0924 18.031 51.0994 17.344 49.9673 17.344C48.9457 17.344 48.0171 17.9178 47.5444 18.7923C47.1889 18.6346 46.8034 18.5528 46.4062 18.5528C44.8554 18.5528 43.5937 19.8145 43.5937 21.3653C43.5937 21.79 43.6912 22.2094 43.8741 22.5888C43.135 22.9906 42.6562 23.7684 42.6562 24.6466C42.6562 25.1972 42.8501 25.7262 43.1972 26.1441C43.0726 26.4437 43.0078 26.7665 43.0078 27.0944C43.0078 28.4586 44.1176 29.5684 45.4817 29.5684C46.2055 29.5684 46.8769 29.2577 47.3437 28.7221V30.6204L44.9638 31.5723C44.034 31.9443 43.269 32.6443 42.8043 33.5175C40.0192 29.4177 35.319 26.719 30 26.719C24.8737 26.719 20.3226 29.2262 17.5064 33.0781C16.9911 32.3472 16.2592 31.8009 15.3965 31.5132L12.6562 30.5999V28.8186C13.786 28.0608 14.5312 26.7723 14.5312 25.3127V22.6944L16.269 20.9566C16.3683 20.8574 16.4178 20.7188 16.404 20.579C16.3901 20.4392 16.3144 20.3131 16.1975 20.2352L12.9633 18.079C11.3531 17.0056 9.27206 17.0056 7.6617 18.079L4.42749 20.2352C4.31065 20.3131 4.23489 20.4392 4.22104 20.579C4.20719 20.7188 4.25674 20.8574 4.35602 20.9566L6.09375 22.6944V25.3127C6.09375 26.7723 6.839 28.0608 7.96875 28.8186V30.5999L5.2284 31.5132C3.50298 32.0885 2.34375 33.6969 2.34375 35.5156V39.3752H3.28125V35.5156C3.28125 34.5888 3.67013 33.7338 4.31457 33.1274L7.23999 35.0777C7.3193 35.1306 7.40982 35.1565 7.49983 35.1565C7.62085 35.1565 7.74084 35.1098 7.83148 35.0191L10.3125 32.5382L12.7935 35.0191C12.9516 35.1772 13.1991 35.2017 13.385 35.0777L16.3128 33.1259C16.5561 33.3553 16.7642 33.6232 16.9303 33.9224C15.4119 36.3149 14.5313 39.1503 14.5313 42.1877C14.5313 50.7172 21.4705 57.6565 30 57.6565C38.5295 57.6565 45.4688 50.7172 45.4688 42.1877C45.4688 40.0973 45.0511 38.1029 44.2962 36.2823C45.752 36.718 46.9082 37.8752 47.3253 39.3752H48.2905L48.3777 38.9392C48.8926 36.3648 50.3052 34.0439 52.3552 32.4038L52.892 31.9743L54.063 32.4427C54.3614 32.5621 54.6355 32.7246 54.881 32.9197C52.4528 34.2248 50.7104 36.5581 50.1653 39.2833L50.1482 39.3752H51.1044C51.6323 36.8826 53.2756 34.7644 55.5466 33.6306C55.8293 34.0412 56.0199 34.5169 56.0925 35.0252L56.1306 35.2914C54.299 35.7662 52.9688 37.4451 52.9688 39.3752H53.9062C53.9062 37.9093 54.8921 36.6296 56.2641 36.2263L56.7234 39.4415L57.6516 39.309L57.0206 34.8927ZM5.42324 20.6981L8.18172 18.859C9.47611 17.9963 11.1489 17.9963 12.4433 18.859L15.2018 20.6981L13.9153 21.9845C11.5521 21.4362 9.07291 21.4362 6.70967 21.9845L5.42324 20.6981ZM7.03125 25.3127V22.8709C9.1856 22.3882 11.4394 22.3882 13.5937 22.8709V25.3127C13.5937 27.122 12.1218 28.594 10.3125 28.594C8.50319 28.594 7.03125 27.122 7.03125 25.3127ZM7.44026 34.0845L5.14894 32.5569C5.27029 32.4991 5.39481 32.446 5.52486 32.4027L8.3259 31.469C8.6614 31.747 9.0466 31.9482 9.45986 32.065L7.44026 34.0845ZM8.90625 30.7308V29.2896C9.34639 29.4457 9.81952 29.5315 10.3125 29.5315C10.8055 29.5315 11.2786 29.4457 11.7187 29.2896V30.7308C11.3256 31.0634 10.8333 31.2457 10.3125 31.2457C9.79165 31.2457 9.29941 31.0634 8.90625 30.7308ZM13.1847 34.0845L11.1651 32.065C11.5784 31.9482 11.9636 31.747 12.2991 31.469L15.1001 32.4027C15.2301 32.446 15.3559 32.4978 15.4778 32.5558L13.1847 34.0845ZM52.0312 26.2502C52.0312 26.7296 51.8446 27.1803 51.5057 27.5191L50.9564 28.0683C50.6174 28.4073 50.1668 28.594 49.6875 28.594C49.2082 28.594 48.7575 28.4073 48.4185 28.0682L47.8694 27.5192C47.5304 27.1803 47.3437 26.7296 47.3437 26.2502V24.5273C47.3437 23.5169 47.9878 22.6235 48.9463 22.3039C49.1853 22.2242 49.4364 22.1844 49.6875 22.1844C49.9386 22.1844 50.1897 22.2243 50.4287 22.3039C51.3872 22.6235 52.0312 23.5169 52.0312 24.5273V26.2502ZM51.0937 29.1429V30.7308C50.7006 31.0634 50.2083 31.2457 49.6875 31.2457C49.1666 31.2457 48.6744 31.0634 48.2812 30.7308V29.1429C48.7016 29.3962 49.1841 29.5315 49.6875 29.5315C50.1909 29.5315 50.6734 29.3962 51.0937 29.1429ZM46.4062 24.5273V26.2502C46.4062 26.8009 46.5682 27.3266 46.8694 27.7733L46.7829 27.9121C46.4992 28.3622 46.0129 28.6309 45.4817 28.6309C44.6345 28.6309 43.9453 27.9417 43.9453 27.0944C43.9453 26.8134 44.0218 26.5387 44.1663 26.3001C44.287 26.1008 44.2427 25.8439 44.0642 25.6962C43.765 25.4292 43.5937 25.0474 43.5937 24.6466C43.5937 23.9902 44.039 23.4273 44.6766 23.2777C44.8329 23.241 44.9595 23.1269 45.0122 22.9754C45.0649 22.8237 45.0364 22.6557 44.9367 22.53C44.6714 22.1957 44.5312 21.793 44.5312 21.3653C44.5312 20.3314 45.3724 19.4903 46.4062 19.4903C46.802 19.4903 47.1804 19.6121 47.5003 19.8423C47.6241 19.9315 47.7833 19.9547 47.9275 19.9049C48.0716 19.855 48.1824 19.7382 48.2246 19.5917C48.4468 18.8203 49.1634 18.2815 49.9673 18.2815C50.8412 18.2815 51.5894 18.9022 51.7496 19.7587C51.757 19.8043 51.7714 19.8497 51.7931 19.8931C51.8975 20.1018 52.1393 20.2016 52.3607 20.1282C52.3972 20.116 52.4314 20.0997 52.4627 20.0799C52.7176 19.9335 53.0083 19.8562 53.3044 19.8562C54.2374 19.8562 54.9965 20.6153 54.9965 21.5482C54.9965 21.9263 54.875 22.283 54.645 22.5808C54.6167 22.6149 54.5928 22.6537 54.5746 22.6964C54.4773 22.9243 54.5745 23.1888 54.7962 23.2997C54.8152 23.3092 54.8346 23.3172 54.8543 23.324C55.409 23.525 55.7812 24.0557 55.7812 24.6466C55.7812 25.045 55.6111 25.4264 55.3146 25.6929L55.3125 25.6947C55.1214 25.8686 55.1068 26.1643 55.28 26.3558C55.2893 26.3661 55.2988 26.3758 55.3087 26.3849C55.5381 26.6449 55.6641 26.9776 55.6641 27.3256C55.6641 28.11 55.0259 28.7481 54.2415 28.7481C53.5615 28.7481 52.9743 28.2646 52.8465 27.6062L52.7824 27.2438C52.9043 26.9313 52.9687 26.5958 52.9687 26.2502V24.5273C52.9687 23.1128 52.0671 21.8619 50.7251 21.4145C50.056 21.1916 49.3189 21.1916 48.6499 21.4145C47.308 21.862 46.4062 23.1128 46.4062 24.5273ZM44.5312 42.1877C44.5312 50.2003 38.0126 56.719 30 56.719C21.9874 56.719 15.4687 50.2003 15.4687 42.1877C15.4687 34.1751 21.9874 27.6565 30 27.6565C38.0126 27.6565 44.5312 34.1751 44.5312 42.1877ZM47.6831 37.8327C46.8639 36.4367 45.4471 35.4587 43.806 35.216C43.68 34.9675 43.548 34.7226 43.4092 34.482C43.6321 33.7928 44.0815 33.1956 44.6719 32.7875L46.0972 33.6426C47.1374 34.2668 47.8825 35.2918 48.16 36.4693C47.9748 36.9129 47.8148 37.3678 47.6831 37.8327ZM51.7695 31.6719C50.5258 32.6667 49.499 33.8932 48.7377 35.2693C48.2855 34.2671 47.5358 33.4126 46.5795 32.8388L45.6765 32.297L47.7156 31.4813C48.271 31.9359 48.9602 32.1832 49.6875 32.1832C50.4148 32.1832 51.104 31.9359 51.6594 31.4813L51.8916 31.5742L51.7695 31.6719Z" fill="#365650"/>
</svg>
