<svg width="61" height="60" viewBox="0 0 61 60" fill="none" xmlns="http://www.w3.org/2000/svg">
<g clip-path="url(#clip0_19_16681)">
<path d="M43.2266 31.8052C43.2313 31.8054 43.2368 31.8056 43.2429 31.8056H47.113C47.2207 31.8056 47.3084 31.7178 47.3084 31.6102V25.9238L43.2355 31.7915C43.2321 31.7965 43.229 31.8012 43.2266 31.8052Z" fill="black"/>
<path d="M10.9165 31.8052C10.9212 31.8054 10.9268 31.8056 10.9328 31.8056H14.8032C14.9108 31.8056 14.9986 31.7178 14.9986 31.6102V25.9238L10.9254 31.7915C10.9219 31.7965 10.919 31.8012 10.9165 31.8052Z" fill="black"/>
<path d="M57.2627 11.562H3.57891C1.83751 11.562 0.420898 12.9789 0.420898 14.7202V45.2793C0.420898 47.0212 1.83751 48.438 3.57891 48.438H57.2627C59.0041 48.438 60.4209 47.0212 60.4209 45.2793V14.7202C60.4209 12.9789 59.0043 11.562 57.2627 11.562ZM21.3672 34.5984C21.3672 34.9217 21.1041 35.1848 20.7809 35.1848H19.1282C19.0205 35.1848 18.9327 35.2726 18.9327 35.3802V38.6003C18.9327 38.9236 18.6696 39.1867 18.3464 39.1867H15.5849C15.2616 39.1867 14.9985 38.9236 14.9985 38.6003V35.3802C14.9985 35.2726 14.9107 35.1848 14.8031 35.1848H7.7508C7.42758 35.1848 7.16445 34.9217 7.16445 34.5984V31.9097C7.16445 31.6553 7.28061 31.2941 7.42892 31.0873L14.5178 21.2121C14.6809 20.9847 15.0153 20.8131 15.2954 20.8131H18.3464C18.6696 20.8131 18.9327 21.0763 18.9327 21.3995V31.61C18.9327 31.7176 19.0205 31.8054 19.1282 31.8054H20.7809C21.1041 31.8054 21.3672 32.0685 21.3672 32.3918V34.5984ZM36.2752 38.9892C36.2031 39.1148 36.0619 39.1867 35.8874 39.1867H32.8608C32.576 39.1867 32.2474 38.9901 32.1127 38.7393L30.5542 35.8364C30.5509 35.8303 30.548 35.825 30.5449 35.8205C30.542 35.825 30.5391 35.8305 30.5359 35.8366L29.0387 38.7337C28.9073 38.9879 28.5805 39.1867 28.2946 39.1867H25.2436C25.0698 39.1867 24.9282 39.115 24.8552 38.9897C24.7821 38.8644 24.7895 38.7058 24.8751 38.5548L28.3228 32.4615C28.3945 32.3346 28.3927 32.1045 28.319 31.979L25.0263 26.3623C24.938 26.2118 24.9287 26.0536 25.0006 25.9283C25.0723 25.8028 25.2137 25.7308 25.3881 25.7308H28.5354C28.8222 25.7308 29.1479 25.9314 29.2768 26.1876L30.5156 28.6469C30.5165 28.6487 30.5174 28.6505 30.5183 28.6521C30.5192 28.6503 30.5201 28.6487 30.521 28.6469L31.7801 26.1852C31.9103 25.9303 32.2367 25.7308 32.523 25.7308H35.598C35.7722 25.7308 35.9136 25.8028 35.9857 25.9281C36.0579 26.0536 36.0487 26.212 35.9612 26.3625L32.6908 31.9779C32.6177 32.1032 32.6177 32.3312 32.691 32.4565L36.25 38.5552C36.338 38.7055 36.3471 38.8639 36.2752 38.9892ZM53.6773 34.5984C53.6773 34.9217 53.4142 35.1848 53.091 35.1848H51.4383C51.3306 35.1848 51.2428 35.2726 51.2428 35.3802V38.6003C51.2428 38.9236 50.9797 39.1867 50.6565 39.1867H47.8947C47.5715 39.1867 47.3084 38.9236 47.3084 38.6003V35.3802C47.3084 35.2726 47.2206 35.1848 47.1129 35.1848H40.0609C39.7377 35.1848 39.4746 34.9217 39.4746 34.5984V31.9097C39.4746 31.6553 39.5907 31.2941 39.7392 31.0873L46.8279 21.2121C46.991 20.9847 47.3254 20.8131 47.6057 20.8131H50.6567C50.9799 20.8131 51.2431 21.0763 51.2431 21.3995V31.61C51.2431 31.7176 51.3308 31.8054 51.4385 31.8054H53.0912C53.4144 31.8054 53.6776 32.0685 53.6776 32.3918V34.5984H53.6773Z" fill="black"/>
</g>
<defs>
<clipPath id="clip0_19_16681">
<rect width="60" height="60" fill="white" transform="translate(0.420898)"/>
</clipPath>
</defs>
</svg>
