<svg width="60" height="60" viewBox="0 0 60 60" fill="none" xmlns="http://www.w3.org/2000/svg">
<g clip-path="url(#clip0_15_5454)">
<path d="M55.4243 32.5541C52.8495 25.9207 48.7442 11.4476 39.3741 11.726C36.4284 11.8187 33.5988 13.2568 31.1402 15.4138C29.1687 8.94268 20.0071 8.66435 14.6725 11.0069C7.94625 13.9526 4.65271 22.0937 11.1238 27.0108C1.75346 30.629 -2.07354 47.5606 1.77666 55.5394C1.9854 55.9798 2.35651 56.1192 2.72761 56.0728C2.72761 56.096 2.72761 56.096 2.7508 56.1192C4.49035 58.7631 8.73485 58.5082 11.5181 58.5778C16.7832 58.6937 22.0482 58.0443 27.3132 57.8124C27.9394 57.7889 28.7048 57.3717 28.7976 56.6759C28.844 56.3048 28.8904 55.9105 28.9368 55.493C33.3668 60.2477 47.6079 58.0209 53.1745 56.7452C65.3049 53.9622 58.1148 39.4894 55.4243 32.5541ZM43.8737 17.0608C46.0539 18.8699 47.5847 21.3517 48.8372 24.019C48.7444 24.0886 48.6517 24.1582 48.5821 24.2741C46.1929 27.846 43.2475 24.0886 42.4357 22.1171C41.879 20.7718 39.513 20.7486 39.6524 22.4882C39.6986 22.6274 39.6986 22.7433 39.722 22.8593C39.722 22.8593 39.722 22.8593 39.6986 22.8593C39.6986 22.8825 39.722 22.8825 39.722 22.9057C39.8379 23.6943 39.4437 24.3205 38.4927 24.7148C37.4255 24.1813 37.1706 22.7201 37.0083 21.6996C36.7763 20.3311 34.5497 20.3775 34.2946 21.6996C34.0395 23.0912 33.1583 26.9878 31.0709 25.1323C30.0271 24.1813 29.9576 22.6505 30.0503 21.2589C33.7147 16.2952 39.0494 13.048 43.8737 17.0608ZM12.5387 26.2686C10.9615 24.0883 9.61622 21.9081 10.3352 19.148C10.9847 16.6199 13.3736 14.8803 15.5539 13.7206C17.966 12.445 20.8885 11.9579 23.5558 12.5146C26.6174 13.1408 27.5915 15.321 28.8904 17.7332C25.6896 21.5138 23.5094 26.4309 23.2079 30.6754C21.3292 28.3096 18.9402 26.6861 15.9482 26.3845C14.7885 26.2686 13.6984 26.3382 12.6546 26.5701C12.6314 26.4544 12.6082 26.3613 12.5387 26.2686ZM16.4352 29.3766C19.1721 30.0028 21.2596 32.3222 22.7904 35.3838C22.6512 35.3606 22.5121 35.3606 22.3497 35.3838C20.7957 35.6853 20.0999 35.9868 18.8242 34.3169C18.1516 33.4353 16.76 33.4587 16.412 34.6414C15.4611 37.8885 13.2345 34.1079 12.701 32.5539C12.3067 31.4176 10.4512 31.1857 10.1729 32.5539C9.89454 33.876 9.43066 34.8967 8.06222 35.2908C7.08807 35.5691 7.45918 35.3606 7.52876 34.5718C7.52876 34.4558 7.43598 34.3398 7.32001 34.3166C7.18085 34.2703 7.06488 34.2932 6.92572 34.2932C9.05956 30.6757 12.1212 28.4026 16.4352 29.3766ZM25.9912 54.7278C22.8832 54.774 19.7752 55.0989 16.6672 55.2613C13.1649 55.4236 7.7607 56.2586 4.6759 54.2175C4.32799 53.9856 3.98008 53.9856 3.63217 54.0781C2.95955 49.88 3.46982 42.458 5.74283 36.7986C5.90518 37.0306 6.09073 37.2393 6.36906 37.4249C8.31735 38.6541 10.2888 37.4483 11.5181 35.7781C13.3736 38.3526 16.3657 39.8834 18.1516 37.2393C19.4968 38.2367 20.9581 38.3526 23.0919 37.9119C23.4166 37.8421 23.6254 37.68 23.7645 37.4942C25.9216 43.177 26.5478 50.4135 25.9912 54.7278ZM47.3528 54.5191C41.9022 54.9597 35.3617 55.2149 30.1431 53.3825C29.7024 53.2204 29.3313 53.3364 29.0762 53.5683C29.3081 47.7234 28.218 39.3736 25.0404 33.4357C25.342 33.2502 25.5739 32.9487 25.5739 32.4618C25.6203 30.096 26.5712 27.0806 28.1252 24.228C28.3804 25.8283 29.1922 27.2664 30.8389 28.0086C33.1349 29.0291 34.7585 27.6143 35.8022 25.7356C37.5881 27.7766 40.441 28.055 41.763 26.0371C44.1056 28.5189 47.4456 29.4698 50.0665 26.8489C51.1336 29.609 52.038 32.4154 53.0817 34.8974C54.5429 38.3301 56.0044 41.6698 56.9087 45.3113C58.6019 52.1301 52.4787 54.1016 47.3528 54.5191Z" fill="black"/>
<path d="M3.95689 24.9696C2.40289 25.0856 1.54472 27.2426 1.01126 28.4951C0.61696 29.4692 2.12457 30.0027 2.63483 29.1909C2.98274 28.6575 3.33065 28.1472 3.72495 27.6369C4.21202 27.0339 4.74549 26.6628 4.79187 25.8046C4.81507 25.3873 4.39758 24.9466 3.95689 24.9696Z" fill="black"/>
<path d="M2.86677 19.8899C2.17096 20.0058 1.56791 20.9336 0.779318 20.6321C0.269051 20.4465 -0.194829 21.0959 0.0834988 21.5366C0.964869 22.8819 3.58579 22.6499 4.02647 21.0728C4.25841 20.3076 3.56259 19.7739 2.86677 19.8899Z" fill="black"/>
<path d="M5.37173 14.8106C4.95423 14.3235 4.53674 14.3467 3.95689 14.2076C3.35385 14.0684 2.7972 13.7669 2.28693 13.3958C1.45195 12.7927 0.663351 14.0452 1.2432 14.741C2.10138 15.7152 4.16564 17.1532 5.34853 15.9703C5.69644 15.6458 5.65005 15.1585 5.37173 14.8106Z" fill="black"/>
<path d="M8.5493 9.31364C7.3896 8.64101 6.32268 7.89881 5.20937 7.1566C4.51355 6.69272 3.5626 7.62048 4.04967 8.3163C4.83826 9.42961 6.18351 10.6357 7.3896 11.3083C8.68846 12.0273 9.82497 10.0793 8.5493 9.31364Z" fill="black"/>
<path d="M13.6056 7.22617C13.3273 6.57674 13.0257 5.92731 12.7474 5.27788C12.3531 4.4197 12.3299 3.51514 11.3094 3.19042C10.8687 3.05126 10.4512 3.2832 10.2193 3.63111C10.1729 3.6775 10.1497 3.74708 10.1033 3.79347C9.84816 4.16457 9.91774 4.65164 10.1033 5.02275C10.6136 6.04328 11.3094 6.97104 11.9124 7.92199C12.4459 8.80359 14.0231 8.24694 13.6056 7.22617Z" fill="black"/>
<path d="M18.7083 2.00734C18.1516 1.26513 17.247 1.26513 16.6904 2.00734C16.2729 2.56399 16.5744 3.60772 16.6208 4.23396C16.6904 4.97617 16.7368 5.71837 16.8759 6.43739C17.0383 7.24917 18.3603 7.24917 18.5227 6.43739C18.6619 5.69518 18.7083 4.97617 18.7778 4.23396C18.8474 3.60795 19.1257 2.56423 18.7083 2.00734Z" fill="black"/>
<path d="M23.6254 1.706C22.8368 2.61056 22.9064 3.81665 22.9759 4.95315C23.0687 6.20562 24.8315 6.20562 24.9242 4.95315C24.9938 4.07178 25.3417 3.30638 25.4345 2.4482C25.5505 1.54364 24.2052 1.0568 23.6254 1.706Z" fill="black"/>
<path d="M29.4703 4.11825C28.4961 4.60532 28.009 5.78821 27.3828 6.6C26.7334 7.43498 28.0554 8.26997 28.7744 7.66692C29.4471 7.08707 30.1893 6.48403 30.8387 5.8578C31.7433 4.95323 30.5604 3.58502 29.4703 4.11825Z" fill="black"/>
<path d="M34.5497 6.50724C33.2277 7.0407 32.7404 8.82664 31.9286 9.93995C31.2562 10.8677 32.6244 11.6331 33.3666 11.0533C33.9233 10.6126 34.3408 10.1023 34.7817 9.54565C35.2687 8.89622 35.8486 8.33956 35.8254 7.48139C35.8022 6.87811 35.176 6.25211 34.5497 6.50724Z" fill="black"/>
</g>
<defs>
<clipPath id="clip0_15_5454">
<rect width="60" height="60" fill="white"/>
</clipPath>
</defs>
</svg>
