<svg width="60" height="61" viewBox="0 0 60 61" fill="none" xmlns="http://www.w3.org/2000/svg">
<g clip-path="url(#clip0_19_18564)">
<path d="M30.0005 60.5313C46.569 60.5313 60.0005 47.0998 60.0005 30.5313C60.0005 13.9627 46.569 0.53125 30.0005 0.53125C13.4319 0.53125 0.000488281 13.9627 0.000488281 30.5313C0.000488281 47.0998 13.4319 60.5313 30.0005 60.5313Z" fill="#E74C3C"/>
<path d="M5.31769 13.4853L5.81749 13.9851C6.09597 14.2637 6.42662 14.4847 6.79055 14.6355C7.15448 14.7863 7.54455 14.8639 7.93849 14.8639C8.33242 14.8639 8.7225 14.7863 9.08642 14.6355C9.45035 14.4847 9.781 14.2637 10.0595 13.9851L13.4537 10.5909C14.5919 9.45205 14.0555 7.06165 12.9485 5.85265C9.96681 7.91752 7.38186 10.5031 5.31769 13.4853ZM24.6005 1.73125C24.6005 2.5269 24.9166 3.28996 25.4792 3.85257C26.0418 4.41518 26.8048 4.73125 27.6005 4.73125H32.4005C33.1961 4.73125 33.9592 4.41518 34.5218 3.85257C35.0844 3.28996 35.4005 2.5269 35.4005 1.73125V1.02565C33.6479 0.70645 31.8449 0.53125 30.0005 0.53125C28.1561 0.53125 26.3531 0.70645 24.6005 1.02565V1.73125ZM47.0519 5.85265C45.9449 7.06165 45.4085 9.45205 46.5467 10.5909L49.9409 13.9851C50.2194 14.2637 50.55 14.4847 50.914 14.6355C51.2779 14.7863 51.668 14.8639 52.0619 14.8639C52.4558 14.8639 52.8459 14.7863 53.2098 14.6355C53.5738 14.4847 53.9044 14.2637 54.1829 13.9851L54.6827 13.4853C52.6187 10.503 50.0337 7.91737 47.0519 5.85265ZM54.6833 47.5773L54.1835 47.0768C53.6208 46.5147 52.8579 46.199 52.0625 46.199C51.2671 46.199 50.5042 46.5147 49.9415 47.0768L46.5473 50.4717C45.9849 51.0342 45.6689 51.7972 45.6689 52.5927C45.6689 53.3881 45.9849 54.1511 46.5473 54.7137L47.0471 55.2135C50.0311 53.1481 52.6179 50.5612 54.6833 47.5773ZM10.0601 47.0768C9.49735 46.5147 8.73448 46.199 7.93909 46.199C7.14369 46.199 6.38083 46.5147 5.81809 47.0768L5.31769 47.5773C7.38186 50.5594 9.96681 53.145 12.9485 55.2099C14.0555 54.0003 14.5925 51.6099 13.4537 50.4723L10.0601 47.0768ZM58.8005 25.1313C58.0048 25.1313 57.2418 25.4473 56.6792 26.0099C56.1166 26.5725 55.8005 27.3356 55.8005 28.1313V32.9313C55.8005 33.7269 56.1166 34.49 56.6792 35.0526C57.2418 35.6152 58.0048 35.9313 58.8005 35.9313H59.5067C59.8253 34.1787 60.0005 32.3757 60.0005 30.5313C60.0005 28.6869 59.8253 26.8839 59.5067 25.1313H58.8005ZM35.4005 59.3313C35.4005 58.5356 35.0844 57.7725 34.5218 57.2099C33.9592 56.6473 33.1961 56.3313 32.4005 56.3313H27.6005C26.8048 56.3313 26.0418 56.6473 25.4792 57.2099C24.9166 57.7725 24.6005 58.5356 24.6005 59.3313V60.0375C26.3531 60.3561 28.1561 60.5313 30.0005 60.5313C31.8449 60.5313 33.6479 60.3561 35.4005 60.0375V59.3313ZM1.20049 35.9313C1.59445 35.9313 1.98456 35.8537 2.34854 35.7029C2.71252 35.5521 3.04323 35.3311 3.32181 35.0526C3.60038 34.774 3.82136 34.4433 3.97213 34.0793C4.12289 33.7153 4.20049 33.3252 4.20049 32.9313V28.1313C4.20049 27.7373 4.12289 27.3472 3.97213 26.9832C3.82136 26.6192 3.60038 26.2885 3.32181 26.0099C3.04323 25.7314 2.71252 25.5104 2.34854 25.3596C1.98456 25.2088 1.59445 25.1313 1.20049 25.1313H0.494888C0.175688 26.8839 0.000488281 28.6869 0.000488281 30.5313C0.000488281 32.3757 0.175688 34.1787 0.494888 35.9313H1.20049Z" fill="white"/>
<path d="M30.04 50.2772C40.9752 50.2772 49.84 41.4125 49.84 30.4772C49.84 19.542 40.9752 10.6772 30.04 10.6772C19.1048 10.6772 10.24 19.542 10.24 30.4772C10.24 41.4125 19.1048 50.2772 30.04 50.2772Z" fill="#C0392B"/>
<path d="M30.3005 45.9116C38.5848 45.9116 45.3005 39.1959 45.3005 30.9116C45.3005 22.6273 38.5848 15.9116 30.3005 15.9116C22.0163 15.9116 15.3005 22.6273 15.3005 30.9116C15.3005 39.1959 22.0163 45.9116 30.3005 45.9116Z" fill="white"/>
<path d="M19.2868 30.5265C19.0186 30.4821 18.7624 30.4047 18.5188 30.2937C18.2752 30.1827 18.0694 30.0495 17.9014 29.8935L18.2374 29.4069C18.268 29.3648 18.3079 29.3303 18.354 29.306C18.4001 29.2818 18.4511 29.2685 18.5032 29.2671C18.559 29.2671 18.616 29.2815 18.6748 29.3109L18.865 29.4177L19.0906 29.5455C19.1722 29.5887 19.2652 29.6241 19.3702 29.6523L19.4992 28.3299C19.33 28.2829 19.1632 28.2278 18.9994 28.1649C18.8375 28.1038 18.6864 28.0174 18.5518 27.9087C18.4155 27.7965 18.305 27.6563 18.2278 27.4977C18.145 27.3315 18.1036 27.1233 18.1036 26.8725C18.1036 26.6877 18.1408 26.5077 18.2158 26.3319C18.2922 26.1537 18.4033 25.9925 18.5428 25.8579C18.6963 25.7107 18.876 25.5935 19.0726 25.5123C19.2826 25.4223 19.5226 25.3767 19.7932 25.3767L19.8316 24.9819C19.8388 24.9159 19.8676 24.8559 19.9192 24.8025C19.9708 24.7491 20.0368 24.7227 20.119 24.7227H20.518L20.4478 25.4115C20.6998 25.4583 20.9164 25.5333 21.0982 25.6371C21.28 25.7409 21.4342 25.8519 21.5602 25.9713L21.2944 26.3595C21.2627 26.4094 21.2218 26.4528 21.1738 26.4873C21.1305 26.5148 21.0799 26.5288 21.0286 26.5275L20.9026 26.5029L20.749 26.4417L20.569 26.3631L20.3644 26.2899L20.242 27.5313L20.578 27.6381C20.6902 27.6765 20.7976 27.7209 20.9014 27.7713C21.0052 27.8217 21.1018 27.8793 21.1918 27.9447C21.3766 28.0768 21.5136 28.2652 21.5824 28.4817C21.6196 28.5969 21.6382 28.7283 21.6382 28.8753C21.6382 29.0967 21.601 29.3049 21.526 29.4999C21.4526 29.6924 21.3407 29.868 21.1972 30.0159C21.045 30.1706 20.8645 30.2946 20.6656 30.3813C20.4556 30.4761 20.2156 30.5337 19.945 30.5547L19.903 30.9921C19.8946 31.0593 19.8637 31.1216 19.8154 31.1691C19.7893 31.1953 19.7581 31.2158 19.7237 31.2293C19.6893 31.2429 19.6525 31.2491 19.6156 31.2477H19.2166L19.2868 30.5265ZM19.126 26.7729C19.126 26.9103 19.1698 27.0219 19.2574 27.1071C19.345 27.1923 19.4596 27.2637 19.6018 27.3219L19.7068 26.2653C19.6137 26.2776 19.5225 26.3018 19.4356 26.3373C19.3696 26.3637 19.3092 26.4021 19.2574 26.4507C19.2136 26.4924 19.1794 26.5432 19.1572 26.5995C19.1365 26.6549 19.1259 26.7137 19.126 26.7729ZM20.6092 29.0361C20.6118 28.9771 20.6018 28.9182 20.5799 28.8633C20.5579 28.8085 20.5246 28.759 20.482 28.7181C20.383 28.6307 20.2684 28.5629 20.1442 28.5183L20.032 29.6727C20.4166 29.6055 20.6092 29.3931 20.6092 29.0361ZM23.212 34.5285H24.892V30.1185C24.892 29.9025 24.898 29.6769 24.91 29.4405L23.92 30.2625C23.8627 30.3101 23.7978 30.3476 23.728 30.3735C23.6683 30.3948 23.6054 30.406 23.542 30.4065C23.4446 30.4081 23.3485 30.3845 23.263 30.3381C23.1928 30.3017 23.1306 30.2517 23.08 30.1911L22.492 29.4111L25.216 27.1245H26.752V34.5285H28.192V35.8725H23.212V34.5285ZM35.38 31.4985C35.38 32.2623 35.2978 32.9247 35.134 33.4845C34.9702 34.0449 34.7428 34.5087 34.4524 34.8765C34.162 35.2443 33.8182 35.5185 33.4204 35.6985C33.0226 35.8785 32.5912 35.9685 32.1274 35.9685C31.6636 35.9685 31.2346 35.8785 30.8404 35.6985C30.4462 35.5185 30.1054 35.2443 29.8174 34.8765C29.5294 34.5087 29.3044 34.0443 29.1424 33.4845C28.9804 32.9247 28.8994 32.2629 28.8994 31.4985C28.8994 30.7341 28.9804 30.0723 29.1424 29.5125C29.3044 28.9521 29.5294 28.4883 29.8174 28.1205C30.1054 27.7527 30.4462 27.4797 30.8404 27.3015C31.2346 27.1233 31.663 27.0345 32.1274 27.0345C32.5918 27.0345 33.0226 27.1233 33.4204 27.3015C33.8182 27.4797 34.162 27.7527 34.4524 28.1205C34.7428 28.4883 34.9696 28.9527 35.134 29.5125C35.2978 30.0723 35.38 30.7341 35.38 31.4985ZM33.46 31.4985C33.46 30.8943 33.4222 30.3993 33.346 30.0135C33.2698 29.6277 33.169 29.3247 33.043 29.1039C32.917 28.8843 32.7742 28.7331 32.614 28.6509C32.4538 28.5687 32.2918 28.5279 32.1274 28.5279C31.963 28.5279 31.8028 28.5687 31.6444 28.6509C31.486 28.7331 31.3468 28.8843 31.2244 29.1039C31.1026 29.3241 31.0048 29.6271 30.931 30.0135C30.8566 30.3999 30.8194 30.8943 30.8194 31.4985C30.8194 32.1069 30.8566 32.6025 30.931 32.9865C31.0048 33.3705 31.1026 33.6735 31.2244 33.8955C31.3468 34.1175 31.4866 34.2693 31.6444 34.3515C31.8022 34.4337 31.963 34.4745 32.1274 34.4745C32.2918 34.4745 32.4538 34.4337 32.614 34.3515C32.7742 34.2693 32.917 34.1175 33.043 33.8955C33.169 33.6735 33.2698 33.3705 33.346 32.9865C33.4216 32.6025 33.46 32.1069 33.46 31.4985ZM42.3394 31.4985C42.3394 32.2623 42.2572 32.9247 42.0934 33.4845C41.9296 34.0449 41.7022 34.5087 41.4118 34.8765C41.1214 35.2443 40.7776 35.5185 40.3798 35.6985C39.982 35.8785 39.5506 35.9685 39.0868 35.9685C38.623 35.9685 38.194 35.8785 37.7998 35.6985C37.4056 35.5185 37.0648 35.2443 36.7768 34.8765C36.4894 34.5087 36.2644 34.0443 36.1018 33.4845C35.9398 32.9247 35.8588 32.2629 35.8588 31.4985C35.8588 30.7341 35.9404 30.0723 36.1018 29.5125C36.2644 28.9521 36.4894 28.4883 36.7768 28.1205C37.0648 27.7527 37.4062 27.4797 37.7998 27.3015C38.1934 27.1233 38.6224 27.0345 39.0868 27.0345C39.5512 27.0345 39.982 27.1233 40.3798 27.3015C40.7776 27.4797 41.1214 27.7527 41.4118 28.1205C41.7022 28.4883 41.929 28.9527 42.0934 29.5125C42.2578 30.0723 42.3394 30.7341 42.3394 31.4985ZM40.4194 31.4985C40.4194 30.8943 40.3816 30.3993 40.3054 30.0135C40.2292 29.6277 40.1284 29.3247 40.0024 29.1039C39.8764 28.8843 39.7336 28.7331 39.5734 28.6509C39.4132 28.5687 39.2512 28.5279 39.0868 28.5279C38.9224 28.5279 38.7622 28.5687 38.6038 28.6509C38.4454 28.7331 38.3062 28.8843 38.1838 29.1039C38.062 29.3241 37.9642 29.6271 37.8904 30.0135C37.816 30.3999 37.7788 30.8943 37.7788 31.4985C37.7788 32.1069 37.816 32.6025 37.8904 32.9865C37.9642 33.3705 38.062 33.6735 38.1838 33.8955C38.3062 34.1175 38.446 34.2693 38.6038 34.3515C38.7616 34.4337 38.9224 34.4745 39.0868 34.4745C39.2512 34.4745 39.4132 34.4337 39.5734 34.3515C39.7336 34.2693 39.8764 34.1175 40.0024 33.8955C40.1284 33.6735 40.2292 33.3705 40.3054 32.9865C40.3816 32.6025 40.4194 32.1069 40.4194 31.4985Z" fill="#C0392B"/>
<path d="M29.9364 48.2619C39.5461 48.2619 47.3364 40.4717 47.3364 30.8619C47.3364 21.2522 39.5461 13.4619 29.9364 13.4619C20.3266 13.4619 12.5364 21.2522 12.5364 30.8619C12.5364 40.4717 20.3266 48.2619 29.9364 48.2619Z" stroke="white" stroke-width="1.8" stroke-miterlimit="10" stroke-dasharray="3.6 3.6"/>
</g>
<defs>
<clipPath id="clip0_19_18564">
<rect width="60" height="60" fill="white" transform="translate(0.000488281 0.53125)"/>
</clipPath>
</defs>
</svg>
