<svg width="61" height="60" viewBox="0 0 61 60" fill="none" xmlns="http://www.w3.org/2000/svg">
<path d="M18.5864 20.4107C19.0169 20.408 19.4437 20.4905 19.8422 20.6534C20.2407 20.8163 20.603 21.0564 20.9084 21.3599C21.2137 21.6633 21.4561 22.0242 21.6214 22.4216C21.7868 22.8191 21.8719 23.2454 21.8719 23.6759C21.8719 24.1064 21.7868 24.5326 21.6214 24.9301C21.4561 25.3276 21.2137 25.6884 20.9084 25.9919C20.603 26.2953 20.2407 26.5354 19.8422 26.6983C19.4437 26.8612 19.0169 26.9437 18.5864 26.9411H13.1584V13.8804H18.5871C19.0176 13.8778 19.4443 13.9603 19.8428 14.1232C20.2413 14.2861 20.6037 14.5261 20.909 14.8296C21.2144 15.1331 21.4567 15.4939 21.622 15.8914C21.7874 16.2889 21.8725 16.7151 21.8725 17.1456C21.8725 17.5761 21.7874 18.0024 21.622 18.3998C21.4567 18.7973 21.2144 19.1582 20.909 19.4616C20.6037 19.7651 20.2413 20.0052 19.8428 20.1681C19.4443 20.331 19.0169 20.4133 18.5864 20.4107Z" stroke="black" stroke-width="1.25" stroke-linecap="round" stroke-linejoin="round"/>
<path d="M18.5864 20.4106H13.1592" stroke="black" stroke-width="1.25" stroke-linecap="round" stroke-linejoin="round"/>
<path d="M25.3333 15.0259C25.855 15.0259 26.2779 14.6061 26.2779 14.0884C26.2779 13.5706 25.855 13.1509 25.3333 13.1509C24.8116 13.1509 24.3887 13.5706 24.3887 14.0884C24.3887 14.6061 24.8116 15.0259 25.3333 15.0259Z" fill="black"/>
<path d="M25.3333 18.0068V26.6592" stroke="black" stroke-width="1.25" stroke-linecap="round" stroke-linejoin="round"/>
<path d="M28.9009 13.7256V26.7865" stroke="black" stroke-width="1.25" stroke-linecap="round" stroke-linejoin="round"/>
<path d="M32.2327 13.7256V26.7865" stroke="black" stroke-width="1.25" stroke-linecap="round" stroke-linejoin="round"/>
<path d="M32.2327 24.0108L38.1548 18.1343" stroke="black" stroke-width="1.25" stroke-linecap="round" stroke-linejoin="round"/>
<path d="M34.0422 22.2153L38.8121 26.7866" stroke="black" stroke-width="1.25" stroke-linecap="round" stroke-linejoin="round"/>
<path d="M47.6841 23.6608C47.6788 24.5298 47.3298 25.3615 46.7134 25.9741C46.0969 26.5868 45.2632 26.9306 44.3941 26.9306C43.525 26.9306 42.6912 26.5868 42.0748 25.9741C41.4584 25.3615 41.1094 24.5298 41.104 23.6608V21.5384C41.1094 20.6693 41.4584 19.8377 42.0748 19.2251C42.6912 18.6124 43.525 18.2686 44.3941 18.2686C45.2632 18.2686 46.0969 18.6124 46.7134 19.2251C47.3298 19.8377 47.6788 20.6693 47.6841 21.5384" stroke="black" stroke-width="1.25" stroke-linecap="round" stroke-linejoin="round"/>
<path d="M47.6841 26.9253V18.2729" stroke="black" stroke-width="1.25" stroke-linecap="round" stroke-linejoin="round"/>
<path d="M11.8459 46.225V33.0591H16.0414C17.2085 33.0766 18.3217 33.5525 19.1408 34.3839C19.9599 35.2154 20.419 36.3357 20.419 37.5028C20.419 38.67 19.9599 39.7903 19.1408 40.6217C18.3217 41.4532 17.2085 41.9291 16.0414 41.9466H11.8459" stroke="black" stroke-width="1.25" stroke-linecap="round" stroke-linejoin="round"/>
<path d="M23.8142 33.252V46.4172" stroke="black" stroke-width="1.25" stroke-linecap="round" stroke-linejoin="round"/>
<path d="M27.2973 37.835V43.2658C27.2888 43.695 27.366 44.1215 27.5244 44.5205C27.6828 44.9194 27.9192 45.2827 28.2197 45.5892C28.5202 45.8957 28.8788 46.1392 29.2746 46.3054C29.6703 46.4716 30.0953 46.5572 30.5245 46.5572C30.9537 46.5572 31.3787 46.4716 31.7744 46.3054C32.1702 46.1392 32.5288 45.8957 32.8293 45.5892C33.1298 45.2827 33.3662 44.9194 33.5246 44.5205C33.683 44.1215 33.7602 43.695 33.7518 43.2658V37.835" stroke="black" stroke-width="1.25" stroke-linecap="round" stroke-linejoin="round"/>
<path d="M33.7515 43.2656V46.557" stroke="black" stroke-width="1.25" stroke-linecap="round" stroke-linejoin="round"/>
<path d="M37.4209 46.1909C38.1723 46.7181 39.0906 46.9523 40.0028 46.8491H40.6483C41.2082 46.8378 41.7413 46.6074 42.1333 46.2074C42.5253 45.8074 42.7449 45.2697 42.7449 44.7097C42.7449 44.1497 42.5253 43.6119 42.1333 43.2119C41.7413 42.812 41.2082 42.5816 40.6483 42.5703H39.1959C38.6354 42.5598 38.1015 42.3298 37.7088 41.9297C37.3162 41.5296 37.0962 40.9914 37.0962 40.4309C37.0962 39.8703 37.3162 39.3321 37.7088 38.9321C38.1015 38.532 38.6354 38.302 39.1959 38.2915H39.8414C41.2936 38.2915 41.9391 38.456 42.4233 38.9498" stroke="black" stroke-width="1.25" stroke-linecap="round" stroke-linejoin="round"/>
<path d="M42.7461 34.2334H48.9961" stroke="black" stroke-width="1.25" stroke-linecap="round" stroke-linejoin="round"/>
<path d="M45.8711 31.1084V37.3584" stroke="black" stroke-width="1.25" stroke-linecap="round" stroke-linejoin="round"/>
<path d="M51.0459 6.875H9.7959C9.13286 6.875 8.49697 7.13839 8.02813 7.60723C7.55929 8.07607 7.2959 8.71196 7.2959 9.375V50.625C7.2959 51.288 7.55929 51.9239 8.02813 52.3928C8.49697 52.8616 9.13286 53.125 9.7959 53.125H51.0459C51.7089 53.125 52.3448 52.8616 52.8137 52.3928C53.2825 51.9239 53.5459 51.288 53.5459 50.625V9.375C53.5459 8.71196 53.2825 8.07607 52.8137 7.60723C52.3448 7.13839 51.7089 6.875 51.0459 6.875Z" stroke="black" stroke-width="1.25" stroke-linecap="round" stroke-linejoin="round"/>
</svg>
