<svg width="512" height="512" viewBox="0 0 512 512" fill="none" xmlns="http://www.w3.org/2000/svg">
<g clip-path="url(#clip0_16_6045)">
<path d="M75.956 25.323H59.077V126.597H75.956V25.323Z" fill="#EF431D"/>
<path d="M452.921 25.323H436.042V126.597H452.921V25.323Z" fill="#EF431D"/>
<path d="M488.572 298.199L511.999 118.156H385.372C347.124 96.663 302.991 84.397 256 84.397C209.009 84.397 164.876 96.662 126.639 118.155H0.000976562L20.053 298.198L0.000976562 478.242H126.673C164.909 499.723 209.02 512 256 512C302.991 512 347.113 499.735 385.35 478.242H511.999L488.572 298.199Z" fill="#FD7555"/>
<path d="M511.999 118.156V478.242L478.241 444.484V151.914L511.999 118.156Z" fill="#EF431D"/>
<path d="M478.241 151.914V444.484H444.483L388.219 298.199L444.483 151.914H478.241Z" fill="#FDCE6E"/>
<path d="M444.483 151.914V444.484H376.517L368.809 448.816C334.555 468.07 295.542 478.242 256 478.242C216.481 478.242 177.479 468.07 143.203 448.816L135.506 444.484H33.759V151.914H135.472L143.169 147.582C177.433 128.34 216.447 118.156 256 118.156C295.553 118.156 334.578 128.34 368.831 147.582L376.528 151.914H444.483Z" fill="#FEFDCA"/>
<path d="M33.759 151.914V444.484L0.000976562 478.242V118.156L33.759 151.914Z" fill="#FE9F88"/>
<path d="M305.84 224.498H288.961V216.058C288.961 202.097 277.603 190.739 263.642 190.739H246.763C232.803 190.739 221.444 202.096 221.444 216.058V224.498H204.565V216.058C204.565 192.79 223.494 173.86 246.763 173.86H263.642C286.91 173.86 305.84 192.789 305.84 216.058V224.498Z" fill="#FD7555"/>
<path d="M319.906 216.059H286.148L319.906 272.322H353.664V249.817C353.664 231.25 338.473 216.059 319.906 216.059Z" fill="#FDA162"/>
<path d="M286.148 216.059H190.5C171.933 216.059 156.742 231.25 156.742 249.817V272.322H319.906V249.817C319.906 231.25 304.715 216.059 286.148 216.059Z" fill="#FDCE6E"/>
<path d="M378.983 297.641H131.424C126.762 297.641 122.984 301.42 122.984 306.081C122.984 310.742 126.762 314.521 131.424 314.521H378.983C383.645 314.521 387.423 310.742 387.423 306.081C387.423 301.42 383.644 297.641 378.983 297.641Z" fill="#FD7555"/>
<path d="M156.742 272.322V306.08L319.906 407.354C338.473 407.354 353.664 392.163 353.664 373.596V272.322H156.742Z" fill="#FD7555"/>
<path d="M157 306V373.516C157 392.083 172.191 407.274 190.758 407.274H320.164V306H157Z" fill="#FDA162"/>
<path d="M356.478 280.762H153.929C149.267 280.762 145.489 276.983 145.489 272.322C145.489 267.661 149.267 263.882 153.929 263.882H356.478C361.14 263.882 364.918 267.661 364.918 272.322C364.917 276.983 361.138 280.762 356.478 280.762Z" fill="#FDA162"/>
<path d="M511.999 0V33.758H478.241L455.735 16.879L478.241 0H511.999Z" fill="#FE9F88"/>
<path d="M478.241 0V33.758H16.88C7.56298 33.758 0.000976562 26.207 0.000976562 16.879C0.000976563 7.562 7.56298 0 16.88 0H478.241Z" fill="#FDCE6E"/>
<path d="M414.009 410.724C418.67 410.724 422.449 406.945 422.449 402.284C422.449 397.623 418.67 393.844 414.009 393.844C409.348 393.844 405.569 397.623 405.569 402.284C405.569 406.945 409.348 410.724 414.009 410.724Z" fill="#FDCE6E"/>
<path d="M109.714 202.549C114.375 202.549 118.154 198.77 118.154 194.109C118.154 189.448 114.375 185.669 109.714 185.669C105.053 185.669 101.274 189.448 101.274 194.109C101.274 198.77 105.053 202.549 109.714 202.549Z" fill="#FDCE6E"/>
<path d="M75.956 236.307C80.6173 236.307 84.396 232.528 84.396 227.867C84.396 223.206 80.6173 219.427 75.956 219.427C71.2947 219.427 67.516 223.206 67.516 227.867C67.516 232.528 71.2947 236.307 75.956 236.307Z" fill="#FDCE6E"/>
</g>
<defs>
<clipPath id="clip0_16_6045">
<rect width="512" height="512" fill="white"/>
</clipPath>
</defs>
</svg>
