<svg width="60" height="60" viewBox="0 0 60 60" fill="none" xmlns="http://www.w3.org/2000/svg">
<g clip-path="url(#clip0_16_13882)">
<path d="M51.2422 30.9251C51.2542 30.6636 51.1156 30.4214 50.8867 30.2973C50.6565 30.1719 50.3746 30.1864 50.1625 30.3394C40.5587 37.2091 33.2927 38.4478 29.1017 38.296C28.827 38.2936 28.551 38.4587 28.445 38.725C28.3389 38.9913 28.41 39.2985 28.6221 39.4865C31.9792 42.4737 36.3678 45.1283 41.6649 47.3804C41.7517 47.4165 41.8408 47.4346 41.9324 47.4346C42.071 47.4346 42.2108 47.3924 42.3301 47.3093C47.7079 43.4762 50.9554 37.5043 51.2422 30.9251Z" fill="black"/>
<path d="M36.7545 34.9208C36.6039 35.1643 36.6232 35.4764 36.7991 35.7005C36.9305 35.868 37.1305 35.9595 37.3329 35.9595C37.4064 35.9595 37.4787 35.9475 37.5498 35.9258C41.807 34.5124 46.2932 32.0409 50.8866 28.5838C51.0758 28.4416 51.177 28.2079 51.1553 27.9729C50.5276 21.4057 46.9801 15.6037 41.4239 12.067C41.2046 11.9285 40.925 11.9261 40.7009 12.061C40.4779 12.1972 40.3526 12.4478 40.3767 12.7081C41.5154 24.3772 39.0368 31.2288 36.7545 34.9208Z" fill="black"/>
<path d="M20.2161 12.368C30.8899 17.2144 35.5822 22.7875 37.6391 26.6121C37.7596 26.8363 37.9921 26.9712 38.2416 26.9712C38.2729 26.9712 38.3054 26.9676 38.3404 26.964C38.6235 26.9218 38.8513 26.7049 38.9103 26.4266C39.8165 22.0332 39.9177 16.9108 39.2212 11.2039C39.1935 10.969 39.0453 10.7641 38.826 10.6665C36.0605 9.40731 32.9962 8.73975 29.9693 8.73975C26.5893 8.73975 23.2045 9.56878 20.186 11.1401C19.9571 11.263 19.8113 11.5028 19.8185 11.7655C19.8257 12.0258 19.9788 12.2595 20.2161 12.368Z" fill="black"/>
<path d="M8.76147 29.0714C8.74942 29.3329 8.88679 29.5763 9.11695 29.7004C9.21817 29.7547 9.33143 29.7812 9.44229 29.7812C9.58087 29.7812 9.72185 29.739 9.83994 29.6559C19.4485 22.785 26.7351 21.5969 30.9043 21.6981C31.1779 21.7041 31.4526 21.5318 31.5562 21.2679C31.6623 21.0004 31.5888 20.6968 31.3755 20.5076C28.022 17.5204 23.6334 14.867 18.3327 12.6173C18.1182 12.5245 17.864 12.5498 17.6712 12.6908C12.2969 16.5203 9.04826 22.4922 8.76147 29.0714Z" fill="black"/>
<path d="M23.2491 25.0781C23.3997 24.8334 23.3828 24.5201 23.2057 24.2972C23.0298 24.0707 22.7285 23.9839 22.455 24.0707C18.193 25.4853 13.7056 27.9568 9.11578 31.4163C8.92539 31.5573 8.82417 31.7922 8.84707 32.0236C9.47487 38.5944 13.0224 44.3928 18.5774 47.9307C18.6894 48.0054 18.8171 48.0391 18.9461 48.0391C18.9533 48.0391 18.9581 48.0391 18.9654 48.0391C19.3425 48.0391 19.645 47.733 19.645 47.3583C19.645 47.2812 19.6317 47.2077 19.61 47.1354C18.5099 35.5627 20.9789 28.7545 23.2491 25.0781Z" fill="black"/>
<path d="M39.7863 47.6318C29.1149 42.7854 24.4227 37.2099 22.3633 33.3841C22.2272 33.1322 21.944 32.9973 21.6645 33.031C21.3801 33.0732 21.1511 33.2913 21.0945 33.5696C20.1883 37.9642 20.0847 43.0854 20.7824 48.7922C20.8101 49.0296 20.9583 49.2345 21.1752 49.3309C23.9431 50.5901 27.005 51.2564 30.0331 51.2564C33.4155 51.2564 36.7967 50.4274 39.8176 48.8597C40.0466 48.7356 40.1936 48.4934 40.1875 48.2319C40.1767 47.9704 40.0237 47.7379 39.7863 47.6318Z" fill="black"/>
<path d="M1.36647 18.1424C2.11959 18.1424 2.73172 17.5303 2.73172 16.7771V4.96584C2.73172 4.74654 2.90886 4.5694 3.12937 4.5694H14.9395C15.6926 4.5694 16.3047 3.95847 16.3047 3.20536C16.3047 2.45224 15.6926 1.84131 14.9395 1.84131H3.12937C1.40262 1.84131 0.0012207 3.24392 0.0012207 4.96705V16.7783C0.0012207 17.5291 0.613355 18.1424 1.36647 18.1424Z" fill="black"/>
<path d="M56.8743 1.83887H45.0618C44.3087 1.83887 43.6953 2.4498 43.6953 3.20291C43.6953 3.95603 44.3087 4.56696 45.0618 4.56696H56.8743C57.0936 4.56696 57.2719 4.7453 57.2719 4.96581V16.7759C57.2719 17.529 57.8816 18.14 58.6348 18.14C59.3879 18.14 60 17.529 60 16.7759V4.96581C60 3.24147 58.5974 1.83887 56.8743 1.83887Z" fill="black"/>
<path d="M58.6348 41.8564C57.8817 41.8564 57.2719 42.4686 57.2719 43.2217V55.0306C57.2719 55.2523 57.0936 55.4294 56.8743 55.4294H45.0642C44.3111 55.4294 43.6978 56.0428 43.6978 56.7959C43.6978 57.549 44.3111 58.1611 45.0642 58.1611H56.8743C58.5974 58.1611 60 56.7561 60 55.0306V43.2193C60 42.4686 59.3879 41.8564 58.6348 41.8564Z" fill="black"/>
<path d="M14.9394 55.4282H3.12695C2.90643 55.4282 2.73171 55.2499 2.73171 55.0282V43.2217C2.73171 42.4686 2.11957 41.8564 1.36646 41.8564C0.613339 41.8564 0 42.4686 0 43.2217V55.0306C0 56.7585 1.40261 58.1611 3.12695 58.1611H14.9394C15.6926 58.1611 16.3047 57.549 16.3047 56.7959C16.3047 56.0428 15.6926 55.4282 14.9394 55.4282Z" fill="black"/>
</g>
<defs>
<clipPath id="clip0_16_13882">
<rect width="60" height="60" fill="white"/>
</clipPath>
</defs>
</svg>
