<svg width="60" height="60" viewBox="0 0 60 60" fill="none" xmlns="http://www.w3.org/2000/svg">
<g clip-path="url(#clip0_18_15560)">
<path d="M29.0001 31C22.9351 31 18.0001 35.935 18.0001 42C18.0001 47.024 21.3901 51.2629 26.0001 52.5729V58.9999C26.0001 59.5519 26.4472 59.9999 27.0001 59.9999H31.0001C31.5531 59.9999 32 59.5519 32 58.9999V52.5729C36.61 51.263 40 47.024 40 42C40 35.935 35.0651 31 29.0001 31ZM29.0001 38C26.7941 38 25.0001 39.794 25.0001 42C25.0001 42.5519 24.5531 42.9999 24.0001 42.9999C23.4472 42.9999 23.0002 42.5519 23.0002 42C23.0002 38.691 25.6912 36 29.0002 36C29.5533 36 30.0001 36.4479 30.0001 36.9999C30.0001 37.5519 29.5531 38 29.0001 38Z" fill="black"/>
<path d="M25.0002 5C23.8972 5 23.0002 5.89701 23.0002 7C23.0002 8.103 23.8972 9.00001 25.0002 9.00001C26.1032 9.00001 27.0003 8.103 27.0003 7C27.0001 5.89701 26.1032 5 25.0002 5Z" fill="black"/>
<path d="M0.000366211 29.9959L7.26636 23.0938C8.84139 21.6929 11.1433 21.6328 12.7634 22.9298L19.8193 28.5748L26.9702 19.0399C27.4532 18.3948 28.1932 18.0249 29.0002 18.0249C29.8073 18.0249 30.5473 18.395 31.0303 19.0399L38.0703 28.4268L44.6623 21.1038C45.2583 20.4408 46.1113 20.0479 47.0023 20.0238C47.8993 20.0068 48.7533 20.3398 49.3933 20.9789L60.0002 31.5858V14H0.000366211V29.9959Z" fill="black"/>
<path d="M7.00037 5C5.89737 5 5.00037 5.89701 5.00037 7C5.00037 8.103 5.89737 9.00001 7.00037 9.00001C8.10337 9.00001 9.00037 8.103 9.00037 7C9.00037 5.89701 8.10337 5 7.00037 5Z" fill="black"/>
<path d="M16.0002 5C14.8972 5 14.0002 5.89701 14.0002 7C14.0002 8.103 14.8972 9.00001 16.0002 9.00001C17.1032 9.00001 18.0003 8.103 18.0003 7C18.0001 5.89701 17.1032 5 16.0002 5Z" fill="black"/>
<path d="M57.128 0H2.87223C1.28827 0 0.000244141 1.28898 0.000244141 2.87199V11.9999H60V2.87199C60 1.28898 58.712 0 57.128 0ZM7.00032 11C4.79432 11 3.00031 9.20595 3.00031 6.99995C3.00031 4.79396 4.79432 2.99995 7.00032 2.99995C9.20631 2.99995 11.0002 4.79396 11.0002 6.99995C11.0002 9.20595 9.20631 11 7.00032 11ZM16.0003 11C13.7943 11 12.0003 9.20595 12.0003 6.99995C12.0003 4.79396 13.7943 2.99995 16.0003 2.99995C18.2063 2.99995 20.0003 4.79396 20.0003 6.99995C20.0003 9.20595 18.2063 11 16.0003 11ZM25.0002 11C22.7942 11 21.0002 9.20595 21.0002 6.99995C21.0002 4.79396 22.7942 2.99995 25.0002 2.99995C27.2062 2.99995 29.0002 4.79396 29.0002 6.99995C29.0002 9.20595 27.2061 11 25.0002 11Z" fill="black"/>
<path d="M47.0538 22.0244C46.7037 22.0335 46.3828 22.1815 46.1488 22.4414L38.7428 30.6694C38.5428 30.8924 38.2698 31.0044 37.9548 30.9994C37.6568 30.9864 37.3798 30.8394 37.1998 30.6004L29.4308 20.2404C29.2899 20.0534 29.1008 20.0254 28.9998 20.0254C28.8998 20.0254 28.7098 20.0534 28.5698 20.2404L20.7998 30.6004C20.6378 30.8164 20.3949 30.9584 20.1259 30.9924C19.8589 31.0283 19.5869 30.9504 19.3749 30.7814L11.513 24.4914C10.656 23.8044 9.43899 23.8374 8.61799 24.5664L0 32.7543V41.8132C0 43.5702 1.43004 45.0002 3.18795 45.0002H16.3639C16.1349 44.0352 15.9999 43.0342 15.9999 42.0003C15.9999 34.8324 21.8319 29.0003 28.9999 29.0003C36.1678 29.0003 41.9998 34.8324 41.9998 42.0003C41.9998 43.0343 41.8658 44.0353 41.6368 45.0002H56.8128C58.5708 45.0002 59.9998 43.5702 59.9998 41.8132V34.4143L47.9788 22.3934C47.7307 22.1464 47.3988 22.0004 47.0538 22.0244Z" fill="black"/>
</g>
<defs>
<clipPath id="clip0_18_15560">
<rect width="60" height="60" fill="white"/>
</clipPath>
</defs>
</svg>
