<svg width="60" height="60" viewBox="0 0 60 60" fill="none" xmlns="http://www.w3.org/2000/svg">
<g clip-path="url(#clip0_19_15911)">
<path d="M57.1995 15.3287C53.1468 5.39497 43.1321 -0.374292 32.5402 0.0191482C31.8468 0.0449637 31.39 0.406053 31.1583 0.874979C2.67601 -1.52716 -11.399 39.4916 13.1234 55.2253C25.1913 62.968 41.327 61.2138 50.8833 50.5449C59.1481 41.3177 61.8885 26.8218 57.1995 15.3287ZM53.2602 25.3954C53.4292 25.5771 53.5896 25.7656 53.7622 25.9447C53.8229 26.0078 53.8961 26.0444 53.9631 26.0941C53.4887 25.9437 53.0099 25.8013 52.5263 25.6673C52.7894 25.6271 53.0416 25.5353 53.2602 25.3954ZM52.3848 13.6768C51.3032 12.1991 50.0898 10.7973 48.8246 9.4529C50.1875 10.6996 51.3773 12.1145 52.3848 13.6768ZM32.9935 3.51502C33.069 3.51175 33.1444 3.50685 33.2196 3.50358C33.43 3.49508 33.6065 3.4196 33.7657 3.32026C37.771 3.62187 41.3397 4.67246 44.4029 6.32694C44.332 6.43118 44.264 6.53673 44.1846 6.63673C43.4896 7.51543 42.6181 8.29512 41.7224 8.96175C40.9005 9.57282 39.994 10.1506 39.0451 10.5411C38.8967 10.6022 38.7565 10.6512 38.6193 10.6969C37.8151 9.46532 36.4423 8.4742 34.9133 7.89776C34.3594 7.68862 33.9245 7.87881 33.6643 8.23075C33.3836 8.17846 33.1056 8.14252 32.8268 8.11147C33.2029 6.63378 33.4039 4.95545 32.9935 3.51502ZM27.3686 11.7283C28.4251 10.9721 29.7136 10.6388 30.9557 10.3339C31.772 10.1336 32.6886 9.93097 33.5908 9.78066C33.7291 10.0097 33.9405 10.2048 34.2447 10.3215C36.3492 11.1276 37.6386 12.6873 36.0201 14.6866C34.6015 16.4391 32.0592 17.5456 29.8149 17.1374C27.5546 16.7266 24.8966 13.4981 27.3686 11.7283ZM23.3071 53.0552C23.361 52.6957 23.4058 52.3395 23.4516 51.983C23.6257 52.4428 23.7983 52.9032 23.977 53.3617C23.7447 53.2964 23.513 53.2303 23.2823 53.1594C23.2898 53.1232 23.3016 53.0928 23.3071 53.0552ZM24.5008 26.7166C24.3031 26.5963 24.0885 26.513 23.8672 26.4705C24.1339 26.2496 24.4116 26.0421 24.6835 25.8274C24.6227 26.1235 24.5613 26.4199 24.5008 26.7166ZM20.5106 24.1537C20.49 24.1706 20.4684 24.1824 20.4481 24.2004C19.5766 24.9729 18.7522 25.7908 17.9771 26.6479C19.0152 25.2846 20.1518 23.9925 21.3808 22.8152C21.0759 23.241 20.7867 23.6873 20.5106 24.1537ZM28.6653 22.8456C28.6878 22.7423 28.7117 22.6387 28.7346 22.5358C28.7591 22.4593 28.7764 22.3822 28.7865 22.3034C28.9761 21.4479 29.1555 20.5901 29.3597 19.7372C29.3672 19.7062 29.362 19.6774 29.3679 19.6471C29.4545 19.6631 29.5411 19.6817 29.628 19.6961C29.3153 20.8895 29.0241 22.0887 28.7454 23.2913C28.7382 23.1308 28.7104 22.9825 28.6653 22.8456ZM7.29044 44.8384C4.51217 40.4452 3.02664 35.1438 3.36061 29.4125C3.76451 22.4773 7.02412 15.8581 11.9336 11.0224C12.4065 10.5568 12.8944 10.1261 13.3911 9.71661C13.4045 9.75059 13.4208 9.78294 13.4365 9.81595C13.396 9.86366 13.3541 9.91071 13.329 9.96463C13.2999 10.0261 13.2708 10.0885 13.2414 10.1499C12.9558 10.7564 13.0434 11.2665 13.4522 11.7838C15.821 14.7797 20.2629 15.2823 23.8349 14.1618C24.0496 15.4467 24.7956 16.6829 25.7955 17.6665C19.4204 19.9336 14.8272 25.7444 11.6042 31.465C10.2488 33.8704 7.08392 40.3912 7.29044 44.8384ZM34.8251 56.4158C34.9571 56.1517 34.9728 55.8246 34.7836 55.4845C33.365 52.9294 31.4707 51.0207 30.4557 48.1656C29.2734 44.8403 29.1447 41.1896 29.1447 37.6976C29.1447 33.9583 29.5639 30.2474 30.0512 26.5444C30.1943 26.2153 30.2296 25.896 30.177 25.6029C30.4368 23.6658 30.706 21.7299 30.9364 19.7928C32.5608 19.7689 34.1673 19.2203 35.5669 18.3504C38.0513 25.7506 48.7151 29.2122 56.1659 29.787C55.3464 42.1637 47.0459 53.8721 34.8251 56.4158Z" fill="black"/>
</g>
<defs>
<clipPath id="clip0_19_15911">
<rect width="60" height="60" fill="white"/>
</clipPath>
</defs>
</svg>
