<svg width="60" height="60" viewBox="0 0 60 60" fill="none" xmlns="http://www.w3.org/2000/svg">
<path d="M13.2188 43.3125C7.5 42.8438 2.8125 35.625 2.8125 35.625C2.8125 44.5313 10.6875 47.8125 14.25 46.5938C17.4375 45.5625 13.2188 43.3125 13.2188 43.3125Z" fill="#947151"/>
<path d="M38.7187 52.5C40.3125 54.375 47.625 52.5 48.8437 50.3438C53.625 41.4375 48.8437 35.7188 48.8437 35.7188L38.7187 38.8125C38.7187 38.9063 36.6562 50.1563 38.7187 52.5Z" fill="#EABC92"/>
<path d="M31.875 56.625C33.6562 58.6875 40.125 58.5938 42 56.625C44.8125 53.8125 44.625 40.9687 44.8125 34.7812L32.9062 33.75C32.9062 33.75 29.625 53.9063 31.875 56.625Z" fill="#F5D1AC"/>
<path d="M25.0313 52.5C23.4375 54.375 16.125 52.5 14.9062 50.3438C10.125 41.4375 14.9062 35.7188 14.9062 35.7188L25.0313 38.8125C25.0313 38.9063 27.1875 50.1563 25.0313 52.5Z" fill="#EABC92"/>
<path d="M31.9687 56.625C30.1875 58.6875 23.7187 58.5938 21.8437 56.625C19.0312 53.8125 19.2187 40.9687 19.0312 34.7812L30.9375 33.75C30.9375 33.75 34.2187 53.9063 31.9687 56.625Z" fill="#F5D1AC"/>
<path d="M31.875 56.7187C31.5938 54.75 31.5 52.7812 31.5 50.8125C31.5 48.8437 31.5938 46.875 31.875 44.9062C32.1563 46.875 32.25 48.8437 32.25 50.8125C32.25 52.7812 32.1563 54.75 31.875 56.7187Z" fill="#423223"/>
<path d="M31.875 43.5937C22.3125 43.5937 17.4375 39.8438 17.4375 39.8438C17.4375 39.8438 20.625 48.375 31.875 48.375C43.125 48.375 46.3125 39.8438 46.3125 39.8438C46.3125 39.8438 41.4375 43.5937 31.875 43.5937Z" fill="#3E4347"/>
<path d="M29.1562 45.9375C29.1562 44.625 29.7188 43.5938 30.375 43.5C30.1875 43.3125 29.9063 43.2188 29.7188 43.2188C28.875 43.2188 28.2188 44.4375 28.2188 45.9375C28.2188 47.4375 28.875 48.6563 29.7188 48.6563C30 48.6563 30.1875 48.4688 30.375 48.2813C29.7188 48.2813 29.1562 47.25 29.1562 45.9375Z" fill="white"/>
<path d="M18.2813 40.3125C12.5625 36.75 10.3125 22.7813 12.1875 16.5C13.5937 11.8125 18.75 4.875 23.4375 3C27.375 1.5 36.4687 1.5 40.4062 3C45.0937 4.78125 50.3437 11.7188 51.6562 16.5C53.5312 22.875 52.125 36.75 46.4062 40.3125C34.4062 47.8125 30.2813 47.8125 18.2813 40.3125Z" fill="#F5D1AC"/>
<path d="M9.28125 17.9063C12.2813 24.375 13.0313 24.6563 15.9375 16.9688C17.4375 12.8438 16.4063 10.4063 18.1875 7.78125C19.2188 6.28125 21.4688 3.9375 21.4688 3.9375C21.4688 3.9375 3.46875 5.71875 9.28125 17.9063Z" fill="#423223"/>
<path d="M16.875 3.65623C12.375 6.46873 2.71875 5.34373 8.4375 17.5312C11.4375 24 12.1875 24.2812 15.0937 16.5937C16.5937 12.4687 15.5625 10.0312 17.3437 7.40623C18.375 5.90623 21.4687 3.93748 21.4687 3.93748C21.4687 3.93748 20.0625 1.68748 16.875 3.65623Z" fill="#947151"/>
<path d="M54.5625 17.9063C51.5625 24.375 50.8125 24.6563 47.9062 16.9688C46.4062 12.8438 47.4375 10.4063 45.6562 7.78125C44.625 6.28125 42.375 3.9375 42.375 3.9375C42.375 3.9375 60.375 5.71875 54.5625 17.9063Z" fill="#423223"/>
<path d="M46.9687 3.65623C51.4687 6.46873 61.2188 5.34373 55.5 17.5312C52.5 24 51.75 24.2812 48.8437 16.5937C47.3437 12.4687 48.375 10.0312 46.5938 7.40623C45.5625 5.90623 42.4688 3.93748 42.4688 3.93748C42.4688 3.93748 43.7812 1.68748 46.9687 3.65623Z" fill="#947151"/>
<path d="M19.875 18C22.6875 18 24.9375 20.1562 24.9375 22.875C24.9375 25.5937 22.6875 27.75 19.875 27.75C17.0625 27.75 14.8125 25.5937 14.8125 22.875C14.8125 20.1562 17.1563 18 19.875 18Z" fill="white"/>
<path d="M18.6562 26.5312C20.7273 26.5312 22.4062 24.8943 22.4062 22.875C22.4062 20.8557 20.7273 19.2188 18.6562 19.2188C16.5852 19.2188 14.9062 20.8557 14.9062 22.875C14.9062 24.8943 16.5852 26.5312 18.6562 26.5312Z" fill="#3E4347"/>
<path d="M48.9375 22.875C48.9375 25.5937 46.6875 27.75 43.875 27.75C41.0625 27.75 38.8125 25.5937 38.8125 22.875C38.8125 20.1562 41.0625 18 43.875 18C46.6875 18 48.9375 20.1562 48.9375 22.875Z" fill="white"/>
<path d="M45.1875 26.5312C47.2586 26.5312 48.9375 24.8943 48.9375 22.875C48.9375 20.8557 47.2586 19.2188 45.1875 19.2188C43.1164 19.2188 41.4375 20.8557 41.4375 22.875C41.4375 24.8943 43.1164 26.5312 45.1875 26.5312Z" fill="#3E4347"/>
<path d="M23.25 37.5937L27.1875 41.5312C29.5313 43.875 34.4063 43.875 36.75 41.5312L40.6875 37.5937L36.5625 33.5625H27.2813L23.25 37.5937Z" fill="#7D644B"/>
<path d="M31.875 30.0938C31.875 30.0938 27.75 35.8125 28.3125 38.5312C28.9687 42.4687 34.875 42.4687 35.5312 38.5312C36 35.8125 31.875 30.0938 31.875 30.0938Z" fill="#F15A61"/>
<path d="M31.875 40.0313L32.8125 34.5H31.0312L31.875 40.0313Z" fill="#BA454B"/>
<path d="M27.6562 31.6875H36.0938V35.4375H27.6562V31.6875Z" fill="#423223"/>
<path d="M45.2812 32.5313L39.2813 26.4375C35.625 22.7813 28.2187 22.7813 24.6562 26.4375L18.6562 32.5313C16.9687 34.2188 16.9687 37.0313 18.6562 38.8125C20.3437 40.5 23.1563 40.5 24.8438 38.8125L30.8438 32.7188C31.4063 32.1563 32.5312 32.1563 33.0938 32.7188L39.0938 38.8125C40.7813 40.5 43.5938 40.5 45.2812 38.8125C46.9687 37.125 46.9687 34.3125 45.2812 32.5313Z" fill="#947151"/>
<path d="M26.9062 26.9063C26.9062 24.75 29.1562 24.375 31.875 24.375C34.5937 24.375 36.8437 24.75 36.8437 26.9063C36.8437 28.5938 32.9062 30.0937 31.875 30.0937C30.9375 30.0937 26.9062 28.5938 26.9062 26.9063Z" fill="#3E4347"/>
<path d="M25.4062 28.7812L24.5625 29.625L25.4062 30.4687L26.25 29.625L25.4062 28.7812Z" fill="#3E4347"/>
<path d="M23.4375 31.0312L22.5938 31.875L23.4375 32.7188L24.2812 31.875L23.4375 31.0312Z" fill="#3E4347"/>
<path d="M26.0625 31.875L25.2188 32.7188L26.0625 33.5625L26.9063 32.7188L26.0625 31.875Z" fill="#3E4347"/>
<path d="M38.4375 28.7812L39.2813 29.625L38.4375 30.4687L37.5938 29.625L38.4375 28.7812Z" fill="#3E4347"/>
<path d="M40.4062 31.0312L41.25 31.875L40.4062 32.7188L39.5625 31.875L40.4062 31.0312Z" fill="#3E4347"/>
<path d="M37.7812 31.875L38.625 32.7188L37.7812 33.5625L36.9375 32.7188L37.7812 31.875Z" fill="#3E4347"/>
</svg>
