<svg width="60" height="60" viewBox="0 0 60 60" fill="none" xmlns="http://www.w3.org/2000/svg">
<path d="M28.3781 21.9867C33.706 14.9707 50.2658 30.914 46.2111 34.047C40.6587 38.3367 17.441 36.3902 28.3781 21.9867Z" fill="#1C80AA"/>
<path d="M23.4978 43.939L23.2136 51.7788L18.6615 53.031H22.5498L23.6877 55.0976L23.9724 53.031L26.3431 53.3907L24.0674 51.8737L24.5414 45.1407L23.4978 43.939ZM30.7242 45.1894L31.3383 53.0104L26.9595 54.7747L30.822 54.33L32.189 56.253L32.2353 54.1671L34.6312 54.2538L32.1972 53.0069L31.8978 46.264L30.7242 45.1894Z" fill="#3B5174"/>
<path d="M13.1678 15.5138L11.7615 18.4546C11.6641 18.658 11.5143 18.8317 11.3276 18.9581C11.1409 19.0845 10.9239 19.159 10.699 19.1739C10.474 19.1888 10.2491 19.1436 10.0473 19.043C9.84557 18.9423 9.6742 18.7898 9.55079 18.6011L7.70099 15.7728C7.5775 15.5841 7.50642 15.366 7.49503 15.1408C7.48364 14.9155 7.53235 14.6914 7.63617 14.4912C7.73999 14.291 7.89518 14.122 8.08583 14.0016C8.27648 13.8811 8.49574 13.8136 8.72111 13.8058L11.9795 13.6933C12.1979 13.6861 12.4144 13.7354 12.6082 13.8362C12.802 13.9371 12.9666 14.0862 13.086 14.2691C13.2054 14.4521 13.2757 14.6627 13.29 14.8808C13.3043 15.0988 13.2622 15.3168 13.1678 15.5138Z" fill="#DE7B56"/>
<path d="M52.7655 37.4274C51.6932 42.5198 39.7659 49.6225 24.7577 47.4786C8.81607 45.2016 1.52349 16.5165 18.4571 6.06806C27.9053 0.238563 37.6002 6.36102 39.3633 13.7069C41.7774 23.7581 34.169 31.3231 43.9202 35.6837C49.0126 37.9636 53.5547 33.6722 52.7655 37.4274Z" fill="#FDD2BE"/>
<path d="M19.5358 15.5144C19.5358 15.7641 19.5849 16.0113 19.6805 16.242C19.7761 16.4727 19.9161 16.6823 20.0927 16.8589C20.2692 17.0354 20.4788 17.1755 20.7095 17.271C20.9402 17.3666 21.1874 17.4158 21.4371 17.4158C21.6868 17.4158 21.9341 17.3666 22.1648 17.271C22.3954 17.1755 22.605 17.0354 22.7816 16.8589C22.9582 16.6823 23.0982 16.4727 23.1938 16.242C23.2893 16.0113 23.3385 15.7641 23.3385 15.5144C23.3385 15.0101 23.1382 14.5265 22.7816 14.1699C22.425 13.8134 21.9414 13.613 21.4371 13.613C20.9329 13.613 20.4492 13.8134 20.0927 14.1699C19.7361 14.5265 19.5358 15.0101 19.5358 15.5144Z" fill="black"/>
<path d="M30.0141 21.4454C38.0695 17.8794 44.8582 39.8439 39.7945 40.6238C32.86 41.6931 13.4766 28.765 30.0141 21.4454ZM13.084 31.0548C12.5367 30.9025 12.0762 30.3048 11.6813 29.2384C11.4942 28.7225 11.3446 28.1938 11.2336 27.6564C11.2119 27.5453 11.2353 27.4301 11.2985 27.3362C11.3618 27.2423 11.4597 27.1774 11.5708 27.1557C11.6819 27.134 11.7971 27.1574 11.891 27.2206C11.9849 27.2838 12.0498 27.3818 12.0715 27.4929C12.3522 28.9284 12.9504 30.214 13.3553 30.2427C13.4209 30.2474 14.025 30.2134 14.9508 27.5761C14.9882 27.4693 15.0666 27.3818 15.1685 27.3328C15.219 27.3086 15.2738 27.2945 15.3298 27.2914C15.3857 27.2883 15.4417 27.2962 15.4945 27.3148C15.5474 27.3333 15.5961 27.3621 15.6378 27.3994C15.6796 27.4368 15.7136 27.482 15.7378 27.5325C15.7621 27.583 15.7762 27.6378 15.7793 27.6937C15.7824 27.7497 15.7744 27.8057 15.7559 27.8585C14.9584 30.1302 14.1738 31.1579 13.2949 31.0941C13.2235 31.0881 13.1528 31.075 13.084 31.0548ZM19.9688 34.5915C19.4045 34.6583 18.7518 34.2798 17.9813 33.4413C17.6123 33.0345 17.2731 32.6015 16.9664 32.1458C16.9356 32.099 16.9144 32.0466 16.9039 31.9915C16.8934 31.9365 16.8938 31.8799 16.9051 31.8251C16.9165 31.7702 16.9385 31.7181 16.97 31.6717C17.0015 31.6254 17.0418 31.5857 17.0886 31.5549C17.1354 31.5241 17.1878 31.5029 17.2429 31.4924C17.2979 31.4818 17.3545 31.4823 17.4094 31.4936C17.4642 31.505 17.5163 31.527 17.5627 31.5585C17.609 31.59 17.6487 31.6303 17.6795 31.6771C18.484 32.8988 19.527 33.8609 19.9102 33.7349C19.9729 33.7144 20.5184 33.4536 20.3748 30.6622C20.3719 30.6063 20.3801 30.5503 20.3989 30.4974C20.4176 30.4446 20.4466 30.396 20.4841 30.3544C20.5217 30.3128 20.567 30.2789 20.6177 30.2548C20.6683 30.2308 20.7231 30.2169 20.7791 30.214C20.8351 30.2111 20.8911 30.2193 20.9439 30.238C20.9967 30.2568 21.0453 30.2858 21.087 30.3233C21.1286 30.3608 21.1624 30.4062 21.1865 30.4568C21.2106 30.5074 21.2245 30.5623 21.2274 30.6183C21.351 33.0206 21.017 34.2704 20.1756 34.5441C20.1084 34.5667 20.0391 34.5826 19.9688 34.5915ZM15.3223 38.655C14.7949 38.6439 14.2471 38.2126 13.6488 37.3454C13.3636 36.925 13.109 36.4847 12.8871 36.0277C12.8446 35.9334 12.8408 35.8261 12.8765 35.729C12.9122 35.632 12.9846 35.5528 13.0781 35.5085C13.1716 35.4642 13.2787 35.4583 13.3764 35.4922C13.4742 35.5261 13.5547 35.5969 13.6008 35.6896C14.1809 36.913 15.0129 37.9284 15.3803 37.8622C15.4389 37.8517 15.9738 37.6823 16.2006 35.1083C16.2051 35.0567 16.2198 35.0064 16.2438 34.9604C16.2677 34.9144 16.3005 34.8736 16.3403 34.8402C16.38 34.8069 16.426 34.7817 16.4754 34.7662C16.5249 34.7506 16.577 34.7449 16.6286 34.7494C16.6803 34.754 16.7306 34.7687 16.7766 34.7926C16.8226 34.8166 16.8634 34.8494 16.8967 34.8891C16.93 34.9289 16.9552 34.9748 16.9708 35.0243C16.9864 35.0737 16.9921 35.1258 16.9875 35.1775C16.7918 37.3964 16.3248 38.4974 15.5186 38.6415C15.4538 38.6526 15.388 38.6571 15.3223 38.655ZM22.8094 42.3218C22.2668 42.4888 21.5567 42.2333 20.6479 41.5472C20.212 41.2132 19.8008 40.8482 19.4174 40.455C19.3392 40.3732 19.2968 40.2637 19.2994 40.1505C19.3019 40.0374 19.3493 39.9299 19.4312 39.8518C19.513 39.7736 19.6225 39.7312 19.7356 39.7337C19.8488 39.7363 19.9562 39.7837 20.0344 39.8656C21.0451 40.9232 22.2434 41.682 22.5979 41.4892C22.6565 41.4575 23.1457 41.1031 22.5035 38.3837C22.4906 38.3292 22.4886 38.2727 22.4976 38.2174C22.5065 38.1621 22.5263 38.1091 22.5557 38.0614C22.5852 38.0138 22.6237 37.9724 22.6691 37.9396C22.7146 37.9068 22.766 37.8833 22.8205 37.8704C22.875 37.8575 22.9316 37.8555 22.9869 37.8645C23.0422 37.8734 23.0952 37.8932 23.1428 37.9226C23.1905 37.9521 23.2319 37.9906 23.2646 38.036C23.2974 38.0815 23.3209 38.1329 23.3338 38.1874C23.8869 40.5312 23.782 41.8202 23.0039 42.2398C22.942 42.2735 22.8768 42.301 22.8094 42.3218Z" fill="#22B0C3"/>
</svg>
