<svg width="61" height="60" viewBox="0 0 61 60" fill="none" xmlns="http://www.w3.org/2000/svg">
<g clip-path="url(#clip0_19_17283)">
<path d="M60.0129 38.6442V26.4408C60.0129 24.5086 58.3857 22.373 56.4535 22.373C54.5214 22.373 52.8942 24.4069 52.8942 26.3391V21.356C52.8942 19.4238 51.2671 17.2882 49.3349 17.2882C47.4027 17.2882 45.7755 19.4238 45.7755 21.356V28.4747V17.2882C45.7755 15.356 44.1484 13.2204 42.2162 13.2204C40.284 13.2204 38.6569 15.356 38.6569 17.2882V5.0849C38.6569 3.15271 37.0297 1.01709 35.0975 1.01709C33.1653 1.01709 31.5382 3.15271 31.5382 5.0849V33.5595C31.5382 30.712 29.0975 25.0171 26.4534 22.373C24.2161 20.1356 17.911 21.6611 21.3687 26.4408C23.8093 29.7967 25.4365 36.9154 25.4365 40.6781C25.4365 49.729 32.5551 52.8816 32.5551 52.8816V60.0001H56.9619V52.8815C60.2163 48.5086 60.0129 48.7121 60.0129 38.6442Z" fill="#FDC794"/>
<path d="M45.7756 51.8645H42.7247C42.1145 51.8645 41.7078 51.4577 41.7078 50.8475C41.7078 50.2373 42.1145 49.8306 42.7247 49.8306H45.7756C46.3858 49.8306 46.7925 50.2373 46.7925 50.8475C46.7925 51.4577 46.3857 51.8645 45.7756 51.8645Z" fill="#F9A671"/>
<path d="M46.7926 55.9323H41.7079C41.0977 55.9323 40.6909 55.5256 40.6909 54.9154C40.6909 54.3052 41.0977 53.8984 41.7079 53.8984H46.7926C47.4028 53.8984 47.8096 54.3052 47.8096 54.9154C47.8096 55.5256 47.4027 55.9323 46.7926 55.9323Z" fill="#F9A671"/>
<path d="M23.4028 7.52556C17.7078 16.2714 7.74172 16.2714 2.04688 7.52556C7.74184 -1.11854 17.7079 -1.11854 23.4028 7.52556Z" fill="white"/>
<path d="M3.2672 7.52543C5.80958 11.0848 9.16548 13.017 12.7248 13.017C16.2841 13.017 19.64 10.983 22.1824 7.52543C19.64 4.06781 16.2841 2.03391 12.7248 2.03391C9.16548 2.03391 5.80958 4.06781 3.2672 7.52543ZM12.7248 15.1526C8.35196 15.1526 4.08071 12.6102 1.23329 8.13563L0.826416 7.52543L1.23317 7.01695C4.08071 2.54238 8.35185 0 12.7248 0C17.0978 0 21.3689 2.54238 24.2163 7.01695L24.6231 7.52543L24.2163 8.13563C21.3688 12.6102 17.0977 15.1526 12.7248 15.1526Z" fill="#B1D3EF"/>
<path d="M16.7926 5.0849C16.7926 2.84756 14.9621 1.01709 12.7248 1.01709C10.4875 1.01709 8.65698 2.84756 8.65698 5.0849C8.65698 7.32225 10.4875 9.15271 12.7248 9.15271C14.9621 9.15271 16.7926 7.32213 16.7926 5.0849Z" fill="#556080"/>
<path d="M38.6568 30.5087C38.0467 30.5087 37.6399 30.1019 37.6399 29.4917V16.2713C37.6399 15.6612 38.0467 15.2544 38.6568 15.2544C39.267 15.2544 39.6738 15.6612 39.6738 16.2713V29.4917C39.6738 30.1019 39.267 30.5087 38.6568 30.5087Z" fill="#F9A671"/>
<path d="M45.7755 31.5257C45.1653 31.5257 44.7585 31.1189 44.7585 30.5087V20.3392C44.7585 19.729 45.1653 19.3223 45.7755 19.3223C46.3857 19.3223 46.7924 19.729 46.7924 20.3392V30.5087C46.7924 31.1189 46.3856 31.5257 45.7755 31.5257Z" fill="#F9A671"/>
<path d="M52.8942 31.5254C52.284 31.5254 51.8772 31.1187 51.8772 30.5085V25.4237C51.8772 24.8135 52.284 24.4067 52.8942 24.4067C53.5043 24.4067 53.9111 24.8135 53.9111 25.4237V30.5085C53.9111 31.1187 53.5043 31.5254 52.8942 31.5254Z" fill="#F9A671"/>
</g>
<defs>
<clipPath id="clip0_19_17283">
<rect width="60" height="60" fill="white" transform="translate(0.420898)"/>
</clipPath>
</defs>
</svg>
