<svg width="60" height="61" viewBox="0 0 60 61" fill="none" xmlns="http://www.w3.org/2000/svg">
<g clip-path="url(#clip0_19_18826)">
<path d="M23.0743 6.36884V6.36778H23.0741C23.0736 6.20325 22.9657 6.03849 22.7498 5.91321C22.3168 5.66185 21.6072 5.66138 21.1731 5.91204C20.9559 6.03743 20.8473 6.20267 20.8472 6.36778V50.8156C20.8471 50.9807 20.9553 51.1457 21.172 51.2709C21.6056 51.5212 22.3152 51.5218 22.7488 51.272C22.9663 51.1468 23.0746 50.9812 23.0741 50.8156V6.36966C23.0743 6.36942 23.0743 6.36919 23.0743 6.36884Z" fill="#C6C5CB"/>
<path d="M38.8299 15.4399V15.4388H38.8297C38.8292 15.2743 38.7213 15.1095 38.5054 14.9843C38.0724 14.7329 37.3629 14.7324 36.9287 14.9831C36.7115 15.1085 36.6029 15.2737 36.6028 15.4388V59.8866C36.6027 60.0516 36.7109 60.2168 36.9276 60.3419C37.3612 60.5922 38.0708 60.5928 38.5044 60.3431C38.7219 60.2178 38.8302 60.0522 38.8297 59.8866V15.4407C38.8299 15.4405 38.8299 15.4401 38.8299 15.4399Z" fill="#C6C5CB"/>
<path d="M44.2406 16.8077L16.2466 0.64544C16.0261 0.518057 15.8249 0.500245 15.6726 0.571729L15.183 0.806222C15.0113 0.888487 14.9026 1.08536 14.9026 1.37364V19.9763C14.9026 20.521 15.2885 21.1895 15.7602 21.4617L43.7543 37.6241C43.9841 37.7569 44.1931 37.7711 44.3475 37.6888L44.8094 37.4674C44.9861 37.3877 45.0984 37.189 45.0984 36.896V18.2933C45.0982 17.7486 44.7123 17.0801 44.2406 16.8077Z" fill="#02665A"/>
<path d="M15.7602 0.878429C15.2885 0.606085 14.9026 0.828975 14.9026 1.37366V19.9762C14.9026 20.5209 15.2885 21.1894 15.7602 21.4616L43.7542 37.624C44.2258 37.8963 44.6117 37.6734 44.6117 37.1289V18.5263C44.6117 17.9816 44.2258 17.3132 43.7542 17.0409L15.7602 0.878429Z" fill="#008778"/>
<path d="M43.9185 36.9184L16.1069 20.8615C15.8488 20.7125 15.5957 20.2741 15.5957 19.9765V1.58423L43.4076 17.6413C43.6656 17.7904 43.9185 18.2286 43.9185 18.5263V36.9184ZM16.4039 20.3469L43.3244 35.8893V18.5263C43.3224 18.4372 43.1864 18.2017 43.1102 18.1555L16.1897 2.61313V19.9762C16.1915 20.0653 16.3277 20.3008 16.4041 20.3469H16.4039Z" fill="#E0E0E2"/>
<path d="M25.227 13.1957C24.7834 12.9396 24.3885 12.8067 24.0401 12.7961C23.6917 12.7855 23.3979 12.8644 23.1562 13.0345C22.9147 13.2024 22.7295 13.4437 22.6044 13.763C22.4772 14.0792 22.4123 14.4376 22.4111 14.8372C22.41 15.254 22.4784 15.7046 22.6126 16.1846C22.7486 16.6655 22.9376 17.136 23.1792 17.5914C23.4208 18.0468 23.7115 18.4721 24.0473 18.8629C24.3833 19.2537 24.7534 19.567 25.1612 19.8024C25.3905 19.9348 25.6256 20.036 25.8665 20.1079C26.1074 20.1778 26.3332 20.2108 26.5441 20.2027C26.7551 20.1946 26.9454 20.1466 27.1151 20.0585C27.2847 19.9682 27.4132 19.826 27.506 19.633L26.6017 18.5115C26.5372 18.6516 26.4504 18.753 26.3428 18.8186C26.2353 18.882 26.1202 18.9195 25.9942 18.9268C25.8679 18.9339 25.7361 18.9164 25.5969 18.8728C25.4577 18.8292 25.3242 18.7694 25.1963 18.6956C24.9501 18.5534 24.7247 18.3626 24.5182 18.1202C24.3136 17.8787 24.1373 17.6147 23.9913 17.3269C23.8434 17.0382 23.7313 16.7376 23.653 16.4264C23.5729 16.1118 23.5342 15.8103 23.5351 15.5231C23.5358 15.2639 23.5704 15.0242 23.6407 14.803C23.711 14.5818 23.8151 14.4081 23.951 14.2811C24.0887 14.1551 24.2602 14.0854 24.4657 14.0763C24.6709 14.065 24.9136 14.1401 25.1919 14.3008C25.3197 14.3746 25.4512 14.4678 25.5846 14.5795C25.7179 14.6889 25.8457 14.8167 25.9695 14.9619C26.0915 15.1059 26.2059 15.2736 26.3128 15.4607C26.4195 15.6479 26.5094 15.8555 26.584 16.0825L27.4356 15.9014C27.2506 15.3705 26.9659 14.862 26.585 14.376C26.2043 13.8919 25.7516 13.4985 25.227 13.1957Z" fill="#E0E0E2"/>
<path d="M29.2299 17.2596L28.1565 16.64L28.1428 21.4679L29.2161 22.0875L29.2299 17.2596ZM29.2352 15.3629L28.1619 14.7432L28.1585 15.968L29.2318 16.5877L29.2352 15.3629Z" fill="#E0E0E2"/>
<path d="M31.5202 17.0132L30.4449 16.3923L30.4405 17.9584L29.8877 17.6393L29.885 18.5876L30.4378 18.9067L30.4299 21.6803C30.4293 21.8963 30.459 22.0951 30.5168 22.2801C30.5765 22.4659 30.6533 22.6315 30.7525 22.7841C30.8519 22.9389 30.9663 23.0741 31.096 23.1901C31.2275 23.3093 31.3685 23.4123 31.5168 23.4981C31.7481 23.6316 31.9663 23.7208 32.1751 23.7679C32.384 23.8149 32.5609 23.8435 32.7058 23.8535L32.4906 22.7513C32.4265 22.7447 32.342 22.7325 32.2345 22.7138C32.1273 22.6951 32.0182 22.6538 31.9053 22.5886C31.7925 22.5235 31.6986 22.4325 31.6217 22.3189C31.543 22.2019 31.5057 22.0593 31.5063 21.8866L31.513 19.5276L32.3946 20.0366L32.3973 19.0884L31.5157 18.5793L31.5202 17.0132Z" fill="#E0E0E2"/>
<path d="M37.1029 21.8049L36.0934 21.222L35.0733 24.3978L33.9447 19.9815L32.8394 19.3433L34.4837 25.1285C34.4304 25.3011 34.3793 25.4403 34.3301 25.546C34.2828 25.655 34.2335 25.7326 34.1863 25.7832C34.1372 25.8305 34.0826 25.8531 34.0242 25.8496C33.9659 25.8462 33.9019 25.8267 33.8324 25.7865C33.7742 25.7528 33.7009 25.7019 33.6163 25.6379C33.5298 25.5728 33.4416 25.4981 33.3515 25.4158L33.3484 26.485C33.4442 26.5771 33.5363 26.6562 33.6245 26.7223C33.7128 26.7884 33.7992 26.8471 33.8857 26.8969C34.2485 27.1065 34.5535 27.1743 34.8003 27.1004C35.0471 27.0288 35.2208 26.8521 35.3234 26.5715L37.1029 21.8049Z" fill="#E0E0E2"/>
</g>
<defs>
<clipPath id="clip0_19_18826">
<rect width="60" height="60" fill="white" transform="translate(0.000488281 0.530029)"/>
</clipPath>
</defs>
</svg>
