<svg width="60" height="61" viewBox="0 0 60 61" fill="none" xmlns="http://www.w3.org/2000/svg">
<g clip-path="url(#clip0_19_18651)">
<path d="M26.6255 23.43C27.7689 24.7544 28.58 26.2984 29.1541 27.8708C30.9113 32.6762 30.455 37.7606 30.455 37.7606C30.455 37.7606 27.8917 33.7848 25.1411 32.8759C24.9005 32.7965 24.6699 32.7048 24.4491 32.6018C22.326 31.6183 21.0873 29.6318 20.6941 27.7604C17.5306 32.2099 17.4276 39.3281 23.5303 48.0398C27.8595 46.7898 29.7532 50.9714 29.7532 50.9714C29.7532 50.9714 28.5304 50.9813 26.6888 52.1197C25.4239 52.9022 24.3189 52.3913 24.3189 52.3913C24.3189 52.3913 25.0233 53.3611 23.3752 55.561C21.5423 58.0078 22.0409 59.233 22.0645 59.2888C19.0126 55.4779 19.7207 53.2507 20.5552 50.298C16.6625 46.0407 11.4652 39.064 10.4471 31.8787C8.77179 20.0643 12.1758 4.26535 30.0619 2.11004C57.0565 -1.14402 50.83 19.7629 44.3008 27.7616C43.7092 28.4858 42.6155 28.5106 41.9868 27.8211C41.9471 27.7777 41.9062 27.7331 41.8653 27.6872C40.0188 25.6807 35.8185 21.6355 29.1171 22.7863C28.2514 22.9339 27.4192 23.1497 26.6255 23.43Z" fill="#97C2F7"/>
<path d="M41.8651 27.6872L41.8638 27.6885C36.8228 31.3269 34.0797 25.4785 29.154 27.8708C28.5798 26.2984 27.7689 24.7544 26.6255 23.43C27.4192 23.1497 28.2512 22.9339 29.1169 22.7864C35.8184 21.6354 40.0186 25.6807 41.8651 27.6872Z" fill="#FFF3E6"/>
<path d="M24.4492 32.6016C22.0843 37.1404 22.4911 43.3905 23.5303 48.0397C17.4277 39.3279 17.5306 32.2097 20.6941 27.7603C21.0873 29.6316 22.3262 31.6182 24.4492 32.6016Z" fill="#FFF3E6"/>
<path d="M45.4815 4.04628C45.046 4.5748 45.1215 5.35632 45.65 5.79191C45.7169 5.8471 45.7828 5.90312 45.8475 5.95984C46.0829 6.16644 46.3745 6.2678 46.665 6.2678C47.0095 6.2678 47.3525 6.12507 47.5977 5.8457C48.0494 5.33089 47.9982 4.54726 47.4834 4.09562C47.3997 4.02202 47.3143 3.94948 47.2272 3.87788C46.6987 3.44218 45.917 3.51777 45.4815 4.04628Z" fill="black"/>
<path d="M43.1226 4.2998C43.7547 4.56382 44.4809 4.26546 44.7448 3.63335C45.0087 3.00124 44.7105 2.27503 44.0784 2.01113C40.5763 0.548861 35.8107 0.167768 29.9135 0.878861C23.0158 1.70996 17.6668 4.54179 14.0154 9.29538C9.71115 14.8991 7.96295 23.1937 9.2192 32.0528C10.2912 39.6189 15.7205 46.7491 19.176 50.6204C18.4117 53.3688 17.8967 56.0555 21.0794 60.0419C21.1143 60.0878 21.1525 60.1311 21.1935 60.1716L21.1937 60.1718C21.4178 60.3937 21.7256 60.5313 22.0658 60.5313C22.7506 60.5313 23.3058 59.9759 23.3058 59.2912C23.3058 59.1785 23.2898 59.0673 23.2603 58.9601C23.2565 58.9468 23.2519 58.9334 23.2477 58.9201C23.2426 58.9033 23.2379 58.8863 23.232 58.8698C23.2163 58.7602 23.1502 57.9301 24.3677 56.3044C25.1179 55.3031 25.4794 54.4592 25.6249 53.7758C26.1411 53.7209 26.7298 53.5524 27.341 53.1744C28.7248 52.3189 29.6629 52.2206 29.7753 52.2116C30.1953 52.2202 30.5737 52.0119 30.8088 51.6591C31.0461 51.303 31.0594 50.8495 30.8829 50.4597C30.1621 48.8678 27.9756 46.2703 24.5014 46.5972C23.9484 43.6201 23.3835 38.3843 25.0853 34.184C26.8978 34.9962 28.8009 37.4868 29.4129 38.4325C29.6447 38.7921 30.0406 39.0008 30.455 39.0008C30.5535 39.0008 30.6531 38.9888 30.7518 38.9647C31.2659 38.8381 31.6429 38.3988 31.6903 37.8714C31.7084 37.6696 32.084 33.2362 30.7083 28.6216C32.0654 28.3059 33.2371 28.7415 34.6481 29.2666C35.7643 29.6821 37.025 30.1514 38.4455 30.1514C39.4723 30.1514 40.5827 29.9053 41.7816 29.217C42.1877 29.441 42.6468 29.5621 43.1194 29.5621C43.1447 29.5621 43.1701 29.5618 43.1954 29.5612C43.9992 29.5393 44.7523 29.1693 45.2614 28.5458C47.4091 25.9147 49.2931 22.2591 50.301 18.7672C51.1779 15.7294 51.8433 11.3041 50.033 7.47417C49.7404 6.85495 49.0013 6.59023 48.382 6.88285C47.7628 7.17546 47.498 7.91468 47.7906 8.5339C49.27 11.6635 48.6765 15.4522 47.9181 18.0793C46.9982 21.266 45.2868 24.5925 43.3402 26.9772C43.272 27.0607 43.187 27.0801 43.1276 27.0818C43.0668 27.0853 42.9781 27.0682 42.9033 26.9861L42.8765 26.9568C42.8483 26.9258 42.8194 26.8944 42.7906 26.8618C42.7864 26.8571 42.7821 26.8523 42.7777 26.8475C41.7699 25.7524 40.1668 24.1576 37.8905 22.956C35.1071 21.4865 32.0846 21.0181 28.9085 21.5637C28.2583 21.6746 27.6189 21.8235 26.9979 22.0071C26.5678 21.5698 26.1088 21.1665 25.6256 20.8043C25.0776 20.3934 24.3002 20.5047 23.8895 21.0529C23.4787 21.6009 23.59 22.3783 24.1382 22.7889C24.6966 23.2075 25.2167 23.6952 25.6842 24.2385C25.6945 24.2505 25.705 24.2621 25.7157 24.2738C26.6469 25.3618 27.4115 26.7141 27.9888 28.2948C27.989 28.2953 27.9892 28.2961 27.9895 28.2968C28.7452 30.3636 29.0662 32.5072 29.1924 34.22C28.1735 33.1787 26.8987 32.1506 25.5302 31.6982C25.3388 31.635 25.1514 31.5608 24.9704 31.4765C23.4245 30.7605 22.2797 29.276 21.9078 27.5054C21.736 26.6878 21.7645 25.9012 21.986 25.3475C22.2401 24.7114 21.9306 23.99 21.2947 23.7356C20.6581 23.4814 19.937 23.7908 19.6828 24.4269C19.3342 25.2989 19.2335 26.3668 19.3879 27.4798C17.756 29.9981 17.0697 33.0779 17.4035 36.425C17.7909 40.3081 19.5038 44.4455 22.4945 48.7226C22.4948 48.723 22.495 48.7232 22.4951 48.7236C22.5016 48.7328 22.5079 48.7422 22.5145 48.7515C22.5168 48.7549 22.5196 48.7576 22.5221 48.7609C22.5333 48.7766 22.5447 48.7923 22.5567 48.8074C22.5657 48.8189 22.5753 48.8301 22.5848 48.8412C22.5937 48.8518 22.6021 48.8627 22.6113 48.8729C22.6116 48.8732 22.6119 48.8735 22.6122 48.8738C22.6182 48.8804 22.6249 48.8865 22.631 48.8929C22.6414 48.9038 22.6518 48.9146 22.6626 48.925C22.6767 48.9387 22.691 48.9521 22.7056 48.9651C22.7133 48.9719 22.7207 48.9791 22.7285 48.9857C22.7344 48.9907 22.7404 48.9955 22.7464 49.0004C22.7661 49.0166 22.7866 49.0316 22.8072 49.0464C22.8156 49.0525 22.8237 49.0592 22.8323 49.0651C22.8372 49.0685 22.8424 49.0718 22.8473 49.0751C22.8807 49.0972 22.9154 49.1172 22.9508 49.136C22.9633 49.1425 22.976 49.1487 22.9887 49.155C23.0031 49.162 23.0173 49.1693 23.0321 49.1757C23.0419 49.1799 23.0518 49.1835 23.0617 49.1875C23.0689 49.1905 23.0762 49.1934 23.0833 49.1962C23.0916 49.1995 23.0997 49.2031 23.1081 49.2062C23.1176 49.2097 23.1274 49.2127 23.137 49.216C23.1496 49.2202 23.1624 49.2239 23.1752 49.2276C23.195 49.2336 23.2149 49.2394 23.2351 49.2444C23.24 49.2457 23.2449 49.2467 23.2498 49.2479C23.2625 49.2508 23.2753 49.2534 23.288 49.256C23.3108 49.2605 23.3336 49.2644 23.3567 49.2676C23.3718 49.2697 23.3868 49.2719 23.402 49.2734C23.4249 49.2758 23.4478 49.2772 23.4707 49.2782C23.4862 49.2789 23.5018 49.2801 23.5174 49.2802C23.5213 49.2802 23.5252 49.2807 23.5292 49.2807C23.5299 49.2807 23.5307 49.2806 23.5314 49.2806C23.5626 49.2806 23.5936 49.2793 23.6248 49.2769C23.6295 49.2766 23.6341 49.2758 23.6389 49.2753C23.6435 49.275 23.6479 49.2741 23.6525 49.2738C23.6607 49.273 23.669 49.272 23.6772 49.2711C23.6981 49.2686 23.7189 49.2657 23.7397 49.2623C23.7482 49.2608 23.7568 49.2591 23.7653 49.2575C23.7983 49.2512 23.8312 49.2434 23.8637 49.2343C23.8673 49.2334 23.8708 49.2328 23.8744 49.2318C25.2309 48.8401 26.3817 49.0657 27.3916 49.9216C27.5051 50.0178 27.611 50.1173 27.7088 50.2173C27.2172 50.4117 26.6538 50.6843 26.0367 51.0658C25.4342 51.4385 24.9342 51.2974 24.826 51.2593C24.3193 50.9976 23.7279 51.1309 23.3524 51.5626C23.0098 51.9562 22.9794 52.5291 23.2269 52.9807C23.2529 53.1718 23.1494 53.7949 22.3828 54.8183C22.0306 55.2885 21.7515 55.7264 21.5292 56.1332C20.7236 54.2603 21.1305 52.8195 21.7026 50.7987L21.7487 50.636C21.7505 50.6294 21.7513 50.6228 21.7531 50.6162C21.7592 50.5931 21.7642 50.5698 21.7692 50.5464C21.7729 50.5282 21.7765 50.5101 21.7796 50.4919C21.7826 50.4723 21.7847 50.4525 21.7869 50.4328C21.7892 50.4111 21.7917 50.3895 21.7928 50.368C21.7937 50.3514 21.7937 50.335 21.7941 50.3185C21.7945 50.2945 21.7948 50.2703 21.7939 50.2464C21.7933 50.231 21.7917 50.2156 21.7904 50.2C21.7884 50.176 21.7865 50.1518 21.7833 50.128C21.781 50.1107 21.7774 50.0936 21.7743 50.0765C21.7703 50.0551 21.7667 50.0337 21.7617 50.0125C21.757 49.9924 21.7508 49.9723 21.745 49.9524C21.7399 49.9348 21.7351 49.917 21.7292 49.8997C21.7218 49.8778 21.7129 49.8562 21.7041 49.8344C21.6979 49.8193 21.6922 49.8041 21.6855 49.7892C21.676 49.7678 21.665 49.7471 21.6541 49.7264C21.6461 49.7112 21.6386 49.696 21.6301 49.6812C21.6194 49.6627 21.6078 49.6448 21.5961 49.6266C21.5852 49.6098 21.5744 49.5929 21.5626 49.5767C21.5518 49.5617 21.5404 49.5472 21.5288 49.5326C21.5142 49.514 21.4993 49.4957 21.4836 49.4778C21.479 49.4726 21.4751 49.467 21.4704 49.462C18.2533 45.9435 12.7027 38.958 11.675 31.7053C11.1247 27.8244 10.4425 18.0189 15.9822 10.8069C19.2124 6.60195 23.9991 4.09027 30.2102 3.34179C35.6766 2.68238 40.0213 3.00476 43.1226 4.2998ZM29.3268 24.0083C33.2092 23.3419 36.6618 24.4563 39.841 27.4093C38.3385 27.993 37.0987 27.5321 35.5131 26.9421C33.9558 26.3623 32.0757 25.6632 29.8489 26.2838C29.5068 25.5152 29.1204 24.7969 28.6919 24.1325C28.9019 24.0867 29.1134 24.0448 29.3268 24.0083ZM20.53 30.6645C21.1256 31.6394 21.9156 32.4746 22.8454 33.1089C21.6596 35.9607 21.3925 39.1747 21.4972 42.0046C19.629 37.7705 19.2882 33.8605 20.53 30.6645Z" fill="black"/>
<path d="M31.3272 17.2243L31.3099 17.977C31.2942 18.6616 31.8364 19.2296 32.5212 19.2454C32.531 19.2457 32.5406 19.2458 32.5503 19.2458C33.2218 19.2458 33.7739 18.7092 33.7895 18.0342L33.8068 17.2815C33.8225 16.5969 33.2803 16.0289 32.5956 16.0131C31.9052 15.9967 31.343 16.5398 31.3272 17.2243Z" fill="black"/>
</g>
<defs>
<clipPath id="clip0_19_18651">
<rect width="60" height="60" fill="white" transform="translate(0.000488281 0.53125)"/>
</clipPath>
</defs>
</svg>
