<svg width="60" height="60" viewBox="0 0 60 60" fill="none" xmlns="http://www.w3.org/2000/svg">
<g clip-path="url(#clip0_16_14296)">
<path d="M1.43313 5.44792V10.0123H2.15041V4.1543H1.6882C1.56278 4.40654 1.3514 4.66583 1.05125 4.93357C0.752501 5.20132 0.400207 5.4296 0 5.61984V6.31034C0.224059 6.22861 0.476302 6.10601 0.756729 5.93973C1.03575 5.77767 1.26121 5.61139 1.43313 5.44792ZM5.88755 10.1123C6.31453 10.1123 6.66682 9.99675 6.94584 9.76706C7.22768 9.53736 7.43764 9.21325 7.57856 8.79331C7.71948 8.37197 7.78994 7.81957 7.78994 7.13471C7.78994 6.55695 7.74625 6.09755 7.65889 5.75653C7.57011 5.4141 7.44892 5.12663 7.29673 4.88707C7.14172 4.65033 6.94584 4.46854 6.71051 4.34313C6.47377 4.21771 6.20039 4.1543 5.88755 4.1543C5.46479 4.1543 5.10968 4.26844 4.83066 4.49673C4.54883 4.72501 4.34027 5.04772 4.19653 5.46906C4.05562 5.889 3.98375 6.44562 3.98375 7.13471C3.98375 8.23105 4.17821 9.0216 4.56151 9.50777C4.8828 9.91079 5.32529 10.1123 5.88755 10.1123ZM5.08995 5.16468C5.28583 4.88566 5.54934 4.74615 5.87909 4.74615C6.21307 4.74615 6.49209 4.90398 6.71755 5.21823C6.94302 5.53529 7.05435 6.17224 7.05435 7.1333C7.05435 8.08872 6.94302 8.72567 6.71755 9.04274C6.49209 9.36262 6.21589 9.52186 5.88755 9.52186C5.55921 9.52186 5.2816 9.36262 5.05754 9.04556C4.83207 8.7299 4.72357 8.09154 4.72357 7.1333C4.72357 6.17506 4.84335 5.51979 5.08995 5.16468ZM10.5012 5.44792V10.0123H11.2171V4.1543H10.7549C10.6308 4.40654 10.4181 4.66583 10.1179 4.93498C9.81916 5.20132 9.46968 5.4296 9.06665 5.61984V6.31034C9.29071 6.22861 9.54296 6.10601 9.82197 5.93973C10.1024 5.77767 10.3293 5.61139 10.5012 5.44792ZM14.9556 10.1123C15.3798 10.1123 15.7349 9.99675 16.0139 9.76706C16.2943 9.53736 16.5029 9.21325 16.6438 8.79331C16.7847 8.37197 16.8566 7.81957 16.8566 7.13471C16.8566 6.55695 16.8115 6.09755 16.7227 5.75653C16.6396 5.4141 16.5184 5.12663 16.3634 4.88707C16.2084 4.65033 16.0153 4.46854 15.7772 4.34313C15.5404 4.21771 15.267 4.1543 14.9556 4.1543C14.53 4.1543 14.1763 4.26844 13.8973 4.49673C13.6169 4.72501 13.4069 5.04913 13.2646 5.46906C13.1237 5.889 13.0532 6.44562 13.0532 7.13471C13.0532 8.23105 13.2449 9.0216 13.6296 9.50777C13.9495 9.91079 14.3919 10.1123 14.9556 10.1123ZM14.1566 5.16468C14.3539 4.88566 14.6174 4.74615 14.9457 4.74615C15.2811 4.74615 15.5587 4.90398 15.7842 5.21823C16.0097 5.53529 16.121 6.17224 16.121 7.1333C16.121 8.08872 16.0097 8.72567 15.7842 9.04274C15.5587 9.36262 15.284 9.52186 14.957 9.52186C14.6259 9.52186 14.3497 9.36262 14.1256 9.04556C13.9001 8.7299 13.7902 8.09154 13.7902 7.1333C13.7902 6.17506 13.9114 5.51979 14.1566 5.16468ZM19.4875 10.1123C19.9145 10.1123 20.2668 9.99675 20.5458 9.76706C20.8262 9.53736 21.0376 9.21325 21.1785 8.79331C21.3195 8.37197 21.3899 7.81957 21.3899 7.13471C21.3899 6.55695 21.3462 6.09755 21.2589 5.75653C21.1701 5.4141 21.0503 5.12663 20.8967 4.88707C20.7417 4.65033 20.5458 4.46854 20.3105 4.34313C20.0737 4.21771 19.8004 4.1543 19.4875 4.1543C19.062 4.1543 18.7097 4.26844 18.4306 4.49673C18.1502 4.72501 17.9417 5.04913 17.7979 5.46906C17.657 5.889 17.5851 6.44562 17.5851 7.13471C17.5851 8.23105 17.7796 9.0216 18.1629 9.50777C18.4828 9.91079 18.9239 10.1123 19.4875 10.1123ZM18.6913 5.16468C18.8872 4.88566 19.1507 4.74615 19.4805 4.74615C19.8145 4.74615 20.0935 4.90398 20.3189 5.21823C20.5444 5.53529 20.6557 6.17224 20.6557 7.1333C20.6557 8.08872 20.5444 8.72567 20.3189 9.04274C20.0935 9.36262 19.8173 9.52186 19.4889 9.52186C19.1606 9.52186 18.883 9.36262 18.6589 9.04556C18.4335 8.7299 18.325 8.09154 18.325 7.1333C18.325 6.17506 18.4433 5.51979 18.6913 5.16468ZM24.0209 10.1123C24.4478 10.1123 24.8001 9.99675 25.0792 9.76706C25.3596 9.53736 25.571 9.21325 25.7119 8.79331C25.8528 8.37197 25.9232 7.81957 25.9232 7.13471C25.9232 6.55695 25.8782 6.09755 25.7922 5.75653C25.7034 5.4141 25.5822 5.12663 25.43 4.88707C25.2736 4.65033 25.0792 4.46854 24.8452 4.34313C24.6085 4.21771 24.3323 4.1543 24.0209 4.1543C23.5967 4.1543 23.2444 4.26844 22.964 4.49673C22.6835 4.72501 22.4722 5.04913 22.3298 5.46906C22.1889 5.889 22.1185 6.44562 22.1185 7.13471C22.1185 8.23105 22.3101 9.0216 22.6934 9.50777C23.0147 9.91079 23.4572 10.1123 24.0209 10.1123ZM23.2233 5.16468C23.4191 4.88566 23.6841 4.74615 24.011 4.74615C24.3478 4.74615 24.6254 4.90398 24.8509 5.21823C25.0749 5.53529 25.1877 6.17224 25.1877 7.1333C25.1877 8.08872 25.0735 8.72567 24.8509 9.04274C24.6254 9.36262 24.3506 9.52186 24.0209 9.52186C23.6897 9.52186 23.4135 9.36262 23.1894 9.04556C22.9668 8.7299 22.8555 8.09154 22.8555 7.1333C22.8555 6.17506 22.9781 5.51979 23.2233 5.16468ZM28.6345 5.44792V10.0123H29.3504V4.1543H28.8882C28.7627 4.40654 28.5514 4.66583 28.2526 4.93498C27.9539 5.20132 27.6002 5.43101 27.2014 5.61984V6.31034C27.424 6.22861 27.6749 6.10601 27.9567 5.93973C28.2357 5.77767 28.4626 5.61139 28.6345 5.44792ZM32.5591 5.44792V10.0123H33.2806V4.1543H32.8184C32.6915 4.40654 32.4802 4.66583 32.18 4.93498C31.8798 5.20132 31.5304 5.43101 31.1288 5.61984V6.31034C31.3514 6.22861 31.6036 6.10601 31.8827 5.93973C32.1659 5.77767 32.3914 5.61139 32.5591 5.44792ZM37.0149 10.1123C37.4447 10.1123 37.797 9.99675 38.0718 9.76706C38.3522 9.53736 38.5678 9.21325 38.7045 8.79331C38.8454 8.37197 38.9159 7.81957 38.9159 7.13471C38.9159 6.55695 38.8722 6.09755 38.7834 5.75653C38.6974 5.4141 38.5777 5.12663 38.4227 4.88707C38.2691 4.65033 38.0704 4.46854 37.8364 4.34313C37.5997 4.21771 37.3277 4.1543 37.0135 4.1543C36.5893 4.1543 36.237 4.26844 35.9566 4.49673C35.6762 4.72501 35.4634 5.04913 35.3211 5.46906C35.183 5.889 35.1125 6.44562 35.1125 7.13471C35.1125 8.23105 35.3056 9.0216 35.6874 9.50777C36.0101 9.91079 36.454 10.1123 37.0149 10.1123ZM36.2201 5.16468C36.4188 4.88566 36.6823 4.74615 37.0107 4.74615C37.3432 4.74615 37.6251 4.90398 37.8477 5.21823C38.0732 5.53529 38.1859 6.17224 38.1859 7.1333C38.1859 8.08872 38.0704 8.72567 37.8477 9.04274C37.6251 9.36262 37.3489 9.52186 37.0191 9.52186C36.6894 9.52186 36.4104 9.36262 36.1877 9.04556C35.9622 8.7299 35.8523 8.09154 35.8523 7.1333C35.8523 6.17506 35.9749 5.51979 36.2201 5.16468ZM41.6285 5.44792V10.0123H42.3444V4.1543H41.885C41.7582 4.40654 41.5468 4.66583 41.2495 4.93498C40.9493 5.20132 40.597 5.4296 40.1954 5.61984V6.31034C40.4181 6.22861 40.6717 6.10601 40.9493 5.93973C41.2312 5.77767 41.4538 5.61139 41.6285 5.44792ZM46.0844 10.1123C46.5113 10.1123 46.8636 9.99675 47.1441 9.76706C47.4217 9.53736 47.6373 9.21325 47.774 8.79331C47.9149 8.37197 47.9825 7.81957 47.9825 7.13471C47.9825 6.55695 47.9388 6.09755 47.8529 5.75653C47.7627 5.4141 47.6443 5.12663 47.4893 4.88707C47.3357 4.65033 47.1398 4.46854 46.9031 4.34313C46.6664 4.21771 46.3972 4.1543 46.083 4.1543C45.6588 4.1543 45.3037 4.26844 45.0261 4.49673C44.7456 4.72501 44.5329 5.04913 44.3934 5.46906C44.2524 5.889 44.182 6.44562 44.182 7.13471C44.182 8.23105 44.3778 9.0216 44.7597 9.50777C45.0796 9.91079 45.5193 10.1123 46.0844 10.1123ZM45.2882 5.16468C45.4841 4.88566 45.7448 4.74615 46.0787 4.74615C46.4127 4.74615 46.6903 4.90398 46.9158 5.21823C47.1412 5.53529 47.254 6.17224 47.254 7.1333C47.254 8.08872 47.1412 8.72567 46.9158 9.04274C46.6903 9.36262 46.4155 9.52186 46.0872 9.52186C45.7574 9.52186 45.4812 9.36262 45.2558 9.04556C45.0303 8.7299 44.9232 8.09154 44.9232 7.1333C44.9232 6.17506 45.0402 5.51979 45.2882 5.16468ZM50.6966 5.44792V10.0123H51.4125V4.1543H50.9503C50.8262 4.40654 50.6149 4.66583 50.3147 4.93498C50.0146 5.20132 49.6623 5.43101 49.2635 5.61984V6.31034C49.4833 6.22861 49.737 6.10601 50.0174 5.93973C50.295 5.77767 50.5233 5.61139 50.6966 5.44792ZM54.624 5.44792V10.0123H55.3427V4.1543H54.8805C54.7564 4.40654 54.5451 4.66583 54.2449 4.93498C53.9448 5.20132 53.5953 5.43101 53.1937 5.61984V6.31034C53.4163 6.22861 53.6672 6.10601 53.9476 5.93973C54.2252 5.77767 54.4535 5.61139 54.624 5.44792ZM1.43313 15.229V19.7948H2.15041V13.9354H1.6882C1.56278 14.1876 1.3514 14.4469 1.05266 14.7161C0.752501 14.981 0.400207 15.2121 0.00140918 15.401V16.0929C0.224059 16.0111 0.476302 15.8871 0.756729 15.7237C1.03575 15.5574 1.26121 15.3925 1.43313 15.229ZM5.88755 19.8948C6.31453 19.8948 6.66682 19.7793 6.94584 19.5496C7.22768 19.3199 7.43764 18.9958 7.57856 18.5758C7.71948 18.1559 7.78994 17.6021 7.78994 16.9172C7.78994 16.3395 7.74625 15.8801 7.65889 15.5391C7.57011 15.1966 7.45033 14.9077 7.29673 14.671C7.14172 14.4328 6.94584 14.2525 6.71051 14.1256C6.47377 14.0002 6.20039 13.9368 5.88755 13.9368C5.46479 13.9368 5.10968 14.051 4.83066 14.2792C4.55024 14.5075 4.34168 14.8331 4.19794 15.2516C4.05703 15.6729 3.98516 16.2267 3.98516 16.9158C3.98516 18.0136 4.17962 18.8027 4.56292 19.2889C4.8828 19.6919 5.32529 19.8948 5.88755 19.8948ZM5.08995 14.9472C5.28583 14.6682 5.54934 14.5287 5.87909 14.5287C6.21307 14.5287 6.49209 14.6865 6.71755 15.0007C6.94302 15.3164 7.05435 15.9548 7.05435 16.9144C7.05435 17.8712 6.94302 18.5068 6.71755 18.8253C6.49209 19.1437 6.21589 19.303 5.88755 19.303C5.55921 19.303 5.2816 19.1437 5.05754 18.8267C4.83207 18.5096 4.72357 17.8726 4.72357 16.9144C4.72216 15.959 4.84335 15.3023 5.08995 14.9472ZM10.5012 15.229V19.7948H11.2171V13.9354H10.7549C10.6308 14.1876 10.4181 14.4469 10.1179 14.7161C9.81916 14.981 9.46827 15.2121 9.06665 15.401V16.0929C9.29071 16.0111 9.54296 15.8871 9.82197 15.7237C10.1024 15.5574 10.3293 15.3925 10.5012 15.229ZM14.9556 19.8948C15.3798 19.8948 15.7349 19.7793 16.0139 19.5496C16.2943 19.3199 16.5029 18.9958 16.6438 18.5758C16.7847 18.1559 16.8566 17.6021 16.8566 16.9172C16.8566 16.3395 16.8115 15.8801 16.7227 15.5391C16.6368 15.1966 16.5156 14.9077 16.3606 14.671C16.2056 14.4328 16.0125 14.2525 15.7743 14.1256C15.5376 14.0002 15.2642 13.9368 14.9528 13.9368C14.5272 13.9368 14.1735 14.051 13.8945 14.2792C13.6141 14.5075 13.4041 14.8331 13.2618 15.2516C13.1209 15.6729 13.0504 16.2267 13.0504 16.9158C13.0504 18.0136 13.2421 18.8027 13.6268 19.2889C13.9495 19.6919 14.3919 19.8948 14.9556 19.8948ZM14.1566 14.9472C14.3539 14.6682 14.6174 14.5287 14.9457 14.5287C15.2811 14.5287 15.5587 14.6865 15.7842 15.0007C16.0097 15.3164 16.121 15.9548 16.121 16.9144C16.121 17.8712 16.0097 18.5068 15.7842 18.8253C15.5587 19.1437 15.284 19.303 14.957 19.303C14.6259 19.303 14.3497 19.1437 14.1256 18.8267C13.9001 18.5096 13.7902 17.8726 13.7902 16.9144C13.7888 15.959 13.9114 15.3023 14.1566 14.9472ZM20.2837 19.7948V13.9354H19.8215C19.6961 14.1876 19.4847 14.4469 19.1831 14.7161C18.8844 14.981 18.5335 15.2121 18.1347 15.401V16.0929C18.3574 16.0111 18.6082 15.8871 18.8886 15.7237C19.1691 15.5588 19.3959 15.3939 19.565 15.229V19.7948H20.2837ZM23.4938 15.229V19.7948H24.2097V13.9354H23.7475C23.6249 14.1876 23.4107 14.4469 23.1105 14.7161C22.8118 14.981 22.4609 15.2121 22.0607 15.401V16.0929C22.2847 16.0111 22.5342 15.8871 22.8146 15.7237C23.0964 15.5574 23.3233 15.3925 23.4938 15.229ZM27.9511 19.8948C28.3752 19.8948 28.7303 19.7793 29.0093 19.5496C29.2884 19.3199 29.4983 18.9958 29.6393 18.5758C29.7802 18.1559 29.852 17.6021 29.852 16.9172C29.852 16.3395 29.8069 15.8801 29.7182 15.5391C29.6322 15.1966 29.511 14.9077 29.356 14.671C29.201 14.4328 29.0079 14.2525 28.7726 14.1256C28.5345 14.0002 28.2597 13.9368 27.9496 13.9368C27.5241 13.9368 27.1718 14.051 26.8928 14.2792C26.6137 14.5075 26.401 14.8331 26.2586 15.2516C26.1177 15.6729 26.0473 16.2267 26.0473 16.9158C26.0473 18.0136 26.2389 18.8027 26.6236 19.2889C26.9449 19.6919 27.3874 19.8948 27.9511 19.8948ZM27.1549 14.9472C27.3507 14.6682 27.6143 14.5287 27.9412 14.5287C28.2766 14.5287 28.557 14.6865 28.7797 15.0007C29.0051 15.3164 29.1164 15.9548 29.1164 16.9144C29.1164 17.8712 29.0051 18.5068 28.7797 18.8253C28.557 19.1437 28.2794 19.303 27.9525 19.303C27.6213 19.303 27.3451 19.1437 27.121 18.8267C26.8956 18.5096 26.7857 17.8726 26.7857 16.9144C26.7843 15.959 26.9083 15.3023 27.1549 14.9472ZM46.0844 19.8948C46.5113 19.8948 46.8636 19.7793 47.1441 19.5496C47.4217 19.3199 47.6373 18.9958 47.774 18.5758C47.9149 18.1559 47.9825 17.6021 47.9825 16.9172C47.9825 16.3395 47.9388 15.8801 47.8529 15.5391C47.7627 15.1966 47.6443 14.9077 47.4893 14.671C47.3357 14.4328 47.1398 14.2525 46.9031 14.1256C46.6664 13.9988 46.3944 13.9368 46.0801 13.9368C45.656 13.9368 45.3009 14.051 45.0233 14.2792C44.7428 14.5075 44.5329 14.8331 44.3905 15.2516C44.2468 15.6729 44.1763 16.2267 44.1763 16.9158C44.1763 18.0136 44.375 18.8027 44.7541 19.2889C45.0796 19.6919 45.5193 19.8948 46.0844 19.8948ZM45.2882 14.9472C45.4841 14.6682 45.7448 14.5287 46.0787 14.5287C46.4127 14.5287 46.6903 14.6865 46.9158 15.0007C47.1412 15.3164 47.254 15.9548 47.254 16.9144C47.254 17.8712 47.1412 18.5068 46.9158 18.8253C46.6903 19.1437 46.4155 19.303 46.0872 19.303C45.7574 19.303 45.4812 19.1437 45.2558 18.8267C45.0303 18.5096 44.9232 17.8726 44.9232 16.9144C44.919 15.959 45.0402 15.3023 45.2882 14.9472ZM50.6163 19.8948C51.0433 19.8948 51.3956 19.7793 51.6732 19.5496C51.9536 19.3199 52.1664 18.9958 52.3059 18.5758C52.4454 18.1559 52.5144 17.6021 52.5144 16.9172C52.5144 16.3395 52.4736 15.8801 52.3848 15.5391C52.2974 15.1966 52.1762 14.9077 52.0212 14.671C51.8648 14.4328 51.6718 14.2525 51.4378 14.1256C51.2025 14.0002 50.9277 13.9368 50.6135 13.9368C50.1893 13.9368 49.837 14.051 49.5566 14.2792C49.2762 14.5075 49.0634 14.8331 48.9239 15.2516C48.7829 15.6729 48.7125 16.2267 48.7125 16.9158C48.7125 18.0136 48.9055 18.8027 49.2874 19.2889C49.6101 19.6919 50.0498 19.8948 50.6163 19.8948ZM49.8187 14.9472C50.0174 14.6682 50.2781 14.5287 50.6092 14.5287C50.9418 14.5287 51.2236 14.6865 51.4491 15.0007C51.6718 15.3164 51.7845 15.9548 51.7845 16.9144C51.7845 17.8712 51.6689 18.5068 51.4491 18.8253C51.2236 19.1437 50.9488 19.303 50.6177 19.303C50.2851 19.303 50.0089 19.1437 49.7863 18.8267C49.5608 18.5096 49.4509 17.8726 49.4509 16.9144C49.4523 15.959 49.5735 15.3023 49.8187 14.9472ZM54.0955 14.2778C53.8123 14.5061 53.6023 14.8316 53.46 15.2502C53.3191 15.6715 53.2514 16.2253 53.2514 16.9144C53.2514 18.0122 53.4417 18.8013 53.8264 19.2875C54.1463 19.6905 54.5888 19.8934 55.1524 19.8934C55.5766 19.8934 55.9317 19.7779 56.2093 19.5482C56.4897 19.3185 56.6997 18.9944 56.8392 18.5744C56.9773 18.1545 57.0506 17.6007 57.0506 16.9158C57.0506 16.3381 57.0069 15.8787 56.9153 15.5376C56.8294 15.1952 56.711 14.9063 56.5546 14.6696C56.3981 14.4314 56.2051 14.2511 55.9712 14.1242C55.7316 13.9988 55.4568 13.9354 55.1454 13.9354C54.7254 13.9354 54.3732 14.0495 54.0955 14.2778ZM55.9782 15.0007C56.2037 15.3164 56.3164 15.9548 56.3164 16.9144C56.3164 17.8712 56.2037 18.5068 55.9782 18.8253C55.7556 19.1437 55.4794 19.303 55.1524 19.303C54.8227 19.303 54.5437 19.1437 54.3182 18.8267C54.0955 18.5096 53.9856 17.8726 53.9856 16.9144C53.9856 15.9576 54.1096 15.3009 54.3548 14.9458C54.5507 14.6668 54.8142 14.5273 55.1426 14.5273C55.4751 14.5287 55.7527 14.6865 55.9782 15.0007ZM1.43313 25.0101V29.5759H2.15041V23.7179H1.6882C1.56278 23.9702 1.3514 24.2295 1.05266 24.4986C0.752501 24.7664 0.400207 24.9946 0.00140918 25.1835V25.8754C0.224059 25.7922 0.476302 25.6696 0.756729 25.5048C1.03716 25.3399 1.26121 25.175 1.43313 25.0101ZM5.88755 29.6759C6.31453 29.6759 6.66682 29.5604 6.94584 29.3307C7.22768 29.101 7.43764 28.7755 7.57856 28.3555C7.71948 27.9342 7.78994 27.3818 7.78994 26.6969C7.78994 26.1192 7.74625 25.6584 7.65889 25.3173C7.57011 24.9763 7.45033 24.6874 7.29673 24.4493C7.14172 24.2125 6.94584 24.0308 6.71051 23.9039C6.47377 23.7785 6.20039 23.7151 5.88755 23.7151C5.46479 23.7151 5.10968 23.8292 4.83066 24.0575C4.55024 24.2858 4.34168 24.6099 4.19794 25.0299C4.05703 25.4498 3.98516 26.005 3.98516 26.6955C3.98516 27.7919 4.17962 28.5824 4.56292 29.0686C4.8828 29.473 5.32529 29.6759 5.88755 29.6759ZM5.08995 24.7283C5.28583 24.4493 5.54934 24.3112 5.87909 24.3112C6.21307 24.3112 6.49209 24.469 6.71755 24.7847C6.94302 25.1003 7.05435 25.7387 7.05435 26.6983C7.05435 27.6538 6.94302 28.2907 6.71755 28.6092C6.49209 28.9277 6.21589 29.0869 5.88755 29.0869C5.55921 29.0869 5.2816 28.9291 5.05754 28.612C4.83348 28.2949 4.72357 27.658 4.72357 26.6997C4.72216 25.7401 4.84335 25.0848 5.08995 24.7283ZM10.5012 25.0101V29.5759H11.2171V23.7179H10.7549C10.6308 23.9702 10.4181 24.2295 10.1179 24.4986C9.81916 24.7664 9.46827 24.9946 9.06665 25.1835V25.8754C9.29071 25.7922 9.54296 25.6696 9.82197 25.5048C10.1024 25.3399 10.3293 25.175 10.5012 25.0101ZM14.9556 29.6759C15.3798 29.6759 15.7349 29.5604 16.0139 29.3307C16.2943 29.101 16.5029 28.7755 16.6438 28.3555C16.7847 27.9342 16.8566 27.3818 16.8566 26.6969C16.8566 26.1192 16.8115 25.6584 16.7227 25.3173C16.6368 24.9763 16.5156 24.6874 16.3606 24.4493C16.2056 24.2111 16.0125 24.0308 15.7743 23.9039C15.5376 23.7785 15.2642 23.7151 14.9528 23.7151C14.5272 23.7151 14.1735 23.8292 13.8945 24.0575C13.6141 24.2858 13.4041 24.6099 13.2618 25.0299C13.1209 25.4498 13.0504 26.005 13.0504 26.6955C13.0504 27.7919 13.2421 28.5824 13.6268 29.0686C13.9495 29.473 14.3919 29.6759 14.9556 29.6759ZM14.1566 24.7283C14.3539 24.4493 14.6174 24.3112 14.9457 24.3112C15.2811 24.3112 15.5587 24.469 15.7842 24.7847C16.0097 25.1003 16.121 25.7387 16.121 26.6983C16.121 27.6538 16.0097 28.2907 15.7842 28.6092C15.5587 28.9277 15.284 29.0869 14.957 29.0869C14.6259 29.0869 14.3497 28.9291 14.1256 28.612C13.9001 28.2949 13.7902 27.658 13.7902 26.6997C13.7888 25.7401 13.9114 25.0848 14.1566 24.7283ZM19.4875 29.6759C19.9145 29.6759 20.2668 29.5604 20.5458 29.3307C20.8262 29.101 21.0376 28.7755 21.1785 28.3555C21.3195 27.9342 21.3899 27.3818 21.3899 26.6969C21.3899 26.1192 21.3462 25.6584 21.2589 25.3173C21.1701 24.9763 21.0503 24.6874 20.8967 24.4493C20.7417 24.2125 20.5458 24.0308 20.3105 23.9039C20.0737 23.7785 19.8004 23.7151 19.4875 23.7151C19.062 23.7151 18.7097 23.8292 18.4306 24.0575C18.1502 24.2858 17.9417 24.6099 17.7979 25.0299C17.657 25.4498 17.5851 26.005 17.5851 26.6955C17.5851 27.7919 17.7796 28.5824 18.1629 29.0686C18.4828 29.473 18.9239 29.6759 19.4875 29.6759ZM18.6913 24.7283C18.8872 24.4493 19.1507 24.3112 19.4805 24.3112C19.8145 24.3112 20.0935 24.469 20.3189 24.7847C20.5444 25.1003 20.6557 25.7387 20.6557 26.6983C20.6557 27.6538 20.5444 28.2907 20.3189 28.6092C20.0935 28.9277 19.8173 29.0869 19.4889 29.0869C19.1606 29.0869 18.883 28.9291 18.6589 28.612C18.4349 28.2949 18.325 27.658 18.325 26.6997C18.3221 25.7401 18.4433 25.0848 18.6913 24.7283ZM54.624 25.0101V29.5759H55.3427V23.7179H54.8805C54.7564 23.9702 54.5451 24.2295 54.2449 24.4986C53.9448 24.7664 53.5953 24.9946 53.1965 25.1835V25.8754C53.4163 25.7922 53.67 25.6696 53.9504 25.5048C54.2252 25.3399 54.4535 25.175 54.624 25.0101ZM1.33308 33.1651C1.03293 33.4328 0.680633 33.6625 0.281836 33.8485V34.5418C0.504486 34.4559 0.756729 34.3361 1.03716 34.1684C1.31758 34.0035 1.54164 33.8429 1.71356 33.6738V38.2367H2.43083V32.3801H1.96862C1.84321 32.6366 1.63183 32.8973 1.33308 33.1651ZM7.57715 33.1186C7.42214 32.8818 7.22627 32.7 6.99093 32.5732C6.75419 32.4478 6.48081 32.3844 6.16797 32.3844C5.74522 32.3844 5.39011 32.4971 5.11109 32.7254C4.83066 32.9537 4.62211 33.2792 4.47837 33.6963C4.33745 34.1163 4.26558 34.6701 4.26558 35.3648C4.26558 36.4583 4.46005 37.2503 4.84335 37.7378C5.16464 38.1395 5.60712 38.3438 6.16797 38.3438C6.59496 38.3438 6.94725 38.2282 7.22627 37.9985C7.5081 37.7688 7.71807 37.4433 7.85899 37.0234C7.99991 36.6049 8.07037 36.0525 8.07037 35.3662C8.07037 34.7884 8.02668 34.3262 7.93931 33.9866C7.85053 33.6442 7.72934 33.3553 7.57715 33.1186ZM6.99798 37.2756C6.77251 37.5955 6.49631 37.7533 6.16797 37.7533C5.83964 37.7533 5.56203 37.5955 5.33797 37.2784C5.11391 36.9614 5.00399 36.3244 5.00399 35.3662C5.00399 34.408 5.12518 33.7527 5.37179 33.399C5.56766 33.12 5.83118 32.9819 6.16093 32.9819C6.4949 32.9819 6.77392 33.1369 6.99939 33.4553C7.22486 33.771 7.33618 34.4094 7.33618 35.3662C7.33477 36.3202 7.22204 36.9572 6.99798 37.2756ZM10.3997 33.1651C10.101 33.4328 9.75011 33.6625 9.34849 33.8485V34.5418C9.57255 34.4559 9.82479 34.3361 10.1038 34.1684C10.3842 34.0035 10.6111 33.8429 10.7816 33.6738V38.2367H11.4975V32.3801H11.0353C10.9127 32.6366 10.6985 32.8973 10.3997 33.1651ZM16.6438 33.1186C16.4888 32.8818 16.2957 32.7 16.0576 32.5732C15.8208 32.4478 15.5475 32.3844 15.236 32.3844C14.8105 32.3844 14.4568 32.4971 14.1777 32.7254C13.8973 32.9537 13.6874 33.2792 13.545 33.6963C13.4041 34.1163 13.3336 34.6701 13.3336 35.3648C13.3336 36.4583 13.5253 37.2503 13.91 37.7378C14.2313 38.1395 14.6738 38.3438 15.2374 38.3438C15.6616 38.3438 16.0167 38.2282 16.2957 37.9985C16.5762 37.7688 16.7847 37.4433 16.9256 37.0234C17.0666 36.6049 17.1384 36.0525 17.1384 35.3662C17.1384 34.7884 17.0933 34.3262 17.0046 33.9866C16.92 33.6442 16.7988 33.3553 16.6438 33.1186ZM16.0646 37.2756C15.8392 37.5955 15.5644 37.7533 15.2374 37.7533C14.9063 37.7533 14.6301 37.5955 14.406 37.2784C14.1806 36.9614 14.0706 36.3244 14.0706 35.3662C14.0706 34.408 14.1932 33.7527 14.4384 33.399C14.6357 33.12 14.8992 32.9819 15.2276 32.9819C15.563 32.9819 15.8406 33.1369 16.066 33.4553C16.2915 33.771 16.4028 34.4094 16.4028 35.3662C16.4014 36.3202 16.2887 36.9572 16.0646 37.2756ZM21.1771 33.1186C21.0221 32.8818 20.8262 32.7 20.5909 32.5732C20.3542 32.4478 20.0808 32.3844 19.768 32.3844C19.3424 32.3844 18.9901 32.4971 18.7111 32.7254C18.4306 32.9537 18.2221 33.2792 18.0784 33.6963C17.9374 34.1163 17.8656 34.6701 17.8656 35.3648C17.8656 36.4583 18.06 37.2503 18.4433 37.7378C18.7646 38.1395 19.2043 38.3438 19.768 38.3438C20.1949 38.3438 20.5472 38.2282 20.8262 37.9985C21.1067 37.7688 21.3181 37.4433 21.459 37.0234C21.5999 36.6049 21.6703 36.0525 21.6703 35.3662C21.6703 34.7884 21.6267 34.3262 21.5393 33.9866C21.4519 33.6442 21.3307 33.3553 21.1771 33.1186ZM20.598 37.2756C20.3725 37.5955 20.0963 37.7533 19.768 37.7533C19.4396 37.7533 19.162 37.5955 18.9379 37.2784C18.7139 36.9614 18.604 36.3244 18.604 35.3662C18.604 34.408 18.7252 33.7527 18.9718 33.399C19.1676 33.12 19.4312 32.9819 19.7609 32.9819C20.0949 32.9819 20.3739 33.1369 20.5994 33.4553C20.8248 33.771 20.9362 34.4094 20.9362 35.3662C20.9348 36.3202 20.8234 36.9572 20.598 37.2756ZM55.6231 38.2423V32.3858H55.1609C55.0369 32.6394 54.8255 32.8973 54.5253 33.1679C54.2252 33.4342 53.8757 33.6667 53.4769 33.8499V34.5432C53.6967 34.4587 53.9504 34.3375 54.228 34.1712C54.5084 34.0063 54.7367 33.8443 54.9044 33.678V38.2409H55.6231V38.2423ZM46.2873 45.2008L49.3537 42.1359L60 52.7794L56.9336 55.8458L46.2873 45.2008ZM50.6966 33.9077C50.8009 33.8288 50.8981 33.7555 50.9742 33.6766V38.2423H51.6901V32.383H51.2279C51.1349 32.5774 50.9686 32.7747 50.7741 32.979C50.7882 32.7212 50.8093 32.4661 50.8093 32.204C50.8093 29.9197 50.2485 27.7707 49.2649 25.8697C49.4847 25.7866 49.7355 25.664 50.016 25.5005C50.2936 25.3357 50.519 25.1722 50.691 25.0073V29.5759H51.4068V23.7179H50.9474C50.8234 23.9702 50.6092 24.2295 50.3091 24.4986C50.0117 24.7664 49.6595 24.9946 49.2607 25.1835V25.8669C47.7768 22.9992 45.3305 20.7065 42.3416 19.4411V13.9368H41.8794C41.7525 14.1891 41.5412 14.4483 41.2438 14.7175C40.9437 14.9838 40.5914 15.2135 40.1926 15.4024V16.0943C40.4152 16.0125 40.6661 15.8885 40.9465 15.7251C41.2269 15.5602 41.4524 15.3953 41.6257 15.2304V19.179C40.6985 18.8464 39.729 18.6068 38.7242 18.4772C38.8454 18.0685 38.9145 17.5556 38.9145 16.9172C38.9145 16.3395 38.8708 15.8801 38.782 15.5391C38.6946 15.1966 38.5734 14.9077 38.4213 14.671C38.2648 14.4328 38.069 14.2525 37.835 14.1256C37.5983 14.0002 37.3263 13.9368 37.0121 13.9368C36.5851 13.9368 36.2328 14.051 35.9552 14.2792C35.6748 14.5075 35.462 14.8331 35.3196 15.2516C35.1815 15.6729 35.1111 16.2267 35.1111 16.9158C35.1111 17.5302 35.1773 18.0375 35.2957 18.4589C34.6052 18.542 33.933 18.6801 33.2749 18.8619V13.9354H32.8184C32.6915 14.1876 32.4802 14.4469 32.18 14.7161C31.8798 14.981 31.5304 15.2121 31.1288 15.401V16.0929C31.3514 16.0111 31.6036 15.8871 31.8827 15.7237C32.1631 15.5588 32.39 15.3939 32.5577 15.229V19.0775C29.635 20.0611 27.1394 21.9846 25.4512 24.5014C25.4427 24.4873 25.4385 24.4648 25.43 24.4507C25.2736 24.214 25.0792 24.0322 24.8452 23.9053C24.6085 23.7799 24.3323 23.7165 24.0209 23.7165C23.5967 23.7165 23.2444 23.8307 22.964 24.0589C22.6835 24.2872 22.4722 24.6113 22.3298 25.0313C22.1889 25.4512 22.1185 26.0064 22.1185 26.6969C22.1185 27.7933 22.3101 28.5838 22.6934 29.07C22.8752 29.2983 23.1063 29.4448 23.367 29.5435C23.1979 30.4059 23.1049 31.2937 23.1049 32.204C23.1049 32.421 23.1274 32.6352 23.1373 32.848C22.9147 33.065 22.7329 33.3426 22.6103 33.6991C22.4694 34.1191 22.3989 34.6743 22.3989 35.3662C22.3989 36.4611 22.5905 37.2517 22.9738 37.7407C23.2951 38.1409 23.7376 38.3466 24.3013 38.3466C24.3887 38.3466 24.4591 38.3212 24.5394 38.3128C26.8012 42.8954 31.5106 46.0633 36.9557 46.0633C44.0199 46.059 49.8539 40.7436 50.6966 33.9077ZM35.8481 16.9158C35.8481 15.959 35.9721 15.3023 36.2201 14.9472C36.416 14.6682 36.6795 14.5287 37.0107 14.5287C37.3432 14.5287 37.6251 14.6865 37.8477 15.0007C38.0704 15.3164 38.1831 15.9548 38.1831 16.9144C38.1831 17.5598 38.1281 18.0488 38.0239 18.4025C37.6716 18.3757 37.3193 18.349 36.9585 18.349C36.6358 18.349 36.323 18.3757 36.0059 18.3969C35.9031 18.0446 35.8481 17.5584 35.8481 16.9158ZM23.188 28.6106C22.9654 28.2935 22.8541 27.6566 22.8541 26.6983C22.8541 25.7401 22.9767 25.0848 23.2233 24.7283C23.4191 24.4493 23.6841 24.3112 24.011 24.3112C24.3478 24.3112 24.6254 24.469 24.8509 24.7847C24.9227 24.8861 24.9791 25.0327 25.027 25.199C24.352 26.3446 23.8391 27.5946 23.515 28.9206C23.398 28.8417 23.2867 28.7487 23.188 28.6106ZM23.4699 37.2784C23.2472 36.9614 23.1359 36.3244 23.1359 35.3662C23.1359 34.8462 23.1753 34.4249 23.2486 34.081C23.4234 35.3662 23.7672 36.5964 24.2703 37.7491C23.9532 37.7336 23.6869 37.5842 23.4699 37.2784ZM46.1393 36.9177C45.9956 37.1953 45.8448 37.4659 45.6827 37.7266C45.7081 37.7054 45.7405 37.6885 45.7659 37.6688C45.3882 38.2733 44.9401 38.8243 44.4497 39.3373C44.3623 39.4274 44.2877 39.5247 44.1989 39.6092C44.1129 39.691 44.0312 39.7628 43.9452 39.8375C43.7085 40.0573 43.4633 40.2701 43.2082 40.4632C43.1702 40.4942 43.1251 40.528 43.087 40.5534C41.3552 41.854 39.209 42.6333 36.8754 42.6333C31.1457 42.6333 26.501 37.9887 26.501 32.2604C26.501 28.4711 28.5401 25.1623 31.5755 23.3558C31.6473 23.3107 31.7192 23.2656 31.7911 23.2219C32.0039 23.1007 32.2307 22.9922 32.4534 22.8879C33.8189 22.2214 35.3408 21.8296 36.9585 21.8296C42.6826 21.8296 47.3343 26.4841 47.3343 32.2054C47.3343 32.3069 47.323 32.4055 47.3174 32.5056C47.3146 32.5154 47.3089 32.5225 47.3061 32.5323C47.2314 32.7508 47.1962 33.0368 47.1962 33.3948C47.1962 33.5075 47.2047 33.6118 47.2131 33.7146C47.0454 34.8547 46.6988 35.9299 46.1915 36.9177H46.1393Z" fill="black"/>
</g>
<defs>
<clipPath id="clip0_16_14296">
<rect width="60" height="60" fill="white"/>
</clipPath>
</defs>
</svg>
