<svg width="60" height="60" viewBox="0 0 60 60" fill="none" xmlns="http://www.w3.org/2000/svg">
<path d="M58.7396 50.2861V52.792H1.2605V50.2861C1.2605 48.0411 3.08065 46.2209 5.32562 46.2209H6.17651H11.2185H48.7816H53.8235H54.6744C56.9194 46.2209 58.7396 48.0411 58.7396 50.2861Z" fill="#F0C419"/>
<path d="M53.8235 41.3049C55.1811 41.3049 56.2815 42.4053 56.2815 43.7629C56.2815 45.1206 55.1811 46.2209 53.8235 46.2209H48.7815C47.4239 46.2209 46.3235 45.1206 46.3235 43.7629C46.3235 43.0848 46.5983 42.4697 47.0433 42.0247C47.4882 41.5797 48.1033 41.3049 48.7815 41.3049H51.3025H53.8235Z" fill="#97C2F7"/>
<path d="M35.5437 31.9116V33.9624C35.5437 35.32 34.4433 36.4204 33.0857 36.4204C31.7281 36.4204 30.6277 35.32 30.6277 33.9624V28.9204C30.6277 27.5628 31.7281 26.4624 33.0857 26.4624C33.7639 26.4624 34.379 26.7372 34.8239 27.1822C35.2689 27.6271 35.5437 28.241 35.5437 28.9204V31.9116Z" fill="#F78A68"/>
<path d="M19.916 9.66626V14.7083C19.916 16.0659 18.8156 17.1663 17.458 17.1663C16.1004 17.1663 15 16.0659 15 14.7083V9.66626C15 8.30864 16.1004 7.20825 17.458 7.20825C18.1362 7.20825 18.7513 7.48306 19.1962 7.92802C19.6412 8.37298 19.916 8.9881 19.916 9.66626Z" fill="#F0DF9E"/>
<path d="M11.2185 36.4204C12.5761 36.4204 13.6765 37.5208 13.6765 38.8784C13.6765 40.1428 12.7223 41.1838 11.4946 41.3213C11.4039 41.3099 11.3118 41.3049 11.2185 41.3049H6.17651C6.08323 41.3049 5.99124 41.3099 5.90042 41.3213C4.67265 41.184 3.71851 40.1428 3.71851 38.8784C3.71851 38.199 3.99331 37.5851 4.43827 37.1402C4.88323 36.6952 5.49835 36.4204 6.17651 36.4204H8.69757H11.2185Z" fill="#DAEDE2"/>
<path d="M11.4946 41.3213C12.7224 41.4575 13.6765 42.4986 13.6765 43.7629C13.6765 45.1205 12.5761 46.2209 11.2185 46.2209H6.17651C4.8189 46.2209 3.71851 45.1205 3.71851 43.7629C3.71851 43.0847 3.99331 42.4696 4.43827 42.0246C4.82147 41.6414 5.33194 41.3843 5.90042 41.3213C5.99112 41.3314 6.08323 41.3364 6.17651 41.3364H11.2185C11.3118 41.3364 11.4038 41.3314 11.4946 41.3213Z" fill="#FB7B76"/>
<path d="M11.2185 41.3049C11.3118 41.3049 11.4037 41.31 11.4946 41.3213C11.4039 41.3314 11.3118 41.3365 11.2185 41.3365H6.17648C6.0832 41.3365 5.99121 41.3314 5.90039 41.3213C5.99109 41.31 6.0832 41.3049 6.17648 41.3049H11.2185Z" fill="white"/>
<path d="M57.0884 45.5412C57.3773 45.0126 57.542 44.4066 57.542 43.7629C57.542 41.7126 55.8739 40.0444 53.8235 40.0444H52.563V33.9524C52.563 33.2562 51.9986 32.6919 51.3026 32.6919C50.6066 32.6919 50.0421 33.2563 50.0421 33.9524V40.0444H48.7816C47.7882 40.0444 46.8545 40.4311 46.1522 41.1332C45.45 41.8354 45.0632 42.7692 45.0632 43.7629C45.0632 44.1817 45.1338 44.5844 45.262 44.9603H14.7382C14.8665 44.5842 14.9371 44.1817 14.9371 43.7629C14.9371 42.8322 14.5948 41.9762 14.0241 41.3206C14.5945 40.6648 14.9371 39.8088 14.9371 38.8785C14.9371 36.8282 13.269 35.16 11.2186 35.16H9.95801V18.3006C9.95801 15.9928 11.5777 14.0576 13.7395 13.5683V14.7082C13.7395 16.7585 15.4076 18.4267 17.458 18.4267C19.5084 18.4267 21.1765 16.7585 21.1765 14.7082V13.5579C23.3612 14.0301 25.0034 15.9768 25.0034 18.3007V26.3679C25.0034 29.3212 26.7251 31.9283 29.3672 33.102V33.9624C29.3672 36.0127 31.0352 37.6808 33.0857 37.6808C35.1361 37.6808 36.8041 36.0127 36.8041 33.9624V32.6624C38.973 31.334 40.3361 28.945 40.3361 26.3678V23.7208C40.3361 21.0448 42.513 18.8678 45.189 18.8678C46.485 18.8678 47.7041 19.3725 48.6207 20.288C49.5373 21.2056 50.042 22.4247 50.042 23.7208V24.6775C50.042 25.3737 50.6065 25.938 51.3025 25.938C51.9984 25.938 52.5629 25.3736 52.5629 24.6775V23.7208C52.5629 21.7518 51.7963 19.9 50.4032 18.5054C49.0096 17.1135 47.1578 16.3469 45.1889 16.3469C41.1229 16.3469 37.815 19.6548 37.815 23.7208V26.3678C37.815 27.4549 37.4447 28.4902 36.804 29.3247V28.9203C36.804 27.9267 36.4173 26.9929 35.715 26.2907C35.0129 25.5885 34.0789 25.2018 33.0855 25.2018C31.0351 25.2018 29.3671 26.8699 29.3671 28.9203V30.1807C28.2239 29.2819 27.5242 27.8953 27.5242 26.3677V18.3005C27.5242 14.5827 24.7581 11.5006 21.1762 10.9995V9.66623C21.1762 8.67271 20.7895 7.73885 20.0872 7.03654C19.385 6.33447 18.4512 5.94775 17.4578 5.94775C15.4073 5.94775 13.7393 7.61592 13.7393 9.66623V11.0056C10.1794 11.5261 7.43672 14.5988 7.43672 18.3007V35.16H6.17648C5.18309 35.16 4.24934 35.5467 3.54703 36.2488C2.84484 36.951 2.45801 37.8849 2.45801 38.8785C2.45801 39.8096 2.8009 40.6658 3.3723 41.322C2.78156 41.9987 2.45801 42.8556 2.45801 43.763C2.45801 44.4067 2.62266 45.0128 2.91164 45.5413C1.18535 46.4231 0 48.2181 0 50.286V52.7919C0 53.4881 0.564492 54.0524 1.26047 54.0524H58.7394C59.4355 54.0524 59.9999 53.488 59.9999 52.7919V50.286C60 48.2181 58.8146 46.4231 57.0884 45.5412ZM31.8882 28.9204C31.8882 28.2601 32.4254 27.7229 33.0857 27.7229C33.4057 27.7229 33.7064 27.8474 33.9326 28.0736C34.1586 28.2996 34.2831 28.6003 34.2831 28.9204V33.9624C34.2831 34.6226 33.7459 35.1599 33.0857 35.1599C32.4254 35.1599 31.8882 34.6227 31.8882 33.9624V28.9204ZM16.2605 9.66623C16.2605 9.006 16.7977 8.46881 17.4579 8.46881C17.7779 8.46881 18.0789 8.59338 18.3049 8.81943C18.531 9.04537 18.6553 9.34619 18.6553 9.66623V14.7082C18.6553 15.3685 18.1181 15.9056 17.4579 15.9056C16.7977 15.9056 16.2605 15.3685 16.2605 14.7082V9.66623ZM47.584 43.7629C47.584 43.4427 47.7084 43.1419 47.9344 42.9161C48.1605 42.6899 48.4614 42.5655 48.7814 42.5655H53.8234C54.4836 42.5655 55.0209 43.1026 55.0209 43.763C55.0209 44.4232 54.4837 44.9604 53.8234 44.9604H48.7814C48.1213 44.9603 47.584 44.4231 47.584 43.7629ZM6.17648 44.9603C5.51625 44.9603 4.97906 44.4231 4.97906 43.7629C4.97906 43.4427 5.10352 43.1419 5.32957 42.916C5.49715 42.7483 5.71184 42.6344 5.94234 42.589C6.02027 42.5938 6.09844 42.5969 6.17637 42.5969H11.2184C11.2959 42.5969 11.3734 42.5939 11.4507 42.5891C12.0071 42.6965 12.4158 43.1847 12.4158 43.7628C12.4158 44.423 11.8786 44.9603 11.2184 44.9603H6.17648ZM5.32945 38.0316C5.55563 37.8054 5.85645 37.681 6.17648 37.681H11.2185C11.8787 37.681 12.4159 38.2181 12.4159 38.8784C12.4159 39.4893 11.9596 40.0008 11.3554 40.0684C11.3109 40.0733 11.2649 40.0758 11.2185 40.0758H6.17648C6.13008 40.0758 6.08391 40.0732 6.04055 40.0685C5.43527 40.0008 4.97895 39.4892 4.97895 38.8784C4.97895 38.5583 5.1034 38.2574 5.32945 38.0316ZM57.4789 51.5313H2.52105V50.286C2.52105 48.7395 3.77918 47.4813 5.3257 47.4813H6.1766H11.2186H48.7816H53.8236H54.6745C56.2211 47.4813 57.4792 48.7395 57.4792 50.286V51.5313H57.4789Z" fill="black"/>
<path d="M51.3025 27.5439C50.6064 27.5439 50.042 28.1083 50.042 28.8044V29.7296C50.042 30.4258 50.6065 30.9901 51.3025 30.9901C51.9984 30.9901 52.5629 30.4257 52.5629 29.7296V28.8044C52.5629 28.1083 51.9984 27.5439 51.3025 27.5439Z" fill="black"/>
</svg>
