<svg width="512" height="512" viewBox="0 0 512 512" fill="none" xmlns="http://www.w3.org/2000/svg">
<path d="M256.004 144.544H154.676V309.416L182.604 337.352V377.88H224.764V512H288.868V377.88H329.404V337.352L357.332 309.416V144.544H256.004Z" fill="#E21B1B"/>
<path d="M331.836 0H180.18V144.4H331.836V0Z" fill="#E8E8E8"/>
<path d="M190.244 0H180.188V144.4H190.244V0Z" fill="#AAAAAA"/>
<path d="M331.82 0H321.764V144.4H331.82V0Z" fill="#AAAAAA"/>
<path d="M237.436 61.5601H205.196V87.5201H237.436V61.5601Z" fill="black"/>
<path d="M306.804 61.5601H274.564V87.5201H306.804V61.5601Z" fill="black"/>
<path d="M299.636 309.928H211.636C206.164 309.912 201.732 305.472 201.732 300V187.376C201.74 181.904 206.172 177.472 211.644 177.464H299.644C305.116 177.472 309.548 181.904 309.556 187.376V300C309.556 305.48 305.116 309.92 299.636 309.928ZM211.636 182.312C208.844 182.32 206.58 184.584 206.572 187.376V300C206.58 302.792 208.844 305.056 211.636 305.064H299.636C302.428 305.056 304.692 302.792 304.7 300V187.376C304.692 184.584 302.428 182.32 299.636 182.312H211.636Z" fill="black"/>
<path d="M337.5 377.84H174.508V396.216H337.5V377.84Z" fill="black"/>
<path d="M256.804 261.352H254.404V253.76C254.404 250.2 258.772 246.624 263.38 242.832C264.364 242.032 265.332 241.232 266.228 240.432L266.788 239.96C269.492 238.344 271.036 235.336 270.788 232.2V221.6H273.188V232.2C273.444 236.048 271.588 239.728 268.332 241.8L267.78 242.272C266.86 243.072 265.876 243.872 264.884 244.672C261.084 247.784 256.788 251.312 256.788 253.72L256.804 261.352Z" fill="white"/>
<path d="M256.788 203.384H254.364V277.424H256.788V203.384Z" fill="white"/>
<path d="M239.188 240.672C242.785 240.672 245.7 237.756 245.7 234.16C245.7 230.563 242.785 227.648 239.188 227.648C235.592 227.648 232.676 230.563 232.676 234.16C232.676 237.756 235.592 240.672 239.188 240.672Z" fill="white"/>
<path d="M255.58 292.632C260.679 292.632 264.812 288.499 264.812 283.4C264.812 278.301 260.679 274.168 255.58 274.168C250.481 274.168 246.348 278.301 246.348 283.4C246.348 288.499 250.481 292.632 255.58 292.632Z" fill="white"/>
<path d="M278.612 213.808H265.364V227.056H278.612V213.808Z" fill="white"/>
<path d="M248.9 206.328L255.58 194.76L262.26 206.328H248.9Z" fill="white"/>
<path d="M256.804 274.176H254.404V267.44C254.332 266.024 248.636 261.136 246.204 259.04C244.82 257.848 243.62 256.816 242.932 256.128C239.588 253.28 237.764 249.024 238.02 244.632V234.232H240.42V244.632C240.148 248.384 241.716 252.032 244.636 254.408C245.292 255.08 246.444 256.064 247.772 257.2C253.06 261.752 256.812 265.152 256.812 267.432L256.804 274.176Z" fill="white"/>
</svg>
