<svg width="504" height="504" viewBox="0 0 504 504" fill="none" xmlns="http://www.w3.org/2000/svg">
<g clip-path="url(#clip0_10_405)">
<path d="M449.25 402.885V344.131H415.676V402.885C415.676 435.619 389.656 461.639 356.922 461.639H256.201C223.466 461.639 197.447 435.619 197.447 402.885V352.524H163.872V402.885C163.872 454.085 205 495.213 256.201 495.213H356.922C408.122 495.213 449.25 454.085 449.25 402.885Z" fill="#FFE100"/>
<path d="M482.823 92.3276H382.103V16.7866C382.103 11.7506 385.46 8.39355 390.496 8.39355H474.43C479.466 8.39355 482.823 11.7506 482.823 16.7866L482.823 92.3276Z" fill="#FFE100"/>
<path d="M474.43 8.39258H457.643C462.679 8.39258 466.036 11.7496 466.036 16.7856V92.3266H482.823V16.7866C482.824 12.5896 479.467 8.39258 474.43 8.39258Z" fill="#FFA800"/>
<path d="M390.496 276.984V243.41L373.709 218.229V92.3281H491.217V218.229L474.43 243.41V276.984H390.496Z" fill="#FFE100"/>
<path d="M474.43 92.3281V218.229L457.644 243.41V276.984H474.43V243.41L491.217 218.229V92.3281H474.43Z" fill="#FFA800"/>
<path d="M457.644 344.131H407.283C402.247 344.131 398.89 340.774 398.89 335.738V276.984H466.038V335.738C466.037 340.774 462.68 344.131 457.644 344.131Z" fill="#FFE100"/>
<path d="M449.25 276.984V335.738C449.25 340.774 445.893 344.131 440.857 344.131H457.644C462.68 344.131 466.037 340.774 466.037 335.738V276.984H449.25Z" fill="#FFA800"/>
<path d="M21.1845 285.377H340.134V50.3613H21.1845V285.377Z" fill="#FFE100"/>
<path d="M314.955 285.377H340.135V50.3613H314.955V285.377Z" fill="#FFA800"/>
<path d="M21.1845 285.377H46.3645V50.3613H21.1845V285.377Z" fill="white"/>
<path d="M205.84 352.525H155.479C150.443 352.525 147.086 349.168 147.086 344.132V285.378H214.234V344.132C214.234 349.167 210.876 352.525 205.84 352.525Z" fill="#FFE100"/>
<path d="M247.808 50.3606H113.512V16.7866C113.512 11.7506 116.869 8.39355 121.905 8.39355H239.413C244.449 8.39355 247.806 11.7506 247.806 16.7866V50.3606H247.808Z" fill="#FFE100"/>
<path d="M239.414 8.39258H214.234C219.27 8.39258 222.627 11.7496 222.627 16.7856V50.3596H247.807V16.7866C247.808 12.5896 244.45 8.39258 239.414 8.39258Z" fill="#FFA800"/>
<path d="M121.906 8.39258H147.086C142.05 8.39258 138.693 11.7496 138.693 16.7856V50.3596H113.513V16.7866C113.512 12.5896 116.87 8.39258 121.906 8.39258Z" fill="white"/>
<path d="M79.9385 344.131H63.1515C58.1155 344.131 54.7585 340.774 54.7585 335.738V285.377H88.3325V335.738C88.3315 340.774 84.9745 344.131 79.9385 344.131Z" fill="#63D3FD"/>
<path d="M289.775 344.131H272.987C267.951 344.131 264.595 340.774 264.595 335.738V285.377H298.168V335.738C298.167 340.774 294.811 344.131 289.775 344.131Z" fill="#63D3FD"/>
<path d="M281.38 16.7871H298.168C303.204 16.7871 306.56 20.1441 306.56 25.1801V50.3601H272.987V25.1801C272.988 20.9841 276.344 16.7871 281.38 16.7871Z" fill="#63D3FD"/>
<path d="M63.1515 16.7871H79.9385C84.9745 16.7871 88.3315 20.1441 88.3315 25.1801V50.3601H54.7575V25.1801C54.7575 20.9841 58.1155 16.7871 63.1515 16.7871Z" fill="#63D3FD"/>
<path d="M197.447 285.377V344.131C197.447 349.167 194.09 352.524 189.054 352.524H205.841C210.877 352.524 214.234 349.167 214.234 344.131V285.377H197.447Z" fill="#FFA800"/>
<path d="M163.873 285.377V344.131C163.873 349.167 167.23 352.524 172.266 352.524H155.479C150.443 352.524 147.086 349.167 147.086 344.131V285.377H163.873Z" fill="white"/>
<path d="M340.134 293.77H21.1845C16.1485 293.77 12.7915 290.413 12.7915 285.377V50.3608C12.7915 45.3248 16.1485 41.9678 21.1845 41.9678H340.135C345.171 41.9678 348.529 45.3248 348.529 50.3608V285.377C348.529 290.413 345.17 293.77 340.134 293.77ZM29.5775 276.984H331.741V58.7538H29.5775V276.984Z" fill="black"/>
<path d="M205.84 360.918H155.479C146.246 360.918 138.692 353.364 138.692 344.131V285.377C138.692 280.341 142.049 276.984 147.085 276.984H214.233C219.269 276.984 222.626 280.341 222.626 285.377V344.131C222.627 353.364 215.073 360.918 205.84 360.918ZM155.48 293.77V344.131H205.84L205.841 293.77H155.48Z" fill="black"/>
<path d="M247.808 58.754H113.512C108.476 58.754 105.119 55.397 105.119 50.361V16.787C105.119 7.554 112.673 0 121.906 0H239.414C248.647 0 256.201 7.554 256.201 16.787V50.361C256.201 55.397 252.844 58.754 247.808 58.754ZM121.906 41.967H239.414V16.787H121.906V41.967Z" fill="black"/>
<path d="M79.9385 352.525H63.1515C53.9185 352.525 46.3645 344.971 46.3645 335.738V285.377C46.3645 280.341 49.7215 276.984 54.7575 276.984H88.3315C93.3675 276.984 96.7245 280.341 96.7245 285.377V335.738C96.7255 344.97 89.1705 352.525 79.9385 352.525ZM63.1515 293.77V335.737H79.9385V293.77H63.1515Z" fill="black"/>
<path d="M289.775 352.525H272.987C263.754 352.525 256.201 344.971 256.201 335.738V285.377C256.201 280.341 259.558 276.984 264.594 276.984H298.168C303.204 276.984 306.56 280.341 306.56 285.377V335.738C306.561 344.97 299.008 352.525 289.775 352.525ZM272.987 293.77V335.737H289.775V293.77H272.987Z" fill="black"/>
<path d="M306.562 58.7536H272.988C267.952 58.7536 264.595 55.3966 264.595 50.3606V25.1796C264.595 15.9466 272.149 8.39258 281.382 8.39258H298.169C307.402 8.39258 314.956 15.9466 314.956 25.1796V50.3596C314.955 55.3966 311.598 58.7536 306.562 58.7536ZM281.381 41.9666H298.168V25.1796H281.381V41.9666Z" fill="black"/>
<path d="M88.3315 58.7536H54.7575C49.7215 58.7536 46.3645 55.3966 46.3645 50.3606V25.1796C46.3645 15.9466 53.9185 8.39258 63.1515 8.39258H79.9385C89.1715 8.39258 96.7255 15.9466 96.7255 25.1796V50.3596C96.7255 55.3966 93.3675 58.7536 88.3315 58.7536ZM63.1515 41.9666H79.9385V25.1796H63.1515V41.9666Z" fill="black"/>
<path d="M348.529 109.115H12.7905C7.75452 109.115 4.39752 105.758 4.39752 100.722C4.39752 95.6861 7.75452 92.3291 12.7905 92.3291H348.529C353.565 92.3291 356.922 95.6861 356.922 100.722C356.922 105.758 353.565 109.115 348.529 109.115Z" fill="black"/>
<path d="M348.529 142.689H12.7905C7.75452 142.689 4.39752 139.332 4.39752 134.296C4.39752 129.26 7.75452 125.903 12.7905 125.903H348.529C353.565 125.903 356.922 129.26 356.922 134.296C356.922 139.332 353.565 142.689 348.529 142.689Z" fill="black"/>
<path d="M348.529 176.262H12.7905C7.75452 176.262 4.39752 172.905 4.39752 167.869C4.39752 162.833 7.75452 159.476 12.7905 159.476H348.529C353.565 159.476 356.922 162.833 356.922 167.869C356.922 172.905 353.565 176.262 348.529 176.262Z" fill="black"/>
<path d="M348.529 209.836H12.7905C7.75452 209.836 4.39752 206.479 4.39752 201.443C4.39752 196.407 7.75452 193.05 12.7905 193.05H348.529C353.565 193.05 356.922 196.407 356.922 201.443C356.922 206.479 353.565 209.836 348.529 209.836Z" fill="black"/>
<path d="M348.529 243.41H12.7905C7.75452 243.41 4.39752 240.053 4.39752 235.017C4.39752 229.981 7.75452 226.624 12.7905 226.624H348.529C353.565 226.624 356.922 229.981 356.922 235.017C356.922 240.052 353.565 243.41 348.529 243.41Z" fill="black"/>
<path d="M222.626 327.344H138.693C133.657 327.344 130.299 323.987 130.299 318.951C130.299 313.915 133.657 310.558 138.693 310.558H222.626C227.662 310.558 231.02 313.915 231.02 318.951C231.02 323.987 227.662 327.344 222.626 327.344Z" fill="black"/>
<path d="M482.824 100.721H382.103C377.067 100.721 373.71 97.364 373.71 92.328V16.787C373.709 7.554 381.263 0 390.496 0H474.43C483.663 0 491.217 7.554 491.217 16.787V92.328C491.217 97.364 487.86 100.721 482.824 100.721ZM390.496 83.934H474.43V16.787H390.496V83.934Z" fill="black"/>
<path d="M474.43 285.377H390.496C385.46 285.377 382.103 282.02 382.103 276.984V245.928L366.995 223.266C366.156 221.587 365.316 219.909 365.316 218.23V92.3276C365.316 87.2916 368.673 83.9346 373.709 83.9346H491.217C496.253 83.9346 499.61 87.2916 499.61 92.3276V218.23C499.61 219.909 498.771 221.587 497.931 223.266L482.823 245.928V276.984C482.824 282.02 479.467 285.377 474.43 285.377ZM398.89 268.59H466.038V243.41C466.038 241.731 466.877 240.053 467.717 238.374L482.825 215.712V100.721H382.103V215.711L397.211 238.373C398.05 240.052 398.89 241.73 398.89 243.409V268.59Z" fill="black"/>
<path d="M457.644 352.525H407.283C398.05 352.525 390.496 344.971 390.496 335.738V276.984C390.496 271.948 393.853 268.591 398.889 268.591H466.037C471.073 268.591 474.43 271.948 474.43 276.984V335.738C474.43 344.97 466.876 352.525 457.644 352.525ZM407.283 285.377V335.738H457.644V285.377H407.283Z" fill="black"/>
<path d="M424.07 8.39258H407.283V50.3596H424.07V8.39258Z" fill="black"/>
<path d="M457.644 8.39258H440.857V50.3596H457.644V8.39258Z" fill="black"/>
<path d="M474.43 318.951H390.496C385.46 318.951 382.103 315.594 382.103 310.558C382.103 305.522 385.46 302.165 390.496 302.165H474.43C479.466 302.165 482.823 305.522 482.823 310.558C482.824 315.593 479.467 318.951 474.43 318.951Z" fill="black"/>
<path d="M356.921 503.607H256.2C200.803 503.607 155.479 458.282 155.479 402.886V352.525C155.479 347.489 158.836 344.132 163.872 344.132H197.446C202.482 344.132 205.839 347.489 205.839 352.525V402.886C205.839 430.584 228.501 453.247 256.2 453.247H356.921C384.619 453.247 407.282 430.585 407.282 402.886V344.132C407.282 339.096 410.639 335.739 415.675 335.739H449.25C454.286 335.739 457.642 339.096 457.642 344.132V402.886C457.643 458.282 412.318 503.607 356.921 503.607ZM172.266 360.918V402.885C172.266 449.049 210.036 486.819 256.2 486.819H356.921C403.085 486.819 440.855 449.049 440.855 402.885V352.524H424.068V402.885C424.068 439.816 393.852 470.033 356.92 470.033H256.2C219.269 470.033 189.052 439.817 189.052 402.885V360.918H172.266Z" fill="black"/>
</g>
<defs>
<clipPath id="clip0_10_405">
<rect width="503.607" height="503.607" fill="white" transform="translate(0.2005)"/>
</clipPath>
</defs>
</svg>
