<svg width="60" height="60" viewBox="0 0 60 60" fill="none" xmlns="http://www.w3.org/2000/svg">
<g clip-path="url(#clip0_16_15275)">
<path d="M13.3955 48.6455V54.2205C13.3955 56.7524 15.4481 58.8049 17.9799 58.8049H42.0199C44.5519 58.8049 46.6043 56.7523 46.6043 54.2205V48.6455H13.3955Z" fill="#7ACBFF"/>
<path d="M46.6045 5.7797C46.6045 3.24774 44.552 1.19531 42.0201 1.19531H17.9801C15.4482 1.19531 13.3958 3.24786 13.3958 5.7797V48.6456H46.6046L46.6045 5.7797Z" fill="#FFF1B8"/>
<path d="M30 55.5781C31.0892 55.5781 31.9721 54.6951 31.9721 53.6059C31.9721 52.5167 31.0892 51.6338 30 51.6338C28.9108 51.6338 28.0278 52.5167 28.0278 53.6059C28.0278 54.6951 28.9108 55.5781 30 55.5781Z" fill="#FFF1B8"/>
<path d="M41.2259 18.1675H18.7742V31.2077H36.9919L41.2259 35.8567V18.1675Z" fill="#7ACBFF"/>
<path d="M47.7996 5.77958C47.7996 2.59266 45.2067 0 42.0199 0H17.98C14.7931 0 12.2004 2.59266 12.2004 5.77958V54.2203C12.2004 57.4072 14.7931 59.9999 17.98 59.9999H42.0199C45.2068 59.9999 47.7995 57.4072 47.7995 54.2203V5.77958H47.7996ZM14.5907 5.77958C14.5907 3.91079 16.1111 2.3904 17.9799 2.3904H42.0199C43.8887 2.3904 45.4091 3.91079 45.4091 5.77958V47.4502H14.5907V5.77958ZM45.4091 54.2205C45.4091 56.0893 43.8887 57.6097 42.0199 57.6097H17.98C16.1112 57.6097 14.5908 56.0893 14.5908 54.2205V49.8408H45.4092L45.4091 54.2205Z" fill="#0B6699"/>
<path d="M28.267 6.45436H31.7332C32.3933 6.45436 32.9284 5.91928 32.9284 5.25916C32.9284 4.59904 32.3933 4.06396 31.7332 4.06396H28.267C27.6069 4.06396 27.0718 4.59904 27.0718 5.25916C27.0718 5.91928 27.6069 6.45436 28.267 6.45436Z" fill="#0B6699"/>
<path d="M28.3833 43.5059H17.6893C17.0292 43.5059 16.4941 44.0409 16.4941 44.7011C16.4941 45.3612 17.0292 45.8963 17.6893 45.8963H28.3833C29.0434 45.8963 29.5785 45.3612 29.5785 44.7011C29.5785 44.0409 29.0434 43.5059 28.3833 43.5059Z" fill="#0B6699"/>
<path d="M33.1076 43.5059H32.4811C31.821 43.5059 31.2859 44.0409 31.2859 44.7011C31.2859 45.3612 31.821 45.8963 32.4811 45.8963H33.1076C33.7677 45.8963 34.3028 45.3612 34.3028 44.7011C34.3028 44.0409 33.7677 43.5059 33.1076 43.5059Z" fill="#0B6699"/>
<path d="M29.9999 56.7732C31.7463 56.7732 33.1672 55.3523 33.1672 53.6058C33.1672 51.8594 31.7463 50.4385 29.9999 50.4385C28.2534 50.4385 26.8325 51.8594 26.8325 53.6058C26.8325 55.3523 28.2534 56.7732 29.9999 56.7732ZM29.9999 52.829C30.4282 52.829 30.7767 53.1775 30.7767 53.6058C30.7767 54.0341 30.4282 54.3827 29.9999 54.3827C29.5715 54.3827 29.223 54.0341 29.223 53.6058C29.2229 53.1775 29.5715 52.829 29.9999 52.829Z" fill="#0B6699"/>
<path d="M51.8684 23.2036C51.4016 22.7368 50.6448 22.7368 50.1779 23.2036C49.7112 23.6703 49.7112 24.4271 50.1779 24.894C52.9274 27.6435 52.9274 32.1174 50.1779 34.8667C49.7112 35.3335 49.7112 36.0902 50.1779 36.5571C50.4114 36.7906 50.7172 36.9072 51.0231 36.9072C51.329 36.9072 51.6349 36.7906 51.8683 36.5571C55.5498 32.8756 55.5498 26.8852 51.8684 23.2036Z" fill="#0B6699"/>
<path d="M55.0801 19.9922C54.6133 19.5254 53.8565 19.5254 53.3896 19.9922C52.9229 20.4589 52.9229 21.2157 53.3896 21.6826C57.91 26.2029 57.91 33.558 53.3896 38.0786C52.9229 38.5453 52.9229 39.3021 53.3896 39.769C53.6231 40.0024 53.9289 40.119 54.2348 40.119C54.5406 40.119 54.8466 40.0024 55.0799 39.769C57.7211 37.1277 59.1759 33.6161 59.1759 29.8807C59.1759 26.1453 57.7213 22.6335 55.0801 19.9922Z" fill="#0B6699"/>
<path d="M9.82173 23.2036C9.35497 22.7368 8.59817 22.7368 8.13129 23.2036C4.44972 26.8852 4.44972 32.8754 8.13129 36.5571C8.36473 36.7906 8.67059 36.9072 8.97645 36.9072C9.28231 36.9072 9.58829 36.7906 9.82161 36.5571C10.2884 36.0904 10.2884 35.3336 9.82161 34.8667C7.07215 32.1172 7.07215 27.6434 9.82161 24.894C10.2885 24.4271 10.2885 23.6703 9.82173 23.2036Z" fill="#0B6699"/>
<path d="M6.61024 21.6826C7.07699 21.2158 7.07699 20.459 6.61024 19.9922C6.14348 19.5254 5.38668 19.5254 4.9198 19.9922C2.27863 22.6335 0.823975 26.1452 0.823975 29.8805C0.823975 33.6157 2.27851 37.1275 4.91992 39.7688C5.15336 40.0022 5.45922 40.1188 5.76508 40.1188C6.07094 40.1188 6.37692 40.0022 6.61024 39.7688C7.07699 39.302 7.07699 38.5452 6.61024 38.0783C2.08972 33.558 2.08972 26.2029 6.61024 21.6826Z" fill="#0B6699"/>
<path d="M41.2258 16.9722H18.7741C18.1139 16.9722 17.5789 17.5072 17.5789 18.1674V31.2075C17.5789 31.8677 18.1139 32.4027 18.7741 32.4027H36.4637L40.342 36.6615C40.5731 36.9152 40.8958 37.0519 41.2259 37.0519C41.3707 37.0519 41.5168 37.0257 41.6572 36.9713C42.1176 36.7931 42.4209 36.3502 42.4209 35.8566V18.1674C42.421 17.5072 41.8859 16.9722 41.2258 16.9722ZM40.0306 32.7692L37.8755 30.4028C37.649 30.1541 37.3283 30.0124 36.9918 30.0124H19.9693V19.3627H40.0306V32.7692Z" fill="#0B6699"/>
<path d="M23.6056 23.9046H36.3944C37.0545 23.9046 37.5896 23.3695 37.5896 22.7094C37.5896 22.0492 37.0545 21.5142 36.3944 21.5142H23.6056C22.9455 21.5142 22.4104 22.0492 22.4104 22.7094C22.4104 23.3695 22.9455 23.9046 23.6056 23.9046Z" fill="#0B6699"/>
<path d="M23.6056 27.8484H36.3944C37.0545 27.8484 37.5896 27.3133 37.5896 26.6532C37.5896 25.9931 37.0545 25.458 36.3944 25.458H23.6056C22.9455 25.458 22.4104 25.9931 22.4104 26.6532C22.4104 27.3133 22.9455 27.8484 23.6056 27.8484Z" fill="#0B6699"/>
</g>
<defs>
<clipPath id="clip0_16_15275">
<rect width="60" height="60" fill="white"/>
</clipPath>
</defs>
</svg>
