<svg width="60" height="60" viewBox="0 0 60 60" fill="none" xmlns="http://www.w3.org/2000/svg">
<g clip-path="url(#clip0_16_14370)">
<path d="M51.4229 28.9154C50.3549 28.9154 49.315 29.1117 48.3265 29.497L47.8548 28.7286L53.4988 27.9764C53.575 27.9658 55.3778 27.7325 55.6197 26.387C56.0473 24.0036 51.0105 20.1533 40.2202 14.6122C39.2315 14.153 38.5107 13.9292 38.0169 13.9292C37.4279 13.9292 37.2051 14.2455 37.1247 14.4315C36.689 15.4358 38.6493 18.0762 40.5756 20.3229C38.4566 19.1968 35.0028 17.6847 31.7355 17.6847C30.0919 17.6847 28.657 18.0702 27.4702 18.8304C26.5298 19.4307 25.3333 21.0135 23.9024 23.5338C23.8397 23.4341 23.7374 23.3642 23.6209 23.3446L15.1374 21.8431L13.9554 18.2948C13.9083 18.1504 13.7868 18.0464 13.6367 18.0153C13.474 17.9846 9.61069 17.2354 6.13417 17.2354C2.30595 17.2354 0.247247 18.1277 0.0128939 19.8853C-0.535045 24.0243 16.7107 29.5137 20.3792 30.6325C19.5211 32.5486 18.8404 34.1807 18.4847 35.0569C17.4157 31.4745 14.0271 28.9156 10.2696 28.9156C5.54143 28.9156 1.69215 32.7654 1.69215 37.4961C1.69215 42.2246 5.54143 46.0711 10.2696 46.0711C14.0537 46.0711 17.4177 43.5497 18.4877 39.9271H38.7588C38.8963 39.9271 39.0287 39.8579 39.1061 39.7433L45.3424 30.5812L45.6766 31.1253C43.8749 32.7522 42.8451 35.0658 42.8451 37.4949C42.8451 42.2245 46.6934 46.0699 51.4231 46.0699C56.1528 46.0699 60.0002 42.2245 60.0002 37.4949C60 32.7654 56.1514 28.9154 51.4229 28.9154ZM48.9165 22.0931C49.0812 21.8658 49.4013 21.7498 49.8722 21.7498C50.1955 21.7498 50.5838 21.8039 51.0284 21.9138C54.5225 24.4487 54.8879 25.7099 54.7954 26.2389C54.6651 26.9741 53.4072 27.1448 53.3922 27.1458L50.6821 27.5077C49.7386 26.0211 48.219 23.0797 48.9165 22.0931ZM15.5914 36.6137C15.5147 36.7121 15.3911 36.7711 15.2638 36.7711H9.18093V39.0878H14.9871C15.1265 39.0878 15.2587 39.157 15.3353 39.2775C15.4137 39.3938 15.4282 39.5446 15.3704 39.6718C14.4957 41.7185 12.4921 43.0413 10.2684 43.0413C7.20848 43.0413 4.71985 40.5521 4.71985 37.4958C4.71985 34.4335 7.20865 31.946 10.2684 31.946C12.8717 31.946 15.0909 33.7207 15.6726 36.2581C15.7024 36.3848 15.6726 36.5142 15.5914 36.6137ZM51.4229 43.0415C48.3644 43.0415 45.8761 40.5522 45.8761 37.4949C45.8761 35.9952 46.4664 34.5879 47.5424 33.5342C47.6358 33.4417 47.7632 33.3936 47.8947 33.4166C48.0131 33.4319 48.1266 33.5041 48.1938 33.6125L50.5928 37.511L51.8134 36.7603L49.4153 32.8617C49.3512 32.7552 49.3351 32.6218 49.3772 32.5005C49.4204 32.3799 49.5166 32.2857 49.6372 32.2455C50.2192 32.0468 50.8206 31.9443 51.4237 31.9443C54.4812 31.9443 56.9705 34.4338 56.9705 37.4941C56.9686 40.5524 54.4792 43.0415 51.4229 43.0415Z" fill="black"/>
</g>
<defs>
<clipPath id="clip0_16_14370">
<rect width="60" height="60" fill="white"/>
</clipPath>
</defs>
</svg>
