<svg width="512" height="512" viewBox="0 0 512 512" fill="none" xmlns="http://www.w3.org/2000/svg">
<g clip-path="url(#clip0_10_454)">
<path d="M307.204 307.2H204.804V324.267H307.204V307.2Z" fill="black"/>
<path d="M307.204 238.933H204.804V256H307.204V238.933Z" fill="black"/>
<path d="M324.271 0H187.737C178.35 0 170.67 7.68 170.67 17.067V42.667C170.67 52.054 178.35 59.734 187.737 59.734H192.004L203.951 77.654C207.364 82.774 212.484 85.334 218.458 85.334H294.404C300.377 85.334 305.497 82.774 308.911 77.654L320.004 59.733H324.271C333.658 59.733 341.338 52.053 341.338 42.666V17.066C341.337 7.68 333.657 0 324.271 0ZM290.137 51.2H221.87C216.75 51.2 213.337 47.787 213.337 42.667C213.337 37.547 216.75 34.134 221.87 34.134H290.137C295.257 34.134 298.67 37.547 298.67 42.667C298.67 47.787 295.257 51.2 290.137 51.2Z" fill="black"/>
<path d="M349.871 187.733H341.338V119.466C341.338 110.079 333.658 102.399 324.271 102.399H307.204V187.732H290.137V102.4H221.87V187.733H204.804V102.4H187.737C178.35 102.4 170.67 110.08 170.67 119.467V187.734H162.137C152.75 187.734 145.07 195.414 145.07 204.801V366.934C145.07 368.641 145.923 370.347 146.777 372.054L162.137 395.094V418.134C162.137 427.521 169.817 435.201 179.204 435.201H213.337V460.801C208.217 460.801 204.804 464.214 204.804 469.334C204.804 474.454 208.217 477.867 213.337 477.867V494.934C213.337 504.321 221.017 512.001 230.404 512.001H281.604C290.991 512.001 298.671 504.321 298.671 494.934V477.867C303.791 477.867 307.204 474.454 307.204 469.334C307.204 464.214 303.791 460.801 298.671 460.801V435.201H332.804C342.191 435.201 349.871 427.521 349.871 418.134V395.094L365.231 372.054C366.084 370.347 366.938 368.641 366.938 366.934V204.8C366.937 195.413 359.257 187.733 349.871 187.733ZM264.537 153.6H281.604V170.667H264.537V153.6ZM230.404 153.6H247.471V170.667H230.404V153.6ZM281.604 494.933H230.404V477.866H281.604V494.933ZM281.604 460.8H230.404V435.2H281.604V460.8ZM324.271 332.8C324.271 337.92 320.858 341.333 315.738 341.333H196.271C191.151 341.333 187.738 337.92 187.738 332.8V298.667C187.738 293.547 191.151 290.134 196.271 290.134H315.738C320.858 290.134 324.271 293.547 324.271 298.667V332.8ZM324.271 264.533C324.271 269.653 320.858 273.066 315.738 273.066H196.271C191.151 273.066 187.738 269.653 187.738 264.533V230.4C187.738 225.28 191.151 221.867 196.271 221.867H315.738C320.858 221.867 324.271 225.28 324.271 230.4V264.533Z" fill="black"/>
</g>
<defs>
<clipPath id="clip0_10_454">
<rect width="512" height="512" fill="white" transform="translate(0.00402832)"/>
</clipPath>
</defs>
</svg>
