<svg width="60" height="60" viewBox="0 0 60 60" fill="none" xmlns="http://www.w3.org/2000/svg">
<g clip-path="url(#clip0_14_5312)">
<path d="M7.70376 14.9317C11.7183 14.9317 14.9843 11.6657 14.9843 7.65114C14.9843 3.63662 11.7183 0.370605 7.70376 0.370605C3.68924 0.370605 0.423229 3.63662 0.423229 7.65101C0.423229 11.6655 3.68924 14.9317 7.70376 14.9317Z" fill="black"/>
<path d="M59.7147 38.7885L54.6771 33.1199H56.2918C56.677 33.1199 56.9885 32.9348 57.125 32.6247C57.2627 32.3115 57.1868 31.952 56.9222 31.6629L51.5492 25.7902H53.5534C53.915 25.7902 54.2039 25.6176 54.3262 25.3284C54.4481 25.0402 54.3719 24.7143 54.1221 24.4567L49.0392 19.2189H50.6885C51.2248 19.2189 51.4157 18.8662 51.4614 18.7581C51.5831 18.4708 51.5068 18.1455 51.2569 17.8881L46.0554 12.5312C45.8661 12.3361 45.6124 12.2285 45.341 12.2285C45.0714 12.2285 44.8087 12.3401 44.6208 12.534L39.4183 17.8867C39.1688 18.1441 39.0924 18.4696 39.2143 18.7575C39.3366 19.0464 39.6255 19.2189 39.9872 19.2189H41.6376L36.5534 24.4556C36.3036 24.7133 36.2273 25.0394 36.3495 25.3281C36.4719 25.6176 36.7608 25.7903 37.1221 25.7903H39.1249L33.7536 31.666C33.489 31.955 33.4131 32.3138 33.5503 32.6258C33.6865 32.9353 33.998 33.12 34.3837 33.12H35.9982L32.225 37.3671L26.3698 30.9717H29.4224C29.7822 30.9717 30.0708 30.7974 30.1943 30.5055C30.318 30.2133 30.2421 29.8845 29.9912 29.6257L23.0859 22.5046H25.7395C26.1012 22.5046 26.3901 22.3321 26.5124 22.0431C26.6343 21.755 26.558 21.4293 26.3082 21.1716L19.4703 14.1264C19.2809 13.931 19.027 13.8235 18.7554 13.8235C18.4861 13.8235 18.2235 13.9349 18.0356 14.1288L11.1972 21.1704C10.9474 21.4279 10.8712 21.754 10.9933 22.0425C11.1157 22.3319 11.4046 22.5045 11.7661 22.5045H14.4193L7.51408 29.6259C7.26322 29.8845 7.18727 30.2133 7.31087 30.5054C7.43446 30.7973 7.72297 30.9716 8.08289 30.9716H11.1346L3.89624 38.8803C3.63262 39.1682 3.55642 39.5242 3.69215 39.8327C3.82737 40.1399 4.13926 40.3232 4.52634 40.3232H7.15745L0.285481 48.0452C-0.113229 48.4937 0.00113902 48.8929 0.0688755 49.0438C0.136991 49.1956 0.361179 49.5485 0.96967 49.5485H14.5823V55.7444L14.0111 55.9518C13.0269 56.309 12.5187 57.3964 12.876 58.3804C13.1557 59.1511 13.8831 59.6298 14.658 59.6298C14.8727 59.6298 15.0912 59.593 15.3047 59.5155L21.8885 57.1258C22.0583 57.1086 22.2159 57.0491 22.3505 56.9581L53.8067 45.5403C54.7909 45.1831 55.299 44.0958 54.9418 43.1117C54.5845 42.1275 53.497 41.6193 52.5131 41.9766L48.7034 43.3594V40.3232H59.0303C59.4481 40.3232 59.7839 40.1306 59.9289 39.8079C60.0742 39.484 59.9942 39.103 59.7147 38.7885ZM22.7966 49.5485H31.6522L22.7966 52.7629V49.5485ZM36.8699 47.6546L30.3485 40.3232H31.6453H32.9791H42.0055V45.3782C42.0055 45.5143 42.0329 45.6441 42.0819 45.7628L36.8699 47.6546Z" fill="black"/>
</g>
<defs>
<clipPath id="clip0_14_5312">
<rect width="60" height="60" fill="white"/>
</clipPath>
</defs>
</svg>
