<svg width="512" height="512" viewBox="0 0 512 512" fill="none" xmlns="http://www.w3.org/2000/svg">
<path d="M311.241 8.70703H76.719V503.292H311.241V8.70703Z" fill="#2BA5F7"/>
<path d="M374.91 8.70703H140.388V503.292H374.91V8.70703Z" fill="#F95428"/>
<path d="M435.282 8.70703H200.76V503.292H435.282V8.70703Z" fill="#F7B239"/>
<path d="M262.293 134.095C278.323 134.095 291.318 121.1 291.318 105.07C291.318 89.0399 278.323 76.0449 262.293 76.0449C246.263 76.0449 233.268 89.0399 233.268 105.07C233.268 121.1 246.263 134.095 262.293 134.095Z" fill="#F95428"/>
<path d="M300.606 226.975H233.268V294.313H300.606V226.975Z" fill="#2BA5F7"/>
<path d="M402.773 327.692H335.435V395.03H402.773V327.692Z" fill="#2BA5F7"/>
<path d="M435.279 0H200.757C195.948 0 192.05 3.899 192.05 8.707V503.292C192.05 508.101 195.949 511.999 200.757 511.999H435.279C440.088 511.999 443.986 508.1 443.986 503.292V8.707C443.986 3.899 440.088 0 435.279 0ZM426.571 17.415V34.83H209.465V17.415H426.571ZM209.465 494.585V52.245H426.572V494.585H209.465Z" fill="#333333"/>
<path d="M174.83 17.415C179.639 17.415 183.537 13.516 183.537 8.708C183.537 3.9 179.639 0 174.83 0H140.386C135.577 0 131.679 3.899 131.679 8.707V503.292C131.679 508.101 135.578 511.999 140.386 511.999H174.83C179.639 511.999 183.537 508.1 183.537 503.292C183.537 498.483 179.638 494.585 174.83 494.585H149.093V52.245H174.83C179.639 52.245 183.537 48.346 183.537 43.538C183.537 38.73 179.638 34.831 174.83 34.831H149.093V17.415H174.83Z" fill="#333333"/>
<path d="M340.501 440.945L326.726 454.72V428.408C326.726 423.599 322.827 419.701 318.019 419.701C313.21 419.701 309.312 423.6 309.312 428.408V454.72L295.537 440.945C292.136 437.544 286.623 437.544 283.223 440.945C279.822 444.346 279.822 449.859 283.223 453.259L311.862 481.898C313.562 483.598 315.791 484.449 318.019 484.449C320.247 484.449 322.476 483.599 324.176 481.898L352.815 453.259C356.216 449.858 356.216 444.345 352.815 440.945C349.415 437.545 343.901 437.545 340.501 440.945Z" fill="#333333"/>
<path d="M111.166 17.415C115.975 17.415 119.873 13.516 119.873 8.708C119.873 3.9 115.974 0 111.166 0H76.7209C71.9119 0 68.0139 3.899 68.0139 8.707V503.292C68.0139 508.101 71.9129 511.999 76.7209 511.999H111.165C115.974 511.999 119.872 508.1 119.872 503.292C119.872 498.483 115.973 494.585 111.165 494.585H85.4289V52.245H111.166C115.975 52.245 119.873 48.346 119.873 43.538C119.873 38.73 115.974 34.831 111.166 34.831H85.4289V17.415H111.166Z" fill="#333333"/>
<path d="M262.29 142.803C283.095 142.803 300.022 125.876 300.022 105.071C300.022 84.2659 283.095 67.3389 262.29 67.3389C241.485 67.3389 224.558 84.2659 224.558 105.071C224.558 125.876 241.485 142.803 262.29 142.803ZM262.29 84.7529C273.492 84.7529 282.607 93.8679 282.607 105.07C282.607 116.272 273.492 125.387 262.29 125.387C251.088 125.387 241.973 116.272 241.973 105.07C241.973 93.8679 251.088 84.7529 262.29 84.7529Z" fill="#333333"/>
<path d="M402.771 77.1812H330.789C325.98 77.1812 322.082 81.0802 322.082 85.8882C322.082 90.6972 325.981 94.5952 330.789 94.5952H402.771C407.58 94.5952 411.478 90.6962 411.478 85.8882C411.478 81.0792 407.58 77.1812 402.771 77.1812Z" fill="#333333"/>
<path d="M402.771 115.546H330.789C325.98 115.546 322.082 119.445 322.082 124.253C322.082 129.061 325.981 132.96 330.789 132.96H402.771C407.58 132.96 411.478 129.061 411.478 124.253C411.478 119.445 407.58 115.546 402.771 115.546Z" fill="#333333"/>
<path d="M402.771 233.308H330.789C325.98 233.308 322.082 237.207 322.082 242.015C322.082 246.823 325.981 250.722 330.789 250.722H402.771C407.58 250.722 411.478 246.823 411.478 242.015C411.478 237.207 407.58 233.308 402.771 233.308Z" fill="#333333"/>
<path d="M402.771 271.673H330.789C325.98 271.673 322.082 275.572 322.082 280.38C322.082 285.189 325.981 289.087 330.789 289.087H402.771C407.58 289.087 411.478 285.188 411.478 280.38C411.478 275.572 407.58 271.673 402.771 271.673Z" fill="#333333"/>
<path d="M302.491 183.126L304.544 185.179L302.491 187.232C299.09 190.633 299.09 196.146 302.491 199.546C304.191 201.246 306.42 202.097 308.648 202.097C310.876 202.097 313.105 201.247 314.805 199.546L316.858 197.493L318.911 199.546C320.611 201.246 322.84 202.097 325.068 202.097C327.296 202.097 329.525 201.247 331.225 199.546C334.626 196.145 334.626 190.632 331.225 187.232L329.172 185.179L331.225 183.126C334.626 179.725 334.626 174.212 331.225 170.812C327.824 167.411 322.311 167.411 318.911 170.812L316.858 172.865L314.805 170.812C311.404 167.411 305.891 167.411 302.491 170.812C299.09 174.214 299.09 179.727 302.491 183.126Z" fill="#333333"/>
<path d="M402.771 176.472H354.009C349.2 176.472 345.302 180.371 345.302 185.179C345.302 189.987 349.201 193.886 354.009 193.886H402.771C407.58 193.886 411.478 189.987 411.478 185.179C411.478 180.371 407.58 176.472 402.771 176.472Z" fill="#333333"/>
<path d="M233.265 193.887H282.027C286.836 193.887 290.734 189.988 290.734 185.18C290.734 180.372 286.835 176.473 282.027 176.473H233.265C228.456 176.473 224.558 180.372 224.558 185.18C224.558 189.988 228.456 193.887 233.265 193.887Z" fill="#333333"/>
<path d="M233.265 303.02H300.603C305.412 303.02 309.31 299.121 309.31 294.313V226.975C309.31 222.166 305.411 218.268 300.603 218.268H233.265C228.456 218.268 224.558 222.167 224.558 226.975V294.313C224.558 299.122 228.456 303.02 233.265 303.02ZM241.973 247.996L279.582 285.605H241.973V247.996ZM291.896 273.292L254.288 235.683H291.897V273.292H291.896Z" fill="#333333"/>
<path d="M313.955 379.989C313.955 375.18 310.056 371.282 305.248 371.282H233.266C228.457 371.282 224.559 375.181 224.559 379.989C224.559 384.798 228.458 388.696 233.266 388.696H305.248C310.056 388.696 313.955 384.799 313.955 379.989Z" fill="#333333"/>
<path d="M233.265 350.331H305.247C310.056 350.331 313.954 346.432 313.954 341.624C313.954 336.815 310.055 332.917 305.247 332.917H233.265C228.456 332.917 224.558 336.816 224.558 341.624C224.558 346.432 228.456 350.331 233.265 350.331Z" fill="#333333"/>
<path d="M402.771 318.984H335.433C330.624 318.984 326.726 322.883 326.726 327.691V395.029C326.726 399.838 330.625 403.736 335.433 403.736H402.771C407.58 403.736 411.478 399.837 411.478 395.029V327.691C411.478 322.883 407.58 318.984 402.771 318.984ZM394.064 374.008L356.455 336.399H394.064V374.008ZM344.141 348.713L381.75 386.322H344.141V348.713Z" fill="#333333"/>
</svg>
