<svg width="60" height="60" viewBox="0 0 60 60" fill="none" xmlns="http://www.w3.org/2000/svg">
<path d="M10.1074 7.66861C8.12836 7.70283 6.35976 8.63716 4.99511 10.0745C3.37793 11.7784 2.33636 14.176 2.33636 16.6335C2.33636 19.3981 3.60785 22.0813 5.58832 23.7781C3.63949 26.1249 2.79644 28.5228 2.84543 30.6849C2.89957 33.0645 4.04308 35.1088 5.75695 36.3685C7.4707 37.6283 9.76078 38.1146 12.0448 37.4928C14.2168 36.9015 16.3471 35.3163 18.0251 32.6222H30.0149V25.0671L11.697 27.6675V32.6222H15.3516C14.1115 34.1831 12.7547 35.0299 11.4697 35.3796C9.81586 35.8299 8.24086 35.4763 7.05316 34.6033C5.86558 33.7305 5.0707 32.3498 5.03168 30.6337C4.99511 29.0209 5.63601 27.0686 7.45242 24.9722C8.60203 25.4922 9.88207 25.7111 11.228 25.5214L11.6967 25.4558L33.4496 22.3685V17.7431H37.8479V21.7422L40.0377 21.4311V17.7432H44.0549L44.0555 20.8595L46.2453 20.5518V17.7429H49.5193C49.9881 19.5177 51.6036 20.8265 53.5256 20.8265C55.8145 20.8265 57.6711 18.9698 57.6711 16.6809C57.6711 14.392 55.8145 12.539 53.5256 12.539C51.6284 12.539 50.033 13.8131 49.5412 15.5531H46.2453V13.1543L44.0553 12.8062V15.5531H40.0382V12.1656L37.8482 11.8175V15.553H33.4498V11.1145L32.018 10.8874L11.2277 7.74173C10.848 7.68384 10.4736 7.66205 10.1072 7.66861H10.1074ZM24.1627 12.909L23.5767 15.4652L30.8679 16.8531L21.2073 20.083L21.7932 17.5268L14.5018 16.1426L24.1625 12.9089L24.1627 12.909ZM22.002 34.812V46.8348H17.2924V49.9367L8.09695 55.5617H4.62164V57.7516H8.71219L8.97586 57.5905L19.834 50.951H24.4739L25.327 55.5617H23.529V57.7517H29.9305V55.5617H27.5539L26.7006 50.9511H30.0037L40.8659 57.5907L41.1295 57.7519H46.1464V55.5619H41.7449L32.3326 49.8048V46.8348H27.4728L27.4181 46.802V34.812H22.0017H22.002Z" fill="black"/>
</svg>
