<svg width="60" height="60" viewBox="0 0 60 60" fill="none" xmlns="http://www.w3.org/2000/svg">
<path d="M53.725 28.5C53.1049 26.756 51.456 25.5 49.5 25.5C47.544 25.5 45.895 26.756 45.275 28.5H0V31.5H45.275C45.8951 33.244 47.5431 34.5 49.5 34.5C51.4569 34.5 53.105 33.244 53.725 31.5H60V28.5H53.725ZM49.5 31.5C48.673 31.5 48 30.827 48 30C48 29.173 48.673 28.5 49.5 28.5C50.327 28.5 51 29.173 51 30C51 30.827 50.327 31.5 49.5 31.5Z" fill="black"/>
<path d="M14.725 43.5C14.1049 41.756 12.456 40.5 10.5 40.5C8.54402 40.5 6.89496 41.756 6.27504 43.5H0V46.5H6.27504C6.89508 48.244 8.54309 49.5 10.5 49.5C12.457 49.5 14.105 48.244 14.725 46.5H60V43.5H14.725ZM10.5 46.5C9.67301 46.5 9 45.827 9 45C9 44.173 9.67301 43.5 10.5 43.5C11.327 43.5 12 44.173 12 45C12 45.827 11.327 46.5 10.5 46.5Z" fill="black"/>
<path d="M32.725 13.5C32.1049 11.756 30.4569 10.5 28.5 10.5C26.543 10.5 24.895 11.756 24.275 13.5H0V16.5H24.275C24.8951 18.244 26.5431 19.5 28.5 19.5C30.4569 19.5 32.105 18.244 32.725 16.5H60V13.5H32.725ZM28.5 16.5C27.673 16.5 27 15.827 27 15C27 14.173 27.673 13.5 28.5 13.5C29.327 13.5 30 14.173 30 15C30 15.827 29.327 16.5 28.5 16.5Z" fill="black"/>
</svg>
