<svg width="60" height="60" viewBox="0 0 60 60" fill="none" xmlns="http://www.w3.org/2000/svg">
<g clip-path="url(#clip0_16_5707)">
<path d="M60 30.8335C60 28.1018 58.3833 25.8268 56.2117 25.1918C53.945 12.7635 43.0833 3.3335 30 3.3335C16.9167 3.3335 6.055 12.7635 3.78833 25.1918C1.61667 25.8268 0 28.1018 0 30.8335C0 33.7268 1.81167 36.1135 4.18333 36.5702C7.115 48.1135 17.545 56.6668 30 56.6668C42.455 56.6668 52.885 48.1135 55.8167 36.5702C58.1867 36.1135 60 33.7268 60 30.8335Z" fill="#F7DECE"/>
<path d="M30 41.6667C25 41.6667 23.3333 40 23.3333 43.3333C23.3333 46.6667 26.6667 50 30 50C33.3333 50 36.6667 46.6667 36.6667 43.3333C36.6667 40 35 41.6667 30 41.6667Z" fill="#662113"/>
<path d="M37.5 34.9998C39.8012 34.9998 41.6667 33.1344 41.6667 30.8332C41.6667 28.532 39.8012 26.6665 37.5 26.6665C35.1988 26.6665 33.3333 28.532 33.3333 30.8332C33.3333 33.1344 35.1988 34.9998 37.5 34.9998Z" fill="#662113"/>
<path d="M22.5 34.9998C24.8012 34.9998 26.6667 33.1344 26.6667 30.8332C26.6667 28.532 24.8012 26.6665 22.5 26.6665C20.1988 26.6665 18.3333 28.532 18.3333 30.8332C18.3333 33.1344 20.1988 34.9998 22.5 34.9998Z" fill="#662113"/>
<path d="M30 43.3335H33.3333V45.0002C33.3333 45.0002 33.3333 46.6668 31.6667 46.6668C30 46.6668 30 45.0002 30 45.0002V43.3335Z" fill="white"/>
<path d="M29.97 18.3332H29.9183C28.9463 18.3386 27.9831 18.1491 27.0857 17.7758C26.1882 17.4025 25.3747 16.853 24.6933 16.1598C24.0784 15.5389 23.601 14.7955 23.292 13.9781C22.9831 13.1606 22.8495 12.2873 22.9 11.4148C22.9121 11.1964 22.9674 10.9825 23.0627 10.7856C23.1581 10.5887 23.2915 10.4127 23.4554 10.2677C23.6192 10.1228 23.8102 10.0118 24.0173 9.94122C24.2244 9.87063 24.4434 9.84183 24.6617 9.8565C25.58 9.9115 26.2817 10.7032 26.2267 11.6232C26.1783 12.4482 26.485 13.2615 27.065 13.8498C27.4397 14.2328 27.8869 14.5375 28.3805 14.7461C28.8741 14.9546 29.4042 15.063 29.94 15.0648C31.0283 15.0048 32.0567 14.6532 32.8317 13.8898C33.8705 12.8622 34.4594 11.4646 34.4694 10.0034C34.4794 8.54216 33.9097 7.13661 32.885 6.09483C31.5224 4.71703 29.6689 3.9359 27.7311 3.92277C25.7934 3.90965 23.9295 4.66561 22.5483 6.02483C22.3925 6.17848 22.2079 6.29993 22.0052 6.38224C21.8024 6.46456 21.5854 6.50613 21.3665 6.50458C20.9246 6.50146 20.502 6.32289 20.1917 6.00817C19.8814 5.69344 19.7088 5.26834 19.7119 4.82638C19.715 4.38442 19.8936 3.9618 20.2083 3.6515C22.2196 1.67318 24.9332 0.572983 27.7543 0.59204C30.5755 0.611098 33.2739 1.74786 35.2583 3.75317C36.0726 4.5777 36.7163 5.55466 37.1527 6.62817C37.589 7.70168 37.8095 8.85068 37.8014 10.0095C37.7934 11.1682 37.557 12.3141 37.1057 13.3814C36.6545 14.4488 35.9973 15.4167 35.1717 16.2298C33.7783 17.6082 31.93 18.3332 29.97 18.3332Z" fill="#D89882"/>
</g>
<defs>
<clipPath id="clip0_16_5707">
<rect width="60" height="60" fill="white"/>
</clipPath>
</defs>
</svg>
