<svg width="60" height="61" viewBox="0 0 60 61" fill="none" xmlns="http://www.w3.org/2000/svg">
<path d="M53.9062 9.35254C55.2007 9.35254 56.25 8.30321 56.25 7.00879C56.25 5.71437 55.2007 4.66504 53.9062 4.66504C52.6118 4.66504 51.5625 5.71437 51.5625 7.00879C51.5625 8.30321 52.6118 9.35254 53.9062 9.35254Z" stroke="#4C241D" stroke-width="1.875" stroke-linecap="round" stroke-linejoin="round"/>
<path d="M22.9688 43.1025C34.1007 43.1025 43.125 34.0783 43.125 22.9463C43.125 11.8143 34.1007 2.79004 22.9688 2.79004C11.8368 2.79004 2.8125 11.8143 2.8125 22.9463C2.8125 34.0783 11.8368 43.1025 22.9688 43.1025Z" fill="#E5EFEF"/>
<path d="M21.4097 7.16162L17.9653 10.606" stroke="#4C241D" stroke-width="1.875" stroke-linecap="round" stroke-linejoin="round"/>
<path d="M17.9653 7.16162L21.4097 10.606" stroke="#4C241D" stroke-width="1.875" stroke-linecap="round" stroke-linejoin="round"/>
<path d="M15.9375 14.9775C16.4553 14.9775 16.875 14.5578 16.875 14.04C16.875 13.5223 16.4553 13.1025 15.9375 13.1025C15.4197 13.1025 15 13.5223 15 14.04C15 14.5578 15.4197 14.9775 15.9375 14.9775Z" fill="#4C241D"/>
<path d="M8.20874 32.79C10.2459 43.3454 16.4841 51.6497 24.405 54.3525H20.625V57.165H39.375V54.3525H35.595C43.5159 51.6497 49.7512 43.3454 51.7912 32.79" fill="white"/>
<path d="M8.20874 32.79C10.2459 43.3454 16.4841 51.6497 24.405 54.3525H20.625V57.165H39.375V54.3525H35.595C43.5159 51.6497 49.7512 43.3454 51.7912 32.79" stroke="#4C241D" stroke-width="1.875" stroke-linecap="round" stroke-linejoin="round"/>
<path d="M23.4375 29.9775C26.5441 29.9775 29.0625 27.4591 29.0625 24.3525C29.0625 21.2459 26.5441 18.7275 23.4375 18.7275C20.3309 18.7275 17.8125 21.2459 17.8125 24.3525C17.8125 27.4591 20.3309 29.9775 23.4375 29.9775Z" fill="#BF7E68" stroke="#4C241D" stroke-width="1.875" stroke-linecap="round" stroke-linejoin="round"/>
<path d="M30.4688 26.2275C34.352 26.2275 37.5 23.0795 37.5 19.1963C37.5 15.313 34.352 12.165 30.4688 12.165C26.5855 12.165 23.4375 15.313 23.4375 19.1963C23.4375 23.0795 26.5855 26.2275 30.4688 26.2275Z" fill="#F4AEAB" stroke="#4C241D" stroke-width="1.875" stroke-linecap="round" stroke-linejoin="round"/>
<path d="M37.5 29.9775C40.6066 29.9775 43.125 27.4591 43.125 24.3525C43.125 21.2459 40.6066 18.7275 37.5 18.7275C34.3934 18.7275 31.875 21.2459 31.875 24.3525C31.875 27.4591 34.3934 29.9775 37.5 29.9775Z" fill="#E2E2E2" stroke="#4C241D" stroke-width="1.875" stroke-linecap="round" stroke-linejoin="round"/>
<path d="M23.4375 29.9775C23.4375 28.4857 22.8449 27.055 21.79 26.0001C20.7351 24.9452 19.3043 24.3525 17.8125 24.3525C16.3207 24.3525 14.8899 24.9452 13.835 26.0001C12.7801 27.055 12.1875 28.4857 12.1875 29.9775H23.4375Z" fill="#77A052" stroke="#4C241D" stroke-width="1.875" stroke-linecap="round" stroke-linejoin="round"/>
<path d="M35.625 29.9775C35.625 28.4857 35.0324 27.055 33.9775 26.0001C32.9226 24.9452 31.4918 24.3525 30 24.3525C28.5082 24.3525 27.0774 24.9452 26.0225 26.0001C24.9676 27.055 24.375 28.4857 24.375 29.9775H35.625Z" fill="#FFCE56" stroke="#4C241D" stroke-width="1.875" stroke-linecap="round" stroke-linejoin="round"/>
<path d="M47.8125 29.9775C47.8125 28.4857 47.2199 27.055 46.165 26.0001C45.1101 24.9452 43.6793 24.3525 42.1875 24.3525C40.6957 24.3525 39.2649 24.9452 38.21 26.0001C37.1551 27.055 36.5625 28.4857 36.5625 29.9775H47.8125Z" fill="#816982" stroke="#4C241D" stroke-width="1.875" stroke-linecap="round" stroke-linejoin="round"/>
<path d="M57.1875 57.165C57.1875 55.6732 56.5949 54.2425 55.54 53.1876C54.4851 52.1327 53.0543 51.54 51.5625 51.54C50.0707 51.54 48.6399 52.1327 47.585 53.1876C46.5301 54.2425 45.9375 55.6732 45.9375 57.165H57.1875Z" fill="#E66353" stroke="#4C241D" stroke-width="1.875" stroke-linecap="round" stroke-linejoin="round"/>
<path d="M26.0353 38.669L28.4794 38.9343L30.0197 37.0181L31.56 38.9343L34.0041 38.669L33.7378 41.1131L35.6541 42.6534L33.7378 44.1937L34.0041 46.6378L31.56 46.3715L30.0197 48.2878L28.4794 46.3715L26.0353 46.6378L26.3007 44.1937L24.3844 42.6534L26.3007 41.1131L26.0353 38.669Z" fill="#FFCE56" stroke="#4C241D" stroke-width="1.875" stroke-linecap="round" stroke-linejoin="round"/>
<path d="M13.8562 32.79H7.96875C7.59579 32.79 7.2381 32.6419 6.97438 32.3782C6.71066 32.1144 6.5625 31.7567 6.5625 31.3838C6.5625 31.0108 6.71066 30.6531 6.97438 30.3894C7.2381 30.1257 7.59579 29.9775 7.96875 29.9775H52.0312C52.4042 29.9775 52.7619 30.1257 53.0256 30.3894C53.2893 30.6531 53.4375 31.0108 53.4375 31.3838C53.4375 31.7567 53.2893 32.1144 53.0256 32.3782C52.7619 32.6419 52.4042 32.79 52.0312 32.79H20.625" fill="white"/>
<path d="M13.8562 32.79H7.96875C7.59579 32.79 7.2381 32.6419 6.97438 32.3782C6.71066 32.1144 6.5625 31.7567 6.5625 31.3838C6.5625 31.0108 6.71066 30.6531 6.97438 30.3894C7.2381 30.1257 7.59579 29.9775 7.96875 29.9775H52.0312C52.4042 29.9775 52.7619 30.1257 53.0256 30.3894C53.2893 30.6531 53.4375 31.0108 53.4375 31.3838C53.4375 31.7567 53.2893 32.1144 53.0256 32.3782C52.7619 32.6419 52.4042 32.79 52.0312 32.79H20.625" stroke="#4C241D" stroke-width="1.875" stroke-linecap="round" stroke-linejoin="round"/>
<path d="M24.375 54.3525H29.0625" stroke="#4C241D" stroke-width="1.875" stroke-linecap="round" stroke-linejoin="round"/>
<path d="M56.25 57.165H4.6875" stroke="#4C241D" stroke-width="1.875" stroke-linecap="round" stroke-linejoin="round"/>
</svg>
