<svg width="60" height="61" viewBox="0 0 60 61" fill="none" xmlns="http://www.w3.org/2000/svg">
<g clip-path="url(#clip0_16_7170)">
<path d="M52.1739 58.3065H7.82612C4.94472 58.3065 2.6087 55.9705 2.6087 53.0891V8.74135C2.6087 5.85994 4.9446 3.52393 7.82612 3.52393H52.174C55.0554 3.52393 57.3914 5.85982 57.3914 8.74135V53.0892C57.3913 55.9706 55.0554 58.3065 52.1739 58.3065Z" fill="#EAFFFF"/>
<path d="M57.3913 60.9152H2.60871C1.16789 60.9152 0 59.7473 0 58.3065V49.1761C0 47.7353 1.16789 46.5674 2.60871 46.5674H57.3913C58.8321 46.5674 60 47.7353 60 49.1761V58.3065C60 59.7473 58.8321 60.9152 57.3913 60.9152Z" fill="#A9D5BB"/>
<path d="M18.2609 55.3062H2.60871C2.06848 55.3062 1.63043 54.8681 1.63043 54.3279C1.63043 53.7877 2.06848 53.3496 2.60871 53.3496H18.2609C18.8011 53.3496 19.2391 53.7877 19.2391 54.3279C19.2391 54.8682 18.8011 55.3062 18.2609 55.3062ZM22.174 55.3062H30C30.5402 55.3062 30.9783 54.8681 30.9783 54.3279C30.9783 53.7877 30.5402 53.3496 30 53.3496H22.1739C21.6336 53.3496 21.1956 53.7877 21.1956 54.3279C21.1957 54.8682 21.6336 55.3062 22.174 55.3062ZM55.4348 53.741H38.4783C37.938 53.741 37.5 54.1791 37.5 54.7193C37.5 55.2595 37.938 55.6976 38.4783 55.6976H55.4348C55.9751 55.6976 56.4131 55.2595 56.4131 54.7193C56.4131 54.1791 55.9751 53.741 55.4348 53.741ZM40.4348 57.328H14.3479C13.8076 57.328 13.3696 57.7661 13.3696 58.3063C13.3696 58.8465 13.8076 59.2846 14.3479 59.2846H40.4348C40.9751 59.2846 41.4131 58.8465 41.4131 58.3063C41.4131 57.7661 40.9751 57.328 40.4348 57.328Z" fill="#EAFFFF"/>
<path d="M60 28.3064C60 28.8466 59.562 29.2847 59.0217 29.2847C57.7631 29.2847 56.7392 30.3087 56.7392 31.5673C56.7392 32.1075 56.3011 32.5455 55.7609 32.5455C55.2206 32.5455 54.7826 32.1075 54.7826 31.5673C54.7826 30.3087 53.7586 29.2847 52.5 29.2847C51.9598 29.2847 51.5217 28.8466 51.5217 28.3064C51.5217 27.7662 51.9598 27.3281 52.5 27.3281C53.8097 27.3281 54.9827 27.9253 55.7609 28.8614C56.539 27.9253 57.712 27.3281 59.0217 27.3281C59.5621 27.3282 60 27.7662 60 28.3064Z" fill="#84837A"/>
<path d="M22.174 12.002C22.174 18.1252 17.2102 23.089 11.087 23.089C4.96383 23.089 0 18.1252 0 12.002C0 5.87887 4.96383 0.915039 11.087 0.915039C17.2102 0.915039 22.174 5.87887 22.174 12.002Z" fill="#FFFF81"/>
<path d="M16.9565 12.0019C16.9565 15.2435 14.3287 17.8715 11.087 17.8715C7.84522 17.8715 5.21741 15.2437 5.21741 12.0019C5.21741 8.76014 7.84522 6.13232 11.087 6.13232C14.3287 6.13232 16.9565 8.76014 16.9565 12.0019Z" fill="#FFF145"/>
<path d="M45.9783 40.0453V45.2627C45.9783 45.8029 45.5402 46.241 45 46.241C44.4598 46.241 44.0217 45.8029 44.0217 45.2627V40.0453C44.0217 39.1462 43.2904 38.4148 42.3913 38.4148H20.2174C16.8012 38.4148 14.0217 35.6354 14.0217 32.2191V27.0017C14.0217 26.4615 14.4598 26.0234 15 26.0234C15.5402 26.0234 15.9783 26.4615 15.9783 27.0017V32.2191C15.9783 34.5566 17.88 36.4583 20.2174 36.4583H42.3913C44.3692 36.4584 45.9783 38.0674 45.9783 40.0453Z" fill="#A07040"/>
<path d="M45.9783 12.6541V21.7845C45.9783 25.2007 43.1989 27.9802 39.7826 27.9802H36.5217C35.6227 27.9802 34.8913 28.7116 34.8913 29.6106V45.2628C34.8913 45.803 34.4533 46.2411 33.913 46.2411C33.3728 46.2411 32.9348 45.803 32.9348 45.2628V29.6106C32.9348 27.6327 34.5437 26.0236 36.5217 26.0236H39.7826C42.12 26.0236 44.0217 24.1219 44.0217 21.7845V12.6541C44.0217 12.1138 44.4598 11.6758 45 11.6758C45.5403 11.6758 45.9783 12.1138 45.9783 12.6541Z" fill="#D3842F"/>
<path d="M53.4783 49.176C53.4783 50.6168 52.3104 51.7847 50.8696 51.7847H9.13044C7.68962 51.7847 6.52173 50.6168 6.52173 49.176C6.52173 45.5741 9.44169 42.6543 13.0434 42.6543H46.9565C50.5583 42.6543 53.4783 45.5743 53.4783 49.176Z" fill="#DDB961"/>
<path d="M7.06595 46.5674H52.934C53.2832 47.3665 53.4782 48.2483 53.4782 49.1761C53.4782 50.6169 52.3103 51.7848 50.8695 51.7848H9.13044C7.68962 51.7848 6.52173 50.6169 6.52173 49.1761C6.52173 48.2483 6.71673 47.3665 7.06595 46.5674Z" fill="#CEA455"/>
<path d="M4.20319 18.4488C6.41053 16.5967 9.70139 16.8845 11.5535 19.0918L18.2609 27.0854C16.0535 28.9376 12.7627 28.6497 10.9105 26.4424L4.20319 18.4488Z" fill="#7F932A"/>
<path d="M18.6717 25.1382C16.8196 27.3456 13.5287 27.6335 11.3214 25.7813L18.0287 17.7877C19.8808 15.5803 23.1717 15.2924 25.379 17.1447L18.6717 25.1382Z" fill="#606D11"/>
<path d="M15.6521 25.6978C15.6521 28.5792 13.3162 30.9152 10.4347 30.9152H0C0 28.0338 2.3359 25.6978 5.21742 25.6978H15.6521Z" fill="#9FBA41"/>
<path d="M14.3478 25.6978H24.7826C27.6641 25.6978 30 28.0337 30 30.9151H19.5653C16.6837 30.9151 14.3478 28.5792 14.3478 25.6978Z" fill="#7F932A"/>
<path d="M34.0581 2.13581C36.2654 0.283664 39.5563 0.571477 41.4085 2.77882L48.1158 10.7724C45.9085 12.6246 42.6176 12.3367 40.7654 10.1294L34.0581 2.13581Z" fill="#7F932A"/>
<path d="M42.7603 11.676L48.5916 4.72662C50.4437 2.51928 53.7346 2.23135 55.9419 4.08361L49.5711 11.676H42.7603Z" fill="#606D11"/>
<path d="M44.3478 10.689H54.7826C57.664 10.689 60 13.0249 60 15.9064H49.5653C46.6837 15.9064 44.3478 13.5705 44.3478 10.689Z" fill="#7F932A"/>
<path d="M45.6521 10.689C45.6521 13.5704 43.3161 15.9064 40.4347 15.9064H30C30 13.025 32.336 10.689 35.2174 10.689H45.6521Z" fill="#9FBA41"/>
</g>
<defs>
<clipPath id="clip0_16_7170">
<rect width="60" height="60" fill="white" transform="translate(0 0.915039)"/>
</clipPath>
</defs>
</svg>
