<svg width="512" height="512" viewBox="0 0 512 512" fill="none" xmlns="http://www.w3.org/2000/svg">
<path d="M158.583 202.419C154.386 198.725 148.9 196.466 142.884 196.466C136.868 196.466 131.382 198.726 127.185 202.419H77.395V238.14H127.184C131.38 241.834 136.867 244.093 142.883 244.093C148.734 244.093 154.247 241.976 158.597 238.14H434.604V202.419H158.583Z" fill="black"/>
<path d="M384.811 381.023C380.615 377.333 375.132 375.074 369.116 375.07C363.266 375.07 357.752 377.187 353.404 381.023H77.395V416.744H353.417C357.613 420.438 363.1 422.697 369.116 422.697C375.132 422.697 380.618 420.437 384.815 416.744H434.604V381.023H384.811Z" fill="black"/>
<path d="M271.695 291.721C267.499 288.031 262.016 285.772 256 285.768C250.149 285.768 244.636 287.885 240.286 291.721H77.395V327.442H240.3C244.496 331.136 249.983 333.395 255.999 333.395C262.015 333.395 267.501 331.135 271.698 327.442H434.603V291.721H271.695Z" fill="black"/>
<path d="M458.419 17.8604H53.581C24.037 17.8604 0 41.8984 0 71.4424V440.558C0 470.103 24.037 494.139 53.581 494.139H458.418C487.964 494.139 511.999 470.101 511.999 440.558V71.4424C512 41.8984 487.965 17.8604 458.419 17.8604ZM476.279 440.558C476.279 450.407 468.268 458.418 458.419 458.418H53.581C43.733 458.418 35.721 450.407 35.721 440.558V160.744H476.279V440.558ZM476.279 125.023H35.721V71.4424C35.721 61.5944 43.733 53.5824 53.581 53.5824H458.418C468.267 53.5824 476.278 61.5944 476.278 71.4424L476.279 125.023Z" fill="black"/>
<path d="M458.419 71.4424H256V107.163H458.419V71.4424Z" fill="black"/>
<path d="M71.4419 113.116C84.594 113.116 95.2559 102.454 95.2559 89.3023C95.2559 76.1502 84.594 65.4883 71.4419 65.4883C58.2898 65.4883 47.6279 76.1502 47.6279 89.3023C47.6279 102.454 58.2898 113.116 71.4419 113.116Z" fill="black"/>
</svg>
