<svg width="60" height="60" viewBox="0 0 60 60" fill="none" xmlns="http://www.w3.org/2000/svg">
<g clip-path="url(#clip0_10_69)">
<path d="M2.404 0H57.604C58.2405 0 58.851 0.252856 59.3011 0.702944C59.7511 1.15303 60.004 1.76348 60.004 2.4V57.6C60.004 58.2365 59.7511 58.847 59.3011 59.2971C58.851 59.7471 58.2405 60 57.604 60H2.404C1.76748 60 1.15703 59.7471 0.706942 59.2971C0.256854 58.847 0.0039978 58.2365 0.0039978 57.6V2.4C0.0039978 1.76348 0.256854 1.15303 0.706942 0.702944C1.15703 0.252856 1.76748 0 2.404 0Z" fill="#EBEDEE"/>
<path d="M6.004 12H54.004V54H6.004V12Z" fill="white"/>
<path d="M7.804 4.2002C8.28139 4.2002 8.73922 4.38984 9.07679 4.7274C9.41436 5.06497 9.604 5.52281 9.604 6.0002C9.604 6.47759 9.41436 6.93542 9.07679 7.27299C8.73922 7.61055 8.28139 7.8002 7.804 7.8002C7.32661 7.8002 6.86877 7.61055 6.53121 7.27299C6.19364 6.93542 6.004 6.47759 6.004 6.0002C6.004 5.52281 6.19364 5.06497 6.53121 4.7274C6.86877 4.38984 7.32661 4.2002 7.804 4.2002Z" fill="#E74C3C"/>
<path d="M13.804 4.2002C14.2814 4.2002 14.7392 4.38984 15.0768 4.7274C15.4144 5.06497 15.604 5.52281 15.604 6.0002C15.604 6.47759 15.4144 6.93542 15.0768 7.27299C14.7392 7.61055 14.2814 7.8002 13.804 7.8002C13.3266 7.8002 12.8688 7.61055 12.5312 7.27299C12.1936 6.93542 12.004 6.47759 12.004 6.0002C12.004 5.52281 12.1936 5.06497 12.5312 4.7274C12.8688 4.38984 13.3266 4.2002 13.804 4.2002Z" fill="#F39C12"/>
<path d="M19.804 4.2002C20.2814 4.2002 20.7392 4.38984 21.0768 4.7274C21.4144 5.06497 21.604 5.52281 21.604 6.0002C21.604 6.47759 21.4144 6.93542 21.0768 7.27299C20.7392 7.61055 20.2814 7.8002 19.804 7.8002C19.3266 7.8002 18.8688 7.61055 18.5312 7.27299C18.1936 6.93542 18.004 6.47759 18.004 6.0002C18.004 5.52281 18.1936 5.06497 18.5312 4.7274C18.8688 4.38984 19.3266 4.2002 19.804 4.2002Z" fill="#17A085"/>
<path d="M27.004 4.2002H54.004V7.8002H27.004V4.2002Z" fill="white"/>
<path d="M12.004 27V30H27.004V27H12.004ZM12.004 36H27.004V33H12.004V36ZM12.004 42H27.004V39H12.004V42ZM12.004 48H27.004V45H12.004V48Z" fill="#BDC3C7"/>
<path d="M12.004 18H48.004V24H12.004V18Z" fill="#1ABC9C"/>
<path d="M30.004 27V36H48.004V27H30.004ZM30.004 48H48.004V39H30.004V48Z" fill="#BDC3C7"/>
</g>
<defs>
<clipPath id="clip0_10_69">
<rect width="60" height="60" fill="white" transform="translate(0.0039978)"/>
</clipPath>
</defs>
</svg>
