<svg width="60" height="60" viewBox="0 0 60 60" fill="none" xmlns="http://www.w3.org/2000/svg">
<g clip-path="url(#clip0_16_15360)">
<path d="M30 60C46.5685 60 60 46.5685 60 30C60 13.4315 46.5685 0 30 0C13.4315 0 0 13.4315 0 30C0 46.5685 13.4315 60 30 60Z" fill="#273B7A"/>
<path d="M59.9831 30.9596L40.0583 11.1729C40.0248 11.1729 36.2482 13.2011 32.4321 15.3279L28.3166 11.2121C28.3166 11.4141 24.7476 15.8586 24.7476 15.8586L27.1581 18.2691C25.7315 19.0655 24.7813 19.5961 24.7813 19.5961L27.4791 22.2938C24.2128 24.9171 20.1513 28.1749 19.9722 28.2539L27.9496 36.2313C25.086 40.6446 19.8836 48.7716 19.9815 48.8697L30.9597 59.9833C46.765 59.4862 59.4862 46.765 59.9831 30.9596Z" fill="#121149"/>
<path d="M27.5916 28.528H20.6336C20.1162 28.528 19.697 28.1086 19.697 27.5914V11.8023C19.697 11.2849 20.1164 10.8657 20.6336 10.8657H27.5916C28.109 10.8657 28.5282 11.2851 28.5282 11.8023V27.5914C28.5282 28.1088 28.109 28.528 27.5916 28.528Z" fill="#FEE187"/>
<path d="M39.3665 28.528H32.4085C31.8911 28.528 31.4719 28.1086 31.4719 27.5914V11.8023C31.4719 11.2849 31.8913 10.8657 32.4085 10.8657H39.3665C39.8839 10.8657 40.3031 11.2851 40.3031 11.8023V27.5914C40.3031 28.1088 39.8836 28.528 39.3665 28.528Z" fill="#FF6262"/>
<path d="M19.697 19.6299V27.592C19.697 28.1093 20.1164 28.5285 20.6336 28.5285H27.5916C28.109 28.5285 28.5282 28.1091 28.5282 27.592V19.6299H19.697Z" fill="#FFC61B"/>
<path d="M31.4719 19.6299V27.592C31.4719 28.1093 31.8913 28.5285 32.4085 28.5285H39.3665C39.8839 28.5285 40.3031 28.1091 40.3031 27.592V19.6299H31.4719Z" fill="#FF314F"/>
<path d="M27.5916 49.1339H20.6336C20.1162 49.1339 19.697 48.7145 19.697 48.1974V32.4082C19.697 31.8909 20.1164 31.4717 20.6336 31.4717H27.5916C28.109 31.4717 28.5282 31.8911 28.5282 32.4082V48.1974C28.5282 48.7148 28.109 49.1339 27.5916 49.1339Z" fill="#8BC180"/>
<path d="M39.3665 49.1339H32.4085C31.8911 49.1339 31.4719 48.7145 31.4719 48.1974V32.4082C31.4719 31.8909 31.8913 31.4717 32.4085 31.4717H39.3665C39.8839 31.4717 40.3031 31.8911 40.3031 32.4082V48.1974C40.3031 48.7148 39.8836 49.1339 39.3665 49.1339Z" fill="#A6F0F4"/>
<path d="M19.697 40.3701V48.1974C19.697 48.7148 20.1164 49.134 20.6336 49.134H27.5916C28.109 49.134 28.5282 48.7146 28.5282 48.1974V40.3701H19.697Z" fill="#6CAF5F"/>
<path d="M31.4719 40.3701V48.1974C31.4719 48.7148 31.8913 49.134 32.4085 49.134H39.3665C39.8839 49.134 40.3031 48.7146 40.3031 48.1974V40.3701H31.4719Z" fill="#71E2EF"/>
<path d="M24.113 21.1688C24.9259 21.1688 25.5849 20.5099 25.5849 19.697C25.5849 18.8841 24.9259 18.2251 24.113 18.2251C23.3001 18.2251 22.6411 18.8841 22.6411 19.697C22.6411 20.5099 23.3001 21.1688 24.113 21.1688Z" fill="#EAA22F"/>
<path d="M35.8869 21.1688C36.6998 21.1688 37.3588 20.5099 37.3588 19.697C37.3588 18.8841 36.6998 18.2251 35.8869 18.2251C35.074 18.2251 34.415 18.8841 34.415 19.697C34.415 20.5099 35.074 21.1688 35.8869 21.1688Z" fill="#A30F44"/>
<path d="M24.113 41.7748C24.9259 41.7748 25.5849 41.1158 25.5849 40.3029C25.5849 39.49 24.9259 38.8311 24.113 38.8311C23.3001 38.8311 22.6411 39.49 22.6411 40.3029C22.6411 41.1158 23.3001 41.7748 24.113 41.7748Z" fill="#477F3C"/>
<path d="M35.8869 41.7748C36.6998 41.7748 37.3588 41.1158 37.3588 40.3029C37.3588 39.49 36.6998 38.8311 35.8869 38.8311C35.074 38.8311 34.415 39.49 34.415 40.3029C34.415 41.1158 35.074 41.7748 35.8869 41.7748Z" fill="#02B2B2"/>
<path d="M36.1375 19.4684L34.1866 17.5174C33.9499 17.2807 33.5664 17.2807 33.3296 17.5174C33.0929 17.754 33.0929 18.1375 33.3296 18.3744L34.246 19.2909H24.101C23.7662 19.2909 23.4949 19.5622 23.4949 19.897V38.8066L22.5785 37.8902C22.3418 37.6535 21.9583 37.6535 21.7215 37.8902C21.4848 38.1268 21.4848 38.5106 21.7215 38.7472L23.6725 40.6984C23.7863 40.8121 23.9402 40.8759 24.101 40.8759C24.2618 40.8759 24.416 40.812 24.5294 40.6984L26.4804 38.7472C26.7171 38.5105 26.7171 38.1268 26.4804 37.8902C26.2436 37.6535 25.8597 37.6535 25.6234 37.8902L24.7068 38.8067V20.503H34.2458L33.3294 21.4194C33.0927 21.656 33.0927 22.0398 33.3294 22.2764C33.4477 22.3947 33.6029 22.4539 33.7578 22.4539C33.9127 22.4539 34.0679 22.3947 34.1862 22.2764L36.1372 20.3254C36.3743 20.0888 36.3743 19.7052 36.1375 19.4684Z" fill="white"/>
</g>
<defs>
<clipPath id="clip0_16_15360">
<rect width="60" height="60" fill="white"/>
</clipPath>
</defs>
</svg>
