<svg width="60" height="61" viewBox="0 0 60 61" fill="none" xmlns="http://www.w3.org/2000/svg">
<g clip-path="url(#clip0_18_15530)">
<path d="M38.9155 0.121094L36.9284 5.79875L48.8533 14.0324L38.9155 0.121094Z" fill="black"/>
<path d="M53.5454 38.7603C53.1307 35.0595 50.8224 31.925 47.6169 30.3443V18.2127L32.1774 7.55176L34.6297 0.544922H4.1571V60.1213H33.7786H47.6175H52.0038C54.1233 60.1213 55.8435 58.4017 55.8435 56.2816V42.2781C55.8428 40.7058 54.8983 39.3542 53.5454 38.7603ZM52.0031 56.3993H33.7786V42.3959H36.0082V40.0825C36.0082 36.2869 39.0947 33.1991 42.8902 33.1991C46.6858 33.1991 49.7723 36.2869 49.7723 40.0825V42.3959H52.0025L52.0031 56.3993Z" fill="black"/>
<path d="M42.8902 47.5068C41.7716 47.5068 40.8629 48.4143 40.8629 49.5342C40.8629 50.2286 41.2129 50.841 41.7453 51.2064V54.3025H44.0364V51.2064C44.5688 50.841 44.9189 50.2286 44.9189 49.5342C44.9189 48.4149 44.0101 47.5068 42.8902 47.5068Z" fill="black"/>
<path d="M42.8902 36.0566C40.6708 36.0566 38.8655 37.8613 38.8655 40.0813V42.3947H46.9149V40.0813C46.9149 37.8619 45.1102 36.0566 42.8902 36.0566Z" fill="black"/>
</g>
<defs>
<clipPath id="clip0_18_15530">
<rect width="60" height="60" fill="white" transform="translate(0 0.121094)"/>
</clipPath>
</defs>
</svg>
