<svg width="60" height="60" viewBox="0 0 60 60" fill="none" xmlns="http://www.w3.org/2000/svg">
<path d="M15.5531 13.1249C18.4099 10.2087 21.9871 8.09987 25.9219 7.01236C32.0719 5.48423 36.9938 6.07486 40.3313 8.18423C43.6688 10.2936 44.6719 12.2811 44.6719 12.2811L46.875 10.6405C46.875 10.6405 44.7094 5.48423 49.2844 4.25611C53.8594 3.02798 54.7313 6.77799 54.5531 9.70299C54.375 12.628 52.35 13.2186 51.5625 13.3405C50.7059 13.3302 49.8558 13.1912 49.0406 12.928L46.5281 16.678C47.3886 18.5017 47.861 20.4841 47.9156 22.4999C48.0112 24.2438 47.9767 25.9923 47.8125 27.7311C47.8125 27.7311 51.1781 29.1374 51.2906 29.1374C51.4031 29.1374 54.0281 28.1999 54.9656 28.978C55.9031 29.7561 55.6313 30.4686 55.6313 30.4686C55.6313 30.4686 57.5063 30.4686 57.075 32.1092C57.0009 32.5404 56.8183 32.9456 56.5445 33.2868C56.2706 33.6279 55.9144 33.8937 55.5094 34.0592C55.7603 34.1913 55.9497 34.4161 56.0373 34.6858C56.1249 34.9555 56.1036 35.2487 55.9781 35.503C55.6802 36.019 55.2062 36.4102 54.643 36.6048C54.0799 36.7994 53.4654 36.7844 52.9125 36.5624C51.89 35.8261 51.1256 34.7862 50.7281 33.5905C50.5905 33.1193 50.4994 32.6357 50.4563 32.1467L47.4844 31.2092C47.4844 31.2092 45.0656 39.2905 44.0063 42.6092C42.9469 45.928 42.3281 48.0842 42.3281 48.0842C42.3281 48.0842 45.9563 48.0842 46.3875 49.8749C46.8188 51.6655 46.7813 54.4874 46.3875 54.7592C45.9938 55.0311 41.7 55.3874 38.5031 55.3874C35.3063 55.3874 34.2469 54.6467 34.2844 54.1405C34.3219 53.6342 34.2844 47.0624 34.05 46.9499C32.8048 46.7951 31.5452 46.7951 30.3 46.9499C28.7344 47.0999 27.6 47.5311 27.5625 47.8874C27.525 48.2436 27.7969 54.7217 27.5625 55.153C27.3281 55.5842 21.7031 56.0436 18.0281 56.0905C14.3531 56.1374 13.7344 56.0905 13.7344 55.6967C13.7344 55.303 13.1063 51.0092 14.325 50.3436C15.7482 49.8459 17.2287 49.5309 18.7313 49.4061C18.7313 49.4061 16.0406 42.0655 14.7094 38.3905C13.3781 34.7155 12.4875 31.903 12.4875 31.903L9.44063 32.8124C9.44063 32.8124 9.7125 34.3311 8.97188 34.8842C8.23125 35.4374 6.8625 35.8217 6.15938 34.8842C5.96492 34.6014 5.83549 34.279 5.78037 33.9403C5.72526 33.6015 5.74584 33.2547 5.84063 32.9249C5.45261 32.691 5.13305 32.3591 4.91416 31.9624C4.69526 31.5658 4.58475 31.1184 4.59375 30.6655C4.79063 29.2967 5.33438 28.7905 5.65313 28.6311C5.91892 28.5608 6.1946 28.5355 6.46875 28.5561C6.46875 28.5561 7.28438 27.028 8.4375 27.3374C8.74716 27.3915 9.03178 27.5421 9.25067 27.7678C9.46957 27.9934 9.61152 28.2825 9.65625 28.5936L11.7656 27.8061C11.2513 25.6531 11.2098 23.4142 11.6438 21.2436C11.9367 19.4493 12.6748 17.7571 13.7906 16.3217L9.65625 11.9905C9.10072 12.3846 8.47212 12.6639 7.80726 12.812C7.14241 12.9601 6.45468 12.9741 5.78438 12.853C3.75 12.3374 1.875 10.3124 3.49688 7.22798C5.11875 4.14361 10.3125 3.86236 11.5875 5.62486C12.8625 7.38736 11.5875 9.68423 11.5875 9.68423L15.5531 13.1249Z" fill="#1D1D1B"/>
<path d="M7.80011 29.409L7.28449 28.5934C7.28449 28.5934 7.48136 27.6559 8.26886 28.0028C9.05636 28.3497 9.20636 29.4934 9.31886 29.4465C9.43136 29.3997 11.6626 28.5559 11.7845 28.7903C11.9064 29.0247 12.2907 31.0497 12.2907 31.0497C12.2907 31.0497 8.54074 31.9872 8.54074 32.2215C8.54074 32.4559 8.85011 33.7497 8.34386 34.1809C7.83761 34.6122 7.09699 34.6497 6.93761 34.3309C6.77824 34.0122 6.66574 33.2434 6.93761 33.1965C7.20949 33.1497 7.48136 33.009 7.48136 32.8872C7.48136 32.7653 7.40636 32.2215 7.40636 32.2215C7.40636 32.2215 6.46886 32.5403 6.00011 32.0247C5.53136 31.509 5.13761 30.0747 5.62511 29.7278C5.83 29.5716 6.07687 29.4801 6.33409 29.465C6.59132 29.45 6.84717 29.5121 7.06886 29.6434C7.24699 29.8778 7.80011 29.409 7.80011 29.409Z" fill="#DDC07C"/>
<path d="M11.3906 29.4473C11.4656 29.5691 11.6625 30.1129 11.4656 30.2348C11.227 30.3143 10.9765 30.3523 10.725 30.3473C10.725 30.3473 10.3781 29.841 10.5281 29.7285C10.8041 29.6027 11.0935 29.5083 11.3906 29.4473Z" fill="#1D1D1B"/>
<path d="M7.95008 5.62488C9.57196 5.32488 10.9595 6.00925 11.1938 7.49988C11.4282 8.9905 9.47821 11.2499 8.14696 11.7936C6.81571 12.3374 5.02508 12.2249 4.28446 11.0905C3.54383 9.95613 3.30008 6.478 7.95008 5.62488Z" fill="#FAB900"/>
<path d="M11.25 10.5098C12.586 11.5999 13.8394 12.7876 15 14.0629C14.8274 14.4989 14.5904 14.9066 14.2968 15.2723C14.2968 15.2723 10.3125 11.8316 10.4531 11.6348C10.5937 11.4379 11.25 10.5098 11.25 10.5098Z" fill="#DDC07C"/>
<path d="M49.5938 5.39099C50.9157 4.95974 53.1845 5.19412 53.6907 8.27849C54.197 11.3629 52.2845 12.5347 50.372 12.1504C49.5445 12.001 48.8052 11.5413 48.3051 10.8653C47.8051 10.1893 47.582 9.34785 47.6813 8.51287C47.7563 6.79724 48.497 5.73787 49.5938 5.39099Z" fill="#FAB900"/>
<path d="M47.3625 11.4004C47.4844 11.5598 48.4969 12.3379 48.3844 12.4973C48.2719 12.6566 46.2375 15.3098 46.2375 15.3098C45.883 14.639 45.5699 13.947 45.3 13.2379C45.3375 13.1254 47.3625 11.4004 47.3625 11.4004Z" fill="#DDC07C"/>
<path d="M23.6907 9.10359C25.9782 8.05359 31.8188 7.30359 35.8782 7.93172C39.9376 8.55984 44.0626 13.4348 45.0001 16.8755C45.5999 19.2086 46.0198 21.5843 46.2563 23.9817C46.2563 23.9817 42.8532 21.9567 42.6938 22.1067C42.5344 22.2567 42.5063 22.8098 42.6188 22.8942C42.7313 22.9786 46.1719 24.4505 46.2563 24.7692C46.3407 25.088 46.2563 27.188 46.2563 27.188C45.1519 26.628 44.0156 26.1334 42.8532 25.7067C42.7782 25.8192 42.4219 26.288 42.8532 26.4098C43.9872 26.9387 45.0726 27.5661 46.0969 28.2848C46.0969 28.4348 45.7876 30.8161 45.7876 30.8161C45.7876 30.8161 43.2094 29.3723 43.0876 29.4098C42.9657 29.4473 42.8157 29.963 42.9751 30.0005C43.1344 30.038 45.6657 31.5661 45.6282 31.8005C45.5907 32.0348 42.1876 42.8911 42.0563 42.9286C41.3627 42.6791 40.6835 42.3912 40.0219 42.0661C40.0219 42.0661 39.7126 42.6192 39.8626 42.6942C40.0126 42.7692 41.8594 43.5098 41.7376 43.7067C41.6157 43.9036 41.3813 44.6442 41.3813 44.6442C40.6882 44.2359 39.9565 43.8967 39.1969 43.6317C39.0751 43.7442 38.8782 44.0255 39.0751 44.1755C39.818 44.4766 40.544 44.8177 41.2501 45.1973C41.2501 45.3473 41.2501 45.9755 41.1376 45.9755C40.3707 45.6025 39.5817 45.2769 38.7751 45.0005C38.5782 45.0755 38.3438 45.4692 38.5782 45.6192C38.8126 45.7692 40.8844 46.6411 40.8469 46.8755C40.7527 47.1574 40.6335 47.4304 40.4907 47.6911C39.8113 47.2479 39.107 46.8441 38.3813 46.4817C38.2688 46.4817 38.1094 47.063 38.2219 47.1473C38.8812 47.4946 39.5087 47.8993 40.0969 48.3567C40.0969 48.4692 37.6032 48.6286 37.5657 48.938C37.4954 49.2212 37.4954 49.5173 37.5657 49.8005C37.6407 49.9598 40.3782 49.8005 42.0938 50.0348C43.8094 50.2692 44.5594 50.2317 44.6344 50.663C44.7094 51.0942 44.9063 53.7473 44.6344 53.8223C44.3626 53.8973 39.2813 53.8223 37.9969 53.7473C36.7126 53.6723 36.0001 53.438 36.0001 53.2036C36.0001 52.9692 35.9251 45.938 35.7282 45.7036C35.5313 45.4692 32.6813 45.113 30.3751 45.2348C28.9394 45.3162 27.5268 45.6329 26.1938 46.1723C25.8235 45.8058 25.4185 45.4762 24.9844 45.188C24.8251 45.188 24.4407 45.4692 24.5532 45.6567C24.6657 45.8442 25.7251 46.7161 25.7251 46.8286C25.71 46.9863 25.6849 47.1428 25.6501 47.2973C24.7651 46.6326 23.824 46.0461 22.8376 45.5442C22.6782 45.6567 22.4907 46.1255 22.6782 46.2473C23.7039 46.9093 24.6842 47.6391 25.6126 48.4317C25.6126 48.6286 25.6876 49.5661 25.6876 49.5661C25.6876 49.5661 23.2313 47.9255 23.0719 48.1598C22.9126 48.3942 22.8751 48.9005 22.9969 48.9848C23.1188 49.0692 25.6126 50.1567 25.6501 50.4286C25.7481 51.5984 25.7481 52.7744 25.6501 53.9442C25.5001 54.1411 15.6938 54.8817 15.5719 54.488C15.4501 54.0942 15.4594 51.2067 15.7313 51.0098C16.0032 50.813 21.7876 50.0723 21.8626 49.8755C21.9376 49.6786 21.9376 49.1723 21.7501 49.1348C21.5626 49.0973 20.4563 49.1348 20.4188 49.0598C20.3813 48.9848 15.2251 35.813 14.0907 31.0505C12.9563 26.288 12.5251 19.9598 15.9376 15.4692C19.3501 10.9786 20.8782 10.388 23.6907 9.10359Z" fill="#8EC480"/>
<path d="M31.2374 10.8939C31.5468 10.8939 31.5468 11.8314 31.4249 11.8314C29.1682 11.7141 26.9343 12.3326 25.0593 13.5939C21.8999 15.7783 21.5437 16.5658 21.3093 16.4814C21.0749 16.3971 20.653 16.2471 20.728 16.0502C21.9571 14.438 23.5411 13.1308 25.3573 12.23C27.1734 11.3293 29.1727 10.8593 31.1999 10.8564L31.2374 10.8939Z" fill="#1D1D1B"/>
<path d="M41.1562 13.9785C41.9179 14.1821 42.617 14.5719 43.1905 15.1129C43.1905 15.3098 43.1905 15.666 42.9937 15.5441C42.3478 15.2752 41.7213 14.9619 41.1187 14.6066C41.0343 14.4473 40.9593 14.1379 41.1562 13.9785Z" fill="#1D1D1B"/>
<path d="M41.7843 16.6035C41.7843 16.6035 44.4 17.6535 44.5968 18.1973C44.7937 18.741 44.9062 18.8629 44.6718 18.8254C43.6367 18.4265 42.6416 17.9306 41.7 17.3441C41.6625 17.1473 41.6625 16.6785 41.7843 16.6035Z" fill="#1D1D1B"/>
<path d="M42.253 19.5283C43.2624 19.9734 44.2289 20.51 45.1405 21.1314C45.2155 21.4033 45.4874 21.7971 45.1405 21.6377C44.1084 21.2193 43.1033 20.7371 42.1311 20.1939C42.1458 19.9681 42.1867 19.7447 42.253 19.5283Z" fill="#1D1D1B"/>
<path d="M47.9906 28.6689C48.15 28.7439 51.3469 30.1127 51.4688 30.1502C51.5906 30.1877 53.3438 29.3346 54.2812 29.6064C55.2188 29.8783 54.9844 30.3846 54.9 30.6189C54.8156 30.8533 54.5531 31.3221 54.75 31.4814C54.9469 31.6408 54.9469 31.7533 55.0594 31.7533C55.1719 31.7533 55.5656 31.1721 55.8844 31.3689C56.0771 31.5538 56.1951 31.8031 56.2159 32.0694C56.2366 32.3356 56.1587 32.6002 55.9969 32.8127C55.5792 33.281 55.0766 33.6659 54.5156 33.9471C54.3562 33.9471 54.2812 34.4158 54.4406 34.5283C54.6 34.6408 55.4531 34.9221 55.2562 35.2689C55.1521 35.4646 55.0055 35.6344 54.827 35.7658C54.6486 35.8972 54.4429 35.9869 54.2252 36.0283C54.0075 36.0697 53.7833 36.0617 53.5691 36.0049C53.3549 35.9481 53.1561 35.844 52.9875 35.7002C51.8625 34.7627 51.5062 32.2596 51.4688 32.0721C51.377 31.7539 51.2171 31.4596 51 31.2096C49.8889 30.9127 48.7937 30.5591 47.7188 30.1502C47.7188 30.0002 47.9906 28.6689 47.9906 28.6689Z" fill="#DDC07C"/>
<path d="M30.5344 36.6379C30.6844 36.6379 33.9656 37.0317 36.3469 35.8598C38.7281 34.6879 40.1812 32.8129 40.4906 32.8879C40.8 32.9629 41.2312 33.4317 41.1562 33.591C40.1626 35.3232 38.6419 36.6928 36.8156 37.5004C33.8531 38.8223 30.9187 38.9442 30.6844 38.7098C30.45 38.4754 30.1406 36.7129 30.5344 36.6379Z" fill="#1D1D1B"/>
<path d="M28.7718 17.0249C32.2499 16.2561 37.2843 17.2218 39.2436 21.3655C41.203 25.5093 40.6874 31.0499 36.1593 33.628C31.6311 36.2061 25.5655 36.1311 22.753 33.4311C19.9405 30.7311 17.9155 19.453 28.7718 17.0249Z" fill="#1D1D1B"/>
<path d="M28.9969 18.272C31.9969 17.6064 36.3469 18.4408 38.0344 22.022C39.7219 25.6033 39.2813 30.3845 35.3719 32.6064C31.4626 34.8283 26.2501 34.7626 23.8032 32.4376C21.3563 30.1126 19.6219 20.3626 28.9969 18.272Z" fill="#E6E4DA"/>
<path d="M29.4938 23.4372C30.1205 23.311 30.7716 23.4021 31.3396 23.6955C31.9076 23.9889 32.3587 24.4671 32.6185 25.0512C32.8784 25.6353 32.9315 26.2905 32.7691 26.9089C32.6066 27.5272 32.2384 28.0718 31.725 28.4528C30.3563 29.2309 28.5282 29.2122 27.675 28.3965C27.3368 27.984 27.112 27.4903 27.023 26.9643C26.9339 26.4382 26.9837 25.8981 27.1674 25.3972C27.3511 24.8963 27.6623 24.452 28.0703 24.1083C28.4783 23.7645 28.969 23.5332 29.4938 23.4372Z" fill="#1D1D1B"/>
<path d="M30.2156 24.3754C30.4798 24.3046 30.7583 24.3073 31.0211 24.3833C31.2838 24.4593 31.5207 24.6057 31.7063 24.8067C32.0906 25.2754 30.7688 26.3629 30.6094 26.2879C30.45 26.2129 29.5125 24.7598 30.2156 24.3754Z" fill="#E6E4DA"/>
</svg>
