<svg width="60" height="60" viewBox="0 0 60 60" fill="none" xmlns="http://www.w3.org/2000/svg">
<path d="M51.9791 12.7961C51.9283 12.4977 51.7661 12.2663 51.5253 12.1324L39.8684 0.475418C39.7345 0.234652 39.503 0.0723932 39.2047 0.0216428C39.1197 0.00258161 39.032 -0.00349415 38.9428 0.00424946H37.9974C37.3975 0.00424946 36.9976 0.404177 36.9976 1.00413C36.9976 1.60408 37.3975 2.00401 37.9974 2.00401V4.50388V5.70379V8.20378V9.50364V11.0035C37.9974 11.362 38.0558 11.7022 38.163 12.0167C38.1785 12.1467 38.2222 12.2782 38.2974 12.4034C38.5974 13.0034 38.9973 13.4033 39.5973 13.7033C39.7032 13.7563 39.7812 13.7808 39.8607 13.7925C40.2087 13.9285 40.5913 14.0033 40.9971 14.0033H42.5969H43.7968H46.2967H47.4966H49.9965C49.9965 14.6032 50.3964 15.0031 50.9963 15.0031C51.5963 15.0031 51.9962 14.6032 51.9962 14.0033V13.0581C52.0043 12.969 51.9982 12.8812 51.9791 12.7961ZM47.4968 12.0035H46.2969H43.797H42.5971H40.9973C40.3974 12.0035 39.9974 11.6036 39.9974 11.0036V9.40368V8.20378V5.70402V4.50412V3.40417L48.5969 12.0036L47.4968 12.0035Z" fill="black"/>
<path d="M28.3981 0.00390625H26.4982C25.8982 0.00390625 25.4983 0.403834 25.4983 1.00379C25.4983 1.60374 25.8982 2.00366 26.4982 2.00366H28.3981C28.8981 2.00366 29.398 1.60374 29.398 1.00379C29.398 0.403834 28.998 0.00390625 28.3981 0.00390625Z" fill="black"/>
<path d="M34.0977 0.00390625H32.1978C31.5978 0.00390625 31.1979 0.403834 31.1979 1.00379C31.1979 1.60374 31.5978 2.00366 32.1978 2.00366H34.0977C34.6976 2.00366 35.0976 1.60374 35.0976 1.00379C35.0977 0.403834 34.6976 0.00390625 34.0977 0.00390625Z" fill="black"/>
<path d="M8.99939 8.50417C9.59934 8.50417 9.99927 8.10425 9.99927 7.5043V5.60437C9.99927 5.00442 9.59934 4.60449 8.99939 4.60449C8.39944 4.60449 7.99951 5.00442 7.99951 5.60437V7.5043C7.99951 8.10425 8.39944 8.50417 8.99939 8.50417Z" fill="black"/>
<path d="M8.99939 20.1028C9.59934 20.1028 9.99927 19.6028 9.99927 19.1029V17.203C9.99927 16.6031 9.59934 16.2031 8.99939 16.2031C8.39944 16.2031 7.99951 16.6031 7.99951 17.203V19.1029C7.99951 19.7029 8.39944 20.1028 8.99939 20.1028Z" fill="black"/>
<path d="M16.7989 0.00390625H14.8989C14.299 0.00390625 13.899 0.403834 13.899 1.00379C13.899 1.60374 14.299 2.00366 14.8989 2.00366H16.7989C17.3988 2.00366 17.7987 1.60374 17.7987 1.00379C17.7987 0.403834 17.3988 0.00390625 16.7989 0.00390625Z" fill="black"/>
<path d="M10.9993 0.00390625C9.9994 0.00390625 9.09936 0.503905 8.59948 1.30376C8.2995 1.80376 8.39945 2.40371 8.7995 2.70369C8.99952 2.80364 9.19943 2.80364 9.39945 2.80364C9.69943 2.80364 9.9994 2.70369 10.1994 2.40371C10.3994 2.20369 10.6994 2.00378 10.9994 2.00378C11.5994 2.00378 11.9993 1.60386 11.9993 1.0039C11.9992 0.403834 11.5992 0.00390625 10.9993 0.00390625Z" fill="black"/>
<path d="M8.99939 54.8011C9.59934 54.8011 9.99927 54.3011 9.99927 53.8012V51.9012C9.99927 51.3013 9.59934 50.9014 8.99939 50.9014C8.39944 50.9014 7.99951 51.3013 7.99951 51.9012V53.8012C7.99951 54.401 8.39944 54.8011 8.99939 54.8011Z" fill="black"/>
<path d="M16.0989 58H14.199C13.599 58 13.1991 58.3999 13.1991 58.9999C13.1991 59.5998 13.599 59.9998 14.199 59.9998H16.1989C16.6989 59.9998 17.0988 59.5998 17.0988 58.9999C17.0989 58.3999 16.6989 58 16.0989 58Z" fill="black"/>
<path d="M10.7992 58.1002C10.3993 58.0002 10.1993 57.7002 10.0993 57.4003C9.8993 56.8003 9.39942 56.6003 8.79946 56.7004C8.19951 56.8004 7.89954 57.4003 8.09956 57.9003C8.39954 58.9001 9.19951 59.6002 10.0994 59.9001C10.1994 59.9001 10.2995 59.9001 10.3994 59.9001C10.7993 59.9001 11.1994 59.6002 11.4994 59.4001C11.5992 58.8001 11.2992 58.3002 10.7992 58.1002Z" fill="black"/>
<path d="M8.99939 31.7024C9.59934 31.7024 9.99927 31.2024 9.99927 30.7025V28.8026C9.99927 28.2027 9.59934 27.8027 8.99939 27.8027C8.39944 27.8027 7.99951 28.2027 7.99951 28.8026V30.7025C7.99951 31.3025 8.39944 31.7024 8.99939 31.7024Z" fill="black"/>
<path d="M8.99939 37.4016C9.59934 37.4016 9.99927 37.0017 9.99927 36.4018V34.5018C9.99927 33.9019 9.59934 33.502 8.99939 33.502C8.39944 33.502 7.99951 33.9019 7.99951 34.5018V36.4018C7.99951 37.0016 8.39944 37.4016 8.99939 37.4016Z" fill="black"/>
<path d="M8.99939 25.9026C9.59934 25.9026 9.99927 25.4026 9.99927 24.9027V23.0028C9.99927 22.4029 9.59934 22.0029 8.99939 22.0029C8.39944 22.0029 7.99951 22.4029 7.99951 23.0028V24.9027C7.99951 25.5027 8.39944 25.9026 8.99939 25.9026Z" fill="black"/>
<path d="M8.99939 49.0012C9.59934 49.0012 9.99927 48.5012 9.99927 48.0014V46.1014C9.99927 45.5015 9.59934 45.1016 8.99939 45.1016C8.39944 45.1016 7.99951 45.5015 7.99951 46.1014V48.0014C7.99951 48.6012 8.39944 49.0012 8.99939 49.0012Z" fill="black"/>
<path d="M8.99939 14.303C9.59934 14.303 9.99927 13.9031 9.99927 13.3031V11.4032C9.99927 10.8032 9.59934 10.4033 8.99939 10.4033C8.39944 10.4033 7.99951 10.8032 7.99951 11.4032V13.3031C7.99951 13.9031 8.39944 14.303 8.99939 14.303Z" fill="black"/>
<path d="M8.99939 43.2014C9.59934 43.2014 9.99927 42.8015 9.99927 42.2016V40.3016C9.99927 39.7017 9.59934 39.3018 8.99939 39.3018C8.39944 39.3018 7.99951 39.7017 7.99951 40.3016V42.2016C7.99951 42.8014 8.39944 43.2014 8.99939 43.2014Z" fill="black"/>
<path d="M45.0968 58H43.1969C42.5969 58 42.197 58.3999 42.197 58.9999C42.197 59.5998 42.5969 59.9998 43.1969 59.9998H45.0968C45.5968 59.9998 46.0967 59.5998 46.0967 58.9999C46.0968 58.3999 45.6968 58 45.0968 58Z" fill="black"/>
<path d="M50.9966 28.502C50.3966 28.502 49.9967 28.9019 49.9967 29.5018V31.4018C49.9967 32.0017 50.3966 32.4016 50.9966 32.4016C51.5965 32.4016 51.9965 31.9016 51.9965 31.4018V29.5018C51.9965 28.9019 51.5965 28.502 50.9966 28.502Z" fill="black"/>
<path d="M50.9966 34.2021C50.3966 34.2021 49.9967 34.6021 49.9967 35.202V37.102C49.9967 37.7019 50.3966 38.1018 50.9966 38.1018C51.5965 38.1018 51.9965 37.7019 51.9965 37.102V35.202C51.9965 34.6021 51.5965 34.2021 50.9966 34.2021Z" fill="black"/>
<path d="M50.9966 40.002C50.3966 40.002 49.9967 40.4019 49.9967 41.0018V42.9018C49.9967 43.5017 50.3966 43.9016 50.9966 43.9016C51.5965 43.9016 51.9965 43.5017 51.9965 42.9018V41.0018C51.9965 40.4019 51.5965 40.002 50.9966 40.002Z" fill="black"/>
<path d="M50.9966 16.9033C50.3966 16.9033 49.9967 17.3032 49.9967 17.9032V19.8031C49.9967 20.4031 50.3966 20.803 50.9966 20.803C51.5965 20.803 51.9965 20.4031 51.9965 19.8031V17.9032C51.9965 17.3034 51.5965 16.9033 50.9966 16.9033Z" fill="black"/>
<path d="M50.9966 45.8018C50.3966 45.8018 49.9967 46.2017 49.9967 46.8016V48.7016C49.9967 49.3015 50.3966 49.7014 50.9966 49.7014C51.5965 49.7014 51.9965 49.2014 51.9965 48.7016V46.8016C51.9965 46.2017 51.5965 45.8018 50.9966 45.8018Z" fill="black"/>
<path d="M50.9966 22.7031C50.3966 22.7031 49.9967 23.1031 49.9967 23.703V25.6029C49.9967 26.2029 50.3966 26.6028 50.9966 26.6028C51.5965 26.6028 51.9965 26.1028 51.9965 25.6029V23.703C51.9965 23.1032 51.5965 22.7031 50.9966 22.7031Z" fill="black"/>
<path d="M51.1965 57.4C50.7966 57.1 50.0965 57.2 49.7966 57.6C49.5965 57.9 49.2966 58 48.9966 58C48.3966 58 47.9967 58.3999 47.9967 58.9998C47.9967 59.5998 48.3966 59.9997 48.9966 59.9997C49.8965 59.9997 50.7964 59.5998 51.3964 58.7998C51.6965 58.3999 51.5965 57.7 51.1965 57.4Z" fill="black"/>
<path d="M27.698 58H25.7981C25.1981 58 24.7982 58.3999 24.7982 58.9999C24.7982 59.5998 25.1981 59.9998 25.7981 59.9998H27.698C28.298 59.9998 28.6979 59.5998 28.6979 58.9999C28.698 58.3999 28.298 58 27.698 58Z" fill="black"/>
<path d="M33.4977 58H31.5978C30.9978 58 30.5979 58.3999 30.5979 58.9999C30.5979 59.5998 30.9978 59.9998 31.5978 59.9998H33.4977C33.9977 59.9998 34.4976 59.5998 34.4976 58.9999C34.4977 58.3999 34.0977 58 33.4977 58Z" fill="black"/>
<path d="M50.9966 51.6006C50.3966 51.6006 49.9967 52.0005 49.9967 52.6005V54.5004C49.9967 55.1003 50.3966 55.5003 50.9966 55.5003C51.5965 55.5003 51.9965 55.0003 51.9965 54.5004V52.6005C51.9965 52.0005 51.5965 51.6006 50.9966 51.6006Z" fill="black"/>
<path d="M22.5985 0.00390625H20.6986C20.0987 0.00390625 19.6987 0.403834 19.6987 1.00379C19.6987 1.60374 20.0987 2.00366 20.6986 2.00366H22.5985C23.0985 2.00366 23.5984 1.60374 23.5984 1.00379C23.5984 0.403834 23.1985 0.00390625 22.5985 0.00390625Z" fill="black"/>
<path d="M39.2973 58H37.3973C36.7974 58 36.3975 58.3999 36.3975 58.9999C36.3975 59.5998 36.7974 59.9998 37.3973 59.9998H39.2973C39.7973 59.9998 40.2971 59.5998 40.2971 58.9999C40.2973 58.3999 39.8972 58 39.2973 58Z" fill="black"/>
<path d="M21.8985 58H19.9985C19.3986 58 18.9987 58.3999 18.9987 58.9999C18.9987 59.5998 19.3986 59.9998 19.9985 59.9998H21.8985C22.4984 59.9998 22.8983 59.5998 22.8983 58.9999C22.8985 58.3999 22.4984 58 21.8985 58Z" fill="black"/>
</svg>
