<svg width="60" height="60" viewBox="0 0 60 60" fill="none" xmlns="http://www.w3.org/2000/svg">
<g clip-path="url(#clip0_18_15571)">
<path d="M55.4133 59.9998H4.5867C2.05757 59.9998 0 57.9422 0 55.4132V40.5342C0 39.513 0.827927 38.6848 1.84933 38.6848C2.87073 38.6848 3.69866 39.513 3.69866 40.5342V55.4133C3.69866 55.9028 4.09698 56.3011 4.5867 56.3011H55.4133C55.9028 56.3011 56.3013 55.9029 56.3013 55.4133V4.58647C56.3013 4.09698 55.903 3.69866 55.4133 3.69866H4.5867C4.09698 3.69866 3.69866 4.09698 3.69866 4.58647V29.6698C3.69866 30.6909 2.87073 31.5191 1.84933 31.5191C0.827927 31.5191 0 30.6909 0 29.6698V4.58647C0 2.05757 2.05757 0 4.5867 0H55.4133C57.9424 0 60 2.05757 60 4.58647V55.4132C59.9998 57.9422 57.9422 59.9998 55.4133 59.9998Z" fill="#2D527C"/>
<path d="M9.76685 10.8808V49.1187C9.76685 49.7342 10.2656 50.2329 10.8811 50.2329H23.1575V36.9652H36.8427V50.2328H49.119C49.7344 50.2328 50.2332 49.7338 50.2332 49.1186V36.0401V10.8808C50.2332 10.2653 49.7344 9.7666 49.119 9.7666H21.9655H10.8811C10.2656 9.76637 9.76685 10.2653 9.76685 10.8808Z" fill="#CEE8FA"/>
<path d="M49.1187 52.0821H36.8423C35.8209 52.0821 34.993 51.2539 34.993 50.2328V38.8143H25.0065V50.2328C25.0065 51.2539 24.1786 52.0821 23.1572 52.0821H10.881C9.24697 52.0821 7.91748 50.7526 7.91748 49.1186V10.8805C7.91748 9.24648 9.24697 7.91699 10.881 7.91699H49.1189C50.753 7.91699 52.0825 9.24648 52.0825 10.8805V49.1186C52.0825 50.7527 50.753 52.0821 49.1187 52.0821ZM38.6919 48.3836H48.3838V11.6157H11.6161V48.3836H21.3081V36.9651C21.3081 35.9439 22.136 35.1158 23.1574 35.1158H36.8426C37.864 35.1158 38.692 35.9439 38.692 36.9651L38.6919 48.3836Z" fill="#2D527C"/>
<path d="M23.1574 44.6841C22.136 44.6841 21.3081 43.8559 21.3081 42.8347V9.76632C21.3081 8.74515 22.136 7.91699 23.1574 7.91699C24.1788 7.91699 25.0068 8.74515 25.0068 9.76632V42.8347C25.0066 43.8562 24.1787 44.6841 23.1574 44.6841Z" fill="#2D527C"/>
<path d="M36.8425 52.0825C35.8211 52.0825 34.9932 51.2544 34.9932 50.2332V17.1648C34.9932 16.1436 35.8211 15.3154 36.8425 15.3154C37.8639 15.3154 38.6918 16.1436 38.6918 17.1648V50.2332C38.6918 51.2546 37.8639 52.0825 36.8425 52.0825Z" fill="#2D527C"/>
</g>
<defs>
<clipPath id="clip0_18_15571">
<rect width="60" height="60" fill="white"/>
</clipPath>
</defs>
</svg>
