<svg width="60" height="60" viewBox="0 0 60 60" fill="none" xmlns="http://www.w3.org/2000/svg">
<path d="M51.8098 42.9413C51.713 38.5075 49.0994 12.6067 46.9039 7.11913C46.3909 5.83681 45.1058 5.69761 43.1833 5.77813C38.0728 5.99221 33.9175 6.52381 28.1071 8.67913C25.8621 9.51181 25.4925 10.5029 25.9022 12.9807C26.359 15.7437 26.3484 17.2327 26.8878 23.4892C27.0832 25.7559 27.6986 26.2203 23.8418 27.1723C21.2685 27.8075 15.6843 28.8699 11.5804 30.2797C8.44424 31.3572 7.87196 32.4882 8.31788 36.1621C8.85908 40.6209 9.7124 46.8351 10.8253 51.193C11.7085 54.6515 12.951 54.3426 16.2596 54.1126C18.721 53.9414 38.1296 51.6984 47.2596 49.6126C50.8928 48.5898 51.9028 47.197 51.8098 42.9413Z" fill="#3F3756"/>
<path d="M9.07065 32.4711C7.94109 35.0042 9.90189 53.5305 13.3898 53.957C14.8243 54.2195 27.7055 52.0927 30.7855 51.7848C35.3699 50.7111 50.4054 50.5311 51.3857 45.5273C50.943 34.8659 49.5457 17.9814 46.8703 7.71671C46.0655 6.55691 45.7055 6.15683 44.0655 6.07691C42.4255 5.99687 37.3859 6.35687 33.5257 7.39691C29.6655 8.43695 26.3455 9.25031 26.2255 10.1636C26.0442 12.7259 28.1571 23.7942 27.3756 26.1669C25.9662 27.5636 10.6308 29.4402 9.07065 32.4711Z" fill="#9B7C37"/>
<path d="M49.4318 22.4126C45.4312 23.9917 44.0292 37.1902 40.345 40.4366C37.3729 43.8274 35.6409 48.03 37.8634 50.848C37.8634 50.848 48.9019 49.5877 50.3036 47.382C52.9225 42.1249 49.3942 26.6646 49.4318 22.4126Z" fill="#7D5C21"/>
<path d="M12.8555 34.3461C12.8555 34.3461 13.9955 48.0705 16.1255 49.0436C19.3237 49.5171 47.4991 47.3493 47.3734 43.0007C47.3898 40.0448 46.697 10.491 42.7662 10.4764C40.0653 10.3866 30.4928 11.664 29.9992 12.5704C29.5055 13.4766 31.1555 27.3366 30.8255 28.2666C28.6706 30.5513 14.3619 31.7766 12.8555 34.3461Z" fill="#A7943F"/>
<path d="M46.4663 25.9624C46.4663 25.9624 44.3079 32.7219 43.0416 35.9243C40.7913 40.7338 37.3551 42.7642 36.8145 47.151C36.8145 47.151 45.8611 46.4355 47.0433 43.8611C48.2254 41.2868 46.4663 25.9624 46.4663 25.9624Z" fill="#8A7627"/>
<path d="M42.9564 10.7842C23.6645 13.1065 33.3988 12.8745 30.9173 29.1037C29.9455 31.7967 14.5328 33.09 13.7714 34.5282C13.01 35.9664 14.0719 40.1961 14.7316 42.6083C15.7956 46.5795 16.3973 49.311 19.9117 49.2353C19.9117 49.2353 16.5251 49.9869 15.6152 48.5518C14.7055 47.1166 12.2456 34.836 12.8542 33.9567C13.4627 33.0773 30.7746 29.0867 30.9598 28.5567C31.1449 28.0266 29.5805 14.0616 29.6705 13.3416C29.7605 12.6216 30.4775 11.8359 32.3165 11.7337C34.1555 11.6316 42.9564 10.7842 42.9564 10.7842Z" fill="#B9A95D"/>
<path d="M49.2244 21.7783C48.3275 22.3939 47.0971 22.7638 46.3817 23.5359C46.3269 23.3291 46.3171 23.1167 46.3027 22.905C46.3391 23.0418 46.3845 23.0926 46.533 22.9913C47.1993 22.4172 48.7973 21.8862 49.147 21.1846C49.2215 21.3761 49.1739 21.5836 49.2244 21.7783Z" fill="#7D5C21"/>
<path d="M28.9536 34.2698C28.7964 32.9922 30.3301 32.5813 31.3281 32.4767C32.5835 32.3569 32.9145 33.8668 33.0096 34.8514C33.0077 34.9602 33.0021 35.1302 32.8579 35.141C32.2061 34.725 32.4042 33.2104 31.347 33.2369C29.4932 33.3617 29.4704 34.0159 29.9174 35.6059C30.2702 37.9386 30.3999 37.2685 32.3421 36.7242C33.708 36.2752 33.6485 38.7061 33.9943 39.5392C35.4732 43.1066 31.385 43.8638 30.7574 41.8942C30.7113 41.5812 29.7179 38.5657 30.7028 39.3778C31.0764 40.1036 31.1151 40.9601 31.3248 41.7432C31.4973 42.5711 32.4035 42.0996 32.9715 42.1148C33.8301 42.0182 33.6557 40.8326 33.4381 40.2272C33.2161 39.8539 32.925 37.0117 32.465 37.3908C29.1063 38.9141 29.4362 36.9406 28.9536 34.2698Z" fill="#DECB7A"/>
<path d="M37.9045 30.6042C38.2615 30.5583 38.3697 31.0374 38.0099 31.1644C37.4671 31.3418 36.9324 31.5326 36.4158 31.7812C36.2141 32.5227 39.8959 43.6347 38.368 42.0172C37.3921 40.1026 37.3362 37.8385 36.5163 35.8468C36.1318 34.6516 35.9907 33.3948 35.7495 32.1658C35.6657 31.9048 34.1389 32.5569 33.8116 32.5104C32.8685 32.1427 34.4304 31.714 34.7878 31.6437C35.8738 31.45 36.8103 30.7459 37.9045 30.6042Z" fill="#DECB7A"/>
<path d="M41.3787 38.7189C40.5982 36.4113 40.1033 34.0164 39.7993 31.6014C39.8342 31.1474 39.3557 30.2439 39.7883 29.9702C40.2555 30.0888 40.2329 31.0854 40.3865 31.4981C40.6475 32.9028 40.9489 34.2989 41.2445 35.6964C41.2961 36.5592 42.3561 38.2217 41.3787 38.7189Z" fill="#DECB7A"/>
<path d="M41.3787 38.719C41.5735 38.5324 41.7276 38.3187 41.817 38.0618C41.8277 38.0633 41.8383 38.0642 41.8491 38.0643C41.7767 38.538 42.3259 39.396 41.8085 39.6689C41.4258 39.6369 41.5098 38.9934 41.3787 38.719Z" fill="#D0B65B"/>
<path d="M42.1777 40.9075C41.9736 41.7339 41.4008 40.3504 41.7959 40.197C42.0968 40.2096 42.0859 40.6908 42.1777 40.9075Z" fill="#CFB65A"/>
<path d="M29.6608 41.4656C29.35 39.7856 28.5792 33.4526 26.3726 33.6045C22.716 33.8433 24.8376 36.4334 25.1433 38.618C25.5094 39.6508 26.4624 44.1766 27.6638 44.0523C29.3961 44.1053 30.1033 43.1059 29.6608 41.4656ZM28.7598 43.1999C28.5056 43.4013 28.1802 43.3529 27.8893 43.4257C27.528 43.5159 27.5109 43.5116 27.3456 43.1698C26.375 40.9379 25.9033 38.5421 25.2354 36.2155C25.1024 35.7231 24.5762 34.9106 25.2199 34.6005C25.815 34.2557 27.085 33.953 27.2445 34.9067C28.176 37.0648 28.6918 39.3662 29.1097 41.6799C29.2056 42.2198 29.399 42.95 28.7598 43.1999Z" fill="#DECB7A"/>
<path d="M24.24 39.0964C23.314 36.5455 23.3557 33.949 19.8854 35.3774C19.5804 35.387 19.557 35.3754 19.5571 35.7408C20.1965 38.8268 21.0268 41.8908 22.1647 44.8378C22.2143 45.2125 22.7858 45.793 22.923 45.1556C22.751 44.1458 22.1981 43.2241 21.962 42.2216C21.9276 42.0954 21.9368 42.0542 22.0796 42.0395C23.4959 41.8346 24.8656 40.609 24.24 39.0964ZM23.5902 40.1243C23.4904 40.9811 22.5077 41.0958 21.8298 41.2993C21.7321 41.3231 21.7034 41.2937 21.6774 41.2058C21.1398 39.5065 20.724 37.7707 20.1798 36.0745C20.1448 35.9707 20.1576 35.931 20.2753 35.9004C20.9748 35.662 22.1006 35.209 22.4122 36.186C22.8031 37.4862 23.4866 38.767 23.5902 40.1243Z" fill="#DECB7A"/>
<path d="M36.7204 13.9568L34.7554 19.7542L34.8604 19.9718L36.8145 19.6118C37.0224 20.7415 37.6343 24.8753 38.1754 25.8368L39.9154 25.2968L38.9554 19.4018C39.0499 19.1867 41.4301 18.7729 41.2054 18.4418C41.1454 18.1268 37.1254 13.9868 36.7204 13.9568Z" fill="#DECB7B"/>
<path d="M39.102 20.4368L37.6763 24.4391L37.8854 25.3067L39.2353 21.12L39.102 20.4368Z" fill="#D0B65B"/>
<path d="M39.3254 21.6738L38.0061 25.6067L38.1053 25.8367L39.9154 25.2967L39.3254 21.6738Z" fill="#D0B65B"/>
<path d="M41.1107 17.9726C39.851 16.4447 38.4281 14.9846 36.8555 13.7863C36.481 13.6388 36.6557 14.0452 36.5077 14.204C36.0115 15.3991 35.6108 16.6285 35.1952 17.8525C35.1335 18.3908 33.9226 20.4342 35.1752 20.1C35.4844 20.1107 36.7387 19.4905 36.7429 19.9206C36.9706 21.8369 37.3607 23.7431 37.8733 25.6025C38.1688 26.3813 39.1996 25.7096 39.8244 25.5319C40.3094 25.2156 39.514 22.4825 39.5284 21.7638C39.5552 21.1832 38.8964 19.7686 39.2105 19.4094C39.8399 18.9605 42.0212 19.2204 41.1107 17.9726ZM40.8506 18.5898C38.7013 19.0721 38.4782 18.9193 39.102 21.1846C39.1184 21.2669 39.135 21.3492 39.1514 21.4315C39.2153 21.8753 40.1202 25.4638 39.5383 25.3276C38.8577 25.3488 38.109 26.1962 38.006 25.061C37.9426 24.8574 37.8936 24.6505 37.8634 24.4392C37.504 22.8847 37.157 21.3248 36.9944 19.735C36.9617 19.0984 35.5466 19.7555 35.1302 19.7707C34.9367 19.822 34.9199 19.8067 34.9808 19.6204C35.5702 17.7926 36.2269 15.9847 36.7124 14.1276C37.718 14.7979 38.5662 15.681 39.3576 16.5937C39.5363 16.9837 41.3738 18.3502 40.8506 18.5898Z" fill="#3F3756"/>
<path d="M51.8098 42.9413C51.713 38.5075 49.0994 12.6067 46.9039 7.11913C46.3909 5.83681 45.1058 5.69761 43.1833 5.77813C38.0728 5.99221 33.9175 6.52381 28.1071 8.67913C25.8621 9.51181 25.4925 10.5029 25.9022 12.9807C26.359 15.7437 26.3484 17.2327 26.8878 23.4892C27.0832 25.7559 27.6986 26.2203 23.8418 27.1723C21.2685 27.8075 15.6843 28.8699 11.5804 30.2797C8.44424 31.3572 7.87196 32.4882 8.31788 36.1621C8.85908 40.6209 9.7124 46.8351 10.8253 51.193C11.7085 54.6515 12.951 54.3426 16.2596 54.1126C18.721 53.9414 38.1296 51.6984 47.2596 49.6126C50.8928 48.5898 51.9028 47.197 51.8098 42.9413ZM47.805 13.9053C48.3547 16.5605 48.5806 19.2687 48.8971 21.9531C48.8701 22.4807 49.4358 24.8531 49.0882 25.0056C45.2734 25.9864 47.7946 27.0753 45.5259 15.3643C45.4891 15.0101 47.0442 14.4342 47.3871 14.0627C47.5045 14.0243 47.756 13.6971 47.805 13.9053ZM46.8915 41.3964C47.0802 46.4391 40.3515 45.7347 36.9166 46.6119C30.4411 47.3497 23.9757 48.4055 17.4759 48.8422C15.3477 49.1473 15.401 46.6099 14.984 45.1656C14.3982 42.4701 13.963 39.7423 13.5579 37.0147C13.5916 36.0775 12.6932 34.3573 13.8072 33.8836C17.4366 32.2603 21.499 31.8754 25.3134 30.8159C31.215 29.2248 32.0174 30.4176 31.2138 23.629C29.785 10.0236 27.4629 12.9184 39.7749 11.2132C42.4456 11.0099 44.0877 9.76393 44.2941 13.4579C45.5094 22.7225 46.9062 32.0392 46.8915 41.3964ZM46.9465 10.1634C47.6779 14.0377 48.6572 13.1815 45.582 14.9445C45.3074 15.1318 45.0805 12.7305 44.8827 12.3864C44.8543 12.2767 44.8796 12.2106 44.9574 12.133C45.6296 11.4907 46.2567 10.7724 46.9465 10.1634ZM46.3819 8.31913C46.4962 8.81725 47.0077 9.60913 46.7762 10.0309C46.104 10.6821 45.4764 11.3645 44.7982 12.0063C44.7715 11.6465 44.469 11.313 44.526 10.9879C45.1534 10.102 45.7341 9.19045 46.3819 8.31913ZM32.4975 8.27101C33.6492 7.72837 46.2067 5.45041 45.5737 7.27561C45.0741 8.31685 44.5686 9.36001 44.1955 10.4548C44.2152 10.4629 44.2348 10.471 44.2545 10.479C44.8338 9.36853 45.2803 8.19517 45.8238 7.05481C46.1763 7.54729 46.4554 8.10925 45.9442 8.61721C45.3304 9.31201 44.8666 10.1092 44.4 10.9113C43.7259 9.56209 42.182 10.0674 40.9957 10.2046C39.0518 10.444 37.1126 10.7211 35.1722 10.987C34.7728 10.9545 33.8296 11.3764 33.6075 11.0658C33.5152 10.6348 32.1374 8.32645 32.4975 8.27101ZM26.6986 10.6624C27.7479 9.14101 30.3488 9.03133 32.0005 8.39977C32.3712 8.23117 33.0608 10.606 33.393 11.0014C33.4869 11.1636 33.4972 11.2547 33.2929 11.2726C27.431 11.7877 31.5051 13.6763 27.4578 10.2786C26.8632 10.0534 28.2565 11.2533 28.3564 11.3476C28.7374 11.697 29.1066 12.0593 29.4817 12.4152C29.6078 12.5547 29.4222 12.7143 29.3901 12.8841C28.5001 12.2089 27.6262 11.545 26.7504 10.8837C26.665 10.8192 26.6622 10.7505 26.6986 10.6624ZM26.9353 14.0925C26.8209 13.0237 26.5496 12.04 26.6246 10.9415C27.4773 11.6395 28.3076 12.2874 29.2232 12.8892C29.327 12.9583 29.3816 13.0351 29.3491 13.1568C29.1846 13.4802 29.6668 15.1371 29.2842 15.0757C28.7359 14.7772 27.1105 14.6255 26.9353 14.0925ZM14.8658 30.1939C31.4865 26.2819 27.7783 28.4813 27.1412 14.5755C27.6016 14.9233 29.5034 15.1062 29.468 15.558C29.6181 18.8215 30.21 22.0431 30.4773 25.2961C30.6967 27.8374 30.9184 28.6186 28.08 29.0899C23.9466 30.1794 19.7587 31.0666 15.6774 32.3473C14.8288 32.8645 13.9322 31.1071 13.1794 30.63C13.7653 30.4785 14.3152 30.3349 14.8658 30.1939ZM12.9836 30.7013C13.6941 31.2061 14.2333 32.0419 14.9949 32.5481C14.6116 32.6248 14.2911 32.9101 13.9755 32.8169C13.2588 32.2599 12.458 31.7617 11.7856 31.1721C12.1766 30.9937 12.5782 30.8429 12.9836 30.7013ZM11.5068 31.2792C12.3204 31.6563 13.0708 32.4279 13.8474 32.9361C13.3454 33.1905 11.6403 31.768 11.0102 31.5011C11.19 31.4207 11.3482 31.3497 11.5068 31.2792ZM9.07424 34.3169C9.06032 33.8507 11.8388 34.6762 12.3218 34.4587C11.3817 34.0384 10.2352 34.1153 9.21116 34.0037C8.91908 33.9471 9.22232 33.2101 9.2408 32.9777C9.4616 32.2599 10.1996 31.7953 10.8648 31.5892C11.7303 32.0049 12.5001 32.7327 13.4626 33.0773C12.0132 33.5934 12.7366 34.9093 12.1466 34.813C11.2353 34.7451 10.3225 34.7927 9.41048 34.7807C9.00956 34.8198 9.08708 34.6416 9.07424 34.3169ZM9.7202 39.8775C9.53684 38.2786 9.30644 36.6629 9.113 35.071C9.11108 34.9741 9.11144 34.9169 9.2096 34.9362C13.5614 35.2644 12.026 34.1859 12.8245 38.3805C12.8006 38.6427 13.1146 39.2528 12.8833 39.3796C12.3043 39.2452 9.64628 40.3278 9.7202 39.8775ZM9.83828 40.8553C9.87884 40.6452 9.62036 40.2677 9.88328 40.1724C10.4268 40.1722 12.9256 39.2573 13.0555 39.7031C13.0616 39.8253 13.1553 39.9952 13.0015 40.0351C12.463 40.1184 10.033 41.1984 9.83828 40.8553ZM11.1178 48.937C10.5914 46.4003 10.2324 43.8353 9.89768 41.2679C9.87596 41.1263 9.8774 41.0775 10.046 41.0494C11.0649 40.8797 12.0483 40.5779 13.0099 40.2041C13.1007 40.1688 13.145 40.1364 13.1694 40.2804C13.5637 42.6682 13.9899 45.0528 14.6041 47.3959C14.6302 47.4989 14.6185 47.5547 14.5273 47.6238C13.4348 48.4552 12.4446 49.3309 11.379 50.2104C11.2873 49.7641 11.2015 49.3507 11.1178 48.937ZM11.7216 51.6655C11.7098 51.2276 11.2876 50.6729 11.542 50.2943C12.6247 49.482 13.6598 48.6119 14.6746 47.6885C14.7096 48.0276 15.0666 48.4314 14.8822 48.7155C14.2668 49.2687 13.7016 49.8732 13.1144 50.4553C12.8898 50.5696 11.7498 52.1023 11.7216 51.6655ZM14.721 53.377C14.6054 53.3197 14.1304 53.4903 14.2828 53.2481C14.9134 52.1662 15.8496 51.1226 16.2058 49.9458C15.4405 50.876 14.897 52.0153 14.247 53.0399C14.0323 53.4118 14.011 53.4026 13.5187 53.375C12.7957 53.3837 11.8398 52.5682 11.8944 51.9225C12.8928 50.8917 14.0424 50.0095 14.9676 48.9099C15.0642 48.7907 15.0836 48.8449 15.1335 48.9298C15.4712 49.6999 16.2874 49.7611 17.029 49.872C16.3842 50.9333 15.7678 51.9679 15.2191 53.0754C15.1068 53.2996 14.9784 53.4162 14.721 53.377ZM19.7463 52.4703C19.7144 52.6464 19.8217 52.9732 19.5667 53.0108C18.1192 53.2225 16.7227 53.3208 15.2455 53.3416C15.8816 52.2107 16.5036 51.1292 17.1324 50.003C17.1882 49.903 17.2449 49.8655 17.357 49.8691C20.6421 49.8815 19.9224 48.8362 19.7463 52.4703ZM21.04 52.7854C20.8118 52.7552 19.8912 53.1124 19.9143 52.8142C20.0184 51.8429 20.1948 50.8606 20.1346 49.8832C20.0229 49.5932 20.3902 49.6834 20.5581 49.6451C20.8743 49.6181 20.863 49.6186 20.8791 49.9442C20.9216 50.8381 20.972 51.7348 21.1256 52.6182C21.1406 52.6902 21.1454 52.7696 21.04 52.7854ZM33.8167 51.0055C33.4968 50.9682 32.9042 51.3268 32.719 51.0186C32.5063 50.0988 32.4001 49.0819 32.1817 48.2028C31.8376 48.4327 32.39 50.3699 32.4547 50.8475C32.5358 51.1686 32.5237 51.1807 32.1988 51.227C24.646 52.2857 29.7489 51.498 21.3999 52.7261C21.3102 52.7479 21.2794 52.6888 21.2744 52.5622C21.2433 51.7734 21.2048 50.985 21.165 50.1966C21.2037 50.0159 20.9954 49.6448 21.1965 49.5732C25.0826 49.0794 28.9561 48.4895 32.849 48.05C33.1485 48.0078 33.1782 48.0164 33.2702 48.3036C33.5403 49.1466 33.7123 50.0142 33.9133 50.8746C33.9325 50.9578 33.9066 50.9935 33.8167 51.0055ZM39.0979 50.1979C32.7634 50.9881 34.8544 51.9998 33.3373 47.9957C35.7684 47.7304 37.9394 47.3517 38.0353 47.503C38.3654 48.3786 38.7576 49.2274 39.157 50.0729C39.19 50.142 39.1905 50.1834 39.0979 50.1979ZM46.0743 48.8697C43.8692 49.3297 41.6619 49.7902 39.4369 50.1431C39.0433 49.6612 38.8746 48.8936 38.5626 48.3149C38.5363 48.076 37.9669 47.3643 38.3169 47.3097C40.6456 46.9272 42.9865 46.5178 45.23 45.7719C45.4724 45.5425 45.7033 47.4875 45.8895 47.7527C45.8942 48.0174 46.4188 48.8005 46.0743 48.8697ZM46.9309 48.658C46.7774 48.642 46.4362 48.9078 46.3686 48.6689C46.0879 47.7163 45.8085 46.7635 45.5221 45.8128C45.4826 45.6819 45.5583 45.6562 45.643 45.6149C45.9244 45.478 45.9207 45.4778 46.0227 45.7753C46.3334 46.6814 46.619 47.5971 47.0169 48.4708C47.0653 48.5772 47.0529 48.6328 46.9309 48.658ZM50.6072 45.5535C50.4079 47.2219 48.8593 48.1932 47.349 48.5413C47.2243 48.5825 47.1891 48.4959 47.155 48.4068C46.7881 47.4561 46.4331 46.5005 46.064 45.5506C46.0209 45.2811 46.4971 45.1794 46.6144 44.9345C46.6851 44.8551 46.7499 44.852 46.836 44.9068C47.9092 45.528 48.9692 46.3304 50.1008 46.7776C49.0988 46.0505 48.0319 45.4148 46.9554 44.8002C46.8613 44.749 46.8463 44.7078 46.9173 44.623C47.1084 44.5038 47.2687 43.9833 47.4802 44.0561C48.4884 44.5104 49.4968 44.9638 50.5071 45.4129C50.5684 45.4401 50.6265 45.4552 50.6072 45.5535ZM50.8389 43.622C50.7656 43.8815 50.8572 45.3703 50.5096 45.2104C49.5765 44.6976 48.6187 44.2368 47.624 43.8551C47.3866 43.7389 47.8173 43.3511 47.7838 43.1221C47.9682 42.8206 49.1191 43.219 49.5133 43.1808C49.8676 43.3316 50.96 43.0577 50.8389 43.622ZM50.8417 42.4279C50.7822 42.7042 50.989 43.2077 50.7022 43.2044C49.8164 43.0423 48.9181 42.9631 48.0244 42.8614C48.036 37.7183 47.7626 32.0167 46.9724 26.7898C47.0068 26.5042 46.723 26.0051 47.0307 25.854C49.5178 25.4017 49.192 24.2034 49.452 26.9487C49.8819 32.0993 50.6778 37.2653 50.8417 42.4279Z" fill="#3F3756"/>
</svg>
