<svg width="60" height="61" viewBox="0 0 60 61" fill="none" xmlns="http://www.w3.org/2000/svg">
<path d="M57.6234 36.193V36.1742C57.592 32.0329 55.9246 28.0719 52.9848 25.1549C50.0449 22.2379 46.0711 20.6015 41.9297 20.6023H12.5203C12.6334 19.5135 13.1468 18.5055 13.9609 17.7737C14.775 17.0418 15.8319 16.6383 16.9266 16.6414H16.9406L31.9125 16.6977C32.6458 16.6995 33.3723 16.5567 34.0504 16.2775C34.7285 15.9983 35.3448 15.5882 35.8643 15.0705C36.3837 14.5528 36.7959 13.9378 37.0774 13.2607C37.3589 12.5835 37.5041 11.8575 37.5047 11.1242C37.5047 10.9999 37.4553 10.8807 37.3674 10.7928C37.2795 10.7049 37.1602 10.6555 37.0359 10.6555C36.9116 10.6555 36.7924 10.7049 36.7045 10.7928C36.6166 10.8807 36.5672 10.9999 36.5672 11.1242C36.5659 12.3534 36.0771 13.5318 35.208 14.401C34.3388 15.2701 33.1604 15.7589 31.9312 15.7602H31.9172L16.9453 15.7039C15.599 15.699 14.3 16.1996 13.3052 17.1067C12.3104 18.0138 11.6924 19.2613 11.5734 20.6023H6.98436C5.77721 20.6023 4.61951 20.1228 3.76592 19.2692C2.91234 18.4156 2.4328 17.2579 2.4328 16.0508C2.4328 14.8436 2.91234 13.6859 3.76592 12.8323C4.61951 11.9788 5.77721 11.4992 6.98436 11.4992H29.5125C29.9077 11.4992 30.299 11.4214 30.6641 11.2701C31.0292 11.1189 31.361 10.8972 31.6404 10.6178C31.9199 10.3383 32.1416 10.0066 32.2928 9.64148C32.444 9.27637 32.5219 8.88504 32.5219 8.48984C32.5219 8.09465 32.444 7.70332 32.2928 7.33821C32.1416 6.97309 31.9199 6.64134 31.6404 6.36189C31.361 6.08245 31.0292 5.86078 30.6641 5.70954C30.299 5.55831 29.9077 5.48047 29.5125 5.48047H26.9906C26.8663 5.48047 26.7471 5.52985 26.6592 5.61776C26.5712 5.70567 26.5219 5.8249 26.5219 5.94922C26.5219 6.07354 26.5712 6.19277 26.6592 6.28067C26.7471 6.36858 26.8663 6.41797 26.9906 6.41797H29.5125C30.062 6.41797 30.589 6.63625 30.9775 7.02481C31.3661 7.41336 31.5844 7.94035 31.5844 8.48984C31.5844 9.03934 31.3661 9.56633 30.9775 9.95488C30.589 10.3434 30.062 10.5617 29.5125 10.5617H6.98436C5.52857 10.5617 4.13241 11.14 3.10301 12.1694C2.07361 13.1988 1.4953 14.595 1.4953 16.0508C1.4953 17.5066 2.07361 18.9027 3.10301 19.9321C4.13241 20.9615 5.52857 21.5398 6.98436 21.5398H11.5687C11.6884 25.6211 13.3938 29.4951 16.3231 32.3394C19.2523 35.1838 23.1748 36.7746 27.2578 36.7742H37.0219C37.0922 36.7742 37.1672 36.7742 37.2422 36.7789C37.8252 36.8052 38.3972 36.947 38.925 37.1961C39.3793 37.4156 39.7943 37.7086 40.1531 38.0633C40.2516 38.1711 40.3547 38.2742 40.439 38.3867C40.4457 38.3984 40.4536 38.4094 40.4625 38.4195C40.8568 38.8952 41.1445 39.4498 41.3062 40.0461C41.3062 40.0508 41.3062 40.0508 41.3109 40.0555C41.3516 40.2065 41.3829 40.3599 41.4047 40.5148C41.4101 40.5331 41.4132 40.552 41.414 40.5711C41.4281 40.6461 41.4328 40.7164 41.4422 40.7914C41.4562 40.932 41.4609 41.0727 41.4609 41.2133C41.4614 41.5206 41.4284 41.8271 41.3625 42.1273C41.34 42.2478 41.3103 42.3667 41.2734 42.4836C41.199 42.7357 41.1017 42.9804 40.9828 43.2148C40.95 43.2805 40.9172 43.3414 40.8844 43.3977C40.7354 43.6631 40.5578 43.9115 40.3547 44.1383C40.289 44.218 40.214 44.293 40.139 44.368C40.0547 44.4523 39.9703 44.5273 39.8765 44.607C39.8719 44.6117 39.8625 44.6164 39.8578 44.6211C39.764 44.7008 39.6609 44.7758 39.5578 44.8508H39.5531C39.5116 44.8851 39.4678 44.9164 39.4219 44.9445C39.4172 44.9445 39.4125 44.9492 39.4078 44.9539C39.4031 44.9586 39.4031 44.9539 39.3984 44.9633C38.6874 45.4132 37.8633 45.6521 37.0219 45.6523H27.1875L20.2875 38.7523C20.2003 38.6644 20.0818 38.6146 19.958 38.6137C19.8341 38.6128 19.715 38.661 19.6266 38.7477C18.7364 39.6439 18.1806 40.8183 18.0518 42.0748C17.923 43.3314 18.229 44.5942 18.9187 45.6523H17.0062C16.9445 45.6517 16.8833 45.6634 16.8261 45.6867C16.769 45.7101 16.717 45.7446 16.6734 45.7882C16.6297 45.8319 16.5952 45.8838 16.5719 45.941C16.5486 45.9981 16.5369 46.0594 16.5375 46.1211C16.5357 47.3578 16.9515 48.559 17.7176 49.5299C18.4837 50.5008 19.5551 51.1846 20.7584 51.4705C21.9616 51.7564 23.2262 51.6276 24.3471 51.1051C25.468 50.5825 26.3797 49.6968 26.9344 48.5914C27.4941 50.981 28.8444 53.1115 30.7663 54.6378C32.6882 56.1641 35.0692 56.9967 37.5234 57.0008H41.9297C43.9682 57.0042 45.9876 56.6077 47.8734 55.8336L47.9016 55.8195C50.7839 54.6432 53.2495 52.6331 54.9824 50.0467C56.7152 47.4603 57.6365 44.4155 57.6281 41.3023V36.3055C57.629 36.2679 57.6274 36.2303 57.6234 36.193ZM19.5141 25.6508C19.1073 25.6512 18.7096 25.531 18.3712 25.3053C18.0328 25.0797 17.769 24.7587 17.6132 24.383C17.4573 24.0073 17.4164 23.5938 17.4956 23.1949C17.5749 22.7959 17.7707 22.4295 18.0583 22.1419C18.3459 21.8543 18.7123 21.6585 19.1113 21.5792C19.5102 21.5 19.9237 21.5409 20.2994 21.6968C20.6751 21.8526 20.9961 22.1164 21.2217 22.4548C21.4474 22.7932 21.5676 23.1909 21.5672 23.5977C21.5663 24.1419 21.3497 24.6636 20.9649 25.0485C20.58 25.4333 20.0583 25.6499 19.5141 25.6508ZM37.9359 26.5039C38.2333 26.504 38.5239 26.5922 38.7711 26.7575C39.0183 26.9227 39.211 27.1576 39.3248 27.4323C39.4386 27.707 39.4683 28.0093 39.4103 28.301C39.3523 28.5926 39.2092 28.8605 38.9989 29.0708C38.7887 29.2811 38.5208 29.4243 38.2292 29.4824C37.9376 29.5405 37.6353 29.5109 37.3605 29.3972C37.0858 29.2835 36.8509 29.0909 36.6856 28.8437C36.5202 28.5966 36.4319 28.3059 36.4317 28.0086C36.4318 27.6098 36.5902 27.2274 36.8721 26.9453C37.1539 26.6631 37.5362 26.5044 37.935 26.5039H37.9359ZM35.0494 30.6205C34.8361 30.6205 34.6277 30.5572 34.4504 30.4388C34.2731 30.3203 34.1349 30.1519 34.0533 29.9549C33.9717 29.7579 33.9504 29.5411 33.992 29.332C34.0336 29.1229 34.1362 28.9308 34.287 28.78C34.4378 28.6292 34.6299 28.5265 34.839 28.4849C35.0482 28.4433 35.2649 28.4647 35.4619 28.5463C35.6589 28.6279 35.8273 28.7661 35.9458 28.9434C36.0643 29.1207 36.1275 29.3291 36.1275 29.5423C36.1266 29.8281 36.0127 30.1019 35.8106 30.3039C35.6085 30.5059 35.3351 30.6197 35.0494 30.6205ZM38.0597 34.3002C37.6549 34.3002 37.2592 34.1801 36.9227 33.9553C36.5861 33.7304 36.3238 33.4107 36.1689 33.0368C36.014 32.6628 35.9735 32.2513 36.0524 31.8543C36.1314 31.4573 36.3263 31.0927 36.6125 30.8065C36.8988 30.5202 37.2634 30.3253 37.6604 30.2464C38.0574 30.1674 38.4689 30.2079 38.8429 30.3628C39.2168 30.5177 39.5364 30.78 39.7613 31.1166C39.9862 31.4531 40.1062 31.8488 40.1062 32.2536C40.1056 32.7964 39.8897 33.3167 39.5058 33.7004C39.1219 34.0841 38.6015 34.2998 38.0587 34.3002H38.0597ZM39.8437 36.6336C39.6776 36.5282 39.5055 36.4327 39.3281 36.3477C39.2156 36.2961 39.1031 36.2492 38.9906 36.2023C40.6549 34.1399 41.5954 31.5877 41.6674 28.9384C41.7394 26.2892 40.9389 23.6897 39.389 21.5398H40.5187C41.9911 23.8131 42.7173 26.4891 42.5963 29.1947C42.4753 31.9004 41.5131 34.5009 39.8437 36.6336ZM47.5172 54.9617C47.1562 55.1117 46.7953 55.243 46.425 55.3602C44.5969 54.4752 43.002 53.1736 41.7686 51.5599C40.5352 49.9463 39.6977 48.0658 39.3234 46.0695C39.5319 45.9699 39.7339 45.8572 39.9281 45.732C40.0172 45.6758 40.1015 45.6195 40.1812 45.5586C40.5118 47.6322 41.378 49.5836 42.6943 51.2197C44.0105 52.8558 45.7312 54.1198 47.6859 54.8867C47.6297 54.9148 47.5734 54.9383 47.5172 54.9617ZM56.6906 37.4773C54.9019 39.3884 52.5801 40.7176 50.0266 41.2927C47.473 41.8678 44.8055 41.6621 42.3703 40.7023C42.3656 40.6086 42.3515 40.5102 42.3375 40.4164C42.324 40.3059 42.3036 40.1963 42.2766 40.0883C42.2578 39.9945 42.2344 39.8961 42.2109 39.8023C42.1922 39.7273 42.1687 39.657 42.1453 39.582C44.6138 40.7092 47.3898 40.9731 50.0265 40.3311C52.6631 39.6892 55.0071 38.1787 56.6812 36.043C56.6859 36.0945 56.6859 36.1508 56.6859 36.2023C56.6851 36.2368 56.6867 36.2712 56.6906 36.3055V37.4773Z" fill="black"/>
<path d="M19.5141 22.8384C19.3643 22.8379 19.2178 22.8819 19.0931 22.9647C18.9683 23.0475 18.871 23.1654 18.8132 23.3035C18.7555 23.4417 18.74 23.5939 18.7688 23.7408C18.7975 23.8877 18.8692 24.0229 18.9748 24.1291C19.0803 24.2353 19.215 24.3078 19.3617 24.3374C19.5085 24.3671 19.6608 24.3526 19.7993 24.2957C19.9378 24.2388 20.0563 24.1422 20.1399 24.0179C20.2234 23.8937 20.2683 23.7475 20.2688 23.5978C20.2688 23.3972 20.1894 23.2047 20.048 23.0624C19.9066 22.9202 19.7147 22.8396 19.5141 22.8384Z" fill="black"/>
</svg>
