<svg width="60" height="61" viewBox="0 0 60 61" fill="none" xmlns="http://www.w3.org/2000/svg">
<g clip-path="url(#clip0_19_18548)">
<path d="M59.5764 40.3928L49.5772 25.3938C48.2051 23.3359 44.9973 24.3072 44.9973 26.7805V31.7802H42.4975V26.7805C42.4975 25.3999 41.3784 24.2807 39.9978 24.2807H37.4979V14.2815C37.4979 12.9009 36.3787 11.7817 34.9981 11.7817C33.6175 11.7817 32.4983 12.9009 32.4983 14.2815V24.2807H27.4986V9.2818H29.9984C31.379 9.2818 32.4982 8.16262 32.4982 6.78201C32.4982 5.40141 31.379 4.28223 29.9984 4.28223H24.9987H7.49996H2.50027C1.11967 4.28211 0.000488281 5.40129 0.000488281 6.78189C0.000488281 8.1625 1.11967 9.28168 2.50027 9.28168H5.00006V24.2806C3.61945 24.2806 2.50027 25.3998 2.50027 26.7804V43.6897C0.966397 45.0628 0.000488281 47.0575 0.000488281 49.2789C0.000488281 53.4218 3.35709 56.7784 7.49996 56.7784C10.766 56.7784 13.542 54.6917 14.5713 51.7787H15.4276C16.4569 54.6916 19.2329 56.7784 22.4989 56.7784C25.7649 56.7784 28.5409 54.6917 29.5702 51.7787H30.4266C31.4559 54.6916 34.2318 56.7784 37.4979 56.7784C41.6407 56.7784 44.9973 53.4218 44.9973 49.2789C44.9973 47.0575 44.0314 45.0628 42.4975 43.6898V36.7798H44.9973V41.7795C44.9973 43.1601 46.1165 44.2793 47.4971 44.2793H57.4964C59.4931 44.2793 60.684 42.054 59.5764 40.3928ZM9.99975 9.2818H22.4989V24.2807H9.99975V9.2818ZM7.49996 51.7787C6.1183 51.7787 5.00018 50.6606 5.00018 49.2789C5.00018 48.4313 5.42202 47.6843 6.06639 47.2323C6.12931 47.2023 6.19201 47.1703 6.25388 47.1344C6.59592 46.9362 6.94734 46.8209 7.30099 46.7891C7.36685 46.784 7.43282 46.779 7.50008 46.779C8.88174 46.779 9.99986 47.8972 9.99986 49.2788C9.99986 50.6605 8.88162 51.7787 7.49996 51.7787ZM22.4989 51.7787C21.1172 51.7787 19.9991 50.6606 19.9991 49.2789C19.9991 47.8973 21.1172 46.7792 22.4989 46.7792C23.8806 46.7792 24.9987 47.8973 24.9987 49.2789C24.9987 50.6606 23.8806 51.7787 22.4989 51.7787ZM37.4979 51.7787C36.1162 51.7787 34.9981 50.6606 34.9981 49.2789C34.9981 47.8973 36.1162 46.7792 37.4979 46.7792C37.5651 46.7792 37.6311 46.784 37.6969 46.7892C38.0506 46.821 38.402 46.9363 38.7441 47.1346C38.8059 47.1704 38.8686 47.2024 38.9315 47.2324C39.5759 47.6844 39.9978 48.4314 39.9978 49.2791C39.9976 50.6606 38.8795 51.7787 37.4979 51.7787ZM37.1461 41.7884C37.11 41.79 37.0741 41.7927 37.0382 41.7948C36.9561 41.7997 36.8745 41.8058 36.7931 41.8135C36.7539 41.8171 36.7147 41.821 36.6756 41.8252C36.5918 41.8343 36.5086 41.845 36.4258 41.8569C36.3943 41.8615 36.3625 41.8654 36.331 41.8702C36.2183 41.8877 36.1063 41.9075 35.9954 41.93C35.9765 41.9339 35.9579 41.9386 35.939 41.9426C35.8466 41.9622 35.7548 41.9832 35.6636 42.0061C35.6278 42.0151 35.5923 42.0248 35.5567 42.0343C35.4808 42.0546 35.4054 42.0759 35.3305 42.0985C35.2946 42.1093 35.2588 42.1201 35.2232 42.1315C35.1402 42.1578 35.0579 42.1858 34.9762 42.215C34.9524 42.2236 34.9281 42.2313 34.9044 42.2401C34.8003 42.2785 34.6973 42.3192 34.5953 42.362C34.5698 42.3728 34.5447 42.3843 34.5193 42.3954C34.4423 42.4288 34.3658 42.4631 34.2902 42.499C34.2564 42.515 34.2229 42.5314 34.1894 42.5479C34.1202 42.582 34.0517 42.6172 33.9836 42.6533C33.9524 42.6699 33.921 42.6863 33.8899 42.7033C33.8054 42.7497 33.722 42.7976 33.6395 42.8472C33.6275 42.8544 33.6153 42.861 33.6035 42.8682C33.5098 42.9252 33.4178 42.9847 33.3267 43.0456C33.3003 43.0634 33.2744 43.0819 33.2481 43.1C33.183 43.1448 33.1185 43.1904 33.055 43.2373C33.025 43.2593 32.9952 43.2817 32.9656 43.3042C32.9034 43.3515 32.842 43.3998 32.7813 43.449C32.7557 43.4697 32.7301 43.4899 32.7048 43.5109C32.6209 43.5808 32.5381 43.6519 32.4573 43.7252C32.4508 43.7311 32.4447 43.7372 32.4384 43.743C32.3641 43.811 32.2913 43.8806 32.2197 43.9515C32.1951 43.9759 32.1711 44.0008 32.1469 44.0256C32.0932 44.0803 32.0402 44.1356 31.9882 44.192C31.9631 44.2191 31.938 44.2463 31.9133 44.274C31.859 44.3347 31.8058 44.3963 31.7533 44.4588C31.7347 44.4808 31.7158 44.5024 31.6976 44.5246C31.6283 44.609 31.5608 44.6948 31.4952 44.7821C31.482 44.7996 31.4696 44.8178 31.4566 44.8355C31.4044 44.9063 31.3533 44.978 31.3036 45.0506C31.2833 45.0805 31.2633 45.1108 31.2433 45.141C31.201 45.2047 31.1597 45.2692 31.1193 45.3343C31.1002 45.3652 31.081 45.3959 31.0624 45.427C31.0168 45.503 30.9727 45.5798 30.9298 45.6575C30.9193 45.6766 30.908 45.6954 30.8976 45.7147C30.8454 45.8114 30.7953 45.9093 30.7472 46.0086C30.7344 46.0348 30.7225 46.0617 30.71 46.0882C30.675 46.1626 30.641 46.2374 30.6083 46.3131C30.5934 46.3476 30.579 46.3823 30.5646 46.4171C30.5348 46.4891 30.5062 46.5618 30.4787 46.6349C30.4663 46.6678 30.4535 46.7006 30.4416 46.7338C30.436 46.7492 30.4298 46.7642 30.4244 46.7795H29.5715C29.5661 46.7642 29.5599 46.7492 29.5544 46.7338C29.5424 46.7006 29.5297 46.6678 29.5172 46.6349C29.4897 46.5618 29.4611 46.4891 29.4313 46.4171C29.4169 46.3823 29.4025 46.3476 29.3876 46.3131C29.3551 46.2374 29.321 46.1626 29.2859 46.0882C29.2735 46.0617 29.2616 46.0348 29.2488 46.0086C29.2006 45.9095 29.1506 45.8114 29.0983 45.7147C29.0879 45.6955 29.0768 45.6767 29.0661 45.6575C29.0232 45.5798 28.9792 45.503 28.9336 45.427C28.9149 45.3959 28.8957 45.3652 28.8766 45.3343C28.8363 45.2692 28.7949 45.2047 28.7526 45.141C28.7326 45.1108 28.7127 45.0805 28.6923 45.0506C28.6426 44.978 28.5915 44.9063 28.5394 44.8355C28.5264 44.8178 28.5138 44.7996 28.5007 44.7821C28.4352 44.6947 28.3676 44.6089 28.2983 44.5246C28.2801 44.5024 28.2611 44.4808 28.2427 44.4588C28.1903 44.3963 28.1371 44.3347 28.0826 44.274C28.0579 44.2464 28.0329 44.2191 28.0077 44.192C27.9557 44.1357 27.9029 44.0803 27.8491 44.0256C27.8248 44.0008 27.8008 43.9759 27.7762 43.9515C27.7047 43.8806 27.6319 43.811 27.5575 43.743C27.5511 43.7372 27.545 43.7311 27.5387 43.7252C27.4579 43.6519 27.3751 43.5808 27.2912 43.5109C27.266 43.4899 27.2402 43.4697 27.2147 43.449C27.154 43.3998 27.0927 43.3515 27.0303 43.3042C27.0007 43.2817 26.9709 43.2593 26.9409 43.2373C26.8773 43.1904 26.8129 43.1448 26.7478 43.1C26.7216 43.0819 26.6957 43.0634 26.6692 43.0456C26.5783 42.9847 26.4862 42.9252 26.3924 42.8682C26.3806 42.8609 26.3683 42.8544 26.3564 42.8472C26.2741 42.7976 26.1905 42.7497 26.106 42.7033C26.075 42.6862 26.0436 42.6699 26.0123 42.6533C25.9443 42.6172 25.8758 42.582 25.8065 42.5479C25.773 42.5314 25.7395 42.515 25.7058 42.499C25.6301 42.4631 25.5537 42.4288 25.4767 42.3954C25.4512 42.3843 25.4262 42.3728 25.4006 42.362C25.2987 42.3192 25.1957 42.2785 25.0915 42.2401C25.0677 42.2313 25.0436 42.2236 25.0198 42.215C24.9381 42.1858 24.8558 42.1578 24.7728 42.1315C24.7371 42.1201 24.7013 42.1094 24.6654 42.0985C24.5906 42.0759 24.5152 42.0546 24.4393 42.0343C24.4037 42.0248 24.3681 42.0151 24.3323 42.0061C24.2411 41.9832 24.1494 41.9622 24.0569 41.9426C24.0381 41.9386 24.0194 41.9339 24.0006 41.93C23.8896 41.9075 23.7777 41.8877 23.665 41.8702C23.6336 41.8652 23.6018 41.8614 23.5702 41.8569C23.4873 41.8451 23.4041 41.8343 23.3203 41.8252C23.2813 41.821 23.2421 41.8171 23.2028 41.8135C23.1215 41.8058 23.0398 41.7997 22.9578 41.7948C22.9218 41.7926 22.8859 41.79 22.8499 41.7884C22.7331 41.783 22.6161 41.7795 22.4981 41.7795C22.3801 41.7795 22.2629 41.783 22.1463 41.7884C22.1102 41.79 22.0744 41.7927 22.0384 41.7948C21.9564 41.7997 21.8747 41.8058 21.7934 41.8135C21.7541 41.8171 21.715 41.821 21.6758 41.8252C21.5921 41.8343 21.5089 41.845 21.426 41.8569C21.3945 41.8615 21.3627 41.8654 21.3312 41.8702C21.2185 41.8877 21.1066 41.9075 20.9956 41.93C20.9767 41.9339 20.9581 41.9386 20.9393 41.9426C20.8468 41.9622 20.755 41.9832 20.6639 42.0061C20.628 42.0151 20.5925 42.0248 20.5569 42.0343C20.4811 42.0546 20.4056 42.0759 20.3307 42.0985C20.2949 42.1093 20.259 42.1201 20.2234 42.1315C20.1404 42.1578 20.0582 42.1858 19.9764 42.215C19.9526 42.2236 19.9283 42.2313 19.9047 42.2401C19.8005 42.2785 19.6975 42.3192 19.5956 42.362C19.57 42.3728 19.5449 42.3843 19.5195 42.3954C19.4425 42.4288 19.366 42.4631 19.2904 42.499C19.2567 42.515 19.2232 42.5314 19.1896 42.5479C19.1204 42.582 19.052 42.6172 18.9839 42.6533C18.9526 42.6699 18.9212 42.6863 18.8901 42.7033C18.8057 42.7497 18.7222 42.7976 18.6397 42.8472C18.6278 42.8544 18.6156 42.861 18.6038 42.8682C18.51 42.9252 18.418 42.9847 18.327 43.0456C18.3005 43.0634 18.2746 43.0819 18.2483 43.1C18.1832 43.1448 18.1187 43.1904 18.0552 43.2373C18.0252 43.2593 17.9955 43.2817 17.9658 43.3042C17.9036 43.3515 17.8422 43.3998 17.7815 43.449C17.756 43.4697 17.7303 43.4899 17.705 43.5109C17.6211 43.5808 17.5384 43.6519 17.4575 43.7252C17.4511 43.7311 17.445 43.7372 17.4386 43.743C17.3643 43.811 17.2916 43.8806 17.22 43.9515C17.1954 43.9759 17.1714 44.0008 17.1471 44.0256C17.0934 44.0803 17.0405 44.1356 16.9884 44.192C16.9634 44.2191 16.9383 44.2463 16.9136 44.274C16.8592 44.3347 16.806 44.3963 16.7535 44.4588C16.735 44.4808 16.716 44.5024 16.6978 44.5246C16.6286 44.609 16.5611 44.6948 16.4955 44.7821C16.4822 44.7996 16.4698 44.8178 16.4568 44.8355C16.4046 44.9063 16.3536 44.978 16.3039 45.0506C16.2835 45.0805 16.2636 45.1108 16.2435 45.141C16.2012 45.2047 16.16 45.2692 16.1196 45.3343C16.1005 45.3652 16.0812 45.3959 16.0626 45.427C16.017 45.503 15.973 45.5798 15.9301 45.6575C15.9195 45.6766 15.9083 45.6954 15.8978 45.7147C15.8456 45.8114 15.7955 45.9093 15.7474 46.0086C15.7346 46.0348 15.7228 46.0617 15.7102 46.0882C15.6752 46.1626 15.6412 46.2374 15.6085 46.3131C15.5936 46.3476 15.5792 46.3823 15.5648 46.4171C15.5351 46.4891 15.5065 46.5618 15.4789 46.6349C15.4665 46.6678 15.4537 46.7006 15.4418 46.7338C15.4363 46.7492 15.4301 46.7642 15.4247 46.7795H14.5717C14.5663 46.7642 14.5601 46.7492 14.5546 46.7338C14.5427 46.7006 14.5299 46.6678 14.5175 46.6349C14.4899 46.5618 14.4613 46.4891 14.4316 46.4171C14.4172 46.3823 14.4028 46.3476 14.3879 46.3131C14.3553 46.2374 14.3212 46.1626 14.2862 46.0882C14.2737 46.0617 14.2618 46.0348 14.249 46.0086C14.2009 45.9095 14.1508 45.8114 14.0986 45.7147C14.0881 45.6955 14.077 45.6767 14.0663 45.6575C14.0234 45.5798 13.9794 45.503 13.9338 45.427C13.9152 45.3959 13.896 45.3652 13.8769 45.3343C13.8365 45.2692 13.7952 45.2047 13.7529 45.141C13.7328 45.1108 13.7129 45.0805 13.6925 45.0506C13.6428 44.978 13.5918 44.9063 13.5396 44.8355C13.5266 44.8178 13.5141 44.7996 13.5009 44.7821C13.4354 44.6947 13.3678 44.6089 13.2986 44.5246C13.2803 44.5024 13.2613 44.4808 13.2429 44.4588C13.1905 44.3963 13.1373 44.3347 13.0828 44.274C13.0581 44.2464 13.0332 44.2191 13.008 44.192C12.9559 44.1357 12.9031 44.0803 12.8493 44.0256C12.8251 44.0008 12.801 43.9759 12.7764 43.9515C12.7049 43.8806 12.6322 43.811 12.5578 43.743C12.5513 43.7372 12.5452 43.7311 12.5389 43.7252C12.4582 43.6519 12.3753 43.5808 12.2914 43.5109C12.2662 43.4899 12.2404 43.4697 12.2149 43.449C12.1542 43.3998 12.0929 43.3515 12.0306 43.3042C12.0009 43.2817 11.9712 43.2593 11.9412 43.2373C11.8775 43.1904 11.8131 43.1448 11.7481 43.1C11.7218 43.0819 11.6959 43.0634 11.6694 43.0456C11.5785 42.9847 11.4864 42.9252 11.3927 42.8682C11.3808 42.8609 11.3685 42.8544 11.3567 42.8472C11.2743 42.7976 11.1908 42.7497 11.1063 42.7033C11.0752 42.6862 11.0438 42.6699 11.0125 42.6533C10.9446 42.6172 10.876 42.582 10.8068 42.5479C10.7732 42.5314 10.7397 42.515 10.706 42.499C10.6303 42.4631 10.5539 42.4288 10.4769 42.3954C10.4515 42.3843 10.4264 42.3728 10.4009 42.362C10.2989 42.3192 10.1959 42.2785 10.0917 42.2401C10.0679 42.2313 10.0438 42.2236 10.02 42.215C9.93834 42.1858 9.85608 42.1578 9.773 42.1315C9.73738 42.1201 9.70153 42.1094 9.66567 42.0985C9.59079 42.0759 9.51544 42.0546 9.43951 42.0343C9.40389 42.0248 9.36838 42.0151 9.33253 42.0061C9.24136 41.9832 9.14961 41.9622 9.05716 41.9426C9.03829 41.9386 9.01966 41.9339 9.00079 41.93C8.88982 41.9075 8.77792 41.8877 8.66519 41.8702C8.63379 41.8652 8.60203 41.8614 8.57039 41.8569C8.48755 41.8451 8.40435 41.8343 8.32057 41.8252C8.28155 41.821 8.24229 41.8171 8.20304 41.8135C8.12171 41.8058 8.04004 41.7997 7.95801 41.7948C7.92204 41.7926 7.88618 41.79 7.85009 41.7884C7.73338 41.783 7.61632 41.7795 7.49832 41.7795V29.2803H24.9971H37.4979V41.7795C37.3799 41.7795 37.2627 41.783 37.1461 41.7884ZM49.997 39.2797V35.037L52.8255 39.2797H49.997Z" fill="black"/>
<path d="M29.9985 34.2798H14.9995C13.6189 34.2798 12.4998 35.399 12.4998 36.7796C12.4998 38.1602 13.6189 39.2794 14.9995 39.2794H29.9985C31.3791 39.2794 32.4983 38.1602 32.4983 36.7796C32.4983 35.399 31.3791 34.2798 29.9985 34.2798Z" fill="black"/>
</g>
<defs>
<clipPath id="clip0_19_18548">
<rect width="60" height="60" fill="white" transform="translate(0.000488281 0.530273)"/>
</clipPath>
</defs>
</svg>
