<svg width="60" height="60" viewBox="0 0 60 60" fill="none" xmlns="http://www.w3.org/2000/svg">
<path d="M26.3719 16.4438C25.3313 16.4438 24.4781 15.5906 24.4781 14.55C24.4781 13.5094 25.3313 12.6562 26.3719 12.6562C27.4125 12.6562 28.2656 13.5094 28.2656 14.55C28.2656 15.5906 27.4125 16.4438 26.3719 16.4438ZM26.3719 13.5938C25.8469 13.5938 25.4156 14.025 25.4156 14.55C25.4156 15.075 25.8469 15.5063 26.3719 15.5063C26.8969 15.5063 27.3281 15.075 27.3281 14.55C27.3281 14.025 26.8969 13.5938 26.3719 13.5938Z" fill="black"/>
<path d="M33.6375 16.4438C32.5969 16.4438 31.7438 15.5906 31.7438 14.55C31.7438 13.5094 32.5969 12.6562 33.6375 12.6562C34.6781 12.6562 35.5313 13.5094 35.5313 14.55C35.5313 15.5906 34.6781 16.4438 33.6375 16.4438ZM33.6375 13.5938C33.1125 13.5938 32.6813 14.025 32.6813 14.55C32.6813 15.075 33.1125 15.5063 33.6375 15.5063C34.1625 15.5063 34.5938 15.075 34.5938 14.55C34.5938 14.025 34.1625 13.5938 33.6375 13.5938Z" fill="black"/>
<path d="M23.4375 13.1251C23.325 13.1251 23.2125 13.0876 23.1188 13.0032C22.9219 12.8251 22.9125 12.5344 23.0907 12.3376C23.1657 12.2626 24.825 10.4438 27.1594 10.7063C27.4125 10.7344 27.6 10.9688 27.5719 11.2219C27.5438 11.4751 27.3188 11.6626 27.0563 11.6344C25.2094 11.4282 23.7938 12.9563 23.7844 12.9657C23.6907 13.0688 23.5688 13.1251 23.4375 13.1251Z" fill="black"/>
<path d="M36.4687 13.125C36.3375 13.125 36.2156 13.0782 36.1218 12.975C36.1031 12.9563 34.6875 11.4375 32.85 11.6438C32.5781 11.6719 32.3625 11.4844 32.3343 11.2313C32.3062 10.9782 32.4937 10.7438 32.7468 10.7157C35.0718 10.4625 36.75 12.2719 36.8156 12.3469C36.9937 12.5344 36.975 12.8344 36.7875 13.0125C36.6937 13.0875 36.5812 13.125 36.4687 13.125Z" fill="black"/>
<path d="M30.15 22.4157C28.1906 22.4157 26.6625 21.5626 25.725 20.8407C25.4437 20.6814 25.2 20.3626 25.1062 19.9876C25.0125 19.6126 25.0687 19.2282 25.2656 18.9001C25.6687 18.2439 26.5406 18.0282 27.2062 18.4126C27.2156 18.422 27.225 18.422 27.2344 18.4314C28.2844 19.1439 29.2594 19.4345 30.15 19.322C30.7687 19.2376 31.3312 18.9564 31.8656 18.6939C32.6156 18.3189 33.3937 17.9345 34.1437 18.3189C34.6312 18.572 34.8187 18.9095 34.9031 19.1532C35.1 19.7626 34.7531 20.3064 34.6219 20.5126C33.9375 21.5907 32.1 22.397 30.2531 22.4251C30.2062 22.4157 30.1781 22.4157 30.15 22.4157ZM26.4844 19.1532C26.3156 19.1532 26.1562 19.2376 26.0625 19.3782C25.9969 19.4907 25.9781 19.622 26.0156 19.7439C26.0531 19.8751 26.1281 19.9876 26.25 20.0532C27.1406 20.7282 28.5 21.5345 30.2344 21.4689C31.9125 21.4501 33.375 20.7001 33.825 19.997C33.9 19.8845 34.0687 19.6126 34.0031 19.4157C33.9844 19.3595 33.9187 19.2376 33.7125 19.1345C33.4031 18.9751 32.9625 19.172 32.2875 19.5095C31.7062 19.8001 31.0594 20.1282 30.2812 20.2314C29.175 20.3814 27.975 20.0345 26.7375 19.2001C26.6437 19.172 26.5594 19.1532 26.4844 19.1532Z" fill="black"/>
<path d="M30 29.9439C28.7906 29.9439 27.8063 28.9595 27.8063 27.7501C27.8063 26.5408 28.7906 25.5564 30 25.5564C31.2094 25.5564 32.1938 26.5408 32.1938 27.7501C32.1938 28.9595 31.2094 29.9439 30 29.9439ZM30 26.4845C29.3063 26.4845 28.7438 27.047 28.7438 27.7408C28.7438 28.4345 29.3063 28.997 30 28.997C30.6938 28.997 31.2563 28.4345 31.2563 27.7408C31.2563 27.047 30.6938 26.4845 30 26.4845Z" fill="black"/>
<path d="M30 35.9813C28.7906 35.9813 27.8063 34.9969 27.8063 33.7875C27.8063 32.5781 28.7906 31.5938 30 31.5938C31.2094 31.5938 32.1938 32.5781 32.1938 33.7875C32.1938 34.9969 31.2094 35.9813 30 35.9813ZM30 32.5219C29.3063 32.5219 28.7438 33.0844 28.7438 33.7781C28.7438 34.4719 29.3063 35.0344 30 35.0344C30.6938 35.0344 31.2563 34.4719 31.2563 33.7781C31.2563 33.0844 30.6938 32.5219 30 32.5219Z" fill="black"/>
<path d="M30 42.0096C28.7906 42.0096 27.8063 41.0252 27.8063 39.8158C27.8063 38.6064 28.7906 37.6221 30 37.6221C31.2094 37.6221 32.1938 38.6064 32.1938 39.8158C32.1938 41.0252 31.2094 42.0096 30 42.0096ZM30 38.5596C29.3063 38.5596 28.7438 39.1221 28.7438 39.8158C28.7438 40.5096 29.3063 41.0721 30 41.0721C30.6938 41.0721 31.2563 40.5096 31.2563 39.8158C31.2563 39.1221 30.6938 38.5596 30 38.5596Z" fill="black"/>
<path d="M47.3813 27.5345L38.5125 25.1064C38.3906 25.0689 38.2688 25.0501 38.1469 25.022C41.1844 22.6314 42.9563 18.9939 42.9563 15.0564C42.9563 11.447 41.4094 7.99699 38.7188 5.58761C35.9906 3.14074 32.4563 2.01574 28.7813 2.41886C23.0625 3.05636 18.375 7.66886 17.6344 13.3689C17.0625 17.8501 18.7875 22.1251 22.1813 24.8907C21.9469 24.9189 21.7031 24.9657 21.4688 25.022L12.6 27.4501C10.5094 28.0314 9.04688 29.9532 9.04688 32.1189C9.04688 32.5501 9.10313 32.972 9.21563 33.3845C9.55313 34.622 10.3594 35.6626 11.4844 36.3001C12.6094 36.9376 13.9125 37.1064 15.15 36.7689L18.5344 35.8407C19.0781 35.6907 19.65 35.8032 20.1 36.1501C20.55 36.497 20.8031 37.0126 20.8031 37.5751V38.372C20.8031 38.8782 20.6438 39.3845 20.3156 39.8907C20.3063 39.9001 20.2969 39.9095 20.2875 39.9282L14.8313 48.2251C13.1438 50.7939 13.8656 54.2532 16.425 55.9314L17.0813 56.3626C19.6406 58.0407 23.1 57.3189 24.7781 54.7595L28.9406 48.4126C29.1188 48.0189 29.5031 47.7564 29.925 47.7376C30.375 47.7376 30.8063 47.9814 31.0313 48.4595L35.1844 54.7595C36.2531 56.3907 38.0344 57.272 39.8531 57.272C40.9031 57.272 41.9625 56.9814 42.9 56.3626L43.5469 55.9314C44.7844 55.1157 45.6375 53.8595 45.9375 52.397C46.2375 50.9345 45.9563 49.4532 45.1406 48.2251C41.9438 43.3314 39.8719 40.172 39.3844 39.5064C39.3094 39.4032 39.1125 39.1314 38.9813 38.7282C38.8969 38.447 38.85 38.1376 38.85 37.8095V37.5564C38.85 36.9939 39.1031 36.4689 39.5531 36.1314C40.0031 35.7939 40.575 35.6814 41.1094 35.822L44.8219 36.8439C46.0594 37.1814 47.3625 37.022 48.4875 36.3751C49.6125 35.7376 50.4188 34.697 50.7563 33.4595C50.8688 33.0564 50.925 32.6345 50.925 32.2032C50.9438 30.0282 49.4813 28.097 47.3813 27.5345ZM49.875 33.2251C49.3031 35.297 47.1656 36.5251 45.0937 35.9532L41.3813 34.9314C40.5563 34.7064 39.6844 34.8751 39 35.4001C38.3156 35.9251 37.9219 36.7126 37.9219 37.5751V37.8282C37.9219 38.2407 37.9781 38.6439 38.1 39.0189C38.2688 39.572 38.55 39.9564 38.6531 40.0876C39.1125 40.7157 41.175 43.8657 44.3719 48.7501C45.0469 49.772 45.2813 51.0095 45.0375 52.2189C44.7844 53.4376 44.0813 54.4782 43.0406 55.1626L42.3938 55.5939C41.3625 56.2689 40.125 56.5032 38.9156 56.2501C37.6969 55.997 36.6563 55.2939 35.9813 54.2626L31.8656 48.0189C31.5094 47.2501 30.7219 46.772 29.8969 46.8095C29.1281 46.847 28.4156 47.3251 28.1344 47.9814L24.0094 54.2626C22.6125 56.4001 19.7344 57.0001 17.6063 55.6032L16.95 55.172C15.9188 54.497 15.2156 53.4564 14.9625 52.2376C14.7094 51.0189 14.9438 49.7907 15.6188 48.7595L21.0563 40.4907C21.0656 40.4814 21.075 40.4626 21.0844 40.4532C21.525 39.7876 21.7406 39.0939 21.7406 38.4001V37.6032C21.7406 36.7407 21.3469 35.9532 20.6625 35.4282C19.9781 34.9032 19.1156 34.7345 18.2813 34.9595L14.8969 35.8876C12.8344 36.4595 10.6781 35.2314 10.1156 33.1595C10.0219 32.822 9.98438 32.4939 9.98438 32.1376C9.98438 30.3845 11.1656 28.8376 12.8438 28.3689L13.6594 28.1439L15.15 33.9001C15.2063 34.1157 15.3938 34.2564 15.6 34.2564C15.6375 34.2564 15.675 34.2564 15.7219 34.2376C15.975 34.172 16.125 33.9189 16.0594 33.6657L14.5688 27.8907L15.2344 27.7126L16.7625 33.6189C16.8188 33.8345 17.0063 33.9751 17.2125 33.9751C17.25 33.9751 17.2875 33.9751 17.3344 33.9564C17.5875 33.8907 17.7375 33.6376 17.6719 33.3845L16.1438 27.4689L21.7125 25.9407C22.3594 25.772 23.0344 25.7626 23.6719 25.922C23.8969 25.9782 24.1313 25.8657 24.2156 25.6501C24.3094 25.4345 24.225 25.1907 24.0281 25.0689C20.0531 22.6032 17.9531 18.1689 18.5531 13.5001C19.2375 8.22199 23.5781 3.95636 28.875 3.35636C32.2875 2.98136 35.55 4.02199 38.0813 6.29074C40.575 8.52199 42 11.7189 42 15.0657C42 19.1626 39.9281 22.8939 36.4594 25.0595C36.2719 25.1814 36.1875 25.4064 36.2625 25.6126C36.3375 25.8189 36.5438 25.9501 36.7688 25.9126C37.2563 25.847 37.7531 25.8845 38.2406 26.0157L42.6938 27.2345L41.1469 33.2439C41.0813 33.497 41.2313 33.7501 41.4844 33.8157C41.5219 33.8251 41.5594 33.8345 41.6063 33.8345C41.8125 33.8345 42.0094 33.6939 42.0563 33.4782L43.6031 27.4876L44.2688 27.6657L42.7594 33.5251C42.6938 33.7782 42.8438 34.0314 43.0969 34.097C43.1344 34.1064 43.1719 34.1157 43.2187 34.1157C43.425 34.1157 43.6219 33.9751 43.6688 33.7595L45.1781 27.9095L47.1188 28.4439C48.8063 28.9032 49.9875 30.4501 49.9875 32.222C50.0063 32.5595 49.9594 32.897 49.875 33.2251Z" fill="black"/>
</svg>
