<svg width="60" height="60" viewBox="0 0 60 60" fill="none" xmlns="http://www.w3.org/2000/svg">
<path d="M14.5534 29.43C15.6299 28.0507 16.2714 26.3151 16.2714 24.4298C16.2714 22.4109 15.536 20.5644 14.3187 19.1423C15.0791 18.1469 15.5318 16.9037 15.5318 15.5544C15.5318 12.2866 12.8827 9.63745 9.61488 9.63745C6.34711 9.63745 3.69797 12.2866 3.69797 15.5544C3.69797 16.2071 3.80531 16.8349 4.0009 17.4222C1.60617 18.8382 0 21.4463 0 24.4298C0 28.68 3.25934 32.1684 7.41516 32.5332C7.40309 32.6659 7.39605 32.7994 7.39605 32.9353C7.39605 35.386 9.38285 37.3728 11.8339 37.3728C14.2847 37.3728 16.2715 35.386 16.2715 32.9353C16.2715 31.5094 15.5984 30.2419 14.5534 29.43Z" fill="#AEADAD"/>
<path d="M52.5873 32.5331C52.5946 32.6637 52.6018 32.8016 52.6018 32.9324C52.6018 35.3863 50.6198 37.3756 48.1658 37.3756C47.8028 37.3756 47.4543 37.3321 47.1204 37.2449C45.3416 36.8166 43.984 35.3209 43.7661 33.4696C43.7443 33.2954 43.7298 33.1138 43.7298 32.9323C43.7298 32.7435 43.7443 32.5547 43.7661 32.3732C43.7734 32.3296 43.7734 32.286 43.7807 32.2424C43.9622 31.1025 44.5793 30.1079 45.4506 29.4327C44.7172 28.5034 44.1946 27.4072 43.9259 26.2165C43.8315 25.8099 43.7734 25.3816 43.7443 24.9533C43.7371 24.779 43.7298 24.6047 43.7298 24.4305C43.7298 23.0147 44.0928 21.6789 44.7316 20.5245H44.7389C44.7389 20.5172 44.7389 20.5172 44.7389 20.51C44.8914 20.2341 45.0584 19.9655 45.2399 19.7113C45.3778 19.5154 45.523 19.3266 45.6827 19.1451C44.993 18.2376 44.5574 17.1268 44.4847 15.9215C44.4775 15.7981 44.4702 15.6747 44.4702 15.5512C44.4702 15.1809 44.5065 14.8179 44.5718 14.4694C44.9711 12.2841 46.5756 10.5271 48.6666 9.89548C49.2111 9.72122 49.7846 9.63403 50.3872 9.63403C51.3311 9.63403 52.224 9.85188 53.0154 10.2513C54.1698 10.8248 55.1136 11.7686 55.6871 12.923C56.0864 13.7144 56.3043 14.6075 56.3043 15.5512C56.3043 16.2046 56.1954 16.8363 55.9993 17.4243C58.3955 18.8403 60 21.4467 60 24.4306C60 28.6778 56.7402 32.1701 52.5873 32.5331Z" fill="#A8A2A2"/>
<path d="M52.5582 22.5577C52.5582 23.2618 52.5292 23.9589 52.4639 24.6486C52.0792 28.7943 50.5763 32.6203 48.2603 35.8076C48.0424 36.1052 47.8173 36.403 47.5778 36.6933C47.4326 36.8821 47.2801 37.0636 47.1204 37.2451C46.4815 37.9929 45.7845 38.7045 45.0512 39.3579C44.9423 39.4523 44.8406 39.5466 44.7318 39.641C44.5066 39.8371 44.2744 40.0259 44.0421 40.2146C43.7952 40.4106 43.5484 40.5994 43.2942 40.7809C42.982 41.0132 42.6698 41.231 42.3431 41.4416C42.1253 41.5795 41.9075 41.7175 41.6897 41.8554C41.5807 41.9207 41.4646 41.9862 41.3484 42.0514C41.1452 42.1676 40.9492 42.2837 40.7386 42.3927C39.7657 42.93 38.7421 43.3873 37.6821 43.7648C37.4135 43.8664 37.1375 43.9609 36.8617 44.048C36.6076 44.1278 36.3534 44.2078 36.0921 44.2802C35.9831 44.3093 35.8744 44.3456 35.7581 44.3674C35.4605 44.4472 35.1483 44.5271 34.8434 44.5924C34.7708 44.607 34.6982 44.6286 34.6182 44.6359C34.4513 44.6795 34.2843 44.7086 34.1173 44.7376C33.9648 44.7666 33.8051 44.7956 33.6454 44.8174C33.4566 44.8537 33.2605 44.8828 33.0646 44.9046C32.9048 44.9264 32.7451 44.9481 32.5854 44.9699C32.4184 44.9844 32.2441 45.0061 32.07 45.0206C31.8957 45.0352 31.7142 45.0497 31.5254 45.0642C31.0245 45.1005 30.5162 45.1151 30.0007 45.1151C29.2893 45.1151 28.5777 45.086 27.8808 45.0134C21.8911 44.4615 16.5839 41.5648 12.8811 37.245C9.49067 33.3027 7.44328 28.1698 7.44328 22.5575C7.44328 22.4051 7.44328 22.2526 7.45055 22.1074C7.53762 17.5842 8.95348 13.3879 11.3347 9.89578C15.3061 4.03676 21.971 0.152461 29.5507 0.00726562C29.6958 0 29.8482 0 30.0007 0C37.7619 0 44.6156 3.92051 48.6668 9.89578C51.1207 13.5041 52.5582 17.8603 52.5582 22.5577Z" fill="#EBD1B2"/>
<path d="M48.2593 35.8087C44.1581 41.4493 37.5073 45.1157 30.0011 45.1157C29.2863 45.1157 28.58 45.0825 27.883 45.0168L15.5932 32.7274L44.808 32.3574L48.2593 35.8087Z" fill="#DABC9D"/>
<path d="M52.4631 24.648C52.0822 28.7954 50.5788 32.6183 48.2593 35.8088C45.0662 40.2012 40.3261 43.3963 34.8398 44.5954L11.3479 21.1032L11.9277 20.5237H48.34L52.4631 24.648Z" fill="#DABC9D"/>
<path d="M20.2586 26.39C23.7431 26.39 26.5679 23.5652 26.5679 20.0806C26.5679 16.596 23.7431 13.7712 20.2586 13.7712C16.774 13.7712 13.9492 16.596 13.9492 20.0806C13.9492 23.5652 16.774 26.39 20.2586 26.39Z" fill="#DCD9BC"/>
<path d="M39.7427 26.39C43.2274 26.39 46.0522 23.5651 46.0522 20.0805C46.0522 16.5959 43.2274 13.771 39.7427 13.771C36.2581 13.771 33.4332 16.5959 33.4332 20.0805C33.4332 23.5651 36.2581 26.39 39.7427 26.39Z" fill="#DCD9BC"/>
<path d="M28.2655 19.6027C28.2075 18.7243 28.0042 17.8822 27.6775 17.1052C27.0967 15.7258 26.1238 14.5641 24.9041 13.7364C23.6844 12.916 22.2105 12.4297 20.6278 12.4297C19.5751 12.4297 18.5659 12.6474 17.6511 13.0323C16.8234 13.3808 16.0757 13.8672 15.4295 14.4698C14.9939 14.8691 14.6091 15.3193 14.2825 15.8056C13.5492 16.9019 13.0772 18.2015 12.9901 19.6027C12.9829 19.7625 12.9756 19.9222 12.9756 20.0819C12.9756 20.2272 12.9829 20.3796 12.9901 20.5248C13.0046 20.837 13.041 21.1493 13.0991 21.4468C13.2007 22.0059 13.3604 22.5504 13.5783 23.0586C13.6508 23.2329 13.7307 23.3998 13.8107 23.5668C14.3552 24.6195 15.1321 25.527 16.0759 26.2168C16.163 26.2893 16.2574 26.3547 16.3518 26.4201C16.5986 26.5871 16.8455 26.7396 17.1141 26.8701C18.1668 27.422 19.3648 27.7341 20.628 27.7341C21.6807 27.7341 22.69 27.5163 23.6047 27.1316C24.9841 26.5434 26.1458 25.5778 26.9735 24.3581C27.5543 23.5014 27.9609 22.5066 28.157 21.4467C28.215 21.149 28.2513 20.8368 28.2659 20.5246C28.2731 20.3795 28.2804 20.227 28.2804 20.0818C28.28 19.9222 28.2728 19.7625 28.2655 19.6027ZM25.572 20.5248C25.5284 21.0475 25.405 21.5485 25.2089 22.0132C24.8313 22.9061 24.1997 23.6686 23.4083 24.1985C23.0091 24.4671 22.5735 24.6848 22.1087 24.8229C21.6441 24.9682 21.1431 25.0479 20.6276 25.0479C19.9378 25.0479 19.2916 24.9099 18.6963 24.663C17.8034 24.2855 17.0411 23.6539 16.5038 22.8553C16.2423 22.4633 16.0246 22.0277 15.8794 21.5558C15.7778 21.2291 15.7124 20.8805 15.6833 20.5248C15.6688 20.3796 15.6615 20.2344 15.6615 20.0819C15.6615 19.3923 15.7995 18.7388 16.0464 18.1434C16.4238 17.2577 17.0555 16.4953 17.8542 15.9581C18.2462 15.6895 18.6819 15.479 19.1466 15.3338C19.6185 15.1885 20.1122 15.1087 20.6277 15.1087C21.3173 15.1087 21.9708 15.2539 22.5589 15.5008C23.4519 15.8784 24.2143 16.5099 24.7515 17.3013C25.0201 17.7007 25.2307 18.1361 25.3759 18.6009C25.5211 19.0654 25.5936 19.5665 25.5936 20.0819C25.5938 20.2345 25.5865 20.3796 25.572 20.5248Z" fill="#3D3D3D"/>
<path d="M12.408 21.4483C11.8976 21.4483 11.4834 21.0342 11.4834 20.5237C11.4834 20.0133 11.8976 19.5994 12.408 19.5994H14.3411C14.8519 19.5994 15.2657 20.0133 15.2657 20.5237C15.2657 21.0342 14.8518 21.4483 14.3411 21.4483H12.408Z" fill="#3D3D3D"/>
<path d="M47.0114 19.6027C46.9243 18.2015 46.4524 16.9019 45.7191 15.8056C45.3923 15.3193 45.0075 14.8691 44.5719 14.4698C43.9257 13.8672 43.178 13.3808 42.3503 13.0323C41.4355 12.6474 40.4263 12.4297 39.3736 12.4297C37.7909 12.4297 36.317 12.916 35.0973 13.7364C33.8776 14.5641 32.9047 15.7257 32.3239 17.1052C31.9972 17.8822 31.7866 18.7316 31.7359 19.6173C31.7286 19.7697 31.7214 19.9295 31.7214 20.0819C31.7214 20.2272 31.7286 20.3796 31.7359 20.5248C31.7504 20.8297 31.7868 21.1275 31.8448 21.4177C32.0336 22.4922 32.4473 23.4942 33.0282 24.3582C33.8559 25.5779 35.0176 26.5435 36.397 27.1317C37.3118 27.5164 38.321 27.7343 39.3737 27.7343C40.9564 27.7343 42.4302 27.2478 43.65 26.4202C43.7443 26.3548 43.8388 26.2896 43.9259 26.2169C45.0149 25.4182 45.8862 24.3291 46.4234 23.0586C46.6411 22.5504 46.8009 22.0059 46.9025 21.4468C46.9605 21.1491 46.9969 20.837 47.0114 20.5248C47.0187 20.3796 47.0259 20.2271 47.0259 20.0819C47.0259 19.9222 47.0187 19.7625 47.0114 19.6027ZM37.8926 24.8229C37.4279 24.6849 36.9923 24.4671 36.593 24.1985C35.8016 23.6684 35.17 22.9061 34.7924 22.0132C34.5963 21.5485 34.4729 21.0475 34.4293 20.5248C34.4148 20.3796 34.4075 20.2344 34.4075 20.0819C34.4075 19.5665 34.4801 19.0654 34.6254 18.6009C34.7706 18.1361 34.9812 17.7007 35.2498 17.3013C35.7871 16.5099 36.5494 15.8783 37.4423 15.5008C38.0304 15.2539 38.6838 15.1087 39.3736 15.1087C39.889 15.1087 40.3827 15.1885 40.8546 15.3338C41.3193 15.479 41.7548 15.6896 42.147 15.9581C42.9456 16.4954 43.5772 17.2577 43.9548 18.1434C44.2016 18.7388 44.3395 19.3923 44.3395 20.0819C44.3395 20.2344 44.3323 20.3796 44.3177 20.5248C44.2887 20.8805 44.2234 21.2289 44.1217 21.5558C43.9765 22.0277 43.7586 22.4633 43.4973 22.8553C42.96 23.6539 42.1977 24.2855 41.3047 24.663C40.7094 24.9099 40.0632 25.0479 39.3735 25.0479C38.8582 25.0479 38.3572 24.9682 37.8926 24.8229Z" fill="#3D3D3D"/>
<path d="M47.5934 21.4483H45.6601C45.1496 21.4483 44.7357 21.0342 44.7357 20.5237C44.7357 20.0133 45.1495 19.5994 45.6601 19.5994H47.5934C48.1038 19.5994 48.518 20.0133 48.518 20.5237C48.518 21.0342 48.1038 21.4483 47.5934 21.4483Z" fill="#3D3D3D"/>
<path d="M27.7977 21.4483H31.6284C32.1393 21.4483 32.553 21.0342 32.553 20.5237C32.553 20.0133 32.1391 19.5994 31.6284 19.5994H27.7977C27.2869 19.5994 26.8731 20.0133 26.8731 20.5237C26.8731 21.0342 27.2869 21.4483 27.7977 21.4483Z" fill="#3D3D3D"/>
<path d="M39.6212 30.3655C38.4711 28.7013 36.4273 26.8985 33.9998 27.0373C34.8941 29.1173 32.7264 32.2421 30.0007 31.8952C27.2752 32.2421 25.1073 29.1174 26.0018 27.0373C23.5744 26.8985 21.5304 28.7012 20.3804 30.3655C18.6432 32.879 15.3909 32.1567 15.3909 32.1567C15.3909 32.1567 17.1039 36.2404 22.8107 36.7027C26.8603 37.0306 30.0007 33.3746 30.0007 33.3746C30.0007 33.3746 33.1414 37.0306 37.1911 36.7027C42.8979 36.2404 44.6108 32.1567 44.6108 32.1567C44.6108 32.1567 41.3583 32.8791 39.6212 30.3655Z" fill="#AEADAD"/>
<path d="M28.3518 29.9538C29.5772 29.9538 30.5706 28.9604 30.5706 27.7349C30.5706 26.5095 29.5772 25.5161 28.3518 25.5161C27.1263 25.5161 26.1329 26.5095 26.1329 27.7349C26.1329 28.9604 27.1263 29.9538 28.3518 29.9538Z" fill="#EBD1B2"/>
</svg>
