<svg width="60" height="60" viewBox="0 0 60 60" fill="none" xmlns="http://www.w3.org/2000/svg">
<g clip-path="url(#clip0_19_18527)">
<path d="M22.1757 37.8328L10.3179 43.7226C12.7153 45.2642 14.7476 47.3105 16.2708 49.7208L22.1757 37.8328Z" fill="black"/>
<path d="M48.2348 31.5494L41.7189 29.8721L32.5763 39.0147L23.2183 57.8551L31.4165 47.7042C36.0755 41.9354 41.9454 37.2606 48.6105 34.0105L55.4634 30.6691L50.1324 31.621C49.5264 31.7291 48.8783 31.7149 48.2348 31.5494Z" fill="black"/>
<path d="M30.1098 18.2325L28.4429 11.7574C28.2822 11.1333 28.2584 10.495 28.3717 9.85976L29.3938 4.13477L25.9 11.3003C22.65 17.9654 17.9754 23.8353 12.2063 28.4943L1.58472 37.0727L20.8276 27.5145L30.1098 18.2325Z" fill="black"/>
<path d="M58.1147 27.9743C59.353 27.7532 60.178 26.5699 59.9567 25.3314C59.7359 24.095 58.5543 23.2681 57.3138 23.4894L49.4355 24.896L43.3904 23.3401C37.3632 17.3128 42.8891 22.8389 36.6526 16.6022L35.0966 10.5571L36.5033 2.6788C36.7245 1.44008 35.8994 0.257142 34.6612 0.0359064C33.4235 -0.185329 32.2396 0.638629 32.0183 1.87793L30.5245 10.2443C30.4672 10.5659 30.4795 10.8963 30.5609 11.2127C32.5597 18.9773 32.4068 18.4892 32.5939 18.8413L22.121 29.3142L1.52672 39.5432C0.174495 40.2148 -0.377054 41.8554 0.294539 43.2074C0.967672 44.5623 2.60905 45.1098 3.95858 44.4396L22.6888 35.1362C23.3153 34.8249 24.0704 34.9486 24.565 35.4432C25.0596 35.9378 25.1833 36.6931 24.8721 37.3196L15.5686 56.0498C14.8968 57.4022 15.4492 59.0425 16.8008 59.7141C18.1527 60.3855 19.7933 59.8343 20.4651 58.4819L30.7767 37.7215L41.1165 27.3818C41.4761 27.5809 41.0199 27.4341 48.7799 29.4317C49.0848 29.5102 49.4151 29.5275 49.7482 29.4681L58.1147 27.9743Z" fill="black"/>
<path d="M41.0622 18.9397C42.8784 20.7559 45.8795 20.7988 47.7387 18.9397C49.5824 17.0959 49.5824 14.1068 47.7387 12.2632C45.8949 10.4194 42.9057 10.4194 41.0622 12.2632C39.203 14.1223 39.2459 17.1236 41.0622 18.9397Z" fill="black"/>
</g>
<defs>
<clipPath id="clip0_19_18527">
<rect width="60" height="60" fill="white" transform="translate(0.000488281)"/>
</clipPath>
</defs>
</svg>
