<svg width="60" height="61" viewBox="0 0 60 61" fill="none" xmlns="http://www.w3.org/2000/svg">
<g clip-path="url(#clip0_16_7468)">
<path d="M13.3334 23.4548C13.3334 23.4548 11.6667 46.7881 11.6667 55.1214H30V21.7881L13.3334 23.4548ZM46.6667 23.4548C46.6667 23.4548 48.3334 46.7881 48.3334 55.1214H30V21.7881L46.6667 23.4548Z" fill="#0B0200"/>
<path d="M30 20.1214V6.78809C21.6666 6.78809 13.3333 11.7881 13.3333 21.7881C13.3333 31.7881 17.5883 23.2781 18.3333 21.7881C21.6666 15.1214 26.6666 20.1214 30 20.1214ZM30 20.1214V6.78809C38.3333 6.78809 46.6666 11.7881 46.6666 21.7881C46.6666 31.7881 42.4116 23.2781 41.6666 21.7881C38.3333 15.1214 33.3333 20.1214 30 20.1214Z" fill="#0B0200"/>
<path d="M53.3334 60.1214V56.7881C53.3334 54.1359 52.2798 51.5924 50.4044 49.717C48.5291 47.8417 45.9855 46.7881 43.3334 46.7881H16.6667C14.0145 46.7881 11.471 47.8417 9.59562 49.717C7.72026 51.5924 6.66669 54.1359 6.66669 56.7881V60.1214H53.3334Z" fill="#3B88C3"/>
<path d="M22.7333 46.9562C25.64 49.0678 27.48 50.2262 30 50.2262C32.5183 50.2262 34.36 49.0662 37.2667 46.9562V40.6045H22.7333V46.9562Z" fill="#7C533E"/>
<path d="M22.72 43.4092C24.7466 45.6992 27.26 46.3192 29.9933 46.3192C32.725 46.3192 35.2383 45.6992 37.2666 43.4092V37.5908H22.72V43.4092Z" fill="#664131"/>
<path d="M15.7967 28.3879C15.7967 19.0729 22.1567 11.5195 30 11.5195C37.8434 11.5195 44.2034 19.0712 44.2034 28.3879C44.2034 37.7029 37.8434 45.2545 30 45.2545C22.1567 45.2545 15.7967 37.7029 15.7967 28.3879Z" fill="#7C533E"/>
<path d="M30 39.7912C25.41 39.7912 24 38.6145 23.765 38.3779C23.6609 38.2792 23.5773 38.1609 23.5189 38.0299C23.4605 37.8989 23.4286 37.7576 23.4248 37.6143C23.4171 37.3247 23.5248 37.0439 23.7241 36.8337C23.9235 36.6235 24.1982 36.5011 24.4878 36.4935C24.7774 36.4858 25.0581 36.5935 25.2683 36.7929C25.355 36.8562 26.47 37.6045 30 37.6045C33.6667 37.6045 34.7266 36.7962 34.7366 36.7879C34.8374 36.6882 34.9569 36.6097 35.0883 36.5567C35.2197 36.5038 35.3604 36.4776 35.502 36.4796C35.6437 36.4816 35.7835 36.5118 35.9134 36.5685C36.0432 36.6251 36.1605 36.7071 36.2583 36.8095C36.4604 37.0217 36.5712 37.3047 36.5669 37.5976C36.5625 37.8906 36.4433 38.1702 36.235 38.3762C36 38.6145 34.59 39.7912 30 39.7912Z" fill="#3D2E24"/>
<path d="M23.3334 28.4541C22.4167 28.4541 21.6667 27.7041 21.6667 26.7874V25.1208C21.6667 24.2041 22.4167 23.4541 23.3334 23.4541C24.25 23.4541 25 24.2041 25 25.1208V26.7874C25 27.7041 24.25 28.4541 23.3334 28.4541ZM36.6667 28.4541C35.75 28.4541 35 27.7041 35 26.7874V25.1208C35 24.2041 35.75 23.4541 36.6667 23.4541C37.5834 23.4541 38.3334 24.2041 38.3334 25.1208V26.7874C38.3334 27.7041 37.5834 28.4541 36.6667 28.4541Z" fill="black"/>
<path d="M31.25 33.0381H28.75C28.0617 33.0381 27.5 32.4764 27.5 31.7881C27.5 31.0998 28.0617 30.5381 28.75 30.5381H31.25C31.9383 30.5381 32.5 31.0998 32.5 31.7881C32.5 32.4764 31.9383 33.0381 31.25 33.0381Z" fill="#3D2E24"/>
<path d="M13.3333 23.9214L16.4466 27.0031C16.4466 27.0031 18.4333 32.6714 16.4466 33.6648C12.0066 35.8831 8.33331 24.4748 8.33331 22.2548C8.33331 20.5881 13.3333 23.9214 13.3333 23.9214ZM45.6616 23.9214L42.5483 27.0031C42.5483 27.0031 40.5616 32.6714 42.5483 33.6648C46.99 35.8831 51.6666 24.4748 51.6666 22.2548C51.6666 20.5881 45.6616 23.9214 45.6616 23.9214Z" fill="#7C533E"/>
<path d="M30 6.78809C21.6667 6.78809 15 11.7881 15 21.7881C15 31.7881 17.5883 23.2781 18.3333 21.7881C21.6667 15.1214 26.6667 16.7881 30 16.7881C33.3333 16.7881 38.3333 15.1214 41.6667 21.7881C42.4117 23.2781 45 31.7881 45 21.7881C45 11.7881 38.3333 6.78809 30 6.78809Z" fill="#0B0200"/>
<path d="M15 21.7873L13.3333 60.1206H20C20 60.1206 15.6216 25.9806 18.3333 21.7873C19.4966 19.9873 15 21.7873 15 21.7873ZM45.0966 21.7873L46.7633 60.1206H40C40 60.1206 44.475 25.9806 41.7633 21.7873C40.6 19.9873 45.0966 21.7873 45.0966 21.7873Z" fill="#0B0200"/>
</g>
<defs>
<clipPath id="clip0_16_7468">
<rect width="60" height="60" fill="white" transform="translate(0 0.121094)"/>
</clipPath>
</defs>
</svg>
