<svg width="61" height="60" viewBox="0 0 61 60" fill="none" xmlns="http://www.w3.org/2000/svg">
<g clip-path="url(#clip0_19_16396)">
<path d="M18.7784 41.2173H0.420898V55.3698H18.7784V41.2173Z" fill="black"/>
<path d="M60.4209 46.0479H42.0632V55.3697H60.4209V46.0479Z" fill="black"/>
<path d="M40.421 35.3701H20.4211V55.37H40.421V35.3701Z" fill="black"/>
<path d="M46.3094 12.8092C46.6461 9.94988 44.5883 7.57613 42.0278 6.7569C41.7485 6.66759 41.5466 6.37981 41.5755 6.08816C41.6074 5.76625 41.6297 5.45614 41.6422 5.1602C41.6543 4.86726 41.4159 4.62939 41.1225 4.62939H19.7198C19.4266 4.62939 19.1881 4.86716 19.2005 5.1602C19.213 5.45614 19.235 5.76625 19.2668 6.08816C19.2958 6.37981 19.0937 6.66792 18.8146 6.75722C16.2542 7.57645 14.196 9.95031 14.5331 12.8096C14.7236 14.4276 15.3661 16.0174 16.7043 17.0362C17.4578 17.6101 18.2562 18.0417 19.1109 18.4421C19.5024 18.6139 19.8959 18.7811 20.2914 18.944C21.1051 19.2846 21.5107 19.6177 22.072 20.0973C22.2951 20.2878 22.2947 20.2615 22.0066 20.2064C21.0823 20.0303 20.2959 21.4578 21.2153 22.2294C22.1476 23.0122 23.2239 22.8692 24.1213 22.1098C24.3929 21.8799 24.5631 21.6083 24.6547 21.3153C24.7424 21.0355 24.8791 20.9852 25.0591 21.2164C26.0258 22.4577 27.0782 23.4431 28.1904 24.0265C28.4502 24.1629 28.6712 24.4894 28.6712 24.7826V28.1159C28.6712 28.2181 28.6814 28.3176 28.6998 28.4141C28.7307 28.5772 28.5418 28.7035 28.2485 28.7035H26.0451C25.3199 28.7035 24.7323 29.2912 24.7323 30.0163V32.1234C24.7323 32.8487 25.3203 33.4363 26.0451 33.4363H34.7974C35.5227 33.4363 36.1103 32.8486 36.1103 32.1234V30.0163C36.1103 29.2911 35.5223 28.7035 34.7974 28.7035H32.5941C32.3009 28.7035 32.112 28.5769 32.1429 28.4141C32.1612 28.3176 32.1715 28.2181 32.1715 28.1159V24.7823C32.1715 24.489 32.3926 24.1625 32.6521 24.0262C33.7643 23.4428 34.8166 22.4575 35.7834 21.2162C35.9634 20.985 36.0999 21.0352 36.1877 21.3151C36.2794 21.608 36.4494 21.8797 36.7212 22.1096C37.6185 22.8691 38.695 23.0119 39.627 22.2292C40.5461 21.4576 39.76 20.0301 38.8358 20.2062C38.5477 20.2611 38.5477 20.2877 38.7705 20.0972C39.3315 19.6176 39.7372 19.2846 40.5511 18.9439C40.9466 18.781 41.3398 18.6138 41.7313 18.442C42.5862 18.0416 43.3844 17.61 44.1383 17.0361C45.4761 16.017 46.1186 14.4272 46.3094 12.8092ZM22.3676 17.3831C21.1106 16.7166 19.5803 16.3257 18.4606 15.6255C15.555 13.8077 16.5621 10.1102 19.1963 8.96717C19.4653 8.8506 19.7442 9.02041 19.8099 9.30615C20.3896 11.8402 21.351 14.6558 22.5891 17.1745C22.7184 17.4373 22.6267 17.5205 22.3676 17.3831ZM32.4199 20.2673H30.3453V9.93582H30.2967L27.5383 11.4241L27.124 9.78876L30.5887 7.93358H32.4199V20.2673ZM42.3812 15.6251C41.2614 16.3254 39.7312 16.7163 38.4742 17.3827C38.2151 17.52 38.1237 17.4369 38.2531 17.1739C39.491 14.6552 40.4522 11.8396 41.0323 9.30583C41.0976 9.02009 41.3765 8.85027 41.6455 8.96685C44.2799 10.1102 45.2866 13.8077 42.3812 15.6251Z" fill="black"/>
</g>
<defs>
<clipPath id="clip0_19_16396">
<rect width="60" height="60" fill="white" transform="translate(0.420898)"/>
</clipPath>
</defs>
</svg>
