<svg width="61" height="60" viewBox="0 0 61 60" fill="none" xmlns="http://www.w3.org/2000/svg">
<g clip-path="url(#clip0_19_16570)">
<path d="M49.1897 11.3544C49.0039 11.7348 48.5815 11.988 48.0914 11.8529C43.6138 10.5518 38.1985 11.3883 33.704 13.6776C33.4589 13.8044 33.214 13.9311 32.9774 14.0662C31.7778 14.7337 30.6542 15.5026 29.6488 16.3644H26.2695L26.2188 6.64886C26.2188 6.28546 26.4299 5.96448 26.751 5.80405C28.5929 4.95081 30.6795 4.46917 32.8507 4.34249C33.3491 4.31718 33.8645 4.30862 34.3715 4.31718C35.8415 4.34249 37.3368 4.51148 38.7984 4.83245C38.866 4.84933 38.9336 4.86632 39.0011 4.88319C39.432 4.97624 39.8543 5.08593 40.2768 5.20429C40.4795 5.26323 40.6908 5.32241 40.8936 5.38991C41.8144 5.68569 42.71 6.03222 43.5632 6.43769C43.8167 6.54737 44.07 6.67405 44.3151 6.80941C44.5686 6.93608 44.8135 7.07132 45.0501 7.21487C45.1007 7.23175 45.1514 7.26562 45.2022 7.29948C45.4979 7.46847 45.7766 7.64577 46.0554 7.83163C46.2413 7.94999 46.4271 8.07667 46.6046 8.21179C46.8496 8.38065 47.0861 8.55808 47.3143 8.74417C47.4578 8.8623 47.593 8.97233 47.7282 9.09046C47.9393 9.26788 48.1506 9.45362 48.3449 9.64792C48.3534 9.65659 48.3618 9.6648 48.3704 9.67323C48.6068 9.89284 48.8266 10.1126 49.0377 10.3492C49.3164 10.6617 49.3334 11.0419 49.1897 11.3544Z" fill="#6F6D5C"/>
<path d="M9.95809 15.221L1.81965 15.4733C1.05031 15.4733 0.420898 14.8438 0.420898 14.0745V6.06721C0.420898 5.29787 1.05031 4.66846 1.81965 4.66846L9.95809 4.92076C10.7274 4.92076 11.3568 5.55018 11.3568 6.31951V13.8221C11.357 14.5915 10.7274 15.221 9.95809 15.221Z" fill="#6F6D5C"/>
<path d="M24.943 59.3748C24.943 59.7211 24.6642 60 24.3178 60H12.8872C12.5492 60 12.262 59.7211 12.2704 59.3748L12.3042 56.9754L12.6337 30.9968L12.828 16.3644L12.8956 11.3544L12.997 3.52277L13.0393 0H24.1742V0.0760547L24.2164 3.52277L24.3854 16.3644L24.4193 19.2114L24.943 59.3748Z" fill="#CBB288"/>
<g opacity="0.2">
<path d="M14.2813 0.101484L14.239 3.52289L14.1545 10.0957L14.07 16.3645L13.901 29.7296L13.5293 58.2007L13.5124 59.3834C13.504 59.7296 13.2336 60.0001 12.8872 60.0001C12.5492 60.0001 12.262 59.7212 12.2704 59.3749L12.3042 56.9755L12.6337 30.9969L12.828 16.3645L12.8956 11.3545L12.997 3.52289L13.0393 0H14.2728C14.2727 0.0338672 14.2813 0.0676172 14.2813 0.101484Z" fill="white"/>
</g>
<path d="M32.9774 4.91701V14.9704C32.9774 15.7392 32.3438 16.3645 31.575 16.3645H7.28615C6.65252 16.3645 6.11182 15.9336 5.95127 15.3505C5.90908 15.2323 5.89209 15.1054 5.89209 14.9703V4.91701C5.89209 4.87471 5.89209 4.8324 5.90053 4.79889C5.95971 4.08076 6.55947 3.52295 7.28604 3.52295H31.5749C32.1409 3.52295 32.631 3.86104 32.8506 4.34268C32.8675 4.38475 32.8844 4.42705 32.9012 4.46936C32.9521 4.61279 32.9774 4.76502 32.9774 4.91701Z" fill="#7D7160"/>
<path opacity="0.07" d="M24.943 59.3749C24.943 59.7212 24.6642 60.0001 24.3178 60.0001H12.8872C12.5492 60.0001 12.262 59.7212 12.2704 59.3749L12.3042 56.9754L12.6337 30.9969L13.901 29.7296L24.4192 19.2114L24.943 59.3749Z" fill="#040000"/>
<path opacity="0.07" d="M49.1897 11.3547C49.0038 11.7351 48.5815 11.9883 48.0914 11.8532C43.6138 10.5521 38.1984 11.3886 33.7039 13.6779C33.4589 13.8047 33.214 13.9314 32.9774 14.0665V14.9705C32.9774 15.7393 32.3437 16.3646 31.575 16.3646H27.2664L38.7983 4.83252C38.8659 4.84939 38.9335 4.86639 39.001 4.88326C39.4319 4.97631 39.8543 5.086 40.2767 5.20436C40.4795 5.2633 40.6908 5.32248 40.8935 5.38998C41.8144 5.68576 42.7099 6.03228 43.5632 6.43775C43.8166 6.54744 44.07 6.67412 44.315 6.80947C44.5601 6.93615 44.7966 7.06295 45.0332 7.19807C45.0839 7.2235 45.143 7.25725 45.2021 7.29955C45.4978 7.46853 45.7766 7.64584 46.0554 7.8317C46.2412 7.95006 46.4271 8.07674 46.6045 8.21186C46.8496 8.38072 47.086 8.55814 47.3142 8.74424C47.4578 8.86236 47.593 8.9724 47.7281 9.09053C47.9393 9.26795 48.1506 9.45369 48.3449 9.64799C48.3533 9.65666 48.3617 9.66486 48.3703 9.6733C48.6068 9.89291 48.8265 10.1126 49.0377 10.3492C49.3164 10.662 49.3334 11.0422 49.1897 11.3547Z" fill="#040000"/>
</g>
<defs>
<clipPath id="clip0_19_16570">
<rect width="60" height="60" fill="white" transform="translate(0.420898)"/>
</clipPath>
</defs>
</svg>
