<svg width="512" height="513" viewBox="0 0 512 513" fill="none" xmlns="http://www.w3.org/2000/svg">
<g clip-path="url(#clip0_19_18571)">
<path d="M370.582 355.886H141.418V512.531H370.582V355.886Z" fill="#DBB687"/>
<path d="M277.032 355.882H234.969V512.52H277.032V355.882Z" fill="#BC9C75"/>
<path d="M344.472 355.882H313.231V512.52H344.472V355.882Z" fill="#BC9C75"/>
<path d="M198.77 355.882H167.529V512.52H198.77V355.882Z" fill="#BC9C75"/>
<path d="M300.936 53.9531H211.067V396.514H300.936V53.9531Z" fill="#768A61"/>
<path d="M300.961 145.567H211.04V162.008H300.961V145.567Z" fill="#8BB063"/>
<path opacity="0.09" d="M213.457 125.147L306.276 213.749V335.58H200.4L213.457 125.147Z" fill="#060804"/>
<path d="M300.961 306.166H211.04V322.602H300.961V306.166Z" fill="#8BB063"/>
<path d="M300.935 53.9533C300.935 83.9722 281.214 107.437 256.001 107.437C230.788 107.437 211.067 83.9713 211.067 53.9533C211.067 23.9973 230.788 0.53125 256.001 0.53125C256.5 0.53125 257.062 0.53125 257.561 0.59325C278.905 1.40425 296.067 19.1283 300.061 43.0933C300.623 46.5893 300.935 50.2083 300.935 53.9533Z" fill="#ECCEAE"/>
<path d="M287.91 53.9765C287.91 76.6835 273.625 95.0835 256.001 95.0835C238.382 95.0835 224.091 76.6835 224.091 53.9765C224.091 31.2755 238.382 12.8755 256.001 12.8755C273.625 12.8755 287.91 31.2755 287.91 53.9765Z" fill="#938874"/>
<path d="M230.601 166.663H140.67V381.286H230.601V166.663Z" fill="#768A61"/>
<path d="M230.623 237.288H140.696V253.899H230.623V237.288Z" fill="#8BB063"/>
<path d="M230.601 166.663C230.601 185.511 222.925 201.799 211.067 211.41C210.069 212.284 209.007 213.033 207.947 213.72C201.457 218.151 193.843 220.647 185.667 220.647C160.454 220.647 140.671 196.932 140.671 166.663C140.671 136.395 160.454 112.68 185.667 112.68C195.153 112.68 203.891 116.05 211.067 121.916C214.25 124.475 217.183 127.532 219.555 131.028C222.8 135.334 225.297 140.202 227.169 145.569C228.916 150.687 230.04 156.179 230.414 161.982C230.538 163.542 230.601 165.102 230.601 166.663Z" fill="#ECCEAE"/>
<path d="M217.571 166.678C217.571 189.617 203.28 208.209 185.656 208.209C168.038 208.209 153.752 189.617 153.752 166.678C153.752 143.739 168.037 125.147 185.656 125.147C203.281 125.147 217.571 143.739 217.571 166.678Z" fill="#938874"/>
<path d="M371.301 166.678H281.385V381.265H371.301V166.678Z" fill="#768A61"/>
<path d="M371.301 244.204H281.385V260.821H371.301V244.204Z" fill="#8BB063"/>
<path d="M326.345 220.671C301.131 220.671 281.384 196.951 281.384 166.677C281.384 136.403 301.131 112.684 326.345 112.684C351.559 112.684 371.3 136.403 371.3 166.677C371.3 196.951 351.56 220.671 326.345 220.671Z" fill="#ECCEAE"/>
<path d="M358.249 166.678C358.249 189.617 343.969 208.209 326.345 208.209C308.726 208.209 294.435 189.617 294.435 166.678C294.435 143.739 308.726 125.147 326.345 125.147C343.97 125.147 358.249 143.739 358.249 166.678Z" fill="#938874"/>
<path d="M438.734 345.214C438.734 358.133 414.582 365.684 407.966 375.607C400.976 385.967 406.718 405.439 393.799 412.678C390.679 414.426 386.684 414.987 382.191 414.987C381.068 414.987 379.882 414.924 378.759 414.862C376.762 414.737 374.765 414.55 372.706 414.363C372.02 414.3 371.333 414.238 370.584 414.176C361.66 413.115 352.173 411.679 344.497 413.24C343.998 413.303 343.499 413.427 342.999 413.552C332.39 416.36 323.902 428.28 313.23 434.334C310.109 436.081 306.802 437.33 303.245 437.704C295.007 438.578 286.083 433.897 277.033 429.591C275.286 428.78 273.476 427.968 271.728 427.219C267.11 425.222 262.491 423.662 257.936 423.35C257.25 423.225 256.625 423.225 256.001 423.225C251.882 423.225 247.763 424.286 243.582 425.909C240.711 426.97 237.841 428.28 234.97 429.591C225.921 433.897 216.996 438.64 208.758 437.766C205.201 437.392 201.893 436.081 198.773 434.334C188.101 428.28 179.613 416.36 169.004 413.552C168.505 413.427 168.006 413.302 167.506 413.24C159.83 411.68 150.344 413.115 141.419 414.176C132.37 415.174 123.882 415.861 118.203 412.678C105.284 405.439 111.026 385.967 104.036 375.607C97.4206 365.684 73.2676 358.133 73.2676 345.214C73.2676 332.233 97.4196 324.682 104.036 314.759C105.034 313.261 105.783 311.576 106.345 309.766C107.468 306.271 107.905 302.277 108.467 298.345C108.966 294.226 109.59 290.045 111.026 286.425C112.336 282.868 114.521 279.81 118.203 277.75C123.695 274.63 131.933 275.191 140.67 276.128H140.919C145.225 276.627 149.656 277.251 153.963 277.563C159.33 278 164.448 278 168.941 276.814C181.048 273.694 190.41 258.466 203.453 253.91C204.139 253.661 204.826 253.411 205.512 253.286C206.573 252.974 207.634 252.787 208.757 252.662C209.506 252.599 210.255 252.537 211.066 252.537C213.625 252.6 216.246 253.099 218.93 253.91C222.737 255.034 226.669 256.781 230.6 258.653C239.025 262.647 247.637 267.141 256 267.141C264.363 267.141 272.975 262.647 281.4 258.653C288.14 255.47 294.693 252.6 300.934 252.537C301.745 252.537 302.494 252.6 303.243 252.662C304.304 252.786 305.303 252.974 306.301 253.223C311.356 254.471 315.85 257.405 320.156 260.837C327.832 267.015 334.759 274.691 342.997 276.814C348.364 278.187 354.73 277.937 361.22 277.313C364.59 276.938 367.96 276.502 371.268 276.128C372.329 276.003 373.328 275.941 374.326 275.816H374.388C381.94 275.13 388.929 275.005 393.797 277.751C394.608 278.188 395.295 278.687 395.981 279.249C396.106 279.249 396.169 279.374 396.293 279.436C396.792 279.873 397.229 280.31 397.666 280.809C399.101 282.369 400.162 284.304 400.973 286.363C402.409 289.983 403.032 294.164 403.532 298.346C404.093 302.34 404.53 306.334 405.716 309.829V309.892C406.215 311.702 406.964 313.324 407.963 314.76C414.581 324.681 438.734 332.233 438.734 345.214Z" fill="#6FA96F"/>
<path d="M348.673 289.804C348.673 295.056 344.411 299.318 339.153 299.318C333.895 299.318 329.634 295.056 329.634 289.804C329.634 284.541 333.895 280.284 339.153 280.284C344.411 280.285 348.673 284.541 348.673 289.804Z" fill="#EE784B"/>
<path d="M287.486 306.093C285.143 315.007 276.025 320.327 267.117 317.99C258.208 315.647 252.877 306.529 255.22 297.62C257.557 288.712 266.681 283.386 275.59 285.724C284.498 288.067 289.823 297.185 287.486 306.093Z" fill="#EE784B"/>
<path d="M346.771 378.724C346.771 384.735 341.898 389.608 335.887 389.608C329.882 389.608 325.009 384.735 325.009 378.724C325.009 372.719 329.882 367.846 335.887 367.846C341.898 367.846 346.771 372.719 346.771 378.724Z" fill="#EE784B"/>
<path d="M189.771 309.472C189.771 316.682 183.925 322.529 176.714 322.529C169.504 322.529 163.663 316.682 163.663 309.472C163.663 302.261 169.504 296.42 176.714 296.42C183.925 296.421 189.771 302.261 189.771 309.472Z" fill="#EE784B"/>
<path d="M149.638 371.836C149.638 364.631 155.485 358.785 162.695 358.785C169.899 358.785 175.746 364.631 175.746 371.836C175.746 379.046 169.899 384.887 162.695 384.887C155.484 384.887 149.638 379.047 149.638 371.836Z" fill="#EE784B"/>
<path d="M376.138 449.062H136.801V468.659H376.138V449.062Z" fill="#9D8477"/>
<path d="M257.767 362.169C257.767 362.169 243.38 349.474 223.061 369.793C190.891 401.962 197.66 422.275 197.66 422.275C197.66 422.275 217.978 429.05 250.148 396.88C270.467 376.562 257.767 362.169 257.767 362.169Z" fill="#768A61"/>
<path d="M257.767 362.169L197.661 422.275C197.661 422.275 217.979 429.05 250.149 396.88C270.467 376.562 257.767 362.169 257.767 362.169Z" fill="#7CAC49"/>
<path d="M260.184 362.169C260.184 362.169 274.582 349.474 294.895 369.793C327.065 401.962 320.291 422.275 320.291 422.275C320.291 422.275 299.978 429.05 267.808 396.88C247.488 376.562 260.184 362.169 260.184 362.169Z" fill="#768A61"/>
<path d="M260.184 362.169L320.29 422.275C320.29 422.275 299.977 429.05 267.807 396.88C247.488 376.562 260.184 362.169 260.184 362.169Z" fill="#7CAC49"/>
<path d="M257.914 354.206C257.914 354.206 237.318 355.497 237.318 386.382C237.318 435.287 257.914 445.576 257.914 445.576C257.914 445.576 278.504 435.287 278.504 386.382C278.504 355.497 257.914 354.206 257.914 354.206Z" fill="#768A61"/>
<path d="M257.914 354.206V445.576C257.914 445.576 278.504 435.287 278.504 386.382C278.504 355.497 257.914 354.206 257.914 354.206Z" fill="#7CAC49"/>
<path d="M373.293 299.46C373.293 299.46 360.955 300.23 360.96 318.726C360.96 348.021 373.293 354.179 373.293 354.179C373.293 354.179 385.625 348.021 385.625 318.726C385.625 300.23 373.293 299.46 373.293 299.46Z" fill="#768A61"/>
<path d="M373.293 299.46V354.178C373.293 354.178 385.625 348.02 385.625 318.725C385.625 300.23 373.293 299.46 373.293 299.46Z" fill="#7CAC49"/>
<path d="M374.39 298.356C374.39 298.356 375.166 286.024 393.661 286.029C422.95 286.029 429.113 298.356 429.113 298.356C429.113 298.356 422.949 310.688 393.661 310.688C375.16 310.689 374.39 298.356 374.39 298.356Z" fill="#768A61"/>
<path d="M374.39 298.356H429.114C429.114 298.356 422.95 310.688 393.662 310.688C375.16 310.689 374.39 298.356 374.39 298.356Z" fill="#7CAC49"/>
<path d="M369.733 295.765C369.733 295.765 360.943 305.726 375.002 319.79C397.267 342.049 411.331 337.364 411.331 337.364C411.331 337.364 416.012 323.305 393.747 301.04C379.688 286.981 369.733 295.765 369.733 295.765Z" fill="#768A61"/>
<path d="M369.733 295.765L411.332 337.364C411.332 337.364 416.013 323.305 393.748 301.04C379.688 286.981 369.733 295.765 369.733 295.765Z" fill="#7CAC49"/>
<path d="M138.673 298.345C138.673 298.345 138.673 298.407 138.673 298.47C138.61 298.657 138.548 299.156 138.423 299.718C137.799 302.09 135.739 306.895 128.875 309.267C128.438 309.454 127.939 309.579 127.44 309.704C125.193 310.328 122.572 310.703 119.389 310.703C115.77 310.703 112.524 310.516 109.591 310.141C108.468 310.078 107.344 309.891 106.346 309.766C88.1847 306.833 83.9407 298.345 83.9407 298.345C83.9407 298.345 88.9337 288.484 111.026 286.425C113.585 286.175 116.331 286.05 119.389 286.05C128.626 286.05 133.431 289.108 135.927 292.228C138.485 295.287 138.673 298.345 138.673 298.345Z" fill="#768A61"/>
<path d="M138.673 298.345C138.673 298.345 138.673 298.407 138.673 298.47C138.61 298.657 138.548 299.156 138.423 299.718C137.799 302.09 135.739 306.895 128.875 309.267C128.438 309.454 127.939 309.579 127.44 309.704C125.193 310.328 122.572 310.703 119.389 310.703C115.77 310.703 112.524 310.516 109.591 310.141C108.468 310.078 107.344 309.891 106.346 309.766C88.1847 306.833 83.9407 298.345 83.9407 298.345H138.673Z" fill="#7CAC49"/>
<path d="M139.767 299.46C139.767 299.46 152.1 300.23 152.094 318.726C152.094 348.015 139.767 354.179 139.767 354.179C139.767 354.179 127.435 348.015 127.429 318.726C127.435 300.23 139.767 299.46 139.767 299.46Z" fill="#768A61"/>
<path d="M139.767 299.46V354.178C139.767 354.178 127.435 348.014 127.429 318.725C127.435 300.23 139.767 299.46 139.767 299.46Z" fill="#7CAC49"/>
<path d="M142.354 294.796C142.354 294.796 132.393 286.007 118.334 300.071C96.0687 322.336 100.755 336.389 100.755 336.389C100.755 336.389 114.819 341.075 137.079 318.816C151.143 304.752 142.354 294.796 142.354 294.796Z" fill="#768A61"/>
<path d="M142.354 294.796L100.755 336.39C100.755 336.39 114.819 341.076 137.079 318.817C151.143 304.752 142.354 294.796 142.354 294.796Z" fill="#7CAC49"/>
<path d="M160.764 294.039C160.764 300.654 150.217 299.344 150.217 299.344C146.847 290.981 143.727 283.305 140.918 276.128C140.793 275.941 140.731 275.753 140.669 275.566C132.181 254.472 125.878 238.495 121.073 226.263C117.953 218.212 115.519 211.847 113.584 206.605C106.469 187.57 105.845 184.388 103.411 177.398C100.228 168.286 108.903 167.475 111.025 173.154C111.212 173.653 111.899 175.463 113.084 178.209C114.457 181.704 116.517 186.759 119.013 192.812C123.944 204.732 130.434 220.584 136.862 236.186C138.173 239.244 139.421 242.302 140.669 245.36C141.855 248.231 143.041 251.102 144.164 253.91C144.227 254.035 144.289 254.16 144.351 254.285C147.971 262.959 151.278 271.01 153.962 277.563C158.081 287.548 160.764 294.039 160.764 294.039Z" fill="#ECCEAE"/>
<path d="M124.506 217.463C124.693 220.895 123.32 224.078 121.074 226.262C119.139 228.322 116.518 229.57 113.523 229.695C107.157 230.069 101.666 225.139 101.291 218.774C100.979 212.346 105.847 206.916 112.275 206.542C112.712 206.542 113.149 206.542 113.586 206.605C119.388 206.854 124.132 211.534 124.506 217.463Z" fill="#F19BA6"/>
<path d="M152.777 243.8C153.027 248.418 150.156 252.475 145.974 253.91C145.475 254.097 144.913 254.285 144.351 254.285C144.039 254.409 143.665 254.472 143.29 254.472C142.354 254.535 141.48 254.472 140.669 254.223C136.3 253.349 132.93 249.605 132.68 244.924C132.493 241.367 134.178 238.121 136.861 236.187C137.985 235.376 139.233 234.814 140.668 234.564C141.167 234.439 141.666 234.315 142.166 234.315C145.161 234.128 147.908 235.313 149.842 237.31C151.529 238.932 152.652 241.241 152.777 243.8Z" fill="#F19BA6"/>
<path d="M126.503 184.137C126.752 188.568 123.445 192.437 119.014 192.812C118.889 192.874 118.827 192.874 118.702 192.874C114.146 193.123 110.277 189.629 110.027 185.073C109.902 182.327 111.088 179.768 113.085 178.208C114.396 177.147 116.018 176.46 117.828 176.335C122.384 176.086 126.254 179.581 126.503 184.137Z" fill="#F19BA6"/>
<path d="M354.384 294.061C354.384 294.061 402.355 177.844 404.116 173.147C406.238 167.448 414.932 168.313 411.745 177.369C407.24 190.188 408.961 190.228 364.934 299.335C364.934 299.335 354.384 300.66 354.384 294.061Z" fill="#ECCEAE"/>
<path d="M371.718 224.729C371.367 231.124 376.263 236.603 382.664 236.959C389.059 237.31 394.538 232.415 394.894 226.019C395.25 219.618 390.349 214.139 383.948 213.783C377.553 213.433 372.075 218.328 371.718 224.729Z" fill="#F19BA6"/>
<path d="M374.051 258.156C373.746 263.713 377.996 268.462 383.554 268.773C389.106 269.084 393.866 264.828 394.171 259.27C394.477 253.718 390.226 248.964 384.669 248.653C379.116 248.347 374.362 252.598 374.051 258.156Z" fill="#F19BA6"/>
<path d="M387.929 193.442C387.68 197.999 391.166 201.893 395.716 202.153C400.267 202.402 404.166 198.916 404.421 194.365C404.675 189.809 401.184 185.909 396.633 185.661C392.077 185.405 388.183 188.892 387.929 193.442Z" fill="#F19BA6"/>
<path opacity="0.1" d="M438.733 345.214C438.733 358.133 414.581 365.684 407.965 375.607C400.975 385.967 406.717 405.439 393.798 412.678C390.678 414.426 386.683 414.987 382.19 414.987C381.067 414.987 379.881 414.924 378.758 414.862C376.761 414.737 374.764 414.55 372.705 414.363C372.019 414.3 371.332 414.176 370.583 414.114V449.063H376.138V468.659H370.583V512.531H256V0.53125C256.499 0.53125 257.061 0.53125 257.56 0.59325C278.904 1.40425 296.066 19.1283 300.06 43.0933C300.622 46.5883 300.934 50.2083 300.934 53.9523V121.853C301.87 121.104 302.869 120.355 303.929 119.669C304.803 119.045 305.677 118.483 306.613 117.984L306.676 117.922C307.675 117.36 308.673 116.861 309.671 116.424C310.67 115.925 311.731 115.488 312.791 115.113C313.478 114.801 314.228 114.551 314.977 114.364C315.351 114.24 315.787 114.115 316.162 114.052C317.223 113.74 318.285 113.49 319.408 113.303C320.532 113.116 321.654 112.929 322.84 112.866C323.963 112.741 325.149 112.679 326.335 112.679C351.548 112.679 371.27 136.394 371.27 166.662V253.036C373.58 247.482 375.95 241.678 378.384 235.874C377.885 235.624 377.386 235.375 376.886 235C376.512 234.813 376.2 234.563 375.888 234.251C374.515 233.128 373.392 231.63 372.705 229.945C372.517 229.633 372.393 229.259 372.33 228.884C372.205 228.697 372.143 228.51 372.143 228.322C372.018 227.948 371.893 227.573 371.893 227.136C371.706 226.325 371.643 225.513 371.706 224.702C372.08 218.337 377.572 213.406 383.938 213.781C385.061 213.843 386.186 214.093 387.184 214.468C388.057 212.408 388.868 210.349 389.742 208.289C390.116 207.416 390.428 206.604 390.803 205.73C391.427 204.232 391.989 202.797 392.613 201.361C392.239 201.174 391.928 200.987 391.615 200.8C391.615 200.737 391.551 200.737 391.551 200.737C391.301 200.55 391.114 200.425 390.865 200.175C390.615 200.05 390.428 199.801 390.179 199.551C389.929 199.301 389.68 198.989 389.493 198.677C389.119 198.178 388.807 197.616 388.557 196.992C388.37 196.556 388.245 196.181 388.12 195.744C387.933 194.995 387.871 194.246 387.934 193.435C388.184 188.879 392.052 185.384 396.608 185.634C397.045 185.634 397.419 185.759 397.793 185.821C398.168 185.884 398.542 186.009 398.854 186.133C401.787 178.831 403.784 174.026 404.096 173.152C406.218 167.473 414.955 168.284 411.773 177.396C411.586 177.957 411.399 178.457 411.211 178.956C410.337 181.515 409.651 183.699 408.652 186.695C408.09 188.442 407.404 190.377 406.53 192.811C406.468 192.998 406.405 193.123 406.343 193.31C406.218 193.809 406.031 194.308 405.844 194.808C404.97 197.305 403.909 200.175 402.599 203.732C402.225 204.731 401.85 205.729 401.413 206.852C399.978 210.784 398.168 215.464 396.046 221.019C395.672 222.017 395.235 223.079 394.798 224.139V224.326C394.86 224.825 394.923 225.449 394.923 226.011C394.86 226.76 394.736 227.509 394.549 228.258C394.362 228.944 394.112 229.694 393.8 230.318C393.426 231.192 392.926 231.941 392.302 232.627C391.928 233.126 391.491 233.563 390.991 234L390.929 234.062V234.124C389.182 238.618 387.309 243.361 385.188 248.728C385.375 248.728 385.499 248.791 385.686 248.853C386.122 248.853 386.497 248.978 386.871 249.04C387.058 249.103 387.308 249.165 387.495 249.29C387.932 249.415 388.369 249.602 388.743 249.789C389.429 250.163 390.053 250.538 390.615 251.1C390.989 251.35 391.301 251.661 391.613 252.036C391.987 252.473 392.362 252.972 392.674 253.472C393.735 255.094 394.296 257.154 394.172 259.276C393.86 264.83 389.117 269.074 383.563 268.762C382.877 268.7 382.252 268.638 381.628 268.45C381.066 268.325 380.567 268.138 380.13 267.951C379.818 267.826 379.507 267.702 379.257 267.515C378.82 267.328 378.382 267.016 378.008 266.766C377.447 268.264 376.76 269.824 376.136 271.447C375.574 272.882 374.95 274.318 374.388 275.815C381.94 275.129 388.929 275.004 393.797 277.75C394.608 278.187 395.295 278.686 395.981 279.248C396.106 279.248 396.169 279.373 396.293 279.435C396.792 279.872 397.229 280.309 397.666 280.808C399.101 282.368 400.162 284.303 400.973 286.362H401.285C402.595 286.487 403.844 286.612 405.092 286.799C424.564 289.42 429.119 298.345 429.119 298.345C429.119 298.345 429.056 298.47 428.869 298.72C428.744 298.907 428.619 299.156 428.37 299.469C427.996 299.968 427.434 300.592 426.685 301.279C426.124 301.841 425.375 302.465 424.501 303.089C423.627 303.713 422.629 304.337 421.443 305.024C421.38 305.024 421.38 305.087 421.38 305.087C420.756 305.337 420.132 305.649 419.508 305.961C419.321 306.024 419.196 306.086 419.009 306.21C415.702 307.646 411.333 309.019 405.716 309.83H405.654V309.893H405.716C406.215 311.703 406.965 313.325 407.964 314.761C414.581 324.681 438.733 332.233 438.733 345.214Z" fill="#3E3A39"/>
</g>
<defs>
<clipPath id="clip0_19_18571">
<rect width="512" height="512" fill="white" transform="translate(0.000488281 0.53125)"/>
</clipPath>
</defs>
</svg>
