<svg width="60" height="60" viewBox="0 0 60 60" fill="none" xmlns="http://www.w3.org/2000/svg">
<path d="M3.79688 30C3.79688 36.9448 6.5557 43.6052 11.4664 48.516C16.3772 53.4267 23.0376 56.1855 29.9824 56.1855C36.9273 56.1855 43.5877 53.4267 48.4984 48.516C53.4091 43.6052 56.168 36.9448 56.168 30C56.168 23.0552 53.4091 16.3948 48.4984 11.484C43.5877 6.57328 36.9273 3.81445 29.9824 3.81445C23.0376 3.81445 16.3772 6.57328 11.4664 11.484C6.5557 16.3948 3.79688 23.0552 3.79688 30Z" fill="#E4E4E4"/>
<path d="M9.38665 46.1777L29.9824 30.0059L13.8105 9.41016C2.43743 18.3398 0.456964 34.7988 9.38665 46.1777ZM50.6132 46.1777L30.0175 30.0059L46.1894 9.41016C57.5624 18.3398 59.5429 34.7988 50.6132 46.1777Z" fill="#F25421"/>
<path d="M19.084 30.0059C19.084 31.4401 19.3665 32.8604 19.9154 34.1855C20.4642 35.5106 21.2687 36.7146 22.2829 37.7288C23.2971 38.743 24.5011 39.5475 25.8262 40.0964C27.1513 40.6452 28.5716 40.9277 30.0059 40.9277C31.4401 40.9277 32.8604 40.6452 34.1855 40.0964C35.5106 39.5475 36.7146 38.743 37.7288 37.7288C38.743 36.7146 39.5475 35.5106 40.0964 34.1855C40.6452 32.8604 40.9277 31.4401 40.9277 30.0059C40.9277 27.1092 39.777 24.3312 37.7288 22.2829C35.6805 20.2347 32.9025 19.084 30.0059 19.084C27.1092 19.084 24.3312 20.2347 22.2829 22.2829C20.2347 24.3312 19.084 27.1092 19.084 30.0059Z" fill="#8FCEE2"/>
<path d="M29.9531 40.9277C35.2676 40.9277 39.6973 37.1309 40.6699 32.0977C40.3066 32.1738 39.9375 32.1914 39.5742 32.1094C38.8066 31.9395 38.1387 31.1191 38.4199 30.3926C37.125 31.3066 35.5313 31.7812 33.9492 31.7285C33.5098 31.7109 33.0645 31.6523 32.6836 31.4355C32.3027 31.2187 32.0098 30.8086 32.0332 30.375C31.6055 31.043 30.8613 31.4531 30.0879 31.6406C29.3203 31.8281 28.5176 31.8223 27.7207 31.8105C27.1875 31.8047 26.6309 31.7871 26.168 31.5176C25.5176 31.1367 25.2422 30.3516 25.0195 29.6309C24.3164 30.7207 22.9805 31.2656 21.6914 31.3477C20.8125 31.4004 19.9395 31.2656 19.0781 31.0781C19.623 36.6094 24.2871 40.9277 29.9531 40.9277Z" fill="#13AEE5"/>
<path d="M24.8145 11.9648C25.002 12.1172 25.2598 12.1699 25.4942 12.0996C27.2168 11.5723 29.0508 11.291 30.9434 11.291C41.2676 11.291 49.6641 19.6875 49.6641 30.0117C49.6641 30.5977 49.6348 31.1836 49.5821 31.7578C49.5586 32.0039 49.6582 32.2383 49.8457 32.3965C50.3028 32.7715 50.9883 32.4785 51.041 31.8926C51.0996 31.2715 51.1289 30.6445 51.1289 30.0176C51.1289 27.293 50.5957 24.6504 49.541 22.1602C48.5215 19.7578 47.0684 17.5957 45.2168 15.7441C43.3653 13.8926 41.2031 12.4336 38.8008 11.4199C36.3106 10.3652 33.668 9.83203 30.9434 9.83203C28.9278 9.83203 26.959 10.125 25.0664 10.7051C24.5039 10.8633 24.3574 11.5957 24.8145 11.9648Z" fill="#FFFDFD"/>
<path d="M49.3418 36.2695C49.3418 36.4871 49.4282 36.6957 49.5821 36.8496C49.7359 37.0034 49.9445 37.0898 50.1621 37.0898C50.3797 37.0898 50.5883 37.0034 50.7422 36.8496C50.896 36.6957 50.9824 36.4871 50.9824 36.2695C50.9824 36.052 50.896 35.8433 50.7422 35.6895C50.5883 35.5356 50.3797 35.4492 50.1621 35.4492C49.9445 35.4492 49.7359 35.5356 49.5821 35.6895C49.4282 35.8433 49.3418 36.052 49.3418 36.2695Z" fill="#FFFDFD"/>
</svg>
