<svg width="512" height="513" viewBox="0 0 512 513" fill="none" xmlns="http://www.w3.org/2000/svg">
<g clip-path="url(#clip0_16_6599)">
<path d="M383.934 118.246H128.002V395.631H383.934V118.246Z" fill="#E5E8EC"/>
<path d="M117.346 107.574V406.303H394.591V107.574H117.346ZM373.263 384.96H138.674V128.917H373.262V384.96H373.263Z" fill="#CBD0D8"/>
<path d="M336.327 67.7929C338.655 75.8869 343.155 81.6209 343.671 82.2609C345.623 84.6989 348.608 86.2299 351.967 86.2299C357.858 86.2299 362.639 81.4639 362.639 75.5739C362.639 73.0269 361.748 70.7149 360.264 68.8709C360.248 68.8549 357.952 65.7929 356.826 61.9179C355.529 57.3709 356.326 54.0739 359.529 50.8399C368.185 42.1679 371.045 30.8559 367.591 19.0439C365.263 11.1069 360.779 5.46595 360.2 4.79395C360.184 4.79395 360.184 4.76295 360.184 4.76295L360.168 4.74695C358.215 2.41895 355.262 0.918945 351.965 0.918945C346.074 0.918945 341.294 5.68495 341.294 11.5749C341.294 14.1529 342.216 16.4959 343.732 18.3399L343.701 18.3089C343.717 18.3249 346.184 21.4649 347.231 25.4809C348.325 29.6369 347.481 32.7309 344.404 35.7929C335.765 44.4809 332.89 55.8409 336.327 67.7929Z" fill="#E5E8EC"/>
<path d="M144.33 67.7929C146.658 75.8869 151.158 81.6209 151.674 82.2609C153.627 84.6989 156.612 86.2299 159.971 86.2299C165.862 86.2299 170.642 81.4639 170.642 75.5739C170.642 73.0269 169.751 70.7149 168.267 68.8709C168.251 68.8549 165.955 65.7929 164.83 61.9179C163.533 57.3709 164.33 54.0739 167.533 50.8399C176.189 42.1679 179.049 30.8559 175.595 19.0439C173.267 11.1069 168.783 5.46595 168.204 4.79395C168.188 4.79395 168.188 4.76295 168.188 4.76295L168.172 4.74695C166.219 2.41895 163.266 0.918945 159.969 0.918945C154.078 0.918945 149.297 5.68495 149.297 11.5749C149.297 14.1529 150.219 16.4959 151.735 18.3399L151.704 18.3089C151.72 18.3249 154.188 21.4649 155.235 25.4809C156.329 29.6369 155.485 32.7309 152.407 35.7929C143.768 44.4809 140.893 55.8409 144.33 67.7929Z" fill="#E5E8EC"/>
<path d="M415.997 502.238C415.997 508.129 411.231 512.91 405.341 512.91H106.675C100.784 512.91 96.003 508.129 96.003 502.238V374.241C96.003 368.35 100.784 363.569 106.675 363.569H405.341C411.232 363.569 415.997 368.35 415.997 374.241V502.238Z" fill="#424953"/>
<path d="M128.002 512.91H383.997C383.653 442.505 326.483 385.538 256 385.538C185.517 385.538 128.346 442.505 128.002 512.91Z" fill="#4B89DA"/>
<path d="M149.346 512.91H362.655C362.373 454.239 314.733 406.771 256 406.771C197.267 406.771 149.643 454.239 149.346 512.91Z" fill="#5D9CEC"/>
<path d="M224 480.911C224 486.802 219.234 491.567 213.344 491.567C207.453 491.567 202.672 486.801 202.672 480.911C202.672 475.005 207.453 470.239 213.344 470.239C219.235 470.239 224 475.005 224 480.911Z" fill="#E5E8EC"/>
<path d="M266.672 480.911C266.672 486.802 261.891 491.567 256 491.567C250.109 491.567 245.344 486.801 245.344 480.911C245.344 475.005 250.11 470.239 256 470.239C261.89 470.239 266.672 475.005 266.672 480.911Z" fill="#E5E8EC"/>
<path d="M309.343 480.911C309.343 486.802 304.562 491.567 298.671 491.567C292.78 491.567 287.999 486.801 287.999 480.911C287.999 475.005 292.78 470.239 298.671 470.239C304.562 470.239 309.343 475.005 309.343 480.911Z" fill="#E5E8EC"/>
<path d="M277.343 448.911H234.673C228.782 448.911 224.001 444.13 224.001 438.239C224.001 432.348 228.782 427.567 234.673 427.567H277.343C283.234 427.567 287.999 432.348 287.999 438.239C287.999 444.13 283.233 448.911 277.343 448.911Z" fill="#4B89DA"/>
<path d="M405.263 128.917H106.675C100.784 128.917 96.003 124.136 96.003 118.245C96.003 112.355 100.784 107.574 106.675 107.574H405.263C411.154 107.574 415.935 112.355 415.935 118.245C415.935 124.136 411.153 128.917 405.263 128.917Z" fill="#424953"/>
<path d="M287.999 64.918H223.938V107.574H287.999V64.918Z" fill="#4B89DA"/>
<path d="M298.593 86.2459H213.345C207.454 86.2459 202.673 81.465 202.673 75.575C202.673 69.684 207.454 64.9189 213.345 64.9189H298.593C304.484 64.9189 309.265 69.685 309.265 75.575C309.265 81.465 304.483 86.2459 298.593 86.2459Z" fill="#5D9CEC"/>
<path d="M387.529 192.916H126.862V214.244H387.529V192.916Z" fill="#CBD0D8"/>
<path d="M387.529 278.243H126.862V299.57H387.529V278.243Z" fill="#CBD0D8"/>
<path d="M214.532 171.573C214.532 183.354 204.97 192.916 193.188 192.916C181.407 192.916 171.86 183.354 171.86 171.573C171.86 159.792 181.407 150.245 193.188 150.245C204.97 150.245 214.532 159.792 214.532 171.573Z" fill="#FFCE54"/>
<path opacity="0.2" d="M193.188 150.245C191.36 150.245 189.563 150.479 187.86 150.917C197.063 153.276 203.86 161.636 203.86 171.573C203.86 181.51 197.063 189.869 187.86 192.244C189.563 192.682 191.36 192.916 193.188 192.916C204.969 192.916 214.532 183.354 214.532 171.573C214.532 159.792 204.97 150.245 193.188 150.245Z" fill="white"/>
<path d="M278.53 171.573C278.53 183.354 268.968 192.916 257.187 192.916C245.406 192.916 235.859 183.354 235.859 171.573C235.859 159.792 245.405 150.245 257.187 150.245C268.968 150.245 278.53 159.792 278.53 171.573Z" fill="#FFCE54"/>
<path d="M342.53 171.573C342.53 183.354 332.968 192.916 321.186 192.916C309.404 192.916 299.858 183.354 299.858 171.573C299.858 159.792 309.405 150.245 321.186 150.245C332.967 150.245 342.53 159.792 342.53 171.573Z" fill="#FFCE54"/>
<path d="M245.344 267.571C245.344 273.462 240.563 278.243 234.673 278.243H170.674C164.784 278.243 160.003 273.462 160.003 267.571V246.243C160.003 240.352 164.784 235.571 170.674 235.571H234.673C240.564 235.571 245.344 240.352 245.344 246.243V267.571Z" fill="#ED5564"/>
<path opacity="0.2" d="M234.672 235.571H224C229.891 235.571 234.672 240.352 234.672 246.243V267.571C234.672 273.462 229.891 278.243 224 278.243H234.672C240.563 278.243 245.343 273.462 245.343 267.571V246.243C245.344 240.353 240.563 235.571 234.672 235.571Z" fill="white"/>
<path d="M351.998 267.571C351.998 273.462 347.232 278.243 341.343 278.243H277.343C271.452 278.243 266.672 273.462 266.672 267.571V246.243C266.672 240.352 271.452 235.571 277.343 235.571H341.343C347.233 235.571 351.998 240.352 351.998 246.243V267.571Z" fill="#ED5564"/>
<path opacity="0.2" d="M341.343 235.571H330.671C336.562 235.571 341.343 240.352 341.343 246.243V267.571C341.343 273.462 336.562 278.243 330.671 278.243H341.343C347.233 278.243 351.998 273.462 351.998 267.571V246.243C351.998 240.353 347.232 235.571 341.343 235.571Z" fill="white"/>
<path d="M181.345 321.007C179.111 324.788 203.829 363.569 255.969 363.569C308.109 363.569 333.359 323.647 330.671 320.96C327.983 318.273 295.702 331.741 256 331.741C216.313 331.741 183.564 317.242 181.345 321.007Z" fill="#A0D468"/>
<g opacity="0.2">
<path d="M330.671 320.96C329.827 320.117 326.077 320.867 320.109 322.288C318.531 329.507 295.125 361.069 250.594 363.429C252.36 363.523 254.141 363.57 255.969 363.57C308.108 363.569 333.358 323.647 330.671 320.96Z" fill="white"/>
</g>
<path opacity="0.2" d="M257.188 150.245C255.36 150.245 253.563 150.479 251.86 150.917C261.063 153.276 267.86 161.636 267.86 171.573C267.86 181.51 261.063 189.869 251.86 192.244C253.563 192.682 255.36 192.916 257.188 192.916C268.968 192.916 278.531 183.354 278.531 171.573C278.531 159.792 268.968 150.245 257.188 150.245Z" fill="white"/>
<path opacity="0.2" d="M321.187 150.245C319.359 150.245 317.562 150.479 315.859 150.917C325.062 153.276 331.859 161.636 331.859 171.573C331.859 181.51 325.062 189.869 315.859 192.244C317.562 192.682 319.359 192.916 321.187 192.916C332.968 192.916 342.531 183.354 342.531 171.573C342.531 159.792 332.968 150.245 321.187 150.245Z" fill="white"/>
</g>
<defs>
<clipPath id="clip0_16_6599">
<rect width="512" height="512" fill="white" transform="translate(0 0.915039)"/>
</clipPath>
</defs>
</svg>
