<svg width="512" height="512" viewBox="0 0 512 512" fill="none" xmlns="http://www.w3.org/2000/svg">
<path d="M411.83 66.783V33.391H378.439V0H66.787V512H445.221V233.739V66.783H411.83Z" fill="#46F8FF"/>
<path d="M256.004 0H66.787V512H256.004V0Z" fill="#9BFBFF"/>
<path d="M411.83 66.783V33.391H378.439V0H311.656V33.391V66.783V133.565H378.439H411.83H445.221V66.783H411.83Z" fill="#00D7DF"/>
<path d="M411.83 33.3911H378.439V66.7821H411.83V33.3911Z" fill="black"/>
<path d="M411.83 66.783V100.174H345.047V33.391H378.438V0H66.787V33.391V478.608V512H445.222V66.783H411.83ZM100.178 478.609V33.391H311.656V133.565H411.83V478.608H100.178V478.609Z" fill="black"/>
<path d="M378.439 200.348H133.569V233.739H378.439V200.348Z" fill="#005ECE"/>
<path d="M378.439 289.391H133.569V322.782H378.439V289.391Z" fill="#005ECE"/>
<path d="M378.439 378.435H133.569V411.826H378.439V378.435Z" fill="#005ECE"/>
</svg>
