<svg width="60" height="60" viewBox="0 0 60 60" fill="none" xmlns="http://www.w3.org/2000/svg">
<g clip-path="url(#clip0_14_5359)">
<path d="M42.5346 22.9336C42.2402 22.9336 42.0439 22.8355 41.8477 22.6392L37.6276 18.0267C37.4313 17.7323 37.3332 17.4379 37.3332 17.1434C37.3332 16.849 37.5296 16.5546 37.824 16.4565L43.3197 13.3161C43.8105 13.0216 44.3993 13.218 44.6937 13.7086C44.9881 14.1993 44.7918 14.7881 44.3012 15.0825L39.885 17.5361L43.3199 21.2654C43.7124 21.6579 43.6143 22.2467 43.2218 22.6393C43.0253 22.9336 42.829 22.9336 42.5346 22.9336Z" fill="#FFE100"/>
<path d="M46.6564 24.2096C46.362 24.2096 46.0676 24.0133 45.8713 23.7189L42.4364 18.4193C42.2401 18.223 42.2401 17.9286 42.2401 17.6342C42.3382 17.3397 42.5345 17.1434 42.8289 17.0453L48.7173 14.8862C49.208 14.6899 49.7969 14.9843 49.9931 15.475C50.1894 15.9658 49.895 16.5546 49.4042 16.7508L44.6935 18.5173L47.4414 22.7373C47.7358 23.228 47.6377 23.8169 47.147 24.1113C47.049 24.1115 46.8527 24.2096 46.6564 24.2096Z" fill="#FFE100"/>
<path d="M38.3146 22.6395C38.1183 22.6395 37.9221 22.5414 37.7257 22.4432L32.8188 18.5176C32.5244 18.3213 32.4263 18.0269 32.4263 17.7325C32.4263 17.4381 32.5244 17.1436 32.8188 16.9473L37.7257 13.0217C38.1183 12.7273 38.8053 12.7273 39.0997 13.218C39.3941 13.6106 39.3941 14.2976 38.9034 14.592L34.9778 17.7325L38.9034 20.8729C39.2959 21.1673 39.3941 21.8543 39.0997 22.2469C38.9034 22.5414 38.609 22.6395 38.3146 22.6395Z" fill="#FFE100"/>
<path d="M58.9238 53.0625C58.7275 53.0625 58.6294 53.0625 58.4331 52.9644C57.0591 52.1793 53.3298 49.6277 49.3061 43.8375C47.6377 41.3839 45.0861 39.8138 41.8476 39.0286C37.1368 37.9491 32.1318 39.1267 28.1081 42.2672C17.4109 50.5109 14.2705 50.609 13.289 49.9221C12.7983 49.6277 12.7002 49.0388 12.9946 48.5481C13.289 48.1556 13.7797 48.0574 14.1722 48.1556C14.4667 48.1556 17.2146 48.1556 26.9304 40.5988C31.4448 37.1639 37.0387 35.7899 42.3383 36.9676C46.0676 37.8508 49.0117 39.7155 50.9745 42.5616C54.8019 48.0574 58.2368 50.4128 59.5127 51.0997C60.0034 51.3941 60.1015 51.983 59.9052 52.4737C59.6109 52.8662 59.3165 53.0625 58.9238 53.0625Z" fill="#FFE100"/>
<path d="M2.00302 51.0994C1.70861 51.0994 1.3161 50.903 1.11978 50.6086C0.923466 50.1179 1.02168 49.5291 1.51229 49.2347C3.377 48.1551 5.92851 46.1923 9.06909 43.7389L9.16719 43.6408C13.6816 40.2059 19.2755 38.8319 24.5751 40.0096C25.5564 40.2059 26.5379 40.5003 27.4211 40.8928C27.9119 41.0891 28.1081 41.678 27.9119 42.1686C27.7157 42.6592 27.1267 42.8555 26.6361 42.6593C25.851 42.3649 25.0658 42.0705 24.1826 41.8742C19.4718 40.7946 14.4668 41.9723 10.4431 45.1127L10.345 45.2108C7.10641 47.6644 4.55477 49.7253 2.59197 50.9029C2.39554 51.0994 2.19922 51.0994 2.00302 51.0994Z" fill="#FFE100"/>
<path d="M38.3146 43.2488H36.3518C35.763 43.2488 35.3704 42.8563 35.3704 42.2675C35.3704 41.6786 35.763 41.2861 36.3518 41.2861H38.3146C38.9034 41.2861 39.2959 41.6786 39.2959 42.2675C39.2959 42.8562 38.9034 43.2488 38.3146 43.2488Z" fill="#FFE100"/>
<path d="M33.4076 46.1932H31.4448C30.856 46.1932 30.4635 45.8006 30.4635 45.2118C30.4635 44.623 30.856 44.2305 31.4448 44.2305H33.4076C33.9965 44.2305 34.389 44.623 34.389 45.2118C34.389 45.8006 33.9965 46.1932 33.4076 46.1932Z" fill="#FFE100"/>
<path d="M43.2215 46.1932H41.2587C40.6699 46.1932 40.2774 45.8006 40.2774 45.2118C40.2774 44.623 40.6699 44.2305 41.2587 44.2305H43.2215C43.8104 44.2305 44.2029 44.623 44.2029 45.2118C44.203 45.8006 43.8104 46.1932 43.2215 46.1932Z" fill="#FFE100"/>
<path d="M48.1285 49.1365H46.1657C45.5768 49.1365 45.1843 48.744 45.1843 48.1552C45.1843 47.5663 45.5768 47.1738 46.1657 47.1738H48.1285C48.7173 47.1738 49.1098 47.5663 49.1098 48.1552C49.1099 48.744 48.7173 49.1365 48.1285 49.1365Z" fill="#FFE100"/>
<path d="M38.3146 49.1365H36.3518C35.763 49.1365 35.3704 48.744 35.3704 48.1552C35.3704 47.5663 35.763 47.1738 36.3518 47.1738H38.3146C38.9034 47.1738 39.2959 47.5663 39.2959 48.1552C39.2959 48.744 38.9034 49.1365 38.3146 49.1365Z" fill="#FFE100"/>
<path d="M28.5007 49.1365H26.5379C25.9491 49.1365 25.5565 48.744 25.5565 48.1552C25.5565 47.5663 25.9491 47.1738 26.5379 47.1738H28.5007C29.0895 47.1738 29.482 47.5663 29.482 48.1552C29.482 48.744 29.0895 49.1365 28.5007 49.1365Z" fill="#FFE100"/>
<path d="M13.7797 19.6952C13.7797 14.5919 17.0183 10.1757 21.6309 8.60539C20.3552 8.21287 19.0793 7.91846 17.7053 7.91846C11.2281 7.91846 5.92863 13.218 5.92863 19.6952C5.92863 26.1723 11.2282 31.4719 17.7053 31.4719C19.0793 31.4719 20.3551 31.1774 21.6309 30.7849C17.0183 29.2146 13.7797 24.7984 13.7797 19.6952Z" fill="#FFE100"/>
<path d="M57.9425 52.0811C57.7462 52.0811 57.6481 52.0811 57.4518 51.983C56.0778 51.1978 52.3485 48.6462 48.3248 42.856C46.6564 40.4025 44.1048 38.8323 40.8662 38.0472C36.1555 36.9676 31.1504 38.1453 27.1267 41.2857C16.4295 49.5295 13.289 49.6276 12.3077 48.9406C11.8169 48.6462 11.7188 48.0574 12.0132 47.5667C12.3077 47.1741 12.7984 47.0759 13.1909 47.1741C13.4853 47.1741 16.2333 47.1741 25.9491 39.6173C30.4635 36.1825 36.0574 34.8085 41.3569 35.9862C45.0862 36.8694 48.0304 38.7341 49.9932 41.5801C53.8206 47.0759 57.2554 49.4314 58.5313 50.1183C59.022 50.4127 59.1201 51.0015 58.9238 51.4923C58.6294 51.8848 58.2369 52.0811 57.9425 52.0811Z" fill="black"/>
<path d="M1.02156 50.1189C0.727148 50.1189 0.334634 49.9226 0.138319 49.6282C-0.156096 49.1374 0.0402198 48.5486 0.530833 48.2542C2.39554 47.1746 4.84895 45.2118 8.08763 42.7584L8.28394 42.6603C12.7984 39.2254 18.3923 37.8515 23.6918 39.0291C24.6732 39.2254 25.6546 39.5199 26.5379 39.9124C27.0286 40.1087 27.2248 40.6975 27.0286 41.1881C26.8324 41.6787 26.2435 41.8751 25.7529 41.6789C24.9677 41.3844 24.1826 41.09 23.2993 40.8937C18.5886 39.8141 13.5835 40.9918 9.55982 44.1323L9.3635 44.2304C6.12494 46.6839 3.57331 48.6466 1.61051 49.8244C1.31598 50.1189 1.21788 50.1189 1.02156 50.1189Z" fill="black"/>
<path d="M37.3332 42.2674H35.3704C34.7816 42.2674 34.3891 41.8749 34.3891 41.286C34.3891 40.6972 34.7816 40.3047 35.3704 40.3047H37.3332C37.9221 40.3047 38.3146 40.6972 38.3146 41.286C38.3146 41.8749 37.9221 42.2674 37.3332 42.2674Z" fill="black"/>
<path d="M32.4262 45.2117H30.4634C29.8745 45.2117 29.482 44.8192 29.482 44.2304C29.482 43.6415 29.8745 43.249 30.4634 43.249H32.4262C33.015 43.249 33.4075 43.6415 33.4075 44.2304C33.4075 44.8192 33.015 45.2117 32.4262 45.2117Z" fill="black"/>
<path d="M42.2402 45.2117H40.2774C39.6886 45.2117 39.296 44.8192 39.296 44.2304C39.296 43.6415 39.6886 43.249 40.2774 43.249H42.2402C42.829 43.249 43.2215 43.6415 43.2215 44.2304C43.2215 44.8192 42.829 45.2117 42.2402 45.2117Z" fill="black"/>
<path d="M47.1471 48.156H45.1843C44.5955 48.156 44.203 47.7635 44.203 47.1747C44.203 46.5859 44.5955 46.1934 45.1843 46.1934H47.1471C47.736 46.1934 48.1285 46.5859 48.1285 47.1747C48.1285 47.7635 47.736 48.156 47.1471 48.156Z" fill="black"/>
<path d="M37.3332 48.156H35.3704C34.7816 48.156 34.3891 47.7635 34.3891 47.1747C34.3891 46.5859 34.7816 46.1934 35.3704 46.1934H37.3332C37.9221 46.1934 38.3146 46.5859 38.3146 47.1747C38.3146 47.7635 37.9221 48.156 37.3332 48.156Z" fill="black"/>
<path d="M27.5192 48.156H25.5564C24.9676 48.156 24.5751 47.7635 24.5751 47.1747C24.5751 46.5859 24.9676 46.1934 25.5564 46.1934H27.5192C28.108 46.1934 28.5006 46.5859 28.5006 47.1747C28.5006 47.7635 28.108 48.156 27.5192 48.156Z" fill="black"/>
<path d="M17.7053 32.4533C10.6393 32.4533 4.94717 26.7612 4.94717 19.6952C4.94717 12.6291 10.6393 6.93701 17.7053 6.93701C19.1774 6.93701 20.5514 7.23143 21.9253 7.72216C22.3179 7.82025 22.6123 8.21289 22.6123 8.6054C22.6123 8.99791 22.3179 9.39054 21.9253 9.48864C17.6072 11.0589 14.7612 15.1807 14.7612 19.6952C14.7612 24.2096 17.6072 28.3314 21.9253 29.9017C22.3179 29.9998 22.6123 30.3924 22.6123 30.7849C22.6123 31.1775 22.3179 31.5701 21.9253 31.6682C20.5514 32.1589 19.1774 32.4533 17.7053 32.4533ZM17.7053 8.89981C11.7188 8.89981 6.90997 13.7087 6.90997 19.6952C6.90997 25.6817 11.7188 30.4905 17.7053 30.4905C17.9997 30.4905 18.3923 30.4905 18.6867 30.4905C15.0555 28.1352 12.7983 24.1115 12.7983 19.6952C12.7983 15.2788 15.0555 11.2551 18.6867 8.89981C18.3923 8.89981 17.9997 8.89981 17.7053 8.89981Z" fill="black"/>
<path d="M41.5531 21.9522C41.2587 21.9522 41.0624 21.8541 40.8662 21.6578L36.6462 17.0452C36.4499 16.7508 36.3518 16.4564 36.3518 16.162C36.3518 15.8676 36.5481 15.5732 36.8425 15.4751L42.3383 12.3346C42.829 12.0402 43.4178 12.2365 43.7123 12.7271C44.0067 13.2179 43.8104 13.8067 43.3197 14.1011L38.9034 16.5546L42.3383 20.2839C42.7308 20.6764 42.6327 21.2653 42.2402 21.6579C42.0439 21.9522 41.8476 21.9522 41.5531 21.9522Z" fill="black"/>
<path d="M45.6751 23.2282C45.3806 23.2282 45.0862 23.0318 44.8899 22.7374L41.455 17.4379C41.2587 17.2415 41.2587 16.9471 41.2587 16.6527C41.3568 16.3583 41.5531 16.162 41.8476 16.0639L47.736 13.9048C48.2267 13.7084 48.8155 14.0029 49.0117 14.4936C49.208 14.9843 48.9136 15.5731 48.4229 15.7693L43.7121 17.5358L46.4601 21.7559C46.7545 22.2466 46.6564 22.8354 46.1657 23.1298C46.0676 23.1301 45.8714 23.2282 45.6751 23.2282Z" fill="black"/>
<path d="M37.3332 21.6581C37.1369 21.6581 36.9407 21.56 36.7444 21.4618L31.8375 17.5362C31.543 17.3399 31.4449 17.0454 31.4449 16.751C31.4449 16.4566 31.543 16.1622 31.8375 15.9659L36.7444 12.0403C37.1369 11.7459 37.824 11.7459 38.1184 12.2366C38.4128 12.6291 38.4128 13.3162 37.9221 13.6106L33.9965 16.751L37.9221 19.8915C38.3146 20.1859 38.4128 20.8728 38.1184 21.2655C37.9221 21.56 37.6277 21.6581 37.3332 21.6581Z" fill="black"/>
</g>
<defs>
<clipPath id="clip0_14_5359">
<rect width="60" height="60" fill="white"/>
</clipPath>
</defs>
</svg>
