<svg width="60" height="60" viewBox="0 0 60 60" fill="none" xmlns="http://www.w3.org/2000/svg">
<g clip-path="url(#clip0_16_14354)">
<path d="M49.7555 6.4993H47.948V4.52712C47.948 2.0298 45.9774 0 43.5525 0C41.126 0 39.1571 2.0298 39.1571 4.52712V6.49765H34.6465V4.52712C34.6465 2.0298 32.6759 0 30.251 0C27.8261 0 25.8556 2.0298 25.8556 4.52712V6.49765H21.3449V4.52712C21.3449 2.0298 19.3744 0 16.9495 0C14.5246 0 12.5541 2.0298 12.5541 4.52712V6.49765H10.2461C6.38899 6.49765 3.24963 9.63701 3.24963 13.4941V53.0035C3.24963 56.8606 6.38899 60 10.2461 60H49.7555C53.6143 60 56.752 56.8606 56.752 53.0035V13.4941C56.752 9.63865 53.6126 6.4993 49.7555 6.4993ZM41.6265 4.52712C41.6265 3.39287 42.4907 2.46934 43.5525 2.46934C44.616 2.46934 45.4786 3.39287 45.4786 4.52712V12.587C45.4786 13.7213 44.616 14.6448 43.5525 14.6448C42.4907 14.6448 41.6265 13.7213 41.6265 12.587V4.52712ZM28.3249 4.52712C28.3249 3.39287 29.1892 2.46934 30.251 2.46934C31.3128 2.46934 32.1771 3.39287 32.1771 4.52712V12.587C32.1771 13.7213 31.3128 14.6448 30.251 14.6448C29.1892 14.6448 28.3249 13.7213 28.3249 12.587V4.52712ZM15.0218 4.52712C15.0218 3.39287 15.8861 2.46934 16.9479 2.46934C18.0097 2.46934 18.874 3.39287 18.874 4.52712V12.587C18.874 13.7213 18.0097 14.6448 16.9479 14.6448C15.8861 14.6448 15.0218 13.7213 15.0218 12.587V4.52712ZM52.6364 53.0052C52.6364 54.5938 51.3441 55.8861 49.7555 55.8861H10.2461C8.65749 55.8861 7.3652 54.5938 7.3652 53.0052V16.7882H52.6364V53.0052Z" fill="black"/>
<path d="M18.6336 24.0776H11.0692V30.8091H18.6336V24.0776Z" fill="black"/>
<path d="M28.7316 24.0776H21.1655V30.8091H28.7316V24.0776Z" fill="black"/>
<path d="M38.8344 24.0776H31.27V30.8091H38.8344V24.0776Z" fill="black"/>
<path d="M48.9324 24.0776H41.3663V30.8091H48.9324V24.0776Z" fill="black"/>
<path d="M18.6336 33.063H11.0692V39.7895H18.6336V33.063Z" fill="black"/>
<path d="M28.7316 33.063H21.1655V39.7895H28.7316V33.063Z" fill="black"/>
<path d="M38.8344 33.063H31.27V39.7895H38.8344V33.063Z" fill="black"/>
<path d="M48.9324 33.063H41.3663V39.7895H48.9324V33.063Z" fill="black"/>
<path d="M18.6336 42.0444H11.0692V48.7709H18.6336V42.0444Z" fill="black"/>
<path d="M28.7316 42.0444H21.1655V48.7709H28.7316V42.0444Z" fill="black"/>
<path d="M38.8344 42.0444H31.27V48.7709H38.8344V42.0444Z" fill="black"/>
<path d="M48.9324 42.0444H41.3663V48.7709H48.9324V42.0444Z" fill="black"/>
</g>
<defs>
<clipPath id="clip0_16_14354">
<rect width="60" height="60" fill="white"/>
</clipPath>
</defs>
</svg>
