<svg width="60" height="60" viewBox="0 0 60 60" fill="none" xmlns="http://www.w3.org/2000/svg">
<g clip-path="url(#clip0_19_17191)">
<path d="M60 31.4438V25.9448C60 21.2914 55.3468 18.7533 51.5394 18.7533C48.8908 18.9604 46.3746 19.9965 44.3481 21.7144C43.4748 20.7938 42.4259 20.0574 41.2634 19.5488C40.1008 19.0402 38.8481 18.7697 37.5793 18.7533C34.9042 18.8439 32.3513 19.8952 30.3879 21.7144C29.6725 20.7187 28.7132 19.9234 27.6021 19.4049C26.491 18.8864 25.2653 18.662 24.0426 18.7533C22.78 18.6557 21.5163 18.9264 20.4045 19.5326C19.2927 20.1388 18.3806 21.0545 17.7787 22.1686L12.1984 34.8282L6.00206 20.6271C5.67083 19.8698 5.0536 19.2742 4.28496 18.9702C3.51633 18.6661 2.65866 18.6783 1.899 19.0041C1.51433 19.1688 1.16657 19.409 0.876275 19.7104C0.585981 20.0117 0.359039 20.3683 0.208858 20.7588C0.0586771 21.1494 -0.011696 21.5661 0.00189669 21.9843C0.0154894 22.4026 0.112772 22.8138 0.287997 23.1938L7.96875 39.9046C7.96875 39.9046 9.23793 42.8658 11.7759 42.8658C12.5549 42.9811 13.3501 42.8364 14.0384 42.454C14.7267 42.0716 15.2698 41.4729 15.5833 40.7506C16.1691 39.8718 20.61 30.5318 23.2854 24.8708C23.389 24.6521 23.5639 24.4752 23.7814 24.3692C23.9989 24.2632 24.246 24.2344 24.482 24.2876C24.718 24.3408 24.9289 24.4728 25.0799 24.6619C25.2309 24.851 25.313 25.0858 25.3127 25.3278V39.3655C25.3014 40.2389 25.6208 41.0842 26.2066 41.732C26.7925 42.3798 27.6016 42.7822 28.4717 42.8584C28.9341 42.8893 29.3978 42.8248 29.8343 42.669C30.2707 42.5133 30.6705 42.2695 31.0089 41.953C31.3473 41.6364 31.6171 41.2537 31.8016 40.8286C31.986 40.4034 32.0812 39.945 32.0812 39.4816V27.8483C32.0812 26.8947 32.4601 25.9801 33.1344 25.3058C33.8087 24.6315 34.7233 24.2526 35.6769 24.2526C36.6306 24.2526 37.5451 24.6315 38.2195 25.3058C38.8938 25.9801 39.2726 26.8947 39.2726 27.8483V39.4816C39.2726 40.3792 39.6292 41.24 40.2639 41.8747C40.8986 42.5094 41.7594 42.8659 42.657 42.8659C43.5546 42.8659 44.4154 42.5094 45.0501 41.8747C45.6848 41.24 46.0414 40.3792 46.0414 39.4816V27.8483C46.0414 26.8947 46.4202 25.9801 47.0945 25.3058C47.7688 24.6315 48.6834 24.2526 49.6371 24.2526C50.5907 24.2526 51.5053 24.6315 52.1796 25.3058C52.8539 25.9801 53.2327 26.8947 53.2327 27.8483V39.4816C53.2327 40.3792 53.5893 41.24 54.224 41.8747C54.8587 42.5094 55.7195 42.8659 56.6171 42.8659C57.5147 42.8659 58.3755 42.5094 59.0102 41.8747C59.6449 41.24 60.0015 40.3792 60.0015 39.4816L60 31.4438Z" fill="black"/>
</g>
<defs>
<clipPath id="clip0_19_17191">
<rect width="60" height="60" fill="white"/>
</clipPath>
</defs>
</svg>
