<svg width="512" height="512" viewBox="0 0 512 512" fill="none" xmlns="http://www.w3.org/2000/svg">
<g clip-path="url(#clip0_10_276)">
<path d="M256.004 512C397.389 512 512.004 397.385 512.004 256C512.004 114.615 397.389 0 256.004 0C114.619 0 0.00402832 114.615 0.00402832 256C0.00402832 397.385 114.619 512 256.004 512Z" fill="#E5E5E5"/>
<path d="M344.004 456H168.004V464H344.004V456Z" fill="#CCCCCC"/>
<path d="M312.004 456H200.004L208.004 400H304.004L312.004 456Z" fill="#ADADAD"/>
<path d="M448.004 360V392C448.004 396.4 444.404 400 440.004 400H72.004C67.604 400 64.004 396.4 64.004 392V360H448.004Z" fill="#CCCCCC"/>
<path d="M432.004 120H80.004V344H432.004V120Z" fill="white"/>
<path d="M440.004 104H72.004C67.604 104 64.004 107.6 64.004 112V360H448.004V112C448.004 107.6 444.404 104 440.004 104ZM432.004 344H80.004V120H432.004V344Z" fill="#3B3B3B"/>
<path d="M432.004 120H80.004V344H432.004V120Z" fill="white"/>
<path d="M376.004 144H272.004V320H376.004V144Z" fill="#CCCCCC"/>
<path d="M248.004 144H136.004V320H248.004V144Z" fill="#CCCCCC"/>
</g>
<defs>
<clipPath id="clip0_10_276">
<rect width="512" height="512" fill="white" transform="translate(0.00402832)"/>
</clipPath>
</defs>
</svg>
