<svg width="60" height="61" viewBox="0 0 60 61" fill="none" xmlns="http://www.w3.org/2000/svg">
<path d="M30.4809 56.6195C44.6522 56.6195 56.1403 45.1314 56.1403 30.9602C56.1403 16.7889 44.6522 5.30078 30.4809 5.30078C16.3096 5.30078 4.82153 16.7889 4.82153 30.9602C4.82153 45.1314 16.3096 56.6195 30.4809 56.6195Z" fill="#FFE9CC"/>
<path d="M30.5287 52.9305C42.6362 52.9305 52.4512 43.1154 52.4512 31.0079C52.4512 18.9005 42.6362 9.08545 30.5287 9.08545C18.4212 9.08545 8.6062 18.9005 8.6062 31.0079C8.6062 43.1154 18.4212 52.9305 30.5287 52.9305Z" fill="#FFD59E"/>
<path d="M28.0003 46.859C37.5717 46.859 45.3309 39.0998 45.3309 29.5284C45.3309 19.9569 37.5717 12.1978 28.0003 12.1978C18.4289 12.1978 10.6697 19.9569 10.6697 29.5284C10.6697 39.0998 18.4289 46.859 28.0003 46.859Z" fill="#C45C00"/>
<path d="M9.41996 25.2732C9.41996 25.2732 14.1937 20.9607 19.3631 21.8682C24.5325 22.7757 25.3031 27.8682 23.2068 29.8078C23.2068 29.8078 22.5225 29.7253 22.1596 28.5975C21.7968 27.4697 20.6756 25.0275 18.4518 25.035C16.2281 25.0425 13.8515 25.3932 8.99059 29.2763C8.86381 27.9266 9.00983 26.5652 9.41996 25.2732Z" fill="#C98019"/>
<path d="M27.4941 20.2707C27.4941 20.2707 34.2975 15.7989 38.7169 20.5951C39.5981 22.1969 40.6593 23.6929 41.88 25.0539C43.1841 26.2126 46.4737 27.2045 46.2862 31.2189C46.0987 35.2332 44.2294 36.5626 43.1812 36.6564C42.1331 36.7501 36.1941 35.8839 34.8553 37.7589C33.5166 39.6339 34.1484 44.1929 32.4459 46.3201C30.7434 48.4473 22.7719 45.4426 25.0772 39.5701C27.3825 33.6976 23.4478 30.407 22.7128 28.8357C21.9778 27.2645 20.0466 23.3307 25.3125 21.4876C30.5784 19.6445 29.4028 23.5023 28.0125 23.9636C26.6222 24.4248 23.9559 24.7314 24.4678 27.5345C24.9797 30.3376 28.3828 31.6032 28.1466 35.6907C27.9103 39.7782 26.2219 40.8245 27.0262 42.4464C27.8306 44.0682 30.5728 45.5804 31.1597 43.8001C31.7466 42.0198 31.0434 36.8214 34.5937 34.7279C38.1441 32.6345 42.0075 34.9979 43.1437 33.8767C44.28 32.7554 44.1094 29.8811 41.8228 28.2704C39.7396 26.7139 38.0332 24.7088 36.8297 22.4036C35.7047 20.3776 31.7372 20.4151 28.2984 22.4804C24.8597 24.5457 24.375 22.1523 27.4941 20.2707Z" fill="#EB9800"/>
<path d="M25.0228 18.0444C25.0228 18.0444 22.319 14.6788 25.2271 11.4754C28.1353 8.27193 37.335 10.611 36.464 15.6547C35.5931 20.6985 36.6862 20.5344 38.0578 21.4419C39.4293 22.3494 41.8228 22.1582 43.6518 23.2691C45.4809 24.3801 47.0165 26.6779 44.519 29.8579C43.3536 31.4284 41.6604 32.5254 39.7507 32.947C37.841 33.3687 35.8433 33.0867 34.125 32.1529C30.1725 30.2282 27.3168 28.7329 25.3509 33.9407C23.385 39.1485 22.3959 43.0288 19.4775 43.2669C16.559 43.5051 15.8709 42.4588 17.0287 41.1547C18.1865 39.8507 19.4662 41.1913 20.6043 39.4766C21.7425 37.7619 21.7068 35.2766 24.27 31.5491C26.8331 27.8216 30.4162 28.2201 33.959 30.1691C34.5968 30.5713 35.3087 30.8414 36.0527 30.9637C36.7967 31.0859 37.5577 31.0576 38.2906 30.8806C39.0235 30.7036 39.7134 30.3815 40.3196 29.9332C40.9259 29.4849 41.436 28.9196 41.82 28.2707C43.2721 26.076 42.765 24.4579 36.764 23.841C36.764 23.841 32.5406 22.6222 33.21 18.6313C33.8793 14.6404 32.7318 12.4972 30.2231 12.4157C27.7143 12.3341 25.6687 14.3844 26.8218 18.0782C27.975 21.7719 25.0228 18.0444 25.0228 18.0444Z" fill="#D68B00"/>
<path d="M44.6184 25.3841C44.6184 25.3841 45.6956 20.4762 41.535 17.8231C37.3744 15.17 33.6262 19.4937 31.7025 23.4481C29.7787 27.4025 31.4559 30.9762 29.0625 32.6497C26.669 34.3231 22.47 32.3309 19.875 32.6825C17.28 33.034 10.814 37.1403 19.0312 44.2494C27.2484 51.3584 36.9553 43.3869 38.2256 41.4659C39.4959 39.545 39.8981 37.4459 41.5584 35.9806C43.2187 34.5153 40.0462 34.0925 39.2287 35.0309C38.0623 36.4618 37.0854 38.0374 36.3225 39.7184C35.4169 41.6872 30.5672 44.0956 27.0778 44.1537C23.5884 44.2119 18.7697 42.4044 18.1162 38.3244C17.4628 34.2444 23.3756 35.5915 24.6787 36.1569C25.9819 36.7222 33.75 35.5522 33.75 28.8472C33.75 22.1422 37.8684 19.9409 40.6303 20.3834C43.3922 20.8259 42.3834 26.0787 41.5884 26.8344C40.7934 27.59 37.3594 30.5441 32.9634 27.0481L32.1281 29.3544C32.1281 29.3544 35.8144 33.1728 39.7772 31.6531C43.74 30.1334 44.6184 25.3841 44.6184 25.3841Z" fill="#EBBA1D"/>
<path d="M21.1228 30.7221C21.1228 30.7221 15.3768 26.5521 20.0072 20.2221C24.6375 13.8921 33.2109 14.9074 33.75 17.7789C34.289 20.6505 32.264 23.3786 34.6875 26.9786C37.1109 30.5786 42.0543 30.1511 44.1562 35.4639C46.2581 40.7767 37.4062 47.3421 31.8825 42.2814C26.3587 37.2208 30.9618 33.8346 32.445 33.0424C33.9281 32.2502 34.5337 33.6846 33.7172 34.9174C32.9006 36.1502 29.3859 38.7817 34.3565 41.5521C39.3272 44.3224 44.3006 38.3692 41.3137 35.2839C38.3268 32.1986 37.5947 33.4155 33.8512 29.4602C30.1078 25.5049 31.5665 21.9602 31.5787 20.4883C31.5909 19.0164 29.8378 16.7477 26.8143 18.0761C23.7909 19.4046 16.9003 24.903 23.369 30.4389C23.3793 30.4408 23.5715 31.6033 21.1228 30.7221Z" fill="#FFCA1F"/>
<path d="M45.6824 24.946C45.6824 24.946 39.7631 21.5232 35.9062 28.2422C32.0493 34.9613 43.7906 38.9794 44.6006 35.9653C45.4106 32.9513 44.3428 34.1194 42.9074 34.3519C41.4721 34.5844 36.3449 34.741 37.2328 29.2182C38.0062 24.4303 43.9087 25.3322 45.2165 26.52C45.3018 26.6053 45.4057 26.6697 45.52 26.7083C45.6343 26.7468 45.7559 26.7584 45.8754 26.7422C45.995 26.7259 46.1091 26.6823 46.209 26.6146C46.3089 26.547 46.3918 26.4572 46.4512 26.3522C46.6228 26.0091 46.5206 25.5413 45.6824 24.946Z" fill="#FFD85E"/>
<path d="M30.8437 38.1761C30.8437 38.1761 34.7193 36.0067 34.1597 32.6045C33.6 29.2023 33.0347 29.9401 33.1284 30.5898C33.2222 31.2395 34.079 33.512 32.7853 35.2445C32.1629 36.2569 31.3177 37.114 30.314 37.7504C28.9631 38.7817 30.569 38.3654 30.8437 38.1761Z" fill="#FFE38A"/>
<path d="M29.5828 16.0455C29.5828 16.0455 32.6091 15.6077 33.2831 17.6065C33.9572 19.6052 33.5428 18.4436 32.6166 17.8314C31.6903 17.2193 27.6347 16.7589 29.5828 16.0455Z" fill="#FFD85E"/>
<path d="M34.4184 50.0833C42.872 50.0833 49.7249 43.2304 49.7249 34.7768C49.7249 26.3232 42.872 19.4702 34.4184 19.4702C25.9648 19.4702 19.1118 26.3232 19.1118 34.7768C19.1118 43.2304 25.9648 50.0833 34.4184 50.0833Z" fill="#D96600"/>
<path d="M41.9268 49.844C41.9268 49.844 44.6372 44.8509 42.7875 40.6012C40.9378 36.3515 36.404 36.7471 35.1731 38.9493C35.1731 38.9493 35.3868 39.5202 36.4303 39.5981C37.4737 39.6759 39.8053 40.1315 40.2572 42.0421C40.709 43.9527 40.904 46.0649 38.579 51.0421C39.764 50.8713 40.9026 50.4639 41.9268 49.844Z" fill="#C98019"/>
<path d="M42.4687 33.2898C42.4687 33.2898 44.8959 26.522 39.8606 23.7273C38.3027 23.3029 36.7982 22.7021 35.3765 21.9366C34.1118 21.0573 32.5781 18.4407 29.1712 19.4373C25.7643 20.4338 25.0124 22.3079 25.1484 23.2276C25.2843 24.1473 27.2615 29.0616 25.9293 30.6001C24.5971 32.1385 20.5528 32.5416 19.0799 34.4438C17.6071 36.346 21.8399 42.5663 26.4009 39.3695C30.9618 36.1726 34.6049 38.867 36.1059 39.1726C37.6068 39.4782 41.3896 40.3173 41.8799 35.417C42.3703 30.5166 39.3018 32.3232 39.194 33.6132C39.0862 34.9032 39.3815 37.2554 36.8643 37.3979C34.3471 37.5404 32.5593 34.8807 29.1028 35.9307C25.6462 36.9807 25.0903 38.6495 23.5359 38.2913C21.9815 37.9332 20.1084 35.897 21.5156 35.0241C22.9228 34.1513 27.5306 33.676 28.5871 30.1941C29.6437 26.7123 26.8171 23.8838 27.5437 22.6791C28.2703 21.4745 30.7734 21.0207 32.6306 22.6491C34.3987 24.1147 36.4741 25.1634 38.7028 25.7176C40.6715 26.2632 41.4665 29.6776 40.4071 33.0563C39.3478 36.4351 41.5031 36.3573 42.4687 33.2898Z" fill="#EB9800"/>
<path d="M44.895 34.9465C45.859 35.3941 46.9506 35.4851 47.9755 35.2034C49.0003 34.9217 49.892 34.2855 50.4919 33.4081C52.6387 30.2468 48.7218 22.8349 44.5734 24.6293C40.425 26.4237 40.3378 25.4506 39.2737 24.4615C38.2097 23.4724 37.875 21.3799 36.5447 20.0403C35.2143 18.7006 32.9194 17.8587 30.7087 20.6618C29.6031 21.9882 29.0133 23.6691 29.0478 25.3956C29.0822 27.122 29.7386 28.778 30.8962 30.0593C33.3684 33.0537 35.2453 35.1949 31.1775 37.9634C27.1097 40.7318 23.9897 42.3856 24.39 44.9402C24.7903 47.4949 25.8319 47.869 26.7112 46.6043C27.5906 45.3396 26.1731 44.5165 27.4097 43.1871C28.6462 41.8578 30.7847 41.3693 33.4547 38.3946C36.1247 35.4199 35.0372 32.4274 32.6297 29.7912C32.1522 29.327 31.7726 28.7718 31.5134 28.1583C31.2543 27.5449 31.1207 26.8857 31.1207 26.2198C31.1207 25.5538 31.2543 24.8947 31.5134 24.2812C31.7726 23.6678 32.1522 23.1126 32.6297 22.6484C34.2122 20.9468 35.7065 21.0462 37.4812 26.0693C37.4812 26.0693 39.4022 29.4443 42.6909 28.0381C45.9797 26.6318 48.0562 27.1756 48.6468 29.3121C49.2375 31.4487 47.9062 33.634 44.4928 33.4099C41.0793 33.1859 44.895 34.9465 44.895 34.9465Z" fill="#D68B00"/>
<path d="M34.5262 19.6509C34.5262 19.6509 38.5153 17.7084 41.6568 20.7291C44.7984 23.7497 41.864 27.8644 38.8696 30.3366C35.8753 32.8087 32.459 32.1103 31.5178 34.5084C30.5765 36.9066 33.1593 40.1016 33.3928 42.4059C33.6262 44.7103 31.4474 51.1097 23.6428 45.5334C15.8381 39.9572 20.6643 29.9709 22.049 28.4794C23.4337 26.9878 25.1531 26.2087 26.0671 24.4791C26.9812 22.7494 28.0012 25.3856 27.3656 26.2828C26.379 27.5812 25.2292 28.7471 23.9446 29.7516C22.4446 30.9356 21.3815 35.5997 22.0556 38.6072C22.7296 41.6147 25.2815 45.3759 28.919 45.0909C32.5565 44.8059 30.1743 40.0087 29.4187 39.0084C28.6631 38.0081 28.0528 31.0931 33.8099 29.7028C39.5671 28.3125 40.604 24.3178 39.6478 22.0397C38.6915 19.7616 34.3978 21.7162 33.9112 22.5553C33.4246 23.3944 31.6031 26.9559 35.5162 30L33.7106 31.1962C33.7106 31.1962 29.6681 28.8244 30.1481 25.1025C30.6281 21.3806 34.5262 19.6509 34.5262 19.6509Z" fill="#EBBA1D"/>
<path d="M34.8206 40.9284C34.8206 40.9284 39.5934 44.9953 44.0653 39.7096C48.5371 34.424 45.8887 27.2718 43.3153 27.404C40.7418 27.5362 38.8153 29.8415 35.2228 28.5065C31.6303 27.1715 30.9712 22.8403 25.9734 22.1315C20.9756 21.4228 17.1731 30.3899 22.664 34.0837C28.155 37.7774 30.1059 33.1209 30.4781 31.6809C30.8503 30.2409 29.4928 30.0206 28.6031 30.9778C27.7134 31.9349 26.1843 35.4984 22.7747 31.8056C19.365 28.1128 23.444 22.6087 26.7122 24.5334C29.9803 26.4581 29.0878 27.3374 33.2597 29.7309C37.4315 32.1243 40.1728 30.1359 41.4337 29.8246C42.6947 29.5134 45.0056 30.5437 44.4928 33.4143C43.98 36.2849 40.6875 43.3368 34.5937 38.9324C34.5937 38.9324 33.5568 39.0084 34.8206 40.9284Z" fill="#FFCA1F"/>
<path d="M50.9409 37.9943C49.4631 37.4678 48.17 36.5233 47.2191 35.2756C45.2081 32.959 42.5766 30.5102 37.2656 32.8606C31.9547 35.2109 32.7141 41.2737 36.7369 43.8293C36.7369 43.8293 38.0597 44.1668 36.6131 42.5234C35.1666 40.8799 33.749 37.9249 36.5194 35.7434C39.2897 33.5618 41.9091 33.4671 44.2172 35.4621C46.5253 37.4571 47.6119 39.8102 50.3316 40.4056C50.6536 39.6366 50.859 38.8239 50.9409 37.9943Z" fill="#FFD03B"/>
<path d="M42.6065 48.3928C42.6065 48.3928 49.6331 46.5975 49.3565 37.7812C49.3565 37.7812 48.8419 33.1368 43.7006 33.7846C38.5593 34.4325 36.6562 32.9606 35.0128 31.2093C33.3694 29.4581 30.0853 28.1887 26.9437 31.8862C23.8022 35.5837 26.9934 47.1084 35.055 45.1593C43.1165 43.2103 35.4244 50.0409 34.1475 49.8946C32.8706 49.7484 32.3203 49.4596 30.4509 47.8696C28.5815 46.2796 24.5494 41.339 19.9012 41.7759C19.9012 41.7759 19.4906 42.1378 20.7328 43.4418C21.975 44.7459 23.4103 42.8793 27.9253 47.3053C32.4403 51.7312 34.0012 53.3287 39.0984 48.2493C44.1956 43.17 39.2859 42.7696 38.1356 42.9656C36.9853 43.1615 32.6775 44.4346 30.2278 41.7103C27.7781 38.9859 27.4603 34.4493 29.5172 32.7168C31.574 30.9843 32.8678 31.5918 34.5197 33.5765C36.1715 35.5612 40.7587 36.6271 43.7306 35.6718C46.7025 34.7165 48.9712 38.835 46.11 43.9106C43.2487 48.9862 36.0637 47.5893 34.5937 47.415C33.3684 47.2668 29.0222 46.6959 27.0815 48.0009C26.9409 48.1012 26.8261 48.2336 26.7468 48.3871C26.6674 48.5406 26.6258 48.7107 26.6252 48.8835C26.6247 49.0563 26.6652 49.2267 26.7436 49.3807C26.822 49.5347 26.9359 49.6678 27.0759 49.769C27.4193 50.0811 27.8723 50.2446 28.3359 50.2237C29.1403 50.0475 28.4944 48.7237 37.9875 49.1062C39.1044 49.15 40.222 49.0361 41.3072 48.7678C41.7384 48.6581 42.1875 48.5334 42.6065 48.3928Z" fill="#FFD85E"/>
<path d="M34.6875 18.646C34.6875 18.646 38.8537 23.0176 33.885 27.7191C28.9162 32.4207 23.0325 23.1788 25.4475 21.8579C27.8625 20.537 27.0862 21.6957 27.1837 22.9773C27.2812 24.2588 28.215 28.696 32.7684 26.7835C36.7181 25.126 34.7194 20.2454 33.4247 19.3698C33.3338 19.3142 33.2569 19.2384 33.2001 19.1483C33.1433 19.0581 33.1081 18.9561 33.0972 18.8501C33.0863 18.7442 33.1001 18.6371 33.1373 18.5373C33.1746 18.4375 33.2345 18.3476 33.3122 18.2748C33.5756 18.0601 33.9984 18.0498 34.6875 18.646Z" fill="#FFD85E"/>
<path d="M26.4056 34.1306C26.4056 34.1306 27.4631 30.3544 30.4997 30.1284C33.5362 29.9025 33.0206 30.5381 32.444 30.5972C31.8675 30.6563 29.7384 30.3863 28.5197 31.8563C27.7797 32.6009 27.2192 33.5044 26.8809 34.4981C26.2753 35.8697 26.2997 34.4044 26.4056 34.1306Z" fill="#FFE38A"/>
<path d="M45.6647 30.6206C45.6647 30.6206 45.4134 27.9319 43.5572 27.7678C41.7009 27.6038 42.7847 27.7181 43.5028 28.3866C44.2209 29.055 45.4612 32.4394 45.6647 30.6206Z" fill="#FFD85E"/>
<path d="M20.0625 12.2008C20.0625 12.2008 20.9578 13.9764 24.0431 15.5758C27.1284 17.1751 30.5222 19.4195 29.3484 25.8883C28.1747 32.357 21.3009 33.1351 17.4216 29.3861C17.4216 29.3861 16.6978 28.0201 18.8916 29.1761C21.0853 30.332 24.7144 31.1045 26.3775 27.4726C28.0406 23.8408 27.4491 20.9345 24.6366 18.9254C21.8241 16.9164 18.9478 16.3464 17.5697 13.5114C17.5716 13.5095 19.5506 12.1567 20.0625 12.2008Z" fill="#FFD03B"/>
<path d="M10.8356 24.1398C10.8356 24.1398 10.9434 15.9282 20.7196 13.892C20.7196 13.892 25.9696 13.2226 26.6259 19.0539C27.2821 24.8851 29.4065 26.5876 31.7728 27.9301C34.139 29.2726 36.4078 32.5492 33.1734 36.9911C29.939 41.4329 16.4062 40.9857 16.4062 31.5948C16.4062 22.2039 10.9359 32.4864 11.4374 33.8532C11.939 35.2201 12.4021 35.7489 14.6493 37.3829C16.8965 39.017 23.4075 42.1407 24.1621 47.3729C24.1621 47.3729 23.8724 47.9204 22.1071 46.9042C20.3418 45.8879 22.0134 43.8104 15.9412 40.0164C9.86901 36.2223 7.6912 34.9314 11.9296 27.9714C16.1681 21.0114 17.9109 26.3073 18.0009 27.6245C18.0909 28.9417 17.8359 34.022 21.4865 35.9936C25.1371 37.9651 30.2118 37.1026 31.5703 34.3839C32.9287 31.6651 31.9153 30.3967 29.2931 29.1057C26.6709 27.8148 24.2812 23.0476 24.5381 19.5226C24.795 15.9976 19.6631 14.597 14.8378 19.0961C10.0124 23.5951 13.4606 31.1261 14.0484 32.6964C14.5378 34.0089 16.3218 38.6364 15.4012 41.1198C15.3281 41.3012 15.2128 41.4626 15.065 41.5907C14.9172 41.7187 14.741 41.8098 14.5511 41.8563C14.3611 41.9028 14.1628 41.9035 13.9725 41.8582C13.7823 41.813 13.6055 41.7231 13.4568 41.5961C13.0224 41.3009 12.7221 40.846 12.6215 40.3304C12.6018 39.3986 14.2284 39.7576 11.2837 29.4114C10.9392 28.1936 10.7675 26.9335 10.7737 25.6679C10.7756 25.1654 10.7915 24.6339 10.8356 24.1398Z" fill="#FFE38C"/>
<path d="M24.8962 15.2158C24.8962 15.2158 26.4666 16.0727 26.7881 20.2858C26.9118 21.8952 27.4461 23.446 28.34 24.7901C29.2338 26.1341 30.4574 27.2266 31.8937 27.963C32.5711 28.3173 33.1667 28.8097 33.6422 29.4083C34.1176 30.007 34.4623 30.6986 34.6541 31.4386C34.8459 32.1786 34.8804 32.9506 34.7555 33.7048C34.6307 34.459 34.3491 35.1787 33.9291 35.8174C33.9291 35.8174 36.3216 30.7474 31.6078 28.2124C26.8941 25.6774 26.5387 22.2124 26.3241 20.2146C26.1094 18.2168 26.0737 16.8227 24.8962 15.2158Z" fill="#FFF4D1"/>
<path d="M42.629 19.1909C42.0866 18.3736 41.2802 17.7671 40.3445 17.4726C39.4089 17.1781 38.4005 17.2135 37.4878 17.5728C37.4878 17.5728 36.4406 18.1915 37.8206 18.0968C38.6152 17.9507 39.4329 17.9909 40.2093 18.2142C40.9857 18.4376 41.6998 18.838 42.2953 19.384C43.724 20.81 42.8193 19.429 42.629 19.1909Z" fill="#FFD03B"/>
<path d="M32.9653 34.2348C32.9653 34.2348 34.1071 32.521 33.2465 31.0923C32.3859 29.6635 32.7881 29.416 33.2559 29.731C33.6975 30.1446 34.038 30.6542 34.2511 31.2204C34.4642 31.7866 34.5442 32.3942 34.4849 32.9963C34.4146 34.7776 33.2943 37.2816 31.3912 37.9004C29.4881 38.5191 30.6796 36.7576 32.9653 34.2348Z" fill="#FFF0C2"/>
<path d="M13.304 26.1412C13.304 26.1412 15.0178 24.1893 16.1606 24.7134C16.5961 24.9948 16.9604 25.3734 17.2247 25.8195C17.4891 26.2655 17.6463 26.7669 17.684 27.284C17.7309 27.7603 17.8715 29.9025 17.9653 30.4256C18.059 30.9487 17.3943 30.8071 17.3465 29.8546C17.2987 28.9021 17.3465 25.5703 16.0134 25.3321C15.5321 25.2521 15.0379 25.3129 14.5903 25.5071C14.1427 25.7014 13.7608 26.0209 13.4906 26.4271C13.1615 26.9034 13.1137 26.4271 13.304 26.1412Z" fill="#FFF0C2"/>
<path d="M23.8125 15.1537L23.6971 16.1616C23.6826 16.2935 23.7028 16.4269 23.7557 16.5486C23.8087 16.6703 23.8925 16.776 23.9989 16.8553C24.1053 16.9346 24.2306 16.9847 24.3623 17.0007C24.4941 17.0166 24.6277 16.9979 24.75 16.9462L24.7743 16.9359C24.898 16.8838 25.0057 16.7999 25.0865 16.6927C25.1673 16.5856 25.2184 16.4589 25.2345 16.3257C25.2506 16.1924 25.2311 16.0573 25.1781 15.9339C25.1252 15.8106 25.0405 15.7035 24.9328 15.6234L24.1228 15.0122C24.0946 14.9921 24.0617 14.9798 24.0273 14.9765C23.9929 14.9732 23.9582 14.979 23.9267 14.9933C23.8953 15.0077 23.8682 15.0301 23.8481 15.0582C23.828 15.0864 23.8157 15.1193 23.8125 15.1537Z" fill="white"/>
<path d="M21.2953 25.2694L20.4515 25.8319C20.3411 25.9062 20.2521 26.0081 20.1934 26.1275C20.1346 26.2469 20.1082 26.3796 20.1167 26.5124C20.1253 26.6452 20.1685 26.7734 20.242 26.8843C20.3156 26.9952 20.4169 27.0849 20.5359 27.1444L20.5594 27.1557C20.6788 27.2152 20.8119 27.2422 20.9451 27.2341C21.0783 27.2261 21.2071 27.1832 21.3186 27.1097C21.43 27.0362 21.5202 26.9348 21.5801 26.8155C21.64 26.6962 21.6676 26.5633 21.66 26.43L21.6019 25.4166C21.5988 25.3824 21.5869 25.3497 21.5674 25.3215C21.5479 25.2933 21.5214 25.2707 21.4904 25.2558C21.4595 25.241 21.4253 25.2344 21.3911 25.2368C21.3569 25.2392 21.3239 25.2504 21.2953 25.2694Z" fill="white"/>
<path d="M16.6537 37.5516L15.8099 38.1141C15.6995 38.1884 15.6105 38.2903 15.5518 38.4097C15.493 38.5291 15.4666 38.6618 15.4751 38.7946C15.4837 38.9274 15.5269 39.0557 15.6004 39.1666C15.674 39.2774 15.7753 39.3671 15.8943 39.4266L15.9178 39.4379C16.0372 39.4974 16.1703 39.5244 16.3035 39.5164C16.4367 39.5083 16.5655 39.4654 16.677 39.3919C16.7884 39.3184 16.8786 39.217 16.9385 39.0977C16.9984 38.9785 17.026 38.8455 17.0184 38.7123L16.9603 37.6988C16.9572 37.6647 16.9453 37.6319 16.9258 37.6037C16.9063 37.5755 16.8798 37.5529 16.8488 37.538C16.8179 37.5232 16.7837 37.5166 16.7495 37.519C16.7153 37.5214 16.6823 37.5327 16.6537 37.5516Z" fill="white"/>
<path d="M41.2893 37.8367L40.4456 38.3993C40.3354 38.4737 40.2466 38.5757 40.188 38.695C40.1295 38.8144 40.1031 38.947 40.1117 39.0797C40.1202 39.2124 40.1633 39.3405 40.2367 39.4514C40.31 39.5623 40.4111 39.652 40.5299 39.7117L40.5543 39.7239C40.6737 39.7835 40.8067 39.8106 40.9399 39.8026C41.0732 39.7945 41.2019 39.7516 41.3133 39.6781C41.4247 39.6046 41.5148 39.5031 41.5746 39.3838C41.6344 39.2645 41.6618 39.1315 41.654 38.9983L41.5959 37.9849C41.593 37.9506 41.5812 37.9177 41.5618 37.8894C41.5423 37.8611 41.5158 37.8384 41.4848 37.8234C41.4539 37.8085 41.4196 37.8018 41.3853 37.8042C41.351 37.8065 41.3179 37.8177 41.2893 37.8367Z" fill="white"/>
<path d="M39.1115 19.1029L38.8425 20.0807C38.8078 20.2092 38.8073 20.3445 38.8411 20.4732C38.875 20.6019 38.9419 20.7195 39.0353 20.8143C39.1287 20.9091 39.2453 20.9778 39.3734 21.0136C39.5016 21.0494 39.6369 21.051 39.7659 21.0182L39.7922 21.0116C39.9215 20.9786 40.0399 20.9121 40.1354 20.8189C40.231 20.7256 40.3003 20.6089 40.3365 20.4804C40.3727 20.3519 40.3744 20.2162 40.3416 20.0868C40.3087 19.9574 40.2424 19.8389 40.1494 19.7432L39.4434 19.0148C39.4191 18.9897 39.3884 18.9716 39.3547 18.9622C39.321 18.9529 39.2855 18.9527 39.2517 18.9617C39.2179 18.9706 39.1871 18.9885 39.1625 19.0133C39.1378 19.0381 39.1203 19.069 39.1115 19.1029Z" fill="white"/>
<path d="M30.9375 45.3229L30.4866 46.2313C30.4272 46.3509 30.4003 46.484 30.4086 46.6173C30.4168 46.7505 30.4599 46.8793 30.5336 46.9906C30.6073 47.102 30.7089 47.192 30.8283 47.2518C30.9478 47.3115 31.0808 47.3388 31.214 47.331H31.2403C31.3735 47.323 31.5022 47.2803 31.6136 47.207C31.7251 47.1337 31.8154 47.0325 31.8754 46.9134C31.9355 46.7943 31.9633 46.6615 31.956 46.5283C31.9486 46.3951 31.9065 46.2662 31.8337 46.1544L31.2797 45.3041C31.2607 45.275 31.2344 45.2514 31.2034 45.2357C31.1724 45.22 31.1379 45.2128 31.1032 45.2147C31.0685 45.2166 31.0349 45.2276 31.0058 45.2465C30.9767 45.2655 30.9532 45.2919 30.9375 45.3229Z" fill="white"/>
<path d="M28.275 34.3117L27.5728 33.5786C27.4804 33.4824 27.3644 33.4121 27.2363 33.3747C27.1082 33.3374 26.9726 33.3343 26.8429 33.3658C26.7133 33.3973 26.5942 33.4623 26.4975 33.5543C26.4009 33.6462 26.3301 33.7619 26.2922 33.8899L26.2847 33.9152C26.247 34.0429 26.2435 34.1783 26.2744 34.3078C26.3053 34.4373 26.3697 34.5565 26.461 34.6534C26.5523 34.7503 26.6675 34.8216 26.7949 34.8602C26.9224 34.8988 27.0577 34.9033 27.1875 34.8733L28.1746 34.6408C28.2088 34.6331 28.2402 34.6166 28.2659 34.5928C28.2915 34.569 28.3104 34.5389 28.3206 34.5055C28.3308 34.472 28.3319 34.4365 28.3239 34.4024C28.3159 34.3684 28.299 34.3371 28.275 34.3117Z" fill="white"/>
<path d="M42.7349 30.3019L43.7362 30.135C43.868 30.1135 43.9919 30.0577 44.0954 29.9732C44.1989 29.8888 44.2783 29.7786 44.3258 29.6537C44.3733 29.5288 44.3871 29.3937 44.3659 29.2618C44.3447 29.1299 44.2892 29.0059 44.2049 28.9022L44.1881 28.8816C44.1039 28.778 43.9939 28.6984 43.8692 28.6508C43.7446 28.6031 43.6095 28.5891 43.4777 28.6101C43.3459 28.631 43.2219 28.6863 43.1182 28.7703C43.0145 28.8544 42.9347 28.9642 42.8868 29.0888L42.5212 30.0357C42.5089 30.0679 42.5052 30.1028 42.5106 30.1369C42.5159 30.171 42.5301 30.2031 42.5517 30.2301C42.5734 30.257 42.6016 30.2778 42.6338 30.2904C42.6659 30.303 42.7008 30.307 42.7349 30.3019Z" fill="white"/>
<path d="M44.6925 42.5204L45.1425 43.4297C45.2011 43.5493 45.29 43.6514 45.4005 43.7259C45.5109 43.8003 45.6389 43.8445 45.7718 43.854C45.9046 43.8635 46.0376 43.8379 46.1575 43.7799C46.2774 43.7219 46.3799 43.6335 46.455 43.5235L46.47 43.501C46.5446 43.3904 46.5888 43.2621 46.5983 43.129C46.6077 42.9959 46.582 42.8626 46.5237 42.7426C46.4653 42.6226 46.3765 42.52 46.2661 42.4451C46.1556 42.3702 46.0274 42.3257 45.8943 42.316L44.8828 42.241C44.8489 42.2392 44.8151 42.2462 44.7846 42.2613C44.7542 42.2764 44.7282 42.2991 44.7091 42.3272C44.6899 42.3552 44.6784 42.3878 44.6755 42.4216C44.6726 42.4554 44.6784 42.4894 44.6925 42.5204Z" fill="white"/>
<path d="M24.0806 46.3344L23.2369 46.8969C23.1267 46.9714 23.038 47.0734 22.9795 47.1928C22.921 47.3122 22.8948 47.4449 22.9034 47.5776C22.912 47.7102 22.9552 47.8384 23.0287 47.9492C23.1021 48.06 23.2033 48.1497 23.3222 48.2094L23.3456 48.2206C23.465 48.2802 23.598 48.3073 23.7312 48.2992C23.8644 48.2912 23.9932 48.2483 24.1046 48.1748C24.216 48.1013 24.3061 47.9998 24.3659 47.8805C24.4257 47.7612 24.4531 47.6282 24.4453 47.495L24.3872 46.4815C24.3841 46.4474 24.3723 46.4146 24.3527 46.3864C24.3332 46.3582 24.3067 46.3356 24.2757 46.3208C24.2448 46.3059 24.2106 46.2994 24.1764 46.3017C24.1422 46.3041 24.1092 46.3154 24.0806 46.3344Z" fill="white"/>
<path d="M15.78 21.2252L15.0647 20.5061C14.9705 20.4115 14.8531 20.3433 14.7242 20.3084C14.5954 20.2734 14.4596 20.2729 14.3305 20.3068C14.2014 20.3408 14.0835 20.4081 13.9886 20.502C13.8937 20.5959 13.8251 20.713 13.7897 20.8418L13.7831 20.8671C13.7481 20.9956 13.7474 21.131 13.7811 21.2599C13.8149 21.3887 13.8818 21.5065 13.9753 21.6014C14.0687 21.6962 14.1854 21.7649 14.3138 21.8006C14.4421 21.8363 14.5775 21.8376 14.7065 21.8046L15.689 21.5533C15.7222 21.5444 15.7525 21.5269 15.7769 21.5027C15.8012 21.4785 15.8189 21.4483 15.8281 21.4152C15.8373 21.3821 15.8376 21.3471 15.8292 21.3138C15.8208 21.2805 15.8038 21.25 15.78 21.2252Z" fill="white"/>
<path d="M37.8562 14.5697L38.8706 14.5406C39.0041 14.5368 39.1342 14.4981 39.2479 14.4282C39.3617 14.3583 39.4551 14.2597 39.5188 14.1424C39.5825 14.0251 39.6143 13.893 39.6109 13.7596C39.6075 13.6261 39.5692 13.4959 39.4997 13.3819L39.4856 13.3594C39.4159 13.2457 39.3176 13.1522 39.2005 13.0883C39.0834 13.0244 38.9516 12.9924 38.8182 12.9953C38.6848 12.9982 38.5546 13.0361 38.4404 13.1051C38.3262 13.174 38.2321 13.2718 38.1675 13.3884L37.6781 14.2772C37.6612 14.3076 37.6526 14.342 37.6533 14.3768C37.654 14.4116 37.6639 14.4456 37.682 14.4753C37.7001 14.505 37.7258 14.5294 37.7564 14.546C37.787 14.5626 37.8214 14.5708 37.8562 14.5697Z" fill="white"/>
<path d="M48.6937 24.4305L48.7649 25.443C48.7741 25.5762 48.8181 25.7047 48.8926 25.8155C48.967 25.9263 49.0693 26.0156 49.1892 26.0744C49.309 26.1332 49.4422 26.1594 49.5754 26.1504C49.7086 26.1415 49.8372 26.0977 49.9481 26.0234L49.9696 26.0093C50.0796 25.9348 50.1683 25.833 50.2268 25.7137C50.2854 25.5945 50.3118 25.462 50.3035 25.3295C50.2951 25.1969 50.2523 25.0688 50.1793 24.9578C50.1063 24.8469 50.0056 24.7569 49.8871 24.6968L48.9787 24.244C48.9478 24.2288 48.9136 24.2219 48.8792 24.224C48.8449 24.2261 48.8117 24.2371 48.783 24.2559C48.7542 24.2748 48.7308 24.3008 48.7152 24.3314C48.6995 24.362 48.6921 24.3962 48.6937 24.4305Z" fill="white"/>
<path d="M30.6824 13.6799L30.9796 12.7106C31.0188 12.583 31.0238 12.4474 30.9941 12.3172C30.9644 12.1871 30.9011 12.0671 30.8104 11.9691C30.7198 11.8712 30.605 11.7987 30.4776 11.7591C30.3502 11.7194 30.2146 11.7139 30.0843 11.7431L30.0581 11.7496C29.9278 11.7788 29.8075 11.8418 29.7093 11.9321C29.611 12.0225 29.5383 12.1371 29.4983 12.2644C29.4583 12.3918 29.4525 12.5274 29.4815 12.6577C29.5105 12.788 29.5732 12.9084 29.6634 13.0068L30.3478 13.7568C30.3714 13.7824 30.4014 13.8013 30.4347 13.8116C30.468 13.8219 30.5034 13.8232 30.5374 13.8154C30.5714 13.8076 30.6027 13.791 30.6281 13.7672C30.6536 13.7434 30.6724 13.7133 30.6824 13.6799Z" fill="white"/>
<path d="M10.9416 33.6947L10.0978 34.2572C9.98768 34.3317 9.89897 34.4337 9.84047 34.5531C9.78198 34.6725 9.75574 34.8052 9.76436 34.9379C9.77299 35.0706 9.81617 35.1987 9.88964 35.3095C9.9631 35.4204 10.0643 35.51 10.1831 35.5697L10.2066 35.5809C10.326 35.6405 10.459 35.6676 10.5922 35.6596C10.7254 35.6515 10.8542 35.6086 10.9656 35.5351C11.0769 35.4616 11.1671 35.3601 11.2269 35.2408C11.2867 35.1215 11.314 34.9885 11.3062 34.8553L11.25 33.8475C11.2481 33.8125 11.2369 33.7787 11.2176 33.7495C11.1983 33.7203 11.1717 33.6967 11.1403 33.6812C11.109 33.6657 11.074 33.6587 11.0391 33.6611C11.0042 33.6635 10.9705 33.675 10.9416 33.6947Z" fill="white"/>
<path d="M32.3634 25.9832L31.5197 26.5457C31.4092 26.62 31.3202 26.7219 31.2615 26.8413C31.2027 26.9607 31.1763 27.0934 31.1849 27.2262C31.1934 27.359 31.2366 27.4872 31.3101 27.5981C31.3837 27.709 31.485 27.7987 31.604 27.8582L31.6275 27.8704C31.747 27.9299 31.88 27.9569 32.0132 27.9489C32.1465 27.9408 32.2752 27.8979 32.3867 27.8244C32.4981 27.7509 32.5883 27.6495 32.6482 27.5302C32.7081 27.4109 32.7357 27.278 32.7281 27.1448L32.6709 26.1341C32.6686 26.0995 32.6571 26.0661 32.6378 26.0373C32.6185 26.0085 32.5919 25.9852 32.5607 25.9699C32.5296 25.9547 32.4949 25.9478 32.4603 25.9502C32.4257 25.9525 32.3922 25.9639 32.3634 25.9832Z" fill="white"/>
<path d="M13.7109 26.4602L13.6978 26.4733C13.6093 26.5618 13.5391 26.6668 13.4912 26.7823C13.4433 26.8979 13.4187 27.0218 13.4187 27.1469C13.4187 27.272 13.4433 27.3959 13.4912 27.5114C13.5391 27.627 13.6093 27.732 13.6978 27.8205L16.724 30.8477C16.8125 30.9361 16.9175 31.0063 17.033 31.0542C17.1486 31.1021 17.2725 31.1267 17.3976 31.1267C17.5227 31.1267 17.6466 31.1021 17.7622 31.0542C17.8777 31.0063 17.9827 30.9361 18.0712 30.8477L18.1293 30.7895C18.2186 30.7002 18.2893 30.5941 18.3372 30.4772C18.3851 30.3604 18.4094 30.2351 18.4085 30.1088C18.4076 29.9825 18.3817 29.8577 18.3321 29.7415C18.2826 29.6253 18.2105 29.5201 18.1199 29.4321L15.0478 26.4499C14.8683 26.2755 14.6274 26.1788 14.3772 26.1807C14.127 26.1826 13.8876 26.283 13.7109 26.4602Z" fill="#FF8800"/>
<path d="M14.2621 26.774L14.2537 26.7825C14.1997 26.8365 14.1569 26.9005 14.1276 26.9711C14.0984 27.0416 14.0834 27.1172 14.0834 27.1936C14.0834 27.2699 14.0984 27.3455 14.1276 27.4161C14.1569 27.4866 14.1997 27.5507 14.2537 27.6047L16.1034 29.4544C16.2127 29.5632 16.3607 29.6244 16.515 29.6244C16.6692 29.6244 16.8172 29.5632 16.9265 29.4544L16.9621 29.4187C17.0167 29.3642 17.0599 29.2994 17.0891 29.228C17.1184 29.1566 17.1331 29.0801 17.1325 29.003C17.1319 28.9258 17.1159 28.8496 17.0856 28.7787C17.0552 28.7078 17.011 28.6436 16.9556 28.59L15.0806 26.7675C14.9706 26.6609 14.8232 26.6018 14.67 26.603C14.5169 26.6043 14.3704 26.6657 14.2621 26.774Z" fill="#FFAA00"/>
<path d="M18.0937 39.5994L18.0797 39.6125C17.9912 39.701 17.921 39.806 17.8731 39.9216C17.8252 40.0371 17.8006 40.161 17.8006 40.2861C17.8006 40.4112 17.8252 40.5351 17.8731 40.6507C17.921 40.7662 17.9912 40.8713 18.0797 40.9597L21.1068 43.9869C21.1953 44.0754 21.3003 44.1455 21.4159 44.1934C21.5315 44.2413 21.6553 44.2659 21.7804 44.2659C21.9055 44.2659 22.0294 44.2413 22.145 44.1934C22.2606 44.1455 22.3656 44.0754 22.454 43.9869L22.5122 43.9288C22.6013 43.8393 22.6717 43.7329 22.7194 43.616C22.7671 43.499 22.7911 43.3738 22.7899 43.2475C22.7888 43.1212 22.7626 42.9963 22.7128 42.8803C22.663 42.7642 22.5907 42.6591 22.5 42.5713L19.4287 39.5891C19.2494 39.4152 19.0089 39.3189 18.7591 39.3208C18.5093 39.3228 18.2704 39.4228 18.0937 39.5994Z" fill="#FF5900"/>
<path d="M18.6421 39.915L18.6337 39.9235C18.5248 40.0328 18.4637 40.1808 18.4637 40.335C18.4637 40.4893 18.5248 40.6373 18.6337 40.7466L20.4834 42.5954C20.5374 42.6494 20.6015 42.6922 20.672 42.7214C20.7425 42.7506 20.8181 42.7657 20.8945 42.7657C20.9708 42.7657 21.0464 42.7506 21.117 42.7214C21.1875 42.6922 21.2516 42.6494 21.3056 42.5954L21.3412 42.5597C21.3957 42.5052 21.4389 42.4404 21.4681 42.3691C21.4974 42.2977 21.5122 42.2213 21.5116 42.1442C21.5111 42.0671 21.4953 41.9909 21.4651 41.9199C21.4348 41.849 21.3908 41.7848 21.3356 41.731L19.4606 39.9085C19.3507 39.8017 19.2032 39.7424 19.05 39.7437C18.8968 39.7449 18.7503 39.8065 18.6421 39.915Z" fill="#FF8800"/>
<path d="M31.0875 39.277H31.0697C30.9473 39.3034 30.8314 39.3537 30.7285 39.425C30.6256 39.4963 30.5378 39.5872 30.4701 39.6925C30.4023 39.7978 30.356 39.9153 30.3337 40.0385C30.3115 40.1617 30.3137 40.2881 30.3403 40.4104L31.2497 44.5935C31.2763 44.7158 31.3266 44.8316 31.398 44.9344C31.4693 45.0372 31.5602 45.1249 31.6655 45.1925C31.7707 45.2602 31.8883 45.3064 32.0114 45.3286C32.1346 45.3508 32.2609 45.3486 32.3831 45.322L32.4628 45.3041C32.5862 45.2773 32.703 45.2263 32.8065 45.1539C32.91 45.0816 32.998 44.9894 33.0656 44.8827C33.1331 44.776 33.1787 44.657 33.1998 44.5325C33.2209 44.408 33.217 44.2806 33.1884 44.1576L32.2181 39.9876C32.1605 39.7445 32.0097 39.5339 31.7982 39.4009C31.5867 39.268 31.3315 39.2235 31.0875 39.277Z" fill="#FF8800"/>
<path d="M31.3818 39.8391H31.3706C31.2958 39.8553 31.225 39.8861 31.1622 39.9297C31.0993 39.9733 31.0457 40.0289 31.0044 40.0932C30.963 40.1576 30.9347 40.2294 30.9212 40.3047C30.9076 40.38 30.909 40.4572 30.9253 40.5319L31.4803 43.0875C31.5132 43.2383 31.6048 43.3698 31.7347 43.4531C31.8646 43.5365 32.0223 43.5648 32.1731 43.5319L32.2218 43.5216C32.2972 43.5052 32.3685 43.474 32.4317 43.4298C32.4949 43.3856 32.5487 43.3293 32.59 43.2642C32.6312 43.199 32.6591 43.1263 32.6721 43.0503C32.685 42.9742 32.6827 42.8964 32.6653 42.8213L32.0718 40.2741C32.0369 40.1255 31.945 39.9966 31.8159 39.9152C31.6868 39.8339 31.5309 39.8065 31.3818 39.8391Z" fill="#FFAA00"/>
<path d="M39.1875 30.484L39.1687 30.4896C39.0504 30.5313 38.9416 30.596 38.8484 30.6799C38.7552 30.7638 38.6795 30.8653 38.6256 30.9785C38.5718 31.0918 38.5408 31.2146 38.5346 31.3398C38.5284 31.4651 38.547 31.5903 38.5893 31.7084L40.0171 35.7443C40.0589 35.8625 40.1237 35.9713 40.2076 36.0645C40.2915 36.1577 40.3929 36.2334 40.5061 36.2873C40.6194 36.3412 40.7421 36.3722 40.8673 36.3786C40.9925 36.385 41.1178 36.3667 41.2359 36.3246L41.3137 36.2965C41.4327 36.2543 41.5421 36.1889 41.6356 36.104C41.7292 36.0192 41.8049 35.9166 41.8584 35.8023C41.912 35.6879 41.9423 35.5641 41.9476 35.438C41.9529 35.3118 41.9331 35.1859 41.8893 35.0674L40.4006 31.053C40.3143 30.8174 40.1384 30.6254 39.9112 30.5188C39.684 30.4122 39.4238 30.3997 39.1875 30.484Z" fill="#FF5900"/>
<path d="M39.5493 31.0091L39.5381 31.0138C39.3927 31.0654 39.2737 31.1725 39.2073 31.3118C39.1408 31.451 39.1324 31.6109 39.1837 31.7563L40.0565 34.221C40.082 34.2932 40.1214 34.3596 40.1725 34.4165C40.2237 34.4734 40.2856 34.5197 40.3547 34.5526C40.4237 34.5855 40.4986 34.6045 40.575 34.6084C40.6515 34.6123 40.7279 34.6011 40.8 34.5754L40.8468 34.5595C40.9195 34.5337 40.9862 34.4938 41.0433 34.442C41.1004 34.3902 41.1466 34.3277 41.1793 34.2579C41.212 34.1881 41.2305 34.1126 41.2338 34.0356C41.2371 33.9586 41.225 33.8817 41.1984 33.8095L40.289 31.357C40.2361 31.2134 40.1289 31.0965 39.9905 31.0314C39.8521 30.9663 39.6936 30.9583 39.5493 31.0091Z" fill="#FF8800"/>
<path d="M27.9572 14.9458L27.9394 14.9514C27.8207 14.991 27.7109 15.0536 27.6164 15.1356C27.5219 15.2177 27.4445 15.3175 27.3886 15.4295C27.3327 15.5415 27.2994 15.6633 27.2907 15.7882C27.2819 15.913 27.2978 16.0383 27.3375 16.157L28.6931 20.2173C28.7326 20.336 28.7951 20.4457 28.8771 20.5402C28.959 20.6347 29.0588 20.7121 29.1707 20.768C29.2826 20.8239 29.4044 20.8572 29.5292 20.866C29.6539 20.8748 29.7792 20.8589 29.8978 20.8192L29.9756 20.793C30.0955 20.7531 30.2062 20.6897 30.3014 20.6066C30.3965 20.5235 30.4741 20.4222 30.5297 20.3088C30.5853 20.1953 30.6177 20.0719 30.6251 19.9458C30.6325 19.8197 30.6147 19.6934 30.5728 19.5742L29.1563 15.5345C29.0734 15.2989 28.9013 15.1052 28.6771 14.9951C28.4528 14.885 28.1943 14.8673 27.9572 14.9458Z" fill="#FF8800"/>
<path d="M28.3125 15.4734H28.3021C28.2296 15.4974 28.1625 15.5356 28.1047 15.5856C28.0468 15.6356 27.9995 15.6965 27.9652 15.7649C27.931 15.8333 27.9106 15.9077 27.9052 15.984C27.8998 16.0602 27.9095 16.1368 27.9337 16.2093L28.7625 18.6899C28.7866 18.7624 28.8248 18.8294 28.8749 18.8871C28.9249 18.9449 28.9859 18.9921 29.0542 19.0263C29.1226 19.0604 29.197 19.0807 29.2732 19.0861C29.3494 19.0914 29.4259 19.0817 29.4984 19.0574L29.5462 19.0415C29.6193 19.017 29.6869 18.9783 29.7449 18.9275C29.8029 18.8767 29.8503 18.8148 29.8842 18.7456C29.9181 18.6763 29.938 18.601 29.9425 18.524C29.9471 18.447 29.9364 18.3699 29.9109 18.2971L29.0465 15.8287C28.9951 15.6851 28.8894 15.5675 28.7521 15.501C28.6148 15.4346 28.457 15.4247 28.3125 15.4734Z" fill="#FFAA00"/>
<path d="M21.4687 27.9984C20.6697 28.2563 19.9869 28.7874 19.5403 29.4984C19.1119 30.4978 20.5397 31.784 21.6825 31.7119C21.6825 31.7119 21.3253 31.9978 22.1822 32.2837C23.039 32.5697 23.4675 31.2834 23.4675 31.2834C23.7688 31.3072 24.0696 31.2322 24.3244 31.0697C24.8962 30.7828 25.3247 27.0712 21.4687 27.9984Z" fill="#42FF4C"/>
<path d="M21.7865 28.3125C21.2172 28.4964 20.7306 28.8747 20.4122 29.3813C20.1065 30.0938 21.1247 31.0097 21.9394 30.9591C21.9394 30.9591 21.6844 31.1625 22.2956 31.366C22.9069 31.5694 23.2115 30.6535 23.2115 30.6535C23.4261 30.6698 23.6403 30.6162 23.8219 30.5006C24.2297 30.2972 24.5344 27.6506 21.7865 28.3125Z" fill="#21FF2D"/>
<path d="M39.0159 44.4275C39.7745 44.7872 40.6355 44.8682 41.4478 44.6562C42.4444 44.2221 42.285 42.3068 41.4037 41.5765C41.4037 41.5765 41.8594 41.6131 41.4309 40.8181C41.0025 40.0231 39.81 40.6653 39.81 40.6653C39.6064 40.4421 39.336 40.2908 39.0394 40.234C38.4272 40.0503 35.5706 42.4615 39.0159 44.4275Z" fill="#42FF4C"/>
<path d="M39 43.981C39.5407 44.2371 40.1543 44.2949 40.7334 44.1442C41.444 43.8339 41.3306 42.4689 40.7025 41.9485C40.7025 41.9485 41.0268 41.9748 40.7221 41.4076C40.4175 40.8404 39.5662 41.2989 39.5662 41.2989C39.421 41.1398 39.2283 41.0319 39.0168 40.9914C38.58 40.861 36.5437 42.5795 39 43.981Z" fill="#21FF2D"/>
<path d="M34.3931 15.7877C33.5943 16.0458 32.9119 16.5768 32.4656 17.2877C32.0372 18.288 33.465 19.5734 34.6078 19.5021C34.6078 19.5021 34.2506 19.7834 35.1075 20.073C35.9643 20.3627 36.3928 19.0737 36.3928 19.0737C36.6941 19.0966 36.9947 19.0213 37.2497 18.859C37.8206 18.5721 38.25 14.8596 34.3931 15.7877Z" fill="#42FF4C"/>
<path d="M34.7109 16.1028C34.1417 16.2866 33.6554 16.665 33.3375 17.1716C33.0318 17.8841 34.05 18.8 34.8637 18.7494C34.8637 18.7494 34.6097 18.9528 35.22 19.1563C35.8303 19.3597 36.1368 18.4438 36.1368 18.4438C36.3515 18.4608 36.5658 18.4071 36.7472 18.291C37.154 18.0866 37.4597 15.44 34.7109 16.1028Z" fill="#21FF2D"/>
</svg>
