<svg width="60" height="60" viewBox="0 0 60 60" fill="none" xmlns="http://www.w3.org/2000/svg">
<g clip-path="url(#clip0_14_3891)">
<path d="M37.5933 20.3142C33.0075 8.82846 19.5173 16.3931 19.5173 16.3931C19.5173 16.3931 6.04922 8.82846 1.46344 20.3142C-1.61719 28.0308 9.58406 39.3511 15.7458 44.8153C17.9081 46.733 21.1898 46.7269 23.3569 44.8144C29.5308 39.3666 40.7034 28.1044 37.5933 20.3142Z" fill="#DF2B2B"/>
<path d="M10.1822 20.3142C11.4028 17.257 13.253 15.5498 15.3108 14.6901C10.958 13.4147 4.39547 12.9703 1.46344 20.3142C-1.61719 28.0308 9.58406 39.3511 15.7458 44.8153C17.9081 46.7329 21.1898 46.7268 23.3569 44.8143C23.5373 44.655 23.723 44.49 23.9114 44.3208C17.6602 38.692 7.19109 27.8053 10.1822 20.3142Z" fill="#D1262C"/>
<path d="M20.5894 44.8155C14.4277 39.3509 3.22641 28.0305 6.30703 20.3144C7.85156 16.4458 10.4039 14.7401 13.11 14.1771C8.97891 13.4693 3.93328 14.1283 1.46344 20.3144C-1.61719 28.031 9.58406 39.3513 15.7458 44.8155C17.4839 46.3573 19.9448 46.6526 21.9694 45.7169C21.4781 45.4891 21.0117 45.1901 20.5894 44.8155Z" fill="#B7252C"/>
<path d="M12.7069 11.9119C11.8172 12.1181 10.9289 12.2114 10.2113 12.0863C10.2113 12.0863 10.3509 13.4784 12.7655 15.4336C11.7792 16.402 10.7123 17.9864 10.2113 20.5425C10.2113 20.5425 13.3575 22.1677 16.2886 21.0919C16.65 22.4147 17.5139 24.1144 19.5169 25.8183C19.5169 25.8183 22.523 23.9555 23.04 20.9245C24.3872 21.2789 26.318 21.3938 28.8225 20.5425C28.8225 20.5425 28.6828 17.0545 26.2683 15.0994C27.2545 14.1309 28.3214 13.9434 28.8225 11.3878C28.8225 11.3878 28.7934 11.3953 28.7381 11.408C25.3073 12.1945 22.0303 10.3069 22.0111 6.8475L21.9595 0.9375H16.1367L16.2056 7.69266C16.1573 9.71766 14.715 11.4464 12.7069 11.9119Z" fill="#46670C"/>
<path d="M19.5173 32.4344C18.9998 32.4344 18.5798 32.0144 18.5798 31.4969V29.5596C18.5798 29.0421 18.9998 28.6221 19.5173 28.6221C20.0348 28.6221 20.4548 29.0421 20.4548 29.5596V31.4969C20.4548 32.0149 20.0348 32.4344 19.5173 32.4344Z" fill="#F49D5B"/>
<path d="M12.4036 32.4344C11.8861 32.4344 11.4661 32.0144 11.4661 31.4969V29.5596C11.4661 29.0421 11.8861 28.6221 12.4036 28.6221C12.9211 28.6221 13.3411 29.0421 13.3411 29.5596V31.4969C13.3411 32.0149 12.9211 32.4344 12.4036 32.4344Z" fill="#F49D5B"/>
<path d="M26.6306 32.4344C26.1131 32.4344 25.6931 32.0144 25.6931 31.4969V29.5596C25.6931 29.0421 26.1131 28.6221 26.6306 28.6221C27.1481 28.6221 27.5681 29.0421 27.5681 29.5596V31.4969C27.5681 32.0149 27.1481 32.4344 26.6306 32.4344Z" fill="#F49D5B"/>
<path d="M15.9605 39.4193C15.443 39.4193 15.023 38.9993 15.023 38.4818V36.5449C15.023 36.0274 15.443 35.6074 15.9605 35.6074C16.478 35.6074 16.898 36.0274 16.898 36.5449V38.4818C16.898 38.9998 16.478 39.4193 15.9605 39.4193Z" fill="#F49D5B"/>
<path d="M23.0742 39.4193C22.5567 39.4193 22.1367 38.9993 22.1367 38.4818V36.5449C22.1367 36.0274 22.5567 35.6074 23.0742 35.6074C23.5917 35.6074 24.0117 36.0274 24.0117 36.5449V38.4818C24.0117 38.9998 23.5917 39.4193 23.0742 39.4193Z" fill="#F49D5B"/>
<path d="M6.7125 25.4496C6.195 25.4496 5.775 25.0296 5.775 24.5121V22.5747C5.775 22.0572 6.195 21.6372 6.7125 21.6372C7.23 21.6372 7.65 22.0572 7.65 22.5747V24.5121C7.65 25.0296 7.23047 25.4496 6.7125 25.4496Z" fill="#F49D5B"/>
<path d="M32.3213 25.4496C31.8038 25.4496 31.3838 25.0296 31.3838 24.5121V22.5747C31.3838 22.0572 31.8038 21.6372 32.3213 21.6372C32.8388 21.6372 33.2588 22.0572 33.2588 22.5747V24.5121C33.2588 25.0296 32.8392 25.4496 32.3213 25.4496Z" fill="#F49D5B"/>
<path d="M23.9119 26.4178C23.3944 26.4178 22.9744 25.9978 22.9744 25.4803V23.543C22.9744 23.0255 23.3944 22.6055 23.9119 22.6055C24.4294 22.6055 24.8494 23.0255 24.8494 23.543V25.4803C24.8494 25.9978 24.4294 26.4178 23.9119 26.4178Z" fill="#F49D5B"/>
<path d="M14.7131 25.4496C14.1956 25.4496 13.7756 25.0296 13.7756 24.5121V22.5747C13.7756 22.0572 14.1956 21.6372 14.7131 21.6372C15.2306 21.6372 15.6506 22.0572 15.6506 22.5747V24.5121C15.6506 25.0296 15.2306 25.4496 14.7131 25.4496Z" fill="#F49D5B"/>
<path d="M19.5173 44.7987C18.9998 44.7987 18.5798 44.3787 18.5798 43.8612V41.9243C18.5798 41.4068 18.9998 40.9868 19.5173 40.9868C20.0348 40.9868 20.4548 41.4068 20.4548 41.9243V43.8612C20.4548 44.3792 20.0348 44.7987 19.5173 44.7987Z" fill="#F49D5B"/>
<path d="M52.5117 58.5063C64.0078 53.8769 56.9578 40.5049 56.5645 39.7783H25.823C25.8234 41.1916 26.317 42.6063 27.3014 43.7308C32.9072 50.1386 44.4961 61.7346 52.5117 58.5063Z" fill="#F57A55"/>
<path d="M45.8156 48.1915C40.4625 48.1915 35.4741 45.5187 35.1441 45.3382C34.6898 45.0902 34.523 44.5212 34.7709 44.067C35.0175 43.6127 35.5875 43.4445 36.0427 43.6929C36.1589 43.7567 47.7347 49.9437 53.5294 42.9279C53.8589 42.529 54.45 42.4723 54.8489 42.8018C55.2478 43.1313 55.3045 43.7224 54.975 44.1213C52.4208 47.2146 49.0519 48.1915 45.8156 48.1915Z" fill="#F1C3A7"/>
<path d="M37.2408 49.5668C36.9741 49.5668 36.7088 49.4533 36.5236 49.2335C36.1898 48.8379 36.2405 48.2463 36.6361 47.9125L38.9513 45.9597L38.1825 43.1065C38.0475 42.6068 38.3438 42.0921 38.8434 41.9571C39.3464 41.823 39.8578 42.1188 39.9923 42.6185L40.9167 46.0479C41.0114 46.3994 40.8942 46.774 40.6158 47.0083L37.8441 49.3455C37.6688 49.4941 37.4541 49.5668 37.2408 49.5668Z" fill="#F1C3A7"/>
<path d="M41.7056 52.0556C41.3433 52.0556 40.9978 51.8442 40.845 51.4903C40.6392 51.0154 40.8572 50.4632 41.3325 50.2575C42.4753 49.7625 43.3674 48.8043 43.7799 47.6282L44.0241 46.9326C44.3813 45.4537 43.9645 43.9209 42.9052 42.8245L42.6403 42.5503C42.2803 42.1776 42.2911 41.5842 42.6633 41.2246C43.0369 40.8651 43.6294 40.875 43.9889 41.2476L44.2538 41.5218C45.7753 43.0964 46.3655 45.3042 45.8325 47.4281C45.8255 47.4557 45.8175 47.4829 45.8081 47.5096L45.5494 48.2479C44.9639 49.9162 43.6988 51.2756 42.0778 51.9778C41.9564 52.0307 41.8298 52.0556 41.7056 52.0556Z" fill="#F1C3A7"/>
<path d="M47.5622 54.2635C47.2978 54.2635 47.0344 54.1519 46.8492 53.9349C46.5127 53.5411 46.5595 52.9496 46.9533 52.613C48.8461 50.9954 50.2252 48.8771 50.9409 46.4879L51.3544 45.1074C51.503 44.611 52.0294 44.3307 52.5211 44.4783C53.0175 44.6269 53.2988 45.1496 53.1506 45.6455L52.7372 47.026C51.9178 49.7616 50.3391 52.1865 48.1711 54.039C47.9944 54.1894 47.7778 54.2635 47.5622 54.2635Z" fill="#F1C3A7"/>
<path d="M52.5117 55.5986C44.4956 58.8264 32.9067 47.231 27.3009 40.8232C27.0159 40.4974 26.7773 40.1454 26.5748 39.7783H25.823C25.8234 41.1916 26.317 42.6063 27.3014 43.7308C32.9077 50.1386 44.4961 61.7346 52.5122 58.5063C58.3284 56.1639 59.3948 51.5857 58.9809 47.5375C58.6256 50.7072 56.9597 53.8075 52.5117 55.5986Z" fill="#CC0917"/>
</g>
<defs>
<clipPath id="clip0_14_3891">
<rect width="60" height="60" fill="white"/>
</clipPath>
</defs>
</svg>
