<svg width="60" height="61" viewBox="0 0 60 61" fill="none" xmlns="http://www.w3.org/2000/svg">
<g clip-path="url(#clip0_19_18659)">
<path d="M58.8861 22.5586L45.6364 17.4728C44.7416 17.1289 43.7367 17.5765 43.393 18.4713L35.4896 39.0609C35.1458 39.9558 35.5933 40.9605 36.4882 41.3044L49.7379 46.3901C50.6327 46.7339 51.6376 46.2865 51.9821 45.3915L59.8847 24.802C60.2284 23.9071 59.7809 22.9023 58.8861 22.5586ZM45.2129 20.0698C45.8331 19.8748 46.3949 20.394 46.3319 20.9753C46.6758 20.5021 47.4412 20.4925 47.7717 21.0524C48.0872 21.5884 47.7743 22.2955 47.1072 22.7022C46.4906 23.0796 45.6488 23.3455 45.3388 23.636C45.3263 23.6484 45.3104 23.6459 45.3077 23.6449C45.3058 23.644 45.2926 23.636 45.2918 23.6183C45.2554 23.1948 44.809 22.4337 44.6025 21.7409C44.3783 20.9922 44.6183 20.2576 45.2129 20.0698ZM50.3491 43.2252C49.7325 43.6018 48.8907 43.8684 48.5815 44.1591C48.5681 44.1715 48.5523 44.1689 48.5496 44.167C48.5478 44.167 48.5354 44.1582 48.5336 44.1404C48.4973 43.7179 48.0517 42.9566 47.8452 42.263C47.621 41.5143 47.8611 40.7797 48.4547 40.5928C49.0758 40.397 49.6375 40.9163 49.5746 41.4983C49.9184 41.0244 50.6831 41.0146 51.0136 41.5745C51.3292 42.1114 51.0173 42.8186 50.3491 43.2252ZM50.2748 33.4506C48.9139 34.2799 47.0577 34.8709 46.3727 35.5124C46.3453 35.538 46.309 35.5318 46.3054 35.531C46.3029 35.5301 46.2718 35.5097 46.2683 35.4724C46.1894 34.5368 45.205 32.856 44.7478 31.3284C44.2543 29.676 44.7841 28.0538 46.0946 27.6398C47.4636 27.2084 48.7049 28.3559 48.5675 29.6397C49.3241 28.5933 51.013 28.572 51.7421 29.808C52.4393 30.9927 51.7482 32.5529 50.2748 33.4506Z" fill="black"/>
<path d="M18.4026 42.4098C17.0913 42.4098 15.9837 41.4281 15.8188 40.1203L15.0019 33.4751C14.5066 33.7835 13.859 33.8658 13.3255 33.6443C13.7287 34.5427 14.2027 35.3774 14.7538 36.0153L13.1554 36.6284C13.143 35.7858 12.9339 34.8519 12.6344 33.9136C12.2569 34.6996 11.2309 35.1426 10.4148 34.8519C9.18953 34.4169 8.96008 32.971 9.32406 31.7243C9.72367 30.3687 10.5841 28.7357 10.6363 27.8408C10.6398 27.7841 10.6532 27.7628 10.6664 27.7585C10.6843 27.754 10.7055 27.7585 10.7488 27.8018C11.3876 28.4274 13.1164 29.0653 14.3195 29.8087C14.4064 29.8609 14.4888 29.9168 14.5721 29.978L13.1296 18.2328C13.1207 18.1717 13.1163 18.115 13.1163 18.0591L1.11532 22.6674C0.220472 23.0112 -0.227067 24.0141 0.115823 24.9135L8.01649 45.4977C8.36032 46.397 9.36766 46.84 10.2626 46.4972L22.0211 41.9882L18.7197 42.3922C18.6161 42.4054 18.5071 42.4098 18.4026 42.4098ZM5.2716 26.2859C5.12008 26.573 4.71602 26.7068 4.41133 26.581C4.56367 26.9203 4.7418 27.2367 4.94992 27.4758L4.34664 27.7106C4.34219 27.389 4.26426 27.0373 4.15082 26.6812C4.00821 26.9806 3.62184 27.1507 3.3127 27.0373C2.8484 26.8725 2.76145 26.3295 2.90067 25.8563C3.05207 25.3432 3.37375 24.7266 3.39496 24.3881C3.39496 24.366 3.40375 24.3615 3.40821 24.3571C3.41266 24.3528 3.42157 24.3571 3.43926 24.3749C3.67762 24.6097 4.33328 24.8524 4.78961 25.1306C5.20692 25.391 5.50645 25.8562 5.2716 26.2859Z" fill="black"/>
<path d="M34.6789 38.748L38.4668 28.8794C37.4549 29.7867 35.8388 31.6076 35.4214 32.4759C35.3913 32.5406 35.3657 32.5717 35.3346 32.5672C35.3 32.5627 35.2868 32.5282 35.2734 32.4582C35.0351 31.3028 33.4022 28.3364 32.75 27.663C32.7332 27.6462 32.7199 27.6152 32.7244 27.6063C32.7244 27.5939 32.7456 27.5673 32.7633 27.555C33.5625 27.0596 35.86 24.5743 36.373 23.5101C36.3988 23.4499 36.4253 23.419 36.4555 23.4233C36.49 23.4278 36.5033 23.4623 36.5201 23.5324C36.7293 24.5574 38.0494 27.0251 38.7928 28.0237L42.5797 18.1596C42.9669 17.1601 43.9443 16.4867 45.0172 16.4867C45.1085 16.4867 45.2033 16.4912 45.2945 16.5036C45.0641 16.3387 44.7956 16.2307 44.4954 16.1917L30.4092 14.463C29.4577 14.3451 28.5893 15.0231 28.4715 15.9737L25.7869 37.8622C25.6699 38.8138 26.3433 39.6821 27.2993 39.7991L34.718 40.7116C34.4486 40.0858 34.4354 39.3913 34.6789 38.748ZM31.46 20.7084C31.4467 20.735 31.4388 20.7518 31.4255 20.7473C31.4122 20.7473 31.4043 20.7306 31.3989 20.6995C31.2953 20.2051 30.5961 18.9274 30.3135 18.6369C30.3047 18.6324 30.3002 18.6191 30.3002 18.6103C30.3002 18.6058 30.309 18.5979 30.3179 18.589C30.6608 18.3763 31.6514 17.3078 31.873 16.8515C31.8818 16.8249 31.8952 16.8081 31.9076 16.8125C31.9208 16.8125 31.9297 16.8294 31.9342 16.8603C32.0378 17.3549 32.7369 18.6324 33.0196 18.9231C33.0285 18.9275 33.0329 18.9408 33.0329 18.9487C33.0329 18.9541 33.024 18.9621 33.0152 18.9709C32.6721 19.1836 31.6815 20.2521 31.46 20.7084Z" fill="black"/>
<path d="M25.4572 39.6772C25.0267 39.1296 24.8406 38.4483 24.9228 37.758L25.8133 30.5121C25.4048 30.4509 25.0318 30.2649 24.7402 29.9911C24.9096 30.8727 25.1576 31.7065 25.5094 32.3967L23.8064 32.6058C23.9845 31.85 24.0191 30.9808 23.9713 30.0824C23.654 30.5733 23.1287 30.9294 22.5076 31.0029C21.3868 31.1421 20.3661 30.3429 20.2313 29.2264C20.0932 28.1101 20.8923 27.0894 22.0087 26.9502C22.1212 26.9369 22.2302 26.9334 22.3384 26.9369C22.0388 26.6285 21.8306 26.2202 21.774 25.7603C21.6349 24.6438 22.4341 23.6231 23.5504 23.4885C24.6669 23.3494 25.692 24.1485 25.8258 25.2649C25.8834 25.7257 25.7789 26.1677 25.5617 26.5417C25.6654 26.5115 25.7744 26.4894 25.8869 26.4726C26.0305 26.4548 26.1696 26.4548 26.3088 26.4682L27.6077 15.8695C27.6635 15.4087 27.8381 14.9925 28.0986 14.645L15.5054 16.1912C14.5548 16.3081 13.877 17.173 13.9947 18.1281L16.683 40.0156C16.8 40.9673 17.6647 41.645 18.6163 41.5281L26.6738 40.5375C26.1917 40.3815 25.7744 40.0813 25.4572 39.6772ZM18.7633 21.1645C18.4939 21.1991 18.2379 21.1078 18.051 20.9341C18.1289 21.316 18.2335 21.673 18.3859 21.9725L17.6515 22.0594C17.7294 21.7332 17.7427 21.3602 17.7214 20.973C17.5868 21.1867 17.3608 21.3382 17.0915 21.3726C16.6094 21.4294 16.1709 21.0865 16.1142 20.6045C16.0531 20.1261 16.396 19.683 16.8788 19.6271C16.9267 19.6228 16.9736 19.6183 17.0215 19.6183C16.8913 19.488 16.8 19.3144 16.7788 19.1142C16.7176 18.6323 17.0605 18.1937 17.5433 18.1325C18.0253 18.0758 18.4639 18.4196 18.5206 18.9015C18.5463 19.0973 18.5028 19.2878 18.4072 19.4482C18.4506 19.4358 18.4985 19.4269 18.5463 19.4225C19.0283 19.3613 19.4668 19.7052 19.528 20.1871C19.5846 20.6693 19.2417 21.1078 18.7633 21.1645Z" fill="black"/>
</g>
<defs>
<clipPath id="clip0_19_18659">
<rect width="60" height="60" fill="white" transform="translate(0.000488281 0.53125)"/>
</clipPath>
</defs>
</svg>
