<svg width="60" height="60" viewBox="0 0 60 60" fill="none" xmlns="http://www.w3.org/2000/svg">
<g clip-path="url(#clip0_16_14996)">
<path d="M32.7273 47.7273H54.5455V15L32.7273 31.3636V47.7273Z" fill="#C2FB3B"/>
<path d="M30.0003 33.4093L27.273 35.4547L10.9094 47.7275H27.273H30.0003H32.7274V31.3638L30.0003 33.4093Z" fill="#317F46"/>
<path d="M58.4927 7.10623C58.0885 6.9042 57.6496 6.80952 57.2143 6.81901C56.7467 6.8292 56.2846 6.9608 55.8737 7.20678C55.7929 7.2553 55.7132 7.30639 55.6364 7.36393L28.3639 27.8183L1.09117 48.2728C0.152027 48.9772 -0.231059 50.2033 0.140074 51.317C0.511324 52.4306 1.55347 53.1819 2.72734 53.1819H30H57.2727C58.7791 53.1819 60 51.9608 60 50.4546V9.54549C60 8.5126 59.4167 7.5683 58.4927 7.10623ZM54.5455 47.7274H32.7273H30.0003H27.273H10.9094L27.273 35.4547L30.0003 33.4092L32.7273 31.3637L54.5455 15.0001V47.7274Z" fill="#A4E276"/>
<path d="M27.273 47.7272H10.9094L27.273 35.4545L30.0003 33.409V26.5908L28.3639 27.8181L1.09121 48.2726C0.152074 48.977 -0.230777 50.2032 0.140356 51.3168C0.511606 52.4304 1.55375 53.1817 2.72762 53.1817H30.0003V47.7272H27.273Z" fill="#64C37D"/>
</g>
<defs>
<clipPath id="clip0_16_14996">
<rect width="60" height="60" fill="white"/>
</clipPath>
</defs>
</svg>
