<svg width="60" height="60" viewBox="0 0 60 60" fill="none" xmlns="http://www.w3.org/2000/svg">
<g clip-path="url(#clip0_16_13798)">
<path d="M30.0001 6.78687C23.4368 6.78687 18.0972 12.1265 18.0972 18.6898V51.598H41.903V18.6898C41.903 12.1265 36.5633 6.78687 30.0001 6.78687Z" fill="#60DD4D"/>
<path d="M30.0001 6.78687V51.5978H41.9031V18.6898C41.903 12.1265 36.5633 6.78687 30.0001 6.78687Z" fill="#00C47A"/>
<path d="M12.3685 31.9932L13.6283 53.4095C13.8458 57.1052 16.9159 60.0002 20.6179 60.0002H39.3821C43.0842 60.0002 46.1543 57.1053 46.3718 53.4095L47.6315 31.9932H12.3685Z" fill="#FFDB2D"/>
<path d="M30.0002 9.0573L23.9133 2.97059L26.8838 0L30.0002 3.11613L33.1163 0L36.0869 2.97059L30.0002 9.0573Z" fill="#FF318F"/>
<path d="M30.0001 9.0573V3.11613L33.1163 0L36.0868 2.97059L30.0001 9.0573Z" fill="#BF256B"/>
<path d="M14.6812 26.1769L11.7106 23.2064L14.8268 20.0901L11.7106 16.974L14.6812 14.0034L20.768 20.0901L14.6812 26.1769Z" fill="#FF318F"/>
<path d="M45.3189 26.1769L39.2322 20.0901L45.3189 14.0034L48.2895 16.974L45.1732 20.0901L48.2895 23.2062L45.3189 26.1769Z" fill="#BF256B"/>
<path d="M30.0001 31.993V59.9999H39.3822C43.0842 59.9999 46.1543 57.105 46.3718 53.4093L47.6316 31.9929H30.0001V31.993Z" fill="#FFAE33"/>
<path d="M22.9967 43.2502L29.9985 46.3309L36.9999 43.2502L44.0022 46.3309L46.8622 45.0727L47.1392 40.361L44.0022 41.7411L36.9998 38.6604L29.9985 41.7411L22.9967 38.6604L15.9955 41.7411L12.8608 40.3618L13.138 45.0736L15.9955 46.3309L22.9967 43.2502Z" fill="#FF318F"/>
<path d="M29.9985 46.3309L37 43.2502L44.0023 46.3309L46.8623 45.0727L47.1393 40.361L44.0023 41.7411L36.9999 38.6604L29.9985 41.7411V46.3309Z" fill="#BF256B"/>
</g>
<defs>
<clipPath id="clip0_16_13798">
<rect width="60" height="60" fill="white"/>
</clipPath>
</defs>
</svg>
