<svg width="60" height="60" viewBox="0 0 60 60" fill="none" xmlns="http://www.w3.org/2000/svg">
<g clip-path="url(#clip0_16_14264)">
<path d="M50.1532 4.55957H21.8523C18.592 4.55957 15.6994 6.15954 13.9081 8.61051C15.5336 7.41865 17.5358 6.70562 19.7051 6.70562H48.0071C53.4389 6.70562 57.8574 11.1241 57.8574 16.5547V36.7329C57.8574 38.9021 57.1443 40.9044 55.949 42.5322C58.3977 40.7386 59.9999 37.8494 59.9999 34.588V14.4098C60.0034 8.9792 55.5826 4.55957 50.1532 4.55957Z" fill="black"/>
<path d="M56.3143 18.098C56.3143 12.665 51.8946 8.24658 46.464 8.24658H18.1631C15.0339 8.24658 12.2572 9.73061 10.4531 12.0146C4.66658 12.1653 0 16.9096 0 22.7321V44.712C0 50.6295 4.8115 55.441 10.7314 55.441H24.1526H28.1397H41.5598C47.4785 55.441 52.2888 50.6307 52.2888 44.712V22.7321C52.2888 16.8145 47.4797 12.0007 41.5598 12.0007H10.7302C10.7047 12.0007 10.6781 12.0042 10.6514 12.0042C12.198 10.992 14.0345 10.3915 16.0182 10.3915H44.3191C49.7544 10.3915 54.1694 14.8111 54.1694 20.2429V40.4187C54.1694 42.5879 53.4575 44.5914 52.261 46.2203C54.7108 44.4244 56.312 41.5375 56.312 38.2738V18.098H56.3143ZM41.5621 15.2192C45.7058 15.2192 49.075 18.5896 49.075 22.7309V44.712C49.075 48.8533 45.7058 52.2249 41.5621 52.2249H28.1409H24.1537H10.7337C6.59002 52.2249 3.22081 48.8533 3.22081 44.712V22.7321C3.22081 18.5907 6.59002 15.2204 10.7337 15.2204L41.5621 15.2192Z" fill="black"/>
<path d="M4.45441 44.7129C4.45441 48.1749 7.27174 50.9922 10.7314 50.9922H24.1526H28.1397H41.5598C45.0194 50.9922 47.8368 48.1749 47.8368 44.7129V22.733C47.8368 19.2734 45.0194 16.4561 41.5598 16.4561H10.7302C7.27174 16.4561 4.45325 19.2734 4.45325 22.733L4.45441 44.7129ZM6.06133 22.7319C6.06133 20.158 8.15636 18.0653 10.7291 18.0653H41.5609C44.1371 18.0653 46.2263 20.1592 46.2263 22.7319V44.7117C46.2263 47.2868 44.129 49.3806 41.5609 49.3806H28.1397V47.9047C28.4029 47.8954 28.6905 47.8746 29.0093 47.812C29.8997 47.6439 30.8377 47.1731 31.5461 46.4694C32.2521 45.7668 32.7263 44.8312 32.891 43.9373C32.9744 43.4909 33.0023 43.0793 32.9953 42.7616C32.9907 42.4486 32.957 42.2387 32.957 42.2387C32.957 42.2387 32.746 42.2028 32.4342 42.2005C32.12 42.1935 31.7026 42.219 31.2585 42.3025C30.3658 42.4718 29.429 42.9437 28.7241 43.6474C28.505 43.8712 28.3137 44.1228 28.1397 44.3813V39.5037C32.04 38.6087 34.9582 35.1015 34.9582 30.923V22.9881C34.9582 22.4536 34.6393 21.9713 34.1431 21.7615C33.6515 21.5551 33.0811 21.6618 32.7008 22.0362L29.691 24.9672L27.0348 22.2786C26.7809 22.0223 26.4633 21.8983 26.0725 21.8844C25.7143 21.8878 25.3723 22.0386 25.1253 22.2994L22.4993 25.0797L19.6251 22.0687C19.2518 21.6768 18.6744 21.5516 18.1712 21.7522C17.6634 21.9551 17.3353 22.4432 17.3353 22.9869V30.9207C17.3353 35.0829 20.25 38.5704 24.1514 39.4875V42.0869C23.9926 41.8561 23.8256 41.6347 23.6285 41.4353C22.9248 40.7304 21.9868 40.255 21.0941 40.0881C20.6466 40.0081 20.2338 39.9791 19.915 39.9884C19.6031 39.9907 19.3944 40.0243 19.3944 40.0243C19.3944 40.0243 19.3596 40.2376 19.3573 40.5472C19.3492 40.8637 19.3782 41.2764 19.4593 41.7251C19.6274 42.6167 20.1005 43.5523 20.8066 44.2584C21.5115 44.961 22.4529 45.4317 23.3433 45.5998C23.6378 45.6555 23.9021 45.6764 24.1514 45.6879V49.3806H10.7314C8.15636 49.3806 6.06249 47.2844 6.06249 44.7117L6.06133 22.7319Z" fill="black"/>
</g>
<defs>
<clipPath id="clip0_16_14264">
<rect width="60" height="60" fill="white"/>
</clipPath>
</defs>
</svg>
