<svg width="512" height="512" viewBox="0 0 512 512" fill="none" xmlns="http://www.w3.org/2000/svg">
<path d="M448.118 351.402H495.136V275.773C484.032 278.327 465.683 282.517 448.128 286.366L448.118 351.402Z" fill="black"/>
<path d="M495.136 160.599H448.128V225.634C465.683 229.484 484.032 233.664 495.136 236.218V160.599Z" fill="black"/>
<path d="M62.2169 159.681H134.423C140.193 159.681 144.875 154.989 144.875 149.22V113.892C144.875 108.113 140.193 103.441 134.423 103.441H62.2169C56.4479 103.441 51.7749 108.113 51.7749 113.892V149.22C51.7749 154.99 56.4479 159.681 62.2169 159.681Z" fill="black"/>
<path d="M134.422 352.329H62.2171C56.4481 352.329 51.7661 357.011 51.7661 362.79V398.107C51.7661 403.877 56.4481 408.558 62.2171 408.558H134.423C140.193 408.558 144.875 403.876 144.875 398.107V362.79C144.874 357.011 140.192 352.329 134.422 352.329Z" fill="black"/>
<path d="M346.451 158.291H414.958C420.737 158.291 425.409 153.609 425.409 147.839V119.88C425.409 114.11 420.737 109.438 414.958 109.438H346.451C340.681 109.438 335.999 114.11 335.999 119.88V147.839C335.999 153.609 340.681 158.291 346.451 158.291Z" fill="black"/>
<path d="M414.958 353.711H346.451C340.681 353.711 335.999 358.383 335.999 364.153V392.112C335.999 397.882 340.681 402.573 346.451 402.573H414.958C420.737 402.573 425.409 397.881 425.409 392.112V364.153C425.409 358.383 420.737 353.711 414.958 353.711Z" fill="black"/>
<path d="M57.147 175.343H0.009L0 336.647H57.147V175.343Z" fill="black"/>
<path d="M503.763 245.781C503.763 245.781 437.317 230.316 410.919 225.398C384.52 220.499 319.409 208.978 319.409 208.978C319.409 208.978 316.401 197.798 314.803 188.708C312.032 173.036 298.213 157.373 263.179 157.373C228.155 157.373 216.161 157.373 196.81 157.373C146.113 157.373 154.436 206.225 123.743 206.225C93.0511 206.225 69.5281 206.225 69.5281 206.225V305.774C69.5281 305.774 93.0511 305.774 123.743 305.774C154.436 305.774 146.113 354.637 196.81 354.637C216.161 354.637 228.145 354.637 263.179 354.637C298.213 354.637 312.032 338.964 314.803 323.291C316.401 314.211 319.409 303.013 319.409 303.013C319.409 303.013 384.52 291.502 410.919 286.593C437.317 281.683 503.763 266.22 503.763 266.22C508.577 265.16 512 260.913 512 256.005C512 251.087 508.576 246.83 503.763 245.781ZM295.895 280.275C272.912 280.275 266.999 269.408 266.999 256.005C266.999 242.593 272.911 231.725 295.895 231.725C318.879 231.725 337.512 242.593 337.512 256.005C337.512 269.408 318.88 280.275 295.895 280.275Z" fill="black"/>
<path d="M390.054 214.114V169.347H378.997V212.108C382.761 212.781 386.478 213.461 390.054 214.114Z" fill="black"/>
<path d="M378.996 299.892V342.644H390.053V297.906C386.478 298.54 382.761 299.211 378.996 299.892Z" fill="black"/>
<path d="M101.526 169.347H90.469V198.848H101.526V169.347Z" fill="black"/>
<path d="M101.526 313.153H90.469V342.644H101.526V313.153Z" fill="black"/>
</svg>
