<svg width="60" height="60" viewBox="0 0 60 60" fill="none" xmlns="http://www.w3.org/2000/svg">
<g clip-path="url(#clip0_16_15313)">
<path d="M56.9765 13.7009C56.9765 13.8427 56.882 13.9371 56.7402 13.9371H0.70874V52.2049H59.2914V12.1419C59.2914 9.96864 57.4961 7.79541 55.3229 7.79541H4.67724C2.50402 7.79541 0.70874 9.92139 0.70874 12.1419V13.4647H56.7402C56.8347 13.4647 56.9765 13.5592 56.9765 13.7009ZM30.0946 47.008C30.0473 47.008 30.0473 47.0553 30.0001 47.0553C29.9528 47.0553 29.9528 47.0553 29.9056 47.008C29.2442 46.6773 14.1733 39.2127 14.1733 28.819C14.1733 24.0474 18.0473 20.1734 22.819 20.1734C25.7481 20.1734 28.3938 21.6379 30.0001 24.0474C31.6064 21.5907 34.252 20.1734 37.1812 20.1734C41.9528 20.1734 45.8269 24.0474 45.8269 28.819C45.8269 39.26 30.756 46.7245 30.0946 47.008Z" fill="#F4EFEF"/>
<path d="M37.1812 20.1733C34.2521 20.1733 31.6064 21.6379 30.0001 24.0474C28.3938 21.5907 25.7481 20.1733 22.819 20.1733C18.0474 20.1733 14.1733 24.0474 14.1733 28.819C14.1733 39.26 29.2442 46.7245 29.9056 47.008C29.9529 47.008 29.9529 47.0552 30.0001 47.0552C30.0474 47.0552 30.0474 47.0552 30.0946 47.008C30.756 46.6773 45.8269 39.2127 45.8269 28.819C45.8269 24.0474 41.9529 20.1733 37.1812 20.1733Z" fill="#DF5C4E"/>
<path d="M55.3229 7.79541H4.67724C2.50402 7.79541 0.70874 9.92139 0.70874 12.1419V13.4647H56.7402C56.882 13.4647 56.9765 13.5592 56.9765 13.7009C56.9765 13.8427 56.882 13.9371 56.7402 13.9371H59.2914V12.1419C59.2914 9.92139 57.4961 7.79541 55.3229 7.79541Z" fill="#DF5C4E"/>
<path d="M59.5276 52.9132H0.472441C0.188976 52.9132 0 52.7242 0 52.4408V12.1415C0 9.44863 2.17323 7.08643 4.67717 7.08643H55.3228C57.8268 7.08643 60 9.44863 60 12.1415V52.4408C60 52.7242 59.811 52.9132 59.5276 52.9132ZM0.944882 51.9683H59.0551V12.1415C59.0551 10.0156 57.2598 8.03131 55.3228 8.03131H4.67717C2.74016 8.03131 0.944882 9.96832 0.944882 12.1415V51.9683Z" fill="black"/>
<path d="M56.9292 14.1734H0.708769C0.425304 14.1734 0.236328 13.9844 0.236328 13.701C0.236328 13.4175 0.425304 13.2285 0.708769 13.2285H56.9292C57.2127 13.2285 57.4017 13.4175 57.4017 13.701C57.4017 13.9844 57.2127 14.1734 56.9292 14.1734Z" fill="black"/>
<path d="M4.20462 11.6695C4.06289 11.6695 3.9684 11.6222 3.87391 11.5278C3.77942 11.4333 3.73218 11.3388 3.73218 11.1971C3.73218 11.0553 3.77942 10.9608 3.87391 10.8663C4.06289 10.6774 4.34635 10.6774 4.53533 10.8663C4.62982 10.9608 4.67706 11.1026 4.67706 11.1971C4.67706 11.3388 4.62982 11.4333 4.53533 11.5278C4.48808 11.6222 4.34635 11.6695 4.20462 11.6695Z" fill="black"/>
<path d="M6.56692 11.6695C6.42519 11.6695 6.3307 11.6222 6.23621 11.5278C6.14173 11.4333 6.09448 11.3388 6.09448 11.1971C6.09448 11.0553 6.14173 10.9608 6.23621 10.8663C6.42519 10.6774 6.70866 10.6774 6.89763 10.8663C6.99212 10.9608 7.03936 11.1026 7.03936 11.1971C7.03936 11.3388 6.99212 11.4333 6.89763 11.5278C6.80314 11.6222 6.70866 11.6695 6.56692 11.6695Z" fill="black"/>
<path d="M8.92923 11.6695C8.7875 11.6695 8.69301 11.6222 8.59852 11.5278C8.50403 11.4333 8.45679 11.3388 8.45679 11.1971C8.45679 11.0553 8.50403 10.9608 8.59852 10.8663C8.7875 10.6774 9.1182 10.6774 9.25994 10.8663C9.35443 10.9608 9.40167 11.1026 9.40167 11.1971C9.40167 11.3388 9.35443 11.4333 9.25994 11.5278C9.16545 11.6222 9.02372 11.6695 8.92923 11.6695Z" fill="black"/>
<path d="M30 47.2913C29.9528 47.2913 29.8583 47.2913 29.811 47.2441C29.1496 46.9134 13.937 39.4016 13.937 28.8189C13.937 23.9055 17.9055 19.937 22.8189 19.937C25.7008 19.937 28.3465 21.3071 30 23.6221C31.6535 21.3071 34.2992 19.937 37.1811 19.937C42.0945 19.937 46.063 23.9055 46.063 28.8189C46.063 39.4016 30.8504 46.9134 30.189 47.2441C30.1417 47.2913 30.0945 47.2913 30 47.2913ZM22.8189 20.8819C18.4724 20.8819 14.8819 24.4252 14.8819 28.8189C14.8819 38.1732 28.1575 45.3543 30 46.2992C31.8425 45.3543 45.1181 38.1732 45.1181 28.8189C45.1181 24.4724 41.5748 20.8819 37.1811 20.8819C34.3937 20.8819 31.8425 22.3465 30.378 24.7559C30.189 25.0394 29.7165 25.0394 29.5748 24.7559C28.1575 22.3465 25.6063 20.8819 22.8189 20.8819Z" fill="black"/>
<path d="M40.6772 25.7479C40.5355 25.7479 40.441 25.7007 40.3465 25.6062C39.4961 24.7558 38.3623 24.3306 37.1812 24.3306C36.8977 24.3306 36.7087 24.1416 36.7087 23.8582C36.7087 23.5747 36.8977 23.3857 37.1812 23.3857C38.5985 23.3857 39.9686 23.9527 41.008 24.9448C41.1969 25.1338 41.1969 25.4172 41.008 25.6062C40.9607 25.7007 40.819 25.7479 40.6772 25.7479Z" fill="black"/>
</g>
<defs>
<clipPath id="clip0_16_15313">
<rect width="60" height="60" fill="white"/>
</clipPath>
</defs>
</svg>
