<svg width="60" height="60" viewBox="0 0 60 60" fill="none" xmlns="http://www.w3.org/2000/svg">
<g clip-path="url(#clip0_10_509)">
<path d="M56.6696 16.6572H3.33841V54.9908C3.33841 55.9096 4.07932 56.6604 5.00806 56.6604H54.9998C55.9186 56.6604 56.6694 55.9195 56.6694 54.9908V16.6572H56.6696Z" fill="white"/>
<path d="M15.4511 21.1525C16.3699 21.1525 17.1207 21.8934 17.1207 22.8222C17.1207 23.741 16.3798 24.4918 15.4511 24.4918H6.66791V27.4162H11.2719C12.1907 27.4162 12.9415 28.1571 12.9415 29.0858C12.9415 30.0046 12.2006 30.7555 11.2719 30.7555H6.66791V53.3308H53.3301V16.6572H6.66791V21.1426H15.4511V21.1525Z" fill="#56ACE0"/>
<path d="M13.396 33.4232L19.6105 36.0908V45.7532C19.6105 46.3164 19.9068 46.8499 20.391 47.1562C26.2398 50.9599 34.1041 50.6634 39.627 47.1562C40.1111 46.8499 40.4075 46.3164 40.4075 45.7532V36.0908L44.2902 34.4211V43.5106C44.2902 44.4294 45.0313 45.1802 45.9599 45.1802C46.8884 45.1802 47.6295 44.4393 47.6295 43.5106V31.8821C47.6196 31.1806 47.254 30.6866 46.6218 30.3507L30.656 23.504C30.2311 23.3261 29.7569 23.3261 29.3419 23.504L13.4157 30.3507C12.1315 30.8445 12.0227 32.7613 13.396 33.4232ZM37.068 44.7948C32.6913 47.2055 27.3266 47.2055 22.94 44.7948V37.5232L29.3322 40.2599C29.757 40.4378 30.1917 40.4476 30.6462 40.2599L37.068 37.5035V44.7948ZM29.9843 26.8531L41.7215 31.8819L29.9843 36.9107L18.2767 31.8819L29.9843 26.8531Z" fill="#194F82"/>
<path d="M29.3322 40.2598L22.94 37.5231V44.7947C27.3167 47.2054 32.6814 47.2054 37.068 44.7947V37.5034L30.6462 40.2598C30.1819 40.4477 29.7471 40.4377 29.3322 40.2598Z" fill="white"/>
<path d="M18.2767 31.8818L29.9843 36.9106L41.7215 31.8818L29.9843 26.853L18.2767 31.8818Z" fill="white"/>
<path d="M54.9999 0H5.00804C2.25163 0 0.00888062 2.24275 0.00888062 4.99916V54.9909C0.00888062 57.7572 2.25163 60 5.00804 60H54.9998C57.7562 60 59.9989 57.7572 59.9989 55.0008V4.99916C59.9991 2.24275 57.7563 0 54.9999 0ZM56.6696 54.9909C56.6696 55.9097 55.9287 56.6606 54.9999 56.6606H5.00804C4.08924 56.6606 3.33839 55.9196 3.33839 54.9909V16.6573H56.6696V54.9909ZM56.6696 13.3278H3.33839V4.99916C3.33839 4.08036 4.0793 3.32951 5.00804 3.32951H54.9998C55.9186 3.32951 56.6694 4.07042 56.6694 4.99916V13.3378V13.3278H56.6696Z" fill="#194F82"/>
<path d="M56.6696 4.99924C56.6696 4.08043 55.9287 3.32959 55 3.32959H5.00806C4.08925 3.32959 3.33841 4.0705 3.33841 4.99924V13.3378H56.6696V4.99924Z" fill="#FFC10D"/>
<path d="M43.1441 6.65918H41.5239C40.6051 6.65918 39.8542 7.40009 39.8542 8.32883C39.8542 9.25756 40.5951 9.99847 41.5239 9.99847H43.1441C44.0629 9.99847 44.8138 9.25756 44.8138 8.32883C44.8138 7.40009 44.0729 6.65918 43.1441 6.65918Z" fill="#194F82"/>
<path d="M34.6179 6.65918H8.33755C7.41875 6.65918 6.66791 7.40009 6.66791 8.32883C6.66791 9.25756 7.40882 9.99847 8.33755 9.99847H34.6277C35.5465 9.99847 36.2973 9.25756 36.2973 8.32883C36.2973 7.40009 35.5466 6.65918 34.6179 6.65918Z" fill="#194F82"/>
<path d="M51.6605 6.65918H50.0402C49.1214 6.65918 48.3706 7.40009 48.3706 8.32883C48.3706 9.25756 49.1115 9.99847 50.0402 9.99847H51.6605C52.5793 9.99847 53.3302 9.25756 53.3302 8.32883C53.3302 7.40009 52.5793 6.65918 51.6605 6.65918Z" fill="#194F82"/>
</g>
<defs>
<clipPath id="clip0_10_509">
<rect width="60" height="60" fill="white" transform="translate(0.0039978)"/>
</clipPath>
</defs>
</svg>
