<svg width="512" height="512" viewBox="0 0 512 512" fill="none" xmlns="http://www.w3.org/2000/svg">
<g clip-path="url(#clip0_14_4927)">
<path d="M335.449 185.379H176.552V238.345H335.449V185.379Z" fill="#FFCF65"/>
<path d="M406.069 361.931H105.931V459.034H406.069V361.931Z" fill="#FF4B4B"/>
<path d="M379.586 291.31H132.414V344.276H379.586V291.31Z" fill="#FFCF65"/>
<path d="M379.586 291.31H132.414V317.793H379.586V291.31Z" fill="#FFB450"/>
<path d="M335.449 185.379H176.552V211.862H335.449V185.379Z" fill="#FFB450"/>
<path d="M426.219 362.095L379.586 335.448H132.414L85.781 362.095C81.653 364.454 83.327 370.758 88.082 370.758H423.92C428.674 370.759 430.348 364.455 426.219 362.095Z" fill="#625D6B"/>
<path d="M256 70.6211C228.367 123.814 173.704 147.814 151.239 155.737C146.719 157.33 145.461 163.118 148.85 166.507L176.552 194.208H335.449L363.151 166.506C366.54 163.117 365.282 157.33 360.762 155.736C338.296 147.814 283.633 123.814 256 70.6211Z" fill="#625D6B"/>
<path d="M256 79.4477C265.751 79.4477 273.655 71.5433 273.655 61.7927C273.655 52.0421 265.751 44.1377 256 44.1377C246.249 44.1377 238.345 52.0421 238.345 61.7927C238.345 71.5433 246.249 79.4477 256 79.4477Z" fill="#FFCF65"/>
<path d="M335.448 229.517H176.552L105.326 261.173C101.364 262.934 100.4 268.123 103.467 271.189L132.415 300.138H379.587L408.535 271.19C411.601 268.124 410.638 262.935 406.676 261.174L335.448 229.517Z" fill="#504B5A"/>
<path d="M409.857 264.828C409.324 263.299 408.332 261.91 406.675 261.173L335.448 229.517H176.552L105.326 261.174C103.669 261.91 102.677 263.299 102.144 264.829H409.858L409.857 264.828Z" fill="#625D6B"/>
<path d="M364.153 158.897H147.847C146.593 161.298 146.692 164.347 148.85 166.506L176.552 194.207H335.449L363.151 166.505C365.309 164.348 365.407 161.298 364.153 158.897Z" fill="#504B5A"/>
<path d="M406.069 370.76H105.931V388.415H406.069V370.76Z" fill="#FFB450"/>
<path d="M282.483 238.345H229.517C224.642 238.345 220.689 234.392 220.689 229.517V167.724C220.689 162.849 224.642 158.896 229.517 158.896H282.483C287.358 158.896 291.311 162.849 291.311 167.724V229.517C291.31 234.392 287.359 238.345 282.483 238.345Z" fill="#FFB450"/>
<path d="M273.655 176.552H238.345V220.69H273.655V176.552Z" fill="#5091D7"/>
<path d="M264.828 406.069H247.173C242.298 406.069 238.345 410.022 238.345 414.897V459.035H273.655V414.897C273.655 410.022 269.704 406.069 264.828 406.069Z" fill="#504B5A"/>
<path d="M185.379 406.069H167.724C162.849 406.069 158.896 410.022 158.896 414.897V459.035H194.206V414.897C194.207 410.022 190.254 406.069 185.379 406.069Z" fill="#504B5A"/>
<path d="M344.276 406.069H326.621C321.746 406.069 317.793 410.022 317.793 414.897V459.035H353.103V414.897C353.103 410.022 349.152 406.069 344.276 406.069Z" fill="#504B5A"/>
<path d="M220.69 459.034H17.655V432.551C17.655 427.676 21.608 423.723 26.483 423.723H211.862C216.737 423.723 220.69 427.676 220.69 432.551V459.034Z" fill="#EDEDEE"/>
<path d="M494.345 459.034H291.31V432.551C291.31 427.676 295.263 423.723 300.138 423.723H485.517C490.392 423.723 494.345 427.676 494.345 432.551V459.034Z" fill="#EDEDEE"/>
<path d="M503.172 467.862H8.828C3.953 467.862 0 463.909 0 459.034C0 454.159 3.953 450.206 8.828 450.206H503.173C508.048 450.206 512.001 454.159 512.001 459.034C512 463.911 508.049 467.862 503.172 467.862Z" fill="#DCDBDE"/>
</g>
<defs>
<clipPath id="clip0_14_4927">
<rect width="512" height="512" fill="white"/>
</clipPath>
</defs>
</svg>
