<svg width="60" height="60" viewBox="0 0 60 60" fill="none" xmlns="http://www.w3.org/2000/svg">
<path d="M29.6534 3.88688C29.7771 3.80242 29.9224 3.75493 30.0721 3.74995C30.2219 3.74497 30.3699 3.78271 30.499 3.85875C30.8658 4.11645 31.1478 4.47735 31.309 4.89563C31.6452 5.70103 31.8509 6.55486 31.9184 7.425C32.0576 8.80792 31.9503 10.2046 31.6015 11.55C34.6489 11.8401 37.5794 12.8699 40.1384 14.55C40.5486 13.3968 41.1474 12.3197 41.9103 11.3625C42.5638 10.4799 43.3804 9.73081 44.3159 9.15563C44.517 9.01729 44.7448 8.92248 44.9847 8.87728C45.2246 8.83208 45.4713 8.83747 45.709 8.89313C45.8959 8.99806 46.0473 9.15632 46.1438 9.34768C46.2403 9.53905 46.2776 9.75484 46.2509 9.9675C46.1954 10.8196 45.9603 11.6503 45.5609 12.405C44.8235 13.9307 43.7589 15.2751 42.4428 16.3425C43.7736 17.5536 44.9258 18.9475 45.8646 20.4825L43.2978 22.0425C41.9092 19.7567 39.9628 17.861 37.6412 16.5334C35.3195 15.2057 32.6986 14.4895 30.0243 14.4521C27.3501 14.4146 24.7102 15.057 22.3522 16.3191C19.9942 17.5811 17.9954 19.4215 16.5434 21.6675L14.0215 20.0381C14.9789 18.5681 16.1348 17.2374 17.4565 16.0838C16.3544 15.1059 15.4439 13.9316 14.7715 12.6206C14.3269 11.8235 14.0542 10.9421 13.9709 10.0331C13.9419 9.82771 13.9668 9.61829 14.043 9.42536C14.1193 9.23243 14.2443 9.0626 14.4059 8.9325C14.6007 8.84939 14.8122 8.81258 15.0236 8.82494C15.2351 8.8373 15.4408 8.89851 15.6246 9.00375C16.428 9.41422 17.1434 9.97794 17.7303 10.6631C18.6867 11.7069 19.4487 12.9134 19.9803 14.2256C22.5848 12.6277 25.5393 11.6881 28.5884 11.4881C28.2552 10.165 28.153 8.79418 28.2865 7.43625C28.3531 6.58042 28.551 5.73995 28.8734 4.94438C29.0306 4.52651 29.3006 4.16044 29.6534 3.88688Z" fill="#277A9F"/>
<path d="M4.78339 23.625H8.39839C8.39839 25.3212 8.39839 27.0175 8.39839 28.7137H12.4765C12.4765 27.0187 12.4765 25.3231 12.4765 23.6269H16.0934C16.0934 28.1819 16.0934 32.7369 16.0934 37.2919H12.4765C12.4765 35.4831 12.4765 33.6756 12.4765 31.8694H8.39839C8.39839 33.6781 8.39839 35.4862 8.39839 37.2937H4.78339V23.625Z" fill="#277A9F"/>
<path d="M19.0409 23.625H27.8702V26.6512H22.6577V28.7962H27.1146C27.1146 29.805 27.1146 30.8137 27.1146 31.8225H22.6577V34.26H28.0802C28.0802 35.2687 28.0802 36.2775 28.0802 37.2862H19.0409V23.625Z" fill="#277A9F"/>
<path d="M30.784 23.625H34.399V34.2619H39.5665C39.5665 35.2706 39.5665 36.2794 39.5665 37.2881H30.784V23.625Z" fill="#277A9F"/>
<path d="M41.9402 23.625H45.8084C46.4109 25.2588 47.0127 26.8931 47.614 28.5281C48.0115 29.5481 48.2684 30.6113 48.6002 31.6519C48.6714 31.5644 48.7214 31.4618 48.7465 31.3519C48.9565 30.6188 49.174 29.8856 49.4046 29.1562C50.0534 27.3125 50.704 25.4694 51.3565 23.6269H55.2265V37.2919H51.9415C51.8849 35.1932 51.935 33.093 52.0915 30.9994C52.174 30.1088 52.3202 29.2237 52.3952 28.3312C52.2973 28.4572 52.2264 28.6022 52.1871 28.7569C51.3527 31.2544 50.4284 33.7219 49.4946 36.1837C48.8534 36.1706 48.2121 36.1837 47.5709 36.1837C47.0184 34.7 46.4665 33.2162 45.9152 31.7325C45.5927 30.795 45.2815 29.8388 44.9665 28.8919C44.9252 28.6938 44.8414 28.507 44.7209 28.3444C44.9642 30.0607 45.1156 31.7888 45.1746 33.5212C45.1746 34.78 45.1746 36.0387 45.1746 37.2975H41.9402V23.625Z" fill="#277A9F"/>
<path d="M14.3796 40.8748C15.1996 40.3023 16.0209 39.7305 16.8434 39.1592C18.2992 41.2508 20.2397 42.9589 22.499 44.1378C24.7583 45.3167 27.2693 45.9313 29.8177 45.9291C32.3661 45.9268 34.876 45.3079 37.1333 44.1251C39.3905 42.9423 41.328 41.2308 42.7802 39.1367L45.2477 40.8467C44.4914 41.933 43.6249 42.9383 42.6621 43.8467C43.8111 44.8383 44.7572 46.043 45.4484 47.3942C45.892 48.1898 46.1647 49.0691 46.249 49.9761C46.2806 50.1904 46.2518 50.4093 46.1656 50.6081C46.0795 50.8069 45.9395 50.9776 45.7615 51.1011C45.5283 51.1724 45.2822 51.1906 45.0411 51.1542C44.8 51.1179 44.5701 51.028 44.3684 50.8911C43.4591 50.3496 42.6622 49.6386 42.0209 48.7967C41.2788 47.8819 40.6789 46.8604 40.2415 45.7667C37.6864 47.4742 34.7497 48.5252 31.6915 48.8267C31.8977 49.7494 31.9884 50.6942 31.9615 51.6392C31.9654 52.7574 31.7698 53.8672 31.384 54.9167C31.2249 55.3854 30.9346 55.7986 30.5477 56.1073C30.4063 56.2032 30.2381 56.2518 30.0672 56.2461C29.8964 56.2403 29.7318 56.1806 29.5971 56.0755C29.1811 55.7071 28.8775 55.2288 28.7215 54.6955C28.2966 53.3567 28.1367 51.9479 28.2509 50.548C28.2838 49.9852 28.3616 49.4259 28.4834 48.8755C25.419 48.6615 22.4537 47.6997 19.8471 46.0742C19.2409 47.4482 18.3838 48.6971 17.3196 49.7567C16.7652 50.3439 16.0887 50.8022 15.3377 51.0992C15.146 51.1875 14.9311 51.2126 14.7242 51.1708C14.5172 51.129 14.329 51.0225 14.1865 50.8667C13.9322 50.3646 13.8864 49.7824 14.059 49.2467C14.4244 47.8912 15.0652 46.6255 15.9415 45.5286C16.3304 45.0186 16.762 44.5425 17.2315 44.1055C16.1647 43.137 15.2082 42.0536 14.3796 40.8748Z" fill="#277A9F"/>
</svg>
