<svg width="60" height="60" viewBox="0 0 60 60" fill="none" xmlns="http://www.w3.org/2000/svg">
<path d="M51.6562 25.6312C51.6562 25.6312 56.6156 23.2593 57.7922 18.2062C58.9734 13.1484 55.2 9.97493 51.4359 11.4187C47.1094 13.0734 44.8125 16.7812 44.8125 16.7812L51.6562 25.6312Z" fill="white" stroke="#91BDCE" stroke-width="1.40625" stroke-miterlimit="10"/>
<path d="M49.8468 24.6845C49.8468 24.6845 53.0344 19.1954 53.7797 17.3391C54.3234 15.9891 54.0937 15.3657 52.4625 16.0079C49.6218 17.1282 45.6703 18.7641 45.6703 18.7641L49.8468 24.6845Z" fill="#91BDCE"/>
<path d="M8.34371 25.6313C8.34371 25.6313 3.38433 23.2595 2.20777 18.2063C1.03121 13.1532 4.79996 9.9751 8.56402 11.4188C12.8906 13.0735 15.1875 16.7813 15.1875 16.7813L8.34371 25.6313Z" fill="white" stroke="#91BDCE" stroke-width="1.40625" stroke-miterlimit="10"/>
<path d="M10.1531 24.6845C10.1531 24.6845 6.96562 19.1954 6.2203 17.3391C5.67655 15.9891 5.90624 15.3657 7.53749 16.0079C10.3781 17.1282 14.3297 18.7641 14.3297 18.7641L10.1531 24.6845Z" fill="#91BDCE"/>
<path d="M54.7266 29.5736C52.5 20.9955 47.6484 14.6861 41.2875 11.4846C37.6641 9.66111 34.9406 10.3361 32.85 11.2314C31.7016 11.7236 30.7125 11.8455 29.9156 11.8455C29.1188 11.8455 28.2188 11.7189 27.0703 11.2314C24.9797 10.3361 22.2563 9.65643 18.6328 11.4846C12.2719 14.6908 7.42032 20.9955 5.19376 29.5736C2.94376 38.2502 6.30001 41.6486 9.07501 44.4049C13.1109 48.408 21.8531 49.7627 29.9625 49.6642C38.0719 49.7627 46.8141 48.408 50.85 44.4049C53.6203 41.6486 56.9766 38.2502 54.7266 29.5736Z" fill="white" stroke="#91BDCE" stroke-width="1.40625" stroke-miterlimit="10"/>
<path d="M39.3469 27.4783C36.7406 20.9018 31.7953 20.0908 30 20.0908C28.2047 20.0908 23.2594 20.9018 20.6531 27.4783C19.2609 30.9939 18.3703 33.7033 18.9422 36.4268C20.0765 41.8502 24.5203 44.3955 30.0047 44.3955C35.489 44.3955 39.9328 41.8455 41.0672 36.4268C41.6297 33.7033 40.7437 30.9939 39.3469 27.4783Z" fill="#CFD8DC"/>
<path d="M35.3532 35.1891C34.7954 34.7672 33.7875 34.2047 32.4704 33.7172C31.7016 33.4312 31.1344 32.7797 31.1719 31.9641C31.2141 31.0594 31.2469 30.0797 31.2 29.9766C31.0875 29.7281 30.3985 29.55 30.0563 29.5781H29.9438C29.6016 29.55 28.9079 29.7281 28.8 29.9766C28.7625 30.0656 28.7813 30.8156 28.8141 31.6031C28.8563 32.5875 28.2141 33.4172 27.3 33.7828C26.1188 34.2516 25.1719 34.7953 24.6516 35.1937C24.3329 35.4328 24.0797 35.8969 24.2344 36.3141C24.436 36.8484 25.3313 36.7734 25.8375 36.5437C27.1969 35.925 28.4485 35.6016 30 35.6016C31.5563 35.6016 32.8032 35.925 34.1625 36.5437C34.6688 36.7734 35.5641 36.8484 35.7657 36.3141C35.925 35.8922 35.6719 35.4281 35.3532 35.1891Z" fill="#231F20"/>
<path d="M33.075 24.4921C31.6829 23.6155 28.5985 23.653 26.8125 24.4921C25.9594 24.8905 24.0094 26.8921 24.5625 29.0296C24.8016 29.9577 25.4625 30.703 26.1516 31.1202C27 31.6311 29.6672 32.2921 29.9438 32.2874C30.2204 32.2921 33.0047 31.5139 33.8532 31.003C34.5422 30.5858 35.2032 29.8405 35.4422 28.9124C36 26.7796 33.8719 24.9936 33.075 24.4921Z" fill="#231F20"/>
<path d="M40.9125 24.2155C42.0567 24.2155 42.9843 23.2879 42.9843 22.1437C42.9843 20.9994 42.0567 20.0718 40.9125 20.0718C39.7682 20.0718 38.8406 20.9994 38.8406 22.1437C38.8406 23.2879 39.7682 24.2155 40.9125 24.2155Z" fill="#231F20"/>
<path d="M19.0875 24.2155C20.2318 24.2155 21.1594 23.2879 21.1594 22.1437C21.1594 20.9994 20.2318 20.0718 19.0875 20.0718C17.9432 20.0718 17.0156 20.9994 17.0156 22.1437C17.0156 23.2879 17.9432 24.2155 19.0875 24.2155Z" fill="#231F20"/>
</svg>
