<svg width="60" height="60" viewBox="0 0 60 60" fill="none" xmlns="http://www.w3.org/2000/svg">
<g clip-path="url(#clip0_10_381)">
<path d="M59.004 30C59.004 14.0001 46.004 1 30.004 1C14.004 1 1.00397 14.0001 1.00397 30C1.00397 46 14.004 59.0001 30.004 59.0001C46.004 59.0001 59.004 46 59.004 30Z" fill="#FFE100"/>
<path d="M30.004 1C30.504 1 31.004 1 31.504 1C16.204 1.80004 4.00397 14.5 4.00397 30C4.00397 45.5001 16.204 58.2 31.504 59.0001C31.004 59.0001 30.504 59.0001 30.004 59.0001C14.004 59.0001 1.00397 46 1.00397 30C1.00397 14.0001 14.004 1 30.004 1Z" fill="white"/>
<path d="M30.004 1C29.504 1 29.004 1 28.504 1C43.804 1.80004 56.004 14.5 56.004 30C56.004 45.5001 43.804 58.2 28.504 59.0001C29.004 59.0001 29.504 59.0001 30.004 59.0001C46.004 59.0001 59.004 46.0001 59.004 30C59.004 14 46.004 1 30.004 1Z" fill="#FFA800"/>
<path d="M35.004 8.6001V13.0001H25.0041V8.6001C15.304 10.8001 8.00403 19.6 8.00403 30.0001C8.00403 33.6001 8.90403 37 10.404 40H16.0041V47C19.8041 50.0999 24.7041 52 30.0041 52C35.3041 52 40.2041 50.1001 44.0041 47V40H49.6042C51.1042 37 52.0042 33.6001 52.0042 30.0001C52.004 19.6 44.704 10.8001 35.004 8.6001Z" fill="#63D3FD"/>
<path d="M26.004 30.9999H34.0039V17H26.004V30.9999Z" fill="#FFE100"/>
<path d="M31.004 30.9999H34.004V17H31.004V30.9999Z" fill="#FFA800"/>
<path d="M22.004 20C22.004 18.3 20.704 17 19.004 17C17.3039 17 16.004 18.3 16.004 20C16.004 21.7 17.3039 23 19.004 23C20.704 23 22.004 21.6999 22.004 20Z" fill="#FFE100"/>
<path d="M38.004 20C38.004 18.3 39.304 17 41.004 17C42.7041 17 44.004 18.3 44.004 20C44.004 21.7 42.7041 23 41.004 23C39.304 23 38.004 21.6999 38.004 20Z" fill="#FFE100"/>
<path d="M41.004 31C41.004 29.3 42.304 28 44.004 28C45.7041 28 47.004 29.3 47.004 31C47.004 32.7 45.7041 34 44.004 34C42.304 34 41.004 32.7 41.004 31Z" fill="#FFE100"/>
<path d="M19.004 31C19.004 29.3 17.704 28 16.004 28C14.3039 28 13.004 29.3 13.004 31C13.004 32.7 14.3039 34 16.004 34C17.704 34 19.004 32.7 19.004 31Z" fill="#FFE100"/>
<path d="M27.004 42C27.004 40.3 25.704 39 24.004 39C22.304 39 21.004 40.3 21.004 42C21.004 43.7 22.304 45 24.004 45C25.704 45 27.004 43.7 27.004 42Z" fill="#FFE100"/>
<path d="M33.004 42C33.004 40.3 34.304 39 36.004 39C37.704 39 39.004 40.3 39.004 42C39.004 43.7 37.704 45 36.004 45C34.304 45 33.004 43.7 33.004 42Z" fill="#FFE100"/>
<path d="M30.004 60C13.504 60 0.0039978 46.5 0.0039978 30C0.0039978 13.5 13.504 0 30.004 0C46.504 0 60.004 13.5 60.004 30C60.004 46.5 46.504 60 30.004 60ZM30.004 2.00004C14.604 2.00004 2.00404 14.6 2.00404 30C2.00404 45.4 14.604 58 30.004 58C45.404 58 58.004 45.4 58.004 30C58.004 14.6 45.404 2.00004 30.004 2.00004Z" fill="black"/>
<path d="M34.004 32H26.0039C25.4039 32 25.004 31.6 25.004 31V17C25.004 16.4 25.4039 16 26.0039 16H34.004C34.604 16 35.0039 16.4 35.0039 17V31C35.004 31.5999 34.604 32 34.004 32ZM27.004 29.9999H33.004V17.9999H27.004V29.9999Z" fill="black"/>
<path d="M19.004 23.9999C16.804 23.9999 15.004 22.1999 15.004 20C15.004 17.8 16.804 16 19.004 16C21.2039 16 23.0039 17.8 23.0039 20C23.0039 22.1999 21.204 23.9999 19.004 23.9999ZM19.004 17.9999C17.9039 17.9999 17.0039 18.8999 17.0039 20C17.0039 21.1 17.9039 22 19.004 22C20.104 22 21.004 21.1 21.004 20C21.004 18.8999 20.104 17.9999 19.004 17.9999Z" fill="black"/>
<path d="M41.004 23.9999C38.8041 23.9999 37.0041 22.1999 37.0041 20C37.0041 17.8 38.8041 16 41.004 16C43.204 16 45.004 17.8 45.004 20C45.004 22.1999 43.204 23.9999 41.004 23.9999ZM41.004 17.9999C39.904 17.9999 39.004 18.8999 39.004 20C39.004 21.1 39.904 22 41.004 22C42.1041 22 43.0041 21.1 43.0041 20C43.0041 18.8999 42.104 17.9999 41.004 17.9999Z" fill="black"/>
<path d="M44.004 34.9999C41.8041 34.9999 40.0041 33.1999 40.0041 31C40.0041 28.8 41.8041 27 44.004 27C46.204 27 48.004 28.8 48.004 31C48.004 33.1999 46.204 34.9999 44.004 34.9999ZM44.004 28.9999C42.904 28.9999 42.004 29.8999 42.004 31C42.004 32.1 42.904 33 44.004 33C45.1041 33 46.0041 32.1 46.0041 31C46.004 29.8999 45.104 28.9999 44.004 28.9999Z" fill="black"/>
<path d="M16.004 34.9999C13.804 34.9999 12.004 33.1999 12.004 31C12.004 28.8 13.804 27 16.004 27C18.2039 27 20.0039 28.8 20.0039 31C20.0039 33.1999 18.204 34.9999 16.004 34.9999ZM16.004 28.9999C14.9039 28.9999 14.0039 29.8999 14.0039 31C14.0039 32.1 14.9039 33 16.004 33C17.104 33 18.004 32.1 18.004 31C18.004 29.8999 17.104 28.9999 16.004 28.9999Z" fill="black"/>
<path d="M24.004 45.9999C21.804 45.9999 20.004 44.1999 20.004 42C20.004 39.8 21.804 38 24.004 38C26.2039 38 28.0039 39.8 28.0039 42C28.0039 44.1999 26.2039 45.9999 24.004 45.9999ZM24.004 39.9999C22.9039 39.9999 22.0039 40.8999 22.0039 42C22.0039 43.1 22.9039 44 24.004 44C25.104 44 26.004 43.1 26.004 42C26.004 40.8999 25.104 39.9999 24.004 39.9999Z" fill="black"/>
<path d="M36.004 45.9999C33.804 45.9999 32.004 44.1999 32.004 42C32.004 39.8 33.804 38 36.004 38C38.204 38 40.004 39.8 40.004 42C40.004 44.1999 38.204 45.9999 36.004 45.9999ZM36.004 39.9999C34.904 39.9999 34.004 40.8999 34.004 42C34.004 43.1 34.904 44 36.004 44C37.104 44 38.004 43.1 38.004 42C38.004 40.8999 37.104 39.9999 36.004 39.9999Z" fill="black"/>
<path d="M30.004 52.9998C24.704 52.9998 19.504 51.0999 15.404 47.6998C15.104 47.5998 15.004 47.2998 15.004 46.9998V40.9998H10.404C10.0041 40.9998 9.70408 40.7998 9.50405 40.4998C7.80401 37.1998 7.00397 33.6998 7.00397 29.9998C7.00397 19.2998 14.3039 9.99976 24.8039 7.59976C25.1039 7.4998 25.4039 7.59976 25.604 7.7998C25.904 7.99984 26.0039 8.29984 26.0039 8.59984V11.9998H34.004V8.59984C34.004 8.29984 34.1039 7.99984 34.4039 7.7998C34.604 7.59976 34.904 7.4998 35.204 7.59976C45.704 9.99976 53.0039 19.2998 53.0039 29.9998C53.0039 33.6998 52.2039 37.1998 50.504 40.4998C50.3039 40.7998 50.0039 40.9998 49.604 40.9998H45.004V46.9998C45.004 47.2998 44.904 47.5998 44.604 47.7999C40.504 51.0998 35.304 52.9998 30.004 52.9998ZM17.004 46.4998C20.704 49.3998 25.3041 50.9998 30.004 50.9998C34.7039 50.9998 39.304 49.3998 43.004 46.4998V39.9998C43.004 39.3998 43.4039 38.9998 44.0039 38.9998H49.004C50.3039 36.1998 51.004 33.1998 51.004 29.9998C51.004 20.5998 44.904 12.4998 36.004 9.8998V12.9998C36.004 13.5998 35.604 13.9997 35.004 13.9997H25.0041C24.4041 13.9997 24.0041 13.5998 24.0041 12.9998V9.8998C15.1041 12.4998 9.00412 20.5998 9.00412 29.9998C9.00412 33.0998 9.70408 36.1998 11.0042 38.9998H16.0042C16.6042 38.9998 17.0042 39.3998 17.0042 39.9998L17.004 46.4998Z" fill="black"/>
</g>
<defs>
<clipPath id="clip0_10_381">
<rect width="60" height="60" fill="white" transform="translate(0.0039978)"/>
</clipPath>
</defs>
</svg>
