<svg width="61" height="60" viewBox="0 0 61 60" fill="none" xmlns="http://www.w3.org/2000/svg">
<g clip-path="url(#clip0_19_16798)">
<path d="M56.2831 9.82764H4.55892C2.55927 9.82764 0.938232 11.4487 0.938232 13.4483V46.5518C0.938232 48.5514 2.55927 50.1725 4.55892 50.1725H56.2831C58.2827 50.1725 59.9037 48.5514 59.9037 46.5518V13.4483C59.9037 11.4487 58.2827 9.82764 56.2831 9.82764Z" fill="white" stroke="#F3F3F3" stroke-width="1.03448"/>
<path fill-rule="evenodd" clip-rule="evenodd" d="M42.0144 20.6368C41.5085 20.6666 41.1031 20.357 40.9347 19.9216C40.7933 19.5528 40.9682 19.0572 41.3498 18.8153C41.8896 18.4743 42.6216 18.5811 42.9774 19.1369C43.2976 19.6363 43.0962 20.177 42.6357 20.4698C42.4392 20.5967 42.2303 20.6629 42.0144 20.6368ZM5.66489 29.742C5.64131 29.7847 5.61774 29.8275 5.59326 29.8695V30.3885C5.61652 30.4036 5.63759 30.4218 5.65588 30.4427C5.6945 30.5025 5.73093 30.5639 5.76733 30.6254C5.84848 30.7623 5.92941 30.8989 6.03375 31.0154C6.3733 31.396 6.80947 31.6455 7.27534 31.8455C7.87107 32.0994 8.50536 32.2499 9.15121 32.2908C9.48683 32.3123 9.82664 32.2908 10.1644 32.2694L10.3 32.2609C10.9643 32.2216 11.6091 32.0202 12.1786 31.6742C12.6562 31.3944 13.0505 30.9913 13.3207 30.5067C13.7424 29.7426 13.8822 28.92 13.8174 28.0491C13.7927 27.6203 13.7092 27.1969 13.5691 26.7911C13.3487 26.1848 12.9595 25.655 12.4478 25.2646C11.7839 24.7434 11.0108 24.4207 10.2346 24.1052C10.1712 24.0794 10.1077 24.0538 10.0442 24.0283C9.53132 23.8219 9.01774 23.6151 8.56443 23.2798C8.18115 22.9963 7.92042 22.6367 7.87832 22.1655C7.80814 21.3803 8.14823 20.7773 8.94716 20.497C9.26943 20.3836 9.60143 20.3489 9.94043 20.3158C10.2978 20.2811 10.6395 20.3294 10.9845 20.3836C11.4563 20.4557 11.8805 20.6672 12.2989 20.8842C12.6848 21.0847 12.9742 21.0468 13.2247 20.7214C13.4492 20.4302 13.5826 20.1 13.459 19.7252C13.3667 19.4438 13.1404 19.2768 12.889 19.1505C12.1531 18.7806 11.3532 18.6803 10.5493 18.6353C10.1861 18.6151 9.8182 18.6482 9.45157 18.6813C9.38558 18.6872 9.31964 18.6931 9.25378 18.6988C8.64754 18.7503 8.05955 18.9328 7.53013 19.234C6.87695 19.6044 6.39867 20.1287 6.13686 20.8554C5.94036 21.3965 5.92579 21.948 5.94036 22.5072C5.95204 22.8921 6.03994 23.2709 6.19894 23.6215C6.55792 24.4279 7.18627 24.9728 7.95281 25.3524C8.38181 25.5656 8.818 25.764 9.25419 25.9624C9.64571 26.1406 10.0372 26.3186 10.4236 26.5074C10.7116 26.6497 10.979 26.8309 11.2182 27.046C11.7974 27.5654 11.974 28.2341 11.846 28.9932C11.7294 29.6856 11.3099 30.1173 10.6757 30.3543C10.1547 30.5484 9.61654 30.5609 9.06754 30.4975C8.43487 30.4243 7.90045 30.1526 7.42218 29.7464C7.36974 29.7018 7.31759 29.6567 7.26544 29.6117C7.10719 29.4749 6.94864 29.3377 6.78141 29.2134C6.65455 29.1196 6.51905 29.0463 6.33065 29.0952C6.1276 29.1508 5.95201 29.2796 5.83727 29.4568C5.77266 29.5466 5.71879 29.6443 5.66489 29.742ZM5.72282 34.9169C5.86964 34.4994 6.19894 34.3243 6.59733 34.2413C6.85856 34.1936 7.12692 34.2026 7.38439 34.2679C7.99114 34.4007 8.26591 34.8784 8.28156 35.4066C8.3037 36.1565 8.31395 36.9087 8.28156 37.6576C8.24972 38.3479 7.85294 38.7871 7.10854 38.8154C6.8713 38.8226 6.63414 38.7989 6.40299 38.7448C6.03538 38.6602 5.80919 38.4091 5.69421 38.048C5.66771 37.99 5.6868 34.9961 5.72282 34.9169ZM7.76928 36.5313C7.76928 36.5313 7.74606 35.7179 7.73095 35.3085C7.72015 35.0167 7.5323 34.8247 7.27157 34.7413C6.98006 34.648 6.68261 34.6491 6.41757 34.8497C6.15251 35.0504 6.12012 35.3562 6.11742 35.6479C6.11373 36.019 6.12215 36.3901 6.13057 36.7612C6.13691 37.0408 6.14325 37.3204 6.14441 37.6001C6.14711 38.292 6.83755 38.4829 7.31151 38.2866C7.64134 38.15 7.752 37.8626 7.76658 37.5356C7.77664 37.3097 7.7741 37.0759 7.77155 36.8429C7.77041 36.7385 7.76928 36.6345 7.76928 36.5313ZM32.5707 27.1826V26.3637C32.7234 26.3637 32.8747 26.3636 33.0252 26.3634C33.4725 26.3629 33.9111 26.3624 34.3495 26.3664C34.4059 26.3781 34.4543 26.4142 34.4817 26.4652C34.6686 26.8217 34.8512 27.1803 35.0339 27.5392L35.1619 27.7905C35.2455 27.9539 35.3292 28.1175 35.4129 28.281C35.6019 28.6499 35.7912 29.0194 35.9781 29.3891C36.1392 29.7068 36.2996 30.0251 36.4599 30.3433C36.6604 30.7408 36.8608 31.1385 37.0626 31.5354C37.1235 31.6623 37.1957 31.7834 37.2785 31.8971C37.4384 32.1053 37.6635 32.2354 37.9209 32.217C38.2991 32.1936 38.6478 32.0042 38.8742 31.6992C39.0772 31.4312 39.1446 31.2073 38.973 30.8998C38.8521 30.6829 38.7323 30.4661 38.6162 30.2491L37.0615 27.3019C36.8514 26.9042 36.641 26.5066 36.4305 26.1089C36.4427 26.1026 36.453 26.0972 36.4621 26.0924C36.4792 26.0834 36.4921 26.0765 36.5055 26.071C36.5264 26.0629 36.5476 26.0563 36.5692 26.0509C37.2988 25.8621 37.938 25.4191 38.3727 24.8009C38.769 24.2478 38.9433 23.6101 38.9876 22.9464C39.0346 22.2404 39.0065 21.5343 38.7555 20.8537C38.525 20.2323 38.1454 19.7242 37.5949 19.3647C36.9184 18.9238 36.1508 18.7215 35.3573 18.7036C34.3971 18.6817 33.4356 18.6867 32.4741 18.6917C32.0594 18.6939 31.6445 18.6961 31.2298 18.6961C31.0377 18.6966 30.8601 18.7687 30.7791 18.9455C30.6984 19.1101 30.6527 19.2898 30.6447 19.4731C30.6407 23.4288 30.6387 27.3844 30.6387 31.3402C30.637 31.3691 30.637 31.398 30.6387 31.4269C30.6766 31.7343 30.7294 31.9203 31.1132 32.0668C31.3882 32.1767 31.6911 32.1946 31.9769 32.1177C32.2949 32.0294 32.5864 31.8591 32.5789 31.3981C32.5625 30.3888 32.5655 29.3793 32.5684 28.3698V28.3686C32.5696 27.9735 32.5707 27.5779 32.5707 27.1826ZM32.5821 24.8026V20.4302C32.7985 20.4302 33.0143 20.43 33.2295 20.4304C33.7657 20.4313 34.2988 20.4322 34.8316 20.4275C35.2214 20.4174 35.6093 20.4852 35.9727 20.6271C36.4957 20.8375 36.8111 21.2279 36.952 21.7545C37.1187 22.3807 37.1187 23.0103 36.8899 23.628C36.6912 24.1653 36.3079 24.4973 35.7681 24.6654C35.3886 24.7835 35.0022 24.8026 34.6097 24.8026H32.5821ZM17.9595 26.9532V27.1582C17.9595 27.5482 17.9587 27.9383 17.958 28.3283C17.9562 29.3378 17.9543 30.3474 17.9648 31.357C17.9692 31.8005 17.7765 31.9909 17.4148 32.0988C17.067 32.2127 16.6885 32.1828 16.3626 32.0158C16.1467 31.9074 16.0221 31.7376 16.0226 31.4735C16.0268 27.4311 16.0278 23.3886 16.0253 19.3462C16.0253 18.9666 16.2914 18.6955 16.6731 18.6955C17.0672 18.6955 17.4614 18.6944 17.8555 18.6933C18.8489 18.6906 19.8422 18.6878 20.8351 18.7026C21.3404 18.7102 21.8315 18.8414 22.3061 19.0366C22.6714 19.1867 23.0061 19.4031 23.2934 19.6749C23.6025 19.9678 23.8448 20.3244 24.0038 20.7203C24.2402 21.299 24.3326 21.9009 24.3568 22.5256C24.385 23.236 24.3358 23.9316 24.1053 24.6035C23.7204 25.7261 22.9361 26.4244 21.8046 26.7504C21.2463 26.9025 20.6689 26.9715 20.0907 26.9553C19.5991 26.9496 19.1075 26.9509 18.6071 26.9521C18.3931 26.9526 18.1774 26.9532 17.9595 26.9532ZM17.9654 25.3914H18.115H20.5322C20.6511 25.3896 20.7693 25.3743 20.8848 25.3459C21.6119 25.1734 22.0863 24.7174 22.2883 24.0044C22.4717 23.3464 22.488 22.6529 22.3357 21.9871C22.114 20.973 21.3813 20.4237 20.346 20.4302C19.8587 20.4334 19.3714 20.4324 18.8842 20.4313C18.6406 20.4307 18.3968 20.4302 18.1532 20.4302H17.9638L17.9654 25.3914ZM47.7354 20.4644H47.275C47.0552 20.4644 46.8354 20.4626 46.6157 20.4609C46.0928 20.4567 45.5699 20.4525 45.0481 20.472C44.5823 20.4893 44.3864 20.2345 44.2924 19.8945C44.1922 19.5642 44.2478 19.206 44.4436 18.9222C44.5321 18.7729 44.6956 18.685 44.8684 18.6939H52.4798C52.8178 18.6939 53.0607 18.9065 53.1276 19.2427C53.1845 19.5098 53.1619 19.7878 53.0624 20.042C52.9587 20.3044 52.7616 20.4633 52.4906 20.4633H49.7041V20.6704C49.7041 21.5921 49.7037 22.5139 49.7033 23.4358V23.437V23.4382V23.4394C49.7022 26.0421 49.701 28.6467 49.709 31.2496C49.709 31.9155 49.3543 32.0857 48.8604 32.1508C48.5604 32.2 48.2529 32.1337 47.9994 31.9653C47.823 31.8566 47.7196 31.6601 47.7294 31.4524V20.6997L47.7354 20.4644ZM28.08 31.3407V27.4743C28.08 26.1392 28.0805 24.804 28.0816 23.4686C28.0822 23.2875 27.9985 23.1676 27.8581 23.0592C27.5461 22.8183 27.1801 22.8141 26.8324 22.8726C26.3532 22.954 26.1491 23.1752 26.1491 23.5716C26.1444 26.1842 26.1444 28.7967 26.1491 31.409C26.1491 31.6291 26.2274 31.8233 26.4325 31.9546C26.7567 32.1701 27.163 32.22 27.5294 32.0896C27.9289 31.9611 28.08 31.7534 28.08 31.3407ZM43 28.5838C42.9964 29.4592 42.993 30.3348 43.0098 31.21C43.0222 31.8445 42.707 32.057 42.1909 32.1481C41.7947 32.2181 41.4157 32.107 41.1485 31.7686C41.1008 31.7061 41.0738 31.6303 41.0713 31.5516C41.0673 28.8465 41.069 26.1411 41.0761 23.4355C41.0852 23.2953 41.1538 23.1659 41.2646 23.0803C41.4387 22.9708 41.6335 22.8988 41.8368 22.8688C42.0903 22.8289 42.3501 22.8608 42.5866 22.961C42.8818 23.0868 43.0017 23.3119 43.0022 23.616C43.004 24.9095 43.0042 26.2038 43.0027 27.4987C43.0027 27.8602 43.0013 28.2222 43 28.5838ZM19.7209 36.4782V34.5011C19.7209 34.2841 19.7954 34.2072 20.0189 34.206C20.136 34.206 20.2532 34.2042 20.3704 34.2022C20.6276 34.1981 20.8848 34.1938 21.1406 34.2098C21.7301 34.2473 22.1581 34.436 22.3574 35.0688C22.3923 35.1821 22.4105 35.2999 22.4114 35.4185C22.4162 36.1408 22.4211 36.8637 22.4114 37.5876C22.4065 37.9038 22.3147 38.202 22.0875 38.4374C21.87 38.6564 21.5754 38.7805 21.2674 38.7828C20.9693 38.7946 20.6708 38.792 20.3724 38.7894C20.2452 38.7883 20.1175 38.7871 19.9903 38.7871C19.7851 38.7871 19.7204 38.7221 19.7204 38.5084C19.7204 37.8313 19.7206 37.1545 19.7209 36.4782ZM20.278 38.3349C20.3335 38.3349 20.3867 38.3354 20.4382 38.3359C20.5368 38.3368 20.6297 38.3377 20.7233 38.3349C20.7895 38.3329 20.8575 38.3263 20.9261 38.3196C21.0053 38.312 21.0852 38.3043 21.1638 38.3034C21.6529 38.2964 21.8855 37.9282 21.8931 37.5161C21.9052 36.854 21.8994 36.192 21.8936 35.5295L21.8931 35.4722C21.8931 35.1257 21.6772 34.7846 21.3803 34.7391C21.1275 34.7012 20.8697 34.6945 20.6106 34.6879C20.499 34.685 20.3871 34.6821 20.2753 34.6767L20.278 38.3349ZM32.5707 36.0622V37.5882C32.5707 38.3235 32.0795 38.8234 31.3378 38.8207C31.083 38.8207 30.8341 38.8207 30.582 38.7286C30.2123 38.5957 29.8857 38.1776 29.8803 37.7742C29.8637 36.9267 29.8566 36.0794 29.8496 35.2317C29.8475 34.9776 29.8454 34.7237 29.8431 34.4696C29.8431 34.3015 29.9322 34.2137 30.1027 34.2055C30.1772 34.1967 30.2518 34.2207 30.3076 34.2711C30.3632 34.3216 30.3947 34.3937 30.3936 34.469C30.3969 34.6614 30.3958 34.8538 30.3948 35.0463V35.0481C30.3942 35.1442 30.3936 35.2404 30.3936 35.3367V37.6082C30.3852 37.9854 30.6677 38.3054 31.0414 38.3419C31.361 38.3788 31.6293 38.3246 31.8582 38.0941C32.0088 37.9423 32.0455 37.7471 32.0466 37.5485L32.0476 37.3423C32.0522 36.3997 32.0569 35.4564 32.0423 34.5119C32.0385 34.257 32.2236 34.1545 32.4434 34.2358C32.5546 34.2771 32.5686 34.3487 32.568 34.4479C32.5697 34.987 32.5707 35.5243 32.5707 36.0622ZM18.3886 37.7449L18.0668 37.7447C17.6606 37.7442 17.2559 37.7437 16.8507 37.7497C16.7918 37.764 16.7434 37.8058 16.7206 37.862C16.6703 38.0111 16.6255 38.1618 16.5806 38.3125C16.5455 38.4305 16.5105 38.5485 16.4728 38.6657C16.4361 38.7817 16.2876 38.8283 16.1408 38.7779C16.0075 38.7329 15.9282 38.6033 15.9643 38.4889C16.0245 38.2984 16.085 38.1082 16.1454 37.9178L16.1459 37.9162L16.1465 37.9144C16.2792 37.497 16.4121 37.0788 16.5419 36.6603C16.6815 36.2103 16.8194 35.7598 16.9572 35.3093C17.0491 35.0089 17.141 34.7085 17.2334 34.4083C17.2825 34.2483 17.4132 34.1637 17.5913 34.1707C17.7533 34.1773 17.8736 34.2559 17.9222 34.4137C18.0285 34.7604 18.1324 35.108 18.2364 35.4556C18.3073 35.6925 18.378 35.9293 18.4496 36.1658L18.5736 36.5767C18.764 37.2075 18.9545 37.8387 19.1514 38.4672C19.1972 38.6125 19.1373 38.7155 18.9716 38.7774C18.8059 38.8392 18.6974 38.7839 18.6509 38.6326C18.5905 38.4341 18.5321 38.2344 18.4721 38.0293C18.4447 37.9357 18.417 37.8411 18.3886 37.7449ZM17.587 35.0102L17.5557 35.0129L16.8776 37.2872H18.2552L17.587 35.0102ZM26.842 38.017C26.8679 37.9272 26.8944 37.8361 26.921 37.7449C27.0575 37.7449 27.1941 37.7458 27.3305 37.7466C27.6714 37.7489 28.0117 37.7511 28.351 37.7395C28.5346 37.733 28.5966 37.8067 28.6333 37.965C28.6851 38.189 28.7488 38.4103 28.8142 38.6309C28.8573 38.7768 28.9945 38.8311 29.164 38.7801C29.2297 38.7645 29.2855 38.7207 29.3166 38.6604C29.3478 38.6001 29.3512 38.5291 29.326 38.4661C29.2685 38.2782 29.2114 38.0902 29.1543 37.9022L29.154 37.9011L29.1536 37.9L29.1533 37.8988L29.153 37.8977L29.1525 37.896C29.0602 37.5924 28.9679 37.2887 28.8746 36.9852C28.7984 36.7369 28.7216 36.4887 28.6448 36.2406L28.6435 36.2361C28.4555 35.6284 28.2676 35.021 28.0871 34.4111C28.0304 34.2201 27.8959 34.1833 27.7447 34.1757C27.5936 34.1681 27.4684 34.2201 27.4144 34.3997C27.3269 34.7026 27.2325 35.0037 27.1381 35.305C27.0899 35.4588 27.0417 35.6126 26.9944 35.7666L26.1663 38.4698C26.1123 38.6423 26.1517 38.7161 26.3283 38.7763C26.4902 38.8311 26.6171 38.7768 26.6635 38.6239C26.7242 38.4232 26.7827 38.2217 26.842 38.017ZM27.7593 35.0141L28.4293 37.2861L27.0511 37.2867L27.728 35.0141H27.7593ZM23.8046 36.2878V34.6914V34.6903H25.6551C25.8225 34.6903 25.8981 34.6274 25.904 34.4604C25.9099 34.2933 25.83 34.2055 25.6578 34.2055C24.9438 34.2029 24.23 34.2029 23.5164 34.2055C23.3507 34.206 23.2789 34.2836 23.2789 34.4462C23.2773 35.0718 23.2775 35.6973 23.2777 36.3229C23.2781 37.0736 23.2783 37.8243 23.2756 38.5751C23.2751 38.7296 23.3442 38.7839 23.477 38.7839H25.7047C25.8597 38.7839 25.9105 38.6879 25.9045 38.5518C25.8986 38.4156 25.8538 38.3311 25.6956 38.3311H23.9861H23.81V36.7346C23.9074 36.7346 24.0034 36.7354 24.0984 36.7363C24.2854 36.7378 24.4687 36.7393 24.6516 36.7346C24.7736 36.7319 24.9123 36.7265 24.9355 36.559C24.962 36.3664 24.8902 36.2878 24.6921 36.2878H23.8046ZM12.9505 36.527V35.469C12.9505 34.8129 13.3672 34.3042 14.0257 34.2331C14.4971 34.1827 14.9165 34.2515 15.2943 34.5493C15.5033 34.712 15.6965 35.2001 15.6145 35.4381C15.5574 35.6038 15.4416 35.598 15.3203 35.5919L15.3019 35.591C15.247 35.5936 15.1934 35.5731 15.1541 35.5344C15.1147 35.4957 15.0932 35.4423 15.0947 35.3871C15.086 35.0921 14.9672 34.8671 14.6886 34.763C14.3503 34.6366 14.0118 34.6409 13.7171 34.8801C13.5334 35.0286 13.4752 35.2499 13.473 35.4739L13.4722 35.5494C13.4643 36.2292 13.4565 36.9089 13.4757 37.5887C13.4865 37.9683 13.6587 38.3072 14.1391 38.3327C14.2885 38.3477 14.4391 38.3446 14.5878 38.3235C14.8716 38.2693 15.0784 37.9981 15.0935 37.7053C15.1049 37.4797 15.2042 37.4016 15.4423 37.4341C15.5713 37.4505 15.6657 37.6153 15.6452 37.7736C15.5486 38.5198 14.9835 38.8007 14.4036 38.8213C14.1203 38.8311 13.8427 38.8267 13.5762 38.6879C13.1599 38.471 12.978 38.1157 12.9547 37.6728C12.9409 37.4075 12.9442 37.142 12.9475 36.8766C12.9491 36.7601 12.9505 36.6435 12.9505 36.527ZM9.67592 36.2878V34.6914L11.4595 34.6881C11.6776 34.6876 11.7386 34.6322 11.7386 34.4403C11.7386 34.2597 11.6737 34.2022 11.4687 34.2022H9.48374C9.19224 34.2022 9.11451 34.2836 9.11451 34.5818V38.4482C9.11167 38.4942 9.11366 38.5404 9.12044 38.5859C9.15661 38.7525 9.24623 38.805 9.45298 38.7844C9.60574 38.7692 9.66891 38.6797 9.66891 38.5317V37.4222V36.746C9.68277 36.7446 9.69453 36.7432 9.70494 36.7419C9.72279 36.7396 9.73679 36.7379 9.75041 36.7379C9.83881 36.7379 9.92713 36.7385 10.0154 36.7393C10.1919 36.7405 10.3682 36.7418 10.5445 36.7379C10.7377 36.7341 10.8139 36.6533 10.8095 36.4847C10.8042 36.3002 10.6821 36.2878 10.5396 36.2878H9.67592ZM26.1194 20.0989C26.3206 20.4529 26.7031 20.6627 27.1083 20.6412C27.1083 20.6412 27.5153 20.588 27.6897 20.498C28.1052 20.2976 28.3181 19.8271 28.195 19.3809C28.026 18.7644 27.2142 18.4461 26.5874 18.7465C26.0142 19.0209 25.8651 19.6824 26.1194 20.0989Z" fill="#514D57"/>
<path fill-rule="evenodd" clip-rule="evenodd" d="M43.535 41.0774C43.3237 40.4902 42.8369 39.0638 42.8369 39.0638L56.2829 33.1036C56.0556 33.1404 42.5082 35.8031 41.813 35.9436C41.711 35.6277 41.6099 35.314 41.5092 35.0018C41.3847 34.6154 41.2608 34.2309 41.1366 33.8467C40.9894 33.3919 40.2232 31.2389 40.1805 31.1929C40.1552 31.2237 39.6422 32.6851 39.4151 33.3858C39.157 34.1835 38.4148 35.942 38.4148 35.942L33.6584 35.9985C34.3979 36.6013 35.1606 37.1745 35.9234 37.7478C36.4815 38.1671 37.0397 38.5866 37.5889 39.0178L35.5916 42.9644C35.791 42.8767 35.9874 42.7906 36.1815 42.7054C36.6914 42.4817 37.1857 42.2647 37.6796 42.0464C38.4909 41.6879 40.1881 40.9626 40.1881 40.9626C40.1881 40.9626 40.7414 41.4086 40.973 41.6207C41.3735 41.9873 41.7738 42.3542 42.1736 42.7215C42.5788 43.0927 42.9828 43.4649 43.3855 43.838C43.8642 44.2816 44.9332 45.204 45.0211 45.2284C44.9763 45.0911 43.9985 42.3614 43.535 41.0774ZM42.2135 38.1474L40.7657 38.276L41.6493 39.5027L40.4916 38.6374L40.2955 40.0736C40.2955 40.0736 40.1401 38.6406 40.118 38.5595L38.9573 39.5557C38.9573 39.5557 39.779 38.4592 39.902 38.3123L38.3673 38.1566C38.3673 38.1566 39.7659 37.9967 39.8961 37.9809L38.9088 36.8107L40.1109 37.7239C40.1314 37.5981 40.3252 36.2203 40.3252 36.2203L40.6001 37.6553L41.6575 36.7918L40.8019 37.9289L42.2135 38.1474Z" fill="#1D5FA9"/>
</g>
<defs>
<clipPath id="clip0_19_16798">
<rect width="60" height="60" fill="white" transform="translate(0.420898)"/>
</clipPath>
</defs>
</svg>
