<svg width="61" height="60" viewBox="0 0 61 60" fill="none" xmlns="http://www.w3.org/2000/svg">
<g clip-path="url(#clip0_19_15942)">
<path d="M30.4209 58.7369C46.2918 58.7369 59.1578 45.8709 59.1578 30C59.1578 14.1291 46.2918 1.26318 30.4209 1.26318C14.55 1.26318 1.68408 14.1291 1.68408 30C1.68408 45.8709 14.55 58.7369 30.4209 58.7369Z" fill="#EFEFEF"/>
<path d="M18.3166 47.2414C17.5084 47.2414 16.7002 46.9332 16.0836 46.3166C14.8504 45.0834 14.8504 43.0839 16.0836 41.8507L20.0302 37.9041C21.2634 36.6707 23.2628 36.6707 24.4961 37.9041C25.7293 39.1372 25.7293 41.1367 24.4961 42.37L20.5495 46.3166C19.9328 46.9332 19.1247 47.2414 18.3166 47.2414Z" fill="#FBA026"/>
<path d="M42.5254 47.2417C41.7172 47.2417 40.9091 46.9335 40.2924 46.3169L36.3458 42.3702C35.1126 41.1368 35.1126 39.1374 36.3458 37.9043C37.5792 36.6712 39.5786 36.6713 40.8117 37.9043L44.7583 41.851C45.9915 43.0844 45.9915 45.0838 44.7583 46.3169C44.1418 46.9334 43.3335 47.2417 42.5254 47.2417Z" fill="#FBA026"/>
<path d="M20.7756 21.1634C22.745 21.1634 24.3415 19.3066 24.3415 17.016C24.3415 14.7255 22.745 12.8687 20.7756 12.8687C18.8062 12.8687 17.2097 14.7255 17.2097 17.016C17.2097 19.3066 18.8062 21.1634 20.7756 21.1634Z" fill="#FBA026"/>
<path d="M40.0664 21.1634C42.0358 21.1634 43.6323 19.3066 43.6323 17.016C43.6323 14.7255 42.0358 12.8687 40.0664 12.8687C38.097 12.8687 36.5005 14.7255 36.5005 17.016C36.5005 19.3066 38.097 21.1634 40.0664 21.1634Z" fill="#FBA026"/>
<path d="M45.2469 31.6283C45.2469 39.8514 38.5509 46.5108 30.3151 46.454C22.1854 46.3972 15.5715 39.7138 15.5955 31.5841C15.5981 30.5192 15.7142 29.4796 15.9315 28.478H44.9109C45.1319 29.4923 45.2469 30.547 45.2469 31.6283Z" fill="#EFEFEF"/>
<path d="M44.9111 28.478H15.9316C16.3308 26.6299 17.0761 24.9095 18.0942 23.3887C18.8975 22.1887 19.6201 20.9332 20.1582 19.5942C21.5098 16.238 25.5923 13.7988 30.4214 13.7988C35.2177 13.7988 39.28 16.2064 40.6568 19.5298C41.1974 20.8321 41.8542 22.0864 42.6526 23.2485C43.7198 24.8034 44.4993 26.5719 44.9111 28.478Z" fill="#FBA026"/>
<path d="M51.6341 8.78695C45.9678 3.12047 38.4341 0 30.4209 0C22.4077 0 14.874 3.12047 9.20773 8.78695C3.54137 14.4531 0.420898 21.9867 0.420898 30C0.420898 38.0133 3.54137 45.5469 9.20773 51.2132C14.874 56.8795 22.4076 60 30.4209 60C38.4342 60 45.9678 56.8795 51.6341 51.213C57.3004 45.5469 60.4209 38.0132 60.4209 30C60.4209 21.9868 57.3004 14.4531 51.6341 8.78695ZM45.2333 53.1294L43.8307 50.7C43.4819 50.0958 42.7092 49.8888 42.1052 50.2377C41.501 50.5866 41.294 51.3589 41.6429 51.9632L43.047 54.3953C39.6164 56.178 35.765 57.2579 31.6842 57.4436V54.6316C31.6842 53.9341 31.1186 53.3685 30.421 53.3685C29.7234 53.3685 29.1579 53.9341 29.1579 54.6316V57.4436C25.0769 57.2578 21.2254 56.178 17.795 54.3953L19.1991 51.9632C19.548 51.3589 19.3409 50.5866 18.7368 50.2377C18.1326 49.8887 17.3601 50.0957 17.0114 50.7L15.6087 53.1294C12.2758 50.9875 9.43355 48.1452 7.2916 44.8123L9.72102 43.4096C10.3252 43.0608 10.5322 42.2884 10.1833 41.6842C9.83457 41.08 9.06184 40.873 8.45785 41.2219L6.02574 42.626C4.24297 39.1954 3.16309 35.3442 2.97746 31.2632H5.78926C6.48688 31.2632 7.05242 30.6975 7.05242 30C7.05242 29.3025 6.48688 28.7368 5.78926 28.7368H2.97746C3.1632 24.6558 4.24297 20.8045 6.02574 17.374L8.45785 18.7781C8.65684 18.893 8.87398 18.9477 9.08832 18.9477C9.52484 18.9477 9.94941 18.7211 10.1833 18.3158C10.5322 17.7116 10.3251 16.9392 9.72102 16.5904L7.2916 15.1877C9.43355 11.8548 12.2756 9.01254 15.6087 6.87059L17.0114 9.3C17.2453 9.70523 17.6698 9.93187 18.1064 9.93187C18.3206 9.93187 18.5379 9.87715 18.7368 9.7623C19.3411 9.41344 19.548 8.64105 19.1991 8.03684L17.795 5.60473C21.2257 3.82195 25.077 2.74207 29.1579 2.55645V5.36836C29.1579 6.06586 29.7234 6.63152 30.421 6.63152C31.1186 6.63152 31.6842 6.06586 31.6842 5.36836V2.55656C35.7651 2.7423 39.6166 3.82207 43.047 5.60484L41.6428 8.03684C41.2939 8.64105 41.501 9.41344 42.1051 9.7623C42.3041 9.87715 42.5212 9.93187 42.7355 9.93187C43.1721 9.93187 43.5966 9.70523 43.8305 9.3L45.2332 6.87059C48.5661 9.01254 51.4084 11.8548 53.5503 15.1877L51.1209 16.5904C50.5167 16.9392 50.3097 17.7116 50.6586 18.3158C50.8925 18.7211 51.3171 18.9477 51.7536 18.9477C51.9678 18.9477 52.1851 18.893 52.3841 18.7781L54.8162 17.374C56.5989 20.8046 57.6787 24.6558 57.8645 28.7368H55.0525C54.3549 28.7368 53.7894 29.3025 53.7894 30C53.7894 30.6975 54.3549 31.2632 55.0525 31.2632H57.8645C57.6787 35.3442 56.5989 39.1955 54.8162 42.626L52.3841 41.2219C51.7801 40.8731 51.0075 41.0802 50.6586 41.6842C50.3097 42.2884 50.5168 43.0608 51.1209 43.4096L53.5503 44.8123C51.4084 48.1454 48.5663 50.9875 45.2333 53.1294Z" fill="#231F20"/>
<path d="M44.3637 39.6693C45.7636 37.2516 46.5102 34.4984 46.5102 31.6281C46.5102 30.4717 46.3875 29.3223 46.1457 28.212C46.1457 28.2117 46.1456 28.2114 46.1456 28.211C46.1455 28.2106 46.1454 28.2099 46.1453 28.2094L46.1452 28.2089C45.7045 26.1706 44.8799 24.261 43.6936 22.5331C43.4354 22.1571 43.188 21.7621 42.9518 21.3499C44.1307 20.3628 44.8956 18.7878 44.8956 17.0156C44.8956 14.0323 42.7293 11.6052 40.0665 11.6052C38.5114 11.6052 37.1269 12.4338 36.2433 13.7168C34.5048 12.9586 32.5138 12.5353 30.4214 12.5353C28.3253 12.5353 26.3347 12.9579 24.5974 13.7147C23.7138 12.4327 22.3298 11.605 20.7756 11.605C18.1129 11.605 15.9465 14.0322 15.9465 17.0154C15.9465 18.7847 16.7088 20.3575 17.8846 21.345C17.6319 21.7791 17.3532 22.2244 17.0447 22.6855C15.9142 24.3741 15.1245 26.2329 14.6973 28.2099C14.4579 29.3131 14.3353 30.4473 14.3326 31.5801C14.3239 34.5178 15.111 37.2785 16.4893 39.6583L15.1903 40.9573C14.3554 41.7924 13.8955 42.9026 13.8955 44.0835C13.8955 45.2645 14.3555 46.3747 15.1903 47.2097C16.0254 48.0447 17.1356 48.5045 18.3165 48.5045C19.4975 48.5045 20.6078 48.0446 21.4427 47.2097L22.8407 45.8119C25.0693 47.0095 27.61 47.6981 30.3067 47.717C30.345 47.7172 30.383 47.7174 30.4212 47.7174C33.1132 47.7174 35.7039 47.0605 38.0119 45.8221L39.3996 47.2098C40.2347 48.0448 41.3449 48.5046 42.5258 48.5046C43.7066 48.5046 44.8168 48.0447 45.652 47.2098C46.4871 46.3749 46.947 45.2647 46.947 44.0836C46.947 42.9027 46.487 41.7925 45.652 40.9574L44.3637 39.6693ZM40.0664 14.1317C41.3361 14.1317 42.3691 15.4255 42.3691 17.0159C42.3691 17.7559 42.1447 18.4308 41.7775 18.9419C41.1019 17.3728 39.9428 16.016 38.4546 14.9601C38.8702 14.4483 39.439 14.1317 40.0664 14.1317ZM20.7755 14.1317C21.402 14.1317 21.9701 14.4475 22.3855 14.9577C20.8985 16.0136 19.7407 17.3708 19.0643 18.9416C18.6973 18.4307 18.4727 17.7558 18.4727 17.0158C18.4727 15.4254 19.5057 14.1317 20.7755 14.1317ZM19.1439 24.0913C20.1006 22.6623 20.8157 21.3454 21.3299 20.0659C22.5164 17.1196 26.2549 15.0619 30.4213 15.0619C34.5529 15.0619 38.2819 17.0979 39.49 20.0139C40.09 21.459 40.8036 22.7881 41.6111 23.9632C42.3077 24.9781 42.8563 26.0669 43.2504 27.2147H17.5922C17.9696 26.1155 18.4888 25.0698 19.1439 24.0913ZM19.6562 45.4234C19.2983 45.7812 18.8225 45.9783 18.3165 45.9783C17.8105 45.9783 17.3347 45.7811 16.9767 45.4233C16.6188 45.0654 16.4218 44.5896 16.4218 44.0836C16.4218 43.5776 16.6189 43.1018 16.9768 42.7439L17.9486 41.7722C18.7487 42.754 19.6627 43.6401 20.6693 44.4106L19.6562 45.4234ZM30.324 45.1907C22.8772 45.1388 16.8368 39.0365 16.8587 31.587C16.8602 30.9693 16.9038 30.3517 16.989 29.7412H43.8538C43.9402 30.3621 43.9837 30.9935 43.9837 31.6283C43.9837 35.2683 42.5611 38.6858 39.9779 41.2513C37.3945 43.8168 33.969 45.2215 30.324 45.1907ZM43.8654 45.4233C43.5075 45.7812 43.0316 45.9783 42.5256 45.9783C42.0195 45.9783 41.5438 45.7811 41.1859 45.4233L40.1823 44.4197C40.7319 43.9984 41.2587 43.5399 41.7582 43.0437C42.1645 42.6402 42.5459 42.2185 42.9029 41.7813L43.8653 42.7437C44.2232 43.1016 44.4203 43.5774 44.4203 44.0834C44.4203 44.5894 44.2232 45.0654 43.8654 45.4233Z" fill="#231F20"/>
<path d="M27.6572 35.4882C28.3548 35.4882 28.9204 34.9227 28.9204 34.2251C28.9204 33.5275 28.3548 32.9619 27.6572 32.9619C26.9596 32.9619 26.394 33.5275 26.394 34.2251C26.394 34.9227 26.9596 35.4882 27.6572 35.4882Z" fill="#231F20"/>
<path d="M33.2781 35.4882C33.9757 35.4882 34.5412 34.9227 34.5412 34.2251C34.5412 33.5275 33.9757 32.9619 33.2781 32.9619C32.5804 32.9619 32.0149 33.5275 32.0149 34.2251C32.0149 34.9227 32.5804 35.4882 33.2781 35.4882Z" fill="#231F20"/>
<path d="M28.4849 21.9268C27.1399 21.1585 25.2611 21.1585 23.9159 21.9268C23.31 22.2726 23.0993 23.0442 23.4453 23.6502C23.7912 24.256 24.5628 24.4668 25.1686 24.1207C25.7472 23.7903 26.6537 23.7903 27.2323 24.1207C27.4299 24.2336 27.6451 24.2872 27.8575 24.2872C28.2962 24.2872 28.7224 24.0583 28.9555 23.6502C29.3015 23.0442 29.0908 22.2726 28.4849 21.9268Z" fill="#231F20"/>
<path d="M36.926 21.9268C35.5811 21.1585 33.7022 21.1585 32.357 21.9268C31.7511 22.2726 31.5405 23.0442 31.8864 23.6502C32.2323 24.256 33.0039 24.4668 33.6097 24.1207C34.1883 23.7903 35.0948 23.7903 35.6734 24.1207C35.871 24.2336 36.0863 24.2872 36.2986 24.2872C36.7372 24.2872 37.1636 24.0583 37.3966 23.6502C37.7425 23.0442 37.5318 22.2726 36.926 21.9268Z" fill="#231F20"/>
</g>
<defs>
<clipPath id="clip0_19_15942">
<rect width="60" height="60" fill="white" transform="translate(0.420898)"/>
</clipPath>
</defs>
</svg>
