<svg width="60" height="60" viewBox="0 0 60 60" fill="none" xmlns="http://www.w3.org/2000/svg">
<g clip-path="url(#clip0_14_5321)">
<path d="M29.4536 19.2692C29.4536 22.299 31.9184 24.7638 34.9482 24.7638H53.5541C56.5838 24.7638 59.0488 22.299 59.0488 19.2692C59.0488 16.8876 57.4858 14.7579 55.2282 14.0359C55.3801 13.4445 55.457 12.8448 55.457 12.2499C55.457 8.34059 52.2766 5.16019 48.3674 5.16019C48.1779 5.16019 47.9899 5.16794 47.8037 5.18237C46.3004 2.1165 43.1477 0 39.5089 0C34.418 0 30.2763 4.1417 30.2763 9.23262C30.2763 11.2436 30.9246 13.1051 32.0203 14.6231C30.4795 15.5975 29.4536 17.3153 29.4536 19.2692ZM39.5089 3.93597C41.4652 3.93597 43.1759 5.00289 44.0931 6.58449C42.9398 7.45461 42.0529 8.67974 41.598 10.1412C41.5968 10.1452 41.5955 10.1493 41.5945 10.1532C41.5632 10.1515 41.5317 10.1493 41.5003 10.1472C41.4184 10.1416 41.3256 10.1353 41.2263 10.1353C39.0752 10.1353 37.1391 11.4168 36.2245 13.3835C34.9999 12.4125 34.2121 10.9133 34.2121 9.23262C34.2123 6.31199 36.5883 3.93597 39.5089 3.93597Z" fill="black"/>
<path d="M57.8842 41.5249H2.81173C1.75991 41.5249 0.904224 42.3804 0.904224 43.432C0.904224 44.4836 1.75991 45.3391 2.81173 45.3391H19.4904C20.4698 45.3391 21.2666 46.1358 21.2666 47.115C21.2666 48.0947 20.4698 48.8917 19.4904 48.8917H12.4823C11.4302 48.8917 10.5744 49.7473 10.5744 50.7988C10.5744 51.8507 11.4302 52.7064 12.4823 52.7064H24.5052C25.2408 52.9236 25.7793 53.604 25.7793 54.4089C25.7793 55.3886 24.9826 56.1856 24.003 56.1856H7.96458C6.91249 56.1856 6.05668 57.0412 6.05668 58.0927C6.05668 59.1446 6.91249 60.0002 7.96458 60.0002H43.5932C44.6448 60.0002 45.5003 59.1446 45.5003 58.0927C45.5003 57.041 44.6447 56.1856 43.5932 56.1856H41.0857C40.1064 56.1856 39.3098 55.3886 39.3098 54.4089C39.3098 53.6041 39.8483 52.9236 40.5836 52.7064H51.1359C52.1876 52.7064 53.043 51.8507 53.043 50.7988C53.043 49.7472 52.1875 48.8917 51.1359 48.8917H39.5178C38.5386 48.8917 37.7419 48.0947 37.7419 47.115C37.7419 46.1358 38.5386 45.3391 39.5178 45.3391H57.8842C58.9362 45.3391 59.7921 44.4836 59.7921 43.432C59.7921 42.3804 58.9361 41.5249 57.8842 41.5249Z" fill="black"/>
<path d="M4.14445 11.2865C4.32393 11.3374 4.50472 11.3617 4.68263 11.3617C5.54041 11.3615 6.32918 10.7963 6.57491 9.93029C6.8503 8.95968 7.35384 8.87217 7.70926 8.8904C8.27381 8.91966 8.85332 9.32048 8.92508 9.73139C9.0984 10.7248 9.98832 11.4123 10.9714 11.3571C11.016 11.3601 11.0605 11.3617 11.1048 11.3617C11.9626 11.3615 12.7514 10.7963 12.9971 9.93029C13.2725 8.95981 13.7755 8.87138 14.1313 8.8904C14.696 8.91966 15.2755 9.32048 15.3473 9.73152C15.534 10.802 16.5529 11.5192 17.6242 11.3318C18.6948 11.1449 19.4114 10.1255 19.2245 9.0548C18.8326 6.80867 16.7763 5.08628 14.3352 4.95968C13.0491 4.89368 11.8754 5.3004 10.9533 6.07382C10.1111 5.42688 9.05432 5.01885 7.91341 4.95968C5.50577 4.83543 3.49528 6.3643 2.78824 8.85616C2.49173 9.90182 3.09892 10.9899 4.14445 11.2865Z" fill="black"/>
<path d="M12.6252 16.3262C9.92325 16.185 7.75151 17.8438 6.95448 20.653C6.65783 21.6987 7.26502 22.7867 8.31068 23.0834C8.49016 23.1343 8.67095 23.1585 8.84886 23.1585C9.70664 23.1584 10.4954 22.5932 10.7411 21.7272C11.034 20.6944 11.5869 20.2127 12.4212 20.2568C13.256 20.3001 14.0565 20.8825 14.1692 21.5283C14.3445 22.5329 15.2522 23.2257 16.2482 23.153C16.296 23.1566 16.3435 23.1585 16.3908 23.1585C17.2486 23.1585 18.0374 22.5932 18.2831 21.7272C18.5761 20.6944 19.1269 20.2127 19.963 20.2568C20.7978 20.3001 21.5985 20.8825 21.7112 21.5283C21.8981 22.5988 22.917 23.316 23.9881 23.1286C25.0588 22.9418 25.7754 21.9224 25.5884 20.8518C25.1553 18.3699 22.8752 16.4666 20.1668 16.3261C18.6227 16.2471 17.2516 16.7556 16.2111 17.73C15.2455 16.9158 13.9899 16.3971 12.6252 16.3262Z" fill="black"/>
<path d="M2.17751 35.2765C3.03529 35.2764 3.82406 34.7112 4.0698 33.8451C4.44096 32.5367 5.18119 31.9006 6.27735 31.9586C7.37261 32.0156 8.38769 32.7726 8.54015 33.6463C8.71648 34.6569 9.63448 35.3509 10.6375 35.2687C10.6926 35.2733 10.7476 35.2764 10.8022 35.2764C11.6599 35.2763 12.4487 34.7111 12.6944 33.845C13.0657 32.5366 13.8053 31.9005 14.902 31.9585C15.9972 32.0154 17.0123 32.7725 17.1648 33.6461C17.3516 34.7168 18.3702 35.4333 19.4416 35.2465C20.5123 35.0597 21.2288 34.0404 21.042 32.9697C20.5769 30.304 18.0251 28.1793 15.106 28.0278C13.612 27.9498 11.8985 28.4174 10.5903 29.749C9.50171 28.7562 8.04434 28.1089 6.48137 28.0278C4.16872 27.9072 1.32721 29.0909 0.283127 32.7708C-0.0135144 33.8164 0.593675 34.9046 1.63933 35.2011C1.81894 35.2521 1.99974 35.2765 2.17751 35.2765Z" fill="black"/>
</g>
<defs>
<clipPath id="clip0_14_5321">
<rect width="60" height="60" fill="white"/>
</clipPath>
</defs>
</svg>
