<svg width="513" height="513" viewBox="0 0 513 513" fill="none" xmlns="http://www.w3.org/2000/svg">
<g clip-path="url(#clip0_19_15982)">
<path d="M0.420898 403.386H188.307L87.7689 302.848C34.2289 327.342 0.420898 363.303 0.420898 403.386Z" fill="#D76A77"/>
<path d="M256.422 269.736C191.817 269.736 132.814 282.236 87.7688 302.846L188.307 403.385H512.421C512.421 329.576 397.805 269.736 256.422 269.736Z" fill="#CB6072"/>
<path d="M163.397 189.854C163.397 213.616 144.13 232.879 120.368 232.879C96.6008 232.879 77.3398 213.615 77.3398 189.854C77.3398 166.09 96.6008 146.826 120.368 146.826C144.13 146.826 163.397 166.09 163.397 189.854Z" fill="#8492A9"/>
<path d="M438.775 189.854C438.775 213.616 419.508 232.879 395.746 232.879C371.985 232.879 352.718 213.615 352.718 189.854C352.718 166.09 371.985 146.826 395.746 146.826C419.508 146.826 438.775 166.09 438.775 189.854Z" fill="#8492A9"/>
<path d="M151.02 85.2227H75.4619V127.001H151.02V85.2227Z" fill="#AFAFAF"/>
<path d="M95.9089 85.2227H88.7979V127.001H95.9089V85.2227Z" fill="#999A9A"/>
<path d="M111.022 85.2227H103.907V127.001H111.022V85.2227Z" fill="#999A9A"/>
<path d="M81.563 130.88C81.563 138.456 75.424 144.595 67.848 144.595C60.272 144.595 54.127 138.456 54.127 130.88V81.3429C54.127 73.7669 60.272 67.6279 67.848 67.6279C75.424 67.6279 81.563 73.7669 81.563 81.3429V130.88Z" fill="#C3C4C4"/>
<path d="M320.005 52.459L257.495 114.96L194.986 52.459L132.486 114.96L115.984 98.458V322.752C115.984 349.156 137.391 370.559 163.788 370.559H351.203C377.603 370.559 399.004 349.156 399.004 322.752V98.458L382.502 114.96L320.005 52.459Z" fill="#95A8AD"/>
<path d="M320.005 52.459L257.495 114.96L194.986 52.459L132.486 114.96L115.984 98.458V322.752C115.984 349.156 137.391 370.559 163.788 370.559H351.203C377.603 370.559 399.004 349.156 399.004 322.752V98.458L382.502 114.96L320.005 52.459Z" fill="#8FAEB3"/>
<path d="M236.07 292.159C236.07 265.755 214.657 244.355 188.256 244.355H115.983V322.751C115.983 349.155 137.39 370.558 163.787 370.558H236.069V292.159H236.07Z" fill="#C0B495"/>
<path d="M179.241 238.618H169.684C166.515 238.618 163.94 241.188 163.94 244.356C163.94 247.522 166.515 250.091 169.684 250.091H179.241C182.411 250.091 184.974 247.521 184.974 244.356C184.974 241.188 182.411 238.618 179.241 238.618ZM227.08 255.287C224.618 252.702 221.916 250.363 218.987 248.311C216.386 246.487 212.813 247.115 210.995 249.706C209.177 252.301 209.795 255.88 212.396 257.701C214.694 259.314 216.827 261.154 218.759 263.19C220.943 265.484 224.567 265.579 226.865 263.395C229.164 261.215 229.252 257.582 227.08 255.287ZM241.802 303.637V294.076C241.802 290.904 239.226 288.338 236.07 288.338C232.9 288.338 230.325 290.904 230.325 294.076V303.637C230.325 306.806 232.9 309.375 236.07 309.375C239.226 309.376 241.802 306.806 241.802 303.637ZM241.802 351.447V341.883C241.802 338.714 239.226 336.145 236.07 336.145C232.9 336.145 230.325 338.715 230.325 341.883V351.447C230.325 354.616 232.9 357.182 236.07 357.182C239.226 357.182 241.802 354.616 241.802 351.447Z" fill="#B1A48C"/>
<path d="M399.004 98.458L395.898 101.573L382.502 114.959L320.005 52.458L271.737 100.714C268.442 113.191 266.662 126.287 266.662 139.803C266.662 217.164 324.323 280.999 399.004 290.796V98.458Z" fill="#7095B8"/>
<path d="M260.917 139.803C260.917 141.46 260.942 143.114 260.993 144.759C261.094 147.928 263.745 150.419 266.902 150.32C270.071 150.226 272.558 147.577 272.47 144.408C272.42 142.88 272.394 141.346 272.394 139.803C272.394 136.634 269.819 134.068 266.662 134.068C263.48 134.067 260.917 136.633 260.917 139.803Z" fill="#657762"/>
<path d="M309.539 253.819C311.95 256.133 314.438 258.374 317.001 260.532C319.412 262.577 323.036 262.272 325.082 259.854C327.127 257.432 326.824 253.816 324.4 251.77C322.026 249.765 319.729 247.685 317.494 245.542C315.209 243.348 311.573 243.424 309.376 245.71C307.178 247.995 307.254 251.628 309.539 253.819ZM272.571 199.465C273.834 202.57 275.197 205.626 276.662 208.627C278.038 211.48 281.472 212.67 284.326 211.291C287.179 209.909 288.366 206.474 286.99 203.624C285.639 200.84 284.376 198.006 283.203 195.127C282.003 192.194 278.645 190.784 275.716 191.983C272.786 193.18 271.384 196.532 272.571 199.465Z" fill="#657762"/>
<path d="M365.407 288.514C366.973 289.08 368.525 289.613 370.103 290.124C373.121 291.102 376.353 289.455 377.338 286.44C378.322 283.426 376.669 280.191 373.651 279.212C372.186 278.738 370.747 278.24 369.295 277.722C366.316 276.649 363.033 278.193 361.96 281.175C360.888 284.156 362.427 287.445 365.407 288.514Z" fill="#657762"/>
<path d="M351.203 0.841797H163.788C137.391 0.841797 115.984 22.2448 115.984 48.6488V98.4568L132.486 114.959L194.986 52.4578L257.495 114.959L320.005 52.4578L382.502 114.959L399.004 98.4568V48.6488C399.004 22.2448 377.604 0.841797 351.203 0.841797Z" fill="#604C3F"/>
<path d="M257.496 129.604V130.879" stroke="#48B0CA" stroke-miterlimit="10"/>
<path d="M223.142 193.986C223.142 216.166 205.163 234.145 182.98 234.145C160.796 234.145 142.824 216.166 142.824 193.986C142.824 171.809 160.796 153.827 182.98 153.827C205.162 153.827 223.142 171.809 223.142 193.986Z" fill="#595758"/>
<path d="M213.395 193.061C213.395 208.518 200.87 221.049 185.416 221.049C169.949 221.049 157.422 208.518 157.422 193.061C157.422 177.601 169.949 165.07 185.416 165.07C200.87 165.071 213.395 177.601 213.395 193.061Z" fill="white"/>
<path d="M185.416 207.663C194.153 207.663 201.236 200.581 201.236 191.843C201.236 183.106 194.153 176.023 185.416 176.023C176.679 176.023 169.596 183.106 169.596 191.843C169.596 200.581 176.679 207.663 185.416 207.663Z" fill="#D76A77"/>
<path d="M295.865 193.986C295.865 216.166 313.844 234.145 336.027 234.145C358.21 234.145 376.189 216.166 376.189 193.986C376.189 171.809 358.21 153.827 336.027 153.827C313.844 153.827 295.865 171.809 295.865 193.986Z" fill="#595758"/>
<path d="M305.612 193.061C305.612 208.518 318.137 221.049 333.59 221.049C349.044 221.049 361.581 208.518 361.581 193.061C361.581 177.601 349.043 165.07 333.59 165.07C318.137 165.071 305.612 177.601 305.612 193.061Z" fill="white"/>
<path d="M333.591 207.663C342.328 207.663 349.411 200.581 349.411 191.843C349.411 183.106 342.328 176.023 333.591 176.023C324.854 176.023 317.771 183.106 317.771 191.843C317.771 200.581 324.854 207.663 333.591 207.663Z" fill="#D76A77"/>
<path d="M338.692 280.043H185.706V313.191H338.692V280.043Z" fill="#EAE9E9"/>
<path d="M222.674 280.043H213.747V313.191H222.674V280.043Z" fill="#9F9E9F"/>
<path d="M251.991 280.043H243.077V313.191H251.991V280.043Z" fill="#9F9E9F"/>
<path d="M283.871 280.043H274.944V313.191H283.871V280.043Z" fill="#9F9E9F"/>
<path d="M311.913 280.043H302.999V313.191H311.913V280.043Z" fill="#9F9E9F"/>
<g opacity="0.08">
<path d="M399.004 146.959V98.4578V48.6488C399.004 22.2448 377.604 0.841797 351.203 0.841797H253.316V370.559H351.203C377.603 370.559 399.004 349.156 399.004 322.752V290.797V232.744C421.25 231.074 438.775 212.518 438.775 189.855C438.775 167.188 421.25 148.629 399.004 146.959Z" fill="#231815"/>
</g>
</g>
<defs>
<clipPath id="clip0_19_15982">
<rect width="512" height="512" fill="white" transform="translate(0.420898 0.841797)"/>
</clipPath>
</defs>
</svg>
