<svg width="392" height="392" viewBox="0 0 392 392" fill="none" xmlns="http://www.w3.org/2000/svg">
<g clip-path="url(#clip0_16_7322)">
<path d="M103.967 158.652V239.395H22.641V158.652C22.641 136.414 41.582 118.571 63.304 118.571C84.96 118.507 103.967 136.414 103.967 158.652Z" fill="#FFC10D"/>
<path d="M83.926 43.1943C83.926 31.8163 74.682 22.5723 63.304 22.5723C51.926 22.5723 42.682 31.8163 42.682 43.1943C42.682 54.5723 51.926 63.8163 63.304 63.8163C74.682 63.8163 83.926 54.5723 83.926 43.1943Z" fill="white"/>
<path d="M89.874 261.053H37.316V369.465H89.874V261.053Z" fill="white"/>
<path d="M316.977 43.1943C316.977 31.8163 307.733 22.5723 296.355 22.5723C284.977 22.5723 275.733 31.8163 275.733 43.1943C275.733 54.5723 284.977 63.8163 296.355 63.8163C307.733 63.8163 316.977 54.5723 316.977 43.1943Z" fill="white"/>
<path d="M336.435 153.222C336.435 152.705 336.435 152.705 336.435 152.123C333.203 132.6 316.912 118.507 296.871 118.507H295.255C275.732 118.507 258.924 132.6 255.691 152.123C255.691 152.64 255.691 152.64 255.691 153.222L245.929 193.303L226.406 261.052H366.236L346.713 193.303L336.435 153.222Z" fill="#56ACE0"/>
<path d="M322.343 282.709H269.785V369.4H322.343V282.709Z" fill="white"/>
<path d="M63.304 85.473C86.577 85.473 105.583 66.532 105.583 43.194C105.583 19.856 86.641 0.915039 63.304 0.915039C39.967 0.915039 21.025 19.856 21.025 43.194C21.025 66.532 40.031 85.473 63.304 85.473ZM63.304 22.572C74.682 22.572 83.926 31.816 83.926 43.194C83.926 54.572 74.682 63.816 63.304 63.816C51.926 63.816 42.682 54.572 42.682 43.194C42.682 31.816 51.926 22.572 63.304 22.572Z" fill="#194F82"/>
<path d="M63.304 96.8501C29.171 96.8501 0.984985 124.519 0.984985 158.652V249.674C0.984985 255.621 5.83299 260.535 11.846 260.535H15.66V379.743C15.66 385.69 20.508 390.604 26.521 390.604H100.8C106.747 390.604 111.661 385.756 111.661 379.743V260.535H115.475C121.422 260.535 126.336 255.687 126.336 249.674V158.652C126.205 124.454 97.437 96.8501 63.304 96.8501ZM89.874 369.464H74.165V319.04C74.165 313.093 69.317 308.179 63.304 308.179C57.291 308.179 52.443 313.027 52.443 319.04V369.464H37.316V261.052H89.874V369.464ZM104.484 239.396H22.641V158.653C22.641 136.415 41.582 118.572 63.304 118.572C85.026 118.572 103.967 136.479 103.967 158.653V239.396H104.484Z" fill="#194F82"/>
<path d="M296.354 85.473C319.627 85.473 338.633 66.532 338.633 43.194C338.633 19.856 319.692 0.915039 296.354 0.915039C273.017 0.915039 254.075 19.856 254.075 43.194C254.075 66.532 273.017 85.473 296.354 85.473ZM296.354 22.572C307.732 22.572 316.976 31.816 316.976 43.194C316.976 54.572 307.732 63.816 296.354 63.816C284.976 63.816 275.732 54.572 275.732 43.194C275.732 31.816 284.977 22.572 296.354 22.572Z" fill="#194F82"/>
<path d="M390.092 267L367.336 187.873L357.574 148.309C352.725 118.507 326.156 96.8501 295.772 96.8501C265.388 96.8501 238.883 118.507 233.97 148.309L224.208 187.355L200.935 268.68C199.319 275.209 203.65 282.773 211.214 282.773H247.545V380.26C247.545 386.207 252.393 391.121 258.406 391.121H332.685C338.633 391.121 343.546 386.273 343.546 380.26V282.708H379.877C389.575 282.709 392.807 274.046 390.092 267ZM322.342 369.464H307.15V319.04C307.15 313.093 302.302 308.179 296.289 308.179C290.276 308.179 285.428 313.027 285.428 319.04V369.464H270.237V282.708H322.795V369.399H322.342V369.464ZM226.407 261.052L245.93 193.302C245.93 193.302 255.692 152.639 255.692 152.122C258.924 132.599 276.314 118.506 296.355 118.506C316.396 118.506 333.203 132.599 336.436 152.122C336.436 152.639 346.715 193.302 346.715 193.302L366.238 260.534H226.407V261.052Z" fill="#194F82"/>
<path d="M165.187 0.915039C159.24 0.915039 154.326 5.76304 154.326 11.776V380.261C154.326 386.208 159.174 391.122 165.187 391.122C171.2 391.122 176.048 386.274 176.048 380.261V11.776C176.047 5.76304 171.134 0.915039 165.187 0.915039Z" fill="#194F82"/>
</g>
<defs>
<clipPath id="clip0_16_7322">
<rect width="390.206" height="390.206" fill="white" transform="translate(0.896973 0.915039)"/>
</clipPath>
</defs>
</svg>
