<svg width="60" height="61" viewBox="0 0 60 61" fill="none" xmlns="http://www.w3.org/2000/svg">
<g clip-path="url(#clip0_16_6695)">
<path d="M0 0.915039H60V60.915H0V0.915039Z" fill="#EF8A45"/>
<path opacity="0.5" d="M26.4375 0.915039L28.125 27.165H31.875L33.5625 0.915039H26.4375Z" fill="#F9B04E"/>
<path opacity="0.5" d="M43.875 0.915039L34.6875 27.7275L38.1563 29.1338L52.9688 0.915039H43.875Z" fill="#F9B04E"/>
<path opacity="0.5" d="M60 8.79004L40.5938 30.8213L43.2187 33.4463L60 18.6338V8.79004Z" fill="#F9B04E"/>
<path opacity="0.5" d="M60 28.4775L44.9062 35.8838L46.3125 39.3525L60 34.665V28.4775Z" fill="#F9B04E"/>
<path opacity="0.5" d="M21.8437 29.1338L25.3125 27.7275L16.125 0.915039H7.03125L21.8437 29.1338Z" fill="#F9B04E"/>
<path opacity="0.5" d="M0 18.6338L16.7812 33.4463L19.4062 30.8213L0 8.79004V18.6338Z" fill="#F9B04E"/>
<path opacity="0.5" d="M0 34.665L13.6875 39.3525L15.0938 35.8838L0 28.4775V34.665Z" fill="#F9B04E"/>
<path d="M0 46.7588L13.125 45.915V42.165L0 41.3213V46.7588Z" fill="#F9B04E"/>
<path d="M30 60.915C43.0995 60.915 53.7188 50.2958 53.7188 37.1963C53.7188 24.0968 43.0995 13.4775 30 13.4775C16.9005 13.4775 6.28125 24.0968 6.28125 37.1963C6.28125 50.2958 16.9005 60.915 30 60.915Z" fill="#FFC466"/>
<path d="M45 43.7588H60V60.915H41.25V47.5088C41.25 45.4463 42.9375 43.7588 45 43.7588Z" fill="#62727A"/>
<path d="M57 46.8525H57.375C57.75 46.8525 58.125 47.2275 58.125 47.79V60.915H56.25V47.79C56.25 47.2275 56.625 46.8525 57 46.8525Z" fill="#D0D0D0"/>
<path d="M52.3125 46.8525H52.6875C53.0625 46.8525 53.4375 47.2275 53.4375 47.79V60.915H51.5625V47.79C51.5625 47.2275 51.9375 46.8525 52.3125 46.8525Z" fill="#D0D0D0"/>
<path d="M48.0938 41.2275H58.4062V43.9463H48.0938V41.2275Z" fill="#62727A"/>
<path d="M0 41.3213H12.2813V36.4463L0 39.2588V41.3213Z" fill="#62727A"/>
<path d="M0 41.2275H12.1875V60.915H0V41.2275Z" fill="#62727A"/>
<path d="M8.90625 48.7275C8.90625 49.1963 8.53125 49.665 7.96875 49.665H5.15625C4.59375 49.665 4.21875 49.1963 4.21875 48.7275V46.8525C4.21875 46.29 4.59375 45.915 5.15625 45.915H7.96875C8.53125 45.915 8.90625 46.29 8.90625 46.8525V48.7275Z" fill="#ED4C5C"/>
<path d="M8.90625 56.2275C8.90625 56.6963 8.53125 57.165 7.96875 57.165H5.15625C4.59375 57.165 4.21875 56.6963 4.21875 56.2275V54.3525C4.21875 53.79 4.59375 53.415 5.15625 53.415H7.96875C8.53125 53.415 8.90625 53.79 8.90625 54.3525V56.2275Z" fill="#ED4C5C"/>
<path d="M46.875 36.54V32.79L41.25 30.915V20.6025H39.375V30.915L33.75 32.79V36.54H30.9375V29.3213L21.5625 18.7275L12.1875 29.3213V60.915H49.6875V36.54H46.875Z" fill="#3E4347"/>
<path d="M38.9062 43.1025C38.9062 43.5713 38.4375 44.04 37.9688 44.04H35.1562C34.6875 44.04 34.2188 43.5713 34.2188 43.1025V41.2275C34.2188 40.665 34.6875 40.29 35.1562 40.29H37.9688C38.4375 40.29 38.9062 40.665 38.9062 41.2275V43.1025Z" fill="#6ADBC6"/>
<path d="M46.4062 50.6025C46.4062 51.0713 45.9375 51.54 45.4688 51.54H42.6562C42.1875 51.54 41.7188 51.0713 41.7188 50.6025V48.7275C41.7188 48.165 42.1875 47.79 42.6562 47.79H45.4688C45.9375 47.79 46.4062 48.165 46.4062 48.7275V50.6025Z" fill="#6ADBC6"/>
<path d="M38.9062 58.1025C38.9062 58.5713 38.4375 59.04 37.9688 59.04H35.1562C34.6875 59.04 34.2188 58.5713 34.2188 58.1025V56.2275C34.2188 55.665 34.6875 55.29 35.1562 55.29H37.9688C38.4375 55.29 38.9062 55.665 38.9062 56.2275V58.1025Z" fill="#6ADBC6"/>
<path d="M46.4062 58.1025C46.4062 58.5713 45.9375 59.04 45.4688 59.04H42.6562C42.1875 59.04 41.7188 58.5713 41.7188 58.1025V56.2275C41.7188 55.665 42.1875 55.29 42.6562 55.29H45.4688C45.9375 55.29 46.4062 55.665 46.4062 56.2275V58.1025Z" fill="#6ADBC6"/>
<path d="M28.125 41.2275C28.125 41.6963 27.6562 42.165 27.1875 42.165H15.9375C15.4688 42.165 15 41.6963 15 41.2275V39.3525C15 38.79 15.4688 38.415 15.9375 38.415H27.1875C27.6562 38.415 28.125 38.79 28.125 39.3525V41.2275Z" fill="#FFDD7D"/>
<path d="M28.125 56.2275C28.125 56.6963 27.6562 57.165 27.1875 57.165H15.9375C15.4688 57.165 15 56.6963 15 56.2275V54.3525C15 53.79 15.4688 53.415 15.9375 53.415H27.1875C27.6562 53.415 28.125 53.79 28.125 54.3525V56.2275Z" fill="#FFDD7D"/>
<path d="M28.125 33.7275C28.125 34.1963 27.6562 34.665 27.1875 34.665H15.9375C15.4688 34.665 15 34.1963 15 33.7275V31.8525C15 31.29 15.4688 30.915 15.9375 30.915H27.1875C27.6562 30.915 28.125 31.29 28.125 31.8525V33.7275Z" fill="#FFDD7D"/>
<path d="M28.125 48.7275C28.125 49.1963 27.6562 49.665 27.1875 49.665H15.9375C15.4688 49.665 15 49.1963 15 48.7275V46.8525C15 46.29 15.4688 45.915 15.9375 45.915H27.1875C27.6562 45.915 28.125 46.29 28.125 46.8525V48.7275Z" fill="#FFDD7D"/>
</g>
<defs>
<clipPath id="clip0_16_6695">
<rect width="60" height="60" fill="white" transform="translate(0 0.915039)"/>
</clipPath>
</defs>
</svg>
