<svg width="512" height="513" viewBox="0 0 512 513" fill="none" xmlns="http://www.w3.org/2000/svg">
<g clip-path="url(#clip0_16_7419)">
<path d="M53.337 184.663C77.4459 184.663 96.99 165.119 96.99 141.01C96.99 116.902 77.4459 97.3574 53.337 97.3574C29.2281 97.3574 9.68402 116.902 9.68402 141.01C9.68402 165.119 29.2281 184.663 53.337 184.663Z" fill="#606060"/>
<path d="M512 192.983V422.588L470.122 464.466H51.505L9.70697 422.588V192.983H512Z" fill="#F0EFEF"/>
<path d="M111.528 144.834L87.261 193.002H155.473L179.74 144.834H111.528Z" fill="#F5EFBB"/>
<path d="M453.572 193.002H511.945V144.834H477.839L453.572 193.002Z" fill="#3F3F3F"/>
<path d="M233.632 144.834L209.365 193.002H277.577L301.844 144.834H233.632Z" fill="#6EB9D2"/>
<path d="M355.735 144.834L331.469 193.002H399.68L423.947 144.834H355.735Z" fill="#FAFAFB"/>
<path d="M57.602 144.847L38.829 182.152L33.374 192.983H8.66498V144.847H57.602Z" fill="#3F3F3F"/>
<path d="M423.947 144.834L399.68 193.002H453.572L477.839 144.834H423.947Z" fill="#648A7B"/>
<path d="M301.844 144.834L277.577 193.002H331.469L355.735 144.834H301.844Z" fill="#C15670"/>
<path d="M179.74 144.834L155.473 193.002H209.365L233.632 144.834H179.74Z" fill="#69865C"/>
<path d="M57.636 144.834L33.369 193.002H87.261L111.528 144.834H57.636Z" fill="#648A7B"/>
<path d="M416.371 64.7025L349.382 77.8595L316.33 35.2595L383.238 22.1035L416.371 64.7025Z" fill="#FAFAFB"/>
<path d="M56.96 135.462L9.868 144.768L9.306 144.848L0 97.5946L23.827 92.8616L27.838 92.0596L34.337 101.767L56.96 135.462Z" fill="#3F3F3F"/>
<path d="M296.514 88.2895L256 96.2315L229.606 101.445L196.472 58.9265L256 47.1325L263.461 45.6895L296.514 88.2895Z" fill="#6EB9D2"/>
<path d="M176.737 111.875L109.829 125.032L76.696 82.5124L143.604 69.2754L176.737 111.875Z" fill="#F5EFBB"/>
<path d="M504.138 47.3731L469.4 54.2731L468.678 53.5511L425.998 13.6791L436.106 11.6731L489.296 1.16309L494.832 0.121094L496.436 8.30309L504.138 47.3731Z" fill="#3F3F3F"/>
<path d="M109.829 125.032L94.987 128L56.96 135.461L31.77 103.129L23.827 92.8607L27.838 92.0587L76.696 82.5117L109.829 125.032Z" fill="#648A7B"/>
<path d="M229.606 101.445L176.737 111.875L143.604 69.2748L196.472 58.9258L229.606 101.445Z" fill="#69865C"/>
<path d="M349.382 77.8588L296.514 88.2888L263.461 45.6888L316.33 35.2588L349.382 77.8588Z" fill="#C15670"/>
<path d="M469.24 54.2729L416.371 64.7019L383.238 22.1029L425.998 13.6789L436.106 11.6729L468.678 53.5508L468.839 53.7109L469.24 54.2729Z" fill="#648A7B"/>
<path d="M23.882 124.12C27.2648 124.12 30.007 121.378 30.007 117.995C30.007 114.612 27.2648 111.87 23.882 111.87C20.4993 111.87 17.757 114.612 17.757 117.995C17.757 121.378 20.4993 124.12 23.882 124.12Z" fill="#F0E1B7"/>
<path d="M23.882 175.963C27.2648 175.963 30.007 173.221 30.007 169.838C30.007 166.455 27.2648 163.713 23.882 163.713C20.4993 163.713 17.757 166.455 17.757 169.838C17.757 173.221 20.4993 175.963 23.882 175.963Z" fill="#F0E1B7"/>
<path d="M438.528 235.781H83.144V307.563H438.528V235.781Z" fill="#454444"/>
<path d="M118.012 253.313L109.187 259.65V266.711L118.012 260.373V289.254H125.874V253.313H118.012Z" fill="#E3354E"/>
<path d="M138.87 253.313V264.866H146.411V259.25H157.723L143.763 289.254H152.347L166.307 259.25V253.313H138.87Z" fill="#E3354E"/>
<path d="M172.806 281.792V289.253H181.871V281.792H172.806Z" fill="#E3354E"/>
<path d="M200.965 253.313L192.221 259.65V266.711L200.965 260.373V289.254H208.827V253.313H200.965Z" fill="#E3354E"/>
<path d="M244.046 271.684C244.768 270.963 245.41 270.321 245.972 269.678C246.534 269.037 247.015 268.395 247.416 267.753C247.817 267.112 248.138 266.47 248.298 265.828C248.539 265.106 248.619 264.304 248.619 263.422C248.619 261.817 248.298 260.373 247.656 259.089C247.015 257.805 246.132 256.683 244.929 255.799C243.806 254.918 242.442 254.195 240.837 253.713C239.152 253.232 237.468 252.991 235.542 252.991C233.697 252.991 231.932 253.232 230.328 253.713C228.804 254.195 227.36 254.837 226.156 255.799C225.033 256.682 224.07 257.805 223.429 259.089C222.707 260.373 222.386 261.816 222.386 263.502H230.248C230.248 262.62 230.409 261.897 230.729 261.336C231.05 260.695 231.451 260.213 231.932 259.891C232.413 259.57 232.975 259.25 233.617 259.169C234.259 259.008 234.901 258.929 235.542 258.929C237.227 258.929 238.511 259.33 239.393 260.132C240.275 260.935 240.757 262.057 240.757 263.422C240.757 264.224 240.596 264.947 240.195 265.587C239.874 266.229 239.313 266.952 238.511 267.753L222.386 283.317V289.254H248.619V283.317H231.932L244.046 271.684Z" fill="#E3354E"/>
<path d="M255.84 281.792V289.253H264.825V281.792H255.84Z" fill="#E3354E"/>
<path d="M297.396 259.169C296.754 257.805 295.791 256.682 294.588 255.799C293.385 254.837 292.021 254.195 290.416 253.713C288.811 253.232 287.127 252.991 285.442 252.991C283.597 252.991 281.992 253.232 280.388 253.713C278.783 254.195 277.42 254.837 276.216 255.799C275.013 256.682 274.05 257.805 273.328 259.169C272.606 260.453 272.285 261.977 272.285 263.741V278.824C272.285 280.509 272.606 282.032 273.328 283.397C274.05 284.761 275.013 285.883 276.216 286.767C277.419 287.648 278.783 288.371 280.388 288.853C281.993 289.254 283.597 289.495 285.442 289.495C287.127 289.495 288.811 289.254 290.416 288.853C292.021 288.371 293.384 287.649 294.588 286.767C295.791 285.884 296.754 284.761 297.396 283.397C298.118 282.033 298.519 280.509 298.519 278.824V263.741C298.52 261.977 298.119 260.453 297.396 259.169ZM290.658 278.825C290.658 280.269 290.176 281.472 289.213 282.354C288.25 283.236 286.967 283.637 285.443 283.637C283.838 283.637 282.555 283.236 281.592 282.354C280.629 281.472 280.148 280.268 280.148 278.825V263.822C280.148 262.298 280.63 261.095 281.592 260.212C282.555 259.33 283.838 258.929 285.443 258.929C286.967 258.929 288.251 259.33 289.213 260.212C290.176 261.094 290.658 262.298 290.658 263.822V278.825Z" fill="#E3354E"/>
<path d="M316.811 253.313L308.067 259.65V266.711L316.811 260.373V289.254H324.673V253.313H316.811Z" fill="#E3354E"/>
<path d="M338.793 281.792V289.253H347.858V281.792H338.793Z" fill="#E3354E"/>
<path d="M380.43 259.169C379.708 257.805 378.746 256.682 377.542 255.799C376.419 254.837 374.975 254.195 373.371 253.713C371.766 253.232 370.162 252.991 368.397 252.991C366.632 252.991 364.947 253.232 363.343 253.713C361.819 254.195 360.374 254.837 359.171 255.799C357.967 256.682 357.005 257.805 356.363 259.169C355.641 260.453 355.24 261.977 355.24 263.741V278.824C355.24 280.509 355.641 282.032 356.363 283.397C357.005 284.761 357.968 285.883 359.171 286.767C360.374 287.648 361.819 288.371 363.343 288.853C364.947 289.254 366.632 289.495 368.397 289.495C370.162 289.495 371.767 289.254 373.371 288.853C374.975 288.371 376.419 287.649 377.542 286.767C378.746 285.884 379.708 284.761 380.43 283.397C381.152 282.033 381.473 280.509 381.473 278.824V263.741C381.473 261.977 381.152 260.453 380.43 259.169ZM373.611 278.825C373.611 280.269 373.13 281.472 372.167 282.354C371.204 283.236 370.001 283.637 368.396 283.637C366.792 283.637 365.588 283.236 364.545 282.354C363.582 281.472 363.101 280.268 363.101 278.825V263.822C363.101 262.298 363.582 261.095 364.545 260.212C365.588 259.33 366.792 258.929 368.396 258.929C370.001 258.929 371.204 259.33 372.167 260.212C373.13 261.094 373.611 262.298 373.611 263.822V278.825Z" fill="#E3354E"/>
<path d="M413.162 273.609C412.039 272.326 410.755 271.363 409.231 270.642C410.595 270 411.798 269.117 412.761 267.994C413.643 266.791 414.125 265.267 414.125 263.261C414.125 261.817 413.804 260.373 413.162 259.169C412.52 257.885 411.638 256.763 410.435 255.879C409.312 254.997 407.868 254.275 406.263 253.793C404.658 253.232 402.894 252.991 401.048 252.991C399.203 252.991 397.518 253.232 395.914 253.713C394.309 254.195 392.946 254.837 391.742 255.719C390.619 256.602 389.656 257.644 388.934 258.929C388.212 260.212 387.891 261.656 387.811 263.261H395.673C395.753 261.897 396.315 260.775 397.278 260.052C398.321 259.25 399.524 258.93 401.048 258.93C402.412 258.93 403.696 259.331 404.739 260.052C405.782 260.855 406.263 261.977 406.263 263.502C406.263 264.786 405.862 265.828 405.059 266.711C404.177 267.592 402.813 267.994 400.807 267.994H399.684V273.69H400.807C402.813 273.69 404.257 274.172 405.3 275.054C406.343 275.936 406.905 277.14 406.905 278.665C406.905 280.269 406.343 281.473 405.3 282.355C404.177 283.237 402.813 283.638 401.048 283.638C400.326 283.638 399.604 283.559 398.882 283.318C398.16 283.157 397.518 282.917 397.037 282.516C396.475 282.115 396.074 281.633 395.754 280.992C395.433 280.43 395.273 279.707 395.192 278.906H387.33C387.41 280.831 387.811 282.436 388.533 283.718C389.336 285.082 390.379 286.205 391.582 287.008C392.866 287.889 394.31 288.532 395.994 288.933C397.599 289.334 399.283 289.494 401.048 289.494C402.974 289.494 404.739 289.333 406.343 288.852C408.027 288.451 409.472 287.808 410.675 286.846C411.959 285.963 412.921 284.84 413.643 283.557C414.365 282.193 414.766 280.589 414.766 278.824C414.767 276.659 414.205 274.894 413.162 273.609Z" fill="#E3354E"/>
<path d="M35.712 342.921H485.96" stroke="#648A7B" stroke-width="0.8134" stroke-miterlimit="10"/>
<path d="M177.814 354.34V429.381" stroke="#648A7B" stroke-width="0.8134" stroke-miterlimit="10"/>
<path d="M343.858 354.34V429.381" stroke="#648A7B" stroke-width="0.8134" stroke-miterlimit="10"/>
<path d="M420.038 370.502L425.339 386.819H442.496L428.616 396.903L433.918 413.219L420.038 403.135L406.158 413.219L411.46 396.903L397.58 386.819H414.736L420.038 370.502Z" fill="#CACED5"/>
<g opacity="0.1">
<path d="M256 193.005V464.44H470.098L511.992 422.556V193.005H256Z" fill="#040000"/>
<path d="M469.4 54.2731L468.839 53.7111L469.24 54.2731L416.371 64.7021L349.382 77.8591L296.514 88.2891L256 96.2311V47.1321L263.461 45.6891L316.33 35.2591L383.238 22.1031L425.998 13.6791L436.106 11.6731L489.296 1.16309L494.832 0.121094L496.436 8.30309L504.138 47.3731L469.4 54.2731Z" fill="#040000"/>
<path d="M331.469 193.002H399.68H453.572H511.945V144.834H477.839H423.947H355.736H301.844H256V193.002H277.577H331.469Z" fill="#040000"/>
</g>
</g>
<defs>
<clipPath id="clip0_16_7419">
<rect width="512" height="512" fill="white" transform="translate(0 0.121094)"/>
</clipPath>
</defs>
</svg>
