<svg width="60" height="60" viewBox="0 0 60 60" fill="none" xmlns="http://www.w3.org/2000/svg">
<g clip-path="url(#clip0_19_15863)">
<path d="M60 53.3333C60 55.1014 59.2976 56.7971 58.0474 58.0474C56.7971 59.2976 55.1014 60 53.3333 60H6.66667C4.89856 60 3.20286 59.2976 1.95262 58.0474C0.702379 56.7971 0 55.1014 0 53.3333V6.66667C0 4.89856 0.702379 3.20286 1.95262 1.95262C3.20286 0.702379 4.89856 0 6.66667 0L53.3333 0C55.1014 0 56.7971 0.702379 58.0474 1.95262C59.2976 3.20286 60 4.89856 60 6.66667V53.3333Z" fill="#77B255"/>
<path d="M23.5018 18.5415C24.3251 18.5415 24.7584 19.1482 24.7584 20.0149C24.7584 20.9249 24.3251 21.5749 23.5018 21.5749H19.6451V30.1549C20.9018 29.7215 22.1168 29.2882 23.1118 28.8549C23.3718 28.7682 23.5451 28.7249 23.7618 28.7249C24.2818 28.7249 24.6284 29.0282 24.8451 29.6782C24.9592 29.907 25.0185 30.1592 25.0184 30.4149C25.0184 30.8915 24.7584 31.2815 24.1518 31.5415C22.8518 32.1465 21.2918 32.7982 19.6451 33.3615V45.8415C19.6451 48.9615 18.4318 49.9149 15.3118 49.9149C13.7951 49.9149 12.7551 49.8282 11.8018 49.5682C11.0651 49.3932 10.6751 48.8315 10.6751 48.0515C10.6751 47.9215 10.6751 47.7915 10.7184 47.6182C10.8484 46.8815 11.3251 46.4032 12.0184 46.4032C12.1484 46.4032 12.3218 46.4032 12.4518 46.4465C13.2047 46.627 13.9744 46.7287 14.7484 46.7499C16.1351 46.7499 16.4384 46.4915 16.4384 45.2332V34.4432C14.9578 34.89 13.4692 35.3101 11.9734 35.7032C11.8001 35.7449 11.6701 35.7449 11.5401 35.7449C10.8034 35.7449 10.2834 35.3115 10.1101 34.4465C10.0668 34.2282 10.0234 34.0565 10.0234 33.8399C10.0234 33.1465 10.4134 32.7132 11.1068 32.6282C12.8959 32.1992 14.6732 31.7224 16.4368 31.1982V21.5765H11.4534C10.6734 21.5765 10.2401 20.9265 10.2401 20.0599C10.2401 19.1499 10.6734 18.5432 11.4534 18.5432H16.4368V11.2182C16.4368 10.3499 17.0001 9.91821 17.9968 9.91821C19.0368 9.91821 19.6434 10.3515 19.6434 11.2182V18.5415H23.5018ZM43.7818 29.7215C46.1218 29.7215 47.2918 30.7182 47.2918 33.1449V45.9282C47.2918 48.3132 46.1218 49.3532 43.7818 49.3532H29.9584C27.6618 49.3532 26.4484 48.3132 26.4484 45.9282V33.1449C26.4484 30.7182 27.6634 29.7215 29.9584 29.7215H43.7818ZM29.7851 21.3582C29.7851 22.9615 30.4784 23.2215 37.7584 23.2215C43.9118 23.2215 44.9101 22.8315 45.4734 21.9215C45.7768 21.4449 46.0368 20.4915 46.1668 19.2782C46.2534 18.4982 46.7301 18.1082 47.5534 18.1082H47.8118C48.7218 18.1949 49.2868 18.7149 49.2868 19.4515V19.6249C49.1134 21.5749 48.7218 23.1782 47.8118 24.3049C46.7301 25.6915 45.2551 26.2549 37.7151 26.2549C28.0518 26.2549 26.5334 25.7782 26.5334 22.1382V11.4349C26.5334 10.6549 27.1401 10.2215 28.1368 10.2215C29.0901 10.2215 29.7834 10.6549 29.7834 11.4349V15.7249C35.0701 15.0315 41.1801 13.4699 45.1251 11.7815C45.4284 11.6515 45.6884 11.6082 45.9468 11.6082C46.5534 11.6082 47.0301 11.9982 47.2918 12.6482C47.4218 12.9515 47.4651 13.2115 47.4651 13.4282C47.4651 14.0349 47.1184 14.4682 46.4684 14.7282C41.7018 16.5915 35.5468 17.9782 29.7851 18.5849V21.3582ZM44.0851 33.6649C44.0851 32.7999 43.6518 32.5832 42.8284 32.5832H30.8668C30.0434 32.5832 29.6534 32.7999 29.6534 33.6649V37.9132H44.0851V33.6649ZM29.6534 40.6865V45.3232C29.6534 46.1899 30.0434 46.4049 30.8668 46.4049H42.8284C43.6518 46.4049 44.0851 46.1882 44.0851 45.3232V40.6865H29.6534Z" fill="white"/>
</g>
<defs>
<clipPath id="clip0_19_15863">
<rect width="60" height="60" fill="white"/>
</clipPath>
</defs>
</svg>
