<svg width="60" height="60" viewBox="0 0 60 60" fill="none" xmlns="http://www.w3.org/2000/svg">
<path d="M11.9158 38.5934C11.5557 38.5934 11.2628 38.3004 11.2628 37.9403C11.2628 37.5802 11.5557 37.2872 11.9158 37.2872C12.2759 37.2872 12.5688 37.5802 12.5688 37.9403C12.5688 38.3004 12.2759 38.5934 11.9158 38.5934ZM11.9158 36.6343C11.1946 36.6343 10.6098 37.219 10.6098 37.9402C10.6098 38.6615 11.1946 39.2462 11.9158 39.2462C12.637 39.2462 13.2218 38.6615 13.2218 37.9402C13.2218 37.219 12.637 36.6343 11.9158 36.6343ZM13.6835 23.986L14.3774 23.2923C14.5021 23.1679 14.5037 22.9593 14.3761 22.8319C14.3461 22.8014 14.3103 22.7772 14.2708 22.7607C14.2314 22.7441 14.189 22.7355 14.1462 22.7354C14.1034 22.7353 14.061 22.7436 14.0215 22.7599C13.9819 22.7763 13.946 22.8003 13.9157 22.8306L13.2219 23.5243L12.528 22.8306C12.4036 22.7059 12.195 22.7042 12.0676 22.8319C12.0372 22.862 12.013 22.8978 11.9964 22.9372C11.9799 22.9767 11.9713 23.019 11.9712 23.0618C11.971 23.1046 11.9794 23.147 11.9957 23.1866C12.0121 23.2261 12.0361 23.2621 12.0664 23.2923L12.7602 23.986L12.0664 24.6798C11.9417 24.8042 11.94 25.0128 12.0676 25.1402C12.0977 25.1707 12.1335 25.1949 12.1729 25.2115C12.2124 25.2281 12.2548 25.2367 12.2976 25.2368C12.3404 25.2369 12.3828 25.2286 12.4223 25.2122C12.4619 25.1959 12.4978 25.1718 12.528 25.1415L13.2219 24.4478L13.9157 25.1415C14.0402 25.2663 14.2485 25.2679 14.3761 25.1402C14.4066 25.1101 14.4308 25.0743 14.4474 25.0349C14.4639 24.9954 14.4725 24.9531 14.4726 24.9103C14.4727 24.8675 14.4644 24.8251 14.448 24.7855C14.4317 24.746 14.4077 24.71 14.3774 24.6798L13.6835 23.986ZM11.9711 31.9184C12.014 31.9185 12.0565 31.9101 12.0962 31.8937C12.1358 31.8773 12.1718 31.8533 12.2022 31.8229C12.2325 31.7926 12.2566 31.7565 12.2729 31.7169C12.2893 31.6772 12.2977 31.6347 12.2976 31.5918C12.2977 31.5489 12.2893 31.5064 12.273 31.4667C12.2566 31.4271 12.2326 31.391 12.2022 31.3607C12.1719 31.3304 12.1358 31.3063 12.0962 31.29C12.0565 31.2736 12.014 31.2652 11.9711 31.2653C11.9282 31.2652 11.8857 31.2736 11.8461 31.29C11.8064 31.3063 11.7704 31.3304 11.74 31.3607C11.7097 31.3911 11.6856 31.4271 11.6693 31.4668C11.6529 31.5064 11.6445 31.5489 11.6446 31.5918C11.6445 31.6347 11.6529 31.6773 11.6692 31.7169C11.6856 31.7566 11.7096 31.7927 11.74 31.823C11.7703 31.8534 11.8063 31.8774 11.846 31.8938C11.8857 31.9102 11.9282 31.9185 11.9711 31.9184ZM8.52924 42.961C8.57215 42.961 8.61464 42.9526 8.65429 42.9362C8.69395 42.9199 8.72997 42.8958 8.7603 42.8655C8.79063 42.8351 8.81468 42.7991 8.83105 42.7594C8.84743 42.7198 8.85581 42.6773 8.85573 42.6344C8.85584 42.5915 8.84747 42.549 8.8311 42.5093C8.81473 42.4696 8.79069 42.4336 8.76035 42.4033C8.73001 42.3729 8.69397 42.3489 8.65431 42.3325C8.61465 42.3161 8.57215 42.3078 8.52924 42.3079C8.48634 42.3078 8.44384 42.3161 8.40418 42.3325C8.36452 42.3489 8.32849 42.3729 8.29815 42.4033C8.26782 42.4336 8.24377 42.4696 8.2274 42.5093C8.21103 42.549 8.20266 42.5915 8.20276 42.6344C8.20262 42.6773 8.21098 42.7198 8.22733 42.7595C8.24369 42.7992 8.26773 42.8352 8.29808 42.8656C8.32842 42.8959 8.36446 42.92 8.40413 42.9363C8.44381 42.9527 8.48632 42.9611 8.52924 42.961ZM6.46103 19.0911C6.50394 19.0911 6.54644 19.0827 6.58609 19.0664C6.62574 19.05 6.66176 19.0259 6.69209 18.9956C6.72243 18.9652 6.74647 18.9292 6.76284 18.8895C6.77922 18.8499 6.7876 18.8074 6.78752 18.7645C6.78763 18.7216 6.77926 18.6791 6.76289 18.6394C6.74652 18.5997 6.72248 18.5637 6.69214 18.5334C6.6618 18.503 6.62577 18.479 6.5861 18.4626C6.54644 18.4462 6.50394 18.4379 6.46103 18.438C6.41813 18.4379 6.37563 18.4463 6.33597 18.4626C6.29632 18.479 6.26028 18.503 6.22995 18.5334C6.19961 18.5637 6.17556 18.5998 6.15919 18.6394C6.14282 18.6791 6.13445 18.7216 6.13455 18.7645C6.13442 18.8074 6.14277 18.8499 6.15913 18.8896C6.17548 18.9293 6.19953 18.9653 6.22987 18.9957C6.26021 19.026 6.29625 19.0501 6.33593 19.0665C6.3756 19.0828 6.41812 19.0912 6.46103 19.0911ZM5.10867 40.081C5.15157 40.0811 5.19406 40.0727 5.23372 40.0563C5.27337 40.04 5.3094 40.0159 5.33974 39.9856C5.37007 39.9552 5.39412 39.9192 5.41049 39.8796C5.42686 39.8399 5.43524 39.7974 5.43515 39.7545C5.43528 39.7116 5.42692 39.6691 5.41056 39.6294C5.3942 39.5897 5.37015 39.5537 5.33981 39.5233C5.30947 39.493 5.27343 39.4689 5.23376 39.4525C5.1941 39.4362 5.15158 39.4278 5.10867 39.4279C5.06576 39.4278 5.02325 39.4362 4.9836 39.4526C4.94394 39.469 4.90791 39.493 4.87757 39.5234C4.84723 39.5537 4.82319 39.5898 4.80682 39.6294C4.79045 39.6691 4.78208 39.7116 4.78218 39.7545C4.78206 39.7974 4.79043 39.8399 4.80679 39.8796C4.82316 39.9192 4.8472 39.9553 4.87754 39.9856C4.90788 40.016 4.94392 40.04 4.98359 40.0564C5.02325 40.0727 5.06576 40.0811 5.10867 40.081Z" fill="#404041"/>
<path d="M5.79181 32.1199C5.74635 32.1199 5.70277 32.1018 5.67063 32.0697C5.63849 32.0375 5.62042 31.9939 5.62041 31.9485V31.2353C5.62159 31.1906 5.64017 31.1482 5.67218 31.117C5.7042 31.0858 5.74712 31.0684 5.79181 31.0684C5.8365 31.0684 5.87942 31.0858 5.91143 31.117C5.94345 31.1482 5.96203 31.1906 5.96321 31.2353V31.9485C5.96319 31.9939 5.94513 32.0375 5.91299 32.0697C5.88085 32.1018 5.83726 32.1199 5.79181 32.1199Z" fill="#404041"/>
<path d="M6.14841 31.7632H5.43521C5.39054 31.762 5.34809 31.7435 5.31691 31.7114C5.28574 31.6794 5.26829 31.6365 5.26829 31.5918C5.26829 31.5471 5.28574 31.5042 5.31691 31.4722C5.34809 31.4402 5.39054 31.4216 5.43521 31.4204H6.14841C6.19309 31.4216 6.23553 31.4402 6.26671 31.4722C6.29789 31.5042 6.31534 31.5471 6.31534 31.5918C6.31534 31.6365 6.29789 31.6794 6.26671 31.7114C6.23553 31.7435 6.19309 31.762 6.14841 31.7632Z" fill="#404041"/>
<path d="M4.45348 25.8005C4.40803 25.8005 4.36444 25.7825 4.3323 25.7503C4.30016 25.7182 4.2821 25.6746 4.28208 25.6291V24.9159C4.28326 24.8713 4.30184 24.8288 4.33385 24.7977C4.36587 24.7665 4.40879 24.749 4.45348 24.749C4.49817 24.749 4.54109 24.7665 4.57311 24.7977C4.60512 24.8288 4.6237 24.8713 4.62488 24.9159V25.6291C4.62487 25.6746 4.6068 25.7182 4.57466 25.7503C4.54252 25.7825 4.49894 25.8005 4.45348 25.8005Z" fill="#404041"/>
<path d="M4.81008 25.4439H4.09688C4.05221 25.4427 4.00976 25.4241 3.97858 25.3921C3.9474 25.3601 3.92995 25.3172 3.92995 25.2725C3.92995 25.2278 3.9474 25.1849 3.97858 25.1528C4.00976 25.1208 4.05221 25.1023 4.09688 25.1011H4.81008C4.85475 25.1023 4.8972 25.1208 4.92838 25.1528C4.95956 25.1849 4.97701 25.2278 4.97701 25.2725C4.97701 25.3172 4.95956 25.3601 4.92838 25.3921C4.8972 25.4241 4.85475 25.4427 4.81008 25.4439Z" fill="#404041"/>
<path d="M9.14622 26.8704C9.10076 26.8704 9.05718 26.8523 9.02504 26.8202C8.99289 26.788 8.97483 26.7444 8.97482 26.699V25.9858C8.976 25.9411 8.99457 25.8987 9.02659 25.8675C9.0586 25.8363 9.10153 25.8188 9.14622 25.8188C9.19091 25.8188 9.23383 25.8363 9.26584 25.8675C9.29786 25.8987 9.31644 25.9411 9.31762 25.9858V26.699C9.31759 26.7444 9.29952 26.788 9.26738 26.8201C9.23524 26.8523 9.19167 26.8703 9.14622 26.8704Z" fill="#404041"/>
<path d="M9.50281 26.5137H8.78961C8.74494 26.5125 8.70249 26.4939 8.67131 26.4619C8.64014 26.4299 8.62269 26.387 8.62269 26.3423C8.62269 26.2976 8.64014 26.2547 8.67131 26.2227C8.70249 26.1907 8.74494 26.1721 8.78961 26.1709H9.50281C9.54749 26.1721 9.58993 26.1907 9.62111 26.2227C9.65229 26.2547 9.66974 26.2976 9.66974 26.3423C9.66974 26.387 9.65229 26.4299 9.62111 26.4619C9.58993 26.4939 9.54749 26.5125 9.50281 26.5137Z" fill="#404041"/>
<path d="M19.5167 42.1936C19.4712 42.1936 19.4276 42.1755 19.3955 42.1434C19.3633 42.1113 19.3453 42.0677 19.3453 42.0222V41.309C19.3464 41.2643 19.365 41.2219 19.397 41.1907C19.429 41.1595 19.472 41.1421 19.5167 41.1421C19.5613 41.1421 19.6043 41.1595 19.6363 41.1907C19.6683 41.2219 19.6869 41.2643 19.6881 41.309V42.0222C19.6881 42.0447 19.6836 42.067 19.675 42.0878C19.6664 42.1086 19.6538 42.1275 19.6379 42.1434C19.6219 42.1593 19.603 42.172 19.5822 42.1806C19.5615 42.1892 19.5392 42.1936 19.5167 42.1936Z" fill="#404041"/>
<path d="M19.8733 41.8365H19.1601C19.1154 41.8353 19.0729 41.8167 19.0418 41.7847C19.0106 41.7527 18.9931 41.7097 18.9931 41.6651C18.9931 41.6204 19.0106 41.5774 19.0418 41.5454C19.0729 41.5134 19.1154 41.4948 19.1601 41.4937H19.8733C19.9179 41.4948 19.9604 41.5134 19.9916 41.5454C20.0227 41.5774 20.0402 41.6204 20.0402 41.6651C20.0402 41.7097 20.0227 41.7527 19.9916 41.7847C19.9604 41.8167 19.9179 41.8353 19.8733 41.8365Z" fill="#404041"/>
<path d="M13.68 47.0994C13.6345 47.0994 13.5909 47.0813 13.5588 47.0492C13.5266 47.017 13.5086 46.9734 13.5086 46.928V46.2148C13.5097 46.1701 13.5283 46.1277 13.5603 46.0965C13.5924 46.0653 13.6353 46.0479 13.68 46.0479C13.7247 46.0479 13.7676 46.0653 13.7996 46.0965C13.8316 46.1277 13.8502 46.1701 13.8514 46.2148V46.928C13.8513 46.9734 13.8333 47.017 13.8011 47.0491C13.769 47.0813 13.7254 47.0993 13.68 47.0994Z" fill="#404041"/>
<path d="M14.0366 46.7427H13.3234C13.2787 46.7415 13.2362 46.7229 13.2051 46.6909C13.1739 46.6589 13.1564 46.616 13.1564 46.5713C13.1564 46.5266 13.1739 46.4837 13.2051 46.4517C13.2362 46.4197 13.2787 46.4011 13.3234 46.3999H14.0366C14.0812 46.4011 14.1237 46.4197 14.1549 46.4517C14.186 46.4837 14.2035 46.5266 14.2035 46.5713C14.2035 46.616 14.186 46.6589 14.1549 46.6909C14.1237 46.7229 14.0812 46.7415 14.0366 46.7427Z" fill="#404041"/>
<path d="M15.2217 41.9876C15.1762 41.9875 15.1326 41.9695 15.1005 41.9373C15.0684 41.9052 15.0503 41.8616 15.0503 41.8162V41.103C15.0515 41.0583 15.07 41.0158 15.1021 40.9847C15.1341 40.9535 15.177 40.936 15.2217 40.936C15.2664 40.936 15.3093 40.9535 15.3413 40.9847C15.3733 41.0158 15.3919 41.0583 15.3931 41.103V41.8162C15.3931 41.8616 15.375 41.9052 15.3429 41.9373C15.3107 41.9695 15.2671 41.9875 15.2217 41.9876Z" fill="#404041"/>
<path d="M15.5783 41.6309H14.8651C14.8204 41.6297 14.778 41.6111 14.7468 41.5791C14.7156 41.5471 14.6982 41.5042 14.6982 41.4595C14.6982 41.4148 14.7156 41.3719 14.7468 41.3399C14.778 41.3078 14.8204 41.2893 14.8651 41.2881H15.5783C15.623 41.2893 15.6654 41.3078 15.6966 41.3399C15.7278 41.3719 15.7452 41.4148 15.7452 41.4595C15.7452 41.5042 15.7278 41.5471 15.6966 41.5791C15.6654 41.6111 15.623 41.6297 15.5783 41.6309Z" fill="#404041"/>
<path d="M7.73103 37.1624C7.68558 37.1624 7.64199 37.1443 7.60985 37.1121C7.57771 37.08 7.55965 37.0364 7.55963 36.991V36.2778C7.56081 36.2331 7.57939 36.1906 7.61141 36.1595C7.64342 36.1283 7.68634 36.1108 7.73103 36.1108C7.77572 36.1108 7.81864 36.1283 7.85066 36.1595C7.88267 36.1906 7.90125 36.2331 7.90243 36.2778V36.991C7.90243 37.0135 7.898 37.0358 7.88939 37.0566C7.88077 37.0774 7.86815 37.0962 7.85223 37.1122C7.83631 37.1281 7.81742 37.1407 7.79662 37.1493C7.77583 37.1579 7.75354 37.1624 7.73103 37.1624Z" fill="#404041"/>
<path d="M8.08763 36.8057H7.37443C7.32976 36.8045 7.28731 36.7859 7.25613 36.7539C7.22495 36.7219 7.2075 36.679 7.2075 36.6343C7.2075 36.5896 7.22495 36.5467 7.25613 36.5147C7.28731 36.4826 7.32976 36.4641 7.37443 36.4629H8.08763C8.1323 36.4641 8.17475 36.4826 8.20593 36.5147C8.23711 36.5467 8.25456 36.5896 8.25456 36.6343C8.25456 36.679 8.23711 36.7219 8.20593 36.7539C8.17475 36.7859 8.1323 36.8045 8.08763 36.8057Z" fill="#404041"/>
<path d="M11.2269 16.4353C11.1815 16.4353 11.1379 16.4172 11.1057 16.3851C11.0736 16.353 11.0555 16.3094 11.0555 16.2639V15.5507C11.0567 15.506 11.0753 15.4636 11.1073 15.4324C11.1393 15.4012 11.1822 15.3838 11.2269 15.3838C11.2716 15.3838 11.3145 15.4012 11.3465 15.4324C11.3785 15.4636 11.3971 15.506 11.3983 15.5507V16.2639C11.3983 16.3094 11.3802 16.353 11.3481 16.3851C11.3159 16.4172 11.2724 16.4353 11.2269 16.4353Z" fill="#404041"/>
<path d="M11.5835 16.0791H10.8703C10.8256 16.0779 10.7832 16.0594 10.752 16.0274C10.7208 15.9953 10.7034 15.9524 10.7034 15.9077C10.7034 15.863 10.7208 15.8201 10.752 15.7881C10.7832 15.7561 10.8256 15.7375 10.8703 15.7363H11.5835C11.6282 15.7375 11.6706 15.7561 11.7018 15.7881C11.733 15.8201 11.7504 15.863 11.7504 15.9077C11.7504 15.9524 11.733 15.9953 11.7018 16.0274C11.6706 16.0594 11.6282 16.0779 11.5835 16.0791Z" fill="#404041"/>
<path d="M16.9771 16.2342C16.9342 16.2342 16.8917 16.2258 16.852 16.2095C16.8124 16.1931 16.7763 16.169 16.746 16.1387C16.7157 16.1083 16.6916 16.0723 16.6753 16.0326C16.6589 15.993 16.6505 15.9505 16.6506 15.9076C16.6505 15.8647 16.6589 15.8222 16.6752 15.7825C16.6916 15.7428 16.7156 15.7068 16.746 15.6765C16.7763 15.6461 16.8123 15.6221 16.852 15.6057C16.8917 15.5893 16.9342 15.581 16.9771 15.5811C17.02 15.581 17.0625 15.5894 17.1021 15.6057C17.1418 15.6221 17.1778 15.6461 17.2082 15.6765C17.2385 15.7068 17.2625 15.7429 17.2789 15.7825C17.2953 15.8222 17.3037 15.8647 17.3036 15.9076C17.3037 15.9505 17.2953 15.993 17.279 16.0327C17.2626 16.0724 17.2386 16.1084 17.2082 16.1388C17.1779 16.1691 17.1418 16.1932 17.1022 16.2095C17.0625 16.2259 17.02 16.2343 16.9771 16.2342ZM7.73103 13.3787C7.68813 13.3787 7.64563 13.3703 7.60598 13.354C7.56633 13.3376 7.53031 13.3135 7.49997 13.2832C7.46964 13.2528 7.4456 13.2168 7.42922 13.1771C7.41285 13.1375 7.40446 13.095 7.40455 13.0521C7.40444 13.0092 7.41281 12.9667 7.42918 12.927C7.44554 12.8873 7.46959 12.8513 7.49993 12.821C7.53027 12.7906 7.5663 12.7666 7.60596 12.7502C7.64562 12.7338 7.68813 12.7255 7.73103 12.7256C7.77394 12.7255 7.81644 12.7339 7.85609 12.7502C7.89575 12.7666 7.93178 12.7906 7.96212 12.821C7.99246 12.8513 8.0165 12.8874 8.03287 12.927C8.04925 12.9667 8.05762 13.0092 8.05752 13.0521C8.05765 13.095 8.0493 13.1375 8.03294 13.1772C8.01658 13.2169 7.99254 13.2529 7.9622 13.2833C7.93186 13.3136 7.89581 13.3377 7.85614 13.3541C7.81647 13.3704 7.77395 13.3788 7.73103 13.3787ZM13.3234 20.6623C13.2805 20.6623 13.238 20.6539 13.1983 20.6376C13.1587 20.6212 13.1226 20.5971 13.0923 20.5668C13.062 20.5364 13.0379 20.5004 13.0216 20.4607C13.0052 20.4211 12.9968 20.3786 12.9969 20.3357C12.9968 20.2928 13.0051 20.2503 13.0215 20.2106C13.0379 20.1709 13.0619 20.1349 13.0923 20.1046C13.1226 20.0742 13.1586 20.0502 13.1983 20.0338C13.238 20.0174 13.2805 20.0091 13.3234 20.0092C13.3663 20.0091 13.4088 20.0175 13.4484 20.0338C13.4881 20.0502 13.5241 20.0742 13.5545 20.1046C13.5848 20.1349 13.6088 20.171 13.6252 20.2106C13.6416 20.2503 13.65 20.2928 13.6499 20.3357C13.65 20.3786 13.6416 20.4211 13.6253 20.4608C13.6089 20.5005 13.5849 20.5365 13.5545 20.5669C13.5242 20.5972 13.4881 20.6213 13.4485 20.6376C13.4088 20.654 13.3663 20.6624 13.3234 20.6623ZM47.8465 38.5934C47.4864 38.5934 47.1935 38.3004 47.1935 37.9403C47.1935 37.5802 47.4864 37.2872 47.8465 37.2872C48.2066 37.2872 48.4995 37.5802 48.4995 37.9403C48.4995 38.3004 48.2066 38.5934 47.8465 38.5934ZM47.8465 36.6342C47.1253 36.6342 46.5405 37.219 46.5405 37.9402C46.5405 38.6615 47.1253 39.2462 47.8465 39.2462C48.5677 39.2462 49.1526 38.6615 49.1526 37.9402C49.1526 37.219 48.5677 36.6342 47.8465 36.6342ZM46.0789 23.986L45.385 23.2923C45.2603 23.1678 45.2587 22.9592 45.3863 22.8319C45.4164 22.8014 45.4521 22.7772 45.4916 22.7606C45.5311 22.7441 45.5734 22.7355 45.6162 22.7354C45.659 22.7352 45.7014 22.7436 45.741 22.7599C45.7805 22.7763 45.8164 22.8003 45.8467 22.8306L46.5405 23.5243L47.2343 22.8306C47.3588 22.7059 47.5674 22.7041 47.6947 22.8319C47.7252 22.8619 47.7494 22.8977 47.7659 22.9372C47.7825 22.9767 47.7911 23.019 47.7912 23.0618C47.7913 23.1046 47.783 23.147 47.7666 23.1866C47.7503 23.2261 47.7263 23.262 47.696 23.2923L47.0022 23.986L47.696 24.6798C47.8207 24.8042 47.8223 25.0128 47.6947 25.1402C47.6647 25.1707 47.6289 25.1949 47.5894 25.2115C47.55 25.228 47.5076 25.2366 47.4648 25.2368C47.422 25.2369 47.3796 25.2285 47.34 25.2122C47.3005 25.1958 47.2646 25.1718 47.2343 25.1415L46.5405 24.4477L45.8467 25.1415C45.7223 25.2663 45.514 25.2679 45.3863 25.1402C45.3558 25.1101 45.3316 25.0743 45.3151 25.0349C45.2985 24.9954 45.2899 24.953 45.2898 24.9102C45.2897 24.8674 45.298 24.8251 45.3144 24.7855C45.3307 24.7459 45.3547 24.71 45.385 24.6798L46.0789 23.986ZM47.7913 31.9184C47.7484 31.9185 47.7059 31.9101 47.6663 31.8937C47.6266 31.8773 47.5906 31.8532 47.5602 31.8229C47.5299 31.7925 47.5059 31.7565 47.4895 31.7169C47.4731 31.6772 47.4647 31.6347 47.4648 31.5918C47.4647 31.5489 47.4731 31.5064 47.4895 31.4667C47.5058 31.4271 47.5299 31.391 47.5602 31.3607C47.5905 31.3303 47.6266 31.3063 47.6662 31.2899C47.7059 31.2736 47.7484 31.2652 47.7913 31.2653C47.8342 31.2652 47.8767 31.2736 47.9164 31.29C47.956 31.3063 47.9921 31.3304 48.0224 31.3607C48.0527 31.391 48.0768 31.4271 48.0931 31.4667C48.1095 31.5064 48.1179 31.5489 48.1178 31.5918C48.1179 31.6347 48.1096 31.6772 48.0932 31.7169C48.0768 31.7566 48.0528 31.7926 48.0225 31.823C47.9921 31.8533 47.9561 31.8774 47.9164 31.8938C47.8767 31.9101 47.8342 31.9185 47.7913 31.9184ZM51.2332 42.9609C51.1903 42.961 51.1478 42.9526 51.1081 42.9362C51.0685 42.9198 51.0325 42.8958 51.0021 42.8654C50.9718 42.8351 50.9477 42.7991 50.9314 42.7594C50.915 42.7197 50.9066 42.6772 50.9067 42.6343C50.9066 42.5914 50.915 42.5489 50.9313 42.5093C50.9477 42.4696 50.9717 42.4336 51.0021 42.4032C51.0324 42.3729 51.0685 42.3488 51.1081 42.3325C51.1478 42.3161 51.1903 42.3077 51.2332 42.3079C51.2761 42.3078 51.3186 42.3161 51.3582 42.3325C51.3979 42.3489 51.4339 42.3729 51.4643 42.4032C51.4946 42.4336 51.5187 42.4696 51.535 42.5093C51.5514 42.5489 51.5598 42.5914 51.5597 42.6343C51.5598 42.6773 51.5514 42.7198 51.5351 42.7594C51.5187 42.7991 51.4947 42.8352 51.4643 42.8655C51.434 42.8959 51.3979 42.9199 51.3583 42.9363C51.3186 42.9527 51.2761 42.9611 51.2332 42.9609ZM53.3013 19.0911C53.2584 19.0911 53.2159 19.0827 53.1763 19.0663C53.1366 19.0499 53.1006 19.0259 53.0703 18.9955C53.0399 18.9652 53.0159 18.9292 52.9995 18.8895C52.9831 18.8499 52.9748 18.8074 52.9748 18.7644C52.9747 18.7215 52.9831 18.679 52.9995 18.6394C53.0158 18.5997 53.0399 18.5637 53.0702 18.5333C53.1006 18.503 53.1366 18.479 53.1763 18.4626C53.2159 18.4462 53.2584 18.4379 53.3013 18.438C53.3442 18.4379 53.3867 18.4462 53.4264 18.4626C53.466 18.479 53.5021 18.503 53.5324 18.5334C53.5628 18.5637 53.5868 18.5997 53.6032 18.6394C53.6195 18.679 53.6279 18.7215 53.6278 18.7644C53.6279 18.8074 53.6196 18.8499 53.6032 18.8896C53.5869 18.9292 53.5628 18.9653 53.5325 18.9956C53.5021 19.026 53.4661 19.05 53.4264 19.0664C53.3868 19.0828 53.3442 19.0912 53.3013 19.0911ZM54.6536 40.081C54.6107 40.0811 54.5682 40.0727 54.5286 40.0563C54.4889 40.0399 54.4529 40.0159 54.4226 39.9856C54.3922 39.9552 54.3682 39.9192 54.3518 39.8795C54.3354 39.8399 54.3271 39.7974 54.3272 39.7545C54.327 39.7116 54.3354 39.669 54.3517 39.6294C54.3681 39.5897 54.3921 39.5536 54.4225 39.5233C54.4528 39.4929 54.4889 39.4689 54.5285 39.4525C54.5682 39.4361 54.6107 39.4278 54.6536 39.4279C54.6965 39.4278 54.739 39.4362 54.7787 39.4526C54.8184 39.4689 54.8544 39.493 54.8847 39.5234C54.9151 39.5537 54.9391 39.5897 54.9555 39.6294C54.9718 39.6691 54.9802 39.7116 54.9801 39.7545C54.9802 39.7974 54.9719 39.8399 54.9555 39.8796C54.9391 39.9192 54.9151 39.9553 54.8848 39.9856C54.8544 40.0159 54.8184 40.04 54.7787 40.0564C54.7391 40.0727 54.6965 40.0811 54.6536 40.081Z" fill="#404041"/>
<path d="M53.9706 32.1199C53.9252 32.1199 53.8816 32.1018 53.8494 32.0697C53.8173 32.0375 53.7992 31.9939 53.7992 31.9485V31.2353C53.8004 31.1906 53.819 31.1482 53.851 31.117C53.883 31.0858 53.9259 31.0684 53.9706 31.0684C54.0153 31.0684 54.0582 31.0858 54.0902 31.117C54.1223 31.1482 54.1408 31.1906 54.142 31.2353V31.9485C54.142 31.9939 54.1239 32.0375 54.0918 32.0697C54.0597 32.1018 54.0161 32.1199 53.9706 32.1199Z" fill="#404041"/>
<path d="M54.3272 31.7632H53.614C53.5693 31.762 53.5269 31.7435 53.4957 31.7114C53.4645 31.6794 53.4471 31.6365 53.4471 31.5918C53.4471 31.5471 53.4645 31.5042 53.4957 31.4722C53.5269 31.4402 53.5693 31.4216 53.614 31.4204H54.3272C54.3719 31.4216 54.4143 31.4402 54.4455 31.4722C54.4767 31.5042 54.4941 31.5471 54.4941 31.5918C54.4941 31.6365 54.4767 31.6794 54.4455 31.7114C54.4143 31.7435 54.3719 31.762 54.3272 31.7632Z" fill="#404041"/>
<path d="M55.3089 25.8005C55.2634 25.8005 55.2198 25.7825 55.1877 25.7503C55.1556 25.7182 55.1375 25.6746 55.1375 25.6291V24.9159C55.1387 24.8713 55.1572 24.8288 55.1893 24.7977C55.2213 24.7665 55.2642 24.749 55.3089 24.749C55.3536 24.749 55.3965 24.7665 55.4285 24.7977C55.4605 24.8288 55.4791 24.8713 55.4803 24.9159V25.6291C55.4803 25.6746 55.4622 25.7182 55.4301 25.7503C55.3979 25.7825 55.3543 25.8005 55.3089 25.8005Z" fill="#404041"/>
<path d="M55.6655 25.4439H54.9523C54.9076 25.4427 54.8652 25.4241 54.834 25.3921C54.8028 25.3601 54.7854 25.3172 54.7854 25.2725C54.7854 25.2278 54.8028 25.1849 54.834 25.1528C54.8652 25.1208 54.9076 25.1023 54.9523 25.1011H55.6655C55.7102 25.1023 55.7526 25.1208 55.7838 25.1528C55.815 25.1849 55.8324 25.2278 55.8324 25.2725C55.8324 25.3172 55.815 25.3601 55.7838 25.3921C55.7526 25.4241 55.7102 25.4427 55.6655 25.4439Z" fill="#404041"/>
<path d="M50.616 26.8704C50.5706 26.8704 50.527 26.8523 50.4948 26.8202C50.4627 26.788 50.4446 26.7444 50.4446 26.699V25.9858C50.4458 25.9411 50.4644 25.8987 50.4964 25.8675C50.5284 25.8363 50.5713 25.8188 50.616 25.8188C50.6607 25.8188 50.7036 25.8363 50.7357 25.8675C50.7677 25.8987 50.7862 25.9411 50.7874 25.9858V26.699C50.7874 26.7444 50.7693 26.788 50.7372 26.8201C50.7051 26.8523 50.6615 26.8703 50.616 26.8704Z" fill="#404041"/>
<path d="M50.9726 26.5137H50.2594C50.2148 26.5125 50.1723 26.4939 50.1411 26.4619C50.11 26.4299 50.0925 26.387 50.0925 26.3423C50.0925 26.2976 50.11 26.2547 50.1411 26.2227C50.1723 26.1907 50.2148 26.1721 50.2594 26.1709H50.9726C51.0173 26.1721 51.0598 26.1907 51.0909 26.2227C51.1221 26.2547 51.1396 26.2976 51.1396 26.3423C51.1396 26.387 51.1221 26.4299 51.0909 26.4619C51.0598 26.4939 51.0173 26.5125 50.9726 26.5137Z" fill="#404041"/>
<path d="M46.0824 47.0994C46.0369 47.0994 45.9934 47.0813 45.9612 47.0492C45.9291 47.017 45.911 46.9734 45.911 46.928V46.2148C45.9122 46.1701 45.9308 46.1277 45.9628 46.0965C45.9948 46.0653 46.0377 46.0479 46.0824 46.0479C46.1271 46.0479 46.17 46.0653 46.202 46.0965C46.234 46.1277 46.2526 46.1701 46.2538 46.2148V46.928C46.2538 46.9734 46.2357 47.017 46.2036 47.0491C46.1714 47.0813 46.1278 47.0993 46.0824 47.0994Z" fill="#404041"/>
<path d="M46.439 46.7427H45.7258C45.6811 46.7415 45.6387 46.7229 45.6075 46.6909C45.5763 46.6589 45.5589 46.616 45.5589 46.5713C45.5589 46.5266 45.5763 46.4837 45.6075 46.4517C45.6387 46.4197 45.6811 46.4011 45.7258 46.3999H46.439C46.4837 46.4011 46.5261 46.4197 46.5573 46.4517C46.5885 46.4837 46.6059 46.5266 46.6059 46.5713C46.6059 46.616 46.5885 46.6589 46.5573 46.6909C46.5261 46.7229 46.4837 46.7415 46.439 46.7427Z" fill="#404041"/>
<path d="M44.5406 41.9876C44.4951 41.9875 44.4515 41.9695 44.4194 41.9373C44.3873 41.9052 44.3692 41.8616 44.3692 41.8162V41.103C44.3704 41.0583 44.3889 41.0158 44.4209 40.9847C44.453 40.9535 44.4959 40.936 44.5406 40.936C44.5853 40.936 44.6282 40.9535 44.6602 40.9847C44.6922 41.0158 44.7108 41.0583 44.712 41.103V41.8162C44.712 41.8616 44.6939 41.9052 44.6618 41.9373C44.6296 41.9695 44.586 41.9875 44.5406 41.9876Z" fill="#404041"/>
<path d="M44.8972 41.6309H44.184C44.1393 41.6297 44.0968 41.6111 44.0657 41.5791C44.0345 41.5471 44.017 41.5042 44.017 41.4595C44.017 41.4148 44.0345 41.3719 44.0657 41.3399C44.0968 41.3078 44.1393 41.2893 44.184 41.2881H44.8972C44.9418 41.2893 44.9843 41.3078 45.0155 41.3399C45.0466 41.3719 45.0641 41.4148 45.0641 41.4595C45.0641 41.5042 45.0466 41.5471 45.0155 41.5791C44.9843 41.6111 44.9418 41.6297 44.8972 41.6309Z" fill="#404041"/>
<path d="M40.1178 43.5261C40.0724 43.5261 40.0288 43.5081 39.9966 43.4759C39.9645 43.4438 39.9464 43.4002 39.9464 43.3547V42.6415C39.9476 42.5969 39.9662 42.5544 39.9982 42.5232C40.0302 42.4921 40.0731 42.4746 40.1178 42.4746C40.1625 42.4746 40.2054 42.4921 40.2374 42.5232C40.2695 42.5544 40.288 42.5969 40.2892 42.6415V43.3547C40.2892 43.4002 40.2711 43.4438 40.239 43.4759C40.2069 43.5081 40.1633 43.5261 40.1178 43.5261Z" fill="#404041"/>
<path d="M40.4744 43.1695H39.7612C39.7165 43.1683 39.6741 43.1497 39.6429 43.1177C39.6117 43.0857 39.5943 43.0427 39.5943 42.9981C39.5943 42.9534 39.6117 42.9104 39.6429 42.8784C39.6741 42.8464 39.7165 42.8278 39.7612 42.8267H40.4744C40.5191 42.8278 40.5615 42.8464 40.5927 42.8784C40.6239 42.9104 40.6413 42.9534 40.6413 42.9981C40.6413 43.0427 40.6239 43.0857 40.5927 43.1177C40.5615 43.1497 40.5191 43.1683 40.4744 43.1695Z" fill="#404041"/>
<path d="M21.1278 46.2307C21.0823 46.2307 21.0387 46.2126 21.0066 46.1805C20.9745 46.1484 20.9564 46.1048 20.9564 46.0593V45.3461C20.9576 45.3015 20.9761 45.259 21.0081 45.2278C21.0402 45.1966 21.0831 45.1792 21.1278 45.1792C21.1725 45.1792 21.2154 45.1966 21.2474 45.2278C21.2794 45.259 21.298 45.3015 21.2992 45.3461V46.0593C21.2992 46.1048 21.2811 46.1484 21.249 46.1805C21.2168 46.2126 21.1732 46.2307 21.1278 46.2307Z" fill="#404041"/>
<path d="M21.4844 45.8736H20.7712C20.7265 45.8724 20.6841 45.8538 20.6529 45.8218C20.6217 45.7898 20.6042 45.7469 20.6042 45.7022C20.6042 45.6575 20.6217 45.6145 20.6529 45.5825C20.6841 45.5505 20.7265 45.5319 20.7712 45.5308H21.4844C21.529 45.5319 21.5715 45.5505 21.6027 45.5825C21.6339 45.6145 21.6513 45.6575 21.6513 45.7022C21.6513 45.7469 21.6339 45.7898 21.6027 45.8218C21.5715 45.8538 21.529 45.8724 21.4844 45.8736Z" fill="#404041"/>
<path d="M20.5879 14.2932C20.5425 14.2932 20.4989 14.2751 20.4668 14.243C20.4346 14.2109 20.4166 14.1673 20.4165 14.1218V13.4086C20.4177 13.364 20.4363 13.3215 20.4683 13.2903C20.5003 13.2591 20.5433 13.2417 20.5879 13.2417C20.6326 13.2417 20.6756 13.2591 20.7076 13.2903C20.7396 13.3215 20.7582 13.364 20.7594 13.4086V14.1218C20.7593 14.1673 20.7413 14.2109 20.7091 14.243C20.677 14.2751 20.6334 14.2932 20.5879 14.2932Z" fill="#404041"/>
<path d="M20.9446 13.9366H20.2313C20.1867 13.9354 20.1442 13.9168 20.113 13.8848C20.0819 13.8528 20.0644 13.8098 20.0644 13.7652C20.0644 13.7205 20.0819 13.6775 20.113 13.6455C20.1442 13.6135 20.1867 13.5949 20.2313 13.5938H20.9446C20.9892 13.5949 21.0317 13.6135 21.0628 13.6455C21.094 13.6775 21.1115 13.7205 21.1115 13.7652C21.1115 13.8098 21.094 13.8528 21.0628 13.8848C21.0317 13.9168 20.9892 13.9354 20.9446 13.9366Z" fill="#404041"/>
<path d="M37.8997 14.2932C37.8543 14.2932 37.8107 14.2751 37.7786 14.243C37.7464 14.2109 37.7283 14.1673 37.7283 14.1218V13.4086C37.7295 13.364 37.7481 13.3215 37.7801 13.2903C37.8121 13.2591 37.855 13.2417 37.8997 13.2417C37.9444 13.2417 37.9873 13.2591 38.0194 13.2903C38.0514 13.3215 38.07 13.364 38.0711 13.4086V14.1218C38.0711 14.1673 38.053 14.2109 38.0209 14.243C37.9888 14.2751 37.9452 14.2932 37.8997 14.2932Z" fill="#404041"/>
<path d="M38.2563 13.9366H37.5431C37.4985 13.9354 37.456 13.9168 37.4248 13.8848C37.3937 13.8528 37.3762 13.8098 37.3762 13.7652C37.3762 13.7205 37.3937 13.6775 37.4248 13.6455C37.456 13.6135 37.4985 13.5949 37.5431 13.5938H38.2563C38.301 13.5949 38.3435 13.6135 38.3746 13.6455C38.4058 13.6775 38.4233 13.7205 38.4233 13.7652C38.4233 13.8098 38.4058 13.8528 38.3746 13.8848C38.3435 13.9168 38.301 13.9354 38.2563 13.9366Z" fill="#404041"/>
<path d="M52.0313 37.1624C51.9859 37.1624 51.9423 37.1443 51.9102 37.1121C51.878 37.08 51.8599 37.0364 51.8599 36.991V36.2778C51.8611 36.2331 51.8797 36.1906 51.9117 36.1595C51.9437 36.1283 51.9866 36.1108 52.0313 36.1108C52.076 36.1108 52.1189 36.1283 52.151 36.1595C52.183 36.1906 52.2016 36.2331 52.2027 36.2778V36.991C52.2027 37.0364 52.1847 37.08 52.1525 37.1121C52.1204 37.1443 52.0768 37.1624 52.0313 37.1624Z" fill="#404041"/>
<path d="M52.3879 36.8057H51.6747C51.6301 36.8045 51.5876 36.7859 51.5564 36.7539C51.5253 36.7219 51.5078 36.679 51.5078 36.6343C51.5078 36.5896 51.5253 36.5467 51.5564 36.5147C51.5876 36.4826 51.6301 36.4641 51.6747 36.4629H52.3879C52.4326 36.4641 52.4751 36.4826 52.5062 36.5147C52.5374 36.5467 52.5549 36.5896 52.5549 36.6343C52.5549 36.679 52.5374 36.7219 52.5062 36.7539C52.4751 36.7859 52.4326 36.8045 52.3879 36.8057Z" fill="#404041"/>
<path d="M48.5355 16.4353C48.49 16.4353 48.4464 16.4172 48.4143 16.3851C48.3821 16.353 48.3641 16.3094 48.3641 16.2639V15.5507C48.3652 15.506 48.3838 15.4636 48.4158 15.4324C48.4478 15.4012 48.4908 15.3838 48.5355 15.3838C48.5801 15.3838 48.6231 15.4012 48.6551 15.4324C48.6871 15.4636 48.7057 15.506 48.7069 15.5507V16.2639C48.7068 16.3094 48.6888 16.353 48.6566 16.3851C48.6245 16.4172 48.5809 16.4353 48.5355 16.4353Z" fill="#404041"/>
<path d="M48.8921 16.0791H48.1789C48.1342 16.0779 48.0917 16.0594 48.0606 16.0274C48.0294 15.9953 48.0119 15.9524 48.0119 15.9077C48.0119 15.863 48.0294 15.8201 48.0606 15.7881C48.0917 15.7561 48.1342 15.7375 48.1789 15.7363H48.8921C48.9367 15.7375 48.9792 15.7561 49.0104 15.7881C49.0415 15.8201 49.059 15.863 49.059 15.9077C49.059 15.9524 49.0415 15.9953 49.0104 16.0274C48.9792 16.0594 48.9367 16.0779 48.8921 16.0791Z" fill="#404041"/>
<path d="M42.7853 16.2342C42.8282 16.2342 42.8707 16.2258 42.9103 16.2095C42.95 16.1931 42.986 16.169 43.0163 16.1387C43.0467 16.1083 43.0707 16.0723 43.0871 16.0326C43.1035 15.993 43.1119 15.9505 43.1118 15.9076C43.1119 15.8647 43.1035 15.8222 43.0871 15.7825C43.0708 15.7428 43.0467 15.7068 43.0164 15.6765C42.9861 15.6461 42.95 15.6221 42.9104 15.6057C42.8707 15.5893 42.8282 15.581 42.7853 15.5811C42.7424 15.581 42.6999 15.5894 42.6602 15.6057C42.6206 15.6221 42.5845 15.6461 42.5542 15.6765C42.5239 15.7068 42.4998 15.7429 42.4834 15.7825C42.4671 15.8222 42.4587 15.8647 42.4588 15.9076C42.4587 15.9505 42.467 15.993 42.4834 16.0327C42.4997 16.0724 42.5238 16.1084 42.5541 16.1388C42.5845 16.1691 42.6205 16.1932 42.6602 16.2096C42.6999 16.2259 42.7424 16.2343 42.7853 16.2342ZM52.0313 13.3787C52.0742 13.3787 52.1167 13.3703 52.1564 13.354C52.196 13.3376 52.2321 13.3135 52.2624 13.2832C52.2927 13.2528 52.3168 13.2168 52.3331 13.1771C52.3495 13.1375 52.3579 13.095 52.3578 13.0521C52.3579 13.0092 52.3496 12.9667 52.3332 12.927C52.3168 12.8873 52.2928 12.8513 52.2624 12.821C52.2321 12.7906 52.1961 12.7666 52.1564 12.7502C52.1167 12.7338 52.0742 12.7255 52.0313 12.7256C51.9884 12.7255 51.9459 12.7339 51.9063 12.7502C51.8666 12.7666 51.8306 12.7906 51.8002 12.821C51.7699 12.8513 51.7459 12.8874 51.7295 12.927C51.7131 12.9667 51.7047 13.0092 51.7048 13.0521C51.7047 13.095 51.7131 13.1375 51.7294 13.1772C51.7458 13.2169 51.7698 13.2529 51.8002 13.2833C51.8305 13.3136 51.8666 13.3377 51.9062 13.3541C51.9459 13.3704 51.9884 13.3788 52.0313 13.3787ZM46.439 20.6623C46.4819 20.6623 46.5244 20.6539 46.564 20.6376C46.6037 20.6212 46.6397 20.5971 46.6701 20.5668C46.7004 20.5364 46.7244 20.5004 46.7408 20.4607C46.7572 20.4211 46.7656 20.3786 46.7655 20.3357C46.7656 20.2928 46.7572 20.2503 46.7409 20.2106C46.7245 20.1709 46.7004 20.1349 46.6701 20.1046C46.6398 20.0742 46.6037 20.0502 46.5641 20.0338C46.5244 20.0174 46.4819 20.0091 46.439 20.0092C46.3961 20.0091 46.3536 20.0175 46.3139 20.0338C46.2743 20.0502 46.2382 20.0742 46.2079 20.1046C46.1776 20.1349 46.1535 20.171 46.1372 20.2106C46.1208 20.2503 46.1124 20.2928 46.1125 20.3357C46.1124 20.3786 46.1207 20.4211 46.1371 20.4608C46.1534 20.5005 46.1775 20.5365 46.2078 20.5669C46.2382 20.5972 46.2742 20.6213 46.3139 20.6377C46.3536 20.654 46.3961 20.6624 46.439 20.6623Z" fill="#404041"/>
<path d="M36.7 43.1627C36.7 43.54 36.3913 43.8487 36.014 43.8487H24.4965C24.1192 43.8487 23.8104 43.54 23.8104 43.1627V35.2446C23.8104 34.8673 24.1192 34.5586 24.4965 34.5586H36.014C36.3913 34.5586 36.7 34.8673 36.7 35.2446V43.1627Z" fill="#F2C928"/>
<path d="M36.014 34.25H24.4965C23.9481 34.25 23.5019 34.6961 23.5019 35.2446V43.1626C23.5019 43.711 23.9481 44.1572 24.4965 44.1572H24.6707V43.5401H24.4965C24.3964 43.54 24.3004 43.5002 24.2296 43.4295C24.1589 43.3587 24.1191 43.2627 24.1189 43.1627V35.2445C24.1191 35.1444 24.1589 35.0485 24.2296 34.9777C24.3004 34.9069 24.3964 34.8671 24.4965 34.867H36.014C36.1141 34.8671 36.21 34.9069 36.2808 34.9777C36.3516 35.0485 36.3914 35.1444 36.3914 35.2445V43.1625C36.3914 43.2626 36.3516 43.3586 36.2808 43.4294C36.21 43.5001 36.1141 43.5399 36.014 43.54H27.8213V44.157H36.014C36.5624 44.157 37.0085 43.7109 37.0085 43.1625V35.2445C37.0085 34.6961 36.5624 34.25 36.014 34.25Z" fill="#404041"/>
<path d="M40.5939 36.2121C41.6371 36.1785 42.1419 35.1353 42.5793 34.1594L42.6802 33.9911C42.7139 33.9575 42.7476 33.9575 42.7476 33.9575C42.7476 33.9575 42.8149 33.9575 42.8149 33.9911C42.8485 34.0584 42.8822 34.092 42.8822 34.1257C43.2525 34.866 43.5216 35.3708 44.7667 35.4044C44.9013 35.4044 45.1032 35.3708 45.2715 35.1353C46.1128 33.9911 45.8099 29.2463 44.1273 24.1987C43.9591 23.6939 43.2861 23.2564 42.0747 22.8526V19.5548C42.0747 18.848 41.7044 18.5452 41.3679 18.276H41.3343C41.3007 18.2423 36.6231 14.709 30.2631 14.709C23.903 14.709 19.2254 18.2423 19.1918 18.276L19.1581 18.3097C18.8216 18.5789 18.4515 18.8817 18.4515 19.5884V22.8862C17.2737 23.2901 16.567 23.7612 16.3988 24.2323C14.7162 29.2799 14.3797 34.0248 15.1873 35.1015C15.3556 35.3371 15.5575 35.3708 15.6921 35.3708C16.9372 35.3708 17.2064 34.8323 17.5765 34.1257C17.6101 34.092 17.6101 34.0248 17.6438 33.9911C17.6774 33.9575 17.7112 33.9575 17.7112 33.9575C17.7448 33.9575 17.7785 33.9575 17.7785 33.9911L17.8795 34.1594C18.3506 35.169 18.8217 36.2121 19.8649 36.2121M36.7576 39.3753C35.0078 40.3175 32.8205 40.7887 30.263 40.7887C27.7055 40.7887 25.5181 40.3175 23.7683 39.3753C22.254 38.5677 21.0426 37.3899 20.134 35.8756C18.8889 33.7555 18.2159 30.9962 18.1486 27.6311C18.2495 27.732 18.3505 27.8329 18.4514 27.9676C18.7207 28.2705 18.9562 28.5397 19.2927 28.5397C19.8311 28.5397 20.1676 27.9676 20.5042 27.4291C20.807 26.958 21.1099 26.4532 21.4464 26.4532C21.8839 26.4532 22.2877 27.0254 22.7252 27.5637C23.1626 28.1358 23.6001 28.7079 24.1048 28.7079C24.5759 28.7079 25.0471 28.2368 25.5519 27.6647C26.0903 27.0927 26.6624 26.4532 27.2681 26.4532C27.8738 26.4532 28.4122 27.0926 28.8833 27.6647C29.3545 28.2368 29.7583 28.7079 30.2631 28.7079C30.7679 28.7079 31.138 28.2368 31.6427 27.6647C32.1139 27.0927 32.686 26.4532 33.258 26.4532C33.83 26.4532 34.4358 27.0926 34.9742 27.6647C35.479 28.2368 35.9501 28.7079 36.4212 28.7079C36.926 28.7079 37.3635 28.1695 37.8009 27.5637C38.2047 27.0254 38.6422 26.4532 39.0797 26.4532C39.4498 26.4532 39.7527 26.958 40.0219 27.4291C40.3584 27.9676 40.6949 28.5397 41.2334 28.5397C41.6035 28.5397 41.8391 28.2705 42.0747 27.9676C42.1756 27.8666 42.2765 27.732 42.3775 27.6311C42.3439 30.9961 41.6708 33.7555 40.3921 35.8756C39.4834 37.3899 38.2719 38.5676 36.7576 39.3753Z" fill="#F26E3F"/>
<path d="M21.58 26.5142C21.58 26.5142 20.7264 26.833 20.6115 27.2962C20.4966 27.7593 19.7812 28.4023 19.7812 28.4023H18.6455L18.1493 27.8982V28.0107C18.1493 28.0107 18.516 35.2199 21.4489 37.6601C24.3818 40.1004 27.1929 40.6696 29.5239 40.8307C31.8549 40.9917 34.7563 40.2337 34.7563 40.2337C34.7563 40.2337 36.2932 39.6515 36.4163 39.5899C36.5394 39.5284 38.9963 37.7346 39.0402 37.6886C39.0841 37.6426 41.2821 34.0802 41.2821 34.0802C41.2821 34.0802 42.2681 29.7629 42.295 29.3988C42.3218 29.0345 42.3696 27.8728 42.3696 27.8728L41.7347 28.38L41.15 28.577L40.918 28.5129C40.918 28.5129 40.4859 28.1587 40.461 28.1281C40.4362 28.0975 40.1051 27.2109 40.1051 27.2109L39.4195 26.5142L38.7815 26.5745C38.7815 26.5745 38.2543 27.0266 38.2103 27.0785C38.1662 27.1304 37.7421 27.6829 37.6602 27.7908C37.5782 27.8987 36.7744 28.6605 36.7744 28.6605L36.219 28.7231L35.7876 28.5048L34.1953 26.9452L33.2263 26.6624L32.2701 27.0103L31.3522 28.0312C31.3522 28.0312 30.6697 28.6484 30.5902 28.6786C30.5106 28.7088 29.7419 28.5824 29.7419 28.5824L28.5851 27.3581L27.6115 26.5638L26.6563 26.6897L25.2852 27.9953L24.4652 28.6619C24.4652 28.6619 23.8975 28.7235 23.8404 28.6999C23.7834 28.6763 22.975 27.9339 22.975 27.9339L22.2416 27.021L21.58 26.5142Z" fill="#F2C928"/>
<path d="M24.6703 29.5977C23.5405 29.5977 22.655 30.5138 22.655 31.613C22.655 32.7428 23.5711 33.6284 24.6703 33.6284C25.8001 33.6284 26.6857 32.7124 26.6857 31.613C26.7161 30.5138 25.8001 29.5977 24.6703 29.5977ZM35.846 29.5977C34.7163 29.5977 33.8307 30.5138 33.8307 31.613C33.8307 32.7428 34.7468 33.6284 35.846 33.6284C36.9758 33.6284 37.8614 32.7124 37.8614 31.613C37.8614 30.5138 36.9453 29.5977 35.846 29.5977ZM33.3541 35.4843C33.2868 35.4505 33.2195 35.4505 33.1522 35.4843L33.0176 35.5851C32.21 36.1573 31.7725 36.4937 30.2919 36.4937C28.7776 36.4937 28.34 36.1573 27.5661 35.5851L27.4315 35.4843C27.3641 35.4505 27.2969 35.4505 27.2296 35.4843C27.1623 35.5179 27.1287 35.5851 27.1287 35.6525C27.1287 37.1667 28.5419 38.3782 30.3255 38.3782C32.0753 38.3782 33.5223 37.1668 33.5223 35.6525C33.4663 35.5964 33.4102 35.5403 33.3541 35.4843ZM28.2012 15.1808C28.1252 15.1807 28.0518 15.1525 27.9953 15.1017C27.9387 15.0508 27.9029 14.9808 27.8948 14.9052C27.8905 14.8649 27.8941 14.8241 27.9055 14.7853C27.9169 14.7464 27.9359 14.7101 27.9613 14.6786C27.9868 14.647 28.0182 14.6208 28.0538 14.6014C28.0894 14.582 28.1284 14.5698 28.1687 14.5656C28.1687 14.5656 28.7173 14.5066 29.2645 14.4555C29.4325 14.441 29.5845 14.5642 29.6003 14.734C29.6079 14.8155 29.5828 14.8966 29.5306 14.9596C29.4783 15.0226 29.4032 15.0622 29.3218 15.0699C28.7793 15.1205 28.2352 15.1789 28.2346 15.1789C28.2235 15.1802 28.2124 15.1808 28.2012 15.1808ZM32.1474 15.157C32.0322 15.157 31.7751 15.1257 31.0313 15.0298C30.9501 15.0193 30.8765 14.977 30.8265 14.9122C30.7765 14.8474 30.7543 14.7654 30.7648 14.6843C30.7866 14.5153 30.9415 14.3985 31.1103 14.4176C31.5467 14.4741 32.038 14.5338 32.1368 14.5405C32.2007 14.5383 32.2637 14.5559 32.317 14.591C32.3704 14.6262 32.4115 14.677 32.4348 14.7365C32.4646 14.8127 32.463 14.8977 32.4302 14.9727C32.3974 15.0476 32.3362 15.1065 32.26 15.1364C32.2287 15.1487 32.207 15.157 32.1474 15.157Z" fill="#404041"/>
<path d="M29.8381 14.6823C29.8381 14.7664 29.8715 14.847 29.931 14.9065C29.9905 14.966 30.0711 14.9994 30.1552 14.9994C30.2393 14.9994 30.3199 14.966 30.3794 14.9065C30.4389 14.847 30.4723 14.7664 30.4723 14.6823C30.4723 14.5982 30.4389 14.5176 30.3794 14.4581C30.3199 14.3986 30.2393 14.3652 30.1552 14.3652C30.0711 14.3652 29.9905 14.3986 29.931 14.4581C29.8715 14.5176 29.8381 14.5982 29.8381 14.6823Z" fill="#404041"/>
<path d="M18.7552 20.0559V19.6308C18.7552 19.0657 19.029 18.8466 19.346 18.5929C19.3549 18.5858 19.3633 18.5783 19.3714 18.5703L19.392 18.5496C19.5963 18.3963 23.3743 15.6398 28.6325 15.1382V14.5192C25.9886 14.7642 23.7404 15.5571 22.2234 16.241C20.2683 17.1225 19.0381 18.0308 18.9689 18.1001L18.9473 18.1217C18.6015 18.3985 18.1381 18.78 18.1381 19.6307V20.0558H18.7552V20.0559ZM41.2368 18.6126C41.5247 18.8456 41.7613 19.0719 41.7613 19.5971V20.0558H42.3783V19.5971C42.3783 18.7354 41.9029 18.3551 41.5558 18.0774C41.5241 18.052 41.4876 18.0331 41.4485 18.0218C41.1127 17.7723 39.9682 16.9962 38.2931 16.2409C36.7662 15.5525 34.4985 14.7534 31.8321 14.5142V15.1335C37.1957 15.6293 41.033 18.4794 41.1313 18.5547C41.1623 18.5808 41.1981 18.6005 41.2368 18.6126Z" fill="#404041"/>
<path d="M18.4454 20.644C18.3636 20.644 18.2851 20.6115 18.2273 20.5536C18.1694 20.4957 18.1369 20.4173 18.1369 20.3354V19.9125C18.1369 19.8307 18.1694 19.7523 18.2273 19.6944C18.2851 19.6365 18.3636 19.604 18.4454 19.604H20.588C20.6687 19.6056 20.7457 19.6388 20.8022 19.6965C20.8588 19.7542 20.8905 19.8318 20.8905 19.9125C20.8905 19.9933 20.8588 20.0709 20.8022 20.1286C20.7457 20.1863 20.6687 20.2195 20.588 20.2211H18.754V20.3354C18.7539 20.4173 18.7214 20.4957 18.6636 20.5536C18.6057 20.6114 18.5272 20.644 18.4454 20.644ZM27.3271 20.2211H25.1845C25.1037 20.2195 25.0268 20.1863 24.9702 20.1286C24.9137 20.0709 24.882 19.9933 24.882 19.9125C24.882 19.8318 24.9137 19.7542 24.9702 19.6965C25.0268 19.6388 25.1037 19.6056 25.1845 19.604H27.3271C27.4078 19.6056 27.4848 19.6388 27.5413 19.6965C27.5979 19.7542 27.6296 19.8318 27.6296 19.9125C27.6296 19.9933 27.5979 20.0709 27.5413 20.1286C27.4848 20.1863 27.4078 20.2195 27.3271 20.2211ZM18.4454 22.5784C18.3636 22.5784 18.2851 22.5459 18.2273 22.488C18.1694 22.4302 18.1369 22.3517 18.1369 22.2699V21.8473C18.1385 21.7665 18.1717 21.6896 18.2294 21.633C18.2871 21.5764 18.3646 21.5448 18.4454 21.5448C18.5262 21.5448 18.6038 21.5764 18.6615 21.633C18.7192 21.6896 18.7524 21.7665 18.754 21.8473V22.2699C18.7539 22.3517 18.7214 22.4302 18.6636 22.488C18.6057 22.5459 18.5272 22.5784 18.4454 22.5784Z" fill="#404041"/>
<path d="M18.1541 21.1239C18.1541 21.2012 18.1848 21.2753 18.2394 21.3299C18.2941 21.3846 18.3682 21.4153 18.4455 21.4153C18.5228 21.4153 18.5969 21.3846 18.6515 21.3299C18.7062 21.2753 18.7369 21.2012 18.7369 21.1239C18.7369 21.0466 18.7062 20.9725 18.6515 20.9179C18.5969 20.8632 18.5228 20.8325 18.4455 20.8325C18.3682 20.8325 18.2941 20.8632 18.2394 20.9179C18.1848 20.9725 18.1541 21.0466 18.1541 21.1239Z" fill="#404041"/>
<path d="M42.0783 20.6443C41.9964 20.6443 41.918 20.6118 41.8601 20.5539C41.8022 20.4961 41.7697 20.4176 41.7697 20.3358V19.9129C41.7713 19.8321 41.8045 19.7552 41.8622 19.6986C41.9199 19.642 41.9975 19.6104 42.0783 19.6104C42.1591 19.6104 42.2366 19.642 42.2943 19.6986C42.352 19.7552 42.3852 19.8321 42.3868 19.9129V20.3358C42.3868 20.4176 42.3543 20.496 42.2964 20.5539C42.2386 20.6118 42.1601 20.6443 42.0783 20.6443ZM42.0783 22.5787C41.9964 22.5787 41.918 22.5462 41.8601 22.4883C41.8022 22.4305 41.7697 22.352 41.7697 22.2702V21.8476C41.7713 21.7668 41.8045 21.6899 41.8622 21.6333C41.9199 21.5768 41.9975 21.5451 42.0783 21.5451C42.1591 21.5451 42.2366 21.5768 42.2943 21.6333C42.352 21.6899 42.3852 21.7668 42.3868 21.8476V22.2702C42.3868 22.352 42.3543 22.4305 42.2964 22.4883C42.2386 22.5462 42.1601 22.5787 42.0783 22.5787Z" fill="#404041"/>
<path d="M41.7869 21.1239C41.7869 21.2012 41.8176 21.2753 41.8723 21.3299C41.9269 21.3846 42.001 21.4153 42.0783 21.4153C42.1556 21.4153 42.2297 21.3846 42.2844 21.3299C42.339 21.2753 42.3697 21.2012 42.3697 21.1239C42.3697 21.0466 42.339 20.9725 42.2844 20.9179C42.2297 20.8632 42.1556 20.8325 42.0783 20.8325C42.001 20.8325 41.9269 20.8632 41.8723 20.9179C41.8176 20.9725 41.7869 21.0466 41.7869 21.1239Z" fill="#404041"/>
<path d="M44.4152 24.1433C44.2236 23.5685 43.5742 23.0992 42.3784 22.6747V21.9069H41.7613V22.8949C41.7613 22.9596 41.7817 23.0228 41.8196 23.0753C41.8574 23.1278 41.9109 23.1671 41.9723 23.1876C43.3428 23.6444 43.7389 24.0657 43.8298 24.3385C44.6063 26.6677 45.1404 29.105 45.3338 31.2014C45.5039 33.0451 45.3829 34.4986 45.0157 34.9983C44.9291 35.1194 44.8444 35.1378 44.7655 35.1383C43.7111 35.1088 43.5078 34.7383 43.1713 34.0661C43.1549 34.0094 43.128 33.9659 43.1094 33.9357C43.1059 33.9301 43.1021 33.9241 43.0982 33.9175C43.0482 33.7829 42.9119 33.6913 42.7428 33.6913C42.6943 33.6913 42.5696 33.7033 42.4576 33.815C42.4397 33.8329 42.424 33.853 42.4109 33.8747L42.31 34.043C42.3037 34.0535 42.298 34.0643 42.293 34.0755C41.8715 35.016 41.4595 35.8072 40.7387 35.9301C41.9945 33.7737 42.648 30.9979 42.6813 27.6764C42.6818 27.6152 42.6641 27.5551 42.6305 27.5039C42.5968 27.4528 42.5487 27.4128 42.4922 27.389C42.4357 27.3653 42.3734 27.3589 42.3133 27.3707C42.2532 27.3824 42.1979 27.4118 42.1546 27.4551C42.0957 27.514 42.0404 27.5785 41.987 27.6408C41.9391 27.6967 41.8938 27.7495 41.8518 27.7916C41.8428 27.8006 41.8343 27.8102 41.8264 27.8203C41.5927 28.1208 41.4361 28.2733 41.2286 28.2733C40.8809 28.2733 40.5935 27.8125 40.3155 27.3667L40.282 27.313C39.9946 26.8099 39.6367 26.1868 39.0749 26.1868C38.4749 26.1868 37.9832 26.8424 37.546 27.4252C37.1909 27.9169 36.7815 28.4415 36.4164 28.4415C36.0591 28.4415 35.6016 27.9569 35.2007 27.5027L35.1941 27.4954C34.6168 26.882 33.9626 26.1868 33.2532 26.1868C32.5504 26.1868 31.9297 26.8675 31.4028 27.5069L31.2906 27.6347C30.8958 28.0854 30.5839 28.4414 30.2583 28.4414C29.9102 28.4414 29.5656 28.0556 29.1167 27.5106C28.631 26.9208 28.0265 26.1867 27.2633 26.1867C26.551 26.1867 25.963 26.813 25.3943 27.4187L25.3224 27.4953C25.3201 27.4977 25.3179 27.5001 25.3157 27.5026C24.9149 27.9568 24.4573 28.4414 24.1 28.4414C23.7478 28.4414 23.3322 27.898 22.9654 27.4184L22.9598 27.4112C22.9122 27.3527 22.8651 27.2937 22.8182 27.2352C22.3868 26.6961 21.9793 26.1868 21.4417 26.1868C20.9555 26.1868 20.6178 26.7142 20.2913 27.2242L20.2011 27.3666C19.9231 27.8123 19.6357 28.2732 19.2879 28.2732C19.103 28.2732 18.9387 28.0989 18.6859 27.8145L18.6855 27.814C18.5741 27.6671 18.4662 27.5593 18.3619 27.455C18.3184 27.4115 18.2628 27.382 18.2024 27.3703C18.142 27.3587 18.0795 27.3653 18.0229 27.3894C17.9663 27.4135 17.9182 27.454 17.8847 27.5057C17.8513 27.5574 17.8341 27.6178 17.8353 27.6794C17.9018 31.0054 18.5581 33.784 19.7878 35.9435C19.0612 35.8996 18.6742 35.1861 18.1748 34.1154L18.1541 34.071C18.1496 34.0614 18.1446 34.0519 18.1391 34.0428L18.0559 33.9041C18.0133 33.7987 17.9124 33.6911 17.7063 33.6911C17.6578 33.6911 17.5327 33.7032 17.4206 33.8153C17.3553 33.8807 17.3288 33.9547 17.3145 33.9975C17.3087 34.0063 17.3033 34.0154 17.2983 34.0248L17.287 34.0464C16.9297 34.7286 16.7329 35.1045 15.6872 35.1045C15.6074 35.1045 15.5214 35.0875 15.4335 34.9644L15.4293 34.9586C14.7725 34.083 14.9332 29.632 16.6844 24.3782C16.748 24.2002 17.0566 23.7311 18.5466 23.2202C18.6075 23.1993 18.6603 23.16 18.6976 23.1076C18.735 23.0553 18.7551 22.9926 18.7551 22.9283V21.9067H18.1381V22.7103C16.9825 23.1335 16.2983 23.6246 16.1012 24.1769C14.5129 28.9415 13.9787 34.0445 14.9335 35.3259C15.0638 35.5071 15.2998 35.7216 15.6873 35.7216C16.9469 35.7216 17.3668 35.19 17.7068 34.5711C18.1646 35.5428 18.7126 36.5628 19.86 36.5628C19.9057 36.5628 19.9509 36.5527 19.9922 36.5331C20.0335 36.5135 20.07 36.485 20.0989 36.4495C21.0133 37.8421 22.1955 38.9309 23.6173 39.6891C25.0745 40.4737 26.8291 40.9428 28.847 41.0893V40.4705C26.9357 40.3268 25.2792 39.8832 23.9088 39.1453C22.4614 38.3733 21.2788 37.2341 20.3953 35.7615C19.2768 33.8572 18.6345 31.4178 18.4822 28.5016C18.703 28.7187 18.9522 28.8904 19.2879 28.8904C19.978 28.8904 20.3746 28.2544 20.7246 27.6932L20.811 27.557C20.9794 27.2938 21.2931 26.8039 21.4416 26.8039C21.6827 26.8039 22.03 27.2379 22.3363 27.6208C22.3832 27.6794 22.4303 27.7383 22.4779 27.7968C22.9527 28.4177 23.4441 29.0587 24.1 29.0587C24.7136 29.0587 25.2427 28.5179 25.7752 27.9146L25.8441 27.8413C26.3007 27.355 26.8181 26.8039 27.2633 26.8039C27.7352 26.8039 28.2584 27.4392 28.6404 27.903C29.1083 28.4711 29.592 29.0586 30.2582 29.0586C30.8637 29.0586 31.2766 28.5872 31.7547 28.0414L31.8692 27.911C31.8716 27.9083 31.8738 27.9057 31.8761 27.903C32.1698 27.5463 32.7813 26.8039 33.2532 26.8039C33.6948 26.8039 34.2746 27.4189 34.7413 27.9148C35.2739 28.518 35.8029 29.0586 36.4164 29.0586C37.0732 29.0586 37.5622 28.4569 38.0429 27.791C38.3378 27.3979 38.7834 26.8039 39.0749 26.8039C39.2804 26.8039 39.6089 27.3788 39.7492 27.6243C39.7512 27.6279 39.7533 27.6314 39.7555 27.6348L39.7919 27.6932C40.1418 28.2543 40.5384 28.8904 41.2286 28.8904C41.583 28.8904 41.8436 28.7159 42.0414 28.5181C41.9127 31.4265 41.2687 33.8592 40.1228 35.7591C39.2377 37.2341 38.0551 38.3735 36.6078 39.1453L36.6066 39.1459C35.2015 39.9025 33.494 40.3492 31.5194 40.4805V41.0986C33.6001 40.9646 35.4062 40.4931 36.8992 39.6893C38.3076 38.9379 39.4804 37.863 40.3907 36.4906C40.4491 36.5391 40.5232 36.5647 40.5991 36.5628C41.76 36.5254 42.3349 35.4687 42.7419 34.5808C43.0697 35.1957 43.4915 35.7211 44.7536 35.7552L44.7619 35.7553C45.1514 35.7553 45.3879 35.5387 45.5153 35.3604C46.5165 33.9986 46.0229 28.9666 44.4152 24.1433Z" fill="#404041"/>
<path d="M28.5755 40.7612C28.6097 40.7726 28.7687 40.7717 29.1463 40.8012Z" fill="#F2C928"/>
<path d="M29.1465 41.11C29.1384 41.11 29.1303 41.1097 29.1222 41.1092C28.9377 41.0947 28.8064 41.0878 28.7169 41.083C28.5848 41.0757 28.5352 41.0731 28.4792 41.0548C28.4015 41.0293 28.3371 40.9739 28.3001 40.9009C28.2632 40.8279 28.2568 40.7432 28.2823 40.6654C28.3062 40.5928 28.3562 40.5317 28.4226 40.4938C28.489 40.4559 28.567 40.4439 28.6417 40.4602C28.6639 40.4624 28.699 40.4639 28.7499 40.4666C28.8428 40.4714 28.979 40.4789 29.1702 40.4937C29.2117 40.4936 29.2529 40.5019 29.2912 40.5182C29.3295 40.5344 29.3641 40.5582 29.3929 40.5881C29.4218 40.618 29.4443 40.6535 29.4591 40.6923C29.474 40.7312 29.4808 40.7726 29.4792 40.8142C29.4776 40.8557 29.4676 40.8965 29.4498 40.9341C29.4321 40.9717 29.4069 41.0053 29.3758 41.0329C29.3448 41.0606 29.3084 41.0816 29.269 41.0949C29.2296 41.1081 29.1879 41.1132 29.1465 41.11Z" fill="#404041"/>
<path d="M31.7407 40.7754L31.1351 40.8274Z" fill="#F2C928"/>
<path d="M31.1347 41.1357C31.0552 41.1355 30.9788 41.1047 30.9215 41.0497C30.8641 40.9946 30.8302 40.9195 30.8269 40.8401C30.8235 40.7607 30.851 40.6831 30.9035 40.6234C30.956 40.5637 31.0295 40.5265 31.1087 40.5197L31.7144 40.4678C31.8836 40.4511 32.0336 40.5789 32.0482 40.749C32.0551 40.8305 32.0294 40.9114 31.9767 40.9739C31.924 41.0365 31.8487 41.0756 31.7672 41.0826L31.1615 41.1346C31.1525 41.1354 31.1435 41.1357 31.1347 41.1357Z" fill="#404041"/>
<path d="M29.7896 40.8839C29.7896 40.9316 29.799 40.9788 29.8172 41.0228C29.8354 41.0668 29.8621 41.1068 29.8958 41.1405C29.9295 41.1742 29.9695 41.201 30.0135 41.2192C30.0575 41.2375 30.1047 41.2468 30.1524 41.2468C30.2 41.2468 30.2472 41.2375 30.2912 41.2192C30.3353 41.201 30.3753 41.1742 30.409 41.1405C30.4426 41.1068 30.4694 41.0668 30.4876 41.0228C30.5058 40.9788 30.5152 40.9316 30.5152 40.8839C30.5152 40.8363 30.5058 40.7891 30.4876 40.745C30.4694 40.701 30.4426 40.661 30.409 40.6273C30.3753 40.5936 30.3353 40.5669 30.2912 40.5486C30.2472 40.5304 30.2 40.521 30.1524 40.521C30.1047 40.521 30.0575 40.5304 30.0135 40.5486C29.9695 40.5669 29.9295 40.5936 29.8958 40.6273C29.8621 40.661 29.8354 40.701 29.8172 40.745C29.799 40.7891 29.7896 40.8363 29.7896 40.8839Z" fill="#404041"/>
<path d="M25.893 43.8486C25.893 43.9448 25.9312 44.0371 25.9992 44.1051C26.0673 44.1732 26.1595 44.2114 26.2558 44.2114C26.352 44.2114 26.4443 44.1732 26.5123 44.1051C26.5803 44.0371 26.6185 43.9448 26.6185 43.8486C26.6185 43.7524 26.5803 43.6601 26.5123 43.5921C26.4443 43.5241 26.352 43.4858 26.2558 43.4858C26.1595 43.4858 26.0673 43.5241 25.9992 43.5921C25.9312 43.6601 25.893 43.7524 25.893 43.8486Z" fill="#404041"/>
<path d="M28.0269 44.1552H27.307C27.2262 44.1536 27.1493 44.1204 27.0927 44.0627C27.0361 44.005 27.0044 43.9274 27.0044 43.8466C27.0044 43.7658 27.0361 43.6883 27.0927 43.6306C27.1493 43.5729 27.2262 43.5397 27.307 43.5381H28.0269C28.1077 43.5397 28.1846 43.5729 28.2412 43.6306C28.2977 43.6883 28.3294 43.7658 28.3294 43.8466C28.3294 43.9274 28.2977 44.005 28.2412 44.0627C28.1846 44.1204 28.1077 44.1536 28.0269 44.1552Z" fill="#404041"/>
<path d="M25.2388 44.1551H24.5188C24.4381 44.1536 24.3611 44.1203 24.3046 44.0627C24.248 44.005 24.2163 43.9274 24.2163 43.8466C24.2163 43.7658 24.248 43.6882 24.3046 43.6305C24.3611 43.5729 24.4381 43.5396 24.5188 43.5381H25.2388C25.3195 43.5396 25.3965 43.5729 25.453 43.6305C25.5096 43.6882 25.5413 43.7658 25.5413 43.8466C25.5413 43.9274 25.5096 44.005 25.453 44.0627C25.3965 44.1203 25.3195 44.1536 25.2388 44.1551ZM17.9206 26.3875H15.8374C15.7566 26.3859 15.6797 26.3527 15.6231 26.295C15.5666 26.2374 15.5349 26.1598 15.5349 26.079C15.5349 25.9982 15.5666 25.9206 15.6231 25.8629C15.6797 25.8052 15.7566 25.772 15.8374 25.7704H17.9206C18.0014 25.772 18.0783 25.8052 18.1349 25.8629C18.1914 25.9206 18.2231 25.9982 18.2231 26.079C18.2231 26.1598 18.1914 26.2374 18.1349 26.295C18.0783 26.3527 18.0014 26.3859 17.9206 26.3875ZM15.8374 30.4099H14.9888C14.908 30.4083 14.8311 30.3751 14.7745 30.3174C14.7179 30.2597 14.6863 30.1822 14.6863 30.1014C14.6863 30.0206 14.7179 29.943 14.7745 29.8853C14.8311 29.8276 14.908 29.7944 14.9888 29.7928H15.8374C15.9182 29.7944 15.9951 29.8276 16.0517 29.8853C16.1082 29.943 16.1399 30.0206 16.1399 30.1014C16.1399 30.1822 16.1082 30.2597 16.0517 30.3174C15.9951 30.3751 15.9182 30.4083 15.8374 30.4099ZM17.1371 33.0608H14.8288C14.7481 33.0592 14.6711 33.026 14.6146 32.9683C14.558 32.9106 14.5263 32.833 14.5263 32.7522C14.5263 32.6714 14.558 32.5939 14.6146 32.5362C14.6711 32.4785 14.7481 32.4453 14.8288 32.4437H17.1371C17.2179 32.4453 17.2949 32.4785 17.3514 32.5362C17.408 32.5939 17.4397 32.6714 17.4397 32.7522C17.4397 32.833 17.408 32.9106 17.3514 32.9683C17.2949 33.026 17.2179 33.0592 17.1371 33.0608ZM20.3595 30.9812H18.554C18.4732 30.9796 18.3963 30.9464 18.3397 30.8887C18.2832 30.831 18.2515 30.7534 18.2515 30.6726C18.2515 30.5918 18.2832 30.5143 18.3397 30.4566C18.3963 30.3989 18.4732 30.3657 18.554 30.3641H20.3595C20.4403 30.3657 20.5172 30.3989 20.5738 30.4566C20.6303 30.5143 20.662 30.5918 20.662 30.6726C20.662 30.7534 20.6303 30.831 20.5738 30.8887C20.5172 30.9464 20.4403 30.9796 20.3595 30.9812ZM20.2224 34.0892H19.2167C19.1359 34.0876 19.059 34.0544 19.0024 33.9967C18.9459 33.9391 18.9142 33.8615 18.9142 33.7807C18.9142 33.6999 18.9459 33.6223 19.0024 33.5646C19.059 33.5069 19.1359 33.4737 19.2167 33.4721H20.2224C20.3031 33.4737 20.3801 33.5069 20.4366 33.5646C20.4932 33.6223 20.5249 33.6999 20.5249 33.7807C20.5249 33.8615 20.4932 33.9391 20.4366 33.9967C20.3801 34.0544 20.3031 34.0876 20.2224 34.0892ZM21.481 37.528C21.0039 37.528 20.9635 37.5146 20.924 37.5012C20.8464 37.4751 20.7824 37.4193 20.746 37.3461C20.7096 37.2728 20.7038 37.1881 20.7298 37.1105C20.7794 36.9632 20.9299 36.8786 21.0784 36.9053C21.2007 36.9144 21.8904 36.9104 22.5028 36.9002H22.5079C22.5889 36.9002 22.6666 36.932 22.7242 36.9888C22.7819 37.0456 22.815 37.1227 22.8163 37.2037C22.8169 37.2442 22.8096 37.2844 22.7947 37.3221C22.7798 37.3598 22.7576 37.3942 22.7295 37.4233C22.7013 37.4524 22.6676 37.4757 22.6304 37.4918C22.5932 37.508 22.5532 37.5166 22.5127 37.5172C22.0373 37.525 21.7092 37.528 21.481 37.528ZM25.3964 41.7681H23.9451C23.8643 41.7665 23.7874 41.7333 23.7308 41.6756C23.6742 41.6179 23.6425 41.5403 23.6425 41.4595C23.6425 41.3787 23.6742 41.3012 23.7308 41.2435C23.7874 41.1858 23.8643 41.1526 23.9451 41.151H25.3964C25.4771 41.1526 25.5541 41.1858 25.6106 41.2435C25.6672 41.3012 25.6989 41.3787 25.6989 41.4595C25.6989 41.5403 25.6672 41.6179 25.6106 41.6756C25.5541 41.7333 25.4771 41.7665 25.3964 41.7681ZM24.8788 42.9336H23.9451C23.8643 42.932 23.7874 42.8988 23.7308 42.8411C23.6742 42.7834 23.6425 42.7059 23.6425 42.6251C23.6425 42.5443 23.6742 42.4667 23.7308 42.409C23.7874 42.3513 23.8643 42.3181 23.9451 42.3165H24.8788C25.0491 42.3165 25.1873 42.4548 25.1873 42.6251C25.1873 42.7954 25.0491 42.9336 24.8788 42.9336ZM26.2558 24.0107H22.655C22.5742 24.0091 22.4973 23.9759 22.4408 23.9182C22.3842 23.8605 22.3525 23.7829 22.3525 23.7021C22.3525 23.6213 22.3842 23.5438 22.4408 23.4861C22.4973 23.4284 22.5742 23.3952 22.655 23.3936H26.2558C26.3366 23.3952 26.4135 23.4284 26.4701 23.4861C26.5267 23.5438 26.5583 23.6213 26.5583 23.7021C26.5583 23.7829 26.5267 23.8605 26.4701 23.9182C26.4135 23.9759 26.3366 24.0091 26.2558 24.0107ZM30.8265 24.0107H29.1462C29.0655 24.0091 28.9885 23.9759 28.932 23.9182C28.8754 23.8605 28.8437 23.7829 28.8437 23.7021C28.8437 23.6213 28.8754 23.5438 28.932 23.4861C28.9885 23.4284 29.0655 23.3952 29.1462 23.3936H30.8265C30.9073 23.3952 30.9842 23.4284 31.0408 23.4861C31.0974 23.5438 31.1291 23.6213 31.1291 23.7021C31.1291 23.7829 31.0974 23.8605 31.0408 23.9182C30.9842 23.9759 30.9073 24.0091 30.8265 24.0107ZM40.6014 23.1563H38.9211C38.8403 23.1547 38.7634 23.1215 38.7068 23.0638C38.6502 23.0061 38.6185 22.9285 38.6185 22.8478C38.6185 22.767 38.6502 22.6894 38.7068 22.6317C38.7634 22.574 38.8403 22.5408 38.9211 22.5392H40.6014C40.6821 22.5408 40.7591 22.574 40.8156 22.6317C40.8722 22.6894 40.9039 22.767 40.9039 22.8478C40.9039 22.9285 40.8722 23.0061 40.8156 23.0638C40.7591 23.1215 40.6821 23.1547 40.6014 23.1563ZM37.0085 17.7943H35.4238C35.343 17.7927 35.2661 17.7595 35.2095 17.7018C35.153 17.6442 35.1213 17.5666 35.1213 17.4858C35.1213 17.405 35.153 17.3274 35.2095 17.2697C35.2661 17.212 35.343 17.1788 35.4238 17.1772H37.0085C37.0893 17.1788 37.1662 17.212 37.2228 17.2697C37.2793 17.3274 37.311 17.405 37.311 17.4858C37.311 17.5666 37.2793 17.6442 37.2228 17.7018C37.1662 17.7595 37.0893 17.7927 37.0085 17.7943Z" fill="#404041"/>
</svg>
