<svg width="60" height="60" viewBox="0 0 60 60" fill="none" xmlns="http://www.w3.org/2000/svg">
<g clip-path="url(#clip0_10_450)">
<path d="M31.329 59.9693C31.4961 59.962 31.6629 59.9531 31.8293 59.9432C31.8401 59.9425 31.851 59.9418 31.8618 59.9411C46.9498 59.0189 59.0228 46.9458 59.9451 31.8578C59.9458 31.847 59.9465 31.8361 59.9472 31.8253C59.9571 31.6589 59.966 31.4921 59.9733 31.325C59.9779 31.2236 59.9814 31.122 59.9849 31.0204C59.9886 30.9093 59.9929 30.7984 59.9953 30.6871C60.0007 30.4583 60.004 30.2293 60.004 30C60.004 29.7707 60.0006 29.5417 59.9953 29.3129C59.9929 29.2016 59.9886 29.0907 59.9849 28.9796C59.9814 28.878 59.9779 28.7764 59.9733 28.675C59.966 28.5079 59.9571 28.3411 59.9472 28.1747C59.9465 28.1639 59.9458 28.153 59.9451 28.1422C59.0229 13.0542 46.9498 0.981094 31.8619 0.0589453C31.8511 0.0582422 31.8402 0.0575391 31.8294 0.0568359C31.663 0.046875 31.4963 0.0379687 31.3292 0.0307031C31.2277 0.0261328 31.1261 0.0226172 31.0245 0.0191016C30.9134 0.0153516 30.8025 0.0111328 30.6912 0.00867188C30.4623 0.00339844 30.2333 0 30.004 0C29.7747 0 29.5457 0.00339844 29.3169 0.00867188C29.2056 0.0111328 29.0947 0.0153516 28.9836 0.0191016C28.882 0.0226172 28.7804 0.0261328 28.679 0.0307031C28.5118 0.0379687 28.3451 0.046875 28.1787 0.0568359C28.1679 0.0575391 28.157 0.0582422 28.1462 0.0589453C13.0582 0.981094 0.985092 13.0542 0.0629431 28.1421C0.06224 28.1529 0.0615369 28.1638 0.0608337 28.1746C0.0508728 28.341 0.0419666 28.5077 0.0347009 28.6748C0.0301306 28.7763 0.026615 28.8779 0.0230994 28.9795C0.0193494 29.0906 0.0151306 29.2015 0.0126697 29.3128C0.00739624 29.5417 0.0039978 29.7707 0.0039978 30C0.0039978 30.2293 0.00739624 30.4583 0.0126697 30.6871C0.0151306 30.7984 0.0193494 30.9093 0.0230994 31.0204C0.026615 31.122 0.0301306 31.2236 0.0347009 31.325C0.0419666 31.4921 0.0508728 31.6589 0.0608337 31.8253C0.0615369 31.8361 0.06224 31.847 0.0629431 31.8578C0.985092 46.9458 13.0582 59.0188 28.1462 59.9411C28.157 59.9418 28.1679 59.9425 28.1787 59.9432C28.3451 59.9531 28.5118 59.962 28.679 59.9693C28.7804 59.9739 28.882 59.9774 28.9836 59.9809C29.0947 59.9846 29.2056 59.9889 29.3169 59.9913C29.5457 59.9967 29.7747 60 30.004 60C30.2333 60 30.4623 59.9966 30.6911 59.9913C30.8024 59.9889 30.9133 59.9846 31.0243 59.9809C31.126 59.9773 31.2276 59.9739 31.329 59.9693ZM30.7299 54.9888C30.4882 54.996 30.2463 55.0001 30.004 55.0001C29.7617 55.0001 29.5198 54.9961 29.2781 54.9888C29.2431 54.9878 29.2082 54.986 29.1731 54.9848C27.4413 54.9258 25.7272 54.6836 24.043 54.2645L26.7361 39.4509C27.2499 39.6286 27.7822 39.7655 28.3302 39.8578C28.3327 39.8583 28.335 39.8588 28.3375 39.8591C28.4482 39.8777 28.5598 39.894 28.6717 39.909C28.7233 39.9161 28.7749 39.9225 28.8267 39.9287C28.9136 39.9389 29.0005 39.9485 29.0881 39.9565C29.173 39.9643 29.2585 39.9703 29.3439 39.9759C29.4081 39.9802 29.472 39.9852 29.5365 39.9882C29.6918 39.9955 29.8477 40.0001 30.0041 40.0001C30.1606 40.0001 30.3164 39.9955 30.4717 39.9882C30.5363 39.9853 30.6001 39.9802 30.6644 39.9759C30.7498 39.9703 30.8352 39.9643 30.9202 39.9565C31.0077 39.9485 31.0947 39.9389 31.1815 39.9287C31.2333 39.9225 31.285 39.9161 31.3365 39.909C31.4486 39.8941 31.56 39.8777 31.6708 39.8591C31.6732 39.8586 31.6756 39.8582 31.678 39.8578C32.2259 39.7655 32.7584 39.6285 33.2721 39.4509L35.9652 54.2645C34.281 54.6836 32.5669 54.9258 30.8351 54.9848C30.7998 54.9859 30.7649 54.9878 30.7299 54.9888ZM5.01927 30.8309C5.0181 30.7958 5.01622 30.7609 5.01529 30.7259C5.00814 30.4842 5.00404 30.2423 5.00404 30C5.00404 29.7577 5.00802 29.5158 5.01529 29.2741C5.01634 29.2391 5.0181 29.2042 5.01927 29.1691C5.07833 27.4373 5.32056 25.7232 5.73962 24.039L20.5532 26.7321C20.3755 27.2459 20.2386 27.7782 20.1463 28.3262C20.1458 28.3287 20.1454 28.331 20.145 28.3335C20.1264 28.4442 20.1101 28.5558 20.0951 28.6677C20.0881 28.7193 20.0816 28.7709 20.0754 28.8227C20.0652 28.9096 20.0556 28.9965 20.0476 29.0841C20.0398 29.169 20.0338 29.2545 20.0282 29.3399C20.024 29.4041 20.0189 29.468 20.0159 29.5325C20.0086 29.6878 20.004 29.8437 20.004 30.0001C20.004 30.1566 20.0086 30.3124 20.0159 30.4677C20.0188 30.5323 20.024 30.5961 20.0282 30.6604C20.0338 30.7458 20.0398 30.8312 20.0476 30.9162C20.0556 31.0037 20.0652 31.0907 20.0754 31.1775C20.0816 31.2293 20.0881 31.281 20.0951 31.3325C20.11 31.4446 20.1264 31.556 20.145 31.6668C20.1455 31.6692 20.146 31.6716 20.1463 31.674C20.2386 32.2219 20.3756 32.7544 20.5532 33.2681L5.73951 35.961C5.32044 34.2768 5.07822 32.5627 5.01927 30.8309ZM24.043 5.73551C25.7272 5.31645 27.4413 5.07422 29.1731 5.01516C29.2082 5.01398 29.2431 5.01211 29.2781 5.01117C29.5198 5.00402 29.7617 4.99992 30.004 4.99992C30.2463 4.99992 30.4882 5.00391 30.7299 5.01117C30.7649 5.01223 30.7998 5.01398 30.8349 5.01516C32.5667 5.07422 34.2808 5.31645 35.965 5.73551L33.2719 20.5491C32.7581 20.3714 32.2258 20.2345 31.6778 20.1422C31.6753 20.1417 31.673 20.1413 31.6705 20.1409C31.5598 20.1223 31.4482 20.106 31.3363 20.091C31.2847 20.0839 31.2331 20.0775 31.1813 20.0713C31.0944 20.0611 31.0075 20.0515 30.9199 20.0435C30.835 20.0357 30.7495 20.0297 30.6641 20.0241C30.5999 20.0198 30.536 20.0148 30.4715 20.0118C30.3162 20.0045 30.1603 19.9999 30.0039 19.9999C29.8474 19.9999 29.6916 20.0045 29.5363 20.0118C29.4717 20.0147 29.4079 20.0198 29.3436 20.0241C29.2582 20.0297 29.1728 20.0357 29.0878 20.0435C29.0003 20.0515 28.9133 20.0611 28.8265 20.0713C28.7747 20.0775 28.723 20.0839 28.6715 20.091C28.5594 20.1059 28.448 20.1223 28.3372 20.1409C28.3348 20.1414 28.3324 20.1418 28.33 20.1422C27.7821 20.2345 27.2496 20.3715 26.7359 20.5491L24.043 5.73551ZM54.9887 29.1691C54.9899 29.2042 54.9918 29.2391 54.9927 29.2741C54.9999 29.5158 55.004 29.7577 55.004 30C55.004 30.2423 55 30.4842 54.9927 30.7259C54.9917 30.7609 54.9899 30.7958 54.9887 30.8309C54.9297 32.5627 54.6874 34.2768 54.2684 35.961L39.4548 33.2679C39.6325 32.754 39.7695 32.2214 39.8618 31.6733C39.8622 31.6712 39.8626 31.669 39.863 31.6669C39.8816 31.556 39.898 31.4445 39.9129 31.3323C39.9199 31.2807 39.9264 31.2291 39.9326 31.1774C39.9428 31.0905 39.9524 31.0036 39.9604 30.9161C39.9682 30.8311 39.9741 30.7457 39.9798 30.6602C39.984 30.596 39.9891 30.5321 39.9921 30.4676C39.9994 30.3123 40.004 30.1564 40.004 30C40.004 29.8436 39.9994 29.6877 39.9921 29.5324C39.9892 29.4679 39.984 29.404 39.9798 29.3398C39.9741 29.2543 39.9682 29.1689 39.9604 29.0839C39.9524 28.9964 39.9428 28.9095 39.9326 28.8226C39.9264 28.7708 39.9199 28.7193 39.9129 28.6677C39.898 28.5555 39.8816 28.444 39.863 28.3331C39.8626 28.331 39.8622 28.3288 39.8618 28.3267C39.7695 27.7786 39.6325 27.246 39.4548 26.7321L54.2684 24.039C54.6876 25.7232 54.9298 27.4373 54.9887 29.1691ZM30.4185 34.9815C30.3615 34.9863 30.3046 34.991 30.2473 34.9938C30.1667 34.9977 30.0857 34.9999 30.0041 34.9999C29.9226 34.9999 29.8415 34.9977 29.761 34.9938C29.7036 34.991 29.6467 34.9863 29.5897 34.9815C29.5693 34.9799 29.5488 34.9788 29.5285 34.9768C28.4427 34.8714 27.4321 34.4068 26.6182 33.6509C26.5718 33.6077 26.5243 33.567 26.4761 33.5282C26.4373 33.4799 26.3965 33.4324 26.3534 33.386C25.5974 32.5721 25.1327 31.5615 25.0274 30.4758C25.0255 30.4555 25.0245 30.4349 25.0227 30.4145C25.0179 30.3575 25.0132 30.3006 25.0104 30.2433C25.0065 30.1627 25.0043 30.0817 25.0043 30.0001C25.0043 29.9186 25.0065 29.8375 25.0104 29.757C25.0132 29.6996 25.0179 29.6427 25.0227 29.5857C25.0243 29.5654 25.0254 29.5448 25.0274 29.5245C25.1329 28.4387 25.5974 27.4281 26.3534 26.6142C26.3965 26.5678 26.4373 26.5204 26.4761 26.4721C26.5243 26.4333 26.5718 26.3925 26.6182 26.3494C27.4321 25.5934 28.4427 25.1288 29.5285 25.0234C29.5487 25.0215 29.5693 25.0205 29.5897 25.0187C29.6467 25.0139 29.7036 25.0092 29.761 25.0064C29.8416 25.0025 29.9226 25.0003 30.0041 25.0003C30.0857 25.0003 30.1668 25.0025 30.2473 25.0064C30.3046 25.0092 30.3615 25.0139 30.4185 25.0187C30.4389 25.0204 30.4594 25.0214 30.4798 25.0234C31.5655 25.1289 32.5761 25.5934 33.39 26.3494C33.4364 26.3925 33.4839 26.4333 33.5322 26.4721C33.571 26.5204 33.6117 26.5678 33.6549 26.6142C34.4108 27.4281 34.8755 28.4387 34.9808 29.5245C34.9827 29.5447 34.9838 29.5654 34.9855 29.5857C34.9903 29.6427 34.995 29.6996 34.9978 29.757C35.0017 29.8376 35.0039 29.9186 35.0039 30.0001C35.0039 30.0817 35.0017 30.1628 34.9978 30.2433C34.995 30.3006 34.9903 30.3575 34.9855 30.4145C34.9839 30.4349 34.9828 30.4554 34.9808 30.4758C34.8754 31.5615 34.4108 32.5721 33.6549 33.386C33.6117 33.4324 33.571 33.4799 33.5322 33.5282C33.4839 33.567 33.4364 33.6077 33.39 33.6509C32.5761 34.4068 31.5655 34.8715 30.4798 34.9768C30.4594 34.9788 30.4389 34.9799 30.4185 34.9815ZM40.7411 52.582L38.1093 38.1054L52.586 40.7371C50.1184 45.9173 45.9213 50.1144 40.7411 52.582ZM52.586 19.2629L38.1094 21.8947L40.7412 7.41809C45.9213 9.88559 50.1184 14.0827 52.586 19.2629ZM19.2669 7.41809L21.8987 21.8947L7.42208 19.2629C9.88958 14.0827 14.0867 9.88559 19.2669 7.41809ZM7.42208 40.7371L21.8987 38.1053L19.2669 52.582C14.0867 50.1144 9.88958 45.9173 7.42208 40.7371Z" fill="black"/>
</g>
<defs>
<clipPath id="clip0_10_450">
<rect width="60" height="60" fill="white" transform="translate(0.0039978)"/>
</clipPath>
</defs>
</svg>
