<svg width="61" height="60" viewBox="0 0 61 60" fill="none" xmlns="http://www.w3.org/2000/svg">
<path d="M30.4209 44.0625C30.1723 44.0625 29.9338 43.9637 29.758 43.7879C29.5822 43.6121 29.4834 43.3736 29.4834 43.125V23.4375C29.4834 23.1889 29.5822 22.9504 29.758 22.7746C29.9338 22.5988 30.1723 22.5 30.4209 22.5C30.6695 22.5 30.908 22.5988 31.0838 22.7746C31.2596 22.9504 31.3584 23.1889 31.3584 23.4375V43.125C31.3584 43.3736 31.2596 43.6121 31.0838 43.7879C30.908 43.9637 30.6695 44.0625 30.4209 44.0625Z" fill="#C1B2AB"/>
<path d="M30.421 44.0626C30.2665 44.0628 30.1144 44.0248 29.9782 43.952C29.8419 43.8792 29.7258 43.7739 29.64 43.6454L18.39 26.7704C18.252 26.5636 18.2019 26.3103 18.2506 26.0665C18.2993 25.8226 18.4429 25.6081 18.6497 25.4701C18.8566 25.3321 19.1098 25.282 19.3537 25.3307C19.5975 25.3794 19.812 25.5229 19.95 25.7298L31.2 42.6048C31.2942 42.7459 31.3483 42.91 31.3566 43.0794C31.3648 43.2488 31.327 43.4174 31.247 43.567C31.1671 43.7166 31.048 43.8417 30.9025 43.929C30.7571 44.0163 30.5906 44.0625 30.421 44.0626Z" fill="#C1B2AB"/>
<path d="M30.4208 44.0626C30.2512 44.0625 30.0848 44.0163 29.9393 43.929C29.7938 43.8417 29.6748 43.7166 29.5948 43.567C29.5148 43.4174 29.477 43.2488 29.4852 43.0794C29.4935 42.91 29.5476 42.7459 29.6418 42.6048L40.8918 25.7298C40.9601 25.6274 41.0479 25.5394 41.1503 25.4709C41.2526 25.4024 41.3674 25.3548 41.4881 25.3307C41.6089 25.3065 41.7332 25.3064 41.854 25.3304C41.9748 25.3543 42.0897 25.4018 42.1921 25.4701C42.2945 25.5384 42.3825 25.6263 42.451 25.7286C42.5195 25.8309 42.5671 25.9457 42.5912 26.0665C42.6153 26.1872 42.6154 26.3115 42.5915 26.4323C42.5676 26.5531 42.5201 26.668 42.4518 26.7704L31.2018 43.6454C31.116 43.7739 30.9999 43.8792 30.8637 43.952C30.7274 44.0248 30.5753 44.0628 30.4208 44.0626Z" fill="#C1B2AB"/>
<path d="M41.6709 26.25C46.3308 26.25 50.1084 21.6329 50.1084 15.9375C50.1084 10.2421 46.3308 5.625 41.6709 5.625C37.011 5.625 33.2334 10.2421 33.2334 15.9375C33.2334 21.6329 37.011 26.25 41.6709 26.25Z" fill="#5FBAC5"/>
<path d="M19.1709 26.25C23.8308 26.25 27.6084 21.6329 27.6084 15.9375C27.6084 10.2421 23.8308 5.625 19.1709 5.625C14.511 5.625 10.7334 10.2421 10.7334 15.9375C10.7334 21.6329 14.511 26.25 19.1709 26.25Z" fill="#F4B1CC"/>
<path d="M30.4209 23.4375C35.0808 23.4375 38.8584 18.8204 38.8584 13.125C38.8584 7.42956 35.0808 2.8125 30.4209 2.8125C25.761 2.8125 21.9834 7.42956 21.9834 13.125C21.9834 18.8204 25.761 23.4375 30.4209 23.4375Z" fill="#EF4037"/>
<path d="M37.9209 45.9375H22.9209V57.1875H37.9209V45.9375Z" fill="#EF4037"/>
<path d="M30.4209 43.125L25.7334 42.1875V45.9375H30.4209H35.1084V42.1875L30.4209 43.125Z" fill="#DDB66A"/>
<path d="M31.3584 45.9375H29.4834V57.1875H31.3584V45.9375Z" fill="#DDB66A"/>
<path d="M37.9209 50.625H22.9209V52.5H37.9209V50.625Z" fill="#DDB66A"/>
<path d="M25.7334 13.1249C25.4848 13.1249 25.2463 13.0261 25.0705 12.8503C24.8947 12.6745 24.7959 12.436 24.7959 12.1874C24.7959 8.99988 27.8437 5.62488 29.4834 5.62488C29.732 5.61792 29.9733 5.71001 30.154 5.88091C30.3347 6.0518 30.4402 6.28749 30.4471 6.53613C30.4541 6.78477 30.362 7.02599 30.1911 7.20673C30.0202 7.38747 29.7845 7.49292 29.5359 7.49988C28.7386 8.01764 28.0674 8.70744 27.5716 9.5186C27.0758 10.3298 26.7681 11.2417 26.6709 12.1874C26.6709 12.436 26.5721 12.6745 26.3963 12.8503C26.2205 13.0261 25.982 13.1249 25.7334 13.1249Z" fill="#FEF2DC"/>
<path d="M42.6084 23.4375C42.3598 23.4445 42.1185 23.3524 41.9378 23.1815C41.7571 23.0106 41.6516 22.7749 41.6447 22.5262C41.6377 22.2776 41.7298 22.0364 41.9007 21.8556C42.0716 21.6749 42.3073 21.5695 42.5559 21.5625C43.3532 21.0447 44.0244 20.3549 44.5202 19.5438C45.016 18.7326 45.3238 17.8207 45.4209 16.875C45.4209 16.6264 45.5197 16.3879 45.6955 16.2121C45.8713 16.0363 46.1098 15.9375 46.3584 15.9375C46.607 15.9375 46.8455 16.0363 47.0213 16.2121C47.1971 16.3879 47.2959 16.6264 47.2959 16.875C47.2959 20.0625 44.2481 23.4375 42.6084 23.4375Z" fill="#E0F9FF"/>
<path d="M18.2334 23.4375C16.5937 23.4375 13.5459 20.0625 13.5459 16.875C13.5459 16.6264 13.6447 16.3879 13.8205 16.2121C13.9963 16.0363 14.2348 15.9375 14.4834 15.9375C14.732 15.9375 14.9705 16.0363 15.1463 16.2121C15.3221 16.3879 15.4209 16.6264 15.4209 16.875C15.5168 17.824 15.8259 18.7391 16.3251 19.552C16.8243 20.3648 17.5007 21.0543 18.3037 21.5691C18.4251 21.5694 18.5453 21.5941 18.6569 21.6417C18.7686 21.6894 18.8696 21.759 18.9538 21.8465C19.038 21.934 19.1038 22.0375 19.1472 22.1509C19.1906 22.2642 19.2108 22.3852 19.2065 22.5066C19.1975 22.7579 19.0908 22.9958 18.909 23.1697C18.7273 23.3435 18.4849 23.4396 18.2334 23.4375Z" fill="#FFE0D4"/>
</svg>
