<svg width="60" height="60" viewBox="0 0 60 60" fill="none" xmlns="http://www.w3.org/2000/svg">
<path d="M60 30.4217C60 30.4217 51.0984 8.22392 47.1425 3.84697C43.1866 -0.53069 35.9341 0.407748 30 0.407748C24.0659 0.407748 16.8134 -0.53069 12.8575 3.84708C8.90086 8.22392 0 30.4217 0 30.4217L5.60484 31.6724L3.95578 40.114L10.8791 39.4879L11.0437 46.5221L17.1425 45.7409L18.1316 52.307L24.7256 49.8056L30 54.8081L35.2743 49.8057L41.8684 52.3072L42.8575 45.741L48.9563 46.5222L49.1209 39.488L56.0442 40.1142L54.3959 31.6726L60 30.4217Z" fill="#BE955D"/>
<path d="M19.4508 36.0161L23.4074 44.9178H30V36.0161H19.4508Z" fill="#D5AD79"/>
<path d="M30 12.9399L17.8024 9.97314L11.3737 25.3028L19.7808 37.3357L30 28.764V12.9399Z" fill="#D5AD79"/>
<path d="M30 22.8301V38.655L22.0876 42.2809L17.4733 38.655L25.7142 23.1593L30 22.8301Z" fill="#E4BC8C"/>
<path d="M30 32.3906H24.3958V36.6764L30 38.6548V32.3906Z" fill="#936538"/>
<path d="M40.5499 36.0161L36.5941 44.9178H30V36.0161H40.5499Z" fill="#D5AD79"/>
<path d="M30 12.9399L42.1976 9.97314L48.6262 25.3028L40.2192 37.3357L30 28.764V12.9399Z" fill="#D5AD79"/>
<path d="M30 22.8301V38.655L37.9124 42.2809L42.5282 38.655L34.2851 23.1593L30 22.8301Z" fill="#E4BC8C"/>
<path d="M30 32.3906H35.6048V36.6764L30 38.6548V32.3906Z" fill="#936538"/>
<path d="M22.9944 23.3656C22.9944 24.1394 22.3668 24.767 21.5929 24.767C20.8198 24.767 20.193 24.1395 20.193 23.3656C20.193 22.5917 20.8198 21.9648 21.5929 21.9648C22.3667 21.9648 22.9944 22.5917 22.9944 23.3656Z" fill="#A3764B"/>
<path d="M39.4777 23.3656C39.4777 24.1394 38.8509 24.767 38.077 24.767C37.3039 24.767 36.6755 24.1395 36.6755 23.3656C36.6755 22.5917 37.3039 21.9648 38.077 21.9648C38.8509 21.9648 39.4777 22.5917 39.4777 23.3656Z" fill="#A3764B"/>
<path d="M11.0952 0C7.63621 0 4.83191 2.8043 4.83191 6.26332C4.83191 9.72316 7.63621 12.5275 11.0952 12.5275C11.3833 12.5275 11.6634 12.5011 11.9404 12.4643L16.5973 3.2673C15.5346 1.32047 13.4697 0 11.0952 0Z" fill="#E4BC8C"/>
<path d="M10.6485 9.83477C9.28828 9.42906 8.29395 8.16578 8.29395 6.67551C8.29395 4.85746 9.7725 3.37891 11.59 3.37891C12.3211 3.37891 13.0157 3.62066 13.58 4.0477L10.6485 9.83477Z" fill="#A3764B"/>
<path d="M48.9041 0C52.364 0 55.169 2.8043 55.169 6.26332C55.169 9.72316 52.364 12.5275 48.9041 12.5275C48.6175 12.5275 48.3368 12.5011 48.0605 12.4643L43.4043 3.2673C44.4661 1.32047 46.5312 0 48.9041 0Z" fill="#E4BC8C"/>
<path d="M49.3515 9.83477C50.7125 9.42906 51.7069 8.16578 51.7069 6.67551C51.7069 4.85746 50.2276 3.37891 48.4102 3.37891C47.6797 3.37891 46.9846 3.62066 46.4209 4.0477L49.3515 9.83477Z" fill="#A3764B"/>
<path opacity="0.08" d="M60 30.4218C60 30.4218 55.7436 19.8071 51.8084 11.811C53.805 10.763 55.1689 8.67445 55.1689 6.26332C55.1689 2.8043 52.3639 0 48.9041 0C47.1728 0 45.6067 0.705469 44.4735 1.8423C40.3957 -0.196992 34.7723 0.407813 30 0.407813V54.8081L35.2743 49.8057L41.8684 52.3072L42.8575 45.7411L48.9563 46.5223L49.1209 39.4881L56.0442 40.1142L54.3959 31.6726L60 30.4218Z" fill="#A3764B"/>
</svg>
