<svg width="208" height="207" viewBox="0 0 208 207" fill="none" xmlns="http://www.w3.org/2000/svg">
<g clip-path="url(#clip0_16_6072)">
<path d="M174.178 140.407H174.016C172.141 104.65 143.452 75.961 107.694 74.086V48.034H152.033C154.075 48.034 155.728 46.381 155.728 44.339V14.78C155.728 12.738 154.075 11.085 152.033 11.085H107.694V0H100.304V14.78V44.339V74.086C64.547 75.961 35.858 104.65 33.983 140.407H33.821C25.659 140.407 19.016 147.035 19.016 155.187C19.016 163.339 25.659 169.967 33.821 169.967H37.491V203.221C37.491 205.263 39.144 206.916 41.186 206.916H166.813C168.855 206.916 170.508 205.263 170.508 203.221V169.967H174.178C182.34 169.967 188.983 163.339 188.983 155.187C188.984 147.035 182.341 140.407 174.178 140.407ZM107.696 18.475H148.34V40.644H107.696V18.475ZM104.001 81.288C137.396 81.288 164.787 107.484 166.706 140.407H41.295C43.214 107.484 70.605 81.288 104.001 81.288ZM163.118 199.525H44.881V169.966H163.118V199.525ZM174.178 162.576H166.813H41.186H33.821C29.733 162.576 26.406 159.26 26.406 155.186C26.406 151.112 29.733 147.796 33.821 147.796H37.491H170.508H174.178C178.266 147.796 181.593 151.112 181.593 155.186C181.594 159.26 178.267 162.576 174.178 162.576Z" fill="black"/>
<path d="M92.916 92.373H81.831V99.763H92.916V92.373Z" fill="black"/>
<path d="M118.781 107.153H107.696V114.543H118.781V107.153Z" fill="black"/>
<path d="M70.747 118.237H59.662V125.627H70.747V118.237Z" fill="black"/>
<path d="M148.34 121.932H137.255V129.322H148.34V121.932Z" fill="black"/>
<path d="M104 125.627H92.915V133.017H104V125.627Z" fill="black"/>
</g>
<defs>
<clipPath id="clip0_16_6072">
<rect width="206.916" height="206.916" fill="white" transform="translate(0.541992)"/>
</clipPath>
</defs>
</svg>
