<svg width="61" height="60" viewBox="0 0 61 60" fill="none" xmlns="http://www.w3.org/2000/svg">
<path d="M44.8909 14.4288L39.1709 21.25H24.0934L18.4059 14.41C18.091 13.9812 17.9211 13.4632 17.9209 12.9313V0H45.4209V12.8887C45.4211 13.4469 45.2345 13.989 44.8909 14.4288Z" fill="#FA5C66"/>
<path d="M37.9209 0H25.4209V21.25H37.9209V0Z" fill="#E93D5B"/>
<path d="M39.2484 26.2501H24.1709C23.1763 26.2501 22.2225 25.855 21.5192 25.1517C20.816 24.4485 20.4209 23.4947 20.4209 22.5001C20.4209 21.5055 20.816 20.5517 21.5192 19.8484C22.2225 19.1452 23.1763 18.7501 24.1709 18.7501H39.1709C39.6673 18.7356 40.1614 18.8226 40.623 19.006C41.0845 19.1893 41.5037 19.465 41.8549 19.8161C42.206 20.1673 42.4817 20.5865 42.665 21.048C42.8483 21.5096 42.9354 22.0037 42.9209 22.5001C42.9411 22.9914 42.8606 23.4816 42.6842 23.9406C42.5078 24.3996 42.2393 24.8176 41.8953 25.169C41.5512 25.5203 41.1389 25.7974 40.6837 25.9834C40.2285 26.1693 39.74 26.2601 39.2484 26.2501ZM24.1809 21.2501C23.8494 21.2501 23.5314 21.3818 23.297 21.6162C23.0626 21.8506 22.9309 22.1686 22.9309 22.5001C22.9309 22.8316 23.0626 23.1496 23.297 23.384C23.5314 23.6184 23.8494 23.7501 24.1809 23.7501H39.2434C39.4075 23.7621 39.5721 23.7374 39.7255 23.6778C39.8788 23.6182 40.0169 23.5251 40.1297 23.4053C40.2425 23.2856 40.3271 23.1422 40.3775 22.9856C40.4279 22.829 40.4427 22.6631 40.4209 22.5001C40.4368 22.3307 40.415 22.1598 40.3568 21.9999C40.2986 21.8399 40.2057 21.6949 40.0846 21.5753C39.9636 21.4557 39.8175 21.3645 39.6569 21.3082C39.4962 21.252 39.3251 21.2321 39.1559 21.2501H24.1809Z" fill="#FACE53"/>
<path d="M32.2959 23.75C32.0846 23.75 31.8796 23.775 31.6709 23.7812C31.4621 23.7875 31.2571 23.75 31.0459 23.75C26.2388 23.75 21.6287 25.6596 18.2296 29.0587C14.8305 32.4578 12.9209 37.068 12.9209 41.875C12.9209 46.682 14.8305 51.2922 18.2296 54.6913C21.6287 58.0904 26.2388 60 31.0459 60C31.2571 60 31.4621 59.975 31.6709 59.9687C31.8796 59.9625 32.0846 60 32.2959 60C37.1029 60 41.7131 58.0904 45.1122 54.6913C48.5113 51.2922 50.4209 46.682 50.4209 41.875C50.4209 37.068 48.5113 32.4578 45.1122 29.0587C41.7131 25.6596 37.1029 23.75 32.2959 23.75Z" fill="#FACE53"/>
<path d="M31.0459 57.5C39.6753 57.5 46.6709 50.5044 46.6709 41.875C46.6709 33.2456 39.6753 26.25 31.0459 26.25C22.4164 26.25 15.4209 33.2456 15.4209 41.875C15.4209 50.5044 22.4164 57.5 31.0459 57.5Z" fill="#FABB53"/>
<path d="M31.0459 55C38.2946 55 44.1709 49.1237 44.1709 41.875C44.1709 34.6263 38.2946 28.75 31.0459 28.75C23.7972 28.75 17.9209 34.6263 17.9209 41.875C17.9209 49.1237 23.7972 55 31.0459 55Z" fill="#FACE53"/>
<path d="M31.671 51.2499C31.3395 51.2499 31.0215 51.1182 30.7871 50.8838C30.5527 50.6494 30.421 50.3315 30.421 49.9999V36.8012L27.561 39.7049C27.4487 39.8325 27.3116 39.9359 27.158 40.0087C27.0044 40.0815 26.8376 40.1223 26.6677 40.1284C26.4979 40.1345 26.3286 40.106 26.1701 40.0445C26.0117 39.9829 25.8674 39.8897 25.7462 39.7706C25.625 39.6514 25.5294 39.5088 25.4652 39.3514C25.401 39.194 25.3695 39.0252 25.3728 38.8553C25.376 38.6853 25.4139 38.5178 25.4841 38.363C25.5543 38.2082 25.6553 38.0694 25.781 37.9549L30.781 32.8762C30.9549 32.6999 31.1772 32.5792 31.4198 32.5294C31.6624 32.4796 31.9143 32.503 32.1435 32.5967C32.3728 32.6903 32.5691 32.8498 32.7075 33.0552C32.8459 33.2605 32.9202 33.5023 32.921 33.7499V49.9999C32.921 50.3315 32.7893 50.6494 32.5549 50.8838C32.3205 51.1182 32.0025 51.2499 31.671 51.2499Z" fill="#FABB53"/>
</svg>
