<svg width="60" height="60" viewBox="0 0 60 60" fill="none" xmlns="http://www.w3.org/2000/svg">
<g clip-path="url(#clip0_16_6069)">
<path d="M57.5603 2.44001C54.3073 -0.813012 49.0145 -0.813012 45.7613 2.44001L48.5855 5.26421C50.2811 3.5686 53.0404 3.5686 54.7361 5.26421C56.4317 6.96008 56.4317 9.71931 54.7361 11.4149C53.0404 13.1105 50.2811 13.1105 48.5855 11.4149L47.1736 10.0028L42.2645 14.9118L36.8043 9.4517L33.9799 12.2759L35.3929 13.6891C34.0751 13.8826 32.8064 14.4849 31.7944 15.4968C29.6962 17.5953 29.3582 20.796 30.7779 23.2509L26.8914 19.3643L24.0671 22.1887L26.7495 24.8711C24.2584 24.7107 21.713 25.5782 19.8133 27.4779C18.0289 29.2622 17.1553 31.6166 17.1883 33.9601L14.7418 31.5138L11.9176 34.338L13.3307 35.751C12.0129 35.9444 10.744 36.547 9.73204 37.5589C7.63397 39.6571 7.29567 42.8581 8.71556 45.313L4.82908 41.4264L2.00488 44.2506L7.46515 49.7107L0 57.1757L2.8242 59.9999L10.2893 52.535L15.7495 57.9954L18.5738 55.171L14.6873 51.2846C17.1421 52.7046 20.343 52.3663 22.4411 50.2681C23.4532 49.2558 24.0557 47.9873 24.2491 46.6696L25.6622 48.0825L28.4865 45.2583L26.04 42.8119C28.3837 42.8449 30.7378 41.9714 32.5222 40.1869C34.4221 38.2869 35.2893 35.7415 35.1292 33.2504L37.8114 35.9328L40.6356 33.1086L36.7493 29.2223C39.204 30.642 42.4047 30.304 44.5032 28.2058C45.5153 27.1934 46.1176 25.9248 46.311 24.607L47.7241 26.0202L50.5483 23.1958L45.0882 17.7356L47.3439 15.4802C50.5517 17.4188 54.7936 17.0053 57.5598 14.2388C60.8132 10.9862 60.8132 5.6929 57.5603 2.44001ZM12.9599 44.2159L12.5564 43.8128C11.6108 42.8672 11.611 41.3288 12.5564 40.3831C13.5019 39.4376 15.0403 39.4376 15.9858 40.3831L16.3892 40.7867L12.9599 44.2159ZM19.6169 47.4437C18.6714 48.3893 17.1332 48.3893 16.1876 47.4437L15.7841 47.0403L19.2135 43.6108L19.6169 44.0144C20.5623 44.96 20.5623 46.4984 19.6169 47.4437ZM21.521 35.655C20.8214 33.8636 21.1927 31.7469 22.6375 30.3023C24.0821 28.8575 26.1989 28.4862 27.9903 29.1857L21.521 35.655ZM29.698 37.3628C28.2533 38.8076 26.1367 39.1789 24.3452 38.4792L30.8145 32.0101C31.5141 33.8015 31.1427 35.918 29.698 37.3628ZM35.0221 22.154L34.6186 21.7505C33.6731 20.8049 33.6731 19.2667 34.6186 18.3212C35.5642 17.3756 37.1024 17.3756 38.048 18.3212L38.4516 18.7244L35.0221 22.154ZM41.6791 25.3817C40.7336 26.3272 39.1954 26.3272 38.2497 25.3817L37.8463 24.9785L41.2759 21.5492L41.6791 21.9524C42.6245 22.8977 42.6244 24.4363 41.6791 25.3817Z" fill="black"/>
</g>
<defs>
<clipPath id="clip0_16_6069">
<rect width="60" height="60" fill="white"/>
</clipPath>
</defs>
</svg>
