<svg width="60" height="60" viewBox="0 0 60 60" fill="none" xmlns="http://www.w3.org/2000/svg">
<g clip-path="url(#clip0_16_14984)">
<path d="M50.2285 23.9572C49.445 23.5839 48.6289 23.269 47.7856 23.0173C46.9938 22.7807 46.1779 22.6002 45.3427 22.4804C44.5446 22.3659 43.7293 22.3049 42.8998 22.3049C40.6181 22.3049 38.4394 22.7545 36.4478 23.5695C36.1415 23.6949 35.8394 23.829 35.5422 23.9715C34.5018 24.4699 33.5193 25.0704 32.6078 25.7601C32.2171 26.0556 31.8394 26.3676 31.4759 26.6949C31.3547 26.804 31.2351 26.9147 31.117 27.0272C30.4087 27.702 29.7581 28.4368 29.1733 29.2232C29.0426 29.3989 28.9154 29.5771 28.7914 29.7577C28.5433 30.1191 28.3088 30.4903 28.0885 30.8707C27.9784 31.0608 27.8717 31.2535 27.7688 31.4483C27.6593 31.6552 27.5531 31.8642 27.452 32.076C27.1887 32.6288 26.9563 33.1985 26.7528 33.7817C26.6676 34.0252 26.5861 34.2706 26.512 34.5189C26.2755 35.3108 26.095 36.127 25.975 36.9618C25.8604 37.76 25.7998 38.5756 25.7998 39.4047C25.7998 41.4027 26.1454 43.321 26.778 45.1049C26.928 45.5281 27.094 45.9439 27.2755 46.3514C27.4572 46.7588 27.6541 47.1579 27.8659 47.5478C28.3347 48.4094 28.8755 49.2264 29.4797 49.9906C32.6142 53.9559 37.4647 56.505 42.9 56.505C52.3292 56.505 60.0002 48.8339 60.0002 39.4047C60.0001 32.5973 56.0007 26.7065 50.2285 23.9572Z" fill="#9BC9FF"/>
<path d="M10.4713 36.1273C11.9122 34.2603 13.6969 32.6719 15.73 31.4576C16.5749 30.9528 17.4625 30.5124 18.3864 30.1439C19.2936 29.7821 20.2355 29.4896 21.2055 29.2723C18.8837 27.1315 15.8406 25.9285 12.6415 25.9285C5.67095 25.9286 0 31.5995 0 38.5702C0 39.9194 1.09371 41.0131 2.4429 41.0131H7.75244C8.06802 40.1683 8.44244 39.3524 8.87146 38.5702C9.34174 37.7129 9.8774 36.8965 10.4713 36.1273Z" fill="#9CDD05"/>
<path d="M15.0846 13.7142C15.0846 12.3971 15.3378 11.1389 15.7934 9.98198C16.0989 9.20608 16.4962 8.47682 16.9727 7.80686C15.7586 6.91412 14.2611 6.38525 12.6417 6.38525C8.60069 6.38525 5.31299 9.67307 5.31299 13.7141C5.31299 17.755 8.60057 21.0425 12.6417 21.0425C14.2609 21.0425 15.7583 20.5138 16.9727 19.621C16.4962 18.9511 16.0988 18.2217 15.7933 17.446C15.3378 16.2891 15.0846 15.0309 15.0846 13.7142Z" fill="#EFC27B"/>
<path d="M25.3038 3.49463C21.8686 3.49463 18.8264 5.20006 16.9726 7.80679C16.4961 8.47663 16.0989 9.20612 15.7933 9.98191C15.3377 11.1389 15.0845 12.3971 15.0845 13.7141C15.0845 15.0308 15.3377 16.2891 15.7932 17.4461C16.0987 18.222 16.4961 18.951 16.9726 19.6211C18.8263 22.2278 21.8686 23.9335 25.3038 23.9335C30.9388 23.9335 35.5233 19.3491 35.5233 13.7142C35.5233 8.07936 30.9389 3.49463 25.3038 3.49463Z" fill="#EFC27B"/>
<path d="M26.7778 45.1051C26.1452 43.3213 25.7996 41.4031 25.7996 39.405C25.7996 38.5759 25.8602 37.7603 25.9748 36.9621C26.0948 36.1273 26.2753 35.3111 26.5117 34.5192C26.586 34.2709 26.6675 34.0254 26.7526 33.782C26.9561 33.1988 27.1885 32.6291 27.4519 32.0763C27.553 31.8643 27.6593 31.6555 27.7687 31.4486C28.1803 30.6693 28.6508 29.9259 29.1732 29.2234C27.9062 28.9569 26.6112 28.8193 25.3038 28.8193C23.8962 28.8193 22.5249 28.9765 21.2054 29.2723C20.2354 29.4895 19.2935 29.782 18.3863 30.1439C17.4624 30.5125 16.5749 30.9529 15.7299 31.4576C13.6968 32.6719 11.9121 34.2602 10.4712 36.1273C9.87742 36.8966 9.34164 37.7128 8.87125 38.5702C8.44222 39.3524 8.06769 40.1683 7.75222 41.0131C6.99179 43.0486 6.57495 45.2508 6.57495 47.5483C6.57495 48.8975 7.66866 49.9912 9.01785 49.9912H29.4795C28.8753 49.2269 28.3345 48.41 27.8657 47.5483C27.4419 46.7684 27.0779 45.9518 26.7778 45.1051Z" fill="#A4E276"/>
<path d="M46.3546 39.4052L48.0818 37.6778C49.0358 36.7239 49.0358 35.1772 48.0818 34.2231C47.1278 33.269 45.5811 33.2691 44.6271 34.2231L42.8999 35.9502L41.1727 34.2231C40.2187 33.269 38.6721 33.2691 37.718 34.2231C36.7639 35.177 36.7639 36.7238 37.718 37.6778L39.4454 39.4052L37.718 41.1328C36.7639 42.0867 36.7639 43.6333 37.718 44.5873C38.195 45.0643 38.82 45.3031 39.4454 45.3031C40.0703 45.3031 40.6957 45.0644 41.1727 44.5872L42.8999 42.8602L44.6271 44.5872C45.1043 45.0644 45.7291 45.3031 46.3546 45.3031C46.9794 45.3031 47.6049 45.0644 48.0818 44.5873C49.0358 43.6333 49.0358 42.0868 48.0818 41.1328L46.3546 39.4052Z" fill="#1A6FB0"/>
<path d="M41.1726 44.5871C40.6957 45.0643 40.0702 45.303 39.4455 45.303C38.8201 45.303 38.1949 45.0643 37.718 44.5872C36.764 43.6332 36.764 42.0866 37.718 41.1327L39.4455 39.4051L37.718 37.6779C36.764 36.7239 36.764 35.1772 37.718 34.2232C38.6721 33.2691 40.2189 33.269 41.1727 34.2232L42.9 35.9503V22.3049C37.2831 22.3049 32.2925 25.0291 29.1734 29.2233C28.651 29.9259 28.1805 30.6692 27.7689 31.4485C27.6595 31.6555 27.5532 31.8644 27.4522 32.0763C27.1888 32.6291 26.9564 33.1987 26.7528 33.7819C26.6676 34.0255 26.5861 34.2709 26.512 34.5192C26.2755 35.311 26.0952 36.1272 25.975 36.9621C25.8604 37.7602 25.7998 38.5759 25.7998 39.405C25.7998 41.4029 26.1454 43.3213 26.778 45.1051C27.0781 45.9517 27.4421 46.7683 27.8661 47.548C28.3348 48.4097 28.8756 49.2266 29.4799 49.9909C32.6143 53.9562 37.4648 56.5052 42.9001 56.5052V42.86L41.1726 44.5871Z" fill="#57A4FF"/>
<path d="M16.9727 7.8069C16.4962 8.47675 16.099 9.20624 15.7935 9.98191C15.3378 11.1389 15.0847 12.3971 15.0847 13.7141C15.0847 15.0308 15.338 16.2891 15.7935 17.4461C16.099 18.222 16.4964 18.951 16.9728 19.6211C18.8265 22.2278 21.8687 23.9335 25.3041 23.9335V3.49463C21.8688 3.49463 18.8266 5.20006 16.9727 7.8069Z" fill="#ECB45C"/>
<path d="M18.3864 30.1438C17.4625 30.5123 16.5751 30.9527 15.73 31.4575C13.6969 32.6718 11.9123 34.2601 10.4713 36.1272C9.87755 36.8965 9.34176 37.7127 8.87137 38.5701C8.44235 39.3523 8.06782 40.1681 7.75235 41.013C6.99191 43.0485 6.5752 45.2507 6.5752 47.5482C6.5752 48.8973 7.66891 49.9911 9.01809 49.9911H25.304V28.8193C23.8965 28.8193 22.5251 28.9765 21.2056 29.2723C20.2355 29.4897 19.2935 29.7822 18.3864 30.1438Z" fill="#64C37D"/>
<path d="M5.31299 13.714C5.31299 17.7323 8.56413 21.0043 12.5741 21.0409V6.38696C8.56413 6.42353 5.31299 9.69564 5.31299 13.714Z" fill="#ECB45C"/>
</g>
<defs>
<clipPath id="clip0_16_14984">
<rect width="60" height="60" fill="white"/>
</clipPath>
</defs>
</svg>
