<svg width="60" height="60" viewBox="0 0 60 60" fill="none" xmlns="http://www.w3.org/2000/svg">
<g clip-path="url(#clip0_16_14375)">
<path d="M29.9805 14.3311C28.236 14.3311 26.5342 14.6624 24.9224 15.3161C23.2514 15.9937 21.754 16.9875 20.4717 18.2698C19.1895 19.5521 18.1957 21.0495 17.5181 22.7205C16.8645 24.3322 16.533 26.034 16.5331 27.7786C16.5331 29.5231 16.8645 31.2249 17.5181 32.8366C18.1956 34.5075 19.1894 36.005 20.4717 37.2872C21.754 38.5696 23.2514 39.5633 24.9224 40.2409C26.5341 40.8945 28.236 41.226 29.9805 41.226C31.725 41.226 33.4268 40.8946 35.0386 40.2409C36.7095 39.5633 38.2071 38.5696 39.4894 37.2872C40.7716 36.0049 41.7653 34.5075 42.4429 32.8366C43.0965 31.2249 43.428 29.523 43.428 27.7785C43.428 26.034 43.0966 24.3322 42.4429 22.7205C41.7653 21.0495 40.7716 19.552 39.4893 18.2698C38.207 16.9875 36.7095 15.9938 35.0386 15.3161C33.4268 14.6624 31.725 14.3311 29.9805 14.3311ZM36.3948 34.1929C34.6235 35.964 32.3021 36.8497 29.9805 36.8497C27.6589 36.8497 25.3374 35.964 23.5662 34.1929C20.0236 30.6502 20.0236 24.9068 23.5662 21.3643C25.3373 19.593 27.6589 18.7073 29.9805 18.7073C32.3021 18.7073 34.6235 19.5929 36.3948 21.3643C39.9373 24.9068 39.9373 30.6502 36.3948 34.1929Z" fill="black"/>
<path d="M29.9806 41.2769C28.2294 41.2769 26.5211 40.9441 24.9032 40.288C23.226 39.608 21.7228 38.6103 20.4356 37.3232C19.1484 36.036 18.1508 34.533 17.4708 32.8556C16.8148 31.2378 16.4821 29.5296 16.4821 27.7784C16.482 26.0274 16.8146 24.3192 17.4708 22.7011C18.151 21.0237 19.1486 19.5206 20.4356 18.2335C21.7228 16.9463 23.2259 15.9488 24.9032 15.2685C26.521 14.6124 28.2294 14.2798 29.9806 14.2798C31.7317 14.2798 33.4399 14.6124 35.0578 15.2685C36.7353 15.9489 38.2385 16.9464 39.5254 18.2335C40.8127 19.5207 41.8101 21.0238 42.4902 22.7011C43.1463 24.3189 43.479 26.0272 43.479 27.7783C43.479 29.5296 43.1463 31.2378 42.4902 32.8556C41.8101 34.5328 40.8126 36.036 39.5255 37.3232C38.2382 38.6104 36.7351 39.608 35.0578 40.288C33.4399 40.9443 31.7317 41.2769 29.9806 41.2769ZM29.9806 14.382C28.2425 14.382 26.5472 14.7122 24.9416 15.3633C23.277 16.0384 21.7853 17.0283 20.5078 18.3058C19.2305 19.5831 18.2405 21.0749 17.5654 22.7396C16.9142 24.3453 16.5841 26.0407 16.5842 27.7785C16.5842 29.5164 16.9144 31.2117 17.5654 32.8174C18.2403 34.4819 19.2303 35.9735 20.5078 37.2511C21.7854 38.5286 23.277 39.5186 24.9416 40.1936C26.5472 40.8448 28.2425 41.1748 29.9806 41.1748C31.7185 41.1748 33.4138 40.8448 35.0194 40.1936C36.684 39.5186 38.1757 38.5286 39.4532 37.2511C40.7308 35.9734 41.7207 34.4818 42.3956 32.8174C43.0468 31.2117 43.3769 29.5165 43.3769 27.7784C43.3769 26.0405 43.0468 24.3451 42.3957 22.7396C41.7208 21.0751 40.7307 19.5834 39.4531 18.3058C38.1759 17.0284 36.6843 16.0385 35.0194 15.3633C33.4138 14.7122 31.7185 14.382 29.9806 14.382ZM29.9806 36.9007C27.5439 36.9007 25.2531 35.9519 23.5302 34.2289C19.9735 30.6721 19.9735 24.8848 23.5302 21.3281C25.253 19.6051 27.5439 18.6563 29.9806 18.6563C32.4173 18.6563 34.708 19.6052 36.431 21.3281C39.9876 24.8848 39.9876 30.6721 36.431 34.2289C34.7079 35.9519 32.4171 36.9007 29.9806 36.9007ZM29.9806 18.7583C27.5712 18.7583 25.306 19.6966 23.6024 21.4002C20.0854 24.9171 20.0854 30.6396 23.6024 34.1566C25.306 35.8602 27.5713 36.7984 29.9806 36.7984C32.3899 36.7984 34.6551 35.8601 36.3588 34.1566C39.8756 30.6396 39.8756 24.9171 36.3588 21.4002C34.6552 19.6966 32.39 18.7583 29.9806 18.7583Z" fill="black"/>
<path d="M23.6461 50.6033H36.3235C37.532 50.6033 38.5116 49.6237 38.5116 48.4152C38.5116 47.2069 37.532 46.2271 36.3235 46.2271H23.6461C22.4377 46.2271 21.458 47.2069 21.458 48.4152C21.458 49.6237 22.4377 50.6033 23.6461 50.6033Z" fill="black"/>
<path d="M36.3235 50.6542H23.6462C22.4115 50.6542 21.407 49.6497 21.407 48.415C21.407 47.1803 22.4115 46.1758 23.6462 46.1758H36.3235C37.5583 46.1758 38.5627 47.1803 38.5627 48.415C38.5627 49.6497 37.5583 50.6542 36.3235 50.6542ZM23.6462 46.2779C22.4679 46.2779 21.5091 47.2366 21.5091 48.415C21.5091 49.5933 22.4679 50.5521 23.6462 50.5521H36.3235C37.5019 50.5521 38.4606 49.5933 38.4606 48.415C38.4606 47.2366 37.5019 46.2779 36.3235 46.2779H23.6462Z" fill="black"/>
<path d="M23.6461 59.949H36.3235C37.532 59.949 38.5116 58.9694 38.5116 57.7609C38.5116 56.5524 37.532 55.5728 36.3235 55.5728H23.6461C22.4377 55.5728 21.458 56.5524 21.458 57.7609C21.458 58.9694 22.4377 59.949 23.6461 59.949Z" fill="black"/>
<path d="M36.3235 59.9999H23.6462C22.4115 59.9999 21.407 58.9954 21.407 57.7607C21.407 56.526 22.4115 55.5215 23.6462 55.5215H36.3235C37.5583 55.5215 38.5627 56.526 38.5627 57.7607C38.5627 58.9954 37.5583 59.9999 36.3235 59.9999ZM23.6462 55.6236C22.4679 55.6236 21.5091 56.5824 21.5091 57.7607C21.5091 58.939 22.4679 59.8978 23.6462 59.8978H36.3235C37.5019 59.8978 38.4606 58.939 38.4606 57.7607C38.4606 56.5824 37.5019 55.6236 36.3235 55.6236H23.6462Z" fill="black"/>
<path d="M18.3486 7.33673L9.3736 16.2903C8.51806 17.1438 8.51633 18.5292 9.36993 19.3849C9.79734 19.8133 10.3582 20.0275 10.919 20.0275C11.4781 20.0275 12.0373 19.8146 12.4644 19.3885L21.4393 10.435C22.2949 9.58146 22.2965 8.19605 21.443 7.34041C20.5895 6.48507 19.2041 6.48323 18.3486 7.33673Z" fill="black"/>
<path d="M10.919 20.0784C10.3199 20.0784 9.75692 19.8449 9.3338 19.4208C8.91139 18.9973 8.6791 18.4347 8.67981 17.8365C8.68053 17.2384 8.91405 16.6764 9.33758 16.254L18.3124 7.30037C18.7351 6.87868 19.2968 6.64648 19.8939 6.64648C20.493 6.64648 21.056 6.88001 21.4792 7.30415C22.3513 8.17839 22.3496 9.59894 21.4754 10.4709L12.5005 19.4244C12.0779 19.8462 11.5161 20.0784 10.919 20.0784ZM19.894 6.74864C19.3242 6.74864 18.7881 6.97021 18.3847 7.3727L9.4098 16.3263C9.00568 16.7294 8.78268 17.2658 8.78207 17.8366C8.78135 18.4075 9.00303 18.9444 9.40623 19.3486C9.81004 19.7534 10.3473 19.9763 10.9191 19.9763C11.489 19.9763 12.0251 19.7546 12.4285 19.3521L21.4034 10.3986C22.2377 9.56646 22.2392 8.21057 21.407 7.37627C21.0031 6.97154 20.4657 6.74864 19.894 6.74864Z" fill="black"/>
<path d="M11.7482 0.720544L2.77334 9.67415C1.9178 10.5276 1.91617 11.9131 2.76967 12.7687C3.19718 13.1971 3.75791 13.4114 4.31883 13.4114C4.87792 13.4114 5.43711 13.1985 5.86422 12.7723L14.8392 3.81878C15.6947 2.96528 15.6963 1.57986 14.8429 0.724324C13.9891 -0.131319 12.6037 -0.132851 11.7482 0.720544Z" fill="black"/>
<path d="M4.31868 13.4623C3.71955 13.4623 3.15658 13.2288 2.73335 12.8046C1.86136 11.9305 1.863 10.5099 2.73713 9.63787L11.712 0.684264C12.1347 0.262572 12.6963 0.0302734 13.2934 0.0302734C13.8926 0.0302734 14.4555 0.2639 14.8788 0.688044C15.7508 1.56218 15.7491 2.98273 14.875 3.85482L5.90023 12.8083C5.47752 13.2301 4.91587 13.4623 4.31868 13.4623ZM13.2936 0.132428C12.7237 0.132428 12.1877 0.354102 11.7843 0.756589L2.80935 9.71019C1.97516 10.5424 1.97353 11.8982 2.80578 12.7325C3.20959 13.1373 3.74692 13.3602 4.31878 13.3602C4.8887 13.3602 5.4247 13.1385 5.82811 12.736L14.8031 3.7825C15.2072 3.3794 15.4301 2.84298 15.4308 2.27215C15.4314 1.70131 15.2098 1.16439 14.8066 0.760267C14.4027 0.35543 13.8654 0.132428 13.2936 0.132428Z" fill="black"/>
<path d="M57.8683 10.0635C57.8664 8.50044 57.2561 7.03166 56.1496 5.92789L51.9719 1.76021C50.8673 0.658167 49.3995 0.0512695 47.8392 0.0512695C46.2735 0.0512695 44.8023 0.661742 43.6966 1.77011L40.4121 5.0607C38.1325 7.34579 38.1369 11.0581 40.4211 13.3368L44.5988 17.5045C45.7033 18.6065 47.1711 19.2134 48.7315 19.2134C50.2972 19.2134 51.7684 18.603 52.8741 17.4946L56.1587 14.204C57.2632 13.0968 57.8702 11.6266 57.8683 10.0635ZM53.0612 11.1124L49.7758 14.4038C49.4877 14.6926 49.1096 14.8372 48.7313 14.8372C48.3545 14.8372 47.9773 14.6935 47.6895 14.4063L43.5118 10.2386C42.935 9.66315 42.9339 8.72906 43.5093 8.15229L46.7947 4.86089C47.0829 4.5721 47.4609 4.42755 47.8392 4.42755C48.2161 4.42755 48.5931 4.57118 48.8811 4.85844L53.0588 9.02602C53.6354 9.60145 53.6367 10.5355 53.0612 11.1124Z" fill="black"/>
<path d="M48.7316 19.2643C47.1575 19.2643 45.6769 18.6521 44.5626 17.5405L40.385 13.3728C39.2706 12.261 38.6558 10.7794 38.6541 9.20102C38.6523 7.62243 39.2639 6.13926 40.376 5.02445L43.6604 1.73386C44.7758 0.615785 46.2599 0 47.8392 0C49.4132 0 50.8936 0.612209 52.008 1.72385L56.1857 5.89153C57.3019 7.00491 57.9176 8.48645 57.9195 10.0633C57.9214 11.6399 57.3089 13.1232 56.1948 14.2399L52.9103 17.5305C51.7948 18.6485 50.3109 19.2643 48.7316 19.2643ZM47.8392 0.102154C46.2873 0.102154 44.8289 0.707213 43.7327 1.80598L40.4483 5.09657C39.3555 6.19207 38.7546 7.6496 38.7563 9.20092C38.7581 10.752 39.3622 12.208 40.4573 13.3005L44.635 17.4681C45.7299 18.5606 47.1847 19.1622 48.7317 19.1622C50.2836 19.1622 51.7419 18.5571 52.838 17.4583L56.1226 14.1678C57.2174 13.0703 57.8192 11.6128 57.8173 10.0634C57.8154 8.51393 57.2104 7.05803 56.1135 5.96386L51.9358 1.79618C50.8408 0.70374 49.3861 0.102154 47.8392 0.102154ZM48.7315 14.8879C48.3245 14.8879 47.9416 14.7296 47.6534 14.4421L43.4757 10.2745C43.1871 9.98648 43.0279 9.6034 43.0274 9.19571C43.0269 8.78801 43.1852 8.40452 43.4732 8.11594L46.7586 4.82453C47.0469 4.53544 47.4307 4.37618 47.8391 4.37618C48.246 4.37618 48.6289 4.53452 48.9172 4.82198L53.0949 8.98966C53.6906 9.5841 53.6917 10.5524 53.0973 11.1482L49.8118 14.4396C49.5236 14.7288 49.1399 14.8879 48.7315 14.8879ZM47.8392 4.47844C47.4582 4.47844 47.1002 4.62697 46.8309 4.89676L43.5455 8.18816C43.2768 8.45744 43.1292 8.81528 43.1296 9.19571C43.1301 9.57613 43.2787 9.93357 43.5481 10.2022L47.7257 14.3699C47.9945 14.6382 48.3517 14.7859 48.7316 14.7859C49.1126 14.7859 49.4706 14.6374 49.7398 14.3676L53.0253 11.0762C53.5799 10.5202 53.5788 9.61668 53.0228 9.06209L48.8452 4.89441C48.5762 4.62615 48.2189 4.47844 47.8392 4.47844Z" fill="black"/>
</g>
<defs>
<clipPath id="clip0_16_14375">
<rect width="60" height="60" fill="white"/>
</clipPath>
</defs>
</svg>
