<svg width="512" height="512" viewBox="0 0 512 512" fill="none" xmlns="http://www.w3.org/2000/svg">
<g clip-path="url(#clip0_10_241)">
<path d="M256.004 512C397.389 512 512.004 397.385 512.004 256C512.004 114.615 397.389 0 256.004 0C114.619 0 0.00402832 114.615 0.00402832 256C0.00402832 397.385 114.619 512 256.004 512Z" fill="#A2DFE9"/>
<path d="M400.06 95.96H112.06V431.96H400.06V95.96Z" fill="white"/>
<path d="M400.1 432H112.1V448H400.1V432Z" fill="#DB2B42"/>
<path d="M400.14 64H112.14V96H400.14V64Z" fill="#3B3B3B"/>
<path d="M142.1 86C145.414 86 148.1 83.3137 148.1 80C148.1 76.6863 145.414 74 142.1 74C138.786 74 136.1 76.6863 136.1 80C136.1 83.3137 138.786 86 142.1 86Z" fill="#999999"/>
<path d="M160.1 86C163.414 86 166.1 83.3137 166.1 80C166.1 76.6863 163.414 74 160.1 74C156.786 74 154.1 76.6863 154.1 80C154.1 83.3137 156.786 86 160.1 86Z" fill="#999999"/>
<path d="M178.1 86C181.414 86 184.1 83.3137 184.1 80C184.1 76.6863 181.414 74 178.1 74C174.786 74 172.1 76.6863 172.1 80C172.1 83.3137 174.786 86 178.1 86Z" fill="#999999"/>
<path d="M360.1 87.96H224.1C219.7 87.96 216.1 84.36 216.1 79.96C216.1 75.56 219.7 71.96 224.1 71.96H360.1C364.5 71.96 368.1 75.56 368.1 79.96C368.1 84.36 364.5 87.96 360.1 87.96Z" fill="white"/>
<path d="M376.1 120H136.1V200H376.1V120Z" fill="#A2DFE9"/>
<path d="M376.1 223.92H136.1V303.92H376.1V223.92Z" fill="#DB2B42"/>
<path d="M376.1 328H136.1V408H376.1V328Z" fill="#A2DFE9"/>
</g>
<defs>
<clipPath id="clip0_10_241">
<rect width="512" height="512" fill="white" transform="translate(0.00402832)"/>
</clipPath>
</defs>
</svg>
