<svg width="60" height="60" viewBox="0 0 60 60" fill="none" xmlns="http://www.w3.org/2000/svg">
<g clip-path="url(#clip0_19_18511)">
<path d="M50.6422 48.3333C50.93 48.6431 51.0865 49.0524 51.0788 49.4751C51.071 49.8979 50.8996 50.3012 50.6006 50.6002C50.3017 50.8991 49.8984 51.0705 49.4756 51.0783C49.0529 51.086 48.6436 50.9295 48.3338 50.6417L25.8338 28.14C25.5416 27.8314 25.3813 27.4209 25.3871 26.9959C25.3929 26.5709 25.5643 26.1649 25.8649 25.8644C26.1654 25.5638 26.5714 25.3924 26.9964 25.3866C27.4214 25.3808 27.8319 25.5411 28.1405 25.8333L50.6422 48.3333Z" fill="#55ACEE"/>
<path d="M59.2688 55.7316C59.5076 55.9623 59.6981 56.2381 59.8291 56.5431C59.9601 56.8481 60.0291 57.1762 60.032 57.5081C60.0348 57.8401 59.9716 58.1693 59.8459 58.4765C59.7202 58.7838 59.5346 59.0629 59.2998 59.2976C59.0651 59.5324 58.786 59.718 58.4787 59.8437C58.1715 59.9694 57.8423 60.0326 57.5103 60.0298C57.1784 60.0269 56.8503 59.9579 56.5453 59.8269C56.2403 59.6959 55.9644 59.5054 55.7338 59.2666L46.3072 49.84C46.0684 49.6093 45.8779 49.3335 45.7469 49.0285C45.6159 48.7235 45.5469 48.3954 45.544 48.0635C45.5412 47.7315 45.6044 47.4023 45.7301 47.0951C45.8558 46.7878 46.0414 46.5087 46.2762 46.274C46.5109 46.0392 46.79 45.8536 47.0973 45.7279C47.4045 45.6022 47.7337 45.539 48.0657 45.5418C48.3976 45.5447 48.7257 45.6137 49.0307 45.7447C49.3357 45.8757 49.6116 46.0662 49.8422 46.305L59.2688 55.7316Z" fill="#292F33"/>
<path d="M4.07886 8.66648L5.25719 7.48815L25.2972 27.5165L24.1189 28.6948L4.07886 8.66648ZM6.44052 3.94982L7.61886 2.77148L28.8322 23.9848L27.6522 25.1631L6.44052 3.94982Z" fill="#99AAB5"/>
<path d="M1.72559 15.7349L15.8673 1.59326L17.0456 2.7716L2.90392 16.9133L1.72559 15.7349ZM2.90392 21.6266L20.5839 3.94993L21.7623 5.12826L4.08225 22.8066L2.90392 21.6266ZM6.44059 25.1633L25.2956 6.30826L26.4739 7.4866L7.61892 26.3416L6.44059 25.1633ZM11.1539 27.5216L27.6523 11.0216L28.8306 12.1999L12.3306 28.6999L11.1539 27.5216ZM15.8673 29.8766L30.0089 15.7349L31.1873 16.9133L17.0456 31.0566L15.8673 29.8766Z" fill="#99AAB5"/>
<path d="M1.72559 13.3783L2.90392 12.1999L20.5839 29.8766L19.4056 31.0549L1.72559 13.3783ZM12.3339 2.7716L13.5106 1.59326L31.1889 19.2699L30.0106 20.4499L12.3339 2.7716Z" fill="#99AAB5"/>
<path d="M4.11376 4.11335C-1.67124 9.90001 -1.08458 19.8667 5.42376 26.375C11.9338 32.885 21.8988 33.47 27.6838 27.685C33.4704 21.8983 32.8854 11.935 26.3738 5.42501C19.8654 -1.08499 9.90042 -1.67165 4.11376 4.11335ZM25.5238 25.5233C20.9688 30.0783 12.9654 29.4633 7.64876 24.1483C2.33376 18.8333 1.72042 10.8317 6.27542 6.27501C10.8321 1.71835 18.8338 2.33501 24.1488 7.65001C29.4638 12.965 30.0804 20.9683 25.5238 25.5233Z" fill="#55ACEE"/>
<path d="M28.8304 23.9849C29.1428 24.2975 29.3184 24.7213 29.3184 25.1632C29.3184 25.6052 29.1428 26.029 28.8304 26.3416L26.472 28.6999C26.3172 28.8546 26.1334 28.9774 25.9311 29.0611C25.7288 29.1448 25.512 29.1878 25.2931 29.1877C25.0742 29.1877 24.8575 29.1445 24.6552 29.0606C24.453 28.9768 24.2693 28.8539 24.1145 28.6991C23.9598 28.5442 23.8371 28.3604 23.7534 28.1581C23.6697 27.9558 23.6266 27.7391 23.6267 27.5201C23.6269 27.078 23.8026 26.6541 24.1154 26.3416L26.472 23.9849C26.6268 23.8299 26.8106 23.707 27.013 23.6231C27.2153 23.5393 27.4322 23.4961 27.6512 23.4961C27.8702 23.4961 28.0871 23.5393 28.2894 23.6231C28.4918 23.707 28.6756 23.8299 28.8304 23.9849Z" fill="#226699"/>
<path d="M30.0088 27.5198C30.1637 27.6746 30.2865 27.8583 30.3704 28.0605C30.4542 28.2627 30.4974 28.4795 30.4975 28.6984C30.4976 28.9173 30.4545 29.1341 30.3708 29.3364C30.2871 29.5387 30.1644 29.7225 30.0096 29.8773C29.8549 30.0322 29.6712 30.155 29.469 30.2389C29.2667 30.3227 29.05 30.3659 28.8311 30.366C28.6122 30.3661 28.3954 30.323 28.1931 30.2393C27.9908 30.1556 27.807 30.0329 27.6521 29.8782L26.4738 28.6998C26.1763 28.384 26.0135 27.9648 26.02 27.5309C26.0264 27.0971 26.2016 26.6829 26.5084 26.3761C26.8152 26.0693 27.2294 25.8941 27.6633 25.8876C28.0971 25.8812 28.5164 26.044 28.8321 26.3415L30.0088 27.5198Z" fill="#226699"/>
<path d="M49.2672 45.7334C50.2439 46.7084 49.0639 47.1134 48.0889 48.0901C47.1122 49.0651 46.7072 50.2434 45.7322 49.2684C45.4934 49.0378 45.303 48.762 45.172 48.4569C45.0409 48.1519 44.972 47.8239 44.9691 47.4919C44.9662 47.16 45.0295 46.8308 45.1552 46.5235C45.2809 46.2163 45.4665 45.9372 45.7012 45.7024C45.936 45.4677 46.2151 45.2821 46.5223 45.1564C46.8296 45.0307 47.1588 44.9674 47.4907 44.9703C47.8227 44.9732 48.1507 45.0422 48.4557 45.1732C48.7607 45.3042 49.0366 45.4947 49.2672 45.7334Z" fill="#226699"/>
<path d="M36.3505 5.30335C35.7256 5.92844 35.3745 6.77613 35.3745 7.66001C35.3745 8.54389 35.7256 9.39159 36.3505 10.0167L37.5288 11.195L38.7071 10.0167L41.0638 7.66001L42.2455 6.48168L41.0638 5.30335C40.4387 4.67844 39.591 4.32739 38.7071 4.32739C37.8233 4.32739 36.9756 4.67844 36.3505 5.30335Z" fill="#BE1931"/>
<path d="M37.5339 11.1933L42.2506 6.47998L43.4289 7.65831L38.7123 12.3733L37.5339 11.1933Z" fill="#99AAB5"/>
<path d="M38.7087 12.3732L43.4254 7.65991C45.8804 8.47325 58.6337 16.1082 58.1937 16.5499C56.9304 17.8149 55.0071 16.8849 55.0071 16.8849C55.0071 16.8849 56.4137 18.2282 55.2021 19.4382C53.9904 20.6482 52.6504 19.2416 52.6504 19.2416C52.6504 19.2416 54.2654 20.4766 52.8987 21.8482C51.5221 23.2249 50.2954 21.5999 50.2954 21.5999C50.2954 21.5999 51.5104 23.2349 50.4587 24.2882C49.4037 25.3399 47.9354 23.9566 47.9354 23.9566C47.9354 23.9566 48.6321 25.6199 47.3654 26.8832C46.7621 27.4899 39.6837 14.6666 38.7087 12.3732Z" fill="#E1E8ED"/>
<path d="M44.0238 13.0384C44.9872 11.9001 53.0772 19.2501 51.6572 20.6701C50.2355 22.0884 42.8655 14.4051 44.0238 13.0384ZM46.8655 25.4517C47.9988 24.7134 41.7455 15.7584 40.9738 16.4067C40.9222 16.4501 40.8988 16.5267 40.8855 16.6167C42.3572 19.3267 44.2288 22.6067 45.5922 24.7284C46.1522 25.2984 46.6188 25.6117 46.8655 25.4517ZM47.3188 10.0634C46.6672 10.8334 55.6255 17.0867 56.3638 15.9551C56.5555 15.6584 56.0805 15.0534 55.2705 14.3384C52.9295 12.8451 50.5481 11.4162 48.1288 10.0534C47.7288 9.94507 47.4322 9.93007 47.3188 10.0634ZM42.3372 14.8284C43.0472 14.1134 50.0722 22.4767 49.0072 23.3167C47.9438 24.1501 41.4822 15.6901 42.3372 14.8284ZM45.7388 11.4267C45.0255 12.1367 53.3888 19.1601 54.2255 18.0967C55.0622 17.0317 46.6022 10.5701 45.7388 11.4267Z" fill="#CCD6DD"/>
</g>
<defs>
<clipPath id="clip0_19_18511">
<rect width="60" height="60" fill="white" transform="translate(0.000488281)"/>
</clipPath>
</defs>
</svg>
