<svg width="60" height="60" viewBox="0 0 60 60" fill="none" xmlns="http://www.w3.org/2000/svg">
<g clip-path="url(#clip0_19_15590)">
<path d="M30 0C13.4315 0 0 13.4315 0 30C0 46.5675 13.4315 60 30 60C46.5675 60 60 46.5675 60 30C60 13.4315 46.5675 0 30 0ZM30 17.5C36.9025 17.5 42.5 23.0965 42.5 30C42.5 36.9025 36.9025 42.5 30 42.5C23.0965 42.5 17.5 36.9025 17.5 30C17.5 23.0965 23.0965 17.5 30 17.5Z" fill="#ECF0F1"/>
<path d="M0.234375 26.25C0.07903 27.5 0 28.75 0 30C0 46.5 13.4315 60 30 60C46.5675 60 60 46.5 60 30C60 28.75 59.92 27.5 59.765 26.25C57.9075 41 45.29 52.5 30 52.5C14.7105 52.5 2.09187 41 0.234375 26.25Z" fill="#BDC3C7"/>
<path d="M30 10C23.0965 10 17.5 15.5965 17.5 22.5C17.5 23.8203 17.7455 25.055 18.125 26.25C19.7293 21.198 24.4168 17.5 30 17.5C35.5825 17.5 40.27 21.198 41.875 26.25C42.255 25.055 42.5 23.8203 42.5 22.5C42.5 15.5965 36.9025 10 30 10Z" fill="#BDC3C7"/>
<path d="M51.21 8.74994C48.2825 5.74994 44.9325 3.5 41.3225 2.25L34.6925 18.5C36.1975 19 37.615 19.75 38.835 21C40.0575 22.25 40.9325 23.7499 41.5425 25.2499L57.785 18.5C56.32 15 54.14 11.7499 51.21 8.74994ZM18.6725 2.25C15.0612 3.5 11.7132 5.74994 8.78424 8.74994C5.85524 11.7499 3.67474 15 2.21024 18.5L18.4517 25.2499C19.062 23.7499 19.938 22.25 21.1585 21C22.379 19.75 23.797 19 25.3027 18.5L18.6725 2.25ZM57.785 41.2499L41.5425 34.4998C40.9325 35.9998 40.0575 37.4999 38.835 38.7499C37.615 39.9999 36.1975 40.7499 34.6925 41.4999L41.3225 57.7499C44.9325 56.2499 48.2825 53.9999 51.21 51.2499C54.14 48.2499 56.32 44.7499 57.785 41.2499ZM18.45 34.4998L2.20874 41.2499C3.67324 44.7499 5.85374 48.2499 8.78274 51.2499C11.7117 53.9999 15.0597 56.2499 18.6712 57.7499L25.3012 41.4999C23.7955 40.7499 22.3775 39.9999 21.157 38.7499C19.9367 37.4999 19.0602 35.9998 18.45 34.4998Z" fill="#E74C3C"/>
<path d="M5.625 39.75L2.1875 41.2499C3.652 44.7499 5.821 48.2499 8.75 51.2499C11.679 53.9999 15.0605 56.2499 18.672 57.7499L21.328 51.2499C14.9105 49.2499 9.434 45.25 5.625 39.75ZM54.375 39.75C50.565 45.25 45.09 49.2499 38.6725 51.2499L41.3275 57.7499C44.94 56.2499 48.2425 53.9999 51.1725 51.2499C54.1 48.2499 56.3475 44.7499 57.8125 41.2499L54.375 39.75Z" fill="#C0392B"/>
<path d="M22.8125 12.25C19.638 14.5 17.5 18.2499 17.5 22.4999C17.5 23.2499 17.5678 23.9999 17.7345 24.9999L18.4375 25.2499C19.0478 23.7499 19.9515 22.25 21.172 21C22.3922 19.75 23.8078 18.9998 25.3125 18.2498L22.8125 12.25ZM37.1875 12.25L34.6875 18.2498C36.1925 18.9998 37.6075 19.75 38.8275 21C40.0475 22.25 40.9525 23.7499 41.5625 25.2499L42.265 24.9999C42.4325 23.9999 42.5 23.2499 42.5 22.4999C42.5 18.2499 40.3625 14.5 37.1875 12.25Z" fill="#C0392B"/>
</g>
<defs>
<clipPath id="clip0_19_15590">
<rect width="60" height="60" fill="white"/>
</clipPath>
</defs>
</svg>
