<svg width="60" height="60" viewBox="0 0 60 60" fill="none" xmlns="http://www.w3.org/2000/svg">
<path d="M6.9638 0.0151367V1.04491V12.4179L27.836 12.4386V9.9184H30.4208V12.4426H33.5226V9.9184H36.1074V12.4467H37.4321H37.4486H37.4652C39.5251 12.424 41.4061 13.4865 42.4409 15.2577C43.4769 17.0315 43.4685 19.1849 42.4409 20.9644C41.4128 22.7444 39.5466 23.8148 37.4975 23.8037H37.481L22.5214 23.8284C16.041 23.8056 10.0348 27.2752 6.79863 32.8792C3.55574 38.4948 3.58728 45.4424 6.85924 51.0414C10.1273 56.6363 16.1504 60.0531 22.6265 59.9994H51.9478V47.6085H36.1078V49.8988H33.523V47.6085H30.4212V49.8988H27.8364V47.6085H22.5659H22.5376H22.521C20.4611 47.6312 18.598 46.5602 17.5615 44.7854C16.5235 43.0086 16.519 40.8507 17.5449 39.0745C18.5721 37.2954 20.4598 36.2077 22.5045 36.2191H22.521L37.4361 36.1944C43.9264 36.2254 49.9606 32.7875 53.2034 27.1718C56.4466 21.5554 56.4111 14.5929 53.1389 8.99343C49.87 3.39696 43.8315 -0.0347473 37.3555 0.0194042H6.9638V0.0151367Z" fill="#5A3392"/>
<path d="M9.03844 2.06787L37.3541 2.08854H37.3699C43.1116 2.03477 48.4707 5.06584 51.3675 10.0252C54.264 14.9837 54.2694 21.1547 51.3987 26.1272C48.5282 31.0981 43.1828 34.1541 37.4317 34.1249L22.5183 34.1456H22.5025C19.7156 34.1249 17.1351 35.6223 15.7403 38.0377C14.3453 40.4533 14.3825 43.4188 15.7872 45.8214C17.1888 48.2208 19.7506 49.6742 22.5342 49.6524H22.5655H49.8737V57.9094H22.6265H22.6107C16.869 57.9632 11.5259 54.9334 8.62836 49.9728C5.73145 45.0132 5.72602 38.8746 8.59708 33.9012C11.4641 28.9366 16.7804 25.8663 22.5184 25.8883L37.4777 25.8676H37.4934C40.2761 25.8883 42.8464 24.4046 44.2404 21.991C45.6335 19.5783 45.6154 16.6132 44.2091 14.207C42.8057 11.8044 40.2306 10.3388 37.4469 10.3608H37.4311H9.03895V2.07316L9.03844 2.06787Z" fill="#EE746C"/>
<path d="M9.6701 2.90681V10.3501L37.4365 10.3708H37.4531C40.2366 10.3481 42.8104 11.801 44.2138 14.2035C45.6197 16.6096 45.6227 19.5776 44.2304 21.9905C43.3563 23.5043 42.0195 24.6457 40.4581 25.2861C39.4741 25.7422 38.3942 25.9993 37.2716 25.9929H37.2551L22.7439 26.0136C17.1782 25.9929 12.0234 28.9684 9.24231 33.7842C6.45836 38.6082 6.46055 44.563 9.27062 49.3737C12.0813 54.1856 17.2673 57.1263 22.8368 57.0716H22.8533H49.2829V49.6528H22.5707H22.5384C19.7494 49.6795 17.1815 48.2274 15.7776 45.824C14.3733 43.4212 14.3512 40.4529 15.7453 38.0373C16.633 36.4999 18.0023 35.3442 19.5982 34.7051C20.5685 34.2644 21.6274 34.0163 22.7282 34.0229H22.7448L37.2115 34.0022C42.7901 34.0313 47.973 31.0657 50.7575 26.2438C53.5411 21.4203 53.5388 15.4358 50.7292 10.6259C47.9192 5.81523 42.7205 2.86921 37.151 2.924H37.1345L9.671 2.90332L9.6701 2.90681Z" fill="#FB9761"/>
<path d="M17.0521 5.17752V7.25352H37.7661C41.6777 7.253 45.2964 9.26306 47.2606 12.6268C49.2264 15.9934 49.2389 20.1494 47.2919 23.5256C45.3427 26.9022 41.7258 28.9814 37.8279 28.96L22.8839 28.9807C18.2506 28.9579 13.9653 31.4256 11.6492 35.4376C9.33062 39.4539 9.33954 44.4079 11.6805 48.4127C14.0192 52.4173 18.3242 54.8661 22.9609 54.8236L47.2926 54.8029V52.7424H22.9455C19.0461 52.7819 15.4322 50.7357 13.4663 47.3694C11.4991 44.0029 11.4867 39.8468 13.435 36.4704C15.3842 33.094 18.9859 31.0148 22.8837 31.036L37.8278 31.0153C42.4666 31.038 46.7594 28.5741 49.0778 24.5583C51.3947 20.5421 51.3858 15.5881 49.0465 11.5833C46.7064 7.57583 42.3911 5.17159 37.7661 5.17236H17.0519L17.0521 5.17752Z" fill="white"/>
<path d="M11.0989 1.04114V11.3753H13.1749V1.04102L11.0989 1.04114Z" fill="white"/>
<path d="M15.7087 1.04114V11.3753H17.7695V1.04102L15.7087 1.04114Z" fill="white"/>
<path d="M12.1326 3.10889V5.17672H15.7513V3.10889H12.1326Z" fill="white"/>
<path d="M12.1326 7.24463V9.31247H15.7513V7.24463H12.1326Z" fill="white"/>
<path d="M8.51392 5.17676V7.2446H12.1326V5.17676H8.51392Z" fill="white"/>
<path d="M6.96375 0.00709195V1.04488V12.4179H27.836V10.3463H9.0396V2.05839L37.3552 2.08114H37.3709C43.1127 2.02531 48.4684 5.05779 51.3651 10.0171C54.2617 14.9757 54.2681 21.1471 51.3964 26.1199C48.5259 31.0908 43.1815 34.1459 37.4305 34.1163L22.5153 34.1391H22.4995C19.7126 34.1163 17.1335 35.6171 15.7388 38.0324C14.3437 40.4481 14.3825 43.4123 15.7857 45.8149C17.1873 48.2143 19.7467 49.6696 22.5303 49.6479H22.5616H27.8321V47.588H22.5616H22.5303H22.5145C20.4546 47.6108 18.5915 46.5395 17.555 44.7647C16.517 42.9879 16.5135 40.83 17.5393 39.0538C18.5666 37.2747 20.4542 36.1868 22.4989 36.1984H22.5147L37.4297 36.1756C43.92 36.2067 49.9542 32.7685 53.197 27.1529C56.4403 21.5368 56.4089 14.5742 53.1344 8.97479C49.8654 3.37818 43.8271 -0.05352 37.351 0.000631538H6.95949L6.96375 0.00709195ZM30.4208 10.3543V12.4261H33.5225V10.3502H30.4208V10.3543ZM36.1072 10.3543V12.4303H37.4319H37.4477H37.4635C39.5234 12.4075 41.4045 13.4697 42.4392 15.241C43.4752 17.0148 43.4668 19.1682 42.4392 20.9477C41.4111 22.7277 39.5449 23.7983 37.4958 23.787H37.48L22.5205 23.8097C16.0401 23.787 10.0338 27.2563 6.79768 32.8605C3.55479 38.4764 3.5902 45.4238 6.86023 51.0227C10.1284 56.6176 16.1514 60.0346 22.6275 59.9809H51.9488V47.59H36.1088V49.6498H49.8768V57.9047H22.6275H22.6117C16.87 57.9585 11.5272 54.9295 8.62953 49.9689C5.73261 45.0093 5.72615 38.872 8.59825 33.8987C11.4653 28.9338 16.782 25.8636 22.5198 25.8858L37.4794 25.8631H37.4951C40.2778 25.8858 42.85 24.3998 44.2439 21.9859C45.637 19.5732 45.6178 16.6095 44.2126 14.2032C42.8092 11.8006 40.2354 10.3323 37.4517 10.3543H37.4359H36.1112H36.1072ZM30.4208 47.5835V49.6434H33.5225V47.5835H30.4208Z" fill="#5A3392"/>
</svg>
