<svg width="61" height="60" viewBox="0 0 61 60" fill="none" xmlns="http://www.w3.org/2000/svg">
<path d="M57.7959 38.5311C57.8896 38.9999 57.6084 39.4686 57.2334 39.5624L55.2646 39.9374L53.2959 28.4999L54.9834 28.3124C55.4521 28.2186 55.9209 28.4999 56.0146 28.9686L57.7959 38.5311Z" fill="#3E4347"/>
<path d="M53.2021 25.9689C53.2021 25.9689 54.4209 25.5002 54.4209 23.4377H32.0146C30.0459 23.4377 27.5146 23.3439 25.2646 27.6564C23.2959 31.3127 20.2959 35.2502 20.2021 35.3439C8.57713 35.3439 5.76463 41.6252 5.01463 42.3752C3.79588 43.5939 4.17088 51.1877 4.17088 51.1877H54.4209C54.4209 51.1877 56.8584 51.1877 56.8584 47.3439C56.7646 43.4064 53.2021 25.9689 53.2021 25.9689Z" fill="#42ADE2"/>
<path d="M5.8584 52.0312C5.8584 52.5 5.4834 52.875 5.01465 52.875H3.13965C2.6709 52.875 2.2959 52.5 2.2959 52.0312V47.7188C2.2959 47.25 2.6709 46.875 3.13965 46.875H4.9209C5.38965 46.875 5.76465 47.25 5.76465 47.7188L5.8584 52.0312Z" fill="#3E4347"/>
<path d="M36.8896 52.0313C36.8896 52.5 36.5146 52.875 36.0459 52.875H24.7959C24.3271 52.875 23.9521 52.5 23.9521 52.0313V50.3438C23.9521 49.875 24.3271 49.5 24.7959 49.5H36.0459C36.5146 49.5 36.8896 49.875 36.8896 50.3438V52.0313Z" fill="#3E4347"/>
<path d="M58.5459 52.0313C58.5459 52.5 58.1709 52.875 57.7021 52.875H55.9209C55.4521 52.875 55.0771 52.5 55.0771 52.0313V46.875C55.0771 46.4063 55.4521 46.0312 55.9209 46.0312H57.7021C58.1709 46.0312 58.5459 46.4063 58.5459 46.875V52.0313Z" fill="#3E4347"/>
<path d="M15.5146 41.9063C18.9834 41.9063 21.9834 43.9687 23.4834 46.9687C22.7334 43.0312 19.4521 40.0312 15.5146 40.0312C11.5771 40.0312 8.2959 43.0312 7.5459 46.9687C9.0459 43.875 12.0459 41.9063 15.5146 41.9063Z" fill="#B4D7EE"/>
<path d="M45.3271 41.9063C48.7959 41.9063 51.7021 43.9687 53.2021 46.9687C52.5459 43.0312 49.2646 40.0312 45.3271 40.0312C41.3897 40.0312 38.1084 43.0312 37.4521 46.9687C38.9521 43.875 41.9521 41.9063 45.3271 41.9063Z" fill="#B4D7EE"/>
<path d="M4.07715 46.0312C4.07715 46.0312 4.07715 43.6875 4.5459 43.2187C5.01465 42.6562 6.2334 42.4688 7.3584 42.6563C8.20215 42.8438 6.88965 45.0937 4.07715 46.0312Z" fill="#D6EEF0"/>
<path d="M39.5146 35.8125C39.5146 36.4688 39.9834 36.9375 40.5459 36.9375H49.1709C49.7334 36.9375 50.1084 36.4688 50.0146 35.8125L48.5146 27.75C48.4209 27.0938 47.8584 26.625 47.2959 26.625H40.5459C39.9834 26.625 39.5146 27.0938 39.5146 27.75V35.8125Z" fill="#3E4347"/>
<path d="M37.4521 27.75C37.4521 27.0938 36.9834 26.625 36.4209 26.625H30.7021C30.1396 26.625 29.4834 27.0938 29.2021 27.6563L24.9834 36C24.7021 36.5625 24.9834 37.0312 25.5459 37.0312H36.4209C36.9834 37.0312 37.4521 36.5625 37.4521 35.9062V27.75Z" fill="#3E4347"/>
<path d="M15.5146 58.125C19.8639 58.125 23.3896 54.6412 23.3896 50.3437C23.3896 46.0463 19.8639 42.5625 15.5146 42.5625C11.1654 42.5625 7.63965 46.0463 7.63965 50.3437C7.63965 54.6412 11.1654 58.125 15.5146 58.125Z" fill="#3E4347"/>
<path d="M15.5146 54.75C17.9999 54.75 20.0146 52.7773 20.0146 50.3438C20.0146 47.9102 17.9999 45.9375 15.5146 45.9375C13.0294 45.9375 11.0146 47.9102 11.0146 50.3438C11.0146 52.7773 13.0294 54.75 15.5146 54.75Z" fill="#E8E8E8"/>
<path d="M16.5457 48.1875C16.3582 48.75 15.8894 49.2187 15.5144 49.2187C15.1394 49.2187 14.6707 48.75 14.4832 48.1875V48.0937C14.2957 47.5312 14.7644 47.0625 15.6082 47.0625C16.2644 47.0625 16.7332 47.5313 16.5457 48.1875Z" fill="#3E4347"/>
<path d="M14.1083 48.3751C14.577 48.8438 14.7645 49.5001 14.4833 49.7813C14.2958 50.1563 13.6395 50.2501 12.9833 50.1563H12.8895C12.2333 50.0626 12.0458 49.4063 12.5145 48.6563C12.9833 48.0001 13.6395 47.8126 14.1083 48.3751Z" fill="#3E4347"/>
<path d="M12.9834 50.5314C13.6396 50.4376 14.2959 50.5314 14.4834 50.9064C14.6709 51.2814 14.4834 51.9376 14.1084 52.3126L14.0146 52.4064C13.5459 52.8751 12.8896 52.6876 12.5146 52.0314C12.1396 51.3751 12.3271 50.7189 12.9834 50.5314Z" fill="#3E4347"/>
<path d="M14.3896 52.5C14.5771 51.9375 15.0458 51.4688 15.4208 51.4688C15.7958 51.4688 16.2646 51.9375 16.4521 52.5V52.5937C16.6396 53.1562 16.1708 53.625 15.3271 53.625C14.6708 53.7187 14.2021 53.1562 14.3896 52.5Z" fill="#3E4347"/>
<path d="M16.827 52.3126C16.3582 51.8439 16.1707 51.1876 16.452 50.9064C16.6395 50.5314 17.2957 50.4376 17.952 50.5314H18.0457C18.702 50.6251 18.8895 51.2814 18.4207 52.0314C18.0457 52.6876 17.3895 52.8751 16.827 52.3126Z" fill="#3E4347"/>
<path d="M17.952 50.1564C17.2957 50.2501 16.6395 50.1564 16.452 49.7814C16.2645 49.4064 16.452 48.7501 16.827 48.3751L16.9207 48.2814C17.3895 47.8126 18.0457 48.0001 18.4207 48.6564C18.7957 49.3126 18.6082 49.9689 17.952 50.1564Z" fill="#3E4347"/>
<path d="M17.9521 53.4375L16.9209 54L12.9834 47.25L14.0146 46.6875L17.9521 53.4375Z" fill="#E8E8E8"/>
<path d="M11.4834 49.7812H19.3584V50.9063H11.4834V49.7812Z" fill="#E8E8E8"/>
<path d="M16.9209 46.6875L17.9521 47.25L14.0146 54L12.9834 53.4375L16.9209 46.6875Z" fill="#E8E8E8"/>
<path d="M45.3271 58.125C49.6764 58.125 53.2021 54.6412 53.2021 50.3437C53.2021 46.0463 49.6764 42.5625 45.3271 42.5625C40.9779 42.5625 37.4521 46.0463 37.4521 50.3437C37.4521 54.6412 40.9779 58.125 45.3271 58.125Z" fill="#3E4347"/>
<path d="M45.3272 54.75C47.8124 54.75 49.8272 52.7773 49.8272 50.3438C49.8272 47.9102 47.8124 45.9375 45.3272 45.9375C42.8419 45.9375 40.8271 47.9102 40.8271 50.3438C40.8271 52.7773 42.8419 54.75 45.3272 54.75Z" fill="#E8E8E8"/>
<path d="M46.4519 48.1875C46.2644 48.75 45.7957 49.2187 45.4207 49.2187C45.0457 49.2187 44.4832 48.75 44.2957 48.1875V48.0937C44.1082 47.5312 44.5769 47.0625 45.4207 47.0625C46.1707 47.0625 46.6394 47.5313 46.4519 48.1875Z" fill="#3E4347"/>
<path d="M44.0145 48.3751C44.4833 48.8438 44.6708 49.5001 44.3895 49.7813C44.202 50.1563 43.5458 50.2501 42.8895 50.1563H42.7958C42.1395 50.0626 41.952 49.4063 42.4208 48.6563C42.7958 48.0001 43.452 47.8126 44.0145 48.3751Z" fill="#3E4347"/>
<path d="M42.8896 50.5314C43.5459 50.4376 44.2021 50.5314 44.3896 50.9064C44.5771 51.2814 44.3896 51.9376 44.0146 52.3126L43.9209 52.4064C43.4521 52.8751 42.7959 52.6876 42.4209 52.0314C42.0459 51.3751 42.2334 50.7189 42.8896 50.5314Z" fill="#3E4347"/>
<path d="M44.2958 52.5C44.4833 51.9375 44.9521 51.4688 45.3271 51.4688C45.7021 51.4688 46.1708 51.9375 46.3583 52.5V52.5937C46.5458 53.1562 46.0771 53.625 45.2333 53.625C44.5771 53.7187 44.1083 53.1562 44.2958 52.5Z" fill="#3E4347"/>
<path d="M46.7332 52.3126C46.2645 51.8439 46.077 51.1876 46.3582 50.9064C46.5457 50.5314 47.202 50.4376 47.8582 50.5314H47.952C48.6082 50.6251 48.7957 51.2814 48.327 52.0314C47.8582 52.6876 47.202 52.8751 46.7332 52.3126Z" fill="#3E4347"/>
<path d="M47.8582 50.1564C47.202 50.2501 46.5457 50.1564 46.3582 49.7814C46.1707 49.4064 46.3582 48.7501 46.7332 48.3751L46.827 48.2814C47.2957 47.8126 47.952 48.0001 48.327 48.6564C48.702 49.3126 48.5145 49.9689 47.8582 50.1564Z" fill="#3E4347"/>
<path d="M47.8584 53.4375L46.8271 54L42.8896 47.25L43.9209 46.6875L47.8584 53.4375Z" fill="#E8E8E8"/>
<path d="M41.3896 49.7812H49.2646V50.9063H41.3896V49.7812Z" fill="#E8E8E8"/>
<path d="M46.8271 46.6875L47.8584 47.25L43.9209 54L42.8896 53.4375L46.8271 46.6875Z" fill="#E8E8E8"/>
<path d="M35.7647 19.6875C35.7647 19.6875 33.7959 20.625 33.7959 23.4375H35.7647C35.7647 23.4375 35.5771 21 37.5459 19.6875H35.7647Z" fill="#3E4347"/>
<path d="M46.9209 19.6875C46.9209 19.6875 48.8896 20.625 48.8896 23.4375H46.9209C46.9209 23.4375 47.1084 21 45.1396 19.6875H46.9209Z" fill="#3E4347"/>
<path d="M32.7646 20.625H49.7334C51.1396 20.625 51.1396 18.75 49.7334 18.75H32.7646C31.3584 18.75 31.3584 20.625 32.7646 20.625Z" fill="#3E4347"/>
</svg>
