<svg width="800" height="801" viewBox="0 0 800 801" fill="none" xmlns="http://www.w3.org/2000/svg">
<path d="M400 775.121C607.107 775.121 775 607.228 775 400.121C775 193.014 607.107 25.1211 400 25.1211C192.893 25.1211 25 193.014 25 400.121C25 607.228 192.893 775.121 400 775.121Z" fill="#00ADFE"/>
<path opacity="0.3" d="M400 700.121C565.685 700.121 700 565.807 700 400.121C700 234.436 565.685 100.121 400 100.121C234.315 100.121 100 234.436 100 400.121C100 565.807 234.315 700.121 400 700.121Z" fill="white"/>
<path d="M400 25.1211C335.797 25.1176 272.668 41.5979 216.66 72.9837C160.651 104.369 113.639 149.609 80.125 204.371C106.156 267.82 150.469 322.094 207.428 360.291C264.387 398.489 331.419 418.884 400 418.884C468.581 418.884 535.613 398.489 592.572 360.291C649.531 322.094 693.844 267.82 719.875 204.371C686.361 149.609 639.349 104.369 583.34 72.9837C527.332 41.5979 464.203 25.1176 400 25.1211Z" fill="#8F5653"/>
<path opacity="0.3" d="M400 25.1211C335.797 25.1176 272.668 41.5979 216.66 72.9837C160.651 104.369 113.639 149.609 80.125 204.371C106.156 267.82 150.469 322.094 207.428 360.291C264.387 398.489 331.419 418.884 400 418.884C468.581 418.884 535.613 398.489 592.572 360.291C649.531 322.094 693.844 267.82 719.875 204.371C686.361 149.609 639.349 104.369 583.34 72.9837C527.332 41.5979 464.203 25.1176 400 25.1211Z" fill="#356CB6"/>
<path opacity="0.5" d="M277.312 45.6836C258.883 52.0095 240.975 59.7621 223.75 68.8711C257.187 276.871 323.75 418.871 400 418.871C345.875 418.871 299.187 266.371 277.312 45.6836Z" fill="#393C54"/>
<path opacity="0.5" d="M576.25 68.8711C559.031 59.698 541.123 51.8826 522.687 45.4961C500.812 266.371 454.125 418.871 400 418.871C476.5 418.871 542.812 277.059 576.25 68.8711Z" fill="#393C54"/>
<path opacity="0.1" d="M400 304.996C363.187 304.996 331.25 194.559 316.438 34.4961C303.763 37.3662 291.246 40.8918 278.938 45.0586C301.688 199.371 347.312 304.996 400 304.996Z" fill="white"/>
<path opacity="0.1" d="M483.563 34.4961C468.75 194.559 436.812 304.996 400 304.996C452.687 304.996 498.312 199.371 520.937 45.0586C508.67 40.8959 496.195 37.3704 483.563 34.4961Z" fill="white"/>
<path d="M584.125 347.621L666.437 233.934" stroke="#8F5653" stroke-width="8.4375" stroke-miterlimit="10" stroke-linecap="round"/>
<path opacity="0.1" d="M584.125 347.621L666.437 233.934" stroke="white" stroke-width="8.4375" stroke-miterlimit="10" stroke-linecap="round"/>
<path d="M533.625 347.621H584.125" stroke="#7F3838" stroke-width="8.4375" stroke-linecap="round" stroke-linejoin="round"/>
<path d="M717.312 200.121C706.398 192.526 693.147 189.043 679.909 190.29C666.671 191.537 654.303 197.432 644.998 206.931C635.694 216.43 630.056 228.918 629.083 242.179C628.111 255.44 631.868 268.617 639.687 279.371L768.375 456.371C769 457.246 769.687 457.996 770.375 458.809C773.427 439.395 774.973 419.774 775 400.121C775.118 329.334 755.112 259.972 717.312 200.121Z" fill="#8F5653"/>
<path d="M215.875 347.621L133.562 233.934" stroke="#8F5653" stroke-width="8.4375" stroke-miterlimit="10" stroke-linecap="round"/>
<path opacity="0.1" d="M215.875 347.621L133.562 233.934" stroke="white" stroke-width="8.4375" stroke-miterlimit="10" stroke-linecap="round"/>
<path d="M266.375 347.621H215.875" stroke="#7F3838" stroke-width="8.4375" stroke-linecap="round" stroke-linejoin="round"/>
<path d="M148.688 201.558C139.247 194.408 127.791 190.42 115.952 190.162C104.112 189.904 92.4929 193.389 82.75 200.121C44.913 259.957 24.8831 329.325 25 400.121C25.0218 418.044 26.3168 435.943 28.875 453.683C29.5625 452.808 30.375 451.996 31.0625 451.121L159.75 280.308C168.721 268.397 172.595 253.41 170.521 238.643C168.446 223.876 160.593 210.537 148.688 201.558Z" fill="#8F5653"/>
<path d="M589.062 572.371L627.563 402.434" stroke="#7F3838" stroke-width="6.5625" stroke-linecap="round" stroke-linejoin="round"/>
<path d="M538.5 572.371H589.062" stroke="#8F5653" stroke-width="6.5625" stroke-miterlimit="10" stroke-linecap="round"/>
<path d="M627.562 402.434L691.125 487.559" stroke="#8F5653" stroke-width="6.5625" stroke-miterlimit="10" stroke-linecap="round"/>
<path d="M485.938 483.684L538.5 572.371" stroke="#7F3838" stroke-width="6.5625" stroke-linecap="round" stroke-linejoin="round"/>
<path d="M210.937 572.371L172.438 402.434" stroke="#7F3838" stroke-width="6.5625" stroke-linecap="round" stroke-linejoin="round"/>
<path d="M261.5 572.371H210.938" stroke="#8F5653" stroke-width="6.5625" stroke-miterlimit="10" stroke-linecap="round"/>
<path d="M172.438 402.434L108.875 487.559" stroke="#8F5653" stroke-width="6.5625" stroke-miterlimit="10" stroke-linecap="round"/>
<path d="M314.062 483.684L261.5 572.371" stroke="#7F3838" stroke-width="6.5625" stroke-linecap="round" stroke-linejoin="round"/>
<path d="M505.813 545.933H294.188C285.771 545.94 277.439 544.246 269.693 540.954C261.947 537.661 254.945 532.838 249.109 526.774C243.272 520.71 238.72 513.529 235.727 505.663C232.733 497.796 231.359 489.406 231.688 480.996L239.75 306.808C240.233 293.075 245.255 279.89 254.031 269.316C262.807 258.742 274.841 251.376 288.25 248.371C361.835 232.245 438.04 232.245 511.625 248.371C525.034 251.376 537.068 258.742 545.844 269.316C554.62 279.89 559.642 293.075 560.125 306.808L568.188 480.996C568.515 489.396 567.145 497.775 564.159 505.633C561.173 513.491 556.633 520.666 550.81 526.729C544.986 532.792 538 537.617 530.268 540.917C522.537 544.217 514.219 545.923 505.813 545.933Z" fill="#8F5653"/>
<path d="M347.5 379.809C373.043 379.809 393.75 359.102 393.75 333.559C393.75 308.015 373.043 287.309 347.5 287.309C321.957 287.309 301.25 308.015 301.25 333.559C301.25 359.102 321.957 379.809 347.5 379.809Z" fill="#393C54"/>
<path opacity="0.1" d="M320 333.559C320.082 326.319 323.016 319.405 328.164 314.315C333.313 309.225 340.26 306.371 347.5 306.371" stroke="white" stroke-width="1.875" stroke-miterlimit="10" stroke-linecap="round"/>
<path d="M278.125 319.496C291.069 319.496 301.562 309.003 301.562 296.059C301.562 283.114 291.069 272.621 278.125 272.621C265.181 272.621 254.688 283.114 254.688 296.059C254.688 309.003 265.181 319.496 278.125 319.496Z" fill="#393C54"/>
<path opacity="0.5" d="M267.188 296.059C267.188 293.158 268.34 290.376 270.391 288.325C272.442 286.273 275.224 285.121 278.125 285.121" stroke="white" stroke-width="0.9375" stroke-miterlimit="10" stroke-linecap="round"/>
<path d="M521.875 319.496C534.819 319.496 545.312 309.003 545.312 296.059C545.312 283.114 534.819 272.621 521.875 272.621C508.931 272.621 498.438 283.114 498.438 296.059C498.438 309.003 508.931 319.496 521.875 319.496Z" fill="#393C54"/>
<path opacity="0.5" d="M510.938 296.059C510.938 293.158 512.09 290.376 514.141 288.325C516.192 286.273 518.974 285.121 521.875 285.121" stroke="white" stroke-width="0.9375" stroke-miterlimit="10" stroke-linecap="round"/>
<g opacity="0.2">
<path d="M307.25 384.559C299.495 378.504 293.215 370.768 288.885 361.934C284.554 353.099 282.286 343.397 282.25 333.559" stroke="#F8DC25" stroke-width="0.9375" stroke-miterlimit="10" stroke-linecap="round"/>
<path d="M383.813 387.621C373.092 394.876 360.444 398.751 347.5 398.746" stroke="#F8DC25" stroke-width="0.9375" stroke-miterlimit="10" stroke-linecap="round"/>
<path d="M278.125 338.246C268.327 338.268 258.834 334.838 251.312 328.559" stroke="#F8DC25" stroke-width="0.9375" stroke-miterlimit="10" stroke-linecap="round"/>
<path d="M548.75 328.559C541.199 334.829 531.69 338.256 521.875 338.246" stroke="#F8DC25" stroke-width="0.9375" stroke-miterlimit="10" stroke-linecap="round"/>
<path d="M452.5 398.559C442.262 398.54 432.173 396.108 423.052 391.461C413.93 386.813 406.032 380.08 400 371.809" stroke="#F8DC25" stroke-width="0.9375" stroke-miterlimit="10" stroke-linecap="round"/>
<path d="M517.5 333.559C517.474 342.144 515.753 350.639 512.438 358.559" stroke="#F8DC25" stroke-width="0.9375" stroke-miterlimit="10" stroke-linecap="round"/>
</g>
<path d="M452.5 379.809C478.043 379.809 498.75 359.102 498.75 333.559C498.75 308.015 478.043 287.309 452.5 287.309C426.957 287.309 406.25 308.015 406.25 333.559C406.25 359.102 426.957 379.809 452.5 379.809Z" fill="#393C54"/>
<path opacity="0.1" d="M425 333.559C425.082 326.319 428.016 319.405 433.164 314.315C438.313 309.225 445.26 306.371 452.5 306.371" stroke="white" stroke-width="1.875" stroke-miterlimit="10" stroke-linecap="round"/>
<path opacity="0.5" d="M332.125 310.746C336.693 307.773 342.051 306.248 347.5 306.371" stroke="white" stroke-width="0.9375" stroke-miterlimit="10" stroke-linecap="round"/>
<path opacity="0.5" d="M437.125 310.746C441.697 307.783 447.053 306.259 452.5 306.371" stroke="white" stroke-width="0.9375" stroke-miterlimit="10" stroke-linecap="round"/>
<path d="M487.5 456.371H437.5C423.693 456.371 412.5 467.564 412.5 481.371V581.371C412.5 595.178 423.693 606.371 437.5 606.371H487.5C501.307 606.371 512.5 595.178 512.5 581.371V481.371C512.5 467.564 501.307 456.371 487.5 456.371Z" fill="#7F3838"/>
<path d="M362.5 456.371H312.5C298.693 456.371 287.5 467.564 287.5 481.371V581.371C287.5 595.178 298.693 606.371 312.5 606.371H362.5C376.307 606.371 387.5 595.178 387.5 581.371V481.371C387.5 467.564 376.307 456.371 362.5 456.371Z" fill="#7F3838"/>
<path d="M520.875 471.621L502.125 527.871" stroke="#8F5653" stroke-width="4.6875" stroke-miterlimit="10" stroke-linecap="round"/>
<path opacity="0.1" d="M520.875 471.621L502.125 527.871" stroke="white" stroke-width="4.6875" stroke-miterlimit="10" stroke-linecap="round"/>
<path d="M497.062 538.684L488.375 580.309" stroke="#8F5653" stroke-width="3.75" stroke-miterlimit="10" stroke-linecap="round"/>
<path d="M485.375 588.309L487.562 630.684" stroke="#8F5653" stroke-width="2.8125" stroke-miterlimit="10" stroke-linecap="round"/>
<path opacity="0.1" d="M485.375 588.309L487.562 630.684" stroke="white" stroke-width="2.8125" stroke-miterlimit="10" stroke-linecap="round"/>
<path d="M485.375 588.309L487.562 630.684" stroke="#8F5653" stroke-width="2.8125" stroke-miterlimit="10" stroke-linecap="round"/>
<path opacity="0.1" d="M485.375 588.309L487.562 630.684" stroke="white" stroke-width="2.8125" stroke-miterlimit="10" stroke-linecap="round"/>
<path d="M485.375 632.059L493.188 661.684" stroke="#8F5653" stroke-width="2.34375" stroke-miterlimit="10" stroke-linecap="round"/>
<path d="M279.125 471.621L297.875 527.871" stroke="#8F5653" stroke-width="4.6875" stroke-miterlimit="10" stroke-linecap="round"/>
<path opacity="0.1" d="M279.125 471.621L297.875 527.871" stroke="white" stroke-width="4.6875" stroke-miterlimit="10" stroke-linecap="round"/>
<path d="M302.938 538.684L311.625 580.309" stroke="#8F5653" stroke-width="3.75" stroke-miterlimit="10" stroke-linecap="round"/>
<path d="M314.625 588.309L312.438 630.684" stroke="#8F5653" stroke-width="2.8125" stroke-miterlimit="10" stroke-linecap="round"/>
<path opacity="0.1" d="M314.625 588.309L312.438 630.684" stroke="white" stroke-width="2.8125" stroke-miterlimit="10" stroke-linecap="round"/>
<path d="M314.625 588.309L312.438 630.684" stroke="#8F5653" stroke-width="2.8125" stroke-miterlimit="10" stroke-linecap="round"/>
<path opacity="0.1" d="M314.625 588.309L312.438 630.684" stroke="white" stroke-width="2.8125" stroke-miterlimit="10" stroke-linecap="round"/>
<path d="M314.625 632.059L306.812 661.684" stroke="#8F5653" stroke-width="2.34375" stroke-miterlimit="10" stroke-linecap="round"/>
<path d="M726.812 475.996C723.746 466.531 717.045 458.672 708.184 454.148C699.323 449.624 689.027 448.805 679.562 451.871C670.098 454.938 662.238 461.639 657.714 470.5C653.19 479.361 652.371 489.656 655.437 499.121L690.875 608.434C692.815 614.398 696.233 619.773 700.812 624.059C719.954 598.34 735.728 570.279 747.75 540.559L726.812 475.996Z" fill="#8F5653"/>
<path opacity="0.1" d="M726.812 475.996C723.746 466.531 717.045 458.672 708.184 454.148C699.323 449.624 689.027 448.805 679.562 451.871C670.098 454.938 662.238 461.639 657.714 470.5C653.19 479.361 652.371 489.656 655.437 499.121L690.875 608.434C692.815 614.398 696.233 619.773 700.812 624.059C719.954 598.34 735.728 570.279 747.75 540.559L726.812 475.996Z" fill="white"/>
<path d="M120.438 451.871C115.751 450.351 110.811 449.769 105.899 450.159C100.988 450.548 96.2015 451.902 91.8134 454.143C87.4254 456.383 83.5219 459.466 80.326 463.216C77.13 466.966 74.7043 471.308 73.1875 475.996L52.25 540.558C64.272 570.279 80.0458 598.34 99.1875 624.058C103.767 619.773 107.185 614.398 109.125 608.433L144.562 499.121C146.083 494.434 146.665 489.494 146.275 484.583C145.885 479.671 144.531 474.885 142.291 470.497C140.05 466.109 136.967 462.205 133.218 459.009C129.468 455.814 125.125 453.388 120.438 451.871Z" fill="#8F5653"/>
<path opacity="0.1" d="M120.438 451.871C115.751 450.351 110.811 449.769 105.899 450.159C100.988 450.548 96.2015 451.902 91.8134 454.143C87.4254 456.383 83.5219 459.466 80.326 463.216C77.13 466.966 74.7043 471.308 73.1875 475.996L52.25 540.558C64.272 570.279 80.0458 598.34 99.1875 624.058C103.767 619.773 107.185 614.398 109.125 608.433L144.562 499.121C146.083 494.434 146.665 489.494 146.275 484.583C145.885 479.671 144.531 474.885 142.291 470.497C140.05 466.109 136.967 462.205 133.218 459.009C129.468 455.814 125.125 453.388 120.438 451.871Z" fill="white"/>
</svg>
