<svg width="60" height="60" viewBox="0 0 60 60" fill="none" xmlns="http://www.w3.org/2000/svg">
<path d="M9.82191 12.4755C9.30093 12.5048 8.80218 12.6964 8.39557 13.0234C7.98895 13.3504 7.69484 13.7965 7.55444 14.2991C7.41405 14.8016 7.43442 15.3355 7.61268 15.8259C7.79095 16.3163 8.11818 16.7387 8.54853 17.0338L28.5535 31.3546C28.9766 31.6555 29.4829 31.8171 30.0021 31.8171C30.5214 31.8171 31.0277 31.6555 31.4508 31.3546L51.4558 17.0338C51.7324 16.8464 51.9687 16.6055 52.1507 16.3253C52.3326 16.045 52.4566 15.7312 52.5152 15.4022C52.5738 15.0733 52.5659 14.7359 52.4919 14.4101C52.4179 14.0842 52.2794 13.7765 52.0845 13.5052C51.8896 13.2338 51.6423 13.0042 51.3571 12.83C51.072 12.6558 50.7549 12.5406 50.4244 12.491C50.094 12.4415 49.757 12.4587 49.4333 12.5416C49.1096 12.6245 48.8058 12.7714 48.5399 12.9737L30.0114 26.2427L11.4644 12.9737C10.9928 12.619 10.411 12.4425 9.82191 12.4755Z" fill="#FF2876"/>
<path d="M10.0064 10.0024C7.27969 10.0024 5.00522 12.2769 5.00522 15.0037V44.9926C5.00522 47.7194 7.27969 49.9938 10.0064 49.9938H49.9978C52.7246 49.9938 54.9991 47.7194 54.9991 44.9926V15.0037C54.9991 12.2769 52.7246 10.0024 49.9978 10.0024H10.0064ZM10.0064 15.0037H49.9978V44.9926H10.0064V15.0037Z" fill="#00001D"/>
<path d="M39.3351 33.2078C38.7944 33.1877 38.2619 33.3436 37.8174 33.652C37.3729 33.9603 37.0403 34.4045 36.8698 34.9179C36.6992 35.4313 36.6997 35.9862 36.8713 36.4993C37.0429 37.0124 37.3763 37.4559 37.8214 37.7634L48.5489 45.4392C48.8148 45.6445 49.1193 45.794 49.4442 45.879C49.7692 45.964 50.1079 45.9826 50.4402 45.9338C50.7726 45.885 51.0916 45.7697 51.3784 45.5949C51.6652 45.42 51.9138 45.1892 52.1094 44.9161C52.305 44.6431 52.4436 44.3334 52.5168 44.0056C52.5901 43.6779 52.5966 43.3387 52.5359 43.0083C52.4752 42.678 52.3486 42.3632 52.1636 42.0829C51.9786 41.8026 51.739 41.5624 51.4591 41.3767L40.7315 33.6961C40.326 33.3961 39.8392 33.2259 39.3351 33.2078Z" fill="#00001D"/>
<path d="M20.8487 33.208C20.2845 33.1886 19.7304 33.3607 19.2765 33.6963L8.54892 41.377C8.26904 41.5627 8.02944 41.8028 7.84443 42.0832C7.65942 42.3635 7.53279 42.6782 7.4721 43.0086C7.4114 43.3389 7.41789 43.6781 7.49118 44.0059C7.56446 44.3337 7.70304 44.6433 7.89863 44.9164C8.09423 45.1894 8.34284 45.4203 8.62961 45.5951C8.91639 45.77 9.23546 45.8852 9.56777 45.9341C9.90007 45.9829 10.2388 45.9643 10.5638 45.8793C10.8887 45.7943 11.1932 45.6447 11.4591 45.4395L22.1866 37.7637C22.6192 37.4647 22.9466 37.0369 23.122 36.5411C23.2975 36.0454 23.3122 35.5069 23.164 35.0024C23.0158 34.4978 22.7123 34.0528 22.2967 33.7306C21.881 33.4085 21.3743 33.2256 20.8487 33.208Z" fill="#00001D"/>
</svg>
