<svg width="250" height="251" viewBox="0 0 250 251" fill="none" xmlns="http://www.w3.org/2000/svg">
<g clip-path="url(#clip0_16_7302)">
<path d="M29.6667 249.783C27.9097 250.359 26.2917 249.804 25.7292 248.623C24.6667 246.415 28.9653 241.832 31.5139 237.713C45.7847 214.623 46.882 173.22 46.882 172.783C46.8852 171.686 47.1192 170.601 47.5687 169.6C48.0182 168.599 48.6732 167.704 49.4911 166.973C50.309 166.241 51.2716 165.69 52.3163 165.354C53.3611 165.019 54.4647 164.907 55.5556 165.026L125.868 172.838C130.16 173.318 133.243 177.179 132.771 181.47C132.299 185.762 128.493 196.63 124.139 196.193L62.0903 181.47C60.875 196.957 58.007 223.088 38.7431 242.352C37.2222 243.88 32.2014 248.505 29.6667 249.783Z" fill="#662113"/>
<path d="M220.34 249.783C222.09 250.359 223.715 249.797 224.278 248.623C225.34 246.415 221.042 241.831 218.493 237.713C204.222 214.623 203.125 173.22 203.125 172.783C203.126 171.684 202.895 170.598 202.447 169.595C201.999 168.592 201.344 167.695 200.525 166.962C199.706 166.23 198.742 165.679 197.695 165.345C196.648 165.011 195.543 164.903 194.451 165.026L124.139 172.838C122.079 173.069 120.195 174.107 118.901 175.726C117.607 177.344 117.008 179.411 117.236 181.47C117.708 185.762 121.514 196.63 125.868 196.193L187.91 181.47C189.125 196.956 191.993 223.088 211.257 242.352C212.785 243.88 217.799 248.505 220.34 249.783ZM16.3056 161.193C11.9931 161.193 7.47224 160.311 7.81252 157.165C8.13197 154.234 12.1806 153.554 16.4792 153.186C39.1042 151.269 47.5625 122.686 47.6945 122.415C49.2709 119.262 52.7917 117.554 56.2153 118.248L95.2778 126.061C99.507 126.908 102.25 131.019 101.403 135.255C100.563 139.484 96.4375 150.088 92.2083 149.2L58.6597 134.672C52.5 144.609 37.9028 161.193 16.3056 161.193ZM233.694 161.193C238.007 161.193 242.528 160.311 242.188 157.165C241.868 154.234 237.819 153.554 233.514 153.186C210.889 151.269 202.431 122.686 202.299 122.415C201.53 120.883 200.281 119.646 198.741 118.894C197.202 118.141 195.458 117.914 193.778 118.248L154.715 126.061C152.684 126.468 150.897 127.665 149.749 129.389C148.6 131.114 148.183 133.224 148.59 135.255C149.431 139.484 153.556 150.088 157.785 149.2L191.333 134.672C197.5 144.609 212.097 161.193 233.694 161.193ZM101.556 118.102C99.9236 118.102 98.2847 117.588 96.875 116.54L69.0417 91.0537C63.4653 90.6926 47.4584 90.0121 37.7153 82.0051C34.382 79.269 31.6875 75.9496 32.6667 73.8246C33.7847 71.4079 38.5486 73.2829 42.4097 75.2204C56.0764 82.0537 70.1875 79.0398 70.3264 79.0398C72.007 79.0468 73.6528 79.5954 74.9931 80.6023L106.243 104.04C107.559 105.021 108.532 106.393 109.024 107.959C109.516 109.526 109.501 111.208 108.981 112.765C108.462 114.323 107.465 115.677 106.132 116.635C104.799 117.593 103.197 118.107 101.556 118.102ZM148.444 118.102C150.076 118.102 151.715 117.588 153.125 116.54L180.958 91.0537C186.535 90.6926 202.542 90.0121 212.285 82.0051C215.618 79.269 218.313 75.9496 217.333 73.8246C216.215 71.4079 211.451 73.2829 207.583 75.2204C193.917 82.0537 179.806 79.0398 179.667 79.0398C177.984 79.0468 176.348 79.5946 175 80.6023L143.75 104.04C142.433 105.022 141.46 106.394 140.969 107.961C140.477 109.528 140.493 111.211 141.013 112.768C141.533 114.326 142.531 115.681 143.865 116.638C145.2 117.596 146.802 118.108 148.444 118.102Z" fill="#662113"/>
<path d="M125 227.478L85.9375 250.915L125 188.415L164.063 250.915L125 227.478Z" fill="#662113"/>
<path d="M78.125 157.165C78.125 110.29 99.1111 86.8525 125 86.8525C150.889 86.8525 171.875 110.29 171.875 157.165C171.875 211.853 150.889 250.915 125 250.915C99.1111 250.915 78.125 211.853 78.125 157.165Z" fill="#C1694F"/>
<path d="M83.3333 153.693C83.3333 106.818 103.868 86.8525 125 86.8525C146.132 86.8525 166.667 106.818 166.667 153.693C166.667 208.38 146.132 230.082 125 230.082C103.868 230.082 83.3333 208.38 83.3333 153.693Z" fill="#662113"/>
<path d="M93.75 86.8525C93.75 71.2275 107.743 55.6025 125 55.6025C142.257 55.6025 156.25 71.2275 156.25 86.8525C156.25 104.109 142.257 110.29 125 110.29C107.743 110.29 93.75 104.109 93.75 86.8525Z" fill="#D99E82"/>
<path d="M93.75 86.8525C93.75 71.2275 107.743 55.6025 125 55.6025C142.257 55.6025 156.25 71.2275 156.25 86.8525C156.25 94.665 142.257 102.478 125 102.478C107.743 102.478 93.75 94.665 93.75 86.8525Z" fill="#662113"/>
<path d="M125 63.415C131.474 63.415 136.722 59.9173 136.722 55.6025C136.722 51.2878 131.474 47.79 125 47.79C118.526 47.79 113.278 51.2878 113.278 55.6025C113.278 59.9173 118.526 63.415 125 63.415Z" fill="#662113"/>
<path d="M117.625 89.8873C116.704 89.8873 115.821 89.5215 115.17 88.8703C114.519 88.2192 114.153 87.336 114.153 86.4151C114.153 55.3457 75.6111 3.94982 31.6875 3.94982C30.7666 3.94982 29.8834 3.58399 29.2323 2.93283C28.5811 2.28166 28.2153 1.39848 28.2153 0.477593C28.2153 -0.443297 28.5811 -1.32647 29.2323 -1.97764C29.8834 -2.62881 30.7666 -2.99463 31.6875 -2.99463C80.1805 -2.99463 121.097 51.922 121.097 86.4151C121.097 87.336 120.731 88.2192 120.08 88.8703C119.429 89.5215 118.546 89.8873 117.625 89.8873ZM131.944 90.3248C131.024 90.3248 130.14 89.959 129.489 89.3078C128.838 88.6567 128.472 87.7735 128.472 86.8526C128.472 52.3595 169.396 -2.55713 217.882 -2.55713C218.803 -2.55713 219.686 -2.19131 220.337 -1.54014C220.988 -0.88897 221.354 -0.00579705 221.354 0.915094C221.354 1.83598 220.988 2.71916 220.337 3.37033C219.686 4.02149 218.803 4.38732 217.882 4.38732C173.958 4.38732 135.417 55.7831 135.417 86.8526C135.417 87.7735 135.051 88.6567 134.4 89.3078C133.749 89.959 132.865 90.3248 131.944 90.3248Z" fill="#662113"/>
</g>
<defs>
<clipPath id="clip0_16_7302">
<rect width="250" height="250" fill="white" transform="translate(0 0.915039)"/>
</clipPath>
</defs>
</svg>
