<svg width="60" height="60" viewBox="0 0 60 60" fill="none" xmlns="http://www.w3.org/2000/svg">
<path d="M16.5664 20H43.4415C45.5126 20 47.504 21.9914 47.504 24.0626V35.9375C47.504 38.0086 45.5126 40.0001 43.4415 40.0001H16.5664C14.4954 40.0001 12.504 38.0086 12.504 35.9375V24.0626C12.504 21.9914 14.4954 20 16.5664 20ZM17.504 22.5C16.1233 22.5 15.004 23.6193 15.004 25.0001V35C15.004 36.3807 16.1233 37.5 17.504 37.5H42.504C43.8847 37.5 45.004 36.3807 45.004 35V25.0001C45.004 23.6193 43.8847 22.5 42.504 22.5H17.504ZM23.2027 33.0245H23.179V33.75H21.429V25.1167H23.179V28.8409H23.2027C23.6524 28.147 24.2916 27.8 25.1204 27.8C25.8811 27.8 26.4672 28.0562 26.8786 28.5684C27.2899 29.0806 27.4957 29.7809 27.4957 30.6693C27.4957 31.6331 27.2556 32.4068 26.7756 32.9908C26.2956 33.5748 25.6539 33.8667 24.8506 33.8667C24.1238 33.8667 23.5746 33.586 23.2027 33.0245ZM23.1517 30.6183V31.198C23.1517 31.5637 23.261 31.8667 23.4798 32.1067C23.6985 32.3467 23.9793 32.4667 24.322 32.4667C24.7364 32.4667 25.0578 32.3126 25.2863 32.0046C25.5147 31.6965 25.629 31.2599 25.629 30.6948C25.629 30.2257 25.5244 29.8593 25.3155 29.5956C25.1064 29.3319 24.8074 29.2001 24.4185 29.2001C24.054 29.2001 23.7517 29.3309 23.5117 29.5929C23.2717 29.8548 23.1517 30.1965 23.1517 30.6183ZM32.0457 33.6333C31.7856 33.7889 31.3943 33.8667 30.8717 33.8667C29.6321 33.8667 29.0123 33.205 29.0123 31.8816V29.2001H28.079V27.9167H29.0123V26.6735L30.7623 26.1667V27.9167H32.0457V29.2001H30.7623V31.5552C30.7623 32.1629 30.9987 32.4667 31.4715 32.4667L32.0457 32.3501V33.6333ZM38.8123 33.75H37.0624V30.5417C37.0624 29.6473 36.7299 29.2001 36.0652 29.2001C35.7443 29.2001 35.4803 29.3186 35.2731 29.5555C35.0659 29.7925 34.9624 30.0933 34.9624 30.4578V33.75H33.2123V27.9167H34.9624V28.8865H34.986C35.4162 28.1622 36.0433 27.8 36.8673 27.8C38.164 27.8 38.8123 28.5978 38.8123 30.1935V33.75Z" fill="black"/>
</svg>
