<svg width="392" height="392" viewBox="0 0 392 392" fill="none" xmlns="http://www.w3.org/2000/svg">
<path d="M376 48H16C7.2 48 0 55.2 0 64V328C0 336.8 7.2 344 16 344H376C384.8 344 392 336.8 392 328V64C392 55.2 384.8 48 376 48ZM384 328C384 332.4 380.4 336 376 336H16C11.6 336 8 332.4 8 328V64C8 59.6 11.6 56 16 56H376C380.4 56 384 59.6 384 64V328Z" fill="black"/>
<path d="M12 64H4C1.6 64 0 66 0 68V84C0 86 1.6 88 4 88H12C14.4 88 16 86 16 84V68C16 66 14.4 64 12 64ZM12 84H4V68H12V84Z" fill="black"/>
<path d="M36 64H28C25.6 64 24 66 24 68V84C24 86 25.6 88 28 88H36C38.4 88 40 86 40 84V68C40 66 38.4 64 36 64ZM36 84H28V68H36V84Z" fill="black"/>
<path d="M60 64H52C49.6 64 48 66 48 68V84C48 86 49.6 88 52 88H60C62.4 88 64 86 64 84V68C64 66 62.4 64 60 64ZM60 84H52V68H60V84Z" fill="black"/>
<path d="M84 64H76C73.6 64 72 66 72 68V84C72 86 73.6 88 76 88H84C86.4 88 88 86 88 84V68C88 66 86.4 64 84 64ZM84 84H76V68H84V84Z" fill="black"/>
<path d="M260.8 194L158.4 137.6C152.8 134.4 148 137.2 148 144V256C148 262.8 152.8 265.6 158.4 262.4L260.8 205.6C266.8 202.4 266.8 197.2 260.8 194Z" fill="black"/>
<path d="M108 64H100C97.6 64 96 66 96 68V84C96 86 97.6 88 100 88H108C110.4 88 112 86 112 84V68C112 66 110.4 64 108 64ZM108 84H100V68H108V84Z" fill="black"/>
<path d="M132 64H124C121.6 64 120 66 120 68V84C120 86 121.6 88 124 88H132C134.4 88 136 86 136 84V68C136 66 134.4 64 132 64ZM132 84H124V68H132V84Z" fill="black"/>
<path d="M156 64H148C145.6 64 144 66 144 68V84C144 86 145.6 88 148 88H156C158.4 88 160 86 160 84V68C160 66 158.4 64 156 64ZM156 84H148V68H156V84Z" fill="black"/>
<path d="M180 64H172C169.6 64 168 66 168 68V84C168 86 169.6 88 172 88H180C182.4 88 184 86 184 84V68C184 66 182.4 64 180 64ZM180 84H172V68H180V84Z" fill="black"/>
<path d="M204 64H196C193.6 64 192 66 192 68V84C192 86 193.6 88 196 88H204C206.4 88 208 86 208 84V68C208 66 206.4 64 204 64ZM204 84H196V68H204V84Z" fill="black"/>
<path d="M228 64H220C217.6 64 216 66 216 68V84C216 86 217.6 88 220 88H228C230.4 88 232 86 232 84V68C232 66 230.4 64 228 64ZM228 84H220V68H228V84Z" fill="black"/>
<path d="M252 64H244C241.6 64 240 66 240 68V84C240 86 241.6 88 244 88H252C254.4 88 256 86 256 84V68C256 66 254.4 64 252 64ZM252 84H244V68H252V84Z" fill="black"/>
<path d="M276 64H268C265.6 64 264 66 264 68V84C264 86 265.6 88 268 88H276C278.4 88 280 86 280 84V68C280 66 278.4 64 276 64ZM276 84H268V68H276V84Z" fill="black"/>
<path d="M300 64H292C289.6 64 288 66 288 68V84C288 86 289.6 88 292 88H300C302.4 88 304 86 304 84V68C304 66 302.4 64 300 64ZM300 84H292V68H300V84Z" fill="black"/>
<path d="M324 64H316C313.6 64 312 66 312 68V84C312 86 313.6 88 316 88H324C326.4 88 328 86 328 84V68C328 66 326.4 64 324 64ZM324 84H316V68H324V84Z" fill="black"/>
<path d="M348 64H340C337.6 64 336 66 336 68V84C336 86 337.6 88 340 88H348C350.4 88 352 86 352 84V68C352 66 350.4 64 348 64ZM348 84H340V68H348V84Z" fill="black"/>
<path d="M372 64H364C361.6 64 360 66 360 68V84C360 86 361.6 88 364 88H372C374.4 88 376 86 376 84V68C376 66 374.4 64 372 64ZM372 84H364V68H372V84Z" fill="black"/>
<path d="M28 304H20C17.6 304 16 306 16 308V324C16 326 17.6 328 20 328H28C30.4 328 32 326 32 324V308C32 306 30.4 304 28 304ZM28 324H20V308H28V324Z" fill="black"/>
<path d="M52 304H44C41.6 304 40 306 40 308V324C40 326 41.6 328 44 328H52C54.4 328 56 326 56 324V308C56 306 54.4 304 52 304ZM52 324H44V308H52V324Z" fill="black"/>
<path d="M76 304H68C65.6 304 64 306 64 308V324C64 326 65.6 328 68 328H76C78.4 328 80 326 80 324V308C80 306 78.4 304 76 304ZM76 324H68V308H76V324Z" fill="black"/>
<path d="M100 304H92C89.6 304 88 306 88 308V324C88 326 89.6 328 92 328H100C102.4 328 104 326 104 324V308C104 306 102.4 304 100 304ZM100 324H92V308H100V324Z" fill="black"/>
<path d="M124 304H116C113.6 304 112 306 112 308V324C112 326 113.6 328 116 328H124C126.4 328 128 326 128 324V308C128 306 126.4 304 124 304ZM124 324H116V308H124V324Z" fill="black"/>
<path d="M148 304H140C137.6 304 136 306 136 308V324C136 326 137.6 328 140 328H148C150.4 328 152 326 152 324V308C152 306 150.4 304 148 304ZM148 324H140V308H148V324Z" fill="black"/>
<path d="M172 304H164C161.6 304 160 306 160 308V324C160 326 161.6 328 164 328H172C174.4 328 176 326 176 324V308C176 306 174.4 304 172 304ZM172 324H164V308H172V324Z" fill="black"/>
<path d="M196 304H188C185.6 304 184 306 184 308V324C184 326 185.6 328 188 328H196C198.4 328 200 326 200 324V308C200 306 198.4 304 196 304ZM196 324H188V308H196V324Z" fill="black"/>
<path d="M220 304H212C209.6 304 208 306 208 308V324C208 326 209.6 328 212 328H220C222.4 328 224 326 224 324V308C224 306 222.4 304 220 304ZM220 324H212V308H220V324Z" fill="black"/>
<path d="M244 304H236C233.6 304 232 306 232 308V324C232 326 233.6 328 236 328H244C246.4 328 248 326 248 324V308C248 306 246.4 304 244 304ZM244 324H236V308H244V324Z" fill="black"/>
<path d="M268 304H260C257.6 304 256 306 256 308V324C256 326 257.6 328 260 328H268C270.4 328 272 326 272 324V308C272 306 270.4 304 268 304ZM268 324H260V308H268V324Z" fill="black"/>
<path d="M292 304H284C281.6 304 280 306 280 308V324C280 326 281.6 328 284 328H292C294.4 328 296 326 296 324V308C296 306 294.4 304 292 304ZM292 324H284V308H292V324Z" fill="black"/>
<path d="M316 304H308C305.6 304 304 306 304 308V324C304 326 305.6 328 308 328H316C318.4 328 320 326 320 324V308C320 306 318.4 304 316 304ZM316 324H308V308H316V324Z" fill="black"/>
<path d="M340 304H332C329.6 304 328 306 328 308V324C328 326 329.6 328 332 328H340C342.4 328 344 326 344 324V308C344 306 342.4 304 340 304ZM340 324H332V308H340V324Z" fill="black"/>
<path d="M364 304H356C353.6 304 352 306 352 308V324C352 326 353.6 328 356 328H364C366.4 328 368 326 368 324V308C368 306 366.4 304 364 304ZM364 324H356V308H364V324Z" fill="black"/>
<path d="M388 304H380C377.6 304 376 306 376 308V324C376 326 377.6 328 380 328H388C390.4 328 392 326 392 324V308C392 306 390.4 304 388 304ZM388 324H380V308H388V324Z" fill="black"/>
<path d="M388 96H4V100H388V96Z" fill="black"/>
<path d="M388 292H4V296H388V292Z" fill="black"/>
<path d="M34 96C32.8 96 32 97.6 32 100V104C32 106.4 32.8 108 34 108C35.2 108 36 106.4 36 104V100C36 97.6 35.2 96 34 96Z" fill="black"/>
<path d="M34 116C32.8 116 32 117.6 32 120V128C32 130.4 32.8 132 34 132C35.2 132 36 130.4 36 128V120C36 117.6 35.2 116 34 116Z" fill="black"/>
<path d="M34 140C32.8 140 32 141.6 32 144V152C32 154.4 32.8 156 34 156C35.2 156 36 154.4 36 152V144C36 141.6 35.2 140 34 140Z" fill="black"/>
<path d="M34 164C32.8 164 32 165.6 32 168V176C32 178.4 32.8 180 34 180C35.2 180 36 178.4 36 176V168C36 165.6 35.2 164 34 164Z" fill="black"/>
<path d="M34 188C32.8 188 32 189.6 32 192V200C32 202.4 32.8 204 34 204C35.2 204 36 202.4 36 200V192C36 189.6 35.2 188 34 188Z" fill="black"/>
<path d="M34 212C32.8 212 32 213.6 32 216V224C32 226.4 32.8 228 34 228C35.2 228 36 226.4 36 224V216C36 213.6 35.2 212 34 212Z" fill="black"/>
<path d="M34 236C32.8 236 32 237.6 32 240V248C32 250.4 32.8 252 34 252C35.2 252 36 250.4 36 248V240C36 237.6 35.2 236 34 236Z" fill="black"/>
<path d="M34 260C32.8 260 32 261.6 32 264V272C32 274.4 32.8 276 34 276C35.2 276 36 274.4 36 272V264C36 261.6 35.2 260 34 260Z" fill="black"/>
<path d="M34 284C32.8 284 32 285.6 32 288V292C32 294.4 32.8 296 34 296C35.2 296 36 294.4 36 292V288C36 285.6 35.2 284 34 284Z" fill="black"/>
<path d="M358 96C356.8 96 356 97.6 356 100V104C356 106.4 356.8 108 358 108C359.2 108 360 106.4 360 104V100C360 97.6 359.2 96 358 96Z" fill="black"/>
<path d="M358 116C356.8 116 356 117.6 356 120V128C356 130.4 356.8 132 358 132C359.2 132 360 130.4 360 128V120C360 117.6 359.2 116 358 116Z" fill="black"/>
<path d="M358 140C356.8 140 356 141.6 356 144V152C356 154.4 356.8 156 358 156C359.2 156 360 154.4 360 152V144C360 141.6 359.2 140 358 140Z" fill="black"/>
<path d="M358 164C356.8 164 356 165.6 356 168V176C356 178.4 356.8 180 358 180C359.2 180 360 178.4 360 176V168C360 165.6 359.2 164 358 164Z" fill="black"/>
<path d="M358 188C356.8 188 356 189.6 356 192V200C356 202.4 356.8 204 358 204C359.2 204 360 202.4 360 200V192C360 189.6 359.2 188 358 188Z" fill="black"/>
<path d="M358 212C356.8 212 356 213.6 356 216V224C356 226.4 356.8 228 358 228C359.2 228 360 226.4 360 224V216C360 213.6 359.2 212 358 212Z" fill="black"/>
<path d="M358 236C356.8 236 356 237.6 356 240V248C356 250.4 356.8 252 358 252C359.2 252 360 250.4 360 248V240C360 237.6 359.2 236 358 236Z" fill="black"/>
<path d="M358 260C356.8 260 356 261.6 356 264V272C356 274.4 356.8 276 358 276C359.2 276 360 274.4 360 272V264C360 261.6 359.2 260 358 260Z" fill="black"/>
<path d="M358 284C356.8 284 356 285.6 356 288V292C356 294.4 356.8 296 358 296C359.2 296 360 294.4 360 292V288C360 285.6 359.2 284 358 284Z" fill="black"/>
</svg>
