<svg width="375" height="812" viewBox="0 0 375 812" fill="none" xmlns="http://www.w3.org/2000/svg">
<g clip-path="url(#clip0_8_7237)">
<rect width="375" height="812" fill="white"/>
<g clip-path="url(#clip1_8_7237)">
<g style="mix-blend-mode:multiply">
<rect width="375" height="578" fill="#092325"/>
</g>
<path d="M423.02 558.704H354.127V615.681H423.02V558.704Z" fill="#1B5B64"/>
<path opacity="0.3" d="M423.02 558.704H354.127V615.681H423.02V558.704Z" fill="white"/>
<path d="M371.109 558.705H317.714V615.681H371.109V558.705Z" fill="#1B5B64"/>
<path opacity="0.1" d="M371.109 558.705H317.714V615.681H371.109V558.705Z" fill="white"/>
<path opacity="0.3" d="M351.968 558.704H336.86V576.435H351.968V558.704Z" fill="white"/>
<path d="M215.059 217H30.8774C19.5709 217 10.4052 226.166 10.4052 237.472V621.722C10.4052 633.028 19.5709 642.194 30.8774 642.194H215.059C226.365 642.194 235.531 633.028 235.531 621.722V237.472C235.531 226.166 226.365 217 215.059 217Z" fill="#C5D8E2"/>
<path d="M220.984 245.347H24.9694V587.315H220.984V245.347Z" fill="#1B5B64"/>
<path d="M75.2157 458.571L80.7041 461.741L79.2476 455.766L84.0966 451.747L77.7112 451.228L75.2157 445.594L72.7201 451.228L66.3347 451.747L71.1837 455.766L69.7272 461.741L75.2157 458.571Z" fill="white"/>
<path d="M99.4354 458.57L104.924 461.74L103.467 455.766L108.316 451.746L101.931 451.228L99.4354 445.593L96.9398 451.228L90.5544 451.746L95.4034 455.766L93.947 461.74L99.4354 458.57Z" fill="white"/>
<path d="M123.664 458.57L129.152 461.74L127.696 455.766L132.545 451.746L126.159 451.228L123.664 445.593L121.168 451.228L114.783 451.746L119.632 455.766L118.175 461.74L123.664 458.57Z" fill="white"/>
<path d="M147.887 458.57L153.376 461.74L151.919 455.766L156.768 451.746L150.383 451.228L147.887 445.593L145.392 451.228L139.006 451.746L143.855 455.766L142.399 461.74L147.887 458.57Z" fill="white"/>
<path d="M172.095 458.57L177.583 461.74L176.127 455.766L180.976 451.746L174.59 451.228L172.095 445.593L169.599 451.228L163.214 451.746L168.063 455.766L166.606 461.74L172.095 458.57Z" stroke="white" stroke-width="0.4"/>
<path opacity="0.3" d="M220.984 553.413H24.9694V587.301H220.984V553.413Z" fill="white"/>
<path opacity="0.1" d="M220.984 386.06C171.155 435.617 78.8795 528.315 24.9694 582.593V587.37H134.496L220.984 500.896V386.06Z" fill="white"/>
<path opacity="0.1" d="M24.9694 417.313L196.936 245.347H116.521C95.23 266.474 58.8577 302.915 24.9694 336.926V417.313Z" fill="white"/>
<path opacity="0.1" d="M24.9694 489.199L220.984 293.184V251.243L24.9694 447.244V489.199Z" fill="white"/>
<path opacity="0.2" d="M220.984 245.347H24.9694V260.769H220.984V245.347Z" fill="black"/>
<g opacity="0.6">
<path opacity="0.6" d="M46.1593 256.593H49.121V252.635H46.1593V256.593Z" fill="white"/>
<path opacity="0.6" d="M41.3345 256.593H44.2961V251.325H41.3345V256.593Z" fill="white"/>
<path opacity="0.6" d="M36.5001 256.593H39.4618V250.001H36.5001V256.593Z" fill="white"/>
<path opacity="0.6" d="M31.6658 256.593H34.6274V248.677H31.6658V256.593Z" fill="white"/>
</g>
<path opacity="0.6" d="M200.183 251.189H198.422V255.147H200.183V251.189Z" fill="white"/>
<path opacity="0.6" d="M201.399 256.594H215.415V249.756H201.399V256.594Z" fill="white"/>
<path d="M179.115 478.349H66.8459C63.4506 478.349 60.1944 479.698 57.7935 482.099C55.3927 484.499 54.0439 487.756 54.0439 491.151C54.0439 494.546 55.3927 497.802 57.7935 500.203C60.1944 502.604 63.4506 503.953 66.8459 503.953H179.115C182.511 503.953 185.767 502.604 188.168 500.203C190.569 497.802 191.917 494.546 191.917 491.151C191.917 487.756 190.569 484.499 188.168 482.099C185.767 479.698 182.511 478.349 179.115 478.349Z" fill="white"/>
<path opacity="0.3" d="M235.543 338.305L194.422 344.16L205.163 420.562L235.543 417.477V338.305Z" fill="#263238"/>
<path opacity="0.7" d="M124.874 433.883C166.678 433.883 200.566 399.995 200.566 358.191C200.566 316.387 166.678 282.498 124.874 282.498C83.07 282.498 49.1813 316.387 49.1813 358.191C49.1813 399.995 83.07 433.883 124.874 433.883Z" fill="white"/>
<path d="M152.016 311.91C152.016 311.91 167.479 334.784 176.16 335.712C184.84 336.64 218.796 307.433 218.796 307.433L224.556 312.415C224.556 312.415 192.251 347.9 178.766 349.974C165.282 352.049 139.651 325.326 139.651 325.326L152.016 311.91Z" fill="#E4897B"/>
<path d="M148.331 313.615C148.331 313.615 153.79 308.265 161.296 317.559C168.803 326.854 171.887 328.751 171.887 328.751L152.78 347.408C152.78 347.408 141.548 318.583 148.331 313.615Z" fill="#1B5B64"/>
<path d="M216.109 305.317C216.109 305.317 216.777 296.732 218.77 296.186C220.763 295.64 220.053 301.987 220.053 301.987C220.053 301.987 230.562 295.572 232.678 296.145C234.793 296.719 234.452 300.868 234.042 301.987C230.835 311.54 219.371 315.498 219.371 315.498L214.744 311.131L216.109 305.317Z" fill="#E4897B"/>
<path d="M137.301 289.198C137.301 289.198 147.851 306.777 144.617 317.859C141.382 328.942 124.745 318.979 124.745 318.979L124.95 297.142L137.301 289.198Z" fill="#263238"/>
<path d="M109.012 258.9C109.012 258.9 93.4122 266.802 99.5402 294.603C109.804 341.212 124.953 321.9 124.953 321.9C124.953 321.9 124.284 303.529 118.129 294.603C111.974 285.677 113.257 272.944 113.257 272.944L109.012 258.9Z" fill="#263238"/>
<path d="M154.263 382.034L107.49 386.128C107.037 374.534 105.367 363.02 102.509 351.776C101.39 347.299 99.9977 342.29 98.1961 336.517C97.2271 333.419 96.1625 330.102 94.9751 326.54C94.088 323.811 93.119 320.958 92.0544 317.915C98.4075 315.883 104.898 314.31 111.476 313.206C118.41 311.964 125.425 311.225 132.467 310.995C141.57 310.913 152.024 311.937 152.024 311.937C152.024 311.937 153.512 312.292 154.454 321.941C155.3 330.949 156.132 349.087 154.263 382.034Z" fill="#1B5B64"/>
<path opacity="0.2" d="M154.263 382.034L107.49 386.128C107.037 374.534 105.367 363.02 102.509 351.776C101.39 347.299 99.9977 342.29 98.1961 336.517C97.2271 333.419 96.1625 330.102 94.9751 326.54C94.088 323.811 93.119 320.958 92.0544 317.915C98.4075 315.883 104.898 314.31 111.476 313.206C118.41 311.964 125.425 311.225 132.467 310.995C141.57 310.913 152.024 311.937 152.024 311.937C152.024 311.937 153.512 312.292 154.454 321.941C155.3 330.949 156.132 349.087 154.263 382.034Z" fill="white"/>
<path opacity="0.2" d="M107.28 382.566C114.772 379.645 139.475 367.553 139.475 367.553L106.72 374.95C106.87 377.434 107.075 379.945 107.28 382.566Z" fill="black"/>
<path d="M128.612 321.285C117.08 319.811 113.599 314.898 113.599 314.898C120.915 307.992 114.841 296.036 114.841 296.036L128.708 298.629C128.39 300.561 128.213 302.513 128.175 304.471C128.066 312.892 131.874 312.973 131.874 312.973C134.317 317.532 128.612 321.285 128.612 321.285Z" fill="#E4897B"/>
<path opacity="0.2" d="M128.722 298.629C128.404 300.561 128.226 302.513 128.189 304.471C118.813 304.471 114.855 296.036 114.855 296.036L128.722 298.629Z" fill="black"/>
<path d="M122.501 259.787C134.566 259.118 137.295 264.905 138.878 277.283C140.844 292.76 138.059 304.484 122.801 302C106.055 299.271 101.36 272.752 111.432 262.612C113.793 260.21 118.665 259.978 122.501 259.787Z" fill="#E4897B"/>
<path d="M131.08 278.853C132.143 280.601 133.412 282.214 134.861 283.657C134.538 284.176 134.077 284.594 133.53 284.867C132.983 285.139 132.371 285.254 131.763 285.199L131.08 278.853Z" fill="#DE5753"/>
<path d="M123.781 277.462C124.291 277.204 124.703 276.787 124.955 276.274L122.867 277.284C122.563 277.461 122.321 277.728 122.174 278.048C122.027 278.369 121.984 278.726 122.048 279.072C122.116 280.069 122.717 280.819 123.413 280.778C124.109 280.737 124.546 279.877 124.478 278.895C124.444 278.344 124.194 277.829 123.781 277.462Z" fill="#263238"/>
<path d="M135.489 276.356C135.999 276.098 136.411 275.681 136.663 275.168L134.589 276.178C134.283 276.359 134.04 276.628 133.892 276.949C133.743 277.271 133.696 277.631 133.756 277.98C133.838 278.976 134.438 279.727 135.121 279.672C135.803 279.618 136.254 278.785 136.172 277.789C136.163 277.516 136.098 277.248 135.98 277.001C135.863 276.754 135.696 276.535 135.489 276.356Z" fill="#263238"/>
<path d="M123.77 271.893C122.81 271.831 121.849 271.99 120.96 272.357C120.07 272.723 119.276 273.288 118.639 274.008" stroke="#263238" stroke-width="0.707336" stroke-linecap="round" stroke-linejoin="round"/>
<path d="M131.094 271.402C131.837 270.984 132.665 270.738 133.515 270.684C134.366 270.629 135.218 270.768 136.008 271.088" stroke="#263238" stroke-width="0.707336" stroke-linecap="round" stroke-linejoin="round"/>
<path d="M102.925 316.167C102.925 316.167 116.464 327.154 129.061 326.977C141.658 326.799 146.094 312.633 146.094 312.633C146.094 312.633 126.549 306.846 102.925 316.167Z" fill="#E4897B"/>
<path d="M83.0138 343.6C83.0138 343.6 78.7556 368.713 79.2606 375.864C79.7656 383.016 90.5749 383.234 96.662 382.511C103.663 381.678 140.172 367.239 140.172 367.239L138.48 360.019C138.48 360.019 109.901 367.798 97.7265 369.163C97.1577 369.221 96.5831 369.149 96.0466 368.951C95.51 368.753 95.0258 368.436 94.6308 368.022C94.2358 367.609 93.9405 367.11 93.7674 366.565C93.5943 366.02 93.548 365.443 93.6321 364.878L96.4573 346.234L83.0138 343.6Z" fill="#E4897B"/>
<path d="M92.0498 317.86C92.0498 317.86 99.5153 316.208 100.962 328.069C101.838 335.251 100.899 342.538 98.2324 349.264L79.316 345.852C79.316 345.852 83.6698 318.474 92.0498 317.86Z" fill="#1B5B64"/>
<path d="M147.806 352.785C147.34 352.502 146.789 352.391 146.25 352.471C144.012 353.044 137.215 359.773 136.819 360.66L138.566 367.034C138.566 367.034 142.142 368.945 143.875 368.399C145.608 367.853 154.398 361.383 154.412 359.828C154.422 359.741 154.422 359.654 154.412 359.568C154.725 359.336 154.985 359.145 155.162 359.036C156.65 358.108 151.15 354 147.806 352.785Z" fill="#E4897B"/>
<path d="M121.789 259.827C121.789 259.827 123.331 274.95 110.72 275.496C98.1094 276.041 108.646 261.943 108.646 261.943L121.789 259.827Z" fill="#263238"/>
<path d="M119.086 255.161C98.3549 255.816 100.075 286.142 111.28 294.604C111.28 294.604 105.82 287.261 108.987 280.874C108.987 280.874 113.081 270.992 111.716 263.39C114.921 261.999 118.325 261.12 121.802 260.784C124.136 263.622 129.991 272.248 137.661 272.071C138.104 273.408 138.447 274.777 138.685 276.165C138.685 276.165 139.845 254.519 119.086 255.161Z" fill="#263238"/>
<path d="M134.228 291.015C133.055 291.639 131.751 291.976 130.423 292C129.094 292.024 127.779 291.733 126.585 291.151C126.551 291.133 126.522 291.108 126.498 291.078C126.474 291.048 126.457 291.013 126.447 290.976C126.437 290.939 126.434 290.901 126.439 290.863C126.444 290.825 126.456 290.788 126.476 290.755C126.491 290.723 126.514 290.694 126.541 290.67C126.569 290.647 126.601 290.629 126.636 290.619C126.67 290.609 126.707 290.606 126.743 290.611C126.779 290.615 126.813 290.627 126.844 290.646C127.956 291.179 129.178 291.442 130.411 291.416C131.643 291.39 132.853 291.075 133.941 290.496C134.007 290.461 134.083 290.453 134.154 290.474C134.226 290.494 134.286 290.541 134.323 290.605C134.357 290.669 134.365 290.743 134.345 290.812C134.324 290.881 134.277 290.939 134.214 290.974L134.228 291.015Z" fill="#263238"/>
<path d="M111.101 283.317C110.907 281.928 110.171 280.672 109.053 279.825C107.935 278.978 106.526 278.609 105.136 278.799C101.424 279.4 100.059 287.179 109.463 288.517C110.8 288.708 111.483 287.357 111.101 283.317Z" fill="#E4897B"/>
<path d="M109.691 338.468L122.247 336.694C122.247 336.694 126.341 350.083 118.89 351.516C110.742 353.099 109.691 338.468 109.691 338.468Z" fill="#1B5B64"/>
<path d="M156.999 410.612C156.371 404.416 155.388 395.981 154.132 389.348L154.255 382.033L107.483 386.128L107.06 392.952C105.968 394.971 101.191 404.976 99.0349 429.447C108.762 432.975 119.108 434.473 129.437 433.849C139.765 433.225 149.856 430.491 159.087 425.816L156.999 410.612Z" fill="#263238"/>
<path d="M275.613 388.025L251.825 394.058C249.987 392.921 247.805 392.476 245.669 392.802C242.298 393.43 233.864 400.322 234.191 401.332C234.519 402.342 244.687 407.024 246.147 406.641C251.388 405.277 256.793 399.176 256.793 399.176L278.056 394.795L275.613 388.025Z" fill="#E4897B"/>
<path d="M335.197 302.479C330.365 307.625 317.563 307.188 317.563 307.188C317.563 307.188 313.346 307.556 312.295 303.981C316.922 302.834 317.631 299.504 318.355 296.624C318.711 294.845 318.711 293.013 318.355 291.233C318.206 290.23 317.996 289.236 317.727 288.258L332.59 275.333C331.211 283.181 329.737 297.293 335.197 302.479Z" fill="#E4897B"/>
<path opacity="0.2" d="M329.623 283.044C329.746 292.598 322.171 295.791 318.404 296.624C318.76 294.845 318.76 293.012 318.404 291.233L329.623 283.044Z" fill="black"/>
<path d="M330.843 285.146C329.398 287.703 327.153 289.714 324.452 290.871C321.752 292.027 318.747 292.265 315.899 291.547C312.194 290.697 308.956 288.46 306.85 285.296C306.548 284.859 306.274 284.403 306.031 283.931C301.459 275.223 298.989 259.569 308.051 252.909C310.044 251.414 312.388 250.456 314.857 250.127C317.327 249.799 319.84 250.111 322.154 251.033C324.469 251.955 326.507 253.457 328.074 255.394C329.641 257.331 330.684 259.638 331.103 262.094C333.068 272.535 334.733 278.581 330.843 285.146Z" fill="#E4897B"/>
<path d="M315.591 269.6C315.735 269.919 315.751 270.28 315.637 270.61C315.523 270.94 315.286 271.214 314.976 271.375C314.431 271.511 313.816 270.938 313.612 270.105C313.407 269.273 313.68 268.468 314.226 268.331C314.772 268.195 315.372 268.754 315.591 269.6Z" fill="#263238"/>
<path d="M306.376 271.538C306.649 272.357 306.308 273.176 305.776 273.313C305.243 273.449 304.602 272.876 304.411 272.043C304.22 271.211 304.479 270.406 305.025 270.269C305.571 270.133 306.171 270.747 306.376 271.538Z" fill="#263238"/>
<path d="M309.689 271.798C309.427 274.541 308.78 277.234 307.765 279.796C309.129 280.342 311.04 279.482 312.337 278.772L309.689 271.798Z" fill="#DE5753"/>
<path d="M318.314 265.124C318.228 265.158 318.135 265.168 318.043 265.153C317.952 265.139 317.867 265.101 317.795 265.042C317.306 264.632 316.728 264.342 316.108 264.195C315.487 264.048 314.84 264.049 314.219 264.196C314.155 264.224 314.085 264.238 314.015 264.238C313.945 264.237 313.876 264.222 313.811 264.194C313.747 264.165 313.69 264.123 313.643 264.071C313.596 264.019 313.56 263.957 313.538 263.89C313.516 263.824 313.509 263.753 313.516 263.683C313.522 263.613 313.544 263.545 313.578 263.484C313.613 263.423 313.66 263.37 313.716 263.328C313.773 263.286 313.837 263.256 313.906 263.24C314.685 263.042 315.5 263.03 316.285 263.206C317.07 263.381 317.802 263.739 318.423 264.25C318.476 264.291 318.521 264.341 318.554 264.398C318.588 264.456 318.61 264.519 318.618 264.585C318.627 264.651 318.623 264.718 318.606 264.783C318.589 264.847 318.559 264.907 318.519 264.96C318.46 265.026 318.391 265.081 318.314 265.124Z" fill="#263238"/>
<path d="M314.288 282.907C315.531 282.775 316.724 282.349 317.771 281.666C318.817 280.983 319.686 280.061 320.307 278.977C320.323 278.945 320.333 278.911 320.335 278.876C320.338 278.841 320.333 278.806 320.322 278.773C320.31 278.74 320.292 278.709 320.269 278.683C320.245 278.657 320.216 278.636 320.184 278.622C320.155 278.606 320.123 278.595 320.089 278.592C320.056 278.589 320.022 278.592 319.99 278.603C319.958 278.613 319.929 278.63 319.903 278.652C319.878 278.674 319.858 278.701 319.843 278.731C319.254 279.728 318.44 280.575 317.466 281.203C316.492 281.83 315.386 282.222 314.234 282.348C314.198 282.349 314.164 282.358 314.132 282.374C314.1 282.389 314.072 282.411 314.049 282.438C314.026 282.465 314.009 282.496 313.998 282.53C313.988 282.564 313.984 282.599 313.988 282.634C313.991 282.669 314.002 282.702 314.018 282.732C314.034 282.762 314.056 282.789 314.083 282.81C314.11 282.832 314.14 282.848 314.173 282.858C314.206 282.867 314.241 282.87 314.275 282.866L314.288 282.907Z" fill="#263238"/>
<path d="M301.732 269.095C301.651 269.161 301.549 269.195 301.445 269.19C301.38 269.179 301.318 269.154 301.262 269.118C301.207 269.082 301.159 269.036 301.122 268.981C301.085 268.926 301.06 268.864 301.047 268.8C301.035 268.735 301.036 268.668 301.049 268.603C301.197 267.81 301.531 267.063 302.025 266.424C302.518 265.786 303.157 265.274 303.888 264.932C303.95 264.908 304.016 264.896 304.082 264.897C304.149 264.898 304.214 264.913 304.275 264.939C304.336 264.966 304.391 265.004 304.437 265.052C304.483 265.1 304.519 265.157 304.543 265.219C304.568 265.28 304.579 265.346 304.578 265.413C304.577 265.479 304.562 265.545 304.536 265.606C304.509 265.666 304.471 265.721 304.423 265.767C304.375 265.813 304.319 265.85 304.257 265.874C303.686 266.16 303.19 266.575 302.808 267.087C302.427 267.599 302.17 268.193 302.059 268.822C302.026 268.887 301.98 268.945 301.924 268.992C301.868 269.039 301.802 269.074 301.732 269.095Z" fill="#263238"/>
<path d="M337.712 269.396C337.152 272.016 335.583 274.311 333.344 275.783C330.355 277.694 327.885 275.278 327.776 271.921C327.776 268.932 329.25 264.237 332.675 263.732C336.101 263.227 338.339 266.175 337.712 269.396Z" fill="#E4897B"/>
<path d="M290.707 310.586C285.593 315.455 281.831 321.569 279.788 328.328C277.222 336.517 274.82 355.802 273.646 366.27C273.4 368.291 272.509 370.18 271.105 371.655C269.702 373.13 267.86 374.113 265.853 374.459L237.11 379.468L239.403 394.085L275.816 390.578C279.713 390.202 283.385 388.58 286.287 385.951C289.188 383.323 291.164 379.829 291.921 375.988C294.146 364.728 297.121 348.405 298.472 335.48C300.765 313.52 298.35 308.32 290.707 310.586Z" fill="#1B5B64"/>
<path opacity="0.1" d="M290.707 310.586C285.593 315.455 281.831 321.569 279.788 328.328C277.222 336.517 274.82 355.802 273.646 366.27C273.4 368.291 272.509 370.18 271.105 371.655C269.702 373.13 267.86 374.113 265.853 374.459L237.11 379.468L239.403 394.085L275.816 390.578C279.713 390.202 283.385 388.58 286.287 385.951C289.188 383.323 291.164 379.829 291.921 375.988C294.146 364.728 297.121 348.405 298.472 335.48C300.765 313.52 298.35 308.32 290.707 310.586Z" fill="black"/>
<path d="M290.684 417.423C290.684 417.423 262.869 553.413 261.914 605.631L280.448 613.916C280.448 613.916 295.543 554.915 300.442 521.763C300.442 521.763 313.435 495.436 316.929 473.995C316.929 473.995 316.206 568.167 325.964 617.86L343.352 616.495C343.352 616.495 360.89 439.834 357.724 411.555L290.684 417.423Z" fill="#1B5B64"/>
<path opacity="0.6" d="M290.684 417.423C290.684 417.423 262.869 553.413 261.914 605.631L280.448 613.916C280.448 613.916 295.543 554.915 300.442 521.763C300.442 521.763 313.435 495.436 316.929 473.995C316.929 473.995 316.206 568.167 325.964 617.86L343.352 616.495C343.352 616.495 360.89 439.834 357.724 411.555L290.684 417.423Z" fill="white"/>
<path opacity="0.2" d="M313.91 439.67C313.91 439.67 311.849 472.002 314.783 483.876C315.671 480.532 316.408 477.202 316.926 473.981L313.91 439.67Z" fill="black"/>
<path d="M290.708 310.586C290.708 310.586 293.656 304.758 319.56 303.257C345.464 301.755 357.037 305.59 357.037 305.59C357.037 305.59 354.69 360.429 357.693 411.568C357.693 411.568 314.373 427.004 290.653 417.423C290.68 417.423 272.91 351.189 290.708 310.586Z" fill="#1B5B64"/>
<path opacity="0.2" d="M328.842 302.93C325.976 302.93 322.892 303.066 319.562 303.257C317.555 303.38 315.713 303.517 313.979 303.681C313.979 303.681 316.19 307.87 319.562 307.87C321.396 307.876 323.203 307.428 324.823 306.566C326.442 305.704 327.823 304.455 328.842 302.93Z" fill="black"/>
<path opacity="0.3" d="M356.372 374.187L316.929 394.126C316.929 394.126 341.796 394.891 356.659 386.825C356.541 382.557 356.445 378.345 356.372 374.187Z" fill="black"/>
<path opacity="0.1" d="M319.059 318.611L333.076 380.97L329.964 389.036L319.059 318.611Z" fill="black"/>
<path d="M319.159 320.356L245.344 331.54L256.033 402.084L329.847 390.9L319.159 320.356Z" fill="#1B5B64"/>
<path opacity="0.1" d="M319.159 320.356L245.344 331.54L256.033 402.084L329.847 390.9L319.159 320.356Z" fill="white"/>
<path d="M263.538 327.19L206.432 336.031L217.333 406.449L274.439 397.608L263.538 327.19Z" fill="#1B5B64"/>
<path opacity="0.3" d="M263.538 327.19L206.432 336.031L217.333 406.449L274.439 397.608L263.538 327.19Z" fill="white"/>
<path opacity="0.3" d="M243.077 330.349L226.919 332.851L229.854 351.814L246.012 349.313L243.077 330.349Z" fill="white"/>
<path opacity="0.1" d="M303.367 321.032L287.209 323.533L290.145 342.497L306.303 339.995L303.367 321.032Z" fill="black"/>
<path opacity="0.2" d="M268.604 383.535L250.949 386.268L252.613 397.018L270.268 394.285L268.604 383.535Z" fill="white"/>
<path opacity="0.2" d="M296.183 393.567L294.368 391.165L288.513 392.42C288.201 393.417 288.08 394.463 288.158 395.505L296.347 394.249L296.183 393.567Z" fill="#2E353A"/>
<path d="M286.065 364.005C284.7 364.469 282.789 364.442 282.598 362.64C282.448 361.139 284.222 359.91 285.573 360.156C285.678 360.174 285.786 360.15 285.873 360.088C285.96 360.027 286.019 359.933 286.037 359.829C286.056 359.724 286.031 359.616 285.97 359.529C285.908 359.442 285.815 359.383 285.71 359.364C285.227 359.297 284.735 359.332 284.266 359.469C283.798 359.606 283.364 359.842 282.994 360.159C282.623 360.477 282.324 360.869 282.117 361.311C281.91 361.753 281.8 362.234 281.793 362.722C282.025 365.097 284.522 365.452 286.365 364.769C286.897 364.592 286.611 363.827 286.065 364.005Z" fill="white"/>
<path d="M287.43 356.498C287.308 355.993 286.502 356.075 286.611 356.58C287.203 359.183 287.781 361.78 288.345 364.373C288.454 364.878 289.259 364.81 289.15 364.292L287.43 356.498Z" fill="white"/>
<path d="M292.281 358.026C292.226 358.041 292.177 358.075 292.144 358.122C288.5 358.818 290.643 364.509 294.028 363.458C294.724 363.156 295.284 362.606 295.599 361.916C295.914 361.225 295.962 360.442 295.734 359.719C295.652 359.359 295.491 359.022 295.262 358.733C295.034 358.444 294.743 358.209 294.412 358.047C294.081 357.885 293.717 357.798 293.349 357.795C292.98 357.791 292.615 357.87 292.281 358.026ZM294.082 362.544C291.694 363.909 289.579 359.377 292.294 358.913C292.378 358.903 292.455 358.864 292.513 358.804C294.942 357.794 295.939 361.479 294.082 362.544Z" fill="white"/>
<path d="M299.089 355.871L297.601 356.13L297.356 354.52C297.274 354.001 296.468 354.083 296.55 354.601C296.632 355.12 296.714 355.707 296.81 356.267L295.336 356.512C294.831 356.608 294.899 357.413 295.418 357.331L296.933 357.072L297.833 362.927C297.915 363.432 298.72 363.35 298.639 362.831C298.338 360.866 298.024 358.901 297.724 356.935L299.184 356.676C299.717 356.594 299.608 355.775 299.089 355.871Z" fill="white"/>
<path d="M304.79 356.949C304.294 356.656 303.724 356.511 303.148 356.533C302.572 356.555 302.015 356.742 301.542 357.072C301.351 356.007 301.146 354.943 300.928 353.878C300.819 353.373 300.014 353.455 300.123 353.974C300.678 356.703 301.133 359.433 301.488 362.163C301.569 362.681 302.375 362.599 302.293 362.081C302.102 360.716 301.883 359.351 301.651 357.986C301.862 357.776 302.115 357.613 302.392 357.505C302.67 357.397 302.967 357.348 303.264 357.361C303.562 357.374 303.853 357.448 304.121 357.579C304.388 357.71 304.625 357.895 304.818 358.123C305.311 359.164 305.568 360.301 305.568 361.453C305.593 361.548 305.651 361.63 305.731 361.686C305.811 361.742 305.909 361.767 306.006 361.757C306.103 361.748 306.194 361.703 306.261 361.632C306.329 361.561 306.369 361.469 306.374 361.371C306.292 359.897 306.237 357.727 304.79 356.949Z" fill="white"/>
<path d="M308.23 355.393C307.902 355.567 307.614 355.809 307.387 356.103C307.159 356.397 306.997 356.736 306.911 357.097C306.824 357.459 306.815 357.835 306.885 358.2C306.955 358.565 307.102 358.911 307.315 359.215C307.492 359.584 307.743 359.913 308.053 360.18C308.363 360.447 308.724 360.648 309.116 360.768C309.507 360.889 309.919 360.927 310.325 360.88C310.732 360.834 311.124 360.703 311.478 360.497C311.942 360.265 311.656 359.501 311.192 359.733C310.813 360.004 310.353 360.137 309.889 360.109C309.424 360.082 308.983 359.896 308.639 359.583C308.375 359.34 308.153 359.054 307.984 358.737C309.185 358.832 311.383 358.587 311.437 357.276C311.505 355.598 309.581 354.861 308.23 355.393ZM310.523 357.399C310.4 357.59 309.84 357.713 309.622 357.781C309.005 357.981 308.347 358.019 307.711 357.891C307.67 357.672 307.673 357.446 307.72 357.229C307.767 357.011 307.857 356.804 307.984 356.621C308.18 356.378 308.446 356.2 308.746 356.112C309.047 356.024 309.366 356.03 309.663 356.13C310.059 356.226 310.905 356.881 310.523 357.399Z" fill="white"/>
<path d="M317.459 356.976C317.233 356.587 316.883 356.286 316.464 356.12C316.046 355.954 315.584 355.934 315.153 356.062C314.498 356.198 312.915 356.854 313.269 355.557C313.488 354.697 314.634 354.37 315.439 354.438C315.958 354.438 316.095 353.687 315.562 353.633C314.198 353.51 311.563 354.738 312.41 356.526C312.805 357.359 313.774 357.263 314.566 357.072C314.999 356.894 315.463 356.806 315.931 356.813C316.102 356.824 316.267 356.884 316.407 356.984C316.547 357.084 316.656 357.221 316.722 357.379C316.789 357.538 316.81 357.712 316.784 357.882C316.757 358.051 316.684 358.21 316.572 358.341C315.999 359.092 314.88 358.955 314.061 358.819C313.958 358.809 313.855 358.839 313.773 358.901C313.691 358.964 313.636 359.056 313.618 359.158C313.601 359.26 313.623 359.365 313.68 359.451C313.737 359.538 313.824 359.599 313.925 359.624C314.436 359.769 314.972 359.799 315.496 359.712C316.02 359.625 316.518 359.422 316.954 359.119C317.251 358.859 317.459 358.513 317.55 358.128C317.64 357.744 317.609 357.342 317.459 356.976Z" fill="white"/>
<path d="M330.061 379.508L306.217 385.322C304.392 384.152 302.211 383.668 300.062 383.958C296.705 384.558 288.202 391.369 288.516 392.379C288.83 393.388 296.705 399.557 298.165 399.107C299.625 398.657 308.811 392.16 308.811 392.16L331.521 390.263L330.061 379.508Z" fill="#E4897B"/>
<path d="M355.528 305.509C355.528 305.509 345.51 308.17 346.929 326.759C347.557 334.839 347.871 343.465 348.035 350.643C348.134 355.446 346.865 360.178 344.376 364.286C341.887 368.395 338.28 371.71 333.977 373.845L314.406 381.843L316.931 394.126C316.931 394.126 345.373 391.52 355.378 383.522C365.382 375.524 368.862 358.45 367.238 344.297C364.972 324.644 365.723 304.718 355.528 305.509Z" fill="#1B5B64"/>
<path opacity="0.1" d="M355.528 305.509C355.528 305.509 345.51 308.17 346.929 326.759C347.557 334.839 347.871 343.465 348.035 350.643C348.134 355.446 346.865 360.178 344.376 364.286C341.887 368.395 338.28 371.71 333.977 373.845L314.406 381.843L316.931 394.126C316.931 394.126 345.373 391.52 355.378 383.522C365.382 375.524 368.862 358.45 367.238 344.297C364.972 324.644 365.723 304.718 355.528 305.509Z" fill="black"/>
<path d="M316.259 378.73L317.924 395.818L313.324 396.255L310.881 380.259L316.259 378.73Z" fill="#1B5B64"/>
<path opacity="0.6" d="M316.259 378.73L317.924 395.818L313.324 396.255L310.881 380.259L316.259 378.73Z" fill="white"/>
<path opacity="0.4" d="M340.313 331.802L324.449 333.221L324.675 335.749L340.539 334.331L340.313 331.802Z" fill="white"/>
<path d="M319.558 303.257L324.69 310.081L335.513 302.943V302.288C335.539 301.715 335.428 301.145 335.191 300.623C334.954 300.101 334.597 299.642 334.148 299.285C333.631 298.967 333.043 298.779 332.437 298.739C331.83 298.698 331.223 298.806 330.668 299.053L319.558 303.257Z" fill="#1B5B64"/>
<path d="M312.337 303.802L313.607 301.7C315.204 299.817 316.473 300.786 316.473 300.786L319.557 303.256L315.053 310.08L312.337 303.802Z" fill="#1B5B64"/>
<path opacity="0.6" d="M319.558 303.257L324.69 310.081L335.513 302.943V302.288C335.539 301.715 335.428 301.145 335.191 300.623C334.954 300.101 334.597 299.642 334.148 299.285C333.631 298.967 333.043 298.779 332.437 298.739C331.83 298.698 331.223 298.806 330.668 299.053L319.558 303.257Z" fill="white"/>
<path opacity="0.6" d="M312.337 303.802L313.607 301.7C315.204 299.817 316.473 300.786 316.473 300.786L319.557 303.256L315.053 310.08L312.337 303.802Z" fill="white"/>
<path d="M337.439 269.123C338.162 264.455 334.927 263.814 332.798 264.373C330.669 264.933 328.363 268.318 328.363 268.318C326.288 264.96 325.114 256.457 325.114 256.457C322.477 257.915 319.538 258.74 316.528 258.867C313.517 258.995 310.519 258.423 307.768 257.194C306.707 260.062 304.724 262.496 302.131 264.114C302.131 264.114 298.282 262.353 300.425 253.509C302.854 243.451 317.963 233.72 333.18 243.751C348.398 253.782 339.186 272.412 339.186 272.412C339.186 272.412 335.733 278.513 332.675 280.806C332.934 278.995 332.934 277.157 332.675 275.346C333.916 274.775 334.998 273.909 335.828 272.825C336.658 271.74 337.211 270.469 337.439 269.123Z" fill="#2E353A"/>
<path d="M305.963 254.697C306.844 255.772 307.863 256.726 308.993 257.536C310.144 258.357 311.391 259.035 312.705 259.555C314.018 260.073 315.396 260.408 316.8 260.552C318.237 260.688 319.686 260.647 321.113 260.429C319.695 260.761 318.242 260.916 316.786 260.893C315.309 260.866 313.844 260.632 312.432 260.197C310.994 259.774 309.618 259.163 308.338 258.382C307.038 257.603 305.849 256.653 304.803 255.557L305.963 254.697Z" fill="#2E353A"/>
<path d="M99.2893 497.683H104.832C108.945 497.683 111.752 495.146 111.752 491.342C111.752 487.538 108.945 485.002 104.832 485.002H99.2893V497.683ZM101.644 495.69V486.995H104.724C107.55 486.995 109.379 488.716 109.379 491.342C109.379 493.969 107.55 495.69 104.724 495.69H101.644Z" fill="#BABABA"/>
<path d="M119.742 497.864C123.673 497.864 126.571 495.11 126.571 491.342C126.571 487.574 123.673 484.821 119.742 484.821C115.811 484.821 112.913 487.592 112.913 491.342C112.913 495.092 115.811 497.864 119.742 497.864ZM119.742 495.799C117.188 495.799 115.286 493.933 115.286 491.342C115.286 488.752 117.188 486.886 119.742 486.886C122.296 486.886 124.198 488.752 124.198 491.342C124.198 493.933 122.296 495.799 119.742 495.799Z" fill="#BABABA"/>
<path d="M137.561 485.002V493.589L130.569 485.002H128.631V497.683H130.968V489.096L137.96 497.683H139.898V485.002H137.561Z" fill="#BABABA"/>
<path d="M145.214 495.708V492.212H151.337V490.273H145.214V486.977H152.116V485.002H142.859V497.683H152.37V495.708H145.214Z" fill="#BABABA"/>
</g>
<path opacity="0.35" d="M336.5 20C336.5 18.8034 337.47 17.8334 338.667 17.8334H355.333C356.53 17.8334 357.5 18.8034 357.5 20V26C357.5 27.1967 356.53 28.1667 355.333 28.1667H338.667C337.47 28.1667 336.5 27.1967 336.5 26V20Z" stroke="white"/>
<path opacity="0.4" d="M359 21V25C359.805 24.6613 360.328 23.8732 360.328 23C360.328 22.1269 359.805 21.3388 359 21Z" fill="white"/>
<path d="M338 20.6667C338 19.9303 338.597 19.3334 339.333 19.3334H354.667C355.403 19.3334 356 19.9303 356 20.6667V25.3334C356 26.0698 355.403 26.6667 354.667 26.6667H339.333C338.597 26.6667 338 26.0698 338 25.3334V20.6667Z" fill="white"/>
<path fill-rule="evenodd" clip-rule="evenodd" d="M323.33 19.608C325.546 19.6081 327.677 20.4596 329.283 21.9863C329.404 22.1042 329.598 22.1027 329.717 21.983L330.873 20.8163C330.933 20.7556 330.967 20.6734 330.966 20.5878C330.966 20.5022 330.931 20.4204 330.87 20.3603C326.655 16.3208 320.005 16.3208 315.79 20.3603C315.729 20.4203 315.694 20.5021 315.694 20.5877C315.693 20.6733 315.727 20.7556 315.787 20.8163L316.943 21.983C317.062 22.1029 317.256 22.1044 317.377 21.9863C318.983 20.4595 321.114 19.608 323.33 19.608ZM323.33 23.4037C324.548 23.4036 325.722 23.8561 326.624 24.6733C326.746 24.7893 326.939 24.7868 327.058 24.6677L328.212 23.501C328.273 23.4398 328.307 23.3568 328.306 23.2705C328.305 23.1843 328.27 23.102 328.208 23.042C325.459 20.4856 321.204 20.4856 318.455 23.042C318.393 23.102 318.358 23.1843 318.357 23.2706C318.356 23.3569 318.39 23.4399 318.451 23.501L319.605 24.6677C319.724 24.7868 319.917 24.7893 320.039 24.6733C320.941 23.8567 322.114 23.4042 323.33 23.4037ZM325.643 25.9575C325.645 26.044 325.611 26.1274 325.549 26.188L323.552 28.2037C323.493 28.2629 323.414 28.2963 323.33 28.2963C323.247 28.2963 323.167 28.2629 323.109 28.2037L321.111 26.188C321.049 26.1274 321.015 26.0439 321.017 25.9574C321.019 25.8709 321.056 25.789 321.121 25.731C322.396 24.6521 324.264 24.6521 325.54 25.731C325.604 25.7891 325.642 25.871 325.643 25.9575Z" fill="white"/>
<path fill-rule="evenodd" clip-rule="evenodd" d="M309.667 17.6666H308.667C308.114 17.6666 307.667 18.1143 307.667 18.6666V27.3333C307.667 27.8856 308.114 28.3333 308.667 28.3333H309.667C310.219 28.3333 310.667 27.8856 310.667 27.3333V18.6666C310.667 18.1143 310.219 17.6666 309.667 17.6666ZM304 20H305C305.552 20 306 20.4477 306 21V27.3333C306 27.8856 305.552 28.3333 305 28.3333H304C303.448 28.3333 303 27.8856 303 27.3333V21C303 20.4477 303.448 20 304 20ZM300.333 22.3333H299.333C298.781 22.3333 298.333 22.781 298.333 23.3333V27.3333C298.333 27.8856 298.781 28.3333 299.333 28.3333H300.333C300.886 28.3333 301.333 27.8856 301.333 27.3333V23.3333C301.333 22.781 300.886 22.3333 300.333 22.3333ZM295.667 24.3333H294.667C294.114 24.3333 293.667 24.781 293.667 25.3333V27.3333C293.667 27.8856 294.114 28.3333 294.667 28.3333H295.667C296.219 28.3333 296.667 27.8856 296.667 27.3333V25.3333C296.667 24.781 296.219 24.3333 295.667 24.3333Z" fill="white"/>
<path d="M37.3207 28.2563C40.0087 28.2563 41.6053 26.1543 41.6053 22.5947C41.6053 21.2544 41.349 20.1265 40.8583 19.2549C40.1478 17.8999 38.9247 17.1675 37.3793 17.1675C35.0795 17.1675 33.4535 18.7129 33.4535 20.8809C33.4535 22.917 34.9183 24.3965 36.9325 24.3965C38.1703 24.3965 39.1737 23.8179 39.6718 22.8145H39.6937C39.6937 22.8145 39.723 22.8145 39.7303 22.8145C39.745 22.8145 39.7963 22.8145 39.7963 22.8145C39.7963 25.2314 38.8807 26.6743 37.3353 26.6743C36.4271 26.6743 35.724 26.1763 35.4823 25.3779H33.6C33.9149 27.1138 35.3871 28.2563 37.3207 28.2563ZM37.3866 22.895C36.1708 22.895 35.3065 22.0308 35.3065 20.8223C35.3065 19.6431 36.2147 18.7422 37.3939 18.7422C38.5731 18.7422 39.4813 19.6577 39.4813 20.8516C39.4813 22.0308 38.5951 22.895 37.3866 22.895Z" fill="white"/>
<path d="M44.6965 28.1538C45.3923 28.1538 45.8683 27.6558 45.8683 26.9966C45.8683 26.3301 45.3923 25.8394 44.6965 25.8394C44.008 25.8394 43.5246 26.3301 43.5246 26.9966C43.5246 27.6558 44.008 28.1538 44.6965 28.1538ZM44.6965 22.6606C45.3923 22.6606 45.8683 22.1699 45.8683 21.5107C45.8683 20.8442 45.3923 20.3535 44.6965 20.3535C44.008 20.3535 43.5246 20.8442 43.5246 21.5107C43.5246 22.1699 44.008 22.6606 44.6965 22.6606Z" fill="white"/>
<path d="M52.7241 28H54.5332V26.0298H55.9614V24.4331H54.5332V17.4312H51.8672C49.9995 20.2437 48.5127 22.5947 47.5605 24.3452V26.0298H52.7241V28ZM49.311 24.3672C50.5415 22.1992 51.6401 20.4634 52.6509 18.9692H52.7534V24.4771H49.311V24.3672Z" fill="white"/>
<path d="M59.99 28H61.8797V17.4312H59.9973L57.2361 19.3647V21.1812L59.8655 19.3354H59.99V28Z" fill="white"/>
<rect x="25" y="706" width="144" height="50" rx="2" fill="#091425"/>
<path d="M81.1583 728.216C80.9717 727.945 80.7197 727.749 80.4023 727.628C80.0943 727.497 79.7677 727.432 79.4223 727.432C79.217 727.432 79.0163 727.455 78.8203 727.502C78.6337 727.549 78.461 727.623 78.3023 727.726C78.153 727.829 78.0317 727.964 77.9383 728.132C77.845 728.291 77.7983 728.482 77.7983 728.706C77.7983 729.042 77.915 729.299 78.1483 729.476C78.3817 729.653 78.671 729.807 79.0163 729.938C79.3617 730.069 79.7397 730.195 80.1503 730.316C80.561 730.437 80.939 730.605 81.2843 730.82C81.6297 731.035 81.919 731.319 82.1523 731.674C82.3857 732.029 82.5023 732.5 82.5023 733.088C82.5023 733.62 82.4043 734.087 82.2083 734.488C82.0123 734.88 81.7463 735.207 81.4103 735.468C81.0837 735.729 80.701 735.925 80.2623 736.056C79.8237 736.187 79.3617 736.252 78.8763 736.252C78.2603 736.252 77.6677 736.149 77.0983 735.944C76.529 735.739 76.039 735.393 75.6283 734.908L76.9583 733.62C77.173 733.947 77.453 734.203 77.7983 734.39C78.153 734.567 78.5263 734.656 78.9183 734.656C79.1237 734.656 79.329 734.628 79.5343 734.572C79.7397 734.516 79.9263 734.432 80.0943 734.32C80.2623 734.208 80.3977 734.068 80.5003 733.9C80.603 733.723 80.6543 733.522 80.6543 733.298C80.6543 732.934 80.5377 732.654 80.3043 732.458C80.071 732.262 79.7817 732.099 79.4363 731.968C79.091 731.828 78.713 731.697 78.3023 731.576C77.8917 731.455 77.5137 731.291 77.1683 731.086C76.823 730.871 76.5337 730.591 76.3003 730.246C76.067 729.891 75.9503 729.42 75.9503 728.832C75.9503 728.319 76.053 727.875 76.2583 727.502C76.473 727.129 76.7483 726.821 77.0843 726.578C77.4297 726.326 77.8217 726.139 78.2603 726.018C78.699 725.897 79.147 725.836 79.6043 725.836C80.127 725.836 80.631 725.915 81.1163 726.074C81.611 726.233 82.0543 726.494 82.4463 726.858L81.1583 728.216ZM84.2134 729.28H85.8934V736H84.2134V729.28ZM83.9754 726.998C83.9754 726.727 84.0734 726.494 84.2694 726.298C84.4747 726.093 84.7314 725.99 85.0394 725.99C85.3474 725.99 85.6041 726.088 85.8094 726.284C86.0241 726.471 86.1314 726.709 86.1314 726.998C86.1314 727.287 86.0241 727.53 85.8094 727.726C85.6041 727.913 85.3474 728.006 85.0394 728.006C84.7314 728.006 84.4747 727.908 84.2694 727.712C84.0734 727.507 83.9754 727.269 83.9754 726.998ZM94.7381 729.28V735.398C94.7381 736.005 94.6635 736.551 94.5141 737.036C94.3648 737.531 94.1315 737.946 93.8141 738.282C93.5061 738.627 93.1141 738.893 92.6381 739.08C92.1621 739.267 91.5975 739.36 90.9441 739.36C90.3188 739.36 89.7261 739.281 89.1661 739.122C88.6061 738.963 88.0881 738.674 87.6121 738.254L88.6201 736.882C88.9561 737.19 89.3061 737.428 89.6701 737.596C90.0341 737.764 90.4541 737.848 90.9301 737.848C91.3315 737.848 91.6675 737.792 91.9381 737.68C92.2181 737.568 92.4375 737.414 92.5961 737.218C92.7641 737.022 92.8808 736.784 92.9461 736.504C93.0208 736.233 93.0581 735.93 93.0581 735.594V735.104H93.0301C92.7875 735.431 92.4655 735.678 92.0641 735.846C91.6628 736.005 91.2521 736.084 90.8321 736.084C90.3281 736.084 89.8708 735.995 89.4601 735.818C89.0495 735.631 88.6948 735.384 88.3961 735.076C88.1068 734.768 87.8828 734.404 87.7241 733.984C87.5655 733.564 87.4861 733.116 87.4861 732.64C87.4861 732.145 87.5608 731.683 87.7101 731.254C87.8595 730.825 88.0788 730.451 88.3681 730.134C88.6575 729.817 89.0028 729.569 89.4041 729.392C89.8148 729.205 90.2815 729.112 90.8041 729.112C91.2801 729.112 91.7235 729.205 92.1341 729.392C92.5448 729.579 92.8715 729.877 93.1141 730.288H93.1421V729.28H94.7381ZM91.1541 730.624C90.8555 730.624 90.5848 730.675 90.3421 730.778C90.0995 730.871 89.8895 731.007 89.7121 731.184C89.5441 731.352 89.4088 731.562 89.3061 731.814C89.2128 732.057 89.1661 732.327 89.1661 732.626C89.1661 732.897 89.2128 733.149 89.3061 733.382C89.4088 733.615 89.5488 733.821 89.7261 733.998C89.9035 734.175 90.1135 734.315 90.3561 734.418C90.5988 734.521 90.8601 734.572 91.1401 734.572C91.4481 734.572 91.7235 734.521 91.9661 734.418C92.2181 734.315 92.4281 734.18 92.5961 734.012C92.7735 733.835 92.9088 733.625 93.0021 733.382C93.0955 733.139 93.1421 732.878 93.1421 732.598C93.1421 732.01 92.9648 731.534 92.6101 731.17C92.2555 730.806 91.7701 730.624 91.1541 730.624ZM96.6405 729.28H98.2365V730.358H98.2645C98.4231 730.022 98.6658 729.733 98.9925 729.49C99.3191 729.238 99.7625 729.112 100.322 729.112C100.77 729.112 101.148 729.187 101.456 729.336C101.774 729.485 102.03 729.681 102.226 729.924C102.422 730.167 102.562 730.447 102.646 730.764C102.73 731.081 102.772 731.413 102.772 731.758V736H101.092V732.598C101.092 732.411 101.083 732.206 101.064 731.982C101.046 731.749 100.994 731.534 100.91 731.338C100.836 731.133 100.714 730.965 100.546 730.834C100.378 730.694 100.15 730.624 99.8605 730.624C99.5805 730.624 99.3425 730.671 99.1465 730.764C98.9598 730.857 98.8011 730.983 98.6705 731.142C98.5491 731.301 98.4605 731.483 98.4045 731.688C98.3485 731.893 98.3205 732.108 98.3205 732.332V736H96.6405V729.28ZM108.934 726.088H110.698V736H108.934V726.088ZM112.719 729.28H114.315V730.358H114.343C114.501 730.022 114.744 729.733 115.071 729.49C115.397 729.238 115.841 729.112 116.401 729.112C116.849 729.112 117.227 729.187 117.535 729.336C117.852 729.485 118.109 729.681 118.305 729.924C118.501 730.167 118.641 730.447 118.725 730.764C118.809 731.081 118.851 731.413 118.851 731.758V736H117.171V732.598C117.171 732.411 117.161 732.206 117.143 731.982C117.124 731.749 117.073 731.534 116.989 731.338C116.914 731.133 116.793 730.965 116.625 730.834C116.457 730.694 116.228 730.624 115.939 730.624C115.659 730.624 115.421 730.671 115.225 730.764C115.038 730.857 114.879 730.983 114.749 731.142C114.627 731.301 114.539 731.483 114.483 731.688C114.427 731.893 114.399 732.108 114.399 732.332V736H112.719V729.28Z" fill="white"/>
<rect x="206.5" y="706.5" width="144" height="49" rx="1.5" fill="white" stroke="#172C4B"/>
<path d="M252.378 726.088H255.822C256.298 726.088 256.756 726.135 257.194 726.228C257.642 726.312 258.039 726.461 258.384 726.676C258.73 726.891 259.005 727.18 259.21 727.544C259.416 727.908 259.518 728.37 259.518 728.93C259.518 729.649 259.318 730.251 258.916 730.736C258.524 731.221 257.96 731.515 257.222 731.618L259.854 736H257.726L255.43 731.8H254.142V736H252.378V726.088ZM255.514 730.288C255.766 730.288 256.018 730.279 256.27 730.26C256.522 730.232 256.751 730.176 256.956 730.092C257.171 729.999 257.344 729.863 257.474 729.686C257.605 729.499 257.67 729.243 257.67 728.916C257.67 728.627 257.61 728.393 257.488 728.216C257.367 728.039 257.208 727.908 257.012 727.824C256.816 727.731 256.597 727.67 256.354 727.642C256.121 727.614 255.892 727.6 255.668 727.6H254.142V730.288H255.514ZM262.387 733.228C262.443 733.732 262.639 734.124 262.975 734.404C263.311 734.684 263.717 734.824 264.193 734.824C264.613 734.824 264.963 734.74 265.243 734.572C265.532 734.395 265.784 734.175 265.999 733.914L267.203 734.824C266.811 735.309 266.372 735.655 265.887 735.86C265.401 736.065 264.893 736.168 264.361 736.168C263.857 736.168 263.381 736.084 262.933 735.916C262.485 735.748 262.097 735.51 261.771 735.202C261.444 734.894 261.183 734.525 260.987 734.096C260.8 733.657 260.707 733.172 260.707 732.64C260.707 732.108 260.8 731.627 260.987 731.198C261.183 730.759 261.444 730.386 261.771 730.078C262.097 729.77 262.485 729.532 262.933 729.364C263.381 729.196 263.857 729.112 264.361 729.112C264.827 729.112 265.252 729.196 265.635 729.364C266.027 729.523 266.358 729.756 266.629 730.064C266.909 730.372 267.123 730.755 267.273 731.212C267.431 731.66 267.511 732.178 267.511 732.766V733.228H262.387ZM265.831 731.968C265.821 731.473 265.667 731.086 265.369 730.806C265.07 730.517 264.655 730.372 264.123 730.372C263.619 730.372 263.217 730.517 262.919 730.806C262.629 731.095 262.452 731.483 262.387 731.968H265.831ZM275.998 729.28V735.398C275.998 736.005 275.923 736.551 275.774 737.036C275.625 737.531 275.391 737.946 275.074 738.282C274.766 738.627 274.374 738.893 273.898 739.08C273.422 739.267 272.857 739.36 272.204 739.36C271.579 739.36 270.986 739.281 270.426 739.122C269.866 738.963 269.348 738.674 268.872 738.254L269.88 736.882C270.216 737.19 270.566 737.428 270.93 737.596C271.294 737.764 271.714 737.848 272.19 737.848C272.591 737.848 272.927 737.792 273.198 737.68C273.478 737.568 273.697 737.414 273.856 737.218C274.024 737.022 274.141 736.784 274.206 736.504C274.281 736.233 274.318 735.93 274.318 735.594V735.104H274.29C274.047 735.431 273.725 735.678 273.324 735.846C272.923 736.005 272.512 736.084 272.092 736.084C271.588 736.084 271.131 735.995 270.72 735.818C270.309 735.631 269.955 735.384 269.656 735.076C269.367 734.768 269.143 734.404 268.984 733.984C268.825 733.564 268.746 733.116 268.746 732.64C268.746 732.145 268.821 731.683 268.97 731.254C269.119 730.825 269.339 730.451 269.628 730.134C269.917 729.817 270.263 729.569 270.664 729.392C271.075 729.205 271.541 729.112 272.064 729.112C272.54 729.112 272.983 729.205 273.394 729.392C273.805 729.579 274.131 729.877 274.374 730.288H274.402V729.28H275.998ZM272.414 730.624C272.115 730.624 271.845 730.675 271.602 730.778C271.359 730.871 271.149 731.007 270.972 731.184C270.804 731.352 270.669 731.562 270.566 731.814C270.473 732.057 270.426 732.327 270.426 732.626C270.426 732.897 270.473 733.149 270.566 733.382C270.669 733.615 270.809 733.821 270.986 733.998C271.163 734.175 271.373 734.315 271.616 734.418C271.859 734.521 272.12 734.572 272.4 734.572C272.708 734.572 272.983 734.521 273.226 734.418C273.478 734.315 273.688 734.18 273.856 734.012C274.033 733.835 274.169 733.625 274.262 733.382C274.355 733.139 274.402 732.878 274.402 732.598C274.402 732.01 274.225 731.534 273.87 731.17C273.515 730.806 273.03 730.624 272.414 730.624ZM277.928 729.28H279.608V736H277.928V729.28ZM277.69 726.998C277.69 726.727 277.788 726.494 277.984 726.298C278.19 726.093 278.446 725.99 278.754 725.99C279.062 725.99 279.319 726.088 279.524 726.284C279.739 726.471 279.846 726.709 279.846 726.998C279.846 727.287 279.739 727.53 279.524 727.726C279.319 727.913 279.062 728.006 278.754 728.006C278.446 728.006 278.19 727.908 277.984 727.712C277.788 727.507 277.69 727.269 277.69 726.998ZM285.121 731.142C284.794 730.685 284.356 730.456 283.805 730.456C283.581 730.456 283.362 730.512 283.147 730.624C282.932 730.736 282.825 730.918 282.825 731.17C282.825 731.375 282.914 731.525 283.091 731.618C283.268 731.711 283.492 731.791 283.763 731.856C284.034 731.921 284.323 731.991 284.631 732.066C284.948 732.131 285.242 732.239 285.513 732.388C285.784 732.528 286.008 732.724 286.185 732.976C286.362 733.228 286.451 733.573 286.451 734.012C286.451 734.413 286.362 734.754 286.185 735.034C286.017 735.305 285.793 735.524 285.513 735.692C285.242 735.86 284.934 735.981 284.589 736.056C284.244 736.131 283.898 736.168 283.553 736.168C283.03 736.168 282.55 736.093 282.111 735.944C281.672 735.795 281.28 735.524 280.935 735.132L282.055 734.082C282.27 734.325 282.498 734.525 282.741 734.684C282.993 734.833 283.296 734.908 283.651 734.908C283.772 734.908 283.898 734.894 284.029 734.866C284.16 734.838 284.281 734.791 284.393 734.726C284.505 734.661 284.594 734.581 284.659 734.488C284.734 734.385 284.771 734.269 284.771 734.138C284.771 733.905 284.682 733.732 284.505 733.62C284.328 733.508 284.104 733.419 283.833 733.354C283.562 733.279 283.268 733.214 282.951 733.158C282.643 733.093 282.354 732.995 282.083 732.864C281.812 732.724 281.588 732.533 281.411 732.29C281.234 732.047 281.145 731.711 281.145 731.282C281.145 730.909 281.22 730.587 281.369 730.316C281.528 730.036 281.733 729.807 281.985 729.63C282.237 729.453 282.526 729.322 282.853 729.238C283.18 729.154 283.511 729.112 283.847 729.112C284.295 729.112 284.738 729.191 285.177 729.35C285.616 729.499 285.97 729.761 286.241 730.134L285.121 731.142ZM286.974 730.708V729.28H288.36V727.334H290.04V729.28H291.888V730.708H290.04V733.648C290.04 733.984 290.1 734.25 290.222 734.446C290.352 734.642 290.604 734.74 290.978 734.74C291.127 734.74 291.29 734.726 291.468 734.698C291.645 734.661 291.785 734.605 291.888 734.53V735.944C291.71 736.028 291.491 736.084 291.23 736.112C290.978 736.149 290.754 736.168 290.558 736.168C290.11 736.168 289.741 736.117 289.452 736.014C289.172 735.921 288.948 735.776 288.78 735.58C288.621 735.375 288.509 735.123 288.444 734.824C288.388 734.525 288.36 734.18 288.36 733.788V730.708H286.974ZM294.543 733.228C294.599 733.732 294.795 734.124 295.131 734.404C295.467 734.684 295.873 734.824 296.349 734.824C296.769 734.824 297.119 734.74 297.399 734.572C297.688 734.395 297.94 734.175 298.155 733.914L299.359 734.824C298.967 735.309 298.528 735.655 298.043 735.86C297.558 736.065 297.049 736.168 296.517 736.168C296.013 736.168 295.537 736.084 295.089 735.916C294.641 735.748 294.254 735.51 293.927 735.202C293.6 734.894 293.339 734.525 293.143 734.096C292.956 733.657 292.863 733.172 292.863 732.64C292.863 732.108 292.956 731.627 293.143 731.198C293.339 730.759 293.6 730.386 293.927 730.078C294.254 729.77 294.641 729.532 295.089 729.364C295.537 729.196 296.013 729.112 296.517 729.112C296.984 729.112 297.408 729.196 297.791 729.364C298.183 729.523 298.514 729.756 298.785 730.064C299.065 730.372 299.28 730.755 299.429 731.212C299.588 731.66 299.667 732.178 299.667 732.766V733.228H294.543ZM297.987 731.968C297.978 731.473 297.824 731.086 297.525 730.806C297.226 730.517 296.811 730.372 296.279 730.372C295.775 730.372 295.374 730.517 295.075 730.806C294.786 731.095 294.608 731.483 294.543 731.968H297.987ZM301.238 729.28H302.918V730.344H302.946C303.133 729.952 303.399 729.649 303.744 729.434C304.089 729.219 304.486 729.112 304.934 729.112C305.037 729.112 305.135 729.121 305.228 729.14C305.331 729.159 305.433 729.182 305.536 729.21V730.834C305.396 730.797 305.256 730.769 305.116 730.75C304.985 730.722 304.855 730.708 304.724 730.708C304.332 730.708 304.015 730.783 303.772 730.932C303.539 731.072 303.357 731.235 303.226 731.422C303.105 731.609 303.021 731.795 302.974 731.982C302.937 732.169 302.918 732.309 302.918 732.402V736H301.238V729.28Z" fill="#172C4B"/>
<rect x="122" y="799" width="134" height="5" rx="2.5" fill="black"/>
<path d="M35.35 613.26C35.57 613.16 35.91 613.05 36.37 612.93C36.85 612.79 37.33 612.72 37.81 612.72C38.65 612.72 39.35 612.85 39.91 613.11C40.47 613.35 40.81 613.71 40.93 614.19C41.15 615.01 41.35 615.78 41.53 616.5C41.73 617.2 41.92 617.88 42.1 618.54C42.28 619.18 42.45 619.82 42.61 620.46C42.79 621.1 42.96 621.77 43.12 622.47H43.27C43.45 621.25 43.61 620.09 43.75 618.99C43.89 617.87 44.02 616.78 44.14 615.72C44.26 614.64 44.38 613.58 44.5 612.54C44.62 611.48 44.74 610.41 44.86 609.33C45.6 608.91 46.39 608.7 47.23 608.7C47.97 608.7 48.61 608.86 49.15 609.18C49.69 609.5 49.96 610.04 49.96 610.8C49.96 611.24 49.91 611.87 49.81 612.69C49.73 613.49 49.61 614.39 49.45 615.39C49.31 616.39 49.14 617.44 48.94 618.54C48.74 619.64 48.53 620.69 48.31 621.69C48.09 622.69 47.86 623.6 47.62 624.42C47.4 625.22 47.19 625.84 46.99 626.28C46.69 626.56 46.2 626.79 45.52 626.97C44.84 627.15 44.14 627.24 43.42 627.24C42.48 627.24 41.68 627.12 41.02 626.88C40.38 626.62 39.99 626.26 39.85 625.8C39.59 625 39.31 624.05 39.01 622.95C38.71 621.85 38.39 620.64 38.05 619.32C37.77 620.62 37.48 621.89 37.18 623.13C36.88 624.37 36.61 625.42 36.37 626.28C36.07 626.56 35.62 626.79 35.02 626.97C34.42 627.15 33.76 627.24 33.04 627.24C32.14 627.24 31.32 627.12 30.58 626.88C29.86 626.62 29.39 626.26 29.17 625.8C28.99 625.44 28.79 624.91 28.57 624.21C28.37 623.49 28.16 622.68 27.94 621.78C27.72 620.86 27.49 619.87 27.25 618.81C27.03 617.75 26.82 616.69 26.62 615.63C26.44 614.57 26.27 613.54 26.11 612.54C25.95 611.52 25.83 610.59 25.75 609.75C26.03 609.49 26.42 609.25 26.92 609.03C27.42 608.81 27.96 608.7 28.54 608.7C29.3 608.7 29.92 608.87 30.4 609.21C30.9 609.53 31.21 610.08 31.33 610.86C31.65 612.9 31.91 614.6 32.11 615.96C32.33 617.32 32.5 618.44 32.62 619.32C32.76 620.18 32.86 620.85 32.92 621.33C32.98 621.81 33.04 622.19 33.1 622.47H33.25C33.43 621.67 33.6 620.93 33.76 620.25C33.92 619.57 34.08 618.89 34.24 618.21C34.42 617.51 34.6 616.77 34.78 615.99C34.96 615.19 35.15 614.28 35.35 613.26ZM59.8755 627.48C58.6955 627.48 57.5955 627.32 56.5755 627C55.5755 626.66 54.6955 626.16 53.9355 625.5C53.1955 624.84 52.6055 624.01 52.1655 623.01C51.7455 622.01 51.5355 620.84 51.5355 619.5C51.5355 618.18 51.7455 617.05 52.1655 616.11C52.6055 615.15 53.1755 614.37 53.8755 613.77C54.5755 613.15 55.3755 612.7 56.2755 612.42C57.1755 612.12 58.0955 611.97 59.0355 611.97C60.0955 611.97 61.0555 612.13 61.9155 612.45C62.7955 612.77 63.5455 613.21 64.1655 613.77C64.8055 614.33 65.2955 615 65.6355 615.78C65.9955 616.56 66.1755 617.41 66.1755 618.33C66.1755 619.01 65.9855 619.53 65.6055 619.89C65.2255 620.25 64.6955 620.48 64.0155 620.58L56.6055 621.69C56.8255 622.35 57.2755 622.85 57.9555 623.19C58.6355 623.51 59.4155 623.67 60.2955 623.67C61.1155 623.67 61.8855 623.57 62.6055 623.37C63.3455 623.15 63.9455 622.9 64.4055 622.62C64.7255 622.82 64.9955 623.1 65.2155 623.46C65.4355 623.82 65.5455 624.2 65.5455 624.6C65.5455 625.5 65.1255 626.17 64.2855 626.61C63.6455 626.95 62.9255 627.18 62.1255 627.3C61.3255 627.42 60.5755 627.48 59.8755 627.48ZM59.0355 615.69C58.5555 615.69 58.1355 615.77 57.7755 615.93C57.4355 616.09 57.1555 616.3 56.9355 616.56C56.7155 616.8 56.5455 617.08 56.4255 617.4C56.3255 617.7 56.2655 618.01 56.2455 618.33L61.3755 617.49C61.3155 617.09 61.0955 616.69 60.7155 616.29C60.3355 615.89 59.7755 615.69 59.0355 615.69ZM73.8203 626.97C73.6003 627.01 73.2703 627.06 72.8303 627.12C72.4103 627.2 71.9803 627.24 71.5403 627.24C71.1003 627.24 70.7003 627.21 70.3403 627.15C70.0003 627.09 69.7103 626.97 69.4703 626.79C69.2303 626.61 69.0403 626.37 68.9003 626.07C68.7803 625.75 68.7203 625.34 68.7203 624.84V607.44C68.9403 607.4 69.2603 607.35 69.6803 607.29C70.1203 607.21 70.5603 607.17 71.0003 607.17C71.4403 607.17 71.8303 607.2 72.1703 607.26C72.5303 607.32 72.8303 607.44 73.0703 607.62C73.3103 607.8 73.4903 608.05 73.6103 608.37C73.7503 608.67 73.8203 609.07 73.8203 609.57V626.97ZM85.2585 615.99C84.7585 615.99 84.2785 616.07 83.8185 616.23C83.3785 616.39 82.9885 616.63 82.6485 616.95C82.3285 617.25 82.0685 617.63 81.8685 618.09C81.6685 618.55 81.5685 619.09 81.5685 619.71C81.5685 620.95 81.9185 621.88 82.6185 622.5C83.3385 623.12 84.2085 623.43 85.2285 623.43C85.8285 623.43 86.3485 623.36 86.7885 623.22C87.2285 623.08 87.6185 622.93 87.9585 622.77C88.3585 623.05 88.6585 623.36 88.8585 623.7C89.0585 624.02 89.1585 624.41 89.1585 624.87C89.1585 625.69 88.7685 626.33 87.9885 626.79C87.2085 627.23 86.1285 627.45 84.7485 627.45C83.4885 627.45 82.3485 627.27 81.3285 626.91C80.3085 626.53 79.4285 626.01 78.6885 625.35C77.9685 624.67 77.4085 623.86 77.0085 622.92C76.6085 621.98 76.4085 620.94 76.4085 619.8C76.4085 618.48 76.6185 617.33 77.0385 616.35C77.4785 615.35 78.0685 614.53 78.8085 613.89C79.5485 613.25 80.3985 612.77 81.3585 612.45C82.3385 612.13 83.3685 611.97 84.4485 611.97C85.8885 611.97 86.9985 612.23 87.7785 612.75C88.5585 613.27 88.9485 613.94 88.9485 614.76C88.9485 615.14 88.8585 615.5 88.6785 615.84C88.4985 616.16 88.2885 616.44 88.0485 616.68C87.7085 616.52 87.2985 616.37 86.8185 616.23C86.3385 616.07 85.8185 615.99 85.2585 615.99ZM106.367 619.71C106.367 620.95 106.177 622.06 105.797 623.04C105.417 624 104.877 624.81 104.177 625.47C103.497 626.13 102.677 626.63 101.717 626.97C100.757 627.31 99.6868 627.48 98.5068 627.48C97.3268 627.48 96.2568 627.3 95.2968 626.94C94.3368 626.58 93.5068 626.07 92.8068 625.41C92.1268 624.73 91.5968 623.91 91.2168 622.95C90.8368 621.99 90.6468 620.91 90.6468 619.71C90.6468 618.53 90.8368 617.46 91.2168 616.5C91.5968 615.54 92.1268 614.73 92.8068 614.07C93.5068 613.39 94.3368 612.87 95.2968 612.51C96.2568 612.15 97.3268 611.97 98.5068 611.97C99.6868 611.97 100.757 612.16 101.717 612.54C102.677 612.9 103.497 613.42 104.177 614.1C104.877 614.76 105.417 615.57 105.797 616.53C106.177 617.49 106.367 618.55 106.367 619.71ZM95.8668 619.71C95.8668 620.93 96.0968 621.87 96.5568 622.53C97.0368 623.17 97.6968 623.49 98.5368 623.49C99.3768 623.49 100.017 623.16 100.457 622.5C100.917 621.84 101.147 620.91 101.147 619.71C101.147 618.51 100.917 617.59 100.457 616.95C99.9968 616.29 99.3468 615.96 98.5068 615.96C97.6668 615.96 97.0168 616.29 96.5568 616.95C96.0968 617.59 95.8668 618.51 95.8668 619.71ZM115.845 611.97C116.665 611.97 117.465 612.09 118.245 612.33C119.045 612.55 119.735 612.89 120.315 613.35C120.915 612.95 121.585 612.62 122.325 612.36C123.085 612.1 123.995 611.97 125.055 611.97C125.815 611.97 126.555 612.07 127.275 612.27C128.015 612.47 128.665 612.79 129.225 613.23C129.805 613.65 130.265 614.22 130.605 614.94C130.945 615.64 131.115 616.5 131.115 617.52V626.97C130.915 627.03 130.595 627.09 130.155 627.15C129.735 627.21 129.295 627.24 128.835 627.24C128.395 627.24 127.995 627.21 127.635 627.15C127.295 627.09 127.005 626.97 126.765 626.79C126.525 626.61 126.335 626.37 126.195 626.07C126.075 625.75 126.015 625.34 126.015 624.84V617.67C126.015 617.07 125.845 616.64 125.505 616.38C125.165 616.1 124.705 615.96 124.125 615.96C123.845 615.96 123.545 616.03 123.225 616.17C122.905 616.29 122.665 616.42 122.505 616.56C122.525 616.64 122.535 616.72 122.535 616.8C122.535 616.86 122.535 616.92 122.535 616.98V626.97C122.315 627.03 121.985 627.09 121.545 627.15C121.125 627.21 120.695 627.24 120.255 627.24C119.815 627.24 119.415 627.21 119.055 627.15C118.715 627.09 118.425 626.97 118.185 626.79C117.945 626.61 117.755 626.37 117.615 626.07C117.495 625.75 117.435 625.34 117.435 624.84V617.67C117.435 617.07 117.245 616.64 116.865 616.38C116.505 616.1 116.065 615.96 115.545 615.96C115.185 615.96 114.875 616.02 114.615 616.14C114.355 616.24 114.135 616.34 113.955 616.44V626.97C113.755 627.03 113.435 627.09 112.995 627.15C112.575 627.21 112.135 627.24 111.675 627.24C111.235 627.24 110.835 627.21 110.475 627.15C110.135 627.09 109.845 626.97 109.605 626.79C109.365 626.61 109.175 626.37 109.035 626.07C108.915 625.75 108.855 625.34 108.855 624.84V615.78C108.855 615.24 108.965 614.81 109.185 614.49C109.425 614.17 109.745 613.87 110.145 613.59C110.825 613.11 111.665 612.72 112.665 612.42C113.685 612.12 114.745 611.97 115.845 611.97ZM141.936 627.48C140.756 627.48 139.656 627.32 138.636 627C137.636 626.66 136.756 626.16 135.996 625.5C135.256 624.84 134.666 624.01 134.226 623.01C133.806 622.01 133.596 620.84 133.596 619.5C133.596 618.18 133.806 617.05 134.226 616.11C134.666 615.15 135.236 614.37 135.936 613.77C136.636 613.15 137.436 612.7 138.336 612.42C139.236 612.12 140.156 611.97 141.096 611.97C142.156 611.97 143.116 612.13 143.976 612.45C144.856 612.77 145.606 613.21 146.226 613.77C146.866 614.33 147.356 615 147.696 615.78C148.056 616.56 148.236 617.41 148.236 618.33C148.236 619.01 148.046 619.53 147.666 619.89C147.286 620.25 146.756 620.48 146.076 620.58L138.666 621.69C138.886 622.35 139.336 622.85 140.016 623.19C140.696 623.51 141.476 623.67 142.356 623.67C143.176 623.67 143.946 623.57 144.666 623.37C145.406 623.15 146.006 622.9 146.466 622.62C146.786 622.82 147.056 623.1 147.276 623.46C147.496 623.82 147.606 624.2 147.606 624.6C147.606 625.5 147.186 626.17 146.346 626.61C145.706 626.95 144.986 627.18 144.186 627.3C143.386 627.42 142.636 627.48 141.936 627.48ZM141.096 615.69C140.616 615.69 140.196 615.77 139.836 615.93C139.496 616.09 139.216 616.3 138.996 616.56C138.776 616.8 138.606 617.08 138.486 617.4C138.386 617.7 138.326 618.01 138.306 618.33L143.436 617.49C143.376 617.09 143.156 616.69 142.776 616.29C142.396 615.89 141.836 615.69 141.096 615.69ZM161.797 621.99C161.797 622.51 161.957 622.88 162.277 623.1C162.617 623.32 163.087 623.43 163.687 623.43C163.987 623.43 164.297 623.41 164.617 623.37C164.937 623.31 165.217 623.24 165.457 623.16C165.637 623.38 165.787 623.63 165.907 623.91C166.047 624.17 166.117 624.49 166.117 624.87C166.117 625.63 165.827 626.25 165.247 626.73C164.687 627.21 163.687 627.45 162.247 627.45C160.487 627.45 159.127 627.05 158.167 626.25C157.227 625.45 156.757 624.15 156.757 622.35V609.51C156.977 609.45 157.287 609.39 157.687 609.33C158.107 609.25 158.547 609.21 159.007 609.21C159.887 609.21 160.567 609.37 161.047 609.69C161.547 609.99 161.797 610.64 161.797 611.64V613.56H165.727C165.847 613.78 165.957 614.06 166.057 614.4C166.177 614.72 166.237 615.08 166.237 615.48C166.237 616.18 166.077 616.69 165.757 617.01C165.457 617.31 165.047 617.46 164.527 617.46H161.797V621.99ZM183.623 619.71C183.623 620.95 183.433 622.06 183.053 623.04C182.673 624 182.133 624.81 181.433 625.47C180.753 626.13 179.933 626.63 178.973 626.97C178.013 627.31 176.943 627.48 175.763 627.48C174.583 627.48 173.513 627.3 172.553 626.94C171.593 626.58 170.763 626.07 170.063 625.41C169.383 624.73 168.853 623.91 168.473 622.95C168.093 621.99 167.903 620.91 167.903 619.71C167.903 618.53 168.093 617.46 168.473 616.5C168.853 615.54 169.383 614.73 170.063 614.07C170.763 613.39 171.593 612.87 172.553 612.51C173.513 612.15 174.583 611.97 175.763 611.97C176.943 611.97 178.013 612.16 178.973 612.54C179.933 612.9 180.753 613.42 181.433 614.1C182.133 614.76 182.673 615.57 183.053 616.53C183.433 617.49 183.623 618.55 183.623 619.71ZM173.123 619.71C173.123 620.93 173.353 621.87 173.813 622.53C174.293 623.17 174.953 623.49 175.793 623.49C176.633 623.49 177.273 623.16 177.713 622.5C178.173 621.84 178.403 620.91 178.403 619.71C178.403 618.51 178.173 617.59 177.713 616.95C177.253 616.29 176.603 615.96 175.763 615.96C174.923 615.96 174.273 616.29 173.813 616.95C173.353 617.59 173.123 618.51 173.123 619.71ZM32.11 653.77C31.23 653.47 30.43 653.17 29.71 652.87C28.99 652.55 28.37 652.17 27.85 651.73C27.33 651.29 26.92 650.77 26.62 650.17C26.34 649.55 26.2 648.8 26.2 647.92C26.2 646.22 26.85 644.86 28.15 643.84C29.47 642.82 31.31 642.31 33.67 642.31C34.53 642.31 35.33 642.37 36.07 642.49C36.81 642.61 37.44 642.8 37.96 643.06C38.5 643.3 38.92 643.62 39.22 644.02C39.52 644.4 39.67 644.85 39.67 645.37C39.67 645.89 39.55 646.34 39.31 646.72C39.07 647.08 38.78 647.39 38.44 647.65C38 647.37 37.41 647.13 36.67 646.93C35.93 646.71 35.12 646.6 34.24 646.6C33.34 646.6 32.68 646.73 32.26 646.99C31.84 647.23 31.63 647.54 31.63 647.92C31.63 648.22 31.76 648.47 32.02 648.67C32.28 648.85 32.67 649.02 33.19 649.18L34.78 649.69C36.66 650.29 38.1 651.06 39.1 652C40.12 652.92 40.63 654.18 40.63 655.78C40.63 657.48 39.96 658.86 38.62 659.92C37.28 660.96 35.31 661.48 32.71 661.48C31.79 661.48 30.93 661.4 30.13 661.24C29.35 661.1 28.66 660.89 28.06 660.61C27.48 660.31 27.02 659.95 26.68 659.53C26.36 659.09 26.2 658.59 26.2 658.03C26.2 657.45 26.37 656.96 26.71 656.56C27.05 656.14 27.42 655.82 27.82 655.6C28.38 656.04 29.06 656.42 29.86 656.74C30.68 657.06 31.57 657.22 32.53 657.22C33.51 657.22 34.2 657.07 34.6 656.77C35 656.47 35.2 656.12 35.2 655.72C35.2 655.32 35.04 655.02 34.72 654.82C34.4 654.6 33.95 654.39 33.37 654.19L32.11 653.77ZM52.2355 651.76C52.2355 651.14 52.0555 650.69 51.6955 650.41C51.3555 650.11 50.8855 649.96 50.2855 649.96C49.8855 649.96 49.4855 650.01 49.0855 650.11C48.7055 650.21 48.3755 650.36 48.0955 650.56V660.97C47.8955 661.03 47.5755 661.09 47.1355 661.15C46.7155 661.21 46.2755 661.24 45.8155 661.24C45.3755 661.24 44.9755 661.21 44.6155 661.15C44.2755 661.09 43.9855 660.97 43.7455 660.79C43.5055 660.61 43.3155 660.37 43.1755 660.07C43.0555 659.75 42.9955 659.34 42.9955 658.84V649.84C42.9955 649.3 43.1055 648.86 43.3255 648.52C43.5655 648.18 43.8855 647.87 44.2855 647.59C44.9655 647.11 45.8155 646.72 46.8355 646.42C47.8755 646.12 49.0255 645.97 50.2855 645.97C52.5455 645.97 54.2855 646.47 55.5055 647.47C56.7255 648.45 57.3355 649.82 57.3355 651.58V660.97C57.1355 661.03 56.8155 661.09 56.3755 661.15C55.9555 661.21 55.5155 661.24 55.0555 661.24C54.6155 661.24 54.2155 661.21 53.8555 661.15C53.5155 661.09 53.2255 660.97 52.9855 660.79C52.7455 660.61 52.5555 660.37 52.4155 660.07C52.2955 659.75 52.2355 659.34 52.2355 658.84V651.76ZM66.7258 657.76C67.0658 657.76 67.4358 657.73 67.8358 657.67C68.2558 657.59 68.5658 657.49 68.7658 657.37V654.97L66.6058 655.15C66.0458 655.19 65.5858 655.31 65.2258 655.51C64.8658 655.71 64.6858 656.01 64.6858 656.41C64.6858 656.81 64.8358 657.14 65.1358 657.4C65.4558 657.64 65.9858 657.76 66.7258 657.76ZM66.4858 645.97C67.5658 645.97 68.5458 646.08 69.4258 646.3C70.3258 646.52 71.0858 646.86 71.7058 647.32C72.3458 647.76 72.8358 648.33 73.1758 649.03C73.5158 649.71 73.6858 650.52 73.6858 651.46V658.18C73.6858 658.7 73.5358 659.13 73.2358 659.47C72.9558 659.79 72.6158 660.07 72.2158 660.31C70.9158 661.09 69.0858 661.48 66.7258 661.48C65.6658 661.48 64.7058 661.38 63.8458 661.18C63.0058 660.98 62.2758 660.68 61.6558 660.28C61.0558 659.88 60.5858 659.37 60.2458 658.75C59.9258 658.13 59.7658 657.41 59.7658 656.59C59.7658 655.21 60.1758 654.15 60.9958 653.41C61.8158 652.67 63.0858 652.21 64.8058 652.03L68.7358 651.61V651.4C68.7358 650.82 68.4758 650.41 67.9558 650.17C67.4558 649.91 66.7258 649.78 65.7658 649.78C65.0058 649.78 64.2658 649.86 63.5458 650.02C62.8258 650.18 62.1758 650.38 61.5958 650.62C61.3358 650.44 61.1158 650.17 60.9358 649.81C60.7558 649.43 60.6658 649.04 60.6658 648.64C60.6658 648.12 60.7858 647.71 61.0258 647.41C61.2858 647.09 61.6758 646.82 62.1958 646.6C62.7758 646.38 63.4558 646.22 64.2358 646.12C65.0358 646.02 65.7858 645.97 66.4858 645.97ZM83.4941 645.97C84.6941 645.97 85.8041 646.13 86.8241 646.45C87.8641 646.75 88.7541 647.22 89.4941 647.86C90.2341 648.5 90.8141 649.31 91.2341 650.29C91.6541 651.25 91.8641 652.4 91.8641 653.74C91.8641 655.02 91.6841 656.14 91.3241 657.1C90.9641 658.06 90.4541 658.87 89.7941 659.53C89.1341 660.17 88.3341 660.65 87.3941 660.97C86.4741 661.29 85.4441 661.45 84.3041 661.45C83.4441 661.45 82.6441 661.32 81.9041 661.06V666.04C81.7041 666.1 81.3841 666.16 80.9441 666.22C80.5041 666.3 80.0541 666.34 79.5941 666.34C79.1541 666.34 78.7541 666.31 78.3941 666.25C78.0541 666.19 77.7641 666.07 77.5241 665.89C77.2841 665.71 77.1041 665.46 76.9841 665.14C76.8641 664.84 76.8041 664.44 76.8041 663.94V649.54C76.8041 649 76.9141 648.56 77.1341 648.22C77.3741 647.88 77.6941 647.57 78.0941 647.29C78.7141 646.89 79.4841 646.57 80.4041 646.33C81.3241 646.09 82.3541 645.97 83.4941 645.97ZM83.5541 657.43C85.6141 657.43 86.6441 656.2 86.6441 653.74C86.6441 652.46 86.3841 651.51 85.8641 650.89C85.3641 650.27 84.6341 649.96 83.6741 649.96C83.2941 649.96 82.9541 650.01 82.6541 650.11C82.3541 650.19 82.0941 650.29 81.8741 650.41V657.01C82.1141 657.13 82.3741 657.23 82.6541 657.31C82.9341 657.39 83.2341 657.43 83.5541 657.43ZM105.969 655.12V660.88C105.749 660.94 105.399 661 104.919 661.06C104.459 661.12 103.999 661.15 103.539 661.15C103.079 661.15 102.669 661.11 102.309 661.03C101.969 660.97 101.679 660.85 101.439 660.67C101.219 660.49 101.049 660.24 100.929 659.92C100.809 659.6 100.749 659.18 100.749 658.66V644.53C100.749 644.11 100.859 643.79 101.079 643.57C101.319 643.33 101.639 643.14 102.039 643C102.719 642.76 103.509 642.59 104.409 642.49C105.309 642.37 106.269 642.31 107.289 642.31C110.049 642.31 112.129 642.89 113.529 644.05C114.929 645.21 115.629 646.78 115.629 648.76C115.629 650 115.309 651.06 114.669 651.94C114.029 652.82 113.269 653.5 112.389 653.98C113.109 654.96 113.819 655.88 114.519 656.74C115.219 657.6 115.769 658.38 116.169 659.08C115.969 659.78 115.599 660.32 115.059 660.7C114.539 661.06 113.949 661.24 113.289 661.24C112.849 661.24 112.469 661.19 112.149 661.09C111.829 660.99 111.549 660.85 111.309 660.67C111.069 660.49 110.849 660.27 110.649 660.01C110.449 659.75 110.259 659.47 110.079 659.17L107.559 655.12H105.969ZM107.859 651.13C108.619 651.13 109.219 650.94 109.659 650.56C110.099 650.16 110.319 649.58 110.319 648.82C110.319 648.06 110.069 647.49 109.569 647.11C109.089 646.71 108.319 646.51 107.259 646.51C106.959 646.51 106.719 646.52 106.539 646.54C106.359 646.56 106.159 646.59 105.939 646.63V651.13H107.859ZM118.52 642.37C118.52 641.61 118.77 640.97 119.27 640.45C119.79 639.93 120.47 639.67 121.31 639.67C122.15 639.67 122.82 639.93 123.32 640.45C123.84 640.97 124.1 641.61 124.1 642.37C124.1 643.13 123.84 643.77 123.32 644.29C122.82 644.81 122.15 645.07 121.31 645.07C120.47 645.07 119.79 644.81 119.27 644.29C118.77 643.77 118.52 643.13 118.52 642.37ZM123.86 660.97C123.64 661.01 123.31 661.06 122.87 661.12C122.45 661.2 122.02 661.24 121.58 661.24C121.14 661.24 120.74 661.21 120.38 661.15C120.04 661.09 119.75 660.97 119.51 660.79C119.27 660.61 119.08 660.37 118.94 660.07C118.82 659.75 118.76 659.34 118.76 658.84V646.63C118.98 646.59 119.3 646.54 119.72 646.48C120.16 646.4 120.6 646.36 121.04 646.36C121.48 646.36 121.87 646.39 122.21 646.45C122.57 646.51 122.87 646.63 123.11 646.81C123.35 646.99 123.53 647.24 123.65 647.56C123.79 647.86 123.86 648.26 123.86 648.76V660.97ZM126.477 653.71C126.477 652.39 126.677 651.25 127.077 650.29C127.477 649.31 128.027 648.5 128.727 647.86C129.447 647.22 130.277 646.75 131.217 646.45C132.177 646.13 133.207 645.97 134.307 645.97C134.707 645.97 135.097 646.01 135.477 646.09C135.857 646.15 136.167 646.23 136.407 646.33V641.47C136.607 641.41 136.927 641.35 137.367 641.29C137.807 641.21 138.257 641.17 138.717 641.17C139.157 641.17 139.547 641.2 139.887 641.26C140.247 641.32 140.547 641.44 140.787 641.62C141.027 641.8 141.207 642.05 141.327 642.37C141.447 642.67 141.507 643.07 141.507 643.57V657.79C141.507 658.73 141.067 659.48 140.187 660.04C139.607 660.42 138.857 660.75 137.937 661.03C137.017 661.33 135.957 661.48 134.757 661.48C133.457 661.48 132.287 661.3 131.247 660.94C130.227 660.58 129.357 660.06 128.637 659.38C127.937 658.7 127.397 657.89 127.017 656.95C126.657 655.99 126.477 654.91 126.477 653.71ZM134.997 649.96C133.917 649.96 133.087 650.27 132.507 650.89C131.927 651.51 131.637 652.45 131.637 653.71C131.637 654.95 131.907 655.89 132.447 656.53C132.987 657.15 133.767 657.46 134.787 657.46C135.147 657.46 135.467 657.41 135.747 657.31C136.047 657.19 136.277 657.06 136.437 656.92V650.32C136.037 650.08 135.557 649.96 134.997 649.96ZM152.395 661.48C151.215 661.48 150.115 661.32 149.095 661C148.095 660.66 147.215 660.16 146.455 659.5C145.715 658.84 145.125 658.01 144.685 657.01C144.265 656.01 144.055 654.84 144.055 653.5C144.055 652.18 144.265 651.05 144.685 650.11C145.125 649.15 145.695 648.37 146.395 647.77C147.095 647.15 147.895 646.7 148.795 646.42C149.695 646.12 150.615 645.97 151.555 645.97C152.615 645.97 153.575 646.13 154.435 646.45C155.315 646.77 156.065 647.21 156.685 647.77C157.325 648.33 157.815 649 158.155 649.78C158.515 650.56 158.695 651.41 158.695 652.33C158.695 653.01 158.505 653.53 158.125 653.89C157.745 654.25 157.215 654.48 156.535 654.58L149.125 655.69C149.345 656.35 149.795 656.85 150.475 657.19C151.155 657.51 151.935 657.67 152.815 657.67C153.635 657.67 154.405 657.57 155.125 657.37C155.865 657.15 156.465 656.9 156.925 656.62C157.245 656.82 157.515 657.1 157.735 657.46C157.955 657.82 158.065 658.2 158.065 658.6C158.065 659.5 157.645 660.17 156.805 660.61C156.165 660.95 155.445 661.18 154.645 661.3C153.845 661.42 153.095 661.48 152.395 661.48ZM151.555 649.69C151.075 649.69 150.655 649.77 150.295 649.93C149.955 650.09 149.675 650.3 149.455 650.56C149.235 650.8 149.065 651.08 148.945 651.4C148.845 651.7 148.785 652.01 148.765 652.33L153.895 651.49C153.835 651.09 153.615 650.69 153.235 650.29C152.855 649.89 152.295 649.69 151.555 649.69ZM166.25 660.97C166.05 661.03 165.73 661.09 165.29 661.15C164.87 661.21 164.43 661.24 163.97 661.24C163.53 661.24 163.13 661.21 162.77 661.15C162.43 661.09 162.14 660.97 161.9 660.79C161.66 660.61 161.47 660.37 161.33 660.07C161.21 659.75 161.15 659.34 161.15 658.84V649.84C161.15 649.38 161.23 648.99 161.39 648.67C161.57 648.33 161.82 648.03 162.14 647.77C162.46 647.51 162.85 647.28 163.31 647.08C163.79 646.86 164.3 646.67 164.84 646.51C165.38 646.35 165.94 646.23 166.52 646.15C167.1 646.05 167.68 646 168.26 646C169.22 646 169.98 646.19 170.54 646.57C171.1 646.93 171.38 647.53 171.38 648.37C171.38 648.65 171.34 648.93 171.26 649.21C171.18 649.47 171.08 649.71 170.96 649.93C170.54 649.93 170.11 649.95 169.67 649.99C169.23 650.03 168.8 650.09 168.38 650.17C167.96 650.25 167.56 650.34 167.18 650.44C166.82 650.52 166.51 650.62 166.25 650.74V660.97ZM183.75 643.36C184.09 643.16 184.6 642.97 185.28 642.79C185.98 642.61 186.68 642.52 187.38 642.52C188.38 642.52 189.26 642.67 190.02 642.97C190.8 643.25 191.3 643.7 191.52 644.32C191.88 645.36 192.27 646.57 192.69 647.95C193.11 649.33 193.53 650.76 193.95 652.24C194.37 653.7 194.78 655.15 195.18 656.59C195.58 658.01 195.93 659.27 196.23 660.37C195.99 660.65 195.63 660.87 195.15 661.03C194.67 661.21 194.1 661.3 193.44 661.3C192.96 661.3 192.55 661.26 192.21 661.18C191.89 661.1 191.62 660.98 191.4 660.82C191.2 660.66 191.03 660.45 190.89 660.19C190.77 659.93 190.66 659.63 190.56 659.29L190.02 657.22H184.59C184.43 657.82 184.27 658.44 184.11 659.08C183.95 659.72 183.79 660.34 183.63 660.94C183.35 661.04 183.05 661.12 182.73 661.18C182.43 661.26 182.06 661.3 181.62 661.3C180.6 661.3 179.84 661.13 179.34 660.79C178.86 660.43 178.62 659.94 178.62 659.32C178.62 659.04 178.66 658.76 178.74 658.48C178.82 658.2 178.91 657.87 179.01 657.49C179.15 656.95 179.34 656.28 179.58 655.48C179.84 654.68 180.12 653.82 180.42 652.9C180.72 651.96 181.04 651 181.38 650.02C181.72 649.04 182.04 648.12 182.34 647.26C182.64 646.38 182.91 645.6 183.15 644.92C183.41 644.24 183.61 643.72 183.75 643.36ZM187.35 647.23C187.07 648.07 186.75 649.01 186.39 650.05C186.05 651.07 185.74 652.11 185.46 653.17H189.18C188.9 652.09 188.61 651.04 188.31 650.02C188.03 648.98 187.77 648.05 187.53 647.23H187.35ZM204.988 645.97C206.188 645.97 207.298 646.13 208.318 646.45C209.358 646.75 210.248 647.22 210.988 647.86C211.728 648.5 212.308 649.31 212.728 650.29C213.148 651.25 213.358 652.4 213.358 653.74C213.358 655.02 213.178 656.14 212.818 657.1C212.458 658.06 211.948 658.87 211.288 659.53C210.628 660.17 209.828 660.65 208.888 660.97C207.968 661.29 206.938 661.45 205.798 661.45C204.938 661.45 204.138 661.32 203.398 661.06V666.04C203.198 666.1 202.878 666.16 202.438 666.22C201.998 666.3 201.548 666.34 201.088 666.34C200.648 666.34 200.248 666.31 199.888 666.25C199.548 666.19 199.258 666.07 199.018 665.89C198.778 665.71 198.598 665.46 198.478 665.14C198.358 664.84 198.298 664.44 198.298 663.94V649.54C198.298 649 198.408 648.56 198.628 648.22C198.868 647.88 199.188 647.57 199.588 647.29C200.208 646.89 200.978 646.57 201.898 646.33C202.818 646.09 203.848 645.97 204.988 645.97ZM205.048 657.43C207.108 657.43 208.138 656.2 208.138 653.74C208.138 652.46 207.878 651.51 207.358 650.89C206.858 650.27 206.128 649.96 205.168 649.96C204.788 649.96 204.448 650.01 204.148 650.11C203.848 650.19 203.588 650.29 203.368 650.41V657.01C203.608 657.13 203.868 657.23 204.148 657.31C204.428 657.39 204.728 657.43 205.048 657.43ZM222.537 645.97C223.737 645.97 224.847 646.13 225.867 646.45C226.907 646.75 227.797 647.22 228.537 647.86C229.277 648.5 229.857 649.31 230.277 650.29C230.697 651.25 230.907 652.4 230.907 653.74C230.907 655.02 230.727 656.14 230.367 657.1C230.007 658.06 229.497 658.87 228.837 659.53C228.177 660.17 227.377 660.65 226.437 660.97C225.517 661.29 224.487 661.45 223.347 661.45C222.487 661.45 221.687 661.32 220.947 661.06V666.04C220.747 666.1 220.427 666.16 219.987 666.22C219.547 666.3 219.097 666.34 218.637 666.34C218.197 666.34 217.797 666.31 217.437 666.25C217.097 666.19 216.807 666.07 216.567 665.89C216.327 665.71 216.147 665.46 216.027 665.14C215.907 664.84 215.847 664.44 215.847 663.94V649.54C215.847 649 215.957 648.56 216.177 648.22C216.417 647.88 216.737 647.57 217.137 647.29C217.757 646.89 218.527 646.57 219.447 646.33C220.367 646.09 221.397 645.97 222.537 645.97ZM222.597 657.43C224.657 657.43 225.687 656.2 225.687 653.74C225.687 652.46 225.427 651.51 224.907 650.89C224.407 650.27 223.677 649.96 222.717 649.96C222.337 649.96 221.997 650.01 221.697 650.11C221.397 650.19 221.137 650.29 220.917 650.41V657.01C221.157 657.13 221.417 657.23 221.697 657.31C221.977 657.39 222.277 657.43 222.597 657.43Z" fill="black"/>
<path d="M62.2906 90.07L62.1922 104.796C62.1772 107.044 63.9873 108.878 66.2351 108.893L98.0712 109.106C101.697 109.13 103.542 104.758 100.996 102.177L86.368 87.3528C85.6099 86.5844 84.5775 86.1487 83.4981 86.1414L66.3878 86.0272C64.14 86.0122 62.3056 87.8222 62.2906 90.07Z" fill="#457B9D"/>
<path d="M42.0134 108.731L59.4526 108.848C60.9512 108.858 62.1579 110.08 62.1479 111.579L61.9109 147.074C61.8947 149.491 58.964 150.682 57.266 148.962L39.1538 130.606L39.2819 111.427C39.2919 109.928 40.5148 108.721 42.0134 108.731Z" fill="#DC2836"/>
<path d="M103.229 153.901L84.7319 153.777L85.1836 86.1527L106.626 107.883C107.1 108.364 107.337 108.604 107.504 108.884C107.647 109.122 107.752 109.381 107.816 109.651C107.891 109.969 107.889 110.306 107.885 110.981L107.627 149.562C107.617 151.107 107.612 151.88 107.302 152.466C107.041 152.959 106.635 153.361 106.137 153.615C105.547 153.916 104.775 153.911 103.229 153.901Z" fill="#A8DADC"/>
<path d="M107.616 151.217L107.751 131.064L39.1527 130.606L61.0766 152.825C61.582 153.337 62.2703 153.627 62.9899 153.632L104.885 153.912C106.383 153.922 107.606 152.715 107.616 151.217Z" fill="#1D3557"/>
<path d="M135.36 121.499C134.325 121.146 133.385 120.793 132.538 120.441C131.691 120.064 130.962 119.618 130.351 119.1C129.74 118.583 129.258 117.971 128.905 117.266C128.576 116.537 128.411 115.655 128.411 114.62C128.411 112.621 129.175 111.022 130.704 109.823C132.256 108.624 134.419 108.024 137.194 108.024C138.206 108.024 139.146 108.095 140.016 108.236C140.886 108.377 141.627 108.6 142.239 108.906C142.873 109.188 143.367 109.564 143.72 110.035C144.073 110.481 144.249 111.011 144.249 111.622C144.249 112.233 144.108 112.763 143.826 113.209C143.544 113.633 143.203 113.997 142.803 114.303C142.286 113.974 141.592 113.691 140.722 113.456C139.852 113.198 138.899 113.068 137.865 113.068C136.806 113.068 136.03 113.221 135.536 113.527C135.043 113.809 134.796 114.174 134.796 114.62C134.796 114.973 134.949 115.267 135.254 115.502C135.56 115.714 136.018 115.914 136.63 116.102L138.499 116.702C140.71 117.407 142.403 118.312 143.579 119.418C144.778 120.499 145.378 121.981 145.378 123.862C145.378 125.861 144.59 127.484 143.015 128.73C141.439 129.953 139.123 130.564 136.066 130.564C134.984 130.564 133.973 130.47 133.032 130.282C132.115 130.118 131.303 129.871 130.598 129.541C129.916 129.189 129.375 128.765 128.975 128.272C128.599 127.754 128.411 127.166 128.411 126.508C128.411 125.826 128.611 125.25 129.011 124.779C129.41 124.286 129.845 123.909 130.316 123.651C130.974 124.168 131.774 124.615 132.714 124.991C133.679 125.367 134.725 125.555 135.854 125.555C137.006 125.555 137.817 125.379 138.288 125.026C138.758 124.674 138.993 124.262 138.993 123.792C138.993 123.321 138.805 122.969 138.429 122.733C138.053 122.475 137.524 122.228 136.842 121.993L135.36 121.499ZM159.024 119.135C159.024 118.406 158.812 117.877 158.389 117.548C157.989 117.195 157.437 117.019 156.731 117.019C156.261 117.019 155.79 117.078 155.32 117.195C154.873 117.313 154.485 117.489 154.156 117.724V129.965C153.921 130.035 153.545 130.106 153.027 130.176C152.533 130.247 152.016 130.282 151.475 130.282C150.958 130.282 150.488 130.247 150.064 130.176C149.664 130.106 149.323 129.965 149.041 129.753C148.759 129.541 148.536 129.259 148.371 128.906C148.23 128.53 148.159 128.048 148.159 127.46V116.878C148.159 116.243 148.289 115.726 148.547 115.326C148.83 114.926 149.206 114.562 149.676 114.232C150.476 113.668 151.475 113.209 152.675 112.857C153.897 112.504 155.25 112.328 156.731 112.328C159.388 112.328 161.434 112.915 162.869 114.091C164.303 115.244 165.021 116.854 165.021 118.924V129.965C164.785 130.035 164.409 130.106 163.892 130.176C163.398 130.247 162.881 130.282 162.34 130.282C161.822 130.282 161.352 130.247 160.929 130.176C160.529 130.106 160.188 129.965 159.906 129.753C159.624 129.541 159.4 129.259 159.236 128.906C159.094 128.53 159.024 128.048 159.024 127.46V119.135ZM176.062 126.19C176.462 126.19 176.897 126.155 177.367 126.085C177.861 125.99 178.225 125.873 178.46 125.732V122.91L175.921 123.121C175.262 123.169 174.721 123.31 174.298 123.545C173.875 123.78 173.663 124.133 173.663 124.603C173.663 125.073 173.839 125.461 174.192 125.767C174.568 126.049 175.192 126.19 176.062 126.19ZM175.78 112.328C177.049 112.328 178.202 112.457 179.236 112.716C180.295 112.974 181.188 113.374 181.917 113.915C182.67 114.432 183.246 115.102 183.646 115.926C184.046 116.725 184.245 117.677 184.245 118.783V126.684C184.245 127.296 184.069 127.801 183.716 128.201C183.387 128.577 182.987 128.906 182.517 129.189C180.988 130.106 178.837 130.564 176.062 130.564C174.815 130.564 173.687 130.447 172.675 130.212C171.688 129.976 170.829 129.624 170.1 129.153C169.395 128.683 168.842 128.083 168.442 127.354C168.066 126.625 167.878 125.779 167.878 124.815C167.878 123.192 168.36 121.946 169.324 121.076C170.289 120.205 171.782 119.665 173.804 119.453L178.425 118.959V118.712C178.425 118.03 178.119 117.548 177.508 117.266C176.92 116.96 176.062 116.807 174.933 116.807C174.039 116.807 173.169 116.901 172.323 117.09C171.476 117.278 170.712 117.513 170.03 117.795C169.724 117.583 169.465 117.266 169.254 116.843C169.042 116.396 168.936 115.937 168.936 115.467C168.936 114.856 169.077 114.373 169.36 114.021C169.665 113.644 170.124 113.327 170.735 113.068C171.417 112.81 172.217 112.621 173.134 112.504C174.075 112.386 174.957 112.328 175.78 112.328ZM195.778 112.328C197.189 112.328 198.494 112.516 199.694 112.892C200.917 113.245 201.963 113.797 202.833 114.55C203.703 115.302 204.385 116.255 204.879 117.407C205.373 118.536 205.62 119.888 205.62 121.464C205.62 122.969 205.408 124.286 204.985 125.414C204.562 126.543 203.962 127.496 203.186 128.272C202.41 129.024 201.469 129.588 200.364 129.965C199.282 130.341 198.071 130.529 196.731 130.529C195.719 130.529 194.779 130.376 193.909 130.071V135.926C193.674 135.997 193.297 136.067 192.78 136.138C192.263 136.232 191.733 136.279 191.193 136.279C190.675 136.279 190.205 136.244 189.782 136.173C189.382 136.102 189.041 135.961 188.759 135.75C188.476 135.538 188.265 135.244 188.124 134.868C187.983 134.515 187.912 134.045 187.912 133.457V116.525C187.912 115.89 188.041 115.373 188.3 114.973C188.582 114.573 188.959 114.209 189.429 113.88C190.158 113.409 191.063 113.033 192.145 112.751C193.227 112.469 194.438 112.328 195.778 112.328ZM195.849 125.802C198.271 125.802 199.482 124.356 199.482 121.464C199.482 119.959 199.176 118.842 198.565 118.113C197.977 117.384 197.119 117.019 195.99 117.019C195.543 117.019 195.143 117.078 194.791 117.195C194.438 117.289 194.132 117.407 193.873 117.548V125.309C194.156 125.45 194.461 125.567 194.791 125.661C195.12 125.755 195.473 125.802 195.849 125.802Z" fill="white"/>
<path d="M172.977 145.712C172.977 145.436 173.2 145.212 173.477 145.212H174.08C174.356 145.212 174.58 145.436 174.58 145.712V146.311C174.58 146.337 174.601 146.357 174.626 146.357C174.644 146.357 174.661 146.347 174.669 146.33C174.843 145.945 175.14 145.629 175.557 145.38C175.985 145.115 176.438 144.983 176.916 144.983C177.147 144.983 177.354 145.002 177.539 145.04C177.739 145.082 177.863 145.27 177.863 145.474V146.163C177.863 146.51 177.517 146.748 177.176 146.684C176.993 146.649 176.82 146.632 176.657 146.632C176.27 146.632 175.924 146.734 175.618 146.938C175.323 147.141 175.089 147.416 174.916 147.762C174.743 148.098 174.656 148.47 174.656 148.877V152.5C174.656 152.776 174.432 153 174.156 153H173.477C173.2 153 172.977 152.776 172.977 152.5V145.712Z" fill="#D2D2D2"/>
<path d="M180.112 144.082C179.797 144.082 179.527 143.975 179.303 143.762C179.089 143.538 178.982 143.268 178.982 142.952C178.982 142.637 179.089 142.372 179.303 142.158C179.527 141.934 179.797 141.822 180.112 141.822C180.428 141.822 180.692 141.934 180.906 142.158C181.13 142.372 181.242 142.637 181.242 142.952C181.242 143.268 181.13 143.538 180.906 143.762C180.692 143.975 180.428 144.082 180.112 144.082ZM179.272 145.712C179.272 145.436 179.496 145.212 179.772 145.212H180.452C180.728 145.212 180.952 145.436 180.952 145.712V152.5C180.952 152.776 180.728 153 180.452 153H179.772C179.496 153 179.272 152.776 179.272 152.5V145.712Z" fill="#D2D2D2"/>
<path d="M186.297 153.244C185.594 153.244 184.958 153.066 184.388 152.71C183.818 152.353 183.365 151.865 183.029 151.244C182.703 150.613 182.54 149.9 182.54 149.106C182.54 148.312 182.703 147.605 183.029 146.984C183.365 146.352 183.818 145.859 184.388 145.502C184.958 145.146 185.594 144.968 186.297 144.968C186.846 144.968 187.34 145.09 187.778 145.334C188.206 145.574 188.533 145.867 188.756 146.213C188.765 146.227 188.78 146.235 188.796 146.235C188.823 146.235 188.845 146.212 188.843 146.185L188.77 145.136V142.567C188.77 142.29 188.994 142.067 189.27 142.067H189.95C190.226 142.067 190.45 142.29 190.45 142.567V152.5C190.45 152.776 190.226 153 189.95 153H189.347C189.07 153 188.847 152.776 188.847 152.5V152.042C188.847 152.014 188.824 151.992 188.797 151.992C188.78 151.992 188.765 152.001 188.756 152.015C188.532 152.351 188.206 152.639 187.778 152.878C187.34 153.122 186.846 153.244 186.297 153.244ZM186.541 151.702C186.948 151.702 187.325 151.595 187.671 151.381C188.027 151.168 188.312 150.862 188.526 150.465C188.74 150.068 188.847 149.615 188.847 149.106C188.847 148.597 188.74 148.149 188.526 147.762C188.312 147.365 188.027 147.06 187.671 146.846C187.325 146.632 186.948 146.525 186.541 146.525C186.134 146.525 185.752 146.632 185.396 146.846C185.039 147.06 184.754 147.365 184.54 147.762C184.327 148.149 184.22 148.597 184.22 149.106C184.22 149.615 184.327 150.068 184.54 150.465C184.754 150.862 185.039 151.168 185.396 151.381C185.752 151.595 186.134 151.702 186.541 151.702Z" fill="#D2D2D2"/>
<path d="M195.89 153.244C195.127 153.244 194.44 153.066 193.829 152.71C193.228 152.353 192.755 151.865 192.409 151.244C192.073 150.613 191.905 149.905 191.905 149.121C191.905 148.378 192.068 147.691 192.394 147.06C192.73 146.419 193.193 145.91 193.783 145.533C194.374 145.156 195.045 144.968 195.799 144.968C196.583 144.968 197.26 145.141 197.83 145.487C198.41 145.833 198.848 146.307 199.143 146.907C199.448 147.508 199.601 148.185 199.601 148.938C199.601 148.971 199.6 149.005 199.599 149.041C199.588 149.29 199.37 149.473 199.122 149.473H194.129C193.836 149.473 193.6 149.725 193.673 150.009C193.793 150.478 194.018 150.86 194.348 151.152C194.806 151.539 195.336 151.732 195.936 151.732C196.415 151.732 196.827 151.626 197.173 151.412C197.399 151.27 197.597 151.097 197.766 150.893C197.933 150.691 198.211 150.597 198.448 150.709L198.96 150.952C199.223 151.076 199.327 151.401 199.154 151.636C198.837 152.066 198.457 152.419 198.013 152.695C197.422 153.061 196.715 153.244 195.89 153.244ZM197.352 148.19C197.643 148.19 197.876 147.938 197.77 147.667C197.732 147.571 197.686 147.475 197.631 147.381C197.478 147.106 197.244 146.877 196.929 146.693C196.623 146.51 196.247 146.419 195.799 146.419C195.259 146.419 194.801 146.581 194.424 146.907C194.208 147.094 194.03 147.32 193.892 147.584C193.74 147.875 193.982 148.19 194.31 148.19H197.352Z" fill="#D2D2D2"/>
<path d="M201.131 145.712C201.131 145.436 201.354 145.212 201.631 145.212H202.234C202.51 145.212 202.734 145.436 202.734 145.712V146.311C202.734 146.337 202.755 146.357 202.78 146.357C202.798 146.357 202.815 146.347 202.823 146.33C202.997 145.945 203.294 145.629 203.711 145.38C204.139 145.115 204.592 144.983 205.07 144.983C205.301 144.983 205.508 145.002 205.693 145.04C205.893 145.082 206.017 145.27 206.017 145.474V146.163C206.017 146.51 205.672 146.748 205.33 146.684C205.148 146.649 204.974 146.632 204.811 146.632C204.424 146.632 204.078 146.734 203.772 146.938C203.477 147.141 203.243 147.416 203.07 147.762C202.897 148.098 202.81 148.47 202.81 148.877V152.5C202.81 152.776 202.586 153 202.31 153H201.631C201.354 153 201.131 152.776 201.131 152.5V145.712Z" fill="#D2D2D2"/>
</g>
<defs>
<clipPath id="clip0_8_7237">
<rect width="375" height="812" fill="white"/>
</clipPath>
<clipPath id="clip1_8_7237">
<rect width="375" height="563" fill="white" transform="translate(0 -1)"/>
</clipPath>
</defs>
</svg>
