<svg width="375" height="812" viewBox="0 0 375 812" fill="none" xmlns="http://www.w3.org/2000/svg">
<g clip-path="url(#clip0_8_7802)">
<rect width="375" height="812" rx="24" fill="white"/>
<rect width="375" height="812" fill="#092325"/>
<circle cx="41.5" cy="86.5" r="17.5" fill="white"/>
<g clip-path="url(#clip1_8_7802)">
<path d="M37.2464 84.9877H47.7654V86.7161H37.2464L41.8819 91.3516L40.66 92.5736L33.9382 85.8519L40.66 79.1301L41.8819 80.3521L37.2464 84.9877Z" fill="#092325"/>
</g>
<rect x="29" y="675.5" width="319" height="50" rx="2" fill="white"/>
<path d="M167.116 703.28C167.376 703.67 167.706 703.96 168.106 704.15C168.516 704.33 168.936 704.42 169.366 704.42C169.606 704.42 169.851 704.385 170.101 704.315C170.351 704.235 170.576 704.12 170.776 703.97C170.986 703.82 171.156 703.635 171.286 703.415C171.416 703.195 171.481 702.94 171.481 702.65C171.481 702.24 171.351 701.93 171.091 701.72C170.831 701.5 170.506 701.32 170.116 701.18C169.736 701.03 169.316 700.89 168.856 700.76C168.406 700.62 167.986 700.43 167.596 700.19C167.216 699.95 166.896 699.63 166.636 699.23C166.376 698.82 166.246 698.27 166.246 697.58C166.246 697.27 166.311 696.94 166.441 696.59C166.581 696.24 166.796 695.92 167.086 695.63C167.376 695.34 167.746 695.1 168.196 694.91C168.656 694.71 169.206 694.61 169.846 694.61C170.426 694.61 170.981 694.69 171.511 694.85C172.041 695.01 172.506 695.335 172.906 695.825L171.736 696.89C171.556 696.61 171.301 696.385 170.971 696.215C170.641 696.045 170.266 695.96 169.846 695.96C169.446 695.96 169.111 696.015 168.841 696.125C168.581 696.225 168.371 696.36 168.211 696.53C168.051 696.69 167.936 696.865 167.866 697.055C167.806 697.245 167.776 697.42 167.776 697.58C167.776 698.03 167.906 698.375 168.166 698.615C168.426 698.855 168.746 699.05 169.126 699.2C169.516 699.35 169.936 699.485 170.386 699.605C170.846 699.725 171.266 699.895 171.646 700.115C172.036 700.325 172.361 700.615 172.621 700.985C172.881 701.345 173.011 701.845 173.011 702.485C173.011 702.995 172.911 703.455 172.711 703.865C172.521 704.275 172.261 704.62 171.931 704.9C171.601 705.18 171.211 705.395 170.761 705.545C170.311 705.695 169.831 705.77 169.321 705.77C168.641 705.77 167.996 705.65 167.386 705.41C166.776 705.17 166.291 704.8 165.931 704.3L167.116 703.28ZM174.896 698.39H176.246V705.5H174.896V698.39ZM174.581 695.84C174.581 695.57 174.676 695.34 174.866 695.15C175.066 694.95 175.301 694.85 175.571 694.85C175.841 694.85 176.071 694.95 176.261 695.15C176.461 695.34 176.561 695.57 176.561 695.84C176.561 696.11 176.461 696.345 176.261 696.545C176.071 696.735 175.841 696.83 175.571 696.83C175.301 696.83 175.066 696.735 174.866 696.545C174.676 696.345 174.581 696.11 174.581 695.84ZM185.52 705.44C185.52 705.98 185.425 706.47 185.235 706.91C185.055 707.36 184.795 707.745 184.455 708.065C184.115 708.395 183.705 708.65 183.225 708.83C182.745 709.01 182.215 709.1 181.635 709.1C180.955 709.1 180.33 709.005 179.76 708.815C179.2 708.625 178.665 708.295 178.155 707.825L179.07 706.685C179.42 707.065 179.8 707.35 180.21 707.54C180.62 707.74 181.085 707.84 181.605 707.84C182.105 707.84 182.52 707.765 182.85 707.615C183.18 707.475 183.44 707.29 183.63 707.06C183.83 706.83 183.97 706.565 184.05 706.265C184.13 705.975 184.17 705.68 184.17 705.38V704.33H184.125C183.865 704.76 183.51 705.08 183.06 705.29C182.62 705.49 182.155 705.59 181.665 705.59C181.145 705.59 180.66 705.5 180.21 705.32C179.77 705.13 179.39 704.875 179.07 704.555C178.75 704.225 178.5 703.84 178.32 703.4C178.14 702.95 178.05 702.465 178.05 701.945C178.05 701.425 178.135 700.94 178.305 700.49C178.475 700.03 178.715 699.63 179.025 699.29C179.345 698.95 179.725 698.685 180.165 698.495C180.615 698.305 181.115 698.21 181.665 698.21C182.145 698.21 182.61 698.315 183.06 698.525C183.52 698.735 183.88 699.03 184.14 699.41H184.17V698.39H185.52V705.44ZM181.83 699.47C181.47 699.47 181.145 699.535 180.855 699.665C180.565 699.785 180.32 699.955 180.12 700.175C179.92 700.385 179.765 700.645 179.655 700.955C179.545 701.255 179.49 701.585 179.49 701.945C179.49 702.665 179.7 703.245 180.12 703.685C180.54 704.115 181.11 704.33 181.83 704.33C182.55 704.33 183.12 704.115 183.54 703.685C183.96 703.245 184.17 702.665 184.17 701.945C184.17 701.585 184.115 701.255 184.005 700.955C183.895 700.645 183.74 700.385 183.54 700.175C183.34 699.955 183.095 699.785 182.805 699.665C182.515 699.535 182.19 699.47 181.83 699.47ZM187.564 698.39H188.914V699.485H188.944C189.114 699.105 189.409 698.8 189.829 698.57C190.249 698.33 190.734 698.21 191.284 698.21C191.624 698.21 191.949 698.265 192.259 698.375C192.579 698.475 192.854 698.635 193.084 698.855C193.324 699.075 193.514 699.36 193.654 699.71C193.794 700.05 193.864 700.455 193.864 700.925V705.5H192.514V701.3C192.514 700.97 192.469 700.69 192.379 700.46C192.289 700.22 192.169 700.03 192.019 699.89C191.869 699.74 191.694 699.635 191.494 699.575C191.304 699.505 191.104 699.47 190.894 699.47C190.614 699.47 190.354 699.515 190.114 699.605C189.874 699.695 189.664 699.84 189.484 700.04C189.304 700.23 189.164 700.475 189.064 700.775C188.964 701.075 188.914 701.43 188.914 701.84V705.5H187.564V698.39ZM200.419 694.88H201.859V705.5H200.419V694.88ZM204.249 698.39H205.599V699.485H205.629C205.799 699.105 206.094 698.8 206.514 698.57C206.934 698.33 207.419 698.21 207.969 698.21C208.309 698.21 208.634 698.265 208.944 698.375C209.264 698.475 209.539 698.635 209.769 698.855C210.009 699.075 210.199 699.36 210.339 699.71C210.479 700.05 210.549 700.455 210.549 700.925V705.5H209.199V701.3C209.199 700.97 209.154 700.69 209.064 700.46C208.974 700.22 208.854 700.03 208.704 699.89C208.554 699.74 208.379 699.635 208.179 699.575C207.989 699.505 207.789 699.47 207.579 699.47C207.299 699.47 207.039 699.515 206.799 699.605C206.559 699.695 206.349 699.84 206.169 700.04C205.989 700.23 205.849 700.475 205.749 700.775C205.649 701.075 205.599 701.43 205.599 701.84V705.5H204.249V698.39Z" fill="#091425"/>
<rect x="24" y="501" width="328" height="50" rx="5" fill="white" fill-opacity="0.05"/>
<rect x="24.5" y="501.5" width="327" height="49" rx="4.5" stroke="white" stroke-opacity="0.6"/>
<path d="M46.12 520.976H51.916V522.11H47.296V525.428H51.468V526.548H47.296V529.866H51.916V531H46.12V520.976ZM53.4562 523.86H54.5902V524.91H54.6462C54.8516 524.546 55.1596 524.243 55.5702 524C55.9809 523.757 56.4149 523.636 56.8722 523.636C57.3949 523.636 57.8476 523.762 58.2302 524.014C58.6222 524.266 58.9022 524.602 59.0702 525.022C59.3222 524.602 59.6536 524.266 60.0642 524.014C60.4842 523.762 60.9696 523.636 61.5202 523.636C62.3416 523.636 62.9576 523.888 63.3682 524.392C63.7882 524.887 63.9982 525.563 63.9982 526.422V531H62.8222V526.604C62.8222 525.941 62.6869 525.461 62.4162 525.162C62.1456 524.863 61.7442 524.714 61.2122 524.714C60.8576 524.714 60.5356 524.817 60.2462 525.022C59.9569 525.227 59.7282 525.503 59.5602 525.848C59.4016 526.193 59.3222 526.567 59.3222 526.968V531H58.1322V526.618C58.1322 525.946 57.9969 525.461 57.7262 525.162C57.4556 524.863 57.0589 524.714 56.5362 524.714C56.1816 524.714 55.8596 524.821 55.5702 525.036C55.2809 525.241 55.0522 525.521 54.8842 525.876C54.7256 526.221 54.6462 526.595 54.6462 526.996V531H53.4562V523.86ZM67.9199 531.224C67.3972 531.224 66.9305 531.121 66.5199 530.916C66.1092 530.711 65.7919 530.431 65.5679 530.076C65.3439 529.712 65.2319 529.301 65.2319 528.844C65.2319 528.088 65.5165 527.5 66.0859 527.08C66.6552 526.651 67.3739 526.436 68.2419 526.436C68.6712 526.436 69.0679 526.483 69.4319 526.576C69.8052 526.669 70.0899 526.777 70.2859 526.898V526.464C70.2859 525.932 70.0992 525.507 69.7259 525.19C69.3525 524.863 68.8812 524.7 68.3119 524.7C67.9105 524.7 67.5419 524.789 67.2059 524.966C66.8699 525.134 66.6039 525.372 66.4079 525.68L65.5119 525.008C65.7919 524.579 66.1745 524.243 66.6599 524C67.1545 523.757 67.7005 523.636 68.2979 523.636C69.2685 523.636 70.0292 523.893 70.5799 524.406C71.1399 524.91 71.4199 525.601 71.4199 526.478V531H70.2859V529.978H70.2299C70.0245 530.323 69.7165 530.617 69.3059 530.86C68.8952 531.103 68.4332 531.224 67.9199 531.224ZM68.0319 530.174C68.4332 530.174 68.8065 530.071 69.1519 529.866C69.4972 529.661 69.7725 529.385 69.9779 529.04C70.1832 528.695 70.2859 528.317 70.2859 527.906C70.0619 527.757 69.7865 527.635 69.4599 527.542C69.1332 527.449 68.7879 527.402 68.4239 527.402C67.7705 527.402 67.2759 527.537 66.9399 527.808C66.6132 528.079 66.4499 528.429 66.4499 528.858C66.4499 529.25 66.5992 529.567 66.8979 529.81C67.1965 530.053 67.5745 530.174 68.0319 530.174ZM73.7754 522.544C73.542 522.544 73.3414 522.46 73.1734 522.292C73.0054 522.124 72.9214 521.923 72.9214 521.69C72.9214 521.457 73.0054 521.261 73.1734 521.102C73.3414 520.934 73.542 520.85 73.7754 520.85C74.0087 520.85 74.2094 520.934 74.3774 521.102C74.5454 521.261 74.6294 521.457 74.6294 521.69C74.6294 521.923 74.5454 522.124 74.3774 522.292C74.2187 522.46 74.018 522.544 73.7754 522.544ZM73.1874 523.86H74.3634V531H73.1874V523.86ZM76.2336 520.976H77.4236V531H76.2336V520.976ZM85.1388 520.976H86.4828L90.2908 531H88.9888L87.9808 528.242H83.6548L82.6468 531H81.3448L85.1388 520.976ZM87.5748 527.122L86.2448 523.51L85.8388 522.432H85.7828L85.3908 523.51L84.0608 527.122H87.5748ZM94.2009 531.224C93.5663 531.224 92.9876 531.061 92.4649 530.734C91.9516 530.407 91.5456 529.959 91.2469 529.39C90.9483 528.811 90.7989 528.158 90.7989 527.43C90.7989 526.711 90.9483 526.063 91.2469 525.484C91.5456 524.905 91.9516 524.453 92.4649 524.126C92.9876 523.799 93.5663 523.636 94.2009 523.636C94.7516 523.636 95.2416 523.762 95.6709 524.014C96.1003 524.257 96.4269 524.56 96.6509 524.924H96.7069L96.6509 523.93V520.976H97.8409V531H96.7069V529.95H96.6509C96.4269 530.305 96.1003 530.608 95.6709 530.86C95.2416 531.103 94.7516 531.224 94.2009 531.224ZM94.3409 530.146C94.7609 530.146 95.1483 530.034 95.5029 529.81C95.8669 529.586 96.1563 529.269 96.3709 528.858C96.5949 528.447 96.7069 527.971 96.7069 527.43C96.7069 526.889 96.5949 526.413 96.3709 526.002C96.1563 525.591 95.8669 525.274 95.5029 525.05C95.1483 524.826 94.7609 524.714 94.3409 524.714C93.9303 524.714 93.5429 524.826 93.1789 525.05C92.8149 525.274 92.5209 525.596 92.2969 526.016C92.0823 526.427 91.9749 526.898 91.9749 527.43C91.9749 527.962 92.0823 528.438 92.2969 528.858C92.5209 529.269 92.8149 529.586 93.1789 529.81C93.5429 530.034 93.9303 530.146 94.3409 530.146ZM102.554 531.224C101.92 531.224 101.341 531.061 100.818 530.734C100.305 530.407 99.8991 529.959 99.6004 529.39C99.3018 528.811 99.1524 528.158 99.1524 527.43C99.1524 526.711 99.3018 526.063 99.6004 525.484C99.8991 524.905 100.305 524.453 100.818 524.126C101.341 523.799 101.92 523.636 102.554 523.636C103.105 523.636 103.595 523.762 104.024 524.014C104.454 524.257 104.78 524.56 105.004 524.924H105.06L105.004 523.93V520.976H106.194V531H105.06V529.95H105.004C104.78 530.305 104.454 530.608 104.024 530.86C103.595 531.103 103.105 531.224 102.554 531.224ZM102.694 530.146C103.114 530.146 103.502 530.034 103.856 529.81C104.22 529.586 104.51 529.269 104.724 528.858C104.948 528.447 105.06 527.971 105.06 527.43C105.06 526.889 104.948 526.413 104.724 526.002C104.51 525.591 104.22 525.274 103.856 525.05C103.502 524.826 103.114 524.714 102.694 524.714C102.284 524.714 101.896 524.826 101.532 525.05C101.168 525.274 100.874 525.596 100.65 526.016C100.436 526.427 100.328 526.898 100.328 527.43C100.328 527.962 100.436 528.438 100.65 528.858C100.874 529.269 101.168 529.586 101.532 529.81C101.896 530.034 102.284 530.146 102.694 530.146ZM107.952 523.86H109.086V525.008H109.142C109.282 524.616 109.553 524.294 109.954 524.042C110.356 523.781 110.776 523.65 111.214 523.65C111.541 523.65 111.821 523.697 112.054 523.79V525.078C111.756 524.929 111.42 524.854 111.046 524.854C110.701 524.854 110.384 524.952 110.094 525.148C109.805 525.344 109.572 525.61 109.394 525.946C109.226 526.273 109.142 526.627 109.142 527.01V531H107.952V523.86ZM115.956 531.224C115.275 531.224 114.664 531.061 114.122 530.734C113.581 530.407 113.156 529.959 112.848 529.39C112.55 528.811 112.4 528.163 112.4 527.444C112.4 526.753 112.54 526.119 112.82 525.54C113.11 524.961 113.516 524.499 114.038 524.154C114.561 523.809 115.168 523.636 115.858 523.636C116.558 523.636 117.165 523.795 117.678 524.112C118.192 524.42 118.584 524.849 118.854 525.4C119.134 525.951 119.274 526.581 119.274 527.29C119.274 527.43 119.26 527.551 119.232 527.654H113.59C113.618 528.195 113.749 528.653 113.982 529.026C114.216 529.399 114.51 529.679 114.864 529.866C115.228 530.053 115.606 530.146 115.998 530.146C116.913 530.146 117.618 529.717 118.112 528.858L119.12 529.348C118.812 529.927 118.392 530.384 117.86 530.72C117.338 531.056 116.703 531.224 115.956 531.224ZM118.014 526.674C117.996 526.375 117.912 526.077 117.762 525.778C117.613 525.479 117.375 525.227 117.048 525.022C116.731 524.817 116.33 524.714 115.844 524.714C115.284 524.714 114.808 524.896 114.416 525.26C114.034 525.615 113.782 526.086 113.66 526.674H118.014ZM123.228 531.224C122.462 531.224 121.823 531.047 121.31 530.692C120.796 530.328 120.432 529.866 120.218 529.306L121.282 528.83C121.459 529.259 121.72 529.591 122.066 529.824C122.42 530.057 122.808 530.174 123.228 530.174C123.676 530.174 124.058 530.085 124.376 529.908C124.693 529.721 124.852 529.46 124.852 529.124C124.852 528.825 124.726 528.587 124.474 528.41C124.222 528.223 123.825 528.065 123.284 527.934L122.416 527.71C121.846 527.57 121.38 527.332 121.016 526.996C120.652 526.66 120.47 526.226 120.47 525.694C120.47 525.283 120.591 524.924 120.834 524.616C121.086 524.299 121.417 524.056 121.828 523.888C122.238 523.72 122.682 523.636 123.158 523.636C123.783 523.636 124.338 523.771 124.824 524.042C125.318 524.313 125.668 524.691 125.874 525.176L124.838 525.652C124.52 525.017 123.956 524.7 123.144 524.7C122.752 524.7 122.406 524.793 122.108 524.98C121.818 525.157 121.674 525.386 121.674 525.666C121.674 525.927 121.776 526.142 121.982 526.31C122.187 526.469 122.495 526.599 122.906 526.702L123.942 526.968C124.642 527.145 125.169 527.411 125.524 527.766C125.878 528.111 126.056 528.536 126.056 529.04C126.056 529.479 125.93 529.866 125.678 530.202C125.426 530.529 125.085 530.781 124.656 530.958C124.226 531.135 123.75 531.224 123.228 531.224ZM129.845 531.224C129.079 531.224 128.44 531.047 127.927 530.692C127.413 530.328 127.049 529.866 126.835 529.306L127.899 528.83C128.076 529.259 128.337 529.591 128.683 529.824C129.037 530.057 129.425 530.174 129.845 530.174C130.293 530.174 130.675 530.085 130.993 529.908C131.31 529.721 131.469 529.46 131.469 529.124C131.469 528.825 131.343 528.587 131.091 528.41C130.839 528.223 130.442 528.065 129.901 527.934L129.033 527.71C128.463 527.57 127.997 527.332 127.633 526.996C127.269 526.66 127.087 526.226 127.087 525.694C127.087 525.283 127.208 524.924 127.451 524.616C127.703 524.299 128.034 524.056 128.445 523.888C128.855 523.72 129.299 523.636 129.775 523.636C130.4 523.636 130.955 523.771 131.441 524.042C131.935 524.313 132.285 524.691 132.491 525.176L131.455 525.652C131.137 525.017 130.573 524.7 129.761 524.7C129.369 524.7 129.023 524.793 128.725 524.98C128.435 525.157 128.291 525.386 128.291 525.666C128.291 525.927 128.393 526.142 128.599 526.31C128.804 526.469 129.112 526.599 129.523 526.702L130.559 526.968C131.259 527.145 131.786 527.411 132.141 527.766C132.495 528.111 132.673 528.536 132.673 529.04C132.673 529.479 132.547 529.866 132.295 530.202C132.043 530.529 131.702 530.781 131.273 530.958C130.843 531.135 130.367 531.224 129.845 531.224Z" fill="white"/>
<rect x="24" y="576" width="328" height="50" rx="5" fill="white" fill-opacity="0.05"/>
<rect x="24.5" y="576.5" width="327" height="49" rx="4.5" stroke="white" stroke-opacity="0.6"/>
<path d="M46.12 595.976H49.494C50.054 595.976 50.572 596.102 51.048 596.354C51.524 596.606 51.902 596.961 52.182 597.418C52.4713 597.866 52.616 598.375 52.616 598.944C52.616 599.513 52.4713 600.027 52.182 600.484C51.902 600.932 51.524 601.282 51.048 601.534C50.572 601.786 50.054 601.912 49.494 601.912H47.296V606H46.12V595.976ZM49.522 600.778C49.8953 600.778 50.222 600.689 50.502 600.512C50.7913 600.335 51.0153 600.106 51.174 599.826C51.3327 599.546 51.412 599.252 51.412 598.944C51.412 598.636 51.3327 598.342 51.174 598.062C51.0153 597.782 50.7913 597.553 50.502 597.376C50.222 597.199 49.8953 597.11 49.522 597.11H47.296V600.778H49.522ZM55.957 606.224C55.4343 606.224 54.9676 606.121 54.557 605.916C54.1463 605.711 53.829 605.431 53.605 605.076C53.381 604.712 53.269 604.301 53.269 603.844C53.269 603.088 53.5536 602.5 54.123 602.08C54.6923 601.651 55.411 601.436 56.279 601.436C56.7083 601.436 57.105 601.483 57.469 601.576C57.8423 601.669 58.127 601.777 58.323 601.898V601.464C58.323 600.932 58.1363 600.507 57.763 600.19C57.3896 599.863 56.9183 599.7 56.349 599.7C55.9476 599.7 55.579 599.789 55.243 599.966C54.907 600.134 54.641 600.372 54.445 600.68L53.549 600.008C53.829 599.579 54.2116 599.243 54.697 599C55.1916 598.757 55.7376 598.636 56.335 598.636C57.3056 598.636 58.0663 598.893 58.617 599.406C59.177 599.91 59.457 600.601 59.457 601.478V606H58.323V604.978H58.267C58.0616 605.323 57.7536 605.617 57.343 605.86C56.9323 606.103 56.4703 606.224 55.957 606.224ZM56.069 605.174C56.4703 605.174 56.8436 605.071 57.189 604.866C57.5343 604.661 57.8096 604.385 58.015 604.04C58.2203 603.695 58.323 603.317 58.323 602.906C58.099 602.757 57.8236 602.635 57.497 602.542C57.1703 602.449 56.825 602.402 56.461 602.402C55.8076 602.402 55.313 602.537 54.977 602.808C54.6503 603.079 54.487 603.429 54.487 603.858C54.487 604.25 54.6363 604.567 54.935 604.81C55.2336 605.053 55.6116 605.174 56.069 605.174ZM63.5361 606.224C62.7708 606.224 62.1314 606.047 61.6181 605.692C61.1048 605.328 60.7408 604.866 60.5261 604.306L61.5901 603.83C61.7674 604.259 62.0288 604.591 62.3741 604.824C62.7288 605.057 63.1161 605.174 63.5361 605.174C63.9841 605.174 64.3668 605.085 64.6841 604.908C65.0014 604.721 65.1601 604.46 65.1601 604.124C65.1601 603.825 65.0341 603.587 64.7821 603.41C64.5301 603.223 64.1334 603.065 63.5921 602.934L62.7241 602.71C62.1548 602.57 61.6881 602.332 61.3241 601.996C60.9601 601.66 60.7781 601.226 60.7781 600.694C60.7781 600.283 60.8994 599.924 61.1421 599.616C61.3941 599.299 61.7254 599.056 62.1361 598.888C62.5468 598.72 62.9901 598.636 63.4661 598.636C64.0914 598.636 64.6468 598.771 65.1321 599.042C65.6268 599.313 65.9768 599.691 66.1821 600.176L65.1461 600.652C64.8288 600.017 64.2641 599.7 63.4521 599.7C63.0601 599.7 62.7148 599.793 62.4161 599.98C62.1268 600.157 61.9821 600.386 61.9821 600.666C61.9821 600.927 62.0848 601.142 62.2901 601.31C62.4954 601.469 62.8034 601.599 63.2141 601.702L64.2501 601.968C64.9501 602.145 65.4774 602.411 65.8321 602.766C66.1868 603.111 66.3641 603.536 66.3641 604.04C66.3641 604.479 66.2381 604.866 65.9861 605.202C65.7341 605.529 65.3934 605.781 64.9641 605.958C64.5348 606.135 64.0588 606.224 63.5361 606.224ZM70.1533 606.224C69.388 606.224 68.7486 606.047 68.2353 605.692C67.722 605.328 67.358 604.866 67.1433 604.306L68.2073 603.83C68.3846 604.259 68.646 604.591 68.9913 604.824C69.346 605.057 69.7333 605.174 70.1533 605.174C70.6013 605.174 70.984 605.085 71.3013 604.908C71.6186 604.721 71.7773 604.46 71.7773 604.124C71.7773 603.825 71.6513 603.587 71.3993 603.41C71.1473 603.223 70.7506 603.065 70.2093 602.934L69.3413 602.71C68.772 602.57 68.3053 602.332 67.9413 601.996C67.5773 601.66 67.3953 601.226 67.3953 600.694C67.3953 600.283 67.5166 599.924 67.7593 599.616C68.0113 599.299 68.3426 599.056 68.7533 598.888C69.164 598.72 69.6073 598.636 70.0833 598.636C70.7086 598.636 71.264 598.771 71.7493 599.042C72.244 599.313 72.594 599.691 72.7993 600.176L71.7633 600.652C71.446 600.017 70.8813 599.7 70.0693 599.7C69.6773 599.7 69.332 599.793 69.0333 599.98C68.744 600.157 68.5993 600.386 68.5993 600.666C68.5993 600.927 68.702 601.142 68.9073 601.31C69.1126 601.469 69.4206 601.599 69.8313 601.702L70.8673 601.968C71.5673 602.145 72.0946 602.411 72.4493 602.766C72.804 603.111 72.9813 603.536 72.9813 604.04C72.9813 604.479 72.8553 604.866 72.6033 605.202C72.3513 605.529 72.0106 605.781 71.5813 605.958C71.152 606.135 70.676 606.224 70.1533 606.224ZM73.4945 598.86H74.7125L76.4205 604.502H76.4345L78.2265 598.86H79.4585L81.2645 604.488H81.2785L82.9725 598.86H84.1765L81.8665 606H80.6625L78.8145 600.302L76.9805 606H75.7905L73.4945 598.86ZM88.3146 606.224C87.6146 606.224 86.9846 606.056 86.4246 605.72C85.8646 605.384 85.4259 604.927 85.1086 604.348C84.8006 603.769 84.6466 603.13 84.6466 602.43C84.6466 601.73 84.8006 601.091 85.1086 600.512C85.4259 599.933 85.8646 599.476 86.4246 599.14C86.9846 598.804 87.6146 598.636 88.3146 598.636C89.0146 598.636 89.6446 598.804 90.2046 599.14C90.7646 599.476 91.1986 599.933 91.5066 600.512C91.8239 601.091 91.9826 601.73 91.9826 602.43C91.9826 603.13 91.8239 603.769 91.5066 604.348C91.1986 604.927 90.7646 605.384 90.2046 605.72C89.6446 606.056 89.0146 606.224 88.3146 606.224ZM88.3146 605.146C88.7532 605.146 89.1592 605.039 89.5326 604.824C89.9152 604.6 90.2186 604.283 90.4426 603.872C90.6759 603.461 90.7926 602.981 90.7926 602.43C90.7926 601.879 90.6759 601.399 90.4426 600.988C90.2186 600.577 89.9152 600.265 89.5326 600.05C89.1592 599.826 88.7532 599.714 88.3146 599.714C87.8759 599.714 87.4652 599.826 87.0826 600.05C86.6999 600.265 86.3919 600.577 86.1586 600.988C85.9346 601.399 85.8226 601.879 85.8226 602.43C85.8226 602.981 85.9346 603.461 86.1586 603.872C86.3919 604.283 86.6999 604.6 87.0826 604.824C87.4652 605.039 87.8759 605.146 88.3146 605.146ZM93.2277 598.86H94.3617V600.008H94.4177C94.5577 599.616 94.8284 599.294 95.2297 599.042C95.631 598.781 96.051 598.65 96.4897 598.65C96.8164 598.65 97.0964 598.697 97.3297 598.79V600.078C97.031 599.929 96.695 599.854 96.3217 599.854C95.9764 599.854 95.659 599.952 95.3697 600.148C95.0804 600.344 94.847 600.61 94.6697 600.946C94.5017 601.273 94.4177 601.627 94.4177 602.01V606H93.2277V598.86ZM101.078 606.224C100.443 606.224 99.8645 606.061 99.3419 605.734C98.8285 605.407 98.4225 604.959 98.1239 604.39C97.8252 603.811 97.6759 603.158 97.6759 602.43C97.6759 601.711 97.8252 601.063 98.1239 600.484C98.4225 599.905 98.8285 599.453 99.3419 599.126C99.8645 598.799 100.443 598.636 101.078 598.636C101.629 598.636 102.119 598.762 102.548 599.014C102.977 599.257 103.304 599.56 103.528 599.924H103.584L103.528 598.93V595.976H104.718V606H103.584V604.95H103.528C103.304 605.305 102.977 605.608 102.548 605.86C102.119 606.103 101.629 606.224 101.078 606.224ZM101.218 605.146C101.638 605.146 102.025 605.034 102.38 604.81C102.744 604.586 103.033 604.269 103.248 603.858C103.472 603.447 103.584 602.971 103.584 602.43C103.584 601.889 103.472 601.413 103.248 601.002C103.033 600.591 102.744 600.274 102.38 600.05C102.025 599.826 101.638 599.714 101.218 599.714C100.807 599.714 100.42 599.826 100.056 600.05C99.6919 600.274 99.3979 600.596 99.1739 601.016C98.9592 601.427 98.8519 601.898 98.8519 602.43C98.8519 602.962 98.9592 603.438 99.1739 603.858C99.3979 604.269 99.6919 604.586 100.056 604.81C100.42 605.034 100.807 605.146 101.218 605.146Z" fill="white"/>
<rect x="282" y="219" width="205" height="17" fill="black" fill-opacity="0.5"/>
<rect x="282" y="325" width="205" height="17" fill="black" fill-opacity="0.5"/>
<rect x="316" y="161" width="205" height="7" fill="black" fill-opacity="0.5"/>
<g clip-path="url(#clip2_8_7802)">
<path d="M129.985 358.875H87.8045C61.0427 358.875 39.4207 337.214 39.4207 310.404L39.4207 277.557C39.4207 250.746 61.0427 229.085 87.8045 229.085H129.985C133.353 214.704 142.214 214.704 142.214 214.704C142.214 214.704 140.087 224.291 138.492 229.085H298.708C313.773 229.085 325.824 241.336 325.824 256.251V331.532C325.824 346.624 313.596 358.697 298.708 358.697H138.492C140.087 363.669 142.214 373.079 142.214 373.079C142.214 373.079 133.353 373.257 129.985 358.875Z" fill="black" fill-opacity="0.18"/>
<path d="M310.581 320.524V236.72C310.581 223.936 300.302 213.638 287.541 213.638L73.8016 213.638C46.331 213.638 24 236.01 24 263.53L24 293.714C24 321.234 46.331 343.605 73.8016 343.605H287.718C300.302 343.428 310.581 333.13 310.581 320.524Z" fill="#3B6A87"/>
<path d="M297.644 294.424V262.82C297.644 237.252 293.39 224.469 267.869 224.469L151.075 233.701L78.5874 216.479C51.8257 216.479 30.2036 238.14 30.2036 264.95L30.2036 292.115C30.2036 318.926 51.8257 340.587 78.5874 340.587L151.075 323.542L267.869 332.775C293.39 332.775 297.644 319.991 297.644 294.424Z" fill="#1B5B64"/>
<path d="M114.211 216.125C113.679 219.676 120.591 218.61 122.186 216.125C123.604 213.639 126.794 199.257 126.794 199.257C126.794 199.257 117.047 199.257 114.211 216.125Z" fill="#1B5B64"/>
<path d="M98.4368 218.434C98.4368 218.434 146.466 228.199 155.682 229.264C164.898 230.152 260.425 231.217 264.679 229.264C268.755 227.311 267.869 224.47 267.869 224.47C267.869 224.47 256.703 218.434 200.344 218.434C143.985 218.434 98.4368 218.434 98.4368 218.434Z" fill="#C7D6EB"/>
<path d="M284.883 221.629C287.365 222.339 298.885 233.17 301.189 233.702C303.493 234.412 306.151 228.021 299.239 221.629C292.327 215.237 284.883 221.629 284.883 221.629Z" fill="#FF6166"/>
<path d="M297.644 235.655C297.644 235.655 299.771 243.468 305.619 246.664C305.619 246.664 305.265 236.543 297.644 235.655Z" fill="#FFCC00"/>
<path d="M61.9279 220.919C61.9279 220.919 39.9514 219.143 34.4573 241.16C34.4573 241.16 54.8387 235.3 61.9279 220.919Z" fill="#E9E8D8"/>
<path d="M114.211 340.943C113.679 337.392 120.591 338.458 122.186 340.943C123.781 343.429 126.971 357.811 126.971 357.811C126.971 357.811 117.046 357.988 114.211 340.943Z" fill="#1B5B64"/>
<path d="M98.4374 338.812C98.4374 338.812 146.467 329.046 155.683 327.981C164.899 327.093 260.426 326.028 264.679 327.981C268.755 329.934 267.869 332.775 267.869 332.775C267.869 332.775 256.704 338.812 200.345 338.812C143.986 338.812 98.4374 338.812 98.4374 338.812Z" fill="#C7D6EB"/>
<path d="M151.075 233.702C151.075 233.702 102.691 222.338 93.8299 224.469C84.9684 226.422 78.2336 251.279 78.2336 278.622C78.2336 305.965 84.9684 330.822 93.8299 332.775C102.691 334.728 151.075 323.542 151.075 323.542C151.075 323.542 148.24 308.451 148.24 278.622C148.24 248.793 151.075 233.702 151.075 233.702ZM293.036 278.622C293.036 245.42 284.707 235.655 284.707 235.655L289.846 228.908C304.202 248.616 302.607 278.622 302.607 278.622C302.607 278.622 304.202 308.451 289.846 328.336L284.707 321.589C284.884 321.589 293.036 311.824 293.036 278.622Z" fill="#C7D6EB"/>
<path d="M284.884 335.615C287.365 334.905 298.885 324.074 301.189 323.542C303.493 322.832 306.152 329.223 299.24 335.615C292.328 342.007 284.884 335.615 284.884 335.615Z" fill="#FF6166"/>
<path d="M297.644 321.589C297.644 321.589 299.77 313.777 305.619 310.581C305.619 310.581 305.265 320.524 297.644 321.589Z" fill="#FFCC00"/>
<path d="M61.9285 336.148C61.9285 336.148 39.952 337.924 34.4579 315.907C34.4579 316.085 54.8393 321.944 61.9285 336.148Z" fill="#E9E8D8"/>
</g>
<g clip-path="url(#clip3_8_7802)">
<path d="M230.793 141.74C229.538 144.281 227.336 144.45 226.026 143.999C224.715 143.519 224.018 143.547 223.935 143.377C223.851 143.208 223.962 142.248 224.743 142.22C225.524 142.192 226.75 142.756 227.642 141.853C228.562 140.978 230.793 141.74 230.793 141.74Z" fill="#C68F7C"/>
<path d="M230.792 186.515C229.537 183.974 227.335 183.805 226.025 184.257C224.714 184.737 224.017 184.708 223.934 184.878C223.85 185.047 223.962 186.007 224.742 186.035C225.523 186.064 226.749 185.499 227.642 186.402C228.562 187.306 230.792 186.515 230.792 186.515Z" fill="#C68F7C"/>
<path d="M229.064 164.014C229.064 165.793 227.642 167.233 225.886 167.233H176.178C174.421 167.233 172.999 165.793 172.999 164.014C172.999 162.236 174.421 160.796 176.178 160.796H225.886C227.642 160.796 229.064 162.236 229.064 164.014Z" fill="#1E1E1E"/>
<path d="M191.176 164.127V164.466C191.176 165.595 190.284 166.498 189.169 166.498H177.181C176.066 166.498 175.173 165.595 175.173 164.466V164.127C175.173 162.998 176.066 162.094 177.181 162.094H189.169C190.284 162.094 191.176 162.998 191.176 164.127Z" fill="#2D2D2D"/>
<path d="M243.477 164.015C243.477 167.149 240.968 169.718 237.845 169.718H193.044C189.949 169.718 187.412 167.177 187.412 164.015C187.412 160.881 189.921 158.312 193.044 158.312H237.873C240.968 158.312 243.477 160.853 243.477 164.015Z" fill="#5792B7"/>
<path d="M213.312 164.015C213.312 170.677 214.093 175.815 215.013 179.203C215.598 181.292 217.466 182.732 219.585 182.76C224.157 182.816 228.701 182.195 230.987 181.715C232.298 181.433 233.134 180.078 232.8 178.779C232.214 176.493 233.915 174.262 236.257 174.262H267.509C272.109 174.262 275.817 170.479 275.817 165.85V162.236C275.817 157.578 272.081 153.823 267.509 153.823H236.257C233.915 153.823 232.214 151.593 232.8 149.306C233.134 147.979 232.326 146.652 230.987 146.37C228.674 145.862 224.129 145.269 219.557 145.326C217.41 145.354 215.543 146.822 214.985 148.911C214.065 152.242 213.312 157.38 213.312 164.015Z" fill="#1B5B64"/>
<path d="M232.799 149.25C233.134 147.923 232.325 146.596 230.987 146.314C229.649 146.031 227.558 145.693 225.133 145.495C223.599 145.975 222.373 147.217 221.927 148.854C221.007 152.242 220.254 157.38 220.254 164.015C220.254 170.677 221.034 175.815 221.954 179.203C222.4 180.812 223.627 182.054 225.16 182.534C227.586 182.308 229.677 181.998 231.015 181.716C232.325 181.433 233.162 180.078 232.827 178.78C232.242 176.493 233.942 174.263 236.284 174.263H243.226H267.509C272.109 174.263 275.817 170.48 275.817 165.85V162.236C275.817 157.578 272.081 153.823 267.509 153.823H243.17H236.228C233.915 153.767 232.214 151.536 232.799 149.25Z" fill="#005893"/>
<path d="M236.927 174.235H254.63L261.627 172.993V163.987L229.427 164.439C229.455 164.467 230.793 174.235 236.927 174.235Z" fill="#1B5B64"/>
<path d="M236.926 153.767H254.629L261.627 155.009V164.015L229.426 163.563C229.454 163.535 230.792 153.767 236.926 153.767Z" fill="#1B5B64"/>
<path d="M263.439 164.015C263.439 165.455 262.268 166.64 260.846 166.64H231.991C230.569 166.64 229.398 165.455 229.398 164.015C229.398 162.575 230.569 161.389 231.991 161.389H260.846C262.268 161.389 263.439 162.547 263.439 164.015Z" fill="#FFC627"/>
<path d="M232.019 174.009C232.465 175.703 233.999 176.86 235.755 176.804C243.45 176.55 263.578 175.985 263.578 175.985C264.833 175.985 266.032 175.618 267.091 174.941V168.391L232.772 168.617C231.629 168.617 230.82 169.746 231.127 170.847C231.545 172.343 232.019 174.009 232.019 174.009Z" fill="#1E1E1E"/>
<path d="M232.02 154.021C232.466 152.327 233.999 151.17 235.755 151.226C243.45 151.48 263.579 152.045 263.579 152.045C264.833 152.045 266.032 152.412 267.091 153.089V159.639L232.772 159.385C231.629 159.385 230.821 158.256 231.128 157.155C231.546 155.686 232.02 154.021 232.02 154.021Z" fill="#1E1E1E"/>
<path d="M270.269 160.316H316.938V154.613C316.938 150.492 313.621 147.132 309.551 147.132H281.727C276.96 147.132 272.806 150.407 271.607 155.065L270.269 160.316Z" fill="#1B5B64"/>
<path d="M270.268 167.686H316.938V173.388C316.938 177.51 313.62 180.869 309.55 180.869H281.727C276.959 180.869 272.805 177.595 271.607 172.936L270.268 167.686Z" fill="#1B5B64"/>
<path d="M324.326 161.08V166.924C324.326 168.448 323.099 169.69 321.594 169.69H270.966C269.46 169.69 268.234 168.448 268.234 166.924V161.08C268.234 159.555 269.46 158.313 270.966 158.313H321.594C323.099 158.313 324.326 159.555 324.326 161.08Z" fill="#1B5B64"/>
<path d="M253.291 158.481C250.782 159.102 249.025 161.388 249.025 164.014C249.025 166.639 250.782 168.926 253.291 169.547C256.274 170.281 260.261 171.806 263.299 174.798C264.693 176.182 266.589 176.944 268.541 176.944H270.297C273.224 176.944 275.845 175.052 276.737 172.229C277.35 170.281 277.824 167.628 277.824 164.042C277.824 160.457 277.35 157.803 276.737 155.855C275.845 153.032 273.224 151.141 270.297 151.141H268.541C266.589 151.141 264.693 151.903 263.299 153.286C260.261 156.222 256.274 157.747 253.291 158.481Z" fill="#1E1E1E"/>
<path d="M254.238 159.159C252.036 159.696 250.503 161.728 250.503 164.015C250.503 166.302 252.036 168.335 254.238 168.871C256.859 169.52 260.372 170.847 263.02 173.473C264.247 174.687 265.92 175.364 267.648 175.364H269.21C271.774 175.364 274.088 173.698 274.869 171.214C275.399 169.52 275.817 167.177 275.817 164.015C275.817 160.853 275.399 158.538 274.869 156.816C274.088 154.332 271.774 152.666 269.21 152.666H267.648C265.92 152.666 264.275 153.344 263.02 154.558C260.372 157.183 256.887 158.482 254.238 159.159Z" fill="#282828"/>
<path d="M273.699 164.014C273.699 155.579 268.955 148.741 263.104 148.741C257.254 148.741 252.51 155.579 252.51 164.014C252.51 172.449 257.254 179.287 263.104 179.287C268.955 179.287 273.699 172.449 273.699 164.014Z" fill="#2B2B2B"/>
<path d="M271.245 166.639C271.775 164.466 273.392 166.809 273.336 168.051C273.587 166.752 273.699 165.397 273.699 164.014C273.699 155.573 268.959 148.741 263.105 148.741C262.213 148.741 261.348 148.91 260.54 149.192L260.066 161.021C260.066 161.021 268.987 163.223 271.245 166.639Z" fill="#393939"/>
<path d="M263.104 179.288L243.227 183.015C239.24 183.749 235.365 181.321 234.25 177.368C234.222 177.312 234.222 177.227 234.194 177.171C232.939 172.541 236.006 167.854 240.717 167.233C245.624 166.556 251.339 165.85 255.047 165.37C257.25 165.088 259.341 166.471 259.982 168.645L263.104 179.288Z" fill="#2B2B2B"/>
<path d="M263.104 148.713L243.226 144.987C239.24 144.253 235.365 146.681 234.249 150.633C234.221 150.689 234.221 150.774 234.194 150.831C232.939 155.461 236.006 160.147 240.717 160.768C245.624 161.446 251.339 162.151 255.047 162.631C257.25 162.914 259.34 161.53 259.982 159.356L263.104 148.713Z" fill="#2B2B2B"/>
<path d="M227.559 183.325L230.709 191.907C230.932 192.5 230.625 193.15 230.04 193.375L227.921 194.166C227.336 194.392 226.694 194.081 226.471 193.488L223.321 184.906C223.098 184.313 223.405 183.664 223.99 183.438L226.081 182.648C226.666 182.45 227.336 182.732 227.559 183.325Z" fill="#1E1E1E"/>
<path d="M222.261 145.354L217.745 157.014H214.204V171.016H217.745L222.261 182.676C222.596 183.551 223.572 184.031 224.464 183.748L225.579 183.41C226.471 183.127 227.001 182.224 226.806 181.292L224.408 169.746C226.443 168.475 227.753 166.386 227.753 164.015C227.753 161.643 226.443 159.554 224.408 158.284L226.806 146.737C227.001 145.806 226.471 144.902 225.579 144.62L224.464 144.281C223.572 143.999 222.596 144.451 222.261 145.354Z" fill="#5792B7"/>
<path d="M225.579 144.621L224.631 144.31L219.836 158.708C219.836 158.708 222.401 158.849 223.795 162.971C224.938 166.33 222.206 169.888 222.206 169.888L225.551 183.41C226.443 183.128 226.973 182.225 226.778 181.293L224.38 169.746C226.415 168.476 227.726 166.387 227.726 164.016C227.726 161.644 226.415 159.555 224.38 158.285L226.778 146.738C227.001 145.806 226.471 144.903 225.579 144.621Z" fill="#1B5B64"/>
<path d="M228.562 181.744L228.925 182.704C228.98 182.873 228.897 183.071 228.729 183.127L222.317 185.527C222.15 185.584 221.955 185.499 221.899 185.329L221.537 184.37C221.481 184.2 221.564 184.003 221.732 183.946L228.144 181.547C228.311 181.462 228.478 181.547 228.562 181.744Z" fill="#383838"/>
<path d="M227.559 144.676L230.709 136.094C230.932 135.501 230.625 134.852 230.04 134.626L227.949 133.835C227.363 133.609 226.722 133.92 226.499 134.513L223.349 143.095C223.126 143.688 223.432 144.337 224.018 144.563L226.109 145.354C226.666 145.579 227.335 145.269 227.559 144.676Z" fill="#1E1E1E"/>
<path d="M228.563 146.286L228.925 145.326C228.981 145.157 228.897 144.959 228.73 144.903L222.318 142.503C222.15 142.447 221.955 142.531 221.9 142.701L221.537 143.661C221.481 143.83 221.565 144.028 221.732 144.084L228.144 146.484C228.312 146.54 228.479 146.455 228.563 146.286Z" fill="#383838"/>
<path d="M311.474 160.74V167.29C311.474 171.242 308.296 174.46 304.393 174.46H288.168C284.264 174.46 281.086 171.242 281.086 167.29V160.74C281.086 156.788 284.264 153.569 288.168 153.569H304.393C308.296 153.541 311.474 156.759 311.474 160.74ZM282.592 167.29C282.592 170.423 285.101 172.936 288.168 172.936H304.393C307.488 172.936 309.969 170.395 309.969 167.29V160.74C309.969 157.606 307.46 155.094 304.393 155.094H288.168C285.073 155.094 282.592 157.634 282.592 160.74V167.29Z" fill="#C9C9C9"/>
<path d="M309.495 160.739V167.288C309.495 170.14 307.209 172.455 304.393 172.455H288.168C285.352 172.455 283.066 170.14 283.066 167.288V160.739C283.066 157.887 285.352 155.573 288.168 155.573H304.393C307.209 155.573 309.495 157.887 309.495 160.739Z" fill="#1E1E1E"/>
<path d="M306.316 160.966V167.064C306.316 169.52 304.337 171.524 301.911 171.524H288.613C286.187 171.524 284.208 169.52 284.208 167.064V160.966C284.208 158.51 286.187 156.505 288.613 156.505H301.911C304.365 156.505 306.316 158.51 306.316 160.966Z" fill="#282828"/>
<path d="M214.233 137.731C214.233 135.924 215.264 134.682 216.017 134.004C216.296 133.75 216.77 133.948 216.77 134.343V137.731V141.119C216.77 141.514 216.324 141.712 216.017 141.457C215.292 140.808 214.233 139.538 214.233 137.731Z" fill="#969696"/>
<path d="M217.661 141.769V133.751C217.661 133.469 217.438 133.215 217.131 133.215C216.853 133.215 216.602 133.44 216.602 133.751V141.769C216.602 142.051 216.825 142.305 217.131 142.305C217.438 142.277 217.661 142.051 217.661 141.769Z" fill="#AFAFAF"/>
<path d="M226.387 148.346C226.387 148.403 226.387 148.431 226.36 148.488C226.276 148.713 226.053 148.826 225.83 148.742L221.258 147.048C221.23 147.048 221.23 147.048 221.202 147.019L213.925 143.349C213.117 142.926 212.587 142.107 212.587 141.176V139.708C212.587 138.381 213.675 137.28 214.985 137.28H215.292C215.515 137.28 215.71 137.477 215.71 137.703C215.71 137.929 215.515 138.127 215.292 138.127H214.985C214.121 138.127 213.424 138.832 213.424 139.708V141.176C213.424 141.769 213.758 142.333 214.288 142.587L221.536 146.257L226.109 147.923C226.276 148.036 226.387 148.177 226.387 148.346Z" fill="#969696"/>
<path d="M287.415 154.303V173.698H288.92V154.303H287.415Z" fill="#C9C9C9"/>
<path d="M213.312 170.734C213.312 170.734 210.273 169.491 210.273 164.014C210.273 158.538 213.312 157.465 213.312 157.465V170.734Z" fill="#FFF4E3"/>
<path d="M216.49 157.211V170.79C216.49 171.242 216.128 171.609 215.682 171.609H213.814C213.368 171.609 213.006 171.242 213.006 170.79V157.211C213.006 156.759 213.368 156.392 213.814 156.392H215.682C216.128 156.392 216.49 156.759 216.49 157.211Z" fill="#D3D3D3"/>
<path d="M312.505 153.429V151.142C312.505 150.041 311.641 149.166 310.554 149.166C309.467 149.166 308.602 150.041 308.602 151.142V153.429C308.602 154.53 309.467 155.405 310.554 155.405C311.641 155.405 312.505 154.53 312.505 153.429Z" fill="#B2B2B2"/>
<path d="M313.816 152.384V152.186C313.816 150.859 312.757 149.786 311.447 149.786H311.168C310.248 149.786 309.523 150.549 309.523 151.452V153.089C309.523 154.021 310.276 154.755 311.168 154.755H311.447C312.757 154.783 313.816 153.71 313.816 152.384Z" fill="#FF772C"/>
<path d="M312.506 174.573V176.859C312.506 177.96 311.641 178.836 310.554 178.836C309.467 178.836 308.603 177.96 308.603 176.859V174.573C308.603 173.472 309.467 172.597 310.554 172.597C311.641 172.597 312.506 173.5 312.506 174.573Z" fill="#B2B2B2"/>
<path d="M313.816 175.617V175.815C313.816 177.141 312.757 178.214 311.446 178.214H311.168C310.247 178.214 309.523 177.452 309.523 176.549V174.911C309.523 173.979 310.275 173.245 311.168 173.245H311.446C312.757 173.217 313.816 174.29 313.816 175.617Z" fill="#FF772C"/>
<path d="M312.506 176.041V176.154C312.506 176.888 311.92 177.481 311.195 177.481H311.056C310.554 177.481 310.136 177.057 310.136 176.549V175.646C310.136 175.138 310.554 174.714 311.056 174.714H311.195C311.92 174.714 312.506 175.307 312.506 176.041Z" fill="#FF9F40"/>
<path d="M312.505 152.694V152.807C312.505 153.541 311.92 154.134 311.195 154.134H311.056C310.554 154.134 310.135 153.71 310.135 153.202V152.299C310.135 151.791 310.554 151.367 311.056 151.367H311.195C311.92 151.367 312.505 151.96 312.505 152.694Z" fill="#FF9F40"/>
<path d="M227.586 180.981C227.586 181.32 227.363 181.659 227.029 181.772L222.54 183.381L221.453 183.804C221.174 183.917 221.035 184.228 221.146 184.538L223.878 191.794C223.934 191.935 224.046 192.048 224.185 192.132C225.244 192.612 225.746 193.854 225.384 194.955L225.217 195.435C225.077 195.887 224.603 196.113 224.157 195.972C223.711 195.831 223.488 195.351 223.627 194.899L223.795 194.419C223.906 194.137 223.767 193.798 223.488 193.685C222.958 193.431 222.54 192.979 222.317 192.415L219.585 185.159C219.139 184.002 219.724 182.703 220.867 182.251L221.983 181.828C221.983 181.828 221.983 181.828 222.01 181.828L226.499 180.219C226.945 180.049 227.419 180.304 227.558 180.727C227.558 180.783 227.586 180.896 227.586 180.981Z" fill="#0C0F11"/>
<path d="M227.587 147.019C227.587 147.104 227.559 147.217 227.531 147.302C227.364 147.753 226.89 147.979 226.472 147.81L221.983 146.201C221.983 146.201 221.983 146.201 221.955 146.201L220.84 145.777C219.697 145.326 219.112 144.027 219.558 142.869L222.29 135.614C222.513 135.049 222.931 134.598 223.461 134.344C223.739 134.203 223.879 133.892 223.767 133.61L223.6 133.13C223.461 132.678 223.684 132.198 224.13 132.057C224.576 131.916 225.05 132.142 225.189 132.593L225.356 133.073C225.719 134.203 225.217 135.416 224.158 135.896C224.018 135.953 223.907 136.094 223.851 136.235L221.119 143.491C221.007 143.773 221.147 144.112 221.426 144.225L222.513 144.648L227.001 146.257C227.364 146.37 227.587 146.681 227.587 147.019Z" fill="#0C0F11"/>
<path d="M232.353 138.043C232.353 138.043 227.586 133.413 226.192 134.57C224.798 135.728 222.735 139.567 223.153 140.386C223.571 141.205 227.196 143.181 229.705 142.701C231.573 140.442 232.353 138.043 232.353 138.043Z" fill="#C68F7C"/>
<path d="M243.672 181.659C244.006 182.111 244.369 182.534 244.731 182.901L229.955 185.837C229.872 185.724 229.788 185.64 229.704 185.527C227.195 185.047 223.571 187.023 223.153 187.842C222.735 188.66 224.798 192.5 226.192 193.657C227.084 194.391 229.37 192.754 230.875 191.483C235.364 191.653 249.22 191.907 254.628 188.914C261.124 185.301 257.834 174.488 251.757 174.319C245.679 174.15 240.912 178.102 243.672 181.659Z" fill="#C68F7C"/>
<path d="M229.455 136.8C229.455 136.8 248.133 135.699 254.629 139.312C261.125 142.926 257.835 153.738 251.758 153.908C245.68 154.077 240.913 150.153 243.673 146.596C246.405 143.01 249.639 141.43 249.639 141.43L249.193 146.229L228.451 142.107L229.455 136.8Z" fill="#C68F7C"/>
<path d="M244.398 145.298C243.394 146.54 242.753 147.613 242.39 148.573C239.937 151.876 238.32 157.607 238.32 164.128C238.32 170.621 239.937 176.324 242.39 179.655C242.753 180.643 243.394 181.744 244.425 182.987C244.425 182.987 247.715 189.875 255.242 189.085C258.421 188.605 259.842 183.664 258.727 179.514L264.666 177.764C268.429 177.03 271.384 171.214 271.384 164.128C271.384 157.042 268.429 151.227 264.666 150.493L258.727 148.742C259.842 144.592 258.393 139.68 255.242 139.2C247.687 138.41 244.398 145.298 244.398 145.298Z" fill="#005893"/>
<path d="M242.919 157.777C242.919 157.777 243.003 157.692 243.142 157.522C243.003 157.664 242.919 157.777 242.919 157.777Z" fill="#00527F"/>
<path d="M219.53 156.025C218.554 157.352 217.02 160.09 217.02 164.127C217.02 168.164 218.554 170.903 219.53 172.229C219.948 172.794 220.617 173.133 221.314 173.133H224.715L221.425 164.099L224.715 155.065H221.314C220.617 155.121 219.948 155.46 219.53 156.025Z" fill="#121619"/>
<path d="M249.722 164.127C249.722 167.233 247.241 169.773 244.146 169.773H235.838C232.772 169.773 230.262 167.261 230.262 164.127C230.262 161.022 232.744 158.481 235.838 158.481H244.146C247.213 158.509 249.722 161.022 249.722 164.127Z" fill="#C68F7C"/>
<path d="M245.596 158.707C245.15 158.594 244.648 158.509 244.147 158.509H239.63L240.327 169.773H243.701C243.673 169.773 247.771 165.708 245.596 158.707Z" fill="#C68F7C"/>
<path d="M244.788 164.127C244.788 157.064 239.134 151.338 232.159 151.338C225.184 151.338 219.53 157.064 219.53 164.127C219.53 171.19 225.184 176.916 232.159 176.916C239.134 176.916 244.788 171.19 244.788 164.127Z" fill="#5792B7"/>
<path d="M324.382 165.399V162.576C324.382 161.22 323.295 160.119 321.956 160.119C320.618 160.119 319.531 161.22 319.531 162.576V165.399C319.531 166.754 320.618 167.855 321.956 167.855C323.295 167.855 324.382 166.754 324.382 165.399Z" fill="#B2B2B2"/>
<path d="M326 164.127V163.901C326 162.263 324.689 160.937 323.072 160.937H322.738C321.623 160.937 320.703 161.868 320.703 162.997V165.03C320.703 166.159 321.623 167.091 322.738 167.091H323.072C324.689 167.091 326 165.764 326 164.127Z" fill="#FF4E00"/>
<path d="M324.689 164.41V164.268C324.689 163.224 323.853 162.377 322.821 162.377H322.626C321.901 162.377 321.344 162.97 321.344 163.676V164.946C321.344 165.68 321.929 166.245 322.626 166.245H322.821C323.853 166.301 324.689 165.454 324.689 164.41Z" fill="#FF772C"/>
</g>
<path d="M25.04 437.692H28.173C28.693 437.692 29.174 437.809 29.616 438.043C30.058 438.277 30.409 438.606 30.669 439.031C30.9377 439.447 31.072 439.919 31.072 440.448C31.072 440.977 30.9377 441.453 30.669 441.878C30.409 442.294 30.058 442.619 29.616 442.853C29.174 443.087 28.693 443.204 28.173 443.204H26.132V447H25.04V437.692ZM28.199 442.151C28.5457 442.151 28.849 442.069 29.109 441.904C29.3777 441.739 29.5857 441.527 29.733 441.267C29.8803 441.007 29.954 440.734 29.954 440.448C29.954 440.162 29.8803 439.889 29.733 439.629C29.5857 439.369 29.3777 439.157 29.109 438.992C28.849 438.827 28.5457 438.745 28.199 438.745H26.132V442.151H28.199ZM32.3727 437.692H33.4777V447H32.3727V437.692ZM38.0024 447.208C37.3698 447.208 36.8021 447.056 36.2994 446.753C35.7968 446.45 35.4024 446.034 35.1164 445.505C34.8391 444.968 34.7004 444.365 34.7004 443.698C34.7004 443.057 34.8304 442.467 35.0904 441.93C35.3591 441.393 35.7361 440.964 36.2214 440.643C36.7068 440.322 37.2701 440.162 37.9114 440.162C38.5614 440.162 39.1248 440.309 39.6014 440.604C40.0781 440.89 40.4421 441.289 40.6934 441.8C40.9534 442.311 41.0834 442.896 41.0834 443.555C41.0834 443.685 41.0704 443.798 41.0444 443.893H35.8054C35.8314 444.396 35.9528 444.82 36.1694 445.167C36.3861 445.514 36.6591 445.774 36.9884 445.947C37.3264 446.12 37.6774 446.207 38.0414 446.207C38.8908 446.207 39.5451 445.808 40.0044 445.011L40.9404 445.466C40.6544 446.003 40.2644 446.428 39.7704 446.74C39.2851 447.052 38.6958 447.208 38.0024 447.208ZM39.9134 442.983C39.8961 442.706 39.8181 442.428 39.6794 442.151C39.5408 441.874 39.3198 441.64 39.0164 441.449C38.7218 441.258 38.3491 441.163 37.8984 441.163C37.3784 441.163 36.9364 441.332 36.5724 441.67C36.2171 441.999 35.9831 442.437 35.8704 442.983H39.9134ZM44.5591 447.208C44.0738 447.208 43.6404 447.113 43.2591 446.922C42.8778 446.731 42.5831 446.471 42.3751 446.142C42.1671 445.804 42.0631 445.423 42.0631 444.998C42.0631 444.296 42.3274 443.75 42.8561 443.36C43.3848 442.961 44.0521 442.762 44.8581 442.762C45.2568 442.762 45.6251 442.805 45.9631 442.892C46.3098 442.979 46.5741 443.078 46.7561 443.191V442.788C46.7561 442.294 46.5828 441.9 46.2361 441.605C45.8894 441.302 45.4518 441.15 44.9231 441.15C44.5504 441.15 44.2081 441.232 43.8961 441.397C43.5841 441.553 43.3371 441.774 43.1551 442.06L42.3231 441.436C42.5831 441.037 42.9384 440.725 43.3891 440.5C43.8484 440.275 44.3554 440.162 44.9101 440.162C45.8114 440.162 46.5178 440.4 47.0291 440.877C47.5491 441.345 47.8091 441.986 47.8091 442.801V447H46.7561V446.051H46.7041C46.5134 446.372 46.2274 446.645 45.8461 446.87C45.4648 447.095 45.0358 447.208 44.5591 447.208ZM44.6631 446.233C45.0358 446.233 45.3824 446.138 45.7031 445.947C46.0238 445.756 46.2794 445.501 46.4701 445.18C46.6608 444.859 46.7561 444.508 46.7561 444.127C46.5481 443.988 46.2924 443.876 45.9891 443.789C45.6858 443.702 45.3651 443.659 45.0271 443.659C44.4204 443.659 43.9611 443.785 43.6491 444.036C43.3458 444.287 43.1941 444.612 43.1941 445.011C43.1941 445.375 43.3328 445.67 43.6101 445.895C43.8874 446.12 44.2384 446.233 44.6631 446.233ZM51.5969 447.208C50.8862 447.208 50.2925 447.043 49.8159 446.714C49.3392 446.376 49.0012 445.947 48.8019 445.427L49.7899 444.985C49.9545 445.384 50.1972 445.691 50.5179 445.908C50.8472 446.125 51.2069 446.233 51.5969 446.233C52.0129 446.233 52.3682 446.151 52.6629 445.986C52.9575 445.813 53.1049 445.57 53.1049 445.258C53.1049 444.981 52.9879 444.76 52.7539 444.595C52.5199 444.422 52.1515 444.274 51.6489 444.153L50.8429 443.945C50.3142 443.815 49.8809 443.594 49.5429 443.282C49.2049 442.97 49.0359 442.567 49.0359 442.073C49.0359 441.692 49.1485 441.358 49.3739 441.072C49.6079 440.777 49.9155 440.552 50.2969 440.396C50.6782 440.24 51.0899 440.162 51.5319 440.162C52.1125 440.162 52.6282 440.288 53.0789 440.539C53.5382 440.79 53.8632 441.141 54.0539 441.592L53.0919 442.034C52.7972 441.445 52.2729 441.15 51.5189 441.15C51.1549 441.15 50.8342 441.237 50.5569 441.41C50.2882 441.575 50.1539 441.787 50.1539 442.047C50.1539 442.29 50.2492 442.489 50.4399 442.645C50.6305 442.792 50.9165 442.914 51.2979 443.009L52.2599 443.256C52.9099 443.421 53.3995 443.668 53.7289 443.997C54.0582 444.318 54.2229 444.712 54.2229 445.18C54.2229 445.587 54.1059 445.947 53.8719 446.259C53.6379 446.562 53.3215 446.796 52.9229 446.961C52.5242 447.126 52.0822 447.208 51.5969 447.208ZM58.4419 447.208C57.8092 447.208 57.2415 447.056 56.7389 446.753C56.2362 446.45 55.8419 446.034 55.5559 445.505C55.2785 444.968 55.1399 444.365 55.1399 443.698C55.1399 443.057 55.2699 442.467 55.5299 441.93C55.7985 441.393 56.1755 440.964 56.6609 440.643C57.1462 440.322 57.7095 440.162 58.3509 440.162C59.0009 440.162 59.5642 440.309 60.0409 440.604C60.5175 440.89 60.8815 441.289 61.1329 441.8C61.3929 442.311 61.5229 442.896 61.5229 443.555C61.5229 443.685 61.5099 443.798 61.4839 443.893H56.2449C56.2709 444.396 56.3922 444.82 56.6089 445.167C56.8255 445.514 57.0985 445.774 57.4279 445.947C57.7659 446.12 58.1169 446.207 58.4809 446.207C59.3302 446.207 59.9845 445.808 60.4439 445.011L61.3799 445.466C61.0939 446.003 60.7039 446.428 60.2099 446.74C59.7245 447.052 59.1352 447.208 58.4419 447.208ZM60.3529 442.983C60.3355 442.706 60.2575 442.428 60.1189 442.151C59.9802 441.874 59.7592 441.64 59.4559 441.449C59.1612 441.258 58.7885 441.163 58.3379 441.163C57.8179 441.163 57.3759 441.332 57.0119 441.67C56.6565 441.999 56.4225 442.437 56.3099 442.983H60.3529ZM66.4876 439.148C66.2709 439.148 66.0846 439.07 65.9286 438.914C65.7726 438.758 65.6946 438.572 65.6946 438.355C65.6946 438.138 65.7726 437.956 65.9286 437.809C66.0846 437.653 66.2709 437.575 66.4876 437.575C66.7042 437.575 66.8906 437.653 67.0466 437.809C67.2026 437.956 67.2806 438.138 67.2806 438.355C67.2806 438.572 67.2026 438.758 67.0466 438.914C66.8992 439.07 66.7129 439.148 66.4876 439.148ZM65.9416 440.37H67.0336V447H65.9416V440.37ZM68.7702 440.37H69.8232V441.345H69.8752C70.0572 441.016 70.3475 440.738 70.7462 440.513C71.1448 440.279 71.5695 440.162 72.0202 440.162C72.8175 440.162 73.4242 440.396 73.8402 440.864C74.2648 441.323 74.4772 441.952 74.4772 442.749V447H73.3722V442.918C73.3722 442.303 73.2248 441.856 72.9302 441.579C72.6355 441.302 72.2325 441.163 71.7212 441.163C71.3658 441.163 71.0452 441.263 70.7592 441.462C70.4818 441.661 70.2652 441.926 70.1092 442.255C69.9532 442.576 69.8752 442.914 69.8752 443.269V447H68.7702V440.37ZM76.0053 440.37H77.0583V441.358H77.1103C77.3096 441.02 77.6086 440.738 78.0073 440.513C78.4146 440.279 78.8696 440.162 79.3723 440.162C79.9616 440.162 80.4989 440.314 80.9843 440.617C81.4696 440.92 81.8509 441.341 82.1283 441.878C82.4056 442.415 82.5443 443.018 82.5443 443.685C82.5443 444.361 82.4056 444.968 82.1283 445.505C81.8509 446.034 81.4696 446.45 80.9843 446.753C80.4989 447.056 79.9616 447.208 79.3723 447.208C78.8696 447.208 78.4146 447.095 78.0073 446.87C77.6086 446.636 77.3096 446.354 77.1103 446.025H77.0583L77.1103 446.935V449.808H76.0053V440.37ZM79.2423 446.207C79.6236 446.207 79.9833 446.103 80.3213 445.895C80.6593 445.687 80.9279 445.392 81.1273 445.011C81.3353 444.621 81.4393 444.179 81.4393 443.685C81.4393 443.191 81.3353 442.753 81.1273 442.372C80.9279 441.982 80.6593 441.683 80.3213 441.475C79.9833 441.267 79.6236 441.163 79.2423 441.163C78.8609 441.163 78.5013 441.267 78.1633 441.475C77.8253 441.683 77.5566 441.978 77.3573 442.359C77.1579 442.74 77.0583 443.182 77.0583 443.685C77.0583 444.188 77.1579 444.63 77.3573 445.011C77.5566 445.392 77.8253 445.687 78.1633 445.895C78.5013 446.103 78.8609 446.207 79.2423 446.207ZM86.1683 447.208C85.371 447.208 84.76 446.974 84.3353 446.506C83.9193 446.038 83.7113 445.384 83.7113 444.543V440.37H84.8163V444.374C84.8163 445.007 84.9593 445.47 85.2453 445.765C85.5313 446.06 85.917 446.207 86.4023 446.207C86.775 446.207 87.1043 446.107 87.3903 445.908C87.685 445.709 87.9103 445.449 88.0663 445.128C88.231 444.807 88.3133 444.469 88.3133 444.114V440.37H89.4183V447H88.3653V446.038H88.3133C88.1313 446.367 87.841 446.645 87.4423 446.87C87.0437 447.095 86.619 447.208 86.1683 447.208ZM93.6619 447.104C93.3933 447.104 93.1419 447.061 92.9079 446.974C92.6826 446.887 92.4919 446.77 92.3359 446.623C92.1626 446.458 92.0326 446.268 91.9459 446.051C91.8593 445.834 91.8159 445.57 91.8159 445.258V441.371H90.6589V440.37H91.8159V438.498H92.9209V440.37H94.5329V441.371H92.9209V444.985C92.9209 445.349 92.9903 445.618 93.1289 445.791C93.2936 445.982 93.5319 446.077 93.8439 446.077C94.0953 446.077 94.3379 446.003 94.5719 445.856V446.935C94.4419 446.996 94.3076 447.039 94.1689 447.065C94.0389 447.091 93.8699 447.104 93.6619 447.104ZM100.924 446.584L98.1811 440.37H99.3771L101.457 445.297H101.483L103.485 440.37H104.681L100.586 449.808H99.4421L100.924 446.584ZM108.4 447.208C107.75 447.208 107.165 447.052 106.645 446.74C106.125 446.428 105.718 446.003 105.423 445.466C105.137 444.929 104.994 444.335 104.994 443.685C104.994 443.035 105.137 442.441 105.423 441.904C105.718 441.367 106.125 440.942 106.645 440.63C107.165 440.318 107.75 440.162 108.4 440.162C109.05 440.162 109.635 440.318 110.155 440.63C110.675 440.942 111.078 441.367 111.364 441.904C111.659 442.441 111.806 443.035 111.806 443.685C111.806 444.335 111.659 444.929 111.364 445.466C111.078 446.003 110.675 446.428 110.155 446.74C109.635 447.052 109.05 447.208 108.4 447.208ZM108.4 446.207C108.808 446.207 109.185 446.107 109.531 445.908C109.887 445.7 110.168 445.405 110.376 445.024C110.593 444.643 110.701 444.196 110.701 443.685C110.701 443.174 110.593 442.727 110.376 442.346C110.168 441.965 109.887 441.674 109.531 441.475C109.185 441.267 108.808 441.163 108.4 441.163C107.993 441.163 107.612 441.267 107.256 441.475C106.901 441.674 106.615 441.965 106.398 442.346C106.19 442.727 106.086 443.174 106.086 443.685C106.086 444.196 106.19 444.643 106.398 445.024C106.615 445.405 106.901 445.7 107.256 445.908C107.612 446.107 107.993 446.207 108.4 446.207ZM115.431 447.208C114.634 447.208 114.023 446.974 113.598 446.506C113.182 446.038 112.974 445.384 112.974 444.543V440.37H114.079V444.374C114.079 445.007 114.222 445.47 114.508 445.765C114.794 446.06 115.18 446.207 115.665 446.207C116.038 446.207 116.367 446.107 116.653 445.908C116.948 445.709 117.173 445.449 117.329 445.128C117.494 444.807 117.576 444.469 117.576 444.114V440.37H118.681V447H117.628V446.038H117.576C117.394 446.367 117.104 446.645 116.705 446.87C116.306 447.095 115.882 447.208 115.431 447.208ZM120.313 440.37H121.366V441.436H121.418C121.548 441.072 121.799 440.773 122.172 440.539C122.545 440.296 122.935 440.175 123.342 440.175C123.645 440.175 123.905 440.218 124.122 440.305V441.501C123.845 441.362 123.533 441.293 123.186 441.293C122.865 441.293 122.571 441.384 122.302 441.566C122.033 441.748 121.817 441.995 121.652 442.307C121.496 442.61 121.418 442.94 121.418 443.295V447H120.313V440.37ZM128.86 439.148C128.643 439.148 128.457 439.07 128.301 438.914C128.145 438.758 128.067 438.572 128.067 438.355C128.067 438.138 128.145 437.956 128.301 437.809C128.457 437.653 128.643 437.575 128.86 437.575C129.076 437.575 129.263 437.653 129.419 437.809C129.575 437.956 129.653 438.138 129.653 438.355C129.653 438.572 129.575 438.758 129.419 438.914C129.271 439.07 129.085 439.148 128.86 439.148ZM128.314 440.37H129.406V447H128.314V440.37ZM131.142 440.37H132.195V441.345H132.247C132.429 441.016 132.72 440.738 133.118 440.513C133.517 440.279 133.942 440.162 134.392 440.162C135.19 440.162 135.796 440.396 136.212 440.864C136.637 441.323 136.849 441.952 136.849 442.749V447H135.744V442.918C135.744 442.303 135.597 441.856 135.302 441.579C135.008 441.302 134.605 441.163 134.093 441.163C133.738 441.163 133.417 441.263 133.131 441.462C132.854 441.661 132.637 441.926 132.481 442.255C132.325 442.576 132.247 442.914 132.247 443.269V447H131.142V440.37ZM139.069 441.371H137.847V440.37H139.069V439.655C139.069 439.239 139.165 438.875 139.355 438.563C139.546 438.251 139.802 438.013 140.122 437.848C140.443 437.675 140.798 437.588 141.188 437.588C141.561 437.588 141.886 437.64 142.163 437.744V438.823C142.007 438.762 141.86 438.715 141.721 438.68C141.583 438.637 141.418 438.615 141.227 438.615C140.941 438.615 140.694 438.719 140.486 438.927C140.278 439.126 140.174 439.408 140.174 439.772V440.37H141.877V441.371H140.174V447H139.069V441.371ZM145.877 447.208C145.227 447.208 144.642 447.052 144.122 446.74C143.602 446.428 143.195 446.003 142.9 445.466C142.614 444.929 142.471 444.335 142.471 443.685C142.471 443.035 142.614 442.441 142.9 441.904C143.195 441.367 143.602 440.942 144.122 440.63C144.642 440.318 145.227 440.162 145.877 440.162C146.527 440.162 147.112 440.318 147.632 440.63C148.152 440.942 148.555 441.367 148.841 441.904C149.136 442.441 149.283 443.035 149.283 443.685C149.283 444.335 149.136 444.929 148.841 445.466C148.555 446.003 148.152 446.428 147.632 446.74C147.112 447.052 146.527 447.208 145.877 447.208ZM145.877 446.207C146.284 446.207 146.661 446.107 147.008 445.908C147.363 445.7 147.645 445.405 147.853 445.024C148.07 444.643 148.178 444.196 148.178 443.685C148.178 443.174 148.07 442.727 147.853 442.346C147.645 441.965 147.363 441.674 147.008 441.475C146.661 441.267 146.284 441.163 145.877 441.163C145.47 441.163 145.088 441.267 144.733 441.475C144.378 441.674 144.092 441.965 143.875 442.346C143.667 442.727 143.563 443.174 143.563 443.685C143.563 444.196 143.667 444.643 143.875 445.024C144.092 445.405 144.378 445.7 144.733 445.908C145.088 446.107 145.47 446.207 145.877 446.207ZM150.439 440.37H151.492V441.436H151.544C151.674 441.072 151.925 440.773 152.298 440.539C152.671 440.296 153.061 440.175 153.468 440.175C153.771 440.175 154.031 440.218 154.248 440.305V441.501C153.971 441.362 153.659 441.293 153.312 441.293C152.991 441.293 152.697 441.384 152.428 441.566C152.159 441.748 151.943 441.995 151.778 442.307C151.622 442.61 151.544 442.94 151.544 443.295V447H150.439V440.37ZM155.314 440.37H156.367V441.345H156.419C156.61 441.007 156.896 440.725 157.277 440.5C157.658 440.275 158.061 440.162 158.486 440.162C158.971 440.162 159.392 440.279 159.747 440.513C160.111 440.747 160.371 441.059 160.527 441.449C160.761 441.059 161.069 440.747 161.45 440.513C161.84 440.279 162.291 440.162 162.802 440.162C163.565 440.162 164.137 440.396 164.518 440.864C164.908 441.323 165.103 441.952 165.103 442.749V447H164.011V442.918C164.011 442.303 163.885 441.856 163.634 441.579C163.383 441.302 163.01 441.163 162.516 441.163C162.187 441.163 161.888 441.258 161.619 441.449C161.35 441.64 161.138 441.895 160.982 442.216C160.835 442.537 160.761 442.883 160.761 443.256V447H159.656V442.931C159.656 442.307 159.53 441.856 159.279 441.579C159.028 441.302 158.659 441.163 158.174 441.163C157.845 441.163 157.546 441.263 157.277 441.462C157.008 441.653 156.796 441.913 156.64 442.242C156.493 442.563 156.419 442.909 156.419 443.282V447H155.314V440.37ZM168.745 447.208C168.259 447.208 167.826 447.113 167.445 446.922C167.063 446.731 166.769 446.471 166.561 446.142C166.353 445.804 166.249 445.423 166.249 444.998C166.249 444.296 166.513 443.75 167.042 443.36C167.57 442.961 168.238 442.762 169.044 442.762C169.442 442.762 169.811 442.805 170.149 442.892C170.495 442.979 170.76 443.078 170.942 443.191V442.788C170.942 442.294 170.768 441.9 170.422 441.605C170.075 441.302 169.637 441.15 169.109 441.15C168.736 441.15 168.394 441.232 168.082 441.397C167.77 441.553 167.523 441.774 167.341 442.06L166.509 441.436C166.769 441.037 167.124 440.725 167.575 440.5C168.034 440.275 168.541 440.162 169.096 440.162C169.997 440.162 170.703 440.4 171.215 440.877C171.735 441.345 171.995 441.986 171.995 442.801V447H170.942V446.051H170.89C170.699 446.372 170.413 446.645 170.032 446.87C169.65 447.095 169.221 447.208 168.745 447.208ZM168.849 446.233C169.221 446.233 169.568 446.138 169.889 445.947C170.209 445.756 170.465 445.501 170.656 445.18C170.846 444.859 170.942 444.508 170.942 444.127C170.734 443.988 170.478 443.876 170.175 443.789C169.871 443.702 169.551 443.659 169.213 443.659C168.606 443.659 168.147 443.785 167.835 444.036C167.531 444.287 167.38 444.612 167.38 445.011C167.38 445.375 167.518 445.67 167.796 445.895C168.073 446.12 168.424 446.233 168.849 446.233ZM175.953 447.104C175.684 447.104 175.433 447.061 175.199 446.974C174.974 446.887 174.783 446.77 174.627 446.623C174.454 446.458 174.324 446.268 174.237 446.051C174.15 445.834 174.107 445.57 174.107 445.258V441.371H172.95V440.37H174.107V438.498H175.212V440.37H176.824V441.371H175.212V444.985C175.212 445.349 175.281 445.618 175.42 445.791C175.585 445.982 175.823 446.077 176.135 446.077C176.386 446.077 176.629 446.003 176.863 445.856V446.935C176.733 446.996 176.599 447.039 176.46 447.065C176.33 447.091 176.161 447.104 175.953 447.104ZM178.879 439.148C178.662 439.148 178.476 439.07 178.32 438.914C178.164 438.758 178.086 438.572 178.086 438.355C178.086 438.138 178.164 437.956 178.32 437.809C178.476 437.653 178.662 437.575 178.879 437.575C179.096 437.575 179.282 437.653 179.438 437.809C179.594 437.956 179.672 438.138 179.672 438.355C179.672 438.572 179.594 438.758 179.438 438.914C179.291 439.07 179.104 439.148 178.879 439.148ZM178.333 440.37H179.425V447H178.333V440.37ZM184.153 447.208C183.503 447.208 182.918 447.052 182.398 446.74C181.878 446.428 181.471 446.003 181.176 445.466C180.89 444.929 180.747 444.335 180.747 443.685C180.747 443.035 180.89 442.441 181.176 441.904C181.471 441.367 181.878 440.942 182.398 440.63C182.918 440.318 183.503 440.162 184.153 440.162C184.803 440.162 185.388 440.318 185.908 440.63C186.428 440.942 186.831 441.367 187.117 441.904C187.412 442.441 187.559 443.035 187.559 443.685C187.559 444.335 187.412 444.929 187.117 445.466C186.831 446.003 186.428 446.428 185.908 446.74C185.388 447.052 184.803 447.208 184.153 447.208ZM184.153 446.207C184.561 446.207 184.938 446.107 185.284 445.908C185.64 445.7 185.921 445.405 186.129 445.024C186.346 444.643 186.454 444.196 186.454 443.685C186.454 443.174 186.346 442.727 186.129 442.346C185.921 441.965 185.64 441.674 185.284 441.475C184.938 441.267 184.561 441.163 184.153 441.163C183.746 441.163 183.365 441.267 183.009 441.475C182.654 441.674 182.368 441.965 182.151 442.346C181.943 442.727 181.839 443.174 181.839 443.685C181.839 444.196 181.943 444.643 182.151 445.024C182.368 445.405 182.654 445.7 183.009 445.908C183.365 446.107 183.746 446.207 184.153 446.207ZM188.715 440.37H189.768V441.345H189.82C190.002 441.016 190.293 440.738 190.691 440.513C191.09 440.279 191.515 440.162 191.965 440.162C192.763 440.162 193.369 440.396 193.785 440.864C194.21 441.323 194.422 441.952 194.422 442.749V447H193.317V442.918C193.317 442.303 193.17 441.856 192.875 441.579C192.581 441.302 192.178 441.163 191.666 441.163C191.311 441.163 190.99 441.263 190.704 441.462C190.427 441.661 190.21 441.926 190.054 442.255C189.898 442.576 189.82 442.914 189.82 443.269V447H188.715V440.37Z" fill="#D7D7D7"/>
<path d="M32.625 411.55C32.8083 411.467 33.0917 411.375 33.475 411.275C33.875 411.158 34.275 411.1 34.675 411.1C35.375 411.1 35.9583 411.208 36.425 411.425C36.8917 411.625 37.175 411.925 37.275 412.325C37.4583 413.008 37.625 413.65 37.775 414.25C37.9417 414.833 38.1 415.4 38.25 415.95C38.4 416.483 38.5417 417.017 38.675 417.55C38.825 418.083 38.9667 418.642 39.1 419.225H39.225C39.375 418.208 39.5083 417.242 39.625 416.325C39.7417 415.392 39.85 414.483 39.95 413.6C40.05 412.7 40.15 411.817 40.25 410.95C40.35 410.067 40.45 409.175 40.55 408.275C41.1667 407.925 41.825 407.75 42.525 407.75C43.1417 407.75 43.675 407.883 44.125 408.15C44.575 408.417 44.8 408.867 44.8 409.5C44.8 409.867 44.7583 410.392 44.675 411.075C44.6083 411.742 44.5083 412.492 44.375 413.325C44.2583 414.158 44.1167 415.033 43.95 415.95C43.7833 416.867 43.6083 417.742 43.425 418.575C43.2417 419.408 43.05 420.167 42.85 420.85C42.6667 421.517 42.4917 422.033 42.325 422.4C42.075 422.633 41.6667 422.825 41.1 422.975C40.5333 423.125 39.95 423.2 39.35 423.2C38.5667 423.2 37.9 423.1 37.35 422.9C36.8167 422.683 36.4917 422.383 36.375 422C36.1583 421.333 35.925 420.542 35.675 419.625C35.425 418.708 35.1583 417.7 34.875 416.6C34.6417 417.683 34.4 418.742 34.15 419.775C33.9 420.808 33.675 421.683 33.475 422.4C33.225 422.633 32.85 422.825 32.35 422.975C31.85 423.125 31.3 423.2 30.7 423.2C29.95 423.2 29.2667 423.1 28.65 422.9C28.05 422.683 27.6583 422.383 27.475 422C27.325 421.7 27.1583 421.258 26.975 420.675C26.8083 420.075 26.6333 419.4 26.45 418.65C26.2667 417.883 26.075 417.058 25.875 416.175C25.6917 415.292 25.5167 414.408 25.35 413.525C25.2 412.642 25.0583 411.783 24.925 410.95C24.7917 410.1 24.6917 409.325 24.625 408.625C24.8583 408.408 25.1833 408.208 25.6 408.025C26.0167 407.842 26.4667 407.75 26.95 407.75C27.5833 407.75 28.1 407.892 28.5 408.175C28.9167 408.442 29.175 408.9 29.275 409.55C29.5417 411.25 29.7583 412.667 29.925 413.8C30.1083 414.933 30.25 415.867 30.35 416.6C30.4667 417.317 30.55 417.875 30.6 418.275C30.65 418.675 30.7 418.992 30.75 419.225H30.875C31.025 418.558 31.1667 417.942 31.3 417.375C31.4333 416.808 31.5667 416.242 31.7 415.675C31.85 415.092 32 414.475 32.15 413.825C32.3 413.158 32.4583 412.4 32.625 411.55ZM53.0629 423.4C52.0796 423.4 51.1629 423.267 50.3129 423C49.4796 422.717 48.7462 422.3 48.1129 421.75C47.4962 421.2 47.0046 420.508 46.6379 419.675C46.2879 418.842 46.1129 417.867 46.1129 416.75C46.1129 415.65 46.2879 414.708 46.6379 413.925C47.0046 413.125 47.4796 412.475 48.0629 411.975C48.6462 411.458 49.3129 411.083 50.0629 410.85C50.8129 410.6 51.5796 410.475 52.3629 410.475C53.2462 410.475 54.0462 410.608 54.7629 410.875C55.4962 411.142 56.1212 411.508 56.6379 411.975C57.1712 412.442 57.5796 413 57.8629 413.65C58.1629 414.3 58.3129 415.008 58.3129 415.775C58.3129 416.342 58.1546 416.775 57.8379 417.075C57.5212 417.375 57.0796 417.567 56.5129 417.65L50.3379 418.575C50.5212 419.125 50.8962 419.542 51.4629 419.825C52.0296 420.092 52.6796 420.225 53.4129 420.225C54.0962 420.225 54.7379 420.142 55.3379 419.975C55.9546 419.792 56.4546 419.583 56.8379 419.35C57.1046 419.517 57.3296 419.75 57.5129 420.05C57.6962 420.35 57.7879 420.667 57.7879 421C57.7879 421.75 57.4379 422.308 56.7379 422.675C56.2046 422.958 55.6046 423.15 54.9379 423.25C54.2712 423.35 53.6462 423.4 53.0629 423.4ZM52.3629 413.575C51.9629 413.575 51.6129 413.642 51.3129 413.775C51.0296 413.908 50.7962 414.083 50.6129 414.3C50.4296 414.5 50.2879 414.733 50.1879 415C50.1046 415.25 50.0546 415.508 50.0379 415.775L54.3129 415.075C54.2629 414.742 54.0796 414.408 53.7629 414.075C53.4462 413.742 52.9796 413.575 52.3629 413.575ZM64.6836 422.975C64.5003 423.008 64.2253 423.05 63.8586 423.1C63.5086 423.167 63.1503 423.2 62.7836 423.2C62.4169 423.2 62.0836 423.175 61.7836 423.125C61.5003 423.075 61.2586 422.975 61.0586 422.825C60.8586 422.675 60.7003 422.475 60.5836 422.225C60.4836 421.958 60.4336 421.617 60.4336 421.2V406.7C60.6169 406.667 60.8836 406.625 61.2336 406.575C61.6003 406.508 61.9669 406.475 62.3336 406.475C62.7003 406.475 63.0253 406.5 63.3086 406.55C63.6086 406.6 63.8586 406.7 64.0586 406.85C64.2586 407 64.4086 407.208 64.5086 407.475C64.6253 407.725 64.6836 408.058 64.6836 408.475V422.975ZM74.2154 413.825C73.7988 413.825 73.3988 413.892 73.0154 414.025C72.6488 414.158 72.3238 414.358 72.0404 414.625C71.7738 414.875 71.5571 415.192 71.3904 415.575C71.2238 415.958 71.1404 416.408 71.1404 416.925C71.1404 417.958 71.4321 418.733 72.0154 419.25C72.6154 419.767 73.3404 420.025 74.1904 420.025C74.6904 420.025 75.1238 419.967 75.4904 419.85C75.8571 419.733 76.1821 419.608 76.4654 419.475C76.7988 419.708 77.0488 419.967 77.2154 420.25C77.3821 420.517 77.4654 420.842 77.4654 421.225C77.4654 421.908 77.1404 422.442 76.4904 422.825C75.8404 423.192 74.9404 423.375 73.7904 423.375C72.7404 423.375 71.7904 423.225 70.9404 422.925C70.0904 422.608 69.3571 422.175 68.7404 421.625C68.1404 421.058 67.6738 420.383 67.3404 419.6C67.0071 418.817 66.8404 417.95 66.8404 417C66.8404 415.9 67.0154 414.942 67.3654 414.125C67.7321 413.292 68.2238 412.608 68.8404 412.075C69.4571 411.542 70.1654 411.142 70.9654 410.875C71.7821 410.608 72.6404 410.475 73.5404 410.475C74.7404 410.475 75.6654 410.692 76.3154 411.125C76.9654 411.558 77.2904 412.117 77.2904 412.8C77.2904 413.117 77.2154 413.417 77.0654 413.7C76.9154 413.967 76.7404 414.2 76.5404 414.4C76.2571 414.267 75.9154 414.142 75.5154 414.025C75.1154 413.892 74.6821 413.825 74.2154 413.825ZM91.8057 416.925C91.8057 417.958 91.6473 418.883 91.3307 419.7C91.014 420.5 90.564 421.175 89.9807 421.725C89.414 422.275 88.7307 422.692 87.9307 422.975C87.1307 423.258 86.239 423.4 85.2557 423.4C84.2723 423.4 83.3807 423.25 82.5807 422.95C81.7807 422.65 81.089 422.225 80.5057 421.675C79.939 421.108 79.4973 420.425 79.1807 419.625C78.864 418.825 78.7057 417.925 78.7057 416.925C78.7057 415.942 78.864 415.05 79.1807 414.25C79.4973 413.45 79.939 412.775 80.5057 412.225C81.089 411.658 81.7807 411.225 82.5807 410.925C83.3807 410.625 84.2723 410.475 85.2557 410.475C86.239 410.475 87.1307 410.633 87.9307 410.95C88.7307 411.25 89.414 411.683 89.9807 412.25C90.564 412.8 91.014 413.475 91.3307 414.275C91.6473 415.075 91.8057 415.958 91.8057 416.925ZM83.0557 416.925C83.0557 417.942 83.2473 418.725 83.6307 419.275C84.0307 419.808 84.5807 420.075 85.2807 420.075C85.9807 420.075 86.514 419.8 86.8807 419.25C87.264 418.7 87.4557 417.925 87.4557 416.925C87.4557 415.925 87.264 415.158 86.8807 414.625C86.4973 414.075 85.9557 413.8 85.2557 413.8C84.5557 413.8 84.014 414.075 83.6307 414.625C83.2473 415.158 83.0557 415.925 83.0557 416.925ZM99.7041 410.475C100.387 410.475 101.054 410.575 101.704 410.775C102.371 410.958 102.946 411.242 103.429 411.625C103.929 411.292 104.487 411.017 105.104 410.8C105.737 410.583 106.496 410.475 107.379 410.475C108.012 410.475 108.629 410.558 109.229 410.725C109.846 410.892 110.387 411.158 110.854 411.525C111.337 411.875 111.721 412.35 112.004 412.95C112.287 413.533 112.429 414.25 112.429 415.1V422.975C112.262 423.025 111.996 423.075 111.629 423.125C111.279 423.175 110.912 423.2 110.529 423.2C110.162 423.2 109.829 423.175 109.529 423.125C109.246 423.075 109.004 422.975 108.804 422.825C108.604 422.675 108.446 422.475 108.329 422.225C108.229 421.958 108.179 421.617 108.179 421.2V415.225C108.179 414.725 108.037 414.367 107.754 414.15C107.471 413.917 107.087 413.8 106.604 413.8C106.371 413.8 106.121 413.858 105.854 413.975C105.587 414.075 105.387 414.183 105.254 414.3C105.271 414.367 105.279 414.433 105.279 414.5C105.279 414.55 105.279 414.6 105.279 414.65V422.975C105.096 423.025 104.821 423.075 104.454 423.125C104.104 423.175 103.746 423.2 103.379 423.2C103.012 423.2 102.679 423.175 102.379 423.125C102.096 423.075 101.854 422.975 101.654 422.825C101.454 422.675 101.296 422.475 101.179 422.225C101.079 421.958 101.029 421.617 101.029 421.2V415.225C101.029 414.725 100.871 414.367 100.554 414.15C100.254 413.917 99.8874 413.8 99.4541 413.8C99.1541 413.8 98.8958 413.85 98.6791 413.95C98.4624 414.033 98.2791 414.117 98.1291 414.2V422.975C97.9624 423.025 97.6958 423.075 97.3291 423.125C96.9791 423.175 96.6124 423.2 96.2291 423.2C95.8624 423.2 95.5291 423.175 95.2291 423.125C94.9458 423.075 94.7041 422.975 94.5041 422.825C94.3041 422.675 94.1458 422.475 94.0291 422.225C93.9291 421.958 93.8791 421.617 93.8791 421.2V413.65C93.8791 413.2 93.9708 412.842 94.1541 412.575C94.3541 412.308 94.6208 412.058 94.9541 411.825C95.5208 411.425 96.2208 411.1 97.0541 410.85C97.9041 410.6 98.7874 410.475 99.7041 410.475ZM121.447 423.4C120.463 423.4 119.547 423.267 118.697 423C117.863 422.717 117.13 422.3 116.497 421.75C115.88 421.2 115.388 420.508 115.022 419.675C114.672 418.842 114.497 417.867 114.497 416.75C114.497 415.65 114.672 414.708 115.022 413.925C115.388 413.125 115.863 412.475 116.447 411.975C117.03 411.458 117.697 411.083 118.447 410.85C119.197 410.6 119.963 410.475 120.747 410.475C121.63 410.475 122.43 410.608 123.147 410.875C123.88 411.142 124.505 411.508 125.022 411.975C125.555 412.442 125.963 413 126.247 413.65C126.547 414.3 126.697 415.008 126.697 415.775C126.697 416.342 126.538 416.775 126.222 417.075C125.905 417.375 125.463 417.567 124.897 417.65L118.722 418.575C118.905 419.125 119.28 419.542 119.847 419.825C120.413 420.092 121.063 420.225 121.797 420.225C122.48 420.225 123.122 420.142 123.722 419.975C124.338 419.792 124.838 419.583 125.222 419.35C125.488 419.517 125.713 419.75 125.897 420.05C126.08 420.35 126.172 420.667 126.172 421C126.172 421.75 125.822 422.308 125.122 422.675C124.588 422.958 123.988 423.15 123.322 423.25C122.655 423.35 122.03 423.4 121.447 423.4ZM120.747 413.575C120.347 413.575 119.997 413.642 119.697 413.775C119.413 413.908 119.18 414.083 118.997 414.3C118.813 414.5 118.672 414.733 118.572 415C118.488 415.25 118.438 415.508 118.422 415.775L122.697 415.075C122.647 414.742 122.463 414.408 122.147 414.075C121.83 413.742 121.363 413.575 120.747 413.575ZM138.322 419.875C138.556 419.942 138.856 419.992 139.222 420.025C139.589 420.042 139.939 420.05 140.272 420.05C140.939 420.05 141.489 419.917 141.922 419.65C142.372 419.367 142.597 418.933 142.597 418.35C142.597 417.8 142.414 417.408 142.047 417.175C141.681 416.942 141.122 416.825 140.372 416.825H138.322V419.875ZM138.322 413.775H140.147C140.864 413.775 141.381 413.642 141.697 413.375C142.031 413.108 142.197 412.717 142.197 412.2C142.197 411.75 142.006 411.392 141.622 411.125C141.256 410.858 140.697 410.725 139.947 410.725C139.697 410.725 139.406 410.733 139.072 410.75C138.756 410.767 138.506 410.792 138.322 410.825V413.775ZM139.947 423.4C139.664 423.4 139.331 423.392 138.947 423.375C138.564 423.358 138.164 423.325 137.747 423.275C137.347 423.225 136.947 423.158 136.547 423.075C136.147 423.008 135.781 422.908 135.447 422.775C134.531 422.425 134.072 421.817 134.072 420.95V409.275C134.072 408.925 134.164 408.658 134.347 408.475C134.547 408.275 134.814 408.117 135.147 408C135.714 407.8 136.422 407.658 137.272 407.575C138.122 407.475 138.997 407.425 139.897 407.425C142.031 407.425 143.672 407.783 144.822 408.5C145.972 409.217 146.547 410.325 146.547 411.825C146.547 412.575 146.331 413.225 145.897 413.775C145.464 414.308 144.881 414.7 144.147 414.95C144.981 415.183 145.672 415.608 146.222 416.225C146.789 416.842 147.072 417.617 147.072 418.55C147.072 420.2 146.456 421.425 145.222 422.225C144.006 423.008 142.247 423.4 139.947 423.4ZM154.426 420.3C154.709 420.3 155.017 420.275 155.351 420.225C155.701 420.158 155.959 420.075 156.126 419.975V417.975L154.326 418.125C153.859 418.158 153.476 418.258 153.176 418.425C152.876 418.592 152.726 418.842 152.726 419.175C152.726 419.508 152.851 419.783 153.101 420C153.367 420.2 153.809 420.3 154.426 420.3ZM154.226 410.475C155.126 410.475 155.942 410.567 156.676 410.75C157.426 410.933 158.059 411.217 158.576 411.6C159.109 411.967 159.517 412.442 159.801 413.025C160.084 413.592 160.226 414.267 160.226 415.05V420.65C160.226 421.083 160.101 421.442 159.851 421.725C159.617 421.992 159.334 422.225 159.001 422.425C157.917 423.075 156.392 423.4 154.426 423.4C153.542 423.4 152.742 423.317 152.026 423.15C151.326 422.983 150.717 422.733 150.201 422.4C149.701 422.067 149.309 421.642 149.026 421.125C148.759 420.608 148.626 420.008 148.626 419.325C148.626 418.175 148.967 417.292 149.651 416.675C150.334 416.058 151.392 415.675 152.826 415.525L156.101 415.175V415C156.101 414.517 155.884 414.175 155.451 413.975C155.034 413.758 154.426 413.65 153.626 413.65C152.992 413.65 152.376 413.717 151.776 413.85C151.176 413.983 150.634 414.15 150.151 414.35C149.934 414.2 149.751 413.975 149.601 413.675C149.451 413.358 149.376 413.033 149.376 412.7C149.376 412.267 149.476 411.925 149.676 411.675C149.892 411.408 150.217 411.183 150.651 411C151.134 410.817 151.701 410.683 152.351 410.6C153.017 410.517 153.642 410.475 154.226 410.475ZM169.674 413.825C169.258 413.825 168.858 413.892 168.474 414.025C168.108 414.158 167.783 414.358 167.499 414.625C167.233 414.875 167.016 415.192 166.849 415.575C166.683 415.958 166.599 416.408 166.599 416.925C166.599 417.958 166.891 418.733 167.474 419.25C168.074 419.767 168.799 420.025 169.649 420.025C170.149 420.025 170.583 419.967 170.949 419.85C171.316 419.733 171.641 419.608 171.924 419.475C172.258 419.708 172.508 419.967 172.674 420.25C172.841 420.517 172.924 420.842 172.924 421.225C172.924 421.908 172.599 422.442 171.949 422.825C171.299 423.192 170.399 423.375 169.249 423.375C168.199 423.375 167.249 423.225 166.399 422.925C165.549 422.608 164.816 422.175 164.199 421.625C163.599 421.058 163.133 420.383 162.799 419.6C162.466 418.817 162.299 417.95 162.299 417C162.299 415.9 162.474 414.942 162.824 414.125C163.191 413.292 163.683 412.608 164.299 412.075C164.916 411.542 165.624 411.142 166.424 410.875C167.241 410.608 168.099 410.475 168.999 410.475C170.199 410.475 171.124 410.692 171.774 411.125C172.424 411.558 172.749 412.117 172.749 412.8C172.749 413.117 172.674 413.417 172.524 413.7C172.374 413.967 172.199 414.2 171.999 414.4C171.716 414.267 171.374 414.142 170.974 414.025C170.574 413.892 170.141 413.825 169.674 413.825ZM186.931 420.8C186.848 421.583 186.614 422.183 186.231 422.6C185.864 423.017 185.323 423.225 184.606 423.225C184.073 423.225 183.598 423.1 183.181 422.85C182.764 422.583 182.314 422.142 181.831 421.525L179.356 418.425V422.975C179.173 423.008 178.898 423.05 178.531 423.1C178.181 423.167 177.823 423.2 177.456 423.2C177.089 423.2 176.756 423.175 176.456 423.125C176.173 423.075 175.931 422.975 175.731 422.825C175.531 422.675 175.373 422.475 175.256 422.225C175.156 421.958 175.106 421.617 175.106 421.2V406.725C175.289 406.675 175.556 406.625 175.906 406.575C176.273 406.508 176.639 406.475 177.006 406.475C177.373 406.475 177.698 406.5 177.981 406.55C178.281 406.6 178.531 406.7 178.731 406.85C178.931 407 179.081 407.208 179.181 407.475C179.298 407.725 179.356 408.058 179.356 408.475V415.075L183.656 410.675C184.523 410.675 185.214 410.867 185.731 411.25C186.264 411.633 186.531 412.117 186.531 412.7C186.531 412.95 186.489 413.183 186.406 413.4C186.323 413.6 186.189 413.808 186.006 414.025C185.839 414.242 185.614 414.475 185.331 414.725C185.064 414.958 184.748 415.233 184.381 415.55L182.931 416.8L186.931 420.8Z" fill="white"/>
<rect opacity="0.35" x="336.5" y="17.8333" width="21" height="10.3333" rx="2.16667" stroke="white"/>
<path opacity="0.4" d="M359 21V25C359.805 24.6612 360.328 23.8731 360.328 23C360.328 22.1269 359.805 21.3388 359 21Z" fill="white"/>
<rect x="338" y="19.3333" width="18" height="7.33333" rx="1.33333" fill="white"/>
<path fill-rule="evenodd" clip-rule="evenodd" d="M323.33 19.608C325.546 19.6081 327.677 20.4596 329.283 21.9863C329.404 22.1042 329.598 22.1027 329.717 21.983L330.873 20.8163C330.933 20.7556 330.967 20.6734 330.966 20.5878C330.966 20.5022 330.931 20.4204 330.87 20.3603C326.655 16.3208 320.005 16.3208 315.79 20.3603C315.729 20.4203 315.694 20.5021 315.694 20.5877C315.693 20.6733 315.727 20.7556 315.787 20.8163L316.943 21.983C317.062 22.1029 317.256 22.1044 317.377 21.9863C318.983 20.4595 321.114 19.608 323.33 19.608ZM323.33 23.4037C324.548 23.4036 325.722 23.8561 326.624 24.6733C326.746 24.7893 326.939 24.7868 327.058 24.6677L328.212 23.501C328.273 23.4398 328.307 23.3568 328.306 23.2705C328.305 23.1843 328.27 23.102 328.208 23.042C325.459 20.4856 321.204 20.4856 318.455 23.042C318.393 23.102 318.358 23.1843 318.357 23.2706C318.356 23.3569 318.39 23.4399 318.451 23.501L319.605 24.6677C319.724 24.7868 319.917 24.7893 320.039 24.6733C320.941 23.8567 322.114 23.4042 323.33 23.4037ZM325.643 25.9575C325.645 26.044 325.611 26.1274 325.549 26.188L323.552 28.2037C323.493 28.2629 323.414 28.2963 323.33 28.2963C323.247 28.2963 323.167 28.2629 323.109 28.2037L321.111 26.188C321.049 26.1274 321.015 26.0439 321.017 25.9574C321.019 25.8709 321.056 25.789 321.121 25.731C322.396 24.6521 324.264 24.6521 325.54 25.731C325.604 25.7891 325.642 25.871 325.643 25.9575Z" fill="white"/>
<path fill-rule="evenodd" clip-rule="evenodd" d="M309.667 17.6667H308.667C308.114 17.6667 307.667 18.1144 307.667 18.6667V27.3333C307.667 27.8856 308.114 28.3333 308.667 28.3333H309.667C310.219 28.3333 310.667 27.8856 310.667 27.3333V18.6667C310.667 18.1144 310.219 17.6667 309.667 17.6667ZM304 20H305C305.552 20 306 20.4477 306 21V27.3333C306 27.8856 305.552 28.3333 305 28.3333H304C303.448 28.3333 303 27.8856 303 27.3333V21C303 20.4477 303.448 20 304 20ZM300.333 22.3333H299.333C298.781 22.3333 298.333 22.781 298.333 23.3333V27.3333C298.333 27.8856 298.781 28.3333 299.333 28.3333H300.333C300.886 28.3333 301.333 27.8856 301.333 27.3333V23.3333C301.333 22.781 300.886 22.3333 300.333 22.3333ZM295.667 24.3333H294.667C294.114 24.3333 293.667 24.781 293.667 25.3333V27.3333C293.667 27.8856 294.114 28.3333 294.667 28.3333H295.667C296.219 28.3333 296.667 27.8856 296.667 27.3333V25.3333C296.667 24.781 296.219 24.3333 295.667 24.3333Z" fill="white"/>
<path d="M37.3124 29.3L39.2864 26.528L39.2024 26.444C38.9877 26.5373 38.745 26.584 38.4744 26.584C37.989 26.584 37.5224 26.4533 37.0744 26.192C36.6357 25.9213 36.2764 25.548 35.9964 25.072C35.7257 24.596 35.5904 24.064 35.5904 23.476C35.5904 22.86 35.7444 22.3 36.0524 21.796C36.3697 21.292 36.785 20.9 37.2984 20.62C37.821 20.34 38.3764 20.2 38.9644 20.2C39.6364 20.2 40.2337 20.354 40.7564 20.662C41.279 20.9607 41.685 21.3667 41.9744 21.88C42.2637 22.3933 42.4084 22.9487 42.4084 23.546C42.4084 24.1433 42.2917 24.7033 42.0584 25.226C41.8344 25.7487 41.4984 26.3273 41.0504 26.962L38.7404 30.28L37.3124 29.3ZM39.0064 25.058C39.4357 25.058 39.809 24.9087 40.1264 24.61C40.453 24.302 40.6164 23.9193 40.6164 23.462C40.6164 23.0047 40.453 22.6267 40.1264 22.328C39.809 22.0293 39.4357 21.88 39.0064 21.88C38.5677 21.88 38.185 22.0293 37.8584 22.328C37.541 22.6267 37.3824 23.0047 37.3824 23.462C37.3824 23.9193 37.541 24.302 37.8584 24.61C38.185 24.9087 38.5677 25.058 39.0064 25.058ZM44.7758 25.114C44.4398 25.114 44.1505 24.9973 43.9078 24.764C43.6745 24.5213 43.5578 24.232 43.5578 23.896C43.5578 23.56 43.6745 23.2753 43.9078 23.042C44.1505 22.8087 44.4398 22.692 44.7758 22.692C45.1118 22.692 45.3965 22.8087 45.6298 23.042C45.8725 23.2753 45.9938 23.56 45.9938 23.896C45.9938 24.232 45.8725 24.5213 45.6298 24.764C45.3965 24.9973 45.1118 25.114 44.7758 25.114ZM44.7758 30.084C44.4398 30.084 44.1505 29.9673 43.9078 29.734C43.6745 29.4913 43.5578 29.202 43.5578 28.866C43.5578 28.53 43.6745 28.2453 43.9078 28.012C44.1505 27.7787 44.4398 27.662 44.7758 27.662C45.1118 27.662 45.3965 27.7787 45.6298 28.012C45.8725 28.2453 45.9938 28.53 45.9938 28.866C45.9938 29.202 45.8725 29.4913 45.6298 29.734C45.3965 29.9673 45.1118 30.084 44.7758 30.084ZM51.5536 28.236H47.1436V26.752L51.3996 20.424H53.3876V26.528H54.5776V28.236H53.3876V30H51.5536V28.236ZM51.5536 26.528V23.154H51.4416L49.1736 26.528H51.5536ZM57.9933 22.818L56.5513 23.868L55.6273 22.454L58.4413 20.424H59.8273V30H57.9933V22.818Z" fill="white"/>
</g>
<defs>
<clipPath id="clip0_8_7802">
<rect width="375" height="812" rx="24" fill="white"/>
</clipPath>
<clipPath id="clip1_8_7802">
<rect width="20.7407" height="20.7407" fill="white" transform="translate(30.4814 75.4815)"/>
</clipPath>
<clipPath id="clip2_8_7802">
<rect width="174" height="302" fill="white" transform="matrix(0 1 1 0 24 199)"/>
</clipPath>
<clipPath id="clip3_8_7802">
<rect width="64" height="153" fill="white" transform="matrix(0 -1 1 0 173 196)"/>
</clipPath>
</defs>
</svg>
