<svg width="462" height="480" viewBox="0 0 462 480" fill="none" xmlns="http://www.w3.org/2000/svg">
<g filter="url(#filter0_d_151_4110)">
<rect x="7" y="4" width="448" height="466" rx="12" fill="white"/>
<rect x="79" y="51" width="127" height="1" fill="#3498FF"/>
<circle cx="54" cy="51" r="14.5" stroke="#3498FF"/>
<path d="M59.3694 46.7621C59.5353 46.5864 59.8122 46.5785 59.9879 46.7444C60.144 46.8919 60.1676 47.1271 60.0544 47.3009L60.0056 47.3629L52.5681 55.2379C52.4121 55.4031 52.1603 55.4186 51.9861 55.2866L51.9248 55.2302L47.9873 50.8552C47.8257 50.6756 47.8402 50.3989 48.0198 50.2373C48.1795 50.0936 48.4158 50.0892 48.5798 50.2161L48.6377 50.2698L52.257 54.2918L59.3694 46.7621Z" fill="#3498FF"/>
<rect x="256" y="51" width="127" height="1" fill="#C5C6C7"/>
<circle cx="231" cy="51" r="15" fill="#3498FF"/>
<path d="M234.731 57H227.403V55.624L231.051 52.264C231.574 51.784 232.011 51.2773 232.363 50.744C232.715 50.2 232.891 49.656 232.891 49.112V48.92C232.891 48.3013 232.72 47.8 232.379 47.416C232.038 47.032 231.52 46.84 230.827 46.84C230.486 46.84 230.187 46.888 229.931 46.984C229.675 47.08 229.451 47.2133 229.259 47.384C229.078 47.5547 228.923 47.7573 228.795 47.992C228.678 48.216 228.582 48.4613 228.507 48.728L227.307 48.264C227.414 47.9333 227.558 47.6133 227.739 47.304C227.931 46.984 228.166 46.7013 228.443 46.456C228.731 46.2107 229.072 46.0133 229.467 45.864C229.872 45.7147 230.347 45.64 230.891 45.64C231.435 45.64 231.92 45.72 232.347 45.88C232.774 46.04 233.131 46.264 233.419 46.552C233.707 46.84 233.926 47.1813 234.075 47.576C234.235 47.9707 234.315 48.408 234.315 48.888C234.315 49.3253 234.251 49.7307 234.123 50.104C234.006 50.4773 233.84 50.8347 233.627 51.176C233.414 51.5067 233.152 51.832 232.843 52.152C232.544 52.472 232.219 52.792 231.867 53.112L228.859 55.816H234.731V57Z" fill="white"/>
<circle cx="408" cy="51" r="14.5" stroke="#8E8E93"/>
<path d="M407.379 50.568C408.136 50.568 408.702 50.3973 409.075 50.056C409.459 49.704 409.651 49.256 409.651 48.712V48.6C409.651 48.0133 409.464 47.576 409.091 47.288C408.728 46.9893 408.248 46.84 407.651 46.84C407.075 46.84 406.606 46.968 406.243 47.224C405.88 47.4693 405.582 47.8053 405.347 48.232L404.355 47.464C404.494 47.24 404.659 47.0213 404.851 46.808C405.054 46.584 405.288 46.3867 405.555 46.216C405.822 46.0453 406.131 45.9067 406.483 45.8C406.835 45.6933 407.235 45.64 407.683 45.64C408.152 45.64 408.595 45.704 409.011 45.832C409.427 45.9493 409.784 46.1307 410.083 46.376C410.392 46.6107 410.632 46.904 410.803 47.256C410.984 47.608 411.075 48.008 411.075 48.456C411.075 48.8187 411.016 49.144 410.899 49.432C410.792 49.72 410.643 49.9707 410.451 50.184C410.259 50.3973 410.03 50.5787 409.763 50.728C409.507 50.8773 409.23 50.9893 408.931 51.064V51.128C409.23 51.192 409.518 51.2987 409.795 51.448C410.083 51.5867 410.334 51.7733 410.547 52.008C410.771 52.232 410.947 52.5093 411.075 52.84C411.214 53.16 411.283 53.528 411.283 53.944C411.283 54.424 411.192 54.8667 411.011 55.272C410.83 55.6667 410.574 56.008 410.243 56.296C409.912 56.5733 409.512 56.792 409.043 56.952C408.574 57.112 408.056 57.192 407.491 57.192C407.011 57.192 406.584 57.1387 406.211 57.032C405.838 56.9253 405.507 56.7813 405.219 56.6C404.931 56.4187 404.675 56.216 404.451 55.992C404.238 55.768 404.046 55.5333 403.875 55.288L404.883 54.52C405.022 54.744 405.171 54.9467 405.331 55.128C405.502 55.3093 405.688 55.464 405.891 55.592C406.094 55.72 406.323 55.8213 406.579 55.896C406.835 55.96 407.134 55.992 407.475 55.992C408.264 55.992 408.862 55.816 409.267 55.464C409.672 55.1013 409.875 54.5893 409.875 53.928V53.8C409.875 53.1387 409.672 52.632 409.267 52.28C408.862 51.9173 408.264 51.736 407.475 51.736H406.163V50.568H407.379Z" fill="#8E8E93"/>
<path d="M137.156 119V99.456H150.12V103.236H141.412V107.24H148.832V110.992H141.412V119H137.156ZM155.383 102.732C154.543 102.732 153.927 102.545 153.535 102.172C153.162 101.78 152.975 101.285 152.975 100.688V100.072C152.975 99.4747 153.162 98.9893 153.535 98.616C153.927 98.224 154.543 98.028 155.383 98.028C156.223 98.028 156.83 98.224 157.203 98.616C157.595 98.9893 157.791 99.4747 157.791 100.072V100.688C157.791 101.285 157.595 101.78 157.203 102.172C156.83 102.545 156.223 102.732 155.383 102.732ZM153.311 104.3H157.455V119H153.311V104.3ZM165.439 119C164.02 119 162.975 118.655 162.303 117.964C161.649 117.273 161.323 116.275 161.323 114.968V98.28H165.467V115.78H167.315V119H165.439ZM173.696 119C172.278 119 171.232 118.655 170.56 117.964C169.907 117.273 169.58 116.275 169.58 114.968V98.28H173.724V115.78H175.572V119H173.696ZM186.746 102.732C185.906 102.732 185.29 102.545 184.898 102.172C184.525 101.78 184.338 101.285 184.338 100.688V100.072C184.338 99.4747 184.525 98.9893 184.898 98.616C185.29 98.224 185.906 98.028 186.746 98.028C187.586 98.028 188.193 98.224 188.566 98.616C188.958 98.9893 189.154 99.4747 189.154 100.072V100.688C189.154 101.285 188.958 101.78 188.566 102.172C188.193 102.545 187.586 102.732 186.746 102.732ZM184.674 104.3H188.818V119H184.674V104.3ZM192.686 119V104.3H196.83V106.792H196.998C197.259 106.027 197.717 105.364 198.37 104.804C199.023 104.244 199.929 103.964 201.086 103.964C202.598 103.964 203.737 104.468 204.502 105.476C205.286 106.484 205.678 107.921 205.678 109.788V119H201.534V110.124C201.534 109.172 201.385 108.472 201.086 108.024C200.787 107.557 200.255 107.324 199.49 107.324C199.154 107.324 198.827 107.371 198.51 107.464C198.193 107.539 197.903 107.669 197.642 107.856C197.399 108.043 197.203 108.276 197.054 108.556C196.905 108.817 196.83 109.125 196.83 109.48V119H192.686ZM221.135 119C219.697 119 218.605 118.636 217.859 117.908C217.131 117.18 216.767 116.116 216.767 114.716V107.52H214.695V104.3H215.731C216.291 104.3 216.673 104.169 216.879 103.908C217.084 103.628 217.187 103.236 217.187 102.732V100.324H220.911V104.3H223.823V107.52H220.911V115.78H223.599V119H221.135ZM226.702 98.28H230.846V106.792H231.014C231.275 106.027 231.732 105.364 232.386 104.804C233.039 104.244 233.944 103.964 235.102 103.964C236.614 103.964 237.752 104.468 238.518 105.476C239.302 106.484 239.694 107.921 239.694 109.788V119H235.55V110.124C235.55 109.172 235.4 108.472 235.102 108.024C234.803 107.557 234.271 107.324 233.506 107.324C233.17 107.324 232.843 107.371 232.526 107.464C232.208 107.539 231.919 107.669 231.658 107.856C231.415 108.043 231.219 108.276 231.07 108.556C230.92 108.817 230.846 109.125 230.846 109.48V119H226.702V98.28ZM249.513 119.336C248.393 119.336 247.395 119.159 246.517 118.804C245.64 118.431 244.893 117.917 244.277 117.264C243.68 116.592 243.223 115.78 242.905 114.828C242.607 113.876 242.457 112.812 242.457 111.636C242.457 110.479 242.607 109.433 242.905 108.5C243.204 107.548 243.643 106.736 244.221 106.064C244.819 105.392 245.547 104.879 246.405 104.524C247.264 104.151 248.244 103.964 249.345 103.964C250.559 103.964 251.595 104.169 252.453 104.58C253.331 104.991 254.04 105.541 254.581 106.232C255.141 106.923 255.543 107.725 255.785 108.64C256.047 109.536 256.177 110.479 256.177 111.468V112.7H246.741V112.924C246.741 113.895 247.003 114.669 247.525 115.248C248.048 115.808 248.869 116.088 249.989 116.088C250.848 116.088 251.548 115.92 252.089 115.584C252.631 115.229 253.135 114.809 253.601 114.324L255.673 116.9C255.02 117.665 254.161 118.263 253.097 118.692C252.052 119.121 250.857 119.336 249.513 119.336ZM249.429 107.016C248.589 107.016 247.927 107.296 247.441 107.856C246.975 108.397 246.741 109.125 246.741 110.04V110.264H251.893V110.012C251.893 109.116 251.688 108.397 251.277 107.856C250.885 107.296 250.269 107.016 249.429 107.016ZM271.657 119.336C270.556 119.336 269.576 119.159 268.717 118.804C267.858 118.431 267.14 117.917 266.561 117.264C265.982 116.592 265.544 115.78 265.245 114.828C264.946 113.876 264.797 112.812 264.797 111.636C264.797 110.46 264.946 109.405 265.245 108.472C265.544 107.52 265.982 106.708 266.561 106.036C267.14 105.364 267.858 104.851 268.717 104.496C269.576 104.141 270.556 103.964 271.657 103.964C273.15 103.964 274.392 104.3 275.381 104.972C276.389 105.644 277.108 106.587 277.537 107.8L274.177 109.256C274.046 108.696 273.776 108.22 273.365 107.828C272.954 107.436 272.385 107.24 271.657 107.24C270.817 107.24 270.182 107.52 269.753 108.08C269.324 108.621 269.109 109.359 269.109 110.292V113.036C269.109 113.969 269.324 114.707 269.753 115.248C270.182 115.789 270.817 116.06 271.657 116.06C272.404 116.06 272.992 115.864 273.421 115.472C273.869 115.061 274.196 114.529 274.401 113.876L277.621 115.276C277.136 116.676 276.38 117.703 275.353 118.356C274.345 119.009 273.113 119.336 271.657 119.336ZM286.013 119.336C284.931 119.336 283.96 119.159 283.101 118.804C282.261 118.449 281.543 117.936 280.945 117.264C280.367 116.592 279.919 115.78 279.601 114.828C279.284 113.876 279.125 112.812 279.125 111.636C279.125 110.46 279.284 109.396 279.601 108.444C279.919 107.492 280.367 106.689 280.945 106.036C281.543 105.364 282.261 104.851 283.101 104.496C283.96 104.141 284.931 103.964 286.013 103.964C287.096 103.964 288.057 104.141 288.897 104.496C289.756 104.851 290.475 105.364 291.053 106.036C291.651 106.689 292.108 107.492 292.425 108.444C292.743 109.396 292.901 110.46 292.901 111.636C292.901 112.812 292.743 113.876 292.425 114.828C292.108 115.78 291.651 116.592 291.053 117.264C290.475 117.936 289.756 118.449 288.897 118.804C288.057 119.159 287.096 119.336 286.013 119.336ZM286.013 116.06C286.835 116.06 287.469 115.808 287.917 115.304C288.365 114.8 288.589 114.081 288.589 113.148V110.152C288.589 109.219 288.365 108.5 287.917 107.996C287.469 107.492 286.835 107.24 286.013 107.24C285.192 107.24 284.557 107.492 284.109 107.996C283.661 108.5 283.437 109.219 283.437 110.152V113.148C283.437 114.081 283.661 114.8 284.109 115.304C284.557 115.808 285.192 116.06 286.013 116.06ZM304.87 116.536H304.73C304.618 116.928 304.441 117.301 304.198 117.656C303.955 117.992 303.657 118.291 303.302 118.552C302.966 118.795 302.574 118.981 302.126 119.112C301.697 119.261 301.249 119.336 300.782 119.336C298.915 119.336 297.506 118.683 296.554 117.376C295.602 116.051 295.126 114.137 295.126 111.636C295.126 109.135 295.602 107.231 296.554 105.924C297.506 104.617 298.915 103.964 300.782 103.964C301.734 103.964 302.574 104.225 303.302 104.748C304.049 105.271 304.525 105.943 304.73 106.764H304.87V98.28H309.014V119H304.87V116.536ZM302.154 115.976C302.938 115.976 303.582 115.789 304.086 115.416C304.609 115.024 304.87 114.492 304.87 113.82V109.48C304.87 108.808 304.609 108.285 304.086 107.912C303.582 107.52 302.938 107.324 302.154 107.324C301.37 107.324 300.717 107.604 300.194 108.164C299.69 108.705 299.438 109.443 299.438 110.376V112.924C299.438 113.857 299.69 114.604 300.194 115.164C300.717 115.705 301.37 115.976 302.154 115.976ZM319.021 119.336C317.901 119.336 316.902 119.159 316.025 118.804C315.148 118.431 314.401 117.917 313.785 117.264C313.188 116.592 312.73 115.78 312.413 114.828C312.114 113.876 311.965 112.812 311.965 111.636C311.965 110.479 312.114 109.433 312.413 108.5C312.712 107.548 313.15 106.736 313.729 106.064C314.326 105.392 315.054 104.879 315.913 104.524C316.772 104.151 317.752 103.964 318.853 103.964C320.066 103.964 321.102 104.169 321.961 104.58C322.838 104.991 323.548 105.541 324.089 106.232C324.649 106.923 325.05 107.725 325.293 108.64C325.554 109.536 325.685 110.479 325.685 111.468V112.7H316.249V112.924C316.249 113.895 316.51 114.669 317.033 115.248C317.556 115.808 318.377 116.088 319.497 116.088C320.356 116.088 321.056 115.92 321.597 115.584C322.138 115.229 322.642 114.809 323.109 114.324L325.181 116.9C324.528 117.665 323.669 118.263 322.605 118.692C321.56 119.121 320.365 119.336 319.021 119.336ZM318.937 107.016C318.097 107.016 317.434 107.296 316.949 107.856C316.482 108.397 316.249 109.125 316.249 110.04V110.264H321.401V110.012C321.401 109.116 321.196 108.397 320.785 107.856C320.393 107.296 319.777 107.016 318.937 107.016Z" fill="#272C36"/>
<rect x="39" y="150" width="48" height="56" rx="4" fill="#F7F7FA"/>
<path d="M61.764 177.352C62.9 177.352 63.748 177.096 64.308 176.584C64.884 176.056 65.172 175.384 65.172 174.568V174.4C65.172 173.52 64.892 172.864 64.332 172.432C63.788 171.984 63.068 171.76 62.172 171.76C61.308 171.76 60.604 171.952 60.06 172.336C59.516 172.704 59.068 173.208 58.716 173.848L57.228 172.696C57.436 172.36 57.684 172.032 57.972 171.712C58.276 171.376 58.628 171.08 59.028 170.824C59.428 170.568 59.892 170.36 60.42 170.2C60.948 170.04 61.548 169.96 62.22 169.96C62.924 169.96 63.588 170.056 64.212 170.248C64.836 170.424 65.372 170.696 65.82 171.064C66.284 171.416 66.644 171.856 66.9 172.384C67.172 172.912 67.308 173.512 67.308 174.184C67.308 174.728 67.22 175.216 67.044 175.648C66.884 176.08 66.66 176.456 66.372 176.776C66.084 177.096 65.74 177.368 65.34 177.592C64.956 177.816 64.54 177.984 64.092 178.096V178.192C64.54 178.288 64.972 178.448 65.388 178.672C65.82 178.88 66.196 179.16 66.516 179.512C66.852 179.848 67.116 180.264 67.308 180.76C67.516 181.24 67.62 181.792 67.62 182.416C67.62 183.136 67.484 183.8 67.212 184.408C66.94 185 66.556 185.512 66.06 185.944C65.564 186.36 64.964 186.688 64.26 186.928C63.556 187.168 62.78 187.288 61.932 187.288C61.212 187.288 60.572 187.208 60.012 187.048C59.452 186.888 58.956 186.672 58.524 186.4C58.092 186.128 57.708 185.824 57.372 185.488C57.052 185.152 56.764 184.8 56.508 184.432L58.02 183.28C58.228 183.616 58.452 183.92 58.692 184.192C58.948 184.464 59.228 184.696 59.532 184.888C59.836 185.08 60.18 185.232 60.564 185.344C60.948 185.44 61.396 185.488 61.908 185.488C63.092 185.488 63.988 185.224 64.596 184.696C65.204 184.152 65.508 183.384 65.508 182.392V182.2C65.508 181.208 65.204 180.448 64.596 179.92C63.988 179.376 63.092 179.104 61.908 179.104H59.94V177.352H61.764Z" fill="#575757"/>
<rect x="95" y="150" width="48" height="56" rx="4" fill="#F7F7FA"/>
<path d="M117.764 177.352C118.9 177.352 119.748 177.096 120.308 176.584C120.884 176.056 121.172 175.384 121.172 174.568V174.4C121.172 173.52 120.892 172.864 120.332 172.432C119.788 171.984 119.068 171.76 118.172 171.76C117.308 171.76 116.604 171.952 116.06 172.336C115.516 172.704 115.068 173.208 114.716 173.848L113.228 172.696C113.436 172.36 113.684 172.032 113.972 171.712C114.276 171.376 114.628 171.08 115.028 170.824C115.428 170.568 115.892 170.36 116.42 170.2C116.948 170.04 117.548 169.96 118.22 169.96C118.924 169.96 119.588 170.056 120.212 170.248C120.836 170.424 121.372 170.696 121.82 171.064C122.284 171.416 122.644 171.856 122.9 172.384C123.172 172.912 123.308 173.512 123.308 174.184C123.308 174.728 123.22 175.216 123.044 175.648C122.884 176.08 122.66 176.456 122.372 176.776C122.084 177.096 121.74 177.368 121.34 177.592C120.956 177.816 120.54 177.984 120.092 178.096V178.192C120.54 178.288 120.972 178.448 121.388 178.672C121.82 178.88 122.196 179.16 122.516 179.512C122.852 179.848 123.116 180.264 123.308 180.76C123.516 181.24 123.62 181.792 123.62 182.416C123.62 183.136 123.484 183.8 123.212 184.408C122.94 185 122.556 185.512 122.06 185.944C121.564 186.36 120.964 186.688 120.26 186.928C119.556 187.168 118.78 187.288 117.932 187.288C117.212 187.288 116.572 187.208 116.012 187.048C115.452 186.888 114.956 186.672 114.524 186.4C114.092 186.128 113.708 185.824 113.372 185.488C113.052 185.152 112.764 184.8 112.508 184.432L114.02 183.28C114.228 183.616 114.452 183.92 114.692 184.192C114.948 184.464 115.228 184.696 115.532 184.888C115.836 185.08 116.18 185.232 116.564 185.344C116.948 185.44 117.396 185.488 117.908 185.488C119.092 185.488 119.988 185.224 120.596 184.696C121.204 184.152 121.508 183.384 121.508 182.392V182.2C121.508 181.208 121.204 180.448 120.596 179.92C119.988 179.376 119.092 179.104 117.908 179.104H115.94V177.352H117.764Z" fill="#575757"/>
<rect x="151" y="150" width="48" height="56" rx="4" fill="#F7F7FA"/>
<path d="M173.764 177.352C174.9 177.352 175.748 177.096 176.308 176.584C176.884 176.056 177.172 175.384 177.172 174.568V174.4C177.172 173.52 176.892 172.864 176.332 172.432C175.788 171.984 175.068 171.76 174.172 171.76C173.308 171.76 172.604 171.952 172.06 172.336C171.516 172.704 171.068 173.208 170.716 173.848L169.228 172.696C169.436 172.36 169.684 172.032 169.972 171.712C170.276 171.376 170.628 171.08 171.028 170.824C171.428 170.568 171.892 170.36 172.42 170.2C172.948 170.04 173.548 169.96 174.22 169.96C174.924 169.96 175.588 170.056 176.212 170.248C176.836 170.424 177.372 170.696 177.82 171.064C178.284 171.416 178.644 171.856 178.9 172.384C179.172 172.912 179.308 173.512 179.308 174.184C179.308 174.728 179.22 175.216 179.044 175.648C178.884 176.08 178.66 176.456 178.372 176.776C178.084 177.096 177.74 177.368 177.34 177.592C176.956 177.816 176.54 177.984 176.092 178.096V178.192C176.54 178.288 176.972 178.448 177.388 178.672C177.82 178.88 178.196 179.16 178.516 179.512C178.852 179.848 179.116 180.264 179.308 180.76C179.516 181.24 179.62 181.792 179.62 182.416C179.62 183.136 179.484 183.8 179.212 184.408C178.94 185 178.556 185.512 178.06 185.944C177.564 186.36 176.964 186.688 176.26 186.928C175.556 187.168 174.78 187.288 173.932 187.288C173.212 187.288 172.572 187.208 172.012 187.048C171.452 186.888 170.956 186.672 170.524 186.4C170.092 186.128 169.708 185.824 169.372 185.488C169.052 185.152 168.764 184.8 168.508 184.432L170.02 183.28C170.228 183.616 170.452 183.92 170.692 184.192C170.948 184.464 171.228 184.696 171.532 184.888C171.836 185.08 172.18 185.232 172.564 185.344C172.948 185.44 173.396 185.488 173.908 185.488C175.092 185.488 175.988 185.224 176.596 184.696C177.204 184.152 177.508 183.384 177.508 182.392V182.2C177.508 181.208 177.204 180.448 176.596 179.92C175.988 179.376 175.092 179.104 173.908 179.104H171.94V177.352H173.764Z" fill="#575757"/>
<path d="M227.656 180.736V178.672H233.92V180.736H227.656Z" fill="#575757"/>
<rect x="263" y="150" width="48" height="56" rx="4" fill="#F7F7FA"/>
<path d="M285.764 177.352C286.9 177.352 287.748 177.096 288.308 176.584C288.884 176.056 289.172 175.384 289.172 174.568V174.4C289.172 173.52 288.892 172.864 288.332 172.432C287.788 171.984 287.068 171.76 286.172 171.76C285.308 171.76 284.604 171.952 284.06 172.336C283.516 172.704 283.068 173.208 282.716 173.848L281.228 172.696C281.436 172.36 281.684 172.032 281.972 171.712C282.276 171.376 282.628 171.08 283.028 170.824C283.428 170.568 283.892 170.36 284.42 170.2C284.948 170.04 285.548 169.96 286.22 169.96C286.924 169.96 287.588 170.056 288.212 170.248C288.836 170.424 289.372 170.696 289.82 171.064C290.284 171.416 290.644 171.856 290.9 172.384C291.172 172.912 291.308 173.512 291.308 174.184C291.308 174.728 291.22 175.216 291.044 175.648C290.884 176.08 290.66 176.456 290.372 176.776C290.084 177.096 289.74 177.368 289.34 177.592C288.956 177.816 288.54 177.984 288.092 178.096V178.192C288.54 178.288 288.972 178.448 289.388 178.672C289.82 178.88 290.196 179.16 290.516 179.512C290.852 179.848 291.116 180.264 291.308 180.76C291.516 181.24 291.62 181.792 291.62 182.416C291.62 183.136 291.484 183.8 291.212 184.408C290.94 185 290.556 185.512 290.06 185.944C289.564 186.36 288.964 186.688 288.26 186.928C287.556 187.168 286.78 187.288 285.932 187.288C285.212 187.288 284.572 187.208 284.012 187.048C283.452 186.888 282.956 186.672 282.524 186.4C282.092 186.128 281.708 185.824 281.372 185.488C281.052 185.152 280.764 184.8 280.508 184.432L282.02 183.28C282.228 183.616 282.452 183.92 282.692 184.192C282.948 184.464 283.228 184.696 283.532 184.888C283.836 185.08 284.18 185.232 284.564 185.344C284.948 185.44 285.396 185.488 285.908 185.488C287.092 185.488 287.988 185.224 288.596 184.696C289.204 184.152 289.508 183.384 289.508 182.392V182.2C289.508 181.208 289.204 180.448 288.596 179.92C287.988 179.376 287.092 179.104 285.908 179.104H283.94V177.352H285.764Z" fill="#575757"/>
<rect x="319" y="150" width="48" height="56" rx="4" fill="#F7F7FA"/>
<path d="M341.764 177.352C342.9 177.352 343.748 177.096 344.308 176.584C344.884 176.056 345.172 175.384 345.172 174.568V174.4C345.172 173.52 344.892 172.864 344.332 172.432C343.788 171.984 343.068 171.76 342.172 171.76C341.308 171.76 340.604 171.952 340.06 172.336C339.516 172.704 339.068 173.208 338.716 173.848L337.228 172.696C337.436 172.36 337.684 172.032 337.972 171.712C338.276 171.376 338.628 171.08 339.028 170.824C339.428 170.568 339.892 170.36 340.42 170.2C340.948 170.04 341.548 169.96 342.22 169.96C342.924 169.96 343.588 170.056 344.212 170.248C344.836 170.424 345.372 170.696 345.82 171.064C346.284 171.416 346.644 171.856 346.9 172.384C347.172 172.912 347.308 173.512 347.308 174.184C347.308 174.728 347.22 175.216 347.044 175.648C346.884 176.08 346.66 176.456 346.372 176.776C346.084 177.096 345.74 177.368 345.34 177.592C344.956 177.816 344.54 177.984 344.092 178.096V178.192C344.54 178.288 344.972 178.448 345.388 178.672C345.82 178.88 346.196 179.16 346.516 179.512C346.852 179.848 347.116 180.264 347.308 180.76C347.516 181.24 347.62 181.792 347.62 182.416C347.62 183.136 347.484 183.8 347.212 184.408C346.94 185 346.556 185.512 346.06 185.944C345.564 186.36 344.964 186.688 344.26 186.928C343.556 187.168 342.78 187.288 341.932 187.288C341.212 187.288 340.572 187.208 340.012 187.048C339.452 186.888 338.956 186.672 338.524 186.4C338.092 186.128 337.708 185.824 337.372 185.488C337.052 185.152 336.764 184.8 336.508 184.432L338.02 183.28C338.228 183.616 338.452 183.92 338.692 184.192C338.948 184.464 339.228 184.696 339.532 184.888C339.836 185.08 340.18 185.232 340.564 185.344C340.948 185.44 341.396 185.488 341.908 185.488C343.092 185.488 343.988 185.224 344.596 184.696C345.204 184.152 345.508 183.384 345.508 182.392V182.2C345.508 181.208 345.204 180.448 344.596 179.92C343.988 179.376 343.092 179.104 341.908 179.104H339.94V177.352H341.764Z" fill="#575757"/>
<rect x="375" y="150" width="48" height="56" rx="4" fill="#F7F7FA"/>
<path d="M397.764 177.352C398.9 177.352 399.748 177.096 400.308 176.584C400.884 176.056 401.172 175.384 401.172 174.568V174.4C401.172 173.52 400.892 172.864 400.332 172.432C399.788 171.984 399.068 171.76 398.172 171.76C397.308 171.76 396.604 171.952 396.06 172.336C395.516 172.704 395.068 173.208 394.716 173.848L393.228 172.696C393.436 172.36 393.684 172.032 393.972 171.712C394.276 171.376 394.628 171.08 395.028 170.824C395.428 170.568 395.892 170.36 396.42 170.2C396.948 170.04 397.548 169.96 398.22 169.96C398.924 169.96 399.588 170.056 400.212 170.248C400.836 170.424 401.372 170.696 401.82 171.064C402.284 171.416 402.644 171.856 402.9 172.384C403.172 172.912 403.308 173.512 403.308 174.184C403.308 174.728 403.22 175.216 403.044 175.648C402.884 176.08 402.66 176.456 402.372 176.776C402.084 177.096 401.74 177.368 401.34 177.592C400.956 177.816 400.54 177.984 400.092 178.096V178.192C400.54 178.288 400.972 178.448 401.388 178.672C401.82 178.88 402.196 179.16 402.516 179.512C402.852 179.848 403.116 180.264 403.308 180.76C403.516 181.24 403.62 181.792 403.62 182.416C403.62 183.136 403.484 183.8 403.212 184.408C402.94 185 402.556 185.512 402.06 185.944C401.564 186.36 400.964 186.688 400.26 186.928C399.556 187.168 398.78 187.288 397.932 187.288C397.212 187.288 396.572 187.208 396.012 187.048C395.452 186.888 394.956 186.672 394.524 186.4C394.092 186.128 393.708 185.824 393.372 185.488C393.052 185.152 392.764 184.8 392.508 184.432L394.02 183.28C394.228 183.616 394.452 183.92 394.692 184.192C394.948 184.464 395.228 184.696 395.532 184.888C395.836 185.08 396.18 185.232 396.564 185.344C396.948 185.44 397.396 185.488 397.908 185.488C399.092 185.488 399.988 185.224 400.596 184.696C401.204 184.152 401.508 183.384 401.508 182.392V182.2C401.508 181.208 401.204 180.448 400.596 179.92C399.988 179.376 399.092 179.104 397.908 179.104H395.94V177.352H397.764Z" fill="#575757"/>
<rect x="39.5" y="230.5" width="383" height="55" rx="5.5" fill="#F7F7FA"/>
<rect x="39.5" y="230.5" width="383" height="55" rx="5.5" stroke="#D9D9D9"/>
<g clip-path="url(#clip0_151_4110)">
<path d="M165.5 252H163.95C163.691 250.859 162.709 250 161.5 250C160.291 250 159.281 250.859 159.05 252H157.5C156.395 252 155.5 252.896 155.5 254V264C155.5 265.104 156.395 266 157.5 266H165.5C166.605 266 167.5 265.104 167.5 264V254C167.5 252.896 166.603 252 165.5 252ZM161.5 251.5C161.913 251.5 162.25 251.837 162.25 252.25C162.25 252.663 161.912 253 161.5 253C161.088 253 160.75 252.663 160.75 252.25C160.75 251.837 161.088 251.5 161.5 251.5ZM166 264C166 264.276 165.776 264.5 165.5 264.5H157.5C157.224 264.5 157 264.276 157 264V254C157 253.724 157.224 253.5 157.5 253.5H158.071C158.029 253.659 158 253.825 158 254V254.5C158 254.775 158.224 255 158.5 255H164.5C164.776 255 165 254.776 165 254.5V254C165 253.826 164.971 253.661 164.929 253.5H165.5C165.776 253.5 166 253.724 166 254V264Z" fill="#575757"/>
</g>
<path d="M180.802 263V253.228H184.694C185.571 253.228 186.243 253.48 186.71 253.984C187.186 254.479 187.424 255.16 187.424 256.028C187.424 256.896 187.186 257.582 186.71 258.086C186.243 258.581 185.571 258.828 184.694 258.828H181.978V263H180.802ZM181.978 257.792H184.694C185.161 257.792 185.52 257.671 185.772 257.428C186.033 257.185 186.164 256.84 186.164 256.392V255.664C186.164 255.216 186.033 254.871 185.772 254.628C185.52 254.385 185.161 254.264 184.694 254.264H181.978V257.792ZM194.294 263C193.874 263 193.57 262.888 193.384 262.664C193.206 262.44 193.094 262.16 193.048 261.824H192.978C192.819 262.272 192.558 262.608 192.194 262.832C191.83 263.056 191.396 263.168 190.892 263.168C190.126 263.168 189.529 262.972 189.1 262.58C188.68 262.188 188.47 261.656 188.47 260.984C188.47 260.303 188.717 259.78 189.212 259.416C189.716 259.052 190.495 258.87 191.55 258.87H192.978V258.156C192.978 257.643 192.838 257.251 192.558 256.98C192.278 256.709 191.848 256.574 191.27 256.574C190.831 256.574 190.462 256.672 190.164 256.868C189.874 257.064 189.632 257.325 189.436 257.652L188.764 257.022C188.96 256.63 189.272 256.299 189.702 256.028C190.131 255.748 190.672 255.608 191.326 255.608C192.203 255.608 192.884 255.823 193.37 256.252C193.855 256.681 194.098 257.279 194.098 258.044V262.02H194.924V263H194.294ZM191.074 262.216C191.354 262.216 191.61 262.183 191.844 262.118C192.077 262.053 192.278 261.959 192.446 261.838C192.614 261.717 192.744 261.577 192.838 261.418C192.931 261.259 192.978 261.087 192.978 260.9V259.71H191.494C190.85 259.71 190.378 259.803 190.08 259.99C189.79 260.177 189.646 260.447 189.646 260.802V261.096C189.646 261.451 189.772 261.726 190.024 261.922C190.285 262.118 190.635 262.216 191.074 262.216ZM198.692 263.168C198.02 263.168 197.455 263.042 196.998 262.79C196.55 262.529 196.163 262.183 195.836 261.754L196.634 261.11C196.914 261.465 197.227 261.74 197.572 261.936C197.917 262.123 198.319 262.216 198.776 262.216C199.252 262.216 199.621 262.113 199.882 261.908C200.153 261.703 200.288 261.413 200.288 261.04C200.288 260.76 200.195 260.522 200.008 260.326C199.831 260.121 199.504 259.981 199.028 259.906L198.454 259.822C198.118 259.775 197.81 259.705 197.53 259.612C197.25 259.509 197.003 259.379 196.788 259.22C196.583 259.052 196.419 258.847 196.298 258.604C196.186 258.361 196.13 258.072 196.13 257.736C196.13 257.381 196.195 257.073 196.326 256.812C196.457 256.541 196.634 256.317 196.858 256.14C197.091 255.963 197.367 255.832 197.684 255.748C198.001 255.655 198.342 255.608 198.706 255.608C199.294 255.608 199.784 255.711 200.176 255.916C200.577 256.121 200.927 256.406 201.226 256.77L200.484 257.442C200.325 257.218 200.092 257.017 199.784 256.84C199.476 256.653 199.089 256.56 198.622 256.56C198.155 256.56 197.801 256.663 197.558 256.868C197.325 257.064 197.208 257.335 197.208 257.68C197.208 258.035 197.325 258.291 197.558 258.45C197.801 258.609 198.146 258.725 198.594 258.8L199.154 258.884C199.957 259.005 200.526 259.239 200.862 259.584C201.198 259.92 201.366 260.363 201.366 260.914C201.366 261.614 201.128 262.165 200.652 262.566C200.176 262.967 199.523 263.168 198.692 263.168ZM204.845 263C204.453 263 204.154 262.893 203.949 262.678C203.753 262.454 203.655 262.165 203.655 261.81V256.756H202.465V255.776H203.137C203.379 255.776 203.543 255.729 203.627 255.636C203.72 255.533 203.767 255.361 203.767 255.118V253.774H204.775V255.776H206.357V256.756H204.775V262.02H206.245V263H204.845ZM210.818 263.168C210.323 263.168 209.875 263.079 209.474 262.902C209.082 262.725 208.741 262.473 208.452 262.146C208.172 261.81 207.953 261.413 207.794 260.956C207.645 260.489 207.57 259.967 207.57 259.388C207.57 258.819 207.645 258.301 207.794 257.834C207.953 257.367 208.172 256.971 208.452 256.644C208.741 256.308 209.082 256.051 209.474 255.874C209.875 255.697 210.323 255.608 210.818 255.608C211.303 255.608 211.737 255.697 212.12 255.874C212.503 256.051 212.829 256.299 213.1 256.616C213.371 256.924 213.576 257.293 213.716 257.722C213.865 258.151 213.94 258.623 213.94 259.136V259.668H208.746V260.004C208.746 260.312 208.793 260.601 208.886 260.872C208.989 261.133 209.129 261.362 209.306 261.558C209.493 261.754 209.717 261.908 209.978 262.02C210.249 262.132 210.552 262.188 210.888 262.188C211.345 262.188 211.742 262.081 212.078 261.866C212.423 261.651 212.689 261.343 212.876 260.942L213.674 261.516C213.441 262.011 213.077 262.412 212.582 262.72C212.087 263.019 211.499 263.168 210.818 263.168ZM210.818 256.546C210.51 256.546 210.23 256.602 209.978 256.714C209.726 256.817 209.507 256.966 209.32 257.162C209.143 257.358 209.003 257.591 208.9 257.862C208.797 258.123 208.746 258.413 208.746 258.73V258.828H212.736V258.674C212.736 258.03 212.559 257.517 212.204 257.134C211.859 256.742 211.397 256.546 210.818 256.546ZM223.546 255.776H224.652L221.418 264.68C221.334 264.895 221.25 265.072 221.166 265.212C221.082 265.361 220.98 265.478 220.858 265.562C220.737 265.646 220.583 265.707 220.396 265.744C220.219 265.781 220 265.8 219.738 265.8H219.164V264.82H220.298L220.844 263.28L218.142 255.776H219.262L220.998 260.69L221.334 261.866H221.404L221.796 260.69L223.546 255.776ZM228.742 263.168C228.257 263.168 227.814 263.079 227.412 262.902C227.011 262.725 226.666 262.473 226.376 262.146C226.096 261.81 225.877 261.413 225.718 260.956C225.56 260.489 225.48 259.967 225.48 259.388C225.48 258.819 225.56 258.301 225.718 257.834C225.877 257.367 226.096 256.971 226.376 256.644C226.666 256.308 227.011 256.051 227.412 255.874C227.814 255.697 228.257 255.608 228.742 255.608C229.228 255.608 229.666 255.697 230.058 255.874C230.46 256.051 230.805 256.308 231.094 256.644C231.384 256.971 231.608 257.367 231.766 257.834C231.925 258.301 232.004 258.819 232.004 259.388C232.004 259.967 231.925 260.489 231.766 260.956C231.608 261.413 231.384 261.81 231.094 262.146C230.805 262.473 230.46 262.725 230.058 262.902C229.666 263.079 229.228 263.168 228.742 263.168ZM228.742 262.174C229.349 262.174 229.844 261.987 230.226 261.614C230.609 261.241 230.8 260.671 230.8 259.906V258.87C230.8 258.105 230.609 257.535 230.226 257.162C229.844 256.789 229.349 256.602 228.742 256.602C228.136 256.602 227.641 256.789 227.258 257.162C226.876 257.535 226.684 258.105 226.684 258.87V259.906C226.684 260.671 226.876 261.241 227.258 261.614C227.641 261.987 228.136 262.174 228.742 262.174ZM238.298 261.824H238.242C238.168 261.992 238.074 262.16 237.962 262.328C237.86 262.487 237.729 262.631 237.57 262.762C237.412 262.883 237.22 262.981 236.996 263.056C236.772 263.131 236.511 263.168 236.212 263.168C235.466 263.168 234.873 262.93 234.434 262.454C233.996 261.969 233.776 261.287 233.776 260.41V255.776H234.896V260.214C234.896 261.511 235.447 262.16 236.548 262.16C236.772 262.16 236.987 262.132 237.192 262.076C237.407 262.02 237.594 261.936 237.752 261.824C237.92 261.712 238.051 261.572 238.144 261.404C238.247 261.227 238.298 261.017 238.298 260.774V255.776H239.418V263H238.298V261.824ZM241.803 263V255.776H242.923V257.106H242.993C243.124 256.761 243.357 256.453 243.693 256.182C244.029 255.911 244.491 255.776 245.079 255.776H245.513V256.896H244.855C244.249 256.896 243.773 257.013 243.427 257.246C243.091 257.47 242.923 257.755 242.923 258.1V263H241.803ZM252.941 263.168C252.437 263.168 251.984 263.079 251.583 262.902C251.181 262.725 250.841 262.473 250.561 262.146C250.29 261.819 250.08 261.423 249.931 260.956C249.791 260.489 249.721 259.967 249.721 259.388C249.721 258.809 249.791 258.287 249.931 257.82C250.08 257.353 250.29 256.957 250.561 256.63C250.841 256.303 251.181 256.051 251.583 255.874C251.984 255.697 252.437 255.608 252.941 255.608C253.659 255.608 254.233 255.767 254.663 256.084C255.101 256.392 255.428 256.798 255.643 257.302L254.705 257.778C254.574 257.405 254.359 257.115 254.061 256.91C253.762 256.705 253.389 256.602 252.941 256.602C252.605 256.602 252.311 256.658 252.059 256.77C251.807 256.873 251.597 257.022 251.429 257.218C251.261 257.405 251.135 257.633 251.051 257.904C250.967 258.165 250.925 258.455 250.925 258.772V260.004C250.925 260.639 251.093 261.161 251.429 261.572C251.774 261.973 252.278 262.174 252.941 262.174C253.846 262.174 254.499 261.754 254.901 260.914L255.713 261.46C255.479 261.983 255.129 262.398 254.663 262.706C254.205 263.014 253.631 263.168 252.941 263.168ZM258.484 263C258.092 263 257.793 262.893 257.588 262.678C257.392 262.454 257.294 262.174 257.294 261.838V252.64H258.414V262.02H259.478V263H258.484ZM261.668 254.082C261.425 254.082 261.248 254.026 261.136 253.914C261.033 253.793 260.982 253.639 260.982 253.452V253.27C260.982 253.083 261.033 252.934 261.136 252.822C261.248 252.701 261.425 252.64 261.668 252.64C261.911 252.64 262.083 252.701 262.186 252.822C262.298 252.934 262.354 253.083 262.354 253.27V253.452C262.354 253.639 262.298 253.793 262.186 253.914C262.083 254.026 261.911 254.082 261.668 254.082ZM261.108 255.776H262.228V263H261.108V255.776ZM264.608 255.776H265.728V256.952H265.784C265.971 256.495 266.241 256.159 266.596 255.944C266.96 255.72 267.394 255.608 267.898 255.608C268.346 255.608 268.752 255.697 269.116 255.874C269.48 256.051 269.788 256.303 270.04 256.63C270.301 256.957 270.497 257.353 270.628 257.82C270.768 258.287 270.838 258.809 270.838 259.388C270.838 259.967 270.768 260.489 270.628 260.956C270.497 261.423 270.301 261.819 270.04 262.146C269.788 262.473 269.48 262.725 269.116 262.902C268.752 263.079 268.346 263.168 267.898 263.168C266.918 263.168 266.213 262.72 265.784 261.824H265.728V265.8H264.608V255.776ZM267.59 262.16C268.225 262.16 268.724 261.964 269.088 261.572C269.452 261.171 269.634 260.648 269.634 260.004V258.772C269.634 258.128 269.452 257.61 269.088 257.218C268.724 256.817 268.225 256.616 267.59 256.616C267.338 256.616 267.095 256.653 266.862 256.728C266.638 256.793 266.442 256.887 266.274 257.008C266.106 257.129 265.971 257.279 265.868 257.456C265.775 257.624 265.728 257.806 265.728 258.002V260.69C265.728 260.923 265.775 261.133 265.868 261.32C265.971 261.497 266.106 261.651 266.274 261.782C266.442 261.903 266.638 261.997 266.862 262.062C267.095 262.127 267.338 262.16 267.59 262.16ZM272.729 252.64H273.849V256.952H273.905C274.092 256.495 274.362 256.159 274.717 255.944C275.081 255.72 275.515 255.608 276.019 255.608C276.467 255.608 276.873 255.697 277.237 255.874C277.601 256.051 277.909 256.303 278.161 256.63C278.422 256.957 278.618 257.353 278.749 257.82C278.889 258.287 278.959 258.809 278.959 259.388C278.959 259.967 278.889 260.489 278.749 260.956C278.618 261.423 278.422 261.819 278.161 262.146C277.909 262.473 277.601 262.725 277.237 262.902C276.873 263.079 276.467 263.168 276.019 263.168C275.039 263.168 274.334 262.72 273.905 261.824H273.849V263H272.729V252.64ZM275.711 262.16C276.346 262.16 276.845 261.964 277.209 261.572C277.573 261.171 277.755 260.648 277.755 260.004V258.772C277.755 258.128 277.573 257.61 277.209 257.218C276.845 256.817 276.346 256.616 275.711 256.616C275.459 256.616 275.216 256.653 274.983 256.728C274.759 256.793 274.563 256.887 274.395 257.008C274.227 257.129 274.092 257.279 273.989 257.456C273.896 257.624 273.849 257.806 273.849 258.002V260.69C273.849 260.923 273.896 261.133 273.989 261.32C274.092 261.497 274.227 261.651 274.395 261.782C274.563 261.903 274.759 261.997 274.983 262.062C275.216 262.127 275.459 262.16 275.711 262.16ZM283.58 263.168C283.095 263.168 282.651 263.079 282.25 262.902C281.849 262.725 281.503 262.473 281.214 262.146C280.934 261.81 280.715 261.413 280.556 260.956C280.397 260.489 280.318 259.967 280.318 259.388C280.318 258.819 280.397 258.301 280.556 257.834C280.715 257.367 280.934 256.971 281.214 256.644C281.503 256.308 281.849 256.051 282.25 255.874C282.651 255.697 283.095 255.608 283.58 255.608C284.065 255.608 284.504 255.697 284.896 255.874C285.297 256.051 285.643 256.308 285.932 256.644C286.221 256.971 286.445 257.367 286.604 257.834C286.763 258.301 286.842 258.819 286.842 259.388C286.842 259.967 286.763 260.489 286.604 260.956C286.445 261.413 286.221 261.81 285.932 262.146C285.643 262.473 285.297 262.725 284.896 262.902C284.504 263.079 284.065 263.168 283.58 263.168ZM283.58 262.174C284.187 262.174 284.681 261.987 285.064 261.614C285.447 261.241 285.638 260.671 285.638 259.906V258.87C285.638 258.105 285.447 257.535 285.064 257.162C284.681 256.789 284.187 256.602 283.58 256.602C282.973 256.602 282.479 256.789 282.096 257.162C281.713 257.535 281.522 258.105 281.522 258.87V259.906C281.522 260.671 281.713 261.241 282.096 261.614C282.479 261.987 282.973 262.174 283.58 262.174ZM293.934 263C293.514 263 293.211 262.888 293.024 262.664C292.847 262.44 292.735 262.16 292.688 261.824H292.618C292.459 262.272 292.198 262.608 291.834 262.832C291.47 263.056 291.036 263.168 290.532 263.168C289.767 263.168 289.169 262.972 288.74 262.58C288.32 262.188 288.11 261.656 288.11 260.984C288.11 260.303 288.357 259.78 288.852 259.416C289.356 259.052 290.135 258.87 291.19 258.87H292.618V258.156C292.618 257.643 292.478 257.251 292.198 256.98C291.918 256.709 291.489 256.574 290.91 256.574C290.471 256.574 290.103 256.672 289.804 256.868C289.515 257.064 289.272 257.325 289.076 257.652L288.404 257.022C288.6 256.63 288.913 256.299 289.342 256.028C289.771 255.748 290.313 255.608 290.966 255.608C291.843 255.608 292.525 255.823 293.01 256.252C293.495 256.681 293.738 257.279 293.738 258.044V262.02H294.564V263H293.934ZM290.714 262.216C290.994 262.216 291.251 262.183 291.484 262.118C291.717 262.053 291.918 261.959 292.086 261.838C292.254 261.717 292.385 261.577 292.478 261.418C292.571 261.259 292.618 261.087 292.618 260.9V259.71H291.134C290.49 259.71 290.019 259.803 289.72 259.99C289.431 260.177 289.286 260.447 289.286 260.802V261.096C289.286 261.451 289.412 261.726 289.664 261.922C289.925 262.118 290.275 262.216 290.714 262.216ZM296.163 263V255.776H297.283V257.106H297.353C297.483 256.761 297.717 256.453 298.053 256.182C298.389 255.911 298.851 255.776 299.439 255.776H299.873V256.896H299.215C298.608 256.896 298.132 257.013 297.787 257.246C297.451 257.47 297.283 257.755 297.283 258.1V263H296.163ZM305.841 261.824H305.785C305.347 262.72 304.642 263.168 303.671 263.168C303.223 263.168 302.817 263.079 302.453 262.902C302.089 262.725 301.777 262.473 301.515 262.146C301.263 261.819 301.067 261.423 300.927 260.956C300.797 260.489 300.731 259.967 300.731 259.388C300.731 258.809 300.797 258.287 300.927 257.82C301.067 257.353 301.263 256.957 301.515 256.63C301.777 256.303 302.089 256.051 302.453 255.874C302.817 255.697 303.223 255.608 303.671 255.608C304.175 255.608 304.605 255.72 304.959 255.944C305.323 256.159 305.599 256.495 305.785 256.952H305.841V252.64H306.961V263H305.841V261.824ZM303.979 262.16C304.231 262.16 304.469 262.127 304.693 262.062C304.927 261.997 305.127 261.903 305.295 261.782C305.463 261.651 305.594 261.497 305.687 261.32C305.79 261.133 305.841 260.923 305.841 260.69V258.002C305.841 257.806 305.79 257.624 305.687 257.456C305.594 257.279 305.463 257.129 305.295 257.008C305.127 256.887 304.927 256.793 304.693 256.728C304.469 256.653 304.231 256.616 303.979 256.616C303.345 256.616 302.845 256.817 302.481 257.218C302.117 257.61 301.935 258.128 301.935 258.772V260.004C301.935 260.648 302.117 261.171 302.481 261.572C302.845 261.964 303.345 262.16 303.979 262.16Z" fill="#575757"/>
<rect x="132" y="310" width="74" height="36" rx="6" fill="#3498FF"/>
<path d="M148.746 333.168C147.505 333.168 146.539 332.748 145.848 331.908C145.157 331.059 144.812 329.813 144.812 328.17C144.812 326.527 145.157 325.267 145.848 324.39C146.539 323.503 147.505 323.06 148.746 323.06C149.567 323.06 150.253 323.247 150.804 323.62C151.364 323.993 151.798 324.521 152.106 325.202L151.154 325.776C150.958 325.272 150.659 324.871 150.258 324.572C149.857 324.264 149.353 324.11 148.746 324.11C148.326 324.11 147.948 324.189 147.612 324.348C147.285 324.507 147.005 324.735 146.772 325.034C146.548 325.323 146.375 325.673 146.254 326.084C146.133 326.485 146.072 326.938 146.072 327.442V328.898C146.072 329.906 146.305 330.695 146.772 331.264C147.239 331.833 147.897 332.118 148.746 332.118C149.371 332.118 149.894 331.959 150.314 331.642C150.734 331.315 151.042 330.886 151.238 330.354L152.176 330.942C151.868 331.633 151.425 332.179 150.846 332.58C150.267 332.972 149.567 333.168 148.746 333.168ZM156.615 333.168C156.13 333.168 155.687 333.079 155.285 332.902C154.884 332.725 154.539 332.473 154.249 332.146C153.969 331.81 153.75 331.413 153.591 330.956C153.433 330.489 153.353 329.967 153.353 329.388C153.353 328.819 153.433 328.301 153.591 327.834C153.75 327.367 153.969 326.971 154.249 326.644C154.539 326.308 154.884 326.051 155.285 325.874C155.687 325.697 156.13 325.608 156.615 325.608C157.101 325.608 157.539 325.697 157.931 325.874C158.333 326.051 158.678 326.308 158.967 326.644C159.257 326.971 159.481 327.367 159.639 327.834C159.798 328.301 159.877 328.819 159.877 329.388C159.877 329.967 159.798 330.489 159.639 330.956C159.481 331.413 159.257 331.81 158.967 332.146C158.678 332.473 158.333 332.725 157.931 332.902C157.539 333.079 157.101 333.168 156.615 333.168ZM156.615 332.174C157.222 332.174 157.717 331.987 158.099 331.614C158.482 331.241 158.673 330.671 158.673 329.906V328.87C158.673 328.105 158.482 327.535 158.099 327.162C157.717 326.789 157.222 326.602 156.615 326.602C156.009 326.602 155.514 326.789 155.131 327.162C154.749 327.535 154.557 328.105 154.557 328.87V329.906C154.557 330.671 154.749 331.241 155.131 331.614C155.514 331.987 156.009 332.174 156.615 332.174ZM161.719 333V325.776H162.839V326.952H162.895C163.073 326.541 163.32 326.215 163.637 325.972C163.964 325.729 164.398 325.608 164.939 325.608C165.686 325.608 166.274 325.851 166.703 326.336C167.142 326.812 167.361 327.489 167.361 328.366V333H166.241V328.562C166.241 327.265 165.695 326.616 164.603 326.616C164.379 326.616 164.16 326.644 163.945 326.7C163.74 326.756 163.553 326.84 163.385 326.952C163.217 327.064 163.082 327.209 162.979 327.386C162.886 327.554 162.839 327.755 162.839 327.988V333H161.719ZM170.068 326.756H168.892V325.776H170.068V324.32C170.068 323.816 170.199 323.41 170.46 323.102C170.722 322.794 171.118 322.64 171.65 322.64H172.742V323.62H171.188V325.776H172.742V326.756H171.188V333H170.068V326.756ZM174.775 324.082C174.533 324.082 174.355 324.026 174.243 323.914C174.141 323.793 174.089 323.639 174.089 323.452V323.27C174.089 323.083 174.141 322.934 174.243 322.822C174.355 322.701 174.533 322.64 174.775 322.64C175.018 322.64 175.191 322.701 175.293 322.822C175.405 322.934 175.461 323.083 175.461 323.27V323.452C175.461 323.639 175.405 323.793 175.293 323.914C175.191 324.026 175.018 324.082 174.775 324.082ZM174.215 325.776H175.335V333H174.215V325.776ZM177.715 333V325.776H178.835V327.106H178.905C179.036 326.761 179.269 326.453 179.605 326.182C179.941 325.911 180.403 325.776 180.991 325.776H181.425V326.896H180.767C180.161 326.896 179.685 327.013 179.339 327.246C179.003 327.47 178.835 327.755 178.835 328.1V333H177.715ZM182.856 333V325.776H183.976V326.952H184.032C184.116 326.765 184.209 326.593 184.312 326.434C184.424 326.266 184.555 326.121 184.704 326C184.863 325.879 185.045 325.785 185.25 325.72C185.455 325.645 185.698 325.608 185.978 325.608C186.454 325.608 186.893 325.725 187.294 325.958C187.695 326.182 187.994 326.555 188.19 327.078H188.218C188.349 326.686 188.591 326.345 188.946 326.056C189.31 325.757 189.8 325.608 190.416 325.608C191.153 325.608 191.727 325.851 192.138 326.336C192.558 326.812 192.768 327.489 192.768 328.366V333H191.648V328.562C191.648 327.918 191.522 327.433 191.27 327.106C191.018 326.779 190.617 326.616 190.066 326.616C189.842 326.616 189.627 326.644 189.422 326.7C189.226 326.756 189.049 326.84 188.89 326.952C188.731 327.064 188.605 327.209 188.512 327.386C188.419 327.554 188.372 327.755 188.372 327.988V333H187.252V328.562C187.252 327.918 187.126 327.433 186.874 327.106C186.622 326.779 186.23 326.616 185.698 326.616C185.474 326.616 185.259 326.644 185.054 326.7C184.849 326.756 184.667 326.84 184.508 326.952C184.349 327.064 184.219 327.209 184.116 327.386C184.023 327.554 183.976 327.755 183.976 327.988V333H182.856Z" fill="white"/>
<path d="M228.623 333H227.447V323.228H231.339C232.197 323.228 232.865 323.466 233.341 323.942C233.826 324.418 234.069 325.104 234.069 326C234.069 326.719 233.901 327.311 233.565 327.778C233.238 328.235 232.753 328.539 232.109 328.688L234.349 333H233.019L230.905 328.8H228.623V333ZM231.339 327.792C231.805 327.792 232.165 327.671 232.417 327.428C232.678 327.185 232.809 326.84 232.809 326.392V325.664C232.809 325.216 232.678 324.871 232.417 324.628C232.165 324.385 231.805 324.264 231.339 324.264H228.623V327.792H231.339ZM238.801 333.168C238.306 333.168 237.858 333.079 237.457 332.902C237.065 332.725 236.724 332.473 236.435 332.146C236.155 331.81 235.935 331.413 235.777 330.956C235.627 330.489 235.553 329.967 235.553 329.388C235.553 328.819 235.627 328.301 235.777 327.834C235.935 327.367 236.155 326.971 236.435 326.644C236.724 326.308 237.065 326.051 237.457 325.874C237.858 325.697 238.306 325.608 238.801 325.608C239.286 325.608 239.72 325.697 240.103 325.874C240.485 326.051 240.812 326.299 241.083 326.616C241.353 326.924 241.559 327.293 241.699 327.722C241.848 328.151 241.923 328.623 241.923 329.136V329.668H236.729V330.004C236.729 330.312 236.775 330.601 236.869 330.872C236.971 331.133 237.111 331.362 237.289 331.558C237.475 331.754 237.699 331.908 237.961 332.02C238.231 332.132 238.535 332.188 238.871 332.188C239.328 332.188 239.725 332.081 240.061 331.866C240.406 331.651 240.672 331.343 240.859 330.942L241.657 331.516C241.423 332.011 241.059 332.412 240.565 332.72C240.07 333.019 239.482 333.168 238.801 333.168ZM238.801 326.546C238.493 326.546 238.213 326.602 237.961 326.714C237.709 326.817 237.489 326.966 237.303 327.162C237.125 327.358 236.985 327.591 236.883 327.862C236.78 328.123 236.729 328.413 236.729 328.73V328.828H240.719V328.674C240.719 328.03 240.541 327.517 240.187 327.134C239.841 326.742 239.379 326.546 238.801 326.546ZM245.938 333.168C245.266 333.168 244.701 333.042 244.244 332.79C243.796 332.529 243.409 332.183 243.082 331.754L243.88 331.11C244.16 331.465 244.473 331.74 244.818 331.936C245.163 332.123 245.565 332.216 246.022 332.216C246.498 332.216 246.867 332.113 247.128 331.908C247.399 331.703 247.534 331.413 247.534 331.04C247.534 330.76 247.441 330.522 247.254 330.326C247.077 330.121 246.75 329.981 246.274 329.906L245.7 329.822C245.364 329.775 245.056 329.705 244.776 329.612C244.496 329.509 244.249 329.379 244.034 329.22C243.829 329.052 243.665 328.847 243.544 328.604C243.432 328.361 243.376 328.072 243.376 327.736C243.376 327.381 243.441 327.073 243.572 326.812C243.703 326.541 243.88 326.317 244.104 326.14C244.337 325.963 244.613 325.832 244.93 325.748C245.247 325.655 245.588 325.608 245.952 325.608C246.54 325.608 247.03 325.711 247.422 325.916C247.823 326.121 248.173 326.406 248.472 326.77L247.73 327.442C247.571 327.218 247.338 327.017 247.03 326.84C246.722 326.653 246.335 326.56 245.868 326.56C245.401 326.56 245.047 326.663 244.804 326.868C244.571 327.064 244.454 327.335 244.454 327.68C244.454 328.035 244.571 328.291 244.804 328.45C245.047 328.609 245.392 328.725 245.84 328.8L246.4 328.884C247.203 329.005 247.772 329.239 248.108 329.584C248.444 329.92 248.612 330.363 248.612 330.914C248.612 331.614 248.374 332.165 247.898 332.566C247.422 332.967 246.769 333.168 245.938 333.168ZM253.306 333.168C252.812 333.168 252.364 333.079 251.962 332.902C251.57 332.725 251.23 332.473 250.94 332.146C250.66 331.81 250.441 331.413 250.282 330.956C250.133 330.489 250.058 329.967 250.058 329.388C250.058 328.819 250.133 328.301 250.282 327.834C250.441 327.367 250.66 326.971 250.94 326.644C251.23 326.308 251.57 326.051 251.962 325.874C252.364 325.697 252.812 325.608 253.306 325.608C253.792 325.608 254.226 325.697 254.608 325.874C254.991 326.051 255.318 326.299 255.588 326.616C255.859 326.924 256.064 327.293 256.204 327.722C256.354 328.151 256.428 328.623 256.428 329.136V329.668H251.234V330.004C251.234 330.312 251.281 330.601 251.374 330.872C251.477 331.133 251.617 331.362 251.794 331.558C251.981 331.754 252.205 331.908 252.466 332.02C252.737 332.132 253.04 332.188 253.376 332.188C253.834 332.188 254.23 332.081 254.566 331.866C254.912 331.651 255.178 331.343 255.364 330.942L256.162 331.516C255.929 332.011 255.565 332.412 255.07 332.72C254.576 333.019 253.988 333.168 253.306 333.168ZM253.306 326.546C252.998 326.546 252.718 326.602 252.466 326.714C252.214 326.817 251.995 326.966 251.808 327.162C251.631 327.358 251.491 327.591 251.388 327.862C251.286 328.123 251.234 328.413 251.234 328.73V328.828H255.224V328.674C255.224 328.03 255.047 327.517 254.692 327.134C254.347 326.742 253.885 326.546 253.306 326.546ZM258.274 333V325.776H259.394V326.952H259.45C259.627 326.541 259.875 326.215 260.192 325.972C260.519 325.729 260.953 325.608 261.494 325.608C262.241 325.608 262.829 325.851 263.258 326.336C263.697 326.812 263.916 327.489 263.916 328.366V333H262.796V328.562C262.796 327.265 262.25 326.616 261.158 326.616C260.934 326.616 260.715 326.644 260.5 326.7C260.295 326.756 260.108 326.84 259.94 326.952C259.772 327.064 259.637 327.209 259.534 327.386C259.441 327.554 259.394 327.755 259.394 327.988V333H258.274ZM270.851 331.824H270.795C270.356 332.72 269.652 333.168 268.681 333.168C268.233 333.168 267.827 333.079 267.463 332.902C267.099 332.725 266.786 332.473 266.525 332.146C266.273 331.819 266.077 331.423 265.937 330.956C265.806 330.489 265.741 329.967 265.741 329.388C265.741 328.809 265.806 328.287 265.937 327.82C266.077 327.353 266.273 326.957 266.525 326.63C266.786 326.303 267.099 326.051 267.463 325.874C267.827 325.697 268.233 325.608 268.681 325.608C269.185 325.608 269.614 325.72 269.969 325.944C270.333 326.159 270.608 326.495 270.795 326.952H270.851V322.64H271.971V333H270.851V331.824ZM268.989 332.16C269.241 332.16 269.479 332.127 269.703 332.062C269.936 331.997 270.137 331.903 270.305 331.782C270.473 331.651 270.604 331.497 270.697 331.32C270.8 331.133 270.851 330.923 270.851 330.69V328.002C270.851 327.806 270.8 327.624 270.697 327.456C270.604 327.279 270.473 327.129 270.305 327.008C270.137 326.887 269.936 326.793 269.703 326.728C269.479 326.653 269.241 326.616 268.989 326.616C268.354 326.616 267.855 326.817 267.491 327.218C267.127 327.61 266.945 328.128 266.945 328.772V330.004C266.945 330.648 267.127 331.171 267.491 331.572C267.855 331.964 268.354 332.16 268.989 332.16ZM282.911 333C282.491 333 282.187 332.888 282.001 332.664C281.823 332.44 281.711 332.16 281.665 331.824H281.595C281.436 332.272 281.175 332.608 280.811 332.832C280.447 333.056 280.013 333.168 279.509 333.168C278.743 333.168 278.146 332.972 277.717 332.58C277.297 332.188 277.087 331.656 277.087 330.984C277.087 330.303 277.334 329.78 277.829 329.416C278.333 329.052 279.112 328.87 280.167 328.87H281.595V328.156C281.595 327.643 281.455 327.251 281.175 326.98C280.895 326.709 280.465 326.574 279.887 326.574C279.448 326.574 279.079 326.672 278.781 326.868C278.491 327.064 278.249 327.325 278.053 327.652L277.381 327.022C277.577 326.63 277.889 326.299 278.319 326.028C278.748 325.748 279.289 325.608 279.943 325.608C280.82 325.608 281.501 325.823 281.987 326.252C282.472 326.681 282.715 327.279 282.715 328.044V332.02H283.541V333H282.911ZM279.691 332.216C279.971 332.216 280.227 332.183 280.461 332.118C280.694 332.053 280.895 331.959 281.063 331.838C281.231 331.717 281.361 331.577 281.455 331.418C281.548 331.259 281.595 331.087 281.595 330.9V329.71H280.111C279.467 329.71 278.995 329.803 278.697 329.99C278.407 330.177 278.263 330.447 278.263 330.802V331.096C278.263 331.451 278.389 331.726 278.641 331.922C278.902 332.118 279.252 332.216 279.691 332.216ZM291.136 333.168C290.632 333.168 290.179 333.079 289.778 332.902C289.376 332.725 289.036 332.473 288.756 332.146C288.485 331.819 288.275 331.423 288.126 330.956C287.986 330.489 287.916 329.967 287.916 329.388C287.916 328.809 287.986 328.287 288.126 327.82C288.275 327.353 288.485 326.957 288.756 326.63C289.036 326.303 289.376 326.051 289.778 325.874C290.179 325.697 290.632 325.608 291.136 325.608C291.854 325.608 292.428 325.767 292.858 326.084C293.296 326.392 293.623 326.798 293.838 327.302L292.9 327.778C292.769 327.405 292.554 327.115 292.256 326.91C291.957 326.705 291.584 326.602 291.136 326.602C290.8 326.602 290.506 326.658 290.254 326.77C290.002 326.873 289.792 327.022 289.624 327.218C289.456 327.405 289.33 327.633 289.246 327.904C289.162 328.165 289.12 328.455 289.12 328.772V330.004C289.12 330.639 289.288 331.161 289.624 331.572C289.969 331.973 290.473 332.174 291.136 332.174C292.041 332.174 292.694 331.754 293.096 330.914L293.908 331.46C293.674 331.983 293.324 332.398 292.858 332.706C292.4 333.014 291.826 333.168 291.136 333.168ZM298.137 333.168C297.651 333.168 297.208 333.079 296.807 332.902C296.405 332.725 296.06 332.473 295.771 332.146C295.491 331.81 295.271 331.413 295.113 330.956C294.954 330.489 294.875 329.967 294.875 329.388C294.875 328.819 294.954 328.301 295.113 327.834C295.271 327.367 295.491 326.971 295.771 326.644C296.06 326.308 296.405 326.051 296.807 325.874C297.208 325.697 297.651 325.608 298.137 325.608C298.622 325.608 299.061 325.697 299.453 325.874C299.854 326.051 300.199 326.308 300.489 326.644C300.778 326.971 301.002 327.367 301.161 327.834C301.319 328.301 301.399 328.819 301.399 329.388C301.399 329.967 301.319 330.489 301.161 330.956C301.002 331.413 300.778 331.81 300.489 332.146C300.199 332.473 299.854 332.725 299.453 332.902C299.061 333.079 298.622 333.168 298.137 333.168ZM298.137 332.174C298.743 332.174 299.238 331.987 299.621 331.614C300.003 331.241 300.195 330.671 300.195 329.906V328.87C300.195 328.105 300.003 327.535 299.621 327.162C299.238 326.789 298.743 326.602 298.137 326.602C297.53 326.602 297.035 326.789 296.653 327.162C296.27 327.535 296.079 328.105 296.079 328.87V329.906C296.079 330.671 296.27 331.241 296.653 331.614C297.035 331.987 297.53 332.174 298.137 332.174ZM307.861 331.824H307.805C307.366 332.72 306.661 333.168 305.691 333.168C305.243 333.168 304.837 333.079 304.473 332.902C304.109 332.725 303.796 332.473 303.535 332.146C303.283 331.819 303.087 331.423 302.947 330.956C302.816 330.489 302.751 329.967 302.751 329.388C302.751 328.809 302.816 328.287 302.947 327.82C303.087 327.353 303.283 326.957 303.535 326.63C303.796 326.303 304.109 326.051 304.473 325.874C304.837 325.697 305.243 325.608 305.691 325.608C306.195 325.608 306.624 325.72 306.979 325.944C307.343 326.159 307.618 326.495 307.805 326.952H307.861V322.64H308.981V333H307.861V331.824ZM305.999 332.16C306.251 332.16 306.489 332.127 306.713 332.062C306.946 331.997 307.147 331.903 307.315 331.782C307.483 331.651 307.613 331.497 307.707 331.32C307.809 331.133 307.861 330.923 307.861 330.69V328.002C307.861 327.806 307.809 327.624 307.707 327.456C307.613 327.279 307.483 327.129 307.315 327.008C307.147 326.887 306.946 326.793 306.713 326.728C306.489 326.653 306.251 326.616 305.999 326.616C305.364 326.616 304.865 326.817 304.501 327.218C304.137 327.61 303.955 328.128 303.955 328.772V330.004C303.955 330.648 304.137 331.171 304.501 331.572C304.865 331.964 305.364 332.16 305.999 332.16ZM314.078 333.168C313.583 333.168 313.135 333.079 312.734 332.902C312.342 332.725 312.001 332.473 311.712 332.146C311.432 331.81 311.213 331.413 311.054 330.956C310.905 330.489 310.83 329.967 310.83 329.388C310.83 328.819 310.905 328.301 311.054 327.834C311.213 327.367 311.432 326.971 311.712 326.644C312.001 326.308 312.342 326.051 312.734 325.874C313.135 325.697 313.583 325.608 314.078 325.608C314.563 325.608 314.997 325.697 315.38 325.874C315.763 326.051 316.089 326.299 316.36 326.616C316.631 326.924 316.836 327.293 316.976 327.722C317.125 328.151 317.2 328.623 317.2 329.136V329.668H312.006V330.004C312.006 330.312 312.053 330.601 312.146 330.872C312.249 331.133 312.389 331.362 312.566 331.558C312.753 331.754 312.977 331.908 313.238 332.02C313.509 332.132 313.812 332.188 314.148 332.188C314.605 332.188 315.002 332.081 315.338 331.866C315.683 331.651 315.949 331.343 316.136 330.942L316.934 331.516C316.701 332.011 316.337 332.412 315.842 332.72C315.347 333.019 314.759 333.168 314.078 333.168ZM314.078 326.546C313.77 326.546 313.49 326.602 313.238 326.714C312.986 326.817 312.767 326.966 312.58 327.162C312.403 327.358 312.263 327.591 312.16 327.862C312.057 328.123 312.006 328.413 312.006 328.73V328.828H315.996V328.674C315.996 328.03 315.819 327.517 315.464 327.134C315.119 326.742 314.657 326.546 314.078 326.546Z" fill="#1675E0"/>
<path d="M97.302 425V415.228H103.126V416.264H98.478V419.54H102.72V420.576H98.478V425H97.302ZM107.385 425.168C106.9 425.168 106.456 425.079 106.055 424.902C105.654 424.725 105.308 424.473 105.019 424.146C104.739 423.81 104.52 423.413 104.361 422.956C104.202 422.489 104.123 421.967 104.123 421.388C104.123 420.819 104.202 420.301 104.361 419.834C104.52 419.367 104.739 418.971 105.019 418.644C105.308 418.308 105.654 418.051 106.055 417.874C106.456 417.697 106.9 417.608 107.385 417.608C107.87 417.608 108.309 417.697 108.701 417.874C109.102 418.051 109.448 418.308 109.737 418.644C110.026 418.971 110.25 419.367 110.409 419.834C110.568 420.301 110.647 420.819 110.647 421.388C110.647 421.967 110.568 422.489 110.409 422.956C110.25 423.413 110.026 423.81 109.737 424.146C109.448 424.473 109.102 424.725 108.701 424.902C108.309 425.079 107.87 425.168 107.385 425.168ZM107.385 424.174C107.992 424.174 108.486 423.987 108.869 423.614C109.252 423.241 109.443 422.671 109.443 421.906V420.87C109.443 420.105 109.252 419.535 108.869 419.162C108.486 418.789 107.992 418.602 107.385 418.602C106.778 418.602 106.284 418.789 105.901 419.162C105.518 419.535 105.327 420.105 105.327 420.87V421.906C105.327 422.671 105.518 423.241 105.901 423.614C106.284 423.987 106.778 424.174 107.385 424.174ZM116.941 423.824H116.885C116.81 423.992 116.717 424.16 116.605 424.328C116.502 424.487 116.371 424.631 116.213 424.762C116.054 424.883 115.863 424.981 115.639 425.056C115.415 425.131 115.153 425.168 114.855 425.168C114.108 425.168 113.515 424.93 113.077 424.454C112.638 423.969 112.419 423.287 112.419 422.41V417.776H113.539V422.214C113.539 423.511 114.089 424.16 115.191 424.16C115.415 424.16 115.629 424.132 115.835 424.076C116.049 424.02 116.236 423.936 116.395 423.824C116.563 423.712 116.693 423.572 116.787 423.404C116.889 423.227 116.941 423.017 116.941 422.774V417.776H118.061V425H116.941V423.824ZM120.446 425V417.776H121.566V418.952H121.622C121.799 418.541 122.047 418.215 122.364 417.972C122.691 417.729 123.125 417.608 123.666 417.608C124.413 417.608 125.001 417.851 125.43 418.336C125.869 418.812 126.088 419.489 126.088 420.366V425H124.968V420.562C124.968 419.265 124.422 418.616 123.33 418.616C123.106 418.616 122.887 418.644 122.672 418.7C122.467 418.756 122.28 418.84 122.112 418.952C121.944 419.064 121.809 419.209 121.706 419.386C121.613 419.554 121.566 419.755 121.566 419.988V425H120.446ZM133.023 423.824H132.967C132.528 424.72 131.824 425.168 130.853 425.168C130.405 425.168 129.999 425.079 129.635 424.902C129.271 424.725 128.958 424.473 128.697 424.146C128.445 423.819 128.249 423.423 128.109 422.956C127.978 422.489 127.913 421.967 127.913 421.388C127.913 420.809 127.978 420.287 128.109 419.82C128.249 419.353 128.445 418.957 128.697 418.63C128.958 418.303 129.271 418.051 129.635 417.874C129.999 417.697 130.405 417.608 130.853 417.608C131.357 417.608 131.786 417.72 132.141 417.944C132.505 418.159 132.78 418.495 132.967 418.952H133.023V414.64H134.143V425H133.023V423.824ZM131.161 424.16C131.413 424.16 131.651 424.127 131.875 424.062C132.108 423.997 132.309 423.903 132.477 423.782C132.645 423.651 132.776 423.497 132.869 423.32C132.972 423.133 133.023 422.923 133.023 422.69V420.002C133.023 419.806 132.972 419.624 132.869 419.456C132.776 419.279 132.645 419.129 132.477 419.008C132.309 418.887 132.108 418.793 131.875 418.728C131.651 418.653 131.413 418.616 131.161 418.616C130.526 418.616 130.027 418.817 129.663 419.218C129.299 419.61 129.117 420.128 129.117 420.772V422.004C129.117 422.648 129.299 423.171 129.663 423.572C130.027 423.964 130.526 424.16 131.161 424.16ZM144.285 417.776H145.391L142.157 426.68C142.073 426.895 141.989 427.072 141.905 427.212C141.821 427.361 141.718 427.478 141.597 427.562C141.475 427.646 141.321 427.707 141.135 427.744C140.957 427.781 140.738 427.8 140.477 427.8H139.903V426.82H141.037L141.583 425.28L138.881 417.776H140.001L141.737 422.69L142.073 423.866H142.143L142.535 422.69L144.285 417.776ZM149.481 425.168C148.995 425.168 148.552 425.079 148.151 424.902C147.749 424.725 147.404 424.473 147.115 424.146C146.835 423.81 146.615 423.413 146.457 422.956C146.298 422.489 146.219 421.967 146.219 421.388C146.219 420.819 146.298 420.301 146.457 419.834C146.615 419.367 146.835 418.971 147.115 418.644C147.404 418.308 147.749 418.051 148.151 417.874C148.552 417.697 148.995 417.608 149.481 417.608C149.966 417.608 150.405 417.697 150.797 417.874C151.198 418.051 151.543 418.308 151.833 418.644C152.122 418.971 152.346 419.367 152.505 419.834C152.663 420.301 152.743 420.819 152.743 421.388C152.743 421.967 152.663 422.489 152.505 422.956C152.346 423.413 152.122 423.81 151.833 424.146C151.543 424.473 151.198 424.725 150.797 424.902C150.405 425.079 149.966 425.168 149.481 425.168ZM149.481 424.174C150.087 424.174 150.582 423.987 150.965 423.614C151.347 423.241 151.539 422.671 151.539 421.906V420.87C151.539 420.105 151.347 419.535 150.965 419.162C150.582 418.789 150.087 418.602 149.481 418.602C148.874 418.602 148.379 418.789 147.997 419.162C147.614 419.535 147.423 420.105 147.423 420.87V421.906C147.423 422.671 147.614 423.241 147.997 423.614C148.379 423.987 148.874 424.174 149.481 424.174ZM159.037 423.824H158.981C158.906 423.992 158.813 424.16 158.701 424.328C158.598 424.487 158.467 424.631 158.309 424.762C158.15 424.883 157.959 424.981 157.735 425.056C157.511 425.131 157.249 425.168 156.951 425.168C156.204 425.168 155.611 424.93 155.173 424.454C154.734 423.969 154.515 423.287 154.515 422.41V417.776H155.635V422.214C155.635 423.511 156.185 424.16 157.287 424.16C157.511 424.16 157.725 424.132 157.931 424.076C158.145 424.02 158.332 423.936 158.491 423.824C158.659 423.712 158.789 423.572 158.883 423.404C158.985 423.227 159.037 423.017 159.037 422.774V417.776H160.157V425H159.037V423.824ZM162.542 425V417.776H163.662V419.106H163.732C163.862 418.761 164.096 418.453 164.432 418.182C164.768 417.911 165.23 417.776 165.818 417.776H166.252V418.896H165.594C164.987 418.896 164.511 419.013 164.166 419.246C163.83 419.47 163.662 419.755 163.662 420.1V425H162.542ZM170.991 417.776H172.111V418.952H172.167C172.353 418.495 172.624 418.159 172.979 417.944C173.343 417.72 173.777 417.608 174.281 417.608C174.729 417.608 175.135 417.697 175.499 417.874C175.863 418.051 176.171 418.303 176.423 418.63C176.684 418.957 176.88 419.353 177.011 419.82C177.151 420.287 177.221 420.809 177.221 421.388C177.221 421.967 177.151 422.489 177.011 422.956C176.88 423.423 176.684 423.819 176.423 424.146C176.171 424.473 175.863 424.725 175.499 424.902C175.135 425.079 174.729 425.168 174.281 425.168C173.301 425.168 172.596 424.72 172.167 423.824H172.111V427.8H170.991V417.776ZM173.973 424.16C174.607 424.16 175.107 423.964 175.471 423.572C175.835 423.171 176.017 422.648 176.017 422.004V420.772C176.017 420.128 175.835 419.61 175.471 419.218C175.107 418.817 174.607 418.616 173.973 418.616C173.721 418.616 173.478 418.653 173.245 418.728C173.021 418.793 172.825 418.887 172.657 419.008C172.489 419.129 172.353 419.279 172.251 419.456C172.157 419.624 172.111 419.806 172.111 420.002V422.69C172.111 422.923 172.157 423.133 172.251 423.32C172.353 423.497 172.489 423.651 172.657 423.782C172.825 423.903 173.021 423.997 173.245 424.062C173.478 424.127 173.721 424.16 173.973 424.16ZM184.362 425C183.942 425 183.639 424.888 183.452 424.664C183.275 424.44 183.163 424.16 183.116 423.824H183.046C182.887 424.272 182.626 424.608 182.262 424.832C181.898 425.056 181.464 425.168 180.96 425.168C180.195 425.168 179.597 424.972 179.168 424.58C178.748 424.188 178.538 423.656 178.538 422.984C178.538 422.303 178.785 421.78 179.28 421.416C179.784 421.052 180.563 420.87 181.618 420.87H183.046V420.156C183.046 419.643 182.906 419.251 182.626 418.98C182.346 418.709 181.917 418.574 181.338 418.574C180.899 418.574 180.531 418.672 180.232 418.868C179.943 419.064 179.7 419.325 179.504 419.652L178.832 419.022C179.028 418.63 179.341 418.299 179.77 418.028C180.199 417.748 180.741 417.608 181.394 417.608C182.271 417.608 182.953 417.823 183.438 418.252C183.923 418.681 184.166 419.279 184.166 420.044V424.02H184.992V425H184.362ZM181.142 424.216C181.422 424.216 181.679 424.183 181.912 424.118C182.145 424.053 182.346 423.959 182.514 423.838C182.682 423.717 182.813 423.577 182.906 423.418C182.999 423.259 183.046 423.087 183.046 422.9V421.71H181.562C180.918 421.71 180.447 421.803 180.148 421.99C179.859 422.177 179.714 422.447 179.714 422.802V423.096C179.714 423.451 179.84 423.726 180.092 423.922C180.353 424.118 180.703 424.216 181.142 424.216ZM188.76 425.168C188.088 425.168 187.524 425.042 187.066 424.79C186.618 424.529 186.231 424.183 185.904 423.754L186.702 423.11C186.982 423.465 187.295 423.74 187.64 423.936C187.986 424.123 188.387 424.216 188.844 424.216C189.32 424.216 189.689 424.113 189.95 423.908C190.221 423.703 190.356 423.413 190.356 423.04C190.356 422.76 190.263 422.522 190.076 422.326C189.899 422.121 189.572 421.981 189.096 421.906L188.522 421.822C188.186 421.775 187.878 421.705 187.598 421.612C187.318 421.509 187.071 421.379 186.856 421.22C186.651 421.052 186.488 420.847 186.366 420.604C186.254 420.361 186.198 420.072 186.198 419.736C186.198 419.381 186.264 419.073 186.394 418.812C186.525 418.541 186.702 418.317 186.926 418.14C187.16 417.963 187.435 417.832 187.752 417.748C188.07 417.655 188.41 417.608 188.774 417.608C189.362 417.608 189.852 417.711 190.244 417.916C190.646 418.121 190.996 418.406 191.294 418.77L190.552 419.442C190.394 419.218 190.16 419.017 189.852 418.84C189.544 418.653 189.157 418.56 188.69 418.56C188.224 418.56 187.869 418.663 187.626 418.868C187.393 419.064 187.276 419.335 187.276 419.68C187.276 420.035 187.393 420.291 187.626 420.45C187.869 420.609 188.214 420.725 188.662 420.8L189.222 420.884C190.025 421.005 190.594 421.239 190.93 421.584C191.266 421.92 191.434 422.363 191.434 422.914C191.434 423.614 191.196 424.165 190.72 424.566C190.244 424.967 189.591 425.168 188.76 425.168ZM195.501 425.168C194.829 425.168 194.264 425.042 193.807 424.79C193.359 424.529 192.971 424.183 192.645 423.754L193.443 423.11C193.723 423.465 194.035 423.74 194.381 423.936C194.726 424.123 195.127 424.216 195.585 424.216C196.061 424.216 196.429 424.113 196.691 423.908C196.961 423.703 197.097 423.413 197.097 423.04C197.097 422.76 197.003 422.522 196.817 422.326C196.639 422.121 196.313 421.981 195.837 421.906L195.263 421.822C194.927 421.775 194.619 421.705 194.339 421.612C194.059 421.509 193.811 421.379 193.597 421.22C193.391 421.052 193.228 420.847 193.107 420.604C192.995 420.361 192.939 420.072 192.939 419.736C192.939 419.381 193.004 419.073 193.135 418.812C193.265 418.541 193.443 418.317 193.667 418.14C193.9 417.963 194.175 417.832 194.493 417.748C194.81 417.655 195.151 417.608 195.515 417.608C196.103 417.608 196.593 417.711 196.985 417.916C197.386 418.121 197.736 418.406 198.035 418.77L197.293 419.442C197.134 419.218 196.901 419.017 196.593 418.84C196.285 418.653 195.897 418.56 195.431 418.56C194.964 418.56 194.609 418.663 194.367 418.868C194.133 419.064 194.017 419.335 194.017 419.68C194.017 420.035 194.133 420.291 194.367 420.45C194.609 420.609 194.955 420.725 195.403 420.8L195.963 420.884C196.765 421.005 197.335 421.239 197.671 421.584C198.007 421.92 198.175 422.363 198.175 422.914C198.175 423.614 197.937 424.165 197.461 424.566C196.985 424.967 196.331 425.168 195.501 425.168ZM199.274 417.776H200.366L201.136 420.898L201.906 424.062H201.934L202.816 420.898L203.726 417.776H204.72L205.658 420.898L206.554 424.062H206.582L207.324 420.898L208.108 417.776H209.158L207.24 425H205.854L204.846 421.528L204.216 419.33H204.188L203.572 421.528L202.564 425H201.206L199.274 417.776ZM213.438 425.168C212.952 425.168 212.509 425.079 212.108 424.902C211.706 424.725 211.361 424.473 211.072 424.146C210.792 423.81 210.572 423.413 210.414 422.956C210.255 422.489 210.176 421.967 210.176 421.388C210.176 420.819 210.255 420.301 210.414 419.834C210.572 419.367 210.792 418.971 211.072 418.644C211.361 418.308 211.706 418.051 212.108 417.874C212.509 417.697 212.952 417.608 213.438 417.608C213.923 417.608 214.362 417.697 214.754 417.874C215.155 418.051 215.5 418.308 215.79 418.644C216.079 418.971 216.303 419.367 216.462 419.834C216.62 420.301 216.7 420.819 216.7 421.388C216.7 421.967 216.62 422.489 216.462 422.956C216.303 423.413 216.079 423.81 215.79 424.146C215.5 424.473 215.155 424.725 214.754 424.902C214.362 425.079 213.923 425.168 213.438 425.168ZM213.438 424.174C214.044 424.174 214.539 423.987 214.922 423.614C215.304 423.241 215.496 422.671 215.496 421.906V420.87C215.496 420.105 215.304 419.535 214.922 419.162C214.539 418.789 214.044 418.602 213.438 418.602C212.831 418.602 212.336 418.789 211.954 419.162C211.571 419.535 211.38 420.105 211.38 420.87V421.906C211.38 422.671 211.571 423.241 211.954 423.614C212.336 423.987 212.831 424.174 213.438 424.174ZM218.542 425V417.776H219.662V419.106H219.732C219.862 418.761 220.096 418.453 220.432 418.182C220.768 417.911 221.23 417.776 221.818 417.776H222.252V418.896H221.594C220.987 418.896 220.511 419.013 220.166 419.246C219.83 419.47 219.662 419.755 219.662 420.1V425H218.542ZM228.22 423.824H228.164C227.725 424.72 227.021 425.168 226.05 425.168C225.602 425.168 225.196 425.079 224.832 424.902C224.468 424.725 224.155 424.473 223.894 424.146C223.642 423.819 223.446 423.423 223.306 422.956C223.175 422.489 223.11 421.967 223.11 421.388C223.11 420.809 223.175 420.287 223.306 419.82C223.446 419.353 223.642 418.957 223.894 418.63C224.155 418.303 224.468 418.051 224.832 417.874C225.196 417.697 225.602 417.608 226.05 417.608C226.554 417.608 226.983 417.72 227.338 417.944C227.702 418.159 227.977 418.495 228.164 418.952H228.22V414.64H229.34V425H228.22V423.824ZM226.358 424.16C226.61 424.16 226.848 424.127 227.072 424.062C227.305 423.997 227.506 423.903 227.674 423.782C227.842 423.651 227.973 423.497 228.066 423.32C228.169 423.133 228.22 422.923 228.22 422.69V420.002C228.22 419.806 228.169 419.624 228.066 419.456C227.973 419.279 227.842 419.129 227.674 419.008C227.506 418.887 227.305 418.793 227.072 418.728C226.848 418.653 226.61 418.616 226.358 418.616C225.723 418.616 225.224 418.817 224.86 419.218C224.496 419.61 224.314 420.128 224.314 420.772V422.004C224.314 422.648 224.496 423.171 224.86 423.572C225.224 423.964 225.723 424.16 226.358 424.16ZM236.346 422.088V419.792C237.111 419.755 237.709 419.568 238.138 419.232C238.577 418.896 238.796 418.434 238.796 417.846V417.65C238.796 417.174 238.647 416.796 238.348 416.516C238.049 416.227 237.648 416.082 237.144 416.082C236.603 416.082 236.169 416.236 235.842 416.544C235.525 416.852 235.31 417.244 235.198 417.72L234.162 417.328C234.246 417.029 234.367 416.745 234.526 416.474C234.694 416.194 234.899 415.951 235.142 415.746C235.394 415.531 235.688 415.363 236.024 415.242C236.36 415.121 236.747 415.06 237.186 415.06C238.054 415.06 238.74 415.298 239.244 415.774C239.748 416.25 240 416.894 240 417.706C240 418.154 239.921 418.546 239.762 418.882C239.613 419.209 239.417 419.489 239.174 419.722C238.931 419.955 238.656 420.142 238.348 420.282C238.04 420.422 237.732 420.52 237.424 420.576V422.088H236.346ZM236.892 425.168C236.593 425.168 236.374 425.093 236.234 424.944C236.103 424.795 236.038 424.599 236.038 424.356V424.174C236.038 423.931 236.103 423.735 236.234 423.586C236.374 423.437 236.593 423.362 236.892 423.362C237.191 423.362 237.405 423.437 237.536 423.586C237.676 423.735 237.746 423.931 237.746 424.174V424.356C237.746 424.599 237.676 424.795 237.536 424.944C237.405 425.093 237.191 425.168 236.892 425.168Z" fill="#8E8E93"/>
<path d="M260.776 423.572H260.734C260.613 424.029 260.314 424.412 259.838 424.72C259.372 425.019 258.765 425.168 258.018 425.168C257.421 425.168 256.87 425.061 256.366 424.846C255.872 424.622 255.447 424.3 255.092 423.88C254.738 423.451 254.458 422.923 254.252 422.298C254.056 421.663 253.958 420.935 253.958 420.114C253.958 419.302 254.056 418.583 254.252 417.958C254.448 417.323 254.728 416.796 255.092 416.376C255.456 415.947 255.895 415.62 256.408 415.396C256.922 415.172 257.491 415.06 258.116 415.06C258.994 415.06 259.726 415.256 260.314 415.648C260.902 416.04 261.355 416.558 261.672 417.202L260.706 417.79C260.482 417.267 260.146 416.857 259.698 416.558C259.26 416.259 258.732 416.11 258.116 416.11C257.687 416.11 257.295 416.189 256.94 416.348C256.586 416.497 256.278 416.712 256.016 416.992C255.764 417.272 255.568 417.608 255.428 418C255.288 418.392 255.218 418.831 255.218 419.316V420.898C255.218 421.383 255.288 421.827 255.428 422.228C255.568 422.62 255.764 422.956 256.016 423.236C256.278 423.516 256.595 423.735 256.968 423.894C257.342 424.043 257.762 424.118 258.228 424.118C258.564 424.118 258.882 424.076 259.18 423.992C259.488 423.899 259.754 423.763 259.978 423.586C260.212 423.409 260.394 423.189 260.524 422.928C260.655 422.657 260.72 422.34 260.72 421.976V421.01H258.564V419.974H261.868V425H260.776V423.572ZM266.801 425.168C266.316 425.168 265.872 425.079 265.471 424.902C265.07 424.725 264.724 424.473 264.435 424.146C264.155 423.81 263.936 423.413 263.777 422.956C263.618 422.489 263.539 421.967 263.539 421.388C263.539 420.819 263.618 420.301 263.777 419.834C263.936 419.367 264.155 418.971 264.435 418.644C264.724 418.308 265.07 418.051 265.471 417.874C265.872 417.697 266.316 417.608 266.801 417.608C267.286 417.608 267.725 417.697 268.117 417.874C268.518 418.051 268.864 418.308 269.153 418.644C269.442 418.971 269.666 419.367 269.825 419.834C269.984 420.301 270.063 420.819 270.063 421.388C270.063 421.967 269.984 422.489 269.825 422.956C269.666 423.413 269.442 423.81 269.153 424.146C268.864 424.473 268.518 424.725 268.117 424.902C267.725 425.079 267.286 425.168 266.801 425.168ZM266.801 424.174C267.408 424.174 267.902 423.987 268.285 423.614C268.668 423.241 268.859 422.671 268.859 421.906V420.87C268.859 420.105 268.668 419.535 268.285 419.162C267.902 418.789 267.408 418.602 266.801 418.602C266.194 418.602 265.7 418.789 265.317 419.162C264.934 419.535 264.743 420.105 264.743 420.87V421.906C264.743 422.671 264.934 423.241 265.317 423.614C265.7 423.987 266.194 424.174 266.801 424.174ZM275.213 414.64H276.333V418.952H276.389C276.576 418.495 276.847 418.159 277.201 417.944C277.565 417.72 277.999 417.608 278.503 417.608C278.951 417.608 279.357 417.697 279.721 417.874C280.085 418.051 280.393 418.303 280.645 418.63C280.907 418.957 281.103 419.353 281.233 419.82C281.373 420.287 281.443 420.809 281.443 421.388C281.443 421.967 281.373 422.489 281.233 422.956C281.103 423.423 280.907 423.819 280.645 424.146C280.393 424.473 280.085 424.725 279.721 424.902C279.357 425.079 278.951 425.168 278.503 425.168C277.523 425.168 276.819 424.72 276.389 423.824H276.333V425H275.213V414.64ZM278.195 424.16C278.83 424.16 279.329 423.964 279.693 423.572C280.057 423.171 280.239 422.648 280.239 422.004V420.772C280.239 420.128 280.057 419.61 279.693 419.218C279.329 418.817 278.83 418.616 278.195 418.616C277.943 418.616 277.701 418.653 277.467 418.728C277.243 418.793 277.047 418.887 276.879 419.008C276.711 419.129 276.576 419.279 276.473 419.456C276.38 419.624 276.333 419.806 276.333 420.002V422.69C276.333 422.923 276.38 423.133 276.473 423.32C276.576 423.497 276.711 423.651 276.879 423.782C277.047 423.903 277.243 423.997 277.467 424.062C277.701 424.127 277.943 424.16 278.195 424.16ZM288.585 425C288.165 425 287.861 424.888 287.675 424.664C287.497 424.44 287.385 424.16 287.339 423.824H287.269C287.11 424.272 286.849 424.608 286.485 424.832C286.121 425.056 285.687 425.168 285.183 425.168C284.417 425.168 283.82 424.972 283.391 424.58C282.971 424.188 282.761 423.656 282.761 422.984C282.761 422.303 283.008 421.78 283.503 421.416C284.007 421.052 284.786 420.87 285.841 420.87H287.269V420.156C287.269 419.643 287.129 419.251 286.849 418.98C286.569 418.709 286.139 418.574 285.561 418.574C285.122 418.574 284.753 418.672 284.455 418.868C284.165 419.064 283.923 419.325 283.727 419.652L283.055 419.022C283.251 418.63 283.563 418.299 283.993 418.028C284.422 417.748 284.963 417.608 285.617 417.608C286.494 417.608 287.175 417.823 287.661 418.252C288.146 418.681 288.389 419.279 288.389 420.044V424.02H289.215V425H288.585ZM285.365 424.216C285.645 424.216 285.901 424.183 286.135 424.118C286.368 424.053 286.569 423.959 286.737 423.838C286.905 423.717 287.035 423.577 287.129 423.418C287.222 423.259 287.269 423.087 287.269 422.9V421.71H285.785C285.141 421.71 284.669 421.803 284.371 421.99C284.081 422.177 283.937 422.447 283.937 422.802V423.096C283.937 423.451 284.063 423.726 284.315 423.922C284.576 424.118 284.926 424.216 285.365 424.216ZM293.501 425.168C292.997 425.168 292.544 425.079 292.143 424.902C291.742 424.725 291.401 424.473 291.121 424.146C290.85 423.819 290.64 423.423 290.491 422.956C290.351 422.489 290.281 421.967 290.281 421.388C290.281 420.809 290.351 420.287 290.491 419.82C290.64 419.353 290.85 418.957 291.121 418.63C291.401 418.303 291.742 418.051 292.143 417.874C292.544 417.697 292.997 417.608 293.501 417.608C294.22 417.608 294.794 417.767 295.223 418.084C295.662 418.392 295.988 418.798 296.203 419.302L295.265 419.778C295.134 419.405 294.92 419.115 294.621 418.91C294.322 418.705 293.949 418.602 293.501 418.602C293.165 418.602 292.871 418.658 292.619 418.77C292.367 418.873 292.157 419.022 291.989 419.218C291.821 419.405 291.695 419.633 291.611 419.904C291.527 420.165 291.485 420.455 291.485 420.772V422.004C291.485 422.639 291.653 423.161 291.989 423.572C292.334 423.973 292.838 424.174 293.501 424.174C294.406 424.174 295.06 423.754 295.461 422.914L296.273 423.46C296.04 423.983 295.69 424.398 295.223 424.706C294.766 425.014 294.192 425.168 293.501 425.168ZM297.854 414.64H298.974V421.206H299.03L300.136 419.974L302.18 417.776H303.538L300.864 420.632L303.804 425H302.446L300.052 421.318L298.974 422.424V425H297.854V414.64ZM310.141 425C309.749 425 309.451 424.893 309.245 424.678C309.049 424.454 308.951 424.165 308.951 423.81V418.756H307.761V417.776H308.433C308.676 417.776 308.839 417.729 308.923 417.636C309.017 417.533 309.063 417.361 309.063 417.118V415.774H310.071V417.776H311.653V418.756H310.071V424.02H311.541V425H310.141ZM316.129 425.168C315.644 425.168 315.2 425.079 314.799 424.902C314.398 424.725 314.052 424.473 313.763 424.146C313.483 423.81 313.264 423.413 313.105 422.956C312.946 422.489 312.867 421.967 312.867 421.388C312.867 420.819 312.946 420.301 313.105 419.834C313.264 419.367 313.483 418.971 313.763 418.644C314.052 418.308 314.398 418.051 314.799 417.874C315.2 417.697 315.644 417.608 316.129 417.608C316.614 417.608 317.053 417.697 317.445 417.874C317.846 418.051 318.192 418.308 318.481 418.644C318.77 418.971 318.994 419.367 319.153 419.834C319.312 420.301 319.391 420.819 319.391 421.388C319.391 421.967 319.312 422.489 319.153 422.956C318.994 423.413 318.77 423.81 318.481 424.146C318.192 424.473 317.846 424.725 317.445 424.902C317.053 425.079 316.614 425.168 316.129 425.168ZM316.129 424.174C316.736 424.174 317.23 423.987 317.613 423.614C317.996 423.241 318.187 422.671 318.187 421.906V420.87C318.187 420.105 317.996 419.535 317.613 419.162C317.23 418.789 316.736 418.602 316.129 418.602C315.522 418.602 315.028 418.789 314.645 419.162C314.262 419.535 314.071 420.105 314.071 420.87V421.906C314.071 422.671 314.262 423.241 314.645 423.614C315.028 423.987 315.522 424.174 316.129 424.174ZM325.732 425C325.34 425 325.041 424.893 324.836 424.678C324.64 424.454 324.542 424.174 324.542 423.838V414.64H325.662V424.02H326.726V425H325.732ZM331.086 425.168C330.601 425.168 330.157 425.079 329.756 424.902C329.355 424.725 329.009 424.473 328.72 424.146C328.44 423.81 328.221 423.413 328.062 422.956C327.903 422.489 327.824 421.967 327.824 421.388C327.824 420.819 327.903 420.301 328.062 419.834C328.221 419.367 328.44 418.971 328.72 418.644C329.009 418.308 329.355 418.051 329.756 417.874C330.157 417.697 330.601 417.608 331.086 417.608C331.571 417.608 332.01 417.697 332.402 417.874C332.803 418.051 333.149 418.308 333.438 418.644C333.727 418.971 333.951 419.367 334.11 419.834C334.269 420.301 334.348 420.819 334.348 421.388C334.348 421.967 334.269 422.489 334.11 422.956C333.951 423.413 333.727 423.81 333.438 424.146C333.149 424.473 332.803 424.725 332.402 424.902C332.01 425.079 331.571 425.168 331.086 425.168ZM331.086 424.174C331.693 424.174 332.187 423.987 332.57 423.614C332.953 423.241 333.144 422.671 333.144 421.906V420.87C333.144 420.105 332.953 419.535 332.57 419.162C332.187 418.789 331.693 418.602 331.086 418.602C330.479 418.602 329.985 418.789 329.602 419.162C329.219 419.535 329.028 420.105 329.028 420.87V421.906C329.028 422.671 329.219 423.241 329.602 423.614C329.985 423.987 330.479 424.174 331.086 424.174ZM342.28 425.798C342.28 426.545 341.986 427.091 341.398 427.436C340.819 427.791 339.947 427.968 338.78 427.968C337.651 427.968 336.839 427.814 336.344 427.506C335.849 427.198 335.602 426.759 335.602 426.19C335.602 425.798 335.705 425.49 335.91 425.266C336.115 425.051 336.395 424.893 336.75 424.79V424.636C336.321 424.431 336.106 424.095 336.106 423.628C336.106 423.264 336.223 422.989 336.456 422.802C336.689 422.606 336.988 422.461 337.352 422.368V422.312C336.923 422.107 336.587 421.813 336.344 421.43C336.111 421.047 335.994 420.604 335.994 420.1C335.994 419.736 336.059 419.4 336.19 419.092C336.321 418.784 336.503 418.523 336.736 418.308C336.979 418.084 337.263 417.911 337.59 417.79C337.926 417.669 338.299 417.608 338.71 417.608C339.223 417.608 339.681 417.701 340.082 417.888V417.762C340.082 417.482 340.147 417.253 340.278 417.076C340.409 416.889 340.623 416.796 340.922 416.796H342V417.776H340.628V418.238C340.889 418.462 341.09 418.733 341.23 419.05C341.379 419.358 341.454 419.708 341.454 420.1C341.454 420.464 341.389 420.8 341.258 421.108C341.127 421.416 340.941 421.682 340.698 421.906C340.465 422.121 340.18 422.289 339.844 422.41C339.508 422.531 339.135 422.592 338.724 422.592C338.491 422.592 338.257 422.569 338.024 422.522C337.781 422.587 337.562 422.685 337.366 422.816C337.17 422.937 337.072 423.11 337.072 423.334C337.072 423.549 337.175 423.693 337.38 423.768C337.585 423.843 337.851 423.88 338.178 423.88H339.718C340.614 423.88 341.263 424.053 341.664 424.398C342.075 424.734 342.28 425.201 342.28 425.798ZM341.23 425.882C341.23 425.593 341.118 425.359 340.894 425.182C340.679 425.014 340.292 424.93 339.732 424.93H337.324C336.876 425.135 336.652 425.462 336.652 425.91C336.652 426.227 336.769 426.498 337.002 426.722C337.245 426.946 337.651 427.058 338.22 427.058H339.256C339.881 427.058 340.367 426.96 340.712 426.764C341.057 426.568 341.23 426.274 341.23 425.882ZM338.724 421.696C339.2 421.696 339.578 421.584 339.858 421.36C340.138 421.127 340.278 420.772 340.278 420.296V419.904C340.278 419.428 340.138 419.078 339.858 418.854C339.578 418.621 339.2 418.504 338.724 418.504C338.248 418.504 337.87 418.621 337.59 418.854C337.31 419.078 337.17 419.428 337.17 419.904V420.296C337.17 420.772 337.31 421.127 337.59 421.36C337.87 421.584 338.248 421.696 338.724 421.696ZM344.146 416.082C343.904 416.082 343.726 416.026 343.614 415.914C343.512 415.793 343.46 415.639 343.46 415.452V415.27C343.46 415.083 343.512 414.934 343.614 414.822C343.726 414.701 343.904 414.64 344.146 414.64C344.389 414.64 344.562 414.701 344.664 414.822C344.776 414.934 344.832 415.083 344.832 415.27V415.452C344.832 415.639 344.776 415.793 344.664 415.914C344.562 416.026 344.389 416.082 344.146 416.082ZM343.586 417.776H344.706V425H343.586V417.776ZM347.086 425V417.776H348.206V418.952H348.262C348.44 418.541 348.687 418.215 349.004 417.972C349.331 417.729 349.765 417.608 350.306 417.608C351.053 417.608 351.641 417.851 352.07 418.336C352.509 418.812 352.728 419.489 352.728 420.366V425H351.608V420.562C351.608 419.265 351.062 418.616 349.97 418.616C349.746 418.616 349.527 418.644 349.312 418.7C349.107 418.756 348.92 418.84 348.752 418.952C348.584 419.064 348.449 419.209 348.346 419.386C348.253 419.554 348.206 419.755 348.206 419.988V425H347.086Z" fill="#1675E0"/>
</g>
<defs>
<filter id="filter0_d_151_4110" x="0" y="0" width="462" height="480" filterUnits="userSpaceOnUse" color-interpolation-filters="sRGB">
<feFlood flood-opacity="0" result="BackgroundImageFix"/>
<feColorMatrix in="SourceAlpha" type="matrix" values="0 0 0 0 0 0 0 0 0 0 0 0 0 0 0 0 0 0 127 0" result="hardAlpha"/>
<feOffset dy="3"/>
<feGaussianBlur stdDeviation="3.5"/>
<feColorMatrix type="matrix" values="0 0 0 0 0 0 0 0 0 0 0 0 0 0 0 0 0 0 0.2 0"/>
<feBlend mode="normal" in2="BackgroundImageFix" result="effect1_dropShadow_151_4110"/>
<feBlend mode="normal" in="SourceGraphic" in2="effect1_dropShadow_151_4110" result="shape"/>
</filter>
<clipPath id="clip0_151_4110">
<rect width="12" height="16" fill="white" transform="translate(155.5 250)"/>
</clipPath>
</defs>
</svg>
