<svg width="750" height="191" viewBox="0 0 750 191" fill="none" xmlns="http://www.w3.org/2000/svg">
<path d="M142.198 25.2065C141.895 24.1523 141.469 23.2209 140.92 22.4122C140.372 21.589 139.7 20.8958 138.906 20.3326C138.126 19.755 137.231 19.3145 136.22 19.0112C135.223 18.708 134.119 18.5563 132.905 18.5563C130.638 18.5563 128.645 19.1195 126.927 20.246C125.223 21.3724 123.894 23.0115 122.941 25.1632C121.988 27.3005 121.511 29.9144 121.511 33.0048C121.511 36.0953 121.981 38.7236 122.919 40.8898C123.858 43.056 125.187 44.7095 126.905 45.8504C128.624 46.9768 130.653 47.54 132.992 47.54C135.115 47.54 136.927 47.1645 138.429 46.4136C139.946 45.6482 141.101 44.5723 141.895 43.1859C142.704 41.7996 143.108 40.1605 143.108 38.2687L145.014 38.5503H133.577V31.4885H152.141V37.0773C152.141 40.9764 151.318 44.3268 149.672 47.1284C148.026 49.9156 145.758 52.0673 142.87 53.5837C139.982 55.0856 136.675 55.8365 132.949 55.8365C128.79 55.8365 125.136 54.9195 121.988 53.0854C118.84 51.237 116.385 48.6159 114.623 45.2222C112.875 41.814 112.002 37.7705 112.002 33.0915C112.002 29.4956 112.522 26.2896 113.561 23.4736C114.616 20.6431 116.089 18.2458 117.98 16.2818C119.872 14.3178 122.075 12.8231 124.587 11.7978C127.1 10.7725 129.822 10.2598 132.754 10.2598C135.267 10.2598 137.606 10.6281 139.772 11.3646C141.939 12.0866 143.859 13.112 145.534 14.4406C147.224 15.7692 148.603 17.3505 149.672 19.1845C150.74 21.0041 151.426 23.0115 151.73 25.2065H142.198ZM172.256 55.8798C168.833 55.8798 165.887 55.1867 163.418 53.8003C160.963 52.3995 159.071 50.421 157.742 47.8649C156.414 45.2944 155.749 42.2545 155.749 38.7452C155.749 35.3227 156.414 32.3189 157.742 29.7339C159.071 27.1489 160.941 25.1343 163.353 23.6902C165.779 22.2461 168.624 21.524 171.888 21.524C174.083 21.524 176.126 21.8778 178.018 22.5854C179.924 23.2786 181.585 24.3256 183 25.7264C184.43 27.1272 185.542 28.8891 186.336 31.0119C187.13 33.1204 187.528 35.5898 187.528 38.4203V40.9548H159.432V35.236H178.841C178.841 33.9074 178.552 32.7305 177.975 31.7051C177.397 30.6798 176.595 29.8783 175.57 29.3006C174.559 28.7086 173.382 28.4125 172.039 28.4125C170.638 28.4125 169.396 28.7374 168.313 29.3873C167.245 30.0227 166.407 30.882 165.801 31.9651C165.194 33.0337 164.884 34.2251 164.869 35.5393V40.9764C164.869 42.6227 165.172 44.0452 165.779 45.2438C166.4 46.4425 167.274 47.3667 168.4 48.0166C169.526 48.6664 170.862 48.9913 172.408 48.9913C173.433 48.9913 174.372 48.8469 175.224 48.5581C176.076 48.2693 176.805 47.836 177.411 47.2584C178.018 46.6807 178.48 45.9731 178.798 45.1355L187.333 45.6987C186.899 47.7494 186.011 49.5401 184.668 51.0709C183.34 52.5872 181.621 53.7714 179.513 54.6234C177.419 55.461 175 55.8798 172.256 55.8798ZM209.326 21.9573V28.8891H189.289V21.9573H209.326ZM193.838 13.9857H203.066V45.0055C203.066 45.8576 203.196 46.5219 203.456 46.9984C203.716 47.4606 204.077 47.7855 204.539 47.9732C205.016 48.161 205.564 48.2548 206.185 48.2548C206.619 48.2548 207.052 48.2187 207.485 48.1465C207.918 48.0599 208.25 47.9949 208.482 47.9516L209.933 54.8184C209.471 54.9628 208.821 55.1289 207.983 55.3166C207.146 55.5188 206.128 55.6416 204.929 55.6849C202.705 55.7715 200.755 55.4755 199.08 54.7967C197.42 54.118 196.127 53.0638 195.203 51.6341C194.279 50.2044 193.824 48.3993 193.838 46.2186V13.9857ZM253.298 31.4452L244.85 31.9651C244.705 31.243 244.395 30.5931 243.918 30.0155C243.441 29.4234 242.813 28.9541 242.033 28.6075C241.268 28.2464 240.351 28.0659 239.282 28.0659C237.853 28.0659 236.647 28.3692 235.665 28.9757C234.683 29.5678 234.192 30.3621 234.192 31.3585C234.192 32.1528 234.51 32.8243 235.145 33.3731C235.78 33.9219 236.871 34.3623 238.416 34.6945L244.438 35.9075C247.673 36.5718 250.084 37.6405 251.673 39.1135C253.262 40.5865 254.056 42.5216 254.056 44.9189C254.056 47.0995 253.413 49.013 252.128 50.6593C250.857 52.3056 249.11 53.5909 246.886 54.5151C244.676 55.4249 242.127 55.8798 239.239 55.8798C234.834 55.8798 231.325 54.9628 228.711 53.1288C226.112 51.2803 224.588 48.7675 224.141 45.5904L233.217 45.1139C233.491 46.4569 234.156 47.4822 235.21 48.1899C236.264 48.883 237.614 49.2296 239.261 49.2296C240.878 49.2296 242.178 48.9191 243.16 48.2982C244.156 47.6627 244.662 46.8468 244.676 45.8504C244.662 45.0128 244.308 44.3268 243.615 43.7925C242.922 43.2437 241.853 42.8249 240.409 42.5361L234.647 41.388C231.397 40.7381 228.979 39.6117 227.39 38.0087C225.816 36.4058 225.029 34.3623 225.029 31.8784C225.029 29.7411 225.606 27.8998 226.762 26.3546C227.932 24.8094 229.571 23.618 231.679 22.7804C233.802 21.9428 236.286 21.524 239.131 21.524C243.333 21.524 246.64 22.4122 249.052 24.1884C251.478 25.9647 252.893 28.3836 253.298 31.4452ZM275.643 21.9573V28.8891H255.606V21.9573H275.643ZM260.155 13.9857H269.383V45.0055C269.383 45.8576 269.513 46.5219 269.773 46.9984C270.033 47.4606 270.394 47.7855 270.856 47.9732C271.333 48.161 271.881 48.2548 272.502 48.2548C272.936 48.2548 273.369 48.2187 273.802 48.1465C274.235 48.0599 274.568 47.9949 274.799 47.9516L276.25 54.8184C275.788 54.9628 275.138 55.1289 274.3 55.3166C273.463 55.5188 272.445 55.6416 271.246 55.6849C269.022 55.7715 267.073 55.4755 265.397 54.7967C263.737 54.118 262.444 53.0638 261.52 51.6341C260.596 50.2044 260.141 48.3993 260.155 46.2186V13.9857ZM289.222 55.8582C287.099 55.8582 285.207 55.4899 283.546 54.7534C281.885 54.0025 280.571 52.8977 279.604 51.4391C278.651 49.9661 278.174 48.1321 278.174 45.937C278.174 44.0885 278.513 42.5361 279.192 41.2797C279.871 40.0233 280.795 39.0124 281.965 38.247C283.135 37.4816 284.463 36.904 285.951 36.5141C287.452 36.1242 289.027 35.8498 290.673 35.6909C292.608 35.4887 294.168 35.301 295.352 35.1277C296.536 34.94 297.395 34.6656 297.93 34.3046C298.464 33.9435 298.731 33.4092 298.731 32.7016V32.5716C298.731 31.1997 298.298 30.1382 297.431 29.3873C296.579 28.6363 295.366 28.2609 293.792 28.2609C292.131 28.2609 290.81 28.6291 289.828 29.3656C288.846 30.0877 288.196 30.9975 287.879 32.095L279.344 31.4019C279.777 29.3801 280.629 27.6327 281.9 26.1597C283.171 24.6722 284.81 23.5314 286.817 22.7371C288.839 21.9284 291.178 21.524 293.836 21.524C295.684 21.524 297.453 21.7406 299.143 22.1739C300.847 22.6071 302.356 23.2786 303.67 24.1884C304.999 25.0982 306.046 26.268 306.811 27.6977C307.576 29.1129 307.959 30.8098 307.959 32.7882V55.23H299.208V50.616H298.948C298.413 51.6558 297.699 52.5728 296.803 53.3671C295.908 54.1469 294.832 54.7606 293.576 55.2083C292.319 55.6416 290.868 55.8582 289.222 55.8582ZM291.864 49.4896C293.222 49.4896 294.42 49.2224 295.46 48.6881C296.5 48.1393 297.316 47.4028 297.908 46.4786C298.5 45.5543 298.796 44.5073 298.796 43.3376V39.8067C298.507 39.9944 298.11 40.1677 297.605 40.3266C297.114 40.471 296.558 40.6082 295.937 40.7381C295.316 40.8537 294.695 40.962 294.074 41.0631C293.453 41.1497 292.89 41.2292 292.384 41.3014C291.301 41.4602 290.355 41.7129 289.546 42.0595C288.738 42.4061 288.11 42.8755 287.662 43.4676C287.214 44.0452 286.99 44.7673 286.99 45.6337C286.99 46.8901 287.445 47.8505 288.355 48.5148C289.279 49.1646 290.449 49.4896 291.864 49.4896ZM313.197 55.23V21.9573H322.144V27.7627H322.49C323.097 25.6975 324.115 24.1379 325.545 23.0837C326.974 22.015 328.621 21.4807 330.484 21.4807C330.946 21.4807 331.444 21.5096 331.978 21.5673C332.513 21.6251 332.982 21.7045 333.386 21.8056V29.9938C332.953 29.8639 332.354 29.7483 331.588 29.6472C330.823 29.5461 330.123 29.4956 329.487 29.4956C328.13 29.4956 326.917 29.7917 325.848 30.3837C324.794 30.9614 323.956 31.7701 323.335 32.8099C322.729 33.8497 322.425 35.0483 322.425 36.4058V55.23H313.197ZM355.602 21.9573V28.8891H335.565V21.9573H355.602ZM340.114 13.9857H349.342V45.0055C349.342 45.8576 349.472 46.5219 349.732 46.9984C349.992 47.4606 350.353 47.7855 350.815 47.9732C351.291 48.161 351.84 48.2548 352.461 48.2548C352.894 48.2548 353.328 48.2187 353.761 48.1465C354.194 48.0599 354.526 47.9949 354.757 47.9516L356.209 54.8184C355.747 54.9628 355.097 55.1289 354.259 55.3166C353.421 55.5188 352.403 55.6416 351.205 55.6849C348.981 55.7715 347.031 55.4755 345.356 54.7967C343.695 54.118 342.403 53.0638 341.479 51.6341C340.554 50.2044 340.099 48.3993 340.114 46.2186V13.9857ZM374.498 55.8798C371.076 55.8798 368.13 55.1867 365.66 53.8003C363.205 52.3995 361.313 50.421 359.985 47.8649C358.656 45.2944 357.992 42.2545 357.992 38.7452C357.992 35.3227 358.656 32.3189 359.985 29.7339C361.313 27.1489 363.183 25.1343 365.595 23.6902C368.021 22.2461 370.866 21.524 374.13 21.524C376.325 21.524 378.368 21.8778 380.26 22.5854C382.167 23.2786 383.827 24.3256 385.243 25.7264C386.672 27.1272 387.784 28.8891 388.578 31.0119C389.373 33.1204 389.77 35.5898 389.77 38.4203V40.9548H361.674V35.236H381.083C381.083 33.9074 380.795 32.7305 380.217 31.7051C379.639 30.6798 378.838 29.8783 377.812 29.3006C376.802 28.7086 375.625 28.4125 374.282 28.4125C372.881 28.4125 371.639 28.7374 370.556 29.3873C369.487 30.0227 368.65 30.882 368.043 31.9651C367.436 33.0337 367.126 34.2251 367.112 35.5393V40.9764C367.112 42.6227 367.415 44.0452 368.021 45.2438C368.642 46.4425 369.516 47.3667 370.642 48.0166C371.769 48.6664 373.105 48.9913 374.65 48.9913C375.675 48.9913 376.614 48.8469 377.466 48.5581C378.318 48.2693 379.047 47.836 379.654 47.2584C380.26 46.6807 380.722 45.9731 381.04 45.1355L389.575 45.6987C389.142 47.7494 388.254 49.5401 386.911 51.0709C385.582 52.5872 383.863 53.7714 381.755 54.6234C379.661 55.461 377.242 55.8798 374.498 55.8798ZM406.132 55.7715C403.604 55.7715 401.315 55.1217 399.265 53.822C397.229 52.5078 395.611 50.5799 394.412 48.0382C393.228 45.4821 392.636 42.3484 392.636 38.6369C392.636 34.8244 393.25 31.6546 394.477 29.1274C395.705 26.5857 397.337 24.6867 399.373 23.4303C401.424 22.1594 403.669 21.524 406.11 21.524C407.973 21.524 409.525 21.8417 410.767 22.4771C412.024 23.0981 413.035 23.8779 413.8 24.8166C414.58 25.7409 415.172 26.6507 415.576 27.546H415.858V10.8663H425.064V55.23H415.966V49.9011H415.576C415.143 50.8254 414.529 51.7424 413.735 52.6522C412.955 53.5476 411.937 54.2913 410.681 54.8834C409.439 55.4755 407.922 55.7715 406.132 55.7715ZM409.056 48.4281C410.543 48.4281 411.8 48.0238 412.825 47.2151C413.865 46.3919 414.659 45.2438 415.208 43.7708C415.771 42.2978 416.053 40.5721 416.053 38.5936C416.053 36.6152 415.778 34.8966 415.23 33.4381C414.681 31.9795 413.887 30.8531 412.847 30.0588C411.807 29.2645 410.543 28.8674 409.056 28.8674C407.54 28.8674 406.262 29.279 405.222 30.1021C404.182 30.9253 403.395 32.0662 402.861 33.5247C402.326 34.9833 402.059 36.6729 402.059 38.5936C402.059 40.5287 402.326 42.24 402.861 43.7275C403.409 45.2005 404.196 46.3558 405.222 47.1934C406.262 48.0166 407.54 48.4281 409.056 48.4281ZM460.82 21.9573V28.8891H440.285V21.9573H460.82ZM444.985 55.23V19.5528C444.985 17.1411 445.455 15.141 446.393 13.5524C447.346 11.9639 448.646 10.7725 450.292 9.9782C451.939 9.18393 453.809 8.7868 455.903 8.7868C457.318 8.7868 458.611 8.89511 459.78 9.11173C460.965 9.32835 461.845 9.5233 462.423 9.6966L460.777 16.6284C460.416 16.5129 459.968 16.4046 459.434 16.3035C458.914 16.2024 458.38 16.1519 457.831 16.1519C456.473 16.1519 455.527 16.4696 454.993 17.105C454.459 17.726 454.192 18.5997 454.192 19.7261V55.23H444.985ZM478.379 55.8798C475.014 55.8798 472.104 55.165 469.649 53.7353C467.208 52.2912 465.324 50.2838 463.995 47.7133C462.666 45.1283 462.002 42.1317 462.002 38.7236C462.002 35.2866 462.666 32.2828 463.995 29.7122C465.324 27.1272 467.208 25.1199 469.649 23.6902C472.104 22.2461 475.014 21.524 478.379 21.524C481.743 21.524 484.646 22.2461 487.087 23.6902C489.542 25.1199 491.434 27.1272 492.762 29.7122C494.091 32.2828 494.755 35.2866 494.755 38.7236C494.755 42.1317 494.091 45.1283 492.762 47.7133C491.434 50.2838 489.542 52.2912 487.087 53.7353C484.646 55.165 481.743 55.8798 478.379 55.8798ZM478.422 48.7314C479.953 48.7314 481.231 48.2982 482.256 47.4317C483.281 46.5508 484.054 45.3521 484.574 43.8358C485.108 42.3195 485.375 40.5937 485.375 38.6586C485.375 36.7235 485.108 34.9977 484.574 33.4814C484.054 31.9651 483.281 30.7664 482.256 29.8855C481.231 29.0046 479.953 28.5641 478.422 28.5641C476.877 28.5641 475.577 29.0046 474.523 29.8855C473.483 30.7664 472.696 31.9651 472.162 33.4814C471.642 34.9977 471.382 36.7235 471.382 38.6586C471.382 40.5937 471.642 42.3195 472.162 43.8358C472.696 45.3521 473.483 46.5508 474.523 47.4317C475.577 48.2982 476.877 48.7314 478.422 48.7314ZM498.834 55.23V21.9573H507.781V27.7627H508.127C508.734 25.6975 509.752 24.1379 511.182 23.0837C512.611 22.015 514.258 21.4807 516.121 21.4807C516.583 21.4807 517.081 21.5096 517.615 21.5673C518.15 21.6251 518.619 21.7045 519.023 21.8056V29.9938C518.59 29.8639 517.991 29.7483 517.225 29.6472C516.46 29.5461 515.76 29.4956 515.124 29.4956C513.767 29.4956 512.554 29.7917 511.485 30.3837C510.431 30.9614 509.593 31.7701 508.972 32.8099C508.366 33.8497 508.062 35.0483 508.062 36.4058V55.23H498.834ZM551.963 21.9573V28.8891H531.428V21.9573H551.963ZM536.128 55.23V19.5528C536.128 17.1411 536.598 15.141 537.536 13.5524C538.49 11.9639 539.789 10.7725 541.436 9.9782C543.082 9.18393 544.952 8.7868 547.046 8.7868C548.461 8.7868 549.754 8.89511 550.923 9.11173C552.108 9.32835 552.989 9.5233 553.566 9.6966L551.92 16.6284C551.559 16.5129 551.111 16.4046 550.577 16.3035C550.057 16.2024 549.523 16.1519 548.974 16.1519C547.616 16.1519 546.671 16.4696 546.136 17.105C545.602 17.726 545.335 18.5997 545.335 19.7261V55.23H536.128ZM555.68 55.23V21.9573H564.626V27.7627H564.973C565.579 25.6975 566.597 24.1379 568.027 23.0837C569.457 22.015 571.103 21.4807 572.966 21.4807C573.428 21.4807 573.926 21.5096 574.461 21.5673C574.995 21.6251 575.464 21.7045 575.869 21.8056V29.9938C575.435 29.8639 574.836 29.7483 574.071 29.6472C573.305 29.5461 572.605 29.4956 571.97 29.4956C570.612 29.4956 569.399 29.7917 568.33 30.3837C567.276 30.9614 566.439 31.7701 565.818 32.8099C565.211 33.8497 564.908 35.0483 564.908 36.4058V55.23H555.68ZM592.333 55.8798C588.911 55.8798 585.965 55.1867 583.495 53.8003C581.04 52.3995 579.148 50.421 577.82 47.8649C576.491 45.2944 575.827 42.2545 575.827 38.7452C575.827 35.3227 576.491 32.3189 577.82 29.7339C579.148 27.1489 581.018 25.1343 583.43 23.6902C585.856 22.2461 588.701 21.524 591.965 21.524C594.16 21.524 596.204 21.8778 598.095 22.5854C600.002 23.2786 601.662 24.3256 603.078 25.7264C604.507 27.1272 605.619 28.8891 606.414 31.0119C607.208 33.1204 607.605 35.5898 607.605 38.4203V40.9548H579.509V35.236H598.918C598.918 33.9074 598.63 32.7305 598.052 31.7051C597.474 30.6798 596.673 29.8783 595.648 29.3006C594.637 28.7086 593.46 28.4125 592.117 28.4125C590.716 28.4125 589.474 28.7374 588.391 29.3873C587.322 30.0227 586.485 30.882 585.878 31.9651C585.271 33.0337 584.961 34.2251 584.947 35.5393V40.9764C584.947 42.6227 585.25 44.0452 585.856 45.2438C586.477 46.4425 587.351 47.3667 588.477 48.0166C589.604 48.6664 590.94 48.9913 592.485 48.9913C593.51 48.9913 594.449 48.8469 595.301 48.5581C596.153 48.2693 596.882 47.836 597.489 47.2584C598.095 46.6807 598.557 45.9731 598.875 45.1355L607.41 45.6987C606.977 47.7494 606.089 49.5401 604.746 51.0709C603.417 52.5872 601.698 53.7714 599.59 54.6234C597.496 55.461 595.077 55.8798 592.333 55.8798ZM626.869 55.8798C623.447 55.8798 620.501 55.1867 618.031 53.8003C615.576 52.3995 613.684 50.421 612.356 47.8649C611.027 45.2944 610.363 42.2545 610.363 38.7452C610.363 35.3227 611.027 32.3189 612.356 29.7339C613.684 27.1489 615.555 25.1343 617.966 23.6902C620.392 22.2461 623.237 21.524 626.501 21.524C628.696 21.524 630.74 21.8778 632.631 22.5854C634.538 23.2786 636.198 24.3256 637.614 25.7264C639.043 27.1272 640.155 28.8891 640.95 31.0119C641.744 33.1204 642.141 35.5898 642.141 38.4203V40.9548H614.045V35.236H633.455C633.455 33.9074 633.166 32.7305 632.588 31.7051C632.01 30.6798 631.209 29.8783 630.184 29.3006C629.173 28.7086 627.996 28.4125 626.653 28.4125C625.252 28.4125 624.01 28.7374 622.927 29.3873C621.858 30.0227 621.021 30.882 620.414 31.9651C619.807 33.0337 619.497 34.2251 619.483 35.5393V40.9764C619.483 42.6227 619.786 44.0452 620.392 45.2438C621.013 46.4425 621.887 47.3667 623.013 48.0166C624.14 48.6664 625.476 48.9913 627.021 48.9913C628.046 48.9913 628.985 48.8469 629.837 48.5581C630.689 48.2693 631.418 47.836 632.025 47.2584C632.631 46.6807 633.093 45.9731 633.411 45.1355L641.946 45.6987C641.513 47.7494 640.625 49.5401 639.282 51.0709C637.953 52.5872 636.234 53.7714 634.126 54.6234C632.032 55.461 629.613 55.8798 626.869 55.8798Z" fill="#121212"/>
<path d="M176.924 98.23V86.5936H180.856C181.768 86.5936 182.515 86.7584 183.094 87.0879C183.678 87.4137 184.109 87.855 184.39 88.4118C184.67 88.9686 184.81 89.5898 184.81 90.2754C184.81 90.961 184.67 91.5841 184.39 92.1448C184.113 92.7054 183.685 93.1523 183.106 93.4857C182.526 93.8152 181.784 93.98 180.878 93.98H178.06V92.73H180.833C181.458 92.73 181.96 92.622 182.339 92.4061C182.717 92.1902 182.992 91.8985 183.162 91.5311C183.337 91.1599 183.424 90.7413 183.424 90.2754C183.424 89.8095 183.337 89.3929 183.162 89.0254C182.992 88.658 182.715 88.3701 182.333 88.1618C181.95 87.9497 181.443 87.8436 180.81 87.8436H178.333V98.23H176.924ZM188.247 86.5936V98.23H186.906V86.5936H188.247ZM193.279 98.4345C192.726 98.4345 192.224 98.3304 191.774 98.122C191.323 97.9099 190.965 97.605 190.7 97.2073C190.435 96.8057 190.302 96.3209 190.302 95.7527C190.302 95.2527 190.4 94.8474 190.597 94.5368C190.794 94.2224 191.058 93.9762 191.387 93.7982C191.717 93.6201 192.08 93.4876 192.478 93.4004C192.88 93.3095 193.283 93.2376 193.688 93.1845C194.219 93.1163 194.649 93.0652 194.978 93.0311C195.311 92.9932 195.554 92.9307 195.705 92.8436C195.861 92.7565 195.938 92.605 195.938 92.3891V92.3436C195.938 91.783 195.785 91.3474 195.478 91.0368C195.175 90.7262 194.715 90.5709 194.097 90.5709C193.457 90.5709 192.955 90.711 192.592 90.9913C192.228 91.2716 191.972 91.5709 191.825 91.8891L190.552 91.4345C190.779 90.9042 191.082 90.4913 191.461 90.1959C191.844 89.8966 192.26 89.6883 192.711 89.5709C193.166 89.4497 193.613 89.3891 194.052 89.3891C194.332 89.3891 194.654 89.4232 195.018 89.4913C195.385 89.5557 195.739 89.6902 196.08 89.8948C196.425 90.0993 196.711 90.408 196.938 90.8209C197.166 91.2338 197.279 91.7868 197.279 92.48V98.23H195.938V97.0482H195.87C195.779 97.2376 195.628 97.4402 195.416 97.6561C195.203 97.872 194.921 98.0557 194.569 98.2073C194.217 98.3588 193.787 98.4345 193.279 98.4345ZM193.484 97.23C194.014 97.23 194.461 97.1258 194.825 96.9175C195.192 96.7091 195.469 96.4402 195.654 96.1107C195.844 95.7811 195.938 95.4345 195.938 95.0709V93.8436C195.882 93.9118 195.757 93.9743 195.563 94.0311C195.374 94.0841 195.154 94.1315 194.904 94.1732C194.658 94.211 194.417 94.2451 194.183 94.2754C193.952 94.302 193.764 94.3247 193.62 94.3436C193.272 94.3891 192.946 94.4629 192.643 94.5652C192.344 94.6637 192.101 94.8133 191.916 95.0141C191.734 95.211 191.643 95.48 191.643 95.8209C191.643 96.2868 191.815 96.6391 192.16 96.8777C192.508 97.1126 192.95 97.23 193.484 97.23ZM200.286 101.503C200.059 101.503 199.856 101.484 199.678 101.446C199.5 101.412 199.377 101.378 199.309 101.344L199.649 100.162C199.975 100.245 200.263 100.275 200.513 100.253C200.763 100.23 200.985 100.118 201.178 99.9175C201.375 99.7205 201.555 99.4004 201.718 98.9573L201.968 98.2754L198.74 89.5027H200.195L202.604 96.4573H202.695L205.104 89.5027H206.559L202.854 99.5027C202.687 99.9535 202.481 100.327 202.235 100.622C201.988 100.921 201.702 101.143 201.377 101.287C201.055 101.431 200.691 101.503 200.286 101.503ZM215.413 98.4345C214.86 98.4345 214.358 98.3304 213.907 98.122C213.456 97.9099 213.098 97.605 212.833 97.2073C212.568 96.8057 212.435 96.3209 212.435 95.7527C212.435 95.2527 212.534 94.8474 212.731 94.5368C212.928 94.2224 213.191 93.9762 213.521 93.7982C213.85 93.6201 214.214 93.4876 214.611 93.4004C215.013 93.3095 215.416 93.2376 215.822 93.1845C216.352 93.1163 216.782 93.0652 217.111 93.0311C217.445 92.9932 217.687 92.9307 217.839 92.8436C217.994 92.7565 218.072 92.605 218.072 92.3891V92.3436C218.072 91.783 217.918 91.3474 217.611 91.0368C217.308 90.7262 216.848 90.5709 216.231 90.5709C215.591 90.5709 215.089 90.711 214.725 90.9913C214.361 91.2716 214.106 91.5709 213.958 91.8891L212.685 91.4345C212.913 90.9042 213.216 90.4913 213.594 90.1959C213.977 89.8966 214.394 89.6883 214.844 89.5709C215.299 89.4497 215.746 89.3891 216.185 89.3891C216.466 89.3891 216.788 89.4232 217.151 89.4913C217.519 89.5557 217.873 89.6902 218.214 89.8948C218.558 90.0993 218.844 90.408 219.072 90.8209C219.299 91.2338 219.413 91.7868 219.413 92.48V98.23H218.072V97.0482H218.004C217.913 97.2376 217.761 97.4402 217.549 97.6561C217.337 97.872 217.055 98.0557 216.702 98.2073C216.35 98.3588 215.92 98.4345 215.413 98.4345ZM215.617 97.23C216.147 97.23 216.594 97.1258 216.958 96.9175C217.325 96.7091 217.602 96.4402 217.788 96.1107C217.977 95.7811 218.072 95.4345 218.072 95.0709V93.8436C218.015 93.9118 217.89 93.9743 217.697 94.0311C217.507 94.0841 217.288 94.1315 217.038 94.1732C216.791 94.211 216.551 94.2451 216.316 94.2754C216.085 94.302 215.897 94.3247 215.754 94.3436C215.405 94.3891 215.079 94.4629 214.776 94.5652C214.477 94.6637 214.235 94.8133 214.049 95.0141C213.867 95.211 213.776 95.48 213.776 95.8209C213.776 96.2868 213.949 96.6391 214.293 96.8777C214.642 97.1126 215.083 97.23 215.617 97.23ZM221.868 98.23V89.5027H223.164V90.8209H223.254C223.414 90.3891 223.701 90.0387 224.118 89.7698C224.535 89.5008 225.004 89.3663 225.527 89.3663C225.626 89.3663 225.749 89.3682 225.896 89.372C226.044 89.3758 226.156 89.3815 226.232 89.3891V90.7527C226.186 90.7413 226.082 90.7243 225.919 90.7016C225.76 90.6751 225.592 90.6618 225.414 90.6618C224.989 90.6618 224.61 90.7508 224.277 90.9288C223.948 91.1031 223.686 91.3455 223.493 91.6561C223.304 91.9629 223.209 92.3133 223.209 92.7073V98.23H221.868ZM231.109 98.4118C230.321 98.4118 229.63 98.2243 229.035 97.8493C228.444 97.4743 227.982 96.9497 227.649 96.2754C227.319 95.6012 227.154 94.8133 227.154 93.9118C227.154 93.0027 227.319 92.2091 227.649 91.5311C227.982 90.8531 228.444 90.3266 229.035 89.9516C229.63 89.5766 230.321 89.3891 231.109 89.3891C231.897 89.3891 232.586 89.5766 233.177 89.9516C233.772 90.3266 234.234 90.8531 234.564 91.5311C234.897 92.2091 235.064 93.0027 235.064 93.9118C235.064 94.8133 234.897 95.6012 234.564 96.2754C234.234 96.9497 233.772 97.4743 233.177 97.8493C232.586 98.2243 231.897 98.4118 231.109 98.4118ZM231.109 97.2073C231.707 97.2073 232.2 97.0538 232.586 96.747C232.973 96.4402 233.259 96.0368 233.444 95.5368C233.63 95.0368 233.723 94.4951 233.723 93.9118C233.723 93.3285 233.63 92.7849 233.444 92.2811C233.259 91.7773 232.973 91.3701 232.586 91.0595C232.2 90.7489 231.707 90.5936 231.109 90.5936C230.511 90.5936 230.018 90.7489 229.632 91.0595C229.245 91.3701 228.959 91.7773 228.774 92.2811C228.588 92.7849 228.495 93.3285 228.495 93.9118C228.495 94.4951 228.588 95.0368 228.774 95.5368C228.959 96.0368 229.245 96.4402 229.632 96.747C230.018 97.0538 230.511 97.2073 231.109 97.2073ZM242.618 94.6618V89.5027H243.959V98.23H242.618V96.7527H242.528C242.323 97.1959 242.005 97.5728 241.573 97.8834C241.141 98.1902 240.596 98.3436 239.937 98.3436C239.391 98.3436 238.906 98.2243 238.482 97.9857C238.058 97.7432 237.724 97.3796 237.482 96.8948C237.24 96.4061 237.118 95.7906 237.118 95.0482V89.5027H238.459V94.9573C238.459 95.5936 238.637 96.1012 238.993 96.48C239.353 96.8588 239.812 97.0482 240.368 97.0482C240.702 97.0482 241.041 96.9629 241.385 96.7925C241.734 96.622 242.026 96.3607 242.26 96.0084C242.499 95.6561 242.618 95.2073 242.618 94.6618ZM247.764 92.98V98.23H246.423V89.5027H247.719V90.8663H247.832C248.037 90.4232 248.348 90.0671 248.764 89.7982C249.181 89.5254 249.719 89.3891 250.378 89.3891C250.969 89.3891 251.486 89.5103 251.929 89.7527C252.372 89.9913 252.717 90.355 252.963 90.8436C253.209 91.3285 253.332 91.9421 253.332 92.6845V98.23H251.991V92.7754C251.991 92.0898 251.813 91.5557 251.457 91.1732C251.101 90.7868 250.613 90.5936 249.991 90.5936C249.563 90.5936 249.181 90.6864 248.844 90.872C248.51 91.0576 248.247 91.3285 248.054 91.6845C247.861 92.0406 247.764 92.4724 247.764 92.98ZM259.086 98.4118C258.359 98.4118 257.717 98.2281 257.16 97.8607C256.603 97.4895 256.168 96.9667 255.853 96.2925C255.539 95.6145 255.382 94.8133 255.382 93.8891C255.382 92.9724 255.539 92.1769 255.853 91.5027C256.168 90.8285 256.605 90.3076 257.166 89.9402C257.726 89.5728 258.374 89.3891 259.109 89.3891C259.677 89.3891 260.126 89.4838 260.455 89.6732C260.789 89.8588 261.043 90.0709 261.217 90.3095C261.395 90.5444 261.533 90.7376 261.632 90.8891H261.745V86.5936H263.086V98.23H261.791V96.8891H261.632C261.533 97.0482 261.393 97.2489 261.211 97.4913C261.029 97.73 260.77 97.944 260.433 98.1334C260.096 98.319 259.647 98.4118 259.086 98.4118ZM259.268 97.2073C259.806 97.2073 260.26 97.0671 260.632 96.7868C261.003 96.5027 261.285 96.1107 261.478 95.6107C261.671 95.1069 261.768 94.5254 261.768 93.8663C261.768 93.2148 261.673 92.6448 261.484 92.1561C261.294 91.6637 261.014 91.2811 260.643 91.0084C260.272 90.7319 259.813 90.5936 259.268 90.5936C258.7 90.5936 258.226 90.7394 257.847 91.0311C257.472 91.319 257.19 91.711 257.001 92.2073C256.815 92.6997 256.722 93.2527 256.722 93.8663C256.722 94.4876 256.817 95.052 257.007 95.5595C257.2 96.0633 257.484 96.4648 257.859 96.7641C258.238 97.0595 258.707 97.2073 259.268 97.2073ZM272.221 98.23L269.562 89.5027H270.971L272.858 96.1845H272.949L274.812 89.5027H276.244L278.085 96.1618H278.176L280.062 89.5027H281.471L278.812 98.23H277.494L275.585 91.5254H275.449L273.54 98.23H272.221ZM283.252 98.23V89.5027H284.593V98.23H283.252ZM283.934 88.0482C283.673 88.0482 283.447 87.9591 283.258 87.7811C283.072 87.6031 282.979 87.3891 282.979 87.1391C282.979 86.8891 283.072 86.6751 283.258 86.497C283.447 86.319 283.673 86.23 283.934 86.23C284.195 86.23 284.419 86.319 284.604 86.497C284.794 86.6751 284.889 86.8891 284.889 87.1391C284.889 87.3891 284.794 87.6031 284.604 87.7811C284.419 87.9591 284.195 88.0482 283.934 88.0482ZM290.853 89.5027V90.6391H286.33V89.5027H290.853ZM287.648 87.4118H288.989V95.73C288.989 96.1088 289.044 96.3929 289.154 96.5823C289.267 96.7679 289.411 96.8929 289.585 96.9573C289.763 97.0179 289.951 97.0482 290.148 97.0482C290.296 97.0482 290.417 97.0406 290.512 97.0254C290.606 97.0065 290.682 96.9913 290.739 96.98L291.012 98.1845C290.921 98.2186 290.794 98.2527 290.631 98.2868C290.468 98.3247 290.262 98.3436 290.012 98.3436C289.633 98.3436 289.262 98.2622 288.898 98.0993C288.538 97.9364 288.239 97.6883 288 97.355C287.765 97.0216 287.648 96.6012 287.648 96.0936V87.4118ZM294.406 92.98V98.23H293.065V86.5936H294.406V90.8663H294.52C294.724 90.4156 295.031 90.0576 295.44 89.7925C295.853 89.5235 296.402 89.3891 297.088 89.3891C297.682 89.3891 298.203 89.5084 298.65 89.747C299.097 89.9819 299.444 90.3436 299.69 90.8323C299.94 91.3171 300.065 91.9345 300.065 92.6845V98.23H298.724V92.7754C298.724 92.0823 298.544 91.5463 298.184 91.1675C297.828 90.7849 297.334 90.5936 296.701 90.5936C296.262 90.5936 295.868 90.6864 295.52 90.872C295.175 91.0576 294.902 91.3285 294.701 91.6845C294.504 92.0406 294.406 92.4724 294.406 92.98ZM307.034 98.23V89.5027H308.375V98.23H307.034ZM307.716 88.0482C307.455 88.0482 307.229 87.9591 307.04 87.7811C306.854 87.6031 306.761 87.3891 306.761 87.1391C306.761 86.8891 306.854 86.6751 307.04 86.497C307.229 86.319 307.455 86.23 307.716 86.23C307.977 86.23 308.201 86.319 308.386 86.497C308.576 86.6751 308.671 86.8891 308.671 87.1391C308.671 87.3891 308.576 87.6031 308.386 87.7811C308.201 87.9591 307.977 88.0482 307.716 88.0482ZM314.634 89.5027V90.6391H310.112V89.5027H314.634ZM311.43 87.4118H312.771V95.73C312.771 96.1088 312.826 96.3929 312.936 96.5823C313.049 96.7679 313.193 96.8929 313.367 96.9573C313.545 97.0179 313.733 97.0482 313.93 97.0482C314.078 97.0482 314.199 97.0406 314.294 97.0254C314.388 97.0065 314.464 96.9913 314.521 96.98L314.794 98.1845C314.703 98.2186 314.576 98.2527 314.413 98.2868C314.25 98.3247 314.044 98.3436 313.794 98.3436C313.415 98.3436 313.044 98.2622 312.68 98.0993C312.32 97.9364 312.021 97.6883 311.782 97.355C311.547 97.0216 311.43 96.6012 311.43 96.0936V87.4118ZM325.054 89.5027V90.6391H320.349V89.5027H325.054ZM321.758 98.23V88.2982C321.758 87.7982 321.876 87.3815 322.111 87.0482C322.346 86.7148 322.651 86.4648 323.026 86.2982C323.401 86.1315 323.796 86.0482 324.213 86.0482C324.543 86.0482 324.811 86.0747 325.02 86.1277C325.228 86.1807 325.383 86.23 325.486 86.2754L325.099 87.4345C325.031 87.4118 324.936 87.3834 324.815 87.3493C324.698 87.3152 324.543 87.2982 324.349 87.2982C323.906 87.2982 323.586 87.4099 323.389 87.6334C323.196 87.8569 323.099 88.1845 323.099 88.6163V98.23H321.758ZM326.941 98.23V89.5027H328.282V98.23H326.941ZM327.623 88.0482C327.362 88.0482 327.136 87.9591 326.947 87.7811C326.761 87.6031 326.668 87.3891 326.668 87.1391C326.668 86.8891 326.761 86.6751 326.947 86.497C327.136 86.319 327.362 86.23 327.623 86.23C327.884 86.23 328.108 86.319 328.293 86.497C328.483 86.6751 328.578 86.8891 328.578 87.1391C328.578 87.3891 328.483 87.6031 328.293 87.7811C328.108 87.9591 327.884 88.0482 327.623 88.0482ZM330.746 98.23V89.5027H332.041V90.8209H332.132C332.291 90.3891 332.579 90.0387 332.996 89.7698C333.413 89.5008 333.882 89.3663 334.405 89.3663C334.504 89.3663 334.627 89.3682 334.774 89.372C334.922 89.3758 335.034 89.3815 335.11 89.3891V90.7527C335.064 90.7413 334.96 90.7243 334.797 90.7016C334.638 90.6751 334.47 90.6618 334.291 90.6618C333.867 90.6618 333.488 90.7508 333.155 90.9288C332.826 91.1031 332.564 91.3455 332.371 91.6561C332.182 91.9629 332.087 92.3133 332.087 92.7073V98.23H330.746ZM342.889 91.4573L341.684 91.7982C341.609 91.5974 341.497 91.4023 341.349 91.2129C341.205 91.0198 341.008 90.8607 340.758 90.7357C340.508 90.6107 340.188 90.5482 339.798 90.5482C339.264 90.5482 338.819 90.6713 338.463 90.9175C338.111 91.1599 337.934 91.4686 337.934 91.8436C337.934 92.1769 338.056 92.4402 338.298 92.6334C338.541 92.8266 338.919 92.9876 339.434 93.1163L340.73 93.4345C341.51 93.6239 342.092 93.9137 342.474 94.3038C342.857 94.6902 343.048 95.1883 343.048 95.7982C343.048 96.2982 342.904 96.7451 342.616 97.1391C342.332 97.533 341.934 97.8436 341.423 98.0709C340.912 98.2982 340.317 98.4118 339.639 98.4118C338.749 98.4118 338.012 98.2186 337.429 97.8323C336.845 97.4459 336.476 96.8815 336.321 96.1391L337.594 95.8209C337.715 96.2906 337.944 96.6429 338.281 96.8777C338.622 97.1126 339.067 97.23 339.616 97.23C340.241 97.23 340.737 97.0974 341.105 96.8323C341.476 96.5633 341.662 96.2413 341.662 95.8663C341.662 95.5633 341.556 95.3095 341.344 95.105C341.131 94.8966 340.806 94.7413 340.366 94.6391L338.912 94.2982C338.112 94.1088 337.525 93.8152 337.15 93.4175C336.779 93.016 336.594 92.5141 336.594 91.9118C336.594 91.4194 336.732 90.9838 337.008 90.605C337.289 90.2262 337.669 89.9288 338.15 89.7129C338.635 89.497 339.184 89.3891 339.798 89.3891C340.662 89.3891 341.34 89.5785 341.832 89.9573C342.328 90.336 342.681 90.836 342.889 91.4573ZM348.87 89.5027V90.6391H344.347V89.5027H348.87ZM345.665 87.4118H347.006V95.73C347.006 96.1088 347.061 96.3929 347.171 96.5823C347.285 96.7679 347.429 96.8929 347.603 96.9573C347.781 97.0179 347.968 97.0482 348.165 97.0482C348.313 97.0482 348.434 97.0406 348.529 97.0254C348.624 97.0065 348.7 96.9913 348.756 96.98L349.029 98.1845C348.938 98.2186 348.811 98.2527 348.648 98.2868C348.486 98.3247 348.279 98.3436 348.029 98.3436C347.65 98.3436 347.279 98.2622 346.915 98.0993C346.556 97.9364 346.256 97.6883 346.018 97.355C345.783 97.0216 345.665 96.6012 345.665 96.0936V87.4118ZM351.872 98.3209C351.592 98.3209 351.351 98.2205 351.151 98.0198C350.95 97.819 350.85 97.5785 350.85 97.2982C350.85 97.0179 350.95 96.7773 351.151 96.5766C351.351 96.3758 351.592 96.2754 351.872 96.2754C352.153 96.2754 352.393 96.3758 352.594 96.5766C352.795 96.7773 352.895 97.0179 352.895 97.2982C352.895 97.4838 352.848 97.6542 352.753 97.8095C352.662 97.9648 352.539 98.0898 352.384 98.1845C352.232 98.2754 352.062 98.3209 351.872 98.3209ZM359.999 98.23V86.5936H363.931C364.844 86.5936 365.59 86.7584 366.17 87.0879C366.753 87.4137 367.185 87.855 367.465 88.4118C367.745 88.9686 367.885 89.5898 367.885 90.2754C367.885 90.961 367.745 91.5841 367.465 92.1448C367.189 92.7054 366.76 93.1523 366.181 93.4857C365.601 93.8152 364.859 93.98 363.954 93.98H361.135V92.73H363.908C364.533 92.73 365.035 92.622 365.414 92.4061C365.793 92.1902 366.067 91.8985 366.238 91.5311C366.412 91.1599 366.499 90.7413 366.499 90.2754C366.499 89.8095 366.412 89.3929 366.238 89.0254C366.067 88.658 365.791 88.3701 365.408 88.1618C365.026 87.9497 364.518 87.8436 363.885 87.8436H361.408V98.23H359.999ZM372.55 98.4345C371.997 98.4345 371.495 98.3304 371.044 98.122C370.593 97.9099 370.235 97.605 369.97 97.2073C369.705 96.8057 369.572 96.3209 369.572 95.7527C369.572 95.2527 369.671 94.8474 369.868 94.5368C370.065 94.2224 370.328 93.9762 370.658 93.7982C370.987 93.6201 371.351 93.4876 371.749 93.4004C372.15 93.3095 372.554 93.2376 372.959 93.1845C373.489 93.1163 373.919 93.0652 374.249 93.0311C374.582 92.9932 374.824 92.9307 374.976 92.8436C375.131 92.7565 375.209 92.605 375.209 92.3891V92.3436C375.209 91.783 375.055 91.3474 374.749 91.0368C374.446 90.7262 373.985 90.5709 373.368 90.5709C372.728 90.5709 372.226 90.711 371.862 90.9913C371.499 91.2716 371.243 91.5709 371.095 91.8891L369.822 91.4345C370.05 90.9042 370.353 90.4913 370.732 90.1959C371.114 89.8966 371.531 89.6883 371.982 89.5709C372.436 89.4497 372.883 89.3891 373.322 89.3891C373.603 89.3891 373.925 89.4232 374.288 89.4913C374.656 89.5557 375.01 89.6902 375.351 89.8948C375.696 90.0993 375.982 90.408 376.209 90.8209C376.436 91.2338 376.55 91.7868 376.55 92.48V98.23H375.209V97.0482H375.141C375.05 97.2376 374.898 97.4402 374.686 97.6561C374.474 97.872 374.192 98.0557 373.839 98.2073C373.487 98.3588 373.057 98.4345 372.55 98.4345ZM372.754 97.23C373.285 97.23 373.732 97.1258 374.095 96.9175C374.463 96.7091 374.739 96.4402 374.925 96.1107C375.114 95.7811 375.209 95.4345 375.209 95.0709V93.8436C375.152 93.9118 375.027 93.9743 374.834 94.0311C374.644 94.0841 374.425 94.1315 374.175 94.1732C373.929 94.211 373.688 94.2451 373.453 94.2754C373.222 94.302 373.035 94.3247 372.891 94.3436C372.542 94.3891 372.216 94.4629 371.913 94.5652C371.614 94.6637 371.372 94.8133 371.186 95.0141C371.004 95.211 370.913 95.48 370.913 95.8209C370.913 96.2868 371.086 96.6391 371.43 96.8777C371.779 97.1126 372.22 97.23 372.754 97.23ZM379.556 101.503C379.329 101.503 379.126 101.484 378.948 101.446C378.77 101.412 378.647 101.378 378.579 101.344L378.92 100.162C379.246 100.245 379.534 100.275 379.784 100.253C380.034 100.23 380.255 100.118 380.448 99.9175C380.645 99.7205 380.825 99.4004 380.988 98.9573L381.238 98.2754L378.011 89.5027H379.465L381.874 96.4573H381.965L384.374 89.5027H385.829L382.124 99.5027C381.958 99.9535 381.751 100.327 381.505 100.622C381.259 100.921 380.973 101.143 380.647 101.287C380.325 101.431 379.962 101.503 379.556 101.503ZM394.683 98.4345C394.13 98.4345 393.628 98.3304 393.177 98.122C392.727 97.9099 392.369 97.605 392.104 97.2073C391.838 96.8057 391.706 96.3209 391.706 95.7527C391.706 95.2527 391.804 94.8474 392.001 94.5368C392.198 94.2224 392.462 93.9762 392.791 93.7982C393.121 93.6201 393.484 93.4876 393.882 93.4004C394.283 93.3095 394.687 93.2376 395.092 93.1845C395.622 93.1163 396.052 93.0652 396.382 93.0311C396.715 92.9932 396.958 92.9307 397.109 92.8436C397.265 92.7565 397.342 92.605 397.342 92.3891V92.3436C397.342 91.783 397.189 91.3474 396.882 91.0368C396.579 90.7262 396.119 90.5709 395.501 90.5709C394.861 90.5709 394.359 90.711 393.996 90.9913C393.632 91.2716 393.376 91.5709 393.229 91.8891L391.956 91.4345C392.183 90.9042 392.486 90.4913 392.865 90.1959C393.247 89.8966 393.664 89.6883 394.115 89.5709C394.569 89.4497 395.016 89.3891 395.456 89.3891C395.736 89.3891 396.058 89.4232 396.422 89.4913C396.789 89.5557 397.143 89.6902 397.484 89.8948C397.829 90.0993 398.115 90.408 398.342 90.8209C398.569 91.2338 398.683 91.7868 398.683 92.48V98.23H397.342V97.0482H397.274C397.183 97.2376 397.032 97.4402 396.819 97.6561C396.607 97.872 396.325 98.0557 395.973 98.2073C395.621 98.3588 395.191 98.4345 394.683 98.4345ZM394.888 97.23C395.418 97.23 395.865 97.1258 396.229 96.9175C396.596 96.7091 396.872 96.4402 397.058 96.1107C397.247 95.7811 397.342 95.4345 397.342 95.0709V93.8436C397.285 93.9118 397.16 93.9743 396.967 94.0311C396.778 94.0841 396.558 94.1315 396.308 94.1732C396.062 94.211 395.821 94.2451 395.587 94.2754C395.355 94.302 395.168 94.3247 395.024 94.3436C394.676 94.3891 394.35 94.4629 394.047 94.5652C393.747 94.6637 393.505 94.8133 393.319 95.0141C393.138 95.211 393.047 95.48 393.047 95.8209C393.047 96.2868 393.219 96.6391 393.564 96.8777C393.912 97.1126 394.354 97.23 394.888 97.23ZM402.479 92.98V98.23H401.139V89.5027H402.434V90.8663H402.548C402.752 90.4232 403.063 90.0671 403.479 89.7982C403.896 89.5254 404.434 89.3891 405.093 89.3891C405.684 89.3891 406.201 89.5103 406.644 89.7527C407.087 89.9913 407.432 90.355 407.678 90.8436C407.925 91.3285 408.048 91.9421 408.048 92.6845V98.23H406.707V92.7754C406.707 92.0898 406.529 91.5557 406.173 91.1732C405.817 90.7868 405.328 90.5936 404.707 90.5936C404.279 90.5936 403.896 90.6864 403.559 90.872C403.226 91.0576 402.962 91.3285 402.769 91.6845C402.576 92.0406 402.479 92.4724 402.479 92.98ZM413.801 98.4118C413.074 98.4118 412.432 98.2281 411.875 97.8607C411.318 97.4895 410.883 96.9667 410.568 96.2925C410.254 95.6145 410.097 94.8133 410.097 93.8891C410.097 92.9724 410.254 92.1769 410.568 91.5027C410.883 90.8285 411.32 90.3076 411.881 89.9402C412.442 89.5728 413.089 89.3891 413.824 89.3891C414.392 89.3891 414.841 89.4838 415.171 89.6732C415.504 89.8588 415.758 90.0709 415.932 90.3095C416.11 90.5444 416.248 90.7376 416.347 90.8891H416.46V86.5936H417.801V98.23H416.506V96.8891H416.347C416.248 97.0482 416.108 97.2489 415.926 97.4913C415.745 97.73 415.485 97.944 415.148 98.1334C414.811 98.319 414.362 98.4118 413.801 98.4118ZM413.983 97.2073C414.521 97.2073 414.976 97.0671 415.347 96.7868C415.718 96.5027 416 96.1107 416.193 95.6107C416.387 95.1069 416.483 94.5254 416.483 93.8663C416.483 93.2148 416.389 92.6448 416.199 92.1561C416.01 91.6637 415.729 91.2811 415.358 91.0084C414.987 90.7319 414.529 90.5936 413.983 90.5936C413.415 90.5936 412.942 90.7394 412.563 91.0311C412.188 91.319 411.906 91.711 411.716 92.2073C411.531 92.6997 411.438 93.2527 411.438 93.8663C411.438 94.4876 411.532 95.052 411.722 95.5595C411.915 96.0633 412.199 96.4648 412.574 96.7641C412.953 97.0595 413.423 97.2073 413.983 97.2073ZM427.528 98.4345C426.975 98.4345 426.473 98.3304 426.022 98.122C425.571 97.9099 425.213 97.605 424.948 97.2073C424.683 96.8057 424.55 96.3209 424.55 95.7527C424.55 95.2527 424.649 94.8474 424.846 94.5368C425.043 94.2224 425.306 93.9762 425.636 93.7982C425.965 93.6201 426.329 93.4876 426.726 93.4004C427.128 93.3095 427.531 93.2376 427.937 93.1845C428.467 93.1163 428.897 93.0652 429.226 93.0311C429.56 92.9932 429.802 92.9307 429.954 92.8436C430.109 92.7565 430.187 92.605 430.187 92.3891V92.3436C430.187 91.783 430.033 91.3474 429.726 91.0368C429.423 90.7262 428.963 90.5709 428.346 90.5709C427.706 90.5709 427.204 90.711 426.84 90.9913C426.476 91.2716 426.221 91.5709 426.073 91.8891L424.8 91.4345C425.028 90.9042 425.331 90.4913 425.709 90.1959C426.092 89.8966 426.509 89.6883 426.959 89.5709C427.414 89.4497 427.861 89.3891 428.3 89.3891C428.581 89.3891 428.903 89.4232 429.266 89.4913C429.634 89.5557 429.988 89.6902 430.329 89.8948C430.673 90.0993 430.959 90.408 431.187 90.8209C431.414 91.2338 431.528 91.7868 431.528 92.48V98.23H430.187V97.0482H430.119C430.028 97.2376 429.876 97.4402 429.664 97.6561C429.452 97.872 429.17 98.0557 428.817 98.2073C428.465 98.3588 428.035 98.4345 427.528 98.4345ZM427.732 97.23C428.262 97.23 428.709 97.1258 429.073 96.9175C429.44 96.7091 429.717 96.4402 429.903 96.1107C430.092 95.7811 430.187 95.4345 430.187 95.0709V93.8436C430.13 93.9118 430.005 93.9743 429.812 94.0311C429.622 94.0841 429.403 94.1315 429.153 94.1732C428.906 94.211 428.666 94.2451 428.431 94.2754C428.2 94.302 428.012 94.3247 427.869 94.3436C427.52 94.3891 427.194 94.4629 426.891 94.5652C426.592 94.6637 426.35 94.8133 426.164 95.0141C425.982 95.211 425.891 95.48 425.891 95.8209C425.891 96.2868 426.064 96.6391 426.408 96.8777C426.757 97.1126 427.198 97.23 427.732 97.23ZM437.278 98.4118C436.551 98.4118 435.909 98.2281 435.352 97.8607C434.796 97.4895 434.36 96.9667 434.046 96.2925C433.731 95.6145 433.574 94.8133 433.574 93.8891C433.574 92.9724 433.731 92.1769 434.046 91.5027C434.36 90.8285 434.797 90.3076 435.358 89.9402C435.919 89.5728 436.566 89.3891 437.301 89.3891C437.869 89.3891 438.318 89.4838 438.648 89.6732C438.981 89.8588 439.235 90.0709 439.409 90.3095C439.587 90.5444 439.725 90.7376 439.824 90.8891H439.938V86.5936H441.278V98.23H439.983V96.8891H439.824C439.725 97.0482 439.585 97.2489 439.403 97.4913C439.222 97.73 438.962 97.944 438.625 98.1334C438.288 98.319 437.839 98.4118 437.278 98.4118ZM437.46 97.2073C437.998 97.2073 438.453 97.0671 438.824 96.7868C439.195 96.5027 439.477 96.1107 439.671 95.6107C439.864 95.1069 439.96 94.5254 439.96 93.8663C439.96 93.2148 439.866 92.6448 439.676 92.1561C439.487 91.6637 439.207 91.2811 438.835 91.0084C438.464 90.7319 438.006 90.5936 437.46 90.5936C436.892 90.5936 436.419 90.7394 436.04 91.0311C435.665 91.319 435.383 91.711 435.193 92.2073C435.008 92.6997 434.915 93.2527 434.915 93.8663C434.915 94.4876 435.01 95.052 435.199 95.5595C435.392 96.0633 435.676 96.4648 436.051 96.7641C436.43 97.0595 436.9 97.2073 437.46 97.2073ZM447.224 98.4118C446.497 98.4118 445.855 98.2281 445.298 97.8607C444.741 97.4895 444.305 96.9667 443.991 96.2925C443.677 95.6145 443.519 94.8133 443.519 93.8891C443.519 92.9724 443.677 92.1769 443.991 91.5027C444.305 90.8285 444.743 90.3076 445.304 89.9402C445.864 89.5728 446.512 89.3891 447.247 89.3891C447.815 89.3891 448.264 89.4838 448.593 89.6732C448.927 89.8588 449.18 90.0709 449.355 90.3095C449.533 90.5444 449.671 90.7376 449.769 90.8891H449.883V86.5936H451.224V98.23H449.929V96.8891H449.769C449.671 97.0482 449.531 97.2489 449.349 97.4913C449.167 97.73 448.908 97.944 448.571 98.1334C448.233 98.319 447.785 98.4118 447.224 98.4118ZM447.406 97.2073C447.944 97.2073 448.398 97.0671 448.769 96.7868C449.141 96.5027 449.423 96.1107 449.616 95.6107C449.809 95.1069 449.906 94.5254 449.906 93.8663C449.906 93.2148 449.811 92.6448 449.622 92.1561C449.432 91.6637 449.152 91.2811 448.781 91.0084C448.41 90.7319 447.951 90.5936 447.406 90.5936C446.838 90.5936 446.364 90.7394 445.985 91.0311C445.61 91.319 445.328 91.711 445.139 92.2073C444.953 92.6997 444.86 93.2527 444.86 93.8663C444.86 94.4876 444.955 95.052 445.144 95.5595C445.338 96.0633 445.622 96.4648 445.997 96.7641C446.376 97.0595 446.845 97.2073 447.406 97.2073ZM459.246 101.503C459.018 101.503 458.816 101.484 458.638 101.446C458.46 101.412 458.337 101.378 458.268 101.344L458.609 100.162C458.935 100.245 459.223 100.275 459.473 100.253C459.723 100.23 459.945 100.118 460.138 99.9175C460.335 99.7205 460.515 99.4004 460.678 98.9573L460.928 98.2754L457.7 89.5027H459.155L461.564 96.4573H461.655L464.064 89.5027H465.518L461.814 99.5027C461.647 99.9535 461.441 100.327 461.195 100.622C460.948 100.921 460.662 101.143 460.337 101.287C460.015 101.431 459.651 101.503 459.246 101.503ZM470.529 98.4118C469.741 98.4118 469.05 98.2243 468.455 97.8493C467.864 97.4743 467.402 96.9497 467.069 96.2754C466.739 95.6012 466.575 94.8133 466.575 93.9118C466.575 93.0027 466.739 92.2091 467.069 91.5311C467.402 90.8531 467.864 90.3266 468.455 89.9516C469.05 89.5766 469.741 89.3891 470.529 89.3891C471.317 89.3891 472.007 89.5766 472.597 89.9516C473.192 90.3266 473.654 90.8531 473.984 91.5311C474.317 92.2091 474.484 93.0027 474.484 93.9118C474.484 94.8133 474.317 95.6012 473.984 96.2754C473.654 96.9497 473.192 97.4743 472.597 97.8493C472.007 98.2243 471.317 98.4118 470.529 98.4118ZM470.529 97.2073C471.128 97.2073 471.62 97.0538 472.007 96.747C472.393 96.4402 472.679 96.0368 472.864 95.5368C473.05 95.0368 473.143 94.4951 473.143 93.9118C473.143 93.3285 473.05 92.7849 472.864 92.2811C472.679 91.7773 472.393 91.3701 472.007 91.0595C471.62 90.7489 471.128 90.5936 470.529 90.5936C469.931 90.5936 469.438 90.7489 469.052 91.0595C468.666 91.3701 468.38 91.7773 468.194 92.2811C468.008 92.7849 467.916 93.3285 467.916 93.9118C467.916 94.4951 468.008 95.0368 468.194 95.5368C468.38 96.0368 468.666 96.4402 469.052 96.747C469.438 97.0538 469.931 97.2073 470.529 97.2073ZM482.039 94.6618V89.5027H483.38V98.23H482.039V96.7527H481.948C481.743 97.1959 481.425 97.5728 480.993 97.8834C480.561 98.1902 480.016 98.3436 479.357 98.3436C478.811 98.3436 478.327 98.2243 477.902 97.9857C477.478 97.7432 477.145 97.3796 476.902 96.8948C476.66 96.4061 476.539 95.7906 476.539 95.0482V89.5027H477.88V94.9573C477.88 95.5936 478.058 96.1012 478.414 96.48C478.774 96.8588 479.232 97.0482 479.789 97.0482C480.122 97.0482 480.461 96.9629 480.806 96.7925C481.154 96.622 481.446 96.3607 481.681 96.0084C481.919 95.6561 482.039 95.2073 482.039 94.6618ZM485.844 98.23V89.5027H487.139V90.8209H487.23C487.389 90.3891 487.677 90.0387 488.094 89.7698C488.51 89.5008 488.98 89.3663 489.503 89.3663C489.601 89.3663 489.724 89.3682 489.872 89.372C490.02 89.3758 490.131 89.3815 490.207 89.3891V90.7527C490.162 90.7413 490.058 90.7243 489.895 90.7016C489.736 90.6751 489.567 90.6618 489.389 90.6618C488.965 90.6618 488.586 90.7508 488.253 90.9288C487.923 91.1031 487.662 91.3455 487.469 91.6561C487.279 91.9629 487.184 92.3133 487.184 92.7073V98.23H485.844ZM500.108 89.5027V90.6391H495.585V89.5027H500.108ZM496.904 87.4118H498.244V95.73C498.244 96.1088 498.299 96.3929 498.409 96.5823C498.523 96.7679 498.667 96.8929 498.841 96.9573C499.019 97.0179 499.207 97.0482 499.404 97.0482C499.551 97.0482 499.673 97.0406 499.767 97.0254C499.862 97.0065 499.938 96.9913 499.994 96.98L500.267 98.1845C500.176 98.2186 500.049 98.2527 499.887 98.2868C499.724 98.3247 499.517 98.3436 499.267 98.3436C498.888 98.3436 498.517 98.2622 498.154 98.0993C497.794 97.9364 497.494 97.6883 497.256 97.355C497.021 97.0216 496.904 96.6012 496.904 96.0936V87.4118ZM505.698 98.4118C504.858 98.4118 504.132 98.2262 503.522 97.855C502.916 97.48 502.448 96.9573 502.119 96.2868C501.793 95.6126 501.63 94.8285 501.63 93.9345C501.63 93.0406 501.793 92.2527 502.119 91.5709C502.448 90.8853 502.907 90.3512 503.494 89.9686C504.085 89.5823 504.774 89.3891 505.562 89.3891C506.017 89.3891 506.466 89.4648 506.909 89.6163C507.352 89.7679 507.755 90.0141 508.119 90.355C508.483 90.6921 508.772 91.1391 508.988 91.6959C509.204 92.2527 509.312 92.9383 509.312 93.7527V94.3209H502.585V93.1618H507.948C507.948 92.6694 507.85 92.23 507.653 91.8436C507.46 91.4573 507.183 91.1523 506.823 90.9288C506.467 90.7054 506.047 90.5936 505.562 90.5936C505.028 90.5936 504.566 90.7262 504.176 90.9913C503.789 91.2527 503.492 91.5936 503.284 92.0141C503.075 92.4345 502.971 92.8853 502.971 93.3663V94.1391C502.971 94.7982 503.085 95.3569 503.312 95.8152C503.543 96.2698 503.863 96.6163 504.272 96.855C504.681 97.0898 505.157 97.2073 505.698 97.2073C506.051 97.2073 506.369 97.158 506.653 97.0595C506.941 96.9573 507.189 96.8057 507.397 96.605C507.606 96.4004 507.767 96.1466 507.88 95.8436L509.176 96.2073C509.039 96.6466 508.81 97.033 508.488 97.3663C508.166 97.6959 507.769 97.9535 507.295 98.1391C506.822 98.3209 506.289 98.4118 505.698 98.4118ZM513.928 98.4345C513.375 98.4345 512.873 98.3304 512.422 98.122C511.972 97.9099 511.614 97.605 511.349 97.2073C511.083 96.8057 510.951 96.3209 510.951 95.7527C510.951 95.2527 511.049 94.8474 511.246 94.5368C511.443 94.2224 511.707 93.9762 512.036 93.7982C512.366 93.6201 512.729 93.4876 513.127 93.4004C513.528 93.3095 513.932 93.2376 514.337 93.1845C514.868 93.1163 515.297 93.0652 515.627 93.0311C515.96 92.9932 516.203 92.9307 516.354 92.8436C516.51 92.7565 516.587 92.605 516.587 92.3891V92.3436C516.587 91.783 516.434 91.3474 516.127 91.0368C515.824 90.7262 515.364 90.5709 514.746 90.5709C514.106 90.5709 513.604 90.711 513.241 90.9913C512.877 91.2716 512.621 91.5709 512.474 91.8891L511.201 91.4345C511.428 90.9042 511.731 90.4913 512.11 90.1959C512.493 89.8966 512.909 89.6883 513.36 89.5709C513.814 89.4497 514.261 89.3891 514.701 89.3891C514.981 89.3891 515.303 89.4232 515.667 89.4913C516.034 89.5557 516.388 89.6902 516.729 89.8948C517.074 90.0993 517.36 90.408 517.587 90.8209C517.814 91.2338 517.928 91.7868 517.928 92.48V98.23H516.587V97.0482H516.519C516.428 97.2376 516.277 97.4402 516.064 97.6561C515.852 97.872 515.57 98.0557 515.218 98.2073C514.866 98.3588 514.436 98.4345 513.928 98.4345ZM514.133 97.23C514.663 97.23 515.11 97.1258 515.474 96.9175C515.841 96.7091 516.118 96.4402 516.303 96.1107C516.493 95.7811 516.587 95.4345 516.587 95.0709V93.8436C516.53 93.9118 516.405 93.9743 516.212 94.0311C516.023 94.0841 515.803 94.1315 515.553 94.1732C515.307 94.211 515.066 94.2451 514.832 94.2754C514.6 94.302 514.413 94.3247 514.269 94.3436C513.921 94.3891 513.595 94.4629 513.292 94.5652C512.993 94.6637 512.75 94.8133 512.564 95.0141C512.383 95.211 512.292 95.48 512.292 95.8209C512.292 96.2868 512.464 96.6391 512.809 96.8777C513.157 97.1126 513.599 97.23 514.133 97.23ZM520.384 98.23V89.5027H521.679V90.8663H521.793C521.974 90.4004 522.268 90.0387 522.673 89.7811C523.079 89.5198 523.565 89.3891 524.134 89.3891C524.709 89.3891 525.188 89.5198 525.571 89.7811C525.957 90.0387 526.259 90.4004 526.474 90.8663H526.565C526.789 90.4156 527.124 90.0576 527.571 89.7925C528.018 89.5235 528.554 89.3891 529.179 89.3891C529.959 89.3891 530.598 89.6334 531.094 90.122C531.59 90.6069 531.838 91.3626 531.838 92.3891V98.23H530.497V92.3891C530.497 91.7451 530.321 91.2849 529.969 91.0084C529.617 90.7319 529.202 90.5936 528.724 90.5936C528.111 90.5936 527.635 90.7792 527.298 91.1504C526.961 91.5179 526.793 91.9838 526.793 92.5482V98.23H525.429V92.2527C525.429 91.7565 525.268 91.3569 524.946 91.0538C524.624 90.747 524.209 90.5936 523.702 90.5936C523.353 90.5936 523.027 90.6864 522.724 90.872C522.425 91.0576 522.183 91.3152 521.997 91.6448C521.815 91.9705 521.724 92.3474 521.724 92.7754V98.23H520.384ZM540.147 86.5936V98.23H538.806V86.5936H540.147ZM545.179 98.4345C544.626 98.4345 544.124 98.3304 543.673 98.122C543.222 97.9099 542.864 97.605 542.599 97.2073C542.334 96.8057 542.202 96.3209 542.202 95.7527C542.202 95.2527 542.3 94.8474 542.497 94.5368C542.694 94.2224 542.957 93.9762 543.287 93.7982C543.616 93.6201 543.98 93.4876 544.378 93.4004C544.779 93.3095 545.183 93.2376 545.588 93.1845C546.118 93.1163 546.548 93.0652 546.878 93.0311C547.211 92.9932 547.453 92.9307 547.605 92.8436C547.76 92.7565 547.838 92.605 547.838 92.3891V92.3436C547.838 91.783 547.685 91.3474 547.378 91.0368C547.075 90.7262 546.614 90.5709 545.997 90.5709C545.357 90.5709 544.855 90.711 544.491 90.9913C544.128 91.2716 543.872 91.5709 543.724 91.8891L542.452 91.4345C542.679 90.9042 542.982 90.4913 543.361 90.1959C543.743 89.8966 544.16 89.6883 544.611 89.5709C545.065 89.4497 545.512 89.3891 545.952 89.3891C546.232 89.3891 546.554 89.4232 546.917 89.4913C547.285 89.5557 547.639 89.6902 547.98 89.8948C548.325 90.0993 548.611 90.408 548.838 90.8209C549.065 91.2338 549.179 91.7868 549.179 92.48V98.23H547.838V97.0482H547.77C547.679 97.2376 547.527 97.4402 547.315 97.6561C547.103 97.872 546.821 98.0557 546.469 98.2073C546.116 98.3588 545.686 98.4345 545.179 98.4345ZM545.383 97.23C545.914 97.23 546.361 97.1258 546.724 96.9175C547.092 96.7091 547.368 96.4402 547.554 96.1107C547.743 95.7811 547.838 95.4345 547.838 95.0709V93.8436C547.781 93.9118 547.656 93.9743 547.463 94.0311C547.274 94.0841 547.054 94.1315 546.804 94.1732C546.558 94.211 546.317 94.2451 546.082 94.2754C545.851 94.302 545.664 94.3247 545.52 94.3436C545.171 94.3891 544.846 94.4629 544.542 94.5652C544.243 94.6637 544.001 94.8133 543.815 95.0141C543.633 95.211 543.542 95.48 543.542 95.8209C543.542 96.2868 543.715 96.6391 544.06 96.8777C544.408 97.1126 544.849 97.23 545.383 97.23ZM555.43 89.5027V90.6391H550.907V89.5027H555.43ZM552.225 87.4118H553.566V95.73C553.566 96.1088 553.621 96.3929 553.731 96.5823C553.845 96.7679 553.988 96.8929 554.163 96.9573C554.341 97.0179 554.528 97.0482 554.725 97.0482C554.873 97.0482 554.994 97.0406 555.089 97.0254C555.184 97.0065 555.259 96.9913 555.316 96.98L555.589 98.1845C555.498 98.2186 555.371 98.2527 555.208 98.2868C555.045 98.3247 554.839 98.3436 554.589 98.3436C554.21 98.3436 553.839 98.2622 553.475 98.0993C553.115 97.9364 552.816 97.6883 552.577 97.355C552.343 97.0216 552.225 96.6012 552.225 96.0936V87.4118ZM561.02 98.4118C560.179 98.4118 559.454 98.2262 558.844 97.855C558.238 97.48 557.77 96.9573 557.441 96.2868C557.115 95.6126 556.952 94.8285 556.952 93.9345C556.952 93.0406 557.115 92.2527 557.441 91.5709C557.77 90.8853 558.228 90.3512 558.816 89.9686C559.406 89.5823 560.096 89.3891 560.884 89.3891C561.338 89.3891 561.787 89.4648 562.23 89.6163C562.674 89.7679 563.077 90.0141 563.441 90.355C563.804 90.6921 564.094 91.1391 564.31 91.6959C564.526 92.2527 564.634 92.9383 564.634 93.7527V94.3209H557.906V93.1618H563.27C563.27 92.6694 563.172 92.23 562.975 91.8436C562.781 91.4573 562.505 91.1523 562.145 90.9288C561.789 90.7054 561.369 90.5936 560.884 90.5936C560.35 90.5936 559.888 90.7262 559.497 90.9913C559.111 91.2527 558.814 91.5936 558.605 92.0141C558.397 92.4345 558.293 92.8853 558.293 93.3663V94.1391C558.293 94.7982 558.406 95.3569 558.634 95.8152C558.865 96.2698 559.185 96.6163 559.594 96.855C560.003 97.0898 560.478 97.2073 561.02 97.2073C561.372 97.2073 561.691 97.158 561.975 97.0595C562.263 96.9573 562.511 96.8057 562.719 96.605C562.927 96.4004 563.088 96.1466 563.202 95.8436L564.497 96.2073C564.361 96.6466 564.132 97.033 563.81 97.3663C563.488 97.6959 563.09 97.9535 562.617 98.1391C562.143 98.3209 561.611 98.4118 561.02 98.4118ZM566.682 98.23V89.5027H567.977V90.8209H568.068C568.227 90.3891 568.515 90.0387 568.932 89.7698C569.348 89.5008 569.818 89.3663 570.341 89.3663C570.439 89.3663 570.562 89.3682 570.71 89.372C570.858 89.3758 570.969 89.3815 571.045 89.3891V90.7527C571 90.7413 570.896 90.7243 570.733 90.7016C570.574 90.6751 570.405 90.6618 570.227 90.6618C569.803 90.6618 569.424 90.7508 569.091 90.9288C568.761 91.1031 568.5 91.3455 568.307 91.6561C568.117 91.9629 568.022 92.3133 568.022 92.7073V98.23H566.682ZM572.62 98.3209C572.34 98.3209 572.099 98.2205 571.898 98.0198C571.698 97.819 571.597 97.5785 571.597 97.2982C571.597 97.0179 571.698 96.7773 571.898 96.5766C572.099 96.3758 572.34 96.2754 572.62 96.2754C572.9 96.2754 573.141 96.3758 573.342 96.5766C573.542 96.7773 573.643 97.0179 573.643 97.2982C573.643 97.4838 573.595 97.6542 573.501 97.8095C573.41 97.9648 573.287 98.0898 573.131 98.1845C572.98 98.2754 572.809 98.3209 572.62 98.3209Z" fill="#121212"/>
<g filter="url(#filter0_ddd_5001_426)">
<rect x="224.39" y="124.23" width="143.72" height="36" rx="5" fill="#121212" shape-rendering="crispEdges"/>
<path d="M239.063 137.361V135.594H248.347V137.361H244.751V147.23H242.66V137.361H239.063ZM249.148 147.23V138.503H251.142V139.957H251.233C251.392 139.453 251.665 139.065 252.051 138.792C252.441 138.516 252.887 138.378 253.387 138.378C253.5 138.378 253.627 138.383 253.767 138.395C253.911 138.402 254.03 138.416 254.125 138.435V140.327C254.038 140.296 253.9 140.27 253.71 140.247C253.525 140.221 253.345 140.207 253.171 140.207C252.796 140.207 252.459 140.289 252.159 140.452C251.864 140.611 251.631 140.832 251.46 141.116C251.29 141.4 251.205 141.728 251.205 142.099V147.23H249.148ZM257.044 150.503C256.763 150.503 256.504 150.48 256.265 150.435C256.03 150.393 255.843 150.344 255.703 150.287L256.18 148.685C256.479 148.772 256.746 148.813 256.981 148.81C257.216 148.806 257.422 148.732 257.6 148.588C257.782 148.448 257.936 148.213 258.061 147.883L258.237 147.412L255.072 138.503H257.254L259.265 145.094H259.356L261.373 138.503H263.561L260.066 148.287C259.904 148.749 259.688 149.145 259.419 149.474C259.15 149.808 258.82 150.061 258.43 150.236C258.044 150.414 257.582 150.503 257.044 150.503ZM278.622 135.594V147.23H276.747L271.264 139.304H271.168V147.23H269.06V135.594H270.946L276.423 143.525H276.526V135.594H278.622ZM284.643 147.4C283.791 147.4 283.052 147.213 282.427 146.838C281.802 146.463 281.317 145.938 280.973 145.264C280.632 144.59 280.461 143.802 280.461 142.9C280.461 141.999 280.632 141.209 280.973 140.531C281.317 139.853 281.802 139.327 282.427 138.952C283.052 138.577 283.791 138.389 284.643 138.389C285.495 138.389 286.234 138.577 286.859 138.952C287.484 139.327 287.967 139.853 288.308 140.531C288.652 141.209 288.825 141.999 288.825 142.9C288.825 143.802 288.652 144.59 288.308 145.264C287.967 145.938 287.484 146.463 286.859 146.838C286.234 147.213 285.495 147.4 284.643 147.4ZM284.654 145.753C285.116 145.753 285.503 145.626 285.813 145.372C286.124 145.114 286.355 144.77 286.507 144.338C286.662 143.906 286.74 143.425 286.74 142.895C286.74 142.361 286.662 141.878 286.507 141.446C286.355 141.01 286.124 140.664 285.813 140.406C285.503 140.149 285.116 140.02 284.654 140.02C284.181 140.02 283.787 140.149 283.473 140.406C283.162 140.664 282.929 141.01 282.774 141.446C282.622 141.878 282.546 142.361 282.546 142.895C282.546 143.425 282.622 143.906 282.774 144.338C282.929 144.77 283.162 145.114 283.473 145.372C283.787 145.626 284.181 145.753 284.654 145.753ZM294.936 138.503V140.094H289.919V138.503H294.936ZM291.158 136.412H293.215V144.605C293.215 144.881 293.257 145.094 293.34 145.241C293.427 145.385 293.541 145.484 293.681 145.537C293.821 145.59 293.976 145.616 294.147 145.616C294.275 145.616 294.393 145.607 294.499 145.588C294.609 145.569 294.692 145.552 294.749 145.537L295.096 147.145C294.986 147.183 294.829 147.224 294.624 147.27C294.423 147.315 294.177 147.342 293.885 147.349C293.37 147.364 292.906 147.287 292.493 147.116C292.08 146.942 291.753 146.673 291.51 146.31C291.272 145.946 291.154 145.491 291.158 144.946V136.412ZM296.665 147.23V138.503H298.721V147.23H296.665ZM297.699 137.264C297.373 137.264 297.093 137.156 296.858 136.94C296.623 136.721 296.506 136.457 296.506 136.15C296.506 135.84 296.623 135.577 296.858 135.361C297.093 135.141 297.373 135.031 297.699 135.031C298.028 135.031 298.309 135.141 298.54 135.361C298.774 135.577 298.892 135.84 298.892 136.15C298.892 136.457 298.774 136.721 298.54 136.94C298.309 137.156 298.028 137.264 297.699 137.264ZM304.651 147.4C303.799 147.4 303.06 147.213 302.435 146.838C301.81 146.463 301.326 145.938 300.981 145.264C300.64 144.59 300.47 143.802 300.47 142.9C300.47 141.999 300.64 141.209 300.981 140.531C301.326 139.853 301.81 139.327 302.435 138.952C303.06 138.577 303.799 138.389 304.651 138.389C305.504 138.389 306.242 138.577 306.867 138.952C307.492 139.327 307.975 139.853 308.316 140.531C308.661 141.209 308.833 141.999 308.833 142.9C308.833 143.802 308.661 144.59 308.316 145.264C307.975 145.938 307.492 146.463 306.867 146.838C306.242 147.213 305.504 147.4 304.651 147.4ZM304.663 145.753C305.125 145.753 305.511 145.626 305.822 145.372C306.132 145.114 306.363 144.77 306.515 144.338C306.67 143.906 306.748 143.425 306.748 142.895C306.748 142.361 306.67 141.878 306.515 141.446C306.363 141.01 306.132 140.664 305.822 140.406C305.511 140.149 305.125 140.02 304.663 140.02C304.189 140.02 303.795 140.149 303.481 140.406C303.17 140.664 302.937 141.01 302.782 141.446C302.631 141.878 302.555 142.361 302.555 142.895C302.555 143.425 302.631 143.906 302.782 144.338C302.937 144.77 303.17 145.114 303.481 145.372C303.795 145.626 304.189 145.753 304.663 145.753ZM312.644 142.116V147.23H310.587V138.503H312.553V139.986H312.655C312.856 139.497 313.176 139.109 313.615 138.821C314.058 138.533 314.606 138.389 315.257 138.389C315.86 138.389 316.384 138.518 316.831 138.775C317.282 139.033 317.63 139.406 317.877 139.895C318.127 140.383 318.25 140.976 318.246 141.673V147.23H316.189V141.991C316.189 141.408 316.038 140.952 315.735 140.622C315.435 140.292 315.021 140.128 314.49 140.128C314.13 140.128 313.81 140.207 313.53 140.366C313.254 140.522 313.036 140.747 312.877 141.042C312.721 141.338 312.644 141.696 312.644 142.116ZM328.742 138.503V140.094H323.583V138.503H328.742ZM324.873 147.23V137.679C324.873 137.092 324.994 136.603 325.236 136.213C325.483 135.823 325.812 135.531 326.225 135.338C326.638 135.145 327.096 135.048 327.6 135.048C327.956 135.048 328.272 135.077 328.549 135.133C328.825 135.19 329.03 135.241 329.163 135.287L328.753 136.878C328.666 136.851 328.556 136.825 328.424 136.798C328.291 136.768 328.144 136.753 327.981 136.753C327.598 136.753 327.327 136.846 327.168 137.031C327.013 137.213 326.935 137.474 326.935 137.815V147.23H324.873ZM330.361 147.23V138.503H332.355V139.957H332.446C332.605 139.453 332.878 139.065 333.264 138.792C333.654 138.516 334.1 138.378 334.6 138.378C334.713 138.378 334.84 138.383 334.98 138.395C335.124 138.402 335.243 138.416 335.338 138.435V140.327C335.251 140.296 335.113 140.27 334.923 140.247C334.738 140.221 334.558 140.207 334.384 140.207C334.009 140.207 333.672 140.289 333.372 140.452C333.077 140.611 332.844 140.832 332.673 141.116C332.503 141.4 332.418 141.728 332.418 142.099V147.23H330.361ZM340.217 147.4C339.342 147.4 338.586 147.219 337.95 146.855C337.317 146.488 336.831 145.969 336.49 145.298C336.149 144.624 335.978 143.83 335.978 142.917C335.978 142.02 336.149 141.232 336.49 140.554C336.834 139.872 337.315 139.342 337.933 138.963C338.55 138.58 339.276 138.389 340.109 138.389C340.647 138.389 341.154 138.476 341.632 138.65C342.113 138.821 342.537 139.086 342.904 139.446C343.276 139.806 343.567 140.264 343.779 140.821C343.992 141.374 344.098 142.033 344.098 142.798V143.429H336.944V142.042H342.126C342.122 141.649 342.037 141.298 341.87 140.991C341.704 140.681 341.471 140.436 341.171 140.258C340.876 140.08 340.531 139.991 340.137 139.991C339.717 139.991 339.348 140.094 339.029 140.298C338.711 140.499 338.463 140.764 338.285 141.094C338.111 141.419 338.022 141.777 338.018 142.167V143.378C338.018 143.885 338.111 144.321 338.296 144.685C338.482 145.044 338.742 145.321 339.075 145.514C339.408 145.703 339.798 145.798 340.245 145.798C340.545 145.798 340.815 145.756 341.058 145.673C341.3 145.586 341.51 145.459 341.688 145.292C341.867 145.126 342.001 144.919 342.092 144.673L344.012 144.889C343.891 145.397 343.66 145.84 343.319 146.219C342.982 146.594 342.55 146.885 342.024 147.094C341.497 147.298 340.895 147.4 340.217 147.4ZM349.709 147.4C348.834 147.4 348.079 147.219 347.442 146.855C346.81 146.488 346.323 145.969 345.982 145.298C345.641 144.624 345.471 143.83 345.471 142.917C345.471 142.02 345.641 141.232 345.982 140.554C346.327 139.872 346.808 139.342 347.425 138.963C348.043 138.58 348.768 138.389 349.601 138.389C350.139 138.389 350.647 138.476 351.124 138.65C351.605 138.821 352.029 139.086 352.397 139.446C352.768 139.806 353.06 140.264 353.272 140.821C353.484 141.374 353.59 142.033 353.59 142.798V143.429H346.437V142.042H351.618C351.615 141.649 351.529 141.298 351.363 140.991C351.196 140.681 350.963 140.436 350.664 140.258C350.368 140.08 350.024 139.991 349.63 139.991C349.209 139.991 348.84 140.094 348.522 140.298C348.204 140.499 347.955 140.764 347.777 141.094C347.603 141.419 347.514 141.777 347.51 142.167V143.378C347.51 143.885 347.603 144.321 347.789 144.685C347.974 145.044 348.234 145.321 348.567 145.514C348.901 145.703 349.291 145.798 349.738 145.798C350.037 145.798 350.308 145.756 350.55 145.673C350.793 145.586 351.003 145.459 351.181 145.292C351.359 145.126 351.493 144.919 351.584 144.673L353.505 144.889C353.384 145.397 353.152 145.84 352.812 146.219C352.474 146.594 352.043 146.885 351.516 147.094C350.99 147.298 350.387 147.4 349.709 147.4Z" fill="white"/>
</g>
<path d="M385.873 148.23V136.594H389.805C390.714 136.594 391.46 136.749 392.043 137.06C392.627 137.366 393.058 137.789 393.339 138.327C393.619 138.864 393.759 139.476 393.759 140.162C393.759 140.847 393.619 141.455 393.339 141.986C393.058 142.516 392.629 142.933 392.049 143.236C391.469 143.535 390.729 143.685 389.827 143.685H386.646V142.412H389.782C390.403 142.412 390.903 142.321 391.282 142.139C391.665 141.957 391.941 141.7 392.111 141.366C392.286 141.029 392.373 140.628 392.373 140.162C392.373 139.696 392.286 139.289 392.111 138.94C391.937 138.592 391.659 138.323 391.276 138.133C390.894 137.94 390.388 137.844 389.759 137.844H387.282V148.23H385.873ZM391.35 143.003L394.214 148.23H392.577L389.759 143.003H391.35ZM399.491 148.412C398.65 148.412 397.924 148.226 397.315 147.855C396.709 147.48 396.241 146.957 395.911 146.287C395.585 145.613 395.423 144.828 395.423 143.935C395.423 143.041 395.585 142.253 395.911 141.571C396.241 140.885 396.699 140.351 397.286 139.969C397.877 139.582 398.566 139.389 399.354 139.389C399.809 139.389 400.258 139.465 400.701 139.616C401.144 139.768 401.548 140.014 401.911 140.355C402.275 140.692 402.565 141.139 402.781 141.696C402.996 142.253 403.104 142.938 403.104 143.753V144.321H396.377V143.162H401.741C401.741 142.669 401.642 142.23 401.445 141.844C401.252 141.457 400.976 141.152 400.616 140.929C400.26 140.705 399.839 140.594 399.354 140.594C398.82 140.594 398.358 140.726 397.968 140.991C397.582 141.253 397.284 141.594 397.076 142.014C396.868 142.435 396.763 142.885 396.763 143.366V144.139C396.763 144.798 396.877 145.357 397.104 145.815C397.335 146.27 397.656 146.616 398.065 146.855C398.474 147.09 398.949 147.207 399.491 147.207C399.843 147.207 400.161 147.158 400.445 147.06C400.733 146.957 400.981 146.806 401.19 146.605C401.398 146.4 401.559 146.147 401.673 145.844L402.968 146.207C402.832 146.647 402.602 147.033 402.281 147.366C401.959 147.696 401.561 147.953 401.087 148.139C400.614 148.321 400.082 148.412 399.491 148.412ZM411.099 151.503V146.889H410.985C410.887 147.048 410.746 147.249 410.565 147.491C410.383 147.73 410.123 147.944 409.786 148.133C409.449 148.319 409 148.412 408.44 148.412C407.712 148.412 407.07 148.228 406.513 147.861C405.957 147.489 405.521 146.967 405.207 146.292C404.892 145.614 404.735 144.813 404.735 143.889C404.735 142.972 404.892 142.177 405.207 141.503C405.521 140.828 405.959 140.308 406.519 139.94C407.08 139.573 407.727 139.389 408.462 139.389C409.031 139.389 409.479 139.484 409.809 139.673C410.142 139.859 410.396 140.071 410.57 140.31C410.748 140.544 410.887 140.738 410.985 140.889H411.144V139.503H412.44V151.503H411.099ZM408.621 147.207C409.159 147.207 409.614 147.067 409.985 146.787C410.356 146.503 410.638 146.111 410.832 145.611C411.025 145.107 411.121 144.525 411.121 143.866C411.121 143.215 411.027 142.645 410.837 142.156C410.648 141.664 410.368 141.281 409.996 141.008C409.625 140.732 409.167 140.594 408.621 140.594C408.053 140.594 407.58 140.739 407.201 141.031C406.826 141.319 406.544 141.711 406.354 142.207C406.169 142.7 406.076 143.253 406.076 143.866C406.076 144.488 406.171 145.052 406.36 145.56C406.553 146.063 406.837 146.465 407.212 146.764C407.591 147.06 408.061 147.207 408.621 147.207ZM420.394 144.662V139.503H421.735V148.23H420.394V146.753H420.303C420.099 147.196 419.781 147.573 419.349 147.883C418.917 148.19 418.371 148.344 417.712 148.344C417.167 148.344 416.682 148.224 416.258 147.986C415.834 147.743 415.5 147.38 415.258 146.895C415.015 146.406 414.894 145.791 414.894 145.048V139.503H416.235V144.957C416.235 145.594 416.413 146.101 416.769 146.48C417.129 146.859 417.587 147.048 418.144 147.048C418.477 147.048 418.816 146.963 419.161 146.792C419.51 146.622 419.801 146.361 420.036 146.008C420.275 145.656 420.394 145.207 420.394 144.662ZM427.85 148.412C427.009 148.412 426.284 148.226 425.674 147.855C425.068 147.48 424.6 146.957 424.271 146.287C423.945 145.613 423.782 144.828 423.782 143.935C423.782 143.041 423.945 142.253 424.271 141.571C424.6 140.885 425.058 140.351 425.646 139.969C426.236 139.582 426.926 139.389 427.714 139.389C428.168 139.389 428.617 139.465 429.06 139.616C429.504 139.768 429.907 140.014 430.271 140.355C430.634 140.692 430.924 141.139 431.14 141.696C431.356 142.253 431.464 142.938 431.464 143.753V144.321H424.736V143.162H430.1C430.1 142.669 430.002 142.23 429.805 141.844C429.611 141.457 429.335 141.152 428.975 140.929C428.619 140.705 428.199 140.594 427.714 140.594C427.18 140.594 426.718 140.726 426.327 140.991C425.941 141.253 425.644 141.594 425.435 142.014C425.227 142.435 425.123 142.885 425.123 143.366V144.139C425.123 144.798 425.236 145.357 425.464 145.815C425.695 146.27 426.015 146.616 426.424 146.855C426.833 147.09 427.308 147.207 427.85 147.207C428.202 147.207 428.521 147.158 428.805 147.06C429.093 146.957 429.341 146.806 429.549 146.605C429.757 146.4 429.918 146.147 430.032 145.844L431.327 146.207C431.191 146.647 430.962 147.033 430.64 147.366C430.318 147.696 429.92 147.953 429.447 148.139C428.973 148.321 428.441 148.412 427.85 148.412ZM439.685 141.457L438.481 141.798C438.405 141.597 438.293 141.402 438.146 141.213C438.002 141.02 437.805 140.861 437.555 140.736C437.305 140.611 436.985 140.548 436.594 140.548C436.06 140.548 435.615 140.671 435.259 140.917C434.907 141.16 434.731 141.469 434.731 141.844C434.731 142.177 434.852 142.44 435.094 142.633C435.337 142.827 435.716 142.988 436.231 143.116L437.526 143.435C438.307 143.624 438.888 143.914 439.271 144.304C439.653 144.69 439.844 145.188 439.844 145.798C439.844 146.298 439.7 146.745 439.413 147.139C439.129 147.533 438.731 147.844 438.219 148.071C437.708 148.298 437.113 148.412 436.435 148.412C435.545 148.412 434.808 148.219 434.225 147.832C433.642 147.446 433.272 146.881 433.117 146.139L434.39 145.821C434.511 146.291 434.74 146.643 435.077 146.878C435.418 147.113 435.863 147.23 436.413 147.23C437.038 147.23 437.534 147.097 437.901 146.832C438.272 146.563 438.458 146.241 438.458 145.866C438.458 145.563 438.352 145.31 438.14 145.105C437.928 144.897 437.602 144.741 437.163 144.639L435.708 144.298C434.909 144.109 434.322 143.815 433.947 143.417C433.575 143.016 433.39 142.514 433.39 141.912C433.39 141.419 433.528 140.984 433.805 140.605C434.085 140.226 434.466 139.929 434.947 139.713C435.432 139.497 435.981 139.389 436.594 139.389C437.458 139.389 438.136 139.578 438.629 139.957C439.125 140.336 439.477 140.836 439.685 141.457ZM445.658 139.503V140.639H441.136V139.503H445.658ZM442.454 137.412H443.795V145.73C443.795 146.109 443.85 146.393 443.959 146.582C444.073 146.768 444.217 146.893 444.391 146.957C444.569 147.018 444.757 147.048 444.954 147.048C445.102 147.048 445.223 147.041 445.317 147.025C445.412 147.006 445.488 146.991 445.545 146.98L445.817 148.185C445.727 148.219 445.6 148.253 445.437 148.287C445.274 148.325 445.067 148.344 444.817 148.344C444.439 148.344 444.067 148.262 443.704 148.099C443.344 147.936 443.045 147.688 442.806 147.355C442.571 147.022 442.454 146.601 442.454 146.094V137.412ZM454.744 148.435C454.191 148.435 453.689 148.33 453.238 148.122C452.787 147.91 452.429 147.605 452.164 147.207C451.899 146.806 451.766 146.321 451.766 145.753C451.766 145.253 451.865 144.847 452.062 144.537C452.259 144.222 452.522 143.976 452.852 143.798C453.181 143.62 453.545 143.488 453.942 143.4C454.344 143.31 454.747 143.238 455.153 143.185C455.683 143.116 456.113 143.065 456.442 143.031C456.776 142.993 457.018 142.931 457.17 142.844C457.325 142.756 457.403 142.605 457.403 142.389V142.344C457.403 141.783 457.249 141.347 456.942 141.037C456.639 140.726 456.179 140.571 455.562 140.571C454.922 140.571 454.42 140.711 454.056 140.991C453.692 141.272 453.437 141.571 453.289 141.889L452.016 141.435C452.244 140.904 452.547 140.491 452.925 140.196C453.308 139.897 453.725 139.688 454.175 139.571C454.63 139.45 455.077 139.389 455.516 139.389C455.797 139.389 456.119 139.423 456.482 139.491C456.85 139.556 457.204 139.69 457.545 139.895C457.889 140.099 458.175 140.408 458.403 140.821C458.63 141.234 458.744 141.787 458.744 142.48V148.23H457.403V147.048H457.334C457.244 147.238 457.092 147.44 456.88 147.656C456.668 147.872 456.386 148.056 456.033 148.207C455.681 148.359 455.251 148.435 454.744 148.435ZM454.948 147.23C455.478 147.23 455.925 147.126 456.289 146.917C456.656 146.709 456.933 146.44 457.119 146.111C457.308 145.781 457.403 145.435 457.403 145.071V143.844C457.346 143.912 457.221 143.974 457.028 144.031C456.838 144.084 456.619 144.131 456.369 144.173C456.122 144.211 455.882 144.245 455.647 144.275C455.416 144.302 455.228 144.325 455.084 144.344C454.736 144.389 454.41 144.463 454.107 144.565C453.808 144.664 453.566 144.813 453.38 145.014C453.198 145.211 453.107 145.48 453.107 145.821C453.107 146.287 453.28 146.639 453.624 146.878C453.973 147.113 454.414 147.23 454.948 147.23ZM468.986 148.412C468.259 148.412 467.617 148.228 467.06 147.861C466.504 147.489 466.068 146.967 465.754 146.292C465.439 145.614 465.282 144.813 465.282 143.889C465.282 142.972 465.439 142.177 465.754 141.503C466.068 140.828 466.505 140.308 467.066 139.94C467.627 139.573 468.274 139.389 469.009 139.389C469.577 139.389 470.026 139.484 470.356 139.673C470.689 139.859 470.943 140.071 471.117 140.31C471.295 140.544 471.433 140.738 471.532 140.889H471.646V136.594H472.986V148.23H471.691V146.889H471.532C471.433 147.048 471.293 147.249 471.111 147.491C470.93 147.73 470.67 147.944 470.333 148.133C469.996 148.319 469.547 148.412 468.986 148.412ZM469.168 147.207C469.706 147.207 470.161 147.067 470.532 146.787C470.903 146.503 471.185 146.111 471.379 145.611C471.572 145.107 471.668 144.525 471.668 143.866C471.668 143.215 471.574 142.645 471.384 142.156C471.195 141.664 470.915 141.281 470.543 141.008C470.172 140.732 469.714 140.594 469.168 140.594C468.6 140.594 468.127 140.739 467.748 141.031C467.373 141.319 467.091 141.711 466.901 142.207C466.716 142.7 466.623 143.253 466.623 143.866C466.623 144.488 466.718 145.052 466.907 145.56C467.1 146.063 467.384 146.465 467.759 146.764C468.138 147.06 468.608 147.207 469.168 147.207ZM479.288 148.412C478.447 148.412 477.721 148.226 477.111 147.855C476.505 147.48 476.038 146.957 475.708 146.287C475.382 145.613 475.219 144.828 475.219 143.935C475.219 143.041 475.382 142.253 475.708 141.571C476.038 140.885 476.496 140.351 477.083 139.969C477.674 139.582 478.363 139.389 479.151 139.389C479.606 139.389 480.055 139.465 480.498 139.616C480.941 139.768 481.344 140.014 481.708 140.355C482.072 140.692 482.361 141.139 482.577 141.696C482.793 142.253 482.901 142.938 482.901 143.753V144.321H476.174V143.162H481.538C481.538 142.669 481.439 142.23 481.242 141.844C481.049 141.457 480.772 141.152 480.413 140.929C480.057 140.705 479.636 140.594 479.151 140.594C478.617 140.594 478.155 140.726 477.765 140.991C477.379 141.253 477.081 141.594 476.873 142.014C476.665 142.435 476.56 142.885 476.56 143.366V144.139C476.56 144.798 476.674 145.357 476.901 145.815C477.132 146.27 477.452 146.616 477.861 146.855C478.271 147.09 478.746 147.207 479.288 147.207C479.64 147.207 479.958 147.158 480.242 147.06C480.53 146.957 480.778 146.806 480.986 146.605C481.195 146.4 481.356 146.147 481.469 145.844L482.765 146.207C482.629 146.647 482.399 147.033 482.077 147.366C481.755 147.696 481.358 147.953 480.884 148.139C480.411 148.321 479.879 148.412 479.288 148.412ZM484.941 148.23V139.503H486.236V140.866H486.35C486.532 140.4 486.825 140.039 487.231 139.781C487.636 139.52 488.123 139.389 488.691 139.389C489.267 139.389 489.746 139.52 490.129 139.781C490.515 140.039 490.816 140.4 491.032 140.866H491.123C491.346 140.416 491.682 140.058 492.129 139.792C492.575 139.524 493.111 139.389 493.736 139.389C494.517 139.389 495.155 139.633 495.651 140.122C496.147 140.607 496.396 141.363 496.396 142.389V148.23H495.055V142.389C495.055 141.745 494.879 141.285 494.526 141.008C494.174 140.732 493.759 140.594 493.282 140.594C492.668 140.594 492.193 140.779 491.856 141.15C491.519 141.518 491.35 141.984 491.35 142.548V148.23H489.986V142.253C489.986 141.756 489.825 141.357 489.504 141.054C489.182 140.747 488.767 140.594 488.259 140.594C487.911 140.594 487.585 140.686 487.282 140.872C486.983 141.058 486.74 141.315 486.555 141.645C486.373 141.971 486.282 142.347 486.282 142.775V148.23H484.941ZM502.393 148.412C501.605 148.412 500.914 148.224 500.319 147.849C499.728 147.474 499.266 146.95 498.933 146.275C498.603 145.601 498.438 144.813 498.438 143.912C498.438 143.003 498.603 142.209 498.933 141.531C499.266 140.853 499.728 140.327 500.319 139.952C500.914 139.577 501.605 139.389 502.393 139.389C503.181 139.389 503.87 139.577 504.461 139.952C505.056 140.327 505.518 140.853 505.847 141.531C506.181 142.209 506.347 143.003 506.347 143.912C506.347 144.813 506.181 145.601 505.847 146.275C505.518 146.95 505.056 147.474 504.461 147.849C503.87 148.224 503.181 148.412 502.393 148.412ZM502.393 147.207C502.991 147.207 503.484 147.054 503.87 146.747C504.256 146.44 504.542 146.037 504.728 145.537C504.914 145.037 505.006 144.495 505.006 143.912C505.006 143.328 504.914 142.785 504.728 142.281C504.542 141.777 504.256 141.37 503.87 141.06C503.484 140.749 502.991 140.594 502.393 140.594C501.794 140.594 501.302 140.749 500.915 141.06C500.529 141.37 500.243 141.777 500.058 142.281C499.872 142.785 499.779 143.328 499.779 143.912C499.779 144.495 499.872 145.037 500.058 145.537C500.243 146.037 500.529 146.44 500.915 146.747C501.302 147.054 501.794 147.207 502.393 147.207Z" fill="#0A85D1"/>
<path d="M519.109 148.23L518.234 147.366L521.836 143.764H512.506V142.514H521.836L518.234 138.923L519.109 138.048L524.2 143.139L519.109 148.23Z" fill="#0A85D1"/>
<defs>
<filter id="filter0_ddd_5001_426" x="215.39" y="119.23" width="161.72" height="54" filterUnits="userSpaceOnUse" color-interpolation-filters="sRGB">
<feFlood flood-opacity="0" result="BackgroundImageFix"/>
<feColorMatrix in="SourceAlpha" type="matrix" values="0 0 0 0 0 0 0 0 0 0 0 0 0 0 0 0 0 0 127 0" result="hardAlpha"/>
<feOffset dy="4"/>
<feGaussianBlur stdDeviation="4.5"/>
<feComposite in2="hardAlpha" operator="out"/>
<feColorMatrix type="matrix" values="0 0 0 0 0 0 0 0 0 0 0 0 0 0 0 0 0 0 0.05 0"/>
<feBlend mode="normal" in2="BackgroundImageFix" result="effect1_dropShadow_5001_426"/>
<feColorMatrix in="SourceAlpha" type="matrix" values="0 0 0 0 0 0 0 0 0 0 0 0 0 0 0 0 0 0 127 0" result="hardAlpha"/>
<feOffset dy="1.54074"/>
<feGaussianBlur stdDeviation="1.43333"/>
<feComposite in2="hardAlpha" operator="out"/>
<feColorMatrix type="matrix" values="0 0 0 0 0 0 0 0 0 0 0 0 0 0 0 0 0 0 0.07 0"/>
<feBlend mode="normal" in2="effect1_dropShadow_5001_426" result="effect2_dropShadow_5001_426"/>
<feColorMatrix in="SourceAlpha" type="matrix" values="0 0 0 0 0 0 0 0 0 0 0 0 0 0 0 0 0 0 127 0" result="hardAlpha"/>
<feOffset dy="0.325926"/>
<feGaussianBlur stdDeviation="0.366666"/>
<feComposite in2="hardAlpha" operator="out"/>
<feColorMatrix type="matrix" values="0 0 0 0 0 0 0 0 0 0 0 0 0 0 0 0 0 0 0.12 0"/>
<feBlend mode="normal" in2="effect2_dropShadow_5001_426" result="effect3_dropShadow_5001_426"/>
<feBlend mode="normal" in="SourceGraphic" in2="effect3_dropShadow_5001_426" result="shape"/>
</filter>
</defs>
</svg>
