<svg width="1920" height="62" viewBox="0 0 1920 62" fill="none" xmlns="http://www.w3.org/2000/svg">
<rect width="1920" height="62" fill="white"/>
<g clip-path="url(#clip0_5001_524)">
<path d="M17.9253 16.3809L35.632 15.0732C37.8069 14.8866 38.3659 15.0124 39.7333 16.0065L45.3856 19.9883C46.3179 20.673 46.6283 20.8597 46.6283 21.6053V43.4424C46.6283 44.8109 46.1312 45.6205 44.3915 45.7442L23.8293 46.989C22.5237 47.0508 21.9019 46.8642 21.2181 45.9927L17.056 40.5806C16.3093 39.5844 16 38.8388 16 37.9674V18.5569C16 17.438 16.4971 16.5047 17.9253 16.3809Z" fill="white"/>
<path fill-rule="evenodd" clip-rule="evenodd" d="M35.632 15.0732L17.9253 16.3809C16.4971 16.5047 16 17.438 16 18.5569V37.9674C16 38.8388 16.3093 39.5844 17.056 40.5806L21.2181 45.9927C21.9019 46.8642 22.5237 47.0508 23.8293 46.989L44.3915 45.7442C46.1301 45.6205 46.6283 44.8109 46.6283 43.4424V21.6053C46.6283 20.8981 46.3488 20.6944 45.5264 20.0907C45.4791 20.0566 45.4318 20.0224 45.3845 19.9883L39.7333 16.0065C38.3659 15.0124 37.8069 14.8866 35.632 15.0732ZM24.2944 21.248C22.6155 21.361 22.2347 21.3866 21.2811 20.6112L18.8565 18.6827C18.6101 18.4331 18.7339 18.1217 19.3547 18.0598L36.3765 16.8161C37.8059 16.6913 38.5504 17.1894 39.1093 17.6246L42.0288 19.7397C42.1536 19.8027 42.464 20.1749 42.0907 20.1749L24.512 21.233L24.2944 21.248ZM22.3371 43.2558V24.7177C22.3371 23.9081 22.5856 23.5348 23.3301 23.4719L43.52 22.2901C44.2048 22.2282 44.5141 22.6634 44.5141 23.4719V41.8862C44.5141 42.6958 44.3893 43.3806 43.2715 43.4424L23.9509 44.5624C22.8331 44.6242 22.3371 44.252 22.3371 43.2558ZM41.4091 25.7118C41.5328 26.2718 41.4091 26.8318 40.8491 26.8958L39.9179 27.0803V40.7673C39.1093 41.2025 38.3648 41.451 37.7429 41.451C36.7488 41.451 36.5003 41.1396 35.7557 40.2073L29.6661 30.6268V39.8959L31.5925 40.3321C31.5925 40.3321 31.5925 41.4521 30.0384 41.4521L25.7536 41.7006C25.6288 41.451 25.7536 40.8292 26.1877 40.7054L27.3067 40.3951V28.1395L25.7536 28.0136C25.6288 27.4536 25.9392 26.6451 26.8096 26.5822L31.4069 26.2729L37.7429 35.9771V27.3918L36.128 27.2062C36.0032 26.5203 36.5003 26.0222 37.1211 25.9614L41.4091 25.7118Z" fill="black"/>
<path d="M60.1963 37.6675V29.2304H60.3424L66.4267 37.6675H68.3424V25.2689H66.2123V33.6975H66.0662L59.9819 25.2689H58.0587V37.6664H60.1974L60.1963 37.6675ZM74.3627 37.8573C77.1734 37.8573 78.8832 36.0184 78.8832 32.9679C78.8832 29.9259 77.1649 28.0784 74.3627 28.0784C71.5702 28.0784 69.8433 29.9344 69.8433 32.9679C69.8433 36.0184 71.5446 37.8573 74.3627 37.8573ZM74.3627 36.0696C72.8769 36.0696 72.0267 34.9358 72.0267 32.9679C72.0267 31.0085 72.8769 29.8661 74.3627 29.8661C75.8411 29.8661 76.6912 31.0085 76.6912 32.9679C76.6912 34.9358 75.8496 36.0696 74.3627 36.0696ZM80.8299 25.9655V28.328H79.344V30.0293H80.8299V35.1587C80.8299 36.9805 81.6896 37.7112 83.8464 37.7112C84.2582 37.7112 84.6539 37.6685 84.9632 37.6077V35.9406C84.7051 35.9662 84.5419 35.9833 84.2411 35.9833C83.3483 35.9833 82.9526 35.5715 82.9526 34.6436V30.0293H84.9632V28.328H82.9526V25.9644L80.8299 25.9655ZM86.24 37.6675H88.3627V28.2672H86.24V37.6675ZM87.2971 26.7132C88.0011 26.7132 88.5686 26.1446 88.5686 25.4321C88.5686 24.7186 88.0022 24.1426 87.2971 24.1426C86.6017 24.1426 86.0257 24.7186 86.0257 25.4321C86.0257 26.1446 86.6017 26.7121 87.2971 26.7121V26.7132ZM94.1857 37.8573C96.9953 37.8573 98.7051 36.0184 98.7051 32.9679C98.7051 29.9259 96.9867 28.0784 94.1857 28.0784C91.3921 28.0784 89.6651 29.9344 89.6651 32.9679C89.6651 36.0184 91.3665 37.8573 94.1857 37.8573ZM94.1857 36.0696C92.6987 36.0696 91.8475 34.9358 91.8475 32.9679C91.8475 31.0085 92.6987 29.8661 94.1857 29.8661C95.663 29.8661 96.5142 31.0085 96.5142 32.9679C96.5142 34.9358 95.6715 36.0696 94.1857 36.0696ZM99.9734 37.6675H102.105V32.1946C102.105 30.8112 102.905 29.9344 104.175 29.9344C105.473 29.9344 106.074 30.6565 106.074 32.0911V37.6675H108.206V31.5845C108.206 29.3413 107.062 28.0784 104.966 28.0784C103.565 28.0784 102.62 28.7227 102.173 29.7712H102.027V28.2672H99.9734V37.6675Z" fill="#121212"/>
</g>
<path d="M131.999 37V26.0909H135.887C136.736 26.0909 137.439 26.2454 137.996 26.5543C138.554 26.8633 138.971 27.2859 139.248 27.8221C139.525 28.3548 139.664 28.9549 139.664 29.6225C139.664 30.2937 139.523 30.8974 139.243 31.4336C138.966 31.9663 138.547 32.3888 137.986 32.7013C137.428 33.0103 136.727 33.1648 135.882 33.1648H133.208V31.7692H135.733C136.269 31.7692 136.704 31.6768 137.038 31.4922C137.371 31.304 137.616 31.0483 137.773 30.7251C137.929 30.402 138.007 30.0344 138.007 29.6225C138.007 29.2106 137.929 28.8448 137.773 28.5252C137.616 28.2056 137.37 27.9553 137.032 27.7741C136.698 27.593 136.258 27.5025 135.711 27.5025H133.645V37H131.999ZM141.465 37V28.8182H143.005V30.1179H143.09C143.239 29.6776 143.502 29.3313 143.878 29.0792C144.258 28.8235 144.688 28.6957 145.168 28.6957C145.267 28.6957 145.384 28.6992 145.519 28.7063C145.658 28.7134 145.766 28.7223 145.844 28.733V30.2564C145.78 30.2386 145.666 30.2191 145.503 30.1978C145.34 30.1729 145.176 30.1605 145.013 30.1605C144.637 30.1605 144.301 30.2404 144.006 30.4002C143.715 30.5565 143.484 30.7749 143.314 31.0554C143.143 31.3324 143.058 31.6484 143.058 32.0036V37H141.465ZM150.376 37.1651C149.609 37.1651 148.939 36.9893 148.368 36.6378C147.796 36.2862 147.352 35.7944 147.036 35.1623C146.72 34.5302 146.562 33.7915 146.562 32.9464C146.562 32.0977 146.72 31.3555 147.036 30.7198C147.352 30.0842 147.796 29.5906 148.368 29.239C148.939 28.8874 149.609 28.7116 150.376 28.7116C151.143 28.7116 151.812 28.8874 152.384 29.239C152.956 29.5906 153.399 30.0842 153.716 30.7198C154.032 31.3555 154.19 32.0977 154.19 32.9464C154.19 33.7915 154.032 34.5302 153.716 35.1623C153.399 35.7944 152.956 36.2862 152.384 36.6378C151.812 36.9893 151.143 37.1651 150.376 37.1651ZM150.381 35.8281C150.878 35.8281 151.29 35.6967 151.617 35.4339C151.944 35.1712 152.185 34.8214 152.341 34.3846C152.501 33.9478 152.581 33.4666 152.581 32.9411C152.581 32.419 152.501 31.9396 152.341 31.5028C152.185 31.0625 151.944 30.7092 151.617 30.4428C151.29 30.1765 150.878 30.0433 150.381 30.0433C149.88 30.0433 149.465 30.1765 149.135 30.4428C148.808 30.7092 148.565 31.0625 148.405 31.5028C148.249 31.9396 148.17 32.419 148.17 32.9411C148.17 33.4666 148.249 33.9478 148.405 34.3846C148.565 34.8214 148.808 35.1712 149.135 35.4339C149.465 35.6967 149.88 35.8281 150.381 35.8281ZM159.03 37.1598C158.37 37.1598 157.78 36.9911 157.262 36.6538C156.747 36.3129 156.342 35.8281 156.047 35.1996C155.756 34.5675 155.611 33.8093 155.611 32.9251C155.611 32.0408 155.758 31.2844 156.053 30.6559C156.351 30.0273 156.759 29.5462 157.278 29.2124C157.796 28.8786 158.384 28.7116 159.041 28.7116C159.549 28.7116 159.957 28.7969 160.266 28.9673C160.579 29.1342 160.82 29.3295 160.99 29.5533C161.164 29.777 161.299 29.9741 161.395 30.1445H161.491V26.0909H163.084V37H161.528V35.7269H161.395C161.299 35.9009 161.161 36.0998 160.98 36.3235C160.802 36.5472 160.557 36.7425 160.245 36.9094C159.932 37.0763 159.527 37.1598 159.03 37.1598ZM159.382 35.8015C159.84 35.8015 160.227 35.6808 160.543 35.4393C160.863 35.1942 161.104 34.8551 161.267 34.4219C161.434 33.9886 161.518 33.4844 161.518 32.9091C161.518 32.3409 161.436 31.8437 161.273 31.4176C161.109 30.9915 160.87 30.6594 160.554 30.4215C160.238 30.1836 159.847 30.0646 159.382 30.0646C158.902 30.0646 158.503 30.1889 158.183 30.4375C157.864 30.6861 157.622 31.0252 157.459 31.4549C157.299 31.8846 157.219 32.3693 157.219 32.9091C157.219 33.456 157.301 33.9478 157.464 34.3846C157.628 34.8214 157.869 35.1676 158.189 35.4233C158.512 35.6754 158.91 35.8015 159.382 35.8015ZM170.54 33.6069V28.8182H172.138V37H170.572V35.5831H170.487C170.298 36.0199 169.997 36.3839 169.581 36.6751C169.169 36.9627 168.656 37.1065 168.042 37.1065C167.516 37.1065 167.051 36.9911 166.646 36.7603C166.245 36.5259 165.929 36.1797 165.698 35.7216C165.471 35.2635 165.357 34.6971 165.357 34.0224V28.8182H166.95V33.8306C166.95 34.3881 167.104 34.832 167.413 35.1623C167.722 35.4925 168.123 35.6577 168.617 35.6577C168.915 35.6577 169.212 35.5831 169.507 35.4339C169.805 35.2848 170.052 35.0593 170.247 34.7575C170.446 34.4556 170.543 34.0721 170.54 33.6069ZM177.724 37.1651C176.932 37.1651 176.251 36.9858 175.679 36.6271C175.111 36.2649 174.674 35.766 174.368 35.1303C174.063 34.4947 173.91 33.7667 173.91 32.9464C173.91 32.1154 174.067 31.3821 174.379 30.7464C174.692 30.1072 175.132 29.6083 175.7 29.2496C176.268 28.891 176.938 28.7116 177.708 28.7116C178.33 28.7116 178.884 28.8271 179.37 29.0579C179.857 29.2852 180.249 29.6048 180.547 30.0167C180.849 30.4286 181.029 30.9098 181.085 31.4602H179.535C179.45 31.0767 179.255 30.7464 178.949 30.4695C178.648 30.1925 178.243 30.054 177.735 30.054C177.291 30.054 176.902 30.1712 176.568 30.4055C176.238 30.6364 175.981 30.9666 175.796 31.3963C175.611 31.8224 175.519 32.3267 175.519 32.9091C175.519 33.5057 175.61 34.0206 175.791 34.4538C175.972 34.8871 176.228 35.2227 176.558 35.4606C176.892 35.6985 177.284 35.8175 177.735 35.8175C178.037 35.8175 178.31 35.7624 178.555 35.6523C178.804 35.5387 179.012 35.3771 179.179 35.1676C179.349 34.9581 179.468 34.706 179.535 34.4112H181.085C181.029 34.9403 180.856 35.4126 180.569 35.8281C180.281 36.2436 179.896 36.5703 179.413 36.8082C178.933 37.0462 178.371 37.1651 177.724 37.1651ZM186.608 28.8182V30.0966H182.139V28.8182H186.608ZM183.337 26.858H184.93V34.5977C184.93 34.9066 184.976 35.1392 185.069 35.2955C185.161 35.4482 185.28 35.5529 185.425 35.6097C185.575 35.663 185.736 35.6896 185.91 35.6896C186.038 35.6896 186.15 35.6808 186.246 35.663C186.342 35.6452 186.416 35.631 186.469 35.6204L186.757 36.9361C186.665 36.9716 186.533 37.0071 186.363 37.0426C186.192 37.0817 185.979 37.103 185.724 37.1065C185.305 37.1136 184.914 37.0391 184.552 36.8828C184.19 36.7266 183.897 36.4851 183.673 36.1584C183.449 35.8317 183.337 35.4215 183.337 34.9279V26.858Z" fill="#050505"/>
<g clip-path="url(#clip1_5001_524)">
<g clip-path="url(#clip2_5001_524)">
<path d="M193.72 30L196.72 33L199.72 30" stroke="#040404" stroke-width="1.5"/>
</g>
</g>
<path d="M225.45 37H221.919V26.0909H225.562C226.631 26.0909 227.549 26.3093 228.316 26.7461C229.083 27.1793 229.671 27.8026 230.079 28.6158C230.491 29.4254 230.697 30.3967 230.697 31.5295C230.697 32.6658 230.489 33.6424 230.074 34.4592C229.662 35.2759 229.065 35.9045 228.284 36.3448C227.503 36.7816 226.558 37 225.45 37ZM223.565 35.5618H225.36C226.191 35.5618 226.881 35.4055 227.432 35.093C227.982 34.777 228.394 34.3207 228.668 33.7241C228.941 33.1239 229.078 32.3924 229.078 31.5295C229.078 30.6737 228.941 29.9474 228.668 29.3509C228.398 28.7543 227.995 28.3015 227.458 27.9925C226.922 27.6836 226.256 27.5291 225.461 27.5291H223.565V35.5618ZM236.062 37.1651C235.295 37.1651 234.626 36.9893 234.054 36.6378C233.482 36.2862 233.039 35.7944 232.722 35.1623C232.406 34.5302 232.248 33.7915 232.248 32.9464C232.248 32.0977 232.406 31.3555 232.722 30.7198C233.039 30.0842 233.482 29.5906 234.054 29.239C234.626 28.8874 235.295 28.7116 236.062 28.7116C236.829 28.7116 237.499 28.8874 238.071 29.239C238.642 29.5906 239.086 30.0842 239.402 30.7198C239.718 31.3555 239.876 32.0977 239.876 32.9464C239.876 33.7915 239.718 34.5302 239.402 35.1623C239.086 35.7944 238.642 36.2862 238.071 36.6378C237.499 36.9893 236.829 37.1651 236.062 37.1651ZM236.068 35.8281C236.565 35.8281 236.977 35.6967 237.303 35.4339C237.63 35.1712 237.872 34.8214 238.028 34.3846C238.188 33.9478 238.268 33.4666 238.268 32.9411C238.268 32.419 238.188 31.9396 238.028 31.5028C237.872 31.0625 237.63 30.7092 237.303 30.4428C236.977 30.1765 236.565 30.0433 236.068 30.0433C235.567 30.0433 235.151 30.1765 234.821 30.4428C234.495 30.7092 234.251 31.0625 234.091 31.5028C233.935 31.9396 233.857 32.419 233.857 32.9411C233.857 33.4666 233.935 33.9478 234.091 34.3846C234.251 34.8214 234.495 35.1712 234.821 35.4339C235.151 35.6967 235.567 35.8281 236.068 35.8281ZM243.179 37L240.771 28.8182H242.417L244.02 34.8267H244.1L245.709 28.8182H247.355L248.953 34.8001H249.033L250.626 28.8182H252.271L249.869 37H248.245L246.583 31.0927H246.46L244.798 37H243.179ZM255.376 32.142V37H253.783V28.8182H255.312V30.1499H255.413C255.601 29.7166 255.896 29.3686 256.297 29.1058C256.702 28.843 257.212 28.7116 257.826 28.7116C258.383 28.7116 258.872 28.8288 259.291 29.0632C259.71 29.294 260.035 29.6385 260.266 30.0966C260.496 30.5547 260.612 31.1211 260.612 31.7958V37H259.019V31.9876C259.019 31.3945 258.865 30.9311 258.556 30.5973C258.247 30.2599 257.822 30.0913 257.283 30.0913C256.913 30.0913 256.585 30.1712 256.297 30.331C256.013 30.4908 255.788 30.7251 255.621 31.0341C255.457 31.3395 255.376 31.7088 255.376 32.142ZM264.34 26.0909V37H262.748V26.0909H264.34ZM269.93 37.1651C269.162 37.1651 268.493 36.9893 267.921 36.6378C267.35 36.2862 266.906 35.7944 266.59 35.1623C266.274 34.5302 266.116 33.7915 266.116 32.9464C266.116 32.0977 266.274 31.3555 266.59 30.7198C266.906 30.0842 267.35 29.5906 267.921 29.239C268.493 28.8874 269.162 28.7116 269.93 28.7116C270.697 28.7116 271.366 28.8874 271.938 29.239C272.509 29.5906 272.953 30.0842 273.269 30.7198C273.585 31.3555 273.743 32.0977 273.743 32.9464C273.743 33.7915 273.585 34.5302 273.269 35.1623C272.953 35.7944 272.509 36.2862 271.938 36.6378C271.366 36.9893 270.697 37.1651 269.93 37.1651ZM269.935 35.8281C270.432 35.8281 270.844 35.6967 271.171 35.4339C271.497 35.1712 271.739 34.8214 271.895 34.3846C272.055 33.9478 272.135 33.4666 272.135 32.9411C272.135 32.419 272.055 31.9396 271.895 31.5028C271.739 31.0625 271.497 30.7092 271.171 30.4428C270.844 30.1765 270.432 30.0433 269.935 30.0433C269.434 30.0433 269.019 30.1765 268.688 30.4428C268.362 30.7092 268.118 31.0625 267.959 31.5028C267.802 31.9396 267.724 32.419 267.724 32.9411C267.724 33.4666 267.802 33.9478 267.959 34.3846C268.118 34.8214 268.362 35.1712 268.688 35.4339C269.019 35.6967 269.434 35.8281 269.935 35.8281ZM277.902 37.1811C277.384 37.1811 276.915 37.0852 276.496 36.8935C276.077 36.6982 275.745 36.4158 275.5 36.0465C275.258 35.6772 275.138 35.2244 275.138 34.6882C275.138 34.2266 275.226 33.8466 275.404 33.5483C275.582 33.25 275.821 33.0138 276.123 32.8398C276.425 32.6658 276.762 32.5344 277.135 32.4457C277.508 32.3569 277.888 32.2894 278.275 32.2433C278.765 32.1864 279.163 32.1403 279.468 32.1048C279.774 32.0657 279.996 32.0036 280.134 31.9183C280.273 31.8331 280.342 31.6946 280.342 31.5028V31.4656C280.342 31.0004 280.211 30.6399 279.948 30.3842C279.688 30.1286 279.301 30.0007 278.786 30.0007C278.25 30.0007 277.828 30.1197 277.519 30.3576C277.213 30.592 277.002 30.853 276.885 31.1406L275.388 30.7997C275.566 30.3026 275.825 29.9013 276.166 29.5959C276.51 29.2869 276.906 29.0632 277.354 28.9247C277.801 28.7827 278.272 28.7116 278.765 28.7116C279.092 28.7116 279.438 28.7507 279.804 28.8288C280.173 28.9034 280.518 29.0419 280.837 29.2443C281.16 29.4467 281.425 29.7362 281.631 30.1126C281.837 30.4854 281.94 30.9702 281.94 31.5668V37H280.385V35.8814H280.321C280.218 36.0874 280.063 36.2898 279.857 36.4886C279.651 36.6875 279.387 36.8526 279.063 36.984C278.74 37.1154 278.353 37.1811 277.902 37.1811ZM278.249 35.9027C278.689 35.9027 279.065 35.8157 279.378 35.6417C279.694 35.4677 279.934 35.2404 280.097 34.9599C280.264 34.6758 280.347 34.3722 280.347 34.049V32.9943C280.29 33.0511 280.18 33.1044 280.017 33.1541C279.857 33.2003 279.674 33.2411 279.468 33.2766C279.262 33.3086 279.062 33.3388 278.866 33.3672C278.671 33.392 278.508 33.4134 278.376 33.4311C278.067 33.4702 277.785 33.5359 277.529 33.6282C277.277 33.7205 277.075 33.8537 276.922 34.0277C276.773 34.1982 276.698 34.4254 276.698 34.7095C276.698 35.1037 276.844 35.402 277.135 35.6044C277.426 35.8033 277.798 35.9027 278.249 35.9027ZM287.124 37.1598C286.464 37.1598 285.874 36.9911 285.356 36.6538C284.841 36.3129 284.436 35.8281 284.141 35.1996C283.85 34.5675 283.704 33.8093 283.704 32.9251C283.704 32.0408 283.852 31.2844 284.146 30.6559C284.445 30.0273 284.853 29.5462 285.372 29.2124C285.89 28.8786 286.478 28.7116 287.135 28.7116C287.643 28.7116 288.051 28.7969 288.36 28.9673C288.672 29.1342 288.914 29.3295 289.084 29.5533C289.258 29.777 289.393 29.9741 289.489 30.1445H289.585V26.0909H291.178V37H289.622V35.7269H289.489C289.393 35.9009 289.255 36.0998 289.074 36.3235C288.896 36.5472 288.651 36.7425 288.339 36.9094C288.026 37.0763 287.621 37.1598 287.124 37.1598ZM287.476 35.8015C287.934 35.8015 288.321 35.6808 288.637 35.4393C288.957 35.1942 289.198 34.8551 289.361 34.4219C289.528 33.9886 289.612 33.4844 289.612 32.9091C289.612 32.3409 289.53 31.8437 289.367 31.4176C289.203 30.9915 288.964 30.6594 288.648 30.4215C288.332 30.1836 287.941 30.0646 287.476 30.0646C286.996 30.0646 286.597 30.1889 286.277 30.4375C285.958 30.6861 285.716 31.0252 285.553 31.4549C285.393 31.8846 285.313 32.3693 285.313 32.9091C285.313 33.456 285.395 33.9478 285.558 34.3846C285.721 34.8214 285.963 35.1676 286.283 35.4233C286.606 35.6754 287.003 35.8015 287.476 35.8015Z" fill="#050505"/>
<g clip-path="url(#clip3_5001_524)">
<g clip-path="url(#clip4_5001_524)">
<path d="M298.7 30L301.7 33L304.7 30" stroke="#040404" stroke-width="1.5"/>
</g>
</g>
<path d="M332.849 28.9567C332.792 28.4524 332.557 28.0618 332.145 27.7848C331.733 27.5043 331.215 27.364 330.59 27.364C330.143 27.364 329.755 27.435 329.429 27.5771C329.102 27.7156 328.848 27.9073 328.667 28.1523C328.489 28.3938 328.401 28.669 328.401 28.978C328.401 29.2372 328.461 29.4609 328.582 29.6491C328.706 29.8374 328.868 29.9954 329.067 30.1232C329.269 30.2475 329.486 30.3523 329.716 30.4375C329.947 30.5192 330.169 30.5866 330.382 30.6399L331.448 30.9169C331.796 31.0021 332.152 31.1175 332.518 31.2631C332.884 31.4087 333.223 31.6005 333.536 31.8384C333.848 32.0763 334.1 32.3711 334.292 32.7227C334.487 33.0742 334.585 33.495 334.585 33.9851C334.585 34.603 334.425 35.1516 334.106 35.631C333.79 36.1104 333.33 36.4886 332.726 36.7656C332.126 37.0426 331.4 37.1811 330.547 37.1811C329.731 37.1811 329.024 37.0515 328.427 36.7923C327.831 36.533 327.364 36.1655 327.026 35.6896C326.689 35.2102 326.503 34.642 326.467 33.9851H328.118C328.15 34.3793 328.278 34.7077 328.502 34.9705C328.729 35.2298 329.019 35.4233 329.37 35.5511C329.725 35.6754 330.114 35.7376 330.537 35.7376C331.002 35.7376 331.416 35.6648 331.778 35.5192C332.144 35.37 332.431 35.1641 332.641 34.9013C332.85 34.6349 332.955 34.3242 332.955 33.9691C332.955 33.646 332.863 33.3814 332.678 33.1754C332.497 32.9695 332.25 32.799 331.938 32.6641C331.629 32.5291 331.279 32.4102 330.888 32.3072L329.599 31.9556C328.726 31.7177 328.033 31.3679 327.522 30.9062C327.014 30.4446 326.76 29.8338 326.76 29.0739C326.76 28.4453 326.931 27.8967 327.271 27.4279C327.612 26.9592 328.074 26.5952 328.656 26.3359C329.239 26.0732 329.896 25.9418 330.627 25.9418C331.366 25.9418 332.018 26.0714 332.582 26.3306C333.15 26.5898 333.598 26.9467 333.925 27.4013C334.251 27.8523 334.422 28.3707 334.436 28.9567H332.849ZM339.87 37.1651C339.103 37.1651 338.434 36.9893 337.862 36.6378C337.291 36.2862 336.847 35.7944 336.531 35.1623C336.215 34.5302 336.057 33.7915 336.057 32.9464C336.057 32.0977 336.215 31.3555 336.531 30.7198C336.847 30.0842 337.291 29.5906 337.862 29.239C338.434 28.8874 339.103 28.7116 339.87 28.7116C340.637 28.7116 341.307 28.8874 341.879 29.239C342.45 29.5906 342.894 30.0842 343.21 30.7198C343.526 31.3555 343.684 32.0977 343.684 32.9464C343.684 33.7915 343.526 34.5302 343.21 35.1623C342.894 35.7944 342.45 36.2862 341.879 36.6378C341.307 36.9893 340.637 37.1651 339.87 37.1651ZM339.876 35.8281C340.373 35.8281 340.785 35.6967 341.112 35.4339C341.438 35.1712 341.68 34.8214 341.836 34.3846C341.996 33.9478 342.076 33.4666 342.076 32.9411C342.076 32.419 341.996 31.9396 341.836 31.5028C341.68 31.0625 341.438 30.7092 341.112 30.4428C340.785 30.1765 340.373 30.0433 339.876 30.0433C339.375 30.0433 338.96 30.1765 338.629 30.4428C338.303 30.7092 338.059 31.0625 337.9 31.5028C337.743 31.9396 337.665 32.419 337.665 32.9411C337.665 33.4666 337.743 33.9478 337.9 34.3846C338.059 34.8214 338.303 35.1712 338.629 35.4339C338.96 35.6967 339.375 35.8281 339.876 35.8281ZM347.055 26.0909V37H345.462V26.0909H347.055ZM354.38 33.6069V28.8182H355.978V37H354.412V35.5831H354.327C354.139 36.0199 353.837 36.3839 353.422 36.6751C353.01 36.9627 352.497 37.1065 351.882 37.1065C351.357 37.1065 350.891 36.9911 350.487 36.7603C350.085 36.5259 349.769 36.1797 349.538 35.7216C349.311 35.2635 349.197 34.6971 349.197 34.0224V28.8182H350.79V33.8306C350.79 34.3881 350.945 34.832 351.254 35.1623C351.563 35.4925 351.964 35.6577 352.457 35.6577C352.756 35.6577 353.052 35.5831 353.347 35.4339C353.645 35.2848 353.892 35.0593 354.087 34.7575C354.286 34.4556 354.384 34.0721 354.38 33.6069ZM361.938 28.8182V30.0966H357.469V28.8182H361.938ZM358.667 26.858H360.26V34.5977C360.26 34.9066 360.306 35.1392 360.398 35.2955C360.491 35.4482 360.61 35.5529 360.755 35.6097C360.904 35.663 361.066 35.6896 361.24 35.6896C361.368 35.6896 361.48 35.6808 361.575 35.663C361.671 35.6452 361.746 35.631 361.799 35.6204L362.087 36.9361C361.994 36.9716 361.863 37.0071 361.693 37.0426C361.522 37.0817 361.309 37.103 361.053 37.1065C360.634 37.1136 360.244 37.0391 359.882 36.8828C359.519 36.7266 359.226 36.4851 359.003 36.1584C358.779 35.8317 358.667 35.4215 358.667 34.9279V26.858ZM363.699 37V28.8182H365.292V37H363.699ZM364.504 27.5558C364.227 27.5558 363.989 27.4634 363.79 27.2788C363.595 27.0906 363.497 26.8668 363.497 26.6076C363.497 26.3448 363.595 26.1211 363.79 25.9364C363.989 25.7482 364.227 25.6541 364.504 25.6541C364.781 25.6541 365.017 25.7482 365.212 25.9364C365.411 26.1211 365.511 26.3448 365.511 26.6076C365.511 26.8668 365.411 27.0906 365.212 27.2788C365.017 27.4634 364.781 27.5558 364.504 27.5558ZM370.881 37.1651C370.114 37.1651 369.445 36.9893 368.873 36.6378C368.301 36.2862 367.857 35.7944 367.541 35.1623C367.225 34.5302 367.067 33.7915 367.067 32.9464C367.067 32.0977 367.225 31.3555 367.541 30.7198C367.857 30.0842 368.301 29.5906 368.873 29.239C369.445 28.8874 370.114 28.7116 370.881 28.7116C371.648 28.7116 372.318 28.8874 372.889 29.239C373.461 29.5906 373.905 30.0842 374.221 30.7198C374.537 31.3555 374.695 32.0977 374.695 32.9464C374.695 33.7915 374.537 34.5302 374.221 35.1623C373.905 35.7944 373.461 36.2862 372.889 36.6378C372.318 36.9893 371.648 37.1651 370.881 37.1651ZM370.887 35.8281C371.384 35.8281 371.796 35.6967 372.122 35.4339C372.449 35.1712 372.69 34.8214 372.847 34.3846C373.007 33.9478 373.086 33.4666 373.086 32.9411C373.086 32.419 373.007 31.9396 372.847 31.5028C372.69 31.0625 372.449 30.7092 372.122 30.4428C371.796 30.1765 371.384 30.0433 370.887 30.0433C370.386 30.0433 369.97 30.1765 369.64 30.4428C369.313 30.7092 369.07 31.0625 368.91 31.5028C368.754 31.9396 368.676 32.419 368.676 32.9411C368.676 33.4666 368.754 33.9478 368.91 34.3846C369.07 34.8214 369.313 35.1712 369.64 35.4339C369.97 35.6967 370.386 35.8281 370.887 35.8281ZM378.066 32.142V37H376.473V28.8182H378.002V30.1499H378.103C378.291 29.7166 378.586 29.3686 378.987 29.1058C379.392 28.843 379.902 28.7116 380.516 28.7116C381.073 28.7116 381.562 28.8288 381.981 29.0632C382.4 29.294 382.725 29.6385 382.955 30.0966C383.186 30.5547 383.302 31.1211 383.302 31.7958V37H381.709V31.9876C381.709 31.3945 381.555 30.9311 381.246 30.5973C380.937 30.2599 380.512 30.0913 379.973 30.0913C379.603 30.0913 379.275 30.1712 378.987 30.331C378.703 30.4908 378.478 30.7251 378.311 31.0341C378.147 31.3395 378.066 31.7088 378.066 32.142ZM391.569 30.8157L390.125 31.0714C390.065 30.8867 389.969 30.7109 389.838 30.544C389.71 30.3771 389.536 30.2404 389.316 30.1339C389.095 30.0273 388.82 29.9741 388.49 29.9741C388.039 29.9741 387.663 30.0753 387.361 30.2777C387.059 30.4766 386.908 30.734 386.908 31.0501C386.908 31.3235 387.009 31.5437 387.212 31.7106C387.414 31.8775 387.741 32.0142 388.192 32.1207L389.491 32.419C390.244 32.593 390.805 32.8612 391.175 33.2234C391.544 33.5856 391.729 34.0561 391.729 34.6349C391.729 35.125 391.587 35.5618 391.302 35.9453C391.022 36.3253 390.629 36.6236 390.125 36.8402C389.625 37.0568 389.044 37.1651 388.383 37.1651C387.467 37.1651 386.72 36.9698 386.141 36.5792C385.562 36.185 385.207 35.6257 385.076 34.9013L386.615 34.6669C386.711 35.0682 386.908 35.3718 387.206 35.5778C387.504 35.7802 387.893 35.8814 388.373 35.8814C388.895 35.8814 389.312 35.7731 389.625 35.5565C389.937 35.3363 390.093 35.0682 390.093 34.7521C390.093 34.4964 389.997 34.2816 389.806 34.1076C389.617 33.9336 389.328 33.8022 388.937 33.7134L387.552 33.4098C386.789 33.2358 386.224 32.9588 385.859 32.5788C385.496 32.1989 385.315 31.7177 385.315 31.1353C385.315 30.6523 385.45 30.2298 385.72 29.8675C385.99 29.5053 386.363 29.223 386.839 29.0206C387.315 28.8146 387.86 28.7116 388.474 28.7116C389.358 28.7116 390.054 28.9034 390.562 29.2869C391.07 29.6669 391.405 30.1765 391.569 30.8157Z" fill="#050505"/>
<g clip-path="url(#clip5_5001_524)">
<g clip-path="url(#clip6_5001_524)">
<path d="M398.48 30L401.48 33L404.48 30" stroke="#040404" stroke-width="1.5"/>
</g>
</g>
<path d="M426.678 37V26.0909H430.567C431.412 26.0909 432.114 26.2365 432.671 26.5277C433.232 26.8189 433.651 27.2219 433.928 27.7369C434.205 28.2482 434.344 28.8395 434.344 29.5107C434.344 30.1783 434.203 30.766 433.923 31.2738C433.646 31.7781 433.227 32.1705 432.666 32.451C432.108 32.7315 431.407 32.8718 430.562 32.8718H427.616V31.4549H430.413C430.945 31.4549 431.378 31.3786 431.712 31.2259C432.05 31.0732 432.296 30.8512 432.453 30.56C432.609 30.2688 432.687 29.919 432.687 29.5107C432.687 29.0987 432.607 28.7418 432.447 28.44C432.291 28.1381 432.044 27.9073 431.707 27.7475C431.373 27.5842 430.935 27.5025 430.391 27.5025H428.324V37H426.678ZM432.064 32.0781L434.759 37H432.884L430.242 32.0781H432.064ZM439.642 37.1651C438.836 37.1651 438.142 36.9929 437.56 36.6484C436.981 36.3004 436.533 35.8121 436.217 35.1836C435.905 34.5515 435.749 33.8111 435.749 32.9624C435.749 32.1243 435.905 31.3857 436.217 30.7464C436.533 30.1072 436.974 29.6083 437.538 29.2496C438.106 28.891 438.771 28.7116 439.53 28.7116C439.992 28.7116 440.44 28.788 440.873 28.9407C441.306 29.0934 441.695 29.3331 442.039 29.6598C442.384 29.9865 442.655 30.4109 442.854 30.9329C443.053 31.4513 443.153 32.0817 443.153 32.8239V33.3885H436.649V32.1953H441.592C441.592 31.7763 441.507 31.4052 441.336 31.082C441.166 30.7553 440.926 30.4979 440.617 30.3097C440.312 30.1214 439.953 30.0273 439.541 30.0273C439.094 30.0273 438.703 30.1374 438.369 30.3576C438.039 30.5742 437.783 30.8583 437.602 31.2099C437.425 31.5579 437.336 31.9361 437.336 32.3445V33.2766C437.336 33.8235 437.432 34.2887 437.624 34.6722C437.819 35.0558 438.091 35.3487 438.439 35.5511C438.787 35.75 439.193 35.8494 439.658 35.8494C439.96 35.8494 440.235 35.8068 440.484 35.7216C440.733 35.6328 440.947 35.5014 441.129 35.3274C441.31 35.1534 441.448 34.9386 441.544 34.6829L443.051 34.9545C442.931 35.3984 442.714 35.7873 442.402 36.1211C442.093 36.4513 441.704 36.7088 441.235 36.8935C440.77 37.0746 440.239 37.1651 439.642 37.1651ZM451.051 30.8157L449.607 31.0714C449.547 30.8867 449.451 30.7109 449.32 30.544C449.192 30.3771 449.018 30.2404 448.798 30.1339C448.577 30.0273 448.302 29.9741 447.972 29.9741C447.521 29.9741 447.145 30.0753 446.843 30.2777C446.541 30.4766 446.39 30.734 446.39 31.0501C446.39 31.3235 446.491 31.5437 446.694 31.7106C446.896 31.8775 447.223 32.0142 447.674 32.1207L448.973 32.419C449.726 32.593 450.287 32.8612 450.657 33.2234C451.026 33.5856 451.211 34.0561 451.211 34.6349C451.211 35.125 451.069 35.5618 450.784 35.9453C450.504 36.3253 450.112 36.6236 449.607 36.8402C449.107 37.0568 448.526 37.1651 447.865 37.1651C446.949 37.1651 446.202 36.9698 445.623 36.5792C445.044 36.185 444.689 35.6257 444.558 34.9013L446.097 34.6669C446.193 35.0682 446.39 35.3718 446.688 35.5778C446.987 35.7802 447.375 35.8814 447.855 35.8814C448.377 35.8814 448.794 35.7731 449.107 35.5565C449.419 35.3363 449.575 35.0682 449.575 34.7521C449.575 34.4964 449.479 34.2816 449.288 34.1076C449.099 33.9336 448.81 33.8022 448.419 33.7134L447.034 33.4098C446.271 33.2358 445.706 32.9588 445.341 32.5788C444.978 32.1989 444.797 31.7177 444.797 31.1353C444.797 30.6523 444.932 30.2298 445.202 29.8675C445.472 29.5053 445.845 29.223 446.321 29.0206C446.797 28.8146 447.342 28.7116 447.956 28.7116C448.84 28.7116 449.536 28.9034 450.044 29.2869C450.552 29.6669 450.887 30.1765 451.051 30.8157ZM456.408 37.1651C455.641 37.1651 454.972 36.9893 454.4 36.6378C453.828 36.2862 453.384 35.7944 453.068 35.1623C452.752 34.5302 452.594 33.7915 452.594 32.9464C452.594 32.0977 452.752 31.3555 453.068 30.7198C453.384 30.0842 453.828 29.5906 454.4 29.239C454.972 28.8874 455.641 28.7116 456.408 28.7116C457.175 28.7116 457.845 28.8874 458.416 29.239C458.988 29.5906 459.432 30.0842 459.748 30.7198C460.064 31.3555 460.222 32.0977 460.222 32.9464C460.222 33.7915 460.064 34.5302 459.748 35.1623C459.432 35.7944 458.988 36.2862 458.416 36.6378C457.845 36.9893 457.175 37.1651 456.408 37.1651ZM456.413 35.8281C456.911 35.8281 457.323 35.6967 457.649 35.4339C457.976 35.1712 458.217 34.8214 458.374 34.3846C458.534 33.9478 458.613 33.4666 458.613 32.9411C458.613 32.419 458.534 31.9396 458.374 31.5028C458.217 31.0625 457.976 30.7092 457.649 30.4428C457.323 30.1765 456.911 30.0433 456.413 30.0433C455.913 30.0433 455.497 30.1765 455.167 30.4428C454.84 30.7092 454.597 31.0625 454.437 31.5028C454.281 31.9396 454.203 32.419 454.203 32.9411C454.203 33.4666 454.281 33.9478 454.437 34.3846C454.597 34.8214 454.84 35.1712 455.167 35.4339C455.497 35.6967 455.913 35.8281 456.413 35.8281ZM467.183 33.6069V28.8182H468.781V37H467.215V35.5831H467.129C466.941 36.0199 466.639 36.3839 466.224 36.6751C465.812 36.9627 465.299 37.1065 464.685 37.1065C464.159 37.1065 463.694 36.9911 463.289 36.7603C462.888 36.5259 462.572 36.1797 462.341 35.7216C462.114 35.2635 462 34.6971 462 34.0224V28.8182H463.593V33.8306C463.593 34.3881 463.747 34.832 464.056 35.1623C464.365 35.4925 464.766 35.6577 465.26 35.6577C465.558 35.6577 465.855 35.5831 466.149 35.4339C466.448 35.2848 466.694 35.0593 466.89 34.7575C467.089 34.4556 467.186 34.0721 467.183 33.6069ZM470.921 37V28.8182H472.46V30.1179H472.545C472.695 29.6776 472.957 29.3313 473.334 29.0792C473.714 28.8235 474.143 28.6957 474.623 28.6957C474.722 28.6957 474.839 28.6992 474.974 28.7063C475.113 28.7134 475.221 28.7223 475.299 28.733V30.2564C475.235 30.2386 475.122 30.2191 474.958 30.1978C474.795 30.1729 474.632 30.1605 474.468 30.1605C474.092 30.1605 473.756 30.2404 473.462 30.4002C473.17 30.5565 472.94 30.7749 472.769 31.0554C472.599 31.3324 472.513 31.6484 472.513 32.0036V37H470.921ZM479.831 37.1651C479.039 37.1651 478.357 36.9858 477.786 36.6271C477.217 36.2649 476.781 35.766 476.475 35.1303C476.17 34.4947 476.017 33.7667 476.017 32.9464C476.017 32.1154 476.173 31.3821 476.486 30.7464C476.798 30.1072 477.239 29.6083 477.807 29.2496C478.375 28.891 479.044 28.7116 479.815 28.7116C480.436 28.7116 480.99 28.8271 481.477 29.0579C481.963 29.2852 482.356 29.6048 482.654 30.0167C482.956 30.4286 483.135 30.9098 483.192 31.4602H481.642C481.557 31.0767 481.362 30.7464 481.056 30.4695C480.754 30.1925 480.349 30.054 479.842 30.054C479.398 30.054 479.009 30.1712 478.675 30.4055C478.345 30.6364 478.087 30.9666 477.903 31.3963C477.718 31.8224 477.626 32.3267 477.626 32.9091C477.626 33.5057 477.716 34.0206 477.897 34.4538C478.079 34.8871 478.334 35.2227 478.664 35.4606C478.998 35.6985 479.391 35.8175 479.842 35.8175C480.144 35.8175 480.417 35.7624 480.662 35.6523C480.911 35.5387 481.118 35.3771 481.285 35.1676C481.456 34.9581 481.575 34.706 481.642 34.4112H483.192C483.135 34.9403 482.963 35.4126 482.675 35.8281C482.388 36.2436 482.003 36.5703 481.52 36.8082C481.04 37.0462 480.477 37.1651 479.831 37.1651ZM488.422 37.1651C487.616 37.1651 486.921 36.9929 486.339 36.6484C485.76 36.3004 485.313 35.8121 484.997 35.1836C484.684 34.5515 484.528 33.8111 484.528 32.9624C484.528 32.1243 484.684 31.3857 484.997 30.7464C485.313 30.1072 485.753 29.6083 486.318 29.2496C486.886 28.891 487.55 28.7116 488.31 28.7116C488.771 28.7116 489.219 28.788 489.652 28.9407C490.085 29.0934 490.474 29.3331 490.819 29.6598C491.163 29.9865 491.435 30.4109 491.634 30.9329C491.833 31.4513 491.932 32.0817 491.932 32.8239V33.3885H485.428V32.1953H490.371C490.371 31.7763 490.286 31.4052 490.116 31.082C489.945 30.7553 489.705 30.4979 489.396 30.3097C489.091 30.1214 488.732 30.0273 488.32 30.0273C487.873 30.0273 487.482 30.1374 487.149 30.3576C486.818 30.5742 486.563 30.8583 486.382 31.2099C486.204 31.5579 486.115 31.9361 486.115 32.3445V33.2766C486.115 33.8235 486.211 34.2887 486.403 34.6722C486.598 35.0558 486.87 35.3487 487.218 35.5511C487.566 35.75 487.972 35.8494 488.438 35.8494C488.739 35.8494 489.015 35.8068 489.263 35.7216C489.512 35.6328 489.727 35.5014 489.908 35.3274C490.089 35.1534 490.227 34.9386 490.323 34.6829L491.831 34.9545C491.71 35.3984 491.493 35.7873 491.181 36.1211C490.872 36.4513 490.483 36.7088 490.014 36.8935C489.549 37.0746 489.018 37.1651 488.422 37.1651ZM499.83 30.8157L498.387 31.0714C498.326 30.8867 498.23 30.7109 498.099 30.544C497.971 30.3771 497.797 30.2404 497.577 30.1339C497.357 30.0273 497.082 29.9741 496.751 29.9741C496.3 29.9741 495.924 30.0753 495.622 30.2777C495.32 30.4766 495.169 30.734 495.169 31.0501C495.169 31.3235 495.27 31.5437 495.473 31.7106C495.675 31.8775 496.002 32.0142 496.453 32.1207L497.753 32.419C498.506 32.593 499.067 32.8612 499.436 33.2234C499.805 33.5856 499.99 34.0561 499.99 34.6349C499.99 35.125 499.848 35.5618 499.564 35.9453C499.283 36.3253 498.891 36.6236 498.387 36.8402C497.886 37.0568 497.305 37.1651 496.645 37.1651C495.729 37.1651 494.981 36.9698 494.402 36.5792C493.823 36.185 493.468 35.6257 493.337 34.9013L494.876 34.6669C494.972 35.0682 495.169 35.3718 495.468 35.5778C495.766 35.7802 496.155 35.8814 496.634 35.8814C497.156 35.8814 497.573 35.7731 497.886 35.5565C498.198 35.3363 498.355 35.0682 498.355 34.7521C498.355 34.4964 498.259 34.2816 498.067 34.1076C497.879 33.9336 497.589 33.8022 497.199 33.7134L495.814 33.4098C495.05 33.2358 494.486 32.9588 494.12 32.5788C493.758 32.1989 493.577 31.7177 493.577 31.1353C493.577 30.6523 493.712 30.2298 493.981 29.8675C494.251 29.5053 494.624 29.223 495.1 29.0206C495.576 28.8146 496.121 28.7116 496.735 28.7116C497.62 28.7116 498.316 28.9034 498.823 29.2869C499.331 29.6669 499.667 30.1765 499.83 30.8157Z" fill="#050505"/>
<g clip-path="url(#clip7_5001_524)">
<g clip-path="url(#clip8_5001_524)">
<path d="M506.88 30L509.88 33L512.88 30" stroke="#040404" stroke-width="1.5"/>
</g>
</g>
<path d="M535.079 37V26.0909H538.967C539.816 26.0909 540.519 26.2454 541.076 26.5543C541.634 26.8633 542.051 27.2859 542.328 27.8221C542.605 28.3548 542.744 28.9549 542.744 29.6225C542.744 30.2937 542.603 30.8974 542.323 31.4336C542.046 31.9663 541.627 32.3888 541.066 32.7013C540.508 33.0103 539.807 33.1648 538.962 33.1648H536.288V31.7692H538.813C539.349 31.7692 539.784 31.6768 540.118 31.4922C540.451 31.304 540.696 31.0483 540.853 30.7251C541.009 30.402 541.087 30.0344 541.087 29.6225C541.087 29.2106 541.009 28.8448 540.853 28.5252C540.696 28.2056 540.45 27.9553 540.112 27.7741C539.778 27.593 539.338 27.5025 538.791 27.5025H536.724V37H535.079ZM544.545 37V28.8182H546.085V30.1179H546.17C546.319 29.6776 546.582 29.3313 546.958 29.0792C547.338 28.8235 547.768 28.6957 548.247 28.6957C548.347 28.6957 548.464 28.6992 548.599 28.7063C548.738 28.7134 548.846 28.7223 548.924 28.733V30.2564C548.86 30.2386 548.746 30.2191 548.583 30.1978C548.42 30.1729 548.256 30.1605 548.093 30.1605C547.717 30.1605 547.381 30.2404 547.086 30.4002C546.795 30.5565 546.564 30.7749 546.394 31.0554C546.223 31.3324 546.138 31.6484 546.138 32.0036V37H544.545ZM550.302 37V28.8182H551.895V37H550.302ZM551.107 27.5558C550.83 27.5558 550.592 27.4634 550.393 27.2788C550.197 27.0906 550.1 26.8668 550.1 26.6076C550.1 26.3448 550.197 26.1211 550.393 25.9364C550.592 25.7482 550.83 25.6541 551.107 25.6541C551.384 25.6541 551.62 25.7482 551.815 25.9364C552.014 26.1211 552.113 26.3448 552.113 26.6076C552.113 26.8668 552.014 27.0906 551.815 27.2788C551.62 27.4634 551.384 27.5558 551.107 27.5558ZM557.484 37.1651C556.692 37.1651 556.01 36.9858 555.439 36.6271C554.87 36.2649 554.434 35.766 554.128 35.1303C553.823 34.4947 553.67 33.7667 553.67 32.9464C553.67 32.1154 553.826 31.3821 554.139 30.7464C554.451 30.1072 554.892 29.6083 555.46 29.2496C556.028 28.891 556.697 28.7116 557.468 28.7116C558.089 28.7116 558.643 28.8271 559.13 29.0579C559.616 29.2852 560.009 29.6048 560.307 30.0167C560.609 30.4286 560.788 30.9098 560.845 31.4602H559.295C559.21 31.0767 559.015 30.7464 558.709 30.4695C558.407 30.1925 558.002 30.054 557.495 30.054C557.051 30.054 556.662 30.1712 556.328 30.4055C555.998 30.6364 555.74 30.9666 555.556 31.3963C555.371 31.8224 555.279 32.3267 555.279 32.9091C555.279 33.5057 555.369 34.0206 555.55 34.4538C555.731 34.8871 555.987 35.2227 556.317 35.4606C556.651 35.6985 557.044 35.8175 557.495 35.8175C557.796 35.8175 558.07 35.7624 558.315 35.6523C558.564 35.5387 558.771 35.3771 558.938 35.1676C559.109 34.9581 559.228 34.706 559.295 34.4112H560.845C560.788 34.9403 560.616 35.4126 560.328 35.8281C560.041 36.2436 559.655 36.5703 559.173 36.8082C558.693 37.0462 558.13 37.1651 557.484 37.1651ZM562.548 37V28.8182H564.141V37H562.548ZM563.353 27.5558C563.076 27.5558 562.838 27.4634 562.639 27.2788C562.444 27.0906 562.346 26.8668 562.346 26.6076C562.346 26.3448 562.444 26.1211 562.639 25.9364C562.838 25.7482 563.076 25.6541 563.353 25.6541C563.63 25.6541 563.866 25.7482 564.061 25.9364C564.26 26.1211 564.359 26.3448 564.359 26.6076C564.359 26.8668 564.26 27.0906 564.061 27.2788C563.866 27.4634 563.63 27.5558 563.353 27.5558ZM567.876 32.142V37H566.284V28.8182H567.812V30.1499H567.914C568.102 29.7166 568.397 29.3686 568.798 29.1058C569.203 28.843 569.712 28.7116 570.327 28.7116C570.884 28.7116 571.372 28.8288 571.791 29.0632C572.211 29.294 572.535 29.6385 572.766 30.0966C572.997 30.5547 573.113 31.1211 573.113 31.7958V37H571.52V31.9876C571.52 31.3945 571.365 30.9311 571.056 30.5973C570.747 30.2599 570.323 30.0913 569.783 30.0913C569.414 30.0913 569.086 30.1712 568.798 30.331C568.514 30.4908 568.288 30.7251 568.121 31.0341C567.958 31.3395 567.876 31.7088 567.876 32.142ZM578.679 40.2386C578.029 40.2386 577.47 40.1534 577.001 39.983C576.536 39.8125 576.156 39.587 575.861 39.3065C575.566 39.0259 575.346 38.7188 575.201 38.3849L576.57 37.8203C576.665 37.9766 576.793 38.1417 576.953 38.3157C577.116 38.4933 577.337 38.6442 577.614 38.7685C577.894 38.8928 578.255 38.9549 578.695 38.9549C579.299 38.9549 579.798 38.8075 580.192 38.5128C580.586 38.2216 580.783 37.7564 580.783 37.1172V35.5085H580.682C580.586 35.6825 580.447 35.8761 580.266 36.0891C580.089 36.3022 579.844 36.4869 579.531 36.6431C579.219 36.7994 578.812 36.8775 578.311 36.8775C577.665 36.8775 577.083 36.7266 576.564 36.4247C576.049 36.1193 575.641 35.6701 575.339 35.0771C575.041 34.4805 574.892 33.7472 574.892 32.8771C574.892 32.0071 575.039 31.2614 575.334 30.6399C575.632 30.0185 576.04 29.5426 576.559 29.2124C577.077 28.8786 577.665 28.7116 578.322 28.7116C578.83 28.7116 579.24 28.7969 579.553 28.9673C579.865 29.1342 580.108 29.3295 580.282 29.5533C580.46 29.777 580.597 29.9741 580.692 30.1445H580.81V28.8182H582.37V37.1811C582.37 37.8842 582.207 38.4613 581.88 38.9123C581.554 39.3633 581.111 39.6971 580.554 39.9137C580 40.1303 579.375 40.2386 578.679 40.2386ZM578.663 35.5565C579.121 35.5565 579.508 35.4499 579.824 35.2369C580.144 35.0202 580.385 34.7113 580.549 34.31C580.715 33.9052 580.799 33.4205 580.799 32.8558C580.799 32.3054 580.717 31.8207 580.554 31.4016C580.391 30.9826 580.151 30.6559 579.835 30.4215C579.519 30.1836 579.128 30.0646 578.663 30.0646C578.184 30.0646 577.784 30.1889 577.464 30.4375C577.145 30.6825 576.903 31.0163 576.74 31.4389C576.58 31.8615 576.5 32.3338 576.5 32.8558C576.5 33.392 576.582 33.8626 576.745 34.2674C576.909 34.6722 577.15 34.9883 577.47 35.2156C577.793 35.4428 578.191 35.5565 578.663 35.5565Z" fill="#050505"/>
<path d="M1563.59 37V26.0909H1567.48C1568.32 26.0909 1569.02 26.2365 1569.58 26.5277C1570.14 26.8189 1570.56 27.2219 1570.84 27.7369C1571.12 28.2482 1571.25 28.8395 1571.25 29.5107C1571.25 30.1783 1571.11 30.766 1570.83 31.2738C1570.56 31.7781 1570.14 32.1705 1569.58 32.451C1569.02 32.7315 1568.32 32.8718 1567.47 32.8718H1564.53V31.4549H1567.32C1567.86 31.4549 1568.29 31.3786 1568.62 31.2259C1568.96 31.0732 1569.21 30.8512 1569.36 30.56C1569.52 30.2688 1569.6 29.919 1569.6 29.5107C1569.6 29.0987 1569.52 28.7418 1569.36 28.44C1569.2 28.1381 1568.95 27.9073 1568.62 27.7475C1568.28 27.5842 1567.84 27.5025 1567.3 27.5025H1565.23V37H1563.59ZM1568.97 32.0781L1571.67 37H1569.79L1567.15 32.0781H1568.97ZM1576.55 37.1651C1575.75 37.1651 1575.05 36.9929 1574.47 36.6484C1573.89 36.3004 1573.44 35.8121 1573.13 35.1836C1572.81 34.5515 1572.66 33.8111 1572.66 32.9624C1572.66 32.1243 1572.81 31.3857 1573.13 30.7464C1573.44 30.1072 1573.88 29.6083 1574.45 29.2496C1575.02 28.891 1575.68 28.7116 1576.44 28.7116C1576.9 28.7116 1577.35 28.788 1577.78 28.9407C1578.22 29.0934 1578.6 29.3331 1578.95 29.6598C1579.29 29.9865 1579.57 30.4109 1579.76 30.9329C1579.96 31.4513 1580.06 32.0817 1580.06 32.8239V33.3885H1573.56V32.1953H1578.5C1578.5 31.7763 1578.42 31.4052 1578.25 31.082C1578.08 30.7553 1577.84 30.4979 1577.53 30.3097C1577.22 30.1214 1576.86 30.0273 1576.45 30.0273C1576 30.0273 1575.61 30.1374 1575.28 30.3576C1574.95 30.5742 1574.69 30.8583 1574.51 31.2099C1574.33 31.5579 1574.25 31.9361 1574.25 32.3445V33.2766C1574.25 33.8235 1574.34 34.2887 1574.53 34.6722C1574.73 35.0558 1575 35.3487 1575.35 35.5511C1575.7 35.75 1576.1 35.8494 1576.57 35.8494C1576.87 35.8494 1577.15 35.8068 1577.39 35.7216C1577.64 35.6328 1577.86 35.5014 1578.04 35.3274C1578.22 35.1534 1578.36 34.9386 1578.45 34.6829L1579.96 34.9545C1579.84 35.3984 1579.62 35.7873 1579.31 36.1211C1579 36.4513 1578.61 36.7088 1578.15 36.8935C1577.68 37.0746 1577.15 37.1651 1576.55 37.1651ZM1587.35 40.0682V35.7269H1587.26C1587.16 35.9009 1587.02 36.0998 1586.84 36.3235C1586.66 36.5472 1586.42 36.7425 1586.11 36.9094C1585.79 37.0763 1585.39 37.1598 1584.89 37.1598C1584.23 37.1598 1583.64 36.9911 1583.12 36.6538C1582.61 36.3129 1582.2 35.8281 1581.91 35.1996C1581.62 34.5675 1581.47 33.8093 1581.47 32.9251C1581.47 32.0408 1581.62 31.2844 1581.92 30.6559C1582.21 30.0273 1582.62 29.5462 1583.14 29.2124C1583.66 28.8786 1584.25 28.7116 1584.9 28.7116C1585.41 28.7116 1585.82 28.7969 1586.13 28.9673C1586.44 29.1342 1586.68 29.3295 1586.85 29.5533C1587.03 29.777 1587.16 29.9741 1587.26 30.1445H1587.39V28.8182H1588.95V40.0682H1587.35ZM1585.24 35.8015C1585.7 35.8015 1586.09 35.6808 1586.41 35.4393C1586.73 35.1942 1586.97 34.8551 1587.13 34.4219C1587.3 33.9886 1587.38 33.4844 1587.38 32.9091C1587.38 32.3409 1587.3 31.8437 1587.14 31.4176C1586.97 30.9915 1586.73 30.6594 1586.42 30.4215C1586.1 30.1836 1585.71 30.0646 1585.24 30.0646C1584.76 30.0646 1584.37 30.1889 1584.05 30.4375C1583.73 30.6861 1583.48 31.0252 1583.32 31.4549C1583.16 31.8846 1583.08 32.3693 1583.08 32.9091C1583.08 33.456 1583.16 33.9478 1583.33 34.3846C1583.49 34.8214 1583.73 35.1676 1584.05 35.4233C1584.37 35.6754 1584.77 35.8015 1585.24 35.8015ZM1596.27 33.6069V28.8182H1597.87V37H1596.3V35.5831H1596.22C1596.03 36.0199 1595.73 36.3839 1595.31 36.6751C1594.9 36.9627 1594.39 37.1065 1593.77 37.1065C1593.25 37.1065 1592.78 36.9911 1592.38 36.7603C1591.98 36.5259 1591.66 36.1797 1591.43 35.7216C1591.2 35.2635 1591.09 34.6971 1591.09 34.0224V28.8182H1592.68V33.8306C1592.68 34.3881 1592.83 34.832 1593.14 35.1623C1593.45 35.4925 1593.85 35.6577 1594.35 35.6577C1594.65 35.6577 1594.94 35.5831 1595.24 35.4339C1595.54 35.2848 1595.78 35.0593 1595.98 34.7575C1596.18 34.4556 1596.27 34.0721 1596.27 33.6069ZM1603.53 37.1651C1602.73 37.1651 1602.03 36.9929 1601.45 36.6484C1600.87 36.3004 1600.43 35.8121 1600.11 35.1836C1599.8 34.5515 1599.64 33.8111 1599.64 32.9624C1599.64 32.1243 1599.8 31.3857 1600.11 30.7464C1600.43 30.1072 1600.87 29.6083 1601.43 29.2496C1602 28.891 1602.66 28.7116 1603.42 28.7116C1603.88 28.7116 1604.33 28.788 1604.77 28.9407C1605.2 29.0934 1605.59 29.3331 1605.93 29.6598C1606.28 29.9865 1606.55 30.4109 1606.75 30.9329C1606.95 31.4513 1607.05 32.0817 1607.05 32.8239V33.3885H1600.54V32.1953H1605.48C1605.48 31.7763 1605.4 31.4052 1605.23 31.082C1605.06 30.7553 1604.82 30.4979 1604.51 30.3097C1604.2 30.1214 1603.85 30.0273 1603.43 30.0273C1602.99 30.0273 1602.6 30.1374 1602.26 30.3576C1601.93 30.5742 1601.68 30.8583 1601.49 31.2099C1601.32 31.5579 1601.23 31.9361 1601.23 32.3445V33.2766C1601.23 33.8235 1601.32 34.2887 1601.52 34.6722C1601.71 35.0558 1601.98 35.3487 1602.33 35.5511C1602.68 35.75 1603.09 35.8494 1603.55 35.8494C1603.85 35.8494 1604.13 35.8068 1604.38 35.7216C1604.63 35.6328 1604.84 35.5014 1605.02 35.3274C1605.2 35.1534 1605.34 34.9386 1605.44 34.6829L1606.94 34.9545C1606.82 35.3984 1606.61 35.7873 1606.29 36.1211C1605.99 36.4513 1605.6 36.7088 1605.13 36.8935C1604.66 37.0746 1604.13 37.1651 1603.53 37.1651ZM1614.94 30.8157L1613.5 31.0714C1613.44 30.8867 1613.34 30.7109 1613.21 30.544C1613.08 30.3771 1612.91 30.2404 1612.69 30.1339C1612.47 30.0273 1612.19 29.9741 1611.86 29.9741C1611.41 29.9741 1611.04 30.0753 1610.74 30.2777C1610.43 30.4766 1610.28 30.734 1610.28 31.0501C1610.28 31.3235 1610.38 31.5437 1610.59 31.7106C1610.79 31.8775 1611.12 32.0142 1611.57 32.1207L1612.87 32.419C1613.62 32.593 1614.18 32.8612 1614.55 33.2234C1614.92 33.5856 1615.1 34.0561 1615.1 34.6349C1615.1 35.125 1614.96 35.5618 1614.68 35.9453C1614.4 36.3253 1614 36.6236 1613.5 36.8402C1613 37.0568 1612.42 37.1651 1611.76 37.1651C1610.84 37.1651 1610.09 36.9698 1609.52 36.5792C1608.94 36.185 1608.58 35.6257 1608.45 34.9013L1609.99 34.6669C1610.09 35.0682 1610.28 35.3718 1610.58 35.5778C1610.88 35.7802 1611.27 35.8814 1611.75 35.8814C1612.27 35.8814 1612.69 35.7731 1613 35.5565C1613.31 35.3363 1613.47 35.0682 1613.47 34.7521C1613.47 34.4964 1613.37 34.2816 1613.18 34.1076C1612.99 33.9336 1612.7 33.8022 1612.31 33.7134L1610.93 33.4098C1610.16 33.2358 1609.6 32.9588 1609.23 32.5788C1608.87 32.1989 1608.69 31.7177 1608.69 31.1353C1608.69 30.6523 1608.82 30.2298 1609.09 29.8675C1609.36 29.5053 1609.74 29.223 1610.21 29.0206C1610.69 28.8146 1611.23 28.7116 1611.85 28.7116C1612.73 28.7116 1613.43 28.9034 1613.94 29.2869C1614.44 29.6669 1614.78 30.1765 1614.94 30.8157ZM1620.67 28.8182V30.0966H1616.2V28.8182H1620.67ZM1617.4 26.858H1619V34.5977C1619 34.9066 1619.04 35.1392 1619.13 35.2955C1619.23 35.4482 1619.35 35.5529 1619.49 35.6097C1619.64 35.663 1619.8 35.6896 1619.98 35.6896C1620.1 35.6896 1620.22 35.6808 1620.31 35.663C1620.41 35.6452 1620.48 35.631 1620.53 35.6204L1620.82 36.9361C1620.73 36.9716 1620.6 37.0071 1620.43 37.0426C1620.26 37.0817 1620.04 37.103 1619.79 37.1065C1619.37 37.1136 1618.98 37.0391 1618.62 36.8828C1618.26 36.7266 1617.96 36.4851 1617.74 36.1584C1617.51 35.8317 1617.4 35.4215 1617.4 34.9279V26.858ZM1628.79 37.1811C1628.27 37.1811 1627.8 37.0852 1627.38 36.8935C1626.96 36.6982 1626.63 36.4158 1626.38 36.0465C1626.14 35.6772 1626.02 35.2244 1626.02 34.6882C1626.02 34.2266 1626.11 33.8466 1626.29 33.5483C1626.47 33.25 1626.71 33.0138 1627.01 32.8398C1627.31 32.6658 1627.65 32.5344 1628.02 32.4457C1628.39 32.3569 1628.77 32.2894 1629.16 32.2433C1629.65 32.1864 1630.05 32.1403 1630.35 32.1048C1630.66 32.0657 1630.88 32.0036 1631.02 31.9183C1631.16 31.8331 1631.23 31.6946 1631.23 31.5028V31.4656C1631.23 31.0004 1631.09 30.6399 1630.83 30.3842C1630.57 30.1286 1630.19 30.0007 1629.67 30.0007C1629.13 30.0007 1628.71 30.1197 1628.4 30.3576C1628.1 30.592 1627.89 30.853 1627.77 31.1406L1626.27 30.7997C1626.45 30.3026 1626.71 29.9013 1627.05 29.5959C1627.39 29.2869 1627.79 29.0632 1628.24 28.9247C1628.68 28.7827 1629.16 28.7116 1629.65 28.7116C1629.98 28.7116 1630.32 28.7507 1630.69 28.8288C1631.06 28.9034 1631.4 29.0419 1631.72 29.2443C1632.04 29.4467 1632.31 29.7362 1632.51 30.1126C1632.72 30.4854 1632.82 30.9702 1632.82 31.5668V37H1631.27V35.8814H1631.2C1631.1 36.0874 1630.95 36.2898 1630.74 36.4886C1630.53 36.6875 1630.27 36.8526 1629.95 36.984C1629.62 37.1154 1629.24 37.1811 1628.79 37.1811ZM1629.13 35.9027C1629.57 35.9027 1629.95 35.8157 1630.26 35.6417C1630.58 35.4677 1630.82 35.2404 1630.98 34.9599C1631.15 34.6758 1631.23 34.3722 1631.23 34.049V32.9943C1631.17 33.0511 1631.06 33.1044 1630.9 33.1541C1630.74 33.2003 1630.56 33.2411 1630.35 33.2766C1630.15 33.3086 1629.95 33.3388 1629.75 33.3672C1629.55 33.392 1629.39 33.4134 1629.26 33.4311C1628.95 33.4702 1628.67 33.5359 1628.41 33.6282C1628.16 33.7205 1627.96 33.8537 1627.81 34.0277C1627.66 34.1982 1627.58 34.4254 1627.58 34.7095C1627.58 35.1037 1627.73 35.402 1628.02 35.6044C1628.31 35.8033 1628.68 35.9027 1629.13 35.9027ZM1641.98 37.1598C1641.32 37.1598 1640.73 36.9911 1640.21 36.6538C1639.69 36.3129 1639.29 35.8281 1638.99 35.1996C1638.7 34.5675 1638.56 33.8093 1638.56 32.9251C1638.56 32.0408 1638.71 31.2844 1639 30.6559C1639.3 30.0273 1639.71 29.5462 1640.23 29.2124C1640.74 28.8786 1641.33 28.7116 1641.99 28.7116C1642.5 28.7116 1642.9 28.7969 1643.21 28.9673C1643.53 29.1342 1643.77 29.3295 1643.94 29.5533C1644.11 29.777 1644.25 29.9741 1644.34 30.1445H1644.44V26.0909H1646.03V37H1644.48V35.7269H1644.34C1644.25 35.9009 1644.11 36.0998 1643.93 36.3235C1643.75 36.5472 1643.5 36.7425 1643.19 36.9094C1642.88 37.0763 1642.47 37.1598 1641.98 37.1598ZM1642.33 35.8015C1642.79 35.8015 1643.17 35.6808 1643.49 35.4393C1643.81 35.1942 1644.05 34.8551 1644.21 34.4219C1644.38 33.9886 1644.47 33.4844 1644.47 32.9091C1644.47 32.3409 1644.38 31.8437 1644.22 31.4176C1644.06 30.9915 1643.82 30.6594 1643.5 30.4215C1643.19 30.1836 1642.79 30.0646 1642.33 30.0646C1641.85 30.0646 1641.45 30.1889 1641.13 30.4375C1640.81 30.6861 1640.57 31.0252 1640.41 31.4549C1640.25 31.8846 1640.17 32.3693 1640.17 32.9091C1640.17 33.456 1640.25 33.9478 1640.41 34.3846C1640.57 34.8214 1640.82 35.1676 1641.14 35.4233C1641.46 35.6754 1641.86 35.8015 1642.33 35.8015ZM1651.83 37.1651C1651.02 37.1651 1650.33 36.9929 1649.75 36.6484C1649.17 36.3004 1648.72 35.8121 1648.41 35.1836C1648.09 34.5515 1647.94 33.8111 1647.94 32.9624C1647.94 32.1243 1648.09 31.3857 1648.41 30.7464C1648.72 30.1072 1649.16 29.6083 1649.73 29.2496C1650.29 28.891 1650.96 28.7116 1651.72 28.7116C1652.18 28.7116 1652.63 28.788 1653.06 28.9407C1653.49 29.0934 1653.88 29.3331 1654.23 29.6598C1654.57 29.9865 1654.84 30.4109 1655.04 30.9329C1655.24 31.4513 1655.34 32.0817 1655.34 32.8239V33.3885H1648.84V32.1953H1653.78C1653.78 31.7763 1653.7 31.4052 1653.52 31.082C1653.35 30.7553 1653.11 30.4979 1652.81 30.3097C1652.5 30.1214 1652.14 30.0273 1651.73 30.0273C1651.28 30.0273 1650.89 30.1374 1650.56 30.3576C1650.23 30.5742 1649.97 30.8583 1649.79 31.2099C1649.61 31.5579 1649.52 31.9361 1649.52 32.3445V33.2766C1649.52 33.8235 1649.62 34.2887 1649.81 34.6722C1650.01 35.0558 1650.28 35.3487 1650.63 35.5511C1650.97 35.75 1651.38 35.8494 1651.85 35.8494C1652.15 35.8494 1652.42 35.8068 1652.67 35.7216C1652.92 35.6328 1653.14 35.5014 1653.32 35.3274C1653.5 35.1534 1653.64 34.9386 1653.73 34.6829L1655.24 34.9545C1655.12 35.3984 1654.9 35.7873 1654.59 36.1211C1654.28 36.4513 1653.89 36.7088 1653.42 36.8935C1652.96 37.0746 1652.43 37.1651 1651.83 37.1651ZM1657.11 37V28.8182H1658.64V30.1499H1658.74C1658.91 29.6989 1659.19 29.3473 1659.57 29.0952C1659.96 28.8395 1660.42 28.7116 1660.96 28.7116C1661.51 28.7116 1661.97 28.8395 1662.34 29.0952C1662.71 29.3509 1662.99 29.7024 1663.16 30.1499H1663.25C1663.45 29.7131 1663.76 29.3651 1664.18 29.1058C1664.61 28.843 1665.12 28.7116 1665.71 28.7116C1666.45 28.7116 1667.05 28.9442 1667.52 29.4094C1667.99 29.8746 1668.23 30.576 1668.23 31.5135V37H1666.64V31.6626C1666.64 31.1087 1666.49 30.7074 1666.18 30.4588C1665.88 30.2102 1665.52 30.0859 1665.1 30.0859C1664.59 30.0859 1664.18 30.2457 1663.89 30.5653C1663.61 30.8814 1663.46 31.288 1663.46 31.7852V37H1661.88V31.5614C1661.88 31.1175 1661.74 30.7607 1661.46 30.4908C1661.18 30.2209 1660.82 30.0859 1660.38 30.0859C1660.08 30.0859 1659.8 30.1658 1659.54 30.3256C1659.29 30.4819 1659.09 30.7003 1658.93 30.9808C1658.78 31.2614 1658.7 31.5863 1658.7 31.9556V37H1657.11ZM1673.81 37.1651C1673.04 37.1651 1672.37 36.9893 1671.8 36.6378C1671.23 36.2862 1670.79 35.7944 1670.47 35.1623C1670.16 34.5302 1670 33.7915 1670 32.9464C1670 32.0977 1670.16 31.3555 1670.47 30.7198C1670.79 30.0842 1671.23 29.5906 1671.8 29.239C1672.37 28.8874 1673.04 28.7116 1673.81 28.7116C1674.58 28.7116 1675.25 28.8874 1675.82 29.239C1676.39 29.5906 1676.84 30.0842 1677.15 30.7198C1677.47 31.3555 1677.63 32.0977 1677.63 32.9464C1677.63 33.7915 1677.47 34.5302 1677.15 35.1623C1676.84 35.7944 1676.39 36.2862 1675.82 36.6378C1675.25 36.9893 1674.58 37.1651 1673.81 37.1651ZM1673.82 35.8281C1674.31 35.8281 1674.73 35.6967 1675.05 35.4339C1675.38 35.1712 1675.62 34.8214 1675.78 34.3846C1675.94 33.9478 1676.02 33.4666 1676.02 32.9411C1676.02 32.419 1675.94 31.9396 1675.78 31.5028C1675.62 31.0625 1675.38 30.7092 1675.05 30.4428C1674.73 30.1765 1674.31 30.0433 1673.82 30.0433C1673.32 30.0433 1672.9 30.1765 1672.57 30.4428C1672.24 30.7092 1672 31.0625 1671.84 31.5028C1671.68 31.9396 1671.61 32.419 1671.61 32.9411C1671.61 33.4666 1671.68 33.9478 1671.84 34.3846C1672 34.8214 1672.24 35.1712 1672.57 35.4339C1672.9 35.6967 1673.32 35.8281 1673.82 35.8281Z" fill="#050505"/>
<rect x="1697.72" y="21" width="1" height="20" fill="black" fill-opacity="0.1"/>
<path d="M1719.92 37V26.0909H1721.56V35.5831H1726.51V37H1719.92ZM1731.7 37.1651C1730.94 37.1651 1730.27 36.9893 1729.7 36.6378C1729.12 36.2862 1728.68 35.7944 1728.36 35.1623C1728.05 34.5302 1727.89 33.7915 1727.89 32.9464C1727.89 32.0977 1728.05 31.3555 1728.36 30.7198C1728.68 30.0842 1729.12 29.5906 1729.7 29.239C1730.27 28.8874 1730.94 28.7116 1731.7 28.7116C1732.47 28.7116 1733.14 28.8874 1733.71 29.239C1734.28 29.5906 1734.73 30.0842 1735.04 30.7198C1735.36 31.3555 1735.52 32.0977 1735.52 32.9464C1735.52 33.7915 1735.36 34.5302 1735.04 35.1623C1734.73 35.7944 1734.28 36.2862 1733.71 36.6378C1733.14 36.9893 1732.47 37.1651 1731.7 37.1651ZM1731.71 35.8281C1732.21 35.8281 1732.62 35.6967 1732.94 35.4339C1733.27 35.1712 1733.51 34.8214 1733.67 34.3846C1733.83 33.9478 1733.91 33.4666 1733.91 32.9411C1733.91 32.419 1733.83 31.9396 1733.67 31.5028C1733.51 31.0625 1733.27 30.7092 1732.94 30.4428C1732.62 30.1765 1732.21 30.0433 1731.71 30.0433C1731.21 30.0433 1730.79 30.1765 1730.46 30.4428C1730.14 30.7092 1729.89 31.0625 1729.73 31.5028C1729.58 31.9396 1729.5 32.419 1729.5 32.9411C1729.5 33.4666 1729.58 33.9478 1729.73 34.3846C1729.89 34.8214 1730.14 35.1712 1730.46 35.4339C1730.79 35.6967 1731.21 35.8281 1731.71 35.8281ZM1740.73 40.2386C1740.08 40.2386 1739.52 40.1534 1739.05 39.983C1738.58 39.8125 1738.2 39.587 1737.91 39.3065C1737.61 39.0259 1737.39 38.7188 1737.25 38.3849L1738.62 37.8203C1738.71 37.9766 1738.84 38.1417 1739 38.3157C1739.16 38.4933 1739.38 38.6442 1739.66 38.7685C1739.94 38.8928 1740.3 38.9549 1740.74 38.9549C1741.35 38.9549 1741.84 38.8075 1742.24 38.5128C1742.63 38.2216 1742.83 37.7564 1742.83 37.1172V35.5085H1742.73C1742.63 35.6825 1742.49 35.8761 1742.31 36.0891C1742.14 36.3022 1741.89 36.4869 1741.58 36.6431C1741.27 36.7994 1740.86 36.8775 1740.36 36.8775C1739.71 36.8775 1739.13 36.7266 1738.61 36.4247C1738.1 36.1193 1737.69 35.6701 1737.39 35.0771C1737.09 34.4805 1736.94 33.7472 1736.94 32.8771C1736.94 32.0071 1737.09 31.2614 1737.38 30.6399C1737.68 30.0185 1738.09 29.5426 1738.61 29.2124C1739.12 28.8786 1739.71 28.7116 1740.37 28.7116C1740.88 28.7116 1741.29 28.7969 1741.6 28.9673C1741.91 29.1342 1742.16 29.3295 1742.33 29.5533C1742.51 29.777 1742.64 29.9741 1742.74 30.1445H1742.86V28.8182H1744.42V37.1811C1744.42 37.8842 1744.25 38.4613 1743.93 38.9123C1743.6 39.3633 1743.16 39.6971 1742.6 39.9137C1742.05 40.1303 1741.42 40.2386 1740.73 40.2386ZM1740.71 35.5565C1741.17 35.5565 1741.56 35.4499 1741.87 35.2369C1742.19 35.0202 1742.43 34.7113 1742.6 34.31C1742.76 33.9052 1742.85 33.4205 1742.85 32.8558C1742.85 32.3054 1742.76 31.8207 1742.6 31.4016C1742.44 30.9826 1742.2 30.6559 1741.88 30.4215C1741.57 30.1836 1741.18 30.0646 1740.71 30.0646C1740.23 30.0646 1739.83 30.1889 1739.51 30.4375C1739.19 30.6825 1738.95 31.0163 1738.79 31.4389C1738.63 31.8615 1738.55 32.3338 1738.55 32.8558C1738.55 33.392 1738.63 33.8626 1738.79 34.2674C1738.96 34.6722 1739.2 34.9883 1739.52 35.2156C1739.84 35.4428 1740.24 35.5565 1740.71 35.5565ZM1750.52 37V28.8182H1752.12V37H1750.52ZM1751.33 27.5558C1751.05 27.5558 1750.81 27.4634 1750.61 27.2788C1750.42 27.0906 1750.32 26.8668 1750.32 26.6076C1750.32 26.3448 1750.42 26.1211 1750.61 25.9364C1750.81 25.7482 1751.05 25.6541 1751.33 25.6541C1751.6 25.6541 1751.84 25.7482 1752.04 25.9364C1752.23 26.1211 1752.33 26.3448 1752.33 26.6076C1752.33 26.8668 1752.23 27.0906 1752.04 27.2788C1751.84 27.4634 1751.6 27.5558 1751.33 27.5558ZM1755.85 32.142V37H1754.26V28.8182H1755.79V30.1499H1755.89C1756.08 29.7166 1756.37 29.3686 1756.77 29.1058C1757.18 28.843 1757.69 28.7116 1758.3 28.7116C1758.86 28.7116 1759.35 28.8288 1759.77 29.0632C1760.19 29.294 1760.51 29.6385 1760.74 30.0966C1760.97 30.5547 1761.09 31.1211 1761.09 31.7958V37H1759.49V31.9876C1759.49 31.3945 1759.34 30.9311 1759.03 30.5973C1758.72 30.2599 1758.3 30.0913 1757.76 30.0913C1757.39 30.0913 1757.06 30.1712 1756.77 30.331C1756.49 30.4908 1756.26 30.7251 1756.1 31.0341C1755.93 31.3395 1755.85 31.7088 1755.85 32.142Z" fill="#050505"/>
<g filter="url(#filter0_ddd_5001_524)">
<rect x="1781.91" y="16" width="122.09" height="30" rx="5" fill="#121212" shape-rendering="crispEdges"/>
<path d="M1800.46 28.3171C1800.38 28.0582 1800.27 27.8265 1800.13 27.622C1799.99 27.4142 1799.82 27.2369 1799.63 27.0898C1799.43 26.9428 1799.21 26.8326 1798.96 26.7591C1798.72 26.6824 1798.44 26.644 1798.15 26.644C1797.62 26.644 1797.15 26.7766 1796.74 27.0419C1796.33 27.3072 1796 27.6971 1795.77 28.2116C1795.53 28.723 1795.42 29.3462 1795.42 30.0813C1795.42 30.8228 1795.53 31.4508 1795.77 31.9654C1796 32.4799 1796.32 32.8714 1796.74 33.1399C1797.16 33.4052 1797.64 33.5378 1798.19 33.5378C1798.69 33.5378 1799.12 33.4419 1799.48 33.2502C1799.85 33.0584 1800.13 32.7868 1800.33 32.4352C1800.53 32.0804 1800.63 31.665 1800.63 31.1887L1801.03 31.2511H1798.37V29.8608H1802.35V31.0401C1802.35 31.8807 1802.17 32.6078 1801.81 33.2214C1801.45 33.835 1800.96 34.3081 1800.34 34.6404C1799.71 34.9696 1798.99 35.1342 1798.18 35.1342C1797.27 35.1342 1796.48 34.9313 1795.8 34.5254C1795.12 34.1163 1794.58 33.5362 1794.2 32.7852C1793.82 32.0309 1793.63 31.136 1793.63 30.1005C1793.63 29.3079 1793.74 28.6 1793.96 27.9767C1794.19 27.3535 1794.51 26.8246 1794.91 26.3899C1795.32 25.9521 1795.8 25.6197 1796.34 25.3928C1796.89 25.1626 1797.48 25.0476 1798.13 25.0476C1798.67 25.0476 1799.18 25.1275 1799.65 25.2873C1800.12 25.4439 1800.53 25.6676 1800.9 25.9585C1801.26 26.2493 1801.57 26.5945 1801.8 26.994C1802.04 27.3935 1802.19 27.8345 1802.27 28.3171H1800.46ZM1807.3 35.1438C1806.56 35.1438 1805.92 34.9904 1805.39 34.6836C1804.85 34.3736 1804.44 33.9357 1804.15 33.37C1803.87 32.8011 1803.72 32.1316 1803.72 31.3613C1803.72 30.6039 1803.87 29.9391 1804.15 29.367C1804.45 28.7917 1804.85 28.3443 1805.37 28.0247C1805.89 27.7019 1806.51 27.5405 1807.21 27.5405C1807.66 27.5405 1808.09 27.614 1808.49 27.761C1808.9 27.9048 1809.26 28.1286 1809.57 28.4322C1809.88 28.7358 1810.13 29.1225 1810.31 29.5923C1810.48 30.0589 1810.57 30.6151 1810.57 31.2607V31.7928H1804.54V30.623H1808.91C1808.91 30.2907 1808.84 29.995 1808.69 29.7362C1808.55 29.4741 1808.36 29.2679 1808.1 29.1177C1807.86 28.9675 1807.56 28.8924 1807.23 28.8924C1806.88 28.8924 1806.57 28.9787 1806.3 29.1513C1806.03 29.3207 1805.82 29.5444 1805.67 29.8224C1805.52 30.0973 1805.45 30.3993 1805.44 30.7285V31.7496C1805.44 32.1779 1805.52 32.5455 1805.68 32.8523C1805.84 33.1559 1806.05 33.3892 1806.34 33.5522C1806.62 33.712 1806.95 33.7919 1807.32 33.7919C1807.58 33.7919 1807.8 33.7567 1808.01 33.6864C1808.21 33.6129 1808.39 33.5059 1808.54 33.3652C1808.69 33.2246 1808.8 33.0504 1808.88 32.8427L1810.5 33.0249C1810.4 33.4531 1810.2 33.8271 1809.92 34.1467C1809.63 34.4631 1809.27 34.7092 1808.82 34.8849C1808.38 35.0575 1807.87 35.1438 1807.3 35.1438ZM1815.77 27.6364V28.9787H1811.53V27.6364H1815.77ZM1812.58 25.8722H1814.31V32.7852C1814.31 33.0185 1814.35 33.1974 1814.42 33.3221C1814.49 33.4435 1814.59 33.5266 1814.71 33.5714C1814.82 33.6161 1814.96 33.6385 1815.1 33.6385C1815.21 33.6385 1815.31 33.6305 1815.4 33.6145C1815.49 33.5985 1815.56 33.5842 1815.61 33.5714L1815.9 34.9281C1815.81 34.96 1815.68 34.9952 1815.5 35.0336C1815.33 35.0719 1815.13 35.0943 1814.88 35.1007C1814.44 35.1135 1814.05 35.0479 1813.7 34.9041C1813.36 34.7571 1813.08 34.5302 1812.88 34.2234C1812.67 33.9165 1812.57 33.533 1812.58 33.0728V25.8722ZM1828.81 25.1818V35H1827.22L1822.6 28.3123H1822.52V35H1820.74V25.1818H1822.33L1826.95 31.8743H1827.04V25.1818H1828.81ZM1833.93 35.1438C1833.21 35.1438 1832.58 34.9856 1832.06 34.6692C1831.53 34.3528 1831.12 33.9102 1830.83 33.3413C1830.54 32.7724 1830.4 32.1076 1830.4 31.3469C1830.4 30.5863 1830.54 29.9199 1830.83 29.3478C1831.12 28.7757 1831.53 28.3315 1832.06 28.0151C1832.58 27.6987 1833.21 27.5405 1833.93 27.5405C1834.64 27.5405 1835.27 27.6987 1835.8 28.0151C1836.32 28.3315 1836.73 28.7757 1837.02 29.3478C1837.31 29.9199 1837.45 30.5863 1837.45 31.3469C1837.45 32.1076 1837.31 32.7724 1837.02 33.3413C1836.73 33.9102 1836.32 34.3528 1835.8 34.6692C1835.27 34.9856 1834.64 35.1438 1833.93 35.1438ZM1833.94 33.7536C1834.32 33.7536 1834.65 33.6465 1834.91 33.4324C1835.18 33.215 1835.37 32.9242 1835.5 32.5598C1835.63 32.1955 1835.69 31.7896 1835.69 31.3422C1835.69 30.8915 1835.63 30.484 1835.5 30.1197C1835.37 29.7521 1835.18 29.4597 1834.91 29.2424C1834.65 29.025 1834.32 28.9164 1833.94 28.9164C1833.54 28.9164 1833.2 29.025 1832.94 29.2424C1832.68 29.4597 1832.48 29.7521 1832.35 30.1197C1832.22 30.484 1832.16 30.8915 1832.16 31.3422C1832.16 31.7896 1832.22 32.1955 1832.35 32.5598C1832.48 32.9242 1832.68 33.215 1832.94 33.4324C1833.2 33.6465 1833.54 33.7536 1833.94 33.7536ZM1842.65 27.6364V28.9787H1838.42V27.6364H1842.65ZM1839.46 25.8722H1841.2V32.7852C1841.2 33.0185 1841.23 33.1974 1841.3 33.3221C1841.38 33.4435 1841.47 33.5266 1841.59 33.5714C1841.71 33.6161 1841.84 33.6385 1841.98 33.6385C1842.09 33.6385 1842.19 33.6305 1842.28 33.6145C1842.37 33.5985 1842.44 33.5842 1842.49 33.5714L1842.79 34.9281C1842.69 34.96 1842.56 34.9952 1842.39 35.0336C1842.22 35.0719 1842.01 35.0943 1841.76 35.1007C1841.33 35.1135 1840.94 35.0479 1840.59 34.9041C1840.24 34.7571 1839.96 34.5302 1839.76 34.2234C1839.56 33.9165 1839.46 33.533 1839.46 33.0728V25.8722ZM1844.15 35V27.6364H1845.88V35H1844.15ZM1845.02 26.5913C1844.75 26.5913 1844.51 26.5002 1844.31 26.318C1844.11 26.1326 1844.02 25.9105 1844.02 25.6516C1844.02 25.3896 1844.11 25.1674 1844.31 24.9853C1844.51 24.7999 1844.75 24.7072 1845.02 24.7072C1845.3 24.7072 1845.54 24.7999 1845.73 24.9853C1845.93 25.1674 1846.03 25.3896 1846.03 25.6516C1846.03 25.9105 1845.93 26.1326 1845.73 26.318C1845.54 26.5002 1845.3 26.5913 1845.02 26.5913ZM1850.93 35.1438C1850.21 35.1438 1849.59 34.9856 1849.06 34.6692C1848.53 34.3528 1848.12 33.9102 1847.83 33.3413C1847.54 32.7724 1847.4 32.1076 1847.4 31.3469C1847.4 30.5863 1847.54 29.9199 1847.83 29.3478C1848.12 28.7757 1848.53 28.3315 1849.06 28.0151C1849.59 27.6987 1850.21 27.5405 1850.93 27.5405C1851.65 27.5405 1852.27 27.6987 1852.8 28.0151C1853.33 28.3315 1853.73 28.7757 1854.02 29.3478C1854.31 29.9199 1854.46 30.5863 1854.46 31.3469C1854.46 32.1076 1854.31 32.7724 1854.02 33.3413C1853.73 33.9102 1853.33 34.3528 1852.8 34.6692C1852.27 34.9856 1851.65 35.1438 1850.93 35.1438ZM1850.94 33.7536C1851.33 33.7536 1851.65 33.6465 1851.92 33.4324C1852.18 33.215 1852.37 32.9242 1852.5 32.5598C1852.63 32.1955 1852.7 31.7896 1852.7 31.3422C1852.7 30.8915 1852.63 30.484 1852.5 30.1197C1852.37 29.7521 1852.18 29.4597 1851.92 29.2424C1851.65 29.025 1851.33 28.9164 1850.94 28.9164C1850.54 28.9164 1850.21 29.025 1849.94 29.2424C1849.68 29.4597 1849.48 29.7521 1849.35 30.1197C1849.22 30.484 1849.16 30.8915 1849.16 31.3422C1849.16 31.7896 1849.22 32.1955 1849.35 32.5598C1849.48 32.9242 1849.68 33.215 1849.94 33.4324C1850.21 33.6465 1850.54 33.7536 1850.94 33.7536ZM1857.71 30.6854V35H1855.98V27.6364H1857.64V28.8876H1857.72C1857.89 28.4753 1858.16 28.1477 1858.53 27.9048C1858.91 27.6619 1859.37 27.5405 1859.92 27.5405C1860.43 27.5405 1860.87 27.6491 1861.25 27.8665C1861.63 28.0838 1861.92 28.3986 1862.13 28.8109C1862.34 29.2232 1862.44 29.7234 1862.44 30.3114V35H1860.7V30.5799C1860.7 30.0877 1860.58 29.7026 1860.32 29.4245C1860.07 29.1465 1859.72 29.0075 1859.27 29.0075C1858.97 29.0075 1858.7 29.0746 1858.46 29.2088C1858.23 29.3398 1858.04 29.53 1857.91 29.7793C1857.78 30.0286 1857.71 30.3306 1857.71 30.6854ZM1871.38 27.6364V28.9787H1867.02V27.6364H1871.38ZM1868.11 35V26.9412C1868.11 26.4458 1868.21 26.0336 1868.42 25.7044C1868.63 25.3752 1868.9 25.1291 1869.25 24.9661C1869.6 24.8031 1869.99 24.7216 1870.41 24.7216C1870.71 24.7216 1870.98 24.7456 1871.21 24.7935C1871.45 24.8414 1871.62 24.8846 1871.73 24.9229L1871.39 26.2653C1871.31 26.2429 1871.22 26.2205 1871.11 26.1982C1871 26.1726 1870.87 26.1598 1870.73 26.1598C1870.41 26.1598 1870.18 26.2381 1870.05 26.3947C1869.92 26.5481 1869.85 26.7686 1869.85 27.0563V35H1868.11ZM1872.78 35V27.6364H1874.46V28.8636H1874.54C1874.68 28.4386 1874.91 28.111 1875.23 27.8809C1875.56 27.6475 1875.94 27.5309 1876.36 27.5309C1876.45 27.5309 1876.56 27.5357 1876.68 27.5453C1876.8 27.5517 1876.9 27.5629 1876.98 27.5788V29.1752C1876.91 29.1497 1876.79 29.1273 1876.63 29.1081C1876.47 29.0858 1876.32 29.0746 1876.18 29.0746C1875.86 29.0746 1875.58 29.1433 1875.32 29.2807C1875.07 29.415 1874.88 29.6019 1874.73 29.8416C1874.59 30.0813 1874.52 30.3578 1874.52 30.671V35H1872.78ZM1881.14 35.1438C1880.4 35.1438 1879.76 34.9904 1879.23 34.6836C1878.69 34.3736 1878.28 33.9357 1877.99 33.37C1877.71 32.8011 1877.56 32.1316 1877.56 31.3613C1877.56 30.6039 1877.71 29.9391 1877.99 29.367C1878.28 28.7917 1878.69 28.3443 1879.21 28.0247C1879.73 27.7019 1880.34 27.5405 1881.05 27.5405C1881.5 27.5405 1881.93 27.614 1882.33 27.761C1882.74 27.9048 1883.1 28.1286 1883.41 28.4322C1883.72 28.7358 1883.96 29.1225 1884.14 29.5923C1884.32 30.0589 1884.41 30.6151 1884.41 31.2607V31.7928H1878.38V30.623H1882.75C1882.75 30.2907 1882.67 29.995 1882.53 29.7362C1882.39 29.4741 1882.2 29.2679 1881.94 29.1177C1881.69 28.9675 1881.4 28.8924 1881.07 28.8924C1880.72 28.8924 1880.4 28.9787 1880.14 29.1513C1879.87 29.3207 1879.66 29.5444 1879.51 29.8224C1879.36 30.0973 1879.29 30.3993 1879.28 30.7285V31.7496C1879.28 32.1779 1879.36 32.5455 1879.52 32.8523C1879.67 33.1559 1879.89 33.3892 1880.17 33.5522C1880.46 33.712 1880.78 33.7919 1881.16 33.7919C1881.41 33.7919 1881.64 33.7567 1881.85 33.6864C1882.05 33.6129 1882.23 33.5059 1882.38 33.3652C1882.53 33.2246 1882.64 33.0504 1882.72 32.8427L1884.34 33.0249C1884.24 33.4531 1884.04 33.8271 1883.76 34.1467C1883.47 34.4631 1883.11 34.7092 1882.66 34.8849C1882.22 35.0575 1881.71 35.1438 1881.14 35.1438ZM1889.19 35.1438C1888.45 35.1438 1887.81 34.9904 1887.27 34.6836C1886.74 34.3736 1886.33 33.9357 1886.04 33.37C1885.75 32.8011 1885.61 32.1316 1885.61 31.3613C1885.61 30.6039 1885.75 29.9391 1886.04 29.367C1886.33 28.7917 1886.74 28.3443 1887.26 28.0247C1887.78 27.7019 1888.39 27.5405 1889.1 27.5405C1889.55 27.5405 1889.98 27.614 1890.38 27.761C1890.79 27.9048 1891.14 28.1286 1891.46 28.4322C1891.77 28.7358 1892.01 29.1225 1892.19 29.5923C1892.37 30.0589 1892.46 30.6151 1892.46 31.2607V31.7928H1886.43V30.623H1890.8C1890.8 30.2907 1890.72 29.995 1890.58 29.7362C1890.44 29.4741 1890.25 29.2679 1889.99 29.1177C1889.74 28.9675 1889.45 28.8924 1889.12 28.8924C1888.77 28.8924 1888.45 28.9787 1888.19 29.1513C1887.92 29.3207 1887.71 29.5444 1887.56 29.8224C1887.41 30.0973 1887.34 30.3993 1887.33 30.7285V31.7496C1887.33 32.1779 1887.41 32.5455 1887.57 32.8523C1887.72 33.1559 1887.94 33.3892 1888.22 33.5522C1888.51 33.712 1888.83 33.7919 1889.21 33.7919C1889.46 33.7919 1889.69 33.7567 1889.9 33.6864C1890.1 33.6129 1890.28 33.5059 1890.43 33.3652C1890.58 33.2246 1890.69 33.0504 1890.77 32.8427L1892.39 33.0249C1892.29 33.4531 1892.09 33.8271 1891.8 34.1467C1891.52 34.4631 1891.16 34.7092 1890.71 34.8849C1890.27 35.0575 1889.76 35.1438 1889.19 35.1438Z" fill="white"/>
</g>
<defs>
<filter id="filter0_ddd_5001_524" x="1772.91" y="11" width="140.09" height="48" filterUnits="userSpaceOnUse" color-interpolation-filters="sRGB">
<feFlood flood-opacity="0" result="BackgroundImageFix"/>
<feColorMatrix in="SourceAlpha" type="matrix" values="0 0 0 0 0 0 0 0 0 0 0 0 0 0 0 0 0 0 127 0" result="hardAlpha"/>
<feOffset dy="4"/>
<feGaussianBlur stdDeviation="4.5"/>
<feComposite in2="hardAlpha" operator="out"/>
<feColorMatrix type="matrix" values="0 0 0 0 0 0 0 0 0 0 0 0 0 0 0 0 0 0 0.05 0"/>
<feBlend mode="normal" in2="BackgroundImageFix" result="effect1_dropShadow_5001_524"/>
<feColorMatrix in="SourceAlpha" type="matrix" values="0 0 0 0 0 0 0 0 0 0 0 0 0 0 0 0 0 0 127 0" result="hardAlpha"/>
<feOffset dy="1.54074"/>
<feGaussianBlur stdDeviation="1.43333"/>
<feComposite in2="hardAlpha" operator="out"/>
<feColorMatrix type="matrix" values="0 0 0 0 0 0 0 0 0 0 0 0 0 0 0 0 0 0 0.07 0"/>
<feBlend mode="normal" in2="effect1_dropShadow_5001_524" result="effect2_dropShadow_5001_524"/>
<feColorMatrix in="SourceAlpha" type="matrix" values="0 0 0 0 0 0 0 0 0 0 0 0 0 0 0 0 0 0 127 0" result="hardAlpha"/>
<feOffset dy="0.325926"/>
<feGaussianBlur stdDeviation="0.366666"/>
<feComposite in2="hardAlpha" operator="out"/>
<feColorMatrix type="matrix" values="0 0 0 0 0 0 0 0 0 0 0 0 0 0 0 0 0 0 0.12 0"/>
<feBlend mode="normal" in2="effect2_dropShadow_5001_524" result="effect3_dropShadow_5001_524"/>
<feBlend mode="normal" in="SourceGraphic" in2="effect3_dropShadow_5001_524" result="shape"/>
</filter>
<clipPath id="clip0_5001_524">
<rect width="92.8" height="32" fill="white" transform="translate(16 15)"/>
</clipPath>
<clipPath id="clip1_5001_524">
<rect width="8" height="6" fill="white" transform="translate(192.72 29)"/>
</clipPath>
<clipPath id="clip2_5001_524">
<rect width="8" height="6" fill="white" transform="translate(192.72 29)"/>
</clipPath>
<clipPath id="clip3_5001_524">
<rect width="8" height="6" fill="white" transform="translate(297.7 29)"/>
</clipPath>
<clipPath id="clip4_5001_524">
<rect width="8" height="6" fill="white" transform="translate(297.7 29)"/>
</clipPath>
<clipPath id="clip5_5001_524">
<rect width="8" height="6" fill="white" transform="translate(397.48 29)"/>
</clipPath>
<clipPath id="clip6_5001_524">
<rect width="8" height="6" fill="white" transform="translate(397.48 29)"/>
</clipPath>
<clipPath id="clip7_5001_524">
<rect width="8" height="6" fill="white" transform="translate(505.88 29)"/>
</clipPath>
<clipPath id="clip8_5001_524">
<rect width="8" height="6" fill="white" transform="translate(505.88 29)"/>
</clipPath>
</defs>
</svg>
