<svg width="646" height="102" viewBox="0 0 646 102" fill="none" xmlns="http://www.w3.org/2000/svg">
<path d="M2.10469 23V9.08H7.34469C9.12469 9.08 10.4647 9.46 11.3847 10.22C12.2847 10.98 12.7447 12.04 12.7447 13.38C12.7447 14.46 12.4647 15.34 11.8847 16.02C11.3047 16.72 10.5647 17.2 9.66469 17.48L13.3647 23H11.1047L7.64469 17.78H4.00469V23H2.10469ZM4.00469 16.08H7.12469C8.38469 16.08 9.30469 15.84 9.90469 15.36C10.5047 14.9 10.8047 14.22 10.8047 13.36C10.8047 12.5 10.5047 11.86 9.90469 11.42C9.30469 11 8.38469 10.78 7.12469 10.78H4.00469V16.08ZM19.3664 23.28C18.3464 23.28 17.4864 23.06 16.7464 22.62C16.0064 22.18 15.4264 21.56 15.0264 20.74C14.6264 19.92 14.4264 18.96 14.4264 17.86C14.4264 16.84 14.6264 15.92 15.0264 15.1C15.4064 14.28 15.9664 13.64 16.7064 13.18C17.4264 12.72 18.2864 12.48 19.3064 12.48C20.2864 12.48 21.1064 12.7 21.7664 13.12C22.4264 13.56 22.9464 14.16 23.2864 14.92C23.6264 15.7 23.8064 16.6 23.8064 17.62V18.46H16.2664C16.3664 19.5 16.6664 20.3 17.2064 20.84C17.7464 21.4 18.4664 21.68 19.3864 21.68C19.9864 21.68 20.5064 21.58 20.9264 21.36C21.3464 21.16 21.6064 20.9 21.7464 20.56H23.5864C23.3464 21.38 22.8464 22.04 22.0864 22.54C21.3264 23.04 20.4264 23.28 19.3664 23.28ZM19.2864 14.08C18.4464 14.08 17.7664 14.34 17.2664 14.84C16.7464 15.36 16.4264 16.08 16.3064 16.98H22.0064C21.9664 16.12 21.7264 15.42 21.2864 14.88C20.8264 14.34 20.1664 14.08 19.2864 14.08ZM28.9592 23.28C27.8992 23.28 27.0592 23 26.4192 22.42C25.7792 21.86 25.4592 21.1 25.4592 20.12C25.4592 19.08 25.8392 18.26 26.5992 17.68C27.3392 17.1 28.4192 16.82 29.7992 16.82H32.2192V16.38C32.2192 15.56 32.0192 14.96 31.5992 14.6C31.1792 14.26 30.5992 14.08 29.8592 14.08C29.2392 14.08 28.7392 14.2 28.3392 14.44C27.9392 14.68 27.6992 14.98 27.5992 15.32H25.7992C25.9792 14.48 26.4192 13.8 27.1592 13.26C27.8792 12.74 28.7792 12.48 29.8792 12.48C31.1392 12.48 32.1592 12.8 32.8992 13.46C33.6392 14.12 33.9992 15.14 33.9992 16.52V23H32.3192V21.46C31.9592 22.08 31.4792 22.52 30.8592 22.82C30.2392 23.14 29.6192 23.28 28.9592 23.28ZM29.3592 21.72C29.7992 21.72 30.2392 21.62 30.6792 21.42C31.1192 21.22 31.4792 20.92 31.7792 20.52C32.0792 20.14 32.2192 19.64 32.2192 19.04V18.28H29.9192C29.0792 18.28 28.4192 18.42 27.9592 18.72C27.4992 19.02 27.2592 19.46 27.2592 20.04C27.2592 20.58 27.4592 21 27.8392 21.28C28.2192 21.58 28.7392 21.72 29.3592 21.72ZM40.8423 23.28C39.9423 23.28 39.1423 23.06 38.4623 22.58C37.7623 22.12 37.2223 21.5 36.8423 20.68C36.4623 19.88 36.2623 18.94 36.2623 17.88C36.2623 16.82 36.4623 15.88 36.8423 15.06C37.2223 14.26 37.7623 13.62 38.4623 13.16C39.1423 12.7 39.9423 12.48 40.8423 12.48C41.5823 12.48 42.2223 12.64 42.8023 12.98C43.3823 13.32 43.8423 13.78 44.2023 14.36V8.5H45.9823V23H44.2423V21.34C43.8823 21.94 43.4223 22.42 42.8423 22.76C42.2623 23.1 41.6023 23.28 40.8423 23.28ZM41.1623 21.64C42.0823 21.64 42.8423 21.3 43.4223 20.6C44.0023 19.9 44.2823 19 44.2823 17.88C44.2823 16.76 44.0023 15.86 43.4223 15.16C42.8423 14.46 42.0823 14.12 41.1623 14.12C40.2623 14.12 39.5223 14.46 38.9423 15.14C38.3623 15.84 38.0823 16.74 38.0823 17.88C38.0823 19.02 38.3623 19.92 38.9423 20.6C39.5223 21.3 40.2623 21.64 41.1623 21.64ZM50.0927 27.1L51.7927 23L47.7327 12.76H49.7527L52.7527 20.9L55.7127 12.76H57.6527L51.9927 27.1H50.0927ZM67.7698 23.08C66.7898 23.08 66.0498 22.8 65.5298 22.26C65.0098 21.72 64.7498 20.94 64.7498 19.9V14.36H62.9298V12.76H64.7498V9.5C65.3298 9.46 65.9298 9.34 66.5298 9.16V12.76H68.7698V14.36H66.5298V19.74C66.5298 20.3 66.6698 20.72 66.9498 21.02C67.2098 21.32 67.5898 21.48 68.0898 21.48H68.7698V23.08H67.7698ZM75.2258 23.28C74.2658 23.28 73.4058 23.06 72.6658 22.6C71.9258 22.14 71.3458 21.52 70.9258 20.7C70.5058 19.88 70.2858 18.94 70.2858 17.88C70.2858 16.82 70.5058 15.88 70.9258 15.06C71.3458 14.24 71.9258 13.62 72.6658 13.16C73.4058 12.7 74.2658 12.48 75.2258 12.48C76.1858 12.48 77.0458 12.7 77.7858 13.16C78.5258 13.62 79.1258 14.24 79.5458 15.06C79.9658 15.88 80.1658 16.82 80.1658 17.88C80.1658 18.94 79.9658 19.88 79.5458 20.7C79.1258 21.52 78.5258 22.14 77.7858 22.6C77.0458 23.06 76.1858 23.28 75.2258 23.28ZM75.2258 21.64C76.1458 21.64 76.9058 21.3 77.4858 20.62C78.0658 19.94 78.3458 19.02 78.3458 17.88C78.3458 16.74 78.0658 15.82 77.4858 15.14C76.9058 14.46 76.1458 14.12 75.2258 14.12C74.3058 14.12 73.5658 14.46 72.9858 15.14C72.4058 15.82 72.1058 16.74 72.1058 17.88C72.1058 19.02 72.4058 19.94 72.9858 20.62C73.5658 21.3 74.3058 21.64 75.2258 21.64ZM89.3553 23L86.0553 12.76H87.8953L90.2553 20.52L92.4753 12.8H94.0953L96.3953 20.54L98.7153 12.76H100.535L97.2153 23H95.5753L93.2953 15.34L90.9953 23H89.3553ZM105.151 23.28C104.091 23.28 103.251 23 102.611 22.42C101.971 21.86 101.651 21.1 101.651 20.12C101.651 19.08 102.031 18.26 102.791 17.68C103.531 17.1 104.611 16.82 105.991 16.82H108.411V16.38C108.411 15.56 108.211 14.96 107.791 14.6C107.371 14.26 106.791 14.08 106.051 14.08C105.431 14.08 104.931 14.2 104.531 14.44C104.131 14.68 103.891 14.98 103.791 15.32H101.991C102.171 14.48 102.611 13.8 103.351 13.26C104.071 12.74 104.971 12.48 106.071 12.48C107.331 12.48 108.351 12.8 109.091 13.46C109.831 14.12 110.191 15.14 110.191 16.52V23H108.511V21.46C108.151 22.08 107.671 22.52 107.051 22.82C106.431 23.14 105.811 23.28 105.151 23.28ZM105.551 21.72C105.991 21.72 106.431 21.62 106.871 21.42C107.311 21.22 107.671 20.92 107.971 20.52C108.271 20.14 108.411 19.64 108.411 19.04V18.28H106.111C105.271 18.28 104.611 18.42 104.151 18.72C103.691 19.02 103.451 19.46 103.451 20.04C103.451 20.58 103.651 21 104.031 21.28C104.411 21.58 104.931 21.72 105.551 21.72ZM116.774 23.08C115.794 23.08 115.054 22.8 114.534 22.26C114.014 21.72 113.754 20.94 113.754 19.9V14.36H111.934V12.76H113.754V9.5C114.334 9.46 114.934 9.34 115.534 9.16V12.76H117.774V14.36H115.534V19.74C115.534 20.3 115.674 20.72 115.954 21.02C116.214 21.32 116.594 21.48 117.094 21.48H117.774V23.08H116.774ZM124.17 23.28C123.19 23.28 122.35 23.06 121.61 22.6C120.87 22.14 120.31 21.52 119.91 20.7C119.49 19.88 119.29 18.94 119.29 17.88C119.29 16.82 119.49 15.9 119.91 15.08C120.31 14.26 120.87 13.62 121.61 13.16C122.35 12.7 123.19 12.48 124.17 12.48C125.35 12.48 126.31 12.8 127.05 13.44C127.79 14.1 128.23 14.9 128.39 15.86H126.53C126.43 15.36 126.19 14.96 125.79 14.62C125.39 14.28 124.85 14.12 124.15 14.12C123.25 14.12 122.53 14.46 121.97 15.14C121.39 15.84 121.11 16.74 121.11 17.88C121.11 19.02 121.39 19.94 121.97 20.62C122.53 21.3 123.25 21.64 124.15 21.64C124.85 21.64 125.39 21.48 125.81 21.16C126.21 20.86 126.45 20.44 126.55 19.92H128.39C128.29 20.56 128.05 21.14 127.69 21.64C127.31 22.14 126.83 22.54 126.25 22.84C125.65 23.14 124.95 23.28 124.17 23.28ZM130.652 23V8.5H132.432V14.1C132.792 13.58 133.252 13.18 133.812 12.9C134.352 12.62 134.952 12.48 135.612 12.48C136.372 12.48 137.032 12.66 137.572 13.02C138.112 13.38 138.512 13.88 138.812 14.5C139.112 15.12 139.252 15.84 139.252 16.66V23H137.472V17C137.472 16.1 137.272 15.4 136.872 14.88C136.472 14.38 135.892 14.12 135.112 14.12C134.632 14.12 134.192 14.22 133.792 14.44C133.372 14.66 133.052 14.98 132.812 15.4C132.552 15.82 132.432 16.34 132.432 16.94V23H130.652ZM144.708 19.06V18.22C144.708 17.76 144.768 17.36 144.888 16.98C144.988 16.6 145.208 16.24 145.508 15.9C145.808 15.56 146.268 15.2 146.848 14.84C147.348 14.54 147.728 14.26 147.988 14.02C148.248 13.8 148.428 13.56 148.528 13.32C148.628 13.1 148.668 12.84 148.668 12.54C148.668 11.98 148.428 11.5 147.948 11.1C147.448 10.7 146.788 10.5 145.948 10.5C145.088 10.5 144.408 10.7 143.868 11.08C143.328 11.48 143.008 11.98 142.908 12.6H141.048C141.168 11.88 141.448 11.24 141.868 10.66C142.288 10.08 142.848 9.62 143.548 9.28C144.248 8.94 145.068 8.78 146.028 8.78C146.968 8.78 147.768 8.94 148.448 9.28C149.108 9.62 149.628 10.06 150.008 10.62C150.388 11.2 150.568 11.84 150.568 12.54C150.568 13.24 150.388 13.84 150.008 14.38C149.628 14.92 149.028 15.46 148.168 15.96C147.668 16.26 147.308 16.52 147.068 16.78C146.828 17.04 146.668 17.28 146.608 17.52C146.528 17.78 146.488 18.04 146.488 18.32V19.06H144.708ZM145.728 23.24C145.368 23.24 145.068 23.12 144.808 22.86C144.548 22.6 144.408 22.3 144.408 21.92C144.408 21.54 144.548 21.24 144.808 20.98C145.068 20.72 145.368 20.6 145.728 20.6C146.088 20.6 146.408 20.72 146.668 20.98C146.928 21.24 147.048 21.54 147.048 21.92C147.048 22.3 146.928 22.6 146.668 22.86C146.408 23.12 146.088 23.24 145.728 23.24ZM158.198 23V9.08H167.858V10.78H160.098V15H167.638V16.7H160.098V21.3H167.958V23H158.198ZM172.491 16.94V23H170.711V12.76H172.451V14.14C172.811 13.6 173.271 13.2 173.831 12.9C174.391 12.62 175.011 12.48 175.671 12.48C176.431 12.48 177.091 12.66 177.631 13.02C178.171 13.38 178.571 13.88 178.871 14.5C179.171 15.12 179.311 15.84 179.311 16.66V23H177.531V17C177.531 16.1 177.331 15.4 176.931 14.88C176.531 14.38 175.951 14.12 175.171 14.12C174.691 14.12 174.251 14.22 173.851 14.44C173.431 14.66 173.111 14.98 172.871 15.4C172.611 15.82 172.491 16.34 172.491 16.94ZM185.895 23.08C184.915 23.08 184.175 22.8 183.655 22.26C183.135 21.72 182.875 20.94 182.875 19.9V14.36H181.055V12.76H182.875V9.5C183.455 9.46 184.055 9.34 184.655 9.16V12.76H186.895V14.36H184.655V19.74C184.655 20.3 184.795 20.72 185.075 21.02C185.335 21.32 185.715 21.48 186.215 21.48H186.895V23.08H185.895ZM193.351 23.28C192.331 23.28 191.471 23.06 190.731 22.62C189.991 22.18 189.411 21.56 189.011 20.74C188.611 19.92 188.411 18.96 188.411 17.86C188.411 16.84 188.611 15.92 189.011 15.1C189.391 14.28 189.951 13.64 190.691 13.18C191.411 12.72 192.271 12.48 193.291 12.48C194.271 12.48 195.091 12.7 195.751 13.12C196.411 13.56 196.931 14.16 197.271 14.92C197.611 15.7 197.791 16.6 197.791 17.62V18.46H190.251C190.351 19.5 190.651 20.3 191.191 20.84C191.731 21.4 192.451 21.68 193.371 21.68C193.971 21.68 194.491 21.58 194.911 21.36C195.331 21.16 195.591 20.9 195.731 20.56H197.571C197.331 21.38 196.831 22.04 196.071 22.54C195.311 23.04 194.411 23.28 193.351 23.28ZM193.271 14.08C192.431 14.08 191.751 14.34 191.251 14.84C190.731 15.36 190.411 16.08 190.291 16.98H195.991C195.951 16.12 195.711 15.42 195.271 14.88C194.811 14.34 194.151 14.08 193.271 14.08ZM201.964 17.82V23H200.184V12.76H201.924V14.58C202.244 13.98 202.664 13.52 203.184 13.18C203.704 12.86 204.284 12.7 204.924 12.7H205.244V14.42H204.884C204.364 14.42 203.884 14.54 203.444 14.8C202.984 15.06 202.624 15.44 202.364 15.94C202.104 16.44 201.964 17.08 201.964 17.82ZM213.081 27.1L214.781 23L210.721 12.76H212.741L215.741 20.9L218.701 12.76H220.641L214.981 27.1H213.081ZM226.476 23.28C225.516 23.28 224.656 23.06 223.916 22.6C223.176 22.14 222.596 21.52 222.176 20.7C221.756 19.88 221.536 18.94 221.536 17.88C221.536 16.82 221.756 15.88 222.176 15.06C222.596 14.24 223.176 13.62 223.916 13.16C224.656 12.7 225.516 12.48 226.476 12.48C227.436 12.48 228.296 12.7 229.036 13.16C229.776 13.62 230.376 14.24 230.796 15.06C231.216 15.88 231.416 16.82 231.416 17.88C231.416 18.94 231.216 19.88 230.796 20.7C230.376 21.52 229.776 22.14 229.036 22.6C228.296 23.06 227.436 23.28 226.476 23.28ZM226.476 21.64C227.396 21.64 228.156 21.3 228.736 20.62C229.316 19.94 229.596 19.02 229.596 17.88C229.596 16.74 229.316 15.82 228.736 15.14C228.156 14.46 227.396 14.12 226.476 14.12C225.556 14.12 224.816 14.46 224.236 15.14C223.656 15.82 223.356 16.74 223.356 17.88C223.356 19.02 223.656 19.94 224.236 20.62C224.816 21.3 225.556 21.64 226.476 21.64ZM240.417 18.86V12.76H242.197V23H240.457V21.64C240.117 22.16 239.697 22.56 239.177 22.84C238.657 23.14 238.077 23.28 237.437 23.28C236.277 23.28 235.357 22.9 234.697 22.12C234.017 21.34 233.677 20.34 233.677 19.08V12.76H235.457V18.86C235.457 19.68 235.677 20.36 236.117 20.86C236.537 21.38 237.137 21.64 237.877 21.64C238.577 21.64 239.177 21.4 239.677 20.9C240.177 20.4 240.417 19.72 240.417 18.86ZM246.983 17.82V23H245.203V12.76H246.943V14.58C247.263 13.98 247.683 13.52 248.203 13.18C248.723 12.86 249.303 12.7 249.943 12.7H250.263V14.42H249.903C249.383 14.42 248.903 14.54 248.463 14.8C248.003 15.06 247.643 15.44 247.383 15.94C247.123 16.44 246.983 17.08 246.983 17.82ZM261.28 23.28C260.26 23.28 259.4 23.06 258.66 22.62C257.92 22.18 257.34 21.56 256.94 20.74C256.54 19.92 256.34 18.96 256.34 17.86C256.34 16.84 256.54 15.92 256.94 15.1C257.32 14.28 257.88 13.64 258.62 13.18C259.34 12.72 260.2 12.48 261.22 12.48C262.2 12.48 263.02 12.7 263.68 13.12C264.34 13.56 264.86 14.16 265.2 14.92C265.54 15.7 265.72 16.6 265.72 17.62V18.46H258.18C258.28 19.5 258.58 20.3 259.12 20.84C259.66 21.4 260.38 21.68 261.3 21.68C261.9 21.68 262.42 21.58 262.84 21.36C263.26 21.16 263.52 20.9 263.66 20.56H265.5C265.26 21.38 264.76 22.04 264 22.54C263.24 23.04 262.34 23.28 261.28 23.28ZM261.2 14.08C260.36 14.08 259.68 14.34 259.18 14.84C258.66 15.36 258.34 16.08 258.22 16.98H263.92C263.88 16.12 263.64 15.42 263.2 14.88C262.74 14.34 262.08 14.08 261.2 14.08ZM268.113 23V12.76H269.853V14.02C270.533 13 271.513 12.48 272.773 12.48C273.433 12.48 274.033 12.64 274.533 12.96C275.033 13.3 275.413 13.76 275.693 14.36C276.053 13.74 276.533 13.28 277.113 12.96C277.693 12.64 278.313 12.48 278.993 12.48C280.033 12.48 280.873 12.84 281.493 13.58C282.113 14.32 282.433 15.32 282.433 16.58V23H280.653V16.82C280.653 15.98 280.473 15.32 280.093 14.84C279.713 14.36 279.213 14.12 278.553 14.12C277.893 14.12 277.333 14.36 276.873 14.84C276.413 15.32 276.173 15.98 276.173 16.82V23H274.393V16.82C274.393 15.98 274.213 15.32 273.833 14.84C273.453 14.36 272.933 14.12 272.293 14.12C271.633 14.12 271.053 14.36 270.593 14.84C270.133 15.32 269.893 15.98 269.893 16.82V23H268.113ZM288.1 23.28C287.04 23.28 286.2 23 285.56 22.42C284.92 21.86 284.6 21.1 284.6 20.12C284.6 19.08 284.98 18.26 285.74 17.68C286.48 17.1 287.56 16.82 288.94 16.82H291.36V16.38C291.36 15.56 291.16 14.96 290.74 14.6C290.32 14.26 289.74 14.08 289 14.08C288.38 14.08 287.88 14.2 287.48 14.44C287.08 14.68 286.84 14.98 286.74 15.32H284.94C285.12 14.48 285.56 13.8 286.3 13.26C287.02 12.74 287.92 12.48 289.02 12.48C290.28 12.48 291.3 12.8 292.04 13.46C292.78 14.12 293.14 15.14 293.14 16.52V23H291.46V21.46C291.1 22.08 290.62 22.52 290 22.82C289.38 23.14 288.76 23.28 288.1 23.28ZM288.5 21.72C288.94 21.72 289.38 21.62 289.82 21.42C290.26 21.22 290.62 20.92 290.92 20.52C291.22 20.14 291.36 19.64 291.36 19.04V18.28H289.06C288.22 18.28 287.56 18.42 287.1 18.72C286.64 19.02 286.4 19.46 286.4 20.04C286.4 20.58 286.6 21 286.98 21.28C287.36 21.58 287.88 21.72 288.5 21.72ZM296.943 11.28C296.603 11.28 296.303 11.16 296.063 10.92C295.823 10.68 295.703 10.38 295.703 10.04C295.703 9.7 295.823 9.4 296.063 9.16C296.303 8.92 296.603 8.8 296.943 8.8C297.283 8.8 297.583 8.92 297.823 9.16C298.063 9.4 298.183 9.7 298.183 10.04C298.183 10.38 298.063 10.68 297.823 10.92C297.583 11.16 297.283 11.28 296.943 11.28ZM296.043 23V12.76H297.823V23H296.043ZM300.828 23V8.5H302.608V23H300.828ZM313.961 23.08C312.981 23.08 312.241 22.8 311.721 22.26C311.201 21.72 310.941 20.94 310.941 19.9V14.36H309.121V12.76H310.941V9.5C311.521 9.46 312.121 9.34 312.721 9.16V12.76H314.961V14.36H312.721V19.74C312.721 20.3 312.861 20.72 313.141 21.02C313.401 21.32 313.781 21.48 314.281 21.48H314.961V23.08H313.961ZM321.417 23.28C320.457 23.28 319.597 23.06 318.857 22.6C318.117 22.14 317.537 21.52 317.117 20.7C316.697 19.88 316.477 18.94 316.477 17.88C316.477 16.82 316.697 15.88 317.117 15.06C317.537 14.24 318.117 13.62 318.857 13.16C319.597 12.7 320.457 12.48 321.417 12.48C322.377 12.48 323.237 12.7 323.977 13.16C324.717 13.62 325.317 14.24 325.737 15.06C326.157 15.88 326.357 16.82 326.357 17.88C326.357 18.94 326.157 19.88 325.737 20.7C325.317 21.52 324.717 22.14 323.977 22.6C323.237 23.06 322.377 23.28 321.417 23.28ZM321.417 21.64C322.337 21.64 323.097 21.3 323.677 20.62C324.257 19.94 324.537 19.02 324.537 17.88C324.537 16.74 324.257 15.82 323.677 15.14C323.097 14.46 322.337 14.12 321.417 14.12C320.497 14.12 319.757 14.46 319.177 15.14C318.597 15.82 318.297 16.74 318.297 17.88C318.297 19.02 318.597 19.94 319.177 20.62C319.757 21.3 320.497 21.64 321.417 21.64ZM337.627 23.28C336.647 23.28 335.807 23.06 335.067 22.6C334.327 22.14 333.767 21.52 333.367 20.7C332.947 19.88 332.747 18.94 332.747 17.88C332.747 16.82 332.947 15.9 333.367 15.08C333.767 14.26 334.327 13.62 335.067 13.16C335.807 12.7 336.647 12.48 337.627 12.48C338.807 12.48 339.767 12.8 340.507 13.44C341.247 14.1 341.687 14.9 341.847 15.86H339.987C339.887 15.36 339.647 14.96 339.247 14.62C338.847 14.28 338.307 14.12 337.607 14.12C336.707 14.12 335.987 14.46 335.427 15.14C334.847 15.84 334.567 16.74 334.567 17.88C334.567 19.02 334.847 19.94 335.427 20.62C335.987 21.3 336.707 21.64 337.607 21.64C338.307 21.64 338.847 21.48 339.267 21.16C339.667 20.86 339.907 20.44 340.007 19.92H341.847C341.747 20.56 341.507 21.14 341.147 21.64C340.767 22.14 340.287 22.54 339.707 22.84C339.107 23.14 338.407 23.28 337.627 23.28ZM345.889 17.82V23H344.109V12.76H345.849V14.58C346.169 13.98 346.589 13.52 347.109 13.18C347.629 12.86 348.209 12.7 348.849 12.7H349.169V14.42H348.809C348.289 14.42 347.809 14.54 347.369 14.8C346.909 15.06 346.549 15.44 346.289 15.94C346.029 16.44 345.889 17.08 345.889 17.82ZM355.265 23.28C354.245 23.28 353.385 23.06 352.645 22.62C351.905 22.18 351.325 21.56 350.925 20.74C350.525 19.92 350.325 18.96 350.325 17.86C350.325 16.84 350.525 15.92 350.925 15.1C351.305 14.28 351.865 13.64 352.605 13.18C353.325 12.72 354.185 12.48 355.205 12.48C356.185 12.48 357.005 12.7 357.665 13.12C358.325 13.56 358.845 14.16 359.185 14.92C359.525 15.7 359.705 16.6 359.705 17.62V18.46H352.165C352.265 19.5 352.565 20.3 353.105 20.84C353.645 21.4 354.365 21.68 355.285 21.68C355.885 21.68 356.405 21.58 356.825 21.36C357.245 21.16 357.505 20.9 357.645 20.56H359.485C359.245 21.38 358.745 22.04 357.985 22.54C357.225 23.04 356.325 23.28 355.265 23.28ZM355.185 14.08C354.345 14.08 353.665 14.34 353.165 14.84C352.645 15.36 352.325 16.08 352.205 16.98H357.905C357.865 16.12 357.625 15.42 357.185 14.88C356.725 14.34 356.065 14.08 355.185 14.08ZM364.858 23.28C363.798 23.28 362.958 23 362.318 22.42C361.678 21.86 361.358 21.1 361.358 20.12C361.358 19.08 361.738 18.26 362.498 17.68C363.238 17.1 364.318 16.82 365.698 16.82H368.118V16.38C368.118 15.56 367.918 14.96 367.498 14.6C367.078 14.26 366.498 14.08 365.758 14.08C365.138 14.08 364.638 14.2 364.238 14.44C363.838 14.68 363.598 14.98 363.498 15.32H361.698C361.878 14.48 362.318 13.8 363.058 13.26C363.778 12.74 364.678 12.48 365.778 12.48C367.038 12.48 368.058 12.8 368.798 13.46C369.538 14.12 369.898 15.14 369.898 16.52V23H368.218V21.46C367.858 22.08 367.378 22.52 366.758 22.82C366.138 23.14 365.518 23.28 364.858 23.28ZM365.258 21.72C365.698 21.72 366.138 21.62 366.578 21.42C367.018 21.22 367.378 20.92 367.678 20.52C367.978 20.14 368.118 19.64 368.118 19.04V18.28H365.818C364.978 18.28 364.318 18.42 363.858 18.72C363.398 19.02 363.158 19.46 363.158 20.04C363.158 20.58 363.358 21 363.738 21.28C364.118 21.58 364.638 21.72 365.258 21.72ZM376.481 23.08C375.501 23.08 374.761 22.8 374.241 22.26C373.721 21.72 373.461 20.94 373.461 19.9V14.36H371.641V12.76H373.461V9.5C374.041 9.46 374.641 9.34 375.241 9.16V12.76H377.481V14.36H375.241V19.74C375.241 20.3 375.381 20.72 375.661 21.02C375.921 21.32 376.301 21.48 376.801 21.48H377.481V23.08H376.481ZM383.937 23.28C382.917 23.28 382.057 23.06 381.317 22.62C380.577 22.18 379.997 21.56 379.597 20.74C379.197 19.92 378.997 18.96 378.997 17.86C378.997 16.84 379.197 15.92 379.597 15.1C379.977 14.28 380.537 13.64 381.277 13.18C381.997 12.72 382.857 12.48 383.877 12.48C384.857 12.48 385.677 12.7 386.337 13.12C386.997 13.56 387.517 14.16 387.857 14.92C388.197 15.7 388.377 16.6 388.377 17.62V18.46H380.837C380.937 19.5 381.237 20.3 381.777 20.84C382.317 21.4 383.037 21.68 383.957 21.68C384.557 21.68 385.077 21.58 385.497 21.36C385.917 21.16 386.177 20.9 386.317 20.56H388.157C387.917 21.38 387.417 22.04 386.657 22.54C385.897 23.04 384.997 23.28 383.937 23.28ZM383.857 14.08C383.017 14.08 382.337 14.34 381.837 14.84C381.317 15.36 380.997 16.08 380.877 16.98H386.577C386.537 16.12 386.297 15.42 385.857 14.88C385.397 14.34 384.737 14.08 383.857 14.08ZM399.738 23.28C398.778 23.28 397.918 23.06 397.178 22.6C396.438 22.14 395.858 21.52 395.438 20.7C395.018 19.88 394.798 18.94 394.798 17.88C394.798 16.82 395.018 15.88 395.438 15.06C395.858 14.24 396.438 13.62 397.178 13.16C397.918 12.7 398.778 12.48 399.738 12.48C400.698 12.48 401.558 12.7 402.298 13.16C403.038 13.62 403.638 14.24 404.058 15.06C404.478 15.88 404.678 16.82 404.678 17.88C404.678 18.94 404.478 19.88 404.058 20.7C403.638 21.52 403.038 22.14 402.298 22.6C401.558 23.06 400.698 23.28 399.738 23.28ZM399.738 21.64C400.658 21.64 401.418 21.3 401.998 20.62C402.578 19.94 402.858 19.02 402.858 17.88C402.858 16.74 402.578 15.82 401.998 15.14C401.418 14.46 400.658 14.12 399.738 14.12C398.818 14.12 398.078 14.46 397.498 15.14C396.918 15.82 396.618 16.74 396.618 17.88C396.618 19.02 396.918 19.94 397.498 20.62C398.078 21.3 398.818 21.64 399.738 21.64ZM408.819 17.82V23H407.039V12.76H408.779V14.58C409.099 13.98 409.519 13.52 410.039 13.18C410.559 12.86 411.139 12.7 411.779 12.7H412.099V14.42H411.739C411.219 14.42 410.739 14.54 410.299 14.8C409.839 15.06 409.479 15.44 409.219 15.94C408.959 16.44 408.819 17.08 408.819 17.82ZM420.596 17.82V23H418.816V12.76H420.556V14.58C420.876 13.98 421.296 13.52 421.816 13.18C422.336 12.86 422.916 12.7 423.556 12.7H423.876V14.42H423.516C422.996 14.42 422.516 14.54 422.076 14.8C421.616 15.06 421.256 15.44 420.996 15.94C420.736 16.44 420.596 17.08 420.596 17.82ZM429.972 23.28C428.952 23.28 428.092 23.06 427.352 22.62C426.612 22.18 426.032 21.56 425.632 20.74C425.232 19.92 425.032 18.96 425.032 17.86C425.032 16.84 425.232 15.92 425.632 15.1C426.012 14.28 426.572 13.64 427.312 13.18C428.032 12.72 428.892 12.48 429.912 12.48C430.892 12.48 431.712 12.7 432.372 13.12C433.032 13.56 433.552 14.16 433.892 14.92C434.232 15.7 434.412 16.6 434.412 17.62V18.46H426.872C426.972 19.5 427.272 20.3 427.812 20.84C428.352 21.4 429.072 21.68 429.992 21.68C430.592 21.68 431.112 21.58 431.532 21.36C431.952 21.16 432.212 20.9 432.352 20.56H434.192C433.952 21.38 433.452 22.04 432.692 22.54C431.932 23.04 431.032 23.28 429.972 23.28ZM429.892 14.08C429.052 14.08 428.372 14.34 427.872 14.84C427.352 15.36 427.032 16.08 426.912 16.98H432.612C432.572 16.12 432.332 15.42 431.892 14.88C431.432 14.34 430.772 14.08 429.892 14.08ZM440.425 23.3C439.225 23.3 438.245 23.02 437.465 22.44C436.685 21.88 436.225 21.16 436.065 20.3H437.865C437.965 20.68 438.245 21.02 438.705 21.3C439.145 21.58 439.705 21.72 440.385 21.72C441.045 21.72 441.585 21.58 441.985 21.3C442.385 21.04 442.585 20.66 442.585 20.18C442.585 19.8 442.445 19.48 442.165 19.22C441.885 18.98 441.405 18.82 440.725 18.72L439.165 18.52C437.225 18.28 436.265 17.34 436.265 15.68C436.265 15.06 436.445 14.52 436.785 14.02C437.125 13.54 437.585 13.16 438.185 12.88C438.765 12.62 439.445 12.48 440.205 12.48C441.305 12.48 442.205 12.74 442.905 13.28C443.605 13.82 444.045 14.5 444.225 15.32H442.445C442.305 14.9 442.065 14.6 441.685 14.38C441.305 14.16 440.825 14.06 440.245 14.06C439.585 14.06 439.065 14.2 438.685 14.48C438.285 14.78 438.085 15.16 438.085 15.62C438.085 16 438.225 16.3 438.505 16.5C438.785 16.7 439.245 16.84 439.885 16.92L441.445 17.12C442.425 17.24 443.165 17.58 443.665 18.12C444.165 18.66 444.405 19.34 444.405 20.12C444.405 20.76 444.225 21.32 443.885 21.8C443.545 22.28 443.065 22.64 442.465 22.9C441.845 23.18 441.165 23.3 440.425 23.3ZM450.348 23.08C449.368 23.08 448.628 22.8 448.108 22.26C447.588 21.72 447.328 20.94 447.328 19.9V14.36H445.508V12.76H447.328V9.5C447.908 9.46 448.508 9.34 449.108 9.16V12.76H451.348V14.36H449.108V19.74C449.108 20.3 449.248 20.72 449.528 21.02C449.788 21.32 450.168 21.48 450.668 21.48H451.348V23.08H450.348ZM456.264 23.28C455.204 23.28 454.364 23 453.724 22.42C453.084 21.86 452.764 21.1 452.764 20.12C452.764 19.08 453.144 18.26 453.904 17.68C454.644 17.1 455.724 16.82 457.104 16.82H459.524V16.38C459.524 15.56 459.324 14.96 458.904 14.6C458.484 14.26 457.904 14.08 457.164 14.08C456.544 14.08 456.044 14.2 455.644 14.44C455.244 14.68 455.004 14.98 454.904 15.32H453.104C453.284 14.48 453.724 13.8 454.464 13.26C455.184 12.74 456.084 12.48 457.184 12.48C458.444 12.48 459.464 12.8 460.204 13.46C460.944 14.12 461.304 15.14 461.304 16.52V23H459.624V21.46C459.264 22.08 458.784 22.52 458.164 22.82C457.544 23.14 456.924 23.28 456.264 23.28ZM456.664 21.72C457.104 21.72 457.544 21.62 457.984 21.42C458.424 21.22 458.784 20.92 459.084 20.52C459.384 20.14 459.524 19.64 459.524 19.04V18.28H457.224C456.384 18.28 455.724 18.42 455.264 18.72C454.804 19.02 454.564 19.46 454.564 20.04C454.564 20.58 454.764 21 455.144 21.28C455.524 21.58 456.044 21.72 456.664 21.72ZM465.987 17.82V23H464.207V12.76H465.947V14.58C466.267 13.98 466.687 13.52 467.207 13.18C467.727 12.86 468.307 12.7 468.947 12.7H469.267V14.42H468.907C468.387 14.42 467.907 14.54 467.467 14.8C467.007 15.06 466.647 15.44 466.387 15.94C466.127 16.44 465.987 17.08 465.987 17.82ZM475.231 23.08C474.251 23.08 473.511 22.8 472.991 22.26C472.471 21.72 472.211 20.94 472.211 19.9V14.36H470.391V12.76H472.211V9.5C472.791 9.46 473.391 9.34 473.991 9.16V12.76H476.231V14.36H473.991V19.74C473.991 20.3 474.131 20.72 474.411 21.02C474.671 21.32 475.051 21.48 475.551 21.48H476.231V23.08H475.231ZM484.175 27.1L485.875 23L481.815 12.76H483.835L486.835 20.9L489.795 12.76H491.735L486.075 27.1H484.175ZM497.57 23.28C496.61 23.28 495.75 23.06 495.01 22.6C494.27 22.14 493.69 21.52 493.27 20.7C492.85 19.88 492.63 18.94 492.63 17.88C492.63 16.82 492.85 15.88 493.27 15.06C493.69 14.24 494.27 13.62 495.01 13.16C495.75 12.7 496.61 12.48 497.57 12.48C498.53 12.48 499.39 12.7 500.13 13.16C500.87 13.62 501.47 14.24 501.89 15.06C502.31 15.88 502.51 16.82 502.51 17.88C502.51 18.94 502.31 19.88 501.89 20.7C501.47 21.52 500.87 22.14 500.13 22.6C499.39 23.06 498.53 23.28 497.57 23.28ZM497.57 21.64C498.49 21.64 499.25 21.3 499.83 20.62C500.41 19.94 500.69 19.02 500.69 17.88C500.69 16.74 500.41 15.82 499.83 15.14C499.25 14.46 498.49 14.12 497.57 14.12C496.65 14.12 495.91 14.46 495.33 15.14C494.75 15.82 494.45 16.74 494.45 17.88C494.45 19.02 494.75 19.94 495.33 20.62C495.91 21.3 496.65 21.64 497.57 21.64ZM511.511 18.86V12.76H513.291V23H511.551V21.64C511.211 22.16 510.791 22.56 510.271 22.84C509.751 23.14 509.171 23.28 508.531 23.28C507.371 23.28 506.451 22.9 505.791 22.12C505.111 21.34 504.771 20.34 504.771 19.08V12.76H506.551V18.86C506.551 19.68 506.771 20.36 507.211 20.86C507.631 21.38 508.231 21.64 508.971 21.64C509.671 21.64 510.271 21.4 510.771 20.9C511.271 20.4 511.511 19.72 511.511 18.86ZM518.077 17.82V23H516.297V12.76H518.037V14.58C518.357 13.98 518.777 13.52 519.297 13.18C519.817 12.86 520.397 12.7 521.037 12.7H521.357V14.42H520.997C520.477 14.42 519.997 14.54 519.557 14.8C519.097 15.06 518.737 15.44 518.477 15.94C518.217 16.44 518.077 17.08 518.077 17.82ZM528.074 23V12.76H529.814V14.02C530.494 13 531.474 12.48 532.734 12.48C533.394 12.48 533.994 12.64 534.494 12.96C534.994 13.3 535.374 13.76 535.654 14.36C536.014 13.74 536.494 13.28 537.074 12.96C537.654 12.64 538.274 12.48 538.954 12.48C539.994 12.48 540.834 12.84 541.454 13.58C542.074 14.32 542.394 15.32 542.394 16.58V23H540.614V16.82C540.614 15.98 540.434 15.32 540.054 14.84C539.674 14.36 539.174 14.12 538.514 14.12C537.854 14.12 537.294 14.36 536.834 14.84C536.374 15.32 536.134 15.98 536.134 16.82V23H534.354V16.82C534.354 15.98 534.174 15.32 533.794 14.84C533.414 14.36 532.894 14.12 532.254 14.12C531.594 14.12 531.014 14.36 530.554 14.84C530.094 15.32 529.854 15.98 529.854 16.82V23H528.074ZM549.601 23.28C548.581 23.28 547.721 23.06 546.981 22.62C546.241 22.18 545.661 21.56 545.261 20.74C544.861 19.92 544.661 18.96 544.661 17.86C544.661 16.84 544.861 15.92 545.261 15.1C545.641 14.28 546.201 13.64 546.941 13.18C547.661 12.72 548.521 12.48 549.541 12.48C550.521 12.48 551.341 12.7 552.001 13.12C552.661 13.56 553.181 14.16 553.521 14.92C553.861 15.7 554.041 16.6 554.041 17.62V18.46H546.501C546.601 19.5 546.901 20.3 547.441 20.84C547.981 21.4 548.701 21.68 549.621 21.68C550.221 21.68 550.741 21.58 551.161 21.36C551.581 21.16 551.841 20.9 551.981 20.56H553.821C553.581 21.38 553.081 22.04 552.321 22.54C551.561 23.04 550.661 23.28 549.601 23.28ZM549.521 14.08C548.681 14.08 548.001 14.34 547.501 14.84C546.981 15.36 546.661 16.08 546.541 16.98H552.241C552.201 16.12 551.961 15.42 551.521 14.88C551.061 14.34 550.401 14.08 549.521 14.08ZM556.434 23V12.76H558.174V14.02C558.854 13 559.834 12.48 561.094 12.48C561.754 12.48 562.354 12.64 562.854 12.96C563.354 13.3 563.734 13.76 564.014 14.36C564.374 13.74 564.854 13.28 565.434 12.96C566.014 12.64 566.634 12.48 567.314 12.48C568.354 12.48 569.194 12.84 569.814 13.58C570.434 14.32 570.754 15.32 570.754 16.58V23H568.974V16.82C568.974 15.98 568.794 15.32 568.414 14.84C568.034 14.36 567.534 14.12 566.874 14.12C566.214 14.12 565.654 14.36 565.194 14.84C564.734 15.32 564.494 15.98 564.494 16.82V23H562.714V16.82C562.714 15.98 562.534 15.32 562.154 14.84C561.774 14.36 561.254 14.12 560.614 14.12C559.954 14.12 559.374 14.36 558.914 14.84C558.454 15.32 558.214 15.98 558.214 16.82V23H556.434ZM573.66 23V8.5H575.44V14.36C575.8 13.78 576.26 13.32 576.84 12.98C577.42 12.64 578.06 12.48 578.8 12.48C579.7 12.48 580.5 12.7 581.2 13.16C581.88 13.62 582.42 14.26 582.8 15.06C583.18 15.88 583.38 16.82 583.38 17.88C583.38 18.94 583.18 19.88 582.8 20.68C582.42 21.5 581.88 22.12 581.2 22.58C580.5 23.06 579.7 23.28 578.8 23.28C578.04 23.28 577.38 23.1 576.8 22.76C576.22 22.42 575.76 21.94 575.4 21.34V23H573.66ZM578.48 21.64C579.38 21.64 580.12 21.3 580.7 20.6C581.28 19.92 581.56 19.02 581.56 17.88C581.56 16.74 581.28 15.84 580.7 15.14C580.12 14.46 579.38 14.12 578.48 14.12C577.56 14.12 576.82 14.46 576.24 15.16C575.66 15.86 575.36 16.76 575.36 17.88C575.36 19 575.66 19.9 576.24 20.6C576.82 21.3 577.56 21.64 578.48 21.64ZM590.03 23.28C589.01 23.28 588.15 23.06 587.41 22.62C586.67 22.18 586.09 21.56 585.69 20.74C585.29 19.92 585.09 18.96 585.09 17.86C585.09 16.84 585.29 15.92 585.69 15.1C586.07 14.28 586.63 13.64 587.37 13.18C588.09 12.72 588.95 12.48 589.97 12.48C590.95 12.48 591.77 12.7 592.43 13.12C593.09 13.56 593.61 14.16 593.95 14.92C594.29 15.7 594.47 16.6 594.47 17.62V18.46H586.93C587.03 19.5 587.33 20.3 587.87 20.84C588.41 21.4 589.13 21.68 590.05 21.68C590.65 21.68 591.17 21.58 591.59 21.36C592.01 21.16 592.27 20.9 592.41 20.56H594.25C594.01 21.38 593.51 22.04 592.75 22.54C591.99 23.04 591.09 23.28 590.03 23.28ZM589.95 14.08C589.11 14.08 588.43 14.34 587.93 14.84C587.41 15.36 587.09 16.08 586.97 16.98H592.67C592.63 16.12 592.39 15.42 591.95 14.88C591.49 14.34 590.83 14.08 589.95 14.08ZM598.643 17.82V23H596.863V12.76H598.603V14.58C598.923 13.98 599.343 13.52 599.863 13.18C600.383 12.86 600.963 12.7 601.603 12.7H601.923V14.42H601.563C601.043 14.42 600.563 14.54 600.123 14.8C599.663 15.06 599.303 15.44 599.043 15.94C598.783 16.44 598.643 17.08 598.643 17.82ZM607.397 23.3C606.197 23.3 605.217 23.02 604.437 22.44C603.657 21.88 603.197 21.16 603.037 20.3H604.837C604.937 20.68 605.217 21.02 605.677 21.3C606.117 21.58 606.677 21.72 607.357 21.72C608.017 21.72 608.557 21.58 608.957 21.3C609.357 21.04 609.557 20.66 609.557 20.18C609.557 19.8 609.417 19.48 609.137 19.22C608.857 18.98 608.377 18.82 607.697 18.72L606.137 18.52C604.197 18.28 603.237 17.34 603.237 15.68C603.237 15.06 603.417 14.52 603.757 14.02C604.097 13.54 604.557 13.16 605.157 12.88C605.737 12.62 606.417 12.48 607.177 12.48C608.277 12.48 609.177 12.74 609.877 13.28C610.577 13.82 611.017 14.5 611.197 15.32H609.417C609.277 14.9 609.037 14.6 608.657 14.38C608.277 14.16 607.797 14.06 607.217 14.06C606.557 14.06 606.037 14.2 605.657 14.48C605.257 14.78 605.057 15.16 605.057 15.62C605.057 16 605.197 16.3 605.477 16.5C605.757 16.7 606.217 16.84 606.857 16.92L608.417 17.12C609.397 17.24 610.137 17.58 610.637 18.12C611.137 18.66 611.377 19.34 611.377 20.12C611.377 20.76 611.197 21.32 610.857 21.8C610.517 22.28 610.037 22.64 609.437 22.9C608.817 23.18 608.137 23.3 607.397 23.3ZM613.641 23V8.5H615.421V14.1C615.781 13.58 616.241 13.18 616.801 12.9C617.341 12.62 617.941 12.48 618.601 12.48C619.361 12.48 620.021 12.66 620.561 13.02C621.101 13.38 621.501 13.88 621.801 14.5C622.101 15.12 622.241 15.84 622.241 16.66V23H620.461V17C620.461 16.1 620.261 15.4 619.861 14.88C619.461 14.38 618.881 14.12 618.101 14.12C617.621 14.12 617.181 14.22 616.781 14.44C616.361 14.66 616.041 14.98 615.801 15.4C615.541 15.82 615.421 16.34 615.421 16.94V23H613.641ZM626.045 11.28C625.705 11.28 625.405 11.16 625.165 10.92C624.925 10.68 624.805 10.38 624.805 10.04C624.805 9.7 624.925 9.4 625.165 9.16C625.405 8.92 625.705 8.8 626.045 8.8C626.385 8.8 626.685 8.92 626.925 9.16C627.165 9.4 627.285 9.7 627.285 10.04C627.285 10.38 627.165 10.68 626.925 10.92C626.685 11.16 626.385 11.28 626.045 11.28ZM625.145 23V12.76H626.925V23H625.145ZM629.93 27.1V12.76H631.67V14.42C632.03 13.82 632.49 13.34 633.07 13C633.65 12.66 634.31 12.48 635.07 12.48C635.97 12.48 636.77 12.7 637.47 13.16C638.15 13.62 638.69 14.26 639.07 15.06C639.45 15.88 639.65 16.82 639.65 17.88C639.65 18.94 639.45 19.88 639.07 20.68C638.69 21.5 638.15 22.12 637.47 22.58C636.77 23.06 635.97 23.28 635.07 23.28C634.33 23.28 633.69 23.12 633.11 22.78C632.53 22.44 632.07 21.98 631.71 21.4V27.1H629.93ZM634.75 21.64C635.65 21.64 636.39 21.3 636.97 20.6C637.55 19.92 637.83 19.02 637.83 17.88C637.83 16.74 637.55 15.84 636.97 15.14C636.39 14.46 635.65 14.12 634.75 14.12C633.83 14.12 633.09 14.46 632.51 15.16C631.93 15.86 631.63 16.76 631.63 17.88C631.63 19 631.93 19.9 632.51 20.6C633.09 21.3 633.83 21.64 634.75 21.64ZM642.966 23.24C642.606 23.24 642.306 23.12 642.046 22.86C641.786 22.6 641.646 22.3 641.646 21.92C641.646 21.54 641.786 21.24 642.046 20.98C642.306 20.72 642.606 20.6 642.966 20.6C643.326 20.6 643.646 20.72 643.906 20.98C644.166 21.24 644.286 21.54 644.286 21.92C644.286 22.3 644.166 22.6 643.906 22.86C643.646 23.12 643.326 23.24 642.966 23.24Z" fill="white"/>
<rect x="31.5" y="46.5" width="367" height="55" rx="3.5" fill="black" fill-opacity="0.5"/>
<rect x="31.5" y="46.5" width="367" height="55" rx="3.5" stroke="#808080"/>
<path d="M48.7562 80V68.864H56.7882V70.768H50.9322V73.376H56.5962V75.28H50.9322V78.096H56.8682V80H48.7562ZM58.8294 80V71.728H60.7814V72.624C61.0534 72.256 61.3734 71.984 61.7574 71.776C62.1254 71.584 62.5574 71.488 63.0214 71.488C63.5174 71.488 63.9494 71.6 64.3334 71.84C64.7174 72.08 65.0214 72.416 65.2614 72.848C65.5654 72.416 65.9334 72.08 66.3974 71.84C66.8454 71.6 67.3254 71.488 67.8374 71.488C68.6854 71.488 69.3574 71.776 69.8534 72.368C70.3494 72.96 70.6054 73.776 70.6054 74.8V80H68.5734V75.056C68.5734 74.512 68.4614 74.08 68.2214 73.776C67.9814 73.472 67.6454 73.312 67.2134 73.312C66.7814 73.312 66.4294 73.472 66.1574 73.776C65.8694 74.08 65.7254 74.512 65.7254 75.056V80H63.6934V75.056C63.6934 74.512 63.5814 74.08 63.3414 73.776C63.1014 73.472 62.7654 73.312 62.3334 73.312C61.9014 73.312 61.5494 73.472 61.2774 73.776C61.0054 74.08 60.8614 74.512 60.8614 75.056V80H58.8294ZM74.9616 80.24C74.0976 80.24 73.4096 80 72.8976 79.52C72.3696 79.056 72.1136 78.416 72.1136 77.632C72.1136 76.784 72.4176 76.112 73.0416 75.632C73.6656 75.152 74.5296 74.912 75.6336 74.912H77.3136V74.608C77.3136 74.096 77.1696 73.728 76.8976 73.488C76.6256 73.264 76.2416 73.152 75.7776 73.152C75.3776 73.152 75.0416 73.232 74.7856 73.392C74.5296 73.552 74.3696 73.744 74.3056 73.952H72.3536C72.4976 73.248 72.8656 72.656 73.4736 72.192C74.0816 71.728 74.8656 71.488 75.8416 71.488C76.9136 71.488 77.7616 71.76 78.3856 72.288C79.0096 72.832 79.3136 73.68 79.3136 74.816V80H77.4416V78.976C77.1696 79.408 76.8176 79.728 76.3696 79.936C75.9056 80.144 75.4416 80.24 74.9616 80.24ZM75.4736 78.608C75.7616 78.608 76.0496 78.544 76.3376 78.416C76.6096 78.288 76.8496 78.096 77.0416 77.84C77.2176 77.6 77.3136 77.28 77.3136 76.896V76.368H75.7296C75.2016 76.368 74.8016 76.464 74.5296 76.656C74.2416 76.864 74.0976 77.136 74.0976 77.504C74.0976 77.872 74.2256 78.144 74.4816 78.32C74.7376 78.512 75.0736 78.608 75.4736 78.608ZM82.3847 70.768C82.0487 70.768 81.7447 70.64 81.5047 70.4C81.2487 70.16 81.1207 69.856 81.1207 69.504C81.1207 69.152 81.2487 68.848 81.5047 68.608C81.7447 68.368 82.0487 68.24 82.3847 68.24C82.7207 68.24 83.0247 68.368 83.2807 68.608C83.5207 68.848 83.6487 69.152 83.6487 69.504C83.6487 69.856 83.5207 70.16 83.2807 70.4C83.0247 70.64 82.7207 70.768 82.3847 70.768ZM81.3607 80V71.728H83.3927V80H81.3607ZM85.5169 80V68.4H87.5489V80H85.5169ZM95.5709 80.24C94.7069 80.24 94.0189 80 93.5069 79.52C92.9789 79.056 92.7229 78.416 92.7229 77.632C92.7229 76.784 93.0269 76.112 93.6509 75.632C94.2749 75.152 95.1389 74.912 96.2429 74.912H97.9229V74.608C97.9229 74.096 97.7789 73.728 97.5069 73.488C97.2349 73.264 96.8509 73.152 96.3869 73.152C95.9869 73.152 95.6509 73.232 95.3949 73.392C95.1389 73.552 94.9789 73.744 94.9149 73.952H92.9629C93.1069 73.248 93.4749 72.656 94.0829 72.192C94.6909 71.728 95.4749 71.488 96.4509 71.488C97.5229 71.488 98.3709 71.76 98.9949 72.288C99.6189 72.832 99.9229 73.68 99.9229 74.816V80H98.0509V78.976C97.7789 79.408 97.4269 79.728 96.9789 79.936C96.5149 80.144 96.0509 80.24 95.5709 80.24ZM96.0829 78.608C96.3709 78.608 96.6589 78.544 96.9469 78.416C97.2189 78.288 97.4589 78.096 97.6509 77.84C97.8269 77.6 97.9229 77.28 97.9229 76.896V76.368H96.3389C95.8109 76.368 95.4109 76.464 95.1389 76.656C94.8509 76.864 94.7069 77.136 94.7069 77.504C94.7069 77.872 94.8349 78.144 95.0909 78.32C95.3469 78.512 95.6829 78.608 96.0829 78.608ZM105.154 80.24C104.434 80.24 103.81 80.048 103.266 79.68C102.706 79.312 102.274 78.784 101.97 78.128C101.65 77.472 101.49 76.72 101.49 75.856C101.49 74.992 101.65 74.224 101.97 73.568C102.274 72.912 102.706 72.4 103.266 72.032C103.81 71.664 104.434 71.488 105.154 71.488C105.682 71.488 106.162 71.6 106.578 71.808C106.994 72.032 107.346 72.336 107.634 72.736V68.4H109.65V80H107.698V78.912C107.426 79.328 107.074 79.648 106.642 79.888C106.21 80.128 105.714 80.24 105.154 80.24ZM105.634 78.432C106.258 78.432 106.754 78.192 107.154 77.728C107.538 77.264 107.73 76.64 107.73 75.856C107.73 75.072 107.538 74.448 107.154 73.984C106.754 73.52 106.258 73.296 105.634 73.296C105.026 73.296 104.53 73.52 104.146 73.984C103.746 74.448 103.554 75.072 103.554 75.856C103.554 76.64 103.746 77.264 104.146 77.728C104.53 78.192 105.026 78.432 105.634 78.432ZM114.951 80.24C114.231 80.24 113.607 80.048 113.063 79.68C112.503 79.312 112.071 78.784 111.767 78.128C111.447 77.472 111.287 76.72 111.287 75.856C111.287 74.992 111.447 74.224 111.767 73.568C112.071 72.912 112.503 72.4 113.063 72.032C113.607 71.664 114.231 71.488 114.951 71.488C115.479 71.488 115.959 71.6 116.375 71.808C116.791 72.032 117.143 72.336 117.431 72.736V68.4H119.447V80H117.495V78.912C117.223 79.328 116.871 79.648 116.439 79.888C116.007 80.128 115.511 80.24 114.951 80.24ZM115.431 78.432C116.055 78.432 116.551 78.192 116.951 77.728C117.335 77.264 117.527 76.64 117.527 75.856C117.527 75.072 117.335 74.448 116.951 73.984C116.551 73.52 116.055 73.296 115.431 73.296C114.823 73.296 114.327 73.52 113.943 73.984C113.543 74.448 113.351 75.072 113.351 75.856C113.351 76.64 113.543 77.264 113.943 77.728C114.327 78.192 114.823 78.432 115.431 78.432ZM123.596 75.92V80H121.564V71.728H123.516V73.104C123.772 72.64 124.108 72.288 124.508 72.032C124.908 71.792 125.356 71.664 125.852 71.664H126.172V73.584H125.788C125.164 73.584 124.652 73.792 124.236 74.192C123.804 74.592 123.596 75.168 123.596 75.92ZM131.071 80.24C130.223 80.24 129.487 80.064 128.879 79.696C128.255 79.344 127.791 78.832 127.455 78.176C127.119 77.52 126.959 76.736 126.959 75.824C126.959 75.008 127.119 74.256 127.455 73.6C127.775 72.944 128.239 72.432 128.847 72.048C129.455 71.68 130.175 71.488 131.023 71.488C132.239 71.488 133.167 71.872 133.823 72.656C134.479 73.44 134.799 74.48 134.799 75.776V76.512H129.007C129.183 77.888 129.871 78.576 131.087 78.576C131.487 78.576 131.807 78.512 132.079 78.384C132.335 78.256 132.511 78.096 132.607 77.888H134.655C134.447 78.608 134.031 79.184 133.407 79.6C132.767 80.032 131.983 80.24 131.071 80.24ZM131.007 73.152C130.447 73.152 129.999 73.312 129.663 73.632C129.327 73.968 129.103 74.432 129.007 75.04H132.815C132.799 74.48 132.639 74.016 132.335 73.664C132.031 73.328 131.583 73.152 131.007 73.152ZM139.574 80.24C138.55 80.24 137.718 80 137.078 79.52C136.422 79.056 136.054 78.432 135.942 77.664H137.894C137.942 77.904 138.118 78.128 138.422 78.304C138.726 78.48 139.094 78.576 139.526 78.576C139.958 78.576 140.294 78.496 140.55 78.32C140.79 78.16 140.918 77.936 140.918 77.664C140.918 77.424 140.822 77.232 140.63 77.072C140.438 76.912 140.102 76.8 139.622 76.736L138.422 76.576C137.638 76.464 137.046 76.208 136.662 75.792C136.278 75.392 136.086 74.848 136.086 74.192C136.086 73.648 136.23 73.168 136.518 72.768C136.806 72.368 137.206 72.048 137.702 71.824C138.198 71.6 138.774 71.488 139.398 71.488C140.054 71.488 140.614 71.6 141.094 71.824C141.574 72.048 141.958 72.352 142.246 72.72C142.534 73.104 142.71 73.52 142.79 73.968H140.854C140.774 73.712 140.614 73.504 140.374 73.36C140.118 73.216 139.798 73.152 139.43 73.152C139.03 73.152 138.694 73.232 138.454 73.408C138.214 73.584 138.086 73.808 138.086 74.08C138.086 74.32 138.182 74.496 138.374 74.608C138.566 74.736 138.886 74.832 139.334 74.896L140.518 75.056C141.318 75.168 141.926 75.456 142.326 75.92C142.726 76.384 142.934 76.928 142.934 77.584C142.934 78.128 142.79 78.592 142.502 78.992C142.198 79.392 141.798 79.696 141.302 79.904C140.79 80.128 140.214 80.24 139.574 80.24ZM147.621 80.24C146.597 80.24 145.765 80 145.125 79.52C144.469 79.056 144.101 78.432 143.989 77.664H145.941C145.989 77.904 146.165 78.128 146.469 78.304C146.773 78.48 147.141 78.576 147.573 78.576C148.005 78.576 148.341 78.496 148.597 78.32C148.837 78.16 148.965 77.936 148.965 77.664C148.965 77.424 148.869 77.232 148.677 77.072C148.485 76.912 148.149 76.8 147.669 76.736L146.469 76.576C145.685 76.464 145.093 76.208 144.709 75.792C144.325 75.392 144.133 74.848 144.133 74.192C144.133 73.648 144.277 73.168 144.565 72.768C144.853 72.368 145.253 72.048 145.749 71.824C146.245 71.6 146.821 71.488 147.445 71.488C148.101 71.488 148.661 71.6 149.141 71.824C149.621 72.048 150.005 72.352 150.293 72.72C150.581 73.104 150.757 73.52 150.837 73.968H148.901C148.821 73.712 148.661 73.504 148.421 73.36C148.165 73.216 147.845 73.152 147.477 73.152C147.077 73.152 146.741 73.232 146.501 73.408C146.261 73.584 146.133 73.808 146.133 74.08C146.133 74.32 146.229 74.496 146.421 74.608C146.613 74.736 146.933 74.832 147.381 74.896L148.565 75.056C149.365 75.168 149.973 75.456 150.373 75.92C150.773 76.384 150.981 76.928 150.981 77.584C150.981 78.128 150.837 78.592 150.549 78.992C150.245 79.392 149.845 79.696 149.349 79.904C148.837 80.128 148.261 80.24 147.621 80.24Z" fill="#BDBCBB"/>
<rect x="407" y="46" width="208" height="56" rx="4" fill="#E50814"/>
<path d="M440.707 82.884C439.051 82.884 437.587 82.5 436.339 81.756C435.091 81.012 434.131 79.956 433.435 78.636C432.739 77.316 432.379 75.828 432.379 74.148C432.379 72.444 432.739 70.956 433.435 69.636C434.131 68.316 435.115 67.284 436.363 66.54C437.611 65.796 439.051 65.412 440.683 65.412C442.531 65.412 444.115 65.868 445.411 66.756C446.707 67.644 447.595 68.892 448.051 70.5H444.691C444.427 69.852 443.947 69.348 443.251 68.94C442.555 68.532 441.715 68.34 440.683 68.34C439.699 68.34 438.811 68.58 438.067 69.036C437.323 69.516 436.723 70.188 436.315 71.052C435.907 71.94 435.691 72.972 435.691 74.148C435.691 75.324 435.907 76.356 436.315 77.22C436.723 78.084 437.323 78.756 438.091 79.236C438.859 79.716 439.771 79.956 440.803 79.956C441.643 79.956 442.411 79.788 443.059 79.452C443.707 79.116 444.235 78.66 444.595 78.084C444.955 77.508 445.147 76.86 445.147 76.164V75.9H440.683V73.116H448.363V75.444C448.363 76.86 448.051 78.108 447.451 79.236C446.827 80.364 445.939 81.252 444.811 81.9C443.659 82.548 442.291 82.884 440.707 82.884ZM456.45 82.86C455.178 82.86 454.074 82.596 453.162 82.044C452.226 81.516 451.53 80.748 451.026 79.764C450.522 78.78 450.282 77.604 450.282 76.236C450.282 75.012 450.522 73.884 451.026 72.9C451.506 71.916 452.202 71.148 453.114 70.572C454.026 70.02 455.106 69.732 456.378 69.732C458.202 69.732 459.594 70.308 460.578 71.484C461.562 72.66 462.042 74.22 462.042 76.164V77.268H453.354C453.618 79.332 454.65 80.364 456.474 80.364C457.074 80.364 457.554 80.268 457.962 80.076C458.346 79.884 458.61 79.644 458.754 79.332H461.826C461.514 80.412 460.89 81.276 459.954 81.9C458.994 82.548 457.818 82.86 456.45 82.86ZM456.354 72.228C455.514 72.228 454.842 72.468 454.338 72.948C453.834 73.452 453.498 74.148 453.354 75.06H459.066C459.042 74.22 458.802 73.524 458.346 72.996C457.89 72.492 457.218 72.228 456.354 72.228ZM469.301 82.596C468.053 82.596 467.093 82.26 466.421 81.564C465.725 80.892 465.389 79.908 465.389 78.588V72.732H463.373V70.092H465.389V66.324C466.445 66.276 467.453 66.108 468.437 65.82V70.092H470.885V72.732H468.437V78.252C468.437 78.804 468.581 79.236 468.845 79.524C469.109 79.812 469.493 79.956 469.997 79.956H470.885V82.596H469.301ZM484.945 82.884C483.001 82.884 481.417 82.428 480.193 81.54C478.969 80.652 478.153 79.404 477.793 77.796H481.057C481.273 78.468 481.705 78.996 482.401 79.404C483.073 79.812 483.913 80.028 484.897 80.028C485.833 80.028 486.625 79.836 487.249 79.476C487.849 79.116 488.161 78.612 488.161 77.916C488.161 77.508 488.065 77.172 487.897 76.86C487.729 76.572 487.393 76.308 486.913 76.092C486.433 75.876 485.737 75.708 484.825 75.564L482.953 75.252C481.393 74.988 480.241 74.508 479.473 73.764C478.681 73.02 478.297 71.964 478.297 70.596C478.297 69.54 478.585 68.628 479.161 67.836C479.713 67.068 480.481 66.468 481.465 66.036C482.425 65.628 483.505 65.412 484.705 65.412C486.457 65.412 487.921 65.82 489.097 66.636C490.273 67.476 491.017 68.676 491.281 70.26H488.017C487.849 69.588 487.489 69.084 486.913 68.748C486.337 68.436 485.617 68.268 484.729 68.268C483.745 68.268 482.977 68.436 482.425 68.796C481.873 69.156 481.585 69.66 481.585 70.308C481.585 70.884 481.801 71.34 482.233 71.652C482.641 71.964 483.481 72.228 484.753 72.444L486.553 72.732C489.841 73.26 491.473 74.892 491.473 77.604C491.473 78.732 491.185 79.668 490.633 80.46C490.081 81.252 489.313 81.852 488.329 82.26C487.345 82.692 486.217 82.884 484.945 82.884ZM498.785 82.596C497.537 82.596 496.577 82.26 495.905 81.564C495.209 80.892 494.873 79.908 494.873 78.588V72.732H492.857V70.092H494.873V66.324C495.929 66.276 496.937 66.108 497.921 65.82V70.092H500.369V72.732H497.921V78.252C497.921 78.804 498.065 79.236 498.329 79.524C498.593 79.812 498.977 79.956 499.481 79.956H500.369V82.596H498.785ZM506.231 82.86C504.935 82.86 503.903 82.5 503.135 81.78C502.343 81.084 501.959 80.124 501.959 78.948C501.959 77.676 502.415 76.668 503.351 75.948C504.287 75.228 505.583 74.868 507.239 74.868H509.759V74.412C509.759 73.644 509.543 73.092 509.135 72.732C508.727 72.396 508.151 72.228 507.455 72.228C506.855 72.228 506.351 72.348 505.967 72.588C505.583 72.828 505.343 73.116 505.247 73.428H502.319C502.535 72.372 503.087 71.484 503.999 70.788C504.911 70.092 506.087 69.732 507.551 69.732C509.159 69.732 510.431 70.14 511.367 70.932C512.303 71.748 512.759 73.02 512.759 74.724V82.5H509.951V80.964C509.543 81.612 509.015 82.092 508.343 82.404C507.647 82.716 506.951 82.86 506.231 82.86ZM506.999 80.412C507.431 80.412 507.863 80.316 508.295 80.124C508.703 79.932 509.063 79.644 509.351 79.26C509.615 78.9 509.759 78.42 509.759 77.844V77.052H507.383C506.591 77.052 505.991 77.196 505.583 77.484C505.151 77.796 504.935 78.204 504.935 78.756C504.935 79.308 505.127 79.716 505.511 79.98C505.895 80.268 506.399 80.412 506.999 80.412ZM518.878 76.38V82.5H515.83V70.092H518.758V72.156C519.142 71.46 519.646 70.932 520.246 70.548C520.846 70.188 521.518 69.996 522.262 69.996H522.742V72.876H522.166C521.23 72.876 520.462 73.188 519.838 73.788C519.19 74.388 518.878 75.252 518.878 76.38ZM529.981 82.596C528.733 82.596 527.773 82.26 527.101 81.564C526.405 80.892 526.069 79.908 526.069 78.588V72.732H524.053V70.092H526.069V66.324C527.125 66.276 528.133 66.108 529.117 65.82V70.092H531.565V72.732H529.117V78.252C529.117 78.804 529.261 79.236 529.525 79.524C529.789 79.812 530.173 79.956 530.677 79.956H531.565V82.596H529.981ZM539.419 82.86C538.147 82.86 537.043 82.596 536.131 82.044C535.195 81.516 534.499 80.748 533.995 79.764C533.491 78.78 533.251 77.604 533.251 76.236C533.251 75.012 533.491 73.884 533.995 72.9C534.475 71.916 535.171 71.148 536.083 70.572C536.995 70.02 538.075 69.732 539.347 69.732C541.171 69.732 542.563 70.308 543.547 71.484C544.531 72.66 545.011 74.22 545.011 76.164V77.268H536.323C536.587 79.332 537.619 80.364 539.443 80.364C540.043 80.364 540.523 80.268 540.931 80.076C541.315 79.884 541.579 79.644 541.723 79.332H544.795C544.483 80.412 543.859 81.276 542.923 81.9C541.963 82.548 540.787 82.86 539.419 82.86ZM539.323 72.228C538.483 72.228 537.811 72.468 537.307 72.948C536.803 73.452 536.467 74.148 536.323 75.06H542.035C542.011 74.22 541.771 73.524 541.315 72.996C540.859 72.492 540.187 72.228 539.323 72.228ZM552.294 82.86C551.214 82.86 550.278 82.572 549.462 82.02C548.622 81.468 547.974 80.676 547.518 79.692C547.038 78.708 546.798 77.58 546.798 76.284C546.798 74.988 547.038 73.836 547.518 72.852C547.974 71.868 548.622 71.1 549.462 70.548C550.278 69.996 551.214 69.732 552.294 69.732C553.086 69.732 553.806 69.9 554.43 70.212C555.054 70.548 555.582 71.004 556.014 71.604V65.1H559.038V82.5H556.11V80.868C555.702 81.492 555.174 81.972 554.526 82.332C553.878 82.692 553.134 82.86 552.294 82.86ZM553.014 80.148C553.95 80.148 554.694 79.788 555.294 79.092C555.87 78.396 556.158 77.46 556.158 76.284C556.158 75.108 555.87 74.172 555.294 73.476C554.694 72.78 553.95 72.444 553.014 72.444C552.102 72.444 551.358 72.78 550.782 73.476C550.182 74.172 549.894 75.108 549.894 76.284C549.894 77.46 550.182 78.396 550.782 79.092C551.358 79.788 552.102 80.148 553.014 80.148Z" fill="white"/>
<path d="M577 81.3611L584.5 73.9999L577 66.6387" stroke="white" stroke-width="2" stroke-linecap="square"/>
</svg>
