<svg width="669" height="696" viewBox="0 0 669 696" fill="none" xmlns="http://www.w3.org/2000/svg">
<path d="M303.195 19.5621C302.984 17.4268 302.075 15.7681 300.469 14.5857C298.863 13.4034 296.684 12.8123 293.931 12.8123C292.06 12.8123 290.481 13.077 289.193 13.6064C287.905 14.1181 286.916 14.8328 286.228 15.7504C285.558 16.668 285.222 17.7092 285.222 18.8739C285.187 19.8444 285.39 20.6915 285.831 21.415C286.29 22.1385 286.916 22.7649 287.711 23.2943C288.505 23.8061 289.422 24.2561 290.463 24.6443C291.505 25.0149 292.616 25.3325 293.799 25.5972L298.669 26.7619C301.034 27.2913 303.204 27.9971 305.181 28.8795C307.157 29.7618 308.869 30.8471 310.316 32.1353C311.763 33.4235 312.883 34.9411 313.678 36.6881C314.489 38.4351 314.904 40.438 314.922 42.6968C314.904 46.0143 314.057 48.8907 312.38 51.3259C310.722 53.7435 308.322 55.6229 305.181 56.964C302.057 58.2875 298.29 58.9493 293.878 58.9493C289.502 58.9493 285.69 58.2787 282.443 56.9376C279.214 55.5964 276.69 53.6112 274.873 50.9818C273.073 48.3348 272.129 45.0614 272.04 41.1615H283.131C283.255 42.9791 283.775 44.4967 284.693 45.7143C285.628 46.9143 286.872 47.8231 288.425 48.4407C289.996 49.0407 291.769 49.3407 293.746 49.3407C295.687 49.3407 297.372 49.0584 298.801 48.4937C300.248 47.929 301.369 47.1437 302.163 46.1378C302.957 45.132 303.354 43.9761 303.354 42.6703C303.354 41.4527 302.992 40.4292 302.269 39.5998C301.563 38.7704 300.522 38.0645 299.146 37.4822C297.787 36.8999 296.119 36.3705 294.143 35.894L288.24 34.4117C283.669 33.2999 280.061 31.5618 277.414 29.1971C274.767 26.8325 273.452 23.6473 273.47 19.6415C273.452 16.3592 274.326 13.4916 276.09 11.0388C277.873 8.5859 280.317 6.67124 283.422 5.29481C286.528 3.91837 290.058 3.23015 294.01 3.23015C298.034 3.23015 301.545 3.91837 304.545 5.29481C307.563 6.67124 309.91 8.5859 311.586 11.0388C313.263 13.4916 314.127 16.3327 314.18 19.5621H303.195ZM322.419 73.4283V17.5239H333.537V24.3531H334.039C334.534 23.259 335.248 22.1473 336.184 21.0179C337.136 19.8709 338.372 18.918 339.889 18.1592C341.425 17.3827 343.33 16.9945 345.607 16.9945C348.571 16.9945 351.307 17.7709 353.812 19.3238C356.318 20.8591 358.321 23.1796 359.821 26.2854C361.321 29.3736 362.071 33.247 362.071 37.9057C362.071 42.4409 361.339 46.2702 359.874 49.3936C358.427 52.4994 356.451 54.8553 353.945 56.4611C351.457 58.0493 348.668 58.8434 345.58 58.8434C343.392 58.8434 341.53 58.4816 339.995 57.7581C338.478 57.0346 337.233 56.1258 336.263 55.0317C335.292 53.92 334.551 52.7994 334.039 51.67H333.695V73.4283H322.419ZM333.457 37.8528C333.457 40.2704 333.792 42.3791 334.463 44.1791C335.134 45.979 336.104 47.3819 337.375 48.3878C338.645 49.376 340.189 49.8701 342.007 49.8701C343.842 49.8701 345.395 49.3672 346.666 48.3613C347.936 47.3378 348.898 45.9261 349.551 44.1261C350.221 42.3085 350.557 40.2174 350.557 37.8528C350.557 35.5058 350.23 33.4411 349.577 31.6588C348.924 29.8765 347.963 28.4824 346.692 27.4766C345.422 26.4707 343.86 25.9678 342.007 25.9678C340.172 25.9678 338.619 26.4531 337.348 27.4236C336.095 28.3942 335.134 29.7706 334.463 31.5529C333.792 33.3352 333.457 35.4352 333.457 37.8528ZM381.182 58.9493C378.588 58.9493 376.277 58.4993 374.247 57.5993C372.218 56.6817 370.612 55.3317 369.43 53.5494C368.265 51.7495 367.683 49.5083 367.683 46.8261C367.683 44.5673 368.097 42.6703 368.927 41.135C369.756 39.5998 370.886 38.3645 372.315 37.4292C373.744 36.494 375.368 35.7881 377.185 35.3117C379.021 34.8352 380.944 34.4999 382.956 34.3058C385.32 34.0588 387.226 33.8293 388.673 33.6176C390.12 33.3882 391.17 33.0529 391.823 32.6117C392.476 32.1706 392.803 31.5176 392.803 30.653V30.4941C392.803 28.8177 392.273 27.5207 391.214 26.6031C390.173 25.6854 388.691 25.2266 386.767 25.2266C384.738 25.2266 383.123 25.6766 381.923 26.5766C380.724 27.4589 379.929 28.5707 379.541 29.9118L369.112 29.0648C369.641 26.5942 370.683 24.459 372.236 22.6591C373.788 20.8415 375.791 19.4474 378.244 18.4768C380.715 17.4886 383.573 16.9945 386.82 16.9945C389.079 16.9945 391.241 17.2592 393.306 17.7886C395.388 18.318 397.232 19.1386 398.838 20.2503C400.461 21.362 401.741 22.7914 402.676 24.5384C403.611 26.2678 404.079 28.3413 404.079 30.7588V58.1816H393.385V52.5436H393.067C392.414 53.8141 391.541 54.9347 390.447 55.9052C389.353 56.8581 388.038 57.6081 386.503 58.1552C384.968 58.6846 383.194 58.9493 381.182 58.9493ZM384.412 51.1671C386.07 51.1671 387.535 50.8407 388.806 50.1877C390.076 49.5172 391.073 48.6172 391.797 47.4878C392.52 46.3584 392.882 45.079 392.882 43.6497V39.3351C392.529 39.5645 392.044 39.7762 391.426 39.9704C390.826 40.1468 390.147 40.3145 389.388 40.4733C388.629 40.6145 387.87 40.7468 387.112 40.8703C386.353 40.9762 385.665 41.0733 385.047 41.1615C383.723 41.3556 382.568 41.6644 381.579 42.0879C380.591 42.5115 379.824 43.085 379.276 43.8085C378.729 44.5144 378.456 45.3967 378.456 46.4555C378.456 47.9907 379.012 49.1642 380.124 49.976C381.253 50.7701 382.682 51.1671 384.412 51.1671ZM431.197 58.9757C427.033 58.9757 423.45 58.0934 420.45 56.3287C417.468 54.5464 415.174 52.0759 413.568 48.9172C411.98 45.7584 411.186 42.1232 411.186 38.0116C411.186 33.847 411.989 30.1941 413.595 27.0531C415.218 23.8943 417.521 21.4326 420.503 19.668C423.486 17.8856 427.033 16.9945 431.144 16.9945C434.691 16.9945 437.797 17.6386 440.462 18.9268C443.126 20.215 445.235 22.0238 446.788 24.3531C448.341 26.6825 449.197 29.4177 449.356 32.5588H438.715C438.415 30.5294 437.621 28.8971 436.332 27.6619C435.062 26.409 433.394 25.7825 431.33 25.7825C429.583 25.7825 428.056 26.259 426.75 27.2119C425.462 28.1471 424.456 29.5148 423.733 31.3147C423.009 33.1147 422.647 35.294 422.647 37.8528C422.647 40.4468 423 42.6526 423.706 44.4702C424.43 46.2878 425.444 47.6731 426.75 48.626C428.056 49.5789 429.583 50.0554 431.33 50.0554C432.618 50.0554 433.774 49.7907 434.797 49.2613C435.838 48.7319 436.694 47.9643 437.365 46.9584C438.053 45.9349 438.503 44.7085 438.715 43.2791H449.356C449.179 46.3849 448.332 49.1201 446.814 51.4848C445.314 53.8318 443.241 55.667 440.594 56.9905C437.947 58.314 434.815 58.9757 431.197 58.9757ZM456.575 58.1816V17.5239H467.851V58.1816H456.575ZM462.24 12.2829C460.563 12.2829 459.125 11.727 457.925 10.6153C456.743 9.48587 456.152 8.13591 456.152 6.56536C456.152 5.01246 456.743 3.68014 457.925 2.56841C459.125 1.43903 460.563 0.874334 462.24 0.874334C463.916 0.874334 465.346 1.43903 466.528 2.56841C467.728 3.68014 468.328 5.01246 468.328 6.56536C468.328 8.13591 467.728 9.48587 466.528 10.6153C465.346 11.727 463.916 12.2829 462.24 12.2829ZM488.16 34.6764V58.1816H476.884V17.5239H487.631V24.6972H488.107C489.007 22.3326 490.516 20.4621 492.634 19.0856C494.751 17.6915 497.319 16.9945 500.337 16.9945C503.16 16.9945 505.622 17.6121 507.722 18.8474C509.822 20.0826 511.454 21.8473 512.619 24.1414C513.783 26.4178 514.366 29.1354 514.366 32.2941V58.1816H503.089V34.3058C503.107 31.8176 502.472 29.8765 501.184 28.4824C499.895 27.0707 498.122 26.3648 495.863 26.3648C494.346 26.3648 493.004 26.6913 491.84 27.3442C490.693 27.9971 489.793 28.9501 489.14 30.203C488.504 31.4382 488.178 32.9294 488.16 34.6764ZM541.57 74.2753C537.917 74.2753 534.785 73.7724 532.173 72.7665C529.579 71.7783 527.514 70.4284 525.979 68.7167C524.444 67.0049 523.447 65.0815 522.988 62.9462L533.417 61.5433C533.735 62.3551 534.238 63.1139 534.926 63.8197C535.614 64.5256 536.523 65.0903 537.652 65.5138C538.799 65.955 540.194 66.1755 541.835 66.1755C544.288 66.1755 546.308 65.5756 547.896 64.3756C549.502 63.1933 550.305 61.208 550.305 58.4199V50.9818H549.829C549.334 52.1112 548.593 53.1788 547.605 54.1847C546.617 55.1905 545.346 56.0111 543.793 56.6464C542.241 57.2817 540.388 57.5993 538.235 57.5993C535.182 57.5993 532.403 56.8934 529.897 55.4817C527.409 54.0523 525.423 51.873 523.941 48.9436C522.476 45.9967 521.744 42.2732 521.744 37.7734C521.744 33.1676 522.494 29.3206 523.994 26.2325C525.494 23.1443 527.488 20.8326 529.976 19.2974C532.482 17.7621 535.226 16.9945 538.208 16.9945C540.485 16.9945 542.391 17.3827 543.926 18.1592C545.461 18.918 546.696 19.8709 547.632 21.0179C548.585 22.1473 549.317 23.259 549.829 24.3531H550.252V17.5239H561.449V58.5787C561.449 62.0374 560.602 64.9315 558.908 67.2608C557.214 69.5902 554.867 71.3372 551.867 72.5018C548.885 73.6842 545.452 74.2753 541.57 74.2753ZM541.808 49.1289C543.626 49.1289 545.161 48.679 546.414 47.779C547.685 46.8614 548.655 45.5555 549.326 43.8614C550.014 42.1497 550.358 40.1027 550.358 37.7204C550.358 35.3381 550.023 33.2735 549.352 31.5265C548.682 29.7618 547.711 28.3942 546.44 27.4236C545.17 26.4531 543.626 25.9678 541.808 25.9678C539.955 25.9678 538.394 26.4707 537.123 27.4766C535.852 28.4648 534.891 29.8412 534.238 31.6059C533.585 33.3705 533.258 35.4087 533.258 37.7204C533.258 40.0674 533.585 42.0968 534.238 43.8085C534.908 45.5026 535.87 46.8172 537.123 47.7525C538.394 48.6701 539.955 49.1289 541.808 49.1289Z" fill="#7269D6"/>
<path d="M4.87946 692.094C4.19889 692.094 3.59345 691.984 3.06314 691.763C2.53577 691.539 2.12183 691.234 1.82132 690.848C1.52081 690.462 1.37055 690.025 1.37055 689.535C1.37055 689.158 1.45599 688.812 1.62687 688.497C1.8007 688.179 2.03639 687.915 2.33396 687.706C2.63152 687.494 2.96444 687.358 3.33272 687.299V687.237C2.84954 687.14 2.4577 686.906 2.15719 686.535C1.85667 686.161 1.70642 685.726 1.70642 685.231C1.70642 684.763 1.84342 684.346 2.11741 683.98C2.39141 683.612 2.76705 683.323 3.24433 683.114C3.72456 682.902 4.2696 682.796 4.87946 682.796C5.48933 682.796 6.0329 682.902 6.51018 683.114C6.99041 683.326 7.36752 683.617 7.64152 683.985C7.91551 684.35 8.05398 684.766 8.05693 685.231C8.05398 685.729 7.90078 686.164 7.59732 686.535C7.29387 686.906 6.90497 687.14 6.43063 687.237V687.299C6.79301 687.358 7.12151 687.494 7.41613 687.706C7.7137 687.915 7.94939 688.179 8.12322 688.497C8.29999 688.812 8.38985 689.158 8.3928 689.535C8.38985 690.025 8.23812 690.462 7.93761 690.848C7.6371 691.234 7.22168 691.539 6.69137 691.763C6.164 691.984 5.56003 692.094 4.87946 692.094ZM4.87946 690.689C5.18292 690.689 5.44808 690.634 5.67494 690.525C5.90179 690.413 6.07856 690.26 6.20525 690.066C6.33488 689.868 6.3997 689.641 6.3997 689.385C6.3997 689.123 6.33341 688.892 6.20083 688.691C6.06825 688.488 5.88853 688.329 5.66168 688.214C5.43482 688.096 5.17408 688.037 4.87946 688.037C4.58779 688.037 4.32705 688.096 4.09725 688.214C3.86745 688.329 3.68626 688.488 3.55368 688.691C3.42405 688.892 3.35923 689.123 3.35923 689.385C3.35923 689.641 3.42257 689.868 3.54926 690.066C3.67595 690.26 3.85419 690.413 4.08399 690.525C4.3138 690.634 4.57895 690.689 4.87946 690.689ZM4.87946 686.645C5.13284 686.645 5.35822 686.594 5.55562 686.491C5.75301 686.387 5.90768 686.245 6.01964 686.062C6.13159 685.879 6.18757 685.669 6.18757 685.43C6.18757 685.194 6.13159 684.988 6.01964 684.811C5.90768 684.632 5.75448 684.492 5.56003 684.391C5.36559 684.288 5.13873 684.237 4.87946 684.237C4.62315 684.237 4.39629 684.288 4.19889 684.391C4.0015 684.492 3.84683 684.632 3.73487 684.811C3.62586 684.988 3.57136 685.194 3.57136 685.43C3.57136 685.669 3.62733 685.879 3.73929 686.062C3.85124 686.245 4.00592 686.387 4.20331 686.491C4.40071 686.594 4.62609 686.645 4.87946 686.645ZM12.6287 694.516V685.182H14.4848V686.323H14.5687C14.6512 686.14 14.7706 685.954 14.9267 685.766C15.0858 685.574 15.292 685.415 15.5454 685.289C15.8017 685.159 16.1199 685.094 16.5 685.094C16.9949 685.094 17.4516 685.224 17.8699 685.483C18.2883 685.739 18.6227 686.127 18.8731 686.645C19.1236 687.161 19.2488 687.807 19.2488 688.585C19.2488 689.342 19.1265 689.982 18.882 690.503C18.6404 691.022 18.3104 691.415 17.892 691.683C17.4766 691.948 17.0111 692.081 16.4956 692.081C16.1302 692.081 15.8194 692.021 15.5631 691.9C15.3097 691.779 15.102 691.627 14.94 691.445C14.7779 691.259 14.6542 691.072 14.5687 690.883H14.5113V694.516H12.6287ZM14.4715 688.576C14.4715 688.98 14.5275 689.332 14.6395 689.633C14.7514 689.933 14.9134 690.167 15.1256 690.335C15.3377 690.5 15.5955 690.583 15.8989 690.583C16.2054 690.583 16.4646 690.499 16.6767 690.331C16.8889 690.16 17.0494 689.924 17.1584 689.624C17.2704 689.32 17.3264 688.971 17.3264 688.576C17.3264 688.185 17.2719 687.84 17.1629 687.542C17.0539 687.245 16.8933 687.012 16.6812 686.844C16.469 686.676 16.2083 686.592 15.8989 686.592C15.5925 686.592 15.3333 686.673 15.1212 686.835C14.912 686.997 14.7514 687.227 14.6395 687.525C14.5275 687.822 14.4715 688.173 14.4715 688.576ZM21.834 685.182L23.0803 687.556L24.3575 685.182H26.2887L24.3221 688.576L26.3417 691.97H24.4193L23.0803 689.624L21.7633 691.97H19.8189L21.834 688.576L19.8896 685.182H21.834Z" fill="#828282"/>
<rect x="9.48047" y="623.347" width="4.97788" height="46.6676" fill="url(#paint0_linear_32_8680)"/>
<path d="M55.8421 682.92V691.97H53.9285V684.736H53.8755L51.8029 686.035V684.338L54.0434 682.92H55.8421ZM61.4667 692.094C61.0012 692.091 60.5519 692.013 60.1188 691.86C59.6887 691.707 59.3027 691.458 58.961 691.113C58.6192 690.768 58.3482 690.312 58.1478 689.743C57.9504 689.175 57.8517 688.476 57.8517 687.648C57.8547 686.888 57.9416 686.209 58.1125 685.611C58.2863 685.01 58.5338 684.5 58.8549 684.082C59.179 683.664 59.5664 683.345 60.0172 683.127C60.468 682.907 60.9732 682.796 61.533 682.796C62.137 682.796 62.6702 682.914 63.1328 683.15C63.5953 683.382 63.9666 683.699 64.2465 684.1C64.5293 684.5 64.7002 684.95 64.7591 685.448H62.8721C62.7984 685.132 62.6437 684.885 62.408 684.705C62.1723 684.525 61.8807 684.436 61.533 684.436C60.9438 684.436 60.496 684.692 60.1896 685.205C59.8861 685.717 59.7314 686.414 59.7255 687.295H59.7874C59.9229 687.027 60.1056 686.798 60.3354 686.61C60.5681 686.418 60.8318 686.273 61.1264 686.172C61.424 686.069 61.7378 686.018 62.0677 686.018C62.604 686.018 63.0812 686.144 63.4996 686.398C63.918 686.648 64.2479 686.993 64.4895 687.432C64.7311 687.871 64.8519 688.373 64.8519 688.939C64.8519 689.552 64.709 690.097 64.4232 690.574C64.1404 691.051 63.7441 691.425 63.2344 691.696C62.7277 691.965 62.1385 692.097 61.4667 692.094ZM61.4579 690.592C61.7525 690.592 62.0162 690.521 62.2489 690.38C62.4817 690.238 62.6643 690.047 62.7969 689.805C62.9295 689.563 62.9958 689.292 62.9958 688.992C62.9958 688.691 62.9295 688.422 62.7969 688.183C62.6673 687.944 62.4876 687.754 62.2578 687.613C62.028 687.472 61.7658 687.401 61.4711 687.401C61.2502 687.401 61.0454 687.442 60.8569 687.525C60.6713 687.607 60.5077 687.722 60.3663 687.869C60.2279 688.017 60.1188 688.188 60.0393 688.382C59.9597 688.574 59.92 688.778 59.92 688.996C59.92 689.288 59.9863 689.555 60.1188 689.796C60.2544 690.038 60.437 690.231 60.6668 690.375C60.8996 690.519 61.1633 690.592 61.4579 690.592ZM69.1066 694.516V685.182H70.9627V686.323H71.0466C71.1291 686.14 71.2484 685.954 71.4046 685.766C71.5637 685.574 71.7699 685.415 72.0233 685.289C72.2796 685.159 72.5978 685.094 72.9779 685.094C73.4728 685.094 73.9295 685.224 74.3478 685.483C74.7662 685.739 75.1006 686.127 75.351 686.645C75.6014 687.161 75.7266 687.807 75.7266 688.585C75.7266 689.342 75.6044 689.982 75.3598 690.503C75.1183 691.022 74.7883 691.415 74.3699 691.683C73.9545 691.948 73.489 692.081 72.9734 692.081C72.6081 692.081 72.2973 692.021 72.041 691.9C71.7876 691.779 71.5799 691.627 71.4178 691.445C71.2558 691.259 71.1321 691.072 71.0466 690.883H70.9892V694.516H69.1066ZM70.9494 688.576C70.9494 688.98 71.0054 689.332 71.1173 689.633C71.2293 689.933 71.3913 690.167 71.6035 690.335C71.8156 690.5 72.0734 690.583 72.3768 690.583C72.6832 690.583 72.9425 690.499 73.1546 690.331C73.3667 690.16 73.5273 689.924 73.6363 689.624C73.7483 689.32 73.8043 688.971 73.8043 688.576C73.8043 688.185 73.7498 687.84 73.6407 687.542C73.5317 687.245 73.3712 687.012 73.159 686.844C72.9469 686.676 72.6862 686.592 72.3768 686.592C72.0704 686.592 71.8112 686.673 71.599 686.835C71.3899 686.997 71.2293 687.227 71.1173 687.525C71.0054 687.822 70.9494 688.173 70.9494 688.576ZM78.3119 685.182L79.5582 687.556L80.8353 685.182H82.7666L80.8 688.576L82.8196 691.97H80.8972L79.5582 689.624L78.2412 691.97H76.2967L78.3119 688.576L76.3674 685.182H78.3119Z" fill="#828282"/>
<rect x="60.5039" y="576.057" width="9.95576" height="93.9575" fill="url(#paint1_linear_32_8680)"/>
<path d="M110.394 691.97V690.592L113.615 687.609C113.889 687.343 114.119 687.105 114.305 686.893C114.493 686.681 114.636 686.473 114.733 686.27C114.831 686.063 114.879 685.841 114.879 685.602C114.879 685.337 114.819 685.109 114.698 684.917C114.577 684.723 114.412 684.574 114.203 684.471C113.994 684.365 113.757 684.312 113.492 684.312C113.215 684.312 112.973 684.368 112.767 684.48C112.561 684.592 112.402 684.752 112.29 684.961C112.178 685.171 112.122 685.42 112.122 685.708H110.305C110.305 685.116 110.439 684.602 110.708 684.166C110.976 683.73 111.351 683.393 111.834 683.154C112.318 682.915 112.874 682.796 113.505 682.796C114.153 682.796 114.717 682.911 115.198 683.141C115.681 683.368 116.056 683.683 116.324 684.086C116.593 684.49 116.727 684.953 116.727 685.474C116.727 685.816 116.659 686.153 116.523 686.486C116.391 686.819 116.154 687.189 115.812 687.595C115.47 687.999 114.988 688.484 114.367 689.049L113.045 690.344V690.406H116.846V691.97H110.394ZM117.901 690.38V688.873L121.68 682.92H122.979V685.006H122.21L119.828 688.775V688.846H125.197V690.38H117.901ZM122.245 691.97V689.92L122.281 689.253V682.92H124.075V691.97H122.245ZM129.37 694.516V685.182H131.226V686.323H131.31C131.393 686.14 131.512 685.954 131.668 685.766C131.827 685.574 132.034 685.415 132.287 685.289C132.543 685.159 132.861 685.094 133.241 685.094C133.736 685.094 134.193 685.224 134.611 685.483C135.03 685.739 135.364 686.127 135.615 686.645C135.865 687.161 135.99 687.807 135.99 688.585C135.99 689.342 135.868 689.982 135.623 690.503C135.382 691.022 135.052 691.415 134.634 691.683C134.218 691.948 133.753 692.081 133.237 692.081C132.872 692.081 132.561 692.021 132.305 691.9C132.051 691.779 131.843 691.627 131.681 691.445C131.519 691.259 131.396 691.072 131.31 690.883H131.253V694.516H129.37ZM131.213 688.576C131.213 688.98 131.269 689.332 131.381 689.633C131.493 689.933 131.655 690.167 131.867 690.335C132.079 690.5 132.337 690.583 132.64 690.583C132.947 690.583 133.206 690.499 133.418 690.331C133.63 690.16 133.791 689.924 133.9 689.624C134.012 689.32 134.068 688.971 134.068 688.576C134.068 688.185 134.013 687.84 133.904 687.542C133.795 687.245 133.635 687.012 133.423 686.844C133.211 686.676 132.95 686.592 132.64 686.592C132.334 686.592 132.075 686.673 131.863 686.835C131.653 686.997 131.493 687.227 131.381 687.525C131.269 687.822 131.213 688.173 131.213 688.576ZM138.576 685.182L139.822 687.556L141.099 685.182H143.03L141.064 688.576L143.083 691.97H141.161L139.822 689.624L138.505 691.97H136.56L138.576 688.576L136.631 685.182H138.576Z" fill="#828282"/>
<rect x="117.128" y="515.7" width="14.9336" height="154.314" fill="url(#paint2_linear_32_8680)"/>
<path d="M174.097 692.094C173.437 692.094 172.849 691.981 172.333 691.754C171.821 691.524 171.416 691.209 171.118 690.808C170.823 690.405 170.672 689.939 170.663 689.412H172.59C172.601 689.633 172.674 689.827 172.806 689.995C172.942 690.16 173.121 690.288 173.345 690.38C173.569 690.471 173.821 690.517 174.101 690.517C174.393 690.517 174.65 690.465 174.874 690.362C175.098 690.259 175.274 690.116 175.4 689.933C175.527 689.751 175.59 689.54 175.59 689.301C175.59 689.06 175.523 688.846 175.387 688.66C175.254 688.472 175.063 688.325 174.813 688.218C174.565 688.112 174.27 688.059 173.929 688.059H173.085V686.654H173.929C174.217 686.654 174.472 686.604 174.693 686.504C174.917 686.404 175.091 686.265 175.215 686.088C175.338 685.909 175.4 685.699 175.4 685.461C175.4 685.234 175.346 685.035 175.237 684.864C175.131 684.69 174.98 684.555 174.786 684.458C174.594 684.36 174.371 684.312 174.114 684.312C173.855 684.312 173.618 684.359 173.403 684.453C173.188 684.545 173.015 684.676 172.886 684.847C172.756 685.017 172.687 685.218 172.678 685.448H170.844C170.853 684.926 171.002 684.467 171.29 684.069C171.579 683.671 171.968 683.36 172.457 683.136C172.949 682.909 173.504 682.796 174.123 682.796C174.748 682.796 175.294 682.909 175.763 683.136C176.231 683.363 176.595 683.67 176.854 684.056C177.116 684.439 177.246 684.869 177.243 685.346C177.246 685.853 177.088 686.275 176.77 686.614C176.455 686.953 176.044 687.168 175.537 687.26V687.33C176.203 687.416 176.71 687.647 177.057 688.024C177.408 688.398 177.582 688.867 177.579 689.429C177.582 689.945 177.433 690.403 177.133 690.804C176.835 691.204 176.424 691.52 175.9 691.749C175.375 691.979 174.774 692.094 174.097 692.094ZM178.954 691.97V690.592L182.176 687.609C182.45 687.343 182.68 687.105 182.866 686.893C183.054 686.681 183.197 686.473 183.294 686.27C183.391 686.063 183.44 685.841 183.44 685.602C183.44 685.337 183.38 685.109 183.259 684.917C183.138 684.723 182.973 684.574 182.764 684.471C182.555 684.365 182.318 684.312 182.052 684.312C181.775 684.312 181.534 684.368 181.328 684.48C181.121 684.592 180.962 684.752 180.85 684.961C180.738 685.171 180.682 685.42 180.682 685.708H178.866C178.866 685.116 179 684.602 179.268 684.166C179.536 683.73 179.912 683.393 180.395 683.154C180.878 682.915 181.435 682.796 182.066 682.796C182.714 682.796 183.278 682.911 183.758 683.141C184.241 683.368 184.617 683.683 184.885 684.086C185.153 684.49 185.287 684.953 185.287 685.474C185.287 685.816 185.22 686.153 185.084 686.486C184.951 686.819 184.714 687.189 184.373 687.595C184.031 687.999 183.549 688.484 182.927 689.049L181.606 690.344V690.406H185.407V691.97H178.954ZM189.691 694.516V685.182H191.547V686.323H191.631C191.714 686.14 191.833 685.954 191.989 685.766C192.148 685.574 192.354 685.415 192.608 685.289C192.864 685.159 193.182 685.094 193.562 685.094C194.057 685.094 194.514 685.224 194.932 685.483C195.351 685.739 195.685 686.127 195.936 686.645C196.186 687.161 196.311 687.807 196.311 688.585C196.311 689.342 196.189 689.982 195.944 690.503C195.703 691.022 195.373 691.415 194.954 691.683C194.539 691.948 194.074 692.081 193.558 692.081C193.193 692.081 192.882 692.021 192.626 691.9C192.372 691.779 192.164 691.627 192.002 691.445C191.84 691.259 191.717 691.072 191.631 690.883H191.574V694.516H189.691ZM191.534 688.576C191.534 688.98 191.59 689.332 191.702 689.633C191.814 689.933 191.976 690.167 192.188 690.335C192.4 690.5 192.658 690.583 192.961 690.583C193.268 690.583 193.527 690.499 193.739 690.331C193.951 690.16 194.112 689.924 194.221 689.624C194.333 689.32 194.389 688.971 194.389 688.576C194.389 688.185 194.334 687.84 194.225 687.542C194.116 687.245 193.956 687.012 193.744 686.844C193.531 686.676 193.271 686.592 192.961 686.592C192.655 686.592 192.396 686.673 192.184 686.835C191.974 686.997 191.814 687.227 191.702 687.525C191.59 687.822 191.534 688.173 191.534 688.576ZM198.896 685.182L200.143 687.556L201.42 685.182H203.351L201.385 688.576L203.404 691.97H201.482L200.143 689.624L198.826 691.97H196.881L198.896 688.576L196.952 685.182H198.896Z" fill="#828282"/>
<rect x="174.995" y="459.077" width="19.9115" height="210.938" fill="url(#paint3_linear_32_8680)"/>
<path d="M231.594 690.38V688.873L235.372 682.92H236.671V685.006H235.902L233.52 688.775V688.846H238.89V690.38H231.594ZM235.938 691.97V689.92L235.973 689.253V682.92H237.767V691.97H235.938ZM243.714 692.169C242.953 692.166 242.299 691.979 241.751 691.608C241.206 691.237 240.787 690.699 240.492 689.995C240.2 689.291 240.056 688.444 240.059 687.454C240.059 686.467 240.205 685.626 240.496 684.931C240.791 684.235 241.211 683.706 241.756 683.344C242.304 682.979 242.956 682.796 243.714 682.796C244.471 682.796 245.122 682.979 245.667 683.344C246.215 683.709 246.636 684.24 246.931 684.935C247.225 685.627 247.371 686.467 247.368 687.454C247.368 688.447 247.221 689.295 246.926 689.999C246.635 690.704 246.216 691.241 245.671 691.612C245.126 691.984 244.474 692.169 243.714 692.169ZM243.714 690.583C244.232 690.583 244.646 690.322 244.955 689.801C245.265 689.279 245.418 688.497 245.415 687.454C245.415 686.767 245.344 686.196 245.203 685.739C245.064 685.283 244.867 684.939 244.611 684.71C244.357 684.48 244.058 684.365 243.714 684.365C243.198 684.365 242.786 684.623 242.476 685.138C242.167 685.654 242.011 686.426 242.008 687.454C242.008 688.149 242.077 688.73 242.215 689.195C242.357 689.658 242.556 690.005 242.812 690.238C243.068 690.468 243.369 690.583 243.714 690.583ZM251.631 694.516V685.182H253.487V686.323H253.571C253.653 686.14 253.773 685.954 253.929 685.766C254.088 685.574 254.294 685.415 254.547 685.289C254.804 685.159 255.122 685.094 255.502 685.094C255.997 685.094 256.454 685.224 256.872 685.483C257.29 685.739 257.625 686.127 257.875 686.645C258.126 687.161 258.251 687.807 258.251 688.585C258.251 689.342 258.129 689.982 257.884 690.503C257.642 691.022 257.312 691.415 256.894 691.683C256.479 691.948 256.013 692.081 255.498 692.081C255.132 692.081 254.821 692.021 254.565 691.9C254.312 691.779 254.104 691.627 253.942 691.445C253.78 691.259 253.656 691.072 253.571 690.883H253.513V694.516H251.631ZM253.474 688.576C253.474 688.98 253.53 689.332 253.641 689.633C253.753 689.933 253.915 690.167 254.128 690.335C254.34 690.5 254.598 690.583 254.901 690.583C255.207 690.583 255.467 690.499 255.679 690.331C255.891 690.16 256.051 689.924 256.16 689.624C256.272 689.32 256.328 688.971 256.328 688.576C256.328 688.185 256.274 687.84 256.165 687.542C256.056 687.245 255.895 687.012 255.683 686.844C255.471 686.676 255.21 686.592 254.901 686.592C254.595 686.592 254.335 686.673 254.123 686.835C253.914 686.997 253.753 687.227 253.641 687.525C253.53 687.822 253.474 688.173 253.474 688.576ZM260.836 685.182L262.082 687.556L263.359 685.182H265.291L263.324 688.576L265.344 691.97H263.421L262.082 689.624L260.765 691.97H258.821L260.836 688.576L258.892 685.182H260.836Z" fill="#828282"/>
<rect x="233.485" y="389.387" width="24.8894" height="280.628" fill="url(#paint4_linear_32_8680)"/>
<path d="M298.503 692.094C297.879 692.094 297.322 691.979 296.833 691.749C296.346 691.52 295.961 691.203 295.675 690.799C295.389 690.396 295.24 689.933 295.228 689.412H297.085C297.105 689.762 297.252 690.047 297.526 690.265C297.8 690.483 298.126 690.592 298.503 690.592C298.804 690.592 299.069 690.525 299.299 690.393C299.531 690.257 299.713 690.07 299.842 689.832C299.975 689.59 300.041 689.313 300.041 689.001C300.041 688.683 299.973 688.403 299.838 688.161C299.705 687.919 299.521 687.731 299.285 687.595C299.05 687.46 298.78 687.391 298.477 687.388C298.211 687.388 297.954 687.442 297.703 687.551C297.456 687.66 297.263 687.809 297.124 687.998L295.423 687.693L295.852 682.92H301.384V684.484H297.429L297.195 686.751H297.248C297.407 686.527 297.647 686.342 297.968 686.194C298.289 686.047 298.649 685.973 299.047 685.973C299.592 685.973 300.078 686.102 300.505 686.358C300.932 686.614 301.27 686.966 301.517 687.414C301.765 687.859 301.887 688.372 301.884 688.952C301.887 689.562 301.745 690.104 301.46 690.578C301.177 691.05 300.78 691.421 300.271 691.692C299.764 691.96 299.175 692.094 298.503 692.094ZM306.692 692.094C306.227 692.091 305.777 692.013 305.344 691.86C304.914 691.707 304.528 691.458 304.186 691.113C303.845 690.768 303.573 690.312 303.373 689.743C303.176 689.175 303.077 688.476 303.077 687.648C303.08 686.888 303.167 686.209 303.338 685.611C303.512 685.01 303.759 684.5 304.08 684.082C304.404 683.664 304.792 683.345 305.242 683.127C305.693 682.907 306.199 682.796 306.758 682.796C307.362 682.796 307.896 682.914 308.358 683.15C308.821 683.382 309.192 683.699 309.472 684.1C309.755 684.5 309.925 684.95 309.984 685.448H308.097C308.024 685.132 307.869 684.885 307.633 684.705C307.398 684.525 307.106 684.436 306.758 684.436C306.169 684.436 305.721 684.692 305.415 685.205C305.111 685.717 304.957 686.414 304.951 687.295H305.013C305.148 687.027 305.331 686.798 305.561 686.61C305.793 686.418 306.057 686.273 306.352 686.172C306.649 686.069 306.963 686.018 307.293 686.018C307.829 686.018 308.307 686.144 308.725 686.398C309.143 686.648 309.473 686.993 309.715 687.432C309.956 687.871 310.077 688.373 310.077 688.939C310.077 689.552 309.934 690.097 309.649 690.574C309.366 691.051 308.969 691.425 308.46 691.696C307.953 691.965 307.364 692.097 306.692 692.094ZM306.683 690.592C306.978 690.592 307.241 690.521 307.474 690.38C307.707 690.238 307.89 690.047 308.022 689.805C308.155 689.563 308.221 689.292 308.221 688.992C308.221 688.691 308.155 688.422 308.022 688.183C307.893 687.944 307.713 687.754 307.483 687.613C307.253 687.472 306.991 687.401 306.696 687.401C306.475 687.401 306.271 687.442 306.082 687.525C305.897 687.607 305.733 687.722 305.592 687.869C305.453 688.017 305.344 688.188 305.265 688.382C305.185 688.574 305.145 688.778 305.145 688.996C305.145 689.288 305.212 689.555 305.344 689.796C305.48 690.038 305.662 690.231 305.892 690.375C306.125 690.519 306.389 690.592 306.683 690.592ZM314.332 694.516V685.182H316.188V686.323H316.272C316.354 686.14 316.474 685.954 316.63 685.766C316.789 685.574 316.995 685.415 317.249 685.289C317.505 685.159 317.823 685.094 318.203 685.094C318.698 685.094 319.155 685.224 319.573 685.483C319.991 685.739 320.326 686.127 320.576 686.645C320.827 687.161 320.952 687.807 320.952 688.585C320.952 689.342 320.83 689.982 320.585 690.503C320.344 691.022 320.014 691.415 319.595 691.683C319.18 691.948 318.714 692.081 318.199 692.081C317.833 692.081 317.523 692.021 317.266 691.9C317.013 691.779 316.805 691.627 316.643 691.445C316.481 691.259 316.357 691.072 316.272 690.883H316.214V694.516H314.332ZM316.175 688.576C316.175 688.98 316.231 689.332 316.343 689.633C316.455 689.933 316.617 690.167 316.829 690.335C317.041 690.5 317.299 690.583 317.602 690.583C317.909 690.583 318.168 690.499 318.38 690.331C318.592 690.16 318.753 689.924 318.862 689.624C318.974 689.32 319.03 688.971 319.03 688.576C319.03 688.185 318.975 687.84 318.866 687.542C318.757 687.245 318.596 687.012 318.384 686.844C318.172 686.676 317.911 686.592 317.602 686.592C317.296 686.592 317.036 686.673 316.824 686.835C316.615 686.997 316.455 687.227 316.343 687.525C316.231 687.822 316.175 688.173 316.175 688.576ZM323.537 685.182L324.783 687.556L326.061 685.182H327.992L326.025 688.576L328.045 691.97H326.123L324.783 689.624L323.467 691.97H321.522L323.537 688.576L321.593 685.182H323.537Z" fill="#828282"/>
<rect x="291.976" y="323.43" width="34.8452" height="346.585" fill="url(#paint5_linear_32_8680)"/>
<path d="M364.003 691.97L367.755 684.546V684.484H363.384V682.92H369.735V684.506L365.978 691.97H364.003ZM371.046 691.97V690.592L374.268 687.609C374.542 687.343 374.771 687.105 374.957 686.893C375.146 686.681 375.288 686.473 375.386 686.27C375.483 686.063 375.532 685.841 375.532 685.602C375.532 685.337 375.471 685.109 375.35 684.917C375.23 684.723 375.065 684.574 374.855 684.471C374.646 684.365 374.409 684.312 374.144 684.312C373.867 684.312 373.625 684.368 373.419 684.48C373.213 684.592 373.054 684.752 372.942 684.961C372.83 685.171 372.774 685.42 372.774 685.708H370.958C370.958 685.116 371.092 684.602 371.36 684.166C371.628 683.73 372.003 683.393 372.487 683.154C372.97 682.915 373.527 682.796 374.157 682.796C374.805 682.796 375.369 682.911 375.85 683.141C376.333 683.368 376.709 683.683 376.977 684.086C377.245 684.49 377.379 684.953 377.379 685.474C377.379 685.816 377.311 686.153 377.175 686.486C377.043 686.819 376.806 687.189 376.464 687.595C376.122 687.999 375.641 688.484 375.019 689.049L373.697 690.344V690.406H377.498V691.97H371.046ZM381.783 694.516V685.182H383.639V686.323H383.723C383.805 686.14 383.924 685.954 384.081 685.766C384.24 685.574 384.446 685.415 384.699 685.289C384.956 685.159 385.274 685.094 385.654 685.094C386.149 685.094 386.605 685.224 387.024 685.483C387.442 685.739 387.777 686.127 388.027 686.645C388.277 687.161 388.403 687.807 388.403 688.585C388.403 689.342 388.28 689.982 388.036 690.503C387.794 691.022 387.464 691.415 387.046 691.683C386.631 691.948 386.165 692.081 385.649 692.081C385.284 692.081 384.973 692.021 384.717 691.9C384.464 691.779 384.256 691.627 384.094 691.445C383.932 691.259 383.808 691.072 383.723 690.883H383.665V694.516H381.783ZM383.625 688.576C383.625 688.98 383.681 689.332 383.793 689.633C383.905 689.933 384.067 690.167 384.279 690.335C384.492 690.5 384.749 690.583 385.053 690.583C385.359 690.583 385.619 690.499 385.831 690.331C386.043 690.16 386.203 689.924 386.312 689.624C386.424 689.32 386.48 688.971 386.48 688.576C386.48 688.185 386.426 687.84 386.317 687.542C386.208 687.245 386.047 687.012 385.835 686.844C385.623 686.676 385.362 686.592 385.053 686.592C384.746 686.592 384.487 686.673 384.275 686.835C384.066 686.997 383.905 687.227 383.793 687.525C383.681 687.822 383.625 688.173 383.625 688.576ZM390.988 685.182L392.234 687.556L393.511 685.182H395.443L393.476 688.576L395.496 691.97H393.573L392.234 689.624L390.917 691.97H388.973L390.988 688.576L389.043 685.182H390.988Z" fill="#828282"/>
<rect x="354.821" y="248.761" width="44.8009" height="421.253" fill="url(#paint6_linear_32_8680)"/>
<path d="M441.689 692.094C441.008 692.094 440.403 691.984 439.873 691.763C439.345 691.539 438.931 691.234 438.631 690.848C438.33 690.462 438.18 690.025 438.18 689.535C438.18 689.158 438.266 688.812 438.436 688.497C438.61 688.179 438.846 687.915 439.144 687.706C439.441 687.494 439.774 687.358 440.142 687.299V687.237C439.659 687.14 439.267 686.906 438.967 686.535C438.666 686.161 438.516 685.726 438.516 685.231C438.516 684.763 438.653 684.346 438.927 683.98C439.201 683.612 439.577 683.323 440.054 683.114C440.534 682.902 441.079 682.796 441.689 682.796C442.299 682.796 442.842 682.902 443.32 683.114C443.8 683.326 444.177 683.617 444.451 683.985C444.725 684.35 444.864 684.766 444.866 685.231C444.864 685.729 444.71 686.164 444.407 686.535C444.103 686.906 443.715 687.14 443.24 687.237V687.299C443.603 687.358 443.931 687.494 444.226 687.706C444.523 687.915 444.759 688.179 444.933 688.497C445.11 688.812 445.199 689.158 445.202 689.535C445.199 690.025 445.048 690.462 444.747 690.848C444.447 691.234 444.031 691.539 443.501 691.763C442.974 691.984 442.37 692.094 441.689 692.094ZM441.689 690.689C441.992 690.689 442.258 690.634 442.485 690.525C442.711 690.413 442.888 690.26 443.015 690.066C443.144 689.868 443.209 689.641 443.209 689.385C443.209 689.123 443.143 688.892 443.01 688.691C442.878 688.488 442.698 688.329 442.471 688.214C442.244 688.096 441.984 688.037 441.689 688.037C441.397 688.037 441.137 688.096 440.907 688.214C440.677 688.329 440.496 688.488 440.363 688.691C440.234 688.892 440.169 689.123 440.169 689.385C440.169 689.641 440.232 689.868 440.359 690.066C440.486 690.26 440.664 690.413 440.894 690.525C441.123 690.634 441.389 690.689 441.689 690.689ZM441.689 686.645C441.942 686.645 442.168 686.594 442.365 686.491C442.563 686.387 442.717 686.245 442.829 686.062C442.941 685.879 442.997 685.669 442.997 685.43C442.997 685.194 442.941 684.988 442.829 684.811C442.717 684.632 442.564 684.492 442.37 684.391C442.175 684.288 441.948 684.237 441.689 684.237C441.433 684.237 441.206 684.288 441.008 684.391C440.811 684.492 440.656 684.632 440.544 684.811C440.435 684.988 440.381 685.194 440.381 685.43C440.381 685.669 440.437 685.879 440.549 686.062C440.661 686.245 440.815 686.387 441.013 686.491C441.21 686.594 441.436 686.645 441.689 686.645ZM450.089 692.169C449.329 692.166 448.675 691.979 448.127 691.608C447.582 691.237 447.162 690.699 446.867 689.995C446.576 689.291 446.431 688.444 446.434 687.454C446.434 686.467 446.58 685.626 446.872 684.931C447.166 684.235 447.586 683.706 448.131 683.344C448.679 682.979 449.332 682.796 450.089 682.796C450.846 682.796 451.497 682.979 452.042 683.344C452.59 683.709 453.012 684.24 453.306 684.935C453.601 685.627 453.747 686.467 453.744 687.454C453.744 688.447 453.596 689.295 453.302 689.999C453.01 690.704 452.592 691.241 452.047 691.612C451.502 691.984 450.849 692.169 450.089 692.169ZM450.089 690.583C450.608 690.583 451.021 690.322 451.331 689.801C451.64 689.279 451.793 688.497 451.79 687.454C451.79 686.767 451.72 686.196 451.578 685.739C451.44 685.283 451.242 684.939 450.986 684.71C450.733 684.48 450.434 684.365 450.089 684.365C449.573 684.365 449.161 684.623 448.852 685.138C448.542 685.654 448.386 686.426 448.383 687.454C448.383 688.149 448.452 688.73 448.591 689.195C448.732 689.658 448.931 690.005 449.187 690.238C449.444 690.468 449.744 690.583 450.089 690.583ZM458.006 694.516V685.182H459.862V686.323H459.946C460.029 686.14 460.148 685.954 460.304 685.766C460.463 685.574 460.669 685.415 460.923 685.289C461.179 685.159 461.497 685.094 461.877 685.094C462.372 685.094 462.829 685.224 463.247 685.483C463.666 685.739 464 686.127 464.251 686.645C464.501 687.161 464.626 687.807 464.626 688.585C464.626 689.342 464.504 689.982 464.259 690.503C464.018 691.022 463.688 691.415 463.269 691.683C462.854 691.948 462.389 692.081 461.873 692.081C461.508 692.081 461.197 692.021 460.941 691.9C460.687 691.779 460.479 691.627 460.317 691.445C460.155 691.259 460.032 691.072 459.946 690.883H459.889V694.516H458.006ZM459.849 688.576C459.849 688.98 459.905 689.332 460.017 689.633C460.129 689.933 460.291 690.167 460.503 690.335C460.715 690.5 460.973 690.583 461.276 690.583C461.583 690.583 461.842 690.499 462.054 690.331C462.266 690.16 462.427 689.924 462.536 689.624C462.648 689.32 462.704 688.971 462.704 688.576C462.704 688.185 462.649 687.84 462.54 687.542C462.431 687.245 462.271 687.012 462.059 686.844C461.846 686.676 461.586 686.592 461.276 686.592C460.97 686.592 460.711 686.673 460.499 686.835C460.289 686.997 460.129 687.227 460.017 687.525C459.905 687.822 459.849 688.173 459.849 688.576ZM467.212 685.182L468.458 687.556L469.735 685.182H471.666L469.7 688.576L471.719 691.97H469.797L468.458 689.624L467.141 691.97H465.196L467.212 688.576L465.267 685.182H467.212Z" fill="#828282"/>
<rect x="427.623" y="172.852" width="49.7788" height="497.166" fill="url(#paint7_linear_32_8680)"/>
<path d="M524.966 682.796C525.432 682.796 525.88 682.874 526.31 683.03C526.743 683.186 527.129 683.435 527.468 683.777C527.809 684.119 528.079 684.573 528.276 685.138C528.477 685.701 528.578 686.392 528.581 687.211C528.581 687.98 528.494 688.666 528.321 689.27C528.15 689.871 527.904 690.382 527.583 690.804C527.261 691.225 526.874 691.546 526.42 691.767C525.967 691.985 525.46 692.094 524.9 692.094C524.296 692.094 523.763 691.978 523.3 691.745C522.838 691.509 522.465 691.19 522.182 690.786C521.902 690.38 521.733 689.923 521.674 689.416H523.561C523.635 689.746 523.789 690.002 524.025 690.185C524.261 690.365 524.552 690.455 524.9 690.455C525.489 690.455 525.937 690.198 526.243 689.686C526.55 689.17 526.705 688.464 526.707 687.569H526.646C526.51 687.834 526.327 688.062 526.098 688.254C525.868 688.442 525.604 688.588 525.307 688.691C525.012 688.794 524.698 688.846 524.365 688.846C523.832 688.846 523.356 688.721 522.938 688.47C522.519 688.22 522.19 687.875 521.948 687.436C521.706 686.997 521.586 686.496 521.586 685.934C521.583 685.327 521.723 684.786 522.005 684.312C522.288 683.838 522.683 683.466 523.19 683.198C523.699 682.927 524.292 682.793 524.966 682.796ZM524.98 684.299C524.682 684.299 524.417 684.369 524.184 684.511C523.954 684.652 523.772 684.842 523.636 685.081C523.504 685.319 523.439 685.586 523.442 685.881C523.442 686.178 523.506 686.446 523.636 686.685C523.769 686.921 523.948 687.109 524.175 687.251C524.405 687.389 524.667 687.458 524.962 687.458C525.183 687.458 525.388 687.417 525.576 687.335C525.765 687.252 525.928 687.139 526.067 686.994C526.208 686.847 526.319 686.678 526.398 686.486C526.478 686.295 526.517 686.091 526.517 685.876C526.515 685.59 526.447 685.328 526.314 685.09C526.182 684.851 525.999 684.659 525.766 684.515C525.533 684.371 525.271 684.299 524.98 684.299ZM533.381 692.094C532.915 692.091 532.466 692.013 532.033 691.86C531.603 691.707 531.217 691.458 530.875 691.113C530.533 690.768 530.262 690.312 530.062 689.743C529.864 689.175 529.766 688.476 529.766 687.648C529.769 686.888 529.855 686.209 530.026 685.611C530.2 685.01 530.448 684.5 530.769 684.082C531.093 683.664 531.48 683.345 531.931 683.127C532.382 682.907 532.887 682.796 533.447 682.796C534.051 682.796 534.584 682.914 535.047 683.15C535.509 683.382 535.88 683.699 536.16 684.1C536.443 684.5 536.614 684.95 536.673 685.448H534.786C534.712 685.132 534.558 684.885 534.322 684.705C534.086 684.525 533.795 684.436 533.447 684.436C532.858 684.436 532.41 684.692 532.103 685.205C531.8 685.717 531.645 686.414 531.639 687.295H531.701C531.837 687.027 532.019 686.798 532.249 686.61C532.482 686.418 532.746 686.273 533.04 686.172C533.338 686.069 533.652 686.018 533.982 686.018C534.518 686.018 534.995 686.144 535.413 686.398C535.832 686.648 536.162 686.993 536.403 687.432C536.645 687.871 536.766 688.373 536.766 688.939C536.766 689.552 536.623 690.097 536.337 690.574C536.054 691.051 535.658 691.425 535.148 691.696C534.642 691.965 534.052 692.097 533.381 692.094ZM533.372 690.592C533.666 690.592 533.93 690.521 534.163 690.38C534.396 690.238 534.578 690.047 534.711 689.805C534.843 689.563 534.91 689.292 534.91 688.992C534.91 688.691 534.843 688.422 534.711 688.183C534.581 687.944 534.401 687.754 534.172 687.613C533.942 687.472 533.68 687.401 533.385 687.401C533.164 687.401 532.959 687.442 532.771 687.525C532.585 687.607 532.422 687.722 532.28 687.869C532.142 688.017 532.033 688.188 531.953 688.382C531.874 688.574 531.834 688.778 531.834 688.996C531.834 689.288 531.9 689.555 532.033 689.796C532.168 690.038 532.351 690.231 532.581 690.375C532.813 690.519 533.077 690.592 533.372 690.592ZM541.02 694.516V685.182H542.877V686.323H542.961C543.043 686.14 543.162 685.954 543.318 685.766C543.478 685.574 543.684 685.415 543.937 685.289C544.193 685.159 544.512 685.094 544.892 685.094C545.387 685.094 545.843 685.224 546.262 685.483C546.68 685.739 547.014 686.127 547.265 686.645C547.515 687.161 547.641 687.807 547.641 688.585C547.641 689.342 547.518 689.982 547.274 690.503C547.032 691.022 546.702 691.415 546.284 691.683C545.868 691.948 545.403 692.081 544.887 692.081C544.522 692.081 544.211 692.021 543.955 691.9C543.701 691.779 543.494 691.627 543.332 691.445C543.17 691.259 543.046 691.072 542.961 690.883H542.903V694.516H541.02ZM542.863 688.576C542.863 688.98 542.919 689.332 543.031 689.633C543.143 689.933 543.305 690.167 543.517 690.335C543.729 690.5 543.987 690.583 544.291 690.583C544.597 690.583 544.856 690.499 545.069 690.331C545.281 690.16 545.441 689.924 545.55 689.624C545.662 689.32 545.718 688.971 545.718 688.576C545.718 688.185 545.664 687.84 545.555 687.542C545.446 687.245 545.285 687.012 545.073 686.844C544.861 686.676 544.6 686.592 544.291 686.592C543.984 686.592 543.725 686.673 543.513 686.835C543.304 686.997 543.143 687.227 543.031 687.525C542.919 687.822 542.863 688.173 542.863 688.576ZM550.226 685.182L551.472 687.556L552.749 685.182H554.68L552.714 688.576L554.733 691.97H552.811L551.472 689.624L550.155 691.97H548.211L550.226 688.576L548.281 685.182H550.226Z" fill="#828282"/>
<rect x="506.024" y="93.8281" width="59.7346" height="576.19" fill="url(#paint8_linear_32_8680)"/>
<path d="M612.741 682.92V691.97H610.828V684.736H610.775L608.702 686.035V684.338L610.943 682.92H612.741ZM614.893 691.97V690.592L618.114 687.609C618.388 687.343 618.618 687.105 618.804 686.893C618.992 686.681 619.135 686.473 619.232 686.27C619.33 686.063 619.378 685.841 619.378 685.602C619.378 685.337 619.318 685.109 619.197 684.917C619.076 684.723 618.911 684.574 618.702 684.471C618.493 684.365 618.256 684.312 617.99 684.312C617.714 684.312 617.472 684.368 617.266 684.48C617.06 684.592 616.9 684.752 616.788 684.961C616.676 685.171 616.621 685.42 616.621 685.708H614.804C614.804 685.116 614.938 684.602 615.206 684.166C615.474 683.73 615.85 683.393 616.333 683.154C616.816 682.915 617.373 682.796 618.004 682.796C618.652 682.796 619.216 682.911 619.696 683.141C620.18 683.368 620.555 683.683 620.823 684.086C621.091 684.49 621.225 684.953 621.225 685.474C621.225 685.816 621.158 686.153 621.022 686.486C620.89 686.819 620.652 687.189 620.311 687.595C619.969 687.999 619.487 688.484 618.866 689.049L617.544 690.344V690.406H621.345V691.97H614.893ZM626.28 692.169C625.52 692.166 624.866 691.979 624.318 691.608C623.773 691.237 623.353 690.699 623.058 689.995C622.767 689.291 622.622 688.444 622.625 687.454C622.625 686.467 622.771 685.626 623.063 684.931C623.357 684.235 623.777 683.706 624.322 683.344C624.87 682.979 625.523 682.796 626.28 682.796C627.037 682.796 627.688 682.979 628.233 683.344C628.781 683.709 629.203 684.24 629.497 684.935C629.792 685.627 629.938 686.467 629.935 687.454C629.935 688.447 629.787 689.295 629.493 689.999C629.201 690.704 628.783 691.241 628.238 691.612C627.693 691.984 627.04 692.169 626.28 692.169ZM626.28 690.583C626.798 690.583 627.212 690.322 627.522 689.801C627.831 689.279 627.984 688.497 627.981 687.454C627.981 686.767 627.911 686.196 627.769 685.739C627.631 685.283 627.433 684.939 627.177 684.71C626.924 684.48 626.625 684.365 626.28 684.365C625.764 684.365 625.352 684.623 625.043 685.138C624.733 685.654 624.577 686.426 624.574 687.454C624.574 688.149 624.643 688.73 624.782 689.195C624.923 689.658 625.122 690.005 625.378 690.238C625.635 690.468 625.935 690.583 626.28 690.583ZM634.197 694.516V685.182H636.053V686.323H636.137C636.22 686.14 636.339 685.954 636.495 685.766C636.654 685.574 636.86 685.415 637.114 685.289C637.37 685.159 637.688 685.094 638.068 685.094C638.563 685.094 639.02 685.224 639.438 685.483C639.857 685.739 640.191 686.127 640.442 686.645C640.692 687.161 640.817 687.807 640.817 688.585C640.817 689.342 640.695 689.982 640.45 690.503C640.209 691.022 639.879 691.415 639.46 691.683C639.045 691.948 638.58 692.081 638.064 692.081C637.699 692.081 637.388 692.021 637.132 691.9C636.878 691.779 636.67 691.627 636.508 691.445C636.346 691.259 636.223 691.072 636.137 690.883H636.08V694.516H634.197ZM636.04 688.576C636.04 688.98 636.096 689.332 636.208 689.633C636.32 689.933 636.482 690.167 636.694 690.335C636.906 690.5 637.164 690.583 637.467 690.583C637.774 690.583 638.033 690.499 638.245 690.331C638.457 690.16 638.618 689.924 638.727 689.624C638.839 689.32 638.895 688.971 638.895 688.576C638.895 688.185 638.84 687.84 638.731 687.542C638.622 687.245 638.462 687.012 638.25 686.844C638.037 686.676 637.777 686.592 637.467 686.592C637.161 686.592 636.902 686.673 636.69 686.835C636.48 686.997 636.32 687.227 636.208 687.525C636.096 687.822 636.04 688.173 636.04 688.576ZM643.402 685.182L644.649 687.556L645.926 685.182H647.857L645.891 688.576L647.91 691.97H645.988L644.649 689.624L643.332 691.97H641.387L643.402 688.576L641.458 685.182H643.402Z" fill="#828282"/>
<rect x="593.76" y="14.182" width="74.6682" height="655.836" fill="url(#paint9_linear_32_8680)"/>
<defs>
<linearGradient id="paint0_linear_32_8680" x1="9.48047" y1="644.639" x2="14.4584" y2="644.64" gradientUnits="userSpaceOnUse">
<stop stop-color="#B990F8"/>
<stop offset="1" stop-color="#9B94F3"/>
</linearGradient>
<linearGradient id="paint1_linear_32_8680" x1="60.5039" y1="618.925" x2="70.4597" y2="618.927" gradientUnits="userSpaceOnUse">
<stop stop-color="#B990F8"/>
<stop offset="1" stop-color="#9B94F3"/>
</linearGradient>
<linearGradient id="paint2_linear_32_8680" x1="117.128" y1="586.106" x2="132.062" y2="586.108" gradientUnits="userSpaceOnUse">
<stop stop-color="#B990F8"/>
<stop offset="1" stop-color="#9B94F3"/>
</linearGradient>
<linearGradient id="paint3_linear_32_8680" x1="174.995" y1="555.317" x2="194.907" y2="555.32" gradientUnits="userSpaceOnUse">
<stop stop-color="#B990F8"/>
<stop offset="1" stop-color="#9B94F3"/>
</linearGradient>
<linearGradient id="paint4_linear_32_8680" x1="233.485" y1="517.423" x2="258.375" y2="517.426" gradientUnits="userSpaceOnUse">
<stop stop-color="#B990F8"/>
<stop offset="1" stop-color="#9B94F3"/>
</linearGradient>
<linearGradient id="paint5_linear_32_8680" x1="291.976" y1="481.559" x2="326.821" y2="481.563" gradientUnits="userSpaceOnUse">
<stop stop-color="#B990F8"/>
<stop offset="1" stop-color="#9B94F3"/>
</linearGradient>
<linearGradient id="paint6_linear_32_8680" x1="354.821" y1="440.958" x2="399.623" y2="440.964" gradientUnits="userSpaceOnUse">
<stop stop-color="#B990F8"/>
<stop offset="1" stop-color="#9B94F3"/>
</linearGradient>
<linearGradient id="paint7_linear_32_8680" x1="427.623" y1="399.684" x2="477.402" y2="399.69" gradientUnits="userSpaceOnUse">
<stop stop-color="#B990F8"/>
<stop offset="1" stop-color="#9B94F3"/>
</linearGradient>
<linearGradient id="paint8_linear_32_8680" x1="506.024" y1="356.715" x2="565.759" y2="356.722" gradientUnits="userSpaceOnUse">
<stop stop-color="#B990F8"/>
<stop offset="1" stop-color="#9B94F3"/>
</linearGradient>
<linearGradient id="paint9_linear_32_8680" x1="593.76" y1="313.407" x2="668.429" y2="313.418" gradientUnits="userSpaceOnUse">
<stop stop-color="#B990F8"/>
<stop offset="1" stop-color="#9B94F3"/>
</linearGradient>
</defs>
</svg>
