<svg width="1358" height="287" viewBox="0 0 1358 287" fill="none" xmlns="http://www.w3.org/2000/svg">
<rect x="1.5" y="1.5" width="1355" height="284" rx="26.5" stroke="black" stroke-width="3"/>
<path d="M44.9141 148.523H62.25V195.609C62.25 199.474 62.7786 202.919 63.8359 205.945C64.8932 208.935 66.4609 211.469 68.5391 213.547C70.6536 215.625 73.2604 217.211 76.3594 218.305C79.4583 219.362 83.0677 219.891 87.1875 219.891C91.2708 219.891 94.862 219.362 97.9609 218.305C101.096 217.211 103.703 215.625 105.781 213.547C107.896 211.469 109.482 208.935 110.539 205.945C111.596 202.919 112.125 199.474 112.125 195.609V148.523H129.461V197.688C129.461 203.302 128.513 208.406 126.617 213C124.721 217.594 121.969 221.531 118.359 224.812C114.75 228.094 110.32 230.628 105.07 232.414C99.8568 234.201 93.8958 235.094 87.1875 235.094C80.4792 235.094 74.5 234.201 69.25 232.414C64.0365 230.628 59.625 228.094 56.0156 224.812C52.4062 221.531 49.6536 217.594 47.7578 213C45.862 208.406 44.9141 203.302 44.9141 197.688V148.523ZM147.156 148.523H164.492L217.757 176.414V148.523H235.093V234H217.757V194.789L164.492 167.062V234H147.156V148.523ZM255.905 148.523H273.241V218.797H322.952V234H255.905V148.523ZM331.404 191.016C331.404 184.562 332.589 178.656 334.959 173.297C337.329 167.938 340.647 163.344 344.912 159.516C349.214 155.651 354.355 152.661 360.334 150.547C366.35 148.432 373.003 147.375 380.295 147.375C387.55 147.375 394.186 148.432 400.201 150.547C406.217 152.661 411.358 155.651 415.623 159.516C419.925 163.344 423.261 167.938 425.631 173.297C428.001 178.656 429.186 184.562 429.186 191.016C429.186 197.505 428.001 203.466 425.631 208.898C423.261 214.294 419.925 218.943 415.623 222.844C411.358 226.745 406.217 229.789 400.201 231.977C394.186 234.128 387.55 235.203 380.295 235.203C373.003 235.203 366.35 234.128 360.334 231.977C354.355 229.789 349.214 226.745 344.912 222.844C340.647 218.943 337.329 214.294 334.959 208.898C332.589 203.466 331.404 197.505 331.404 191.016ZM348.74 191.016C348.74 195.427 349.524 199.401 351.092 202.938C352.696 206.474 354.902 209.5 357.709 212.016C360.553 214.495 363.889 216.409 367.717 217.758C371.581 219.107 375.774 219.781 380.295 219.781C384.816 219.781 388.99 219.107 392.818 217.758C396.683 216.409 400.019 214.495 402.826 212.016C405.634 209.5 407.839 206.474 409.443 202.938C411.048 199.401 411.85 195.427 411.85 191.016C411.85 186.604 411.048 182.648 409.443 179.148C407.839 175.648 405.634 172.695 402.826 170.289C400.019 167.846 396.683 165.987 392.818 164.711C388.99 163.435 384.816 162.797 380.295 162.797C375.774 162.797 371.581 163.435 367.717 164.711C363.889 165.987 360.553 167.846 357.709 170.289C354.902 172.695 352.696 175.648 351.092 179.148C349.524 182.648 348.74 186.604 348.74 191.016ZM439.88 190.742C439.88 184.654 441.029 178.984 443.326 173.734C445.622 168.448 448.94 163.872 453.279 160.008C457.654 156.107 462.977 153.044 469.247 150.82C475.555 148.596 482.682 147.484 490.63 147.484C497.594 147.484 503.974 148.195 509.771 149.617C515.604 151.003 521.018 153.135 526.013 156.016L518.029 169.141C516.534 168.156 514.802 167.281 512.833 166.516C510.901 165.75 508.823 165.112 506.599 164.602C504.412 164.055 502.133 163.635 499.763 163.344C497.43 163.052 495.115 162.906 492.818 162.906C487.276 162.906 482.336 163.599 477.997 164.984C473.659 166.333 469.995 168.247 467.005 170.727C464.052 173.169 461.792 176.104 460.224 179.531C458.693 182.922 457.927 186.659 457.927 190.742C457.927 194.971 458.729 198.854 460.333 202.391C461.938 205.927 464.253 208.99 467.279 211.578C470.341 214.13 474.06 216.135 478.435 217.594C482.846 219.016 487.823 219.727 493.365 219.727C495.88 219.727 498.378 219.544 500.857 219.18C503.336 218.815 505.724 218.323 508.021 217.703C510.354 217.047 512.596 216.281 514.747 215.406C516.899 214.495 518.904 213.51 520.763 212.453L528.747 225.578C524.081 228.568 518.685 230.919 512.56 232.633C506.435 234.31 499.927 235.148 493.037 235.148C484.25 235.148 476.539 234.018 469.904 231.758C463.268 229.461 457.727 226.326 453.279 222.352C448.831 218.341 445.477 213.638 443.216 208.242C440.992 202.81 439.88 196.977 439.88 190.742ZM544.528 148.523H561.864V192.766L606.981 148.523H629.184L587.075 189.32L629.184 234H606.106L574.606 201.406L561.864 213.711V234H544.528V148.523ZM634.356 148.523H707.145V163.727H651.692V180.789H700.801V195.062H651.692V218.852H708.293V234H634.356V148.523ZM724.183 148.523H755.519C764.67 148.523 772.618 149.508 779.363 151.477C786.108 153.445 791.686 156.271 796.097 159.953C800.545 163.599 803.845 168.047 805.996 173.297C808.183 178.51 809.277 184.38 809.277 190.906C809.277 197.104 808.201 202.846 806.05 208.133C803.899 213.383 800.618 217.94 796.207 221.805C791.795 225.633 786.217 228.641 779.472 230.828C772.727 232.979 764.779 234.055 755.628 234.055L724.183 234V148.523ZM759.785 219.016C764.962 219.016 769.501 218.359 773.402 217.047C777.303 215.698 780.548 213.802 783.136 211.359C785.761 208.917 787.73 205.964 789.042 202.5C790.355 199.036 791.011 195.172 791.011 190.906C791.011 186.714 790.355 182.94 789.042 179.586C787.73 176.195 785.761 173.333 783.136 171C780.548 168.63 777.303 166.807 773.402 165.531C769.501 164.255 764.962 163.617 759.785 163.617H741.519V219.016H759.785Z" fill="#1E1E1E"/>
<path d="M969.526 171.49V184H967.474V175.432L963.658 184H962.236L958.402 175.432V184H956.35V171.49H958.564L962.956 181.3L967.33 171.49H969.526ZM977.929 184.126C976.765 184.126 975.691 183.856 974.707 183.316C973.735 182.764 972.961 182.002 972.385 181.03C971.821 180.046 971.539 178.942 971.539 177.718C971.539 176.494 971.821 175.396 972.385 174.424C972.961 173.452 973.735 172.696 974.707 172.156C975.691 171.604 976.765 171.328 977.929 171.328C979.105 171.328 980.179 171.604 981.151 172.156C982.135 172.696 982.909 173.452 983.473 174.424C984.037 175.396 984.319 176.494 984.319 177.718C984.319 178.942 984.037 180.046 983.473 181.03C982.909 182.002 982.135 182.764 981.151 183.316C980.179 183.856 979.105 184.126 977.929 184.126ZM977.929 182.344C978.757 182.344 979.495 182.158 980.143 181.786C980.791 181.402 981.295 180.862 981.655 180.166C982.027 179.458 982.213 178.642 982.213 177.718C982.213 176.794 982.027 175.984 981.655 175.288C981.295 174.592 980.791 174.058 980.143 173.686C979.495 173.314 978.757 173.128 977.929 173.128C977.101 173.128 976.363 173.314 975.715 173.686C975.067 174.058 974.557 174.592 974.185 175.288C973.825 175.984 973.645 176.794 973.645 177.718C973.645 178.642 973.825 179.458 974.185 180.166C974.557 180.862 975.067 181.402 975.715 181.786C976.363 182.158 977.101 182.344 977.929 182.344ZM990.424 171.49C991.756 171.49 992.92 171.748 993.916 172.264C994.924 172.768 995.698 173.5 996.238 174.46C996.79 175.408 997.066 176.518 997.066 177.79C997.066 179.062 996.79 180.166 996.238 181.102C995.698 182.038 994.924 182.758 993.916 183.262C992.92 183.754 991.756 184 990.424 184H986.338V171.49H990.424ZM990.424 182.326C991.888 182.326 993.01 181.93 993.79 181.138C994.57 180.346 994.96 179.23 994.96 177.79C994.96 176.338 994.57 175.204 993.79 174.388C993.01 173.572 991.888 173.164 990.424 173.164H988.39V182.326H990.424ZM1001.15 173.146V176.818H1005.47V178.492H1001.15V182.326H1006.01V184H999.1V171.472H1006.01V173.146H1001.15ZM1015.04 184L1012.16 178.996H1010.59V184H1008.54V171.49H1012.86C1013.82 171.49 1014.63 171.658 1015.29 171.994C1015.96 172.33 1016.46 172.78 1016.78 173.344C1017.12 173.908 1017.29 174.538 1017.29 175.234C1017.29 176.05 1017.05 176.794 1016.57 177.466C1016.1 178.126 1015.37 178.576 1014.39 178.816L1017.49 184H1015.04ZM1010.59 177.358H1012.86C1013.63 177.358 1014.2 177.166 1014.59 176.782C1014.98 176.398 1015.18 175.882 1015.18 175.234C1015.18 174.586 1014.99 174.082 1014.61 173.722C1014.22 173.35 1013.64 173.164 1012.86 173.164H1010.59V177.358ZM1030.19 184H1028.14L1021.96 174.658V184H1019.91V171.472H1021.96L1028.14 180.796V171.472H1030.19V184ZM1047.84 184H1045.79L1039.61 174.658V184H1037.56V171.472H1039.61L1045.79 180.796V171.472H1047.84V184ZM1052.59 173.146V176.818H1056.91V178.492H1052.59V182.326H1057.45V184H1050.53V171.472H1057.45V173.146H1052.59ZM1068.06 171.49V173.164H1064.73V184H1062.67V173.164H1059.33V171.49H1068.06ZM1086.42 171.49L1082.72 184H1080.39L1077.77 174.532L1074.98 184L1072.67 184.018L1069.13 171.49H1071.3L1073.9 181.678L1076.7 171.49H1079.01L1081.62 181.624L1084.23 171.49H1086.42ZM1093.82 184.126C1092.66 184.126 1091.58 183.856 1090.6 183.316C1089.63 182.764 1088.85 182.002 1088.28 181.03C1087.71 180.046 1087.43 178.942 1087.43 177.718C1087.43 176.494 1087.71 175.396 1088.28 174.424C1088.85 173.452 1089.63 172.696 1090.6 172.156C1091.58 171.604 1092.66 171.328 1093.82 171.328C1095 171.328 1096.07 171.604 1097.04 172.156C1098.03 172.696 1098.8 173.452 1099.37 174.424C1099.93 175.396 1100.21 176.494 1100.21 177.718C1100.21 178.942 1099.93 180.046 1099.37 181.03C1098.8 182.002 1098.03 182.764 1097.04 183.316C1096.07 183.856 1095 184.126 1093.82 184.126ZM1093.82 182.344C1094.65 182.344 1095.39 182.158 1096.04 181.786C1096.68 181.402 1097.19 180.862 1097.55 180.166C1097.92 179.458 1098.11 178.642 1098.11 177.718C1098.11 176.794 1097.92 175.984 1097.55 175.288C1097.19 174.592 1096.68 174.058 1096.04 173.686C1095.39 173.314 1094.65 173.128 1093.82 173.128C1092.99 173.128 1092.26 173.314 1091.61 173.686C1090.96 174.058 1090.45 174.592 1090.08 175.288C1089.72 175.984 1089.54 176.794 1089.54 177.718C1089.54 178.642 1089.72 179.458 1090.08 180.166C1090.45 180.862 1090.96 181.402 1091.61 181.786C1092.26 182.158 1092.99 182.344 1093.82 182.344ZM1108.73 184L1105.85 178.996H1104.28V184H1102.23V171.49H1106.55C1107.51 171.49 1108.32 171.658 1108.98 171.994C1109.65 172.33 1110.15 172.78 1110.47 173.344C1110.81 173.908 1110.98 174.538 1110.98 175.234C1110.98 176.05 1110.74 176.794 1110.26 177.466C1109.79 178.126 1109.06 178.576 1108.08 178.816L1111.18 184H1108.73ZM1104.28 177.358H1106.55C1107.32 177.358 1107.89 177.166 1108.28 176.782C1108.67 176.398 1108.87 175.882 1108.87 175.234C1108.87 174.586 1108.68 174.082 1108.3 173.722C1107.91 173.35 1107.33 173.164 1106.55 173.164H1104.28V177.358ZM1120.5 184L1115.66 178.402V184H1113.6V171.49H1115.66V177.196L1120.52 171.49H1123.09L1117.65 177.754L1123.18 184H1120.5ZM1138.42 175.216C1138.42 175.852 1138.27 176.452 1137.97 177.016C1137.67 177.58 1137.19 178.042 1136.53 178.402C1135.87 178.75 1135.02 178.924 1133.99 178.924H1131.72V184H1129.67V171.49H1133.99C1134.95 171.49 1135.76 171.658 1136.42 171.994C1137.09 172.318 1137.59 172.762 1137.91 173.326C1138.25 173.89 1138.42 174.52 1138.42 175.216ZM1133.99 177.25C1134.77 177.25 1135.35 177.076 1135.74 176.728C1136.12 176.368 1136.31 175.864 1136.31 175.216C1136.31 173.848 1135.54 173.164 1133.99 173.164H1131.72V177.25H1133.99ZM1146.87 184L1143.99 178.996H1142.43V184H1140.38V171.49H1144.7C1145.66 171.49 1146.47 171.658 1147.13 171.994C1147.8 172.33 1148.3 172.78 1148.62 173.344C1148.96 173.908 1149.12 174.538 1149.12 175.234C1149.12 176.05 1148.88 176.794 1148.4 177.466C1147.94 178.126 1147.21 178.576 1146.23 178.816L1149.32 184H1146.87ZM1142.43 177.358H1144.7C1145.46 177.358 1146.04 177.166 1146.42 176.782C1146.82 176.398 1147.02 175.882 1147.02 175.234C1147.02 174.586 1146.83 174.082 1146.44 173.722C1146.06 173.35 1145.48 173.164 1144.7 173.164H1142.43V177.358ZM1157.45 184.126C1156.29 184.126 1155.22 183.856 1154.23 183.316C1153.26 182.764 1152.49 182.002 1151.91 181.03C1151.35 180.046 1151.06 178.942 1151.06 177.718C1151.06 176.494 1151.35 175.396 1151.91 174.424C1152.49 173.452 1153.26 172.696 1154.23 172.156C1155.22 171.604 1156.29 171.328 1157.45 171.328C1158.63 171.328 1159.7 171.604 1160.68 172.156C1161.66 172.696 1162.43 173.452 1163 174.424C1163.56 175.396 1163.84 176.494 1163.84 177.718C1163.84 178.942 1163.56 180.046 1163 181.03C1162.43 182.002 1161.66 182.764 1160.68 183.316C1159.7 183.856 1158.63 184.126 1157.45 184.126ZM1157.45 182.344C1158.28 182.344 1159.02 182.158 1159.67 181.786C1160.32 181.402 1160.82 180.862 1161.18 180.166C1161.55 179.458 1161.74 178.642 1161.74 177.718C1161.74 176.794 1161.55 175.984 1161.18 175.288C1160.82 174.592 1160.32 174.058 1159.67 173.686C1159.02 173.314 1158.28 173.128 1157.45 173.128C1156.63 173.128 1155.89 173.314 1155.24 173.686C1154.59 174.058 1154.08 174.592 1153.71 175.288C1153.35 175.984 1153.17 176.794 1153.17 177.718C1153.17 178.642 1153.35 179.458 1153.71 180.166C1154.08 180.862 1154.59 181.402 1155.24 181.786C1155.89 182.158 1156.63 182.344 1157.45 182.344ZM1174.92 175.09C1174.59 174.466 1174.14 173.998 1173.57 173.686C1172.99 173.362 1172.33 173.2 1171.57 173.2C1170.74 173.2 1170 173.386 1169.36 173.758C1168.71 174.13 1168.2 174.658 1167.83 175.342C1167.47 176.026 1167.29 176.818 1167.29 177.718C1167.29 178.618 1167.47 179.416 1167.83 180.112C1168.2 180.796 1168.71 181.324 1169.36 181.696C1170 182.068 1170.74 182.254 1171.57 182.254C1172.69 182.254 1173.59 181.942 1174.29 181.318C1174.98 180.694 1175.41 179.848 1175.57 178.78H1170.87V177.142H1177.76V178.744C1177.63 179.716 1177.28 180.61 1176.72 181.426C1176.17 182.242 1175.44 182.896 1174.54 183.388C1173.65 183.868 1172.66 184.108 1171.57 184.108C1170.39 184.108 1169.32 183.838 1168.35 183.298C1167.38 182.746 1166.6 181.984 1166.03 181.012C1165.46 180.04 1165.18 178.942 1165.18 177.718C1165.18 176.494 1165.46 175.396 1166.03 174.424C1166.6 173.452 1167.38 172.696 1168.35 172.156C1169.33 171.604 1170.41 171.328 1171.57 171.328C1172.9 171.328 1174.08 171.658 1175.12 172.318C1176.16 172.966 1176.92 173.89 1177.38 175.09H1174.92ZM1186.28 184L1183.4 178.996H1181.84V184H1179.79V171.49H1184.11C1185.07 171.49 1185.88 171.658 1186.54 171.994C1187.21 172.33 1187.71 172.78 1188.03 173.344C1188.37 173.908 1188.53 174.538 1188.53 175.234C1188.53 176.05 1188.29 176.794 1187.81 177.466C1187.35 178.126 1186.62 178.576 1185.64 178.816L1188.73 184H1186.28ZM1181.84 177.358H1184.11C1184.87 177.358 1185.45 177.166 1185.83 176.782C1186.23 176.398 1186.43 175.882 1186.43 175.234C1186.43 174.586 1186.24 174.082 1185.85 173.722C1185.47 173.35 1184.89 173.164 1184.11 173.164H1181.84V177.358ZM1198.7 181.444H1193.46L1192.56 184H1190.42L1194.9 171.472H1197.28L1201.76 184H1199.6L1198.7 181.444ZM1198.12 179.77L1196.09 173.956L1194.04 179.77H1198.12ZM1216.89 171.49V184H1214.83V175.432L1211.02 184H1209.6L1205.76 175.432V184H1203.71V171.49H1205.92L1210.32 181.3L1214.69 171.49H1216.89ZM1232.76 171.49V184H1230.71V175.432L1226.89 184H1225.47L1221.63 175.432V184H1219.58V171.49H1221.8L1226.19 181.3L1230.56 171.49H1232.76ZM1237.51 171.49V184H1235.46V171.49H1237.51ZM1250.48 184H1248.43L1242.25 174.658V184H1240.2V171.472H1242.25L1248.43 180.796V171.472H1250.48V184ZM1262.23 175.09C1261.9 174.466 1261.45 173.998 1260.88 173.686C1260.3 173.362 1259.64 173.2 1258.88 173.2C1258.05 173.2 1257.31 173.386 1256.67 173.758C1256.02 174.13 1255.51 174.658 1255.14 175.342C1254.78 176.026 1254.6 176.818 1254.6 177.718C1254.6 178.618 1254.78 179.416 1255.14 180.112C1255.51 180.796 1256.02 181.324 1256.67 181.696C1257.31 182.068 1258.05 182.254 1258.88 182.254C1260 182.254 1260.9 181.942 1261.6 181.318C1262.29 180.694 1262.72 179.848 1262.88 178.78H1258.18V177.142H1265.07V178.744C1264.94 179.716 1264.59 180.61 1264.03 181.426C1263.48 182.242 1262.75 182.896 1261.85 183.388C1260.96 183.868 1259.97 184.108 1258.88 184.108C1257.7 184.108 1256.63 183.838 1255.66 183.298C1254.69 182.746 1253.91 181.984 1253.34 181.012C1252.77 180.04 1252.49 178.942 1252.49 177.718C1252.49 176.494 1252.77 175.396 1253.34 174.424C1253.91 173.452 1254.69 172.696 1255.66 172.156C1256.64 171.604 1257.72 171.328 1258.88 171.328C1260.21 171.328 1261.39 171.658 1262.43 172.318C1263.47 172.966 1264.23 173.89 1264.69 175.09H1262.23ZM960.472 209.126C959.632 209.126 958.876 208.982 958.204 208.694C957.532 208.394 957.004 207.974 956.62 207.434C956.236 206.894 956.044 206.264 956.044 205.544H958.24C958.288 206.084 958.498 206.528 958.87 206.876C959.254 207.224 959.788 207.398 960.472 207.398C961.18 207.398 961.732 207.23 962.128 206.894C962.524 206.546 962.722 206.102 962.722 205.562C962.722 205.142 962.596 204.8 962.344 204.536C962.104 204.272 961.798 204.068 961.426 203.924C961.066 203.78 960.562 203.624 959.914 203.456C959.098 203.24 958.432 203.024 957.916 202.808C957.412 202.58 956.98 202.232 956.62 201.764C956.26 201.296 956.08 200.672 956.08 199.892C956.08 199.172 956.26 198.542 956.62 198.002C956.98 197.462 957.484 197.048 958.132 196.76C958.78 196.472 959.53 196.328 960.382 196.328C961.594 196.328 962.584 196.634 963.352 197.246C964.132 197.846 964.564 198.674 964.648 199.73H962.38C962.344 199.274 962.128 198.884 961.732 198.56C961.336 198.236 960.814 198.074 960.166 198.074C959.578 198.074 959.098 198.224 958.726 198.524C958.354 198.824 958.168 199.256 958.168 199.82C958.168 200.204 958.282 200.522 958.51 200.774C958.75 201.014 959.05 201.206 959.41 201.35C959.77 201.494 960.262 201.65 960.886 201.818C961.714 202.046 962.386 202.274 962.902 202.502C963.43 202.73 963.874 203.084 964.234 203.564C964.606 204.032 964.792 204.662 964.792 205.454C964.792 206.09 964.618 206.69 964.27 207.254C963.934 207.818 963.436 208.274 962.776 208.622C962.128 208.958 961.36 209.126 960.472 209.126ZM975.295 196.49V198.164H971.965V209H969.913V198.164H966.565V196.49H975.295ZM984.915 206.444H979.677L978.777 209H976.635L981.117 196.472H983.493L987.975 209H985.815L984.915 206.444ZM984.339 204.77L982.305 198.956L980.253 204.77H984.339ZM1000.2 209H998.15L991.976 199.658V209H989.924V196.472H991.976L998.15 205.796V196.472H1000.2V209ZM1006.98 196.49C1008.31 196.49 1009.48 196.748 1010.47 197.264C1011.48 197.768 1012.26 198.5 1012.8 199.46C1013.35 200.408 1013.62 201.518 1013.62 202.79C1013.62 204.062 1013.35 205.166 1012.8 206.102C1012.26 207.038 1011.48 207.758 1010.47 208.262C1009.48 208.754 1008.31 209 1006.98 209H1002.9V196.49H1006.98ZM1006.98 207.326C1008.45 207.326 1009.57 206.93 1010.35 206.138C1011.13 205.346 1011.52 204.23 1011.52 202.79C1011.52 201.338 1011.13 200.204 1010.35 199.388C1009.57 198.572 1008.45 198.164 1006.98 198.164H1004.95V207.326H1006.98ZM1023.2 206.444H1017.96L1017.06 209H1014.92L1019.4 196.472H1021.78L1026.26 209H1024.1L1023.2 206.444ZM1022.62 204.77L1020.59 198.956L1018.54 204.77H1022.62ZM1034.71 209L1031.83 203.996H1030.26V209H1028.21V196.49H1032.53C1033.49 196.49 1034.3 196.658 1034.96 196.994C1035.63 197.33 1036.13 197.78 1036.45 198.344C1036.79 198.908 1036.96 199.538 1036.96 200.234C1036.96 201.05 1036.72 201.794 1036.24 202.466C1035.77 203.126 1035.04 203.576 1034.06 203.816L1037.16 209H1034.71ZM1030.26 202.358H1032.53C1033.3 202.358 1033.87 202.166 1034.26 201.782C1034.65 201.398 1034.85 200.882 1034.85 200.234C1034.85 199.586 1034.66 199.082 1034.28 198.722C1033.89 198.35 1033.31 198.164 1032.53 198.164H1030.26V202.358ZM1043.67 196.49C1045 196.49 1046.16 196.748 1047.16 197.264C1048.17 197.768 1048.94 198.5 1049.48 199.46C1050.03 200.408 1050.31 201.518 1050.31 202.79C1050.31 204.062 1050.03 205.166 1049.48 206.102C1048.94 207.038 1048.17 207.758 1047.16 208.262C1046.16 208.754 1045 209 1043.67 209H1039.58V196.49H1043.67ZM1043.67 207.326C1045.13 207.326 1046.25 206.93 1047.03 206.138C1047.81 205.346 1048.2 204.23 1048.2 202.79C1048.2 201.338 1047.81 200.204 1047.03 199.388C1046.25 198.572 1045.13 198.164 1043.67 198.164H1041.63V207.326H1043.67ZM1063.72 202.574C1064.39 202.694 1064.96 203.048 1065.43 203.636C1065.89 204.224 1066.13 204.89 1066.13 205.634C1066.13 206.27 1065.96 206.846 1065.62 207.362C1065.3 207.866 1064.83 208.268 1064.2 208.568C1063.58 208.856 1062.85 209 1062.02 209H1057.02V196.49H1061.79C1062.64 196.49 1063.37 196.634 1063.99 196.922C1064.6 197.21 1065.06 197.6 1065.37 198.092C1065.68 198.572 1065.84 199.112 1065.84 199.712C1065.84 200.432 1065.65 201.032 1065.26 201.512C1064.88 201.992 1064.36 202.346 1063.72 202.574ZM1059.07 201.746H1061.61C1062.28 201.746 1062.8 201.596 1063.18 201.296C1063.56 200.984 1063.75 200.54 1063.75 199.964C1063.75 199.4 1063.56 198.962 1063.18 198.65C1062.8 198.326 1062.28 198.164 1061.61 198.164H1059.07V201.746ZM1061.84 207.326C1062.54 207.326 1063.09 207.158 1063.48 206.822C1063.88 206.486 1064.08 206.018 1064.08 205.418C1064.08 204.806 1063.87 204.32 1063.45 203.96C1063.03 203.6 1062.47 203.42 1061.77 203.42H1059.07V207.326H1061.84ZM1075.9 206.444H1070.66L1069.76 209H1067.62L1072.1 196.472H1074.48L1078.96 209H1076.8L1075.9 206.444ZM1075.32 204.77L1073.29 198.956L1071.24 204.77H1075.32ZM1085.03 209.126C1084.19 209.126 1083.43 208.982 1082.76 208.694C1082.09 208.394 1081.56 207.974 1081.18 207.434C1080.79 206.894 1080.6 206.264 1080.6 205.544H1082.8C1082.85 206.084 1083.06 206.528 1083.43 206.876C1083.81 207.224 1084.35 207.398 1085.03 207.398C1085.74 207.398 1086.29 207.23 1086.69 206.894C1087.08 206.546 1087.28 206.102 1087.28 205.562C1087.28 205.142 1087.15 204.8 1086.9 204.536C1086.66 204.272 1086.36 204.068 1085.98 203.924C1085.62 203.78 1085.12 203.624 1084.47 203.456C1083.66 203.24 1082.99 203.024 1082.47 202.808C1081.97 202.58 1081.54 202.232 1081.18 201.764C1080.82 201.296 1080.64 200.672 1080.64 199.892C1080.64 199.172 1080.82 198.542 1081.18 198.002C1081.54 197.462 1082.04 197.048 1082.69 196.76C1083.34 196.472 1084.09 196.328 1084.94 196.328C1086.15 196.328 1087.14 196.634 1087.91 197.246C1088.69 197.846 1089.12 198.674 1089.21 199.73H1086.94C1086.9 199.274 1086.69 198.884 1086.29 198.56C1085.89 198.236 1085.37 198.074 1084.72 198.074C1084.14 198.074 1083.66 198.224 1083.28 198.524C1082.91 198.824 1082.73 199.256 1082.73 199.82C1082.73 200.204 1082.84 200.522 1083.07 200.774C1083.31 201.014 1083.61 201.206 1083.97 201.35C1084.33 201.494 1084.82 201.65 1085.44 201.818C1086.27 202.046 1086.94 202.274 1087.46 202.502C1087.99 202.73 1088.43 203.084 1088.79 203.564C1089.16 204.032 1089.35 204.662 1089.35 205.454C1089.35 206.09 1089.18 206.69 1088.83 207.254C1088.49 207.818 1087.99 208.274 1087.33 208.622C1086.69 208.958 1085.92 209.126 1085.03 209.126ZM1093.82 198.146V201.818H1098.14V203.492H1093.82V207.326H1098.68V209H1091.77V196.472H1098.68V198.146H1093.82ZM1105.3 196.49C1106.63 196.49 1107.79 196.748 1108.79 197.264C1109.8 197.768 1110.57 198.5 1111.11 199.46C1111.66 200.408 1111.94 201.518 1111.94 202.79C1111.94 204.062 1111.66 205.166 1111.11 206.102C1110.57 207.038 1109.8 207.758 1108.79 208.262C1107.79 208.754 1106.63 209 1105.3 209H1101.21V196.49H1105.3ZM1105.3 207.326C1106.76 207.326 1107.88 206.93 1108.66 206.138C1109.44 205.346 1109.83 204.23 1109.83 202.79C1109.83 201.338 1109.44 200.204 1108.66 199.388C1107.88 198.572 1106.76 198.164 1105.3 198.164H1103.26V207.326H1105.3ZM1124.35 209.126C1123.19 209.126 1122.12 208.856 1121.13 208.316C1120.16 207.764 1119.39 207.002 1118.81 206.03C1118.25 205.046 1117.96 203.942 1117.96 202.718C1117.96 201.494 1118.25 200.396 1118.81 199.424C1119.39 198.452 1120.16 197.696 1121.13 197.156C1122.12 196.604 1123.19 196.328 1124.35 196.328C1125.53 196.328 1126.6 196.604 1127.58 197.156C1128.56 197.696 1129.33 198.452 1129.9 199.424C1130.46 200.396 1130.74 201.494 1130.74 202.718C1130.74 203.942 1130.46 205.046 1129.9 206.03C1129.33 207.002 1128.56 207.764 1127.58 208.316C1126.6 208.856 1125.53 209.126 1124.35 209.126ZM1124.35 207.344C1125.18 207.344 1125.92 207.158 1126.57 206.786C1127.22 206.402 1127.72 205.862 1128.08 205.166C1128.45 204.458 1128.64 203.642 1128.64 202.718C1128.64 201.794 1128.45 200.984 1128.08 200.288C1127.72 199.592 1127.22 199.058 1126.57 198.686C1125.92 198.314 1125.18 198.128 1124.35 198.128C1123.53 198.128 1122.79 198.314 1122.14 198.686C1121.49 199.058 1120.98 199.592 1120.61 200.288C1120.25 200.984 1120.07 201.794 1120.07 202.718C1120.07 203.642 1120.25 204.458 1120.61 205.166C1120.98 205.862 1121.49 206.402 1122.14 206.786C1122.79 207.158 1123.53 207.344 1124.35 207.344ZM1143.04 209H1140.99L1134.82 199.658V209H1132.76V196.472H1134.82L1140.99 205.796V196.472H1143.04V209ZM1158.49 196.49V198.164H1155.16V209H1153.11V198.164H1149.76V196.49H1158.49ZM1170.56 196.49V209H1168.51V203.528H1162.62V209H1160.57V196.49H1162.62V201.854H1168.51V196.49H1170.56ZM1175.32 198.146V201.818H1179.64V203.492H1175.32V207.326H1180.18V209H1173.26V196.472H1180.18V198.146H1175.32ZM1189.41 196.49V204.464C1189.41 205.412 1189.66 206.126 1190.15 206.606C1190.66 207.086 1191.35 207.326 1192.24 207.326C1193.14 207.326 1193.84 207.086 1194.33 206.606C1194.83 206.126 1195.08 205.412 1195.08 204.464V196.49H1197.14V204.428C1197.14 205.448 1196.91 206.312 1196.47 207.02C1196.03 207.728 1195.43 208.256 1194.69 208.604C1193.94 208.952 1193.12 209.126 1192.22 209.126C1191.32 209.126 1190.5 208.952 1189.76 208.604C1189.02 208.256 1188.44 207.728 1188.01 207.02C1187.58 206.312 1187.36 205.448 1187.36 204.428V196.49H1189.41ZM1210.09 209H1208.03L1201.86 199.658V209H1199.81V196.472H1201.86L1208.03 205.796V196.472H1210.09V209ZM1214.83 196.49V209H1212.78V196.49H1214.83ZM1228.31 196.49L1223.61 209H1221.23L1216.52 196.49H1218.71L1222.42 206.894L1226.15 196.49H1228.31ZM1232.08 198.146V201.818H1236.4V203.492H1232.08V207.326H1236.94V209H1230.02V196.472H1236.94V198.146H1232.08ZM1245.96 209L1243.08 203.996H1241.52V209H1239.46V196.49H1243.78C1244.74 196.49 1245.55 196.658 1246.21 196.994C1246.89 197.33 1247.38 197.78 1247.71 198.344C1248.04 198.908 1248.21 199.538 1248.21 200.234C1248.21 201.05 1247.97 201.794 1247.49 202.466C1247.02 203.126 1246.3 203.576 1245.31 203.816L1248.41 209H1245.96ZM1241.52 202.358H1243.78C1244.55 202.358 1245.13 202.166 1245.51 201.782C1245.91 201.398 1246.11 200.882 1246.11 200.234C1246.11 199.586 1245.91 199.082 1245.53 198.722C1245.15 198.35 1244.56 198.164 1243.78 198.164H1241.52V202.358ZM1254.96 209.126C1254.12 209.126 1253.36 208.982 1252.69 208.694C1252.02 208.394 1251.49 207.974 1251.11 207.434C1250.72 206.894 1250.53 206.264 1250.53 205.544H1252.73C1252.77 206.084 1252.98 206.528 1253.36 206.876C1253.74 207.224 1254.27 207.398 1254.96 207.398C1255.67 207.398 1256.22 207.23 1256.61 206.894C1257.01 206.546 1257.21 206.102 1257.21 205.562C1257.21 205.142 1257.08 204.8 1256.83 204.536C1256.59 204.272 1256.28 204.068 1255.91 203.924C1255.55 203.78 1255.05 203.624 1254.4 203.456C1253.58 203.24 1252.92 203.024 1252.4 202.808C1251.9 202.58 1251.47 202.232 1251.11 201.764C1250.75 201.296 1250.57 200.672 1250.57 199.892C1250.57 199.172 1250.75 198.542 1251.11 198.002C1251.47 197.462 1251.97 197.048 1252.62 196.76C1253.27 196.472 1254.02 196.328 1254.87 196.328C1256.08 196.328 1257.07 196.634 1257.84 197.246C1258.62 197.846 1259.05 198.674 1259.13 199.73H1256.87C1256.83 199.274 1256.61 198.884 1256.22 198.56C1255.82 198.236 1255.3 198.074 1254.65 198.074C1254.06 198.074 1253.58 198.224 1253.21 198.524C1252.84 198.824 1252.65 199.256 1252.65 199.82C1252.65 200.204 1252.77 200.522 1253 200.774C1253.24 201.014 1253.54 201.206 1253.9 201.35C1254.26 201.494 1254.75 201.65 1255.37 201.818C1256.2 202.046 1256.87 202.274 1257.39 202.502C1257.92 202.73 1258.36 203.084 1258.72 203.564C1259.09 204.032 1259.28 204.662 1259.28 205.454C1259.28 206.09 1259.1 206.69 1258.76 207.254C1258.42 207.818 1257.92 208.274 1257.26 208.622C1256.61 208.958 1255.85 209.126 1254.96 209.126ZM1263.75 198.146V201.818H1268.07V203.492H1263.75V207.326H1268.61V209H1261.7V196.472H1268.61V198.146H1263.75ZM1283.36 206.444H1278.12L1277.22 209H1275.08L1279.56 196.472H1281.93L1286.42 209H1284.26L1283.36 206.444ZM1282.78 204.77L1280.75 198.956L1278.69 204.77H1282.78ZM1298.64 209H1296.59L1290.42 199.658V209H1288.37V196.472H1290.42L1296.59 205.796V196.472H1298.64V209ZM1305.42 196.49C1306.76 196.49 1307.92 196.748 1308.92 197.264C1309.92 197.768 1310.7 198.5 1311.24 199.46C1311.79 200.408 1312.07 201.518 1312.07 202.79C1312.07 204.062 1311.79 205.166 1311.24 206.102C1310.7 207.038 1309.92 207.758 1308.92 208.262C1307.92 208.754 1306.76 209 1305.42 209H1301.34V196.49H1305.42ZM1305.42 207.326C1306.89 207.326 1308.01 206.93 1308.79 206.138C1309.57 205.346 1309.96 204.23 1309.96 202.79C1309.96 201.338 1309.57 200.204 1308.79 199.388C1308.01 198.572 1306.89 198.164 1305.42 198.164H1303.39V207.326H1305.42ZM965.404 225.09C965.08 224.466 964.63 223.998 964.054 223.686C963.478 223.362 962.812 223.2 962.056 223.2C961.228 223.2 960.49 223.386 959.842 223.758C959.194 224.13 958.684 224.658 958.312 225.342C957.952 226.026 957.772 226.818 957.772 227.718C957.772 228.618 957.952 229.416 958.312 230.112C958.684 230.796 959.194 231.324 959.842 231.696C960.49 232.068 961.228 232.254 962.056 232.254C963.172 232.254 964.078 231.942 964.774 231.318C965.47 230.694 965.896 229.848 966.052 228.78H961.354V227.142H968.248V228.744C968.116 229.716 967.768 230.61 967.204 231.426C966.652 232.242 965.926 232.896 965.026 233.388C964.138 233.868 963.148 234.108 962.056 234.108C960.88 234.108 959.806 233.838 958.834 233.298C957.862 232.746 957.088 231.984 956.512 231.012C955.948 230.04 955.666 228.942 955.666 227.718C955.666 226.494 955.948 225.396 956.512 224.424C957.088 223.452 957.862 222.696 958.834 222.156C959.818 221.604 960.892 221.328 962.056 221.328C963.388 221.328 964.57 221.658 965.602 222.318C966.646 222.966 967.402 223.89 967.87 225.09H965.404ZM972.324 232.344H976.554V234H970.272V221.49H972.324V232.344ZM983.976 234.126C982.812 234.126 981.738 233.856 980.754 233.316C979.782 232.764 979.008 232.002 978.432 231.03C977.868 230.046 977.586 228.942 977.586 227.718C977.586 226.494 977.868 225.396 978.432 224.424C979.008 223.452 979.782 222.696 980.754 222.156C981.738 221.604 982.812 221.328 983.976 221.328C985.152 221.328 986.226 221.604 987.198 222.156C988.182 222.696 988.956 223.452 989.52 224.424C990.084 225.396 990.366 226.494 990.366 227.718C990.366 228.942 990.084 230.046 989.52 231.03C988.956 232.002 988.182 232.764 987.198 233.316C986.226 233.856 985.152 234.126 983.976 234.126ZM983.976 232.344C984.804 232.344 985.542 232.158 986.19 231.786C986.838 231.402 987.342 230.862 987.702 230.166C988.074 229.458 988.26 228.642 988.26 227.718C988.26 226.794 988.074 225.984 987.702 225.288C987.342 224.592 986.838 224.058 986.19 223.686C985.542 223.314 984.804 223.128 983.976 223.128C983.148 223.128 982.41 223.314 981.762 223.686C981.114 224.058 980.604 224.592 980.232 225.288C979.872 225.984 979.692 226.794 979.692 227.718C979.692 228.642 979.872 229.458 980.232 230.166C980.604 230.862 981.114 231.402 981.762 231.786C982.41 232.158 983.148 232.344 983.976 232.344ZM999.081 227.574C999.753 227.694 1000.32 228.048 1000.79 228.636C1001.26 229.224 1001.49 229.89 1001.49 230.634C1001.49 231.27 1001.33 231.846 1000.99 232.362C1000.67 232.866 1000.19 233.268 999.567 233.568C998.943 233.856 998.217 234 997.389 234H992.385V221.49H997.155C998.007 221.49 998.739 221.634 999.351 221.922C999.963 222.21 1000.43 222.6 1000.74 223.092C1001.05 223.572 1001.21 224.112 1001.21 224.712C1001.21 225.432 1001.01 226.032 1000.63 226.512C1000.25 226.992 999.729 227.346 999.081 227.574ZM994.437 226.746H996.975C997.647 226.746 998.169 226.596 998.541 226.296C998.925 225.984 999.117 225.54 999.117 224.964C999.117 224.4 998.925 223.962 998.541 223.65C998.169 223.326 997.647 223.164 996.975 223.164H994.437V226.746ZM997.209 232.326C997.905 232.326 998.451 232.158 998.847 231.822C999.243 231.486 999.441 231.018 999.441 230.418C999.441 229.806 999.231 229.32 998.811 228.96C998.391 228.6 997.833 228.42 997.137 228.42H994.437V232.326H997.209ZM1011.27 231.444H1006.03L1005.13 234H1002.99L1007.47 221.472H1009.84L1014.33 234H1012.17L1011.27 231.444ZM1010.69 229.77L1008.66 223.956L1006.6 229.77H1010.69ZM1018.33 232.344H1022.56V234H1016.27V221.49H1018.33V232.344ZM1028.26 227.718C1028.26 226.494 1028.55 225.396 1029.11 224.424C1029.69 223.452 1030.46 222.696 1031.43 222.156C1032.42 221.604 1033.49 221.328 1034.65 221.328C1035.99 221.328 1037.17 221.658 1038.2 222.318C1039.24 222.966 1040 223.89 1040.47 225.09H1038C1037.68 224.43 1037.23 223.938 1036.65 223.614C1036.08 223.29 1035.41 223.128 1034.65 223.128C1033.83 223.128 1033.09 223.314 1032.44 223.686C1031.79 224.058 1031.28 224.592 1030.91 225.288C1030.55 225.984 1030.37 226.794 1030.37 227.718C1030.37 228.642 1030.55 229.452 1030.91 230.148C1031.28 230.844 1031.79 231.384 1032.44 231.768C1033.09 232.14 1033.83 232.326 1034.65 232.326C1035.41 232.326 1036.08 232.164 1036.65 231.84C1037.23 231.516 1037.68 231.024 1038 230.364H1040.47C1040 231.564 1039.24 232.488 1038.2 233.136C1037.17 233.784 1035.99 234.108 1034.65 234.108C1033.48 234.108 1032.4 233.838 1031.43 233.298C1030.46 232.746 1029.69 231.984 1029.11 231.012C1028.55 230.04 1028.26 228.942 1028.26 227.718ZM1048.58 234.126C1047.41 234.126 1046.34 233.856 1045.35 233.316C1044.38 232.764 1043.61 232.002 1043.03 231.03C1042.47 230.046 1042.19 228.942 1042.19 227.718C1042.19 226.494 1042.47 225.396 1043.03 224.424C1043.61 223.452 1044.38 222.696 1045.35 222.156C1046.34 221.604 1047.41 221.328 1048.58 221.328C1049.75 221.328 1050.83 221.604 1051.8 222.156C1052.78 222.696 1053.56 223.452 1054.12 224.424C1054.68 225.396 1054.97 226.494 1054.97 227.718C1054.97 228.942 1054.68 230.046 1054.12 231.03C1053.56 232.002 1052.78 232.764 1051.8 233.316C1050.83 233.856 1049.75 234.126 1048.58 234.126ZM1048.58 232.344C1049.4 232.344 1050.14 232.158 1050.79 231.786C1051.44 231.402 1051.94 230.862 1052.3 230.166C1052.67 229.458 1052.86 228.642 1052.86 227.718C1052.86 226.794 1052.67 225.984 1052.3 225.288C1051.94 224.592 1051.44 224.058 1050.79 223.686C1050.14 223.314 1049.4 223.128 1048.58 223.128C1047.75 223.128 1047.01 223.314 1046.36 223.686C1045.71 224.058 1045.2 224.592 1044.83 225.288C1044.47 225.984 1044.29 226.794 1044.29 227.718C1044.29 228.642 1044.47 229.458 1044.83 230.166C1045.2 230.862 1045.71 231.402 1046.36 231.786C1047.01 232.158 1047.75 232.344 1048.58 232.344ZM1067.26 234H1065.21L1059.04 224.658V234H1056.98V221.472H1059.04L1065.21 230.796V221.472H1067.26V234ZM1080.24 234H1078.18L1072.01 224.658V234H1069.96V221.472H1072.01L1078.18 230.796V221.472H1080.24V234ZM1084.98 223.146V226.818H1089.3V228.492H1084.98V232.326H1089.84V234H1082.93V221.472H1089.84V223.146H1084.98ZM1091.69 227.718C1091.69 226.494 1091.97 225.396 1092.53 224.424C1093.11 223.452 1093.88 222.696 1094.85 222.156C1095.84 221.604 1096.91 221.328 1098.08 221.328C1099.41 221.328 1100.59 221.658 1101.62 222.318C1102.67 222.966 1103.42 223.89 1103.89 225.09H1101.42C1101.1 224.43 1100.65 223.938 1100.07 223.614C1099.5 223.29 1098.83 223.128 1098.08 223.128C1097.25 223.128 1096.51 223.314 1095.86 223.686C1095.21 224.058 1094.7 224.592 1094.33 225.288C1093.97 225.984 1093.79 226.794 1093.79 227.718C1093.79 228.642 1093.97 229.452 1094.33 230.148C1094.7 230.844 1095.21 231.384 1095.86 231.768C1096.51 232.14 1097.25 232.326 1098.08 232.326C1098.83 232.326 1099.5 232.164 1100.07 231.84C1100.65 231.516 1101.1 231.024 1101.42 230.364H1103.89C1103.42 231.564 1102.67 232.488 1101.62 233.136C1100.59 233.784 1099.41 234.108 1098.08 234.108C1096.9 234.108 1095.83 233.838 1094.85 233.298C1093.88 232.746 1093.11 231.984 1092.53 231.012C1091.97 230.04 1091.69 228.942 1091.69 227.718ZM1114.37 221.49V223.164H1111.04V234H1108.99V223.164H1105.64V221.49H1114.37ZM1118.5 221.49V234H1116.45V221.49H1118.5ZM1126.9 234.126C1125.74 234.126 1124.67 233.856 1123.68 233.316C1122.71 232.764 1121.94 232.002 1121.36 231.03C1120.8 230.046 1120.51 228.942 1120.51 227.718C1120.51 226.494 1120.8 225.396 1121.36 224.424C1121.94 223.452 1122.71 222.696 1123.68 222.156C1124.67 221.604 1125.74 221.328 1126.9 221.328C1128.08 221.328 1129.15 221.604 1130.13 222.156C1131.11 222.696 1131.88 223.452 1132.45 224.424C1133.01 225.396 1133.29 226.494 1133.29 227.718C1133.29 228.942 1133.01 230.046 1132.45 231.03C1131.88 232.002 1131.11 232.764 1130.13 233.316C1129.15 233.856 1128.08 234.126 1126.9 234.126ZM1126.9 232.344C1127.73 232.344 1128.47 232.158 1129.12 231.786C1129.77 231.402 1130.27 230.862 1130.63 230.166C1131 229.458 1131.19 228.642 1131.19 227.718C1131.19 226.794 1131 225.984 1130.63 225.288C1130.27 224.592 1129.77 224.058 1129.12 223.686C1128.47 223.314 1127.73 223.128 1126.9 223.128C1126.08 223.128 1125.34 223.314 1124.69 223.686C1124.04 224.058 1123.53 224.592 1123.16 225.288C1122.8 225.984 1122.62 226.794 1122.62 227.718C1122.62 228.642 1122.8 229.458 1123.16 230.166C1123.53 230.862 1124.04 231.402 1124.69 231.786C1125.34 232.158 1126.08 232.344 1126.9 232.344ZM1145.59 234H1143.54L1137.36 224.658V234H1135.31V221.472H1137.36L1143.54 230.796V221.472H1145.59V234ZM1152.41 234.126C1151.57 234.126 1150.81 233.982 1150.14 233.694C1149.47 233.394 1148.94 232.974 1148.56 232.434C1148.17 231.894 1147.98 231.264 1147.98 230.544H1150.18C1150.22 231.084 1150.43 231.528 1150.81 231.876C1151.19 232.224 1151.72 232.398 1152.41 232.398C1153.12 232.398 1153.67 232.23 1154.06 231.894C1154.46 231.546 1154.66 231.102 1154.66 230.562C1154.66 230.142 1154.53 229.8 1154.28 229.536C1154.04 229.272 1153.73 229.068 1153.36 228.924C1153 228.78 1152.5 228.624 1151.85 228.456C1151.03 228.24 1150.37 228.024 1149.85 227.808C1149.35 227.58 1148.92 227.232 1148.56 226.764C1148.2 226.296 1148.02 225.672 1148.02 224.892C1148.02 224.172 1148.2 223.542 1148.56 223.002C1148.92 222.462 1149.42 222.048 1150.07 221.76C1150.72 221.472 1151.47 221.328 1152.32 221.328C1153.53 221.328 1154.52 221.634 1155.29 222.246C1156.07 222.846 1156.5 223.674 1156.58 224.73H1154.32C1154.28 224.274 1154.06 223.884 1153.67 223.56C1153.27 223.236 1152.75 223.074 1152.1 223.074C1151.51 223.074 1151.03 223.224 1150.66 223.524C1150.29 223.824 1150.1 224.256 1150.1 224.82C1150.1 225.204 1150.22 225.522 1150.45 225.774C1150.69 226.014 1150.99 226.206 1151.35 226.35C1151.71 226.494 1152.2 226.65 1152.82 226.818C1153.65 227.046 1154.32 227.274 1154.84 227.502C1155.37 227.73 1155.81 228.084 1156.17 228.564C1156.54 229.032 1156.73 229.662 1156.73 230.454C1156.73 231.09 1156.55 231.69 1156.21 232.254C1155.87 232.818 1155.37 233.274 1154.71 233.622C1154.06 233.958 1153.3 234.126 1152.41 234.126ZM1159.98 234.126C1159.6 234.126 1159.29 234 1159.04 233.748C1158.79 233.496 1158.66 233.184 1158.66 232.812C1158.66 232.44 1158.79 232.128 1159.04 231.876C1159.29 231.624 1159.6 231.498 1159.98 231.498C1160.34 231.498 1160.64 231.624 1160.89 231.876C1161.15 232.128 1161.27 232.44 1161.27 232.812C1161.27 233.184 1161.15 233.496 1160.89 233.748C1160.64 234 1160.34 234.126 1159.98 234.126ZM1175.78 226.62V228.348H1168.38V226.62H1175.78ZM1186.31 226.62V228.348H1178.91V226.62H1186.31ZM1196.84 226.62V228.348H1189.44V226.62H1196.84Z" fill="#646464"/>
</svg>
