<svg width="910" height="54" viewBox="0 0 910 54" fill="none" xmlns="http://www.w3.org/2000/svg">
<rect x="0.5" y="0.5" width="799" height="53" rx="5.5" fill="white"/>
<rect x="0.5" y="0.5" width="799" height="53" rx="5.5" stroke="#E5E5EA"/>
<rect x="24" y="12" width="157" height="30" rx="4" fill="#F7F7FA"/>
<path d="M37.5 33.196C38.55 33.196 39.306 32.636 40.02 31.81H40.048L40.16 33H41.21V25.398H39.936V30.802C39.222 31.698 38.662 32.076 37.892 32.076C36.884 32.076 36.45 31.474 36.45 30.06V25.398H35.176V30.214C35.176 32.16 35.904 33.196 37.5 33.196ZM45.7799 33.196C47.5719 33.196 48.5379 32.174 48.5379 30.928C48.5379 29.486 47.3339 29.038 46.2279 28.618C45.3599 28.31 44.5899 28.03 44.5899 27.302C44.5899 26.714 45.0239 26.21 45.9899 26.21C46.6619 26.21 47.2079 26.504 47.7259 26.882L48.3419 26.07C47.7539 25.594 46.9139 25.216 45.9759 25.216C44.3239 25.216 43.3579 26.154 43.3579 27.358C43.3579 28.66 44.5199 29.164 45.5699 29.57C46.4099 29.878 47.3199 30.228 47.3199 30.998C47.3199 31.67 46.8159 32.202 45.8079 32.202C44.8979 32.202 44.2259 31.824 43.5679 31.292L42.9379 32.146C43.6519 32.734 44.7019 33.196 45.7799 33.196ZM53.4067 33.196C54.4427 33.196 55.2407 32.846 55.9127 32.412L55.4507 31.558C54.8907 31.936 54.2887 32.174 53.5607 32.174C52.1047 32.174 51.1247 31.124 51.0267 29.514H56.1507C56.1927 29.318 56.2067 29.052 56.2067 28.786C56.2067 26.602 55.1147 25.216 53.1827 25.216C51.4327 25.216 49.7667 26.742 49.7667 29.22C49.7667 31.712 51.3767 33.196 53.4067 33.196ZM51.0127 28.59C51.1807 27.092 52.1327 26.238 53.1967 26.238C54.4007 26.238 55.0867 27.064 55.0867 28.59H51.0127ZM58.0927 33H59.3667V28.128C59.8707 26.826 60.6547 26.364 61.2847 26.364C61.5927 26.364 61.7607 26.406 62.0267 26.49L62.2647 25.37C62.0127 25.258 61.7887 25.216 61.4527 25.216C60.5987 25.216 59.8147 25.818 59.2967 26.784H59.2547L59.1287 25.398H58.0927V33ZM63.4644 33H69.0924V31.936H67.0204V23.032H66.0404C65.4944 23.354 64.8364 23.592 63.9124 23.76V24.586H65.7464V31.936H63.4644V33ZM76.284 35.436C77.376 35.436 78.342 35.17 79.266 34.638L78.916 33.868C78.216 34.274 77.334 34.568 76.382 34.568C73.722 34.568 71.72 32.832 71.72 29.78C71.72 26.126 74.422 23.76 77.208 23.76C80.05 23.76 81.534 25.594 81.534 28.128C81.534 30.158 80.414 31.362 79.434 31.362C78.566 31.362 78.272 30.774 78.58 29.528L79.196 26.406H78.342L78.174 27.036H78.146C77.852 26.518 77.418 26.28 76.886 26.28C75.066 26.28 73.876 28.24 73.876 29.906C73.876 31.32 74.702 32.118 75.766 32.118C76.452 32.118 77.152 31.642 77.67 31.054H77.698C77.796 31.838 78.454 32.23 79.322 32.23C80.736 32.23 82.444 30.816 82.444 28.086C82.444 24.992 80.456 22.892 77.306 22.892C73.82 22.892 70.782 25.636 70.782 29.822C70.782 33.476 73.232 35.436 76.284 35.436ZM76.004 31.236C75.374 31.236 74.898 30.844 74.898 29.836C74.898 28.646 75.668 27.176 76.9 27.176C77.334 27.176 77.614 27.344 77.908 27.82L77.46 30.312C76.914 30.97 76.438 31.236 76.004 31.236ZM87.6001 33.196C88.6361 33.196 89.4341 32.846 90.1061 32.412L89.6441 31.558C89.0841 31.936 88.4821 32.174 87.7541 32.174C86.2981 32.174 85.3181 31.124 85.2201 29.514H90.3441C90.3861 29.318 90.4001 29.052 90.4001 28.786C90.4001 26.602 89.3081 25.216 87.3761 25.216C85.6261 25.216 83.9601 26.742 83.9601 29.22C83.9601 31.712 85.5701 33.196 87.6001 33.196ZM85.2061 28.59C85.3741 27.092 86.3261 26.238 87.3901 26.238C88.5941 26.238 89.2801 27.064 89.2801 28.59H85.2061ZM92.286 33H93.56V27.484C94.246 26.714 94.89 26.322 95.464 26.322C96.444 26.322 96.892 26.924 96.892 28.352V33H98.166V27.484C98.88 26.714 99.482 26.322 100.07 26.322C101.05 26.322 101.498 26.924 101.498 28.352V33H102.772V28.184C102.772 26.252 102.016 25.216 100.462 25.216C99.538 25.216 98.74 25.818 97.942 26.658C97.648 25.762 97.018 25.216 95.856 25.216C94.946 25.216 94.148 25.79 93.49 26.504H93.448L93.322 25.398H92.286V33ZM106.997 33.196C107.935 33.196 108.789 32.706 109.503 32.104H109.559L109.671 33H110.721V28.338C110.721 26.448 109.937 25.216 108.075 25.216C106.857 25.216 105.793 25.748 105.093 26.196L105.597 27.092C106.185 26.686 106.983 26.266 107.879 26.266C109.125 26.266 109.433 27.204 109.433 28.184C106.199 28.548 104.771 29.374 104.771 31.026C104.771 32.398 105.723 33.196 106.997 33.196ZM107.347 32.16C106.605 32.16 106.017 31.81 106.017 30.942C106.017 29.962 106.871 29.332 109.433 29.038V31.152C108.705 31.81 108.089 32.16 107.347 32.16ZM113.136 33H114.41V25.398H113.136V33ZM113.78 23.83C114.27 23.83 114.634 23.508 114.634 22.976C114.634 22.486 114.27 22.164 113.78 22.164C113.276 22.164 112.926 22.486 112.926 22.976C112.926 23.508 113.276 23.83 113.78 23.83ZM118.335 33.196C118.685 33.196 118.881 33.14 119.063 33.084L118.895 32.104C118.741 32.132 118.685 32.132 118.629 32.132C118.433 32.132 118.265 31.978 118.265 31.572V21.87H116.991V31.488C116.991 32.58 117.369 33.196 118.335 33.196ZM121.614 33.196C122.132 33.196 122.552 32.79 122.552 32.216C122.552 31.628 122.132 31.236 121.614 31.236C121.11 31.236 120.704 31.628 120.704 32.216C120.704 32.79 121.11 33.196 121.614 33.196ZM127.629 33.196C128.539 33.196 129.421 32.832 130.093 32.23L129.547 31.376C129.071 31.796 128.441 32.132 127.755 32.132C126.355 32.132 125.389 30.956 125.389 29.22C125.389 27.456 126.397 26.28 127.797 26.28C128.385 26.28 128.861 26.546 129.309 26.952L129.953 26.112C129.421 25.622 128.721 25.216 127.727 25.216C125.781 25.216 124.073 26.672 124.073 29.22C124.073 31.726 125.613 33.196 127.629 33.196ZM134.369 33.196C136.231 33.196 137.883 31.726 137.883 29.22C137.883 26.672 136.231 25.216 134.369 25.216C132.493 25.216 130.841 26.672 130.841 29.22C130.841 31.726 132.493 33.196 134.369 33.196ZM134.369 32.132C133.039 32.132 132.157 30.956 132.157 29.22C132.157 27.456 133.039 26.28 134.369 26.28C135.685 26.28 136.567 27.456 136.567 29.22C136.567 30.956 135.685 32.132 134.369 32.132ZM139.905 33H141.179V27.484C141.865 26.714 142.509 26.322 143.083 26.322C144.063 26.322 144.511 26.924 144.511 28.352V33H145.785V27.484C146.499 26.714 147.101 26.322 147.689 26.322C148.669 26.322 149.117 26.924 149.117 28.352V33H150.391V28.184C150.391 26.252 149.635 25.216 148.081 25.216C147.157 25.216 146.359 25.818 145.561 26.658C145.267 25.762 144.637 25.216 143.475 25.216C142.565 25.216 141.767 25.79 141.109 26.504H141.067L140.941 25.398H139.905V33Z" fill="#575757"/>
<path d="M159.436 21.8275L159.497 21.8781L164 26.3814L168.503 21.8781C168.674 21.7073 168.951 21.7073 169.122 21.8781C169.274 22.03 169.291 22.2658 169.172 22.4363L169.122 22.4969L164.619 27L169.122 31.5031C169.293 31.674 169.293 31.951 169.122 32.1219C168.97 32.2737 168.734 32.2906 168.564 32.1725L168.503 32.1219L164 27.6186L159.497 32.1219C159.326 32.2927 159.049 32.2927 158.878 32.1219C158.726 31.97 158.709 31.7342 158.828 31.5637L158.878 31.5031L163.381 27L158.878 22.4969C158.707 22.326 158.707 22.049 158.878 21.8781C159.03 21.7263 159.266 21.7094 159.436 21.8275Z" fill="#575757"/>
<rect x="189" y="12" width="157" height="30" rx="4" fill="#F7F7FA"/>
<path d="M202.5 33.196C203.55 33.196 204.306 32.636 205.02 31.81H205.048L205.16 33H206.21V25.398H204.936V30.802C204.222 31.698 203.662 32.076 202.892 32.076C201.884 32.076 201.45 31.474 201.45 30.06V25.398H200.176V30.214C200.176 32.16 200.904 33.196 202.5 33.196ZM210.78 33.196C212.572 33.196 213.538 32.174 213.538 30.928C213.538 29.486 212.334 29.038 211.228 28.618C210.36 28.31 209.59 28.03 209.59 27.302C209.59 26.714 210.024 26.21 210.99 26.21C211.662 26.21 212.208 26.504 212.726 26.882L213.342 26.07C212.754 25.594 211.914 25.216 210.976 25.216C209.324 25.216 208.358 26.154 208.358 27.358C208.358 28.66 209.52 29.164 210.57 29.57C211.41 29.878 212.32 30.228 212.32 30.998C212.32 31.67 211.816 32.202 210.808 32.202C209.898 32.202 209.226 31.824 208.568 31.292L207.938 32.146C208.652 32.734 209.702 33.196 210.78 33.196ZM218.407 33.196C219.443 33.196 220.241 32.846 220.913 32.412L220.451 31.558C219.891 31.936 219.289 32.174 218.561 32.174C217.105 32.174 216.125 31.124 216.027 29.514H221.151C221.193 29.318 221.207 29.052 221.207 28.786C221.207 26.602 220.115 25.216 218.183 25.216C216.433 25.216 214.767 26.742 214.767 29.22C214.767 31.712 216.377 33.196 218.407 33.196ZM216.013 28.59C216.181 27.092 217.133 26.238 218.197 26.238C219.401 26.238 220.087 27.064 220.087 28.59H216.013ZM223.093 33H224.367V28.128C224.871 26.826 225.655 26.364 226.285 26.364C226.593 26.364 226.761 26.406 227.027 26.49L227.265 25.37C227.013 25.258 226.789 25.216 226.453 25.216C225.599 25.216 224.815 25.818 224.297 26.784H224.255L224.129 25.398H223.093V33ZM227.848 33H234.288V31.908H231.39C230.872 31.908 230.242 31.95 229.71 32.006C232.076 29.514 233.798 27.652 233.798 25.776C233.798 23.998 232.65 22.85 230.816 22.85C229.514 22.85 228.618 23.438 227.778 24.348L228.52 25.076C229.094 24.404 229.822 23.872 230.662 23.872C231.936 23.872 232.538 24.684 232.538 25.818C232.538 27.456 230.858 29.262 227.848 32.258V33ZM241.284 35.436C242.376 35.436 243.342 35.17 244.266 34.638L243.916 33.868C243.216 34.274 242.334 34.568 241.382 34.568C238.722 34.568 236.72 32.832 236.72 29.78C236.72 26.126 239.422 23.76 242.208 23.76C245.05 23.76 246.534 25.594 246.534 28.128C246.534 30.158 245.414 31.362 244.434 31.362C243.566 31.362 243.272 30.774 243.58 29.528L244.196 26.406H243.342L243.174 27.036H243.146C242.852 26.518 242.418 26.28 241.886 26.28C240.066 26.28 238.876 28.24 238.876 29.906C238.876 31.32 239.702 32.118 240.766 32.118C241.452 32.118 242.152 31.642 242.67 31.054H242.698C242.796 31.838 243.454 32.23 244.322 32.23C245.736 32.23 247.444 30.816 247.444 28.086C247.444 24.992 245.456 22.892 242.306 22.892C238.82 22.892 235.782 25.636 235.782 29.822C235.782 33.476 238.232 35.436 241.284 35.436ZM241.004 31.236C240.374 31.236 239.898 30.844 239.898 29.836C239.898 28.646 240.668 27.176 241.9 27.176C242.334 27.176 242.614 27.344 242.908 27.82L242.46 30.312C241.914 30.97 241.438 31.236 241.004 31.236ZM252.6 33.196C253.636 33.196 254.434 32.846 255.106 32.412L254.644 31.558C254.084 31.936 253.482 32.174 252.754 32.174C251.298 32.174 250.318 31.124 250.22 29.514H255.344C255.386 29.318 255.4 29.052 255.4 28.786C255.4 26.602 254.308 25.216 252.376 25.216C250.626 25.216 248.96 26.742 248.96 29.22C248.96 31.712 250.57 33.196 252.6 33.196ZM250.206 28.59C250.374 27.092 251.326 26.238 252.39 26.238C253.594 26.238 254.28 27.064 254.28 28.59H250.206ZM257.286 33H258.56V27.484C259.246 26.714 259.89 26.322 260.464 26.322C261.444 26.322 261.892 26.924 261.892 28.352V33H263.166V27.484C263.88 26.714 264.482 26.322 265.07 26.322C266.05 26.322 266.498 26.924 266.498 28.352V33H267.772V28.184C267.772 26.252 267.016 25.216 265.462 25.216C264.538 25.216 263.74 25.818 262.942 26.658C262.648 25.762 262.018 25.216 260.856 25.216C259.946 25.216 259.148 25.79 258.49 26.504H258.448L258.322 25.398H257.286V33ZM271.997 33.196C272.935 33.196 273.789 32.706 274.503 32.104H274.559L274.671 33H275.721V28.338C275.721 26.448 274.937 25.216 273.075 25.216C271.857 25.216 270.793 25.748 270.093 26.196L270.597 27.092C271.185 26.686 271.983 26.266 272.879 26.266C274.125 26.266 274.433 27.204 274.433 28.184C271.199 28.548 269.771 29.374 269.771 31.026C269.771 32.398 270.723 33.196 271.997 33.196ZM272.347 32.16C271.605 32.16 271.017 31.81 271.017 30.942C271.017 29.962 271.871 29.332 274.433 29.038V31.152C273.705 31.81 273.089 32.16 272.347 32.16ZM278.136 33H279.41V25.398H278.136V33ZM278.78 23.83C279.27 23.83 279.634 23.508 279.634 22.976C279.634 22.486 279.27 22.164 278.78 22.164C278.276 22.164 277.926 22.486 277.926 22.976C277.926 23.508 278.276 23.83 278.78 23.83ZM283.335 33.196C283.685 33.196 283.881 33.14 284.063 33.084L283.895 32.104C283.741 32.132 283.685 32.132 283.629 32.132C283.433 32.132 283.265 31.978 283.265 31.572V21.87H281.991V31.488C281.991 32.58 282.369 33.196 283.335 33.196ZM286.614 33.196C287.132 33.196 287.552 32.79 287.552 32.216C287.552 31.628 287.132 31.236 286.614 31.236C286.11 31.236 285.704 31.628 285.704 32.216C285.704 32.79 286.11 33.196 286.614 33.196ZM292.629 33.196C293.539 33.196 294.421 32.832 295.093 32.23L294.547 31.376C294.071 31.796 293.441 32.132 292.755 32.132C291.355 32.132 290.389 30.956 290.389 29.22C290.389 27.456 291.397 26.28 292.797 26.28C293.385 26.28 293.861 26.546 294.309 26.952L294.953 26.112C294.421 25.622 293.721 25.216 292.727 25.216C290.781 25.216 289.073 26.672 289.073 29.22C289.073 31.726 290.613 33.196 292.629 33.196ZM299.369 33.196C301.231 33.196 302.883 31.726 302.883 29.22C302.883 26.672 301.231 25.216 299.369 25.216C297.493 25.216 295.841 26.672 295.841 29.22C295.841 31.726 297.493 33.196 299.369 33.196ZM299.369 32.132C298.039 32.132 297.157 30.956 297.157 29.22C297.157 27.456 298.039 26.28 299.369 26.28C300.685 26.28 301.567 27.456 301.567 29.22C301.567 30.956 300.685 32.132 299.369 32.132ZM304.905 33H306.179V27.484C306.865 26.714 307.509 26.322 308.083 26.322C309.063 26.322 309.511 26.924 309.511 28.352V33H310.785V27.484C311.499 26.714 312.101 26.322 312.689 26.322C313.669 26.322 314.117 26.924 314.117 28.352V33H315.391V28.184C315.391 26.252 314.635 25.216 313.081 25.216C312.157 25.216 311.359 25.818 310.561 26.658C310.267 25.762 309.637 25.216 308.475 25.216C307.565 25.216 306.767 25.79 306.109 26.504H306.067L305.941 25.398H304.905V33Z" fill="#575757"/>
<path d="M324.436 21.8275L324.497 21.8781L329 26.3814L333.503 21.8781C333.674 21.7073 333.951 21.7073 334.122 21.8781C334.274 22.03 334.291 22.2658 334.172 22.4363L334.122 22.4969L329.619 27L334.122 31.5031C334.293 31.674 334.293 31.951 334.122 32.1219C333.97 32.2737 333.734 32.2906 333.564 32.1725L333.503 32.1219L329 27.6186L324.497 32.1219C324.326 32.2927 324.049 32.2927 323.878 32.1219C323.726 31.97 323.709 31.7342 323.828 31.5637L323.878 31.5031L328.381 27L323.878 22.4969C323.707 22.326 323.707 22.049 323.878 21.8781C324.03 21.7263 324.266 21.7094 324.436 21.8275Z" fill="#575757"/>
<rect x="354" y="12" width="157" height="30" rx="4" fill="#F7F7FA"/>
<path d="M367.5 33.196C368.55 33.196 369.306 32.636 370.02 31.81H370.048L370.16 33H371.21V25.398H369.936V30.802C369.222 31.698 368.662 32.076 367.892 32.076C366.884 32.076 366.45 31.474 366.45 30.06V25.398H365.176V30.214C365.176 32.16 365.904 33.196 367.5 33.196ZM375.78 33.196C377.572 33.196 378.538 32.174 378.538 30.928C378.538 29.486 377.334 29.038 376.228 28.618C375.36 28.31 374.59 28.03 374.59 27.302C374.59 26.714 375.024 26.21 375.99 26.21C376.662 26.21 377.208 26.504 377.726 26.882L378.342 26.07C377.754 25.594 376.914 25.216 375.976 25.216C374.324 25.216 373.358 26.154 373.358 27.358C373.358 28.66 374.52 29.164 375.57 29.57C376.41 29.878 377.32 30.228 377.32 30.998C377.32 31.67 376.816 32.202 375.808 32.202C374.898 32.202 374.226 31.824 373.568 31.292L372.938 32.146C373.652 32.734 374.702 33.196 375.78 33.196ZM383.407 33.196C384.443 33.196 385.241 32.846 385.913 32.412L385.451 31.558C384.891 31.936 384.289 32.174 383.561 32.174C382.105 32.174 381.125 31.124 381.027 29.514H386.151C386.193 29.318 386.207 29.052 386.207 28.786C386.207 26.602 385.115 25.216 383.183 25.216C381.433 25.216 379.767 26.742 379.767 29.22C379.767 31.712 381.377 33.196 383.407 33.196ZM381.013 28.59C381.181 27.092 382.133 26.238 383.197 26.238C384.401 26.238 385.087 27.064 385.087 28.59H381.013ZM388.093 33H389.367V28.128C389.871 26.826 390.655 26.364 391.285 26.364C391.593 26.364 391.761 26.406 392.027 26.49L392.265 25.37C392.013 25.258 391.789 25.216 391.453 25.216C390.599 25.216 389.815 25.818 389.297 26.784H389.255L389.129 25.398H388.093V33ZM395.914 33.196C397.748 33.196 399.218 32.118 399.218 30.34C399.218 28.982 398.238 28.086 397.034 27.806V27.75C398.126 27.344 398.854 26.574 398.854 25.37C398.854 23.76 397.594 22.85 395.872 22.85C394.696 22.85 393.786 23.368 393.016 24.082L393.702 24.894C394.276 24.306 395.004 23.872 395.83 23.872C396.894 23.872 397.552 24.488 397.552 25.454C397.552 26.504 396.838 27.33 394.724 27.33V28.31C397.09 28.31 397.916 29.108 397.916 30.298C397.916 31.418 397.048 32.132 395.83 32.132C394.654 32.132 393.884 31.572 393.282 30.942L392.638 31.782C393.31 32.524 394.304 33.196 395.914 33.196ZM406.284 35.436C407.376 35.436 408.342 35.17 409.266 34.638L408.916 33.868C408.216 34.274 407.334 34.568 406.382 34.568C403.722 34.568 401.72 32.832 401.72 29.78C401.72 26.126 404.422 23.76 407.208 23.76C410.05 23.76 411.534 25.594 411.534 28.128C411.534 30.158 410.414 31.362 409.434 31.362C408.566 31.362 408.272 30.774 408.58 29.528L409.196 26.406H408.342L408.174 27.036H408.146C407.852 26.518 407.418 26.28 406.886 26.28C405.066 26.28 403.876 28.24 403.876 29.906C403.876 31.32 404.702 32.118 405.766 32.118C406.452 32.118 407.152 31.642 407.67 31.054H407.698C407.796 31.838 408.454 32.23 409.322 32.23C410.736 32.23 412.444 30.816 412.444 28.086C412.444 24.992 410.456 22.892 407.306 22.892C403.82 22.892 400.782 25.636 400.782 29.822C400.782 33.476 403.232 35.436 406.284 35.436ZM406.004 31.236C405.374 31.236 404.898 30.844 404.898 29.836C404.898 28.646 405.668 27.176 406.9 27.176C407.334 27.176 407.614 27.344 407.908 27.82L407.46 30.312C406.914 30.97 406.438 31.236 406.004 31.236ZM417.6 33.196C418.636 33.196 419.434 32.846 420.106 32.412L419.644 31.558C419.084 31.936 418.482 32.174 417.754 32.174C416.298 32.174 415.318 31.124 415.22 29.514H420.344C420.386 29.318 420.4 29.052 420.4 28.786C420.4 26.602 419.308 25.216 417.376 25.216C415.626 25.216 413.96 26.742 413.96 29.22C413.96 31.712 415.57 33.196 417.6 33.196ZM415.206 28.59C415.374 27.092 416.326 26.238 417.39 26.238C418.594 26.238 419.28 27.064 419.28 28.59H415.206ZM422.286 33H423.56V27.484C424.246 26.714 424.89 26.322 425.464 26.322C426.444 26.322 426.892 26.924 426.892 28.352V33H428.166V27.484C428.88 26.714 429.482 26.322 430.07 26.322C431.05 26.322 431.498 26.924 431.498 28.352V33H432.772V28.184C432.772 26.252 432.016 25.216 430.462 25.216C429.538 25.216 428.74 25.818 427.942 26.658C427.648 25.762 427.018 25.216 425.856 25.216C424.946 25.216 424.148 25.79 423.49 26.504H423.448L423.322 25.398H422.286V33ZM436.997 33.196C437.935 33.196 438.789 32.706 439.503 32.104H439.559L439.671 33H440.721V28.338C440.721 26.448 439.937 25.216 438.075 25.216C436.857 25.216 435.793 25.748 435.093 26.196L435.597 27.092C436.185 26.686 436.983 26.266 437.879 26.266C439.125 26.266 439.433 27.204 439.433 28.184C436.199 28.548 434.771 29.374 434.771 31.026C434.771 32.398 435.723 33.196 436.997 33.196ZM437.347 32.16C436.605 32.16 436.017 31.81 436.017 30.942C436.017 29.962 436.871 29.332 439.433 29.038V31.152C438.705 31.81 438.089 32.16 437.347 32.16ZM443.136 33H444.41V25.398H443.136V33ZM443.78 23.83C444.27 23.83 444.634 23.508 444.634 22.976C444.634 22.486 444.27 22.164 443.78 22.164C443.276 22.164 442.926 22.486 442.926 22.976C442.926 23.508 443.276 23.83 443.78 23.83ZM448.335 33.196C448.685 33.196 448.881 33.14 449.063 33.084L448.895 32.104C448.741 32.132 448.685 32.132 448.629 32.132C448.433 32.132 448.265 31.978 448.265 31.572V21.87H446.991V31.488C446.991 32.58 447.369 33.196 448.335 33.196ZM451.614 33.196C452.132 33.196 452.552 32.79 452.552 32.216C452.552 31.628 452.132 31.236 451.614 31.236C451.11 31.236 450.704 31.628 450.704 32.216C450.704 32.79 451.11 33.196 451.614 33.196ZM457.629 33.196C458.539 33.196 459.421 32.832 460.093 32.23L459.547 31.376C459.071 31.796 458.441 32.132 457.755 32.132C456.355 32.132 455.389 30.956 455.389 29.22C455.389 27.456 456.397 26.28 457.797 26.28C458.385 26.28 458.861 26.546 459.309 26.952L459.953 26.112C459.421 25.622 458.721 25.216 457.727 25.216C455.781 25.216 454.073 26.672 454.073 29.22C454.073 31.726 455.613 33.196 457.629 33.196ZM464.369 33.196C466.231 33.196 467.883 31.726 467.883 29.22C467.883 26.672 466.231 25.216 464.369 25.216C462.493 25.216 460.841 26.672 460.841 29.22C460.841 31.726 462.493 33.196 464.369 33.196ZM464.369 32.132C463.039 32.132 462.157 30.956 462.157 29.22C462.157 27.456 463.039 26.28 464.369 26.28C465.685 26.28 466.567 27.456 466.567 29.22C466.567 30.956 465.685 32.132 464.369 32.132ZM469.905 33H471.179V27.484C471.865 26.714 472.509 26.322 473.083 26.322C474.063 26.322 474.511 26.924 474.511 28.352V33H475.785V27.484C476.499 26.714 477.101 26.322 477.689 26.322C478.669 26.322 479.117 26.924 479.117 28.352V33H480.391V28.184C480.391 26.252 479.635 25.216 478.081 25.216C477.157 25.216 476.359 25.818 475.561 26.658C475.267 25.762 474.637 25.216 473.475 25.216C472.565 25.216 471.767 25.79 471.109 26.504H471.067L470.941 25.398H469.905V33Z" fill="#575757"/>
<path d="M489.436 21.8275L489.497 21.8781L494 26.3814L498.503 21.8781C498.674 21.7073 498.951 21.7073 499.122 21.8781C499.274 22.03 499.291 22.2658 499.172 22.4363L499.122 22.4969L494.619 27L499.122 31.5031C499.293 31.674 499.293 31.951 499.122 32.1219C498.97 32.2737 498.734 32.2906 498.564 32.1725L498.503 32.1219L494 27.6186L489.497 32.1219C489.326 32.2927 489.049 32.2927 488.878 32.1219C488.726 31.97 488.709 31.7342 488.828 31.5637L488.878 31.5031L493.381 27L488.878 22.4969C488.707 22.326 488.707 22.049 488.878 21.8781C489.03 21.7263 489.266 21.7094 489.436 21.8275Z" fill="#575757"/>
<rect x="519" y="12" width="157" height="30" rx="4" fill="#F7F7FA"/>
<path d="M532.5 33.196C533.55 33.196 534.306 32.636 535.02 31.81H535.048L535.16 33H536.21V25.398H534.936V30.802C534.222 31.698 533.662 32.076 532.892 32.076C531.884 32.076 531.45 31.474 531.45 30.06V25.398H530.176V30.214C530.176 32.16 530.904 33.196 532.5 33.196ZM540.78 33.196C542.572 33.196 543.538 32.174 543.538 30.928C543.538 29.486 542.334 29.038 541.228 28.618C540.36 28.31 539.59 28.03 539.59 27.302C539.59 26.714 540.024 26.21 540.99 26.21C541.662 26.21 542.208 26.504 542.726 26.882L543.342 26.07C542.754 25.594 541.914 25.216 540.976 25.216C539.324 25.216 538.358 26.154 538.358 27.358C538.358 28.66 539.52 29.164 540.57 29.57C541.41 29.878 542.32 30.228 542.32 30.998C542.32 31.67 541.816 32.202 540.808 32.202C539.898 32.202 539.226 31.824 538.568 31.292L537.938 32.146C538.652 32.734 539.702 33.196 540.78 33.196ZM548.407 33.196C549.443 33.196 550.241 32.846 550.913 32.412L550.451 31.558C549.891 31.936 549.289 32.174 548.561 32.174C547.105 32.174 546.125 31.124 546.027 29.514H551.151C551.193 29.318 551.207 29.052 551.207 28.786C551.207 26.602 550.115 25.216 548.183 25.216C546.433 25.216 544.767 26.742 544.767 29.22C544.767 31.712 546.377 33.196 548.407 33.196ZM546.013 28.59C546.181 27.092 547.133 26.238 548.197 26.238C549.401 26.238 550.087 27.064 550.087 28.59H546.013ZM553.093 33H554.367V28.128C554.871 26.826 555.655 26.364 556.285 26.364C556.593 26.364 556.761 26.406 557.027 26.49L557.265 25.37C557.013 25.258 556.789 25.216 556.453 25.216C555.599 25.216 554.815 25.818 554.297 26.784H554.255L554.129 25.398H553.093V33ZM561.978 33H563.182V23.032H561.768L557.498 29.402V30.242H564.554V29.234H558.842L561.18 25.804C561.46 25.314 561.74 24.866 561.992 24.404H562.062C562.02 24.922 561.978 25.79 561.978 26.308V33ZM571.284 35.436C572.376 35.436 573.342 35.17 574.266 34.638L573.916 33.868C573.216 34.274 572.334 34.568 571.382 34.568C568.722 34.568 566.72 32.832 566.72 29.78C566.72 26.126 569.422 23.76 572.208 23.76C575.05 23.76 576.534 25.594 576.534 28.128C576.534 30.158 575.414 31.362 574.434 31.362C573.566 31.362 573.272 30.774 573.58 29.528L574.196 26.406H573.342L573.174 27.036H573.146C572.852 26.518 572.418 26.28 571.886 26.28C570.066 26.28 568.876 28.24 568.876 29.906C568.876 31.32 569.702 32.118 570.766 32.118C571.452 32.118 572.152 31.642 572.67 31.054H572.698C572.796 31.838 573.454 32.23 574.322 32.23C575.736 32.23 577.444 30.816 577.444 28.086C577.444 24.992 575.456 22.892 572.306 22.892C568.82 22.892 565.782 25.636 565.782 29.822C565.782 33.476 568.232 35.436 571.284 35.436ZM571.004 31.236C570.374 31.236 569.898 30.844 569.898 29.836C569.898 28.646 570.668 27.176 571.9 27.176C572.334 27.176 572.614 27.344 572.908 27.82L572.46 30.312C571.914 30.97 571.438 31.236 571.004 31.236ZM582.6 33.196C583.636 33.196 584.434 32.846 585.106 32.412L584.644 31.558C584.084 31.936 583.482 32.174 582.754 32.174C581.298 32.174 580.318 31.124 580.22 29.514H585.344C585.386 29.318 585.4 29.052 585.4 28.786C585.4 26.602 584.308 25.216 582.376 25.216C580.626 25.216 578.96 26.742 578.96 29.22C578.96 31.712 580.57 33.196 582.6 33.196ZM580.206 28.59C580.374 27.092 581.326 26.238 582.39 26.238C583.594 26.238 584.28 27.064 584.28 28.59H580.206ZM587.286 33H588.56V27.484C589.246 26.714 589.89 26.322 590.464 26.322C591.444 26.322 591.892 26.924 591.892 28.352V33H593.166V27.484C593.88 26.714 594.482 26.322 595.07 26.322C596.05 26.322 596.498 26.924 596.498 28.352V33H597.772V28.184C597.772 26.252 597.016 25.216 595.462 25.216C594.538 25.216 593.74 25.818 592.942 26.658C592.648 25.762 592.018 25.216 590.856 25.216C589.946 25.216 589.148 25.79 588.49 26.504H588.448L588.322 25.398H587.286V33ZM601.997 33.196C602.935 33.196 603.789 32.706 604.503 32.104H604.559L604.671 33H605.721V28.338C605.721 26.448 604.937 25.216 603.075 25.216C601.857 25.216 600.793 25.748 600.093 26.196L600.597 27.092C601.185 26.686 601.983 26.266 602.879 26.266C604.125 26.266 604.433 27.204 604.433 28.184C601.199 28.548 599.771 29.374 599.771 31.026C599.771 32.398 600.723 33.196 601.997 33.196ZM602.347 32.16C601.605 32.16 601.017 31.81 601.017 30.942C601.017 29.962 601.871 29.332 604.433 29.038V31.152C603.705 31.81 603.089 32.16 602.347 32.16ZM608.136 33H609.41V25.398H608.136V33ZM608.78 23.83C609.27 23.83 609.634 23.508 609.634 22.976C609.634 22.486 609.27 22.164 608.78 22.164C608.276 22.164 607.926 22.486 607.926 22.976C607.926 23.508 608.276 23.83 608.78 23.83ZM613.335 33.196C613.685 33.196 613.881 33.14 614.063 33.084L613.895 32.104C613.741 32.132 613.685 32.132 613.629 32.132C613.433 32.132 613.265 31.978 613.265 31.572V21.87H611.991V31.488C611.991 32.58 612.369 33.196 613.335 33.196ZM616.614 33.196C617.132 33.196 617.552 32.79 617.552 32.216C617.552 31.628 617.132 31.236 616.614 31.236C616.11 31.236 615.704 31.628 615.704 32.216C615.704 32.79 616.11 33.196 616.614 33.196ZM622.629 33.196C623.539 33.196 624.421 32.832 625.093 32.23L624.547 31.376C624.071 31.796 623.441 32.132 622.755 32.132C621.355 32.132 620.389 30.956 620.389 29.22C620.389 27.456 621.397 26.28 622.797 26.28C623.385 26.28 623.861 26.546 624.309 26.952L624.953 26.112C624.421 25.622 623.721 25.216 622.727 25.216C620.781 25.216 619.073 26.672 619.073 29.22C619.073 31.726 620.613 33.196 622.629 33.196ZM629.369 33.196C631.231 33.196 632.883 31.726 632.883 29.22C632.883 26.672 631.231 25.216 629.369 25.216C627.493 25.216 625.841 26.672 625.841 29.22C625.841 31.726 627.493 33.196 629.369 33.196ZM629.369 32.132C628.039 32.132 627.157 30.956 627.157 29.22C627.157 27.456 628.039 26.28 629.369 26.28C630.685 26.28 631.567 27.456 631.567 29.22C631.567 30.956 630.685 32.132 629.369 32.132ZM634.905 33H636.179V27.484C636.865 26.714 637.509 26.322 638.083 26.322C639.063 26.322 639.511 26.924 639.511 28.352V33H640.785V27.484C641.499 26.714 642.101 26.322 642.689 26.322C643.669 26.322 644.117 26.924 644.117 28.352V33H645.391V28.184C645.391 26.252 644.635 25.216 643.081 25.216C642.157 25.216 641.359 25.818 640.561 26.658C640.267 25.762 639.637 25.216 638.475 25.216C637.565 25.216 636.767 25.79 636.109 26.504H636.067L635.941 25.398H634.905V33Z" fill="#575757"/>
<path d="M654.436 21.8275L654.497 21.8781L659 26.3814L663.503 21.8781C663.674 21.7073 663.951 21.7073 664.122 21.8781C664.274 22.03 664.291 22.2658 664.172 22.4363L664.122 22.4969L659.619 27L664.122 31.5031C664.293 31.674 664.293 31.951 664.122 32.1219C663.97 32.2737 663.734 32.2906 663.564 32.1725L663.503 32.1219L659 27.6186L654.497 32.1219C654.326 32.2927 654.049 32.2927 653.878 32.1219C653.726 31.97 653.709 31.7342 653.828 31.5637L653.878 31.5031L658.381 27L653.878 22.4969C653.707 22.326 653.707 22.049 653.878 21.8781C654.03 21.7263 654.266 21.7094 654.436 21.8275Z" fill="#575757"/>
<path d="M828.242 33.196C830.104 33.196 831.756 31.726 831.756 29.22C831.756 26.672 830.104 25.216 828.242 25.216C826.366 25.216 824.714 26.672 824.714 29.22C824.714 31.726 826.366 33.196 828.242 33.196ZM828.242 32.132C826.912 32.132 826.03 30.956 826.03 29.22C826.03 27.456 826.912 26.28 828.242 26.28C829.558 26.28 830.44 27.456 830.44 29.22C830.44 30.956 829.558 32.132 828.242 32.132ZM833.778 33H835.052V28.128C835.556 26.826 836.34 26.364 836.97 26.364C837.278 26.364 837.446 26.406 837.712 26.49L837.95 25.37C837.698 25.258 837.474 25.216 837.138 25.216C836.284 25.216 835.5 25.818 834.982 26.784H834.94L834.814 25.398H833.778V33Z" fill="#8E8E93"/>
<path d="M883.938 9H869.5C868.67 9 868 9.67031 868 10.5V24.9375C868 25.1437 868.169 25.3125 868.375 25.3125H883.938C884.144 25.3125 884.312 25.1437 884.312 24.9375V9.375C884.312 9.16875 884.144 9 883.938 9ZM881.312 22.3125H871V12H881.312V22.3125ZM874.844 18.8438H877.469C877.675 18.8438 877.844 18.675 877.844 18.4688V15.8438C877.844 15.6375 877.675 15.4688 877.469 15.4688H874.844C874.637 15.4688 874.469 15.6375 874.469 15.8438V18.4688C874.469 18.675 874.637 18.8438 874.844 18.8438ZM883.938 28.6875H868.375C868.169 28.6875 868 28.8563 868 29.0625V43.5C868 44.3297 868.67 45 869.5 45H883.938C884.144 45 884.312 44.8312 884.312 44.625V29.0625C884.312 28.8563 884.144 28.6875 883.938 28.6875ZM881.312 42H871V31.6875H881.312V42ZM874.844 38.5312H877.469C877.675 38.5312 877.844 38.3625 877.844 38.1562V35.5312C877.844 35.325 877.675 35.1562 877.469 35.1562H874.844C874.637 35.1562 874.469 35.325 874.469 35.5312V38.1562C874.469 38.3625 874.637 38.5312 874.844 38.5312ZM902.5 9H888.062C887.856 9 887.688 9.16875 887.688 9.375V24.9375C887.688 25.1437 887.856 25.3125 888.062 25.3125H903.625C903.831 25.3125 904 25.1437 904 24.9375V10.5C904 9.67031 903.33 9 902.5 9ZM901 22.3125H890.688V12H901V22.3125ZM894.531 18.8438H897.156C897.362 18.8438 897.531 18.675 897.531 18.4688V15.8438C897.531 15.6375 897.362 15.4688 897.156 15.4688H894.531C894.325 15.4688 894.156 15.6375 894.156 15.8438V18.4688C894.156 18.675 894.325 18.8438 894.531 18.8438ZM903.625 28.6875H901.375C901.169 28.6875 901 28.8563 901 29.0625V35.3438H897.344V29.0625C897.344 28.8563 897.175 28.6875 896.969 28.6875H888.062C887.856 28.6875 887.688 28.8563 887.688 29.0625V44.625C887.688 44.8312 887.856 45 888.062 45H890.312C890.519 45 890.688 44.8312 890.688 44.625V33.1875H894.344V37.9688C894.344 38.175 894.513 38.3438 894.719 38.3438H903.625C903.831 38.3438 904 38.175 904 37.9688V29.0625C904 28.8563 903.831 28.6875 903.625 28.6875ZM896.969 42H894.719C894.513 42 894.344 42.1688 894.344 42.375V44.625C894.344 44.8312 894.513 45 894.719 45H896.969C897.175 45 897.344 44.8312 897.344 44.625V42.375C897.344 42.1688 897.175 42 896.969 42ZM903.625 42H901.375C901.169 42 901 42.1688 901 42.375V44.625C901 44.8312 901.169 45 901.375 45H903.625C903.831 45 904 44.8312 904 44.625V42.375C904 42.1688 903.831 42 903.625 42Z" fill="#8E8E93"/>
</svg>
