<svg width="238" height="171" viewBox="0 0 238 171" fill="none" xmlns="http://www.w3.org/2000/svg">
<rect x="1" y="1.41992" width="236" height="167.94" rx="11" fill="#F6F5F4"/>
<rect x="1" y="1.41992" width="236" height="167.94" rx="11" stroke="#F6F5F4" stroke-width="2"/>
<g clip-path="url(#clip0_5001_374)">
<path d="M37.0376 51.9968C37.8605 51.9989 38.5485 51.3274 38.5513 50.4796L38.5731 43.8589C38.9475 43.7477 39.8212 43.4757 41.0431 43.479C45.4444 43.4908 48.7161 45.7937 53.1174 45.8055C54.9876 45.8104 56.1107 45.5267 57.0973 45.0679C58.0464 44.6216 58.5229 43.7875 58.5268 42.603L58.5665 30.5461C58.57 29.4988 57.8492 28.7862 56.8018 28.7834C55.9415 28.7811 54.8679 29.1897 53.0849 29.1849C48.8207 29.1735 45.4119 26.8702 41.0106 26.8585C39.2027 26.8536 38.167 27.1127 37.0556 27.6209C36.1316 28.0424 35.6057 28.6894 35.602 29.824L35.5339 50.4715C35.5312 51.3069 36.2147 51.9945 37.0376 51.9968ZM38.7313 37.488L38.7432 33.8721C39.0434 33.5862 39.8051 33.2391 41.0893 33.2425C41.4509 33.2435 42.2238 33.2954 42.797 33.3842L42.8079 30.0801C44.2786 30.2835 45.6611 30.7236 47.0811 31.1513L47.0702 34.443C48.4403 34.8955 49.9976 35.2737 51.3436 35.4394L51.3546 32.1353C51.878 32.199 52.414 32.2379 52.9626 32.2393C53.9227 32.2419 54.7708 32.1569 55.4073 31.984L55.3964 35.2756C54.8598 35.4238 53.9742 35.5462 52.9517 35.5434C52.5777 35.5425 52.0291 35.5285 51.3436 35.4394L51.3317 39.0553C52.0546 39.1444 52.6904 39.1586 53.1643 39.1599C54.1243 39.1625 54.7979 39.0644 55.3845 38.9039L55.3739 42.0959C55.0987 42.3819 54.2996 42.7164 53.0029 42.7129C52.4418 42.7115 51.8935 42.6477 51.3202 42.5588L51.3317 39.0553C49.7988 38.8392 48.4783 38.5114 47.0583 38.0588L47.0471 41.4752C45.7018 41.0725 44.3066 40.6823 42.7735 40.5161L42.7851 37C42.3115 36.9364 41.813 36.8603 41.0774 36.8583C39.7932 36.8549 39.0315 37.202 38.7313 37.488ZM42.7851 37C44.343 37.2287 45.5511 37.6184 47.0583 38.0588L47.0702 34.443C45.6502 34.0277 44.3673 33.6129 42.797 33.3842L42.7851 37Z" fill="#0A85D1"/>
</g>
<path d="M35.1378 86.3599V73.269H40.3026C41.2955 73.269 42.1413 73.4586 42.8402 73.8378C43.5391 74.2128 44.0717 74.7349 44.4382 75.4039C44.8089 76.0687 44.9943 76.8357 44.9943 77.705C44.9943 78.5744 44.8068 79.3414 44.4318 80.0062C44.0568 80.6709 43.5135 81.1887 42.8018 81.5594C42.0945 81.9302 41.2379 82.1155 40.2322 82.1155H36.9403V79.8975H39.7848C40.3175 79.8975 40.7564 79.8059 41.1016 79.6226C41.451 79.4351 41.7109 79.1773 41.8814 78.8492C42.0561 78.5168 42.1435 78.1354 42.1435 77.705C42.1435 77.2704 42.0561 76.8911 41.8814 76.5672C41.7109 76.2391 41.451 75.9856 41.1016 75.8066C40.7521 75.6234 40.3089 75.5317 39.772 75.5317H37.9055V86.3599H35.1378ZM46.6109 86.3599V76.5417H49.2509V78.2547H49.3531C49.5321 77.6454 49.8325 77.1851 50.2544 76.8741C50.6763 76.5587 51.1621 76.4011 51.7118 76.4011C51.8482 76.4011 51.9952 76.4096 52.1528 76.4266C52.3105 76.4437 52.449 76.4671 52.5683 76.4969V78.9131C52.4405 78.8748 52.2636 78.8407 52.0378 78.8109C51.8119 78.781 51.6053 78.7661 51.4178 78.7661C51.0172 78.7661 50.6592 78.8535 50.3439 79.0282C50.0328 79.1986 49.7857 79.4373 49.6024 79.7441C49.4234 80.0509 49.334 80.4046 49.334 80.8052V86.3599H46.6109ZM57.8252 86.5516C56.8323 86.5516 55.9737 86.3407 55.2492 85.9188C54.5291 85.4927 53.973 84.9003 53.5809 84.1418C53.1889 83.379 52.9928 82.4948 52.9928 81.4891C52.9928 80.4749 53.1889 79.5886 53.5809 78.83C53.973 78.0672 54.5291 77.4749 55.2492 77.053C55.9737 76.6269 56.8323 76.4138 57.8252 76.4138C58.8181 76.4138 59.6747 76.6269 60.3948 77.053C61.1193 77.4749 61.6775 78.0672 62.0695 78.83C62.4616 79.5886 62.6576 80.4749 62.6576 81.4891C62.6576 82.4948 62.4616 83.379 62.0695 84.1418C61.6775 84.9003 61.1193 85.4927 60.3948 85.9188C59.6747 86.3407 58.8181 86.5516 57.8252 86.5516ZM57.838 84.4422C58.2897 84.4422 58.6668 84.3144 58.9694 84.0587C59.272 83.7988 59.4999 83.4451 59.6534 82.9976C59.811 82.5502 59.8899 82.041 59.8899 81.4699C59.8899 80.8989 59.811 80.3897 59.6534 79.9422C59.4999 79.4948 59.272 79.1411 58.9694 78.8812C58.6668 78.6212 58.2897 78.4913 57.838 78.4913C57.382 78.4913 56.9985 78.6212 56.6874 78.8812C56.3806 79.1411 56.1484 79.4948 55.9907 79.9422C55.8373 80.3897 55.7606 80.8989 55.7606 81.4699C55.7606 82.041 55.8373 82.5502 55.9907 82.9976C56.1484 83.4451 56.3806 83.7988 56.6874 84.0587C56.9985 84.3144 57.382 84.4422 57.838 84.4422ZM67.9161 86.5197C67.1704 86.5197 66.4949 86.3279 65.8898 85.9444C65.289 85.5566 64.8117 84.9877 64.458 84.2377C64.1086 83.4834 63.9339 82.5587 63.9339 81.4636C63.9339 80.3386 64.115 79.4032 64.4772 78.6574C64.8394 77.9074 65.3209 77.3471 65.9218 76.9763C66.5269 76.6013 67.1895 76.4138 67.9097 76.4138C68.4594 76.4138 68.9175 76.5076 69.284 76.6951C69.6547 76.8783 69.953 77.1084 70.1789 77.3854C70.409 77.6582 70.5837 77.9266 70.703 78.1908H70.7861V73.269H73.5028V86.3599H70.8181V84.7874H70.703C70.5752 85.0601 70.3941 85.3307 70.1597 85.5992C69.9296 85.8634 69.6292 86.0829 69.2584 86.2576C68.892 86.4323 68.4445 86.5197 67.9161 86.5197ZM68.779 84.3528C69.218 84.3528 69.5887 84.2334 69.8913 83.9948C70.1981 83.7519 70.4324 83.4131 70.5944 82.9785C70.7606 82.5438 70.8437 82.0346 70.8437 81.4508C70.8437 80.867 70.7627 80.3599 70.6008 79.9295C70.4388 79.4991 70.2045 79.1667 69.8976 78.9323C69.5908 78.6979 69.218 78.5807 68.779 78.5807C68.3316 78.5807 67.9545 78.7022 67.6476 78.9451C67.3408 79.188 67.1086 79.5246 66.9509 79.955C66.7932 80.3854 66.7144 80.884 66.7144 81.4508C66.7144 82.0218 66.7932 82.5268 66.9509 82.9657C67.1128 83.4003 67.3451 83.7413 67.6476 83.9884C67.9545 84.2313 68.3316 84.3528 68.779 84.3528ZM81.9077 82.1795V76.5417H84.6307V86.3599H82.0164V84.5765H81.9141C81.6925 85.1518 81.3239 85.6141 80.8083 85.9636C80.2969 86.313 79.6726 86.4877 78.9354 86.4877C78.2792 86.4877 77.7018 86.3386 77.2032 86.0403C76.7046 85.742 76.3147 85.318 76.0334 84.7682C75.7565 84.2185 75.6158 83.5601 75.6116 82.7931V76.5417H78.3346V82.3073C78.3388 82.8869 78.4944 83.3449 78.8012 83.6816C79.108 84.0182 79.5192 84.1866 80.0349 84.1866C80.363 84.1866 80.6698 84.112 80.9553 83.9628C81.2408 83.8094 81.4709 83.5836 81.6457 83.2853C81.8246 82.987 81.912 82.6184 81.9077 82.1795ZM91.1149 86.5516C90.1092 86.5516 89.2442 86.3386 88.5197 85.9124C87.7996 85.482 87.2456 84.8854 86.8578 84.1226C86.4743 83.3599 86.2825 82.482 86.2825 81.4891C86.2825 80.4834 86.4764 79.6013 86.8642 78.8428C87.2562 78.08 87.8124 77.4856 88.5325 77.0594C89.2527 76.629 90.1092 76.4138 91.1021 76.4138C91.9587 76.4138 92.7087 76.5694 93.3521 76.8805C93.9956 77.1915 94.5048 77.6283 94.8798 78.1908C95.2548 78.7533 95.4615 79.4138 95.4999 80.1724H92.9303C92.8578 79.6823 92.666 79.2881 92.355 78.9898C92.0482 78.6873 91.6455 78.536 91.1469 78.536C90.725 78.536 90.3564 78.6511 90.041 78.8812C89.73 79.107 89.4871 79.4373 89.3124 79.8719C89.1376 80.3066 89.0503 80.8329 89.0503 81.4508C89.0503 82.0772 89.1355 82.6099 89.306 83.0488C89.4807 83.4877 89.7257 83.8222 90.041 84.0523C90.3564 84.2824 90.725 84.3975 91.1469 84.3975C91.458 84.3975 91.7371 84.3336 91.9842 84.2057C92.2357 84.0779 92.4423 83.8925 92.6043 83.6496C92.7705 83.4025 92.8791 83.1063 92.9303 82.7611H95.4999C95.4572 83.5111 95.2527 84.1717 94.8862 84.7427C94.524 85.3094 94.0233 85.7526 93.3841 86.0722C92.7449 86.3918 91.9885 86.5516 91.1149 86.5516ZM102.336 76.5417V78.5871H96.4229V76.5417H102.336ZM97.7653 74.1894H100.488V83.3428C100.488 83.5942 100.527 83.7903 100.603 83.9309C100.68 84.0672 100.787 84.1631 100.923 84.2185C101.064 84.2739 101.226 84.3016 101.409 84.3016C101.537 84.3016 101.664 84.291 101.792 84.2697C101.92 84.2441 102.018 84.2249 102.086 84.2121L102.515 86.2384C102.378 86.281 102.186 86.33 101.939 86.3854C101.692 86.4451 101.392 86.4813 101.038 86.4941C100.382 86.5197 99.8065 86.4323 99.3122 86.232C98.8221 86.0317 98.4407 85.7207 98.168 85.2988C97.8952 84.8769 97.761 84.3442 97.7653 83.7008V74.1894ZM108.015 86.3599V76.5417H110.655V78.2547H110.758C110.937 77.6454 111.237 77.1851 111.659 76.8741C112.081 76.5587 112.567 76.4011 113.116 76.4011C113.253 76.4011 113.4 76.4096 113.557 76.4266C113.715 76.4437 113.853 76.4671 113.973 76.4969V78.9131C113.845 78.8748 113.668 78.8407 113.442 78.8109C113.216 78.781 113.01 78.7661 112.822 78.7661C112.422 78.7661 112.064 78.8535 111.748 79.0282C111.437 79.1986 111.19 79.4373 111.007 79.7441C110.828 80.0509 110.738 80.4046 110.738 80.8052V86.3599H108.015ZM119.23 86.5516C118.237 86.5516 117.378 86.3407 116.654 85.9188C115.934 85.4927 115.377 84.9003 114.985 84.1418C114.593 83.379 114.397 82.4948 114.397 81.4891C114.397 80.4749 114.593 79.5886 114.985 78.83C115.377 78.0672 115.934 77.4749 116.654 77.053C117.378 76.6269 118.237 76.4138 119.23 76.4138C120.223 76.4138 121.079 76.6269 121.799 77.053C122.524 77.4749 123.082 78.0672 123.474 78.83C123.866 79.5886 124.062 80.4749 124.062 81.4891C124.062 82.4948 123.866 83.379 123.474 84.1418C123.082 84.9003 122.524 85.4927 121.799 85.9188C121.079 86.3407 120.223 86.5516 119.23 86.5516ZM119.242 84.4422C119.694 84.4422 120.071 84.3144 120.374 84.0587C120.676 83.7988 120.904 83.4451 121.058 82.9976C121.215 82.5502 121.294 82.041 121.294 81.4699C121.294 80.8989 121.215 80.3897 121.058 79.9422C120.904 79.4948 120.676 79.1411 120.374 78.8812C120.071 78.6212 119.694 78.4913 119.242 78.4913C118.787 78.4913 118.403 78.6212 118.092 78.8812C117.785 79.1411 117.553 79.4948 117.395 79.9422C117.242 80.3897 117.165 80.8989 117.165 81.4699C117.165 82.041 117.242 82.5502 117.395 82.9976C117.553 83.4451 117.785 83.7988 118.092 84.0587C118.403 84.3144 118.787 84.4422 119.242 84.4422ZM128.502 86.5452C127.876 86.5452 127.318 86.4366 126.828 86.2192C126.338 85.9976 125.95 85.6717 125.664 85.2413C125.383 84.8066 125.242 84.2654 125.242 83.6177C125.242 83.0722 125.343 82.6141 125.543 82.2434C125.743 81.8726 126.016 81.5744 126.361 81.3485C126.706 81.1226 127.098 80.9522 127.537 80.8371C127.98 80.7221 128.445 80.6411 128.931 80.5942C129.502 80.5346 129.962 80.4792 130.311 80.428C130.661 80.3726 130.914 80.2917 131.072 80.1851C131.23 80.0786 131.308 79.9209 131.308 79.7121V79.6738C131.308 79.269 131.181 78.9557 130.925 78.7342C130.674 78.5126 130.316 78.4018 129.851 78.4018C129.361 78.4018 128.971 78.5104 128.681 78.7278C128.392 78.9408 128.2 79.2093 128.106 79.5332L125.588 79.3286C125.715 78.732 125.967 78.2164 126.342 77.7817C126.717 77.3428 127.201 77.0062 127.793 76.7718C128.389 76.5332 129.08 76.4138 129.864 76.4138C130.409 76.4138 130.931 76.4778 131.43 76.6056C131.933 76.7334 132.378 76.9316 132.766 77.2001C133.158 77.4685 133.467 77.8137 133.693 78.2356C133.919 78.6532 134.031 79.1539 134.031 79.7377V86.3599H131.449V84.9984H131.372C131.215 85.3052 131.004 85.5758 130.74 85.8101C130.475 86.0403 130.158 86.2214 129.787 86.3535C129.416 86.4813 128.988 86.5452 128.502 86.5452ZM129.282 84.666C129.683 84.666 130.036 84.5871 130.343 84.4295C130.65 84.2675 130.891 84.0502 131.066 83.7775C131.24 83.5047 131.328 83.1958 131.328 82.8506V81.8087C131.242 81.8641 131.125 81.9153 130.976 81.9621C130.831 82.0047 130.667 82.0452 130.484 82.0836C130.301 82.1177 130.117 82.1496 129.934 82.1795C129.751 82.205 129.585 82.2285 129.436 82.2498C129.116 82.2967 128.837 82.3712 128.598 82.4735C128.36 82.5758 128.174 82.7143 128.042 82.889C127.91 83.0594 127.844 83.2725 127.844 83.5282C127.844 83.8989 127.978 84.1823 128.247 84.3783C128.519 84.5701 128.865 84.666 129.282 84.666ZM139.632 86.5197C138.886 86.5197 138.211 86.3279 137.606 85.9444C137.005 85.5566 136.528 84.9877 136.174 84.2377C135.824 83.4834 135.65 82.5587 135.65 81.4636C135.65 80.3386 135.831 79.4032 136.193 78.6574C136.555 77.9074 137.037 77.3471 137.638 76.9763C138.243 76.6013 138.905 76.4138 139.626 76.4138C140.175 76.4138 140.633 76.5076 141 76.6951C141.371 76.8783 141.669 77.1084 141.895 77.3854C142.125 77.6582 142.3 77.9266 142.419 78.1908H142.502V73.269H145.219V86.3599H142.534V84.7874H142.419C142.291 85.0601 142.11 85.3307 141.876 85.5992C141.645 85.8634 141.345 86.0829 140.974 86.2576C140.608 86.4323 140.16 86.5197 139.632 86.5197ZM140.495 84.3528C140.934 84.3528 141.305 84.2334 141.607 83.9948C141.914 83.7519 142.148 83.4131 142.31 82.9785C142.476 82.5438 142.56 82.0346 142.56 81.4508C142.56 80.867 142.479 80.3599 142.317 79.9295C142.155 79.4991 141.92 79.1667 141.614 78.9323C141.307 78.6979 140.934 78.5807 140.495 78.5807C140.047 78.5807 139.67 78.7022 139.364 78.9451C139.057 79.188 138.824 79.5246 138.667 79.955C138.509 80.3854 138.43 80.884 138.43 81.4508C138.43 82.0218 138.509 82.5268 138.667 82.9657C138.829 83.4003 139.061 83.7413 139.364 83.9884C139.67 84.2313 140.047 84.3528 140.495 84.3528ZM147.327 86.3599V76.5417H149.923V78.2739H150.038C150.242 77.6986 150.583 77.2448 151.06 76.9124C151.538 76.58 152.109 76.4138 152.773 76.4138C153.447 76.4138 154.02 76.5822 154.493 76.9188C154.966 77.2512 155.281 77.7029 155.439 78.2739H155.541C155.741 77.7114 156.104 77.2619 156.628 76.9252C157.156 76.5843 157.781 76.4138 158.501 76.4138C159.417 76.4138 160.161 76.7057 160.732 77.2896C161.307 77.8691 161.594 78.6915 161.594 79.7569V86.3599H158.878V80.2938C158.878 79.7484 158.733 79.3393 158.443 79.0665C158.153 78.7938 157.791 78.6574 157.357 78.6574C156.862 78.6574 156.477 78.8151 156.2 79.1305C155.923 79.4415 155.784 79.8528 155.784 80.3641V86.3599H153.144V80.2363C153.144 79.7547 153.006 79.3712 152.729 79.0857C152.456 78.8002 152.096 78.6574 151.648 78.6574C151.346 78.6574 151.073 78.7342 150.83 78.8876C150.592 79.0367 150.402 79.2476 150.261 79.5204C150.121 79.7888 150.05 80.1042 150.05 80.4664V86.3599H147.327ZM166.415 86.5452C165.789 86.5452 165.23 86.4366 164.74 86.2192C164.25 85.9976 163.863 85.6717 163.577 85.2413C163.296 84.8066 163.155 84.2654 163.155 83.6177C163.155 83.0722 163.255 82.6141 163.456 82.2434C163.656 81.8726 163.929 81.5744 164.274 81.3485C164.619 81.1226 165.011 80.9522 165.45 80.8371C165.893 80.7221 166.358 80.6411 166.843 80.5942C167.414 80.5346 167.875 80.4792 168.224 80.428C168.573 80.3726 168.827 80.2917 168.985 80.1851C169.142 80.0786 169.221 79.9209 169.221 79.7121V79.6738C169.221 79.269 169.093 78.9557 168.838 78.7342C168.586 78.5126 168.228 78.4018 167.764 78.4018C167.274 78.4018 166.884 78.5104 166.594 78.7278C166.304 78.9408 166.113 79.2093 166.019 79.5332L163.5 79.3286C163.628 78.732 163.88 78.2164 164.255 77.7817C164.63 77.3428 165.113 77.0062 165.706 76.7718C166.302 76.5332 166.993 76.4138 167.777 76.4138C168.322 76.4138 168.844 76.4778 169.343 76.6056C169.846 76.7334 170.291 76.9316 170.679 77.2001C171.071 77.4685 171.38 77.8137 171.605 78.2356C171.831 78.6532 171.944 79.1539 171.944 79.7377V86.3599H169.362V84.9984H169.285C169.127 85.3052 168.917 85.5758 168.652 85.8101C168.388 86.0403 168.071 86.2214 167.7 86.3535C167.329 86.4813 166.901 86.5452 166.415 86.5452ZM167.195 84.666C167.596 84.666 167.949 84.5871 168.256 84.4295C168.563 84.2675 168.804 84.0502 168.978 83.7775C169.153 83.5047 169.24 83.1958 169.24 82.8506V81.8087C169.155 81.8641 169.038 81.9153 168.889 81.9621C168.744 82.0047 168.58 82.0452 168.397 82.0836C168.213 82.1177 168.03 82.1496 167.847 82.1795C167.664 82.205 167.497 82.2285 167.348 82.2498C167.029 82.2967 166.75 82.3712 166.511 82.4735C166.272 82.5758 166.087 82.7143 165.955 82.889C165.823 83.0594 165.757 83.2725 165.757 83.5282C165.757 83.8989 165.891 84.1823 166.159 84.3783C166.432 84.5701 166.777 84.666 167.195 84.666ZM173.927 90.0417V76.5417H176.611V78.1908H176.733C176.852 77.9266 177.025 77.6582 177.251 77.3854C177.481 77.1084 177.779 76.8783 178.146 76.6951C178.516 76.5076 178.977 76.4138 179.526 76.4138C180.242 76.4138 180.903 76.6013 181.508 76.9763C182.113 77.3471 182.597 77.9074 182.959 78.6574C183.321 79.4032 183.502 80.3386 183.502 81.4636C183.502 82.5587 183.325 83.4834 182.972 84.2377C182.622 84.9877 182.145 85.5566 181.54 85.9444C180.939 86.3279 180.266 86.5197 179.52 86.5197C178.991 86.5197 178.542 86.4323 178.171 86.2576C177.805 86.0829 177.504 85.8634 177.27 85.5992C177.035 85.3307 176.856 85.0601 176.733 84.7874H176.65V90.0417H173.927ZM176.592 81.4508C176.592 82.0346 176.673 82.5438 176.835 82.9785C176.997 83.4131 177.231 83.7519 177.538 83.9948C177.845 84.2334 178.218 84.3528 178.657 84.3528C179.1 84.3528 179.475 84.2313 179.782 83.9884C180.089 83.7413 180.321 83.4003 180.479 82.9657C180.641 82.5268 180.722 82.0218 180.722 81.4508C180.722 80.884 180.643 80.3854 180.485 79.955C180.327 79.5246 180.095 79.188 179.788 78.9451C179.481 78.7022 179.104 78.5807 178.657 78.5807C178.214 78.5807 177.839 78.6979 177.532 78.9323C177.229 79.1667 176.997 79.4991 176.835 79.9295C176.673 80.3599 176.592 80.867 176.592 81.4508Z" fill="#050505"/>
<path d="M43.3636 130.36C43.2386 129.977 43.0739 129.634 42.8693 129.331C42.6686 129.025 42.428 128.763 42.1477 128.547C41.8712 128.331 41.5568 128.167 41.2045 128.053C40.8523 127.939 40.4659 127.883 40.0455 127.883C39.3561 127.883 38.7292 128.061 38.1648 128.417C37.6004 128.773 37.1515 129.297 36.8182 129.991C36.4848 130.684 36.3182 131.534 36.3182 132.542C36.3182 133.549 36.4867 134.4 36.8239 135.093C37.161 135.786 37.6174 136.311 38.1932 136.667C38.7689 137.023 39.4167 137.201 40.1364 137.201C40.803 137.201 41.3902 137.059 41.8977 136.775C42.4091 136.487 42.8068 136.081 43.0909 135.559C43.3788 135.032 43.5227 134.413 43.5227 133.701L43.9545 133.792H40.4545V132.542H44.8864V133.792C44.8864 134.75 44.6818 135.583 44.2727 136.292C43.8674 137 43.3068 137.549 42.5909 137.939C41.8788 138.326 41.0606 138.519 40.1364 138.519C39.1061 138.519 38.2008 138.277 37.4205 137.792C36.6439 137.307 36.0379 136.617 35.6023 135.723C35.1705 134.83 34.9545 133.769 34.9545 132.542C34.9545 131.621 35.0777 130.794 35.3239 130.059C35.5739 129.32 35.9261 128.691 36.3807 128.172C36.8352 127.653 37.3731 127.256 37.9943 126.979C38.6155 126.703 39.2992 126.564 40.0455 126.564C40.6591 126.564 41.2311 126.657 41.7614 126.843C42.2955 127.025 42.7708 127.284 43.1875 127.621C43.608 127.955 43.9583 128.354 44.2386 128.82C44.5189 129.282 44.7121 129.795 44.8182 130.36H43.3636ZM50.777 138.542C49.9361 138.542 49.2107 138.356 48.6009 137.985C47.9948 137.61 47.527 137.087 47.1974 136.417C46.8717 135.742 46.7088 134.958 46.7088 134.064C46.7088 133.17 46.8717 132.383 47.1974 131.701C47.527 131.015 47.9853 130.481 48.5724 130.098C49.1634 129.712 49.8527 129.519 50.6406 129.519C51.0952 129.519 51.544 129.595 51.9872 129.746C52.4304 129.898 52.8338 130.144 53.1974 130.485C53.5611 130.822 53.8509 131.269 54.0668 131.826C54.2827 132.383 54.3906 133.068 54.3906 133.883V134.451H47.6634V133.292H53.027C53.027 132.799 52.9285 132.36 52.7315 131.973C52.5384 131.587 52.2618 131.282 51.902 131.059C51.5459 130.835 51.1255 130.723 50.6406 130.723C50.1065 130.723 49.6444 130.856 49.2543 131.121C48.8679 131.383 48.5705 131.723 48.3622 132.144C48.1539 132.564 48.0497 133.015 48.0497 133.496V134.269C48.0497 134.928 48.1634 135.487 48.3906 135.945C48.6217 136.4 48.9418 136.746 49.3509 136.985C49.7599 137.22 50.2353 137.337 50.777 137.337C51.1293 137.337 51.4474 137.288 51.7315 137.189C52.0194 137.087 52.2675 136.936 52.4759 136.735C52.6842 136.53 52.8452 136.277 52.9588 135.973L54.2543 136.337C54.1179 136.777 53.8887 137.163 53.5668 137.496C53.2448 137.826 52.8471 138.083 52.3736 138.269C51.9001 138.451 51.3679 138.542 50.777 138.542ZM60.2259 129.633V130.769H55.7031V129.633H60.2259ZM57.0213 127.542H58.3622V135.86C58.3622 136.239 58.4171 136.523 58.527 136.712C58.6406 136.898 58.7846 137.023 58.9588 137.087C59.1368 137.148 59.3243 137.178 59.5213 137.178C59.669 137.178 59.7902 137.17 59.8849 137.155C59.9796 137.136 60.0554 137.121 60.1122 137.11L60.3849 138.314C60.294 138.348 60.1671 138.383 60.0043 138.417C59.8414 138.455 59.6349 138.473 59.3849 138.473C59.0062 138.473 58.6349 138.392 58.2713 138.229C57.9115 138.066 57.6122 137.818 57.3736 137.485C57.1387 137.152 57.0213 136.731 57.0213 136.223V127.542ZM70.5384 129.633V130.769H66.0156V129.633H70.5384ZM67.3338 127.542H68.6747V135.86C68.6747 136.239 68.7296 136.523 68.8395 136.712C68.9531 136.898 69.0971 137.023 69.2713 137.087C69.4493 137.148 69.6368 137.178 69.8338 137.178C69.9815 137.178 70.1027 137.17 70.1974 137.155C70.2921 137.136 70.3679 137.121 70.4247 137.11L70.6974 138.314C70.6065 138.348 70.4796 138.383 70.3168 138.417C70.1539 138.455 69.9474 138.473 69.6974 138.473C69.3187 138.473 68.9474 138.392 68.5838 138.229C68.224 138.066 67.9247 137.818 67.6861 137.485C67.4512 137.152 67.3338 136.731 67.3338 136.223V127.542ZM76.1207 138.542C75.2798 138.542 74.5545 138.356 73.9446 137.985C73.3385 137.61 72.8707 137.087 72.5412 136.417C72.2154 135.742 72.0526 134.958 72.0526 134.064C72.0526 133.17 72.2154 132.383 72.5412 131.701C72.8707 131.015 73.3291 130.481 73.9162 130.098C74.5071 129.712 75.1965 129.519 75.9844 129.519C76.4389 129.519 76.8878 129.595 77.331 129.746C77.7741 129.898 78.1776 130.144 78.5412 130.485C78.9048 130.822 79.1946 131.269 79.4105 131.826C79.6264 132.383 79.7344 133.068 79.7344 133.883V134.451H73.0071V133.292H78.3707C78.3707 132.799 78.2723 132.36 78.0753 131.973C77.8821 131.587 77.6056 131.282 77.2457 131.059C76.8897 130.835 76.4692 130.723 75.9844 130.723C75.4503 130.723 74.9882 130.856 74.598 131.121C74.2116 131.383 73.9143 131.723 73.706 132.144C73.4976 132.564 73.3935 133.015 73.3935 133.496V134.269C73.3935 134.928 73.5071 135.487 73.7344 135.945C73.9654 136.4 74.2855 136.746 74.6946 136.985C75.1037 137.22 75.5791 137.337 76.1207 137.337C76.473 137.337 76.7912 137.288 77.0753 137.189C77.3632 137.087 77.6113 136.936 77.8196 136.735C78.0279 136.53 78.1889 136.277 78.3026 135.973L79.598 136.337C79.4616 136.777 79.2325 137.163 78.9105 137.496C78.5885 137.826 78.1908 138.083 77.7173 138.269C77.2438 138.451 76.7116 138.542 76.1207 138.542ZM81.7741 138.36V129.633H83.0696V130.996H83.1832C83.3651 130.53 83.6586 130.169 84.0639 129.911C84.4692 129.65 84.956 129.519 85.5241 129.519C86.0999 129.519 86.5791 129.65 86.9616 129.911C87.348 130.169 87.6491 130.53 87.8651 130.996H87.956C88.1795 130.545 88.5147 130.188 88.9616 129.922C89.4086 129.653 89.9446 129.519 90.5696 129.519C91.3499 129.519 91.9882 129.763 92.4844 130.252C92.9806 130.737 93.2287 131.492 93.2287 132.519V138.36H91.8878V132.519C91.8878 131.875 91.7116 131.415 91.3594 131.138C91.0071 130.862 90.5923 130.723 90.1151 130.723C89.5014 130.723 89.026 130.909 88.6889 131.28C88.3518 131.648 88.1832 132.114 88.1832 132.678V138.36H86.8196V132.383C86.8196 131.886 86.6586 131.487 86.3366 131.184C86.0147 130.877 85.5999 130.723 85.0923 130.723C84.7438 130.723 84.4181 130.816 84.1151 131.002C83.8158 131.188 83.5734 131.445 83.3878 131.775C83.206 132.1 83.1151 132.477 83.1151 132.905V138.36H81.7741ZM95.6804 141.633V129.633H96.9759V131.019H97.1349C97.2334 130.867 97.3698 130.674 97.544 130.439C97.7221 130.201 97.9759 129.989 98.3054 129.803C98.6387 129.614 99.0895 129.519 99.6577 129.519C100.393 129.519 101.04 129.703 101.601 130.07C102.161 130.438 102.599 130.958 102.913 131.633C103.228 132.307 103.385 133.102 103.385 134.019C103.385 134.943 103.228 135.744 102.913 136.422C102.599 137.097 102.163 137.619 101.607 137.991C101.05 138.358 100.408 138.542 99.6804 138.542C99.1198 138.542 98.6709 138.449 98.3338 138.263C97.9967 138.074 97.7372 137.86 97.5554 137.621C97.3736 137.379 97.2334 137.178 97.1349 137.019H97.0213V141.633H95.6804ZM96.9986 133.996C96.9986 134.655 97.0952 135.237 97.2884 135.741C97.4815 136.241 97.7637 136.633 98.1349 136.917C98.5062 137.197 98.9607 137.337 99.4986 137.337C100.059 137.337 100.527 137.189 100.902 136.894C101.281 136.595 101.565 136.193 101.754 135.689C101.947 135.182 102.044 134.617 102.044 133.996C102.044 133.383 101.949 132.83 101.76 132.337C101.574 131.841 101.292 131.449 100.913 131.161C100.538 130.869 100.067 130.723 99.4986 130.723C98.9531 130.723 98.4948 130.862 98.1236 131.138C97.7524 131.411 97.4721 131.794 97.2827 132.286C97.0933 132.775 96.9986 133.345 96.9986 133.996ZM106.771 126.723V138.36H105.43V126.723H106.771ZM111.795 138.564C111.242 138.564 110.741 138.46 110.29 138.252C109.839 138.04 109.481 137.735 109.216 137.337C108.951 136.936 108.818 136.451 108.818 135.883C108.818 135.383 108.917 134.977 109.114 134.667C109.311 134.352 109.574 134.106 109.903 133.928C110.233 133.75 110.597 133.617 110.994 133.53C111.396 133.439 111.799 133.367 112.205 133.314C112.735 133.246 113.165 133.195 113.494 133.161C113.828 133.123 114.07 133.061 114.222 132.973C114.377 132.886 114.455 132.735 114.455 132.519V132.473C114.455 131.913 114.301 131.477 113.994 131.167C113.691 130.856 113.231 130.701 112.614 130.701C111.973 130.701 111.472 130.841 111.108 131.121C110.744 131.402 110.489 131.701 110.341 132.019L109.068 131.564C109.295 131.034 109.598 130.621 109.977 130.326C110.36 130.027 110.777 129.818 111.227 129.701C111.682 129.58 112.129 129.519 112.568 129.519C112.848 129.519 113.17 129.553 113.534 129.621C113.902 129.686 114.256 129.82 114.597 130.025C114.941 130.229 115.227 130.538 115.455 130.951C115.682 131.364 115.795 131.917 115.795 132.61V138.36H114.455V137.178H114.386C114.295 137.367 114.144 137.57 113.932 137.786C113.72 138.002 113.438 138.186 113.085 138.337C112.733 138.489 112.303 138.564 111.795 138.564ZM112 137.36C112.53 137.36 112.977 137.256 113.341 137.047C113.708 136.839 113.985 136.57 114.17 136.241C114.36 135.911 114.455 135.564 114.455 135.201V133.973C114.398 134.042 114.273 134.104 114.08 134.161C113.89 134.214 113.67 134.261 113.42 134.303C113.174 134.341 112.934 134.375 112.699 134.405C112.468 134.432 112.28 134.455 112.136 134.473C111.788 134.519 111.462 134.593 111.159 134.695C110.86 134.794 110.617 134.943 110.432 135.144C110.25 135.341 110.159 135.61 110.159 135.951C110.159 136.417 110.331 136.769 110.676 137.008C111.025 137.242 111.466 137.36 112 137.36ZM122.038 129.633V130.769H117.516V129.633H122.038ZM118.834 127.542H120.175V135.86C120.175 136.239 120.23 136.523 120.339 136.712C120.453 136.898 120.597 137.023 120.771 137.087C120.949 137.148 121.137 137.178 121.334 137.178C121.482 137.178 121.603 137.17 121.697 137.155C121.792 137.136 121.868 137.121 121.925 137.11L122.197 138.314C122.107 138.348 121.98 138.383 121.817 138.417C121.654 138.455 121.447 138.473 121.197 138.473C120.819 138.473 120.447 138.392 120.084 138.229C119.724 138.066 119.425 137.818 119.186 137.485C118.951 137.152 118.834 136.731 118.834 136.223V127.542ZM127.621 138.542C126.78 138.542 126.054 138.356 125.445 137.985C124.839 137.61 124.371 137.087 124.041 136.417C123.715 135.742 123.553 134.958 123.553 134.064C123.553 133.17 123.715 132.383 124.041 131.701C124.371 131.015 124.829 130.481 125.416 130.098C126.007 129.712 126.696 129.519 127.484 129.519C127.939 129.519 128.388 129.595 128.831 129.746C129.274 129.898 129.678 130.144 130.041 130.485C130.405 130.822 130.695 131.269 130.911 131.826C131.126 132.383 131.234 133.068 131.234 133.883V134.451H124.507V133.292H129.871C129.871 132.799 129.772 132.36 129.575 131.973C129.382 131.587 129.106 131.282 128.746 131.059C128.39 130.835 127.969 130.723 127.484 130.723C126.95 130.723 126.488 130.856 126.098 131.121C125.712 131.383 125.414 131.723 125.206 132.144C124.998 132.564 124.893 133.015 124.893 133.496V134.269C124.893 134.928 125.007 135.487 125.234 135.945C125.465 136.4 125.786 136.746 126.195 136.985C126.604 137.22 127.079 137.337 127.621 137.337C127.973 137.337 128.291 137.288 128.575 137.189C128.863 137.087 129.111 136.936 129.32 136.735C129.528 136.53 129.689 136.277 129.803 135.973L131.098 136.337C130.962 136.777 130.732 137.163 130.411 137.496C130.089 137.826 129.691 138.083 129.217 138.269C128.744 138.451 128.212 138.542 127.621 138.542Z" fill="#0A85D1"/>
<path d="M144.212 138.36L143.337 137.496L146.94 133.894H137.61V132.644H146.94L143.337 129.053L144.212 128.178L149.303 133.269L144.212 138.36Z" fill="#0A85D1"/>
<defs>
<clipPath id="clip0_5001_374">
<rect width="26" height="26" fill="white" transform="translate(34 26.4199)"/>
</clipPath>
</defs>
</svg>
