<svg width="308" height="290" viewBox="0 0 308 290" fill="none" xmlns="http://www.w3.org/2000/svg">
<path d="M4.44 24H2.16V7.296H4.44V24ZM13.4974 24.336C12.3214 24.336 11.3134 24.072 10.4254 23.52C9.53738 22.968 8.86538 22.224 8.38538 21.24C7.88138 20.256 7.64138 19.128 7.64138 17.856C7.64138 16.584 7.88138 15.48 8.38538 14.496C8.86538 13.512 9.53738 12.744 10.4254 12.192C11.3134 11.64 12.3214 11.376 13.4974 11.376C14.9134 11.376 16.0654 11.76 16.9534 12.528C17.8414 13.32 18.3694 14.28 18.5614 15.432H16.3294C16.2094 14.832 15.9214 14.352 15.4414 13.944C14.9614 13.536 14.3134 13.344 13.4734 13.344C12.3934 13.344 11.5294 13.752 10.8574 14.568C10.1614 15.408 9.82538 16.488 9.82538 17.856C9.82538 19.224 10.1614 20.328 10.8574 21.144C11.5294 21.96 12.3934 22.368 13.4734 22.368C14.3134 22.368 14.9614 22.176 15.4654 21.792C15.9454 21.432 16.2334 20.928 16.3534 20.304H18.5614C18.4414 21.072 18.1534 21.768 17.7214 22.368C17.2654 22.968 16.6894 23.448 15.9934 23.808C15.2734 24.168 14.4334 24.336 13.4974 24.336ZM26.4366 24.336C25.2846 24.336 24.2526 24.072 23.3646 23.52C22.4766 22.968 21.7806 22.224 21.2766 21.24C20.7726 20.256 20.5086 19.128 20.5086 17.856C20.5086 16.584 20.7726 15.456 21.2766 14.472C21.7806 13.488 22.4766 12.744 23.3646 12.192C24.2526 11.64 25.2846 11.376 26.4366 11.376C27.5886 11.376 28.6206 11.64 29.5086 12.192C30.3966 12.744 31.1166 13.488 31.6206 14.472C32.1246 15.456 32.3646 16.584 32.3646 17.856C32.3646 19.128 32.1246 20.256 31.6206 21.24C31.1166 22.224 30.3966 22.968 29.5086 23.52C28.6206 24.072 27.5886 24.336 26.4366 24.336ZM26.4366 22.368C27.5406 22.368 28.4526 21.96 29.1486 21.144C29.8446 20.328 30.1806 19.224 30.1806 17.856C30.1806 16.488 29.8446 15.384 29.1486 14.568C28.4526 13.752 27.5406 13.344 26.4366 13.344C25.3326 13.344 24.4446 13.752 23.7486 14.568C23.0526 15.384 22.6926 16.488 22.6926 17.856C22.6926 19.224 23.0526 20.328 23.7486 21.144C24.4446 21.96 25.3326 22.368 26.4366 22.368ZM37.3344 16.728V24H35.1984V11.712H37.2864V13.368C37.7184 12.72 38.2704 12.24 38.9424 11.88C39.6144 11.544 40.3584 11.376 41.1504 11.376C42.0624 11.376 42.8544 11.592 43.5024 12.024C44.1504 12.456 44.6304 13.056 44.9904 13.8C45.3504 14.544 45.5184 15.408 45.5184 16.392V24H43.3824V16.8C43.3824 15.72 43.1424 14.88 42.6624 14.256C42.1824 13.656 41.4864 13.344 40.5504 13.344C39.9744 13.344 39.4464 13.464 38.9664 13.728C38.4624 13.992 38.0784 14.376 37.7904 14.88C37.4784 15.384 37.3344 16.008 37.3344 16.728ZM53.3471 24.36C51.9071 24.36 50.7311 24.024 49.7951 23.328C48.8591 22.656 48.3071 21.792 48.1151 20.76H50.2751C50.3951 21.216 50.7311 21.624 51.2831 21.96C51.8111 22.296 52.4831 22.464 53.2991 22.464C54.0911 22.464 54.7391 22.296 55.2191 21.96C55.6991 21.648 55.9391 21.192 55.9391 20.616C55.9391 20.16 55.7711 19.776 55.4351 19.464C55.0991 19.176 54.5231 18.984 53.7071 18.864L51.8351 18.624C49.5071 18.336 48.3551 17.208 48.3551 15.216C48.3551 14.472 48.5711 13.824 48.9791 13.224C49.3871 12.648 49.9391 12.192 50.6591 11.856C51.3551 11.544 52.1711 11.376 53.0831 11.376C54.4031 11.376 55.4831 11.688 56.3231 12.336C57.1631 12.984 57.6911 13.8 57.9071 14.784H55.7711C55.6031 14.28 55.3151 13.92 54.8591 13.656C54.4031 13.392 53.8271 13.272 53.1311 13.272C52.3391 13.272 51.7151 13.44 51.2591 13.776C50.7791 14.136 50.5391 14.592 50.5391 15.144C50.5391 15.6 50.7071 15.96 51.0431 16.2C51.3791 16.44 51.9311 16.608 52.6991 16.704L54.5711 16.944C55.7471 17.088 56.6351 17.496 57.2351 18.144C57.8351 18.792 58.1231 19.608 58.1231 20.544C58.1231 21.312 57.9071 21.984 57.4991 22.56C57.0911 23.136 56.5151 23.568 55.7951 23.88C55.0511 24.216 54.2351 24.36 53.3471 24.36Z" fill="white"/>
<rect x="0.5" y="70.5" width="307" height="219" rx="7.5" fill="#181818"/>
<rect x="0.5" y="70.5" width="307" height="219" rx="7.5" stroke="#F50723" stroke-dasharray="10 5"/>
<circle cx="44" cy="114" r="9.23077" stroke="white" stroke-width="1.53846"/>
<path d="M44.4638 111.668C44.2054 111.668 43.9715 111.569 43.7869 111.385C43.59 111.2 43.4915 110.966 43.4915 110.695C43.4915 110.425 43.59 110.191 43.7869 110.006C43.9715 109.822 44.2054 109.723 44.4638 109.723C44.7223 109.723 44.9562 109.822 45.1531 110.006C45.3377 110.191 45.4362 110.425 45.4362 110.695C45.4362 110.966 45.3377 111.2 45.1531 111.385C44.9562 111.569 44.7223 111.668 44.4638 111.668ZM43.6762 118.769V112.406H45.2392V118.769H43.6762Z" fill="white"/>
<path d="M88.5096 107.484C88.8501 107.484 89.6592 107.7 89.6592 107.7C91.851 108.202 93.3937 110.221 93.3937 112.5V118.635L93.8418 119.085L94.2163 119.461H82.7068L83.0812 119.085L83.5294 118.635V112.5C83.5294 110.221 85.0721 108.202 87.2639 107.7C87.2639 107.7 88.1313 107.484 88.4135 107.484M88.4615 104C87.6153 104 86.9683 104.65 86.9683 105.5V106.2C84.1311 106.85 81.9909 109.45 81.9909 112.5V118L80 120V121H96.9231V120L94.9322 118V112.5C94.9322 109.45 92.792 106.85 89.9548 106.2V105.5C89.9548 104.65 89.3078 104 88.4615 104ZM90.4525 122H86.4706C86.4706 123.1 87.3664 124 88.4615 124C89.5567 124 90.4525 123.1 90.4525 122Z" fill="white"/>
<circle cx="130.695" cy="112.696" r="7.82609" stroke="white" stroke-width="1.73913"/>
<path d="M141.564 124L135.604 117.966" stroke="white" stroke-width="1.73913"/>
<path d="M171.85 122L180 114L171.85 106" stroke="white" stroke-width="2.17355" stroke-linecap="square"/>
<path fill-rule="evenodd" clip-rule="evenodd" d="M218.982 107.376V109.995C218.982 110.172 218.947 110.351 218.873 110.517C217.71 113.153 215.994 114.445 214.348 114.739C214.308 114.746 214.275 114.766 214.257 114.786C214.248 114.795 214.245 114.801 214.245 114.803L214.244 119.033C214.244 119.033 214.246 119.035 214.248 119.037C214.254 119.043 214.264 119.047 214.275 119.046C215.623 118.965 216.497 119.109 217.168 119.337C217.497 119.449 217.764 119.578 217.989 119.688C218.008 119.698 218.028 119.707 218.046 119.716C218.249 119.817 218.401 119.891 218.563 119.949C218.654 119.981 218.93 120.022 219.41 120.044C219.859 120.064 220.414 120.067 221.006 120.057C222.19 120.037 223.492 119.971 224.328 119.915L224.348 119.914H224.368C224.46 119.914 224.518 119.902 224.551 119.892C224.581 119.882 224.592 119.873 224.594 119.872C224.595 119.87 224.6 119.866 224.607 119.853C224.615 119.838 224.626 119.81 224.635 119.763C224.681 119.534 224.631 119.201 224.561 118.808C224.483 118.377 224.701 118.003 224.991 117.811C225.496 117.477 225.509 117.072 225.464 116.935C225.382 116.682 225.353 116.306 225.566 115.972C225.777 115.642 225.771 115.43 225.739 115.3C225.7 115.141 225.593 114.984 225.439 114.834C225.094 114.496 225.054 113.98 225.255 113.595C225.34 113.431 225.34 113.325 225.328 113.258C225.313 113.18 225.269 113.091 225.184 112.995C225.099 112.899 224.989 112.818 224.888 112.762C224.841 112.736 224.802 112.72 224.777 112.711H221.354V110.473C221.354 108.507 220.901 107.778 220.528 107.504C220.144 107.221 219.61 107.236 218.982 107.376ZM221.252 106.464C222.128 107.108 222.598 108.385 222.598 110.473V111.432H224.822C224.958 111.432 225.084 111.468 225.171 111.498C225.27 111.532 225.374 111.579 225.476 111.635C225.678 111.746 225.905 111.911 226.102 112.131C226.298 112.352 226.482 112.649 226.55 113.019C226.611 113.349 226.573 113.696 226.426 114.042C226.631 114.269 226.847 114.584 226.946 114.989C227.067 115.484 226.991 116.027 226.661 116.584C226.867 117.3 226.591 118.183 225.82 118.775C225.878 119.114 225.94 119.593 225.854 120.021C225.797 120.304 225.667 120.618 225.388 120.856C225.113 121.09 224.766 121.189 224.39 121.192C223.539 121.249 222.227 121.316 221.026 121.335C220.422 121.345 219.839 121.343 219.354 121.321C218.9 121.3 218.445 121.26 218.157 121.157C217.923 121.074 217.706 120.967 217.514 120.872C217.493 120.862 217.472 120.851 217.451 120.841C217.236 120.735 217.028 120.637 216.776 120.551C216.284 120.383 215.572 120.249 214.348 120.323C213.644 120.365 213 119.803 213 119.034V114.804C213 114.077 213.563 113.581 214.135 113.479C215.284 113.274 216.703 112.335 217.738 109.993V107.37C217.738 106.797 218.114 106.264 218.693 106.133C219.357 105.982 220.39 105.83 221.252 106.464Z" fill="white"/>
<path fill-rule="evenodd" clip-rule="evenodd" d="M265.018 119.624V117.005C265.018 116.828 265.053 116.649 265.127 116.483C266.29 113.847 268.006 112.555 269.652 112.261C269.692 112.254 269.725 112.234 269.743 112.214C269.752 112.205 269.755 112.199 269.755 112.197L269.756 107.967C269.756 107.967 269.754 107.965 269.752 107.963C269.746 107.957 269.736 107.953 269.725 107.954C268.377 108.035 267.503 107.891 266.832 107.663C266.503 107.551 266.236 107.422 266.011 107.312C265.992 107.302 265.972 107.293 265.954 107.284C265.751 107.183 265.599 107.109 265.437 107.051C265.346 107.019 265.07 106.978 264.59 106.956C264.141 106.936 263.586 106.933 262.994 106.943C261.81 106.963 260.508 107.029 259.672 107.085L259.652 107.086H259.632C259.54 107.086 259.482 107.098 259.449 107.108C259.419 107.118 259.408 107.127 259.406 107.128C259.405 107.13 259.4 107.134 259.393 107.147C259.385 107.162 259.374 107.19 259.365 107.237C259.319 107.466 259.369 107.799 259.439 108.192C259.517 108.623 259.299 108.997 259.009 109.189C258.504 109.523 258.491 109.928 258.536 110.065C258.618 110.318 258.647 110.694 258.434 111.028C258.223 111.358 258.229 111.57 258.261 111.7C258.3 111.859 258.407 112.016 258.561 112.166C258.906 112.504 258.946 113.02 258.745 113.405C258.66 113.569 258.66 113.675 258.672 113.742C258.687 113.82 258.731 113.909 258.816 114.005C258.901 114.101 259.011 114.182 259.112 114.238C259.159 114.264 259.198 114.28 259.223 114.289H262.646V116.527C262.646 118.493 263.099 119.222 263.472 119.496C263.856 119.779 264.39 119.764 265.018 119.624ZM262.748 120.536C261.872 119.892 261.402 118.615 261.402 116.527V115.568H259.178C259.042 115.568 258.916 115.532 258.829 115.502C258.73 115.468 258.626 115.421 258.524 115.365C258.322 115.254 258.095 115.089 257.898 114.869C257.702 114.648 257.518 114.351 257.45 113.981C257.389 113.651 257.427 113.304 257.574 112.958C257.369 112.731 257.153 112.416 257.054 112.011C256.933 111.516 257.009 110.973 257.339 110.416C257.133 109.7 257.409 108.817 258.18 108.225C258.122 107.886 258.06 107.407 258.146 106.979C258.203 106.696 258.333 106.382 258.612 106.144C258.887 105.91 259.234 105.811 259.61 105.808C260.461 105.751 261.773 105.684 262.974 105.665C263.578 105.655 264.161 105.657 264.646 105.679C265.1 105.7 265.555 105.74 265.843 105.843C266.077 105.926 266.294 106.033 266.486 106.128C266.507 106.138 266.528 106.149 266.549 106.159C266.764 106.265 266.972 106.363 267.224 106.449C267.716 106.617 268.428 106.751 269.652 106.677C270.356 106.635 271 107.197 271 107.966V112.196C271 112.923 270.437 113.419 269.865 113.521C268.716 113.726 267.297 114.665 266.262 117.007V119.63C266.262 120.203 265.886 120.736 265.307 120.867C264.643 121.018 263.61 121.17 262.748 120.536Z" fill="white"/>
<path fill-rule="evenodd" clip-rule="evenodd" d="M43.2 157.2L43.2 150H44.8L44.8 157.2L52 157.2V158.8L44.8 158.8L44.8 166H43.2L43.2 158.8L36 158.8V157.2L43.2 157.2Z" fill="white"/>
<path fill-rule="evenodd" clip-rule="evenodd" d="M83 156L88 161L93 156H83Z" fill="white"/>
<path fill-rule="evenodd" clip-rule="evenodd" d="M137 161L132 156L127 161H137Z" fill="white"/>
<path d="M176.382 151.796L176.829 155.068L183.764 155.593V159.636L174.714 158.586V155.84L168.236 154.79V150.222L176.382 151.796ZM178.215 149.574L166 148V168H168.236V157.012L172.732 157.969L172.789 160.284L186 161.858V153.895L178.663 153.37L178.215 149.574Z" fill="white"/>
<path d="M215.8 167L223 158.17L215.8 149" stroke="white" stroke-width="2.28" stroke-linecap="square"/>
<path fill-rule="evenodd" clip-rule="evenodd" d="M263.591 158L261.046 155.454L261.611 154.889L264.157 157.434L266.702 154.889L267.268 155.454L264.723 158L267.268 160.546L266.702 161.111L264.157 158.566L261.611 161.111L261.046 160.546L263.591 158Z" fill="#EB3942"/>
<circle cx="264" cy="158" r="7.5" stroke="#EB3942"/>
<path d="M41.5 194L34 201.812L41.5 209.625" stroke="white" stroke-width="1.875" stroke-linecap="square"/>
<line x1="54" y1="201.812" x2="34.625" y2="201.812" stroke="white" stroke-width="1.875"/>
<path d="M80 210L88 202L96 194M80 194L96 210" stroke="white" stroke-width="1.23077"/>
<path d="M132 211V202V193M123 202H141" stroke="white" stroke-width="1.21218"/>
<path d="M182.383 201.043C183.155 201.447 183.155 202.553 182.383 202.957L168.581 210.174C167.862 210.55 167 210.028 167 209.217L167 202L167 194.783C167 193.972 167.862 193.45 168.581 193.826L182.383 201.043Z" fill="white"/>
<path d="M224.928 203.282L225.534 199.33H221.743V196.766C221.743 195.685 222.272 194.631 223.97 194.631H225.694V191.267C225.694 191.267 224.13 191 222.634 191C219.512 191 217.471 192.892 217.471 196.318V199.33H214V203.282H217.471V212.834C218.167 212.943 218.88 213 219.607 213C220.333 213 221.047 212.943 221.743 212.834V203.282H224.928Z" fill="white"/>
<path d="M259.919 210.876C268.22 210.876 272.761 203.998 272.761 198.033C272.761 197.838 272.761 197.644 272.748 197.45C273.631 196.811 274.394 196.02 275 195.114C274.176 195.479 273.302 195.718 272.408 195.824C273.35 195.26 274.055 194.372 274.392 193.327C273.506 193.853 272.537 194.223 271.526 194.423C270.672 193.515 269.48 193 268.235 193C265.756 193 263.717 195.039 263.717 197.518C263.717 197.862 263.756 198.205 263.834 198.539C260.206 198.358 256.822 196.642 254.531 193.823C253.34 195.874 253.956 198.532 255.929 199.849C255.21 199.828 254.508 199.634 253.88 199.284V199.341C253.881 201.482 255.403 203.342 257.501 203.766C256.837 203.947 256.139 203.973 255.463 203.843C256.053 205.677 257.754 206.942 259.68 206.978C258.082 208.234 256.107 208.916 254.074 208.914C253.715 208.913 253.357 208.891 253 208.849C255.064 210.173 257.466 210.876 259.919 210.873" fill="white"/>
<mask id="mask0_212_22070" style="mask-type:luminance" maskUnits="userSpaceOnUse" x="33" y="235" width="22" height="22">
<path d="M39.4672 235.131C38.3026 235.186 37.5072 235.373 36.8121 235.645C36.0925 235.926 35.4826 236.301 34.8758 236.911C34.2684 237.52 33.8953 238.131 33.6169 238.852C33.3474 239.548 33.1648 240.344 33.1133 241.51C33.0623 242.677 33.0506 243.049 33.0562 246.022C33.0619 248.993 33.075 249.367 33.1307 250.534C33.1864 251.699 33.3722 252.494 33.6446 253.189C33.9254 253.909 34.301 254.518 34.9106 255.125C35.5198 255.733 36.1312 256.105 36.8518 256.384C37.5479 256.653 38.3441 256.837 39.509 256.888C40.6765 256.939 41.0492 256.95 44.0206 256.945C46.9935 256.939 47.3662 256.926 48.5336 256.871C49.6982 256.815 50.4929 256.628 51.1887 256.357C51.9082 256.075 52.5182 255.7 53.1249 255.091C53.7317 254.481 54.1048 253.87 54.3832 253.149C54.6527 252.453 54.836 251.657 54.8867 250.493C54.9378 249.325 54.9499 248.952 54.9442 245.98C54.9385 243.008 54.9251 242.635 54.8697 241.468C54.8144 240.303 54.6279 239.508 54.3559 238.812C54.0746 238.093 53.6995 237.484 53.0902 236.876C52.481 236.269 51.8696 235.895 51.149 235.618C50.4525 235.348 49.6567 235.165 48.4917 235.114C47.3243 235.062 46.9516 235.051 43.9791 235.057C41.0073 235.062 40.6346 235.075 39.4672 235.131M39.5949 254.918C38.5278 254.871 37.9483 254.694 37.5621 254.545C37.0508 254.347 36.6859 254.11 36.3018 253.729C35.9184 253.346 35.6805 252.982 35.4808 252.472C35.3308 252.086 35.1503 251.507 35.1003 250.44C35.046 249.286 35.0336 248.94 35.0283 246.018C35.0227 243.096 35.0333 242.75 35.0836 241.595C35.1294 240.529 35.3078 239.949 35.456 239.563C35.6539 239.051 35.8904 238.686 36.2723 238.302C36.655 237.918 37.0188 237.681 37.5295 237.481C37.9153 237.331 38.4941 237.152 39.5608 237.101C40.7151 237.046 41.0609 237.035 43.9826 237.029C46.9051 237.023 47.2513 237.033 48.4059 237.084C49.4723 237.131 50.0525 237.307 50.438 237.457C50.9497 237.654 51.3146 237.89 51.6983 238.273C52.082 238.656 52.3199 239.019 52.5196 239.53C52.6703 239.915 52.8494 240.495 52.8998 241.561C52.9547 242.715 52.9671 243.062 52.9724 245.983C52.9781 248.906 52.9675 249.252 52.9168 250.406C52.8703 251.473 52.6934 252.053 52.5444 252.439C52.3465 252.95 52.11 253.315 51.7277 253.699C51.3454 254.082 50.9816 254.321 50.4706 254.52C50.0854 254.671 49.506 254.85 48.44 254.901C47.2857 254.955 46.9399 254.968 44.0171 254.973C41.0953 254.979 40.7495 254.968 39.5949 254.918ZM48.5176 240.15C48.519 240.875 49.1084 241.462 49.8333 241.46C50.5585 241.459 51.1454 240.87 51.1444 240.145C51.1429 239.42 50.5535 238.833 49.8283 238.834C49.1031 238.836 48.5162 239.425 48.5176 240.15M38.3803 246.011C38.3863 249.115 40.9073 251.626 44.0107 251.62C47.1144 251.614 49.6266 249.094 49.6205 245.99C49.6145 242.887 47.0931 240.374 43.989 240.38C40.8857 240.387 38.3742 242.908 38.3803 246.011ZM40.3516 246.007C40.3481 243.993 41.9787 242.356 43.9929 242.353C46.0076 242.349 47.6445 243.979 47.6484 245.994C47.6524 248.009 46.0218 249.645 44.0068 249.649C41.9925 249.653 40.3555 248.022 40.3516 246.007Z" fill="white"/>
</mask>
<g mask="url(#mask0_212_22070)">
<rect x="32.0547" y="234.086" width="23.873" height="23.873" fill="white"/>
</g>
<path d="M98.5395 240.403C98.2865 239.456 97.5411 238.711 96.5945 238.458C94.8787 237.998 87.9992 237.998 87.9992 237.998C87.9992 237.998 81.1197 237.998 79.4038 238.458C78.4574 238.711 77.7119 239.456 77.4589 240.403C76.9993 242.118 76.9993 245.698 76.9993 245.698C76.9993 245.698 76.9993 249.277 77.4589 250.993C77.7119 251.94 78.4574 252.685 79.4038 252.938C81.1197 253.398 87.9992 253.398 87.9992 253.398C87.9992 253.398 94.8787 253.398 96.5945 252.938C97.5411 252.685 98.2865 251.94 98.5395 250.993C98.9993 249.277 98.9993 245.698 98.9993 245.698C98.9993 245.698 98.9993 242.118 98.5395 240.403Z" fill="white"/>
<path d="M85.7996 248.998L91.5152 245.698L85.7996 242.398V248.998Z" fill="black"/>
<rect x="122.878" y="235.88" width="17.6" height="17.6" rx="2.64" stroke="#B3B3B3" stroke-width="1.76"/>
<rect x="131.678" y="252.6" width="2.64" height="1.76" fill="#141414"/>
<path d="M128.158 257L131.998 253.48L128.158 249.96" stroke="#B3B3B3" stroke-width="1.32" stroke-linecap="round"/>
<rect x="126.399" y="240.72" width="2.64" height="2.64" rx="1.32" fill="#B3B3B3"/>
<rect x="134.318" y="240.72" width="2.64" height="2.64" rx="1.32" fill="#B3B3B3"/>
<path d="M129.918 246.88C129.918 246.88 131.783 247.32 132.998 247.32C134.213 247.32 136.078 246.88 136.078 246.88" stroke="#B3B3B3" stroke-width="1.32" stroke-linecap="round"/>
<circle cx="175.883" cy="239.654" r="3.80743" stroke="#B3B3B3" stroke-width="1.69219"/>
<path d="M183.921 252.768C183.921 253.77 183.72 254.406 183.434 254.827C183.155 255.239 182.733 255.536 182.108 255.746C181.467 255.96 180.654 256.068 179.657 256.117C178.835 256.157 177.935 256.155 176.948 256.153C176.738 256.153 176.524 256.152 176.306 256.152C176.104 256.152 175.905 256.153 175.708 256.153C173.442 256.156 171.491 256.159 170.051 255.736C169.295 255.514 168.767 255.197 168.421 254.77C168.082 254.35 167.845 253.734 167.845 252.768C167.845 248.929 171.298 245.999 175.883 245.999C180.467 245.999 183.921 248.929 183.921 252.768Z" stroke="#B3B3B3" stroke-width="1.69219"/>
<circle cx="219.998" cy="246" r="10.12" stroke="#B3B3B3" stroke-width="1.76"/>
<path d="M218.7 247.864V247.55C218.7 246.997 218.805 246.518 219.015 246.144C219.209 245.77 219.613 245.396 220.211 245.052C220.72 244.753 221.049 244.513 221.214 244.319C221.363 244.139 221.438 243.945 221.438 243.72C221.438 243.466 221.318 243.242 221.064 243.047C220.81 242.868 220.481 242.778 220.062 242.778C219.628 242.778 219.269 242.868 219 243.062C218.73 243.257 218.566 243.496 218.491 243.78H216.217C216.292 243.197 216.501 242.658 216.845 242.194C217.19 241.731 217.638 241.357 218.207 241.072C218.775 240.803 219.448 240.669 220.211 240.669C220.915 240.669 221.543 240.788 222.096 241.043C222.65 241.297 223.069 241.656 223.383 242.105C223.697 242.568 223.847 243.092 223.847 243.705C223.847 244.259 223.697 244.738 223.398 245.142C223.099 245.546 222.65 245.92 222.066 246.264C221.603 246.548 221.289 246.787 221.154 246.997C221.019 247.221 220.944 247.445 220.944 247.67V247.864H218.7ZM219.927 251.544C219.538 251.544 219.209 251.41 218.925 251.126C218.641 250.841 218.506 250.512 218.506 250.108C218.506 249.704 218.641 249.375 218.925 249.091C219.209 248.807 219.538 248.672 219.927 248.672C220.331 248.672 220.66 248.807 220.944 249.091C221.229 249.375 221.363 249.704 221.363 250.108C221.363 250.512 221.229 250.841 220.944 251.126C220.66 251.41 220.331 251.544 219.927 251.544Z" fill="#B3B3B3"/>
<path d="M254.684 257C254.44 257.001 254.199 256.948 253.977 256.847C253.755 256.745 253.558 256.596 253.4 256.411C253.241 256.225 253.125 256.007 253.059 255.772C252.993 255.537 252.979 255.291 253.018 255.05L253.725 250.583C253.778 250.231 253.944 249.906 254.197 249.656L268.102 235.751C268.585 235.27 269.238 235 269.92 235C270.601 235 271.255 235.27 271.738 235.751L274.247 238.26C274.728 238.743 274.998 239.397 274.998 240.078C274.998 240.759 274.728 241.413 274.247 241.896L260.342 255.801C260.092 256.054 259.767 256.219 259.415 256.273L254.948 256.98C254.86 256.993 254.772 256.999 254.684 257ZM269.92 236.598C269.792 236.597 269.665 236.622 269.546 236.671C269.427 236.719 269.319 236.791 269.229 236.881L255.327 250.795C255.32 250.801 255.315 250.808 255.31 250.816C255.306 250.824 255.304 250.833 255.303 250.843L254.596 255.302C254.594 255.315 254.595 255.329 254.6 255.342C254.604 255.355 254.611 255.367 254.621 255.377C254.631 255.387 254.642 255.394 254.656 255.398C254.669 255.403 254.682 255.404 254.696 255.402L259.163 254.694C259.179 254.691 259.193 254.683 259.203 254.67L273.108 240.769C273.291 240.586 273.394 240.338 273.394 240.08C273.394 239.821 273.291 239.574 273.108 239.391L270.607 236.881C270.517 236.791 270.41 236.719 270.292 236.67C270.174 236.622 270.047 236.597 269.92 236.598Z" fill="#B3B3B3"/>
<path d="M271.412 244.264C271.313 244.264 271.214 244.245 271.123 244.208C271.031 244.17 270.947 244.115 270.877 244.045L266.147 239.322C266.006 239.181 265.927 238.989 265.927 238.79C265.927 238.59 266.006 238.398 266.147 238.257C266.289 238.116 266.481 238.036 266.681 238.036C266.881 238.036 267.072 238.116 267.214 238.257L271.943 242.98C272.013 243.05 272.069 243.133 272.107 243.225C272.145 243.316 272.164 243.414 272.164 243.513C272.164 243.612 272.145 243.71 272.107 243.801C272.069 243.892 272.013 243.975 271.943 244.045C271.802 244.185 271.611 244.264 271.412 244.264ZM259.116 256.246C258.917 256.246 258.899 256.293 258.757 256.153L254.024 251.426C253.894 251.282 253.825 251.094 253.83 250.901C253.835 250.708 253.914 250.524 254.052 250.388C254.189 250.252 254.373 250.173 254.566 250.169C254.76 250.164 254.947 250.234 255.091 250.364L259.824 255.088C259.929 255.193 260 255.327 260.029 255.473C260.058 255.619 260.042 255.77 259.985 255.908C259.928 256.045 259.818 256.07 259.694 256.153C259.57 256.235 259.265 256.246 259.116 256.246Z" fill="#B3B3B3"/>
<path d="M255.365 255.453C255.202 255.455 254.976 255.788 254.839 255.698C254.703 255.609 254.596 255.48 254.533 255.329C254.47 255.179 254.519 254.633 254.551 254.472C254.583 254.312 254.662 254.165 254.778 254.05L267.988 240.857C268.06 240.767 268.15 240.692 268.253 240.639C268.356 240.586 268.468 240.555 268.584 240.548C268.699 240.542 268.815 240.56 268.923 240.601C269.031 240.642 269.129 240.706 269.211 240.787C269.293 240.869 269.357 240.967 269.398 241.076C269.439 241.184 269.457 241.299 269.45 241.415C269.444 241.53 269.413 241.643 269.359 241.746C269.306 241.848 269.232 241.939 269.141 242.01L255.948 255.22C255.792 255.372 255.583 255.456 255.365 255.453Z" fill="#B3B3B3"/>
</svg>
