<svg width="1192" height="72" viewBox="0 0 1192 72" fill="none" xmlns="http://www.w3.org/2000/svg">
<rect x="0.5" y="0.5" width="1191" height="71" fill="white"/>
<rect x="0.5" y="0.5" width="1191" height="71" stroke="#D9D9D9"/>
<path d="M33.674 30.436H37.886C38.666 30.436 39.374 30.568 40.01 30.832C40.646 31.096 41.186 31.492 41.63 32.02C42.086 32.536 42.434 33.19 42.674 33.982C42.914 34.762 43.034 35.674 43.034 36.718C43.034 37.762 42.914 38.68 42.674 39.472C42.434 40.252 42.086 40.906 41.63 41.434C41.186 41.95 40.646 42.34 40.01 42.604C39.374 42.868 38.666 43 37.886 43H33.674V30.436ZM37.886 41.668C38.402 41.668 38.876 41.584 39.308 41.416C39.74 41.236 40.112 40.978 40.424 40.642C40.736 40.306 40.976 39.898 41.144 39.418C41.324 38.926 41.414 38.368 41.414 37.744V35.692C41.414 35.068 41.324 34.516 41.144 34.036C40.976 33.544 40.736 33.13 40.424 32.794C40.112 32.458 39.74 32.206 39.308 32.038C38.876 31.858 38.402 31.768 37.886 31.768H35.186V41.668H37.886ZM52.3562 43C51.8162 43 51.4262 42.856 51.1862 42.568C50.9582 42.28 50.8142 41.92 50.7542 41.488H50.6642C50.4602 42.064 50.1242 42.496 49.6562 42.784C49.1882 43.072 48.6302 43.216 47.9822 43.216C46.9982 43.216 46.2302 42.964 45.6782 42.46C45.1382 41.956 44.8682 41.272 44.8682 40.408C44.8682 39.532 45.1862 38.86 45.8222 38.392C46.4702 37.924 47.4722 37.69 48.8282 37.69H50.6642V36.772C50.6642 36.112 50.4842 35.608 50.1242 35.26C49.7642 34.912 49.2122 34.738 48.4682 34.738C47.9042 34.738 47.4302 34.864 47.0462 35.116C46.6742 35.368 46.3622 35.704 46.1102 36.124L45.2462 35.314C45.4982 34.81 45.9002 34.384 46.4522 34.036C47.0042 33.676 47.7002 33.496 48.5402 33.496C49.6682 33.496 50.5442 33.772 51.1682 34.324C51.7922 34.876 52.1042 35.644 52.1042 36.628V41.74H53.1662V43H52.3562ZM48.2162 41.992C48.5762 41.992 48.9062 41.95 49.2062 41.866C49.5062 41.782 49.7642 41.662 49.9802 41.506C50.1962 41.35 50.3642 41.17 50.4842 40.966C50.6042 40.762 50.6642 40.54 50.6642 40.3V38.77H48.7562C47.9282 38.77 47.3222 38.89 46.9382 39.13C46.5662 39.37 46.3802 39.718 46.3802 40.174V40.552C46.3802 41.008 46.5422 41.362 46.8662 41.614C47.2022 41.866 47.6522 41.992 48.2162 41.992ZM58.0114 43.216C57.1474 43.216 56.4214 43.054 55.8334 42.73C55.2574 42.394 54.7594 41.95 54.3394 41.398L55.3654 40.57C55.7254 41.026 56.1274 41.38 56.5714 41.632C57.0154 41.872 57.5314 41.992 58.1194 41.992C58.7314 41.992 59.2054 41.86 59.5414 41.596C59.8894 41.332 60.0634 40.96 60.0634 40.48C60.0634 40.12 59.9434 39.814 59.7034 39.562C59.4754 39.298 59.0554 39.118 58.4434 39.022L57.7054 38.914C57.2734 38.854 56.8774 38.764 56.5174 38.644C56.1574 38.512 55.8394 38.344 55.5634 38.14C55.2994 37.924 55.0894 37.66 54.9334 37.348C54.7894 37.036 54.7174 36.664 54.7174 36.232C54.7174 35.776 54.8014 35.38 54.9694 35.044C55.1374 34.696 55.3654 34.408 55.6534 34.18C55.9534 33.952 56.3074 33.784 56.7154 33.676C57.1234 33.556 57.5614 33.496 58.0294 33.496C58.7854 33.496 59.4154 33.628 59.9194 33.892C60.4354 34.156 60.8854 34.522 61.2694 34.99L60.3154 35.854C60.1114 35.566 59.8114 35.308 59.4154 35.08C59.0194 34.84 58.5214 34.72 57.9214 34.72C57.3214 34.72 56.8654 34.852 56.5534 35.116C56.2534 35.368 56.1034 35.716 56.1034 36.16C56.1034 36.616 56.2534 36.946 56.5534 37.15C56.8654 37.354 57.3094 37.504 57.8854 37.6L58.6054 37.708C59.6374 37.864 60.3694 38.164 60.8014 38.608C61.2334 39.04 61.4494 39.61 61.4494 40.318C61.4494 41.218 61.1434 41.926 60.5314 42.442C59.9194 42.958 59.0794 43.216 58.0114 43.216ZM63.9929 29.68H65.4329V35.224H65.5049C65.7329 34.696 66.0509 34.276 66.4589 33.964C66.8789 33.652 67.4369 33.496 68.1329 33.496C69.0929 33.496 69.8489 33.808 70.4009 34.432C70.9649 35.044 71.2469 35.914 71.2469 37.042V43H69.8069V37.294C69.8069 35.626 69.1049 34.792 67.7009 34.792C67.4129 34.792 67.1309 34.828 66.8549 34.9C66.5909 34.972 66.3509 35.08 66.1349 35.224C65.9189 35.368 65.7449 35.554 65.6129 35.782C65.4929 35.998 65.4329 36.256 65.4329 36.556V43H63.9929V29.68ZM74.2234 29.68H75.6634V35.224H75.7354C75.9754 34.636 76.3234 34.204 76.7794 33.928C77.2474 33.64 77.8054 33.496 78.4534 33.496C79.0294 33.496 79.5514 33.61 80.0194 33.838C80.4874 34.066 80.8834 34.39 81.2074 34.81C81.5434 35.23 81.7954 35.74 81.9634 36.34C82.1434 36.94 82.2334 37.612 82.2334 38.356C82.2334 39.1 82.1434 39.772 81.9634 40.372C81.7954 40.972 81.5434 41.482 81.2074 41.902C80.8834 42.322 80.4874 42.646 80.0194 42.874C79.5514 43.102 79.0294 43.216 78.4534 43.216C77.1934 43.216 76.2874 42.64 75.7354 41.488H75.6634V43H74.2234V29.68ZM78.0574 41.92C78.8734 41.92 79.5154 41.668 79.9834 41.164C80.4514 40.648 80.6854 39.976 80.6854 39.148V37.564C80.6854 36.736 80.4514 36.07 79.9834 35.566C79.5154 35.05 78.8734 34.792 78.0574 34.792C77.7334 34.792 77.4214 34.84 77.1214 34.936C76.8334 35.02 76.5814 35.14 76.3654 35.296C76.1494 35.452 75.9754 35.644 75.8434 35.872C75.7234 36.088 75.6634 36.322 75.6634 36.574V40.03C75.6634 40.33 75.7234 40.6 75.8434 40.84C75.9754 41.068 76.1494 41.266 76.3654 41.434C76.5814 41.59 76.8334 41.71 77.1214 41.794C77.4214 41.878 77.7334 41.92 78.0574 41.92ZM88.1748 43.216C87.5508 43.216 86.9808 43.102 86.4648 42.874C85.9488 42.646 85.5048 42.322 85.1328 41.902C84.7728 41.47 84.4908 40.96 84.2868 40.372C84.0828 39.772 83.9808 39.1 83.9808 38.356C83.9808 37.624 84.0828 36.958 84.2868 36.358C84.4908 35.758 84.7728 35.248 85.1328 34.828C85.5048 34.396 85.9488 34.066 86.4648 33.838C86.9808 33.61 87.5508 33.496 88.1748 33.496C88.7988 33.496 89.3628 33.61 89.8668 33.838C90.3828 34.066 90.8268 34.396 91.1988 34.828C91.5708 35.248 91.8588 35.758 92.0628 36.358C92.2668 36.958 92.3688 37.624 92.3688 38.356C92.3688 39.1 92.2668 39.772 92.0628 40.372C91.8588 40.96 91.5708 41.47 91.1988 41.902C90.8268 42.322 90.3828 42.646 89.8668 42.874C89.3628 43.102 88.7988 43.216 88.1748 43.216ZM88.1748 41.938C88.9548 41.938 89.5908 41.698 90.0828 41.218C90.5748 40.738 90.8208 40.006 90.8208 39.022V37.69C90.8208 36.706 90.5748 35.974 90.0828 35.494C89.5908 35.014 88.9548 34.774 88.1748 34.774C87.3948 34.774 86.7588 35.014 86.2668 35.494C85.7748 35.974 85.5288 36.706 85.5288 37.69V39.022C85.5288 40.006 85.7748 40.738 86.2668 41.218C86.7588 41.698 87.3948 41.938 88.1748 41.938ZM101.487 43C100.947 43 100.557 42.856 100.317 42.568C100.089 42.28 99.945 41.92 99.885 41.488H99.795C99.591 42.064 99.255 42.496 98.787 42.784C98.319 43.072 97.761 43.216 97.113 43.216C96.129 43.216 95.361 42.964 94.809 42.46C94.269 41.956 93.999 41.272 93.999 40.408C93.999 39.532 94.317 38.86 94.953 38.392C95.601 37.924 96.603 37.69 97.959 37.69H99.795V36.772C99.795 36.112 99.615 35.608 99.255 35.26C98.895 34.912 98.343 34.738 97.599 34.738C97.035 34.738 96.561 34.864 96.177 35.116C95.805 35.368 95.493 35.704 95.241 36.124L94.377 35.314C94.629 34.81 95.031 34.384 95.583 34.036C96.135 33.676 96.831 33.496 97.671 33.496C98.799 33.496 99.675 33.772 100.299 34.324C100.923 34.876 101.235 35.644 101.235 36.628V41.74H102.297V43H101.487ZM97.347 41.992C97.707 41.992 98.037 41.95 98.337 41.866C98.637 41.782 98.895 41.662 99.111 41.506C99.327 41.35 99.495 41.17 99.615 40.966C99.735 40.762 99.795 40.54 99.795 40.3V38.77H97.887C97.059 38.77 96.453 38.89 96.069 39.13C95.697 39.37 95.511 39.718 95.511 40.174V40.552C95.511 41.008 95.673 41.362 95.997 41.614C96.333 41.866 96.783 41.992 97.347 41.992ZM104.352 43V33.712H105.792V35.422H105.882C106.05 34.978 106.35 34.582 106.782 34.234C107.214 33.886 107.808 33.712 108.564 33.712H109.122V35.152H108.276C107.496 35.152 106.884 35.302 106.44 35.602C106.008 35.89 105.792 36.256 105.792 36.7V43H104.352ZM116.796 41.488H116.724C116.16 42.64 115.254 43.216 114.006 43.216C113.43 43.216 112.908 43.102 112.44 42.874C111.972 42.646 111.57 42.322 111.234 41.902C110.91 41.482 110.658 40.972 110.478 40.372C110.31 39.772 110.226 39.1 110.226 38.356C110.226 37.612 110.31 36.94 110.478 36.34C110.658 35.74 110.91 35.23 111.234 34.81C111.57 34.39 111.972 34.066 112.44 33.838C112.908 33.61 113.43 33.496 114.006 33.496C114.654 33.496 115.206 33.64 115.662 33.928C116.13 34.204 116.484 34.636 116.724 35.224H116.796V29.68H118.236V43H116.796V41.488ZM114.402 41.92C114.726 41.92 115.032 41.878 115.32 41.794C115.62 41.71 115.878 41.59 116.094 41.434C116.31 41.266 116.478 41.068 116.598 40.84C116.73 40.6 116.796 40.33 116.796 40.03V36.574C116.796 36.322 116.73 36.088 116.598 35.872C116.478 35.644 116.31 35.452 116.094 35.296C115.878 35.14 115.62 35.02 115.32 34.936C115.032 34.84 114.726 34.792 114.402 34.792C113.586 34.792 112.944 35.05 112.476 35.566C112.008 36.07 111.774 36.736 111.774 37.564V39.148C111.774 39.976 112.008 40.648 112.476 41.164C112.944 41.668 113.586 41.92 114.402 41.92ZM124.088 43.216C123.224 43.216 122.498 43.054 121.91 42.73C121.334 42.394 120.836 41.95 120.416 41.398L121.442 40.57C121.802 41.026 122.204 41.38 122.648 41.632C123.092 41.872 123.608 41.992 124.196 41.992C124.808 41.992 125.282 41.86 125.618 41.596C125.966 41.332 126.14 40.96 126.14 40.48C126.14 40.12 126.02 39.814 125.78 39.562C125.552 39.298 125.132 39.118 124.52 39.022L123.782 38.914C123.35 38.854 122.954 38.764 122.594 38.644C122.234 38.512 121.916 38.344 121.64 38.14C121.376 37.924 121.166 37.66 121.01 37.348C120.866 37.036 120.794 36.664 120.794 36.232C120.794 35.776 120.878 35.38 121.046 35.044C121.214 34.696 121.442 34.408 121.73 34.18C122.03 33.952 122.384 33.784 122.792 33.676C123.2 33.556 123.638 33.496 124.106 33.496C124.862 33.496 125.492 33.628 125.996 33.892C126.512 34.156 126.962 34.522 127.346 34.99L126.392 35.854C126.188 35.566 125.888 35.308 125.492 35.08C125.096 34.84 124.598 34.72 123.998 34.72C123.398 34.72 122.942 34.852 122.63 35.116C122.33 35.368 122.18 35.716 122.18 36.16C122.18 36.616 122.33 36.946 122.63 37.15C122.942 37.354 123.386 37.504 123.962 37.6L124.682 37.708C125.714 37.864 126.446 38.164 126.878 38.608C127.31 39.04 127.526 39.61 127.526 40.318C127.526 41.218 127.22 41.926 126.608 42.442C125.996 42.958 125.156 43.216 124.088 43.216Z" fill="#272C36"/>
<path d="M898.42 41L897.44 38.116H893.492L892.512 41H891.322L894.738 31.228H896.236L899.652 41H898.42ZM895.494 32.32H895.424L893.772 37.08H897.146L895.494 32.32ZM901.271 31.228H905.289C906.101 31.228 906.735 31.4567 907.193 31.914C907.659 32.3713 907.893 32.9827 907.893 33.748C907.893 34.112 907.841 34.42 907.739 34.672C907.636 34.924 907.505 35.134 907.347 35.302C907.188 35.4607 907.015 35.582 906.829 35.666C906.642 35.7407 906.469 35.792 906.311 35.82V35.904C906.488 35.9133 906.684 35.96 906.899 36.044C907.123 36.128 907.333 36.2633 907.529 36.45C907.725 36.6273 907.888 36.8607 908.019 37.15C908.159 37.43 908.229 37.7707 908.229 38.172C908.229 38.5733 908.163 38.9467 908.033 39.292C907.911 39.6373 907.739 39.936 907.515 40.188C907.291 40.44 907.025 40.6407 906.717 40.79C906.409 40.93 906.073 41 905.709 41H901.271V31.228ZM902.447 39.964H905.345C905.849 39.964 906.245 39.838 906.535 39.586C906.824 39.3247 906.969 38.9467 906.969 38.452V37.976C906.969 37.4813 906.824 37.108 906.535 36.856C906.245 36.5947 905.849 36.464 905.345 36.464H902.447V39.964ZM902.447 35.456H905.149C905.615 35.456 905.979 35.3393 906.241 35.106C906.502 34.8727 906.633 34.5367 906.633 34.098V33.622C906.633 33.1833 906.502 32.8473 906.241 32.614C905.979 32.3807 905.615 32.264 905.149 32.264H902.447V35.456ZM913.861 41.168C912.62 41.168 911.654 40.748 910.963 39.908C910.273 39.0587 909.927 37.8127 909.927 36.17C909.927 34.5273 910.273 33.2673 910.963 32.39C911.654 31.5033 912.62 31.06 913.861 31.06C914.683 31.06 915.369 31.2467 915.919 31.62C916.479 31.9933 916.913 32.5207 917.221 33.202L916.269 33.776C916.073 33.272 915.775 32.8707 915.373 32.572C914.972 32.264 914.468 32.11 913.861 32.11C913.441 32.11 913.063 32.1893 912.727 32.348C912.401 32.5067 912.121 32.7353 911.887 33.034C911.663 33.3233 911.491 33.6733 911.369 34.084C911.248 34.4853 911.187 34.938 911.187 35.442V36.898C911.187 37.906 911.421 38.6947 911.887 39.264C912.354 39.8333 913.012 40.118 913.861 40.118C914.487 40.118 915.009 39.9593 915.429 39.642C915.849 39.3153 916.157 38.886 916.353 38.354L917.291 38.942C916.983 39.6327 916.54 40.1787 915.961 40.58C915.383 40.972 914.683 41.168 913.861 41.168ZM925.865 41.168C924.624 41.168 923.658 40.748 922.967 39.908C922.276 39.0587 921.931 37.8127 921.931 36.17C921.931 34.5273 922.276 33.2673 922.967 32.39C923.658 31.5033 924.624 31.06 925.865 31.06C926.686 31.06 927.372 31.2467 927.923 31.62C928.483 31.9933 928.917 32.5207 929.225 33.202L928.273 33.776C928.077 33.272 927.778 32.8707 927.377 32.572C926.976 32.264 926.472 32.11 925.865 32.11C925.445 32.11 925.067 32.1893 924.731 32.348C924.404 32.5067 924.124 32.7353 923.891 33.034C923.667 33.3233 923.494 33.6733 923.373 34.084C923.252 34.4853 923.191 34.938 923.191 35.442V36.898C923.191 37.906 923.424 38.6947 923.891 39.264C924.358 39.8333 925.016 40.118 925.865 40.118C926.49 40.118 927.013 39.9593 927.433 39.642C927.853 39.3153 928.161 38.886 928.357 38.354L929.295 38.942C928.987 39.6327 928.544 40.1787 927.965 40.58C927.386 40.972 926.686 41.168 925.865 41.168ZM933.734 41.168C933.249 41.168 932.806 41.0793 932.404 40.902C932.003 40.7247 931.658 40.4727 931.368 40.146C931.088 39.81 930.869 39.4133 930.71 38.956C930.552 38.4893 930.472 37.9667 930.472 37.388C930.472 36.8187 930.552 36.3007 930.71 35.834C930.869 35.3673 931.088 34.9707 931.368 34.644C931.658 34.308 932.003 34.0513 932.404 33.874C932.806 33.6967 933.249 33.608 933.734 33.608C934.22 33.608 934.658 33.6967 935.05 33.874C935.452 34.0513 935.797 34.308 936.086 34.644C936.376 34.9707 936.6 35.3673 936.758 35.834C936.917 36.3007 936.996 36.8187 936.996 37.388C936.996 37.9667 936.917 38.4893 936.758 38.956C936.6 39.4133 936.376 39.81 936.086 40.146C935.797 40.4727 935.452 40.7247 935.05 40.902C934.658 41.0793 934.22 41.168 933.734 41.168ZM933.734 40.174C934.341 40.174 934.836 39.9873 935.218 39.614C935.601 39.2407 935.792 38.6713 935.792 37.906V36.87C935.792 36.1047 935.601 35.5353 935.218 35.162C934.836 34.7887 934.341 34.602 933.734 34.602C933.128 34.602 932.633 34.7887 932.25 35.162C931.868 35.5353 931.676 36.1047 931.676 36.87V37.906C931.676 38.6713 931.868 39.2407 932.25 39.614C932.633 39.9873 933.128 40.174 933.734 40.174ZM938.838 41V33.776H939.958V34.952H940.014C940.098 34.7653 940.192 34.5927 940.294 34.434C940.406 34.266 940.537 34.1213 940.686 34C940.845 33.8787 941.027 33.7853 941.232 33.72C941.438 33.6453 941.68 33.608 941.96 33.608C942.436 33.608 942.875 33.7247 943.276 33.958C943.678 34.182 943.976 34.5553 944.172 35.078H944.2C944.331 34.686 944.574 34.3453 944.928 34.056C945.292 33.7573 945.782 33.608 946.398 33.608C947.136 33.608 947.71 33.8507 948.12 34.336C948.54 34.812 948.75 35.4887 948.75 36.366V41H947.63V36.562C947.63 35.918 947.504 35.4327 947.252 35.106C947 34.7793 946.599 34.616 946.048 34.616C945.824 34.616 945.61 34.644 945.404 34.7C945.208 34.756 945.031 34.84 944.872 34.952C944.714 35.064 944.588 35.2087 944.494 35.386C944.401 35.554 944.354 35.7547 944.354 35.988V41H943.234V36.562C943.234 35.918 943.108 35.4327 942.856 35.106C942.604 34.7793 942.212 34.616 941.68 34.616C941.456 34.616 941.242 34.644 941.036 34.7C940.831 34.756 940.649 34.84 940.49 34.952C940.332 35.064 940.201 35.2087 940.098 35.386C940.005 35.554 939.958 35.7547 939.958 35.988V41H938.838ZM951.061 33.776H952.181V34.952H952.237C952.424 34.4947 952.694 34.1587 953.049 33.944C953.413 33.72 953.847 33.608 954.351 33.608C954.799 33.608 955.205 33.6967 955.569 33.874C955.933 34.0513 956.241 34.3033 956.493 34.63C956.754 34.9567 956.95 35.3533 957.081 35.82C957.221 36.2867 957.291 36.8093 957.291 37.388C957.291 37.9667 957.221 38.4893 957.081 38.956C956.95 39.4227 956.754 39.8193 956.493 40.146C956.241 40.4727 955.933 40.7247 955.569 40.902C955.205 41.0793 954.799 41.168 954.351 41.168C953.371 41.168 952.666 40.72 952.237 39.824H952.181V43.8H951.061V33.776ZM954.043 40.16C954.678 40.16 955.177 39.964 955.541 39.572C955.905 39.1707 956.087 38.648 956.087 38.004V36.772C956.087 36.128 955.905 35.61 955.541 35.218C955.177 34.8167 954.678 34.616 954.043 34.616C953.791 34.616 953.548 34.6533 953.315 34.728C953.091 34.7933 952.895 34.8867 952.727 35.008C952.559 35.1293 952.424 35.2787 952.321 35.456C952.228 35.624 952.181 35.806 952.181 36.002V38.69C952.181 38.9233 952.228 39.1333 952.321 39.32C952.424 39.4973 952.559 39.6513 952.727 39.782C952.895 39.9033 953.091 39.9967 953.315 40.062C953.548 40.1273 953.791 40.16 954.043 40.16ZM964.432 41C964.012 41 963.709 40.888 963.522 40.664C963.345 40.44 963.233 40.16 963.186 39.824H963.116C962.958 40.272 962.696 40.608 962.332 40.832C961.968 41.056 961.534 41.168 961.03 41.168C960.265 41.168 959.668 40.972 959.238 40.58C958.818 40.188 958.608 39.656 958.608 38.984C958.608 38.3027 958.856 37.78 959.35 37.416C959.854 37.052 960.634 36.87 961.688 36.87H963.116V36.156C963.116 35.6427 962.976 35.2507 962.696 34.98C962.416 34.7093 961.987 34.574 961.408 34.574C960.97 34.574 960.601 34.672 960.302 34.868C960.013 35.064 959.77 35.3253 959.574 35.652L958.902 35.022C959.098 34.63 959.411 34.2987 959.84 34.028C960.27 33.748 960.811 33.608 961.464 33.608C962.342 33.608 963.023 33.8227 963.508 34.252C963.994 34.6813 964.236 35.2787 964.236 36.044V40.02H965.062V41H964.432ZM961.212 40.216C961.492 40.216 961.749 40.1833 961.982 40.118C962.216 40.0527 962.416 39.9593 962.584 39.838C962.752 39.7167 962.883 39.5767 962.976 39.418C963.07 39.2593 963.116 39.0867 963.116 38.9V37.71H961.632C960.988 37.71 960.517 37.8033 960.218 37.99C959.929 38.1767 959.784 38.4473 959.784 38.802V39.096C959.784 39.4507 959.91 39.726 960.162 39.922C960.424 40.118 960.774 40.216 961.212 40.216ZM966.661 41V33.776H967.781V34.952H967.837C968.014 34.5413 968.261 34.2147 968.579 33.972C968.905 33.7293 969.339 33.608 969.881 33.608C970.627 33.608 971.215 33.8507 971.645 34.336C972.083 34.812 972.303 35.4887 972.303 36.366V41H971.183V36.562C971.183 35.2647 970.637 34.616 969.545 34.616C969.321 34.616 969.101 34.644 968.887 34.7C968.681 34.756 968.495 34.84 968.327 34.952C968.159 35.064 968.023 35.2087 967.921 35.386C967.827 35.554 967.781 35.7547 967.781 35.988V41H966.661ZM978.96 33.776H980.066L976.832 42.68C976.748 42.8947 976.664 43.072 976.58 43.212C976.496 43.3613 976.394 43.478 976.272 43.562C976.151 43.646 975.997 43.7067 975.81 43.744C975.633 43.7813 975.414 43.8 975.152 43.8H974.578V42.82H975.712L976.258 41.28L973.556 33.776H974.676L976.412 38.69L976.748 39.866H976.818L977.21 38.69L978.96 33.776Z" fill="#575757"/>
<path d="M994 39C993.744 39 993.488 38.9024 993.293 38.7071L990.293 35.7071C989.902 35.3166 989.902 34.6834 990.293 34.2929C990.683 33.9024 991.317 33.9024 991.707 34.2929L994 36.5858L996.293 34.2929C996.683 33.9024 997.317 33.9024 997.707 34.2929C998.098 34.6834 998.098 35.3166 997.707 35.7071L994.707 38.7071C994.512 38.9024 994.256 39 994 39Z" fill="#575757"/>
<g clip-path="url(#clip0_162_2897)">
<path d="M1056 26.5V27.3381C1059.4 27.8777 1062 30.8219 1062 34.375V35.9406C1062 38.0687 1062.73 40.1359 1064.05 41.8L1064.75 42.6719C1065.02 43.0094 1065.08 43.4734 1064.89 43.8625C1064.7 44.2516 1064.31 44.5 1063.88 44.5H1045.13C1044.69 44.5 1044.3 44.2516 1044.11 43.8625C1043.92 43.4734 1043.98 43.0094 1044.25 42.6719L1044.95 41.8C1046.28 40.1359 1047 38.0687 1047 35.9406V34.375C1047 30.8219 1049.6 27.8777 1053 27.3381V26.5C1053 25.6717 1053.67 25 1054.5 25C1055.33 25 1056 25.6717 1056 26.5ZM1054.13 29.5C1051.43 29.5 1049.25 31.6844 1049.25 34.375V35.9406C1049.25 38.1859 1048.6 40.375 1047.39 42.25H1061.61C1060.4 40.375 1059.75 38.1859 1059.75 35.9406V34.375C1059.75 31.6844 1057.57 29.5 1054.88 29.5H1054.13ZM1057.5 46C1057.5 46.7547 1057.19 47.5609 1056.62 48.1234C1056.06 48.6859 1055.25 49 1054.5 49C1053.7 49 1052.94 48.6859 1052.38 48.1234C1051.81 47.5609 1051.5 46.7547 1051.5 46H1057.5Z" fill="#575757"/>
</g>
<rect x="1056" y="21" width="32" height="20" rx="8" fill="#F44336"/>
<path d="M1067.6 30.696C1067.6 31.32 1067.51 31.908 1067.33 32.46C1067.14 33.004 1066.9 33.504 1066.61 33.96C1066.32 34.408 1066 34.808 1065.65 35.16C1065.3 35.504 1064.95 35.784 1064.62 36H1063.32C1063.77 35.672 1064.17 35.352 1064.52 35.04C1064.87 34.728 1065.18 34.404 1065.44 34.068C1065.71 33.724 1065.93 33.36 1066.12 32.976C1066.3 32.584 1066.45 32.144 1066.56 31.656L1066.5 31.632C1066.3 31.976 1066.04 32.264 1065.72 32.496C1065.41 32.72 1065 32.832 1064.48 32.832C1064.12 32.832 1063.79 32.772 1063.49 32.652C1063.18 32.532 1062.92 32.36 1062.71 32.136C1062.49 31.912 1062.32 31.644 1062.19 31.332C1062.07 31.012 1062.01 30.652 1062.01 30.252C1062.01 29.844 1062.08 29.472 1062.2 29.136C1062.34 28.792 1062.53 28.5 1062.77 28.26C1063.02 28.012 1063.31 27.82 1063.64 27.684C1063.99 27.548 1064.37 27.48 1064.8 27.48C1065.23 27.48 1065.62 27.556 1065.96 27.708C1066.31 27.852 1066.61 28.064 1066.85 28.344C1067.1 28.616 1067.28 28.952 1067.41 29.352C1067.54 29.752 1067.6 30.2 1067.6 30.696ZM1064.81 31.98C1065.36 31.98 1065.79 31.828 1066.09 31.524C1066.4 31.22 1066.56 30.784 1066.56 30.216V30.12C1066.56 29.552 1066.4 29.116 1066.09 28.812C1065.79 28.508 1065.36 28.356 1064.81 28.356C1064.26 28.356 1063.82 28.508 1063.51 28.812C1063.21 29.116 1063.06 29.552 1063.06 30.12V30.216C1063.06 30.784 1063.21 31.22 1063.51 31.524C1063.82 31.828 1064.26 31.98 1064.81 31.98ZM1074.8 30.696C1074.8 31.32 1074.71 31.908 1074.52 32.46C1074.34 33.004 1074.1 33.504 1073.8 33.96C1073.51 34.408 1073.19 34.808 1072.84 35.16C1072.49 35.504 1072.15 35.784 1071.81 36H1070.51C1070.96 35.672 1071.36 35.352 1071.71 35.04C1072.07 34.728 1072.37 34.404 1072.64 34.068C1072.9 33.724 1073.13 33.36 1073.31 32.976C1073.49 32.584 1073.64 32.144 1073.75 31.656L1073.69 31.632C1073.49 31.976 1073.23 32.264 1072.91 32.496C1072.6 32.72 1072.19 32.832 1071.68 32.832C1071.32 32.832 1070.99 32.772 1070.68 32.652C1070.38 32.532 1070.12 32.36 1069.9 32.136C1069.69 31.912 1069.51 31.644 1069.39 31.332C1069.27 31.012 1069.21 30.652 1069.21 30.252C1069.21 29.844 1069.27 29.472 1069.4 29.136C1069.53 28.792 1069.72 28.5 1069.96 28.26C1070.21 28.012 1070.5 27.82 1070.84 27.684C1071.18 27.548 1071.57 27.48 1071.99 27.48C1072.42 27.48 1072.81 27.556 1073.15 27.708C1073.51 27.852 1073.8 28.064 1074.04 28.344C1074.29 28.616 1074.48 28.952 1074.61 29.352C1074.73 29.752 1074.8 30.2 1074.8 30.696ZM1072 31.98C1072.55 31.98 1072.98 31.828 1073.29 31.524C1073.6 31.22 1073.75 30.784 1073.75 30.216V30.12C1073.75 29.552 1073.6 29.116 1073.29 28.812C1072.98 28.508 1072.55 28.356 1072 28.356C1071.45 28.356 1071.02 28.508 1070.71 28.812C1070.4 29.116 1070.25 29.552 1070.25 30.12V30.216C1070.25 30.784 1070.4 31.22 1070.71 31.524C1071.02 31.828 1071.45 31.98 1072 31.98ZM1078.74 35.256V32.748H1076.4V31.932H1078.74V29.424H1079.65V31.932H1081.99V32.748H1079.65V35.256H1078.74Z" fill="white"/>
<circle cx="1140" cy="36" r="20" fill="#D9D9D9"/>
<path d="M1132.6 43V30.436H1134.63V41.2H1139.75V43H1132.6ZM1143.36 43V38.05L1139.04 30.436H1141.36L1144.42 36.034H1144.47L1147.51 30.436H1149.75L1145.39 38.014V43H1143.36Z" fill="white"/>
<defs>
<clipPath id="clip0_162_2897">
<rect width="21" height="24" fill="white" transform="translate(1044 25)"/>
</clipPath>
</defs>
</svg>
