<svg width="1810" height="732" viewBox="0 0 1810 732" fill="none" xmlns="http://www.w3.org/2000/svg">
<rect width="1810" height="732" fill="#18181A"/>
<rect width="1810" height="176" fill="#630EA7"/>
<rect x="362" y="214" width="1367" height="201" rx="60" fill="#2F2F37"/>
<path d="M471.601 337H463.398V291.626H446.772V284.156H488.19V291.626H471.601V337ZM510.611 337.769C504.752 337.769 500.15 335.926 496.805 332.239C493.46 328.553 491.788 323.487 491.788 317.042C491.788 310.621 493.46 305.567 496.805 301.88C500.174 298.194 504.776 296.351 510.611 296.351C516.422 296.351 521 298.194 524.344 301.88C527.713 305.567 529.398 310.621 529.398 317.042C529.398 323.487 527.726 328.553 524.381 332.239C521.036 335.926 516.446 337.769 510.611 337.769ZM510.611 330.774C514.005 330.774 516.629 329.578 518.485 327.186C520.365 324.769 521.305 321.387 521.305 317.042C521.305 312.72 520.365 309.363 518.485 306.971C516.629 304.554 514.005 303.345 510.611 303.345C507.193 303.345 504.557 304.542 502.701 306.934C500.846 309.327 499.918 312.696 499.918 317.042C499.918 321.412 500.846 324.793 502.701 327.186C504.557 329.578 507.193 330.774 510.611 330.774ZM556.433 303.162H547.754V313.489H555.554C560.242 313.489 562.585 311.756 562.585 308.289C562.585 306.678 562.061 305.42 561.011 304.517C559.985 303.614 558.459 303.162 556.433 303.162ZM556.104 319.275H547.754V330.958H557.092C559.412 330.958 561.182 330.457 562.402 329.456C563.623 328.455 564.233 327.015 564.233 325.135C564.233 321.229 561.523 319.275 556.104 319.275ZM539.954 337V297.12H557.935C561.816 297.12 564.844 298.035 567.017 299.866C569.214 301.673 570.312 304.139 570.312 307.264C570.312 309.29 569.666 311.109 568.372 312.72C567.102 314.332 565.503 315.32 563.574 315.687V316.309C566.138 316.602 568.201 317.603 569.763 319.312C571.326 320.997 572.107 323.06 572.107 325.501C572.107 329.017 570.862 331.812 568.372 333.887C565.881 335.962 562.463 337 558.118 337H539.954ZM595.956 331.031C598.91 331.031 601.364 330.201 603.317 328.541C605.294 326.88 606.283 324.805 606.283 322.315V318.982L596.542 319.605C593.808 319.776 591.793 320.337 590.5 321.29C589.206 322.242 588.559 323.597 588.559 325.354C588.559 327.112 589.242 328.504 590.609 329.529C591.977 330.53 593.759 331.031 595.956 331.031ZM593.942 337.659C590.036 337.659 586.837 336.573 584.347 334.4C581.881 332.203 580.648 329.31 580.648 325.721C580.648 322.156 581.93 319.361 584.494 317.334C587.057 315.284 590.719 314.112 595.48 313.819L606.283 313.196V309.754C606.283 307.63 605.587 306.006 604.196 304.883C602.804 303.736 600.778 303.162 598.117 303.162C595.919 303.162 594.088 303.553 592.624 304.334C591.183 305.091 590.243 306.177 589.804 307.593H582.187C582.577 304.175 584.25 301.453 587.204 299.427C590.182 297.376 593.942 296.351 598.483 296.351C603.463 296.351 607.309 297.535 610.019 299.903C612.753 302.247 614.12 305.53 614.12 309.754V337H606.54V331.397H605.917C604.721 333.399 603.073 334.949 600.973 336.048C598.898 337.122 596.554 337.659 593.942 337.659ZM647.088 296.46C652.166 296.46 656.194 298.316 659.173 302.027C662.151 305.713 663.641 310.718 663.641 317.042C663.641 323.365 662.151 328.382 659.173 332.093C656.219 335.804 652.215 337.659 647.161 337.659C644.329 337.659 641.839 337.073 639.69 335.901C637.542 334.705 635.943 333.057 634.893 330.958H634.271V350.257H626.397V297.12H633.978V303.711H634.563C635.76 301.441 637.469 299.671 639.69 298.401C641.912 297.107 644.378 296.46 647.088 296.46ZM644.854 330.591C648.199 330.591 650.811 329.395 652.691 327.002C654.595 324.585 655.547 321.265 655.547 317.042C655.547 312.818 654.595 309.51 652.691 307.117C650.811 304.725 648.211 303.528 644.891 303.528C641.57 303.528 638.946 304.749 637.017 307.19C635.088 309.607 634.124 312.903 634.124 317.078C634.124 321.229 635.088 324.524 637.017 326.966C638.946 329.383 641.558 330.591 644.854 330.591Z" fill="white"/>
<path d="M1600 344.5L1659 284.5" stroke="#60606C" stroke-width="10" stroke-linecap="round"/>
<path d="M1599 284.5L1659 343.5" stroke="#60606C" stroke-width="10" stroke-linecap="round"/>
<path d="M159 274L117.789 312.267C117.363 312.663 117.363 313.337 117.789 313.733L159 352" stroke="#AA80FE" stroke-width="12" stroke-linecap="round"/>
<path d="M285.73 613.25H277.448V573.966H255.405V613.25H247.059V566.747H285.73V613.25ZM307.931 613.959C302.646 613.959 298.499 612.337 295.491 609.093C292.483 605.827 290.98 601.337 290.98 595.622C290.98 589.95 292.494 585.481 295.523 582.216C298.553 578.929 302.689 577.285 307.931 577.285C313.194 577.285 317.33 578.918 320.338 582.184C323.367 585.449 324.882 589.929 324.882 595.622C324.882 601.337 323.367 605.827 320.338 609.093C317.33 612.337 313.194 613.959 307.931 613.959ZM301.453 604.227C302.979 606.246 305.138 607.256 307.931 607.256C310.724 607.256 312.872 606.246 314.376 604.227C315.901 602.186 316.664 599.317 316.664 595.622C316.664 591.948 315.901 589.091 314.376 587.05C312.851 585.009 310.702 583.988 307.931 583.988C305.138 583.988 302.979 585.009 301.453 587.05C299.928 589.091 299.165 591.948 299.165 595.622C299.165 599.317 299.928 602.186 301.453 604.227ZM352.174 613.25V584.375H337.253V613.25H329.261V577.994H360.166V613.25H352.174ZM370.185 626.044C368.53 626.044 367.478 626.001 367.026 625.915V619.373C367.435 619.459 368.165 619.502 369.218 619.502C370.915 619.502 372.258 619.147 373.246 618.438C374.256 617.729 375.019 616.569 375.534 614.958L375.953 613.411L363.353 577.994H372.118L380.368 605.516H380.916L389.134 577.994H397.577L384.848 614.378C383.365 618.739 381.539 621.769 379.369 623.466C377.221 625.185 374.159 626.044 370.185 626.044ZM409.884 596.847C409.734 598.974 409.508 600.864 409.207 602.519C408.906 604.173 408.466 605.709 407.886 607.127C407.327 608.545 406.629 609.727 405.791 610.672C404.953 611.596 403.922 612.315 402.697 612.831C401.473 613.347 400.055 613.604 398.444 613.604C397.391 613.604 396.499 613.476 395.769 613.218V606.128C396.327 606.278 396.972 606.354 397.702 606.354C399.314 606.354 400.485 605.494 401.215 603.775C401.967 602.057 402.44 599.597 402.633 596.396L403.793 577.994H429.059V613.25H421.099V584.375H410.754L409.884 596.847ZM448.423 595.396H454.482V584.343H448.423C446.489 584.343 444.943 584.858 443.782 585.89C442.644 586.899 442.074 588.285 442.074 590.047C442.074 591.615 442.654 592.904 443.815 593.914C444.975 594.902 446.511 595.396 448.423 595.396ZM454.482 613.25V601.455H449.873L441.623 613.25H432.471L441.913 600.069C439.507 599.382 437.616 598.146 436.241 596.363C434.866 594.559 434.179 592.442 434.179 590.015C434.179 586.319 435.414 583.397 437.885 581.249C440.377 579.079 443.686 577.994 447.811 577.994H462.345V613.25H454.482ZM487.671 577.414C492.14 577.414 495.674 579.036 498.274 582.28C500.895 585.524 502.205 589.972 502.205 595.622C502.205 601.251 500.906 605.698 498.306 608.964C495.728 612.208 492.215 613.83 487.768 613.83C485.254 613.83 483.052 613.314 481.161 612.283C479.292 611.23 477.906 609.77 477.004 607.9H476.456V624.98H468.464V577.994H476.166V583.827H476.714C477.724 581.829 479.196 580.261 481.129 579.122C483.084 577.983 485.265 577.414 487.671 577.414ZM485.157 607.03C487.929 607.03 490.088 606.021 491.635 604.001C493.203 601.981 493.988 599.188 493.988 595.622C493.988 592.056 493.203 589.263 491.635 587.243C490.088 585.224 487.94 584.214 485.19 584.214C482.461 584.214 480.302 585.234 478.712 587.275C477.122 589.316 476.317 592.099 476.295 595.622C476.317 599.146 477.112 601.928 478.68 603.969C480.27 606.01 482.429 607.03 485.157 607.03ZM529.884 613.25V598.297H514.641V613.25H506.649V577.994H514.641V591.916H529.884V577.994H537.876V613.25H529.884ZM576.77 613.25V577.994H584.73V613.25H576.77ZM558.014 594.913H551.988V606.869H558.014C559.991 606.869 561.559 606.321 562.719 605.226C563.901 604.13 564.492 602.68 564.492 600.875C564.492 599.07 563.901 597.631 562.719 596.557C561.537 595.461 559.969 594.913 558.014 594.913ZM543.995 613.25V577.994H551.988V588.564H558.981C563.084 588.564 566.35 589.682 568.778 591.916C571.227 594.15 572.451 597.147 572.451 600.907C572.451 604.667 571.227 607.664 568.778 609.898C566.35 612.133 563.084 613.25 558.981 613.25H543.995ZM605.641 583.634C603.256 583.634 601.29 584.418 599.744 585.986C598.197 587.555 597.337 589.628 597.165 592.206H613.762C613.676 589.585 612.903 587.501 611.442 585.954C609.981 584.407 608.047 583.634 605.641 583.634ZM613.827 603.55H621.4C620.648 606.772 618.875 609.318 616.082 611.188C613.311 613.035 609.863 613.959 605.738 613.959C600.56 613.959 596.489 612.348 593.524 609.125C590.58 605.881 589.109 601.423 589.109 595.751C589.109 590.079 590.591 585.589 593.556 582.28C596.521 578.95 600.56 577.285 605.673 577.285C610.701 577.285 614.632 578.864 617.468 582.022C620.326 585.159 621.754 589.51 621.754 595.074V597.652H597.133V598.071C597.241 601.015 598.078 603.346 599.647 605.064C601.237 606.762 603.342 607.61 605.963 607.61C610.002 607.61 612.623 606.257 613.827 603.55Z" fill="white"/>
<rect x="134" y="559.25" width="59" height="9" fill="#AA80FE"/>
<rect x="134" y="589.25" width="39" height="9" fill="#AA80FE"/>
<rect x="134" y="619.25" width="18" height="9" fill="#AA80FE"/>
<path d="M108 619.25L108 568.25" stroke="#AA80FE" stroke-width="10" stroke-linecap="square"/>
<path d="M108 550.25L125.321 568.25H90.6795L108 550.25Z" fill="#AA80FE"/>
<path d="M108 637.25L90.6795 619.25L125.321 619.25L108 637.25Z" fill="#AA80FE"/>
<path d="M1440.04 602.164V577.64C1436.15 577.812 1433.05 578.982 1430.73 581.152C1428.41 583.322 1427.25 586.233 1427.25 589.886C1427.25 593.56 1428.4 596.481 1430.69 598.651C1432.99 600.821 1436.11 601.992 1440.04 602.164ZM1460.86 589.918C1460.86 586.244 1459.71 583.322 1457.41 581.152C1455.11 578.961 1452.01 577.79 1448.1 577.64V602.164C1451.99 601.992 1455.08 600.821 1457.38 598.651C1459.7 596.481 1460.86 593.57 1460.86 589.918ZM1439.94 609.189C1433.54 609.018 1428.43 607.224 1424.6 603.808C1420.78 600.37 1418.87 595.729 1418.87 589.886C1418.87 584.042 1420.79 579.423 1424.64 576.028C1428.48 572.612 1433.58 570.808 1439.94 570.614V565.877H1448.16V570.614C1454.56 570.786 1459.68 572.58 1463.5 575.996C1467.33 579.412 1469.24 584.053 1469.24 589.918C1469.24 593.807 1468.35 597.19 1466.56 600.069C1464.78 602.948 1462.31 605.15 1459.15 606.676C1456.01 608.201 1452.35 609.039 1448.16 609.189V614.12H1439.94V609.189ZM1481.93 613.25H1474.04V577.994H1481.93V601.326H1482.48L1497.82 577.994H1505.68V613.25H1497.82V589.757H1497.24L1481.93 613.25ZM1522.15 596.847C1522 598.974 1521.77 600.864 1521.47 602.519C1521.17 604.173 1520.73 605.709 1520.15 607.127C1519.59 608.545 1518.89 609.727 1518.05 610.672C1517.21 611.596 1516.18 612.315 1514.96 612.831C1513.73 613.347 1512.32 613.604 1510.71 613.604C1509.65 613.604 1508.76 613.476 1508.03 613.218V606.128C1508.59 606.278 1509.23 606.354 1509.96 606.354C1511.58 606.354 1512.75 605.494 1513.48 603.775C1514.23 602.057 1514.7 599.597 1514.89 596.396L1516.05 577.994H1541.32V613.25H1533.36V584.375H1523.02L1522.15 596.847ZM1561.46 594.913H1555.43V606.869H1561.46C1563.43 606.869 1565 606.321 1566.16 605.226C1567.34 604.13 1567.94 602.68 1567.94 600.875C1567.94 599.07 1567.34 597.631 1566.16 596.557C1564.98 595.461 1563.41 594.913 1561.46 594.913ZM1547.44 613.25V577.994H1555.43V588.564H1562.42C1566.53 588.564 1569.79 589.682 1572.22 591.916C1574.67 594.15 1575.9 597.147 1575.9 600.907C1575.9 604.667 1574.67 607.664 1572.22 609.898C1569.79 612.133 1566.53 613.25 1562.42 613.25H1547.44ZM1603.77 577.994V584.375H1592.91V613.25H1584.92V584.375H1574.05V577.994H1603.77ZM1626.26 577.414C1630.73 577.414 1634.26 579.036 1636.86 582.28C1639.48 585.524 1640.79 589.972 1640.79 595.622C1640.79 601.251 1639.49 605.698 1636.89 608.964C1634.31 612.208 1630.8 613.83 1626.35 613.83C1623.84 613.83 1621.64 613.314 1619.75 612.283C1617.88 611.23 1616.49 609.77 1615.59 607.9H1615.04V624.98H1607.05V577.994H1614.75V583.827H1615.3C1616.31 581.829 1617.78 580.261 1619.72 579.122C1621.67 577.983 1623.85 577.414 1626.26 577.414ZM1623.74 607.03C1626.52 607.03 1628.68 606.021 1630.22 604.001C1631.79 601.981 1632.57 599.188 1632.57 595.622C1632.57 592.056 1631.79 589.263 1630.22 587.243C1628.68 585.224 1626.53 584.214 1623.78 584.214C1621.05 584.214 1618.89 585.234 1617.3 587.275C1615.71 589.316 1614.9 592.099 1614.88 595.622C1614.9 599.146 1615.7 601.928 1617.27 603.969C1618.86 606.01 1621.02 607.03 1623.74 607.03ZM1678.01 613.25V577.994H1685.97V613.25H1678.01ZM1659.25 594.913H1653.23V606.869H1659.25C1661.23 606.869 1662.8 606.321 1663.96 605.226C1665.14 604.13 1665.73 602.68 1665.73 600.875C1665.73 599.07 1665.14 597.631 1663.96 596.557C1662.78 595.461 1661.21 594.913 1659.25 594.913ZM1645.24 613.25V577.994H1653.23V588.564H1660.22C1664.32 588.564 1667.59 589.682 1670.02 591.916C1672.47 594.15 1673.69 597.147 1673.69 600.907C1673.69 604.667 1672.47 607.664 1670.02 609.898C1667.59 612.133 1664.32 613.25 1660.22 613.25H1645.24Z" fill="white"/>
<path fill-rule="evenodd" clip-rule="evenodd" d="M1306 590.759L1277.47 555.125C1274.85 551.851 1277.18 547 1281.37 547H1350.63C1354.82 547 1357.15 551.851 1354.53 555.125L1326 590.759V631.465C1326 635.949 1320.55 638.166 1317.42 634.957L1306 623.25V590.759Z" fill="#AA80FE"/>
</svg>
