<svg width="864" height="252" viewBox="0 0 864 252" fill="none" xmlns="http://www.w3.org/2000/svg">
<g filter="url(#filter0_d_208_1092)">
<rect x="14" y="10" width="832" height="232" rx="100" fill="#52D2D2"/>
<path d="M184.214 95.8809V81.1981H247.438V95.8809H224.756V156H206.932V95.8809H184.214ZM247.871 156V99.8986H265.22V110.125H265.804C266.827 106.424 268.495 103.673 270.808 101.871C273.121 100.045 275.812 99.1316 278.88 99.1316C279.708 99.1316 280.56 99.1924 281.437 99.3142C282.313 99.4116 283.129 99.5699 283.884 99.789V115.312C283.031 115.02 281.911 114.788 280.523 114.618C279.16 114.447 277.942 114.362 276.871 114.362C274.753 114.362 272.841 114.837 271.137 115.787C269.457 116.712 268.129 118.015 267.155 119.695C266.206 121.351 265.731 123.299 265.731 125.539V156H247.871ZM301.218 177.038C299.075 177.038 297.054 176.868 295.155 176.527C293.256 176.21 291.624 175.784 290.261 175.248L294.205 162.282C295.959 162.867 297.541 163.207 298.954 163.305C300.39 163.402 301.62 163.171 302.643 162.611C303.69 162.075 304.493 161.113 305.053 159.725L305.747 158.045L285.805 99.8986H304.505L314.842 139.929H315.426L325.909 99.8986H344.719L323.571 161.369C322.548 164.437 321.1 167.14 319.225 169.477C317.374 171.839 314.976 173.69 312.029 175.029C309.107 176.368 305.504 177.038 301.218 177.038ZM386.601 81.1981V156H368.522V81.1981H386.601ZM427.046 99.8986V113.047H391.654V99.8986H427.046ZM399.069 86.4576H416.929V138.359C416.929 139.454 417.1 140.343 417.44 141.025C417.806 141.682 418.329 142.157 419.011 142.449C419.693 142.717 420.508 142.851 421.458 142.851C422.14 142.851 422.858 142.79 423.613 142.669C424.392 142.523 424.977 142.401 425.366 142.303L428.069 155.196C427.217 155.44 426.011 155.744 424.453 156.11C422.919 156.475 421.081 156.706 418.938 156.804C414.75 156.998 411.158 156.511 408.163 155.343C405.193 154.149 402.916 152.299 401.333 149.791C399.775 147.283 399.02 144.13 399.069 140.331V86.4576ZM516.776 81.1981V156H501.435L471.668 112.828H471.193V156H453.114V81.1981H468.673L498.112 124.297H498.733V81.1981H516.776ZM551.761 157.059C545.868 157.059 540.803 155.854 536.566 153.443C532.354 151.008 529.103 147.624 526.814 143.29C524.55 138.931 523.418 133.878 523.418 128.132C523.418 122.361 524.55 117.309 526.814 112.974C529.103 108.616 532.354 105.231 536.566 102.821C540.803 100.386 545.868 99.1681 551.761 99.1681C557.653 99.1681 562.706 100.386 566.918 102.821C571.155 105.231 574.406 108.616 576.67 112.974C578.959 117.309 580.103 122.361 580.103 128.132C580.103 133.878 578.959 138.931 576.67 143.29C574.406 147.624 571.155 151.008 566.918 153.443C562.706 155.854 557.653 157.059 551.761 157.059ZM551.87 143.582C554.013 143.582 555.827 142.924 557.312 141.609C558.798 140.295 559.93 138.468 560.709 136.131C561.513 133.793 561.914 131.09 561.914 128.022C561.914 124.906 561.513 122.178 560.709 119.841C559.93 117.503 558.798 115.677 557.312 114.362C555.827 113.047 554.013 112.39 551.87 112.39C549.654 112.39 547.779 113.047 546.245 114.362C544.736 115.677 543.579 117.503 542.776 119.841C541.996 122.178 541.607 124.906 541.607 128.022C541.607 131.09 541.996 133.793 542.776 136.131C543.579 138.468 544.736 140.295 546.245 141.609C547.779 142.924 549.654 143.582 551.87 143.582ZM595.959 156L581.349 99.8986H599.282L606.843 135.839H607.318L615.426 99.8986H632.921L641.249 135.583H641.724L649.065 99.8986H666.999L652.352 156H633.25L624.484 123.311H623.863L615.097 156H595.959Z" fill="white"/>
<line x1="708.564" y1="87.4364" x2="748.881" y2="127.753" stroke="white" stroke-width="10.0793"/>
<line y1="-5.03963" x2="51.9838" y2="-5.03963" transform="matrix(-0.707107 0.707107 0.707107 0.707107 747.837 128.798)" stroke="white" stroke-width="10.0793"/>
</g>
<defs>
<filter id="filter0_d_208_1092" x="0.2" y="0.2" width="869.6" height="251.6" filterUnits="userSpaceOnUse" color-interpolation-filters="sRGB">
<feFlood flood-opacity="0" result="BackgroundImageFix"/>
<feColorMatrix in="SourceAlpha" type="matrix" values="0 0 0 0 0 0 0 0 0 0 0 0 0 0 0 0 0 0 127 0" result="hardAlpha"/>
<feOffset dx="-4"/>
<feGaussianBlur stdDeviation="4.9"/>
<feComposite in2="hardAlpha" operator="out"/>
<feColorMatrix type="matrix" values="0 0 0 0 0 0 0 0 0 0 0 0 0 0 0 0 0 0 0.25 0"/>
<feBlend mode="normal" in2="BackgroundImageFix" result="effect1_dropShadow_208_1092"/>
<feBlend mode="normal" in="SourceGraphic" in2="effect1_dropShadow_208_1092" result="shape"/>
</filter>
</defs>
</svg>
