<svg width="537" height="309" viewBox="0 0 537 309" fill="none" xmlns="http://www.w3.org/2000/svg">
<rect x="0.5" y="0.5" width="536" height="308" rx="9.5" fill="#FAFAFA"/>
<rect x="0.5" y="0.5" width="536" height="308" rx="9.5" stroke="#DFDFDF"/>
<path d="M54.0625 45H56.7898L57.4972 40.6705H59.8835L60.3352 37.9432H57.9489L58.4943 34.6023H60.8807L61.3409 31.875H58.946L59.6534 27.5455H56.9261L56.2188 31.875H52.8097L53.517 27.5455H50.7898L50.0824 31.875H47.7045L47.2443 34.6023H49.6307L49.0852 37.9432H46.6989L46.2472 40.6705H48.6335L47.9261 45H50.6534L51.3608 40.6705H54.7699L54.0625 45ZM51.8125 37.9432L52.358 34.6023H55.767L55.2216 37.9432H51.8125ZM63.0007 45H75.4439V41.983H68.1143V41.8636L70.6626 39.3665C74.2507 36.0938 75.2138 34.4574 75.2138 32.4716C75.2138 29.446 72.7422 27.3068 69.0007 27.3068C65.3359 27.3068 62.8217 29.4972 62.8303 32.9233H66.3331C66.3246 31.2528 67.3814 30.2301 68.9751 30.2301C70.5092 30.2301 71.6513 31.1847 71.6513 32.7188C71.6513 34.108 70.799 35.0625 69.2138 36.5881L63.0007 42.3409V45Z" fill="black"/>
<rect x="46" y="205" width="434.824" height="24" fill="#011627"/>
<ellipse cx="60.8235" cy="216.294" rx="4.47059" ry="4.70588" fill="#FC605C"/>
<circle cx="73.7647" cy="216.765" r="4.70588" fill="#FFBB2C"/>
<circle cx="86.7059" cy="217.471" r="4.47059" fill="#2FC63C"/>
<g filter="url(#filter0_d_1_17)">
<rect x="46" y="71" width="94" height="94" rx="5" fill="white"/>
</g>
<rect width="435" height="36" transform="translate(46 228)" fill="#011627"/>
<path d="M62.4805 247.895V247.771C62.4805 247.412 62.4473 247.072 62.3809 246.752C62.3184 246.432 62.2246 246.141 62.0996 245.879C62.0059 245.691 61.8965 245.52 61.7715 245.363C61.6504 245.203 61.5117 245.068 61.3555 244.959C61.1719 244.826 60.9648 244.725 60.7344 244.654C60.5078 244.58 60.2578 244.543 59.9844 244.543C59.7773 244.543 59.584 244.564 59.4043 244.607C59.2285 244.646 59.0664 244.707 58.918 244.789C58.8047 244.852 58.6992 244.924 58.6016 245.006C58.5039 245.088 58.4141 245.18 58.332 245.281V242H56.9316V251H58.1973L58.2617 250.309C58.332 250.395 58.4043 250.475 58.4785 250.549C58.5566 250.619 58.6387 250.686 58.7246 250.748C58.8926 250.869 59.082 250.961 59.293 251.023C59.5039 251.086 59.7383 251.117 59.9961 251.117C60.25 251.117 60.4844 251.084 60.6992 251.018C60.918 250.955 61.1152 250.865 61.291 250.748C61.5098 250.604 61.6973 250.422 61.8535 250.203C62.0098 249.984 62.1348 249.74 62.2285 249.471C62.3105 249.244 62.373 248.998 62.416 248.732C62.459 248.467 62.4805 248.188 62.4805 247.895ZM61.0801 247.771V247.895C61.0801 248.07 61.0703 248.24 61.0508 248.404C61.0312 248.568 61.002 248.721 60.9629 248.861C60.916 249.049 60.8477 249.219 60.7578 249.371C60.6719 249.52 60.5605 249.643 60.4238 249.74C60.3223 249.811 60.207 249.867 60.0781 249.91C59.9492 249.949 59.8047 249.969 59.6445 249.969C59.4688 249.969 59.3086 249.947 59.1641 249.904C59.0234 249.857 58.8984 249.795 58.7891 249.717C58.6914 249.643 58.6035 249.559 58.5254 249.465C58.4512 249.367 58.3867 249.26 58.332 249.143V246.518C58.3789 246.416 58.4336 246.322 58.4961 246.236C58.5625 246.146 58.6367 246.068 58.7188 246.002C58.832 245.904 58.9648 245.83 59.1172 245.779C59.2695 245.725 59.4414 245.697 59.6328 245.697C59.7891 245.697 59.9297 245.715 60.0547 245.75C60.1797 245.785 60.291 245.838 60.3887 245.908C60.5371 246.01 60.6543 246.135 60.7402 246.283C60.8301 246.428 60.9023 246.59 60.957 246.77C60.9961 246.918 61.0254 247.078 61.0449 247.25C61.0684 247.418 61.0801 247.592 61.0801 247.771ZM63.8574 247.771V247.895C63.8574 248.359 63.9238 248.787 64.0566 249.178C64.1895 249.568 64.3828 249.908 64.6367 250.197C64.8867 250.486 65.1953 250.713 65.5625 250.877C65.9297 251.041 66.3457 251.123 66.8105 251.123C67.2715 251.123 67.6836 251.041 68.0469 250.877C68.4141 250.713 68.7227 250.486 68.9727 250.197C69.2227 249.908 69.4141 249.568 69.5469 249.178C69.6797 248.787 69.7461 248.359 69.7461 247.895V247.771C69.7461 247.311 69.6797 246.885 69.5469 246.494C69.4141 246.1 69.2227 245.758 68.9727 245.469C68.7188 245.18 68.4082 244.953 68.041 244.789C67.6777 244.625 67.2637 244.543 66.7988 244.543C66.334 244.543 65.9199 244.625 65.5566 244.789C65.1934 244.953 64.8867 245.18 64.6367 245.469C64.3828 245.758 64.1895 246.1 64.0566 246.494C63.9238 246.885 63.8574 247.311 63.8574 247.771ZM65.2578 247.895V247.771C65.2578 247.494 65.2871 247.229 65.3457 246.975C65.4082 246.721 65.502 246.498 65.627 246.307C65.7559 246.115 65.916 245.963 66.1074 245.85C66.3027 245.736 66.5332 245.68 66.7988 245.68C67.0684 245.68 67.2988 245.736 67.4902 245.85C67.6855 245.963 67.8457 246.115 67.9707 246.307C68.0957 246.498 68.1895 246.721 68.252 246.975C68.3145 247.229 68.3457 247.494 68.3457 247.771V247.895C68.3457 248.18 68.3145 248.449 68.252 248.703C68.1934 248.957 68.1016 249.18 67.9766 249.371C67.8516 249.562 67.6914 249.715 67.4961 249.828C67.3008 249.938 67.0723 249.992 66.8105 249.992C66.541 249.992 66.3086 249.938 66.1133 249.828C65.918 249.715 65.7559 249.562 65.627 249.371C65.502 249.18 65.4082 248.957 65.3457 248.703C65.2871 248.449 65.2578 248.18 65.2578 247.895ZM74.1055 246.793L72.6055 244.66H71.0645L73.2852 247.783L70.9883 251H72.541L74.1172 248.785L75.6992 251H77.2461L74.9492 247.783L77.1758 244.66H75.623L74.1055 246.793ZM83.832 247.818V246.682H79.1152V247.818H83.832ZM89.8789 249.283C89.8789 249.385 89.8555 249.479 89.8086 249.564C89.7656 249.646 89.6992 249.723 89.6094 249.793C89.5 249.879 89.3535 249.947 89.1699 249.998C88.9902 250.049 88.7793 250.074 88.5371 250.074C88.3574 250.074 88.1797 250.057 88.0039 250.021C87.8281 249.982 87.6719 249.92 87.5352 249.834C87.3945 249.752 87.2773 249.645 87.1836 249.512C87.0938 249.375 87.043 249.209 87.0312 249.014H85.6719C85.6719 249.275 85.7344 249.533 85.8594 249.787C85.9844 250.041 86.168 250.266 86.4102 250.461C86.6484 250.66 86.9434 250.82 87.2949 250.941C87.6504 251.062 88.0566 251.123 88.5137 251.123C88.9238 251.123 89.2969 251.076 89.6328 250.982C89.9688 250.889 90.2578 250.758 90.5 250.59C90.7383 250.422 90.9219 250.221 91.0508 249.986C91.1836 249.752 91.25 249.494 91.25 249.213C91.25 248.924 91.1875 248.674 91.0625 248.463C90.9375 248.252 90.7617 248.068 90.5352 247.912C90.3086 247.764 90.0352 247.639 89.7148 247.537C89.3945 247.436 89.041 247.35 88.6543 247.279C88.377 247.232 88.1465 247.18 87.9629 247.121C87.7832 247.062 87.6426 246.998 87.541 246.928C87.4316 246.861 87.3555 246.785 87.3125 246.699C87.2695 246.609 87.248 246.51 87.248 246.4C87.248 246.295 87.2734 246.195 87.3242 246.102C87.375 246.004 87.4512 245.92 87.5527 245.85C87.6543 245.771 87.7832 245.711 87.9395 245.668C88.0996 245.621 88.2852 245.598 88.4961 245.598C88.7266 245.598 88.9277 245.629 89.0996 245.691C89.2715 245.75 89.4121 245.83 89.5215 245.932C89.6152 246.018 89.6855 246.115 89.7324 246.225C89.7832 246.33 89.8086 246.441 89.8086 246.559H91.209C91.209 246.273 91.1465 246.008 91.0215 245.762C90.8965 245.516 90.7188 245.303 90.4883 245.123C90.2539 244.943 89.9688 244.803 89.6328 244.701C89.2969 244.596 88.918 244.543 88.4961 244.543C88.1016 244.543 87.7422 244.594 87.418 244.695C87.0977 244.797 86.8242 244.936 86.5977 245.111C86.3672 245.287 86.1895 245.492 86.0645 245.727C85.9434 245.957 85.8828 246.201 85.8828 246.459C85.8828 246.729 85.9434 246.965 86.0645 247.168C86.1855 247.367 86.3535 247.543 86.5684 247.695C86.7871 247.852 87.0469 247.984 87.3477 248.094C87.6523 248.203 87.9883 248.295 88.3555 248.369C88.6484 248.424 88.8926 248.482 89.0879 248.545C89.2832 248.607 89.4414 248.674 89.5625 248.744C89.6758 248.822 89.7559 248.904 89.8027 248.99C89.8535 249.076 89.8789 249.174 89.8789 249.283ZM94.3438 245.562V242H92.9434V251H94.3438V246.412C94.4102 246.311 94.4863 246.219 94.5723 246.137C94.6621 246.055 94.7578 245.984 94.8594 245.926C94.9805 245.852 95.1133 245.795 95.2578 245.756C95.4062 245.717 95.5625 245.697 95.7266 245.697C95.9375 245.697 96.123 245.727 96.2832 245.785C96.4473 245.84 96.5859 245.926 96.6992 246.043C96.8086 246.152 96.8906 246.295 96.9453 246.471C97.0039 246.646 97.0332 246.852 97.0332 247.086V251H98.4336V247.098C98.4336 246.648 98.3789 246.264 98.2695 245.943C98.1641 245.619 98.0137 245.354 97.8184 245.146C97.623 244.939 97.3867 244.787 97.1094 244.689C96.8359 244.592 96.5332 244.543 96.2012 244.543C95.9629 244.543 95.7363 244.578 95.5215 244.648C95.3105 244.715 95.1172 244.812 94.9414 244.941C94.8281 245.02 94.7207 245.111 94.6191 245.217C94.5176 245.322 94.4258 245.438 94.3438 245.562ZM104.199 251H105.629V250.9C105.551 250.736 105.49 250.541 105.447 250.314C105.408 250.084 105.389 249.826 105.389 249.541V246.723C105.389 246.363 105.322 246.047 105.189 245.773C105.057 245.496 104.873 245.268 104.639 245.088C104.404 244.908 104.125 244.773 103.801 244.684C103.48 244.59 103.135 244.543 102.764 244.543C102.35 244.543 101.98 244.598 101.656 244.707C101.336 244.812 101.064 244.957 100.842 245.141C100.619 245.32 100.449 245.527 100.332 245.762C100.215 245.996 100.154 246.24 100.15 246.494H101.557C101.557 246.373 101.578 246.26 101.621 246.154C101.668 246.045 101.738 245.953 101.832 245.879C101.926 245.797 102.043 245.732 102.184 245.686C102.328 245.639 102.496 245.615 102.688 245.615C102.898 245.615 103.084 245.643 103.244 245.697C103.408 245.748 103.547 245.822 103.66 245.92C103.766 246.018 103.846 246.133 103.9 246.266C103.959 246.398 103.988 246.547 103.988 246.711V247.139H102.969C102.512 247.139 102.102 247.182 101.738 247.268C101.379 247.354 101.076 247.479 100.83 247.643C100.564 247.818 100.361 248.041 100.221 248.311C100.084 248.576 100.016 248.883 100.016 249.23C100.016 249.5 100.068 249.752 100.174 249.986C100.283 250.217 100.434 250.414 100.625 250.578C100.82 250.746 101.053 250.879 101.322 250.977C101.596 251.07 101.896 251.117 102.225 251.117C102.428 251.117 102.617 251.098 102.793 251.059C102.969 251.02 103.133 250.965 103.285 250.895C103.438 250.828 103.574 250.75 103.695 250.66C103.82 250.566 103.932 250.469 104.029 250.367C104.049 250.488 104.07 250.605 104.094 250.719C104.121 250.828 104.156 250.922 104.199 251ZM102.494 249.992C102.314 249.992 102.158 249.971 102.025 249.928C101.893 249.881 101.781 249.818 101.691 249.74C101.602 249.662 101.533 249.568 101.486 249.459C101.439 249.346 101.416 249.225 101.416 249.096C101.416 248.939 101.443 248.799 101.498 248.674C101.557 248.549 101.645 248.441 101.762 248.352C101.895 248.246 102.072 248.166 102.295 248.111C102.518 248.053 102.781 248.023 103.086 248.023H103.988V249.195C103.938 249.297 103.865 249.395 103.771 249.488C103.678 249.582 103.566 249.666 103.438 249.74C103.309 249.814 103.164 249.875 103.004 249.922C102.848 249.969 102.678 249.992 102.494 249.992ZM107.17 247.783V247.906C107.17 248.363 107.229 248.789 107.346 249.184C107.463 249.574 107.629 249.912 107.844 250.197C108.059 250.486 108.32 250.713 108.629 250.877C108.938 251.037 109.285 251.117 109.672 251.117C110.039 251.117 110.363 251.051 110.645 250.918C110.926 250.781 111.168 250.588 111.371 250.338L111.436 251H112.707V242H111.307V245.252C111.104 245.025 110.869 244.852 110.604 244.73C110.342 244.605 110.035 244.543 109.684 244.543C109.293 244.543 108.941 244.623 108.629 244.783C108.32 244.939 108.059 245.16 107.844 245.445C107.625 245.73 107.457 246.072 107.34 246.471C107.227 246.865 107.17 247.303 107.17 247.783ZM108.57 247.906V247.783C108.57 247.498 108.598 247.23 108.652 246.98C108.707 246.727 108.793 246.504 108.91 246.312C109.027 246.121 109.178 245.971 109.361 245.861C109.549 245.752 109.773 245.697 110.035 245.697C110.348 245.697 110.605 245.768 110.809 245.908C111.016 246.045 111.182 246.23 111.307 246.465V249.189C111.182 249.428 111.016 249.617 110.809 249.758C110.602 249.895 110.34 249.963 110.023 249.963C109.766 249.963 109.545 249.91 109.361 249.805C109.178 249.695 109.027 249.547 108.91 249.359C108.793 249.172 108.707 248.953 108.652 248.703C108.598 248.453 108.57 248.188 108.57 247.906ZM114.307 247.771V247.895C114.307 248.359 114.373 248.787 114.506 249.178C114.639 249.568 114.832 249.908 115.086 250.197C115.336 250.486 115.645 250.713 116.012 250.877C116.379 251.041 116.795 251.123 117.26 251.123C117.721 251.123 118.133 251.041 118.496 250.877C118.863 250.713 119.172 250.486 119.422 250.197C119.672 249.908 119.863 249.568 119.996 249.178C120.129 248.787 120.195 248.359 120.195 247.895V247.771C120.195 247.311 120.129 246.885 119.996 246.494C119.863 246.1 119.672 245.758 119.422 245.469C119.168 245.18 118.857 244.953 118.49 244.789C118.127 244.625 117.713 244.543 117.248 244.543C116.783 244.543 116.369 244.625 116.006 244.789C115.643 244.953 115.336 245.18 115.086 245.469C114.832 245.758 114.639 246.1 114.506 246.494C114.373 246.885 114.307 247.311 114.307 247.771ZM115.707 247.895V247.771C115.707 247.494 115.736 247.229 115.795 246.975C115.857 246.721 115.951 246.498 116.076 246.307C116.205 246.115 116.365 245.963 116.557 245.85C116.752 245.736 116.982 245.68 117.248 245.68C117.518 245.68 117.748 245.736 117.939 245.85C118.135 245.963 118.295 246.115 118.42 246.307C118.545 246.498 118.639 246.721 118.701 246.975C118.764 247.229 118.795 247.494 118.795 247.771V247.895C118.795 248.18 118.764 248.449 118.701 248.703C118.643 248.957 118.551 249.18 118.426 249.371C118.301 249.562 118.141 249.715 117.945 249.828C117.75 249.938 117.521 249.992 117.26 249.992C116.99 249.992 116.758 249.938 116.562 249.828C116.367 249.715 116.205 249.562 116.076 249.371C115.951 249.18 115.857 248.957 115.795 248.703C115.736 248.449 115.707 248.18 115.707 247.895ZM122.299 251H123.488L124.291 247.402L124.432 246.617L124.578 247.402L125.398 251H126.588L127.812 244.66H126.541L125.973 248.527L125.861 249.301L125.727 248.533L124.9 244.66H123.98L123.154 248.545L123.025 249.277L122.926 248.545L122.34 244.66H121.074L122.299 251Z" fill="#F78C6C"/>
<path d="M130.895 250.156C130.895 250.426 130.982 250.654 131.158 250.842C131.338 251.025 131.588 251.117 131.908 251.117C132.225 251.117 132.473 251.025 132.652 250.842C132.836 250.658 132.928 250.43 132.928 250.156C132.928 249.883 132.838 249.652 132.658 249.465C132.479 249.273 132.229 249.178 131.908 249.178C131.584 249.178 131.334 249.273 131.158 249.465C130.982 249.656 130.895 249.887 130.895 250.156ZM130.895 245.193C130.895 245.463 130.982 245.691 131.158 245.879C131.338 246.062 131.588 246.154 131.908 246.154C132.225 246.154 132.473 246.062 132.652 245.879C132.836 245.695 132.928 245.467 132.928 245.193C132.928 244.92 132.838 244.689 132.658 244.502C132.479 244.311 132.229 244.215 131.908 244.215C131.584 244.215 131.334 244.311 131.158 244.502C130.982 244.693 130.895 244.924 130.895 245.193ZM173.363 247.531V247.631C173.363 248.189 173.406 248.713 173.492 249.201C173.578 249.686 173.693 250.135 173.838 250.549C173.982 250.967 174.15 251.346 174.342 251.686C174.537 252.029 174.742 252.334 174.957 252.6C175.172 252.865 175.391 253.09 175.613 253.273C175.836 253.461 176.051 253.605 176.258 253.707L176.539 252.922C176.383 252.801 176.227 252.65 176.07 252.471C175.914 252.291 175.764 252.084 175.619 251.85C175.479 251.619 175.348 251.354 175.227 251.053C175.105 250.752 174.998 250.426 174.904 250.074C174.83 249.781 174.766 249.426 174.711 249.008C174.656 248.586 174.629 248.131 174.629 247.643V247.52C174.629 247.02 174.656 246.555 174.711 246.125C174.77 245.695 174.848 245.303 174.945 244.947C175.051 244.568 175.176 244.219 175.32 243.898C175.469 243.578 175.627 243.299 175.795 243.061C175.916 242.893 176.039 242.742 176.164 242.609C176.289 242.477 176.414 242.363 176.539 242.27L176.258 241.455C176.051 241.557 175.836 241.701 175.613 241.889C175.391 242.072 175.174 242.297 174.963 242.562C174.748 242.828 174.543 243.133 174.348 243.477C174.156 243.82 173.986 244.197 173.838 244.607C173.693 245.025 173.578 245.48 173.492 245.973C173.406 246.461 173.363 246.98 173.363 247.531ZM204.137 250.818V249.635H202.76V250.871C202.76 251.258 202.713 251.605 202.619 251.914C202.529 252.223 202.4 252.516 202.232 252.793L203.018 253.209C203.354 252.908 203.623 252.539 203.826 252.102C204.033 251.668 204.137 251.24 204.137 250.818ZM240.172 250.818V249.635H238.795V250.871C238.795 251.258 238.748 251.605 238.654 251.914C238.564 252.223 238.436 252.516 238.268 252.793L239.053 253.209C239.389 252.908 239.658 252.539 239.861 252.102C240.068 251.668 240.172 251.24 240.172 250.818ZM276.207 250.818V249.635H274.83V250.871C274.83 251.258 274.783 251.605 274.689 251.914C274.6 252.223 274.471 252.516 274.303 252.793L275.088 253.209C275.424 252.908 275.693 252.539 275.896 252.102C276.104 251.668 276.207 251.24 276.207 250.818ZM313.332 247.631V247.531C313.332 246.973 313.287 246.455 313.197 245.979C313.107 245.498 312.99 245.051 312.846 244.637C312.701 244.219 312.531 243.84 312.336 243.5C312.141 243.156 311.932 242.848 311.709 242.574C311.494 242.309 311.271 242.082 311.041 241.895C310.814 241.703 310.596 241.557 310.385 241.455L310.109 242.24C310.23 242.334 310.354 242.451 310.479 242.592C310.607 242.729 310.73 242.885 310.848 243.061C311.016 243.307 311.176 243.598 311.328 243.934C311.484 244.27 311.617 244.648 311.727 245.07C311.809 245.395 311.877 245.762 311.932 246.172C311.986 246.582 312.014 247.031 312.014 247.52V247.643C312.014 248.115 311.988 248.555 311.938 248.961C311.891 249.367 311.824 249.742 311.738 250.086C311.648 250.457 311.537 250.795 311.404 251.1C311.275 251.408 311.137 251.684 310.988 251.926C310.848 252.145 310.703 252.338 310.555 252.506C310.406 252.674 310.258 252.812 310.109 252.922L310.385 253.707C310.596 253.605 310.814 253.461 311.041 253.273C311.268 253.086 311.49 252.855 311.709 252.582C311.928 252.316 312.135 252.012 312.33 251.668C312.525 251.324 312.697 250.943 312.846 250.525C312.994 250.111 313.111 249.662 313.197 249.178C313.287 248.693 313.332 248.178 313.332 247.631ZM440.908 245.193C440.908 245.463 440.996 245.691 441.172 245.879C441.352 246.062 441.602 246.154 441.922 246.154C442.238 246.154 442.486 246.062 442.666 245.879C442.85 245.695 442.941 245.467 442.941 245.193C442.941 244.92 442.852 244.689 442.672 244.502C442.492 244.311 442.242 244.215 441.922 244.215C441.598 244.215 441.348 244.311 441.172 244.502C440.996 244.693 440.908 244.924 440.908 245.193ZM442.555 250.818V249.635H441.178V250.871C441.178 251.258 441.131 251.605 441.037 251.914C440.947 252.223 440.818 252.516 440.65 252.793L441.436 253.209C441.771 252.908 442.041 252.539 442.244 252.102C442.451 251.668 442.555 251.24 442.555 250.818Z" fill="white"/>
<path d="M147.775 244.543C147.338 244.543 146.938 244.645 146.574 244.848C146.215 245.051 145.906 245.33 145.648 245.686L145.643 245.539L145.584 244.66H144.271V251H145.672V247.086C145.746 246.898 145.838 246.732 145.947 246.588C146.057 246.443 146.189 246.324 146.346 246.23C146.49 246.133 146.656 246.061 146.844 246.014C147.031 245.967 147.242 245.943 147.477 245.943C147.684 245.943 147.891 245.955 148.098 245.979C148.309 246.002 148.521 246.037 148.736 246.084L148.936 244.701C148.814 244.658 148.646 244.621 148.432 244.59C148.221 244.559 148.002 244.543 147.775 244.543ZM150.418 247.783V247.906C150.418 248.363 150.477 248.789 150.594 249.184C150.715 249.574 150.887 249.912 151.109 250.197C151.328 250.486 151.594 250.713 151.906 250.877C152.219 251.037 152.57 251.117 152.961 251.117C153.176 251.117 153.375 251.094 153.559 251.047C153.742 251.004 153.91 250.939 154.062 250.854C154.164 250.799 154.258 250.734 154.344 250.66C154.434 250.586 154.52 250.506 154.602 250.42V250.859C154.602 251.098 154.566 251.311 154.496 251.498C154.43 251.686 154.334 251.844 154.209 251.973C154.072 252.105 153.906 252.207 153.711 252.277C153.52 252.348 153.299 252.383 153.049 252.383C152.904 252.383 152.762 252.367 152.621 252.336C152.48 252.309 152.342 252.264 152.205 252.201C152.068 252.139 151.934 252.057 151.801 251.955C151.672 251.857 151.551 251.74 151.438 251.604L150.775 252.453C150.916 252.641 151.084 252.801 151.279 252.934C151.475 253.066 151.68 253.174 151.895 253.256C152.109 253.338 152.324 253.398 152.539 253.438C152.754 253.477 152.951 253.496 153.131 253.496C153.557 253.496 153.945 253.436 154.297 253.314C154.652 253.197 154.957 253.025 155.211 252.799C155.461 252.568 155.654 252.287 155.791 251.955C155.932 251.627 156.002 251.25 156.002 250.824V244.66H154.73L154.672 245.299C154.594 245.205 154.51 245.119 154.42 245.041C154.33 244.959 154.234 244.889 154.133 244.83C153.977 244.736 153.803 244.666 153.611 244.619C153.42 244.568 153.207 244.543 152.973 244.543C152.578 244.543 152.223 244.623 151.906 244.783C151.594 244.939 151.326 245.16 151.104 245.445C150.885 245.73 150.715 246.072 150.594 246.471C150.477 246.865 150.418 247.303 150.418 247.783ZM151.824 247.906V247.783C151.824 247.498 151.854 247.23 151.912 246.98C151.971 246.727 152.062 246.504 152.188 246.312C152.309 246.121 152.463 245.971 152.65 245.861C152.838 245.752 153.062 245.697 153.324 245.697C153.473 245.697 153.609 245.715 153.734 245.75C153.859 245.781 153.973 245.826 154.074 245.885C154.188 245.947 154.287 246.025 154.373 246.119C154.463 246.213 154.539 246.318 154.602 246.436V249.213C154.539 249.326 154.467 249.43 154.385 249.523C154.303 249.617 154.209 249.697 154.104 249.764C153.998 249.826 153.879 249.875 153.746 249.91C153.617 249.945 153.473 249.963 153.312 249.963C153.055 249.963 152.832 249.91 152.645 249.805C152.457 249.695 152.303 249.545 152.182 249.354C152.057 249.17 151.965 248.953 151.906 248.703C151.852 248.453 151.824 248.188 151.824 247.906ZM163.379 247.895V247.771C163.379 247.412 163.346 247.072 163.279 246.752C163.217 246.432 163.123 246.141 162.998 245.879C162.904 245.691 162.795 245.52 162.67 245.363C162.549 245.203 162.41 245.068 162.254 244.959C162.07 244.826 161.863 244.725 161.633 244.654C161.406 244.58 161.156 244.543 160.883 244.543C160.676 244.543 160.482 244.564 160.303 244.607C160.127 244.646 159.965 244.707 159.816 244.789C159.703 244.852 159.598 244.924 159.5 245.006C159.402 245.088 159.312 245.18 159.23 245.281V242H157.83V251H159.096L159.16 250.309C159.23 250.395 159.303 250.475 159.377 250.549C159.455 250.619 159.537 250.686 159.623 250.748C159.791 250.869 159.98 250.961 160.191 251.023C160.402 251.086 160.637 251.117 160.895 251.117C161.148 251.117 161.383 251.084 161.598 251.018C161.816 250.955 162.014 250.865 162.189 250.748C162.408 250.604 162.596 250.422 162.752 250.203C162.908 249.984 163.033 249.74 163.127 249.471C163.209 249.244 163.271 248.998 163.314 248.732C163.357 248.467 163.379 248.188 163.379 247.895ZM161.979 247.771V247.895C161.979 248.07 161.969 248.24 161.949 248.404C161.93 248.568 161.9 248.721 161.861 248.861C161.814 249.049 161.746 249.219 161.656 249.371C161.57 249.52 161.459 249.643 161.322 249.74C161.221 249.811 161.105 249.867 160.977 249.91C160.848 249.949 160.703 249.969 160.543 249.969C160.367 249.969 160.207 249.947 160.062 249.904C159.922 249.857 159.797 249.795 159.688 249.717C159.59 249.643 159.502 249.559 159.424 249.465C159.35 249.367 159.285 249.26 159.23 249.143V246.518C159.277 246.416 159.332 246.322 159.395 246.236C159.461 246.146 159.535 246.068 159.617 246.002C159.73 245.904 159.863 245.83 160.016 245.779C160.168 245.725 160.34 245.697 160.531 245.697C160.688 245.697 160.828 245.715 160.953 245.75C161.078 245.785 161.189 245.838 161.287 245.908C161.436 246.01 161.553 246.135 161.639 246.283C161.729 246.428 161.801 246.59 161.855 246.77C161.895 246.918 161.924 247.078 161.943 247.25C161.967 247.418 161.979 247.592 161.979 247.771ZM169.062 251H170.492V250.9C170.414 250.736 170.354 250.541 170.311 250.314C170.271 250.084 170.252 249.826 170.252 249.541V246.723C170.252 246.363 170.186 246.047 170.053 245.773C169.92 245.496 169.736 245.268 169.502 245.088C169.268 244.908 168.988 244.773 168.664 244.684C168.344 244.59 167.998 244.543 167.627 244.543C167.213 244.543 166.844 244.598 166.52 244.707C166.199 244.812 165.928 244.957 165.705 245.141C165.482 245.32 165.312 245.527 165.195 245.762C165.078 245.996 165.018 246.24 165.014 246.494H166.42C166.42 246.373 166.441 246.26 166.484 246.154C166.531 246.045 166.602 245.953 166.695 245.879C166.789 245.797 166.906 245.732 167.047 245.686C167.191 245.639 167.359 245.615 167.551 245.615C167.762 245.615 167.947 245.643 168.107 245.697C168.271 245.748 168.41 245.822 168.523 245.92C168.629 246.018 168.709 246.133 168.764 246.266C168.822 246.398 168.852 246.547 168.852 246.711V247.139H167.832C167.375 247.139 166.965 247.182 166.602 247.268C166.242 247.354 165.939 247.479 165.693 247.643C165.428 247.818 165.225 248.041 165.084 248.311C164.947 248.576 164.879 248.883 164.879 249.23C164.879 249.5 164.932 249.752 165.037 249.986C165.146 250.217 165.297 250.414 165.488 250.578C165.684 250.746 165.916 250.879 166.186 250.977C166.459 251.07 166.76 251.117 167.088 251.117C167.291 251.117 167.48 251.098 167.656 251.059C167.832 251.02 167.996 250.965 168.148 250.895C168.301 250.828 168.438 250.75 168.559 250.66C168.684 250.566 168.795 250.469 168.893 250.367C168.912 250.488 168.934 250.605 168.957 250.719C168.984 250.828 169.02 250.922 169.062 251ZM167.357 249.992C167.178 249.992 167.021 249.971 166.889 249.928C166.756 249.881 166.645 249.818 166.555 249.74C166.465 249.662 166.396 249.568 166.35 249.459C166.303 249.346 166.279 249.225 166.279 249.096C166.279 248.939 166.307 248.799 166.361 248.674C166.42 248.549 166.508 248.441 166.625 248.352C166.758 248.246 166.936 248.166 167.158 248.111C167.381 248.053 167.645 248.023 167.949 248.023H168.852V249.195C168.801 249.297 168.729 249.395 168.635 249.488C168.541 249.582 168.43 249.666 168.301 249.74C168.172 249.814 168.027 249.875 167.867 249.922C167.711 249.969 167.541 249.992 167.357 249.992Z" fill="#7DD8C7"/>
<path d="M183.219 251V242.469H183.131L179.621 243.77V245.006L181.807 244.203V251H183.219ZM192.107 247.748V245.727C192.107 245.18 192.043 244.697 191.914 244.279C191.785 243.857 191.604 243.502 191.369 243.213C191.127 242.928 190.834 242.713 190.49 242.568C190.15 242.42 189.764 242.346 189.33 242.346C188.9 242.346 188.514 242.42 188.17 242.568C187.83 242.713 187.541 242.928 187.303 243.213C187.064 243.502 186.881 243.857 186.752 244.279C186.627 244.697 186.564 245.18 186.564 245.727V247.748C186.564 248.295 186.627 248.779 186.752 249.201C186.881 249.619 187.066 249.971 187.309 250.256C187.547 250.541 187.838 250.758 188.182 250.906C188.525 251.051 188.912 251.123 189.342 251.123C189.775 251.123 190.162 251.051 190.502 250.906C190.846 250.758 191.135 250.541 191.369 250.256C191.607 249.971 191.789 249.619 191.914 249.201C192.043 248.779 192.107 248.295 192.107 247.748ZM187.971 247.25C187.971 247.137 187.971 247.041 187.971 246.963C187.971 246.885 187.971 246.771 187.971 246.623V245.475C187.971 245.123 188.002 244.818 188.064 244.561C188.127 244.299 188.223 244.086 188.352 243.922C188.461 243.777 188.598 243.668 188.762 243.594C188.926 243.52 189.115 243.482 189.33 243.482C189.533 243.482 189.713 243.514 189.869 243.576C190.025 243.639 190.158 243.732 190.268 243.857C190.393 243.998 190.488 244.18 190.555 244.402C190.625 244.625 190.668 244.889 190.684 245.193L187.971 247.25ZM190.695 247.982C190.695 248.342 190.664 248.654 190.602 248.92C190.539 249.186 190.441 249.4 190.309 249.564C190.195 249.705 190.059 249.812 189.898 249.887C189.738 249.957 189.553 249.992 189.342 249.992C189.127 249.992 188.938 249.955 188.773 249.881C188.613 249.807 188.479 249.695 188.369 249.547C188.26 249.41 188.172 249.238 188.105 249.031C188.043 248.824 188.002 248.586 187.982 248.316L190.695 246.271C190.695 246.385 190.695 246.494 190.695 246.6C190.695 246.701 190.695 246.803 190.695 246.904V247.982ZM199.314 247.748V245.727C199.314 245.18 199.25 244.697 199.121 244.279C198.992 243.857 198.811 243.502 198.576 243.213C198.334 242.928 198.041 242.713 197.697 242.568C197.357 242.42 196.971 242.346 196.537 242.346C196.107 242.346 195.721 242.42 195.377 242.568C195.037 242.713 194.748 242.928 194.51 243.213C194.271 243.502 194.088 243.857 193.959 244.279C193.834 244.697 193.771 245.18 193.771 245.727V247.748C193.771 248.295 193.834 248.779 193.959 249.201C194.088 249.619 194.273 249.971 194.516 250.256C194.754 250.541 195.045 250.758 195.389 250.906C195.732 251.051 196.119 251.123 196.549 251.123C196.982 251.123 197.369 251.051 197.709 250.906C198.053 250.758 198.342 250.541 198.576 250.256C198.814 249.971 198.996 249.619 199.121 249.201C199.25 248.779 199.314 248.295 199.314 247.748ZM195.178 247.25C195.178 247.137 195.178 247.041 195.178 246.963C195.178 246.885 195.178 246.771 195.178 246.623V245.475C195.178 245.123 195.209 244.818 195.271 244.561C195.334 244.299 195.43 244.086 195.559 243.922C195.668 243.777 195.805 243.668 195.969 243.594C196.133 243.52 196.322 243.482 196.537 243.482C196.74 243.482 196.92 243.514 197.076 243.576C197.232 243.639 197.365 243.732 197.475 243.857C197.6 243.998 197.695 244.18 197.762 244.402C197.832 244.625 197.875 244.889 197.891 245.193L195.178 247.25ZM197.902 247.982C197.902 248.342 197.871 248.654 197.809 248.92C197.746 249.186 197.648 249.4 197.516 249.564C197.402 249.705 197.266 249.812 197.105 249.887C196.945 249.957 196.76 249.992 196.549 249.992C196.334 249.992 196.145 249.955 195.98 249.881C195.82 249.807 195.686 249.695 195.576 249.547C195.467 249.41 195.379 249.238 195.312 249.031C195.25 248.824 195.209 248.586 195.189 248.316L197.902 246.271C197.902 246.385 197.902 246.494 197.902 246.6C197.902 246.701 197.902 246.803 197.902 246.904V247.982ZM219.254 251V242.469H219.166L215.656 243.77V245.006L217.842 244.203V251H219.254ZM228.143 247.748V245.727C228.143 245.18 228.078 244.697 227.949 244.279C227.82 243.857 227.639 243.502 227.404 243.213C227.162 242.928 226.869 242.713 226.525 242.568C226.186 242.42 225.799 242.346 225.365 242.346C224.936 242.346 224.549 242.42 224.205 242.568C223.865 242.713 223.576 242.928 223.338 243.213C223.1 243.502 222.916 243.857 222.787 244.279C222.662 244.697 222.6 245.18 222.6 245.727V247.748C222.6 248.295 222.662 248.779 222.787 249.201C222.916 249.619 223.102 249.971 223.344 250.256C223.582 250.541 223.873 250.758 224.217 250.906C224.561 251.051 224.947 251.123 225.377 251.123C225.811 251.123 226.197 251.051 226.537 250.906C226.881 250.758 227.17 250.541 227.404 250.256C227.643 249.971 227.824 249.619 227.949 249.201C228.078 248.779 228.143 248.295 228.143 247.748ZM224.006 247.25C224.006 247.137 224.006 247.041 224.006 246.963C224.006 246.885 224.006 246.771 224.006 246.623V245.475C224.006 245.123 224.037 244.818 224.1 244.561C224.162 244.299 224.258 244.086 224.387 243.922C224.496 243.777 224.633 243.668 224.797 243.594C224.961 243.52 225.15 243.482 225.365 243.482C225.568 243.482 225.748 243.514 225.904 243.576C226.061 243.639 226.193 243.732 226.303 243.857C226.428 243.998 226.523 244.18 226.59 244.402C226.66 244.625 226.703 244.889 226.719 245.193L224.006 247.25ZM226.73 247.982C226.73 248.342 226.699 248.654 226.637 248.92C226.574 249.186 226.477 249.4 226.344 249.564C226.23 249.705 226.094 249.812 225.934 249.887C225.773 249.957 225.588 249.992 225.377 249.992C225.162 249.992 224.973 249.955 224.809 249.881C224.648 249.807 224.514 249.695 224.404 249.547C224.295 249.41 224.207 249.238 224.141 249.031C224.078 248.824 224.037 248.586 224.018 248.316L226.73 246.271C226.73 246.385 226.73 246.494 226.73 246.6C226.73 246.701 226.73 246.803 226.73 246.904V247.982ZM235.35 247.748V245.727C235.35 245.18 235.285 244.697 235.156 244.279C235.027 243.857 234.846 243.502 234.611 243.213C234.369 242.928 234.076 242.713 233.732 242.568C233.393 242.42 233.006 242.346 232.572 242.346C232.143 242.346 231.756 242.42 231.412 242.568C231.072 242.713 230.783 242.928 230.545 243.213C230.307 243.502 230.123 243.857 229.994 244.279C229.869 244.697 229.807 245.18 229.807 245.727V247.748C229.807 248.295 229.869 248.779 229.994 249.201C230.123 249.619 230.309 249.971 230.551 250.256C230.789 250.541 231.08 250.758 231.424 250.906C231.768 251.051 232.154 251.123 232.584 251.123C233.018 251.123 233.404 251.051 233.744 250.906C234.088 250.758 234.377 250.541 234.611 250.256C234.85 249.971 235.031 249.619 235.156 249.201C235.285 248.779 235.35 248.295 235.35 247.748ZM231.213 247.25C231.213 247.137 231.213 247.041 231.213 246.963C231.213 246.885 231.213 246.771 231.213 246.623V245.475C231.213 245.123 231.244 244.818 231.307 244.561C231.369 244.299 231.465 244.086 231.594 243.922C231.703 243.777 231.84 243.668 232.004 243.594C232.168 243.52 232.357 243.482 232.572 243.482C232.775 243.482 232.955 243.514 233.111 243.576C233.268 243.639 233.4 243.732 233.51 243.857C233.635 243.998 233.73 244.18 233.797 244.402C233.867 244.625 233.91 244.889 233.926 245.193L231.213 247.25ZM233.938 247.982C233.938 248.342 233.906 248.654 233.844 248.92C233.781 249.186 233.684 249.4 233.551 249.564C233.438 249.705 233.301 249.812 233.141 249.887C232.98 249.957 232.795 249.992 232.584 249.992C232.369 249.992 232.18 249.955 232.016 249.881C231.855 249.807 231.721 249.695 231.611 249.547C231.502 249.41 231.414 249.238 231.348 249.031C231.285 248.824 231.244 248.586 231.225 248.316L233.938 246.271C233.938 246.385 233.938 246.494 233.938 246.6C233.938 246.701 233.938 246.803 233.938 246.904V247.982ZM255.289 251V242.469H255.201L251.691 243.77V245.006L253.877 244.203V251H255.289ZM262.496 251V242.469H262.408L258.898 243.77V245.006L261.084 244.203V251H262.496ZM269.703 251V242.469H269.615L266.105 243.77V245.006L268.291 244.203V251H269.703ZM293.006 247.748V245.727C293.006 245.18 292.941 244.697 292.812 244.279C292.684 243.857 292.502 243.502 292.268 243.213C292.025 242.928 291.732 242.713 291.389 242.568C291.049 242.42 290.662 242.346 290.229 242.346C289.799 242.346 289.412 242.42 289.068 242.568C288.729 242.713 288.439 242.928 288.201 243.213C287.963 243.502 287.779 243.857 287.65 244.279C287.525 244.697 287.463 245.18 287.463 245.727V247.748C287.463 248.295 287.525 248.779 287.65 249.201C287.779 249.619 287.965 249.971 288.207 250.256C288.445 250.541 288.736 250.758 289.08 250.906C289.424 251.051 289.811 251.123 290.24 251.123C290.674 251.123 291.061 251.051 291.4 250.906C291.744 250.758 292.033 250.541 292.268 250.256C292.506 249.971 292.688 249.619 292.812 249.201C292.941 248.779 293.006 248.295 293.006 247.748ZM288.869 247.25C288.869 247.137 288.869 247.041 288.869 246.963C288.869 246.885 288.869 246.771 288.869 246.623V245.475C288.869 245.123 288.9 244.818 288.963 244.561C289.025 244.299 289.121 244.086 289.25 243.922C289.359 243.777 289.496 243.668 289.66 243.594C289.824 243.52 290.014 243.482 290.229 243.482C290.432 243.482 290.611 243.514 290.768 243.576C290.924 243.639 291.057 243.732 291.166 243.857C291.291 243.998 291.387 244.18 291.453 244.402C291.523 244.625 291.566 244.889 291.582 245.193L288.869 247.25ZM291.594 247.982C291.594 248.342 291.562 248.654 291.5 248.92C291.438 249.186 291.34 249.4 291.207 249.564C291.094 249.705 290.957 249.812 290.797 249.887C290.637 249.957 290.451 249.992 290.24 249.992C290.025 249.992 289.836 249.955 289.672 249.881C289.512 249.807 289.377 249.695 289.268 249.547C289.158 249.41 289.07 249.238 289.004 249.031C288.941 248.824 288.9 248.586 288.881 248.316L291.594 246.271C291.594 246.385 291.594 246.494 291.594 246.6C291.594 246.701 291.594 246.803 291.594 246.904V247.982ZM296.486 250.156C296.486 250.426 296.574 250.654 296.75 250.842C296.93 251.025 297.18 251.117 297.5 251.117C297.816 251.117 298.064 251.025 298.244 250.842C298.428 250.658 298.52 250.43 298.52 250.156C298.52 249.883 298.43 249.652 298.25 249.465C298.07 249.273 297.82 249.178 297.5 249.178C297.176 249.178 296.926 249.273 296.75 249.465C296.574 249.656 296.486 249.887 296.486 250.156ZM307.379 251V249.869H303.406L305.305 247.842C305.555 247.576 305.785 247.318 305.996 247.068C306.211 246.818 306.396 246.57 306.553 246.324C306.705 246.078 306.824 245.83 306.91 245.58C307 245.326 307.045 245.064 307.045 244.795C307.045 244.436 306.986 244.107 306.869 243.811C306.752 243.51 306.582 243.252 306.359 243.037C306.133 242.822 305.854 242.654 305.521 242.533C305.193 242.412 304.82 242.352 304.402 242.352C303.957 242.352 303.553 242.424 303.189 242.568C302.83 242.713 302.525 242.908 302.275 243.154C302.021 243.4 301.826 243.689 301.689 244.021C301.553 244.35 301.484 244.699 301.484 245.07H302.891C302.891 244.824 302.922 244.605 302.984 244.414C303.047 244.219 303.141 244.055 303.266 243.922C303.387 243.789 303.539 243.688 303.723 243.617C303.906 243.547 304.123 243.512 304.373 243.512C304.568 243.512 304.744 243.545 304.9 243.611C305.061 243.678 305.197 243.77 305.311 243.887C305.424 244.004 305.51 244.145 305.568 244.309C305.627 244.473 305.656 244.654 305.656 244.854C305.656 245.002 305.635 245.15 305.592 245.299C305.553 245.443 305.486 245.6 305.393 245.768C305.295 245.936 305.168 246.121 305.012 246.324C304.855 246.523 304.662 246.75 304.432 247.004L301.654 250.027V251H307.379ZM329.041 247.748V245.727C329.041 245.18 328.977 244.697 328.848 244.279C328.719 243.857 328.537 243.502 328.303 243.213C328.061 242.928 327.768 242.713 327.424 242.568C327.084 242.42 326.697 242.346 326.264 242.346C325.834 242.346 325.447 242.42 325.104 242.568C324.764 242.713 324.475 242.928 324.236 243.213C323.998 243.502 323.814 243.857 323.686 244.279C323.561 244.697 323.498 245.18 323.498 245.727V247.748C323.498 248.295 323.561 248.779 323.686 249.201C323.814 249.619 324 249.971 324.242 250.256C324.48 250.541 324.771 250.758 325.115 250.906C325.459 251.051 325.846 251.123 326.275 251.123C326.709 251.123 327.096 251.051 327.436 250.906C327.779 250.758 328.068 250.541 328.303 250.256C328.541 249.971 328.723 249.619 328.848 249.201C328.977 248.779 329.041 248.295 329.041 247.748ZM324.904 247.25C324.904 247.137 324.904 247.041 324.904 246.963C324.904 246.885 324.904 246.771 324.904 246.623V245.475C324.904 245.123 324.936 244.818 324.998 244.561C325.061 244.299 325.156 244.086 325.285 243.922C325.395 243.777 325.531 243.668 325.695 243.594C325.859 243.52 326.049 243.482 326.264 243.482C326.467 243.482 326.646 243.514 326.803 243.576C326.959 243.639 327.092 243.732 327.201 243.857C327.326 243.998 327.422 244.18 327.488 244.402C327.559 244.625 327.602 244.889 327.617 245.193L324.904 247.25ZM327.629 247.982C327.629 248.342 327.598 248.654 327.535 248.92C327.473 249.186 327.375 249.4 327.242 249.564C327.129 249.705 326.992 249.812 326.832 249.887C326.672 249.957 326.486 249.992 326.275 249.992C326.061 249.992 325.871 249.955 325.707 249.881C325.547 249.807 325.412 249.695 325.303 249.547C325.193 249.41 325.105 249.238 325.039 249.031C324.977 248.824 324.936 248.586 324.916 248.316L327.629 246.271C327.629 246.385 327.629 246.494 327.629 246.6C327.629 246.701 327.629 246.803 327.629 246.904V247.982ZM330.787 253.438H332.188V250.426C332.262 250.508 332.342 250.584 332.428 250.654C332.514 250.721 332.604 250.783 332.697 250.842C332.857 250.932 333.031 251 333.219 251.047C333.41 251.094 333.619 251.117 333.846 251.117C334.244 251.117 334.598 251.035 334.906 250.871C335.215 250.707 335.475 250.48 335.686 250.191C335.896 249.906 336.055 249.566 336.16 249.172C336.27 248.777 336.324 248.352 336.324 247.895V247.771C336.324 247.295 336.27 246.859 336.16 246.465C336.055 246.066 335.896 245.725 335.686 245.439C335.475 245.154 335.213 244.934 334.9 244.777C334.592 244.621 334.234 244.543 333.828 244.543C333.621 244.543 333.426 244.566 333.242 244.613C333.059 244.656 332.891 244.719 332.738 244.801C332.621 244.863 332.512 244.938 332.41 245.023C332.309 245.109 332.215 245.205 332.129 245.311L332.076 244.66H330.787V253.438ZM334.924 247.771V247.895C334.924 248.176 334.896 248.443 334.842 248.697C334.787 248.947 334.699 249.17 334.578 249.365C334.461 249.557 334.309 249.709 334.121 249.822C333.938 249.932 333.715 249.986 333.453 249.986C333.293 249.986 333.146 249.969 333.014 249.934C332.881 249.895 332.762 249.844 332.656 249.781C332.555 249.715 332.465 249.637 332.387 249.547C332.309 249.457 332.242 249.357 332.188 249.248V246.43C332.25 246.312 332.322 246.207 332.404 246.113C332.49 246.02 332.59 245.941 332.703 245.879C332.801 245.82 332.912 245.775 333.037 245.744C333.162 245.713 333.297 245.697 333.441 245.697C333.703 245.697 333.928 245.752 334.115 245.861C334.303 245.971 334.457 246.119 334.578 246.307C334.695 246.494 334.781 246.715 334.836 246.969C334.895 247.219 334.924 247.486 334.924 247.771ZM340.766 246.793L339.266 244.66H337.725L339.945 247.783L337.648 251H339.201L340.777 248.785L342.359 251H343.906L341.609 247.783L343.836 244.66H342.283L340.766 246.793ZM357.898 243.254V242.469H351.998V243.641H356.422L353.012 251H354.488L357.898 243.254ZM359.615 253.438H361.016V250.426C361.09 250.508 361.17 250.584 361.256 250.654C361.342 250.721 361.432 250.783 361.525 250.842C361.686 250.932 361.859 251 362.047 251.047C362.238 251.094 362.447 251.117 362.674 251.117C363.072 251.117 363.426 251.035 363.734 250.871C364.043 250.707 364.303 250.48 364.514 250.191C364.725 249.906 364.883 249.566 364.988 249.172C365.098 248.777 365.152 248.352 365.152 247.895V247.771C365.152 247.295 365.098 246.859 364.988 246.465C364.883 246.066 364.725 245.725 364.514 245.439C364.303 245.154 364.041 244.934 363.729 244.777C363.42 244.621 363.062 244.543 362.656 244.543C362.449 244.543 362.254 244.566 362.07 244.613C361.887 244.656 361.719 244.719 361.566 244.801C361.449 244.863 361.34 244.938 361.238 245.023C361.137 245.109 361.043 245.205 360.957 245.311L360.904 244.66H359.615V253.438ZM363.752 247.771V247.895C363.752 248.176 363.725 248.443 363.67 248.697C363.615 248.947 363.527 249.17 363.406 249.365C363.289 249.557 363.137 249.709 362.949 249.822C362.766 249.932 362.543 249.986 362.281 249.986C362.121 249.986 361.975 249.969 361.842 249.934C361.709 249.895 361.59 249.844 361.484 249.781C361.383 249.715 361.293 249.637 361.215 249.547C361.137 249.457 361.07 249.357 361.016 249.248V246.43C361.078 246.312 361.15 246.207 361.232 246.113C361.318 246.02 361.418 245.941 361.531 245.879C361.629 245.82 361.74 245.775 361.865 245.744C361.99 245.713 362.125 245.697 362.27 245.697C362.531 245.697 362.756 245.752 362.943 245.861C363.131 245.971 363.285 246.119 363.406 246.307C363.523 246.494 363.609 246.715 363.664 246.969C363.723 247.219 363.752 247.486 363.752 247.771ZM369.594 246.793L368.094 244.66H366.553L368.773 247.783L366.477 251H368.029L369.605 248.785L371.188 251H372.734L370.438 247.783L372.664 244.66H371.111L369.594 246.793ZM386.656 251V249.869H382.684L384.582 247.842C384.832 247.576 385.062 247.318 385.273 247.068C385.488 246.818 385.674 246.57 385.83 246.324C385.982 246.078 386.102 245.83 386.188 245.58C386.277 245.326 386.322 245.064 386.322 244.795C386.322 244.436 386.264 244.107 386.146 243.811C386.029 243.51 385.859 243.252 385.637 243.037C385.41 242.822 385.131 242.654 384.799 242.533C384.471 242.412 384.098 242.352 383.68 242.352C383.234 242.352 382.83 242.424 382.467 242.568C382.107 242.713 381.803 242.908 381.553 243.154C381.299 243.4 381.104 243.689 380.967 244.021C380.83 244.35 380.762 244.699 380.762 245.07H382.168C382.168 244.824 382.199 244.605 382.262 244.414C382.324 244.219 382.418 244.055 382.543 243.922C382.664 243.789 382.816 243.688 383 243.617C383.184 243.547 383.4 243.512 383.65 243.512C383.846 243.512 384.021 243.545 384.178 243.611C384.338 243.678 384.475 243.77 384.588 243.887C384.701 244.004 384.787 244.145 384.846 244.309C384.904 244.473 384.934 244.654 384.934 244.854C384.934 245.002 384.912 245.15 384.869 245.299C384.83 245.443 384.764 245.6 384.67 245.768C384.572 245.936 384.445 246.121 384.289 246.324C384.133 246.523 383.939 246.75 383.709 247.004L380.932 250.027V251H386.656ZM389.568 249.846H389.457V251.041H389.574C390.309 251.041 390.936 250.934 391.455 250.719C391.979 250.504 392.4 250.209 392.721 249.834C393.115 249.377 393.391 248.844 393.547 248.234C393.703 247.625 393.781 246.984 393.781 246.312V245.82C393.781 245.332 393.717 244.867 393.588 244.426C393.459 243.98 393.27 243.602 393.02 243.289C392.781 243 392.49 242.771 392.146 242.604C391.807 242.436 391.416 242.352 390.975 242.352C390.537 242.352 390.146 242.432 389.803 242.592C389.463 242.748 389.176 242.961 388.941 243.23C388.707 243.504 388.527 243.822 388.402 244.186C388.281 244.545 388.221 244.93 388.221 245.34C388.221 245.715 388.271 246.076 388.373 246.424C388.475 246.768 388.629 247.072 388.836 247.338C389.039 247.6 389.293 247.809 389.598 247.965C389.906 248.121 390.268 248.199 390.682 248.199C390.885 248.199 391.07 248.18 391.238 248.141C391.41 248.102 391.566 248.049 391.707 247.982C391.84 247.92 391.961 247.848 392.07 247.766C392.184 247.68 392.283 247.588 392.369 247.49V247.52C392.338 247.852 392.268 248.162 392.158 248.451C392.049 248.736 391.877 248.99 391.643 249.213C391.424 249.416 391.145 249.572 390.805 249.682C390.465 249.791 390.053 249.846 389.568 249.846ZM390.98 247.092C390.746 247.092 390.543 247.043 390.371 246.945C390.203 246.844 390.061 246.711 389.943 246.547C389.83 246.379 389.746 246.188 389.691 245.973C389.637 245.758 389.609 245.533 389.609 245.299C389.609 245.057 389.639 244.826 389.697 244.607C389.76 244.385 389.85 244.191 389.967 244.027C390.08 243.863 390.221 243.734 390.389 243.641C390.561 243.543 390.756 243.494 390.975 243.494C391.17 243.494 391.354 243.541 391.525 243.635C391.697 243.725 391.848 243.857 391.977 244.033C392.105 244.209 392.207 244.428 392.281 244.689C392.355 244.951 392.393 245.252 392.393 245.592V246.078C392.334 246.223 392.258 246.357 392.164 246.482C392.074 246.604 391.969 246.711 391.848 246.805C391.727 246.895 391.592 246.965 391.443 247.016C391.299 247.066 391.145 247.092 390.98 247.092ZM395.65 253.438H397.051V250.426C397.125 250.508 397.205 250.584 397.291 250.654C397.377 250.721 397.467 250.783 397.561 250.842C397.721 250.932 397.895 251 398.082 251.047C398.273 251.094 398.482 251.117 398.709 251.117C399.107 251.117 399.461 251.035 399.77 250.871C400.078 250.707 400.338 250.48 400.549 250.191C400.76 249.906 400.918 249.566 401.023 249.172C401.133 248.777 401.188 248.352 401.188 247.895V247.771C401.188 247.295 401.133 246.859 401.023 246.465C400.918 246.066 400.76 245.725 400.549 245.439C400.338 245.154 400.076 244.934 399.764 244.777C399.455 244.621 399.098 244.543 398.691 244.543C398.484 244.543 398.289 244.566 398.105 244.613C397.922 244.656 397.754 244.719 397.602 244.801C397.484 244.863 397.375 244.938 397.273 245.023C397.172 245.109 397.078 245.205 396.992 245.311L396.939 244.66H395.65V253.438ZM399.787 247.771V247.895C399.787 248.176 399.76 248.443 399.705 248.697C399.65 248.947 399.562 249.17 399.441 249.365C399.324 249.557 399.172 249.709 398.984 249.822C398.801 249.932 398.578 249.986 398.316 249.986C398.156 249.986 398.01 249.969 397.877 249.934C397.744 249.895 397.625 249.844 397.52 249.781C397.418 249.715 397.328 249.637 397.25 249.547C397.172 249.457 397.105 249.357 397.051 249.248V246.43C397.113 246.312 397.186 246.207 397.268 246.113C397.354 246.02 397.453 245.941 397.566 245.879C397.664 245.82 397.775 245.775 397.9 245.744C398.025 245.713 398.16 245.697 398.305 245.697C398.566 245.697 398.791 245.752 398.979 245.861C399.166 245.971 399.32 246.119 399.441 246.307C399.559 246.494 399.645 246.715 399.699 246.969C399.758 247.219 399.787 247.486 399.787 247.771ZM405.629 246.793L404.129 244.66H402.588L404.809 247.783L402.512 251H404.064L405.641 248.785L407.223 251H408.77L406.473 247.783L408.699 244.66H407.146L405.629 246.793ZM422.732 247.748V245.727C422.732 245.18 422.668 244.697 422.539 244.279C422.41 243.857 422.229 243.502 421.994 243.213C421.752 242.928 421.459 242.713 421.115 242.568C420.775 242.42 420.389 242.346 419.955 242.346C419.525 242.346 419.139 242.42 418.795 242.568C418.455 242.713 418.166 242.928 417.928 243.213C417.689 243.502 417.506 243.857 417.377 244.279C417.252 244.697 417.189 245.18 417.189 245.727V247.748C417.189 248.295 417.252 248.779 417.377 249.201C417.506 249.619 417.691 249.971 417.934 250.256C418.172 250.541 418.463 250.758 418.807 250.906C419.15 251.051 419.537 251.123 419.967 251.123C420.4 251.123 420.787 251.051 421.127 250.906C421.471 250.758 421.76 250.541 421.994 250.256C422.232 249.971 422.414 249.619 422.539 249.201C422.668 248.779 422.732 248.295 422.732 247.748ZM418.596 247.25C418.596 247.137 418.596 247.041 418.596 246.963C418.596 246.885 418.596 246.771 418.596 246.623V245.475C418.596 245.123 418.627 244.818 418.689 244.561C418.752 244.299 418.848 244.086 418.977 243.922C419.086 243.777 419.223 243.668 419.387 243.594C419.551 243.52 419.74 243.482 419.955 243.482C420.158 243.482 420.338 243.514 420.494 243.576C420.65 243.639 420.783 243.732 420.893 243.857C421.018 243.998 421.113 244.18 421.18 244.402C421.25 244.625 421.293 244.889 421.309 245.193L418.596 247.25ZM421.32 247.982C421.32 248.342 421.289 248.654 421.227 248.92C421.164 249.186 421.066 249.4 420.934 249.564C420.82 249.705 420.684 249.812 420.523 249.887C420.363 249.957 420.178 249.992 419.967 249.992C419.752 249.992 419.562 249.955 419.398 249.881C419.238 249.807 419.104 249.695 418.994 249.547C418.885 249.41 418.797 249.238 418.73 249.031C418.668 248.824 418.627 248.586 418.607 248.316L421.32 246.271C421.32 246.385 421.32 246.494 421.32 246.6C421.32 246.701 421.32 246.803 421.32 246.904V247.982ZM424.479 253.438H425.879V250.426C425.953 250.508 426.033 250.584 426.119 250.654C426.205 250.721 426.295 250.783 426.389 250.842C426.549 250.932 426.723 251 426.91 251.047C427.102 251.094 427.311 251.117 427.537 251.117C427.936 251.117 428.289 251.035 428.598 250.871C428.906 250.707 429.166 250.48 429.377 250.191C429.588 249.906 429.746 249.566 429.852 249.172C429.961 248.777 430.016 248.352 430.016 247.895V247.771C430.016 247.295 429.961 246.859 429.852 246.465C429.746 246.066 429.588 245.725 429.377 245.439C429.166 245.154 428.904 244.934 428.592 244.777C428.283 244.621 427.926 244.543 427.52 244.543C427.312 244.543 427.117 244.566 426.934 244.613C426.75 244.656 426.582 244.719 426.43 244.801C426.312 244.863 426.203 244.938 426.102 245.023C426 245.109 425.906 245.205 425.82 245.311L425.768 244.66H424.479V253.438ZM428.615 247.771V247.895C428.615 248.176 428.588 248.443 428.533 248.697C428.479 248.947 428.391 249.17 428.27 249.365C428.152 249.557 428 249.709 427.812 249.822C427.629 249.932 427.406 249.986 427.145 249.986C426.984 249.986 426.838 249.969 426.705 249.934C426.572 249.895 426.453 249.844 426.348 249.781C426.246 249.715 426.156 249.637 426.078 249.547C426 249.457 425.934 249.357 425.879 249.248V246.43C425.941 246.312 426.014 246.207 426.096 246.113C426.182 246.02 426.281 245.941 426.395 245.879C426.492 245.82 426.604 245.775 426.729 245.744C426.854 245.713 426.988 245.697 427.133 245.697C427.395 245.697 427.619 245.752 427.807 245.861C427.994 245.971 428.148 246.119 428.27 246.307C428.387 246.494 428.473 246.715 428.527 246.969C428.586 247.219 428.615 247.486 428.615 247.771ZM434.457 246.793L432.957 244.66H431.416L433.637 247.783L431.34 251H432.893L434.469 248.785L436.051 251H437.598L435.301 247.783L437.527 244.66H435.975L434.457 246.793Z" fill="#FF628C"/>
<defs>
<filter id="filter0_d_1_17" x="17" y="49" width="152" height="152" filterUnits="userSpaceOnUse" color-interpolation-filters="sRGB">
<feFlood flood-opacity="0" result="BackgroundImageFix"/>
<feColorMatrix in="SourceAlpha" type="matrix" values="0 0 0 0 0 0 0 0 0 0 0 0 0 0 0 0 0 0 127 0" result="hardAlpha"/>
<feOffset dy="7"/>
<feGaussianBlur stdDeviation="14.5"/>
<feColorMatrix type="matrix" values="0 0 0 0 0.392157 0 0 0 0 0.392157 0 0 0 0 0.435294 0 0 0 0.2 0"/>
<feBlend mode="normal" in2="BackgroundImageFix" result="effect1_dropShadow_1_17"/>
<feBlend mode="normal" in="SourceGraphic" in2="effect1_dropShadow_1_17" result="shape"/>
</filter>
</defs>
</svg>
