<svg width="537" height="309" viewBox="0 0 537 309" fill="none" xmlns="http://www.w3.org/2000/svg">
<rect x="0.5" y="0.5" width="536" height="308" rx="9.5" fill="#FAFAFA"/>
<rect x="0.5" y="0.5" width="536" height="308" rx="9.5" stroke="#DFDFDF"/>
<path d="M54.0625 45H56.7898L57.4972 40.6705H59.8835L60.3352 37.9432H57.9489L58.4943 34.6023H60.8807L61.3409 31.875H58.946L59.6534 27.5455H56.9261L56.2188 31.875H52.8097L53.517 27.5455H50.7898L50.0824 31.875H47.7045L47.2443 34.6023H49.6307L49.0852 37.9432H46.6989L46.2472 40.6705H48.6335L47.9261 45H50.6534L51.3608 40.6705H54.7699L54.0625 45ZM51.8125 37.9432L52.358 34.6023H55.767L55.2216 37.9432H51.8125ZM62.7365 41.9318H71.1143V45H74.6428V41.9318H76.8075V38.9744H74.6428V27.5455H70.0234L62.7365 39.0256V41.9318ZM71.1825 38.9744H66.4524V38.8381L71.0462 31.5682H71.1825V38.9744Z" fill="black"/>
<rect x="46" y="205" width="434.824" height="24" fill="#011627"/>
<ellipse cx="60.8235" cy="216.294" rx="4.47059" ry="4.70588" fill="#FC605C"/>
<circle cx="73.7647" cy="216.765" r="4.70588" fill="#FFBB2C"/>
<circle cx="86.7058" cy="217.471" r="4.47059" fill="#2FC63C"/>
<g filter="url(#filter0_d_1_49)">
<rect x="46" y="71" width="94" height="94" rx="5" fill="white"/>
</g>
<rect width="435" height="36" transform="translate(46 228)" fill="#011627"/>
<path d="M62.4805 247.895V247.771C62.4805 247.412 62.4473 247.072 62.3809 246.752C62.3184 246.432 62.2246 246.141 62.0996 245.879C62.0059 245.691 61.8965 245.52 61.7715 245.363C61.6504 245.203 61.5117 245.068 61.3555 244.959C61.1719 244.826 60.9648 244.725 60.7344 244.654C60.5078 244.58 60.2578 244.543 59.9844 244.543C59.7773 244.543 59.584 244.564 59.4043 244.607C59.2285 244.646 59.0664 244.707 58.918 244.789C58.8047 244.852 58.6992 244.924 58.6016 245.006C58.5039 245.088 58.4141 245.18 58.332 245.281V242H56.9316V251H58.1973L58.2617 250.309C58.332 250.395 58.4043 250.475 58.4785 250.549C58.5566 250.619 58.6387 250.686 58.7246 250.748C58.8926 250.869 59.082 250.961 59.293 251.023C59.5039 251.086 59.7383 251.117 59.9961 251.117C60.25 251.117 60.4844 251.084 60.6992 251.018C60.918 250.955 61.1152 250.865 61.291 250.748C61.5098 250.604 61.6973 250.422 61.8535 250.203C62.0098 249.984 62.1348 249.74 62.2285 249.471C62.3105 249.244 62.373 248.998 62.416 248.732C62.459 248.467 62.4805 248.188 62.4805 247.895ZM61.0801 247.771V247.895C61.0801 248.07 61.0703 248.24 61.0508 248.404C61.0312 248.568 61.002 248.721 60.9629 248.861C60.916 249.049 60.8477 249.219 60.7578 249.371C60.6719 249.52 60.5605 249.643 60.4238 249.74C60.3223 249.811 60.207 249.867 60.0781 249.91C59.9492 249.949 59.8047 249.969 59.6445 249.969C59.4688 249.969 59.3086 249.947 59.1641 249.904C59.0234 249.857 58.8984 249.795 58.7891 249.717C58.6914 249.643 58.6035 249.559 58.5254 249.465C58.4512 249.367 58.3867 249.26 58.332 249.143V246.518C58.3789 246.416 58.4336 246.322 58.4961 246.236C58.5625 246.146 58.6367 246.068 58.7188 246.002C58.832 245.904 58.9648 245.83 59.1172 245.779C59.2695 245.725 59.4414 245.697 59.6328 245.697C59.7891 245.697 59.9297 245.715 60.0547 245.75C60.1797 245.785 60.291 245.838 60.3887 245.908C60.5371 246.01 60.6543 246.135 60.7402 246.283C60.8301 246.428 60.9023 246.59 60.957 246.77C60.9961 246.918 61.0254 247.078 61.0449 247.25C61.0684 247.418 61.0801 247.592 61.0801 247.771ZM63.8574 247.771V247.895C63.8574 248.359 63.9238 248.787 64.0566 249.178C64.1895 249.568 64.3828 249.908 64.6367 250.197C64.8867 250.486 65.1953 250.713 65.5625 250.877C65.9297 251.041 66.3457 251.123 66.8105 251.123C67.2715 251.123 67.6836 251.041 68.0469 250.877C68.4141 250.713 68.7227 250.486 68.9727 250.197C69.2227 249.908 69.4141 249.568 69.5469 249.178C69.6797 248.787 69.7461 248.359 69.7461 247.895V247.771C69.7461 247.311 69.6797 246.885 69.5469 246.494C69.4141 246.1 69.2227 245.758 68.9727 245.469C68.7188 245.18 68.4082 244.953 68.041 244.789C67.6777 244.625 67.2637 244.543 66.7988 244.543C66.334 244.543 65.9199 244.625 65.5566 244.789C65.1934 244.953 64.8867 245.18 64.6367 245.469C64.3828 245.758 64.1895 246.1 64.0566 246.494C63.9238 246.885 63.8574 247.311 63.8574 247.771ZM65.2578 247.895V247.771C65.2578 247.494 65.2871 247.229 65.3457 246.975C65.4082 246.721 65.502 246.498 65.627 246.307C65.7559 246.115 65.916 245.963 66.1074 245.85C66.3027 245.736 66.5332 245.68 66.7988 245.68C67.0684 245.68 67.2988 245.736 67.4902 245.85C67.6855 245.963 67.8457 246.115 67.9707 246.307C68.0957 246.498 68.1895 246.721 68.252 246.975C68.3145 247.229 68.3457 247.494 68.3457 247.771V247.895C68.3457 248.18 68.3145 248.449 68.252 248.703C68.1934 248.957 68.1016 249.18 67.9766 249.371C67.8516 249.562 67.6914 249.715 67.4961 249.828C67.3008 249.938 67.0723 249.992 66.8105 249.992C66.541 249.992 66.3086 249.938 66.1133 249.828C65.918 249.715 65.7559 249.562 65.627 249.371C65.502 249.18 65.4082 248.957 65.3457 248.703C65.2871 248.449 65.2578 248.18 65.2578 247.895ZM74.1055 246.793L72.6055 244.66H71.0645L73.2852 247.783L70.9883 251H72.541L74.1172 248.785L75.6992 251H77.2461L74.9492 247.783L77.1758 244.66H75.623L74.1055 246.793ZM83.832 247.818V246.682H79.1152V247.818H83.832ZM89.8789 249.283C89.8789 249.385 89.8555 249.479 89.8086 249.564C89.7656 249.646 89.6992 249.723 89.6094 249.793C89.5 249.879 89.3535 249.947 89.1699 249.998C88.9902 250.049 88.7793 250.074 88.5371 250.074C88.3574 250.074 88.1797 250.057 88.0039 250.021C87.8281 249.982 87.6719 249.92 87.5352 249.834C87.3945 249.752 87.2773 249.645 87.1836 249.512C87.0938 249.375 87.043 249.209 87.0312 249.014H85.6719C85.6719 249.275 85.7344 249.533 85.8594 249.787C85.9844 250.041 86.168 250.266 86.4102 250.461C86.6484 250.66 86.9434 250.82 87.2949 250.941C87.6504 251.062 88.0566 251.123 88.5137 251.123C88.9238 251.123 89.2969 251.076 89.6328 250.982C89.9688 250.889 90.2578 250.758 90.5 250.59C90.7383 250.422 90.9219 250.221 91.0508 249.986C91.1836 249.752 91.25 249.494 91.25 249.213C91.25 248.924 91.1875 248.674 91.0625 248.463C90.9375 248.252 90.7617 248.068 90.5352 247.912C90.3086 247.764 90.0352 247.639 89.7148 247.537C89.3945 247.436 89.041 247.35 88.6543 247.279C88.377 247.232 88.1465 247.18 87.9629 247.121C87.7832 247.062 87.6426 246.998 87.541 246.928C87.4316 246.861 87.3555 246.785 87.3125 246.699C87.2695 246.609 87.248 246.51 87.248 246.4C87.248 246.295 87.2734 246.195 87.3242 246.102C87.375 246.004 87.4512 245.92 87.5527 245.85C87.6543 245.771 87.7832 245.711 87.9395 245.668C88.0996 245.621 88.2852 245.598 88.4961 245.598C88.7266 245.598 88.9277 245.629 89.0996 245.691C89.2715 245.75 89.4121 245.83 89.5215 245.932C89.6152 246.018 89.6855 246.115 89.7324 246.225C89.7832 246.33 89.8086 246.441 89.8086 246.559H91.209C91.209 246.273 91.1465 246.008 91.0215 245.762C90.8965 245.516 90.7188 245.303 90.4883 245.123C90.2539 244.943 89.9688 244.803 89.6328 244.701C89.2969 244.596 88.918 244.543 88.4961 244.543C88.1016 244.543 87.7422 244.594 87.418 244.695C87.0977 244.797 86.8242 244.936 86.5977 245.111C86.3672 245.287 86.1895 245.492 86.0645 245.727C85.9434 245.957 85.8828 246.201 85.8828 246.459C85.8828 246.729 85.9434 246.965 86.0645 247.168C86.1855 247.367 86.3535 247.543 86.5684 247.695C86.7871 247.852 87.0469 247.984 87.3477 248.094C87.6523 248.203 87.9883 248.295 88.3555 248.369C88.6484 248.424 88.8926 248.482 89.0879 248.545C89.2832 248.607 89.4414 248.674 89.5625 248.744C89.6758 248.822 89.7559 248.904 89.8027 248.99C89.8535 249.076 89.8789 249.174 89.8789 249.283ZM94.3438 245.562V242H92.9434V251H94.3438V246.412C94.4102 246.311 94.4863 246.219 94.5723 246.137C94.6621 246.055 94.7578 245.984 94.8594 245.926C94.9805 245.852 95.1133 245.795 95.2578 245.756C95.4062 245.717 95.5625 245.697 95.7266 245.697C95.9375 245.697 96.123 245.727 96.2832 245.785C96.4473 245.84 96.5859 245.926 96.6992 246.043C96.8086 246.152 96.8906 246.295 96.9453 246.471C97.0039 246.646 97.0332 246.852 97.0332 247.086V251H98.4336V247.098C98.4336 246.648 98.3789 246.264 98.2695 245.943C98.1641 245.619 98.0137 245.354 97.8184 245.146C97.623 244.939 97.3867 244.787 97.1094 244.689C96.8359 244.592 96.5332 244.543 96.2012 244.543C95.9629 244.543 95.7363 244.578 95.5215 244.648C95.3105 244.715 95.1172 244.812 94.9414 244.941C94.8281 245.02 94.7207 245.111 94.6191 245.217C94.5176 245.322 94.4258 245.438 94.3438 245.562ZM104.199 251H105.629V250.9C105.551 250.736 105.49 250.541 105.447 250.314C105.408 250.084 105.389 249.826 105.389 249.541V246.723C105.389 246.363 105.322 246.047 105.189 245.773C105.057 245.496 104.873 245.268 104.639 245.088C104.404 244.908 104.125 244.773 103.801 244.684C103.48 244.59 103.135 244.543 102.764 244.543C102.35 244.543 101.98 244.598 101.656 244.707C101.336 244.812 101.064 244.957 100.842 245.141C100.619 245.32 100.449 245.527 100.332 245.762C100.215 245.996 100.154 246.24 100.15 246.494H101.557C101.557 246.373 101.578 246.26 101.621 246.154C101.668 246.045 101.738 245.953 101.832 245.879C101.926 245.797 102.043 245.732 102.184 245.686C102.328 245.639 102.496 245.615 102.688 245.615C102.898 245.615 103.084 245.643 103.244 245.697C103.408 245.748 103.547 245.822 103.66 245.92C103.766 246.018 103.846 246.133 103.9 246.266C103.959 246.398 103.988 246.547 103.988 246.711V247.139H102.969C102.512 247.139 102.102 247.182 101.738 247.268C101.379 247.354 101.076 247.479 100.83 247.643C100.564 247.818 100.361 248.041 100.221 248.311C100.084 248.576 100.016 248.883 100.016 249.23C100.016 249.5 100.068 249.752 100.174 249.986C100.283 250.217 100.434 250.414 100.625 250.578C100.82 250.746 101.053 250.879 101.322 250.977C101.596 251.07 101.896 251.117 102.225 251.117C102.428 251.117 102.617 251.098 102.793 251.059C102.969 251.02 103.133 250.965 103.285 250.895C103.438 250.828 103.574 250.75 103.695 250.66C103.82 250.566 103.932 250.469 104.029 250.367C104.049 250.488 104.07 250.605 104.094 250.719C104.121 250.828 104.156 250.922 104.199 251ZM102.494 249.992C102.314 249.992 102.158 249.971 102.025 249.928C101.893 249.881 101.781 249.818 101.691 249.74C101.602 249.662 101.533 249.568 101.486 249.459C101.439 249.346 101.416 249.225 101.416 249.096C101.416 248.939 101.443 248.799 101.498 248.674C101.557 248.549 101.645 248.441 101.762 248.352C101.895 248.246 102.072 248.166 102.295 248.111C102.518 248.053 102.781 248.023 103.086 248.023H103.988V249.195C103.938 249.297 103.865 249.395 103.771 249.488C103.678 249.582 103.566 249.666 103.438 249.74C103.309 249.814 103.164 249.875 103.004 249.922C102.848 249.969 102.678 249.992 102.494 249.992ZM107.17 247.783V247.906C107.17 248.363 107.229 248.789 107.346 249.184C107.463 249.574 107.629 249.912 107.844 250.197C108.059 250.486 108.32 250.713 108.629 250.877C108.938 251.037 109.285 251.117 109.672 251.117C110.039 251.117 110.363 251.051 110.645 250.918C110.926 250.781 111.168 250.588 111.371 250.338L111.436 251H112.707V242H111.307V245.252C111.104 245.025 110.869 244.852 110.604 244.73C110.342 244.605 110.035 244.543 109.684 244.543C109.293 244.543 108.941 244.623 108.629 244.783C108.32 244.939 108.059 245.16 107.844 245.445C107.625 245.73 107.457 246.072 107.34 246.471C107.227 246.865 107.17 247.303 107.17 247.783ZM108.57 247.906V247.783C108.57 247.498 108.598 247.23 108.652 246.98C108.707 246.727 108.793 246.504 108.91 246.312C109.027 246.121 109.178 245.971 109.361 245.861C109.549 245.752 109.773 245.697 110.035 245.697C110.348 245.697 110.605 245.768 110.809 245.908C111.016 246.045 111.182 246.23 111.307 246.465V249.189C111.182 249.428 111.016 249.617 110.809 249.758C110.602 249.895 110.34 249.963 110.023 249.963C109.766 249.963 109.545 249.91 109.361 249.805C109.178 249.695 109.027 249.547 108.91 249.359C108.793 249.172 108.707 248.953 108.652 248.703C108.598 248.453 108.57 248.188 108.57 247.906ZM114.307 247.771V247.895C114.307 248.359 114.373 248.787 114.506 249.178C114.639 249.568 114.832 249.908 115.086 250.197C115.336 250.486 115.645 250.713 116.012 250.877C116.379 251.041 116.795 251.123 117.26 251.123C117.721 251.123 118.133 251.041 118.496 250.877C118.863 250.713 119.172 250.486 119.422 250.197C119.672 249.908 119.863 249.568 119.996 249.178C120.129 248.787 120.195 248.359 120.195 247.895V247.771C120.195 247.311 120.129 246.885 119.996 246.494C119.863 246.1 119.672 245.758 119.422 245.469C119.168 245.18 118.857 244.953 118.49 244.789C118.127 244.625 117.713 244.543 117.248 244.543C116.783 244.543 116.369 244.625 116.006 244.789C115.643 244.953 115.336 245.18 115.086 245.469C114.832 245.758 114.639 246.1 114.506 246.494C114.373 246.885 114.307 247.311 114.307 247.771ZM115.707 247.895V247.771C115.707 247.494 115.736 247.229 115.795 246.975C115.857 246.721 115.951 246.498 116.076 246.307C116.205 246.115 116.365 245.963 116.557 245.85C116.752 245.736 116.982 245.68 117.248 245.68C117.518 245.68 117.748 245.736 117.939 245.85C118.135 245.963 118.295 246.115 118.42 246.307C118.545 246.498 118.639 246.721 118.701 246.975C118.764 247.229 118.795 247.494 118.795 247.771V247.895C118.795 248.18 118.764 248.449 118.701 248.703C118.643 248.957 118.551 249.18 118.426 249.371C118.301 249.562 118.141 249.715 117.945 249.828C117.75 249.938 117.521 249.992 117.26 249.992C116.99 249.992 116.758 249.938 116.562 249.828C116.367 249.715 116.205 249.562 116.076 249.371C115.951 249.18 115.857 248.957 115.795 248.703C115.736 248.449 115.707 248.18 115.707 247.895ZM122.299 251H123.488L124.291 247.402L124.432 246.617L124.578 247.402L125.398 251H126.588L127.812 244.66H126.541L125.973 248.527L125.861 249.301L125.727 248.533L124.9 244.66H123.98L123.154 248.545L123.025 249.277L122.926 248.545L122.34 244.66H121.074L122.299 251Z" fill="#F78C6C"/>
<path d="M130.895 250.156C130.895 250.426 130.982 250.654 131.158 250.842C131.338 251.025 131.588 251.117 131.908 251.117C132.225 251.117 132.473 251.025 132.652 250.842C132.836 250.658 132.928 250.43 132.928 250.156C132.928 249.883 132.838 249.652 132.658 249.465C132.479 249.273 132.229 249.178 131.908 249.178C131.584 249.178 131.334 249.273 131.158 249.465C130.982 249.656 130.895 249.887 130.895 250.156ZM130.895 245.193C130.895 245.463 130.982 245.691 131.158 245.879C131.338 246.062 131.588 246.154 131.908 246.154C132.225 246.154 132.473 246.062 132.652 245.879C132.836 245.695 132.928 245.467 132.928 245.193C132.928 244.92 132.838 244.689 132.658 244.502C132.479 244.311 132.229 244.215 131.908 244.215C131.584 244.215 131.334 244.311 131.158 244.502C130.982 244.693 130.895 244.924 130.895 245.193ZM173.363 247.531V247.631C173.363 248.189 173.406 248.713 173.492 249.201C173.578 249.686 173.693 250.135 173.838 250.549C173.982 250.967 174.15 251.346 174.342 251.686C174.537 252.029 174.742 252.334 174.957 252.6C175.172 252.865 175.391 253.09 175.613 253.273C175.836 253.461 176.051 253.605 176.258 253.707L176.539 252.922C176.383 252.801 176.227 252.65 176.07 252.471C175.914 252.291 175.764 252.084 175.619 251.85C175.479 251.619 175.348 251.354 175.227 251.053C175.105 250.752 174.998 250.426 174.904 250.074C174.83 249.781 174.766 249.426 174.711 249.008C174.656 248.586 174.629 248.131 174.629 247.643V247.52C174.629 247.02 174.656 246.555 174.711 246.125C174.77 245.695 174.848 245.303 174.945 244.947C175.051 244.568 175.176 244.219 175.32 243.898C175.469 243.578 175.627 243.299 175.795 243.061C175.916 242.893 176.039 242.742 176.164 242.609C176.289 242.477 176.414 242.363 176.539 242.27L176.258 241.455C176.051 241.557 175.836 241.701 175.613 241.889C175.391 242.072 175.174 242.297 174.963 242.562C174.748 242.828 174.543 243.133 174.348 243.477C174.156 243.82 173.986 244.197 173.838 244.607C173.693 245.025 173.578 245.48 173.492 245.973C173.406 246.461 173.363 246.98 173.363 247.531ZM189.723 250.818V249.635H188.346V250.871C188.346 251.258 188.299 251.605 188.205 251.914C188.115 252.223 187.986 252.516 187.818 252.793L188.604 253.209C188.939 252.908 189.209 252.539 189.412 252.102C189.619 251.668 189.723 251.24 189.723 250.818ZM211.344 250.818V249.635H209.967V250.871C209.967 251.258 209.92 251.605 209.826 251.914C209.736 252.223 209.607 252.516 209.439 252.793L210.225 253.209C210.561 252.908 210.83 252.539 211.033 252.102C211.24 251.668 211.344 251.24 211.344 250.818ZM232.965 250.818V249.635H231.588V250.871C231.588 251.258 231.541 251.605 231.447 251.914C231.357 252.223 231.229 252.516 231.061 252.793L231.846 253.209C232.182 252.908 232.451 252.539 232.654 252.102C232.861 251.668 232.965 251.24 232.965 250.818ZM277.297 247.631V247.531C277.297 246.973 277.252 246.455 277.162 245.979C277.072 245.498 276.955 245.051 276.811 244.637C276.666 244.219 276.496 243.84 276.301 243.5C276.105 243.156 275.896 242.848 275.674 242.574C275.459 242.309 275.236 242.082 275.006 241.895C274.779 241.703 274.561 241.557 274.35 241.455L274.074 242.24C274.195 242.334 274.318 242.451 274.443 242.592C274.572 242.729 274.695 242.885 274.812 243.061C274.98 243.307 275.141 243.598 275.293 243.934C275.449 244.27 275.582 244.648 275.691 245.07C275.773 245.395 275.842 245.762 275.896 246.172C275.951 246.582 275.979 247.031 275.979 247.52V247.643C275.979 248.115 275.953 248.555 275.902 248.961C275.855 249.367 275.789 249.742 275.703 250.086C275.613 250.457 275.502 250.795 275.369 251.1C275.24 251.408 275.102 251.684 274.953 251.926C274.812 252.145 274.668 252.338 274.52 252.506C274.371 252.674 274.223 252.812 274.074 252.922L274.35 253.707C274.561 253.605 274.779 253.461 275.006 253.273C275.232 253.086 275.455 252.855 275.674 252.582C275.893 252.316 276.1 252.012 276.295 251.668C276.49 251.324 276.662 250.943 276.811 250.525C276.959 250.111 277.076 249.662 277.162 249.178C277.252 248.693 277.297 248.178 277.297 247.631ZM376.045 245.193C376.045 245.463 376.133 245.691 376.309 245.879C376.488 246.062 376.738 246.154 377.059 246.154C377.375 246.154 377.623 246.062 377.803 245.879C377.986 245.695 378.078 245.467 378.078 245.193C378.078 244.92 377.988 244.689 377.809 244.502C377.629 244.311 377.379 244.215 377.059 244.215C376.734 244.215 376.484 244.311 376.309 244.502C376.133 244.693 376.045 244.924 376.045 245.193ZM377.691 250.818V249.635H376.314V250.871C376.314 251.258 376.268 251.605 376.174 251.914C376.084 252.223 375.955 252.516 375.787 252.793L376.572 253.209C376.908 252.908 377.178 252.539 377.381 252.102C377.588 251.668 377.691 251.24 377.691 250.818Z" fill="white"/>
<path d="M147.775 244.543C147.338 244.543 146.938 244.645 146.574 244.848C146.215 245.051 145.906 245.33 145.648 245.686L145.643 245.539L145.584 244.66H144.271V251H145.672V247.086C145.746 246.898 145.838 246.732 145.947 246.588C146.057 246.443 146.189 246.324 146.346 246.23C146.49 246.133 146.656 246.061 146.844 246.014C147.031 245.967 147.242 245.943 147.477 245.943C147.684 245.943 147.891 245.955 148.098 245.979C148.309 246.002 148.521 246.037 148.736 246.084L148.936 244.701C148.814 244.658 148.646 244.621 148.432 244.59C148.221 244.559 148.002 244.543 147.775 244.543ZM150.418 247.783V247.906C150.418 248.363 150.477 248.789 150.594 249.184C150.715 249.574 150.887 249.912 151.109 250.197C151.328 250.486 151.594 250.713 151.906 250.877C152.219 251.037 152.57 251.117 152.961 251.117C153.176 251.117 153.375 251.094 153.559 251.047C153.742 251.004 153.91 250.939 154.062 250.854C154.164 250.799 154.258 250.734 154.344 250.66C154.434 250.586 154.52 250.506 154.602 250.42V250.859C154.602 251.098 154.566 251.311 154.496 251.498C154.43 251.686 154.334 251.844 154.209 251.973C154.072 252.105 153.906 252.207 153.711 252.277C153.52 252.348 153.299 252.383 153.049 252.383C152.904 252.383 152.762 252.367 152.621 252.336C152.48 252.309 152.342 252.264 152.205 252.201C152.068 252.139 151.934 252.057 151.801 251.955C151.672 251.857 151.551 251.74 151.438 251.604L150.775 252.453C150.916 252.641 151.084 252.801 151.279 252.934C151.475 253.066 151.68 253.174 151.895 253.256C152.109 253.338 152.324 253.398 152.539 253.438C152.754 253.477 152.951 253.496 153.131 253.496C153.557 253.496 153.945 253.436 154.297 253.314C154.652 253.197 154.957 253.025 155.211 252.799C155.461 252.568 155.654 252.287 155.791 251.955C155.932 251.627 156.002 251.25 156.002 250.824V244.66H154.73L154.672 245.299C154.594 245.205 154.51 245.119 154.42 245.041C154.33 244.959 154.234 244.889 154.133 244.83C153.977 244.736 153.803 244.666 153.611 244.619C153.42 244.568 153.207 244.543 152.973 244.543C152.578 244.543 152.223 244.623 151.906 244.783C151.594 244.939 151.326 245.16 151.104 245.445C150.885 245.73 150.715 246.072 150.594 246.471C150.477 246.865 150.418 247.303 150.418 247.783ZM151.824 247.906V247.783C151.824 247.498 151.854 247.23 151.912 246.98C151.971 246.727 152.062 246.504 152.188 246.312C152.309 246.121 152.463 245.971 152.65 245.861C152.838 245.752 153.062 245.697 153.324 245.697C153.473 245.697 153.609 245.715 153.734 245.75C153.859 245.781 153.973 245.826 154.074 245.885C154.188 245.947 154.287 246.025 154.373 246.119C154.463 246.213 154.539 246.318 154.602 246.436V249.213C154.539 249.326 154.467 249.43 154.385 249.523C154.303 249.617 154.209 249.697 154.104 249.764C153.998 249.826 153.879 249.875 153.746 249.91C153.617 249.945 153.473 249.963 153.312 249.963C153.055 249.963 152.832 249.91 152.645 249.805C152.457 249.695 152.303 249.545 152.182 249.354C152.057 249.17 151.965 248.953 151.906 248.703C151.852 248.453 151.824 248.188 151.824 247.906ZM163.379 247.895V247.771C163.379 247.412 163.346 247.072 163.279 246.752C163.217 246.432 163.123 246.141 162.998 245.879C162.904 245.691 162.795 245.52 162.67 245.363C162.549 245.203 162.41 245.068 162.254 244.959C162.07 244.826 161.863 244.725 161.633 244.654C161.406 244.58 161.156 244.543 160.883 244.543C160.676 244.543 160.482 244.564 160.303 244.607C160.127 244.646 159.965 244.707 159.816 244.789C159.703 244.852 159.598 244.924 159.5 245.006C159.402 245.088 159.312 245.18 159.23 245.281V242H157.83V251H159.096L159.16 250.309C159.23 250.395 159.303 250.475 159.377 250.549C159.455 250.619 159.537 250.686 159.623 250.748C159.791 250.869 159.98 250.961 160.191 251.023C160.402 251.086 160.637 251.117 160.895 251.117C161.148 251.117 161.383 251.084 161.598 251.018C161.816 250.955 162.014 250.865 162.189 250.748C162.408 250.604 162.596 250.422 162.752 250.203C162.908 249.984 163.033 249.74 163.127 249.471C163.209 249.244 163.271 248.998 163.314 248.732C163.357 248.467 163.379 248.188 163.379 247.895ZM161.979 247.771V247.895C161.979 248.07 161.969 248.24 161.949 248.404C161.93 248.568 161.9 248.721 161.861 248.861C161.814 249.049 161.746 249.219 161.656 249.371C161.57 249.52 161.459 249.643 161.322 249.74C161.221 249.811 161.105 249.867 160.977 249.91C160.848 249.949 160.703 249.969 160.543 249.969C160.367 249.969 160.207 249.947 160.062 249.904C159.922 249.857 159.797 249.795 159.688 249.717C159.59 249.643 159.502 249.559 159.424 249.465C159.35 249.367 159.285 249.26 159.23 249.143V246.518C159.277 246.416 159.332 246.322 159.395 246.236C159.461 246.146 159.535 246.068 159.617 246.002C159.73 245.904 159.863 245.83 160.016 245.779C160.168 245.725 160.34 245.697 160.531 245.697C160.688 245.697 160.828 245.715 160.953 245.75C161.078 245.785 161.189 245.838 161.287 245.908C161.436 246.01 161.553 246.135 161.639 246.283C161.729 246.428 161.801 246.59 161.855 246.77C161.895 246.918 161.924 247.078 161.943 247.25C161.967 247.418 161.979 247.592 161.979 247.771ZM169.062 251H170.492V250.9C170.414 250.736 170.354 250.541 170.311 250.314C170.271 250.084 170.252 249.826 170.252 249.541V246.723C170.252 246.363 170.186 246.047 170.053 245.773C169.92 245.496 169.736 245.268 169.502 245.088C169.268 244.908 168.988 244.773 168.664 244.684C168.344 244.59 167.998 244.543 167.627 244.543C167.213 244.543 166.844 244.598 166.52 244.707C166.199 244.812 165.928 244.957 165.705 245.141C165.482 245.32 165.312 245.527 165.195 245.762C165.078 245.996 165.018 246.24 165.014 246.494H166.42C166.42 246.373 166.441 246.26 166.484 246.154C166.531 246.045 166.602 245.953 166.695 245.879C166.789 245.797 166.906 245.732 167.047 245.686C167.191 245.639 167.359 245.615 167.551 245.615C167.762 245.615 167.947 245.643 168.107 245.697C168.271 245.748 168.41 245.822 168.523 245.92C168.629 246.018 168.709 246.133 168.764 246.266C168.822 246.398 168.852 246.547 168.852 246.711V247.139H167.832C167.375 247.139 166.965 247.182 166.602 247.268C166.242 247.354 165.939 247.479 165.693 247.643C165.428 247.818 165.225 248.041 165.084 248.311C164.947 248.576 164.879 248.883 164.879 249.23C164.879 249.5 164.932 249.752 165.037 249.986C165.146 250.217 165.297 250.414 165.488 250.578C165.684 250.746 165.916 250.879 166.186 250.977C166.459 251.07 166.76 251.117 167.088 251.117C167.291 251.117 167.48 251.098 167.656 251.059C167.832 251.02 167.996 250.965 168.148 250.895C168.301 250.828 168.438 250.75 168.559 250.66C168.684 250.566 168.795 250.469 168.893 250.367C168.912 250.488 168.934 250.605 168.957 250.719C168.984 250.828 169.02 250.922 169.062 251ZM167.357 249.992C167.178 249.992 167.021 249.971 166.889 249.928C166.756 249.881 166.645 249.818 166.555 249.74C166.465 249.662 166.396 249.568 166.35 249.459C166.303 249.346 166.279 249.225 166.279 249.096C166.279 248.939 166.307 248.799 166.361 248.674C166.42 248.549 166.508 248.441 166.625 248.352C166.758 248.246 166.936 248.166 167.158 248.111C167.381 248.053 167.645 248.023 167.949 248.023H168.852V249.195C168.801 249.297 168.729 249.395 168.635 249.488C168.541 249.582 168.43 249.666 168.301 249.74C168.172 249.814 168.027 249.875 167.867 249.922C167.711 249.969 167.541 249.992 167.357 249.992Z" fill="#7DD8C7"/>
<path d="M184.9 247.748V245.727C184.9 245.18 184.836 244.697 184.707 244.279C184.578 243.857 184.396 243.502 184.162 243.213C183.92 242.928 183.627 242.713 183.283 242.568C182.943 242.42 182.557 242.346 182.123 242.346C181.693 242.346 181.307 242.42 180.963 242.568C180.623 242.713 180.334 242.928 180.096 243.213C179.857 243.502 179.674 243.857 179.545 244.279C179.42 244.697 179.357 245.18 179.357 245.727V247.748C179.357 248.295 179.42 248.779 179.545 249.201C179.674 249.619 179.859 249.971 180.102 250.256C180.34 250.541 180.631 250.758 180.975 250.906C181.318 251.051 181.705 251.123 182.135 251.123C182.568 251.123 182.955 251.051 183.295 250.906C183.639 250.758 183.928 250.541 184.162 250.256C184.4 249.971 184.582 249.619 184.707 249.201C184.836 248.779 184.9 248.295 184.9 247.748ZM180.764 247.25C180.764 247.137 180.764 247.041 180.764 246.963C180.764 246.885 180.764 246.771 180.764 246.623V245.475C180.764 245.123 180.795 244.818 180.857 244.561C180.92 244.299 181.016 244.086 181.145 243.922C181.254 243.777 181.391 243.668 181.555 243.594C181.719 243.52 181.908 243.482 182.123 243.482C182.326 243.482 182.506 243.514 182.662 243.576C182.818 243.639 182.951 243.732 183.061 243.857C183.186 243.998 183.281 244.18 183.348 244.402C183.418 244.625 183.461 244.889 183.477 245.193L180.764 247.25ZM183.488 247.982C183.488 248.342 183.457 248.654 183.395 248.92C183.332 249.186 183.234 249.4 183.102 249.564C182.988 249.705 182.852 249.812 182.691 249.887C182.531 249.957 182.346 249.992 182.135 249.992C181.92 249.992 181.73 249.955 181.566 249.881C181.406 249.807 181.271 249.695 181.162 249.547C181.053 249.41 180.965 249.238 180.898 249.031C180.836 248.824 180.795 248.586 180.775 248.316L183.488 246.271C183.488 246.385 183.488 246.494 183.488 246.6C183.488 246.701 183.488 246.803 183.488 246.904V247.982ZM206.521 247.748V245.727C206.521 245.18 206.457 244.697 206.328 244.279C206.199 243.857 206.018 243.502 205.783 243.213C205.541 242.928 205.248 242.713 204.904 242.568C204.564 242.42 204.178 242.346 203.744 242.346C203.314 242.346 202.928 242.42 202.584 242.568C202.244 242.713 201.955 242.928 201.717 243.213C201.479 243.502 201.295 243.857 201.166 244.279C201.041 244.697 200.979 245.18 200.979 245.727V247.748C200.979 248.295 201.041 248.779 201.166 249.201C201.295 249.619 201.48 249.971 201.723 250.256C201.961 250.541 202.252 250.758 202.596 250.906C202.939 251.051 203.326 251.123 203.756 251.123C204.189 251.123 204.576 251.051 204.916 250.906C205.26 250.758 205.549 250.541 205.783 250.256C206.021 249.971 206.203 249.619 206.328 249.201C206.457 248.779 206.521 248.295 206.521 247.748ZM202.385 247.25C202.385 247.137 202.385 247.041 202.385 246.963C202.385 246.885 202.385 246.771 202.385 246.623V245.475C202.385 245.123 202.416 244.818 202.479 244.561C202.541 244.299 202.637 244.086 202.766 243.922C202.875 243.777 203.012 243.668 203.176 243.594C203.34 243.52 203.529 243.482 203.744 243.482C203.947 243.482 204.127 243.514 204.283 243.576C204.439 243.639 204.572 243.732 204.682 243.857C204.807 243.998 204.902 244.18 204.969 244.402C205.039 244.625 205.082 244.889 205.098 245.193L202.385 247.25ZM205.109 247.982C205.109 248.342 205.078 248.654 205.016 248.92C204.953 249.186 204.855 249.4 204.723 249.564C204.609 249.705 204.473 249.812 204.312 249.887C204.152 249.957 203.967 249.992 203.756 249.992C203.541 249.992 203.352 249.955 203.188 249.881C203.027 249.807 202.893 249.695 202.783 249.547C202.674 249.41 202.586 249.238 202.52 249.031C202.457 248.824 202.416 248.586 202.396 248.316L205.109 246.271C205.109 246.385 205.109 246.494 205.109 246.6C205.109 246.701 205.109 246.803 205.109 246.904V247.982ZM228.143 247.748V245.727C228.143 245.18 228.078 244.697 227.949 244.279C227.82 243.857 227.639 243.502 227.404 243.213C227.162 242.928 226.869 242.713 226.525 242.568C226.186 242.42 225.799 242.346 225.365 242.346C224.936 242.346 224.549 242.42 224.205 242.568C223.865 242.713 223.576 242.928 223.338 243.213C223.1 243.502 222.916 243.857 222.787 244.279C222.662 244.697 222.6 245.18 222.6 245.727V247.748C222.6 248.295 222.662 248.779 222.787 249.201C222.916 249.619 223.102 249.971 223.344 250.256C223.582 250.541 223.873 250.758 224.217 250.906C224.561 251.051 224.947 251.123 225.377 251.123C225.811 251.123 226.197 251.051 226.537 250.906C226.881 250.758 227.17 250.541 227.404 250.256C227.643 249.971 227.824 249.619 227.949 249.201C228.078 248.779 228.143 248.295 228.143 247.748ZM224.006 247.25C224.006 247.137 224.006 247.041 224.006 246.963C224.006 246.885 224.006 246.771 224.006 246.623V245.475C224.006 245.123 224.037 244.818 224.1 244.561C224.162 244.299 224.258 244.086 224.387 243.922C224.496 243.777 224.633 243.668 224.797 243.594C224.961 243.52 225.15 243.482 225.365 243.482C225.568 243.482 225.748 243.514 225.904 243.576C226.061 243.639 226.193 243.732 226.303 243.857C226.428 243.998 226.523 244.18 226.59 244.402C226.66 244.625 226.703 244.889 226.719 245.193L224.006 247.25ZM226.73 247.982C226.73 248.342 226.699 248.654 226.637 248.92C226.574 249.186 226.477 249.4 226.344 249.564C226.23 249.705 226.094 249.812 225.934 249.887C225.773 249.957 225.588 249.992 225.377 249.992C225.162 249.992 224.973 249.955 224.809 249.881C224.648 249.807 224.514 249.695 224.404 249.547C224.295 249.41 224.207 249.238 224.141 249.031C224.078 248.824 224.037 248.586 224.018 248.316L226.73 246.271C226.73 246.385 226.73 246.494 226.73 246.6C226.73 246.701 226.73 246.803 226.73 246.904V247.982ZM249.764 247.748V245.727C249.764 245.18 249.699 244.697 249.57 244.279C249.441 243.857 249.26 243.502 249.025 243.213C248.783 242.928 248.49 242.713 248.146 242.568C247.807 242.42 247.42 242.346 246.986 242.346C246.557 242.346 246.17 242.42 245.826 242.568C245.486 242.713 245.197 242.928 244.959 243.213C244.721 243.502 244.537 243.857 244.408 244.279C244.283 244.697 244.221 245.18 244.221 245.727V247.748C244.221 248.295 244.283 248.779 244.408 249.201C244.537 249.619 244.723 249.971 244.965 250.256C245.203 250.541 245.494 250.758 245.838 250.906C246.182 251.051 246.568 251.123 246.998 251.123C247.432 251.123 247.818 251.051 248.158 250.906C248.502 250.758 248.791 250.541 249.025 250.256C249.264 249.971 249.445 249.619 249.57 249.201C249.699 248.779 249.764 248.295 249.764 247.748ZM245.627 247.25C245.627 247.137 245.627 247.041 245.627 246.963C245.627 246.885 245.627 246.771 245.627 246.623V245.475C245.627 245.123 245.658 244.818 245.721 244.561C245.783 244.299 245.879 244.086 246.008 243.922C246.117 243.777 246.254 243.668 246.418 243.594C246.582 243.52 246.771 243.482 246.986 243.482C247.189 243.482 247.369 243.514 247.525 243.576C247.682 243.639 247.814 243.732 247.924 243.857C248.049 243.998 248.145 244.18 248.211 244.402C248.281 244.625 248.324 244.889 248.34 245.193L245.627 247.25ZM248.352 247.982C248.352 248.342 248.32 248.654 248.258 248.92C248.195 249.186 248.098 249.4 247.965 249.564C247.852 249.705 247.715 249.812 247.555 249.887C247.395 249.957 247.209 249.992 246.998 249.992C246.783 249.992 246.594 249.955 246.43 249.881C246.27 249.807 246.135 249.695 246.025 249.547C245.916 249.41 245.828 249.238 245.762 249.031C245.699 248.824 245.658 248.586 245.639 248.316L248.352 246.271C248.352 246.385 248.352 246.494 248.352 246.6C248.352 246.701 248.352 246.803 248.352 246.904V247.982ZM253.244 250.156C253.244 250.426 253.332 250.654 253.508 250.842C253.688 251.025 253.938 251.117 254.258 251.117C254.574 251.117 254.822 251.025 255.002 250.842C255.186 250.658 255.277 250.43 255.277 250.156C255.277 249.883 255.188 249.652 255.008 249.465C254.828 249.273 254.578 249.178 254.258 249.178C253.934 249.178 253.684 249.273 253.508 249.465C253.332 249.656 253.244 249.887 253.244 250.156ZM260.188 246.102V247.203H261.025C261.268 247.203 261.486 247.232 261.682 247.291C261.881 247.346 262.051 247.43 262.191 247.543C262.332 247.66 262.439 247.807 262.514 247.982C262.588 248.158 262.625 248.369 262.625 248.615C262.625 248.834 262.592 249.029 262.525 249.201C262.463 249.369 262.371 249.51 262.25 249.623C262.125 249.744 261.971 249.836 261.787 249.898C261.607 249.957 261.404 249.986 261.178 249.986C260.967 249.986 260.773 249.955 260.598 249.893C260.426 249.83 260.277 249.742 260.152 249.629C260.023 249.52 259.924 249.387 259.854 249.23C259.787 249.07 259.754 248.896 259.754 248.709H258.354C258.354 249.107 258.43 249.457 258.582 249.758C258.738 250.055 258.945 250.305 259.203 250.508C259.461 250.711 259.76 250.863 260.1 250.965C260.439 251.066 260.793 251.117 261.16 251.117C261.566 251.117 261.943 251.062 262.291 250.953C262.643 250.84 262.947 250.676 263.205 250.461C263.459 250.25 263.658 249.99 263.803 249.682C263.951 249.369 264.025 249.014 264.025 248.615C264.025 248.4 264 248.193 263.949 247.994C263.898 247.791 263.816 247.602 263.703 247.426C263.59 247.254 263.443 247.1 263.264 246.963C263.088 246.822 262.873 246.709 262.619 246.623C262.834 246.525 263.021 246.406 263.182 246.266C263.342 246.125 263.475 245.975 263.58 245.814C263.686 245.65 263.764 245.48 263.814 245.305C263.869 245.129 263.896 244.953 263.896 244.777C263.896 244.379 263.83 244.029 263.697 243.729C263.564 243.428 263.377 243.174 263.135 242.967C262.896 242.764 262.607 242.611 262.268 242.51C261.932 242.404 261.562 242.352 261.16 242.352C260.766 242.352 260.402 242.41 260.07 242.527C259.742 242.645 259.457 242.807 259.215 243.014C258.973 243.225 258.783 243.473 258.646 243.758C258.51 244.043 258.441 244.355 258.441 244.695H259.842C259.842 244.512 259.875 244.346 259.941 244.197C260.012 244.049 260.107 243.922 260.229 243.816C260.346 243.711 260.484 243.631 260.645 243.576C260.809 243.518 260.986 243.488 261.178 243.488C261.393 243.488 261.582 243.518 261.746 243.576C261.914 243.635 262.053 243.717 262.162 243.822C262.271 243.936 262.354 244.072 262.408 244.232C262.467 244.393 262.496 244.574 262.496 244.777C262.496 244.965 262.465 245.141 262.402 245.305C262.344 245.465 262.258 245.6 262.145 245.709C262.023 245.834 261.869 245.932 261.682 246.002C261.494 246.068 261.275 246.102 261.025 246.102H260.188ZM266.123 246.77L267.242 247.045C267.316 246.975 267.393 246.91 267.471 246.852C267.553 246.789 267.643 246.734 267.74 246.688C267.834 246.645 267.941 246.609 268.062 246.582C268.188 246.555 268.334 246.541 268.502 246.541C268.756 246.541 268.979 246.584 269.17 246.67C269.361 246.752 269.521 246.869 269.65 247.021C269.779 247.174 269.875 247.354 269.938 247.561C270.004 247.764 270.037 247.988 270.037 248.234C270.037 248.488 270.01 248.725 269.955 248.943C269.9 249.158 269.816 249.342 269.703 249.494C269.59 249.65 269.447 249.771 269.275 249.857C269.104 249.943 268.9 249.986 268.666 249.986C268.268 249.986 267.939 249.875 267.682 249.652C267.428 249.43 267.275 249.109 267.225 248.691H265.859C265.883 249.086 265.975 249.436 266.135 249.74C266.299 250.041 266.508 250.293 266.762 250.496C267.016 250.703 267.307 250.859 267.635 250.965C267.963 251.066 268.307 251.117 268.666 251.117C269.139 251.117 269.549 251.043 269.896 250.895C270.244 250.746 270.531 250.543 270.758 250.285C270.988 250.027 271.158 249.727 271.268 249.383C271.381 249.035 271.438 248.666 271.438 248.275C271.438 247.834 271.379 247.438 271.262 247.086C271.145 246.73 270.975 246.43 270.752 246.184C270.533 245.934 270.264 245.742 269.943 245.609C269.627 245.477 269.268 245.41 268.865 245.41C268.568 245.41 268.305 245.447 268.074 245.521C267.848 245.596 267.664 245.674 267.523 245.756L267.746 243.711H271.168V242.469H266.586L266.123 246.77ZM293.006 247.748V245.727C293.006 245.18 292.941 244.697 292.812 244.279C292.684 243.857 292.502 243.502 292.268 243.213C292.025 242.928 291.732 242.713 291.389 242.568C291.049 242.42 290.662 242.346 290.229 242.346C289.799 242.346 289.412 242.42 289.068 242.568C288.729 242.713 288.439 242.928 288.201 243.213C287.963 243.502 287.779 243.857 287.65 244.279C287.525 244.697 287.463 245.18 287.463 245.727V247.748C287.463 248.295 287.525 248.779 287.65 249.201C287.779 249.619 287.965 249.971 288.207 250.256C288.445 250.541 288.736 250.758 289.08 250.906C289.424 251.051 289.811 251.123 290.24 251.123C290.674 251.123 291.061 251.051 291.4 250.906C291.744 250.758 292.033 250.541 292.268 250.256C292.506 249.971 292.688 249.619 292.812 249.201C292.941 248.779 293.006 248.295 293.006 247.748ZM288.869 247.25C288.869 247.137 288.869 247.041 288.869 246.963C288.869 246.885 288.869 246.771 288.869 246.623V245.475C288.869 245.123 288.9 244.818 288.963 244.561C289.025 244.299 289.121 244.086 289.25 243.922C289.359 243.777 289.496 243.668 289.66 243.594C289.824 243.52 290.014 243.482 290.229 243.482C290.432 243.482 290.611 243.514 290.768 243.576C290.924 243.639 291.057 243.732 291.166 243.857C291.291 243.998 291.387 244.18 291.453 244.402C291.523 244.625 291.566 244.889 291.582 245.193L288.869 247.25ZM291.594 247.982C291.594 248.342 291.562 248.654 291.5 248.92C291.438 249.186 291.34 249.4 291.207 249.564C291.094 249.705 290.957 249.812 290.797 249.887C290.637 249.957 290.451 249.992 290.24 249.992C290.025 249.992 289.836 249.955 289.672 249.881C289.512 249.807 289.377 249.695 289.268 249.547C289.158 249.41 289.07 249.238 289.004 249.031C288.941 248.824 288.9 248.586 288.881 248.316L291.594 246.271C291.594 246.385 291.594 246.494 291.594 246.6C291.594 246.701 291.594 246.803 291.594 246.904V247.982ZM294.752 253.438H296.152V250.426C296.227 250.508 296.307 250.584 296.393 250.654C296.479 250.721 296.568 250.783 296.662 250.842C296.822 250.932 296.996 251 297.184 251.047C297.375 251.094 297.584 251.117 297.811 251.117C298.209 251.117 298.562 251.035 298.871 250.871C299.18 250.707 299.439 250.48 299.65 250.191C299.861 249.906 300.02 249.566 300.125 249.172C300.234 248.777 300.289 248.352 300.289 247.895V247.771C300.289 247.295 300.234 246.859 300.125 246.465C300.02 246.066 299.861 245.725 299.65 245.439C299.439 245.154 299.178 244.934 298.865 244.777C298.557 244.621 298.199 244.543 297.793 244.543C297.586 244.543 297.391 244.566 297.207 244.613C297.023 244.656 296.855 244.719 296.703 244.801C296.586 244.863 296.477 244.938 296.375 245.023C296.273 245.109 296.18 245.205 296.094 245.311L296.041 244.66H294.752V253.438ZM298.889 247.771V247.895C298.889 248.176 298.861 248.443 298.807 248.697C298.752 248.947 298.664 249.17 298.543 249.365C298.426 249.557 298.273 249.709 298.086 249.822C297.902 249.932 297.68 249.986 297.418 249.986C297.258 249.986 297.111 249.969 296.979 249.934C296.846 249.895 296.727 249.844 296.621 249.781C296.52 249.715 296.43 249.637 296.352 249.547C296.273 249.457 296.207 249.357 296.152 249.248V246.43C296.215 246.312 296.287 246.207 296.369 246.113C296.455 246.02 296.555 245.941 296.668 245.879C296.766 245.82 296.877 245.775 297.002 245.744C297.127 245.713 297.262 245.697 297.406 245.697C297.668 245.697 297.893 245.752 298.08 245.861C298.268 245.971 298.422 246.119 298.543 246.307C298.66 246.494 298.746 246.715 298.801 246.969C298.859 247.219 298.889 247.486 298.889 247.771ZM304.73 246.793L303.23 244.66H301.689L303.91 247.783L301.613 251H303.166L304.742 248.785L306.324 251H307.871L305.574 247.783L307.801 244.66H306.248L304.73 246.793ZM316.572 246.77L317.691 247.045C317.766 246.975 317.842 246.91 317.92 246.852C318.002 246.789 318.092 246.734 318.189 246.688C318.283 246.645 318.391 246.609 318.512 246.582C318.637 246.555 318.783 246.541 318.951 246.541C319.205 246.541 319.428 246.584 319.619 246.67C319.811 246.752 319.971 246.869 320.1 247.021C320.229 247.174 320.324 247.354 320.387 247.561C320.453 247.764 320.486 247.988 320.486 248.234C320.486 248.488 320.459 248.725 320.404 248.943C320.35 249.158 320.266 249.342 320.152 249.494C320.039 249.65 319.896 249.771 319.725 249.857C319.553 249.943 319.35 249.986 319.115 249.986C318.717 249.986 318.389 249.875 318.131 249.652C317.877 249.43 317.725 249.109 317.674 248.691H316.309C316.332 249.086 316.424 249.436 316.584 249.74C316.748 250.041 316.957 250.293 317.211 250.496C317.465 250.703 317.756 250.859 318.084 250.965C318.412 251.066 318.756 251.117 319.115 251.117C319.588 251.117 319.998 251.043 320.346 250.895C320.693 250.746 320.98 250.543 321.207 250.285C321.438 250.027 321.607 249.727 321.717 249.383C321.83 249.035 321.887 248.666 321.887 248.275C321.887 247.834 321.828 247.438 321.711 247.086C321.594 246.73 321.424 246.43 321.201 246.184C320.982 245.934 320.713 245.742 320.393 245.609C320.076 245.477 319.717 245.41 319.314 245.41C319.018 245.41 318.754 245.447 318.523 245.521C318.297 245.596 318.113 245.674 317.973 245.756L318.195 243.711H321.617V242.469H317.035L316.572 246.77ZM323.58 253.438H324.98V250.426C325.055 250.508 325.135 250.584 325.221 250.654C325.307 250.721 325.396 250.783 325.49 250.842C325.65 250.932 325.824 251 326.012 251.047C326.203 251.094 326.412 251.117 326.639 251.117C327.037 251.117 327.391 251.035 327.699 250.871C328.008 250.707 328.268 250.48 328.479 250.191C328.689 249.906 328.848 249.566 328.953 249.172C329.062 248.777 329.117 248.352 329.117 247.895V247.771C329.117 247.295 329.062 246.859 328.953 246.465C328.848 246.066 328.689 245.725 328.479 245.439C328.268 245.154 328.006 244.934 327.693 244.777C327.385 244.621 327.027 244.543 326.621 244.543C326.414 244.543 326.219 244.566 326.035 244.613C325.852 244.656 325.684 244.719 325.531 244.801C325.414 244.863 325.305 244.938 325.203 245.023C325.102 245.109 325.008 245.205 324.922 245.311L324.869 244.66H323.58V253.438ZM327.717 247.771V247.895C327.717 248.176 327.689 248.443 327.635 248.697C327.58 248.947 327.492 249.17 327.371 249.365C327.254 249.557 327.102 249.709 326.914 249.822C326.73 249.932 326.508 249.986 326.246 249.986C326.086 249.986 325.939 249.969 325.807 249.934C325.674 249.895 325.555 249.844 325.449 249.781C325.348 249.715 325.258 249.637 325.18 249.547C325.102 249.457 325.035 249.357 324.98 249.248V246.43C325.043 246.312 325.115 246.207 325.197 246.113C325.283 246.02 325.383 245.941 325.496 245.879C325.594 245.82 325.705 245.775 325.83 245.744C325.955 245.713 326.09 245.697 326.234 245.697C326.496 245.697 326.721 245.752 326.908 245.861C327.096 245.971 327.25 246.119 327.371 246.307C327.488 246.494 327.574 246.715 327.629 246.969C327.688 247.219 327.717 247.486 327.717 247.771ZM333.559 246.793L332.059 244.66H330.518L332.738 247.783L330.441 251H331.994L333.57 248.785L335.152 251H336.699L334.402 247.783L336.629 244.66H335.076L333.559 246.793ZM348.98 251V242.469H348.893L345.383 243.77V245.006L347.568 244.203V251H348.98ZM352.607 246.77L353.727 247.045C353.801 246.975 353.877 246.91 353.955 246.852C354.037 246.789 354.127 246.734 354.225 246.688C354.318 246.645 354.426 246.609 354.547 246.582C354.672 246.555 354.818 246.541 354.986 246.541C355.24 246.541 355.463 246.584 355.654 246.67C355.846 246.752 356.006 246.869 356.135 247.021C356.264 247.174 356.359 247.354 356.422 247.561C356.488 247.764 356.521 247.988 356.521 248.234C356.521 248.488 356.494 248.725 356.439 248.943C356.385 249.158 356.301 249.342 356.188 249.494C356.074 249.65 355.932 249.771 355.76 249.857C355.588 249.943 355.385 249.986 355.15 249.986C354.752 249.986 354.424 249.875 354.166 249.652C353.912 249.43 353.76 249.109 353.709 248.691H352.344C352.367 249.086 352.459 249.436 352.619 249.74C352.783 250.041 352.992 250.293 353.246 250.496C353.5 250.703 353.791 250.859 354.119 250.965C354.447 251.066 354.791 251.117 355.15 251.117C355.623 251.117 356.033 251.043 356.381 250.895C356.729 250.746 357.016 250.543 357.242 250.285C357.473 250.027 357.643 249.727 357.752 249.383C357.865 249.035 357.922 248.666 357.922 248.275C357.922 247.834 357.863 247.438 357.746 247.086C357.629 246.73 357.459 246.43 357.236 246.184C357.018 245.934 356.748 245.742 356.428 245.609C356.111 245.477 355.752 245.41 355.35 245.41C355.053 245.41 354.789 245.447 354.559 245.521C354.332 245.596 354.148 245.674 354.008 245.756L354.23 243.711H357.652V242.469H353.07L352.607 246.77ZM359.615 253.438H361.016V250.426C361.09 250.508 361.17 250.584 361.256 250.654C361.342 250.721 361.432 250.783 361.525 250.842C361.686 250.932 361.859 251 362.047 251.047C362.238 251.094 362.447 251.117 362.674 251.117C363.072 251.117 363.426 251.035 363.734 250.871C364.043 250.707 364.303 250.48 364.514 250.191C364.725 249.906 364.883 249.566 364.988 249.172C365.098 248.777 365.152 248.352 365.152 247.895V247.771C365.152 247.295 365.098 246.859 364.988 246.465C364.883 246.066 364.725 245.725 364.514 245.439C364.303 245.154 364.041 244.934 363.729 244.777C363.42 244.621 363.062 244.543 362.656 244.543C362.449 244.543 362.254 244.566 362.07 244.613C361.887 244.656 361.719 244.719 361.566 244.801C361.449 244.863 361.34 244.938 361.238 245.023C361.137 245.109 361.043 245.205 360.957 245.311L360.904 244.66H359.615V253.438ZM363.752 247.771V247.895C363.752 248.176 363.725 248.443 363.67 248.697C363.615 248.947 363.527 249.17 363.406 249.365C363.289 249.557 363.137 249.709 362.949 249.822C362.766 249.932 362.543 249.986 362.281 249.986C362.121 249.986 361.975 249.969 361.842 249.934C361.709 249.895 361.59 249.844 361.484 249.781C361.383 249.715 361.293 249.637 361.215 249.547C361.137 249.457 361.07 249.357 361.016 249.248V246.43C361.078 246.312 361.15 246.207 361.232 246.113C361.318 246.02 361.418 245.941 361.531 245.879C361.629 245.82 361.74 245.775 361.865 245.744C361.99 245.713 362.125 245.697 362.27 245.697C362.531 245.697 362.756 245.752 362.943 245.861C363.131 245.971 363.285 246.119 363.406 246.307C363.523 246.494 363.609 246.715 363.664 246.969C363.723 247.219 363.752 247.486 363.752 247.771ZM369.594 246.793L368.094 244.66H366.553L368.773 247.783L366.477 251H368.029L369.605 248.785L371.188 251H372.734L370.438 247.783L372.664 244.66H371.111L369.594 246.793Z" fill="#FF628C"/>
<defs>
<filter id="filter0_d_1_49" x="31" y="61" width="124" height="124" filterUnits="userSpaceOnUse" color-interpolation-filters="sRGB">
<feFlood flood-opacity="0" result="BackgroundImageFix"/>
<feColorMatrix in="SourceAlpha" type="matrix" values="0 0 0 0 0 0 0 0 0 0 0 0 0 0 0 0 0 0 127 0" result="hardAlpha"/>
<feOffset dy="5"/>
<feGaussianBlur stdDeviation="7.5"/>
<feColorMatrix type="matrix" values="0 0 0 0 0 0 0 0 0 0 0 0 0 0 0 0 0 0 0.35 0"/>
<feBlend mode="normal" in2="BackgroundImageFix" result="effect1_dropShadow_1_49"/>
<feBlend mode="normal" in="SourceGraphic" in2="effect1_dropShadow_1_49" result="shape"/>
</filter>
</defs>
</svg>
