<svg width="537" height="309" viewBox="0 0 537 309" fill="none" xmlns="http://www.w3.org/2000/svg">
<rect x="0.5" y="0.5" width="536" height="308" rx="9.5" fill="#FAFAFA"/>
<rect x="0.5" y="0.5" width="536" height="308" rx="9.5" stroke="#DFDFDF"/>
<path d="M54.0625 45H56.7898L57.4972 40.6705H59.8835L60.3352 37.9432H57.9489L58.4943 34.6023H60.8807L61.3409 31.875H58.946L59.6534 27.5455H56.9261L56.2188 31.875H52.8097L53.517 27.5455H50.7898L50.0824 31.875H47.7045L47.2443 34.6023H49.6307L49.0852 37.9432H46.6989L46.2472 40.6705H48.6335L47.9261 45H50.6534L51.3608 40.6705H54.7699L54.0625 45ZM51.8125 37.9432L52.358 34.6023H55.767L55.2216 37.9432H51.8125ZM69.6996 45.2386C73.5859 45.2557 76.2365 42.7074 76.228 39.1534C76.2365 35.8807 73.9524 33.5199 70.8587 33.5199C68.9411 33.5199 67.245 34.4403 66.4609 35.983H66.3416C66.3587 32.5824 67.5518 30.4688 69.8274 30.4688C71.1655 30.4688 72.1286 31.2017 72.4098 32.4205H76.049C75.6996 29.5483 73.3132 27.3068 69.8274 27.3068C65.5149 27.3068 62.745 30.8011 62.728 36.6648C62.7195 43.0568 66.1115 45.2216 69.6996 45.2386ZM69.6825 42.3409C67.978 42.3409 66.7166 40.9688 66.7166 39.2642C66.7251 37.5682 68.0121 36.1875 69.7081 36.1875C71.4126 36.1875 72.657 37.5256 72.6484 39.2557C72.657 41.0028 71.3871 42.3409 69.6825 42.3409Z" fill="black"/>
<rect x="46" y="205" width="434.824" height="24" fill="#011627"/>
<ellipse cx="60.8236" cy="216.294" rx="4.47059" ry="4.70588" fill="#FC605C"/>
<circle cx="73.7647" cy="216.765" r="4.70588" fill="#FFBB2C"/>
<circle cx="86.7059" cy="217.471" r="4.47059" fill="#2FC63C"/>
<g filter="url(#filter0_d_1_77)">
<rect x="46" y="71" width="94" height="94" rx="5" fill="white"/>
</g>
<rect width="435" height="35" transform="translate(46 229)" fill="#011627"/>
<path d="M62.4805 248.895V248.771C62.4805 248.412 62.4473 248.072 62.3809 247.752C62.3184 247.432 62.2246 247.141 62.0996 246.879C62.0059 246.691 61.8965 246.52 61.7715 246.363C61.6504 246.203 61.5117 246.068 61.3555 245.959C61.1719 245.826 60.9648 245.725 60.7344 245.654C60.5078 245.58 60.2578 245.543 59.9844 245.543C59.7773 245.543 59.584 245.564 59.4043 245.607C59.2285 245.646 59.0664 245.707 58.918 245.789C58.8047 245.852 58.6992 245.924 58.6016 246.006C58.5039 246.088 58.4141 246.18 58.332 246.281V243H56.9316V252H58.1973L58.2617 251.309C58.332 251.395 58.4043 251.475 58.4785 251.549C58.5566 251.619 58.6387 251.686 58.7246 251.748C58.8926 251.869 59.082 251.961 59.293 252.023C59.5039 252.086 59.7383 252.117 59.9961 252.117C60.25 252.117 60.4844 252.084 60.6992 252.018C60.918 251.955 61.1152 251.865 61.291 251.748C61.5098 251.604 61.6973 251.422 61.8535 251.203C62.0098 250.984 62.1348 250.74 62.2285 250.471C62.3105 250.244 62.373 249.998 62.416 249.732C62.459 249.467 62.4805 249.188 62.4805 248.895ZM61.0801 248.771V248.895C61.0801 249.07 61.0703 249.24 61.0508 249.404C61.0312 249.568 61.002 249.721 60.9629 249.861C60.916 250.049 60.8477 250.219 60.7578 250.371C60.6719 250.52 60.5605 250.643 60.4238 250.74C60.3223 250.811 60.207 250.867 60.0781 250.91C59.9492 250.949 59.8047 250.969 59.6445 250.969C59.4688 250.969 59.3086 250.947 59.1641 250.904C59.0234 250.857 58.8984 250.795 58.7891 250.717C58.6914 250.643 58.6035 250.559 58.5254 250.465C58.4512 250.367 58.3867 250.26 58.332 250.143V247.518C58.3789 247.416 58.4336 247.322 58.4961 247.236C58.5625 247.146 58.6367 247.068 58.7188 247.002C58.832 246.904 58.9648 246.83 59.1172 246.779C59.2695 246.725 59.4414 246.697 59.6328 246.697C59.7891 246.697 59.9297 246.715 60.0547 246.75C60.1797 246.785 60.291 246.838 60.3887 246.908C60.5371 247.01 60.6543 247.135 60.7402 247.283C60.8301 247.428 60.9023 247.59 60.957 247.77C60.9961 247.918 61.0254 248.078 61.0449 248.25C61.0684 248.418 61.0801 248.592 61.0801 248.771ZM63.8574 248.771V248.895C63.8574 249.359 63.9238 249.787 64.0566 250.178C64.1895 250.568 64.3828 250.908 64.6367 251.197C64.8867 251.486 65.1953 251.713 65.5625 251.877C65.9297 252.041 66.3457 252.123 66.8105 252.123C67.2715 252.123 67.6836 252.041 68.0469 251.877C68.4141 251.713 68.7227 251.486 68.9727 251.197C69.2227 250.908 69.4141 250.568 69.5469 250.178C69.6797 249.787 69.7461 249.359 69.7461 248.895V248.771C69.7461 248.311 69.6797 247.885 69.5469 247.494C69.4141 247.1 69.2227 246.758 68.9727 246.469C68.7188 246.18 68.4082 245.953 68.041 245.789C67.6777 245.625 67.2637 245.543 66.7988 245.543C66.334 245.543 65.9199 245.625 65.5566 245.789C65.1934 245.953 64.8867 246.18 64.6367 246.469C64.3828 246.758 64.1895 247.1 64.0566 247.494C63.9238 247.885 63.8574 248.311 63.8574 248.771ZM65.2578 248.895V248.771C65.2578 248.494 65.2871 248.229 65.3457 247.975C65.4082 247.721 65.502 247.498 65.627 247.307C65.7559 247.115 65.916 246.963 66.1074 246.85C66.3027 246.736 66.5332 246.68 66.7988 246.68C67.0684 246.68 67.2988 246.736 67.4902 246.85C67.6855 246.963 67.8457 247.115 67.9707 247.307C68.0957 247.498 68.1895 247.721 68.252 247.975C68.3145 248.229 68.3457 248.494 68.3457 248.771V248.895C68.3457 249.18 68.3145 249.449 68.252 249.703C68.1934 249.957 68.1016 250.18 67.9766 250.371C67.8516 250.562 67.6914 250.715 67.4961 250.828C67.3008 250.938 67.0723 250.992 66.8105 250.992C66.541 250.992 66.3086 250.938 66.1133 250.828C65.918 250.715 65.7559 250.562 65.627 250.371C65.502 250.18 65.4082 249.957 65.3457 249.703C65.2871 249.449 65.2578 249.18 65.2578 248.895ZM74.1055 247.793L72.6055 245.66H71.0645L73.2852 248.783L70.9883 252H72.541L74.1172 249.785L75.6992 252H77.2461L74.9492 248.783L77.1758 245.66H75.623L74.1055 247.793ZM83.832 248.818V247.682H79.1152V248.818H83.832ZM89.8789 250.283C89.8789 250.385 89.8555 250.479 89.8086 250.564C89.7656 250.646 89.6992 250.723 89.6094 250.793C89.5 250.879 89.3535 250.947 89.1699 250.998C88.9902 251.049 88.7793 251.074 88.5371 251.074C88.3574 251.074 88.1797 251.057 88.0039 251.021C87.8281 250.982 87.6719 250.92 87.5352 250.834C87.3945 250.752 87.2773 250.645 87.1836 250.512C87.0938 250.375 87.043 250.209 87.0312 250.014H85.6719C85.6719 250.275 85.7344 250.533 85.8594 250.787C85.9844 251.041 86.168 251.266 86.4102 251.461C86.6484 251.66 86.9434 251.82 87.2949 251.941C87.6504 252.062 88.0566 252.123 88.5137 252.123C88.9238 252.123 89.2969 252.076 89.6328 251.982C89.9688 251.889 90.2578 251.758 90.5 251.59C90.7383 251.422 90.9219 251.221 91.0508 250.986C91.1836 250.752 91.25 250.494 91.25 250.213C91.25 249.924 91.1875 249.674 91.0625 249.463C90.9375 249.252 90.7617 249.068 90.5352 248.912C90.3086 248.764 90.0352 248.639 89.7148 248.537C89.3945 248.436 89.041 248.35 88.6543 248.279C88.377 248.232 88.1465 248.18 87.9629 248.121C87.7832 248.062 87.6426 247.998 87.541 247.928C87.4316 247.861 87.3555 247.785 87.3125 247.699C87.2695 247.609 87.248 247.51 87.248 247.4C87.248 247.295 87.2734 247.195 87.3242 247.102C87.375 247.004 87.4512 246.92 87.5527 246.85C87.6543 246.771 87.7832 246.711 87.9395 246.668C88.0996 246.621 88.2852 246.598 88.4961 246.598C88.7266 246.598 88.9277 246.629 89.0996 246.691C89.2715 246.75 89.4121 246.83 89.5215 246.932C89.6152 247.018 89.6855 247.115 89.7324 247.225C89.7832 247.33 89.8086 247.441 89.8086 247.559H91.209C91.209 247.273 91.1465 247.008 91.0215 246.762C90.8965 246.516 90.7188 246.303 90.4883 246.123C90.2539 245.943 89.9688 245.803 89.6328 245.701C89.2969 245.596 88.918 245.543 88.4961 245.543C88.1016 245.543 87.7422 245.594 87.418 245.695C87.0977 245.797 86.8242 245.936 86.5977 246.111C86.3672 246.287 86.1895 246.492 86.0645 246.727C85.9434 246.957 85.8828 247.201 85.8828 247.459C85.8828 247.729 85.9434 247.965 86.0645 248.168C86.1855 248.367 86.3535 248.543 86.5684 248.695C86.7871 248.852 87.0469 248.984 87.3477 249.094C87.6523 249.203 87.9883 249.295 88.3555 249.369C88.6484 249.424 88.8926 249.482 89.0879 249.545C89.2832 249.607 89.4414 249.674 89.5625 249.744C89.6758 249.822 89.7559 249.904 89.8027 249.99C89.8535 250.076 89.8789 250.174 89.8789 250.283ZM94.3438 246.562V243H92.9434V252H94.3438V247.412C94.4102 247.311 94.4863 247.219 94.5723 247.137C94.6621 247.055 94.7578 246.984 94.8594 246.926C94.9805 246.852 95.1133 246.795 95.2578 246.756C95.4062 246.717 95.5625 246.697 95.7266 246.697C95.9375 246.697 96.123 246.727 96.2832 246.785C96.4473 246.84 96.5859 246.926 96.6992 247.043C96.8086 247.152 96.8906 247.295 96.9453 247.471C97.0039 247.646 97.0332 247.852 97.0332 248.086V252H98.4336V248.098C98.4336 247.648 98.3789 247.264 98.2695 246.943C98.1641 246.619 98.0137 246.354 97.8184 246.146C97.623 245.939 97.3867 245.787 97.1094 245.689C96.8359 245.592 96.5332 245.543 96.2012 245.543C95.9629 245.543 95.7363 245.578 95.5215 245.648C95.3105 245.715 95.1172 245.812 94.9414 245.941C94.8281 246.02 94.7207 246.111 94.6191 246.217C94.5176 246.322 94.4258 246.438 94.3438 246.562ZM104.199 252H105.629V251.9C105.551 251.736 105.49 251.541 105.447 251.314C105.408 251.084 105.389 250.826 105.389 250.541V247.723C105.389 247.363 105.322 247.047 105.189 246.773C105.057 246.496 104.873 246.268 104.639 246.088C104.404 245.908 104.125 245.773 103.801 245.684C103.48 245.59 103.135 245.543 102.764 245.543C102.35 245.543 101.98 245.598 101.656 245.707C101.336 245.812 101.064 245.957 100.842 246.141C100.619 246.32 100.449 246.527 100.332 246.762C100.215 246.996 100.154 247.24 100.15 247.494H101.557C101.557 247.373 101.578 247.26 101.621 247.154C101.668 247.045 101.738 246.953 101.832 246.879C101.926 246.797 102.043 246.732 102.184 246.686C102.328 246.639 102.496 246.615 102.688 246.615C102.898 246.615 103.084 246.643 103.244 246.697C103.408 246.748 103.547 246.822 103.66 246.92C103.766 247.018 103.846 247.133 103.9 247.266C103.959 247.398 103.988 247.547 103.988 247.711V248.139H102.969C102.512 248.139 102.102 248.182 101.738 248.268C101.379 248.354 101.076 248.479 100.83 248.643C100.564 248.818 100.361 249.041 100.221 249.311C100.084 249.576 100.016 249.883 100.016 250.23C100.016 250.5 100.068 250.752 100.174 250.986C100.283 251.217 100.434 251.414 100.625 251.578C100.82 251.746 101.053 251.879 101.322 251.977C101.596 252.07 101.896 252.117 102.225 252.117C102.428 252.117 102.617 252.098 102.793 252.059C102.969 252.02 103.133 251.965 103.285 251.895C103.438 251.828 103.574 251.75 103.695 251.66C103.82 251.566 103.932 251.469 104.029 251.367C104.049 251.488 104.07 251.605 104.094 251.719C104.121 251.828 104.156 251.922 104.199 252ZM102.494 250.992C102.314 250.992 102.158 250.971 102.025 250.928C101.893 250.881 101.781 250.818 101.691 250.74C101.602 250.662 101.533 250.568 101.486 250.459C101.439 250.346 101.416 250.225 101.416 250.096C101.416 249.939 101.443 249.799 101.498 249.674C101.557 249.549 101.645 249.441 101.762 249.352C101.895 249.246 102.072 249.166 102.295 249.111C102.518 249.053 102.781 249.023 103.086 249.023H103.988V250.195C103.938 250.297 103.865 250.395 103.771 250.488C103.678 250.582 103.566 250.666 103.438 250.74C103.309 250.814 103.164 250.875 103.004 250.922C102.848 250.969 102.678 250.992 102.494 250.992ZM107.17 248.783V248.906C107.17 249.363 107.229 249.789 107.346 250.184C107.463 250.574 107.629 250.912 107.844 251.197C108.059 251.486 108.32 251.713 108.629 251.877C108.938 252.037 109.285 252.117 109.672 252.117C110.039 252.117 110.363 252.051 110.645 251.918C110.926 251.781 111.168 251.588 111.371 251.338L111.436 252H112.707V243H111.307V246.252C111.104 246.025 110.869 245.852 110.604 245.73C110.342 245.605 110.035 245.543 109.684 245.543C109.293 245.543 108.941 245.623 108.629 245.783C108.32 245.939 108.059 246.16 107.844 246.445C107.625 246.73 107.457 247.072 107.34 247.471C107.227 247.865 107.17 248.303 107.17 248.783ZM108.57 248.906V248.783C108.57 248.498 108.598 248.23 108.652 247.98C108.707 247.727 108.793 247.504 108.91 247.312C109.027 247.121 109.178 246.971 109.361 246.861C109.549 246.752 109.773 246.697 110.035 246.697C110.348 246.697 110.605 246.768 110.809 246.908C111.016 247.045 111.182 247.23 111.307 247.465V250.189C111.182 250.428 111.016 250.617 110.809 250.758C110.602 250.895 110.34 250.963 110.023 250.963C109.766 250.963 109.545 250.91 109.361 250.805C109.178 250.695 109.027 250.547 108.91 250.359C108.793 250.172 108.707 249.953 108.652 249.703C108.598 249.453 108.57 249.188 108.57 248.906ZM114.307 248.771V248.895C114.307 249.359 114.373 249.787 114.506 250.178C114.639 250.568 114.832 250.908 115.086 251.197C115.336 251.486 115.645 251.713 116.012 251.877C116.379 252.041 116.795 252.123 117.26 252.123C117.721 252.123 118.133 252.041 118.496 251.877C118.863 251.713 119.172 251.486 119.422 251.197C119.672 250.908 119.863 250.568 119.996 250.178C120.129 249.787 120.195 249.359 120.195 248.895V248.771C120.195 248.311 120.129 247.885 119.996 247.494C119.863 247.1 119.672 246.758 119.422 246.469C119.168 246.18 118.857 245.953 118.49 245.789C118.127 245.625 117.713 245.543 117.248 245.543C116.783 245.543 116.369 245.625 116.006 245.789C115.643 245.953 115.336 246.18 115.086 246.469C114.832 246.758 114.639 247.1 114.506 247.494C114.373 247.885 114.307 248.311 114.307 248.771ZM115.707 248.895V248.771C115.707 248.494 115.736 248.229 115.795 247.975C115.857 247.721 115.951 247.498 116.076 247.307C116.205 247.115 116.365 246.963 116.557 246.85C116.752 246.736 116.982 246.68 117.248 246.68C117.518 246.68 117.748 246.736 117.939 246.85C118.135 246.963 118.295 247.115 118.42 247.307C118.545 247.498 118.639 247.721 118.701 247.975C118.764 248.229 118.795 248.494 118.795 248.771V248.895C118.795 249.18 118.764 249.449 118.701 249.703C118.643 249.957 118.551 250.18 118.426 250.371C118.301 250.562 118.141 250.715 117.945 250.828C117.75 250.938 117.521 250.992 117.26 250.992C116.99 250.992 116.758 250.938 116.562 250.828C116.367 250.715 116.205 250.562 116.076 250.371C115.951 250.18 115.857 249.957 115.795 249.703C115.736 249.449 115.707 249.18 115.707 248.895ZM122.299 252H123.488L124.291 248.402L124.432 247.617L124.578 248.402L125.398 252H126.588L127.812 245.66H126.541L125.973 249.527L125.861 250.301L125.727 249.533L124.9 245.66H123.98L123.154 249.545L123.025 250.277L122.926 249.545L122.34 245.66H121.074L122.299 252Z" fill="#F78C6C"/>
<path d="M130.895 251.156C130.895 251.426 130.982 251.654 131.158 251.842C131.338 252.025 131.588 252.117 131.908 252.117C132.225 252.117 132.473 252.025 132.652 251.842C132.836 251.658 132.928 251.43 132.928 251.156C132.928 250.883 132.838 250.652 132.658 250.465C132.479 250.273 132.229 250.178 131.908 250.178C131.584 250.178 131.334 250.273 131.158 250.465C130.982 250.656 130.895 250.887 130.895 251.156ZM130.895 246.193C130.895 246.463 130.982 246.691 131.158 246.879C131.338 247.062 131.588 247.154 131.908 247.154C132.225 247.154 132.473 247.062 132.652 246.879C132.836 246.695 132.928 246.467 132.928 246.193C132.928 245.92 132.838 245.689 132.658 245.502C132.479 245.311 132.229 245.215 131.908 245.215C131.584 245.215 131.334 245.311 131.158 245.502C130.982 245.693 130.895 245.924 130.895 246.193ZM173.363 248.531V248.631C173.363 249.189 173.406 249.713 173.492 250.201C173.578 250.686 173.693 251.135 173.838 251.549C173.982 251.967 174.15 252.346 174.342 252.686C174.537 253.029 174.742 253.334 174.957 253.6C175.172 253.865 175.391 254.09 175.613 254.273C175.836 254.461 176.051 254.605 176.258 254.707L176.539 253.922C176.383 253.801 176.227 253.65 176.07 253.471C175.914 253.291 175.764 253.084 175.619 252.85C175.479 252.619 175.348 252.354 175.227 252.053C175.105 251.752 174.998 251.426 174.904 251.074C174.83 250.781 174.766 250.426 174.711 250.008C174.656 249.586 174.629 249.131 174.629 248.643V248.52C174.629 248.02 174.656 247.555 174.711 247.125C174.77 246.695 174.848 246.303 174.945 245.947C175.051 245.568 175.176 245.219 175.32 244.898C175.469 244.578 175.627 244.299 175.795 244.061C175.916 243.893 176.039 243.742 176.164 243.609C176.289 243.477 176.414 243.363 176.539 243.27L176.258 242.455C176.051 242.557 175.836 242.701 175.613 242.889C175.391 243.072 175.174 243.297 174.963 243.562C174.748 243.828 174.543 244.133 174.348 244.477C174.156 244.82 173.986 245.197 173.838 245.607C173.693 246.025 173.578 246.48 173.492 246.973C173.406 247.461 173.363 247.98 173.363 248.531ZM189.723 251.818V250.635H188.346V251.871C188.346 252.258 188.299 252.605 188.205 252.914C188.115 253.223 187.986 253.516 187.818 253.793L188.604 254.209C188.939 253.908 189.209 253.539 189.412 253.102C189.619 252.668 189.723 252.24 189.723 251.818ZM211.344 251.818V250.635H209.967V251.871C209.967 252.258 209.92 252.605 209.826 252.914C209.736 253.223 209.607 253.516 209.439 253.793L210.225 254.209C210.561 253.908 210.83 253.539 211.033 253.102C211.24 252.668 211.344 252.24 211.344 251.818ZM232.965 251.818V250.635H231.588V251.871C231.588 252.258 231.541 252.605 231.447 252.914C231.357 253.223 231.229 253.516 231.061 253.793L231.846 254.209C232.182 253.908 232.451 253.539 232.654 253.102C232.861 252.668 232.965 252.24 232.965 251.818ZM277.297 248.631V248.531C277.297 247.973 277.252 247.455 277.162 246.979C277.072 246.498 276.955 246.051 276.811 245.637C276.666 245.219 276.496 244.84 276.301 244.5C276.105 244.156 275.896 243.848 275.674 243.574C275.459 243.309 275.236 243.082 275.006 242.895C274.779 242.703 274.561 242.557 274.35 242.455L274.074 243.24C274.195 243.334 274.318 243.451 274.443 243.592C274.572 243.729 274.695 243.885 274.812 244.061C274.98 244.307 275.141 244.598 275.293 244.934C275.449 245.27 275.582 245.648 275.691 246.07C275.773 246.395 275.842 246.762 275.896 247.172C275.951 247.582 275.979 248.031 275.979 248.52V248.643C275.979 249.115 275.953 249.555 275.902 249.961C275.855 250.367 275.789 250.742 275.703 251.086C275.613 251.457 275.502 251.795 275.369 252.1C275.24 252.408 275.102 252.684 274.953 252.926C274.812 253.145 274.668 253.338 274.52 253.506C274.371 253.674 274.223 253.812 274.074 253.922L274.35 254.707C274.561 254.605 274.779 254.461 275.006 254.273C275.232 254.086 275.455 253.855 275.674 253.582C275.893 253.316 276.1 253.012 276.295 252.668C276.49 252.324 276.662 251.943 276.811 251.525C276.959 251.111 277.076 250.662 277.162 250.178C277.252 249.693 277.297 249.178 277.297 248.631ZM368.838 246.193C368.838 246.463 368.926 246.691 369.102 246.879C369.281 247.062 369.531 247.154 369.852 247.154C370.168 247.154 370.416 247.062 370.596 246.879C370.779 246.695 370.871 246.467 370.871 246.193C370.871 245.92 370.781 245.689 370.602 245.502C370.422 245.311 370.172 245.215 369.852 245.215C369.527 245.215 369.277 245.311 369.102 245.502C368.926 245.693 368.838 245.924 368.838 246.193ZM370.484 251.818V250.635H369.107V251.871C369.107 252.258 369.061 252.605 368.967 252.914C368.877 253.223 368.748 253.516 368.58 253.793L369.365 254.209C369.701 253.908 369.971 253.539 370.174 253.102C370.381 252.668 370.484 252.24 370.484 251.818Z" fill="white"/>
<path d="M147.775 245.543C147.338 245.543 146.938 245.645 146.574 245.848C146.215 246.051 145.906 246.33 145.648 246.686L145.643 246.539L145.584 245.66H144.271V252H145.672V248.086C145.746 247.898 145.838 247.732 145.947 247.588C146.057 247.443 146.189 247.324 146.346 247.23C146.49 247.133 146.656 247.061 146.844 247.014C147.031 246.967 147.242 246.943 147.477 246.943C147.684 246.943 147.891 246.955 148.098 246.979C148.309 247.002 148.521 247.037 148.736 247.084L148.936 245.701C148.814 245.658 148.646 245.621 148.432 245.59C148.221 245.559 148.002 245.543 147.775 245.543ZM150.418 248.783V248.906C150.418 249.363 150.477 249.789 150.594 250.184C150.715 250.574 150.887 250.912 151.109 251.197C151.328 251.486 151.594 251.713 151.906 251.877C152.219 252.037 152.57 252.117 152.961 252.117C153.176 252.117 153.375 252.094 153.559 252.047C153.742 252.004 153.91 251.939 154.062 251.854C154.164 251.799 154.258 251.734 154.344 251.66C154.434 251.586 154.52 251.506 154.602 251.42V251.859C154.602 252.098 154.566 252.311 154.496 252.498C154.43 252.686 154.334 252.844 154.209 252.973C154.072 253.105 153.906 253.207 153.711 253.277C153.52 253.348 153.299 253.383 153.049 253.383C152.904 253.383 152.762 253.367 152.621 253.336C152.48 253.309 152.342 253.264 152.205 253.201C152.068 253.139 151.934 253.057 151.801 252.955C151.672 252.857 151.551 252.74 151.438 252.604L150.775 253.453C150.916 253.641 151.084 253.801 151.279 253.934C151.475 254.066 151.68 254.174 151.895 254.256C152.109 254.338 152.324 254.398 152.539 254.438C152.754 254.477 152.951 254.496 153.131 254.496C153.557 254.496 153.945 254.436 154.297 254.314C154.652 254.197 154.957 254.025 155.211 253.799C155.461 253.568 155.654 253.287 155.791 252.955C155.932 252.627 156.002 252.25 156.002 251.824V245.66H154.73L154.672 246.299C154.594 246.205 154.51 246.119 154.42 246.041C154.33 245.959 154.234 245.889 154.133 245.83C153.977 245.736 153.803 245.666 153.611 245.619C153.42 245.568 153.207 245.543 152.973 245.543C152.578 245.543 152.223 245.623 151.906 245.783C151.594 245.939 151.326 246.16 151.104 246.445C150.885 246.73 150.715 247.072 150.594 247.471C150.477 247.865 150.418 248.303 150.418 248.783ZM151.824 248.906V248.783C151.824 248.498 151.854 248.23 151.912 247.98C151.971 247.727 152.062 247.504 152.188 247.312C152.309 247.121 152.463 246.971 152.65 246.861C152.838 246.752 153.062 246.697 153.324 246.697C153.473 246.697 153.609 246.715 153.734 246.75C153.859 246.781 153.973 246.826 154.074 246.885C154.188 246.947 154.287 247.025 154.373 247.119C154.463 247.213 154.539 247.318 154.602 247.436V250.213C154.539 250.326 154.467 250.43 154.385 250.523C154.303 250.617 154.209 250.697 154.104 250.764C153.998 250.826 153.879 250.875 153.746 250.91C153.617 250.945 153.473 250.963 153.312 250.963C153.055 250.963 152.832 250.91 152.645 250.805C152.457 250.695 152.303 250.545 152.182 250.354C152.057 250.17 151.965 249.953 151.906 249.703C151.852 249.453 151.824 249.188 151.824 248.906ZM163.379 248.895V248.771C163.379 248.412 163.346 248.072 163.279 247.752C163.217 247.432 163.123 247.141 162.998 246.879C162.904 246.691 162.795 246.52 162.67 246.363C162.549 246.203 162.41 246.068 162.254 245.959C162.07 245.826 161.863 245.725 161.633 245.654C161.406 245.58 161.156 245.543 160.883 245.543C160.676 245.543 160.482 245.564 160.303 245.607C160.127 245.646 159.965 245.707 159.816 245.789C159.703 245.852 159.598 245.924 159.5 246.006C159.402 246.088 159.312 246.18 159.23 246.281V243H157.83V252H159.096L159.16 251.309C159.23 251.395 159.303 251.475 159.377 251.549C159.455 251.619 159.537 251.686 159.623 251.748C159.791 251.869 159.98 251.961 160.191 252.023C160.402 252.086 160.637 252.117 160.895 252.117C161.148 252.117 161.383 252.084 161.598 252.018C161.816 251.955 162.014 251.865 162.189 251.748C162.408 251.604 162.596 251.422 162.752 251.203C162.908 250.984 163.033 250.74 163.127 250.471C163.209 250.244 163.271 249.998 163.314 249.732C163.357 249.467 163.379 249.188 163.379 248.895ZM161.979 248.771V248.895C161.979 249.07 161.969 249.24 161.949 249.404C161.93 249.568 161.9 249.721 161.861 249.861C161.814 250.049 161.746 250.219 161.656 250.371C161.57 250.52 161.459 250.643 161.322 250.74C161.221 250.811 161.105 250.867 160.977 250.91C160.848 250.949 160.703 250.969 160.543 250.969C160.367 250.969 160.207 250.947 160.062 250.904C159.922 250.857 159.797 250.795 159.688 250.717C159.59 250.643 159.502 250.559 159.424 250.465C159.35 250.367 159.285 250.26 159.23 250.143V247.518C159.277 247.416 159.332 247.322 159.395 247.236C159.461 247.146 159.535 247.068 159.617 247.002C159.73 246.904 159.863 246.83 160.016 246.779C160.168 246.725 160.34 246.697 160.531 246.697C160.688 246.697 160.828 246.715 160.953 246.75C161.078 246.785 161.189 246.838 161.287 246.908C161.436 247.01 161.553 247.135 161.639 247.283C161.729 247.428 161.801 247.59 161.855 247.77C161.895 247.918 161.924 248.078 161.943 248.25C161.967 248.418 161.979 248.592 161.979 248.771ZM169.062 252H170.492V251.9C170.414 251.736 170.354 251.541 170.311 251.314C170.271 251.084 170.252 250.826 170.252 250.541V247.723C170.252 247.363 170.186 247.047 170.053 246.773C169.92 246.496 169.736 246.268 169.502 246.088C169.268 245.908 168.988 245.773 168.664 245.684C168.344 245.59 167.998 245.543 167.627 245.543C167.213 245.543 166.844 245.598 166.52 245.707C166.199 245.812 165.928 245.957 165.705 246.141C165.482 246.32 165.312 246.527 165.195 246.762C165.078 246.996 165.018 247.24 165.014 247.494H166.42C166.42 247.373 166.441 247.26 166.484 247.154C166.531 247.045 166.602 246.953 166.695 246.879C166.789 246.797 166.906 246.732 167.047 246.686C167.191 246.639 167.359 246.615 167.551 246.615C167.762 246.615 167.947 246.643 168.107 246.697C168.271 246.748 168.41 246.822 168.523 246.92C168.629 247.018 168.709 247.133 168.764 247.266C168.822 247.398 168.852 247.547 168.852 247.711V248.139H167.832C167.375 248.139 166.965 248.182 166.602 248.268C166.242 248.354 165.939 248.479 165.693 248.643C165.428 248.818 165.225 249.041 165.084 249.311C164.947 249.576 164.879 249.883 164.879 250.23C164.879 250.5 164.932 250.752 165.037 250.986C165.146 251.217 165.297 251.414 165.488 251.578C165.684 251.746 165.916 251.879 166.186 251.977C166.459 252.07 166.76 252.117 167.088 252.117C167.291 252.117 167.48 252.098 167.656 252.059C167.832 252.02 167.996 251.965 168.148 251.895C168.301 251.828 168.438 251.75 168.559 251.66C168.684 251.566 168.795 251.469 168.893 251.367C168.912 251.488 168.934 251.605 168.957 251.719C168.984 251.828 169.02 251.922 169.062 252ZM167.357 250.992C167.178 250.992 167.021 250.971 166.889 250.928C166.756 250.881 166.645 250.818 166.555 250.74C166.465 250.662 166.396 250.568 166.35 250.459C166.303 250.346 166.279 250.225 166.279 250.096C166.279 249.939 166.307 249.799 166.361 249.674C166.42 249.549 166.508 249.441 166.625 249.352C166.758 249.246 166.936 249.166 167.158 249.111C167.381 249.053 167.645 249.023 167.949 249.023H168.852V250.195C168.801 250.297 168.729 250.395 168.635 250.488C168.541 250.582 168.43 250.666 168.301 250.74C168.172 250.814 168.027 250.875 167.867 250.922C167.711 250.969 167.541 250.992 167.357 250.992Z" fill="#7DD8C7"/>
<path d="M184.9 248.748V246.727C184.9 246.18 184.836 245.697 184.707 245.279C184.578 244.857 184.396 244.502 184.162 244.213C183.92 243.928 183.627 243.713 183.283 243.568C182.943 243.42 182.557 243.346 182.123 243.346C181.693 243.346 181.307 243.42 180.963 243.568C180.623 243.713 180.334 243.928 180.096 244.213C179.857 244.502 179.674 244.857 179.545 245.279C179.42 245.697 179.357 246.18 179.357 246.727V248.748C179.357 249.295 179.42 249.779 179.545 250.201C179.674 250.619 179.859 250.971 180.102 251.256C180.34 251.541 180.631 251.758 180.975 251.906C181.318 252.051 181.705 252.123 182.135 252.123C182.568 252.123 182.955 252.051 183.295 251.906C183.639 251.758 183.928 251.541 184.162 251.256C184.4 250.971 184.582 250.619 184.707 250.201C184.836 249.779 184.9 249.295 184.9 248.748ZM180.764 248.25C180.764 248.137 180.764 248.041 180.764 247.963C180.764 247.885 180.764 247.771 180.764 247.623V246.475C180.764 246.123 180.795 245.818 180.857 245.561C180.92 245.299 181.016 245.086 181.145 244.922C181.254 244.777 181.391 244.668 181.555 244.594C181.719 244.52 181.908 244.482 182.123 244.482C182.326 244.482 182.506 244.514 182.662 244.576C182.818 244.639 182.951 244.732 183.061 244.857C183.186 244.998 183.281 245.18 183.348 245.402C183.418 245.625 183.461 245.889 183.477 246.193L180.764 248.25ZM183.488 248.982C183.488 249.342 183.457 249.654 183.395 249.92C183.332 250.186 183.234 250.4 183.102 250.564C182.988 250.705 182.852 250.812 182.691 250.887C182.531 250.957 182.346 250.992 182.135 250.992C181.92 250.992 181.73 250.955 181.566 250.881C181.406 250.807 181.271 250.695 181.162 250.547C181.053 250.41 180.965 250.238 180.898 250.031C180.836 249.824 180.795 249.586 180.775 249.316L183.488 247.271C183.488 247.385 183.488 247.494 183.488 247.6C183.488 247.701 183.488 247.803 183.488 247.904V248.982ZM206.521 248.748V246.727C206.521 246.18 206.457 245.697 206.328 245.279C206.199 244.857 206.018 244.502 205.783 244.213C205.541 243.928 205.248 243.713 204.904 243.568C204.564 243.42 204.178 243.346 203.744 243.346C203.314 243.346 202.928 243.42 202.584 243.568C202.244 243.713 201.955 243.928 201.717 244.213C201.479 244.502 201.295 244.857 201.166 245.279C201.041 245.697 200.979 246.18 200.979 246.727V248.748C200.979 249.295 201.041 249.779 201.166 250.201C201.295 250.619 201.48 250.971 201.723 251.256C201.961 251.541 202.252 251.758 202.596 251.906C202.939 252.051 203.326 252.123 203.756 252.123C204.189 252.123 204.576 252.051 204.916 251.906C205.26 251.758 205.549 251.541 205.783 251.256C206.021 250.971 206.203 250.619 206.328 250.201C206.457 249.779 206.521 249.295 206.521 248.748ZM202.385 248.25C202.385 248.137 202.385 248.041 202.385 247.963C202.385 247.885 202.385 247.771 202.385 247.623V246.475C202.385 246.123 202.416 245.818 202.479 245.561C202.541 245.299 202.637 245.086 202.766 244.922C202.875 244.777 203.012 244.668 203.176 244.594C203.34 244.52 203.529 244.482 203.744 244.482C203.947 244.482 204.127 244.514 204.283 244.576C204.439 244.639 204.572 244.732 204.682 244.857C204.807 244.998 204.902 245.18 204.969 245.402C205.039 245.625 205.082 245.889 205.098 246.193L202.385 248.25ZM205.109 248.982C205.109 249.342 205.078 249.654 205.016 249.92C204.953 250.186 204.855 250.4 204.723 250.564C204.609 250.705 204.473 250.812 204.312 250.887C204.152 250.957 203.967 250.992 203.756 250.992C203.541 250.992 203.352 250.955 203.188 250.881C203.027 250.807 202.893 250.695 202.783 250.547C202.674 250.41 202.586 250.238 202.52 250.031C202.457 249.824 202.416 249.586 202.396 249.316L205.109 247.271C205.109 247.385 205.109 247.494 205.109 247.6C205.109 247.701 205.109 247.803 205.109 247.904V248.982ZM228.143 248.748V246.727C228.143 246.18 228.078 245.697 227.949 245.279C227.82 244.857 227.639 244.502 227.404 244.213C227.162 243.928 226.869 243.713 226.525 243.568C226.186 243.42 225.799 243.346 225.365 243.346C224.936 243.346 224.549 243.42 224.205 243.568C223.865 243.713 223.576 243.928 223.338 244.213C223.1 244.502 222.916 244.857 222.787 245.279C222.662 245.697 222.6 246.18 222.6 246.727V248.748C222.6 249.295 222.662 249.779 222.787 250.201C222.916 250.619 223.102 250.971 223.344 251.256C223.582 251.541 223.873 251.758 224.217 251.906C224.561 252.051 224.947 252.123 225.377 252.123C225.811 252.123 226.197 252.051 226.537 251.906C226.881 251.758 227.17 251.541 227.404 251.256C227.643 250.971 227.824 250.619 227.949 250.201C228.078 249.779 228.143 249.295 228.143 248.748ZM224.006 248.25C224.006 248.137 224.006 248.041 224.006 247.963C224.006 247.885 224.006 247.771 224.006 247.623V246.475C224.006 246.123 224.037 245.818 224.1 245.561C224.162 245.299 224.258 245.086 224.387 244.922C224.496 244.777 224.633 244.668 224.797 244.594C224.961 244.52 225.15 244.482 225.365 244.482C225.568 244.482 225.748 244.514 225.904 244.576C226.061 244.639 226.193 244.732 226.303 244.857C226.428 244.998 226.523 245.18 226.59 245.402C226.66 245.625 226.703 245.889 226.719 246.193L224.006 248.25ZM226.73 248.982C226.73 249.342 226.699 249.654 226.637 249.92C226.574 250.186 226.477 250.4 226.344 250.564C226.23 250.705 226.094 250.812 225.934 250.887C225.773 250.957 225.588 250.992 225.377 250.992C225.162 250.992 224.973 250.955 224.809 250.881C224.648 250.807 224.514 250.695 224.404 250.547C224.295 250.41 224.207 250.238 224.141 250.031C224.078 249.824 224.037 249.586 224.018 249.316L226.73 247.271C226.73 247.385 226.73 247.494 226.73 247.6C226.73 247.701 226.73 247.803 226.73 247.904V248.982ZM249.764 248.748V246.727C249.764 246.18 249.699 245.697 249.57 245.279C249.441 244.857 249.26 244.502 249.025 244.213C248.783 243.928 248.49 243.713 248.146 243.568C247.807 243.42 247.42 243.346 246.986 243.346C246.557 243.346 246.17 243.42 245.826 243.568C245.486 243.713 245.197 243.928 244.959 244.213C244.721 244.502 244.537 244.857 244.408 245.279C244.283 245.697 244.221 246.18 244.221 246.727V248.748C244.221 249.295 244.283 249.779 244.408 250.201C244.537 250.619 244.723 250.971 244.965 251.256C245.203 251.541 245.494 251.758 245.838 251.906C246.182 252.051 246.568 252.123 246.998 252.123C247.432 252.123 247.818 252.051 248.158 251.906C248.502 251.758 248.791 251.541 249.025 251.256C249.264 250.971 249.445 250.619 249.57 250.201C249.699 249.779 249.764 249.295 249.764 248.748ZM245.627 248.25C245.627 248.137 245.627 248.041 245.627 247.963C245.627 247.885 245.627 247.771 245.627 247.623V246.475C245.627 246.123 245.658 245.818 245.721 245.561C245.783 245.299 245.879 245.086 246.008 244.922C246.117 244.777 246.254 244.668 246.418 244.594C246.582 244.52 246.771 244.482 246.986 244.482C247.189 244.482 247.369 244.514 247.525 244.576C247.682 244.639 247.814 244.732 247.924 244.857C248.049 244.998 248.145 245.18 248.211 245.402C248.281 245.625 248.324 245.889 248.34 246.193L245.627 248.25ZM248.352 248.982C248.352 249.342 248.32 249.654 248.258 249.92C248.195 250.186 248.098 250.4 247.965 250.564C247.852 250.705 247.715 250.812 247.555 250.887C247.395 250.957 247.209 250.992 246.998 250.992C246.783 250.992 246.594 250.955 246.43 250.881C246.27 250.807 246.135 250.695 246.025 250.547C245.916 250.41 245.828 250.238 245.762 250.031C245.699 249.824 245.658 249.586 245.639 249.316L248.352 247.271C248.352 247.385 248.352 247.494 248.352 247.6C248.352 247.701 248.352 247.803 248.352 247.904V248.982ZM253.244 251.156C253.244 251.426 253.332 251.654 253.508 251.842C253.688 252.025 253.938 252.117 254.258 252.117C254.574 252.117 254.822 252.025 255.002 251.842C255.186 251.658 255.277 251.43 255.277 251.156C255.277 250.883 255.188 250.652 255.008 250.465C254.828 250.273 254.578 250.178 254.258 250.178C253.934 250.178 253.684 250.273 253.508 250.465C253.332 250.656 253.244 250.887 253.244 251.156ZM264.137 252V250.869H260.164L262.062 248.842C262.312 248.576 262.543 248.318 262.754 248.068C262.969 247.818 263.154 247.57 263.311 247.324C263.463 247.078 263.582 246.83 263.668 246.58C263.758 246.326 263.803 246.064 263.803 245.795C263.803 245.436 263.744 245.107 263.627 244.811C263.51 244.51 263.34 244.252 263.117 244.037C262.891 243.822 262.611 243.654 262.279 243.533C261.951 243.412 261.578 243.352 261.16 243.352C260.715 243.352 260.311 243.424 259.947 243.568C259.588 243.713 259.283 243.908 259.033 244.154C258.779 244.4 258.584 244.689 258.447 245.021C258.311 245.35 258.242 245.699 258.242 246.07H259.648C259.648 245.824 259.68 245.605 259.742 245.414C259.805 245.219 259.898 245.055 260.023 244.922C260.145 244.789 260.297 244.688 260.48 244.617C260.664 244.547 260.881 244.512 261.131 244.512C261.326 244.512 261.502 244.545 261.658 244.611C261.818 244.678 261.955 244.77 262.068 244.887C262.182 245.004 262.268 245.145 262.326 245.309C262.385 245.473 262.414 245.654 262.414 245.854C262.414 246.002 262.393 246.15 262.35 246.299C262.311 246.443 262.244 246.6 262.15 246.768C262.053 246.936 261.926 247.121 261.77 247.324C261.613 247.523 261.42 247.75 261.189 248.004L258.412 251.027V252H264.137ZM270.518 248.959V243.469H269.076L265.391 249.234L265.426 250.096H269.117V252H270.518V250.096H271.59V248.959H270.518ZM266.82 248.959L268.953 245.648L269.117 245.344V248.959H266.82ZM293.006 248.748V246.727C293.006 246.18 292.941 245.697 292.812 245.279C292.684 244.857 292.502 244.502 292.268 244.213C292.025 243.928 291.732 243.713 291.389 243.568C291.049 243.42 290.662 243.346 290.229 243.346C289.799 243.346 289.412 243.42 289.068 243.568C288.729 243.713 288.439 243.928 288.201 244.213C287.963 244.502 287.779 244.857 287.65 245.279C287.525 245.697 287.463 246.18 287.463 246.727V248.748C287.463 249.295 287.525 249.779 287.65 250.201C287.779 250.619 287.965 250.971 288.207 251.256C288.445 251.541 288.736 251.758 289.08 251.906C289.424 252.051 289.811 252.123 290.24 252.123C290.674 252.123 291.061 252.051 291.4 251.906C291.744 251.758 292.033 251.541 292.268 251.256C292.506 250.971 292.688 250.619 292.812 250.201C292.941 249.779 293.006 249.295 293.006 248.748ZM288.869 248.25C288.869 248.137 288.869 248.041 288.869 247.963C288.869 247.885 288.869 247.771 288.869 247.623V246.475C288.869 246.123 288.9 245.818 288.963 245.561C289.025 245.299 289.121 245.086 289.25 244.922C289.359 244.777 289.496 244.668 289.66 244.594C289.824 244.52 290.014 244.482 290.229 244.482C290.432 244.482 290.611 244.514 290.768 244.576C290.924 244.639 291.057 244.732 291.166 244.857C291.291 244.998 291.387 245.18 291.453 245.402C291.523 245.625 291.566 245.889 291.582 246.193L288.869 248.25ZM291.594 248.982C291.594 249.342 291.562 249.654 291.5 249.92C291.438 250.186 291.34 250.4 291.207 250.564C291.094 250.705 290.957 250.812 290.797 250.887C290.637 250.957 290.451 250.992 290.24 250.992C290.025 250.992 289.836 250.955 289.672 250.881C289.512 250.807 289.377 250.695 289.268 250.547C289.158 250.41 289.07 250.238 289.004 250.031C288.941 249.824 288.9 249.586 288.881 249.316L291.594 247.271C291.594 247.385 291.594 247.494 291.594 247.6C291.594 247.701 291.594 247.803 291.594 247.904V248.982ZM294.752 254.438H296.152V251.426C296.227 251.508 296.307 251.584 296.393 251.654C296.479 251.721 296.568 251.783 296.662 251.842C296.822 251.932 296.996 252 297.184 252.047C297.375 252.094 297.584 252.117 297.811 252.117C298.209 252.117 298.562 252.035 298.871 251.871C299.18 251.707 299.439 251.48 299.65 251.191C299.861 250.906 300.02 250.566 300.125 250.172C300.234 249.777 300.289 249.352 300.289 248.895V248.771C300.289 248.295 300.234 247.859 300.125 247.465C300.02 247.066 299.861 246.725 299.65 246.439C299.439 246.154 299.178 245.934 298.865 245.777C298.557 245.621 298.199 245.543 297.793 245.543C297.586 245.543 297.391 245.566 297.207 245.613C297.023 245.656 296.855 245.719 296.703 245.801C296.586 245.863 296.477 245.938 296.375 246.023C296.273 246.109 296.18 246.205 296.094 246.311L296.041 245.66H294.752V254.438ZM298.889 248.771V248.895C298.889 249.176 298.861 249.443 298.807 249.697C298.752 249.947 298.664 250.17 298.543 250.365C298.426 250.557 298.273 250.709 298.086 250.822C297.902 250.932 297.68 250.986 297.418 250.986C297.258 250.986 297.111 250.969 296.979 250.934C296.846 250.895 296.727 250.844 296.621 250.781C296.52 250.715 296.43 250.637 296.352 250.547C296.273 250.457 296.207 250.357 296.152 250.248V247.43C296.215 247.312 296.287 247.207 296.369 247.113C296.455 247.02 296.555 246.941 296.668 246.879C296.766 246.82 296.877 246.775 297.002 246.744C297.127 246.713 297.262 246.697 297.406 246.697C297.668 246.697 297.893 246.752 298.08 246.861C298.268 246.971 298.422 247.119 298.543 247.307C298.66 247.494 298.746 247.715 298.801 247.969C298.859 248.219 298.889 248.486 298.889 248.771ZM304.73 247.793L303.23 245.66H301.689L303.91 248.783L301.613 252H303.166L304.742 249.785L306.324 252H307.871L305.574 248.783L307.801 245.66H306.248L304.73 247.793ZM317.844 247.102V248.203H318.682C318.924 248.203 319.143 248.232 319.338 248.291C319.537 248.346 319.707 248.43 319.848 248.543C319.988 248.66 320.096 248.807 320.17 248.982C320.244 249.158 320.281 249.369 320.281 249.615C320.281 249.834 320.248 250.029 320.182 250.201C320.119 250.369 320.027 250.51 319.906 250.623C319.781 250.744 319.627 250.836 319.443 250.898C319.264 250.957 319.061 250.986 318.834 250.986C318.623 250.986 318.43 250.955 318.254 250.893C318.082 250.83 317.934 250.742 317.809 250.629C317.68 250.52 317.58 250.387 317.51 250.23C317.443 250.07 317.41 249.896 317.41 249.709H316.01C316.01 250.107 316.086 250.457 316.238 250.758C316.395 251.055 316.602 251.305 316.859 251.508C317.117 251.711 317.416 251.863 317.756 251.965C318.096 252.066 318.449 252.117 318.816 252.117C319.223 252.117 319.6 252.062 319.947 251.953C320.299 251.84 320.604 251.676 320.861 251.461C321.115 251.25 321.314 250.99 321.459 250.682C321.607 250.369 321.682 250.014 321.682 249.615C321.682 249.4 321.656 249.193 321.605 248.994C321.555 248.791 321.473 248.602 321.359 248.426C321.246 248.254 321.1 248.1 320.92 247.963C320.744 247.822 320.529 247.709 320.275 247.623C320.49 247.525 320.678 247.406 320.838 247.266C320.998 247.125 321.131 246.975 321.236 246.814C321.342 246.65 321.42 246.48 321.471 246.305C321.525 246.129 321.553 245.953 321.553 245.777C321.553 245.379 321.486 245.029 321.354 244.729C321.221 244.428 321.033 244.174 320.791 243.967C320.553 243.764 320.264 243.611 319.924 243.51C319.588 243.404 319.219 243.352 318.816 243.352C318.422 243.352 318.059 243.41 317.727 243.527C317.398 243.645 317.113 243.807 316.871 244.014C316.629 244.225 316.439 244.473 316.303 244.758C316.166 245.043 316.098 245.355 316.098 245.695H317.498C317.498 245.512 317.531 245.346 317.598 245.197C317.668 245.049 317.764 244.922 317.885 244.816C318.002 244.711 318.141 244.631 318.301 244.576C318.465 244.518 318.643 244.488 318.834 244.488C319.049 244.488 319.238 244.518 319.402 244.576C319.57 244.635 319.709 244.717 319.818 244.822C319.928 244.936 320.01 245.072 320.064 245.232C320.123 245.393 320.152 245.574 320.152 245.777C320.152 245.965 320.121 246.141 320.059 246.305C320 246.465 319.914 246.6 319.801 246.709C319.68 246.834 319.525 246.932 319.338 247.002C319.15 247.068 318.932 247.102 318.682 247.102H317.844ZM323.58 254.438H324.98V251.426C325.055 251.508 325.135 251.584 325.221 251.654C325.307 251.721 325.396 251.783 325.49 251.842C325.65 251.932 325.824 252 326.012 252.047C326.203 252.094 326.412 252.117 326.639 252.117C327.037 252.117 327.391 252.035 327.699 251.871C328.008 251.707 328.268 251.48 328.479 251.191C328.689 250.906 328.848 250.566 328.953 250.172C329.062 249.777 329.117 249.352 329.117 248.895V248.771C329.117 248.295 329.062 247.859 328.953 247.465C328.848 247.066 328.689 246.725 328.479 246.439C328.268 246.154 328.006 245.934 327.693 245.777C327.385 245.621 327.027 245.543 326.621 245.543C326.414 245.543 326.219 245.566 326.035 245.613C325.852 245.656 325.684 245.719 325.531 245.801C325.414 245.863 325.305 245.938 325.203 246.023C325.102 246.109 325.008 246.205 324.922 246.311L324.869 245.66H323.58V254.438ZM327.717 248.771V248.895C327.717 249.176 327.689 249.443 327.635 249.697C327.58 249.947 327.492 250.17 327.371 250.365C327.254 250.557 327.102 250.709 326.914 250.822C326.73 250.932 326.508 250.986 326.246 250.986C326.086 250.986 325.939 250.969 325.807 250.934C325.674 250.895 325.555 250.844 325.449 250.781C325.348 250.715 325.258 250.637 325.18 250.547C325.102 250.457 325.035 250.357 324.98 250.248V247.43C325.043 247.312 325.115 247.207 325.197 247.113C325.283 247.02 325.383 246.941 325.496 246.879C325.594 246.82 325.705 246.775 325.83 246.744C325.955 246.713 326.09 246.697 326.234 246.697C326.496 246.697 326.721 246.752 326.908 246.861C327.096 246.971 327.25 247.119 327.371 247.307C327.488 247.494 327.574 247.715 327.629 247.969C327.688 248.219 327.717 248.486 327.717 248.771ZM333.559 247.793L332.059 245.66H330.518L332.738 248.783L330.441 252H331.994L333.57 249.785L335.152 252H336.699L334.402 248.783L336.629 245.66H335.076L333.559 247.793ZM350.498 245.719C350.498 245.34 350.432 245.004 350.299 244.711C350.17 244.418 349.988 244.17 349.754 243.967C349.52 243.764 349.242 243.611 348.922 243.51C348.602 243.404 348.254 243.352 347.879 243.352C347.5 243.352 347.15 243.404 346.83 243.51C346.514 243.611 346.242 243.764 346.016 243.967C345.785 244.17 345.604 244.418 345.471 244.711C345.342 245.004 345.277 245.34 345.277 245.719C345.277 245.93 345.307 246.131 345.365 246.322C345.424 246.514 345.506 246.689 345.611 246.85C345.713 247.006 345.836 247.148 345.98 247.277C346.129 247.406 346.293 247.516 346.473 247.605C346.262 247.703 346.07 247.822 345.898 247.963C345.73 248.1 345.586 248.254 345.465 248.426C345.344 248.605 345.25 248.801 345.184 249.012C345.121 249.223 345.09 249.445 345.09 249.68C345.09 250.078 345.16 250.43 345.301 250.734C345.445 251.035 345.645 251.287 345.898 251.49C346.148 251.697 346.443 251.854 346.783 251.959C347.127 252.064 347.498 252.117 347.896 252.117C348.287 252.117 348.652 252.064 348.992 251.959C349.332 251.854 349.627 251.697 349.877 251.49C350.127 251.287 350.324 251.033 350.469 250.729C350.613 250.424 350.686 250.074 350.686 249.68C350.686 249.402 350.641 249.145 350.551 248.906C350.461 248.668 350.336 248.455 350.176 248.268C350.062 248.127 349.93 248.004 349.777 247.898C349.629 247.789 349.467 247.693 349.291 247.611C349.439 247.537 349.574 247.451 349.695 247.354C349.816 247.256 349.924 247.15 350.018 247.037C350.17 246.861 350.287 246.662 350.369 246.439C350.455 246.217 350.498 245.977 350.498 245.719ZM349.285 249.604C349.285 249.822 349.25 250.018 349.18 250.189C349.109 250.357 349.014 250.502 348.893 250.623C348.771 250.74 348.625 250.83 348.453 250.893C348.285 250.955 348.1 250.986 347.896 250.986C347.686 250.986 347.494 250.957 347.322 250.898C347.15 250.836 347.004 250.748 346.883 250.635C346.758 250.518 346.662 250.373 346.596 250.201C346.529 250.025 346.496 249.826 346.496 249.604C346.496 249.393 346.527 249.201 346.59 249.029C346.656 248.854 346.75 248.701 346.871 248.572C346.992 248.451 347.137 248.357 347.305 248.291C347.477 248.225 347.67 248.191 347.885 248.191C348.092 248.191 348.281 248.225 348.453 248.291C348.625 248.357 348.773 248.451 348.898 248.572C349.02 248.701 349.113 248.854 349.18 249.029C349.25 249.201 349.285 249.393 349.285 249.604ZM349.104 245.771C349.104 245.963 349.074 246.139 349.016 246.299C348.957 246.455 348.875 246.59 348.77 246.703C348.664 246.812 348.537 246.898 348.389 246.961C348.24 247.023 348.074 247.055 347.891 247.055C347.707 247.055 347.541 247.023 347.393 246.961C347.244 246.898 347.117 246.812 347.012 246.703C346.902 246.59 346.82 246.455 346.766 246.299C346.711 246.139 346.684 245.963 346.684 245.771C346.684 245.576 346.711 245.398 346.766 245.238C346.82 245.078 346.9 244.943 347.006 244.834C347.107 244.725 347.23 244.641 347.375 244.582C347.523 244.52 347.691 244.488 347.879 244.488C348.062 244.488 348.229 244.52 348.377 244.582C348.525 244.645 348.654 244.732 348.764 244.846C348.869 244.959 348.951 245.094 349.01 245.25C349.072 245.406 349.104 245.58 349.104 245.771ZM352.408 254.438H353.809V251.426C353.883 251.508 353.963 251.584 354.049 251.654C354.135 251.721 354.225 251.783 354.318 251.842C354.479 251.932 354.652 252 354.84 252.047C355.031 252.094 355.24 252.117 355.467 252.117C355.865 252.117 356.219 252.035 356.527 251.871C356.836 251.707 357.096 251.48 357.307 251.191C357.518 250.906 357.676 250.566 357.781 250.172C357.891 249.777 357.945 249.352 357.945 248.895V248.771C357.945 248.295 357.891 247.859 357.781 247.465C357.676 247.066 357.518 246.725 357.307 246.439C357.096 246.154 356.834 245.934 356.521 245.777C356.213 245.621 355.855 245.543 355.449 245.543C355.242 245.543 355.047 245.566 354.863 245.613C354.68 245.656 354.512 245.719 354.359 245.801C354.242 245.863 354.133 245.938 354.031 246.023C353.93 246.109 353.836 246.205 353.75 246.311L353.697 245.66H352.408V254.438ZM356.545 248.771V248.895C356.545 249.176 356.518 249.443 356.463 249.697C356.408 249.947 356.32 250.17 356.199 250.365C356.082 250.557 355.93 250.709 355.742 250.822C355.559 250.932 355.336 250.986 355.074 250.986C354.914 250.986 354.768 250.969 354.635 250.934C354.502 250.895 354.383 250.844 354.277 250.781C354.176 250.715 354.086 250.637 354.008 250.547C353.93 250.457 353.863 250.357 353.809 250.248V247.43C353.871 247.312 353.943 247.207 354.025 247.113C354.111 247.02 354.211 246.941 354.324 246.879C354.422 246.82 354.533 246.775 354.658 246.744C354.783 246.713 354.918 246.697 355.062 246.697C355.324 246.697 355.549 246.752 355.736 246.861C355.924 246.971 356.078 247.119 356.199 247.307C356.316 247.494 356.402 247.715 356.457 247.969C356.516 248.219 356.545 248.486 356.545 248.771ZM362.387 247.793L360.887 245.66H359.346L361.566 248.783L359.27 252H360.822L362.398 249.785L363.98 252H365.527L363.23 248.783L365.457 245.66H363.904L362.387 247.793Z" fill="#FF628C"/>
<defs>
<filter id="filter0_d_1_77" x="38" y="66" width="110" height="110" filterUnits="userSpaceOnUse" color-interpolation-filters="sRGB">
<feFlood flood-opacity="0" result="BackgroundImageFix"/>
<feColorMatrix in="SourceAlpha" type="matrix" values="0 0 0 0 0 0 0 0 0 0 0 0 0 0 0 0 0 0 127 0" result="hardAlpha"/>
<feOffset dy="3"/>
<feGaussianBlur stdDeviation="4"/>
<feColorMatrix type="matrix" values="0 0 0 0 0 0 0 0 0 0 0 0 0 0 0 0 0 0 0.25 0"/>
<feBlend mode="normal" in2="BackgroundImageFix" result="effect1_dropShadow_1_77"/>
<feBlend mode="normal" in="SourceGraphic" in2="effect1_dropShadow_1_77" result="shape"/>
</filter>
</defs>
</svg>
