<svg width="537" height="309" viewBox="0 0 537 309" fill="none" xmlns="http://www.w3.org/2000/svg">
<rect x="0.5" y="0.5" width="536" height="308" rx="9.5" fill="#FAFAFA"/>
<rect x="0.5" y="0.5" width="536" height="308" rx="9.5" stroke="#DFDFDF"/>
<path d="M54.0625 45H56.7898L57.4972 40.6705H59.8835L60.3352 37.9432H57.9489L58.4943 34.6023H60.8807L61.3409 31.875H58.946L59.6534 27.5455H56.9261L56.2188 31.875H52.8097L53.517 27.5455H50.7898L50.0824 31.875H47.7045L47.2443 34.6023H49.6307L49.0852 37.9432H46.6989L46.2472 40.6705H48.6335L47.9261 45H50.6534L51.3608 40.6705H54.7699L54.0625 45ZM51.8125 37.9432L52.358 34.6023H55.767L55.2216 37.9432H51.8125ZM69.3161 27.3068C65.4126 27.2898 62.7791 29.8466 62.7962 33.358C62.8047 36.6136 65.0632 38.9744 68.157 38.9744C70.0746 38.9744 71.7791 38.0455 72.5547 36.5114H72.674C72.6655 39.9716 71.4638 42.0767 69.1882 42.0767C67.8501 42.0767 66.8871 41.3438 66.6058 40.0739H62.9666C63.3075 43.0142 65.6939 45.2386 69.1882 45.2386C73.5092 45.2386 76.2962 41.7443 76.2876 35.821C76.2791 29.4972 72.9041 27.3239 69.3161 27.3068ZM69.3416 30.2045C71.0376 30.2045 72.2905 31.5852 72.3075 33.2472C72.3161 34.9176 70.995 36.2983 69.3075 36.2983C67.603 36.2983 66.3842 34.9688 66.3757 33.2557C66.3587 31.5511 67.6286 30.2045 69.3416 30.2045Z" fill="black"/>
<rect x="46" y="205" width="434.824" height="24" fill="#011627"/>
<ellipse cx="60.8236" cy="216.294" rx="4.47059" ry="4.70588" fill="#FC605C"/>
<circle cx="73.765" cy="216.765" r="4.70588" fill="#FFBB2C"/>
<circle cx="86.7059" cy="217.471" r="4.47059" fill="#2FC63C"/>
<g filter="url(#filter0_dd_1_121)">
<rect x="46" y="71" width="94" height="94" rx="5" fill="white"/>
</g>
<rect width="435" height="52" transform="translate(46 229)" fill="#011627"/>
<path d="M62.4805 248.895V248.771C62.4805 248.412 62.4473 248.072 62.3809 247.752C62.3184 247.432 62.2246 247.141 62.0996 246.879C62.0059 246.691 61.8965 246.52 61.7715 246.363C61.6504 246.203 61.5117 246.068 61.3555 245.959C61.1719 245.826 60.9648 245.725 60.7344 245.654C60.5078 245.58 60.2578 245.543 59.9844 245.543C59.7773 245.543 59.584 245.564 59.4043 245.607C59.2285 245.646 59.0664 245.707 58.918 245.789C58.8047 245.852 58.6992 245.924 58.6016 246.006C58.5039 246.088 58.4141 246.18 58.332 246.281V243H56.9316V252H58.1973L58.2617 251.309C58.332 251.395 58.4043 251.475 58.4785 251.549C58.5566 251.619 58.6387 251.686 58.7246 251.748C58.8926 251.869 59.082 251.961 59.293 252.023C59.5039 252.086 59.7383 252.117 59.9961 252.117C60.25 252.117 60.4844 252.084 60.6992 252.018C60.918 251.955 61.1152 251.865 61.291 251.748C61.5098 251.604 61.6973 251.422 61.8535 251.203C62.0098 250.984 62.1348 250.74 62.2285 250.471C62.3105 250.244 62.373 249.998 62.416 249.732C62.459 249.467 62.4805 249.188 62.4805 248.895ZM61.0801 248.771V248.895C61.0801 249.07 61.0703 249.24 61.0508 249.404C61.0312 249.568 61.002 249.721 60.9629 249.861C60.916 250.049 60.8477 250.219 60.7578 250.371C60.6719 250.52 60.5605 250.643 60.4238 250.74C60.3223 250.811 60.207 250.867 60.0781 250.91C59.9492 250.949 59.8047 250.969 59.6445 250.969C59.4688 250.969 59.3086 250.947 59.1641 250.904C59.0234 250.857 58.8984 250.795 58.7891 250.717C58.6914 250.643 58.6035 250.559 58.5254 250.465C58.4512 250.367 58.3867 250.26 58.332 250.143V247.518C58.3789 247.416 58.4336 247.322 58.4961 247.236C58.5625 247.146 58.6367 247.068 58.7188 247.002C58.832 246.904 58.9648 246.83 59.1172 246.779C59.2695 246.725 59.4414 246.697 59.6328 246.697C59.7891 246.697 59.9297 246.715 60.0547 246.75C60.1797 246.785 60.291 246.838 60.3887 246.908C60.5371 247.01 60.6543 247.135 60.7402 247.283C60.8301 247.428 60.9023 247.59 60.957 247.77C60.9961 247.918 61.0254 248.078 61.0449 248.25C61.0684 248.418 61.0801 248.592 61.0801 248.771ZM63.8574 248.771V248.895C63.8574 249.359 63.9238 249.787 64.0566 250.178C64.1895 250.568 64.3828 250.908 64.6367 251.197C64.8867 251.486 65.1953 251.713 65.5625 251.877C65.9297 252.041 66.3457 252.123 66.8105 252.123C67.2715 252.123 67.6836 252.041 68.0469 251.877C68.4141 251.713 68.7227 251.486 68.9727 251.197C69.2227 250.908 69.4141 250.568 69.5469 250.178C69.6797 249.787 69.7461 249.359 69.7461 248.895V248.771C69.7461 248.311 69.6797 247.885 69.5469 247.494C69.4141 247.1 69.2227 246.758 68.9727 246.469C68.7188 246.18 68.4082 245.953 68.041 245.789C67.6777 245.625 67.2637 245.543 66.7988 245.543C66.334 245.543 65.9199 245.625 65.5566 245.789C65.1934 245.953 64.8867 246.18 64.6367 246.469C64.3828 246.758 64.1895 247.1 64.0566 247.494C63.9238 247.885 63.8574 248.311 63.8574 248.771ZM65.2578 248.895V248.771C65.2578 248.494 65.2871 248.229 65.3457 247.975C65.4082 247.721 65.502 247.498 65.627 247.307C65.7559 247.115 65.916 246.963 66.1074 246.85C66.3027 246.736 66.5332 246.68 66.7988 246.68C67.0684 246.68 67.2988 246.736 67.4902 246.85C67.6855 246.963 67.8457 247.115 67.9707 247.307C68.0957 247.498 68.1895 247.721 68.252 247.975C68.3145 248.229 68.3457 248.494 68.3457 248.771V248.895C68.3457 249.18 68.3145 249.449 68.252 249.703C68.1934 249.957 68.1016 250.18 67.9766 250.371C67.8516 250.562 67.6914 250.715 67.4961 250.828C67.3008 250.938 67.0723 250.992 66.8105 250.992C66.541 250.992 66.3086 250.938 66.1133 250.828C65.918 250.715 65.7559 250.562 65.627 250.371C65.502 250.18 65.4082 249.957 65.3457 249.703C65.2871 249.449 65.2578 249.18 65.2578 248.895ZM74.1055 247.793L72.6055 245.66H71.0645L73.2852 248.783L70.9883 252H72.541L74.1172 249.785L75.6992 252H77.2461L74.9492 248.783L77.1758 245.66H75.623L74.1055 247.793ZM83.832 248.818V247.682H79.1152V248.818H83.832ZM89.8789 250.283C89.8789 250.385 89.8555 250.479 89.8086 250.564C89.7656 250.646 89.6992 250.723 89.6094 250.793C89.5 250.879 89.3535 250.947 89.1699 250.998C88.9902 251.049 88.7793 251.074 88.5371 251.074C88.3574 251.074 88.1797 251.057 88.0039 251.021C87.8281 250.982 87.6719 250.92 87.5352 250.834C87.3945 250.752 87.2773 250.645 87.1836 250.512C87.0938 250.375 87.043 250.209 87.0312 250.014H85.6719C85.6719 250.275 85.7344 250.533 85.8594 250.787C85.9844 251.041 86.168 251.266 86.4102 251.461C86.6484 251.66 86.9434 251.82 87.2949 251.941C87.6504 252.062 88.0566 252.123 88.5137 252.123C88.9238 252.123 89.2969 252.076 89.6328 251.982C89.9688 251.889 90.2578 251.758 90.5 251.59C90.7383 251.422 90.9219 251.221 91.0508 250.986C91.1836 250.752 91.25 250.494 91.25 250.213C91.25 249.924 91.1875 249.674 91.0625 249.463C90.9375 249.252 90.7617 249.068 90.5352 248.912C90.3086 248.764 90.0352 248.639 89.7148 248.537C89.3945 248.436 89.041 248.35 88.6543 248.279C88.377 248.232 88.1465 248.18 87.9629 248.121C87.7832 248.062 87.6426 247.998 87.541 247.928C87.4316 247.861 87.3555 247.785 87.3125 247.699C87.2695 247.609 87.248 247.51 87.248 247.4C87.248 247.295 87.2734 247.195 87.3242 247.102C87.375 247.004 87.4512 246.92 87.5527 246.85C87.6543 246.771 87.7832 246.711 87.9395 246.668C88.0996 246.621 88.2852 246.598 88.4961 246.598C88.7266 246.598 88.9277 246.629 89.0996 246.691C89.2715 246.75 89.4121 246.83 89.5215 246.932C89.6152 247.018 89.6855 247.115 89.7324 247.225C89.7832 247.33 89.8086 247.441 89.8086 247.559H91.209C91.209 247.273 91.1465 247.008 91.0215 246.762C90.8965 246.516 90.7188 246.303 90.4883 246.123C90.2539 245.943 89.9688 245.803 89.6328 245.701C89.2969 245.596 88.918 245.543 88.4961 245.543C88.1016 245.543 87.7422 245.594 87.418 245.695C87.0977 245.797 86.8242 245.936 86.5977 246.111C86.3672 246.287 86.1895 246.492 86.0645 246.727C85.9434 246.957 85.8828 247.201 85.8828 247.459C85.8828 247.729 85.9434 247.965 86.0645 248.168C86.1855 248.367 86.3535 248.543 86.5684 248.695C86.7871 248.852 87.0469 248.984 87.3477 249.094C87.6523 249.203 87.9883 249.295 88.3555 249.369C88.6484 249.424 88.8926 249.482 89.0879 249.545C89.2832 249.607 89.4414 249.674 89.5625 249.744C89.6758 249.822 89.7559 249.904 89.8027 249.99C89.8535 250.076 89.8789 250.174 89.8789 250.283ZM94.3438 246.562V243H92.9434V252H94.3438V247.412C94.4102 247.311 94.4863 247.219 94.5723 247.137C94.6621 247.055 94.7578 246.984 94.8594 246.926C94.9805 246.852 95.1133 246.795 95.2578 246.756C95.4062 246.717 95.5625 246.697 95.7266 246.697C95.9375 246.697 96.123 246.727 96.2832 246.785C96.4473 246.84 96.5859 246.926 96.6992 247.043C96.8086 247.152 96.8906 247.295 96.9453 247.471C97.0039 247.646 97.0332 247.852 97.0332 248.086V252H98.4336V248.098C98.4336 247.648 98.3789 247.264 98.2695 246.943C98.1641 246.619 98.0137 246.354 97.8184 246.146C97.623 245.939 97.3867 245.787 97.1094 245.689C96.8359 245.592 96.5332 245.543 96.2012 245.543C95.9629 245.543 95.7363 245.578 95.5215 245.648C95.3105 245.715 95.1172 245.812 94.9414 245.941C94.8281 246.02 94.7207 246.111 94.6191 246.217C94.5176 246.322 94.4258 246.438 94.3438 246.562ZM104.199 252H105.629V251.9C105.551 251.736 105.49 251.541 105.447 251.314C105.408 251.084 105.389 250.826 105.389 250.541V247.723C105.389 247.363 105.322 247.047 105.189 246.773C105.057 246.496 104.873 246.268 104.639 246.088C104.404 245.908 104.125 245.773 103.801 245.684C103.48 245.59 103.135 245.543 102.764 245.543C102.35 245.543 101.98 245.598 101.656 245.707C101.336 245.812 101.064 245.957 100.842 246.141C100.619 246.32 100.449 246.527 100.332 246.762C100.215 246.996 100.154 247.24 100.15 247.494H101.557C101.557 247.373 101.578 247.26 101.621 247.154C101.668 247.045 101.738 246.953 101.832 246.879C101.926 246.797 102.043 246.732 102.184 246.686C102.328 246.639 102.496 246.615 102.688 246.615C102.898 246.615 103.084 246.643 103.244 246.697C103.408 246.748 103.547 246.822 103.66 246.92C103.766 247.018 103.846 247.133 103.9 247.266C103.959 247.398 103.988 247.547 103.988 247.711V248.139H102.969C102.512 248.139 102.102 248.182 101.738 248.268C101.379 248.354 101.076 248.479 100.83 248.643C100.564 248.818 100.361 249.041 100.221 249.311C100.084 249.576 100.016 249.883 100.016 250.23C100.016 250.5 100.068 250.752 100.174 250.986C100.283 251.217 100.434 251.414 100.625 251.578C100.82 251.746 101.053 251.879 101.322 251.977C101.596 252.07 101.896 252.117 102.225 252.117C102.428 252.117 102.617 252.098 102.793 252.059C102.969 252.02 103.133 251.965 103.285 251.895C103.438 251.828 103.574 251.75 103.695 251.66C103.82 251.566 103.932 251.469 104.029 251.367C104.049 251.488 104.07 251.605 104.094 251.719C104.121 251.828 104.156 251.922 104.199 252ZM102.494 250.992C102.314 250.992 102.158 250.971 102.025 250.928C101.893 250.881 101.781 250.818 101.691 250.74C101.602 250.662 101.533 250.568 101.486 250.459C101.439 250.346 101.416 250.225 101.416 250.096C101.416 249.939 101.443 249.799 101.498 249.674C101.557 249.549 101.645 249.441 101.762 249.352C101.895 249.246 102.072 249.166 102.295 249.111C102.518 249.053 102.781 249.023 103.086 249.023H103.988V250.195C103.938 250.297 103.865 250.395 103.771 250.488C103.678 250.582 103.566 250.666 103.438 250.74C103.309 250.814 103.164 250.875 103.004 250.922C102.848 250.969 102.678 250.992 102.494 250.992ZM107.17 248.783V248.906C107.17 249.363 107.229 249.789 107.346 250.184C107.463 250.574 107.629 250.912 107.844 251.197C108.059 251.486 108.32 251.713 108.629 251.877C108.938 252.037 109.285 252.117 109.672 252.117C110.039 252.117 110.363 252.051 110.645 251.918C110.926 251.781 111.168 251.588 111.371 251.338L111.436 252H112.707V243H111.307V246.252C111.104 246.025 110.869 245.852 110.604 245.73C110.342 245.605 110.035 245.543 109.684 245.543C109.293 245.543 108.941 245.623 108.629 245.783C108.32 245.939 108.059 246.16 107.844 246.445C107.625 246.73 107.457 247.072 107.34 247.471C107.227 247.865 107.17 248.303 107.17 248.783ZM108.57 248.906V248.783C108.57 248.498 108.598 248.23 108.652 247.98C108.707 247.727 108.793 247.504 108.91 247.312C109.027 247.121 109.178 246.971 109.361 246.861C109.549 246.752 109.773 246.697 110.035 246.697C110.348 246.697 110.605 246.768 110.809 246.908C111.016 247.045 111.182 247.23 111.307 247.465V250.189C111.182 250.428 111.016 250.617 110.809 250.758C110.602 250.895 110.34 250.963 110.023 250.963C109.766 250.963 109.545 250.91 109.361 250.805C109.178 250.695 109.027 250.547 108.91 250.359C108.793 250.172 108.707 249.953 108.652 249.703C108.598 249.453 108.57 249.188 108.57 248.906ZM114.307 248.771V248.895C114.307 249.359 114.373 249.787 114.506 250.178C114.639 250.568 114.832 250.908 115.086 251.197C115.336 251.486 115.645 251.713 116.012 251.877C116.379 252.041 116.795 252.123 117.26 252.123C117.721 252.123 118.133 252.041 118.496 251.877C118.863 251.713 119.172 251.486 119.422 251.197C119.672 250.908 119.863 250.568 119.996 250.178C120.129 249.787 120.195 249.359 120.195 248.895V248.771C120.195 248.311 120.129 247.885 119.996 247.494C119.863 247.1 119.672 246.758 119.422 246.469C119.168 246.18 118.857 245.953 118.49 245.789C118.127 245.625 117.713 245.543 117.248 245.543C116.783 245.543 116.369 245.625 116.006 245.789C115.643 245.953 115.336 246.18 115.086 246.469C114.832 246.758 114.639 247.1 114.506 247.494C114.373 247.885 114.307 248.311 114.307 248.771ZM115.707 248.895V248.771C115.707 248.494 115.736 248.229 115.795 247.975C115.857 247.721 115.951 247.498 116.076 247.307C116.205 247.115 116.365 246.963 116.557 246.85C116.752 246.736 116.982 246.68 117.248 246.68C117.518 246.68 117.748 246.736 117.939 246.85C118.135 246.963 118.295 247.115 118.42 247.307C118.545 247.498 118.639 247.721 118.701 247.975C118.764 248.229 118.795 248.494 118.795 248.771V248.895C118.795 249.18 118.764 249.449 118.701 249.703C118.643 249.957 118.551 250.18 118.426 250.371C118.301 250.562 118.141 250.715 117.945 250.828C117.75 250.938 117.521 250.992 117.26 250.992C116.99 250.992 116.758 250.938 116.562 250.828C116.367 250.715 116.205 250.562 116.076 250.371C115.951 250.18 115.857 249.957 115.795 249.703C115.736 249.449 115.707 249.18 115.707 248.895ZM122.299 252H123.488L124.291 248.402L124.432 247.617L124.578 248.402L125.398 252H126.588L127.812 245.66H126.541L125.973 249.527L125.861 250.301L125.727 249.533L124.9 245.66H123.98L123.154 249.545L123.025 250.277L122.926 249.545L122.34 245.66H121.074L122.299 252Z" fill="#F78C6C"/>
<path d="M130.895 251.156C130.895 251.426 130.982 251.654 131.158 251.842C131.338 252.025 131.588 252.117 131.908 252.117C132.225 252.117 132.473 252.025 132.652 251.842C132.836 251.658 132.928 251.43 132.928 251.156C132.928 250.883 132.838 250.652 132.658 250.465C132.479 250.273 132.229 250.178 131.908 250.178C131.584 250.178 131.334 250.273 131.158 250.465C130.982 250.656 130.895 250.887 130.895 251.156ZM130.895 246.193C130.895 246.463 130.982 246.691 131.158 246.879C131.338 247.062 131.588 247.154 131.908 247.154C132.225 247.154 132.473 247.062 132.652 246.879C132.836 246.695 132.928 246.467 132.928 246.193C132.928 245.92 132.838 245.689 132.658 245.502C132.479 245.311 132.229 245.215 131.908 245.215C131.584 245.215 131.334 245.311 131.158 245.502C130.982 245.693 130.895 245.924 130.895 246.193ZM173.363 248.531V248.631C173.363 249.189 173.406 249.713 173.492 250.201C173.578 250.686 173.693 251.135 173.838 251.549C173.982 251.967 174.15 252.346 174.342 252.686C174.537 253.029 174.742 253.334 174.957 253.6C175.172 253.865 175.391 254.09 175.613 254.273C175.836 254.461 176.051 254.605 176.258 254.707L176.539 253.922C176.383 253.801 176.227 253.65 176.07 253.471C175.914 253.291 175.764 253.084 175.619 252.85C175.479 252.619 175.348 252.354 175.227 252.053C175.105 251.752 174.998 251.426 174.904 251.074C174.83 250.781 174.766 250.426 174.711 250.008C174.656 249.586 174.629 249.131 174.629 248.643V248.52C174.629 248.02 174.656 247.555 174.711 247.125C174.77 246.695 174.848 246.303 174.945 245.947C175.051 245.568 175.176 245.219 175.32 244.898C175.469 244.578 175.627 244.299 175.795 244.061C175.916 243.893 176.039 243.742 176.164 243.609C176.289 243.477 176.414 243.363 176.539 243.27L176.258 242.455C176.051 242.557 175.836 242.701 175.613 242.889C175.391 243.072 175.174 243.297 174.963 243.562C174.748 243.828 174.543 244.133 174.348 244.477C174.156 244.82 173.986 245.197 173.838 245.607C173.693 246.025 173.578 246.48 173.492 246.973C173.406 247.461 173.363 247.98 173.363 248.531ZM189.723 251.818V250.635H188.346V251.871C188.346 252.258 188.299 252.605 188.205 252.914C188.115 253.223 187.986 253.516 187.818 253.793L188.604 254.209C188.939 253.908 189.209 253.539 189.412 253.102C189.619 252.668 189.723 252.24 189.723 251.818ZM211.344 251.818V250.635H209.967V251.871C209.967 252.258 209.92 252.605 209.826 252.914C209.736 253.223 209.607 253.516 209.439 253.793L210.225 254.209C210.561 253.908 210.83 253.539 211.033 253.102C211.24 252.668 211.344 252.24 211.344 251.818ZM232.965 251.818V250.635H231.588V251.871C231.588 252.258 231.541 252.605 231.447 252.914C231.357 253.223 231.229 253.516 231.061 253.793L231.846 254.209C232.182 253.908 232.451 253.539 232.654 253.102C232.861 252.668 232.965 252.24 232.965 251.818ZM277.297 248.631V248.531C277.297 247.973 277.252 247.455 277.162 246.979C277.072 246.498 276.955 246.051 276.811 245.637C276.666 245.219 276.496 244.84 276.301 244.5C276.105 244.156 275.896 243.848 275.674 243.574C275.459 243.309 275.236 243.082 275.006 242.895C274.779 242.703 274.561 242.557 274.35 242.455L274.074 243.24C274.195 243.334 274.318 243.451 274.443 243.592C274.572 243.729 274.695 243.885 274.812 244.061C274.98 244.307 275.141 244.598 275.293 244.934C275.449 245.27 275.582 245.648 275.691 246.07C275.773 246.395 275.842 246.762 275.896 247.172C275.951 247.582 275.979 248.031 275.979 248.52V248.643C275.979 249.115 275.953 249.555 275.902 249.961C275.855 250.367 275.789 250.742 275.703 251.086C275.613 251.457 275.502 251.795 275.369 252.1C275.24 252.408 275.102 252.684 274.953 252.926C274.812 253.145 274.668 253.338 274.52 253.506C274.371 253.674 274.223 253.812 274.074 253.922L274.35 254.707C274.561 254.605 274.779 254.461 275.006 254.273C275.232 254.086 275.455 253.855 275.674 253.582C275.893 253.316 276.1 253.012 276.295 252.668C276.49 252.324 276.662 251.943 276.811 251.525C276.959 251.111 277.076 250.662 277.162 250.178C277.252 249.693 277.297 249.178 277.297 248.631ZM398.727 251.818V250.635H397.35V251.871C397.35 252.258 397.303 252.605 397.209 252.914C397.119 253.223 396.99 253.516 396.822 253.793L397.607 254.209C397.943 253.908 398.213 253.539 398.416 253.102C398.623 252.668 398.727 252.24 398.727 251.818ZM173.363 264.531V264.631C173.363 265.189 173.406 265.713 173.492 266.201C173.578 266.686 173.693 267.135 173.838 267.549C173.982 267.967 174.15 268.346 174.342 268.686C174.537 269.029 174.742 269.334 174.957 269.6C175.172 269.865 175.391 270.09 175.613 270.273C175.836 270.461 176.051 270.605 176.258 270.707L176.539 269.922C176.383 269.801 176.227 269.65 176.07 269.471C175.914 269.291 175.764 269.084 175.619 268.85C175.479 268.619 175.348 268.354 175.227 268.053C175.105 267.752 174.998 267.426 174.904 267.074C174.83 266.781 174.766 266.426 174.711 266.008C174.656 265.586 174.629 265.131 174.629 264.643V264.52C174.629 264.02 174.656 263.555 174.711 263.125C174.77 262.695 174.848 262.303 174.945 261.947C175.051 261.568 175.176 261.219 175.32 260.898C175.469 260.578 175.627 260.299 175.795 260.061C175.916 259.893 176.039 259.742 176.164 259.609C176.289 259.477 176.414 259.363 176.539 259.27L176.258 258.455C176.051 258.557 175.836 258.701 175.613 258.889C175.391 259.072 175.174 259.297 174.963 259.562C174.748 259.828 174.543 260.133 174.348 260.477C174.156 260.82 173.986 261.197 173.838 261.607C173.693 262.025 173.578 262.48 173.492 262.973C173.406 263.461 173.363 263.98 173.363 264.531ZM196.93 267.818V266.635H195.553V267.871C195.553 268.258 195.506 268.605 195.412 268.914C195.322 269.223 195.193 269.516 195.025 269.793L195.811 270.209C196.146 269.908 196.416 269.539 196.619 269.102C196.826 268.668 196.93 268.24 196.93 267.818ZM225.758 267.818V266.635H224.381V267.871C224.381 268.258 224.334 268.605 224.24 268.914C224.15 269.223 224.021 269.516 223.854 269.793L224.639 270.209C224.975 269.908 225.244 269.539 225.447 269.102C225.654 268.668 225.758 268.24 225.758 267.818ZM254.586 267.818V266.635H253.209V267.871C253.209 268.258 253.162 268.605 253.068 268.914C252.979 269.223 252.85 269.516 252.682 269.793L253.467 270.209C253.803 269.908 254.072 269.539 254.275 269.102C254.482 268.668 254.586 268.24 254.586 267.818ZM298.918 264.631V264.531C298.918 263.973 298.873 263.455 298.783 262.979C298.693 262.498 298.576 262.051 298.432 261.637C298.287 261.219 298.117 260.84 297.922 260.5C297.727 260.156 297.518 259.848 297.295 259.574C297.08 259.309 296.857 259.082 296.627 258.895C296.4 258.703 296.182 258.557 295.971 258.455L295.695 259.24C295.816 259.334 295.939 259.451 296.064 259.592C296.193 259.729 296.316 259.885 296.434 260.061C296.602 260.307 296.762 260.598 296.914 260.934C297.07 261.27 297.203 261.648 297.312 262.07C297.395 262.395 297.463 262.762 297.518 263.172C297.572 263.582 297.6 264.031 297.6 264.52V264.643C297.6 265.115 297.574 265.555 297.523 265.961C297.477 266.367 297.41 266.742 297.324 267.086C297.234 267.457 297.123 267.795 296.99 268.1C296.861 268.408 296.723 268.684 296.574 268.926C296.434 269.145 296.289 269.338 296.141 269.506C295.992 269.674 295.844 269.812 295.695 269.922L295.971 270.707C296.182 270.605 296.4 270.461 296.627 270.273C296.854 270.086 297.076 269.855 297.295 269.582C297.514 269.316 297.721 269.012 297.916 268.668C298.111 268.324 298.283 267.943 298.432 267.525C298.58 267.111 298.697 266.662 298.783 266.178C298.873 265.693 298.918 265.178 298.918 264.631ZM419.287 262.193C419.287 262.463 419.375 262.691 419.551 262.879C419.73 263.062 419.98 263.154 420.301 263.154C420.617 263.154 420.865 263.062 421.045 262.879C421.229 262.695 421.32 262.467 421.32 262.193C421.32 261.92 421.23 261.689 421.051 261.502C420.871 261.311 420.621 261.215 420.301 261.215C419.977 261.215 419.727 261.311 419.551 261.502C419.375 261.693 419.287 261.924 419.287 262.193ZM420.934 267.818V266.635H419.557V267.871C419.557 268.258 419.51 268.605 419.416 268.914C419.326 269.223 419.197 269.516 419.029 269.793L419.814 270.209C420.15 269.908 420.42 269.539 420.623 269.102C420.83 268.668 420.934 268.24 420.934 267.818Z" fill="white"/>
<path d="M147.775 245.543C147.338 245.543 146.938 245.645 146.574 245.848C146.215 246.051 145.906 246.33 145.648 246.686L145.643 246.539L145.584 245.66H144.271V252H145.672V248.086C145.746 247.898 145.838 247.732 145.947 247.588C146.057 247.443 146.189 247.324 146.346 247.23C146.49 247.133 146.656 247.061 146.844 247.014C147.031 246.967 147.242 246.943 147.477 246.943C147.684 246.943 147.891 246.955 148.098 246.979C148.309 247.002 148.521 247.037 148.736 247.084L148.936 245.701C148.814 245.658 148.646 245.621 148.432 245.59C148.221 245.559 148.002 245.543 147.775 245.543ZM150.418 248.783V248.906C150.418 249.363 150.477 249.789 150.594 250.184C150.715 250.574 150.887 250.912 151.109 251.197C151.328 251.486 151.594 251.713 151.906 251.877C152.219 252.037 152.57 252.117 152.961 252.117C153.176 252.117 153.375 252.094 153.559 252.047C153.742 252.004 153.91 251.939 154.062 251.854C154.164 251.799 154.258 251.734 154.344 251.66C154.434 251.586 154.52 251.506 154.602 251.42V251.859C154.602 252.098 154.566 252.311 154.496 252.498C154.43 252.686 154.334 252.844 154.209 252.973C154.072 253.105 153.906 253.207 153.711 253.277C153.52 253.348 153.299 253.383 153.049 253.383C152.904 253.383 152.762 253.367 152.621 253.336C152.48 253.309 152.342 253.264 152.205 253.201C152.068 253.139 151.934 253.057 151.801 252.955C151.672 252.857 151.551 252.74 151.438 252.604L150.775 253.453C150.916 253.641 151.084 253.801 151.279 253.934C151.475 254.066 151.68 254.174 151.895 254.256C152.109 254.338 152.324 254.398 152.539 254.438C152.754 254.477 152.951 254.496 153.131 254.496C153.557 254.496 153.945 254.436 154.297 254.314C154.652 254.197 154.957 254.025 155.211 253.799C155.461 253.568 155.654 253.287 155.791 252.955C155.932 252.627 156.002 252.25 156.002 251.824V245.66H154.73L154.672 246.299C154.594 246.205 154.51 246.119 154.42 246.041C154.33 245.959 154.234 245.889 154.133 245.83C153.977 245.736 153.803 245.666 153.611 245.619C153.42 245.568 153.207 245.543 152.973 245.543C152.578 245.543 152.223 245.623 151.906 245.783C151.594 245.939 151.326 246.16 151.104 246.445C150.885 246.73 150.715 247.072 150.594 247.471C150.477 247.865 150.418 248.303 150.418 248.783ZM151.824 248.906V248.783C151.824 248.498 151.854 248.23 151.912 247.98C151.971 247.727 152.062 247.504 152.188 247.312C152.309 247.121 152.463 246.971 152.65 246.861C152.838 246.752 153.062 246.697 153.324 246.697C153.473 246.697 153.609 246.715 153.734 246.75C153.859 246.781 153.973 246.826 154.074 246.885C154.188 246.947 154.287 247.025 154.373 247.119C154.463 247.213 154.539 247.318 154.602 247.436V250.213C154.539 250.326 154.467 250.43 154.385 250.523C154.303 250.617 154.209 250.697 154.104 250.764C153.998 250.826 153.879 250.875 153.746 250.91C153.617 250.945 153.473 250.963 153.312 250.963C153.055 250.963 152.832 250.91 152.645 250.805C152.457 250.695 152.303 250.545 152.182 250.354C152.057 250.17 151.965 249.953 151.906 249.703C151.852 249.453 151.824 249.188 151.824 248.906ZM163.379 248.895V248.771C163.379 248.412 163.346 248.072 163.279 247.752C163.217 247.432 163.123 247.141 162.998 246.879C162.904 246.691 162.795 246.52 162.67 246.363C162.549 246.203 162.41 246.068 162.254 245.959C162.07 245.826 161.863 245.725 161.633 245.654C161.406 245.58 161.156 245.543 160.883 245.543C160.676 245.543 160.482 245.564 160.303 245.607C160.127 245.646 159.965 245.707 159.816 245.789C159.703 245.852 159.598 245.924 159.5 246.006C159.402 246.088 159.312 246.18 159.23 246.281V243H157.83V252H159.096L159.16 251.309C159.23 251.395 159.303 251.475 159.377 251.549C159.455 251.619 159.537 251.686 159.623 251.748C159.791 251.869 159.98 251.961 160.191 252.023C160.402 252.086 160.637 252.117 160.895 252.117C161.148 252.117 161.383 252.084 161.598 252.018C161.816 251.955 162.014 251.865 162.189 251.748C162.408 251.604 162.596 251.422 162.752 251.203C162.908 250.984 163.033 250.74 163.127 250.471C163.209 250.244 163.271 249.998 163.314 249.732C163.357 249.467 163.379 249.188 163.379 248.895ZM161.979 248.771V248.895C161.979 249.07 161.969 249.24 161.949 249.404C161.93 249.568 161.9 249.721 161.861 249.861C161.814 250.049 161.746 250.219 161.656 250.371C161.57 250.52 161.459 250.643 161.322 250.74C161.221 250.811 161.105 250.867 160.977 250.91C160.848 250.949 160.703 250.969 160.543 250.969C160.367 250.969 160.207 250.947 160.062 250.904C159.922 250.857 159.797 250.795 159.688 250.717C159.59 250.643 159.502 250.559 159.424 250.465C159.35 250.367 159.285 250.26 159.23 250.143V247.518C159.277 247.416 159.332 247.322 159.395 247.236C159.461 247.146 159.535 247.068 159.617 247.002C159.73 246.904 159.863 246.83 160.016 246.779C160.168 246.725 160.34 246.697 160.531 246.697C160.688 246.697 160.828 246.715 160.953 246.75C161.078 246.785 161.189 246.838 161.287 246.908C161.436 247.01 161.553 247.135 161.639 247.283C161.729 247.428 161.801 247.59 161.855 247.77C161.895 247.918 161.924 248.078 161.943 248.25C161.967 248.418 161.979 248.592 161.979 248.771ZM169.062 252H170.492V251.9C170.414 251.736 170.354 251.541 170.311 251.314C170.271 251.084 170.252 250.826 170.252 250.541V247.723C170.252 247.363 170.186 247.047 170.053 246.773C169.92 246.496 169.736 246.268 169.502 246.088C169.268 245.908 168.988 245.773 168.664 245.684C168.344 245.59 167.998 245.543 167.627 245.543C167.213 245.543 166.844 245.598 166.52 245.707C166.199 245.812 165.928 245.957 165.705 246.141C165.482 246.32 165.312 246.527 165.195 246.762C165.078 246.996 165.018 247.24 165.014 247.494H166.42C166.42 247.373 166.441 247.26 166.484 247.154C166.531 247.045 166.602 246.953 166.695 246.879C166.789 246.797 166.906 246.732 167.047 246.686C167.191 246.639 167.359 246.615 167.551 246.615C167.762 246.615 167.947 246.643 168.107 246.697C168.271 246.748 168.41 246.822 168.523 246.92C168.629 247.018 168.709 247.133 168.764 247.266C168.822 247.398 168.852 247.547 168.852 247.711V248.139H167.832C167.375 248.139 166.965 248.182 166.602 248.268C166.242 248.354 165.939 248.479 165.693 248.643C165.428 248.818 165.225 249.041 165.084 249.311C164.947 249.576 164.879 249.883 164.879 250.23C164.879 250.5 164.932 250.752 165.037 250.986C165.146 251.217 165.297 251.414 165.488 251.578C165.684 251.746 165.916 251.879 166.186 251.977C166.459 252.07 166.76 252.117 167.088 252.117C167.291 252.117 167.48 252.098 167.656 252.059C167.832 252.02 167.996 251.965 168.148 251.895C168.301 251.828 168.438 251.75 168.559 251.66C168.684 251.566 168.795 251.469 168.893 251.367C168.912 251.488 168.934 251.605 168.957 251.719C168.984 251.828 169.02 251.922 169.062 252ZM167.357 250.992C167.178 250.992 167.021 250.971 166.889 250.928C166.756 250.881 166.645 250.818 166.555 250.74C166.465 250.662 166.396 250.568 166.35 250.459C166.303 250.346 166.279 250.225 166.279 250.096C166.279 249.939 166.307 249.799 166.361 249.674C166.42 249.549 166.508 249.441 166.625 249.352C166.758 249.246 166.936 249.166 167.158 249.111C167.381 249.053 167.645 249.023 167.949 249.023H168.852V250.195C168.801 250.297 168.729 250.395 168.635 250.488C168.541 250.582 168.43 250.666 168.301 250.74C168.172 250.814 168.027 250.875 167.867 250.922C167.711 250.969 167.541 250.992 167.357 250.992ZM147.775 261.543C147.338 261.543 146.938 261.645 146.574 261.848C146.215 262.051 145.906 262.33 145.648 262.686L145.643 262.539L145.584 261.66H144.271V268H145.672V264.086C145.746 263.898 145.838 263.732 145.947 263.588C146.057 263.443 146.189 263.324 146.346 263.23C146.49 263.133 146.656 263.061 146.844 263.014C147.031 262.967 147.242 262.943 147.477 262.943C147.684 262.943 147.891 262.955 148.098 262.979C148.309 263.002 148.521 263.037 148.736 263.084L148.936 261.701C148.814 261.658 148.646 261.621 148.432 261.59C148.221 261.559 148.002 261.543 147.775 261.543ZM150.418 264.783V264.906C150.418 265.363 150.477 265.789 150.594 266.184C150.715 266.574 150.887 266.912 151.109 267.197C151.328 267.486 151.594 267.713 151.906 267.877C152.219 268.037 152.57 268.117 152.961 268.117C153.176 268.117 153.375 268.094 153.559 268.047C153.742 268.004 153.91 267.939 154.062 267.854C154.164 267.799 154.258 267.734 154.344 267.66C154.434 267.586 154.52 267.506 154.602 267.42V267.859C154.602 268.098 154.566 268.311 154.496 268.498C154.43 268.686 154.334 268.844 154.209 268.973C154.072 269.105 153.906 269.207 153.711 269.277C153.52 269.348 153.299 269.383 153.049 269.383C152.904 269.383 152.762 269.367 152.621 269.336C152.48 269.309 152.342 269.264 152.205 269.201C152.068 269.139 151.934 269.057 151.801 268.955C151.672 268.857 151.551 268.74 151.438 268.604L150.775 269.453C150.916 269.641 151.084 269.801 151.279 269.934C151.475 270.066 151.68 270.174 151.895 270.256C152.109 270.338 152.324 270.398 152.539 270.438C152.754 270.477 152.951 270.496 153.131 270.496C153.557 270.496 153.945 270.436 154.297 270.314C154.652 270.197 154.957 270.025 155.211 269.799C155.461 269.568 155.654 269.287 155.791 268.955C155.932 268.627 156.002 268.25 156.002 267.824V261.66H154.73L154.672 262.299C154.594 262.205 154.51 262.119 154.42 262.041C154.33 261.959 154.234 261.889 154.133 261.83C153.977 261.736 153.803 261.666 153.611 261.619C153.42 261.568 153.207 261.543 152.973 261.543C152.578 261.543 152.223 261.623 151.906 261.783C151.594 261.939 151.326 262.16 151.104 262.445C150.885 262.73 150.715 263.072 150.594 263.471C150.477 263.865 150.418 264.303 150.418 264.783ZM151.824 264.906V264.783C151.824 264.498 151.854 264.23 151.912 263.98C151.971 263.727 152.062 263.504 152.188 263.312C152.309 263.121 152.463 262.971 152.65 262.861C152.838 262.752 153.062 262.697 153.324 262.697C153.473 262.697 153.609 262.715 153.734 262.75C153.859 262.781 153.973 262.826 154.074 262.885C154.188 262.947 154.287 263.025 154.373 263.119C154.463 263.213 154.539 263.318 154.602 263.436V266.213C154.539 266.326 154.467 266.43 154.385 266.523C154.303 266.617 154.209 266.697 154.104 266.764C153.998 266.826 153.879 266.875 153.746 266.91C153.617 266.945 153.473 266.963 153.312 266.963C153.055 266.963 152.832 266.91 152.645 266.805C152.457 266.695 152.303 266.545 152.182 266.354C152.057 266.17 151.965 265.953 151.906 265.703C151.852 265.453 151.824 265.188 151.824 264.906ZM163.379 264.895V264.771C163.379 264.412 163.346 264.072 163.279 263.752C163.217 263.432 163.123 263.141 162.998 262.879C162.904 262.691 162.795 262.52 162.67 262.363C162.549 262.203 162.41 262.068 162.254 261.959C162.07 261.826 161.863 261.725 161.633 261.654C161.406 261.58 161.156 261.543 160.883 261.543C160.676 261.543 160.482 261.564 160.303 261.607C160.127 261.646 159.965 261.707 159.816 261.789C159.703 261.852 159.598 261.924 159.5 262.006C159.402 262.088 159.312 262.18 159.23 262.281V259H157.83V268H159.096L159.16 267.309C159.23 267.395 159.303 267.475 159.377 267.549C159.455 267.619 159.537 267.686 159.623 267.748C159.791 267.869 159.98 267.961 160.191 268.023C160.402 268.086 160.637 268.117 160.895 268.117C161.148 268.117 161.383 268.084 161.598 268.018C161.816 267.955 162.014 267.865 162.189 267.748C162.408 267.604 162.596 267.422 162.752 267.203C162.908 266.984 163.033 266.74 163.127 266.471C163.209 266.244 163.271 265.998 163.314 265.732C163.357 265.467 163.379 265.188 163.379 264.895ZM161.979 264.771V264.895C161.979 265.07 161.969 265.24 161.949 265.404C161.93 265.568 161.9 265.721 161.861 265.861C161.814 266.049 161.746 266.219 161.656 266.371C161.57 266.52 161.459 266.643 161.322 266.74C161.221 266.811 161.105 266.867 160.977 266.91C160.848 266.949 160.703 266.969 160.543 266.969C160.367 266.969 160.207 266.947 160.062 266.904C159.922 266.857 159.797 266.795 159.688 266.717C159.59 266.643 159.502 266.559 159.424 266.465C159.35 266.367 159.285 266.26 159.23 266.143V263.518C159.277 263.416 159.332 263.322 159.395 263.236C159.461 263.146 159.535 263.068 159.617 263.002C159.73 262.904 159.863 262.83 160.016 262.779C160.168 262.725 160.34 262.697 160.531 262.697C160.688 262.697 160.828 262.715 160.953 262.75C161.078 262.785 161.189 262.838 161.287 262.908C161.436 263.01 161.553 263.135 161.639 263.283C161.729 263.428 161.801 263.59 161.855 263.77C161.895 263.918 161.924 264.078 161.943 264.25C161.967 264.418 161.979 264.592 161.979 264.771ZM169.062 268H170.492V267.9C170.414 267.736 170.354 267.541 170.311 267.314C170.271 267.084 170.252 266.826 170.252 266.541V263.723C170.252 263.363 170.186 263.047 170.053 262.773C169.92 262.496 169.736 262.268 169.502 262.088C169.268 261.908 168.988 261.773 168.664 261.684C168.344 261.59 167.998 261.543 167.627 261.543C167.213 261.543 166.844 261.598 166.52 261.707C166.199 261.812 165.928 261.957 165.705 262.141C165.482 262.32 165.312 262.527 165.195 262.762C165.078 262.996 165.018 263.24 165.014 263.494H166.42C166.42 263.373 166.441 263.26 166.484 263.154C166.531 263.045 166.602 262.953 166.695 262.879C166.789 262.797 166.906 262.732 167.047 262.686C167.191 262.639 167.359 262.615 167.551 262.615C167.762 262.615 167.947 262.643 168.107 262.697C168.271 262.748 168.41 262.822 168.523 262.92C168.629 263.018 168.709 263.133 168.764 263.266C168.822 263.398 168.852 263.547 168.852 263.711V264.139H167.832C167.375 264.139 166.965 264.182 166.602 264.268C166.242 264.354 165.939 264.479 165.693 264.643C165.428 264.818 165.225 265.041 165.084 265.311C164.947 265.576 164.879 265.883 164.879 266.23C164.879 266.5 164.932 266.752 165.037 266.986C165.146 267.217 165.297 267.414 165.488 267.578C165.684 267.746 165.916 267.879 166.186 267.977C166.459 268.07 166.76 268.117 167.088 268.117C167.291 268.117 167.48 268.098 167.656 268.059C167.832 268.02 167.996 267.965 168.148 267.895C168.301 267.828 168.438 267.75 168.559 267.66C168.684 267.566 168.795 267.469 168.893 267.367C168.912 267.488 168.934 267.605 168.957 267.719C168.984 267.828 169.02 267.922 169.062 268ZM167.357 266.992C167.178 266.992 167.021 266.971 166.889 266.928C166.756 266.881 166.645 266.818 166.555 266.74C166.465 266.662 166.396 266.568 166.35 266.459C166.303 266.346 166.279 266.225 166.279 266.096C166.279 265.939 166.307 265.799 166.361 265.674C166.42 265.549 166.508 265.441 166.625 265.352C166.758 265.246 166.936 265.166 167.158 265.111C167.381 265.053 167.645 265.023 167.949 265.023H168.852V266.195C168.801 266.297 168.729 266.395 168.635 266.488C168.541 266.582 168.43 266.666 168.301 266.74C168.172 266.814 168.027 266.875 167.867 266.922C167.711 266.969 167.541 266.992 167.357 266.992Z" fill="#7DD8C7"/>
<path d="M184.9 248.748V246.727C184.9 246.18 184.836 245.697 184.707 245.279C184.578 244.857 184.396 244.502 184.162 244.213C183.92 243.928 183.627 243.713 183.283 243.568C182.943 243.42 182.557 243.346 182.123 243.346C181.693 243.346 181.307 243.42 180.963 243.568C180.623 243.713 180.334 243.928 180.096 244.213C179.857 244.502 179.674 244.857 179.545 245.279C179.42 245.697 179.357 246.18 179.357 246.727V248.748C179.357 249.295 179.42 249.779 179.545 250.201C179.674 250.619 179.859 250.971 180.102 251.256C180.34 251.541 180.631 251.758 180.975 251.906C181.318 252.051 181.705 252.123 182.135 252.123C182.568 252.123 182.955 252.051 183.295 251.906C183.639 251.758 183.928 251.541 184.162 251.256C184.4 250.971 184.582 250.619 184.707 250.201C184.836 249.779 184.9 249.295 184.9 248.748ZM180.764 248.25C180.764 248.137 180.764 248.041 180.764 247.963C180.764 247.885 180.764 247.771 180.764 247.623V246.475C180.764 246.123 180.795 245.818 180.857 245.561C180.92 245.299 181.016 245.086 181.145 244.922C181.254 244.777 181.391 244.668 181.555 244.594C181.719 244.52 181.908 244.482 182.123 244.482C182.326 244.482 182.506 244.514 182.662 244.576C182.818 244.639 182.951 244.732 183.061 244.857C183.186 244.998 183.281 245.18 183.348 245.402C183.418 245.625 183.461 245.889 183.477 246.193L180.764 248.25ZM183.488 248.982C183.488 249.342 183.457 249.654 183.395 249.92C183.332 250.186 183.234 250.4 183.102 250.564C182.988 250.705 182.852 250.812 182.691 250.887C182.531 250.957 182.346 250.992 182.135 250.992C181.92 250.992 181.73 250.955 181.566 250.881C181.406 250.807 181.271 250.695 181.162 250.547C181.053 250.41 180.965 250.238 180.898 250.031C180.836 249.824 180.795 249.586 180.775 249.316L183.488 247.271C183.488 247.385 183.488 247.494 183.488 247.6C183.488 247.701 183.488 247.803 183.488 247.904V248.982ZM206.521 248.748V246.727C206.521 246.18 206.457 245.697 206.328 245.279C206.199 244.857 206.018 244.502 205.783 244.213C205.541 243.928 205.248 243.713 204.904 243.568C204.564 243.42 204.178 243.346 203.744 243.346C203.314 243.346 202.928 243.42 202.584 243.568C202.244 243.713 201.955 243.928 201.717 244.213C201.479 244.502 201.295 244.857 201.166 245.279C201.041 245.697 200.979 246.18 200.979 246.727V248.748C200.979 249.295 201.041 249.779 201.166 250.201C201.295 250.619 201.48 250.971 201.723 251.256C201.961 251.541 202.252 251.758 202.596 251.906C202.939 252.051 203.326 252.123 203.756 252.123C204.189 252.123 204.576 252.051 204.916 251.906C205.26 251.758 205.549 251.541 205.783 251.256C206.021 250.971 206.203 250.619 206.328 250.201C206.457 249.779 206.521 249.295 206.521 248.748ZM202.385 248.25C202.385 248.137 202.385 248.041 202.385 247.963C202.385 247.885 202.385 247.771 202.385 247.623V246.475C202.385 246.123 202.416 245.818 202.479 245.561C202.541 245.299 202.637 245.086 202.766 244.922C202.875 244.777 203.012 244.668 203.176 244.594C203.34 244.52 203.529 244.482 203.744 244.482C203.947 244.482 204.127 244.514 204.283 244.576C204.439 244.639 204.572 244.732 204.682 244.857C204.807 244.998 204.902 245.18 204.969 245.402C205.039 245.625 205.082 245.889 205.098 246.193L202.385 248.25ZM205.109 248.982C205.109 249.342 205.078 249.654 205.016 249.92C204.953 250.186 204.855 250.4 204.723 250.564C204.609 250.705 204.473 250.812 204.312 250.887C204.152 250.957 203.967 250.992 203.756 250.992C203.541 250.992 203.352 250.955 203.188 250.881C203.027 250.807 202.893 250.695 202.783 250.547C202.674 250.41 202.586 250.238 202.52 250.031C202.457 249.824 202.416 249.586 202.396 249.316L205.109 247.271C205.109 247.385 205.109 247.494 205.109 247.6C205.109 247.701 205.109 247.803 205.109 247.904V248.982ZM228.143 248.748V246.727C228.143 246.18 228.078 245.697 227.949 245.279C227.82 244.857 227.639 244.502 227.404 244.213C227.162 243.928 226.869 243.713 226.525 243.568C226.186 243.42 225.799 243.346 225.365 243.346C224.936 243.346 224.549 243.42 224.205 243.568C223.865 243.713 223.576 243.928 223.338 244.213C223.1 244.502 222.916 244.857 222.787 245.279C222.662 245.697 222.6 246.18 222.6 246.727V248.748C222.6 249.295 222.662 249.779 222.787 250.201C222.916 250.619 223.102 250.971 223.344 251.256C223.582 251.541 223.873 251.758 224.217 251.906C224.561 252.051 224.947 252.123 225.377 252.123C225.811 252.123 226.197 252.051 226.537 251.906C226.881 251.758 227.17 251.541 227.404 251.256C227.643 250.971 227.824 250.619 227.949 250.201C228.078 249.779 228.143 249.295 228.143 248.748ZM224.006 248.25C224.006 248.137 224.006 248.041 224.006 247.963C224.006 247.885 224.006 247.771 224.006 247.623V246.475C224.006 246.123 224.037 245.818 224.1 245.561C224.162 245.299 224.258 245.086 224.387 244.922C224.496 244.777 224.633 244.668 224.797 244.594C224.961 244.52 225.15 244.482 225.365 244.482C225.568 244.482 225.748 244.514 225.904 244.576C226.061 244.639 226.193 244.732 226.303 244.857C226.428 244.998 226.523 245.18 226.59 245.402C226.66 245.625 226.703 245.889 226.719 246.193L224.006 248.25ZM226.73 248.982C226.73 249.342 226.699 249.654 226.637 249.92C226.574 250.186 226.477 250.4 226.344 250.564C226.23 250.705 226.094 250.812 225.934 250.887C225.773 250.957 225.588 250.992 225.377 250.992C225.162 250.992 224.973 250.955 224.809 250.881C224.648 250.807 224.514 250.695 224.404 250.547C224.295 250.41 224.207 250.238 224.141 250.031C224.078 249.824 224.037 249.586 224.018 249.316L226.73 247.271C226.73 247.385 226.73 247.494 226.73 247.6C226.73 247.701 226.73 247.803 226.73 247.904V248.982ZM249.764 248.748V246.727C249.764 246.18 249.699 245.697 249.57 245.279C249.441 244.857 249.26 244.502 249.025 244.213C248.783 243.928 248.49 243.713 248.146 243.568C247.807 243.42 247.42 243.346 246.986 243.346C246.557 243.346 246.17 243.42 245.826 243.568C245.486 243.713 245.197 243.928 244.959 244.213C244.721 244.502 244.537 244.857 244.408 245.279C244.283 245.697 244.221 246.18 244.221 246.727V248.748C244.221 249.295 244.283 249.779 244.408 250.201C244.537 250.619 244.723 250.971 244.965 251.256C245.203 251.541 245.494 251.758 245.838 251.906C246.182 252.051 246.568 252.123 246.998 252.123C247.432 252.123 247.818 252.051 248.158 251.906C248.502 251.758 248.791 251.541 249.025 251.256C249.264 250.971 249.445 250.619 249.57 250.201C249.699 249.779 249.764 249.295 249.764 248.748ZM245.627 248.25C245.627 248.137 245.627 248.041 245.627 247.963C245.627 247.885 245.627 247.771 245.627 247.623V246.475C245.627 246.123 245.658 245.818 245.721 245.561C245.783 245.299 245.879 245.086 246.008 244.922C246.117 244.777 246.254 244.668 246.418 244.594C246.582 244.52 246.771 244.482 246.986 244.482C247.189 244.482 247.369 244.514 247.525 244.576C247.682 244.639 247.814 244.732 247.924 244.857C248.049 244.998 248.145 245.18 248.211 245.402C248.281 245.625 248.324 245.889 248.34 246.193L245.627 248.25ZM248.352 248.982C248.352 249.342 248.32 249.654 248.258 249.92C248.195 250.186 248.098 250.4 247.965 250.564C247.852 250.705 247.715 250.812 247.555 250.887C247.395 250.957 247.209 250.992 246.998 250.992C246.783 250.992 246.594 250.955 246.43 250.881C246.27 250.807 246.135 250.695 246.025 250.547C245.916 250.41 245.828 250.238 245.762 250.031C245.699 249.824 245.658 249.586 245.639 249.316L248.352 247.271C248.352 247.385 248.352 247.494 248.352 247.6C248.352 247.701 248.352 247.803 248.352 247.904V248.982ZM253.244 251.156C253.244 251.426 253.332 251.654 253.508 251.842C253.688 252.025 253.938 252.117 254.258 252.117C254.574 252.117 254.822 252.025 255.002 251.842C255.186 251.658 255.277 251.43 255.277 251.156C255.277 250.883 255.188 250.652 255.008 250.465C254.828 250.273 254.578 250.178 254.258 250.178C253.934 250.178 253.684 250.273 253.508 250.465C253.332 250.656 253.244 250.887 253.244 251.156ZM264.178 248.748V246.727C264.178 246.18 264.113 245.697 263.984 245.279C263.855 244.857 263.674 244.502 263.439 244.213C263.197 243.928 262.904 243.713 262.561 243.568C262.221 243.42 261.834 243.346 261.4 243.346C260.971 243.346 260.584 243.42 260.24 243.568C259.9 243.713 259.611 243.928 259.373 244.213C259.135 244.502 258.951 244.857 258.822 245.279C258.697 245.697 258.635 246.18 258.635 246.727V248.748C258.635 249.295 258.697 249.779 258.822 250.201C258.951 250.619 259.137 250.971 259.379 251.256C259.617 251.541 259.908 251.758 260.252 251.906C260.596 252.051 260.982 252.123 261.412 252.123C261.846 252.123 262.232 252.051 262.572 251.906C262.916 251.758 263.205 251.541 263.439 251.256C263.678 250.971 263.859 250.619 263.984 250.201C264.113 249.779 264.178 249.295 264.178 248.748ZM260.041 248.25C260.041 248.137 260.041 248.041 260.041 247.963C260.041 247.885 260.041 247.771 260.041 247.623V246.475C260.041 246.123 260.072 245.818 260.135 245.561C260.197 245.299 260.293 245.086 260.422 244.922C260.531 244.777 260.668 244.668 260.832 244.594C260.996 244.52 261.186 244.482 261.4 244.482C261.604 244.482 261.783 244.514 261.939 244.576C262.096 244.639 262.229 244.732 262.338 244.857C262.463 244.998 262.559 245.18 262.625 245.402C262.695 245.625 262.738 245.889 262.754 246.193L260.041 248.25ZM262.766 248.982C262.766 249.342 262.734 249.654 262.672 249.92C262.609 250.186 262.512 250.4 262.379 250.564C262.266 250.705 262.129 250.812 261.969 250.887C261.809 250.957 261.623 250.992 261.412 250.992C261.197 250.992 261.008 250.955 260.844 250.881C260.684 250.807 260.549 250.695 260.439 250.547C260.33 250.41 260.242 250.238 260.176 250.031C260.113 249.824 260.072 249.586 260.053 249.316L262.766 247.271C262.766 247.385 262.766 247.494 262.766 247.6C262.766 247.701 262.766 247.803 262.766 247.904V248.982ZM271.344 252V250.869H267.371L269.27 248.842C269.52 248.576 269.75 248.318 269.961 248.068C270.176 247.818 270.361 247.57 270.518 247.324C270.67 247.078 270.789 246.83 270.875 246.58C270.965 246.326 271.01 246.064 271.01 245.795C271.01 245.436 270.951 245.107 270.834 244.811C270.717 244.51 270.547 244.252 270.324 244.037C270.098 243.822 269.818 243.654 269.486 243.533C269.158 243.412 268.785 243.352 268.367 243.352C267.922 243.352 267.518 243.424 267.154 243.568C266.795 243.713 266.49 243.908 266.24 244.154C265.986 244.4 265.791 244.689 265.654 245.021C265.518 245.35 265.449 245.699 265.449 246.07H266.855C266.855 245.824 266.887 245.605 266.949 245.414C267.012 245.219 267.105 245.055 267.23 244.922C267.352 244.789 267.504 244.688 267.688 244.617C267.871 244.547 268.088 244.512 268.338 244.512C268.533 244.512 268.709 244.545 268.865 244.611C269.025 244.678 269.162 244.77 269.275 244.887C269.389 245.004 269.475 245.145 269.533 245.309C269.592 245.473 269.621 245.654 269.621 245.854C269.621 246.002 269.6 246.15 269.557 246.299C269.518 246.443 269.451 246.6 269.357 246.768C269.26 246.936 269.133 247.121 268.977 247.324C268.82 247.523 268.627 247.75 268.396 248.004L265.619 251.027V252H271.344ZM293.006 248.748V246.727C293.006 246.18 292.941 245.697 292.812 245.279C292.684 244.857 292.502 244.502 292.268 244.213C292.025 243.928 291.732 243.713 291.389 243.568C291.049 243.42 290.662 243.346 290.229 243.346C289.799 243.346 289.412 243.42 289.068 243.568C288.729 243.713 288.439 243.928 288.201 244.213C287.963 244.502 287.779 244.857 287.65 245.279C287.525 245.697 287.463 246.18 287.463 246.727V248.748C287.463 249.295 287.525 249.779 287.65 250.201C287.779 250.619 287.965 250.971 288.207 251.256C288.445 251.541 288.736 251.758 289.08 251.906C289.424 252.051 289.811 252.123 290.24 252.123C290.674 252.123 291.061 252.051 291.4 251.906C291.744 251.758 292.033 251.541 292.268 251.256C292.506 250.971 292.688 250.619 292.812 250.201C292.941 249.779 293.006 249.295 293.006 248.748ZM288.869 248.25C288.869 248.137 288.869 248.041 288.869 247.963C288.869 247.885 288.869 247.771 288.869 247.623V246.475C288.869 246.123 288.9 245.818 288.963 245.561C289.025 245.299 289.121 245.086 289.25 244.922C289.359 244.777 289.496 244.668 289.66 244.594C289.824 244.52 290.014 244.482 290.229 244.482C290.432 244.482 290.611 244.514 290.768 244.576C290.924 244.639 291.057 244.732 291.166 244.857C291.291 244.998 291.387 245.18 291.453 245.402C291.523 245.625 291.566 245.889 291.582 246.193L288.869 248.25ZM291.594 248.982C291.594 249.342 291.562 249.654 291.5 249.92C291.438 250.186 291.34 250.4 291.207 250.564C291.094 250.705 290.957 250.812 290.797 250.887C290.637 250.957 290.451 250.992 290.24 250.992C290.025 250.992 289.836 250.955 289.672 250.881C289.512 250.807 289.377 250.695 289.268 250.547C289.158 250.41 289.07 250.238 289.004 250.031C288.941 249.824 288.9 249.586 288.881 249.316L291.594 247.271C291.594 247.385 291.594 247.494 291.594 247.6C291.594 247.701 291.594 247.803 291.594 247.904V248.982ZM294.752 254.438H296.152V251.426C296.227 251.508 296.307 251.584 296.393 251.654C296.479 251.721 296.568 251.783 296.662 251.842C296.822 251.932 296.996 252 297.184 252.047C297.375 252.094 297.584 252.117 297.811 252.117C298.209 252.117 298.562 252.035 298.871 251.871C299.18 251.707 299.439 251.48 299.65 251.191C299.861 250.906 300.02 250.566 300.125 250.172C300.234 249.777 300.289 249.352 300.289 248.895V248.771C300.289 248.295 300.234 247.859 300.125 247.465C300.02 247.066 299.861 246.725 299.65 246.439C299.439 246.154 299.178 245.934 298.865 245.777C298.557 245.621 298.199 245.543 297.793 245.543C297.586 245.543 297.391 245.566 297.207 245.613C297.023 245.656 296.855 245.719 296.703 245.801C296.586 245.863 296.477 245.938 296.375 246.023C296.273 246.109 296.18 246.205 296.094 246.311L296.041 245.66H294.752V254.438ZM298.889 248.771V248.895C298.889 249.176 298.861 249.443 298.807 249.697C298.752 249.947 298.664 250.17 298.543 250.365C298.426 250.557 298.273 250.709 298.086 250.822C297.902 250.932 297.68 250.986 297.418 250.986C297.258 250.986 297.111 250.969 296.979 250.934C296.846 250.895 296.727 250.844 296.621 250.781C296.52 250.715 296.43 250.637 296.352 250.547C296.273 250.457 296.207 250.357 296.152 250.248V247.43C296.215 247.312 296.287 247.207 296.369 247.113C296.455 247.02 296.555 246.941 296.668 246.879C296.766 246.82 296.877 246.775 297.002 246.744C297.127 246.713 297.262 246.697 297.406 246.697C297.668 246.697 297.893 246.752 298.08 246.861C298.268 246.971 298.422 247.119 298.543 247.307C298.66 247.494 298.746 247.715 298.801 247.969C298.859 248.219 298.889 248.486 298.889 248.771ZM304.73 247.793L303.23 245.66H301.689L303.91 248.783L301.613 252H303.166L304.742 249.785L306.324 252H307.871L305.574 248.783L307.801 245.66H306.248L304.73 247.793ZM320.152 252V243.469H320.064L316.555 244.77V246.006L318.74 245.203V252H320.152ZM323.58 254.438H324.98V251.426C325.055 251.508 325.135 251.584 325.221 251.654C325.307 251.721 325.396 251.783 325.49 251.842C325.65 251.932 325.824 252 326.012 252.047C326.203 252.094 326.412 252.117 326.639 252.117C327.037 252.117 327.391 252.035 327.699 251.871C328.008 251.707 328.268 251.48 328.479 251.191C328.689 250.906 328.848 250.566 328.953 250.172C329.062 249.777 329.117 249.352 329.117 248.895V248.771C329.117 248.295 329.062 247.859 328.953 247.465C328.848 247.066 328.689 246.725 328.479 246.439C328.268 246.154 328.006 245.934 327.693 245.777C327.385 245.621 327.027 245.543 326.621 245.543C326.414 245.543 326.219 245.566 326.035 245.613C325.852 245.656 325.684 245.719 325.531 245.801C325.414 245.863 325.305 245.938 325.203 246.023C325.102 246.109 325.008 246.205 324.922 246.311L324.869 245.66H323.58V254.438ZM327.717 248.771V248.895C327.717 249.176 327.689 249.443 327.635 249.697C327.58 249.947 327.492 250.17 327.371 250.365C327.254 250.557 327.102 250.709 326.914 250.822C326.73 250.932 326.508 250.986 326.246 250.986C326.086 250.986 325.939 250.969 325.807 250.934C325.674 250.895 325.555 250.844 325.449 250.781C325.348 250.715 325.258 250.637 325.18 250.547C325.102 250.457 325.035 250.357 324.98 250.248V247.43C325.043 247.312 325.115 247.207 325.197 247.113C325.283 247.02 325.383 246.941 325.496 246.879C325.594 246.82 325.705 246.775 325.83 246.744C325.955 246.713 326.09 246.697 326.234 246.697C326.496 246.697 326.721 246.752 326.908 246.861C327.096 246.971 327.25 247.119 327.371 247.307C327.488 247.494 327.574 247.715 327.629 247.969C327.688 248.219 327.717 248.486 327.717 248.771ZM333.559 247.793L332.059 245.66H330.518L332.738 248.783L330.441 252H331.994L333.57 249.785L335.152 252H336.699L334.402 248.783L336.629 245.66H335.076L333.559 247.793ZM346.672 247.102V248.203H347.51C347.752 248.203 347.971 248.232 348.166 248.291C348.365 248.346 348.535 248.43 348.676 248.543C348.816 248.66 348.924 248.807 348.998 248.982C349.072 249.158 349.109 249.369 349.109 249.615C349.109 249.834 349.076 250.029 349.01 250.201C348.947 250.369 348.855 250.51 348.734 250.623C348.609 250.744 348.455 250.836 348.271 250.898C348.092 250.957 347.889 250.986 347.662 250.986C347.451 250.986 347.258 250.955 347.082 250.893C346.91 250.83 346.762 250.742 346.637 250.629C346.508 250.52 346.408 250.387 346.338 250.23C346.271 250.07 346.238 249.896 346.238 249.709H344.838C344.838 250.107 344.914 250.457 345.066 250.758C345.223 251.055 345.43 251.305 345.688 251.508C345.945 251.711 346.244 251.863 346.584 251.965C346.924 252.066 347.277 252.117 347.645 252.117C348.051 252.117 348.428 252.062 348.775 251.953C349.127 251.84 349.432 251.676 349.689 251.461C349.943 251.25 350.143 250.99 350.287 250.682C350.436 250.369 350.51 250.014 350.51 249.615C350.51 249.4 350.484 249.193 350.434 248.994C350.383 248.791 350.301 248.602 350.188 248.426C350.074 248.254 349.928 248.1 349.748 247.963C349.572 247.822 349.357 247.709 349.104 247.623C349.318 247.525 349.506 247.406 349.666 247.266C349.826 247.125 349.959 246.975 350.064 246.814C350.17 246.65 350.248 246.48 350.299 246.305C350.354 246.129 350.381 245.953 350.381 245.777C350.381 245.379 350.314 245.029 350.182 244.729C350.049 244.428 349.861 244.174 349.619 243.967C349.381 243.764 349.092 243.611 348.752 243.51C348.416 243.404 348.047 243.352 347.645 243.352C347.25 243.352 346.887 243.41 346.555 243.527C346.227 243.645 345.941 243.807 345.699 244.014C345.457 244.225 345.268 244.473 345.131 244.758C344.994 245.043 344.926 245.355 344.926 245.695H346.326C346.326 245.512 346.359 245.346 346.426 245.197C346.496 245.049 346.592 244.922 346.713 244.816C346.83 244.711 346.969 244.631 347.129 244.576C347.293 244.518 347.471 244.488 347.662 244.488C347.877 244.488 348.066 244.518 348.23 244.576C348.398 244.635 348.537 244.717 348.646 244.822C348.756 244.936 348.838 245.072 348.893 245.232C348.951 245.393 348.98 245.574 348.98 245.777C348.98 245.965 348.949 246.141 348.887 246.305C348.828 246.465 348.742 246.6 348.629 246.709C348.508 246.834 348.354 246.932 348.166 247.002C347.979 247.068 347.76 247.102 347.51 247.102H346.672ZM352.408 254.438H353.809V251.426C353.883 251.508 353.963 251.584 354.049 251.654C354.135 251.721 354.225 251.783 354.318 251.842C354.479 251.932 354.652 252 354.84 252.047C355.031 252.094 355.24 252.117 355.467 252.117C355.865 252.117 356.219 252.035 356.527 251.871C356.836 251.707 357.096 251.48 357.307 251.191C357.518 250.906 357.676 250.566 357.781 250.172C357.891 249.777 357.945 249.352 357.945 248.895V248.771C357.945 248.295 357.891 247.859 357.781 247.465C357.676 247.066 357.518 246.725 357.307 246.439C357.096 246.154 356.834 245.934 356.521 245.777C356.213 245.621 355.855 245.543 355.449 245.543C355.242 245.543 355.047 245.566 354.863 245.613C354.68 245.656 354.512 245.719 354.359 245.801C354.242 245.863 354.133 245.938 354.031 246.023C353.93 246.109 353.836 246.205 353.75 246.311L353.697 245.66H352.408V254.438ZM356.545 248.771V248.895C356.545 249.176 356.518 249.443 356.463 249.697C356.408 249.947 356.32 250.17 356.199 250.365C356.082 250.557 355.93 250.709 355.742 250.822C355.559 250.932 355.336 250.986 355.074 250.986C354.914 250.986 354.768 250.969 354.635 250.934C354.502 250.895 354.383 250.844 354.277 250.781C354.176 250.715 354.086 250.637 354.008 250.547C353.93 250.457 353.863 250.357 353.809 250.248V247.43C353.871 247.312 353.943 247.207 354.025 247.113C354.111 247.02 354.211 246.941 354.324 246.879C354.422 246.82 354.533 246.775 354.658 246.744C354.783 246.713 354.918 246.697 355.062 246.697C355.324 246.697 355.549 246.752 355.736 246.861C355.924 246.971 356.078 247.119 356.199 247.307C356.316 247.494 356.402 247.715 356.457 247.969C356.516 248.219 356.545 248.486 356.545 248.771ZM362.387 247.793L360.887 245.66H359.346L361.566 248.783L359.27 252H360.822L362.398 249.785L363.98 252H365.527L363.23 248.783L365.457 245.66H363.904L362.387 247.793ZM379.49 248.748V246.727C379.49 246.18 379.426 245.697 379.297 245.279C379.168 244.857 378.986 244.502 378.752 244.213C378.51 243.928 378.217 243.713 377.873 243.568C377.533 243.42 377.146 243.346 376.713 243.346C376.283 243.346 375.896 243.42 375.553 243.568C375.213 243.713 374.924 243.928 374.686 244.213C374.447 244.502 374.264 244.857 374.135 245.279C374.01 245.697 373.947 246.18 373.947 246.727V248.748C373.947 249.295 374.01 249.779 374.135 250.201C374.264 250.619 374.449 250.971 374.691 251.256C374.93 251.541 375.221 251.758 375.564 251.906C375.908 252.051 376.295 252.123 376.725 252.123C377.158 252.123 377.545 252.051 377.885 251.906C378.229 251.758 378.518 251.541 378.752 251.256C378.99 250.971 379.172 250.619 379.297 250.201C379.426 249.779 379.49 249.295 379.49 248.748ZM375.354 248.25C375.354 248.137 375.354 248.041 375.354 247.963C375.354 247.885 375.354 247.771 375.354 247.623V246.475C375.354 246.123 375.385 245.818 375.447 245.561C375.51 245.299 375.605 245.086 375.734 244.922C375.844 244.777 375.98 244.668 376.145 244.594C376.309 244.52 376.498 244.482 376.713 244.482C376.916 244.482 377.096 244.514 377.252 244.576C377.408 244.639 377.541 244.732 377.65 244.857C377.775 244.998 377.871 245.18 377.938 245.402C378.008 245.625 378.051 245.889 378.066 246.193L375.354 248.25ZM378.078 248.982C378.078 249.342 378.047 249.654 377.984 249.92C377.922 250.186 377.824 250.4 377.691 250.564C377.578 250.705 377.441 250.812 377.281 250.887C377.121 250.957 376.936 250.992 376.725 250.992C376.51 250.992 376.32 250.955 376.156 250.881C375.996 250.807 375.861 250.695 375.752 250.547C375.643 250.41 375.555 250.238 375.488 250.031C375.426 249.824 375.385 249.586 375.365 249.316L378.078 247.271C378.078 247.385 378.078 247.494 378.078 247.6C378.078 247.701 378.078 247.803 378.078 247.904V248.982ZM381.236 254.438H382.637V251.426C382.711 251.508 382.791 251.584 382.877 251.654C382.963 251.721 383.053 251.783 383.146 251.842C383.307 251.932 383.48 252 383.668 252.047C383.859 252.094 384.068 252.117 384.295 252.117C384.693 252.117 385.047 252.035 385.355 251.871C385.664 251.707 385.924 251.48 386.135 251.191C386.346 250.906 386.504 250.566 386.609 250.172C386.719 249.777 386.773 249.352 386.773 248.895V248.771C386.773 248.295 386.719 247.859 386.609 247.465C386.504 247.066 386.346 246.725 386.135 246.439C385.924 246.154 385.662 245.934 385.35 245.777C385.041 245.621 384.684 245.543 384.277 245.543C384.07 245.543 383.875 245.566 383.691 245.613C383.508 245.656 383.34 245.719 383.188 245.801C383.07 245.863 382.961 245.938 382.859 246.023C382.758 246.109 382.664 246.205 382.578 246.311L382.525 245.66H381.236V254.438ZM385.373 248.771V248.895C385.373 249.176 385.346 249.443 385.291 249.697C385.236 249.947 385.148 250.17 385.027 250.365C384.91 250.557 384.758 250.709 384.57 250.822C384.387 250.932 384.164 250.986 383.902 250.986C383.742 250.986 383.596 250.969 383.463 250.934C383.33 250.895 383.211 250.844 383.105 250.781C383.004 250.715 382.914 250.637 382.836 250.547C382.758 250.457 382.691 250.357 382.637 250.248V247.43C382.699 247.312 382.771 247.207 382.854 247.113C382.939 247.02 383.039 246.941 383.152 246.879C383.25 246.82 383.361 246.775 383.486 246.744C383.611 246.713 383.746 246.697 383.891 246.697C384.152 246.697 384.377 246.752 384.564 246.861C384.752 246.971 384.906 247.119 385.027 247.307C385.145 247.494 385.23 247.715 385.285 247.969C385.344 248.219 385.373 248.486 385.373 248.771ZM391.215 247.793L389.715 245.66H388.174L390.395 248.783L388.098 252H389.65L391.227 249.785L392.809 252H394.355L392.059 248.783L394.285 245.66H392.732L391.215 247.793ZM184.859 268V266.869H180.887L182.785 264.842C183.035 264.576 183.266 264.318 183.477 264.068C183.691 263.818 183.877 263.57 184.033 263.324C184.186 263.078 184.305 262.83 184.391 262.58C184.48 262.326 184.525 262.064 184.525 261.795C184.525 261.436 184.467 261.107 184.35 260.811C184.232 260.51 184.062 260.252 183.84 260.037C183.613 259.822 183.334 259.654 183.002 259.533C182.674 259.412 182.301 259.352 181.883 259.352C181.438 259.352 181.033 259.424 180.67 259.568C180.311 259.713 180.006 259.908 179.756 260.154C179.502 260.4 179.307 260.689 179.17 261.021C179.033 261.35 178.965 261.699 178.965 262.07H180.371C180.371 261.824 180.402 261.605 180.465 261.414C180.527 261.219 180.621 261.055 180.746 260.922C180.867 260.789 181.02 260.688 181.203 260.617C181.387 260.547 181.604 260.512 181.854 260.512C182.049 260.512 182.225 260.545 182.381 260.611C182.541 260.678 182.678 260.77 182.791 260.887C182.904 261.004 182.99 261.145 183.049 261.309C183.107 261.473 183.137 261.654 183.137 261.854C183.137 262.002 183.115 262.15 183.072 262.299C183.033 262.443 182.967 262.6 182.873 262.768C182.775 262.936 182.648 263.121 182.492 263.324C182.336 263.523 182.143 263.75 181.912 264.004L179.135 267.027V268H184.859ZM192.137 260.254V259.469H186.236V260.641H190.66L187.25 268H188.727L192.137 260.254ZM209.738 263.102V264.203H210.576C210.818 264.203 211.037 264.232 211.232 264.291C211.432 264.346 211.602 264.43 211.742 264.543C211.883 264.66 211.99 264.807 212.064 264.982C212.139 265.158 212.176 265.369 212.176 265.615C212.176 265.834 212.143 266.029 212.076 266.201C212.014 266.369 211.922 266.51 211.801 266.623C211.676 266.744 211.521 266.836 211.338 266.898C211.158 266.957 210.955 266.986 210.729 266.986C210.518 266.986 210.324 266.955 210.148 266.893C209.977 266.83 209.828 266.742 209.703 266.629C209.574 266.52 209.475 266.387 209.404 266.23C209.338 266.07 209.305 265.896 209.305 265.709H207.904C207.904 266.107 207.98 266.457 208.133 266.758C208.289 267.055 208.496 267.305 208.754 267.508C209.012 267.711 209.311 267.863 209.65 267.965C209.99 268.066 210.344 268.117 210.711 268.117C211.117 268.117 211.494 268.062 211.842 267.953C212.193 267.84 212.498 267.676 212.756 267.461C213.01 267.25 213.209 266.99 213.354 266.682C213.502 266.369 213.576 266.014 213.576 265.615C213.576 265.4 213.551 265.193 213.5 264.994C213.449 264.791 213.367 264.602 213.254 264.426C213.141 264.254 212.994 264.1 212.814 263.963C212.639 263.822 212.424 263.709 212.17 263.623C212.385 263.525 212.572 263.406 212.732 263.266C212.893 263.125 213.025 262.975 213.131 262.814C213.236 262.65 213.314 262.48 213.365 262.305C213.42 262.129 213.447 261.953 213.447 261.777C213.447 261.379 213.381 261.029 213.248 260.729C213.115 260.428 212.928 260.174 212.686 259.967C212.447 259.764 212.158 259.611 211.818 259.51C211.482 259.404 211.113 259.352 210.711 259.352C210.316 259.352 209.953 259.41 209.621 259.527C209.293 259.645 209.008 259.807 208.766 260.014C208.523 260.225 208.334 260.473 208.197 260.758C208.061 261.043 207.992 261.355 207.992 261.695H209.393C209.393 261.512 209.426 261.346 209.492 261.197C209.562 261.049 209.658 260.922 209.779 260.816C209.896 260.711 210.035 260.631 210.195 260.576C210.359 260.518 210.537 260.488 210.729 260.488C210.943 260.488 211.133 260.518 211.297 260.576C211.465 260.635 211.604 260.717 211.713 260.822C211.822 260.936 211.904 261.072 211.959 261.232C212.018 261.393 212.047 261.574 212.047 261.777C212.047 261.965 212.016 262.141 211.953 262.305C211.895 262.465 211.809 262.6 211.695 262.709C211.574 262.834 211.42 262.932 211.232 263.002C211.045 263.068 210.826 263.102 210.576 263.102H209.738ZM219.254 268V259.469H219.166L215.656 260.77V262.006L217.842 261.203V268H219.254ZM238.566 263.102V264.203H239.404C239.646 264.203 239.865 264.232 240.061 264.291C240.26 264.346 240.43 264.43 240.57 264.543C240.711 264.66 240.818 264.807 240.893 264.982C240.967 265.158 241.004 265.369 241.004 265.615C241.004 265.834 240.971 266.029 240.904 266.201C240.842 266.369 240.75 266.51 240.629 266.623C240.504 266.744 240.35 266.836 240.166 266.898C239.986 266.957 239.783 266.986 239.557 266.986C239.346 266.986 239.152 266.955 238.977 266.893C238.805 266.83 238.656 266.742 238.531 266.629C238.402 266.52 238.303 266.387 238.232 266.23C238.166 266.07 238.133 265.896 238.133 265.709H236.732C236.732 266.107 236.809 266.457 236.961 266.758C237.117 267.055 237.324 267.305 237.582 267.508C237.84 267.711 238.139 267.863 238.479 267.965C238.818 268.066 239.172 268.117 239.539 268.117C239.945 268.117 240.322 268.062 240.67 267.953C241.021 267.84 241.326 267.676 241.584 267.461C241.838 267.25 242.037 266.99 242.182 266.682C242.33 266.369 242.404 266.014 242.404 265.615C242.404 265.4 242.379 265.193 242.328 264.994C242.277 264.791 242.195 264.602 242.082 264.426C241.969 264.254 241.822 264.1 241.643 263.963C241.467 263.822 241.252 263.709 240.998 263.623C241.213 263.525 241.4 263.406 241.561 263.266C241.721 263.125 241.854 262.975 241.959 262.814C242.064 262.65 242.143 262.48 242.193 262.305C242.248 262.129 242.275 261.953 242.275 261.777C242.275 261.379 242.209 261.029 242.076 260.729C241.943 260.428 241.756 260.174 241.514 259.967C241.275 259.764 240.986 259.611 240.646 259.51C240.311 259.404 239.941 259.352 239.539 259.352C239.145 259.352 238.781 259.41 238.449 259.527C238.121 259.645 237.836 259.807 237.594 260.014C237.352 260.225 237.162 260.473 237.025 260.758C236.889 261.043 236.82 261.355 236.82 261.695H238.221C238.221 261.512 238.254 261.346 238.32 261.197C238.391 261.049 238.486 260.922 238.607 260.816C238.725 260.711 238.863 260.631 239.023 260.576C239.188 260.518 239.365 260.488 239.557 260.488C239.771 260.488 239.961 260.518 240.125 260.576C240.293 260.635 240.432 260.717 240.541 260.822C240.65 260.936 240.732 261.072 240.787 261.232C240.846 261.393 240.875 261.574 240.875 261.777C240.875 261.965 240.844 262.141 240.781 262.305C240.723 262.465 240.637 262.6 240.523 262.709C240.402 262.834 240.248 262.932 240.061 263.002C239.873 263.068 239.654 263.102 239.404 263.102H238.566ZM244.502 263.77L245.621 264.045C245.695 263.975 245.771 263.91 245.85 263.852C245.932 263.789 246.021 263.734 246.119 263.688C246.213 263.645 246.32 263.609 246.441 263.582C246.566 263.555 246.713 263.541 246.881 263.541C247.135 263.541 247.357 263.584 247.549 263.67C247.74 263.752 247.9 263.869 248.029 264.021C248.158 264.174 248.254 264.354 248.316 264.561C248.383 264.764 248.416 264.988 248.416 265.234C248.416 265.488 248.389 265.725 248.334 265.943C248.279 266.158 248.195 266.342 248.082 266.494C247.969 266.65 247.826 266.771 247.654 266.857C247.482 266.943 247.279 266.986 247.045 266.986C246.646 266.986 246.318 266.875 246.061 266.652C245.807 266.43 245.654 266.109 245.604 265.691H244.238C244.262 266.086 244.354 266.436 244.514 266.74C244.678 267.041 244.887 267.293 245.141 267.496C245.395 267.703 245.686 267.859 246.014 267.965C246.342 268.066 246.686 268.117 247.045 268.117C247.518 268.117 247.928 268.043 248.275 267.895C248.623 267.746 248.91 267.543 249.137 267.285C249.367 267.027 249.537 266.727 249.646 266.383C249.76 266.035 249.816 265.666 249.816 265.275C249.816 264.834 249.758 264.438 249.641 264.086C249.523 263.73 249.354 263.43 249.131 263.184C248.912 262.934 248.643 262.742 248.322 262.609C248.006 262.477 247.646 262.41 247.244 262.41C246.947 262.41 246.684 262.447 246.453 262.521C246.227 262.596 246.043 262.674 245.902 262.756L246.125 260.711H249.547V259.469H244.965L244.502 263.77ZM271.385 264.748V262.727C271.385 262.18 271.32 261.697 271.191 261.279C271.062 260.857 270.881 260.502 270.646 260.213C270.404 259.928 270.111 259.713 269.768 259.568C269.428 259.42 269.041 259.346 268.607 259.346C268.178 259.346 267.791 259.42 267.447 259.568C267.107 259.713 266.818 259.928 266.58 260.213C266.342 260.502 266.158 260.857 266.029 261.279C265.904 261.697 265.842 262.18 265.842 262.727V264.748C265.842 265.295 265.904 265.779 266.029 266.201C266.158 266.619 266.344 266.971 266.586 267.256C266.824 267.541 267.115 267.758 267.459 267.906C267.803 268.051 268.189 268.123 268.619 268.123C269.053 268.123 269.439 268.051 269.779 267.906C270.123 267.758 270.412 267.541 270.646 267.256C270.885 266.971 271.066 266.619 271.191 266.201C271.32 265.779 271.385 265.295 271.385 264.748ZM267.248 264.25C267.248 264.137 267.248 264.041 267.248 263.963C267.248 263.885 267.248 263.771 267.248 263.623V262.475C267.248 262.123 267.279 261.818 267.342 261.561C267.404 261.299 267.5 261.086 267.629 260.922C267.738 260.777 267.875 260.668 268.039 260.594C268.203 260.52 268.393 260.482 268.607 260.482C268.811 260.482 268.99 260.514 269.146 260.576C269.303 260.639 269.436 260.732 269.545 260.857C269.67 260.998 269.766 261.18 269.832 261.402C269.902 261.625 269.945 261.889 269.961 262.193L267.248 264.25ZM269.973 264.982C269.973 265.342 269.941 265.654 269.879 265.92C269.816 266.186 269.719 266.4 269.586 266.564C269.473 266.705 269.336 266.812 269.176 266.887C269.016 266.957 268.83 266.992 268.619 266.992C268.404 266.992 268.215 266.955 268.051 266.881C267.891 266.807 267.756 266.695 267.646 266.547C267.537 266.41 267.449 266.238 267.383 266.031C267.32 265.824 267.279 265.586 267.26 265.316L269.973 263.271C269.973 263.385 269.973 263.494 269.973 263.6C269.973 263.701 269.973 263.803 269.973 263.904V264.982ZM274.865 267.156C274.865 267.426 274.953 267.654 275.129 267.842C275.309 268.025 275.559 268.117 275.879 268.117C276.195 268.117 276.443 268.025 276.623 267.842C276.807 267.658 276.898 267.43 276.898 267.156C276.898 266.883 276.809 266.652 276.629 266.465C276.449 266.273 276.199 266.178 275.879 266.178C275.555 266.178 275.305 266.273 275.129 266.465C274.953 266.656 274.865 266.887 274.865 267.156ZM284.117 268V259.469H284.029L280.52 260.77V262.006L282.705 261.203V268H284.117ZM287.744 263.77L288.863 264.045C288.938 263.975 289.014 263.91 289.092 263.852C289.174 263.789 289.264 263.734 289.361 263.688C289.455 263.645 289.562 263.609 289.684 263.582C289.809 263.555 289.955 263.541 290.123 263.541C290.377 263.541 290.6 263.584 290.791 263.67C290.982 263.752 291.143 263.869 291.271 264.021C291.4 264.174 291.496 264.354 291.559 264.561C291.625 264.764 291.658 264.988 291.658 265.234C291.658 265.488 291.631 265.725 291.576 265.943C291.521 266.158 291.438 266.342 291.324 266.494C291.211 266.65 291.068 266.771 290.896 266.857C290.725 266.943 290.521 266.986 290.287 266.986C289.889 266.986 289.561 266.875 289.303 266.652C289.049 266.43 288.896 266.109 288.846 265.691H287.48C287.504 266.086 287.596 266.436 287.756 266.74C287.92 267.041 288.129 267.293 288.383 267.496C288.637 267.703 288.928 267.859 289.256 267.965C289.584 268.066 289.928 268.117 290.287 268.117C290.76 268.117 291.17 268.043 291.518 267.895C291.865 267.746 292.152 267.543 292.379 267.285C292.609 267.027 292.779 266.727 292.889 266.383C293.002 266.035 293.059 265.666 293.059 265.275C293.059 264.834 293 264.438 292.883 264.086C292.766 263.73 292.596 263.43 292.373 263.184C292.154 262.934 291.885 262.742 291.564 262.609C291.248 262.477 290.889 262.41 290.486 262.41C290.189 262.41 289.926 262.447 289.695 262.521C289.469 262.596 289.285 262.674 289.145 262.756L289.367 260.711H292.789V259.469H288.207L287.744 263.77ZM314.627 264.748V262.727C314.627 262.18 314.562 261.697 314.434 261.279C314.305 260.857 314.123 260.502 313.889 260.213C313.646 259.928 313.354 259.713 313.01 259.568C312.67 259.42 312.283 259.346 311.85 259.346C311.42 259.346 311.033 259.42 310.689 259.568C310.35 259.713 310.061 259.928 309.822 260.213C309.584 260.502 309.4 260.857 309.271 261.279C309.146 261.697 309.084 262.18 309.084 262.727V264.748C309.084 265.295 309.146 265.779 309.271 266.201C309.4 266.619 309.586 266.971 309.828 267.256C310.066 267.541 310.357 267.758 310.701 267.906C311.045 268.051 311.432 268.123 311.861 268.123C312.295 268.123 312.682 268.051 313.021 267.906C313.365 267.758 313.654 267.541 313.889 267.256C314.127 266.971 314.309 266.619 314.434 266.201C314.562 265.779 314.627 265.295 314.627 264.748ZM310.49 264.25C310.49 264.137 310.49 264.041 310.49 263.963C310.49 263.885 310.49 263.771 310.49 263.623V262.475C310.49 262.123 310.521 261.818 310.584 261.561C310.646 261.299 310.742 261.086 310.871 260.922C310.98 260.777 311.117 260.668 311.281 260.594C311.445 260.52 311.635 260.482 311.85 260.482C312.053 260.482 312.232 260.514 312.389 260.576C312.545 260.639 312.678 260.732 312.787 260.857C312.912 260.998 313.008 261.18 313.074 261.402C313.145 261.625 313.188 261.889 313.203 262.193L310.49 264.25ZM313.215 264.982C313.215 265.342 313.184 265.654 313.121 265.92C313.059 266.186 312.961 266.4 312.828 266.564C312.715 266.705 312.578 266.812 312.418 266.887C312.258 266.957 312.072 266.992 311.861 266.992C311.646 266.992 311.457 266.955 311.293 266.881C311.133 266.807 310.998 266.695 310.889 266.547C310.779 266.41 310.691 266.238 310.625 266.031C310.562 265.824 310.521 265.586 310.502 265.316L313.215 263.271C313.215 263.385 313.215 263.494 313.215 263.6C313.215 263.701 313.215 263.803 313.215 263.904V264.982ZM316.373 270.438H317.773V267.426C317.848 267.508 317.928 267.584 318.014 267.654C318.1 267.721 318.189 267.783 318.283 267.842C318.443 267.932 318.617 268 318.805 268.047C318.996 268.094 319.205 268.117 319.432 268.117C319.83 268.117 320.184 268.035 320.492 267.871C320.801 267.707 321.061 267.48 321.271 267.191C321.482 266.906 321.641 266.566 321.746 266.172C321.855 265.777 321.91 265.352 321.91 264.895V264.771C321.91 264.295 321.855 263.859 321.746 263.465C321.641 263.066 321.482 262.725 321.271 262.439C321.061 262.154 320.799 261.934 320.486 261.777C320.178 261.621 319.82 261.543 319.414 261.543C319.207 261.543 319.012 261.566 318.828 261.613C318.645 261.656 318.477 261.719 318.324 261.801C318.207 261.863 318.098 261.938 317.996 262.023C317.895 262.109 317.801 262.205 317.715 262.311L317.662 261.66H316.373V270.438ZM320.51 264.771V264.895C320.51 265.176 320.482 265.443 320.428 265.697C320.373 265.947 320.285 266.17 320.164 266.365C320.047 266.557 319.895 266.709 319.707 266.822C319.523 266.932 319.301 266.986 319.039 266.986C318.879 266.986 318.732 266.969 318.6 266.934C318.467 266.895 318.348 266.844 318.242 266.781C318.141 266.715 318.051 266.637 317.973 266.547C317.895 266.457 317.828 266.357 317.773 266.248V263.43C317.836 263.312 317.908 263.207 317.99 263.113C318.076 263.02 318.176 262.941 318.289 262.879C318.387 262.82 318.498 262.775 318.623 262.744C318.748 262.713 318.883 262.697 319.027 262.697C319.289 262.697 319.514 262.752 319.701 262.861C319.889 262.971 320.043 263.119 320.164 263.307C320.281 263.494 320.367 263.715 320.422 263.969C320.48 264.219 320.51 264.486 320.51 264.771ZM326.352 263.793L324.852 261.66H323.311L325.531 264.783L323.234 268H324.787L326.363 265.785L327.945 268H329.492L327.195 264.783L329.422 261.66H327.869L326.352 263.793ZM343.455 264.748V262.727C343.455 262.18 343.391 261.697 343.262 261.279C343.133 260.857 342.951 260.502 342.717 260.213C342.475 259.928 342.182 259.713 341.838 259.568C341.498 259.42 341.111 259.346 340.678 259.346C340.248 259.346 339.861 259.42 339.518 259.568C339.178 259.713 338.889 259.928 338.65 260.213C338.412 260.502 338.229 260.857 338.1 261.279C337.975 261.697 337.912 262.18 337.912 262.727V264.748C337.912 265.295 337.975 265.779 338.1 266.201C338.229 266.619 338.414 266.971 338.656 267.256C338.895 267.541 339.186 267.758 339.529 267.906C339.873 268.051 340.26 268.123 340.689 268.123C341.123 268.123 341.51 268.051 341.85 267.906C342.193 267.758 342.482 267.541 342.717 267.256C342.955 266.971 343.137 266.619 343.262 266.201C343.391 265.779 343.455 265.295 343.455 264.748ZM339.318 264.25C339.318 264.137 339.318 264.041 339.318 263.963C339.318 263.885 339.318 263.771 339.318 263.623V262.475C339.318 262.123 339.35 261.818 339.412 261.561C339.475 261.299 339.57 261.086 339.699 260.922C339.809 260.777 339.945 260.668 340.109 260.594C340.273 260.52 340.463 260.482 340.678 260.482C340.881 260.482 341.061 260.514 341.217 260.576C341.373 260.639 341.506 260.732 341.615 260.857C341.74 260.998 341.836 261.18 341.902 261.402C341.973 261.625 342.016 261.889 342.031 262.193L339.318 264.25ZM342.043 264.982C342.043 265.342 342.012 265.654 341.949 265.92C341.887 266.186 341.789 266.4 341.656 266.564C341.543 266.705 341.406 266.812 341.246 266.887C341.086 266.957 340.9 266.992 340.689 266.992C340.475 266.992 340.285 266.955 340.121 266.881C339.961 266.807 339.826 266.695 339.717 266.547C339.607 266.41 339.52 266.238 339.453 266.031C339.391 265.824 339.35 265.586 339.33 265.316L342.043 263.271C342.043 263.385 342.043 263.494 342.043 263.6C342.043 263.701 342.043 263.803 342.043 263.904V264.982ZM345.201 270.438H346.602V267.426C346.676 267.508 346.756 267.584 346.842 267.654C346.928 267.721 347.018 267.783 347.111 267.842C347.271 267.932 347.445 268 347.633 268.047C347.824 268.094 348.033 268.117 348.26 268.117C348.658 268.117 349.012 268.035 349.32 267.871C349.629 267.707 349.889 267.48 350.1 267.191C350.311 266.906 350.469 266.566 350.574 266.172C350.684 265.777 350.738 265.352 350.738 264.895V264.771C350.738 264.295 350.684 263.859 350.574 263.465C350.469 263.066 350.311 262.725 350.1 262.439C349.889 262.154 349.627 261.934 349.314 261.777C349.006 261.621 348.648 261.543 348.242 261.543C348.035 261.543 347.84 261.566 347.656 261.613C347.473 261.656 347.305 261.719 347.152 261.801C347.035 261.863 346.926 261.938 346.824 262.023C346.723 262.109 346.629 262.205 346.543 262.311L346.49 261.66H345.201V270.438ZM349.338 264.771V264.895C349.338 265.176 349.311 265.443 349.256 265.697C349.201 265.947 349.113 266.17 348.992 266.365C348.875 266.557 348.723 266.709 348.535 266.822C348.352 266.932 348.129 266.986 347.867 266.986C347.707 266.986 347.561 266.969 347.428 266.934C347.295 266.895 347.176 266.844 347.07 266.781C346.969 266.715 346.879 266.637 346.801 266.547C346.723 266.457 346.656 266.357 346.602 266.248V263.43C346.664 263.312 346.736 263.207 346.818 263.113C346.904 263.02 347.004 262.941 347.117 262.879C347.215 262.82 347.326 262.775 347.451 262.744C347.576 262.713 347.711 262.697 347.855 262.697C348.117 262.697 348.342 262.752 348.529 262.861C348.717 262.971 348.871 263.119 348.992 263.307C349.109 263.494 349.195 263.715 349.25 263.969C349.309 264.219 349.338 264.486 349.338 264.771ZM355.18 263.793L353.68 261.66H352.139L354.359 264.783L352.062 268H353.615L355.191 265.785L356.773 268H358.32L356.023 264.783L358.25 261.66H356.697L355.18 263.793ZM372.283 264.748V262.727C372.283 262.18 372.219 261.697 372.09 261.279C371.961 260.857 371.779 260.502 371.545 260.213C371.303 259.928 371.01 259.713 370.666 259.568C370.326 259.42 369.939 259.346 369.506 259.346C369.076 259.346 368.689 259.42 368.346 259.568C368.006 259.713 367.717 259.928 367.479 260.213C367.24 260.502 367.057 260.857 366.928 261.279C366.803 261.697 366.74 262.18 366.74 262.727V264.748C366.74 265.295 366.803 265.779 366.928 266.201C367.057 266.619 367.242 266.971 367.484 267.256C367.723 267.541 368.014 267.758 368.357 267.906C368.701 268.051 369.088 268.123 369.518 268.123C369.951 268.123 370.338 268.051 370.678 267.906C371.021 267.758 371.311 267.541 371.545 267.256C371.783 266.971 371.965 266.619 372.09 266.201C372.219 265.779 372.283 265.295 372.283 264.748ZM368.146 264.25C368.146 264.137 368.146 264.041 368.146 263.963C368.146 263.885 368.146 263.771 368.146 263.623V262.475C368.146 262.123 368.178 261.818 368.24 261.561C368.303 261.299 368.398 261.086 368.527 260.922C368.637 260.777 368.773 260.668 368.938 260.594C369.102 260.52 369.291 260.482 369.506 260.482C369.709 260.482 369.889 260.514 370.045 260.576C370.201 260.639 370.334 260.732 370.443 260.857C370.568 260.998 370.664 261.18 370.73 261.402C370.801 261.625 370.844 261.889 370.859 262.193L368.146 264.25ZM370.871 264.982C370.871 265.342 370.84 265.654 370.777 265.92C370.715 266.186 370.617 266.4 370.484 266.564C370.371 266.705 370.234 266.812 370.074 266.887C369.914 266.957 369.729 266.992 369.518 266.992C369.303 266.992 369.113 266.955 368.949 266.881C368.789 266.807 368.654 266.695 368.545 266.547C368.436 266.41 368.348 266.238 368.281 266.031C368.219 265.824 368.178 265.586 368.158 265.316L370.871 263.271C370.871 263.385 370.871 263.494 370.871 263.6C370.871 263.701 370.871 263.803 370.871 263.904V264.982ZM374.029 270.438H375.43V267.426C375.504 267.508 375.584 267.584 375.67 267.654C375.756 267.721 375.846 267.783 375.939 267.842C376.1 267.932 376.273 268 376.461 268.047C376.652 268.094 376.861 268.117 377.088 268.117C377.486 268.117 377.84 268.035 378.148 267.871C378.457 267.707 378.717 267.48 378.928 267.191C379.139 266.906 379.297 266.566 379.402 266.172C379.512 265.777 379.566 265.352 379.566 264.895V264.771C379.566 264.295 379.512 263.859 379.402 263.465C379.297 263.066 379.139 262.725 378.928 262.439C378.717 262.154 378.455 261.934 378.143 261.777C377.834 261.621 377.477 261.543 377.07 261.543C376.863 261.543 376.668 261.566 376.484 261.613C376.301 261.656 376.133 261.719 375.98 261.801C375.863 261.863 375.754 261.938 375.652 262.023C375.551 262.109 375.457 262.205 375.371 262.311L375.318 261.66H374.029V270.438ZM378.166 264.771V264.895C378.166 265.176 378.139 265.443 378.084 265.697C378.029 265.947 377.941 266.17 377.82 266.365C377.703 266.557 377.551 266.709 377.363 266.822C377.18 266.932 376.957 266.986 376.695 266.986C376.535 266.986 376.389 266.969 376.256 266.934C376.123 266.895 376.004 266.844 375.898 266.781C375.797 266.715 375.707 266.637 375.629 266.547C375.551 266.457 375.484 266.357 375.43 266.248V263.43C375.492 263.312 375.564 263.207 375.646 263.113C375.732 263.02 375.832 262.941 375.945 262.879C376.043 262.82 376.154 262.775 376.279 262.744C376.404 262.713 376.539 262.697 376.684 262.697C376.945 262.697 377.17 262.752 377.357 262.861C377.545 262.971 377.699 263.119 377.82 263.307C377.938 263.494 378.023 263.715 378.078 263.969C378.137 264.219 378.166 264.486 378.166 264.771ZM384.008 263.793L382.508 261.66H380.967L383.188 264.783L380.891 268H382.443L384.02 265.785L385.602 268H387.148L384.852 264.783L387.078 261.66H385.525L384.008 263.793ZM399.43 268V259.469H399.342L395.832 260.77V262.006L398.018 261.203V268H399.43ZM402.857 270.438H404.258V267.426C404.332 267.508 404.412 267.584 404.498 267.654C404.584 267.721 404.674 267.783 404.768 267.842C404.928 267.932 405.102 268 405.289 268.047C405.48 268.094 405.689 268.117 405.916 268.117C406.314 268.117 406.668 268.035 406.977 267.871C407.285 267.707 407.545 267.48 407.756 267.191C407.967 266.906 408.125 266.566 408.23 266.172C408.34 265.777 408.395 265.352 408.395 264.895V264.771C408.395 264.295 408.34 263.859 408.23 263.465C408.125 263.066 407.967 262.725 407.756 262.439C407.545 262.154 407.283 261.934 406.971 261.777C406.662 261.621 406.305 261.543 405.898 261.543C405.691 261.543 405.496 261.566 405.312 261.613C405.129 261.656 404.961 261.719 404.809 261.801C404.691 261.863 404.582 261.938 404.48 262.023C404.379 262.109 404.285 262.205 404.199 262.311L404.146 261.66H402.857V270.438ZM406.994 264.771V264.895C406.994 265.176 406.967 265.443 406.912 265.697C406.857 265.947 406.77 266.17 406.648 266.365C406.531 266.557 406.379 266.709 406.191 266.822C406.008 266.932 405.785 266.986 405.523 266.986C405.363 266.986 405.217 266.969 405.084 266.934C404.951 266.895 404.832 266.844 404.727 266.781C404.625 266.715 404.535 266.637 404.457 266.547C404.379 266.457 404.312 266.357 404.258 266.248V263.43C404.32 263.312 404.393 263.207 404.475 263.113C404.561 263.02 404.66 262.941 404.773 262.879C404.871 262.82 404.982 262.775 405.107 262.744C405.232 262.713 405.367 262.697 405.512 262.697C405.773 262.697 405.998 262.752 406.186 262.861C406.373 262.971 406.527 263.119 406.648 263.307C406.766 263.494 406.852 263.715 406.906 263.969C406.965 264.219 406.994 264.486 406.994 264.771ZM412.836 263.793L411.336 261.66H409.795L412.016 264.783L409.719 268H411.271L412.848 265.785L414.43 268H415.977L413.68 264.783L415.906 261.66H414.354L412.836 263.793Z" fill="#FF628C"/>
<defs>
<filter id="filter0_dd_1_121" x="43" y="69" width="100" height="100" filterUnits="userSpaceOnUse" color-interpolation-filters="sRGB">
<feFlood flood-opacity="0" result="BackgroundImageFix"/>
<feColorMatrix in="SourceAlpha" type="matrix" values="0 0 0 0 0 0 0 0 0 0 0 0 0 0 0 0 0 0 127 0" result="hardAlpha"/>
<feOffset dy="1"/>
<feGaussianBlur stdDeviation="1.5"/>
<feColorMatrix type="matrix" values="0 0 0 0 0 0 0 0 0 0 0 0 0 0 0 0 0 0 0.02 0"/>
<feBlend mode="normal" in2="BackgroundImageFix" result="effect1_dropShadow_1_121"/>
<feColorMatrix in="SourceAlpha" type="matrix" values="0 0 0 0 0 0 0 0 0 0 0 0 0 0 0 0 0 0 127 0" result="hardAlpha"/>
<feMorphology radius="1" operator="dilate" in="SourceAlpha" result="effect2_dropShadow_1_121"/>
<feOffset/>
<feColorMatrix type="matrix" values="0 0 0 0 0.105882 0 0 0 0 0.121569 0 0 0 0 0.137255 0 0 0 0.15 0"/>
<feBlend mode="normal" in2="effect1_dropShadow_1_121" result="effect2_dropShadow_1_121"/>
<feBlend mode="normal" in="SourceGraphic" in2="effect2_dropShadow_1_121" result="shape"/>
</filter>
</defs>
</svg>
