<svg width="537" height="309" viewBox="0 0 537 309" fill="none" xmlns="http://www.w3.org/2000/svg">
<rect x="0.5" y="0.5" width="536" height="308" rx="9.5" fill="#FAFAFA"/>
<rect x="0.5" y="0.5" width="536" height="308" rx="9.5" stroke="#DFDFDF"/>
<path d="M54.0625 45H56.7898L57.4972 40.6705H59.8835L60.3352 37.9432H57.9489L58.4943 34.6023H60.8807L61.3409 31.875H58.946L59.6534 27.5455H56.9261L56.2188 31.875H52.8097L53.517 27.5455H50.7898L50.0824 31.875H47.7045L47.2443 34.6023H49.6307L49.0852 37.9432H46.6989L46.2472 40.6705H48.6335L47.9261 45H50.6534L51.3608 40.6705H54.7699L54.0625 45ZM51.8125 37.9432L52.358 34.6023H55.767L55.2216 37.9432H51.8125ZM70.5945 27.5455H67.1257L62.8047 30.2812V33.554L66.8018 31.0483H66.9041V45H70.5945V27.5455ZM81.5866 45.3835C85.9759 45.3835 88.6264 42.0426 88.6349 36.2898C88.6435 30.5795 85.9588 27.3068 81.5866 27.3068C77.206 27.3068 74.5469 30.571 74.5384 36.2898C74.5213 42.0256 77.1889 45.375 81.5866 45.3835ZM81.5866 42.3239C79.5838 42.3239 78.2884 40.3125 78.2969 36.2898C78.3054 32.3267 79.5923 30.3324 81.5866 30.3324C83.5724 30.3324 84.8679 32.3267 84.8679 36.2898C84.8764 40.3125 83.581 42.3239 81.5866 42.3239Z" fill="black"/>
<rect x="46" y="205" width="434.824" height="24" fill="#011627"/>
<ellipse cx="60.8236" cy="216.294" rx="4.47059" ry="4.70588" fill="#FC605C"/>
<circle cx="73.765" cy="216.765" r="4.70588" fill="#FFBB2C"/>
<circle cx="86.7059" cy="217.471" r="4.47059" fill="#2FC63C"/>
<g filter="url(#filter0_d_1_137)">
<rect x="46" y="71" width="94" height="94" rx="5" fill="white"/>
</g>
<rect width="435" height="36" transform="translate(46 229)" fill="#011627"/>
<path d="M62.4805 248.895V248.771C62.4805 248.412 62.4473 248.072 62.3809 247.752C62.3184 247.432 62.2246 247.141 62.0996 246.879C62.0059 246.691 61.8965 246.52 61.7715 246.363C61.6504 246.203 61.5117 246.068 61.3555 245.959C61.1719 245.826 60.9648 245.725 60.7344 245.654C60.5078 245.58 60.2578 245.543 59.9844 245.543C59.7773 245.543 59.584 245.564 59.4043 245.607C59.2285 245.646 59.0664 245.707 58.918 245.789C58.8047 245.852 58.6992 245.924 58.6016 246.006C58.5039 246.088 58.4141 246.18 58.332 246.281V243H56.9316V252H58.1973L58.2617 251.309C58.332 251.395 58.4043 251.475 58.4785 251.549C58.5566 251.619 58.6387 251.686 58.7246 251.748C58.8926 251.869 59.082 251.961 59.293 252.023C59.5039 252.086 59.7383 252.117 59.9961 252.117C60.25 252.117 60.4844 252.084 60.6992 252.018C60.918 251.955 61.1152 251.865 61.291 251.748C61.5098 251.604 61.6973 251.422 61.8535 251.203C62.0098 250.984 62.1348 250.74 62.2285 250.471C62.3105 250.244 62.373 249.998 62.416 249.732C62.459 249.467 62.4805 249.188 62.4805 248.895ZM61.0801 248.771V248.895C61.0801 249.07 61.0703 249.24 61.0508 249.404C61.0312 249.568 61.002 249.721 60.9629 249.861C60.916 250.049 60.8477 250.219 60.7578 250.371C60.6719 250.52 60.5605 250.643 60.4238 250.74C60.3223 250.811 60.207 250.867 60.0781 250.91C59.9492 250.949 59.8047 250.969 59.6445 250.969C59.4688 250.969 59.3086 250.947 59.1641 250.904C59.0234 250.857 58.8984 250.795 58.7891 250.717C58.6914 250.643 58.6035 250.559 58.5254 250.465C58.4512 250.367 58.3867 250.26 58.332 250.143V247.518C58.3789 247.416 58.4336 247.322 58.4961 247.236C58.5625 247.146 58.6367 247.068 58.7188 247.002C58.832 246.904 58.9648 246.83 59.1172 246.779C59.2695 246.725 59.4414 246.697 59.6328 246.697C59.7891 246.697 59.9297 246.715 60.0547 246.75C60.1797 246.785 60.291 246.838 60.3887 246.908C60.5371 247.01 60.6543 247.135 60.7402 247.283C60.8301 247.428 60.9023 247.59 60.957 247.77C60.9961 247.918 61.0254 248.078 61.0449 248.25C61.0684 248.418 61.0801 248.592 61.0801 248.771ZM63.8574 248.771V248.895C63.8574 249.359 63.9238 249.787 64.0566 250.178C64.1895 250.568 64.3828 250.908 64.6367 251.197C64.8867 251.486 65.1953 251.713 65.5625 251.877C65.9297 252.041 66.3457 252.123 66.8105 252.123C67.2715 252.123 67.6836 252.041 68.0469 251.877C68.4141 251.713 68.7227 251.486 68.9727 251.197C69.2227 250.908 69.4141 250.568 69.5469 250.178C69.6797 249.787 69.7461 249.359 69.7461 248.895V248.771C69.7461 248.311 69.6797 247.885 69.5469 247.494C69.4141 247.1 69.2227 246.758 68.9727 246.469C68.7188 246.18 68.4082 245.953 68.041 245.789C67.6777 245.625 67.2637 245.543 66.7988 245.543C66.334 245.543 65.9199 245.625 65.5566 245.789C65.1934 245.953 64.8867 246.18 64.6367 246.469C64.3828 246.758 64.1895 247.1 64.0566 247.494C63.9238 247.885 63.8574 248.311 63.8574 248.771ZM65.2578 248.895V248.771C65.2578 248.494 65.2871 248.229 65.3457 247.975C65.4082 247.721 65.502 247.498 65.627 247.307C65.7559 247.115 65.916 246.963 66.1074 246.85C66.3027 246.736 66.5332 246.68 66.7988 246.68C67.0684 246.68 67.2988 246.736 67.4902 246.85C67.6855 246.963 67.8457 247.115 67.9707 247.307C68.0957 247.498 68.1895 247.721 68.252 247.975C68.3145 248.229 68.3457 248.494 68.3457 248.771V248.895C68.3457 249.18 68.3145 249.449 68.252 249.703C68.1934 249.957 68.1016 250.18 67.9766 250.371C67.8516 250.562 67.6914 250.715 67.4961 250.828C67.3008 250.938 67.0723 250.992 66.8105 250.992C66.541 250.992 66.3086 250.938 66.1133 250.828C65.918 250.715 65.7559 250.562 65.627 250.371C65.502 250.18 65.4082 249.957 65.3457 249.703C65.2871 249.449 65.2578 249.18 65.2578 248.895ZM74.1055 247.793L72.6055 245.66H71.0645L73.2852 248.783L70.9883 252H72.541L74.1172 249.785L75.6992 252H77.2461L74.9492 248.783L77.1758 245.66H75.623L74.1055 247.793ZM83.832 248.818V247.682H79.1152V248.818H83.832ZM89.8789 250.283C89.8789 250.385 89.8555 250.479 89.8086 250.564C89.7656 250.646 89.6992 250.723 89.6094 250.793C89.5 250.879 89.3535 250.947 89.1699 250.998C88.9902 251.049 88.7793 251.074 88.5371 251.074C88.3574 251.074 88.1797 251.057 88.0039 251.021C87.8281 250.982 87.6719 250.92 87.5352 250.834C87.3945 250.752 87.2773 250.645 87.1836 250.512C87.0938 250.375 87.043 250.209 87.0312 250.014H85.6719C85.6719 250.275 85.7344 250.533 85.8594 250.787C85.9844 251.041 86.168 251.266 86.4102 251.461C86.6484 251.66 86.9434 251.82 87.2949 251.941C87.6504 252.062 88.0566 252.123 88.5137 252.123C88.9238 252.123 89.2969 252.076 89.6328 251.982C89.9688 251.889 90.2578 251.758 90.5 251.59C90.7383 251.422 90.9219 251.221 91.0508 250.986C91.1836 250.752 91.25 250.494 91.25 250.213C91.25 249.924 91.1875 249.674 91.0625 249.463C90.9375 249.252 90.7617 249.068 90.5352 248.912C90.3086 248.764 90.0352 248.639 89.7148 248.537C89.3945 248.436 89.041 248.35 88.6543 248.279C88.377 248.232 88.1465 248.18 87.9629 248.121C87.7832 248.062 87.6426 247.998 87.541 247.928C87.4316 247.861 87.3555 247.785 87.3125 247.699C87.2695 247.609 87.248 247.51 87.248 247.4C87.248 247.295 87.2734 247.195 87.3242 247.102C87.375 247.004 87.4512 246.92 87.5527 246.85C87.6543 246.771 87.7832 246.711 87.9395 246.668C88.0996 246.621 88.2852 246.598 88.4961 246.598C88.7266 246.598 88.9277 246.629 89.0996 246.691C89.2715 246.75 89.4121 246.83 89.5215 246.932C89.6152 247.018 89.6855 247.115 89.7324 247.225C89.7832 247.33 89.8086 247.441 89.8086 247.559H91.209C91.209 247.273 91.1465 247.008 91.0215 246.762C90.8965 246.516 90.7188 246.303 90.4883 246.123C90.2539 245.943 89.9688 245.803 89.6328 245.701C89.2969 245.596 88.918 245.543 88.4961 245.543C88.1016 245.543 87.7422 245.594 87.418 245.695C87.0977 245.797 86.8242 245.936 86.5977 246.111C86.3672 246.287 86.1895 246.492 86.0645 246.727C85.9434 246.957 85.8828 247.201 85.8828 247.459C85.8828 247.729 85.9434 247.965 86.0645 248.168C86.1855 248.367 86.3535 248.543 86.5684 248.695C86.7871 248.852 87.0469 248.984 87.3477 249.094C87.6523 249.203 87.9883 249.295 88.3555 249.369C88.6484 249.424 88.8926 249.482 89.0879 249.545C89.2832 249.607 89.4414 249.674 89.5625 249.744C89.6758 249.822 89.7559 249.904 89.8027 249.99C89.8535 250.076 89.8789 250.174 89.8789 250.283ZM94.3438 246.562V243H92.9434V252H94.3438V247.412C94.4102 247.311 94.4863 247.219 94.5723 247.137C94.6621 247.055 94.7578 246.984 94.8594 246.926C94.9805 246.852 95.1133 246.795 95.2578 246.756C95.4062 246.717 95.5625 246.697 95.7266 246.697C95.9375 246.697 96.123 246.727 96.2832 246.785C96.4473 246.84 96.5859 246.926 96.6992 247.043C96.8086 247.152 96.8906 247.295 96.9453 247.471C97.0039 247.646 97.0332 247.852 97.0332 248.086V252H98.4336V248.098C98.4336 247.648 98.3789 247.264 98.2695 246.943C98.1641 246.619 98.0137 246.354 97.8184 246.146C97.623 245.939 97.3867 245.787 97.1094 245.689C96.8359 245.592 96.5332 245.543 96.2012 245.543C95.9629 245.543 95.7363 245.578 95.5215 245.648C95.3105 245.715 95.1172 245.812 94.9414 245.941C94.8281 246.02 94.7207 246.111 94.6191 246.217C94.5176 246.322 94.4258 246.438 94.3438 246.562ZM104.199 252H105.629V251.9C105.551 251.736 105.49 251.541 105.447 251.314C105.408 251.084 105.389 250.826 105.389 250.541V247.723C105.389 247.363 105.322 247.047 105.189 246.773C105.057 246.496 104.873 246.268 104.639 246.088C104.404 245.908 104.125 245.773 103.801 245.684C103.48 245.59 103.135 245.543 102.764 245.543C102.35 245.543 101.98 245.598 101.656 245.707C101.336 245.812 101.064 245.957 100.842 246.141C100.619 246.32 100.449 246.527 100.332 246.762C100.215 246.996 100.154 247.24 100.15 247.494H101.557C101.557 247.373 101.578 247.26 101.621 247.154C101.668 247.045 101.738 246.953 101.832 246.879C101.926 246.797 102.043 246.732 102.184 246.686C102.328 246.639 102.496 246.615 102.688 246.615C102.898 246.615 103.084 246.643 103.244 246.697C103.408 246.748 103.547 246.822 103.66 246.92C103.766 247.018 103.846 247.133 103.9 247.266C103.959 247.398 103.988 247.547 103.988 247.711V248.139H102.969C102.512 248.139 102.102 248.182 101.738 248.268C101.379 248.354 101.076 248.479 100.83 248.643C100.564 248.818 100.361 249.041 100.221 249.311C100.084 249.576 100.016 249.883 100.016 250.23C100.016 250.5 100.068 250.752 100.174 250.986C100.283 251.217 100.434 251.414 100.625 251.578C100.82 251.746 101.053 251.879 101.322 251.977C101.596 252.07 101.896 252.117 102.225 252.117C102.428 252.117 102.617 252.098 102.793 252.059C102.969 252.02 103.133 251.965 103.285 251.895C103.438 251.828 103.574 251.75 103.695 251.66C103.82 251.566 103.932 251.469 104.029 251.367C104.049 251.488 104.07 251.605 104.094 251.719C104.121 251.828 104.156 251.922 104.199 252ZM102.494 250.992C102.314 250.992 102.158 250.971 102.025 250.928C101.893 250.881 101.781 250.818 101.691 250.74C101.602 250.662 101.533 250.568 101.486 250.459C101.439 250.346 101.416 250.225 101.416 250.096C101.416 249.939 101.443 249.799 101.498 249.674C101.557 249.549 101.645 249.441 101.762 249.352C101.895 249.246 102.072 249.166 102.295 249.111C102.518 249.053 102.781 249.023 103.086 249.023H103.988V250.195C103.938 250.297 103.865 250.395 103.771 250.488C103.678 250.582 103.566 250.666 103.438 250.74C103.309 250.814 103.164 250.875 103.004 250.922C102.848 250.969 102.678 250.992 102.494 250.992ZM107.17 248.783V248.906C107.17 249.363 107.229 249.789 107.346 250.184C107.463 250.574 107.629 250.912 107.844 251.197C108.059 251.486 108.32 251.713 108.629 251.877C108.938 252.037 109.285 252.117 109.672 252.117C110.039 252.117 110.363 252.051 110.645 251.918C110.926 251.781 111.168 251.588 111.371 251.338L111.436 252H112.707V243H111.307V246.252C111.104 246.025 110.869 245.852 110.604 245.73C110.342 245.605 110.035 245.543 109.684 245.543C109.293 245.543 108.941 245.623 108.629 245.783C108.32 245.939 108.059 246.16 107.844 246.445C107.625 246.73 107.457 247.072 107.34 247.471C107.227 247.865 107.17 248.303 107.17 248.783ZM108.57 248.906V248.783C108.57 248.498 108.598 248.23 108.652 247.98C108.707 247.727 108.793 247.504 108.91 247.312C109.027 247.121 109.178 246.971 109.361 246.861C109.549 246.752 109.773 246.697 110.035 246.697C110.348 246.697 110.605 246.768 110.809 246.908C111.016 247.045 111.182 247.23 111.307 247.465V250.189C111.182 250.428 111.016 250.617 110.809 250.758C110.602 250.895 110.34 250.963 110.023 250.963C109.766 250.963 109.545 250.91 109.361 250.805C109.178 250.695 109.027 250.547 108.91 250.359C108.793 250.172 108.707 249.953 108.652 249.703C108.598 249.453 108.57 249.188 108.57 248.906ZM114.307 248.771V248.895C114.307 249.359 114.373 249.787 114.506 250.178C114.639 250.568 114.832 250.908 115.086 251.197C115.336 251.486 115.645 251.713 116.012 251.877C116.379 252.041 116.795 252.123 117.26 252.123C117.721 252.123 118.133 252.041 118.496 251.877C118.863 251.713 119.172 251.486 119.422 251.197C119.672 250.908 119.863 250.568 119.996 250.178C120.129 249.787 120.195 249.359 120.195 248.895V248.771C120.195 248.311 120.129 247.885 119.996 247.494C119.863 247.1 119.672 246.758 119.422 246.469C119.168 246.18 118.857 245.953 118.49 245.789C118.127 245.625 117.713 245.543 117.248 245.543C116.783 245.543 116.369 245.625 116.006 245.789C115.643 245.953 115.336 246.18 115.086 246.469C114.832 246.758 114.639 247.1 114.506 247.494C114.373 247.885 114.307 248.311 114.307 248.771ZM115.707 248.895V248.771C115.707 248.494 115.736 248.229 115.795 247.975C115.857 247.721 115.951 247.498 116.076 247.307C116.205 247.115 116.365 246.963 116.557 246.85C116.752 246.736 116.982 246.68 117.248 246.68C117.518 246.68 117.748 246.736 117.939 246.85C118.135 246.963 118.295 247.115 118.42 247.307C118.545 247.498 118.639 247.721 118.701 247.975C118.764 248.229 118.795 248.494 118.795 248.771V248.895C118.795 249.18 118.764 249.449 118.701 249.703C118.643 249.957 118.551 250.18 118.426 250.371C118.301 250.562 118.141 250.715 117.945 250.828C117.75 250.938 117.521 250.992 117.26 250.992C116.99 250.992 116.758 250.938 116.562 250.828C116.367 250.715 116.205 250.562 116.076 250.371C115.951 250.18 115.857 249.957 115.795 249.703C115.736 249.449 115.707 249.18 115.707 248.895ZM122.299 252H123.488L124.291 248.402L124.432 247.617L124.578 248.402L125.398 252H126.588L127.812 245.66H126.541L125.973 249.527L125.861 250.301L125.727 249.533L124.9 245.66H123.98L123.154 249.545L123.025 250.277L122.926 249.545L122.34 245.66H121.074L122.299 252Z" fill="#F78C6C"/>
<path d="M130.895 251.156C130.895 251.426 130.982 251.654 131.158 251.842C131.338 252.025 131.588 252.117 131.908 252.117C132.225 252.117 132.473 252.025 132.652 251.842C132.836 251.658 132.928 251.43 132.928 251.156C132.928 250.883 132.838 250.652 132.658 250.465C132.479 250.273 132.229 250.178 131.908 250.178C131.584 250.178 131.334 250.273 131.158 250.465C130.982 250.656 130.895 250.887 130.895 251.156ZM130.895 246.193C130.895 246.463 130.982 246.691 131.158 246.879C131.338 247.062 131.588 247.154 131.908 247.154C132.225 247.154 132.473 247.062 132.652 246.879C132.836 246.695 132.928 246.467 132.928 246.193C132.928 245.92 132.838 245.689 132.658 245.502C132.479 245.311 132.229 245.215 131.908 245.215C131.584 245.215 131.334 245.311 131.158 245.502C130.982 245.693 130.895 245.924 130.895 246.193ZM173.363 248.531V248.631C173.363 249.189 173.406 249.713 173.492 250.201C173.578 250.686 173.693 251.135 173.838 251.549C173.982 251.967 174.15 252.346 174.342 252.686C174.537 253.029 174.742 253.334 174.957 253.6C175.172 253.865 175.391 254.09 175.613 254.273C175.836 254.461 176.051 254.605 176.258 254.707L176.539 253.922C176.383 253.801 176.227 253.65 176.07 253.471C175.914 253.291 175.764 253.084 175.619 252.85C175.479 252.619 175.348 252.354 175.227 252.053C175.105 251.752 174.998 251.426 174.904 251.074C174.83 250.781 174.766 250.426 174.711 250.008C174.656 249.586 174.629 249.131 174.629 248.643V248.52C174.629 248.02 174.656 247.555 174.711 247.125C174.77 246.695 174.848 246.303 174.945 245.947C175.051 245.568 175.176 245.219 175.32 244.898C175.469 244.578 175.627 244.299 175.795 244.061C175.916 243.893 176.039 243.742 176.164 243.609C176.289 243.477 176.414 243.363 176.539 243.27L176.258 242.455C176.051 242.557 175.836 242.701 175.613 242.889C175.391 243.072 175.174 243.297 174.963 243.562C174.748 243.828 174.543 244.133 174.348 244.477C174.156 244.82 173.986 245.197 173.838 245.607C173.693 246.025 173.578 246.48 173.492 246.973C173.406 247.461 173.363 247.98 173.363 248.531ZM189.723 251.818V250.635H188.346V251.871C188.346 252.258 188.299 252.605 188.205 252.914C188.115 253.223 187.986 253.516 187.818 253.793L188.604 254.209C188.939 253.908 189.209 253.539 189.412 253.102C189.619 252.668 189.723 252.24 189.723 251.818ZM211.344 251.818V250.635H209.967V251.871C209.967 252.258 209.92 252.605 209.826 252.914C209.736 253.223 209.607 253.516 209.439 253.793L210.225 254.209C210.561 253.908 210.83 253.539 211.033 253.102C211.24 252.668 211.344 252.24 211.344 251.818ZM232.965 251.818V250.635H231.588V251.871C231.588 252.258 231.541 252.605 231.447 252.914C231.357 253.223 231.229 253.516 231.061 253.793L231.846 254.209C232.182 253.908 232.451 253.539 232.654 253.102C232.861 252.668 232.965 252.24 232.965 251.818ZM270.09 248.631V248.531C270.09 247.973 270.045 247.455 269.955 246.979C269.865 246.498 269.748 246.051 269.604 245.637C269.459 245.219 269.289 244.84 269.094 244.5C268.898 244.156 268.689 243.848 268.467 243.574C268.252 243.309 268.029 243.082 267.799 242.895C267.572 242.703 267.354 242.557 267.143 242.455L266.867 243.24C266.988 243.334 267.111 243.451 267.236 243.592C267.365 243.729 267.488 243.885 267.605 244.061C267.773 244.307 267.934 244.598 268.086 244.934C268.242 245.27 268.375 245.648 268.484 246.07C268.566 246.395 268.635 246.762 268.689 247.172C268.744 247.582 268.771 248.031 268.771 248.52V248.643C268.771 249.115 268.746 249.555 268.695 249.961C268.648 250.367 268.582 250.742 268.496 251.086C268.406 251.457 268.295 251.795 268.162 252.1C268.033 252.408 267.895 252.684 267.746 252.926C267.605 253.145 267.461 253.338 267.312 253.506C267.164 253.674 267.016 253.812 266.867 253.922L267.143 254.707C267.354 254.605 267.572 254.461 267.799 254.273C268.025 254.086 268.248 253.855 268.467 253.582C268.686 253.316 268.893 253.012 269.088 252.668C269.283 252.324 269.455 251.943 269.604 251.525C269.752 251.111 269.869 250.662 269.955 250.178C270.045 249.693 270.09 249.178 270.09 248.631ZM368.838 246.193C368.838 246.463 368.926 246.691 369.102 246.879C369.281 247.062 369.531 247.154 369.852 247.154C370.168 247.154 370.416 247.062 370.596 246.879C370.779 246.695 370.871 246.467 370.871 246.193C370.871 245.92 370.781 245.689 370.602 245.502C370.422 245.311 370.172 245.215 369.852 245.215C369.527 245.215 369.277 245.311 369.102 245.502C368.926 245.693 368.838 245.924 368.838 246.193ZM370.484 251.818V250.635H369.107V251.871C369.107 252.258 369.061 252.605 368.967 252.914C368.877 253.223 368.748 253.516 368.58 253.793L369.365 254.209C369.701 253.908 369.971 253.539 370.174 253.102C370.381 252.668 370.484 252.24 370.484 251.818Z" fill="white"/>
<path d="M147.775 245.543C147.338 245.543 146.938 245.645 146.574 245.848C146.215 246.051 145.906 246.33 145.648 246.686L145.643 246.539L145.584 245.66H144.271V252H145.672V248.086C145.746 247.898 145.838 247.732 145.947 247.588C146.057 247.443 146.189 247.324 146.346 247.23C146.49 247.133 146.656 247.061 146.844 247.014C147.031 246.967 147.242 246.943 147.477 246.943C147.684 246.943 147.891 246.955 148.098 246.979C148.309 247.002 148.521 247.037 148.736 247.084L148.936 245.701C148.814 245.658 148.646 245.621 148.432 245.59C148.221 245.559 148.002 245.543 147.775 245.543ZM150.418 248.783V248.906C150.418 249.363 150.477 249.789 150.594 250.184C150.715 250.574 150.887 250.912 151.109 251.197C151.328 251.486 151.594 251.713 151.906 251.877C152.219 252.037 152.57 252.117 152.961 252.117C153.176 252.117 153.375 252.094 153.559 252.047C153.742 252.004 153.91 251.939 154.062 251.854C154.164 251.799 154.258 251.734 154.344 251.66C154.434 251.586 154.52 251.506 154.602 251.42V251.859C154.602 252.098 154.566 252.311 154.496 252.498C154.43 252.686 154.334 252.844 154.209 252.973C154.072 253.105 153.906 253.207 153.711 253.277C153.52 253.348 153.299 253.383 153.049 253.383C152.904 253.383 152.762 253.367 152.621 253.336C152.48 253.309 152.342 253.264 152.205 253.201C152.068 253.139 151.934 253.057 151.801 252.955C151.672 252.857 151.551 252.74 151.438 252.604L150.775 253.453C150.916 253.641 151.084 253.801 151.279 253.934C151.475 254.066 151.68 254.174 151.895 254.256C152.109 254.338 152.324 254.398 152.539 254.438C152.754 254.477 152.951 254.496 153.131 254.496C153.557 254.496 153.945 254.436 154.297 254.314C154.652 254.197 154.957 254.025 155.211 253.799C155.461 253.568 155.654 253.287 155.791 252.955C155.932 252.627 156.002 252.25 156.002 251.824V245.66H154.73L154.672 246.299C154.594 246.205 154.51 246.119 154.42 246.041C154.33 245.959 154.234 245.889 154.133 245.83C153.977 245.736 153.803 245.666 153.611 245.619C153.42 245.568 153.207 245.543 152.973 245.543C152.578 245.543 152.223 245.623 151.906 245.783C151.594 245.939 151.326 246.16 151.104 246.445C150.885 246.73 150.715 247.072 150.594 247.471C150.477 247.865 150.418 248.303 150.418 248.783ZM151.824 248.906V248.783C151.824 248.498 151.854 248.23 151.912 247.98C151.971 247.727 152.062 247.504 152.188 247.312C152.309 247.121 152.463 246.971 152.65 246.861C152.838 246.752 153.062 246.697 153.324 246.697C153.473 246.697 153.609 246.715 153.734 246.75C153.859 246.781 153.973 246.826 154.074 246.885C154.188 246.947 154.287 247.025 154.373 247.119C154.463 247.213 154.539 247.318 154.602 247.436V250.213C154.539 250.326 154.467 250.43 154.385 250.523C154.303 250.617 154.209 250.697 154.104 250.764C153.998 250.826 153.879 250.875 153.746 250.91C153.617 250.945 153.473 250.963 153.312 250.963C153.055 250.963 152.832 250.91 152.645 250.805C152.457 250.695 152.303 250.545 152.182 250.354C152.057 250.17 151.965 249.953 151.906 249.703C151.852 249.453 151.824 249.188 151.824 248.906ZM163.379 248.895V248.771C163.379 248.412 163.346 248.072 163.279 247.752C163.217 247.432 163.123 247.141 162.998 246.879C162.904 246.691 162.795 246.52 162.67 246.363C162.549 246.203 162.41 246.068 162.254 245.959C162.07 245.826 161.863 245.725 161.633 245.654C161.406 245.58 161.156 245.543 160.883 245.543C160.676 245.543 160.482 245.564 160.303 245.607C160.127 245.646 159.965 245.707 159.816 245.789C159.703 245.852 159.598 245.924 159.5 246.006C159.402 246.088 159.312 246.18 159.23 246.281V243H157.83V252H159.096L159.16 251.309C159.23 251.395 159.303 251.475 159.377 251.549C159.455 251.619 159.537 251.686 159.623 251.748C159.791 251.869 159.98 251.961 160.191 252.023C160.402 252.086 160.637 252.117 160.895 252.117C161.148 252.117 161.383 252.084 161.598 252.018C161.816 251.955 162.014 251.865 162.189 251.748C162.408 251.604 162.596 251.422 162.752 251.203C162.908 250.984 163.033 250.74 163.127 250.471C163.209 250.244 163.271 249.998 163.314 249.732C163.357 249.467 163.379 249.188 163.379 248.895ZM161.979 248.771V248.895C161.979 249.07 161.969 249.24 161.949 249.404C161.93 249.568 161.9 249.721 161.861 249.861C161.814 250.049 161.746 250.219 161.656 250.371C161.57 250.52 161.459 250.643 161.322 250.74C161.221 250.811 161.105 250.867 160.977 250.91C160.848 250.949 160.703 250.969 160.543 250.969C160.367 250.969 160.207 250.947 160.062 250.904C159.922 250.857 159.797 250.795 159.688 250.717C159.59 250.643 159.502 250.559 159.424 250.465C159.35 250.367 159.285 250.26 159.23 250.143V247.518C159.277 247.416 159.332 247.322 159.395 247.236C159.461 247.146 159.535 247.068 159.617 247.002C159.73 246.904 159.863 246.83 160.016 246.779C160.168 246.725 160.34 246.697 160.531 246.697C160.688 246.697 160.828 246.715 160.953 246.75C161.078 246.785 161.189 246.838 161.287 246.908C161.436 247.01 161.553 247.135 161.639 247.283C161.729 247.428 161.801 247.59 161.855 247.77C161.895 247.918 161.924 248.078 161.943 248.25C161.967 248.418 161.979 248.592 161.979 248.771ZM169.062 252H170.492V251.9C170.414 251.736 170.354 251.541 170.311 251.314C170.271 251.084 170.252 250.826 170.252 250.541V247.723C170.252 247.363 170.186 247.047 170.053 246.773C169.92 246.496 169.736 246.268 169.502 246.088C169.268 245.908 168.988 245.773 168.664 245.684C168.344 245.59 167.998 245.543 167.627 245.543C167.213 245.543 166.844 245.598 166.52 245.707C166.199 245.812 165.928 245.957 165.705 246.141C165.482 246.32 165.312 246.527 165.195 246.762C165.078 246.996 165.018 247.24 165.014 247.494H166.42C166.42 247.373 166.441 247.26 166.484 247.154C166.531 247.045 166.602 246.953 166.695 246.879C166.789 246.797 166.906 246.732 167.047 246.686C167.191 246.639 167.359 246.615 167.551 246.615C167.762 246.615 167.947 246.643 168.107 246.697C168.271 246.748 168.41 246.822 168.523 246.92C168.629 247.018 168.709 247.133 168.764 247.266C168.822 247.398 168.852 247.547 168.852 247.711V248.139H167.832C167.375 248.139 166.965 248.182 166.602 248.268C166.242 248.354 165.939 248.479 165.693 248.643C165.428 248.818 165.225 249.041 165.084 249.311C164.947 249.576 164.879 249.883 164.879 250.23C164.879 250.5 164.932 250.752 165.037 250.986C165.146 251.217 165.297 251.414 165.488 251.578C165.684 251.746 165.916 251.879 166.186 251.977C166.459 252.07 166.76 252.117 167.088 252.117C167.291 252.117 167.48 252.098 167.656 252.059C167.832 252.02 167.996 251.965 168.148 251.895C168.301 251.828 168.438 251.75 168.559 251.66C168.684 251.566 168.795 251.469 168.893 251.367C168.912 251.488 168.934 251.605 168.957 251.719C168.984 251.828 169.02 251.922 169.062 252ZM167.357 250.992C167.178 250.992 167.021 250.971 166.889 250.928C166.756 250.881 166.645 250.818 166.555 250.74C166.465 250.662 166.396 250.568 166.35 250.459C166.303 250.346 166.279 250.225 166.279 250.096C166.279 249.939 166.307 249.799 166.361 249.674C166.42 249.549 166.508 249.441 166.625 249.352C166.758 249.246 166.936 249.166 167.158 249.111C167.381 249.053 167.645 249.023 167.949 249.023H168.852V250.195C168.801 250.297 168.729 250.395 168.635 250.488C168.541 250.582 168.43 250.666 168.301 250.74C168.172 250.814 168.027 250.875 167.867 250.922C167.711 250.969 167.541 250.992 167.357 250.992Z" fill="#7DD8C7"/>
<path d="M184.9 248.748V246.727C184.9 246.18 184.836 245.697 184.707 245.279C184.578 244.857 184.396 244.502 184.162 244.213C183.92 243.928 183.627 243.713 183.283 243.568C182.943 243.42 182.557 243.346 182.123 243.346C181.693 243.346 181.307 243.42 180.963 243.568C180.623 243.713 180.334 243.928 180.096 244.213C179.857 244.502 179.674 244.857 179.545 245.279C179.42 245.697 179.357 246.18 179.357 246.727V248.748C179.357 249.295 179.42 249.779 179.545 250.201C179.674 250.619 179.859 250.971 180.102 251.256C180.34 251.541 180.631 251.758 180.975 251.906C181.318 252.051 181.705 252.123 182.135 252.123C182.568 252.123 182.955 252.051 183.295 251.906C183.639 251.758 183.928 251.541 184.162 251.256C184.4 250.971 184.582 250.619 184.707 250.201C184.836 249.779 184.9 249.295 184.9 248.748ZM180.764 248.25C180.764 248.137 180.764 248.041 180.764 247.963C180.764 247.885 180.764 247.771 180.764 247.623V246.475C180.764 246.123 180.795 245.818 180.857 245.561C180.92 245.299 181.016 245.086 181.145 244.922C181.254 244.777 181.391 244.668 181.555 244.594C181.719 244.52 181.908 244.482 182.123 244.482C182.326 244.482 182.506 244.514 182.662 244.576C182.818 244.639 182.951 244.732 183.061 244.857C183.186 244.998 183.281 245.18 183.348 245.402C183.418 245.625 183.461 245.889 183.477 246.193L180.764 248.25ZM183.488 248.982C183.488 249.342 183.457 249.654 183.395 249.92C183.332 250.186 183.234 250.4 183.102 250.564C182.988 250.705 182.852 250.812 182.691 250.887C182.531 250.957 182.346 250.992 182.135 250.992C181.92 250.992 181.73 250.955 181.566 250.881C181.406 250.807 181.271 250.695 181.162 250.547C181.053 250.41 180.965 250.238 180.898 250.031C180.836 249.824 180.795 249.586 180.775 249.316L183.488 247.271C183.488 247.385 183.488 247.494 183.488 247.6C183.488 247.701 183.488 247.803 183.488 247.904V248.982ZM206.521 248.748V246.727C206.521 246.18 206.457 245.697 206.328 245.279C206.199 244.857 206.018 244.502 205.783 244.213C205.541 243.928 205.248 243.713 204.904 243.568C204.564 243.42 204.178 243.346 203.744 243.346C203.314 243.346 202.928 243.42 202.584 243.568C202.244 243.713 201.955 243.928 201.717 244.213C201.479 244.502 201.295 244.857 201.166 245.279C201.041 245.697 200.979 246.18 200.979 246.727V248.748C200.979 249.295 201.041 249.779 201.166 250.201C201.295 250.619 201.48 250.971 201.723 251.256C201.961 251.541 202.252 251.758 202.596 251.906C202.939 252.051 203.326 252.123 203.756 252.123C204.189 252.123 204.576 252.051 204.916 251.906C205.26 251.758 205.549 251.541 205.783 251.256C206.021 250.971 206.203 250.619 206.328 250.201C206.457 249.779 206.521 249.295 206.521 248.748ZM202.385 248.25C202.385 248.137 202.385 248.041 202.385 247.963C202.385 247.885 202.385 247.771 202.385 247.623V246.475C202.385 246.123 202.416 245.818 202.479 245.561C202.541 245.299 202.637 245.086 202.766 244.922C202.875 244.777 203.012 244.668 203.176 244.594C203.34 244.52 203.529 244.482 203.744 244.482C203.947 244.482 204.127 244.514 204.283 244.576C204.439 244.639 204.572 244.732 204.682 244.857C204.807 244.998 204.902 245.18 204.969 245.402C205.039 245.625 205.082 245.889 205.098 246.193L202.385 248.25ZM205.109 248.982C205.109 249.342 205.078 249.654 205.016 249.92C204.953 250.186 204.855 250.4 204.723 250.564C204.609 250.705 204.473 250.812 204.312 250.887C204.152 250.957 203.967 250.992 203.756 250.992C203.541 250.992 203.352 250.955 203.188 250.881C203.027 250.807 202.893 250.695 202.783 250.547C202.674 250.41 202.586 250.238 202.52 250.031C202.457 249.824 202.416 249.586 202.396 249.316L205.109 247.271C205.109 247.385 205.109 247.494 205.109 247.6C205.109 247.701 205.109 247.803 205.109 247.904V248.982ZM228.143 248.748V246.727C228.143 246.18 228.078 245.697 227.949 245.279C227.82 244.857 227.639 244.502 227.404 244.213C227.162 243.928 226.869 243.713 226.525 243.568C226.186 243.42 225.799 243.346 225.365 243.346C224.936 243.346 224.549 243.42 224.205 243.568C223.865 243.713 223.576 243.928 223.338 244.213C223.1 244.502 222.916 244.857 222.787 245.279C222.662 245.697 222.6 246.18 222.6 246.727V248.748C222.6 249.295 222.662 249.779 222.787 250.201C222.916 250.619 223.102 250.971 223.344 251.256C223.582 251.541 223.873 251.758 224.217 251.906C224.561 252.051 224.947 252.123 225.377 252.123C225.811 252.123 226.197 252.051 226.537 251.906C226.881 251.758 227.17 251.541 227.404 251.256C227.643 250.971 227.824 250.619 227.949 250.201C228.078 249.779 228.143 249.295 228.143 248.748ZM224.006 248.25C224.006 248.137 224.006 248.041 224.006 247.963C224.006 247.885 224.006 247.771 224.006 247.623V246.475C224.006 246.123 224.037 245.818 224.1 245.561C224.162 245.299 224.258 245.086 224.387 244.922C224.496 244.777 224.633 244.668 224.797 244.594C224.961 244.52 225.15 244.482 225.365 244.482C225.568 244.482 225.748 244.514 225.904 244.576C226.061 244.639 226.193 244.732 226.303 244.857C226.428 244.998 226.523 245.18 226.59 245.402C226.66 245.625 226.703 245.889 226.719 246.193L224.006 248.25ZM226.73 248.982C226.73 249.342 226.699 249.654 226.637 249.92C226.574 250.186 226.477 250.4 226.344 250.564C226.23 250.705 226.094 250.812 225.934 250.887C225.773 250.957 225.588 250.992 225.377 250.992C225.162 250.992 224.973 250.955 224.809 250.881C224.648 250.807 224.514 250.695 224.404 250.547C224.295 250.41 224.207 250.238 224.141 250.031C224.078 249.824 224.037 249.586 224.018 249.316L226.73 247.271C226.73 247.385 226.73 247.494 226.73 247.6C226.73 247.701 226.73 247.803 226.73 247.904V248.982ZM249.764 248.748V246.727C249.764 246.18 249.699 245.697 249.57 245.279C249.441 244.857 249.26 244.502 249.025 244.213C248.783 243.928 248.49 243.713 248.146 243.568C247.807 243.42 247.42 243.346 246.986 243.346C246.557 243.346 246.17 243.42 245.826 243.568C245.486 243.713 245.197 243.928 244.959 244.213C244.721 244.502 244.537 244.857 244.408 245.279C244.283 245.697 244.221 246.18 244.221 246.727V248.748C244.221 249.295 244.283 249.779 244.408 250.201C244.537 250.619 244.723 250.971 244.965 251.256C245.203 251.541 245.494 251.758 245.838 251.906C246.182 252.051 246.568 252.123 246.998 252.123C247.432 252.123 247.818 252.051 248.158 251.906C248.502 251.758 248.791 251.541 249.025 251.256C249.264 250.971 249.445 250.619 249.57 250.201C249.699 249.779 249.764 249.295 249.764 248.748ZM245.627 248.25C245.627 248.137 245.627 248.041 245.627 247.963C245.627 247.885 245.627 247.771 245.627 247.623V246.475C245.627 246.123 245.658 245.818 245.721 245.561C245.783 245.299 245.879 245.086 246.008 244.922C246.117 244.777 246.254 244.668 246.418 244.594C246.582 244.52 246.771 244.482 246.986 244.482C247.189 244.482 247.369 244.514 247.525 244.576C247.682 244.639 247.814 244.732 247.924 244.857C248.049 244.998 248.145 245.18 248.211 245.402C248.281 245.625 248.324 245.889 248.34 246.193L245.627 248.25ZM248.352 248.982C248.352 249.342 248.32 249.654 248.258 249.92C248.195 250.186 248.098 250.4 247.965 250.564C247.852 250.705 247.715 250.812 247.555 250.887C247.395 250.957 247.209 250.992 246.998 250.992C246.783 250.992 246.594 250.955 246.43 250.881C246.27 250.807 246.135 250.695 246.025 250.547C245.916 250.41 245.828 250.238 245.762 250.031C245.699 249.824 245.658 249.586 245.639 249.316L248.352 247.271C248.352 247.385 248.352 247.494 248.352 247.6C248.352 247.701 248.352 247.803 248.352 247.904V248.982ZM253.244 251.156C253.244 251.426 253.332 251.654 253.508 251.842C253.688 252.025 253.938 252.117 254.258 252.117C254.574 252.117 254.822 252.025 255.002 251.842C255.186 251.658 255.277 251.43 255.277 251.156C255.277 250.883 255.188 250.652 255.008 250.465C254.828 250.273 254.578 250.178 254.258 250.178C253.934 250.178 253.684 250.273 253.508 250.465C253.332 250.656 253.244 250.887 253.244 251.156ZM262.496 252V243.469H262.408L258.898 244.77V246.006L261.084 245.203V252H262.496ZM285.799 248.748V246.727C285.799 246.18 285.734 245.697 285.605 245.279C285.477 244.857 285.295 244.502 285.061 244.213C284.818 243.928 284.525 243.713 284.182 243.568C283.842 243.42 283.455 243.346 283.021 243.346C282.592 243.346 282.205 243.42 281.861 243.568C281.521 243.713 281.232 243.928 280.994 244.213C280.756 244.502 280.572 244.857 280.443 245.279C280.318 245.697 280.256 246.18 280.256 246.727V248.748C280.256 249.295 280.318 249.779 280.443 250.201C280.572 250.619 280.758 250.971 281 251.256C281.238 251.541 281.529 251.758 281.873 251.906C282.217 252.051 282.604 252.123 283.033 252.123C283.467 252.123 283.854 252.051 284.193 251.906C284.537 251.758 284.826 251.541 285.061 251.256C285.299 250.971 285.48 250.619 285.605 250.201C285.734 249.779 285.799 249.295 285.799 248.748ZM281.662 248.25C281.662 248.137 281.662 248.041 281.662 247.963C281.662 247.885 281.662 247.771 281.662 247.623V246.475C281.662 246.123 281.693 245.818 281.756 245.561C281.818 245.299 281.914 245.086 282.043 244.922C282.152 244.777 282.289 244.668 282.453 244.594C282.617 244.52 282.807 244.482 283.021 244.482C283.225 244.482 283.404 244.514 283.561 244.576C283.717 244.639 283.85 244.732 283.959 244.857C284.084 244.998 284.18 245.18 284.246 245.402C284.316 245.625 284.359 245.889 284.375 246.193L281.662 248.25ZM284.387 248.982C284.387 249.342 284.355 249.654 284.293 249.92C284.23 250.186 284.133 250.4 284 250.564C283.887 250.705 283.75 250.812 283.59 250.887C283.43 250.957 283.244 250.992 283.033 250.992C282.818 250.992 282.629 250.955 282.465 250.881C282.305 250.807 282.17 250.695 282.061 250.547C281.951 250.41 281.863 250.238 281.797 250.031C281.734 249.824 281.693 249.586 281.674 249.316L284.387 247.271C284.387 247.385 284.387 247.494 284.387 247.6C284.387 247.701 284.387 247.803 284.387 247.904V248.982ZM287.545 254.438H288.945V251.426C289.02 251.508 289.1 251.584 289.186 251.654C289.271 251.721 289.361 251.783 289.455 251.842C289.615 251.932 289.789 252 289.977 252.047C290.168 252.094 290.377 252.117 290.604 252.117C291.002 252.117 291.355 252.035 291.664 251.871C291.973 251.707 292.232 251.48 292.443 251.191C292.654 250.906 292.812 250.566 292.918 250.172C293.027 249.777 293.082 249.352 293.082 248.895V248.771C293.082 248.295 293.027 247.859 292.918 247.465C292.812 247.066 292.654 246.725 292.443 246.439C292.232 246.154 291.971 245.934 291.658 245.777C291.35 245.621 290.992 245.543 290.586 245.543C290.379 245.543 290.184 245.566 290 245.613C289.816 245.656 289.648 245.719 289.496 245.801C289.379 245.863 289.27 245.938 289.168 246.023C289.066 246.109 288.973 246.205 288.887 246.311L288.834 245.66H287.545V254.438ZM291.682 248.771V248.895C291.682 249.176 291.654 249.443 291.6 249.697C291.545 249.947 291.457 250.17 291.336 250.365C291.219 250.557 291.066 250.709 290.879 250.822C290.695 250.932 290.473 250.986 290.211 250.986C290.051 250.986 289.904 250.969 289.771 250.934C289.639 250.895 289.52 250.844 289.414 250.781C289.312 250.715 289.223 250.637 289.145 250.547C289.066 250.457 289 250.357 288.945 250.248V247.43C289.008 247.312 289.08 247.207 289.162 247.113C289.248 247.02 289.348 246.941 289.461 246.879C289.559 246.82 289.67 246.775 289.795 246.744C289.92 246.713 290.055 246.697 290.199 246.697C290.461 246.697 290.686 246.752 290.873 246.861C291.061 246.971 291.215 247.119 291.336 247.307C291.453 247.494 291.539 247.715 291.594 247.969C291.652 248.219 291.682 248.486 291.682 248.771ZM297.523 247.793L296.023 245.66H294.482L296.703 248.783L294.406 252H295.959L297.535 249.785L299.117 252H300.664L298.367 248.783L300.594 245.66H299.041L297.523 247.793ZM313.76 248.959V243.469H312.318L308.633 249.234L308.668 250.096H312.359V252H313.76V250.096H314.832V248.959H313.76ZM310.062 248.959L312.195 245.648L312.359 245.344V248.959H310.062ZM316.373 254.438H317.773V251.426C317.848 251.508 317.928 251.584 318.014 251.654C318.1 251.721 318.189 251.783 318.283 251.842C318.443 251.932 318.617 252 318.805 252.047C318.996 252.094 319.205 252.117 319.432 252.117C319.83 252.117 320.184 252.035 320.492 251.871C320.801 251.707 321.061 251.48 321.271 251.191C321.482 250.906 321.641 250.566 321.746 250.172C321.855 249.777 321.91 249.352 321.91 248.895V248.771C321.91 248.295 321.855 247.859 321.746 247.465C321.641 247.066 321.482 246.725 321.271 246.439C321.061 246.154 320.799 245.934 320.486 245.777C320.178 245.621 319.82 245.543 319.414 245.543C319.207 245.543 319.012 245.566 318.828 245.613C318.645 245.656 318.477 245.719 318.324 245.801C318.207 245.863 318.098 245.938 317.996 246.023C317.895 246.109 317.801 246.205 317.715 246.311L317.662 245.66H316.373V254.438ZM320.51 248.771V248.895C320.51 249.176 320.482 249.443 320.428 249.697C320.373 249.947 320.285 250.17 320.164 250.365C320.047 250.557 319.895 250.709 319.707 250.822C319.523 250.932 319.301 250.986 319.039 250.986C318.879 250.986 318.732 250.969 318.6 250.934C318.467 250.895 318.348 250.844 318.242 250.781C318.141 250.715 318.051 250.637 317.973 250.547C317.895 250.457 317.828 250.357 317.773 250.248V247.43C317.836 247.312 317.908 247.207 317.99 247.113C318.076 247.02 318.176 246.941 318.289 246.879C318.387 246.82 318.498 246.775 318.623 246.744C318.748 246.713 318.883 246.697 319.027 246.697C319.289 246.697 319.514 246.752 319.701 246.861C319.889 246.971 320.043 247.119 320.164 247.307C320.281 247.494 320.367 247.715 320.422 247.969C320.48 248.219 320.51 248.486 320.51 248.771ZM326.352 247.793L324.852 245.66H323.311L325.531 248.783L323.234 252H324.787L326.363 249.785L327.945 252H329.492L327.195 248.783L329.422 245.66H327.869L326.352 247.793ZM341.773 252V243.469H341.686L338.176 244.77V246.006L340.361 245.203V252H341.773ZM350.621 252V250.869H346.648L348.547 248.842C348.797 248.576 349.027 248.318 349.238 248.068C349.453 247.818 349.639 247.57 349.795 247.324C349.947 247.078 350.066 246.83 350.152 246.58C350.242 246.326 350.287 246.064 350.287 245.795C350.287 245.436 350.229 245.107 350.111 244.811C349.994 244.51 349.824 244.252 349.602 244.037C349.375 243.822 349.096 243.654 348.764 243.533C348.436 243.412 348.062 243.352 347.645 243.352C347.199 243.352 346.795 243.424 346.432 243.568C346.072 243.713 345.768 243.908 345.518 244.154C345.264 244.4 345.068 244.689 344.932 245.021C344.795 245.35 344.727 245.699 344.727 246.07H346.133C346.133 245.824 346.164 245.605 346.227 245.414C346.289 245.219 346.383 245.055 346.508 244.922C346.629 244.789 346.781 244.688 346.965 244.617C347.148 244.547 347.365 244.512 347.615 244.512C347.811 244.512 347.986 244.545 348.143 244.611C348.303 244.678 348.439 244.77 348.553 244.887C348.666 245.004 348.752 245.145 348.811 245.309C348.869 245.473 348.898 245.654 348.898 245.854C348.898 246.002 348.877 246.15 348.834 246.299C348.795 246.443 348.729 246.6 348.635 246.768C348.537 246.936 348.41 247.121 348.254 247.324C348.098 247.523 347.904 247.75 347.674 248.004L344.896 251.027V252H350.621ZM352.408 254.438H353.809V251.426C353.883 251.508 353.963 251.584 354.049 251.654C354.135 251.721 354.225 251.783 354.318 251.842C354.479 251.932 354.652 252 354.84 252.047C355.031 252.094 355.24 252.117 355.467 252.117C355.865 252.117 356.219 252.035 356.527 251.871C356.836 251.707 357.096 251.48 357.307 251.191C357.518 250.906 357.676 250.566 357.781 250.172C357.891 249.777 357.945 249.352 357.945 248.895V248.771C357.945 248.295 357.891 247.859 357.781 247.465C357.676 247.066 357.518 246.725 357.307 246.439C357.096 246.154 356.834 245.934 356.521 245.777C356.213 245.621 355.855 245.543 355.449 245.543C355.242 245.543 355.047 245.566 354.863 245.613C354.68 245.656 354.512 245.719 354.359 245.801C354.242 245.863 354.133 245.938 354.031 246.023C353.93 246.109 353.836 246.205 353.75 246.311L353.697 245.66H352.408V254.438ZM356.545 248.771V248.895C356.545 249.176 356.518 249.443 356.463 249.697C356.408 249.947 356.32 250.17 356.199 250.365C356.082 250.557 355.93 250.709 355.742 250.822C355.559 250.932 355.336 250.986 355.074 250.986C354.914 250.986 354.768 250.969 354.635 250.934C354.502 250.895 354.383 250.844 354.277 250.781C354.176 250.715 354.086 250.637 354.008 250.547C353.93 250.457 353.863 250.357 353.809 250.248V247.43C353.871 247.312 353.943 247.207 354.025 247.113C354.111 247.02 354.211 246.941 354.324 246.879C354.422 246.82 354.533 246.775 354.658 246.744C354.783 246.713 354.918 246.697 355.062 246.697C355.324 246.697 355.549 246.752 355.736 246.861C355.924 246.971 356.078 247.119 356.199 247.307C356.316 247.494 356.402 247.715 356.457 247.969C356.516 248.219 356.545 248.486 356.545 248.771ZM362.387 247.793L360.887 245.66H359.346L361.566 248.783L359.27 252H360.822L362.398 249.785L363.98 252H365.527L363.23 248.783L365.457 245.66H363.904L362.387 247.793Z" fill="#FF628C"/>
<defs>
<filter id="filter0_d_1_137" x="34" y="63" width="118" height="118" filterUnits="userSpaceOnUse" color-interpolation-filters="sRGB">
<feFlood flood-opacity="0" result="BackgroundImageFix"/>
<feColorMatrix in="SourceAlpha" type="matrix" values="0 0 0 0 0 0 0 0 0 0 0 0 0 0 0 0 0 0 127 0" result="hardAlpha"/>
<feOffset dy="4"/>
<feGaussianBlur stdDeviation="6"/>
<feColorMatrix type="matrix" values="0 0 0 0 0 0 0 0 0 0 0 0 0 0 0 0 0 0 0.1 0"/>
<feBlend mode="normal" in2="BackgroundImageFix" result="effect1_dropShadow_1_137"/>
<feBlend mode="normal" in="SourceGraphic" in2="effect1_dropShadow_1_137" result="shape"/>
</filter>
</defs>
</svg>
