<svg width="537" height="309" viewBox="0 0 537 309" fill="none" xmlns="http://www.w3.org/2000/svg">
<rect x="0.5" y="0.5" width="536" height="308" rx="9.5" fill="#FAFAFA"/>
<rect x="0.5" y="0.5" width="536" height="308" rx="9.5" stroke="#DFDFDF"/>
<path d="M54.0625 45H56.7898L57.4972 40.6705H59.8835L60.3352 37.9432H57.9489L58.4943 34.6023H60.8807L61.3409 31.875H58.946L59.6534 27.5455H56.9261L56.2188 31.875H52.8097L53.517 27.5455H50.7898L50.0824 31.875H47.7045L47.2443 34.6023H49.6307L49.0852 37.9432H46.6989L46.2472 40.6705H48.6335L47.9261 45H50.6534L51.3608 40.6705H54.7699L54.0625 45ZM51.8125 37.9432L52.358 34.6023H55.767L55.2216 37.9432H51.8125ZM70.5945 27.5455H67.1257L62.8047 30.2812V33.554L66.8018 31.0483H66.9041V45H70.5945V27.5455ZM74.7429 45H87.1861V41.983H79.8565V41.8636L82.4048 39.3665C85.9929 36.0938 86.956 34.4574 86.956 32.4716C86.956 29.446 84.4844 27.3068 80.7429 27.3068C77.0781 27.3068 74.5639 29.4972 74.5724 32.9233H78.0753C78.0668 31.2528 79.1236 30.2301 80.7173 30.2301C82.2514 30.2301 83.3935 31.1847 83.3935 32.7188C83.3935 34.108 82.5412 35.0625 80.956 36.5881L74.7429 42.3409V45Z" fill="black"/>
<rect x="46" y="205" width="434.824" height="24" fill="#011627"/>
<ellipse cx="60.8235" cy="216.294" rx="4.47059" ry="4.70588" fill="#FC605C"/>
<circle cx="73.7647" cy="216.765" r="4.70588" fill="#FFBB2C"/>
<circle cx="86.7059" cy="217.471" r="4.47059" fill="#2FC63C"/>
<g filter="url(#filter0_dd_1_213)">
<rect x="46" y="71" width="94" height="94" rx="5" fill="white"/>
</g>
<rect width="435" height="52" transform="translate(46 229)" fill="#011627"/>
<path d="M62.4805 248.895V248.771C62.4805 248.412 62.4473 248.072 62.3809 247.752C62.3184 247.432 62.2246 247.141 62.0996 246.879C62.0059 246.691 61.8965 246.52 61.7715 246.363C61.6504 246.203 61.5117 246.068 61.3555 245.959C61.1719 245.826 60.9648 245.725 60.7344 245.654C60.5078 245.58 60.2578 245.543 59.9844 245.543C59.7773 245.543 59.584 245.564 59.4043 245.607C59.2285 245.646 59.0664 245.707 58.918 245.789C58.8047 245.852 58.6992 245.924 58.6016 246.006C58.5039 246.088 58.4141 246.18 58.332 246.281V243H56.9316V252H58.1973L58.2617 251.309C58.332 251.395 58.4043 251.475 58.4785 251.549C58.5566 251.619 58.6387 251.686 58.7246 251.748C58.8926 251.869 59.082 251.961 59.293 252.023C59.5039 252.086 59.7383 252.117 59.9961 252.117C60.25 252.117 60.4844 252.084 60.6992 252.018C60.918 251.955 61.1152 251.865 61.291 251.748C61.5098 251.604 61.6973 251.422 61.8535 251.203C62.0098 250.984 62.1348 250.74 62.2285 250.471C62.3105 250.244 62.373 249.998 62.416 249.732C62.459 249.467 62.4805 249.188 62.4805 248.895ZM61.0801 248.771V248.895C61.0801 249.07 61.0703 249.24 61.0508 249.404C61.0312 249.568 61.002 249.721 60.9629 249.861C60.916 250.049 60.8477 250.219 60.7578 250.371C60.6719 250.52 60.5605 250.643 60.4238 250.74C60.3223 250.811 60.207 250.867 60.0781 250.91C59.9492 250.949 59.8047 250.969 59.6445 250.969C59.4688 250.969 59.3086 250.947 59.1641 250.904C59.0234 250.857 58.8984 250.795 58.7891 250.717C58.6914 250.643 58.6035 250.559 58.5254 250.465C58.4512 250.367 58.3867 250.26 58.332 250.143V247.518C58.3789 247.416 58.4336 247.322 58.4961 247.236C58.5625 247.146 58.6367 247.068 58.7188 247.002C58.832 246.904 58.9648 246.83 59.1172 246.779C59.2695 246.725 59.4414 246.697 59.6328 246.697C59.7891 246.697 59.9297 246.715 60.0547 246.75C60.1797 246.785 60.291 246.838 60.3887 246.908C60.5371 247.01 60.6543 247.135 60.7402 247.283C60.8301 247.428 60.9023 247.59 60.957 247.77C60.9961 247.918 61.0254 248.078 61.0449 248.25C61.0684 248.418 61.0801 248.592 61.0801 248.771ZM63.8574 248.771V248.895C63.8574 249.359 63.9238 249.787 64.0566 250.178C64.1895 250.568 64.3828 250.908 64.6367 251.197C64.8867 251.486 65.1953 251.713 65.5625 251.877C65.9297 252.041 66.3457 252.123 66.8105 252.123C67.2715 252.123 67.6836 252.041 68.0469 251.877C68.4141 251.713 68.7227 251.486 68.9727 251.197C69.2227 250.908 69.4141 250.568 69.5469 250.178C69.6797 249.787 69.7461 249.359 69.7461 248.895V248.771C69.7461 248.311 69.6797 247.885 69.5469 247.494C69.4141 247.1 69.2227 246.758 68.9727 246.469C68.7188 246.18 68.4082 245.953 68.041 245.789C67.6777 245.625 67.2637 245.543 66.7988 245.543C66.334 245.543 65.9199 245.625 65.5566 245.789C65.1934 245.953 64.8867 246.18 64.6367 246.469C64.3828 246.758 64.1895 247.1 64.0566 247.494C63.9238 247.885 63.8574 248.311 63.8574 248.771ZM65.2578 248.895V248.771C65.2578 248.494 65.2871 248.229 65.3457 247.975C65.4082 247.721 65.502 247.498 65.627 247.307C65.7559 247.115 65.916 246.963 66.1074 246.85C66.3027 246.736 66.5332 246.68 66.7988 246.68C67.0684 246.68 67.2988 246.736 67.4902 246.85C67.6855 246.963 67.8457 247.115 67.9707 247.307C68.0957 247.498 68.1895 247.721 68.252 247.975C68.3145 248.229 68.3457 248.494 68.3457 248.771V248.895C68.3457 249.18 68.3145 249.449 68.252 249.703C68.1934 249.957 68.1016 250.18 67.9766 250.371C67.8516 250.562 67.6914 250.715 67.4961 250.828C67.3008 250.938 67.0723 250.992 66.8105 250.992C66.541 250.992 66.3086 250.938 66.1133 250.828C65.918 250.715 65.7559 250.562 65.627 250.371C65.502 250.18 65.4082 249.957 65.3457 249.703C65.2871 249.449 65.2578 249.18 65.2578 248.895ZM74.1055 247.793L72.6055 245.66H71.0645L73.2852 248.783L70.9883 252H72.541L74.1172 249.785L75.6992 252H77.2461L74.9492 248.783L77.1758 245.66H75.623L74.1055 247.793ZM83.832 248.818V247.682H79.1152V248.818H83.832ZM89.8789 250.283C89.8789 250.385 89.8555 250.479 89.8086 250.564C89.7656 250.646 89.6992 250.723 89.6094 250.793C89.5 250.879 89.3535 250.947 89.1699 250.998C88.9902 251.049 88.7793 251.074 88.5371 251.074C88.3574 251.074 88.1797 251.057 88.0039 251.021C87.8281 250.982 87.6719 250.92 87.5352 250.834C87.3945 250.752 87.2773 250.645 87.1836 250.512C87.0938 250.375 87.043 250.209 87.0312 250.014H85.6719C85.6719 250.275 85.7344 250.533 85.8594 250.787C85.9844 251.041 86.168 251.266 86.4102 251.461C86.6484 251.66 86.9434 251.82 87.2949 251.941C87.6504 252.062 88.0566 252.123 88.5137 252.123C88.9238 252.123 89.2969 252.076 89.6328 251.982C89.9688 251.889 90.2578 251.758 90.5 251.59C90.7383 251.422 90.9219 251.221 91.0508 250.986C91.1836 250.752 91.25 250.494 91.25 250.213C91.25 249.924 91.1875 249.674 91.0625 249.463C90.9375 249.252 90.7617 249.068 90.5352 248.912C90.3086 248.764 90.0352 248.639 89.7148 248.537C89.3945 248.436 89.041 248.35 88.6543 248.279C88.377 248.232 88.1465 248.18 87.9629 248.121C87.7832 248.062 87.6426 247.998 87.541 247.928C87.4316 247.861 87.3555 247.785 87.3125 247.699C87.2695 247.609 87.248 247.51 87.248 247.4C87.248 247.295 87.2734 247.195 87.3242 247.102C87.375 247.004 87.4512 246.92 87.5527 246.85C87.6543 246.771 87.7832 246.711 87.9395 246.668C88.0996 246.621 88.2852 246.598 88.4961 246.598C88.7266 246.598 88.9277 246.629 89.0996 246.691C89.2715 246.75 89.4121 246.83 89.5215 246.932C89.6152 247.018 89.6855 247.115 89.7324 247.225C89.7832 247.33 89.8086 247.441 89.8086 247.559H91.209C91.209 247.273 91.1465 247.008 91.0215 246.762C90.8965 246.516 90.7188 246.303 90.4883 246.123C90.2539 245.943 89.9688 245.803 89.6328 245.701C89.2969 245.596 88.918 245.543 88.4961 245.543C88.1016 245.543 87.7422 245.594 87.418 245.695C87.0977 245.797 86.8242 245.936 86.5977 246.111C86.3672 246.287 86.1895 246.492 86.0645 246.727C85.9434 246.957 85.8828 247.201 85.8828 247.459C85.8828 247.729 85.9434 247.965 86.0645 248.168C86.1855 248.367 86.3535 248.543 86.5684 248.695C86.7871 248.852 87.0469 248.984 87.3477 249.094C87.6523 249.203 87.9883 249.295 88.3555 249.369C88.6484 249.424 88.8926 249.482 89.0879 249.545C89.2832 249.607 89.4414 249.674 89.5625 249.744C89.6758 249.822 89.7559 249.904 89.8027 249.99C89.8535 250.076 89.8789 250.174 89.8789 250.283ZM94.3438 246.562V243H92.9434V252H94.3438V247.412C94.4102 247.311 94.4863 247.219 94.5723 247.137C94.6621 247.055 94.7578 246.984 94.8594 246.926C94.9805 246.852 95.1133 246.795 95.2578 246.756C95.4062 246.717 95.5625 246.697 95.7266 246.697C95.9375 246.697 96.123 246.727 96.2832 246.785C96.4473 246.84 96.5859 246.926 96.6992 247.043C96.8086 247.152 96.8906 247.295 96.9453 247.471C97.0039 247.646 97.0332 247.852 97.0332 248.086V252H98.4336V248.098C98.4336 247.648 98.3789 247.264 98.2695 246.943C98.1641 246.619 98.0137 246.354 97.8184 246.146C97.623 245.939 97.3867 245.787 97.1094 245.689C96.8359 245.592 96.5332 245.543 96.2012 245.543C95.9629 245.543 95.7363 245.578 95.5215 245.648C95.3105 245.715 95.1172 245.812 94.9414 245.941C94.8281 246.02 94.7207 246.111 94.6191 246.217C94.5176 246.322 94.4258 246.438 94.3438 246.562ZM104.199 252H105.629V251.9C105.551 251.736 105.49 251.541 105.447 251.314C105.408 251.084 105.389 250.826 105.389 250.541V247.723C105.389 247.363 105.322 247.047 105.189 246.773C105.057 246.496 104.873 246.268 104.639 246.088C104.404 245.908 104.125 245.773 103.801 245.684C103.48 245.59 103.135 245.543 102.764 245.543C102.35 245.543 101.98 245.598 101.656 245.707C101.336 245.812 101.064 245.957 100.842 246.141C100.619 246.32 100.449 246.527 100.332 246.762C100.215 246.996 100.154 247.24 100.15 247.494H101.557C101.557 247.373 101.578 247.26 101.621 247.154C101.668 247.045 101.738 246.953 101.832 246.879C101.926 246.797 102.043 246.732 102.184 246.686C102.328 246.639 102.496 246.615 102.688 246.615C102.898 246.615 103.084 246.643 103.244 246.697C103.408 246.748 103.547 246.822 103.66 246.92C103.766 247.018 103.846 247.133 103.9 247.266C103.959 247.398 103.988 247.547 103.988 247.711V248.139H102.969C102.512 248.139 102.102 248.182 101.738 248.268C101.379 248.354 101.076 248.479 100.83 248.643C100.564 248.818 100.361 249.041 100.221 249.311C100.084 249.576 100.016 249.883 100.016 250.23C100.016 250.5 100.068 250.752 100.174 250.986C100.283 251.217 100.434 251.414 100.625 251.578C100.82 251.746 101.053 251.879 101.322 251.977C101.596 252.07 101.896 252.117 102.225 252.117C102.428 252.117 102.617 252.098 102.793 252.059C102.969 252.02 103.133 251.965 103.285 251.895C103.438 251.828 103.574 251.75 103.695 251.66C103.82 251.566 103.932 251.469 104.029 251.367C104.049 251.488 104.07 251.605 104.094 251.719C104.121 251.828 104.156 251.922 104.199 252ZM102.494 250.992C102.314 250.992 102.158 250.971 102.025 250.928C101.893 250.881 101.781 250.818 101.691 250.74C101.602 250.662 101.533 250.568 101.486 250.459C101.439 250.346 101.416 250.225 101.416 250.096C101.416 249.939 101.443 249.799 101.498 249.674C101.557 249.549 101.645 249.441 101.762 249.352C101.895 249.246 102.072 249.166 102.295 249.111C102.518 249.053 102.781 249.023 103.086 249.023H103.988V250.195C103.938 250.297 103.865 250.395 103.771 250.488C103.678 250.582 103.566 250.666 103.438 250.74C103.309 250.814 103.164 250.875 103.004 250.922C102.848 250.969 102.678 250.992 102.494 250.992ZM107.17 248.783V248.906C107.17 249.363 107.229 249.789 107.346 250.184C107.463 250.574 107.629 250.912 107.844 251.197C108.059 251.486 108.32 251.713 108.629 251.877C108.938 252.037 109.285 252.117 109.672 252.117C110.039 252.117 110.363 252.051 110.645 251.918C110.926 251.781 111.168 251.588 111.371 251.338L111.436 252H112.707V243H111.307V246.252C111.104 246.025 110.869 245.852 110.604 245.73C110.342 245.605 110.035 245.543 109.684 245.543C109.293 245.543 108.941 245.623 108.629 245.783C108.32 245.939 108.059 246.16 107.844 246.445C107.625 246.73 107.457 247.072 107.34 247.471C107.227 247.865 107.17 248.303 107.17 248.783ZM108.57 248.906V248.783C108.57 248.498 108.598 248.23 108.652 247.98C108.707 247.727 108.793 247.504 108.91 247.312C109.027 247.121 109.178 246.971 109.361 246.861C109.549 246.752 109.773 246.697 110.035 246.697C110.348 246.697 110.605 246.768 110.809 246.908C111.016 247.045 111.182 247.23 111.307 247.465V250.189C111.182 250.428 111.016 250.617 110.809 250.758C110.602 250.895 110.34 250.963 110.023 250.963C109.766 250.963 109.545 250.91 109.361 250.805C109.178 250.695 109.027 250.547 108.91 250.359C108.793 250.172 108.707 249.953 108.652 249.703C108.598 249.453 108.57 249.188 108.57 248.906ZM114.307 248.771V248.895C114.307 249.359 114.373 249.787 114.506 250.178C114.639 250.568 114.832 250.908 115.086 251.197C115.336 251.486 115.645 251.713 116.012 251.877C116.379 252.041 116.795 252.123 117.26 252.123C117.721 252.123 118.133 252.041 118.496 251.877C118.863 251.713 119.172 251.486 119.422 251.197C119.672 250.908 119.863 250.568 119.996 250.178C120.129 249.787 120.195 249.359 120.195 248.895V248.771C120.195 248.311 120.129 247.885 119.996 247.494C119.863 247.1 119.672 246.758 119.422 246.469C119.168 246.18 118.857 245.953 118.49 245.789C118.127 245.625 117.713 245.543 117.248 245.543C116.783 245.543 116.369 245.625 116.006 245.789C115.643 245.953 115.336 246.18 115.086 246.469C114.832 246.758 114.639 247.1 114.506 247.494C114.373 247.885 114.307 248.311 114.307 248.771ZM115.707 248.895V248.771C115.707 248.494 115.736 248.229 115.795 247.975C115.857 247.721 115.951 247.498 116.076 247.307C116.205 247.115 116.365 246.963 116.557 246.85C116.752 246.736 116.982 246.68 117.248 246.68C117.518 246.68 117.748 246.736 117.939 246.85C118.135 246.963 118.295 247.115 118.42 247.307C118.545 247.498 118.639 247.721 118.701 247.975C118.764 248.229 118.795 248.494 118.795 248.771V248.895C118.795 249.18 118.764 249.449 118.701 249.703C118.643 249.957 118.551 250.18 118.426 250.371C118.301 250.562 118.141 250.715 117.945 250.828C117.75 250.938 117.521 250.992 117.26 250.992C116.99 250.992 116.758 250.938 116.562 250.828C116.367 250.715 116.205 250.562 116.076 250.371C115.951 250.18 115.857 249.957 115.795 249.703C115.736 249.449 115.707 249.18 115.707 248.895ZM122.299 252H123.488L124.291 248.402L124.432 247.617L124.578 248.402L125.398 252H126.588L127.812 245.66H126.541L125.973 249.527L125.861 250.301L125.727 249.533L124.9 245.66H123.98L123.154 249.545L123.025 250.277L122.926 249.545L122.34 245.66H121.074L122.299 252Z" fill="#F78C6C"/>
<path d="M130.895 251.156C130.895 251.426 130.982 251.654 131.158 251.842C131.338 252.025 131.588 252.117 131.908 252.117C132.225 252.117 132.473 252.025 132.652 251.842C132.836 251.658 132.928 251.43 132.928 251.156C132.928 250.883 132.838 250.652 132.658 250.465C132.479 250.273 132.229 250.178 131.908 250.178C131.584 250.178 131.334 250.273 131.158 250.465C130.982 250.656 130.895 250.887 130.895 251.156ZM130.895 246.193C130.895 246.463 130.982 246.691 131.158 246.879C131.338 247.062 131.588 247.154 131.908 247.154C132.225 247.154 132.473 247.062 132.652 246.879C132.836 246.695 132.928 246.467 132.928 246.193C132.928 245.92 132.838 245.689 132.658 245.502C132.479 245.311 132.229 245.215 131.908 245.215C131.584 245.215 131.334 245.311 131.158 245.502C130.982 245.693 130.895 245.924 130.895 246.193ZM173.363 248.531V248.631C173.363 249.189 173.406 249.713 173.492 250.201C173.578 250.686 173.693 251.135 173.838 251.549C173.982 251.967 174.15 252.346 174.342 252.686C174.537 253.029 174.742 253.334 174.957 253.6C175.172 253.865 175.391 254.09 175.613 254.273C175.836 254.461 176.051 254.605 176.258 254.707L176.539 253.922C176.383 253.801 176.227 253.65 176.07 253.471C175.914 253.291 175.764 253.084 175.619 252.85C175.479 252.619 175.348 252.354 175.227 252.053C175.105 251.752 174.998 251.426 174.904 251.074C174.83 250.781 174.766 250.426 174.711 250.008C174.656 249.586 174.629 249.131 174.629 248.643V248.52C174.629 248.02 174.656 247.555 174.711 247.125C174.77 246.695 174.848 246.303 174.945 245.947C175.051 245.568 175.176 245.219 175.32 244.898C175.469 244.578 175.627 244.299 175.795 244.061C175.916 243.893 176.039 243.742 176.164 243.609C176.289 243.477 176.414 243.363 176.539 243.27L176.258 242.455C176.051 242.557 175.836 242.701 175.613 242.889C175.391 243.072 175.174 243.297 174.963 243.562C174.748 243.828 174.543 244.133 174.348 244.477C174.156 244.82 173.986 245.197 173.838 245.607C173.693 246.025 173.578 246.48 173.492 246.973C173.406 247.461 173.363 247.98 173.363 248.531ZM189.723 251.818V250.635H188.346V251.871C188.346 252.258 188.299 252.605 188.205 252.914C188.115 253.223 187.986 253.516 187.818 253.793L188.604 254.209C188.939 253.908 189.209 253.539 189.412 253.102C189.619 252.668 189.723 252.24 189.723 251.818ZM211.344 251.818V250.635H209.967V251.871C209.967 252.258 209.92 252.605 209.826 252.914C209.736 253.223 209.607 253.516 209.439 253.793L210.225 254.209C210.561 253.908 210.83 253.539 211.033 253.102C211.24 252.668 211.344 252.24 211.344 251.818ZM232.965 251.818V250.635H231.588V251.871C231.588 252.258 231.541 252.605 231.447 252.914C231.357 253.223 231.229 253.516 231.061 253.793L231.846 254.209C232.182 253.908 232.451 253.539 232.654 253.102C232.861 252.668 232.965 252.24 232.965 251.818ZM277.297 248.631V248.531C277.297 247.973 277.252 247.455 277.162 246.979C277.072 246.498 276.955 246.051 276.811 245.637C276.666 245.219 276.496 244.84 276.301 244.5C276.105 244.156 275.896 243.848 275.674 243.574C275.459 243.309 275.236 243.082 275.006 242.895C274.779 242.703 274.561 242.557 274.35 242.455L274.074 243.24C274.195 243.334 274.318 243.451 274.443 243.592C274.572 243.729 274.695 243.885 274.812 244.061C274.98 244.307 275.141 244.598 275.293 244.934C275.449 245.27 275.582 245.648 275.691 246.07C275.773 246.395 275.842 246.762 275.896 247.172C275.951 247.582 275.979 248.031 275.979 248.52V248.643C275.979 249.115 275.953 249.555 275.902 249.961C275.855 250.367 275.789 250.742 275.703 251.086C275.613 251.457 275.502 251.795 275.369 252.1C275.24 252.408 275.102 252.684 274.953 252.926C274.812 253.145 274.668 253.338 274.52 253.506C274.371 253.674 274.223 253.812 274.074 253.922L274.35 254.707C274.561 254.605 274.779 254.461 275.006 254.273C275.232 254.086 275.455 253.855 275.674 253.582C275.893 253.316 276.1 253.012 276.295 252.668C276.49 252.324 276.662 251.943 276.811 251.525C276.959 251.111 277.076 250.662 277.162 250.178C277.252 249.693 277.297 249.178 277.297 248.631ZM413.141 251.818V250.635H411.764V251.871C411.764 252.258 411.717 252.605 411.623 252.914C411.533 253.223 411.404 253.516 411.236 253.793L412.021 254.209C412.357 253.908 412.627 253.539 412.83 253.102C413.037 252.668 413.141 252.24 413.141 251.818ZM173.363 264.531V264.631C173.363 265.189 173.406 265.713 173.492 266.201C173.578 266.686 173.693 267.135 173.838 267.549C173.982 267.967 174.15 268.346 174.342 268.686C174.537 269.029 174.742 269.334 174.957 269.6C175.172 269.865 175.391 270.09 175.613 270.273C175.836 270.461 176.051 270.605 176.258 270.707L176.539 269.922C176.383 269.801 176.227 269.65 176.07 269.471C175.914 269.291 175.764 269.084 175.619 268.85C175.479 268.619 175.348 268.354 175.227 268.053C175.105 267.752 174.998 267.426 174.904 267.074C174.83 266.781 174.766 266.426 174.711 266.008C174.656 265.586 174.629 265.131 174.629 264.643V264.52C174.629 264.02 174.656 263.555 174.711 263.125C174.77 262.695 174.848 262.303 174.945 261.947C175.051 261.568 175.176 261.219 175.32 260.898C175.469 260.578 175.627 260.299 175.795 260.061C175.916 259.893 176.039 259.742 176.164 259.609C176.289 259.477 176.414 259.363 176.539 259.27L176.258 258.455C176.051 258.557 175.836 258.701 175.613 258.889C175.391 259.072 175.174 259.297 174.963 259.562C174.748 259.828 174.543 260.133 174.348 260.477C174.156 260.82 173.986 261.197 173.838 261.607C173.693 262.025 173.578 262.48 173.492 262.973C173.406 263.461 173.363 263.98 173.363 264.531ZM189.723 267.818V266.635H188.346V267.871C188.346 268.258 188.299 268.605 188.205 268.914C188.115 269.223 187.986 269.516 187.818 269.793L188.604 270.209C188.939 269.908 189.209 269.539 189.412 269.102C189.619 268.668 189.723 268.24 189.723 267.818ZM211.344 267.818V266.635H209.967V267.871C209.967 268.258 209.92 268.605 209.826 268.914C209.736 269.223 209.607 269.516 209.439 269.793L210.225 270.209C210.561 269.908 210.83 269.539 211.033 269.102C211.24 268.668 211.344 268.24 211.344 267.818ZM232.965 267.818V266.635H231.588V267.871C231.588 268.258 231.541 268.605 231.447 268.914C231.357 269.223 231.229 269.516 231.061 269.793L231.846 270.209C232.182 269.908 232.451 269.539 232.654 269.102C232.861 268.668 232.965 268.24 232.965 267.818ZM277.297 264.631V264.531C277.297 263.973 277.252 263.455 277.162 262.979C277.072 262.498 276.955 262.051 276.811 261.637C276.666 261.219 276.496 260.84 276.301 260.5C276.105 260.156 275.896 259.848 275.674 259.574C275.459 259.309 275.236 259.082 275.006 258.895C274.779 258.703 274.561 258.557 274.35 258.455L274.074 259.24C274.195 259.334 274.318 259.451 274.443 259.592C274.572 259.729 274.695 259.885 274.812 260.061C274.98 260.307 275.141 260.598 275.293 260.934C275.449 261.27 275.582 261.648 275.691 262.07C275.773 262.395 275.842 262.762 275.896 263.172C275.951 263.582 275.979 264.031 275.979 264.52V264.643C275.979 265.115 275.953 265.555 275.902 265.961C275.855 266.367 275.789 266.742 275.703 267.086C275.613 267.457 275.502 267.795 275.369 268.1C275.24 268.408 275.102 268.684 274.953 268.926C274.812 269.145 274.668 269.338 274.52 269.506C274.371 269.674 274.223 269.812 274.074 269.922L274.35 270.707C274.561 270.605 274.779 270.461 275.006 270.273C275.232 270.086 275.455 269.855 275.674 269.582C275.893 269.316 276.1 269.012 276.295 268.668C276.49 268.324 276.662 267.943 276.811 267.525C276.959 267.111 277.076 266.662 277.162 266.178C277.252 265.693 277.297 265.178 277.297 264.631ZM397.666 262.193C397.666 262.463 397.754 262.691 397.93 262.879C398.109 263.062 398.359 263.154 398.68 263.154C398.996 263.154 399.244 263.062 399.424 262.879C399.607 262.695 399.699 262.467 399.699 262.193C399.699 261.92 399.609 261.689 399.43 261.502C399.25 261.311 399 261.215 398.68 261.215C398.355 261.215 398.105 261.311 397.93 261.502C397.754 261.693 397.666 261.924 397.666 262.193ZM399.312 267.818V266.635H397.936V267.871C397.936 268.258 397.889 268.605 397.795 268.914C397.705 269.223 397.576 269.516 397.408 269.793L398.193 270.209C398.529 269.908 398.799 269.539 399.002 269.102C399.209 268.668 399.312 268.24 399.312 267.818Z" fill="white"/>
<path d="M147.775 245.543C147.338 245.543 146.938 245.645 146.574 245.848C146.215 246.051 145.906 246.33 145.648 246.686L145.643 246.539L145.584 245.66H144.271V252H145.672V248.086C145.746 247.898 145.838 247.732 145.947 247.588C146.057 247.443 146.189 247.324 146.346 247.23C146.49 247.133 146.656 247.061 146.844 247.014C147.031 246.967 147.242 246.943 147.477 246.943C147.684 246.943 147.891 246.955 148.098 246.979C148.309 247.002 148.521 247.037 148.736 247.084L148.936 245.701C148.814 245.658 148.646 245.621 148.432 245.59C148.221 245.559 148.002 245.543 147.775 245.543ZM150.418 248.783V248.906C150.418 249.363 150.477 249.789 150.594 250.184C150.715 250.574 150.887 250.912 151.109 251.197C151.328 251.486 151.594 251.713 151.906 251.877C152.219 252.037 152.57 252.117 152.961 252.117C153.176 252.117 153.375 252.094 153.559 252.047C153.742 252.004 153.91 251.939 154.062 251.854C154.164 251.799 154.258 251.734 154.344 251.66C154.434 251.586 154.52 251.506 154.602 251.42V251.859C154.602 252.098 154.566 252.311 154.496 252.498C154.43 252.686 154.334 252.844 154.209 252.973C154.072 253.105 153.906 253.207 153.711 253.277C153.52 253.348 153.299 253.383 153.049 253.383C152.904 253.383 152.762 253.367 152.621 253.336C152.48 253.309 152.342 253.264 152.205 253.201C152.068 253.139 151.934 253.057 151.801 252.955C151.672 252.857 151.551 252.74 151.438 252.604L150.775 253.453C150.916 253.641 151.084 253.801 151.279 253.934C151.475 254.066 151.68 254.174 151.895 254.256C152.109 254.338 152.324 254.398 152.539 254.438C152.754 254.477 152.951 254.496 153.131 254.496C153.557 254.496 153.945 254.436 154.297 254.314C154.652 254.197 154.957 254.025 155.211 253.799C155.461 253.568 155.654 253.287 155.791 252.955C155.932 252.627 156.002 252.25 156.002 251.824V245.66H154.73L154.672 246.299C154.594 246.205 154.51 246.119 154.42 246.041C154.33 245.959 154.234 245.889 154.133 245.83C153.977 245.736 153.803 245.666 153.611 245.619C153.42 245.568 153.207 245.543 152.973 245.543C152.578 245.543 152.223 245.623 151.906 245.783C151.594 245.939 151.326 246.16 151.104 246.445C150.885 246.73 150.715 247.072 150.594 247.471C150.477 247.865 150.418 248.303 150.418 248.783ZM151.824 248.906V248.783C151.824 248.498 151.854 248.23 151.912 247.98C151.971 247.727 152.062 247.504 152.188 247.312C152.309 247.121 152.463 246.971 152.65 246.861C152.838 246.752 153.062 246.697 153.324 246.697C153.473 246.697 153.609 246.715 153.734 246.75C153.859 246.781 153.973 246.826 154.074 246.885C154.188 246.947 154.287 247.025 154.373 247.119C154.463 247.213 154.539 247.318 154.602 247.436V250.213C154.539 250.326 154.467 250.43 154.385 250.523C154.303 250.617 154.209 250.697 154.104 250.764C153.998 250.826 153.879 250.875 153.746 250.91C153.617 250.945 153.473 250.963 153.312 250.963C153.055 250.963 152.832 250.91 152.645 250.805C152.457 250.695 152.303 250.545 152.182 250.354C152.057 250.17 151.965 249.953 151.906 249.703C151.852 249.453 151.824 249.188 151.824 248.906ZM163.379 248.895V248.771C163.379 248.412 163.346 248.072 163.279 247.752C163.217 247.432 163.123 247.141 162.998 246.879C162.904 246.691 162.795 246.52 162.67 246.363C162.549 246.203 162.41 246.068 162.254 245.959C162.07 245.826 161.863 245.725 161.633 245.654C161.406 245.58 161.156 245.543 160.883 245.543C160.676 245.543 160.482 245.564 160.303 245.607C160.127 245.646 159.965 245.707 159.816 245.789C159.703 245.852 159.598 245.924 159.5 246.006C159.402 246.088 159.312 246.18 159.23 246.281V243H157.83V252H159.096L159.16 251.309C159.23 251.395 159.303 251.475 159.377 251.549C159.455 251.619 159.537 251.686 159.623 251.748C159.791 251.869 159.98 251.961 160.191 252.023C160.402 252.086 160.637 252.117 160.895 252.117C161.148 252.117 161.383 252.084 161.598 252.018C161.816 251.955 162.014 251.865 162.189 251.748C162.408 251.604 162.596 251.422 162.752 251.203C162.908 250.984 163.033 250.74 163.127 250.471C163.209 250.244 163.271 249.998 163.314 249.732C163.357 249.467 163.379 249.188 163.379 248.895ZM161.979 248.771V248.895C161.979 249.07 161.969 249.24 161.949 249.404C161.93 249.568 161.9 249.721 161.861 249.861C161.814 250.049 161.746 250.219 161.656 250.371C161.57 250.52 161.459 250.643 161.322 250.74C161.221 250.811 161.105 250.867 160.977 250.91C160.848 250.949 160.703 250.969 160.543 250.969C160.367 250.969 160.207 250.947 160.062 250.904C159.922 250.857 159.797 250.795 159.688 250.717C159.59 250.643 159.502 250.559 159.424 250.465C159.35 250.367 159.285 250.26 159.23 250.143V247.518C159.277 247.416 159.332 247.322 159.395 247.236C159.461 247.146 159.535 247.068 159.617 247.002C159.73 246.904 159.863 246.83 160.016 246.779C160.168 246.725 160.34 246.697 160.531 246.697C160.688 246.697 160.828 246.715 160.953 246.75C161.078 246.785 161.189 246.838 161.287 246.908C161.436 247.01 161.553 247.135 161.639 247.283C161.729 247.428 161.801 247.59 161.855 247.77C161.895 247.918 161.924 248.078 161.943 248.25C161.967 248.418 161.979 248.592 161.979 248.771ZM169.062 252H170.492V251.9C170.414 251.736 170.354 251.541 170.311 251.314C170.271 251.084 170.252 250.826 170.252 250.541V247.723C170.252 247.363 170.186 247.047 170.053 246.773C169.92 246.496 169.736 246.268 169.502 246.088C169.268 245.908 168.988 245.773 168.664 245.684C168.344 245.59 167.998 245.543 167.627 245.543C167.213 245.543 166.844 245.598 166.52 245.707C166.199 245.812 165.928 245.957 165.705 246.141C165.482 246.32 165.312 246.527 165.195 246.762C165.078 246.996 165.018 247.24 165.014 247.494H166.42C166.42 247.373 166.441 247.26 166.484 247.154C166.531 247.045 166.602 246.953 166.695 246.879C166.789 246.797 166.906 246.732 167.047 246.686C167.191 246.639 167.359 246.615 167.551 246.615C167.762 246.615 167.947 246.643 168.107 246.697C168.271 246.748 168.41 246.822 168.523 246.92C168.629 247.018 168.709 247.133 168.764 247.266C168.822 247.398 168.852 247.547 168.852 247.711V248.139H167.832C167.375 248.139 166.965 248.182 166.602 248.268C166.242 248.354 165.939 248.479 165.693 248.643C165.428 248.818 165.225 249.041 165.084 249.311C164.947 249.576 164.879 249.883 164.879 250.23C164.879 250.5 164.932 250.752 165.037 250.986C165.146 251.217 165.297 251.414 165.488 251.578C165.684 251.746 165.916 251.879 166.186 251.977C166.459 252.07 166.76 252.117 167.088 252.117C167.291 252.117 167.48 252.098 167.656 252.059C167.832 252.02 167.996 251.965 168.148 251.895C168.301 251.828 168.438 251.75 168.559 251.66C168.684 251.566 168.795 251.469 168.893 251.367C168.912 251.488 168.934 251.605 168.957 251.719C168.984 251.828 169.02 251.922 169.062 252ZM167.357 250.992C167.178 250.992 167.021 250.971 166.889 250.928C166.756 250.881 166.645 250.818 166.555 250.74C166.465 250.662 166.396 250.568 166.35 250.459C166.303 250.346 166.279 250.225 166.279 250.096C166.279 249.939 166.307 249.799 166.361 249.674C166.42 249.549 166.508 249.441 166.625 249.352C166.758 249.246 166.936 249.166 167.158 249.111C167.381 249.053 167.645 249.023 167.949 249.023H168.852V250.195C168.801 250.297 168.729 250.395 168.635 250.488C168.541 250.582 168.43 250.666 168.301 250.74C168.172 250.814 168.027 250.875 167.867 250.922C167.711 250.969 167.541 250.992 167.357 250.992ZM147.775 261.543C147.338 261.543 146.938 261.645 146.574 261.848C146.215 262.051 145.906 262.33 145.648 262.686L145.643 262.539L145.584 261.66H144.271V268H145.672V264.086C145.746 263.898 145.838 263.732 145.947 263.588C146.057 263.443 146.189 263.324 146.346 263.23C146.49 263.133 146.656 263.061 146.844 263.014C147.031 262.967 147.242 262.943 147.477 262.943C147.684 262.943 147.891 262.955 148.098 262.979C148.309 263.002 148.521 263.037 148.736 263.084L148.936 261.701C148.814 261.658 148.646 261.621 148.432 261.59C148.221 261.559 148.002 261.543 147.775 261.543ZM150.418 264.783V264.906C150.418 265.363 150.477 265.789 150.594 266.184C150.715 266.574 150.887 266.912 151.109 267.197C151.328 267.486 151.594 267.713 151.906 267.877C152.219 268.037 152.57 268.117 152.961 268.117C153.176 268.117 153.375 268.094 153.559 268.047C153.742 268.004 153.91 267.939 154.062 267.854C154.164 267.799 154.258 267.734 154.344 267.66C154.434 267.586 154.52 267.506 154.602 267.42V267.859C154.602 268.098 154.566 268.311 154.496 268.498C154.43 268.686 154.334 268.844 154.209 268.973C154.072 269.105 153.906 269.207 153.711 269.277C153.52 269.348 153.299 269.383 153.049 269.383C152.904 269.383 152.762 269.367 152.621 269.336C152.48 269.309 152.342 269.264 152.205 269.201C152.068 269.139 151.934 269.057 151.801 268.955C151.672 268.857 151.551 268.74 151.438 268.604L150.775 269.453C150.916 269.641 151.084 269.801 151.279 269.934C151.475 270.066 151.68 270.174 151.895 270.256C152.109 270.338 152.324 270.398 152.539 270.438C152.754 270.477 152.951 270.496 153.131 270.496C153.557 270.496 153.945 270.436 154.297 270.314C154.652 270.197 154.957 270.025 155.211 269.799C155.461 269.568 155.654 269.287 155.791 268.955C155.932 268.627 156.002 268.25 156.002 267.824V261.66H154.73L154.672 262.299C154.594 262.205 154.51 262.119 154.42 262.041C154.33 261.959 154.234 261.889 154.133 261.83C153.977 261.736 153.803 261.666 153.611 261.619C153.42 261.568 153.207 261.543 152.973 261.543C152.578 261.543 152.223 261.623 151.906 261.783C151.594 261.939 151.326 262.16 151.104 262.445C150.885 262.73 150.715 263.072 150.594 263.471C150.477 263.865 150.418 264.303 150.418 264.783ZM151.824 264.906V264.783C151.824 264.498 151.854 264.23 151.912 263.98C151.971 263.727 152.062 263.504 152.188 263.312C152.309 263.121 152.463 262.971 152.65 262.861C152.838 262.752 153.062 262.697 153.324 262.697C153.473 262.697 153.609 262.715 153.734 262.75C153.859 262.781 153.973 262.826 154.074 262.885C154.188 262.947 154.287 263.025 154.373 263.119C154.463 263.213 154.539 263.318 154.602 263.436V266.213C154.539 266.326 154.467 266.43 154.385 266.523C154.303 266.617 154.209 266.697 154.104 266.764C153.998 266.826 153.879 266.875 153.746 266.91C153.617 266.945 153.473 266.963 153.312 266.963C153.055 266.963 152.832 266.91 152.645 266.805C152.457 266.695 152.303 266.545 152.182 266.354C152.057 266.17 151.965 265.953 151.906 265.703C151.852 265.453 151.824 265.188 151.824 264.906ZM163.379 264.895V264.771C163.379 264.412 163.346 264.072 163.279 263.752C163.217 263.432 163.123 263.141 162.998 262.879C162.904 262.691 162.795 262.52 162.67 262.363C162.549 262.203 162.41 262.068 162.254 261.959C162.07 261.826 161.863 261.725 161.633 261.654C161.406 261.58 161.156 261.543 160.883 261.543C160.676 261.543 160.482 261.564 160.303 261.607C160.127 261.646 159.965 261.707 159.816 261.789C159.703 261.852 159.598 261.924 159.5 262.006C159.402 262.088 159.312 262.18 159.23 262.281V259H157.83V268H159.096L159.16 267.309C159.23 267.395 159.303 267.475 159.377 267.549C159.455 267.619 159.537 267.686 159.623 267.748C159.791 267.869 159.98 267.961 160.191 268.023C160.402 268.086 160.637 268.117 160.895 268.117C161.148 268.117 161.383 268.084 161.598 268.018C161.816 267.955 162.014 267.865 162.189 267.748C162.408 267.604 162.596 267.422 162.752 267.203C162.908 266.984 163.033 266.74 163.127 266.471C163.209 266.244 163.271 265.998 163.314 265.732C163.357 265.467 163.379 265.188 163.379 264.895ZM161.979 264.771V264.895C161.979 265.07 161.969 265.24 161.949 265.404C161.93 265.568 161.9 265.721 161.861 265.861C161.814 266.049 161.746 266.219 161.656 266.371C161.57 266.52 161.459 266.643 161.322 266.74C161.221 266.811 161.105 266.867 160.977 266.91C160.848 266.949 160.703 266.969 160.543 266.969C160.367 266.969 160.207 266.947 160.062 266.904C159.922 266.857 159.797 266.795 159.688 266.717C159.59 266.643 159.502 266.559 159.424 266.465C159.35 266.367 159.285 266.26 159.23 266.143V263.518C159.277 263.416 159.332 263.322 159.395 263.236C159.461 263.146 159.535 263.068 159.617 263.002C159.73 262.904 159.863 262.83 160.016 262.779C160.168 262.725 160.34 262.697 160.531 262.697C160.688 262.697 160.828 262.715 160.953 262.75C161.078 262.785 161.189 262.838 161.287 262.908C161.436 263.01 161.553 263.135 161.639 263.283C161.729 263.428 161.801 263.59 161.855 263.77C161.895 263.918 161.924 264.078 161.943 264.25C161.967 264.418 161.979 264.592 161.979 264.771ZM169.062 268H170.492V267.9C170.414 267.736 170.354 267.541 170.311 267.314C170.271 267.084 170.252 266.826 170.252 266.541V263.723C170.252 263.363 170.186 263.047 170.053 262.773C169.92 262.496 169.736 262.268 169.502 262.088C169.268 261.908 168.988 261.773 168.664 261.684C168.344 261.59 167.998 261.543 167.627 261.543C167.213 261.543 166.844 261.598 166.52 261.707C166.199 261.812 165.928 261.957 165.705 262.141C165.482 262.32 165.312 262.527 165.195 262.762C165.078 262.996 165.018 263.24 165.014 263.494H166.42C166.42 263.373 166.441 263.26 166.484 263.154C166.531 263.045 166.602 262.953 166.695 262.879C166.789 262.797 166.906 262.732 167.047 262.686C167.191 262.639 167.359 262.615 167.551 262.615C167.762 262.615 167.947 262.643 168.107 262.697C168.271 262.748 168.41 262.822 168.523 262.92C168.629 263.018 168.709 263.133 168.764 263.266C168.822 263.398 168.852 263.547 168.852 263.711V264.139H167.832C167.375 264.139 166.965 264.182 166.602 264.268C166.242 264.354 165.939 264.479 165.693 264.643C165.428 264.818 165.225 265.041 165.084 265.311C164.947 265.576 164.879 265.883 164.879 266.23C164.879 266.5 164.932 266.752 165.037 266.986C165.146 267.217 165.297 267.414 165.488 267.578C165.684 267.746 165.916 267.879 166.186 267.977C166.459 268.07 166.76 268.117 167.088 268.117C167.291 268.117 167.48 268.098 167.656 268.059C167.832 268.02 167.996 267.965 168.148 267.895C168.301 267.828 168.438 267.75 168.559 267.66C168.684 267.566 168.795 267.469 168.893 267.367C168.912 267.488 168.934 267.605 168.957 267.719C168.984 267.828 169.02 267.922 169.062 268ZM167.357 266.992C167.178 266.992 167.021 266.971 166.889 266.928C166.756 266.881 166.645 266.818 166.555 266.74C166.465 266.662 166.396 266.568 166.35 266.459C166.303 266.346 166.279 266.225 166.279 266.096C166.279 265.939 166.307 265.799 166.361 265.674C166.42 265.549 166.508 265.441 166.625 265.352C166.758 265.246 166.936 265.166 167.158 265.111C167.381 265.053 167.645 265.023 167.949 265.023H168.852V266.195C168.801 266.297 168.729 266.395 168.635 266.488C168.541 266.582 168.43 266.666 168.301 266.74C168.172 266.814 168.027 266.875 167.867 266.922C167.711 266.969 167.541 266.992 167.357 266.992Z" fill="#7DD8C7"/>
<path d="M184.9 248.748V246.727C184.9 246.18 184.836 245.697 184.707 245.279C184.578 244.857 184.396 244.502 184.162 244.213C183.92 243.928 183.627 243.713 183.283 243.568C182.943 243.42 182.557 243.346 182.123 243.346C181.693 243.346 181.307 243.42 180.963 243.568C180.623 243.713 180.334 243.928 180.096 244.213C179.857 244.502 179.674 244.857 179.545 245.279C179.42 245.697 179.357 246.18 179.357 246.727V248.748C179.357 249.295 179.42 249.779 179.545 250.201C179.674 250.619 179.859 250.971 180.102 251.256C180.34 251.541 180.631 251.758 180.975 251.906C181.318 252.051 181.705 252.123 182.135 252.123C182.568 252.123 182.955 252.051 183.295 251.906C183.639 251.758 183.928 251.541 184.162 251.256C184.4 250.971 184.582 250.619 184.707 250.201C184.836 249.779 184.9 249.295 184.9 248.748ZM180.764 248.25C180.764 248.137 180.764 248.041 180.764 247.963C180.764 247.885 180.764 247.771 180.764 247.623V246.475C180.764 246.123 180.795 245.818 180.857 245.561C180.92 245.299 181.016 245.086 181.145 244.922C181.254 244.777 181.391 244.668 181.555 244.594C181.719 244.52 181.908 244.482 182.123 244.482C182.326 244.482 182.506 244.514 182.662 244.576C182.818 244.639 182.951 244.732 183.061 244.857C183.186 244.998 183.281 245.18 183.348 245.402C183.418 245.625 183.461 245.889 183.477 246.193L180.764 248.25ZM183.488 248.982C183.488 249.342 183.457 249.654 183.395 249.92C183.332 250.186 183.234 250.4 183.102 250.564C182.988 250.705 182.852 250.812 182.691 250.887C182.531 250.957 182.346 250.992 182.135 250.992C181.92 250.992 181.73 250.955 181.566 250.881C181.406 250.807 181.271 250.695 181.162 250.547C181.053 250.41 180.965 250.238 180.898 250.031C180.836 249.824 180.795 249.586 180.775 249.316L183.488 247.271C183.488 247.385 183.488 247.494 183.488 247.6C183.488 247.701 183.488 247.803 183.488 247.904V248.982ZM206.521 248.748V246.727C206.521 246.18 206.457 245.697 206.328 245.279C206.199 244.857 206.018 244.502 205.783 244.213C205.541 243.928 205.248 243.713 204.904 243.568C204.564 243.42 204.178 243.346 203.744 243.346C203.314 243.346 202.928 243.42 202.584 243.568C202.244 243.713 201.955 243.928 201.717 244.213C201.479 244.502 201.295 244.857 201.166 245.279C201.041 245.697 200.979 246.18 200.979 246.727V248.748C200.979 249.295 201.041 249.779 201.166 250.201C201.295 250.619 201.48 250.971 201.723 251.256C201.961 251.541 202.252 251.758 202.596 251.906C202.939 252.051 203.326 252.123 203.756 252.123C204.189 252.123 204.576 252.051 204.916 251.906C205.26 251.758 205.549 251.541 205.783 251.256C206.021 250.971 206.203 250.619 206.328 250.201C206.457 249.779 206.521 249.295 206.521 248.748ZM202.385 248.25C202.385 248.137 202.385 248.041 202.385 247.963C202.385 247.885 202.385 247.771 202.385 247.623V246.475C202.385 246.123 202.416 245.818 202.479 245.561C202.541 245.299 202.637 245.086 202.766 244.922C202.875 244.777 203.012 244.668 203.176 244.594C203.34 244.52 203.529 244.482 203.744 244.482C203.947 244.482 204.127 244.514 204.283 244.576C204.439 244.639 204.572 244.732 204.682 244.857C204.807 244.998 204.902 245.18 204.969 245.402C205.039 245.625 205.082 245.889 205.098 246.193L202.385 248.25ZM205.109 248.982C205.109 249.342 205.078 249.654 205.016 249.92C204.953 250.186 204.855 250.4 204.723 250.564C204.609 250.705 204.473 250.812 204.312 250.887C204.152 250.957 203.967 250.992 203.756 250.992C203.541 250.992 203.352 250.955 203.188 250.881C203.027 250.807 202.893 250.695 202.783 250.547C202.674 250.41 202.586 250.238 202.52 250.031C202.457 249.824 202.416 249.586 202.396 249.316L205.109 247.271C205.109 247.385 205.109 247.494 205.109 247.6C205.109 247.701 205.109 247.803 205.109 247.904V248.982ZM228.143 248.748V246.727C228.143 246.18 228.078 245.697 227.949 245.279C227.82 244.857 227.639 244.502 227.404 244.213C227.162 243.928 226.869 243.713 226.525 243.568C226.186 243.42 225.799 243.346 225.365 243.346C224.936 243.346 224.549 243.42 224.205 243.568C223.865 243.713 223.576 243.928 223.338 244.213C223.1 244.502 222.916 244.857 222.787 245.279C222.662 245.697 222.6 246.18 222.6 246.727V248.748C222.6 249.295 222.662 249.779 222.787 250.201C222.916 250.619 223.102 250.971 223.344 251.256C223.582 251.541 223.873 251.758 224.217 251.906C224.561 252.051 224.947 252.123 225.377 252.123C225.811 252.123 226.197 252.051 226.537 251.906C226.881 251.758 227.17 251.541 227.404 251.256C227.643 250.971 227.824 250.619 227.949 250.201C228.078 249.779 228.143 249.295 228.143 248.748ZM224.006 248.25C224.006 248.137 224.006 248.041 224.006 247.963C224.006 247.885 224.006 247.771 224.006 247.623V246.475C224.006 246.123 224.037 245.818 224.1 245.561C224.162 245.299 224.258 245.086 224.387 244.922C224.496 244.777 224.633 244.668 224.797 244.594C224.961 244.52 225.15 244.482 225.365 244.482C225.568 244.482 225.748 244.514 225.904 244.576C226.061 244.639 226.193 244.732 226.303 244.857C226.428 244.998 226.523 245.18 226.59 245.402C226.66 245.625 226.703 245.889 226.719 246.193L224.006 248.25ZM226.73 248.982C226.73 249.342 226.699 249.654 226.637 249.92C226.574 250.186 226.477 250.4 226.344 250.564C226.23 250.705 226.094 250.812 225.934 250.887C225.773 250.957 225.588 250.992 225.377 250.992C225.162 250.992 224.973 250.955 224.809 250.881C224.648 250.807 224.514 250.695 224.404 250.547C224.295 250.41 224.207 250.238 224.141 250.031C224.078 249.824 224.037 249.586 224.018 249.316L226.73 247.271C226.73 247.385 226.73 247.494 226.73 247.6C226.73 247.701 226.73 247.803 226.73 247.904V248.982ZM249.764 248.748V246.727C249.764 246.18 249.699 245.697 249.57 245.279C249.441 244.857 249.26 244.502 249.025 244.213C248.783 243.928 248.49 243.713 248.146 243.568C247.807 243.42 247.42 243.346 246.986 243.346C246.557 243.346 246.17 243.42 245.826 243.568C245.486 243.713 245.197 243.928 244.959 244.213C244.721 244.502 244.537 244.857 244.408 245.279C244.283 245.697 244.221 246.18 244.221 246.727V248.748C244.221 249.295 244.283 249.779 244.408 250.201C244.537 250.619 244.723 250.971 244.965 251.256C245.203 251.541 245.494 251.758 245.838 251.906C246.182 252.051 246.568 252.123 246.998 252.123C247.432 252.123 247.818 252.051 248.158 251.906C248.502 251.758 248.791 251.541 249.025 251.256C249.264 250.971 249.445 250.619 249.57 250.201C249.699 249.779 249.764 249.295 249.764 248.748ZM245.627 248.25C245.627 248.137 245.627 248.041 245.627 247.963C245.627 247.885 245.627 247.771 245.627 247.623V246.475C245.627 246.123 245.658 245.818 245.721 245.561C245.783 245.299 245.879 245.086 246.008 244.922C246.117 244.777 246.254 244.668 246.418 244.594C246.582 244.52 246.771 244.482 246.986 244.482C247.189 244.482 247.369 244.514 247.525 244.576C247.682 244.639 247.814 244.732 247.924 244.857C248.049 244.998 248.145 245.18 248.211 245.402C248.281 245.625 248.324 245.889 248.34 246.193L245.627 248.25ZM248.352 248.982C248.352 249.342 248.32 249.654 248.258 249.92C248.195 250.186 248.098 250.4 247.965 250.564C247.852 250.705 247.715 250.812 247.555 250.887C247.395 250.957 247.209 250.992 246.998 250.992C246.783 250.992 246.594 250.955 246.43 250.881C246.27 250.807 246.135 250.695 246.025 250.547C245.916 250.41 245.828 250.238 245.762 250.031C245.699 249.824 245.658 249.586 245.639 249.316L248.352 247.271C248.352 247.385 248.352 247.494 248.352 247.6C248.352 247.701 248.352 247.803 248.352 247.904V248.982ZM253.244 251.156C253.244 251.426 253.332 251.654 253.508 251.842C253.688 252.025 253.938 252.117 254.258 252.117C254.574 252.117 254.822 252.025 255.002 251.842C255.186 251.658 255.277 251.43 255.277 251.156C255.277 250.883 255.188 250.652 255.008 250.465C254.828 250.273 254.578 250.178 254.258 250.178C253.934 250.178 253.684 250.273 253.508 250.465C253.332 250.656 253.244 250.887 253.244 251.156ZM262.496 252V243.469H262.408L258.898 244.77V246.006L261.084 245.203V252H262.496ZM270.096 243.428H269.932C269.268 243.428 268.678 243.531 268.162 243.738C267.646 243.945 267.213 244.242 266.861 244.629C266.447 245.078 266.15 245.615 265.971 246.24C265.795 246.861 265.707 247.516 265.707 248.203V248.783C265.707 249.24 265.773 249.676 265.906 250.09C266.039 250.5 266.232 250.857 266.486 251.162C266.732 251.455 267.031 251.688 267.383 251.859C267.734 252.031 268.135 252.117 268.584 252.117C269.021 252.117 269.41 252.043 269.75 251.895C270.094 251.742 270.385 251.533 270.623 251.268C270.857 251.006 271.035 250.699 271.156 250.348C271.281 249.992 271.344 249.611 271.344 249.205C271.344 248.834 271.295 248.477 271.197 248.133C271.104 247.789 270.955 247.484 270.752 247.219C270.553 246.953 270.299 246.742 269.99 246.586C269.686 246.43 269.326 246.352 268.912 246.352C268.717 246.352 268.531 246.375 268.355 246.422C268.18 246.465 268.018 246.525 267.869 246.604C267.721 246.678 267.584 246.766 267.459 246.867C267.334 246.965 267.225 247.066 267.131 247.172C267.162 246.809 267.242 246.469 267.371 246.152C267.504 245.836 267.689 245.564 267.928 245.338C268.162 245.111 268.449 244.936 268.789 244.811C269.133 244.682 269.537 244.617 270.002 244.617H270.096V243.428ZM268.566 247.488C268.793 247.488 268.992 247.535 269.164 247.629C269.34 247.719 269.486 247.844 269.604 248.004C269.721 248.164 269.809 248.352 269.867 248.566C269.93 248.777 269.961 249.002 269.961 249.24C269.961 249.49 269.93 249.723 269.867 249.938C269.805 250.148 269.713 250.332 269.592 250.488C269.471 250.641 269.324 250.762 269.152 250.852C268.98 250.938 268.785 250.98 268.566 250.98C268.367 250.98 268.18 250.936 268.004 250.846C267.828 250.756 267.674 250.625 267.541 250.453C267.408 250.281 267.303 250.066 267.225 249.809C267.15 249.551 267.113 249.252 267.113 248.912V248.479C267.176 248.334 267.254 248.203 267.348 248.086C267.441 247.969 267.547 247.865 267.664 247.775C267.793 247.686 267.934 247.615 268.086 247.564C268.238 247.514 268.398 247.488 268.566 247.488ZM293.006 248.748V246.727C293.006 246.18 292.941 245.697 292.812 245.279C292.684 244.857 292.502 244.502 292.268 244.213C292.025 243.928 291.732 243.713 291.389 243.568C291.049 243.42 290.662 243.346 290.229 243.346C289.799 243.346 289.412 243.42 289.068 243.568C288.729 243.713 288.439 243.928 288.201 244.213C287.963 244.502 287.779 244.857 287.65 245.279C287.525 245.697 287.463 246.18 287.463 246.727V248.748C287.463 249.295 287.525 249.779 287.65 250.201C287.779 250.619 287.965 250.971 288.207 251.256C288.445 251.541 288.736 251.758 289.08 251.906C289.424 252.051 289.811 252.123 290.24 252.123C290.674 252.123 291.061 252.051 291.4 251.906C291.744 251.758 292.033 251.541 292.268 251.256C292.506 250.971 292.688 250.619 292.812 250.201C292.941 249.779 293.006 249.295 293.006 248.748ZM288.869 248.25C288.869 248.137 288.869 248.041 288.869 247.963C288.869 247.885 288.869 247.771 288.869 247.623V246.475C288.869 246.123 288.9 245.818 288.963 245.561C289.025 245.299 289.121 245.086 289.25 244.922C289.359 244.777 289.496 244.668 289.66 244.594C289.824 244.52 290.014 244.482 290.229 244.482C290.432 244.482 290.611 244.514 290.768 244.576C290.924 244.639 291.057 244.732 291.166 244.857C291.291 244.998 291.387 245.18 291.453 245.402C291.523 245.625 291.566 245.889 291.582 246.193L288.869 248.25ZM291.594 248.982C291.594 249.342 291.562 249.654 291.5 249.92C291.438 250.186 291.34 250.4 291.207 250.564C291.094 250.705 290.957 250.812 290.797 250.887C290.637 250.957 290.451 250.992 290.24 250.992C290.025 250.992 289.836 250.955 289.672 250.881C289.512 250.807 289.377 250.695 289.268 250.547C289.158 250.41 289.07 250.238 289.004 250.031C288.941 249.824 288.9 249.586 288.881 249.316L291.594 247.271C291.594 247.385 291.594 247.494 291.594 247.6C291.594 247.701 291.594 247.803 291.594 247.904V248.982ZM294.752 254.438H296.152V251.426C296.227 251.508 296.307 251.584 296.393 251.654C296.479 251.721 296.568 251.783 296.662 251.842C296.822 251.932 296.996 252 297.184 252.047C297.375 252.094 297.584 252.117 297.811 252.117C298.209 252.117 298.562 252.035 298.871 251.871C299.18 251.707 299.439 251.48 299.65 251.191C299.861 250.906 300.02 250.566 300.125 250.172C300.234 249.777 300.289 249.352 300.289 248.895V248.771C300.289 248.295 300.234 247.859 300.125 247.465C300.02 247.066 299.861 246.725 299.65 246.439C299.439 246.154 299.178 245.934 298.865 245.777C298.557 245.621 298.199 245.543 297.793 245.543C297.586 245.543 297.391 245.566 297.207 245.613C297.023 245.656 296.855 245.719 296.703 245.801C296.586 245.863 296.477 245.938 296.375 246.023C296.273 246.109 296.18 246.205 296.094 246.311L296.041 245.66H294.752V254.438ZM298.889 248.771V248.895C298.889 249.176 298.861 249.443 298.807 249.697C298.752 249.947 298.664 250.17 298.543 250.365C298.426 250.557 298.273 250.709 298.086 250.822C297.902 250.932 297.68 250.986 297.418 250.986C297.258 250.986 297.111 250.969 296.979 250.934C296.846 250.895 296.727 250.844 296.621 250.781C296.52 250.715 296.43 250.637 296.352 250.547C296.273 250.457 296.207 250.357 296.152 250.248V247.43C296.215 247.312 296.287 247.207 296.369 247.113C296.455 247.02 296.555 246.941 296.668 246.879C296.766 246.82 296.877 246.775 297.002 246.744C297.127 246.713 297.262 246.697 297.406 246.697C297.668 246.697 297.893 246.752 298.08 246.861C298.268 246.971 298.422 247.119 298.543 247.307C298.66 247.494 298.746 247.715 298.801 247.969C298.859 248.219 298.889 248.486 298.889 248.771ZM304.73 247.793L303.23 245.66H301.689L303.91 248.783L301.613 252H303.166L304.742 249.785L306.324 252H307.871L305.574 248.783L307.801 245.66H306.248L304.73 247.793ZM320.152 252V243.469H320.064L316.555 244.77V246.006L318.74 245.203V252H320.152ZM329.041 248.748V246.727C329.041 246.18 328.977 245.697 328.848 245.279C328.719 244.857 328.537 244.502 328.303 244.213C328.061 243.928 327.768 243.713 327.424 243.568C327.084 243.42 326.697 243.346 326.264 243.346C325.834 243.346 325.447 243.42 325.104 243.568C324.764 243.713 324.475 243.928 324.236 244.213C323.998 244.502 323.814 244.857 323.686 245.279C323.561 245.697 323.498 246.18 323.498 246.727V248.748C323.498 249.295 323.561 249.779 323.686 250.201C323.814 250.619 324 250.971 324.242 251.256C324.48 251.541 324.771 251.758 325.115 251.906C325.459 252.051 325.846 252.123 326.275 252.123C326.709 252.123 327.096 252.051 327.436 251.906C327.779 251.758 328.068 251.541 328.303 251.256C328.541 250.971 328.723 250.619 328.848 250.201C328.977 249.779 329.041 249.295 329.041 248.748ZM324.904 248.25C324.904 248.137 324.904 248.041 324.904 247.963C324.904 247.885 324.904 247.771 324.904 247.623V246.475C324.904 246.123 324.936 245.818 324.998 245.561C325.061 245.299 325.156 245.086 325.285 244.922C325.395 244.777 325.531 244.668 325.695 244.594C325.859 244.52 326.049 244.482 326.264 244.482C326.467 244.482 326.646 244.514 326.803 244.576C326.959 244.639 327.092 244.732 327.201 244.857C327.326 244.998 327.422 245.18 327.488 245.402C327.559 245.625 327.602 245.889 327.617 246.193L324.904 248.25ZM327.629 248.982C327.629 249.342 327.598 249.654 327.535 249.92C327.473 250.186 327.375 250.4 327.242 250.564C327.129 250.705 326.992 250.812 326.832 250.887C326.672 250.957 326.486 250.992 326.275 250.992C326.061 250.992 325.871 250.955 325.707 250.881C325.547 250.807 325.412 250.695 325.303 250.547C325.193 250.41 325.105 250.238 325.039 250.031C324.977 249.824 324.936 249.586 324.916 249.316L327.629 247.271C327.629 247.385 327.629 247.494 327.629 247.6C327.629 247.701 327.629 247.803 327.629 247.904V248.982ZM330.787 254.438H332.188V251.426C332.262 251.508 332.342 251.584 332.428 251.654C332.514 251.721 332.604 251.783 332.697 251.842C332.857 251.932 333.031 252 333.219 252.047C333.41 252.094 333.619 252.117 333.846 252.117C334.244 252.117 334.598 252.035 334.906 251.871C335.215 251.707 335.475 251.48 335.686 251.191C335.896 250.906 336.055 250.566 336.16 250.172C336.27 249.777 336.324 249.352 336.324 248.895V248.771C336.324 248.295 336.27 247.859 336.16 247.465C336.055 247.066 335.896 246.725 335.686 246.439C335.475 246.154 335.213 245.934 334.9 245.777C334.592 245.621 334.234 245.543 333.828 245.543C333.621 245.543 333.426 245.566 333.242 245.613C333.059 245.656 332.891 245.719 332.738 245.801C332.621 245.863 332.512 245.938 332.41 246.023C332.309 246.109 332.215 246.205 332.129 246.311L332.076 245.66H330.787V254.438ZM334.924 248.771V248.895C334.924 249.176 334.896 249.443 334.842 249.697C334.787 249.947 334.699 250.17 334.578 250.365C334.461 250.557 334.309 250.709 334.121 250.822C333.938 250.932 333.715 250.986 333.453 250.986C333.293 250.986 333.146 250.969 333.014 250.934C332.881 250.895 332.762 250.844 332.656 250.781C332.555 250.715 332.465 250.637 332.387 250.547C332.309 250.457 332.242 250.357 332.188 250.248V247.43C332.25 247.312 332.322 247.207 332.404 247.113C332.49 247.02 332.59 246.941 332.703 246.879C332.801 246.82 332.912 246.775 333.037 246.744C333.162 246.713 333.297 246.697 333.441 246.697C333.703 246.697 333.928 246.752 334.115 246.861C334.303 246.971 334.457 247.119 334.578 247.307C334.695 247.494 334.781 247.715 334.836 247.969C334.895 248.219 334.924 248.486 334.924 248.771ZM340.766 247.793L339.266 245.66H337.725L339.945 248.783L337.648 252H339.201L340.777 249.785L342.359 252H343.906L341.609 248.783L343.836 245.66H342.283L340.766 247.793ZM353.879 247.102V248.203H354.717C354.959 248.203 355.178 248.232 355.373 248.291C355.572 248.346 355.742 248.43 355.883 248.543C356.023 248.66 356.131 248.807 356.205 248.982C356.279 249.158 356.316 249.369 356.316 249.615C356.316 249.834 356.283 250.029 356.217 250.201C356.154 250.369 356.062 250.51 355.941 250.623C355.816 250.744 355.662 250.836 355.479 250.898C355.299 250.957 355.096 250.986 354.869 250.986C354.658 250.986 354.465 250.955 354.289 250.893C354.117 250.83 353.969 250.742 353.844 250.629C353.715 250.52 353.615 250.387 353.545 250.23C353.479 250.07 353.445 249.896 353.445 249.709H352.045C352.045 250.107 352.121 250.457 352.273 250.758C352.43 251.055 352.637 251.305 352.895 251.508C353.152 251.711 353.451 251.863 353.791 251.965C354.131 252.066 354.484 252.117 354.852 252.117C355.258 252.117 355.635 252.062 355.982 251.953C356.334 251.84 356.639 251.676 356.896 251.461C357.15 251.25 357.35 250.99 357.494 250.682C357.643 250.369 357.717 250.014 357.717 249.615C357.717 249.4 357.691 249.193 357.641 248.994C357.59 248.791 357.508 248.602 357.395 248.426C357.281 248.254 357.135 248.1 356.955 247.963C356.779 247.822 356.564 247.709 356.311 247.623C356.525 247.525 356.713 247.406 356.873 247.266C357.033 247.125 357.166 246.975 357.271 246.814C357.377 246.65 357.455 246.48 357.506 246.305C357.561 246.129 357.588 245.953 357.588 245.777C357.588 245.379 357.521 245.029 357.389 244.729C357.256 244.428 357.068 244.174 356.826 243.967C356.588 243.764 356.299 243.611 355.959 243.51C355.623 243.404 355.254 243.352 354.852 243.352C354.457 243.352 354.094 243.41 353.762 243.527C353.434 243.645 353.148 243.807 352.906 244.014C352.664 244.225 352.475 244.473 352.338 244.758C352.201 245.043 352.133 245.355 352.133 245.695H353.533C353.533 245.512 353.566 245.346 353.633 245.197C353.703 245.049 353.799 244.922 353.92 244.816C354.037 244.711 354.176 244.631 354.336 244.576C354.5 244.518 354.678 244.488 354.869 244.488C355.084 244.488 355.273 244.518 355.438 244.576C355.605 244.635 355.744 244.717 355.854 244.822C355.963 244.936 356.045 245.072 356.1 245.232C356.158 245.393 356.188 245.574 356.188 245.777C356.188 245.965 356.156 246.141 356.094 246.305C356.035 246.465 355.949 246.6 355.836 246.709C355.715 246.834 355.561 246.932 355.373 247.002C355.186 247.068 354.967 247.102 354.717 247.102H353.879ZM363.787 243.428H363.623C362.959 243.428 362.369 243.531 361.854 243.738C361.338 243.945 360.904 244.242 360.553 244.629C360.139 245.078 359.842 245.615 359.662 246.24C359.486 246.861 359.398 247.516 359.398 248.203V248.783C359.398 249.24 359.465 249.676 359.598 250.09C359.73 250.5 359.924 250.857 360.178 251.162C360.424 251.455 360.723 251.688 361.074 251.859C361.426 252.031 361.826 252.117 362.275 252.117C362.713 252.117 363.102 252.043 363.441 251.895C363.785 251.742 364.076 251.533 364.314 251.268C364.549 251.006 364.727 250.699 364.848 250.348C364.973 249.992 365.035 249.611 365.035 249.205C365.035 248.834 364.986 248.477 364.889 248.133C364.795 247.789 364.646 247.484 364.443 247.219C364.244 246.953 363.99 246.742 363.682 246.586C363.377 246.43 363.018 246.352 362.604 246.352C362.408 246.352 362.223 246.375 362.047 246.422C361.871 246.465 361.709 246.525 361.561 246.604C361.412 246.678 361.275 246.766 361.15 246.867C361.025 246.965 360.916 247.066 360.822 247.172C360.854 246.809 360.934 246.469 361.062 246.152C361.195 245.836 361.381 245.564 361.619 245.338C361.854 245.111 362.141 244.936 362.48 244.811C362.824 244.682 363.229 244.617 363.693 244.617H363.787V243.428ZM362.258 247.488C362.484 247.488 362.684 247.535 362.855 247.629C363.031 247.719 363.178 247.844 363.295 248.004C363.412 248.164 363.5 248.352 363.559 248.566C363.621 248.777 363.652 249.002 363.652 249.24C363.652 249.49 363.621 249.723 363.559 249.938C363.496 250.148 363.404 250.332 363.283 250.488C363.162 250.641 363.016 250.762 362.844 250.852C362.672 250.938 362.477 250.98 362.258 250.98C362.059 250.98 361.871 250.936 361.695 250.846C361.52 250.756 361.365 250.625 361.232 250.453C361.1 250.281 360.994 250.066 360.916 249.809C360.842 249.551 360.805 249.252 360.805 248.912V248.479C360.867 248.334 360.945 248.203 361.039 248.086C361.133 247.969 361.238 247.865 361.355 247.775C361.484 247.686 361.625 247.615 361.777 247.564C361.93 247.514 362.09 247.488 362.258 247.488ZM366.822 254.438H368.223V251.426C368.297 251.508 368.377 251.584 368.463 251.654C368.549 251.721 368.639 251.783 368.732 251.842C368.893 251.932 369.066 252 369.254 252.047C369.445 252.094 369.654 252.117 369.881 252.117C370.279 252.117 370.633 252.035 370.941 251.871C371.25 251.707 371.51 251.48 371.721 251.191C371.932 250.906 372.09 250.566 372.195 250.172C372.305 249.777 372.359 249.352 372.359 248.895V248.771C372.359 248.295 372.305 247.859 372.195 247.465C372.09 247.066 371.932 246.725 371.721 246.439C371.51 246.154 371.248 245.934 370.936 245.777C370.627 245.621 370.27 245.543 369.863 245.543C369.656 245.543 369.461 245.566 369.277 245.613C369.094 245.656 368.926 245.719 368.773 245.801C368.656 245.863 368.547 245.938 368.445 246.023C368.344 246.109 368.25 246.205 368.164 246.311L368.111 245.66H366.822V254.438ZM370.959 248.771V248.895C370.959 249.176 370.932 249.443 370.877 249.697C370.822 249.947 370.734 250.17 370.613 250.365C370.496 250.557 370.344 250.709 370.156 250.822C369.973 250.932 369.75 250.986 369.488 250.986C369.328 250.986 369.182 250.969 369.049 250.934C368.916 250.895 368.797 250.844 368.691 250.781C368.59 250.715 368.5 250.637 368.422 250.547C368.344 250.457 368.277 250.357 368.223 250.248V247.43C368.285 247.312 368.357 247.207 368.439 247.113C368.525 247.02 368.625 246.941 368.738 246.879C368.836 246.82 368.947 246.775 369.072 246.744C369.197 246.713 369.332 246.697 369.477 246.697C369.738 246.697 369.963 246.752 370.15 246.861C370.338 246.971 370.492 247.119 370.613 247.307C370.73 247.494 370.816 247.715 370.871 247.969C370.93 248.219 370.959 248.486 370.959 248.771ZM376.801 247.793L375.301 245.66H373.76L375.98 248.783L373.684 252H375.236L376.812 249.785L378.395 252H379.941L377.645 248.783L379.871 245.66H378.318L376.801 247.793ZM393.904 248.748V246.727C393.904 246.18 393.84 245.697 393.711 245.279C393.582 244.857 393.4 244.502 393.166 244.213C392.924 243.928 392.631 243.713 392.287 243.568C391.947 243.42 391.561 243.346 391.127 243.346C390.697 243.346 390.311 243.42 389.967 243.568C389.627 243.713 389.338 243.928 389.1 244.213C388.861 244.502 388.678 244.857 388.549 245.279C388.424 245.697 388.361 246.18 388.361 246.727V248.748C388.361 249.295 388.424 249.779 388.549 250.201C388.678 250.619 388.863 250.971 389.105 251.256C389.344 251.541 389.635 251.758 389.979 251.906C390.322 252.051 390.709 252.123 391.139 252.123C391.572 252.123 391.959 252.051 392.299 251.906C392.643 251.758 392.932 251.541 393.166 251.256C393.404 250.971 393.586 250.619 393.711 250.201C393.84 249.779 393.904 249.295 393.904 248.748ZM389.768 248.25C389.768 248.137 389.768 248.041 389.768 247.963C389.768 247.885 389.768 247.771 389.768 247.623V246.475C389.768 246.123 389.799 245.818 389.861 245.561C389.924 245.299 390.02 245.086 390.148 244.922C390.258 244.777 390.395 244.668 390.559 244.594C390.723 244.52 390.912 244.482 391.127 244.482C391.33 244.482 391.51 244.514 391.666 244.576C391.822 244.639 391.955 244.732 392.064 244.857C392.189 244.998 392.285 245.18 392.352 245.402C392.422 245.625 392.465 245.889 392.48 246.193L389.768 248.25ZM392.492 248.982C392.492 249.342 392.461 249.654 392.398 249.92C392.336 250.186 392.238 250.4 392.105 250.564C391.992 250.705 391.855 250.812 391.695 250.887C391.535 250.957 391.35 250.992 391.139 250.992C390.924 250.992 390.734 250.955 390.57 250.881C390.41 250.807 390.275 250.695 390.166 250.547C390.057 250.41 389.969 250.238 389.902 250.031C389.84 249.824 389.799 249.586 389.779 249.316L392.492 247.271C392.492 247.385 392.492 247.494 392.492 247.6C392.492 247.701 392.492 247.803 392.492 247.904V248.982ZM395.65 254.438H397.051V251.426C397.125 251.508 397.205 251.584 397.291 251.654C397.377 251.721 397.467 251.783 397.561 251.842C397.721 251.932 397.895 252 398.082 252.047C398.273 252.094 398.482 252.117 398.709 252.117C399.107 252.117 399.461 252.035 399.77 251.871C400.078 251.707 400.338 251.48 400.549 251.191C400.76 250.906 400.918 250.566 401.023 250.172C401.133 249.777 401.188 249.352 401.188 248.895V248.771C401.188 248.295 401.133 247.859 401.023 247.465C400.918 247.066 400.76 246.725 400.549 246.439C400.338 246.154 400.076 245.934 399.764 245.777C399.455 245.621 399.098 245.543 398.691 245.543C398.484 245.543 398.289 245.566 398.105 245.613C397.922 245.656 397.754 245.719 397.602 245.801C397.484 245.863 397.375 245.938 397.273 246.023C397.172 246.109 397.078 246.205 396.992 246.311L396.939 245.66H395.65V254.438ZM399.787 248.771V248.895C399.787 249.176 399.76 249.443 399.705 249.697C399.65 249.947 399.562 250.17 399.441 250.365C399.324 250.557 399.172 250.709 398.984 250.822C398.801 250.932 398.578 250.986 398.316 250.986C398.156 250.986 398.01 250.969 397.877 250.934C397.744 250.895 397.625 250.844 397.52 250.781C397.418 250.715 397.328 250.637 397.25 250.547C397.172 250.457 397.105 250.357 397.051 250.248V247.43C397.113 247.312 397.186 247.207 397.268 247.113C397.354 247.02 397.453 246.941 397.566 246.879C397.664 246.82 397.775 246.775 397.9 246.744C398.025 246.713 398.16 246.697 398.305 246.697C398.566 246.697 398.791 246.752 398.979 246.861C399.166 246.971 399.32 247.119 399.441 247.307C399.559 247.494 399.645 247.715 399.699 247.969C399.758 248.219 399.787 248.486 399.787 248.771ZM405.629 247.793L404.129 245.66H402.588L404.809 248.783L402.512 252H404.064L405.641 249.785L407.223 252H408.77L406.473 248.783L408.699 245.66H407.146L405.629 247.793ZM184.9 264.748V262.727C184.9 262.18 184.836 261.697 184.707 261.279C184.578 260.857 184.396 260.502 184.162 260.213C183.92 259.928 183.627 259.713 183.283 259.568C182.943 259.42 182.557 259.346 182.123 259.346C181.693 259.346 181.307 259.42 180.963 259.568C180.623 259.713 180.334 259.928 180.096 260.213C179.857 260.502 179.674 260.857 179.545 261.279C179.42 261.697 179.357 262.18 179.357 262.727V264.748C179.357 265.295 179.42 265.779 179.545 266.201C179.674 266.619 179.859 266.971 180.102 267.256C180.34 267.541 180.631 267.758 180.975 267.906C181.318 268.051 181.705 268.123 182.135 268.123C182.568 268.123 182.955 268.051 183.295 267.906C183.639 267.758 183.928 267.541 184.162 267.256C184.4 266.971 184.582 266.619 184.707 266.201C184.836 265.779 184.9 265.295 184.9 264.748ZM180.764 264.25C180.764 264.137 180.764 264.041 180.764 263.963C180.764 263.885 180.764 263.771 180.764 263.623V262.475C180.764 262.123 180.795 261.818 180.857 261.561C180.92 261.299 181.016 261.086 181.145 260.922C181.254 260.777 181.391 260.668 181.555 260.594C181.719 260.52 181.908 260.482 182.123 260.482C182.326 260.482 182.506 260.514 182.662 260.576C182.818 260.639 182.951 260.732 183.061 260.857C183.186 260.998 183.281 261.18 183.348 261.402C183.418 261.625 183.461 261.889 183.477 262.193L180.764 264.25ZM183.488 264.982C183.488 265.342 183.457 265.654 183.395 265.92C183.332 266.186 183.234 266.4 183.102 266.564C182.988 266.705 182.852 266.812 182.691 266.887C182.531 266.957 182.346 266.992 182.135 266.992C181.92 266.992 181.73 266.955 181.566 266.881C181.406 266.807 181.271 266.695 181.162 266.547C181.053 266.41 180.965 266.238 180.898 266.031C180.836 265.824 180.795 265.586 180.775 265.316L183.488 263.271C183.488 263.385 183.488 263.494 183.488 263.6C183.488 263.701 183.488 263.803 183.488 263.904V264.982ZM206.521 264.748V262.727C206.521 262.18 206.457 261.697 206.328 261.279C206.199 260.857 206.018 260.502 205.783 260.213C205.541 259.928 205.248 259.713 204.904 259.568C204.564 259.42 204.178 259.346 203.744 259.346C203.314 259.346 202.928 259.42 202.584 259.568C202.244 259.713 201.955 259.928 201.717 260.213C201.479 260.502 201.295 260.857 201.166 261.279C201.041 261.697 200.979 262.18 200.979 262.727V264.748C200.979 265.295 201.041 265.779 201.166 266.201C201.295 266.619 201.48 266.971 201.723 267.256C201.961 267.541 202.252 267.758 202.596 267.906C202.939 268.051 203.326 268.123 203.756 268.123C204.189 268.123 204.576 268.051 204.916 267.906C205.26 267.758 205.549 267.541 205.783 267.256C206.021 266.971 206.203 266.619 206.328 266.201C206.457 265.779 206.521 265.295 206.521 264.748ZM202.385 264.25C202.385 264.137 202.385 264.041 202.385 263.963C202.385 263.885 202.385 263.771 202.385 263.623V262.475C202.385 262.123 202.416 261.818 202.479 261.561C202.541 261.299 202.637 261.086 202.766 260.922C202.875 260.777 203.012 260.668 203.176 260.594C203.34 260.52 203.529 260.482 203.744 260.482C203.947 260.482 204.127 260.514 204.283 260.576C204.439 260.639 204.572 260.732 204.682 260.857C204.807 260.998 204.902 261.18 204.969 261.402C205.039 261.625 205.082 261.889 205.098 262.193L202.385 264.25ZM205.109 264.982C205.109 265.342 205.078 265.654 205.016 265.92C204.953 266.186 204.855 266.4 204.723 266.564C204.609 266.705 204.473 266.812 204.312 266.887C204.152 266.957 203.967 266.992 203.756 266.992C203.541 266.992 203.352 266.955 203.188 266.881C203.027 266.807 202.893 266.695 202.783 266.547C202.674 266.41 202.586 266.238 202.52 266.031C202.457 265.824 202.416 265.586 202.396 265.316L205.109 263.271C205.109 263.385 205.109 263.494 205.109 263.6C205.109 263.701 205.109 263.803 205.109 263.904V264.982ZM228.143 264.748V262.727C228.143 262.18 228.078 261.697 227.949 261.279C227.82 260.857 227.639 260.502 227.404 260.213C227.162 259.928 226.869 259.713 226.525 259.568C226.186 259.42 225.799 259.346 225.365 259.346C224.936 259.346 224.549 259.42 224.205 259.568C223.865 259.713 223.576 259.928 223.338 260.213C223.1 260.502 222.916 260.857 222.787 261.279C222.662 261.697 222.6 262.18 222.6 262.727V264.748C222.6 265.295 222.662 265.779 222.787 266.201C222.916 266.619 223.102 266.971 223.344 267.256C223.582 267.541 223.873 267.758 224.217 267.906C224.561 268.051 224.947 268.123 225.377 268.123C225.811 268.123 226.197 268.051 226.537 267.906C226.881 267.758 227.17 267.541 227.404 267.256C227.643 266.971 227.824 266.619 227.949 266.201C228.078 265.779 228.143 265.295 228.143 264.748ZM224.006 264.25C224.006 264.137 224.006 264.041 224.006 263.963C224.006 263.885 224.006 263.771 224.006 263.623V262.475C224.006 262.123 224.037 261.818 224.1 261.561C224.162 261.299 224.258 261.086 224.387 260.922C224.496 260.777 224.633 260.668 224.797 260.594C224.961 260.52 225.15 260.482 225.365 260.482C225.568 260.482 225.748 260.514 225.904 260.576C226.061 260.639 226.193 260.732 226.303 260.857C226.428 260.998 226.523 261.18 226.59 261.402C226.66 261.625 226.703 261.889 226.719 262.193L224.006 264.25ZM226.73 264.982C226.73 265.342 226.699 265.654 226.637 265.92C226.574 266.186 226.477 266.4 226.344 266.564C226.23 266.705 226.094 266.812 225.934 266.887C225.773 266.957 225.588 266.992 225.377 266.992C225.162 266.992 224.973 266.955 224.809 266.881C224.648 266.807 224.514 266.695 224.404 266.547C224.295 266.41 224.207 266.238 224.141 266.031C224.078 265.824 224.037 265.586 224.018 265.316L226.73 263.271C226.73 263.385 226.73 263.494 226.73 263.6C226.73 263.701 226.73 263.803 226.73 263.904V264.982ZM249.764 264.748V262.727C249.764 262.18 249.699 261.697 249.57 261.279C249.441 260.857 249.26 260.502 249.025 260.213C248.783 259.928 248.49 259.713 248.146 259.568C247.807 259.42 247.42 259.346 246.986 259.346C246.557 259.346 246.17 259.42 245.826 259.568C245.486 259.713 245.197 259.928 244.959 260.213C244.721 260.502 244.537 260.857 244.408 261.279C244.283 261.697 244.221 262.18 244.221 262.727V264.748C244.221 265.295 244.283 265.779 244.408 266.201C244.537 266.619 244.723 266.971 244.965 267.256C245.203 267.541 245.494 267.758 245.838 267.906C246.182 268.051 246.568 268.123 246.998 268.123C247.432 268.123 247.818 268.051 248.158 267.906C248.502 267.758 248.791 267.541 249.025 267.256C249.264 266.971 249.445 266.619 249.57 266.201C249.699 265.779 249.764 265.295 249.764 264.748ZM245.627 264.25C245.627 264.137 245.627 264.041 245.627 263.963C245.627 263.885 245.627 263.771 245.627 263.623V262.475C245.627 262.123 245.658 261.818 245.721 261.561C245.783 261.299 245.879 261.086 246.008 260.922C246.117 260.777 246.254 260.668 246.418 260.594C246.582 260.52 246.771 260.482 246.986 260.482C247.189 260.482 247.369 260.514 247.525 260.576C247.682 260.639 247.814 260.732 247.924 260.857C248.049 260.998 248.145 261.18 248.211 261.402C248.281 261.625 248.324 261.889 248.34 262.193L245.627 264.25ZM248.352 264.982C248.352 265.342 248.32 265.654 248.258 265.92C248.195 266.186 248.098 266.4 247.965 266.564C247.852 266.705 247.715 266.812 247.555 266.887C247.395 266.957 247.209 266.992 246.998 266.992C246.783 266.992 246.594 266.955 246.43 266.881C246.27 266.807 246.135 266.695 246.025 266.547C245.916 266.41 245.828 266.238 245.762 266.031C245.699 265.824 245.658 265.586 245.639 265.316L248.352 263.271C248.352 263.385 248.352 263.494 248.352 263.6C248.352 263.701 248.352 263.803 248.352 263.904V264.982ZM253.244 267.156C253.244 267.426 253.332 267.654 253.508 267.842C253.688 268.025 253.938 268.117 254.258 268.117C254.574 268.117 254.822 268.025 255.002 267.842C255.186 267.658 255.277 267.43 255.277 267.156C255.277 266.883 255.188 266.652 255.008 266.465C254.828 266.273 254.578 266.178 254.258 266.178C253.934 266.178 253.684 266.273 253.508 266.465C253.332 266.656 253.244 266.887 253.244 267.156ZM264.178 264.748V262.727C264.178 262.18 264.113 261.697 263.984 261.279C263.855 260.857 263.674 260.502 263.439 260.213C263.197 259.928 262.904 259.713 262.561 259.568C262.221 259.42 261.834 259.346 261.4 259.346C260.971 259.346 260.584 259.42 260.24 259.568C259.9 259.713 259.611 259.928 259.373 260.213C259.135 260.502 258.951 260.857 258.822 261.279C258.697 261.697 258.635 262.18 258.635 262.727V264.748C258.635 265.295 258.697 265.779 258.822 266.201C258.951 266.619 259.137 266.971 259.379 267.256C259.617 267.541 259.908 267.758 260.252 267.906C260.596 268.051 260.982 268.123 261.412 268.123C261.846 268.123 262.232 268.051 262.572 267.906C262.916 267.758 263.205 267.541 263.439 267.256C263.678 266.971 263.859 266.619 263.984 266.201C264.113 265.779 264.178 265.295 264.178 264.748ZM260.041 264.25C260.041 264.137 260.041 264.041 260.041 263.963C260.041 263.885 260.041 263.771 260.041 263.623V262.475C260.041 262.123 260.072 261.818 260.135 261.561C260.197 261.299 260.293 261.086 260.422 260.922C260.531 260.777 260.668 260.668 260.832 260.594C260.996 260.52 261.186 260.482 261.4 260.482C261.604 260.482 261.783 260.514 261.939 260.576C262.096 260.639 262.229 260.732 262.338 260.857C262.463 260.998 262.559 261.18 262.625 261.402C262.695 261.625 262.738 261.889 262.754 262.193L260.041 264.25ZM262.766 264.982C262.766 265.342 262.734 265.654 262.672 265.92C262.609 266.186 262.512 266.4 262.379 266.564C262.266 266.705 262.129 266.812 261.969 266.887C261.809 266.957 261.623 266.992 261.412 266.992C261.197 266.992 261.008 266.955 260.844 266.881C260.684 266.807 260.549 266.695 260.439 266.547C260.33 266.41 260.242 266.238 260.176 266.031C260.113 265.824 260.072 265.586 260.053 265.316L262.766 263.271C262.766 263.385 262.766 263.494 262.766 263.6C262.766 263.701 262.766 263.803 262.766 263.904V264.982ZM270.096 259.428H269.932C269.268 259.428 268.678 259.531 268.162 259.738C267.646 259.945 267.213 260.242 266.861 260.629C266.447 261.078 266.15 261.615 265.971 262.24C265.795 262.861 265.707 263.516 265.707 264.203V264.783C265.707 265.24 265.773 265.676 265.906 266.09C266.039 266.5 266.232 266.857 266.486 267.162C266.732 267.455 267.031 267.688 267.383 267.859C267.734 268.031 268.135 268.117 268.584 268.117C269.021 268.117 269.41 268.043 269.75 267.895C270.094 267.742 270.385 267.533 270.623 267.268C270.857 267.006 271.035 266.699 271.156 266.348C271.281 265.992 271.344 265.611 271.344 265.205C271.344 264.834 271.295 264.477 271.197 264.133C271.104 263.789 270.955 263.484 270.752 263.219C270.553 262.953 270.299 262.742 269.99 262.586C269.686 262.43 269.326 262.352 268.912 262.352C268.717 262.352 268.531 262.375 268.355 262.422C268.18 262.465 268.018 262.525 267.869 262.604C267.721 262.678 267.584 262.766 267.459 262.867C267.334 262.965 267.225 263.066 267.131 263.172C267.162 262.809 267.242 262.469 267.371 262.152C267.504 261.836 267.689 261.564 267.928 261.338C268.162 261.111 268.449 260.936 268.789 260.811C269.133 260.682 269.537 260.617 270.002 260.617H270.096V259.428ZM268.566 263.488C268.793 263.488 268.992 263.535 269.164 263.629C269.34 263.719 269.486 263.844 269.604 264.004C269.721 264.164 269.809 264.352 269.867 264.566C269.93 264.777 269.961 265.002 269.961 265.24C269.961 265.49 269.93 265.723 269.867 265.938C269.805 266.148 269.713 266.332 269.592 266.488C269.471 266.641 269.324 266.762 269.152 266.852C268.98 266.938 268.785 266.98 268.566 266.98C268.367 266.98 268.18 266.936 268.004 266.846C267.828 266.756 267.674 266.625 267.541 266.453C267.408 266.281 267.303 266.066 267.225 265.809C267.15 265.551 267.113 265.252 267.113 264.912V264.479C267.176 264.334 267.254 264.203 267.348 264.086C267.441 263.969 267.547 263.865 267.664 263.775C267.793 263.686 267.934 263.615 268.086 263.564C268.238 263.514 268.398 263.488 268.566 263.488ZM293.006 264.748V262.727C293.006 262.18 292.941 261.697 292.812 261.279C292.684 260.857 292.502 260.502 292.268 260.213C292.025 259.928 291.732 259.713 291.389 259.568C291.049 259.42 290.662 259.346 290.229 259.346C289.799 259.346 289.412 259.42 289.068 259.568C288.729 259.713 288.439 259.928 288.201 260.213C287.963 260.502 287.779 260.857 287.65 261.279C287.525 261.697 287.463 262.18 287.463 262.727V264.748C287.463 265.295 287.525 265.779 287.65 266.201C287.779 266.619 287.965 266.971 288.207 267.256C288.445 267.541 288.736 267.758 289.08 267.906C289.424 268.051 289.811 268.123 290.24 268.123C290.674 268.123 291.061 268.051 291.4 267.906C291.744 267.758 292.033 267.541 292.268 267.256C292.506 266.971 292.688 266.619 292.812 266.201C292.941 265.779 293.006 265.295 293.006 264.748ZM288.869 264.25C288.869 264.137 288.869 264.041 288.869 263.963C288.869 263.885 288.869 263.771 288.869 263.623V262.475C288.869 262.123 288.9 261.818 288.963 261.561C289.025 261.299 289.121 261.086 289.25 260.922C289.359 260.777 289.496 260.668 289.66 260.594C289.824 260.52 290.014 260.482 290.229 260.482C290.432 260.482 290.611 260.514 290.768 260.576C290.924 260.639 291.057 260.732 291.166 260.857C291.291 260.998 291.387 261.18 291.453 261.402C291.523 261.625 291.566 261.889 291.582 262.193L288.869 264.25ZM291.594 264.982C291.594 265.342 291.562 265.654 291.5 265.92C291.438 266.186 291.34 266.4 291.207 266.564C291.094 266.705 290.957 266.812 290.797 266.887C290.637 266.957 290.451 266.992 290.24 266.992C290.025 266.992 289.836 266.955 289.672 266.881C289.512 266.807 289.377 266.695 289.268 266.547C289.158 266.41 289.07 266.238 289.004 266.031C288.941 265.824 288.9 265.586 288.881 265.316L291.594 263.271C291.594 263.385 291.594 263.494 291.594 263.6C291.594 263.701 291.594 263.803 291.594 263.904V264.982ZM294.752 270.438H296.152V267.426C296.227 267.508 296.307 267.584 296.393 267.654C296.479 267.721 296.568 267.783 296.662 267.842C296.822 267.932 296.996 268 297.184 268.047C297.375 268.094 297.584 268.117 297.811 268.117C298.209 268.117 298.562 268.035 298.871 267.871C299.18 267.707 299.439 267.48 299.65 267.191C299.861 266.906 300.02 266.566 300.125 266.172C300.234 265.777 300.289 265.352 300.289 264.895V264.771C300.289 264.295 300.234 263.859 300.125 263.465C300.02 263.066 299.861 262.725 299.65 262.439C299.439 262.154 299.178 261.934 298.865 261.777C298.557 261.621 298.199 261.543 297.793 261.543C297.586 261.543 297.391 261.566 297.207 261.613C297.023 261.656 296.855 261.719 296.703 261.801C296.586 261.863 296.477 261.938 296.375 262.023C296.273 262.109 296.18 262.205 296.094 262.311L296.041 261.66H294.752V270.438ZM298.889 264.771V264.895C298.889 265.176 298.861 265.443 298.807 265.697C298.752 265.947 298.664 266.17 298.543 266.365C298.426 266.557 298.273 266.709 298.086 266.822C297.902 266.932 297.68 266.986 297.418 266.986C297.258 266.986 297.111 266.969 296.979 266.934C296.846 266.895 296.727 266.844 296.621 266.781C296.52 266.715 296.43 266.637 296.352 266.547C296.273 266.457 296.207 266.357 296.152 266.248V263.43C296.215 263.312 296.287 263.207 296.369 263.113C296.455 263.02 296.555 262.941 296.668 262.879C296.766 262.82 296.877 262.775 297.002 262.744C297.127 262.713 297.262 262.697 297.406 262.697C297.668 262.697 297.893 262.752 298.08 262.861C298.268 262.971 298.422 263.119 298.543 263.307C298.66 263.494 298.746 263.715 298.801 263.969C298.859 264.219 298.889 264.486 298.889 264.771ZM304.73 263.793L303.23 261.66H301.689L303.91 264.783L301.613 268H303.166L304.742 265.785L306.324 268H307.871L305.574 264.783L307.801 261.66H306.248L304.73 263.793ZM321.834 264.748V262.727C321.834 262.18 321.77 261.697 321.641 261.279C321.512 260.857 321.33 260.502 321.096 260.213C320.854 259.928 320.561 259.713 320.217 259.568C319.877 259.42 319.49 259.346 319.057 259.346C318.627 259.346 318.24 259.42 317.896 259.568C317.557 259.713 317.268 259.928 317.029 260.213C316.791 260.502 316.607 260.857 316.479 261.279C316.354 261.697 316.291 262.18 316.291 262.727V264.748C316.291 265.295 316.354 265.779 316.479 266.201C316.607 266.619 316.793 266.971 317.035 267.256C317.273 267.541 317.564 267.758 317.908 267.906C318.252 268.051 318.639 268.123 319.068 268.123C319.502 268.123 319.889 268.051 320.229 267.906C320.572 267.758 320.861 267.541 321.096 267.256C321.334 266.971 321.516 266.619 321.641 266.201C321.77 265.779 321.834 265.295 321.834 264.748ZM317.697 264.25C317.697 264.137 317.697 264.041 317.697 263.963C317.697 263.885 317.697 263.771 317.697 263.623V262.475C317.697 262.123 317.729 261.818 317.791 261.561C317.854 261.299 317.949 261.086 318.078 260.922C318.188 260.777 318.324 260.668 318.488 260.594C318.652 260.52 318.842 260.482 319.057 260.482C319.26 260.482 319.439 260.514 319.596 260.576C319.752 260.639 319.885 260.732 319.994 260.857C320.119 260.998 320.215 261.18 320.281 261.402C320.352 261.625 320.395 261.889 320.41 262.193L317.697 264.25ZM320.422 264.982C320.422 265.342 320.391 265.654 320.328 265.92C320.266 266.186 320.168 266.4 320.035 266.564C319.922 266.705 319.785 266.812 319.625 266.887C319.465 266.957 319.279 266.992 319.068 266.992C318.854 266.992 318.664 266.955 318.5 266.881C318.34 266.807 318.205 266.695 318.096 266.547C317.986 266.41 317.898 266.238 317.832 266.031C317.77 265.824 317.729 265.586 317.709 265.316L320.422 263.271C320.422 263.385 320.422 263.494 320.422 263.6C320.422 263.701 320.422 263.803 320.422 263.904V264.982ZM323.58 270.438H324.98V267.426C325.055 267.508 325.135 267.584 325.221 267.654C325.307 267.721 325.396 267.783 325.49 267.842C325.65 267.932 325.824 268 326.012 268.047C326.203 268.094 326.412 268.117 326.639 268.117C327.037 268.117 327.391 268.035 327.699 267.871C328.008 267.707 328.268 267.48 328.479 267.191C328.689 266.906 328.848 266.566 328.953 266.172C329.062 265.777 329.117 265.352 329.117 264.895V264.771C329.117 264.295 329.062 263.859 328.953 263.465C328.848 263.066 328.689 262.725 328.479 262.439C328.268 262.154 328.006 261.934 327.693 261.777C327.385 261.621 327.027 261.543 326.621 261.543C326.414 261.543 326.219 261.566 326.035 261.613C325.852 261.656 325.684 261.719 325.531 261.801C325.414 261.863 325.305 261.938 325.203 262.023C325.102 262.109 325.008 262.205 324.922 262.311L324.869 261.66H323.58V270.438ZM327.717 264.771V264.895C327.717 265.176 327.689 265.443 327.635 265.697C327.58 265.947 327.492 266.17 327.371 266.365C327.254 266.557 327.102 266.709 326.914 266.822C326.73 266.932 326.508 266.986 326.246 266.986C326.086 266.986 325.939 266.969 325.807 266.934C325.674 266.895 325.555 266.844 325.449 266.781C325.348 266.715 325.258 266.637 325.18 266.547C325.102 266.457 325.035 266.357 324.98 266.248V263.43C325.043 263.312 325.115 263.207 325.197 263.113C325.283 263.02 325.383 262.941 325.496 262.879C325.594 262.82 325.705 262.775 325.83 262.744C325.955 262.713 326.09 262.697 326.234 262.697C326.496 262.697 326.721 262.752 326.908 262.861C327.096 262.971 327.25 263.119 327.371 263.307C327.488 263.494 327.574 263.715 327.629 263.969C327.688 264.219 327.717 264.486 327.717 264.771ZM333.559 263.793L332.059 261.66H330.518L332.738 264.783L330.441 268H331.994L333.57 265.785L335.152 268H336.699L334.402 264.783L336.629 261.66H335.076L333.559 263.793ZM350.662 264.748V262.727C350.662 262.18 350.598 261.697 350.469 261.279C350.34 260.857 350.158 260.502 349.924 260.213C349.682 259.928 349.389 259.713 349.045 259.568C348.705 259.42 348.318 259.346 347.885 259.346C347.455 259.346 347.068 259.42 346.725 259.568C346.385 259.713 346.096 259.928 345.857 260.213C345.619 260.502 345.436 260.857 345.307 261.279C345.182 261.697 345.119 262.18 345.119 262.727V264.748C345.119 265.295 345.182 265.779 345.307 266.201C345.436 266.619 345.621 266.971 345.863 267.256C346.102 267.541 346.393 267.758 346.736 267.906C347.08 268.051 347.467 268.123 347.896 268.123C348.33 268.123 348.717 268.051 349.057 267.906C349.4 267.758 349.689 267.541 349.924 267.256C350.162 266.971 350.344 266.619 350.469 266.201C350.598 265.779 350.662 265.295 350.662 264.748ZM346.525 264.25C346.525 264.137 346.525 264.041 346.525 263.963C346.525 263.885 346.525 263.771 346.525 263.623V262.475C346.525 262.123 346.557 261.818 346.619 261.561C346.682 261.299 346.777 261.086 346.906 260.922C347.016 260.777 347.152 260.668 347.316 260.594C347.48 260.52 347.67 260.482 347.885 260.482C348.088 260.482 348.268 260.514 348.424 260.576C348.58 260.639 348.713 260.732 348.822 260.857C348.947 260.998 349.043 261.18 349.109 261.402C349.18 261.625 349.223 261.889 349.238 262.193L346.525 264.25ZM349.25 264.982C349.25 265.342 349.219 265.654 349.156 265.92C349.094 266.186 348.996 266.4 348.863 266.564C348.75 266.705 348.613 266.812 348.453 266.887C348.293 266.957 348.107 266.992 347.896 266.992C347.682 266.992 347.492 266.955 347.328 266.881C347.168 266.807 347.033 266.695 346.924 266.547C346.814 266.41 346.727 266.238 346.66 266.031C346.598 265.824 346.557 265.586 346.537 265.316L349.25 263.271C349.25 263.385 349.25 263.494 349.25 263.6C349.25 263.701 349.25 263.803 349.25 263.904V264.982ZM352.408 270.438H353.809V267.426C353.883 267.508 353.963 267.584 354.049 267.654C354.135 267.721 354.225 267.783 354.318 267.842C354.479 267.932 354.652 268 354.84 268.047C355.031 268.094 355.24 268.117 355.467 268.117C355.865 268.117 356.219 268.035 356.527 267.871C356.836 267.707 357.096 267.48 357.307 267.191C357.518 266.906 357.676 266.566 357.781 266.172C357.891 265.777 357.945 265.352 357.945 264.895V264.771C357.945 264.295 357.891 263.859 357.781 263.465C357.676 263.066 357.518 262.725 357.307 262.439C357.096 262.154 356.834 261.934 356.521 261.777C356.213 261.621 355.855 261.543 355.449 261.543C355.242 261.543 355.047 261.566 354.863 261.613C354.68 261.656 354.512 261.719 354.359 261.801C354.242 261.863 354.133 261.938 354.031 262.023C353.93 262.109 353.836 262.205 353.75 262.311L353.697 261.66H352.408V270.438ZM356.545 264.771V264.895C356.545 265.176 356.518 265.443 356.463 265.697C356.408 265.947 356.32 266.17 356.199 266.365C356.082 266.557 355.93 266.709 355.742 266.822C355.559 266.932 355.336 266.986 355.074 266.986C354.914 266.986 354.768 266.969 354.635 266.934C354.502 266.895 354.383 266.844 354.277 266.781C354.176 266.715 354.086 266.637 354.008 266.547C353.93 266.457 353.863 266.357 353.809 266.248V263.43C353.871 263.312 353.943 263.207 354.025 263.113C354.111 263.02 354.211 262.941 354.324 262.879C354.422 262.82 354.533 262.775 354.658 262.744C354.783 262.713 354.918 262.697 355.062 262.697C355.324 262.697 355.549 262.752 355.736 262.861C355.924 262.971 356.078 263.119 356.199 263.307C356.316 263.494 356.402 263.715 356.457 263.969C356.516 264.219 356.545 264.486 356.545 264.771ZM362.387 263.793L360.887 261.66H359.346L361.566 264.783L359.27 268H360.822L362.398 265.785L363.98 268H365.527L363.23 264.783L365.457 261.66H363.904L362.387 263.793ZM377.809 268V259.469H377.721L374.211 260.77V262.006L376.396 261.203V268H377.809ZM381.236 270.438H382.637V267.426C382.711 267.508 382.791 267.584 382.877 267.654C382.963 267.721 383.053 267.783 383.146 267.842C383.307 267.932 383.48 268 383.668 268.047C383.859 268.094 384.068 268.117 384.295 268.117C384.693 268.117 385.047 268.035 385.355 267.871C385.664 267.707 385.924 267.48 386.135 267.191C386.346 266.906 386.504 266.566 386.609 266.172C386.719 265.777 386.773 265.352 386.773 264.895V264.771C386.773 264.295 386.719 263.859 386.609 263.465C386.504 263.066 386.346 262.725 386.135 262.439C385.924 262.154 385.662 261.934 385.35 261.777C385.041 261.621 384.684 261.543 384.277 261.543C384.07 261.543 383.875 261.566 383.691 261.613C383.508 261.656 383.34 261.719 383.188 261.801C383.07 261.863 382.961 261.938 382.859 262.023C382.758 262.109 382.664 262.205 382.578 262.311L382.525 261.66H381.236V270.438ZM385.373 264.771V264.895C385.373 265.176 385.346 265.443 385.291 265.697C385.236 265.947 385.148 266.17 385.027 266.365C384.91 266.557 384.758 266.709 384.57 266.822C384.387 266.932 384.164 266.986 383.902 266.986C383.742 266.986 383.596 266.969 383.463 266.934C383.33 266.895 383.211 266.844 383.105 266.781C383.004 266.715 382.914 266.637 382.836 266.547C382.758 266.457 382.691 266.357 382.637 266.248V263.43C382.699 263.312 382.771 263.207 382.854 263.113C382.939 263.02 383.039 262.941 383.152 262.879C383.25 262.82 383.361 262.775 383.486 262.744C383.611 262.713 383.746 262.697 383.891 262.697C384.152 262.697 384.377 262.752 384.564 262.861C384.752 262.971 384.906 263.119 385.027 263.307C385.145 263.494 385.23 263.715 385.285 263.969C385.344 264.219 385.373 264.486 385.373 264.771ZM391.215 263.793L389.715 261.66H388.174L390.395 264.783L388.098 268H389.65L391.227 265.785L392.809 268H394.355L392.059 264.783L394.285 261.66H392.732L391.215 263.793Z" fill="#FF628C"/>
<defs>
<filter id="filter0_dd_1_213" x="10" y="45" width="166" height="166" filterUnits="userSpaceOnUse" color-interpolation-filters="sRGB">
<feFlood flood-opacity="0" result="BackgroundImageFix"/>
<feColorMatrix in="SourceAlpha" type="matrix" values="0 0 0 0 0 0 0 0 0 0 0 0 0 0 0 0 0 0 127 0" result="hardAlpha"/>
<feMorphology radius="1" operator="dilate" in="SourceAlpha" result="effect1_dropShadow_1_213"/>
<feOffset/>
<feColorMatrix type="matrix" values="0 0 0 0 0 0 0 0 0 0 0 0 0 0 0 0 0 0 0.06 0"/>
<feBlend mode="normal" in2="BackgroundImageFix" result="effect1_dropShadow_1_213"/>
<feColorMatrix in="SourceAlpha" type="matrix" values="0 0 0 0 0 0 0 0 0 0 0 0 0 0 0 0 0 0 127 0" result="hardAlpha"/>
<feOffset dy="10"/>
<feGaussianBlur stdDeviation="18"/>
<feColorMatrix type="matrix" values="0 0 0 0 0 0 0 0 0 0 0 0 0 0 0 0 0 0 0.16 0"/>
<feBlend mode="normal" in2="effect1_dropShadow_1_213" result="effect2_dropShadow_1_213"/>
<feBlend mode="normal" in="SourceGraphic" in2="effect2_dropShadow_1_213" result="shape"/>
</filter>
</defs>
</svg>
