<svg width="537" height="309" viewBox="0 0 537 309" fill="none" xmlns="http://www.w3.org/2000/svg">
<g clip-path="url(#clip0_2_0)">
<rect width="537" height="309" rx="10" fill="#FAFAFA"/>
<path d="M54.0625 45H56.7898L57.4972 40.6705H59.8835L60.3352 37.9432H57.9489L58.4943 34.6023H60.8807L61.3409 31.875H58.946L59.6534 27.5455H56.9261L56.2188 31.875H52.8097L53.517 27.5455H50.7898L50.0824 31.875H47.7045L47.2443 34.6023H49.6307L49.0852 37.9432H46.6989L46.2472 40.6705H48.6335L47.9261 45H50.6534L51.3608 40.6705H54.7699L54.0625 45ZM51.8125 37.9432L52.358 34.6023H55.767L55.2216 37.9432H51.8125ZM70.5945 27.5455H67.1257L62.8047 30.2812V33.554L66.8018 31.0483H66.9041V45H70.5945V27.5455ZM81.1946 45.2386C85.1151 45.2386 87.919 43.0824 87.9105 40.0994C87.919 37.9261 86.5384 36.375 83.973 36.0511V35.9148C85.9247 35.5653 87.2713 34.1847 87.2628 32.2244C87.2713 29.4716 84.8594 27.3068 81.2457 27.3068C77.6662 27.3068 74.973 29.4034 74.9219 32.4205H78.4588C78.5014 31.0909 79.7202 30.2301 81.2287 30.2301C82.7202 30.2301 83.7173 31.1335 83.7088 32.446C83.7173 33.8182 82.5497 34.7472 80.8707 34.7472H79.2429V37.4574H80.8707C82.848 37.4574 84.0838 38.446 84.0753 39.8523C84.0838 41.2415 82.8906 42.196 81.2031 42.196C79.5753 42.196 78.3565 41.3438 78.2884 40.0653H74.5724C74.6321 43.1165 77.3594 45.2386 81.1946 45.2386Z" fill="black"/>
<rect x="46" y="205" width="434.824" height="24" fill="#011627"/>
<ellipse cx="60.8236" cy="216.294" rx="4.47059" ry="4.70588" fill="#FC605C"/>
<circle cx="73.7647" cy="216.765" r="4.70588" fill="#FFBB2C"/>
<circle cx="86.7059" cy="217.471" r="4.47059" fill="#2FC63C"/>
<g filter="url(#filter0_d_2_0)">
<rect x="46" y="71" width="94" height="94" rx="5" fill="white"/>
</g>
<rect width="435" height="36" transform="translate(46 228)" fill="#011627"/>
<path d="M62.4805 247.895V247.771C62.4805 247.412 62.4473 247.072 62.3809 246.752C62.3184 246.432 62.2246 246.141 62.0996 245.879C62.0059 245.691 61.8965 245.52 61.7715 245.363C61.6504 245.203 61.5117 245.068 61.3555 244.959C61.1719 244.826 60.9648 244.725 60.7344 244.654C60.5078 244.58 60.2578 244.543 59.9844 244.543C59.7773 244.543 59.584 244.564 59.4043 244.607C59.2285 244.646 59.0664 244.707 58.918 244.789C58.8047 244.852 58.6992 244.924 58.6016 245.006C58.5039 245.088 58.4141 245.18 58.332 245.281V242H56.9316V251H58.1973L58.2617 250.309C58.332 250.395 58.4043 250.475 58.4785 250.549C58.5566 250.619 58.6387 250.686 58.7246 250.748C58.8926 250.869 59.082 250.961 59.293 251.023C59.5039 251.086 59.7383 251.117 59.9961 251.117C60.25 251.117 60.4844 251.084 60.6992 251.018C60.918 250.955 61.1152 250.865 61.291 250.748C61.5098 250.604 61.6973 250.422 61.8535 250.203C62.0098 249.984 62.1348 249.74 62.2285 249.471C62.3105 249.244 62.373 248.998 62.416 248.732C62.459 248.467 62.4805 248.188 62.4805 247.895ZM61.0801 247.771V247.895C61.0801 248.07 61.0703 248.24 61.0508 248.404C61.0312 248.568 61.002 248.721 60.9629 248.861C60.916 249.049 60.8477 249.219 60.7578 249.371C60.6719 249.52 60.5605 249.643 60.4238 249.74C60.3223 249.811 60.207 249.867 60.0781 249.91C59.9492 249.949 59.8047 249.969 59.6445 249.969C59.4688 249.969 59.3086 249.947 59.1641 249.904C59.0234 249.857 58.8984 249.795 58.7891 249.717C58.6914 249.643 58.6035 249.559 58.5254 249.465C58.4512 249.367 58.3867 249.26 58.332 249.143V246.518C58.3789 246.416 58.4336 246.322 58.4961 246.236C58.5625 246.146 58.6367 246.068 58.7188 246.002C58.832 245.904 58.9648 245.83 59.1172 245.779C59.2695 245.725 59.4414 245.697 59.6328 245.697C59.7891 245.697 59.9297 245.715 60.0547 245.75C60.1797 245.785 60.291 245.838 60.3887 245.908C60.5371 246.01 60.6543 246.135 60.7402 246.283C60.8301 246.428 60.9023 246.59 60.957 246.77C60.9961 246.918 61.0254 247.078 61.0449 247.25C61.0684 247.418 61.0801 247.592 61.0801 247.771ZM63.8574 247.771V247.895C63.8574 248.359 63.9238 248.787 64.0566 249.178C64.1895 249.568 64.3828 249.908 64.6367 250.197C64.8867 250.486 65.1953 250.713 65.5625 250.877C65.9297 251.041 66.3457 251.123 66.8105 251.123C67.2715 251.123 67.6836 251.041 68.0469 250.877C68.4141 250.713 68.7227 250.486 68.9727 250.197C69.2227 249.908 69.4141 249.568 69.5469 249.178C69.6797 248.787 69.7461 248.359 69.7461 247.895V247.771C69.7461 247.311 69.6797 246.885 69.5469 246.494C69.4141 246.1 69.2227 245.758 68.9727 245.469C68.7188 245.18 68.4082 244.953 68.041 244.789C67.6777 244.625 67.2637 244.543 66.7988 244.543C66.334 244.543 65.9199 244.625 65.5566 244.789C65.1934 244.953 64.8867 245.18 64.6367 245.469C64.3828 245.758 64.1895 246.1 64.0566 246.494C63.9238 246.885 63.8574 247.311 63.8574 247.771ZM65.2578 247.895V247.771C65.2578 247.494 65.2871 247.229 65.3457 246.975C65.4082 246.721 65.502 246.498 65.627 246.307C65.7559 246.115 65.916 245.963 66.1074 245.85C66.3027 245.736 66.5332 245.68 66.7988 245.68C67.0684 245.68 67.2988 245.736 67.4902 245.85C67.6855 245.963 67.8457 246.115 67.9707 246.307C68.0957 246.498 68.1895 246.721 68.252 246.975C68.3145 247.229 68.3457 247.494 68.3457 247.771V247.895C68.3457 248.18 68.3145 248.449 68.252 248.703C68.1934 248.957 68.1016 249.18 67.9766 249.371C67.8516 249.562 67.6914 249.715 67.4961 249.828C67.3008 249.938 67.0723 249.992 66.8105 249.992C66.541 249.992 66.3086 249.938 66.1133 249.828C65.918 249.715 65.7559 249.562 65.627 249.371C65.502 249.18 65.4082 248.957 65.3457 248.703C65.2871 248.449 65.2578 248.18 65.2578 247.895ZM74.1055 246.793L72.6055 244.66H71.0645L73.2852 247.783L70.9883 251H72.541L74.1172 248.785L75.6992 251H77.2461L74.9492 247.783L77.1758 244.66H75.623L74.1055 246.793ZM83.832 247.818V246.682H79.1152V247.818H83.832ZM89.8789 249.283C89.8789 249.385 89.8555 249.479 89.8086 249.564C89.7656 249.646 89.6992 249.723 89.6094 249.793C89.5 249.879 89.3535 249.947 89.1699 249.998C88.9902 250.049 88.7793 250.074 88.5371 250.074C88.3574 250.074 88.1797 250.057 88.0039 250.021C87.8281 249.982 87.6719 249.92 87.5352 249.834C87.3945 249.752 87.2773 249.645 87.1836 249.512C87.0938 249.375 87.043 249.209 87.0312 249.014H85.6719C85.6719 249.275 85.7344 249.533 85.8594 249.787C85.9844 250.041 86.168 250.266 86.4102 250.461C86.6484 250.66 86.9434 250.82 87.2949 250.941C87.6504 251.062 88.0566 251.123 88.5137 251.123C88.9238 251.123 89.2969 251.076 89.6328 250.982C89.9688 250.889 90.2578 250.758 90.5 250.59C90.7383 250.422 90.9219 250.221 91.0508 249.986C91.1836 249.752 91.25 249.494 91.25 249.213C91.25 248.924 91.1875 248.674 91.0625 248.463C90.9375 248.252 90.7617 248.068 90.5352 247.912C90.3086 247.764 90.0352 247.639 89.7148 247.537C89.3945 247.436 89.041 247.35 88.6543 247.279C88.377 247.232 88.1465 247.18 87.9629 247.121C87.7832 247.062 87.6426 246.998 87.541 246.928C87.4316 246.861 87.3555 246.785 87.3125 246.699C87.2695 246.609 87.248 246.51 87.248 246.4C87.248 246.295 87.2734 246.195 87.3242 246.102C87.375 246.004 87.4512 245.92 87.5527 245.85C87.6543 245.771 87.7832 245.711 87.9395 245.668C88.0996 245.621 88.2852 245.598 88.4961 245.598C88.7266 245.598 88.9277 245.629 89.0996 245.691C89.2715 245.75 89.4121 245.83 89.5215 245.932C89.6152 246.018 89.6855 246.115 89.7324 246.225C89.7832 246.33 89.8086 246.441 89.8086 246.559H91.209C91.209 246.273 91.1465 246.008 91.0215 245.762C90.8965 245.516 90.7188 245.303 90.4883 245.123C90.2539 244.943 89.9688 244.803 89.6328 244.701C89.2969 244.596 88.918 244.543 88.4961 244.543C88.1016 244.543 87.7422 244.594 87.418 244.695C87.0977 244.797 86.8242 244.936 86.5977 245.111C86.3672 245.287 86.1895 245.492 86.0645 245.727C85.9434 245.957 85.8828 246.201 85.8828 246.459C85.8828 246.729 85.9434 246.965 86.0645 247.168C86.1855 247.367 86.3535 247.543 86.5684 247.695C86.7871 247.852 87.0469 247.984 87.3477 248.094C87.6523 248.203 87.9883 248.295 88.3555 248.369C88.6484 248.424 88.8926 248.482 89.0879 248.545C89.2832 248.607 89.4414 248.674 89.5625 248.744C89.6758 248.822 89.7559 248.904 89.8027 248.99C89.8535 249.076 89.8789 249.174 89.8789 249.283ZM94.3438 245.562V242H92.9434V251H94.3438V246.412C94.4102 246.311 94.4863 246.219 94.5723 246.137C94.6621 246.055 94.7578 245.984 94.8594 245.926C94.9805 245.852 95.1133 245.795 95.2578 245.756C95.4062 245.717 95.5625 245.697 95.7266 245.697C95.9375 245.697 96.123 245.727 96.2832 245.785C96.4473 245.84 96.5859 245.926 96.6992 246.043C96.8086 246.152 96.8906 246.295 96.9453 246.471C97.0039 246.646 97.0332 246.852 97.0332 247.086V251H98.4336V247.098C98.4336 246.648 98.3789 246.264 98.2695 245.943C98.1641 245.619 98.0137 245.354 97.8184 245.146C97.623 244.939 97.3867 244.787 97.1094 244.689C96.8359 244.592 96.5332 244.543 96.2012 244.543C95.9629 244.543 95.7363 244.578 95.5215 244.648C95.3105 244.715 95.1172 244.812 94.9414 244.941C94.8281 245.02 94.7207 245.111 94.6191 245.217C94.5176 245.322 94.4258 245.438 94.3438 245.562ZM104.199 251H105.629V250.9C105.551 250.736 105.49 250.541 105.447 250.314C105.408 250.084 105.389 249.826 105.389 249.541V246.723C105.389 246.363 105.322 246.047 105.189 245.773C105.057 245.496 104.873 245.268 104.639 245.088C104.404 244.908 104.125 244.773 103.801 244.684C103.48 244.59 103.135 244.543 102.764 244.543C102.35 244.543 101.98 244.598 101.656 244.707C101.336 244.812 101.064 244.957 100.842 245.141C100.619 245.32 100.449 245.527 100.332 245.762C100.215 245.996 100.154 246.24 100.15 246.494H101.557C101.557 246.373 101.578 246.26 101.621 246.154C101.668 246.045 101.738 245.953 101.832 245.879C101.926 245.797 102.043 245.732 102.184 245.686C102.328 245.639 102.496 245.615 102.688 245.615C102.898 245.615 103.084 245.643 103.244 245.697C103.408 245.748 103.547 245.822 103.66 245.92C103.766 246.018 103.846 246.133 103.9 246.266C103.959 246.398 103.988 246.547 103.988 246.711V247.139H102.969C102.512 247.139 102.102 247.182 101.738 247.268C101.379 247.354 101.076 247.479 100.83 247.643C100.564 247.818 100.361 248.041 100.221 248.311C100.084 248.576 100.016 248.883 100.016 249.23C100.016 249.5 100.068 249.752 100.174 249.986C100.283 250.217 100.434 250.414 100.625 250.578C100.82 250.746 101.053 250.879 101.322 250.977C101.596 251.07 101.896 251.117 102.225 251.117C102.428 251.117 102.617 251.098 102.793 251.059C102.969 251.02 103.133 250.965 103.285 250.895C103.438 250.828 103.574 250.75 103.695 250.66C103.82 250.566 103.932 250.469 104.029 250.367C104.049 250.488 104.07 250.605 104.094 250.719C104.121 250.828 104.156 250.922 104.199 251ZM102.494 249.992C102.314 249.992 102.158 249.971 102.025 249.928C101.893 249.881 101.781 249.818 101.691 249.74C101.602 249.662 101.533 249.568 101.486 249.459C101.439 249.346 101.416 249.225 101.416 249.096C101.416 248.939 101.443 248.799 101.498 248.674C101.557 248.549 101.645 248.441 101.762 248.352C101.895 248.246 102.072 248.166 102.295 248.111C102.518 248.053 102.781 248.023 103.086 248.023H103.988V249.195C103.938 249.297 103.865 249.395 103.771 249.488C103.678 249.582 103.566 249.666 103.438 249.74C103.309 249.814 103.164 249.875 103.004 249.922C102.848 249.969 102.678 249.992 102.494 249.992ZM107.17 247.783V247.906C107.17 248.363 107.229 248.789 107.346 249.184C107.463 249.574 107.629 249.912 107.844 250.197C108.059 250.486 108.32 250.713 108.629 250.877C108.938 251.037 109.285 251.117 109.672 251.117C110.039 251.117 110.363 251.051 110.645 250.918C110.926 250.781 111.168 250.588 111.371 250.338L111.436 251H112.707V242H111.307V245.252C111.104 245.025 110.869 244.852 110.604 244.73C110.342 244.605 110.035 244.543 109.684 244.543C109.293 244.543 108.941 244.623 108.629 244.783C108.32 244.939 108.059 245.16 107.844 245.445C107.625 245.73 107.457 246.072 107.34 246.471C107.227 246.865 107.17 247.303 107.17 247.783ZM108.57 247.906V247.783C108.57 247.498 108.598 247.23 108.652 246.98C108.707 246.727 108.793 246.504 108.91 246.312C109.027 246.121 109.178 245.971 109.361 245.861C109.549 245.752 109.773 245.697 110.035 245.697C110.348 245.697 110.605 245.768 110.809 245.908C111.016 246.045 111.182 246.23 111.307 246.465V249.189C111.182 249.428 111.016 249.617 110.809 249.758C110.602 249.895 110.34 249.963 110.023 249.963C109.766 249.963 109.545 249.91 109.361 249.805C109.178 249.695 109.027 249.547 108.91 249.359C108.793 249.172 108.707 248.953 108.652 248.703C108.598 248.453 108.57 248.188 108.57 247.906ZM114.307 247.771V247.895C114.307 248.359 114.373 248.787 114.506 249.178C114.639 249.568 114.832 249.908 115.086 250.197C115.336 250.486 115.645 250.713 116.012 250.877C116.379 251.041 116.795 251.123 117.26 251.123C117.721 251.123 118.133 251.041 118.496 250.877C118.863 250.713 119.172 250.486 119.422 250.197C119.672 249.908 119.863 249.568 119.996 249.178C120.129 248.787 120.195 248.359 120.195 247.895V247.771C120.195 247.311 120.129 246.885 119.996 246.494C119.863 246.1 119.672 245.758 119.422 245.469C119.168 245.18 118.857 244.953 118.49 244.789C118.127 244.625 117.713 244.543 117.248 244.543C116.783 244.543 116.369 244.625 116.006 244.789C115.643 244.953 115.336 245.18 115.086 245.469C114.832 245.758 114.639 246.1 114.506 246.494C114.373 246.885 114.307 247.311 114.307 247.771ZM115.707 247.895V247.771C115.707 247.494 115.736 247.229 115.795 246.975C115.857 246.721 115.951 246.498 116.076 246.307C116.205 246.115 116.365 245.963 116.557 245.85C116.752 245.736 116.982 245.68 117.248 245.68C117.518 245.68 117.748 245.736 117.939 245.85C118.135 245.963 118.295 246.115 118.42 246.307C118.545 246.498 118.639 246.721 118.701 246.975C118.764 247.229 118.795 247.494 118.795 247.771V247.895C118.795 248.18 118.764 248.449 118.701 248.703C118.643 248.957 118.551 249.18 118.426 249.371C118.301 249.562 118.141 249.715 117.945 249.828C117.75 249.938 117.521 249.992 117.26 249.992C116.99 249.992 116.758 249.938 116.562 249.828C116.367 249.715 116.205 249.562 116.076 249.371C115.951 249.18 115.857 248.957 115.795 248.703C115.736 248.449 115.707 248.18 115.707 247.895ZM122.299 251H123.488L124.291 247.402L124.432 246.617L124.578 247.402L125.398 251H126.588L127.812 244.66H126.541L125.973 248.527L125.861 249.301L125.727 248.533L124.9 244.66H123.98L123.154 248.545L123.025 249.277L122.926 248.545L122.34 244.66H121.074L122.299 251Z" fill="#F78C6C"/>
<path d="M130.895 250.156C130.895 250.426 130.982 250.654 131.158 250.842C131.338 251.025 131.588 251.117 131.908 251.117C132.225 251.117 132.473 251.025 132.652 250.842C132.836 250.658 132.928 250.43 132.928 250.156C132.928 249.883 132.838 249.652 132.658 249.465C132.479 249.273 132.229 249.178 131.908 249.178C131.584 249.178 131.334 249.273 131.158 249.465C130.982 249.656 130.895 249.887 130.895 250.156ZM130.895 245.193C130.895 245.463 130.982 245.691 131.158 245.879C131.338 246.062 131.588 246.154 131.908 246.154C132.225 246.154 132.473 246.062 132.652 245.879C132.836 245.695 132.928 245.467 132.928 245.193C132.928 244.92 132.838 244.689 132.658 244.502C132.479 244.311 132.229 244.215 131.908 244.215C131.584 244.215 131.334 244.311 131.158 244.502C130.982 244.693 130.895 244.924 130.895 245.193ZM173.363 247.531V247.631C173.363 248.189 173.406 248.713 173.492 249.201C173.578 249.686 173.693 250.135 173.838 250.549C173.982 250.967 174.15 251.346 174.342 251.686C174.537 252.029 174.742 252.334 174.957 252.6C175.172 252.865 175.391 253.09 175.613 253.273C175.836 253.461 176.051 253.605 176.258 253.707L176.539 252.922C176.383 252.801 176.227 252.65 176.07 252.471C175.914 252.291 175.764 252.084 175.619 251.85C175.479 251.619 175.348 251.354 175.227 251.053C175.105 250.752 174.998 250.426 174.904 250.074C174.83 249.781 174.766 249.426 174.711 249.008C174.656 248.586 174.629 248.131 174.629 247.643V247.52C174.629 247.02 174.656 246.555 174.711 246.125C174.77 245.695 174.848 245.303 174.945 244.947C175.051 244.568 175.176 244.219 175.32 243.898C175.469 243.578 175.627 243.299 175.795 243.061C175.916 242.893 176.039 242.742 176.164 242.609C176.289 242.477 176.414 242.363 176.539 242.27L176.258 241.455C176.051 241.557 175.836 241.701 175.613 241.889C175.391 242.072 175.174 242.297 174.963 242.562C174.748 242.828 174.543 243.133 174.348 243.477C174.156 243.82 173.986 244.197 173.838 244.607C173.693 245.025 173.578 245.48 173.492 245.973C173.406 246.461 173.363 246.98 173.363 247.531ZM196.93 250.818V249.635H195.553V250.871C195.553 251.258 195.506 251.605 195.412 251.914C195.322 252.223 195.193 252.516 195.025 252.793L195.811 253.209C196.146 252.908 196.416 252.539 196.619 252.102C196.826 251.668 196.93 251.24 196.93 250.818ZM225.758 250.818V249.635H224.381V250.871C224.381 251.258 224.334 251.605 224.24 251.914C224.15 252.223 224.021 252.516 223.854 252.793L224.639 253.209C224.975 252.908 225.244 252.539 225.447 252.102C225.654 251.668 225.758 251.24 225.758 250.818ZM254.586 250.818V249.635H253.209V250.871C253.209 251.258 253.162 251.605 253.068 251.914C252.979 252.223 252.85 252.516 252.682 252.793L253.467 253.209C253.803 252.908 254.072 252.539 254.275 252.102C254.482 251.668 254.586 251.24 254.586 250.818ZM298.918 247.631V247.531C298.918 246.973 298.873 246.455 298.783 245.979C298.693 245.498 298.576 245.051 298.432 244.637C298.287 244.219 298.117 243.84 297.922 243.5C297.727 243.156 297.518 242.848 297.295 242.574C297.08 242.309 296.857 242.082 296.627 241.895C296.4 241.703 296.182 241.557 295.971 241.455L295.695 242.24C295.816 242.334 295.939 242.451 296.064 242.592C296.193 242.729 296.316 242.885 296.434 243.061C296.602 243.307 296.762 243.598 296.914 243.934C297.07 244.27 297.203 244.648 297.312 245.07C297.395 245.395 297.463 245.762 297.518 246.172C297.572 246.582 297.6 247.031 297.6 247.52V247.643C297.6 248.115 297.574 248.555 297.523 248.961C297.477 249.367 297.41 249.742 297.324 250.086C297.234 250.457 297.123 250.795 296.99 251.1C296.861 251.408 296.723 251.684 296.574 251.926C296.434 252.145 296.289 252.338 296.141 252.506C295.992 252.674 295.844 252.812 295.695 252.922L295.971 253.707C296.182 253.605 296.4 253.461 296.627 253.273C296.854 253.086 297.076 252.855 297.295 252.582C297.514 252.316 297.721 252.012 297.916 251.668C298.111 251.324 298.283 250.943 298.432 250.525C298.58 250.111 298.697 249.662 298.783 249.178C298.873 248.693 298.918 248.178 298.918 247.631ZM440.908 245.193C440.908 245.463 440.996 245.691 441.172 245.879C441.352 246.062 441.602 246.154 441.922 246.154C442.238 246.154 442.486 246.062 442.666 245.879C442.85 245.695 442.941 245.467 442.941 245.193C442.941 244.92 442.852 244.689 442.672 244.502C442.492 244.311 442.242 244.215 441.922 244.215C441.598 244.215 441.348 244.311 441.172 244.502C440.996 244.693 440.908 244.924 440.908 245.193ZM442.555 250.818V249.635H441.178V250.871C441.178 251.258 441.131 251.605 441.037 251.914C440.947 252.223 440.818 252.516 440.65 252.793L441.436 253.209C441.771 252.908 442.041 252.539 442.244 252.102C442.451 251.668 442.555 251.24 442.555 250.818Z" fill="white"/>
<path d="M147.775 244.543C147.338 244.543 146.938 244.645 146.574 244.848C146.215 245.051 145.906 245.33 145.648 245.686L145.643 245.539L145.584 244.66H144.271V251H145.672V247.086C145.746 246.898 145.838 246.732 145.947 246.588C146.057 246.443 146.189 246.324 146.346 246.23C146.49 246.133 146.656 246.061 146.844 246.014C147.031 245.967 147.242 245.943 147.477 245.943C147.684 245.943 147.891 245.955 148.098 245.979C148.309 246.002 148.521 246.037 148.736 246.084L148.936 244.701C148.814 244.658 148.646 244.621 148.432 244.59C148.221 244.559 148.002 244.543 147.775 244.543ZM150.418 247.783V247.906C150.418 248.363 150.477 248.789 150.594 249.184C150.715 249.574 150.887 249.912 151.109 250.197C151.328 250.486 151.594 250.713 151.906 250.877C152.219 251.037 152.57 251.117 152.961 251.117C153.176 251.117 153.375 251.094 153.559 251.047C153.742 251.004 153.91 250.939 154.062 250.854C154.164 250.799 154.258 250.734 154.344 250.66C154.434 250.586 154.52 250.506 154.602 250.42V250.859C154.602 251.098 154.566 251.311 154.496 251.498C154.43 251.686 154.334 251.844 154.209 251.973C154.072 252.105 153.906 252.207 153.711 252.277C153.52 252.348 153.299 252.383 153.049 252.383C152.904 252.383 152.762 252.367 152.621 252.336C152.48 252.309 152.342 252.264 152.205 252.201C152.068 252.139 151.934 252.057 151.801 251.955C151.672 251.857 151.551 251.74 151.438 251.604L150.775 252.453C150.916 252.641 151.084 252.801 151.279 252.934C151.475 253.066 151.68 253.174 151.895 253.256C152.109 253.338 152.324 253.398 152.539 253.438C152.754 253.477 152.951 253.496 153.131 253.496C153.557 253.496 153.945 253.436 154.297 253.314C154.652 253.197 154.957 253.025 155.211 252.799C155.461 252.568 155.654 252.287 155.791 251.955C155.932 251.627 156.002 251.25 156.002 250.824V244.66H154.73L154.672 245.299C154.594 245.205 154.51 245.119 154.42 245.041C154.33 244.959 154.234 244.889 154.133 244.83C153.977 244.736 153.803 244.666 153.611 244.619C153.42 244.568 153.207 244.543 152.973 244.543C152.578 244.543 152.223 244.623 151.906 244.783C151.594 244.939 151.326 245.16 151.104 245.445C150.885 245.73 150.715 246.072 150.594 246.471C150.477 246.865 150.418 247.303 150.418 247.783ZM151.824 247.906V247.783C151.824 247.498 151.854 247.23 151.912 246.98C151.971 246.727 152.062 246.504 152.188 246.312C152.309 246.121 152.463 245.971 152.65 245.861C152.838 245.752 153.062 245.697 153.324 245.697C153.473 245.697 153.609 245.715 153.734 245.75C153.859 245.781 153.973 245.826 154.074 245.885C154.188 245.947 154.287 246.025 154.373 246.119C154.463 246.213 154.539 246.318 154.602 246.436V249.213C154.539 249.326 154.467 249.43 154.385 249.523C154.303 249.617 154.209 249.697 154.104 249.764C153.998 249.826 153.879 249.875 153.746 249.91C153.617 249.945 153.473 249.963 153.312 249.963C153.055 249.963 152.832 249.91 152.645 249.805C152.457 249.695 152.303 249.545 152.182 249.354C152.057 249.17 151.965 248.953 151.906 248.703C151.852 248.453 151.824 248.188 151.824 247.906ZM163.379 247.895V247.771C163.379 247.412 163.346 247.072 163.279 246.752C163.217 246.432 163.123 246.141 162.998 245.879C162.904 245.691 162.795 245.52 162.67 245.363C162.549 245.203 162.41 245.068 162.254 244.959C162.07 244.826 161.863 244.725 161.633 244.654C161.406 244.58 161.156 244.543 160.883 244.543C160.676 244.543 160.482 244.564 160.303 244.607C160.127 244.646 159.965 244.707 159.816 244.789C159.703 244.852 159.598 244.924 159.5 245.006C159.402 245.088 159.312 245.18 159.23 245.281V242H157.83V251H159.096L159.16 250.309C159.23 250.395 159.303 250.475 159.377 250.549C159.455 250.619 159.537 250.686 159.623 250.748C159.791 250.869 159.98 250.961 160.191 251.023C160.402 251.086 160.637 251.117 160.895 251.117C161.148 251.117 161.383 251.084 161.598 251.018C161.816 250.955 162.014 250.865 162.189 250.748C162.408 250.604 162.596 250.422 162.752 250.203C162.908 249.984 163.033 249.74 163.127 249.471C163.209 249.244 163.271 248.998 163.314 248.732C163.357 248.467 163.379 248.188 163.379 247.895ZM161.979 247.771V247.895C161.979 248.07 161.969 248.24 161.949 248.404C161.93 248.568 161.9 248.721 161.861 248.861C161.814 249.049 161.746 249.219 161.656 249.371C161.57 249.52 161.459 249.643 161.322 249.74C161.221 249.811 161.105 249.867 160.977 249.91C160.848 249.949 160.703 249.969 160.543 249.969C160.367 249.969 160.207 249.947 160.062 249.904C159.922 249.857 159.797 249.795 159.688 249.717C159.59 249.643 159.502 249.559 159.424 249.465C159.35 249.367 159.285 249.26 159.23 249.143V246.518C159.277 246.416 159.332 246.322 159.395 246.236C159.461 246.146 159.535 246.068 159.617 246.002C159.73 245.904 159.863 245.83 160.016 245.779C160.168 245.725 160.34 245.697 160.531 245.697C160.688 245.697 160.828 245.715 160.953 245.75C161.078 245.785 161.189 245.838 161.287 245.908C161.436 246.01 161.553 246.135 161.639 246.283C161.729 246.428 161.801 246.59 161.855 246.77C161.895 246.918 161.924 247.078 161.943 247.25C161.967 247.418 161.979 247.592 161.979 247.771ZM169.062 251H170.492V250.9C170.414 250.736 170.354 250.541 170.311 250.314C170.271 250.084 170.252 249.826 170.252 249.541V246.723C170.252 246.363 170.186 246.047 170.053 245.773C169.92 245.496 169.736 245.268 169.502 245.088C169.268 244.908 168.988 244.773 168.664 244.684C168.344 244.59 167.998 244.543 167.627 244.543C167.213 244.543 166.844 244.598 166.52 244.707C166.199 244.812 165.928 244.957 165.705 245.141C165.482 245.32 165.312 245.527 165.195 245.762C165.078 245.996 165.018 246.24 165.014 246.494H166.42C166.42 246.373 166.441 246.26 166.484 246.154C166.531 246.045 166.602 245.953 166.695 245.879C166.789 245.797 166.906 245.732 167.047 245.686C167.191 245.639 167.359 245.615 167.551 245.615C167.762 245.615 167.947 245.643 168.107 245.697C168.271 245.748 168.41 245.822 168.523 245.92C168.629 246.018 168.709 246.133 168.764 246.266C168.822 246.398 168.852 246.547 168.852 246.711V247.139H167.832C167.375 247.139 166.965 247.182 166.602 247.268C166.242 247.354 165.939 247.479 165.693 247.643C165.428 247.818 165.225 248.041 165.084 248.311C164.947 248.576 164.879 248.883 164.879 249.23C164.879 249.5 164.932 249.752 165.037 249.986C165.146 250.217 165.297 250.414 165.488 250.578C165.684 250.746 165.916 250.879 166.186 250.977C166.459 251.07 166.76 251.117 167.088 251.117C167.291 251.117 167.48 251.098 167.656 251.059C167.832 251.02 167.996 250.965 168.148 250.895C168.301 250.828 168.438 250.75 168.559 250.66C168.684 250.566 168.795 250.469 168.893 250.367C168.912 250.488 168.934 250.605 168.957 250.719C168.984 250.828 169.02 250.922 169.062 251ZM167.357 249.992C167.178 249.992 167.021 249.971 166.889 249.928C166.756 249.881 166.645 249.818 166.555 249.74C166.465 249.662 166.396 249.568 166.35 249.459C166.303 249.346 166.279 249.225 166.279 249.096C166.279 248.939 166.307 248.799 166.361 248.674C166.42 248.549 166.508 248.441 166.625 248.352C166.758 248.246 166.936 248.166 167.158 248.111C167.381 248.053 167.645 248.023 167.949 248.023H168.852V249.195C168.801 249.297 168.729 249.395 168.635 249.488C168.541 249.582 168.43 249.666 168.301 249.74C168.172 249.814 168.027 249.875 167.867 249.922C167.711 249.969 167.541 249.992 167.357 249.992Z" fill="#7DD8C7"/>
<path d="M183.219 251V242.469H183.131L179.621 243.77V245.006L181.807 244.203V251H183.219ZM192.137 243.254V242.469H186.236V243.641H190.66L187.25 251H188.727L192.137 243.254ZM212.047 251V242.469H211.959L208.449 243.77V245.006L210.635 244.203V251H212.047ZM220.895 251V249.869H216.922L218.82 247.842C219.07 247.576 219.301 247.318 219.512 247.068C219.727 246.818 219.912 246.57 220.068 246.324C220.221 246.078 220.34 245.83 220.426 245.58C220.516 245.326 220.561 245.064 220.561 244.795C220.561 244.436 220.502 244.107 220.385 243.811C220.268 243.51 220.098 243.252 219.875 243.037C219.648 242.822 219.369 242.654 219.037 242.533C218.709 242.412 218.336 242.352 217.918 242.352C217.473 242.352 217.068 242.424 216.705 242.568C216.346 242.713 216.041 242.908 215.791 243.154C215.537 243.4 215.342 243.689 215.205 244.021C215.068 244.35 215 244.699 215 245.07H216.406C216.406 244.824 216.438 244.605 216.5 244.414C216.562 244.219 216.656 244.055 216.781 243.922C216.902 243.789 217.055 243.688 217.238 243.617C217.422 243.547 217.639 243.512 217.889 243.512C218.084 243.512 218.26 243.545 218.416 243.611C218.576 243.678 218.713 243.77 218.826 243.887C218.939 244.004 219.025 244.145 219.084 244.309C219.143 244.473 219.172 244.654 219.172 244.854C219.172 245.002 219.15 245.15 219.107 245.299C219.068 245.443 219.002 245.6 218.908 245.768C218.811 245.936 218.684 246.121 218.527 246.324C218.371 246.523 218.178 246.75 217.947 247.004L215.17 250.027V251H220.895ZM241.689 247.959V242.469H240.248L236.562 248.234L236.598 249.096H240.289V251H241.689V249.096H242.762V247.959H241.689ZM237.992 247.959L240.125 244.648L240.289 244.344V247.959H237.992ZM248.475 242.428H248.311C247.646 242.428 247.057 242.531 246.541 242.738C246.025 242.945 245.592 243.242 245.24 243.629C244.826 244.078 244.529 244.615 244.35 245.24C244.174 245.861 244.086 246.516 244.086 247.203V247.783C244.086 248.24 244.152 248.676 244.285 249.09C244.418 249.5 244.611 249.857 244.865 250.162C245.111 250.455 245.41 250.688 245.762 250.859C246.113 251.031 246.514 251.117 246.963 251.117C247.4 251.117 247.789 251.043 248.129 250.895C248.473 250.742 248.764 250.533 249.002 250.268C249.236 250.006 249.414 249.699 249.535 249.348C249.66 248.992 249.723 248.611 249.723 248.205C249.723 247.834 249.674 247.477 249.576 247.133C249.482 246.789 249.334 246.484 249.131 246.219C248.932 245.953 248.678 245.742 248.369 245.586C248.064 245.43 247.705 245.352 247.291 245.352C247.096 245.352 246.91 245.375 246.734 245.422C246.559 245.465 246.396 245.525 246.248 245.604C246.1 245.678 245.963 245.766 245.838 245.867C245.713 245.965 245.604 246.066 245.51 246.172C245.541 245.809 245.621 245.469 245.75 245.152C245.883 244.836 246.068 244.564 246.307 244.338C246.541 244.111 246.828 243.936 247.168 243.811C247.512 243.682 247.916 243.617 248.381 243.617H248.475V242.428ZM246.945 246.488C247.172 246.488 247.371 246.535 247.543 246.629C247.719 246.719 247.865 246.844 247.982 247.004C248.1 247.164 248.188 247.352 248.246 247.566C248.309 247.777 248.34 248.002 248.34 248.24C248.34 248.49 248.309 248.723 248.246 248.938C248.184 249.148 248.092 249.332 247.971 249.488C247.85 249.641 247.703 249.762 247.531 249.852C247.359 249.938 247.164 249.98 246.945 249.98C246.746 249.98 246.559 249.936 246.383 249.846C246.207 249.756 246.053 249.625 245.92 249.453C245.787 249.281 245.682 249.066 245.604 248.809C245.529 248.551 245.492 248.252 245.492 247.912V247.479C245.555 247.334 245.633 247.203 245.727 247.086C245.82 246.969 245.926 246.865 246.043 246.775C246.172 246.686 246.312 246.615 246.465 246.564C246.617 246.514 246.777 246.488 246.945 246.488ZM271.385 247.748V245.727C271.385 245.18 271.32 244.697 271.191 244.279C271.062 243.857 270.881 243.502 270.646 243.213C270.404 242.928 270.111 242.713 269.768 242.568C269.428 242.42 269.041 242.346 268.607 242.346C268.178 242.346 267.791 242.42 267.447 242.568C267.107 242.713 266.818 242.928 266.58 243.213C266.342 243.502 266.158 243.857 266.029 244.279C265.904 244.697 265.842 245.18 265.842 245.727V247.748C265.842 248.295 265.904 248.779 266.029 249.201C266.158 249.619 266.344 249.971 266.586 250.256C266.824 250.541 267.115 250.758 267.459 250.906C267.803 251.051 268.189 251.123 268.619 251.123C269.053 251.123 269.439 251.051 269.779 250.906C270.123 250.758 270.412 250.541 270.646 250.256C270.885 249.971 271.066 249.619 271.191 249.201C271.32 248.779 271.385 248.295 271.385 247.748ZM267.248 247.25C267.248 247.137 267.248 247.041 267.248 246.963C267.248 246.885 267.248 246.771 267.248 246.623V245.475C267.248 245.123 267.279 244.818 267.342 244.561C267.404 244.299 267.5 244.086 267.629 243.922C267.738 243.777 267.875 243.668 268.039 243.594C268.203 243.52 268.393 243.482 268.607 243.482C268.811 243.482 268.99 243.514 269.146 243.576C269.303 243.639 269.436 243.732 269.545 243.857C269.67 243.998 269.766 244.18 269.832 244.402C269.902 244.625 269.945 244.889 269.961 245.193L267.248 247.25ZM269.973 247.982C269.973 248.342 269.941 248.654 269.879 248.92C269.816 249.186 269.719 249.4 269.586 249.564C269.473 249.705 269.336 249.812 269.176 249.887C269.016 249.957 268.83 249.992 268.619 249.992C268.404 249.992 268.215 249.955 268.051 249.881C267.891 249.807 267.756 249.695 267.646 249.547C267.537 249.41 267.449 249.238 267.383 249.031C267.32 248.824 267.279 248.586 267.26 248.316L269.973 246.271C269.973 246.385 269.973 246.494 269.973 246.6C269.973 246.701 269.973 246.803 269.973 246.904V247.982ZM274.865 250.156C274.865 250.426 274.953 250.654 275.129 250.842C275.309 251.025 275.559 251.117 275.879 251.117C276.195 251.117 276.443 251.025 276.623 250.842C276.807 250.658 276.898 250.43 276.898 250.156C276.898 249.883 276.809 249.652 276.629 249.465C276.449 249.273 276.199 249.178 275.879 249.178C275.555 249.178 275.305 249.273 275.129 249.465C274.953 249.656 274.865 249.887 274.865 250.156ZM284.117 251V242.469H284.029L280.52 243.77V245.006L282.705 244.203V251H284.117ZM287.744 246.77L288.863 247.045C288.938 246.975 289.014 246.91 289.092 246.852C289.174 246.789 289.264 246.734 289.361 246.688C289.455 246.645 289.562 246.609 289.684 246.582C289.809 246.555 289.955 246.541 290.123 246.541C290.377 246.541 290.6 246.584 290.791 246.67C290.982 246.752 291.143 246.869 291.271 247.021C291.4 247.174 291.496 247.354 291.559 247.561C291.625 247.764 291.658 247.988 291.658 248.234C291.658 248.488 291.631 248.725 291.576 248.943C291.521 249.158 291.438 249.342 291.324 249.494C291.211 249.65 291.068 249.771 290.896 249.857C290.725 249.943 290.521 249.986 290.287 249.986C289.889 249.986 289.561 249.875 289.303 249.652C289.049 249.43 288.896 249.109 288.846 248.691H287.48C287.504 249.086 287.596 249.436 287.756 249.74C287.92 250.041 288.129 250.293 288.383 250.496C288.637 250.703 288.928 250.859 289.256 250.965C289.584 251.066 289.928 251.117 290.287 251.117C290.76 251.117 291.17 251.043 291.518 250.895C291.865 250.746 292.152 250.543 292.379 250.285C292.609 250.027 292.779 249.727 292.889 249.383C293.002 249.035 293.059 248.666 293.059 248.275C293.059 247.834 293 247.438 292.883 247.086C292.766 246.73 292.596 246.43 292.373 246.184C292.154 245.934 291.885 245.742 291.564 245.609C291.248 245.477 290.889 245.41 290.486 245.41C290.189 245.41 289.926 245.447 289.695 245.521C289.469 245.596 289.285 245.674 289.145 245.756L289.367 243.711H292.789V242.469H288.207L287.744 246.77ZM314.627 247.748V245.727C314.627 245.18 314.562 244.697 314.434 244.279C314.305 243.857 314.123 243.502 313.889 243.213C313.646 242.928 313.354 242.713 313.01 242.568C312.67 242.42 312.283 242.346 311.85 242.346C311.42 242.346 311.033 242.42 310.689 242.568C310.35 242.713 310.061 242.928 309.822 243.213C309.584 243.502 309.4 243.857 309.271 244.279C309.146 244.697 309.084 245.18 309.084 245.727V247.748C309.084 248.295 309.146 248.779 309.271 249.201C309.4 249.619 309.586 249.971 309.828 250.256C310.066 250.541 310.357 250.758 310.701 250.906C311.045 251.051 311.432 251.123 311.861 251.123C312.295 251.123 312.682 251.051 313.021 250.906C313.365 250.758 313.654 250.541 313.889 250.256C314.127 249.971 314.309 249.619 314.434 249.201C314.562 248.779 314.627 248.295 314.627 247.748ZM310.49 247.25C310.49 247.137 310.49 247.041 310.49 246.963C310.49 246.885 310.49 246.771 310.49 246.623V245.475C310.49 245.123 310.521 244.818 310.584 244.561C310.646 244.299 310.742 244.086 310.871 243.922C310.98 243.777 311.117 243.668 311.281 243.594C311.445 243.52 311.635 243.482 311.85 243.482C312.053 243.482 312.232 243.514 312.389 243.576C312.545 243.639 312.678 243.732 312.787 243.857C312.912 243.998 313.008 244.18 313.074 244.402C313.145 244.625 313.188 244.889 313.203 245.193L310.49 247.25ZM313.215 247.982C313.215 248.342 313.184 248.654 313.121 248.92C313.059 249.186 312.961 249.4 312.828 249.564C312.715 249.705 312.578 249.812 312.418 249.887C312.258 249.957 312.072 249.992 311.861 249.992C311.646 249.992 311.457 249.955 311.293 249.881C311.133 249.807 310.998 249.695 310.889 249.547C310.779 249.41 310.691 249.238 310.625 249.031C310.562 248.824 310.521 248.586 310.502 248.316L313.215 246.271C313.215 246.385 313.215 246.494 313.215 246.6C313.215 246.701 313.215 246.803 313.215 246.904V247.982ZM316.373 253.438H317.773V250.426C317.848 250.508 317.928 250.584 318.014 250.654C318.1 250.721 318.189 250.783 318.283 250.842C318.443 250.932 318.617 251 318.805 251.047C318.996 251.094 319.205 251.117 319.432 251.117C319.83 251.117 320.184 251.035 320.492 250.871C320.801 250.707 321.061 250.48 321.271 250.191C321.482 249.906 321.641 249.566 321.746 249.172C321.855 248.777 321.91 248.352 321.91 247.895V247.771C321.91 247.295 321.855 246.859 321.746 246.465C321.641 246.066 321.482 245.725 321.271 245.439C321.061 245.154 320.799 244.934 320.486 244.777C320.178 244.621 319.82 244.543 319.414 244.543C319.207 244.543 319.012 244.566 318.828 244.613C318.645 244.656 318.477 244.719 318.324 244.801C318.207 244.863 318.098 244.938 317.996 245.023C317.895 245.109 317.801 245.205 317.715 245.311L317.662 244.66H316.373V253.438ZM320.51 247.771V247.895C320.51 248.176 320.482 248.443 320.428 248.697C320.373 248.947 320.285 249.17 320.164 249.365C320.047 249.557 319.895 249.709 319.707 249.822C319.523 249.932 319.301 249.986 319.039 249.986C318.879 249.986 318.732 249.969 318.6 249.934C318.467 249.895 318.348 249.844 318.242 249.781C318.141 249.715 318.051 249.637 317.973 249.547C317.895 249.457 317.828 249.357 317.773 249.248V246.43C317.836 246.312 317.908 246.207 317.99 246.113C318.076 246.02 318.176 245.941 318.289 245.879C318.387 245.82 318.498 245.775 318.623 245.744C318.748 245.713 318.883 245.697 319.027 245.697C319.289 245.697 319.514 245.752 319.701 245.861C319.889 245.971 320.043 246.119 320.164 246.307C320.281 246.494 320.367 246.715 320.422 246.969C320.48 247.219 320.51 247.486 320.51 247.771ZM326.352 246.793L324.852 244.66H323.311L325.531 247.783L323.234 251H324.787L326.363 248.785L327.945 251H329.492L327.195 247.783L329.422 244.66H327.869L326.352 246.793ZM342.588 247.959V242.469H341.146L337.461 248.234L337.496 249.096H341.188V251H342.588V249.096H343.66V247.959H342.588ZM338.891 247.959L341.023 244.648L341.188 244.344V247.959H338.891ZM350.498 244.719C350.498 244.34 350.432 244.004 350.299 243.711C350.17 243.418 349.988 243.17 349.754 242.967C349.52 242.764 349.242 242.611 348.922 242.51C348.602 242.404 348.254 242.352 347.879 242.352C347.5 242.352 347.15 242.404 346.83 242.51C346.514 242.611 346.242 242.764 346.016 242.967C345.785 243.17 345.604 243.418 345.471 243.711C345.342 244.004 345.277 244.34 345.277 244.719C345.277 244.93 345.307 245.131 345.365 245.322C345.424 245.514 345.506 245.689 345.611 245.85C345.713 246.006 345.836 246.148 345.98 246.277C346.129 246.406 346.293 246.516 346.473 246.605C346.262 246.703 346.07 246.822 345.898 246.963C345.73 247.1 345.586 247.254 345.465 247.426C345.344 247.605 345.25 247.801 345.184 248.012C345.121 248.223 345.09 248.445 345.09 248.68C345.09 249.078 345.16 249.43 345.301 249.734C345.445 250.035 345.645 250.287 345.898 250.49C346.148 250.697 346.443 250.854 346.783 250.959C347.127 251.064 347.498 251.117 347.896 251.117C348.287 251.117 348.652 251.064 348.992 250.959C349.332 250.854 349.627 250.697 349.877 250.49C350.127 250.287 350.324 250.033 350.469 249.729C350.613 249.424 350.686 249.074 350.686 248.68C350.686 248.402 350.641 248.145 350.551 247.906C350.461 247.668 350.336 247.455 350.176 247.268C350.062 247.127 349.93 247.004 349.777 246.898C349.629 246.789 349.467 246.693 349.291 246.611C349.439 246.537 349.574 246.451 349.695 246.354C349.816 246.256 349.924 246.15 350.018 246.037C350.17 245.861 350.287 245.662 350.369 245.439C350.455 245.217 350.498 244.977 350.498 244.719ZM349.285 248.604C349.285 248.822 349.25 249.018 349.18 249.189C349.109 249.357 349.014 249.502 348.893 249.623C348.771 249.74 348.625 249.83 348.453 249.893C348.285 249.955 348.1 249.986 347.896 249.986C347.686 249.986 347.494 249.957 347.322 249.898C347.15 249.836 347.004 249.748 346.883 249.635C346.758 249.518 346.662 249.373 346.596 249.201C346.529 249.025 346.496 248.826 346.496 248.604C346.496 248.393 346.527 248.201 346.59 248.029C346.656 247.854 346.75 247.701 346.871 247.572C346.992 247.451 347.137 247.357 347.305 247.291C347.477 247.225 347.67 247.191 347.885 247.191C348.092 247.191 348.281 247.225 348.453 247.291C348.625 247.357 348.773 247.451 348.898 247.572C349.02 247.701 349.113 247.854 349.18 248.029C349.25 248.201 349.285 248.393 349.285 248.604ZM349.104 244.771C349.104 244.963 349.074 245.139 349.016 245.299C348.957 245.455 348.875 245.59 348.77 245.703C348.664 245.812 348.537 245.898 348.389 245.961C348.24 246.023 348.074 246.055 347.891 246.055C347.707 246.055 347.541 246.023 347.393 245.961C347.244 245.898 347.117 245.812 347.012 245.703C346.902 245.59 346.82 245.455 346.766 245.299C346.711 245.139 346.684 244.963 346.684 244.771C346.684 244.576 346.711 244.398 346.766 244.238C346.82 244.078 346.9 243.943 347.006 243.834C347.107 243.725 347.23 243.641 347.375 243.582C347.523 243.52 347.691 243.488 347.879 243.488C348.062 243.488 348.229 243.52 348.377 243.582C348.525 243.645 348.654 243.732 348.764 243.846C348.869 243.959 348.951 244.094 349.01 244.25C349.072 244.406 349.104 244.58 349.104 244.771ZM352.408 253.438H353.809V250.426C353.883 250.508 353.963 250.584 354.049 250.654C354.135 250.721 354.225 250.783 354.318 250.842C354.479 250.932 354.652 251 354.84 251.047C355.031 251.094 355.24 251.117 355.467 251.117C355.865 251.117 356.219 251.035 356.527 250.871C356.836 250.707 357.096 250.48 357.307 250.191C357.518 249.906 357.676 249.566 357.781 249.172C357.891 248.777 357.945 248.352 357.945 247.895V247.771C357.945 247.295 357.891 246.859 357.781 246.465C357.676 246.066 357.518 245.725 357.307 245.439C357.096 245.154 356.834 244.934 356.521 244.777C356.213 244.621 355.855 244.543 355.449 244.543C355.242 244.543 355.047 244.566 354.863 244.613C354.68 244.656 354.512 244.719 354.359 244.801C354.242 244.863 354.133 244.938 354.031 245.023C353.93 245.109 353.836 245.205 353.75 245.311L353.697 244.66H352.408V253.438ZM356.545 247.771V247.895C356.545 248.176 356.518 248.443 356.463 248.697C356.408 248.947 356.32 249.17 356.199 249.365C356.082 249.557 355.93 249.709 355.742 249.822C355.559 249.932 355.336 249.986 355.074 249.986C354.914 249.986 354.768 249.969 354.635 249.934C354.502 249.895 354.383 249.844 354.277 249.781C354.176 249.715 354.086 249.637 354.008 249.547C353.93 249.457 353.863 249.357 353.809 249.248V246.43C353.871 246.312 353.943 246.207 354.025 246.113C354.111 246.02 354.211 245.941 354.324 245.879C354.422 245.82 354.533 245.775 354.658 245.744C354.783 245.713 354.918 245.697 355.062 245.697C355.324 245.697 355.549 245.752 355.736 245.861C355.924 245.971 356.078 246.119 356.199 246.307C356.316 246.494 356.402 246.715 356.457 246.969C356.516 247.219 356.545 247.486 356.545 247.771ZM362.387 246.793L360.887 244.66H359.346L361.566 247.783L359.27 251H360.822L362.398 248.785L363.98 251H365.527L363.23 247.783L365.457 244.66H363.904L362.387 246.793ZM377.809 251V242.469H377.721L374.211 243.77V245.006L376.396 244.203V251H377.809ZM386.697 247.748V245.727C386.697 245.18 386.633 244.697 386.504 244.279C386.375 243.857 386.193 243.502 385.959 243.213C385.717 242.928 385.424 242.713 385.08 242.568C384.74 242.42 384.354 242.346 383.92 242.346C383.49 242.346 383.104 242.42 382.76 242.568C382.42 242.713 382.131 242.928 381.893 243.213C381.654 243.502 381.471 243.857 381.342 244.279C381.217 244.697 381.154 245.18 381.154 245.727V247.748C381.154 248.295 381.217 248.779 381.342 249.201C381.471 249.619 381.656 249.971 381.898 250.256C382.137 250.541 382.428 250.758 382.771 250.906C383.115 251.051 383.502 251.123 383.932 251.123C384.365 251.123 384.752 251.051 385.092 250.906C385.436 250.758 385.725 250.541 385.959 250.256C386.197 249.971 386.379 249.619 386.504 249.201C386.633 248.779 386.697 248.295 386.697 247.748ZM382.561 247.25C382.561 247.137 382.561 247.041 382.561 246.963C382.561 246.885 382.561 246.771 382.561 246.623V245.475C382.561 245.123 382.592 244.818 382.654 244.561C382.717 244.299 382.812 244.086 382.941 243.922C383.051 243.777 383.188 243.668 383.352 243.594C383.516 243.52 383.705 243.482 383.92 243.482C384.123 243.482 384.303 243.514 384.459 243.576C384.615 243.639 384.748 243.732 384.857 243.857C384.982 243.998 385.078 244.18 385.145 244.402C385.215 244.625 385.258 244.889 385.273 245.193L382.561 247.25ZM385.285 247.982C385.285 248.342 385.254 248.654 385.191 248.92C385.129 249.186 385.031 249.4 384.898 249.564C384.785 249.705 384.648 249.812 384.488 249.887C384.328 249.957 384.143 249.992 383.932 249.992C383.717 249.992 383.527 249.955 383.363 249.881C383.203 249.807 383.068 249.695 382.959 249.547C382.85 249.41 382.762 249.238 382.695 249.031C382.633 248.824 382.592 248.586 382.572 248.316L385.285 246.271C385.285 246.385 385.285 246.494 385.285 246.6C385.285 246.701 385.285 246.803 385.285 246.904V247.982ZM393.904 247.748V245.727C393.904 245.18 393.84 244.697 393.711 244.279C393.582 243.857 393.4 243.502 393.166 243.213C392.924 242.928 392.631 242.713 392.287 242.568C391.947 242.42 391.561 242.346 391.127 242.346C390.697 242.346 390.311 242.42 389.967 242.568C389.627 242.713 389.338 242.928 389.1 243.213C388.861 243.502 388.678 243.857 388.549 244.279C388.424 244.697 388.361 245.18 388.361 245.727V247.748C388.361 248.295 388.424 248.779 388.549 249.201C388.678 249.619 388.863 249.971 389.105 250.256C389.344 250.541 389.635 250.758 389.979 250.906C390.322 251.051 390.709 251.123 391.139 251.123C391.572 251.123 391.959 251.051 392.299 250.906C392.643 250.758 392.932 250.541 393.166 250.256C393.404 249.971 393.586 249.619 393.711 249.201C393.84 248.779 393.904 248.295 393.904 247.748ZM389.768 247.25C389.768 247.137 389.768 247.041 389.768 246.963C389.768 246.885 389.768 246.771 389.768 246.623V245.475C389.768 245.123 389.799 244.818 389.861 244.561C389.924 244.299 390.02 244.086 390.148 243.922C390.258 243.777 390.395 243.668 390.559 243.594C390.723 243.52 390.912 243.482 391.127 243.482C391.33 243.482 391.51 243.514 391.666 243.576C391.822 243.639 391.955 243.732 392.064 243.857C392.189 243.998 392.285 244.18 392.352 244.402C392.422 244.625 392.465 244.889 392.48 245.193L389.768 247.25ZM392.492 247.982C392.492 248.342 392.461 248.654 392.398 248.92C392.336 249.186 392.238 249.4 392.105 249.564C391.992 249.705 391.855 249.812 391.695 249.887C391.535 249.957 391.35 249.992 391.139 249.992C390.924 249.992 390.734 249.955 390.57 249.881C390.41 249.807 390.275 249.695 390.166 249.547C390.057 249.41 389.969 249.238 389.902 249.031C389.84 248.824 389.799 248.586 389.779 248.316L392.492 246.271C392.492 246.385 392.492 246.494 392.492 246.6C392.492 246.701 392.492 246.803 392.492 246.904V247.982ZM395.65 253.438H397.051V250.426C397.125 250.508 397.205 250.584 397.291 250.654C397.377 250.721 397.467 250.783 397.561 250.842C397.721 250.932 397.895 251 398.082 251.047C398.273 251.094 398.482 251.117 398.709 251.117C399.107 251.117 399.461 251.035 399.77 250.871C400.078 250.707 400.338 250.48 400.549 250.191C400.76 249.906 400.918 249.566 401.023 249.172C401.133 248.777 401.188 248.352 401.188 247.895V247.771C401.188 247.295 401.133 246.859 401.023 246.465C400.918 246.066 400.76 245.725 400.549 245.439C400.338 245.154 400.076 244.934 399.764 244.777C399.455 244.621 399.098 244.543 398.691 244.543C398.484 244.543 398.289 244.566 398.105 244.613C397.922 244.656 397.754 244.719 397.602 244.801C397.484 244.863 397.375 244.938 397.273 245.023C397.172 245.109 397.078 245.205 396.992 245.311L396.939 244.66H395.65V253.438ZM399.787 247.771V247.895C399.787 248.176 399.76 248.443 399.705 248.697C399.65 248.947 399.562 249.17 399.441 249.365C399.324 249.557 399.172 249.709 398.984 249.822C398.801 249.932 398.578 249.986 398.316 249.986C398.156 249.986 398.01 249.969 397.877 249.934C397.744 249.895 397.625 249.844 397.52 249.781C397.418 249.715 397.328 249.637 397.25 249.547C397.172 249.457 397.105 249.357 397.051 249.248V246.43C397.113 246.312 397.186 246.207 397.268 246.113C397.354 246.02 397.453 245.941 397.566 245.879C397.664 245.82 397.775 245.775 397.9 245.744C398.025 245.713 398.16 245.697 398.305 245.697C398.566 245.697 398.791 245.752 398.979 245.861C399.166 245.971 399.32 246.119 399.441 246.307C399.559 246.494 399.645 246.715 399.699 246.969C399.758 247.219 399.787 247.486 399.787 247.771ZM405.629 246.793L404.129 244.66H402.588L404.809 247.783L402.512 251H404.064L405.641 248.785L407.223 251H408.77L406.473 247.783L408.699 244.66H407.146L405.629 246.793ZM422.732 247.748V245.727C422.732 245.18 422.668 244.697 422.539 244.279C422.41 243.857 422.229 243.502 421.994 243.213C421.752 242.928 421.459 242.713 421.115 242.568C420.775 242.42 420.389 242.346 419.955 242.346C419.525 242.346 419.139 242.42 418.795 242.568C418.455 242.713 418.166 242.928 417.928 243.213C417.689 243.502 417.506 243.857 417.377 244.279C417.252 244.697 417.189 245.18 417.189 245.727V247.748C417.189 248.295 417.252 248.779 417.377 249.201C417.506 249.619 417.691 249.971 417.934 250.256C418.172 250.541 418.463 250.758 418.807 250.906C419.15 251.051 419.537 251.123 419.967 251.123C420.4 251.123 420.787 251.051 421.127 250.906C421.471 250.758 421.76 250.541 421.994 250.256C422.232 249.971 422.414 249.619 422.539 249.201C422.668 248.779 422.732 248.295 422.732 247.748ZM418.596 247.25C418.596 247.137 418.596 247.041 418.596 246.963C418.596 246.885 418.596 246.771 418.596 246.623V245.475C418.596 245.123 418.627 244.818 418.689 244.561C418.752 244.299 418.848 244.086 418.977 243.922C419.086 243.777 419.223 243.668 419.387 243.594C419.551 243.52 419.74 243.482 419.955 243.482C420.158 243.482 420.338 243.514 420.494 243.576C420.65 243.639 420.783 243.732 420.893 243.857C421.018 243.998 421.113 244.18 421.18 244.402C421.25 244.625 421.293 244.889 421.309 245.193L418.596 247.25ZM421.32 247.982C421.32 248.342 421.289 248.654 421.227 248.92C421.164 249.186 421.066 249.4 420.934 249.564C420.82 249.705 420.684 249.812 420.523 249.887C420.363 249.957 420.178 249.992 419.967 249.992C419.752 249.992 419.562 249.955 419.398 249.881C419.238 249.807 419.104 249.695 418.994 249.547C418.885 249.41 418.797 249.238 418.73 249.031C418.668 248.824 418.627 248.586 418.607 248.316L421.32 246.271C421.32 246.385 421.32 246.494 421.32 246.6C421.32 246.701 421.32 246.803 421.32 246.904V247.982ZM424.479 253.438H425.879V250.426C425.953 250.508 426.033 250.584 426.119 250.654C426.205 250.721 426.295 250.783 426.389 250.842C426.549 250.932 426.723 251 426.91 251.047C427.102 251.094 427.311 251.117 427.537 251.117C427.936 251.117 428.289 251.035 428.598 250.871C428.906 250.707 429.166 250.48 429.377 250.191C429.588 249.906 429.746 249.566 429.852 249.172C429.961 248.777 430.016 248.352 430.016 247.895V247.771C430.016 247.295 429.961 246.859 429.852 246.465C429.746 246.066 429.588 245.725 429.377 245.439C429.166 245.154 428.904 244.934 428.592 244.777C428.283 244.621 427.926 244.543 427.52 244.543C427.312 244.543 427.117 244.566 426.934 244.613C426.75 244.656 426.582 244.719 426.43 244.801C426.312 244.863 426.203 244.938 426.102 245.023C426 245.109 425.906 245.205 425.82 245.311L425.768 244.66H424.479V253.438ZM428.615 247.771V247.895C428.615 248.176 428.588 248.443 428.533 248.697C428.479 248.947 428.391 249.17 428.27 249.365C428.152 249.557 428 249.709 427.812 249.822C427.629 249.932 427.406 249.986 427.145 249.986C426.984 249.986 426.838 249.969 426.705 249.934C426.572 249.895 426.453 249.844 426.348 249.781C426.246 249.715 426.156 249.637 426.078 249.547C426 249.457 425.934 249.357 425.879 249.248V246.43C425.941 246.312 426.014 246.207 426.096 246.113C426.182 246.02 426.281 245.941 426.395 245.879C426.492 245.82 426.604 245.775 426.729 245.744C426.854 245.713 426.988 245.697 427.133 245.697C427.395 245.697 427.619 245.752 427.807 245.861C427.994 245.971 428.148 246.119 428.27 246.307C428.387 246.494 428.473 246.715 428.527 246.969C428.586 247.219 428.615 247.486 428.615 247.771ZM434.457 246.793L432.957 244.66H431.416L433.637 247.783L431.34 251H432.893L434.469 248.785L436.051 251H437.598L435.301 247.783L437.527 244.66H435.975L434.457 246.793Z" fill="#FF628C"/>
</g>
<rect x="0.5" y="0.5" width="536" height="308" rx="9.5" stroke="#DFDFDF"/>
<defs>
<filter id="filter0_d_2_0" x="-54" y="19" width="294" height="294" filterUnits="userSpaceOnUse" color-interpolation-filters="sRGB">
<feFlood flood-opacity="0" result="BackgroundImageFix"/>
<feColorMatrix in="SourceAlpha" type="matrix" values="0 0 0 0 0 0 0 0 0 0 0 0 0 0 0 0 0 0 127 0" result="hardAlpha"/>
<feOffset dy="48"/>
<feGaussianBlur stdDeviation="50"/>
<feColorMatrix type="matrix" values="0 0 0 0 0.0666667 0 0 0 0 0.0470588 0 0 0 0 0.180392 0 0 0 0.15 0"/>
<feBlend mode="normal" in2="BackgroundImageFix" result="effect1_dropShadow_2_0"/>
<feBlend mode="normal" in="SourceGraphic" in2="effect1_dropShadow_2_0" result="shape"/>
</filter>
<clipPath id="clip0_2_0">
<rect width="537" height="309" rx="10" fill="white"/>
</clipPath>
</defs>
</svg>
