<svg width="537" height="309" viewBox="0 0 537 309" fill="none" xmlns="http://www.w3.org/2000/svg">
<rect x="0.5" y="0.5" width="536" height="308" rx="9.5" fill="#FAFAFA"/>
<rect x="0.5" y="0.5" width="536" height="308" rx="9.5" stroke="#DFDFDF"/>
<path d="M54.0625 45H56.7898L57.4972 40.6705H59.8835L60.3352 37.9432H57.9489L58.4943 34.6023H60.8807L61.3409 31.875H58.946L59.6534 27.5455H56.9261L56.2188 31.875H52.8097L53.517 27.5455H50.7898L50.0824 31.875H47.7045L47.2443 34.6023H49.6307L49.0852 37.9432H46.6989L46.2472 40.6705H48.6335L47.9261 45H50.6534L51.3608 40.6705H54.7699L54.0625 45ZM51.8125 37.9432L52.358 34.6023H55.767L55.2216 37.9432H51.8125ZM70.5945 27.5455H67.1257L62.8047 30.2812V33.554L66.8018 31.0483H66.9041V45H70.5945V27.5455ZM75.4332 45H79.2429L86.4872 30.6051V27.5455H74.2401V30.5625H82.669V30.6818L75.4332 45Z" fill="black"/>
<rect x="46" y="205" width="431" height="24" fill="#011627"/>
<ellipse cx="60.6935" cy="216.294" rx="4.43128" ry="4.70588" fill="#FC605C"/>
<ellipse cx="73.5205" cy="216.765" rx="4.6645" ry="4.70588" fill="#FFBB2C"/>
<ellipse cx="86.348" cy="217.471" rx="4.43128" ry="4.47059" fill="#2FC63C"/>
<g filter="url(#filter0_dd_2_56)">
<rect x="46" y="71" width="94" height="94" rx="5" fill="white"/>
</g>
<rect width="431" height="52" transform="translate(46 229)" fill="#011627"/>
<path d="M62.4805 248.895V248.771C62.4805 248.412 62.4473 248.072 62.3809 247.752C62.3184 247.432 62.2246 247.141 62.0996 246.879C62.0059 246.691 61.8965 246.52 61.7715 246.363C61.6504 246.203 61.5117 246.068 61.3555 245.959C61.1719 245.826 60.9648 245.725 60.7344 245.654C60.5078 245.58 60.2578 245.543 59.9844 245.543C59.7773 245.543 59.584 245.564 59.4043 245.607C59.2285 245.646 59.0664 245.707 58.918 245.789C58.8047 245.852 58.6992 245.924 58.6016 246.006C58.5039 246.088 58.4141 246.18 58.332 246.281V243H56.9316V252H58.1973L58.2617 251.309C58.332 251.395 58.4043 251.475 58.4785 251.549C58.5566 251.619 58.6387 251.686 58.7246 251.748C58.8926 251.869 59.082 251.961 59.293 252.023C59.5039 252.086 59.7383 252.117 59.9961 252.117C60.25 252.117 60.4844 252.084 60.6992 252.018C60.918 251.955 61.1152 251.865 61.291 251.748C61.5098 251.604 61.6973 251.422 61.8535 251.203C62.0098 250.984 62.1348 250.74 62.2285 250.471C62.3105 250.244 62.373 249.998 62.416 249.732C62.459 249.467 62.4805 249.188 62.4805 248.895ZM61.0801 248.771V248.895C61.0801 249.07 61.0703 249.24 61.0508 249.404C61.0312 249.568 61.002 249.721 60.9629 249.861C60.916 250.049 60.8477 250.219 60.7578 250.371C60.6719 250.52 60.5605 250.643 60.4238 250.74C60.3223 250.811 60.207 250.867 60.0781 250.91C59.9492 250.949 59.8047 250.969 59.6445 250.969C59.4688 250.969 59.3086 250.947 59.1641 250.904C59.0234 250.857 58.8984 250.795 58.7891 250.717C58.6914 250.643 58.6035 250.559 58.5254 250.465C58.4512 250.367 58.3867 250.26 58.332 250.143V247.518C58.3789 247.416 58.4336 247.322 58.4961 247.236C58.5625 247.146 58.6367 247.068 58.7188 247.002C58.832 246.904 58.9648 246.83 59.1172 246.779C59.2695 246.725 59.4414 246.697 59.6328 246.697C59.7891 246.697 59.9297 246.715 60.0547 246.75C60.1797 246.785 60.291 246.838 60.3887 246.908C60.5371 247.01 60.6543 247.135 60.7402 247.283C60.8301 247.428 60.9023 247.59 60.957 247.77C60.9961 247.918 61.0254 248.078 61.0449 248.25C61.0684 248.418 61.0801 248.592 61.0801 248.771ZM63.8574 248.771V248.895C63.8574 249.359 63.9238 249.787 64.0566 250.178C64.1895 250.568 64.3828 250.908 64.6367 251.197C64.8867 251.486 65.1953 251.713 65.5625 251.877C65.9297 252.041 66.3457 252.123 66.8105 252.123C67.2715 252.123 67.6836 252.041 68.0469 251.877C68.4141 251.713 68.7227 251.486 68.9727 251.197C69.2227 250.908 69.4141 250.568 69.5469 250.178C69.6797 249.787 69.7461 249.359 69.7461 248.895V248.771C69.7461 248.311 69.6797 247.885 69.5469 247.494C69.4141 247.1 69.2227 246.758 68.9727 246.469C68.7188 246.18 68.4082 245.953 68.041 245.789C67.6777 245.625 67.2637 245.543 66.7988 245.543C66.334 245.543 65.9199 245.625 65.5566 245.789C65.1934 245.953 64.8867 246.18 64.6367 246.469C64.3828 246.758 64.1895 247.1 64.0566 247.494C63.9238 247.885 63.8574 248.311 63.8574 248.771ZM65.2578 248.895V248.771C65.2578 248.494 65.2871 248.229 65.3457 247.975C65.4082 247.721 65.502 247.498 65.627 247.307C65.7559 247.115 65.916 246.963 66.1074 246.85C66.3027 246.736 66.5332 246.68 66.7988 246.68C67.0684 246.68 67.2988 246.736 67.4902 246.85C67.6855 246.963 67.8457 247.115 67.9707 247.307C68.0957 247.498 68.1895 247.721 68.252 247.975C68.3145 248.229 68.3457 248.494 68.3457 248.771V248.895C68.3457 249.18 68.3145 249.449 68.252 249.703C68.1934 249.957 68.1016 250.18 67.9766 250.371C67.8516 250.562 67.6914 250.715 67.4961 250.828C67.3008 250.938 67.0723 250.992 66.8105 250.992C66.541 250.992 66.3086 250.938 66.1133 250.828C65.918 250.715 65.7559 250.562 65.627 250.371C65.502 250.18 65.4082 249.957 65.3457 249.703C65.2871 249.449 65.2578 249.18 65.2578 248.895ZM74.1055 247.793L72.6055 245.66H71.0645L73.2852 248.783L70.9883 252H72.541L74.1172 249.785L75.6992 252H77.2461L74.9492 248.783L77.1758 245.66H75.623L74.1055 247.793ZM83.832 248.818V247.682H79.1152V248.818H83.832ZM89.8789 250.283C89.8789 250.385 89.8555 250.479 89.8086 250.564C89.7656 250.646 89.6992 250.723 89.6094 250.793C89.5 250.879 89.3535 250.947 89.1699 250.998C88.9902 251.049 88.7793 251.074 88.5371 251.074C88.3574 251.074 88.1797 251.057 88.0039 251.021C87.8281 250.982 87.6719 250.92 87.5352 250.834C87.3945 250.752 87.2773 250.645 87.1836 250.512C87.0938 250.375 87.043 250.209 87.0312 250.014H85.6719C85.6719 250.275 85.7344 250.533 85.8594 250.787C85.9844 251.041 86.168 251.266 86.4102 251.461C86.6484 251.66 86.9434 251.82 87.2949 251.941C87.6504 252.062 88.0566 252.123 88.5137 252.123C88.9238 252.123 89.2969 252.076 89.6328 251.982C89.9688 251.889 90.2578 251.758 90.5 251.59C90.7383 251.422 90.9219 251.221 91.0508 250.986C91.1836 250.752 91.25 250.494 91.25 250.213C91.25 249.924 91.1875 249.674 91.0625 249.463C90.9375 249.252 90.7617 249.068 90.5352 248.912C90.3086 248.764 90.0352 248.639 89.7148 248.537C89.3945 248.436 89.041 248.35 88.6543 248.279C88.377 248.232 88.1465 248.18 87.9629 248.121C87.7832 248.062 87.6426 247.998 87.541 247.928C87.4316 247.861 87.3555 247.785 87.3125 247.699C87.2695 247.609 87.248 247.51 87.248 247.4C87.248 247.295 87.2734 247.195 87.3242 247.102C87.375 247.004 87.4512 246.92 87.5527 246.85C87.6543 246.771 87.7832 246.711 87.9395 246.668C88.0996 246.621 88.2852 246.598 88.4961 246.598C88.7266 246.598 88.9277 246.629 89.0996 246.691C89.2715 246.75 89.4121 246.83 89.5215 246.932C89.6152 247.018 89.6855 247.115 89.7324 247.225C89.7832 247.33 89.8086 247.441 89.8086 247.559H91.209C91.209 247.273 91.1465 247.008 91.0215 246.762C90.8965 246.516 90.7188 246.303 90.4883 246.123C90.2539 245.943 89.9688 245.803 89.6328 245.701C89.2969 245.596 88.918 245.543 88.4961 245.543C88.1016 245.543 87.7422 245.594 87.418 245.695C87.0977 245.797 86.8242 245.936 86.5977 246.111C86.3672 246.287 86.1895 246.492 86.0645 246.727C85.9434 246.957 85.8828 247.201 85.8828 247.459C85.8828 247.729 85.9434 247.965 86.0645 248.168C86.1855 248.367 86.3535 248.543 86.5684 248.695C86.7871 248.852 87.0469 248.984 87.3477 249.094C87.6523 249.203 87.9883 249.295 88.3555 249.369C88.6484 249.424 88.8926 249.482 89.0879 249.545C89.2832 249.607 89.4414 249.674 89.5625 249.744C89.6758 249.822 89.7559 249.904 89.8027 249.99C89.8535 250.076 89.8789 250.174 89.8789 250.283ZM94.3438 246.562V243H92.9434V252H94.3438V247.412C94.4102 247.311 94.4863 247.219 94.5723 247.137C94.6621 247.055 94.7578 246.984 94.8594 246.926C94.9805 246.852 95.1133 246.795 95.2578 246.756C95.4062 246.717 95.5625 246.697 95.7266 246.697C95.9375 246.697 96.123 246.727 96.2832 246.785C96.4473 246.84 96.5859 246.926 96.6992 247.043C96.8086 247.152 96.8906 247.295 96.9453 247.471C97.0039 247.646 97.0332 247.852 97.0332 248.086V252H98.4336V248.098C98.4336 247.648 98.3789 247.264 98.2695 246.943C98.1641 246.619 98.0137 246.354 97.8184 246.146C97.623 245.939 97.3867 245.787 97.1094 245.689C96.8359 245.592 96.5332 245.543 96.2012 245.543C95.9629 245.543 95.7363 245.578 95.5215 245.648C95.3105 245.715 95.1172 245.812 94.9414 245.941C94.8281 246.02 94.7207 246.111 94.6191 246.217C94.5176 246.322 94.4258 246.438 94.3438 246.562ZM104.199 252H105.629V251.9C105.551 251.736 105.49 251.541 105.447 251.314C105.408 251.084 105.389 250.826 105.389 250.541V247.723C105.389 247.363 105.322 247.047 105.189 246.773C105.057 246.496 104.873 246.268 104.639 246.088C104.404 245.908 104.125 245.773 103.801 245.684C103.48 245.59 103.135 245.543 102.764 245.543C102.35 245.543 101.98 245.598 101.656 245.707C101.336 245.812 101.064 245.957 100.842 246.141C100.619 246.32 100.449 246.527 100.332 246.762C100.215 246.996 100.154 247.24 100.15 247.494H101.557C101.557 247.373 101.578 247.26 101.621 247.154C101.668 247.045 101.738 246.953 101.832 246.879C101.926 246.797 102.043 246.732 102.184 246.686C102.328 246.639 102.496 246.615 102.688 246.615C102.898 246.615 103.084 246.643 103.244 246.697C103.408 246.748 103.547 246.822 103.66 246.92C103.766 247.018 103.846 247.133 103.9 247.266C103.959 247.398 103.988 247.547 103.988 247.711V248.139H102.969C102.512 248.139 102.102 248.182 101.738 248.268C101.379 248.354 101.076 248.479 100.83 248.643C100.564 248.818 100.361 249.041 100.221 249.311C100.084 249.576 100.016 249.883 100.016 250.23C100.016 250.5 100.068 250.752 100.174 250.986C100.283 251.217 100.434 251.414 100.625 251.578C100.82 251.746 101.053 251.879 101.322 251.977C101.596 252.07 101.896 252.117 102.225 252.117C102.428 252.117 102.617 252.098 102.793 252.059C102.969 252.02 103.133 251.965 103.285 251.895C103.438 251.828 103.574 251.75 103.695 251.66C103.82 251.566 103.932 251.469 104.029 251.367C104.049 251.488 104.07 251.605 104.094 251.719C104.121 251.828 104.156 251.922 104.199 252ZM102.494 250.992C102.314 250.992 102.158 250.971 102.025 250.928C101.893 250.881 101.781 250.818 101.691 250.74C101.602 250.662 101.533 250.568 101.486 250.459C101.439 250.346 101.416 250.225 101.416 250.096C101.416 249.939 101.443 249.799 101.498 249.674C101.557 249.549 101.645 249.441 101.762 249.352C101.895 249.246 102.072 249.166 102.295 249.111C102.518 249.053 102.781 249.023 103.086 249.023H103.988V250.195C103.938 250.297 103.865 250.395 103.771 250.488C103.678 250.582 103.566 250.666 103.438 250.74C103.309 250.814 103.164 250.875 103.004 250.922C102.848 250.969 102.678 250.992 102.494 250.992ZM107.17 248.783V248.906C107.17 249.363 107.229 249.789 107.346 250.184C107.463 250.574 107.629 250.912 107.844 251.197C108.059 251.486 108.32 251.713 108.629 251.877C108.938 252.037 109.285 252.117 109.672 252.117C110.039 252.117 110.363 252.051 110.645 251.918C110.926 251.781 111.168 251.588 111.371 251.338L111.436 252H112.707V243H111.307V246.252C111.104 246.025 110.869 245.852 110.604 245.73C110.342 245.605 110.035 245.543 109.684 245.543C109.293 245.543 108.941 245.623 108.629 245.783C108.32 245.939 108.059 246.16 107.844 246.445C107.625 246.73 107.457 247.072 107.34 247.471C107.227 247.865 107.17 248.303 107.17 248.783ZM108.57 248.906V248.783C108.57 248.498 108.598 248.23 108.652 247.98C108.707 247.727 108.793 247.504 108.91 247.312C109.027 247.121 109.178 246.971 109.361 246.861C109.549 246.752 109.773 246.697 110.035 246.697C110.348 246.697 110.605 246.768 110.809 246.908C111.016 247.045 111.182 247.23 111.307 247.465V250.189C111.182 250.428 111.016 250.617 110.809 250.758C110.602 250.895 110.34 250.963 110.023 250.963C109.766 250.963 109.545 250.91 109.361 250.805C109.178 250.695 109.027 250.547 108.91 250.359C108.793 250.172 108.707 249.953 108.652 249.703C108.598 249.453 108.57 249.188 108.57 248.906ZM114.307 248.771V248.895C114.307 249.359 114.373 249.787 114.506 250.178C114.639 250.568 114.832 250.908 115.086 251.197C115.336 251.486 115.645 251.713 116.012 251.877C116.379 252.041 116.795 252.123 117.26 252.123C117.721 252.123 118.133 252.041 118.496 251.877C118.863 251.713 119.172 251.486 119.422 251.197C119.672 250.908 119.863 250.568 119.996 250.178C120.129 249.787 120.195 249.359 120.195 248.895V248.771C120.195 248.311 120.129 247.885 119.996 247.494C119.863 247.1 119.672 246.758 119.422 246.469C119.168 246.18 118.857 245.953 118.49 245.789C118.127 245.625 117.713 245.543 117.248 245.543C116.783 245.543 116.369 245.625 116.006 245.789C115.643 245.953 115.336 246.18 115.086 246.469C114.832 246.758 114.639 247.1 114.506 247.494C114.373 247.885 114.307 248.311 114.307 248.771ZM115.707 248.895V248.771C115.707 248.494 115.736 248.229 115.795 247.975C115.857 247.721 115.951 247.498 116.076 247.307C116.205 247.115 116.365 246.963 116.557 246.85C116.752 246.736 116.982 246.68 117.248 246.68C117.518 246.68 117.748 246.736 117.939 246.85C118.135 246.963 118.295 247.115 118.42 247.307C118.545 247.498 118.639 247.721 118.701 247.975C118.764 248.229 118.795 248.494 118.795 248.771V248.895C118.795 249.18 118.764 249.449 118.701 249.703C118.643 249.957 118.551 250.18 118.426 250.371C118.301 250.562 118.141 250.715 117.945 250.828C117.75 250.938 117.521 250.992 117.26 250.992C116.99 250.992 116.758 250.938 116.562 250.828C116.367 250.715 116.205 250.562 116.076 250.371C115.951 250.18 115.857 249.957 115.795 249.703C115.736 249.449 115.707 249.18 115.707 248.895ZM122.299 252H123.488L124.291 248.402L124.432 247.617L124.578 248.402L125.398 252H126.588L127.812 245.66H126.541L125.973 249.527L125.861 250.301L125.727 249.533L124.9 245.66H123.98L123.154 249.545L123.025 250.277L122.926 249.545L122.34 245.66H121.074L122.299 252Z" fill="#F78C6C"/>
<path d="M130.895 251.156C130.895 251.426 130.982 251.654 131.158 251.842C131.338 252.025 131.588 252.117 131.908 252.117C132.225 252.117 132.473 252.025 132.652 251.842C132.836 251.658 132.928 251.43 132.928 251.156C132.928 250.883 132.838 250.652 132.658 250.465C132.479 250.273 132.229 250.178 131.908 250.178C131.584 250.178 131.334 250.273 131.158 250.465C130.982 250.656 130.895 250.887 130.895 251.156ZM130.895 246.193C130.895 246.463 130.982 246.691 131.158 246.879C131.338 247.062 131.588 247.154 131.908 247.154C132.225 247.154 132.473 247.062 132.652 246.879C132.836 246.695 132.928 246.467 132.928 246.193C132.928 245.92 132.838 245.689 132.658 245.502C132.479 245.311 132.229 245.215 131.908 245.215C131.584 245.215 131.334 245.311 131.158 245.502C130.982 245.693 130.895 245.924 130.895 246.193ZM173.363 248.531V248.631C173.363 249.189 173.406 249.713 173.492 250.201C173.578 250.686 173.693 251.135 173.838 251.549C173.982 251.967 174.15 252.346 174.342 252.686C174.537 253.029 174.742 253.334 174.957 253.6C175.172 253.865 175.391 254.09 175.613 254.273C175.836 254.461 176.051 254.605 176.258 254.707L176.539 253.922C176.383 253.801 176.227 253.65 176.07 253.471C175.914 253.291 175.764 253.084 175.619 252.85C175.479 252.619 175.348 252.354 175.227 252.053C175.105 251.752 174.998 251.426 174.904 251.074C174.83 250.781 174.766 250.426 174.711 250.008C174.656 249.586 174.629 249.131 174.629 248.643V248.52C174.629 248.02 174.656 247.555 174.711 247.125C174.77 246.695 174.848 246.303 174.945 245.947C175.051 245.568 175.176 245.219 175.32 244.898C175.469 244.578 175.627 244.299 175.795 244.061C175.916 243.893 176.039 243.742 176.164 243.609C176.289 243.477 176.414 243.363 176.539 243.27L176.258 242.455C176.051 242.557 175.836 242.701 175.613 242.889C175.391 243.072 175.174 243.297 174.963 243.562C174.748 243.828 174.543 244.133 174.348 244.477C174.156 244.82 173.986 245.197 173.838 245.607C173.693 246.025 173.578 246.48 173.492 246.973C173.406 247.461 173.363 247.98 173.363 248.531ZM196.93 251.818V250.635H195.553V251.871C195.553 252.258 195.506 252.605 195.412 252.914C195.322 253.223 195.193 253.516 195.025 253.793L195.811 254.209C196.146 253.908 196.416 253.539 196.619 253.102C196.826 252.668 196.93 252.24 196.93 251.818ZM225.758 251.818V250.635H224.381V251.871C224.381 252.258 224.334 252.605 224.24 252.914C224.15 253.223 224.021 253.516 223.854 253.793L224.639 254.209C224.975 253.908 225.244 253.539 225.447 253.102C225.654 252.668 225.758 252.24 225.758 251.818ZM254.586 251.818V250.635H253.209V251.871C253.209 252.258 253.162 252.605 253.068 252.914C252.979 253.223 252.85 253.516 252.682 253.793L253.467 254.209C253.803 253.908 254.072 253.539 254.275 253.102C254.482 252.668 254.586 252.24 254.586 251.818ZM298.918 248.631V248.531C298.918 247.973 298.873 247.455 298.783 246.979C298.693 246.498 298.576 246.051 298.432 245.637C298.287 245.219 298.117 244.84 297.922 244.5C297.727 244.156 297.518 243.848 297.295 243.574C297.08 243.309 296.857 243.082 296.627 242.895C296.4 242.703 296.182 242.557 295.971 242.455L295.695 243.24C295.816 243.334 295.939 243.451 296.064 243.592C296.193 243.729 296.316 243.885 296.434 244.061C296.602 244.307 296.762 244.598 296.914 244.934C297.07 245.27 297.203 245.648 297.312 246.07C297.395 246.395 297.463 246.762 297.518 247.172C297.572 247.582 297.6 248.031 297.6 248.52V248.643C297.6 249.115 297.574 249.555 297.523 249.961C297.477 250.367 297.41 250.742 297.324 251.086C297.234 251.457 297.123 251.795 296.99 252.1C296.861 252.408 296.723 252.684 296.574 252.926C296.434 253.145 296.289 253.338 296.141 253.506C295.992 253.674 295.844 253.812 295.695 253.922L295.971 254.707C296.182 254.605 296.4 254.461 296.627 254.273C296.854 254.086 297.076 253.855 297.295 253.582C297.514 253.316 297.721 253.012 297.916 252.668C298.111 252.324 298.283 251.943 298.432 251.525C298.58 251.111 298.697 250.662 298.783 250.178C298.873 249.693 298.918 249.178 298.918 248.631ZM441.969 251.818V250.635H440.592V251.871C440.592 252.258 440.545 252.605 440.451 252.914C440.361 253.223 440.232 253.516 440.064 253.793L440.85 254.209C441.186 253.908 441.455 253.539 441.658 253.102C441.865 252.668 441.969 252.24 441.969 251.818ZM173.363 264.531V264.631C173.363 265.189 173.406 265.713 173.492 266.201C173.578 266.686 173.693 267.135 173.838 267.549C173.982 267.967 174.15 268.346 174.342 268.686C174.537 269.029 174.742 269.334 174.957 269.6C175.172 269.865 175.391 270.09 175.613 270.273C175.836 270.461 176.051 270.605 176.258 270.707L176.539 269.922C176.383 269.801 176.227 269.65 176.07 269.471C175.914 269.291 175.764 269.084 175.619 268.85C175.479 268.619 175.348 268.354 175.227 268.053C175.105 267.752 174.998 267.426 174.904 267.074C174.83 266.781 174.766 266.426 174.711 266.008C174.656 265.586 174.629 265.131 174.629 264.643V264.52C174.629 264.02 174.656 263.555 174.711 263.125C174.77 262.695 174.848 262.303 174.945 261.947C175.051 261.568 175.176 261.219 175.32 260.898C175.469 260.578 175.627 260.299 175.795 260.061C175.916 259.893 176.039 259.742 176.164 259.609C176.289 259.477 176.414 259.363 176.539 259.27L176.258 258.455C176.051 258.557 175.836 258.701 175.613 258.889C175.391 259.072 175.174 259.297 174.963 259.562C174.748 259.828 174.543 260.133 174.348 260.477C174.156 260.82 173.986 261.197 173.838 261.607C173.693 262.025 173.578 262.48 173.492 262.973C173.406 263.461 173.363 263.98 173.363 264.531ZM189.723 267.818V266.635H188.346V267.871C188.346 268.258 188.299 268.605 188.205 268.914C188.115 269.223 187.986 269.516 187.818 269.793L188.604 270.209C188.939 269.908 189.209 269.539 189.412 269.102C189.619 268.668 189.723 268.24 189.723 267.818ZM211.344 267.818V266.635H209.967V267.871C209.967 268.258 209.92 268.605 209.826 268.914C209.736 269.223 209.607 269.516 209.439 269.793L210.225 270.209C210.561 269.908 210.83 269.539 211.033 269.102C211.24 268.668 211.344 268.24 211.344 267.818ZM232.965 267.818V266.635H231.588V267.871C231.588 268.258 231.541 268.605 231.447 268.914C231.357 269.223 231.229 269.516 231.061 269.793L231.846 270.209C232.182 269.908 232.451 269.539 232.654 269.102C232.861 268.668 232.965 268.24 232.965 267.818ZM270.09 264.631V264.531C270.09 263.973 270.045 263.455 269.955 262.979C269.865 262.498 269.748 262.051 269.604 261.637C269.459 261.219 269.289 260.84 269.094 260.5C268.898 260.156 268.689 259.848 268.467 259.574C268.252 259.309 268.029 259.082 267.799 258.895C267.572 258.703 267.354 258.557 267.143 258.455L266.867 259.24C266.988 259.334 267.111 259.451 267.236 259.592C267.365 259.729 267.488 259.885 267.605 260.061C267.773 260.307 267.934 260.598 268.086 260.934C268.242 261.27 268.375 261.648 268.484 262.07C268.566 262.395 268.635 262.762 268.689 263.172C268.744 263.582 268.771 264.031 268.771 264.52V264.643C268.771 265.115 268.746 265.555 268.695 265.961C268.648 266.367 268.582 266.742 268.496 267.086C268.406 267.457 268.295 267.795 268.162 268.1C268.033 268.408 267.895 268.684 267.746 268.926C267.605 269.145 267.461 269.338 267.312 269.506C267.164 269.674 267.016 269.812 266.867 269.922L267.143 270.707C267.354 270.605 267.572 270.461 267.799 270.273C268.025 270.086 268.248 269.855 268.467 269.582C268.686 269.316 268.893 269.012 269.088 268.668C269.283 268.324 269.455 267.943 269.604 267.525C269.752 267.111 269.869 266.662 269.955 266.178C270.045 265.693 270.09 265.178 270.09 264.631ZM404.873 262.193C404.873 262.463 404.961 262.691 405.137 262.879C405.316 263.062 405.566 263.154 405.887 263.154C406.203 263.154 406.451 263.062 406.631 262.879C406.814 262.695 406.906 262.467 406.906 262.193C406.906 261.92 406.816 261.689 406.637 261.502C406.457 261.311 406.207 261.215 405.887 261.215C405.562 261.215 405.312 261.311 405.137 261.502C404.961 261.693 404.873 261.924 404.873 262.193ZM406.52 267.818V266.635H405.143V267.871C405.143 268.258 405.096 268.605 405.002 268.914C404.912 269.223 404.783 269.516 404.615 269.793L405.4 270.209C405.736 269.908 406.006 269.539 406.209 269.102C406.416 268.668 406.52 268.24 406.52 267.818Z" fill="white"/>
<path d="M147.775 245.543C147.338 245.543 146.938 245.645 146.574 245.848C146.215 246.051 145.906 246.33 145.648 246.686L145.643 246.539L145.584 245.66H144.271V252H145.672V248.086C145.746 247.898 145.838 247.732 145.947 247.588C146.057 247.443 146.189 247.324 146.346 247.23C146.49 247.133 146.656 247.061 146.844 247.014C147.031 246.967 147.242 246.943 147.477 246.943C147.684 246.943 147.891 246.955 148.098 246.979C148.309 247.002 148.521 247.037 148.736 247.084L148.936 245.701C148.814 245.658 148.646 245.621 148.432 245.59C148.221 245.559 148.002 245.543 147.775 245.543ZM150.418 248.783V248.906C150.418 249.363 150.477 249.789 150.594 250.184C150.715 250.574 150.887 250.912 151.109 251.197C151.328 251.486 151.594 251.713 151.906 251.877C152.219 252.037 152.57 252.117 152.961 252.117C153.176 252.117 153.375 252.094 153.559 252.047C153.742 252.004 153.91 251.939 154.062 251.854C154.164 251.799 154.258 251.734 154.344 251.66C154.434 251.586 154.52 251.506 154.602 251.42V251.859C154.602 252.098 154.566 252.311 154.496 252.498C154.43 252.686 154.334 252.844 154.209 252.973C154.072 253.105 153.906 253.207 153.711 253.277C153.52 253.348 153.299 253.383 153.049 253.383C152.904 253.383 152.762 253.367 152.621 253.336C152.48 253.309 152.342 253.264 152.205 253.201C152.068 253.139 151.934 253.057 151.801 252.955C151.672 252.857 151.551 252.74 151.438 252.604L150.775 253.453C150.916 253.641 151.084 253.801 151.279 253.934C151.475 254.066 151.68 254.174 151.895 254.256C152.109 254.338 152.324 254.398 152.539 254.438C152.754 254.477 152.951 254.496 153.131 254.496C153.557 254.496 153.945 254.436 154.297 254.314C154.652 254.197 154.957 254.025 155.211 253.799C155.461 253.568 155.654 253.287 155.791 252.955C155.932 252.627 156.002 252.25 156.002 251.824V245.66H154.73L154.672 246.299C154.594 246.205 154.51 246.119 154.42 246.041C154.33 245.959 154.234 245.889 154.133 245.83C153.977 245.736 153.803 245.666 153.611 245.619C153.42 245.568 153.207 245.543 152.973 245.543C152.578 245.543 152.223 245.623 151.906 245.783C151.594 245.939 151.326 246.16 151.104 246.445C150.885 246.73 150.715 247.072 150.594 247.471C150.477 247.865 150.418 248.303 150.418 248.783ZM151.824 248.906V248.783C151.824 248.498 151.854 248.23 151.912 247.98C151.971 247.727 152.062 247.504 152.188 247.312C152.309 247.121 152.463 246.971 152.65 246.861C152.838 246.752 153.062 246.697 153.324 246.697C153.473 246.697 153.609 246.715 153.734 246.75C153.859 246.781 153.973 246.826 154.074 246.885C154.188 246.947 154.287 247.025 154.373 247.119C154.463 247.213 154.539 247.318 154.602 247.436V250.213C154.539 250.326 154.467 250.43 154.385 250.523C154.303 250.617 154.209 250.697 154.104 250.764C153.998 250.826 153.879 250.875 153.746 250.91C153.617 250.945 153.473 250.963 153.312 250.963C153.055 250.963 152.832 250.91 152.645 250.805C152.457 250.695 152.303 250.545 152.182 250.354C152.057 250.17 151.965 249.953 151.906 249.703C151.852 249.453 151.824 249.188 151.824 248.906ZM163.379 248.895V248.771C163.379 248.412 163.346 248.072 163.279 247.752C163.217 247.432 163.123 247.141 162.998 246.879C162.904 246.691 162.795 246.52 162.67 246.363C162.549 246.203 162.41 246.068 162.254 245.959C162.07 245.826 161.863 245.725 161.633 245.654C161.406 245.58 161.156 245.543 160.883 245.543C160.676 245.543 160.482 245.564 160.303 245.607C160.127 245.646 159.965 245.707 159.816 245.789C159.703 245.852 159.598 245.924 159.5 246.006C159.402 246.088 159.312 246.18 159.23 246.281V243H157.83V252H159.096L159.16 251.309C159.23 251.395 159.303 251.475 159.377 251.549C159.455 251.619 159.537 251.686 159.623 251.748C159.791 251.869 159.98 251.961 160.191 252.023C160.402 252.086 160.637 252.117 160.895 252.117C161.148 252.117 161.383 252.084 161.598 252.018C161.816 251.955 162.014 251.865 162.189 251.748C162.408 251.604 162.596 251.422 162.752 251.203C162.908 250.984 163.033 250.74 163.127 250.471C163.209 250.244 163.271 249.998 163.314 249.732C163.357 249.467 163.379 249.188 163.379 248.895ZM161.979 248.771V248.895C161.979 249.07 161.969 249.24 161.949 249.404C161.93 249.568 161.9 249.721 161.861 249.861C161.814 250.049 161.746 250.219 161.656 250.371C161.57 250.52 161.459 250.643 161.322 250.74C161.221 250.811 161.105 250.867 160.977 250.91C160.848 250.949 160.703 250.969 160.543 250.969C160.367 250.969 160.207 250.947 160.062 250.904C159.922 250.857 159.797 250.795 159.688 250.717C159.59 250.643 159.502 250.559 159.424 250.465C159.35 250.367 159.285 250.26 159.23 250.143V247.518C159.277 247.416 159.332 247.322 159.395 247.236C159.461 247.146 159.535 247.068 159.617 247.002C159.73 246.904 159.863 246.83 160.016 246.779C160.168 246.725 160.34 246.697 160.531 246.697C160.688 246.697 160.828 246.715 160.953 246.75C161.078 246.785 161.189 246.838 161.287 246.908C161.436 247.01 161.553 247.135 161.639 247.283C161.729 247.428 161.801 247.59 161.855 247.77C161.895 247.918 161.924 248.078 161.943 248.25C161.967 248.418 161.979 248.592 161.979 248.771ZM169.062 252H170.492V251.9C170.414 251.736 170.354 251.541 170.311 251.314C170.271 251.084 170.252 250.826 170.252 250.541V247.723C170.252 247.363 170.186 247.047 170.053 246.773C169.92 246.496 169.736 246.268 169.502 246.088C169.268 245.908 168.988 245.773 168.664 245.684C168.344 245.59 167.998 245.543 167.627 245.543C167.213 245.543 166.844 245.598 166.52 245.707C166.199 245.812 165.928 245.957 165.705 246.141C165.482 246.32 165.312 246.527 165.195 246.762C165.078 246.996 165.018 247.24 165.014 247.494H166.42C166.42 247.373 166.441 247.26 166.484 247.154C166.531 247.045 166.602 246.953 166.695 246.879C166.789 246.797 166.906 246.732 167.047 246.686C167.191 246.639 167.359 246.615 167.551 246.615C167.762 246.615 167.947 246.643 168.107 246.697C168.271 246.748 168.41 246.822 168.523 246.92C168.629 247.018 168.709 247.133 168.764 247.266C168.822 247.398 168.852 247.547 168.852 247.711V248.139H167.832C167.375 248.139 166.965 248.182 166.602 248.268C166.242 248.354 165.939 248.479 165.693 248.643C165.428 248.818 165.225 249.041 165.084 249.311C164.947 249.576 164.879 249.883 164.879 250.23C164.879 250.5 164.932 250.752 165.037 250.986C165.146 251.217 165.297 251.414 165.488 251.578C165.684 251.746 165.916 251.879 166.186 251.977C166.459 252.07 166.76 252.117 167.088 252.117C167.291 252.117 167.48 252.098 167.656 252.059C167.832 252.02 167.996 251.965 168.148 251.895C168.301 251.828 168.438 251.75 168.559 251.66C168.684 251.566 168.795 251.469 168.893 251.367C168.912 251.488 168.934 251.605 168.957 251.719C168.984 251.828 169.02 251.922 169.062 252ZM167.357 250.992C167.178 250.992 167.021 250.971 166.889 250.928C166.756 250.881 166.645 250.818 166.555 250.74C166.465 250.662 166.396 250.568 166.35 250.459C166.303 250.346 166.279 250.225 166.279 250.096C166.279 249.939 166.307 249.799 166.361 249.674C166.42 249.549 166.508 249.441 166.625 249.352C166.758 249.246 166.936 249.166 167.158 249.111C167.381 249.053 167.645 249.023 167.949 249.023H168.852V250.195C168.801 250.297 168.729 250.395 168.635 250.488C168.541 250.582 168.43 250.666 168.301 250.74C168.172 250.814 168.027 250.875 167.867 250.922C167.711 250.969 167.541 250.992 167.357 250.992ZM147.775 261.543C147.338 261.543 146.938 261.645 146.574 261.848C146.215 262.051 145.906 262.33 145.648 262.686L145.643 262.539L145.584 261.66H144.271V268H145.672V264.086C145.746 263.898 145.838 263.732 145.947 263.588C146.057 263.443 146.189 263.324 146.346 263.23C146.49 263.133 146.656 263.061 146.844 263.014C147.031 262.967 147.242 262.943 147.477 262.943C147.684 262.943 147.891 262.955 148.098 262.979C148.309 263.002 148.521 263.037 148.736 263.084L148.936 261.701C148.814 261.658 148.646 261.621 148.432 261.59C148.221 261.559 148.002 261.543 147.775 261.543ZM150.418 264.783V264.906C150.418 265.363 150.477 265.789 150.594 266.184C150.715 266.574 150.887 266.912 151.109 267.197C151.328 267.486 151.594 267.713 151.906 267.877C152.219 268.037 152.57 268.117 152.961 268.117C153.176 268.117 153.375 268.094 153.559 268.047C153.742 268.004 153.91 267.939 154.062 267.854C154.164 267.799 154.258 267.734 154.344 267.66C154.434 267.586 154.52 267.506 154.602 267.42V267.859C154.602 268.098 154.566 268.311 154.496 268.498C154.43 268.686 154.334 268.844 154.209 268.973C154.072 269.105 153.906 269.207 153.711 269.277C153.52 269.348 153.299 269.383 153.049 269.383C152.904 269.383 152.762 269.367 152.621 269.336C152.48 269.309 152.342 269.264 152.205 269.201C152.068 269.139 151.934 269.057 151.801 268.955C151.672 268.857 151.551 268.74 151.438 268.604L150.775 269.453C150.916 269.641 151.084 269.801 151.279 269.934C151.475 270.066 151.68 270.174 151.895 270.256C152.109 270.338 152.324 270.398 152.539 270.438C152.754 270.477 152.951 270.496 153.131 270.496C153.557 270.496 153.945 270.436 154.297 270.314C154.652 270.197 154.957 270.025 155.211 269.799C155.461 269.568 155.654 269.287 155.791 268.955C155.932 268.627 156.002 268.25 156.002 267.824V261.66H154.73L154.672 262.299C154.594 262.205 154.51 262.119 154.42 262.041C154.33 261.959 154.234 261.889 154.133 261.83C153.977 261.736 153.803 261.666 153.611 261.619C153.42 261.568 153.207 261.543 152.973 261.543C152.578 261.543 152.223 261.623 151.906 261.783C151.594 261.939 151.326 262.16 151.104 262.445C150.885 262.73 150.715 263.072 150.594 263.471C150.477 263.865 150.418 264.303 150.418 264.783ZM151.824 264.906V264.783C151.824 264.498 151.854 264.23 151.912 263.98C151.971 263.727 152.062 263.504 152.188 263.312C152.309 263.121 152.463 262.971 152.65 262.861C152.838 262.752 153.062 262.697 153.324 262.697C153.473 262.697 153.609 262.715 153.734 262.75C153.859 262.781 153.973 262.826 154.074 262.885C154.188 262.947 154.287 263.025 154.373 263.119C154.463 263.213 154.539 263.318 154.602 263.436V266.213C154.539 266.326 154.467 266.43 154.385 266.523C154.303 266.617 154.209 266.697 154.104 266.764C153.998 266.826 153.879 266.875 153.746 266.91C153.617 266.945 153.473 266.963 153.312 266.963C153.055 266.963 152.832 266.91 152.645 266.805C152.457 266.695 152.303 266.545 152.182 266.354C152.057 266.17 151.965 265.953 151.906 265.703C151.852 265.453 151.824 265.188 151.824 264.906ZM163.379 264.895V264.771C163.379 264.412 163.346 264.072 163.279 263.752C163.217 263.432 163.123 263.141 162.998 262.879C162.904 262.691 162.795 262.52 162.67 262.363C162.549 262.203 162.41 262.068 162.254 261.959C162.07 261.826 161.863 261.725 161.633 261.654C161.406 261.58 161.156 261.543 160.883 261.543C160.676 261.543 160.482 261.564 160.303 261.607C160.127 261.646 159.965 261.707 159.816 261.789C159.703 261.852 159.598 261.924 159.5 262.006C159.402 262.088 159.312 262.18 159.23 262.281V259H157.83V268H159.096L159.16 267.309C159.23 267.395 159.303 267.475 159.377 267.549C159.455 267.619 159.537 267.686 159.623 267.748C159.791 267.869 159.98 267.961 160.191 268.023C160.402 268.086 160.637 268.117 160.895 268.117C161.148 268.117 161.383 268.084 161.598 268.018C161.816 267.955 162.014 267.865 162.189 267.748C162.408 267.604 162.596 267.422 162.752 267.203C162.908 266.984 163.033 266.74 163.127 266.471C163.209 266.244 163.271 265.998 163.314 265.732C163.357 265.467 163.379 265.188 163.379 264.895ZM161.979 264.771V264.895C161.979 265.07 161.969 265.24 161.949 265.404C161.93 265.568 161.9 265.721 161.861 265.861C161.814 266.049 161.746 266.219 161.656 266.371C161.57 266.52 161.459 266.643 161.322 266.74C161.221 266.811 161.105 266.867 160.977 266.91C160.848 266.949 160.703 266.969 160.543 266.969C160.367 266.969 160.207 266.947 160.062 266.904C159.922 266.857 159.797 266.795 159.688 266.717C159.59 266.643 159.502 266.559 159.424 266.465C159.35 266.367 159.285 266.26 159.23 266.143V263.518C159.277 263.416 159.332 263.322 159.395 263.236C159.461 263.146 159.535 263.068 159.617 263.002C159.73 262.904 159.863 262.83 160.016 262.779C160.168 262.725 160.34 262.697 160.531 262.697C160.688 262.697 160.828 262.715 160.953 262.75C161.078 262.785 161.189 262.838 161.287 262.908C161.436 263.01 161.553 263.135 161.639 263.283C161.729 263.428 161.801 263.59 161.855 263.77C161.895 263.918 161.924 264.078 161.943 264.25C161.967 264.418 161.979 264.592 161.979 264.771ZM169.062 268H170.492V267.9C170.414 267.736 170.354 267.541 170.311 267.314C170.271 267.084 170.252 266.826 170.252 266.541V263.723C170.252 263.363 170.186 263.047 170.053 262.773C169.92 262.496 169.736 262.268 169.502 262.088C169.268 261.908 168.988 261.773 168.664 261.684C168.344 261.59 167.998 261.543 167.627 261.543C167.213 261.543 166.844 261.598 166.52 261.707C166.199 261.812 165.928 261.957 165.705 262.141C165.482 262.32 165.312 262.527 165.195 262.762C165.078 262.996 165.018 263.24 165.014 263.494H166.42C166.42 263.373 166.441 263.26 166.484 263.154C166.531 263.045 166.602 262.953 166.695 262.879C166.789 262.797 166.906 262.732 167.047 262.686C167.191 262.639 167.359 262.615 167.551 262.615C167.762 262.615 167.947 262.643 168.107 262.697C168.271 262.748 168.41 262.822 168.523 262.92C168.629 263.018 168.709 263.133 168.764 263.266C168.822 263.398 168.852 263.547 168.852 263.711V264.139H167.832C167.375 264.139 166.965 264.182 166.602 264.268C166.242 264.354 165.939 264.479 165.693 264.643C165.428 264.818 165.225 265.041 165.084 265.311C164.947 265.576 164.879 265.883 164.879 266.23C164.879 266.5 164.932 266.752 165.037 266.986C165.146 267.217 165.297 267.414 165.488 267.578C165.684 267.746 165.916 267.879 166.186 267.977C166.459 268.07 166.76 268.117 167.088 268.117C167.291 268.117 167.48 268.098 167.656 268.059C167.832 268.02 167.996 267.965 168.148 267.895C168.301 267.828 168.438 267.75 168.559 267.66C168.684 267.566 168.795 267.469 168.893 267.367C168.912 267.488 168.934 267.605 168.957 267.719C168.984 267.828 169.02 267.922 169.062 268ZM167.357 266.992C167.178 266.992 167.021 266.971 166.889 266.928C166.756 266.881 166.645 266.818 166.555 266.74C166.465 266.662 166.396 266.568 166.35 266.459C166.303 266.346 166.279 266.225 166.279 266.096C166.279 265.939 166.307 265.799 166.361 265.674C166.42 265.549 166.508 265.441 166.625 265.352C166.758 265.246 166.936 265.166 167.158 265.111C167.381 265.053 167.645 265.023 167.949 265.023H168.852V266.195C168.801 266.297 168.729 266.395 168.635 266.488C168.541 266.582 168.43 266.666 168.301 266.74C168.172 266.814 168.027 266.875 167.867 266.922C167.711 266.969 167.541 266.992 167.357 266.992Z" fill="#7DD8C7"/>
<path d="M179.639 247.77L180.758 248.045C180.832 247.975 180.908 247.91 180.986 247.852C181.068 247.789 181.158 247.734 181.256 247.688C181.35 247.645 181.457 247.609 181.578 247.582C181.703 247.555 181.85 247.541 182.018 247.541C182.271 247.541 182.494 247.584 182.686 247.67C182.877 247.752 183.037 247.869 183.166 248.021C183.295 248.174 183.391 248.354 183.453 248.561C183.52 248.764 183.553 248.988 183.553 249.234C183.553 249.488 183.525 249.725 183.471 249.943C183.416 250.158 183.332 250.342 183.219 250.494C183.105 250.65 182.963 250.771 182.791 250.857C182.619 250.943 182.416 250.986 182.182 250.986C181.783 250.986 181.455 250.875 181.197 250.652C180.943 250.43 180.791 250.109 180.74 249.691H179.375C179.398 250.086 179.49 250.436 179.65 250.74C179.814 251.041 180.023 251.293 180.277 251.496C180.531 251.703 180.822 251.859 181.15 251.965C181.479 252.066 181.822 252.117 182.182 252.117C182.654 252.117 183.064 252.043 183.412 251.895C183.76 251.746 184.047 251.543 184.273 251.285C184.504 251.027 184.674 250.727 184.783 250.383C184.896 250.035 184.953 249.666 184.953 249.275C184.953 248.834 184.895 248.438 184.777 248.086C184.66 247.73 184.49 247.43 184.268 247.184C184.049 246.934 183.779 246.742 183.459 246.609C183.143 246.477 182.783 246.41 182.381 246.41C182.084 246.41 181.82 246.447 181.59 246.521C181.363 246.596 181.18 246.674 181.039 246.756L181.262 244.711H184.684V243.469H180.102L179.639 247.77ZM192.107 248.748V246.727C192.107 246.18 192.043 245.697 191.914 245.279C191.785 244.857 191.604 244.502 191.369 244.213C191.127 243.928 190.834 243.713 190.49 243.568C190.15 243.42 189.764 243.346 189.33 243.346C188.9 243.346 188.514 243.42 188.17 243.568C187.83 243.713 187.541 243.928 187.303 244.213C187.064 244.502 186.881 244.857 186.752 245.279C186.627 245.697 186.564 246.18 186.564 246.727V248.748C186.564 249.295 186.627 249.779 186.752 250.201C186.881 250.619 187.066 250.971 187.309 251.256C187.547 251.541 187.838 251.758 188.182 251.906C188.525 252.051 188.912 252.123 189.342 252.123C189.775 252.123 190.162 252.051 190.502 251.906C190.846 251.758 191.135 251.541 191.369 251.256C191.607 250.971 191.789 250.619 191.914 250.201C192.043 249.779 192.107 249.295 192.107 248.748ZM187.971 248.25C187.971 248.137 187.971 248.041 187.971 247.963C187.971 247.885 187.971 247.771 187.971 247.623V246.475C187.971 246.123 188.002 245.818 188.064 245.561C188.127 245.299 188.223 245.086 188.352 244.922C188.461 244.777 188.598 244.668 188.762 244.594C188.926 244.52 189.115 244.482 189.33 244.482C189.533 244.482 189.713 244.514 189.869 244.576C190.025 244.639 190.158 244.732 190.268 244.857C190.393 244.998 190.488 245.18 190.555 245.402C190.625 245.625 190.668 245.889 190.684 246.193L187.971 248.25ZM190.695 248.982C190.695 249.342 190.664 249.654 190.602 249.92C190.539 250.186 190.441 250.4 190.309 250.564C190.195 250.705 190.059 250.812 189.898 250.887C189.738 250.957 189.553 250.992 189.342 250.992C189.127 250.992 188.938 250.955 188.773 250.881C188.613 250.807 188.479 250.695 188.369 250.547C188.26 250.41 188.172 250.238 188.105 250.031C188.043 249.824 188.002 249.586 187.982 249.316L190.695 247.271C190.695 247.385 190.695 247.494 190.695 247.6C190.695 247.701 190.695 247.803 190.695 247.904V248.982ZM208.467 247.77L209.586 248.045C209.66 247.975 209.736 247.91 209.814 247.852C209.896 247.789 209.986 247.734 210.084 247.688C210.178 247.645 210.285 247.609 210.406 247.582C210.531 247.555 210.678 247.541 210.846 247.541C211.1 247.541 211.322 247.584 211.514 247.67C211.705 247.752 211.865 247.869 211.994 248.021C212.123 248.174 212.219 248.354 212.281 248.561C212.348 248.764 212.381 248.988 212.381 249.234C212.381 249.488 212.354 249.725 212.299 249.943C212.244 250.158 212.16 250.342 212.047 250.494C211.934 250.65 211.791 250.771 211.619 250.857C211.447 250.943 211.244 250.986 211.01 250.986C210.611 250.986 210.283 250.875 210.025 250.652C209.771 250.43 209.619 250.109 209.568 249.691H208.203C208.227 250.086 208.318 250.436 208.479 250.74C208.643 251.041 208.852 251.293 209.105 251.496C209.359 251.703 209.65 251.859 209.979 251.965C210.307 252.066 210.65 252.117 211.01 252.117C211.482 252.117 211.893 252.043 212.24 251.895C212.588 251.746 212.875 251.543 213.102 251.285C213.332 251.027 213.502 250.727 213.611 250.383C213.725 250.035 213.781 249.666 213.781 249.275C213.781 248.834 213.723 248.438 213.605 248.086C213.488 247.73 213.318 247.43 213.096 247.184C212.877 246.934 212.607 246.742 212.287 246.609C211.971 246.477 211.611 246.41 211.209 246.41C210.912 246.41 210.648 246.447 210.418 246.521C210.191 246.596 210.008 246.674 209.867 246.756L210.09 244.711H213.512V243.469H208.93L208.467 247.77ZM220.936 248.748V246.727C220.936 246.18 220.871 245.697 220.742 245.279C220.613 244.857 220.432 244.502 220.197 244.213C219.955 243.928 219.662 243.713 219.318 243.568C218.979 243.42 218.592 243.346 218.158 243.346C217.729 243.346 217.342 243.42 216.998 243.568C216.658 243.713 216.369 243.928 216.131 244.213C215.893 244.502 215.709 244.857 215.58 245.279C215.455 245.697 215.393 246.18 215.393 246.727V248.748C215.393 249.295 215.455 249.779 215.58 250.201C215.709 250.619 215.895 250.971 216.137 251.256C216.375 251.541 216.666 251.758 217.01 251.906C217.354 252.051 217.74 252.123 218.17 252.123C218.604 252.123 218.99 252.051 219.33 251.906C219.674 251.758 219.963 251.541 220.197 251.256C220.436 250.971 220.617 250.619 220.742 250.201C220.871 249.779 220.936 249.295 220.936 248.748ZM216.799 248.25C216.799 248.137 216.799 248.041 216.799 247.963C216.799 247.885 216.799 247.771 216.799 247.623V246.475C216.799 246.123 216.83 245.818 216.893 245.561C216.955 245.299 217.051 245.086 217.18 244.922C217.289 244.777 217.426 244.668 217.59 244.594C217.754 244.52 217.943 244.482 218.158 244.482C218.361 244.482 218.541 244.514 218.697 244.576C218.854 244.639 218.986 244.732 219.096 244.857C219.221 244.998 219.316 245.18 219.383 245.402C219.453 245.625 219.496 245.889 219.512 246.193L216.799 248.25ZM219.523 248.982C219.523 249.342 219.492 249.654 219.43 249.92C219.367 250.186 219.27 250.4 219.137 250.564C219.023 250.705 218.887 250.812 218.727 250.887C218.566 250.957 218.381 250.992 218.17 250.992C217.955 250.992 217.766 250.955 217.602 250.881C217.441 250.807 217.307 250.695 217.197 250.547C217.088 250.41 217 250.238 216.934 250.031C216.871 249.824 216.83 249.586 216.811 249.316L219.523 247.271C219.523 247.385 219.523 247.494 219.523 247.6C219.523 247.701 219.523 247.803 219.523 247.904V248.982ZM238.221 250.846H238.109V252.041H238.227C238.961 252.041 239.588 251.934 240.107 251.719C240.631 251.504 241.053 251.209 241.373 250.834C241.768 250.377 242.043 249.844 242.199 249.234C242.355 248.625 242.434 247.984 242.434 247.312V246.82C242.434 246.332 242.369 245.867 242.24 245.426C242.111 244.98 241.922 244.602 241.672 244.289C241.434 244 241.143 243.771 240.799 243.604C240.459 243.436 240.068 243.352 239.627 243.352C239.189 243.352 238.799 243.432 238.455 243.592C238.115 243.748 237.828 243.961 237.594 244.23C237.359 244.504 237.18 244.822 237.055 245.186C236.934 245.545 236.873 245.93 236.873 246.34C236.873 246.715 236.924 247.076 237.025 247.424C237.127 247.768 237.281 248.072 237.488 248.338C237.691 248.6 237.945 248.809 238.25 248.965C238.559 249.121 238.92 249.199 239.334 249.199C239.537 249.199 239.723 249.18 239.891 249.141C240.062 249.102 240.219 249.049 240.359 248.982C240.492 248.92 240.613 248.848 240.723 248.766C240.836 248.68 240.936 248.588 241.021 248.49V248.52C240.99 248.852 240.92 249.162 240.811 249.451C240.701 249.736 240.529 249.99 240.295 250.213C240.076 250.416 239.797 250.572 239.457 250.682C239.117 250.791 238.705 250.846 238.221 250.846ZM239.633 248.092C239.398 248.092 239.195 248.043 239.023 247.945C238.855 247.844 238.713 247.711 238.596 247.547C238.482 247.379 238.398 247.188 238.344 246.973C238.289 246.758 238.262 246.533 238.262 246.299C238.262 246.057 238.291 245.826 238.35 245.607C238.412 245.385 238.502 245.191 238.619 245.027C238.732 244.863 238.873 244.734 239.041 244.641C239.213 244.543 239.408 244.494 239.627 244.494C239.822 244.494 240.006 244.541 240.178 244.635C240.35 244.725 240.5 244.857 240.629 245.033C240.758 245.209 240.859 245.428 240.934 245.689C241.008 245.951 241.045 246.252 241.045 246.592V247.078C240.986 247.223 240.91 247.357 240.816 247.482C240.727 247.604 240.621 247.711 240.5 247.805C240.379 247.895 240.244 247.965 240.096 248.016C239.951 248.066 239.797 248.092 239.633 248.092ZM245.773 247.102V248.203H246.611C246.854 248.203 247.072 248.232 247.268 248.291C247.467 248.346 247.637 248.43 247.777 248.543C247.918 248.66 248.025 248.807 248.1 248.982C248.174 249.158 248.211 249.369 248.211 249.615C248.211 249.834 248.178 250.029 248.111 250.201C248.049 250.369 247.957 250.51 247.836 250.623C247.711 250.744 247.557 250.836 247.373 250.898C247.193 250.957 246.99 250.986 246.764 250.986C246.553 250.986 246.359 250.955 246.184 250.893C246.012 250.83 245.863 250.742 245.738 250.629C245.609 250.52 245.51 250.387 245.439 250.23C245.373 250.07 245.34 249.896 245.34 249.709H243.939C243.939 250.107 244.016 250.457 244.168 250.758C244.324 251.055 244.531 251.305 244.789 251.508C245.047 251.711 245.346 251.863 245.686 251.965C246.025 252.066 246.379 252.117 246.746 252.117C247.152 252.117 247.529 252.062 247.877 251.953C248.229 251.84 248.533 251.676 248.791 251.461C249.045 251.25 249.244 250.99 249.389 250.682C249.537 250.369 249.611 250.014 249.611 249.615C249.611 249.4 249.586 249.193 249.535 248.994C249.484 248.791 249.402 248.602 249.289 248.426C249.176 248.254 249.029 248.1 248.85 247.963C248.674 247.822 248.459 247.709 248.205 247.623C248.42 247.525 248.607 247.406 248.768 247.266C248.928 247.125 249.061 246.975 249.166 246.814C249.271 246.65 249.35 246.48 249.4 246.305C249.455 246.129 249.482 245.953 249.482 245.777C249.482 245.379 249.416 245.029 249.283 244.729C249.15 244.428 248.963 244.174 248.721 243.967C248.482 243.764 248.193 243.611 247.854 243.51C247.518 243.404 247.148 243.352 246.746 243.352C246.352 243.352 245.988 243.41 245.656 243.527C245.328 243.645 245.043 243.807 244.801 244.014C244.559 244.225 244.369 244.473 244.232 244.758C244.096 245.043 244.027 245.355 244.027 245.695H245.428C245.428 245.512 245.461 245.346 245.527 245.197C245.598 245.049 245.693 244.922 245.814 244.816C245.932 244.711 246.07 244.631 246.23 244.576C246.395 244.518 246.572 244.488 246.764 244.488C246.979 244.488 247.168 244.518 247.332 244.576C247.5 244.635 247.639 244.717 247.748 244.822C247.857 244.936 247.939 245.072 247.994 245.232C248.053 245.393 248.082 245.574 248.082 245.777C248.082 245.965 248.051 246.141 247.988 246.305C247.93 246.465 247.844 246.6 247.73 246.709C247.609 246.834 247.455 246.932 247.268 247.002C247.08 247.068 246.861 247.102 246.611 247.102H245.773ZM271.385 248.748V246.727C271.385 246.18 271.32 245.697 271.191 245.279C271.062 244.857 270.881 244.502 270.646 244.213C270.404 243.928 270.111 243.713 269.768 243.568C269.428 243.42 269.041 243.346 268.607 243.346C268.178 243.346 267.791 243.42 267.447 243.568C267.107 243.713 266.818 243.928 266.58 244.213C266.342 244.502 266.158 244.857 266.029 245.279C265.904 245.697 265.842 246.18 265.842 246.727V248.748C265.842 249.295 265.904 249.779 266.029 250.201C266.158 250.619 266.344 250.971 266.586 251.256C266.824 251.541 267.115 251.758 267.459 251.906C267.803 252.051 268.189 252.123 268.619 252.123C269.053 252.123 269.439 252.051 269.779 251.906C270.123 251.758 270.412 251.541 270.646 251.256C270.885 250.971 271.066 250.619 271.191 250.201C271.32 249.779 271.385 249.295 271.385 248.748ZM267.248 248.25C267.248 248.137 267.248 248.041 267.248 247.963C267.248 247.885 267.248 247.771 267.248 247.623V246.475C267.248 246.123 267.279 245.818 267.342 245.561C267.404 245.299 267.5 245.086 267.629 244.922C267.738 244.777 267.875 244.668 268.039 244.594C268.203 244.52 268.393 244.482 268.607 244.482C268.811 244.482 268.99 244.514 269.146 244.576C269.303 244.639 269.436 244.732 269.545 244.857C269.67 244.998 269.766 245.18 269.832 245.402C269.902 245.625 269.945 245.889 269.961 246.193L267.248 248.25ZM269.973 248.982C269.973 249.342 269.941 249.654 269.879 249.92C269.816 250.186 269.719 250.4 269.586 250.564C269.473 250.705 269.336 250.812 269.176 250.887C269.016 250.957 268.83 250.992 268.619 250.992C268.404 250.992 268.215 250.955 268.051 250.881C267.891 250.807 267.756 250.695 267.646 250.547C267.537 250.41 267.449 250.238 267.383 250.031C267.32 249.824 267.279 249.586 267.26 249.316L269.973 247.271C269.973 247.385 269.973 247.494 269.973 247.6C269.973 247.701 269.973 247.803 269.973 247.904V248.982ZM274.865 251.156C274.865 251.426 274.953 251.654 275.129 251.842C275.309 252.025 275.559 252.117 275.879 252.117C276.195 252.117 276.443 252.025 276.623 251.842C276.807 251.658 276.898 251.43 276.898 251.156C276.898 250.883 276.809 250.652 276.629 250.465C276.449 250.273 276.199 250.178 275.879 250.178C275.555 250.178 275.305 250.273 275.129 250.465C274.953 250.656 274.865 250.887 274.865 251.156ZM285.758 252V250.869H281.785L283.684 248.842C283.934 248.576 284.164 248.318 284.375 248.068C284.59 247.818 284.775 247.57 284.932 247.324C285.084 247.078 285.203 246.83 285.289 246.58C285.379 246.326 285.424 246.064 285.424 245.795C285.424 245.436 285.365 245.107 285.248 244.811C285.131 244.51 284.961 244.252 284.738 244.037C284.512 243.822 284.232 243.654 283.9 243.533C283.572 243.412 283.199 243.352 282.781 243.352C282.336 243.352 281.932 243.424 281.568 243.568C281.209 243.713 280.904 243.908 280.654 244.154C280.4 244.4 280.205 244.689 280.068 245.021C279.932 245.35 279.863 245.699 279.863 246.07H281.27C281.27 245.824 281.301 245.605 281.363 245.414C281.426 245.219 281.52 245.055 281.645 244.922C281.766 244.789 281.918 244.688 282.102 244.617C282.285 244.547 282.502 244.512 282.752 244.512C282.947 244.512 283.123 244.545 283.279 244.611C283.439 244.678 283.576 244.77 283.689 244.887C283.803 245.004 283.889 245.145 283.947 245.309C284.006 245.473 284.035 245.654 284.035 245.854C284.035 246.002 284.014 246.15 283.971 246.299C283.932 246.443 283.865 246.6 283.771 246.768C283.674 246.936 283.547 247.121 283.391 247.324C283.234 247.523 283.041 247.75 282.811 248.004L280.033 251.027V252H285.758ZM287.744 247.77L288.863 248.045C288.938 247.975 289.014 247.91 289.092 247.852C289.174 247.789 289.264 247.734 289.361 247.688C289.455 247.645 289.562 247.609 289.684 247.582C289.809 247.555 289.955 247.541 290.123 247.541C290.377 247.541 290.6 247.584 290.791 247.67C290.982 247.752 291.143 247.869 291.271 248.021C291.4 248.174 291.496 248.354 291.559 248.561C291.625 248.764 291.658 248.988 291.658 249.234C291.658 249.488 291.631 249.725 291.576 249.943C291.521 250.158 291.438 250.342 291.324 250.494C291.211 250.65 291.068 250.771 290.896 250.857C290.725 250.943 290.521 250.986 290.287 250.986C289.889 250.986 289.561 250.875 289.303 250.652C289.049 250.43 288.896 250.109 288.846 249.691H287.48C287.504 250.086 287.596 250.436 287.756 250.74C287.92 251.041 288.129 251.293 288.383 251.496C288.637 251.703 288.928 251.859 289.256 251.965C289.584 252.066 289.928 252.117 290.287 252.117C290.76 252.117 291.17 252.043 291.518 251.895C291.865 251.746 292.152 251.543 292.379 251.285C292.609 251.027 292.779 250.727 292.889 250.383C293.002 250.035 293.059 249.666 293.059 249.275C293.059 248.834 293 248.438 292.883 248.086C292.766 247.73 292.596 247.43 292.373 247.184C292.154 246.934 291.885 246.742 291.564 246.609C291.248 246.477 290.889 246.41 290.486 246.41C290.189 246.41 289.926 246.447 289.695 246.521C289.469 246.596 289.285 246.674 289.145 246.756L289.367 244.711H292.789V243.469H288.207L287.744 247.77ZM314.627 248.748V246.727C314.627 246.18 314.562 245.697 314.434 245.279C314.305 244.857 314.123 244.502 313.889 244.213C313.646 243.928 313.354 243.713 313.01 243.568C312.67 243.42 312.283 243.346 311.85 243.346C311.42 243.346 311.033 243.42 310.689 243.568C310.35 243.713 310.061 243.928 309.822 244.213C309.584 244.502 309.4 244.857 309.271 245.279C309.146 245.697 309.084 246.18 309.084 246.727V248.748C309.084 249.295 309.146 249.779 309.271 250.201C309.4 250.619 309.586 250.971 309.828 251.256C310.066 251.541 310.357 251.758 310.701 251.906C311.045 252.051 311.432 252.123 311.861 252.123C312.295 252.123 312.682 252.051 313.021 251.906C313.365 251.758 313.654 251.541 313.889 251.256C314.127 250.971 314.309 250.619 314.434 250.201C314.562 249.779 314.627 249.295 314.627 248.748ZM310.49 248.25C310.49 248.137 310.49 248.041 310.49 247.963C310.49 247.885 310.49 247.771 310.49 247.623V246.475C310.49 246.123 310.521 245.818 310.584 245.561C310.646 245.299 310.742 245.086 310.871 244.922C310.98 244.777 311.117 244.668 311.281 244.594C311.445 244.52 311.635 244.482 311.85 244.482C312.053 244.482 312.232 244.514 312.389 244.576C312.545 244.639 312.678 244.732 312.787 244.857C312.912 244.998 313.008 245.18 313.074 245.402C313.145 245.625 313.188 245.889 313.203 246.193L310.49 248.25ZM313.215 248.982C313.215 249.342 313.184 249.654 313.121 249.92C313.059 250.186 312.961 250.4 312.828 250.564C312.715 250.705 312.578 250.812 312.418 250.887C312.258 250.957 312.072 250.992 311.861 250.992C311.646 250.992 311.457 250.955 311.293 250.881C311.133 250.807 310.998 250.695 310.889 250.547C310.779 250.41 310.691 250.238 310.625 250.031C310.562 249.824 310.521 249.586 310.502 249.316L313.215 247.271C313.215 247.385 313.215 247.494 313.215 247.6C313.215 247.701 313.215 247.803 313.215 247.904V248.982ZM316.373 254.438H317.773V251.426C317.848 251.508 317.928 251.584 318.014 251.654C318.1 251.721 318.189 251.783 318.283 251.842C318.443 251.932 318.617 252 318.805 252.047C318.996 252.094 319.205 252.117 319.432 252.117C319.83 252.117 320.184 252.035 320.492 251.871C320.801 251.707 321.061 251.48 321.271 251.191C321.482 250.906 321.641 250.566 321.746 250.172C321.855 249.777 321.91 249.352 321.91 248.895V248.771C321.91 248.295 321.855 247.859 321.746 247.465C321.641 247.066 321.482 246.725 321.271 246.439C321.061 246.154 320.799 245.934 320.486 245.777C320.178 245.621 319.82 245.543 319.414 245.543C319.207 245.543 319.012 245.566 318.828 245.613C318.645 245.656 318.477 245.719 318.324 245.801C318.207 245.863 318.098 245.938 317.996 246.023C317.895 246.109 317.801 246.205 317.715 246.311L317.662 245.66H316.373V254.438ZM320.51 248.771V248.895C320.51 249.176 320.482 249.443 320.428 249.697C320.373 249.947 320.285 250.17 320.164 250.365C320.047 250.557 319.895 250.709 319.707 250.822C319.523 250.932 319.301 250.986 319.039 250.986C318.879 250.986 318.732 250.969 318.6 250.934C318.467 250.895 318.348 250.844 318.242 250.781C318.141 250.715 318.051 250.637 317.973 250.547C317.895 250.457 317.828 250.357 317.773 250.248V247.43C317.836 247.312 317.908 247.207 317.99 247.113C318.076 247.02 318.176 246.941 318.289 246.879C318.387 246.82 318.498 246.775 318.623 246.744C318.748 246.713 318.883 246.697 319.027 246.697C319.289 246.697 319.514 246.752 319.701 246.861C319.889 246.971 320.043 247.119 320.164 247.307C320.281 247.494 320.367 247.715 320.422 247.969C320.48 248.219 320.51 248.486 320.51 248.771ZM326.352 247.793L324.852 245.66H323.311L325.531 248.783L323.234 252H324.787L326.363 249.785L327.945 252H329.492L327.195 248.783L329.422 245.66H327.869L326.352 247.793ZM341.773 252V243.469H341.686L338.176 244.77V246.006L340.361 245.203V252H341.773ZM346.672 247.102V248.203H347.51C347.752 248.203 347.971 248.232 348.166 248.291C348.365 248.346 348.535 248.43 348.676 248.543C348.816 248.66 348.924 248.807 348.998 248.982C349.072 249.158 349.109 249.369 349.109 249.615C349.109 249.834 349.076 250.029 349.01 250.201C348.947 250.369 348.855 250.51 348.734 250.623C348.609 250.744 348.455 250.836 348.271 250.898C348.092 250.957 347.889 250.986 347.662 250.986C347.451 250.986 347.258 250.955 347.082 250.893C346.91 250.83 346.762 250.742 346.637 250.629C346.508 250.52 346.408 250.387 346.338 250.23C346.271 250.07 346.238 249.896 346.238 249.709H344.838C344.838 250.107 344.914 250.457 345.066 250.758C345.223 251.055 345.43 251.305 345.688 251.508C345.945 251.711 346.244 251.863 346.584 251.965C346.924 252.066 347.277 252.117 347.645 252.117C348.051 252.117 348.428 252.062 348.775 251.953C349.127 251.84 349.432 251.676 349.689 251.461C349.943 251.25 350.143 250.99 350.287 250.682C350.436 250.369 350.51 250.014 350.51 249.615C350.51 249.4 350.484 249.193 350.434 248.994C350.383 248.791 350.301 248.602 350.188 248.426C350.074 248.254 349.928 248.1 349.748 247.963C349.572 247.822 349.357 247.709 349.104 247.623C349.318 247.525 349.506 247.406 349.666 247.266C349.826 247.125 349.959 246.975 350.064 246.814C350.17 246.65 350.248 246.48 350.299 246.305C350.354 246.129 350.381 245.953 350.381 245.777C350.381 245.379 350.314 245.029 350.182 244.729C350.049 244.428 349.861 244.174 349.619 243.967C349.381 243.764 349.092 243.611 348.752 243.51C348.416 243.404 348.047 243.352 347.645 243.352C347.25 243.352 346.887 243.41 346.555 243.527C346.227 243.645 345.941 243.807 345.699 244.014C345.457 244.225 345.268 244.473 345.131 244.758C344.994 245.043 344.926 245.355 344.926 245.695H346.326C346.326 245.512 346.359 245.346 346.426 245.197C346.496 245.049 346.592 244.922 346.713 244.816C346.83 244.711 346.969 244.631 347.129 244.576C347.293 244.518 347.471 244.488 347.662 244.488C347.877 244.488 348.066 244.518 348.23 244.576C348.398 244.635 348.537 244.717 348.646 244.822C348.756 244.936 348.838 245.072 348.893 245.232C348.951 245.393 348.98 245.574 348.98 245.777C348.98 245.965 348.949 246.141 348.887 246.305C348.828 246.465 348.742 246.6 348.629 246.709C348.508 246.834 348.354 246.932 348.166 247.002C347.979 247.068 347.76 247.102 347.51 247.102H346.672ZM352.408 254.438H353.809V251.426C353.883 251.508 353.963 251.584 354.049 251.654C354.135 251.721 354.225 251.783 354.318 251.842C354.479 251.932 354.652 252 354.84 252.047C355.031 252.094 355.24 252.117 355.467 252.117C355.865 252.117 356.219 252.035 356.527 251.871C356.836 251.707 357.096 251.48 357.307 251.191C357.518 250.906 357.676 250.566 357.781 250.172C357.891 249.777 357.945 249.352 357.945 248.895V248.771C357.945 248.295 357.891 247.859 357.781 247.465C357.676 247.066 357.518 246.725 357.307 246.439C357.096 246.154 356.834 245.934 356.521 245.777C356.213 245.621 355.855 245.543 355.449 245.543C355.242 245.543 355.047 245.566 354.863 245.613C354.68 245.656 354.512 245.719 354.359 245.801C354.242 245.863 354.133 245.938 354.031 246.023C353.93 246.109 353.836 246.205 353.75 246.311L353.697 245.66H352.408V254.438ZM356.545 248.771V248.895C356.545 249.176 356.518 249.443 356.463 249.697C356.408 249.947 356.32 250.17 356.199 250.365C356.082 250.557 355.93 250.709 355.742 250.822C355.559 250.932 355.336 250.986 355.074 250.986C354.914 250.986 354.768 250.969 354.635 250.934C354.502 250.895 354.383 250.844 354.277 250.781C354.176 250.715 354.086 250.637 354.008 250.547C353.93 250.457 353.863 250.357 353.809 250.248V247.43C353.871 247.312 353.943 247.207 354.025 247.113C354.111 247.02 354.211 246.941 354.324 246.879C354.422 246.82 354.533 246.775 354.658 246.744C354.783 246.713 354.918 246.697 355.062 246.697C355.324 246.697 355.549 246.752 355.736 246.861C355.924 246.971 356.078 247.119 356.199 247.307C356.316 247.494 356.402 247.715 356.457 247.969C356.516 248.219 356.545 248.486 356.545 248.771ZM362.387 247.793L360.887 245.66H359.346L361.566 248.783L359.27 252H360.822L362.398 249.785L363.98 252H365.527L363.23 248.783L365.457 245.66H363.904L362.387 247.793ZM379.449 252V250.869H375.477L377.375 248.842C377.625 248.576 377.855 248.318 378.066 248.068C378.281 247.818 378.467 247.57 378.623 247.324C378.775 247.078 378.895 246.83 378.98 246.58C379.07 246.326 379.115 246.064 379.115 245.795C379.115 245.436 379.057 245.107 378.939 244.811C378.822 244.51 378.652 244.252 378.43 244.037C378.203 243.822 377.924 243.654 377.592 243.533C377.264 243.412 376.891 243.352 376.473 243.352C376.027 243.352 375.623 243.424 375.26 243.568C374.9 243.713 374.596 243.908 374.346 244.154C374.092 244.4 373.896 244.689 373.76 245.021C373.623 245.35 373.555 245.699 373.555 246.07H374.961C374.961 245.824 374.992 245.605 375.055 245.414C375.117 245.219 375.211 245.055 375.336 244.922C375.457 244.789 375.609 244.688 375.793 244.617C375.977 244.547 376.193 244.512 376.443 244.512C376.639 244.512 376.814 244.545 376.971 244.611C377.131 244.678 377.268 244.77 377.381 244.887C377.494 245.004 377.58 245.145 377.639 245.309C377.697 245.473 377.727 245.654 377.727 245.854C377.727 246.002 377.705 246.15 377.662 246.299C377.623 246.443 377.557 246.6 377.463 246.768C377.365 246.936 377.238 247.121 377.082 247.324C376.926 247.523 376.732 247.75 376.502 248.004L373.725 251.027V252H379.449ZM386.727 244.254V243.469H380.826V244.641H385.25L381.84 252H383.316L386.727 244.254ZM388.443 254.438H389.844V251.426C389.918 251.508 389.998 251.584 390.084 251.654C390.17 251.721 390.26 251.783 390.354 251.842C390.514 251.932 390.688 252 390.875 252.047C391.066 252.094 391.275 252.117 391.502 252.117C391.9 252.117 392.254 252.035 392.562 251.871C392.871 251.707 393.131 251.48 393.342 251.191C393.553 250.906 393.711 250.566 393.816 250.172C393.926 249.777 393.98 249.352 393.98 248.895V248.771C393.98 248.295 393.926 247.859 393.816 247.465C393.711 247.066 393.553 246.725 393.342 246.439C393.131 246.154 392.869 245.934 392.557 245.777C392.248 245.621 391.891 245.543 391.484 245.543C391.277 245.543 391.082 245.566 390.898 245.613C390.715 245.656 390.547 245.719 390.395 245.801C390.277 245.863 390.168 245.938 390.066 246.023C389.965 246.109 389.871 246.205 389.785 246.311L389.732 245.66H388.443V254.438ZM392.58 248.771V248.895C392.58 249.176 392.553 249.443 392.498 249.697C392.443 249.947 392.355 250.17 392.234 250.365C392.117 250.557 391.965 250.709 391.777 250.822C391.594 250.932 391.371 250.986 391.109 250.986C390.949 250.986 390.803 250.969 390.67 250.934C390.537 250.895 390.418 250.844 390.312 250.781C390.211 250.715 390.121 250.637 390.043 250.547C389.965 250.457 389.898 250.357 389.844 250.248V247.43C389.906 247.312 389.979 247.207 390.061 247.113C390.146 247.02 390.246 246.941 390.359 246.879C390.457 246.82 390.568 246.775 390.693 246.744C390.818 246.713 390.953 246.697 391.098 246.697C391.359 246.697 391.584 246.752 391.771 246.861C391.959 246.971 392.113 247.119 392.234 247.307C392.352 247.494 392.438 247.715 392.492 247.969C392.551 248.219 392.58 248.486 392.58 248.771ZM398.422 247.793L396.922 245.66H395.381L397.602 248.783L395.305 252H396.857L398.434 249.785L400.016 252H401.562L399.266 248.783L401.492 245.66H399.939L398.422 247.793ZM415.355 248.818V247.682H410.639V248.818H415.355ZM417.471 247.77L418.59 248.045C418.664 247.975 418.74 247.91 418.818 247.852C418.9 247.789 418.99 247.734 419.088 247.688C419.182 247.645 419.289 247.609 419.41 247.582C419.535 247.555 419.682 247.541 419.85 247.541C420.104 247.541 420.326 247.584 420.518 247.67C420.709 247.752 420.869 247.869 420.998 248.021C421.127 248.174 421.223 248.354 421.285 248.561C421.352 248.764 421.385 248.988 421.385 249.234C421.385 249.488 421.357 249.725 421.303 249.943C421.248 250.158 421.164 250.342 421.051 250.494C420.938 250.65 420.795 250.771 420.623 250.857C420.451 250.943 420.248 250.986 420.014 250.986C419.615 250.986 419.287 250.875 419.029 250.652C418.775 250.43 418.623 250.109 418.572 249.691H417.207C417.23 250.086 417.322 250.436 417.482 250.74C417.646 251.041 417.855 251.293 418.109 251.496C418.363 251.703 418.654 251.859 418.982 251.965C419.311 252.066 419.654 252.117 420.014 252.117C420.486 252.117 420.896 252.043 421.244 251.895C421.592 251.746 421.879 251.543 422.105 251.285C422.336 251.027 422.506 250.727 422.615 250.383C422.729 250.035 422.785 249.666 422.785 249.275C422.785 248.834 422.727 248.438 422.609 248.086C422.492 247.73 422.322 247.43 422.1 247.184C421.881 246.934 421.611 246.742 421.291 246.609C420.975 246.477 420.615 246.41 420.213 246.41C419.916 246.41 419.652 246.447 419.422 246.521C419.195 246.596 419.012 246.674 418.871 246.756L419.094 244.711H422.516V243.469H417.934L417.471 247.77ZM424.479 254.438H425.879V251.426C425.953 251.508 426.033 251.584 426.119 251.654C426.205 251.721 426.295 251.783 426.389 251.842C426.549 251.932 426.723 252 426.91 252.047C427.102 252.094 427.311 252.117 427.537 252.117C427.936 252.117 428.289 252.035 428.598 251.871C428.906 251.707 429.166 251.48 429.377 251.191C429.588 250.906 429.746 250.566 429.852 250.172C429.961 249.777 430.016 249.352 430.016 248.895V248.771C430.016 248.295 429.961 247.859 429.852 247.465C429.746 247.066 429.588 246.725 429.377 246.439C429.166 246.154 428.904 245.934 428.592 245.777C428.283 245.621 427.926 245.543 427.52 245.543C427.312 245.543 427.117 245.566 426.934 245.613C426.75 245.656 426.582 245.719 426.43 245.801C426.312 245.863 426.203 245.938 426.102 246.023C426 246.109 425.906 246.205 425.82 246.311L425.768 245.66H424.479V254.438ZM428.615 248.771V248.895C428.615 249.176 428.588 249.443 428.533 249.697C428.479 249.947 428.391 250.17 428.27 250.365C428.152 250.557 428 250.709 427.812 250.822C427.629 250.932 427.406 250.986 427.145 250.986C426.984 250.986 426.838 250.969 426.705 250.934C426.572 250.895 426.453 250.844 426.348 250.781C426.246 250.715 426.156 250.637 426.078 250.547C426 250.457 425.934 250.357 425.879 250.248V247.43C425.941 247.312 426.014 247.207 426.096 247.113C426.182 247.02 426.281 246.941 426.395 246.879C426.492 246.82 426.604 246.775 426.729 246.744C426.854 246.713 426.988 246.697 427.133 246.697C427.395 246.697 427.619 246.752 427.807 246.861C427.994 246.971 428.148 247.119 428.27 247.307C428.387 247.494 428.473 247.715 428.527 247.969C428.586 248.219 428.615 248.486 428.615 248.771ZM434.457 247.793L432.957 245.66H431.416L433.637 248.783L431.34 252H432.893L434.469 249.785L436.051 252H437.598L435.301 248.783L437.527 245.66H435.975L434.457 247.793ZM184.9 264.748V262.727C184.9 262.18 184.836 261.697 184.707 261.279C184.578 260.857 184.396 260.502 184.162 260.213C183.92 259.928 183.627 259.713 183.283 259.568C182.943 259.42 182.557 259.346 182.123 259.346C181.693 259.346 181.307 259.42 180.963 259.568C180.623 259.713 180.334 259.928 180.096 260.213C179.857 260.502 179.674 260.857 179.545 261.279C179.42 261.697 179.357 262.18 179.357 262.727V264.748C179.357 265.295 179.42 265.779 179.545 266.201C179.674 266.619 179.859 266.971 180.102 267.256C180.34 267.541 180.631 267.758 180.975 267.906C181.318 268.051 181.705 268.123 182.135 268.123C182.568 268.123 182.955 268.051 183.295 267.906C183.639 267.758 183.928 267.541 184.162 267.256C184.4 266.971 184.582 266.619 184.707 266.201C184.836 265.779 184.9 265.295 184.9 264.748ZM180.764 264.25C180.764 264.137 180.764 264.041 180.764 263.963C180.764 263.885 180.764 263.771 180.764 263.623V262.475C180.764 262.123 180.795 261.818 180.857 261.561C180.92 261.299 181.016 261.086 181.145 260.922C181.254 260.777 181.391 260.668 181.555 260.594C181.719 260.52 181.908 260.482 182.123 260.482C182.326 260.482 182.506 260.514 182.662 260.576C182.818 260.639 182.951 260.732 183.061 260.857C183.186 260.998 183.281 261.18 183.348 261.402C183.418 261.625 183.461 261.889 183.477 262.193L180.764 264.25ZM183.488 264.982C183.488 265.342 183.457 265.654 183.395 265.92C183.332 266.186 183.234 266.4 183.102 266.564C182.988 266.705 182.852 266.812 182.691 266.887C182.531 266.957 182.346 266.992 182.135 266.992C181.92 266.992 181.73 266.955 181.566 266.881C181.406 266.807 181.271 266.695 181.162 266.547C181.053 266.41 180.965 266.238 180.898 266.031C180.836 265.824 180.795 265.586 180.775 265.316L183.488 263.271C183.488 263.385 183.488 263.494 183.488 263.6C183.488 263.701 183.488 263.803 183.488 263.904V264.982ZM206.521 264.748V262.727C206.521 262.18 206.457 261.697 206.328 261.279C206.199 260.857 206.018 260.502 205.783 260.213C205.541 259.928 205.248 259.713 204.904 259.568C204.564 259.42 204.178 259.346 203.744 259.346C203.314 259.346 202.928 259.42 202.584 259.568C202.244 259.713 201.955 259.928 201.717 260.213C201.479 260.502 201.295 260.857 201.166 261.279C201.041 261.697 200.979 262.18 200.979 262.727V264.748C200.979 265.295 201.041 265.779 201.166 266.201C201.295 266.619 201.48 266.971 201.723 267.256C201.961 267.541 202.252 267.758 202.596 267.906C202.939 268.051 203.326 268.123 203.756 268.123C204.189 268.123 204.576 268.051 204.916 267.906C205.26 267.758 205.549 267.541 205.783 267.256C206.021 266.971 206.203 266.619 206.328 266.201C206.457 265.779 206.521 265.295 206.521 264.748ZM202.385 264.25C202.385 264.137 202.385 264.041 202.385 263.963C202.385 263.885 202.385 263.771 202.385 263.623V262.475C202.385 262.123 202.416 261.818 202.479 261.561C202.541 261.299 202.637 261.086 202.766 260.922C202.875 260.777 203.012 260.668 203.176 260.594C203.34 260.52 203.529 260.482 203.744 260.482C203.947 260.482 204.127 260.514 204.283 260.576C204.439 260.639 204.572 260.732 204.682 260.857C204.807 260.998 204.902 261.18 204.969 261.402C205.039 261.625 205.082 261.889 205.098 262.193L202.385 264.25ZM205.109 264.982C205.109 265.342 205.078 265.654 205.016 265.92C204.953 266.186 204.855 266.4 204.723 266.564C204.609 266.705 204.473 266.812 204.312 266.887C204.152 266.957 203.967 266.992 203.756 266.992C203.541 266.992 203.352 266.955 203.188 266.881C203.027 266.807 202.893 266.695 202.783 266.547C202.674 266.41 202.586 266.238 202.52 266.031C202.457 265.824 202.416 265.586 202.396 265.316L205.109 263.271C205.109 263.385 205.109 263.494 205.109 263.6C205.109 263.701 205.109 263.803 205.109 263.904V264.982ZM228.143 264.748V262.727C228.143 262.18 228.078 261.697 227.949 261.279C227.82 260.857 227.639 260.502 227.404 260.213C227.162 259.928 226.869 259.713 226.525 259.568C226.186 259.42 225.799 259.346 225.365 259.346C224.936 259.346 224.549 259.42 224.205 259.568C223.865 259.713 223.576 259.928 223.338 260.213C223.1 260.502 222.916 260.857 222.787 261.279C222.662 261.697 222.6 262.18 222.6 262.727V264.748C222.6 265.295 222.662 265.779 222.787 266.201C222.916 266.619 223.102 266.971 223.344 267.256C223.582 267.541 223.873 267.758 224.217 267.906C224.561 268.051 224.947 268.123 225.377 268.123C225.811 268.123 226.197 268.051 226.537 267.906C226.881 267.758 227.17 267.541 227.404 267.256C227.643 266.971 227.824 266.619 227.949 266.201C228.078 265.779 228.143 265.295 228.143 264.748ZM224.006 264.25C224.006 264.137 224.006 264.041 224.006 263.963C224.006 263.885 224.006 263.771 224.006 263.623V262.475C224.006 262.123 224.037 261.818 224.1 261.561C224.162 261.299 224.258 261.086 224.387 260.922C224.496 260.777 224.633 260.668 224.797 260.594C224.961 260.52 225.15 260.482 225.365 260.482C225.568 260.482 225.748 260.514 225.904 260.576C226.061 260.639 226.193 260.732 226.303 260.857C226.428 260.998 226.523 261.18 226.59 261.402C226.66 261.625 226.703 261.889 226.719 262.193L224.006 264.25ZM226.73 264.982C226.73 265.342 226.699 265.654 226.637 265.92C226.574 266.186 226.477 266.4 226.344 266.564C226.23 266.705 226.094 266.812 225.934 266.887C225.773 266.957 225.588 266.992 225.377 266.992C225.162 266.992 224.973 266.955 224.809 266.881C224.648 266.807 224.514 266.695 224.404 266.547C224.295 266.41 224.207 266.238 224.141 266.031C224.078 265.824 224.037 265.586 224.018 265.316L226.73 263.271C226.73 263.385 226.73 263.494 226.73 263.6C226.73 263.701 226.73 263.803 226.73 263.904V264.982ZM249.764 264.748V262.727C249.764 262.18 249.699 261.697 249.57 261.279C249.441 260.857 249.26 260.502 249.025 260.213C248.783 259.928 248.49 259.713 248.146 259.568C247.807 259.42 247.42 259.346 246.986 259.346C246.557 259.346 246.17 259.42 245.826 259.568C245.486 259.713 245.197 259.928 244.959 260.213C244.721 260.502 244.537 260.857 244.408 261.279C244.283 261.697 244.221 262.18 244.221 262.727V264.748C244.221 265.295 244.283 265.779 244.408 266.201C244.537 266.619 244.723 266.971 244.965 267.256C245.203 267.541 245.494 267.758 245.838 267.906C246.182 268.051 246.568 268.123 246.998 268.123C247.432 268.123 247.818 268.051 248.158 267.906C248.502 267.758 248.791 267.541 249.025 267.256C249.264 266.971 249.445 266.619 249.57 266.201C249.699 265.779 249.764 265.295 249.764 264.748ZM245.627 264.25C245.627 264.137 245.627 264.041 245.627 263.963C245.627 263.885 245.627 263.771 245.627 263.623V262.475C245.627 262.123 245.658 261.818 245.721 261.561C245.783 261.299 245.879 261.086 246.008 260.922C246.117 260.777 246.254 260.668 246.418 260.594C246.582 260.52 246.771 260.482 246.986 260.482C247.189 260.482 247.369 260.514 247.525 260.576C247.682 260.639 247.814 260.732 247.924 260.857C248.049 260.998 248.145 261.18 248.211 261.402C248.281 261.625 248.324 261.889 248.34 262.193L245.627 264.25ZM248.352 264.982C248.352 265.342 248.32 265.654 248.258 265.92C248.195 266.186 248.098 266.4 247.965 266.564C247.852 266.705 247.715 266.812 247.555 266.887C247.395 266.957 247.209 266.992 246.998 266.992C246.783 266.992 246.594 266.955 246.43 266.881C246.27 266.807 246.135 266.695 246.025 266.547C245.916 266.41 245.828 266.238 245.762 266.031C245.699 265.824 245.658 265.586 245.639 265.316L248.352 263.271C248.352 263.385 248.352 263.494 248.352 263.6C248.352 263.701 248.352 263.803 248.352 263.904V264.982ZM253.244 267.156C253.244 267.426 253.332 267.654 253.508 267.842C253.688 268.025 253.938 268.117 254.258 268.117C254.574 268.117 254.822 268.025 255.002 267.842C255.186 267.658 255.277 267.43 255.277 267.156C255.277 266.883 255.188 266.652 255.008 266.465C254.828 266.273 254.578 266.178 254.258 266.178C253.934 266.178 253.684 266.273 253.508 266.465C253.332 266.656 253.244 266.887 253.244 267.156ZM260.188 263.102V264.203H261.025C261.268 264.203 261.486 264.232 261.682 264.291C261.881 264.346 262.051 264.43 262.191 264.543C262.332 264.66 262.439 264.807 262.514 264.982C262.588 265.158 262.625 265.369 262.625 265.615C262.625 265.834 262.592 266.029 262.525 266.201C262.463 266.369 262.371 266.51 262.25 266.623C262.125 266.744 261.971 266.836 261.787 266.898C261.607 266.957 261.404 266.986 261.178 266.986C260.967 266.986 260.773 266.955 260.598 266.893C260.426 266.83 260.277 266.742 260.152 266.629C260.023 266.52 259.924 266.387 259.854 266.23C259.787 266.07 259.754 265.896 259.754 265.709H258.354C258.354 266.107 258.43 266.457 258.582 266.758C258.738 267.055 258.945 267.305 259.203 267.508C259.461 267.711 259.76 267.863 260.1 267.965C260.439 268.066 260.793 268.117 261.16 268.117C261.566 268.117 261.943 268.062 262.291 267.953C262.643 267.84 262.947 267.676 263.205 267.461C263.459 267.25 263.658 266.99 263.803 266.682C263.951 266.369 264.025 266.014 264.025 265.615C264.025 265.4 264 265.193 263.949 264.994C263.898 264.791 263.816 264.602 263.703 264.426C263.59 264.254 263.443 264.1 263.264 263.963C263.088 263.822 262.873 263.709 262.619 263.623C262.834 263.525 263.021 263.406 263.182 263.266C263.342 263.125 263.475 262.975 263.58 262.814C263.686 262.65 263.764 262.48 263.814 262.305C263.869 262.129 263.896 261.953 263.896 261.777C263.896 261.379 263.83 261.029 263.697 260.729C263.564 260.428 263.377 260.174 263.135 259.967C262.896 259.764 262.607 259.611 262.268 259.51C261.932 259.404 261.562 259.352 261.16 259.352C260.766 259.352 260.402 259.41 260.07 259.527C259.742 259.645 259.457 259.807 259.215 260.014C258.973 260.225 258.783 260.473 258.646 260.758C258.51 261.043 258.441 261.355 258.441 261.695H259.842C259.842 261.512 259.875 261.346 259.941 261.197C260.012 261.049 260.107 260.922 260.229 260.816C260.346 260.711 260.484 260.631 260.645 260.576C260.809 260.518 260.986 260.488 261.178 260.488C261.393 260.488 261.582 260.518 261.746 260.576C261.914 260.635 262.053 260.717 262.162 260.822C262.271 260.936 262.354 261.072 262.408 261.232C262.467 261.393 262.496 261.574 262.496 261.777C262.496 261.965 262.465 262.141 262.402 262.305C262.344 262.465 262.258 262.6 262.145 262.709C262.023 262.834 261.869 262.932 261.682 263.002C261.494 263.068 261.275 263.102 261.025 263.102H260.188ZM285.799 264.748V262.727C285.799 262.18 285.734 261.697 285.605 261.279C285.477 260.857 285.295 260.502 285.061 260.213C284.818 259.928 284.525 259.713 284.182 259.568C283.842 259.42 283.455 259.346 283.021 259.346C282.592 259.346 282.205 259.42 281.861 259.568C281.521 259.713 281.232 259.928 280.994 260.213C280.756 260.502 280.572 260.857 280.443 261.279C280.318 261.697 280.256 262.18 280.256 262.727V264.748C280.256 265.295 280.318 265.779 280.443 266.201C280.572 266.619 280.758 266.971 281 267.256C281.238 267.541 281.529 267.758 281.873 267.906C282.217 268.051 282.604 268.123 283.033 268.123C283.467 268.123 283.854 268.051 284.193 267.906C284.537 267.758 284.826 267.541 285.061 267.256C285.299 266.971 285.48 266.619 285.605 266.201C285.734 265.779 285.799 265.295 285.799 264.748ZM281.662 264.25C281.662 264.137 281.662 264.041 281.662 263.963C281.662 263.885 281.662 263.771 281.662 263.623V262.475C281.662 262.123 281.693 261.818 281.756 261.561C281.818 261.299 281.914 261.086 282.043 260.922C282.152 260.777 282.289 260.668 282.453 260.594C282.617 260.52 282.807 260.482 283.021 260.482C283.225 260.482 283.404 260.514 283.561 260.576C283.717 260.639 283.85 260.732 283.959 260.857C284.084 260.998 284.18 261.18 284.246 261.402C284.316 261.625 284.359 261.889 284.375 262.193L281.662 264.25ZM284.387 264.982C284.387 265.342 284.355 265.654 284.293 265.92C284.23 266.186 284.133 266.4 284 266.564C283.887 266.705 283.75 266.812 283.59 266.887C283.43 266.957 283.244 266.992 283.033 266.992C282.818 266.992 282.629 266.955 282.465 266.881C282.305 266.807 282.17 266.695 282.061 266.547C281.951 266.41 281.863 266.238 281.797 266.031C281.734 265.824 281.693 265.586 281.674 265.316L284.387 263.271C284.387 263.385 284.387 263.494 284.387 263.6C284.387 263.701 284.387 263.803 284.387 263.904V264.982ZM287.545 270.438H288.945V267.426C289.02 267.508 289.1 267.584 289.186 267.654C289.271 267.721 289.361 267.783 289.455 267.842C289.615 267.932 289.789 268 289.977 268.047C290.168 268.094 290.377 268.117 290.604 268.117C291.002 268.117 291.355 268.035 291.664 267.871C291.973 267.707 292.232 267.48 292.443 267.191C292.654 266.906 292.812 266.566 292.918 266.172C293.027 265.777 293.082 265.352 293.082 264.895V264.771C293.082 264.295 293.027 263.859 292.918 263.465C292.812 263.066 292.654 262.725 292.443 262.439C292.232 262.154 291.971 261.934 291.658 261.777C291.35 261.621 290.992 261.543 290.586 261.543C290.379 261.543 290.184 261.566 290 261.613C289.816 261.656 289.648 261.719 289.496 261.801C289.379 261.863 289.27 261.938 289.168 262.023C289.066 262.109 288.973 262.205 288.887 262.311L288.834 261.66H287.545V270.438ZM291.682 264.771V264.895C291.682 265.176 291.654 265.443 291.6 265.697C291.545 265.947 291.457 266.17 291.336 266.365C291.219 266.557 291.066 266.709 290.879 266.822C290.695 266.932 290.473 266.986 290.211 266.986C290.051 266.986 289.904 266.969 289.771 266.934C289.639 266.895 289.52 266.844 289.414 266.781C289.312 266.715 289.223 266.637 289.145 266.547C289.066 266.457 289 266.357 288.945 266.248V263.43C289.008 263.312 289.08 263.207 289.162 263.113C289.248 263.02 289.348 262.941 289.461 262.879C289.559 262.82 289.67 262.775 289.795 262.744C289.92 262.713 290.055 262.697 290.199 262.697C290.461 262.697 290.686 262.752 290.873 262.861C291.061 262.971 291.215 263.119 291.336 263.307C291.453 263.494 291.539 263.715 291.594 263.969C291.652 264.219 291.682 264.486 291.682 264.771ZM297.523 263.793L296.023 261.66H294.482L296.703 264.783L294.406 268H295.959L297.535 265.785L299.117 268H300.664L298.367 264.783L300.594 261.66H299.041L297.523 263.793ZM314.463 261.719C314.463 261.34 314.396 261.004 314.264 260.711C314.135 260.418 313.953 260.17 313.719 259.967C313.484 259.764 313.207 259.611 312.887 259.51C312.566 259.404 312.219 259.352 311.844 259.352C311.465 259.352 311.115 259.404 310.795 259.51C310.479 259.611 310.207 259.764 309.98 259.967C309.75 260.17 309.568 260.418 309.436 260.711C309.307 261.004 309.242 261.34 309.242 261.719C309.242 261.93 309.271 262.131 309.33 262.322C309.389 262.514 309.471 262.689 309.576 262.85C309.678 263.006 309.801 263.148 309.945 263.277C310.094 263.406 310.258 263.516 310.438 263.605C310.227 263.703 310.035 263.822 309.863 263.963C309.695 264.1 309.551 264.254 309.43 264.426C309.309 264.605 309.215 264.801 309.148 265.012C309.086 265.223 309.055 265.445 309.055 265.68C309.055 266.078 309.125 266.43 309.266 266.734C309.41 267.035 309.609 267.287 309.863 267.49C310.113 267.697 310.408 267.854 310.748 267.959C311.092 268.064 311.463 268.117 311.861 268.117C312.252 268.117 312.617 268.064 312.957 267.959C313.297 267.854 313.592 267.697 313.842 267.49C314.092 267.287 314.289 267.033 314.434 266.729C314.578 266.424 314.65 266.074 314.65 265.68C314.65 265.402 314.605 265.145 314.516 264.906C314.426 264.668 314.301 264.455 314.141 264.268C314.027 264.127 313.895 264.004 313.742 263.898C313.594 263.789 313.432 263.693 313.256 263.611C313.404 263.537 313.539 263.451 313.66 263.354C313.781 263.256 313.889 263.15 313.982 263.037C314.135 262.861 314.252 262.662 314.334 262.439C314.42 262.217 314.463 261.977 314.463 261.719ZM313.25 265.604C313.25 265.822 313.215 266.018 313.145 266.189C313.074 266.357 312.979 266.502 312.857 266.623C312.736 266.74 312.59 266.83 312.418 266.893C312.25 266.955 312.064 266.986 311.861 266.986C311.65 266.986 311.459 266.957 311.287 266.898C311.115 266.836 310.969 266.748 310.848 266.635C310.723 266.518 310.627 266.373 310.561 266.201C310.494 266.025 310.461 265.826 310.461 265.604C310.461 265.393 310.492 265.201 310.555 265.029C310.621 264.854 310.715 264.701 310.836 264.572C310.957 264.451 311.102 264.357 311.27 264.291C311.441 264.225 311.635 264.191 311.85 264.191C312.057 264.191 312.246 264.225 312.418 264.291C312.59 264.357 312.738 264.451 312.863 264.572C312.984 264.701 313.078 264.854 313.145 265.029C313.215 265.201 313.25 265.393 313.25 265.604ZM313.068 261.771C313.068 261.963 313.039 262.139 312.98 262.299C312.922 262.455 312.84 262.59 312.734 262.703C312.629 262.812 312.502 262.898 312.354 262.961C312.205 263.023 312.039 263.055 311.855 263.055C311.672 263.055 311.506 263.023 311.357 262.961C311.209 262.898 311.082 262.812 310.977 262.703C310.867 262.59 310.785 262.455 310.73 262.299C310.676 262.139 310.648 261.963 310.648 261.771C310.648 261.576 310.676 261.398 310.73 261.238C310.785 261.078 310.865 260.943 310.971 260.834C311.072 260.725 311.195 260.641 311.34 260.582C311.488 260.52 311.656 260.488 311.844 260.488C312.027 260.488 312.193 260.52 312.342 260.582C312.49 260.645 312.619 260.732 312.729 260.846C312.834 260.959 312.916 261.094 312.975 261.25C313.037 261.406 313.068 261.58 313.068 261.771ZM316.373 270.438H317.773V267.426C317.848 267.508 317.928 267.584 318.014 267.654C318.1 267.721 318.189 267.783 318.283 267.842C318.443 267.932 318.617 268 318.805 268.047C318.996 268.094 319.205 268.117 319.432 268.117C319.83 268.117 320.184 268.035 320.492 267.871C320.801 267.707 321.061 267.48 321.271 267.191C321.482 266.906 321.641 266.566 321.746 266.172C321.855 265.777 321.91 265.352 321.91 264.895V264.771C321.91 264.295 321.855 263.859 321.746 263.465C321.641 263.066 321.482 262.725 321.271 262.439C321.061 262.154 320.799 261.934 320.486 261.777C320.178 261.621 319.82 261.543 319.414 261.543C319.207 261.543 319.012 261.566 318.828 261.613C318.645 261.656 318.477 261.719 318.324 261.801C318.207 261.863 318.098 261.938 317.996 262.023C317.895 262.109 317.801 262.205 317.715 262.311L317.662 261.66H316.373V270.438ZM320.51 264.771V264.895C320.51 265.176 320.482 265.443 320.428 265.697C320.373 265.947 320.285 266.17 320.164 266.365C320.047 266.557 319.895 266.709 319.707 266.822C319.523 266.932 319.301 266.986 319.039 266.986C318.879 266.986 318.732 266.969 318.6 266.934C318.467 266.895 318.348 266.844 318.242 266.781C318.141 266.715 318.051 266.637 317.973 266.547C317.895 266.457 317.828 266.357 317.773 266.248V263.43C317.836 263.312 317.908 263.207 317.99 263.113C318.076 263.02 318.176 262.941 318.289 262.879C318.387 262.82 318.498 262.775 318.623 262.744C318.748 262.713 318.883 262.697 319.027 262.697C319.289 262.697 319.514 262.752 319.701 262.861C319.889 262.971 320.043 263.119 320.164 263.307C320.281 263.494 320.367 263.715 320.422 263.969C320.48 264.219 320.51 264.486 320.51 264.771ZM326.352 263.793L324.852 261.66H323.311L325.531 264.783L323.234 268H324.787L326.363 265.785L327.945 268H329.492L327.195 264.783L329.422 261.66H327.869L326.352 263.793ZM341.773 268V259.469H341.686L338.176 260.77V262.006L340.361 261.203V268H341.773ZM349.373 259.428H349.209C348.545 259.428 347.955 259.531 347.439 259.738C346.924 259.945 346.49 260.242 346.139 260.629C345.725 261.078 345.428 261.615 345.248 262.24C345.072 262.861 344.984 263.516 344.984 264.203V264.783C344.984 265.24 345.051 265.676 345.184 266.09C345.316 266.5 345.51 266.857 345.764 267.162C346.01 267.455 346.309 267.688 346.66 267.859C347.012 268.031 347.412 268.117 347.861 268.117C348.299 268.117 348.688 268.043 349.027 267.895C349.371 267.742 349.662 267.533 349.9 267.268C350.135 267.006 350.312 266.699 350.434 266.348C350.559 265.992 350.621 265.611 350.621 265.205C350.621 264.834 350.572 264.477 350.475 264.133C350.381 263.789 350.232 263.484 350.029 263.219C349.83 262.953 349.576 262.742 349.268 262.586C348.963 262.43 348.604 262.352 348.189 262.352C347.994 262.352 347.809 262.375 347.633 262.422C347.457 262.465 347.295 262.525 347.146 262.604C346.998 262.678 346.861 262.766 346.736 262.867C346.611 262.965 346.502 263.066 346.408 263.172C346.439 262.809 346.52 262.469 346.648 262.152C346.781 261.836 346.967 261.564 347.205 261.338C347.439 261.111 347.727 260.936 348.066 260.811C348.41 260.682 348.814 260.617 349.279 260.617H349.373V259.428ZM347.844 263.488C348.07 263.488 348.27 263.535 348.441 263.629C348.617 263.719 348.764 263.844 348.881 264.004C348.998 264.164 349.086 264.352 349.145 264.566C349.207 264.777 349.238 265.002 349.238 265.24C349.238 265.49 349.207 265.723 349.145 265.938C349.082 266.148 348.99 266.332 348.869 266.488C348.748 266.641 348.602 266.762 348.43 266.852C348.258 266.938 348.062 266.98 347.844 266.98C347.645 266.98 347.457 266.936 347.281 266.846C347.105 266.756 346.951 266.625 346.818 266.453C346.686 266.281 346.58 266.066 346.502 265.809C346.428 265.551 346.391 265.252 346.391 264.912V264.479C346.453 264.334 346.531 264.203 346.625 264.086C346.719 263.969 346.824 263.865 346.941 263.775C347.07 263.686 347.211 263.615 347.363 263.564C347.516 263.514 347.676 263.488 347.844 263.488ZM352.408 270.438H353.809V267.426C353.883 267.508 353.963 267.584 354.049 267.654C354.135 267.721 354.225 267.783 354.318 267.842C354.479 267.932 354.652 268 354.84 268.047C355.031 268.094 355.24 268.117 355.467 268.117C355.865 268.117 356.219 268.035 356.527 267.871C356.836 267.707 357.096 267.48 357.307 267.191C357.518 266.906 357.676 266.566 357.781 266.172C357.891 265.777 357.945 265.352 357.945 264.895V264.771C357.945 264.295 357.891 263.859 357.781 263.465C357.676 263.066 357.518 262.725 357.307 262.439C357.096 262.154 356.834 261.934 356.521 261.777C356.213 261.621 355.855 261.543 355.449 261.543C355.242 261.543 355.047 261.566 354.863 261.613C354.68 261.656 354.512 261.719 354.359 261.801C354.242 261.863 354.133 261.938 354.031 262.023C353.93 262.109 353.836 262.205 353.75 262.311L353.697 261.66H352.408V270.438ZM356.545 264.771V264.895C356.545 265.176 356.518 265.443 356.463 265.697C356.408 265.947 356.32 266.17 356.199 266.365C356.082 266.557 355.93 266.709 355.742 266.822C355.559 266.932 355.336 266.986 355.074 266.986C354.914 266.986 354.768 266.969 354.635 266.934C354.502 266.895 354.383 266.844 354.277 266.781C354.176 266.715 354.086 266.637 354.008 266.547C353.93 266.457 353.863 266.357 353.809 266.248V263.43C353.871 263.312 353.943 263.207 354.025 263.113C354.111 263.02 354.211 262.941 354.324 262.879C354.422 262.82 354.533 262.775 354.658 262.744C354.783 262.713 354.918 262.697 355.062 262.697C355.324 262.697 355.549 262.752 355.736 262.861C355.924 262.971 356.078 263.119 356.199 263.307C356.316 263.494 356.402 263.715 356.457 263.969C356.516 264.219 356.545 264.486 356.545 264.771ZM362.387 263.793L360.887 261.66H359.346L361.566 264.783L359.27 268H360.822L362.398 265.785L363.98 268H365.527L363.23 264.783L365.457 261.66H363.904L362.387 263.793ZM379.32 264.818V263.682H374.604V264.818H379.32ZM386.533 261.719C386.533 261.34 386.467 261.004 386.334 260.711C386.205 260.418 386.023 260.17 385.789 259.967C385.555 259.764 385.277 259.611 384.957 259.51C384.637 259.404 384.289 259.352 383.914 259.352C383.535 259.352 383.186 259.404 382.865 259.51C382.549 259.611 382.277 259.764 382.051 259.967C381.82 260.17 381.639 260.418 381.506 260.711C381.377 261.004 381.312 261.34 381.312 261.719C381.312 261.93 381.342 262.131 381.4 262.322C381.459 262.514 381.541 262.689 381.646 262.85C381.748 263.006 381.871 263.148 382.016 263.277C382.164 263.406 382.328 263.516 382.508 263.605C382.297 263.703 382.105 263.822 381.934 263.963C381.766 264.1 381.621 264.254 381.5 264.426C381.379 264.605 381.285 264.801 381.219 265.012C381.156 265.223 381.125 265.445 381.125 265.68C381.125 266.078 381.195 266.43 381.336 266.734C381.48 267.035 381.68 267.287 381.934 267.49C382.184 267.697 382.479 267.854 382.818 267.959C383.162 268.064 383.533 268.117 383.932 268.117C384.322 268.117 384.688 268.064 385.027 267.959C385.367 267.854 385.662 267.697 385.912 267.49C386.162 267.287 386.359 267.033 386.504 266.729C386.648 266.424 386.721 266.074 386.721 265.68C386.721 265.402 386.676 265.145 386.586 264.906C386.496 264.668 386.371 264.455 386.211 264.268C386.098 264.127 385.965 264.004 385.812 263.898C385.664 263.789 385.502 263.693 385.326 263.611C385.475 263.537 385.609 263.451 385.73 263.354C385.852 263.256 385.959 263.15 386.053 263.037C386.205 262.861 386.322 262.662 386.404 262.439C386.49 262.217 386.533 261.977 386.533 261.719ZM385.32 265.604C385.32 265.822 385.285 266.018 385.215 266.189C385.145 266.357 385.049 266.502 384.928 266.623C384.807 266.74 384.66 266.83 384.488 266.893C384.32 266.955 384.135 266.986 383.932 266.986C383.721 266.986 383.529 266.957 383.357 266.898C383.186 266.836 383.039 266.748 382.918 266.635C382.793 266.518 382.697 266.373 382.631 266.201C382.564 266.025 382.531 265.826 382.531 265.604C382.531 265.393 382.562 265.201 382.625 265.029C382.691 264.854 382.785 264.701 382.906 264.572C383.027 264.451 383.172 264.357 383.34 264.291C383.512 264.225 383.705 264.191 383.92 264.191C384.127 264.191 384.316 264.225 384.488 264.291C384.66 264.357 384.809 264.451 384.934 264.572C385.055 264.701 385.148 264.854 385.215 265.029C385.285 265.201 385.32 265.393 385.32 265.604ZM385.139 261.771C385.139 261.963 385.109 262.139 385.051 262.299C384.992 262.455 384.91 262.59 384.805 262.703C384.699 262.812 384.572 262.898 384.424 262.961C384.275 263.023 384.109 263.055 383.926 263.055C383.742 263.055 383.576 263.023 383.428 262.961C383.279 262.898 383.152 262.812 383.047 262.703C382.938 262.59 382.855 262.455 382.801 262.299C382.746 262.139 382.719 261.963 382.719 261.771C382.719 261.576 382.746 261.398 382.801 261.238C382.855 261.078 382.936 260.943 383.041 260.834C383.143 260.725 383.266 260.641 383.41 260.582C383.559 260.52 383.727 260.488 383.914 260.488C384.098 260.488 384.264 260.52 384.412 260.582C384.561 260.645 384.689 260.732 384.799 260.846C384.904 260.959 384.986 261.094 385.045 261.25C385.107 261.406 385.139 261.58 385.139 261.771ZM388.443 270.438H389.844V267.426C389.918 267.508 389.998 267.584 390.084 267.654C390.17 267.721 390.26 267.783 390.354 267.842C390.514 267.932 390.688 268 390.875 268.047C391.066 268.094 391.275 268.117 391.502 268.117C391.9 268.117 392.254 268.035 392.562 267.871C392.871 267.707 393.131 267.48 393.342 267.191C393.553 266.906 393.711 266.566 393.816 266.172C393.926 265.777 393.98 265.352 393.98 264.895V264.771C393.98 264.295 393.926 263.859 393.816 263.465C393.711 263.066 393.553 262.725 393.342 262.439C393.131 262.154 392.869 261.934 392.557 261.777C392.248 261.621 391.891 261.543 391.484 261.543C391.277 261.543 391.082 261.566 390.898 261.613C390.715 261.656 390.547 261.719 390.395 261.801C390.277 261.863 390.168 261.938 390.066 262.023C389.965 262.109 389.871 262.205 389.785 262.311L389.732 261.66H388.443V270.438ZM392.58 264.771V264.895C392.58 265.176 392.553 265.443 392.498 265.697C392.443 265.947 392.355 266.17 392.234 266.365C392.117 266.557 391.965 266.709 391.777 266.822C391.594 266.932 391.371 266.986 391.109 266.986C390.949 266.986 390.803 266.969 390.67 266.934C390.537 266.895 390.418 266.844 390.312 266.781C390.211 266.715 390.121 266.637 390.043 266.547C389.965 266.457 389.898 266.357 389.844 266.248V263.43C389.906 263.312 389.979 263.207 390.061 263.113C390.146 263.02 390.246 262.941 390.359 262.879C390.457 262.82 390.568 262.775 390.693 262.744C390.818 262.713 390.953 262.697 391.098 262.697C391.359 262.697 391.584 262.752 391.771 262.861C391.959 262.971 392.113 263.119 392.234 263.307C392.352 263.494 392.438 263.715 392.492 263.969C392.551 264.219 392.58 264.486 392.58 264.771ZM398.422 263.793L396.922 261.66H395.381L397.602 264.783L395.305 268H396.857L398.434 265.785L400.016 268H401.562L399.266 264.783L401.492 261.66H399.939L398.422 263.793Z" fill="#FF628C"/>
<defs>
<filter id="filter0_dd_2_56" x="24" y="62" width="138" height="138" filterUnits="userSpaceOnUse" color-interpolation-filters="sRGB">
<feFlood flood-opacity="0" result="BackgroundImageFix"/>
<feColorMatrix in="SourceAlpha" type="matrix" values="0 0 0 0 0 0 0 0 0 0 0 0 0 0 0 0 0 0 127 0" result="hardAlpha"/>
<feMorphology radius="5" operator="erode" in="SourceAlpha" result="effect1_dropShadow_2_56"/>
<feOffset dy="13"/>
<feGaussianBlur stdDeviation="13.5"/>
<feColorMatrix type="matrix" values="0 0 0 0 0.196078 0 0 0 0 0.196078 0 0 0 0 0.364706 0 0 0 0.25 0"/>
<feBlend mode="normal" in2="BackgroundImageFix" result="effect1_dropShadow_2_56"/>
<feColorMatrix in="SourceAlpha" type="matrix" values="0 0 0 0 0 0 0 0 0 0 0 0 0 0 0 0 0 0 127 0" result="hardAlpha"/>
<feMorphology radius="8" operator="erode" in="SourceAlpha" result="effect2_dropShadow_2_56"/>
<feOffset dy="8"/>
<feGaussianBlur stdDeviation="8"/>
<feColorMatrix type="matrix" values="0 0 0 0 0 0 0 0 0 0 0 0 0 0 0 0 0 0 0.3 0"/>
<feBlend mode="normal" in2="effect1_dropShadow_2_56" result="effect2_dropShadow_2_56"/>
<feBlend mode="normal" in="SourceGraphic" in2="effect2_dropShadow_2_56" result="shape"/>
</filter>
</defs>
</svg>
