<svg width="537" height="309" viewBox="0 0 537 309" fill="none" xmlns="http://www.w3.org/2000/svg">
<rect x="0.5" y="0.5" width="536" height="308" rx="9.5" fill="#FAFAFA"/>
<rect x="0.5" y="0.5" width="536" height="308" rx="9.5" stroke="#DFDFDF"/>
<path d="M54.0625 45H56.7898L57.4972 40.6705H59.8835L60.3352 37.9432H57.9489L58.4943 34.6023H60.8807L61.3409 31.875H58.946L59.6534 27.5455H56.9261L56.2188 31.875H52.8097L53.517 27.5455H50.7898L50.0824 31.875H47.7045L47.2443 34.6023H49.6307L49.0852 37.9432H46.6989L46.2472 40.6705H48.6335L47.9261 45H50.6534L51.3608 40.6705H54.7699L54.0625 45ZM51.8125 37.9432L52.358 34.6023H55.767L55.2216 37.9432H51.8125ZM70.5945 27.5455H67.1257L62.8047 30.2812V33.554L66.8018 31.0483H66.9041V45H70.5945V27.5455ZM81.2543 45.2386C85.1918 45.2386 88.0213 43.1335 88.0298 40.304C88.0213 38.1222 86.3423 36.3409 84.2457 35.9915V35.8722C86.0696 35.4972 87.3736 33.9205 87.3821 32.0028C87.3736 29.3011 84.7827 27.3068 81.2543 27.3068C77.7173 27.3068 75.1264 29.3011 75.1349 32.0028C75.1264 33.9119 76.4134 35.4972 78.2713 35.8722V35.9915C76.1406 36.3409 74.4787 38.1222 74.4872 40.304C74.4787 43.1335 77.3168 45.2386 81.2543 45.2386ZM81.2543 42.5284C79.4986 42.5284 78.3224 41.4886 78.3224 40.0142C78.3224 38.5057 79.5582 37.4148 81.2543 37.4148C82.9418 37.4148 84.1861 38.5057 84.1861 40.0142C84.1861 41.4972 83.0014 42.5284 81.2543 42.5284ZM81.2543 34.7301C79.7798 34.7301 78.7315 33.767 78.7315 32.3864C78.7315 31.0227 79.7628 30.0852 81.2543 30.0852C82.7372 30.0852 83.777 31.0312 83.777 32.3864C83.777 33.767 82.7202 34.7301 81.2543 34.7301Z" fill="black"/>
<rect x="46" y="205" width="431" height="24" fill="#011627"/>
<ellipse cx="60.6935" cy="216.294" rx="4.43128" ry="4.70588" fill="#FC605C"/>
<ellipse cx="73.5205" cy="216.765" rx="4.6645" ry="4.70588" fill="#FFBB2C"/>
<ellipse cx="86.348" cy="217.471" rx="4.43128" ry="4.47059" fill="#2FC63C"/>
<g filter="url(#filter0_dd_2_72)">
<rect x="46" y="71" width="94" height="94" rx="5" fill="white"/>
</g>
<rect width="431" height="52" transform="translate(46 228)" fill="#011627"/>
<path d="M62.4805 247.895V247.771C62.4805 247.412 62.4473 247.072 62.3809 246.752C62.3184 246.432 62.2246 246.141 62.0996 245.879C62.0059 245.691 61.8965 245.52 61.7715 245.363C61.6504 245.203 61.5117 245.068 61.3555 244.959C61.1719 244.826 60.9648 244.725 60.7344 244.654C60.5078 244.58 60.2578 244.543 59.9844 244.543C59.7773 244.543 59.584 244.564 59.4043 244.607C59.2285 244.646 59.0664 244.707 58.918 244.789C58.8047 244.852 58.6992 244.924 58.6016 245.006C58.5039 245.088 58.4141 245.18 58.332 245.281V242H56.9316V251H58.1973L58.2617 250.309C58.332 250.395 58.4043 250.475 58.4785 250.549C58.5566 250.619 58.6387 250.686 58.7246 250.748C58.8926 250.869 59.082 250.961 59.293 251.023C59.5039 251.086 59.7383 251.117 59.9961 251.117C60.25 251.117 60.4844 251.084 60.6992 251.018C60.918 250.955 61.1152 250.865 61.291 250.748C61.5098 250.604 61.6973 250.422 61.8535 250.203C62.0098 249.984 62.1348 249.74 62.2285 249.471C62.3105 249.244 62.373 248.998 62.416 248.732C62.459 248.467 62.4805 248.188 62.4805 247.895ZM61.0801 247.771V247.895C61.0801 248.07 61.0703 248.24 61.0508 248.404C61.0312 248.568 61.002 248.721 60.9629 248.861C60.916 249.049 60.8477 249.219 60.7578 249.371C60.6719 249.52 60.5605 249.643 60.4238 249.74C60.3223 249.811 60.207 249.867 60.0781 249.91C59.9492 249.949 59.8047 249.969 59.6445 249.969C59.4688 249.969 59.3086 249.947 59.1641 249.904C59.0234 249.857 58.8984 249.795 58.7891 249.717C58.6914 249.643 58.6035 249.559 58.5254 249.465C58.4512 249.367 58.3867 249.26 58.332 249.143V246.518C58.3789 246.416 58.4336 246.322 58.4961 246.236C58.5625 246.146 58.6367 246.068 58.7188 246.002C58.832 245.904 58.9648 245.83 59.1172 245.779C59.2695 245.725 59.4414 245.697 59.6328 245.697C59.7891 245.697 59.9297 245.715 60.0547 245.75C60.1797 245.785 60.291 245.838 60.3887 245.908C60.5371 246.01 60.6543 246.135 60.7402 246.283C60.8301 246.428 60.9023 246.59 60.957 246.77C60.9961 246.918 61.0254 247.078 61.0449 247.25C61.0684 247.418 61.0801 247.592 61.0801 247.771ZM63.8574 247.771V247.895C63.8574 248.359 63.9238 248.787 64.0566 249.178C64.1895 249.568 64.3828 249.908 64.6367 250.197C64.8867 250.486 65.1953 250.713 65.5625 250.877C65.9297 251.041 66.3457 251.123 66.8105 251.123C67.2715 251.123 67.6836 251.041 68.0469 250.877C68.4141 250.713 68.7227 250.486 68.9727 250.197C69.2227 249.908 69.4141 249.568 69.5469 249.178C69.6797 248.787 69.7461 248.359 69.7461 247.895V247.771C69.7461 247.311 69.6797 246.885 69.5469 246.494C69.4141 246.1 69.2227 245.758 68.9727 245.469C68.7188 245.18 68.4082 244.953 68.041 244.789C67.6777 244.625 67.2637 244.543 66.7988 244.543C66.334 244.543 65.9199 244.625 65.5566 244.789C65.1934 244.953 64.8867 245.18 64.6367 245.469C64.3828 245.758 64.1895 246.1 64.0566 246.494C63.9238 246.885 63.8574 247.311 63.8574 247.771ZM65.2578 247.895V247.771C65.2578 247.494 65.2871 247.229 65.3457 246.975C65.4082 246.721 65.502 246.498 65.627 246.307C65.7559 246.115 65.916 245.963 66.1074 245.85C66.3027 245.736 66.5332 245.68 66.7988 245.68C67.0684 245.68 67.2988 245.736 67.4902 245.85C67.6855 245.963 67.8457 246.115 67.9707 246.307C68.0957 246.498 68.1895 246.721 68.252 246.975C68.3145 247.229 68.3457 247.494 68.3457 247.771V247.895C68.3457 248.18 68.3145 248.449 68.252 248.703C68.1934 248.957 68.1016 249.18 67.9766 249.371C67.8516 249.562 67.6914 249.715 67.4961 249.828C67.3008 249.938 67.0723 249.992 66.8105 249.992C66.541 249.992 66.3086 249.938 66.1133 249.828C65.918 249.715 65.7559 249.562 65.627 249.371C65.502 249.18 65.4082 248.957 65.3457 248.703C65.2871 248.449 65.2578 248.18 65.2578 247.895ZM74.1055 246.793L72.6055 244.66H71.0645L73.2852 247.783L70.9883 251H72.541L74.1172 248.785L75.6992 251H77.2461L74.9492 247.783L77.1758 244.66H75.623L74.1055 246.793ZM83.832 247.818V246.682H79.1152V247.818H83.832ZM89.8789 249.283C89.8789 249.385 89.8555 249.479 89.8086 249.564C89.7656 249.646 89.6992 249.723 89.6094 249.793C89.5 249.879 89.3535 249.947 89.1699 249.998C88.9902 250.049 88.7793 250.074 88.5371 250.074C88.3574 250.074 88.1797 250.057 88.0039 250.021C87.8281 249.982 87.6719 249.92 87.5352 249.834C87.3945 249.752 87.2773 249.645 87.1836 249.512C87.0938 249.375 87.043 249.209 87.0312 249.014H85.6719C85.6719 249.275 85.7344 249.533 85.8594 249.787C85.9844 250.041 86.168 250.266 86.4102 250.461C86.6484 250.66 86.9434 250.82 87.2949 250.941C87.6504 251.062 88.0566 251.123 88.5137 251.123C88.9238 251.123 89.2969 251.076 89.6328 250.982C89.9688 250.889 90.2578 250.758 90.5 250.59C90.7383 250.422 90.9219 250.221 91.0508 249.986C91.1836 249.752 91.25 249.494 91.25 249.213C91.25 248.924 91.1875 248.674 91.0625 248.463C90.9375 248.252 90.7617 248.068 90.5352 247.912C90.3086 247.764 90.0352 247.639 89.7148 247.537C89.3945 247.436 89.041 247.35 88.6543 247.279C88.377 247.232 88.1465 247.18 87.9629 247.121C87.7832 247.062 87.6426 246.998 87.541 246.928C87.4316 246.861 87.3555 246.785 87.3125 246.699C87.2695 246.609 87.248 246.51 87.248 246.4C87.248 246.295 87.2734 246.195 87.3242 246.102C87.375 246.004 87.4512 245.92 87.5527 245.85C87.6543 245.771 87.7832 245.711 87.9395 245.668C88.0996 245.621 88.2852 245.598 88.4961 245.598C88.7266 245.598 88.9277 245.629 89.0996 245.691C89.2715 245.75 89.4121 245.83 89.5215 245.932C89.6152 246.018 89.6855 246.115 89.7324 246.225C89.7832 246.33 89.8086 246.441 89.8086 246.559H91.209C91.209 246.273 91.1465 246.008 91.0215 245.762C90.8965 245.516 90.7188 245.303 90.4883 245.123C90.2539 244.943 89.9688 244.803 89.6328 244.701C89.2969 244.596 88.918 244.543 88.4961 244.543C88.1016 244.543 87.7422 244.594 87.418 244.695C87.0977 244.797 86.8242 244.936 86.5977 245.111C86.3672 245.287 86.1895 245.492 86.0645 245.727C85.9434 245.957 85.8828 246.201 85.8828 246.459C85.8828 246.729 85.9434 246.965 86.0645 247.168C86.1855 247.367 86.3535 247.543 86.5684 247.695C86.7871 247.852 87.0469 247.984 87.3477 248.094C87.6523 248.203 87.9883 248.295 88.3555 248.369C88.6484 248.424 88.8926 248.482 89.0879 248.545C89.2832 248.607 89.4414 248.674 89.5625 248.744C89.6758 248.822 89.7559 248.904 89.8027 248.99C89.8535 249.076 89.8789 249.174 89.8789 249.283ZM94.3438 245.562V242H92.9434V251H94.3438V246.412C94.4102 246.311 94.4863 246.219 94.5723 246.137C94.6621 246.055 94.7578 245.984 94.8594 245.926C94.9805 245.852 95.1133 245.795 95.2578 245.756C95.4062 245.717 95.5625 245.697 95.7266 245.697C95.9375 245.697 96.123 245.727 96.2832 245.785C96.4473 245.84 96.5859 245.926 96.6992 246.043C96.8086 246.152 96.8906 246.295 96.9453 246.471C97.0039 246.646 97.0332 246.852 97.0332 247.086V251H98.4336V247.098C98.4336 246.648 98.3789 246.264 98.2695 245.943C98.1641 245.619 98.0137 245.354 97.8184 245.146C97.623 244.939 97.3867 244.787 97.1094 244.689C96.8359 244.592 96.5332 244.543 96.2012 244.543C95.9629 244.543 95.7363 244.578 95.5215 244.648C95.3105 244.715 95.1172 244.812 94.9414 244.941C94.8281 245.02 94.7207 245.111 94.6191 245.217C94.5176 245.322 94.4258 245.438 94.3438 245.562ZM104.199 251H105.629V250.9C105.551 250.736 105.49 250.541 105.447 250.314C105.408 250.084 105.389 249.826 105.389 249.541V246.723C105.389 246.363 105.322 246.047 105.189 245.773C105.057 245.496 104.873 245.268 104.639 245.088C104.404 244.908 104.125 244.773 103.801 244.684C103.48 244.59 103.135 244.543 102.764 244.543C102.35 244.543 101.98 244.598 101.656 244.707C101.336 244.812 101.064 244.957 100.842 245.141C100.619 245.32 100.449 245.527 100.332 245.762C100.215 245.996 100.154 246.24 100.15 246.494H101.557C101.557 246.373 101.578 246.26 101.621 246.154C101.668 246.045 101.738 245.953 101.832 245.879C101.926 245.797 102.043 245.732 102.184 245.686C102.328 245.639 102.496 245.615 102.688 245.615C102.898 245.615 103.084 245.643 103.244 245.697C103.408 245.748 103.547 245.822 103.66 245.92C103.766 246.018 103.846 246.133 103.9 246.266C103.959 246.398 103.988 246.547 103.988 246.711V247.139H102.969C102.512 247.139 102.102 247.182 101.738 247.268C101.379 247.354 101.076 247.479 100.83 247.643C100.564 247.818 100.361 248.041 100.221 248.311C100.084 248.576 100.016 248.883 100.016 249.23C100.016 249.5 100.068 249.752 100.174 249.986C100.283 250.217 100.434 250.414 100.625 250.578C100.82 250.746 101.053 250.879 101.322 250.977C101.596 251.07 101.896 251.117 102.225 251.117C102.428 251.117 102.617 251.098 102.793 251.059C102.969 251.02 103.133 250.965 103.285 250.895C103.438 250.828 103.574 250.75 103.695 250.66C103.82 250.566 103.932 250.469 104.029 250.367C104.049 250.488 104.07 250.605 104.094 250.719C104.121 250.828 104.156 250.922 104.199 251ZM102.494 249.992C102.314 249.992 102.158 249.971 102.025 249.928C101.893 249.881 101.781 249.818 101.691 249.74C101.602 249.662 101.533 249.568 101.486 249.459C101.439 249.346 101.416 249.225 101.416 249.096C101.416 248.939 101.443 248.799 101.498 248.674C101.557 248.549 101.645 248.441 101.762 248.352C101.895 248.246 102.072 248.166 102.295 248.111C102.518 248.053 102.781 248.023 103.086 248.023H103.988V249.195C103.938 249.297 103.865 249.395 103.771 249.488C103.678 249.582 103.566 249.666 103.438 249.74C103.309 249.814 103.164 249.875 103.004 249.922C102.848 249.969 102.678 249.992 102.494 249.992ZM107.17 247.783V247.906C107.17 248.363 107.229 248.789 107.346 249.184C107.463 249.574 107.629 249.912 107.844 250.197C108.059 250.486 108.32 250.713 108.629 250.877C108.938 251.037 109.285 251.117 109.672 251.117C110.039 251.117 110.363 251.051 110.645 250.918C110.926 250.781 111.168 250.588 111.371 250.338L111.436 251H112.707V242H111.307V245.252C111.104 245.025 110.869 244.852 110.604 244.73C110.342 244.605 110.035 244.543 109.684 244.543C109.293 244.543 108.941 244.623 108.629 244.783C108.32 244.939 108.059 245.16 107.844 245.445C107.625 245.73 107.457 246.072 107.34 246.471C107.227 246.865 107.17 247.303 107.17 247.783ZM108.57 247.906V247.783C108.57 247.498 108.598 247.23 108.652 246.98C108.707 246.727 108.793 246.504 108.91 246.312C109.027 246.121 109.178 245.971 109.361 245.861C109.549 245.752 109.773 245.697 110.035 245.697C110.348 245.697 110.605 245.768 110.809 245.908C111.016 246.045 111.182 246.23 111.307 246.465V249.189C111.182 249.428 111.016 249.617 110.809 249.758C110.602 249.895 110.34 249.963 110.023 249.963C109.766 249.963 109.545 249.91 109.361 249.805C109.178 249.695 109.027 249.547 108.91 249.359C108.793 249.172 108.707 248.953 108.652 248.703C108.598 248.453 108.57 248.188 108.57 247.906ZM114.307 247.771V247.895C114.307 248.359 114.373 248.787 114.506 249.178C114.639 249.568 114.832 249.908 115.086 250.197C115.336 250.486 115.645 250.713 116.012 250.877C116.379 251.041 116.795 251.123 117.26 251.123C117.721 251.123 118.133 251.041 118.496 250.877C118.863 250.713 119.172 250.486 119.422 250.197C119.672 249.908 119.863 249.568 119.996 249.178C120.129 248.787 120.195 248.359 120.195 247.895V247.771C120.195 247.311 120.129 246.885 119.996 246.494C119.863 246.1 119.672 245.758 119.422 245.469C119.168 245.18 118.857 244.953 118.49 244.789C118.127 244.625 117.713 244.543 117.248 244.543C116.783 244.543 116.369 244.625 116.006 244.789C115.643 244.953 115.336 245.18 115.086 245.469C114.832 245.758 114.639 246.1 114.506 246.494C114.373 246.885 114.307 247.311 114.307 247.771ZM115.707 247.895V247.771C115.707 247.494 115.736 247.229 115.795 246.975C115.857 246.721 115.951 246.498 116.076 246.307C116.205 246.115 116.365 245.963 116.557 245.85C116.752 245.736 116.982 245.68 117.248 245.68C117.518 245.68 117.748 245.736 117.939 245.85C118.135 245.963 118.295 246.115 118.42 246.307C118.545 246.498 118.639 246.721 118.701 246.975C118.764 247.229 118.795 247.494 118.795 247.771V247.895C118.795 248.18 118.764 248.449 118.701 248.703C118.643 248.957 118.551 249.18 118.426 249.371C118.301 249.562 118.141 249.715 117.945 249.828C117.75 249.938 117.521 249.992 117.26 249.992C116.99 249.992 116.758 249.938 116.562 249.828C116.367 249.715 116.205 249.562 116.076 249.371C115.951 249.18 115.857 248.957 115.795 248.703C115.736 248.449 115.707 248.18 115.707 247.895ZM122.299 251H123.488L124.291 247.402L124.432 246.617L124.578 247.402L125.398 251H126.588L127.812 244.66H126.541L125.973 248.527L125.861 249.301L125.727 248.533L124.9 244.66H123.98L123.154 248.545L123.025 249.277L122.926 248.545L122.34 244.66H121.074L122.299 251Z" fill="#F78C6C"/>
<path d="M130.895 250.156C130.895 250.426 130.982 250.654 131.158 250.842C131.338 251.025 131.588 251.117 131.908 251.117C132.225 251.117 132.473 251.025 132.652 250.842C132.836 250.658 132.928 250.43 132.928 250.156C132.928 249.883 132.838 249.652 132.658 249.465C132.479 249.273 132.229 249.178 131.908 249.178C131.584 249.178 131.334 249.273 131.158 249.465C130.982 249.656 130.895 249.887 130.895 250.156ZM130.895 245.193C130.895 245.463 130.982 245.691 131.158 245.879C131.338 246.062 131.588 246.154 131.908 246.154C132.225 246.154 132.473 246.062 132.652 245.879C132.836 245.695 132.928 245.467 132.928 245.193C132.928 244.92 132.838 244.689 132.658 244.502C132.479 244.311 132.229 244.215 131.908 244.215C131.584 244.215 131.334 244.311 131.158 244.502C130.982 244.693 130.895 244.924 130.895 245.193ZM173.363 247.531V247.631C173.363 248.189 173.406 248.713 173.492 249.201C173.578 249.686 173.693 250.135 173.838 250.549C173.982 250.967 174.15 251.346 174.342 251.686C174.537 252.029 174.742 252.334 174.957 252.6C175.172 252.865 175.391 253.09 175.613 253.273C175.836 253.461 176.051 253.605 176.258 253.707L176.539 252.922C176.383 252.801 176.227 252.65 176.07 252.471C175.914 252.291 175.764 252.084 175.619 251.85C175.479 251.619 175.348 251.354 175.227 251.053C175.105 250.752 174.998 250.426 174.904 250.074C174.83 249.781 174.766 249.426 174.711 249.008C174.656 248.586 174.629 248.131 174.629 247.643V247.52C174.629 247.02 174.656 246.555 174.711 246.125C174.77 245.695 174.848 245.303 174.945 244.947C175.051 244.568 175.176 244.219 175.32 243.898C175.469 243.578 175.627 243.299 175.795 243.061C175.916 242.893 176.039 242.742 176.164 242.609C176.289 242.477 176.414 242.363 176.539 242.27L176.258 241.455C176.051 241.557 175.836 241.701 175.613 241.889C175.391 242.072 175.174 242.297 174.963 242.562C174.748 242.828 174.543 243.133 174.348 243.477C174.156 243.82 173.986 244.197 173.838 244.607C173.693 245.025 173.578 245.48 173.492 245.973C173.406 246.461 173.363 246.98 173.363 247.531ZM196.93 250.818V249.635H195.553V250.871C195.553 251.258 195.506 251.605 195.412 251.914C195.322 252.223 195.193 252.516 195.025 252.793L195.811 253.209C196.146 252.908 196.416 252.539 196.619 252.102C196.826 251.668 196.93 251.24 196.93 250.818ZM225.758 250.818V249.635H224.381V250.871C224.381 251.258 224.334 251.605 224.24 251.914C224.15 252.223 224.021 252.516 223.854 252.793L224.639 253.209C224.975 252.908 225.244 252.539 225.447 252.102C225.654 251.668 225.758 251.24 225.758 250.818ZM254.586 250.818V249.635H253.209V250.871C253.209 251.258 253.162 251.605 253.068 251.914C252.979 252.223 252.85 252.516 252.682 252.793L253.467 253.209C253.803 252.908 254.072 252.539 254.275 252.102C254.482 251.668 254.586 251.24 254.586 250.818ZM298.918 247.631V247.531C298.918 246.973 298.873 246.455 298.783 245.979C298.693 245.498 298.576 245.051 298.432 244.637C298.287 244.219 298.117 243.84 297.922 243.5C297.727 243.156 297.518 242.848 297.295 242.574C297.08 242.309 296.857 242.082 296.627 241.895C296.4 241.703 296.182 241.557 295.971 241.455L295.695 242.24C295.816 242.334 295.939 242.451 296.064 242.592C296.193 242.729 296.316 242.885 296.434 243.061C296.602 243.307 296.762 243.598 296.914 243.934C297.07 244.27 297.203 244.648 297.312 245.07C297.395 245.395 297.463 245.762 297.518 246.172C297.572 246.582 297.6 247.031 297.6 247.52V247.643C297.6 248.115 297.574 248.555 297.523 248.961C297.477 249.367 297.41 249.742 297.324 250.086C297.234 250.457 297.123 250.795 296.99 251.1C296.861 251.408 296.723 251.684 296.574 251.926C296.434 252.145 296.289 252.338 296.141 252.506C295.992 252.674 295.844 252.812 295.695 252.922L295.971 253.707C296.182 253.605 296.4 253.461 296.627 253.273C296.854 253.086 297.076 252.855 297.295 252.582C297.514 252.316 297.721 252.012 297.916 251.668C298.111 251.324 298.283 250.943 298.432 250.525C298.58 250.111 298.697 249.662 298.783 249.178C298.873 248.693 298.918 248.178 298.918 247.631ZM427.555 250.818V249.635H426.178V250.871C426.178 251.258 426.131 251.605 426.037 251.914C425.947 252.223 425.818 252.516 425.65 252.793L426.436 253.209C426.771 252.908 427.041 252.539 427.244 252.102C427.451 251.668 427.555 251.24 427.555 250.818ZM173.363 263.531V263.631C173.363 264.189 173.406 264.713 173.492 265.201C173.578 265.686 173.693 266.135 173.838 266.549C173.982 266.967 174.15 267.346 174.342 267.686C174.537 268.029 174.742 268.334 174.957 268.6C175.172 268.865 175.391 269.09 175.613 269.273C175.836 269.461 176.051 269.605 176.258 269.707L176.539 268.922C176.383 268.801 176.227 268.65 176.07 268.471C175.914 268.291 175.764 268.084 175.619 267.85C175.479 267.619 175.348 267.354 175.227 267.053C175.105 266.752 174.998 266.426 174.904 266.074C174.83 265.781 174.766 265.426 174.711 265.008C174.656 264.586 174.629 264.131 174.629 263.643V263.52C174.629 263.02 174.656 262.555 174.711 262.125C174.77 261.695 174.848 261.303 174.945 260.947C175.051 260.568 175.176 260.219 175.32 259.898C175.469 259.578 175.627 259.299 175.795 259.061C175.916 258.893 176.039 258.742 176.164 258.609C176.289 258.477 176.414 258.363 176.539 258.27L176.258 257.455C176.051 257.557 175.836 257.701 175.613 257.889C175.391 258.072 175.174 258.297 174.963 258.562C174.748 258.828 174.543 259.133 174.348 259.477C174.156 259.82 173.986 260.197 173.838 260.607C173.693 261.025 173.578 261.48 173.492 261.973C173.406 262.461 173.363 262.98 173.363 263.531ZM189.723 266.818V265.635H188.346V266.871C188.346 267.258 188.299 267.605 188.205 267.914C188.115 268.223 187.986 268.516 187.818 268.793L188.604 269.209C188.939 268.908 189.209 268.539 189.412 268.102C189.619 267.668 189.723 267.24 189.723 266.818ZM211.344 266.818V265.635H209.967V266.871C209.967 267.258 209.92 267.605 209.826 267.914C209.736 268.223 209.607 268.516 209.439 268.793L210.225 269.209C210.561 268.908 210.83 268.539 211.033 268.102C211.24 267.668 211.344 267.24 211.344 266.818ZM232.965 266.818V265.635H231.588V266.871C231.588 267.258 231.541 267.605 231.447 267.914C231.357 268.223 231.229 268.516 231.061 268.793L231.846 269.209C232.182 268.908 232.451 268.539 232.654 268.102C232.861 267.668 232.965 267.24 232.965 266.818ZM270.09 263.631V263.531C270.09 262.973 270.045 262.455 269.955 261.979C269.865 261.498 269.748 261.051 269.604 260.637C269.459 260.219 269.289 259.84 269.094 259.5C268.898 259.156 268.689 258.848 268.467 258.574C268.252 258.309 268.029 258.082 267.799 257.895C267.572 257.703 267.354 257.557 267.143 257.455L266.867 258.24C266.988 258.334 267.111 258.451 267.236 258.592C267.365 258.729 267.488 258.885 267.605 259.061C267.773 259.307 267.934 259.598 268.086 259.934C268.242 260.27 268.375 260.648 268.484 261.07C268.566 261.395 268.635 261.762 268.689 262.172C268.744 262.582 268.771 263.031 268.771 263.52V263.643C268.771 264.115 268.746 264.555 268.695 264.961C268.648 265.367 268.582 265.742 268.496 266.086C268.406 266.457 268.295 266.795 268.162 267.1C268.033 267.408 267.895 267.684 267.746 267.926C267.605 268.145 267.461 268.338 267.312 268.506C267.164 268.674 267.016 268.812 266.867 268.922L267.143 269.707C267.354 269.605 267.572 269.461 267.799 269.273C268.025 269.086 268.248 268.855 268.467 268.582C268.686 268.316 268.893 268.012 269.088 267.668C269.283 267.324 269.455 266.943 269.604 266.525C269.752 266.111 269.869 265.662 269.955 265.178C270.045 264.693 270.09 264.178 270.09 263.631ZM397.666 261.193C397.666 261.463 397.754 261.691 397.93 261.879C398.109 262.062 398.359 262.154 398.68 262.154C398.996 262.154 399.244 262.062 399.424 261.879C399.607 261.695 399.699 261.467 399.699 261.193C399.699 260.92 399.609 260.689 399.43 260.502C399.25 260.311 399 260.215 398.68 260.215C398.355 260.215 398.105 260.311 397.93 260.502C397.754 260.693 397.666 260.924 397.666 261.193ZM399.312 266.818V265.635H397.936V266.871C397.936 267.258 397.889 267.605 397.795 267.914C397.705 268.223 397.576 268.516 397.408 268.793L398.193 269.209C398.529 268.908 398.799 268.539 399.002 268.102C399.209 267.668 399.312 267.24 399.312 266.818Z" fill="white"/>
<path d="M147.775 244.543C147.338 244.543 146.938 244.645 146.574 244.848C146.215 245.051 145.906 245.33 145.648 245.686L145.643 245.539L145.584 244.66H144.271V251H145.672V247.086C145.746 246.898 145.838 246.732 145.947 246.588C146.057 246.443 146.189 246.324 146.346 246.23C146.49 246.133 146.656 246.061 146.844 246.014C147.031 245.967 147.242 245.943 147.477 245.943C147.684 245.943 147.891 245.955 148.098 245.979C148.309 246.002 148.521 246.037 148.736 246.084L148.936 244.701C148.814 244.658 148.646 244.621 148.432 244.59C148.221 244.559 148.002 244.543 147.775 244.543ZM150.418 247.783V247.906C150.418 248.363 150.477 248.789 150.594 249.184C150.715 249.574 150.887 249.912 151.109 250.197C151.328 250.486 151.594 250.713 151.906 250.877C152.219 251.037 152.57 251.117 152.961 251.117C153.176 251.117 153.375 251.094 153.559 251.047C153.742 251.004 153.91 250.939 154.062 250.854C154.164 250.799 154.258 250.734 154.344 250.66C154.434 250.586 154.52 250.506 154.602 250.42V250.859C154.602 251.098 154.566 251.311 154.496 251.498C154.43 251.686 154.334 251.844 154.209 251.973C154.072 252.105 153.906 252.207 153.711 252.277C153.52 252.348 153.299 252.383 153.049 252.383C152.904 252.383 152.762 252.367 152.621 252.336C152.48 252.309 152.342 252.264 152.205 252.201C152.068 252.139 151.934 252.057 151.801 251.955C151.672 251.857 151.551 251.74 151.438 251.604L150.775 252.453C150.916 252.641 151.084 252.801 151.279 252.934C151.475 253.066 151.68 253.174 151.895 253.256C152.109 253.338 152.324 253.398 152.539 253.438C152.754 253.477 152.951 253.496 153.131 253.496C153.557 253.496 153.945 253.436 154.297 253.314C154.652 253.197 154.957 253.025 155.211 252.799C155.461 252.568 155.654 252.287 155.791 251.955C155.932 251.627 156.002 251.25 156.002 250.824V244.66H154.73L154.672 245.299C154.594 245.205 154.51 245.119 154.42 245.041C154.33 244.959 154.234 244.889 154.133 244.83C153.977 244.736 153.803 244.666 153.611 244.619C153.42 244.568 153.207 244.543 152.973 244.543C152.578 244.543 152.223 244.623 151.906 244.783C151.594 244.939 151.326 245.16 151.104 245.445C150.885 245.73 150.715 246.072 150.594 246.471C150.477 246.865 150.418 247.303 150.418 247.783ZM151.824 247.906V247.783C151.824 247.498 151.854 247.23 151.912 246.98C151.971 246.727 152.062 246.504 152.188 246.312C152.309 246.121 152.463 245.971 152.65 245.861C152.838 245.752 153.062 245.697 153.324 245.697C153.473 245.697 153.609 245.715 153.734 245.75C153.859 245.781 153.973 245.826 154.074 245.885C154.188 245.947 154.287 246.025 154.373 246.119C154.463 246.213 154.539 246.318 154.602 246.436V249.213C154.539 249.326 154.467 249.43 154.385 249.523C154.303 249.617 154.209 249.697 154.104 249.764C153.998 249.826 153.879 249.875 153.746 249.91C153.617 249.945 153.473 249.963 153.312 249.963C153.055 249.963 152.832 249.91 152.645 249.805C152.457 249.695 152.303 249.545 152.182 249.354C152.057 249.17 151.965 248.953 151.906 248.703C151.852 248.453 151.824 248.188 151.824 247.906ZM163.379 247.895V247.771C163.379 247.412 163.346 247.072 163.279 246.752C163.217 246.432 163.123 246.141 162.998 245.879C162.904 245.691 162.795 245.52 162.67 245.363C162.549 245.203 162.41 245.068 162.254 244.959C162.07 244.826 161.863 244.725 161.633 244.654C161.406 244.58 161.156 244.543 160.883 244.543C160.676 244.543 160.482 244.564 160.303 244.607C160.127 244.646 159.965 244.707 159.816 244.789C159.703 244.852 159.598 244.924 159.5 245.006C159.402 245.088 159.312 245.18 159.23 245.281V242H157.83V251H159.096L159.16 250.309C159.23 250.395 159.303 250.475 159.377 250.549C159.455 250.619 159.537 250.686 159.623 250.748C159.791 250.869 159.98 250.961 160.191 251.023C160.402 251.086 160.637 251.117 160.895 251.117C161.148 251.117 161.383 251.084 161.598 251.018C161.816 250.955 162.014 250.865 162.189 250.748C162.408 250.604 162.596 250.422 162.752 250.203C162.908 249.984 163.033 249.74 163.127 249.471C163.209 249.244 163.271 248.998 163.314 248.732C163.357 248.467 163.379 248.188 163.379 247.895ZM161.979 247.771V247.895C161.979 248.07 161.969 248.24 161.949 248.404C161.93 248.568 161.9 248.721 161.861 248.861C161.814 249.049 161.746 249.219 161.656 249.371C161.57 249.52 161.459 249.643 161.322 249.74C161.221 249.811 161.105 249.867 160.977 249.91C160.848 249.949 160.703 249.969 160.543 249.969C160.367 249.969 160.207 249.947 160.062 249.904C159.922 249.857 159.797 249.795 159.688 249.717C159.59 249.643 159.502 249.559 159.424 249.465C159.35 249.367 159.285 249.26 159.23 249.143V246.518C159.277 246.416 159.332 246.322 159.395 246.236C159.461 246.146 159.535 246.068 159.617 246.002C159.73 245.904 159.863 245.83 160.016 245.779C160.168 245.725 160.34 245.697 160.531 245.697C160.688 245.697 160.828 245.715 160.953 245.75C161.078 245.785 161.189 245.838 161.287 245.908C161.436 246.01 161.553 246.135 161.639 246.283C161.729 246.428 161.801 246.59 161.855 246.77C161.895 246.918 161.924 247.078 161.943 247.25C161.967 247.418 161.979 247.592 161.979 247.771ZM169.062 251H170.492V250.9C170.414 250.736 170.354 250.541 170.311 250.314C170.271 250.084 170.252 249.826 170.252 249.541V246.723C170.252 246.363 170.186 246.047 170.053 245.773C169.92 245.496 169.736 245.268 169.502 245.088C169.268 244.908 168.988 244.773 168.664 244.684C168.344 244.59 167.998 244.543 167.627 244.543C167.213 244.543 166.844 244.598 166.52 244.707C166.199 244.812 165.928 244.957 165.705 245.141C165.482 245.32 165.312 245.527 165.195 245.762C165.078 245.996 165.018 246.24 165.014 246.494H166.42C166.42 246.373 166.441 246.26 166.484 246.154C166.531 246.045 166.602 245.953 166.695 245.879C166.789 245.797 166.906 245.732 167.047 245.686C167.191 245.639 167.359 245.615 167.551 245.615C167.762 245.615 167.947 245.643 168.107 245.697C168.271 245.748 168.41 245.822 168.523 245.92C168.629 246.018 168.709 246.133 168.764 246.266C168.822 246.398 168.852 246.547 168.852 246.711V247.139H167.832C167.375 247.139 166.965 247.182 166.602 247.268C166.242 247.354 165.939 247.479 165.693 247.643C165.428 247.818 165.225 248.041 165.084 248.311C164.947 248.576 164.879 248.883 164.879 249.23C164.879 249.5 164.932 249.752 165.037 249.986C165.146 250.217 165.297 250.414 165.488 250.578C165.684 250.746 165.916 250.879 166.186 250.977C166.459 251.07 166.76 251.117 167.088 251.117C167.291 251.117 167.48 251.098 167.656 251.059C167.832 251.02 167.996 250.965 168.148 250.895C168.301 250.828 168.438 250.75 168.559 250.66C168.684 250.566 168.795 250.469 168.893 250.367C168.912 250.488 168.934 250.605 168.957 250.719C168.984 250.828 169.02 250.922 169.062 251ZM167.357 249.992C167.178 249.992 167.021 249.971 166.889 249.928C166.756 249.881 166.645 249.818 166.555 249.74C166.465 249.662 166.396 249.568 166.35 249.459C166.303 249.346 166.279 249.225 166.279 249.096C166.279 248.939 166.307 248.799 166.361 248.674C166.42 248.549 166.508 248.441 166.625 248.352C166.758 248.246 166.936 248.166 167.158 248.111C167.381 248.053 167.645 248.023 167.949 248.023H168.852V249.195C168.801 249.297 168.729 249.395 168.635 249.488C168.541 249.582 168.43 249.666 168.301 249.74C168.172 249.814 168.027 249.875 167.867 249.922C167.711 249.969 167.541 249.992 167.357 249.992ZM147.775 260.543C147.338 260.543 146.938 260.645 146.574 260.848C146.215 261.051 145.906 261.33 145.648 261.686L145.643 261.539L145.584 260.66H144.271V267H145.672V263.086C145.746 262.898 145.838 262.732 145.947 262.588C146.057 262.443 146.189 262.324 146.346 262.23C146.49 262.133 146.656 262.061 146.844 262.014C147.031 261.967 147.242 261.943 147.477 261.943C147.684 261.943 147.891 261.955 148.098 261.979C148.309 262.002 148.521 262.037 148.736 262.084L148.936 260.701C148.814 260.658 148.646 260.621 148.432 260.59C148.221 260.559 148.002 260.543 147.775 260.543ZM150.418 263.783V263.906C150.418 264.363 150.477 264.789 150.594 265.184C150.715 265.574 150.887 265.912 151.109 266.197C151.328 266.486 151.594 266.713 151.906 266.877C152.219 267.037 152.57 267.117 152.961 267.117C153.176 267.117 153.375 267.094 153.559 267.047C153.742 267.004 153.91 266.939 154.062 266.854C154.164 266.799 154.258 266.734 154.344 266.66C154.434 266.586 154.52 266.506 154.602 266.42V266.859C154.602 267.098 154.566 267.311 154.496 267.498C154.43 267.686 154.334 267.844 154.209 267.973C154.072 268.105 153.906 268.207 153.711 268.277C153.52 268.348 153.299 268.383 153.049 268.383C152.904 268.383 152.762 268.367 152.621 268.336C152.48 268.309 152.342 268.264 152.205 268.201C152.068 268.139 151.934 268.057 151.801 267.955C151.672 267.857 151.551 267.74 151.438 267.604L150.775 268.453C150.916 268.641 151.084 268.801 151.279 268.934C151.475 269.066 151.68 269.174 151.895 269.256C152.109 269.338 152.324 269.398 152.539 269.438C152.754 269.477 152.951 269.496 153.131 269.496C153.557 269.496 153.945 269.436 154.297 269.314C154.652 269.197 154.957 269.025 155.211 268.799C155.461 268.568 155.654 268.287 155.791 267.955C155.932 267.627 156.002 267.25 156.002 266.824V260.66H154.73L154.672 261.299C154.594 261.205 154.51 261.119 154.42 261.041C154.33 260.959 154.234 260.889 154.133 260.83C153.977 260.736 153.803 260.666 153.611 260.619C153.42 260.568 153.207 260.543 152.973 260.543C152.578 260.543 152.223 260.623 151.906 260.783C151.594 260.939 151.326 261.16 151.104 261.445C150.885 261.73 150.715 262.072 150.594 262.471C150.477 262.865 150.418 263.303 150.418 263.783ZM151.824 263.906V263.783C151.824 263.498 151.854 263.23 151.912 262.98C151.971 262.727 152.062 262.504 152.188 262.312C152.309 262.121 152.463 261.971 152.65 261.861C152.838 261.752 153.062 261.697 153.324 261.697C153.473 261.697 153.609 261.715 153.734 261.75C153.859 261.781 153.973 261.826 154.074 261.885C154.188 261.947 154.287 262.025 154.373 262.119C154.463 262.213 154.539 262.318 154.602 262.436V265.213C154.539 265.326 154.467 265.43 154.385 265.523C154.303 265.617 154.209 265.697 154.104 265.764C153.998 265.826 153.879 265.875 153.746 265.91C153.617 265.945 153.473 265.963 153.312 265.963C153.055 265.963 152.832 265.91 152.645 265.805C152.457 265.695 152.303 265.545 152.182 265.354C152.057 265.17 151.965 264.953 151.906 264.703C151.852 264.453 151.824 264.188 151.824 263.906ZM163.379 263.895V263.771C163.379 263.412 163.346 263.072 163.279 262.752C163.217 262.432 163.123 262.141 162.998 261.879C162.904 261.691 162.795 261.52 162.67 261.363C162.549 261.203 162.41 261.068 162.254 260.959C162.07 260.826 161.863 260.725 161.633 260.654C161.406 260.58 161.156 260.543 160.883 260.543C160.676 260.543 160.482 260.564 160.303 260.607C160.127 260.646 159.965 260.707 159.816 260.789C159.703 260.852 159.598 260.924 159.5 261.006C159.402 261.088 159.312 261.18 159.23 261.281V258H157.83V267H159.096L159.16 266.309C159.23 266.395 159.303 266.475 159.377 266.549C159.455 266.619 159.537 266.686 159.623 266.748C159.791 266.869 159.98 266.961 160.191 267.023C160.402 267.086 160.637 267.117 160.895 267.117C161.148 267.117 161.383 267.084 161.598 267.018C161.816 266.955 162.014 266.865 162.189 266.748C162.408 266.604 162.596 266.422 162.752 266.203C162.908 265.984 163.033 265.74 163.127 265.471C163.209 265.244 163.271 264.998 163.314 264.732C163.357 264.467 163.379 264.188 163.379 263.895ZM161.979 263.771V263.895C161.979 264.07 161.969 264.24 161.949 264.404C161.93 264.568 161.9 264.721 161.861 264.861C161.814 265.049 161.746 265.219 161.656 265.371C161.57 265.52 161.459 265.643 161.322 265.74C161.221 265.811 161.105 265.867 160.977 265.91C160.848 265.949 160.703 265.969 160.543 265.969C160.367 265.969 160.207 265.947 160.062 265.904C159.922 265.857 159.797 265.795 159.688 265.717C159.59 265.643 159.502 265.559 159.424 265.465C159.35 265.367 159.285 265.26 159.23 265.143V262.518C159.277 262.416 159.332 262.322 159.395 262.236C159.461 262.146 159.535 262.068 159.617 262.002C159.73 261.904 159.863 261.83 160.016 261.779C160.168 261.725 160.34 261.697 160.531 261.697C160.688 261.697 160.828 261.715 160.953 261.75C161.078 261.785 161.189 261.838 161.287 261.908C161.436 262.01 161.553 262.135 161.639 262.283C161.729 262.428 161.801 262.59 161.855 262.77C161.895 262.918 161.924 263.078 161.943 263.25C161.967 263.418 161.979 263.592 161.979 263.771ZM169.062 267H170.492V266.9C170.414 266.736 170.354 266.541 170.311 266.314C170.271 266.084 170.252 265.826 170.252 265.541V262.723C170.252 262.363 170.186 262.047 170.053 261.773C169.92 261.496 169.736 261.268 169.502 261.088C169.268 260.908 168.988 260.773 168.664 260.684C168.344 260.59 167.998 260.543 167.627 260.543C167.213 260.543 166.844 260.598 166.52 260.707C166.199 260.812 165.928 260.957 165.705 261.141C165.482 261.32 165.312 261.527 165.195 261.762C165.078 261.996 165.018 262.24 165.014 262.494H166.42C166.42 262.373 166.441 262.26 166.484 262.154C166.531 262.045 166.602 261.953 166.695 261.879C166.789 261.797 166.906 261.732 167.047 261.686C167.191 261.639 167.359 261.615 167.551 261.615C167.762 261.615 167.947 261.643 168.107 261.697C168.271 261.748 168.41 261.822 168.523 261.92C168.629 262.018 168.709 262.133 168.764 262.266C168.822 262.398 168.852 262.547 168.852 262.711V263.139H167.832C167.375 263.139 166.965 263.182 166.602 263.268C166.242 263.354 165.939 263.479 165.693 263.643C165.428 263.818 165.225 264.041 165.084 264.311C164.947 264.576 164.879 264.883 164.879 265.23C164.879 265.5 164.932 265.752 165.037 265.986C165.146 266.217 165.297 266.414 165.488 266.578C165.684 266.746 165.916 266.879 166.186 266.977C166.459 267.07 166.76 267.117 167.088 267.117C167.291 267.117 167.48 267.098 167.656 267.059C167.832 267.02 167.996 266.965 168.148 266.895C168.301 266.828 168.438 266.75 168.559 266.66C168.684 266.566 168.795 266.469 168.893 266.367C168.912 266.488 168.934 266.605 168.957 266.719C168.984 266.828 169.02 266.922 169.062 267ZM167.357 265.992C167.178 265.992 167.021 265.971 166.889 265.928C166.756 265.881 166.645 265.818 166.555 265.74C166.465 265.662 166.396 265.568 166.35 265.459C166.303 265.346 166.279 265.225 166.279 265.096C166.279 264.939 166.307 264.799 166.361 264.674C166.42 264.549 166.508 264.441 166.625 264.352C166.758 264.246 166.936 264.166 167.158 264.111C167.381 264.053 167.645 264.023 167.949 264.023H168.852V265.195C168.801 265.297 168.729 265.395 168.635 265.488C168.541 265.582 168.43 265.666 168.301 265.74C168.172 265.814 168.027 265.875 167.867 265.922C167.711 265.969 167.541 265.992 167.357 265.992Z" fill="#7DD8C7"/>
<path d="M179.639 246.77L180.758 247.045C180.832 246.975 180.908 246.91 180.986 246.852C181.068 246.789 181.158 246.734 181.256 246.688C181.35 246.645 181.457 246.609 181.578 246.582C181.703 246.555 181.85 246.541 182.018 246.541C182.271 246.541 182.494 246.584 182.686 246.67C182.877 246.752 183.037 246.869 183.166 247.021C183.295 247.174 183.391 247.354 183.453 247.561C183.52 247.764 183.553 247.988 183.553 248.234C183.553 248.488 183.525 248.725 183.471 248.943C183.416 249.158 183.332 249.342 183.219 249.494C183.105 249.65 182.963 249.771 182.791 249.857C182.619 249.943 182.416 249.986 182.182 249.986C181.783 249.986 181.455 249.875 181.197 249.652C180.943 249.43 180.791 249.109 180.74 248.691H179.375C179.398 249.086 179.49 249.436 179.65 249.74C179.814 250.041 180.023 250.293 180.277 250.496C180.531 250.703 180.822 250.859 181.15 250.965C181.479 251.066 181.822 251.117 182.182 251.117C182.654 251.117 183.064 251.043 183.412 250.895C183.76 250.746 184.047 250.543 184.273 250.285C184.504 250.027 184.674 249.727 184.783 249.383C184.896 249.035 184.953 248.666 184.953 248.275C184.953 247.834 184.895 247.438 184.777 247.086C184.66 246.73 184.49 246.43 184.268 246.184C184.049 245.934 183.779 245.742 183.459 245.609C183.143 245.477 182.783 245.41 182.381 245.41C182.084 245.41 181.82 245.447 181.59 245.521C181.363 245.596 181.18 245.674 181.039 245.756L181.262 243.711H184.684V242.469H180.102L179.639 246.77ZM192.107 247.748V245.727C192.107 245.18 192.043 244.697 191.914 244.279C191.785 243.857 191.604 243.502 191.369 243.213C191.127 242.928 190.834 242.713 190.49 242.568C190.15 242.42 189.764 242.346 189.33 242.346C188.9 242.346 188.514 242.42 188.17 242.568C187.83 242.713 187.541 242.928 187.303 243.213C187.064 243.502 186.881 243.857 186.752 244.279C186.627 244.697 186.564 245.18 186.564 245.727V247.748C186.564 248.295 186.627 248.779 186.752 249.201C186.881 249.619 187.066 249.971 187.309 250.256C187.547 250.541 187.838 250.758 188.182 250.906C188.525 251.051 188.912 251.123 189.342 251.123C189.775 251.123 190.162 251.051 190.502 250.906C190.846 250.758 191.135 250.541 191.369 250.256C191.607 249.971 191.789 249.619 191.914 249.201C192.043 248.779 192.107 248.295 192.107 247.748ZM187.971 247.25C187.971 247.137 187.971 247.041 187.971 246.963C187.971 246.885 187.971 246.771 187.971 246.623V245.475C187.971 245.123 188.002 244.818 188.064 244.561C188.127 244.299 188.223 244.086 188.352 243.922C188.461 243.777 188.598 243.668 188.762 243.594C188.926 243.52 189.115 243.482 189.33 243.482C189.533 243.482 189.713 243.514 189.869 243.576C190.025 243.639 190.158 243.732 190.268 243.857C190.393 243.998 190.488 244.18 190.555 244.402C190.625 244.625 190.668 244.889 190.684 245.193L187.971 247.25ZM190.695 247.982C190.695 248.342 190.664 248.654 190.602 248.92C190.539 249.186 190.441 249.4 190.309 249.564C190.195 249.705 190.059 249.812 189.898 249.887C189.738 249.957 189.553 249.992 189.342 249.992C189.127 249.992 188.938 249.955 188.773 249.881C188.613 249.807 188.479 249.695 188.369 249.547C188.26 249.41 188.172 249.238 188.105 249.031C188.043 248.824 188.002 248.586 187.982 248.316L190.695 246.271C190.695 246.385 190.695 246.494 190.695 246.6C190.695 246.701 190.695 246.803 190.695 246.904V247.982ZM208.467 246.77L209.586 247.045C209.66 246.975 209.736 246.91 209.814 246.852C209.896 246.789 209.986 246.734 210.084 246.688C210.178 246.645 210.285 246.609 210.406 246.582C210.531 246.555 210.678 246.541 210.846 246.541C211.1 246.541 211.322 246.584 211.514 246.67C211.705 246.752 211.865 246.869 211.994 247.021C212.123 247.174 212.219 247.354 212.281 247.561C212.348 247.764 212.381 247.988 212.381 248.234C212.381 248.488 212.354 248.725 212.299 248.943C212.244 249.158 212.16 249.342 212.047 249.494C211.934 249.65 211.791 249.771 211.619 249.857C211.447 249.943 211.244 249.986 211.01 249.986C210.611 249.986 210.283 249.875 210.025 249.652C209.771 249.43 209.619 249.109 209.568 248.691H208.203C208.227 249.086 208.318 249.436 208.479 249.74C208.643 250.041 208.852 250.293 209.105 250.496C209.359 250.703 209.65 250.859 209.979 250.965C210.307 251.066 210.65 251.117 211.01 251.117C211.482 251.117 211.893 251.043 212.24 250.895C212.588 250.746 212.875 250.543 213.102 250.285C213.332 250.027 213.502 249.727 213.611 249.383C213.725 249.035 213.781 248.666 213.781 248.275C213.781 247.834 213.723 247.438 213.605 247.086C213.488 246.73 213.318 246.43 213.096 246.184C212.877 245.934 212.607 245.742 212.287 245.609C211.971 245.477 211.611 245.41 211.209 245.41C210.912 245.41 210.648 245.447 210.418 245.521C210.191 245.596 210.008 245.674 209.867 245.756L210.09 243.711H213.512V242.469H208.93L208.467 246.77ZM220.936 247.748V245.727C220.936 245.18 220.871 244.697 220.742 244.279C220.613 243.857 220.432 243.502 220.197 243.213C219.955 242.928 219.662 242.713 219.318 242.568C218.979 242.42 218.592 242.346 218.158 242.346C217.729 242.346 217.342 242.42 216.998 242.568C216.658 242.713 216.369 242.928 216.131 243.213C215.893 243.502 215.709 243.857 215.58 244.279C215.455 244.697 215.393 245.18 215.393 245.727V247.748C215.393 248.295 215.455 248.779 215.58 249.201C215.709 249.619 215.895 249.971 216.137 250.256C216.375 250.541 216.666 250.758 217.01 250.906C217.354 251.051 217.74 251.123 218.17 251.123C218.604 251.123 218.99 251.051 219.33 250.906C219.674 250.758 219.963 250.541 220.197 250.256C220.436 249.971 220.617 249.619 220.742 249.201C220.871 248.779 220.936 248.295 220.936 247.748ZM216.799 247.25C216.799 247.137 216.799 247.041 216.799 246.963C216.799 246.885 216.799 246.771 216.799 246.623V245.475C216.799 245.123 216.83 244.818 216.893 244.561C216.955 244.299 217.051 244.086 217.18 243.922C217.289 243.777 217.426 243.668 217.59 243.594C217.754 243.52 217.943 243.482 218.158 243.482C218.361 243.482 218.541 243.514 218.697 243.576C218.854 243.639 218.986 243.732 219.096 243.857C219.221 243.998 219.316 244.18 219.383 244.402C219.453 244.625 219.496 244.889 219.512 245.193L216.799 247.25ZM219.523 247.982C219.523 248.342 219.492 248.654 219.43 248.92C219.367 249.186 219.27 249.4 219.137 249.564C219.023 249.705 218.887 249.812 218.727 249.887C218.566 249.957 218.381 249.992 218.17 249.992C217.955 249.992 217.766 249.955 217.602 249.881C217.441 249.807 217.307 249.695 217.197 249.547C217.088 249.41 217 249.238 216.934 249.031C216.871 248.824 216.83 248.586 216.811 248.316L219.523 246.271C219.523 246.385 219.523 246.494 219.523 246.6C219.523 246.701 219.523 246.803 219.523 246.904V247.982ZM238.221 249.846H238.109V251.041H238.227C238.961 251.041 239.588 250.934 240.107 250.719C240.631 250.504 241.053 250.209 241.373 249.834C241.768 249.377 242.043 248.844 242.199 248.234C242.355 247.625 242.434 246.984 242.434 246.312V245.82C242.434 245.332 242.369 244.867 242.24 244.426C242.111 243.98 241.922 243.602 241.672 243.289C241.434 243 241.143 242.771 240.799 242.604C240.459 242.436 240.068 242.352 239.627 242.352C239.189 242.352 238.799 242.432 238.455 242.592C238.115 242.748 237.828 242.961 237.594 243.23C237.359 243.504 237.18 243.822 237.055 244.186C236.934 244.545 236.873 244.93 236.873 245.34C236.873 245.715 236.924 246.076 237.025 246.424C237.127 246.768 237.281 247.072 237.488 247.338C237.691 247.6 237.945 247.809 238.25 247.965C238.559 248.121 238.92 248.199 239.334 248.199C239.537 248.199 239.723 248.18 239.891 248.141C240.062 248.102 240.219 248.049 240.359 247.982C240.492 247.92 240.613 247.848 240.723 247.766C240.836 247.68 240.936 247.588 241.021 247.49V247.52C240.99 247.852 240.92 248.162 240.811 248.451C240.701 248.736 240.529 248.99 240.295 249.213C240.076 249.416 239.797 249.572 239.457 249.682C239.117 249.791 238.705 249.846 238.221 249.846ZM239.633 247.092C239.398 247.092 239.195 247.043 239.023 246.945C238.855 246.844 238.713 246.711 238.596 246.547C238.482 246.379 238.398 246.188 238.344 245.973C238.289 245.758 238.262 245.533 238.262 245.299C238.262 245.057 238.291 244.826 238.35 244.607C238.412 244.385 238.502 244.191 238.619 244.027C238.732 243.863 238.873 243.734 239.041 243.641C239.213 243.543 239.408 243.494 239.627 243.494C239.822 243.494 240.006 243.541 240.178 243.635C240.35 243.725 240.5 243.857 240.629 244.033C240.758 244.209 240.859 244.428 240.934 244.689C241.008 244.951 241.045 245.252 241.045 245.592V246.078C240.986 246.223 240.91 246.357 240.816 246.482C240.727 246.604 240.621 246.711 240.5 246.805C240.379 246.895 240.244 246.965 240.096 247.016C239.951 247.066 239.797 247.092 239.633 247.092ZM245.773 246.102V247.203H246.611C246.854 247.203 247.072 247.232 247.268 247.291C247.467 247.346 247.637 247.43 247.777 247.543C247.918 247.66 248.025 247.807 248.1 247.982C248.174 248.158 248.211 248.369 248.211 248.615C248.211 248.834 248.178 249.029 248.111 249.201C248.049 249.369 247.957 249.51 247.836 249.623C247.711 249.744 247.557 249.836 247.373 249.898C247.193 249.957 246.99 249.986 246.764 249.986C246.553 249.986 246.359 249.955 246.184 249.893C246.012 249.83 245.863 249.742 245.738 249.629C245.609 249.52 245.51 249.387 245.439 249.23C245.373 249.07 245.34 248.896 245.34 248.709H243.939C243.939 249.107 244.016 249.457 244.168 249.758C244.324 250.055 244.531 250.305 244.789 250.508C245.047 250.711 245.346 250.863 245.686 250.965C246.025 251.066 246.379 251.117 246.746 251.117C247.152 251.117 247.529 251.062 247.877 250.953C248.229 250.84 248.533 250.676 248.791 250.461C249.045 250.25 249.244 249.99 249.389 249.682C249.537 249.369 249.611 249.014 249.611 248.615C249.611 248.4 249.586 248.193 249.535 247.994C249.484 247.791 249.402 247.602 249.289 247.426C249.176 247.254 249.029 247.1 248.85 246.963C248.674 246.822 248.459 246.709 248.205 246.623C248.42 246.525 248.607 246.406 248.768 246.266C248.928 246.125 249.061 245.975 249.166 245.814C249.271 245.65 249.35 245.48 249.4 245.305C249.455 245.129 249.482 244.953 249.482 244.777C249.482 244.379 249.416 244.029 249.283 243.729C249.15 243.428 248.963 243.174 248.721 242.967C248.482 242.764 248.193 242.611 247.854 242.51C247.518 242.404 247.148 242.352 246.746 242.352C246.352 242.352 245.988 242.41 245.656 242.527C245.328 242.645 245.043 242.807 244.801 243.014C244.559 243.225 244.369 243.473 244.232 243.758C244.096 244.043 244.027 244.355 244.027 244.695H245.428C245.428 244.512 245.461 244.346 245.527 244.197C245.598 244.049 245.693 243.922 245.814 243.816C245.932 243.711 246.07 243.631 246.23 243.576C246.395 243.518 246.572 243.488 246.764 243.488C246.979 243.488 247.168 243.518 247.332 243.576C247.5 243.635 247.639 243.717 247.748 243.822C247.857 243.936 247.939 244.072 247.994 244.232C248.053 244.393 248.082 244.574 248.082 244.777C248.082 244.965 248.051 245.141 247.988 245.305C247.93 245.465 247.844 245.6 247.73 245.709C247.609 245.834 247.455 245.932 247.268 246.002C247.08 246.068 246.861 246.102 246.611 246.102H245.773ZM271.385 247.748V245.727C271.385 245.18 271.32 244.697 271.191 244.279C271.062 243.857 270.881 243.502 270.646 243.213C270.404 242.928 270.111 242.713 269.768 242.568C269.428 242.42 269.041 242.346 268.607 242.346C268.178 242.346 267.791 242.42 267.447 242.568C267.107 242.713 266.818 242.928 266.58 243.213C266.342 243.502 266.158 243.857 266.029 244.279C265.904 244.697 265.842 245.18 265.842 245.727V247.748C265.842 248.295 265.904 248.779 266.029 249.201C266.158 249.619 266.344 249.971 266.586 250.256C266.824 250.541 267.115 250.758 267.459 250.906C267.803 251.051 268.189 251.123 268.619 251.123C269.053 251.123 269.439 251.051 269.779 250.906C270.123 250.758 270.412 250.541 270.646 250.256C270.885 249.971 271.066 249.619 271.191 249.201C271.32 248.779 271.385 248.295 271.385 247.748ZM267.248 247.25C267.248 247.137 267.248 247.041 267.248 246.963C267.248 246.885 267.248 246.771 267.248 246.623V245.475C267.248 245.123 267.279 244.818 267.342 244.561C267.404 244.299 267.5 244.086 267.629 243.922C267.738 243.777 267.875 243.668 268.039 243.594C268.203 243.52 268.393 243.482 268.607 243.482C268.811 243.482 268.99 243.514 269.146 243.576C269.303 243.639 269.436 243.732 269.545 243.857C269.67 243.998 269.766 244.18 269.832 244.402C269.902 244.625 269.945 244.889 269.961 245.193L267.248 247.25ZM269.973 247.982C269.973 248.342 269.941 248.654 269.879 248.92C269.816 249.186 269.719 249.4 269.586 249.564C269.473 249.705 269.336 249.812 269.176 249.887C269.016 249.957 268.83 249.992 268.619 249.992C268.404 249.992 268.215 249.955 268.051 249.881C267.891 249.807 267.756 249.695 267.646 249.547C267.537 249.41 267.449 249.238 267.383 249.031C267.32 248.824 267.279 248.586 267.26 248.316L269.973 246.271C269.973 246.385 269.973 246.494 269.973 246.6C269.973 246.701 269.973 246.803 269.973 246.904V247.982ZM274.865 250.156C274.865 250.426 274.953 250.654 275.129 250.842C275.309 251.025 275.559 251.117 275.879 251.117C276.195 251.117 276.443 251.025 276.623 250.842C276.807 250.658 276.898 250.43 276.898 250.156C276.898 249.883 276.809 249.652 276.629 249.465C276.449 249.273 276.199 249.178 275.879 249.178C275.555 249.178 275.305 249.273 275.129 249.465C274.953 249.656 274.865 249.887 274.865 250.156ZM285.758 251V249.869H281.785L283.684 247.842C283.934 247.576 284.164 247.318 284.375 247.068C284.59 246.818 284.775 246.57 284.932 246.324C285.084 246.078 285.203 245.83 285.289 245.58C285.379 245.326 285.424 245.064 285.424 244.795C285.424 244.436 285.365 244.107 285.248 243.811C285.131 243.51 284.961 243.252 284.738 243.037C284.512 242.822 284.232 242.654 283.9 242.533C283.572 242.412 283.199 242.352 282.781 242.352C282.336 242.352 281.932 242.424 281.568 242.568C281.209 242.713 280.904 242.908 280.654 243.154C280.4 243.4 280.205 243.689 280.068 244.021C279.932 244.35 279.863 244.699 279.863 245.07H281.27C281.27 244.824 281.301 244.605 281.363 244.414C281.426 244.219 281.52 244.055 281.645 243.922C281.766 243.789 281.918 243.688 282.102 243.617C282.285 243.547 282.502 243.512 282.752 243.512C282.947 243.512 283.123 243.545 283.279 243.611C283.439 243.678 283.576 243.77 283.689 243.887C283.803 244.004 283.889 244.145 283.947 244.309C284.006 244.473 284.035 244.654 284.035 244.854C284.035 245.002 284.014 245.15 283.971 245.299C283.932 245.443 283.865 245.6 283.771 245.768C283.674 245.936 283.547 246.121 283.391 246.324C283.234 246.523 283.041 246.75 282.811 247.004L280.033 250.027V251H285.758ZM287.744 246.77L288.863 247.045C288.938 246.975 289.014 246.91 289.092 246.852C289.174 246.789 289.264 246.734 289.361 246.688C289.455 246.645 289.562 246.609 289.684 246.582C289.809 246.555 289.955 246.541 290.123 246.541C290.377 246.541 290.6 246.584 290.791 246.67C290.982 246.752 291.143 246.869 291.271 247.021C291.4 247.174 291.496 247.354 291.559 247.561C291.625 247.764 291.658 247.988 291.658 248.234C291.658 248.488 291.631 248.725 291.576 248.943C291.521 249.158 291.438 249.342 291.324 249.494C291.211 249.65 291.068 249.771 290.896 249.857C290.725 249.943 290.521 249.986 290.287 249.986C289.889 249.986 289.561 249.875 289.303 249.652C289.049 249.43 288.896 249.109 288.846 248.691H287.48C287.504 249.086 287.596 249.436 287.756 249.74C287.92 250.041 288.129 250.293 288.383 250.496C288.637 250.703 288.928 250.859 289.256 250.965C289.584 251.066 289.928 251.117 290.287 251.117C290.76 251.117 291.17 251.043 291.518 250.895C291.865 250.746 292.152 250.543 292.379 250.285C292.609 250.027 292.779 249.727 292.889 249.383C293.002 249.035 293.059 248.666 293.059 248.275C293.059 247.834 293 247.438 292.883 247.086C292.766 246.73 292.596 246.43 292.373 246.184C292.154 245.934 291.885 245.742 291.564 245.609C291.248 245.477 290.889 245.41 290.486 245.41C290.189 245.41 289.926 245.447 289.695 245.521C289.469 245.596 289.285 245.674 289.145 245.756L289.367 243.711H292.789V242.469H288.207L287.744 246.77ZM314.627 247.748V245.727C314.627 245.18 314.562 244.697 314.434 244.279C314.305 243.857 314.123 243.502 313.889 243.213C313.646 242.928 313.354 242.713 313.01 242.568C312.67 242.42 312.283 242.346 311.85 242.346C311.42 242.346 311.033 242.42 310.689 242.568C310.35 242.713 310.061 242.928 309.822 243.213C309.584 243.502 309.4 243.857 309.271 244.279C309.146 244.697 309.084 245.18 309.084 245.727V247.748C309.084 248.295 309.146 248.779 309.271 249.201C309.4 249.619 309.586 249.971 309.828 250.256C310.066 250.541 310.357 250.758 310.701 250.906C311.045 251.051 311.432 251.123 311.861 251.123C312.295 251.123 312.682 251.051 313.021 250.906C313.365 250.758 313.654 250.541 313.889 250.256C314.127 249.971 314.309 249.619 314.434 249.201C314.562 248.779 314.627 248.295 314.627 247.748ZM310.49 247.25C310.49 247.137 310.49 247.041 310.49 246.963C310.49 246.885 310.49 246.771 310.49 246.623V245.475C310.49 245.123 310.521 244.818 310.584 244.561C310.646 244.299 310.742 244.086 310.871 243.922C310.98 243.777 311.117 243.668 311.281 243.594C311.445 243.52 311.635 243.482 311.85 243.482C312.053 243.482 312.232 243.514 312.389 243.576C312.545 243.639 312.678 243.732 312.787 243.857C312.912 243.998 313.008 244.18 313.074 244.402C313.145 244.625 313.188 244.889 313.203 245.193L310.49 247.25ZM313.215 247.982C313.215 248.342 313.184 248.654 313.121 248.92C313.059 249.186 312.961 249.4 312.828 249.564C312.715 249.705 312.578 249.812 312.418 249.887C312.258 249.957 312.072 249.992 311.861 249.992C311.646 249.992 311.457 249.955 311.293 249.881C311.133 249.807 310.998 249.695 310.889 249.547C310.779 249.41 310.691 249.238 310.625 249.031C310.562 248.824 310.521 248.586 310.502 248.316L313.215 246.271C313.215 246.385 313.215 246.494 313.215 246.6C313.215 246.701 313.215 246.803 313.215 246.904V247.982ZM316.373 253.438H317.773V250.426C317.848 250.508 317.928 250.584 318.014 250.654C318.1 250.721 318.189 250.783 318.283 250.842C318.443 250.932 318.617 251 318.805 251.047C318.996 251.094 319.205 251.117 319.432 251.117C319.83 251.117 320.184 251.035 320.492 250.871C320.801 250.707 321.061 250.48 321.271 250.191C321.482 249.906 321.641 249.566 321.746 249.172C321.855 248.777 321.91 248.352 321.91 247.895V247.771C321.91 247.295 321.855 246.859 321.746 246.465C321.641 246.066 321.482 245.725 321.271 245.439C321.061 245.154 320.799 244.934 320.486 244.777C320.178 244.621 319.82 244.543 319.414 244.543C319.207 244.543 319.012 244.566 318.828 244.613C318.645 244.656 318.477 244.719 318.324 244.801C318.207 244.863 318.098 244.938 317.996 245.023C317.895 245.109 317.801 245.205 317.715 245.311L317.662 244.66H316.373V253.438ZM320.51 247.771V247.895C320.51 248.176 320.482 248.443 320.428 248.697C320.373 248.947 320.285 249.17 320.164 249.365C320.047 249.557 319.895 249.709 319.707 249.822C319.523 249.932 319.301 249.986 319.039 249.986C318.879 249.986 318.732 249.969 318.6 249.934C318.467 249.895 318.348 249.844 318.242 249.781C318.141 249.715 318.051 249.637 317.973 249.547C317.895 249.457 317.828 249.357 317.773 249.248V246.43C317.836 246.312 317.908 246.207 317.99 246.113C318.076 246.02 318.176 245.941 318.289 245.879C318.387 245.82 318.498 245.775 318.623 245.744C318.748 245.713 318.883 245.697 319.027 245.697C319.289 245.697 319.514 245.752 319.701 245.861C319.889 245.971 320.043 246.119 320.164 246.307C320.281 246.494 320.367 246.715 320.422 246.969C320.48 247.219 320.51 247.486 320.51 247.771ZM326.352 246.793L324.852 244.66H323.311L325.531 247.783L323.234 251H324.787L326.363 248.785L327.945 251H329.492L327.195 247.783L329.422 244.66H327.869L326.352 246.793ZM343.414 251V249.869H339.441L341.34 247.842C341.59 247.576 341.82 247.318 342.031 247.068C342.246 246.818 342.432 246.57 342.588 246.324C342.74 246.078 342.859 245.83 342.945 245.58C343.035 245.326 343.08 245.064 343.08 244.795C343.08 244.436 343.021 244.107 342.904 243.811C342.787 243.51 342.617 243.252 342.395 243.037C342.168 242.822 341.889 242.654 341.557 242.533C341.229 242.412 340.855 242.352 340.438 242.352C339.992 242.352 339.588 242.424 339.225 242.568C338.865 242.713 338.561 242.908 338.311 243.154C338.057 243.4 337.861 243.689 337.725 244.021C337.588 244.35 337.52 244.699 337.52 245.07H338.926C338.926 244.824 338.957 244.605 339.02 244.414C339.082 244.219 339.176 244.055 339.301 243.922C339.422 243.789 339.574 243.688 339.758 243.617C339.941 243.547 340.158 243.512 340.408 243.512C340.604 243.512 340.779 243.545 340.936 243.611C341.096 243.678 341.232 243.77 341.346 243.887C341.459 244.004 341.545 244.145 341.604 244.309C341.662 244.473 341.691 244.654 341.691 244.854C341.691 245.002 341.67 245.15 341.627 245.299C341.588 245.443 341.521 245.6 341.428 245.768C341.33 245.936 341.203 246.121 341.047 246.324C340.891 246.523 340.697 246.75 340.467 247.004L337.689 250.027V251H343.414ZM345.201 253.438H346.602V250.426C346.676 250.508 346.756 250.584 346.842 250.654C346.928 250.721 347.018 250.783 347.111 250.842C347.271 250.932 347.445 251 347.633 251.047C347.824 251.094 348.033 251.117 348.26 251.117C348.658 251.117 349.012 251.035 349.32 250.871C349.629 250.707 349.889 250.48 350.1 250.191C350.311 249.906 350.469 249.566 350.574 249.172C350.684 248.777 350.738 248.352 350.738 247.895V247.771C350.738 247.295 350.684 246.859 350.574 246.465C350.469 246.066 350.311 245.725 350.1 245.439C349.889 245.154 349.627 244.934 349.314 244.777C349.006 244.621 348.648 244.543 348.242 244.543C348.035 244.543 347.84 244.566 347.656 244.613C347.473 244.656 347.305 244.719 347.152 244.801C347.035 244.863 346.926 244.938 346.824 245.023C346.723 245.109 346.629 245.205 346.543 245.311L346.49 244.66H345.201V253.438ZM349.338 247.771V247.895C349.338 248.176 349.311 248.443 349.256 248.697C349.201 248.947 349.113 249.17 348.992 249.365C348.875 249.557 348.723 249.709 348.535 249.822C348.352 249.932 348.129 249.986 347.867 249.986C347.707 249.986 347.561 249.969 347.428 249.934C347.295 249.895 347.176 249.844 347.07 249.781C346.969 249.715 346.879 249.637 346.801 249.547C346.723 249.457 346.656 249.357 346.602 249.248V246.43C346.664 246.312 346.736 246.207 346.818 246.113C346.904 246.02 347.004 245.941 347.117 245.879C347.215 245.82 347.326 245.775 347.451 245.744C347.576 245.713 347.711 245.697 347.855 245.697C348.117 245.697 348.342 245.752 348.529 245.861C348.717 245.971 348.871 246.119 348.992 246.307C349.109 246.494 349.195 246.715 349.25 246.969C349.309 247.219 349.338 247.486 349.338 247.771ZM355.18 246.793L353.68 244.66H352.139L354.359 247.783L352.062 251H353.615L355.191 248.785L356.773 251H358.32L356.023 247.783L358.25 244.66H356.697L355.18 246.793ZM367.021 246.77L368.141 247.045C368.215 246.975 368.291 246.91 368.369 246.852C368.451 246.789 368.541 246.734 368.639 246.688C368.732 246.645 368.84 246.609 368.961 246.582C369.086 246.555 369.232 246.541 369.4 246.541C369.654 246.541 369.877 246.584 370.068 246.67C370.26 246.752 370.42 246.869 370.549 247.021C370.678 247.174 370.773 247.354 370.836 247.561C370.902 247.764 370.936 247.988 370.936 248.234C370.936 248.488 370.908 248.725 370.854 248.943C370.799 249.158 370.715 249.342 370.602 249.494C370.488 249.65 370.346 249.771 370.174 249.857C370.002 249.943 369.799 249.986 369.564 249.986C369.166 249.986 368.838 249.875 368.58 249.652C368.326 249.43 368.174 249.109 368.123 248.691H366.758C366.781 249.086 366.873 249.436 367.033 249.74C367.197 250.041 367.406 250.293 367.66 250.496C367.914 250.703 368.205 250.859 368.533 250.965C368.861 251.066 369.205 251.117 369.564 251.117C370.037 251.117 370.447 251.043 370.795 250.895C371.143 250.746 371.43 250.543 371.656 250.285C371.887 250.027 372.057 249.727 372.166 249.383C372.279 249.035 372.336 248.666 372.336 248.275C372.336 247.834 372.277 247.438 372.16 247.086C372.043 246.73 371.873 246.43 371.65 246.184C371.432 245.934 371.162 245.742 370.842 245.609C370.525 245.477 370.166 245.41 369.764 245.41C369.467 245.41 369.203 245.447 368.973 245.521C368.746 245.596 368.562 245.674 368.422 245.756L368.645 243.711H372.066V242.469H367.484L367.021 246.77ZM374.029 253.438H375.43V250.426C375.504 250.508 375.584 250.584 375.67 250.654C375.756 250.721 375.846 250.783 375.939 250.842C376.1 250.932 376.273 251 376.461 251.047C376.652 251.094 376.861 251.117 377.088 251.117C377.486 251.117 377.84 251.035 378.148 250.871C378.457 250.707 378.717 250.48 378.928 250.191C379.139 249.906 379.297 249.566 379.402 249.172C379.512 248.777 379.566 248.352 379.566 247.895V247.771C379.566 247.295 379.512 246.859 379.402 246.465C379.297 246.066 379.139 245.725 378.928 245.439C378.717 245.154 378.455 244.934 378.143 244.777C377.834 244.621 377.477 244.543 377.07 244.543C376.863 244.543 376.668 244.566 376.484 244.613C376.301 244.656 376.133 244.719 375.98 244.801C375.863 244.863 375.754 244.938 375.652 245.023C375.551 245.109 375.457 245.205 375.371 245.311L375.318 244.66H374.029V253.438ZM378.166 247.771V247.895C378.166 248.176 378.139 248.443 378.084 248.697C378.029 248.947 377.941 249.17 377.82 249.365C377.703 249.557 377.551 249.709 377.363 249.822C377.18 249.932 376.957 249.986 376.695 249.986C376.535 249.986 376.389 249.969 376.256 249.934C376.123 249.895 376.004 249.844 375.898 249.781C375.797 249.715 375.707 249.637 375.629 249.547C375.551 249.457 375.484 249.357 375.43 249.248V246.43C375.492 246.312 375.564 246.207 375.646 246.113C375.732 246.02 375.832 245.941 375.945 245.879C376.043 245.82 376.154 245.775 376.279 245.744C376.404 245.713 376.539 245.697 376.684 245.697C376.945 245.697 377.17 245.752 377.357 245.861C377.545 245.971 377.699 246.119 377.82 246.307C377.938 246.494 378.023 246.715 378.078 246.969C378.137 247.219 378.166 247.486 378.166 247.771ZM384.008 246.793L382.508 244.66H380.967L383.188 247.783L380.891 251H382.443L384.02 248.785L385.602 251H387.148L384.852 247.783L387.078 244.66H385.525L384.008 246.793ZM400.941 247.818V246.682H396.225V247.818H400.941ZM406.637 251V242.469H406.549L403.039 243.77V245.006L405.225 244.203V251H406.637ZM410.064 253.438H411.465V250.426C411.539 250.508 411.619 250.584 411.705 250.654C411.791 250.721 411.881 250.783 411.975 250.842C412.135 250.932 412.309 251 412.496 251.047C412.688 251.094 412.896 251.117 413.123 251.117C413.521 251.117 413.875 251.035 414.184 250.871C414.492 250.707 414.752 250.48 414.963 250.191C415.174 249.906 415.332 249.566 415.438 249.172C415.547 248.777 415.602 248.352 415.602 247.895V247.771C415.602 247.295 415.547 246.859 415.438 246.465C415.332 246.066 415.174 245.725 414.963 245.439C414.752 245.154 414.49 244.934 414.178 244.777C413.869 244.621 413.512 244.543 413.105 244.543C412.898 244.543 412.703 244.566 412.52 244.613C412.336 244.656 412.168 244.719 412.016 244.801C411.898 244.863 411.789 244.938 411.688 245.023C411.586 245.109 411.492 245.205 411.406 245.311L411.354 244.66H410.064V253.438ZM414.201 247.771V247.895C414.201 248.176 414.174 248.443 414.119 248.697C414.064 248.947 413.977 249.17 413.855 249.365C413.738 249.557 413.586 249.709 413.398 249.822C413.215 249.932 412.992 249.986 412.73 249.986C412.57 249.986 412.424 249.969 412.291 249.934C412.158 249.895 412.039 249.844 411.934 249.781C411.832 249.715 411.742 249.637 411.664 249.547C411.586 249.457 411.52 249.357 411.465 249.248V246.43C411.527 246.312 411.6 246.207 411.682 246.113C411.768 246.02 411.867 245.941 411.98 245.879C412.078 245.82 412.189 245.775 412.314 245.744C412.439 245.713 412.574 245.697 412.719 245.697C412.98 245.697 413.205 245.752 413.393 245.861C413.58 245.971 413.734 246.119 413.855 246.307C413.973 246.494 414.059 246.715 414.113 246.969C414.172 247.219 414.201 247.486 414.201 247.771ZM420.043 246.793L418.543 244.66H417.002L419.223 247.783L416.926 251H418.479L420.055 248.785L421.637 251H423.184L420.887 247.783L423.113 244.66H421.561L420.043 246.793ZM184.9 263.748V261.727C184.9 261.18 184.836 260.697 184.707 260.279C184.578 259.857 184.396 259.502 184.162 259.213C183.92 258.928 183.627 258.713 183.283 258.568C182.943 258.42 182.557 258.346 182.123 258.346C181.693 258.346 181.307 258.42 180.963 258.568C180.623 258.713 180.334 258.928 180.096 259.213C179.857 259.502 179.674 259.857 179.545 260.279C179.42 260.697 179.357 261.18 179.357 261.727V263.748C179.357 264.295 179.42 264.779 179.545 265.201C179.674 265.619 179.859 265.971 180.102 266.256C180.34 266.541 180.631 266.758 180.975 266.906C181.318 267.051 181.705 267.123 182.135 267.123C182.568 267.123 182.955 267.051 183.295 266.906C183.639 266.758 183.928 266.541 184.162 266.256C184.4 265.971 184.582 265.619 184.707 265.201C184.836 264.779 184.9 264.295 184.9 263.748ZM180.764 263.25C180.764 263.137 180.764 263.041 180.764 262.963C180.764 262.885 180.764 262.771 180.764 262.623V261.475C180.764 261.123 180.795 260.818 180.857 260.561C180.92 260.299 181.016 260.086 181.145 259.922C181.254 259.777 181.391 259.668 181.555 259.594C181.719 259.52 181.908 259.482 182.123 259.482C182.326 259.482 182.506 259.514 182.662 259.576C182.818 259.639 182.951 259.732 183.061 259.857C183.186 259.998 183.281 260.18 183.348 260.402C183.418 260.625 183.461 260.889 183.477 261.193L180.764 263.25ZM183.488 263.982C183.488 264.342 183.457 264.654 183.395 264.92C183.332 265.186 183.234 265.4 183.102 265.564C182.988 265.705 182.852 265.812 182.691 265.887C182.531 265.957 182.346 265.992 182.135 265.992C181.92 265.992 181.73 265.955 181.566 265.881C181.406 265.807 181.271 265.695 181.162 265.547C181.053 265.41 180.965 265.238 180.898 265.031C180.836 264.824 180.795 264.586 180.775 264.316L183.488 262.271C183.488 262.385 183.488 262.494 183.488 262.6C183.488 262.701 183.488 262.803 183.488 262.904V263.982ZM206.521 263.748V261.727C206.521 261.18 206.457 260.697 206.328 260.279C206.199 259.857 206.018 259.502 205.783 259.213C205.541 258.928 205.248 258.713 204.904 258.568C204.564 258.42 204.178 258.346 203.744 258.346C203.314 258.346 202.928 258.42 202.584 258.568C202.244 258.713 201.955 258.928 201.717 259.213C201.479 259.502 201.295 259.857 201.166 260.279C201.041 260.697 200.979 261.18 200.979 261.727V263.748C200.979 264.295 201.041 264.779 201.166 265.201C201.295 265.619 201.48 265.971 201.723 266.256C201.961 266.541 202.252 266.758 202.596 266.906C202.939 267.051 203.326 267.123 203.756 267.123C204.189 267.123 204.576 267.051 204.916 266.906C205.26 266.758 205.549 266.541 205.783 266.256C206.021 265.971 206.203 265.619 206.328 265.201C206.457 264.779 206.521 264.295 206.521 263.748ZM202.385 263.25C202.385 263.137 202.385 263.041 202.385 262.963C202.385 262.885 202.385 262.771 202.385 262.623V261.475C202.385 261.123 202.416 260.818 202.479 260.561C202.541 260.299 202.637 260.086 202.766 259.922C202.875 259.777 203.012 259.668 203.176 259.594C203.34 259.52 203.529 259.482 203.744 259.482C203.947 259.482 204.127 259.514 204.283 259.576C204.439 259.639 204.572 259.732 204.682 259.857C204.807 259.998 204.902 260.18 204.969 260.402C205.039 260.625 205.082 260.889 205.098 261.193L202.385 263.25ZM205.109 263.982C205.109 264.342 205.078 264.654 205.016 264.92C204.953 265.186 204.855 265.4 204.723 265.564C204.609 265.705 204.473 265.812 204.312 265.887C204.152 265.957 203.967 265.992 203.756 265.992C203.541 265.992 203.352 265.955 203.188 265.881C203.027 265.807 202.893 265.695 202.783 265.547C202.674 265.41 202.586 265.238 202.52 265.031C202.457 264.824 202.416 264.586 202.396 264.316L205.109 262.271C205.109 262.385 205.109 262.494 205.109 262.6C205.109 262.701 205.109 262.803 205.109 262.904V263.982ZM228.143 263.748V261.727C228.143 261.18 228.078 260.697 227.949 260.279C227.82 259.857 227.639 259.502 227.404 259.213C227.162 258.928 226.869 258.713 226.525 258.568C226.186 258.42 225.799 258.346 225.365 258.346C224.936 258.346 224.549 258.42 224.205 258.568C223.865 258.713 223.576 258.928 223.338 259.213C223.1 259.502 222.916 259.857 222.787 260.279C222.662 260.697 222.6 261.18 222.6 261.727V263.748C222.6 264.295 222.662 264.779 222.787 265.201C222.916 265.619 223.102 265.971 223.344 266.256C223.582 266.541 223.873 266.758 224.217 266.906C224.561 267.051 224.947 267.123 225.377 267.123C225.811 267.123 226.197 267.051 226.537 266.906C226.881 266.758 227.17 266.541 227.404 266.256C227.643 265.971 227.824 265.619 227.949 265.201C228.078 264.779 228.143 264.295 228.143 263.748ZM224.006 263.25C224.006 263.137 224.006 263.041 224.006 262.963C224.006 262.885 224.006 262.771 224.006 262.623V261.475C224.006 261.123 224.037 260.818 224.1 260.561C224.162 260.299 224.258 260.086 224.387 259.922C224.496 259.777 224.633 259.668 224.797 259.594C224.961 259.52 225.15 259.482 225.365 259.482C225.568 259.482 225.748 259.514 225.904 259.576C226.061 259.639 226.193 259.732 226.303 259.857C226.428 259.998 226.523 260.18 226.59 260.402C226.66 260.625 226.703 260.889 226.719 261.193L224.006 263.25ZM226.73 263.982C226.73 264.342 226.699 264.654 226.637 264.92C226.574 265.186 226.477 265.4 226.344 265.564C226.23 265.705 226.094 265.812 225.934 265.887C225.773 265.957 225.588 265.992 225.377 265.992C225.162 265.992 224.973 265.955 224.809 265.881C224.648 265.807 224.514 265.695 224.404 265.547C224.295 265.41 224.207 265.238 224.141 265.031C224.078 264.824 224.037 264.586 224.018 264.316L226.73 262.271C226.73 262.385 226.73 262.494 226.73 262.6C226.73 262.701 226.73 262.803 226.73 262.904V263.982ZM249.764 263.748V261.727C249.764 261.18 249.699 260.697 249.57 260.279C249.441 259.857 249.26 259.502 249.025 259.213C248.783 258.928 248.49 258.713 248.146 258.568C247.807 258.42 247.42 258.346 246.986 258.346C246.557 258.346 246.17 258.42 245.826 258.568C245.486 258.713 245.197 258.928 244.959 259.213C244.721 259.502 244.537 259.857 244.408 260.279C244.283 260.697 244.221 261.18 244.221 261.727V263.748C244.221 264.295 244.283 264.779 244.408 265.201C244.537 265.619 244.723 265.971 244.965 266.256C245.203 266.541 245.494 266.758 245.838 266.906C246.182 267.051 246.568 267.123 246.998 267.123C247.432 267.123 247.818 267.051 248.158 266.906C248.502 266.758 248.791 266.541 249.025 266.256C249.264 265.971 249.445 265.619 249.57 265.201C249.699 264.779 249.764 264.295 249.764 263.748ZM245.627 263.25C245.627 263.137 245.627 263.041 245.627 262.963C245.627 262.885 245.627 262.771 245.627 262.623V261.475C245.627 261.123 245.658 260.818 245.721 260.561C245.783 260.299 245.879 260.086 246.008 259.922C246.117 259.777 246.254 259.668 246.418 259.594C246.582 259.52 246.771 259.482 246.986 259.482C247.189 259.482 247.369 259.514 247.525 259.576C247.682 259.639 247.814 259.732 247.924 259.857C248.049 259.998 248.145 260.18 248.211 260.402C248.281 260.625 248.324 260.889 248.34 261.193L245.627 263.25ZM248.352 263.982C248.352 264.342 248.32 264.654 248.258 264.92C248.195 265.186 248.098 265.4 247.965 265.564C247.852 265.705 247.715 265.812 247.555 265.887C247.395 265.957 247.209 265.992 246.998 265.992C246.783 265.992 246.594 265.955 246.43 265.881C246.27 265.807 246.135 265.695 246.025 265.547C245.916 265.41 245.828 265.238 245.762 265.031C245.699 264.824 245.658 264.586 245.639 264.316L248.352 262.271C248.352 262.385 248.352 262.494 248.352 262.6C248.352 262.701 248.352 262.803 248.352 262.904V263.982ZM253.244 266.156C253.244 266.426 253.332 266.654 253.508 266.842C253.688 267.025 253.938 267.117 254.258 267.117C254.574 267.117 254.822 267.025 255.002 266.842C255.186 266.658 255.277 266.43 255.277 266.156C255.277 265.883 255.188 265.652 255.008 265.465C254.828 265.273 254.578 265.178 254.258 265.178C253.934 265.178 253.684 265.273 253.508 265.465C253.332 265.656 253.244 265.887 253.244 266.156ZM260.188 262.102V263.203H261.025C261.268 263.203 261.486 263.232 261.682 263.291C261.881 263.346 262.051 263.43 262.191 263.543C262.332 263.66 262.439 263.807 262.514 263.982C262.588 264.158 262.625 264.369 262.625 264.615C262.625 264.834 262.592 265.029 262.525 265.201C262.463 265.369 262.371 265.51 262.25 265.623C262.125 265.744 261.971 265.836 261.787 265.898C261.607 265.957 261.404 265.986 261.178 265.986C260.967 265.986 260.773 265.955 260.598 265.893C260.426 265.83 260.277 265.742 260.152 265.629C260.023 265.52 259.924 265.387 259.854 265.23C259.787 265.07 259.754 264.896 259.754 264.709H258.354C258.354 265.107 258.43 265.457 258.582 265.758C258.738 266.055 258.945 266.305 259.203 266.508C259.461 266.711 259.76 266.863 260.1 266.965C260.439 267.066 260.793 267.117 261.16 267.117C261.566 267.117 261.943 267.062 262.291 266.953C262.643 266.84 262.947 266.676 263.205 266.461C263.459 266.25 263.658 265.99 263.803 265.682C263.951 265.369 264.025 265.014 264.025 264.615C264.025 264.4 264 264.193 263.949 263.994C263.898 263.791 263.816 263.602 263.703 263.426C263.59 263.254 263.443 263.1 263.264 262.963C263.088 262.822 262.873 262.709 262.619 262.623C262.834 262.525 263.021 262.406 263.182 262.266C263.342 262.125 263.475 261.975 263.58 261.814C263.686 261.65 263.764 261.48 263.814 261.305C263.869 261.129 263.896 260.953 263.896 260.777C263.896 260.379 263.83 260.029 263.697 259.729C263.564 259.428 263.377 259.174 263.135 258.967C262.896 258.764 262.607 258.611 262.268 258.51C261.932 258.404 261.562 258.352 261.16 258.352C260.766 258.352 260.402 258.41 260.07 258.527C259.742 258.645 259.457 258.807 259.215 259.014C258.973 259.225 258.783 259.473 258.646 259.758C258.51 260.043 258.441 260.355 258.441 260.695H259.842C259.842 260.512 259.875 260.346 259.941 260.197C260.012 260.049 260.107 259.922 260.229 259.816C260.346 259.711 260.484 259.631 260.645 259.576C260.809 259.518 260.986 259.488 261.178 259.488C261.393 259.488 261.582 259.518 261.746 259.576C261.914 259.635 262.053 259.717 262.162 259.822C262.271 259.936 262.354 260.072 262.408 260.232C262.467 260.393 262.496 260.574 262.496 260.777C262.496 260.965 262.465 261.141 262.402 261.305C262.344 261.465 262.258 261.6 262.145 261.709C262.023 261.834 261.869 261.932 261.682 262.002C261.494 262.068 261.275 262.102 261.025 262.102H260.188ZM285.799 263.748V261.727C285.799 261.18 285.734 260.697 285.605 260.279C285.477 259.857 285.295 259.502 285.061 259.213C284.818 258.928 284.525 258.713 284.182 258.568C283.842 258.42 283.455 258.346 283.021 258.346C282.592 258.346 282.205 258.42 281.861 258.568C281.521 258.713 281.232 258.928 280.994 259.213C280.756 259.502 280.572 259.857 280.443 260.279C280.318 260.697 280.256 261.18 280.256 261.727V263.748C280.256 264.295 280.318 264.779 280.443 265.201C280.572 265.619 280.758 265.971 281 266.256C281.238 266.541 281.529 266.758 281.873 266.906C282.217 267.051 282.604 267.123 283.033 267.123C283.467 267.123 283.854 267.051 284.193 266.906C284.537 266.758 284.826 266.541 285.061 266.256C285.299 265.971 285.48 265.619 285.605 265.201C285.734 264.779 285.799 264.295 285.799 263.748ZM281.662 263.25C281.662 263.137 281.662 263.041 281.662 262.963C281.662 262.885 281.662 262.771 281.662 262.623V261.475C281.662 261.123 281.693 260.818 281.756 260.561C281.818 260.299 281.914 260.086 282.043 259.922C282.152 259.777 282.289 259.668 282.453 259.594C282.617 259.52 282.807 259.482 283.021 259.482C283.225 259.482 283.404 259.514 283.561 259.576C283.717 259.639 283.85 259.732 283.959 259.857C284.084 259.998 284.18 260.18 284.246 260.402C284.316 260.625 284.359 260.889 284.375 261.193L281.662 263.25ZM284.387 263.982C284.387 264.342 284.355 264.654 284.293 264.92C284.23 265.186 284.133 265.4 284 265.564C283.887 265.705 283.75 265.812 283.59 265.887C283.43 265.957 283.244 265.992 283.033 265.992C282.818 265.992 282.629 265.955 282.465 265.881C282.305 265.807 282.17 265.695 282.061 265.547C281.951 265.41 281.863 265.238 281.797 265.031C281.734 264.824 281.693 264.586 281.674 264.316L284.387 262.271C284.387 262.385 284.387 262.494 284.387 262.6C284.387 262.701 284.387 262.803 284.387 262.904V263.982ZM287.545 269.438H288.945V266.426C289.02 266.508 289.1 266.584 289.186 266.654C289.271 266.721 289.361 266.783 289.455 266.842C289.615 266.932 289.789 267 289.977 267.047C290.168 267.094 290.377 267.117 290.604 267.117C291.002 267.117 291.355 267.035 291.664 266.871C291.973 266.707 292.232 266.48 292.443 266.191C292.654 265.906 292.812 265.566 292.918 265.172C293.027 264.777 293.082 264.352 293.082 263.895V263.771C293.082 263.295 293.027 262.859 292.918 262.465C292.812 262.066 292.654 261.725 292.443 261.439C292.232 261.154 291.971 260.934 291.658 260.777C291.35 260.621 290.992 260.543 290.586 260.543C290.379 260.543 290.184 260.566 290 260.613C289.816 260.656 289.648 260.719 289.496 260.801C289.379 260.863 289.27 260.938 289.168 261.023C289.066 261.109 288.973 261.205 288.887 261.311L288.834 260.66H287.545V269.438ZM291.682 263.771V263.895C291.682 264.176 291.654 264.443 291.6 264.697C291.545 264.947 291.457 265.17 291.336 265.365C291.219 265.557 291.066 265.709 290.879 265.822C290.695 265.932 290.473 265.986 290.211 265.986C290.051 265.986 289.904 265.969 289.771 265.934C289.639 265.895 289.52 265.844 289.414 265.781C289.312 265.715 289.223 265.637 289.145 265.547C289.066 265.457 289 265.357 288.945 265.248V262.43C289.008 262.312 289.08 262.207 289.162 262.113C289.248 262.02 289.348 261.941 289.461 261.879C289.559 261.82 289.67 261.775 289.795 261.744C289.92 261.713 290.055 261.697 290.199 261.697C290.461 261.697 290.686 261.752 290.873 261.861C291.061 261.971 291.215 262.119 291.336 262.307C291.453 262.494 291.539 262.715 291.594 262.969C291.652 263.219 291.682 263.486 291.682 263.771ZM297.523 262.793L296.023 260.66H294.482L296.703 263.783L294.406 267H295.959L297.535 264.785L299.117 267H300.664L298.367 263.783L300.594 260.66H299.041L297.523 262.793ZM312.945 267V258.469H312.857L309.348 259.77V261.006L311.533 260.203V267H312.945ZM316.373 269.438H317.773V266.426C317.848 266.508 317.928 266.584 318.014 266.654C318.1 266.721 318.189 266.783 318.283 266.842C318.443 266.932 318.617 267 318.805 267.047C318.996 267.094 319.205 267.117 319.432 267.117C319.83 267.117 320.184 267.035 320.492 266.871C320.801 266.707 321.061 266.48 321.271 266.191C321.482 265.906 321.641 265.566 321.746 265.172C321.855 264.777 321.91 264.352 321.91 263.895V263.771C321.91 263.295 321.855 262.859 321.746 262.465C321.641 262.066 321.482 261.725 321.271 261.439C321.061 261.154 320.799 260.934 320.486 260.777C320.178 260.621 319.82 260.543 319.414 260.543C319.207 260.543 319.012 260.566 318.828 260.613C318.645 260.656 318.477 260.719 318.324 260.801C318.207 260.863 318.098 260.938 317.996 261.023C317.895 261.109 317.801 261.205 317.715 261.311L317.662 260.66H316.373V269.438ZM320.51 263.771V263.895C320.51 264.176 320.482 264.443 320.428 264.697C320.373 264.947 320.285 265.17 320.164 265.365C320.047 265.557 319.895 265.709 319.707 265.822C319.523 265.932 319.301 265.986 319.039 265.986C318.879 265.986 318.732 265.969 318.6 265.934C318.467 265.895 318.348 265.844 318.242 265.781C318.141 265.715 318.051 265.637 317.973 265.547C317.895 265.457 317.828 265.357 317.773 265.248V262.43C317.836 262.312 317.908 262.207 317.99 262.113C318.076 262.02 318.176 261.941 318.289 261.879C318.387 261.82 318.498 261.775 318.623 261.744C318.748 261.713 318.883 261.697 319.027 261.697C319.289 261.697 319.514 261.752 319.701 261.861C319.889 261.971 320.043 262.119 320.164 262.307C320.281 262.494 320.367 262.715 320.422 262.969C320.48 263.219 320.51 263.486 320.51 263.771ZM326.352 262.793L324.852 260.66H323.311L325.531 263.783L323.234 267H324.787L326.363 264.785L327.945 267H329.492L327.195 263.783L329.422 260.66H327.869L326.352 262.793ZM339.465 262.102V263.203H340.303C340.545 263.203 340.764 263.232 340.959 263.291C341.158 263.346 341.328 263.43 341.469 263.543C341.609 263.66 341.717 263.807 341.791 263.982C341.865 264.158 341.902 264.369 341.902 264.615C341.902 264.834 341.869 265.029 341.803 265.201C341.74 265.369 341.648 265.51 341.527 265.623C341.402 265.744 341.248 265.836 341.064 265.898C340.885 265.957 340.682 265.986 340.455 265.986C340.244 265.986 340.051 265.955 339.875 265.893C339.703 265.83 339.555 265.742 339.43 265.629C339.301 265.52 339.201 265.387 339.131 265.23C339.064 265.07 339.031 264.896 339.031 264.709H337.631C337.631 265.107 337.707 265.457 337.859 265.758C338.016 266.055 338.223 266.305 338.48 266.508C338.738 266.711 339.037 266.863 339.377 266.965C339.717 267.066 340.07 267.117 340.438 267.117C340.844 267.117 341.221 267.062 341.568 266.953C341.92 266.84 342.225 266.676 342.482 266.461C342.736 266.25 342.936 265.99 343.08 265.682C343.229 265.369 343.303 265.014 343.303 264.615C343.303 264.4 343.277 264.193 343.227 263.994C343.176 263.791 343.094 263.602 342.98 263.426C342.867 263.254 342.721 263.1 342.541 262.963C342.365 262.822 342.15 262.709 341.896 262.623C342.111 262.525 342.299 262.406 342.459 262.266C342.619 262.125 342.752 261.975 342.857 261.814C342.963 261.65 343.041 261.48 343.092 261.305C343.146 261.129 343.174 260.953 343.174 260.777C343.174 260.379 343.107 260.029 342.975 259.729C342.842 259.428 342.654 259.174 342.412 258.967C342.174 258.764 341.885 258.611 341.545 258.51C341.209 258.404 340.84 258.352 340.438 258.352C340.043 258.352 339.68 258.41 339.348 258.527C339.02 258.645 338.734 258.807 338.492 259.014C338.25 259.225 338.061 259.473 337.924 259.758C337.787 260.043 337.719 260.355 337.719 260.695H339.119C339.119 260.512 339.152 260.346 339.219 260.197C339.289 260.049 339.385 259.922 339.506 259.816C339.623 259.711 339.762 259.631 339.922 259.576C340.086 259.518 340.264 259.488 340.455 259.488C340.67 259.488 340.859 259.518 341.023 259.576C341.191 259.635 341.33 259.717 341.439 259.822C341.549 259.936 341.631 260.072 341.686 260.232C341.744 260.393 341.773 260.574 341.773 260.777C341.773 260.965 341.742 261.141 341.68 261.305C341.621 261.465 341.535 261.6 341.422 261.709C341.301 261.834 341.146 261.932 340.959 262.002C340.771 262.068 340.553 262.102 340.303 262.102H339.465ZM345.201 269.438H346.602V266.426C346.676 266.508 346.756 266.584 346.842 266.654C346.928 266.721 347.018 266.783 347.111 266.842C347.271 266.932 347.445 267 347.633 267.047C347.824 267.094 348.033 267.117 348.26 267.117C348.658 267.117 349.012 267.035 349.32 266.871C349.629 266.707 349.889 266.48 350.1 266.191C350.311 265.906 350.469 265.566 350.574 265.172C350.684 264.777 350.738 264.352 350.738 263.895V263.771C350.738 263.295 350.684 262.859 350.574 262.465C350.469 262.066 350.311 261.725 350.1 261.439C349.889 261.154 349.627 260.934 349.314 260.777C349.006 260.621 348.648 260.543 348.242 260.543C348.035 260.543 347.84 260.566 347.656 260.613C347.473 260.656 347.305 260.719 347.152 260.801C347.035 260.863 346.926 260.938 346.824 261.023C346.723 261.109 346.629 261.205 346.543 261.311L346.49 260.66H345.201V269.438ZM349.338 263.771V263.895C349.338 264.176 349.311 264.443 349.256 264.697C349.201 264.947 349.113 265.17 348.992 265.365C348.875 265.557 348.723 265.709 348.535 265.822C348.352 265.932 348.129 265.986 347.867 265.986C347.707 265.986 347.561 265.969 347.428 265.934C347.295 265.895 347.176 265.844 347.07 265.781C346.969 265.715 346.879 265.637 346.801 265.547C346.723 265.457 346.656 265.357 346.602 265.248V262.43C346.664 262.312 346.736 262.207 346.818 262.113C346.904 262.02 347.004 261.941 347.117 261.879C347.215 261.82 347.326 261.775 347.451 261.744C347.576 261.713 347.711 261.697 347.855 261.697C348.117 261.697 348.342 261.752 348.529 261.861C348.717 261.971 348.871 262.119 348.992 262.307C349.109 262.494 349.195 262.715 349.25 262.969C349.309 263.219 349.338 263.486 349.338 263.771ZM355.18 262.793L353.68 260.66H352.139L354.359 263.783L352.062 267H353.615L355.191 264.785L356.773 267H358.32L356.023 263.783L358.25 260.66H356.697L355.18 262.793ZM372.113 263.818V262.682H367.396V263.818H372.113ZM377.809 267V258.469H377.721L374.211 259.77V261.006L376.396 260.203V267H377.809ZM381.236 269.438H382.637V266.426C382.711 266.508 382.791 266.584 382.877 266.654C382.963 266.721 383.053 266.783 383.146 266.842C383.307 266.932 383.48 267 383.668 267.047C383.859 267.094 384.068 267.117 384.295 267.117C384.693 267.117 385.047 267.035 385.355 266.871C385.664 266.707 385.924 266.48 386.135 266.191C386.346 265.906 386.504 265.566 386.609 265.172C386.719 264.777 386.773 264.352 386.773 263.895V263.771C386.773 263.295 386.719 262.859 386.609 262.465C386.504 262.066 386.346 261.725 386.135 261.439C385.924 261.154 385.662 260.934 385.35 260.777C385.041 260.621 384.684 260.543 384.277 260.543C384.07 260.543 383.875 260.566 383.691 260.613C383.508 260.656 383.34 260.719 383.188 260.801C383.07 260.863 382.961 260.938 382.859 261.023C382.758 261.109 382.664 261.205 382.578 261.311L382.525 260.66H381.236V269.438ZM385.373 263.771V263.895C385.373 264.176 385.346 264.443 385.291 264.697C385.236 264.947 385.148 265.17 385.027 265.365C384.91 265.557 384.758 265.709 384.57 265.822C384.387 265.932 384.164 265.986 383.902 265.986C383.742 265.986 383.596 265.969 383.463 265.934C383.33 265.895 383.211 265.844 383.105 265.781C383.004 265.715 382.914 265.637 382.836 265.547C382.758 265.457 382.691 265.357 382.637 265.248V262.43C382.699 262.312 382.771 262.207 382.854 262.113C382.939 262.02 383.039 261.941 383.152 261.879C383.25 261.82 383.361 261.775 383.486 261.744C383.611 261.713 383.746 261.697 383.891 261.697C384.152 261.697 384.377 261.752 384.564 261.861C384.752 261.971 384.906 262.119 385.027 262.307C385.145 262.494 385.23 262.715 385.285 262.969C385.344 263.219 385.373 263.486 385.373 263.771ZM391.215 262.793L389.715 260.66H388.174L390.395 263.783L388.098 267H389.65L391.227 264.785L392.809 267H394.355L392.059 263.783L394.285 260.66H392.732L391.215 262.793Z" fill="#FF628C"/>
<defs>
<filter id="filter0_dd_2_72" x="42" y="69" width="102" height="102" filterUnits="userSpaceOnUse" color-interpolation-filters="sRGB">
<feFlood flood-opacity="0" result="BackgroundImageFix"/>
<feColorMatrix in="SourceAlpha" type="matrix" values="0 0 0 0 0 0 0 0 0 0 0 0 0 0 0 0 0 0 127 0" result="hardAlpha"/>
<feMorphology radius="1" operator="erode" in="SourceAlpha" result="effect1_dropShadow_2_72"/>
<feOffset dy="2"/>
<feGaussianBlur stdDeviation="2.5"/>
<feColorMatrix type="matrix" values="0 0 0 0 0.196078 0 0 0 0 0.196078 0 0 0 0 0.364706 0 0 0 0.25 0"/>
<feBlend mode="normal" in2="BackgroundImageFix" result="effect1_dropShadow_2_72"/>
<feColorMatrix in="SourceAlpha" type="matrix" values="0 0 0 0 0 0 0 0 0 0 0 0 0 0 0 0 0 0 127 0" result="hardAlpha"/>
<feMorphology radius="1" operator="erode" in="SourceAlpha" result="effect2_dropShadow_2_72"/>
<feOffset dy="1"/>
<feGaussianBlur stdDeviation="1.5"/>
<feColorMatrix type="matrix" values="0 0 0 0 0 0 0 0 0 0 0 0 0 0 0 0 0 0 0.3 0"/>
<feBlend mode="normal" in2="effect1_dropShadow_2_72" result="effect2_dropShadow_2_72"/>
<feBlend mode="normal" in="SourceGraphic" in2="effect2_dropShadow_2_72" result="shape"/>
</filter>
</defs>
</svg>
