<svg width="1440" height="900" viewBox="0 0 1440 900" fill="none" xmlns="http://www.w3.org/2000/svg">
<g clip-path="url(#clip0_3_507)">
<rect width="1440" height="900" fill="black"/>
<path d="M642.018 204.898C618.138 216.435 566.061 254.061 548.793 312.259L485.736 562.132" stroke="white" stroke-linecap="round"/>
<path d="M642.018 204.898C618.138 216.435 566.061 254.061 548.793 312.259L485.736 562.132" stroke="url(#paint0_linear_3_507)" stroke-linecap="round"/>
<path d="M651.493 202.535C627.638 212.519 574.922 246.552 554.899 302.81L479.708 544.989" stroke="white" stroke-linecap="round"/>
<path d="M651.493 202.535C627.638 212.519 574.922 246.552 554.899 302.81L479.708 544.989" stroke="url(#paint1_linear_3_507)" stroke-linecap="round"/>
<path d="M660.385 200.463C636.652 208.935 583.532 239.428 560.919 293.625L474.264 527.555" stroke="white" stroke-linecap="round"/>
<path d="M660.385 200.463C636.652 208.935 583.532 239.428 560.919 293.625L474.264 527.555" stroke="url(#paint2_linear_3_507)" stroke-linecap="round"/>
<path d="M668.686 198.642C645.168 205.648 591.872 232.669 566.838 284.697L469.411 509.872" stroke="white" stroke-linecap="round"/>
<path d="M668.686 198.642C645.168 205.648 591.872 232.669 566.838 284.697L469.411 509.872" stroke="url(#paint3_linear_3_507)" stroke-linecap="round"/>
<path d="M776.536 182.929C744.068 181.471 600.456 203.052 572.641 276.014L465.153 491.982" stroke="white" stroke-linecap="round"/>
<path d="M776.536 182.929C744.068 181.471 600.456 203.052 572.641 276.014L465.153 491.982" stroke="url(#paint4_linear_3_507)" stroke-linecap="round"/>
<path d="M779.078 182.042C753.879 185.916 605.429 203.776 578.312 267.567L461.493 473.926" stroke="white" stroke-linecap="round"/>
<path d="M779.078 182.042C753.879 185.916 605.429 203.776 578.312 267.567L461.493 473.926" stroke="url(#paint5_linear_3_507)" stroke-linecap="round"/>
<path d="M776.469 184.428C752.992 183.374 613.376 205.134 583.839 259.343L458.428 455.746" stroke="white" stroke-linecap="round"/>
<path d="M776.469 184.428C752.992 183.374 613.376 205.134 583.839 259.343L458.428 455.746" stroke="url(#paint6_linear_3_507)" stroke-linecap="round"/>
<path d="M777.58 181.975C755.742 183.702 622.178 208.821 589.21 251.331L455.956 437.482" stroke="white" stroke-linecap="round"/>
<path d="M777.58 181.975C755.742 183.702 622.178 208.821 589.21 251.331L455.956 437.482" stroke="url(#paint7_linear_3_507)" stroke-linecap="round"/>
<path d="M779.987 184.085C758.747 184.66 628.918 203.533 594.413 243.518L454.069 419.174" stroke="white" stroke-linecap="round"/>
<path d="M779.987 184.085C758.747 184.66 628.918 203.533 594.413 243.518L454.069 419.174" stroke="url(#paint8_linear_3_507)" stroke-linecap="round"/>
<path d="M780.167 180.089C759.581 179.585 635.301 198.466 599.437 235.889L452.758 400.861" stroke="white" stroke-linecap="round"/>
<path d="M780.167 180.089C759.581 179.585 635.301 198.466 599.437 235.889L452.758 400.861" stroke="url(#paint9_linear_3_507)" stroke-linecap="round"/>
<path d="M779.101 181.543C759.221 180.037 641.319 193.591 604.273 228.432L452.012 382.58" stroke="white" stroke-linecap="round"/>
<path d="M779.101 181.543C759.221 180.037 641.319 193.591 604.273 228.432L452.012 382.58" stroke="url(#paint10_linear_3_507)" stroke-linecap="round"/>
<path d="M447.345 448.945C449.944 475.338 467.312 537.193 515.99 573.464L728.812 718.79" stroke="white" stroke-linecap="round"/>
<path d="M447.345 448.945C449.944 475.338 467.312 537.193 515.99 573.464L728.812 718.79" stroke="url(#paint11_linear_3_507)" stroke-linecap="round"/>
<path d="M448.394 439.236C449.542 465.07 463.317 526.287 509.226 564.475L710.643 718.539" stroke="white" stroke-linecap="round"/>
<path d="M448.394 439.236C449.542 465.07 463.317 526.287 509.226 564.475L710.643 718.539" stroke="url(#paint12_linear_3_507)" stroke-linecap="round"/>
<path d="M449.514 430.174C449.285 455.373 459.598 515.748 502.679 555.658L692.4 717.64" stroke="white" stroke-linecap="round"/>
<path d="M449.514 430.174C449.285 455.373 459.598 515.748 502.679 555.658L692.4 717.64" stroke="url(#paint13_linear_3_507)" stroke-linecap="round"/>
<path d="M450.665 421.754C449.135 446.246 456.128 505.59 496.338 547.024L674.128 716.1" stroke="white" stroke-linecap="round"/>
<path d="M450.665 421.754C449.135 446.246 456.128 505.59 496.338 547.024L674.128 716.1" stroke="url(#paint14_linear_3_507)" stroke-linecap="round"/>
<path d="M451.805 413.965C449.055 437.686 452.881 495.82 490.188 538.584L655.867 713.93" stroke="white" stroke-linecap="round"/>
<path d="M451.805 413.965C449.055 437.686 452.881 495.82 490.188 538.584L655.867 713.93" stroke="url(#paint15_linear_3_507)" stroke-linecap="round"/>
<path d="M452.895 406.792C449.006 429.686 449.826 486.449 484.213 530.348L637.656 711.142" stroke="white" stroke-linecap="round"/>
<path d="M452.895 406.792C449.006 429.686 449.826 486.449 484.213 530.348L637.656 711.142" stroke="url(#paint16_linear_3_507)" stroke-linecap="round"/>
<path d="M453.896 400.222C448.955 422.238 446.938 477.481 478.399 522.325L619.534 707.752" stroke="white" stroke-linecap="round"/>
<path d="M453.896 400.222C448.955 422.238 446.938 477.481 478.399 522.325L619.534 707.752" stroke="url(#paint17_linear_3_507)" stroke-linecap="round"/>
<path d="M454.771 394.237C448.865 415.331 444.189 468.921 472.73 514.522L601.537 703.777" stroke="white" stroke-linecap="round"/>
<path d="M454.771 394.237C448.865 415.331 444.189 468.921 472.73 514.522L601.537 703.777" stroke="url(#paint18_linear_3_507)" stroke-linecap="round"/>
<path d="M455.486 388.816C448.704 408.953 441.549 460.771 467.188 506.944L583.701 699.237" stroke="white" stroke-linecap="round"/>
<path d="M455.486 388.816C448.704 408.953 441.549 460.771 467.188 506.944L583.701 699.237" stroke="url(#paint19_linear_3_507)" stroke-linecap="round"/>
<path d="M456.008 383.939C448.439 403.089 438.992 453.032 461.759 499.599L566.058 694.155" stroke="white" stroke-linecap="round"/>
<path d="M456.008 383.939C448.439 403.089 438.992 453.032 461.759 499.599L566.058 694.155" stroke="url(#paint20_linear_3_507)" stroke-linecap="round"/>
<path d="M456.305 379.58C448.039 397.723 436.49 445.703 456.426 492.488L548.64 688.553" stroke="white" stroke-linecap="round"/>
<path d="M456.305 379.58C448.039 397.723 436.49 445.703 456.426 492.488L548.64 688.553" stroke="url(#paint21_linear_3_507)" stroke-linecap="round"/>
<path d="M598.863 716.14C624.352 723.465 688.25 730.151 739.926 698.296L936.993 566.512" stroke="white" stroke-linecap="round"/>
<path d="M598.863 716.14C624.352 723.465 688.25 730.151 739.926 698.296L936.993 566.512" stroke="url(#paint22_linear_3_507)" stroke-linecap="round"/>
<path d="M590.226 711.582C614.661 720.049 676.639 729.839 729.075 701.266L936.455 578.5" stroke="white" stroke-linecap="round"/>
<path d="M590.226 711.582C614.661 720.049 676.639 729.839 729.075 701.266L936.455 578.5" stroke="url(#paint23_linear_3_507)" stroke-linecap="round"/>
<path d="M582.218 707.197C605.553 716.709 665.472 729.407 718.464 704.096L939.03 587.549" stroke="white" stroke-linecap="round"/>
<path d="M582.218 707.197C605.553 716.709 665.472 729.407 718.464 704.096L939.03 587.549" stroke="url(#paint24_linear_3_507)" stroke-linecap="round"/>
<path d="M574.817 703.019C597.016 713.48 654.75 728.882 708.1 706.803L930.855 603.963" stroke="white" stroke-linecap="round"/>
<path d="M574.817 703.019C597.016 713.48 654.75 728.882 708.1 706.803L930.855 603.963" stroke="url(#paint25_linear_3_507)" stroke-linecap="round"/>
<path d="M567.998 699.084C589.03 710.396 644.472 728.295 697.986 709.404L922.099 620.134" stroke="white" stroke-linecap="round"/>
<path d="M567.998 699.084C589.03 710.396 644.472 728.295 697.986 709.404L922.099 620.134" stroke="url(#paint26_linear_3_507)" stroke-linecap="round"/>
<path d="M561.734 695.425C581.577 707.488 634.635 727.675 688.126 711.917L912.786 636.031" stroke="white" stroke-linecap="round"/>
<path d="M561.734 695.425C581.577 707.488 634.635 727.675 688.126 711.917L912.786 636.031" stroke="url(#paint27_linear_3_507)" stroke-linecap="round"/>
<path d="M555.998 692.07C574.636 704.787 625.234 727.049 678.524 714.36L902.947 651.622" stroke="white" stroke-linecap="round"/>
<path d="M555.998 692.07C574.636 704.787 625.234 727.049 678.524 714.36L902.947 651.622" stroke="url(#paint28_linear_3_507)" stroke-linecap="round"/>
<path d="M550.758 689.048C568.183 702.322 616.263 726.446 669.179 716.749L892.611 666.882" stroke="white" stroke-linecap="round"/>
<path d="M550.758 689.048C568.183 702.322 616.263 726.446 669.179 716.749L892.611 666.882" stroke="url(#paint29_linear_3_507)" stroke-linecap="round"/>
<path d="M545.984 686.383C562.196 700.118 607.715 725.891 660.091 719.103L881.81 681.784" stroke="white" stroke-linecap="round"/>
<path d="M545.984 686.383C562.196 700.118 607.715 725.891 660.091 719.103L881.81 681.784" stroke="url(#paint30_linear_3_507)" stroke-linecap="round"/>
<path d="M547.622 688.671C562.628 702.774 599.579 725.412 651.26 721.438L870.575 696.305" stroke="white" stroke-linecap="round"/>
<path d="M547.622 688.671C562.628 702.774 599.579 725.412 651.26 721.438L870.575 696.305" stroke="url(#paint31_linear_3_507)" stroke-linecap="round"/>
<path d="M549.076 689.737C562.887 704.116 591.844 725.032 642.684 723.771L858.94 710.426" stroke="white" stroke-linecap="round"/>
<path d="M549.076 689.737C562.887 704.116 591.844 725.032 642.684 723.771L858.94 710.426" stroke="url(#paint32_linear_3_507)" stroke-linecap="round"/>
<path d="M902.474 666.131C918.748 645.19 948.706 588.356 938.341 528.541L883.904 276.65" stroke="white" stroke-linecap="round"/>
<path d="M902.474 666.131C918.748 645.19 948.706 588.356 938.341 528.541L883.904 276.65" stroke="url(#paint33_linear_3_507)" stroke-linecap="round"/>
<path d="M895.032 672.454C911.975 652.917 944.101 599.018 937.064 539.719L896.916 289.333" stroke="white" stroke-linecap="round"/>
<path d="M895.032 672.454C911.975 652.917 944.101 599.018 937.064 539.719L896.916 289.333" stroke="url(#paint34_linear_3_507)" stroke-linecap="round"/>
<path d="M887.984 678.259C905.489 660.131 939.548 609.224 935.748 550.622L909.535 302.538" stroke="white" stroke-linecap="round"/>
<path d="M887.984 678.259C905.489 660.131 939.548 609.224 935.748 550.622L909.535 302.538" stroke="url(#paint35_linear_3_507)" stroke-linecap="round"/>
<path d="M881.355 683.576C899.318 666.856 935.076 618.983 934.408 561.249L921.734 316.228" stroke="white" stroke-linecap="round"/>
<path d="M881.355 683.576C899.318 666.856 935.076 618.983 934.408 561.249L921.734 316.228" stroke="url(#paint36_linear_3_507)" stroke-linecap="round"/>
<path d="M875.168 688.444C893.486 673.124 930.711 628.307 933.064 571.605L933.492 330.368" stroke="white" stroke-linecap="round"/>
<path d="M875.168 688.444C893.486 673.124 930.711 628.307 933.064 571.605L933.492 330.368" stroke="url(#paint37_linear_3_507)" stroke-linecap="round"/>
<path d="M869.442 692.899C888.017 678.962 926.479 637.209 931.733 581.693L944.788 344.922" stroke="white" stroke-linecap="round"/>
<path d="M869.442 692.899C888.017 678.962 926.479 637.209 931.733 581.693L944.788 344.922" stroke="url(#paint38_linear_3_507)" stroke-linecap="round"/>
<path d="M864.195 696.978C882.929 684.402 922.404 645.704 930.431 591.515L955.606 359.851" stroke="white" stroke-linecap="round"/>
<path d="M864.195 696.978C882.929 684.402 922.404 645.704 930.431 591.515L955.606 359.851" stroke="url(#paint39_linear_3_507)" stroke-linecap="round"/>
<path d="M859.442 700.719C878.242 689.476 918.509 653.807 929.176 601.079L965.93 375.118" stroke="white" stroke-linecap="round"/>
<path d="M859.442 700.719C878.242 689.476 918.509 653.807 929.176 601.079L965.93 375.118" stroke="url(#paint40_linear_3_507)" stroke-linecap="round"/>
<path d="M855.193 704.16C873.971 694.215 914.817 661.537 927.983 610.39L975.749 390.685" stroke="white" stroke-linecap="round"/>
<path d="M855.193 704.16C873.971 694.215 914.817 661.537 927.983 610.39L975.749 390.685" stroke="url(#paint41_linear_3_507)" stroke-linecap="round"/>
<path d="M851.459 707.341C870.128 698.652 911.347 668.912 926.868 619.456L985.054 406.513" stroke="white" stroke-linecap="round"/>
<path d="M851.459 707.341C870.128 698.652 911.347 668.912 926.868 619.456L985.054 406.513" stroke="url(#paint42_linear_3_507)" stroke-linecap="round"/>
<path d="M848.244 710.299C866.726 702.822 908.12 675.951 925.846 628.285L990.494 422.767" stroke="white" stroke-linecap="round"/>
<path d="M848.244 710.299C866.726 702.822 908.12 675.951 925.846 628.285L990.494 422.767" stroke="url(#paint43_linear_3_507)" stroke-linecap="round"/>
<path d="M969.793 362.121C956.691 339.062 915.682 289.606 856.463 276.25L602.947 229.968" stroke="white" stroke-linecap="round"/>
<path d="M969.793 362.121C956.691 339.062 915.682 289.606 856.463 276.25L602.947 229.968" stroke="url(#paint44_linear_3_507)" stroke-linecap="round"/>
<path d="M972.781 371.418C961.231 348.28 923.764 297.947 866.298 281.714L619.65 222.812" stroke="white" stroke-linecap="round"/>
<path d="M972.781 371.418C961.231 348.28 923.764 297.947 866.298 281.714L619.65 222.812" stroke="url(#paint45_linear_3_507)" stroke-linecap="round"/>
<path d="M975.44 380.152C965.407 357.036 931.446 306.064 875.863 287.109L636.683 216.22" stroke="white" stroke-linecap="round"/>
<path d="M975.44 380.152C965.407 357.036 931.446 306.064 875.863 287.109L636.683 216.22" stroke="url(#paint46_linear_3_507)" stroke-linecap="round"/>
<path d="M977.81 388.313C969.253 365.313 938.745 313.935 885.165 292.42L654.003 210.2" stroke="white" stroke-linecap="round"/>
<path d="M977.81 388.313C969.253 365.313 938.745 313.935 885.165 292.42L654.003 210.2" stroke="url(#paint47_linear_3_507)" stroke-linecap="round"/>
<path d="M979.935 395.894C972.806 373.102 945.683 321.541 894.215 297.632L671.571 204.761" stroke="white" stroke-linecap="round"/>
<path d="M979.935 395.894C972.806 373.102 945.683 321.541 894.215 297.632L671.571 204.761" stroke="url(#paint48_linear_3_507)" stroke-linecap="round"/>
<path d="M981.854 402.89C976.102 380.392 952.283 328.863 903.021 302.728L689.343 199.907" stroke="white" stroke-linecap="round"/>
<path d="M981.854 402.89C976.102 380.392 952.283 328.863 903.021 302.728L689.343 199.907" stroke="url(#paint49_linear_3_507)" stroke-linecap="round"/>
<path d="M983.61 409.3C979.176 387.176 958.566 335.883 911.595 307.696L707.278 195.638" stroke="white" stroke-linecap="round"/>
<path d="M983.61 409.3C979.176 387.176 958.566 335.883 911.595 307.696L707.278 195.638" stroke="url(#paint50_linear_3_507)" stroke-linecap="round"/>
<path d="M985.243 415.124C982.065 393.45 964.558 342.586 919.946 312.522L725.337 191.956" stroke="white" stroke-linecap="round"/>
<path d="M985.243 415.124C982.065 393.45 964.558 342.586 919.946 312.522L725.337 191.956" stroke="url(#paint51_linear_3_507)" stroke-linecap="round"/>
<path d="M986.793 420.367C984.805 399.212 970.282 348.959 928.089 317.193L743.479 188.854" stroke="white" stroke-linecap="round"/>
<path d="M986.793 420.367C984.805 399.212 970.282 348.959 928.089 317.193L743.479 188.854" stroke="url(#paint52_linear_3_507)" stroke-linecap="round"/>
<path d="M988.299 425.036C987.431 404.462 975.763 354.991 936.035 321.698L761.664 186.327" stroke="white" stroke-linecap="round"/>
<path d="M988.299 425.036C987.431 404.462 975.763 354.991 936.035 321.698L761.664 186.327" stroke="url(#paint53_linear_3_507)" stroke-linecap="round"/>
<path d="M989.799 429.139C989.978 409.203 981.028 360.67 943.798 326.027L779.855 184.366" stroke="white" stroke-linecap="round"/>
<path d="M989.799 429.139C989.978 409.203 981.028 360.67 943.798 326.027L779.855 184.366" stroke="url(#paint54_linear_3_507)" stroke-linecap="round"/>
</g>
<defs>
<linearGradient id="paint0_linear_3_507" x1="508.737" y1="389.21" x2="621.213" y2="378.314" gradientUnits="userSpaceOnUse">
<stop stop-color="#FF1CF7"/>
<stop offset="0.177083" stop-color="#00F0FF"/>
</linearGradient>
<linearGradient id="paint1_linear_3_507" x1="511.682" y1="376.213" x2="621.627" y2="371.925" gradientUnits="userSpaceOnUse">
<stop stop-color="#FF1CF7"/>
<stop offset="0.177083" stop-color="#00F0FF"/>
</linearGradient>
<linearGradient id="paint2_linear_3_507" x1="514.813" y1="363.374" x2="621.849" y2="365.367" gradientUnits="userSpaceOnUse">
<stop stop-color="#FF1CF7"/>
<stop offset="0.177083" stop-color="#00F0FF"/>
</linearGradient>
<linearGradient id="paint3_linear_3_507" x1="518.116" y1="350.706" x2="621.894" y2="358.63" gradientUnits="userSpaceOnUse">
<stop stop-color="#FF1CF7"/>
<stop offset="0.177083" stop-color="#00F0FF"/>
</linearGradient>
<linearGradient id="paint4_linear_3_507" x1="543.49" y1="327.406" x2="701.085" y2="348.62" gradientUnits="userSpaceOnUse">
<stop stop-color="#FF1CF7"/>
<stop offset="0.177083" stop-color="#00F0FF"/>
</linearGradient>
<linearGradient id="paint5_linear_3_507" x1="546.82" y1="314.114" x2="696.446" y2="343.108" gradientUnits="userSpaceOnUse">
<stop stop-color="#FF1CF7"/>
<stop offset="0.177083" stop-color="#00F0FF"/>
</linearGradient>
<linearGradient id="paint6_linear_3_507" x1="549.115" y1="303.076" x2="688.241" y2="338.453" gradientUnits="userSpaceOnUse">
<stop stop-color="#FF1CF7"/>
<stop offset="0.177083" stop-color="#00F0FF"/>
</linearGradient>
<linearGradient id="paint7_linear_3_507" x1="552.826" y1="289.856" x2="682.96" y2="331.054" gradientUnits="userSpaceOnUse">
<stop stop-color="#FF1CF7"/>
<stop offset="0.177083" stop-color="#00F0FF"/>
</linearGradient>
<linearGradient id="paint8_linear_3_507" x1="556.711" y1="279.009" x2="679.42" y2="325.785" gradientUnits="userSpaceOnUse">
<stop stop-color="#FF1CF7"/>
<stop offset="0.177083" stop-color="#00F0FF"/>
</linearGradient>
<linearGradient id="paint9_linear_3_507" x1="560.867" y1="265.909" x2="673.913" y2="316.635" gradientUnits="userSpaceOnUse">
<stop stop-color="#FF1CF7"/>
<stop offset="0.177083" stop-color="#00F0FF"/>
</linearGradient>
<linearGradient id="paint10_linear_3_507" x1="564.276" y1="255.788" x2="668.495" y2="309.964" gradientUnits="userSpaceOnUse">
<stop stop-color="#FF1CF7"/>
<stop offset="0.177083" stop-color="#00F0FF"/>
</linearGradient>
<linearGradient id="paint11_linear_3_507" x1="574.418" y1="637.59" x2="602.961" y2="528.253" gradientUnits="userSpaceOnUse">
<stop stop-color="#FF1CF7"/>
<stop offset="0.177083" stop-color="#00F0FF"/>
</linearGradient>
<linearGradient id="paint12_linear_3_507" x1="563.232" y1="630.346" x2="597.106" y2="525.662" gradientUnits="userSpaceOnUse">
<stop stop-color="#FF1CF7"/>
<stop offset="0.177083" stop-color="#00F0FF"/>
</linearGradient>
<linearGradient id="paint13_linear_3_507" x1="552.259" y1="622.981" x2="591.026" y2="523.192" gradientUnits="userSpaceOnUse">
<stop stop-color="#FF1CF7"/>
<stop offset="0.177083" stop-color="#00F0FF"/>
</linearGradient>
<linearGradient id="paint14_linear_3_507" x1="541.506" y1="615.514" x2="584.718" y2="520.828" gradientUnits="userSpaceOnUse">
<stop stop-color="#FF1CF7"/>
<stop offset="0.177083" stop-color="#00F0FF"/>
</linearGradient>
<linearGradient id="paint15_linear_3_507" x1="530.975" y1="607.962" x2="578.178" y2="518.55" gradientUnits="userSpaceOnUse">
<stop stop-color="#FF1CF7"/>
<stop offset="0.177083" stop-color="#00F0FF"/>
</linearGradient>
<linearGradient id="paint16_linear_3_507" x1="520.668" y1="600.341" x2="571.402" y2="516.34" gradientUnits="userSpaceOnUse">
<stop stop-color="#FF1CF7"/>
<stop offset="0.177083" stop-color="#00F0FF"/>
</linearGradient>
<linearGradient id="paint17_linear_3_507" x1="510.587" y1="592.67" x2="564.391" y2="514.182" gradientUnits="userSpaceOnUse">
<stop stop-color="#FF1CF7"/>
<stop offset="0.177083" stop-color="#00F0FF"/>
</linearGradient>
<linearGradient id="paint18_linear_3_507" x1="500.732" y1="584.965" x2="557.145" y2="512.056" gradientUnits="userSpaceOnUse">
<stop stop-color="#FF1CF7"/>
<stop offset="0.177083" stop-color="#00F0FF"/>
</linearGradient>
<linearGradient id="paint19_linear_3_507" x1="491.1" y1="577.243" x2="549.665" y2="509.945" gradientUnits="userSpaceOnUse">
<stop stop-color="#FF1CF7"/>
<stop offset="0.177083" stop-color="#00F0FF"/>
</linearGradient>
<linearGradient id="paint20_linear_3_507" x1="481.691" y1="569.521" x2="541.954" y2="507.833" gradientUnits="userSpaceOnUse">
<stop stop-color="#FF1CF7"/>
<stop offset="0.177083" stop-color="#00F0FF"/>
</linearGradient>
<linearGradient id="paint21_linear_3_507" x1="472.499" y1="561.814" x2="534.016" y2="505.702" gradientUnits="userSpaceOnUse">
<stop stop-color="#FF1CF7"/>
<stop offset="0.177083" stop-color="#00F0FF"/>
</linearGradient>
<linearGradient id="paint22_linear_3_507" x1="811.392" y1="672.828" x2="723.187" y2="608.063" gradientUnits="userSpaceOnUse">
<stop stop-color="#FF1CF7"/>
<stop offset="0.177083" stop-color="#00F0FF"/>
</linearGradient>
<linearGradient id="paint23_linear_3_507" x1="804.475" y1="678.622" x2="721.053" y2="609.638" gradientUnits="userSpaceOnUse">
<stop stop-color="#FF1CF7"/>
<stop offset="0.177083" stop-color="#00F0FF"/>
</linearGradient>
<linearGradient id="paint24_linear_3_507" x1="799.333" y1="682.862" x2="720.896" y2="610.004" gradientUnits="userSpaceOnUse">
<stop stop-color="#FF1CF7"/>
<stop offset="0.177083" stop-color="#00F0FF"/>
</linearGradient>
<linearGradient id="paint25_linear_3_507" x1="788.424" y1="690.101" x2="716.371" y2="614.994" gradientUnits="userSpaceOnUse">
<stop stop-color="#FF1CF7"/>
<stop offset="0.177083" stop-color="#00F0FF"/>
</linearGradient>
<linearGradient id="paint26_linear_3_507" x1="777.519" y1="697.101" x2="711.839" y2="620.232" gradientUnits="userSpaceOnUse">
<stop stop-color="#FF1CF7"/>
<stop offset="0.177083" stop-color="#00F0FF"/>
</linearGradient>
<linearGradient id="paint27_linear_3_507" x1="766.632" y1="703.868" x2="707.285" y2="625.714" gradientUnits="userSpaceOnUse">
<stop stop-color="#FF1CF7"/>
<stop offset="0.177083" stop-color="#00F0FF"/>
</linearGradient>
<linearGradient id="paint28_linear_3_507" x1="755.782" y1="710.406" x2="702.692" y2="631.433" gradientUnits="userSpaceOnUse">
<stop stop-color="#FF1CF7"/>
<stop offset="0.177083" stop-color="#00F0FF"/>
</linearGradient>
<linearGradient id="paint29_linear_3_507" x1="744.984" y1="716.722" x2="698.041" y2="637.383" gradientUnits="userSpaceOnUse">
<stop stop-color="#FF1CF7"/>
<stop offset="0.177083" stop-color="#00F0FF"/>
</linearGradient>
<linearGradient id="paint30_linear_3_507" x1="734.252" y1="722.824" x2="693.319" y2="643.557" gradientUnits="userSpaceOnUse">
<stop stop-color="#FF1CF7"/>
<stop offset="0.177083" stop-color="#00F0FF"/>
</linearGradient>
<linearGradient id="paint31_linear_3_507" x1="725.804" y1="729.245" x2="692.312" y2="654.061" gradientUnits="userSpaceOnUse">
<stop stop-color="#FF1CF7"/>
<stop offset="0.177083" stop-color="#00F0FF"/>
</linearGradient>
<linearGradient id="paint32_linear_3_507" x1="717.586" y1="735.165" x2="690.465" y2="663.435" gradientUnits="userSpaceOnUse">
<stop stop-color="#FF1CF7"/>
<stop offset="0.177083" stop-color="#00F0FF"/>
</linearGradient>
<linearGradient id="paint33_linear_3_507" x1="940.067" y1="441.806" x2="844.123" y2="501.506" gradientUnits="userSpaceOnUse">
<stop stop-color="#FF1CF7"/>
<stop offset="0.177083" stop-color="#00F0FF"/>
</linearGradient>
<linearGradient id="paint34_linear_3_507" x1="943.199" y1="454.76" x2="846.588" y2="507.415" gradientUnits="userSpaceOnUse">
<stop stop-color="#FF1CF7"/>
<stop offset="0.177083" stop-color="#00F0FF"/>
</linearGradient>
<linearGradient id="paint35_linear_3_507" x1="946.094" y1="467.654" x2="849.301" y2="513.39" gradientUnits="userSpaceOnUse">
<stop stop-color="#FF1CF7"/>
<stop offset="0.177083" stop-color="#00F0FF"/>
</linearGradient>
<linearGradient id="paint36_linear_3_507" x1="948.759" y1="480.471" x2="852.251" y2="519.446" gradientUnits="userSpaceOnUse">
<stop stop-color="#FF1CF7"/>
<stop offset="0.177083" stop-color="#00F0FF"/>
</linearGradient>
<linearGradient id="paint37_linear_3_507" x1="951.204" y1="493.198" x2="855.43" y2="525.599" gradientUnits="userSpaceOnUse">
<stop stop-color="#FF1CF7"/>
<stop offset="0.177083" stop-color="#00F0FF"/>
</linearGradient>
<linearGradient id="paint38_linear_3_507" x1="953.44" y1="505.819" x2="858.826" y2="531.865" gradientUnits="userSpaceOnUse">
<stop stop-color="#FF1CF7"/>
<stop offset="0.177083" stop-color="#00F0FF"/>
</linearGradient>
<linearGradient id="paint39_linear_3_507" x1="955.477" y1="518.322" x2="862.428" y2="538.256" gradientUnits="userSpaceOnUse">
<stop stop-color="#FF1CF7"/>
<stop offset="0.177083" stop-color="#00F0FF"/>
</linearGradient>
<linearGradient id="paint40_linear_3_507" x1="957.327" y1="530.695" x2="866.224" y2="544.784" gradientUnits="userSpaceOnUse">
<stop stop-color="#FF1CF7"/>
<stop offset="0.177083" stop-color="#00F0FF"/>
</linearGradient>
<linearGradient id="paint41_linear_3_507" x1="959.002" y1="542.925" x2="870.2" y2="551.462" gradientUnits="userSpaceOnUse">
<stop stop-color="#FF1CF7"/>
<stop offset="0.177083" stop-color="#00F0FF"/>
</linearGradient>
<linearGradient id="paint42_linear_3_507" x1="960.517" y1="555.004" x2="874.341" y2="558.301" gradientUnits="userSpaceOnUse">
<stop stop-color="#FF1CF7"/>
<stop offset="0.177083" stop-color="#00F0FF"/>
</linearGradient>
<linearGradient id="paint43_linear_3_507" x1="959.237" y1="567.004" x2="877.975" y2="565.431" gradientUnits="userSpaceOnUse">
<stop stop-color="#FF1CF7"/>
<stop offset="0.177083" stop-color="#00F0FF"/>
</linearGradient>
<linearGradient id="paint44_linear_3_507" x1="777.016" y1="241.407" x2="795.376" y2="352.907" gradientUnits="userSpaceOnUse">
<stop stop-color="#FF1CF7"/>
<stop offset="0.177083" stop-color="#00F0FF"/>
</linearGradient>
<linearGradient id="paint45_linear_3_507" x1="790.181" y1="243.48" x2="801.779" y2="352.895" gradientUnits="userSpaceOnUse">
<stop stop-color="#FF1CF7"/>
<stop offset="0.177083" stop-color="#00F0FF"/>
</linearGradient>
<linearGradient id="paint46_linear_3_507" x1="803.2" y1="245.749" x2="808.337" y2="352.68" gradientUnits="userSpaceOnUse">
<stop stop-color="#FF1CF7"/>
<stop offset="0.177083" stop-color="#00F0FF"/>
</linearGradient>
<linearGradient id="paint47_linear_3_507" x1="816.06" y1="248.2" x2="815.062" y2="352.276" gradientUnits="userSpaceOnUse">
<stop stop-color="#FF1CF7"/>
<stop offset="0.177083" stop-color="#00F0FF"/>
</linearGradient>
<linearGradient id="paint48_linear_3_507" x1="828.751" y1="250.82" x2="821.963" y2="351.699" gradientUnits="userSpaceOnUse">
<stop stop-color="#FF1CF7"/>
<stop offset="0.177083" stop-color="#00F0FF"/>
</linearGradient>
<linearGradient id="paint49_linear_3_507" x1="841.266" y1="253.594" x2="829.052" y2="350.964" gradientUnits="userSpaceOnUse">
<stop stop-color="#FF1CF7"/>
<stop offset="0.177083" stop-color="#00F0FF"/>
</linearGradient>
<linearGradient id="paint50_linear_3_507" x1="853.594" y1="256.506" x2="836.335" y2="350.087" gradientUnits="userSpaceOnUse">
<stop stop-color="#FF1CF7"/>
<stop offset="0.177083" stop-color="#00F0FF"/>
</linearGradient>
<linearGradient id="paint51_linear_3_507" x1="865.731" y1="259.54" x2="843.82" y2="349.084" gradientUnits="userSpaceOnUse">
<stop stop-color="#FF1CF7"/>
<stop offset="0.177083" stop-color="#00F0FF"/>
</linearGradient>
<linearGradient id="paint52_linear_3_507" x1="877.669" y1="262.681" x2="851.513" y2="347.972" gradientUnits="userSpaceOnUse">
<stop stop-color="#FF1CF7"/>
<stop offset="0.177083" stop-color="#00F0FF"/>
</linearGradient>
<linearGradient id="paint53_linear_3_507" x1="889.405" y1="265.912" x2="859.416" y2="346.768" gradientUnits="userSpaceOnUse">
<stop stop-color="#FF1CF7"/>
<stop offset="0.177083" stop-color="#00F0FF"/>
</linearGradient>
<linearGradient id="paint54_linear_3_507" x1="900.936" y1="269.218" x2="867.535" y2="345.489" gradientUnits="userSpaceOnUse">
<stop stop-color="#FF1CF7"/>
<stop offset="0.177083" stop-color="#00F0FF"/>
</linearGradient>
<clipPath id="clip0_3_507">
<rect width="1440" height="900" fill="white"/>
</clipPath>
</defs>
</svg>
