<svg width="1440" height="900" viewBox="0 0 1440 900" fill="none" xmlns="http://www.w3.org/2000/svg">
<rect width="1440" height="900" fill="black"/>
<path d="M649.778 343.772L651.572 345.927L654.287 345.793L655.573 343.398L654.394 340.853L651.059 340.687L649.778 343.772ZM649.334 340.602L648.604 342.361L647.046 340.488L649.334 340.602ZM649.996 339.007L645.634 338.791L553.037 227.512L571.564 214.977L590.832 203.612L651.671 334.973L649.996 339.007ZM590.975 203.537L664.523 328.228L668.794 329.141L671.094 325.428L632.114 186.009L611.273 194.135L590.975 203.537ZM632.268 185.957L684.861 320.832L688.931 322.419L691.797 319.122L675.686 175.256L653.811 179.934L632.268 185.957ZM675.846 175.23L706.123 316.794L709.885 319.013L713.243 316.219L720.419 171.631L698.077 172.74L675.846 175.23ZM720.581 171.631L727.757 316.219L731.115 319.013L734.877 316.794L765.154 175.23L742.923 172.74L720.581 171.631ZM765.314 175.256L749.203 319.122L752.069 322.419L756.139 320.832L808.732 185.957L787.189 179.934L765.314 175.256ZM808.886 186.009L769.906 325.428L772.206 329.141L776.477 328.228L850.025 203.537L829.727 194.135L808.886 186.009ZM850.168 203.612L789.329 334.973L791.004 339.007L795.366 338.791L887.963 227.512L869.436 214.976L850.168 203.612ZM888.093 227.609L806.97 347.51L807.975 351.761L812.316 352.247L921.565 257.263L905.288 241.917L888.093 227.609ZM921.677 257.379L822.371 362.714L822.682 367.071L826.888 368.247L949.958 292.018L936.354 274.261L921.677 257.379ZM950.05 292.151L835.133 380.192L834.741 384.543L838.705 386.378L972.409 330.878L961.829 311.168L950.05 292.151ZM972.479 331.024L844.927 399.491L843.842 403.722L847.46 406.17L988.336 372.836L981.054 351.684L972.479 331.024ZM988.381 372.992L851.498 420.111L849.749 424.114L852.927 427.11L997.326 416.806L993.532 394.761L988.381 372.992ZM997.345 416.966L854.676 441.518L852.307 445.188L854.964 448.656L999.146 461.648L998.937 439.279L997.345 416.966ZM999.139 461.81L854.379 463.158L851.453 466.401L853.519 470.249L993.749 506.202L997.132 484.09L999.139 461.81ZM993.717 506.36L850.615 484.47L847.206 487.201L848.628 491.331L981.275 549.312L988.161 528.029L993.717 506.36ZM981.218 549.464L843.481 504.902L839.678 507.051L840.419 511.355L962.048 589.864L972.259 569.96L981.218 549.464ZM961.967 590.004L833.162 523.925L829.063 525.436L829.104 529.804L936.564 626.806L949.835 608.799L961.967 590.004ZM936.462 626.932L819.925 541.047L815.637 541.88L814.977 546.198L905.485 659.182L921.472 643.537L936.462 626.932ZM905.363 659.29L804.113 555.823L799.747 555.958L798.402 560.114L869.614 686.154L887.905 673.275L905.363 659.29ZM869.477 686.24L786.135 567.871L781.804 567.304L779.81 571.191L829.882 707.022L850.002 697.244L869.477 686.24ZM829.733 707.085L766.457 576.88L762.273 575.626L759.682 579.142L787.316 721.246L808.744 714.822L829.733 707.085ZM787.159 721.285L745.589 582.615L741.661 580.706L738.539 583.761L743.02 728.458L765.201 725.555L787.159 721.285ZM742.859 728.471L724.072 584.929L720.5 582.414L716.928 584.929L698.141 728.471L720.5 729.163L742.859 728.471ZM697.98 728.458L702.461 583.761L699.339 580.706L695.411 582.615L653.841 721.285L675.799 725.555L697.98 728.458ZM653.684 721.246L681.318 579.142L678.727 575.626L674.543 576.88L611.267 707.085L632.256 714.822L653.684 721.246ZM611.118 707.022L661.19 571.191L659.196 567.304L654.865 567.871L571.523 686.24L590.999 697.244L611.118 707.022ZM571.386 686.154L642.598 560.114L641.253 555.958L636.887 555.823L535.637 659.29L553.095 673.275L571.386 686.154ZM535.515 659.182L626.023 546.198L625.363 541.88L621.075 541.047L504.538 626.932L519.527 643.537L535.515 659.182ZM504.436 626.806L611.896 529.804L611.937 525.436L607.838 523.925L479.033 590.004L491.165 608.799L504.436 626.806ZM478.952 589.864L600.581 511.355L601.322 507.051L597.519 504.902L459.782 549.464L468.741 569.961L478.952 589.864ZM459.725 549.312L592.372 491.331L593.794 487.201L590.385 484.47L447.283 506.36L452.839 528.029L459.725 549.312ZM447.251 506.202L587.481 470.249L589.547 466.401L586.621 463.158L441.861 461.81L443.868 484.089L447.251 506.202ZM441.854 461.648L586.036 448.656L588.693 445.188L586.324 441.518L443.655 416.966L442.063 439.28L441.854 461.648ZM443.674 416.806L588.073 427.11L591.251 424.114L589.502 420.111L452.619 372.992L447.468 394.76L443.674 416.806ZM452.664 372.836L593.54 406.17L597.158 403.722L596.073 399.491L468.521 331.024L459.945 351.685L452.664 372.836ZM468.591 330.878L602.295 386.378L606.259 384.543L605.867 380.192L490.95 292.151L479.17 311.168L468.591 330.878ZM491.042 292.018L614.112 368.247L618.318 367.071L618.629 362.714L519.323 257.379L504.646 274.261L491.042 292.018ZM519.435 257.263L628.684 352.247L633.025 351.761L634.03 347.51L552.907 227.609L535.712 241.918L519.435 257.263ZM570.695 213.602L567.416 215.536L570.366 213.082L573.848 211.469L570.695 213.602ZM610.636 192.639L607.09 194.022L610.395 192.073L614.09 191.04L610.636 192.639ZM653.422 178.355L649.7 179.151L653.275 177.757L657.088 177.33L653.422 178.355ZM697.946 171.119L694.144 171.308L697.897 170.506L701.729 170.696L697.946 171.119ZM743.054 171.119L739.271 170.696L743.103 170.506L746.856 171.308L743.054 171.119ZM787.578 178.355L783.912 177.33L787.725 177.757L791.3 179.151L787.578 178.355ZM830.364 192.639L826.91 191.04L830.606 192.073L833.911 194.022L830.364 192.639ZM870.305 213.602L867.152 211.469L870.634 213.082L873.584 215.536L870.305 213.602ZM906.366 240.7L903.597 238.089L906.775 240.239L909.292 243.135L906.366 240.7ZM937.613 273.232L935.299 270.211L938.091 272.843L940.111 276.105L937.613 273.232ZM963.238 310.355L961.438 307.001L963.771 310.047L965.242 313.591L963.238 310.355ZM982.575 351.107L981.336 347.509L983.151 350.89L984.035 354.624L982.575 351.107ZM995.125 394.435L994.479 390.684L995.728 394.312L996.002 398.139L995.125 394.435ZM1000.56 439.214L1000.53 435.408L1001.18 439.189L1000.83 443.011L1000.56 439.214ZM998.746 484.285L999.321 480.523L999.357 484.36L998.404 488.076L998.746 484.285ZM989.723 528.482L990.895 524.86L990.315 528.653L988.778 532.169L989.723 528.482ZM973.728 570.657L975.465 567.271L974.284 570.922L972.203 574.146L973.728 570.657ZM951.174 609.722L953.432 606.658L951.68 610.072L949.109 612.921L951.174 609.722ZM922.645 644.664L925.366 642.001L923.09 645.09L920.095 647.489L922.645 644.664ZM888.882 674.575L891.994 672.384L889.252 675.068L885.911 676.955L888.882 674.575ZM850.757 698.684L854.181 697.02L851.043 699.229L847.443 700.556L850.757 698.684ZM809.258 716.365L812.905 715.272L809.453 716.949L805.687 717.681L809.258 716.365ZM765.461 727.16L769.236 726.666L765.56 727.768L761.725 727.886L765.461 727.16ZM720.5 730.79L724.305 730.907L720.5 731.405L716.695 730.907L720.5 730.79ZM675.539 727.16L679.275 727.886L675.44 727.768L671.764 726.666L675.539 727.16ZM631.742 716.365L635.313 717.681L631.546 716.949L628.095 715.272L631.742 716.365ZM590.243 698.684L593.557 700.556L589.957 699.229L586.819 697.02L590.243 698.684ZM552.118 674.575L555.089 676.955L551.748 675.068L549.006 672.384L552.118 674.575ZM518.355 644.664L520.905 647.489L517.91 645.09L515.634 642.001L518.355 644.664ZM489.826 609.723L491.891 612.921L489.319 610.072L487.568 606.658L489.826 609.723ZM467.272 570.658L468.797 574.146L466.716 570.922L465.535 567.271L467.272 570.658ZM451.277 528.482L452.222 532.169L450.685 528.653L450.105 524.86L451.277 528.482ZM442.254 484.285L442.596 488.076L441.643 484.359L441.679 480.522L442.254 484.285ZM440.438 439.214L440.167 443.011L439.822 439.189L440.473 435.408L440.438 439.214ZM445.875 394.435L444.998 398.139L445.272 394.312L446.521 390.684L445.875 394.435ZM458.425 351.108L456.965 354.624L457.849 350.89L459.664 347.509L458.425 351.108ZM477.762 310.355L475.758 313.591L477.229 310.047L479.562 307.001L477.762 310.355ZM503.386 273.232L500.889 276.105L502.909 272.843L505.701 270.211L503.386 273.232ZM534.634 240.7L531.708 243.135L534.225 240.239L537.403 238.089L534.634 240.7ZM550.966 222.066L548.252 224.106L549.391 222.796L550.966 222.066ZM557.618 214.723L555.397 215.888L557.244 213.764L557.618 214.723ZM567.962 209.28L557.645 213.303L565.09 204.739L576.019 201.684L567.962 209.28ZM586.568 195.314L567.853 201.561L571.919 196.885L570.693 195.818L563.913 202.877L554.629 205.976L555.067 207.542L561.035 205.873L547.367 220.102L529.897 229.271L533.16 224.003L531.779 223.147L526.219 231.202L517.553 235.75L518.236 237.225L523.859 234.621L512.651 250.858L496.878 262.711L499.254 256.988L497.753 256.365L493.557 265.207L485.733 271.086L486.644 272.433L491.776 268.96L483.318 286.785L469.65 301.014L471.077 294.984L469.496 294.61L466.773 304.01L459.993 311.069L461.108 312.252L465.617 308.001L460.128 326.952L448.92 343.189L449.361 337.008L447.74 336.892L446.56 346.608L441 354.663L442.29 355.651L446.059 350.732L443.681 370.318L435.223 388.143L434.667 381.972L433.048 382.117L433.442 391.897L429.246 400.739L430.678 401.508L433.609 396.048L434.404 415.762L428.914 434.713L427.375 428.71L425.801 429.114L427.759 438.703L425.036 448.104L426.572 448.633L428.589 442.773L432.536 462.105L430.158 481.691L427.676 476.013L426.186 476.664L429.657 485.815L428.477 495.531L430.079 495.806L431.13 489.699L438.127 508.147L438.921 527.861L435.56 522.654L434.195 523.536L439.088 532.012L439.482 541.791L441.108 541.806L441.165 535.61L451.03 552.696L454.977 572.028L450.825 567.428L449.618 568.517L455.808 576.098L457.766 585.687L459.372 585.442L458.435 579.316L470.913 594.599L477.91 613.047L473.073 609.172L472.057 610.441L479.383 616.931L482.854 626.082L484.4 625.582L482.492 619.686L497.261 632.769L507.126 649.856L501.73 646.808L500.931 648.223L509.203 653.454L514.096 661.93L515.543 661.188L512.714 655.674L529.39 666.219L541.868 681.502L536.053 679.359L535.491 680.884L544.495 684.72L550.685 692.301L551.993 691.337L548.317 686.348L566.468 694.082L581.236 707.165L575.153 705.982L574.843 707.578L584.346 709.92L591.672 716.41L592.808 715.248L588.379 710.914L607.536 715.636L624.212 726.181L618.018 725.989L617.967 727.614L627.723 728.401L635.995 733.632L636.931 732.303L631.864 728.736L651.53 730.323L669.681 738.057L663.536 738.861L663.747 740.473L673.503 739.685L682.507 743.521L683.217 742.059L677.644 739.351L697.31 737.763L716.466 742.485L710.53 744.264L710.997 745.821L720.5 743.479L730.003 745.821L730.47 744.264L724.534 742.485L743.69 737.763L763.356 739.351L757.783 742.059L758.493 743.521L767.497 739.685L777.253 740.473L777.464 738.861L771.319 738.057L789.47 730.323L809.136 728.736L804.069 732.303L805.005 733.632L813.277 728.401L823.033 727.614L822.982 725.989L816.788 726.181L833.464 715.636L852.621 710.914L848.192 715.248L849.328 716.41L856.654 709.92L866.157 707.578L865.847 705.982L859.764 707.165L874.532 694.082L892.683 686.348L889.007 691.337L890.315 692.301L896.505 684.72L905.509 680.884L904.947 679.359L899.132 681.502L911.61 666.219L928.286 655.674L925.457 661.188L926.904 661.93L931.797 653.454L940.069 648.223L939.27 646.808L933.874 649.856L943.739 632.769L958.508 619.686L956.6 625.582L958.147 626.082L961.617 616.931L968.943 610.441L967.927 609.172L963.09 613.047L970.087 594.599L982.565 579.316L981.628 585.442L983.234 585.687L985.192 576.098L991.382 568.517L990.175 567.428L986.023 572.028L989.97 552.696L999.835 535.61L999.892 541.806L1001.52 541.791L1001.91 532.012L1006.81 523.536L1005.44 522.654L1002.08 527.861L1002.87 508.147L1009.87 489.699L1010.92 495.806L1012.52 495.531L1011.34 485.815L1014.81 476.664L1013.32 476.013L1010.84 481.691L1008.46 462.105L1012.41 442.773L1014.43 448.633L1015.96 448.104L1013.24 438.703L1015.2 429.114L1013.62 428.71L1012.09 434.713L1006.6 415.762L1007.39 396.048L1010.32 401.508L1011.75 400.739L1007.56 391.897L1007.95 382.117L1006.33 381.972L1005.78 388.143L997.319 370.318L994.941 350.732L998.71 355.651L1000 354.663L994.44 346.608L993.26 336.892L991.639 337.008L992.08 343.189L980.872 326.952L975.383 308.001L979.892 312.252L981.007 311.069L974.227 304.01L971.504 294.61L969.923 294.984L971.349 301.014L957.682 286.785L949.224 268.96L954.357 272.433L955.267 271.086L947.443 265.207L943.247 256.365L941.746 256.988L944.122 262.711L928.349 250.858L917.141 234.621L922.764 237.225L923.447 235.75L914.781 231.202L909.221 223.147L907.84 224.003L911.103 229.271L893.633 220.102L879.965 205.873L885.933 207.542L886.371 205.976L877.087 202.877L870.308 195.818L869.081 196.885L873.147 201.561L854.432 195.314L838.659 183.461L844.818 184.151L844.998 182.535L835.338 180.965L827.514 175.086L826.474 176.335L831.238 180.299L811.763 177.134L794.293 167.965L800.482 167.658L800.402 166.034H790.615L781.948 161.486L781.123 162.886L786.46 166.034H766.73L748.016 159.786L754.075 158.49L753.735 156.901L744.075 158.471L734.792 155.372L734.201 156.886L739.975 159.137L720.5 162.302L701.025 159.137L706.799 156.886L706.208 155.372L696.925 158.471L687.265 156.901L686.925 158.49L692.984 159.786L674.27 166.034H654.54L659.877 162.886L659.052 161.486L650.386 166.034H640.598L640.518 167.658L646.707 167.965L629.237 177.134L609.762 180.299L614.526 176.335L613.486 175.086L605.662 180.965L596.002 182.535L596.182 184.151L602.341 183.461L586.568 195.314ZM521.705 242.498L527.68 232.851L537.977 228.082L531.243 236.872L521.705 242.498ZM539.348 228.451L538.531 227.825L541.086 226.643L539.348 228.451ZM521.383 243.018L521.906 243.904L519.901 245.411L521.383 243.018ZM505.168 259.899L507.5 258.322L506.075 260.386L505.168 259.899ZM504.662 260.241L499.425 269.998L490.913 277.081L495.264 266.6L504.662 260.241ZM489.6 280.245L490.679 277.645L491.337 278.436L489.6 280.245ZM486.091 288.699L487.354 287.508L485.425 290.302L486.091 288.699ZM479.43 294.978L478.355 297.244L477.382 296.909L479.43 294.978ZM468.681 305.112L476.938 297.328L473.333 307.798L466.068 316.155L468.681 305.112ZM465.927 316.749L466.704 317.425L465.279 319.489L465.927 316.749ZM455.893 337.897L457.605 335.662L456.907 338.071L455.893 337.897ZM455.521 338.382L453.643 349.295L447.812 358.708L448.62 347.39L455.521 338.382ZM447.568 362.125L447.769 359.318L448.644 359.86L447.568 362.125ZM446.917 371.256L447.738 369.726L446.793 372.987L446.917 371.256ZM442.588 379.321L442.285 381.81L441.257 381.801L442.588 379.321ZM435.601 392.337L440.968 382.339L440.864 393.412L436.619 403.639L435.601 392.337ZM436.674 404.248L437.624 404.642L436.927 407.051L436.674 404.248ZM433.853 427.484L434.769 424.823L434.87 427.329L433.853 427.484ZM433.654 428.062L435.328 439.008L432.778 449.784L429.96 438.792L433.654 428.062ZM433.629 453.102L432.93 450.376L433.931 450.613L433.629 453.102ZM435.902 461.969L436.197 460.258L436.333 463.65L435.902 461.969ZM434.35 470.99L434.852 473.447L433.873 473.764L434.35 470.99ZM431.844 485.549L433.769 474.366L437.178 484.902L436.389 495.947L431.844 485.549ZM436.634 496.507L437.66 496.58L437.761 499.086L436.634 496.507ZM441.316 519.441L441.342 516.626L442.232 518.971L441.316 519.441ZM441.31 520.052L446.365 529.904L447.359 540.933L441.205 531.399L441.31 520.052ZM449.217 543.811L447.69 541.446L448.715 541.354L449.217 543.811ZM454.181 551.502L453.918 549.786L455.122 552.96L454.181 551.502ZM455.565 560.55L456.819 562.722L455.99 563.332L455.565 560.55ZM457.799 575.153L456.083 563.936L462.652 572.85L465.402 583.577L457.799 575.153ZM465.812 584.03L466.808 583.775L467.698 586.12L465.812 584.03ZM477.515 604.301L476.649 601.623L478.235 603.566L477.515 604.301ZM477.703 604.883L485.618 612.628L490.053 622.774L481.196 615.679L477.703 604.883ZM492.726 624.916L490.53 623.156L491.472 622.744L492.726 624.916ZM499.87 630.639L499.078 629.094L501.225 631.724L499.87 630.639ZM504.048 638.783L505.926 640.446L505.333 641.287L504.048 638.783ZM510.792 651.927L505.612 641.831L514.666 648.206L520.672 657.509L510.792 651.927ZM521.204 657.81L522.068 657.252L523.654 659.195L521.204 657.81ZM538.724 673.332L537.054 671.066L539.174 672.406L538.724 673.332ZM539.086 673.824L549.046 678.664L556.466 686.883L545.819 682.958L539.086 673.824ZM559.68 688.068L557.039 687.095L557.803 686.405L559.68 688.068ZM568.269 691.234L567.028 690.02L569.897 691.835L568.269 691.234ZM574.811 697.636L577.118 698.619L576.823 699.605L574.811 697.636ZM585.37 707.969L577.259 700.032L587.867 703.212L596.509 710.135L585.37 707.969ZM597.109 710.252L597.752 709.449L599.872 710.789L597.109 710.252ZM618.643 719.427L616.341 717.806L618.776 718.406L618.643 719.427ZM619.142 719.778L630.122 721.216L639.763 726.663L628.421 726.311L619.142 719.778ZM643.187 726.769L640.374 726.682L640.88 725.786L643.187 726.769ZM652.336 727.052L650.775 726.293L654.071 727.106L652.336 727.052ZM660.569 731.053L663.069 731.255L663.1 732.283L660.569 731.053ZM673.856 737.51L663.65 732.55L674.718 732.208L685.108 736.038L673.856 737.51ZM685.714 735.958L686.07 734.993L688.505 735.593L685.714 735.958ZM709.045 737.842L706.349 737.034L708.849 736.832L709.045 737.842ZM709.63 738.017L720.5 735.903L731.37 738.017L720.5 741.276L709.63 738.017ZM734.651 737.034L731.955 737.842L732.151 736.832L734.651 737.034ZM743.419 734.405L741.698 734.18L745.082 733.907L743.419 734.405ZM752.495 735.593L754.93 734.993L755.286 735.958L752.495 735.593ZM767.144 737.51L755.892 736.038L766.282 732.208L777.35 732.55L767.144 737.51ZM777.9 732.283L777.931 731.255L780.431 731.053L777.9 732.283ZM800.626 726.682L797.813 726.769L800.12 725.786L800.626 726.682ZM801.237 726.663L810.878 721.216L821.858 719.779L812.579 726.311L801.237 726.663ZM824.659 717.806L822.357 719.427L822.224 718.406L824.659 717.806ZM832.143 712.537L830.439 712.868L833.563 711.537L832.143 712.537ZM841.128 710.789L843.248 709.449L843.891 710.252L841.128 710.789ZM855.63 707.969L844.491 710.135L853.134 703.212L863.741 700.032L855.63 707.969ZM864.177 699.605L863.882 698.619L866.189 697.636L864.177 699.605ZM883.961 687.095L881.32 688.068L883.197 686.405L883.961 687.095ZM884.534 686.883L891.954 678.664L901.914 673.824L895.181 682.958L884.534 686.883ZM903.946 671.066L902.276 673.332L901.826 672.406L903.946 671.066ZM909.376 663.697L907.865 664.551L910.406 662.3L909.376 663.697ZM917.346 659.195L918.932 657.252L919.796 657.81L917.346 659.195ZM930.208 651.927L920.328 657.509L926.334 648.206L935.388 641.831L930.208 651.927ZM935.667 641.287L935.074 640.446L936.951 638.783L935.667 641.287ZM950.47 623.156L948.274 624.916L949.528 622.744L950.47 623.156ZM950.947 622.774L955.382 612.628L963.297 604.883L959.804 615.679L950.947 622.774ZM964.351 601.623L963.485 604.301L962.765 603.566L964.351 601.623ZM967.169 592.914L966.006 594.203L967.703 591.263L967.169 592.914ZM973.302 586.12L974.192 583.775L975.188 584.03L973.302 586.12ZM983.201 575.153L975.598 583.577L978.348 572.85L984.917 563.936L983.201 575.153ZM985.01 563.332L984.181 562.722L985.435 560.55L985.01 563.332ZM993.31 541.446L991.784 543.811L992.285 541.354L993.31 541.446ZM993.641 540.933L994.635 529.904L999.69 520.052L999.795 531.399L993.641 540.933ZM999.658 516.626L999.684 519.441L998.768 518.971L999.658 516.626ZM999.573 507.473L998.877 509.064L999.556 505.737L999.573 507.473ZM1003.24 499.086L1003.34 496.58L1004.37 496.507L1003.24 499.086ZM1009.16 485.549L1004.61 495.947L1003.82 484.902L1007.23 474.366L1009.16 485.549ZM1007.13 473.764L1006.15 473.447L1006.65 470.99L1007.13 473.764ZM1008.07 450.376L1007.37 453.102L1007.07 450.613L1008.07 450.376ZM1008.22 449.784L1005.67 439.008L1007.35 428.062L1011.04 438.792L1008.22 449.784ZM1006.23 424.823L1007.15 427.484L1006.13 427.329L1006.23 424.823ZM1003.25 416.168L1003.1 417.896L1002.69 414.527L1003.25 416.168ZM1004.07 407.051L1003.38 404.642L1004.33 404.248L1004.07 407.051ZM1005.4 392.337L1004.38 403.639L1000.14 393.412L1000.03 382.339L1005.4 392.337ZM999.743 381.801L998.715 381.81L998.412 379.321L999.743 381.801ZM993.231 359.318L993.432 362.126L992.356 359.86L993.231 359.318ZM993.188 358.708L987.357 349.294L985.479 338.382L992.38 347.39L993.188 358.708ZM983.395 335.662L985.107 337.897L984.093 338.071L983.395 335.662ZM977.829 328.396L978.228 330.085L976.773 327.018L977.829 328.396ZM975.721 319.489L974.296 317.425L975.073 316.75L975.721 319.489ZM972.319 305.112L974.932 316.155L967.667 307.798L964.062 297.328L972.319 305.112ZM963.618 296.909L962.645 297.244L961.57 294.978L963.618 296.909ZM950.321 277.645L951.4 280.245L949.663 278.436L950.321 277.645ZM950.087 277.081L941.575 269.998L936.338 260.241L945.736 266.6L950.087 277.081ZM933.5 258.322L935.832 259.899L934.925 260.386L933.5 258.322ZM925.919 253.192L926.833 254.668L924.481 252.219L925.919 253.192ZM921.099 245.411L919.094 243.904L919.617 243.018L921.099 245.411ZM913.32 232.851L919.295 242.498L909.757 236.872L903.023 228.082L913.32 232.851ZM902.469 227.825L901.652 228.451L899.914 226.643L902.469 227.825ZM883.756 213.764L885.603 215.888L883.382 214.723L883.756 213.764ZM883.355 213.303L873.038 209.28L864.981 201.684L875.91 204.739L883.355 213.303ZM861.682 200.761L864.393 201.519L863.687 202.268L861.682 200.761ZM852.866 198.297L854.201 199.407L851.195 197.829L852.866 198.297ZM845.83 192.442L843.452 191.648L843.667 190.641L845.83 192.442ZM834.474 182.992L843.197 190.251L832.369 187.935L823.197 181.73L834.474 182.992ZM822.59 181.662L822.013 182.514L819.793 181.348L822.59 181.662ZM800.388 174.249L802.812 175.679L800.337 175.277L800.388 174.249ZM799.861 173.939L788.802 173.39L778.753 168.736L790.087 168.174L799.861 173.939ZM775.332 168.906L778.143 168.766L777.711 169.7L775.332 168.906ZM766.19 169.36L767.807 169.99L764.456 169.446L766.19 169.36ZM757.662 166.034H755.154L755.039 165.012L757.662 166.034ZM743.898 160.667L754.47 164.79L743.466 166.022L732.801 163.04L743.898 160.667ZM732.203 163.168L731.926 164.159L729.451 163.757L732.203 163.168ZM708.797 163.168L711.549 163.757L709.074 164.159L708.797 163.168ZM708.199 163.04L697.534 166.022L686.53 164.79L697.102 160.667L708.199 163.04ZM683.338 166.034L685.961 165.012L685.846 166.034H683.338ZM674.81 169.36L676.544 169.446L673.193 169.99L674.81 169.36ZM665.668 168.906L663.289 169.7L662.857 168.766L665.668 168.906ZM650.913 168.174L662.247 168.736L652.199 173.39L641.139 173.939L650.913 168.174ZM640.612 174.249L640.663 175.277L638.188 175.679L640.612 174.249ZM618.41 181.662L621.207 181.348L618.987 182.514L618.41 181.662ZM617.803 181.73L608.631 187.935L597.803 190.251L606.526 182.992L617.803 181.73ZM595.17 192.442L597.333 190.641L597.548 191.648L595.17 192.442ZM588.134 198.297L589.805 197.829L586.799 199.407L588.134 198.297ZM579.318 200.761L577.313 202.268L576.607 201.519L579.318 200.761ZM632.029 180.136L628.809 181.211L630.304 180.33L632.029 180.136ZM718.803 166.034L720.5 165.671L722.197 166.034H718.803ZM812.191 181.212L808.971 180.136L810.696 180.33L812.191 181.212ZM892.748 224.106L890.033 222.066L891.609 222.796L892.748 224.106ZM955.575 290.302L953.646 287.508L954.909 288.699L955.575 290.302ZM994.207 372.987L993.262 369.726L994.083 371.256L994.207 372.987ZM1004.67 463.65L1004.8 460.258L1005.1 461.969L1004.67 463.65ZM985.878 552.96L987.082 549.786L986.82 551.502L985.878 552.96ZM939.775 631.724L941.922 629.094L941.13 630.639L939.775 631.724ZM871.102 691.835L873.972 690.02L872.731 691.234L871.102 691.835ZM786.929 727.106L790.225 726.293L788.664 727.052L786.929 727.106ZM695.918 733.907L699.302 734.18L697.581 734.405L695.918 733.907ZM607.437 711.537L610.561 712.868L608.857 712.537L607.437 711.537ZM530.594 662.3L533.135 664.551L531.624 663.697L530.594 662.3ZM473.297 591.263L474.994 594.203L473.831 592.914L473.297 591.263ZM441.444 505.737L442.123 509.064L441.427 507.473L441.444 505.737ZM438.313 414.526L437.904 417.897L437.748 416.168L438.313 414.526ZM464.227 327.018L462.772 330.085L463.171 328.396L464.227 327.018ZM516.519 252.219L514.167 254.668L515.081 253.192L516.519 252.219ZM634.74 351.568L635.268 349.339L636.633 351.357L634.74 351.568ZM634.343 353.249L637.662 352.877L639.233 355.2L638.348 357.77L635.69 358.338L633.574 356.498L634.343 353.249ZM640.24 359.905L641.359 359.815L640.976 360.736L640.015 361.005L640.24 359.905ZM632.627 353.441L632.188 355.294L630.35 353.696L632.627 353.441ZM624.998 369.47L623.074 367.429L619.858 368.329L619.621 371.66L622.005 373.136L624.537 372.149L624.998 369.47ZM618.196 368.793L618.06 370.693L615.989 369.41L618.196 368.793ZM609.553 383.017L607.62 381.535L607.825 383.817L609.553 383.017ZM604.335 387.225L606.414 386.262L606.585 388.159L604.335 387.225ZM600.165 401.688L598.019 400.536L598.588 402.755L600.165 401.688ZM595.689 406.679L597.587 405.395L598.06 407.24L595.689 406.679ZM593.893 421.623L591.59 420.83L592.508 422.929L593.893 421.623ZM590.276 427.267L591.943 425.696L592.706 427.441L590.276 427.267ZM590.901 442.306L588.5 441.893L589.743 443.818L590.901 442.306ZM588.236 448.458L589.629 446.639L590.662 448.239L588.236 448.458ZM591.265 463.201L588.829 463.179L590.364 464.879L591.265 463.201ZM589.621 469.701L590.704 467.682L591.98 469.096L589.621 469.701ZM594.976 483.768L592.568 484.136L594.356 485.568L594.976 483.768ZM594.396 490.447L595.141 488.28L596.628 489.471L594.396 490.447ZM601.938 503.472L599.62 504.222L601.615 505.349L601.938 503.472ZM602.436 510.158L602.825 507.9L604.483 508.837L602.436 510.158ZM611.97 521.805L609.803 522.917L611.953 523.71L611.97 521.805ZM613.535 528.324L613.556 526.033L615.343 526.692L613.535 528.324ZM624.814 538.291L622.853 539.736L625.102 540.174L624.814 538.291ZM627.404 544.475L627.058 542.21L628.927 542.573L627.404 544.475ZM640.136 552.503L638.432 554.244L640.722 554.315L640.136 552.503ZM643.684 558.191L642.979 556.012L644.883 556.07L643.684 558.191ZM657.539 564.074L656.137 566.066L658.408 565.768L657.539 564.074ZM661.954 569.119L660.908 567.08L662.796 566.833L661.954 569.119ZM676.573 572.703L675.508 574.894L677.703 574.236L676.573 572.703ZM681.74 576.974L680.381 575.13L682.205 574.583L681.74 576.974ZM696.744 578.167L696.045 580.5L698.105 579.499L696.744 578.167ZM702.53 581.554L700.892 579.952L702.605 579.119L702.53 581.554ZM717.531 580.324L717.215 582.739L719.088 581.421L717.531 580.324ZM723.785 582.739L721.912 581.421L723.469 580.324L723.785 582.739ZM738.395 579.119L738.47 581.554L740.108 579.952L738.395 579.119ZM744.955 580.5L742.895 579.499L744.256 578.167L744.955 580.5ZM758.795 574.583L759.26 576.974L760.619 575.13L758.795 574.583ZM765.492 574.894L763.297 574.236L764.427 572.703L765.492 574.894ZM778.204 566.833L779.046 569.119L780.092 567.08L778.204 566.833ZM784.863 566.066L782.592 565.768L783.461 564.074L784.863 566.066ZM796.117 556.07L797.316 558.191L798.021 556.012L796.117 556.07ZM802.568 554.244L800.278 554.315L800.864 552.503L802.568 554.244ZM812.073 542.573L813.596 544.475L813.942 542.21L812.073 542.573ZM818.147 539.736L815.898 540.174L816.186 538.291L818.147 539.736ZM825.657 526.692L827.465 528.324L827.444 526.033L825.657 526.692ZM831.197 522.917L829.047 523.71L829.03 521.805L831.197 522.917ZM836.517 508.837L838.564 510.158L838.175 507.9L836.517 508.837ZM841.38 504.222L839.385 505.349L839.062 503.472L841.38 504.222ZM844.372 489.471L846.604 490.447L845.859 488.28L844.372 489.471ZM848.432 484.136L846.644 485.568L846.024 483.768L848.432 484.136ZM849.02 469.096L851.379 469.701L850.296 467.682L849.02 469.096ZM852.171 463.179L850.636 464.879L849.735 463.201L852.171 463.179ZM850.338 448.239L852.764 448.458L851.371 446.639L850.338 448.239ZM852.5 441.893L851.257 443.818L850.099 442.306L852.5 441.893ZM848.294 427.441L850.724 427.267L849.057 425.696L848.294 427.441ZM849.41 420.83L848.492 422.929L847.107 421.623L849.41 420.83ZM842.94 407.24L845.311 406.679L843.413 405.395L842.94 407.24ZM842.981 400.536L842.412 402.755L840.835 401.688L842.981 400.536ZM834.415 388.159L836.665 387.225L834.586 386.262L834.415 388.159ZM833.38 381.535L833.175 383.817L831.447 383.017L833.38 381.535ZM822.94 370.693L825.011 369.41L822.804 368.793L822.94 370.693ZM820.856 364.321L821.019 366.606L819.185 366.094L820.856 364.321ZM808.812 355.294L810.65 353.696L808.373 353.441L808.812 355.294ZM805.732 349.339L806.26 351.568L804.367 351.357L805.732 349.339ZM792.396 342.361L793.954 340.488L791.666 340.602L792.396 342.361ZM788.401 336.977L789.279 339.093L787.377 339.187L788.401 336.977ZM774.118 332.228L775.356 330.13L773.115 330.609L774.118 332.228ZM769.311 327.555L770.518 329.503L768.655 329.901L769.311 327.555ZM754.451 325.159L755.336 322.889L753.202 323.722L754.451 325.159ZM748.957 321.317L750.461 323.046L748.686 323.738L748.957 321.317ZM733.906 321.336L734.415 318.954L732.442 320.118L733.906 321.336ZM727.867 318.425L729.628 319.89L727.987 320.858L727.867 318.425ZM713.013 320.858L713.133 318.425L711.372 319.89L713.013 320.858ZM706.585 318.954L708.558 320.118L707.094 321.336L706.585 318.954ZM692.314 323.738L692.043 321.317L690.539 323.046L692.314 323.738ZM685.664 322.889L687.798 323.722L686.549 325.159L685.664 322.889ZM672.345 329.901L671.689 327.555L670.482 329.503L672.345 329.901ZM665.644 330.13L667.885 330.609L666.882 332.228L665.644 330.13ZM653.623 339.187L652.599 336.977L651.721 339.093L653.623 339.187ZM656.931 348.294L656.405 349.142L655.414 349.253L655.812 348.204L656.931 348.294ZM642.175 362.089L643.621 361.685L644.812 363.445L644.27 364.454L643.203 364.87L641.599 363.476L642.175 362.089ZM627.837 373.684L627.607 374.655L626.702 375.075L626.747 373.953L627.837 373.684ZM607.98 385.537L611.011 384.133L613.237 385.839L613.211 388.557L610.87 389.938L608.28 388.863L607.98 385.537ZM615.682 389.983L616.715 389.543L616.644 390.539L615.817 391.098L615.682 389.983ZM604.253 403.882L601.782 402.556L599.017 404.427L599.846 407.662L602.575 408.308L604.664 406.569L604.253 403.882ZM593.199 424.511L595.629 422.221L598.281 423.133L599.118 425.72L597.334 427.771L594.537 427.571L593.199 424.511ZM601.913 426.29L602.753 425.546L603.001 426.512L602.394 427.304L601.913 426.29ZM595.474 443.093L592.71 442.617L590.679 445.268L592.49 448.074L595.283 447.822L596.714 445.512L595.474 443.093ZM591.521 466.161L593.1 463.219L595.904 463.245L597.517 465.433L596.475 467.943L593.758 468.64L591.521 466.161ZM600.349 465.089L600.91 464.117L601.452 464.955L601.127 465.899L600.349 465.089ZM599.562 483.066L596.79 483.49L595.703 486.648L598.31 488.736L600.879 487.612L601.505 484.967L599.562 483.066ZM603.118 506.199L603.684 502.907L606.352 502.044L608.575 503.609L608.382 506.32L606.025 507.841L603.118 506.199ZM611.152 502.386L611.377 501.286L612.156 501.91L612.146 502.908L611.152 502.386ZM616.099 519.687L613.604 520.967L613.573 524.307L616.706 525.462L618.788 523.583L618.544 520.875L616.099 519.687ZM626.797 540.503L626.292 537.202L628.549 535.538L631.153 536.319L631.828 538.952L630.075 541.141L626.797 540.503ZM633.21 534.343L633.075 533.228L634.011 533.573L634.319 534.523L633.21 534.343ZM643.381 549.187L641.42 551.191L642.448 554.369L645.786 554.472L647.165 552.031L646.076 549.54L643.381 549.187ZM660.12 565.544L658.596 562.573L660.21 560.28L662.927 560.196L664.401 562.479L663.431 565.111L660.12 565.544ZM664.253 557.67L663.772 556.656L664.769 556.686L665.361 557.49L664.253 557.67ZM678.601 568.529L677.375 571.052L679.356 573.74L682.555 572.781L683.091 570.028L681.269 568.011L678.601 568.529ZM699.658 578.744L697.271 576.408L698.077 573.722L700.627 572.782L702.749 574.481L702.662 577.284L699.658 578.744ZM701.085 569.966L700.307 569.156L701.263 568.87L702.079 569.444L701.085 569.966ZM718.133 575.723L717.769 578.504L720.5 580.427L723.231 578.504L722.867 575.723L720.5 574.386L718.133 575.723ZM741.342 578.744L738.338 577.284L738.251 574.481L740.373 572.782L742.923 573.722L743.729 576.408L741.342 578.744ZM739.915 569.966L738.921 569.444L739.737 568.87L740.693 569.156L739.915 569.966ZM757.909 570.028L758.445 572.781L761.644 573.74L763.625 571.052L762.399 568.529L759.731 568.01L757.909 570.028ZM780.88 565.544L777.569 565.111L776.599 562.479L778.073 560.196L780.79 560.28L782.404 562.573L780.88 565.544ZM776.747 557.67L775.639 557.49L776.231 556.686L777.228 556.656L776.747 557.67ZM793.835 552.031L795.214 554.472L798.552 554.369L799.58 551.191L797.619 549.187L794.924 549.54L793.835 552.031ZM793.522 546.181L793.21 547.259H792.087L792.543 546.371L793.522 546.181ZM809.172 538.952L810.925 541.141L814.203 540.503L814.708 537.202L812.451 535.538L809.847 536.319L809.172 538.952ZM827.427 524.307L824.294 525.462L822.212 523.583L822.456 520.875L824.901 519.687L827.396 520.967L827.427 524.307ZM820.109 519.255L819.044 519.61L819.195 518.624L820.063 518.133L820.109 519.255ZM832.618 506.32L834.975 507.841L837.882 506.199L837.316 502.907L834.648 502.044L832.425 503.609L832.618 506.32ZM845.297 486.648L842.69 488.736L840.121 487.612L839.495 484.967L841.438 483.066L844.21 483.49L845.297 486.648ZM836.755 484.174L835.857 484.848L835.688 483.865L836.357 483.124L836.755 484.174ZM844.525 467.943L847.242 468.64L849.479 466.161L847.9 463.219L845.096 463.245L843.483 465.433L844.525 467.943ZM850.321 445.268L848.51 448.074L845.717 447.822L844.286 445.512L845.526 443.093L848.29 442.617L850.321 445.268ZM841.435 445.626L840.798 446.55L840.326 445.671L840.725 444.757L841.435 445.626ZM843.666 427.771L846.463 427.571L847.801 424.511L845.371 422.221L842.719 423.133L841.882 425.72L843.666 427.771ZM841.983 404.427L841.154 407.662L838.425 408.308L836.336 406.569L836.747 403.882L839.218 402.556L841.983 404.427ZM833.668 407.581L833.356 408.659L832.63 407.975L832.719 406.981L833.668 407.581ZM830.13 389.938L832.72 388.863L833.02 385.537L829.989 384.133L827.763 385.839L827.789 388.557L830.13 389.938ZM821.142 368.329L821.379 371.66L818.995 373.136L816.463 372.149L816.002 369.47L817.926 367.429L821.142 368.329ZM814.253 373.953L814.298 375.075L813.393 374.655L813.163 373.684L814.253 373.953ZM805.31 358.338L807.426 356.498L806.657 353.249L803.339 352.877L801.767 355.2L802.652 357.77L805.31 358.338ZM789.941 340.687L791.222 343.772L789.428 345.927L786.713 345.793L785.427 343.398L786.606 340.853L789.941 340.687ZM785.188 348.204L785.586 349.253L784.595 349.142L784.069 348.294L785.188 348.204ZM771.761 336.225L773.185 333.809L771.427 330.97L768.161 331.669L767.406 334.37L769.059 336.527L771.761 336.225ZM751.593 324.349L753.785 326.869L752.766 329.482L750.148 330.214L748.17 328.349L748.482 325.562L751.593 324.349ZM749.465 332.984L750.175 333.853L749.199 334.062L748.432 333.424L749.465 332.984ZM732.935 325.873L733.522 323.131L730.955 320.995L728.078 322.691L728.217 325.492L730.469 327.016L732.935 325.873ZM710.045 320.995L712.922 322.691L712.783 325.492L710.531 327.016L708.065 325.873L707.478 323.131L710.045 320.995ZM710.761 329.859L711.71 330.459L710.85 330.966L709.921 330.604L710.761 329.859ZM692.83 328.349L692.518 325.562L689.407 324.349L687.215 326.869L688.234 329.482L690.852 330.214L692.83 328.349ZM669.573 330.97L672.839 331.669L673.594 334.37L671.941 336.527L669.239 336.225L667.815 333.809L669.573 330.97ZM673.059 339.152L674.149 339.42L673.494 340.173L672.498 340.124L673.059 339.152ZM631.827 376.714L630.369 375.167L629.007 375.798L628.661 377.259L630.468 378.378L631.454 377.797L631.827 376.714ZM618.209 391.442L619.452 390.601L621.139 391.893L620.945 393.022L620.065 393.755L618.102 392.94L618.209 391.442ZM608.281 406.981L608.37 407.975L607.644 408.659L607.332 407.581L608.281 406.981ZM604.771 426.874L605.685 425.682L607.694 426.374L607.867 427.506L607.264 428.48L605.144 428.328L604.771 426.874ZM600.275 444.757L600.674 445.671L600.202 446.55L599.565 445.626L600.275 444.757ZM603.246 464.737L603.734 463.318L605.859 463.337L606.382 464.356L606.118 465.471L604.06 465.999L603.246 464.737ZM604.643 483.124L605.312 483.865L605.143 484.848L604.245 484.174L604.643 483.124ZM613.788 501.135L613.802 499.634L615.824 498.98L616.643 499.781L616.746 500.922L614.96 502.074L613.788 501.135ZM620.937 518.133L621.805 518.624L621.956 519.61L620.891 519.255L620.937 518.133ZM635.315 532.322L634.853 530.893L636.563 529.632L637.593 530.133L638.052 531.182L636.724 532.841L635.315 532.322ZM647.478 546.181L648.457 546.371L648.913 547.259H647.79L647.478 546.181ZM665.609 555.086L664.718 553.878L665.942 552.14L667.077 552.289L667.845 553.139L667.11 555.133L665.609 555.086ZM681.535 564.381L682.524 564.251L683.237 564.949L682.173 565.305L681.535 564.381ZM701.553 567.086L700.325 566.222L700.935 564.186L702.06 563.967L703.057 564.531L702.991 566.655L701.553 567.086ZM719.603 570.859L720.5 570.423L721.397 570.859L720.5 571.533L719.603 570.859ZM739.447 567.086L738.009 566.655L737.943 564.531L738.94 563.967L740.065 564.186L740.675 566.222L739.447 567.086ZM757.763 564.949L758.476 564.251L759.465 564.381L758.827 565.305L757.763 564.949ZM775.391 555.086L773.89 555.133L773.155 553.139L773.923 552.289L775.058 552.14L776.282 553.878L775.391 555.086ZM791.457 544.927L789.983 545.213L788.938 543.363L789.559 542.401L790.656 542.072L792.142 543.591L791.457 544.927ZM806.681 534.523L806.989 533.573L807.925 533.228L807.79 534.343L806.681 534.523ZM817.707 517.597L816.4 518.336L814.823 516.912L815.107 515.802L816.044 515.143L817.934 516.113L817.707 517.597ZM828.854 502.908L828.844 501.91L829.623 501.286L829.848 502.386L828.854 502.908ZM833.952 483.362L832.946 484.476L830.999 483.625L830.917 482.483L831.597 481.561L833.698 481.882L833.952 483.362ZM839.873 465.899L839.548 464.955L840.09 464.117L840.651 465.089L839.873 465.899ZM838.52 445.744L837.918 447.12L835.802 446.929L835.363 445.871L835.715 444.781L837.81 444.421L838.52 445.744ZM838.606 427.304L837.999 426.512L838.247 425.546L839.087 426.29L838.606 427.304ZM830.94 408.616L830.805 410.111L828.737 410.6L827.986 409.736L827.975 408.591L829.848 407.586L830.94 408.616ZM825.183 391.098L824.356 390.539L824.285 389.543L825.318 389.983L825.183 391.098ZM811.993 375.798L812.339 377.259L810.532 378.378L809.546 377.797L809.173 376.714L810.631 375.167L811.993 375.798ZM800.984 361.005L800.024 360.736L799.641 359.815L800.76 359.905L800.984 361.005ZM783.629 350.67L784.419 351.946L783.06 353.58L781.94 353.34L781.244 352.431L782.137 350.503L783.629 350.67ZM768.502 340.124L767.506 340.173L766.851 339.42L767.941 339.152L768.502 340.124ZM748.767 335.817L749.921 336.777L749.149 338.757L748.011 338.884L747.062 338.243L747.299 336.131L748.767 335.817ZM731.079 330.604L730.15 330.966L729.29 330.459L730.239 329.859L731.079 330.604ZM710.996 332.767L712.395 333.313L712.289 335.435L711.25 335.917L710.147 335.608L709.702 333.53L710.996 332.767ZM692.568 333.424L691.801 334.062L690.825 333.853L691.535 332.984L692.568 333.424ZM674.203 341.836L675.702 341.91L676.274 343.957L675.441 344.743L674.297 344.8L673.217 342.969L674.203 341.836ZM657.371 350.67L658.863 350.503L659.756 352.431L659.06 353.34L657.94 353.58L656.581 351.946L657.371 350.67ZM613.025 408.591L611.152 407.586L610.06 408.616L610.195 410.111L612.263 410.6L613.014 409.736L613.025 408.591ZM605.285 444.781L603.19 444.421L602.48 445.744L603.082 447.12L605.198 446.929L605.637 445.871L605.285 444.781ZM609.403 481.561L607.302 481.882L607.048 483.362L608.054 484.476L610.001 483.625L610.083 482.483L609.403 481.561ZM624.956 515.143L623.066 516.113L623.293 517.597L624.6 518.336L626.177 516.912L625.893 515.802L624.956 515.143ZM650.344 542.072L648.858 543.591L649.543 544.927L651.017 545.213L652.062 543.363L651.441 542.401L650.344 542.072ZM682.952 559.576L682.023 561.487L683.097 562.537L684.585 562.342L684.991 560.256L684.097 559.54L682.952 559.576ZM719.425 565.852L719.15 567.959L720.5 568.616L721.85 567.959L721.575 565.852L720.5 565.456L719.425 565.852ZM756.009 560.256L756.415 562.342L757.903 562.537L758.977 561.487L758.048 559.576L756.903 559.54L756.009 560.256ZM802.948 531.182L804.276 532.841L805.685 532.322L806.147 530.893L804.437 529.632L803.407 530.133L802.948 531.182ZM824.254 500.922L826.04 502.074L827.212 501.135L827.198 499.634L825.176 498.98L824.357 499.781L824.254 500.922ZM834.882 465.471L836.94 465.999L837.754 464.737L837.266 463.318L835.141 463.337L834.618 464.356L834.882 465.471ZM833.736 428.48L835.856 428.328L836.229 426.874L835.315 425.682L833.306 426.374L833.133 427.506L833.736 428.48ZM820.935 393.755L822.898 392.94L822.791 391.442L821.548 390.601L819.861 391.893L820.055 393.022L820.935 393.755ZM797.797 364.87L799.401 363.476L798.825 362.089L797.379 361.685L796.188 363.445L796.73 364.454L797.797 364.87ZM766.703 344.8L767.783 342.969L766.797 341.836L765.298 341.91L764.726 343.957L765.559 344.743L766.703 344.8ZM730.853 335.608L731.298 333.53L730.004 332.767L728.605 333.313L728.711 335.435L729.75 335.917L730.853 335.608ZM693.938 338.243L693.701 336.131L692.233 335.817L691.079 336.777L691.851 338.757L692.989 338.884L693.938 338.243ZM621.815 366.094L619.981 366.606L620.144 364.321L621.815 366.094Z" stroke="white" stroke-width="160" stroke-dasharray="20 1050"/>
<path d="M649.778 343.772L651.572 345.927L654.287 345.793L655.573 343.398L654.394 340.853L651.059 340.687L649.778 343.772ZM649.334 340.602L648.604 342.361L647.046 340.488L649.334 340.602ZM649.996 339.007L645.634 338.791L553.037 227.512L571.564 214.977L590.832 203.612L651.671 334.973L649.996 339.007ZM590.975 203.537L664.523 328.228L668.794 329.141L671.094 325.428L632.114 186.009L611.273 194.135L590.975 203.537ZM632.268 185.957L684.861 320.832L688.931 322.419L691.797 319.122L675.686 175.256L653.811 179.934L632.268 185.957ZM675.846 175.23L706.123 316.794L709.885 319.013L713.243 316.219L720.419 171.631L698.077 172.74L675.846 175.23ZM720.581 171.631L727.757 316.219L731.115 319.013L734.877 316.794L765.154 175.23L742.923 172.74L720.581 171.631ZM765.314 175.256L749.203 319.122L752.069 322.419L756.139 320.832L808.732 185.957L787.189 179.934L765.314 175.256ZM808.886 186.009L769.906 325.428L772.206 329.141L776.477 328.228L850.025 203.537L829.727 194.135L808.886 186.009ZM850.168 203.612L789.329 334.973L791.004 339.007L795.366 338.791L887.963 227.512L869.436 214.976L850.168 203.612ZM888.093 227.609L806.97 347.51L807.975 351.761L812.316 352.247L921.565 257.263L905.288 241.917L888.093 227.609ZM921.677 257.379L822.371 362.714L822.682 367.071L826.888 368.247L949.958 292.018L936.354 274.261L921.677 257.379ZM950.05 292.151L835.133 380.192L834.741 384.543L838.705 386.378L972.409 330.878L961.829 311.168L950.05 292.151ZM972.479 331.024L844.927 399.491L843.842 403.722L847.46 406.17L988.336 372.836L981.054 351.684L972.479 331.024ZM988.381 372.992L851.498 420.111L849.749 424.114L852.927 427.11L997.326 416.806L993.532 394.761L988.381 372.992ZM997.345 416.966L854.676 441.518L852.307 445.188L854.964 448.656L999.146 461.648L998.937 439.279L997.345 416.966ZM999.139 461.81L854.379 463.158L851.453 466.401L853.519 470.249L993.749 506.202L997.132 484.09L999.139 461.81ZM993.717 506.36L850.615 484.47L847.206 487.201L848.628 491.331L981.275 549.312L988.161 528.029L993.717 506.36ZM981.218 549.464L843.481 504.902L839.678 507.051L840.419 511.355L962.048 589.864L972.259 569.96L981.218 549.464ZM961.967 590.004L833.162 523.925L829.063 525.436L829.104 529.804L936.564 626.806L949.835 608.799L961.967 590.004ZM936.462 626.932L819.925 541.047L815.637 541.88L814.977 546.198L905.485 659.182L921.472 643.537L936.462 626.932ZM905.363 659.29L804.113 555.823L799.747 555.958L798.402 560.114L869.614 686.154L887.905 673.275L905.363 659.29ZM869.477 686.24L786.135 567.871L781.804 567.304L779.81 571.191L829.882 707.022L850.002 697.244L869.477 686.24ZM829.733 707.085L766.457 576.88L762.273 575.626L759.682 579.142L787.316 721.246L808.744 714.822L829.733 707.085ZM787.159 721.285L745.589 582.615L741.661 580.706L738.539 583.761L743.02 728.458L765.201 725.555L787.159 721.285ZM742.859 728.471L724.072 584.929L720.5 582.414L716.928 584.929L698.141 728.471L720.5 729.163L742.859 728.471ZM697.98 728.458L702.461 583.761L699.339 580.706L695.411 582.615L653.841 721.285L675.799 725.555L697.98 728.458ZM653.684 721.246L681.318 579.142L678.727 575.626L674.543 576.88L611.267 707.085L632.256 714.822L653.684 721.246ZM611.118 707.022L661.19 571.191L659.196 567.304L654.865 567.871L571.523 686.24L590.999 697.244L611.118 707.022ZM571.386 686.154L642.598 560.114L641.253 555.958L636.887 555.823L535.637 659.29L553.095 673.275L571.386 686.154ZM535.515 659.182L626.023 546.198L625.363 541.88L621.075 541.047L504.538 626.932L519.527 643.537L535.515 659.182ZM504.436 626.806L611.896 529.804L611.937 525.436L607.838 523.925L479.033 590.004L491.165 608.799L504.436 626.806ZM478.952 589.864L600.581 511.355L601.322 507.051L597.519 504.902L459.782 549.464L468.741 569.961L478.952 589.864ZM459.725 549.312L592.372 491.331L593.794 487.201L590.385 484.47L447.283 506.36L452.839 528.029L459.725 549.312ZM447.251 506.202L587.481 470.249L589.547 466.401L586.621 463.158L441.861 461.81L443.868 484.089L447.251 506.202ZM441.854 461.648L586.036 448.656L588.693 445.188L586.324 441.518L443.655 416.966L442.063 439.28L441.854 461.648ZM443.674 416.806L588.073 427.11L591.251 424.114L589.502 420.111L452.619 372.992L447.468 394.76L443.674 416.806ZM452.664 372.836L593.54 406.17L597.158 403.722L596.073 399.491L468.521 331.024L459.945 351.685L452.664 372.836ZM468.591 330.878L602.295 386.378L606.259 384.543L605.867 380.192L490.95 292.151L479.17 311.168L468.591 330.878ZM491.042 292.018L614.112 368.247L618.318 367.071L618.629 362.714L519.323 257.379L504.646 274.261L491.042 292.018ZM519.435 257.263L628.684 352.247L633.025 351.761L634.03 347.51L552.907 227.609L535.712 241.918L519.435 257.263ZM570.695 213.602L567.416 215.536L570.366 213.082L573.848 211.469L570.695 213.602ZM610.636 192.639L607.09 194.022L610.395 192.073L614.09 191.04L610.636 192.639ZM653.422 178.355L649.7 179.151L653.275 177.757L657.088 177.33L653.422 178.355ZM697.946 171.119L694.144 171.308L697.897 170.506L701.729 170.696L697.946 171.119ZM743.054 171.119L739.271 170.696L743.103 170.506L746.856 171.308L743.054 171.119ZM787.578 178.355L783.912 177.33L787.725 177.757L791.3 179.151L787.578 178.355ZM830.364 192.639L826.91 191.04L830.606 192.073L833.911 194.022L830.364 192.639ZM870.305 213.602L867.152 211.469L870.634 213.082L873.584 215.536L870.305 213.602ZM906.366 240.7L903.597 238.089L906.775 240.239L909.292 243.135L906.366 240.7ZM937.613 273.232L935.299 270.211L938.091 272.843L940.111 276.105L937.613 273.232ZM963.238 310.355L961.438 307.001L963.771 310.047L965.242 313.591L963.238 310.355ZM982.575 351.107L981.336 347.509L983.151 350.89L984.035 354.624L982.575 351.107ZM995.125 394.435L994.479 390.684L995.728 394.312L996.002 398.139L995.125 394.435ZM1000.56 439.214L1000.53 435.408L1001.18 439.189L1000.83 443.011L1000.56 439.214ZM998.746 484.285L999.321 480.523L999.357 484.36L998.404 488.076L998.746 484.285ZM989.723 528.482L990.895 524.86L990.315 528.653L988.778 532.169L989.723 528.482ZM973.728 570.657L975.465 567.271L974.284 570.922L972.203 574.146L973.728 570.657ZM951.174 609.722L953.432 606.658L951.68 610.072L949.109 612.921L951.174 609.722ZM922.645 644.664L925.366 642.001L923.09 645.09L920.095 647.489L922.645 644.664ZM888.882 674.575L891.994 672.384L889.252 675.068L885.911 676.955L888.882 674.575ZM850.757 698.684L854.181 697.02L851.043 699.229L847.443 700.556L850.757 698.684ZM809.258 716.365L812.905 715.272L809.453 716.949L805.687 717.681L809.258 716.365ZM765.461 727.16L769.236 726.666L765.56 727.768L761.725 727.886L765.461 727.16ZM720.5 730.79L724.305 730.907L720.5 731.405L716.695 730.907L720.5 730.79ZM675.539 727.16L679.275 727.886L675.44 727.768L671.764 726.666L675.539 727.16ZM631.742 716.365L635.313 717.681L631.546 716.949L628.095 715.272L631.742 716.365ZM590.243 698.684L593.557 700.556L589.957 699.229L586.819 697.02L590.243 698.684ZM552.118 674.575L555.089 676.955L551.748 675.068L549.006 672.384L552.118 674.575ZM518.355 644.664L520.905 647.489L517.91 645.09L515.634 642.001L518.355 644.664ZM489.826 609.723L491.891 612.921L489.319 610.072L487.568 606.658L489.826 609.723ZM467.272 570.658L468.797 574.146L466.716 570.922L465.535 567.271L467.272 570.658ZM451.277 528.482L452.222 532.169L450.685 528.653L450.105 524.86L451.277 528.482ZM442.254 484.285L442.596 488.076L441.643 484.359L441.679 480.522L442.254 484.285ZM440.438 439.214L440.167 443.011L439.822 439.189L440.473 435.408L440.438 439.214ZM445.875 394.435L444.998 398.139L445.272 394.312L446.521 390.684L445.875 394.435ZM458.425 351.108L456.965 354.624L457.849 350.89L459.664 347.509L458.425 351.108ZM477.762 310.355L475.758 313.591L477.229 310.047L479.562 307.001L477.762 310.355ZM503.386 273.232L500.889 276.105L502.909 272.843L505.701 270.211L503.386 273.232ZM534.634 240.7L531.708 243.135L534.225 240.239L537.403 238.089L534.634 240.7ZM550.966 222.066L548.252 224.106L549.391 222.796L550.966 222.066ZM557.618 214.723L555.397 215.888L557.244 213.764L557.618 214.723ZM567.962 209.28L557.645 213.303L565.09 204.739L576.019 201.684L567.962 209.28ZM586.568 195.314L567.853 201.561L571.919 196.885L570.693 195.818L563.913 202.877L554.629 205.976L555.067 207.542L561.035 205.873L547.367 220.102L529.897 229.271L533.16 224.003L531.779 223.147L526.219 231.202L517.553 235.75L518.236 237.225L523.859 234.621L512.651 250.858L496.878 262.711L499.254 256.988L497.753 256.365L493.557 265.207L485.733 271.086L486.644 272.433L491.776 268.96L483.318 286.785L469.65 301.014L471.077 294.984L469.496 294.61L466.773 304.01L459.993 311.069L461.108 312.252L465.617 308.001L460.128 326.952L448.92 343.189L449.361 337.008L447.74 336.892L446.56 346.608L441 354.663L442.29 355.651L446.059 350.732L443.681 370.318L435.223 388.143L434.667 381.972L433.048 382.117L433.442 391.897L429.246 400.739L430.678 401.508L433.609 396.048L434.404 415.762L428.914 434.713L427.375 428.71L425.801 429.114L427.759 438.703L425.036 448.104L426.572 448.633L428.589 442.773L432.536 462.105L430.158 481.691L427.676 476.013L426.186 476.664L429.657 485.815L428.477 495.531L430.079 495.806L431.13 489.699L438.127 508.147L438.921 527.861L435.56 522.654L434.195 523.536L439.088 532.012L439.482 541.791L441.108 541.806L441.165 535.61L451.03 552.696L454.977 572.028L450.825 567.428L449.618 568.517L455.808 576.098L457.766 585.687L459.372 585.442L458.435 579.316L470.913 594.599L477.91 613.047L473.073 609.172L472.057 610.441L479.383 616.931L482.854 626.082L484.4 625.582L482.492 619.686L497.261 632.769L507.126 649.856L501.73 646.808L500.931 648.223L509.203 653.454L514.096 661.93L515.543 661.188L512.714 655.674L529.39 666.219L541.868 681.502L536.053 679.359L535.491 680.884L544.495 684.72L550.685 692.301L551.993 691.337L548.317 686.348L566.468 694.082L581.236 707.165L575.153 705.982L574.843 707.578L584.346 709.92L591.672 716.41L592.808 715.248L588.379 710.914L607.536 715.636L624.212 726.181L618.018 725.989L617.967 727.614L627.723 728.401L635.995 733.632L636.931 732.303L631.864 728.736L651.53 730.323L669.681 738.057L663.536 738.861L663.747 740.473L673.503 739.685L682.507 743.521L683.217 742.059L677.644 739.351L697.31 737.763L716.466 742.485L710.53 744.264L710.997 745.821L720.5 743.479L730.003 745.821L730.47 744.264L724.534 742.485L743.69 737.763L763.356 739.351L757.783 742.059L758.493 743.521L767.497 739.685L777.253 740.473L777.464 738.861L771.319 738.057L789.47 730.323L809.136 728.736L804.069 732.303L805.005 733.632L813.277 728.401L823.033 727.614L822.982 725.989L816.788 726.181L833.464 715.636L852.621 710.914L848.192 715.248L849.328 716.41L856.654 709.92L866.157 707.578L865.847 705.982L859.764 707.165L874.532 694.082L892.683 686.348L889.007 691.337L890.315 692.301L896.505 684.72L905.509 680.884L904.947 679.359L899.132 681.502L911.61 666.219L928.286 655.674L925.457 661.188L926.904 661.93L931.797 653.454L940.069 648.223L939.27 646.808L933.874 649.856L943.739 632.769L958.508 619.686L956.6 625.582L958.147 626.082L961.617 616.931L968.943 610.441L967.927 609.172L963.09 613.047L970.087 594.599L982.565 579.316L981.628 585.442L983.234 585.687L985.192 576.098L991.382 568.517L990.175 567.428L986.023 572.028L989.97 552.696L999.835 535.61L999.892 541.806L1001.52 541.791L1001.91 532.012L1006.81 523.536L1005.44 522.654L1002.08 527.861L1002.87 508.147L1009.87 489.699L1010.92 495.806L1012.52 495.531L1011.34 485.815L1014.81 476.664L1013.32 476.013L1010.84 481.691L1008.46 462.105L1012.41 442.773L1014.43 448.633L1015.96 448.104L1013.24 438.703L1015.2 429.114L1013.62 428.71L1012.09 434.713L1006.6 415.762L1007.39 396.048L1010.32 401.508L1011.75 400.739L1007.56 391.897L1007.95 382.117L1006.33 381.972L1005.78 388.143L997.319 370.318L994.941 350.732L998.71 355.651L1000 354.663L994.44 346.608L993.26 336.892L991.639 337.008L992.08 343.189L980.872 326.952L975.383 308.001L979.892 312.252L981.007 311.069L974.227 304.01L971.504 294.61L969.923 294.984L971.349 301.014L957.682 286.785L949.224 268.96L954.357 272.433L955.267 271.086L947.443 265.207L943.247 256.365L941.746 256.988L944.122 262.711L928.349 250.858L917.141 234.621L922.764 237.225L923.447 235.75L914.781 231.202L909.221 223.147L907.84 224.003L911.103 229.271L893.633 220.102L879.965 205.873L885.933 207.542L886.371 205.976L877.087 202.877L870.308 195.818L869.081 196.885L873.147 201.561L854.432 195.314L838.659 183.461L844.818 184.151L844.998 182.535L835.338 180.965L827.514 175.086L826.474 176.335L831.238 180.299L811.763 177.134L794.293 167.965L800.482 167.658L800.402 166.034H790.615L781.948 161.486L781.123 162.886L786.46 166.034H766.73L748.016 159.786L754.075 158.49L753.735 156.901L744.075 158.471L734.792 155.372L734.201 156.886L739.975 159.137L720.5 162.302L701.025 159.137L706.799 156.886L706.208 155.372L696.925 158.471L687.265 156.901L686.925 158.49L692.984 159.786L674.27 166.034H654.54L659.877 162.886L659.052 161.486L650.386 166.034H640.598L640.518 167.658L646.707 167.965L629.237 177.134L609.762 180.299L614.526 176.335L613.486 175.086L605.662 180.965L596.002 182.535L596.182 184.151L602.341 183.461L586.568 195.314ZM521.705 242.498L527.68 232.851L537.977 228.082L531.243 236.872L521.705 242.498ZM539.348 228.451L538.531 227.825L541.086 226.643L539.348 228.451ZM521.383 243.018L521.906 243.904L519.901 245.411L521.383 243.018ZM505.168 259.899L507.5 258.322L506.075 260.386L505.168 259.899ZM504.662 260.241L499.425 269.998L490.913 277.081L495.264 266.6L504.662 260.241ZM489.6 280.245L490.679 277.645L491.337 278.436L489.6 280.245ZM486.091 288.699L487.354 287.508L485.425 290.302L486.091 288.699ZM479.43 294.978L478.355 297.244L477.382 296.909L479.43 294.978ZM468.681 305.112L476.938 297.328L473.333 307.798L466.068 316.155L468.681 305.112ZM465.927 316.749L466.704 317.425L465.279 319.489L465.927 316.749ZM455.893 337.897L457.605 335.662L456.907 338.071L455.893 337.897ZM455.521 338.382L453.643 349.295L447.812 358.708L448.62 347.39L455.521 338.382ZM447.568 362.125L447.769 359.318L448.644 359.86L447.568 362.125ZM446.917 371.256L447.738 369.726L446.793 372.987L446.917 371.256ZM442.588 379.321L442.285 381.81L441.257 381.801L442.588 379.321ZM435.601 392.337L440.968 382.339L440.864 393.412L436.619 403.639L435.601 392.337ZM436.674 404.248L437.624 404.642L436.927 407.051L436.674 404.248ZM433.853 427.484L434.769 424.823L434.87 427.329L433.853 427.484ZM433.654 428.062L435.328 439.008L432.778 449.784L429.96 438.792L433.654 428.062ZM433.629 453.102L432.93 450.376L433.931 450.613L433.629 453.102ZM435.902 461.969L436.197 460.258L436.333 463.65L435.902 461.969ZM434.35 470.99L434.852 473.447L433.873 473.764L434.35 470.99ZM431.844 485.549L433.769 474.366L437.178 484.902L436.389 495.947L431.844 485.549ZM436.634 496.507L437.66 496.58L437.761 499.086L436.634 496.507ZM441.316 519.441L441.342 516.626L442.232 518.971L441.316 519.441ZM441.31 520.052L446.365 529.904L447.359 540.933L441.205 531.399L441.31 520.052ZM449.217 543.811L447.69 541.446L448.715 541.354L449.217 543.811ZM454.181 551.502L453.918 549.786L455.122 552.96L454.181 551.502ZM455.565 560.55L456.819 562.722L455.99 563.332L455.565 560.55ZM457.799 575.153L456.083 563.936L462.652 572.85L465.402 583.577L457.799 575.153ZM465.812 584.03L466.808 583.775L467.698 586.12L465.812 584.03ZM477.515 604.301L476.649 601.623L478.235 603.566L477.515 604.301ZM477.703 604.883L485.618 612.628L490.053 622.774L481.196 615.679L477.703 604.883ZM492.726 624.916L490.53 623.156L491.472 622.744L492.726 624.916ZM499.87 630.639L499.078 629.094L501.225 631.724L499.87 630.639ZM504.048 638.783L505.926 640.446L505.333 641.287L504.048 638.783ZM510.792 651.927L505.612 641.831L514.666 648.206L520.672 657.509L510.792 651.927ZM521.204 657.81L522.068 657.252L523.654 659.195L521.204 657.81ZM538.724 673.332L537.054 671.066L539.174 672.406L538.724 673.332ZM539.086 673.824L549.046 678.664L556.466 686.883L545.819 682.958L539.086 673.824ZM559.68 688.068L557.039 687.095L557.803 686.405L559.68 688.068ZM568.269 691.234L567.028 690.02L569.897 691.835L568.269 691.234ZM574.811 697.636L577.118 698.619L576.823 699.605L574.811 697.636ZM585.37 707.969L577.259 700.032L587.867 703.212L596.509 710.135L585.37 707.969ZM597.109 710.252L597.752 709.449L599.872 710.789L597.109 710.252ZM618.643 719.427L616.341 717.806L618.776 718.406L618.643 719.427ZM619.142 719.778L630.122 721.216L639.763 726.663L628.421 726.311L619.142 719.778ZM643.187 726.769L640.374 726.682L640.88 725.786L643.187 726.769ZM652.336 727.052L650.775 726.293L654.071 727.106L652.336 727.052ZM660.569 731.053L663.069 731.255L663.1 732.283L660.569 731.053ZM673.856 737.51L663.65 732.55L674.718 732.208L685.108 736.038L673.856 737.51ZM685.714 735.958L686.07 734.993L688.505 735.593L685.714 735.958ZM709.045 737.842L706.349 737.034L708.849 736.832L709.045 737.842ZM709.63 738.017L720.5 735.903L731.37 738.017L720.5 741.276L709.63 738.017ZM734.651 737.034L731.955 737.842L732.151 736.832L734.651 737.034ZM743.419 734.405L741.698 734.18L745.082 733.907L743.419 734.405ZM752.495 735.593L754.93 734.993L755.286 735.958L752.495 735.593ZM767.144 737.51L755.892 736.038L766.282 732.208L777.35 732.55L767.144 737.51ZM777.9 732.283L777.931 731.255L780.431 731.053L777.9 732.283ZM800.626 726.682L797.813 726.769L800.12 725.786L800.626 726.682ZM801.237 726.663L810.878 721.216L821.858 719.779L812.579 726.311L801.237 726.663ZM824.659 717.806L822.357 719.427L822.224 718.406L824.659 717.806ZM832.143 712.537L830.439 712.868L833.563 711.537L832.143 712.537ZM841.128 710.789L843.248 709.449L843.891 710.252L841.128 710.789ZM855.63 707.969L844.491 710.135L853.134 703.212L863.741 700.032L855.63 707.969ZM864.177 699.605L863.882 698.619L866.189 697.636L864.177 699.605ZM883.961 687.095L881.32 688.068L883.197 686.405L883.961 687.095ZM884.534 686.883L891.954 678.664L901.914 673.824L895.181 682.958L884.534 686.883ZM903.946 671.066L902.276 673.332L901.826 672.406L903.946 671.066ZM909.376 663.697L907.865 664.551L910.406 662.3L909.376 663.697ZM917.346 659.195L918.932 657.252L919.796 657.81L917.346 659.195ZM930.208 651.927L920.328 657.509L926.334 648.206L935.388 641.831L930.208 651.927ZM935.667 641.287L935.074 640.446L936.951 638.783L935.667 641.287ZM950.47 623.156L948.274 624.916L949.528 622.744L950.47 623.156ZM950.947 622.774L955.382 612.628L963.297 604.883L959.804 615.679L950.947 622.774ZM964.351 601.623L963.485 604.301L962.765 603.566L964.351 601.623ZM967.169 592.914L966.006 594.203L967.703 591.263L967.169 592.914ZM973.302 586.12L974.192 583.775L975.188 584.03L973.302 586.12ZM983.201 575.153L975.598 583.577L978.348 572.85L984.917 563.936L983.201 575.153ZM985.01 563.332L984.181 562.722L985.435 560.55L985.01 563.332ZM993.31 541.446L991.784 543.811L992.285 541.354L993.31 541.446ZM993.641 540.933L994.635 529.904L999.69 520.052L999.795 531.399L993.641 540.933ZM999.658 516.626L999.684 519.441L998.768 518.971L999.658 516.626ZM999.573 507.473L998.877 509.064L999.556 505.737L999.573 507.473ZM1003.24 499.086L1003.34 496.58L1004.37 496.507L1003.24 499.086ZM1009.16 485.549L1004.61 495.947L1003.82 484.902L1007.23 474.366L1009.16 485.549ZM1007.13 473.764L1006.15 473.447L1006.65 470.99L1007.13 473.764ZM1008.07 450.376L1007.37 453.102L1007.07 450.613L1008.07 450.376ZM1008.22 449.784L1005.67 439.008L1007.35 428.062L1011.04 438.792L1008.22 449.784ZM1006.23 424.823L1007.15 427.484L1006.13 427.329L1006.23 424.823ZM1003.25 416.168L1003.1 417.896L1002.69 414.527L1003.25 416.168ZM1004.07 407.051L1003.38 404.642L1004.33 404.248L1004.07 407.051ZM1005.4 392.337L1004.38 403.639L1000.14 393.412L1000.03 382.339L1005.4 392.337ZM999.743 381.801L998.715 381.81L998.412 379.321L999.743 381.801ZM993.231 359.318L993.432 362.126L992.356 359.86L993.231 359.318ZM993.188 358.708L987.357 349.294L985.479 338.382L992.38 347.39L993.188 358.708ZM983.395 335.662L985.107 337.897L984.093 338.071L983.395 335.662ZM977.829 328.396L978.228 330.085L976.773 327.018L977.829 328.396ZM975.721 319.489L974.296 317.425L975.073 316.75L975.721 319.489ZM972.319 305.112L974.932 316.155L967.667 307.798L964.062 297.328L972.319 305.112ZM963.618 296.909L962.645 297.244L961.57 294.978L963.618 296.909ZM950.321 277.645L951.4 280.245L949.663 278.436L950.321 277.645ZM950.087 277.081L941.575 269.998L936.338 260.241L945.736 266.6L950.087 277.081ZM933.5 258.322L935.832 259.899L934.925 260.386L933.5 258.322ZM925.919 253.192L926.833 254.668L924.481 252.219L925.919 253.192ZM921.099 245.411L919.094 243.904L919.617 243.018L921.099 245.411ZM913.32 232.851L919.295 242.498L909.757 236.872L903.023 228.082L913.32 232.851ZM902.469 227.825L901.652 228.451L899.914 226.643L902.469 227.825ZM883.756 213.764L885.603 215.888L883.382 214.723L883.756 213.764ZM883.355 213.303L873.038 209.28L864.981 201.684L875.91 204.739L883.355 213.303ZM861.682 200.761L864.393 201.519L863.687 202.268L861.682 200.761ZM852.866 198.297L854.201 199.407L851.195 197.829L852.866 198.297ZM845.83 192.442L843.452 191.648L843.667 190.641L845.83 192.442ZM834.474 182.992L843.197 190.251L832.369 187.935L823.197 181.73L834.474 182.992ZM822.59 181.662L822.013 182.514L819.793 181.348L822.59 181.662ZM800.388 174.249L802.812 175.679L800.337 175.277L800.388 174.249ZM799.861 173.939L788.802 173.39L778.753 168.736L790.087 168.174L799.861 173.939ZM775.332 168.906L778.143 168.766L777.711 169.7L775.332 168.906ZM766.19 169.36L767.807 169.99L764.456 169.446L766.19 169.36ZM757.662 166.034H755.154L755.039 165.012L757.662 166.034ZM743.898 160.667L754.47 164.79L743.466 166.022L732.801 163.04L743.898 160.667ZM732.203 163.168L731.926 164.159L729.451 163.757L732.203 163.168ZM708.797 163.168L711.549 163.757L709.074 164.159L708.797 163.168ZM708.199 163.04L697.534 166.022L686.53 164.79L697.102 160.667L708.199 163.04ZM683.338 166.034L685.961 165.012L685.846 166.034H683.338ZM674.81 169.36L676.544 169.446L673.193 169.99L674.81 169.36ZM665.668 168.906L663.289 169.7L662.857 168.766L665.668 168.906ZM650.913 168.174L662.247 168.736L652.199 173.39L641.139 173.939L650.913 168.174ZM640.612 174.249L640.663 175.277L638.188 175.679L640.612 174.249ZM618.41 181.662L621.207 181.348L618.987 182.514L618.41 181.662ZM617.803 181.73L608.631 187.935L597.803 190.251L606.526 182.992L617.803 181.73ZM595.17 192.442L597.333 190.641L597.548 191.648L595.17 192.442ZM588.134 198.297L589.805 197.829L586.799 199.407L588.134 198.297ZM579.318 200.761L577.313 202.268L576.607 201.519L579.318 200.761ZM632.029 180.136L628.809 181.211L630.304 180.33L632.029 180.136ZM718.803 166.034L720.5 165.671L722.197 166.034H718.803ZM812.191 181.212L808.971 180.136L810.696 180.33L812.191 181.212ZM892.748 224.106L890.033 222.066L891.609 222.796L892.748 224.106ZM955.575 290.302L953.646 287.508L954.909 288.699L955.575 290.302ZM994.207 372.987L993.262 369.726L994.083 371.256L994.207 372.987ZM1004.67 463.65L1004.8 460.258L1005.1 461.969L1004.67 463.65ZM985.878 552.96L987.082 549.786L986.82 551.502L985.878 552.96ZM939.775 631.724L941.922 629.094L941.13 630.639L939.775 631.724ZM871.102 691.835L873.972 690.02L872.731 691.234L871.102 691.835ZM786.929 727.106L790.225 726.293L788.664 727.052L786.929 727.106ZM695.918 733.907L699.302 734.18L697.581 734.405L695.918 733.907ZM607.437 711.537L610.561 712.868L608.857 712.537L607.437 711.537ZM530.594 662.3L533.135 664.551L531.624 663.697L530.594 662.3ZM473.297 591.263L474.994 594.203L473.831 592.914L473.297 591.263ZM441.444 505.737L442.123 509.064L441.427 507.473L441.444 505.737ZM438.313 414.526L437.904 417.897L437.748 416.168L438.313 414.526ZM464.227 327.018L462.772 330.085L463.171 328.396L464.227 327.018ZM516.519 252.219L514.167 254.668L515.081 253.192L516.519 252.219ZM634.74 351.568L635.268 349.339L636.633 351.357L634.74 351.568ZM634.343 353.249L637.662 352.877L639.233 355.2L638.348 357.77L635.69 358.338L633.574 356.498L634.343 353.249ZM640.24 359.905L641.359 359.815L640.976 360.736L640.015 361.005L640.24 359.905ZM632.627 353.441L632.188 355.294L630.35 353.696L632.627 353.441ZM624.998 369.47L623.074 367.429L619.858 368.329L619.621 371.66L622.005 373.136L624.537 372.149L624.998 369.47ZM618.196 368.793L618.06 370.693L615.989 369.41L618.196 368.793ZM609.553 383.017L607.62 381.535L607.825 383.817L609.553 383.017ZM604.335 387.225L606.414 386.262L606.585 388.159L604.335 387.225ZM600.165 401.688L598.019 400.536L598.588 402.755L600.165 401.688ZM595.689 406.679L597.587 405.395L598.06 407.24L595.689 406.679ZM593.893 421.623L591.59 420.83L592.508 422.929L593.893 421.623ZM590.276 427.267L591.943 425.696L592.706 427.441L590.276 427.267ZM590.901 442.306L588.5 441.893L589.743 443.818L590.901 442.306ZM588.236 448.458L589.629 446.639L590.662 448.239L588.236 448.458ZM591.265 463.201L588.829 463.179L590.364 464.879L591.265 463.201ZM589.621 469.701L590.704 467.682L591.98 469.096L589.621 469.701ZM594.976 483.768L592.568 484.136L594.356 485.568L594.976 483.768ZM594.396 490.447L595.141 488.28L596.628 489.471L594.396 490.447ZM601.938 503.472L599.62 504.222L601.615 505.349L601.938 503.472ZM602.436 510.158L602.825 507.9L604.483 508.837L602.436 510.158ZM611.97 521.805L609.803 522.917L611.953 523.71L611.97 521.805ZM613.535 528.324L613.556 526.033L615.343 526.692L613.535 528.324ZM624.814 538.291L622.853 539.736L625.102 540.174L624.814 538.291ZM627.404 544.475L627.058 542.21L628.927 542.573L627.404 544.475ZM640.136 552.503L638.432 554.244L640.722 554.315L640.136 552.503ZM643.684 558.191L642.979 556.012L644.883 556.07L643.684 558.191ZM657.539 564.074L656.137 566.066L658.408 565.768L657.539 564.074ZM661.954 569.119L660.908 567.08L662.796 566.833L661.954 569.119ZM676.573 572.703L675.508 574.894L677.703 574.236L676.573 572.703ZM681.74 576.974L680.381 575.13L682.205 574.583L681.74 576.974ZM696.744 578.167L696.045 580.5L698.105 579.499L696.744 578.167ZM702.53 581.554L700.892 579.952L702.605 579.119L702.53 581.554ZM717.531 580.324L717.215 582.739L719.088 581.421L717.531 580.324ZM723.785 582.739L721.912 581.421L723.469 580.324L723.785 582.739ZM738.395 579.119L738.47 581.554L740.108 579.952L738.395 579.119ZM744.955 580.5L742.895 579.499L744.256 578.167L744.955 580.5ZM758.795 574.583L759.26 576.974L760.619 575.13L758.795 574.583ZM765.492 574.894L763.297 574.236L764.427 572.703L765.492 574.894ZM778.204 566.833L779.046 569.119L780.092 567.08L778.204 566.833ZM784.863 566.066L782.592 565.768L783.461 564.074L784.863 566.066ZM796.117 556.07L797.316 558.191L798.021 556.012L796.117 556.07ZM802.568 554.244L800.278 554.315L800.864 552.503L802.568 554.244ZM812.073 542.573L813.596 544.475L813.942 542.21L812.073 542.573ZM818.147 539.736L815.898 540.174L816.186 538.291L818.147 539.736ZM825.657 526.692L827.465 528.324L827.444 526.033L825.657 526.692ZM831.197 522.917L829.047 523.71L829.03 521.805L831.197 522.917ZM836.517 508.837L838.564 510.158L838.175 507.9L836.517 508.837ZM841.38 504.222L839.385 505.349L839.062 503.472L841.38 504.222ZM844.372 489.471L846.604 490.447L845.859 488.28L844.372 489.471ZM848.432 484.136L846.644 485.568L846.024 483.768L848.432 484.136ZM849.02 469.096L851.379 469.701L850.296 467.682L849.02 469.096ZM852.171 463.179L850.636 464.879L849.735 463.201L852.171 463.179ZM850.338 448.239L852.764 448.458L851.371 446.639L850.338 448.239ZM852.5 441.893L851.257 443.818L850.099 442.306L852.5 441.893ZM848.294 427.441L850.724 427.267L849.057 425.696L848.294 427.441ZM849.41 420.83L848.492 422.929L847.107 421.623L849.41 420.83ZM842.94 407.24L845.311 406.679L843.413 405.395L842.94 407.24ZM842.981 400.536L842.412 402.755L840.835 401.688L842.981 400.536ZM834.415 388.159L836.665 387.225L834.586 386.262L834.415 388.159ZM833.38 381.535L833.175 383.817L831.447 383.017L833.38 381.535ZM822.94 370.693L825.011 369.41L822.804 368.793L822.94 370.693ZM820.856 364.321L821.019 366.606L819.185 366.094L820.856 364.321ZM808.812 355.294L810.65 353.696L808.373 353.441L808.812 355.294ZM805.732 349.339L806.26 351.568L804.367 351.357L805.732 349.339ZM792.396 342.361L793.954 340.488L791.666 340.602L792.396 342.361ZM788.401 336.977L789.279 339.093L787.377 339.187L788.401 336.977ZM774.118 332.228L775.356 330.13L773.115 330.609L774.118 332.228ZM769.311 327.555L770.518 329.503L768.655 329.901L769.311 327.555ZM754.451 325.159L755.336 322.889L753.202 323.722L754.451 325.159ZM748.957 321.317L750.461 323.046L748.686 323.738L748.957 321.317ZM733.906 321.336L734.415 318.954L732.442 320.118L733.906 321.336ZM727.867 318.425L729.628 319.89L727.987 320.858L727.867 318.425ZM713.013 320.858L713.133 318.425L711.372 319.89L713.013 320.858ZM706.585 318.954L708.558 320.118L707.094 321.336L706.585 318.954ZM692.314 323.738L692.043 321.317L690.539 323.046L692.314 323.738ZM685.664 322.889L687.798 323.722L686.549 325.159L685.664 322.889ZM672.345 329.901L671.689 327.555L670.482 329.503L672.345 329.901ZM665.644 330.13L667.885 330.609L666.882 332.228L665.644 330.13ZM653.623 339.187L652.599 336.977L651.721 339.093L653.623 339.187ZM656.931 348.294L656.405 349.142L655.414 349.253L655.812 348.204L656.931 348.294ZM642.175 362.089L643.621 361.685L644.812 363.445L644.27 364.454L643.203 364.87L641.599 363.476L642.175 362.089ZM627.837 373.684L627.607 374.655L626.702 375.075L626.747 373.953L627.837 373.684ZM607.98 385.537L611.011 384.133L613.237 385.839L613.211 388.557L610.87 389.938L608.28 388.863L607.98 385.537ZM615.682 389.983L616.715 389.543L616.644 390.539L615.817 391.098L615.682 389.983ZM604.253 403.882L601.782 402.556L599.017 404.427L599.846 407.662L602.575 408.308L604.664 406.569L604.253 403.882ZM593.199 424.511L595.629 422.221L598.281 423.133L599.118 425.72L597.334 427.771L594.537 427.571L593.199 424.511ZM601.913 426.29L602.753 425.546L603.001 426.512L602.394 427.304L601.913 426.29ZM595.474 443.093L592.71 442.617L590.679 445.268L592.49 448.074L595.283 447.822L596.714 445.512L595.474 443.093ZM591.521 466.161L593.1 463.219L595.904 463.245L597.517 465.433L596.475 467.943L593.758 468.64L591.521 466.161ZM600.349 465.089L600.91 464.117L601.452 464.955L601.127 465.899L600.349 465.089ZM599.562 483.066L596.79 483.49L595.703 486.648L598.31 488.736L600.879 487.612L601.505 484.967L599.562 483.066ZM603.118 506.199L603.684 502.907L606.352 502.044L608.575 503.609L608.382 506.32L606.025 507.841L603.118 506.199ZM611.152 502.386L611.377 501.286L612.156 501.91L612.146 502.908L611.152 502.386ZM616.099 519.687L613.604 520.967L613.573 524.307L616.706 525.462L618.788 523.583L618.544 520.875L616.099 519.687ZM626.797 540.503L626.292 537.202L628.549 535.538L631.153 536.319L631.828 538.952L630.075 541.141L626.797 540.503ZM633.21 534.343L633.075 533.228L634.011 533.573L634.319 534.523L633.21 534.343ZM643.381 549.187L641.42 551.191L642.448 554.369L645.786 554.472L647.165 552.031L646.076 549.54L643.381 549.187ZM660.12 565.544L658.596 562.573L660.21 560.28L662.927 560.196L664.401 562.479L663.431 565.111L660.12 565.544ZM664.253 557.67L663.772 556.656L664.769 556.686L665.361 557.49L664.253 557.67ZM678.601 568.529L677.375 571.052L679.356 573.74L682.555 572.781L683.091 570.028L681.269 568.011L678.601 568.529ZM699.658 578.744L697.271 576.408L698.077 573.722L700.627 572.782L702.749 574.481L702.662 577.284L699.658 578.744ZM701.085 569.966L700.307 569.156L701.263 568.87L702.079 569.444L701.085 569.966ZM718.133 575.723L717.769 578.504L720.5 580.427L723.231 578.504L722.867 575.723L720.5 574.386L718.133 575.723ZM741.342 578.744L738.338 577.284L738.251 574.481L740.373 572.782L742.923 573.722L743.729 576.408L741.342 578.744ZM739.915 569.966L738.921 569.444L739.737 568.87L740.693 569.156L739.915 569.966ZM757.909 570.028L758.445 572.781L761.644 573.74L763.625 571.052L762.399 568.529L759.731 568.01L757.909 570.028ZM780.88 565.544L777.569 565.111L776.599 562.479L778.073 560.196L780.79 560.28L782.404 562.573L780.88 565.544ZM776.747 557.67L775.639 557.49L776.231 556.686L777.228 556.656L776.747 557.67ZM793.835 552.031L795.214 554.472L798.552 554.369L799.58 551.191L797.619 549.187L794.924 549.54L793.835 552.031ZM793.522 546.181L793.21 547.259H792.087L792.543 546.371L793.522 546.181ZM809.172 538.952L810.925 541.141L814.203 540.503L814.708 537.202L812.451 535.538L809.847 536.319L809.172 538.952ZM827.427 524.307L824.294 525.462L822.212 523.583L822.456 520.875L824.901 519.687L827.396 520.967L827.427 524.307ZM820.109 519.255L819.044 519.61L819.195 518.624L820.063 518.133L820.109 519.255ZM832.618 506.32L834.975 507.841L837.882 506.199L837.316 502.907L834.648 502.044L832.425 503.609L832.618 506.32ZM845.297 486.648L842.69 488.736L840.121 487.612L839.495 484.967L841.438 483.066L844.21 483.49L845.297 486.648ZM836.755 484.174L835.857 484.848L835.688 483.865L836.357 483.124L836.755 484.174ZM844.525 467.943L847.242 468.64L849.479 466.161L847.9 463.219L845.096 463.245L843.483 465.433L844.525 467.943ZM850.321 445.268L848.51 448.074L845.717 447.822L844.286 445.512L845.526 443.093L848.29 442.617L850.321 445.268ZM841.435 445.626L840.798 446.55L840.326 445.671L840.725 444.757L841.435 445.626ZM843.666 427.771L846.463 427.571L847.801 424.511L845.371 422.221L842.719 423.133L841.882 425.72L843.666 427.771ZM841.983 404.427L841.154 407.662L838.425 408.308L836.336 406.569L836.747 403.882L839.218 402.556L841.983 404.427ZM833.668 407.581L833.356 408.659L832.63 407.975L832.719 406.981L833.668 407.581ZM830.13 389.938L832.72 388.863L833.02 385.537L829.989 384.133L827.763 385.839L827.789 388.557L830.13 389.938ZM821.142 368.329L821.379 371.66L818.995 373.136L816.463 372.149L816.002 369.47L817.926 367.429L821.142 368.329ZM814.253 373.953L814.298 375.075L813.393 374.655L813.163 373.684L814.253 373.953ZM805.31 358.338L807.426 356.498L806.657 353.249L803.339 352.877L801.767 355.2L802.652 357.77L805.31 358.338ZM789.941 340.687L791.222 343.772L789.428 345.927L786.713 345.793L785.427 343.398L786.606 340.853L789.941 340.687ZM785.188 348.204L785.586 349.253L784.595 349.142L784.069 348.294L785.188 348.204ZM771.761 336.225L773.185 333.809L771.427 330.97L768.161 331.669L767.406 334.37L769.059 336.527L771.761 336.225ZM751.593 324.349L753.785 326.869L752.766 329.482L750.148 330.214L748.17 328.349L748.482 325.562L751.593 324.349ZM749.465 332.984L750.175 333.853L749.199 334.062L748.432 333.424L749.465 332.984ZM732.935 325.873L733.522 323.131L730.955 320.995L728.078 322.691L728.217 325.492L730.469 327.016L732.935 325.873ZM710.045 320.995L712.922 322.691L712.783 325.492L710.531 327.016L708.065 325.873L707.478 323.131L710.045 320.995ZM710.761 329.859L711.71 330.459L710.85 330.966L709.921 330.604L710.761 329.859ZM692.83 328.349L692.518 325.562L689.407 324.349L687.215 326.869L688.234 329.482L690.852 330.214L692.83 328.349ZM669.573 330.97L672.839 331.669L673.594 334.37L671.941 336.527L669.239 336.225L667.815 333.809L669.573 330.97ZM673.059 339.152L674.149 339.42L673.494 340.173L672.498 340.124L673.059 339.152ZM631.827 376.714L630.369 375.167L629.007 375.798L628.661 377.259L630.468 378.378L631.454 377.797L631.827 376.714ZM618.209 391.442L619.452 390.601L621.139 391.893L620.945 393.022L620.065 393.755L618.102 392.94L618.209 391.442ZM608.281 406.981L608.37 407.975L607.644 408.659L607.332 407.581L608.281 406.981ZM604.771 426.874L605.685 425.682L607.694 426.374L607.867 427.506L607.264 428.48L605.144 428.328L604.771 426.874ZM600.275 444.757L600.674 445.671L600.202 446.55L599.565 445.626L600.275 444.757ZM603.246 464.737L603.734 463.318L605.859 463.337L606.382 464.356L606.118 465.471L604.06 465.999L603.246 464.737ZM604.643 483.124L605.312 483.865L605.143 484.848L604.245 484.174L604.643 483.124ZM613.788 501.135L613.802 499.634L615.824 498.98L616.643 499.781L616.746 500.922L614.96 502.074L613.788 501.135ZM620.937 518.133L621.805 518.624L621.956 519.61L620.891 519.255L620.937 518.133ZM635.315 532.322L634.853 530.893L636.563 529.632L637.593 530.133L638.052 531.182L636.724 532.841L635.315 532.322ZM647.478 546.181L648.457 546.371L648.913 547.259H647.79L647.478 546.181ZM665.609 555.086L664.718 553.878L665.942 552.14L667.077 552.289L667.845 553.139L667.11 555.133L665.609 555.086ZM681.535 564.381L682.524 564.251L683.237 564.949L682.173 565.305L681.535 564.381ZM701.553 567.086L700.325 566.222L700.935 564.186L702.06 563.967L703.057 564.531L702.991 566.655L701.553 567.086ZM719.603 570.859L720.5 570.423L721.397 570.859L720.5 571.533L719.603 570.859ZM739.447 567.086L738.009 566.655L737.943 564.531L738.94 563.967L740.065 564.186L740.675 566.222L739.447 567.086ZM757.763 564.949L758.476 564.251L759.465 564.381L758.827 565.305L757.763 564.949ZM775.391 555.086L773.89 555.133L773.155 553.139L773.923 552.289L775.058 552.14L776.282 553.878L775.391 555.086ZM791.457 544.927L789.983 545.213L788.938 543.363L789.559 542.401L790.656 542.072L792.142 543.591L791.457 544.927ZM806.681 534.523L806.989 533.573L807.925 533.228L807.79 534.343L806.681 534.523ZM817.707 517.597L816.4 518.336L814.823 516.912L815.107 515.802L816.044 515.143L817.934 516.113L817.707 517.597ZM828.854 502.908L828.844 501.91L829.623 501.286L829.848 502.386L828.854 502.908ZM833.952 483.362L832.946 484.476L830.999 483.625L830.917 482.483L831.597 481.561L833.698 481.882L833.952 483.362ZM839.873 465.899L839.548 464.955L840.09 464.117L840.651 465.089L839.873 465.899ZM838.52 445.744L837.918 447.12L835.802 446.929L835.363 445.871L835.715 444.781L837.81 444.421L838.52 445.744ZM838.606 427.304L837.999 426.512L838.247 425.546L839.087 426.29L838.606 427.304ZM830.94 408.616L830.805 410.111L828.737 410.6L827.986 409.736L827.975 408.591L829.848 407.586L830.94 408.616ZM825.183 391.098L824.356 390.539L824.285 389.543L825.318 389.983L825.183 391.098ZM811.993 375.798L812.339 377.259L810.532 378.378L809.546 377.797L809.173 376.714L810.631 375.167L811.993 375.798ZM800.984 361.005L800.024 360.736L799.641 359.815L800.76 359.905L800.984 361.005ZM783.629 350.67L784.419 351.946L783.06 353.58L781.94 353.34L781.244 352.431L782.137 350.503L783.629 350.67ZM768.502 340.124L767.506 340.173L766.851 339.42L767.941 339.152L768.502 340.124ZM748.767 335.817L749.921 336.777L749.149 338.757L748.011 338.884L747.062 338.243L747.299 336.131L748.767 335.817ZM731.079 330.604L730.15 330.966L729.29 330.459L730.239 329.859L731.079 330.604ZM710.996 332.767L712.395 333.313L712.289 335.435L711.25 335.917L710.147 335.608L709.702 333.53L710.996 332.767ZM692.568 333.424L691.801 334.062L690.825 333.853L691.535 332.984L692.568 333.424ZM674.203 341.836L675.702 341.91L676.274 343.957L675.441 344.743L674.297 344.8L673.217 342.969L674.203 341.836ZM657.371 350.67L658.863 350.503L659.756 352.431L659.06 353.34L657.94 353.58L656.581 351.946L657.371 350.67ZM613.025 408.591L611.152 407.586L610.06 408.616L610.195 410.111L612.263 410.6L613.014 409.736L613.025 408.591ZM605.285 444.781L603.19 444.421L602.48 445.744L603.082 447.12L605.198 446.929L605.637 445.871L605.285 444.781ZM609.403 481.561L607.302 481.882L607.048 483.362L608.054 484.476L610.001 483.625L610.083 482.483L609.403 481.561ZM624.956 515.143L623.066 516.113L623.293 517.597L624.6 518.336L626.177 516.912L625.893 515.802L624.956 515.143ZM650.344 542.072L648.858 543.591L649.543 544.927L651.017 545.213L652.062 543.363L651.441 542.401L650.344 542.072ZM682.952 559.576L682.023 561.487L683.097 562.537L684.585 562.342L684.991 560.256L684.097 559.54L682.952 559.576ZM719.425 565.852L719.15 567.959L720.5 568.616L721.85 567.959L721.575 565.852L720.5 565.456L719.425 565.852ZM756.009 560.256L756.415 562.342L757.903 562.537L758.977 561.487L758.048 559.576L756.903 559.54L756.009 560.256ZM802.948 531.182L804.276 532.841L805.685 532.322L806.147 530.893L804.437 529.632L803.407 530.133L802.948 531.182ZM824.254 500.922L826.04 502.074L827.212 501.135L827.198 499.634L825.176 498.98L824.357 499.781L824.254 500.922ZM834.882 465.471L836.94 465.999L837.754 464.737L837.266 463.318L835.141 463.337L834.618 464.356L834.882 465.471ZM833.736 428.48L835.856 428.328L836.229 426.874L835.315 425.682L833.306 426.374L833.133 427.506L833.736 428.48ZM820.935 393.755L822.898 392.94L822.791 391.442L821.548 390.601L819.861 391.893L820.055 393.022L820.935 393.755ZM797.797 364.87L799.401 363.476L798.825 362.089L797.379 361.685L796.188 363.445L796.73 364.454L797.797 364.87ZM766.703 344.8L767.783 342.969L766.797 341.836L765.298 341.91L764.726 343.957L765.559 344.743L766.703 344.8ZM730.853 335.608L731.298 333.53L730.004 332.767L728.605 333.313L728.711 335.435L729.75 335.917L730.853 335.608ZM693.938 338.243L693.701 336.131L692.233 335.817L691.079 336.777L691.851 338.757L692.989 338.884L693.938 338.243ZM621.815 366.094L619.981 366.606L620.144 364.321L621.815 366.094Z" stroke="url(#paint0_linear_5_1583)" stroke-width="160" stroke-dasharray="20 1050"/>
<defs>
<linearGradient id="paint0_linear_5_1583" x1="556.831" y1="451.081" x2="890.484" y2="451.081" gradientUnits="userSpaceOnUse">
<stop stop-color="#FF1CF7"/>
<stop offset="1" stop-color="#00F0FF"/>
</linearGradient>
</defs>
</svg>
