<svg width="1440" height="900" viewBox="0 0 1440 900" fill="none" xmlns="http://www.w3.org/2000/svg">
<g clip-path="url(#clip0_12_12132)">
<rect width="1440" height="900" fill="black"/>
<ellipse opacity="0.0169492" cx="720.001" cy="449.999" rx="80" ry="660" transform="rotate(140 720.001 449.999)" stroke="url(#paint0_linear_12_12132)" stroke-width="4"/>
<ellipse opacity="0.0338983" cx="720.002" cy="449.999" rx="80" ry="650" transform="rotate(150 720.002 449.999)" stroke="url(#paint1_linear_12_12132)" stroke-width="4"/>
<ellipse opacity="0.0508475" cx="720.001" cy="449.998" rx="80" ry="640" transform="rotate(160 720.001 449.998)" stroke="url(#paint2_linear_12_12132)" stroke-width="4"/>
<ellipse opacity="0.0677966" cx="720.001" cy="449.999" rx="80" ry="630" transform="rotate(170 720.001 449.999)" stroke="url(#paint3_linear_12_12132)" stroke-width="4"/>
<ellipse opacity="0.0847458" cx="720.001" cy="449.999" rx="80" ry="620" transform="rotate(-180 720.001 449.999)" stroke="url(#paint4_linear_12_12132)" stroke-width="4"/>
<ellipse opacity="0.101695" cx="720.001" cy="449.998" rx="80" ry="610" transform="rotate(-170 720.001 449.998)" stroke="url(#paint5_linear_12_12132)" stroke-width="4"/>
<ellipse opacity="0.118644" cx="720.001" cy="449.998" rx="80" ry="600" transform="rotate(-160 720.001 449.998)" stroke="url(#paint6_linear_12_12132)" stroke-width="4"/>
<ellipse opacity="0.135593" cx="720.001" cy="449.998" rx="80" ry="590" transform="rotate(-150 720.001 449.998)" stroke="url(#paint7_linear_12_12132)" stroke-width="4"/>
<ellipse opacity="0.152542" cx="720.001" cy="449.999" rx="80" ry="580" transform="rotate(-140 720.001 449.999)" stroke="url(#paint8_linear_12_12132)" stroke-width="4"/>
<ellipse opacity="0.169492" cx="720.001" cy="449.998" rx="80" ry="570" transform="rotate(-130 720.001 449.998)" stroke="url(#paint9_linear_12_12132)" stroke-width="4"/>
<ellipse opacity="0.186441" cx="720.001" cy="449.998" rx="80" ry="560" transform="rotate(-120 720.001 449.998)" stroke="url(#paint10_linear_12_12132)" stroke-width="4"/>
<ellipse opacity="0.20339" cx="720.002" cy="449.998" rx="80" ry="550" transform="rotate(-110 720.002 449.998)" stroke="url(#paint11_linear_12_12132)" stroke-width="4"/>
<ellipse opacity="0.220339" cx="720.001" cy="449.999" rx="80" ry="540" transform="rotate(-100 720.001 449.999)" stroke="url(#paint12_linear_12_12132)" stroke-width="4"/>
<ellipse opacity="0.237288" cx="720.001" cy="449.999" rx="80" ry="530" transform="rotate(-90 720.001 449.999)" stroke="url(#paint13_linear_12_12132)" stroke-width="4"/>
<ellipse opacity="0.254237" cx="720.001" cy="449.999" rx="80" ry="520" transform="rotate(-80 720.001 449.999)" stroke="url(#paint14_linear_12_12132)" stroke-width="4"/>
<ellipse opacity="0.271186" cx="720" cy="449.998" rx="80" ry="510" transform="rotate(-70 720 449.998)" stroke="url(#paint15_linear_12_12132)" stroke-width="4"/>
<ellipse opacity="0.288136" cx="720.001" cy="449.998" rx="80" ry="500" transform="rotate(-60 720.001 449.998)" stroke="url(#paint16_linear_12_12132)" stroke-width="4"/>
<ellipse opacity="0.305085" cx="720.001" cy="449.998" rx="80" ry="490" transform="rotate(-50 720.001 449.998)" stroke="url(#paint17_linear_12_12132)" stroke-width="4"/>
<ellipse opacity="0.322034" cx="720" cy="449.998" rx="80" ry="480" transform="rotate(-40 720 449.998)" stroke="url(#paint18_linear_12_12132)" stroke-width="4"/>
<ellipse opacity="0.338983" cx="720.001" cy="449.998" rx="80" ry="470" transform="rotate(-30 720.001 449.998)" stroke="url(#paint19_linear_12_12132)" stroke-width="4"/>
<ellipse opacity="0.355932" cx="720.001" cy="449.998" rx="80" ry="460" transform="rotate(-20 720.001 449.998)" stroke="url(#paint20_linear_12_12132)" stroke-width="4"/>
<ellipse opacity="0.372881" cx="720.002" cy="449.999" rx="80" ry="450" transform="rotate(-10 720.002 449.999)" stroke="url(#paint21_linear_12_12132)" stroke-width="4"/>
<ellipse opacity="0.38983" cx="720.001" cy="449.999" rx="80" ry="440" stroke="url(#paint22_linear_12_12132)" stroke-width="4"/>
<ellipse opacity="0.40678" cx="720.002" cy="449.998" rx="80" ry="430" transform="rotate(10 720.002 449.998)" stroke="url(#paint23_linear_12_12132)" stroke-width="4"/>
<ellipse opacity="0.423729" cx="720.001" cy="449.998" rx="80" ry="420" transform="rotate(20 720.001 449.998)" stroke="url(#paint24_linear_12_12132)" stroke-width="4"/>
<ellipse opacity="0.440678" cx="720.001" cy="449.999" rx="80" ry="410" transform="rotate(30 720.001 449.999)" stroke="url(#paint25_linear_12_12132)" stroke-width="4"/>
<ellipse opacity="0.457627" cx="720.002" cy="449.999" rx="80" ry="400" transform="rotate(40 720.002 449.999)" stroke="url(#paint26_linear_12_12132)" stroke-width="4"/>
<ellipse opacity="0.474576" cx="720.002" cy="450" rx="80" ry="390" transform="rotate(50 720.002 450)" stroke="url(#paint27_linear_12_12132)" stroke-width="4"/>
<ellipse opacity="0.491525" cx="720.003" cy="449.998" rx="80" ry="380" transform="rotate(60 720.003 449.998)" stroke="url(#paint28_linear_12_12132)" stroke-width="4"/>
<ellipse opacity="0.508475" cx="720.001" cy="450" rx="80" ry="370" transform="rotate(70 720.001 450)" stroke="url(#paint29_linear_12_12132)" stroke-width="4"/>
<ellipse opacity="0.525424" cx="720.003" cy="449.999" rx="80" ry="360" transform="rotate(80 720.003 449.999)" stroke="url(#paint30_linear_12_12132)" stroke-width="4"/>
<ellipse opacity="0.542373" cx="720.002" cy="450" rx="80" ry="350" transform="rotate(90 720.002 450)" stroke="url(#paint31_linear_12_12132)" stroke-width="4"/>
<ellipse opacity="0.559322" cx="720.002" cy="450" rx="80" ry="340" transform="rotate(100 720.002 450)" stroke="url(#paint32_linear_12_12132)" stroke-width="4"/>
<ellipse opacity="0.576271" cx="720.002" cy="450" rx="80" ry="330" transform="rotate(110 720.002 450)" stroke="url(#paint33_linear_12_12132)" stroke-width="4"/>
<ellipse opacity="0.59322" cx="720.002" cy="449.998" rx="80" ry="320" transform="rotate(120 720.002 449.998)" stroke="url(#paint34_linear_12_12132)" stroke-width="4"/>
<ellipse opacity="0.610169" cx="720.002" cy="449.999" rx="80" ry="310" transform="rotate(130 720.002 449.999)" stroke="url(#paint35_linear_12_12132)" stroke-width="4"/>
<ellipse opacity="0.627119" cx="720.002" cy="449.999" rx="80" ry="300" transform="rotate(140 720.002 449.999)" stroke="url(#paint36_linear_12_12132)" stroke-width="4"/>
<ellipse opacity="0.644068" cx="720.002" cy="449.999" rx="80" ry="290" transform="rotate(150 720.002 449.999)" stroke="url(#paint37_linear_12_12132)" stroke-width="4"/>
<ellipse opacity="0.661017" cx="720.002" cy="449.999" rx="80" ry="280" transform="rotate(160 720.002 449.999)" stroke="url(#paint38_linear_12_12132)" stroke-width="4"/>
<ellipse opacity="0.677966" cx="720.001" cy="449.999" rx="80" ry="270" transform="rotate(170 720.001 449.999)" stroke="url(#paint39_linear_12_12132)" stroke-width="4"/>
<ellipse opacity="0.694915" cx="720.001" cy="449.999" rx="80" ry="260" transform="rotate(-180 720.001 449.999)" stroke="url(#paint40_linear_12_12132)" stroke-width="4"/>
<ellipse opacity="0.711864" cx="720.001" cy="449.999" rx="80" ry="250" transform="rotate(-170 720.001 449.999)" stroke="url(#paint41_linear_12_12132)" stroke-width="4"/>
<ellipse opacity="0.728814" cx="720" cy="449.998" rx="80" ry="240" transform="rotate(-160 720 449.998)" stroke="url(#paint42_linear_12_12132)" stroke-width="4"/>
<ellipse opacity="0.745763" cx="720.001" cy="449.999" rx="80" ry="230" transform="rotate(-150 720.001 449.999)" stroke="url(#paint43_linear_12_12132)" stroke-width="4"/>
<ellipse opacity="0.762712" cx="720" cy="449.998" rx="80" ry="220" transform="rotate(-140 720 449.998)" stroke="url(#paint44_linear_12_12132)" stroke-width="4"/>
<ellipse opacity="0.779661" cx="720.001" cy="449.999" rx="80" ry="210" transform="rotate(-130 720.001 449.999)" stroke="url(#paint45_linear_12_12132)" stroke-width="4"/>
<ellipse opacity="0.79661" cx="720.002" cy="449.998" rx="80" ry="200" transform="rotate(-120 720.002 449.998)" stroke="url(#paint46_linear_12_12132)" stroke-width="4"/>
<ellipse opacity="0.813559" cx="720.002" cy="449.998" rx="80" ry="190" transform="rotate(-110 720.002 449.998)" stroke="url(#paint47_linear_12_12132)" stroke-width="4"/>
<ellipse opacity="0.830508" cx="720.002" cy="449.999" rx="80" ry="180" transform="rotate(-100 720.002 449.999)" stroke="url(#paint48_linear_12_12132)" stroke-width="4"/>
<ellipse opacity="0.847458" cx="720.002" cy="449.999" rx="80" ry="170" transform="rotate(-90 720.002 449.999)" stroke="url(#paint49_linear_12_12132)" stroke-width="4"/>
<ellipse opacity="0.864407" cx="720.002" cy="449.998" rx="80" ry="160" transform="rotate(-80 720.002 449.998)" stroke="url(#paint50_linear_12_12132)" stroke-width="4"/>
<ellipse opacity="0.881356" cx="720.002" cy="449.998" rx="80" ry="150" transform="rotate(-70 720.002 449.998)" stroke="url(#paint51_linear_12_12132)" stroke-width="4"/>
<ellipse opacity="0.898305" cx="720.001" cy="449.998" rx="80" ry="140" transform="rotate(-60 720.001 449.998)" stroke="url(#paint52_linear_12_12132)" stroke-width="4"/>
<ellipse opacity="0.915254" cx="720.002" cy="449.999" rx="80" ry="130" transform="rotate(-50 720.002 449.999)" stroke="url(#paint53_linear_12_12132)" stroke-width="4"/>
<ellipse opacity="0.932203" cx="720.002" cy="449.998" rx="80" ry="120" transform="rotate(-40 720.002 449.998)" stroke="url(#paint54_linear_12_12132)" stroke-width="4"/>
<ellipse opacity="0.949153" cx="720.001" cy="449.998" rx="80" ry="110" transform="rotate(-30 720.001 449.998)" stroke="url(#paint55_linear_12_12132)" stroke-width="4"/>
<ellipse opacity="0.966102" cx="720.002" cy="449.999" rx="80" ry="100" transform="rotate(-20 720.002 449.999)" stroke="url(#paint56_linear_12_12132)" stroke-width="4"/>
<ellipse opacity="0.983051" cx="720.001" cy="449.998" rx="80" ry="90" transform="rotate(-10 720.001 449.998)" stroke="url(#paint57_linear_12_12132)" stroke-width="4"/>
<circle cx="720.001" cy="449.998" r="80" stroke="url(#paint58_linear_12_12132)" stroke-width="4"/>
</g>
<defs>
<linearGradient id="paint0_linear_12_12132" x1="720.001" y1="-210.001" x2="720.002" y2="1159.5" gradientUnits="userSpaceOnUse">
<stop stop-color="#FF1CF7"/>
<stop offset="1" stop-color="#00F0FF"/>
</linearGradient>
<linearGradient id="paint1_linear_12_12132" x1="720.002" y1="-200.001" x2="720.002" y2="1148.75" gradientUnits="userSpaceOnUse">
<stop stop-color="#FF1CF7"/>
<stop offset="1" stop-color="#00F0FF"/>
</linearGradient>
<linearGradient id="paint2_linear_12_12132" x1="720.001" y1="-190.002" x2="720.002" y2="1138" gradientUnits="userSpaceOnUse">
<stop stop-color="#FF1CF7"/>
<stop offset="1" stop-color="#00F0FF"/>
</linearGradient>
<linearGradient id="paint3_linear_12_12132" x1="720.001" y1="-180.001" x2="720.001" y2="1127.25" gradientUnits="userSpaceOnUse">
<stop stop-color="#FF1CF7"/>
<stop offset="1" stop-color="#00F0FF"/>
</linearGradient>
<linearGradient id="paint4_linear_12_12132" x1="720.001" y1="-170.001" x2="720.002" y2="1116.5" gradientUnits="userSpaceOnUse">
<stop stop-color="#FF1CF7"/>
<stop offset="1" stop-color="#00F0FF"/>
</linearGradient>
<linearGradient id="paint5_linear_12_12132" x1="720.001" y1="-160.002" x2="720.002" y2="1105.75" gradientUnits="userSpaceOnUse">
<stop stop-color="#FF1CF7"/>
<stop offset="1" stop-color="#00F0FF"/>
</linearGradient>
<linearGradient id="paint6_linear_12_12132" x1="720.001" y1="-150.002" x2="720.001" y2="1095" gradientUnits="userSpaceOnUse">
<stop stop-color="#FF1CF7"/>
<stop offset="1" stop-color="#00F0FF"/>
</linearGradient>
<linearGradient id="paint7_linear_12_12132" x1="720.001" y1="-140.002" x2="720.001" y2="1084.25" gradientUnits="userSpaceOnUse">
<stop stop-color="#FF1CF7"/>
<stop offset="1" stop-color="#00F0FF"/>
</linearGradient>
<linearGradient id="paint8_linear_12_12132" x1="720.001" y1="-130.001" x2="720.001" y2="1073.5" gradientUnits="userSpaceOnUse">
<stop stop-color="#FF1CF7"/>
<stop offset="1" stop-color="#00F0FF"/>
</linearGradient>
<linearGradient id="paint9_linear_12_12132" x1="720.001" y1="-120.002" x2="720.001" y2="1062.75" gradientUnits="userSpaceOnUse">
<stop stop-color="#FF1CF7"/>
<stop offset="1" stop-color="#00F0FF"/>
</linearGradient>
<linearGradient id="paint10_linear_12_12132" x1="720.001" y1="-110.002" x2="720.001" y2="1052" gradientUnits="userSpaceOnUse">
<stop stop-color="#FF1CF7"/>
<stop offset="1" stop-color="#00F0FF"/>
</linearGradient>
<linearGradient id="paint11_linear_12_12132" x1="720.002" y1="-100.002" x2="720.002" y2="1041.25" gradientUnits="userSpaceOnUse">
<stop stop-color="#FF1CF7"/>
<stop offset="1" stop-color="#00F0FF"/>
</linearGradient>
<linearGradient id="paint12_linear_12_12132" x1="720.001" y1="-90.0012" x2="720.001" y2="1030.5" gradientUnits="userSpaceOnUse">
<stop stop-color="#FF1CF7"/>
<stop offset="1" stop-color="#00F0FF"/>
</linearGradient>
<linearGradient id="paint13_linear_12_12132" x1="720.001" y1="-80.0012" x2="720.001" y2="1019.75" gradientUnits="userSpaceOnUse">
<stop stop-color="#FF1CF7"/>
<stop offset="1" stop-color="#00F0FF"/>
</linearGradient>
<linearGradient id="paint14_linear_12_12132" x1="720.001" y1="-70.0015" x2="720.001" y2="1009" gradientUnits="userSpaceOnUse">
<stop stop-color="#FF1CF7"/>
<stop offset="1" stop-color="#00F0FF"/>
</linearGradient>
<linearGradient id="paint15_linear_12_12132" x1="720" y1="-60.0022" x2="720.001" y2="998.248" gradientUnits="userSpaceOnUse">
<stop stop-color="#FF1CF7"/>
<stop offset="1" stop-color="#00F0FF"/>
</linearGradient>
<linearGradient id="paint16_linear_12_12132" x1="720.001" y1="-50.002" x2="720.001" y2="987.498" gradientUnits="userSpaceOnUse">
<stop stop-color="#FF1CF7"/>
<stop offset="1" stop-color="#00F0FF"/>
</linearGradient>
<linearGradient id="paint17_linear_12_12132" x1="720.001" y1="-40.0024" x2="720.001" y2="976.748" gradientUnits="userSpaceOnUse">
<stop stop-color="#FF1CF7"/>
<stop offset="1" stop-color="#00F0FF"/>
</linearGradient>
<linearGradient id="paint18_linear_12_12132" x1="720" y1="-30.0022" x2="720.001" y2="965.998" gradientUnits="userSpaceOnUse">
<stop stop-color="#FF1CF7"/>
<stop offset="1" stop-color="#00F0FF"/>
</linearGradient>
<linearGradient id="paint19_linear_12_12132" x1="720.001" y1="-20.0015" x2="720.001" y2="955.248" gradientUnits="userSpaceOnUse">
<stop stop-color="#FF1CF7"/>
<stop offset="1" stop-color="#00F0FF"/>
</linearGradient>
<linearGradient id="paint20_linear_12_12132" x1="720.001" y1="-10.0017" x2="720.001" y2="944.498" gradientUnits="userSpaceOnUse">
<stop stop-color="#FF1CF7"/>
<stop offset="1" stop-color="#00F0FF"/>
</linearGradient>
<linearGradient id="paint21_linear_12_12132" x1="720.002" y1="-0.00109863" x2="720.002" y2="933.749" gradientUnits="userSpaceOnUse">
<stop stop-color="#FF1CF7"/>
<stop offset="1" stop-color="#00F0FF"/>
</linearGradient>
<linearGradient id="paint22_linear_12_12132" x1="720.001" y1="9.99878" x2="720.001" y2="922.999" gradientUnits="userSpaceOnUse">
<stop stop-color="#FF1CF7"/>
<stop offset="1" stop-color="#00F0FF"/>
</linearGradient>
<linearGradient id="paint23_linear_12_12132" x1="720.002" y1="19.9983" x2="720.002" y2="912.248" gradientUnits="userSpaceOnUse">
<stop stop-color="#FF1CF7"/>
<stop offset="1" stop-color="#00F0FF"/>
</linearGradient>
<linearGradient id="paint24_linear_12_12132" x1="720.001" y1="29.9983" x2="720.001" y2="901.498" gradientUnits="userSpaceOnUse">
<stop stop-color="#FF1CF7"/>
<stop offset="1" stop-color="#00F0FF"/>
</linearGradient>
<linearGradient id="paint25_linear_12_12132" x1="720.001" y1="39.9991" x2="720.001" y2="890.749" gradientUnits="userSpaceOnUse">
<stop stop-color="#FF1CF7"/>
<stop offset="1" stop-color="#00F0FF"/>
</linearGradient>
<linearGradient id="paint26_linear_12_12132" x1="720.002" y1="49.9985" x2="720.002" y2="879.998" gradientUnits="userSpaceOnUse">
<stop stop-color="#FF1CF7"/>
<stop offset="1" stop-color="#00F0FF"/>
</linearGradient>
<linearGradient id="paint27_linear_12_12132" x1="720.002" y1="59.9995" x2="720.002" y2="869.25" gradientUnits="userSpaceOnUse">
<stop stop-color="#FF1CF7"/>
<stop offset="1" stop-color="#00F0FF"/>
</linearGradient>
<linearGradient id="paint28_linear_12_12132" x1="720.003" y1="69.9984" x2="720.003" y2="858.498" gradientUnits="userSpaceOnUse">
<stop stop-color="#FF1CF7"/>
<stop offset="1" stop-color="#00F0FF"/>
</linearGradient>
<linearGradient id="paint29_linear_12_12132" x1="720.001" y1="79.9997" x2="720.001" y2="847.75" gradientUnits="userSpaceOnUse">
<stop stop-color="#FF1CF7"/>
<stop offset="1" stop-color="#00F0FF"/>
</linearGradient>
<linearGradient id="paint30_linear_12_12132" x1="720.003" y1="89.9987" x2="720.003" y2="836.999" gradientUnits="userSpaceOnUse">
<stop stop-color="#FF1CF7"/>
<stop offset="1" stop-color="#00F0FF"/>
</linearGradient>
<linearGradient id="paint31_linear_12_12132" x1="720.002" y1="99.9995" x2="720.002" y2="826.249" gradientUnits="userSpaceOnUse">
<stop stop-color="#FF1CF7"/>
<stop offset="1" stop-color="#00F0FF"/>
</linearGradient>
<linearGradient id="paint32_linear_12_12132" x1="720.002" y1="110" x2="720.002" y2="815.5" gradientUnits="userSpaceOnUse">
<stop stop-color="#FF1CF7"/>
<stop offset="1" stop-color="#00F0FF"/>
</linearGradient>
<linearGradient id="paint33_linear_12_12132" x1="720.002" y1="120" x2="720.002" y2="804.75" gradientUnits="userSpaceOnUse">
<stop stop-color="#FF1CF7"/>
<stop offset="1" stop-color="#00F0FF"/>
</linearGradient>
<linearGradient id="paint34_linear_12_12132" x1="720.002" y1="129.998" x2="720.002" y2="793.998" gradientUnits="userSpaceOnUse">
<stop stop-color="#FF1CF7"/>
<stop offset="1" stop-color="#00F0FF"/>
</linearGradient>
<linearGradient id="paint35_linear_12_12132" x1="720.002" y1="139.999" x2="720.002" y2="783.249" gradientUnits="userSpaceOnUse">
<stop stop-color="#FF1CF7"/>
<stop offset="1" stop-color="#00F0FF"/>
</linearGradient>
<linearGradient id="paint36_linear_12_12132" x1="720.002" y1="149.999" x2="720.002" y2="772.499" gradientUnits="userSpaceOnUse">
<stop stop-color="#FF1CF7"/>
<stop offset="1" stop-color="#00F0FF"/>
</linearGradient>
<linearGradient id="paint37_linear_12_12132" x1="720.002" y1="159.999" x2="720.002" y2="761.749" gradientUnits="userSpaceOnUse">
<stop stop-color="#FF1CF7"/>
<stop offset="1" stop-color="#00F0FF"/>
</linearGradient>
<linearGradient id="paint38_linear_12_12132" x1="720.002" y1="169.999" x2="720.002" y2="750.999" gradientUnits="userSpaceOnUse">
<stop stop-color="#FF1CF7"/>
<stop offset="1" stop-color="#00F0FF"/>
</linearGradient>
<linearGradient id="paint39_linear_12_12132" x1="720.001" y1="179.999" x2="720.001" y2="740.249" gradientUnits="userSpaceOnUse">
<stop stop-color="#FF1CF7"/>
<stop offset="1" stop-color="#00F0FF"/>
</linearGradient>
<linearGradient id="paint40_linear_12_12132" x1="720.001" y1="189.999" x2="720.001" y2="729.499" gradientUnits="userSpaceOnUse">
<stop stop-color="#FF1CF7"/>
<stop offset="1" stop-color="#00F0FF"/>
</linearGradient>
<linearGradient id="paint41_linear_12_12132" x1="720.001" y1="199.999" x2="720.001" y2="718.749" gradientUnits="userSpaceOnUse">
<stop stop-color="#FF1CF7"/>
<stop offset="1" stop-color="#00F0FF"/>
</linearGradient>
<linearGradient id="paint42_linear_12_12132" x1="720" y1="209.998" x2="720" y2="707.998" gradientUnits="userSpaceOnUse">
<stop stop-color="#FF1CF7"/>
<stop offset="1" stop-color="#00F0FF"/>
</linearGradient>
<linearGradient id="paint43_linear_12_12132" x1="720.001" y1="219.999" x2="720.001" y2="697.249" gradientUnits="userSpaceOnUse">
<stop stop-color="#FF1CF7"/>
<stop offset="1" stop-color="#00F0FF"/>
</linearGradient>
<linearGradient id="paint44_linear_12_12132" x1="720" y1="229.998" x2="720" y2="686.498" gradientUnits="userSpaceOnUse">
<stop stop-color="#FF1CF7"/>
<stop offset="1" stop-color="#00F0FF"/>
</linearGradient>
<linearGradient id="paint45_linear_12_12132" x1="720.001" y1="239.999" x2="720.001" y2="675.749" gradientUnits="userSpaceOnUse">
<stop stop-color="#FF1CF7"/>
<stop offset="1" stop-color="#00F0FF"/>
</linearGradient>
<linearGradient id="paint46_linear_12_12132" x1="720.002" y1="249.998" x2="720.002" y2="664.998" gradientUnits="userSpaceOnUse">
<stop stop-color="#FF1CF7"/>
<stop offset="1" stop-color="#00F0FF"/>
</linearGradient>
<linearGradient id="paint47_linear_12_12132" x1="720.002" y1="259.998" x2="720.002" y2="654.248" gradientUnits="userSpaceOnUse">
<stop stop-color="#FF1CF7"/>
<stop offset="1" stop-color="#00F0FF"/>
</linearGradient>
<linearGradient id="paint48_linear_12_12132" x1="720.002" y1="269.999" x2="720.002" y2="643.499" gradientUnits="userSpaceOnUse">
<stop stop-color="#FF1CF7"/>
<stop offset="1" stop-color="#00F0FF"/>
</linearGradient>
<linearGradient id="paint49_linear_12_12132" x1="720.002" y1="279.999" x2="720.002" y2="632.749" gradientUnits="userSpaceOnUse">
<stop stop-color="#FF1CF7"/>
<stop offset="1" stop-color="#00F0FF"/>
</linearGradient>
<linearGradient id="paint50_linear_12_12132" x1="720.002" y1="289.998" x2="720.002" y2="621.998" gradientUnits="userSpaceOnUse">
<stop stop-color="#FF1CF7"/>
<stop offset="1" stop-color="#00F0FF"/>
</linearGradient>
<linearGradient id="paint51_linear_12_12132" x1="720.002" y1="299.998" x2="720.002" y2="611.248" gradientUnits="userSpaceOnUse">
<stop stop-color="#FF1CF7"/>
<stop offset="1" stop-color="#00F0FF"/>
</linearGradient>
<linearGradient id="paint52_linear_12_12132" x1="720.001" y1="309.998" x2="720.001" y2="600.498" gradientUnits="userSpaceOnUse">
<stop stop-color="#FF1CF7"/>
<stop offset="1" stop-color="#00F0FF"/>
</linearGradient>
<linearGradient id="paint53_linear_12_12132" x1="720.002" y1="319.999" x2="720.002" y2="589.749" gradientUnits="userSpaceOnUse">
<stop stop-color="#FF1CF7"/>
<stop offset="1" stop-color="#00F0FF"/>
</linearGradient>
<linearGradient id="paint54_linear_12_12132" x1="720.002" y1="329.998" x2="720.002" y2="578.998" gradientUnits="userSpaceOnUse">
<stop stop-color="#FF1CF7"/>
<stop offset="1" stop-color="#00F0FF"/>
</linearGradient>
<linearGradient id="paint55_linear_12_12132" x1="720.001" y1="339.998" x2="720.001" y2="568.248" gradientUnits="userSpaceOnUse">
<stop stop-color="#FF1CF7"/>
<stop offset="1" stop-color="#00F0FF"/>
</linearGradient>
<linearGradient id="paint56_linear_12_12132" x1="720.002" y1="349.999" x2="720.002" y2="557.498" gradientUnits="userSpaceOnUse">
<stop stop-color="#FF1CF7"/>
<stop offset="1" stop-color="#00F0FF"/>
</linearGradient>
<linearGradient id="paint57_linear_12_12132" x1="720.001" y1="359.998" x2="720.001" y2="546.748" gradientUnits="userSpaceOnUse">
<stop stop-color="#FF1CF7"/>
<stop offset="1" stop-color="#00F0FF"/>
</linearGradient>
<linearGradient id="paint58_linear_12_12132" x1="720.001" y1="369.998" x2="720.001" y2="535.998" gradientUnits="userSpaceOnUse">
<stop stop-color="#FF1CF7"/>
<stop offset="1" stop-color="#00F0FF"/>
</linearGradient>
<clipPath id="clip0_12_12132">
<rect width="1440" height="900" fill="white"/>
</clipPath>
</defs>
</svg>
