<svg width="1440" height="900" viewBox="0 0 1440 900" fill="none" xmlns="http://www.w3.org/2000/svg">
<rect width="1440" height="900" fill="black"/>
<g opacity="0.0526316">
<rect x="645.897" y="726.558" width="404.908" height="404.908" transform="rotate(-120 645.897 726.558)" fill="black" stroke="url(#paint0_linear_10_123720)" stroke-width="2.5"/>
<rect x="539.819" y="672.507" width="404.908" height="404.908" transform="rotate(-96 539.819 672.507)" fill="black" stroke="url(#paint1_linear_10_123720)" stroke-width="2.5"/>
<rect x="464.894" y="579.984" width="404.908" height="404.908" transform="rotate(-72 464.894 579.984)" fill="black" stroke="url(#paint2_linear_10_123720)" stroke-width="2.5"/>
</g>
<g opacity="0.105263">
<rect x="546.119" y="664.726" width="390.746" height="390.746" transform="rotate(-96 546.119 664.726)" fill="black" stroke="url(#paint3_linear_10_123720)" stroke-width="2.5"/>
<rect x="473.816" y="575.437" width="390.746" height="390.746" transform="rotate(-72 473.816 575.437)" fill="black" stroke="url(#paint4_linear_10_123720)" stroke-width="2.5"/>
<rect x="444.08" y="464.461" width="390.746" height="390.746" transform="rotate(-48 444.08 464.461)" fill="black" stroke="url(#paint5_linear_10_123720)" stroke-width="2.5"/>
</g>
<g opacity="0.157895">
<rect x="482.738" y="570.891" width="376.585" height="376.585" transform="rotate(-72 482.738 570.891)" fill="black" stroke="url(#paint6_linear_10_123720)" stroke-width="2.5"/>
<rect x="454.081" y="463.938" width="376.585" height="376.585" transform="rotate(-48 454.081 463.938)" fill="black" stroke="url(#paint7_linear_10_123720)" stroke-width="2.5"/>
<rect x="471.402" y="354.573" width="376.585" height="376.585" transform="rotate(-24 471.402 354.573)" fill="black" stroke="url(#paint8_linear_10_123720)" stroke-width="2.5"/>
</g>
<g opacity="0.210526">
<rect x="464.079" y="463.413" width="362.423" height="362.423" transform="rotate(-48 464.079 463.413)" fill="black" stroke="url(#paint9_linear_10_123720)" stroke-width="2.5"/>
<rect x="480.75" y="358.162" width="362.423" height="362.423" transform="rotate(-24 480.75 358.162)" fill="black" stroke="url(#paint10_linear_10_123720)" stroke-width="2.5"/>
<rect x="538.789" y="268.79" width="362.423" height="362.423" fill="black" stroke="url(#paint11_linear_10_123720)" stroke-width="2.5"/>
</g>
<g opacity="0.263158">
<rect x="490.098" y="361.75" width="348.262" height="348.262" transform="rotate(-24 490.098 361.75)" fill="black" stroke="url(#paint12_linear_10_123720)" stroke-width="2.5"/>
<rect x="545.87" y="275.872" width="348.262" height="348.262" fill="black" stroke="url(#paint13_linear_10_123720)" stroke-width="2.5"/>
<rect x="631.749" y="220.101" width="348.262" height="348.262" transform="rotate(24 631.749 220.101)" fill="black" stroke="url(#paint14_linear_10_123720)" stroke-width="2.5"/>
</g>
<g opacity="0.315789">
<rect x="552.95" y="282.95" width="334.1" height="334.1" fill="black" stroke="url(#paint15_linear_10_123720)" stroke-width="2.5"/>
<rect x="635.338" y="229.448" width="334.1" height="334.1" transform="rotate(24 635.338 229.448)" fill="black" stroke="url(#paint16_linear_10_123720)" stroke-width="2.5"/>
<rect x="732.364" y="214.081" width="334.1" height="334.1" transform="rotate(48 732.364 214.081)" fill="black" stroke="url(#paint17_linear_10_123720)" stroke-width="2.5"/>
</g>
<g opacity="0.368421">
<rect x="638.926" y="238.796" width="319.939" height="319.939" transform="rotate(24 638.926 238.796)" fill="black" stroke="url(#paint18_linear_10_123720)" stroke-width="2.5"/>
<rect x="731.84" y="224.081" width="319.939" height="319.939" transform="rotate(48 731.84 224.081)" fill="black" stroke="url(#paint19_linear_10_123720)" stroke-width="2.5"/>
<rect x="822.706" y="248.428" width="319.939" height="319.939" transform="rotate(72 822.706 248.428)" fill="black" stroke="url(#paint20_linear_10_123720)" stroke-width="2.5"/>
</g>
<g opacity="0.421053">
<rect x="731.316" y="234.08" width="305.777" height="305.777" transform="rotate(48 731.316 234.08)" fill="black" stroke="url(#paint21_linear_10_123720)" stroke-width="2.5"/>
<rect x="818.16" y="257.351" width="305.777" height="305.777" transform="rotate(72 818.16 257.351)" fill="black" stroke="url(#paint22_linear_10_123720)" stroke-width="2.5"/>
<rect x="888.032" y="313.932" width="305.777" height="305.777" transform="rotate(96 888.032 313.932)" fill="black" stroke="url(#paint23_linear_10_123720)" stroke-width="2.5"/>
</g>
<g opacity="0.473684">
<rect x="813.615" y="266.272" width="291.615" height="291.615" transform="rotate(72 813.615 266.272)" fill="black" stroke="url(#paint24_linear_10_123720)" stroke-width="2.5"/>
<rect x="880.249" y="320.233" width="291.615" height="291.615" transform="rotate(96 880.249 320.233)" fill="black" stroke="url(#paint25_linear_10_123720)" stroke-width="2.5"/>
<rect x="919.177" y="396.632" width="291.615" height="291.615" transform="rotate(120 919.177 396.632)" fill="black" stroke="url(#paint26_linear_10_123720)" stroke-width="2.5"/>
</g>
<g opacity="0.526316">
<rect x="872.469" y="326.535" width="277.454" height="277.454" transform="rotate(96 872.469 326.535)" fill="black" stroke="url(#paint27_linear_10_123720)" stroke-width="2.5"/>
<rect x="909.504" y="399.223" width="277.454" height="277.454" transform="rotate(120 909.504 399.223)" fill="black" stroke="url(#paint28_linear_10_123720)" stroke-width="2.5"/>
<rect x="913.774" y="480.691" width="277.454" height="277.454" transform="rotate(144 913.774 480.691)" fill="black" stroke="url(#paint29_linear_10_123720)" stroke-width="2.5"/>
</g>
<g opacity="0.578947">
<rect x="899.832" y="401.816" width="263.292" height="263.292" transform="rotate(120 899.832 401.816)" fill="black" stroke="url(#paint30_linear_10_123720)" stroke-width="2.5"/>
<rect x="903.883" y="479.125" width="263.292" height="263.292" transform="rotate(144 903.883 479.125)" fill="black" stroke="url(#paint31_linear_10_123720)" stroke-width="2.5"/>
<rect x="876.139" y="551.4" width="263.292" height="263.292" transform="rotate(168 876.139 551.4)" fill="black" stroke="url(#paint32_linear_10_123720)" stroke-width="2.5"/>
</g>
<g opacity="0.631579">
<rect x="893.994" y="477.559" width="249.131" height="249.131" transform="rotate(144 893.994 477.559)" fill="black" stroke="url(#paint33_linear_10_123720)" stroke-width="2.5"/>
<rect x="867.742" y="545.945" width="249.131" height="249.131" transform="rotate(168 867.742 545.945)" fill="black" stroke="url(#paint34_linear_10_123720)" stroke-width="2.5"/>
<rect x="815.945" y="597.742" width="249.131" height="249.131" transform="rotate(-168 815.945 597.742)" fill="black" stroke="url(#paint35_linear_10_123720)" stroke-width="2.5"/>
</g>
<g opacity="0.684211">
<rect x="859.344" y="540.491" width="234.969" height="234.969" transform="rotate(168 859.344 540.491)" fill="black" stroke="url(#paint36_linear_10_123720)" stroke-width="2.5"/>
<rect x="810.491" y="589.344" width="234.969" height="234.969" transform="rotate(-168 810.491 589.344)" fill="black" stroke="url(#paint37_linear_10_123720)" stroke-width="2.5"/>
<rect x="745.991" y="614.103" width="234.969" height="234.969" transform="rotate(-144 745.991 614.103)" fill="black" stroke="url(#paint38_linear_10_123720)" stroke-width="2.5"/>
</g>
<g opacity="0.736842">
<rect x="805.038" y="580.947" width="220.808" height="220.808" transform="rotate(-168 805.038 580.947)" fill="black" stroke="url(#paint39_linear_10_123720)" stroke-width="2.5"/>
<rect x="744.425" y="604.213" width="220.808" height="220.808" transform="rotate(-144 744.425 604.213)" fill="black" stroke="url(#paint40_linear_10_123720)" stroke-width="2.5"/>
<rect x="679.59" y="600.816" width="220.808" height="220.808" transform="rotate(-120 679.59 600.816)" fill="black" stroke="url(#paint41_linear_10_123720)" stroke-width="2.5"/>
</g>
<g opacity="0.789474">
<rect x="742.858" y="594.323" width="206.646" height="206.646" transform="rotate(-144 742.858 594.323)" fill="black" stroke="url(#paint42_linear_10_123720)" stroke-width="2.5"/>
<rect x="682.181" y="591.142" width="206.646" height="206.646" transform="rotate(-120 682.181 591.142)" fill="black" stroke="url(#paint43_linear_10_123720)" stroke-width="2.5"/>
<rect x="628.043" y="563.558" width="206.646" height="206.646" transform="rotate(-96 628.043 563.558)" fill="black" stroke="url(#paint44_linear_10_123720)" stroke-width="2.5"/>
</g>
<g opacity="0.842105">
<rect x="684.773" y="581.47" width="192.485" height="192.485" transform="rotate(-120 684.773 581.47)" fill="black" stroke="url(#paint45_linear_10_123720)" stroke-width="2.5"/>
<rect x="634.345" y="555.776" width="192.485" height="192.485" transform="rotate(-96 634.345 555.776)" fill="black" stroke="url(#paint46_linear_10_123720)" stroke-width="2.5"/>
<rect x="598.728" y="511.792" width="192.485" height="192.485" transform="rotate(-72 598.728 511.792)" fill="black" stroke="url(#paint47_linear_10_123720)" stroke-width="2.5"/>
</g>
<g opacity="0.894737">
<rect x="640.647" y="547.994" width="178.323" height="178.323" transform="rotate(-96 640.647 547.994)" fill="black" stroke="url(#paint48_linear_10_123720)" stroke-width="2.5"/>
<rect x="607.651" y="507.246" width="178.323" height="178.323" transform="rotate(-72 607.651 507.246)" fill="black" stroke="url(#paint49_linear_10_123720)" stroke-width="2.5"/>
<rect x="594.08" y="456.6" width="178.323" height="178.323" transform="rotate(-48 594.08 456.6)" fill="black" stroke="url(#paint50_linear_10_123720)" stroke-width="2.5"/>
</g>
<g opacity="0.947368">
<rect x="616.572" y="502.699" width="164.162" height="164.162" transform="rotate(-72 616.572 502.699)" fill="black" stroke="url(#paint51_linear_10_123720)" stroke-width="2.5"/>
<rect x="604.08" y="456.075" width="164.162" height="164.162" transform="rotate(-48 604.08 456.075)" fill="black" stroke="url(#paint52_linear_10_123720)" stroke-width="2.5"/>
<rect x="611.631" y="408.401" width="164.162" height="164.162" transform="rotate(-24 611.631 408.401)" fill="black" stroke="url(#paint53_linear_10_123720)" stroke-width="2.5"/>
</g>
<rect x="614.079" y="455.552" width="150" height="150" transform="rotate(-48 614.079 455.552)" fill="black" stroke="url(#paint54_linear_10_123720)" stroke-width="2.5"/>
<rect x="620.979" y="411.99" width="150" height="150" transform="rotate(-24 620.979 411.99)" fill="black" stroke="url(#paint55_linear_10_123720)" stroke-width="2.5"/>
<rect x="645" y="375.001" width="150" height="150" fill="black" stroke="url(#paint56_linear_10_123720)" stroke-width="2.5"/>
<defs>
<linearGradient id="paint0_linear_10_123720" x1="645.897" y1="929.012" x2="1050.8" y2="929.012" gradientUnits="userSpaceOnUse">
<stop stop-color="#00F0FF"/>
<stop offset="1" stop-color="#FF1CF7"/>
</linearGradient>
<linearGradient id="paint1_linear_10_123720" x1="539.819" y1="874.961" x2="944.726" y2="874.961" gradientUnits="userSpaceOnUse">
<stop stop-color="#00F0FF"/>
<stop offset="1" stop-color="#FF1CF7"/>
</linearGradient>
<linearGradient id="paint2_linear_10_123720" x1="464.894" y1="782.438" x2="869.802" y2="782.438" gradientUnits="userSpaceOnUse">
<stop stop-color="#00F0FF"/>
<stop offset="1" stop-color="#FF1CF7"/>
</linearGradient>
<linearGradient id="paint3_linear_10_123720" x1="546.119" y1="860.099" x2="936.865" y2="860.099" gradientUnits="userSpaceOnUse">
<stop stop-color="#00F0FF"/>
<stop offset="1" stop-color="#FF1CF7"/>
</linearGradient>
<linearGradient id="paint4_linear_10_123720" x1="473.816" y1="770.81" x2="864.562" y2="770.81" gradientUnits="userSpaceOnUse">
<stop stop-color="#00F0FF"/>
<stop offset="1" stop-color="#FF1CF7"/>
</linearGradient>
<linearGradient id="paint5_linear_10_123720" x1="444.08" y1="659.834" x2="834.826" y2="659.834" gradientUnits="userSpaceOnUse">
<stop stop-color="#00F0FF"/>
<stop offset="1" stop-color="#FF1CF7"/>
</linearGradient>
<linearGradient id="paint6_linear_10_123720" x1="482.738" y1="759.184" x2="859.322" y2="759.184" gradientUnits="userSpaceOnUse">
<stop stop-color="#00F0FF"/>
<stop offset="1" stop-color="#FF1CF7"/>
</linearGradient>
<linearGradient id="paint7_linear_10_123720" x1="454.081" y1="652.23" x2="830.665" y2="652.23" gradientUnits="userSpaceOnUse">
<stop stop-color="#00F0FF"/>
<stop offset="1" stop-color="#FF1CF7"/>
</linearGradient>
<linearGradient id="paint8_linear_10_123720" x1="471.402" y1="542.866" x2="847.987" y2="542.866" gradientUnits="userSpaceOnUse">
<stop stop-color="#00F0FF"/>
<stop offset="1" stop-color="#FF1CF7"/>
</linearGradient>
<linearGradient id="paint9_linear_10_123720" x1="464.079" y1="644.624" x2="826.502" y2="644.624" gradientUnits="userSpaceOnUse">
<stop stop-color="#00F0FF"/>
<stop offset="1" stop-color="#FF1CF7"/>
</linearGradient>
<linearGradient id="paint10_linear_10_123720" x1="480.75" y1="539.373" x2="843.173" y2="539.373" gradientUnits="userSpaceOnUse">
<stop stop-color="#00F0FF"/>
<stop offset="1" stop-color="#FF1CF7"/>
</linearGradient>
<linearGradient id="paint11_linear_10_123720" x1="538.789" y1="450.001" x2="901.212" y2="450.001" gradientUnits="userSpaceOnUse">
<stop stop-color="#00F0FF"/>
<stop offset="1" stop-color="#FF1CF7"/>
</linearGradient>
<linearGradient id="paint12_linear_10_123720" x1="490.098" y1="535.881" x2="838.36" y2="535.881" gradientUnits="userSpaceOnUse">
<stop stop-color="#00F0FF"/>
<stop offset="1" stop-color="#FF1CF7"/>
</linearGradient>
<linearGradient id="paint13_linear_10_123720" x1="545.87" y1="450.003" x2="894.131" y2="450.003" gradientUnits="userSpaceOnUse">
<stop stop-color="#00F0FF"/>
<stop offset="1" stop-color="#FF1CF7"/>
</linearGradient>
<linearGradient id="paint14_linear_10_123720" x1="631.749" y1="394.232" x2="980.01" y2="394.232" gradientUnits="userSpaceOnUse">
<stop stop-color="#00F0FF"/>
<stop offset="1" stop-color="#FF1CF7"/>
</linearGradient>
<linearGradient id="paint15_linear_10_123720" x1="552.95" y1="450" x2="887.05" y2="450" gradientUnits="userSpaceOnUse">
<stop stop-color="#00F0FF"/>
<stop offset="1" stop-color="#FF1CF7"/>
</linearGradient>
<linearGradient id="paint16_linear_10_123720" x1="635.338" y1="396.498" x2="969.438" y2="396.498" gradientUnits="userSpaceOnUse">
<stop stop-color="#00F0FF"/>
<stop offset="1" stop-color="#FF1CF7"/>
</linearGradient>
<linearGradient id="paint17_linear_10_123720" x1="732.364" y1="381.131" x2="1066.46" y2="381.131" gradientUnits="userSpaceOnUse">
<stop stop-color="#00F0FF"/>
<stop offset="1" stop-color="#FF1CF7"/>
</linearGradient>
<linearGradient id="paint18_linear_10_123720" x1="638.926" y1="398.766" x2="958.865" y2="398.766" gradientUnits="userSpaceOnUse">
<stop stop-color="#00F0FF"/>
<stop offset="1" stop-color="#FF1CF7"/>
</linearGradient>
<linearGradient id="paint19_linear_10_123720" x1="731.84" y1="384.05" x2="1051.78" y2="384.05" gradientUnits="userSpaceOnUse">
<stop stop-color="#00F0FF"/>
<stop offset="1" stop-color="#FF1CF7"/>
</linearGradient>
<linearGradient id="paint20_linear_10_123720" x1="822.706" y1="408.398" x2="1142.64" y2="408.398" gradientUnits="userSpaceOnUse">
<stop stop-color="#00F0FF"/>
<stop offset="1" stop-color="#FF1CF7"/>
</linearGradient>
<linearGradient id="paint21_linear_10_123720" x1="731.316" y1="386.969" x2="1037.09" y2="386.969" gradientUnits="userSpaceOnUse">
<stop stop-color="#00F0FF"/>
<stop offset="1" stop-color="#FF1CF7"/>
</linearGradient>
<linearGradient id="paint22_linear_10_123720" x1="818.16" y1="410.24" x2="1123.94" y2="410.24" gradientUnits="userSpaceOnUse">
<stop stop-color="#00F0FF"/>
<stop offset="1" stop-color="#FF1CF7"/>
</linearGradient>
<linearGradient id="paint23_linear_10_123720" x1="888.032" y1="466.82" x2="1193.81" y2="466.82" gradientUnits="userSpaceOnUse">
<stop stop-color="#00F0FF"/>
<stop offset="1" stop-color="#FF1CF7"/>
</linearGradient>
<linearGradient id="paint24_linear_10_123720" x1="813.615" y1="412.08" x2="1105.23" y2="412.08" gradientUnits="userSpaceOnUse">
<stop stop-color="#00F0FF"/>
<stop offset="1" stop-color="#FF1CF7"/>
</linearGradient>
<linearGradient id="paint25_linear_10_123720" x1="880.249" y1="466.041" x2="1171.86" y2="466.041" gradientUnits="userSpaceOnUse">
<stop stop-color="#00F0FF"/>
<stop offset="1" stop-color="#FF1CF7"/>
</linearGradient>
<linearGradient id="paint26_linear_10_123720" x1="919.177" y1="542.439" x2="1210.79" y2="542.439" gradientUnits="userSpaceOnUse">
<stop stop-color="#00F0FF"/>
<stop offset="1" stop-color="#FF1CF7"/>
</linearGradient>
<linearGradient id="paint27_linear_10_123720" x1="872.469" y1="465.262" x2="1149.92" y2="465.262" gradientUnits="userSpaceOnUse">
<stop stop-color="#00F0FF"/>
<stop offset="1" stop-color="#FF1CF7"/>
</linearGradient>
<linearGradient id="paint28_linear_10_123720" x1="909.504" y1="537.95" x2="1186.96" y2="537.95" gradientUnits="userSpaceOnUse">
<stop stop-color="#00F0FF"/>
<stop offset="1" stop-color="#FF1CF7"/>
</linearGradient>
<linearGradient id="paint29_linear_10_123720" x1="913.774" y1="619.418" x2="1191.23" y2="619.418" gradientUnits="userSpaceOnUse">
<stop stop-color="#00F0FF"/>
<stop offset="1" stop-color="#FF1CF7"/>
</linearGradient>
<linearGradient id="paint30_linear_10_123720" x1="899.832" y1="533.462" x2="1163.12" y2="533.462" gradientUnits="userSpaceOnUse">
<stop stop-color="#00F0FF"/>
<stop offset="1" stop-color="#FF1CF7"/>
</linearGradient>
<linearGradient id="paint31_linear_10_123720" x1="903.883" y1="610.772" x2="1167.18" y2="610.772" gradientUnits="userSpaceOnUse">
<stop stop-color="#00F0FF"/>
<stop offset="1" stop-color="#FF1CF7"/>
</linearGradient>
<linearGradient id="paint32_linear_10_123720" x1="876.139" y1="683.046" x2="1139.43" y2="683.046" gradientUnits="userSpaceOnUse">
<stop stop-color="#00F0FF"/>
<stop offset="1" stop-color="#FF1CF7"/>
</linearGradient>
<linearGradient id="paint33_linear_10_123720" x1="893.994" y1="602.124" x2="1143.12" y2="602.124" gradientUnits="userSpaceOnUse">
<stop stop-color="#00F0FF"/>
<stop offset="1" stop-color="#FF1CF7"/>
</linearGradient>
<linearGradient id="paint34_linear_10_123720" x1="867.742" y1="670.511" x2="1116.87" y2="670.511" gradientUnits="userSpaceOnUse">
<stop stop-color="#00F0FF"/>
<stop offset="1" stop-color="#FF1CF7"/>
</linearGradient>
<linearGradient id="paint35_linear_10_123720" x1="815.945" y1="722.308" x2="1065.08" y2="722.308" gradientUnits="userSpaceOnUse">
<stop stop-color="#00F0FF"/>
<stop offset="1" stop-color="#FF1CF7"/>
</linearGradient>
<linearGradient id="paint36_linear_10_123720" x1="859.344" y1="657.976" x2="1094.31" y2="657.976" gradientUnits="userSpaceOnUse">
<stop stop-color="#00F0FF"/>
<stop offset="1" stop-color="#FF1CF7"/>
</linearGradient>
<linearGradient id="paint37_linear_10_123720" x1="810.491" y1="706.828" x2="1045.46" y2="706.828" gradientUnits="userSpaceOnUse">
<stop stop-color="#00F0FF"/>
<stop offset="1" stop-color="#FF1CF7"/>
</linearGradient>
<linearGradient id="paint38_linear_10_123720" x1="745.991" y1="731.587" x2="980.961" y2="731.587" gradientUnits="userSpaceOnUse">
<stop stop-color="#00F0FF"/>
<stop offset="1" stop-color="#FF1CF7"/>
</linearGradient>
<linearGradient id="paint39_linear_10_123720" x1="805.038" y1="691.351" x2="1025.85" y2="691.351" gradientUnits="userSpaceOnUse">
<stop stop-color="#00F0FF"/>
<stop offset="1" stop-color="#FF1CF7"/>
</linearGradient>
<linearGradient id="paint40_linear_10_123720" x1="744.425" y1="714.617" x2="965.233" y2="714.617" gradientUnits="userSpaceOnUse">
<stop stop-color="#00F0FF"/>
<stop offset="1" stop-color="#FF1CF7"/>
</linearGradient>
<linearGradient id="paint41_linear_10_123720" x1="679.59" y1="711.22" x2="900.398" y2="711.22" gradientUnits="userSpaceOnUse">
<stop stop-color="#00F0FF"/>
<stop offset="1" stop-color="#FF1CF7"/>
</linearGradient>
<linearGradient id="paint42_linear_10_123720" x1="742.858" y1="697.646" x2="949.504" y2="697.646" gradientUnits="userSpaceOnUse">
<stop stop-color="#00F0FF"/>
<stop offset="1" stop-color="#FF1CF7"/>
</linearGradient>
<linearGradient id="paint43_linear_10_123720" x1="682.181" y1="694.465" x2="888.827" y2="694.465" gradientUnits="userSpaceOnUse">
<stop stop-color="#00F0FF"/>
<stop offset="1" stop-color="#FF1CF7"/>
</linearGradient>
<linearGradient id="paint44_linear_10_123720" x1="628.043" y1="666.881" x2="834.689" y2="666.881" gradientUnits="userSpaceOnUse">
<stop stop-color="#00F0FF"/>
<stop offset="1" stop-color="#FF1CF7"/>
</linearGradient>
<linearGradient id="paint45_linear_10_123720" x1="684.773" y1="677.713" x2="877.257" y2="677.713" gradientUnits="userSpaceOnUse">
<stop stop-color="#00F0FF"/>
<stop offset="1" stop-color="#FF1CF7"/>
</linearGradient>
<linearGradient id="paint46_linear_10_123720" x1="634.345" y1="652.018" x2="826.83" y2="652.018" gradientUnits="userSpaceOnUse">
<stop stop-color="#00F0FF"/>
<stop offset="1" stop-color="#FF1CF7"/>
</linearGradient>
<linearGradient id="paint47_linear_10_123720" x1="598.728" y1="608.034" x2="791.213" y2="608.034" gradientUnits="userSpaceOnUse">
<stop stop-color="#00F0FF"/>
<stop offset="1" stop-color="#FF1CF7"/>
</linearGradient>
<linearGradient id="paint48_linear_10_123720" x1="640.647" y1="637.156" x2="818.97" y2="637.156" gradientUnits="userSpaceOnUse">
<stop stop-color="#00F0FF"/>
<stop offset="1" stop-color="#FF1CF7"/>
</linearGradient>
<linearGradient id="paint49_linear_10_123720" x1="607.651" y1="596.408" x2="785.974" y2="596.408" gradientUnits="userSpaceOnUse">
<stop stop-color="#00F0FF"/>
<stop offset="1" stop-color="#FF1CF7"/>
</linearGradient>
<linearGradient id="paint50_linear_10_123720" x1="594.08" y1="545.762" x2="772.403" y2="545.762" gradientUnits="userSpaceOnUse">
<stop stop-color="#00F0FF"/>
<stop offset="1" stop-color="#FF1CF7"/>
</linearGradient>
<linearGradient id="paint51_linear_10_123720" x1="616.572" y1="584.78" x2="780.734" y2="584.78" gradientUnits="userSpaceOnUse">
<stop stop-color="#00F0FF"/>
<stop offset="1" stop-color="#FF1CF7"/>
</linearGradient>
<linearGradient id="paint52_linear_10_123720" x1="604.08" y1="538.156" x2="768.241" y2="538.156" gradientUnits="userSpaceOnUse">
<stop stop-color="#00F0FF"/>
<stop offset="1" stop-color="#FF1CF7"/>
</linearGradient>
<linearGradient id="paint53_linear_10_123720" x1="611.631" y1="490.482" x2="775.792" y2="490.482" gradientUnits="userSpaceOnUse">
<stop stop-color="#00F0FF"/>
<stop offset="1" stop-color="#FF1CF7"/>
</linearGradient>
<linearGradient id="paint54_linear_10_123720" x1="614.079" y1="530.552" x2="764.079" y2="530.552" gradientUnits="userSpaceOnUse">
<stop stop-color="#00F0FF"/>
<stop offset="1" stop-color="#FF1CF7"/>
</linearGradient>
<linearGradient id="paint55_linear_10_123720" x1="620.979" y1="486.99" x2="770.979" y2="486.99" gradientUnits="userSpaceOnUse">
<stop stop-color="#00F0FF"/>
<stop offset="1" stop-color="#FF1CF7"/>
</linearGradient>
<linearGradient id="paint56_linear_10_123720" x1="645" y1="450.001" x2="795" y2="450.001" gradientUnits="userSpaceOnUse">
<stop stop-color="#00F0FF"/>
<stop offset="1" stop-color="#FF1CF7"/>
</linearGradient>
</defs>
</svg>
