<svg width="1440" height="900" viewBox="0 0 1440 900" fill="none" xmlns="http://www.w3.org/2000/svg">
<rect width="1440" height="900" fill="black"/>
<g opacity="0.0416667">
<rect x="406.687" y="582.993" width="481.357" height="481.357" transform="rotate(-68 406.687 582.993)" fill="#FF1CF7" stroke="black" stroke-width="0.5"/>
<rect x="385.883" y="385.055" width="481.357" height="481.357" transform="rotate(-34 385.883 385.055)" fill="#FF1CF7" stroke="black" stroke-width="0.5"/>
<rect x="479.322" y="209.322" width="481.357" height="481.357" fill="#FF1CF7" stroke="black" stroke-width="0.5"/>
</g>
<g opacity="0.0833333">
<rect x="416.064" y="579.013" width="466.95" height="466.95" transform="rotate(-68 416.064 579.013)" fill="#FF1CF7" stroke="black" stroke-width="0.5"/>
<rect x="395.883" y="386.999" width="466.95" height="466.95" transform="rotate(-34 395.883 386.999)" fill="#FF1CF7" stroke="black" stroke-width="0.5"/>
<rect x="486.525" y="216.526" width="466.95" height="466.95" fill="#FF1CF7" stroke="black" stroke-width="0.5"/>
</g>
<g opacity="0.125">
<rect x="425.442" y="575.032" width="452.543" height="452.543" transform="rotate(-68 425.442 575.032)" fill="#FF1CF7" stroke="black" stroke-width="0.5"/>
<rect x="405.883" y="388.943" width="452.543" height="452.543" transform="rotate(-34 405.883 388.943)" fill="#FF1CF7" stroke="black" stroke-width="0.5"/>
<rect x="493.728" y="223.729" width="452.543" height="452.543" fill="#FF1CF7" stroke="black" stroke-width="0.5"/>
</g>
<g opacity="0.166667">
<rect x="434.819" y="571.052" width="438.137" height="438.137" transform="rotate(-68 434.819 571.052)" fill="#FF1CF7" stroke="black" stroke-width="0.5"/>
<rect x="415.883" y="390.887" width="438.137" height="438.137" transform="rotate(-34 415.883 390.887)" fill="#FF1CF7" stroke="black" stroke-width="0.5"/>
<rect x="500.932" y="230.933" width="438.137" height="438.137" fill="#FF1CF7" stroke="black" stroke-width="0.5"/>
</g>
<g opacity="0.208333">
<rect x="444.196" y="567.071" width="423.73" height="423.73" transform="rotate(-68 444.196 567.071)" fill="#FF1CF7" stroke="black" stroke-width="0.5"/>
<rect x="425.883" y="392.831" width="423.73" height="423.73" transform="rotate(-34 425.883 392.831)" fill="#FF1CF7" stroke="black" stroke-width="0.5"/>
<rect x="508.135" y="238.136" width="423.73" height="423.73" fill="#FF1CF7" stroke="black" stroke-width="0.5"/>
</g>
<g opacity="0.25">
<rect x="453.574" y="563.091" width="409.323" height="409.323" transform="rotate(-68 453.574 563.091)" fill="#FF1CF7" stroke="black" stroke-width="0.5"/>
<rect x="435.883" y="394.774" width="409.323" height="409.323" transform="rotate(-34 435.883 394.774)" fill="#FF1CF7" stroke="black" stroke-width="0.5"/>
<rect x="515.339" y="245.339" width="409.323" height="409.323" fill="#FF1CF7" stroke="black" stroke-width="0.5"/>
</g>
<g opacity="0.291667">
<rect x="462.951" y="559.11" width="394.916" height="394.916" transform="rotate(-68 462.951 559.11)" fill="#FF5AFA" stroke="black" stroke-width="0.5"/>
<rect x="445.883" y="396.718" width="394.916" height="394.916" transform="rotate(-34 445.883 396.718)" fill="#FF5AFA" stroke="black" stroke-width="0.5"/>
<rect x="522.542" y="252.543" width="394.916" height="394.916" fill="#FF5AFA" stroke="black" stroke-width="0.5"/>
</g>
<g opacity="0.333333">
<rect x="472.328" y="555.13" width="380.509" height="380.509" transform="rotate(-68 472.328 555.13)" fill="#FF5AFA" stroke="black" stroke-width="0.5"/>
<rect x="455.883" y="398.662" width="380.509" height="380.509" transform="rotate(-34 455.883 398.662)" fill="#FF5AFA" stroke="black" stroke-width="0.5"/>
<rect x="529.745" y="259.746" width="380.509" height="380.509" fill="#FF5AFA" stroke="black" stroke-width="0.5"/>
</g>
<g opacity="0.375">
<rect x="481.706" y="551.15" width="366.102" height="366.102" transform="rotate(-68 481.706 551.15)" fill="#FF5AFA" stroke="black" stroke-width="0.5"/>
<rect x="465.883" y="400.605" width="366.102" height="366.102" transform="rotate(-34 465.883 400.605)" fill="#FF5AFA" stroke="black" stroke-width="0.5"/>
<rect x="536.949" y="266.95" width="366.102" height="366.102" fill="#FF5AFA" stroke="black" stroke-width="0.5"/>
</g>
<g opacity="0.416667">
<rect x="491.083" y="547.169" width="351.696" height="351.696" transform="rotate(-68 491.083 547.169)" fill="#CE42FF" stroke="black" stroke-width="0.5"/>
<rect x="475.883" y="402.549" width="351.696" height="351.696" transform="rotate(-34 475.883 402.549)" fill="#CE42FF" stroke="black" stroke-width="0.5"/>
<rect x="544.152" y="274.153" width="351.696" height="351.696" fill="#CE42FF" stroke="black" stroke-width="0.5"/>
</g>
<g opacity="0.458333">
<rect x="500.46" y="543.189" width="337.289" height="337.289" transform="rotate(-68 500.46 543.189)" fill="#CE42FF" stroke="black" stroke-width="0.5"/>
<rect x="485.883" y="404.493" width="337.289" height="337.289" transform="rotate(-34 485.883 404.493)" fill="#CE42FF" stroke="black" stroke-width="0.5"/>
<rect x="551.355" y="281.356" width="337.289" height="337.289" fill="#CE42FF" stroke="black" stroke-width="0.5"/>
</g>
<g opacity="0.5">
<rect x="509.838" y="539.208" width="322.882" height="322.882" transform="rotate(-68 509.838 539.208)" fill="#CE42FF" stroke="black" stroke-width="0.5"/>
<rect x="495.883" y="406.437" width="322.882" height="322.882" transform="rotate(-34 495.883 406.437)" fill="#CE42FF" stroke="black" stroke-width="0.5"/>
<rect x="558.559" y="288.56" width="322.882" height="322.882" fill="#CE42FF" stroke="black" stroke-width="0.5"/>
</g>
<g opacity="0.541667">
<rect x="519.215" y="535.228" width="308.475" height="308.475" transform="rotate(-68 519.215 535.228)" fill="#CE42FF" stroke="black" stroke-width="0.5"/>
<rect x="505.883" y="408.381" width="308.475" height="308.475" transform="rotate(-34 505.883 408.381)" fill="#CE42FF" stroke="black" stroke-width="0.5"/>
<rect x="565.762" y="295.763" width="308.475" height="308.475" fill="#CE42FF" stroke="black" stroke-width="0.5"/>
</g>
<g opacity="0.583333">
<rect x="528.592" y="531.248" width="294.068" height="294.068" transform="rotate(-68 528.592 531.248)" fill="#CE42FF" stroke="black" stroke-width="0.5"/>
<rect x="515.883" y="410.325" width="294.068" height="294.068" transform="rotate(-34 515.883 410.325)" fill="#CE42FF" stroke="black" stroke-width="0.5"/>
<rect x="572.966" y="302.967" width="294.068" height="294.068" fill="#CE42FF" stroke="black" stroke-width="0.5"/>
</g>
<g opacity="0.625">
<rect x="537.97" y="527.268" width="279.661" height="279.661" transform="rotate(-68 537.97 527.268)" fill="#CE42FF" stroke="black" stroke-width="0.5"/>
<rect x="525.883" y="412.269" width="279.661" height="279.661" transform="rotate(-34 525.883 412.269)" fill="#CE42FF" stroke="black" stroke-width="0.5"/>
<rect x="580.169" y="310.17" width="279.661" height="279.661" fill="#CE42FF" stroke="black" stroke-width="0.5"/>
</g>
<g opacity="0.666667">
<rect x="547.347" y="523.287" width="265.255" height="265.255" transform="rotate(-68 547.347 523.287)" fill="#B61CFF" stroke="black" stroke-width="0.5"/>
<rect x="535.883" y="414.212" width="265.255" height="265.255" transform="rotate(-34 535.883 414.212)" fill="#B61CFF" stroke="black" stroke-width="0.5"/>
<rect x="587.373" y="317.374" width="265.255" height="265.255" fill="#B61CFF" stroke="black" stroke-width="0.5"/>
</g>
<g opacity="0.708333">
<rect x="556.724" y="519.307" width="250.848" height="250.848" transform="rotate(-68 556.724 519.307)" fill="#B61CFF" stroke="black" stroke-width="0.5"/>
<rect x="545.883" y="416.156" width="250.848" height="250.848" transform="rotate(-34 545.883 416.156)" fill="#B61CFF" stroke="black" stroke-width="0.5"/>
<rect x="594.576" y="324.577" width="250.848" height="250.848" fill="#B61CFF" stroke="black" stroke-width="0.5"/>
</g>
<g opacity="0.75">
<rect x="566.102" y="515.326" width="236.441" height="236.441" transform="rotate(-68 566.102 515.326)" fill="#B61CFF" stroke="black" stroke-width="0.5"/>
<rect x="555.883" y="418.1" width="236.441" height="236.441" transform="rotate(-34 555.883 418.1)" fill="#B61CFF" stroke="black" stroke-width="0.5"/>
<rect x="601.779" y="331.78" width="236.441" height="236.441" fill="#B61CFF" stroke="black" stroke-width="0.5"/>
</g>
<g opacity="0.791667">
<rect x="575.479" y="511.346" width="222.034" height="222.034" transform="rotate(-68 575.479 511.346)" fill="#B61CFF" stroke="black" stroke-width="0.5"/>
<rect x="565.883" y="420.043" width="222.034" height="222.034" transform="rotate(-34 565.883 420.043)" fill="#B61CFF" stroke="black" stroke-width="0.5"/>
<rect x="608.983" y="338.984" width="222.034" height="222.034" fill="#B61CFF" stroke="black" stroke-width="0.5"/>
</g>
<g opacity="0.833333">
<rect x="584.856" y="507.365" width="207.627" height="207.627" transform="rotate(-68 584.856 507.365)" fill="#B61CFF" stroke="black" stroke-width="0.5"/>
<rect x="575.883" y="421.987" width="207.627" height="207.627" transform="rotate(-34 575.883 421.987)" fill="#B61CFF" stroke="black" stroke-width="0.5"/>
<rect x="616.186" y="346.188" width="207.627" height="207.627" fill="#B61CFF" stroke="black" stroke-width="0.5"/>
</g>
<g opacity="0.875">
<rect x="594.234" y="503.385" width="193.22" height="193.22" transform="rotate(-68 594.234 503.385)" fill="#B61CFF" stroke="black" stroke-width="0.5"/>
<rect x="585.883" y="423.931" width="193.221" height="193.221" transform="rotate(-34 585.883 423.931)" fill="#B61CFF" stroke="black" stroke-width="0.5"/>
<rect x="623.39" y="353.391" width="193.22" height="193.22" fill="#B61CFF" stroke="black" stroke-width="0.5"/>
</g>
<g opacity="0.916667">
<rect x="603.611" y="499.405" width="178.814" height="178.814" transform="rotate(-68 603.611 499.405)" fill="#B61CFF" stroke="black" stroke-width="0.5"/>
<rect x="595.883" y="425.875" width="178.814" height="178.814" transform="rotate(-34 595.883 425.875)" fill="#B61CFF" stroke="black" stroke-width="0.5"/>
<rect x="630.593" y="360.594" width="178.814" height="178.814" fill="#B61CFF" stroke="black" stroke-width="0.5"/>
</g>
<g opacity="0.958333">
<rect x="612.988" y="495.424" width="164.407" height="164.407" transform="rotate(-68 612.988 495.424)" fill="#801CFF" stroke="black" stroke-width="0.5"/>
<rect x="605.883" y="427.819" width="164.407" height="164.407" transform="rotate(-34 605.883 427.819)" fill="#801CFF" stroke="black" stroke-width="0.5"/>
<rect x="637.797" y="367.797" width="164.407" height="164.407" fill="#801CFF" stroke="black" stroke-width="0.5"/>
</g>
<rect x="622.366" y="491.443" width="150" height="150" transform="rotate(-68 622.366 491.443)" fill="#64C7FF" stroke="black" stroke-width="0.5"/>
<rect x="615.883" y="429.762" width="150" height="150" transform="rotate(-34 615.883 429.762)" fill="#64C7FF" stroke="black" stroke-width="0.5"/>
<rect x="645" y="375" width="150" height="150" fill="#00F0FF" stroke="black" stroke-width="0.5"/>
</svg>
