<svg width="1440" height="900" viewBox="0 0 1440 900" fill="none" xmlns="http://www.w3.org/2000/svg">
<rect width="1440" height="900" fill="black"/>
<path opacity="0.010101" d="M569.093 453.606C563.526 447.841 562.304 439.146 566.067 432.07L703.643 173.326C707.405 166.25 715.297 162.401 723.19 163.793L1011.78 214.679C1019.68 216.071 1025.77 222.387 1026.89 230.324L1067.67 520.516C1068.79 528.453 1064.67 536.205 1057.46 539.719L794.077 668.181C786.873 671.695 778.227 670.17 772.659 664.405L569.093 453.606Z" stroke="url(#paint0_linear_15_81546)" stroke-width="3"/>
<path opacity="0.020202" d="M565.799 449.997C560.333 444.135 559.263 435.421 563.149 428.411L704.935 172.622C708.82 165.613 716.778 161.902 724.645 163.431L1011.73 219.235C1019.6 220.764 1025.58 227.185 1026.56 235.14L1062.2 525.417C1063.18 533.372 1058.92 541.051 1051.66 544.438L786.603 668.036C779.339 671.423 770.72 669.748 765.254 663.886L565.799 449.997Z" stroke="url(#paint1_linear_15_81546)" stroke-width="3"/>
<path opacity="0.030303" d="M562.587 446.392C557.224 440.436 556.306 431.704 560.314 424.763L706.248 171.997C710.256 165.057 718.277 161.485 726.116 163.152L1011.61 223.835C1019.45 225.501 1025.32 232.026 1026.16 239.997L1056.67 530.267C1057.51 538.238 1053.12 545.841 1045.79 549.101L779.158 667.815C771.837 671.075 763.249 669.249 757.886 663.293L562.587 446.392Z" stroke="url(#paint2_linear_15_81546)" stroke-width="3"/>
<path opacity="0.040404" d="M559.456 442.794C554.198 436.746 553.432 427.999 557.56 421.129L707.581 171.452C711.709 164.582 719.791 161.152 727.6 162.955L1011.42 228.479C1019.23 230.282 1024.99 236.908 1025.68 244.892L1051.07 535.065C1051.77 543.049 1047.25 550.575 1039.87 553.707L771.744 667.519C764.367 670.651 755.812 668.676 750.553 662.627L559.456 442.794Z" stroke="url(#paint3_linear_15_81546)" stroke-width="3"/>
<path opacity="0.050505" d="M556.406 439.203C551.254 433.064 550.641 424.305 554.889 417.508L708.933 170.986C713.18 164.189 721.321 160.9 729.097 162.839L1011.16 233.164C1018.93 235.103 1024.58 241.829 1025.14 249.824L1045.41 539.81C1045.97 547.805 1041.32 555.251 1033.89 558.253L764.362 667.149C756.931 670.151 748.412 668.027 743.26 661.887L556.406 439.203Z" stroke="url(#paint4_linear_15_81546)" stroke-width="3"/>
<path opacity="0.0606061" d="M553.436 435.62C548.392 429.391 547.933 420.623 552.298 413.901L710.301 170.598C714.666 163.877 722.863 160.73 730.604 162.804L1010.82 237.889C1018.57 239.964 1024.09 246.787 1024.51 254.791L1039.69 544.499C1040.11 552.503 1035.33 559.866 1027.85 562.738L757.012 666.703C749.53 669.575 741.049 667.303 736.005 661.074L553.436 435.62Z" stroke="url(#paint5_linear_15_81546)" stroke-width="3"/>
<path opacity="0.0707071" d="M550.547 432.046C545.613 425.73 545.306 416.956 549.788 410.311L711.684 170.29C716.166 163.646 724.417 160.643 732.121 162.852L1010.42 242.654C1018.13 244.863 1023.53 251.782 1023.81 259.791L1033.92 549.133C1034.2 557.143 1029.29 564.422 1021.76 567.163L749.698 666.184C742.166 668.925 733.726 666.505 728.792 660.189L550.547 432.046Z" stroke="url(#paint6_linear_15_81546)" stroke-width="3"/>
<path opacity="0.0808081" d="M547.738 428.485C542.914 422.084 542.761 413.306 547.358 406.74L713.082 170.063C717.679 163.497 725.98 160.639 733.645 162.982L1009.95 247.457C1017.61 249.8 1022.9 256.812 1023.04 264.826L1028.08 553.712C1028.22 561.725 1023.18 568.918 1015.61 571.527L742.418 665.593C734.84 668.203 726.444 665.636 721.62 659.235L547.738 428.485Z" stroke="url(#paint7_linear_15_81546)" stroke-width="3"/>
<path opacity="0.0909091" d="M545.008 424.936C540.298 418.452 540.298 409.672 545.008 403.188L714.492 169.914C719.203 163.43 727.553 160.717 735.175 163.194L1009.41 252.296C1017.03 254.773 1022.19 261.876 1022.19 269.891V558.233C1022.19 566.248 1017.03 573.351 1009.41 575.828L735.175 664.93C727.553 667.407 719.203 664.694 714.492 658.21L545.008 424.936Z" stroke="url(#paint8_linear_15_81546)" stroke-width="3"/>
<path opacity="0.10101" d="M542.358 421.401C537.761 414.835 537.914 406.057 542.738 399.656L715.913 169.845C720.736 163.444 729.132 160.877 736.71 163.486L1008.79 257.17C1016.37 259.779 1021.4 266.971 1021.26 274.985L1016.24 562.696C1016.1 570.709 1010.82 577.721 1003.15 580.064L727.97 664.196C720.306 666.539 712.004 663.681 707.407 657.115L542.358 421.401Z" stroke="url(#paint9_linear_15_81546)" stroke-width="3"/>
<path opacity="0.111111" d="M539.787 417.882C535.305 411.237 535.612 402.463 540.546 396.147L717.343 169.857C722.278 163.541 730.718 161.121 738.249 163.862L1008.1 262.079C1015.63 264.82 1020.54 272.099 1020.26 280.109L1010.24 567.101C1009.96 575.11 1004.55 582.029 996.847 584.238L720.805 663.392C713.101 665.601 704.85 662.598 700.368 655.954L539.787 417.882Z" stroke="url(#paint10_linear_15_81546)" stroke-width="3"/>
<path opacity="0.121212" d="M537.294 414.379C532.929 407.657 533.388 398.889 538.432 392.66L718.782 169.947C723.826 163.718 732.307 161.446 739.789 164.318L1007.33 267.019C1014.82 269.891 1019.6 277.254 1019.18 285.258L1004.18 571.444C1003.76 579.448 998.235 586.271 990.494 588.346L713.68 662.518C705.938 664.592 697.741 661.446 693.376 654.724L537.294 414.379Z" stroke="url(#paint11_linear_15_81546)" stroke-width="3"/>
<path opacity="0.131313" d="M534.879 410.895C530.632 404.098 531.244 395.34 536.396 389.2L720.228 170.118C725.379 163.978 733.899 161.854 741.33 164.857L1006.5 271.991C1013.93 274.993 1018.58 282.439 1018.02 290.434L998.071 575.729C997.512 583.724 991.868 590.45 984.092 592.389L706.596 661.576C698.819 663.515 690.678 660.226 686.431 653.429L534.879 410.895Z" stroke="url(#paint12_linear_15_81546)" stroke-width="3"/>
<path opacity="0.141414" d="M532.541 407.431C528.414 400.561 529.179 391.814 534.437 385.765L721.678 170.369C726.936 164.32 735.491 162.345 742.869 165.476L1005.58 276.992C1012.96 280.124 1017.48 287.65 1016.79 295.634L991.911 579.952C991.212 587.936 985.452 594.562 977.643 596.365L699.554 660.567C691.745 662.37 683.663 658.939 679.535 652.069L532.541 407.431Z" stroke="url(#paint13_linear_15_81546)" stroke-width="3"/>
<path opacity="0.151515" d="M530.281 403.987C526.274 397.046 527.191 388.314 532.554 382.358L723.133 170.699C728.496 164.742 737.084 162.917 744.406 166.177L1004.6 282.022C1011.92 285.282 1016.31 292.885 1015.47 300.856L985.701 584.112C984.863 592.082 978.988 598.607 971.148 600.273L692.557 659.49C684.717 661.156 676.696 657.585 672.689 650.644L530.281 403.987Z" stroke="url(#paint14_linear_15_81546)" stroke-width="3"/>
<path opacity="0.161616" d="M528.097 400.565C524.211 393.556 525.281 384.841 530.747 378.979L724.59 171.108C730.056 165.247 738.675 163.571 745.939 166.959L1003.54 287.078C1010.8 290.466 1015.06 298.145 1014.08 306.1L979.442 588.209C978.465 596.164 972.477 602.585 964.61 604.115L685.604 658.348C677.736 659.877 669.779 656.166 665.893 649.157L528.097 400.565Z" stroke="url(#paint15_linear_15_81546)" stroke-width="3"/>
<path opacity="0.171717" d="M525.989 397.168C522.226 390.091 523.448 381.397 529.015 375.632L726.048 171.598C731.616 165.833 740.262 164.308 747.466 167.822L1002.4 292.161C1009.6 295.675 1013.73 303.427 1012.61 311.364L973.135 592.243C972.019 600.18 965.92 606.496 958.027 607.888L678.697 657.141C670.804 658.533 662.912 654.684 659.15 647.607L525.989 397.168Z" stroke="url(#paint16_linear_15_81546)" stroke-width="3"/>
<path opacity="0.181818" d="M523.956 393.795C520.317 386.654 521.691 377.982 527.358 372.315L727.506 172.167C733.174 166.499 741.845 165.126 748.987 168.764L1001.19 297.267C1008.33 300.906 1012.32 308.729 1011.06 316.645L966.782 596.213C965.529 604.129 959.32 610.337 951.404 611.591L671.837 655.87C663.921 657.124 656.098 653.138 652.459 645.997L523.956 393.795Z" stroke="url(#paint17_linear_15_81546)" stroke-width="3"/>
<path opacity="0.191919" d="M521.998 390.449C518.484 383.245 520.009 374.598 525.774 369.031L728.962 172.815C734.728 167.247 743.422 166.025 750.499 169.788L999.9 302.397C1006.98 306.16 1010.83 314.051 1009.43 321.944L960.384 600.117C958.993 608.01 952.677 614.109 944.74 615.225L665.024 654.536C657.088 655.652 649.336 651.53 645.822 644.326L521.998 390.449Z" stroke="url(#paint18_linear_15_81546)" stroke-width="3"/>
<path opacity="0.20202" d="M520.114 387.128C516.727 379.864 518.402 371.246 524.264 365.78L730.415 173.54C736.277 168.074 744.991 167.004 752.001 170.89L998.536 307.546C1005.55 311.432 1009.26 319.389 1007.73 327.257L953.943 603.954C952.413 611.822 945.992 617.81 938.037 618.787L658.262 653.139C650.307 654.115 642.627 649.859 639.24 642.595L520.114 387.128Z" stroke="url(#paint19_linear_15_81546)" stroke-width="3"/>
<path opacity="0.212121" d="M518.304 383.838C515.044 376.517 516.869 367.928 522.825 362.565L731.864 174.346C737.82 168.984 746.552 168.066 753.493 172.073L997.096 312.718C1004.04 316.725 1007.61 324.746 1005.94 332.585L947.458 607.728C945.792 615.567 939.267 621.442 931.296 622.28L651.548 651.683C643.578 652.52 635.974 648.13 632.714 640.809L518.304 383.838Z" stroke="url(#paint20_linear_15_81546)" stroke-width="3"/>
<path opacity="0.222222" d="M516.566 380.577C513.434 373.199 515.409 364.644 521.458 359.386L733.306 175.23C739.355 169.972 748.101 169.206 754.971 173.334L995.579 317.906C1002.45 322.034 1005.88 330.116 1004.08 337.925L940.932 611.432C939.13 619.241 932.503 625.001 924.519 625.7L644.886 650.165C636.902 650.863 629.376 646.341 626.244 638.964L516.566 380.577Z" stroke="url(#paint21_linear_15_81546)" stroke-width="3"/>
<path opacity="0.232323" d="M514.9 377.348C511.898 369.917 514.022 361.397 520.161 356.246L734.741 176.192C740.88 171.04 749.639 170.428 756.436 174.675L993.985 323.113C1000.78 327.36 1004.07 335.5 1002.13 343.277L934.367 615.07C932.428 622.846 925.702 628.49 917.707 629.049L638.276 648.589C630.281 649.148 622.835 644.495 619.832 637.064L514.9 377.348Z" stroke="url(#paint22_linear_15_81546)" stroke-width="3"/>
<path opacity="0.242424" d="M513.306 374.151C510.434 366.669 512.706 358.188 518.935 353.144L736.167 177.233C742.396 172.189 751.164 171.729 757.885 176.094L992.315 328.335C999.037 332.7 1002.18 340.897 1000.11 348.639L927.762 618.64C925.688 626.381 918.865 631.907 910.861 632.326L631.719 646.955C623.715 647.375 616.351 642.593 613.479 635.11L513.306 374.151Z" stroke="url(#paint23_linear_15_81546)" stroke-width="3"/>
<path opacity="0.252525" d="M511.783 370.987C509.041 363.455 511.462 355.015 517.777 350.081L737.583 178.35C743.899 173.416 752.674 173.109 759.318 177.591L990.568 333.571C997.212 338.053 1000.22 346.303 998.006 354.007L921.121 622.14C918.911 629.844 911.993 635.249 903.983 635.529L625.215 645.264C617.205 645.544 609.926 640.634 607.185 633.102L511.783 370.987Z" stroke="url(#paint24_linear_15_81546)" stroke-width="3"/>
<path opacity="0.262626" d="M510.329 367.857C507.72 360.279 510.287 351.883 516.688 347.06L738.988 179.544C745.389 174.721 754.167 174.568 760.733 179.165L988.744 338.82C995.309 343.417 998.167 351.718 995.824 359.383L914.442 625.57C912.099 633.235 905.087 638.519 897.074 638.659L618.766 643.517C610.752 643.656 603.56 638.62 600.951 631.042L510.329 367.857Z" stroke="url(#paint25_linear_15_81546)" stroke-width="3"/>
<path opacity="0.272727" d="M508.945 364.765C506.468 357.142 509.181 348.792 515.665 344.081L740.38 180.816C746.864 176.106 755.644 176.106 762.128 180.816L986.842 344.081C993.326 348.792 996.039 357.142 993.563 364.765L907.729 628.932C905.253 636.555 898.15 641.715 890.135 641.715L612.373 641.715C604.358 641.715 597.255 636.555 594.778 628.932L508.945 364.765Z" stroke="url(#paint26_linear_15_81546)" stroke-width="3"/>
<path opacity="0.282828" d="M507.629 361.709C505.286 354.044 508.144 345.743 514.71 341.146L741.758 182.165C748.323 177.568 757.102 177.721 763.502 182.545L984.864 349.352C991.264 354.176 993.831 362.572 991.222 370.15L900.983 632.224C898.374 639.802 891.181 644.838 883.168 644.698L606.036 639.86C598.022 639.721 591.01 634.437 588.667 626.772L507.629 361.709Z" stroke="url(#paint27_linear_15_81546)" stroke-width="3"/>
<path opacity="0.292929" d="M506.381 358.692C504.172 350.988 507.175 342.737 513.819 338.255L743.12 183.59C749.764 179.108 758.539 179.415 764.855 184.349L982.808 354.633C989.124 359.567 991.544 368.007 988.803 375.538L894.204 635.445C891.463 642.976 884.184 647.886 876.174 647.606L599.756 637.953C591.746 637.674 584.828 632.268 582.619 624.564L506.381 358.692Z" stroke="url(#paint28_linear_15_81546)" stroke-width="3"/>
<path opacity="0.30303" d="M505.199 355.713C503.125 347.971 506.272 339.775 512.993 335.409L744.465 185.09C751.187 180.725 759.955 181.184 766.184 186.228L980.675 359.92C986.904 364.963 989.176 373.444 986.304 380.927L887.395 638.594C884.522 646.076 877.159 650.858 869.155 650.439L593.535 635.994C585.531 635.574 578.708 630.049 576.633 622.307L505.199 355.713Z" stroke="url(#paint29_linear_15_81546)" stroke-width="3"/>
<path opacity="0.313131" d="M504.084 352.776C502.145 344.999 505.434 336.859 512.231 332.611L745.793 186.666C752.59 182.419 761.348 183.031 767.488 188.183L978.465 365.214C984.605 370.365 986.729 378.885 983.726 386.316L880.555 641.672C877.553 649.104 870.107 653.756 862.112 653.197L587.372 633.985C579.377 633.426 572.651 627.783 570.712 620.006L504.084 352.776Z" stroke="url(#paint30_linear_15_81546)" stroke-width="3"/>
<path opacity="0.323232" d="M503.034 349.879C501.231 342.07 504.661 333.987 511.531 329.86L747.101 188.315C753.971 184.187 762.717 184.953 768.766 190.211L976.178 370.511C982.227 375.769 984.202 384.324 981.07 391.702L873.688 644.678C870.556 652.055 863.031 656.577 855.046 655.879L581.269 631.926C573.285 631.228 566.658 625.468 564.855 617.658L503.034 349.879Z" stroke="url(#paint31_linear_15_81546)" stroke-width="3"/>
<path opacity="0.333333" d="M502.048 347.026C500.381 339.186 503.952 331.165 510.893 327.158L748.388 190.04C755.329 186.033 764.061 186.95 770.017 192.313L973.814 375.813C979.77 381.175 981.595 389.764 978.335 397.085L866.794 647.612C863.534 654.934 855.93 659.324 847.959 658.486L575.226 629.821C567.255 628.983 560.731 623.108 559.064 615.268L502.048 347.026Z" stroke="url(#paint32_linear_15_81546)" stroke-width="3"/>
<path opacity="0.343434" d="M501.124 344.215C499.595 336.348 503.306 328.39 510.316 324.505L749.653 191.838C756.663 187.952 765.378 189.022 771.239 194.488L971.372 381.115C977.234 386.581 978.909 395.2 975.522 402.464L859.874 650.473C856.487 657.737 848.807 661.993 840.852 661.017L569.244 627.667C561.289 626.691 554.868 620.703 553.339 612.835L501.124 344.215Z" stroke="url(#paint33_linear_15_81546)" stroke-width="3"/>
<path opacity="0.353535" d="M500.264 341.451C498.872 333.558 502.721 325.666 509.798 321.904L750.896 193.71C757.972 189.947 766.667 191.169 772.432 196.737L968.855 386.42C974.62 391.987 976.145 400.634 972.631 407.838L852.93 653.262C849.416 660.466 841.664 664.588 833.727 663.472L563.325 625.47C555.388 624.354 549.072 618.255 547.681 610.362L500.264 341.451Z" stroke="url(#paint34_linear_15_81546)" stroke-width="3"/>
<path opacity="0.363636" d="M499.465 338.731C498.211 330.815 502.197 322.992 509.339 319.353L752.113 195.653C759.254 192.015 767.926 193.388 773.593 199.056L966.26 391.723C971.927 397.39 973.301 406.062 969.662 413.203L845.963 655.977C842.324 663.118 834.501 667.104 826.585 665.851L557.467 623.227C549.551 621.973 543.343 615.764 542.089 607.848L499.465 338.731Z" stroke="url(#paint35_linear_15_81546)" stroke-width="3"/>
<path opacity="0.373737" d="M498.727 336.059C497.611 328.122 501.733 320.37 508.937 316.856L753.305 197.67C760.509 194.157 769.155 195.681 774.723 201.447L963.589 397.024C969.157 402.789 970.379 411.484 966.616 418.56L838.974 658.62C835.211 665.696 827.32 669.545 819.427 668.154L551.673 620.941C543.78 619.55 537.681 613.234 536.566 605.297L498.727 336.059Z" stroke="url(#paint36_linear_15_81546)" stroke-width="3"/>
<path opacity="0.383838" d="M498.048 333.433C497.071 325.478 501.328 317.799 508.592 314.412L754.47 199.757C761.734 196.37 770.353 198.045 775.819 203.907L960.842 402.32C966.308 408.182 967.378 416.897 963.493 423.906L831.966 661.188C828.08 668.197 820.123 671.908 812.255 670.379L545.943 618.613C538.076 617.084 532.088 610.662 531.111 602.707L498.048 333.433Z" stroke="url(#paint37_linear_15_81546)" stroke-width="3"/>
<path opacity="0.393939" d="M497.428 330.857C496.59 322.886 500.98 315.282 508.302 312.023L755.607 201.915C762.928 198.655 771.517 200.481 776.88 206.437L958.019 407.613C963.382 413.569 964.3 422.301 960.292 429.242L824.938 663.682C820.931 670.623 812.91 674.195 805.07 672.528L540.277 616.245C532.437 614.578 526.562 608.053 525.725 600.083L497.428 330.857Z" stroke="url(#paint38_linear_15_81546)" stroke-width="3"/>
<path opacity="0.40404" d="M496.866 328.329C496.167 320.345 500.689 312.819 508.067 309.687L756.714 204.143C764.092 201.011 772.647 202.986 777.905 209.035L955.12 412.898C960.378 418.947 961.144 427.693 957.016 434.563L817.893 666.102C813.765 672.972 805.683 676.403 797.874 674.6L534.676 613.836C526.867 612.033 521.107 605.406 520.408 597.422L496.866 328.329Z" stroke="url(#paint39_linear_15_81546)" stroke-width="3"/>
<path opacity="0.414141" d="M496.359 325.853C495.8 317.858 500.453 310.412 507.884 307.41L757.791 206.441C765.222 203.439 773.741 205.563 778.893 211.702L952.146 418.177C957.297 424.316 957.91 433.075 953.663 439.872L810.832 668.449C806.585 675.246 798.444 678.535 790.667 676.596L529.141 611.39C521.364 609.451 515.72 602.725 515.161 594.73L496.359 325.853Z" stroke="url(#paint40_linear_15_81546)" stroke-width="3"/>
<path opacity="0.424242" d="M495.909 323.429C495.49 315.425 500.272 308.061 507.754 305.189L758.836 208.808C766.319 205.935 774.799 208.208 779.843 214.437L949.096 423.446C954.14 429.675 954.599 438.443 950.234 445.165L803.756 670.721C799.391 677.443 791.194 680.589 783.452 678.515L523.671 608.907C515.93 606.832 510.404 600.009 509.985 592.005L495.909 323.429Z" stroke="url(#paint41_linear_15_81546)" stroke-width="3"/>
<path opacity="0.434343" d="M495.514 321.056C495.234 313.046 500.144 305.767 507.675 303.026L759.849 211.242C767.38 208.501 775.82 210.921 780.754 217.237L945.972 428.705C950.906 435.021 951.212 443.796 946.731 450.44L796.667 672.919C792.185 679.563 783.935 682.566 776.23 680.357L518.269 606.388C510.564 604.178 505.159 597.26 504.879 589.25L495.514 321.056Z" stroke="url(#paint42_linear_15_81546)" stroke-width="3"/>
<path opacity="0.444444" d="M495.171 318.736C495.031 310.723 500.067 303.531 507.645 300.921L760.827 213.744C768.405 211.135 776.801 213.702 781.625 220.103L942.773 433.953C947.596 440.354 947.749 449.133 943.152 455.698L789.566 675.042C784.969 681.607 776.667 684.466 769.002 682.123L512.933 603.834C505.268 601.491 499.984 594.479 499.845 586.465L495.171 318.736Z" stroke="url(#paint43_linear_15_81546)" stroke-width="3"/>
<path opacity="0.454545" d="M494.882 316.472C494.882 308.457 500.042 301.354 507.665 298.877L761.77 216.313C769.393 213.837 777.743 216.55 782.454 223.034L939.499 439.189C944.21 445.673 944.21 454.453 939.499 460.937L782.454 677.091C777.743 683.575 769.393 686.289 761.77 683.812L507.665 601.248C500.042 598.771 494.882 591.668 494.882 583.654L494.882 316.472Z" stroke="url(#paint44_linear_15_81546)" stroke-width="3"/>
<path opacity="0.464646" d="M494.643 314.261C494.783 306.248 500.067 299.235 507.731 296.892L762.677 218.948C770.341 216.604 778.643 219.463 783.24 226.028L936.152 444.409C940.749 450.975 940.596 459.753 935.773 466.154L775.332 679.066C770.509 685.467 762.113 688.034 754.534 685.424L502.465 598.63C494.887 596.02 489.851 588.828 489.99 580.815L494.643 314.261Z" stroke="url(#paint45_linear_15_81546)" stroke-width="3"/>
<path opacity="0.474747" d="M494.455 312.105C494.735 304.096 500.14 297.177 507.845 294.968L763.546 221.646C771.251 219.437 779.501 222.44 783.983 229.085L932.732 449.614C937.214 456.258 936.907 465.033 931.973 471.349L768.203 680.965C763.269 687.281 754.829 689.701 747.297 686.959L497.333 595.98C489.802 593.239 484.892 585.96 485.172 577.95L494.455 312.105Z" stroke="url(#paint46_linear_15_81546)" stroke-width="3"/>
<path opacity="0.484848" d="M494.316 310.007C494.736 302.003 500.261 295.18 508.003 293.105L764.378 224.41C772.119 222.335 780.316 225.482 784.681 232.204L929.239 454.802C933.604 461.524 933.144 470.292 928.1 476.521L761.067 682.79C756.023 689.018 747.542 691.291 740.06 688.419L492.27 593.301C484.788 590.429 480.006 583.065 480.425 575.062L494.316 310.007Z" stroke="url(#paint47_linear_15_81546)" stroke-width="3"/>
<path opacity="0.494949" d="M494.226 307.964C494.785 299.969 500.428 293.243 508.205 291.304L765.169 227.236C772.946 225.297 781.087 228.586 785.334 235.383L925.673 459.972C929.92 466.769 929.307 475.528 924.156 481.668L753.926 684.54C748.774 690.679 740.255 692.803 732.824 689.801L487.277 590.594C479.845 587.591 475.193 580.145 475.752 572.15L494.226 307.964Z" stroke="url(#paint48_linear_15_81546)" stroke-width="3"/>
<path opacity="0.50505" d="M494.182 305.982C494.88 297.997 500.64 291.371 508.45 289.568L765.92 230.126C773.73 228.323 781.812 231.754 785.939 238.624L922.035 465.124C926.163 471.994 925.397 480.741 920.139 486.79L746.78 686.217C741.522 692.265 732.967 694.24 725.59 691.109L482.352 587.861C474.975 584.729 470.453 577.203 471.151 569.219L494.182 305.982Z" stroke="url(#paint49_linear_15_81546)" stroke-width="3"/>
<path opacity="0.515152" d="M494.184 304.057C495.021 296.086 500.896 289.561 508.736 287.895L766.63 233.078C774.469 231.411 782.49 234.983 786.498 241.923L918.325 470.256C922.333 477.197 921.415 485.929 916.052 491.885L739.632 687.819C734.269 693.775 725.681 695.6 718.359 692.34L477.498 585.102C470.176 581.842 465.786 574.239 466.624 566.268L494.184 304.057Z" stroke="url(#paint50_linear_15_81546)" stroke-width="3"/>
<path opacity="0.525253" d="M494.23 302.191C495.207 294.236 501.195 287.814 509.062 286.285L767.297 236.089C775.164 234.56 783.121 238.271 787.007 245.281L914.545 475.365C918.43 482.374 917.36 491.089 911.894 496.951L732.483 689.346C727.017 695.208 718.398 696.883 711.134 693.496L472.714 582.319C465.45 578.931 461.194 571.252 462.17 563.297L494.23 302.191Z" stroke="url(#paint51_linear_15_81546)" stroke-width="3"/>
<path opacity="0.535354" d="M494.321 300.385C495.436 292.448 501.535 286.133 509.428 284.741L767.92 239.162C775.813 237.77 783.705 241.619 787.467 248.695L910.694 480.451C914.457 487.528 913.235 496.222 907.667 501.988L725.334 690.8C719.766 696.565 711.119 698.09 703.916 694.576L468.001 579.513C460.797 575.999 456.675 568.247 457.791 560.31L494.321 300.385Z" stroke="url(#paint52_linear_15_81546)" stroke-width="3"/>
<path opacity="0.545455" d="M494.453 298.64C495.707 290.724 501.915 284.515 509.831 283.261L768.499 242.293C776.415 241.039 784.238 245.025 787.877 252.166L906.773 485.513C910.412 492.655 909.038 501.326 903.371 506.994L718.185 692.179C712.518 697.847 703.846 699.22 696.705 695.581L463.358 576.685C456.217 573.046 452.23 565.223 453.484 557.307L494.453 298.64Z" stroke="url(#paint53_linear_15_81546)" stroke-width="3"/>
<path opacity="0.555556" d="M494.627 296.955C496.019 289.062 502.335 282.963 510.271 281.848L769.032 245.481C776.969 244.366 784.721 248.488 788.235 255.691L902.783 490.55C906.296 497.754 904.772 506.4 899.007 511.968L711.04 693.485C705.275 699.052 696.58 700.274 689.504 696.512L458.786 573.837C451.709 570.074 447.86 562.183 449.252 554.29L494.627 296.955Z" stroke="url(#paint54_linear_15_81546)" stroke-width="3"/>
<path opacity="0.565657" d="M494.841 295.333C496.37 287.466 502.792 281.478 510.747 280.501L769.52 248.728C777.475 247.751 785.154 252.008 788.541 259.272L898.724 495.561C902.112 502.825 900.436 511.443 894.575 516.909L703.899 694.718C698.037 700.184 689.323 701.254 682.313 697.368L454.285 570.97C447.275 567.085 443.565 559.127 445.094 551.26L494.841 295.333Z" stroke="url(#paint55_linear_15_81546)" stroke-width="3"/>
<path opacity="0.575758" d="M495.094 293.773C496.76 285.934 503.285 280.059 511.256 279.221L769.959 252.03C777.93 251.192 785.534 255.582 788.794 262.904L894.597 500.543C897.857 507.865 896.032 516.453 890.076 521.816L696.763 695.876C690.807 701.239 682.075 702.157 675.134 698.149L449.856 568.085C442.915 564.078 439.344 556.057 441.01 548.217L495.094 293.773Z" stroke="url(#paint56_linear_15_81546)" stroke-width="3"/>
<path opacity="0.585859" d="M495.384 292.277C497.187 284.467 503.813 278.707 511.798 278.009L770.351 255.388C778.335 254.69 785.861 259.212 788.993 266.589L890.403 505.498C893.535 512.875 891.56 521.43 885.511 526.689L689.633 696.963C683.584 702.221 674.838 702.986 667.968 698.858L445.498 565.185C438.628 561.057 435.197 552.975 437 545.165L495.384 292.277Z" stroke="url(#paint57_linear_15_81546)" stroke-width="3"/>
<path opacity="0.59596" d="M495.711 290.843C497.65 283.066 504.376 277.423 512.371 276.864L770.693 258.8C778.688 258.241 786.134 262.893 789.137 270.325L886.142 510.422C889.144 517.853 887.02 526.372 880.881 531.524L682.511 697.976C676.372 703.127 667.613 703.74 660.816 699.493L441.211 562.268C434.415 558.021 431.125 549.881 433.064 542.104L495.711 290.843Z" stroke="url(#paint58_linear_15_81546)" stroke-width="3"/>
<path opacity="0.606061" d="M496.073 289.474C498.147 281.732 504.971 276.207 512.974 275.787L770.986 262.265C778.989 261.846 786.353 266.628 789.225 274.11L881.815 515.315C884.687 522.797 882.415 531.278 876.186 536.322L675.399 698.916C669.17 703.96 660.402 704.42 653.68 700.055L436.997 559.339C430.275 554.974 427.129 546.777 429.203 539.035L496.073 289.474Z" stroke="url(#paint59_linear_15_81546)" stroke-width="3"/>
<path opacity="0.616162" d="M496.469 288.168C498.678 280.464 505.597 275.059 513.607 274.779L771.227 265.783C779.237 265.503 786.516 270.413 789.257 277.944L877.422 520.175C880.164 527.707 877.743 536.147 871.428 541.081L668.296 699.785C661.981 704.719 653.206 705.026 646.561 700.544L432.854 556.396C426.21 551.915 423.207 543.664 425.416 535.96L496.469 288.168Z" stroke="url(#paint60_linear_15_81546)" stroke-width="3"/>
<path opacity="0.626263" d="M496.898 286.929C499.241 279.264 506.253 273.98 514.267 273.84L771.417 269.352C779.431 269.212 786.623 274.248 789.232 281.826L872.965 525.004C875.574 532.582 873.007 540.978 866.606 545.801L661.206 700.582C654.805 705.405 646.026 705.559 639.461 700.962L428.783 553.444C422.218 548.847 419.36 540.545 421.703 532.881L496.898 286.929Z" stroke="url(#paint61_linear_15_81546)" stroke-width="3"/>
<path opacity="0.636364" d="M497.358 285.755C499.835 278.132 506.938 272.971 514.953 272.971L771.555 272.971C779.569 272.971 786.673 278.132 789.149 285.755L868.444 529.798C870.92 537.42 868.207 545.77 861.723 550.481L654.128 701.308C647.644 706.019 638.864 706.019 632.38 701.308L424.784 550.481C418.3 545.77 415.587 537.42 418.064 529.798L497.358 285.755Z" stroke="url(#paint62_linear_15_81546)" stroke-width="3"/>
<path opacity="0.646465" d="M497.849 284.645C500.458 277.067 507.65 272.031 515.664 272.171L771.639 276.639C779.653 276.779 786.665 282.063 789.008 289.728L863.859 534.555C866.202 542.22 863.344 550.521 856.779 555.118L647.064 701.962C640.499 706.559 631.72 706.406 625.319 701.583L420.857 547.509C414.457 542.686 411.89 534.29 414.499 526.712L497.849 284.645Z" stroke="url(#paint63_linear_15_81546)" stroke-width="3"/>
<path opacity="0.656566" d="M498.369 283.603C501.11 276.072 508.389 271.162 516.399 271.442L771.67 280.356C779.679 280.636 786.598 286.041 788.807 293.745L859.212 539.277C861.421 546.981 858.418 555.232 851.774 559.714L640.016 702.546C633.371 707.028 624.597 706.721 618.281 701.787L417.002 544.531C410.687 539.597 408.267 531.157 411.008 523.625L498.369 283.603Z" stroke="url(#paint64_linear_15_81546)" stroke-width="3"/>
<path opacity="0.666667" d="M498.916 282.626C501.789 275.144 509.152 270.362 517.156 270.781L771.645 284.119C779.649 284.538 786.472 290.063 788.547 297.805L854.504 543.96C856.578 551.702 853.432 559.899 846.71 564.264L632.984 703.059C626.263 707.424 617.495 706.964 611.266 701.921L413.219 541.545C406.991 536.502 404.718 528.021 407.591 520.538L498.916 282.626Z" stroke="url(#paint65_linear_15_81546)" stroke-width="3"/>
<path opacity="0.676768" d="M499.491 281.717C502.493 274.286 509.939 269.633 517.934 270.192L771.565 287.928C779.561 288.487 786.286 294.131 788.225 301.907L849.734 548.606C851.673 556.383 848.384 564.523 841.587 568.77L625.97 703.503C619.174 707.75 610.415 707.137 604.275 701.986L409.508 538.556C403.368 533.405 401.244 524.886 404.247 517.454L499.491 281.717Z" stroke="url(#paint66_linear_15_81546)" stroke-width="3"/>
<path opacity="0.686869" d="M500.09 280.875C503.222 273.497 510.748 268.975 518.732 269.674L771.43 291.782C779.414 292.481 786.04 298.241 787.843 306.05L844.905 553.212C846.708 561.021 843.277 569.103 836.407 573.231L618.976 703.877C612.106 708.005 603.359 707.24 597.31 701.982L405.868 535.564C399.82 530.306 397.844 521.751 400.976 514.373L500.09 280.875Z" stroke="url(#paint67_linear_15_81546)" stroke-width="3"/>
<path opacity="0.69697" d="M500.714 280.1C503.974 272.778 511.577 268.388 519.548 269.226L771.237 295.68C779.208 296.517 785.733 302.392 787.399 310.232L840.016 557.777C841.683 565.616 838.112 573.637 831.171 577.645L612.001 704.182C605.06 708.19 596.328 707.272 590.372 701.909L402.301 532.569C396.345 527.206 394.519 518.618 397.779 511.296L500.714 280.1Z" stroke="url(#paint68_linear_15_81546)" stroke-width="3"/>
<path opacity="0.707071" d="M501.36 279.394C504.747 272.13 512.427 267.874 520.382 268.85L770.987 299.621C778.942 300.598 785.363 306.586 786.893 314.453L835.069 562.302C836.599 570.169 832.888 578.126 825.878 582.012L605.048 704.42C598.038 708.306 589.323 707.236 583.462 701.77L398.804 529.574C392.943 524.108 391.267 515.489 394.654 508.225L501.36 279.394Z" stroke="url(#paint69_linear_15_81546)" stroke-width="3"/>
<path opacity="0.717172" d="M502.028 278.755C505.542 271.551 513.294 267.429 521.231 268.545L770.679 303.602C778.616 304.718 784.931 310.817 786.323 318.71L830.065 566.783C831.457 574.675 827.608 582.567 820.531 586.33L598.117 704.589C591.041 708.352 582.346 707.13 576.581 701.563L395.379 526.578C389.614 521.011 388.089 512.364 391.603 505.161L502.028 278.755Z" stroke="url(#paint70_linear_15_81546)" stroke-width="3"/>
<path opacity="0.727273" d="M502.717 278.185C506.355 271.044 514.178 267.058 522.094 268.311L770.312 307.625C778.228 308.879 784.436 315.087 785.69 323.003L825.004 571.221C826.258 579.137 822.272 586.96 815.131 590.599L591.21 704.692C584.069 708.331 575.397 706.957 569.73 701.29L392.026 523.586C386.358 517.918 384.985 509.246 388.623 502.105L502.717 278.185Z" stroke="url(#paint71_linear_15_81546)" stroke-width="3"/>
<path opacity="0.737374" d="M503.424 277.683C507.187 270.606 515.078 266.757 522.971 268.149L769.886 311.687C777.779 313.079 783.878 319.394 784.994 327.331L819.888 575.615C821.003 583.552 816.881 591.304 809.678 594.818L584.328 704.728C577.125 708.241 568.478 706.717 562.911 700.951L388.743 520.595C383.176 514.83 381.954 506.136 385.716 499.059L503.424 277.683Z" stroke="url(#paint72_linear_15_81546)" stroke-width="3"/>
<path opacity="0.747475" d="M504.149 277.25C508.035 270.241 515.992 266.53 523.86 268.059L769.4 315.788C777.268 317.317 783.256 323.738 784.232 331.693L814.716 579.965C815.693 587.92 811.436 595.599 804.173 598.986L577.472 704.698C570.208 708.085 561.59 706.41 556.124 700.549L385.531 517.61C380.065 511.749 378.995 503.034 382.881 496.025L504.149 277.25Z" stroke="url(#paint73_linear_15_81546)" stroke-width="3"/>
<path opacity="0.757576" d="M504.891 276.885C508.898 269.944 516.919 266.373 524.759 268.04L768.854 319.924C776.693 321.59 782.568 328.115 783.406 336.086L809.491 584.267C810.329 592.238 805.939 599.841 798.617 603.101L570.643 704.602C563.321 707.862 554.733 706.036 549.37 700.08L382.39 514.63C377.027 508.673 376.109 499.942 380.117 493.001L504.891 276.885Z" stroke="url(#paint74_linear_15_81546)" stroke-width="3"/>
<path opacity="0.767677" d="M505.648 276.59C509.776 269.72 517.858 266.289 525.667 268.092L768.247 324.096C776.056 325.899 781.816 332.526 782.515 340.51L804.213 588.523C804.912 596.507 800.39 604.033 793.012 607.165L563.842 704.442C556.465 707.573 547.91 705.598 542.652 699.549L379.319 511.656C374.061 505.608 373.296 496.861 377.423 489.991L505.648 276.59Z" stroke="url(#paint75_linear_15_81546)" stroke-width="3"/>
<path opacity="0.777778" d="M506.419 276.364C510.666 269.568 518.806 266.279 526.583 268.217L767.578 328.304C775.355 330.243 780.998 336.969 781.558 344.964L798.883 592.732C799.442 600.727 794.79 608.173 787.358 611.176L557.071 704.218C549.64 707.22 541.121 705.096 535.969 698.956L376.318 508.692C371.166 502.552 370.554 493.793 374.801 486.997L506.419 276.364Z" stroke="url(#paint76_linear_15_81546)" stroke-width="3"/>
<path opacity="0.787879" d="M507.202 276.208C511.567 269.486 519.764 266.34 527.506 268.414L766.848 332.546C774.589 334.62 780.115 341.443 780.534 349.447L793.502 596.893C793.922 604.896 789.14 612.26 781.658 615.132L550.33 703.93C542.848 706.803 534.367 704.53 529.323 698.302L373.387 505.736C368.343 499.508 367.884 490.74 372.249 484.018L507.202 276.208Z" stroke="url(#paint77_linear_15_81546)" stroke-width="3"/>
<path opacity="0.79798" d="M507.997 276.12C512.479 269.475 520.729 266.472 528.434 268.681L766.055 336.818C773.759 339.027 779.165 345.946 779.444 353.956L788.071 601.003C788.351 609.012 783.441 616.291 775.91 619.033L543.621 703.579C536.089 706.32 527.649 703.9 522.715 697.584L370.525 502.79C365.591 496.475 365.284 487.7 369.766 481.055L507.997 276.12Z" stroke="url(#paint78_linear_15_81546)" stroke-width="3"/>
<path opacity="0.808081" d="M508.802 276.102C513.399 269.536 521.701 266.678 529.366 269.021L765.199 341.123C772.864 343.466 778.148 350.478 778.288 358.492L782.592 605.064C782.732 613.077 777.696 620.269 770.118 622.879L536.944 703.167C529.366 705.776 520.969 703.209 516.146 696.808L367.732 499.857C362.909 493.456 362.756 484.678 367.353 478.112L508.802 276.102Z" stroke="url(#paint79_linear_15_81546)" stroke-width="3"/>
<path opacity="0.818182" d="M509.616 276.152C514.327 269.668 522.677 266.955 530.3 269.432L764.281 345.457C771.903 347.933 777.064 355.036 777.064 363.051L777.064 609.073C777.064 617.088 771.903 624.191 764.28 626.667L530.3 702.692C522.677 705.169 514.327 702.456 509.616 695.972L365.008 496.936C360.297 490.452 360.297 481.672 365.008 475.188L509.616 276.152Z" stroke="url(#paint80_linear_15_81546)" stroke-width="3"/>
<path opacity="0.828283" d="M510.438 276.272C515.261 269.872 523.658 267.305 531.236 269.914L763.298 349.819C770.876 352.429 775.912 359.621 775.772 367.634L771.489 613.031C771.349 621.045 766.065 628.057 758.401 630.4L523.691 702.158C516.026 704.501 507.725 701.643 503.128 695.077L362.353 494.03C357.755 487.464 357.909 478.686 362.732 472.285L510.438 276.272Z" stroke="url(#paint81_linear_15_81546)" stroke-width="3"/>
<path opacity="0.838384" d="M511.266 276.461C516.201 270.146 524.641 267.726 532.172 270.467L762.252 354.209C769.783 356.95 774.693 364.229 774.413 372.239L765.868 616.936C765.589 624.946 760.183 631.865 752.479 634.074L517.118 701.563C509.413 703.772 501.163 700.769 496.681 694.124L359.765 491.138C355.283 484.493 355.59 475.719 360.524 469.403L511.266 276.461Z" stroke="url(#paint82_linear_15_81546)" stroke-width="3"/>
<path opacity="0.848485" d="M512.099 276.721C517.143 270.492 525.624 268.22 533.106 271.092L761.141 358.626C768.624 361.499 773.406 368.862 772.986 376.866L760.203 620.79C759.783 628.793 754.258 635.617 746.516 637.691L510.581 700.91C502.839 702.984 494.642 699.838 490.277 693.116L357.244 488.264C352.879 481.542 353.339 472.774 358.383 466.545L512.099 276.721Z" stroke="url(#paint83_linear_15_81546)" stroke-width="3"/>
<path opacity="0.858586" d="M512.937 277.048C518.088 270.909 526.608 268.785 534.039 271.787L759.966 363.068C767.397 366.07 772.05 373.516 771.491 381.511L754.493 624.588C753.934 632.583 748.291 639.309 740.514 641.248L504.081 700.197C496.305 702.136 488.164 698.847 483.917 692.05L354.791 485.406C350.544 478.609 351.156 469.85 356.308 463.711L512.937 277.048Z" stroke="url(#paint84_linear_15_81546)" stroke-width="3"/>
<path opacity="0.868687" d="M513.776 277.445C519.035 271.397 527.59 269.421 534.967 272.553L758.726 367.533C766.104 370.665 770.626 378.191 769.927 386.175L748.741 628.333C748.043 636.317 742.282 642.943 734.473 644.746L497.62 699.428C489.811 701.231 481.729 697.8 477.601 690.93L352.404 482.568C348.276 475.698 349.042 466.951 354.3 460.902L513.776 277.445Z" stroke="url(#paint85_linear_15_81546)" stroke-width="3"/>
<path opacity="0.878788" d="M514.618 277.912C519.981 271.956 528.569 270.13 535.891 273.39L757.421 372.022C764.743 375.282 769.133 382.885 768.295 390.856L742.947 632.023C742.11 639.994 736.235 646.518 728.395 648.185L491.199 698.602C483.36 700.269 475.339 696.698 471.331 689.757L350.084 479.75C346.076 472.809 346.994 464.077 352.357 458.121L514.618 277.912Z" stroke="url(#paint86_linear_15_81546)" stroke-width="3"/>
<path opacity="0.888889" d="M515.459 278.447C520.925 272.585 529.544 270.91 536.808 274.297L756.05 376.531C763.314 379.918 767.571 387.598 766.594 395.553L737.113 635.657C736.136 643.612 730.148 650.033 722.281 651.562L484.818 697.72C476.951 699.25 468.993 695.539 465.108 688.529L347.829 476.952C343.943 469.942 345.013 461.228 350.479 455.366L515.459 278.447Z" stroke="url(#paint87_linear_15_81546)" stroke-width="3"/>
<path opacity="0.89899" d="M516.3 279.05C521.867 273.285 530.514 271.76 537.717 275.274L754.614 381.061C761.817 384.575 765.939 392.327 764.824 400.264L731.239 639.235C730.123 647.171 724.024 653.487 716.131 654.879L478.478 696.784C470.585 698.175 462.694 694.326 458.931 687.25L345.638 474.177C341.876 467.101 343.098 458.406 348.665 452.641L516.3 279.05Z" stroke="url(#paint88_linear_15_81546)" stroke-width="3"/>
<path opacity="0.909091" d="M517.138 279.723C522.805 274.056 531.477 272.683 538.618 276.321L753.112 385.611C760.253 389.25 764.239 397.073 762.985 404.989L725.327 642.757C724.073 650.673 717.864 656.881 709.948 658.135L472.18 695.794C464.264 697.047 456.441 693.061 452.803 685.92L343.513 471.427C339.874 464.286 341.248 455.614 346.915 449.946L517.138 279.723Z" stroke="url(#paint89_linear_15_81546)" stroke-width="3"/>
<path opacity="0.919192" d="M517.973 280.463C523.738 274.896 532.432 273.674 539.509 277.436L751.543 390.177C758.62 393.94 762.469 401.831 761.077 409.724L719.377 646.22C717.985 654.113 711.669 660.212 703.732 661.327L465.926 694.749C457.989 695.864 450.237 691.742 446.723 684.539L341.451 468.699C337.938 461.495 339.462 452.848 345.227 447.281L517.973 280.463Z" stroke="url(#paint90_linear_15_81546)" stroke-width="3"/>
<path opacity="0.929293" d="M518.802 281.272C524.664 275.806 533.379 274.736 540.388 278.621L749.909 394.76C756.919 398.646 760.629 406.603 759.1 414.471L713.391 649.626C711.861 657.493 705.44 663.481 697.485 664.458L459.715 693.652C451.76 694.629 444.08 690.372 440.693 683.109L339.452 465.997C336.065 458.733 337.741 450.115 343.602 444.649L518.802 281.272Z" stroke="url(#paint91_linear_15_81546)" stroke-width="3"/>
<path opacity="0.939394" d="M519.627 282.148C525.583 276.785 534.315 275.868 541.255 279.875L748.208 399.359C755.149 403.367 758.72 411.388 757.054 419.227L707.37 652.973C705.703 660.813 699.178 666.688 691.208 667.526L453.548 692.505C445.578 693.342 437.974 688.952 434.714 681.631L337.517 463.322C334.257 456 336.082 447.412 342.038 442.049L519.627 282.148Z" stroke="url(#paint92_linear_15_81546)" stroke-width="3"/>
<path opacity="0.949495" d="M520.443 283.094C526.492 277.835 535.239 277.07 542.109 281.198L746.441 403.973C753.311 408.101 756.741 416.183 754.938 423.992L701.314 656.263C699.511 664.073 692.885 669.833 684.901 670.531L447.427 691.308C439.443 692.006 431.917 687.484 428.786 680.106L335.643 460.676C332.511 453.298 334.486 444.743 340.535 439.485L520.443 283.094Z" stroke="url(#paint93_linear_15_81546)" stroke-width="3"/>
<path opacity="0.959596" d="M521.252 284.104C527.392 278.953 536.15 278.34 542.947 282.587L744.607 408.598C751.404 412.845 754.693 420.986 752.754 428.763L695.227 659.492C693.288 667.269 686.562 672.912 678.567 673.471L441.353 690.059C433.358 690.618 425.912 685.965 422.91 678.534L333.831 458.057C330.829 450.626 332.953 442.106 339.092 436.955L521.252 284.104Z" stroke="url(#paint94_linear_15_81546)" stroke-width="3"/>
<path opacity="0.969697" d="M522.051 285.183C528.279 280.139 537.048 279.68 543.769 284.045L742.706 413.236C749.428 417.601 752.574 425.798 750.5 433.54L689.107 662.662C687.032 670.404 680.209 675.929 672.205 676.349L435.325 688.763C427.322 689.182 419.958 684.401 417.086 676.918L332.079 455.468C329.207 447.986 331.479 439.505 337.708 434.461L522.051 285.183Z" stroke="url(#paint95_linear_15_81546)" stroke-width="3"/>
<path opacity="0.979798" d="M522.84 286.327C529.155 281.393 537.93 281.086 544.574 285.568L740.739 417.883C747.383 422.365 750.386 430.615 748.177 438.319L682.957 665.77C680.747 673.475 673.829 678.88 665.819 679.16L429.346 687.418C421.336 687.697 414.057 682.788 411.316 675.256L330.388 452.909C327.647 445.378 330.067 436.938 336.383 432.003L522.84 286.327Z" stroke="url(#paint96_linear_15_81546)" stroke-width="3"/>
<path opacity="0.989899" d="M523.616 287.539C530.017 282.716 538.796 282.562 545.361 287.16L738.705 422.54C745.27 427.137 748.129 435.439 745.785 443.104L676.777 668.82C674.434 676.484 667.422 681.768 659.408 681.908L423.415 686.027C415.401 686.167 408.209 681.131 405.6 673.553L328.756 450.383C326.147 442.805 328.714 434.408 335.115 429.585L523.616 287.539Z" stroke="url(#paint97_linear_15_81546)" stroke-width="3"/>
<path d="M524.38 288.817C530.864 284.106 539.644 284.106 546.128 288.817L736.604 427.206C743.088 431.917 745.801 440.267 743.325 447.889L670.569 671.808C668.093 679.43 660.989 684.591 652.975 684.591H417.533C409.518 684.591 402.415 679.43 399.939 671.808L327.183 447.889C324.706 440.267 327.42 431.917 333.904 427.206L524.38 288.817Z" stroke="url(#paint98_linear_15_81546)" stroke-width="3"/>
<defs>
<linearGradient id="paint0_linear_15_81546" x1="852.066" y1="564.303" x2="806.706" y2="241.554" gradientUnits="userSpaceOnUse">
<stop stop-color="#FF1CF7"/>
<stop offset="1" stop-color="#00F0FF"/>
</linearGradient>
<linearGradient id="paint1_linear_15_81546" x1="846.264" y1="565.387" x2="806.617" y2="242.486" gradientUnits="userSpaceOnUse">
<stop stop-color="#FF1CF7"/>
<stop offset="1" stop-color="#00F0FF"/>
</linearGradient>
<linearGradient id="paint2_linear_15_81546" x1="840.467" y1="566.422" x2="806.523" y2="243.469" gradientUnits="userSpaceOnUse">
<stop stop-color="#FF1CF7"/>
<stop offset="1" stop-color="#00F0FF"/>
</linearGradient>
<linearGradient id="paint3_linear_15_81546" x1="834.674" y1="567.409" x2="806.423" y2="244.505" gradientUnits="userSpaceOnUse">
<stop stop-color="#FF1CF7"/>
<stop offset="1" stop-color="#00F0FF"/>
</linearGradient>
<linearGradient id="paint4_linear_15_81546" x1="828.887" y1="568.346" x2="806.317" y2="245.592" gradientUnits="userSpaceOnUse">
<stop stop-color="#FF1CF7"/>
<stop offset="1" stop-color="#00F0FF"/>
</linearGradient>
<linearGradient id="paint5_linear_15_81546" x1="823.106" y1="569.233" x2="806.204" y2="246.728" gradientUnits="userSpaceOnUse">
<stop stop-color="#FF1CF7"/>
<stop offset="1" stop-color="#00F0FF"/>
</linearGradient>
<linearGradient id="paint6_linear_15_81546" x1="817.333" y1="570.071" x2="806.083" y2="247.915" gradientUnits="userSpaceOnUse">
<stop stop-color="#FF1CF7"/>
<stop offset="1" stop-color="#00F0FF"/>
</linearGradient>
<linearGradient id="paint7_linear_15_81546" x1="811.568" y1="570.862" x2="805.953" y2="249.153" gradientUnits="userSpaceOnUse">
<stop stop-color="#FF1CF7"/>
<stop offset="1" stop-color="#00F0FF"/>
</linearGradient>
<linearGradient id="paint8_linear_15_81546" x1="805.813" y1="571.604" x2="805.813" y2="250.441" gradientUnits="userSpaceOnUse">
<stop stop-color="#FF1CF7"/>
<stop offset="1" stop-color="#00F0FF"/>
</linearGradient>
<linearGradient id="paint9_linear_15_81546" x1="800.067" y1="572.298" x2="805.662" y2="251.778" gradientUnits="userSpaceOnUse">
<stop stop-color="#FF1CF7"/>
<stop offset="1" stop-color="#00F0FF"/>
</linearGradient>
<linearGradient id="paint10_linear_15_81546" x1="794.333" y1="572.945" x2="805.5" y2="253.166" gradientUnits="userSpaceOnUse">
<stop stop-color="#FF1CF7"/>
<stop offset="1" stop-color="#00F0FF"/>
</linearGradient>
<linearGradient id="paint11_linear_15_81546" x1="788.61" y1="573.543" x2="805.325" y2="254.601" gradientUnits="userSpaceOnUse">
<stop stop-color="#FF1CF7"/>
<stop offset="1" stop-color="#00F0FF"/>
</linearGradient>
<linearGradient id="paint12_linear_15_81546" x1="782.899" y1="574.095" x2="805.136" y2="256.087" gradientUnits="userSpaceOnUse">
<stop stop-color="#FF1CF7"/>
<stop offset="1" stop-color="#00F0FF"/>
</linearGradient>
<linearGradient id="paint13_linear_15_81546" x1="777.202" y1="574.6" x2="804.934" y2="257.621" gradientUnits="userSpaceOnUse">
<stop stop-color="#FF1CF7"/>
<stop offset="1" stop-color="#00F0FF"/>
</linearGradient>
<linearGradient id="paint14_linear_15_81546" x1="771.519" y1="575.058" x2="804.717" y2="259.203" gradientUnits="userSpaceOnUse">
<stop stop-color="#FF1CF7"/>
<stop offset="1" stop-color="#00F0FF"/>
</linearGradient>
<linearGradient id="paint15_linear_15_81546" x1="765.851" y1="575.47" x2="804.483" y2="260.833" gradientUnits="userSpaceOnUse">
<stop stop-color="#FF1CF7"/>
<stop offset="1" stop-color="#00F0FF"/>
</linearGradient>
<linearGradient id="paint16_linear_15_81546" x1="760.198" y1="575.837" x2="804.233" y2="262.511" gradientUnits="userSpaceOnUse">
<stop stop-color="#FF1CF7"/>
<stop offset="1" stop-color="#00F0FF"/>
</linearGradient>
<linearGradient id="paint17_linear_15_81546" x1="754.562" y1="576.158" x2="803.966" y2="264.235" gradientUnits="userSpaceOnUse">
<stop stop-color="#FF1CF7"/>
<stop offset="1" stop-color="#00F0FF"/>
</linearGradient>
<linearGradient id="paint18_linear_15_81546" x1="748.944" y1="576.434" x2="803.68" y2="266.007" gradientUnits="userSpaceOnUse">
<stop stop-color="#FF1CF7"/>
<stop offset="1" stop-color="#00F0FF"/>
</linearGradient>
<linearGradient id="paint19_linear_15_81546" x1="743.343" y1="576.663" x2="803.376" y2="267.823" gradientUnits="userSpaceOnUse">
<stop stop-color="#FF1CF7"/>
<stop offset="1" stop-color="#00F0FF"/>
</linearGradient>
<linearGradient id="paint20_linear_15_81546" x1="737.762" y1="576.851" x2="803.051" y2="269.687" gradientUnits="userSpaceOnUse">
<stop stop-color="#FF1CF7"/>
<stop offset="1" stop-color="#00F0FF"/>
</linearGradient>
<linearGradient id="paint21_linear_15_81546" x1="732.199" y1="576.993" x2="802.706" y2="271.595" gradientUnits="userSpaceOnUse">
<stop stop-color="#FF1CF7"/>
<stop offset="1" stop-color="#00F0FF"/>
</linearGradient>
<linearGradient id="paint22_linear_15_81546" x1="726.657" y1="577.093" x2="802.339" y2="273.549" gradientUnits="userSpaceOnUse">
<stop stop-color="#FF1CF7"/>
<stop offset="1" stop-color="#00F0FF"/>
</linearGradient>
<linearGradient id="paint23_linear_15_81546" x1="721.137" y1="577.15" x2="801.951" y2="275.548" gradientUnits="userSpaceOnUse">
<stop stop-color="#FF1CF7"/>
<stop offset="1" stop-color="#00F0FF"/>
</linearGradient>
<linearGradient id="paint24_linear_15_81546" x1="715.637" y1="577.164" x2="801.539" y2="277.589" gradientUnits="userSpaceOnUse">
<stop stop-color="#FF1CF7"/>
<stop offset="1" stop-color="#00F0FF"/>
</linearGradient>
<linearGradient id="paint25_linear_15_81546" x1="710.161" y1="577.135" x2="801.104" y2="279.674" gradientUnits="userSpaceOnUse">
<stop stop-color="#FF1CF7"/>
<stop offset="1" stop-color="#00F0FF"/>
</linearGradient>
<linearGradient id="paint26_linear_15_81546" x1="704.707" y1="577.066" x2="800.644" y2="281.803" gradientUnits="userSpaceOnUse">
<stop stop-color="#FF1CF7"/>
<stop offset="1" stop-color="#00F0FF"/>
</linearGradient>
<linearGradient id="paint27_linear_15_81546" x1="699.278" y1="576.956" x2="800.159" y2="283.974" gradientUnits="userSpaceOnUse">
<stop stop-color="#FF1CF7"/>
<stop offset="1" stop-color="#00F0FF"/>
</linearGradient>
<linearGradient id="paint28_linear_15_81546" x1="693.873" y1="576.805" x2="799.649" y2="286.188" gradientUnits="userSpaceOnUse">
<stop stop-color="#FF1CF7"/>
<stop offset="1" stop-color="#00F0FF"/>
</linearGradient>
<linearGradient id="paint29_linear_15_81546" x1="688.493" y1="576.613" x2="799.112" y2="288.442" gradientUnits="userSpaceOnUse">
<stop stop-color="#FF1CF7"/>
<stop offset="1" stop-color="#00F0FF"/>
</linearGradient>
<linearGradient id="paint30_linear_15_81546" x1="683.139" y1="576.383" x2="798.547" y2="290.737" gradientUnits="userSpaceOnUse">
<stop stop-color="#FF1CF7"/>
<stop offset="1" stop-color="#00F0FF"/>
</linearGradient>
<linearGradient id="paint31_linear_15_81546" x1="677.812" y1="576.113" x2="797.955" y2="293.072" gradientUnits="userSpaceOnUse">
<stop stop-color="#FF1CF7"/>
<stop offset="1" stop-color="#00F0FF"/>
</linearGradient>
<linearGradient id="paint32_linear_15_81546" x1="672.512" y1="575.805" x2="797.335" y2="295.448" gradientUnits="userSpaceOnUse">
<stop stop-color="#FF1CF7"/>
<stop offset="1" stop-color="#00F0FF"/>
</linearGradient>
<linearGradient id="paint33_linear_15_81546" x1="667.239" y1="575.459" x2="796.685" y2="297.861" gradientUnits="userSpaceOnUse">
<stop stop-color="#FF1CF7"/>
<stop offset="1" stop-color="#00F0FF"/>
</linearGradient>
<linearGradient id="paint34_linear_15_81546" x1="661.995" y1="575.076" x2="796.005" y2="300.315" gradientUnits="userSpaceOnUse">
<stop stop-color="#FF1CF7"/>
<stop offset="1" stop-color="#00F0FF"/>
</linearGradient>
<linearGradient id="paint35_linear_15_81546" x1="656.78" y1="574.656" x2="795.295" y2="302.805" gradientUnits="userSpaceOnUse">
<stop stop-color="#FF1CF7"/>
<stop offset="1" stop-color="#00F0FF"/>
</linearGradient>
<linearGradient id="paint36_linear_15_81546" x1="651.595" y1="574.2" x2="794.554" y2="305.334" gradientUnits="userSpaceOnUse">
<stop stop-color="#FF1CF7"/>
<stop offset="1" stop-color="#00F0FF"/>
</linearGradient>
<linearGradient id="paint37_linear_15_81546" x1="646.44" y1="573.708" x2="793.782" y2="307.898" gradientUnits="userSpaceOnUse">
<stop stop-color="#FF1CF7"/>
<stop offset="1" stop-color="#00F0FF"/>
</linearGradient>
<linearGradient id="paint38_linear_15_81546" x1="641.316" y1="573.182" x2="792.976" y2="310.499" gradientUnits="userSpaceOnUse">
<stop stop-color="#FF1CF7"/>
<stop offset="1" stop-color="#00F0FF"/>
</linearGradient>
<linearGradient id="paint39_linear_15_81546" x1="636.223" y1="572.621" x2="792.139" y2="313.134" gradientUnits="userSpaceOnUse">
<stop stop-color="#FF1CF7"/>
<stop offset="1" stop-color="#00F0FF"/>
</linearGradient>
<linearGradient id="paint40_linear_15_81546" x1="631.162" y1="572.027" x2="791.267" y2="315.805" gradientUnits="userSpaceOnUse">
<stop stop-color="#FF1CF7"/>
<stop offset="1" stop-color="#00F0FF"/>
</linearGradient>
<linearGradient id="paint41_linear_15_81546" x1="626.134" y1="571.4" x2="790.362" y2="318.51" gradientUnits="userSpaceOnUse">
<stop stop-color="#FF1CF7"/>
<stop offset="1" stop-color="#00F0FF"/>
</linearGradient>
<linearGradient id="paint42_linear_15_81546" x1="621.138" y1="570.74" x2="789.423" y2="321.248" gradientUnits="userSpaceOnUse">
<stop stop-color="#FF1CF7"/>
<stop offset="1" stop-color="#00F0FF"/>
</linearGradient>
<linearGradient id="paint43_linear_15_81546" x1="616.176" y1="570.048" x2="788.448" y2="324.018" gradientUnits="userSpaceOnUse">
<stop stop-color="#FF1CF7"/>
<stop offset="1" stop-color="#00F0FF"/>
</linearGradient>
<linearGradient id="paint44_linear_15_81546" x1="611.248" y1="569.327" x2="787.438" y2="326.822" gradientUnits="userSpaceOnUse">
<stop stop-color="#FF1CF7"/>
<stop offset="1" stop-color="#00F0FF"/>
</linearGradient>
<linearGradient id="paint45_linear_15_81546" x1="606.355" y1="568.574" x2="786.392" y2="329.656" gradientUnits="userSpaceOnUse">
<stop stop-color="#FF1CF7"/>
<stop offset="1" stop-color="#00F0FF"/>
</linearGradient>
<linearGradient id="paint46_linear_15_81546" x1="601.496" y1="567.791" x2="785.31" y2="332.52" gradientUnits="userSpaceOnUse">
<stop stop-color="#FF1CF7"/>
<stop offset="1" stop-color="#00F0FF"/>
</linearGradient>
<linearGradient id="paint47_linear_15_81546" x1="596.673" y1="566.979" x2="784.19" y2="335.415" gradientUnits="userSpaceOnUse">
<stop stop-color="#FF1CF7"/>
<stop offset="1" stop-color="#00F0FF"/>
</linearGradient>
<linearGradient id="paint48_linear_15_81546" x1="591.885" y1="566.139" x2="783.033" y2="338.338" gradientUnits="userSpaceOnUse">
<stop stop-color="#FF1CF7"/>
<stop offset="1" stop-color="#00F0FF"/>
</linearGradient>
<linearGradient id="paint49_linear_15_81546" x1="587.134" y1="565.272" x2="781.838" y2="341.29" gradientUnits="userSpaceOnUse">
<stop stop-color="#FF1CF7"/>
<stop offset="1" stop-color="#00F0FF"/>
</linearGradient>
<linearGradient id="paint50_linear_15_81546" x1="582.42" y1="564.378" x2="780.605" y2="344.27" gradientUnits="userSpaceOnUse">
<stop stop-color="#FF1CF7"/>
<stop offset="1" stop-color="#00F0FF"/>
</linearGradient>
<linearGradient id="paint51_linear_15_81546" x1="577.742" y1="563.457" x2="779.333" y2="347.277" gradientUnits="userSpaceOnUse">
<stop stop-color="#FF1CF7"/>
<stop offset="1" stop-color="#00F0FF"/>
</linearGradient>
<linearGradient id="paint52_linear_15_81546" x1="573.102" y1="562.511" x2="778.023" y2="350.31" gradientUnits="userSpaceOnUse">
<stop stop-color="#FF1CF7"/>
<stop offset="1" stop-color="#00F0FF"/>
</linearGradient>
<linearGradient id="paint53_linear_15_81546" x1="568.5" y1="561.54" x2="776.672" y2="353.368" gradientUnits="userSpaceOnUse">
<stop stop-color="#FF1CF7"/>
<stop offset="1" stop-color="#00F0FF"/>
</linearGradient>
<linearGradient id="paint54_linear_15_81546" x1="563.936" y1="560.545" x2="775.282" y2="356.451" gradientUnits="userSpaceOnUse">
<stop stop-color="#FF1CF7"/>
<stop offset="1" stop-color="#00F0FF"/>
</linearGradient>
<linearGradient id="paint55_linear_15_81546" x1="559.411" y1="559.527" x2="773.851" y2="359.558" gradientUnits="userSpaceOnUse">
<stop stop-color="#FF1CF7"/>
<stop offset="1" stop-color="#00F0FF"/>
</linearGradient>
<linearGradient id="paint56_linear_15_81546" x1="554.925" y1="558.486" x2="772.38" y2="362.688" gradientUnits="userSpaceOnUse">
<stop stop-color="#FF1CF7"/>
<stop offset="1" stop-color="#00F0FF"/>
</linearGradient>
<linearGradient id="paint57_linear_15_81546" x1="550.478" y1="557.424" x2="770.868" y2="365.841" gradientUnits="userSpaceOnUse">
<stop stop-color="#FF1CF7"/>
<stop offset="1" stop-color="#00F0FF"/>
</linearGradient>
<linearGradient id="paint58_linear_15_81546" x1="546.07" y1="556.34" x2="769.315" y2="369.015" gradientUnits="userSpaceOnUse">
<stop stop-color="#FF1CF7"/>
<stop offset="1" stop-color="#00F0FF"/>
</linearGradient>
<linearGradient id="paint59_linear_15_81546" x1="541.702" y1="555.236" x2="767.72" y2="372.21" gradientUnits="userSpaceOnUse">
<stop stop-color="#FF1CF7"/>
<stop offset="1" stop-color="#00F0FF"/>
</linearGradient>
<linearGradient id="paint60_linear_15_81546" x1="537.375" y1="554.112" x2="766.084" y2="375.425" gradientUnits="userSpaceOnUse">
<stop stop-color="#FF1CF7"/>
<stop offset="1" stop-color="#00F0FF"/>
</linearGradient>
<linearGradient id="paint61_linear_15_81546" x1="533.087" y1="552.97" x2="764.405" y2="378.66" gradientUnits="userSpaceOnUse">
<stop stop-color="#FF1CF7"/>
<stop offset="1" stop-color="#00F0FF"/>
</linearGradient>
<linearGradient id="paint62_linear_15_81546" x1="528.841" y1="551.81" x2="762.684" y2="381.913" gradientUnits="userSpaceOnUse">
<stop stop-color="#FF1CF7"/>
<stop offset="1" stop-color="#00F0FF"/>
</linearGradient>
<linearGradient id="paint63_linear_15_81546" x1="524.635" y1="550.633" x2="760.921" y2="385.183" gradientUnits="userSpaceOnUse">
<stop stop-color="#FF1CF7"/>
<stop offset="1" stop-color="#00F0FF"/>
</linearGradient>
<linearGradient id="paint64_linear_15_81546" x1="520.47" y1="549.439" x2="759.115" y2="388.471" gradientUnits="userSpaceOnUse">
<stop stop-color="#FF1CF7"/>
<stop offset="1" stop-color="#00F0FF"/>
</linearGradient>
<linearGradient id="paint65_linear_15_81546" x1="516.347" y1="548.228" x2="757.266" y2="391.773" gradientUnits="userSpaceOnUse">
<stop stop-color="#FF1CF7"/>
<stop offset="1" stop-color="#00F0FF"/>
</linearGradient>
<linearGradient id="paint66_linear_15_81546" x1="512.265" y1="547.003" x2="755.373" y2="395.092" gradientUnits="userSpaceOnUse">
<stop stop-color="#FF1CF7"/>
<stop offset="1" stop-color="#00F0FF"/>
</linearGradient>
<linearGradient id="paint67_linear_15_81546" x1="508.224" y1="545.764" x2="753.437" y2="398.425" gradientUnits="userSpaceOnUse">
<stop stop-color="#FF1CF7"/>
<stop offset="1" stop-color="#00F0FF"/>
</linearGradient>
<linearGradient id="paint68_linear_15_81546" x1="504.226" y1="544.511" x2="751.458" y2="401.771" gradientUnits="userSpaceOnUse">
<stop stop-color="#FF1CF7"/>
<stop offset="1" stop-color="#00F0FF"/>
</linearGradient>
<linearGradient id="paint69_linear_15_81546" x1="500.27" y1="543.246" x2="749.435" y2="405.132" gradientUnits="userSpaceOnUse">
<stop stop-color="#FF1CF7"/>
<stop offset="1" stop-color="#00F0FF"/>
</linearGradient>
<linearGradient id="paint70_linear_15_81546" x1="496.356" y1="541.968" x2="747.368" y2="408.503" gradientUnits="userSpaceOnUse">
<stop stop-color="#FF1CF7"/>
<stop offset="1" stop-color="#00F0FF"/>
</linearGradient>
<linearGradient id="paint71_linear_15_81546" x1="492.483" y1="540.68" x2="745.257" y2="411.886" gradientUnits="userSpaceOnUse">
<stop stop-color="#FF1CF7"/>
<stop offset="1" stop-color="#00F0FF"/>
</linearGradient>
<linearGradient id="paint72_linear_15_81546" x1="488.654" y1="539.381" x2="743.102" y2="415.279" gradientUnits="userSpaceOnUse">
<stop stop-color="#FF1CF7"/>
<stop offset="1" stop-color="#00F0FF"/>
</linearGradient>
<linearGradient id="paint73_linear_15_81546" x1="484.866" y1="538.074" x2="740.903" y2="418.682" gradientUnits="userSpaceOnUse">
<stop stop-color="#FF1CF7"/>
<stop offset="1" stop-color="#00F0FF"/>
</linearGradient>
<linearGradient id="paint74_linear_15_81546" x1="481.122" y1="536.756" x2="738.659" y2="422.093" gradientUnits="userSpaceOnUse">
<stop stop-color="#FF1CF7"/>
<stop offset="1" stop-color="#00F0FF"/>
</linearGradient>
<linearGradient id="paint75_linear_15_81546" x1="477.42" y1="535.431" x2="736.372" y2="425.513" gradientUnits="userSpaceOnUse">
<stop stop-color="#FF1CF7"/>
<stop offset="1" stop-color="#00F0FF"/>
</linearGradient>
<linearGradient id="paint76_linear_15_81546" x1="473.76" y1="534.1" x2="734.04" y2="428.94" gradientUnits="userSpaceOnUse">
<stop stop-color="#FF1CF7"/>
<stop offset="1" stop-color="#00F0FF"/>
</linearGradient>
<linearGradient id="paint77_linear_15_81546" x1="470.144" y1="532.762" x2="731.663" y2="432.374" gradientUnits="userSpaceOnUse">
<stop stop-color="#FF1CF7"/>
<stop offset="1" stop-color="#00F0FF"/>
</linearGradient>
<linearGradient id="paint78_linear_15_81546" x1="466.569" y1="531.417" x2="729.243" y2="435.812" gradientUnits="userSpaceOnUse">
<stop stop-color="#FF1CF7"/>
<stop offset="1" stop-color="#00F0FF"/>
</linearGradient>
<linearGradient id="paint79_linear_15_81546" x1="463.038" y1="530.068" x2="726.778" y2="439.256" gradientUnits="userSpaceOnUse">
<stop stop-color="#FF1CF7"/>
<stop offset="1" stop-color="#00F0FF"/>
</linearGradient>
<linearGradient id="paint80_linear_15_81546" x1="459.549" y1="528.715" x2="724.268" y2="442.703" gradientUnits="userSpaceOnUse">
<stop stop-color="#FF1CF7"/>
<stop offset="1" stop-color="#00F0FF"/>
</linearGradient>
<linearGradient id="paint81_linear_15_81546" x1="456.103" y1="527.359" x2="721.714" y2="446.153" gradientUnits="userSpaceOnUse">
<stop stop-color="#FF1CF7"/>
<stop offset="1" stop-color="#00F0FF"/>
</linearGradient>
<linearGradient id="paint82_linear_15_81546" x1="452.7" y1="525.999" x2="719.116" y2="449.606" gradientUnits="userSpaceOnUse">
<stop stop-color="#FF1CF7"/>
<stop offset="1" stop-color="#00F0FF"/>
</linearGradient>
<linearGradient id="paint83_linear_15_81546" x1="449.339" y1="524.639" x2="716.473" y2="453.06" gradientUnits="userSpaceOnUse">
<stop stop-color="#FF1CF7"/>
<stop offset="1" stop-color="#00F0FF"/>
</linearGradient>
<linearGradient id="paint84_linear_15_81546" x1="446.021" y1="523.276" x2="713.787" y2="456.515" gradientUnits="userSpaceOnUse">
<stop stop-color="#FF1CF7"/>
<stop offset="1" stop-color="#00F0FF"/>
</linearGradient>
<linearGradient id="paint85_linear_15_81546" x1="442.746" y1="521.914" x2="711.056" y2="459.97" gradientUnits="userSpaceOnUse">
<stop stop-color="#FF1CF7"/>
<stop offset="1" stop-color="#00F0FF"/>
</linearGradient>
<linearGradient id="paint86_linear_15_81546" x1="439.513" y1="520.553" x2="708.281" y2="463.425" gradientUnits="userSpaceOnUse">
<stop stop-color="#FF1CF7"/>
<stop offset="1" stop-color="#00F0FF"/>
</linearGradient>
<linearGradient id="paint87_linear_15_81546" x1="436.322" y1="519.193" x2="705.462" y2="466.877" gradientUnits="userSpaceOnUse">
<stop stop-color="#FF1CF7"/>
<stop offset="1" stop-color="#00F0FF"/>
</linearGradient>
<linearGradient id="paint88_linear_15_81546" x1="433.173" y1="517.834" x2="702.6" y2="470.327" gradientUnits="userSpaceOnUse">
<stop stop-color="#FF1CF7"/>
<stop offset="1" stop-color="#00F0FF"/>
</linearGradient>
<linearGradient id="paint89_linear_15_81546" x1="430.066" y1="516.48" x2="699.694" y2="473.775" gradientUnits="userSpaceOnUse">
<stop stop-color="#FF1CF7"/>
<stop offset="1" stop-color="#00F0FF"/>
</linearGradient>
<linearGradient id="paint90_linear_15_81546" x1="427.001" y1="515.127" x2="696.744" y2="477.217" gradientUnits="userSpaceOnUse">
<stop stop-color="#FF1CF7"/>
<stop offset="1" stop-color="#00F0FF"/>
</linearGradient>
<linearGradient id="paint91_linear_15_81546" x1="423.978" y1="513.78" x2="693.751" y2="480.656" gradientUnits="userSpaceOnUse">
<stop stop-color="#FF1CF7"/>
<stop offset="1" stop-color="#00F0FF"/>
</linearGradient>
<linearGradient id="paint92_linear_15_81546" x1="420.996" y1="512.437" x2="690.715" y2="484.088" gradientUnits="userSpaceOnUse">
<stop stop-color="#FF1CF7"/>
<stop offset="1" stop-color="#00F0FF"/>
</linearGradient>
<linearGradient id="paint93_linear_15_81546" x1="418.056" y1="511.101" x2="687.636" y2="487.516" gradientUnits="userSpaceOnUse">
<stop stop-color="#FF1CF7"/>
<stop offset="1" stop-color="#00F0FF"/>
</linearGradient>
<linearGradient id="paint94_linear_15_81546" x1="415.157" y1="509.77" x2="684.514" y2="490.935" gradientUnits="userSpaceOnUse">
<stop stop-color="#FF1CF7"/>
<stop offset="1" stop-color="#00F0FF"/>
</linearGradient>
<linearGradient id="paint95_linear_15_81546" x1="412.299" y1="508.448" x2="681.35" y2="494.347" gradientUnits="userSpaceOnUse">
<stop stop-color="#FF1CF7"/>
<stop offset="1" stop-color="#00F0FF"/>
</linearGradient>
<linearGradient id="paint96_linear_15_81546" x1="409.482" y1="507.131" x2="678.144" y2="497.749" gradientUnits="userSpaceOnUse">
<stop stop-color="#FF1CF7"/>
<stop offset="1" stop-color="#00F0FF"/>
</linearGradient>
<linearGradient id="paint97_linear_15_81546" x1="406.705" y1="505.825" x2="674.895" y2="501.144" gradientUnits="userSpaceOnUse">
<stop stop-color="#FF1CF7"/>
<stop offset="1" stop-color="#00F0FF"/>
</linearGradient>
<linearGradient id="paint98_linear_15_81546" x1="403.969" y1="504.528" x2="671.605" y2="504.528" gradientUnits="userSpaceOnUse">
<stop stop-color="#FF1CF7"/>
<stop offset="1" stop-color="#00F0FF"/>
</linearGradient>
</defs>
</svg>
