<svg width="60" height="65" viewBox="0 0 60 65" fill="none" xmlns="http://www.w3.org/2000/svg">
<path fill-rule="evenodd" clip-rule="evenodd" d="M10 0C4.47715 0 0 4.47715 0 10V15H7V12C7 9.79086 8.79086 8 11 8H49C51.2091 8 53 9.79086 53 12V15H60V10C60 4.47715 55.5228 0 50 0H10ZM0 48V19H7V48H0ZM0 52V55C0 60.5228 4.47715 65 10 65H50C55.5228 65 60 60.5228 60 55V52H53V53C53 55.2091 51.2091 57 49 57H11C8.79086 57 7 55.2091 7 53V52H0ZM53 48H60V19H53V48Z" fill="#9D391F"/>
<path fill-rule="evenodd" clip-rule="evenodd" d="M50.6168 53V13H10.6167L50.6168 53Z" fill="#141411"/>
</svg>
