<svg width="59" height="63" viewBox="0 0 59 63" fill="none" xmlns="http://www.w3.org/2000/svg">
<path fill-rule="evenodd" clip-rule="evenodd" d="M59 45L50 45L50 47L50 50C50 51.6569 48.6569 53 47 53L39 53L39 40L40 40C42.2091 40 44 38.2091 44 36L44 26C44 23.7909 42.2091 22 40 22L39 22L39 20C39 15.0294 34.9706 11 30 11C25.0294 11 21 15.0294 21 20L21 22L20 22C17.7909 22 16 23.7909 16 26L16 36C16 38.2091 17.7909 40 20 40L21 40L21 53L12 53C10.3431 53 9 51.6569 9 50L9 47L9 45L-3.49691e-07 45L-2.01072e-06 6.99999C-2.17971e-06 3.134 3.134 -2.99801e-06 7 -3.167e-06L52 -5.13402e-06C55.866 -5.303e-06 59 3.134 59 6.99999L59 45Z" fill="#18130A"/>
<path fill-rule="evenodd" clip-rule="evenodd" d="M59 48L59 53C59 58.5228 54.5228 63 49 63L10 63C4.47715 63 -1.95703e-07 58.5228 -4.37114e-07 53L-6.55671e-07 48L7.26154 48L7.26154 51.65C7.26154 53.8591 9.0524 55.65 11.2615 55.65L47.7385 55.65C49.9476 55.65 51.7385 53.8591 51.7385 51.65L51.7385 48L59 48Z" fill="#9D391F"/>
<circle cx="30" cy="20" r="6" fill="#9D391F"/>
</svg>
