<svg width="60" height="65" viewBox="0 0 60 65" fill="none" xmlns="http://www.w3.org/2000/svg">
<path fill-rule="evenodd" clip-rule="evenodd" d="M10 0C4.47715 0 0 4.47715 0 10V55C0 60.5228 4.47715 65 10 65H50C55.5228 65 60 60.5228 60 55V10C60 4.47715 55.5228 0 50 0H10ZM11 8C8.79086 8 7 9.79086 7 12V53C7 55.2091 8.79086 57 11 57H49C51.2091 57 53 55.2091 53 53V12C53 9.79086 51.2091 8 49 8H11Z" fill="#9D391F"/>
<rect width="32" height="8" transform="matrix(1 0 0 -1 14 41)" fill="#9D391F"/>
<rect width="12" height="8" transform="matrix(-4.37114e-08 1 1 4.37114e-08 26 27)" fill="#9D391F"/>
<rect width="18.6135" height="8" transform="matrix(0.707107 0.707107 0.707107 -0.707107 14 17.9497)" fill="#9D391F"/>
<rect x="46.1115" y="17.9497" width="18.6135" height="8" transform="rotate(135 46.1115 17.9497)" fill="#9D391F"/>
<circle cx="30" cy="48" r="5" fill="#9D391F"/>
</svg>
