<svg width="60" height="65" viewBox="0 0 60 65" fill="none" xmlns="http://www.w3.org/2000/svg">
<path fill-rule="evenodd" clip-rule="evenodd" d="M53 0H50V10H40C38.3431 10 37 11.3431 37 13V52C37 53.6569 38.3431 55 40 55H50V65H53C56.866 65 60 61.866 60 58V7C60 3.13401 56.866 0 53 0Z" fill="#18130A"/>
<path fill-rule="evenodd" clip-rule="evenodd" d="M0 7C0 3.13401 3.13401 0 7 0H47.3913V8H11C8.79086 8 7 9.79086 7 12V53C7 55.2091 8.79086 57 11 57H47.3913V65H7C3.13401 65 0 61.866 0 58V7Z" fill="#9D391F"/>
<path fill-rule="evenodd" clip-rule="evenodd" d="M25 5H43V8H37C35.8954 8 35 8.89543 35 10V14H28V10C28 8.89543 27.1046 8 26 8H25V5ZM28 16H35V49H28V16ZM28 51V55C28 56.1046 27.1046 57 26 57H25V59H43V57H37C35.8954 57 35 56.1046 35 55V51H28Z" fill="#9D391F"/>
</svg>
