<svg width="1920" height="960" viewBox="0 0 1920 960" fill="none" xmlns="http://www.w3.org/2000/svg">
<g clip-path="url(#clip0_73_28)">
<rect width="1920" height="960" fill="black"/>
<g opacity="0.5">
<path d="M-4.80056 320.528C-26.3218 322.339 -43.218 340.188 -43.218 361.94C-43.218 384.894 -24.4013 403.503 -1.18979 403.503L154.721 403.503C177.933 403.503 196.75 384.895 196.75 361.94C196.75 338.985 177.933 320.377 154.721 320.377L-4.80056 320.528Z" fill="white" fill-opacity="0.2"/>
<path d="M534.735 320.528C513.214 322.339 496.317 340.188 496.317 361.94C496.317 384.894 515.134 403.503 538.345 403.503L694.257 403.503C717.468 403.503 736.285 384.895 736.285 361.94C736.285 338.985 717.468 320.377 694.257 320.377L534.735 320.528Z" fill="white" fill-opacity="0.1"/>
<path d="M804.502 320.528C782.981 322.339 766.085 340.188 766.085 361.94C766.085 384.894 784.902 403.503 808.113 403.503L964.024 403.503C987.236 403.503 1006.05 384.895 1006.05 361.94C1006.05 338.985 987.236 320.377 964.024 320.377L804.502 320.528Z" fill="white" fill-opacity="0.1"/>
<path d="M1074.27 320.528C1052.75 322.339 1035.85 340.188 1035.85 361.94C1035.85 384.894 1054.67 403.503 1077.88 403.503L1233.79 403.503C1257 403.503 1275.82 384.895 1275.82 361.94C1275.82 338.985 1257 320.377 1233.79 320.377L1074.27 320.528Z" fill="white" fill-opacity="0.07"/>
<path d="M1344.04 320.528C1322.52 322.339 1305.62 340.188 1305.62 361.94C1305.62 384.894 1324.44 403.503 1347.65 403.503L1503.56 403.503C1526.77 403.503 1545.59 384.895 1545.59 361.94C1545.59 338.985 1526.77 320.377 1503.56 320.377L1344.04 320.528Z" fill="white" fill-opacity="0.2"/>
<path d="M1883.57 320.528C1862.05 322.339 1845.16 340.188 1845.16 361.94C1845.16 384.894 1863.97 403.503 1887.18 403.503L2043.09 403.503C2066.31 403.503 2085.12 384.895 2085.12 361.94C2085.12 338.985 2066.31 320.377 2043.09 320.377L1883.57 320.528Z" fill="white" fill-opacity="0.2"/>
<path d="M-4.80056 552.654C-26.3218 554.465 -43.218 572.314 -43.218 594.066C-43.218 617.02 -24.4013 635.629 -1.18979 635.629L154.721 635.629C177.933 635.629 196.75 617.02 196.75 594.066C196.75 571.111 177.933 552.503 154.721 552.503L-4.80056 552.654Z" fill="white" fill-opacity="0.07"/>
<path d="M534.735 552.654C513.214 554.465 496.317 572.314 496.317 594.066C496.317 617.02 515.134 635.629 538.345 635.629L694.257 635.629C717.468 635.629 736.285 617.02 736.285 594.066C736.285 571.111 717.468 552.503 694.257 552.503L534.735 552.654Z" fill="white" fill-opacity="0.1"/>
<path d="M1074.27 552.654C1052.75 554.465 1035.85 572.314 1035.85 594.066C1035.85 617.02 1054.67 635.629 1077.88 635.629L1233.79 635.629C1257 635.629 1275.82 617.02 1275.82 594.066C1275.82 571.111 1257 552.503 1233.79 552.503L1074.27 552.654Z" fill="white" fill-opacity="0.1"/>
<path d="M1344.04 552.654C1322.52 554.465 1305.62 572.314 1305.62 594.066C1305.62 617.02 1324.44 635.629 1347.65 635.629L1503.56 635.629C1526.77 635.629 1545.59 617.02 1545.59 594.066C1545.59 571.111 1526.77 552.503 1503.56 552.503L1344.04 552.654Z" fill="white" fill-opacity="0.1"/>
<path d="M1613.81 552.654C1592.28 554.465 1575.39 572.314 1575.39 594.066C1575.39 617.02 1594.2 635.629 1617.42 635.629L1773.33 635.629C1796.54 635.629 1815.36 617.02 1815.36 594.066C1815.36 571.111 1796.54 552.503 1773.33 552.503L1613.81 552.654Z" fill="white" fill-opacity="0.1"/>
<path d="M1883.57 552.654C1862.05 554.465 1845.16 572.314 1845.16 594.066C1845.16 617.02 1863.97 635.629 1887.18 635.629L2043.09 635.629C2066.31 635.629 2085.12 617.02 2085.12 594.066C2085.12 571.111 2066.31 552.503 2043.09 552.503L1883.57 552.654Z" fill="white" fill-opacity="0.07"/>
<path d="M-4.80056 88.4025C-26.3218 90.2135 -43.218 108.063 -43.218 129.814C-43.218 152.769 -24.4013 171.377 -1.18979 171.377L154.721 171.377C177.933 171.377 196.75 152.769 196.75 129.814C196.75 106.86 177.933 88.2513 154.721 88.2513L-4.80056 88.4025Z" fill="white" fill-opacity="0.1"/>
<path d="M-4.80056 784.779C-26.3218 786.59 -43.218 804.439 -43.218 826.191C-43.218 849.146 -24.4013 867.754 -1.18979 867.754L154.721 867.754C177.933 867.754 196.75 849.146 196.75 826.191C196.75 803.236 177.933 784.628 154.721 784.628L-4.80056 784.779Z" fill="white" fill-opacity="0.1"/>
<path d="M264.967 88.4025C243.446 90.2135 226.55 108.063 226.55 129.814C226.55 152.769 245.366 171.377 268.578 171.377L424.489 171.377C447.701 171.377 466.517 152.769 466.517 129.814C466.517 106.86 447.701 88.2513 424.489 88.2513L264.967 88.4025Z" fill="white" fill-opacity="0.2"/>
<path d="M264.967 784.779C243.446 786.59 226.55 804.439 226.55 826.191C226.55 849.146 245.366 867.754 268.578 867.754L424.489 867.754C447.701 867.754 466.517 849.146 466.517 826.191C466.517 803.236 447.701 784.628 424.489 784.628L264.967 784.779Z" fill="white" fill-opacity="0.2"/>
<path d="M534.735 88.4025C513.214 90.2135 496.317 108.063 496.317 129.814C496.317 152.769 515.134 171.377 538.345 171.377L694.257 171.377C717.468 171.377 736.285 152.769 736.285 129.814C736.285 106.86 717.468 88.2513 694.257 88.2513L534.735 88.4025Z" fill="white" fill-opacity="0.07"/>
<path d="M534.735 784.779C513.214 786.59 496.317 804.439 496.317 826.191C496.317 849.146 515.134 867.754 538.345 867.754L694.257 867.754C717.468 867.754 736.285 849.146 736.285 826.191C736.285 803.236 717.468 784.628 694.257 784.628L534.735 784.779Z" fill="white" fill-opacity="0.07"/>
<path d="M1074.27 88.4025C1052.75 90.2135 1035.85 108.063 1035.85 129.814C1035.85 152.769 1054.67 171.377 1077.88 171.377L1233.79 171.377C1257 171.377 1275.82 152.769 1275.82 129.814C1275.82 106.86 1257 88.2513 1233.79 88.2513L1074.27 88.4025Z" fill="white" fill-opacity="0.07"/>
<path d="M1074.27 784.779C1052.75 786.59 1035.85 804.439 1035.85 826.191C1035.85 849.146 1054.67 867.754 1077.88 867.754L1233.79 867.754C1257 867.754 1275.82 849.146 1275.82 826.191C1275.82 803.236 1257 784.628 1233.79 784.628L1074.27 784.779Z" fill="white" fill-opacity="0.07"/>
<path d="M1344.04 88.4025C1322.52 90.2135 1305.62 108.063 1305.62 129.814C1305.62 152.769 1324.44 171.377 1347.65 171.377L1503.56 171.377C1526.77 171.377 1545.59 152.769 1545.59 129.814C1545.59 106.86 1526.77 88.2513 1503.56 88.2513L1344.04 88.4025Z" fill="white" fill-opacity="0.1"/>
<path d="M1344.04 784.779C1322.52 786.59 1305.62 804.439 1305.62 826.191C1305.62 849.146 1324.44 867.754 1347.65 867.754L1503.56 867.754C1526.77 867.754 1545.59 849.146 1545.59 826.191C1545.59 803.236 1526.77 784.628 1503.56 784.628L1344.04 784.779Z" fill="white" fill-opacity="0.1"/>
<path d="M1613.81 88.4025C1592.28 90.2135 1575.39 108.063 1575.39 129.814C1575.39 152.769 1594.2 171.377 1617.42 171.377L1773.33 171.377C1796.54 171.377 1815.36 152.769 1815.36 129.814C1815.36 106.86 1796.54 88.2513 1773.33 88.2513L1613.81 88.4025Z" fill="white" fill-opacity="0.2"/>
<path d="M1613.81 784.779C1592.28 786.59 1575.39 804.439 1575.39 826.191C1575.39 849.146 1594.2 867.754 1617.42 867.754L1773.33 867.754C1796.54 867.754 1815.36 849.146 1815.36 826.191C1815.36 803.236 1796.54 784.628 1773.33 784.628L1613.81 784.779Z" fill="white" fill-opacity="0.2"/>
<path d="M1883.57 88.4025C1862.05 90.2135 1845.16 108.063 1845.16 129.814C1845.16 152.769 1863.97 171.377 1887.18 171.377L2043.09 171.377C2066.31 171.377 2085.12 152.769 2085.12 129.814C2085.12 106.86 2066.31 88.2513 2043.09 88.2513L1883.57 88.4025Z" fill="white" fill-opacity="0.07"/>
<path d="M1883.57 784.779C1862.05 786.59 1845.16 804.439 1845.16 826.191C1845.16 849.146 1863.97 867.754 1887.18 867.754L2043.09 867.754C2066.31 867.754 2085.12 849.146 2085.12 826.191C2085.12 803.236 2066.31 784.628 2043.09 784.628L1883.57 784.779Z" fill="white" fill-opacity="0.07"/>
<path d="M-128.705 436.591C-150.227 438.402 -167.123 456.251 -167.123 478.003C-167.123 500.957 -148.306 519.566 -125.095 519.566L30.8167 519.566C54.0282 519.566 72.8449 500.957 72.8449 478.003C72.8449 455.048 54.0282 436.44 30.8167 436.44L-128.705 436.591Z" fill="white" fill-opacity="0.1"/>
<path d="M141.062 436.591C119.541 438.402 102.645 456.251 102.645 478.003C102.645 500.957 121.461 519.566 144.673 519.566L300.584 519.566C323.796 519.566 342.613 500.957 342.613 478.003C342.613 455.048 323.796 436.44 300.584 436.44L141.062 436.591Z" fill="white" fill-opacity="0.07"/>
<path d="M410.83 436.591C389.309 438.402 372.412 456.251 372.412 478.003C372.412 500.957 391.229 519.566 414.441 519.566L570.352 519.566C593.563 519.566 612.38 500.957 612.38 478.003C612.38 455.048 593.563 436.44 570.352 436.44L410.83 436.591Z" fill="white" fill-opacity="0.2"/>
<path d="M680.598 436.591C659.076 438.402 642.18 456.251 642.18 478.003C642.18 500.957 660.997 519.566 684.208 519.566L840.12 519.566C863.331 519.566 882.148 500.957 882.148 478.003C882.148 455.048 863.331 436.44 840.12 436.44L680.598 436.591Z" fill="white" fill-opacity="0.1"/>
<path d="M950.365 436.591C928.844 438.402 911.948 456.251 911.948 478.003C911.948 500.957 930.764 519.566 953.976 519.566L1109.89 519.566C1133.1 519.566 1151.92 500.957 1151.92 478.003C1151.92 455.048 1133.1 436.44 1109.89 436.44L950.365 436.591Z" fill="white" fill-opacity="0.2"/>
<path d="M1220.13 436.591C1198.61 438.402 1181.72 456.251 1181.72 478.003C1181.72 500.957 1200.53 519.566 1223.74 519.566L1379.65 519.566C1402.87 519.566 1421.68 500.957 1421.68 478.003C1421.68 455.048 1402.87 436.44 1379.65 436.44L1220.13 436.591Z" fill="white" fill-opacity="0.2"/>
<path d="M1759.67 436.591C1738.15 438.402 1721.25 456.251 1721.25 478.003C1721.25 500.957 1740.07 519.566 1763.28 519.566L1919.19 519.566C1942.4 519.566 1961.22 500.957 1961.22 478.003C1961.22 455.048 1942.4 436.44 1919.19 436.44L1759.67 436.591Z" fill="white" fill-opacity="0.1"/>
<path d="M141.062 -27.6603C119.541 -25.8494 102.645 -8.00027 102.645 13.7515C102.645 36.7061 121.461 55.3145 144.673 55.3145L300.584 55.3145C323.796 55.3145 342.613 36.7061 342.613 13.7515C342.613 -9.20315 323.796 -27.8115 300.584 -27.8115L141.062 -27.6603Z" fill="white" fill-opacity="0.2"/>
<path d="M141.062 668.717C119.541 670.528 102.645 688.377 102.645 710.128C102.645 733.083 121.461 751.691 144.673 751.691L300.584 751.691C323.796 751.691 342.613 733.083 342.613 710.128C342.613 687.174 323.796 668.565 300.584 668.565L141.062 668.717Z" fill="white" fill-opacity="0.2"/>
<path d="M680.598 -27.6603C659.076 -25.8494 642.18 -8.00027 642.18 13.7515C642.18 36.7061 660.997 55.3145 684.208 55.3145L840.12 55.3145C863.331 55.3145 882.148 36.7061 882.148 13.7515C882.148 -9.20315 863.331 -27.8115 840.12 -27.8115L680.598 -27.6603Z" fill="white" fill-opacity="0.2"/>
<path d="M680.598 668.717C659.076 670.528 642.18 688.377 642.18 710.128C642.18 733.083 660.997 751.691 684.208 751.691L840.12 751.691C863.331 751.691 882.148 733.083 882.148 710.128C882.148 687.174 863.331 668.565 840.12 668.565L680.598 668.717Z" fill="white" fill-opacity="0.2"/>
<path d="M950.365 -27.6603C928.844 -25.8494 911.948 -8.00027 911.948 13.7515C911.948 36.7061 930.764 55.3145 953.976 55.3145L1109.89 55.3145C1133.1 55.3145 1151.92 36.7061 1151.92 13.7515C1151.92 -9.20315 1133.1 -27.8115 1109.89 -27.8115L950.365 -27.6603Z" fill="white" fill-opacity="0.1"/>
<path d="M950.365 668.717C928.844 670.528 911.948 688.377 911.948 710.128C911.948 733.083 930.764 751.691 953.976 751.691L1109.89 751.691C1133.1 751.691 1151.92 733.083 1151.92 710.128C1151.92 687.174 1133.1 668.565 1109.89 668.565L950.365 668.717Z" fill="white" fill-opacity="0.1"/>
<path d="M1220.13 -27.6603C1198.61 -25.8494 1181.72 -8.00027 1181.72 13.7515C1181.72 36.7061 1200.53 55.3145 1223.74 55.3145L1379.65 55.3145C1402.87 55.3145 1421.68 36.7061 1421.68 13.7515C1421.68 -9.20315 1402.87 -27.8115 1379.65 -27.8115L1220.13 -27.6603Z" fill="white" fill-opacity="0.2"/>
<path d="M1220.13 668.717C1198.61 670.528 1181.72 688.377 1181.72 710.128C1181.72 733.083 1200.53 751.691 1223.74 751.691L1379.65 751.691C1402.87 751.691 1421.68 733.083 1421.68 710.128C1421.68 687.174 1402.87 668.565 1379.65 668.565L1220.13 668.717Z" fill="white" fill-opacity="0.2"/>
<path d="M1759.67 -27.6603C1738.15 -25.8494 1721.25 -8.00027 1721.25 13.7515C1721.25 36.7061 1740.07 55.3145 1763.28 55.3145L1919.19 55.3145C1942.4 55.3145 1961.22 36.7061 1961.22 13.7515C1961.22 -9.20315 1942.4 -27.8115 1919.19 -27.8115L1759.67 -27.6603Z" fill="white" fill-opacity="0.07"/>
<path d="M1759.67 668.717C1738.15 670.528 1721.25 688.377 1721.25 710.128C1721.25 733.083 1740.07 751.691 1763.28 751.691L1919.19 751.691C1942.4 751.691 1961.22 733.083 1961.22 710.128C1961.22 687.174 1942.4 668.565 1919.19 668.565L1759.67 668.717Z" fill="white" fill-opacity="0.07"/>
<path d="M-128.705 204.465C-150.227 206.276 -167.123 224.125 -167.123 245.877C-167.123 268.832 -148.306 287.44 -125.095 287.44L30.8167 287.44C54.0282 287.44 72.8449 268.832 72.8449 245.877C72.8449 222.922 54.0282 204.314 30.8167 204.314L-128.705 204.465Z" fill="white" fill-opacity="0.1"/>
<path d="M-128.705 900.842C-150.227 902.653 -167.123 920.502 -167.123 942.254C-167.123 965.209 -148.306 983.817 -125.095 983.817L30.8167 983.817C54.0282 983.817 72.8449 965.209 72.8449 942.254C72.8449 919.299 54.0282 900.691 30.8167 900.691L-128.705 900.842Z" fill="white" fill-opacity="0.1"/>
<path d="M410.83 204.465C389.309 206.276 372.412 224.125 372.412 245.877C372.412 268.832 391.229 287.44 414.441 287.44L570.352 287.44C593.563 287.44 612.38 268.832 612.38 245.877C612.38 222.922 593.563 204.314 570.352 204.314L410.83 204.465Z" fill="white" fill-opacity="0.1"/>
<path d="M410.83 900.842C389.309 902.653 372.412 920.502 372.412 942.254C372.412 965.209 391.229 983.817 414.441 983.817L570.352 983.817C593.563 983.817 612.38 965.209 612.38 942.254C612.38 919.299 593.563 900.691 570.352 900.691L410.83 900.842Z" fill="white" fill-opacity="0.1"/>
<path d="M680.598 204.465C659.076 206.276 642.18 224.125 642.18 245.877C642.18 268.832 660.997 287.44 684.208 287.44L840.12 287.44C863.331 287.44 882.148 268.832 882.148 245.877C882.148 222.922 863.331 204.314 840.12 204.314L680.598 204.465Z" fill="white" fill-opacity="0.1"/>
<path d="M680.598 900.842C659.076 902.653 642.18 920.502 642.18 942.254C642.18 965.209 660.997 983.817 684.208 983.817L840.12 983.817C863.331 983.817 882.148 965.209 882.148 942.254C882.148 919.299 863.331 900.691 840.12 900.691L680.598 900.842Z" fill="white" fill-opacity="0.1"/>
<path d="M950.365 204.465C928.844 206.276 911.948 224.125 911.948 245.877C911.948 268.832 930.764 287.44 953.976 287.44L1109.89 287.44C1133.1 287.44 1151.92 268.832 1151.92 245.877C1151.92 222.922 1133.1 204.314 1109.89 204.314L950.365 204.465Z" fill="white" fill-opacity="0.2"/>
<path d="M950.365 900.842C928.844 902.653 911.948 920.502 911.948 942.254C911.948 965.209 930.764 983.817 953.976 983.817L1109.89 983.817C1133.1 983.817 1151.92 965.209 1151.92 942.254C1151.92 919.299 1133.1 900.691 1109.89 900.691L950.365 900.842Z" fill="white" fill-opacity="0.2"/>
<path d="M1220.13 204.465C1198.61 206.276 1181.72 224.125 1181.72 245.877C1181.72 268.832 1200.53 287.44 1223.74 287.44L1379.65 287.44C1402.87 287.44 1421.68 268.832 1421.68 245.877C1421.68 222.922 1402.87 204.314 1379.65 204.314L1220.13 204.465Z" fill="white" fill-opacity="0.1"/>
<path d="M1220.13 900.842C1198.61 902.653 1181.72 920.502 1181.72 942.254C1181.72 965.209 1200.53 983.817 1223.74 983.817L1379.65 983.817C1402.87 983.817 1421.68 965.209 1421.68 942.254C1421.68 919.299 1402.87 900.691 1379.65 900.691L1220.13 900.842Z" fill="white" fill-opacity="0.1"/>
<path d="M1489.9 204.465C1468.38 206.276 1451.48 224.125 1451.48 245.877C1451.48 268.832 1470.3 287.44 1493.51 287.44L1649.42 287.44C1672.63 287.44 1691.45 268.832 1691.45 245.877C1691.45 222.922 1672.63 204.314 1649.42 204.314L1489.9 204.465Z" fill="white" fill-opacity="0.2"/>
<path d="M1489.9 900.842C1468.38 902.653 1451.48 920.502 1451.48 942.254C1451.48 965.209 1470.3 983.817 1493.51 983.817L1649.42 983.817C1672.63 983.817 1691.45 965.209 1691.45 942.254C1691.45 919.299 1672.63 900.691 1649.42 900.691L1489.9 900.842Z" fill="white" fill-opacity="0.2"/>
<path d="M1759.67 204.465C1738.15 206.276 1721.25 224.125 1721.25 245.877C1721.25 268.832 1740.07 287.44 1763.28 287.44L1919.19 287.44C1942.4 287.44 1961.22 268.832 1961.22 245.877C1961.22 222.922 1942.4 204.314 1919.19 204.314L1759.67 204.465Z" fill="white" fill-opacity="0.1"/>
<path d="M1759.67 900.842C1738.15 902.653 1721.25 920.502 1721.25 942.254C1721.25 965.209 1740.07 983.817 1763.28 983.817L1919.19 983.817C1942.4 983.817 1961.22 965.209 1961.22 942.254C1961.22 919.299 1942.4 900.691 1919.19 900.691L1759.67 900.842Z" fill="white" fill-opacity="0.1"/>
</g>
<path fill-rule="evenodd" clip-rule="evenodd" d="M1607.23 510.308C1601.05 512.554 1594.37 513.779 1587.42 513.779C1555.36 513.779 1529.38 487.796 1529.38 455.744C1529.38 431.969 1543.68 411.533 1564.14 402.564C1555.67 399.424 1546.51 397.708 1536.95 397.708H1246.77C1203.57 397.708 1168.55 432.729 1168.55 475.93C1168.55 519.131 1203.57 554.152 1246.77 554.152H1536.95C1567.82 554.152 1594.51 536.274 1607.23 510.308Z" fill="#EE675C"/>
<path fill-rule="evenodd" clip-rule="evenodd" d="M1536.95 730.783C1580.15 730.783 1615.17 695.762 1615.17 652.561C1615.17 609.36 1580.15 574.339 1536.95 574.339L1246.77 574.339C1203.57 574.339 1168.55 609.36 1168.55 652.561C1168.55 664.088 1171.04 675.033 1175.52 684.886C1185.67 665.662 1205.86 652.561 1229.11 652.561C1262.55 652.561 1289.67 679.674 1289.67 713.119C1289.67 719.264 1288.75 725.195 1287.05 730.783L1536.95 730.783Z" fill="#24C1E0"/>
<path fill-rule="evenodd" clip-rule="evenodd" d="M1240.05 221.363C1200 224.772 1168.55 258.364 1168.55 299.3C1168.55 342.501 1203.57 377.522 1246.77 377.522L1536.95 377.522C1580.15 377.522 1615.17 342.501 1615.17 299.3C1615.17 256.1 1580.15 221.079 1536.95 221.079L1364.56 221.079C1359.73 251.12 1333.69 274.068 1302.28 274.068C1270.98 274.068 1245 251.265 1240.05 221.363Z" fill="#AF5CF7"/>
<path d="M347.741 405.347H324.54V393.165H347.741C351.781 393.165 355.046 392.512 357.535 391.206C360.025 389.9 361.841 388.104 362.984 385.819C364.167 383.492 364.759 380.84 364.759 377.861C364.759 375.045 364.167 372.412 362.984 369.964C361.841 367.474 360.025 365.474 357.535 363.964C355.046 362.454 351.781 361.699 347.741 361.699H329.253V438.587H313.888V349.456H347.741C354.638 349.456 360.494 350.681 365.31 353.129C370.166 355.537 373.86 358.884 376.39 363.169C378.92 367.413 380.185 372.269 380.185 377.738C380.185 383.492 378.92 388.431 376.39 392.552C373.86 396.674 370.166 399.837 365.31 402.041C360.494 404.245 354.638 405.347 347.741 405.347ZM407.304 384.962V438.587H392.551V372.351H406.631L407.304 384.962ZM427.567 371.923L427.444 385.635C426.546 385.472 425.567 385.349 424.506 385.268C423.486 385.186 422.465 385.145 421.445 385.145C418.915 385.145 416.691 385.513 414.772 386.247C412.854 386.941 411.242 387.961 409.936 389.308C408.671 390.614 407.692 392.206 406.998 394.083C406.304 395.96 405.896 398.062 405.774 400.388L402.407 400.633C402.407 396.47 402.815 392.614 403.631 389.063C404.447 385.513 405.672 382.391 407.304 379.697C408.977 377.003 411.059 374.902 413.548 373.392C416.078 371.882 418.996 371.127 422.302 371.127C423.2 371.127 424.159 371.208 425.179 371.372C426.24 371.535 427.036 371.719 427.567 371.923ZM432.403 406.204V404.796C432.403 400.021 433.097 395.593 434.484 391.512C435.872 387.39 437.871 383.819 440.483 380.799C443.136 377.738 446.36 375.371 450.155 373.698C453.992 371.984 458.318 371.127 463.133 371.127C467.99 371.127 472.316 371.984 476.111 373.698C479.947 375.371 483.192 377.738 485.844 380.799C488.497 383.819 490.517 387.39 491.905 391.512C493.292 395.593 493.986 400.021 493.986 404.796V406.204C493.986 410.978 493.292 415.406 491.905 419.488C490.517 423.569 488.497 427.14 485.844 430.2C483.192 433.22 479.968 435.587 476.172 437.301C472.377 438.975 468.071 439.811 463.256 439.811C458.399 439.811 454.053 438.975 450.217 437.301C446.421 435.587 443.197 433.22 440.544 430.2C437.892 427.14 435.872 423.569 434.484 419.488C433.097 415.406 432.403 410.978 432.403 406.204ZM447.156 404.796V406.204C447.156 409.183 447.462 411.999 448.074 414.651C448.686 417.304 449.645 419.63 450.951 421.63C452.257 423.63 453.93 425.201 455.971 426.344C458.011 427.486 460.44 428.058 463.256 428.058C465.99 428.058 468.357 427.486 470.357 426.344C472.397 425.201 474.071 423.63 475.376 421.63C476.682 419.63 477.641 417.304 478.254 414.651C478.907 411.999 479.233 409.183 479.233 406.204V404.796C479.233 401.857 478.907 399.082 478.254 396.47C477.641 393.818 476.662 391.471 475.315 389.43C474.009 387.39 472.336 385.798 470.296 384.656C468.296 383.472 465.908 382.88 463.133 382.88C460.358 382.88 457.95 383.472 455.91 384.656C453.91 385.798 452.257 387.39 450.951 389.43C449.645 391.471 448.686 393.818 448.074 396.47C447.462 399.082 447.156 401.857 447.156 404.796ZM536.715 372.351V383.125H499.373V372.351H536.715ZM510.147 356.129H524.9V420.283C524.9 422.324 525.186 423.895 525.757 424.997C526.37 426.058 527.206 426.772 528.267 427.14C529.328 427.507 530.573 427.69 532.001 427.69C533.022 427.69 534.001 427.629 534.94 427.507C535.878 427.384 536.633 427.262 537.205 427.14L537.266 438.403C536.042 438.771 534.613 439.097 532.981 439.383C531.389 439.668 529.553 439.811 527.471 439.811C524.084 439.811 521.085 439.22 518.473 438.036C515.861 436.812 513.82 434.832 512.351 432.098C510.882 429.364 510.147 425.732 510.147 421.202V356.129ZM543.816 406.204V404.796C543.816 400.021 544.51 395.593 545.898 391.512C547.285 387.39 549.285 383.819 551.897 380.799C554.549 377.738 557.773 375.371 561.569 373.698C565.405 371.984 569.731 371.127 574.547 371.127C579.403 371.127 583.729 371.984 587.524 373.698C591.361 375.371 594.605 377.738 597.258 380.799C599.911 383.819 601.931 387.39 603.318 391.512C604.706 395.593 605.4 400.021 605.4 404.796V406.204C605.4 410.978 604.706 415.406 603.318 419.488C601.931 423.569 599.911 427.14 597.258 430.2C594.605 433.22 591.381 435.587 587.586 437.301C583.79 438.975 579.485 439.811 574.669 439.811C569.813 439.811 565.466 438.975 561.63 437.301C557.835 435.587 554.611 433.22 551.958 430.2C549.305 427.14 547.285 423.569 545.898 419.488C544.51 415.406 543.816 410.978 543.816 406.204ZM558.569 404.796V406.204C558.569 409.183 558.875 411.999 559.487 414.651C560.1 417.304 561.059 419.63 562.365 421.63C563.671 423.63 565.344 425.201 567.384 426.344C569.425 427.486 571.853 428.058 574.669 428.058C577.403 428.058 579.77 427.486 581.77 426.344C583.811 425.201 585.484 423.63 586.79 421.63C588.096 419.63 589.055 417.304 589.667 414.651C590.32 411.999 590.647 409.183 590.647 406.204V404.796C590.647 401.857 590.32 399.082 589.667 396.47C589.055 393.818 588.075 391.471 586.729 389.43C585.423 387.39 583.749 385.798 581.709 384.656C579.709 383.472 577.322 382.88 574.547 382.88C571.772 382.88 569.364 383.472 567.323 384.656C565.323 385.798 563.671 387.39 562.365 389.43C561.059 391.471 560.1 393.818 559.487 396.47C558.875 399.082 558.569 401.857 558.569 404.796ZM648.128 372.351V383.125H610.787V372.351H648.128ZM621.561 356.129H636.314V420.283C636.314 422.324 636.599 423.895 637.171 424.997C637.783 426.058 638.62 426.772 639.681 427.14C640.742 427.507 641.986 427.69 643.415 427.69C644.435 427.69 645.415 427.629 646.353 427.507C647.292 427.384 648.047 427.262 648.618 427.14L648.679 438.403C647.455 438.771 646.027 439.097 644.394 439.383C642.803 439.668 640.966 439.811 638.885 439.811C635.498 439.811 632.498 439.22 629.886 438.036C627.274 436.812 625.234 434.832 623.764 432.098C622.295 429.364 621.561 425.732 621.561 421.202V356.129ZM678.737 431.363L696.734 372.351H712.528L685.96 448.688C685.348 450.32 684.552 452.095 683.573 454.013C682.593 455.932 681.308 457.748 679.716 459.462C678.165 461.217 676.227 462.625 673.9 463.686C671.574 464.787 668.758 465.338 665.453 465.338C664.147 465.338 662.882 465.216 661.657 464.971C660.474 464.767 659.351 464.543 658.29 464.298L658.229 453.034C658.637 453.075 659.127 453.116 659.698 453.156C660.311 453.197 660.8 453.218 661.168 453.218C663.616 453.218 665.657 452.912 667.289 452.299C668.922 451.728 670.248 450.789 671.268 449.483C672.329 448.177 673.227 446.423 673.962 444.219L678.737 431.363ZM668.575 372.351L684.307 421.936L686.94 437.485L676.716 440.117L652.658 372.351H668.575ZM735.79 385.084V464.053H721.037V372.351H734.627L735.79 385.084ZM778.947 404.857V406.142C778.947 410.958 778.376 415.427 777.233 419.549C776.131 423.63 774.479 427.201 772.275 430.262C770.112 433.282 767.439 435.628 764.256 437.301C761.072 438.975 757.399 439.811 753.237 439.811C749.115 439.811 745.503 439.056 742.401 437.546C739.341 435.995 736.749 433.812 734.627 430.996C732.505 428.18 730.791 424.875 729.485 421.079C728.22 417.243 727.322 413.039 726.791 408.469V403.51C727.322 398.654 728.22 394.246 729.485 390.287C730.791 386.329 732.505 382.921 734.627 380.064C736.749 377.208 739.341 375.004 742.401 373.453C745.462 371.902 749.033 371.127 753.114 371.127C757.277 371.127 760.97 371.943 764.194 373.575C767.418 375.167 770.132 377.452 772.336 380.432C774.54 383.37 776.193 386.921 777.295 391.083C778.396 395.205 778.947 399.796 778.947 404.857ZM764.194 406.142V404.857C764.194 401.796 763.909 398.96 763.337 396.348C762.766 393.695 761.868 391.369 760.644 389.369C759.419 387.369 757.848 385.819 755.93 384.717C754.053 383.574 751.788 383.003 749.135 383.003C746.523 383.003 744.279 383.452 742.401 384.349C740.524 385.206 738.953 386.41 737.688 387.961C736.423 389.512 735.443 391.328 734.749 393.409C734.056 395.45 733.566 397.674 733.28 400.082V411.958C733.77 414.896 734.607 417.59 735.79 420.038C736.974 422.487 738.647 424.446 740.81 425.915C743.014 427.344 745.829 428.058 749.258 428.058C751.91 428.058 754.175 427.486 756.053 426.344C757.93 425.201 759.46 423.63 760.644 421.63C761.868 419.59 762.766 417.243 763.337 414.59C763.909 411.938 764.194 409.122 764.194 406.142ZM807.291 372.351V438.587H792.476V372.351H807.291ZM791.497 354.966C791.497 352.721 792.231 350.864 793.701 349.395C795.211 347.885 797.292 347.13 799.945 347.13C802.556 347.13 804.617 347.885 806.127 349.395C807.637 350.864 808.392 352.721 808.392 354.966C808.392 357.169 807.637 359.006 806.127 360.475C804.617 361.944 802.556 362.679 799.945 362.679C797.292 362.679 795.211 361.944 793.701 360.475C792.231 359.006 791.497 357.169 791.497 354.966ZM838.082 386.492V438.587H823.329V372.351H837.225L838.082 386.492ZM835.45 403.02L830.675 402.959C830.716 398.266 831.369 393.96 832.634 390.043C833.94 386.125 835.736 382.758 838.021 379.942C840.347 377.126 843.122 374.963 846.346 373.453C849.57 371.902 853.162 371.127 857.12 371.127C860.304 371.127 863.181 371.576 865.752 372.474C868.364 373.331 870.588 374.739 872.425 376.697C874.302 378.656 875.73 381.207 876.71 384.349C877.689 387.451 878.179 391.267 878.179 395.797V438.587H863.365V395.736C863.365 392.552 862.895 390.043 861.957 388.206C861.059 386.329 859.732 385.002 857.977 384.227C856.263 383.411 854.121 383.003 851.55 383.003C849.02 383.003 846.755 383.533 844.755 384.594C842.755 385.655 841.061 387.104 839.674 388.941C838.327 390.777 837.286 392.899 836.552 395.307C835.817 397.715 835.45 400.286 835.45 403.02ZM935.661 372.351H949.067V436.75C949.067 442.709 947.802 447.769 945.272 451.932C942.741 456.095 939.211 459.258 934.681 461.421C930.151 463.624 924.907 464.726 918.949 464.726C916.419 464.726 913.603 464.359 910.501 463.624C907.44 462.89 904.461 461.706 901.563 460.074C898.707 458.482 896.319 456.38 894.401 453.769L901.319 445.076C903.686 447.892 906.297 449.953 909.154 451.259C912.011 452.565 915.011 453.218 918.153 453.218C921.54 453.218 924.417 452.585 926.784 451.32C929.192 450.096 931.049 448.28 932.355 445.872C933.661 443.464 934.314 440.525 934.314 437.057V387.349L935.661 372.351ZM890.667 406.204V404.918C890.667 399.898 891.279 395.328 892.503 391.206C893.728 387.043 895.483 383.472 897.768 380.493C900.053 377.473 902.829 375.167 906.093 373.575C909.358 371.943 913.052 371.127 917.174 371.127C921.459 371.127 925.111 371.902 928.131 373.453C931.192 375.004 933.743 377.228 935.783 380.126C937.824 382.982 939.415 386.41 940.558 390.41C941.742 394.368 942.619 398.776 943.19 403.633V407.734C942.66 412.468 941.762 416.794 940.497 420.712C939.232 424.63 937.559 428.017 935.477 430.874C933.396 433.73 930.825 435.934 927.764 437.485C924.744 439.036 921.173 439.811 917.051 439.811C913.011 439.811 909.358 438.975 906.093 437.301C902.869 435.628 900.094 433.282 897.768 430.262C895.483 427.242 893.728 423.691 892.503 419.61C891.279 415.488 890.667 411.019 890.667 406.204ZM905.42 404.918V406.204C905.42 409.224 905.706 412.04 906.277 414.651C906.889 417.263 907.807 419.569 909.032 421.569C910.297 423.528 911.889 425.079 913.807 426.221C915.766 427.323 918.071 427.874 920.724 427.874C924.193 427.874 927.029 427.14 929.233 425.67C931.478 424.201 933.192 422.222 934.375 419.732C935.6 417.202 936.457 414.386 936.946 411.285V400.204C936.701 397.797 936.191 395.552 935.416 393.471C934.681 391.389 933.682 389.573 932.416 388.022C931.151 386.431 929.56 385.206 927.642 384.349C925.723 383.452 923.458 383.003 920.847 383.003C918.194 383.003 915.888 383.574 913.929 384.717C911.97 385.859 910.358 387.431 909.093 389.43C907.869 391.43 906.95 393.756 906.338 396.409C905.726 399.062 905.42 401.898 905.42 404.918ZM330.417 570.895L345.721 519.351H355.148L352.577 534.778L337.15 585.587H328.703L330.417 570.895ZM321.418 519.351L333.355 571.14L334.334 585.587H324.907L306.971 519.351H321.418ZM369.473 570.528L381.042 519.351H395.428L377.553 585.587H368.126L369.473 570.528ZM356.74 519.351L371.86 570.283L373.758 585.587H365.31L349.7 534.716L347.129 519.351H356.74ZM421.261 519.351V585.587H406.447V519.351H421.261ZM405.468 501.966C405.468 499.721 406.202 497.864 407.671 496.395C409.181 494.885 411.263 494.13 413.915 494.13C416.527 494.13 418.588 494.885 420.098 496.395C421.608 497.864 422.363 499.721 422.363 501.966C422.363 504.169 421.608 506.006 420.098 507.475C418.588 508.944 416.527 509.679 413.915 509.679C411.263 509.679 409.181 508.944 407.671 507.475C406.202 506.006 405.468 504.169 405.468 501.966ZM467.786 519.351V530.125H430.444V519.351H467.786ZM441.218 503.129H455.971V567.283C455.971 569.324 456.257 570.895 456.828 571.997C457.44 573.058 458.277 573.772 459.338 574.14C460.399 574.507 461.644 574.69 463.072 574.69C464.092 574.69 465.072 574.629 466.01 574.507C466.949 574.384 467.704 574.262 468.275 574.14L468.337 585.403C467.112 585.771 465.684 586.097 464.051 586.383C462.46 586.668 460.623 586.811 458.542 586.811C455.155 586.811 452.155 586.22 449.543 585.036C446.931 583.812 444.891 581.832 443.422 579.098C441.952 576.364 441.218 572.732 441.218 568.202V503.129ZM493.741 491.559V585.587H479.049V491.559H493.741ZM491.17 550.02L486.395 549.959C486.436 545.388 487.069 541.164 488.293 537.287C489.558 533.41 491.313 530.043 493.558 527.187C495.843 524.289 498.577 522.065 501.761 520.514C504.944 518.923 508.474 518.127 512.351 518.127C515.616 518.127 518.554 518.576 521.166 519.474C523.819 520.371 526.104 521.82 528.022 523.82C529.94 525.779 531.389 528.35 532.369 531.533C533.389 534.676 533.899 538.512 533.899 543.042V585.587H519.085V542.919C519.085 539.736 518.616 537.206 517.677 535.328C516.779 533.451 515.453 532.104 513.698 531.288C511.943 530.431 509.8 530.003 507.27 530.003C504.617 530.003 502.271 530.533 500.23 531.594C498.231 532.655 496.557 534.104 495.211 535.941C493.864 537.777 492.843 539.899 492.15 542.307C491.497 544.715 491.17 547.286 491.17 550.02ZM614.949 545.307H592.238L592.116 534.104H611.95C615.296 534.104 618.133 533.614 620.459 532.635C622.826 531.615 624.621 530.166 625.846 528.289C627.07 526.371 627.682 524.065 627.682 521.371C627.682 518.392 627.111 515.964 625.968 514.086C624.826 512.209 623.071 510.842 620.704 509.985C618.377 509.128 615.398 508.699 611.766 508.699H596.891V585.587H581.525V496.456H611.766C616.663 496.456 621.03 496.926 624.866 497.864C628.743 498.803 632.029 500.272 634.722 502.272C637.456 504.231 639.517 506.72 640.905 509.74C642.333 512.76 643.048 516.351 643.048 520.514C643.048 524.187 642.17 527.554 640.415 530.615C638.66 533.635 636.069 536.104 632.641 538.022C629.213 539.94 624.948 541.083 619.847 541.45L614.949 545.307ZM614.276 585.587H587.402L594.319 573.405H614.276C617.745 573.405 620.642 572.834 622.969 571.691C625.295 570.507 627.029 568.895 628.172 566.855C629.356 564.773 629.947 562.345 629.947 559.57C629.947 556.673 629.437 554.163 628.417 552.041C627.397 549.878 625.785 548.225 623.581 547.082C621.377 545.898 618.5 545.307 614.949 545.307H597.686L597.809 534.104H620.275L623.764 538.328C628.662 538.491 632.682 539.573 635.824 541.573C639.007 543.572 641.374 546.164 642.925 549.347C644.476 552.53 645.251 555.958 645.251 559.631C645.251 565.304 644.007 570.058 641.517 573.895C639.068 577.731 635.538 580.649 630.927 582.649C626.315 584.608 620.765 585.587 614.276 585.587ZM656.454 553.204V551.796C656.454 547.021 657.148 542.593 658.535 538.512C659.923 534.39 661.923 530.819 664.534 527.799C667.187 524.738 670.411 522.371 674.207 520.698C678.043 518.984 682.369 518.127 687.184 518.127C692.041 518.127 696.367 518.984 700.162 520.698C703.998 522.371 707.243 524.738 709.896 527.799C712.548 530.819 714.568 534.39 715.956 538.512C717.344 542.593 718.037 547.021 718.037 551.796V553.204C718.037 557.978 717.344 562.406 715.956 566.488C714.568 570.569 712.548 574.14 709.896 577.2C707.243 580.22 704.019 582.587 700.223 584.301C696.428 585.975 692.122 586.811 687.307 586.811C682.45 586.811 678.104 585.975 674.268 584.301C670.472 582.587 667.248 580.22 664.596 577.2C661.943 574.14 659.923 570.569 658.535 566.488C657.148 562.406 656.454 557.978 656.454 553.204ZM671.207 551.796V553.204C671.207 556.183 671.513 558.999 672.125 561.651C672.737 564.304 673.696 566.63 675.002 568.63C676.308 570.63 677.982 572.201 680.022 573.344C682.063 574.486 684.491 575.058 687.307 575.058C690.041 575.058 692.408 574.486 694.408 573.344C696.448 572.201 698.122 570.63 699.428 568.63C700.734 566.63 701.693 564.304 702.305 561.651C702.958 558.999 703.284 556.183 703.284 553.204V551.796C703.284 548.857 702.958 546.082 702.305 543.47C701.693 540.818 700.713 538.471 699.366 536.43C698.06 534.39 696.387 532.798 694.347 531.656C692.347 530.472 689.96 529.88 687.184 529.88C684.409 529.88 682.001 530.472 679.961 531.656C677.961 532.798 676.308 534.39 675.002 536.43C673.696 538.471 672.737 540.818 672.125 543.47C671.513 546.082 671.207 548.857 671.207 551.796ZM727.587 553.204V551.796C727.587 547.021 728.281 542.593 729.668 538.512C731.056 534.39 733.056 530.819 735.668 527.799C738.32 524.738 741.544 522.371 745.34 520.698C749.176 518.984 753.502 518.127 758.318 518.127C763.174 518.127 767.5 518.984 771.295 520.698C775.132 522.371 778.376 524.738 781.029 527.799C783.681 530.819 785.702 534.39 787.089 538.512C788.477 542.593 789.171 547.021 789.171 551.796V553.204C789.171 557.978 788.477 562.406 787.089 566.488C785.702 570.569 783.681 574.14 781.029 577.2C778.376 580.22 775.152 582.587 771.357 584.301C767.561 585.975 763.256 586.811 758.44 586.811C753.584 586.811 749.237 585.975 745.401 584.301C741.606 582.587 738.382 580.22 735.729 577.2C733.076 574.14 731.056 570.569 729.668 566.488C728.281 562.406 727.587 557.978 727.587 553.204ZM742.34 551.796V553.204C742.34 556.183 742.646 558.999 743.258 561.651C743.871 564.304 744.83 566.63 746.136 568.63C747.442 570.63 749.115 572.201 751.155 573.344C753.196 574.486 755.624 575.058 758.44 575.058C761.174 575.058 763.541 574.486 765.541 573.344C767.582 572.201 769.255 570.63 770.561 568.63C771.867 566.63 772.826 564.304 773.438 561.651C774.091 558.999 774.417 556.183 774.417 553.204V551.796C774.417 548.857 774.091 546.082 773.438 543.47C772.826 540.818 771.846 538.471 770.5 536.43C769.194 534.39 767.52 532.798 765.48 531.656C763.48 530.472 761.093 529.88 758.318 529.88C755.542 529.88 753.135 530.472 751.094 531.656C749.094 532.798 747.442 534.39 746.136 536.43C744.83 538.471 743.871 540.818 743.258 543.47C742.646 546.082 742.34 548.857 742.34 551.796ZM817.33 491.559V585.587H802.516V491.559H817.33ZM862.691 586.811C857.794 586.811 853.366 586.015 849.407 584.424C845.489 582.791 842.143 580.526 839.368 577.629C836.634 574.731 834.532 571.324 833.063 567.406C831.593 563.488 830.859 559.264 830.859 554.734V552.285C830.859 547.102 831.614 542.409 833.124 538.206C834.634 534.002 836.736 530.411 839.429 527.432C842.123 524.412 845.306 522.106 848.979 520.514C852.652 518.923 856.631 518.127 860.916 518.127C865.65 518.127 869.792 518.923 873.343 520.514C876.893 522.106 879.832 524.35 882.158 527.248C884.525 530.105 886.28 533.512 887.423 537.471C888.606 541.43 889.198 545.796 889.198 550.571V556.877H838.021V546.286H874.628V545.123C874.547 542.47 874.016 539.981 873.037 537.655C872.098 535.328 870.649 533.451 868.69 532.023C866.731 530.594 864.12 529.88 860.855 529.88C858.406 529.88 856.223 530.411 854.305 531.472C852.427 532.492 850.856 533.982 849.591 535.941C848.326 537.9 847.346 540.267 846.653 543.042C846 545.776 845.673 548.857 845.673 552.285V554.734C845.673 557.632 846.061 560.325 846.836 562.815C847.652 565.263 848.836 567.406 850.387 569.242C851.938 571.079 853.815 572.528 856.019 573.589C858.222 574.609 860.732 575.119 863.548 575.119C867.099 575.119 870.262 574.405 873.037 572.976C875.812 571.548 878.22 569.528 880.26 566.916L888.035 574.446C886.606 576.527 884.749 578.527 882.464 580.445C880.179 582.322 877.383 583.853 874.077 585.036C870.813 586.22 867.017 586.811 862.691 586.811ZM938.048 572.303V540.716C938.048 538.348 937.62 536.308 936.763 534.594C935.906 532.88 934.6 531.553 932.845 530.615C931.131 529.676 928.968 529.207 926.356 529.207C923.948 529.207 921.867 529.615 920.112 530.431C918.357 531.247 916.99 532.349 916.01 533.737C915.031 535.124 914.541 536.696 914.541 538.451H899.849C899.849 535.839 900.482 533.308 901.747 530.86C903.012 528.411 904.849 526.228 907.257 524.31C909.664 522.391 912.542 520.881 915.888 519.78C919.234 518.678 922.989 518.127 927.152 518.127C932.131 518.127 936.538 518.963 940.374 520.637C944.252 522.31 947.292 524.84 949.496 528.227C951.74 531.574 952.863 535.777 952.863 540.838V570.283C952.863 573.303 953.067 576.017 953.475 578.425C953.924 580.792 954.556 582.853 955.372 584.608V585.587H940.252C939.558 583.995 939.007 581.975 938.599 579.527C938.232 577.037 938.048 574.629 938.048 572.303ZM940.191 545.307L940.313 554.428H929.723C926.989 554.428 924.581 554.693 922.499 555.224C920.418 555.713 918.684 556.448 917.296 557.428C915.908 558.407 914.868 559.59 914.174 560.978C913.48 562.366 913.133 563.937 913.133 565.692C913.133 567.447 913.541 569.059 914.358 570.528C915.174 571.956 916.357 573.078 917.908 573.895C919.5 574.711 921.418 575.119 923.662 575.119C926.682 575.119 929.315 574.507 931.559 573.283C933.845 572.017 935.64 570.487 936.946 568.691C938.252 566.855 938.946 565.12 939.028 563.488L943.803 570.038C943.313 571.711 942.476 573.507 941.293 575.425C940.109 577.343 938.558 579.18 936.64 580.935C934.763 582.649 932.498 584.057 929.845 585.158C927.233 586.26 924.213 586.811 920.785 586.811C916.459 586.811 912.603 585.954 909.215 584.24C905.828 582.485 903.175 580.139 901.257 577.2C899.339 574.221 898.38 570.854 898.38 567.1C898.38 563.59 899.033 560.488 900.339 557.795C901.686 555.06 903.645 552.775 906.216 550.939C908.828 549.102 912.011 547.715 915.766 546.776C919.52 545.796 923.805 545.307 928.621 545.307H940.191ZM982.92 533.492V585.587H968.167V519.351H982.063L982.92 533.492ZM980.287 550.02L975.513 549.959C975.553 545.266 976.206 540.96 977.471 537.043C978.777 533.125 980.573 529.758 982.858 526.942C985.185 524.126 987.96 521.963 991.184 520.453C994.408 518.902 997.999 518.127 1001.96 518.127C1005.14 518.127 1008.02 518.576 1010.59 519.474C1013.2 520.331 1015.43 521.739 1017.26 523.697C1019.14 525.656 1020.57 528.207 1021.55 531.349C1022.53 534.451 1023.02 538.267 1023.02 542.797V585.587H1008.2V542.736C1008.2 539.552 1007.73 537.043 1006.79 535.206C1005.9 533.329 1004.57 532.002 1002.81 531.227C1001.1 530.411 998.958 530.003 996.387 530.003C993.857 530.003 991.592 530.533 989.592 531.594C987.593 532.655 985.899 534.104 984.511 535.941C983.165 537.777 982.124 539.899 981.389 542.307C980.655 544.715 980.287 547.286 980.287 550.02ZM344.435 716.303L367.881 643.456H384.838L352.883 732.587H341.436L344.435 716.303ZM322.765 643.456L346.027 716.303L349.21 732.587H337.701L305.869 643.456H322.765ZM427.873 719.303V687.716C427.873 685.348 427.444 683.308 426.587 681.594C425.73 679.88 424.424 678.553 422.669 677.615C420.955 676.676 418.792 676.207 416.18 676.207C413.773 676.207 411.691 676.615 409.936 677.431C408.182 678.247 406.814 679.349 405.835 680.737C404.855 682.124 404.366 683.696 404.366 685.451H389.674C389.674 682.839 390.306 680.308 391.572 677.86C392.837 675.411 394.673 673.228 397.081 671.31C399.489 669.391 402.366 667.881 405.712 666.78C409.059 665.678 412.814 665.127 416.976 665.127C421.955 665.127 426.363 665.963 430.199 667.637C434.076 669.31 437.116 671.84 439.32 675.227C441.565 678.574 442.687 682.777 442.687 687.838V717.283C442.687 720.303 442.891 723.017 443.299 725.425C443.748 727.792 444.381 729.853 445.197 731.608V732.587H430.077C429.383 730.995 428.832 728.975 428.424 726.527C428.056 724.037 427.873 721.629 427.873 719.303ZM430.015 692.307L430.138 701.428H419.547C416.813 701.428 414.405 701.693 412.324 702.224C410.242 702.713 408.508 703.448 407.12 704.428C405.733 705.407 404.692 706.59 403.998 707.978C403.305 709.366 402.958 710.937 402.958 712.692C402.958 714.447 403.366 716.059 404.182 717.528C404.998 718.956 406.182 720.078 407.733 720.895C409.324 721.711 411.242 722.119 413.487 722.119C416.507 722.119 419.139 721.507 421.384 720.283C423.669 719.017 425.465 717.487 426.771 715.691C428.077 713.855 428.771 712.12 428.852 710.488L433.627 717.038C433.137 718.711 432.301 720.507 431.117 722.425C429.934 724.343 428.383 726.18 426.465 727.935C424.587 729.649 422.322 731.057 419.67 732.158C417.058 733.26 414.038 733.811 410.61 733.811C406.284 733.811 402.427 732.954 399.04 731.24C395.653 729.485 393 727.139 391.082 724.2C389.164 721.221 388.205 717.854 388.205 714.1C388.205 710.59 388.858 707.488 390.164 704.795C391.51 702.06 393.469 699.775 396.04 697.939C398.652 696.102 401.835 694.715 405.59 693.776C409.345 692.796 413.63 692.307 418.445 692.307H430.015ZM472.928 678.962V732.587H458.175V666.351H472.254L472.928 678.962ZM493.19 665.923L493.068 679.635C492.17 679.472 491.191 679.349 490.13 679.268C489.109 679.186 488.089 679.145 487.069 679.145C484.539 679.145 482.314 679.513 480.396 680.247C478.478 680.941 476.866 681.961 475.56 683.308C474.295 684.614 473.316 686.206 472.622 688.083C471.928 689.96 471.52 692.062 471.397 694.388L468.031 694.633C468.031 690.47 468.439 686.614 469.255 683.063C470.071 679.513 471.295 676.391 472.928 673.697C474.601 671.003 476.682 668.902 479.172 667.392C481.702 665.882 484.62 665.127 487.926 665.127C488.824 665.127 489.783 665.208 490.803 665.372C491.864 665.535 492.66 665.719 493.19 665.923ZM518.228 666.351V732.587H503.413V666.351H518.228ZM502.434 648.966C502.434 646.721 503.169 644.864 504.638 643.395C506.148 641.885 508.229 641.13 510.882 641.13C513.494 641.13 515.555 641.885 517.065 643.395C518.575 644.864 519.33 646.721 519.33 648.966C519.33 651.169 518.575 653.006 517.065 654.475C515.555 655.944 513.494 656.679 510.882 656.679C508.229 656.679 506.148 655.944 504.638 654.475C503.169 653.006 502.434 651.169 502.434 648.966ZM571.731 719.303V687.716C571.731 685.348 571.302 683.308 570.445 681.594C569.588 679.88 568.282 678.553 566.527 677.615C564.813 676.676 562.65 676.207 560.038 676.207C557.631 676.207 555.549 676.615 553.794 677.431C552.04 678.247 550.672 679.349 549.693 680.737C548.713 682.124 548.224 683.696 548.224 685.451H533.532C533.532 682.839 534.164 680.308 535.43 677.86C536.695 675.411 538.531 673.228 540.939 671.31C543.347 669.391 546.224 667.881 549.57 666.78C552.917 665.678 556.672 665.127 560.834 665.127C565.813 665.127 570.221 665.963 574.057 667.637C577.934 669.31 580.974 671.84 583.178 675.227C585.423 678.574 586.545 682.777 586.545 687.838V717.283C586.545 720.303 586.749 723.017 587.157 725.425C587.606 727.792 588.239 729.853 589.055 731.608V732.587H573.935C573.241 730.995 572.69 728.975 572.282 726.527C571.914 724.037 571.731 721.629 571.731 719.303ZM573.873 692.307L573.996 701.428H563.405C560.671 701.428 558.263 701.693 556.182 702.224C554.1 702.713 552.366 703.448 550.978 704.428C549.591 705.407 548.55 706.59 547.856 707.978C547.163 709.366 546.816 710.937 546.816 712.692C546.816 714.447 547.224 716.059 548.04 717.528C548.856 718.956 550.04 720.078 551.591 720.895C553.182 721.711 555.1 722.119 557.345 722.119C560.365 722.119 562.997 721.507 565.242 720.283C567.527 719.017 569.323 717.487 570.629 715.691C571.935 713.855 572.629 712.12 572.71 710.488L577.485 717.038C576.995 718.711 576.159 720.507 574.975 722.425C573.792 724.343 572.241 726.18 570.323 727.935C568.445 729.649 566.18 731.057 563.528 732.158C560.916 733.26 557.896 733.811 554.468 733.811C550.142 733.811 546.285 732.954 542.898 731.24C539.511 729.485 536.858 727.139 534.94 724.2C533.022 721.221 532.063 717.854 532.063 714.1C532.063 710.59 532.716 707.488 534.022 704.795C535.368 702.06 537.327 699.775 539.898 697.939C542.51 696.102 545.693 694.715 549.448 693.776C553.203 692.796 557.488 692.307 562.303 692.307H573.873ZM602.033 638.559H616.786V718.446L615.378 732.587H602.033V638.559ZM660.004 698.857V700.142C660.004 705.04 659.453 709.549 658.352 713.671C657.291 717.752 655.658 721.303 653.454 724.323C651.291 727.343 648.598 729.689 645.374 731.363C642.191 732.995 638.497 733.811 634.294 733.811C630.172 733.811 626.58 733.036 623.52 731.485C620.459 729.934 617.888 727.73 615.806 724.874C613.766 722.017 612.113 718.609 610.848 714.651C609.583 710.692 608.685 706.325 608.154 701.55V697.449C608.685 692.633 609.583 688.266 610.848 684.349C612.113 680.39 613.766 676.982 615.806 674.126C617.888 671.228 620.438 669.004 623.458 667.453C626.519 665.902 630.09 665.127 634.171 665.127C638.416 665.127 642.15 665.943 645.374 667.575C648.639 669.208 651.353 671.534 653.516 674.554C655.678 677.533 657.291 681.084 658.352 685.206C659.453 689.328 660.004 693.878 660.004 698.857ZM645.251 700.142V698.857C645.251 695.878 645.006 693.082 644.517 690.47C644.027 687.818 643.211 685.491 642.068 683.492C640.966 681.492 639.456 679.921 637.538 678.778C635.661 677.594 633.314 677.003 630.498 677.003C627.886 677.003 625.642 677.452 623.764 678.349C621.887 679.247 620.316 680.472 619.051 682.022C617.786 683.573 616.786 685.369 616.051 687.409C615.357 689.45 614.888 691.654 614.643 694.021V705.101C615.011 708.162 615.786 710.978 616.969 713.549C618.194 716.079 619.908 718.12 622.112 719.67C624.315 721.18 627.152 721.935 630.621 721.935C633.355 721.935 635.661 721.384 637.538 720.283C639.415 719.181 640.905 717.65 642.007 715.691C643.15 713.692 643.966 711.365 644.456 708.713C644.986 706.06 645.251 703.203 645.251 700.142ZM688.286 638.559V732.587H673.472V638.559H688.286ZM733.647 733.811C728.75 733.811 724.322 733.015 720.364 731.424C716.446 729.791 713.099 727.526 710.324 724.629C707.59 721.731 705.488 718.324 704.019 714.406C702.55 710.488 701.815 706.264 701.815 701.734V699.285C701.815 694.102 702.57 689.409 704.08 685.206C705.59 681.002 707.692 677.411 710.385 674.432C713.079 671.412 716.262 669.106 719.935 667.514C723.608 665.923 727.587 665.127 731.872 665.127C736.606 665.127 740.749 665.923 744.299 667.514C747.85 669.106 750.788 671.35 753.114 674.248C755.481 677.105 757.236 680.512 758.379 684.471C759.562 688.43 760.154 692.796 760.154 697.571V703.877H708.977V693.286H745.585V692.123C745.503 689.47 744.972 686.981 743.993 684.655C743.054 682.328 741.606 680.451 739.647 679.023C737.688 677.594 735.076 676.88 731.811 676.88C729.362 676.88 727.179 677.411 725.261 678.472C723.384 679.492 721.812 680.982 720.547 682.941C719.282 684.9 718.303 687.267 717.609 690.042C716.956 692.776 716.629 695.857 716.629 699.285V701.734C716.629 704.632 717.017 707.325 717.792 709.815C718.609 712.263 719.792 714.406 721.343 716.242C722.894 718.079 724.771 719.528 726.975 720.589C729.179 721.609 731.689 722.119 734.505 722.119C738.055 722.119 741.218 721.405 743.993 719.976C746.768 718.548 749.176 716.528 751.217 713.916L758.991 721.446C757.563 723.527 755.706 725.527 753.42 727.445C751.135 729.322 748.339 730.853 745.034 732.036C741.769 733.22 737.973 733.811 733.647 733.811ZM808.821 714.651C808.821 713.181 808.454 711.855 807.719 710.672C806.984 709.447 805.576 708.345 803.495 707.366C801.455 706.386 798.435 705.489 794.435 704.672C790.925 703.897 787.701 702.979 784.763 701.918C781.865 700.816 779.376 699.489 777.295 697.939C775.213 696.388 773.601 694.551 772.459 692.429C771.316 690.307 770.744 687.858 770.744 685.083C770.744 682.39 771.336 679.839 772.52 677.431C773.703 675.023 775.397 672.901 777.601 671.065C779.804 669.228 782.478 667.779 785.62 666.718C788.803 665.657 792.354 665.127 796.272 665.127C801.822 665.127 806.576 666.065 810.535 667.943C814.534 669.779 817.595 672.289 819.717 675.472C821.84 678.615 822.901 682.165 822.901 686.124H808.148C808.148 684.369 807.699 682.737 806.801 681.227C805.944 679.676 804.638 678.431 802.883 677.492C801.128 676.513 798.924 676.023 796.272 676.023C793.741 676.023 791.64 676.431 789.966 677.248C788.334 678.023 787.11 679.043 786.293 680.308C785.518 681.573 785.13 682.961 785.13 684.471C785.13 685.573 785.334 686.573 785.742 687.471C786.191 688.328 786.926 689.123 787.946 689.858C788.966 690.552 790.354 691.205 792.109 691.817C793.905 692.429 796.149 693.021 798.843 693.592C803.903 694.653 808.25 696.021 811.882 697.694C815.555 699.326 818.371 701.448 820.33 704.06C822.288 706.631 823.268 709.896 823.268 713.855C823.268 716.793 822.635 719.487 821.37 721.935C820.146 724.343 818.35 726.445 815.983 728.241C813.616 729.995 810.78 731.363 807.474 732.342C804.209 733.322 800.536 733.811 796.455 733.811C790.456 733.811 785.375 732.75 781.212 730.628C777.05 728.465 773.887 725.71 771.724 722.364C769.602 718.977 768.541 715.467 768.541 711.835H782.804C782.967 714.569 783.722 716.752 785.069 718.385C786.457 719.976 788.171 721.14 790.211 721.874C792.293 722.568 794.435 722.915 796.639 722.915C799.292 722.915 801.516 722.568 803.311 721.874C805.107 721.14 806.474 720.16 807.413 718.936C808.352 717.671 808.821 716.242 808.821 714.651Z" fill="white"/>
<path d="M314.748 220.409V260.309H309.459V220.409H314.748ZM331.464 238.358V242.688H313.597V238.358H331.464ZM334.177 220.409V224.739H313.597V220.409H334.177ZM345.221 230.658V260.309H340.124V230.658H345.221ZM339.74 222.793C339.74 221.971 339.987 221.277 340.48 220.711C340.992 220.144 341.741 219.861 342.727 219.861C343.695 219.861 344.435 220.144 344.947 220.711C345.477 221.277 345.742 221.971 345.742 222.793C345.742 223.579 345.477 224.255 344.947 224.821C344.435 225.369 343.695 225.643 342.727 225.643C341.741 225.643 340.992 225.369 340.48 224.821C339.987 224.255 339.74 223.579 339.74 222.793ZM372.57 230.658H377.173V259.678C377.173 262.291 376.644 264.52 375.584 266.365C374.524 268.21 373.045 269.607 371.145 270.557C369.263 271.526 367.089 272.01 364.623 272.01C363.599 272.01 362.394 271.845 361.005 271.517C359.635 271.206 358.283 270.667 356.95 269.9C355.634 269.151 354.529 268.137 353.634 266.858L356.292 263.844C357.534 265.342 358.831 266.383 360.183 266.968C361.553 267.552 362.905 267.845 364.239 267.845C365.847 267.845 367.235 267.543 368.404 266.94C369.573 266.337 370.478 265.442 371.117 264.255C371.775 263.085 372.104 261.642 372.104 259.925V237.18L372.57 230.658ZM352.154 245.812V245.237C352.154 242.971 352.419 240.916 352.949 239.071C353.497 237.207 354.273 235.609 355.278 234.275C356.301 232.942 357.534 231.919 358.977 231.206C360.421 230.475 362.047 230.11 363.855 230.11C365.719 230.11 367.345 230.439 368.733 231.097C370.14 231.736 371.327 232.677 372.295 233.919C373.282 235.143 374.058 236.623 374.625 238.358C375.191 240.094 375.584 242.058 375.803 244.25V246.771C375.602 248.945 375.209 250.9 374.625 252.636C374.058 254.371 373.282 255.851 372.295 257.075C371.327 258.299 370.14 259.24 368.733 259.898C367.326 260.537 365.682 260.857 363.8 260.857C362.028 260.857 360.421 260.482 358.977 259.733C357.552 258.984 356.328 257.934 355.305 256.582C354.282 255.23 353.497 253.64 352.949 251.814C352.419 249.968 352.154 247.968 352.154 245.812ZM357.224 245.237V245.812C357.224 247.292 357.37 248.68 357.662 249.977C357.973 251.275 358.438 252.416 359.06 253.403C359.699 254.389 360.512 255.166 361.499 255.732C362.485 256.28 363.663 256.554 365.034 256.554C366.714 256.554 368.103 256.198 369.199 255.486C370.295 254.773 371.163 253.832 371.802 252.663C372.46 251.494 372.971 250.224 373.337 248.854V242.25C373.136 241.245 372.825 240.277 372.405 239.345C372.003 238.395 371.473 237.555 370.816 236.824C370.176 236.075 369.382 235.481 368.432 235.043C367.482 234.604 366.367 234.385 365.088 234.385C363.7 234.385 362.503 234.677 361.499 235.262C360.512 235.828 359.699 236.614 359.06 237.619C358.438 238.605 357.973 239.756 357.662 241.071C357.37 242.368 357.224 243.757 357.224 245.237ZM389.916 236.55V260.309H384.819V230.658H389.642L389.916 236.55ZM388.875 244.36L386.518 244.278C386.536 242.25 386.801 240.377 387.313 238.66C387.824 236.924 388.582 235.417 389.587 234.138C390.592 232.859 391.843 231.873 393.341 231.179C394.839 230.466 396.575 230.11 398.548 230.11C399.936 230.11 401.215 230.311 402.384 230.713C403.554 231.097 404.568 231.709 405.426 232.549C406.285 233.389 406.952 234.467 407.427 235.783C407.902 237.098 408.139 238.687 408.139 240.551V260.309H403.07V240.797C403.07 239.244 402.805 238.002 402.275 237.07C401.763 236.139 401.033 235.463 400.083 235.043C399.133 234.604 398.018 234.385 396.739 234.385C395.241 234.385 393.99 234.65 392.985 235.18C391.98 235.709 391.176 236.44 390.574 237.372C389.971 238.304 389.532 239.372 389.258 240.578C389.002 241.766 388.875 243.026 388.875 244.36ZM408.084 241.565L404.686 242.606C404.705 240.98 404.97 239.418 405.481 237.92C406.011 236.422 406.769 235.088 407.756 233.919C408.76 232.75 409.993 231.827 411.455 231.151C412.917 230.457 414.588 230.11 416.47 230.11C418.059 230.11 419.466 230.32 420.69 230.74C421.932 231.16 422.974 231.809 423.814 232.686C424.673 233.545 425.321 234.65 425.76 236.002C426.198 237.354 426.417 238.961 426.417 240.825V260.309H421.32V240.77C421.32 239.107 421.055 237.82 420.526 236.906C420.014 235.974 419.283 235.326 418.333 234.96C417.402 234.577 416.287 234.385 414.99 234.385C413.876 234.385 412.889 234.577 412.03 234.96C411.172 235.344 410.45 235.874 409.866 236.55C409.281 237.207 408.833 237.966 408.523 238.824C408.231 239.683 408.084 240.596 408.084 241.565ZM451.574 255.239V239.975C451.574 238.806 451.336 237.792 450.861 236.933C450.404 236.057 449.71 235.381 448.778 234.906C447.847 234.431 446.696 234.193 445.326 234.193C444.047 234.193 442.923 234.412 441.955 234.851C441.005 235.289 440.256 235.865 439.708 236.577C439.178 237.29 438.913 238.057 438.913 238.879H433.844C433.844 237.82 434.118 236.769 434.666 235.728C435.214 234.686 435.999 233.746 437.022 232.905C438.064 232.047 439.306 231.371 440.749 230.877C442.211 230.366 443.837 230.11 445.627 230.11C447.783 230.11 449.683 230.475 451.327 231.206C452.989 231.937 454.287 233.042 455.218 234.522C456.168 235.983 456.643 237.82 456.643 240.03V253.841C456.643 254.828 456.725 255.878 456.89 256.993C457.073 258.107 457.337 259.066 457.685 259.87V260.309H452.396C452.14 259.724 451.939 258.948 451.793 257.979C451.647 256.993 451.574 256.079 451.574 255.239ZM452.451 242.332L452.505 245.894H447.381C445.938 245.894 444.65 246.013 443.517 246.251C442.384 246.47 441.434 246.808 440.667 247.265C439.9 247.721 439.315 248.297 438.913 248.991C438.511 249.667 438.31 250.462 438.31 251.375C438.31 252.307 438.52 253.156 438.941 253.924C439.361 254.691 439.991 255.303 440.831 255.76C441.69 256.198 442.741 256.417 443.983 256.417C445.536 256.417 446.906 256.088 448.093 255.431C449.281 254.773 450.222 253.969 450.916 253.019C451.628 252.069 452.012 251.147 452.067 250.252L454.232 252.69C454.104 253.458 453.757 254.307 453.19 255.239C452.624 256.171 451.866 257.066 450.916 257.924C449.984 258.765 448.87 259.468 447.573 260.035C446.294 260.583 444.851 260.857 443.243 260.857C441.233 260.857 439.47 260.464 437.954 259.678C436.456 258.893 435.287 257.842 434.446 256.527C433.624 255.193 433.213 253.704 433.213 252.06C433.213 250.471 433.524 249.073 434.145 247.867C434.766 246.643 435.661 245.629 436.831 244.826C438 244.004 439.407 243.382 441.051 242.962C442.695 242.542 444.531 242.332 446.559 242.332H452.451ZM493.528 241.647H483.416L483.362 237.399H492.542C494.058 237.399 495.383 237.144 496.515 236.632C497.648 236.12 498.525 235.39 499.146 234.44C499.785 233.471 500.105 232.321 500.105 230.987C500.105 229.525 499.822 228.338 499.256 227.424C498.708 226.493 497.858 225.817 496.707 225.397C495.574 224.958 494.131 224.739 492.377 224.739H484.595V260.309H479.306V220.409H492.377C494.423 220.409 496.25 220.619 497.858 221.039C499.466 221.441 500.827 222.081 501.941 222.958C503.074 223.816 503.932 224.912 504.517 226.246C505.102 227.58 505.394 229.178 505.394 231.042C505.394 232.686 504.974 234.175 504.133 235.508C503.293 236.824 502.124 237.902 500.626 238.742C499.146 239.582 497.41 240.121 495.419 240.359L493.528 241.647ZM493.282 260.309H481.334L484.321 256.006H493.282C494.962 256.006 496.387 255.714 497.557 255.129C498.744 254.545 499.648 253.723 500.27 252.663C500.891 251.585 501.201 250.315 501.201 248.854C501.201 247.374 500.936 246.095 500.407 245.017C499.877 243.94 499.046 243.108 497.913 242.524C496.78 241.939 495.319 241.647 493.528 241.647H485.992L486.047 237.399H496.351L497.474 238.934C499.393 239.098 501.019 239.646 502.352 240.578C503.686 241.492 504.7 242.661 505.394 244.086C506.106 245.511 506.463 247.082 506.463 248.799C506.463 251.284 505.915 253.385 504.819 255.102C503.741 256.801 502.215 258.098 500.242 258.993C498.269 259.87 495.949 260.309 493.282 260.309ZM519.013 230.658V260.309H513.916V230.658H519.013ZM513.533 222.793C513.533 221.971 513.779 221.277 514.273 220.711C514.784 220.144 515.533 219.861 516.52 219.861C517.488 219.861 518.228 220.144 518.739 220.711C519.269 221.277 519.534 221.971 519.534 222.793C519.534 223.579 519.269 224.255 518.739 224.821C518.228 225.369 517.488 225.643 516.52 225.643C515.533 225.643 514.784 225.369 514.273 224.821C513.779 224.255 513.533 223.579 513.533 222.793ZM539.566 230.658V234.549H523.535V230.658H539.566ZM528.961 223.451H534.031V252.964C534.031 253.969 534.186 254.727 534.496 255.239C534.807 255.75 535.209 256.088 535.702 256.253C536.195 256.417 536.725 256.5 537.292 256.5C537.712 256.5 538.15 256.463 538.607 256.39C539.082 256.299 539.438 256.225 539.676 256.171L539.703 260.309C539.301 260.436 538.771 260.555 538.114 260.665C537.474 260.793 536.698 260.857 535.784 260.857C534.542 260.857 533.4 260.61 532.359 260.117C531.318 259.624 530.486 258.801 529.865 257.65C529.262 256.481 528.961 254.91 528.961 252.937V223.451ZM557.817 260.857C555.752 260.857 553.88 260.51 552.199 259.815C550.537 259.103 549.102 258.107 547.897 256.828C546.709 255.55 545.796 254.033 545.156 252.279C544.517 250.526 544.197 248.607 544.197 246.525V245.374C544.197 242.962 544.553 240.816 545.266 238.934C545.978 237.034 546.947 235.426 548.171 234.111C549.395 232.796 550.783 231.8 552.336 231.124C553.889 230.448 555.497 230.11 557.159 230.11C559.278 230.11 561.105 230.475 562.64 231.206C564.193 231.937 565.462 232.96 566.449 234.275C567.435 235.572 568.166 237.107 568.641 238.879C569.116 240.633 569.354 242.551 569.354 244.634V246.908H547.212V242.77H564.284V242.387C564.211 241.071 563.937 239.793 563.462 238.55C563.005 237.308 562.274 236.285 561.27 235.481C560.265 234.677 558.895 234.275 557.159 234.275C556.008 234.275 554.949 234.522 553.98 235.015C553.012 235.49 552.181 236.203 551.487 237.153C550.792 238.103 550.253 239.263 549.87 240.633C549.486 242.003 549.294 243.583 549.294 245.374V246.525C549.294 247.931 549.486 249.256 549.87 250.498C550.272 251.722 550.847 252.8 551.596 253.732C552.363 254.663 553.286 255.394 554.364 255.924C555.46 256.454 556.702 256.719 558.091 256.719C559.881 256.719 561.397 256.353 562.64 255.623C563.882 254.892 564.969 253.914 565.901 252.69L568.97 255.129C568.331 256.098 567.518 257.02 566.531 257.897C565.545 258.774 564.33 259.486 562.886 260.035C561.461 260.583 559.772 260.857 557.817 260.857ZM592.537 252.444C592.537 251.713 592.372 251.037 592.044 250.416C591.733 249.777 591.085 249.201 590.098 248.69C589.13 248.16 587.668 247.703 585.713 247.319C584.069 246.972 582.58 246.561 581.247 246.086C579.931 245.611 578.808 245.036 577.876 244.36C576.963 243.684 576.259 242.889 575.766 241.976C575.273 241.062 575.026 239.994 575.026 238.769C575.026 237.6 575.282 236.495 575.793 235.454C576.323 234.412 577.063 233.49 578.013 232.686C578.981 231.882 580.141 231.252 581.493 230.795C582.845 230.338 584.352 230.11 586.015 230.11C588.39 230.11 590.418 230.53 592.098 231.371C593.779 232.211 595.067 233.334 595.962 234.741C596.857 236.13 597.305 237.673 597.305 239.372H592.235C592.235 238.55 591.989 237.756 591.496 236.988C591.021 236.203 590.317 235.554 589.385 235.043C588.472 234.531 587.349 234.275 586.015 234.275C584.608 234.275 583.466 234.495 582.589 234.933C581.731 235.353 581.101 235.892 580.699 236.55C580.315 237.207 580.123 237.902 580.123 238.632C580.123 239.181 580.214 239.674 580.397 240.112C580.598 240.532 580.945 240.925 581.439 241.291C581.932 241.638 582.626 241.967 583.521 242.277C584.416 242.588 585.558 242.898 586.947 243.209C589.376 243.757 591.377 244.415 592.948 245.182C594.519 245.949 595.688 246.89 596.456 248.004C597.223 249.119 597.607 250.471 597.607 252.06C597.607 253.357 597.332 254.545 596.784 255.623C596.255 256.7 595.478 257.632 594.455 258.418C593.45 259.185 592.245 259.788 590.838 260.226C589.449 260.647 587.887 260.857 586.152 260.857C583.539 260.857 581.329 260.391 579.52 259.459C577.712 258.527 576.341 257.322 575.41 255.842C574.478 254.362 574.012 252.8 574.012 251.156H579.109C579.182 252.544 579.584 253.65 580.315 254.472C581.046 255.275 581.941 255.851 583 256.198C584.06 256.527 585.111 256.691 586.152 256.691C587.54 256.691 588.7 256.509 589.632 256.143C590.582 255.778 591.304 255.275 591.797 254.636C592.29 253.997 592.537 253.266 592.537 252.444Z" fill="white"/>
</g>
<defs>
<clipPath id="clip0_73_28">
<rect width="1920" height="960" fill="white"/>
</clipPath>
</defs>
</svg>
