<svg width="1920" height="960" viewBox="0 0 1920 960" fill="none" xmlns="http://www.w3.org/2000/svg">
<g clip-path="url(#clip0_7_178)">
<rect width="1920" height="960" fill="#202020"/>
<path d="M217 131.667V73.3333H261.417V85H229.833V97.4167H257.667V109.083H229.833V131.667H217ZM272.271 131.667V73.3333H285.104V131.667H272.271ZM327.766 132.667C318.71 132.667 311.321 129.833 305.599 124.167C299.932 118.5 297.099 111.278 297.099 102.5C297.099 94.1111 300.016 87 305.849 81.1667C311.682 75.2778 318.96 72.3333 327.682 72.3333C332.738 72.3333 337.016 73 340.516 74.3333C344.016 75.6111 347.377 77.6111 350.599 80.3333L342.516 90.0833C340.071 88.0278 337.71 86.5278 335.432 85.5833C333.155 84.6389 330.432 84.1667 327.266 84.1667C322.599 84.1667 318.627 85.9722 315.349 89.5833C312.127 93.1389 310.516 97.4444 310.516 102.5C310.516 107.833 312.155 112.25 315.432 115.75C318.766 119.25 323.016 121 328.182 121C332.96 121 336.988 119.833 340.266 117.5V109.167H327.349V98.0833H352.682V123.417C345.405 129.583 337.099 132.667 327.766 132.667ZM365.031 131.667V73.3333H378.864L394.197 98L409.531 73.3333H423.364V131.667H410.614V93.5833L394.197 118.5H393.864L377.614 93.8333V131.667H365.031ZM432.378 131.667L457.378 72.9167H469.211L494.211 131.667H480.794L475.461 118.583H450.794L445.461 131.667H432.378ZM455.378 107.25H470.878L463.128 88.3333L455.378 107.25Z" fill="white"/>
<rect x="211.667" y="305.667" width="557.667" height="246.667" fill="#A258FE"/>
<rect x="211.667" y="305.667" width="557.667" height="246.667" stroke="black" stroke-width="3.33333"/>
<path d="M267 411.333V353H294.083C300.806 353 305.889 354.722 309.333 358.167C312 360.833 313.333 364.194 313.333 368.25C313.333 373.75 310.778 377.944 305.667 380.833C309.278 382.222 312 384.056 313.833 386.333C315.667 388.556 316.583 391.556 316.583 395.333C316.583 400.556 314.639 404.528 310.75 407.25C306.861 409.972 301.528 411.333 294.75 411.333H267ZM279.5 376.583H291.333C297.5 376.583 300.583 374.472 300.583 370.25C300.583 368.306 299.861 366.833 298.417 365.833C296.972 364.778 294.889 364.25 292.167 364.25H279.5V376.583ZM279.5 400.083H294.75C300.806 400.083 303.833 397.917 303.833 393.583C303.833 389.361 300.667 387.25 294.333 387.25H279.5V400.083ZM380.973 403.583C375.084 409.417 367.695 412.333 358.807 412.333C349.918 412.333 342.529 409.417 336.64 403.583C330.807 397.75 327.89 390.611 327.89 382.167C327.89 373.778 330.834 366.667 336.723 360.833C342.668 354.944 350.084 352 358.973 352C367.862 352 375.223 354.917 381.057 360.75C386.945 366.583 389.89 373.722 389.89 382.167C389.89 390.556 386.918 397.694 380.973 403.583ZM346.307 395.167C349.64 398.722 353.862 400.5 358.973 400.5C364.084 400.5 368.279 398.75 371.557 395.25C374.834 391.694 376.473 387.333 376.473 382.167C376.473 377.056 374.807 372.722 371.473 369.167C368.14 365.611 363.918 363.833 358.807 363.833C353.695 363.833 349.501 365.611 346.223 369.167C342.945 372.667 341.307 377 341.307 382.167C341.307 387.278 342.973 391.611 346.307 395.167ZM455.107 403.583C449.218 409.417 441.83 412.333 432.941 412.333C424.052 412.333 416.663 409.417 410.774 403.583C404.941 397.75 402.024 390.611 402.024 382.167C402.024 373.778 404.968 366.667 410.857 360.833C416.802 354.944 424.218 352 433.107 352C441.996 352 449.357 354.917 455.191 360.75C461.08 366.583 464.024 373.722 464.024 382.167C464.024 390.556 461.052 397.694 455.107 403.583ZM420.441 395.167C423.774 398.722 427.996 400.5 433.107 400.5C438.218 400.5 442.413 398.75 445.691 395.25C448.968 391.694 450.607 387.333 450.607 382.167C450.607 377.056 448.941 372.722 445.607 369.167C442.274 365.611 438.052 363.833 432.941 363.833C427.83 363.833 423.635 365.611 420.357 369.167C417.08 372.667 415.441 377 415.441 382.167C415.441 387.278 417.107 391.611 420.441 395.167ZM478.741 411.333V353H491.575V399.667H520.658V411.333H478.741ZM533.67 411.333V353H577.67V364.417H546.42V376.25H573.92V387.667H546.42V399.917H578.087V411.333H533.67ZM587.83 411.333L612.83 352.583H624.663L649.663 411.333H636.247L630.913 398.25H606.247L600.913 411.333H587.83ZM610.83 386.917H626.33L618.58 368L610.83 386.917ZM662 411.333V353H673.833L701.167 388.917V353H713.833V411.333H702.917L674.667 374.25V411.333H662ZM267 511.333V453H279.833V499.667H308.917V511.333H267ZM369.092 503.583C363.203 509.417 355.814 512.333 346.925 512.333C338.036 512.333 330.647 509.417 324.758 503.583C318.925 497.75 316.008 490.611 316.008 482.167C316.008 473.778 318.953 466.667 324.842 460.833C330.786 454.944 338.203 452 347.092 452C355.981 452 363.342 454.917 369.175 460.75C375.064 466.583 378.008 473.722 378.008 482.167C378.008 490.556 375.036 497.694 369.092 503.583ZM334.425 495.167C337.758 498.722 341.981 500.5 347.092 500.5C352.203 500.5 356.397 498.75 359.675 495.25C362.953 491.694 364.592 487.333 364.592 482.167C364.592 477.056 362.925 472.722 359.592 469.167C356.258 465.611 352.036 463.833 346.925 463.833C341.814 463.833 337.62 465.611 334.342 469.167C331.064 472.667 329.425 477 329.425 482.167C329.425 487.278 331.092 491.611 334.425 495.167ZM420.809 512.333C411.754 512.333 404.365 509.5 398.643 503.833C392.976 498.167 390.143 490.944 390.143 482.167C390.143 473.778 393.059 466.667 398.893 460.833C404.726 454.944 412.004 452 420.726 452C425.781 452 430.059 452.667 433.559 454C437.059 455.278 440.42 457.278 443.643 460L435.559 469.75C433.115 467.694 430.754 466.194 428.476 465.25C426.198 464.306 423.476 463.833 420.309 463.833C415.643 463.833 411.67 465.639 408.393 469.25C405.17 472.806 403.559 477.111 403.559 482.167C403.559 487.5 405.198 491.917 408.476 495.417C411.809 498.917 416.059 500.667 421.226 500.667C426.004 500.667 430.031 499.5 433.309 497.167V488.833H420.393V477.75H445.726V503.083C438.448 509.25 430.143 512.333 420.809 512.333ZM511.908 503.583C506.019 509.417 498.63 512.333 489.741 512.333C480.852 512.333 473.463 509.417 467.574 503.583C461.741 497.75 458.824 490.611 458.824 482.167C458.824 473.778 461.769 466.667 467.658 460.833C473.602 454.944 481.019 452 489.908 452C498.796 452 506.158 454.917 511.991 460.75C517.88 466.583 520.824 473.722 520.824 482.167C520.824 490.556 517.852 497.694 511.908 503.583ZM477.241 495.167C480.574 498.722 484.796 500.5 489.908 500.5C495.019 500.5 499.213 498.75 502.491 495.25C505.769 491.694 507.408 487.333 507.408 482.167C507.408 477.056 505.741 472.722 502.408 469.167C499.074 465.611 494.852 463.833 489.741 463.833C484.63 463.833 480.435 465.611 477.157 469.167C473.88 472.667 472.241 477 472.241 482.167C472.241 487.278 473.908 491.611 477.241 495.167Z" fill="white"/>
<path fill-rule="evenodd" clip-rule="evenodd" d="M313.928 729.302C312.105 727.657 308.96 726.835 304.491 726.835H293.732C288.088 726.835 284.178 727.804 282.003 729.743C279.827 731.681 278.74 734.882 278.74 739.346V747.98H316.662V736.879C316.662 733.472 315.75 730.947 313.928 729.302ZM258.103 731.681C256.104 729.743 252.753 728.773 248.05 728.773H241.171C236.702 728.773 233.469 729.566 231.47 731.152C229.471 732.738 228.471 735.234 228.471 738.641V747.98H261.102V740.403C261.102 736.527 260.102 733.619 258.103 731.681ZM334.3 786.286L310.135 789.761V811.836L334.3 815.36V833.333L210.833 813.246V767.363H334.3V786.286ZM232.352 801.087L293.379 809.545V792.101L232.352 800.735V801.087Z" fill="white"/>
<g clip-path="url(#clip1_7_178)">
<path d="M397.508 833.333C409.008 833.333 418.342 824 418.342 812.5V791.667H397.508C386.008 791.667 376.675 801 376.675 812.5C376.675 824 386.008 833.333 397.508 833.333Z" fill="#0ACF83"/>
<path d="M376.675 770.833C376.675 759.333 386.008 750 397.508 750H418.342V791.667H397.508C386.008 791.667 376.675 782.333 376.675 770.833Z" fill="#A259FF"/>
<path d="M376.675 729.167C376.675 717.667 386.008 708.333 397.508 708.333H418.342V750H397.508C386.008 750 376.675 740.667 376.675 729.167Z" fill="#F24E1E"/>
<path d="M418.342 708.333H439.175C450.675 708.333 460.008 717.667 460.008 729.167C460.008 740.667 450.675 750 439.175 750H418.342V708.333Z" fill="#FF7262"/>
<path d="M460.008 770.833C460.008 782.333 450.675 791.667 439.175 791.667C427.675 791.667 418.342 782.333 418.342 770.833C418.342 759.333 427.675 750 439.175 750C450.675 750 460.008 759.333 460.008 770.833Z" fill="#1ABCFE"/>
</g>
<ellipse cx="1344.92" cy="295.583" rx="191.25" ry="191.25" stroke="black" stroke-width="2.5" stroke-linecap="round" stroke-dasharray="12.5 12.5"/>
<ellipse cx="1532.83" cy="196" rx="255" ry="255" stroke="black" stroke-width="2.5" stroke-linecap="round" stroke-dasharray="12.5 12.5"/>
<ellipse cx="1581.17" cy="330.167" rx="190" ry="190" stroke="black" stroke-width="2.5" stroke-linecap="round" stroke-dasharray="12.5 12.5"/>
<ellipse cx="1781.17" cy="306.833" rx="247.5" ry="247.5" stroke="black" stroke-width="2.5" stroke-linecap="round" stroke-dasharray="12.5 12.5"/>
<ellipse cx="1358.67" cy="585.167" rx="327.5" ry="327.5" stroke="black" stroke-width="2.5" stroke-linecap="round" stroke-dasharray="12.5 12.5"/>
<ellipse cx="1729.92" cy="908.917" rx="338.75" ry="338.75" stroke="black" stroke-width="2.5" stroke-linecap="round" stroke-dasharray="12.5 12.5"/>
<ellipse cx="1068.25" cy="972.252" rx="381.252" ry="381.252" stroke="black" stroke-width="2.5" stroke-linecap="round" stroke-dasharray="12.5 12.5"/>
<g filter="url(#filter0_d_7_178)">
<path fill-rule="evenodd" clip-rule="evenodd" d="M1078.81 421.373C1099.34 386.669 1126.12 356.112 1157.59 331.255C1159.82 329.496 1160.9 326.654 1160.43 323.855C1153.89 284.71 1159.38 243.157 1180.3 204.804C1200.48 167.79 1232.62 137.923 1271.97 120.776C1277.67 118.295 1283.35 123.805 1281.74 129.804C1275.32 153.721 1272.28 178.918 1273.11 204.804C1273.76 224.839 1276.8 244.47 1281.97 263.368C1283.01 267.188 1286.92 269.418 1290.79 268.593C1312.72 263.922 1335.46 261.464 1358.78 261.464C1372.18 261.464 1385.39 262.276 1398.36 263.853C1401.8 264.271 1405.1 262.339 1406.47 259.154C1418.27 231.701 1436.39 207.236 1459.37 187.924C1491.89 160.591 1533.34 144.859 1575.65 143.26C1581.9 143.024 1585.16 150.309 1581.38 155.291C1549.17 197.783 1530.15 250.056 1528.92 305.288C1528.86 307.907 1530.23 310.341 1532.44 311.743C1561.16 329.947 1586.84 352.533 1608.54 378.563C1651.1 429.628 1678.34 493.947 1683.19 564.435C1683.46 568.325 1680.62 571.705 1676.76 572.293C1618.32 581.211 1564.71 604.859 1519.83 639.337C1474.45 674.201 1438 720.139 1414.5 773.117C1411.93 778.909 1403.67 779.487 1400.34 774.096C1361.94 711.897 1305.9 661.118 1238.92 628.26C1177.86 598.305 1109.43 584.481 1041.56 587.567C1037.24 587.763 1033.57 584.351 1033.67 580.026C1034.88 524.35 1050.42 469.352 1078.81 421.373ZM1336.79 488.311C1340.52 486.78 1342.11 482.413 1340.15 478.892C1333.34 466.651 1323.22 456.038 1310.2 448.525C1280.79 431.552 1245.1 435.32 1220.07 455.287C1216.92 457.8 1216.73 462.441 1219.6 465.27C1226.03 471.609 1233.36 477.242 1241.55 481.965C1271.75 499.392 1306.86 500.606 1336.79 488.311ZM1471.48 438.269C1486.56 439.005 1500.46 443.843 1512.17 451.652C1515.52 453.889 1516.1 458.499 1513.49 461.566C1492.41 486.277 1460.51 501.3 1425.56 499.594C1416.08 499.132 1406.94 497.466 1398.28 494.751C1394.44 493.545 1392.48 489.333 1394.13 485.659C1407.3 456.349 1437.44 436.608 1471.48 438.269Z" fill="white"/>
</g>
<ellipse opacity="0.15" cx="1467" cy="516.833" rx="80" ry="80" stroke="black" stroke-width="2.5" stroke-linecap="round" stroke-dasharray="12.5 12.5"/>
<ellipse opacity="0.15" cx="1429.92" cy="391.417" rx="108.75" ry="108.75" stroke="black" stroke-width="2.5" stroke-linecap="round" stroke-dasharray="12.5 12.5"/>
<ellipse opacity="0.15" cx="1270.33" cy="516.833" rx="80" ry="80" stroke="black" stroke-width="2.5" stroke-linecap="round" stroke-dasharray="12.5 12.5"/>
<ellipse opacity="0.15" cx="1294.92" cy="381.417" rx="113.75" ry="113.75" stroke="black" stroke-width="2.5" stroke-linecap="round" stroke-dasharray="12.5 12.5"/>
</g>
<defs>
<filter id="filter0_d_7_178" x="1008.67" y="95.1667" width="699.541" height="707.654" filterUnits="userSpaceOnUse" color-interpolation-filters="sRGB">
<feFlood flood-opacity="0" result="BackgroundImageFix"/>
<feColorMatrix in="SourceAlpha" type="matrix" values="0 0 0 0 0 0 0 0 0 0 0 0 0 0 0 0 0 0 127 0" result="hardAlpha"/>
<feOffset/>
<feGaussianBlur stdDeviation="12.5"/>
<feComposite in2="hardAlpha" operator="out"/>
<feColorMatrix type="matrix" values="0 0 0 0 0 0 0 0 0 0 0 0 0 0 0 0 0 0 1 0"/>
<feBlend mode="normal" in2="BackgroundImageFix" result="effect1_dropShadow_7_178"/>
<feBlend mode="normal" in="SourceGraphic" in2="effect1_dropShadow_7_178" result="shape"/>
</filter>
<clipPath id="clip0_7_178">
<rect width="1920" height="960" fill="white"/>
</clipPath>
<clipPath id="clip1_7_178">
<rect width="83.35" height="125" fill="white" transform="translate(376.667 708.333)"/>
</clipPath>
</defs>
</svg>
