<svg width="401" height="304" viewBox="0 0 401 304" fill="none" xmlns="http://www.w3.org/2000/svg">
<rect width="401" height="304" fill="white"/>
<rect x="0.5" y="0.5" width="400" height="303" stroke="black" stroke-opacity="0.2"/>
<rect x="217" y="125" width="120" height="60" fill="#D8D8D8"/>
<rect x="10" y="68.6183" width="368" height="158" stroke="#1C6EE8"/>
<g filter="url(#filter0_d_1_42939)">
<rect x="6" y="64.6183" width="8" height="8" fill="white"/>
<rect x="6.5" y="65.1183" width="7" height="7" stroke="#1C6EE8"/>
</g>
<g filter="url(#filter1_d_1_42939)">
<rect x="6" y="222.618" width="8" height="8" fill="white"/>
<rect x="6.5" y="223.118" width="7" height="7" stroke="#1C6EE8"/>
</g>
<g filter="url(#filter2_d_1_42939)">
<rect x="374" y="64.6183" width="8" height="8" fill="white"/>
<rect x="374.5" y="65.1183" width="7" height="7" stroke="#1C6EE8"/>
</g>
<g filter="url(#filter3_d_1_42939)">
<rect x="374" y="222.618" width="8" height="8" fill="white"/>
<rect x="374.5" y="223.118" width="7" height="7" stroke="#1C6EE8"/>
</g>
<path d="M192.108 144.02V141.618C192.108 140.652 192.892 139.868 193.858 139.868C194.825 139.868 195.608 140.652 195.608 141.618V144.02C196.412 144.412 197.064 145.065 197.456 145.868H199.858C200.825 145.868 201.608 146.652 201.608 147.618C201.608 148.585 200.825 149.368 199.858 149.368H197.456C197.064 150.172 196.412 150.825 195.608 151.216V153.618C195.608 154.585 194.825 155.368 193.858 155.368C192.892 155.368 192.108 154.585 192.108 153.618V151.216C191.304 150.825 190.652 150.172 190.26 149.368H187.858C186.892 149.368 186.108 148.585 186.108 147.618C186.108 146.652 186.892 145.868 187.858 145.868H190.26C190.652 145.065 191.304 144.412 192.108 144.02Z" fill="white"/>
<path fill-rule="evenodd" clip-rule="evenodd" d="M193.858 140.868C194.272 140.868 194.608 141.204 194.608 141.618V144.713C195.662 144.984 196.492 145.814 196.764 146.868H199.858C200.272 146.868 200.608 147.204 200.608 147.618C200.608 148.032 200.272 148.368 199.858 148.368H196.764C196.492 149.422 195.662 150.252 194.608 150.524V153.618C194.608 154.032 194.272 154.368 193.858 154.368C193.444 154.368 193.108 154.032 193.108 153.618V150.524C192.054 150.252 191.224 149.422 190.953 148.368H187.858C187.444 148.368 187.108 148.032 187.108 147.618C187.108 147.204 187.444 146.868 187.858 146.868H190.953C191.224 145.814 192.054 144.984 193.108 144.713V141.618C193.108 141.204 193.444 140.868 193.858 140.868ZM195.358 147.618C195.358 148.447 194.686 149.118 193.858 149.118C193.03 149.118 192.358 148.447 192.358 147.618C192.358 146.79 193.03 146.118 193.858 146.118C194.686 146.118 195.358 146.79 195.358 147.618Z" fill="#1C6EE8"/>
<g filter="url(#filter4_d_1_42939)">
<path fill-rule="evenodd" clip-rule="evenodd" d="M336.498 185.5V191.5H337.5V185.5L343.5 185.5V184.498L337.5 184.498V178.5H336.498V184.498L330.5 184.498V185.5L336.498 185.5Z" fill="black"/>
<path fill-rule="evenodd" clip-rule="evenodd" d="M335.498 192.5V186.5L329.5 186.5V183.498L335.498 183.498V177.5H338.5V183.498L344.5 183.498V186.5H338.5V192.5H335.498ZM337.5 185.5L343.5 185.5V184.498L337.5 184.498V178.5H336.498V184.498L330.5 184.498V185.5L336.498 185.5V191.5H337.5V185.5Z" fill="white"/>
</g>
<ellipse cx="115" cy="114" rx="52" ry="26" fill="#FFD600"/>
<ellipse cx="104" cy="109.5" rx="5" ry="2.5" fill="black"/>
<ellipse cx="124" cy="109.5" rx="5" ry="2.5" fill="black"/>
<path d="M91 118C91 118 96 126 115 126C134 126 139 118 139 118" stroke="black" stroke-linecap="round" stroke-linejoin="round"/>
<path d="M16.8295 16.4545C16.7784 16.0227 16.571 15.6875 16.2074 15.4489C15.8438 15.2102 15.3977 15.0909 14.8693 15.0909C14.483 15.0909 14.1449 15.1534 13.8551 15.2784C13.5682 15.4034 13.3438 15.5753 13.1818 15.794C13.0227 16.0128 12.9432 16.2614 12.9432 16.5398C12.9432 16.7727 12.9986 16.973 13.1094 17.1406C13.223 17.3054 13.3679 17.4432 13.544 17.554C13.7202 17.6619 13.9048 17.7514 14.098 17.8224C14.2912 17.8906 14.4688 17.946 14.6307 17.9886L15.517 18.2273C15.7443 18.2869 15.9972 18.3693 16.2756 18.4744C16.5568 18.5795 16.8253 18.723 17.081 18.9048C17.3395 19.0838 17.5526 19.3139 17.7202 19.5952C17.8878 19.8764 17.9716 20.2216 17.9716 20.6307C17.9716 21.1023 17.848 21.5284 17.6009 21.9091C17.3565 22.2898 16.9986 22.5923 16.527 22.8168C16.0582 23.0412 15.4886 23.1534 14.8182 23.1534C14.1932 23.1534 13.652 23.0526 13.1946 22.8509C12.7401 22.6491 12.3821 22.3679 12.1207 22.0071C11.8622 21.6463 11.7159 21.2273 11.6818 20.75H12.7727C12.8011 21.0795 12.9119 21.3523 13.1051 21.5682C13.3011 21.7812 13.5483 21.9403 13.8466 22.0455C14.1477 22.1477 14.4716 22.1989 14.8182 22.1989C15.2216 22.1989 15.5838 22.1335 15.9048 22.0028C16.2259 21.8693 16.4801 21.6847 16.6676 21.4489C16.8551 21.2102 16.9489 20.9318 16.9489 20.6136C16.9489 20.3239 16.8679 20.0881 16.706 19.9062C16.544 19.7244 16.331 19.5767 16.0668 19.4631C15.8026 19.3494 15.517 19.25 15.2102 19.1648L14.1364 18.858C13.4545 18.6619 12.9148 18.3821 12.517 18.0185C12.1193 17.6548 11.9205 17.179 11.9205 16.5909C11.9205 16.1023 12.0526 15.6761 12.3168 15.3125C12.5838 14.946 12.9418 14.6619 13.3906 14.4602C13.8423 14.2557 14.3466 14.1534 14.9034 14.1534C15.4659 14.1534 15.9659 14.2543 16.4034 14.456C16.8409 14.6548 17.1875 14.9276 17.4432 15.2741C17.7017 15.6207 17.8381 16.0142 17.8523 16.4545H16.8295ZM22.2319 23.1364C21.6183 23.1364 21.0898 22.9915 20.6467 22.7017C20.2035 22.4119 19.8626 22.0128 19.6239 21.5043C19.3853 20.9957 19.266 20.4148 19.266 19.7614C19.266 19.0966 19.3881 18.5099 19.6325 18.0014C19.8796 17.4901 20.2234 17.0909 20.6637 16.804C21.1069 16.5142 21.6239 16.3693 22.2148 16.3693C22.6751 16.3693 23.0898 16.4545 23.4592 16.625C23.8285 16.7955 24.131 17.0341 24.3668 17.3409C24.6026 17.6477 24.7489 18.0057 24.8058 18.4148H23.8001C23.7234 18.1165 23.5529 17.8523 23.2887 17.6222C23.0273 17.3892 22.6751 17.2727 22.2319 17.2727C21.8398 17.2727 21.4961 17.375 21.2006 17.5795C20.908 17.7812 20.6793 18.0668 20.5146 18.4361C20.3526 18.8026 20.2717 19.233 20.2717 19.7273C20.2717 20.233 20.3512 20.6733 20.5103 21.0483C20.6722 21.4233 20.8995 21.7145 21.1921 21.9219C21.4876 22.1293 21.8342 22.233 22.2319 22.233C22.4933 22.233 22.7305 22.1875 22.9435 22.0966C23.1566 22.0057 23.337 21.875 23.4847 21.7045C23.6325 21.5341 23.7376 21.3295 23.8001 21.0909H24.8058C24.7489 21.4773 24.6083 21.8253 24.3839 22.1349C24.1623 22.4418 23.8683 22.6861 23.5018 22.8679C23.1381 23.0469 22.7148 23.1364 22.2319 23.1364ZM28.2021 23.1534C27.7873 23.1534 27.4109 23.0753 27.0728 22.919C26.7347 22.7599 26.4663 22.5312 26.2674 22.233C26.0685 21.9318 25.9691 21.5682 25.9691 21.142C25.9691 20.767 26.043 20.4631 26.1907 20.2301C26.3384 19.9943 26.5359 19.8097 26.783 19.6761C27.0302 19.5426 27.3029 19.4432 27.6012 19.3778C27.9023 19.3097 28.2049 19.2557 28.5089 19.2159C28.9066 19.1648 29.229 19.1264 29.4762 19.1009C29.7262 19.0724 29.908 19.0256 30.0217 18.9602C30.1381 18.8949 30.1964 18.7812 30.1964 18.6193V18.5852C30.1964 18.1648 30.0813 17.8381 29.8512 17.6051C29.6239 17.3722 29.2788 17.2557 28.8157 17.2557C28.3356 17.2557 27.9592 17.3608 27.6864 17.571C27.4137 17.7812 27.2219 18.0057 27.1112 18.2443L26.1566 17.9034C26.3271 17.5057 26.5543 17.196 26.8384 16.9744C27.1254 16.75 27.4379 16.5937 27.7759 16.5057C28.1168 16.4148 28.4521 16.3693 28.7816 16.3693C28.9918 16.3693 29.2333 16.3949 29.506 16.446C29.7816 16.4943 30.0472 16.5952 30.3029 16.7486C30.5614 16.902 30.7759 17.1335 30.9464 17.4432C31.1168 17.7528 31.2021 18.1676 31.2021 18.6875V23H30.1964V22.1136H30.1452C30.0771 22.2557 29.9634 22.4077 29.8043 22.5696C29.6452 22.7315 29.4336 22.8693 29.1694 22.983C28.9052 23.0966 28.5827 23.1534 28.2021 23.1534ZM28.3555 22.25C28.7532 22.25 29.0884 22.1719 29.3612 22.0156C29.6367 21.8594 29.8441 21.6577 29.9833 21.4105C30.1254 21.1634 30.1964 20.9034 30.1964 20.6307V19.7102C30.1538 19.7614 30.06 19.8082 29.9151 19.8509C29.7731 19.8906 29.6083 19.9261 29.4208 19.9574C29.2362 19.9858 29.0558 20.0114 28.8796 20.0341C28.7063 20.054 28.5657 20.071 28.4577 20.0852C28.1964 20.1193 27.9521 20.1747 27.7248 20.2514C27.5004 20.3253 27.3185 20.4375 27.1793 20.5881C27.043 20.7358 26.9748 20.9375 26.9748 21.1932C26.9748 21.5426 27.104 21.8068 27.3626 21.9858C27.6239 22.1619 27.9549 22.25 28.3555 22.25ZM34.0433 14.2727V23H33.0376V14.2727H34.0433ZM38.6296 23.1364C37.9989 23.1364 37.4549 22.9972 36.9975 22.7188C36.543 22.4375 36.1921 22.0455 35.945 21.5426C35.7006 21.0369 35.5785 20.4489 35.5785 19.7784C35.5785 19.108 35.7006 18.517 35.945 18.0057C36.1921 17.4915 36.5359 17.0909 36.9762 16.804C37.4194 16.5142 37.9364 16.3693 38.5273 16.3693C38.8683 16.3693 39.2049 16.4261 39.5373 16.5398C39.8697 16.6534 40.1722 16.8381 40.445 17.0938C40.7177 17.3466 40.935 17.6818 41.0969 18.0994C41.2589 18.517 41.3398 19.0312 41.3398 19.642V20.0682H36.2944V19.1989H40.3171C40.3171 18.8295 40.2433 18.5 40.0955 18.2102C39.9506 17.9205 39.7433 17.6918 39.4734 17.5241C39.2063 17.3565 38.891 17.2727 38.5273 17.2727C38.1268 17.2727 37.7802 17.3722 37.4876 17.571C37.1978 17.767 36.9748 18.0227 36.8185 18.3381C36.6623 18.6534 36.5842 18.9915 36.5842 19.3523V19.9318C36.5842 20.4261 36.6694 20.8452 36.8398 21.1889C37.0131 21.5298 37.2532 21.7898 37.56 21.9688C37.8668 22.1449 38.2234 22.233 38.6296 22.233C38.8938 22.233 39.1325 22.196 39.3455 22.1222C39.5614 22.0455 39.7475 21.9318 39.9038 21.7812C40.06 21.6278 40.1808 21.4375 40.266 21.2102L41.2376 21.483C41.1353 21.8125 40.9634 22.1023 40.7219 22.3523C40.4805 22.5994 40.1822 22.7926 39.8271 22.9318C39.4719 23.0682 39.0728 23.1364 38.6296 23.1364ZM45.3413 23.1364C44.7958 23.1364 44.3143 22.9986 43.8967 22.723C43.479 22.4446 43.1523 22.0526 42.9165 21.5469C42.6808 21.0384 42.5629 20.4375 42.5629 19.7443C42.5629 19.0568 42.6808 18.4602 42.9165 17.9545C43.1523 17.4489 43.4805 17.0582 43.9009 16.7827C44.3214 16.5071 44.8072 16.3693 45.3583 16.3693C45.7844 16.3693 46.1211 16.4403 46.3683 16.5824C46.6183 16.7216 46.8086 16.8807 46.9393 17.0597C47.0728 17.2358 47.1765 17.3807 47.2504 17.4943H47.3356V14.2727H48.3413V23H47.3697V21.9943H47.2504C47.1765 22.1136 47.0714 22.2642 46.935 22.446C46.7987 22.625 46.604 22.7855 46.3512 22.9276C46.0984 23.0668 45.7617 23.1364 45.3413 23.1364ZM45.4776 22.233C45.881 22.233 46.2219 22.1278 46.5004 21.9176C46.7788 21.7045 46.9904 21.4105 47.1353 21.0355C47.2802 20.6577 47.3526 20.2216 47.3526 19.7273C47.3526 19.2386 47.2816 18.8111 47.1396 18.4446C46.9975 18.0753 46.7873 17.7884 46.5089 17.5838C46.2305 17.3764 45.8867 17.2727 45.4776 17.2727C45.0515 17.2727 44.6964 17.3821 44.4123 17.6009C44.131 17.8168 43.9194 18.1108 43.7773 18.483C43.6381 18.8523 43.5685 19.267 43.5685 19.7273C43.5685 20.1932 43.6396 20.6165 43.7816 20.9972C43.9265 21.375 44.1396 21.6761 44.4208 21.9006C44.7049 22.1222 45.0572 22.233 45.4776 22.233ZM60.8569 17H59.8001C59.7376 16.696 59.6282 16.429 59.4719 16.1989C59.3185 15.9688 59.131 15.7756 58.9094 15.6193C58.6907 15.4602 58.4478 15.3409 58.1808 15.2614C57.9137 15.1818 57.6353 15.142 57.3455 15.142C56.8171 15.142 56.3384 15.2756 55.9094 15.5426C55.4833 15.8097 55.1438 16.2031 54.891 16.723C54.641 17.2429 54.516 17.8807 54.516 18.6364C54.516 19.392 54.641 20.0298 54.891 20.5497C55.1438 21.0696 55.4833 21.4631 55.9094 21.7301C56.3384 21.9972 56.8171 22.1307 57.3455 22.1307C57.6353 22.1307 57.9137 22.0909 58.1808 22.0114C58.4478 21.9318 58.6907 21.8139 58.9094 21.6577C59.131 21.4986 59.3185 21.304 59.4719 21.0739C59.6282 20.8409 59.7376 20.5739 59.8001 20.2727H60.8569C60.7773 20.7187 60.6325 21.1179 60.4222 21.4702C60.212 21.8224 59.9506 22.1222 59.6381 22.3693C59.3256 22.6136 58.9748 22.7997 58.5856 22.9276C58.1992 23.0554 57.7859 23.1193 57.3455 23.1193C56.6012 23.1193 55.9393 22.9375 55.3597 22.5739C54.7802 22.2102 54.3242 21.6932 53.9918 21.0227C53.6594 20.3523 53.4933 19.5568 53.4933 18.6364C53.4933 17.7159 53.6594 16.9205 53.9918 16.25C54.3242 15.5795 54.7802 15.0625 55.3597 14.6989C55.9393 14.3352 56.6012 14.1534 57.3455 14.1534C57.7859 14.1534 58.1992 14.2173 58.5856 14.3452C58.9748 14.473 59.3256 14.6605 59.6381 14.9077C59.9506 15.152 60.212 15.4503 60.4222 15.8026C60.6325 16.152 60.7773 16.5511 60.8569 17ZM65.0874 23.1364C64.4964 23.1364 63.978 22.9957 63.532 22.7145C63.0888 22.4332 62.7422 22.0398 62.4922 21.5341C62.245 21.0284 62.1214 20.4375 62.1214 19.7614C62.1214 19.0795 62.245 18.4844 62.4922 17.9759C62.7422 17.4673 63.0888 17.0724 63.532 16.7912C63.978 16.5099 64.4964 16.3693 65.0874 16.3693C65.6783 16.3693 66.1953 16.5099 66.6385 16.7912C67.0845 17.0724 67.4311 17.4673 67.6783 17.9759C67.9283 18.4844 68.0533 19.0795 68.0533 19.7614C68.0533 20.4375 67.9283 21.0284 67.6783 21.5341C67.4311 22.0398 67.0845 22.4332 66.6385 22.7145C66.1953 22.9957 65.6783 23.1364 65.0874 23.1364ZM65.0874 22.233C65.5362 22.233 65.9055 22.1179 66.1953 21.8878C66.4851 21.6577 66.6996 21.3551 66.8388 20.9801C66.978 20.6051 67.0476 20.1989 67.0476 19.7614C67.0476 19.3239 66.978 18.9162 66.8388 18.5384C66.6996 18.1605 66.4851 17.8551 66.1953 17.6222C65.9055 17.3892 65.5362 17.2727 65.0874 17.2727C64.6385 17.2727 64.2692 17.3892 63.9794 17.6222C63.6896 17.8551 63.4751 18.1605 63.3359 18.5384C63.1967 18.9162 63.1271 19.3239 63.1271 19.7614C63.1271 20.1989 63.1967 20.6051 63.3359 20.9801C63.4751 21.3551 63.6896 21.6577 63.9794 21.8878C64.2692 22.1179 64.6385 22.233 65.0874 22.233ZM70.5941 19.0625V23H69.5884V16.4545H70.56V17.4773H70.6452C70.7987 17.1449 71.0316 16.8778 71.3441 16.6761C71.6566 16.4716 72.06 16.3693 72.5543 16.3693C72.9975 16.3693 73.3853 16.4602 73.7177 16.642C74.0501 16.821 74.3086 17.0938 74.4933 17.4602C74.6779 17.8239 74.7702 18.2841 74.7702 18.8409V23H73.7646V18.9091C73.7646 18.3949 73.631 17.9943 73.364 17.7074C73.0969 17.4176 72.7305 17.2727 72.2646 17.2727C71.9435 17.2727 71.6566 17.3423 71.4038 17.4815C71.1538 17.6207 70.9563 17.8239 70.8114 18.0909C70.6665 18.358 70.5941 18.6818 70.5941 19.0625ZM79.4545 16.4545V17.3068H76.0625V16.4545H79.4545ZM77.0511 14.8864H78.0568V21.125C78.0568 21.4091 78.098 21.6222 78.1804 21.7642C78.2656 21.9034 78.3736 21.9972 78.5043 22.0455C78.6378 22.0909 78.7784 22.1136 78.9261 22.1136C79.0369 22.1136 79.1278 22.108 79.1989 22.0966C79.2699 22.0824 79.3267 22.071 79.3693 22.0625L79.5739 22.9659C79.5057 22.9915 79.4105 23.017 79.2884 23.0426C79.1662 23.071 79.0114 23.0852 78.8239 23.0852C78.5398 23.0852 78.2614 23.0241 77.9886 22.902C77.7188 22.7798 77.4943 22.5938 77.3153 22.3438C77.1392 22.0938 77.0511 21.7784 77.0511 21.3977V14.8864ZM82.8935 23.1534C82.4787 23.1534 82.1023 23.0753 81.7642 22.919C81.4261 22.7599 81.1577 22.5312 80.9588 22.233C80.7599 21.9318 80.6605 21.5682 80.6605 21.142C80.6605 20.767 80.7344 20.4631 80.8821 20.2301C81.0298 19.9943 81.2273 19.8097 81.4744 19.6761C81.7216 19.5426 81.9943 19.4432 82.2926 19.3778C82.5938 19.3097 82.8963 19.2557 83.2003 19.2159C83.598 19.1648 83.9205 19.1264 84.1676 19.1009C84.4176 19.0724 84.5994 19.0256 84.7131 18.9602C84.8295 18.8949 84.8878 18.7812 84.8878 18.6193V18.5852C84.8878 18.1648 84.7727 17.8381 84.5426 17.6051C84.3153 17.3722 83.9702 17.2557 83.5071 17.2557C83.027 17.2557 82.6506 17.3608 82.3778 17.571C82.1051 17.7812 81.9134 18.0057 81.8026 18.2443L80.848 17.9034C81.0185 17.5057 81.2457 17.196 81.5298 16.9744C81.8168 16.75 82.1293 16.5937 82.4673 16.5057C82.8082 16.4148 83.1435 16.3693 83.473 16.3693C83.6832 16.3693 83.9247 16.3949 84.1974 16.446C84.473 16.4943 84.7386 16.5952 84.9943 16.7486C85.2528 16.902 85.4673 17.1335 85.6378 17.4432C85.8082 17.7528 85.8935 18.1676 85.8935 18.6875V23H84.8878V22.1136H84.8366C84.7685 22.2557 84.6548 22.4077 84.4957 22.5696C84.3366 22.7315 84.125 22.8693 83.8608 22.983C83.5966 23.0966 83.2741 23.1534 82.8935 23.1534ZM83.0469 22.25C83.4446 22.25 83.7798 22.1719 84.0526 22.0156C84.3281 21.8594 84.5355 21.6577 84.6747 21.4105C84.8168 21.1634 84.8878 20.9034 84.8878 20.6307V19.7102C84.8452 19.7614 84.7514 19.8082 84.6065 19.8509C84.4645 19.8906 84.2997 19.9261 84.1122 19.9574C83.9276 19.9858 83.7472 20.0114 83.571 20.0341C83.3977 20.054 83.2571 20.071 83.1491 20.0852C82.8878 20.1193 82.6435 20.1747 82.4162 20.2514C82.1918 20.3253 82.0099 20.4375 81.8707 20.5881C81.7344 20.7358 81.6662 20.9375 81.6662 21.1932C81.6662 21.5426 81.7955 21.8068 82.054 21.9858C82.3153 22.1619 82.6463 22.25 83.0469 22.25ZM87.729 23V16.4545H88.7347V23H87.729ZM88.2404 15.3636C88.0444 15.3636 87.8754 15.2969 87.7333 15.1634C87.5941 15.0298 87.5245 14.8693 87.5245 14.6818C87.5245 14.4943 87.5941 14.3338 87.7333 14.2003C87.8754 14.0668 88.0444 14 88.2404 14C88.4364 14 88.604 14.0668 88.7433 14.2003C88.8853 14.3338 88.9563 14.4943 88.9563 14.6818C88.9563 14.8693 88.8853 15.0298 88.7433 15.1634C88.604 15.2969 88.4364 15.3636 88.2404 15.3636ZM91.5824 19.0625V23H90.5767V16.4545H91.5483V17.4773H91.6335C91.7869 17.1449 92.0199 16.8778 92.3324 16.6761C92.6449 16.4716 93.0483 16.3693 93.5426 16.3693C93.9858 16.3693 94.3736 16.4602 94.706 16.642C95.0384 16.821 95.2969 17.0938 95.4815 17.4602C95.6662 17.8239 95.7585 18.2841 95.7585 18.8409V23H94.7528V18.9091C94.7528 18.3949 94.6193 17.9943 94.3523 17.7074C94.0852 17.4176 93.7188 17.2727 93.2528 17.2727C92.9318 17.2727 92.6449 17.3423 92.392 17.4815C92.142 17.6207 91.9446 17.8239 91.7997 18.0909C91.6548 18.358 91.5824 18.6818 91.5824 19.0625ZM100.341 23.1364C99.7099 23.1364 99.1658 22.9972 98.7085 22.7188C98.2539 22.4375 97.9031 22.0455 97.6559 21.5426C97.4116 21.0369 97.2894 20.4489 97.2894 19.7784C97.2894 19.108 97.4116 18.517 97.6559 18.0057C97.9031 17.4915 98.2468 17.0909 98.6871 16.804C99.1303 16.5142 99.6474 16.3693 100.238 16.3693C100.579 16.3693 100.916 16.4261 101.248 16.5398C101.581 16.6534 101.883 16.8381 102.156 17.0938C102.429 17.3466 102.646 17.6818 102.808 18.0994C102.97 18.517 103.051 19.0312 103.051 19.642V20.0682H98.0053V19.1989H102.028C102.028 18.8295 101.954 18.5 101.806 18.2102C101.662 17.9205 101.454 17.6918 101.184 17.5241C100.917 17.3565 100.602 17.2727 100.238 17.2727C99.8377 17.2727 99.4911 17.3722 99.1985 17.571C98.9087 17.767 98.6857 18.0227 98.5295 18.3381C98.3732 18.6534 98.2951 18.9915 98.2951 19.3523V19.9318C98.2951 20.4261 98.3803 20.8452 98.5508 21.1889C98.7241 21.5298 98.9641 21.7898 99.271 21.9688C99.5778 22.1449 99.9343 22.233 100.341 22.233C100.605 22.233 100.843 22.196 101.056 22.1222C101.272 22.0455 101.458 21.9318 101.615 21.7812C101.771 21.6278 101.892 21.4375 101.977 21.2102L102.949 21.483C102.846 21.8125 102.674 22.1023 102.433 22.3523C102.191 22.5994 101.893 22.7926 101.538 22.9318C101.183 23.0682 100.784 23.1364 100.341 23.1364ZM104.581 23V16.4545H105.552V17.4432H105.62C105.74 17.1193 105.956 16.8565 106.268 16.6548C106.581 16.4531 106.933 16.3523 107.325 16.3523C107.399 16.3523 107.491 16.3537 107.602 16.3565C107.713 16.3594 107.797 16.3636 107.853 16.3693V17.392C107.819 17.3835 107.741 17.3707 107.619 17.3537C107.5 17.3338 107.373 17.3239 107.24 17.3239C106.922 17.3239 106.637 17.3906 106.387 17.5241C106.14 17.6548 105.944 17.8366 105.799 18.0696C105.657 18.2997 105.586 18.5625 105.586 18.858V23H104.581Z" fill="black"/>
<defs>
<filter id="filter0_d_1_42939" x="2" y="62.6183" width="16" height="16" filterUnits="userSpaceOnUse" color-interpolation-filters="sRGB">
<feFlood flood-opacity="0" result="BackgroundImageFix"/>
<feColorMatrix in="SourceAlpha" type="matrix" values="0 0 0 0 0 0 0 0 0 0 0 0 0 0 0 0 0 0 127 0" result="hardAlpha"/>
<feOffset dy="2"/>
<feGaussianBlur stdDeviation="2"/>
<feColorMatrix type="matrix" values="0 0 0 0 0 0 0 0 0 0 0 0 0 0 0 0 0 0 0.45 0"/>
<feBlend mode="normal" in2="BackgroundImageFix" result="effect1_dropShadow_1_42939"/>
<feBlend mode="normal" in="SourceGraphic" in2="effect1_dropShadow_1_42939" result="shape"/>
</filter>
<filter id="filter1_d_1_42939" x="2" y="220.618" width="16" height="16" filterUnits="userSpaceOnUse" color-interpolation-filters="sRGB">
<feFlood flood-opacity="0" result="BackgroundImageFix"/>
<feColorMatrix in="SourceAlpha" type="matrix" values="0 0 0 0 0 0 0 0 0 0 0 0 0 0 0 0 0 0 127 0" result="hardAlpha"/>
<feOffset dy="2"/>
<feGaussianBlur stdDeviation="2"/>
<feColorMatrix type="matrix" values="0 0 0 0 0 0 0 0 0 0 0 0 0 0 0 0 0 0 0.45 0"/>
<feBlend mode="normal" in2="BackgroundImageFix" result="effect1_dropShadow_1_42939"/>
<feBlend mode="normal" in="SourceGraphic" in2="effect1_dropShadow_1_42939" result="shape"/>
</filter>
<filter id="filter2_d_1_42939" x="370" y="62.6183" width="16" height="16" filterUnits="userSpaceOnUse" color-interpolation-filters="sRGB">
<feFlood flood-opacity="0" result="BackgroundImageFix"/>
<feColorMatrix in="SourceAlpha" type="matrix" values="0 0 0 0 0 0 0 0 0 0 0 0 0 0 0 0 0 0 127 0" result="hardAlpha"/>
<feOffset dy="2"/>
<feGaussianBlur stdDeviation="2"/>
<feColorMatrix type="matrix" values="0 0 0 0 0 0 0 0 0 0 0 0 0 0 0 0 0 0 0.45 0"/>
<feBlend mode="normal" in2="BackgroundImageFix" result="effect1_dropShadow_1_42939"/>
<feBlend mode="normal" in="SourceGraphic" in2="effect1_dropShadow_1_42939" result="shape"/>
</filter>
<filter id="filter3_d_1_42939" x="370" y="220.618" width="16" height="16" filterUnits="userSpaceOnUse" color-interpolation-filters="sRGB">
<feFlood flood-opacity="0" result="BackgroundImageFix"/>
<feColorMatrix in="SourceAlpha" type="matrix" values="0 0 0 0 0 0 0 0 0 0 0 0 0 0 0 0 0 0 127 0" result="hardAlpha"/>
<feOffset dy="2"/>
<feGaussianBlur stdDeviation="2"/>
<feColorMatrix type="matrix" values="0 0 0 0 0 0 0 0 0 0 0 0 0 0 0 0 0 0 0.45 0"/>
<feBlend mode="normal" in2="BackgroundImageFix" result="effect1_dropShadow_1_42939"/>
<feBlend mode="normal" in="SourceGraphic" in2="effect1_dropShadow_1_42939" result="shape"/>
</filter>
<filter id="filter4_d_1_42939" x="318" y="167" width="38" height="38" filterUnits="userSpaceOnUse" color-interpolation-filters="sRGB">
<feFlood flood-opacity="0" result="BackgroundImageFix"/>
<feColorMatrix in="SourceAlpha" type="matrix" values="0 0 0 0 0 0 0 0 0 0 0 0 0 0 0 0 0 0 127 0" result="hardAlpha"/>
<feOffset dy="1"/>
<feGaussianBlur stdDeviation="1.5"/>
<feColorMatrix type="matrix" values="0 0 0 0 0 0 0 0 0 0 0 0 0 0 0 0 0 0 0.35 0"/>
<feBlend mode="normal" in2="BackgroundImageFix" result="effect1_dropShadow_1_42939"/>
<feBlend mode="normal" in="SourceGraphic" in2="effect1_dropShadow_1_42939" result="shape"/>
</filter>
</defs>
</svg>
