<svg width="401" height="304" viewBox="0 0 401 304" fill="none" xmlns="http://www.w3.org/2000/svg">
<rect width="401" height="304" fill="white"/>
<rect x="0.5" y="0.5" width="400" height="303" stroke="black" stroke-opacity="0.2"/>
<rect x="217" y="125" width="120" height="60" fill="#D8D8D8"/>
<rect x="144.173" y="37" width="184" height="158" transform="rotate(25.1599 144.173 37)" stroke="#1C6EE8"/>
<g filter="url(#filter0_d_1_42917)">
<rect x="142.253" y="31.6789" width="8" height="8" transform="rotate(25.1599 142.253 31.6789)" fill="white"/>
<rect x="142.493" y="32.3441" width="7" height="7" transform="rotate(25.1599 142.493 32.3441)" stroke="#1C6EE8"/>
</g>
<g filter="url(#filter1_d_1_42917)">
<rect x="75.0801" y="174.689" width="8" height="8" transform="rotate(25.1599 75.0801 174.689)" fill="white"/>
<rect x="75.3201" y="175.354" width="7" height="7" transform="rotate(25.1599 75.3201 175.354)" stroke="#1C6EE8"/>
</g>
<g filter="url(#filter2_d_1_42917)">
<rect x="308.796" y="109.906" width="8" height="8" transform="rotate(25.1599 308.796 109.906)" fill="white"/>
<rect x="309.036" y="110.571" width="7" height="7" transform="rotate(25.1599 309.036 110.571)" stroke="#1C6EE8"/>
</g>
<g filter="url(#filter3_d_1_42917)">
<rect x="241.623" y="252.915" width="8" height="8" transform="rotate(25.1599 241.623 252.915)" fill="white"/>
<rect x="241.863" y="253.581" width="7" height="7" transform="rotate(25.1599 241.863 253.581)" stroke="#1C6EE8"/>
</g>
<path d="M192.108 144.02V141.618C192.108 140.652 192.892 139.868 193.858 139.868C194.825 139.868 195.608 140.652 195.608 141.618V144.02C196.412 144.412 197.064 145.065 197.456 145.868H199.858C200.825 145.868 201.608 146.652 201.608 147.618C201.608 148.585 200.825 149.368 199.858 149.368H197.456C197.064 150.172 196.412 150.825 195.608 151.216V153.618C195.608 154.585 194.825 155.368 193.858 155.368C192.892 155.368 192.108 154.585 192.108 153.618V151.216C191.304 150.825 190.652 150.172 190.26 149.368H187.858C186.892 149.368 186.108 148.585 186.108 147.618C186.108 146.652 186.892 145.868 187.858 145.868H190.26C190.652 145.065 191.304 144.412 192.108 144.02Z" fill="white"/>
<path fill-rule="evenodd" clip-rule="evenodd" d="M193.858 140.868C194.272 140.868 194.608 141.204 194.608 141.618V144.713C195.662 144.984 196.492 145.814 196.764 146.868H199.858C200.272 146.868 200.608 147.204 200.608 147.618C200.608 148.032 200.272 148.368 199.858 148.368H196.764C196.492 149.422 195.662 150.252 194.608 150.524V153.618C194.608 154.032 194.272 154.368 193.858 154.368C193.444 154.368 193.108 154.032 193.108 153.618V150.524C192.054 150.252 191.224 149.422 190.953 148.368H187.858C187.444 148.368 187.108 148.032 187.108 147.618C187.108 147.204 187.444 146.868 187.858 146.868H190.953C191.224 145.814 192.054 144.984 193.108 144.713V141.618C193.108 141.204 193.444 140.868 193.858 140.868ZM195.358 147.618C195.358 148.447 194.686 149.118 193.858 149.118C193.03 149.118 192.358 148.447 192.358 147.618C192.358 146.79 193.03 146.118 193.858 146.118C194.686 146.118 195.358 146.79 195.358 147.618Z" fill="#1C6EE8"/>
<g filter="url(#filter4_d_1_42917)">
<path fill-rule="evenodd" clip-rule="evenodd" d="M336.498 185.5V191.5H337.5V185.5L343.5 185.5V184.498L337.5 184.498V178.5H336.498V184.498L330.5 184.498V185.5L336.498 185.5Z" fill="black"/>
<path fill-rule="evenodd" clip-rule="evenodd" d="M335.498 192.5V186.5L329.5 186.5V183.498L335.498 183.498V177.5H338.5V183.498L344.5 183.498V186.5H338.5V192.5H335.498ZM337.5 185.5L343.5 185.5V184.498L337.5 184.498V178.5H336.498V184.498L330.5 184.498V185.5L336.498 185.5V191.5H337.5V185.5Z" fill="white"/>
</g>
<circle cx="167.587" cy="97.5871" r="26" transform="rotate(25.16 167.587 97.5871)" fill="#FFD600"/>
<circle cx="164.522" cy="91.1757" r="2.5" transform="rotate(25.16 164.522 91.1757)" fill="black"/>
<circle cx="173.573" cy="95.4272" r="2.5" transform="rotate(25.16 173.573 95.4272)" fill="black"/>
<path d="M155.025 96.1058C155.025 96.1058 153.887 104.41 162.485 108.449C171.084 112.487 176.748 106.309 176.748 106.309" stroke="black" stroke-linecap="round" stroke-linejoin="round"/>
<path d="M12.0568 23V14.2727H15.0057C15.6875 14.2727 16.2472 14.3892 16.6847 14.6222C17.1222 14.8523 17.446 15.169 17.6562 15.5724C17.8665 15.9759 17.9716 16.4347 17.9716 16.9489C17.9716 17.4631 17.8665 17.919 17.6562 18.3168C17.446 18.7145 17.1236 19.027 16.6889 19.2543C16.2543 19.4787 15.6989 19.5909 15.0227 19.5909H12.6364V18.6364H14.9886C15.4545 18.6364 15.8295 18.5682 16.1136 18.4318C16.4006 18.2955 16.608 18.1023 16.7358 17.8523C16.8665 17.5994 16.9318 17.2983 16.9318 16.9489C16.9318 16.5994 16.8665 16.294 16.7358 16.0327C16.6051 15.7713 16.3963 15.5696 16.1094 15.4276C15.8224 15.2827 15.4432 15.2102 14.9716 15.2102H13.1136V23H12.0568ZM16.1648 19.0795L18.3125 23H17.0852L14.9716 19.0795H16.1648ZM22.185 23.1364C21.5941 23.1364 21.0756 22.9957 20.6296 22.7145C20.1864 22.4332 19.8398 22.0398 19.5898 21.5341C19.3427 21.0284 19.2191 20.4375 19.2191 19.7614C19.2191 19.0795 19.3427 18.4844 19.5898 17.9759C19.8398 17.4673 20.1864 17.0724 20.6296 16.7912C21.0756 16.5099 21.5941 16.3693 22.185 16.3693C22.7759 16.3693 23.293 16.5099 23.7362 16.7912C24.1822 17.0724 24.5288 17.4673 24.7759 17.9759C25.0259 18.4844 25.1509 19.0795 25.1509 19.7614C25.1509 20.4375 25.0259 21.0284 24.7759 21.5341C24.5288 22.0398 24.1822 22.4332 23.7362 22.7145C23.293 22.9957 22.7759 23.1364 22.185 23.1364ZM22.185 22.233C22.6339 22.233 23.0032 22.1179 23.293 21.8878C23.5827 21.6577 23.7972 21.3551 23.9364 20.9801C24.0756 20.6051 24.1452 20.1989 24.1452 19.7614C24.1452 19.3239 24.0756 18.9162 23.9364 18.5384C23.7972 18.1605 23.5827 17.8551 23.293 17.6222C23.0032 17.3892 22.6339 17.2727 22.185 17.2727C21.7362 17.2727 21.3668 17.3892 21.0771 17.6222C20.7873 17.8551 20.5728 18.1605 20.4336 18.5384C20.2944 18.9162 20.2248 19.3239 20.2248 19.7614C20.2248 20.1989 20.2944 20.6051 20.4336 20.9801C20.5728 21.3551 20.7873 21.6577 21.0771 21.8878C21.3668 22.1179 21.7362 22.233 22.185 22.233ZM29.5327 16.4545V17.3068H26.1406V16.4545H29.5327ZM27.1293 14.8864H28.1349V21.125C28.1349 21.4091 28.1761 21.6222 28.2585 21.7642C28.3438 21.9034 28.4517 21.9972 28.5824 22.0455C28.7159 22.0909 28.8565 22.1136 29.0043 22.1136C29.1151 22.1136 29.206 22.108 29.277 22.0966C29.348 22.0824 29.4048 22.071 29.4474 22.0625L29.652 22.9659C29.5838 22.9915 29.4886 23.017 29.3665 23.0426C29.2443 23.071 29.0895 23.0852 28.902 23.0852C28.6179 23.0852 28.3395 23.0241 28.0668 22.902C27.7969 22.7798 27.5724 22.5938 27.3935 22.3438C27.2173 22.0938 27.1293 21.7784 27.1293 21.3977V14.8864ZM32.9716 23.1534C32.5568 23.1534 32.1804 23.0753 31.8423 22.919C31.5043 22.7599 31.2358 22.5312 31.0369 22.233C30.8381 21.9318 30.7386 21.5682 30.7386 21.142C30.7386 20.767 30.8125 20.4631 30.9602 20.2301C31.108 19.9943 31.3054 19.8097 31.5526 19.6761C31.7997 19.5426 32.0724 19.4432 32.3707 19.3778C32.6719 19.3097 32.9744 19.2557 33.2784 19.2159C33.6761 19.1648 33.9986 19.1264 34.2457 19.1009C34.4957 19.0724 34.6776 19.0256 34.7912 18.9602C34.9077 18.8949 34.9659 18.7812 34.9659 18.6193V18.5852C34.9659 18.1648 34.8509 17.8381 34.6207 17.6051C34.3935 17.3722 34.0483 17.2557 33.5852 17.2557C33.1051 17.2557 32.7287 17.3608 32.456 17.571C32.1832 17.7812 31.9915 18.0057 31.8807 18.2443L30.9261 17.9034C31.0966 17.5057 31.3239 17.196 31.608 16.9744C31.8949 16.75 32.2074 16.5937 32.5455 16.5057C32.8864 16.4148 33.2216 16.3693 33.5511 16.3693C33.7614 16.3693 34.0028 16.3949 34.2756 16.446C34.5511 16.4943 34.8168 16.5952 35.0724 16.7486C35.331 16.902 35.5455 17.1335 35.7159 17.4432C35.8864 17.7528 35.9716 18.1676 35.9716 18.6875V23H34.9659V22.1136H34.9148C34.8466 22.2557 34.733 22.4077 34.5739 22.5696C34.4148 22.7315 34.2031 22.8693 33.9389 22.983C33.6747 23.0966 33.3523 23.1534 32.9716 23.1534ZM33.125 22.25C33.5227 22.25 33.858 22.1719 34.1307 22.0156C34.4063 21.8594 34.6136 21.6577 34.7528 21.4105C34.8949 21.1634 34.9659 20.9034 34.9659 20.6307V19.7102C34.9233 19.7614 34.8295 19.8082 34.6847 19.8509C34.5426 19.8906 34.3778 19.9261 34.1903 19.9574C34.0057 19.9858 33.8253 20.0114 33.6491 20.0341C33.4759 20.054 33.3352 20.071 33.2273 20.0852C32.9659 20.1193 32.7216 20.1747 32.4943 20.2514C32.2699 20.3253 32.0881 20.4375 31.9489 20.5881C31.8125 20.7358 31.7443 20.9375 31.7443 21.1932C31.7443 21.5426 31.8736 21.8068 32.1321 21.9858C32.3935 22.1619 32.7244 22.25 33.125 22.25ZM40.6538 16.4545V17.3068H37.2617V16.4545H40.6538ZM38.2504 14.8864H39.256V21.125C39.256 21.4091 39.2972 21.6222 39.3796 21.7642C39.4648 21.9034 39.5728 21.9972 39.7035 22.0455C39.837 22.0909 39.9776 22.1136 40.1254 22.1136C40.2362 22.1136 40.3271 22.108 40.3981 22.0966C40.4691 22.0824 40.5259 22.071 40.5685 22.0625L40.7731 22.9659C40.7049 22.9915 40.6097 23.017 40.4876 23.0426C40.3654 23.071 40.2106 23.0852 40.0231 23.0852C39.739 23.0852 39.4606 23.0241 39.1879 22.902C38.918 22.7798 38.6935 22.5938 38.5146 22.3438C38.3384 22.0938 38.2504 21.7784 38.2504 21.3977V14.8864ZM44.8406 23.1364C44.2099 23.1364 43.6658 22.9972 43.2085 22.7188C42.7539 22.4375 42.4031 22.0455 42.1559 21.5426C41.9116 21.0369 41.7894 20.4489 41.7894 19.7784C41.7894 19.108 41.9116 18.517 42.1559 18.0057C42.4031 17.4915 42.7468 17.0909 43.1871 16.804C43.6303 16.5142 44.1474 16.3693 44.7383 16.3693C45.0792 16.3693 45.4158 16.4261 45.7482 16.5398C46.0806 16.6534 46.3832 16.8381 46.6559 17.0938C46.9286 17.3466 47.146 17.6818 47.3079 18.0994C47.4698 18.517 47.5508 19.0312 47.5508 19.642V20.0682H42.5053V19.1989H46.5281C46.5281 18.8295 46.4542 18.5 46.3065 18.2102C46.1616 17.9205 45.9542 17.6918 45.6843 17.5241C45.4173 17.3565 45.1019 17.2727 44.7383 17.2727C44.3377 17.2727 43.9911 17.3722 43.6985 17.571C43.4087 17.767 43.1857 18.0227 43.0295 18.3381C42.8732 18.6534 42.7951 18.9915 42.7951 19.3523V19.9318C42.7951 20.4261 42.8803 20.8452 43.0508 21.1889C43.2241 21.5298 43.4641 21.7898 43.771 21.9688C44.0778 22.1449 44.4343 22.233 44.8406 22.233C45.1048 22.233 45.3434 22.196 45.5565 22.1222C45.7724 22.0455 45.9585 21.9318 46.1147 21.7812C46.271 21.6278 46.3917 21.4375 46.4769 21.2102L47.4485 21.483C47.3462 21.8125 47.1744 22.1023 46.9329 22.3523C46.6914 22.5994 46.3931 22.7926 46.038 22.9318C45.6829 23.0682 45.2837 23.1364 44.8406 23.1364ZM51.5522 23.1364C51.0067 23.1364 50.5252 22.9986 50.1076 22.723C49.69 22.4446 49.3633 22.0526 49.1275 21.5469C48.8917 21.0384 48.7738 20.4375 48.7738 19.7443C48.7738 19.0568 48.8917 18.4602 49.1275 17.9545C49.3633 17.4489 49.6914 17.0582 50.1119 16.7827C50.5323 16.5071 51.0181 16.3693 51.5692 16.3693C51.9954 16.3693 52.332 16.4403 52.5792 16.5824C52.8292 16.7216 53.0195 16.8807 53.1502 17.0597C53.2837 17.2358 53.3874 17.3807 53.4613 17.4943H53.5465V14.2727H54.5522V23H53.5806V21.9943H53.4613C53.3874 22.1136 53.2823 22.2642 53.146 22.446C53.0096 22.625 52.815 22.7855 52.5621 22.9276C52.3093 23.0668 51.9727 23.1364 51.5522 23.1364ZM51.6886 22.233C52.092 22.233 52.4329 22.1278 52.7113 21.9176C52.9897 21.7045 53.2013 21.4105 53.3462 21.0355C53.4911 20.6577 53.5636 20.2216 53.5636 19.7273C53.5636 19.2386 53.4925 18.8111 53.3505 18.4446C53.2085 18.0753 52.9982 17.7884 52.7198 17.5838C52.4414 17.3764 52.0977 17.2727 51.6886 17.2727C51.2624 17.2727 50.9073 17.3821 50.6232 17.6009C50.342 17.8168 50.1303 18.1108 49.9883 18.483C49.8491 18.8523 49.7795 19.267 49.7795 19.7273C49.7795 20.1932 49.8505 20.6165 49.9925 20.9972C50.1374 21.375 50.3505 21.6761 50.6317 21.9006C50.9158 22.1222 51.2681 22.233 51.6886 22.233ZM67.0678 17H66.011C65.9485 16.696 65.8391 16.429 65.6829 16.1989C65.5295 15.9688 65.342 15.7756 65.1204 15.6193C64.9016 15.4602 64.6587 15.3409 64.3917 15.2614C64.1246 15.1818 63.8462 15.142 63.5565 15.142C63.0281 15.142 62.5494 15.2756 62.1204 15.5426C61.6942 15.8097 61.3548 16.2031 61.1019 16.723C60.8519 17.2429 60.7269 17.8807 60.7269 18.6364C60.7269 19.392 60.8519 20.0298 61.1019 20.5497C61.3548 21.0696 61.6942 21.4631 62.1204 21.7301C62.5494 21.9972 63.0281 22.1307 63.5565 22.1307C63.8462 22.1307 64.1246 22.0909 64.3917 22.0114C64.6587 21.9318 64.9016 21.8139 65.1204 21.6577C65.342 21.4986 65.5295 21.304 65.6829 21.0739C65.8391 20.8409 65.9485 20.5739 66.011 20.2727H67.0678C66.9883 20.7187 66.8434 21.1179 66.6332 21.4702C66.4229 21.8224 66.1616 22.1222 65.8491 22.3693C65.5366 22.6136 65.1857 22.7997 64.7965 22.9276C64.4102 23.0554 63.9968 23.1193 63.5565 23.1193C62.8121 23.1193 62.1502 22.9375 61.5707 22.5739C60.9911 22.2102 60.5352 21.6932 60.2028 21.0227C59.8704 20.3523 59.7042 19.5568 59.7042 18.6364C59.7042 17.7159 59.8704 16.9205 60.2028 16.25C60.5352 15.5795 60.9911 15.0625 61.5707 14.6989C62.1502 14.3352 62.8121 14.1534 63.5565 14.1534C63.9968 14.1534 64.4102 14.2173 64.7965 14.3452C65.1857 14.473 65.5366 14.6605 65.8491 14.9077C66.1616 15.152 66.4229 15.4503 66.6332 15.8026C66.8434 16.152 66.9883 16.5511 67.0678 17ZM71.2983 23.1364C70.7074 23.1364 70.1889 22.9957 69.7429 22.7145C69.2997 22.4332 68.9531 22.0398 68.7031 21.5341C68.456 21.0284 68.3324 20.4375 68.3324 19.7614C68.3324 19.0795 68.456 18.4844 68.7031 17.9759C68.9531 17.4673 69.2997 17.0724 69.7429 16.7912C70.1889 16.5099 70.7074 16.3693 71.2983 16.3693C71.8892 16.3693 72.4063 16.5099 72.8494 16.7912C73.2955 17.0724 73.642 17.4673 73.8892 17.9759C74.1392 18.4844 74.2642 19.0795 74.2642 19.7614C74.2642 20.4375 74.1392 21.0284 73.8892 21.5341C73.642 22.0398 73.2955 22.4332 72.8494 22.7145C72.4063 22.9957 71.8892 23.1364 71.2983 23.1364ZM71.2983 22.233C71.7472 22.233 72.1165 22.1179 72.4062 21.8878C72.696 21.6577 72.9105 21.3551 73.0497 20.9801C73.1889 20.6051 73.2585 20.1989 73.2585 19.7614C73.2585 19.3239 73.1889 18.9162 73.0497 18.5384C72.9105 18.1605 72.696 17.8551 72.4062 17.6222C72.1165 17.3892 71.7472 17.2727 71.2983 17.2727C70.8494 17.2727 70.4801 17.3892 70.1903 17.6222C69.9006 17.8551 69.6861 18.1605 69.5469 18.5384C69.4077 18.9162 69.3381 19.3239 69.3381 19.7614C69.3381 20.1989 69.4077 20.6051 69.5469 20.9801C69.6861 21.3551 69.9006 21.6577 70.1903 21.8878C70.4801 22.1179 70.8494 22.233 71.2983 22.233ZM76.805 19.0625V23H75.7994V16.4545H76.771V17.4773H76.8562C77.0096 17.1449 77.2425 16.8778 77.555 16.6761C77.8675 16.4716 78.271 16.3693 78.7653 16.3693C79.2085 16.3693 79.5962 16.4602 79.9286 16.642C80.261 16.821 80.5195 17.0938 80.7042 17.4602C80.8888 17.8239 80.9812 18.2841 80.9812 18.8409V23H79.9755V18.9091C79.9755 18.3949 79.842 17.9943 79.5749 17.7074C79.3079 17.4176 78.9414 17.2727 78.4755 17.2727C78.1545 17.2727 77.8675 17.3423 77.6147 17.4815C77.3647 17.6207 77.1673 17.8239 77.0224 18.0909C76.8775 18.358 76.805 18.6818 76.805 19.0625ZM85.6655 16.4545V17.3068H82.2734V16.4545H85.6655ZM83.2621 14.8864H84.2678V21.125C84.2678 21.4091 84.3089 21.6222 84.3913 21.7642C84.4766 21.9034 84.5845 21.9972 84.7152 22.0455C84.8487 22.0909 84.9893 22.1136 85.1371 22.1136C85.2479 22.1136 85.3388 22.108 85.4098 22.0966C85.4808 22.0824 85.5376 22.071 85.5803 22.0625L85.7848 22.9659C85.7166 22.9915 85.6214 23.017 85.4993 23.0426C85.3771 23.071 85.2223 23.0852 85.0348 23.0852C84.7507 23.0852 84.4723 23.0241 84.1996 22.902C83.9297 22.7798 83.7053 22.5938 83.5263 22.3438C83.3501 22.0938 83.2621 21.7784 83.2621 21.3977V14.8864ZM89.1044 23.1534C88.6896 23.1534 88.3132 23.0753 87.9751 22.919C87.6371 22.7599 87.3686 22.5312 87.1697 22.233C86.9709 21.9318 86.8714 21.5682 86.8714 21.142C86.8714 20.767 86.9453 20.4631 87.093 20.2301C87.2408 19.9943 87.4382 19.8097 87.6854 19.6761C87.9325 19.5426 88.2053 19.4432 88.5036 19.3778C88.8047 19.3097 89.1072 19.2557 89.4112 19.2159C89.8089 19.1648 90.1314 19.1264 90.3786 19.1009C90.6286 19.0724 90.8104 19.0256 90.924 18.9602C91.0405 18.8949 91.0987 18.7812 91.0987 18.6193V18.5852C91.0987 18.1648 90.9837 17.8381 90.7536 17.6051C90.5263 17.3722 90.1811 17.2557 89.718 17.2557C89.2379 17.2557 88.8615 17.3608 88.5888 17.571C88.3161 17.7812 88.1243 18.0057 88.0135 18.2443L87.0589 17.9034C87.2294 17.5057 87.4567 17.196 87.7408 16.9744C88.0277 16.75 88.3402 16.5937 88.6783 16.5057C89.0192 16.4148 89.3544 16.3693 89.6839 16.3693C89.8942 16.3693 90.1357 16.3949 90.4084 16.446C90.6839 16.4943 90.9496 16.5952 91.2053 16.7486C91.4638 16.902 91.6783 17.1335 91.8487 17.4432C92.0192 17.7528 92.1044 18.1676 92.1044 18.6875V23H91.0987V22.1136H91.0476C90.9794 22.2557 90.8658 22.4077 90.7067 22.5696C90.5476 22.7315 90.3359 22.8693 90.0717 22.983C89.8075 23.0966 89.4851 23.1534 89.1044 23.1534ZM89.2578 22.25C89.6555 22.25 89.9908 22.1719 90.2635 22.0156C90.5391 21.8594 90.7464 21.6577 90.8857 21.4105C91.0277 21.1634 91.0987 20.9034 91.0987 20.6307V19.7102C91.0561 19.7614 90.9624 19.8082 90.8175 19.8509C90.6754 19.8906 90.5107 19.9261 90.3232 19.9574C90.1385 19.9858 89.9581 20.0114 89.782 20.0341C89.6087 20.054 89.468 20.071 89.3601 20.0852C89.0987 20.1193 88.8544 20.1747 88.6271 20.2514C88.4027 20.3253 88.2209 20.4375 88.0817 20.5881C87.9453 20.7358 87.8771 20.9375 87.8771 21.1932C87.8771 21.5426 88.0064 21.8068 88.2649 21.9858C88.5263 22.1619 88.8572 22.25 89.2578 22.25ZM93.94 23V16.4545H94.9457V23H93.94ZM94.4513 15.3636C94.2553 15.3636 94.0863 15.2969 93.9442 15.1634C93.805 15.0298 93.7354 14.8693 93.7354 14.6818C93.7354 14.4943 93.805 14.3338 93.9442 14.2003C94.0863 14.0668 94.2553 14 94.4513 14C94.6474 14 94.815 14.0668 94.9542 14.2003C95.0962 14.3338 95.1673 14.4943 95.1673 14.6818C95.1673 14.8693 95.0962 15.0298 94.9542 15.1634C94.815 15.2969 94.6474 15.3636 94.4513 15.3636ZM97.7933 19.0625V23H96.7876V16.4545H97.7592V17.4773H97.8445C97.9979 17.1449 98.2308 16.8778 98.5433 16.6761C98.8558 16.4716 99.2592 16.3693 99.7536 16.3693C100.197 16.3693 100.585 16.4602 100.917 16.642C101.249 16.821 101.508 17.0938 101.692 17.4602C101.877 17.8239 101.969 18.2841 101.969 18.8409V23H100.964V18.9091C100.964 18.3949 100.83 17.9943 100.563 17.7074C100.296 17.4176 99.9297 17.2727 99.4638 17.2727C99.1428 17.2727 98.8558 17.3423 98.603 17.4815C98.353 17.6207 98.1555 17.8239 98.0107 18.0909C97.8658 18.358 97.7933 18.6818 97.7933 19.0625ZM106.551 23.1364C105.921 23.1364 105.377 22.9972 104.919 22.7188C104.465 22.4375 104.114 22.0455 103.867 21.5426C103.623 21.0369 103.5 20.4489 103.5 19.7784C103.5 19.108 103.623 18.517 103.867 18.0057C104.114 17.4915 104.458 17.0909 104.898 16.804C105.341 16.5142 105.858 16.3693 106.449 16.3693C106.79 16.3693 107.127 16.4261 107.459 16.5398C107.792 16.6534 108.094 16.8381 108.367 17.0938C108.64 17.3466 108.857 17.6818 109.019 18.0994C109.181 18.517 109.262 19.0312 109.262 19.642V20.0682H104.216V19.1989H108.239C108.239 18.8295 108.165 18.5 108.017 18.2102C107.873 17.9205 107.665 17.6918 107.395 17.5241C107.128 17.3565 106.813 17.2727 106.449 17.2727C106.049 17.2727 105.702 17.3722 105.409 17.571C105.12 17.767 104.897 18.0227 104.74 18.3381C104.584 18.6534 104.506 18.9915 104.506 19.3523V19.9318C104.506 20.4261 104.591 20.8452 104.762 21.1889C104.935 21.5298 105.175 21.7898 105.482 21.9688C105.789 22.1449 106.145 22.233 106.551 22.233C106.816 22.233 107.054 22.196 107.267 22.1222C107.483 22.0455 107.669 21.9318 107.826 21.7812C107.982 21.6278 108.103 21.4375 108.188 21.2102L109.159 21.483C109.057 21.8125 108.885 22.1023 108.644 22.3523C108.402 22.5994 108.104 22.7926 107.749 22.9318C107.394 23.0682 106.995 23.1364 106.551 23.1364ZM110.792 23V16.4545H111.763V17.4432H111.831C111.951 17.1193 112.167 16.8565 112.479 16.6548C112.792 16.4531 113.144 16.3523 113.536 16.3523C113.61 16.3523 113.702 16.3537 113.813 16.3565C113.924 16.3594 114.007 16.3636 114.064 16.3693V17.392C114.03 17.3835 113.952 17.3707 113.83 17.3537C113.711 17.3338 113.584 17.3239 113.451 17.3239C113.132 17.3239 112.848 17.3906 112.598 17.5241C112.351 17.6548 112.155 17.8366 112.01 18.0696C111.868 18.2997 111.797 18.5625 111.797 18.858V23H110.792Z" fill="black"/>
<defs>
<filter id="filter0_d_1_42917" x="134.852" y="29.6789" width="18.6422" height="18.6422" filterUnits="userSpaceOnUse" color-interpolation-filters="sRGB">
<feFlood flood-opacity="0" result="BackgroundImageFix"/>
<feColorMatrix in="SourceAlpha" type="matrix" values="0 0 0 0 0 0 0 0 0 0 0 0 0 0 0 0 0 0 127 0" result="hardAlpha"/>
<feOffset dy="2"/>
<feGaussianBlur stdDeviation="2"/>
<feColorMatrix type="matrix" values="0 0 0 0 0 0 0 0 0 0 0 0 0 0 0 0 0 0 0.45 0"/>
<feBlend mode="normal" in2="BackgroundImageFix" result="effect1_dropShadow_1_42917"/>
<feBlend mode="normal" in="SourceGraphic" in2="effect1_dropShadow_1_42917" result="shape"/>
</filter>
<filter id="filter1_d_1_42917" x="67.6789" y="172.689" width="18.6422" height="18.6422" filterUnits="userSpaceOnUse" color-interpolation-filters="sRGB">
<feFlood flood-opacity="0" result="BackgroundImageFix"/>
<feColorMatrix in="SourceAlpha" type="matrix" values="0 0 0 0 0 0 0 0 0 0 0 0 0 0 0 0 0 0 127 0" result="hardAlpha"/>
<feOffset dy="2"/>
<feGaussianBlur stdDeviation="2"/>
<feColorMatrix type="matrix" values="0 0 0 0 0 0 0 0 0 0 0 0 0 0 0 0 0 0 0.45 0"/>
<feBlend mode="normal" in2="BackgroundImageFix" result="effect1_dropShadow_1_42917"/>
<feBlend mode="normal" in="SourceGraphic" in2="effect1_dropShadow_1_42917" result="shape"/>
</filter>
<filter id="filter2_d_1_42917" x="301.395" y="107.906" width="18.6422" height="18.6422" filterUnits="userSpaceOnUse" color-interpolation-filters="sRGB">
<feFlood flood-opacity="0" result="BackgroundImageFix"/>
<feColorMatrix in="SourceAlpha" type="matrix" values="0 0 0 0 0 0 0 0 0 0 0 0 0 0 0 0 0 0 127 0" result="hardAlpha"/>
<feOffset dy="2"/>
<feGaussianBlur stdDeviation="2"/>
<feColorMatrix type="matrix" values="0 0 0 0 0 0 0 0 0 0 0 0 0 0 0 0 0 0 0.45 0"/>
<feBlend mode="normal" in2="BackgroundImageFix" result="effect1_dropShadow_1_42917"/>
<feBlend mode="normal" in="SourceGraphic" in2="effect1_dropShadow_1_42917" result="shape"/>
</filter>
<filter id="filter3_d_1_42917" x="234.222" y="250.915" width="18.6422" height="18.6422" filterUnits="userSpaceOnUse" color-interpolation-filters="sRGB">
<feFlood flood-opacity="0" result="BackgroundImageFix"/>
<feColorMatrix in="SourceAlpha" type="matrix" values="0 0 0 0 0 0 0 0 0 0 0 0 0 0 0 0 0 0 127 0" result="hardAlpha"/>
<feOffset dy="2"/>
<feGaussianBlur stdDeviation="2"/>
<feColorMatrix type="matrix" values="0 0 0 0 0 0 0 0 0 0 0 0 0 0 0 0 0 0 0.45 0"/>
<feBlend mode="normal" in2="BackgroundImageFix" result="effect1_dropShadow_1_42917"/>
<feBlend mode="normal" in="SourceGraphic" in2="effect1_dropShadow_1_42917" result="shape"/>
</filter>
<filter id="filter4_d_1_42917" x="318" y="167" width="38" height="38" filterUnits="userSpaceOnUse" color-interpolation-filters="sRGB">
<feFlood flood-opacity="0" result="BackgroundImageFix"/>
<feColorMatrix in="SourceAlpha" type="matrix" values="0 0 0 0 0 0 0 0 0 0 0 0 0 0 0 0 0 0 127 0" result="hardAlpha"/>
<feOffset dy="1"/>
<feGaussianBlur stdDeviation="1.5"/>
<feColorMatrix type="matrix" values="0 0 0 0 0 0 0 0 0 0 0 0 0 0 0 0 0 0 0.35 0"/>
<feBlend mode="normal" in2="BackgroundImageFix" result="effect1_dropShadow_1_42917"/>
<feBlend mode="normal" in="SourceGraphic" in2="effect1_dropShadow_1_42917" result="shape"/>
</filter>
</defs>
</svg>
