<svg width="700" height="700" viewBox="0 0 700 700" fill="none" xmlns="http://www.w3.org/2000/svg">
<g clip-path="url(#clip0_1_8)">
<rect width="700" height="700" rx="189" fill="#1A1A1A"/>
<g filter="url(#filter0_d_1_8)">
<path d="M311 126.5C305 128.5 302.833 129.333 302.5 129.5C302 129.667 300.2 130.8 297 132C293 133.5 287.5 135 279.5 138.5C271.5 142 265.5 144.5 262 145.5C258.5 146.5 246 155 235.5 163C225 171 216.5 181 210.5 188.5C204.5 196 197.5 212.5 190.5 224.5C183.5 236.5 179 249.5 175 258.5C171 267.5 167 279 164.5 289.5C162 300 163.5 302.5 162.5 308C161.5 313.5 160 317.5 157.5 322.5C155 327.5 151 331 149 335C147 339 146 341.5 146 350C146 358.5 139.5 372 137.5 377.5C135.5 383 138 405 137.5 410.5C137 416 134 424 130 434.5C126 445 124 449 122.5 455.5C121 462 120.5 471.5 121.5 476.5C122.5 481.5 124.5 491.5 126 498.5C127.5 505.5 135 515 142.5 523.5C150 532 167 537 175 539.5C183 542 207 545 216.5 545.5C226 546 229.5 548 236.5 549C243.5 550 258.5 550.5 263 552.5C267.5 554.5 268.5 555.5 276.5 561.5C284.5 567.5 290 568.5 296.5 570.5C303 572.5 306 570 311.5 572.5C317 575 332.5 574.5 338.5 573.5C344.5 572.5 351.5 566.5 357 566C362.5 565.5 370.5 568.5 383.5 568.5C396.5 568.5 400.5 563.5 412.5 560.5C424.5 557.5 446 549 451 545.5C456 542 476.5 519.5 481 514C485.5 508.5 502 486.5 506 481C510 475.5 518 467.5 526.5 459C535 450.5 543 437.5 548 430.5C553 423.5 565 411 571.5 403C578 395 579 392.5 582 384.5C585 376.5 586.5 367.5 586.5 355.5C586.5 343.5 585 338.5 585.5 332C586 325.5 588 315.5 588.5 304.5C589 293.5 588.5 270.5 587 259C585.5 247.5 580.5 237.5 573.5 224.5C566.5 211.5 557.5 203.5 544 190C530.5 176.5 509 165 499.5 160.5C490 156 476.5 147.5 467 141C457.5 134.5 437.5 125.5 426 120.5C414.5 115.5 405 114.5 398.5 112.5C392 110.5 374.5 113.5 368.5 114.5C362.5 115.5 349.5 116 343.5 115.5C337.5 115 334.5 115 329 118C323.5 121 318.5 124 311 126.5Z" fill="#EEECE0"/>
<path d="M311 126.5C305 128.5 302.833 129.333 302.5 129.5C302 129.667 300.2 130.8 297 132C293 133.5 287.5 135 279.5 138.5C271.5 142 265.5 144.5 262 145.5C258.5 146.5 246 155 235.5 163C225 171 216.5 181 210.5 188.5C204.5 196 197.5 212.5 190.5 224.5C183.5 236.5 179 249.5 175 258.5C171 267.5 167 279 164.5 289.5C162 300 163.5 302.5 162.5 308C161.5 313.5 160 317.5 157.5 322.5C155 327.5 151 331 149 335C147 339 146 341.5 146 350C146 358.5 139.5 372 137.5 377.5C135.5 383 138 405 137.5 410.5C137 416 134 424 130 434.5C126 445 124 449 122.5 455.5C121 462 120.5 471.5 121.5 476.5C122.5 481.5 124.5 491.5 126 498.5C127.5 505.5 135 515 142.5 523.5C150 532 167 537 175 539.5C183 542 207 545 216.5 545.5C226 546 229.5 548 236.5 549C243.5 550 258.5 550.5 263 552.5C267.5 554.5 268.5 555.5 276.5 561.5C284.5 567.5 290 568.5 296.5 570.5C303 572.5 306 570 311.5 572.5C317 575 332.5 574.5 338.5 573.5C344.5 572.5 351.5 566.5 357 566C362.5 565.5 370.5 568.5 383.5 568.5C396.5 568.5 400.5 563.5 412.5 560.5C424.5 557.5 446 549 451 545.5C456 542 476.5 519.5 481 514C485.5 508.5 502 486.5 506 481C510 475.5 518 467.5 526.5 459C535 450.5 543 437.5 548 430.5C553 423.5 565 411 571.5 403C578 395 579 392.5 582 384.5C585 376.5 586.5 367.5 586.5 355.5C586.5 343.5 585 338.5 585.5 332C586 325.5 588 315.5 588.5 304.5C589 293.5 588.5 270.5 587 259C585.5 247.5 580.5 237.5 573.5 224.5C566.5 211.5 557.5 203.5 544 190C530.5 176.5 509 165 499.5 160.5C490 156 476.5 147.5 467 141C457.5 134.5 437.5 125.5 426 120.5C414.5 115.5 405 114.5 398.5 112.5C392 110.5 374.5 113.5 368.5 114.5C362.5 115.5 349.5 116 343.5 115.5C337.5 115 334.5 115 329 118C323.5 121 318.5 124 311 126.5Z" fill="url(#paint0_radial_1_8)" fill-opacity="0.8"/>
<g filter="url(#filter1_f_1_8)">
<path d="M371 228L384.5 233L375 220C379.5 219.5 392.1 222.3 406.5 237.5C420.9 252.7 426.833 261.167 428 263.5L390.652 233.124C394.266 236.076 403.536 244.564 413 256C422.6 267.6 432.333 285.167 436 292.5C426.5 279.5 405 251.9 395 245.5C385 239.1 374.833 231.167 371 228Z" fill="#F9DAAA"/>
</g>
<g filter="url(#filter2_df_1_8)">
<path d="M278 149.5C299.5 144 313 139 324 139C335 139 337 135.5 353 139C369 142.5 373.5 144 387.5 144.5C398.7 144.9 409.167 148 413 149.5" stroke="#DDD9C2" stroke-width="4"/>
</g>
<g filter="url(#filter3_df_1_8)">
<path d="M340 129L338 121.5H342V127L345.5 119H352V127H355.5L360 119L367.5 120.5L370 129L379 127L385 119V129L391 123.5L394.5 129L403.5 134V123.5L416 121.5L412 134L418 138.5L430.5 130.5L425 141L432.5 150.5L440.5 137L442 149L451 154H460V158.5L465.5 167L470.5 162L480.5 163.5L476 170.5L486.5 172.5L497 168L507.5 177" stroke="#C7BAA6" stroke-opacity="0.5" stroke-width="2" shape-rendering="crispEdges"/>
</g>
<g filter="url(#filter4_f_1_8)">
<path d="M518 183.5H524.5L521 194.5H528L536.5 201L534.5 217L539 216" stroke="#BDA878"/>
</g>
<g filter="url(#filter5_f_1_8)">
<path d="M492 198L489 200.5L483.5 188L479 190.5L472 183" stroke="#B9AB88"/>
</g>
<g filter="url(#filter6_f_1_8)">
<path d="M514.5 227.5L511.5 235.5L520.5 227.5" stroke="#AAA784"/>
</g>
<g filter="url(#filter7_f_1_8)">
<path d="M203.5 505C210.5 512.167 228.3 528.2 243.5 535C262.5 543.5 284 550.5 299 550.5C314 550.5 346 547 363 542C376.6 538 400.667 525.333 411 519.5" stroke="#9B620C" stroke-width="2"/>
</g>
<g filter="url(#filter8_f_1_8)">
<path d="M133 478L122.5 475.5" stroke="#AE915F"/>
</g>
<g filter="url(#filter9_f_1_8)">
<path d="M128.5 466L124 461.5" stroke="#AEA581"/>
</g>
<g filter="url(#filter10_f_1_8)">
<path d="M153.5 373.5C151.5 379.5 148.1 393.8 150.5 403C153.5 414.5 159.5 434.5 166.5 445.5" stroke="#BD9B5A" stroke-width="2"/>
</g>
<g filter="url(#filter11_f_1_8)">
<path d="M133.5 452L127.5 443.5" stroke="#BCB499"/>
</g>
<g filter="url(#filter12_f_1_8)">
<path d="M145.5 403L140.5 406V411.5L145.5 415" stroke="#C2BE9C"/>
</g>
<g filter="url(#filter13_f_1_8)">
<path d="M146.5 390.5H141V394" stroke="#BFAE80"/>
</g>
<g filter="url(#filter14_f_1_8)">
<path d="M145.5 378V382" stroke="#B6AE8D"/>
</g>
<g filter="url(#filter15_f_1_8)">
<path d="M156 335.5L152.5 361" stroke="#BBB28B"/>
</g>
<g filter="url(#filter16_f_1_8)">
<path d="M163 330.5C165.5 326 167.5 324.5 167.5 320.5" stroke="#B7B098"/>
</g>
<g filter="url(#filter17_f_1_8)">
<path d="M144 448.5L157.5 454" stroke="#936E29"/>
</g>
<g filter="url(#filter18_f_1_8)">
<path d="M163 443C166 451.5 167.5 461.5 176 473.5C182.8 483.1 187.167 487.833 188.5 489" stroke="#936E29" stroke-width="3"/>
</g>
<g filter="url(#filter19_f_1_8)">
<path d="M212 539.5C224.5 542.5 232 545.5 239.5 545.5C247 545.5 252.5 545.5 256 545.5C258.8 545.5 261.5 547.5 262.5 548.5" stroke="#988766"/>
</g>
<g filter="url(#filter20_f_1_8)">
<path d="M172 528L163.5 533L175.5 537L192.5 528L188.5 537" stroke="#C2AB7F"/>
</g>
<g filter="url(#filter21_f_1_8)">
<path d="M147.5 511L140 516.5L131 506L147.5 511Z" stroke="#978764"/>
</g>
<g filter="url(#filter22_f_1_8)">
<path d="M339 559V566L343 559V566L349 554C351.167 558 356.9 566 362.5 566C368.1 566 379.167 566 384 566L391 562" stroke="#C4BCA0"/>
</g>
<g filter="url(#filter23_f_1_8)">
<path d="M139 425H143L141.5 427L149 429L138 431.5L149 433L152 437H140.5L134 436" stroke="#936E29" stroke-opacity="0.75"/>
</g>
<g filter="url(#filter24_f_1_8)">
<path d="M550.5 261H564V272.5L553.5 283.5L560.5 287L576.5 279.5L573.5 272.5L577.5 273.5L573.5 263L571 253L586 263L584.5 283.5L579.5 291.5" stroke="#DCDAC6" stroke-width="3"/>
</g>
<g filter="url(#filter25_f_1_8)">
<path d="M574.5 305.5L570.5 314L579.5 312.5L578.5 318.5L577 330L564 326.5L559.5 316.5" stroke="#B0AB82"/>
</g>
<g filter="url(#filter26_f_1_8)">
<path d="M555.5 312H565V305.5" stroke="#F8F6F1" stroke-width="5"/>
</g>
<g filter="url(#filter27_f_1_8)">
<path d="M521.5 335.5L527 339.5L536.5 356.5H547.5L562.5 361.5L556.5 383.5L563.5 385.5L565.5 392.5L553.5 391L545.5 385.5" stroke="#C6BD88"/>
</g>
<g filter="url(#filter28_f_1_8)">
<path d="M513.5 443.5L507.5 441L506 432.5H511.5L507.5 428" stroke="#ACAF9A"/>
</g>
<g filter="url(#filter29_f_1_8)">
<path d="M513 416H505V422.5L507.5 410" stroke="#B0AC8C"/>
</g>
<g filter="url(#filter30_f_1_8)">
<path d="M521.5 275L528 278L525 281.5" stroke="#C2BD9C"/>
</g>
<g filter="url(#filter31_f_1_8)">
<path d="M492.5 491L491 484L492.5 479.5L497.5 481L510.5 469" stroke="#A99B71"/>
</g>
<g filter="url(#filter32_f_1_8)">
<path d="M437 519.5C444.667 513.667 461.9 498.5 469.5 484.5C479 467 475 471 485 452" stroke="#CFC788" stroke-width="3"/>
</g>
<g filter="url(#filter33_f_1_8)">
<path d="M543 414L552.5 421L534 443L532.5 434.5L530.5 428.5L532.5 426" stroke="#938A62" stroke-opacity="0.5" stroke-width="2"/>
</g>
</g>
<g filter="url(#filter34_di_1_8)">
<path d="M381 236C364 224.5 346 224.5 337.5 224C330.7 223.6 320 225.167 315.5 226C315 226.093 313.786 226.286 312.5 226.5C309.5 227 298.5 230.5 291 233.5C283.5 236.5 276.879 240.091 267 247.5C257 255 246.5 270.5 238 287C229.5 303.5 230 319 229.5 334C229 349 236.5 367.5 247 387.5C257.5 407.5 272 419 292 430.5C312 442 340 443.5 357.5 442.5C375 441.5 390 432.5 401.5 425.5C413 418.5 424 402.5 431 389C438 375.5 440.5 361 442 345.5C443.5 330 442 321 439 307.5C436 294 427.5 280 421 271C414.5 262 398 247.5 381 236Z" fill="url(#paint1_radial_1_8)"/>
<path d="M381 236C364 224.5 346 224.5 337.5 224C330.7 223.6 320 225.167 315.5 226C315 226.093 313.786 226.286 312.5 226.5C309.5 227 298.5 230.5 291 233.5C283.5 236.5 276.879 240.091 267 247.5C257 255 246.5 270.5 238 287C229.5 303.5 230 319 229.5 334C229 349 236.5 367.5 247 387.5C257.5 407.5 272 419 292 430.5C312 442 340 443.5 357.5 442.5C375 441.5 390 432.5 401.5 425.5C413 418.5 424 402.5 431 389C438 375.5 440.5 361 442 345.5C443.5 330 442 321 439 307.5C436 294 427.5 280 421 271C414.5 262 398 247.5 381 236Z" fill="url(#paint2_radial_1_8)" fill-opacity="0.5"/>
<path d="M381 236C364 224.5 346 224.5 337.5 224C330.7 223.6 320 225.167 315.5 226C315 226.093 313.786 226.286 312.5 226.5C309.5 227 298.5 230.5 291 233.5C283.5 236.5 276.879 240.091 267 247.5C257 255 246.5 270.5 238 287C229.5 303.5 230 319 229.5 334C229 349 236.5 367.5 247 387.5C257.5 407.5 272 419 292 430.5C312 442 340 443.5 357.5 442.5C375 441.5 390 432.5 401.5 425.5C413 418.5 424 402.5 431 389C438 375.5 440.5 361 442 345.5C443.5 330 442 321 439 307.5C436 294 427.5 280 421 271C414.5 262 398 247.5 381 236Z" fill="url(#paint3_radial_1_8)" fill-opacity="0.5"/>
<path d="M381 236C364 224.5 346 224.5 337.5 224C330.7 223.6 320 225.167 315.5 226C315 226.093 313.786 226.286 312.5 226.5C309.5 227 298.5 230.5 291 233.5C283.5 236.5 276.879 240.091 267 247.5C257 255 246.5 270.5 238 287C229.5 303.5 230 319 229.5 334C229 349 236.5 367.5 247 387.5C257.5 407.5 272 419 292 430.5C312 442 340 443.5 357.5 442.5C375 441.5 390 432.5 401.5 425.5C413 418.5 424 402.5 431 389C438 375.5 440.5 361 442 345.5C443.5 330 442 321 439 307.5C436 294 427.5 280 421 271C414.5 262 398 247.5 381 236Z" fill="white" fill-opacity="0.05"/>
</g>
<g filter="url(#filter35_f_1_8)">
<path d="M423.5 409.5C415.5 401.5 414 395.5 415.5 393C417 390.5 419.5 390.5 420 390C420.5 389.5 428.5 391.5 431.5 393" stroke="#E7BB6A" stroke-width="4"/>
</g>
<g filter="url(#filter36_df_1_8)">
<path d="M238.5 311C239.667 323.833 236.7 343 241.5 357C247.5 374.5 257.5 395 271.5 406C285.5 417 302 428.5 315 431.5C328 434.5 346 435.5 354.5 431.5C363 427.5 375.5 428.5 377.5 427.5" stroke="#FFD9B3" stroke-width="3"/>
</g>
<g filter="url(#filter37_iif_1_8)">
<path d="M260 276C257.6 280.4 256.667 287.833 256.5 291C258.667 288 264.4 280.7 270 275.5C277 269 284 269 291 265.5C298 262 300 263.5 307 262C314 260.5 318.5 259 328.5 259C338.5 259 351 259 358 261C365 263 368.5 264.5 376 269C383.5 273.5 399 285 406.5 291C412.5 295.8 416.333 301.667 417.5 304C417.833 301.333 418.3 295.5 417.5 293.5C416.5 291 412.5 285.5 408 279C403.5 272.5 395 265.5 387 259C379 252.5 371 249.5 361.5 245C352 240.5 347.5 240 336 239C324.5 238 318 239.5 306 243C294 246.5 286.5 251.5 275.5 258C264.5 264.5 263 270.5 260 276Z" fill="url(#paint4_radial_1_8)"/>
</g>
<g opacity="0.75" filter="url(#filter38_iif_1_8)">
<path d="M256.5 291C256.667 287.833 257.6 280.4 260 276C263 270.5 264.5 264.5 275.5 258C279.694 255.521 283.38 253.261 287 251.219C290.277 249.37 293.501 247.7 297 246.208C299.772 245.027 302.718 243.957 306 243C318 239.5 324.5 238 336 239C337.827 239.159 339.478 239.305 341 239.457C344.695 239.825 347.632 240.225 350.5 240.916C353.885 241.731 357.174 242.951 361.5 245C371 249.5 379 252.5 387 259C395 265.5 403.5 272.5 408 279C412.5 285.5 416.5 291 417.5 293.5C418.3 295.5 417.833 301.333 417.5 304C416.333 301.667 412.5 295.8 406.5 291C399 285 383.5 273.5 376 269C368.5 264.5 365 263 358 261C354.306 259.945 349.081 259.446 343.5 259.211C341.854 259.141 340.178 259.095 338.5 259.064C335.085 259 331.667 259 328.5 259C318.5 259 314 260.5 307 262C302.479 262.969 300.044 262.686 297 263.307C295.331 263.648 293.479 264.26 291 265.5C284 269 277 269 270 275.5C264.4 280.7 258.667 288 256.5 291Z" fill="url(#paint5_radial_1_8)"/>
</g>
<g opacity="0.75" filter="url(#filter39_iif_1_8)">
<path d="M297 263.307C300.044 262.686 302.479 262.969 307 262L297 246.208C293.501 247.7 290.277 249.37 287 251.219L297 263.307Z" fill="url(#paint6_radial_1_8)"/>
</g>
<g opacity="0.6" filter="url(#filter40_iif_1_8)">
<path d="M338.5 259.064L341 239.457C344.695 239.825 347.632 240.225 350.5 240.916L343.5 259.211C341.854 259.141 340.178 259.095 338.5 259.064Z" fill="url(#paint7_radial_1_8)"/>
</g>
<g filter="url(#filter41_f_1_8)">
<circle cx="278" cy="363" r="4" fill="#FFB34A"/>
</g>
<g filter="url(#filter42_f_1_8)">
<path d="M268 256C259.2 261.6 254 271 252.5 275C253.5 271.167 257.6 261.4 266 253C276.5 242.5 282 241.5 298.5 234.5C315 227.5 344.5 229.5 358.5 234.5C372.5 239.5 391.256 246.656 405 261.5C417.5 275 416.5 275 422 288C426.4 298.4 426.167 300.667 425.5 300.5C425.167 299.5 424 296.9 422 294.5C419.5 291.5 415 279 410 272C405 265 396.5 259 389.5 253C382.5 247 360 239.5 353.5 237.5C347 235.5 334 234.5 326 234.5C318 234.5 303 237.5 294 241.5C285 245.5 279 249 268 256Z" fill="#FFD966" fill-opacity="0.3"/>
</g>
</g>
<defs>
<filter id="filter0_d_1_8" x="18.9797" y="107.827" width="671.708" height="666.492" filterUnits="userSpaceOnUse" color-interpolation-filters="sRGB">
<feFlood flood-opacity="0" result="BackgroundImageFix"/>
<feColorMatrix in="SourceAlpha" type="matrix" values="0 0 0 0 0 0 0 0 0 0 0 0 0 0 0 0 0 0 127 0" result="hardAlpha"/>
<feOffset dy="98"/>
<feGaussianBlur stdDeviation="51"/>
<feComposite in2="hardAlpha" operator="out"/>
<feColorMatrix type="matrix" values="0 0 0 0 0 0 0 0 0 0 0 0 0 0 0 0 0 0 0.07 0"/>
<feBlend mode="normal" in2="BackgroundImageFix" result="effect1_dropShadow_1_8"/>
<feBlend mode="normal" in="SourceGraphic" in2="effect1_dropShadow_1_8" result="shape"/>
</filter>
<filter id="filter1_f_1_8" x="352" y="200.947" width="103" height="110.553" filterUnits="userSpaceOnUse" color-interpolation-filters="sRGB">
<feFlood flood-opacity="0" result="BackgroundImageFix"/>
<feBlend mode="normal" in="SourceGraphic" in2="BackgroundImageFix" result="shape"/>
<feGaussianBlur stdDeviation="9.5" result="effect1_foregroundBlur_1_8"/>
</filter>
<filter id="filter2_df_1_8" x="267.504" y="125.444" width="156.224" height="35.9931" filterUnits="userSpaceOnUse" color-interpolation-filters="sRGB">
<feFlood flood-opacity="0" result="BackgroundImageFix"/>
<feColorMatrix in="SourceAlpha" type="matrix" values="0 0 0 0 0 0 0 0 0 0 0 0 0 0 0 0 0 0 127 0" result="hardAlpha"/>
<feOffset dy="5"/>
<feGaussianBlur stdDeviation="2"/>
<feComposite in2="hardAlpha" operator="out"/>
<feColorMatrix type="matrix" values="0 0 0 0 1 0 0 0 0 1 0 0 0 0 1 0 0 0 1 0"/>
<feBlend mode="normal" in2="BackgroundImageFix" result="effect1_dropShadow_1_8"/>
<feBlend mode="normal" in="SourceGraphic" in2="effect1_dropShadow_1_8" result="shape"/>
<feGaussianBlur stdDeviation="5" result="effect2_foregroundBlur_1_8"/>
</filter>
<filter id="filter3_df_1_8" x="326.698" y="106" width="191.452" height="81.7593" filterUnits="userSpaceOnUse" color-interpolation-filters="sRGB">
<feFlood flood-opacity="0" result="BackgroundImageFix"/>
<feColorMatrix in="SourceAlpha" type="matrix" values="0 0 0 0 0 0 0 0 0 0 0 0 0 0 0 0 0 0 127 0" result="hardAlpha"/>
<feOffset dy="5"/>
<feGaussianBlur stdDeviation="2"/>
<feComposite in2="hardAlpha" operator="out"/>
<feColorMatrix type="matrix" values="0 0 0 0 1 0 0 0 0 1 0 0 0 0 1 0 0 0 1 0"/>
<feBlend mode="normal" in2="BackgroundImageFix" result="effect1_dropShadow_1_8"/>
<feBlend mode="normal" in="SourceGraphic" in2="effect1_dropShadow_1_8" result="shape"/>
<feGaussianBlur stdDeviation="5" result="effect2_foregroundBlur_1_8"/>
</filter>
<filter id="filter4_f_1_8" x="511" y="176" width="35.1085" height="48.642" filterUnits="userSpaceOnUse" color-interpolation-filters="sRGB">
<feFlood flood-opacity="0" result="BackgroundImageFix"/>
<feBlend mode="normal" in="SourceGraphic" in2="BackgroundImageFix" result="shape"/>
<feGaussianBlur stdDeviation="3.5" result="effect1_foregroundBlur_1_8"/>
</filter>
<filter id="filter5_f_1_8" x="463.634" y="174.659" width="36.6856" height="34.6505" filterUnits="userSpaceOnUse" color-interpolation-filters="sRGB">
<feFlood flood-opacity="0" result="BackgroundImageFix"/>
<feBlend mode="normal" in="SourceGraphic" in2="BackgroundImageFix" result="shape"/>
<feGaussianBlur stdDeviation="4" result="effect1_foregroundBlur_1_8"/>
</filter>
<filter id="filter6_f_1_8" x="499.032" y="215.126" width="33.8003" height="32.7474" filterUnits="userSpaceOnUse" color-interpolation-filters="sRGB">
<feFlood flood-opacity="0" result="BackgroundImageFix"/>
<feBlend mode="normal" in="SourceGraphic" in2="BackgroundImageFix" result="shape"/>
<feGaussianBlur stdDeviation="6" result="effect1_foregroundBlur_1_8"/>
</filter>
<filter id="filter7_f_1_8" x="187.785" y="489.301" width="238.707" height="77.1987" filterUnits="userSpaceOnUse" color-interpolation-filters="sRGB">
<feFlood flood-opacity="0" result="BackgroundImageFix"/>
<feBlend mode="normal" in="SourceGraphic" in2="BackgroundImageFix" result="shape"/>
<feGaussianBlur stdDeviation="7.5" result="effect1_foregroundBlur_1_8"/>
</filter>
<filter id="filter8_f_1_8" x="115.384" y="468.014" width="24.7316" height="17.4728" filterUnits="userSpaceOnUse" color-interpolation-filters="sRGB">
<feFlood flood-opacity="0" result="BackgroundImageFix"/>
<feBlend mode="normal" in="SourceGraphic" in2="BackgroundImageFix" result="shape"/>
<feGaussianBlur stdDeviation="3.5" result="effect1_foregroundBlur_1_8"/>
</filter>
<filter id="filter9_f_1_8" x="117.646" y="455.146" width="17.2072" height="17.2071" filterUnits="userSpaceOnUse" color-interpolation-filters="sRGB">
<feFlood flood-opacity="0" result="BackgroundImageFix"/>
<feBlend mode="normal" in="SourceGraphic" in2="BackgroundImageFix" result="shape"/>
<feGaussianBlur stdDeviation="3" result="effect1_foregroundBlur_1_8"/>
</filter>
<filter id="filter10_f_1_8" x="138.675" y="363.184" width="38.6691" height="92.8531" filterUnits="userSpaceOnUse" color-interpolation-filters="sRGB">
<feFlood flood-opacity="0" result="BackgroundImageFix"/>
<feBlend mode="normal" in="SourceGraphic" in2="BackgroundImageFix" result="shape"/>
<feGaussianBlur stdDeviation="5" result="effect1_foregroundBlur_1_8"/>
</filter>
<filter id="filter11_f_1_8" x="120.091" y="436.212" width="20.817" height="23.0767" filterUnits="userSpaceOnUse" color-interpolation-filters="sRGB">
<feFlood flood-opacity="0" result="BackgroundImageFix"/>
<feBlend mode="normal" in="SourceGraphic" in2="BackgroundImageFix" result="shape"/>
<feGaussianBlur stdDeviation="3.5" result="effect1_foregroundBlur_1_8"/>
</filter>
<filter id="filter12_f_1_8" x="134" y="396.571" width="17.7867" height="24.8384" filterUnits="userSpaceOnUse" color-interpolation-filters="sRGB">
<feFlood flood-opacity="0" result="BackgroundImageFix"/>
<feBlend mode="normal" in="SourceGraphic" in2="BackgroundImageFix" result="shape"/>
<feGaussianBlur stdDeviation="3" result="effect1_foregroundBlur_1_8"/>
</filter>
<filter id="filter13_f_1_8" x="135.5" y="385" width="16" height="14" filterUnits="userSpaceOnUse" color-interpolation-filters="sRGB">
<feFlood flood-opacity="0" result="BackgroundImageFix"/>
<feBlend mode="normal" in="SourceGraphic" in2="BackgroundImageFix" result="shape"/>
<feGaussianBlur stdDeviation="2.5" result="effect1_foregroundBlur_1_8"/>
</filter>
<filter id="filter14_f_1_8" x="137" y="370" width="17" height="20" filterUnits="userSpaceOnUse" color-interpolation-filters="sRGB">
<feFlood flood-opacity="0" result="BackgroundImageFix"/>
<feBlend mode="normal" in="SourceGraphic" in2="BackgroundImageFix" result="shape"/>
<feGaussianBlur stdDeviation="4" result="effect1_foregroundBlur_1_8"/>
</filter>
<filter id="filter15_f_1_8" x="143.005" y="326.432" width="22.4907" height="43.636" filterUnits="userSpaceOnUse" color-interpolation-filters="sRGB">
<feFlood flood-opacity="0" result="BackgroundImageFix"/>
<feBlend mode="normal" in="SourceGraphic" in2="BackgroundImageFix" result="shape"/>
<feGaussianBlur stdDeviation="4.5" result="effect1_foregroundBlur_1_8"/>
</filter>
<filter id="filter16_f_1_8" x="156.563" y="314.5" width="17.4371" height="22.2428" filterUnits="userSpaceOnUse" color-interpolation-filters="sRGB">
<feFlood flood-opacity="0" result="BackgroundImageFix"/>
<feBlend mode="normal" in="SourceGraphic" in2="BackgroundImageFix" result="shape"/>
<feGaussianBlur stdDeviation="3" result="effect1_foregroundBlur_1_8"/>
</filter>
<filter id="filter17_f_1_8" x="134.811" y="439.037" width="31.8773" height="24.4261" filterUnits="userSpaceOnUse" color-interpolation-filters="sRGB">
<feFlood flood-opacity="0" result="BackgroundImageFix"/>
<feBlend mode="normal" in="SourceGraphic" in2="BackgroundImageFix" result="shape"/>
<feGaussianBlur stdDeviation="4.5" result="effect1_foregroundBlur_1_8"/>
</filter>
<filter id="filter18_f_1_8" x="142.586" y="423.501" width="65.9022" height="85.6281" filterUnits="userSpaceOnUse" color-interpolation-filters="sRGB">
<feFlood flood-opacity="0" result="BackgroundImageFix"/>
<feBlend mode="normal" in="SourceGraphic" in2="BackgroundImageFix" result="shape"/>
<feGaussianBlur stdDeviation="9.5" result="effect1_foregroundBlur_1_8"/>
</filter>
<filter id="filter19_f_1_8" x="205.883" y="533.014" width="62.9703" height="21.8398" filterUnits="userSpaceOnUse" color-interpolation-filters="sRGB">
<feFlood flood-opacity="0" result="BackgroundImageFix"/>
<feBlend mode="normal" in="SourceGraphic" in2="BackgroundImageFix" result="shape"/>
<feGaussianBlur stdDeviation="3" result="effect1_foregroundBlur_1_8"/>
</filter>
<filter id="filter20_f_1_8" x="155.299" y="519.881" width="45.2457" height="24.6606" filterUnits="userSpaceOnUse" color-interpolation-filters="sRGB">
<feFlood flood-opacity="0" result="BackgroundImageFix"/>
<feBlend mode="normal" in="SourceGraphic" in2="BackgroundImageFix" result="shape"/>
<feGaussianBlur stdDeviation="3.5" result="effect1_foregroundBlur_1_8"/>
</filter>
<filter id="filter21_f_1_8" x="122.505" y="498.025" width="33.097" height="26.1526" filterUnits="userSpaceOnUse" color-interpolation-filters="sRGB">
<feFlood flood-opacity="0" result="BackgroundImageFix"/>
<feBlend mode="normal" in="SourceGraphic" in2="BackgroundImageFix" result="shape"/>
<feGaussianBlur stdDeviation="3.5" result="effect1_foregroundBlur_1_8"/>
</filter>
<filter id="filter22_f_1_8" x="332.5" y="546.917" width="64.748" height="26.9653" filterUnits="userSpaceOnUse" color-interpolation-filters="sRGB">
<feFlood flood-opacity="0" result="BackgroundImageFix"/>
<feBlend mode="normal" in="SourceGraphic" in2="BackgroundImageFix" result="shape"/>
<feGaussianBlur stdDeviation="3" result="effect1_foregroundBlur_1_8"/>
</filter>
<filter id="filter23_f_1_8" x="123.924" y="414.5" width="39.076" height="33" filterUnits="userSpaceOnUse" color-interpolation-filters="sRGB">
<feFlood flood-opacity="0" result="BackgroundImageFix"/>
<feBlend mode="normal" in="SourceGraphic" in2="BackgroundImageFix" result="shape"/>
<feGaussianBlur stdDeviation="5" result="effect1_foregroundBlur_1_8"/>
</filter>
<filter id="filter24_f_1_8" x="531.5" y="230.6" width="75.0598" height="80.6953" filterUnits="userSpaceOnUse" color-interpolation-filters="sRGB">
<feFlood flood-opacity="0" result="BackgroundImageFix"/>
<feBlend mode="normal" in="SourceGraphic" in2="BackgroundImageFix" result="shape"/>
<feGaussianBlur stdDeviation="9.5" result="effect1_foregroundBlur_1_8"/>
</filter>
<filter id="filter25_f_1_8" x="552.044" y="298.287" width="35.0642" height="39.3443" filterUnits="userSpaceOnUse" color-interpolation-filters="sRGB">
<feFlood flood-opacity="0" result="BackgroundImageFix"/>
<feBlend mode="normal" in="SourceGraphic" in2="BackgroundImageFix" result="shape"/>
<feGaussianBlur stdDeviation="3.5" result="effect1_foregroundBlur_1_8"/>
</filter>
<filter id="filter26_f_1_8" x="547.5" y="297.5" width="28" height="25" filterUnits="userSpaceOnUse" color-interpolation-filters="sRGB">
<feFlood flood-opacity="0" result="BackgroundImageFix"/>
<feBlend mode="normal" in="SourceGraphic" in2="BackgroundImageFix" result="shape"/>
<feGaussianBlur stdDeviation="4" result="effect1_foregroundBlur_1_8"/>
</filter>
<filter id="filter27_f_1_8" x="510.206" y="324.096" width="66.9827" height="79.9943" filterUnits="userSpaceOnUse" color-interpolation-filters="sRGB">
<feFlood flood-opacity="0" result="BackgroundImageFix"/>
<feBlend mode="normal" in="SourceGraphic" in2="BackgroundImageFix" result="shape"/>
<feGaussianBlur stdDeviation="5.5" result="effect1_foregroundBlur_1_8"/>
</filter>
<filter id="filter28_f_1_8" x="492.404" y="414.668" width="34.2882" height="42.2937" filterUnits="userSpaceOnUse" color-interpolation-filters="sRGB">
<feFlood flood-opacity="0" result="BackgroundImageFix"/>
<feBlend mode="normal" in="SourceGraphic" in2="BackgroundImageFix" result="shape"/>
<feGaussianBlur stdDeviation="6.5" result="effect1_foregroundBlur_1_8"/>
</filter>
<filter id="filter29_f_1_8" x="495.5" y="400.902" width="26.5" height="30.6961" filterUnits="userSpaceOnUse" color-interpolation-filters="sRGB">
<feFlood flood-opacity="0" result="BackgroundImageFix"/>
<feBlend mode="normal" in="SourceGraphic" in2="BackgroundImageFix" result="shape"/>
<feGaussianBlur stdDeviation="4.5" result="effect1_foregroundBlur_1_8"/>
</filter>
<filter id="filter30_f_1_8" x="514.291" y="267.546" width="21.5195" height="21.2794" filterUnits="userSpaceOnUse" color-interpolation-filters="sRGB">
<feFlood flood-opacity="0" result="BackgroundImageFix"/>
<feBlend mode="normal" in="SourceGraphic" in2="BackgroundImageFix" result="shape"/>
<feGaussianBlur stdDeviation="3.5" result="effect1_foregroundBlur_1_8"/>
</filter>
<filter id="filter31_f_1_8" x="485.482" y="463.633" width="30.3566" height="32.4722" filterUnits="userSpaceOnUse" color-interpolation-filters="sRGB">
<feFlood flood-opacity="0" result="BackgroundImageFix"/>
<feBlend mode="normal" in="SourceGraphic" in2="BackgroundImageFix" result="shape"/>
<feGaussianBlur stdDeviation="2.5" result="effect1_foregroundBlur_1_8"/>
</filter>
<filter id="filter32_f_1_8" x="425.092" y="440.301" width="72.2357" height="91.3923" filterUnits="userSpaceOnUse" color-interpolation-filters="sRGB">
<feFlood flood-opacity="0" result="BackgroundImageFix"/>
<feBlend mode="normal" in="SourceGraphic" in2="BackgroundImageFix" result="shape"/>
<feGaussianBlur stdDeviation="5.5" result="effect1_foregroundBlur_1_8"/>
</filter>
<filter id="filter33_f_1_8" x="520.379" y="404.195" width="42.5724" height="50.0874" filterUnits="userSpaceOnUse" color-interpolation-filters="sRGB">
<feFlood flood-opacity="0" result="BackgroundImageFix"/>
<feBlend mode="normal" in="SourceGraphic" in2="BackgroundImageFix" result="shape"/>
<feGaussianBlur stdDeviation="4.5" result="effect1_foregroundBlur_1_8"/>
</filter>
<filter id="filter34_di_1_8" x="196.476" y="194.936" width="279.112" height="284.822" filterUnits="userSpaceOnUse" color-interpolation-filters="sRGB">
<feFlood flood-opacity="0" result="BackgroundImageFix"/>
<feColorMatrix in="SourceAlpha" type="matrix" values="0 0 0 0 0 0 0 0 0 0 0 0 0 0 0 0 0 0 127 0" result="hardAlpha"/>
<feOffset dy="4"/>
<feGaussianBlur stdDeviation="16.5"/>
<feComposite in2="hardAlpha" operator="out"/>
<feColorMatrix type="matrix" values="0 0 0 0 1 0 0 0 0 0.802162 0 0 0 0 0.495833 0 0 0 1 0"/>
<feBlend mode="normal" in2="BackgroundImageFix" result="effect1_dropShadow_1_8"/>
<feBlend mode="normal" in="SourceGraphic" in2="effect1_dropShadow_1_8" result="shape"/>
<feColorMatrix in="SourceAlpha" type="matrix" values="0 0 0 0 0 0 0 0 0 0 0 0 0 0 0 0 0 0 127 0" result="hardAlpha"/>
<feOffset dy="5"/>
<feGaussianBlur stdDeviation="9"/>
<feComposite in2="hardAlpha" operator="arithmetic" k2="-1" k3="1"/>
<feColorMatrix type="matrix" values="0 0 0 0 0.996078 0 0 0 0 0.657569 0 0 0 0 0.345098 0 0 0 0.5 0"/>
<feBlend mode="normal" in2="shape" result="effect2_innerShadow_1_8"/>
</filter>
<filter id="filter35_f_1_8" x="401.982" y="376.922" width="41.4122" height="44.9926" filterUnits="userSpaceOnUse" color-interpolation-filters="sRGB">
<feFlood flood-opacity="0" result="BackgroundImageFix"/>
<feBlend mode="normal" in="SourceGraphic" in2="BackgroundImageFix" result="shape"/>
<feGaussianBlur stdDeviation="5.5" result="effect1_foregroundBlur_1_8"/>
</filter>
<filter id="filter36_df_1_8" x="213.006" y="277.864" width="201.165" height="184.774" filterUnits="userSpaceOnUse" color-interpolation-filters="sRGB">
<feFlood flood-opacity="0" result="BackgroundImageFix"/>
<feColorMatrix in="SourceAlpha" type="matrix" values="0 0 0 0 0 0 0 0 0 0 0 0 0 0 0 0 0 0 127 0" result="hardAlpha"/>
<feOffset dx="6" dy="-3"/>
<feGaussianBlur stdDeviation="15"/>
<feComposite in2="hardAlpha" operator="out"/>
<feColorMatrix type="matrix" values="0 0 0 0 0.803922 0 0 0 0 0.372549 0 0 0 0 0 0 0 0 1 0"/>
<feBlend mode="normal" in2="BackgroundImageFix" result="effect1_dropShadow_1_8"/>
<feBlend mode="normal" in="SourceGraphic" in2="effect1_dropShadow_1_8" result="shape"/>
<feGaussianBlur stdDeviation="8" result="effect2_foregroundBlur_1_8"/>
</filter>
<filter id="filter37_iif_1_8" x="247.5" y="229.696" width="179.442" height="83.3041" filterUnits="userSpaceOnUse" color-interpolation-filters="sRGB">
<feFlood flood-opacity="0" result="BackgroundImageFix"/>
<feBlend mode="normal" in="SourceGraphic" in2="BackgroundImageFix" result="shape"/>
<feColorMatrix in="SourceAlpha" type="matrix" values="0 0 0 0 0 0 0 0 0 0 0 0 0 0 0 0 0 0 127 0" result="hardAlpha"/>
<feOffset dy="-1"/>
<feGaussianBlur stdDeviation="3.5"/>
<feComposite in2="hardAlpha" operator="arithmetic" k2="-1" k3="1"/>
<feColorMatrix type="matrix" values="0 0 0 0 1 0 0 0 0 1 0 0 0 0 1 0 0 0 0.3 0"/>
<feBlend mode="normal" in2="shape" result="effect1_innerShadow_1_8"/>
<feColorMatrix in="SourceAlpha" type="matrix" values="0 0 0 0 0 0 0 0 0 0 0 0 0 0 0 0 0 0 127 0" result="hardAlpha"/>
<feOffset/>
<feGaussianBlur stdDeviation="6.5"/>
<feComposite in2="hardAlpha" operator="arithmetic" k2="-1" k3="1"/>
<feColorMatrix type="matrix" values="0 0 0 0 1 0 0 0 0 1 0 0 0 0 1 0 0 0 0.05 0"/>
<feBlend mode="normal" in2="effect1_innerShadow_1_8" result="effect2_innerShadow_1_8"/>
<feGaussianBlur stdDeviation="4.5" result="effect3_foregroundBlur_1_8"/>
</filter>
<filter id="filter38_iif_1_8" x="254.5" y="236.696" width="165.442" height="69.3041" filterUnits="userSpaceOnUse" color-interpolation-filters="sRGB">
<feFlood flood-opacity="0" result="BackgroundImageFix"/>
<feBlend mode="normal" in="SourceGraphic" in2="BackgroundImageFix" result="shape"/>
<feColorMatrix in="SourceAlpha" type="matrix" values="0 0 0 0 0 0 0 0 0 0 0 0 0 0 0 0 0 0 127 0" result="hardAlpha"/>
<feOffset dy="-1"/>
<feGaussianBlur stdDeviation="3.5"/>
<feComposite in2="hardAlpha" operator="arithmetic" k2="-1" k3="1"/>
<feColorMatrix type="matrix" values="0 0 0 0 1 0 0 0 0 1 0 0 0 0 1 0 0 0 0.3 0"/>
<feBlend mode="normal" in2="shape" result="effect1_innerShadow_1_8"/>
<feColorMatrix in="SourceAlpha" type="matrix" values="0 0 0 0 0 0 0 0 0 0 0 0 0 0 0 0 0 0 127 0" result="hardAlpha"/>
<feOffset/>
<feGaussianBlur stdDeviation="6.5"/>
<feComposite in2="hardAlpha" operator="arithmetic" k2="-1" k3="1"/>
<feColorMatrix type="matrix" values="0 0 0 0 1 0 0 0 0 1 0 0 0 0 1 0 0 0 0.05 0"/>
<feBlend mode="normal" in2="effect1_innerShadow_1_8" result="effect2_innerShadow_1_8"/>
<feGaussianBlur stdDeviation="1" result="effect3_foregroundBlur_1_8"/>
</filter>
<filter id="filter39_iif_1_8" x="285" y="244.208" width="24" height="21.099" filterUnits="userSpaceOnUse" color-interpolation-filters="sRGB">
<feFlood flood-opacity="0" result="BackgroundImageFix"/>
<feBlend mode="normal" in="SourceGraphic" in2="BackgroundImageFix" result="shape"/>
<feColorMatrix in="SourceAlpha" type="matrix" values="0 0 0 0 0 0 0 0 0 0 0 0 0 0 0 0 0 0 127 0" result="hardAlpha"/>
<feOffset dy="-1"/>
<feGaussianBlur stdDeviation="3.5"/>
<feComposite in2="hardAlpha" operator="arithmetic" k2="-1" k3="1"/>
<feColorMatrix type="matrix" values="0 0 0 0 1 0 0 0 0 1 0 0 0 0 1 0 0 0 0.3 0"/>
<feBlend mode="normal" in2="shape" result="effect1_innerShadow_1_8"/>
<feColorMatrix in="SourceAlpha" type="matrix" values="0 0 0 0 0 0 0 0 0 0 0 0 0 0 0 0 0 0 127 0" result="hardAlpha"/>
<feOffset/>
<feGaussianBlur stdDeviation="6.5"/>
<feComposite in2="hardAlpha" operator="arithmetic" k2="-1" k3="1"/>
<feColorMatrix type="matrix" values="0 0 0 0 1 0 0 0 0 1 0 0 0 0 1 0 0 0 0.05 0"/>
<feBlend mode="normal" in2="effect1_innerShadow_1_8" result="effect2_innerShadow_1_8"/>
<feGaussianBlur stdDeviation="1" result="effect3_foregroundBlur_1_8"/>
</filter>
<filter id="filter40_iif_1_8" x="336.5" y="237.457" width="16" height="23.7539" filterUnits="userSpaceOnUse" color-interpolation-filters="sRGB">
<feFlood flood-opacity="0" result="BackgroundImageFix"/>
<feBlend mode="normal" in="SourceGraphic" in2="BackgroundImageFix" result="shape"/>
<feColorMatrix in="SourceAlpha" type="matrix" values="0 0 0 0 0 0 0 0 0 0 0 0 0 0 0 0 0 0 127 0" result="hardAlpha"/>
<feOffset dy="-1"/>
<feGaussianBlur stdDeviation="3.5"/>
<feComposite in2="hardAlpha" operator="arithmetic" k2="-1" k3="1"/>
<feColorMatrix type="matrix" values="0 0 0 0 1 0 0 0 0 1 0 0 0 0 1 0 0 0 0.3 0"/>
<feBlend mode="normal" in2="shape" result="effect1_innerShadow_1_8"/>
<feColorMatrix in="SourceAlpha" type="matrix" values="0 0 0 0 0 0 0 0 0 0 0 0 0 0 0 0 0 0 127 0" result="hardAlpha"/>
<feOffset/>
<feGaussianBlur stdDeviation="6.5"/>
<feComposite in2="hardAlpha" operator="arithmetic" k2="-1" k3="1"/>
<feColorMatrix type="matrix" values="0 0 0 0 1 0 0 0 0 1 0 0 0 0 1 0 0 0 0.05 0"/>
<feBlend mode="normal" in2="effect1_innerShadow_1_8" result="effect2_innerShadow_1_8"/>
<feGaussianBlur stdDeviation="1" result="effect3_foregroundBlur_1_8"/>
</filter>
<filter id="filter41_f_1_8" x="258" y="343" width="40" height="40" filterUnits="userSpaceOnUse" color-interpolation-filters="sRGB">
<feFlood flood-opacity="0" result="BackgroundImageFix"/>
<feBlend mode="normal" in="SourceGraphic" in2="BackgroundImageFix" result="shape"/>
<feGaussianBlur stdDeviation="8" result="effect1_foregroundBlur_1_8"/>
</filter>
<filter id="filter42_f_1_8" x="248.5" y="225.969" width="181.37" height="78.5392" filterUnits="userSpaceOnUse" color-interpolation-filters="sRGB">
<feFlood flood-opacity="0" result="BackgroundImageFix"/>
<feBlend mode="normal" in="SourceGraphic" in2="BackgroundImageFix" result="shape"/>
<feGaussianBlur stdDeviation="2" result="effect1_foregroundBlur_1_8"/>
</filter>
<radialGradient id="paint0_radial_1_8" cx="0" cy="0" r="1" gradientUnits="userSpaceOnUse" gradientTransform="translate(379.5 112) rotate(102.437) scale(543.249 549.375)">
<stop stop-color="#FEFEFC"/>
<stop offset="0.686952" stop-color="#FEFEFC" stop-opacity="0"/>
</radialGradient>
<radialGradient id="paint1_radial_1_8" cx="0" cy="0" r="1" gradientUnits="userSpaceOnUse" gradientTransform="translate(354.5 214) rotate(96.6377) scale(255.211 248.552)">
<stop stop-color="#FFB612"/>
<stop offset="0.0001" stop-color="#FFE386"/>
<stop offset="0.395172" stop-color="#FFDB1C"/>
<stop offset="0.723958" stop-color="#EA9D29"/>
<stop offset="1" stop-color="#C11B1B"/>
</radialGradient>
<radialGradient id="paint2_radial_1_8" cx="0" cy="0" r="1" gradientUnits="userSpaceOnUse" gradientTransform="translate(336 333) rotate(96.2258) scale(138.316 134.707)">
<stop stop-color="#FF9D00"/>
<stop offset="0.739583" stop-color="#EAA032"/>
<stop offset="1" stop-color="#FF7A00"/>
</radialGradient>
<radialGradient id="paint3_radial_1_8" cx="0" cy="0" r="1" gradientUnits="userSpaceOnUse" gradientTransform="translate(336 344) rotate(90) scale(146 142.191)">
<stop stop-color="#FF6421" stop-opacity="0.41"/>
<stop offset="1" stop-color="#FB3E14" stop-opacity="0"/>
</radialGradient>
<radialGradient id="paint4_radial_1_8" cx="0" cy="0" r="1" gradientUnits="userSpaceOnUse" gradientTransform="translate(337 239) rotate(90) scale(65 160.69)">
<stop stop-color="#FFE49F" stop-opacity="0.82"/>
<stop offset="1" stop-color="#FFE8A7" stop-opacity="0"/>
</radialGradient>
<radialGradient id="paint5_radial_1_8" cx="0" cy="0" r="1" gradientUnits="userSpaceOnUse" gradientTransform="translate(337 239) rotate(90) scale(65 160.69)">
<stop stop-color="#FFE49F" stop-opacity="0.82"/>
<stop offset="1" stop-color="#FFE8A7" stop-opacity="0"/>
</radialGradient>
<radialGradient id="paint6_radial_1_8" cx="0" cy="0" r="1" gradientUnits="userSpaceOnUse" gradientTransform="translate(337 239) rotate(90) scale(65 160.69)">
<stop stop-color="#FFE8AC"/>
<stop offset="1" stop-color="#FFE8A7" stop-opacity="0.74"/>
</radialGradient>
<radialGradient id="paint7_radial_1_8" cx="0" cy="0" r="1" gradientUnits="userSpaceOnUse" gradientTransform="translate(337 239) rotate(90) scale(65 160.69)">
<stop stop-color="#FFE8AC"/>
<stop offset="1" stop-color="#FFE8A7" stop-opacity="0.74"/>
</radialGradient>
<clipPath id="clip0_1_8">
<rect width="700" height="700" rx="189" fill="white"/>
</clipPath>
</defs>
</svg>
