<svg width="1199" height="605" viewBox="0 0 1199 605" fill="none" xmlns="http://www.w3.org/2000/svg">
<path d="M179.208 89.5516C179.208 138.959 139.155 179.011 89.7484 179.011C40.3414 179.011 0.289062 138.959 0.289062 89.5516C0.289062 40.1446 40.3414 0.0923057 89.7484 0.0923057C139.155 0.0923057 179.208 40.1446 179.208 89.5516Z" fill="#6C96C7"/>
<path d="M683.021 89.5516C683.021 138.959 514.066 179.011 464.659 179.011C415.252 179.011 375.199 138.959 375.199 89.5516C375.199 40.1446 415.252 0.0922852 464.659 0.0922852C514.066 0.0922852 683.021 40.1446 683.021 89.5516Z" fill="#6C96C7"/>
<path d="M1198.33 89.5518C1198.33 138.959 925.043 179.011 875.636 179.011C826.229 179.011 786.177 138.959 786.177 89.5518C786.177 40.1448 826.229 0.0924988 875.636 0.0924988C925.043 0.0924988 1198.33 40.1448 1198.33 89.5518Z" fill="#6C96C7"/>
<path d="M179.208 512.273C179.208 561.68 139.155 601.732 89.7484 601.732C40.3414 601.732 0.289062 561.68 0.289062 512.273C0.289062 462.866 40.3414 422.813 89.7484 422.813C112.628 422.813 191.587 432.142 245.998 462.905C272.568 477.928 179.208 502.069 179.208 512.273Z" fill="#6C96C7"/>
<path d="M1198.33 512.273C1198.33 561.68 925.043 601.732 875.636 601.732C826.229 601.732 786.177 561.68 786.177 512.273C786.177 462.866 826.229 422.814 875.636 422.814C898.516 422.814 1003.13 448.969 1054.4 462.905C1094.07 473.689 1198.33 462.866 1198.33 512.273Z" fill="#6C96C7"/>
<path d="M683.021 514.615C683.021 564.022 514.066 604.074 464.659 604.074C415.252 604.074 375.2 564.022 375.2 514.615C375.2 465.208 415.252 425.156 464.659 425.156C494.801 425.156 569.435 440.062 623.058 462.905C657.332 477.506 683.021 495.349 683.021 514.615Z" fill="#6C96C7"/>
<path d="M683.021 514.615C683.021 564.022 514.066 604.074 464.659 604.074C415.252 604.074 375.2 564.022 375.2 514.615C375.2 465.208 415.252 425.156 464.659 425.156C494.801 425.156 569.435 440.062 623.058 462.905C657.332 477.506 683.021 495.349 683.021 514.615Z" fill="#6C96C7"/>
<path d="M683.021 514.615C683.021 564.022 514.066 604.074 464.659 604.074C415.252 604.074 375.2 564.022 375.2 514.615C375.2 465.208 415.252 425.156 464.659 425.156C494.801 425.156 569.435 440.062 623.058 462.905C657.332 477.506 683.021 495.349 683.021 514.615Z" fill="#6C96C7"/>
<path d="M683.021 514.615C683.021 564.022 514.066 604.074 464.659 604.074C415.252 604.074 375.2 564.022 375.2 514.615C375.2 465.208 415.252 425.156 464.659 425.156C494.801 425.156 569.435 440.062 623.058 462.905C657.332 477.506 683.021 495.349 683.021 514.615Z" fill="#6C96C7"/>
</svg>
