<svg width="248" height="148" viewBox="0 0 248 148" fill="none" xmlns="http://www.w3.org/2000/svg">
<path fill-rule="evenodd" clip-rule="evenodd" d="M93.9205 6.30981L103.1 32.9096H132.804L120.578 41.2733C128.634 42.023 135.574 48.0811 139.386 56.8022C148.816 37.3072 167.719 24.0001 189.5 24.0001C220.704 24.0001 246 51.3107 246 85.0001C246 118.689 220.704 146 189.5 146C161.836 146 138.816 124.535 133.949 96.1892C129.859 100.642 124.61 103.319 118.885 103.319C116.106 103.319 113.439 102.688 110.962 101.529C110.024 107.164 106.248 111.702 101.652 114.749C96.2925 118.302 89.2275 120.31 81.717 120.31C79.071 120.31 76.4803 120.061 74 119.583V113.615C76.4184 114.168 79.0147 114.469 81.717 114.469C94.7666 114.469 105.345 107.456 105.345 98.8054C105.345 98.4197 105.324 98.0373 105.283 97.6586C102.466 95.0467 100.102 91.6453 98.3791 87.6993C94.1069 84.8825 88.2186 83.1417 81.717 83.1417C79.0147 83.1417 76.4184 83.4424 74 83.9961V78.0282C76.4803 77.5501 79.071 77.301 81.717 77.301C86.8074 77.301 91.6932 78.2231 95.9821 79.9237C95.5085 77.4714 95.2568 74.9027 95.2568 72.2567C95.2568 68.4497 95.7778 64.8027 96.7311 61.4321L93.9205 59.5094L74 73.1366V71.0001H71.5967L79.0681 49.3492L55.0366 32.9096H84.7412L93.9205 6.30981ZM71.5967 71.0001H2V143H74V119.583C69.4401 118.704 65.2534 117.051 61.7821 114.749C56.4664 111.226 52.248 105.707 52.248 98.8054C52.248 91.9041 56.4664 86.3851 61.7821 82.8613C65.2534 80.5601 69.4401 78.9072 74 78.0282V73.1366L69.8889 75.949L71.5967 71.0001ZM74 83.9961C64.7398 86.1163 58.0887 91.9459 58.0887 98.8054C58.0887 105.665 64.7398 111.494 74 113.615V83.9961Z" fill="#E03B3B"/>
<path d="M103.1 32.9096L101.209 33.562L101.674 34.9096H103.1V32.9096ZM93.9205 6.30981L95.8111 5.65739L93.9205 0.178794L92.0299 5.65739L93.9205 6.30981ZM132.804 32.9096L133.934 34.5603L139.27 30.9096H132.804V32.9096ZM120.578 41.2733L119.449 39.6226L114.876 42.7511L120.393 43.2647L120.578 41.2733ZM139.386 56.8022L137.553 57.6033L139.294 61.5852L141.186 57.6731L139.386 56.8022ZM133.949 96.1892L135.92 95.8507L135.23 91.8363L132.475 94.8364L133.949 96.1892ZM110.962 101.529L111.81 99.7177L109.422 98.6008L108.989 101.201L110.962 101.529ZM101.652 114.749L102.757 116.416L102.757 116.416L101.652 114.749ZM105.283 97.6586L107.271 97.4416L107.19 96.6995L106.643 96.1919L105.283 97.6586ZM98.3791 87.6993L100.212 86.8989L99.9748 86.3558L99.4801 86.0296L98.3791 87.6993ZM95.9821 79.9237L95.2449 81.7829L98.6379 83.1282L97.9458 79.5444L95.9821 79.9237ZM96.7311 61.4321L98.6556 61.9764L99.0469 60.5931L97.8604 59.7814L96.7311 61.4321ZM93.9205 59.5094L95.0497 57.8587L93.9205 57.0862L92.7912 57.8587L93.9205 59.5094ZM74 71.0001H76V69.0001H74V71.0001ZM79.0681 49.3492L80.9587 50.0016L81.4563 48.5597L80.1974 47.6985L79.0681 49.3492ZM55.0366 32.9096V30.9096H48.5707L53.9073 34.5603L55.0366 32.9096ZM84.7412 32.9096V34.9096H86.1668L86.6318 33.562L84.7412 32.9096ZM2 71.0001V69.0001H0V71.0001H2ZM2 143H0V145H2V143ZM74 143V145H76V143H74ZM61.7821 114.749L60.677 116.416L60.677 116.416L61.7821 114.749ZM61.7821 82.8613L62.8871 84.5283L62.8871 84.5283L61.7821 82.8613ZM69.8889 75.949L67.9983 75.2965L66.0247 81.0156L71.0181 77.5997L69.8889 75.949ZM104.99 32.2572L95.8111 5.65739L92.0299 6.96223L101.209 33.562L104.99 32.2572ZM132.804 30.9096H103.1V34.9096H132.804V30.9096ZM121.707 42.924L133.934 34.5603L131.675 31.2589L119.449 39.6226L121.707 42.924ZM141.219 56.0011C137.209 46.8295 129.752 40.1185 120.764 39.2819L120.393 43.2647C127.515 43.9276 133.938 49.3326 137.553 57.6033L141.219 56.0011ZM189.5 22.0001C166.863 22.0001 147.309 35.8295 137.586 55.9314L141.186 57.6731C150.323 38.785 168.574 26.0001 189.5 26.0001V22.0001ZM248 85.0001C248 50.3532 221.95 22.0001 189.5 22.0001V26.0001C219.458 26.0001 244 52.2682 244 85.0001H248ZM189.5 148C221.95 148 248 119.647 248 85.0001H244C244 117.732 219.458 144 189.5 144V148ZM131.977 96.5276C136.987 125.705 160.738 148 189.5 148V144C162.934 144 140.644 123.364 135.92 95.8507L131.977 96.5276ZM118.885 105.319C125.27 105.319 131.027 102.328 135.422 97.5419L132.475 94.8364C128.692 98.9568 123.95 101.319 118.885 101.319V105.319ZM110.115 103.341C112.842 104.617 115.797 105.319 118.885 105.319V101.319C116.415 101.319 114.036 100.759 111.81 99.7177L110.115 103.341ZM102.757 116.416C107.661 113.166 111.88 108.199 112.935 101.858L108.989 101.201C108.169 106.128 104.836 110.239 100.547 113.082L102.757 116.416ZM81.717 122.31C89.5647 122.31 97.0263 120.216 102.757 116.416L100.547 113.082C95.5587 116.389 88.8902 118.31 81.717 118.31V122.31ZM73.6214 121.546C76.2285 122.049 78.946 122.31 81.717 122.31V118.31C79.196 118.31 76.7321 118.072 74.3786 117.619L73.6214 121.546ZM72 113.615V119.583H76V113.615H72ZM81.717 112.469C79.1622 112.469 76.7157 112.185 74.4464 111.665L73.5536 115.564C76.121 116.152 78.8672 116.469 81.717 116.469V112.469ZM103.345 98.8054C103.345 102.249 101.24 105.616 97.3197 108.214C93.4149 110.803 87.9043 112.469 81.717 112.469V116.469C88.5793 116.469 94.8829 114.629 99.5298 111.548C104.162 108.478 107.345 104.013 107.345 98.8054H103.345ZM103.295 97.8756C103.328 98.1825 103.345 98.4925 103.345 98.8054H107.345C107.345 98.3469 107.32 97.892 107.271 97.4416L103.295 97.8756ZM96.5463 88.4997C98.3673 92.6697 100.883 96.3063 103.923 99.1253L106.643 96.1919C104.049 93.7871 101.837 90.621 100.212 86.8989L96.5463 88.4997ZM81.717 85.1417C87.8821 85.1417 93.3757 86.7959 97.2782 89.369L99.4801 86.0296C94.8381 82.969 88.5552 81.1417 81.717 81.1417V85.1417ZM74.4464 85.9457C76.7157 85.4261 79.1622 85.1417 81.717 85.1417V81.1417C78.8672 81.1417 76.121 81.4587 73.5536 82.0466L74.4464 85.9457ZM72 78.0282V83.9961H76V78.0282H72ZM81.717 75.301C78.946 75.301 76.2285 75.5618 73.6214 76.0644L74.3786 79.9921C76.7321 79.5384 79.196 79.301 81.717 79.301V75.301ZM96.7192 78.0645C92.1816 76.2653 87.0441 75.301 81.717 75.301V79.301C86.5708 79.301 91.2049 80.181 95.2449 81.7829L96.7192 78.0645ZM93.2568 72.2567C93.2568 75.0293 93.5205 77.725 94.0184 80.3029L97.9458 79.5444C97.4965 77.2177 97.2568 74.776 97.2568 72.2567H93.2568ZM94.8066 60.8878C93.8026 64.4376 93.2568 68.2679 93.2568 72.2567H97.2568C97.2568 68.6316 97.753 65.1678 98.6556 61.9764L94.8066 60.8878ZM92.7912 61.1601L95.6019 63.0828L97.8604 59.7814L95.0497 57.8587L92.7912 61.1601ZM75.1292 74.7873L95.0497 61.1601L92.7912 57.8587L72.8708 71.4859L75.1292 74.7873ZM72 71.0001V73.1366H76V71.0001H72ZM71.5967 73.0001H74V69.0001H71.5967V73.0001ZM77.1776 48.6968L69.7061 70.3476L73.4873 71.6525L80.9587 50.0016L77.1776 48.6968ZM53.9073 34.5603L77.9389 50.9999L80.1974 47.6985L56.1658 31.2589L53.9073 34.5603ZM84.7412 30.9096H55.0366V34.9096H84.7412V30.9096ZM92.0299 5.65739L82.8506 32.2572L86.6318 33.562L95.8111 6.96223L92.0299 5.65739ZM2 73.0001H71.5967V69.0001H2V73.0001ZM4 143V71.0001H0V143H4ZM74 141H2V145H74V141ZM72 119.583V143H76V119.583H72ZM60.677 116.416C64.3936 118.88 68.8335 120.623 73.6214 121.546L74.3786 117.619C70.0468 116.784 66.1131 115.221 62.8871 113.082L60.677 116.416ZM50.248 98.8054C50.248 106.594 55.0109 112.66 60.677 116.416L62.8871 113.082C57.922 109.791 54.248 104.82 54.248 98.8054H50.248ZM60.677 81.1943C55.0109 84.9505 50.248 91.017 50.248 98.8054H54.248C54.248 92.7911 57.922 87.8198 62.8871 84.5283L60.677 81.1943ZM73.6214 76.0644C68.8335 76.9874 64.3936 78.7305 60.677 81.1943L62.8871 84.5283C66.1131 82.3897 70.0468 80.8271 74.3786 79.9921L73.6214 76.0644ZM72 73.1366V78.0282H76V73.1366H72ZM71.0181 77.5997L75.1292 74.7873L72.8708 71.4859L68.7597 74.2983L71.0181 77.5997ZM69.7061 70.3476L67.9983 75.2965L71.7795 76.6014L73.4873 71.6525L69.7061 70.3476ZM60.0887 98.8054C60.0887 93.3592 65.5241 87.9885 74.4464 85.9457L73.5536 82.0466C63.9555 84.2442 56.0887 90.5327 56.0887 98.8054H60.0887ZM74.4464 111.665C65.5241 109.622 60.0887 104.252 60.0887 98.8054H56.0887C56.0887 107.078 63.9555 113.367 73.5536 115.564L74.4464 111.665ZM72 83.9961V113.615H76V83.9961H72Z" fill="black"/>
</svg>
