<svg width="2028" height="1383" viewBox="0 0 2028 1383" fill="none" xmlns="http://www.w3.org/2000/svg">
<g filter="url(#filter0_d_1_137529)">
<path fill-rule="evenodd" clip-rule="evenodd" d="M480 50H1621V380.816H1818.72L1621 547.981V560H1606.78L1587.13 576.619L1675.59 893.434L1444 697.631L1212.41 893.434L1300.87 576.619L1281.22 560H885.165C885.717 571.646 886 583.492 886 595.5C886 764.223 830.036 901 761 901C759.325 901 757.659 900.92 756 900.76V453H480V50ZM480 453H50V1230H756V900.76C689.282 894.346 636 760.13 636 595.5C636 583.492 636.283 571.646 636.835 560H480V453Z" fill="#FF6161"/>
<path d="M1621 50H1671V0H1621V50ZM480 50V0H430V50H480ZM1621 380.816H1571V430.816H1621V380.816ZM1818.72 380.816L1851 418.998L1955.3 330.816H1818.72V380.816ZM1621 547.981L1588.72 509.799L1571 524.779V547.981H1621ZM1621 560V610H1671V560H1621ZM1606.78 560V510H1588.48L1574.5 521.818L1606.78 560ZM1587.13 576.619L1554.85 538.437L1530.34 559.156L1538.97 590.065L1587.13 576.619ZM1675.59 893.434L1643.31 931.616L1767.47 1036.6L1723.75 879.988L1675.59 893.434ZM1444 697.631L1476.28 659.449L1444 632.155L1411.72 659.449L1444 697.631ZM1212.41 893.434L1164.25 879.988L1120.53 1036.6L1244.69 931.616L1212.41 893.434ZM1300.87 576.619L1349.03 590.065L1357.66 559.156L1333.15 538.437L1300.87 576.619ZM1281.22 560L1313.5 521.818L1299.52 510H1281.22V560ZM885.165 560V510H832.742L835.221 562.365L885.165 560ZM756 453H806V403H756V453ZM50 453V403H0V453H50ZM50 1230H0V1280H50V1230ZM756 1230V1280H806V1230H756ZM636.835 560L686.779 562.365L689.258 510H636.835V560ZM480 560H430V610H480V560ZM1621 0H480V100H1621V0ZM1671 380.816V50H1571V380.816H1671ZM1818.72 330.816H1621V430.816H1818.72V330.816ZM1653.28 586.163L1851 418.998L1786.43 342.634L1588.72 509.799L1653.28 586.163ZM1671 560V547.981H1571V560H1671ZM1606.78 610H1621V510H1606.78V610ZM1619.41 614.801L1639.07 598.182L1574.5 521.818L1554.85 538.437L1619.41 614.801ZM1723.75 879.988L1635.29 563.172L1538.97 590.065L1627.43 906.881L1723.75 879.988ZM1411.72 735.813L1643.31 931.616L1707.87 855.252L1476.28 659.449L1411.72 735.813ZM1244.69 931.616L1476.28 735.813L1411.72 659.449L1180.13 855.252L1244.69 931.616ZM1252.71 563.172L1164.25 879.988L1260.57 906.881L1349.03 590.065L1252.71 563.172ZM1248.93 598.182L1268.59 614.801L1333.15 538.437L1313.5 521.818L1248.93 598.182ZM885.165 610H1281.22V510H885.165V610ZM936 595.5C936 582.706 935.698 570.072 935.109 557.635L835.221 562.365C835.735 573.221 836 584.278 836 595.5H936ZM761 951C796.012 951 824.608 933.448 845.592 911.757C866.433 890.213 882.898 861.657 895.664 830.456C921.297 767.809 936 684.714 936 595.5H836C836 675.009 822.721 744.664 803.112 792.587C793.258 816.67 782.787 832.854 773.719 842.228C769.325 846.77 765.927 849.024 763.827 850.074C761.917 851.029 761.103 851 761 851V951ZM751.214 950.531C754.458 950.842 757.722 951 761 951V851C760.929 851 760.859 850.997 760.786 850.99L751.214 950.531ZM706 453V900.76H806V453H706ZM480 503H756V403H480V503ZM430 50V453H530V50H430ZM50 503H480V403H50V503ZM100 1230V453H0V1230H100ZM756 1180H50V1280H756V1180ZM706 900.76V1230H806V900.76H706ZM586 595.5C586 682.6 600.012 763.782 624.466 825.802C636.658 856.723 652.275 884.996 671.854 906.862C691.369 928.657 717.924 947.33 751.215 950.531L760.785 850.99C760.717 850.983 755.593 850.474 746.353 840.155C737.177 829.907 726.964 813.133 717.496 789.121C698.629 741.271 686 673.031 686 595.5H586ZM586.891 557.635C586.302 570.072 586 582.706 586 595.5H686C686 584.278 686.265 573.221 686.779 562.365L586.891 557.635ZM480 610H636.835V510H480V610ZM430 453V560H530V453H430Z" fill="#404040"/>
</g>
<defs>
<filter id="filter0_d_1_137529" x="0" y="0" width="2027.3" height="1383" filterUnits="userSpaceOnUse" color-interpolation-filters="sRGB">
<feFlood flood-opacity="0" result="BackgroundImageFix"/>
<feColorMatrix in="SourceAlpha" type="matrix" values="0 0 0 0 0 0 0 0 0 0 0 0 0 0 0 0 0 0 127 0" result="hardAlpha"/>
<feOffset dx="68" dy="99"/>
<feGaussianBlur stdDeviation="2"/>
<feComposite in2="hardAlpha" operator="out"/>
<feColorMatrix type="matrix" values="0 0 0 0 0 0 0 0 0 0 0 0 0 0 0 0 0 0 0.25 0"/>
<feBlend mode="normal" in2="BackgroundImageFix" result="effect1_dropShadow_1_137529"/>
<feBlend mode="normal" in="SourceGraphic" in2="effect1_dropShadow_1_137529" result="shape"/>
</filter>
</defs>
</svg>
