<svg width="229" height="233" viewBox="0 0 229 233" fill="none" xmlns="http://www.w3.org/2000/svg">
<path fill-rule="evenodd" clip-rule="evenodd" d="M155.387 113.427C160.382 107.331 164.343 100.353 166.999 92.7635C200.468 97.1269 226.312 125.748 226.312 160.406C226.312 198.082 195.77 228.625 158.094 228.625C141.993 228.625 127.196 223.047 115.527 213.719C125.804 204.582 133.301 192.386 136.589 178.559C150.331 168.457 159.25 152.176 159.25 133.812C159.25 126.615 157.88 119.738 155.387 113.427ZM131.225 132.156C140.637 127.799 148.888 121.358 155.387 113.427C152.469 106.044 148.014 99.4354 142.416 93.9977C147.45 92.8138 152.699 92.1875 158.094 92.1875C161.112 92.1875 164.085 92.3835 166.999 92.7635C169.469 85.7062 170.812 78.1193 170.812 70.2188C170.812 32.5426 140.27 2 102.594 2C64.9176 2 34.375 32.5426 34.375 70.2188C34.375 81.2064 36.9727 91.5874 41.5874 100.781C18.2139 111.604 2 135.268 2 162.719C2 172.918 4.23812 182.594 8.25 191.283V216.312H28.0063C39.6191 225.472 54.2806 230.938 70.2188 230.938C87.6086 230.938 103.479 224.431 115.527 213.719C107.229 207.085 100.513 198.553 96.0378 188.781C98.5583 189.131 101.133 189.312 103.75 189.312C116.038 189.312 127.393 185.319 136.589 178.559C137.798 173.476 138.438 168.172 138.438 162.719C138.438 151.731 135.84 141.35 131.225 132.156ZM130.223 132.611C130.559 132.462 130.893 132.31 131.225 132.156C130.811 131.331 130.381 130.516 129.934 129.711C128.458 120.211 121.936 112.38 113.194 109.045C121.427 101.842 131.407 96.5866 142.416 93.9977C132.421 84.2899 118.784 78.3125 103.75 78.3125C88.3312 78.3125 74.3809 84.6001 64.3233 94.7512C56.2629 95.4412 48.6027 97.5327 41.5874 100.781C44.2337 106.053 47.5433 110.935 51.4067 115.316C49.3624 121.102 48.25 127.327 48.25 133.812C48.25 137.402 48.5908 140.912 49.2419 144.312H8.25V191.283C12.789 201.114 19.5986 209.681 28.0063 216.312H80.25V184.106C85.1629 186.406 90.4681 188.007 96.0378 188.781C92.0807 180.141 89.875 170.531 89.875 160.406C89.875 159.083 89.9127 157.768 89.9871 156.463C93.9985 158.905 98.7099 160.312 103.75 160.312C118.386 160.312 130.25 148.448 130.25 133.812C130.25 133.41 130.241 133.009 130.223 132.611ZM93.6883 137.861C91.6319 143.736 90.3567 149.978 89.9871 156.463C85.8704 153.956 82.4909 150.359 80.25 146.072V144.312H79.4116C78.0207 141.093 77.25 137.543 77.25 133.812C77.25 133.733 77.2504 133.654 77.251 133.575C82.4453 135.655 87.9549 137.114 93.6883 137.861ZM112.785 109.406C119.744 114.969 125.589 121.867 129.934 129.711C130.082 130.661 130.179 131.629 130.223 132.611C121.777 136.356 112.428 138.438 102.594 138.438C99.5755 138.438 96.603 138.241 93.6883 137.861C97.5608 126.798 104.204 117.035 112.785 109.406ZM111.633 108.505C100.15 99.7194 85.7937 94.5 70.2188 94.5C68.2326 94.5 66.2663 94.5849 64.3233 94.7512C58.6173 100.51 54.1642 107.513 51.4067 115.316C58.4164 123.266 67.2492 129.571 77.251 133.575C77.3785 119.049 89.1937 107.312 103.75 107.312C106.495 107.312 109.143 107.73 111.633 108.505ZM111.633 108.505C112.02 108.801 112.404 109.102 112.785 109.406C112.921 109.285 113.058 109.165 113.194 109.045C112.681 108.849 112.161 108.669 111.633 108.505ZM79.4116 144.312H49.2419C52.6264 161.988 64.3952 176.685 80.25 184.106V146.072C79.9498 145.497 79.67 144.911 79.4116 144.312Z" fill="#E03B3B"/>
<path d="M8.25 216.312H6.25V218.312H8.25V216.312ZM8.25 144.312V142.312H6.25V144.312H8.25ZM80.25 216.312V218.312H82.25V216.312H80.25ZM80.25 144.312H82.25V142.312H80.25V144.312ZM165.112 92.1028C162.533 99.4683 158.69 106.241 153.84 112.16L156.934 114.695C162.075 108.421 166.152 101.239 168.887 93.4243L165.112 92.1028ZM228.312 160.406C228.312 124.731 201.709 95.2719 167.258 90.7803L166.741 94.7467C199.226 98.9819 224.312 126.766 224.312 160.406H228.312ZM158.094 230.625C196.874 230.625 228.312 199.187 228.312 160.406H224.312C224.312 196.978 194.665 226.625 158.094 226.625V230.625ZM114.279 215.281C126.288 224.883 141.523 230.625 158.094 230.625V226.625C142.463 226.625 128.103 221.212 116.776 212.157L114.279 215.281ZM116.856 215.214C127.432 205.812 135.149 193.259 138.535 179.022L134.643 178.097C131.453 191.514 124.177 203.353 114.199 212.224L116.856 215.214ZM137.774 180.171C152.006 169.708 161.25 152.839 161.25 133.812H157.25C157.25 151.513 148.656 167.206 135.404 176.948L137.774 180.171ZM161.25 133.812C161.25 126.36 159.831 119.233 157.247 112.692L153.527 114.162C155.929 120.243 157.25 126.871 157.25 133.812H161.25ZM153.84 112.16C147.53 119.86 139.52 126.112 130.385 130.342L132.065 133.971C141.754 129.485 150.246 122.857 156.934 114.695L153.84 112.16ZM157.247 112.692C154.224 105.041 149.608 98.1951 143.809 92.5631L141.022 95.4323C146.42 100.676 150.715 107.046 153.527 114.162L157.247 112.692ZM142.874 95.9446C147.758 94.7957 152.854 94.1875 158.094 94.1875V90.1875C152.543 90.1875 147.141 90.8319 141.958 92.0508L142.874 95.9446ZM158.094 94.1875C161.025 94.1875 163.912 94.3779 166.741 94.7467L167.258 90.7803C164.258 90.3892 161.199 90.1875 158.094 90.1875V94.1875ZM168.887 93.4243C171.43 86.1575 172.812 78.3474 172.812 70.2188H168.812C168.812 77.8912 167.508 85.2549 165.112 92.1028L168.887 93.4243ZM172.812 70.2188C172.812 31.438 141.374 0 102.594 0V4C139.165 4 168.812 33.6471 168.812 70.2188H172.812ZM102.594 0C63.813 0 32.375 31.438 32.375 70.2188H36.375C36.375 33.6471 66.0221 4 102.594 4V0ZM32.375 70.2188C32.375 81.525 35.0486 92.2125 39.7999 101.678L43.3748 99.8838C38.8967 90.9623 36.375 80.8879 36.375 70.2188H32.375ZM40.747 98.9661C16.6928 110.104 0 134.46 0 162.719H4C4 136.076 19.735 113.103 42.4277 102.596L40.747 98.9661ZM0 162.719C0 173.213 2.30344 183.175 6.4342 192.121L10.0658 190.445C6.1728 182.013 4 172.622 4 162.719H0ZM10.25 216.312V191.283H6.25V216.312H10.25ZM28.0063 214.312H8.25V218.312H28.0063V214.312ZM26.7677 217.883C38.7208 227.31 53.8154 232.938 70.2188 232.938V228.938C54.7459 228.938 40.5174 223.633 29.2448 214.742L26.7677 217.883ZM70.2188 232.938C88.1171 232.938 104.456 226.238 116.856 215.214L114.199 212.224C102.502 222.623 87.1001 228.938 70.2188 228.938V232.938ZM94.2195 189.614C98.8266 199.673 105.739 208.454 114.279 215.281L116.776 212.157C108.719 205.715 102.2 197.432 97.8562 187.948L94.2195 189.614ZM95.7624 190.762C98.3739 191.125 101.041 191.312 103.75 191.312V187.312C101.225 187.312 98.7428 187.138 96.3132 186.8L95.7624 190.762ZM103.75 191.312C116.478 191.312 128.246 187.174 137.774 180.171L135.404 176.948C126.54 183.464 115.598 187.312 103.75 187.312V191.312ZM138.535 179.022C139.779 173.788 140.438 168.329 140.438 162.719H136.438C136.438 168.015 135.816 173.164 134.643 178.097L138.535 179.022ZM140.438 162.719C140.438 151.413 137.764 140.725 133.013 131.259L129.438 133.054C133.916 141.975 136.438 152.05 136.438 162.719H140.438ZM130.385 130.342C130.062 130.491 129.738 130.638 129.412 130.782L131.034 134.439C131.379 134.286 131.723 134.13 132.065 133.971L130.385 130.342ZM133.013 131.259C132.586 130.41 132.143 129.571 131.684 128.741L128.185 130.68C128.618 131.461 129.036 132.253 129.438 133.054L133.013 131.259ZM131.911 129.403C130.322 119.181 123.307 110.763 113.907 107.176L112.482 110.914C120.565 113.998 126.594 121.241 127.958 130.018L131.911 129.403ZM114.511 110.55C122.505 103.557 132.191 98.4568 142.874 95.9446L141.958 92.0508C130.623 94.7165 120.35 100.127 111.878 107.54L114.511 110.55ZM143.809 92.5631C133.456 82.5073 119.325 76.3125 103.75 76.3125V80.3125C118.243 80.3125 131.386 86.0724 141.022 95.4323L143.809 92.5631ZM103.75 76.3125C87.776 76.3125 73.3203 82.8289 62.9026 93.3435L65.744 96.1589C75.4414 86.3713 88.8863 80.3125 103.75 80.3125V76.3125ZM42.4277 102.596C49.2357 99.4436 56.6696 97.4137 64.4939 96.7439L64.1527 92.7585C55.8562 93.4687 47.9696 95.6218 40.747 98.9661L42.4277 102.596ZM52.9068 113.994C49.156 109.74 45.9433 105.001 43.3748 99.8838L39.7999 101.678C42.5241 107.105 45.9306 112.13 49.9065 116.639L52.9068 113.994ZM49.521 114.65C47.402 120.646 46.25 127.097 46.25 133.812H50.25C50.25 127.557 51.3227 121.557 53.2924 115.983L49.521 114.65ZM46.25 133.812C46.25 137.529 46.6029 141.165 47.2776 144.689L51.2062 143.936C50.5787 140.66 50.25 137.275 50.25 133.812H46.25ZM8.25 146.312H49.2419V142.312H8.25V146.312ZM10.25 191.283V144.312H6.25V191.283H10.25ZM6.4342 192.121C11.1068 202.242 18.1155 211.059 26.7677 217.883L29.2448 214.742C21.0818 208.304 14.4713 199.986 10.0658 190.445L6.4342 192.121ZM80.25 214.312H28.0063V218.312H80.25V214.312ZM78.25 184.106V216.312H82.25V184.106H78.25ZM79.4022 185.918C84.4933 188.301 89.9913 189.96 95.7624 190.762L96.3132 186.8C90.945 186.054 85.8325 184.511 81.0978 182.295L79.4022 185.918ZM87.875 160.406C87.875 170.824 90.1451 180.718 94.2195 189.614L97.8562 187.948C94.0163 179.564 91.875 170.238 91.875 160.406H87.875ZM87.9903 156.349C87.9138 157.692 87.875 159.045 87.875 160.406H91.875C91.875 159.121 91.9116 157.844 91.9838 156.577L87.9903 156.349ZM103.75 158.312C99.0871 158.312 94.7342 157.012 91.0273 154.755L88.9469 158.171C93.2628 160.799 98.3327 162.312 103.75 162.312V158.312ZM128.25 133.812C128.25 147.343 117.281 158.312 103.75 158.312V162.312C119.49 162.312 132.25 149.553 132.25 133.812H128.25ZM128.225 132.7C128.242 133.068 128.25 133.439 128.25 133.812H132.25C132.25 133.38 132.24 132.949 132.221 132.521L128.225 132.7ZM91.9838 156.577C92.3426 150.281 93.5805 144.223 95.576 138.522L91.8006 137.201C89.6833 143.25 88.3707 149.676 87.9903 156.349L91.9838 156.577ZM78.4776 146.998C80.8875 151.609 84.5207 155.476 88.9469 158.171L91.0273 154.755C87.22 152.436 84.0942 149.109 82.0224 145.145L78.4776 146.998ZM78.25 144.312V146.072H82.25V144.312H78.25ZM79.4116 146.312H80.25V142.312H79.4116V146.312ZM75.25 133.812C75.25 137.821 76.0785 141.64 77.5756 145.106L81.2476 143.519C79.9629 140.545 79.25 137.265 79.25 133.812H75.25ZM75.2511 133.557C75.2504 133.642 75.25 133.727 75.25 133.812H79.25C79.25 133.739 79.2503 133.666 79.251 133.593L75.2511 133.557ZM93.9468 135.878C88.382 135.153 83.0351 133.736 77.9944 131.718L76.5077 135.432C81.8556 137.573 87.5279 139.075 93.4297 139.845L93.9468 135.878ZM131.684 128.741C127.212 120.667 121.195 113.569 114.034 107.844L111.536 110.968C118.292 116.369 123.967 123.066 128.185 130.68L131.684 128.741ZM132.221 132.521C132.174 131.467 132.07 130.426 131.911 129.403L127.958 130.018C128.095 130.897 128.185 131.791 128.225 132.7L132.221 132.521ZM102.594 140.438C112.713 140.438 122.337 138.296 131.034 134.439L129.412 130.782C121.217 134.417 112.144 136.438 102.594 136.438V140.438ZM93.4297 139.845C96.4299 140.236 99.4888 140.438 102.594 140.438V136.438C99.6621 136.438 96.776 136.247 93.9468 135.878L93.4297 139.845ZM111.456 107.911C102.625 115.762 95.7876 125.81 91.8006 137.201L95.576 138.522C99.3341 127.785 105.782 118.308 114.114 110.901L111.456 107.911ZM70.2188 96.5C85.3393 96.5 99.271 101.565 110.417 110.093L112.848 106.916C101.028 97.8734 86.2481 92.5 70.2188 92.5V96.5ZM64.4939 96.7439C66.3803 96.5824 68.2896 96.5 70.2188 96.5V92.5C68.1756 92.5 66.1524 92.5873 64.1527 92.7585L64.4939 96.7439ZM62.9026 93.3435C56.9926 99.3084 52.3786 106.563 49.521 114.65L53.2924 115.983C55.9497 108.463 60.2419 101.712 65.744 96.1589L62.9026 93.3435ZM77.9944 131.718C68.2876 127.832 59.7128 121.713 52.9068 113.994L49.9065 116.639C57.1199 124.82 66.2107 131.309 76.5077 135.432L77.9944 131.718ZM103.75 105.312C88.095 105.312 75.3883 117.935 75.2511 133.557L79.251 133.593C79.3688 120.163 90.2924 109.312 103.75 109.312V105.312ZM112.227 106.595C109.547 105.761 106.699 105.312 103.75 105.312V109.312C106.291 109.312 108.739 109.699 111.038 110.414L112.227 106.595ZM110.417 110.093C110.794 110.381 111.166 110.673 111.536 110.968L114.034 107.844C113.642 107.531 113.247 107.221 112.848 106.916L110.417 110.093ZM114.114 110.901C114.246 110.783 114.378 110.666 114.511 110.55L111.878 107.54C111.737 107.663 111.596 107.787 111.456 107.911L114.114 110.901ZM113.907 107.176C113.355 106.966 112.795 106.772 112.227 106.595L111.038 110.414C111.526 110.566 112.007 110.733 112.482 110.914L113.907 107.176ZM49.2419 146.312H79.4116V142.312H49.2419V146.312ZM47.2776 144.689C50.7852 163.007 62.9788 178.231 79.4022 185.918L81.0978 182.295C65.8117 175.14 54.4677 160.969 51.2062 143.936L47.2776 144.689ZM78.25 146.072V184.106H82.25V146.072H78.25ZM77.5756 145.106C77.8536 145.749 78.1546 146.38 78.4776 146.998L82.0224 145.145C81.7449 144.614 81.4864 144.072 81.2476 143.519L77.5756 145.106Z" fill="black"/>
</svg>
