<svg width="805" height="1666" viewBox="0 0 805 1666" fill="none" xmlns="http://www.w3.org/2000/svg">
<rect width="805" height="1666" fill="white"/>
<g filter="url(#filter0_d_2_636)">
<path d="M243 1424V1480.76M243 1424H243.077M243 1424L243.038 1452.38M243 1480.76H243.077M243 1480.76L243.026 1499M243 1480.76L243.038 1452.38M243.077 1480.76V1424M243.077 1480.76L243.1 1496.69M243.077 1480.76L243.038 1452.38M243.077 1424L243.1 1439.92M243.077 1424L243.038 1452.38" stroke="black" stroke-width="10"/>
</g>
<g filter="url(#filter1_d_2_636)">
<path d="M243 1340V1340.08M243 1340H296.037M243 1340L269.519 1340.04M243 1340.08H296.037M243 1340.08L261.28 1340.1M243 1340.08L269.519 1340.04M296.037 1340.08V1340M296.037 1340.08L312 1340.1M296.037 1340.08L269.519 1340.04M296.037 1340L312 1340.02M296.037 1340L269.519 1340.04" stroke="black" stroke-width="10"/>
</g>
<g filter="url(#filter2_d_2_636)">
<path d="M470.004 1481.37C469.996 1465.95 469.995 1439.93 470.048 1459.29M470.048 1459.29C470.101 1478.65 470.103 1447.83 470.098 1430M470.048 1459.29C470.046 1472.88 470.053 1498.69 470.098 1493.26" stroke="black" stroke-width="10"/>
</g>
<g filter="url(#filter3_d_2_636)">
<path d="M472.202 1340.08C467.861 1340.06 466.993 1340.02 498.245 1340.05M498.245 1340.05C529.497 1340.08 530.87 1340.03 527.649 1340M498.245 1340.05C497.125 1340.07 501.438 1340.11 527.649 1340.1" stroke="black" stroke-width="10"/>
</g>
<g filter="url(#filter4_d_2_636)">
<path d="M360.074 1477.25C360.091 1467.48 360.101 1459.67 360.1 1450.46C360.1 1445.16 360.095 1440.08 360.088 1437.09C360.075 1431.45 360.059 1434.1 360.05 1440.52C360.041 1434.1 360.025 1431.48 360.012 1437.09C360.005 1440.08 360 1445.16 360 1450.46C359.999 1462.55 360.017 1472.24 360.043 1487.05L360.043 1487.36C360.047 1489.54 360.053 1489.54 360.057 1487.39L360.057 1487.11C360.06 1485.52 360.063 1483.98 360.065 1482.5M360.074 1477.25C360.072 1478.94 360.069 1480.68 360.065 1482.5M360.074 1477.25L360.065 1482.5" stroke="black" stroke-width="10"/>
</g>
<g filter="url(#filter5_d_2_636)">
<path d="M406.105 1340.08C416.216 1340.06 422.318 1340.05 421.987 1340.03C421.801 1340.02 419.105 1340.01 414.736 1340.01C406.555 1340 396.453 1340 390.999 1340.01C385.545 1340 375.443 1340 367.262 1340.01C362.893 1340.01 360.197 1340.02 360.011 1340.03C359.608 1340.05 370.237 1340.07 386.506 1340.1L386.847 1340.1C389.202 1340.1 392.827 1340.1 395.183 1340.1L395.492 1340.1C397.236 1340.09 398.915 1340.09 400.523 1340.09M406.105 1340.08C404.359 1340.08 402.495 1340.08 400.523 1340.09M406.105 1340.08L400.523 1340.09" stroke="black" stroke-width="10"/>
</g>
<g filter="url(#filter6_d_2_636)">
<path d="M317.037 1049H264L290.519 1077.38L317.037 1049Z" fill="#FFDB1E" fill-opacity="0.74"/>
<path d="M264 1105.76H317.037L290.519 1077.38L264 1105.76Z" fill="#FFDB1E" fill-opacity="0.74"/>
<path d="M317.037 1105.76V1049L290.519 1077.38L317.037 1105.76Z" fill="#FFDB1E" fill-opacity="0.74"/>
</g>
<g filter="url(#filter7_d_2_636)">
<path d="M406.183 1112.39C403.827 1114.54 400.202 1114.54 397.847 1112.36L397.506 1112.05C381.237 1097.24 370.608 1087.55 371.011 1075.46C371.197 1070.16 373.893 1065.08 378.262 1062.09C386.443 1056.48 396.545 1059.1 401.999 1065.52C407.453 1059.1 417.555 1056.45 425.736 1062.09C430.105 1065.08 432.801 1070.16 432.987 1075.46C433.318 1084.67 427.216 1092.48 417.105 1102.25C415.359 1103.94 413.495 1105.68 411.523 1107.5C409.915 1108.98 408.236 1110.52 406.492 1112.11L406.183 1112.39Z" fill="#FFDB1E" fill-opacity="0.74"/>
</g>
<g filter="url(#filter8_d_2_636)">
<path d="M282.037 1200H229L255.519 1228.38L282.037 1200Z" fill="#C4C4C4" fill-opacity="0.01"/>
<path d="M229 1256.76H282.037L255.519 1228.38L229 1256.76Z" fill="#C4C4C4" fill-opacity="0.01"/>
<path d="M282.037 1256.76V1200L255.519 1228.38L282.037 1256.76Z" fill="#C4C4C4" fill-opacity="0.01"/>
</g>
<g filter="url(#filter9_d_2_636)">
<path d="M381.183 1263.39C378.827 1265.54 375.202 1265.54 372.847 1263.36L372.506 1263.05C356.237 1248.24 345.608 1238.55 346.011 1226.46C346.197 1221.16 348.893 1216.08 353.262 1213.09C361.443 1207.48 371.545 1210.1 376.999 1216.52C382.453 1210.1 392.555 1207.45 400.736 1213.09C405.105 1216.08 407.801 1221.16 407.987 1226.46C408.318 1235.67 402.216 1243.48 392.105 1253.25C390.359 1254.94 388.495 1256.68 386.523 1258.5C384.915 1259.98 383.236 1261.52 381.492 1263.11L381.183 1263.39Z" fill="#C4C4C4" fill-opacity="0.01"/>
</g>
<g filter="url(#filter10_i_2_636)">
<path d="M282.037 107H229L255.519 135.382L282.037 107Z" fill="#FFDB1E" fill-opacity="0.74"/>
<path d="M229 163.764H282.037L255.519 135.382L229 163.764Z" fill="#FFDB1E" fill-opacity="0.74"/>
<path d="M282.037 163.764V107L255.519 135.382L282.037 163.764Z" fill="#FFDB1E" fill-opacity="0.74"/>
</g>
<path d="M229 107V163.764M229 107H282.037M229 107L255.519 135.382M229 163.764H282.037M229 163.764L247.28 182M229 163.764L255.519 135.382M282.037 163.764V107M282.037 163.764L298 179.688M282.037 163.764L255.519 135.382M282.037 107L298 122.925M282.037 107L255.519 135.382" stroke="black" stroke-width="10"/>
<g filter="url(#filter11_i_2_636)">
<path d="M458.202 164.372C453.861 148.946 452.993 122.935 484.245 142.295M484.245 142.295C515.497 161.655 516.87 130.832 513.649 113M484.245 142.295C483.125 155.881 487.438 181.694 513.649 176.26" stroke="black" stroke-width="10"/>
</g>
<g filter="url(#filter12_i_2_636)">
<path d="M381.183 170.391C378.827 172.542 375.202 172.542 372.847 170.36L372.506 170.048C356.237 155.244 345.608 145.551 346.011 133.458C346.197 128.16 348.893 123.08 353.262 120.088C361.443 114.478 371.545 117.096 376.999 123.516C382.453 117.096 392.555 114.446 400.736 120.088C405.105 123.08 407.801 128.16 407.987 133.458C408.318 142.666 402.216 150.482 392.105 160.25C390.359 161.936 388.495 163.68 386.523 165.5C384.915 166.984 383.236 168.517 381.492 170.11L381.183 170.391Z" fill="#FFDB1E" fill-opacity="0.74"/>
</g>
<path d="M392.105 160.25C402.216 150.482 408.318 142.666 407.987 133.458C407.801 128.16 405.105 123.08 400.736 120.088C392.555 114.446 382.453 117.096 376.999 123.516C371.545 117.096 361.443 114.478 353.262 120.088C348.893 123.08 346.197 128.16 346.011 133.458C345.608 145.551 356.237 155.244 372.506 170.048L372.847 170.36C375.202 172.542 378.827 172.542 381.183 170.391L381.492 170.11C383.236 168.517 384.915 166.984 386.523 165.5M392.105 160.25C390.359 161.936 388.495 163.68 386.523 165.5M392.105 160.25L386.523 165.5" stroke="black" stroke-width="10"/>
<g filter="url(#filter13_i_2_636)">
<path d="M229 237V293.764M229 237H282.037M229 237L255.519 265.382M229 293.764H282.037M229 293.764L247.28 312M229 293.764L255.519 265.382M282.037 293.764V237M282.037 293.764L298 309.688M282.037 293.764L255.519 265.382M282.037 237L298 252.925M282.037 237L255.519 265.382" stroke="black" stroke-width="10"/>
</g>
<g filter="url(#filter14_i_2_636)">
<path d="M458.202 294.372C453.861 278.946 452.993 252.935 484.245 272.295M484.245 272.295C515.497 291.655 516.87 260.832 513.649 243M484.245 272.295C483.125 285.881 487.438 311.694 513.649 306.26" stroke="black" stroke-width="10"/>
</g>
<g filter="url(#filter15_i_2_636)">
<path d="M392.105 290.25C402.216 280.482 408.318 272.666 407.987 263.458C407.801 258.16 405.105 253.08 400.736 250.088C392.555 244.446 382.453 247.096 376.999 253.516C371.545 247.096 361.443 244.478 353.262 250.088C348.893 253.08 346.197 258.16 346.011 263.458C345.608 275.551 356.237 285.244 372.506 300.048L372.847 300.36C375.202 302.542 378.827 302.542 381.183 300.391L381.492 300.11C383.236 298.517 384.915 296.984 386.523 295.5M392.105 290.25C390.359 291.936 388.495 293.68 386.523 295.5M392.105 290.25L386.523 295.5" stroke="black" stroke-width="10"/>
</g>
<g filter="url(#filter16_d_2_636)">
<path d="M296.037 886H243L269.519 914.382L296.037 886Z" fill="#FFDB1E" fill-opacity="0.74"/>
<path d="M243 942.764H296.037L269.519 914.382L243 942.764Z" fill="#FFDB1E" fill-opacity="0.74"/>
<path d="M296.037 942.764V886L269.519 914.382L296.037 942.764Z" fill="#FFDB1E" fill-opacity="0.74"/>
<path d="M243 886V942.764M243 886H296.037M243 886L269.519 914.382M243 942.764H296.037M243 942.764L261.28 961M243 942.764L269.519 914.382M296.037 942.764V886M296.037 942.764L312 958.688M296.037 942.764L269.519 914.382M296.037 886L312 901.925M296.037 886L269.519 914.382" stroke="black" stroke-width="10"/>
</g>
<g filter="url(#filter17_d_2_636)">
<path d="M243 767V823.764M243 767H296.037M243 767L269.519 795.382M243 823.764H296.037M243 823.764L261.28 842M243 823.764L269.519 795.382M296.037 823.764V767M296.037 823.764L312 839.688M296.037 823.764L269.519 795.382M296.037 767L312 782.925M296.037 767L269.519 795.382" stroke="black" stroke-width="10"/>
</g>
<g filter="url(#filter18_d_2_636)">
<path d="M472.202 943.372C467.861 927.946 466.993 901.935 498.245 921.295M498.245 921.295C529.497 940.655 530.87 909.832 527.649 892M498.245 921.295C497.125 934.881 501.438 960.694 527.649 955.26" stroke="black" stroke-width="10"/>
</g>
<g filter="url(#filter19_d_2_636)">
<path d="M472.202 824.372C467.861 808.946 466.993 782.935 498.245 802.295M498.245 802.295C529.497 821.655 530.87 790.832 527.649 773M498.245 802.295C497.125 815.881 501.438 841.694 527.649 836.26" stroke="black" stroke-width="10"/>
</g>
<g filter="url(#filter20_d_2_636)">
<path d="M395.183 949.391C392.827 951.542 389.202 951.542 386.847 949.36L386.506 949.048C370.237 934.244 359.608 924.551 360.011 912.458C360.197 907.16 362.893 902.08 367.262 899.088C375.443 893.478 385.545 896.096 390.999 902.516C396.453 896.096 406.555 893.446 414.736 899.088C419.105 902.08 421.801 907.16 421.987 912.458C422.318 921.666 416.216 929.482 406.105 939.25C404.359 940.936 402.495 942.68 400.523 944.5C398.915 945.984 397.236 947.517 395.492 949.11L395.183 949.391Z" fill="#FFDB1E" fill-opacity="0.74"/>
<path d="M406.105 939.25C416.216 929.482 422.318 921.666 421.987 912.458C421.801 907.16 419.105 902.08 414.736 899.088C406.555 893.446 396.453 896.096 390.999 902.516C385.545 896.096 375.443 893.478 367.262 899.088C362.893 902.08 360.197 907.16 360.011 912.458C359.608 924.551 370.237 934.244 386.506 949.048L386.847 949.36C389.202 951.542 392.827 951.542 395.183 949.391L395.492 949.11C397.236 947.517 398.915 945.984 400.523 944.5M406.105 939.25C404.359 940.936 402.495 942.68 400.523 944.5M406.105 939.25L400.523 944.5" stroke="black" stroke-width="10"/>
</g>
<g filter="url(#filter21_d_2_636)">
<path d="M406.105 820.25C416.216 810.482 422.318 802.666 421.987 793.458C421.801 788.16 419.105 783.08 414.736 780.088C406.555 774.446 396.453 777.096 390.999 783.516C385.545 777.096 375.443 774.478 367.262 780.088C362.893 783.08 360.197 788.16 360.011 793.458C359.608 805.551 370.237 815.244 386.506 830.048L386.847 830.36C389.202 832.542 392.827 832.542 395.183 830.391L395.492 830.11C397.236 828.517 398.915 826.984 400.523 825.5M406.105 820.25C404.359 821.936 402.495 823.68 400.523 825.5M406.105 820.25L400.523 825.5" stroke="black" stroke-width="10"/>
</g>
<g filter="url(#filter22_di_2_636)">
<path d="M389.183 691.391C386.827 693.542 383.202 693.542 380.847 691.36L380.506 691.048C364.237 676.244 353.608 666.551 354.011 654.458C354.197 649.16 356.893 644.08 361.262 641.088C369.443 635.478 379.545 638.096 384.999 644.516C390.453 638.096 400.555 635.446 408.736 641.088C413.105 644.08 415.801 649.16 415.987 654.458C416.318 663.666 410.216 671.482 400.105 681.25C398.359 682.936 396.495 684.68 394.523 686.5C392.915 687.984 391.236 689.517 389.492 691.11L389.183 691.391Z" fill="#FFDB1E" fill-opacity="0.74"/>
<path d="M400.105 681.25C410.216 671.482 416.318 663.666 415.987 654.458C415.801 649.16 413.105 644.08 408.736 641.088C400.555 635.446 390.453 638.096 384.999 644.516C379.545 638.096 369.443 635.478 361.262 641.088C356.893 644.08 354.197 649.16 354.011 654.458C353.608 666.551 364.237 676.244 380.506 691.048L380.847 691.36C383.202 693.542 386.827 693.542 389.183 691.391L389.492 691.11C391.236 689.517 392.915 687.984 394.523 686.5M400.105 681.25C398.359 682.936 396.495 684.68 394.523 686.5M400.105 681.25L394.523 686.5" stroke="black" stroke-width="6"/>
</g>
<g filter="url(#filter23_di_2_636)">
<path d="M314.037 628H261L287.519 656.382L314.037 628Z" fill="#FFDB1E" fill-opacity="0.74"/>
<path d="M261 684.764H314.037L287.519 656.382L261 684.764Z" fill="#FFDB1E" fill-opacity="0.74"/>
<path d="M314.037 684.764V628L287.519 656.382L314.037 684.764Z" fill="#FFDB1E" fill-opacity="0.74"/>
<path d="M261 628V684.764M261 628H314.037M261 628L287.519 656.382M261 684.764H314.037M261 684.764L279.28 703M261 684.764L287.519 656.382M314.037 684.764V628M314.037 684.764L330 700.688M314.037 684.764L287.519 656.382M314.037 628L330 643.925M314.037 628L287.519 656.382" stroke="black" stroke-width="6"/>
</g>
<g filter="url(#filter24_di_2_636)">
<path d="M442.202 685.372C437.861 669.946 436.993 643.935 468.245 663.295M468.245 663.295C499.497 682.655 500.87 651.832 497.649 634M468.245 663.295C467.125 676.881 471.438 702.694 497.649 697.26" stroke="black" stroke-width="6"/>
</g>
<g filter="url(#filter25_i_2_636)">
<path d="M282.037 399H229L255.519 427.382L282.037 399Z" fill="#FFDB1E" fill-opacity="0.74"/>
<path d="M229 455.764H282.037L255.519 427.382L229 455.764Z" fill="#FFDB1E" fill-opacity="0.74"/>
<path d="M282.037 455.764V399L255.519 427.382L282.037 455.764Z" fill="#FFDB1E" fill-opacity="0.74"/>
</g>
<g filter="url(#filter26_i_2_636)">
<path d="M381.183 462.391C378.827 464.542 375.202 464.542 372.847 462.36L372.506 462.048C356.237 447.244 345.608 437.551 346.011 425.458C346.197 420.16 348.893 415.08 353.262 412.088C361.443 406.478 371.545 409.096 376.999 415.516C382.453 409.096 392.555 406.446 400.736 412.088C405.105 415.08 407.801 420.16 407.987 425.458C408.318 434.666 402.216 442.482 392.105 452.25C390.359 453.936 388.495 455.68 386.523 457.5C384.915 458.984 383.236 460.517 381.492 462.11L381.183 462.391Z" fill="#FFDB1E" fill-opacity="0.74"/>
</g>
<g filter="url(#filter27_i_2_636)">
<path d="M282.037 493H229L255.519 521.382L282.037 493Z" fill="#C4C4C4" fill-opacity="0.01"/>
<path d="M229 549.764H282.037L255.519 521.382L229 549.764Z" fill="#C4C4C4" fill-opacity="0.01"/>
<path d="M282.037 549.764V493L255.519 521.382L282.037 549.764Z" fill="#C4C4C4" fill-opacity="0.01"/>
</g>
<g filter="url(#filter28_i_2_636)">
<path d="M381.183 556.391C378.827 558.542 375.202 558.542 372.847 556.36L372.506 556.048C356.237 541.244 345.608 531.551 346.011 519.458C346.197 514.16 348.893 509.08 353.262 506.088C361.443 500.478 371.545 503.096 376.999 509.516C382.453 503.096 392.555 500.446 400.736 506.088C405.105 509.08 407.801 514.16 407.987 519.458C408.318 528.666 402.216 536.482 392.105 546.25C390.359 547.936 388.495 549.68 386.523 551.5C384.915 552.984 383.236 554.517 381.492 556.11L381.183 556.391Z" fill="#C4C4C4" fill-opacity="0.01"/>
</g>
<defs>
<filter id="filter0_d_2_636" x="238" y="1419" width="20.1001" height="88.0073" filterUnits="userSpaceOnUse" color-interpolation-filters="sRGB">
<feFlood flood-opacity="0" result="BackgroundImageFix"/>
<feColorMatrix in="SourceAlpha" type="matrix" values="0 0 0 0 0 0 0 0 0 0 0 0 0 0 0 0 0 0 127 0" result="hardAlpha"/>
<feOffset dx="6" dy="4"/>
<feGaussianBlur stdDeviation="2"/>
<feColorMatrix type="matrix" values="0 0 0 0 1 0 0 0 0 0 0 0 0 0 0 0 0 0 0.55 0"/>
<feBlend mode="normal" in2="BackgroundImageFix" result="effect1_dropShadow_2_636"/>
<feBlend mode="normal" in="SourceGraphic" in2="effect1_dropShadow_2_636" result="shape"/>
</filter>
<filter id="filter1_d_2_636" x="238" y="1335" width="84.0066" height="18.1" filterUnits="userSpaceOnUse" color-interpolation-filters="sRGB">
<feFlood flood-opacity="0" result="BackgroundImageFix"/>
<feColorMatrix in="SourceAlpha" type="matrix" values="0 0 0 0 0 0 0 0 0 0 0 0 0 0 0 0 0 0 127 0" result="hardAlpha"/>
<feOffset dx="6" dy="4"/>
<feGaussianBlur stdDeviation="2"/>
<feColorMatrix type="matrix" values="0 0 0 0 1 0 0 0 0 0 0 0 0 0 0 0 0 0 0.55 0"/>
<feBlend mode="normal" in2="BackgroundImageFix" result="effect1_dropShadow_2_636"/>
<feBlend mode="normal" in="SourceGraphic" in2="effect1_dropShadow_2_636" result="shape"/>
</filter>
<filter id="filter2_d_2_636" x="465" y="1430" width="20.1001" height="76.1034" filterUnits="userSpaceOnUse" color-interpolation-filters="sRGB">
<feFlood flood-opacity="0" result="BackgroundImageFix"/>
<feColorMatrix in="SourceAlpha" type="matrix" values="0 0 0 0 0 0 0 0 0 0 0 0 0 0 0 0 0 0 127 0" result="hardAlpha"/>
<feOffset dx="6" dy="4"/>
<feGaussianBlur stdDeviation="2"/>
<feComposite in2="hardAlpha" operator="out"/>
<feColorMatrix type="matrix" values="0 0 0 0 1 0 0 0 0 0 0 0 0 0 0 0 0 0 0.55 0"/>
<feBlend mode="normal" in2="BackgroundImageFix" result="effect1_dropShadow_2_636"/>
<feBlend mode="normal" in="SourceGraphic" in2="effect1_dropShadow_2_636" result="shape"/>
</filter>
<filter id="filter3_d_2_636" x="465.425" y="1335" width="78.4106" height="18.0997" filterUnits="userSpaceOnUse" color-interpolation-filters="sRGB">
<feFlood flood-opacity="0" result="BackgroundImageFix"/>
<feColorMatrix in="SourceAlpha" type="matrix" values="0 0 0 0 0 0 0 0 0 0 0 0 0 0 0 0 0 0 127 0" result="hardAlpha"/>
<feOffset dx="6" dy="4"/>
<feGaussianBlur stdDeviation="2"/>
<feComposite in2="hardAlpha" operator="out"/>
<feColorMatrix type="matrix" values="0 0 0 0 1 0 0 0 0 0 0 0 0 0 0 0 0 0 0.55 0"/>
<feBlend mode="normal" in2="BackgroundImageFix" result="effect1_dropShadow_2_636"/>
<feBlend mode="normal" in="SourceGraphic" in2="effect1_dropShadow_2_636" result="shape"/>
</filter>
<filter id="filter4_d_2_636" x="355" y="1429.41" width="20.1001" height="72.5376" filterUnits="userSpaceOnUse" color-interpolation-filters="sRGB">
<feFlood flood-opacity="0" result="BackgroundImageFix"/>
<feColorMatrix in="SourceAlpha" type="matrix" values="0 0 0 0 0 0 0 0 0 0 0 0 0 0 0 0 0 0 127 0" result="hardAlpha"/>
<feOffset dx="6" dy="4"/>
<feGaussianBlur stdDeviation="2"/>
<feColorMatrix type="matrix" values="0 0 0 0 1 0 0 0 0 0 0 0 0 0 0 0 0 0 0.55 0"/>
<feBlend mode="normal" in2="BackgroundImageFix" result="effect1_dropShadow_2_636"/>
<feBlend mode="normal" in="SourceGraphic" in2="effect1_dropShadow_2_636" result="shape"/>
</filter>
<filter id="filter5_d_2_636" x="355.583" y="1335" width="81.2156" height="18.1" filterUnits="userSpaceOnUse" color-interpolation-filters="sRGB">
<feFlood flood-opacity="0" result="BackgroundImageFix"/>
<feColorMatrix in="SourceAlpha" type="matrix" values="0 0 0 0 0 0 0 0 0 0 0 0 0 0 0 0 0 0 127 0" result="hardAlpha"/>
<feOffset dx="6" dy="4"/>
<feGaussianBlur stdDeviation="2"/>
<feColorMatrix type="matrix" values="0 0 0 0 1 0 0 0 0 0 0 0 0 0 0 0 0 0 0.55 0"/>
<feBlend mode="normal" in2="BackgroundImageFix" result="effect1_dropShadow_2_636"/>
<feBlend mode="normal" in="SourceGraphic" in2="effect1_dropShadow_2_636" result="shape"/>
</filter>
<filter id="filter6_d_2_636" x="264" y="1049" width="79" height="83" filterUnits="userSpaceOnUse" color-interpolation-filters="sRGB">
<feFlood flood-opacity="0" result="BackgroundImageFix"/>
<feColorMatrix in="SourceAlpha" type="matrix" values="0 0 0 0 0 0 0 0 0 0 0 0 0 0 0 0 0 0 127 0" result="hardAlpha"/>
<feOffset dx="6" dy="4"/>
<feGaussianBlur stdDeviation="2"/>
<feColorMatrix type="matrix" values="0 0 0 0 1 0 0 0 0 0 0 0 0 0 0 0 0 0 0.55 0"/>
<feBlend mode="normal" in2="BackgroundImageFix" result="effect1_dropShadow_2_636"/>
<feBlend mode="normal" in="SourceGraphic" in2="effect1_dropShadow_2_636" result="shape"/>
</filter>
<filter id="filter7_d_2_636" x="371" y="1059" width="72" height="63" filterUnits="userSpaceOnUse" color-interpolation-filters="sRGB">
<feFlood flood-opacity="0" result="BackgroundImageFix"/>
<feColorMatrix in="SourceAlpha" type="matrix" values="0 0 0 0 0 0 0 0 0 0 0 0 0 0 0 0 0 0 127 0" result="hardAlpha"/>
<feOffset dx="6" dy="4"/>
<feGaussianBlur stdDeviation="2"/>
<feColorMatrix type="matrix" values="0 0 0 0 1 0 0 0 0 0 0 0 0 0 0 0 0 0 0.55 0"/>
<feBlend mode="normal" in2="BackgroundImageFix" result="effect1_dropShadow_2_636"/>
<feBlend mode="normal" in="SourceGraphic" in2="effect1_dropShadow_2_636" result="shape"/>
</filter>
<filter id="filter8_d_2_636" x="229" y="1200" width="79" height="83" filterUnits="userSpaceOnUse" color-interpolation-filters="sRGB">
<feFlood flood-opacity="0" result="BackgroundImageFix"/>
<feColorMatrix in="SourceAlpha" type="matrix" values="0 0 0 0 0 0 0 0 0 0 0 0 0 0 0 0 0 0 127 0" result="hardAlpha"/>
<feOffset dx="6" dy="4"/>
<feGaussianBlur stdDeviation="2"/>
<feColorMatrix type="matrix" values="0 0 0 0 1 0 0 0 0 0 0 0 0 0 0 0 0 0 0.55 0"/>
<feBlend mode="normal" in2="BackgroundImageFix" result="effect1_dropShadow_2_636"/>
<feBlend mode="normal" in="SourceGraphic" in2="effect1_dropShadow_2_636" result="shape"/>
</filter>
<filter id="filter9_d_2_636" x="346" y="1210" width="72" height="63" filterUnits="userSpaceOnUse" color-interpolation-filters="sRGB">
<feFlood flood-opacity="0" result="BackgroundImageFix"/>
<feColorMatrix in="SourceAlpha" type="matrix" values="0 0 0 0 0 0 0 0 0 0 0 0 0 0 0 0 0 0 127 0" result="hardAlpha"/>
<feOffset dx="6" dy="4"/>
<feGaussianBlur stdDeviation="2"/>
<feColorMatrix type="matrix" values="0 0 0 0 1 0 0 0 0 0 0 0 0 0 0 0 0 0 0.55 0"/>
<feBlend mode="normal" in2="BackgroundImageFix" result="effect1_dropShadow_2_636"/>
<feBlend mode="normal" in="SourceGraphic" in2="effect1_dropShadow_2_636" result="shape"/>
</filter>
<filter id="filter10_i_2_636" x="224" y="102" width="81.5312" height="87.5398" filterUnits="userSpaceOnUse" color-interpolation-filters="sRGB">
<feFlood flood-opacity="0" result="BackgroundImageFix"/>
<feBlend mode="normal" in="SourceGraphic" in2="BackgroundImageFix" result="shape"/>
<feColorMatrix in="SourceAlpha" type="matrix" values="0 0 0 0 0 0 0 0 0 0 0 0 0 0 0 0 0 0 127 0" result="hardAlpha"/>
<feOffset dx="15" dy="15"/>
<feGaussianBlur stdDeviation="2"/>
<feComposite in2="hardAlpha" operator="arithmetic" k2="-1" k3="1"/>
<feColorMatrix type="matrix" values="0 0 0 0 0 0 0 0 0 1 0 0 0 0 1 0 0 0 0.55 0"/>
<feBlend mode="normal" in2="shape" result="effect1_innerShadow_2_636"/>
</filter>
<filter id="filter11_i_2_636" x="451" y="112.111" width="72.8389" height="73.8884" filterUnits="userSpaceOnUse" color-interpolation-filters="sRGB">
<feFlood flood-opacity="0" result="BackgroundImageFix"/>
<feBlend mode="normal" in="SourceGraphic" in2="BackgroundImageFix" result="shape"/>
<feColorMatrix in="SourceAlpha" type="matrix" values="0 0 0 0 0 0 0 0 0 0 0 0 0 0 0 0 0 0 127 0" result="hardAlpha"/>
<feOffset dx="15" dy="15"/>
<feGaussianBlur stdDeviation="2"/>
<feComposite in2="hardAlpha" operator="arithmetic" k2="-1" k3="1"/>
<feColorMatrix type="matrix" values="0 0 0 0 0 0 0 0 0 1 0 0 0 0 1 0 0 0 0.55 0"/>
<feBlend mode="normal" in2="shape" result="effect1_innerShadow_2_636"/>
</filter>
<filter id="filter12_i_2_636" x="341" y="111.99" width="76" height="69.0095" filterUnits="userSpaceOnUse" color-interpolation-filters="sRGB">
<feFlood flood-opacity="0" result="BackgroundImageFix"/>
<feBlend mode="normal" in="SourceGraphic" in2="BackgroundImageFix" result="shape"/>
<feColorMatrix in="SourceAlpha" type="matrix" values="0 0 0 0 0 0 0 0 0 0 0 0 0 0 0 0 0 0 127 0" result="hardAlpha"/>
<feOffset dx="15" dy="15"/>
<feGaussianBlur stdDeviation="2"/>
<feComposite in2="hardAlpha" operator="arithmetic" k2="-1" k3="1"/>
<feColorMatrix type="matrix" values="0 0 0 0 0 0 0 0 0 1 0 0 0 0 1 0 0 0 0.55 0"/>
<feBlend mode="normal" in2="shape" result="effect1_innerShadow_2_636"/>
</filter>
<filter id="filter13_i_2_636" x="224" y="232" width="81.5312" height="87.5398" filterUnits="userSpaceOnUse" color-interpolation-filters="sRGB">
<feFlood flood-opacity="0" result="BackgroundImageFix"/>
<feBlend mode="normal" in="SourceGraphic" in2="BackgroundImageFix" result="shape"/>
<feColorMatrix in="SourceAlpha" type="matrix" values="0 0 0 0 0 0 0 0 0 0 0 0 0 0 0 0 0 0 127 0" result="hardAlpha"/>
<feOffset dx="15" dy="15"/>
<feGaussianBlur stdDeviation="2"/>
<feComposite in2="hardAlpha" operator="arithmetic" k2="-1" k3="1"/>
<feColorMatrix type="matrix" values="0 0 0 0 0 0 0 0 0 1 0 0 0 0 1 0 0 0 0.55 0"/>
<feBlend mode="normal" in2="shape" result="effect1_innerShadow_2_636"/>
</filter>
<filter id="filter14_i_2_636" x="451" y="242.111" width="72.8389" height="73.8884" filterUnits="userSpaceOnUse" color-interpolation-filters="sRGB">
<feFlood flood-opacity="0" result="BackgroundImageFix"/>
<feBlend mode="normal" in="SourceGraphic" in2="BackgroundImageFix" result="shape"/>
<feColorMatrix in="SourceAlpha" type="matrix" values="0 0 0 0 0 0 0 0 0 0 0 0 0 0 0 0 0 0 127 0" result="hardAlpha"/>
<feOffset dx="15" dy="15"/>
<feGaussianBlur stdDeviation="2"/>
<feComposite in2="hardAlpha" operator="arithmetic" k2="-1" k3="1"/>
<feColorMatrix type="matrix" values="0 0 0 0 0 0 0 0 0 1 0 0 0 0 1 0 0 0 0.55 0"/>
<feBlend mode="normal" in2="shape" result="effect1_innerShadow_2_636"/>
</filter>
<filter id="filter15_i_2_636" x="341" y="241.99" width="76" height="69.0095" filterUnits="userSpaceOnUse" color-interpolation-filters="sRGB">
<feFlood flood-opacity="0" result="BackgroundImageFix"/>
<feBlend mode="normal" in="SourceGraphic" in2="BackgroundImageFix" result="shape"/>
<feColorMatrix in="SourceAlpha" type="matrix" values="0 0 0 0 0 0 0 0 0 0 0 0 0 0 0 0 0 0 127 0" result="hardAlpha"/>
<feOffset dx="15" dy="15"/>
<feGaussianBlur stdDeviation="2"/>
<feComposite in2="hardAlpha" operator="arithmetic" k2="-1" k3="1"/>
<feColorMatrix type="matrix" values="0 0 0 0 0 0 0 0 0 1 0 0 0 0 1 0 0 0 0.55 0"/>
<feBlend mode="normal" in2="shape" result="effect1_innerShadow_2_636"/>
</filter>
<filter id="filter16_d_2_636" x="238" y="881" width="87.5312" height="91.5398" filterUnits="userSpaceOnUse" color-interpolation-filters="sRGB">
<feFlood flood-opacity="0" result="BackgroundImageFix"/>
<feColorMatrix in="SourceAlpha" type="matrix" values="0 0 0 0 0 0 0 0 0 0 0 0 0 0 0 0 0 0 127 0" result="hardAlpha"/>
<feOffset dx="6" dy="4"/>
<feGaussianBlur stdDeviation="2"/>
<feColorMatrix type="matrix" values="0 0 0 0 1 0 0 0 0 0 0 0 0 0 0 0 0 0 0.55 0"/>
<feBlend mode="normal" in2="BackgroundImageFix" result="effect1_dropShadow_2_636"/>
<feBlend mode="normal" in="SourceGraphic" in2="effect1_dropShadow_2_636" result="shape"/>
</filter>
<filter id="filter17_d_2_636" x="238" y="762" width="87.5312" height="91.5398" filterUnits="userSpaceOnUse" color-interpolation-filters="sRGB">
<feFlood flood-opacity="0" result="BackgroundImageFix"/>
<feColorMatrix in="SourceAlpha" type="matrix" values="0 0 0 0 0 0 0 0 0 0 0 0 0 0 0 0 0 0 127 0" result="hardAlpha"/>
<feOffset dx="6" dy="4"/>
<feGaussianBlur stdDeviation="2"/>
<feColorMatrix type="matrix" values="0 0 0 0 1 0 0 0 0 0 0 0 0 0 0 0 0 0 0.55 0"/>
<feBlend mode="normal" in2="BackgroundImageFix" result="effect1_dropShadow_2_636"/>
<feBlend mode="normal" in="SourceGraphic" in2="effect1_dropShadow_2_636" result="shape"/>
</filter>
<filter id="filter18_d_2_636" x="465" y="891.111" width="78.8389" height="77.8884" filterUnits="userSpaceOnUse" color-interpolation-filters="sRGB">
<feFlood flood-opacity="0" result="BackgroundImageFix"/>
<feColorMatrix in="SourceAlpha" type="matrix" values="0 0 0 0 0 0 0 0 0 0 0 0 0 0 0 0 0 0 127 0" result="hardAlpha"/>
<feOffset dx="6" dy="4"/>
<feGaussianBlur stdDeviation="2"/>
<feColorMatrix type="matrix" values="0 0 0 0 1 0 0 0 0 0 0 0 0 0 0 0 0 0 0.55 0"/>
<feBlend mode="normal" in2="BackgroundImageFix" result="effect1_dropShadow_2_636"/>
<feBlend mode="normal" in="SourceGraphic" in2="effect1_dropShadow_2_636" result="shape"/>
</filter>
<filter id="filter19_d_2_636" x="465" y="772.111" width="78.8389" height="77.8884" filterUnits="userSpaceOnUse" color-interpolation-filters="sRGB">
<feFlood flood-opacity="0" result="BackgroundImageFix"/>
<feColorMatrix in="SourceAlpha" type="matrix" values="0 0 0 0 0 0 0 0 0 0 0 0 0 0 0 0 0 0 127 0" result="hardAlpha"/>
<feOffset dx="6" dy="4"/>
<feGaussianBlur stdDeviation="2"/>
<feComposite in2="hardAlpha" operator="out"/>
<feColorMatrix type="matrix" values="0 0 0 0 1 0 0 0 0 0 0 0 0 0 0 0 0 0 0.55 0"/>
<feBlend mode="normal" in2="BackgroundImageFix" result="effect1_dropShadow_2_636"/>
<feBlend mode="normal" in="SourceGraphic" in2="effect1_dropShadow_2_636" result="shape"/>
</filter>
<filter id="filter20_d_2_636" x="355" y="890.99" width="82" height="73.0095" filterUnits="userSpaceOnUse" color-interpolation-filters="sRGB">
<feFlood flood-opacity="0" result="BackgroundImageFix"/>
<feColorMatrix in="SourceAlpha" type="matrix" values="0 0 0 0 0 0 0 0 0 0 0 0 0 0 0 0 0 0 127 0" result="hardAlpha"/>
<feOffset dx="6" dy="4"/>
<feGaussianBlur stdDeviation="2"/>
<feColorMatrix type="matrix" values="0 0 0 0 1 0 0 0 0 0 0 0 0 0 0 0 0 0 0.55 0"/>
<feBlend mode="normal" in2="BackgroundImageFix" result="effect1_dropShadow_2_636"/>
<feBlend mode="normal" in="SourceGraphic" in2="effect1_dropShadow_2_636" result="shape"/>
</filter>
<filter id="filter21_d_2_636" x="355" y="771.99" width="82" height="73.0095" filterUnits="userSpaceOnUse" color-interpolation-filters="sRGB">
<feFlood flood-opacity="0" result="BackgroundImageFix"/>
<feColorMatrix in="SourceAlpha" type="matrix" values="0 0 0 0 0 0 0 0 0 0 0 0 0 0 0 0 0 0 127 0" result="hardAlpha"/>
<feOffset dx="6" dy="4"/>
<feGaussianBlur stdDeviation="2"/>
<feColorMatrix type="matrix" values="0 0 0 0 1 0 0 0 0 0 0 0 0 0 0 0 0 0 0.55 0"/>
<feBlend mode="normal" in2="BackgroundImageFix" result="effect1_dropShadow_2_636"/>
<feBlend mode="normal" in="SourceGraphic" in2="effect1_dropShadow_2_636" result="shape"/>
</filter>
<filter id="filter22_di_2_636" x="351" y="634.994" width="78" height="69.0056" filterUnits="userSpaceOnUse" color-interpolation-filters="sRGB">
<feFlood flood-opacity="0" result="BackgroundImageFix"/>
<feColorMatrix in="SourceAlpha" type="matrix" values="0 0 0 0 0 0 0 0 0 0 0 0 0 0 0 0 0 0 127 0" result="hardAlpha"/>
<feOffset dx="6" dy="4"/>
<feGaussianBlur stdDeviation="2"/>
<feColorMatrix type="matrix" values="0 0 0 0 1 0 0 0 0 0 0 0 0 0 0 0 0 0 0.55 0"/>
<feBlend mode="normal" in2="BackgroundImageFix" result="effect1_dropShadow_2_636"/>
<feBlend mode="normal" in="SourceGraphic" in2="effect1_dropShadow_2_636" result="shape"/>
<feColorMatrix in="SourceAlpha" type="matrix" values="0 0 0 0 0 0 0 0 0 0 0 0 0 0 0 0 0 0 127 0" result="hardAlpha"/>
<feOffset dx="15" dy="15"/>
<feGaussianBlur stdDeviation="2"/>
<feComposite in2="hardAlpha" operator="arithmetic" k2="-1" k3="1"/>
<feColorMatrix type="matrix" values="0 0 0 0 0 0 0 0 0 1 0 0 0 0 1 0 0 0 0.55 0"/>
<feBlend mode="normal" in2="shape" result="effect2_innerShadow_2_636"/>
</filter>
<filter id="filter23_di_2_636" x="258" y="625" width="84.1189" height="88.1238" filterUnits="userSpaceOnUse" color-interpolation-filters="sRGB">
<feFlood flood-opacity="0" result="BackgroundImageFix"/>
<feColorMatrix in="SourceAlpha" type="matrix" values="0 0 0 0 0 0 0 0 0 0 0 0 0 0 0 0 0 0 127 0" result="hardAlpha"/>
<feOffset dx="6" dy="4"/>
<feGaussianBlur stdDeviation="2"/>
<feColorMatrix type="matrix" values="0 0 0 0 1 0 0 0 0 0 0 0 0 0 0 0 0 0 0.55 0"/>
<feBlend mode="normal" in2="BackgroundImageFix" result="effect1_dropShadow_2_636"/>
<feBlend mode="normal" in="SourceGraphic" in2="effect1_dropShadow_2_636" result="shape"/>
<feColorMatrix in="SourceAlpha" type="matrix" values="0 0 0 0 0 0 0 0 0 0 0 0 0 0 0 0 0 0 127 0" result="hardAlpha"/>
<feOffset dx="15" dy="15"/>
<feGaussianBlur stdDeviation="2"/>
<feComposite in2="hardAlpha" operator="arithmetic" k2="-1" k3="1"/>
<feColorMatrix type="matrix" values="0 0 0 0 0 0 0 0 0 1 0 0 0 0 1 0 0 0 0.55 0"/>
<feBlend mode="normal" in2="shape" result="effect2_innerShadow_2_636"/>
</filter>
<filter id="filter24_di_2_636" x="437" y="633.467" width="74.8386" height="75.533" filterUnits="userSpaceOnUse" color-interpolation-filters="sRGB">
<feFlood flood-opacity="0" result="BackgroundImageFix"/>
<feColorMatrix in="SourceAlpha" type="matrix" values="0 0 0 0 0 0 0 0 0 0 0 0 0 0 0 0 0 0 127 0" result="hardAlpha"/>
<feOffset dx="6" dy="4"/>
<feGaussianBlur stdDeviation="2"/>
<feColorMatrix type="matrix" values="0 0 0 0 1 0 0 0 0 0 0 0 0 0 0 0 0 0 0.55 0"/>
<feBlend mode="normal" in2="BackgroundImageFix" result="effect1_dropShadow_2_636"/>
<feBlend mode="normal" in="SourceGraphic" in2="effect1_dropShadow_2_636" result="shape"/>
<feColorMatrix in="SourceAlpha" type="matrix" values="0 0 0 0 0 0 0 0 0 0 0 0 0 0 0 0 0 0 127 0" result="hardAlpha"/>
<feOffset dx="15" dy="15"/>
<feGaussianBlur stdDeviation="2"/>
<feComposite in2="hardAlpha" operator="arithmetic" k2="-1" k3="1"/>
<feColorMatrix type="matrix" values="0 0 0 0 0 0 0 0 0 1 0 0 0 0 1 0 0 0 0.55 0"/>
<feBlend mode="normal" in2="shape" result="effect2_innerShadow_2_636"/>
</filter>
<filter id="filter25_i_2_636" x="229" y="399" width="73" height="79" filterUnits="userSpaceOnUse" color-interpolation-filters="sRGB">
<feFlood flood-opacity="0" result="BackgroundImageFix"/>
<feBlend mode="normal" in="SourceGraphic" in2="BackgroundImageFix" result="shape"/>
<feColorMatrix in="SourceAlpha" type="matrix" values="0 0 0 0 0 0 0 0 0 0 0 0 0 0 0 0 0 0 127 0" result="hardAlpha"/>
<feOffset dx="15" dy="15"/>
<feGaussianBlur stdDeviation="2"/>
<feComposite in2="hardAlpha" operator="arithmetic" k2="-1" k3="1"/>
<feColorMatrix type="matrix" values="0 0 0 0 0 0 0 0 0 1 0 0 0 0 1 0 0 0 0.55 0"/>
<feBlend mode="normal" in2="shape" result="effect1_innerShadow_2_636"/>
</filter>
<filter id="filter26_i_2_636" x="346" y="409" width="66" height="59" filterUnits="userSpaceOnUse" color-interpolation-filters="sRGB">
<feFlood flood-opacity="0" result="BackgroundImageFix"/>
<feBlend mode="normal" in="SourceGraphic" in2="BackgroundImageFix" result="shape"/>
<feColorMatrix in="SourceAlpha" type="matrix" values="0 0 0 0 0 0 0 0 0 0 0 0 0 0 0 0 0 0 127 0" result="hardAlpha"/>
<feOffset dx="15" dy="15"/>
<feGaussianBlur stdDeviation="2"/>
<feComposite in2="hardAlpha" operator="arithmetic" k2="-1" k3="1"/>
<feColorMatrix type="matrix" values="0 0 0 0 0 0 0 0 0 1 0 0 0 0 1 0 0 0 0.55 0"/>
<feBlend mode="normal" in2="shape" result="effect1_innerShadow_2_636"/>
</filter>
<filter id="filter27_i_2_636" x="229" y="493" width="73" height="79" filterUnits="userSpaceOnUse" color-interpolation-filters="sRGB">
<feFlood flood-opacity="0" result="BackgroundImageFix"/>
<feBlend mode="normal" in="SourceGraphic" in2="BackgroundImageFix" result="shape"/>
<feColorMatrix in="SourceAlpha" type="matrix" values="0 0 0 0 0 0 0 0 0 0 0 0 0 0 0 0 0 0 127 0" result="hardAlpha"/>
<feOffset dx="15" dy="15"/>
<feGaussianBlur stdDeviation="2"/>
<feComposite in2="hardAlpha" operator="arithmetic" k2="-1" k3="1"/>
<feColorMatrix type="matrix" values="0 0 0 0 0 0 0 0 0 1 0 0 0 0 1 0 0 0 0.55 0"/>
<feBlend mode="normal" in2="shape" result="effect1_innerShadow_2_636"/>
</filter>
<filter id="filter28_i_2_636" x="346" y="503" width="66" height="59" filterUnits="userSpaceOnUse" color-interpolation-filters="sRGB">
<feFlood flood-opacity="0" result="BackgroundImageFix"/>
<feBlend mode="normal" in="SourceGraphic" in2="BackgroundImageFix" result="shape"/>
<feColorMatrix in="SourceAlpha" type="matrix" values="0 0 0 0 0 0 0 0 0 0 0 0 0 0 0 0 0 0 127 0" result="hardAlpha"/>
<feOffset dx="15" dy="15"/>
<feGaussianBlur stdDeviation="2"/>
<feComposite in2="hardAlpha" operator="arithmetic" k2="-1" k3="1"/>
<feColorMatrix type="matrix" values="0 0 0 0 0 0 0 0 0 1 0 0 0 0 1 0 0 0 0.55 0"/>
<feBlend mode="normal" in2="shape" result="effect1_innerShadow_2_636"/>
</filter>
</defs>
</svg>
