<svg width="269" height="175" viewBox="0 0 269 175" fill="none" xmlns="http://www.w3.org/2000/svg">
<rect width="269" height="175" fill="white"/>
<g clip-path="url(#clip0_1_110941)">
<rect x="69" y="17" width="152.92" height="120" fill="#F57DFF"/>
<path d="M101.92 22.3098L111.1 48.9096H140.804L116.773 65.3492L125.952 91.949L101.92 75.5094L77.8888 91.949L87.068 65.3492L63.0365 48.9096H92.7411L101.92 22.3098Z" fill="#7728B6"/>
<path d="M197.5 164.92C230.524 164.92 256.92 136.087 256.92 101C256.92 65.9125 230.524 37.0796 197.5 37.0796C164.476 37.0796 138.08 65.9125 138.08 101C138.08 136.087 164.476 164.92 197.5 164.92Z" fill="#47F4FF" stroke="#302DD3" stroke-width="5.84071"/>
<g opacity="0.8">
<g clip-path="url(#clip1_1_110941)">
<rect x="56" y="71" width="112" height="104" fill="#75A4FF"/>
<path d="M126.885 122.239C134.517 122.239 141.219 118.165 145.917 111.989C150.613 105.815 153.434 97.4146 153.434 88.2565C153.434 79.0985 150.613 70.6982 145.917 64.5243C141.219 58.3482 134.517 54.2742 126.885 54.2742C119.253 54.2742 112.551 58.3482 107.853 64.5243C103.157 70.6982 100.336 79.0985 100.336 88.2565C100.336 97.4146 103.157 105.815 107.853 111.989C112.551 118.165 119.253 122.239 126.885 122.239Z" fill="#0C2324" stroke="#F8FFCA" stroke-width="5.84071"/>
<path d="M89.7169 133.389C96.7346 133.389 103.221 131.509 108.038 128.315C112.834 125.136 116.266 120.419 116.266 114.805C116.266 109.192 112.834 104.475 108.038 101.295C103.221 98.1016 96.7346 96.2212 89.7169 96.2212C82.6993 96.2212 76.2133 98.1016 71.3956 101.295C66.5998 104.475 63.1683 109.192 63.1683 114.805C63.1683 120.419 66.5998 125.136 71.3956 128.315C76.2133 131.509 82.6993 133.389 89.7169 133.389Z" stroke="#FFD3CA" stroke-width="5.84071"/>
</g>
<rect x="56" y="71" width="112" height="104" stroke="white" stroke-width="5.84071"/>
</g>
</g>
<rect x="69" y="17" width="152.92" height="120" stroke="#FFEF5B" stroke-width="3"/>
<rect x="10" y="87" width="72" height="72" fill="#E03B3B" stroke="black" stroke-width="4"/>
<defs>
<clipPath id="clip0_1_110941">
<rect x="69" y="17" width="152.92" height="120" fill="white"/>
</clipPath>
<clipPath id="clip1_1_110941">
<rect x="56" y="71" width="112" height="104" fill="white"/>
</clipPath>
</defs>
</svg>
