<svg width="492" height="528" viewBox="0 0 492 528" fill="none" xmlns="http://www.w3.org/2000/svg">
<g clip-path="url(#clip0_42_101)">
<rect width="240" height="100" rx="50" transform="matrix(-1 0 0 1 357 214)" fill="#347496"/>
<g opacity="0.45">
<path d="M163.445 315.583C164.176 315.186 164.739 314.535 165.028 313.756C168.656 303.97 178.031 297 189.026 297C198.908 297 207.482 302.631 211.75 310.877C212.507 312.338 214.204 313.103 215.822 312.802C216.885 312.604 217.982 312.5 219.103 312.5C228.987 312.5 237 320.559 237 330.5C237 340.441 228.987 348.5 219.103 348.5C214.799 348.5 210.85 346.972 207.763 344.426C206.491 343.377 204.63 343.233 203.263 344.155C202.592 344.607 201.898 345.029 201.183 345.417C200.453 345.815 199.89 346.465 199.6 347.244C195.973 357.03 186.597 364 175.603 364C161.463 364 150 352.471 150 338.25C150 328.454 155.439 319.936 163.445 315.583Z" fill="#D0E7F6"/>
<path d="M164.257 321.561C164.983 321.155 165.548 320.507 165.85 319.731C168.758 312.28 176.013 307 184.503 307C191.995 307 198.526 311.112 201.955 317.2C202.76 318.628 204.45 319.387 206.075 319.163C206.708 319.075 207.354 319.03 208.011 319.03C215.737 319.03 222 325.285 222 333C222 340.715 215.737 346.97 208.011 346.97C204.877 346.97 201.983 345.94 199.65 344.201C198.335 343.22 196.489 343.074 195.097 343.943C194.822 344.115 194.542 344.28 194.257 344.439C193.531 344.845 192.966 345.493 192.664 346.269C189.756 353.72 182.501 359 174.011 359C162.959 359 154 350.052 154 339.015C154 331.515 158.137 324.979 164.257 321.561Z" fill="#E3F1F5"/>
</g>
<g opacity="0.45">
<path d="M135.831 274.377C134.808 274.377 133.81 274.498 132.848 274.726C132.398 274.833 131.924 274.649 131.679 274.256C130.672 272.638 129.514 271.143 128.228 269.798C128.113 269.677 128.028 269.529 127.982 269.369C124.73 258.132 115.233 250 104.024 250C95.4857 250 87.9409 254.719 83.3932 261.933C83.1727 262.283 82.7659 262.47 82.3565 262.412C81.3086 262.265 80.2406 262.189 79.1566 262.189C65.263 262.189 54 274.682 54 290.094C54 305.506 65.263 318 79.1566 318C84.8773 318 90.1521 315.882 94.3782 312.314C94.7711 311.982 95.3494 311.982 95.7423 312.314C99.9684 315.882 105.243 318 110.964 318C119.555 318 127.141 313.223 131.679 305.932C131.924 305.54 132.398 305.355 132.848 305.462C133.81 305.691 134.808 305.811 135.831 305.811C143.656 305.811 150 298.775 150 290.094C150 281.414 143.656 274.377 135.831 274.377Z" fill="#D0E7F6"/>
<path d="M134.75 279C133.884 279 133.038 279.09 132.223 279.261C131.797 279.35 131.354 279.183 131.105 278.826C130.258 277.611 129.29 276.487 128.219 275.47C128.092 275.35 127.997 275.199 127.943 275.032C125.112 266.308 116.918 260 107.25 260C99.8998 260 93.4012 263.646 89.464 269.228C89.239 269.547 88.8556 269.717 88.4682 269.668C87.5777 269.557 86.6705 269.5 85.75 269.5C73.7378 269.5 64 279.238 64 291.25C64 303.262 73.7378 313 85.75 313C90.6724 313 95.2129 311.365 98.8579 308.608C99.237 308.321 99.763 308.321 100.142 308.608C103.787 311.365 108.328 313 113.25 313C120.643 313 127.175 309.311 131.105 303.674C131.354 303.317 131.797 303.15 132.223 303.239C133.038 303.41 133.884 303.5 134.75 303.5C141.516 303.5 147 298.015 147 291.25C147 284.485 141.516 279 134.75 279Z" fill="#E3F1F5"/>
</g>
<g filter="url(#filter0_di_42_101)">
<circle cx="45" cy="45" r="45" transform="matrix(-0.34202 -0.939693 -0.939693 0.34202 294.996 292.161)" fill="#DDDDDD"/>
<circle cx="45" cy="45" r="45" transform="matrix(-0.34202 -0.939693 -0.939693 0.34202 294.996 292.161)" fill="#F6D35A" fill-opacity="0.1"/>
</g>
<g opacity="0.6" filter="url(#filter1_dii_42_101)">
<path fill-rule="evenodd" clip-rule="evenodd" d="M279.5 250C276.462 250 274 252.462 274 255.5C274 258.538 276.462 261 279.5 261C280.425 261 281.297 260.772 282.062 260.368C281.68 256.902 280.886 253.426 279.651 250.002C279.601 250.001 279.55 250 279.5 250ZM265.976 230.561C265.992 230.705 266 230.852 266 231C266 233.209 264.209 235 262 235C259.791 235 258 233.209 258 231C258 229.083 259.348 227.481 261.149 227.091C262.828 228.138 264.442 229.296 265.976 230.561ZM210.207 229.335C211.846 230.007 213 231.619 213 233.5C213 235.985 210.985 238 208.5 238C206.466 238 204.747 236.65 204.19 234.797C206.011 232.814 208.022 230.982 210.207 229.335ZM192.455 268.914C193.147 268.343 194.033 268 195 268C197.209 268 199 269.791 199 272C199 274.209 197.209 276 195 276C194.488 276 193.998 275.904 193.548 275.728C193.003 273.461 192.641 271.183 192.455 268.914ZM217 255.5C217 252.462 219.462 250 222.5 250C225.538 250 228 252.462 228 255.5C228 258.538 225.538 261 222.5 261C219.462 261 217 258.538 217 255.5ZM228 232.5C228 227.806 231.806 224 236.5 224C241.194 224 245 227.806 245 232.5C245 237.194 241.194 241 236.5 241C231.806 241 228 237.194 228 232.5Z" fill="#999999" fill-opacity="0.5" shape-rendering="crispEdges"/>
</g>
<mask id="mask0_42_101" style="mask-type:alpha" maskUnits="userSpaceOnUse" x="233" y="279" width="61" height="61">
<circle cx="30" cy="30" r="30" transform="matrix(-0.34202 -0.939693 -0.939693 0.34202 302 327.218)" fill="#C4C4C4"/>
</mask>
<g mask="url(#mask0_42_101)">
<rect width="256" height="98" transform="matrix(0 -1 -1 0 285 464)" fill="#347496"/>
</g>
<g opacity="0.25">
<path opacity="0.5" d="M353.267 283.979C353.074 284.543 352.272 284.528 352.1 283.958C352.023 283.703 351.79 283.527 351.524 283.522C350.929 283.511 350.699 282.741 351.186 282.398C351.403 282.245 351.499 281.966 351.422 281.712C351.25 281.143 351.903 280.677 352.375 281.037C352.588 281.199 352.881 281.204 353.099 281.05C353.584 280.708 354.22 281.199 354.027 281.76C353.941 282.012 354.026 282.294 354.238 282.455C354.712 282.816 354.454 283.577 353.859 283.565C353.592 283.56 353.353 283.728 353.267 283.979Z" fill="#F4FEFF"/>
<path opacity="0.5" d="M337.7 257.803C337.507 258.366 336.705 258.351 336.533 257.781C336.456 257.526 336.223 257.35 335.957 257.345C335.362 257.334 335.132 256.564 335.619 256.221C335.836 256.068 335.931 255.789 335.855 255.535C335.683 254.966 336.336 254.5 336.808 254.86C337.021 255.022 337.314 255.027 337.532 254.873C338.017 254.531 338.653 255.022 338.46 255.583C338.374 255.835 338.459 256.117 338.671 256.278C339.145 256.639 338.887 257.4 338.291 257.388C338.025 257.384 337.786 257.551 337.7 257.803Z" fill="#F4FEFF"/>
<path opacity="0.75" d="M335.989 279.516C335.699 280.361 334.497 280.338 334.239 279.483C334.123 279.101 333.774 278.837 333.375 278.83C332.482 278.813 332.137 277.658 332.867 277.144C333.193 276.914 333.336 276.496 333.221 276.115C332.963 275.262 333.943 274.563 334.651 275.102C334.97 275.345 335.409 275.353 335.737 275.122C336.465 274.61 337.418 275.345 337.129 276.187C337 276.565 337.128 276.988 337.445 277.229C338.156 277.77 337.769 278.912 336.876 278.895C336.477 278.888 336.118 279.139 335.989 279.516Z" fill="#F4FEFF"/>
<path d="M322.479 284.311C322.383 284.593 321.982 284.585 321.896 284.3C321.858 284.173 321.741 284.085 321.608 284.082C321.31 284.077 321.196 283.692 321.439 283.52C321.547 283.444 321.595 283.304 321.557 283.177C321.471 282.893 321.797 282.66 322.034 282.84C322.14 282.921 322.286 282.923 322.395 282.846C322.638 282.675 322.956 282.921 322.86 283.201C322.817 283.327 322.859 283.468 322.965 283.549C323.202 283.729 323.073 284.11 322.775 284.104C322.642 284.101 322.523 284.185 322.479 284.311Z" fill="#F4FEFF"/>
<path d="M306.912 258.134C306.816 258.416 306.415 258.408 306.329 258.123C306.291 257.996 306.174 257.908 306.041 257.905C305.744 257.9 305.629 257.515 305.872 257.343C305.981 257.267 306.028 257.127 305.99 257C305.904 256.716 306.231 256.483 306.467 256.663C306.573 256.744 306.719 256.746 306.829 256.669C307.071 256.498 307.389 256.744 307.293 257.024C307.25 257.15 307.292 257.291 307.398 257.372C307.635 257.552 307.506 257.933 307.208 257.927C307.075 257.925 306.956 258.008 306.912 258.134Z" fill="#F4FEFF"/>
</g>
</g>
<rect x="1.5" y="-1.5" width="243" height="103" rx="51.5" transform="matrix(-1 0 0 1 360 214)" stroke="#40647F" stroke-opacity="0.3" stroke-width="3"/>
<g filter="url(#filter2_d_42_101)">
<g clip-path="url(#clip1_42_101)">
<rect width="240" height="100" rx="50" transform="matrix(-1 0 0 1 410 122)" fill="#478FB4" shape-rendering="crispEdges"/>
<g opacity="0.66">
<path d="M216.445 208.583C217.176 208.186 217.739 207.535 218.028 206.756C221.656 196.97 231.031 190 242.026 190C251.908 190 260.482 195.631 264.75 203.877C265.507 205.338 267.204 206.103 268.822 205.802C269.885 205.604 270.982 205.5 272.103 205.5C281.987 205.5 290 213.559 290 223.5C290 233.441 281.987 241.5 272.103 241.5C267.799 241.5 263.85 239.972 260.763 237.426C259.491 236.377 257.63 236.233 256.263 237.155C255.592 237.607 254.898 238.029 254.183 238.417C253.453 238.815 252.89 239.465 252.6 240.244C248.973 250.03 239.597 257 228.603 257C214.463 257 203 245.471 203 231.25C203 221.454 208.439 212.936 216.445 208.583Z" fill="#D0E7F6"/>
<path d="M217.257 214.561C217.983 214.155 218.548 213.507 218.85 212.731C221.758 205.28 229.013 200 237.503 200C244.995 200 251.526 204.112 254.955 210.2C255.76 211.628 257.45 212.387 259.075 212.163C259.708 212.075 260.354 212.03 261.011 212.03C268.737 212.03 275 218.285 275 226C275 233.715 268.737 239.97 261.011 239.97C257.877 239.97 254.983 238.94 252.65 237.201C251.335 236.22 249.489 236.074 248.097 236.943C247.822 237.115 247.542 237.28 247.257 237.439C246.531 237.845 245.966 238.493 245.664 239.269C242.756 246.72 235.501 252 227.011 252C215.959 252 207 243.052 207 232.015C207 224.515 211.137 217.979 217.257 214.561Z" fill="#E3F1F5"/>
</g>
<g opacity="0.66">
<path d="M208.831 182.377C207.808 182.377 206.81 182.498 205.848 182.726C205.398 182.833 204.924 182.649 204.679 182.256C203.672 180.638 202.514 179.143 201.228 177.798C201.113 177.677 201.028 177.529 200.982 177.369C197.73 166.132 188.233 158 177.024 158C168.486 158 160.941 162.719 156.393 169.933C156.173 170.283 155.766 170.47 155.357 170.412C154.309 170.265 153.241 170.189 152.157 170.189C138.263 170.189 127 182.682 127 198.094C127 213.506 138.263 226 152.157 226C157.877 226 163.152 223.882 167.378 220.314C167.771 219.982 168.349 219.982 168.742 220.314C172.968 223.882 178.243 226 183.964 226C192.555 226 200.141 221.223 204.679 213.932C204.924 213.54 205.398 213.355 205.848 213.462C206.81 213.691 207.808 213.811 208.831 213.811C216.656 213.811 223 206.775 223 198.094C223 189.414 216.656 182.377 208.831 182.377Z" fill="#D0E7F6"/>
<path d="M207.75 187C206.884 187 206.038 187.09 205.223 187.261C204.797 187.35 204.354 187.183 204.105 186.826C203.258 185.611 202.29 184.487 201.219 183.47C201.092 183.35 200.997 183.199 200.943 183.032C198.112 174.308 189.918 168 180.25 168C172.9 168 166.401 171.646 162.464 177.228C162.239 177.547 161.856 177.717 161.468 177.668C160.578 177.557 159.671 177.5 158.75 177.5C146.738 177.5 137 187.238 137 199.25C137 211.262 146.738 221 158.75 221C163.672 221 168.213 219.365 171.858 216.608C172.237 216.321 172.763 216.321 173.142 216.608C176.787 219.365 181.328 221 186.25 221C193.643 221 200.175 217.311 204.105 211.674C204.354 211.317 204.797 211.15 205.223 211.239C206.038 211.41 206.884 211.5 207.75 211.5C214.516 211.5 220 206.015 220 199.25C220 192.485 214.516 187 207.75 187Z" fill="#E3F1F5"/>
</g>
<g filter="url(#filter3_di_42_101)">
<circle cx="45" cy="45" r="45" transform="matrix(0.406737 -0.913545 -0.913545 -0.406737 357.786 232.544)" fill="#DDDDDD"/>
<circle cx="45" cy="45" r="45" transform="matrix(0.406737 -0.913545 -0.913545 -0.406737 357.786 232.544)" fill="#F6D35A" fill-opacity="0.5"/>
</g>
<g opacity="0.3" filter="url(#filter4_dii_42_101)">
<path fill-rule="evenodd" clip-rule="evenodd" d="M375.927 191.452C373.742 189.342 370.26 189.403 368.15 191.588C366.04 193.773 366.101 197.255 368.286 199.365C368.951 200.008 369.737 200.449 370.568 200.69C372.7 197.931 374.544 194.879 376.034 191.559C375.999 191.523 375.963 191.487 375.927 191.452ZM379.702 168.075C379.613 168.189 379.518 168.3 379.415 168.407C377.88 169.996 375.348 170.04 373.759 168.506C372.169 166.971 372.125 164.439 373.66 162.85C374.991 161.471 377.074 161.255 378.64 162.225C379.121 164.145 379.477 166.099 379.702 168.075ZM340.437 128.452C341.149 130.074 340.86 132.035 339.553 133.388C337.826 135.176 334.978 135.226 333.19 133.499C331.727 132.086 331.428 129.921 332.314 128.201C335.002 128.04 337.72 128.119 340.437 128.452ZM300.174 144.591C301.068 144.661 301.944 145.03 302.639 145.702C304.228 147.236 304.272 149.769 302.738 151.358C301.203 152.947 298.671 152.991 297.082 151.456C296.713 151.101 296.428 150.691 296.226 150.252C297.409 148.242 298.731 146.353 300.174 144.591ZM327.148 151.992C329.258 149.807 332.74 149.747 334.925 151.857C337.11 153.967 337.171 157.449 335.061 159.634C332.95 161.819 329.469 161.88 327.284 159.769C325.098 157.659 325.038 154.178 327.148 151.992ZM351.038 143.089C354.299 139.712 359.68 139.618 363.057 142.879C366.434 146.14 366.527 151.521 363.266 154.898C360.005 158.275 354.624 158.369 351.247 155.108C347.871 151.847 347.777 146.466 351.038 143.089Z" fill="#999999" fill-opacity="0.5" shape-rendering="crispEdges"/>
</g>
<mask id="mask1_42_101" style="mask-type:alpha" maskUnits="userSpaceOnUse" x="287" y="199" width="48" height="48">
<circle cx="23.3682" cy="23.3682" r="23.3682" transform="matrix(0.406737 -0.913545 -0.913545 -0.406737 323.092 254.082)" fill="#C4C4C4"/>
</mask>
<g mask="url(#mask1_42_101)">
<rect width="199.409" height="76.3363" transform="matrix(0.694658 -0.71934 -0.71934 -0.694658 239.554 321.526)" fill="#478FB4"/>
</g>
</g>
<rect x="1.5" y="-1.5" width="243" height="103" rx="51.5" transform="matrix(-1 0 0 1 413 122)" stroke="#40647F" stroke-opacity="0.3" stroke-width="3" shape-rendering="crispEdges"/>
</g>
<g filter="url(#filter5_d_42_101)">
<g clip-path="url(#clip2_42_101)">
<rect width="240" height="100" rx="50" transform="matrix(-1 0 0 1 304 306)" fill="#2A6787" shape-rendering="crispEdges"/>
<rect width="240" height="100" rx="50" transform="matrix(-1 0 0 1 304 306)" fill="#1C5371" shape-rendering="crispEdges"/>
<g filter="url(#filter6_di_42_101)">
<circle cx="45" cy="45" r="45" transform="matrix(-0.766044 -0.642788 -0.642788 0.766044 215.777 351.861)" fill="#DDDDDD"/>
</g>
<g opacity="0.75" filter="url(#filter7_dii_42_101)">
<path fill-rule="evenodd" clip-rule="evenodd" d="M181.277 323.097C178.647 324.616 177.745 327.979 179.264 330.61C180.783 333.241 184.147 334.142 186.777 332.623C187.578 332.161 188.219 331.527 188.68 330.795C186.616 327.984 184.19 325.371 181.409 323.023C181.365 323.047 181.321 323.072 181.277 323.097ZM159.846 313.024C159.932 313.141 160.012 313.264 160.086 313.392C161.19 315.305 160.535 317.752 158.622 318.856C156.709 319.961 154.262 319.305 153.158 317.392C152.199 315.732 152.566 313.671 153.93 312.433C155.908 312.499 157.884 312.696 159.846 313.024ZM110.935 339.847C112.69 339.61 114.496 340.428 115.437 342.057C116.679 344.21 115.942 346.962 113.789 348.204C112.028 349.222 109.864 348.912 108.455 347.586C109.041 344.957 109.866 342.366 110.935 339.847ZM115.351 382.999C115.665 382.159 116.261 381.419 117.098 380.935C119.011 379.831 121.458 380.486 122.562 382.399C123.667 384.312 123.011 386.759 121.098 387.863C120.654 388.12 120.182 388.281 119.704 388.354C118.099 386.663 116.647 384.872 115.351 382.999ZM129.901 359.11C128.382 356.479 129.283 353.116 131.914 351.597C134.544 350.078 137.908 350.979 139.427 353.61C140.946 356.241 140.044 359.604 137.414 361.123C134.783 362.642 131.419 361.741 129.901 359.11ZM127.927 333.691C125.58 329.626 126.973 324.427 131.038 322.08C135.104 319.733 140.302 321.126 142.649 325.191C144.997 329.257 143.604 334.455 139.538 336.803C135.473 339.15 130.274 337.757 127.927 333.691Z" fill="#999999" fill-opacity="0.5" shape-rendering="crispEdges"/>
</g>
<mask id="mask2_42_101" style="mask-type:alpha" maskUnits="userSpaceOnUse" x="145" y="348" width="81" height="81">
<circle cx="40" cy="40" r="40" transform="matrix(-0.766044 -0.642788 -0.642788 0.766044 242.35 383.879)" fill="#C4C4C4"/>
</mask>
<g mask="url(#mask2_42_101)">
<rect width="250" height="98" transform="matrix(-0.5 -0.866025 -0.866025 0.5 292.04 503.944)" fill="#1C5371"/>
</g>
<g opacity="0.3">
<path d="M110.445 420.583C111.176 420.186 111.739 419.535 112.028 418.756C115.656 408.97 125.031 402 136.026 402C145.908 402 154.482 407.631 158.75 415.877C159.507 417.338 161.204 418.103 162.822 417.802C163.885 417.604 164.982 417.5 166.103 417.5C175.987 417.5 184 425.559 184 435.5C184 445.441 175.987 453.5 166.103 453.5C161.799 453.5 157.85 451.972 154.763 449.426C153.491 448.377 151.63 448.233 150.263 449.155C149.592 449.607 148.898 450.029 148.183 450.417C147.453 450.815 146.89 451.465 146.6 452.244C142.973 462.03 133.597 469 122.603 469C108.463 469 97 457.471 97 443.25C97 433.454 102.439 424.936 110.445 420.583Z" fill="#D0E7F6"/>
</g>
<g opacity="0.3">
<path d="M64.8313 366.377C63.8081 366.377 62.8102 366.498 61.8484 366.726C61.3982 366.833 60.9236 366.649 60.679 366.256C59.6715 364.638 58.5139 363.143 57.2284 361.798C57.113 361.677 57.0281 361.529 56.9817 361.369C53.7304 350.132 44.2334 342 33.0241 342C24.4857 342 16.9409 346.719 12.3932 353.933C12.1727 354.283 11.7659 354.47 11.3565 354.412C10.3086 354.265 9.24064 354.189 8.15663 354.189C-5.73699 354.189 -17 366.682 -17 382.094C-17 397.506 -5.73699 410 8.15663 410C13.8773 410 19.1521 407.882 23.3782 404.314C23.7711 403.982 24.3494 403.982 24.7423 404.314C28.9684 407.882 34.2432 410 39.9639 410C48.5551 410 56.1405 405.223 60.679 397.932C60.9235 397.54 61.3982 397.355 61.8484 397.462C62.8102 397.691 63.8081 397.811 64.8313 397.811C72.6565 397.811 79 390.775 79 382.094C79 373.414 72.6565 366.377 64.8313 366.377Z" fill="#D0E7F6"/>
<path d="M63.75 371C62.8837 371 62.0384 371.09 61.2229 371.261C60.7968 371.35 60.3536 371.183 60.1046 370.826C59.2577 369.611 58.29 368.487 57.2189 367.47C57.0918 367.35 56.9968 367.199 56.9427 367.032C54.1124 358.308 45.9178 352 36.25 352C28.8998 352 22.4012 355.646 18.464 361.228C18.239 361.547 17.8556 361.717 17.4682 361.668C16.5777 361.557 15.6705 361.5 14.75 361.5C2.73781 361.5 -7 371.238 -7 383.25C-7 395.262 2.73781 405 14.75 405C19.6724 405 24.2129 403.365 27.8579 400.608C28.237 400.321 28.763 400.321 29.1421 400.608C32.7871 403.365 37.3276 405 42.25 405C49.643 405 56.1745 401.311 60.1046 395.674C60.3535 395.317 60.7968 395.15 61.2229 395.239C62.0384 395.41 62.8837 395.5 63.75 395.5C70.5155 395.5 76 390.015 76 383.25C76 376.485 70.5155 371 63.75 371Z" fill="#E3F1F5"/>
</g>
<g opacity="0.5">
<path opacity="0.5" d="M283.119 351.472C283.341 350.791 284.306 350.791 284.528 351.472C284.627 351.777 284.911 351.983 285.232 351.983C285.948 351.983 286.247 352.9 285.668 353.32C285.408 353.508 285.299 353.842 285.399 354.147C285.62 354.827 284.839 355.392 284.259 354.972C283.999 354.784 283.647 354.784 283.388 354.972C282.808 355.392 282.026 354.827 282.248 354.147C282.347 353.842 282.238 353.508 281.979 353.32C281.399 352.9 281.699 351.983 282.415 351.983C282.735 351.983 283.02 351.777 283.119 351.472Z" fill="#F4FEFF"/>
<path opacity="0.5" d="M283.119 351.472C283.341 350.791 284.306 350.791 284.528 351.472C284.627 351.777 284.911 351.983 285.232 351.983C285.948 351.983 286.247 352.9 285.668 353.32C285.408 353.508 285.299 353.842 285.399 354.147C285.62 354.827 284.839 355.392 284.259 354.972C283.999 354.784 283.647 354.784 283.388 354.972C282.808 355.392 282.026 354.827 282.248 354.147C282.347 353.842 282.238 353.508 281.979 353.32C281.399 352.9 281.699 351.983 282.415 351.983C282.735 351.983 283.02 351.777 283.119 351.472Z" fill="#F4FEFF"/>
<path opacity="0.5" d="M270.651 379.705C270.42 380.375 269.466 380.357 269.259 379.68C269.167 379.377 268.89 379.168 268.573 379.162C267.866 379.149 267.586 378.238 268.167 377.834C268.427 377.652 268.54 377.324 268.448 377.021C268.241 376.345 269.024 375.801 269.589 376.227C269.842 376.417 270.19 376.423 270.45 376.242C271.03 375.838 271.793 376.41 271.561 377.079C271.457 377.378 271.559 377.71 271.811 377.901C272.377 378.327 272.064 379.227 271.356 379.214C271.04 379.208 270.755 379.406 270.651 379.705Z" fill="#F4FEFF"/>
<path opacity="0.5" d="M303.287 382.425C303.509 381.743 304.474 381.743 304.696 382.425C304.795 382.729 305.079 382.935 305.4 382.935C306.116 382.935 306.415 383.852 305.835 384.272C305.576 384.46 305.467 384.794 305.567 385.099C305.788 385.78 305.006 386.345 304.427 385.924C304.167 385.736 303.815 385.736 303.556 385.924C302.976 386.345 302.194 385.78 302.416 385.099C302.515 384.794 302.406 384.46 302.147 384.272C301.567 383.852 301.867 382.935 302.583 382.935C302.903 382.935 303.188 382.729 303.287 382.425Z" fill="#F4FEFF"/>
<path opacity="0.5" d="M303.287 382.425C303.509 381.743 304.474 381.743 304.696 382.425C304.795 382.729 305.079 382.935 305.4 382.935C306.116 382.935 306.415 383.852 305.835 384.272C305.576 384.46 305.467 384.794 305.567 385.099C305.788 385.78 305.006 386.345 304.427 385.924C304.167 385.736 303.815 385.736 303.556 385.924C302.976 386.345 302.194 385.78 302.416 385.099C302.515 384.794 302.406 384.46 302.147 384.272C301.567 383.852 301.867 382.935 302.583 382.935C302.903 382.935 303.188 382.729 303.287 382.425Z" fill="#F4FEFF"/>
<path opacity="0.5" d="M252.057 348.769C251.825 349.439 250.872 349.421 250.665 348.743C250.573 348.441 250.296 348.232 249.979 348.226C249.272 348.213 248.992 347.302 249.573 346.897C249.833 346.716 249.946 346.388 249.854 346.085C249.647 345.408 250.43 344.864 250.995 345.29C251.248 345.481 251.596 345.487 251.856 345.306C252.436 344.901 253.199 345.474 252.967 346.142C252.863 346.442 252.964 346.774 253.217 346.964C253.783 347.39 253.47 348.29 252.762 348.277C252.446 348.271 252.161 348.47 252.057 348.769Z" fill="#F4FEFF"/>
<path opacity="0.75" d="M285.043 325.974C285.425 324.948 286.876 324.948 287.257 325.974L287.279 326.034C287.438 326.46 287.845 326.743 288.3 326.743H288.556C289.572 326.743 289.958 328.071 289.099 328.615C288.694 328.872 288.527 329.384 288.694 329.833C289.047 330.782 288.002 331.66 287.148 331.118L286.792 330.893C286.4 330.644 285.9 330.644 285.509 330.893L285.153 331.118C284.298 331.66 283.254 330.782 283.607 329.833C283.774 329.384 283.606 328.872 283.201 328.615C282.343 328.071 282.728 326.743 283.745 326.743H284C284.455 326.743 284.862 326.46 285.021 326.034L285.043 325.974Z" fill="#F4FEFF"/>
<path opacity="0.75" d="M285.043 325.974C285.425 324.948 286.876 324.948 287.257 325.974L287.279 326.034C287.438 326.46 287.845 326.743 288.3 326.743H288.556C289.572 326.743 289.958 328.071 289.099 328.615C288.694 328.872 288.527 329.384 288.694 329.833C289.047 330.782 288.002 331.66 287.148 331.118L286.792 330.893C286.4 330.644 285.9 330.644 285.509 330.893L285.153 331.118C284.298 331.66 283.254 330.782 283.607 329.833C283.774 329.384 283.606 328.872 283.201 328.615C282.343 328.071 282.728 326.743 283.745 326.743H284C284.455 326.743 284.862 326.46 285.021 326.034L285.043 325.974Z" fill="#F4FEFF"/>
<path opacity="0.75" d="M304.875 356.976C305.221 355.985 306.64 355.985 306.986 356.976C307.135 357.403 307.54 357.695 307.992 357.695H308.123C309.132 357.695 309.532 359.001 308.696 359.567C308.312 359.827 308.152 360.317 308.305 360.756C308.637 361.707 307.569 362.546 306.734 361.982L306.557 361.862C306.178 361.606 305.682 361.606 305.304 361.862L305.127 361.982C304.292 362.546 303.224 361.707 303.556 360.756C303.709 360.317 303.549 359.827 303.164 359.567C302.328 359.001 302.729 357.695 303.738 357.695H303.869C304.321 357.695 304.726 357.403 304.875 356.976Z" fill="#F4FEFF"/>
<path opacity="0.75" d="M304.875 356.976C305.221 355.985 306.64 355.985 306.986 356.976C307.135 357.403 307.54 357.695 307.992 357.695H308.123C309.132 357.695 309.532 359.001 308.696 359.567C308.312 359.827 308.152 360.317 308.305 360.756C308.637 361.707 307.569 362.546 306.734 361.982L306.557 361.862C306.178 361.606 305.682 361.606 305.304 361.862L305.127 361.982C304.292 362.546 303.224 361.707 303.556 360.756C303.709 360.317 303.549 359.827 303.164 359.567C302.328 359.001 302.729 357.695 303.738 357.695H303.869C304.321 357.695 304.726 357.403 304.875 356.976Z" fill="#F4FEFF"/>
<path opacity="0.75" d="M250.013 374.432C249.665 375.436 248.235 375.41 247.925 374.393C247.786 373.939 247.37 373.626 246.896 373.617C245.835 373.597 245.416 372.231 246.286 371.624C246.676 371.352 246.846 370.86 246.707 370.406C246.397 369.391 247.572 368.575 248.42 369.213C248.799 369.499 249.321 369.509 249.711 369.237C250.581 368.63 251.725 369.489 251.377 370.492C251.222 370.941 251.374 371.439 251.753 371.725C252.601 372.363 252.131 373.714 251.07 373.694C250.596 373.685 250.168 373.983 250.013 374.432Z" fill="#F4FEFF"/>
<path d="M233.878 380.096C233.762 380.431 233.285 380.422 233.182 380.083C233.136 379.932 232.997 379.827 232.839 379.824C232.485 379.818 232.345 379.362 232.636 379.16C232.766 379.07 232.822 378.905 232.776 378.754C232.673 378.416 233.064 378.144 233.347 378.357C233.473 378.452 233.647 378.455 233.777 378.365C234.067 378.162 234.448 378.448 234.333 378.783C234.281 378.932 234.331 379.098 234.458 379.194C234.74 379.407 234.584 379.857 234.23 379.85C234.072 379.847 233.93 379.946 233.878 380.096Z" fill="#F4FEFF"/>
<path d="M215.284 349.16C215.168 349.494 214.691 349.486 214.588 349.147C214.542 348.995 214.403 348.891 214.245 348.888C213.891 348.882 213.751 348.426 214.042 348.224C214.172 348.133 214.228 347.969 214.182 347.818C214.079 347.479 214.47 347.207 214.753 347.42C214.879 347.515 215.053 347.519 215.183 347.428C215.473 347.226 215.854 347.512 215.739 347.846C215.687 347.996 215.737 348.162 215.864 348.257C216.146 348.47 215.99 348.92 215.636 348.914C215.478 348.911 215.336 349.01 215.284 349.16Z" fill="#F4FEFF"/>
</g>
</g>
<rect x="1.5" y="-1.5" width="243" height="103" rx="51.5" transform="matrix(-1 0 0 1 307 306)" stroke="#40647F" stroke-opacity="0.3" stroke-width="3" shape-rendering="crispEdges"/>
</g>
<g filter="url(#filter8_d_42_101)">
<g clip-path="url(#clip3_42_101)">
<rect width="240" height="100" rx="50" transform="matrix(-1 0 0 1 251 398)" fill="#0F405B" shape-rendering="crispEdges"/>
<g filter="url(#filter9_di_42_101)">
<circle cx="45" cy="45" r="45" transform="matrix(-0.939693 0.34202 0.34202 0.939693 88.1608 390.004)" fill="#DDDDDD"/>
</g>
<g filter="url(#filter10_dii_42_101)">
<path fill-rule="evenodd" clip-rule="evenodd" d="M46 405.5C46 408.538 48.4624 411 51.5 411C54.5376 411 57 408.538 57 405.5C57 404.575 56.7716 403.703 56.3682 402.938C52.9021 403.32 49.4259 404.114 46.002 405.349C46.0007 405.399 46 405.45 46 405.5ZM26.5612 419.024C26.7053 419.008 26.8517 419 27 419C29.2091 419 31 420.791 31 423C31 425.209 29.2091 427 27 427C25.083 427 23.481 425.652 23.0908 423.851C24.1377 422.172 25.2964 420.558 26.5612 419.024ZM25.3349 474.793C26.0072 473.154 27.6188 472 29.5 472C31.9853 472 34 474.015 34 476.5C34 478.534 32.6501 480.253 30.7972 480.81C28.8135 478.989 26.9825 476.978 25.3349 474.793ZM64.9136 492.545C64.3429 491.853 64 490.967 64 490C64 487.791 65.7909 486 68 486C70.2091 486 72 487.791 72 490C72 490.512 71.9037 491.002 71.7281 491.452C69.4608 491.997 67.1834 492.359 64.9136 492.545ZM51.5 468C48.4624 468 46 465.538 46 462.5C46 459.462 48.4624 457 51.5 457C54.5376 457 57 459.462 57 462.5C57 465.538 54.5376 468 51.5 468ZM28.5 457C23.8056 457 20 453.194 20 448.5C20 443.806 23.8056 440 28.5 440C33.1944 440 37 443.806 37 448.5C37 453.194 33.1944 457 28.5 457Z" fill="#999999" fill-opacity="0.5" shape-rendering="crispEdges"/>
</g>
<mask id="mask3_42_101" style="mask-type:alpha" maskUnits="userSpaceOnUse" x="51" y="395" width="91" height="91">
<circle cx="45" cy="45" r="45" transform="matrix(-0.939693 0.34202 0.34202 0.939693 123.218 383)" fill="#C4C4C4"/>
</mask>
<g mask="url(#mask3_42_101)">
<rect width="250" height="98" transform="matrix(-1 0 0 1 258 400)" fill="#0F405B"/>
</g>
<g opacity="0.6">
<path opacity="0.5" d="M195.395 442.795C195.681 441.915 196.926 441.915 197.212 442.795C197.339 443.189 197.706 443.455 198.12 443.455C199.045 443.455 199.429 444.639 198.681 445.182C198.346 445.426 198.206 445.857 198.334 446.25C198.62 447.13 197.613 447.861 196.865 447.318C196.53 447.074 196.077 447.074 195.742 447.318C194.994 447.861 193.987 447.13 194.273 446.25C194.401 445.857 194.261 445.426 193.926 445.182C193.177 444.639 193.562 443.455 194.487 443.455C194.901 443.455 195.267 443.189 195.395 442.795Z" fill="#F4FEFF"/>
<path opacity="0.5" d="M195.395 442.795C195.681 441.915 196.926 441.915 197.212 442.795C197.339 443.189 197.706 443.455 198.12 443.455C199.045 443.455 199.429 444.639 198.681 445.182C198.346 445.426 198.206 445.857 198.334 446.25C198.62 447.13 197.613 447.861 196.865 447.318C196.53 447.074 196.077 447.074 195.742 447.318C194.994 447.861 193.987 447.13 194.273 446.25C194.401 445.857 194.261 445.426 193.926 445.182C193.177 444.639 193.562 443.455 194.487 443.455C194.901 443.455 195.267 443.189 195.395 442.795Z" fill="#F4FEFF"/>
<path opacity="0.5" d="M179.323 479.281C179.024 480.145 177.794 480.122 177.528 479.248C177.409 478.856 177.051 478.587 176.643 478.579C175.729 478.562 175.37 477.385 176.12 476.862C176.455 476.628 176.601 476.204 176.482 475.813C176.216 474.939 177.224 474.234 177.953 474.785C178.28 475.032 178.727 475.04 179.063 474.806C179.812 474.282 180.794 475.024 180.495 475.888C180.361 476.274 180.492 476.702 180.818 476.949C181.548 477.5 181.146 478.662 180.232 478.645C179.823 478.638 179.456 478.894 179.323 479.281Z" fill="#F4FEFF"/>
<path opacity="0.5" d="M221.395 482.795C221.681 481.915 222.926 481.915 223.212 482.795C223.339 483.189 223.706 483.455 224.12 483.455C225.045 483.455 225.429 484.639 224.681 485.182C224.346 485.426 224.206 485.857 224.334 486.25C224.62 487.13 223.613 487.861 222.865 487.318C222.53 487.074 222.077 487.074 221.742 487.318C220.994 487.861 219.987 487.13 220.273 486.25C220.401 485.857 220.261 485.426 219.926 485.182C219.177 484.639 219.562 483.455 220.487 483.455C220.901 483.455 221.267 483.189 221.395 482.795Z" fill="#F4FEFF"/>
<path opacity="0.5" d="M221.395 482.795C221.681 481.915 222.926 481.915 223.212 482.795C223.339 483.189 223.706 483.455 224.12 483.455C225.045 483.455 225.429 484.639 224.681 485.182C224.346 485.426 224.206 485.857 224.334 486.25C224.62 487.13 223.613 487.861 222.865 487.318C222.53 487.074 222.077 487.074 221.742 487.318C220.994 487.861 219.987 487.13 220.273 486.25C220.401 485.857 220.261 485.426 219.926 485.182C219.177 484.639 219.562 483.455 220.487 483.455C220.901 483.455 221.267 483.189 221.395 482.795Z" fill="#F4FEFF"/>
<path opacity="0.5" d="M155.352 439.301C155.053 440.165 153.823 440.143 153.557 439.268C153.438 438.877 153.081 438.607 152.672 438.6C151.758 438.583 151.399 437.406 152.149 436.883C152.484 436.648 152.63 436.225 152.511 435.834C152.245 434.959 153.253 434.255 153.982 434.806C154.309 435.052 154.756 435.061 155.092 434.826C155.841 434.303 156.823 435.044 156.524 435.908C156.391 436.295 156.521 436.723 156.847 436.969C157.577 437.52 157.175 438.683 156.261 438.666C155.852 438.658 155.485 438.915 155.352 439.301Z" fill="#F4FEFF"/>
<path opacity="0.75" d="M197.876 409.844C198.367 408.521 200.239 408.521 200.731 409.844L200.759 409.92C200.964 410.471 201.49 410.837 202.078 410.837H202.401C203.715 410.837 204.214 412.552 203.105 413.257C202.583 413.589 202.367 414.249 202.582 414.829C203.037 416.055 201.686 417.188 200.583 416.487L200.132 416.2C199.626 415.879 198.981 415.879 198.475 416.2L198.024 416.487C196.921 417.188 195.57 416.055 196.025 414.829C196.24 414.249 196.024 413.589 195.502 413.257C194.393 412.552 194.892 410.837 196.206 410.837H196.529C197.117 410.837 197.643 410.471 197.848 409.92L197.876 409.844Z" fill="#F4FEFF"/>
<path opacity="0.75" d="M197.876 409.844C198.367 408.521 200.239 408.521 200.731 409.844L200.759 409.92C200.964 410.471 201.49 410.837 202.078 410.837H202.401C203.715 410.837 204.214 412.552 203.105 413.257C202.583 413.589 202.367 414.249 202.582 414.829C203.037 416.055 201.686 417.188 200.583 416.487L200.132 416.2C199.626 415.879 198.981 415.879 198.475 416.2L198.024 416.487C196.921 417.188 195.57 416.055 196.025 414.829C196.24 414.249 196.024 413.589 195.502 413.257C194.393 412.552 194.892 410.837 196.206 410.837H196.529C197.117 410.837 197.643 410.471 197.848 409.92L197.876 409.844Z" fill="#F4FEFF"/>
<path opacity="0.75" d="M223.443 449.908C223.888 448.629 225.719 448.629 226.164 449.908C226.356 450.46 226.879 450.837 227.464 450.837H227.627C228.931 450.837 229.449 452.524 228.369 453.256C227.873 453.592 227.667 454.224 227.864 454.79C228.292 456.021 226.911 457.103 225.833 456.372L225.612 456.222C225.124 455.891 224.483 455.891 223.995 456.222L223.774 456.372C222.696 457.103 221.315 456.021 221.743 454.79C221.94 454.224 221.734 453.592 221.238 453.256C220.158 452.524 220.676 450.837 221.98 450.837H222.143C222.728 450.837 223.251 450.46 223.443 449.908Z" fill="#F4FEFF"/>
<path opacity="0.75" d="M223.443 449.908C223.888 448.629 225.719 448.629 226.164 449.908C226.356 450.46 226.879 450.837 227.464 450.837H227.627C228.931 450.837 229.449 452.524 228.369 453.256C227.873 453.592 227.667 454.224 227.864 454.79C228.292 456.021 226.911 457.103 225.833 456.372L225.612 456.222C225.124 455.891 224.483 455.891 223.995 456.222L223.774 456.372C222.696 457.103 221.315 456.021 221.743 454.79C221.94 454.224 221.734 453.592 221.238 453.256C220.158 452.524 220.676 450.837 221.98 450.837H222.143C222.728 450.837 223.251 450.46 223.443 449.908Z" fill="#F4FEFF"/>
<path opacity="0.75" d="M152.716 472.465C152.269 473.761 150.424 473.727 150.024 472.416C149.846 471.829 149.31 471.424 148.696 471.413C147.325 471.387 146.788 469.623 147.912 468.837C148.415 468.486 148.634 467.851 148.455 467.264C148.056 465.953 149.568 464.896 150.662 465.722C151.152 466.092 151.823 466.104 152.326 465.753C153.45 464.968 154.923 466.08 154.475 467.376C154.275 467.955 154.47 468.598 154.96 468.967C156.054 469.794 155.451 471.538 154.08 471.512C153.467 471.501 152.917 471.886 152.716 472.465Z" fill="#F4FEFF"/>
<path d="M243.921 441.765C244.01 441.354 244.597 441.354 244.686 441.765C244.725 441.945 244.884 442.073 245.068 442.073H245.133C245.543 442.073 245.758 442.561 245.48 442.863L245.206 443.162C245.096 443.282 245.051 443.449 245.085 443.609L245.195 444.115C245.273 444.478 244.822 444.711 244.571 444.438C244.427 444.281 244.18 444.281 244.035 444.438C243.785 444.711 243.334 444.478 243.412 444.115L243.522 443.609C243.556 443.449 243.511 443.282 243.4 443.162L243.127 442.863C242.849 442.561 243.064 442.073 243.474 442.073H243.539C243.723 442.073 243.882 441.945 243.921 441.765Z" fill="#F4FEFF"/>
<path d="M243.921 441.765C244.01 441.354 244.597 441.354 244.686 441.765C244.725 441.945 244.884 442.073 245.068 442.073H245.133C245.543 442.073 245.758 442.561 245.48 442.863L245.206 443.162C245.096 443.282 245.051 443.449 245.085 443.609L245.195 444.115C245.273 444.478 244.822 444.711 244.571 444.438C244.427 444.281 244.18 444.281 244.035 444.438C243.785 444.711 243.334 444.478 243.412 444.115L243.522 443.609C243.556 443.449 243.511 443.282 243.4 443.162L243.127 442.863C242.849 442.561 243.064 442.073 243.474 442.073H243.539C243.723 442.073 243.882 441.945 243.921 441.765Z" fill="#F4FEFF"/>
<path d="M131.915 479.786C131.766 480.218 131.151 480.206 131.018 479.769C130.958 479.573 130.78 479.438 130.575 479.435C130.118 479.426 129.939 478.838 130.314 478.576C130.481 478.459 130.554 478.247 130.495 478.052C130.362 477.615 130.866 477.262 131.231 477.538C131.394 477.661 131.618 477.665 131.785 477.548C132.16 477.286 132.651 477.657 132.501 478.089C132.435 478.282 132.5 478.496 132.663 478.62C133.028 478.895 132.827 479.476 132.37 479.468C132.165 479.464 131.982 479.592 131.915 479.786Z" fill="#F4FEFF"/>
<path d="M107.944 439.806C107.795 440.238 107.18 440.227 107.047 439.79C106.988 439.594 106.809 439.459 106.604 439.455C106.147 439.447 105.968 438.859 106.343 438.597C106.51 438.48 106.584 438.268 106.524 438.072C106.391 437.635 106.895 437.283 107.26 437.558C107.423 437.682 107.647 437.686 107.814 437.569C108.189 437.307 108.68 437.678 108.531 438.11C108.464 438.303 108.529 438.517 108.692 438.64C109.057 438.916 108.856 439.497 108.399 439.488C108.195 439.485 108.011 439.613 107.944 439.806Z" fill="#F4FEFF"/>
</g>
</g>
<rect x="1.5" y="-1.5" width="243" height="103" rx="51.5" transform="matrix(-1 0 0 1 254 398)" stroke="#40647F" stroke-opacity="0.3" stroke-width="3" shape-rendering="crispEdges"/>
</g>
<g filter="url(#filter11_d_42_101)">
<g clip-path="url(#clip4_42_101)">
<rect width="240" height="100" rx="50" transform="matrix(-1 0 0 1 463 30)" fill="#5BA9D3" shape-rendering="crispEdges"/>
<g filter="url(#filter12_ddi_42_101)">
<circle cx="45" cy="45" r="45" transform="matrix(0.939693 -0.34202 -0.34202 -0.939693 385.839 137.996)" fill="#F7D35A"/>
</g>
<mask id="mask4_42_101" style="mask-type:alpha" maskUnits="userSpaceOnUse" x="314" y="72" width="21" height="21">
<circle cx="10" cy="10" r="10" transform="matrix(0.939693 -0.34202 -0.34202 -0.939693 319 95)" fill="#1C3144"/>
</mask>
<g mask="url(#mask4_42_101)">
<rect width="252" height="99" transform="matrix(1 0 0 -1 218 129)" fill="#5BA9D3"/>
</g>
<path d="M269.445 100.583C270.176 100.186 270.739 99.5354 271.028 98.7557C274.656 88.9697 284.031 82 295.026 82C304.908 82 313.482 87.6309 317.75 95.8766C318.507 97.3378 320.204 98.1033 321.822 97.8018C322.885 97.6036 323.982 97.5 325.103 97.5C334.987 97.5 343 105.559 343 115.5C343 125.441 334.987 133.5 325.103 133.5C320.799 133.5 316.85 131.972 313.763 129.426C312.491 128.377 310.63 128.233 309.263 129.155C308.592 129.607 307.898 130.029 307.183 130.417C306.453 130.815 305.89 131.465 305.6 132.244C301.973 142.03 292.597 149 281.603 149C267.463 149 256 137.471 256 123.25C256 113.454 261.439 104.936 269.445 100.583Z" fill="#D0E7F6"/>
<path d="M270.257 106.561C270.983 106.155 271.548 105.507 271.85 104.731C274.758 97.2799 282.013 92 290.503 92C297.995 92 304.526 96.112 307.955 102.2C308.76 103.628 310.45 104.387 312.075 104.163C312.708 104.075 313.354 104.03 314.011 104.03C321.737 104.03 328 110.285 328 118C328 125.715 321.737 131.97 314.011 131.97C310.877 131.97 307.983 130.94 305.65 129.201C304.335 128.22 302.489 128.074 301.097 128.943C300.822 129.115 300.542 129.28 300.257 129.439C299.531 129.845 298.966 130.493 298.664 131.269C295.756 138.72 288.501 144 280.011 144C268.959 144 260 135.052 260 124.015C260 116.515 264.137 109.979 270.257 106.561Z" fill="#E3F1F5"/>
<path d="M285.831 90.3774C284.808 90.3774 283.81 90.4977 282.848 90.7263C282.398 90.8333 281.924 90.6492 281.679 90.2564C280.672 88.638 279.514 87.1434 278.228 85.7975C278.113 85.6766 278.028 85.5291 277.982 85.3685C274.73 74.1324 265.233 66 254.024 66C245.486 66 237.941 70.7186 233.393 77.9332C233.173 78.2829 232.766 78.47 232.357 78.4123C231.309 78.2647 230.241 78.1887 229.157 78.1887C215.263 78.1887 204 90.6825 204 106.094C204 121.506 215.263 134 229.157 134C234.877 134 240.152 131.882 244.378 128.314C244.771 127.982 245.349 127.982 245.742 128.314C249.968 131.882 255.243 134 260.964 134C269.555 134 277.141 129.223 281.679 121.932C281.924 121.54 282.398 121.355 282.848 121.462C283.81 121.691 284.808 121.811 285.831 121.811C293.656 121.811 300 114.775 300 106.094C300 97.4141 293.656 90.3774 285.831 90.3774Z" fill="#D0E7F6"/>
<path d="M284.75 95C283.884 95 283.038 95.0899 282.223 95.261C281.797 95.3503 281.354 95.183 281.105 94.8259C280.258 93.6111 279.29 92.4868 278.219 91.4703C278.092 91.3498 277.997 91.1989 277.943 91.0323C275.112 82.3077 266.918 76 257.25 76C249.9 76 243.401 79.646 239.464 85.228C239.239 85.547 238.856 85.7165 238.468 85.6682C237.578 85.5572 236.671 85.5 235.75 85.5C223.738 85.5 214 95.2378 214 107.25C214 119.262 223.738 129 235.75 129C240.672 129 245.213 127.365 248.858 124.608C249.237 124.321 249.763 124.321 250.142 124.608C253.787 127.365 258.328 129 263.25 129C270.643 129 277.175 125.311 281.105 119.674C281.354 119.317 281.797 119.15 282.223 119.239C283.038 119.41 283.884 119.5 284.75 119.5C291.516 119.5 297 114.015 297 107.25C297 100.485 291.516 95 284.75 95Z" fill="#E3F1F5"/>
</g>
<rect x="1.5" y="-1.5" width="243" height="103" rx="51.5" transform="matrix(-1 0 0 1 466 30)" stroke="#4E9CC6" stroke-opacity="0.3" stroke-width="3" shape-rendering="crispEdges"/>
</g>
<defs>
<filter id="filter0_di_42_101" x="178.306" y="206.253" width="110.024" height="110.024" filterUnits="userSpaceOnUse" color-interpolation-filters="sRGB">
<feFlood flood-opacity="0" result="BackgroundImageFix"/>
<feColorMatrix in="SourceAlpha" type="matrix" values="0 0 0 0 0 0 0 0 0 0 0 0 0 0 0 0 0 0 127 0" result="hardAlpha"/>
<feOffset dx="-4" dy="-4"/>
<feGaussianBlur stdDeviation="5"/>
<feComposite in2="hardAlpha" operator="out"/>
<feColorMatrix type="matrix" values="0 0 0 0 0 0 0 0 0 0 0 0 0 0 0 0 0 0 0.1 0"/>
<feBlend mode="normal" in2="BackgroundImageFix" result="effect1_dropShadow_42_101"/>
<feBlend mode="normal" in="SourceGraphic" in2="effect1_dropShadow_42_101" result="shape"/>
<feColorMatrix in="SourceAlpha" type="matrix" values="0 0 0 0 0 0 0 0 0 0 0 0 0 0 0 0 0 0 127 0" result="hardAlpha"/>
<feOffset dx="-2" dy="-2"/>
<feGaussianBlur stdDeviation="2"/>
<feComposite in2="hardAlpha" operator="arithmetic" k2="-1" k3="1"/>
<feColorMatrix type="matrix" values="0 0 0 0 0 0 0 0 0 0 0 0 0 0 0 0 0 0 0.1 0"/>
<feBlend mode="normal" in2="shape" result="effect2_innerShadow_42_101"/>
</filter>
<filter id="filter1_dii_42_101" x="191.455" y="223" width="91.6065" height="56" filterUnits="userSpaceOnUse" color-interpolation-filters="sRGB">
<feFlood flood-opacity="0" result="BackgroundImageFix"/>
<feColorMatrix in="SourceAlpha" type="matrix" values="0 0 0 0 0 0 0 0 0 0 0 0 0 0 0 0 0 0 127 0" result="hardAlpha"/>
<feOffset dy="1"/>
<feGaussianBlur stdDeviation="0.5"/>
<feComposite in2="hardAlpha" operator="out"/>
<feColorMatrix type="matrix" values="0 0 0 0 0 0 0 0 0 0 0 0 0 0 0 0 0 0 0.1 0"/>
<feBlend mode="normal" in2="BackgroundImageFix" result="effect1_dropShadow_42_101"/>
<feBlend mode="normal" in="SourceGraphic" in2="effect1_dropShadow_42_101" result="shape"/>
<feColorMatrix in="SourceAlpha" type="matrix" values="0 0 0 0 0 0 0 0 0 0 0 0 0 0 0 0 0 0 127 0" result="hardAlpha"/>
<feOffset dx="1" dy="3"/>
<feGaussianBlur stdDeviation="1.5"/>
<feComposite in2="hardAlpha" operator="arithmetic" k2="-1" k3="1"/>
<feColorMatrix type="matrix" values="0 0 0 0 0 0 0 0 0 0 0 0 0 0 0 0 0 0 0.14 0"/>
<feBlend mode="normal" in2="shape" result="effect2_innerShadow_42_101"/>
<feColorMatrix in="SourceAlpha" type="matrix" values="0 0 0 0 0 0 0 0 0 0 0 0 0 0 0 0 0 0 127 0" result="hardAlpha"/>
<feOffset dy="-1"/>
<feGaussianBlur stdDeviation="5"/>
<feComposite in2="hardAlpha" operator="arithmetic" k2="-1" k3="1"/>
<feColorMatrix type="matrix" values="0 0 0 0 1 0 0 0 0 1 0 0 0 0 1 0 0 0 0.1 0"/>
<feBlend mode="normal" in2="effect2_innerShadow_42_101" result="effect3_innerShadow_42_101"/>
</filter>
<filter id="filter2_d_42_101" x="151" y="104" width="278" height="138" filterUnits="userSpaceOnUse" color-interpolation-filters="sRGB">
<feFlood flood-opacity="0" result="BackgroundImageFix"/>
<feColorMatrix in="SourceAlpha" type="matrix" values="0 0 0 0 0 0 0 0 0 0 0 0 0 0 0 0 0 0 127 0" result="hardAlpha"/>
<feMorphology radius="2" operator="erode" in="SourceAlpha" result="effect1_dropShadow_42_101"/>
<feOffset dy="1"/>
<feGaussianBlur stdDeviation="9"/>
<feComposite in2="hardAlpha" operator="out"/>
<feColorMatrix type="matrix" values="0 0 0 0 0 0 0 0 0 0 0 0 0 0 0 0 0 0 0.25 0"/>
<feBlend mode="darken" in2="BackgroundImageFix" result="effect1_dropShadow_42_101"/>
<feBlend mode="normal" in="SourceGraphic" in2="effect1_dropShadow_42_101" result="shape"/>
</filter>
<filter id="filter3_di_42_101" x="275.969" y="114.12" width="110.022" height="110.022" filterUnits="userSpaceOnUse" color-interpolation-filters="sRGB">
<feFlood flood-opacity="0" result="BackgroundImageFix"/>
<feColorMatrix in="SourceAlpha" type="matrix" values="0 0 0 0 0 0 0 0 0 0 0 0 0 0 0 0 0 0 127 0" result="hardAlpha"/>
<feOffset dx="-4" dy="-4"/>
<feGaussianBlur stdDeviation="5"/>
<feComposite in2="hardAlpha" operator="out"/>
<feColorMatrix type="matrix" values="0 0 0 0 0 0 0 0 0 0 0 0 0 0 0 0 0 0 0.1 0"/>
<feBlend mode="normal" in2="BackgroundImageFix" result="effect1_dropShadow_42_101"/>
<feBlend mode="normal" in="SourceGraphic" in2="effect1_dropShadow_42_101" result="shape"/>
<feColorMatrix in="SourceAlpha" type="matrix" values="0 0 0 0 0 0 0 0 0 0 0 0 0 0 0 0 0 0 127 0" result="hardAlpha"/>
<feOffset dx="-2" dy="-2"/>
<feGaussianBlur stdDeviation="2"/>
<feComposite in2="hardAlpha" operator="arithmetic" k2="-1" k3="1"/>
<feColorMatrix type="matrix" values="0 0 0 0 0 0 0 0 0 0 0 0 0 0 0 0 0 0 0.1 0"/>
<feBlend mode="normal" in2="shape" result="effect2_innerShadow_42_101"/>
</filter>
<filter id="filter4_dii_42_101" x="295.226" y="127.121" width="85.4764" height="76.5696" filterUnits="userSpaceOnUse" color-interpolation-filters="sRGB">
<feFlood flood-opacity="0" result="BackgroundImageFix"/>
<feColorMatrix in="SourceAlpha" type="matrix" values="0 0 0 0 0 0 0 0 0 0 0 0 0 0 0 0 0 0 127 0" result="hardAlpha"/>
<feOffset dy="1"/>
<feGaussianBlur stdDeviation="0.5"/>
<feComposite in2="hardAlpha" operator="out"/>
<feColorMatrix type="matrix" values="0 0 0 0 0 0 0 0 0 0 0 0 0 0 0 0 0 0 0.1 0"/>
<feBlend mode="normal" in2="BackgroundImageFix" result="effect1_dropShadow_42_101"/>
<feBlend mode="normal" in="SourceGraphic" in2="effect1_dropShadow_42_101" result="shape"/>
<feColorMatrix in="SourceAlpha" type="matrix" values="0 0 0 0 0 0 0 0 0 0 0 0 0 0 0 0 0 0 127 0" result="hardAlpha"/>
<feOffset dx="1" dy="3"/>
<feGaussianBlur stdDeviation="1.5"/>
<feComposite in2="hardAlpha" operator="arithmetic" k2="-1" k3="1"/>
<feColorMatrix type="matrix" values="0 0 0 0 0 0 0 0 0 0 0 0 0 0 0 0 0 0 0.14 0"/>
<feBlend mode="normal" in2="shape" result="effect2_innerShadow_42_101"/>
<feColorMatrix in="SourceAlpha" type="matrix" values="0 0 0 0 0 0 0 0 0 0 0 0 0 0 0 0 0 0 127 0" result="hardAlpha"/>
<feOffset dy="-1"/>
<feGaussianBlur stdDeviation="5"/>
<feComposite in2="hardAlpha" operator="arithmetic" k2="-1" k3="1"/>
<feColorMatrix type="matrix" values="0 0 0 0 1 0 0 0 0 1 0 0 0 0 1 0 0 0 0.1 0"/>
<feBlend mode="normal" in2="effect2_innerShadow_42_101" result="effect3_innerShadow_42_101"/>
</filter>
<filter id="filter5_d_42_101" x="45" y="288" width="278" height="138" filterUnits="userSpaceOnUse" color-interpolation-filters="sRGB">
<feFlood flood-opacity="0" result="BackgroundImageFix"/>
<feColorMatrix in="SourceAlpha" type="matrix" values="0 0 0 0 0 0 0 0 0 0 0 0 0 0 0 0 0 0 127 0" result="hardAlpha"/>
<feMorphology radius="2" operator="erode" in="SourceAlpha" result="effect1_dropShadow_42_101"/>
<feOffset dy="1"/>
<feGaussianBlur stdDeviation="9"/>
<feComposite in2="hardAlpha" operator="out"/>
<feColorMatrix type="matrix" values="0 0 0 0 0 0 0 0 0 0 0 0 0 0 0 0 0 0 0.25 0"/>
<feBlend mode="darken" in2="BackgroundImageFix" result="effect1_dropShadow_42_101"/>
<feBlend mode="normal" in="SourceGraphic" in2="effect1_dropShadow_42_101" result="shape"/>
</filter>
<filter id="filter6_di_42_101" x="94.3788" y="302.407" width="110.002" height="110.002" filterUnits="userSpaceOnUse" color-interpolation-filters="sRGB">
<feFlood flood-opacity="0" result="BackgroundImageFix"/>
<feColorMatrix in="SourceAlpha" type="matrix" values="0 0 0 0 0 0 0 0 0 0 0 0 0 0 0 0 0 0 127 0" result="hardAlpha"/>
<feOffset dx="-3"/>
<feGaussianBlur stdDeviation="5"/>
<feComposite in2="hardAlpha" operator="out"/>
<feColorMatrix type="matrix" values="0 0 0 0 0 0 0 0 0 0 0 0 0 0 0 0 0 0 0.25 0"/>
<feBlend mode="normal" in2="BackgroundImageFix" result="effect1_dropShadow_42_101"/>
<feBlend mode="normal" in="SourceGraphic" in2="effect1_dropShadow_42_101" result="shape"/>
<feColorMatrix in="SourceAlpha" type="matrix" values="0 0 0 0 0 0 0 0 0 0 0 0 0 0 0 0 0 0 127 0" result="hardAlpha"/>
<feOffset dx="-2" dy="-2"/>
<feGaussianBlur stdDeviation="2"/>
<feComposite in2="hardAlpha" operator="arithmetic" k2="-1" k3="1"/>
<feColorMatrix type="matrix" values="0 0 0 0 0 0 0 0 0 0 0 0 0 0 0 0 0 0 0.1 0"/>
<feBlend mode="normal" in2="shape" result="effect2_innerShadow_42_101"/>
</filter>
<filter id="filter7_dii_42_101" x="107.455" y="311.433" width="82.2247" height="79.9217" filterUnits="userSpaceOnUse" color-interpolation-filters="sRGB">
<feFlood flood-opacity="0" result="BackgroundImageFix"/>
<feColorMatrix in="SourceAlpha" type="matrix" values="0 0 0 0 0 0 0 0 0 0 0 0 0 0 0 0 0 0 127 0" result="hardAlpha"/>
<feOffset dy="1"/>
<feGaussianBlur stdDeviation="0.5"/>
<feComposite in2="hardAlpha" operator="out"/>
<feColorMatrix type="matrix" values="0 0 0 0 0 0 0 0 0 0 0 0 0 0 0 0 0 0 0.1 0"/>
<feBlend mode="normal" in2="BackgroundImageFix" result="effect1_dropShadow_42_101"/>
<feBlend mode="normal" in="SourceGraphic" in2="effect1_dropShadow_42_101" result="shape"/>
<feColorMatrix in="SourceAlpha" type="matrix" values="0 0 0 0 0 0 0 0 0 0 0 0 0 0 0 0 0 0 127 0" result="hardAlpha"/>
<feOffset dx="1" dy="3"/>
<feGaussianBlur stdDeviation="1.5"/>
<feComposite in2="hardAlpha" operator="arithmetic" k2="-1" k3="1"/>
<feColorMatrix type="matrix" values="0 0 0 0 0 0 0 0 0 0 0 0 0 0 0 0 0 0 0.14 0"/>
<feBlend mode="normal" in2="shape" result="effect2_innerShadow_42_101"/>
<feColorMatrix in="SourceAlpha" type="matrix" values="0 0 0 0 0 0 0 0 0 0 0 0 0 0 0 0 0 0 127 0" result="hardAlpha"/>
<feOffset dy="-1"/>
<feGaussianBlur stdDeviation="5"/>
<feComposite in2="hardAlpha" operator="arithmetic" k2="-1" k3="1"/>
<feColorMatrix type="matrix" values="0 0 0 0 1 0 0 0 0 1 0 0 0 0 1 0 0 0 0.1 0"/>
<feBlend mode="normal" in2="effect2_innerShadow_42_101" result="effect3_innerShadow_42_101"/>
</filter>
<filter id="filter8_d_42_101" x="0" y="389" width="266" height="126" filterUnits="userSpaceOnUse" color-interpolation-filters="sRGB">
<feFlood flood-opacity="0" result="BackgroundImageFix"/>
<feColorMatrix in="SourceAlpha" type="matrix" values="0 0 0 0 0 0 0 0 0 0 0 0 0 0 0 0 0 0 127 0" result="hardAlpha"/>
<feMorphology radius="2" operator="erode" in="SourceAlpha" result="effect1_dropShadow_42_101"/>
<feOffset dx="2" dy="4"/>
<feGaussianBlur stdDeviation="6"/>
<feComposite in2="hardAlpha" operator="out"/>
<feColorMatrix type="matrix" values="0 0 0 0 0 0 0 0 0 0 0 0 0 0 0 0 0 0 0.25 0"/>
<feBlend mode="darken" in2="BackgroundImageFix" result="effect1_dropShadow_42_101"/>
<feBlend mode="normal" in="SourceGraphic" in2="effect1_dropShadow_42_101" result="shape"/>
</filter>
<filter id="filter9_di_42_101" x="10.2533" y="396.669" width="110.025" height="110.024" filterUnits="userSpaceOnUse" color-interpolation-filters="sRGB">
<feFlood flood-opacity="0" result="BackgroundImageFix"/>
<feColorMatrix in="SourceAlpha" type="matrix" values="0 0 0 0 0 0 0 0 0 0 0 0 0 0 0 0 0 0 127 0" result="hardAlpha"/>
<feOffset dx="4" dy="4"/>
<feGaussianBlur stdDeviation="5"/>
<feComposite in2="hardAlpha" operator="out"/>
<feColorMatrix type="matrix" values="0 0 0 0 0 0 0 0 0 0 0 0 0 0 0 0 0 0 0.25 0"/>
<feBlend mode="normal" in2="BackgroundImageFix" result="effect1_dropShadow_42_101"/>
<feBlend mode="normal" in="SourceGraphic" in2="effect1_dropShadow_42_101" result="shape"/>
<feColorMatrix in="SourceAlpha" type="matrix" values="0 0 0 0 0 0 0 0 0 0 0 0 0 0 0 0 0 0 127 0" result="hardAlpha"/>
<feOffset dx="-2" dy="-2"/>
<feGaussianBlur stdDeviation="2"/>
<feComposite in2="hardAlpha" operator="arithmetic" k2="-1" k3="1"/>
<feColorMatrix type="matrix" values="0 0 0 0 0 0 0 0 0 0 0 0 0 0 0 0 0 0 0.1 0"/>
<feBlend mode="normal" in2="shape" result="effect2_innerShadow_42_101"/>
</filter>
<filter id="filter10_dii_42_101" x="19" y="401.938" width="54" height="93.6065" filterUnits="userSpaceOnUse" color-interpolation-filters="sRGB">
<feFlood flood-opacity="0" result="BackgroundImageFix"/>
<feColorMatrix in="SourceAlpha" type="matrix" values="0 0 0 0 0 0 0 0 0 0 0 0 0 0 0 0 0 0 127 0" result="hardAlpha"/>
<feOffset dy="1"/>
<feGaussianBlur stdDeviation="0.5"/>
<feComposite in2="hardAlpha" operator="out"/>
<feColorMatrix type="matrix" values="0 0 0 0 0 0 0 0 0 0 0 0 0 0 0 0 0 0 0.1 0"/>
<feBlend mode="normal" in2="BackgroundImageFix" result="effect1_dropShadow_42_101"/>
<feBlend mode="normal" in="SourceGraphic" in2="effect1_dropShadow_42_101" result="shape"/>
<feColorMatrix in="SourceAlpha" type="matrix" values="0 0 0 0 0 0 0 0 0 0 0 0 0 0 0 0 0 0 127 0" result="hardAlpha"/>
<feOffset dx="1" dy="3"/>
<feGaussianBlur stdDeviation="1.5"/>
<feComposite in2="hardAlpha" operator="arithmetic" k2="-1" k3="1"/>
<feColorMatrix type="matrix" values="0 0 0 0 0 0 0 0 0 0 0 0 0 0 0 0 0 0 0.14 0"/>
<feBlend mode="normal" in2="shape" result="effect2_innerShadow_42_101"/>
<feColorMatrix in="SourceAlpha" type="matrix" values="0 0 0 0 0 0 0 0 0 0 0 0 0 0 0 0 0 0 127 0" result="hardAlpha"/>
<feOffset dy="-1"/>
<feGaussianBlur stdDeviation="5"/>
<feComposite in2="hardAlpha" operator="arithmetic" k2="-1" k3="1"/>
<feColorMatrix type="matrix" values="0 0 0 0 1 0 0 0 0 1 0 0 0 0 1 0 0 0 0.1 0"/>
<feBlend mode="normal" in2="effect2_innerShadow_42_101" result="effect3_innerShadow_42_101"/>
</filter>
<filter id="filter11_d_42_101" x="212" y="21" width="266" height="126" filterUnits="userSpaceOnUse" color-interpolation-filters="sRGB">
<feFlood flood-opacity="0" result="BackgroundImageFix"/>
<feColorMatrix in="SourceAlpha" type="matrix" values="0 0 0 0 0 0 0 0 0 0 0 0 0 0 0 0 0 0 127 0" result="hardAlpha"/>
<feMorphology radius="2" operator="erode" in="SourceAlpha" result="effect1_dropShadow_42_101"/>
<feOffset dx="2" dy="4"/>
<feGaussianBlur stdDeviation="6"/>
<feComposite in2="hardAlpha" operator="out"/>
<feColorMatrix type="matrix" values="0 0 0 0 0 0 0 0 0 0 0 0 0 0 0 0 0 0 0.25 0"/>
<feBlend mode="darken" in2="BackgroundImageFix" result="effect1_dropShadow_42_101"/>
<feBlend mode="normal" in="SourceGraphic" in2="effect1_dropShadow_42_101" result="shape"/>
</filter>
<filter id="filter12_ddi_42_101" x="337.722" y="5.3064" width="150.025" height="150.024" filterUnits="userSpaceOnUse" color-interpolation-filters="sRGB">
<feFlood flood-opacity="0" result="BackgroundImageFix"/>
<feColorMatrix in="SourceAlpha" type="matrix" values="0 0 0 0 0 0 0 0 0 0 0 0 0 0 0 0 0 0 127 0" result="hardAlpha"/>
<feOffset/>
<feGaussianBlur stdDeviation="5"/>
<feComposite in2="hardAlpha" operator="out"/>
<feColorMatrix type="matrix" values="0 0 0 0 0.94902 0 0 0 0 0.835294 0 0 0 0 0.541176 0 0 0 0.5 0"/>
<feBlend mode="lighten" in2="BackgroundImageFix" result="effect1_dropShadow_42_101"/>
<feColorMatrix in="SourceAlpha" type="matrix" values="0 0 0 0 0 0 0 0 0 0 0 0 0 0 0 0 0 0 127 0" result="hardAlpha"/>
<feOffset/>
<feGaussianBlur stdDeviation="15"/>
<feComposite in2="hardAlpha" operator="out"/>
<feColorMatrix type="matrix" values="0 0 0 0 0.94902 0 0 0 0 0.835294 0 0 0 0 0.541176 0 0 0 0.2 0"/>
<feBlend mode="normal" in2="effect1_dropShadow_42_101" result="effect2_dropShadow_42_101"/>
<feBlend mode="normal" in="SourceGraphic" in2="effect2_dropShadow_42_101" result="shape"/>
<feColorMatrix in="SourceAlpha" type="matrix" values="0 0 0 0 0 0 0 0 0 0 0 0 0 0 0 0 0 0 127 0" result="hardAlpha"/>
<feOffset dy="-2"/>
<feGaussianBlur stdDeviation="5"/>
<feComposite in2="hardAlpha" operator="arithmetic" k2="-1" k3="1"/>
<feColorMatrix type="matrix" values="0 0 0 0 0.783333 0 0 0 0 0.658572 0 0 0 0 0.228472 0 0 0 0.3 0"/>
<feBlend mode="normal" in2="shape" result="effect3_innerShadow_42_101"/>
</filter>
<clipPath id="clip0_42_101">
<rect width="240" height="100" rx="50" transform="matrix(-1 0 0 1 357 214)" fill="white"/>
</clipPath>
<clipPath id="clip1_42_101">
<rect width="240" height="100" rx="50" transform="matrix(-1 0 0 1 410 122)" fill="white"/>
</clipPath>
<clipPath id="clip2_42_101">
<rect width="240" height="100" rx="50" transform="matrix(-1 0 0 1 304 306)" fill="white"/>
</clipPath>
<clipPath id="clip3_42_101">
<rect width="240" height="100" rx="50" transform="matrix(-1 0 0 1 251 398)" fill="white"/>
</clipPath>
<clipPath id="clip4_42_101">
<rect width="240" height="100" rx="50" transform="matrix(-1 0 0 1 463 30)" fill="white"/>
</clipPath>
</defs>
</svg>
