<svg width="643" height="727" viewBox="0 0 643 727" fill="none" xmlns="http://www.w3.org/2000/svg">
<rect width="635" height="719" transform="translate(8 8)" fill="white"/>
<rect x="171.342" y="8" width="231" height="231" transform="rotate(45 171.342 8)" fill="#FFF96D" stroke="black" stroke-width="11"/>
<rect x="286.842" y="55.8418" width="231" height="231" transform="rotate(90 286.842 55.8418)" stroke="#0395FF" stroke-width="11" stroke-dasharray="22 22"/>
<path d="M491.978 502H520.985C540.389 502 552.071 495.466 552.071 480.418C552.071 470.716 546.032 464.974 537.023 463.093V462.697C544.151 460.42 547.814 453.589 547.814 446.857C547.814 432.898 536.033 428.443 518.708 428.443H491.978V502ZM506.531 458.539V439.63H519.005C528.311 439.63 533.36 442.105 533.36 449.035C533.36 455.371 528.113 458.539 518.708 458.539H506.531ZM506.531 490.714V469.528H520.589C531.974 469.528 537.518 472.498 537.518 479.626C537.518 487.744 531.776 490.714 520.787 490.714H506.531Z" fill="black"/>
</svg>
