<svg width="940" height="383" viewBox="0 0 940 383" fill="none" xmlns="http://www.w3.org/2000/svg">
<circle cx="69" cy="191.5" r="68" fill="white" stroke="black"/>
<path d="M54.9775 202.518V207H42.0947V202.518H54.9775ZM44.1699 182.828V207H38.3428V182.828H44.1699ZM53.3174 192.424V196.757H42.0947V192.424H53.3174ZM55.0273 182.828V187.327H42.0947V182.828H55.0273ZM77.5557 182.828V207H71.7451L63.1953 191.959V207H57.3682V182.828H63.1953L71.7451 197.869V182.828H77.5557ZM101.014 194.084V204.012C100.604 204.465 99.9733 204.952 99.1211 205.473C98.2799 205.982 97.2174 206.419 95.9336 206.784C94.6497 207.149 93.139 207.332 91.4014 207.332C89.7965 207.332 88.3411 207.077 87.0352 206.568C85.7292 206.048 84.6058 205.29 83.665 204.294C82.7354 203.287 82.016 202.058 81.5068 200.608C81.0088 199.147 80.7598 197.476 80.7598 195.595V194.25C80.7598 192.368 81.0143 190.697 81.5234 189.236C82.0326 187.775 82.7464 186.547 83.665 185.551C84.5947 184.544 85.6849 183.78 86.9355 183.26C88.1973 182.74 89.5807 182.479 91.0859 182.479C93.3105 182.479 95.1201 182.834 96.5146 183.542C97.9092 184.239 98.9661 185.208 99.6855 186.447C100.405 187.676 100.842 189.098 100.997 190.714H95.4023C95.2917 189.917 95.0814 189.242 94.7715 188.688C94.4727 188.124 94.041 187.698 93.4766 187.41C92.9121 187.111 92.1816 186.962 91.2852 186.962C90.5879 186.962 89.9515 187.111 89.376 187.41C88.8115 187.709 88.3301 188.163 87.9316 188.771C87.5332 189.369 87.2233 190.122 87.002 191.029C86.7917 191.937 86.6865 192.999 86.6865 194.217V195.595C86.6865 196.801 86.7861 197.858 86.9854 198.766C87.1956 199.673 87.5055 200.431 87.915 201.04C88.3356 201.638 88.8669 202.091 89.5088 202.401C90.1618 202.7 90.931 202.85 91.8164 202.85C92.4362 202.85 92.9674 202.8 93.4102 202.7C93.8529 202.59 94.2181 202.457 94.5059 202.302C94.8047 202.136 95.0316 201.981 95.1865 201.837V198.085H91.1357V194.084H101.014Z" fill="black"/>
<path d="M239.5 80C239.5 35.8172 275.317 0 319.5 0H620.5C664.683 0 700.5 35.8172 700.5 80V303C700.5 347.183 664.683 383 620.5 383H319.5C275.317 383 239.5 347.183 239.5 303V80Z" fill="black"/>
<path d="M392.141 222V193.727H367.391V222H354.285V158.664H367.391V182.812H392.141V158.664H405.289V222H392.141ZM457.066 208.25C456.751 211.029 455.305 213.85 452.727 216.715C448.716 221.27 443.102 223.547 435.883 223.547C429.924 223.547 424.668 221.628 420.113 217.789C415.559 213.951 413.281 207.706 413.281 199.055C413.281 190.948 415.329 184.732 419.426 180.406C423.551 176.081 428.893 173.918 435.453 173.918C439.349 173.918 442.858 174.648 445.98 176.109C449.103 177.57 451.681 179.876 453.715 183.027C455.548 185.806 456.737 189.029 457.281 192.695C457.596 194.844 457.725 197.938 457.668 201.977H425.613C425.785 206.674 427.26 209.969 430.039 211.859C431.729 213.034 433.763 213.621 436.141 213.621C438.661 213.621 440.71 212.905 442.285 211.473C443.145 210.699 443.904 209.625 444.562 208.25H457.066ZM444.949 193.898C444.749 190.661 443.76 188.212 441.984 186.551C440.237 184.861 438.06 184.016 435.453 184.016C432.617 184.016 430.411 184.904 428.836 186.68C427.289 188.456 426.315 190.862 425.914 193.898H444.949ZM466.219 158.664H478.465V222H466.219V158.664ZM490.711 158.664H502.957V222H490.711V158.664ZM554.004 181.094C557.957 186.049 559.934 191.908 559.934 198.668C559.934 205.543 557.957 211.43 554.004 216.328C550.051 221.198 544.049 223.633 536 223.633C527.951 223.633 521.949 221.198 517.996 216.328C514.043 211.43 512.066 205.543 512.066 198.668C512.066 191.908 514.043 186.049 517.996 181.094C521.949 176.138 527.951 173.66 536 173.66C544.049 173.66 550.051 176.138 554.004 181.094ZM535.957 184.016C532.376 184.016 529.612 185.29 527.664 187.84C525.745 190.361 524.785 193.97 524.785 198.668C524.785 203.366 525.745 206.99 527.664 209.539C529.612 212.089 532.376 213.363 535.957 213.363C539.538 213.363 542.288 212.089 544.207 209.539C546.126 206.99 547.086 203.366 547.086 198.668C547.086 193.97 546.126 190.361 544.207 187.84C542.288 185.29 539.538 184.016 535.957 184.016ZM586.145 174.949L582.664 204.512H576.262L572.695 174.949V158.879H586.145V174.949ZM585.801 209.582V222H572.996V209.582H585.801Z" fill="white"/>
<circle cx="871" cy="191.5" r="68" fill="white" stroke="black"/>
<path d="M860.195 204H854.833L854.866 199.518H860.195C861.302 199.518 862.237 199.252 863.001 198.721C863.776 198.189 864.362 197.398 864.761 196.347C865.17 195.284 865.375 193.978 865.375 192.429V191.383C865.375 190.221 865.259 189.202 865.026 188.328C864.805 187.443 864.473 186.707 864.03 186.12C863.588 185.522 863.034 185.074 862.37 184.775C861.717 184.477 860.965 184.327 860.112 184.327H854.733V179.828H860.112C861.75 179.828 863.25 180.11 864.611 180.675C865.984 181.228 867.168 182.025 868.164 183.065C869.171 184.095 869.946 185.318 870.488 186.734C871.042 188.14 871.318 189.701 871.318 191.416V192.429C871.318 194.133 871.042 195.694 870.488 197.11C869.946 198.527 869.177 199.75 868.181 200.779C867.185 201.809 866.006 202.605 864.645 203.17C863.294 203.723 861.811 204 860.195 204ZM858.17 179.828V204H852.343V179.828H858.17ZM890.991 199.518V204H878.108V199.518H890.991ZM880.184 179.828V204H874.356V179.828H880.184ZM889.331 189.424V193.757H878.108V189.424H889.331ZM891.041 179.828V184.327H878.108V179.828H891.041Z" fill="black"/>
</svg>
