<svg width="1815" height="1293" viewBox="0 0 1815 1293" fill="none" xmlns="http://www.w3.org/2000/svg">
<rect width="1815" height="1293" fill="white"/>
<circle cx="185" cy="175" r="100" fill="#4EFF95" stroke="#D2A5FF" stroke-width="25"/>
<circle cx="185" cy="175" r="100" stroke="#1C6EE8"/>
<rect x="85" y="75" width="200" height="200" stroke="#1C6EE8"/>
<g filter="url(#filter0_d_1_66546)">
<rect x="81" y="71" width="8" height="8" fill="white"/>
<rect x="81.5" y="71.5" width="7" height="7" stroke="#1C6EE8"/>
</g>
<g filter="url(#filter1_d_1_66546)">
<rect x="81" y="271" width="8" height="8" fill="white"/>
<rect x="81.5" y="271.5" width="7" height="7" stroke="#1C6EE8"/>
</g>
<g filter="url(#filter2_d_1_66546)">
<rect x="281" y="71" width="8" height="8" fill="white"/>
<rect x="281.5" y="71.5" width="7" height="7" stroke="#1C6EE8"/>
</g>
<g filter="url(#filter3_d_1_66546)">
<rect x="281" y="271" width="8" height="8" fill="white"/>
<rect x="281.5" y="271.5" width="7" height="7" stroke="#1C6EE8"/>
</g>
<path d="M183.25 171.402V169C183.25 168.034 184.034 167.25 185 167.25C185.966 167.25 186.75 168.034 186.75 169V171.402C187.554 171.794 188.206 172.446 188.598 173.25H191C191.966 173.25 192.75 174.034 192.75 175C192.75 175.966 191.966 176.75 191 176.75H188.598C188.206 177.554 187.554 178.206 186.75 178.598V181C186.75 181.966 185.966 182.75 185 182.75C184.034 182.75 183.25 181.966 183.25 181V178.598C182.446 178.206 181.794 177.554 181.402 176.75H179C178.034 176.75 177.25 175.966 177.25 175C177.25 174.034 178.034 173.25 179 173.25H181.402C181.794 172.446 182.446 171.794 183.25 171.402Z" fill="white"/>
<path fill-rule="evenodd" clip-rule="evenodd" d="M185 168.25C185.414 168.25 185.75 168.586 185.75 169V172.095C186.804 172.366 187.634 173.196 187.905 174.25H191C191.414 174.25 191.75 174.586 191.75 175C191.75 175.414 191.414 175.75 191 175.75H187.905C187.634 176.804 186.804 177.634 185.75 177.905V181C185.75 181.414 185.414 181.75 185 181.75C184.586 181.75 184.25 181.414 184.25 181V177.905C183.196 177.634 182.366 176.804 182.095 175.75H179C178.586 175.75 178.25 175.414 178.25 175C178.25 174.586 178.586 174.25 179 174.25H182.095C182.366 173.196 183.196 172.366 184.25 172.095V169C184.25 168.586 184.586 168.25 185 168.25ZM186.5 175C186.5 175.828 185.828 176.5 185 176.5C184.172 176.5 183.5 175.828 183.5 175C183.5 174.172 184.172 173.5 185 173.5C185.828 173.5 186.5 174.172 186.5 175Z" fill="#1C6EE8"/>
<path d="M247.794 531C193.294 546 93.3941 583.5 129.794 613.5C175.294 651 260.294 607 243.294 659C226.294 711 143.294 713.5 143.294 713.5" stroke="#F4D116" stroke-width="15"/>
<path d="M247.794 531C193.294 546 93.3941 583.5 129.794 613.5C175.294 651 260.294 607 243.294 659C226.294 711 143.294 713.5 143.294 713.5" stroke="#1C6EE8"/>
<rect x="122" y="531" width="126" height="182" stroke="#1C6EE8"/>
<g filter="url(#filter4_d_1_66546)">
<rect x="118" y="527" width="8" height="8" fill="white"/>
<rect x="118.5" y="527.5" width="7" height="7" stroke="#1C6EE8"/>
</g>
<g filter="url(#filter5_d_1_66546)">
<rect x="118" y="709" width="8" height="8" fill="white"/>
<rect x="118.5" y="709.5" width="7" height="7" stroke="#1C6EE8"/>
</g>
<g filter="url(#filter6_d_1_66546)">
<rect x="244" y="527" width="8" height="8" fill="white"/>
<rect x="244.5" y="527.5" width="7" height="7" stroke="#1C6EE8"/>
</g>
<g filter="url(#filter7_d_1_66546)">
<rect x="244" y="709" width="8" height="8" fill="white"/>
<rect x="244.5" y="709.5" width="7" height="7" stroke="#1C6EE8"/>
</g>
<path d="M183.25 618.402V616C183.25 615.034 184.034 614.25 185 614.25C185.966 614.25 186.75 615.034 186.75 616V618.402C187.554 618.794 188.206 619.446 188.598 620.25H191C191.966 620.25 192.75 621.034 192.75 622C192.75 622.966 191.966 623.75 191 623.75H188.598C188.206 624.554 187.554 625.206 186.75 625.598V628C186.75 628.966 185.966 629.75 185 629.75C184.034 629.75 183.25 628.966 183.25 628V625.598C182.446 625.206 181.794 624.554 181.402 623.75H179C178.034 623.75 177.25 622.966 177.25 622C177.25 621.034 178.034 620.25 179 620.25H181.402C181.794 619.446 182.446 618.794 183.25 618.402Z" fill="white"/>
<path fill-rule="evenodd" clip-rule="evenodd" d="M185 615.25C185.414 615.25 185.75 615.586 185.75 616V619.095C186.804 619.366 187.634 620.196 187.905 621.25H191C191.414 621.25 191.75 621.586 191.75 622C191.75 622.414 191.414 622.75 191 622.75H187.905C187.634 623.804 186.804 624.634 185.75 624.905V628C185.75 628.414 185.414 628.75 185 628.75C184.586 628.75 184.25 628.414 184.25 628V624.905C183.196 624.634 182.366 623.804 182.095 622.75H179C178.586 622.75 178.25 622.414 178.25 622C178.25 621.586 178.586 621.25 179 621.25H182.095C182.366 620.196 183.196 619.366 184.25 619.095V616C184.25 615.586 184.586 615.25 185 615.25ZM186.5 622C186.5 622.828 185.828 623.5 185 623.5C184.172 623.5 183.5 622.828 183.5 622C183.5 621.172 184.172 620.5 185 620.5C185.828 620.5 186.5 621.172 186.5 622Z" fill="#1C6EE8"/>
<path d="M387.25 607.402V605C387.25 604.034 388.034 603.25 389 603.25C389.966 603.25 390.75 604.034 390.75 605V607.402C391.554 607.794 392.206 608.446 392.598 609.25H395C395.966 609.25 396.75 610.034 396.75 611C396.75 611.966 395.966 612.75 395 612.75H392.598C392.206 613.554 391.554 614.206 390.75 614.598V617C390.75 617.966 389.966 618.75 389 618.75C388.034 618.75 387.25 617.966 387.25 617V614.598C386.446 614.206 385.794 613.554 385.402 612.75H383C382.034 612.75 381.25 611.966 381.25 611C381.25 610.034 382.034 609.25 383 609.25H385.402C385.794 608.446 386.446 607.794 387.25 607.402Z" fill="white"/>
<path fill-rule="evenodd" clip-rule="evenodd" d="M389 604.25C389.414 604.25 389.75 604.586 389.75 605V608.095C390.804 608.366 391.634 609.196 391.905 610.25H395C395.414 610.25 395.75 610.586 395.75 611C395.75 611.414 395.414 611.75 395 611.75H391.905C391.634 612.804 390.804 613.634 389.75 613.905V617C389.75 617.414 389.414 617.75 389 617.75C388.586 617.75 388.25 617.414 388.25 617V613.905C387.196 613.634 386.366 612.804 386.095 611.75H383C382.586 611.75 382.25 611.414 382.25 611C382.25 610.586 382.586 610.25 383 610.25H386.095C386.366 609.196 387.196 608.366 388.25 608.095V605C388.25 604.586 388.586 604.25 389 604.25ZM390.5 611C390.5 611.828 389.828 612.5 389 612.5C388.172 612.5 387.5 611.828 387.5 611C387.5 610.172 388.172 609.5 389 609.5C389.828 609.5 390.5 610.172 390.5 611Z" fill="#1C6EE8"/>
<rect x="349" y="99" width="135" height="135" fill="#DB3F3F" stroke="black" stroke-width="21"/>
<rect x="349" y="99" width="135" height="135" stroke="#1C6EE8"/>
<g filter="url(#filter8_d_1_66546)">
<rect x="345" y="95" width="8" height="8" fill="white"/>
<rect x="345.5" y="95.5" width="7" height="7" stroke="#1C6EE8"/>
</g>
<g filter="url(#filter9_d_1_66546)">
<rect x="345" y="230" width="8" height="8" fill="white"/>
<rect x="345.5" y="230.5" width="7" height="7" stroke="#1C6EE8"/>
</g>
<g filter="url(#filter10_d_1_66546)">
<rect x="480" y="95" width="8" height="8" fill="white"/>
<rect x="480.5" y="95.5" width="7" height="7" stroke="#1C6EE8"/>
</g>
<g filter="url(#filter11_d_1_66546)">
<rect x="480" y="230" width="8" height="8" fill="white"/>
<rect x="480.5" y="230.5" width="7" height="7" stroke="#1C6EE8"/>
</g>
<path d="M415.25 163.402V161C415.25 160.034 416.034 159.25 417 159.25C417.966 159.25 418.75 160.034 418.75 161V163.402C419.554 163.794 420.206 164.446 420.598 165.25H423C423.966 165.25 424.75 166.034 424.75 167C424.75 167.966 423.966 168.75 423 168.75H420.598C420.206 169.554 419.554 170.206 418.75 170.598V173C418.75 173.966 417.966 174.75 417 174.75C416.034 174.75 415.25 173.966 415.25 173V170.598C414.446 170.206 413.794 169.554 413.402 168.75H411C410.034 168.75 409.25 167.966 409.25 167C409.25 166.034 410.034 165.25 411 165.25H413.402C413.794 164.446 414.446 163.794 415.25 163.402Z" fill="white"/>
<path fill-rule="evenodd" clip-rule="evenodd" d="M417 160.25C417.414 160.25 417.75 160.586 417.75 161V164.095C418.804 164.366 419.634 165.196 419.905 166.25H423C423.414 166.25 423.75 166.586 423.75 167C423.75 167.414 423.414 167.75 423 167.75H419.905C419.634 168.804 418.804 169.634 417.75 169.905V173C417.75 173.414 417.414 173.75 417 173.75C416.586 173.75 416.25 173.414 416.25 173V169.905C415.196 169.634 414.366 168.804 414.095 167.75H411C410.586 167.75 410.25 167.414 410.25 167C410.25 166.586 410.586 166.25 411 166.25H414.095C414.366 165.196 415.196 164.366 416.25 164.095V161C416.25 160.586 416.586 160.25 417 160.25ZM418.5 167C418.5 167.828 417.828 168.5 417 168.5C416.172 168.5 415.5 167.828 415.5 167C415.5 166.172 416.172 165.5 417 165.5C417.828 165.5 418.5 166.172 418.5 167Z" fill="#1C6EE8"/>
<circle cx="600.5" cy="169.5" r="52.5" fill="#FFB979" stroke="#1C6EE8"/>
<circle cx="1286.5" cy="169.5" r="52.5" fill="#FFB979"/>
<rect x="598" y="167" width="93" height="93" fill="#5CFFC4" stroke="#1C6EE8"/>
<rect x="1284" y="167" width="93" height="93" fill="#5CFFC4"/>
<circle cx="600.5" cy="363.5" r="52.5" fill="#FFB979" stroke="#1C6EE8"/>
<rect x="662" y="132" width="93" height="93" stroke="#1C6EE8"/>
<rect x="548" y="117" width="207" height="143" stroke="#1C6EE8"/>
<g filter="url(#filter12_d_1_66546)">
<rect x="544" y="113" width="8" height="8" fill="white"/>
<rect x="544.5" y="113.5" width="7" height="7" stroke="#1C6EE8"/>
</g>
<g filter="url(#filter13_d_1_66546)">
<rect x="544" y="256" width="8" height="8" fill="white"/>
<rect x="544.5" y="256.5" width="7" height="7" stroke="#1C6EE8"/>
</g>
<g filter="url(#filter14_d_1_66546)">
<rect x="751" y="113" width="8" height="8" fill="white"/>
<rect x="751.5" y="113.5" width="7" height="7" stroke="#1C6EE8"/>
</g>
<g filter="url(#filter15_d_1_66546)">
<rect x="751" y="256" width="8" height="8" fill="white"/>
<rect x="751.5" y="256.5" width="7" height="7" stroke="#1C6EE8"/>
</g>
<circle cx="867.5" cy="169.5" r="52.5" fill="#FFB979"/>
<rect x="865" y="167" width="93" height="93" fill="#5CFFC4"/>
<rect x="815" y="117" width="207" height="143" stroke="#1C6EE8"/>
<g filter="url(#filter16_d_1_66546)">
<rect x="811" y="113" width="8" height="8" fill="white"/>
<rect x="811.5" y="113.5" width="7" height="7" stroke="#1C6EE8"/>
</g>
<g filter="url(#filter17_d_1_66546)">
<rect x="811" y="256" width="8" height="8" fill="white"/>
<rect x="811.5" y="256.5" width="7" height="7" stroke="#1C6EE8"/>
</g>
<g filter="url(#filter18_d_1_66546)">
<rect x="1018" y="113" width="8" height="8" fill="white"/>
<rect x="1018.5" y="113.5" width="7" height="7" stroke="#1C6EE8"/>
</g>
<g filter="url(#filter19_d_1_66546)">
<rect x="1018" y="256" width="8" height="8" fill="white"/>
<rect x="1018.5" y="256.5" width="7" height="7" stroke="#1C6EE8"/>
</g>
<path d="M917.25 184.402V182C917.25 181.034 918.034 180.25 919 180.25C919.966 180.25 920.75 181.034 920.75 182V184.402C921.554 184.794 922.206 185.446 922.598 186.25H925C925.966 186.25 926.75 187.034 926.75 188C926.75 188.966 925.966 189.75 925 189.75H922.598C922.206 190.554 921.554 191.206 920.75 191.598V194C920.75 194.966 919.966 195.75 919 195.75C918.034 195.75 917.25 194.966 917.25 194V191.598C916.446 191.206 915.794 190.554 915.402 189.75H913C912.034 189.75 911.25 188.966 911.25 188C911.25 187.034 912.034 186.25 913 186.25H915.402C915.794 185.446 916.446 184.794 917.25 184.402Z" fill="white"/>
<path fill-rule="evenodd" clip-rule="evenodd" d="M919 181.25C919.414 181.25 919.75 181.586 919.75 182V185.095C920.804 185.366 921.634 186.196 921.905 187.25H925C925.414 187.25 925.75 187.586 925.75 188C925.75 188.414 925.414 188.75 925 188.75H921.905C921.634 189.804 920.804 190.634 919.75 190.905V194C919.75 194.414 919.414 194.75 919 194.75C918.586 194.75 918.25 194.414 918.25 194V190.905C917.196 190.634 916.366 189.804 916.095 188.75H913C912.586 188.75 912.25 188.414 912.25 188C912.25 187.586 912.586 187.25 913 187.25H916.095C916.366 186.196 917.196 185.366 918.25 185.095V182C918.25 181.586 918.586 181.25 919 181.25ZM920.5 188C920.5 188.828 919.828 189.5 919 189.5C918.172 189.5 917.5 188.828 917.5 188C917.5 187.172 918.172 186.5 919 186.5C919.828 186.5 920.5 187.172 920.5 188Z" fill="#1C6EE8"/>
<path d="M599.25 165.402V163C599.25 162.034 600.034 161.25 601 161.25C601.966 161.25 602.75 162.034 602.75 163V165.402C603.554 165.794 604.206 166.446 604.598 167.25H607C607.966 167.25 608.75 168.034 608.75 169C608.75 169.966 607.966 170.75 607 170.75H604.598C604.206 171.554 603.554 172.206 602.75 172.598V175C602.75 175.966 601.966 176.75 601 176.75C600.034 176.75 599.25 175.966 599.25 175V172.598C598.446 172.206 597.794 171.554 597.402 170.75H595C594.034 170.75 593.25 169.966 593.25 169C593.25 168.034 594.034 167.25 595 167.25H597.402C597.794 166.446 598.446 165.794 599.25 165.402Z" fill="white"/>
<path fill-rule="evenodd" clip-rule="evenodd" d="M601 162.25C601.414 162.25 601.75 162.586 601.75 163V166.095C602.804 166.366 603.634 167.196 603.905 168.25H607C607.414 168.25 607.75 168.586 607.75 169C607.75 169.414 607.414 169.75 607 169.75H603.905C603.634 170.804 602.804 171.634 601.75 171.905V175C601.75 175.414 601.414 175.75 601 175.75C600.586 175.75 600.25 175.414 600.25 175V171.905C599.196 171.634 598.366 170.804 598.095 169.75H595C594.586 169.75 594.25 169.414 594.25 169C594.25 168.586 594.586 168.25 595 168.25H598.095C598.366 167.196 599.196 166.366 600.25 166.095V163C600.25 162.586 600.586 162.25 601 162.25ZM602.5 169C602.5 169.828 601.828 170.5 601 170.5C600.172 170.5 599.5 169.828 599.5 169C599.5 168.172 600.172 167.5 601 167.5C601.828 167.5 602.5 168.172 602.5 169Z" fill="#1C6EE8"/>
<path d="M643.25 209.402V207C643.25 206.034 644.034 205.25 645 205.25C645.966 205.25 646.75 206.034 646.75 207V209.402C647.554 209.794 648.206 210.446 648.598 211.25H651C651.966 211.25 652.75 212.034 652.75 213C652.75 213.966 651.966 214.75 651 214.75H648.598C648.206 215.554 647.554 216.206 646.75 216.598V219C646.75 219.966 645.966 220.75 645 220.75C644.034 220.75 643.25 219.966 643.25 219V216.598C642.446 216.206 641.794 215.554 641.402 214.75H639C638.034 214.75 637.25 213.966 637.25 213C637.25 212.034 638.034 211.25 639 211.25H641.402C641.794 210.446 642.446 209.794 643.25 209.402Z" fill="white"/>
<path fill-rule="evenodd" clip-rule="evenodd" d="M645 206.25C645.414 206.25 645.75 206.586 645.75 207V210.095C646.804 210.366 647.634 211.196 647.905 212.25H651C651.414 212.25 651.75 212.586 651.75 213C651.75 213.414 651.414 213.75 651 213.75H647.905C647.634 214.804 646.804 215.634 645.75 215.905V219C645.75 219.414 645.414 219.75 645 219.75C644.586 219.75 644.25 219.414 644.25 219V215.905C643.196 215.634 642.366 214.804 642.095 213.75H639C638.586 213.75 638.25 213.414 638.25 213C638.25 212.586 638.586 212.25 639 212.25H642.095C642.366 211.196 643.196 210.366 644.25 210.095V207C644.25 206.586 644.586 206.25 645 206.25ZM646.5 213C646.5 213.828 645.828 214.5 645 214.5C644.172 214.5 643.5 213.828 643.5 213C643.5 212.172 644.172 211.5 645 211.5C645.828 211.5 646.5 212.172 646.5 213Z" fill="#1C6EE8"/>
<rect x="598" y="361" width="93" height="93" fill="#5CFFC4" stroke="#1C6EE8"/>
<rect x="662" y="326" width="93" height="93" stroke="#1C6EE8"/>
<rect x="548" y="311" width="207" height="143" stroke="#1C6EE8"/>
<g filter="url(#filter20_d_1_66546)">
<rect x="544" y="307" width="8" height="8" fill="white"/>
<rect x="544.5" y="307.5" width="7" height="7" stroke="#1C6EE8"/>
</g>
<g filter="url(#filter21_d_1_66546)">
<rect x="544" y="450" width="8" height="8" fill="white"/>
<rect x="544.5" y="450.5" width="7" height="7" stroke="#1C6EE8"/>
</g>
<g filter="url(#filter22_d_1_66546)">
<rect x="751" y="307" width="8" height="8" fill="white"/>
<rect x="751.5" y="307.5" width="7" height="7" stroke="#1C6EE8"/>
</g>
<g filter="url(#filter23_d_1_66546)">
<rect x="751" y="450" width="8" height="8" fill="white"/>
<rect x="751.5" y="450.5" width="7" height="7" stroke="#1C6EE8"/>
</g>
<circle cx="867.5" cy="363.5" r="52.5" fill="#FFB979"/>
<rect x="865" y="361" width="93" height="93" fill="#5CFFC4"/>
<rect x="815" y="311" width="143" height="143" stroke="#1C6EE8"/>
<g filter="url(#filter24_d_1_66546)">
<rect x="811" y="307" width="8" height="8" fill="white"/>
<rect x="811.5" y="307.5" width="7" height="7" stroke="#1C6EE8"/>
</g>
<g filter="url(#filter25_d_1_66546)">
<rect x="811" y="450" width="8" height="8" fill="white"/>
<rect x="811.5" y="450.5" width="7" height="7" stroke="#1C6EE8"/>
</g>
<g filter="url(#filter26_d_1_66546)">
<rect x="954" y="307" width="8" height="8" fill="white"/>
<rect x="954.5" y="307.5" width="7" height="7" stroke="#1C6EE8"/>
</g>
<g filter="url(#filter27_d_1_66546)">
<rect x="954" y="450" width="8" height="8" fill="white"/>
<rect x="954.5" y="450.5" width="7" height="7" stroke="#1C6EE8"/>
</g>
<path d="M885.25 378.402V376C885.25 375.034 886.034 374.25 887 374.25C887.966 374.25 888.75 375.034 888.75 376V378.402C889.554 378.794 890.206 379.446 890.598 380.25H893C893.966 380.25 894.75 381.034 894.75 382C894.75 382.966 893.966 383.75 893 383.75H890.598C890.206 384.554 889.554 385.206 888.75 385.598V388C888.75 388.966 887.966 389.75 887 389.75C886.034 389.75 885.25 388.966 885.25 388V385.598C884.446 385.206 883.794 384.554 883.402 383.75H881C880.034 383.75 879.25 382.966 879.25 382C879.25 381.034 880.034 380.25 881 380.25H883.402C883.794 379.446 884.446 378.794 885.25 378.402Z" fill="white"/>
<path fill-rule="evenodd" clip-rule="evenodd" d="M887 375.25C887.414 375.25 887.75 375.586 887.75 376V379.095C888.804 379.366 889.634 380.196 889.905 381.25H893C893.414 381.25 893.75 381.586 893.75 382C893.75 382.414 893.414 382.75 893 382.75H889.905C889.634 383.804 888.804 384.634 887.75 384.905V388C887.75 388.414 887.414 388.75 887 388.75C886.586 388.75 886.25 388.414 886.25 388V384.905C885.196 384.634 884.366 383.804 884.095 382.75H881C880.586 382.75 880.25 382.414 880.25 382C880.25 381.586 880.586 381.25 881 381.25H884.095C884.366 380.196 885.196 379.366 886.25 379.095V376C886.25 375.586 886.586 375.25 887 375.25ZM888.5 382C888.5 382.828 887.828 383.5 887 383.5C886.172 383.5 885.5 382.828 885.5 382C885.5 381.172 886.172 380.5 887 380.5C887.828 380.5 888.5 381.172 888.5 382Z" fill="#1C6EE8"/>
<path d="M599.25 359.402V357C599.25 356.034 600.034 355.25 601 355.25C601.966 355.25 602.75 356.034 602.75 357V359.402C603.554 359.794 604.206 360.446 604.598 361.25H607C607.966 361.25 608.75 362.034 608.75 363C608.75 363.966 607.966 364.75 607 364.75H604.598C604.206 365.554 603.554 366.206 602.75 366.598V369C602.75 369.966 601.966 370.75 601 370.75C600.034 370.75 599.25 369.966 599.25 369V366.598C598.446 366.206 597.794 365.554 597.402 364.75H595C594.034 364.75 593.25 363.966 593.25 363C593.25 362.034 594.034 361.25 595 361.25H597.402C597.794 360.446 598.446 359.794 599.25 359.402Z" fill="white"/>
<path fill-rule="evenodd" clip-rule="evenodd" d="M601 356.25C601.414 356.25 601.75 356.586 601.75 357V360.095C602.804 360.366 603.634 361.196 603.905 362.25H607C607.414 362.25 607.75 362.586 607.75 363C607.75 363.414 607.414 363.75 607 363.75H603.905C603.634 364.804 602.804 365.634 601.75 365.905V369C601.75 369.414 601.414 369.75 601 369.75C600.586 369.75 600.25 369.414 600.25 369V365.905C599.196 365.634 598.366 364.804 598.095 363.75H595C594.586 363.75 594.25 363.414 594.25 363C594.25 362.586 594.586 362.25 595 362.25H598.095C598.366 361.196 599.196 360.366 600.25 360.095V357C600.25 356.586 600.586 356.25 601 356.25ZM602.5 363C602.5 363.828 601.828 364.5 601 364.5C600.172 364.5 599.5 363.828 599.5 363C599.5 362.172 600.172 361.5 601 361.5C601.828 361.5 602.5 362.172 602.5 363Z" fill="#1C6EE8"/>
<path d="M643.25 403.402V401C643.25 400.034 644.034 399.25 645 399.25C645.966 399.25 646.75 400.034 646.75 401V403.402C647.554 403.794 648.206 404.446 648.598 405.25H651C651.966 405.25 652.75 406.034 652.75 407C652.75 407.966 651.966 408.75 651 408.75H648.598C648.206 409.554 647.554 410.206 646.75 410.598V413C646.75 413.966 645.966 414.75 645 414.75C644.034 414.75 643.25 413.966 643.25 413V410.598C642.446 410.206 641.794 409.554 641.402 408.75H639C638.034 408.75 637.25 407.966 637.25 407C637.25 406.034 638.034 405.25 639 405.25H641.402C641.794 404.446 642.446 403.794 643.25 403.402Z" fill="white"/>
<path fill-rule="evenodd" clip-rule="evenodd" d="M645 400.25C645.414 400.25 645.75 400.586 645.75 401V404.095C646.804 404.366 647.634 405.196 647.905 406.25H651C651.414 406.25 651.75 406.586 651.75 407C651.75 407.414 651.414 407.75 651 407.75H647.905C647.634 408.804 646.804 409.634 645.75 409.905V413C645.75 413.414 645.414 413.75 645 413.75C644.586 413.75 644.25 413.414 644.25 413V409.905C643.196 409.634 642.366 408.804 642.095 407.75H639C638.586 407.75 638.25 407.414 638.25 407C638.25 406.586 638.586 406.25 639 406.25H642.095C642.366 405.196 643.196 404.366 644.25 404.095V401C644.25 400.586 644.586 400.25 645 400.25ZM646.5 407C646.5 407.828 645.828 408.5 645 408.5C644.172 408.5 643.5 407.828 643.5 407C643.5 406.172 644.172 405.5 645 405.5C645.828 405.5 646.5 406.172 646.5 407Z" fill="#1C6EE8"/>
<path d="M707.25 368.402V366C707.25 365.034 708.034 364.25 709 364.25C709.966 364.25 710.75 365.034 710.75 366V368.402C711.554 368.794 712.206 369.446 712.598 370.25H715C715.966 370.25 716.75 371.034 716.75 372C716.75 372.966 715.966 373.75 715 373.75H712.598C712.206 374.554 711.554 375.206 710.75 375.598V378C710.75 378.966 709.966 379.75 709 379.75C708.034 379.75 707.25 378.966 707.25 378V375.598C706.446 375.206 705.794 374.554 705.402 373.75H703C702.034 373.75 701.25 372.966 701.25 372C701.25 371.034 702.034 370.25 703 370.25H705.402C705.794 369.446 706.446 368.794 707.25 368.402Z" fill="white"/>
<path fill-rule="evenodd" clip-rule="evenodd" d="M709 365.25C709.414 365.25 709.75 365.586 709.75 366V369.095C710.804 369.366 711.634 370.196 711.905 371.25H715C715.414 371.25 715.75 371.586 715.75 372C715.75 372.414 715.414 372.75 715 372.75H711.905C711.634 373.804 710.804 374.634 709.75 374.905V378C709.75 378.414 709.414 378.75 709 378.75C708.586 378.75 708.25 378.414 708.25 378V374.905C707.196 374.634 706.366 373.804 706.095 372.75H703C702.586 372.75 702.25 372.414 702.25 372C702.25 371.586 702.586 371.25 703 371.25H706.095C706.366 370.196 707.196 369.366 708.25 369.095V366C708.25 365.586 708.586 365.25 709 365.25ZM710.5 372C710.5 372.828 709.828 373.5 709 373.5C708.172 373.5 707.5 372.828 707.5 372C707.5 371.172 708.172 370.5 709 370.5C709.828 370.5 710.5 371.172 710.5 372Z" fill="#1C6EE8"/>
<path d="M707.25 174.402V172C707.25 171.034 708.034 170.25 709 170.25C709.966 170.25 710.75 171.034 710.75 172V174.402C711.554 174.794 712.206 175.446 712.598 176.25H715C715.966 176.25 716.75 177.034 716.75 178C716.75 178.966 715.966 179.75 715 179.75H712.598C712.206 180.554 711.554 181.206 710.75 181.598V184C710.75 184.966 709.966 185.75 709 185.75C708.034 185.75 707.25 184.966 707.25 184V181.598C706.446 181.206 705.794 180.554 705.402 179.75H703C702.034 179.75 701.25 178.966 701.25 178C701.25 177.034 702.034 176.25 703 176.25H705.402C705.794 175.446 706.446 174.794 707.25 174.402Z" fill="white"/>
<path fill-rule="evenodd" clip-rule="evenodd" d="M709 171.25C709.414 171.25 709.75 171.586 709.75 172V175.095C710.804 175.366 711.634 176.196 711.905 177.25H715C715.414 177.25 715.75 177.586 715.75 178C715.75 178.414 715.414 178.75 715 178.75H711.905C711.634 179.804 710.804 180.634 709.75 180.905V184C709.75 184.414 709.414 184.75 709 184.75C708.586 184.75 708.25 184.414 708.25 184V180.905C707.196 180.634 706.366 179.804 706.095 178.75H703C702.586 178.75 702.25 178.414 702.25 178C702.25 177.586 702.586 177.25 703 177.25H706.095C706.366 176.196 707.196 175.366 708.25 175.095V172C708.25 171.586 708.586 171.25 709 171.25ZM710.5 178C710.5 178.828 709.828 179.5 709 179.5C708.172 179.5 707.5 178.828 707.5 178C707.5 177.172 708.172 176.5 709 176.5C709.828 176.5 710.5 177.172 710.5 178Z" fill="#1C6EE8"/>
<path d="M817.25 643.402V641C817.25 640.034 818.034 639.25 819 639.25C819.966 639.25 820.75 640.034 820.75 641V643.402C821.554 643.794 822.206 644.446 822.598 645.25H825C825.966 645.25 826.75 646.034 826.75 647C826.75 647.966 825.966 648.75 825 648.75H822.598C822.206 649.554 821.554 650.206 820.75 650.598V653C820.75 653.966 819.966 654.75 819 654.75C818.034 654.75 817.25 653.966 817.25 653V650.598C816.446 650.206 815.794 649.554 815.402 648.75H813C812.034 648.75 811.25 647.966 811.25 647C811.25 646.034 812.034 645.25 813 645.25H815.402C815.794 644.446 816.446 643.794 817.25 643.402Z" fill="white"/>
<path fill-rule="evenodd" clip-rule="evenodd" d="M819 640.25C819.414 640.25 819.75 640.586 819.75 641V644.095C820.804 644.366 821.634 645.196 821.905 646.25H825C825.414 646.25 825.75 646.586 825.75 647C825.75 647.414 825.414 647.75 825 647.75H821.905C821.634 648.804 820.804 649.634 819.75 649.905V653C819.75 653.414 819.414 653.75 819 653.75C818.586 653.75 818.25 653.414 818.25 653V649.905C817.196 649.634 816.366 648.804 816.095 647.75H813C812.586 647.75 812.25 647.414 812.25 647C812.25 646.586 812.586 646.25 813 646.25H816.095C816.366 645.196 817.196 644.366 818.25 644.095V641C818.25 640.586 818.586 640.25 819 640.25ZM820.5 647C820.5 647.828 819.828 648.5 819 648.5C818.172 648.5 817.5 647.828 817.5 647C817.5 646.172 818.172 645.5 819 645.5C819.828 645.5 820.5 646.172 820.5 647Z" fill="#1C6EE8"/>
<circle cx="785.219" cy="675.219" r="68.2188" fill="#C6EC2C" stroke="#1C6EE8"/>
<circle cx="817.219" cy="583.219" r="68.2188" fill="#6A78F3" stroke="#1C6EE8"/>
<circle cx="873.219" cy="673.219" r="68.2188" fill="#EB1010" stroke="#1C6EE8"/>
<mask id="mask0_1_66546" style="mask-type:alpha" maskUnits="userSpaceOnUse" x="1008" y="591" width="111" height="111">
<circle cx="1063.5" cy="646.5" r="41" stroke="black" stroke-width="29"/>
</mask>
<g mask="url(#mask0_1_66546)">
<circle cx="1029.97" cy="675.406" r="68.2188" fill="#C6EC2C"/>
<circle cx="1062.34" cy="582.906" r="68.2188" fill="#6A78F3"/>
<circle cx="1117.84" cy="673.094" r="68.2188" fill="#EB1010"/>
</g>
<path fill-rule="evenodd" clip-rule="evenodd" d="M818.5 673C833.136 673 845 661.136 845 646.5C845 631.864 833.136 620 818.5 620C803.864 620 792 631.864 792 646.5C792 661.136 803.864 673 818.5 673ZM818.5 702C849.152 702 874 677.152 874 646.5C874 615.848 849.152 591 818.5 591C787.848 591 763 615.848 763 646.5C763 677.152 787.848 702 818.5 702Z" stroke="#1C6EE8"/>
<path fill-rule="evenodd" clip-rule="evenodd" d="M1063.5 673C1078.14 673 1090 661.136 1090 646.5C1090 631.864 1078.14 620 1063.5 620C1048.86 620 1037 631.864 1037 646.5C1037 661.136 1048.86 673 1063.5 673ZM1063.5 702C1094.15 702 1119 677.152 1119 646.5C1119 615.848 1094.15 591 1063.5 591C1032.85 591 1008 615.848 1008 646.5C1008 677.152 1032.85 702 1063.5 702Z" stroke="#1C6EE8"/>
<rect x="717" y="515" width="224" height="229" stroke="#1C6EE8"/>
<g filter="url(#filter28_d_1_66546)">
<rect x="713" y="511" width="8" height="8" fill="white"/>
<rect x="713.5" y="511.5" width="7" height="7" stroke="#1C6EE8"/>
</g>
<g filter="url(#filter29_d_1_66546)">
<rect x="713" y="740" width="8" height="8" fill="white"/>
<rect x="713.5" y="740.5" width="7" height="7" stroke="#1C6EE8"/>
</g>
<g filter="url(#filter30_d_1_66546)">
<rect x="937" y="511" width="8" height="8" fill="white"/>
<rect x="937.5" y="511.5" width="7" height="7" stroke="#1C6EE8"/>
</g>
<g filter="url(#filter31_d_1_66546)">
<rect x="937" y="740" width="8" height="8" fill="white"/>
<rect x="937.5" y="740.5" width="7" height="7" stroke="#1C6EE8"/>
</g>
<rect x="1008" y="591" width="111" height="111" stroke="#1C6EE8"/>
<g filter="url(#filter32_d_1_66546)">
<rect x="1004" y="587" width="8" height="8" fill="white"/>
<rect x="1004.5" y="587.5" width="7" height="7" stroke="#1C6EE8"/>
</g>
<g filter="url(#filter33_d_1_66546)">
<rect x="1004" y="698" width="8" height="8" fill="white"/>
<rect x="1004.5" y="698.5" width="7" height="7" stroke="#1C6EE8"/>
</g>
<g filter="url(#filter34_d_1_66546)">
<rect x="1115" y="587" width="8" height="8" fill="white"/>
<rect x="1115.5" y="587.5" width="7" height="7" stroke="#1C6EE8"/>
</g>
<g filter="url(#filter35_d_1_66546)">
<rect x="1115" y="698" width="8" height="8" fill="white"/>
<rect x="1115.5" y="698.5" width="7" height="7" stroke="#1C6EE8"/>
</g>
<rect x="1192" y="70" width="347" height="293" stroke="#1C6EE8"/>
<g filter="url(#filter36_d_1_66546)">
<rect x="1188" y="66" width="8" height="8" fill="white"/>
<rect x="1188.5" y="66.5" width="7" height="7" stroke="#1C6EE8"/>
</g>
<g filter="url(#filter37_d_1_66546)">
<rect x="1188" y="359" width="8" height="8" fill="white"/>
<rect x="1188.5" y="359.5" width="7" height="7" stroke="#1C6EE8"/>
</g>
<g filter="url(#filter38_d_1_66546)">
<rect x="1535" y="66" width="8" height="8" fill="white"/>
<rect x="1535.5" y="66.5" width="7" height="7" stroke="#1C6EE8"/>
</g>
<g filter="url(#filter39_d_1_66546)">
<rect x="1535" y="359" width="8" height="8" fill="white"/>
<rect x="1535.5" y="359.5" width="7" height="7" stroke="#1C6EE8"/>
</g>
<rect x="126" y="875" width="92" height="92" fill="#40B5E8" stroke="#1C6EE8"/>
<rect x="244.764" y="875" width="92" height="92" fill="#40B5E8" stroke="#1C6EE8"/>
<rect x="197.928" y="906.782" width="65.2364" height="28.4364" fill="#F3C651" stroke="#FC7D36" stroke-width="7"/>
<rect x="197.928" y="906.782" width="65.2364" height="28.4364" stroke="#1C6EE8"/>
<path d="M230.25 917.402V915C230.25 914.034 231.034 913.25 232 913.25C232.966 913.25 233.75 914.034 233.75 915V917.402C234.554 917.794 235.206 918.446 235.598 919.25H238C238.966 919.25 239.75 920.034 239.75 921C239.75 921.966 238.966 922.75 238 922.75H235.598C235.206 923.554 234.554 924.206 233.75 924.598V927C233.75 927.966 232.966 928.75 232 928.75C231.034 928.75 230.25 927.966 230.25 927V924.598C229.446 924.206 228.794 923.554 228.402 922.75H226C225.034 922.75 224.25 921.966 224.25 921C224.25 920.034 225.034 919.25 226 919.25H228.402C228.794 918.446 229.446 917.794 230.25 917.402Z" fill="white"/>
<path fill-rule="evenodd" clip-rule="evenodd" d="M232 914.25C232.414 914.25 232.75 914.586 232.75 915V918.095C233.804 918.366 234.634 919.196 234.905 920.25H238C238.414 920.25 238.75 920.586 238.75 921C238.75 921.414 238.414 921.75 238 921.75H234.905C234.634 922.804 233.804 923.634 232.75 923.905V927C232.75 927.414 232.414 927.75 232 927.75C231.586 927.75 231.25 927.414 231.25 927V923.905C230.196 923.634 229.366 922.804 229.095 921.75H226C225.586 921.75 225.25 921.414 225.25 921C225.25 920.586 225.586 920.25 226 920.25H229.095C229.366 919.196 230.196 918.366 231.25 918.095V915C231.25 914.586 231.586 914.25 232 914.25ZM233.5 921C233.5 921.828 232.828 922.5 232 922.5C231.172 922.5 230.5 921.828 230.5 921C230.5 920.172 231.172 919.5 232 919.5C232.828 919.5 233.5 920.172 233.5 921Z" fill="#1C6EE8"/>
<path d="M289.25 918.402V916C289.25 915.034 290.034 914.25 291 914.25C291.966 914.25 292.75 915.034 292.75 916V918.402C293.554 918.794 294.206 919.446 294.598 920.25H297C297.966 920.25 298.75 921.034 298.75 922C298.75 922.966 297.966 923.75 297 923.75H294.598C294.206 924.554 293.554 925.206 292.75 925.598V928C292.75 928.966 291.966 929.75 291 929.75C290.034 929.75 289.25 928.966 289.25 928V925.598C288.446 925.206 287.794 924.554 287.402 923.75H285C284.034 923.75 283.25 922.966 283.25 922C283.25 921.034 284.034 920.25 285 920.25H287.402C287.794 919.446 288.446 918.794 289.25 918.402Z" fill="white"/>
<path fill-rule="evenodd" clip-rule="evenodd" d="M291 915.25C291.414 915.25 291.75 915.586 291.75 916V919.095C292.804 919.366 293.634 920.196 293.905 921.25H297C297.414 921.25 297.75 921.586 297.75 922C297.75 922.414 297.414 922.75 297 922.75H293.905C293.634 923.804 292.804 924.634 291.75 924.905V928C291.75 928.414 291.414 928.75 291 928.75C290.586 928.75 290.25 928.414 290.25 928V924.905C289.196 924.634 288.366 923.804 288.095 922.75H285C284.586 922.75 284.25 922.414 284.25 922C284.25 921.586 284.586 921.25 285 921.25H288.095C288.366 920.196 289.196 919.366 290.25 919.095V916C290.25 915.586 290.586 915.25 291 915.25ZM292.5 922C292.5 922.828 291.828 923.5 291 923.5C290.172 923.5 289.5 922.828 289.5 922C289.5 921.172 290.172 920.5 291 920.5C291.828 920.5 292.5 921.172 292.5 922Z" fill="#1C6EE8"/>
<path d="M170.25 919.402V917C170.25 916.034 171.034 915.25 172 915.25C172.966 915.25 173.75 916.034 173.75 917V919.402C174.554 919.794 175.206 920.446 175.598 921.25H178C178.966 921.25 179.75 922.034 179.75 923C179.75 923.966 178.966 924.75 178 924.75H175.598C175.206 925.554 174.554 926.206 173.75 926.598V929C173.75 929.966 172.966 930.75 172 930.75C171.034 930.75 170.25 929.966 170.25 929V926.598C169.446 926.206 168.794 925.554 168.402 924.75H166C165.034 924.75 164.25 923.966 164.25 923C164.25 922.034 165.034 921.25 166 921.25H168.402C168.794 920.446 169.446 919.794 170.25 919.402Z" fill="white"/>
<path fill-rule="evenodd" clip-rule="evenodd" d="M172 916.25C172.414 916.25 172.75 916.586 172.75 917V920.095C173.804 920.366 174.634 921.196 174.905 922.25H178C178.414 922.25 178.75 922.586 178.75 923C178.75 923.414 178.414 923.75 178 923.75H174.905C174.634 924.804 173.804 925.634 172.75 925.905V929C172.75 929.414 172.414 929.75 172 929.75C171.586 929.75 171.25 929.414 171.25 929V925.905C170.196 925.634 169.366 924.804 169.095 923.75H166C165.586 923.75 165.25 923.414 165.25 923C165.25 922.586 165.586 922.25 166 922.25H169.095C169.366 921.196 170.196 920.366 171.25 920.095V917C171.25 916.586 171.586 916.25 172 916.25ZM173.5 923C173.5 923.828 172.828 924.5 172 924.5C171.172 924.5 170.5 923.828 170.5 923C170.5 922.172 171.172 921.5 172 921.5C172.828 921.5 173.5 922.172 173.5 923Z" fill="#1C6EE8"/>
<path fill-rule="evenodd" clip-rule="evenodd" d="M375 875H467V906.782H493.764V875H585.764V967H493.764V935.218H467V967H375V875Z" fill="#F3C651"/>
<path d="M467 875H470.5V871.5H467V875ZM375 875V871.5H371.5V875H375ZM467 906.782H463.5V910.282H467V906.782ZM493.764 906.782V910.282H497.264V906.782H493.764ZM493.764 875V871.5H490.264V875H493.764ZM585.764 875H589.264V871.5H585.764V875ZM585.764 967V970.5H589.264V967H585.764ZM493.764 967H490.264V970.5H493.764V967ZM493.764 935.218H497.264V931.718H493.764V935.218ZM467 935.218V931.718H463.5V935.218H467ZM467 967V970.5H470.5V967H467ZM375 967H371.5V970.5H375V967ZM467 871.5H375V878.5H467V871.5ZM470.5 906.782V875H463.5V906.782H470.5ZM467 910.282H493.764V903.282H467V910.282ZM490.264 875V906.782H497.264V875H490.264ZM585.764 871.5H493.764V878.5H585.764V871.5ZM589.264 967V875H582.264V967H589.264ZM493.764 970.5H585.764V963.5H493.764V970.5ZM490.264 935.218V967H497.264V935.218H490.264ZM493.764 931.718H467V938.718H493.764V931.718ZM470.5 967V935.218H463.5V967H470.5ZM375 970.5H467V963.5H375V970.5ZM371.5 875V967H378.5V875H371.5Z" fill="#FC7D36"/>
<path d="M467 875H467.5V874.5H467V875ZM375 875V874.5H374.5V875H375ZM467 906.782H466.5V907.282H467V906.782ZM493.764 906.782V907.282H494.264V906.782H493.764ZM493.764 875V874.5H493.264V875H493.764ZM585.764 875H586.264V874.5H585.764V875ZM585.764 967V967.5H586.264V967H585.764ZM493.764 967H493.264V967.5H493.764V967ZM493.764 935.218H494.264V934.718H493.764V935.218ZM467 935.218V934.718H466.5V935.218H467ZM467 967V967.5H467.5V967H467ZM375 967H374.5V967.5H375V967ZM467 874.5H375V875.5H467V874.5ZM467.5 906.782V875H466.5V906.782H467.5ZM467 907.282H493.764V906.282H467V907.282ZM493.264 875V906.782H494.264V875H493.264ZM585.764 874.5H493.764V875.5H585.764V874.5ZM586.264 967V875H585.264V967H586.264ZM493.764 967.5H585.764V966.5H493.764V967.5ZM493.264 935.218V967H494.264V935.218H493.264ZM493.764 934.718H467V935.718H493.764V934.718ZM467.5 967V935.218H466.5V967H467.5ZM375 967.5H467V966.5H375V967.5ZM374.5 875V967H375.5V875H374.5Z" fill="#1C6EE8"/>
<rect x="375" y="875" width="211" height="92" stroke="#1C6EE8"/>
<g filter="url(#filter40_d_1_66546)">
<rect x="371" y="871" width="8" height="8" fill="white"/>
<rect x="371.5" y="871.5" width="7" height="7" stroke="#1C6EE8"/>
</g>
<g filter="url(#filter41_d_1_66546)">
<rect x="371" y="963" width="8" height="8" fill="white"/>
<rect x="371.5" y="963.5" width="7" height="7" stroke="#1C6EE8"/>
</g>
<g filter="url(#filter42_d_1_66546)">
<rect x="582" y="871" width="8" height="8" fill="white"/>
<rect x="582.5" y="871.5" width="7" height="7" stroke="#1C6EE8"/>
</g>
<g filter="url(#filter43_d_1_66546)">
<rect x="582" y="963" width="8" height="8" fill="white"/>
<rect x="582.5" y="963.5" width="7" height="7" stroke="#1C6EE8"/>
</g>
<rect x="126" y="875" width="211" height="92" stroke="#1C6EE8"/>
<g filter="url(#filter44_d_1_66546)">
<rect x="122" y="871" width="8" height="8" fill="white"/>
<rect x="122.5" y="871.5" width="7" height="7" stroke="#1C6EE8"/>
</g>
<g filter="url(#filter45_d_1_66546)">
<rect x="122" y="963" width="8" height="8" fill="white"/>
<rect x="122.5" y="963.5" width="7" height="7" stroke="#1C6EE8"/>
</g>
<g filter="url(#filter46_d_1_66546)">
<rect x="333" y="871" width="8" height="8" fill="white"/>
<rect x="333.5" y="871.5" width="7" height="7" stroke="#1C6EE8"/>
</g>
<g filter="url(#filter47_d_1_66546)">
<rect x="333" y="963" width="8" height="8" fill="white"/>
<rect x="333.5" y="963.5" width="7" height="7" stroke="#1C6EE8"/>
</g>
<path d="M479.25 917.402V915C479.25 914.034 480.034 913.25 481 913.25C481.966 913.25 482.75 914.034 482.75 915V917.402C483.554 917.794 484.206 918.446 484.598 919.25H487C487.966 919.25 488.75 920.034 488.75 921C488.75 921.966 487.966 922.75 487 922.75H484.598C484.206 923.554 483.554 924.206 482.75 924.598V927C482.75 927.966 481.966 928.75 481 928.75C480.034 928.75 479.25 927.966 479.25 927V924.598C478.446 924.206 477.794 923.554 477.402 922.75H475C474.034 922.75 473.25 921.966 473.25 921C473.25 920.034 474.034 919.25 475 919.25H477.402C477.794 918.446 478.446 917.794 479.25 917.402Z" fill="white"/>
<path fill-rule="evenodd" clip-rule="evenodd" d="M481 914.25C481.414 914.25 481.75 914.586 481.75 915V918.095C482.804 918.366 483.634 919.196 483.905 920.25H487C487.414 920.25 487.75 920.586 487.75 921C487.75 921.414 487.414 921.75 487 921.75H483.905C483.634 922.804 482.804 923.634 481.75 923.905V927C481.75 927.414 481.414 927.75 481 927.75C480.586 927.75 480.25 927.414 480.25 927V923.905C479.196 923.634 478.366 922.804 478.095 921.75H475C474.586 921.75 474.25 921.414 474.25 921C474.25 920.586 474.586 920.25 475 920.25H478.095C478.366 919.196 479.196 918.366 480.25 918.095V915C480.25 914.586 480.586 914.25 481 914.25ZM482.5 921C482.5 921.828 481.828 922.5 481 922.5C480.172 922.5 479.5 921.828 479.5 921C479.5 920.172 480.172 919.5 481 919.5C481.828 919.5 482.5 920.172 482.5 921Z" fill="#1C6EE8"/>
<path d="M498.5 679L572 605.5M620 557.5L593.5 584" stroke="#7EC9FF" stroke-width="15"/>
<path d="M498.5 679L572 605.5M620 557.5L593.5 584" stroke="#1C6EE8"/>
<g filter="url(#filter48_d_1_66546)">
<rect x="616" y="554" width="8" height="8" fill="white"/>
<rect x="616.5" y="554.5" width="7" height="7" stroke="#1C6EE8"/>
</g>
<g filter="url(#filter49_d_1_66546)">
<rect x="495" y="675" width="8" height="8" fill="white"/>
<rect x="495.5" y="675.5" width="7" height="7" stroke="#1C6EE8"/>
</g>
<path d="M557.25 614.402V612C557.25 611.034 558.034 610.25 559 610.25C559.966 610.25 560.75 611.034 560.75 612V614.402C561.554 614.794 562.206 615.446 562.598 616.25H565C565.966 616.25 566.75 617.034 566.75 618C566.75 618.966 565.966 619.75 565 619.75H562.598C562.206 620.554 561.554 621.206 560.75 621.598V624C560.75 624.966 559.966 625.75 559 625.75C558.034 625.75 557.25 624.966 557.25 624V621.598C556.446 621.206 555.794 620.554 555.402 619.75H553C552.034 619.75 551.25 618.966 551.25 618C551.25 617.034 552.034 616.25 553 616.25H555.402C555.794 615.446 556.446 614.794 557.25 614.402Z" fill="white"/>
<path fill-rule="evenodd" clip-rule="evenodd" d="M559 611.25C559.414 611.25 559.75 611.586 559.75 612V615.095C560.804 615.366 561.634 616.196 561.905 617.25H565C565.414 617.25 565.75 617.586 565.75 618C565.75 618.414 565.414 618.75 565 618.75H561.905C561.634 619.804 560.804 620.634 559.75 620.905V624C559.75 624.414 559.414 624.75 559 624.75C558.586 624.75 558.25 624.414 558.25 624V620.905C557.196 620.634 556.366 619.804 556.095 618.75H553C552.586 618.75 552.25 618.414 552.25 618C552.25 617.586 552.586 617.25 553 617.25H556.095C556.366 616.196 557.196 615.366 558.25 615.095V612C558.25 611.586 558.586 611.25 559 611.25ZM560.5 618C560.5 618.828 559.828 619.5 559 619.5C558.172 619.5 557.5 618.828 557.5 618C557.5 617.172 558.172 616.5 559 616.5C559.828 616.5 560.5 617.172 560.5 618Z" fill="#1C6EE8"/>
<path d="M338 560H377.5V587H338M338 623H377.5V661H338M439 560H400.5V587H439M439 623H400.5V661H439" stroke="#DE7EFF" stroke-width="15"/>
<path d="M338 560H377.5V587H338M338 623H377.5V661H338M439 560H400.5V587H439M439 623H400.5V661H439" stroke="#1C6EE8"/>
<rect x="338" y="560" width="101" height="101" stroke="#1C6EE8"/>
<g filter="url(#filter50_d_1_66546)">
<rect x="334" y="556" width="8" height="8" fill="white"/>
<rect x="334.5" y="556.5" width="7" height="7" stroke="#1C6EE8"/>
</g>
<g filter="url(#filter51_d_1_66546)">
<rect x="334" y="657" width="8" height="8" fill="white"/>
<rect x="334.5" y="657.5" width="7" height="7" stroke="#1C6EE8"/>
</g>
<g filter="url(#filter52_d_1_66546)">
<rect x="435" y="556" width="8" height="8" fill="white"/>
<rect x="435.5" y="556.5" width="7" height="7" stroke="#1C6EE8"/>
</g>
<g filter="url(#filter53_d_1_66546)">
<rect x="435" y="657" width="8" height="8" fill="white"/>
<rect x="435.5" y="657.5" width="7" height="7" stroke="#1C6EE8"/>
</g>
<rect x="679" y="1083" width="96.7273" height="96.7273" fill="#1C66BC" stroke="#FE8989" stroke-width="8"/>
<ellipse cx="845.091" cy="1134.23" rx="55.3636" ry="33.4091" fill="#FFD978"/>
<circle cx="771.273" cy="1167.64" r="55.3636" fill="#E62B2B"/>
<rect x="679" y="1083" width="221" height="140" stroke="#1C6EE8"/>
<g filter="url(#filter54_d_1_66546)">
<rect x="675" y="1079" width="8" height="8" fill="white"/>
<rect x="675.5" y="1079.5" width="7" height="7" stroke="#1C6EE8"/>
</g>
<g filter="url(#filter55_d_1_66546)">
<rect x="675" y="1219" width="8" height="8" fill="white"/>
<rect x="675.5" y="1219.5" width="7" height="7" stroke="#1C6EE8"/>
</g>
<g filter="url(#filter56_d_1_66546)">
<rect x="896" y="1079" width="8" height="8" fill="white"/>
<rect x="896.5" y="1079.5" width="7" height="7" stroke="#1C6EE8"/>
</g>
<g filter="url(#filter57_d_1_66546)">
<rect x="896" y="1219" width="8" height="8" fill="white"/>
<rect x="896.5" y="1219.5" width="7" height="7" stroke="#1C6EE8"/>
</g>
<path d="M788.25 1149.4V1147C788.25 1146.03 789.034 1145.25 790 1145.25C790.966 1145.25 791.75 1146.03 791.75 1147V1149.4C792.554 1149.79 793.206 1150.45 793.598 1151.25H796C796.966 1151.25 797.75 1152.03 797.75 1153C797.75 1153.97 796.966 1154.75 796 1154.75H793.598C793.206 1155.55 792.554 1156.21 791.75 1156.6V1159C791.75 1159.97 790.966 1160.75 790 1160.75C789.034 1160.75 788.25 1159.97 788.25 1159V1156.6C787.446 1156.21 786.794 1155.55 786.402 1154.75H784C783.034 1154.75 782.25 1153.97 782.25 1153C782.25 1152.03 783.034 1151.25 784 1151.25H786.402C786.794 1150.45 787.446 1149.79 788.25 1149.4Z" fill="white"/>
<path fill-rule="evenodd" clip-rule="evenodd" d="M790 1146.25C790.414 1146.25 790.75 1146.59 790.75 1147V1150.09C791.804 1150.37 792.634 1151.2 792.905 1152.25H796C796.414 1152.25 796.75 1152.59 796.75 1153C796.75 1153.41 796.414 1153.75 796 1153.75H792.905C792.634 1154.8 791.804 1155.63 790.75 1155.91V1159C790.75 1159.41 790.414 1159.75 790 1159.75C789.586 1159.75 789.25 1159.41 789.25 1159V1155.91C788.196 1155.63 787.366 1154.8 787.095 1153.75H784C783.586 1153.75 783.25 1153.41 783.25 1153C783.25 1152.59 783.586 1152.25 784 1152.25H787.095C787.366 1151.2 788.196 1150.37 789.25 1150.09V1147C789.25 1146.59 789.586 1146.25 790 1146.25ZM791.5 1153C791.5 1153.83 790.828 1154.5 790 1154.5C789.172 1154.5 788.5 1153.83 788.5 1153C788.5 1152.17 789.172 1151.5 790 1151.5C790.828 1151.5 791.5 1152.17 791.5 1153Z" fill="#1C6EE8"/>
<circle cx="818.5" cy="646.5" r="41" stroke="black" stroke-width="29"/>
<circle cx="818.5" cy="646.5" r="55.5" stroke="#1C6EE8"/>
<path d="M1062.25 643.402V641C1062.25 640.034 1063.03 639.25 1064 639.25C1064.97 639.25 1065.75 640.034 1065.75 641V643.402C1066.55 643.794 1067.21 644.446 1067.6 645.25H1070C1070.97 645.25 1071.75 646.034 1071.75 647C1071.75 647.966 1070.97 648.75 1070 648.75H1067.6C1067.21 649.554 1066.55 650.206 1065.75 650.598V653C1065.75 653.966 1064.97 654.75 1064 654.75C1063.03 654.75 1062.25 653.966 1062.25 653V650.598C1061.45 650.206 1060.79 649.554 1060.4 648.75H1058C1057.03 648.75 1056.25 647.966 1056.25 647C1056.25 646.034 1057.03 645.25 1058 645.25H1060.4C1060.79 644.446 1061.45 643.794 1062.25 643.402Z" fill="white"/>
<path fill-rule="evenodd" clip-rule="evenodd" d="M1064 640.25C1064.41 640.25 1064.75 640.586 1064.75 641V644.095C1065.8 644.366 1066.63 645.196 1066.91 646.25H1070C1070.41 646.25 1070.75 646.586 1070.75 647C1070.75 647.414 1070.41 647.75 1070 647.75H1066.91C1066.63 648.804 1065.8 649.634 1064.75 649.905V653C1064.75 653.414 1064.41 653.75 1064 653.75C1063.59 653.75 1063.25 653.414 1063.25 653V649.905C1062.2 649.634 1061.37 648.804 1061.09 647.75H1058C1057.59 647.75 1057.25 647.414 1057.25 647C1057.25 646.586 1057.59 646.25 1058 646.25H1061.09C1061.37 645.196 1062.2 644.366 1063.25 644.095V641C1063.25 640.586 1063.59 640.25 1064 640.25ZM1065.5 647C1065.5 647.828 1064.83 648.5 1064 648.5C1063.17 648.5 1062.5 647.828 1062.5 647C1062.5 646.172 1063.17 645.5 1064 645.5C1064.83 645.5 1065.5 646.172 1065.5 647Z" fill="#1C6EE8"/>
<path d="M1364.25 213.402V211C1364.25 210.034 1365.03 209.25 1366 209.25C1366.97 209.25 1367.75 210.034 1367.75 211V213.402C1368.55 213.794 1369.21 214.446 1369.6 215.25H1372C1372.97 215.25 1373.75 216.034 1373.75 217C1373.75 217.966 1372.97 218.75 1372 218.75H1369.6C1369.21 219.554 1368.55 220.206 1367.75 220.598V223C1367.75 223.966 1366.97 224.75 1366 224.75C1365.03 224.75 1364.25 223.966 1364.25 223V220.598C1363.45 220.206 1362.79 219.554 1362.4 218.75H1360C1359.03 218.75 1358.25 217.966 1358.25 217C1358.25 216.034 1359.03 215.25 1360 215.25H1362.4C1362.79 214.446 1363.45 213.794 1364.25 213.402Z" fill="white"/>
<path fill-rule="evenodd" clip-rule="evenodd" d="M1366 210.25C1366.41 210.25 1366.75 210.586 1366.75 211V214.095C1367.8 214.366 1368.63 215.196 1368.91 216.25H1372C1372.41 216.25 1372.75 216.586 1372.75 217C1372.75 217.414 1372.41 217.75 1372 217.75H1368.91C1368.63 218.804 1367.8 219.634 1366.75 219.905V223C1366.75 223.414 1366.41 223.75 1366 223.75C1365.59 223.75 1365.25 223.414 1365.25 223V219.905C1364.2 219.634 1363.37 218.804 1363.09 217.75H1360C1359.59 217.75 1359.25 217.414 1359.25 217C1359.25 216.586 1359.59 216.25 1360 216.25H1363.09C1363.37 215.196 1364.2 214.366 1365.25 214.095V211C1365.25 210.586 1365.59 210.25 1366 210.25ZM1367.5 217C1367.5 217.828 1366.83 218.5 1366 218.5C1365.17 218.5 1364.5 217.828 1364.5 217C1364.5 216.172 1365.17 215.5 1366 215.5C1366.83 215.5 1367.5 216.172 1367.5 217Z" fill="#1C6EE8"/>
<path d="M817.25 643.402V641C817.25 640.034 818.034 639.25 819 639.25C819.966 639.25 820.75 640.034 820.75 641V643.402C821.554 643.794 822.206 644.446 822.598 645.25H825C825.966 645.25 826.75 646.034 826.75 647C826.75 647.966 825.966 648.75 825 648.75H822.598C822.206 649.554 821.554 650.206 820.75 650.598V653C820.75 653.966 819.966 654.75 819 654.75C818.034 654.75 817.25 653.966 817.25 653V650.598C816.446 650.206 815.794 649.554 815.402 648.75H813C812.034 648.75 811.25 647.966 811.25 647C811.25 646.034 812.034 645.25 813 645.25H815.402C815.794 644.446 816.446 643.794 817.25 643.402Z" fill="white"/>
<path fill-rule="evenodd" clip-rule="evenodd" d="M819 640.25C819.414 640.25 819.75 640.586 819.75 641V644.095C820.804 644.366 821.634 645.196 821.905 646.25H825C825.414 646.25 825.75 646.586 825.75 647C825.75 647.414 825.414 647.75 825 647.75H821.905C821.634 648.804 820.804 649.634 819.75 649.905V653C819.75 653.414 819.414 653.75 819 653.75C818.586 653.75 818.25 653.414 818.25 653V649.905C817.196 649.634 816.366 648.804 816.095 647.75H813C812.586 647.75 812.25 647.414 812.25 647C812.25 646.586 812.586 646.25 813 646.25H816.095C816.366 645.196 817.196 644.366 818.25 644.095V641C818.25 640.586 818.586 640.25 819 640.25ZM820.5 647C820.5 647.828 819.828 648.5 819 648.5C818.172 648.5 817.5 647.828 817.5 647C817.5 646.172 818.172 645.5 819 645.5C819.828 645.5 820.5 646.172 820.5 647Z" fill="#1C6EE8"/>
<path d="M871.25 669.402V667C871.25 666.034 872.034 665.25 873 665.25C873.966 665.25 874.75 666.034 874.75 667V669.402C875.554 669.794 876.206 670.446 876.598 671.25H879C879.966 671.25 880.75 672.034 880.75 673C880.75 673.966 879.966 674.75 879 674.75H876.598C876.206 675.554 875.554 676.206 874.75 676.598V679C874.75 679.966 873.966 680.75 873 680.75C872.034 680.75 871.25 679.966 871.25 679V676.598C870.446 676.206 869.794 675.554 869.402 674.75H867C866.034 674.75 865.25 673.966 865.25 673C865.25 672.034 866.034 671.25 867 671.25H869.402C869.794 670.446 870.446 669.794 871.25 669.402Z" fill="white"/>
<path fill-rule="evenodd" clip-rule="evenodd" d="M873 666.25C873.414 666.25 873.75 666.586 873.75 667V670.095C874.804 670.366 875.634 671.196 875.905 672.25H879C879.414 672.25 879.75 672.586 879.75 673C879.75 673.414 879.414 673.75 879 673.75H875.905C875.634 674.804 874.804 675.634 873.75 675.905V679C873.75 679.414 873.414 679.75 873 679.75C872.586 679.75 872.25 679.414 872.25 679V675.905C871.196 675.634 870.366 674.804 870.095 673.75H867C866.586 673.75 866.25 673.414 866.25 673C866.25 672.586 866.586 672.25 867 672.25H870.095C870.366 671.196 871.196 670.366 872.25 670.095V667C872.25 666.586 872.586 666.25 873 666.25ZM874.5 673C874.5 673.828 873.828 674.5 873 674.5C872.172 674.5 871.5 673.828 871.5 673C871.5 672.172 872.172 671.5 873 671.5C873.828 671.5 874.5 672.172 874.5 673Z" fill="#1C6EE8"/>
<path d="M815.25 579.402V577C815.25 576.034 816.034 575.25 817 575.25C817.966 575.25 818.75 576.034 818.75 577V579.402C819.554 579.794 820.206 580.446 820.598 581.25H823C823.966 581.25 824.75 582.034 824.75 583C824.75 583.966 823.966 584.75 823 584.75H820.598C820.206 585.554 819.554 586.206 818.75 586.598V589C818.75 589.966 817.966 590.75 817 590.75C816.034 590.75 815.25 589.966 815.25 589V586.598C814.446 586.206 813.794 585.554 813.402 584.75H811C810.034 584.75 809.25 583.966 809.25 583C809.25 582.034 810.034 581.25 811 581.25H813.402C813.794 580.446 814.446 579.794 815.25 579.402Z" fill="white"/>
<path fill-rule="evenodd" clip-rule="evenodd" d="M817 576.25C817.414 576.25 817.75 576.586 817.75 577V580.095C818.804 580.366 819.634 581.196 819.905 582.25H823C823.414 582.25 823.75 582.586 823.75 583C823.75 583.414 823.414 583.75 823 583.75H819.905C819.634 584.804 818.804 585.634 817.75 585.905V589C817.75 589.414 817.414 589.75 817 589.75C816.586 589.75 816.25 589.414 816.25 589V585.905C815.196 585.634 814.366 584.804 814.095 583.75H811C810.586 583.75 810.25 583.414 810.25 583C810.25 582.586 810.586 582.25 811 582.25H814.095C814.366 581.196 815.196 580.366 816.25 580.095V577C816.25 576.586 816.586 576.25 817 576.25ZM818.5 583C818.5 583.828 817.828 584.5 817 584.5C816.172 584.5 815.5 583.828 815.5 583C815.5 582.172 816.172 581.5 817 581.5C817.828 581.5 818.5 582.172 818.5 583Z" fill="#1C6EE8"/>
<path d="M783.25 671.402V669C783.25 668.034 784.034 667.25 785 667.25C785.966 667.25 786.75 668.034 786.75 669V671.402C787.554 671.794 788.206 672.446 788.598 673.25H791C791.966 673.25 792.75 674.034 792.75 675C792.75 675.966 791.966 676.75 791 676.75H788.598C788.206 677.554 787.554 678.206 786.75 678.598V681C786.75 681.966 785.966 682.75 785 682.75C784.034 682.75 783.25 681.966 783.25 681V678.598C782.446 678.206 781.794 677.554 781.402 676.75H779C778.034 676.75 777.25 675.966 777.25 675C777.25 674.034 778.034 673.25 779 673.25H781.402C781.794 672.446 782.446 671.794 783.25 671.402Z" fill="white"/>
<path fill-rule="evenodd" clip-rule="evenodd" d="M785 668.25C785.414 668.25 785.75 668.586 785.75 669V672.095C786.804 672.366 787.634 673.196 787.905 674.25H791C791.414 674.25 791.75 674.586 791.75 675C791.75 675.414 791.414 675.75 791 675.75H787.905C787.634 676.804 786.804 677.634 785.75 677.905V681C785.75 681.414 785.414 681.75 785 681.75C784.586 681.75 784.25 681.414 784.25 681V677.905C783.196 677.634 782.366 676.804 782.095 675.75H779C778.586 675.75 778.25 675.414 778.25 675C778.25 674.586 778.586 674.25 779 674.25H782.095C782.366 673.196 783.196 672.366 784.25 672.095V669C784.25 668.586 784.586 668.25 785 668.25ZM786.5 675C786.5 675.828 785.828 676.5 785 676.5C784.172 676.5 783.5 675.828 783.5 675C783.5 674.172 784.172 673.5 785 673.5C785.828 673.5 786.5 674.172 786.5 675Z" fill="#1C6EE8"/>
<defs>
<filter id="filter0_d_1_66546" x="77" y="69" width="16" height="16" filterUnits="userSpaceOnUse" color-interpolation-filters="sRGB">
<feFlood flood-opacity="0" result="BackgroundImageFix"/>
<feColorMatrix in="SourceAlpha" type="matrix" values="0 0 0 0 0 0 0 0 0 0 0 0 0 0 0 0 0 0 127 0" result="hardAlpha"/>
<feOffset dy="2"/>
<feGaussianBlur stdDeviation="2"/>
<feColorMatrix type="matrix" values="0 0 0 0 0 0 0 0 0 0 0 0 0 0 0 0 0 0 0.45 0"/>
<feBlend mode="normal" in2="BackgroundImageFix" result="effect1_dropShadow_1_66546"/>
<feBlend mode="normal" in="SourceGraphic" in2="effect1_dropShadow_1_66546" result="shape"/>
</filter>
<filter id="filter1_d_1_66546" x="77" y="269" width="16" height="16" filterUnits="userSpaceOnUse" color-interpolation-filters="sRGB">
<feFlood flood-opacity="0" result="BackgroundImageFix"/>
<feColorMatrix in="SourceAlpha" type="matrix" values="0 0 0 0 0 0 0 0 0 0 0 0 0 0 0 0 0 0 127 0" result="hardAlpha"/>
<feOffset dy="2"/>
<feGaussianBlur stdDeviation="2"/>
<feColorMatrix type="matrix" values="0 0 0 0 0 0 0 0 0 0 0 0 0 0 0 0 0 0 0.45 0"/>
<feBlend mode="normal" in2="BackgroundImageFix" result="effect1_dropShadow_1_66546"/>
<feBlend mode="normal" in="SourceGraphic" in2="effect1_dropShadow_1_66546" result="shape"/>
</filter>
<filter id="filter2_d_1_66546" x="277" y="69" width="16" height="16" filterUnits="userSpaceOnUse" color-interpolation-filters="sRGB">
<feFlood flood-opacity="0" result="BackgroundImageFix"/>
<feColorMatrix in="SourceAlpha" type="matrix" values="0 0 0 0 0 0 0 0 0 0 0 0 0 0 0 0 0 0 127 0" result="hardAlpha"/>
<feOffset dy="2"/>
<feGaussianBlur stdDeviation="2"/>
<feColorMatrix type="matrix" values="0 0 0 0 0 0 0 0 0 0 0 0 0 0 0 0 0 0 0.45 0"/>
<feBlend mode="normal" in2="BackgroundImageFix" result="effect1_dropShadow_1_66546"/>
<feBlend mode="normal" in="SourceGraphic" in2="effect1_dropShadow_1_66546" result="shape"/>
</filter>
<filter id="filter3_d_1_66546" x="277" y="269" width="16" height="16" filterUnits="userSpaceOnUse" color-interpolation-filters="sRGB">
<feFlood flood-opacity="0" result="BackgroundImageFix"/>
<feColorMatrix in="SourceAlpha" type="matrix" values="0 0 0 0 0 0 0 0 0 0 0 0 0 0 0 0 0 0 127 0" result="hardAlpha"/>
<feOffset dy="2"/>
<feGaussianBlur stdDeviation="2"/>
<feColorMatrix type="matrix" values="0 0 0 0 0 0 0 0 0 0 0 0 0 0 0 0 0 0 0.45 0"/>
<feBlend mode="normal" in2="BackgroundImageFix" result="effect1_dropShadow_1_66546"/>
<feBlend mode="normal" in="SourceGraphic" in2="effect1_dropShadow_1_66546" result="shape"/>
</filter>
<filter id="filter4_d_1_66546" x="114" y="525" width="16" height="16" filterUnits="userSpaceOnUse" color-interpolation-filters="sRGB">
<feFlood flood-opacity="0" result="BackgroundImageFix"/>
<feColorMatrix in="SourceAlpha" type="matrix" values="0 0 0 0 0 0 0 0 0 0 0 0 0 0 0 0 0 0 127 0" result="hardAlpha"/>
<feOffset dy="2"/>
<feGaussianBlur stdDeviation="2"/>
<feColorMatrix type="matrix" values="0 0 0 0 0 0 0 0 0 0 0 0 0 0 0 0 0 0 0.45 0"/>
<feBlend mode="normal" in2="BackgroundImageFix" result="effect1_dropShadow_1_66546"/>
<feBlend mode="normal" in="SourceGraphic" in2="effect1_dropShadow_1_66546" result="shape"/>
</filter>
<filter id="filter5_d_1_66546" x="114" y="707" width="16" height="16" filterUnits="userSpaceOnUse" color-interpolation-filters="sRGB">
<feFlood flood-opacity="0" result="BackgroundImageFix"/>
<feColorMatrix in="SourceAlpha" type="matrix" values="0 0 0 0 0 0 0 0 0 0 0 0 0 0 0 0 0 0 127 0" result="hardAlpha"/>
<feOffset dy="2"/>
<feGaussianBlur stdDeviation="2"/>
<feColorMatrix type="matrix" values="0 0 0 0 0 0 0 0 0 0 0 0 0 0 0 0 0 0 0.45 0"/>
<feBlend mode="normal" in2="BackgroundImageFix" result="effect1_dropShadow_1_66546"/>
<feBlend mode="normal" in="SourceGraphic" in2="effect1_dropShadow_1_66546" result="shape"/>
</filter>
<filter id="filter6_d_1_66546" x="240" y="525" width="16" height="16" filterUnits="userSpaceOnUse" color-interpolation-filters="sRGB">
<feFlood flood-opacity="0" result="BackgroundImageFix"/>
<feColorMatrix in="SourceAlpha" type="matrix" values="0 0 0 0 0 0 0 0 0 0 0 0 0 0 0 0 0 0 127 0" result="hardAlpha"/>
<feOffset dy="2"/>
<feGaussianBlur stdDeviation="2"/>
<feColorMatrix type="matrix" values="0 0 0 0 0 0 0 0 0 0 0 0 0 0 0 0 0 0 0.45 0"/>
<feBlend mode="normal" in2="BackgroundImageFix" result="effect1_dropShadow_1_66546"/>
<feBlend mode="normal" in="SourceGraphic" in2="effect1_dropShadow_1_66546" result="shape"/>
</filter>
<filter id="filter7_d_1_66546" x="240" y="707" width="16" height="16" filterUnits="userSpaceOnUse" color-interpolation-filters="sRGB">
<feFlood flood-opacity="0" result="BackgroundImageFix"/>
<feColorMatrix in="SourceAlpha" type="matrix" values="0 0 0 0 0 0 0 0 0 0 0 0 0 0 0 0 0 0 127 0" result="hardAlpha"/>
<feOffset dy="2"/>
<feGaussianBlur stdDeviation="2"/>
<feColorMatrix type="matrix" values="0 0 0 0 0 0 0 0 0 0 0 0 0 0 0 0 0 0 0.45 0"/>
<feBlend mode="normal" in2="BackgroundImageFix" result="effect1_dropShadow_1_66546"/>
<feBlend mode="normal" in="SourceGraphic" in2="effect1_dropShadow_1_66546" result="shape"/>
</filter>
<filter id="filter8_d_1_66546" x="341" y="93" width="16" height="16" filterUnits="userSpaceOnUse" color-interpolation-filters="sRGB">
<feFlood flood-opacity="0" result="BackgroundImageFix"/>
<feColorMatrix in="SourceAlpha" type="matrix" values="0 0 0 0 0 0 0 0 0 0 0 0 0 0 0 0 0 0 127 0" result="hardAlpha"/>
<feOffset dy="2"/>
<feGaussianBlur stdDeviation="2"/>
<feColorMatrix type="matrix" values="0 0 0 0 0 0 0 0 0 0 0 0 0 0 0 0 0 0 0.45 0"/>
<feBlend mode="normal" in2="BackgroundImageFix" result="effect1_dropShadow_1_66546"/>
<feBlend mode="normal" in="SourceGraphic" in2="effect1_dropShadow_1_66546" result="shape"/>
</filter>
<filter id="filter9_d_1_66546" x="341" y="228" width="16" height="16" filterUnits="userSpaceOnUse" color-interpolation-filters="sRGB">
<feFlood flood-opacity="0" result="BackgroundImageFix"/>
<feColorMatrix in="SourceAlpha" type="matrix" values="0 0 0 0 0 0 0 0 0 0 0 0 0 0 0 0 0 0 127 0" result="hardAlpha"/>
<feOffset dy="2"/>
<feGaussianBlur stdDeviation="2"/>
<feColorMatrix type="matrix" values="0 0 0 0 0 0 0 0 0 0 0 0 0 0 0 0 0 0 0.45 0"/>
<feBlend mode="normal" in2="BackgroundImageFix" result="effect1_dropShadow_1_66546"/>
<feBlend mode="normal" in="SourceGraphic" in2="effect1_dropShadow_1_66546" result="shape"/>
</filter>
<filter id="filter10_d_1_66546" x="476" y="93" width="16" height="16" filterUnits="userSpaceOnUse" color-interpolation-filters="sRGB">
<feFlood flood-opacity="0" result="BackgroundImageFix"/>
<feColorMatrix in="SourceAlpha" type="matrix" values="0 0 0 0 0 0 0 0 0 0 0 0 0 0 0 0 0 0 127 0" result="hardAlpha"/>
<feOffset dy="2"/>
<feGaussianBlur stdDeviation="2"/>
<feColorMatrix type="matrix" values="0 0 0 0 0 0 0 0 0 0 0 0 0 0 0 0 0 0 0.45 0"/>
<feBlend mode="normal" in2="BackgroundImageFix" result="effect1_dropShadow_1_66546"/>
<feBlend mode="normal" in="SourceGraphic" in2="effect1_dropShadow_1_66546" result="shape"/>
</filter>
<filter id="filter11_d_1_66546" x="476" y="228" width="16" height="16" filterUnits="userSpaceOnUse" color-interpolation-filters="sRGB">
<feFlood flood-opacity="0" result="BackgroundImageFix"/>
<feColorMatrix in="SourceAlpha" type="matrix" values="0 0 0 0 0 0 0 0 0 0 0 0 0 0 0 0 0 0 127 0" result="hardAlpha"/>
<feOffset dy="2"/>
<feGaussianBlur stdDeviation="2"/>
<feColorMatrix type="matrix" values="0 0 0 0 0 0 0 0 0 0 0 0 0 0 0 0 0 0 0.45 0"/>
<feBlend mode="normal" in2="BackgroundImageFix" result="effect1_dropShadow_1_66546"/>
<feBlend mode="normal" in="SourceGraphic" in2="effect1_dropShadow_1_66546" result="shape"/>
</filter>
<filter id="filter12_d_1_66546" x="540" y="111" width="16" height="16" filterUnits="userSpaceOnUse" color-interpolation-filters="sRGB">
<feFlood flood-opacity="0" result="BackgroundImageFix"/>
<feColorMatrix in="SourceAlpha" type="matrix" values="0 0 0 0 0 0 0 0 0 0 0 0 0 0 0 0 0 0 127 0" result="hardAlpha"/>
<feOffset dy="2"/>
<feGaussianBlur stdDeviation="2"/>
<feColorMatrix type="matrix" values="0 0 0 0 0 0 0 0 0 0 0 0 0 0 0 0 0 0 0.45 0"/>
<feBlend mode="normal" in2="BackgroundImageFix" result="effect1_dropShadow_1_66546"/>
<feBlend mode="normal" in="SourceGraphic" in2="effect1_dropShadow_1_66546" result="shape"/>
</filter>
<filter id="filter13_d_1_66546" x="540" y="254" width="16" height="16" filterUnits="userSpaceOnUse" color-interpolation-filters="sRGB">
<feFlood flood-opacity="0" result="BackgroundImageFix"/>
<feColorMatrix in="SourceAlpha" type="matrix" values="0 0 0 0 0 0 0 0 0 0 0 0 0 0 0 0 0 0 127 0" result="hardAlpha"/>
<feOffset dy="2"/>
<feGaussianBlur stdDeviation="2"/>
<feColorMatrix type="matrix" values="0 0 0 0 0 0 0 0 0 0 0 0 0 0 0 0 0 0 0.45 0"/>
<feBlend mode="normal" in2="BackgroundImageFix" result="effect1_dropShadow_1_66546"/>
<feBlend mode="normal" in="SourceGraphic" in2="effect1_dropShadow_1_66546" result="shape"/>
</filter>
<filter id="filter14_d_1_66546" x="747" y="111" width="16" height="16" filterUnits="userSpaceOnUse" color-interpolation-filters="sRGB">
<feFlood flood-opacity="0" result="BackgroundImageFix"/>
<feColorMatrix in="SourceAlpha" type="matrix" values="0 0 0 0 0 0 0 0 0 0 0 0 0 0 0 0 0 0 127 0" result="hardAlpha"/>
<feOffset dy="2"/>
<feGaussianBlur stdDeviation="2"/>
<feColorMatrix type="matrix" values="0 0 0 0 0 0 0 0 0 0 0 0 0 0 0 0 0 0 0.45 0"/>
<feBlend mode="normal" in2="BackgroundImageFix" result="effect1_dropShadow_1_66546"/>
<feBlend mode="normal" in="SourceGraphic" in2="effect1_dropShadow_1_66546" result="shape"/>
</filter>
<filter id="filter15_d_1_66546" x="747" y="254" width="16" height="16" filterUnits="userSpaceOnUse" color-interpolation-filters="sRGB">
<feFlood flood-opacity="0" result="BackgroundImageFix"/>
<feColorMatrix in="SourceAlpha" type="matrix" values="0 0 0 0 0 0 0 0 0 0 0 0 0 0 0 0 0 0 127 0" result="hardAlpha"/>
<feOffset dy="2"/>
<feGaussianBlur stdDeviation="2"/>
<feColorMatrix type="matrix" values="0 0 0 0 0 0 0 0 0 0 0 0 0 0 0 0 0 0 0.45 0"/>
<feBlend mode="normal" in2="BackgroundImageFix" result="effect1_dropShadow_1_66546"/>
<feBlend mode="normal" in="SourceGraphic" in2="effect1_dropShadow_1_66546" result="shape"/>
</filter>
<filter id="filter16_d_1_66546" x="807" y="111" width="16" height="16" filterUnits="userSpaceOnUse" color-interpolation-filters="sRGB">
<feFlood flood-opacity="0" result="BackgroundImageFix"/>
<feColorMatrix in="SourceAlpha" type="matrix" values="0 0 0 0 0 0 0 0 0 0 0 0 0 0 0 0 0 0 127 0" result="hardAlpha"/>
<feOffset dy="2"/>
<feGaussianBlur stdDeviation="2"/>
<feColorMatrix type="matrix" values="0 0 0 0 0 0 0 0 0 0 0 0 0 0 0 0 0 0 0.45 0"/>
<feBlend mode="normal" in2="BackgroundImageFix" result="effect1_dropShadow_1_66546"/>
<feBlend mode="normal" in="SourceGraphic" in2="effect1_dropShadow_1_66546" result="shape"/>
</filter>
<filter id="filter17_d_1_66546" x="807" y="254" width="16" height="16" filterUnits="userSpaceOnUse" color-interpolation-filters="sRGB">
<feFlood flood-opacity="0" result="BackgroundImageFix"/>
<feColorMatrix in="SourceAlpha" type="matrix" values="0 0 0 0 0 0 0 0 0 0 0 0 0 0 0 0 0 0 127 0" result="hardAlpha"/>
<feOffset dy="2"/>
<feGaussianBlur stdDeviation="2"/>
<feColorMatrix type="matrix" values="0 0 0 0 0 0 0 0 0 0 0 0 0 0 0 0 0 0 0.45 0"/>
<feBlend mode="normal" in2="BackgroundImageFix" result="effect1_dropShadow_1_66546"/>
<feBlend mode="normal" in="SourceGraphic" in2="effect1_dropShadow_1_66546" result="shape"/>
</filter>
<filter id="filter18_d_1_66546" x="1014" y="111" width="16" height="16" filterUnits="userSpaceOnUse" color-interpolation-filters="sRGB">
<feFlood flood-opacity="0" result="BackgroundImageFix"/>
<feColorMatrix in="SourceAlpha" type="matrix" values="0 0 0 0 0 0 0 0 0 0 0 0 0 0 0 0 0 0 127 0" result="hardAlpha"/>
<feOffset dy="2"/>
<feGaussianBlur stdDeviation="2"/>
<feColorMatrix type="matrix" values="0 0 0 0 0 0 0 0 0 0 0 0 0 0 0 0 0 0 0.45 0"/>
<feBlend mode="normal" in2="BackgroundImageFix" result="effect1_dropShadow_1_66546"/>
<feBlend mode="normal" in="SourceGraphic" in2="effect1_dropShadow_1_66546" result="shape"/>
</filter>
<filter id="filter19_d_1_66546" x="1014" y="254" width="16" height="16" filterUnits="userSpaceOnUse" color-interpolation-filters="sRGB">
<feFlood flood-opacity="0" result="BackgroundImageFix"/>
<feColorMatrix in="SourceAlpha" type="matrix" values="0 0 0 0 0 0 0 0 0 0 0 0 0 0 0 0 0 0 127 0" result="hardAlpha"/>
<feOffset dy="2"/>
<feGaussianBlur stdDeviation="2"/>
<feColorMatrix type="matrix" values="0 0 0 0 0 0 0 0 0 0 0 0 0 0 0 0 0 0 0.45 0"/>
<feBlend mode="normal" in2="BackgroundImageFix" result="effect1_dropShadow_1_66546"/>
<feBlend mode="normal" in="SourceGraphic" in2="effect1_dropShadow_1_66546" result="shape"/>
</filter>
<filter id="filter20_d_1_66546" x="540" y="305" width="16" height="16" filterUnits="userSpaceOnUse" color-interpolation-filters="sRGB">
<feFlood flood-opacity="0" result="BackgroundImageFix"/>
<feColorMatrix in="SourceAlpha" type="matrix" values="0 0 0 0 0 0 0 0 0 0 0 0 0 0 0 0 0 0 127 0" result="hardAlpha"/>
<feOffset dy="2"/>
<feGaussianBlur stdDeviation="2"/>
<feColorMatrix type="matrix" values="0 0 0 0 0 0 0 0 0 0 0 0 0 0 0 0 0 0 0.45 0"/>
<feBlend mode="normal" in2="BackgroundImageFix" result="effect1_dropShadow_1_66546"/>
<feBlend mode="normal" in="SourceGraphic" in2="effect1_dropShadow_1_66546" result="shape"/>
</filter>
<filter id="filter21_d_1_66546" x="540" y="448" width="16" height="16" filterUnits="userSpaceOnUse" color-interpolation-filters="sRGB">
<feFlood flood-opacity="0" result="BackgroundImageFix"/>
<feColorMatrix in="SourceAlpha" type="matrix" values="0 0 0 0 0 0 0 0 0 0 0 0 0 0 0 0 0 0 127 0" result="hardAlpha"/>
<feOffset dy="2"/>
<feGaussianBlur stdDeviation="2"/>
<feColorMatrix type="matrix" values="0 0 0 0 0 0 0 0 0 0 0 0 0 0 0 0 0 0 0.45 0"/>
<feBlend mode="normal" in2="BackgroundImageFix" result="effect1_dropShadow_1_66546"/>
<feBlend mode="normal" in="SourceGraphic" in2="effect1_dropShadow_1_66546" result="shape"/>
</filter>
<filter id="filter22_d_1_66546" x="747" y="305" width="16" height="16" filterUnits="userSpaceOnUse" color-interpolation-filters="sRGB">
<feFlood flood-opacity="0" result="BackgroundImageFix"/>
<feColorMatrix in="SourceAlpha" type="matrix" values="0 0 0 0 0 0 0 0 0 0 0 0 0 0 0 0 0 0 127 0" result="hardAlpha"/>
<feOffset dy="2"/>
<feGaussianBlur stdDeviation="2"/>
<feColorMatrix type="matrix" values="0 0 0 0 0 0 0 0 0 0 0 0 0 0 0 0 0 0 0.45 0"/>
<feBlend mode="normal" in2="BackgroundImageFix" result="effect1_dropShadow_1_66546"/>
<feBlend mode="normal" in="SourceGraphic" in2="effect1_dropShadow_1_66546" result="shape"/>
</filter>
<filter id="filter23_d_1_66546" x="747" y="448" width="16" height="16" filterUnits="userSpaceOnUse" color-interpolation-filters="sRGB">
<feFlood flood-opacity="0" result="BackgroundImageFix"/>
<feColorMatrix in="SourceAlpha" type="matrix" values="0 0 0 0 0 0 0 0 0 0 0 0 0 0 0 0 0 0 127 0" result="hardAlpha"/>
<feOffset dy="2"/>
<feGaussianBlur stdDeviation="2"/>
<feColorMatrix type="matrix" values="0 0 0 0 0 0 0 0 0 0 0 0 0 0 0 0 0 0 0.45 0"/>
<feBlend mode="normal" in2="BackgroundImageFix" result="effect1_dropShadow_1_66546"/>
<feBlend mode="normal" in="SourceGraphic" in2="effect1_dropShadow_1_66546" result="shape"/>
</filter>
<filter id="filter24_d_1_66546" x="807" y="305" width="16" height="16" filterUnits="userSpaceOnUse" color-interpolation-filters="sRGB">
<feFlood flood-opacity="0" result="BackgroundImageFix"/>
<feColorMatrix in="SourceAlpha" type="matrix" values="0 0 0 0 0 0 0 0 0 0 0 0 0 0 0 0 0 0 127 0" result="hardAlpha"/>
<feOffset dy="2"/>
<feGaussianBlur stdDeviation="2"/>
<feColorMatrix type="matrix" values="0 0 0 0 0 0 0 0 0 0 0 0 0 0 0 0 0 0 0.45 0"/>
<feBlend mode="normal" in2="BackgroundImageFix" result="effect1_dropShadow_1_66546"/>
<feBlend mode="normal" in="SourceGraphic" in2="effect1_dropShadow_1_66546" result="shape"/>
</filter>
<filter id="filter25_d_1_66546" x="807" y="448" width="16" height="16" filterUnits="userSpaceOnUse" color-interpolation-filters="sRGB">
<feFlood flood-opacity="0" result="BackgroundImageFix"/>
<feColorMatrix in="SourceAlpha" type="matrix" values="0 0 0 0 0 0 0 0 0 0 0 0 0 0 0 0 0 0 127 0" result="hardAlpha"/>
<feOffset dy="2"/>
<feGaussianBlur stdDeviation="2"/>
<feColorMatrix type="matrix" values="0 0 0 0 0 0 0 0 0 0 0 0 0 0 0 0 0 0 0.45 0"/>
<feBlend mode="normal" in2="BackgroundImageFix" result="effect1_dropShadow_1_66546"/>
<feBlend mode="normal" in="SourceGraphic" in2="effect1_dropShadow_1_66546" result="shape"/>
</filter>
<filter id="filter26_d_1_66546" x="950" y="305" width="16" height="16" filterUnits="userSpaceOnUse" color-interpolation-filters="sRGB">
<feFlood flood-opacity="0" result="BackgroundImageFix"/>
<feColorMatrix in="SourceAlpha" type="matrix" values="0 0 0 0 0 0 0 0 0 0 0 0 0 0 0 0 0 0 127 0" result="hardAlpha"/>
<feOffset dy="2"/>
<feGaussianBlur stdDeviation="2"/>
<feColorMatrix type="matrix" values="0 0 0 0 0 0 0 0 0 0 0 0 0 0 0 0 0 0 0.45 0"/>
<feBlend mode="normal" in2="BackgroundImageFix" result="effect1_dropShadow_1_66546"/>
<feBlend mode="normal" in="SourceGraphic" in2="effect1_dropShadow_1_66546" result="shape"/>
</filter>
<filter id="filter27_d_1_66546" x="950" y="448" width="16" height="16" filterUnits="userSpaceOnUse" color-interpolation-filters="sRGB">
<feFlood flood-opacity="0" result="BackgroundImageFix"/>
<feColorMatrix in="SourceAlpha" type="matrix" values="0 0 0 0 0 0 0 0 0 0 0 0 0 0 0 0 0 0 127 0" result="hardAlpha"/>
<feOffset dy="2"/>
<feGaussianBlur stdDeviation="2"/>
<feColorMatrix type="matrix" values="0 0 0 0 0 0 0 0 0 0 0 0 0 0 0 0 0 0 0.45 0"/>
<feBlend mode="normal" in2="BackgroundImageFix" result="effect1_dropShadow_1_66546"/>
<feBlend mode="normal" in="SourceGraphic" in2="effect1_dropShadow_1_66546" result="shape"/>
</filter>
<filter id="filter28_d_1_66546" x="709" y="509" width="16" height="16" filterUnits="userSpaceOnUse" color-interpolation-filters="sRGB">
<feFlood flood-opacity="0" result="BackgroundImageFix"/>
<feColorMatrix in="SourceAlpha" type="matrix" values="0 0 0 0 0 0 0 0 0 0 0 0 0 0 0 0 0 0 127 0" result="hardAlpha"/>
<feOffset dy="2"/>
<feGaussianBlur stdDeviation="2"/>
<feColorMatrix type="matrix" values="0 0 0 0 0 0 0 0 0 0 0 0 0 0 0 0 0 0 0.45 0"/>
<feBlend mode="normal" in2="BackgroundImageFix" result="effect1_dropShadow_1_66546"/>
<feBlend mode="normal" in="SourceGraphic" in2="effect1_dropShadow_1_66546" result="shape"/>
</filter>
<filter id="filter29_d_1_66546" x="709" y="738" width="16" height="16" filterUnits="userSpaceOnUse" color-interpolation-filters="sRGB">
<feFlood flood-opacity="0" result="BackgroundImageFix"/>
<feColorMatrix in="SourceAlpha" type="matrix" values="0 0 0 0 0 0 0 0 0 0 0 0 0 0 0 0 0 0 127 0" result="hardAlpha"/>
<feOffset dy="2"/>
<feGaussianBlur stdDeviation="2"/>
<feColorMatrix type="matrix" values="0 0 0 0 0 0 0 0 0 0 0 0 0 0 0 0 0 0 0.45 0"/>
<feBlend mode="normal" in2="BackgroundImageFix" result="effect1_dropShadow_1_66546"/>
<feBlend mode="normal" in="SourceGraphic" in2="effect1_dropShadow_1_66546" result="shape"/>
</filter>
<filter id="filter30_d_1_66546" x="933" y="509" width="16" height="16" filterUnits="userSpaceOnUse" color-interpolation-filters="sRGB">
<feFlood flood-opacity="0" result="BackgroundImageFix"/>
<feColorMatrix in="SourceAlpha" type="matrix" values="0 0 0 0 0 0 0 0 0 0 0 0 0 0 0 0 0 0 127 0" result="hardAlpha"/>
<feOffset dy="2"/>
<feGaussianBlur stdDeviation="2"/>
<feColorMatrix type="matrix" values="0 0 0 0 0 0 0 0 0 0 0 0 0 0 0 0 0 0 0.45 0"/>
<feBlend mode="normal" in2="BackgroundImageFix" result="effect1_dropShadow_1_66546"/>
<feBlend mode="normal" in="SourceGraphic" in2="effect1_dropShadow_1_66546" result="shape"/>
</filter>
<filter id="filter31_d_1_66546" x="933" y="738" width="16" height="16" filterUnits="userSpaceOnUse" color-interpolation-filters="sRGB">
<feFlood flood-opacity="0" result="BackgroundImageFix"/>
<feColorMatrix in="SourceAlpha" type="matrix" values="0 0 0 0 0 0 0 0 0 0 0 0 0 0 0 0 0 0 127 0" result="hardAlpha"/>
<feOffset dy="2"/>
<feGaussianBlur stdDeviation="2"/>
<feColorMatrix type="matrix" values="0 0 0 0 0 0 0 0 0 0 0 0 0 0 0 0 0 0 0.45 0"/>
<feBlend mode="normal" in2="BackgroundImageFix" result="effect1_dropShadow_1_66546"/>
<feBlend mode="normal" in="SourceGraphic" in2="effect1_dropShadow_1_66546" result="shape"/>
</filter>
<filter id="filter32_d_1_66546" x="1000" y="585" width="16" height="16" filterUnits="userSpaceOnUse" color-interpolation-filters="sRGB">
<feFlood flood-opacity="0" result="BackgroundImageFix"/>
<feColorMatrix in="SourceAlpha" type="matrix" values="0 0 0 0 0 0 0 0 0 0 0 0 0 0 0 0 0 0 127 0" result="hardAlpha"/>
<feOffset dy="2"/>
<feGaussianBlur stdDeviation="2"/>
<feColorMatrix type="matrix" values="0 0 0 0 0 0 0 0 0 0 0 0 0 0 0 0 0 0 0.45 0"/>
<feBlend mode="normal" in2="BackgroundImageFix" result="effect1_dropShadow_1_66546"/>
<feBlend mode="normal" in="SourceGraphic" in2="effect1_dropShadow_1_66546" result="shape"/>
</filter>
<filter id="filter33_d_1_66546" x="1000" y="696" width="16" height="16" filterUnits="userSpaceOnUse" color-interpolation-filters="sRGB">
<feFlood flood-opacity="0" result="BackgroundImageFix"/>
<feColorMatrix in="SourceAlpha" type="matrix" values="0 0 0 0 0 0 0 0 0 0 0 0 0 0 0 0 0 0 127 0" result="hardAlpha"/>
<feOffset dy="2"/>
<feGaussianBlur stdDeviation="2"/>
<feColorMatrix type="matrix" values="0 0 0 0 0 0 0 0 0 0 0 0 0 0 0 0 0 0 0.45 0"/>
<feBlend mode="normal" in2="BackgroundImageFix" result="effect1_dropShadow_1_66546"/>
<feBlend mode="normal" in="SourceGraphic" in2="effect1_dropShadow_1_66546" result="shape"/>
</filter>
<filter id="filter34_d_1_66546" x="1111" y="585" width="16" height="16" filterUnits="userSpaceOnUse" color-interpolation-filters="sRGB">
<feFlood flood-opacity="0" result="BackgroundImageFix"/>
<feColorMatrix in="SourceAlpha" type="matrix" values="0 0 0 0 0 0 0 0 0 0 0 0 0 0 0 0 0 0 127 0" result="hardAlpha"/>
<feOffset dy="2"/>
<feGaussianBlur stdDeviation="2"/>
<feColorMatrix type="matrix" values="0 0 0 0 0 0 0 0 0 0 0 0 0 0 0 0 0 0 0.45 0"/>
<feBlend mode="normal" in2="BackgroundImageFix" result="effect1_dropShadow_1_66546"/>
<feBlend mode="normal" in="SourceGraphic" in2="effect1_dropShadow_1_66546" result="shape"/>
</filter>
<filter id="filter35_d_1_66546" x="1111" y="696" width="16" height="16" filterUnits="userSpaceOnUse" color-interpolation-filters="sRGB">
<feFlood flood-opacity="0" result="BackgroundImageFix"/>
<feColorMatrix in="SourceAlpha" type="matrix" values="0 0 0 0 0 0 0 0 0 0 0 0 0 0 0 0 0 0 127 0" result="hardAlpha"/>
<feOffset dy="2"/>
<feGaussianBlur stdDeviation="2"/>
<feColorMatrix type="matrix" values="0 0 0 0 0 0 0 0 0 0 0 0 0 0 0 0 0 0 0.45 0"/>
<feBlend mode="normal" in2="BackgroundImageFix" result="effect1_dropShadow_1_66546"/>
<feBlend mode="normal" in="SourceGraphic" in2="effect1_dropShadow_1_66546" result="shape"/>
</filter>
<filter id="filter36_d_1_66546" x="1184" y="64" width="16" height="16" filterUnits="userSpaceOnUse" color-interpolation-filters="sRGB">
<feFlood flood-opacity="0" result="BackgroundImageFix"/>
<feColorMatrix in="SourceAlpha" type="matrix" values="0 0 0 0 0 0 0 0 0 0 0 0 0 0 0 0 0 0 127 0" result="hardAlpha"/>
<feOffset dy="2"/>
<feGaussianBlur stdDeviation="2"/>
<feColorMatrix type="matrix" values="0 0 0 0 0 0 0 0 0 0 0 0 0 0 0 0 0 0 0.45 0"/>
<feBlend mode="normal" in2="BackgroundImageFix" result="effect1_dropShadow_1_66546"/>
<feBlend mode="normal" in="SourceGraphic" in2="effect1_dropShadow_1_66546" result="shape"/>
</filter>
<filter id="filter37_d_1_66546" x="1184" y="357" width="16" height="16" filterUnits="userSpaceOnUse" color-interpolation-filters="sRGB">
<feFlood flood-opacity="0" result="BackgroundImageFix"/>
<feColorMatrix in="SourceAlpha" type="matrix" values="0 0 0 0 0 0 0 0 0 0 0 0 0 0 0 0 0 0 127 0" result="hardAlpha"/>
<feOffset dy="2"/>
<feGaussianBlur stdDeviation="2"/>
<feColorMatrix type="matrix" values="0 0 0 0 0 0 0 0 0 0 0 0 0 0 0 0 0 0 0.45 0"/>
<feBlend mode="normal" in2="BackgroundImageFix" result="effect1_dropShadow_1_66546"/>
<feBlend mode="normal" in="SourceGraphic" in2="effect1_dropShadow_1_66546" result="shape"/>
</filter>
<filter id="filter38_d_1_66546" x="1531" y="64" width="16" height="16" filterUnits="userSpaceOnUse" color-interpolation-filters="sRGB">
<feFlood flood-opacity="0" result="BackgroundImageFix"/>
<feColorMatrix in="SourceAlpha" type="matrix" values="0 0 0 0 0 0 0 0 0 0 0 0 0 0 0 0 0 0 127 0" result="hardAlpha"/>
<feOffset dy="2"/>
<feGaussianBlur stdDeviation="2"/>
<feColorMatrix type="matrix" values="0 0 0 0 0 0 0 0 0 0 0 0 0 0 0 0 0 0 0.45 0"/>
<feBlend mode="normal" in2="BackgroundImageFix" result="effect1_dropShadow_1_66546"/>
<feBlend mode="normal" in="SourceGraphic" in2="effect1_dropShadow_1_66546" result="shape"/>
</filter>
<filter id="filter39_d_1_66546" x="1531" y="357" width="16" height="16" filterUnits="userSpaceOnUse" color-interpolation-filters="sRGB">
<feFlood flood-opacity="0" result="BackgroundImageFix"/>
<feColorMatrix in="SourceAlpha" type="matrix" values="0 0 0 0 0 0 0 0 0 0 0 0 0 0 0 0 0 0 127 0" result="hardAlpha"/>
<feOffset dy="2"/>
<feGaussianBlur stdDeviation="2"/>
<feColorMatrix type="matrix" values="0 0 0 0 0 0 0 0 0 0 0 0 0 0 0 0 0 0 0.45 0"/>
<feBlend mode="normal" in2="BackgroundImageFix" result="effect1_dropShadow_1_66546"/>
<feBlend mode="normal" in="SourceGraphic" in2="effect1_dropShadow_1_66546" result="shape"/>
</filter>
<filter id="filter40_d_1_66546" x="367" y="869" width="16" height="16" filterUnits="userSpaceOnUse" color-interpolation-filters="sRGB">
<feFlood flood-opacity="0" result="BackgroundImageFix"/>
<feColorMatrix in="SourceAlpha" type="matrix" values="0 0 0 0 0 0 0 0 0 0 0 0 0 0 0 0 0 0 127 0" result="hardAlpha"/>
<feOffset dy="2"/>
<feGaussianBlur stdDeviation="2"/>
<feColorMatrix type="matrix" values="0 0 0 0 0 0 0 0 0 0 0 0 0 0 0 0 0 0 0.45 0"/>
<feBlend mode="normal" in2="BackgroundImageFix" result="effect1_dropShadow_1_66546"/>
<feBlend mode="normal" in="SourceGraphic" in2="effect1_dropShadow_1_66546" result="shape"/>
</filter>
<filter id="filter41_d_1_66546" x="367" y="961" width="16" height="16" filterUnits="userSpaceOnUse" color-interpolation-filters="sRGB">
<feFlood flood-opacity="0" result="BackgroundImageFix"/>
<feColorMatrix in="SourceAlpha" type="matrix" values="0 0 0 0 0 0 0 0 0 0 0 0 0 0 0 0 0 0 127 0" result="hardAlpha"/>
<feOffset dy="2"/>
<feGaussianBlur stdDeviation="2"/>
<feColorMatrix type="matrix" values="0 0 0 0 0 0 0 0 0 0 0 0 0 0 0 0 0 0 0.45 0"/>
<feBlend mode="normal" in2="BackgroundImageFix" result="effect1_dropShadow_1_66546"/>
<feBlend mode="normal" in="SourceGraphic" in2="effect1_dropShadow_1_66546" result="shape"/>
</filter>
<filter id="filter42_d_1_66546" x="578" y="869" width="16" height="16" filterUnits="userSpaceOnUse" color-interpolation-filters="sRGB">
<feFlood flood-opacity="0" result="BackgroundImageFix"/>
<feColorMatrix in="SourceAlpha" type="matrix" values="0 0 0 0 0 0 0 0 0 0 0 0 0 0 0 0 0 0 127 0" result="hardAlpha"/>
<feOffset dy="2"/>
<feGaussianBlur stdDeviation="2"/>
<feColorMatrix type="matrix" values="0 0 0 0 0 0 0 0 0 0 0 0 0 0 0 0 0 0 0.45 0"/>
<feBlend mode="normal" in2="BackgroundImageFix" result="effect1_dropShadow_1_66546"/>
<feBlend mode="normal" in="SourceGraphic" in2="effect1_dropShadow_1_66546" result="shape"/>
</filter>
<filter id="filter43_d_1_66546" x="578" y="961" width="16" height="16" filterUnits="userSpaceOnUse" color-interpolation-filters="sRGB">
<feFlood flood-opacity="0" result="BackgroundImageFix"/>
<feColorMatrix in="SourceAlpha" type="matrix" values="0 0 0 0 0 0 0 0 0 0 0 0 0 0 0 0 0 0 127 0" result="hardAlpha"/>
<feOffset dy="2"/>
<feGaussianBlur stdDeviation="2"/>
<feColorMatrix type="matrix" values="0 0 0 0 0 0 0 0 0 0 0 0 0 0 0 0 0 0 0.45 0"/>
<feBlend mode="normal" in2="BackgroundImageFix" result="effect1_dropShadow_1_66546"/>
<feBlend mode="normal" in="SourceGraphic" in2="effect1_dropShadow_1_66546" result="shape"/>
</filter>
<filter id="filter44_d_1_66546" x="118" y="869" width="16" height="16" filterUnits="userSpaceOnUse" color-interpolation-filters="sRGB">
<feFlood flood-opacity="0" result="BackgroundImageFix"/>
<feColorMatrix in="SourceAlpha" type="matrix" values="0 0 0 0 0 0 0 0 0 0 0 0 0 0 0 0 0 0 127 0" result="hardAlpha"/>
<feOffset dy="2"/>
<feGaussianBlur stdDeviation="2"/>
<feColorMatrix type="matrix" values="0 0 0 0 0 0 0 0 0 0 0 0 0 0 0 0 0 0 0.45 0"/>
<feBlend mode="normal" in2="BackgroundImageFix" result="effect1_dropShadow_1_66546"/>
<feBlend mode="normal" in="SourceGraphic" in2="effect1_dropShadow_1_66546" result="shape"/>
</filter>
<filter id="filter45_d_1_66546" x="118" y="961" width="16" height="16" filterUnits="userSpaceOnUse" color-interpolation-filters="sRGB">
<feFlood flood-opacity="0" result="BackgroundImageFix"/>
<feColorMatrix in="SourceAlpha" type="matrix" values="0 0 0 0 0 0 0 0 0 0 0 0 0 0 0 0 0 0 127 0" result="hardAlpha"/>
<feOffset dy="2"/>
<feGaussianBlur stdDeviation="2"/>
<feColorMatrix type="matrix" values="0 0 0 0 0 0 0 0 0 0 0 0 0 0 0 0 0 0 0.45 0"/>
<feBlend mode="normal" in2="BackgroundImageFix" result="effect1_dropShadow_1_66546"/>
<feBlend mode="normal" in="SourceGraphic" in2="effect1_dropShadow_1_66546" result="shape"/>
</filter>
<filter id="filter46_d_1_66546" x="329" y="869" width="16" height="16" filterUnits="userSpaceOnUse" color-interpolation-filters="sRGB">
<feFlood flood-opacity="0" result="BackgroundImageFix"/>
<feColorMatrix in="SourceAlpha" type="matrix" values="0 0 0 0 0 0 0 0 0 0 0 0 0 0 0 0 0 0 127 0" result="hardAlpha"/>
<feOffset dy="2"/>
<feGaussianBlur stdDeviation="2"/>
<feColorMatrix type="matrix" values="0 0 0 0 0 0 0 0 0 0 0 0 0 0 0 0 0 0 0.45 0"/>
<feBlend mode="normal" in2="BackgroundImageFix" result="effect1_dropShadow_1_66546"/>
<feBlend mode="normal" in="SourceGraphic" in2="effect1_dropShadow_1_66546" result="shape"/>
</filter>
<filter id="filter47_d_1_66546" x="329" y="961" width="16" height="16" filterUnits="userSpaceOnUse" color-interpolation-filters="sRGB">
<feFlood flood-opacity="0" result="BackgroundImageFix"/>
<feColorMatrix in="SourceAlpha" type="matrix" values="0 0 0 0 0 0 0 0 0 0 0 0 0 0 0 0 0 0 127 0" result="hardAlpha"/>
<feOffset dy="2"/>
<feGaussianBlur stdDeviation="2"/>
<feColorMatrix type="matrix" values="0 0 0 0 0 0 0 0 0 0 0 0 0 0 0 0 0 0 0.45 0"/>
<feBlend mode="normal" in2="BackgroundImageFix" result="effect1_dropShadow_1_66546"/>
<feBlend mode="normal" in="SourceGraphic" in2="effect1_dropShadow_1_66546" result="shape"/>
</filter>
<filter id="filter48_d_1_66546" x="612" y="552" width="16" height="16" filterUnits="userSpaceOnUse" color-interpolation-filters="sRGB">
<feFlood flood-opacity="0" result="BackgroundImageFix"/>
<feColorMatrix in="SourceAlpha" type="matrix" values="0 0 0 0 0 0 0 0 0 0 0 0 0 0 0 0 0 0 127 0" result="hardAlpha"/>
<feOffset dy="2"/>
<feGaussianBlur stdDeviation="2"/>
<feColorMatrix type="matrix" values="0 0 0 0 0 0 0 0 0 0 0 0 0 0 0 0 0 0 0.45 0"/>
<feBlend mode="normal" in2="BackgroundImageFix" result="effect1_dropShadow_1_66546"/>
<feBlend mode="normal" in="SourceGraphic" in2="effect1_dropShadow_1_66546" result="shape"/>
</filter>
<filter id="filter49_d_1_66546" x="491" y="673" width="16" height="16" filterUnits="userSpaceOnUse" color-interpolation-filters="sRGB">
<feFlood flood-opacity="0" result="BackgroundImageFix"/>
<feColorMatrix in="SourceAlpha" type="matrix" values="0 0 0 0 0 0 0 0 0 0 0 0 0 0 0 0 0 0 127 0" result="hardAlpha"/>
<feOffset dy="2"/>
<feGaussianBlur stdDeviation="2"/>
<feColorMatrix type="matrix" values="0 0 0 0 0 0 0 0 0 0 0 0 0 0 0 0 0 0 0.45 0"/>
<feBlend mode="normal" in2="BackgroundImageFix" result="effect1_dropShadow_1_66546"/>
<feBlend mode="normal" in="SourceGraphic" in2="effect1_dropShadow_1_66546" result="shape"/>
</filter>
<filter id="filter50_d_1_66546" x="330" y="554" width="16" height="16" filterUnits="userSpaceOnUse" color-interpolation-filters="sRGB">
<feFlood flood-opacity="0" result="BackgroundImageFix"/>
<feColorMatrix in="SourceAlpha" type="matrix" values="0 0 0 0 0 0 0 0 0 0 0 0 0 0 0 0 0 0 127 0" result="hardAlpha"/>
<feOffset dy="2"/>
<feGaussianBlur stdDeviation="2"/>
<feColorMatrix type="matrix" values="0 0 0 0 0 0 0 0 0 0 0 0 0 0 0 0 0 0 0.45 0"/>
<feBlend mode="normal" in2="BackgroundImageFix" result="effect1_dropShadow_1_66546"/>
<feBlend mode="normal" in="SourceGraphic" in2="effect1_dropShadow_1_66546" result="shape"/>
</filter>
<filter id="filter51_d_1_66546" x="330" y="655" width="16" height="16" filterUnits="userSpaceOnUse" color-interpolation-filters="sRGB">
<feFlood flood-opacity="0" result="BackgroundImageFix"/>
<feColorMatrix in="SourceAlpha" type="matrix" values="0 0 0 0 0 0 0 0 0 0 0 0 0 0 0 0 0 0 127 0" result="hardAlpha"/>
<feOffset dy="2"/>
<feGaussianBlur stdDeviation="2"/>
<feColorMatrix type="matrix" values="0 0 0 0 0 0 0 0 0 0 0 0 0 0 0 0 0 0 0.45 0"/>
<feBlend mode="normal" in2="BackgroundImageFix" result="effect1_dropShadow_1_66546"/>
<feBlend mode="normal" in="SourceGraphic" in2="effect1_dropShadow_1_66546" result="shape"/>
</filter>
<filter id="filter52_d_1_66546" x="431" y="554" width="16" height="16" filterUnits="userSpaceOnUse" color-interpolation-filters="sRGB">
<feFlood flood-opacity="0" result="BackgroundImageFix"/>
<feColorMatrix in="SourceAlpha" type="matrix" values="0 0 0 0 0 0 0 0 0 0 0 0 0 0 0 0 0 0 127 0" result="hardAlpha"/>
<feOffset dy="2"/>
<feGaussianBlur stdDeviation="2"/>
<feColorMatrix type="matrix" values="0 0 0 0 0 0 0 0 0 0 0 0 0 0 0 0 0 0 0.45 0"/>
<feBlend mode="normal" in2="BackgroundImageFix" result="effect1_dropShadow_1_66546"/>
<feBlend mode="normal" in="SourceGraphic" in2="effect1_dropShadow_1_66546" result="shape"/>
</filter>
<filter id="filter53_d_1_66546" x="431" y="655" width="16" height="16" filterUnits="userSpaceOnUse" color-interpolation-filters="sRGB">
<feFlood flood-opacity="0" result="BackgroundImageFix"/>
<feColorMatrix in="SourceAlpha" type="matrix" values="0 0 0 0 0 0 0 0 0 0 0 0 0 0 0 0 0 0 127 0" result="hardAlpha"/>
<feOffset dy="2"/>
<feGaussianBlur stdDeviation="2"/>
<feColorMatrix type="matrix" values="0 0 0 0 0 0 0 0 0 0 0 0 0 0 0 0 0 0 0.45 0"/>
<feBlend mode="normal" in2="BackgroundImageFix" result="effect1_dropShadow_1_66546"/>
<feBlend mode="normal" in="SourceGraphic" in2="effect1_dropShadow_1_66546" result="shape"/>
</filter>
<filter id="filter54_d_1_66546" x="671" y="1077" width="16" height="16" filterUnits="userSpaceOnUse" color-interpolation-filters="sRGB">
<feFlood flood-opacity="0" result="BackgroundImageFix"/>
<feColorMatrix in="SourceAlpha" type="matrix" values="0 0 0 0 0 0 0 0 0 0 0 0 0 0 0 0 0 0 127 0" result="hardAlpha"/>
<feOffset dy="2"/>
<feGaussianBlur stdDeviation="2"/>
<feColorMatrix type="matrix" values="0 0 0 0 0 0 0 0 0 0 0 0 0 0 0 0 0 0 0.45 0"/>
<feBlend mode="normal" in2="BackgroundImageFix" result="effect1_dropShadow_1_66546"/>
<feBlend mode="normal" in="SourceGraphic" in2="effect1_dropShadow_1_66546" result="shape"/>
</filter>
<filter id="filter55_d_1_66546" x="671" y="1217" width="16" height="16" filterUnits="userSpaceOnUse" color-interpolation-filters="sRGB">
<feFlood flood-opacity="0" result="BackgroundImageFix"/>
<feColorMatrix in="SourceAlpha" type="matrix" values="0 0 0 0 0 0 0 0 0 0 0 0 0 0 0 0 0 0 127 0" result="hardAlpha"/>
<feOffset dy="2"/>
<feGaussianBlur stdDeviation="2"/>
<feColorMatrix type="matrix" values="0 0 0 0 0 0 0 0 0 0 0 0 0 0 0 0 0 0 0.45 0"/>
<feBlend mode="normal" in2="BackgroundImageFix" result="effect1_dropShadow_1_66546"/>
<feBlend mode="normal" in="SourceGraphic" in2="effect1_dropShadow_1_66546" result="shape"/>
</filter>
<filter id="filter56_d_1_66546" x="892" y="1077" width="16" height="16" filterUnits="userSpaceOnUse" color-interpolation-filters="sRGB">
<feFlood flood-opacity="0" result="BackgroundImageFix"/>
<feColorMatrix in="SourceAlpha" type="matrix" values="0 0 0 0 0 0 0 0 0 0 0 0 0 0 0 0 0 0 127 0" result="hardAlpha"/>
<feOffset dy="2"/>
<feGaussianBlur stdDeviation="2"/>
<feColorMatrix type="matrix" values="0 0 0 0 0 0 0 0 0 0 0 0 0 0 0 0 0 0 0.45 0"/>
<feBlend mode="normal" in2="BackgroundImageFix" result="effect1_dropShadow_1_66546"/>
<feBlend mode="normal" in="SourceGraphic" in2="effect1_dropShadow_1_66546" result="shape"/>
</filter>
<filter id="filter57_d_1_66546" x="892" y="1217" width="16" height="16" filterUnits="userSpaceOnUse" color-interpolation-filters="sRGB">
<feFlood flood-opacity="0" result="BackgroundImageFix"/>
<feColorMatrix in="SourceAlpha" type="matrix" values="0 0 0 0 0 0 0 0 0 0 0 0 0 0 0 0 0 0 127 0" result="hardAlpha"/>
<feOffset dy="2"/>
<feGaussianBlur stdDeviation="2"/>
<feColorMatrix type="matrix" values="0 0 0 0 0 0 0 0 0 0 0 0 0 0 0 0 0 0 0.45 0"/>
<feBlend mode="normal" in2="BackgroundImageFix" result="effect1_dropShadow_1_66546"/>
<feBlend mode="normal" in="SourceGraphic" in2="effect1_dropShadow_1_66546" result="shape"/>
</filter>
</defs>
</svg>
