<svg width="769" height="960" viewBox="0 0 769 960" fill="none" xmlns="http://www.w3.org/2000/svg">
<path d="M0.625336 659.499L80.8581 232.835H185.036L265.58 659.499H0.625336Z" fill="url(#paint0_linear_202_2)"/>
<g filter="url(#filter0_f_202_2)">
<circle cx="132.603" cy="254.999" r="35.5" fill="#DD96E9"/>
</g>
<g filter="url(#filter1_f_202_2)">
<circle cx="132.603" cy="251.772" r="25.3571" fill="#C286FF"/>
</g>
<g filter="url(#filter2_f_202_2)">
<circle cx="132.603" cy="247.161" r="25.3571" fill="white"/>
</g>
<path d="M132.522 -129.219V186.217" stroke="#231F20" stroke-width="1.78234" stroke-miterlimit="10"/>
<path d="M132.689 184.343L54 255.539H211.379L132.689 184.343Z" fill="#4C4A48"/>
<path d="M146.072 198.53H118.975V190.28C118.975 186.279 122.218 183.036 126.219 183.036H138.827C142.829 183.036 146.072 186.279 146.072 190.28V198.53Z" fill="#4C4A48"/>
<path d="M153.299 195.049H111.748V200.967H153.299V195.049Z" fill="#333231"/>
<mask id="mask0_202_2" style="mask-type:luminance" maskUnits="userSpaceOnUse" x="54" y="183" width="158" height="73">
<path d="M211.379 255.539L151.064 200.966H153.299V195.049H146.072V190.278C146.072 186.277 142.829 183.034 138.827 183.034H126.219C122.218 183.034 118.975 186.277 118.975 190.278V195.049H111.748V200.966H114.315L54 255.539H211.379Z" fill="white"/>
</mask>
<g mask="url(#mask0_202_2)">
<path opacity="0.33" d="M130.752 175.889V194.897H127.557V199.849L97.369 259.745H42.4243L118.134 177.327L130.752 175.889Z" fill="#C1B7B0"/>
</g>
<path d="M565.063 510.828L626.6 183.587H706.502L768.277 510.828H565.063Z" fill="url(#paint1_linear_202_2)"/>
<g filter="url(#filter3_f_202_2)">
<circle cx="666.286" cy="200.586" r="27.2276" fill="#DD96E9"/>
</g>
<g filter="url(#filter4_f_202_2)">
<circle cx="666.286" cy="198.111" r="19.4483" fill="#C286FF"/>
</g>
<g filter="url(#filter5_f_202_2)">
<circle cx="666.286" cy="194.575" r="19.4483" fill="white"/>
</g>
<path d="M666.225 -94.1006V147.832" stroke="#231F20" stroke-width="1.36701" stroke-miterlimit="10"/>
<path d="M666.353 146.395L606 201H726.706L666.353 146.395Z" fill="#4C4A48"/>
<path d="M676.617 157.276H655.834V150.948C655.834 147.879 658.321 145.392 661.39 145.392H671.061C674.129 145.392 676.617 147.879 676.617 150.948V157.276Z" fill="#4C4A48"/>
<path d="M682.16 154.606H650.291V159.144H682.16V154.606Z" fill="#333231"/>
<mask id="mask1_202_2" style="mask-type:luminance" maskUnits="userSpaceOnUse" x="606" y="145" width="121" height="56">
<path d="M726.706 201L680.446 159.144H682.16V154.606H676.617V150.946C676.617 147.878 674.13 145.39 671.061 145.39H661.39C658.321 145.39 655.834 147.878 655.834 150.946V154.606H650.291V159.144H652.26L606 201H726.706Z" fill="white"/>
</mask>
<g mask="url(#mask1_202_2)">
<path opacity="0.33" d="M664.867 139.911V154.49H662.417V158.287L639.263 204.226H597.122L655.189 141.014L664.867 139.911Z" fill="#C1B7B0"/>
</g>
<path d="M301.522 -194.219V121.217" stroke="#231F20" stroke-width="1.78234" stroke-miterlimit="10"/>
<path d="M301.689 119.343L223 190.539H380.379L301.689 119.343Z" fill="#4C4A48"/>
<path d="M315.072 133.53H287.975V125.28C287.975 121.279 291.218 118.036 295.219 118.036H307.827C311.829 118.036 315.072 121.279 315.072 125.28V133.53Z" fill="#4C4A48"/>
<path d="M322.299 130.049H280.748V135.967H322.299V130.049Z" fill="#333231"/>
<mask id="mask2_202_2" style="mask-type:luminance" maskUnits="userSpaceOnUse" x="223" y="118" width="158" height="73">
<path d="M380.379 190.539L320.064 135.966H322.299V130.049H315.072V125.278C315.072 121.277 311.829 118.034 307.827 118.034H295.219C291.218 118.034 287.975 121.277 287.975 125.278V130.049H280.748V135.966H283.315L223 190.539H380.379Z" fill="white"/>
</mask>
<g mask="url(#mask2_202_2)">
<path opacity="0.33" d="M299.752 110.889V129.897H296.557V134.849L266.369 194.745H211.424L287.134 112.327L299.752 110.889Z" fill="#C1B7B0"/>
</g>
<path d="M207 1107.03L342.302 387.516H517.984L653.81 1107.03H207Z" fill="url(#paint2_linear_202_2)"/>
<g filter="url(#filter6_f_202_2)">
<circle cx="430" cy="379.026" r="54" fill="#E1E1E1"/>
</g>
<g filter="url(#filter7_f_202_2)">
<circle cx="430.571" cy="374.118" r="38.5714" fill="#E2E2E2"/>
</g>
<g filter="url(#filter8_f_202_2)">
<circle cx="430.571" cy="367.104" r="38.5714" fill="white"/>
</g>
<path d="M430.621 -117.966V302.307" stroke="#231F20" stroke-width="2.37466" stroke-miterlimit="10"/>
<path d="M430.842 299.811L326 394.666H535.683L430.842 299.811Z" fill="#4C4A48"/>
<path d="M448.673 318.71H412.569V307.718C412.569 302.388 416.891 298.066 422.221 298.066H439.021C444.351 298.066 448.673 302.388 448.673 307.718V318.71Z" fill="#4C4A48"/>
<path d="M458.3 314.074H402.94V321.958H458.3V314.074Z" fill="#333231"/>
<mask id="mask3_202_2" style="mask-type:luminance" maskUnits="userSpaceOnUse" x="326" y="298" width="210" height="97">
<path d="M535.683 394.667L455.322 321.958H458.3V314.075H448.671V307.718C448.671 302.388 444.349 298.066 439.019 298.066H422.219C416.889 298.066 412.567 302.388 412.567 307.718V314.075H402.938V321.958H406.36L326 394.667H535.683Z" fill="white"/>
</mask>
<g mask="url(#mask3_202_2)">
<path opacity="0.33" d="M428.261 288.548V313.871H424.004V320.468L383.784 400.273H310.579L411.45 290.462L428.261 288.548Z" fill="#C1B7B0"/>
</g>
<defs>
<filter id="filter0_f_202_2" x="86.0377" y="208.434" width="93.1299" height="93.1299" filterUnits="userSpaceOnUse" color-interpolation-filters="sRGB">
<feFlood flood-opacity="0" result="BackgroundImageFix"/>
<feBlend mode="normal" in="SourceGraphic" in2="BackgroundImageFix" result="shape"/>
<feGaussianBlur stdDeviation="5.53247" result="effect1_foregroundBlur_202_2"/>
</filter>
<filter id="filter1_f_202_2" x="102.635" y="221.804" width="59.9351" height="59.9351" filterUnits="userSpaceOnUse" color-interpolation-filters="sRGB">
<feFlood flood-opacity="0" result="BackgroundImageFix"/>
<feBlend mode="normal" in="SourceGraphic" in2="BackgroundImageFix" result="shape"/>
<feGaussianBlur stdDeviation="2.30519" result="effect1_foregroundBlur_202_2"/>
</filter>
<filter id="filter2_f_202_2" x="61.1416" y="175.7" width="142.922" height="142.922" filterUnits="userSpaceOnUse" color-interpolation-filters="sRGB">
<feFlood flood-opacity="0" result="BackgroundImageFix"/>
<feBlend mode="normal" in="SourceGraphic" in2="BackgroundImageFix" result="shape"/>
<feGaussianBlur stdDeviation="23.0519" result="effect1_foregroundBlur_202_2"/>
</filter>
<filter id="filter3_f_202_2" x="630.572" y="164.872" width="71.4284" height="71.4284" filterUnits="userSpaceOnUse" color-interpolation-filters="sRGB">
<feFlood flood-opacity="0" result="BackgroundImageFix"/>
<feBlend mode="normal" in="SourceGraphic" in2="BackgroundImageFix" result="shape"/>
<feGaussianBlur stdDeviation="4.24327" result="effect1_foregroundBlur_202_2"/>
</filter>
<filter id="filter4_f_202_2" x="643.302" y="175.126" width="45.9688" height="45.9688" filterUnits="userSpaceOnUse" color-interpolation-filters="sRGB">
<feFlood flood-opacity="0" result="BackgroundImageFix"/>
<feBlend mode="normal" in="SourceGraphic" in2="BackgroundImageFix" result="shape"/>
<feGaussianBlur stdDeviation="1.76803" result="effect1_foregroundBlur_202_2"/>
</filter>
<filter id="filter5_f_202_2" x="611.477" y="139.766" width="109.618" height="109.618" filterUnits="userSpaceOnUse" color-interpolation-filters="sRGB">
<feFlood flood-opacity="0" result="BackgroundImageFix"/>
<feBlend mode="normal" in="SourceGraphic" in2="BackgroundImageFix" result="shape"/>
<feGaussianBlur stdDeviation="17.6803" result="effect1_foregroundBlur_202_2"/>
</filter>
<filter id="filter6_f_202_2" x="359.169" y="308.195" width="141.662" height="141.662" filterUnits="userSpaceOnUse" color-interpolation-filters="sRGB">
<feFlood flood-opacity="0" result="BackgroundImageFix"/>
<feBlend mode="normal" in="SourceGraphic" in2="BackgroundImageFix" result="shape"/>
<feGaussianBlur stdDeviation="8.41558" result="effect1_foregroundBlur_202_2"/>
</filter>
<filter id="filter7_f_202_2" x="384.987" y="328.533" width="91.1688" height="91.1688" filterUnits="userSpaceOnUse" color-interpolation-filters="sRGB">
<feFlood flood-opacity="0" result="BackgroundImageFix"/>
<feBlend mode="normal" in="SourceGraphic" in2="BackgroundImageFix" result="shape"/>
<feGaussianBlur stdDeviation="3.50649" result="effect1_foregroundBlur_202_2"/>
</filter>
<filter id="filter8_f_202_2" x="321.87" y="258.403" width="217.403" height="217.403" filterUnits="userSpaceOnUse" color-interpolation-filters="sRGB">
<feFlood flood-opacity="0" result="BackgroundImageFix"/>
<feBlend mode="normal" in="SourceGraphic" in2="BackgroundImageFix" result="shape"/>
<feGaussianBlur stdDeviation="35.0649" result="effect1_foregroundBlur_202_2"/>
</filter>
<linearGradient id="paint0_linear_202_2" x1="133.103" y1="232.835" x2="133.103" y2="659.499" gradientUnits="userSpaceOnUse">
<stop stop-color="#FFBAE9"/>
<stop offset="0.0001" stop-color="#6582E9" stop-opacity="0.19"/>
<stop offset="1" stop-color="#ABBEFF" stop-opacity="0"/>
</linearGradient>
<linearGradient id="paint1_linear_202_2" x1="666.67" y1="183.587" x2="666.67" y2="510.828" gradientUnits="userSpaceOnUse">
<stop stop-color="#FFBAE9"/>
<stop offset="0.0001" stop-color="#6582E9" stop-opacity="0.19"/>
<stop offset="1" stop-color="#ABBEFF" stop-opacity="0"/>
</linearGradient>
<linearGradient id="paint2_linear_202_2" x1="430.405" y1="387.516" x2="430.405" y2="1107.03" gradientUnits="userSpaceOnUse">
<stop stop-color="white"/>
<stop offset="0.0001" stop-color="white" stop-opacity="0.13"/>
<stop offset="1" stop-color="white" stop-opacity="0"/>
</linearGradient>
</defs>
</svg>
