<svg width="1411" height="462" viewBox="0 0 1411 462" fill="none" xmlns="http://www.w3.org/2000/svg">
<path d="M6.5 153L146.5 48.5H27.5L120 153M120 153L181 157M120 153V207" stroke="black" stroke-width="21"/>
<path d="M493.5 153L633.5 48.5H514.5L607 153M607 153L668 157M607 153V207" stroke="black" stroke-width="21"/>
<path d="M1007.5 153L1147.5 48.5H1028.5L1121 153M1121 153L1182 157M1121 153V207" stroke="black" stroke-width="21"/>
<path d="M493.5 392L633.5 287.5H514.5L607 392M607 392L668 396M607 392V446" stroke="black" stroke-width="21"/>
<path d="M1002.5 392L1142.5 287.5H1023.5L1116 392M1116 392L1177 396M1116 392V446" stroke="black" stroke-width="21"/>
<path d="M717.5 392L857.5 287.5H738.5L831 392M831 392L892 396M831 392V446" stroke="black" stroke-width="21"/>
<path d="M1226.5 392L1366.5 287.5H1247.5L1340 392M1340 392L1401 396M1340 392V446" stroke="black" stroke-width="21"/>
<path d="M6.5 398L146.5 293.5H27.5L120 398M120 398L181 402M120 398V452" stroke="black" stroke-width="21"/>
<path d="M208.5 153L348.5 48.5H229.5L322 153M322 153L383 157M322 153V207" stroke="black" stroke-width="21"/>
<path d="M695.5 153L835.5 48.5H716.5L809 153M809 153L870 157M809 153V207" stroke="black" stroke-width="21"/>
<path d="M1209.5 153L1349.5 48.5H1230.5L1323 153M1323 153L1384 157M1323 153V207" stroke="black" stroke-width="21"/>
<path d="M208.5 398L348.5 293.5H229.5L322 398M322 398L348.5 293.4M322 398V452" stroke="black" stroke-width="21"/>
<path d="M6.5 153L146.5 48.5H27.5L120 153M120 153L181 157M120 153V207" stroke="#1C6EE8"/>
<path d="M493.5 153L633.5 48.5H514.5L607 153M607 153L668 157M607 153V207" stroke="#1C6EE8"/>
<path d="M1007.5 153L1147.5 48.5H1028.5L1121 153M1121 153L1182 157M1121 153V207" stroke="#1C6EE8"/>
<path d="M493.5 392L633.5 287.5H514.5L607 392M607 392L668 396M607 392V446" stroke="#1C6EE8"/>
<path d="M1002.5 392L1142.5 287.5H1023.5L1116 392M1116 392L1177 396M1116 392V446" stroke="#1C6EE8"/>
<path d="M717.5 392L857.5 287.5H738.5L831 392M831 392L892 396M831 392V446" stroke="#1C6EE8"/>
<path d="M1226.5 392L1366.5 287.5H1247.5L1340 392M1340 392L1401 396M1340 392V446" stroke="#1C6EE8"/>
<path d="M6.5 398L146.5 293.5H27.5L120 398M120 398L181 402M120 398V452" stroke="#1C6EE8"/>
<path d="M208.5 153L348.5 48.5H229.5L322 153M322 153L383 157M322 153V207" stroke="#1C6EE8"/>
<path d="M695.5 153L835.5 48.5H716.5L809 153M809 153L870 157M809 153V207" stroke="#1C6EE8"/>
<path d="M1209.5 153L1349.5 48.5H1230.5L1323 153M1323 153L1384 157M1323 153V207" stroke="#1C6EE8"/>
<path d="M208.5 398L348.5 293.5H229.5L322 398M322 398L348.5 293.4M322 398V452" stroke="#1C6EE8"/>
<circle cx="29" cy="50" r="4.5" fill="white" stroke="#1C6EE8"/>
<circle cx="516" cy="50" r="4.5" fill="white" stroke="#1C6EE8"/>
<circle cx="1030" cy="50" r="4.5" fill="white" stroke="#1C6EE8"/>
<circle cx="516" cy="289" r="4.5" fill="white" stroke="#1C6EE8"/>
<circle cx="1025" cy="289" r="4.5" fill="white" stroke="#1C6EE8"/>
<circle cx="740" cy="289" r="4.5" fill="white" stroke="#1C6EE8"/>
<circle cx="1249" cy="289" r="4.5" fill="white" stroke="#1C6EE8"/>
<circle cx="29" cy="295" r="4.5" fill="white" stroke="#1C6EE8"/>
<circle cx="231" cy="50" r="4.5" fill="white" stroke="#1C6EE8"/>
<circle cx="718" cy="50" r="4.5" fill="white" stroke="#1C6EE8"/>
<circle cx="231" cy="295" r="4.5" fill="white" stroke="#1C6EE8"/>
<circle cx="149" cy="50" r="4.5" fill="white" stroke="#1C6EE8"/>
<circle cx="636" cy="50" r="4.5" fill="white" stroke="#1C6EE8"/>
<circle cx="648" cy="90" r="4.5" fill="white" stroke="#1C6EE8"/>
<circle cx="1150" cy="50" r="4.5" fill="white" stroke="#1C6EE8"/>
<circle cx="636" cy="289" r="4.5" fill="white" stroke="#1C6EE8"/>
<circle cx="1145" cy="289" r="4.5" fill="white" stroke="#1C6EE8"/>
<circle cx="860" cy="289" r="4.5" fill="white" stroke="#1C6EE8"/>
<circle cx="1369" cy="289" r="4.5" fill="white" stroke="#1C6EE8"/>
<circle cx="149" cy="295" r="4.5" fill="white" stroke="#1C6EE8"/>
<circle cx="351" cy="50" r="4.5" fill="white" stroke="#1C6EE8"/>
<circle cx="351" cy="50" r="5" fill="white" fill-opacity="0.6"/>
<circle cx="838" cy="50" r="4.5" fill="white" stroke="#1C6EE8"/>
<circle cx="838" cy="50" r="5" fill="white" fill-opacity="0.6"/>
<circle cx="351" cy="295" r="4.5" fill="white" stroke="#1C6EE8"/>
<circle cx="8" cy="155" r="4.5" fill="white" stroke="#1C6EE8"/>
<circle cx="495" cy="155" r="4.5" fill="white" stroke="#1C6EE8"/>
<circle cx="1009" cy="155" r="4.5" fill="white" stroke="#1C6EE8"/>
<circle cx="495" cy="394" r="4.5" fill="white" stroke="#1C6EE8"/>
<circle cx="1004" cy="394" r="4.5" fill="white" stroke="#1C6EE8"/>
<circle cx="719" cy="394" r="4.5" fill="white" stroke="#1C6EE8"/>
<circle cx="8" cy="400" r="4.5" fill="white" stroke="#1C6EE8"/>
<circle cx="210" cy="155" r="4.5" fill="white" stroke="#1C6EE8"/>
<circle cx="697" cy="155" r="4.5" fill="white" stroke="#1C6EE8"/>
<circle cx="1211" cy="155" r="4.5" fill="white" stroke="#1C6EE8"/>
<circle cx="210" cy="400" r="4.5" fill="white" stroke="#1C6EE8"/>
<circle cx="122" cy="155" r="4.5" fill="white" stroke="#1C6EE8"/>
<circle cx="609" cy="155" r="4.5" fill="white" stroke="#1C6EE8"/>
<circle cx="1123" cy="155" r="4.5" fill="white" stroke="#1C6EE8"/>
<circle cx="609" cy="394" r="4.5" fill="white" stroke="#1C6EE8"/>
<circle cx="1118" cy="394" r="4.5" fill="white" stroke="#1C6EE8"/>
<circle cx="833" cy="394" r="4.5" fill="white" stroke="#1C6EE8"/>
<circle cx="1342" cy="394" r="4.5" fill="white" stroke="#1C6EE8"/>
<circle cx="122" cy="400" r="4.5" fill="white" stroke="#1C6EE8"/>
<circle cx="324" cy="155" r="4.5" fill="white" stroke="#1C6EE8"/>
<circle cx="811" cy="155" r="4.5" fill="white" stroke="#1C6EE8"/>
<circle cx="1325" cy="155" r="4.5" fill="white" stroke="#1C6EE8"/>
<circle cx="324" cy="400" r="4.5" fill="white" stroke="#1C6EE8"/>
<circle cx="122" cy="209" r="4.5" fill="white" stroke="#1C6EE8"/>
<circle cx="609" cy="209" r="4.5" fill="white" stroke="#1C6EE8"/>
<circle cx="1123" cy="209" r="4.5" fill="white" stroke="#1C6EE8"/>
<circle cx="609" cy="448" r="4.5" fill="white" stroke="#1C6EE8"/>
<circle cx="1118" cy="448" r="4.5" fill="white" stroke="#1C6EE8"/>
<circle cx="833" cy="448" r="4.5" fill="white" stroke="#1C6EE8"/>
<circle cx="1342" cy="448" r="4.5" fill="white" stroke="#1C6EE8"/>
<circle cx="122" cy="454" r="4.5" fill="white" stroke="#1C6EE8"/>
<circle cx="324" cy="209" r="4.5" fill="white" stroke="#1C6EE8"/>
<circle cx="811" cy="209" r="4.5" fill="white" stroke="#1C6EE8"/>
<circle cx="1325" cy="209" r="4.5" fill="white" stroke="#1C6EE8"/>
<circle cx="324" cy="454" r="4.5" fill="white" stroke="#1C6EE8"/>
<path d="M658 326.5L668 396" stroke="#1C6EE8"/>
<path d="M1167 326.5L1177 396" stroke="#1C6EE8"/>
<path d="M858 287.5L892 396" stroke="#1C6EE8"/>
<path d="M1328 316L1401 396" stroke="#1C6EE8"/>
<circle cx="183" cy="159" r="4.5" fill="white" stroke="#1C6EE8"/>
<circle cx="670" cy="159" r="4.5" fill="white" stroke="#1C6EE8"/>
<circle cx="1184" cy="159" r="4.5" fill="white" stroke="#1C6EE8"/>
<circle cx="670" cy="398" r="6" fill="#1C6EE8" stroke="white" stroke-width="2"/>
<circle cx="1179" cy="398" r="6" fill="#1C6EE8" stroke="white" stroke-width="2"/>
<circle cx="894" cy="398" r="6" fill="#1C6EE8" stroke="white" stroke-width="2"/>
<circle cx="1403" cy="398" r="6" fill="#1C6EE8" stroke="white" stroke-width="2"/>
<circle cx="660" cy="328" r="4.5" fill="white" stroke="#1C6EE8"/>
<circle cx="1169" cy="328" r="4.5" fill="white" stroke="#1C6EE8"/>
<circle cx="860" cy="289" r="4.5" fill="white" stroke="#1C6EE8"/>
<circle cx="1330" cy="318" r="4.5" fill="white" stroke="#1C6EE8"/>
<circle cx="183" cy="404" r="6" fill="#1C6EE8" stroke="white" stroke-width="2"/>
<circle cx="385" cy="159" r="4.5" fill="white" stroke="#1C6EE8"/>
<circle cx="872" cy="159" r="4.5" fill="white" stroke="#1C6EE8"/>
<circle cx="1386" cy="159" r="4.5" fill="white" stroke="#1C6EE8"/>
<circle cx="351" cy="295" r="6" fill="#1C6EE8" stroke="white" stroke-width="2"/>
<circle cx="351" cy="295" r="7" fill="white" fill-opacity="0.6"/>
<g filter="url(#filter0_d_1_185909)">
<path fill-rule="evenodd" clip-rule="evenodd" d="M159 70V81L161.909 78.1822L162.066 78.0455H167L159 70Z" fill="black"/>
<path fill-rule="evenodd" clip-rule="evenodd" d="M158 67.576L169.405 79.0455H162.455L158 83.3609V67.576ZM162.066 78.0455H167L159 70V81L161.909 78.1821L162.066 78.0455Z" fill="white"/>
</g>
<g filter="url(#filter1_d_1_185909)">
<path fill-rule="evenodd" clip-rule="evenodd" d="M658.154 90.5324L658.332 91.4214C658.652 93.0242 659.071 94.2777 659.404 95.1197C659.571 95.5404 659.715 95.8576 659.815 96.0633C659.835 96.1057 659.854 96.1433 659.87 96.1761L661.96 98.2657L656.266 103.96L654.176 101.87C654.143 101.854 654.105 101.835 654.063 101.815C653.858 101.715 653.54 101.571 653.12 101.404C652.278 101.072 651.024 100.653 649.421 100.332L648.532 100.154L644.523 86.5233L658.154 90.5324Z" fill="white"/>
<path fill-rule="evenodd" clip-rule="evenodd" d="M646 88L657.292 91.3212L657.351 91.6176C657.685 93.286 658.123 94.5971 658.474 95.4873C658.65 95.9324 658.805 96.2721 658.914 96.4984C658.969 96.6115 659.012 96.6963 659.041 96.7517L659.052 96.7726L660.546 98.2657L656.266 102.546L654.772 101.052L654.752 101.041C654.696 101.012 654.612 100.969 654.498 100.914C654.272 100.805 653.932 100.65 653.487 100.474C652.597 100.123 651.286 99.6851 649.618 99.3514L649.321 99.2921L646 88ZM654.979 100.036L654.933 100.014C654.687 99.8946 654.324 99.7301 653.855 99.5445C652.971 99.1949 651.705 98.7701 650.111 98.432L647.771 90.4784L652.114 94.8215C651.934 95.2759 652.028 95.8139 652.395 96.1816C652.889 96.6748 653.688 96.6748 654.182 96.1816C654.675 95.6883 654.675 94.8885 654.182 94.3952C653.814 94.0275 653.276 93.9339 652.821 94.1143L648.478 89.7713L656.432 92.1106C656.77 93.7046 657.195 94.9706 657.545 95.855C657.73 96.3244 657.895 96.6865 658.014 96.9334L658.036 96.9791L654.979 100.036Z" fill="black"/>
</g>
<g filter="url(#filter2_d_1_185909)">
<path fill-rule="evenodd" clip-rule="evenodd" d="M670.154 328.532L670.332 329.421C670.652 331.024 671.071 332.278 671.404 333.12C671.571 333.54 671.715 333.858 671.815 334.063C671.835 334.106 671.854 334.143 671.87 334.176L673.96 336.266L668.266 341.96L666.176 339.87C666.143 339.854 666.105 339.835 666.063 339.815C665.858 339.715 665.54 339.571 665.12 339.404C664.278 339.072 663.024 338.653 661.421 338.332L660.532 338.154L656.523 324.523L670.154 328.532Z" fill="white"/>
<path fill-rule="evenodd" clip-rule="evenodd" d="M658 326L669.292 329.321L669.351 329.618C669.685 331.286 670.123 332.597 670.474 333.487C670.65 333.932 670.805 334.272 670.914 334.498C670.969 334.611 671.012 334.696 671.041 334.752L671.052 334.773L672.546 336.266L668.266 340.546L666.772 339.052L666.752 339.041C666.696 339.012 666.612 338.969 666.498 338.914C666.272 338.805 665.932 338.65 665.487 338.474C664.597 338.123 663.286 337.685 661.618 337.351L661.321 337.292L658 326ZM666.979 338.036L666.933 338.014C666.687 337.895 666.324 337.73 665.855 337.545C664.971 337.195 663.705 336.77 662.111 336.432L659.771 328.478L664.114 332.821C663.934 333.276 664.028 333.814 664.395 334.182C664.889 334.675 665.688 334.675 666.182 334.182C666.675 333.688 666.675 332.888 666.182 332.395C665.814 332.027 665.276 331.934 664.821 332.114L660.478 327.771L668.432 330.111C668.77 331.705 669.195 332.971 669.545 333.855C669.73 334.324 669.895 334.687 670.014 334.933L670.036 334.979L666.979 338.036Z" fill="black"/>
</g>
<g filter="url(#filter3_d_1_185909)">
<path fill-rule="evenodd" clip-rule="evenodd" d="M1179.15 328.532L1179.33 329.421C1179.65 331.024 1180.07 332.278 1180.4 333.12C1180.57 333.54 1180.72 333.858 1180.81 334.063C1180.84 334.106 1180.85 334.143 1180.87 334.176L1182.96 336.266L1177.27 341.96L1175.18 339.87C1175.14 339.854 1175.11 339.835 1175.06 339.815C1174.86 339.715 1174.54 339.571 1174.12 339.404C1173.28 339.072 1172.02 338.653 1170.42 338.332L1169.53 338.154L1165.52 324.523L1179.15 328.532Z" fill="white"/>
<path fill-rule="evenodd" clip-rule="evenodd" d="M1167 326L1178.29 329.321L1178.35 329.618C1178.69 331.286 1179.12 332.597 1179.47 333.487C1179.65 333.932 1179.8 334.272 1179.91 334.498C1179.97 334.611 1180.01 334.696 1180.04 334.752L1180.05 334.773L1181.55 336.266L1177.27 340.546L1175.77 339.052L1175.75 339.041C1175.7 339.012 1175.61 338.969 1175.5 338.914C1175.27 338.805 1174.93 338.65 1174.49 338.474C1173.6 338.123 1172.29 337.685 1170.62 337.351L1170.32 337.292L1167 326ZM1175.98 338.036L1175.93 338.014C1175.69 337.895 1175.32 337.73 1174.86 337.545C1173.97 337.195 1172.7 336.77 1171.11 336.432L1168.77 328.478L1173.11 332.821C1172.93 333.276 1173.03 333.814 1173.4 334.182C1173.89 334.675 1174.69 334.675 1175.18 334.182C1175.67 333.688 1175.67 332.888 1175.18 332.395C1174.81 332.027 1174.28 331.934 1173.82 332.114L1169.48 327.771L1177.43 330.111C1177.77 331.705 1178.19 332.971 1178.54 333.855C1178.73 334.324 1178.89 334.687 1179.01 334.933L1179.04 334.979L1175.98 338.036Z" fill="black"/>
</g>
<circle cx="1078" cy="18" r="4.5" fill="white" stroke="#1C6EE8"/>
<g filter="url(#filter4_d_1_185909)">
<path fill-rule="evenodd" clip-rule="evenodd" d="M1088.15 18.5324L1088.33 19.4214C1088.65 21.0242 1089.07 22.2777 1089.4 23.1197C1089.57 23.5404 1089.72 23.8576 1089.81 24.0633C1089.84 24.1057 1089.85 24.1433 1089.87 24.1761L1091.96 26.2657L1086.27 31.9597L1084.18 29.87C1084.14 29.8536 1084.11 29.8351 1084.06 29.8147C1083.86 29.7153 1083.54 29.5708 1083.12 29.4044C1082.28 29.0716 1081.02 28.6525 1079.42 28.332L1078.53 28.1542L1074.52 14.5233L1088.15 18.5324Z" fill="white"/>
<path fill-rule="evenodd" clip-rule="evenodd" d="M1076 16L1087.29 19.3212L1087.35 19.6176C1087.69 21.286 1088.12 22.5971 1088.47 23.4873C1088.65 23.9324 1088.8 24.2721 1088.91 24.4984C1088.97 24.6115 1089.01 24.6963 1089.04 24.7517L1089.05 24.7726L1090.55 26.2657L1086.27 30.5455L1084.77 29.0523L1084.75 29.0414C1084.7 29.0123 1084.61 28.9689 1084.5 28.9143C1084.27 28.805 1083.93 28.6504 1083.49 28.4745C1082.6 28.1225 1081.29 27.6851 1079.62 27.3514L1079.32 27.2921L1076 16ZM1084.98 28.0361L1084.93 28.0139C1084.69 27.8946 1084.32 27.7301 1083.86 27.5445C1082.97 27.1949 1081.7 26.7701 1080.11 26.432L1077.77 18.4784L1082.11 22.8215C1081.93 23.2759 1082.03 23.8139 1082.4 24.1816C1082.89 24.6748 1083.69 24.6748 1084.18 24.1816C1084.67 23.6883 1084.67 22.8885 1084.18 22.3952C1083.81 22.0275 1083.28 21.9339 1082.82 22.1143L1078.48 17.7713L1086.43 20.1106C1086.77 21.7046 1087.19 22.9706 1087.54 23.855C1087.73 24.3244 1087.89 24.6865 1088.01 24.9334L1088.04 24.9791L1084.98 28.0361Z" fill="black"/>
</g>
<path d="M347 46L351 50M351 46L347 50" stroke="#DC4B5C"/>
<g filter="url(#filter5_d_1_185909)">
<path fill-rule="evenodd" clip-rule="evenodd" d="M350 51V62L352.909 59.1822L353.066 59.0455H358L350 51Z" fill="black"/>
<path fill-rule="evenodd" clip-rule="evenodd" d="M349 48.576L360.405 60.0455H353.455L349 64.3609V48.576ZM353.066 59.0455H358L350 51V62L352.909 59.1821L353.066 59.0455Z" fill="white"/>
</g>
<path d="M347 291L351 295M351 291L347 295" stroke="#DC4B5C"/>
<g filter="url(#filter6_d_1_185909)">
<path fill-rule="evenodd" clip-rule="evenodd" d="M349 296V307L351.909 304.182L352.066 304.045H357L349 296Z" fill="black"/>
<path fill-rule="evenodd" clip-rule="evenodd" d="M348 293.576L359.405 305.045H352.455L348 309.361V293.576ZM352.066 304.045H357L349 296V307L351.909 304.182L352.066 304.045Z" fill="white"/>
</g>
<path d="M834 46L838 50M838 46L834 50" stroke="#DC4B5C"/>
<g filter="url(#filter7_d_1_185909)">
<path fill-rule="evenodd" clip-rule="evenodd" d="M850.332 55.4214L850.154 54.5324L836.523 50.5233L840.532 64.1542L841.421 64.332C843.024 64.6525 844.278 65.0716 845.12 65.4044C845.54 65.5708 845.858 65.7153 846.063 65.8147C846.105 65.8351 846.143 65.8536 846.176 65.87L848.266 67.9597L853.96 62.2657L851.87 60.1761C851.854 60.1433 851.835 60.1057 851.815 60.0633C851.715 59.8576 851.571 59.5404 851.404 59.1197C851.071 58.2777 850.652 57.0242 850.332 55.4214ZM856 72C857.105 72 858 71.1046 858 70C858 68.8954 857.105 68 856 68C854.895 68 854 68.8954 854 70C854 71.1046 854.895 72 856 72ZM856 73C857.657 73 859 71.6569 859 70C859 68.3431 857.657 67 856 67C854.343 67 853 68.3431 853 70C853 71.6569 854.343 73 856 73ZM857 70C857 70.5523 856.552 71 856 71C855.448 71 855 70.5523 855 70C855 69.4477 855.448 69 856 69C856.552 69 857 69.4477 857 70Z" fill="white"/>
<path fill-rule="evenodd" clip-rule="evenodd" d="M849.292 55.3212L838 52L841.321 63.2921L841.618 63.3514C843.286 63.6851 844.597 64.1225 845.487 64.4745C845.932 64.6504 846.272 64.805 846.498 64.9143C846.612 64.9689 846.696 65.0123 846.752 65.0414L846.772 65.0523L848.266 66.5455L852.546 62.2657L851.052 60.7726L851.041 60.7517C851.012 60.6963 850.969 60.6115 850.914 60.4984C850.805 60.2721 850.65 59.9324 850.474 59.4873C850.123 58.5971 849.685 57.286 849.351 55.6176L849.292 55.3212ZM846.933 64.0139L846.979 64.0361L850.036 60.9791L850.014 60.9334C849.895 60.6865 849.73 60.3244 849.545 59.855C849.195 58.9706 848.77 57.7046 848.432 56.1106L840.478 53.7713L844.821 58.1143C845.276 57.9339 845.814 58.0275 846.182 58.3952C846.675 58.8885 846.675 59.6883 846.182 60.1816C845.688 60.6748 844.889 60.6749 844.395 60.1816C844.028 59.8139 843.934 59.2759 844.114 58.8215L839.771 54.4784L842.111 62.432C843.705 62.7701 844.971 63.1949 845.855 63.5445C846.324 63.7301 846.687 63.8946 846.933 64.0139ZM856 72C857.105 72 858 71.1046 858 70C858 68.8954 857.105 68 856 68C854.895 68 854 68.8954 854 70C854 71.1046 854.895 72 856 72ZM856 71C856.552 71 857 70.5523 857 70C857 69.4477 856.552 69 856 69C855.448 69 855 69.4477 855 70C855 70.5523 855.448 71 856 71Z" fill="black"/>
</g>
<path d="M856 285L860 289M860 285L856 289" stroke="#DC4B5C"/>
<g filter="url(#filter8_d_1_185909)">
<path fill-rule="evenodd" clip-rule="evenodd" d="M872.332 291.421L872.154 290.532L858.523 286.523L862.532 300.154L863.421 300.332C865.024 300.653 866.278 301.072 867.12 301.404C867.54 301.571 867.858 301.715 868.063 301.815C868.105 301.835 868.143 301.854 868.176 301.87L870.266 303.96L875.96 298.266L873.87 296.176C873.854 296.143 873.835 296.106 873.815 296.063C873.715 295.858 873.571 295.54 873.404 295.12C873.071 294.278 872.652 293.024 872.332 291.421ZM878 308C879.105 308 880 307.105 880 306C880 304.895 879.105 304 878 304C876.895 304 876 304.895 876 306C876 307.105 876.895 308 878 308ZM878 309C879.657 309 881 307.657 881 306C881 304.343 879.657 303 878 303C876.343 303 875 304.343 875 306C875 307.657 876.343 309 878 309ZM879 306C879 306.552 878.552 307 878 307C877.448 307 877 306.552 877 306C877 305.448 877.448 305 878 305C878.552 305 879 305.448 879 306Z" fill="white"/>
<path fill-rule="evenodd" clip-rule="evenodd" d="M871.292 291.321L860 288L863.321 299.292L863.618 299.351C865.286 299.685 866.597 300.123 867.487 300.474C867.932 300.65 868.272 300.805 868.498 300.914C868.612 300.969 868.696 301.012 868.752 301.041L868.772 301.052L870.266 302.546L874.546 298.266L873.052 296.773L873.041 296.752C873.012 296.696 872.969 296.611 872.914 296.498C872.805 296.272 872.65 295.932 872.474 295.487C872.123 294.597 871.685 293.286 871.351 291.618L871.292 291.321ZM868.933 300.014L868.979 300.036L872.036 296.979L872.014 296.933C871.895 296.687 871.73 296.324 871.545 295.855C871.195 294.971 870.77 293.705 870.432 292.111L862.478 289.771L866.821 294.114C867.276 293.934 867.814 294.027 868.182 294.395C868.675 294.888 868.675 295.688 868.182 296.182C867.688 296.675 866.889 296.675 866.395 296.182C866.028 295.814 865.934 295.276 866.114 294.821L861.771 290.478L864.111 298.432C865.705 298.77 866.971 299.195 867.855 299.545C868.324 299.73 868.687 299.895 868.933 300.014ZM878 308C879.105 308 880 307.105 880 306C880 304.895 879.105 304 878 304C876.895 304 876 304.895 876 306C876 307.105 876.895 308 878 308Z" fill="black"/>
</g>
<circle cx="1228" cy="394" r="4.5" fill="white" stroke="#1C6EE8"/>
<circle cx="1369" cy="289" r="4.5" fill="white" stroke="#1C6EE8"/>
<circle cx="1232" cy="50" r="4.5" fill="white" stroke="#1C6EE8"/>
<circle cx="1352" cy="50" r="4.5" fill="white" stroke="#1C6EE8"/>
<circle cx="1268" cy="50" r="4.5" fill="white" stroke="#1C6EE8"/>
<path d="M1350 48.5L1230 48.5" stroke="#DC4B5C"/>
<g filter="url(#filter9_d_1_185909)">
<path fill-rule="evenodd" clip-rule="evenodd" d="M1278.15 50.5324L1278.33 51.4214C1278.65 53.0242 1279.07 54.2777 1279.4 55.1197C1279.57 55.5404 1279.72 55.8576 1279.81 56.0633C1279.84 56.1057 1279.85 56.1433 1279.87 56.1761L1281.96 58.2657L1276.27 63.9597L1274.18 61.87C1274.14 61.8536 1274.11 61.8351 1274.06 61.8147C1273.86 61.7153 1273.54 61.5708 1273.12 61.4044C1272.28 61.0716 1271.02 60.6525 1269.42 60.332L1268.53 60.1542L1264.52 46.5233L1278.15 50.5324Z" fill="white"/>
<path fill-rule="evenodd" clip-rule="evenodd" d="M1266 48L1277.29 51.3212L1277.35 51.6176C1277.69 53.286 1278.12 54.5971 1278.47 55.4873C1278.65 55.9324 1278.8 56.2721 1278.91 56.4984C1278.97 56.6115 1279.01 56.6963 1279.04 56.7517L1279.05 56.7726L1280.55 58.2657L1276.27 62.5455L1274.77 61.0523L1274.75 61.0414C1274.7 61.0123 1274.61 60.9689 1274.5 60.9143C1274.27 60.805 1273.93 60.6504 1273.49 60.4745C1272.6 60.1225 1271.29 59.6851 1269.62 59.3514L1269.32 59.2921L1266 48ZM1274.98 60.0361L1274.93 60.0139C1274.69 59.8946 1274.32 59.7301 1273.86 59.5445C1272.97 59.1949 1271.7 58.7701 1270.11 58.432L1267.77 50.4784L1272.11 54.8215C1271.93 55.2759 1272.03 55.8139 1272.4 56.1816C1272.89 56.6748 1273.69 56.6748 1274.18 56.1816C1274.67 55.6883 1274.67 54.8885 1274.18 54.3952C1273.81 54.0275 1273.28 53.9339 1272.82 54.1143L1268.48 49.7713L1276.43 52.1106C1276.77 53.7046 1277.19 54.9706 1277.54 55.855C1277.73 56.3244 1277.89 56.6865 1278.01 56.9334L1278.04 56.9791L1274.98 60.0361Z" fill="black"/>
<path fill-rule="evenodd" clip-rule="evenodd" d="M1284 66V63H1285V66H1288V67H1285V70H1284V67H1281V66H1284Z" fill="black"/>
<path fill-rule="evenodd" clip-rule="evenodd" d="M1283 62H1286V65H1289V68H1286V71H1283V68H1280V65H1283V62ZM1284 66H1281V67H1284V70H1285V67H1288V66H1285V63H1284V66Z" fill="white"/>
</g>
<path d="M1367 287L1227 392" stroke="#DC4B5C"/>
<g filter="url(#filter10_d_1_185909)">
<path fill-rule="evenodd" clip-rule="evenodd" d="M1340.15 318.532L1340.33 319.421C1340.65 321.024 1341.07 322.278 1341.4 323.12C1341.57 323.54 1341.72 323.858 1341.81 324.063C1341.84 324.106 1341.85 324.143 1341.87 324.176L1343.96 326.266L1338.27 331.96L1336.18 329.87C1336.14 329.854 1336.11 329.835 1336.06 329.815C1335.86 329.715 1335.54 329.571 1335.12 329.404C1334.28 329.072 1333.02 328.653 1331.42 328.332L1330.53 328.154L1326.52 314.523L1340.15 318.532Z" fill="white"/>
<path fill-rule="evenodd" clip-rule="evenodd" d="M1328 316L1339.29 319.321L1339.35 319.618C1339.69 321.286 1340.12 322.597 1340.47 323.487C1340.65 323.932 1340.8 324.272 1340.91 324.498C1340.97 324.611 1341.01 324.696 1341.04 324.752L1341.05 324.773L1342.55 326.266L1338.27 330.546L1336.77 329.052L1336.75 329.041C1336.7 329.012 1336.61 328.969 1336.5 328.914C1336.27 328.805 1335.93 328.65 1335.49 328.474C1334.6 328.123 1333.29 327.685 1331.62 327.351L1331.32 327.292L1328 316ZM1336.98 328.036L1336.93 328.014C1336.69 327.895 1336.32 327.73 1335.86 327.545C1334.97 327.195 1333.7 326.77 1332.11 326.432L1329.77 318.478L1334.11 322.821C1333.93 323.276 1334.03 323.814 1334.4 324.182C1334.89 324.675 1335.69 324.675 1336.18 324.182C1336.67 323.688 1336.67 322.888 1336.18 322.395C1335.81 322.027 1335.28 321.934 1334.82 322.114L1330.48 317.771L1338.43 320.111C1338.77 321.705 1339.19 322.971 1339.54 323.855C1339.73 324.324 1339.89 324.687 1340.01 324.933L1340.04 324.979L1336.98 328.036Z" fill="black"/>
<path fill-rule="evenodd" clip-rule="evenodd" d="M1346 334V331H1347V334H1350V335H1347V338H1346V335H1343V334H1346Z" fill="black"/>
<path fill-rule="evenodd" clip-rule="evenodd" d="M1345 330H1348V333H1351V336H1348V339H1345V336H1342V333H1345V330ZM1346 334H1343V335H1346V338H1347V335H1350V334H1347V331H1346V334Z" fill="white"/>
</g>
<defs>
<filter id="filter0_d_1_185909" x="140" y="52" width="38" height="38" filterUnits="userSpaceOnUse" color-interpolation-filters="sRGB">
<feFlood flood-opacity="0" result="BackgroundImageFix"/>
<feColorMatrix in="SourceAlpha" type="matrix" values="0 0 0 0 0 0 0 0 0 0 0 0 0 0 0 0 0 0 127 0" result="hardAlpha"/>
<feOffset dy="1"/>
<feGaussianBlur stdDeviation="1.5"/>
<feColorMatrix type="matrix" values="0 0 0 0 0 0 0 0 0 0 0 0 0 0 0 0 0 0 0.35 0"/>
<feBlend mode="normal" in2="BackgroundImageFix" result="effect1_dropShadow_1_185909"/>
<feBlend mode="normal" in="SourceGraphic" in2="effect1_dropShadow_1_185909" result="shape"/>
</filter>
<filter id="filter1_d_1_185909" x="627" y="70" width="38" height="38" filterUnits="userSpaceOnUse" color-interpolation-filters="sRGB">
<feFlood flood-opacity="0" result="BackgroundImageFix"/>
<feColorMatrix in="SourceAlpha" type="matrix" values="0 0 0 0 0 0 0 0 0 0 0 0 0 0 0 0 0 0 127 0" result="hardAlpha"/>
<feOffset dy="1"/>
<feGaussianBlur stdDeviation="1.5"/>
<feColorMatrix type="matrix" values="0 0 0 0 0 0 0 0 0 0 0 0 0 0 0 0 0 0 0.35 0"/>
<feBlend mode="normal" in2="BackgroundImageFix" result="effect1_dropShadow_1_185909"/>
<feBlend mode="normal" in="SourceGraphic" in2="effect1_dropShadow_1_185909" result="shape"/>
</filter>
<filter id="filter2_d_1_185909" x="639" y="308" width="38" height="38" filterUnits="userSpaceOnUse" color-interpolation-filters="sRGB">
<feFlood flood-opacity="0" result="BackgroundImageFix"/>
<feColorMatrix in="SourceAlpha" type="matrix" values="0 0 0 0 0 0 0 0 0 0 0 0 0 0 0 0 0 0 127 0" result="hardAlpha"/>
<feOffset dy="1"/>
<feGaussianBlur stdDeviation="1.5"/>
<feColorMatrix type="matrix" values="0 0 0 0 0 0 0 0 0 0 0 0 0 0 0 0 0 0 0.35 0"/>
<feBlend mode="normal" in2="BackgroundImageFix" result="effect1_dropShadow_1_185909"/>
<feBlend mode="normal" in="SourceGraphic" in2="effect1_dropShadow_1_185909" result="shape"/>
</filter>
<filter id="filter3_d_1_185909" x="1148" y="308" width="38" height="38" filterUnits="userSpaceOnUse" color-interpolation-filters="sRGB">
<feFlood flood-opacity="0" result="BackgroundImageFix"/>
<feColorMatrix in="SourceAlpha" type="matrix" values="0 0 0 0 0 0 0 0 0 0 0 0 0 0 0 0 0 0 127 0" result="hardAlpha"/>
<feOffset dy="1"/>
<feGaussianBlur stdDeviation="1.5"/>
<feColorMatrix type="matrix" values="0 0 0 0 0 0 0 0 0 0 0 0 0 0 0 0 0 0 0.35 0"/>
<feBlend mode="normal" in2="BackgroundImageFix" result="effect1_dropShadow_1_185909"/>
<feBlend mode="normal" in="SourceGraphic" in2="effect1_dropShadow_1_185909" result="shape"/>
</filter>
<filter id="filter4_d_1_185909" x="1057" y="-2" width="38" height="38" filterUnits="userSpaceOnUse" color-interpolation-filters="sRGB">
<feFlood flood-opacity="0" result="BackgroundImageFix"/>
<feColorMatrix in="SourceAlpha" type="matrix" values="0 0 0 0 0 0 0 0 0 0 0 0 0 0 0 0 0 0 127 0" result="hardAlpha"/>
<feOffset dy="1"/>
<feGaussianBlur stdDeviation="1.5"/>
<feColorMatrix type="matrix" values="0 0 0 0 0 0 0 0 0 0 0 0 0 0 0 0 0 0 0.35 0"/>
<feBlend mode="normal" in2="BackgroundImageFix" result="effect1_dropShadow_1_185909"/>
<feBlend mode="normal" in="SourceGraphic" in2="effect1_dropShadow_1_185909" result="shape"/>
</filter>
<filter id="filter5_d_1_185909" x="331" y="33" width="38" height="38" filterUnits="userSpaceOnUse" color-interpolation-filters="sRGB">
<feFlood flood-opacity="0" result="BackgroundImageFix"/>
<feColorMatrix in="SourceAlpha" type="matrix" values="0 0 0 0 0 0 0 0 0 0 0 0 0 0 0 0 0 0 127 0" result="hardAlpha"/>
<feOffset dy="1"/>
<feGaussianBlur stdDeviation="1.5"/>
<feColorMatrix type="matrix" values="0 0 0 0 0 0 0 0 0 0 0 0 0 0 0 0 0 0 0.35 0"/>
<feBlend mode="normal" in2="BackgroundImageFix" result="effect1_dropShadow_1_185909"/>
<feBlend mode="normal" in="SourceGraphic" in2="effect1_dropShadow_1_185909" result="shape"/>
</filter>
<filter id="filter6_d_1_185909" x="330" y="278" width="38" height="38" filterUnits="userSpaceOnUse" color-interpolation-filters="sRGB">
<feFlood flood-opacity="0" result="BackgroundImageFix"/>
<feColorMatrix in="SourceAlpha" type="matrix" values="0 0 0 0 0 0 0 0 0 0 0 0 0 0 0 0 0 0 127 0" result="hardAlpha"/>
<feOffset dy="1"/>
<feGaussianBlur stdDeviation="1.5"/>
<feColorMatrix type="matrix" values="0 0 0 0 0 0 0 0 0 0 0 0 0 0 0 0 0 0 0.35 0"/>
<feBlend mode="normal" in2="BackgroundImageFix" result="effect1_dropShadow_1_185909"/>
<feBlend mode="normal" in="SourceGraphic" in2="effect1_dropShadow_1_185909" result="shape"/>
</filter>
<filter id="filter7_d_1_185909" x="819" y="34" width="43" height="43" filterUnits="userSpaceOnUse" color-interpolation-filters="sRGB">
<feFlood flood-opacity="0" result="BackgroundImageFix"/>
<feColorMatrix in="SourceAlpha" type="matrix" values="0 0 0 0 0 0 0 0 0 0 0 0 0 0 0 0 0 0 127 0" result="hardAlpha"/>
<feOffset dy="1"/>
<feGaussianBlur stdDeviation="1.5"/>
<feColorMatrix type="matrix" values="0 0 0 0 0 0 0 0 0 0 0 0 0 0 0 0 0 0 0.35 0"/>
<feBlend mode="normal" in2="BackgroundImageFix" result="effect1_dropShadow_1_185909"/>
<feBlend mode="normal" in="SourceGraphic" in2="effect1_dropShadow_1_185909" result="shape"/>
</filter>
<filter id="filter8_d_1_185909" x="841" y="270" width="43" height="43" filterUnits="userSpaceOnUse" color-interpolation-filters="sRGB">
<feFlood flood-opacity="0" result="BackgroundImageFix"/>
<feColorMatrix in="SourceAlpha" type="matrix" values="0 0 0 0 0 0 0 0 0 0 0 0 0 0 0 0 0 0 127 0" result="hardAlpha"/>
<feOffset dy="1"/>
<feGaussianBlur stdDeviation="1.5"/>
<feColorMatrix type="matrix" values="0 0 0 0 0 0 0 0 0 0 0 0 0 0 0 0 0 0 0.35 0"/>
<feBlend mode="normal" in2="BackgroundImageFix" result="effect1_dropShadow_1_185909"/>
<feBlend mode="normal" in="SourceGraphic" in2="effect1_dropShadow_1_185909" result="shape"/>
</filter>
<filter id="filter9_d_1_185909" x="1247" y="30" width="45" height="45" filterUnits="userSpaceOnUse" color-interpolation-filters="sRGB">
<feFlood flood-opacity="0" result="BackgroundImageFix"/>
<feColorMatrix in="SourceAlpha" type="matrix" values="0 0 0 0 0 0 0 0 0 0 0 0 0 0 0 0 0 0 127 0" result="hardAlpha"/>
<feOffset dy="1"/>
<feGaussianBlur stdDeviation="1.5"/>
<feColorMatrix type="matrix" values="0 0 0 0 0 0 0 0 0 0 0 0 0 0 0 0 0 0 0.35 0"/>
<feBlend mode="normal" in2="BackgroundImageFix" result="effect1_dropShadow_1_185909"/>
<feBlend mode="normal" in="SourceGraphic" in2="effect1_dropShadow_1_185909" result="shape"/>
</filter>
<filter id="filter10_d_1_185909" x="1309" y="298" width="45" height="45" filterUnits="userSpaceOnUse" color-interpolation-filters="sRGB">
<feFlood flood-opacity="0" result="BackgroundImageFix"/>
<feColorMatrix in="SourceAlpha" type="matrix" values="0 0 0 0 0 0 0 0 0 0 0 0 0 0 0 0 0 0 127 0" result="hardAlpha"/>
<feOffset dy="1"/>
<feGaussianBlur stdDeviation="1.5"/>
<feColorMatrix type="matrix" values="0 0 0 0 0 0 0 0 0 0 0 0 0 0 0 0 0 0 0.35 0"/>
<feBlend mode="normal" in2="BackgroundImageFix" result="effect1_dropShadow_1_185909"/>
<feBlend mode="normal" in="SourceGraphic" in2="effect1_dropShadow_1_185909" result="shape"/>
</filter>
</defs>
</svg>
