<svg width="11023" height="4918" viewBox="0 0 11023 4918" fill="none" xmlns="http://www.w3.org/2000/svg">
<mask id="path-1-outside-1_1_185913" maskUnits="userSpaceOnUse" x="2153" y="2123" width="1179" height="925" fill="black">
<rect fill="white" x="2153" y="2123" width="1179" height="925"/>
<path fill-rule="evenodd" clip-rule="evenodd" d="M2375.85 2977C2622.76 2887.02 2800 2651.14 2800 2372.5C2800 2310.5 2791.23 2250.63 2774.86 2194H3261V2977H2375.85ZM2224 2769.01C2414.31 2736.06 2559 2571.07 2559 2372.5C2559 2308.4 2543.92 2247.79 2517.1 2194H2224V2769.01Z"/>
</mask>
<path fill-rule="evenodd" clip-rule="evenodd" d="M2375.85 2977C2622.76 2887.02 2800 2651.14 2800 2372.5C2800 2310.5 2791.23 2250.63 2774.86 2194H3261V2977H2375.85ZM2224 2769.01C2414.31 2736.06 2559 2571.07 2559 2372.5C2559 2308.4 2543.92 2247.79 2517.1 2194H2224V2769.01Z" fill="#FCFF51"/>
<path d="M2375.85 2977L2351.54 2910.29L2375.85 3048V2977ZM2774.86 2194V2123H2680.44L2706.65 2213.71L2774.86 2194ZM3261 2194H3332V2123H3261V2194ZM3261 2977V3048H3332V2977H3261ZM2224 2769.01H2153V2853.36L2236.11 2838.97L2224 2769.01ZM2517.1 2194L2580.63 2162.31L2561.03 2123H2517.1V2194ZM2224 2194V2123H2153V2194H2224ZM2729 2372.5C2729 2620.1 2571.56 2830.11 2351.54 2910.29L2400.16 3043.71C2673.96 2943.93 2871 2682.17 2871 2372.5H2729ZM2706.65 2213.71C2721.18 2263.99 2729 2317.24 2729 2372.5H2871C2871 2303.77 2861.27 2237.26 2843.07 2174.29L2706.65 2213.71ZM2774.86 2265H3261V2123H2774.86V2265ZM3190 2194V2977H3332V2194H3190ZM3261 2906H2375.85V3048H3261V2906ZM2236.11 2838.97C2459.56 2800.28 2630 2606.51 2630 2372.5H2488C2488 2535.63 2369.06 2671.83 2211.89 2699.05L2236.11 2838.97ZM2630 2372.5C2630 2297.14 2612.25 2225.72 2580.63 2162.31L2453.56 2225.69C2475.59 2269.87 2488 2319.65 2488 2372.5H2630ZM2224 2265H2517.1V2123H2224V2265ZM2295 2769.01V2194H2153V2769.01H2295Z" fill="black" mask="url(#path-1-outside-1_1_185913)"/>
<mask id="path-3-outside-2_1_185913" maskUnits="userSpaceOnUse" x="4993" y="0" width="1179" height="925" fill="black">
<rect fill="white" x="4993" width="1179" height="925"/>
<path fill-rule="evenodd" clip-rule="evenodd" d="M5215.85 854C5462.76 764.022 5640 528.136 5640 249.5C5640 187.505 5631.23 127.626 5614.86 71H6101V854H5215.85ZM5064 646.01C5254.31 613.055 5399 448.07 5399 249.5C5399 185.396 5383.92 124.792 5357.1 71H5064V646.01Z"/>
</mask>
<path d="M5215.85 854L5191.54 787.292L5215.85 925V854ZM5614.86 71V0H5520.44L5546.65 90.7107L5614.86 71ZM6101 71H6172V0H6101V71ZM6101 854V925H6172V854H6101ZM5064 646.01H4993V730.361L5076.11 715.969L5064 646.01ZM5357.1 71L5420.63 39.3146L5401.03 0H5357.1V71ZM5064 71V0H4993V71H5064ZM5569 249.5C5569 497.098 5411.56 707.113 5191.54 787.292L5240.16 920.708C5513.96 820.931 5711 559.174 5711 249.5H5569ZM5546.65 90.7107C5561.18 140.991 5569 194.236 5569 249.5H5711C5711 180.774 5701.27 114.262 5683.07 51.2893L5546.65 90.7107ZM5614.86 142H6101V0H5614.86V142ZM6030 71V854H6172V71H6030ZM6101 783H5215.85V925H6101V783ZM5076.11 715.969C5299.56 677.276 5470 483.51 5470 249.5H5328C5328 412.63 5209.06 548.834 5051.89 576.051L5076.11 715.969ZM5470 249.5C5470 174.142 5452.25 102.715 5420.63 39.3146L5293.56 102.685C5315.59 146.868 5328 196.65 5328 249.5H5470ZM5064 142H5357.1V0H5064V142ZM5135 646.01V71H4993V646.01H5135Z" fill="black" mask="url(#path-3-outside-2_1_185913)"/>
<path fill-rule="evenodd" clip-rule="evenodd" d="M6708.85 925L6684.54 787.292C6904.56 707.113 7062 497.098 7062 249.5C7062 194.236 7054.18 140.991 7039.65 90.7107L7013.44 0H7665V925H6708.85ZM6486 730.361V0H6894.03L6913.63 39.3146C6945.25 102.715 6963 174.142 6963 249.5C6963 483.51 6792.56 677.276 6569.11 715.969L6486 730.361ZM6708.85 854H7594V71H7107.86C7114.55 94.149 7119.97 117.842 7124.04 142C7129.93 176.937 7133 212.849 7133 249.5C7133 472.197 7019.78 667.586 6848.27 783C6805.18 811.991 6758.42 835.936 6708.85 854ZM6850.1 71C6876.92 124.792 6892 185.396 6892 249.5C6892 422.515 6782.16 570.033 6628 626.936C6605.23 635.341 6581.49 641.769 6557 646.01V71H6850.1Z" fill="#FF0000" fill-opacity="0.2"/>
<path fill-rule="evenodd" clip-rule="evenodd" d="M2062.85 854C2309.76 764.022 2487 528.136 2487 249.5C2487 187.505 2478.23 127.626 2461.86 71H2948V854H2062.85ZM1911 646.01C2101.31 613.055 2246 448.07 2246 249.5C2246 185.396 2230.92 124.792 2204.1 71H1911V646.01Z" fill="#FCFF51"/>
<g filter="url(#filter0_d_1_185913)">
<path fill-rule="evenodd" clip-rule="evenodd" d="M8805.85 854C9052.76 764.022 9230 528.136 9230 249.5C9230 187.505 9221.23 127.626 9204.86 71H9691V854H8805.85ZM8654 646.01C8844.31 613.055 8989 448.07 8989 249.5C8989 185.396 8973.92 124.792 8947.1 71H8654V646.01Z" fill="#FCFF51" fill-opacity="0.01"/>
</g>
<path fill-rule="evenodd" clip-rule="evenodd" d="M3412.85 854C3659.76 764.022 3837 528.136 3837 249.5C3837 187.505 3828.23 127.626 3811.86 71H4298V854H3412.85ZM3261 646.01C3451.31 613.055 3596 448.07 3596 249.5C3596 185.396 3580.92 124.792 3554.1 71H3261V646.01Z" fill="#FF0000" fill-opacity="0.2"/>
<path fill-rule="evenodd" clip-rule="evenodd" d="M10137.9 854C10384.8 764.022 10562 528.136 10562 249.5C10562 187.505 10553.2 127.626 10536.9 71H11023V854H10137.9ZM9986 646.01C10176.3 613.055 10321 448.07 10321 249.5C10321 185.396 10305.9 124.792 10279.1 71H9986V646.01Z" fill="#FF0000" fill-opacity="0.2"/>
<mask id="path-10-outside-3_1_185913" maskUnits="userSpaceOnUse" x="7735" y="2089" width="1179" height="925" fill="black">
<rect fill="white" x="7735" y="2089" width="1179" height="925"/>
<path fill-rule="evenodd" clip-rule="evenodd" d="M7957.85 2943C8204.76 2853.02 8382 2617.14 8382 2338.5C8382 2276.5 8373.23 2216.63 8356.86 2160H8843V2943H7957.85ZM7806 2735.01C7996.31 2702.06 8141 2537.07 8141 2338.5C8141 2274.4 8125.92 2213.79 8099.1 2160H7806V2735.01Z"/>
</mask>
<path fill-rule="evenodd" clip-rule="evenodd" d="M7957.85 2943C8204.76 2853.02 8382 2617.14 8382 2338.5C8382 2276.5 8373.23 2216.63 8356.86 2160H8843V2943H7957.85ZM7806 2735.01C7996.31 2702.06 8141 2537.07 8141 2338.5C8141 2274.4 8125.92 2213.79 8099.1 2160H7806V2735.01Z" fill="#FCFF51"/>
<path d="M7957.85 2943L7933.54 2876.29L7957.85 3014V2943ZM8356.86 2160V2089H8262.44L8288.65 2179.71L8356.86 2160ZM8843 2160H8914V2089H8843V2160ZM8843 2943V3014H8914V2943H8843ZM7806 2735.01H7735V2819.36L7818.11 2804.97L7806 2735.01ZM8099.1 2160L8162.63 2128.31L8143.03 2089H8099.1V2160ZM7806 2160V2089H7735V2160H7806ZM8311 2338.5C8311 2586.1 8153.56 2796.11 7933.54 2876.29L7982.16 3009.71C8255.96 2909.93 8453 2648.17 8453 2338.5H8311ZM8288.65 2179.71C8303.18 2229.99 8311 2283.24 8311 2338.5H8453C8453 2269.77 8443.27 2203.26 8425.07 2140.29L8288.65 2179.71ZM8356.86 2231H8843V2089H8356.86V2231ZM8772 2160V2943H8914V2160H8772ZM8843 2872H7957.85V3014H8843V2872ZM7818.11 2804.97C8041.56 2766.28 8212 2572.51 8212 2338.5H8070C8070 2501.63 7951.06 2637.83 7793.89 2665.05L7818.11 2804.97ZM8212 2338.5C8212 2263.14 8194.25 2191.72 8162.63 2128.31L8035.56 2191.69C8057.59 2235.87 8070 2285.65 8070 2338.5H8212ZM7806 2231H8099.1V2089H7806V2231ZM7877 2735.01V2160H7735V2735.01H7877Z" fill="black" mask="url(#path-10-outside-3_1_185913)"/>
<mask id="path-12-outside-4_1_185913" maskUnits="userSpaceOnUse" x="6163" y="2123" width="1179" height="925" fill="black">
<rect fill="white" x="6163" y="2123" width="1179" height="925"/>
<path fill-rule="evenodd" clip-rule="evenodd" d="M6385.85 2977C6632.76 2887.02 6810 2651.14 6810 2372.5C6810 2310.5 6801.23 2250.63 6784.86 2194H7271V2977H6385.85ZM6234 2769.01C6424.31 2736.06 6569 2571.07 6569 2372.5C6569 2308.4 6553.92 2247.79 6527.1 2194H6234V2769.01Z"/>
</mask>
<path fill-rule="evenodd" clip-rule="evenodd" d="M6385.85 2977C6632.76 2887.02 6810 2651.14 6810 2372.5C6810 2310.5 6801.23 2250.63 6784.86 2194H7271V2977H6385.85ZM6234 2769.01C6424.31 2736.06 6569 2571.07 6569 2372.5C6569 2308.4 6553.92 2247.79 6527.1 2194H6234V2769.01Z" fill="#FCFF51"/>
<path d="M6385.85 2977L6361.54 2910.29L6385.85 3048V2977ZM6784.86 2194V2123H6690.44L6716.65 2213.71L6784.86 2194ZM7271 2194H7342V2123H7271V2194ZM7271 2977V3048H7342V2977H7271ZM6234 2769.01H6163V2853.36L6246.11 2838.97L6234 2769.01ZM6527.1 2194L6590.63 2162.31L6571.03 2123H6527.1V2194ZM6234 2194V2123H6163V2194H6234ZM6739 2372.5C6739 2620.1 6581.56 2830.11 6361.54 2910.29L6410.16 3043.71C6683.96 2943.93 6881 2682.17 6881 2372.5H6739ZM6716.65 2213.71C6731.18 2263.99 6739 2317.24 6739 2372.5H6881C6881 2303.77 6871.27 2237.26 6853.07 2174.29L6716.65 2213.71ZM6784.86 2265H7271V2123H6784.86V2265ZM7200 2194V2977H7342V2194H7200ZM7271 2906H6385.85V3048H7271V2906ZM6246.11 2838.97C6469.56 2800.28 6640 2606.51 6640 2372.5H6498C6498 2535.63 6379.06 2671.83 6221.89 2699.05L6246.11 2838.97ZM6640 2372.5C6640 2297.14 6622.25 2225.72 6590.63 2162.31L6463.56 2225.69C6485.59 2269.87 6498 2319.65 6498 2372.5H6640ZM6234 2265H6527.1V2123H6234V2265ZM6305 2769.01V2194H6163V2769.01H6305Z" fill="black" mask="url(#path-12-outside-4_1_185913)"/>
<rect x="6234" y="2194" width="1037" height="783" fill="#FF0000" fill-opacity="0.2"/>
<mask id="path-15-outside-5_1_185913" maskUnits="userSpaceOnUse" x="4394" y="2123" width="1179" height="925" fill="black">
<rect fill="white" x="4394" y="2123" width="1179" height="925"/>
<path fill-rule="evenodd" clip-rule="evenodd" d="M4616.85 2977C4863.76 2887.02 5041 2651.14 5041 2372.5C5041 2310.5 5032.23 2250.63 5015.86 2194H5502V2977H4616.85ZM4465 2769.01C4655.31 2736.06 4800 2571.07 4800 2372.5C4800 2308.4 4784.92 2247.79 4758.1 2194H4465V2769.01Z"/>
</mask>
<path fill-rule="evenodd" clip-rule="evenodd" d="M4616.85 2977C4863.76 2887.02 5041 2651.14 5041 2372.5C5041 2310.5 5032.23 2250.63 5015.86 2194H5502V2977H4616.85ZM4465 2769.01C4655.31 2736.06 4800 2571.07 4800 2372.5C4800 2308.4 4784.92 2247.79 4758.1 2194H4465V2769.01Z" fill="#FCFF51"/>
<path d="M4616.85 2977L4592.54 2910.29L4616.85 3048V2977ZM5015.86 2194V2123H4921.44L4947.65 2213.71L5015.86 2194ZM5502 2194H5573V2123H5502V2194ZM5502 2977V3048H5573V2977H5502ZM4465 2769.01H4394V2853.36L4477.11 2838.97L4465 2769.01ZM4758.1 2194L4821.63 2162.31L4802.03 2123H4758.1V2194ZM4465 2194V2123H4394V2194H4465ZM4970 2372.5C4970 2620.1 4812.56 2830.11 4592.54 2910.29L4641.16 3043.71C4914.96 2943.93 5112 2682.17 5112 2372.5H4970ZM4947.65 2213.71C4962.18 2263.99 4970 2317.24 4970 2372.5H5112C5112 2303.77 5102.27 2237.26 5084.07 2174.29L4947.65 2213.71ZM5015.86 2265H5502V2123H5015.86V2265ZM5431 2194V2977H5573V2194H5431ZM5502 2906H4616.85V3048H5502V2906ZM4477.11 2838.97C4700.56 2800.28 4871 2606.51 4871 2372.5H4729C4729 2535.63 4610.06 2671.83 4452.89 2699.05L4477.11 2838.97ZM4871 2372.5C4871 2297.14 4853.25 2225.72 4821.63 2162.31L4694.56 2225.69C4716.59 2269.87 4729 2319.65 4729 2372.5H4871ZM4465 2265H4758.1V2123H4465V2265ZM4536 2769.01V2194H4394V2769.01H4536Z" fill="black" mask="url(#path-15-outside-5_1_185913)"/>
<path d="M4398 2892.5C4687.52 2892.5 4923.5 2659.05 4923.5 2369.5C4923.5 2079.95 4687.52 1846.5 4398 1846.5C4108.48 1846.5 3872.5 2079.95 3872.5 2369.5C3872.5 2659.05 4108.48 2892.5 4398 2892.5Z" stroke="#FF0000" stroke-opacity="0.2" stroke-width="241"/>
<mask id="path-18-outside-6_1_185913" maskUnits="userSpaceOnUse" x="3624" y="3993" width="1179" height="925" fill="black">
<rect fill="white" x="3624" y="3993" width="1179" height="925"/>
<path fill-rule="evenodd" clip-rule="evenodd" d="M3846.85 4847C4093.76 4757.02 4271 4521.14 4271 4242.5C4271 4180.5 4262.23 4120.63 4245.86 4064H4732V4847H3846.85ZM3695 4639.01C3885.31 4606.06 4030 4441.07 4030 4242.5C4030 4178.4 4014.92 4117.79 3988.1 4064H3695V4639.01Z"/>
</mask>
<path fill-rule="evenodd" clip-rule="evenodd" d="M3846.85 4847C4093.76 4757.02 4271 4521.14 4271 4242.5C4271 4180.5 4262.23 4120.63 4245.86 4064H4732V4847H3846.85ZM3695 4639.01C3885.31 4606.06 4030 4441.07 4030 4242.5C4030 4178.4 4014.92 4117.79 3988.1 4064H3695V4639.01Z" fill="#FCFF51"/>
<path d="M3846.85 4847L3822.54 4780.29L3846.85 4918V4847ZM4245.86 4064V3993H4151.44L4177.65 4083.71L4245.86 4064ZM4732 4064H4803V3993H4732V4064ZM4732 4847V4918H4803V4847H4732ZM3695 4639.01H3624V4723.36L3707.11 4708.97L3695 4639.01ZM3988.1 4064L4051.63 4032.31L4032.03 3993H3988.1V4064ZM3695 4064V3993H3624V4064H3695ZM4200 4242.5C4200 4490.1 4042.56 4700.11 3822.54 4780.29L3871.16 4913.71C4144.96 4813.93 4342 4552.17 4342 4242.5H4200ZM4177.65 4083.71C4192.18 4133.99 4200 4187.24 4200 4242.5H4342C4342 4173.77 4332.27 4107.26 4314.07 4044.29L4177.65 4083.71ZM4245.86 4135H4732V3993H4245.86V4135ZM4661 4064V4847H4803V4064H4661ZM4732 4776H3846.85V4918H4732V4776ZM3707.11 4708.97C3930.56 4670.28 4101 4476.51 4101 4242.5H3959C3959 4405.63 3840.06 4541.83 3682.89 4569.05L3707.11 4708.97ZM4101 4242.5C4101 4167.14 4083.25 4095.72 4051.63 4032.31L3924.56 4095.69C3946.59 4139.87 3959 4189.65 3959 4242.5H4101ZM3695 4135H3988.1V3993H3695V4135ZM3766 4639.01V4064H3624V4639.01H3766Z" fill="black" mask="url(#path-18-outside-6_1_185913)"/>
<mask id="path-20-outside-7_1_185913" maskUnits="userSpaceOnUse" x="7951" y="3928" width="1179" height="925" fill="black">
<rect fill="white" x="7951" y="3928" width="1179" height="925"/>
<path fill-rule="evenodd" clip-rule="evenodd" d="M8173.85 4782C8420.76 4692.02 8598 4456.14 8598 4177.5C8598 4115.5 8589.23 4055.63 8572.86 3999H9059V4782H8173.85ZM8022 4574.01C8212.31 4541.06 8357 4376.07 8357 4177.5C8357 4113.4 8341.92 4052.79 8315.1 3999H8022V4574.01Z"/>
</mask>
<path fill-rule="evenodd" clip-rule="evenodd" d="M8173.85 4782C8420.76 4692.02 8598 4456.14 8598 4177.5C8598 4115.5 8589.23 4055.63 8572.86 3999H9059V4782H8173.85ZM8022 4574.01C8212.31 4541.06 8357 4376.07 8357 4177.5C8357 4113.4 8341.92 4052.79 8315.1 3999H8022V4574.01Z" fill="#FCFF51"/>
<path d="M8173.85 4782L8149.54 4715.29L8173.85 4853V4782ZM8572.86 3999V3928H8478.44L8504.65 4018.71L8572.86 3999ZM9059 3999H9130V3928H9059V3999ZM9059 4782V4853H9130V4782H9059ZM8022 4574.01H7951V4658.36L8034.11 4643.97L8022 4574.01ZM8315.1 3999L8378.63 3967.31L8359.03 3928H8315.1V3999ZM8022 3999V3928H7951V3999H8022ZM8527 4177.5C8527 4425.1 8369.56 4635.11 8149.54 4715.29L8198.16 4848.71C8471.96 4748.93 8669 4487.17 8669 4177.5H8527ZM8504.65 4018.71C8519.18 4068.99 8527 4122.24 8527 4177.5H8669C8669 4108.77 8659.27 4042.26 8641.07 3979.29L8504.65 4018.71ZM8572.86 4070H9059V3928H8572.86V4070ZM8988 3999V4782H9130V3999H8988ZM9059 4711H8173.85V4853H9059V4711ZM8034.11 4643.97C8257.56 4605.28 8428 4411.51 8428 4177.5H8286C8286 4340.63 8167.06 4476.83 8009.89 4504.05L8034.11 4643.97ZM8428 4177.5C8428 4102.14 8410.25 4030.72 8378.63 3967.31L8251.56 4030.69C8273.59 4074.87 8286 4124.65 8286 4177.5H8428ZM8022 4070H8315.1V3928H8022V4070ZM8093 4574.01V3999H7951V4574.01H8093Z" fill="black" mask="url(#path-20-outside-7_1_185913)"/>
<path fill-rule="evenodd" clip-rule="evenodd" d="M2422.54 4780.29L2446.85 4918H3403V3993H2751.44L2777.65 4083.71C2792.18 4133.99 2800 4187.24 2800 4242.5C2800 4490.1 2642.56 4700.11 2422.54 4780.29ZM2224 3993V4723.36L2307.11 4708.97C2530.56 4670.28 2701 4476.51 2701 4242.5C2701 4167.14 2683.25 4095.72 2651.63 4032.31L2632.03 3993H2224Z" fill="#FF0000" fill-opacity="0.2"/>
<path fill-rule="evenodd" clip-rule="evenodd" d="M9594.54 4715.29L9618.85 4853H10575V3928H9923.44L9949.65 4018.71C9964.18 4068.99 9972 4122.24 9972 4177.5C9972 4425.1 9814.56 4635.11 9594.54 4715.29ZM9396 3928V4658.36L9479.11 4643.97C9702.56 4605.28 9873 4411.51 9873 4177.5C9873 4102.14 9855.25 4030.72 9823.63 3967.31L9804.03 3928H9396Z" fill="#FF0000" fill-opacity="0.2"/>
<path fill-rule="evenodd" clip-rule="evenodd" d="M3822.54 4780.29L3846.85 4918H4803V3993H4151.44L4177.65 4083.71C4192.18 4133.99 4200 4187.24 4200 4242.5C4200 4490.1 4042.56 4700.11 3822.54 4780.29ZM3624 3993V4723.36L3707.11 4708.97C3930.56 4670.28 4101 4476.51 4101 4242.5C4101 4167.14 4083.25 4095.72 4051.63 4032.31L4032.03 3993H3624Z" fill="#FF0000" fill-opacity="0.2"/>
<path d="M129.52 853.818C129.52 867.951 126.935 880.101 121.764 890.27C116.594 900.395 109.506 908.194 100.501 913.666C91.5386 919.095 81.3485 921.81 69.9304 921.81C58.4692 921.81 48.236 919.095 39.2308 913.666C30.2687 908.194 23.2024 900.374 18.032 890.205C12.8615 880.037 10.2763 867.908 10.2763 853.818C10.2763 839.686 12.8615 827.557 18.032 817.431C23.2024 807.263 30.2687 799.464 39.2308 794.035C48.236 788.563 58.4692 785.827 69.9304 785.827C81.3485 785.827 91.5386 788.563 100.501 794.035C109.506 799.464 116.594 807.263 121.764 817.431C126.935 827.557 129.52 839.686 129.52 853.818ZM109.743 853.818C109.743 843.046 107.998 833.977 104.508 826.609C101.061 819.198 96.3213 813.596 90.2891 809.805C84.3 805.97 77.5137 804.053 69.9304 804.053C62.304 804.053 55.4962 805.97 49.5071 809.805C43.518 813.596 38.7784 819.198 35.2884 826.609C31.8414 833.977 30.1179 843.046 30.1179 853.818C30.1179 864.59 31.8414 873.681 35.2884 881.092C38.7784 888.46 43.518 894.062 49.5071 897.896C55.4962 901.688 62.304 903.584 69.9304 903.584C77.5137 903.584 84.3 901.688 90.2891 897.896C96.3213 894.062 101.061 888.46 104.508 881.092C107.998 873.681 109.743 864.59 109.743 853.818ZM153.778 920V820.727H172.456V836.497H173.49C175.3 831.154 178.488 826.953 183.055 823.894C187.666 820.792 192.879 819.241 198.696 819.241C199.902 819.241 201.324 819.284 202.962 819.37C204.642 819.456 205.956 819.564 206.904 819.693V838.178C206.129 837.962 204.75 837.725 202.768 837.467C200.786 837.165 198.804 837.014 196.822 837.014C192.255 837.014 188.183 837.984 184.607 839.923C181.073 841.818 178.273 844.468 176.205 847.872C174.136 851.233 173.102 855.068 173.102 859.376V920H153.778ZM224.537 920V820.727H243.862V920H224.537ZM234.297 805.41C230.936 805.41 228.049 804.29 225.636 802.049C223.266 799.765 222.081 797.051 222.081 793.906C222.081 790.717 223.266 788.003 225.636 785.762C228.049 783.478 230.936 782.337 234.297 782.337C237.657 782.337 240.523 783.478 242.892 785.762C245.305 788.003 246.512 790.717 246.512 793.906C246.512 797.051 245.305 799.765 242.892 802.049C240.523 804.29 237.657 805.41 234.297 805.41ZM312.392 959.295C304.507 959.295 297.721 958.261 292.033 956.193C286.389 954.125 281.778 951.389 278.202 947.985C274.626 944.581 271.955 940.854 270.188 936.804L286.798 929.953C287.961 931.849 289.513 933.853 291.451 935.964C293.433 938.118 296.105 939.949 299.466 941.457C302.87 942.965 307.243 943.719 312.586 943.719C319.91 943.719 325.964 941.931 330.747 938.355C335.53 934.822 337.921 929.178 337.921 921.422V901.903H336.693C335.53 904.015 333.849 906.363 331.652 908.948C329.497 911.533 326.524 913.774 322.733 915.67C318.941 917.566 314.008 918.513 307.932 918.513C300.09 918.513 293.024 916.682 286.733 913.02C280.486 909.314 275.531 903.864 271.868 896.668C268.249 889.43 266.439 880.532 266.439 869.976C266.439 859.42 268.227 850.371 271.804 842.831C275.423 835.291 280.378 829.517 286.669 825.51C292.959 821.46 300.09 819.435 308.062 819.435C314.223 819.435 319.2 820.469 322.991 822.537C326.783 824.562 329.734 826.932 331.846 829.646C334 832.361 335.659 834.752 336.822 836.82H338.244V820.727H357.181V922.197C357.181 930.729 355.199 937.73 351.235 943.202C347.271 948.674 341.906 952.725 335.142 955.353C328.42 957.981 320.837 959.295 312.392 959.295ZM312.198 902.485C317.756 902.485 322.453 901.192 326.287 898.607C330.165 895.979 333.095 892.23 335.077 887.362C337.102 882.45 338.115 876.568 338.115 869.717C338.115 863.039 337.124 857.157 335.142 852.073C333.16 846.989 330.251 843.025 326.417 840.181C322.582 837.294 317.842 835.851 312.198 835.851C306.381 835.851 301.534 837.359 297.656 840.375C293.778 843.348 290.848 847.398 288.866 852.526C286.927 857.653 285.958 863.384 285.958 869.717C285.958 876.223 286.949 881.933 288.931 886.844C290.913 891.756 293.843 895.591 297.721 898.349C301.642 901.106 306.467 902.485 312.198 902.485ZM384.008 920V820.727H403.332V920H384.008ZM393.767 805.41C390.406 805.41 387.519 804.29 385.106 802.049C382.737 799.765 381.552 797.051 381.552 793.906C381.552 790.717 382.737 788.003 385.106 785.762C387.519 783.478 390.406 782.337 393.767 782.337C397.128 782.337 399.993 783.478 402.363 785.762C404.776 788.003 405.982 790.717 405.982 793.906C405.982 797.051 404.776 799.765 402.363 802.049C399.993 804.29 397.128 805.41 393.767 805.41ZM449.565 861.057V920H430.24V820.727H448.789V836.885H450.017C452.301 831.628 455.877 827.406 460.746 824.217C465.658 821.029 471.841 819.435 479.295 819.435C486.059 819.435 491.984 820.857 497.068 823.7C502.152 826.501 506.095 830.68 508.896 836.239C511.696 841.797 513.097 848.669 513.097 856.856V920H493.772V859.183C493.772 851.987 491.898 846.364 488.149 842.314C484.4 838.221 479.252 836.174 472.702 836.174C468.221 836.174 464.236 837.143 460.746 839.082C457.299 841.021 454.563 843.865 452.538 847.614C450.556 851.319 449.565 855.8 449.565 861.057ZM568.813 922.197C562.523 922.197 556.835 921.034 551.751 918.707C546.667 916.338 542.638 912.912 539.665 908.431C536.735 903.95 535.27 898.456 535.27 891.95C535.27 886.349 536.347 881.739 538.502 878.119C540.656 874.5 543.564 871.635 547.227 869.523C550.889 867.412 554.982 865.818 559.507 864.741C564.031 863.664 568.641 862.845 573.338 862.285C579.284 861.595 584.109 861.035 587.815 860.604C591.52 860.13 594.213 859.376 595.894 858.342C597.574 857.308 598.414 855.628 598.414 853.301V852.849C598.414 847.204 596.82 842.831 593.632 839.729C590.486 836.626 585.79 835.075 579.542 835.075C573.036 835.075 567.909 836.519 564.16 839.406C560.454 842.249 557.891 845.416 556.469 848.906L538.308 844.77C540.462 838.738 543.607 833.869 547.744 830.163C551.923 826.415 556.727 823.7 562.156 822.02C567.585 820.296 573.294 819.435 579.284 819.435C583.248 819.435 587.449 819.909 591.887 820.857C596.368 821.761 600.547 823.442 604.425 825.898C608.346 828.354 611.556 831.865 614.055 836.433C616.554 840.957 617.803 846.838 617.803 854.077V920H598.931V906.428H598.156C596.906 908.927 595.032 911.383 592.533 913.795C590.034 916.208 586.824 918.212 582.903 919.806C578.982 921.4 574.285 922.197 568.813 922.197ZM573.014 906.686C578.357 906.686 582.924 905.63 586.716 903.519C590.551 901.408 593.459 898.65 595.441 895.246C597.466 891.799 598.479 888.116 598.479 884.195V871.398C597.789 872.087 596.454 872.733 594.472 873.337C592.533 873.897 590.314 874.392 587.815 874.823C585.316 875.211 582.881 875.577 580.512 875.922C578.142 876.223 576.16 876.482 574.565 876.697C570.817 877.171 567.391 877.969 564.289 879.089C561.23 880.209 558.774 881.825 556.921 883.936C555.112 886.004 554.207 888.762 554.207 892.209C554.207 896.991 555.973 900.611 559.507 903.067C563.04 905.48 567.542 906.686 573.014 906.686ZM663.777 787.636V920H644.453V787.636H663.777Z" fill="black"/>
<path d="M25.723 2652H4.52415L52.157 2519.64H75.2301L122.863 2652H101.664L64.2429 2543.68H63.2088L25.723 2652ZM29.2777 2600.17H98.0447V2616.97H29.2777V2600.17ZM141.336 2689.23V2552.73H160.208V2568.82H161.824C162.945 2566.75 164.56 2564.36 166.672 2561.65C168.783 2558.93 171.713 2556.56 175.461 2554.54C179.21 2552.47 184.165 2551.43 190.326 2551.43C198.341 2551.43 205.493 2553.46 211.784 2557.51C218.074 2561.56 223.008 2567.4 226.584 2575.02C230.204 2582.65 232.013 2591.83 232.013 2602.56C232.013 2613.29 230.225 2622.49 226.649 2630.15C223.073 2637.78 218.161 2643.66 211.913 2647.8C205.665 2651.89 198.534 2653.94 190.52 2653.94C184.488 2653.94 179.555 2652.93 175.72 2650.9C171.928 2648.88 168.955 2646.51 166.801 2643.79C164.646 2641.08 162.988 2638.66 161.824 2636.55H160.661V2689.23H141.336ZM160.273 2602.36C160.273 2609.34 161.286 2615.46 163.311 2620.72C165.336 2625.98 168.266 2630.09 172.101 2633.06C175.935 2635.99 180.632 2637.46 186.19 2637.46C191.964 2637.46 196.789 2635.93 200.667 2632.87C204.545 2629.77 207.475 2625.57 209.457 2620.27C211.482 2614.97 212.495 2609 212.495 2602.36C212.495 2595.81 211.504 2589.93 209.522 2584.72C207.583 2579.51 204.653 2575.39 200.732 2572.38C196.854 2569.36 192.007 2567.85 186.19 2567.85C180.589 2567.85 175.849 2569.29 171.971 2572.18C168.137 2575.07 165.228 2579.1 163.246 2584.27C161.264 2589.44 160.273 2595.47 160.273 2602.36ZM254.574 2689.23V2552.73H273.447V2568.82H275.062C276.183 2566.75 277.798 2564.36 279.91 2561.65C282.021 2558.93 284.951 2556.56 288.699 2554.54C292.448 2552.47 297.403 2551.43 303.565 2551.43C311.579 2551.43 318.731 2553.46 325.022 2557.51C331.313 2561.56 336.246 2567.4 339.822 2575.02C343.442 2582.65 345.251 2591.83 345.251 2602.56C345.251 2613.29 343.463 2622.49 339.887 2630.15C336.311 2637.78 331.399 2643.66 325.151 2647.8C318.904 2651.89 311.773 2653.94 303.758 2653.94C297.726 2653.94 292.793 2652.93 288.958 2650.9C285.166 2648.88 282.193 2646.51 280.039 2643.79C277.885 2641.08 276.226 2638.66 275.062 2636.55H273.899V2689.23H254.574ZM273.511 2602.36C273.511 2609.34 274.524 2615.46 276.549 2620.72C278.574 2625.98 281.504 2630.09 285.339 2633.06C289.173 2635.99 293.87 2637.46 299.428 2637.46C305.202 2637.46 310.028 2635.93 313.905 2632.87C317.783 2629.77 320.713 2625.57 322.695 2620.27C324.72 2614.97 325.733 2609 325.733 2602.36C325.733 2595.81 324.742 2589.93 322.76 2584.72C320.821 2579.51 317.891 2575.39 313.97 2572.38C310.092 2569.36 305.245 2567.85 299.428 2567.85C293.827 2567.85 289.087 2569.29 285.209 2572.18C281.375 2575.07 278.466 2579.1 276.484 2584.27C274.502 2589.44 273.511 2595.47 273.511 2602.36ZM387.137 2519.64V2652H367.813V2519.64H387.137ZM426.26 2689.23C423.373 2689.23 420.745 2688.99 418.375 2688.52C416.005 2688.09 414.239 2687.61 413.075 2687.09L417.729 2671.26C421.262 2672.21 424.407 2672.62 427.165 2672.49C429.922 2672.36 432.357 2671.32 434.468 2669.39C436.622 2667.45 438.518 2664.28 440.156 2659.88L442.547 2653.29L406.225 2552.73H426.906L452.048 2629.77H453.082L478.223 2552.73H498.97L458.058 2665.25C456.163 2670.42 453.75 2674.79 450.82 2678.37C447.89 2681.99 444.4 2684.7 440.35 2686.51C436.299 2688.32 431.603 2689.23 426.26 2689.23ZM640.86 2554.41C640.171 2548.29 637.327 2543.55 632.329 2540.19C627.331 2536.79 621.04 2535.08 613.457 2535.08C608.028 2535.08 603.332 2535.94 599.368 2537.67C595.404 2539.35 592.323 2541.68 590.125 2544.65C587.971 2547.58 586.894 2550.92 586.894 2554.67C586.894 2557.81 587.626 2560.53 589.091 2562.81C590.599 2565.09 592.56 2567.01 594.973 2568.56C597.429 2570.07 600.057 2571.34 602.858 2572.38C605.658 2573.37 608.351 2574.18 610.936 2574.83L623.863 2578.19C628.085 2579.23 632.415 2580.63 636.853 2582.39C641.291 2584.16 645.406 2586.49 649.198 2589.37C652.989 2592.26 656.049 2595.84 658.375 2600.1C660.745 2604.37 661.93 2609.47 661.93 2615.42C661.93 2622.92 659.991 2629.57 656.113 2635.39C652.279 2641.21 646.699 2645.8 639.374 2649.16C632.092 2652.52 623.281 2654.2 612.94 2654.2C603.03 2654.2 594.456 2652.62 587.217 2649.48C579.978 2646.33 574.312 2641.87 570.219 2636.1C566.126 2630.28 563.864 2623.39 563.433 2615.42H583.468C583.856 2620.2 585.407 2624.19 588.122 2627.38C590.879 2630.52 594.391 2632.87 598.657 2634.42C602.965 2635.93 607.683 2636.68 612.811 2636.68C618.455 2636.68 623.475 2635.8 627.87 2634.03C632.308 2632.22 635.798 2629.72 638.34 2626.54C640.882 2623.3 642.153 2619.53 642.153 2615.23C642.153 2611.3 641.033 2608.09 638.792 2605.6C636.595 2603.1 633.6 2601.03 629.809 2599.39C626.06 2597.75 621.816 2596.31 617.076 2595.06L601.436 2590.79C590.836 2587.91 582.434 2583.66 576.23 2578.06C570.068 2572.46 566.988 2565.05 566.988 2555.83C566.988 2548.2 569.056 2541.55 573.192 2535.86C577.328 2530.17 582.93 2525.75 589.996 2522.61C597.062 2519.42 605.033 2517.83 613.909 2517.83C622.872 2517.83 630.778 2519.4 637.629 2522.54C644.523 2525.69 649.952 2530.02 653.916 2535.54C657.88 2541.01 659.948 2547.3 660.12 2554.41H640.86ZM748.039 2610.83V2552.73H767.429V2652H748.427V2634.81H747.393C745.109 2640.11 741.447 2644.52 736.406 2648.06C731.408 2651.55 725.182 2653.29 717.728 2653.29C711.351 2653.29 705.706 2651.89 700.794 2649.09C695.926 2646.25 692.091 2642.05 689.29 2636.49C686.533 2630.93 685.154 2624.06 685.154 2615.87V2552.73H704.478V2613.54C704.478 2620.31 706.353 2625.7 710.101 2629.7C713.85 2633.71 718.719 2635.71 724.708 2635.71C728.327 2635.71 731.925 2634.81 735.501 2633C739.12 2631.19 742.115 2628.45 744.485 2624.79C746.898 2621.13 748.082 2616.47 748.039 2610.83ZM795.855 2652V2519.64H815.18V2568.82H816.343C817.463 2566.75 819.079 2564.36 821.19 2561.65C823.302 2558.93 826.232 2556.56 829.98 2554.54C833.729 2552.47 838.684 2551.43 844.845 2551.43C852.859 2551.43 860.012 2553.46 866.303 2557.51C872.593 2561.56 877.527 2567.4 881.103 2575.02C884.722 2582.65 886.532 2591.83 886.532 2602.56C886.532 2613.29 884.744 2622.49 881.168 2630.15C877.591 2637.78 872.679 2643.66 866.432 2647.8C860.184 2651.89 853.053 2653.94 845.039 2653.94C839.007 2653.94 834.073 2652.93 830.239 2650.9C826.447 2648.88 823.474 2646.51 821.32 2643.79C819.165 2641.08 817.506 2638.66 816.343 2636.55H814.727V2652H795.855ZM814.792 2602.36C814.792 2609.34 815.804 2615.46 817.83 2620.72C819.855 2625.98 822.785 2630.09 826.619 2633.06C830.454 2635.99 835.151 2637.46 840.709 2637.46C846.483 2637.46 851.308 2635.93 855.186 2632.87C859.064 2629.77 861.994 2625.57 863.976 2620.27C866.001 2614.97 867.014 2609 867.014 2602.36C867.014 2595.81 866.023 2589.93 864.041 2584.72C862.102 2579.51 859.172 2575.39 855.251 2572.38C851.373 2569.36 846.526 2567.85 840.709 2567.85C835.108 2567.85 830.368 2569.29 826.49 2572.18C822.655 2575.07 819.747 2579.1 817.765 2584.27C815.783 2589.44 814.792 2595.47 814.792 2602.36ZM955.482 2552.73V2568.24H901.257V2552.73H955.482ZM915.799 2528.94H935.123V2622.85C935.123 2626.6 935.683 2629.42 936.804 2631.32C937.924 2633.17 939.367 2634.44 941.134 2635.13C942.944 2635.78 944.904 2636.1 947.015 2636.1C948.566 2636.1 949.924 2635.99 951.087 2635.78C952.25 2635.56 953.155 2635.39 953.802 2635.26L957.292 2651.22C956.171 2651.66 954.577 2652.09 952.509 2652.52C950.441 2652.99 947.855 2653.25 944.753 2653.29C939.669 2653.38 934.929 2652.47 930.534 2650.58C926.14 2648.68 922.585 2645.75 919.87 2641.79C917.156 2637.82 915.799 2632.85 915.799 2626.86V2528.94ZM977.768 2652V2552.73H996.447V2568.5H997.481C999.29 2563.15 1002.48 2558.95 1007.05 2555.89C1011.66 2552.79 1016.87 2551.24 1022.69 2551.24C1023.89 2551.24 1025.32 2551.28 1026.95 2551.37C1028.63 2551.46 1029.95 2551.56 1030.89 2551.69V2570.18C1030.12 2569.96 1028.74 2569.73 1026.76 2569.47C1024.78 2569.17 1022.79 2569.01 1020.81 2569.01C1016.25 2569.01 1012.17 2569.98 1008.6 2571.92C1005.06 2573.82 1002.26 2576.47 1000.2 2579.87C998.127 2583.23 997.093 2587.07 997.093 2591.38V2652H977.768ZM1076.53 2654.2C1070.24 2654.2 1064.55 2653.03 1059.47 2650.71C1054.38 2648.34 1050.35 2644.91 1047.38 2640.43C1044.45 2635.95 1042.99 2630.46 1042.99 2623.95C1042.99 2618.35 1044.06 2613.74 1046.22 2610.12C1048.37 2606.5 1051.28 2603.63 1054.94 2601.52C1058.61 2599.41 1062.7 2597.82 1067.22 2596.74C1071.75 2595.66 1076.36 2594.84 1081.05 2594.28C1087 2593.6 1091.83 2593.04 1095.53 2592.6C1099.24 2592.13 1101.93 2591.38 1103.61 2590.34C1105.29 2589.31 1106.13 2587.63 1106.13 2585.3V2584.85C1106.13 2579.2 1104.54 2574.83 1101.35 2571.73C1098.2 2568.63 1093.51 2567.08 1087.26 2567.08C1080.75 2567.08 1075.62 2568.52 1071.88 2571.41C1068.17 2574.25 1065.61 2577.42 1064.18 2580.91L1046.02 2576.77C1048.18 2570.74 1051.32 2565.87 1055.46 2562.16C1059.64 2558.41 1064.44 2555.7 1069.87 2554.02C1075.3 2552.3 1081.01 2551.43 1087 2551.43C1090.96 2551.43 1095.16 2551.91 1099.6 2552.86C1104.08 2553.76 1108.26 2555.44 1112.14 2557.9C1116.06 2560.35 1119.27 2563.87 1121.77 2568.43C1124.27 2572.96 1125.52 2578.84 1125.52 2586.08V2652H1106.65V2638.43H1105.87C1104.62 2640.93 1102.75 2643.38 1100.25 2645.8C1097.75 2648.21 1094.54 2650.21 1090.62 2651.81C1086.7 2653.4 1082 2654.2 1076.53 2654.2ZM1080.73 2638.69C1086.07 2638.69 1090.64 2637.63 1094.43 2635.52C1098.27 2633.41 1101.18 2630.65 1103.16 2627.25C1105.18 2623.8 1106.19 2620.12 1106.19 2616.19V2603.4C1105.51 2604.09 1104.17 2604.73 1102.19 2605.34C1100.25 2605.9 1098.03 2606.39 1095.53 2606.82C1093.03 2607.21 1090.6 2607.58 1088.23 2607.92C1085.86 2608.22 1083.88 2608.48 1082.28 2608.7C1078.53 2609.17 1075.11 2609.97 1072.01 2611.09C1068.95 2612.21 1066.49 2613.82 1064.64 2615.94C1062.83 2618 1061.92 2620.76 1061.92 2624.21C1061.92 2628.99 1063.69 2632.61 1067.22 2635.07C1070.76 2637.48 1075.26 2638.69 1080.73 2638.69ZM1193.98 2654C1184.38 2654 1176.1 2651.83 1169.17 2647.48C1162.27 2643.08 1156.97 2637.03 1153.27 2629.31C1149.56 2621.6 1147.71 2612.77 1147.71 2602.82C1147.71 2592.73 1149.6 2583.84 1153.4 2576.12C1157.19 2568.37 1162.53 2562.31 1169.43 2557.96C1176.32 2553.61 1184.44 2551.43 1193.79 2551.43C1201.33 2551.43 1208.05 2552.83 1213.96 2555.64C1219.86 2558.39 1224.62 2562.27 1228.24 2567.27C1231.9 2572.27 1234.08 2578.11 1234.77 2584.78H1215.96C1214.93 2580.13 1212.56 2576.12 1208.85 2572.76C1205.19 2569.4 1200.28 2567.72 1194.11 2567.72C1188.73 2567.72 1184.01 2569.14 1179.96 2571.99C1175.95 2574.79 1172.83 2578.79 1170.59 2584.01C1168.35 2589.18 1167.23 2595.3 1167.23 2602.36C1167.23 2609.6 1168.33 2615.85 1170.52 2621.11C1172.72 2626.36 1175.82 2630.43 1179.83 2633.32C1183.88 2636.21 1188.64 2637.65 1194.11 2637.65C1197.78 2637.65 1201.09 2636.98 1204.07 2635.65C1207.08 2634.27 1209.6 2632.31 1211.63 2629.77C1213.7 2627.22 1215.14 2624.17 1215.96 2620.59H1234.77C1234.08 2627.01 1231.99 2632.74 1228.5 2637.78C1225.01 2642.82 1220.33 2646.79 1214.47 2649.67C1208.66 2652.56 1201.83 2654 1193.98 2654ZM1302.68 2552.73V2568.24H1248.46V2552.73H1302.68ZM1263 2528.94H1282.32V2622.85C1282.32 2626.6 1282.88 2629.42 1284 2631.32C1285.12 2633.17 1286.57 2634.44 1288.33 2635.13C1290.14 2635.78 1292.1 2636.1 1294.22 2636.1C1295.77 2636.1 1297.12 2635.99 1298.29 2635.78C1299.45 2635.56 1300.36 2635.39 1301 2635.26L1304.49 2651.22C1303.37 2651.66 1301.78 2652.09 1299.71 2652.52C1297.64 2652.99 1295.06 2653.25 1291.95 2653.29C1286.87 2653.38 1282.13 2652.47 1277.73 2650.58C1273.34 2648.68 1269.79 2645.75 1267.07 2641.79C1264.36 2637.82 1263 2632.85 1263 2626.86V2528.94ZM1350.11 2633.9L1349.14 2640.95C1348.49 2646.12 1347.4 2651.5 1345.84 2657.11C1344.34 2662.75 1342.76 2667.99 1341.13 2672.81C1339.53 2677.64 1338.22 2681.47 1337.18 2684.32H1323.48C1324.04 2681.64 1324.82 2678.02 1325.81 2673.46C1326.8 2668.93 1327.77 2663.87 1328.72 2658.27C1329.67 2652.67 1330.38 2646.96 1330.85 2641.14L1331.5 2633.9H1350.11ZM1454.14 2654.2C1447.85 2654.2 1442.17 2653.03 1437.08 2650.71C1432 2648.34 1427.97 2644.91 1425 2640.43C1422.07 2635.95 1420.6 2630.46 1420.6 2623.95C1420.6 2618.35 1421.68 2613.74 1423.83 2610.12C1425.99 2606.5 1428.89 2603.63 1432.56 2601.52C1436.22 2599.41 1440.31 2597.82 1444.84 2596.74C1449.36 2595.66 1453.97 2594.84 1458.67 2594.28C1464.61 2593.6 1469.44 2593.04 1473.15 2592.6C1476.85 2592.13 1479.54 2591.38 1481.22 2590.34C1482.9 2589.31 1483.74 2587.63 1483.74 2585.3V2584.85C1483.74 2579.2 1482.15 2574.83 1478.96 2571.73C1475.82 2568.63 1471.12 2567.08 1464.87 2567.08C1458.37 2567.08 1453.24 2568.52 1449.49 2571.41C1445.78 2574.25 1443.22 2577.42 1441.8 2580.91L1423.64 2576.77C1425.79 2570.74 1428.94 2565.87 1433.07 2562.16C1437.25 2558.41 1442.06 2555.7 1447.49 2554.02C1452.92 2552.3 1458.62 2551.43 1464.61 2551.43C1468.58 2551.43 1472.78 2551.91 1477.22 2552.86C1481.7 2553.76 1485.88 2555.44 1489.76 2557.9C1493.68 2560.35 1496.89 2563.87 1499.39 2568.43C1501.88 2572.96 1503.13 2578.84 1503.13 2586.08V2652H1484.26V2638.43H1483.49C1482.24 2640.93 1480.36 2643.38 1477.86 2645.8C1475.36 2648.21 1472.15 2650.21 1468.23 2651.81C1464.31 2653.4 1459.62 2654.2 1454.14 2654.2ZM1458.34 2638.69C1463.69 2638.69 1468.25 2637.63 1472.05 2635.52C1475.88 2633.41 1478.79 2630.65 1480.77 2627.25C1482.8 2623.8 1483.81 2620.12 1483.81 2616.19V2603.4C1483.12 2604.09 1481.78 2604.73 1479.8 2605.34C1477.86 2605.9 1475.64 2606.39 1473.15 2606.82C1470.65 2607.21 1468.21 2607.58 1465.84 2607.92C1463.47 2608.22 1461.49 2608.48 1459.9 2608.7C1456.15 2609.17 1452.72 2609.97 1449.62 2611.09C1446.56 2612.21 1444.1 2613.82 1442.25 2615.94C1440.44 2618 1439.54 2620.76 1439.54 2624.21C1439.54 2628.99 1441.3 2632.61 1444.84 2635.07C1448.37 2637.48 1452.87 2638.69 1458.34 2638.69ZM1549.11 2593.06V2652H1529.78V2552.73H1548.33V2568.88H1549.56C1551.84 2563.63 1555.42 2559.41 1560.29 2556.22C1565.2 2553.03 1571.38 2551.43 1578.84 2551.43C1585.6 2551.43 1591.53 2552.86 1596.61 2555.7C1601.7 2558.5 1605.64 2562.68 1608.44 2568.24C1611.24 2573.8 1612.64 2580.67 1612.64 2588.86V2652H1593.31V2591.18C1593.31 2583.99 1591.44 2578.36 1587.69 2574.31C1583.94 2570.22 1578.79 2568.17 1572.25 2568.17C1567.76 2568.17 1563.78 2569.14 1560.29 2571.08C1556.84 2573.02 1554.11 2575.87 1552.08 2579.61C1550.1 2583.32 1549.11 2587.8 1549.11 2593.06ZM1676.63 2653.94C1668.61 2653.94 1661.46 2651.89 1655.17 2647.8C1648.92 2643.66 1644.01 2637.78 1640.44 2630.15C1636.9 2622.49 1635.14 2613.29 1635.14 2602.56C1635.14 2591.83 1636.92 2582.65 1640.5 2575.02C1644.12 2567.4 1649.07 2561.56 1655.37 2557.51C1661.66 2553.46 1668.79 2551.43 1676.76 2551.43C1682.92 2551.43 1687.87 2552.47 1691.62 2554.54C1695.42 2556.56 1698.35 2558.93 1700.41 2561.65C1702.52 2564.36 1704.16 2566.75 1705.33 2568.82H1706.49V2519.64H1725.81V2652H1706.94V2636.55H1705.33C1704.16 2638.66 1702.48 2641.08 1700.28 2643.79C1698.13 2646.51 1695.16 2648.88 1691.36 2650.9C1687.57 2652.93 1682.66 2653.94 1676.63 2653.94ZM1680.89 2637.46C1686.45 2637.46 1691.15 2635.99 1694.98 2633.06C1698.86 2630.09 1701.79 2625.98 1703.77 2620.72C1705.8 2615.46 1706.81 2609.34 1706.81 2602.36C1706.81 2595.47 1705.82 2589.44 1703.84 2584.27C1701.86 2579.1 1698.95 2575.07 1695.11 2572.18C1691.28 2569.29 1686.54 2567.85 1680.89 2567.85C1675.08 2567.85 1670.23 2569.36 1666.35 2572.38C1662.47 2575.39 1659.55 2579.51 1657.56 2584.72C1655.62 2589.93 1654.65 2595.81 1654.65 2602.36C1654.65 2609 1655.65 2614.97 1657.63 2620.27C1659.61 2625.57 1662.54 2629.77 1666.42 2632.87C1670.34 2635.93 1675.16 2637.46 1680.89 2637.46ZM41.8807 2874.2C35.59 2874.2 29.9025 2873.03 24.8182 2870.71C19.7339 2868.34 15.7053 2864.91 12.7322 2860.43C9.80232 2855.95 8.33736 2850.46 8.33736 2843.95C8.33736 2838.35 9.41454 2833.74 11.5689 2830.12C13.7232 2826.5 16.6316 2823.63 20.294 2821.52C23.9564 2819.41 28.0497 2817.82 32.5739 2816.74C37.098 2815.66 41.7083 2814.84 46.4048 2814.28C52.3509 2813.6 57.1766 2813.04 60.8821 2812.6C64.5876 2812.13 67.2805 2811.38 68.9609 2810.34C70.6413 2809.31 71.4815 2807.63 71.4815 2805.3V2804.85C71.4815 2799.2 69.8873 2794.83 66.6989 2791.73C63.5535 2788.63 58.857 2787.08 52.6094 2787.08C46.1032 2787.08 40.9759 2788.52 37.2273 2791.41C33.5218 2794.25 30.9581 2797.42 29.5362 2800.91L11.375 2796.77C13.5294 2790.74 16.6747 2785.87 20.8111 2782.16C24.9905 2778.41 29.7947 2775.7 35.2237 2774.02C40.6527 2772.3 46.3617 2771.43 52.3509 2771.43C56.3149 2771.43 60.5159 2771.91 64.9538 2772.86C69.4349 2773.76 73.6143 2775.44 77.4922 2777.9C81.4131 2780.35 84.6231 2783.87 87.1222 2788.43C89.6212 2792.96 90.8707 2798.84 90.8707 2806.08V2872H71.9986V2858.43H71.223C69.9735 2860.93 68.0992 2863.38 65.6001 2865.8C63.1011 2868.21 59.8911 2870.21 55.9702 2871.81C52.0492 2873.4 47.3527 2874.2 41.8807 2874.2ZM46.0817 2858.69C51.4245 2858.69 55.9917 2857.63 59.7834 2855.52C63.6181 2853.41 66.5265 2850.65 68.5085 2847.25C70.5336 2843.8 71.5462 2840.12 71.5462 2836.19V2823.4C70.8568 2824.09 69.5211 2824.73 67.5391 2825.34C65.6001 2825.9 63.3812 2826.39 60.8821 2826.82C58.3831 2827.21 55.9486 2827.58 53.5788 2827.92C51.209 2828.22 49.227 2828.48 47.6328 2828.7C43.8842 2829.17 40.4588 2829.97 37.3565 2831.09C34.2974 2832.21 31.8414 2833.82 29.9886 2835.94C28.179 2838 27.2741 2840.76 27.2741 2844.21C27.2741 2848.99 29.0407 2852.61 32.5739 2855.07C36.107 2857.48 40.6096 2858.69 46.0817 2858.69ZM117.52 2909.23V2772.73H136.392V2788.82H138.008C139.128 2786.75 140.744 2784.36 142.855 2781.65C144.966 2778.93 147.896 2776.56 151.645 2774.54C155.393 2772.47 160.349 2771.43 166.51 2771.43C174.524 2771.43 181.677 2773.46 187.967 2777.51C194.258 2781.56 199.192 2787.4 202.768 2795.02C206.387 2802.65 208.197 2811.83 208.197 2822.56C208.197 2833.29 206.409 2842.49 202.832 2850.15C199.256 2857.78 194.344 2863.66 188.097 2867.8C181.849 2871.89 174.718 2873.94 166.704 2873.94C160.672 2873.94 155.738 2872.93 151.903 2870.9C148.112 2868.88 145.139 2866.51 142.984 2863.79C140.83 2861.08 139.171 2858.66 138.008 2856.55H136.844V2909.23H117.52ZM136.457 2822.36C136.457 2829.34 137.469 2835.46 139.494 2840.72C141.519 2845.98 144.449 2850.09 148.284 2853.06C152.119 2855.99 156.815 2857.46 162.374 2857.46C168.147 2857.46 172.973 2855.93 176.851 2852.87C180.729 2849.77 183.659 2845.57 185.641 2840.27C187.666 2834.97 188.678 2829 188.678 2822.36C188.678 2815.81 187.687 2809.93 185.705 2804.72C183.766 2799.51 180.836 2795.39 176.916 2792.38C173.038 2789.36 168.19 2787.85 162.374 2787.85C156.772 2787.85 152.033 2789.29 148.155 2792.18C144.32 2795.07 141.412 2799.1 139.43 2804.27C137.448 2809.44 136.457 2815.47 136.457 2822.36ZM230.758 2909.23V2772.73H249.63V2788.82H251.246C252.366 2786.75 253.982 2784.36 256.093 2781.65C258.205 2778.93 261.134 2776.56 264.883 2774.54C268.632 2772.47 273.587 2771.43 279.748 2771.43C287.762 2771.43 294.915 2773.46 301.205 2777.51C307.496 2781.56 312.43 2787.4 316.006 2795.02C319.625 2802.65 321.435 2811.83 321.435 2822.56C321.435 2833.29 319.647 2842.49 316.071 2850.15C312.494 2857.78 307.582 2863.66 301.335 2867.8C295.087 2871.89 287.956 2873.94 279.942 2873.94C273.91 2873.94 268.976 2872.93 265.142 2870.9C261.35 2868.88 258.377 2866.51 256.223 2863.79C254.068 2861.08 252.409 2858.66 251.246 2856.55H250.083V2909.23H230.758ZM249.695 2822.36C249.695 2829.34 250.707 2835.46 252.732 2840.72C254.758 2845.98 257.687 2850.09 261.522 2853.06C265.357 2855.99 270.053 2857.46 275.612 2857.46C281.385 2857.46 286.211 2855.93 290.089 2852.87C293.967 2849.77 296.897 2845.57 298.879 2840.27C300.904 2834.97 301.916 2829 301.916 2822.36C301.916 2815.81 300.925 2809.93 298.943 2804.72C297.004 2799.51 294.075 2795.39 290.154 2792.38C286.276 2789.36 281.428 2787.85 275.612 2787.85C270.01 2787.85 265.271 2789.29 261.393 2792.18C257.558 2795.07 254.65 2799.1 252.668 2804.27C250.686 2809.44 249.695 2815.47 249.695 2822.36ZM363.321 2739.64V2872H343.996V2739.64H363.321ZM402.444 2909.23C399.557 2909.23 396.928 2908.99 394.559 2908.52C392.189 2908.09 390.422 2907.61 389.259 2907.09L393.912 2891.26C397.446 2892.21 400.591 2892.62 403.348 2892.49C406.106 2892.36 408.54 2891.32 410.652 2889.39C412.806 2887.45 414.702 2884.28 416.339 2879.88L418.731 2873.29L382.408 2772.73H403.09L428.231 2849.77H429.265L454.407 2772.73H475.153L434.242 2885.25C432.346 2890.42 429.933 2894.79 427.003 2898.37C424.073 2901.99 420.583 2904.7 416.533 2906.51C412.483 2908.32 407.786 2909.23 402.444 2909.23ZM590.545 2772.73V2788.24H534.446V2772.73H590.545ZM549.828 2872V2761.22C549.828 2755.02 551.185 2749.87 553.9 2745.78C556.614 2741.64 560.212 2738.56 564.693 2736.53C569.174 2734.47 574.043 2733.43 579.3 2733.43C583.178 2733.43 586.495 2733.75 589.253 2734.4C592.01 2735 594.057 2735.56 595.393 2736.08L590.869 2751.72C589.964 2751.46 588.8 2751.16 587.379 2750.82C585.957 2750.43 584.233 2750.24 582.208 2750.24C577.512 2750.24 574.151 2751.4 572.126 2753.73C570.144 2756.05 569.153 2759.41 569.153 2763.81V2872H549.828ZM611.394 2872V2772.73H630.719V2872H611.394ZM621.153 2757.41C617.792 2757.41 614.906 2756.29 612.493 2754.05C610.123 2751.77 608.938 2749.05 608.938 2745.91C608.938 2742.72 610.123 2740 612.493 2737.76C614.906 2735.48 617.792 2734.34 621.153 2734.34C624.514 2734.34 627.379 2735.48 629.749 2737.76C632.162 2740 633.368 2742.72 633.368 2745.91C633.368 2749.05 632.162 2751.77 629.749 2754.05C627.379 2756.29 624.514 2757.41 621.153 2757.41ZM676.951 2739.64V2872H657.626V2739.64H676.951ZM723.183 2739.64V2872H703.859V2739.64H723.183ZM800.503 2733.43L757.846 2891.91H740.59L783.246 2733.43H800.503ZM819.38 2872V2739.64H838.705V2788.82H839.868C840.988 2786.75 842.604 2784.36 844.715 2781.65C846.827 2778.93 849.756 2776.56 853.505 2774.54C857.254 2772.47 862.209 2771.43 868.37 2771.43C876.384 2771.43 883.537 2773.46 889.827 2777.51C896.118 2781.56 901.052 2787.4 904.628 2795.02C908.247 2802.65 910.057 2811.83 910.057 2822.56C910.057 2833.29 908.269 2842.49 904.693 2850.15C901.116 2857.78 896.204 2863.66 889.957 2867.8C883.709 2871.89 876.578 2873.94 868.564 2873.94C862.532 2873.94 857.598 2872.93 853.764 2870.9C849.972 2868.88 846.999 2866.51 844.845 2863.79C842.69 2861.08 841.031 2858.66 839.868 2856.55H838.252V2872H819.38ZM838.317 2822.36C838.317 2829.34 839.329 2835.46 841.354 2840.72C843.38 2845.98 846.309 2850.09 850.144 2853.06C853.979 2855.99 858.675 2857.46 864.234 2857.46C870.007 2857.46 874.833 2855.93 878.711 2852.87C882.589 2849.77 885.519 2845.57 887.501 2840.27C889.526 2834.97 890.538 2829 890.538 2822.36C890.538 2815.81 889.547 2809.93 887.565 2804.72C885.626 2799.51 882.697 2795.39 878.776 2792.38C874.898 2789.36 870.05 2787.85 864.234 2787.85C858.632 2787.85 853.893 2789.29 850.015 2792.18C846.18 2795.07 843.272 2799.1 841.29 2804.27C839.308 2809.44 838.317 2815.47 838.317 2822.36ZM974.483 2874C965.176 2874 957.054 2871.87 950.117 2867.61C943.18 2863.34 937.794 2857.37 933.959 2849.7C930.124 2842.03 928.207 2833.07 928.207 2822.82C928.207 2812.52 930.124 2803.51 933.959 2795.8C937.794 2788.09 943.18 2782.1 950.117 2777.83C957.054 2773.57 965.176 2771.43 974.483 2771.43C983.789 2771.43 991.911 2773.57 998.848 2777.83C1005.79 2782.1 1011.17 2788.09 1015.01 2795.8C1018.84 2803.51 1020.76 2812.52 1020.76 2822.82C1020.76 2833.07 1018.84 2842.03 1015.01 2849.7C1011.17 2857.37 1005.79 2863.34 998.848 2867.61C991.911 2871.87 983.789 2874 974.483 2874ZM974.547 2857.78C980.579 2857.78 985.578 2856.19 989.542 2853C993.506 2849.81 996.436 2845.57 998.331 2840.27C1000.27 2834.97 1001.24 2829.13 1001.24 2822.75C1001.24 2816.42 1000.27 2810.6 998.331 2805.3C996.436 2799.96 993.506 2795.67 989.542 2792.44C985.578 2789.21 980.579 2787.59 974.547 2787.59C968.472 2787.59 963.431 2789.21 959.424 2792.44C955.46 2795.67 952.508 2799.96 950.569 2805.3C948.673 2810.6 947.726 2816.42 947.726 2822.75C947.726 2829.13 948.673 2834.97 950.569 2840.27C952.508 2845.57 955.46 2849.81 959.424 2853C963.431 2856.19 968.472 2857.78 974.547 2857.78ZM1043.24 2872V2772.73H1061.92V2788.5H1062.95C1064.76 2783.15 1067.95 2778.95 1072.52 2775.89C1077.13 2772.79 1082.34 2771.24 1088.16 2771.24C1089.36 2771.24 1090.79 2771.28 1092.42 2771.37C1094.1 2771.46 1095.42 2771.56 1096.37 2771.69V2790.18C1095.59 2789.96 1094.21 2789.73 1092.23 2789.47C1090.25 2789.17 1088.26 2789.01 1086.28 2789.01C1081.72 2789.01 1077.64 2789.98 1074.07 2791.92C1070.53 2793.82 1067.73 2796.47 1065.67 2799.87C1063.6 2803.23 1062.56 2807.07 1062.56 2811.38V2872H1043.24ZM1147.61 2873.94C1139.59 2873.94 1132.44 2871.89 1126.15 2867.8C1119.9 2863.66 1114.99 2857.78 1111.41 2850.15C1107.88 2842.49 1106.11 2833.29 1106.11 2822.56C1106.11 2811.83 1107.9 2802.65 1111.48 2795.02C1115.1 2787.4 1120.05 2781.56 1126.34 2777.51C1132.63 2773.46 1139.76 2771.43 1147.74 2771.43C1153.9 2771.43 1158.85 2772.47 1162.6 2774.54C1166.39 2776.56 1169.32 2778.93 1171.39 2781.65C1173.5 2784.36 1175.14 2786.75 1176.3 2788.82H1177.47V2739.64H1196.79V2872H1177.92V2856.55H1176.3C1175.14 2858.66 1173.46 2861.08 1171.26 2863.79C1169.11 2866.51 1166.13 2868.88 1162.34 2870.9C1158.55 2872.93 1153.64 2873.94 1147.61 2873.94ZM1151.87 2857.46C1157.43 2857.46 1162.13 2855.99 1165.96 2853.06C1169.84 2850.09 1172.77 2845.98 1174.75 2840.72C1176.78 2835.46 1177.79 2829.34 1177.79 2822.36C1177.79 2815.47 1176.8 2809.44 1174.82 2804.27C1172.83 2799.1 1169.93 2795.07 1166.09 2792.18C1162.26 2789.29 1157.52 2787.85 1151.87 2787.85C1146.06 2787.85 1141.21 2789.36 1137.33 2792.38C1133.45 2795.39 1130.52 2799.51 1128.54 2804.72C1126.6 2809.93 1125.63 2815.81 1125.63 2822.36C1125.63 2829 1126.62 2834.97 1128.6 2840.27C1130.59 2845.57 1133.52 2849.77 1137.39 2852.87C1141.32 2855.93 1146.14 2857.46 1151.87 2857.46ZM1268.07 2874C1258.29 2874 1249.86 2871.91 1242.8 2867.73C1235.77 2863.51 1230.34 2857.59 1226.51 2849.96C1222.72 2842.29 1220.82 2833.31 1220.82 2823.01C1220.82 2812.84 1222.72 2803.88 1226.51 2796.12C1230.34 2788.37 1235.69 2782.31 1242.54 2777.96C1249.43 2773.61 1257.49 2771.43 1266.71 2771.43C1272.31 2771.43 1277.74 2772.36 1283 2774.21C1288.25 2776.07 1292.97 2778.97 1297.15 2782.94C1301.33 2786.9 1304.63 2792.05 1307.04 2798.39C1309.45 2804.68 1310.66 2812.32 1310.66 2821.33V2828.18H1231.74V2813.7H1291.72C1291.72 2808.62 1290.69 2804.12 1288.62 2800.2C1286.55 2796.23 1283.64 2793.11 1279.89 2790.82C1276.19 2788.54 1271.84 2787.4 1266.84 2787.4C1261.41 2787.4 1256.67 2788.73 1252.62 2791.41C1248.61 2794.03 1245.51 2797.48 1243.31 2801.75C1241.16 2805.97 1240.08 2810.56 1240.08 2815.51V2826.82C1240.08 2833.46 1241.25 2839.1 1243.57 2843.76C1245.94 2848.41 1249.24 2851.96 1253.46 2854.42C1257.68 2856.83 1262.62 2858.04 1268.26 2858.04C1271.92 2858.04 1275.26 2857.52 1278.28 2856.49C1281.29 2855.41 1283.9 2853.82 1286.1 2851.71C1288.3 2849.59 1289.98 2846.99 1291.14 2843.89L1309.43 2847.18C1307.97 2852.57 1305.34 2857.29 1301.55 2861.34C1297.8 2865.34 1293.08 2868.47 1287.39 2870.71C1281.75 2872.9 1275.31 2874 1268.07 2874ZM1333.01 2872V2772.73H1351.69V2788.5H1352.72C1354.53 2783.15 1357.72 2778.95 1362.29 2775.89C1366.9 2772.79 1372.11 2771.24 1377.93 2771.24C1379.13 2771.24 1380.56 2771.28 1382.19 2771.37C1383.87 2771.46 1385.19 2771.56 1386.14 2771.69V2790.18C1385.36 2789.96 1383.98 2789.73 1382 2789.47C1380.02 2789.17 1378.04 2789.01 1376.05 2789.01C1371.49 2789.01 1367.41 2789.98 1363.84 2791.92C1360.31 2793.82 1357.5 2796.47 1355.44 2799.87C1353.37 2803.23 1352.33 2807.07 1352.33 2811.38V2872H1333.01Z" fill="black"/>
<path d="M86.7344 4249.41C86.045 4243.29 83.2012 4238.55 78.2031 4235.19C73.205 4231.79 66.9143 4230.08 59.331 4230.08C53.902 4230.08 49.2055 4230.94 45.2415 4232.67C41.2775 4234.35 38.1967 4236.68 35.9993 4239.65C33.8449 4242.58 32.7678 4245.92 32.7678 4249.67C32.7678 4252.81 33.5002 4255.53 34.9652 4257.81C36.4733 4260.09 38.4337 4262.01 40.8466 4263.56C43.3026 4265.07 45.9309 4266.34 48.7315 4267.38C51.5322 4268.37 54.2251 4269.18 56.8104 4269.83L69.7365 4273.19C73.959 4274.23 78.2893 4275.63 82.7273 4277.39C87.1653 4279.16 91.2801 4281.49 95.0717 4284.37C98.8634 4287.26 101.923 4290.84 104.249 4295.1C106.619 4299.37 107.804 4304.47 107.804 4310.42C107.804 4317.92 105.865 4324.57 101.987 4330.39C98.1525 4336.21 92.5727 4340.8 85.2479 4344.16C77.9661 4347.52 69.1548 4349.2 58.8139 4349.2C48.9039 4349.2 40.3295 4347.62 33.0909 4344.48C25.8523 4341.33 20.1863 4336.87 16.093 4331.1C11.9998 4325.28 9.73769 4318.39 9.30682 4310.42H29.3423C29.7301 4315.2 31.2813 4319.19 33.9957 4322.38C36.7533 4325.52 40.2649 4327.87 44.5305 4329.42C48.8393 4330.93 53.5573 4331.68 58.6847 4331.68C64.3291 4331.68 69.3487 4330.8 73.7436 4329.03C78.1816 4327.22 81.6716 4324.72 84.2138 4321.54C86.7559 4318.3 88.027 4314.53 88.027 4310.23C88.027 4306.3 86.9067 4303.09 84.6662 4300.6C82.4688 4298.1 79.4742 4296.03 75.6825 4294.39C71.934 4292.75 67.6899 4291.31 62.9503 4290.06L47.3097 4285.79C36.7102 4282.91 28.3082 4278.66 22.1037 4273.06C15.9422 4267.46 12.8615 4260.05 12.8615 4250.83C12.8615 4243.2 14.9297 4236.55 19.0661 4230.86C23.2024 4225.17 28.8037 4220.75 35.87 4217.61C42.9363 4214.42 50.9074 4212.83 59.7834 4212.83C68.7455 4212.83 76.652 4214.4 83.5028 4217.54C90.3968 4220.69 95.8258 4225.02 99.7898 4230.54C103.754 4236.01 105.822 4242.3 105.994 4249.41H86.7344ZM173.813 4349C164.032 4349 155.609 4346.91 148.543 4342.73C141.519 4338.51 136.09 4332.59 132.256 4324.96C128.464 4317.29 126.568 4308.31 126.568 4298.01C126.568 4287.84 128.464 4278.88 132.256 4271.12C136.09 4263.37 141.433 4257.31 148.284 4252.96C155.178 4248.61 163.235 4246.43 172.456 4246.43C178.057 4246.43 183.486 4247.36 188.743 4249.21C194 4251.07 198.718 4253.97 202.897 4257.94C207.076 4261.9 210.373 4267.05 212.786 4273.39C215.198 4279.68 216.405 4287.32 216.405 4296.33V4303.18H137.491V4288.7H197.468C197.468 4283.62 196.434 4279.12 194.366 4275.2C192.298 4271.23 189.389 4268.11 185.641 4265.82C181.935 4263.54 177.583 4262.4 172.585 4262.4C167.156 4262.4 162.417 4263.73 158.367 4266.41C154.359 4269.03 151.257 4272.48 149.06 4276.75C146.905 4280.97 145.828 4285.56 145.828 4290.51V4301.82C145.828 4308.46 146.992 4314.1 149.318 4318.76C151.688 4323.41 154.984 4326.96 159.207 4329.42C163.429 4331.83 168.363 4333.04 174.007 4333.04C177.67 4333.04 181.009 4332.52 184.025 4331.49C187.041 4330.41 189.648 4328.82 191.845 4326.71C194.043 4324.59 195.723 4321.99 196.886 4318.89L215.177 4322.18C213.712 4327.57 211.084 4332.29 207.292 4336.34C203.543 4340.34 198.825 4343.47 193.138 4345.71C187.493 4347.9 181.052 4349 173.813 4349ZM258.081 4214.64V4347H238.756V4214.64H258.081ZM327.774 4349C317.993 4349 309.57 4346.91 302.503 4342.73C295.48 4338.51 290.051 4332.59 286.216 4324.96C282.425 4317.29 280.529 4308.31 280.529 4298.01C280.529 4287.84 282.425 4278.88 286.216 4271.12C290.051 4263.37 295.394 4257.31 302.245 4252.96C309.139 4248.61 317.196 4246.43 326.417 4246.43C332.018 4246.43 337.447 4247.36 342.704 4249.21C347.96 4251.07 352.678 4253.97 356.858 4257.94C361.037 4261.9 364.333 4267.05 366.746 4273.39C369.159 4279.68 370.365 4287.32 370.365 4296.33V4303.18H291.451V4288.7H351.429C351.429 4283.62 350.395 4279.12 348.326 4275.2C346.258 4271.23 343.35 4268.11 339.601 4265.82C335.896 4263.54 331.544 4262.4 326.546 4262.4C321.117 4262.4 316.377 4263.73 312.327 4266.41C308.32 4269.03 305.218 4272.48 303.02 4276.75C300.866 4280.97 299.789 4285.56 299.789 4290.51V4301.82C299.789 4308.46 300.952 4314.1 303.279 4318.76C305.649 4323.41 308.945 4326.96 313.167 4329.42C317.39 4331.83 322.323 4333.04 327.968 4333.04C331.63 4333.04 334.969 4332.52 337.986 4331.49C341.002 4330.41 343.608 4328.82 345.806 4326.71C348.003 4324.59 349.684 4321.99 350.847 4318.89L369.138 4322.18C367.673 4327.57 365.044 4332.29 361.253 4336.34C357.504 4340.34 352.786 4343.47 347.098 4345.71C341.454 4347.9 335.013 4349 327.774 4349ZM434.533 4349C424.924 4349 416.652 4346.83 409.715 4342.48C402.821 4338.08 397.521 4332.03 393.815 4324.31C390.11 4316.6 388.257 4307.77 388.257 4297.82C388.257 4287.73 390.153 4278.84 393.945 4271.12C397.736 4263.37 403.079 4257.31 409.973 4252.96C416.867 4248.61 424.989 4246.43 434.339 4246.43C441.879 4246.43 448.601 4247.83 454.504 4250.64C460.407 4253.39 465.168 4257.27 468.787 4262.27C472.449 4267.27 474.625 4273.11 475.315 4279.78H456.507C455.473 4275.13 453.103 4271.12 449.398 4267.76C445.735 4264.4 440.823 4262.72 434.662 4262.72C429.276 4262.72 424.558 4264.14 420.508 4266.99C416.501 4269.79 413.377 4273.79 411.136 4279.01C408.896 4284.18 407.776 4290.3 407.776 4297.36C407.776 4304.6 408.874 4310.85 411.072 4316.11C413.269 4321.36 416.372 4325.43 420.379 4328.32C424.429 4331.21 429.19 4332.65 434.662 4332.65C438.324 4332.65 441.642 4331.98 444.615 4330.65C447.631 4329.27 450.152 4327.31 452.177 4324.77C454.245 4322.22 455.689 4319.17 456.507 4315.59H475.315C474.625 4322.01 472.536 4327.74 469.046 4332.78C465.555 4337.82 460.881 4341.79 455.021 4344.67C449.204 4347.56 442.375 4349 434.533 4349ZM543.231 4247.73V4263.24H489.005V4247.73H543.231ZM503.547 4223.94H522.872V4317.85C522.872 4321.6 523.432 4324.42 524.552 4326.32C525.673 4328.17 527.116 4329.44 528.883 4330.13C530.692 4330.78 532.653 4331.1 534.764 4331.1C536.315 4331.1 537.672 4330.99 538.836 4330.78C539.999 4330.56 540.904 4330.39 541.55 4330.26L545.04 4346.22C543.92 4346.66 542.326 4347.09 540.258 4347.52C538.189 4347.99 535.604 4348.25 532.502 4348.29C527.418 4348.38 522.678 4347.47 518.283 4345.58C513.888 4343.68 510.334 4340.75 507.619 4336.79C504.905 4332.82 503.547 4327.85 503.547 4321.86V4223.94ZM609.617 4231.83V4214.64H712.056V4231.83H670.757V4347H650.851V4231.83H609.617ZM723.743 4347V4247.73H742.422V4263.5H743.456C745.265 4258.15 748.454 4253.95 753.021 4250.89C757.631 4247.79 762.845 4246.24 768.662 4246.24C769.868 4246.24 771.29 4246.28 772.927 4246.37C774.608 4246.46 775.922 4246.56 776.87 4246.69V4265.18C776.094 4264.96 774.716 4264.73 772.734 4264.47C770.752 4264.17 768.769 4264.01 766.787 4264.01C762.22 4264.01 758.149 4264.98 754.572 4266.92C751.039 4268.82 748.238 4271.47 746.17 4274.87C744.102 4278.23 743.068 4282.07 743.068 4286.38V4347H723.743ZM794.503 4347V4247.73H813.828V4347H794.503ZM804.262 4232.41C800.901 4232.41 798.015 4231.29 795.602 4229.05C793.232 4226.77 792.047 4224.05 792.047 4220.91C792.047 4217.72 793.232 4215 795.602 4212.76C798.015 4210.48 800.901 4209.34 804.262 4209.34C807.623 4209.34 810.488 4210.48 812.858 4212.76C815.271 4215 816.477 4217.72 816.477 4220.91C816.477 4224.05 815.271 4226.77 812.858 4229.05C810.488 4231.29 807.623 4232.41 804.262 4232.41ZM882.357 4386.3C874.472 4386.3 867.686 4385.26 861.999 4383.19C856.354 4381.13 851.744 4378.39 848.168 4374.99C844.592 4371.58 841.92 4367.85 840.154 4363.8L856.764 4356.95C857.927 4358.85 859.478 4360.85 861.417 4362.96C863.399 4365.12 866.071 4366.95 869.431 4368.46C872.835 4369.97 877.209 4370.72 882.551 4370.72C889.876 4370.72 895.93 4368.93 900.713 4365.36C905.495 4361.82 907.887 4356.18 907.887 4348.42V4328.9H906.659C905.495 4331.01 903.815 4333.36 901.617 4335.95C899.463 4338.53 896.49 4340.77 892.698 4342.67C888.907 4344.57 883.973 4345.51 877.898 4345.51C870.056 4345.51 862.99 4343.68 856.699 4340.02C850.451 4336.31 845.496 4330.86 841.834 4323.67C838.215 4316.43 836.405 4307.53 836.405 4296.98C836.405 4286.42 838.193 4277.37 841.769 4269.83C845.389 4262.29 850.344 4256.52 856.634 4252.51C862.925 4248.46 870.056 4246.43 878.027 4246.43C884.189 4246.43 889.165 4247.47 892.957 4249.54C896.749 4251.56 899.7 4253.93 901.811 4256.65C903.966 4259.36 905.624 4261.75 906.788 4263.82H908.21V4247.73H927.147V4349.2C927.147 4357.73 925.164 4364.73 921.2 4370.2C917.236 4375.67 911.872 4379.72 905.107 4382.35C898.386 4384.98 890.803 4386.3 882.357 4386.3ZM882.164 4329.49C887.722 4329.49 892.418 4328.19 896.253 4325.61C900.131 4322.98 903.061 4319.23 905.043 4314.36C907.068 4309.45 908.08 4303.57 908.08 4296.72C908.08 4290.04 907.089 4284.16 905.107 4279.07C903.125 4273.99 900.217 4270.02 896.382 4267.18C892.548 4264.29 887.808 4262.85 882.164 4262.85C876.347 4262.85 871.499 4264.36 867.622 4267.38C863.744 4270.35 860.814 4274.4 858.832 4279.53C856.893 4284.65 855.923 4290.38 855.923 4296.72C855.923 4303.22 856.914 4308.93 858.896 4313.84C860.879 4318.76 863.808 4322.59 867.686 4325.35C871.607 4328.11 876.433 4329.49 882.164 4329.49ZM995.596 4386.3C987.711 4386.3 980.924 4385.26 975.237 4383.19C969.593 4381.13 964.982 4378.39 961.406 4374.99C957.83 4371.58 955.158 4367.85 953.392 4363.8L970.002 4356.95C971.165 4358.85 972.716 4360.85 974.655 4362.96C976.637 4365.12 979.309 4366.95 982.669 4368.46C986.073 4369.97 990.447 4370.72 995.789 4370.72C1003.11 4370.72 1009.17 4368.93 1013.95 4365.36C1018.73 4361.82 1021.12 4356.18 1021.12 4348.42V4328.9H1019.9C1018.73 4331.01 1017.05 4333.36 1014.86 4335.95C1012.7 4338.53 1009.73 4340.77 1005.94 4342.67C1002.14 4344.57 997.211 4345.51 991.136 4345.51C983.294 4345.51 976.228 4343.68 969.937 4340.02C963.69 4336.31 958.735 4330.86 955.072 4323.67C951.453 4316.43 949.643 4307.53 949.643 4296.98C949.643 4286.42 951.431 4277.37 955.008 4269.83C958.627 4262.29 963.582 4256.52 969.873 4252.51C976.163 4248.46 983.294 4246.43 991.265 4246.43C997.427 4246.43 1002.4 4247.47 1006.2 4249.54C1009.99 4251.56 1012.94 4253.93 1015.05 4256.65C1017.2 4259.36 1018.86 4261.75 1020.03 4263.82H1021.45V4247.73H1040.38V4349.2C1040.38 4357.73 1038.4 4364.73 1034.44 4370.2C1030.47 4375.67 1025.11 4379.72 1018.35 4382.35C1011.62 4384.98 1004.04 4386.3 995.596 4386.3ZM995.402 4329.49C1000.96 4329.49 1005.66 4328.19 1009.49 4325.61C1013.37 4322.98 1016.3 4319.23 1018.28 4314.36C1020.31 4309.45 1021.32 4303.57 1021.32 4296.72C1021.32 4290.04 1020.33 4284.16 1018.35 4279.07C1016.36 4273.99 1013.46 4270.02 1009.62 4267.18C1005.79 4264.29 1001.05 4262.85 995.402 4262.85C989.585 4262.85 984.738 4264.36 980.86 4267.38C976.982 4270.35 974.052 4274.4 972.07 4279.53C970.131 4284.65 969.162 4290.38 969.162 4296.72C969.162 4303.22 970.153 4308.93 972.135 4313.84C974.117 4318.76 977.047 4322.59 980.924 4325.35C984.845 4328.11 989.671 4329.49 995.402 4329.49ZM1110 4349C1100.22 4349 1091.79 4346.91 1084.73 4342.73C1077.7 4338.51 1072.27 4332.59 1068.44 4324.96C1064.65 4317.29 1062.75 4308.31 1062.75 4298.01C1062.75 4287.84 1064.65 4278.88 1068.44 4271.12C1072.27 4263.37 1077.62 4257.31 1084.47 4252.96C1091.36 4248.61 1099.42 4246.43 1108.64 4246.43C1114.24 4246.43 1119.67 4247.36 1124.93 4249.21C1130.18 4251.07 1134.9 4253.97 1139.08 4257.94C1143.26 4261.9 1146.56 4267.05 1148.97 4273.39C1151.38 4279.68 1152.59 4287.32 1152.59 4296.33V4303.18H1073.67V4288.7H1133.65C1133.65 4283.62 1132.62 4279.12 1130.55 4275.2C1128.48 4271.23 1125.57 4268.11 1121.82 4265.82C1118.12 4263.54 1113.77 4262.4 1108.77 4262.4C1103.34 4262.4 1098.6 4263.73 1094.55 4266.41C1090.54 4269.03 1087.44 4272.48 1085.24 4276.75C1083.09 4280.97 1082.01 4285.56 1082.01 4290.51V4301.82C1082.01 4308.46 1083.18 4314.1 1085.5 4318.76C1087.87 4323.41 1091.17 4326.96 1095.39 4329.42C1099.61 4331.83 1104.55 4333.04 1110.19 4333.04C1113.85 4333.04 1117.19 4332.52 1120.21 4331.49C1123.22 4330.41 1125.83 4328.82 1128.03 4326.71C1130.23 4324.59 1131.91 4321.99 1133.07 4318.89L1151.36 4322.18C1149.9 4327.57 1147.27 4332.29 1143.48 4336.34C1139.73 4340.34 1135.01 4343.47 1129.32 4345.71C1123.68 4347.9 1117.24 4349 1110 4349ZM1174.94 4347V4247.73H1193.62V4263.5H1194.65C1196.46 4258.15 1199.65 4253.95 1204.22 4250.89C1208.83 4247.79 1214.04 4246.24 1219.86 4246.24C1221.06 4246.24 1222.49 4246.28 1224.12 4246.37C1225.8 4246.46 1227.12 4246.56 1228.07 4246.69V4265.18C1227.29 4264.96 1225.91 4264.73 1223.93 4264.47C1221.95 4264.17 1219.97 4264.01 1217.98 4264.01C1213.42 4264.01 1209.34 4264.98 1205.77 4266.92C1202.24 4268.82 1199.43 4271.47 1197.37 4274.87C1195.3 4278.23 1194.26 4282.07 1194.26 4286.38V4347H1174.94ZM1307.51 4347H1286.31L1333.94 4214.64H1357.01L1404.65 4347H1383.45L1346.03 4238.68H1344.99L1307.51 4347ZM1311.06 4295.17H1379.83V4311.97H1311.06V4295.17ZM1423.12 4347V4247.73H1441.8V4263.5H1442.83C1444.64 4258.15 1447.83 4253.95 1452.4 4250.89C1457.01 4247.79 1462.22 4246.24 1468.04 4246.24C1469.25 4246.24 1470.67 4246.28 1472.31 4246.37C1473.99 4246.46 1475.3 4246.56 1476.25 4246.69V4265.18C1475.47 4264.96 1474.09 4264.73 1472.11 4264.47C1470.13 4264.17 1468.15 4264.01 1466.17 4264.01C1461.6 4264.01 1457.53 4264.98 1453.95 4266.92C1450.42 4268.82 1447.62 4271.47 1445.55 4274.87C1443.48 4278.23 1442.45 4282.07 1442.45 4286.38V4347H1423.12ZM1533.11 4349C1523.33 4349 1514.91 4346.91 1507.84 4342.73C1500.82 4338.51 1495.39 4332.59 1491.55 4324.96C1487.76 4317.29 1485.87 4308.31 1485.87 4298.01C1485.87 4287.84 1487.76 4278.88 1491.55 4271.12C1495.39 4263.37 1500.73 4257.31 1507.58 4252.96C1514.48 4248.61 1522.53 4246.43 1531.75 4246.43C1537.36 4246.43 1542.78 4247.36 1548.04 4249.21C1553.3 4251.07 1558.02 4253.97 1562.2 4257.94C1566.37 4261.9 1569.67 4267.05 1572.08 4273.39C1574.5 4279.68 1575.7 4287.32 1575.7 4296.33V4303.18H1496.79V4288.7H1556.77C1556.77 4283.62 1555.73 4279.12 1553.66 4275.2C1551.6 4271.23 1548.69 4268.11 1544.94 4265.82C1541.23 4263.54 1536.88 4262.4 1531.88 4262.4C1526.45 4262.4 1521.71 4263.73 1517.66 4266.41C1513.66 4269.03 1510.56 4272.48 1508.36 4276.75C1506.2 4280.97 1505.13 4285.56 1505.13 4290.51V4301.82C1505.13 4308.46 1506.29 4314.1 1508.62 4318.76C1510.99 4323.41 1514.28 4326.96 1518.5 4329.42C1522.73 4331.83 1527.66 4333.04 1533.31 4333.04C1536.97 4333.04 1540.31 4332.52 1543.32 4331.49C1546.34 4330.41 1548.95 4328.82 1551.14 4326.71C1553.34 4324.59 1555.02 4321.99 1556.18 4318.89L1574.48 4322.18C1573.01 4327.57 1570.38 4332.29 1566.59 4336.34C1562.84 4340.34 1558.12 4343.47 1552.44 4345.71C1546.79 4347.9 1540.35 4349 1533.11 4349ZM1626.94 4349.2C1620.65 4349.2 1614.97 4348.03 1609.88 4345.71C1604.8 4343.34 1600.77 4339.91 1597.8 4335.43C1594.87 4330.95 1593.4 4325.46 1593.4 4318.95C1593.4 4313.35 1594.48 4308.74 1596.63 4305.12C1598.79 4301.5 1601.7 4298.63 1605.36 4296.52C1609.02 4294.41 1613.11 4292.82 1617.64 4291.74C1622.16 4290.66 1626.77 4289.84 1631.47 4289.28C1637.41 4288.6 1642.24 4288.04 1645.95 4287.6C1649.65 4287.13 1652.34 4286.38 1654.02 4285.34C1655.7 4284.31 1656.55 4282.63 1656.55 4280.3V4279.85C1656.55 4274.2 1654.95 4269.83 1651.76 4266.73C1648.62 4263.63 1643.92 4262.08 1637.67 4262.08C1631.17 4262.08 1626.04 4263.52 1622.29 4266.41C1618.59 4269.25 1616.02 4272.42 1614.6 4275.91L1596.44 4271.77C1598.59 4265.74 1601.74 4260.87 1605.87 4257.16C1610.05 4253.41 1614.86 4250.7 1620.29 4249.02C1625.72 4247.3 1631.43 4246.43 1637.41 4246.43C1641.38 4246.43 1645.58 4246.91 1650.02 4247.86C1654.5 4248.76 1658.68 4250.44 1662.56 4252.9C1666.48 4255.35 1669.69 4258.87 1672.19 4263.43C1674.68 4267.96 1675.93 4273.84 1675.93 4281.08V4347H1657.06V4333.43H1656.29C1655.04 4335.93 1653.16 4338.38 1650.66 4340.8C1648.16 4343.21 1644.95 4345.21 1641.03 4346.81C1637.11 4348.4 1632.42 4349.2 1626.94 4349.2ZM1631.15 4333.69C1636.49 4333.69 1641.06 4332.63 1644.85 4330.52C1648.68 4328.41 1651.59 4325.65 1653.57 4322.25C1655.6 4318.8 1656.61 4315.12 1656.61 4311.19V4298.4C1655.92 4299.09 1654.58 4299.73 1652.6 4300.34C1650.66 4300.9 1648.44 4301.39 1645.95 4301.82C1643.45 4302.21 1641.01 4302.58 1638.64 4302.92C1636.27 4303.22 1634.29 4303.48 1632.7 4303.7C1628.95 4304.17 1625.52 4304.97 1622.42 4306.09C1619.36 4307.21 1616.9 4308.82 1615.05 4310.94C1613.24 4313 1612.34 4315.76 1612.34 4319.21C1612.34 4323.99 1614.1 4327.61 1617.64 4330.07C1621.17 4332.48 1625.67 4333.69 1631.15 4333.69Z" fill="black"/>
<defs>
<filter id="filter0_d_1_185913" x="8618" y="35" width="1125" height="871" filterUnits="userSpaceOnUse" color-interpolation-filters="sRGB">
<feFlood flood-opacity="0" result="BackgroundImageFix"/>
<feColorMatrix in="SourceAlpha" type="matrix" values="0 0 0 0 0 0 0 0 0 0 0 0 0 0 0 0 0 0 127 0" result="hardAlpha"/>
<feOffset dx="8" dy="8"/>
<feGaussianBlur stdDeviation="22"/>
<feColorMatrix type="matrix" values="0 0 0 0 0 0 0 0 0 0 0 0 0 0 0 0 0 0 0.25 0"/>
<feBlend mode="normal" in2="BackgroundImageFix" result="effect1_dropShadow_1_185913"/>
<feBlend mode="normal" in="SourceGraphic" in2="effect1_dropShadow_1_185913" result="shape"/>
</filter>
</defs>
</svg>
