<svg width="3648" height="12507" viewBox="0 0 3648 12507" fill="none" xmlns="http://www.w3.org/2000/svg">
<path d="M885 1055.17C661.325 1055.17 480 1235.38 480 1457.67C480 1679.97 661.325 1860.17 885 1860.17C1108.68 1860.17 1290 1679.97 1290 1457.67C1290 1235.38 1108.68 1055.17 885 1055.17ZM885 1055.17C661.325 1055.17 480 865.472 480 632.672M885 1055.17C1108.6 1055.17 1290 864.172 1290 632.672" stroke="#80DFF3" stroke-width="177"/>
<path d="M3082 1055.17C2858.32 1055.17 2677 1235.38 2677 1457.67C2677 1679.97 2858.32 1860.17 3082 1860.17C3305.68 1860.17 3487 1679.97 3487 1457.67C3487 1235.38 3305.68 1055.17 3082 1055.17ZM3082 1055.17C2858.32 1055.17 2677 865.472 2677 632.672M3082 1055.17C3305.6 1055.17 3487 864.172 3487 632.672" stroke="#80DFF3" stroke-width="177"/>
<g filter="url(#filter0_d_1_185923)">
<rect x="50" y="1456.17" width="706" height="777" fill="#FF6161"/>
<rect x="50" y="1456.17" width="706" height="777" stroke="#404040" stroke-width="100"/>
</g>
<g filter="url(#filter1_d_1_185923)">
<path fill-rule="evenodd" clip-rule="evenodd" d="M756 9231.96C546.284 9175.58 391.5 8985.06 391.5 8757.92C391.5 8757.42 391.501 8756.92 391.502 8756.42H568.504C568.501 8756.92 568.5 8757.42 568.5 8757.92C568.5 8885.46 645.323 8995.7 756 9044.76V9231.96Z" fill="#FF6161"/>
<path d="M756 9231.96L743.019 9280.25L806 9297.18V9231.96H756ZM391.502 8756.42V8706.42H341.652L341.502 8756.27L391.502 8756.42ZM568.504 8756.42L618.503 8756.66L618.741 8706.42H568.504V8756.42ZM756 9044.76H806V9012.23L776.263 8999.05L756 9044.76ZM768.981 9183.68C580.354 9132.97 441.5 8961.67 441.5 8757.92H341.5C341.5 9008.44 512.215 9218.2 743.019 9280.25L768.981 9183.68ZM441.5 8757.92C441.5 8757.47 441.501 8757.02 441.502 8756.57L341.502 8756.27C341.501 8756.82 341.5 8757.37 341.5 8757.92H441.5ZM391.502 8806.42H568.504V8706.42H391.502V8806.42ZM518.504 8756.19C518.501 8756.76 518.5 8757.34 518.5 8757.92H618.5C618.5 8757.5 618.501 8757.08 618.503 8756.66L518.504 8756.19ZM518.5 8757.92C518.5 8906.07 607.753 9033.74 735.737 9090.47L776.263 8999.05C682.893 8957.66 618.5 8864.85 618.5 8757.92H518.5ZM706 9044.76V9231.96H806V9044.76H706Z" fill="#404040"/>
</g>
<g filter="url(#filter2_d_1_185923)">
<path fill-rule="evenodd" clip-rule="evenodd" d="M885 11086.9C713.765 11086.9 568.5 10940.5 568.5 10752.9H391.5C391.5 10925.5 475.272 11080.7 604.861 11173.7C476.444 11261.9 392.004 11409.2 391.502 11576.4H50V12353.4H756V12052C797.138 12063 840.389 12068.9 885 12068.9C1157.04 12068.9 1378.5 11849.6 1378.5 11577.9C1378.5 11409.9 1293.83 11262 1164.88 11173.5C1294.63 11080.3 1378.5 10924.7 1378.5 10752.9H1201.5C1201.5 10939.4 1056 11086.9 885 11086.9ZM756 11864.8V12052C546.284 11995.6 391.5 11805.1 391.5 11577.9C391.5 11577.4 391.501 11576.9 391.502 11576.4H568.504C568.501 11576.9 568.5 11577.4 568.5 11577.9C568.5 11705.5 645.323 11815.7 756 11864.8ZM756 11864.8V11576.4H568.504C569.317 11404.2 710.192 11263.9 885 11263.9C1060.32 11263.9 1201.5 11405 1201.5 11577.9C1201.5 11750.8 1060.32 11891.9 885 11891.9C839.007 11891.9 795.362 11882.2 756 11864.8Z" fill="#FF6161"/>
<path d="M568.5 10752.9H618.5V10702.9H568.5V10752.9ZM391.5 10752.9V10702.9H341.5V10752.9H391.5ZM604.861 11173.7L633.176 11214.9L691.886 11174.5L633.995 11133L604.861 11173.7ZM50 11576.4V11526.4H0V11576.4H50ZM50 12353.4H0V12403.4H50V12353.4ZM756 12353.4V12403.4H806V12353.4H756ZM1164.88 11173.5L1135.71 11132.9L1077.86 11174.4L1136.59 11214.7L1164.88 11173.5ZM1378.5 10752.9H1428.5V10702.9H1378.5V10752.9ZM1201.5 10752.9V10702.9H1151.5V10752.9H1201.5ZM756 11576.4H806V11526.4H756V11576.4ZM518.5 10752.9C518.5 10966.2 684.301 11136.9 885 11136.9V11036.9C743.229 11036.9 618.5 10914.8 618.5 10752.9H518.5ZM391.5 10802.9H568.5V10702.9H391.5V10802.9ZM633.995 11133C517.388 11049.4 441.5 10909.3 441.5 10752.9H341.5C341.5 10941.8 433.155 11112.1 575.727 11214.3L633.995 11133ZM441.502 11576.6C441.952 11426.5 517.642 11294.3 633.176 11214.9L576.546 11132.5C435.247 11229.5 342.056 11391.8 341.502 11576.3L441.502 11576.6ZM50 11626.4H391.502V11526.4H50V11626.4ZM100 12353.4V11576.4H0V12353.4H100ZM756 12303.4H50V12403.4H756V12303.4ZM706 12052V12353.4H806V12052H706ZM885 12018.9C844.813 12018.9 805.925 12013.6 768.981 12003.7L743.019 12100.2C788.35 12112.4 835.965 12118.9 885 12118.9V12018.9ZM1328.5 11577.9C1328.5 11821.7 1129.73 12018.9 885 12018.9V12118.9C1184.34 12118.9 1428.5 11877.5 1428.5 11577.9H1328.5ZM1136.59 11214.7C1252.6 11294.3 1328.5 11427.2 1328.5 11577.9H1428.5C1428.5 11392.7 1335.05 11229.6 1193.17 11132.3L1136.59 11214.7ZM1328.5 10752.9C1328.5 10908.4 1252.55 11049 1135.71 11132.9L1194.04 11214.1C1336.72 11111.6 1428.5 10941 1428.5 10752.9H1328.5ZM1201.5 10802.9H1378.5V10702.9H1201.5V10802.9ZM885 11136.9C1085.55 11136.9 1251.5 10965 1251.5 10752.9H1151.5C1151.5 10913.7 1026.45 11036.9 885 11036.9V11136.9ZM706 11864.8V12052H806V11864.8H706ZM768.981 12003.7C580.354 11953 441.5 11781.7 441.5 11577.9H341.5C341.5 11828.4 512.215 12038.2 743.019 12100.2L768.981 12003.7ZM441.5 11577.9C441.5 11577.5 441.501 11577 441.502 11576.6L341.502 11576.3C341.501 11576.8 341.5 11577.4 341.5 11577.9H441.5ZM391.502 11626.4H568.504V11526.4H391.502V11626.4ZM518.504 11576.2C518.501 11576.8 518.5 11577.3 518.5 11577.9H618.5C618.5 11577.5 618.501 11577.1 618.503 11576.7L518.504 11576.2ZM518.5 11577.9C518.5 11726.1 607.753 11853.7 735.737 11910.5L776.263 11819.1C682.893 11777.7 618.5 11684.9 618.5 11577.9H518.5ZM706 11576.4V11864.8H806V11576.4H706ZM568.504 11626.4H756V11526.4H568.504V11626.4ZM885 11213.9C682.922 11213.9 519.449 11376.2 518.504 11576.2L618.503 11576.7C619.185 11432.2 737.461 11313.9 885 11313.9V11213.9ZM1251.5 11577.9C1251.5 11377.1 1087.66 11213.9 885 11213.9V11313.9C1032.97 11313.9 1151.5 11432.9 1151.5 11577.9H1251.5ZM885 11941.9C1087.66 11941.9 1251.5 11778.7 1251.5 11577.9H1151.5C1151.5 11722.9 1032.97 11841.9 885 11841.9V11941.9ZM735.737 11910.5C781.369 11930.7 831.906 11941.9 885 11941.9V11841.9C846.107 11841.9 809.355 11833.7 776.263 11819.1L735.737 11910.5Z" fill="#404040"/>
</g>
<path fill-rule="evenodd" clip-rule="evenodd" d="M885 5814.92C713.765 5814.92 568.5 5668.49 568.5 5480.92H391.5C391.5 5653.52 475.272 5808.75 604.861 5901.66C476.444 5989.89 392.004 6137.16 391.502 6304.42H568.504C569.317 6132.21 710.192 5991.92 885 5991.92C1060.32 5991.92 1201.5 6133.02 1201.5 6305.92C1201.5 6478.82 1060.32 6619.92 885 6619.92C839.007 6619.92 795.362 6610.21 756 6592.76V6779.96C797.138 6791.02 840.389 6796.92 885 6796.92C1157.04 6796.92 1378.5 6577.61 1378.5 6305.92C1378.5 6137.93 1293.83 5989.96 1164.88 5901.48C1294.63 5808.3 1378.5 5652.74 1378.5 5480.92H1201.5C1201.5 5667.36 1056 5814.92 885 5814.92Z" fill="#80DFF3"/>
<g filter="url(#filter3_d_1_185923)">
<path fill-rule="evenodd" clip-rule="evenodd" d="M885 3367.17C713.765 3367.17 568.5 3220.74 568.5 3033.17H391.5C391.5 3205.77 475.272 3361 604.861 3453.91C476.444 3542.14 392.004 3689.41 391.502 3856.67H50V4633.67H756V4332.21C797.138 4343.27 840.389 4349.17 885 4349.17C1157.04 4349.17 1378.5 4129.86 1378.5 3858.17C1378.5 3690.18 1293.83 3542.21 1164.88 3453.73C1294.63 3360.55 1378.5 3204.99 1378.5 3033.17H1201.5C1201.5 3219.61 1056 3367.17 885 3367.17ZM756 4145.01C795.362 4162.46 839.007 4172.17 885 4172.17C1060.32 4172.17 1201.5 4031.07 1201.5 3858.17C1201.5 3685.27 1060.32 3544.17 885 3544.17C710.192 3544.17 569.317 3684.46 568.504 3856.67H756V4145.01Z" fill="#FF6161"/>
<path d="M568.5 3033.17H618.5V2983.17H568.5V3033.17ZM391.5 3033.17V2983.17H341.5V3033.17H391.5ZM604.861 3453.91L633.176 3495.12L691.886 3454.78L633.995 3413.28L604.861 3453.91ZM391.502 3856.67V3906.67H441.352L441.502 3856.82L391.502 3856.67ZM50 3856.67V3806.67H0V3856.67H50ZM50 4633.67H0V4683.67H50V4633.67ZM756 4633.67V4683.67H806V4633.67H756ZM756 4332.21L768.981 4283.93L706 4267V4332.21H756ZM1164.88 3453.73L1135.71 3413.12L1077.86 3454.66L1136.59 3494.96L1164.88 3453.73ZM1378.5 3033.17H1428.5V2983.17H1378.5V3033.17ZM1201.5 3033.17V2983.17H1151.5V3033.17H1201.5ZM756 4145.01H706V4177.54L735.737 4190.72L756 4145.01ZM568.504 3856.67L518.504 3856.44L518.267 3906.67H568.504V3856.67ZM756 3856.67H806V3806.67H756V3856.67ZM518.5 3033.17C518.5 3246.46 684.301 3417.17 885 3417.17V3317.17C743.229 3317.17 618.5 3195.01 618.5 3033.17H518.5ZM391.5 3083.17H568.5V2983.17H391.5V3083.17ZM633.995 3413.28C517.388 3329.67 441.5 3189.51 441.5 3033.17H341.5C341.5 3222.03 433.155 3392.33 575.727 3494.55L633.995 3413.28ZM441.502 3856.82C441.952 3706.75 517.642 3574.5 633.176 3495.12L576.546 3412.7C435.247 3509.79 342.056 3672.07 341.502 3856.52L441.502 3856.82ZM50 3906.67H391.502V3806.67H50V3906.67ZM100 4633.67V3856.67H0V4633.67H100ZM756 4583.67H50V4683.67H756V4583.67ZM706 4332.21V4633.67H806V4332.21H706ZM885 4299.17C844.813 4299.17 805.925 4293.86 768.981 4283.93L743.019 4380.5C788.35 4392.69 835.965 4399.17 885 4399.17V4299.17ZM1328.5 3858.17C1328.5 4101.94 1129.73 4299.17 885 4299.17V4399.17C1184.34 4399.17 1428.5 4157.78 1428.5 3858.17H1328.5ZM1136.59 3494.96C1252.6 3574.56 1328.5 3707.44 1328.5 3858.17H1428.5C1428.5 3672.92 1335.05 3509.86 1193.17 3412.5L1136.59 3494.96ZM1328.5 3033.17C1328.5 3188.69 1252.55 3329.21 1135.71 3413.12L1194.04 3494.34C1336.72 3391.88 1428.5 3221.29 1428.5 3033.17H1328.5ZM1201.5 3083.17H1378.5V2983.17H1201.5V3083.17ZM885 3417.17C1085.55 3417.17 1251.5 3245.24 1251.5 3033.17H1151.5C1151.5 3193.97 1026.45 3317.17 885 3317.17V3417.17ZM735.737 4190.72C781.369 4210.95 831.906 4222.17 885 4222.17V4122.17C846.107 4122.17 809.355 4113.97 776.263 4099.3L735.737 4190.72ZM885 4222.17C1087.66 4222.17 1251.5 4058.95 1251.5 3858.17H1151.5C1151.5 4003.19 1032.97 4122.17 885 4122.17V4222.17ZM1251.5 3858.17C1251.5 3657.39 1087.66 3494.17 885 3494.17V3594.17C1032.97 3594.17 1151.5 3713.15 1151.5 3858.17H1251.5ZM885 3494.17C682.922 3494.17 519.449 3656.45 518.504 3856.44L618.503 3856.91C619.185 3712.46 737.461 3594.17 885 3594.17V3494.17ZM568.504 3906.67H756V3806.67H568.504V3906.67ZM706 3856.67V4145.01H806V3856.67H706Z" fill="#404040"/>
</g>
<g filter="url(#filter4_d_1_185923)">
<rect x="2247" y="1456.17" width="706" height="777" fill="#FF6161"/>
</g>
<g filter="url(#filter5_d_1_185923)">
<path fill-rule="evenodd" clip-rule="evenodd" d="M2953 9231.96C2743.28 9175.58 2588.5 8985.06 2588.5 8757.92C2588.5 8757.42 2588.5 8756.92 2588.5 8756.42H2765.5C2765.5 8756.92 2765.5 8757.42 2765.5 8757.92C2765.5 8885.46 2842.32 8995.7 2953 9044.76V9231.96Z" fill="#FF6161"/>
</g>
<g filter="url(#filter6_d_1_185923)">
<path fill-rule="evenodd" clip-rule="evenodd" d="M3082 11086.9C2910.76 11086.9 2765.5 10940.5 2765.5 10752.9H2588.5C2588.5 10925.5 2672.27 11080.7 2801.86 11173.7C2673.44 11261.9 2589 11409.2 2588.5 11576.4H2247V12353.4H2953V12052C2994.14 12063 3037.39 12068.9 3082 12068.9C3354.04 12068.9 3575.5 11849.6 3575.5 11577.9C3575.5 11409.9 3490.83 11262 3361.88 11173.5C3491.63 11080.3 3575.5 10924.7 3575.5 10752.9H3398.5C3398.5 10939.4 3253 11086.9 3082 11086.9ZM2953 11864.8V12052C2743.28 11995.6 2588.5 11805.1 2588.5 11577.9C2588.5 11577.4 2588.5 11576.9 2588.5 11576.4H2765.5C2765.5 11576.9 2765.5 11577.4 2765.5 11577.9C2765.5 11705.5 2842.32 11815.7 2953 11864.8ZM2953 11864.8V11576.4H2765.5C2766.32 11404.2 2907.19 11263.9 3082 11263.9C3257.32 11263.9 3398.5 11405 3398.5 11577.9C3398.5 11750.8 3257.32 11891.9 3082 11891.9C3036.01 11891.9 2992.36 11882.2 2953 11864.8Z" fill="#FF6161"/>
</g>
<path fill-rule="evenodd" clip-rule="evenodd" d="M3082 5814.92C2910.76 5814.92 2765.5 5668.49 2765.5 5480.92H2588.5C2588.5 5653.52 2672.27 5808.75 2801.86 5901.66C2673.44 5989.89 2589 6137.16 2588.5 6304.42H2765.5C2766.32 6132.21 2907.19 5991.92 3082 5991.92C3257.32 5991.92 3398.5 6133.02 3398.5 6305.92C3398.5 6478.82 3257.32 6619.92 3082 6619.92C3036.01 6619.92 2992.36 6610.21 2953 6592.76V6779.96C2994.14 6791.02 3037.39 6796.92 3082 6796.92C3354.04 6796.92 3575.5 6577.61 3575.5 6305.92C3575.5 6137.93 3490.83 5989.96 3361.88 5901.48C3491.63 5808.3 3575.5 5652.74 3575.5 5480.92H3398.5C3398.5 5667.36 3253 5814.92 3082 5814.92Z" fill="#80DFF3"/>
<g filter="url(#filter7_d_1_185923)">
<path fill-rule="evenodd" clip-rule="evenodd" d="M3082 3367.17C2910.76 3367.17 2765.5 3220.74 2765.5 3033.17H2588.5C2588.5 3205.77 2672.27 3361 2801.86 3453.91C2673.44 3542.14 2589 3689.41 2588.5 3856.67H2247V4633.67H2953V4332.21C2994.14 4343.27 3037.39 4349.17 3082 4349.17C3354.04 4349.17 3575.5 4129.86 3575.5 3858.17C3575.5 3690.18 3490.83 3542.21 3361.88 3453.73C3491.63 3360.55 3575.5 3204.99 3575.5 3033.17H3398.5C3398.5 3219.61 3253 3367.17 3082 3367.17ZM2953 4145.01C2992.36 4162.46 3036.01 4172.17 3082 4172.17C3257.32 4172.17 3398.5 4031.07 3398.5 3858.17C3398.5 3685.27 3257.32 3544.17 3082 3544.17C2907.19 3544.17 2766.32 3684.46 2765.5 3856.67H2953V4145.01Z" fill="#FF6161"/>
</g>
<path d="M536.608 147.172V36.6264H559.98V82.2372H607.426V36.6264H630.744V147.172H607.426V101.507H559.98V147.172H536.608ZM673.224 148.737C667.935 148.737 663.221 147.82 659.082 145.984C654.944 144.113 651.67 141.36 649.259 137.726C646.884 134.055 645.696 129.485 645.696 124.016C645.696 119.41 646.542 115.541 648.233 112.411C649.924 109.28 652.227 106.761 655.142 104.854C658.057 102.946 661.367 101.507 665.074 100.536C668.816 99.5639 672.739 98.8802 676.841 98.4844C681.663 97.9806 685.549 97.5128 688.5 97.081C691.451 96.6132 693.592 95.9294 694.923 95.0298C696.255 94.1302 696.92 92.7988 696.92 91.0355V90.7116C696.92 87.2931 695.841 84.6482 693.682 82.777C691.559 80.9058 688.536 79.9702 684.614 79.9702C680.475 79.9702 677.183 80.8878 674.736 82.723C672.289 84.5223 670.67 86.7893 669.878 89.5241L648.611 87.7969C649.69 82.759 651.813 78.4048 654.98 74.7344C658.147 71.0279 662.231 68.1851 667.233 66.206C672.271 64.1908 678.1 63.1832 684.722 63.1832C689.328 63.1832 693.736 63.723 697.946 64.8026C702.192 65.8821 705.953 67.5554 709.227 69.8224C712.538 72.0895 715.147 75.0043 717.054 78.5668C718.961 82.0933 719.915 86.3215 719.915 91.2514V147.172H698.108V135.675H697.46C696.129 138.266 694.348 140.551 692.116 142.53C689.885 144.473 687.205 146.002 684.074 147.118C680.943 148.197 677.327 148.737 673.224 148.737ZM679.81 132.868C683.192 132.868 686.179 132.202 688.77 130.871C691.361 129.503 693.394 127.668 694.869 125.365C696.345 123.062 697.082 120.453 697.082 117.538V108.74C696.363 109.208 695.373 109.64 694.114 110.036C692.89 110.395 691.505 110.737 689.957 111.061C688.41 111.349 686.863 111.619 685.315 111.871C683.768 112.087 682.365 112.285 681.105 112.464C678.406 112.86 676.049 113.49 674.034 114.354C672.019 115.217 670.454 116.387 669.338 117.862C668.223 119.302 667.665 121.101 667.665 123.26C667.665 126.391 668.798 128.784 671.065 130.439C673.368 132.058 676.283 132.868 679.81 132.868ZM806.737 87.9048L785.686 89.2003C785.326 87.401 784.553 85.7817 783.365 84.3423C782.178 82.8669 780.612 81.6974 778.669 80.8338C776.762 79.9342 774.477 79.4844 771.814 79.4844C768.251 79.4844 765.247 80.2401 762.8 81.7514C760.353 83.2268 759.129 85.206 759.129 87.6889C759.129 89.6681 759.921 91.3414 761.504 92.7088C763.088 94.0762 765.804 95.1738 769.655 96.0014L784.661 99.0241C792.721 100.679 798.731 103.342 802.689 107.013C806.647 110.683 808.626 115.505 808.626 121.479C808.626 126.912 807.025 131.68 803.822 135.783C800.656 139.885 796.302 143.088 790.76 145.391C785.254 147.658 778.903 148.791 771.706 148.791C760.731 148.791 751.986 146.506 745.473 141.936C738.996 137.33 735.199 131.069 734.084 123.152L756.7 121.964C757.384 125.311 759.039 127.866 761.666 129.629C764.293 131.357 767.658 132.22 771.76 132.22C775.79 132.22 779.029 131.446 781.476 129.899C783.959 128.316 785.218 126.283 785.254 123.8C785.218 121.713 784.337 120.003 782.609 118.672C780.882 117.304 778.219 116.261 774.621 115.541L760.263 112.68C752.166 111.061 746.139 108.254 742.18 104.26C738.258 100.266 736.297 95.1738 736.297 88.9844C736.297 83.6586 737.736 79.0705 740.615 75.2202C743.53 71.3698 747.614 68.401 752.868 66.3139C758.158 64.2268 764.347 63.1832 771.436 63.1832C781.908 63.1832 790.148 65.3963 796.158 69.8224C802.203 74.2486 805.73 80.276 806.737 87.9048ZM858.717 147.172V36.6264H902.979C911.111 36.6264 917.894 37.8319 923.328 40.2429C928.762 42.6539 932.846 46.0005 935.581 50.2827C938.316 54.5289 939.683 59.4228 939.683 64.9645C939.683 69.2827 938.82 73.0791 937.092 76.3537C935.365 79.5923 932.99 82.2552 929.967 84.3423C926.981 86.3935 923.562 87.8508 919.712 88.7145V89.794C923.922 89.974 927.862 91.1615 931.533 93.3565C935.239 95.5516 938.244 98.6283 940.547 102.587C942.85 106.509 944.001 111.187 944.001 116.621C944.001 122.486 942.544 127.722 939.629 132.328C936.75 136.898 932.486 140.515 926.837 143.178C921.187 145.84 914.224 147.172 905.947 147.172H858.717ZM882.089 128.064H901.143C907.657 128.064 912.407 126.822 915.393 124.339C918.38 121.821 919.874 118.474 919.874 114.3C919.874 111.241 919.136 108.542 917.661 106.203C916.185 103.864 914.08 102.029 911.345 100.697C908.646 99.366 905.426 98.7003 901.683 98.7003H882.089V128.064ZM882.089 82.8849H899.416C902.619 82.8849 905.462 82.3272 907.945 81.2116C910.464 80.0601 912.443 78.4408 913.882 76.3537C915.357 74.2666 916.095 71.7656 916.095 68.8509C916.095 64.8565 914.674 61.6359 911.831 59.1889C909.024 56.7419 905.03 55.5185 899.848 55.5185H882.089V82.8849ZM996.238 148.791C987.853 148.791 980.603 147.01 974.485 143.447C968.404 139.849 963.708 134.847 960.397 128.442C957.086 122 955.431 114.534 955.431 106.041C955.431 97.4768 957.086 89.9919 960.397 83.5866C963.708 77.1454 968.404 72.1435 974.485 68.581C980.603 64.9825 987.853 63.1832 996.238 63.1832C1004.62 63.1832 1011.86 64.9825 1017.94 68.581C1024.05 72.1435 1028.77 77.1454 1032.08 83.5866C1035.39 89.9919 1037.04 97.4768 1037.04 106.041C1037.04 114.534 1035.39 122 1032.08 128.442C1028.77 134.847 1024.05 139.849 1017.94 143.447C1011.86 147.01 1004.62 148.791 996.238 148.791ZM996.346 130.979C1000.16 130.979 1003.34 129.899 1005.9 127.74C1008.45 125.545 1010.38 122.558 1011.68 118.78C1013.01 115.001 1013.67 110.701 1013.67 105.879C1013.67 101.057 1013.01 96.7571 1011.68 92.9787C1010.38 89.2003 1008.45 86.2135 1005.9 84.0185C1003.34 81.8234 1000.16 80.7258 996.346 80.7258C992.496 80.7258 989.257 81.8234 986.63 84.0185C984.039 86.2135 982.078 89.2003 980.746 92.9787C979.451 96.7571 978.803 101.057 978.803 105.879C978.803 110.701 979.451 115.001 980.746 118.78C982.078 122.558 984.039 125.545 986.63 127.74C989.257 129.899 992.496 130.979 996.346 130.979ZM1052 147.172V64.2628H1074.29V78.7287H1075.15C1076.66 73.5829 1079.2 69.6965 1082.76 67.0696C1086.33 64.4067 1090.43 63.0753 1095.07 63.0753C1096.22 63.0753 1097.46 63.1473 1098.79 63.2912C1100.13 63.4351 1101.3 63.633 1102.3 63.8849V84.2883C1101.22 83.9645 1099.73 83.6766 1097.82 83.4247C1095.92 83.1728 1094.17 83.0469 1092.59 83.0469C1089.2 83.0469 1086.18 83.7846 1083.52 85.2599C1080.89 86.6993 1078.81 88.7145 1077.26 91.3054C1075.75 93.8963 1074.99 96.883 1074.99 100.266V147.172H1052ZM1140.88 148.521C1134.59 148.521 1128.88 146.902 1123.77 143.663C1118.7 140.389 1114.67 135.585 1111.68 129.251C1108.73 122.882 1107.26 115.073 1107.26 105.825C1107.26 96.3253 1108.79 88.4266 1111.84 82.1293C1114.9 75.7959 1118.97 71.0639 1124.04 67.9332C1129.15 64.7666 1134.75 63.1832 1140.83 63.1832C1145.47 63.1832 1149.34 63.9749 1152.43 65.5582C1155.57 67.1056 1158.08 69.0488 1159.99 71.3878C1161.93 73.6908 1163.41 75.9579 1164.42 78.1889H1165.12V36.6264H1188.06V147.172H1165.39V133.893H1164.42C1163.34 136.196 1161.81 138.482 1159.83 140.749C1157.89 142.98 1155.35 144.833 1152.22 146.308C1149.12 147.784 1145.35 148.521 1140.88 148.521ZM1148.17 130.223C1151.88 130.223 1155.01 129.215 1157.56 127.2C1160.15 125.149 1162.13 122.288 1163.5 118.618C1164.9 114.947 1165.61 110.647 1165.61 105.717C1165.61 100.787 1164.92 96.5052 1163.55 92.8707C1162.19 89.2363 1160.21 86.4294 1157.62 84.4503C1155.03 82.4711 1151.88 81.4815 1148.17 81.4815C1144.39 81.4815 1141.21 82.5071 1138.62 84.5582C1136.03 86.6094 1134.06 89.4522 1132.73 93.0866C1131.4 96.7211 1130.74 100.931 1130.74 105.717C1130.74 110.539 1131.4 114.804 1132.73 118.51C1134.1 122.18 1136.06 125.059 1138.62 127.146C1141.21 129.197 1144.39 130.223 1148.17 130.223ZM1244.75 148.791C1236.22 148.791 1228.88 147.064 1222.73 143.609C1216.61 140.119 1211.9 135.189 1208.58 128.82C1205.27 122.414 1203.62 114.839 1203.62 106.095C1203.62 97.5668 1205.27 90.0819 1208.58 83.6406C1211.9 77.1993 1216.56 72.1794 1222.56 68.581C1228.61 64.9825 1235.7 63.1832 1243.83 63.1832C1249.3 63.1832 1254.39 64.0649 1259.11 65.8281C1263.86 67.5554 1268 70.1643 1271.52 73.6548C1275.08 77.1454 1277.86 81.5355 1279.83 86.8253C1281.81 92.0791 1282.8 98.2325 1282.8 105.286V111.601H1212.79V97.3508H1261.16C1261.16 94.0402 1260.44 91.1075 1259 88.5526C1257.56 85.9976 1255.56 84.0005 1253.01 82.5611C1250.49 81.0857 1247.56 80.348 1244.21 80.348C1240.72 80.348 1237.62 81.1577 1234.93 82.777C1232.26 84.3603 1230.18 86.5014 1228.66 89.2003C1227.15 91.8632 1226.38 94.8319 1226.34 98.1065V111.655C1226.34 115.757 1227.1 119.302 1228.61 122.288C1230.16 125.275 1232.33 127.578 1235.14 129.197C1237.95 130.817 1241.28 131.626 1245.13 131.626C1247.68 131.626 1250.02 131.267 1252.14 130.547C1254.27 129.827 1256.08 128.748 1257.6 127.308C1259.11 125.869 1260.26 124.106 1261.05 122.018L1282.32 123.422C1281.24 128.532 1279.02 132.994 1275.68 136.808C1272.37 140.587 1268.09 143.537 1262.83 145.661C1257.61 147.748 1251.59 148.791 1244.75 148.791ZM1297.81 147.172V64.2628H1320.1V78.7287H1320.97C1322.48 73.5829 1325.01 69.6965 1328.58 67.0696C1332.14 64.4067 1336.24 63.0753 1340.88 63.0753C1342.03 63.0753 1343.28 63.1473 1344.61 63.2912C1345.94 63.4351 1347.11 63.633 1348.12 63.8849V84.2883C1347.04 83.9645 1345.54 83.6766 1343.64 83.4247C1341.73 83.1728 1339.98 83.0469 1338.4 83.0469C1335.02 83.0469 1331.99 83.7846 1329.33 85.2599C1326.7 86.6993 1324.62 88.7145 1323.07 91.3054C1321.56 93.8963 1320.8 96.883 1320.8 100.266V147.172H1297.81ZM1393.93 148.791C1385.4 148.791 1378.06 147.064 1371.91 143.609C1365.79 140.119 1361.07 135.189 1357.76 128.82C1354.45 122.414 1352.8 114.839 1352.8 106.095C1352.8 97.5668 1354.45 90.0819 1357.76 83.6406C1361.07 77.1993 1365.73 72.1794 1371.74 68.581C1377.79 64.9825 1384.88 63.1832 1393.01 63.1832C1398.48 63.1832 1403.57 64.0649 1408.29 65.8281C1413.04 67.5554 1417.18 70.1643 1420.7 73.6548C1424.26 77.1454 1427.04 81.5355 1429.01 86.8253C1430.99 92.0791 1431.98 98.2325 1431.98 105.286V111.601H1361.97V97.3508H1410.34C1410.34 94.0402 1409.62 91.1075 1408.18 88.5526C1406.74 85.9976 1404.74 84.0005 1402.19 82.5611C1399.67 81.0857 1396.74 80.348 1393.39 80.348C1389.9 80.348 1386.8 81.1577 1384.11 82.777C1381.44 84.3603 1379.36 86.5014 1377.84 89.2003C1376.33 91.8632 1375.56 94.8319 1375.52 98.1065V111.655C1375.52 115.757 1376.28 119.302 1377.79 122.288C1379.34 125.275 1381.51 127.578 1384.32 129.197C1387.13 130.817 1390.46 131.626 1394.31 131.626C1396.86 131.626 1399.2 131.267 1401.32 130.547C1403.45 129.827 1405.26 128.748 1406.78 127.308C1408.29 125.869 1409.44 124.106 1410.23 122.018L1431.5 123.422C1430.42 128.532 1428.2 132.994 1424.86 136.808C1421.55 140.587 1417.27 143.537 1412.01 145.661C1406.79 147.748 1400.77 148.791 1393.93 148.791ZM1515.97 87.9048L1494.92 89.2003C1494.56 87.401 1493.79 85.7817 1492.6 84.3423C1491.41 82.8669 1489.85 81.6974 1487.9 80.8338C1486 79.9342 1483.71 79.4844 1481.05 79.4844C1477.49 79.4844 1474.48 80.2401 1472.03 81.7514C1469.59 83.2268 1468.36 85.206 1468.36 87.6889C1468.36 89.6681 1469.16 91.3414 1470.74 92.7088C1472.32 94.0762 1475.04 95.1738 1478.89 96.0014L1493.89 99.0241C1501.96 100.679 1507.96 103.342 1511.92 107.013C1515.88 110.683 1517.86 115.505 1517.86 121.479C1517.86 126.912 1516.26 131.68 1513.06 135.783C1509.89 139.885 1505.54 143.088 1499.99 145.391C1494.49 147.658 1488.14 148.791 1480.94 148.791C1469.96 148.791 1461.22 146.506 1454.71 141.936C1448.23 137.33 1444.43 131.069 1443.32 123.152L1465.93 121.964C1466.62 125.311 1468.27 127.866 1470.9 129.629C1473.53 131.357 1476.89 132.22 1480.99 132.22C1485.02 132.22 1488.26 131.446 1490.71 129.899C1493.19 128.316 1494.45 126.283 1494.49 123.8C1494.45 121.713 1493.57 120.003 1491.84 118.672C1490.12 117.304 1487.45 116.261 1483.86 115.541L1469.5 112.68C1461.4 111.061 1455.37 108.254 1451.41 104.26C1447.49 100.266 1445.53 95.1738 1445.53 88.9844C1445.53 83.6586 1446.97 79.0705 1449.85 75.2202C1452.76 71.3698 1456.85 68.401 1462.1 66.3139C1467.39 64.2268 1473.58 63.1832 1480.67 63.1832C1491.14 63.1832 1499.38 65.3963 1505.39 69.8224C1511.44 74.2486 1514.96 80.276 1515.97 87.9048ZM1567.52 147.172V64.2628H1589.81V78.7287H1590.68C1592.19 73.5829 1594.72 69.6965 1598.29 67.0696C1601.85 64.4067 1605.95 63.0753 1610.59 63.0753C1611.75 63.0753 1612.99 63.1473 1614.32 63.2912C1615.65 63.4351 1616.82 63.633 1617.83 63.8849V84.2883C1616.75 83.9645 1615.25 83.6766 1613.35 83.4247C1611.44 83.1728 1609.69 83.0469 1608.11 83.0469C1604.73 83.0469 1601.71 83.7846 1599.04 85.2599C1596.42 86.6993 1594.33 88.7145 1592.78 91.3054C1591.27 93.8963 1590.51 96.883 1590.51 100.266V147.172H1567.52ZM1663.64 148.791C1655.11 148.791 1647.77 147.064 1641.62 143.609C1635.5 140.119 1630.79 135.189 1627.48 128.82C1624.16 122.414 1622.51 114.839 1622.51 106.095C1622.51 97.5668 1624.16 90.0819 1627.48 83.6406C1630.79 77.1993 1635.45 72.1794 1641.46 68.581C1647.5 64.9825 1654.59 63.1832 1662.72 63.1832C1668.19 63.1832 1673.28 64.0649 1678 65.8281C1682.75 67.5554 1686.89 70.1643 1690.41 73.6548C1693.98 77.1454 1696.75 81.5355 1698.73 86.8253C1700.7 92.0791 1701.69 98.2325 1701.69 105.286V111.601H1631.69V97.3508H1680.05C1680.05 94.0402 1679.33 91.1075 1677.89 88.5526C1676.45 85.9976 1674.45 84.0005 1671.9 82.5611C1669.38 81.0857 1666.45 80.348 1663.1 80.348C1659.61 80.348 1656.51 81.1577 1653.82 82.777C1651.15 84.3603 1649.07 86.5014 1647.55 89.2003C1646.04 91.8632 1645.27 94.8319 1645.23 98.1065V111.655C1645.23 115.757 1645.99 119.302 1647.5 122.288C1649.05 125.275 1651.23 127.578 1654.03 129.197C1656.84 130.817 1660.17 131.626 1664.02 131.626C1666.57 131.626 1668.91 131.267 1671.03 130.547C1673.16 129.827 1674.98 128.748 1676.49 127.308C1678 125.869 1679.15 124.106 1679.94 122.018L1701.21 123.422C1700.13 128.532 1697.92 132.994 1694.57 136.808C1691.26 140.587 1686.98 143.537 1681.72 145.661C1676.5 147.748 1670.48 148.791 1663.64 148.791ZM1739.69 99.2401V147.172H1716.7V64.2628H1738.61V78.8906H1739.59C1741.42 74.0687 1744.5 70.2543 1748.82 67.4474C1753.13 64.6046 1758.37 63.1832 1764.52 63.1832C1770.28 63.1832 1775.3 64.4427 1779.58 66.9616C1783.87 69.4806 1787.19 73.0791 1789.57 77.7571C1791.94 82.3991 1793.13 87.9408 1793.13 94.3821V147.172H1770.14V98.4844C1770.17 93.4105 1768.88 89.4522 1766.25 86.6094C1763.62 83.7306 1760.01 82.2912 1755.4 82.2912C1752.31 82.2912 1749.57 82.9569 1747.2 84.2883C1744.86 85.6198 1743.02 87.563 1741.69 90.1179C1740.4 92.6368 1739.73 95.6776 1739.69 99.2401ZM1841.81 148.521C1835.51 148.521 1829.8 146.902 1824.69 143.663C1819.62 140.389 1815.59 135.585 1812.6 129.251C1809.65 122.882 1808.18 115.073 1808.18 105.825C1808.18 96.3253 1809.71 88.4266 1812.77 82.1293C1815.82 75.7959 1819.89 71.0639 1824.96 67.9332C1830.07 64.7666 1835.67 63.1832 1841.75 63.1832C1846.39 63.1832 1850.26 63.9749 1853.36 65.5582C1856.49 67.1056 1859.01 69.0488 1860.91 71.3878C1862.86 73.6908 1864.33 75.9579 1865.34 78.1889H1866.04V36.6264H1888.98V147.172H1866.31V133.893H1865.34C1864.26 136.196 1862.73 138.482 1860.75 140.749C1858.81 142.98 1856.27 144.833 1853.14 146.308C1850.05 147.784 1846.27 148.521 1841.81 148.521ZM1849.09 130.223C1852.8 130.223 1855.93 129.215 1858.48 127.2C1861.08 125.149 1863.05 122.288 1864.42 118.618C1865.83 114.947 1866.53 110.647 1866.53 105.717C1866.53 100.787 1865.84 96.5052 1864.48 92.8707C1863.11 89.2363 1861.13 86.4294 1858.54 84.4503C1855.95 82.4711 1852.8 81.4815 1849.09 81.4815C1845.31 81.4815 1842.13 82.5071 1839.54 84.5582C1836.95 86.6094 1834.99 89.4522 1833.65 93.0866C1832.32 96.7211 1831.66 100.931 1831.66 105.717C1831.66 110.539 1832.32 114.804 1833.65 118.51C1835.02 122.18 1836.98 125.059 1839.54 127.146C1842.13 129.197 1845.31 130.223 1849.09 130.223ZM1945.67 148.791C1937.14 148.791 1929.8 147.064 1923.65 143.609C1917.53 140.119 1912.82 135.189 1909.51 128.82C1906.2 122.414 1904.54 114.839 1904.54 106.095C1904.54 97.5668 1906.2 90.0819 1909.51 83.6406C1912.82 77.1993 1917.48 72.1794 1923.49 68.581C1929.53 64.9825 1936.62 63.1832 1944.75 63.1832C1950.22 63.1832 1955.32 64.0649 1960.03 65.8281C1964.78 67.5554 1968.92 70.1643 1972.44 73.6548C1976.01 77.1454 1978.78 81.5355 1980.76 86.8253C1982.74 92.0791 1983.73 98.2325 1983.73 105.286V111.601H1913.72V97.3508H1962.08C1962.08 94.0402 1961.36 91.1075 1959.92 88.5526C1958.48 85.9976 1956.48 84.0005 1953.93 82.5611C1951.41 81.0857 1948.48 80.348 1945.13 80.348C1941.64 80.348 1938.55 81.1577 1935.85 82.777C1933.18 84.3603 1931.1 86.5014 1929.59 89.2003C1928.07 91.8632 1927.3 94.8319 1927.26 98.1065V111.655C1927.26 115.757 1928.02 119.302 1929.53 122.288C1931.08 125.275 1933.26 127.578 1936.06 129.197C1938.87 130.817 1942.2 131.626 1946.05 131.626C1948.6 131.626 1950.94 131.267 1953.07 130.547C1955.19 129.827 1957.01 128.748 1958.52 127.308C1960.03 125.869 1961.18 124.106 1961.97 122.018L1983.24 123.422C1982.16 128.532 1979.95 132.994 1976.6 136.808C1973.29 140.587 1969.01 143.537 1963.75 145.661C1958.54 147.748 1952.51 148.791 1945.67 148.791ZM1998.73 147.172V64.2628H2021.02V78.7287H2021.89C2023.4 73.5829 2025.94 69.6965 2029.5 67.0696C2033.06 64.4067 2037.16 63.0753 2041.8 63.0753C2042.96 63.0753 2044.2 63.1473 2045.53 63.2912C2046.86 63.4351 2048.03 63.633 2049.04 63.8849V84.2883C2047.96 83.9645 2046.46 83.6766 2044.56 83.4247C2042.65 83.1728 2040.91 83.0469 2039.32 83.0469C2035.94 83.0469 2032.92 83.7846 2030.25 85.2599C2027.63 86.6993 2025.54 88.7145 2023.99 91.3054C2022.48 93.8963 2021.73 96.883 2021.73 100.266V147.172H1998.73Z" fill="black"/>
<defs>
<filter id="filter0_d_1_185923" x="0" y="1406.17" width="878" height="980" filterUnits="userSpaceOnUse" color-interpolation-filters="sRGB">
<feFlood flood-opacity="0" result="BackgroundImageFix"/>
<feColorMatrix in="SourceAlpha" type="matrix" values="0 0 0 0 0 0 0 0 0 0 0 0 0 0 0 0 0 0 127 0" result="hardAlpha"/>
<feOffset dx="68" dy="99"/>
<feGaussianBlur stdDeviation="2"/>
<feComposite in2="hardAlpha" operator="out"/>
<feColorMatrix type="matrix" values="0 0 0 0 0 0 0 0 0 0 0 0 0 0 0 0 0 0 0.25 0"/>
<feBlend mode="normal" in2="BackgroundImageFix" result="effect1_dropShadow_1_185923"/>
<feBlend mode="normal" in="SourceGraphic" in2="effect1_dropShadow_1_185923" result="shape"/>
</filter>
<filter id="filter1_d_1_185923" x="341.5" y="8706.42" width="536.5" height="693.76" filterUnits="userSpaceOnUse" color-interpolation-filters="sRGB">
<feFlood flood-opacity="0" result="BackgroundImageFix"/>
<feColorMatrix in="SourceAlpha" type="matrix" values="0 0 0 0 0 0 0 0 0 0 0 0 0 0 0 0 0 0 127 0" result="hardAlpha"/>
<feOffset dx="68" dy="99"/>
<feGaussianBlur stdDeviation="2"/>
<feComposite in2="hardAlpha" operator="out"/>
<feColorMatrix type="matrix" values="0 0 0 0 0 0 0 0 0 0 0 0 0 0 0 0 0 0 0.25 0"/>
<feBlend mode="normal" in2="BackgroundImageFix" result="effect1_dropShadow_1_185923"/>
<feBlend mode="normal" in="SourceGraphic" in2="effect1_dropShadow_1_185923" result="shape"/>
</filter>
<filter id="filter2_d_1_185923" x="0" y="10702.9" width="1500.5" height="1803.5" filterUnits="userSpaceOnUse" color-interpolation-filters="sRGB">
<feFlood flood-opacity="0" result="BackgroundImageFix"/>
<feColorMatrix in="SourceAlpha" type="matrix" values="0 0 0 0 0 0 0 0 0 0 0 0 0 0 0 0 0 0 127 0" result="hardAlpha"/>
<feOffset dx="68" dy="99"/>
<feGaussianBlur stdDeviation="2"/>
<feComposite in2="hardAlpha" operator="out"/>
<feColorMatrix type="matrix" values="0 0 0 0 0 0 0 0 0 0 0 0 0 0 0 0 0 0 0.25 0"/>
<feBlend mode="normal" in2="BackgroundImageFix" result="effect1_dropShadow_1_185923"/>
<feBlend mode="normal" in="SourceGraphic" in2="effect1_dropShadow_1_185923" result="shape"/>
</filter>
<filter id="filter3_d_1_185923" x="0" y="2983.17" width="1500.5" height="1803.5" filterUnits="userSpaceOnUse" color-interpolation-filters="sRGB">
<feFlood flood-opacity="0" result="BackgroundImageFix"/>
<feColorMatrix in="SourceAlpha" type="matrix" values="0 0 0 0 0 0 0 0 0 0 0 0 0 0 0 0 0 0 127 0" result="hardAlpha"/>
<feOffset dx="68" dy="99"/>
<feGaussianBlur stdDeviation="2"/>
<feComposite in2="hardAlpha" operator="out"/>
<feColorMatrix type="matrix" values="0 0 0 0 0 0 0 0 0 0 0 0 0 0 0 0 0 0 0.25 0"/>
<feBlend mode="normal" in2="BackgroundImageFix" result="effect1_dropShadow_1_185923"/>
<feBlend mode="normal" in="SourceGraphic" in2="effect1_dropShadow_1_185923" result="shape"/>
</filter>
<filter id="filter4_d_1_185923" x="2247" y="1456.17" width="778" height="880" filterUnits="userSpaceOnUse" color-interpolation-filters="sRGB">
<feFlood flood-opacity="0" result="BackgroundImageFix"/>
<feColorMatrix in="SourceAlpha" type="matrix" values="0 0 0 0 0 0 0 0 0 0 0 0 0 0 0 0 0 0 127 0" result="hardAlpha"/>
<feOffset dx="68" dy="99"/>
<feGaussianBlur stdDeviation="2"/>
<feComposite in2="hardAlpha" operator="out"/>
<feColorMatrix type="matrix" values="0 0 0 0 0 0 0 0 0 0 0 0 0 0 0 0 0 0 0.25 0"/>
<feBlend mode="normal" in2="BackgroundImageFix" result="effect1_dropShadow_1_185923"/>
<feBlend mode="normal" in="SourceGraphic" in2="effect1_dropShadow_1_185923" result="shape"/>
</filter>
<filter id="filter5_d_1_185923" x="2588.5" y="8756.42" width="436.5" height="578.543" filterUnits="userSpaceOnUse" color-interpolation-filters="sRGB">
<feFlood flood-opacity="0" result="BackgroundImageFix"/>
<feColorMatrix in="SourceAlpha" type="matrix" values="0 0 0 0 0 0 0 0 0 0 0 0 0 0 0 0 0 0 127 0" result="hardAlpha"/>
<feOffset dx="68" dy="99"/>
<feGaussianBlur stdDeviation="2"/>
<feComposite in2="hardAlpha" operator="out"/>
<feColorMatrix type="matrix" values="0 0 0 0 0 0 0 0 0 0 0 0 0 0 0 0 0 0 0.25 0"/>
<feBlend mode="normal" in2="BackgroundImageFix" result="effect1_dropShadow_1_185923"/>
<feBlend mode="normal" in="SourceGraphic" in2="effect1_dropShadow_1_185923" result="shape"/>
</filter>
<filter id="filter6_d_1_185923" x="2247" y="10752.9" width="1400.5" height="1703.5" filterUnits="userSpaceOnUse" color-interpolation-filters="sRGB">
<feFlood flood-opacity="0" result="BackgroundImageFix"/>
<feColorMatrix in="SourceAlpha" type="matrix" values="0 0 0 0 0 0 0 0 0 0 0 0 0 0 0 0 0 0 127 0" result="hardAlpha"/>
<feOffset dx="68" dy="99"/>
<feGaussianBlur stdDeviation="2"/>
<feComposite in2="hardAlpha" operator="out"/>
<feColorMatrix type="matrix" values="0 0 0 0 0 0 0 0 0 0 0 0 0 0 0 0 0 0 0.25 0"/>
<feBlend mode="normal" in2="BackgroundImageFix" result="effect1_dropShadow_1_185923"/>
<feBlend mode="normal" in="SourceGraphic" in2="effect1_dropShadow_1_185923" result="shape"/>
</filter>
<filter id="filter7_d_1_185923" x="2247" y="3033.17" width="1400.5" height="1703.5" filterUnits="userSpaceOnUse" color-interpolation-filters="sRGB">
<feFlood flood-opacity="0" result="BackgroundImageFix"/>
<feColorMatrix in="SourceAlpha" type="matrix" values="0 0 0 0 0 0 0 0 0 0 0 0 0 0 0 0 0 0 127 0" result="hardAlpha"/>
<feOffset dx="68" dy="99"/>
<feGaussianBlur stdDeviation="2"/>
<feComposite in2="hardAlpha" operator="out"/>
<feColorMatrix type="matrix" values="0 0 0 0 0 0 0 0 0 0 0 0 0 0 0 0 0 0 0.25 0"/>
<feBlend mode="normal" in2="BackgroundImageFix" result="effect1_dropShadow_1_185923"/>
<feBlend mode="normal" in="SourceGraphic" in2="effect1_dropShadow_1_185923" result="shape"/>
</filter>
</defs>
</svg>
