<svg width="274" height="406" viewBox="0 0 274 406" fill="none" xmlns="http://www.w3.org/2000/svg">
<circle cx="166" cy="56" r="50" fill="#3EF3FF" stroke="#A3A1FF" stroke-width="8"/>
<ellipse cx="141" cy="346" rx="25" ry="50" fill="#3EF3FF" stroke="#A3A1FF" stroke-width="8"/>
<ellipse cx="116" cy="198" rx="5e-05" ry="50" fill="#3EF3FF" stroke="#A3A1FF" stroke-width="8"/>
<circle cx="166" cy="56" r="50" stroke="#1C6EE8"/>
<ellipse cx="116" cy="198" rx="5e-05" ry="50" stroke="#1C6EE8"/>
<ellipse cx="141" cy="346" rx="25" ry="50" stroke="#1C6EE8"/>
<rect x="116" y="6" width="100" height="100" stroke="#1C6EE8"/>
<g filter="url(#filter0_d_1_185817)">
<rect x="112" y="2" width="8" height="8" fill="white"/>
<rect x="112.5" y="2.5" width="7" height="7" stroke="#1C6EE8"/>
</g>
<g filter="url(#filter1_d_1_185817)">
<rect x="112" y="102" width="8" height="8" fill="white"/>
<rect x="112.5" y="102.5" width="7" height="7" stroke="#1C6EE8"/>
</g>
<g filter="url(#filter2_d_1_185817)">
<rect x="212" y="2" width="8" height="8" fill="white"/>
<rect x="212.5" y="2.5" width="7" height="7" stroke="#1C6EE8"/>
</g>
<g filter="url(#filter3_d_1_185817)">
<rect x="212" y="102" width="8" height="8" fill="white"/>
<rect x="212.5" y="102.5" width="7" height="7" stroke="#1C6EE8"/>
</g>
<rect x="116" y="148" width="0.0001" height="100" stroke="#1C6EE8"/>
<g filter="url(#filter4_d_1_185817)">
<rect x="112" y="144" width="8" height="8" fill="white"/>
<rect x="112.5" y="144.5" width="7" height="7" stroke="#1C6EE8"/>
</g>
<g filter="url(#filter5_d_1_185817)">
<rect x="112" y="244" width="8" height="8" fill="white"/>
<rect x="112.5" y="244.5" width="7" height="7" stroke="#1C6EE8"/>
</g>
<g filter="url(#filter6_d_1_185817)">
<rect x="112" y="144" width="8" height="8" fill="white"/>
<rect x="112.5" y="144.5" width="7" height="7" stroke="#1C6EE8"/>
</g>
<g filter="url(#filter7_d_1_185817)">
<rect x="112" y="244" width="8" height="8" fill="white"/>
<rect x="112.5" y="244.5" width="7" height="7" stroke="#1C6EE8"/>
</g>
<path d="M264.25 52.4021V50C264.25 49.0335 265.034 48.25 266 48.25C266.966 48.25 267.75 49.0335 267.75 50V52.4021C268.554 52.7937 269.206 53.4465 269.598 54.25H272C272.966 54.25 273.75 55.0335 273.75 56C273.75 56.9665 272.966 57.75 272 57.75H269.598C269.206 58.5535 268.554 59.2063 267.75 59.5979V62C267.75 62.9665 266.966 63.75 266 63.75C265.034 63.75 264.25 62.9665 264.25 62V59.5979C263.446 59.2063 262.794 58.5535 262.402 57.75H260C259.034 57.75 258.25 56.9665 258.25 56C258.25 55.0335 259.034 54.25 260 54.25H262.402C262.794 53.4465 263.446 52.7937 264.25 52.4021Z" fill="white"/>
<path fill-rule="evenodd" clip-rule="evenodd" d="M266 49.25C266.414 49.25 266.75 49.5858 266.75 50V53.0945C267.804 53.3658 268.634 54.1958 268.905 55.25H272C272.414 55.25 272.75 55.5858 272.75 56C272.75 56.4142 272.414 56.75 272 56.75H268.905C268.634 57.8042 267.804 58.6342 266.75 58.9055V62C266.75 62.4142 266.414 62.75 266 62.75C265.586 62.75 265.25 62.4142 265.25 62V58.9055C264.196 58.6342 263.366 57.8042 263.095 56.75H260C259.586 56.75 259.25 56.4142 259.25 56C259.25 55.5858 259.586 55.25 260 55.25H263.095C263.366 54.1958 264.196 53.3658 265.25 53.0945V50C265.25 49.5858 265.586 49.25 266 49.25ZM267.5 56C267.5 56.8284 266.828 57.5 266 57.5C265.172 57.5 264.5 56.8284 264.5 56C264.5 55.1716 265.172 54.5 266 54.5C266.828 54.5 267.5 55.1716 267.5 56Z" fill="#1C6EE8"/>
<path d="M4.37216 33.0909C4.33381 32.767 4.17827 32.5156 3.90554 32.3366C3.63281 32.1577 3.2983 32.0682 2.90199 32.0682C2.61222 32.0682 2.35866 32.1151 2.14134 32.2088C1.92614 32.3026 1.75781 32.4315 1.63636 32.5955C1.51705 32.7596 1.45739 32.946 1.45739 33.1548C1.45739 33.3295 1.49893 33.4798 1.58203 33.6055C1.66726 33.729 1.77592 33.8324 1.90803 33.9155C2.04013 33.9964 2.17862 34.0636 2.32351 34.1168C2.46839 34.168 2.60156 34.2095 2.72301 34.2415L3.38778 34.4205C3.55824 34.4652 3.74787 34.527 3.95668 34.6058C4.16761 34.6847 4.36896 34.7923 4.56072 34.9286C4.75462 35.0629 4.91442 35.2354 5.04013 35.4464C5.16584 35.6573 5.22869 35.9162 5.22869 36.223C5.22869 36.5767 5.13601 36.8963 4.95064 37.1818C4.7674 37.4673 4.49893 37.6942 4.14524 37.8626C3.79368 38.0309 3.36648 38.1151 2.86364 38.1151C2.39489 38.1151 1.98899 38.0394 1.64595 37.8881C1.30504 37.7369 1.03658 37.5259 0.840554 37.2553C0.646662 36.9847 0.536932 36.6705 0.511364 36.3125H1.32955C1.35085 36.5597 1.43395 36.7642 1.57884 36.9261C1.72585 37.0859 1.91122 37.2053 2.13494 37.2841C2.3608 37.3608 2.60369 37.3991 2.86364 37.3991C3.16619 37.3991 3.43786 37.3501 3.67862 37.2521C3.91939 37.152 4.11009 37.0135 4.25071 36.8366C4.39134 36.6577 4.46165 36.4489 4.46165 36.2102C4.46165 35.9929 4.40092 35.8161 4.27947 35.6797C4.15803 35.5433 3.99822 35.4325 3.80007 35.3473C3.60192 35.2621 3.38778 35.1875 3.15767 35.1236L2.35227 34.8935C1.84091 34.7464 1.43608 34.5366 1.13778 34.2638C0.839489 33.9911 0.690341 33.6342 0.690341 33.1932C0.690341 32.8267 0.789418 32.5071 0.987571 32.2344C1.18786 31.9595 1.45632 31.7464 1.79297 31.5952C2.13175 31.4418 2.50994 31.3651 2.92756 31.3651C3.34943 31.3651 3.72443 31.4407 4.05256 31.592C4.38068 31.7411 4.64063 31.9457 4.83239 32.2056C5.02628 32.4656 5.12855 32.7607 5.1392 33.0909H4.37216ZM6.5196 38V33.0909H7.27386V38H6.5196ZM6.90312 32.2727C6.7561 32.2727 6.62933 32.2227 6.52279 32.1225C6.41839 32.0224 6.36619 31.902 6.36619 31.7614C6.36619 31.6207 6.41839 31.5004 6.52279 31.4002C6.62933 31.3001 6.7561 31.25 6.90312 31.25C7.05014 31.25 7.17585 31.3001 7.28025 31.4002C7.38679 31.5004 7.44005 31.6207 7.44005 31.7614C7.44005 31.902 7.38679 32.0224 7.28025 32.1225C7.17585 32.2227 7.05014 32.2727 6.90312 32.2727ZM8.60472 38V37.4247L11.3916 33.8452V33.794H8.6942V33.0909H12.3632V33.6918L9.65301 37.2457V37.2969H12.4527V38H8.60472ZM15.6221 38.1023C15.1491 38.1023 14.7411 37.9979 14.398 37.7891C14.0571 37.5781 13.794 37.2841 13.6086 36.907C13.4254 36.5277 13.3337 36.0866 13.3337 35.5838C13.3337 35.081 13.4254 34.6378 13.6086 34.2543C13.794 33.8686 14.0518 33.5682 14.382 33.353C14.7144 33.1357 15.1022 33.027 15.5454 33.027C15.8011 33.027 16.0536 33.0696 16.3028 33.1548C16.5521 33.2401 16.7791 33.3786 16.9836 33.5703C17.1881 33.7599 17.3511 34.0114 17.4726 34.3246C17.594 34.6378 17.6548 35.0234 17.6548 35.4815V35.8011H13.8707V35.1491H16.8877C16.8877 34.8722 16.8323 34.625 16.7215 34.4077C16.6129 34.1903 16.4573 34.0188 16.2549 33.8931C16.0546 33.7674 15.8181 33.7045 15.5454 33.7045C15.245 33.7045 14.985 33.7791 14.7656 33.9283C14.5482 34.0753 14.381 34.267 14.2638 34.5036C14.1466 34.7401 14.088 34.9936 14.088 35.2642V35.6989C14.088 36.0696 14.1519 36.3839 14.2798 36.6417C14.4097 36.8974 14.5898 37.0923 14.8199 37.2266C15.05 37.3587 15.3174 37.4247 15.6221 37.4247C15.8202 37.4247 15.9992 37.397 16.159 37.3416C16.321 37.2841 16.4605 37.1989 16.5777 37.0859C16.6949 36.9709 16.7854 36.8281 16.8494 36.6577L17.5781 36.8622C17.5014 37.1094 17.3725 37.3267 17.1913 37.5142C17.0102 37.6996 16.7865 37.8445 16.5202 37.9489C16.2538 38.0511 15.9545 38.1023 15.6221 38.1023ZM19.199 34.8423V34.152H23.1365V34.8423H19.199ZM19.199 36.7344V36.044H23.1365V36.7344H19.199ZM27.2031 31.4545V38H26.4105V32.2855H26.3721L24.7741 33.3466V32.5412L26.4105 31.4545H27.2031ZM31.3105 38.0895C30.829 38.0895 30.4188 37.9585 30.08 37.6964C29.7413 37.4322 29.4824 37.0497 29.3034 36.549C29.1244 36.0462 29.0349 35.4389 29.0349 34.7273C29.0349 34.0199 29.1244 33.4158 29.3034 32.9151C29.4845 32.4123 29.7445 32.0288 30.0832 31.7646C30.4241 31.4982 30.8332 31.3651 31.3105 31.3651C31.7878 31.3651 32.1958 31.4982 32.5346 31.7646C32.8755 32.0288 33.1354 32.4123 33.3144 32.9151C33.4955 33.4158 33.5861 34.0199 33.5861 34.7273C33.5861 35.4389 33.4966 36.0462 33.3176 36.549C33.1386 37.0497 32.8798 37.4322 32.541 37.6964C32.2022 37.9585 31.792 38.0895 31.3105 38.0895ZM31.3105 37.3864C31.7878 37.3864 32.1585 37.1562 32.4227 36.696C32.6869 36.2358 32.819 35.5795 32.819 34.7273C32.819 34.1605 32.7583 33.6779 32.6369 33.2795C32.5175 32.881 32.345 32.5774 32.1191 32.3686C31.8954 32.1598 31.6258 32.0554 31.3105 32.0554C30.8375 32.0554 30.4678 32.2887 30.2015 32.7553C29.9352 33.2198 29.802 33.8771 29.802 34.7273C29.802 35.294 29.8616 35.7756 29.981 36.1719C30.1003 36.5682 30.2718 36.8697 30.4955 37.0763C30.7214 37.283 30.993 37.3864 31.3105 37.3864ZM37.0255 38.0895C36.544 38.0895 36.1338 37.9585 35.795 37.6964C35.4563 37.4322 35.1974 37.0497 35.0184 36.549C34.8394 36.0462 34.7499 35.4389 34.7499 34.7273C34.7499 34.0199 34.8394 33.4158 35.0184 32.9151C35.1995 32.4123 35.4595 32.0288 35.7982 31.7646C36.1391 31.4982 36.5482 31.3651 37.0255 31.3651C37.5028 31.3651 37.9108 31.4982 38.2496 31.7646C38.5905 32.0288 38.8504 32.4123 39.0294 32.9151C39.2105 33.4158 39.3011 34.0199 39.3011 34.7273C39.3011 35.4389 39.2116 36.0462 39.0326 36.549C38.8536 37.0497 38.5948 37.4322 38.256 37.6964C37.9172 37.9585 37.507 38.0895 37.0255 38.0895ZM37.0255 37.3864C37.5028 37.3864 37.8735 37.1562 38.1377 36.696C38.4019 36.2358 38.534 35.5795 38.534 34.7273C38.534 34.1605 38.4733 33.6779 38.3519 33.2795C38.2325 32.881 38.06 32.5774 37.8341 32.3686C37.6104 32.1598 37.3408 32.0554 37.0255 32.0554C36.5525 32.0554 36.1828 32.2887 35.9165 32.7553C35.6502 33.2198 35.517 33.8771 35.517 34.7273C35.517 35.294 35.5766 35.7756 35.696 36.1719C35.8153 36.5682 35.9868 36.8697 36.2105 37.0763C36.4364 37.283 36.708 37.3864 37.0255 37.3864ZM44.4536 36.8239L40.8485 33.2188L41.3343 32.733L44.9394 36.3381L44.4536 36.8239ZM41.3343 36.8239L40.8485 36.3381L44.4536 32.733L44.9394 33.2188L41.3343 36.8239ZM48.9293 31.4545V38H48.1367V32.2855H48.0984L46.5003 33.3466V32.5412L48.1367 31.4545H48.9293ZM53.0367 38.0895C52.5552 38.0895 52.145 37.9585 51.8063 37.6964C51.4675 37.4322 51.2086 37.0497 51.0296 36.549C50.8506 36.0462 50.7612 35.4389 50.7612 34.7273C50.7612 34.0199 50.8506 33.4158 51.0296 32.9151C51.2107 32.4123 51.4707 32.0288 51.8094 31.7646C52.1504 31.4982 52.5594 31.3651 53.0367 31.3651C53.514 31.3651 53.922 31.4982 54.2608 31.7646C54.6017 32.0288 54.8616 32.4123 55.0406 32.9151C55.2217 33.4158 55.3123 34.0199 55.3123 34.7273C55.3123 35.4389 55.2228 36.0462 55.0438 36.549C54.8648 37.0497 54.606 37.4322 54.2672 37.6964C53.9284 37.9585 53.5183 38.0895 53.0367 38.0895ZM53.0367 37.3864C53.514 37.3864 53.8847 37.1562 54.1489 36.696C54.4131 36.2358 54.5452 35.5795 54.5452 34.7273C54.5452 34.1605 54.4845 33.6779 54.3631 33.2795C54.2438 32.881 54.0712 32.5774 53.8453 32.3686C53.6216 32.1598 53.3521 32.0554 53.0367 32.0554C52.5637 32.0554 52.194 32.2887 51.9277 32.7553C51.6614 33.2198 51.5282 33.8771 51.5282 34.7273C51.5282 35.294 51.5879 35.7756 51.7072 36.1719C51.8265 36.5682 51.998 36.8697 52.2217 37.0763C52.4476 37.283 52.7192 37.3864 53.0367 37.3864ZM58.7517 38.0895C58.2702 38.0895 57.86 37.9585 57.5213 37.6964C57.1825 37.4322 56.9236 37.0497 56.7446 36.549C56.5656 36.0462 56.4762 35.4389 56.4762 34.7273C56.4762 34.0199 56.5656 33.4158 56.7446 32.9151C56.9257 32.4123 57.1857 32.0288 57.5244 31.7646C57.8654 31.4982 58.2744 31.3651 58.7517 31.3651C59.229 31.3651 59.637 31.4982 59.9758 31.7646C60.3167 32.0288 60.5766 32.4123 60.7556 32.9151C60.9367 33.4158 61.0273 34.0199 61.0273 34.7273C61.0273 35.4389 60.9378 36.0462 60.7588 36.549C60.5798 37.0497 60.321 37.4322 59.9822 37.6964C59.6434 37.9585 59.2333 38.0895 58.7517 38.0895ZM58.7517 37.3864C59.229 37.3864 59.5997 37.1562 59.8639 36.696C60.1281 36.2358 60.2602 35.5795 60.2602 34.7273C60.2602 34.1605 60.1995 33.6779 60.0781 33.2795C59.9588 32.881 59.7862 32.5774 59.5603 32.3686C59.3366 32.1598 59.0671 32.0554 58.7517 32.0554C58.2787 32.0554 57.909 32.2887 57.6427 32.7553C57.3764 33.2198 57.2432 33.8771 57.2432 34.7273C57.2432 35.294 57.3029 35.7756 57.4222 36.1719C57.5415 36.5682 57.713 36.8697 57.9367 37.0763C58.1626 37.283 58.4342 37.3864 58.7517 37.3864ZM6.31534 45.7273C6.31534 46.4176 6.1907 47.0142 5.94141 47.517C5.69212 48.0199 5.35014 48.4077 4.91548 48.6804C4.48082 48.9531 3.98438 49.0895 3.42614 49.0895C2.8679 49.0895 2.37145 48.9531 1.93679 48.6804C1.50213 48.4077 1.16016 48.0199 0.910867 47.517C0.661577 47.0142 0.536932 46.4176 0.536932 45.7273C0.536932 45.0369 0.661577 44.4403 0.910867 43.9375C1.16016 43.4347 1.50213 43.0469 1.93679 42.7741C2.37145 42.5014 2.8679 42.3651 3.42614 42.3651C3.98438 42.3651 4.48082 42.5014 4.91548 42.7741C5.35014 43.0469 5.69212 43.4347 5.94141 43.9375C6.1907 44.4403 6.31534 45.0369 6.31534 45.7273ZM5.5483 45.7273C5.5483 45.1605 5.45348 44.6822 5.26385 44.2923C5.07635 43.9023 4.82173 43.6072 4.5 43.407C4.1804 43.2067 3.82244 43.1065 3.42614 43.1065C3.02983 43.1065 2.67081 43.2067 2.34908 43.407C2.02947 43.6072 1.77486 43.9023 1.58523 44.2923C1.39773 44.6822 1.30398 45.1605 1.30398 45.7273C1.30398 46.294 1.39773 46.7724 1.58523 47.1623C1.77486 47.5522 2.02947 47.8473 2.34908 48.0476C2.67081 48.2479 3.02983 48.348 3.42614 48.348C3.82244 48.348 4.1804 48.2479 4.5 48.0476C4.82173 47.8473 5.07635 47.5522 5.26385 47.1623C5.45348 46.7724 5.5483 46.294 5.5483 45.7273ZM7.63581 49V44.0909H8.3645V44.8324H8.41564C8.50513 44.5895 8.66706 44.3924 8.90143 44.2411C9.13581 44.0898 9.40001 44.0142 9.69405 44.0142C9.74945 44.0142 9.81869 44.0153 9.90179 44.0174C9.98489 44.0195 10.0477 44.0227 10.0904 44.027V44.794C10.0648 44.7876 10.0062 44.7781 9.91457 44.7653C9.82509 44.7504 9.73027 44.7429 9.63013 44.7429C9.39149 44.7429 9.17842 44.793 8.99092 44.8931C8.80555 44.9911 8.65854 45.1275 8.54987 45.3022C8.44334 45.4748 8.39007 45.6719 8.39007 45.8935V49H7.63581ZM11.0744 49V44.0909H11.8287V49H11.0744ZM11.458 43.2727C11.3109 43.2727 11.1842 43.2227 11.0776 43.1225C10.9732 43.0224 10.921 42.902 10.921 42.7614C10.921 42.6207 10.9732 42.5004 11.0776 42.4002C11.1842 42.3001 11.3109 42.25 11.458 42.25C11.605 42.25 11.7307 42.3001 11.8351 42.4002C11.9416 42.5004 11.9949 42.6207 11.9949 42.7614C11.9949 42.902 11.9416 43.0224 11.8351 43.1225C11.7307 43.2227 11.605 43.2727 11.458 43.2727ZM15.2817 50.9432C14.9174 50.9432 14.6042 50.8963 14.3421 50.8026C14.08 50.7109 13.8616 50.5895 13.6869 50.4382C13.5143 50.2891 13.3769 50.1293 13.2746 49.9588L13.8755 49.5369C13.9437 49.6264 14.0299 49.7287 14.1343 49.8438C14.2388 49.9609 14.3815 50.0621 14.5626 50.1474C14.7459 50.2347 14.9856 50.2784 15.2817 50.2784C15.678 50.2784 16.0051 50.1825 16.2629 49.9908C16.5207 49.799 16.6496 49.4986 16.6496 49.0895V48.0923H16.5857C16.5303 48.1818 16.4515 48.2926 16.3492 48.4247C16.249 48.5547 16.1042 48.6708 15.9145 48.7731C15.727 48.8732 15.4735 48.9233 15.1539 48.9233C14.7576 48.9233 14.4017 48.8295 14.0864 48.642C13.7732 48.4545 13.525 48.1818 13.3417 47.8239C13.1606 47.4659 13.0701 47.0312 13.0701 46.5199C13.0701 46.017 13.1585 45.5792 13.3353 45.2063C13.5122 44.8313 13.7583 44.5415 14.0736 44.337C14.389 44.1303 14.7533 44.027 15.1667 44.027C15.4863 44.027 15.7398 44.0803 15.9273 44.1868C16.1169 44.2912 16.2618 44.4105 16.362 44.5447C16.4642 44.6768 16.5431 44.7855 16.5985 44.8707H16.6752V44.0909H17.4039V49.1406C17.4039 49.5625 17.308 49.9055 17.1162 50.1697C16.9266 50.4361 16.6709 50.631 16.3492 50.7546C16.0296 50.8803 15.6738 50.9432 15.2817 50.9432ZM15.2562 48.2457C15.5587 48.2457 15.8144 48.1765 16.0232 48.038C16.232 47.8995 16.3907 47.7003 16.4994 47.4403C16.6081 47.1804 16.6624 46.8693 16.6624 46.5071C16.6624 46.1534 16.6091 45.8413 16.5026 45.5707C16.3961 45.3001 16.2384 45.0881 16.0296 44.9347C15.8208 44.7812 15.563 44.7045 15.2562 44.7045C14.9365 44.7045 14.6702 44.7855 14.4571 44.9474C14.2462 45.1094 14.0875 45.3267 13.9809 45.5994C13.8765 45.8722 13.8243 46.1747 13.8243 46.5071C13.8243 46.848 13.8776 47.1495 13.9841 47.4116C14.0928 47.6715 14.2526 47.8761 14.4635 48.0252C14.6766 48.1722 14.9408 48.2457 15.2562 48.2457ZM18.8746 49V44.0909H19.6288V49H18.8746ZM19.2581 43.2727C19.1111 43.2727 18.9843 43.2227 18.8778 43.1225C18.7734 43.0224 18.7212 42.902 18.7212 42.7614C18.7212 42.6207 18.7734 42.5004 18.8778 42.4002C18.9843 42.3001 19.1111 42.25 19.2581 42.25C19.4051 42.25 19.5308 42.3001 19.6352 42.4002C19.7417 42.5004 19.795 42.6207 19.795 42.7614C19.795 42.902 19.7417 43.0224 19.6352 43.1225C19.5308 43.2227 19.4051 43.2727 19.2581 43.2727ZM21.8546 46.0469V49H21.1003V44.0909H21.829V44.858H21.8929C22.008 44.6087 22.1827 44.4084 22.4171 44.2571C22.6514 44.1037 22.954 44.027 23.3247 44.027C23.6571 44.027 23.948 44.0952 24.1972 44.2315C24.4465 44.3658 24.6404 44.5703 24.7789 44.8452C24.9174 45.1179 24.9867 45.4631 24.9867 45.8807V49H24.2324V45.9318C24.2324 45.5462 24.1323 45.2457 23.932 45.0305C23.7317 44.8132 23.4568 44.7045 23.1074 44.7045C22.8666 44.7045 22.6514 44.7567 22.4618 44.8612C22.2743 44.9656 22.1262 45.1179 22.0176 45.3182C21.9089 45.5185 21.8546 45.7614 21.8546 46.0469ZM26.7618 45.8423V45.152H30.6993V45.8423H26.7618ZM26.7618 47.7344V47.044H30.6993V47.7344H26.7618ZM34.7659 42.4545V49H33.9733V43.2855H33.935L32.3369 44.3466V43.5412L33.9733 42.4545H34.7659ZM38.8733 49.0895C38.3918 49.0895 37.9816 48.9585 37.6429 48.6964C37.3041 48.4322 37.0452 48.0497 36.8662 47.549C36.6872 47.0462 36.5978 46.4389 36.5978 45.7273C36.5978 45.0199 36.6872 44.4158 36.8662 43.9151C37.0473 43.4123 37.3073 43.0288 37.646 42.7646C37.987 42.4982 38.396 42.3651 38.8733 42.3651C39.3506 42.3651 39.7586 42.4982 40.0974 42.7646C40.4383 43.0288 40.6983 43.4123 40.8772 43.9151C41.0583 44.4158 41.1489 45.0199 41.1489 45.7273C41.1489 46.4389 41.0594 47.0462 40.8804 47.549C40.7014 48.0497 40.4426 48.4322 40.1038 48.6964C39.765 48.9585 39.3549 49.0895 38.8733 49.0895ZM38.8733 48.3864C39.3506 48.3864 39.7213 48.1562 39.9855 47.696C40.2497 47.2358 40.3818 46.5795 40.3818 45.7273C40.3818 45.1605 40.3211 44.6779 40.1997 44.2795C40.0804 43.881 39.9078 43.5774 39.6819 43.3686C39.4582 43.1598 39.1887 43.0554 38.8733 43.0554C38.4003 43.0554 38.0306 43.2887 37.7643 43.7553C37.498 44.2198 37.3648 44.8771 37.3648 45.7273C37.3648 46.294 37.4245 46.7756 37.5438 47.1719C37.6631 47.5682 37.8346 47.8697 38.0583 48.0763C38.2842 48.283 38.5558 48.3864 38.8733 48.3864ZM44.5883 49.0895C44.1068 49.0895 43.6966 48.9585 43.3579 48.6964C43.0191 48.4322 42.7602 48.0497 42.5812 47.549C42.4022 47.0462 42.3128 46.4389 42.3128 45.7273C42.3128 45.0199 42.4022 44.4158 42.5812 43.9151C42.7623 43.4123 43.0223 43.0288 43.361 42.7646C43.702 42.4982 44.111 42.3651 44.5883 42.3651C45.0656 42.3651 45.4736 42.4982 45.8124 42.7646C46.1533 43.0288 46.4133 43.4123 46.5922 43.9151C46.7733 44.4158 46.8639 45.0199 46.8639 45.7273C46.8639 46.4389 46.7744 47.0462 46.5954 47.549C46.4164 48.0497 46.1576 48.4322 45.8188 48.6964C45.48 48.9585 45.0699 49.0895 44.5883 49.0895ZM44.5883 48.3864C45.0656 48.3864 45.4363 48.1562 45.7005 47.696C45.9647 47.2358 46.0968 46.5795 46.0968 45.7273C46.0968 45.1605 46.0361 44.6779 45.9147 44.2795C45.7954 43.881 45.6228 43.5774 45.3969 43.3686C45.1732 43.1598 44.9037 43.0554 44.5883 43.0554C44.1153 43.0554 43.7456 43.2887 43.4793 43.7553C43.213 44.2198 43.0798 44.8771 43.0798 45.7273C43.0798 46.294 43.1395 46.7756 43.2588 47.1719C43.3781 47.5682 43.5496 47.8697 43.7733 48.0763C43.9992 48.283 44.2709 48.3864 44.5883 48.3864ZM49.0776 48.1051L49.0265 48.4503C48.9903 48.6932 48.9349 48.9531 48.8603 49.2301C48.7879 49.5071 48.7122 49.7681 48.6334 50.0131C48.5546 50.2582 48.4896 50.4531 48.4384 50.598H47.8632C47.8909 50.4616 47.9271 50.2816 47.9718 50.0579C48.0166 49.8342 48.0613 49.5838 48.1061 49.3068C48.1529 49.032 48.1913 48.7507 48.2211 48.4631L48.2595 48.1051H49.0776ZM52.4588 49.0895C51.9772 49.0895 51.5671 48.9585 51.2283 48.6964C50.8895 48.4322 50.6306 48.0497 50.4516 47.549C50.2727 47.0462 50.1832 46.4389 50.1832 45.7273C50.1832 45.0199 50.2727 44.4158 50.4516 43.9151C50.6328 43.4123 50.8927 43.0288 51.2315 42.7646C51.5724 42.4982 51.9815 42.3651 52.4588 42.3651C52.936 42.3651 53.3441 42.4982 53.6828 42.7646C54.0237 43.0288 54.2837 43.4123 54.4627 43.9151C54.6438 44.4158 54.7343 45.0199 54.7343 45.7273C54.7343 46.4389 54.6448 47.0462 54.4659 47.549C54.2869 48.0497 54.028 48.4322 53.6892 48.6964C53.3504 48.9585 52.9403 49.0895 52.4588 49.0895ZM52.4588 48.3864C52.936 48.3864 53.3068 48.1562 53.571 47.696C53.8352 47.2358 53.9673 46.5795 53.9673 45.7273C53.9673 45.1605 53.9066 44.6779 53.7851 44.2795C53.6658 43.881 53.4932 43.5774 53.2673 43.3686C53.0436 43.1598 52.7741 43.0554 52.4588 43.0554C51.9857 43.0554 51.6161 43.2887 51.3497 43.7553C51.0834 44.2198 50.9502 44.8771 50.9502 45.7273C50.9502 46.294 51.0099 46.7756 51.1292 47.1719C51.2485 47.5682 51.42 47.8697 51.6438 48.0763C51.8696 48.283 52.1413 48.3864 52.4588 48.3864Z" fill="black"/>
<path d="M2.0348 8.72727V16H0.71733V8.72727H2.0348ZM4.79016 12.804V16H3.50465V10.5455H4.73335V11.4723H4.79727C4.92274 11.1669 5.12279 10.9242 5.39741 10.7443C5.6744 10.5644 6.01649 10.4744 6.42369 10.4744C6.80011 10.4744 7.12799 10.5549 7.40735 10.7159C7.68907 10.8769 7.90688 11.1101 8.06076 11.4155C8.21701 11.7209 8.29395 12.0914 8.29158 12.527V16H7.00607V12.7259C7.00607 12.3613 6.91138 12.076 6.72198 11.87C6.53496 11.6641 6.27572 11.5611 5.94428 11.5611C5.71938 11.5611 5.51933 11.6108 5.34414 11.7102C5.17132 11.8073 5.03519 11.9482 4.93576 12.1328C4.8387 12.3175 4.79016 12.5412 4.79016 12.804ZM9.6984 16V10.5455H10.9839V16H9.6984ZM10.3447 9.77131C10.1411 9.77131 9.96592 9.70384 9.81914 9.56889C9.67236 9.43158 9.59897 9.26705 9.59897 9.07528C9.59897 8.88116 9.67236 8.71662 9.81914 8.58168C9.96592 8.44437 10.1411 8.37571 10.3447 8.37571C10.5507 8.37571 10.7259 8.44437 10.8703 8.58168C11.0171 8.71662 11.0904 8.88116 11.0904 9.07528C11.0904 9.26705 11.0171 9.43158 10.8703 9.56889C10.7259 9.70384 10.5507 9.77131 10.3447 9.77131ZM15.1295 10.5455V11.5398H11.9939V10.5455H15.1295ZM12.768 9.23864H14.0536V14.3594C14.0536 14.5322 14.0796 14.6648 14.1317 14.7571C14.1861 14.8471 14.2571 14.9086 14.3447 14.9418C14.4323 14.9749 14.5294 14.9915 14.6359 14.9915C14.7164 14.9915 14.7898 14.9856 14.8561 14.9737C14.9248 14.9619 14.9768 14.9512 15.0124 14.9418L15.229 15.9467C15.1603 15.9704 15.0621 15.9964 14.9342 16.0249C14.8088 16.0533 14.6549 16.0698 14.4726 16.0746C14.1506 16.084 13.8606 16.0355 13.6026 15.929C13.3445 15.8201 13.1397 15.652 12.9882 15.4247C12.8391 15.1974 12.7657 14.9134 12.768 14.5724V9.23864ZM16.3047 16V10.5455H17.5902V16H16.3047ZM16.951 9.77131C16.7474 9.77131 16.5722 9.70384 16.4254 9.56889C16.2786 9.43158 16.2052 9.26705 16.2052 9.07528C16.2052 8.88116 16.2786 8.71662 16.4254 8.58168C16.5722 8.44437 16.7474 8.37571 16.951 8.37571C17.1569 8.37571 17.3321 8.44437 17.4765 8.58168C17.6233 8.71662 17.6967 8.88116 17.6967 9.07528C17.6967 9.26705 17.6233 9.43158 17.4765 9.56889C17.3321 9.70384 17.1569 9.77131 16.951 9.77131ZM20.5817 16.1101C20.236 16.1101 19.9247 16.0485 19.6477 15.9254C19.3731 15.8 19.1553 15.6153 18.9943 15.3714C18.8357 15.1276 18.7564 14.8269 18.7564 14.4695C18.7564 14.1617 18.8132 13.9072 18.9268 13.706C19.0405 13.5047 19.1955 13.3438 19.392 13.223C19.5885 13.1023 19.8099 13.0111 20.0561 12.9496C20.3047 12.8857 20.5616 12.8395 20.8267 12.8111C21.1463 12.7779 21.4055 12.7483 21.6044 12.7223C21.8033 12.6939 21.9477 12.6513 22.0376 12.5945C22.13 12.5353 22.1761 12.4441 22.1761 12.321V12.2997C22.1761 12.0322 22.0968 11.825 21.9382 11.6783C21.7796 11.5315 21.5511 11.4581 21.2528 11.4581C20.938 11.4581 20.6882 11.5268 20.5036 11.6641C20.3213 11.8014 20.1982 11.9635 20.1342 12.1506L18.9339 11.9801C19.0286 11.6487 19.1849 11.3717 19.4027 11.1491C19.6205 10.9242 19.8868 10.7562 20.2017 10.6449C20.5166 10.5312 20.8646 10.4744 21.2457 10.4744C21.5085 10.4744 21.7701 10.5052 22.0305 10.5668C22.291 10.6283 22.5289 10.7301 22.7443 10.8722C22.9598 11.0118 23.1326 11.2024 23.2628 11.4439C23.3954 11.6854 23.4616 11.9872 23.4616 12.3494V16H22.2259V15.2507H22.1832C22.1051 15.4022 21.995 15.5443 21.853 15.6768C21.7133 15.8071 21.5369 15.9124 21.3239 15.9929C21.1132 16.071 20.8658 16.1101 20.5817 16.1101ZM20.9155 15.1655C21.1735 15.1655 21.3973 15.1146 21.5866 15.0128C21.776 14.9086 21.9216 14.7713 22.0234 14.6009C22.1276 14.4304 22.1797 14.2446 22.1797 14.0433V13.4006C22.1394 13.4337 22.0708 13.4645 21.9737 13.4929C21.879 13.5213 21.7725 13.5462 21.6541 13.5675C21.5357 13.5888 21.4186 13.6077 21.3026 13.6243C21.1866 13.6409 21.0859 13.6551 21.0007 13.6669C20.8089 13.6929 20.6373 13.7356 20.4858 13.7947C20.3343 13.8539 20.2147 13.9368 20.1271 14.0433C20.0395 14.1475 19.9957 14.2824 19.9957 14.4482C19.9957 14.6849 20.0821 14.8636 20.255 14.9844C20.4278 15.1051 20.648 15.1655 20.9155 15.1655ZM26.1398 8.72727V16H24.8543V8.72727H26.1398Z" fill="black"/>
<path d="M0.71733 151V143.727H3.4446C4.00331 143.727 4.47206 143.824 4.85085 144.018C5.23201 144.213 5.51965 144.485 5.71378 144.835C5.91027 145.183 6.00852 145.589 6.00852 146.053C6.00852 146.52 5.90909 146.924 5.71023 147.268C5.51373 147.609 5.22372 147.873 4.8402 148.06C4.45668 148.244 3.98556 148.337 3.42685 148.337H1.48438V147.243H3.24929C3.57599 147.243 3.84351 147.198 4.05185 147.108C4.26018 147.016 4.41406 146.882 4.51349 146.707C4.61529 146.529 4.66619 146.311 4.66619 146.053C4.66619 145.795 4.61529 145.575 4.51349 145.393C4.4117 145.208 4.25663 145.068 4.0483 144.974C3.83996 144.877 3.57126 144.828 3.24219 144.828H2.0348V151H0.71733ZM4.47443 147.705L6.27486 151H4.80469L3.03622 147.705H4.47443ZM9.60107 151.107C9.05419 151.107 8.58189 150.993 8.18416 150.766C7.7888 150.536 7.48459 150.212 7.27152 149.793C7.05845 149.371 6.95192 148.875 6.95192 148.305C6.95192 147.744 7.05845 147.251 7.27152 146.827C7.48696 146.401 7.78762 146.07 8.17351 145.833C8.5594 145.594 9.01276 145.474 9.53359 145.474C9.86977 145.474 10.187 145.529 10.4853 145.638C10.786 145.744 11.0511 145.91 11.2808 146.135C11.5128 146.36 11.6951 146.646 11.8276 146.994C11.9602 147.34 12.0265 147.752 12.0265 148.23V148.624H7.55561V147.758H10.7942C10.7919 147.512 10.7386 147.293 10.6344 147.101C10.5303 146.907 10.3847 146.754 10.1977 146.643C10.013 146.531 9.79756 146.476 9.55135 146.476C9.28857 146.476 9.05774 146.54 8.85888 146.668C8.66001 146.793 8.50495 146.959 8.39368 147.165C8.28478 147.368 8.22914 147.592 8.22678 147.836V148.592C8.22678 148.91 8.28478 149.182 8.40078 149.409C8.51679 149.634 8.67895 149.807 8.88729 149.928C9.09562 150.046 9.33946 150.105 9.61882 150.105C9.80585 150.105 9.97512 150.079 10.1266 150.027C10.2781 149.973 10.4095 149.893 10.5208 149.789C10.6321 149.685 10.7161 149.556 10.7729 149.402L11.9732 149.537C11.8975 149.854 11.7531 150.131 11.54 150.368C11.3293 150.602 11.0594 150.785 10.7303 150.915C10.4013 151.043 10.0248 151.107 9.60107 151.107ZM17.5251 146.987L16.3532 147.115C16.3201 146.997 16.2621 146.885 16.1792 146.781C16.0987 146.677 15.9898 146.593 15.8525 146.529C15.7152 146.465 15.5471 146.433 15.3483 146.433C15.0807 146.433 14.8558 146.491 14.6735 146.607C14.4936 146.723 14.4048 146.874 14.4072 147.058C14.4048 147.217 14.4628 147.346 14.5812 147.445C14.702 147.545 14.9008 147.626 15.1778 147.69L16.1082 147.889C16.6243 148 17.0078 148.177 17.2588 148.418C17.5121 148.66 17.6399 148.976 17.6423 149.366C17.6399 149.71 17.5393 150.013 17.3404 150.276C17.144 150.536 16.8705 150.74 16.5201 150.886C16.1698 151.033 15.7673 151.107 15.3127 151.107C14.6451 151.107 14.1077 150.967 13.7005 150.688C13.2933 150.406 13.0507 150.014 12.9725 149.512L14.2261 149.391C14.2829 149.638 14.4037 149.823 14.5883 149.949C14.773 150.074 15.0133 150.137 15.3092 150.137C15.6146 150.137 15.8596 150.074 16.0443 149.949C16.2313 149.823 16.3248 149.668 16.3248 149.484C16.3248 149.327 16.2645 149.198 16.1437 149.097C16.0253 148.995 15.8407 148.917 15.5897 148.862L14.6593 148.667C14.1361 148.558 13.7491 148.375 13.4981 148.116C13.2472 147.856 13.1229 147.527 13.1252 147.129C13.1229 146.793 13.214 146.502 13.3987 146.256C13.5857 146.007 13.8449 145.815 14.1764 145.68C14.5102 145.543 14.8949 145.474 15.3305 145.474C15.9697 145.474 16.4728 145.611 16.8397 145.883C17.2091 146.155 17.4375 146.523 17.5251 146.987ZM18.8023 151V145.545H20.0878V151H18.8023ZM19.4486 144.771C19.245 144.771 19.0698 144.704 18.923 144.569C18.7763 144.432 18.7029 144.267 18.7029 144.075C18.7029 143.881 18.7763 143.717 18.923 143.582C19.0698 143.444 19.245 143.376 19.4486 143.376C19.6546 143.376 19.8298 143.444 19.9742 143.582C20.121 143.717 20.1944 143.881 20.1944 144.075C20.1944 144.267 20.121 144.432 19.9742 144.569C19.8298 144.704 19.6546 144.771 19.4486 144.771ZM21.4387 151V150.183L24.2512 146.657V146.611H21.531V145.545H25.8244V146.423L23.1468 149.888V149.935H25.9167V151H21.4387ZM29.4835 151.107C28.9366 151.107 28.4643 150.993 28.0666 150.766C27.6712 150.536 27.367 150.212 27.1539 149.793C26.9409 149.371 26.8343 148.875 26.8343 148.305C26.8343 147.744 26.9409 147.251 27.1539 146.827C27.3694 146.401 27.67 146.07 28.0559 145.833C28.4418 145.594 28.8952 145.474 29.416 145.474C29.7522 145.474 30.0694 145.529 30.3677 145.638C30.6684 145.744 30.9335 145.91 31.1632 146.135C31.3952 146.36 31.5775 146.646 31.71 146.994C31.8426 147.34 31.9089 147.752 31.9089 148.23V148.624H27.438V147.758H30.6767C30.6743 147.512 30.621 147.293 30.5169 147.101C30.4127 146.907 30.2671 146.754 30.0801 146.643C29.8954 146.531 29.68 146.476 29.4338 146.476C29.171 146.476 28.9402 146.54 28.7413 146.668C28.5424 146.793 28.3874 146.959 28.2761 147.165C28.1672 147.368 28.1116 147.592 28.1092 147.836V148.592C28.1092 148.91 28.1672 149.182 28.2832 149.409C28.3992 149.634 28.5614 149.807 28.7697 149.928C28.978 150.046 29.2219 150.105 29.5012 150.105C29.6883 150.105 29.8575 150.079 30.0091 150.027C30.1606 149.973 30.292 149.893 30.4032 149.789C30.5145 149.685 30.5985 149.556 30.6554 149.402L31.8556 149.537C31.7799 149.854 31.6355 150.131 31.4224 150.368C31.2117 150.602 30.9418 150.785 30.6127 150.915C30.2837 151.043 29.9073 151.107 29.4835 151.107ZM38.4006 145.545V146.54H35.265V145.545H38.4006ZM36.0391 144.239H37.3246V149.359C37.3246 149.532 37.3507 149.665 37.4028 149.757C37.4572 149.847 37.5282 149.909 37.6158 149.942C37.7034 149.975 37.8005 149.991 37.907 149.991C37.9875 149.991 38.0609 149.986 38.1272 149.974C38.1959 149.962 38.2479 149.951 38.2835 149.942L38.5001 150.947C38.4314 150.97 38.3332 150.996 38.2053 151.025C38.0799 151.053 37.926 151.07 37.7437 151.075C37.4217 151.084 37.1317 151.036 36.8737 150.929C36.6156 150.82 36.4108 150.652 36.2593 150.425C36.1102 150.197 36.0368 149.913 36.0391 149.572V144.239ZM41.8964 151.107C41.3637 151.107 40.9021 150.989 40.5115 150.755C40.1208 150.521 39.8178 150.193 39.6024 149.771C39.3893 149.35 39.2828 148.857 39.2828 148.294C39.2828 147.731 39.3893 147.237 39.6024 146.813C39.8178 146.389 40.1208 146.06 40.5115 145.826C40.9021 145.592 41.3637 145.474 41.8964 145.474C42.4291 145.474 42.8907 145.592 43.2814 145.826C43.672 146.06 43.9738 146.389 44.1869 146.813C44.4023 147.237 44.51 147.731 44.51 148.294C44.51 148.857 44.4023 149.35 44.1869 149.771C43.9738 150.193 43.672 150.521 43.2814 150.755C42.8907 150.989 42.4291 151.107 41.8964 151.107ZM41.9035 150.077C42.1923 150.077 42.4338 149.997 42.6279 149.839C42.8221 149.678 42.9665 149.462 43.0612 149.192C43.1582 148.923 43.2068 148.622 43.2068 148.29C43.2068 147.957 43.1582 147.655 43.0612 147.385C42.9665 147.113 42.8221 146.896 42.6279 146.735C42.4338 146.574 42.1923 146.494 41.9035 146.494C41.6076 146.494 41.3614 146.574 41.1649 146.735C40.9707 146.896 40.8252 147.113 40.7281 147.385C40.6334 147.655 40.586 147.957 40.586 148.29C40.586 148.622 40.6334 148.923 40.7281 149.192C40.8252 149.462 40.9707 149.678 41.1649 149.839C41.3614 149.997 41.6076 150.077 41.9035 150.077ZM50.9556 151.138C50.3709 151.138 49.869 150.991 49.4499 150.695C49.0333 150.396 48.7125 149.967 48.4876 149.406C48.265 148.842 48.1538 148.164 48.1538 147.371C48.1561 146.578 48.2686 145.903 48.4911 145.347C48.716 144.788 49.0368 144.362 49.4535 144.068C49.8725 143.775 50.3732 143.628 50.9556 143.628C51.538 143.628 52.0387 143.775 52.4577 144.068C52.8768 144.362 53.1976 144.788 53.4201 145.347C53.645 145.905 53.7575 146.58 53.7575 147.371C53.7575 148.166 53.645 148.846 53.4201 149.409C53.1976 149.97 52.8768 150.399 52.4577 150.695C52.0411 150.991 51.5404 151.138 50.9556 151.138ZM50.9556 150.027C51.4102 150.027 51.7688 149.803 52.0316 149.356C52.2968 148.906 52.4293 148.244 52.4293 147.371C52.4293 146.793 52.369 146.308 52.2482 145.915C52.1275 145.522 51.957 145.226 51.7369 145.027C51.5167 144.826 51.2563 144.725 50.9556 144.725C50.5034 144.725 50.146 144.95 49.8832 145.4C49.6204 145.847 49.4878 146.504 49.4854 147.371C49.4831 147.951 49.5411 148.438 49.6594 148.834C49.7802 149.229 49.9506 149.527 50.1708 149.729C50.391 149.928 50.6526 150.027 50.9556 150.027ZM56.1027 145.545L57.2035 147.559L58.3221 145.545H59.6822L58.038 148.273L59.7106 151H58.3576L57.2035 149.036L56.06 151H54.6964L56.3583 148.273L54.739 145.545H56.1027ZM60.8333 151V143.727H62.1508V146.806H65.5208V143.727H66.8419V151H65.5208V147.911H62.1508V151H60.8333Z" fill="black"/>
<path d="M0.71733 306V298.727H3.4446C4.00331 298.727 4.47206 298.824 4.85085 299.018C5.23201 299.213 5.51965 299.485 5.71378 299.835C5.91027 300.183 6.00852 300.589 6.00852 301.053C6.00852 301.52 5.90909 301.924 5.71023 302.268C5.51373 302.609 5.22372 302.873 4.8402 303.06C4.45668 303.244 3.98556 303.337 3.42685 303.337H1.48438V302.243H3.24929C3.57599 302.243 3.84351 302.198 4.05185 302.108C4.26018 302.016 4.41406 301.882 4.51349 301.707C4.61529 301.529 4.66619 301.311 4.66619 301.053C4.66619 300.795 4.61529 300.575 4.51349 300.393C4.4117 300.208 4.25663 300.068 4.0483 299.974C3.83996 299.877 3.57126 299.828 3.24219 299.828H2.0348V306H0.71733ZM4.47443 302.705L6.27486 306H4.80469L3.03622 302.705H4.47443ZM9.60107 306.107C9.05419 306.107 8.58189 305.993 8.18416 305.766C7.7888 305.536 7.48459 305.212 7.27152 304.793C7.05845 304.371 6.95192 303.875 6.95192 303.305C6.95192 302.744 7.05845 302.251 7.27152 301.827C7.48696 301.401 7.78762 301.07 8.17351 300.833C8.5594 300.594 9.01276 300.474 9.53359 300.474C9.86977 300.474 10.187 300.529 10.4853 300.638C10.786 300.744 11.0511 300.91 11.2808 301.135C11.5128 301.36 11.6951 301.646 11.8276 301.994C11.9602 302.34 12.0265 302.752 12.0265 303.23V303.624H7.55561V302.758H10.7942C10.7919 302.512 10.7386 302.293 10.6344 302.101C10.5303 301.907 10.3847 301.754 10.1977 301.643C10.013 301.531 9.79756 301.476 9.55135 301.476C9.28857 301.476 9.05774 301.54 8.85888 301.668C8.66001 301.793 8.50495 301.959 8.39368 302.165C8.28478 302.368 8.22914 302.592 8.22678 302.836V303.592C8.22678 303.91 8.28478 304.182 8.40078 304.409C8.51679 304.634 8.67895 304.807 8.88729 304.928C9.09562 305.046 9.33946 305.105 9.61882 305.105C9.80585 305.105 9.97512 305.079 10.1266 305.027C10.2781 304.973 10.4095 304.893 10.5208 304.789C10.6321 304.685 10.7161 304.556 10.7729 304.402L11.9732 304.537C11.8975 304.854 11.7531 305.131 11.54 305.368C11.3293 305.602 11.0594 305.785 10.7303 305.915C10.4013 306.043 10.0248 306.107 9.60107 306.107ZM17.5251 301.987L16.3532 302.115C16.3201 301.997 16.2621 301.885 16.1792 301.781C16.0987 301.677 15.9898 301.593 15.8525 301.529C15.7152 301.465 15.5471 301.433 15.3483 301.433C15.0807 301.433 14.8558 301.491 14.6735 301.607C14.4936 301.723 14.4048 301.874 14.4072 302.058C14.4048 302.217 14.4628 302.346 14.5812 302.445C14.702 302.545 14.9008 302.626 15.1778 302.69L16.1082 302.889C16.6243 303 17.0078 303.177 17.2588 303.418C17.5121 303.66 17.6399 303.976 17.6423 304.366C17.6399 304.71 17.5393 305.013 17.3404 305.276C17.144 305.536 16.8705 305.74 16.5201 305.886C16.1698 306.033 15.7673 306.107 15.3127 306.107C14.6451 306.107 14.1077 305.967 13.7005 305.688C13.2933 305.406 13.0507 305.014 12.9725 304.512L14.2261 304.391C14.2829 304.638 14.4037 304.823 14.5883 304.949C14.773 305.074 15.0133 305.137 15.3092 305.137C15.6146 305.137 15.8596 305.074 16.0443 304.949C16.2313 304.823 16.3248 304.668 16.3248 304.484C16.3248 304.327 16.2645 304.198 16.1437 304.097C16.0253 303.995 15.8407 303.917 15.5897 303.862L14.6593 303.667C14.1361 303.558 13.7491 303.375 13.4981 303.116C13.2472 302.856 13.1229 302.527 13.1252 302.129C13.1229 301.793 13.214 301.502 13.3987 301.256C13.5857 301.007 13.8449 300.815 14.1764 300.68C14.5102 300.543 14.8949 300.474 15.3305 300.474C15.9697 300.474 16.4728 300.611 16.8397 300.883C17.2091 301.155 17.4375 301.523 17.5251 301.987ZM18.8023 306V300.545H20.0878V306H18.8023ZM19.4486 299.771C19.245 299.771 19.0698 299.704 18.923 299.569C18.7763 299.432 18.7029 299.267 18.7029 299.075C18.7029 298.881 18.7763 298.717 18.923 298.582C19.0698 298.444 19.245 298.376 19.4486 298.376C19.6546 298.376 19.8298 298.444 19.9742 298.582C20.121 298.717 20.1944 298.881 20.1944 299.075C20.1944 299.267 20.121 299.432 19.9742 299.569C19.8298 299.704 19.6546 299.771 19.4486 299.771ZM21.4387 306V305.183L24.2512 301.657V301.611H21.531V300.545H25.8244V301.423L23.1468 304.888V304.935H25.9167V306H21.4387ZM29.4835 306.107C28.9366 306.107 28.4643 305.993 28.0666 305.766C27.6712 305.536 27.367 305.212 27.1539 304.793C26.9409 304.371 26.8343 303.875 26.8343 303.305C26.8343 302.744 26.9409 302.251 27.1539 301.827C27.3694 301.401 27.67 301.07 28.0559 300.833C28.4418 300.594 28.8952 300.474 29.416 300.474C29.7522 300.474 30.0694 300.529 30.3677 300.638C30.6684 300.744 30.9335 300.91 31.1632 301.135C31.3952 301.36 31.5775 301.646 31.71 301.994C31.8426 302.34 31.9089 302.752 31.9089 303.23V303.624H27.438V302.758H30.6767C30.6743 302.512 30.621 302.293 30.5169 302.101C30.4127 301.907 30.2671 301.754 30.0801 301.643C29.8954 301.531 29.68 301.476 29.4338 301.476C29.171 301.476 28.9402 301.54 28.7413 301.668C28.5424 301.793 28.3874 301.959 28.2761 302.165C28.1672 302.368 28.1116 302.592 28.1092 302.836V303.592C28.1092 303.91 28.1672 304.182 28.2832 304.409C28.3992 304.634 28.5614 304.807 28.7697 304.928C28.978 305.046 29.2219 305.105 29.5012 305.105C29.6883 305.105 29.8575 305.079 30.0091 305.027C30.1606 304.973 30.292 304.893 30.4032 304.789C30.5145 304.685 30.5985 304.556 30.6554 304.402L31.8556 304.537C31.7799 304.854 31.6355 305.131 31.4224 305.368C31.2117 305.602 30.9418 305.785 30.6127 305.915C30.2837 306.043 29.9073 306.107 29.4835 306.107ZM35.7337 306V298.727H37.0192V301.447H37.0725C37.1388 301.315 37.2323 301.174 37.3531 301.025C37.4738 300.873 37.6371 300.744 37.8431 300.638C38.0491 300.529 38.3119 300.474 38.6315 300.474C39.0529 300.474 39.4328 300.582 39.7714 300.798C40.1123 301.011 40.3822 301.327 40.581 301.746C40.7823 302.162 40.8829 302.674 40.8829 303.28C40.8829 303.879 40.7846 304.388 40.5881 304.807C40.3916 305.226 40.1241 305.545 39.7856 305.766C39.447 305.986 39.0635 306.096 38.635 306.096C38.3225 306.096 38.0633 306.044 37.8573 305.94C37.6514 305.835 37.4856 305.71 37.3602 305.563C37.2371 305.414 37.1412 305.273 37.0725 305.141H36.9979V306H35.7337ZM36.9944 303.273C36.9944 303.625 37.0441 303.934 37.1435 304.2C37.2453 304.465 37.3909 304.672 37.5803 304.821C37.7721 304.968 38.0041 305.041 38.2764 305.041C38.5604 305.041 38.7984 304.965 38.9901 304.814C39.1819 304.66 39.3263 304.451 39.4234 304.185C39.5228 303.918 39.5725 303.614 39.5725 303.273C39.5725 302.934 39.524 302.634 39.4269 302.371C39.3299 302.108 39.1854 301.902 38.9937 301.753C38.8019 301.604 38.5628 301.529 38.2764 301.529C38.0017 301.529 37.7685 301.601 37.5768 301.746C37.385 301.89 37.2394 302.093 37.14 302.353C37.0429 302.613 36.9944 302.92 36.9944 303.273ZM43.6453 306.11C43.2997 306.11 42.9884 306.049 42.7114 305.925C42.4368 305.8 42.219 305.615 42.058 305.371C41.8994 305.128 41.8201 304.827 41.8201 304.469C41.8201 304.162 41.8769 303.907 41.9905 303.706C42.1042 303.505 42.2592 303.344 42.4557 303.223C42.6522 303.102 42.8736 303.011 43.1198 302.95C43.3684 302.886 43.6252 302.839 43.8904 302.811C44.21 302.778 44.4692 302.748 44.6681 302.722C44.8669 302.694 45.0114 302.651 45.1013 302.594C45.1936 302.535 45.2398 302.444 45.2398 302.321V302.3C45.2398 302.032 45.1605 301.825 45.0019 301.678C44.8433 301.531 44.6148 301.458 44.3165 301.458C44.0016 301.458 43.7519 301.527 43.5672 301.664C43.3849 301.801 43.2618 301.964 43.1979 302.151L41.9976 301.98C42.0923 301.649 42.2486 301.372 42.4664 301.149C42.6842 300.924 42.9505 300.756 43.2654 300.645C43.5802 300.531 43.9283 300.474 44.3094 300.474C44.5722 300.474 44.8338 300.505 45.0942 300.567C45.3546 300.628 45.5926 300.73 45.808 300.872C46.0234 301.012 46.1962 301.202 46.3265 301.444C46.459 301.685 46.5253 301.987 46.5253 302.349V306H45.2895V305.251H45.2469C45.1688 305.402 45.0587 305.544 44.9167 305.677C44.777 305.807 44.6006 305.912 44.3875 305.993C44.1768 306.071 43.9294 306.11 43.6453 306.11ZM43.9792 305.165C44.2372 305.165 44.4609 305.115 44.6503 305.013C44.8397 304.909 44.9853 304.771 45.0871 304.601C45.1913 304.43 45.2434 304.245 45.2434 304.043V303.401C45.2031 303.434 45.1345 303.464 45.0374 303.493C44.9427 303.521 44.8362 303.546 44.7178 303.567C44.5994 303.589 44.4822 303.608 44.3662 303.624C44.2502 303.641 44.1496 303.655 44.0644 303.667C43.8726 303.693 43.701 303.736 43.5495 303.795C43.398 303.854 43.2784 303.937 43.1908 304.043C43.1032 304.147 43.0594 304.282 43.0594 304.448C43.0594 304.685 43.1458 304.864 43.3186 304.984C43.4915 305.105 43.7116 305.165 43.9792 305.165ZM50.2972 306.107C49.7527 306.107 49.2851 305.987 48.8945 305.748C48.5062 305.509 48.2068 305.179 47.9961 304.757C47.7877 304.333 47.6836 303.846 47.6836 303.294C47.6836 302.74 47.7901 302.251 48.0032 301.827C48.2162 301.401 48.5169 301.07 48.9052 300.833C49.2958 300.594 49.7574 300.474 50.2901 300.474C50.7328 300.474 51.1246 300.556 51.4655 300.719C51.8088 300.88 52.0822 301.109 52.2858 301.405C52.4894 301.698 52.6054 302.042 52.6338 302.435H51.4052C51.3554 302.172 51.2371 301.953 51.05 301.778C50.8654 301.6 50.618 301.511 50.3078 301.511C50.0451 301.511 49.8142 301.582 49.6154 301.724C49.4165 301.864 49.2614 302.065 49.1502 302.328C49.0413 302.591 48.9868 302.906 48.9868 303.273C48.9868 303.644 49.0413 303.964 49.1502 304.232C49.2591 304.497 49.4118 304.701 49.6083 304.846C49.8071 304.988 50.0403 305.059 50.3078 305.059C50.4972 305.059 50.6665 305.023 50.8157 304.952C50.9672 304.879 51.0938 304.774 51.1956 304.636C51.2974 304.499 51.3673 304.332 51.4052 304.136H52.6338C52.6031 304.522 52.4894 304.864 52.2929 305.162C52.0964 305.458 51.8289 305.69 51.4904 305.858C51.1518 306.024 50.7541 306.107 50.2972 306.107ZM54.9613 304.288L54.9577 302.737H55.1637L57.1239 300.545H58.6261L56.2148 303.23H55.9485L54.9613 304.288ZM53.7894 306V298.727H55.0749V306H53.7894ZM57.2127 306L55.4371 303.518L56.3036 302.612L58.7504 306H57.2127ZM64.887 300.545V301.54H61.7513V300.545H64.887ZM62.5255 299.239H63.811V304.359C63.811 304.532 63.837 304.665 63.8891 304.757C63.9435 304.847 64.0146 304.909 64.1022 304.942C64.1898 304.975 64.2868 304.991 64.3934 304.991C64.4739 304.991 64.5472 304.986 64.6135 304.974C64.6822 304.962 64.7343 304.951 64.7698 304.942L64.9864 305.947C64.9177 305.97 64.8195 305.996 64.6917 306.025C64.5662 306.053 64.4123 306.07 64.23 306.075C63.908 306.084 63.618 306.036 63.36 305.929C63.1019 305.82 62.8971 305.652 62.7456 305.425C62.5965 305.197 62.5231 304.913 62.5255 304.572V299.239ZM68.3827 306.107C67.8501 306.107 67.3884 305.989 66.9978 305.755C66.6072 305.521 66.3041 305.193 66.0887 304.771C65.8756 304.35 65.7691 303.857 65.7691 303.294C65.7691 302.731 65.8756 302.237 66.0887 301.813C66.3041 301.389 66.6072 301.06 66.9978 300.826C67.3884 300.592 67.8501 300.474 68.3827 300.474C68.9154 300.474 69.3771 300.592 69.7677 300.826C70.1583 301.06 70.4602 301.389 70.6732 301.813C70.8887 302.237 70.9964 302.731 70.9964 303.294C70.9964 303.857 70.8887 304.35 70.6732 304.771C70.4602 305.193 70.1583 305.521 69.7677 305.755C69.3771 305.989 68.9154 306.107 68.3827 306.107ZM68.3898 305.077C68.6787 305.077 68.9201 304.997 69.1143 304.839C69.3084 304.678 69.4528 304.462 69.5475 304.192C69.6446 303.923 69.6931 303.622 69.6931 303.29C69.6931 302.957 69.6446 302.655 69.5475 302.385C69.4528 302.113 69.3084 301.896 69.1143 301.735C68.9201 301.574 68.6787 301.494 68.3898 301.494C68.0939 301.494 67.8477 301.574 67.6512 301.735C67.4571 301.896 67.3115 302.113 67.2144 302.385C67.1197 302.655 67.0724 302.957 67.0724 303.29C67.0724 303.622 67.1197 303.923 67.2144 304.192C67.3115 304.462 67.4571 304.678 67.6512 304.839C67.8477 304.997 68.0939 305.077 68.3898 305.077ZM76.3553 306L74.3027 298.727H75.7196L77.03 304.072H77.0975L78.4966 298.727H79.7857L81.1884 304.075H81.2523L82.5627 298.727H83.9796L81.927 306H80.6273L79.1713 300.897H79.1145L77.655 306H76.3553ZM85.9874 300.545L87.0883 302.559L88.2069 300.545H89.567L87.9228 303.273L89.5954 306H88.2424L87.0883 304.036L85.9448 306H84.5812L86.2431 303.273L84.6238 300.545H85.9874ZM90.7181 306V298.727H92.0356V301.806H95.4056V298.727H96.7266V306H95.4056V302.911H92.0356V306H90.7181Z" fill="black"/>
<path d="M114.25 194.402V192C114.25 191.034 115.034 190.25 116 190.25C116.966 190.25 117.75 191.034 117.75 192V194.402C118.554 194.794 119.206 195.446 119.598 196.25H122C122.966 196.25 123.75 197.034 123.75 198C123.75 198.966 122.966 199.75 122 199.75H119.598C119.206 200.554 118.554 201.206 117.75 201.598V204C117.75 204.966 116.966 205.75 116 205.75C115.034 205.75 114.25 204.966 114.25 204V201.598C113.446 201.206 112.794 200.554 112.402 199.75H110C109.034 199.75 108.25 198.966 108.25 198C108.25 197.034 109.034 196.25 110 196.25H112.402C112.794 195.446 113.446 194.794 114.25 194.402Z" fill="white"/>
<path fill-rule="evenodd" clip-rule="evenodd" d="M116 191.25C116.414 191.25 116.75 191.586 116.75 192V195.095C117.804 195.366 118.634 196.196 118.905 197.25H122C122.414 197.25 122.75 197.586 122.75 198C122.75 198.414 122.414 198.75 122 198.75H118.905C118.634 199.804 117.804 200.634 116.75 200.905V204C116.75 204.414 116.414 204.75 116 204.75C115.586 204.75 115.25 204.414 115.25 204V200.905C114.196 200.634 113.366 199.804 113.095 198.75H110C109.586 198.75 109.25 198.414 109.25 198C109.25 197.586 109.586 197.25 110 197.25H113.095C113.366 196.196 114.196 195.366 115.25 195.095V192C115.25 191.586 115.586 191.25 116 191.25ZM117.5 198C117.5 198.828 116.828 199.5 116 199.5C115.172 199.5 114.5 198.828 114.5 198C114.5 197.172 115.172 196.5 116 196.5C116.828 196.5 117.5 197.172 117.5 198Z" fill="#1C6EE8"/>
<rect x="116" y="296" width="50" height="100" stroke="#1C6EE8"/>
<g filter="url(#filter8_d_1_185817)">
<rect x="112" y="292" width="8" height="8" fill="white"/>
<rect x="112.5" y="292.5" width="7" height="7" stroke="#1C6EE8"/>
</g>
<g filter="url(#filter9_d_1_185817)">
<rect x="112" y="392" width="8" height="8" fill="white"/>
<rect x="112.5" y="392.5" width="7" height="7" stroke="#1C6EE8"/>
</g>
<g filter="url(#filter10_d_1_185817)">
<rect x="162" y="292" width="8" height="8" fill="white"/>
<rect x="162.5" y="292.5" width="7" height="7" stroke="#1C6EE8"/>
</g>
<g filter="url(#filter11_d_1_185817)">
<rect x="162" y="392" width="8" height="8" fill="white"/>
<rect x="162.5" y="392.5" width="7" height="7" stroke="#1C6EE8"/>
</g>
<path d="M4.37216 165.091C4.33381 164.767 4.17827 164.516 3.90554 164.337C3.63281 164.158 3.2983 164.068 2.90199 164.068C2.61222 164.068 2.35866 164.115 2.14134 164.209C1.92614 164.303 1.75781 164.431 1.63636 164.596C1.51705 164.76 1.45739 164.946 1.45739 165.155C1.45739 165.33 1.49893 165.48 1.58203 165.605C1.66726 165.729 1.77592 165.832 1.90803 165.915C2.04013 165.996 2.17862 166.064 2.32351 166.117C2.46839 166.168 2.60156 166.21 2.72301 166.241L3.38778 166.42C3.55824 166.465 3.74787 166.527 3.95668 166.606C4.16761 166.685 4.36896 166.792 4.56072 166.929C4.75462 167.063 4.91442 167.235 5.04013 167.446C5.16584 167.657 5.22869 167.916 5.22869 168.223C5.22869 168.577 5.13601 168.896 4.95064 169.182C4.7674 169.467 4.49893 169.694 4.14524 169.863C3.79368 170.031 3.36648 170.115 2.86364 170.115C2.39489 170.115 1.98899 170.039 1.64595 169.888C1.30504 169.737 1.03658 169.526 0.840554 169.255C0.646662 168.985 0.536932 168.67 0.511364 168.312H1.32955C1.35085 168.56 1.43395 168.764 1.57884 168.926C1.72585 169.086 1.91122 169.205 2.13494 169.284C2.3608 169.361 2.60369 169.399 2.86364 169.399C3.16619 169.399 3.43786 169.35 3.67862 169.252C3.91939 169.152 4.11009 169.013 4.25071 168.837C4.39134 168.658 4.46165 168.449 4.46165 168.21C4.46165 167.993 4.40092 167.816 4.27947 167.68C4.15803 167.543 3.99822 167.433 3.80007 167.347C3.60192 167.262 3.38778 167.187 3.15767 167.124L2.35227 166.893C1.84091 166.746 1.43608 166.537 1.13778 166.264C0.839489 165.991 0.690341 165.634 0.690341 165.193C0.690341 164.827 0.789418 164.507 0.987571 164.234C1.18786 163.96 1.45632 163.746 1.79297 163.595C2.13175 163.442 2.50994 163.365 2.92756 163.365C3.34943 163.365 3.72443 163.441 4.05256 163.592C4.38068 163.741 4.64063 163.946 4.83239 164.206C5.02628 164.466 5.12855 164.761 5.1392 165.091H4.37216ZM6.5196 170V165.091H7.27386V170H6.5196ZM6.90312 164.273C6.7561 164.273 6.62933 164.223 6.52279 164.123C6.41839 164.022 6.36619 163.902 6.36619 163.761C6.36619 163.621 6.41839 163.5 6.52279 163.4C6.62933 163.3 6.7561 163.25 6.90312 163.25C7.05014 163.25 7.17585 163.3 7.28025 163.4C7.38679 163.5 7.44005 163.621 7.44005 163.761C7.44005 163.902 7.38679 164.022 7.28025 164.123C7.17585 164.223 7.05014 164.273 6.90312 164.273ZM8.60472 170V169.425L11.3916 165.845V165.794H8.6942V165.091H12.3632V165.692L9.65301 169.246V169.297H12.4527V170H8.60472ZM15.6221 170.102C15.1491 170.102 14.7411 169.998 14.398 169.789C14.0571 169.578 13.794 169.284 13.6086 168.907C13.4254 168.528 13.3337 168.087 13.3337 167.584C13.3337 167.081 13.4254 166.638 13.6086 166.254C13.794 165.869 14.0518 165.568 14.382 165.353C14.7144 165.136 15.1022 165.027 15.5454 165.027C15.8011 165.027 16.0536 165.07 16.3028 165.155C16.5521 165.24 16.7791 165.379 16.9836 165.57C17.1881 165.76 17.3511 166.011 17.4726 166.325C17.594 166.638 17.6548 167.023 17.6548 167.482V167.801H13.8707V167.149H16.8877C16.8877 166.872 16.8323 166.625 16.7215 166.408C16.6129 166.19 16.4573 166.019 16.2549 165.893C16.0546 165.767 15.8181 165.705 15.5454 165.705C15.245 165.705 14.985 165.779 14.7656 165.928C14.5482 166.075 14.381 166.267 14.2638 166.504C14.1466 166.74 14.088 166.994 14.088 167.264V167.699C14.088 168.07 14.1519 168.384 14.2798 168.642C14.4097 168.897 14.5898 169.092 14.8199 169.227C15.05 169.359 15.3174 169.425 15.6221 169.425C15.8202 169.425 15.9992 169.397 16.159 169.342C16.321 169.284 16.4605 169.199 16.5777 169.086C16.6949 168.971 16.7854 168.828 16.8494 168.658L17.5781 168.862C17.5014 169.109 17.3725 169.327 17.1913 169.514C17.0102 169.7 16.7865 169.844 16.5202 169.949C16.2538 170.051 15.9545 170.102 15.6221 170.102ZM19.199 166.842V166.152H23.1365V166.842H19.199ZM19.199 168.734V168.044H23.1365V168.734H19.199ZM27.0369 170.089C26.5554 170.089 26.1452 169.958 25.8064 169.696C25.4677 169.432 25.2088 169.05 25.0298 168.549C24.8508 168.046 24.7613 167.439 24.7613 166.727C24.7613 166.02 24.8508 165.416 25.0298 164.915C25.2109 164.412 25.4709 164.029 25.8096 163.765C26.1506 163.498 26.5596 163.365 27.0369 163.365C27.5142 163.365 27.9222 163.498 28.261 163.765C28.6019 164.029 28.8618 164.412 29.0408 164.915C29.2219 165.416 29.3125 166.02 29.3125 166.727C29.3125 167.439 29.223 168.046 29.044 168.549C28.865 169.05 28.6062 169.432 28.2674 169.696C27.9286 169.958 27.5184 170.089 27.0369 170.089ZM27.0369 169.386C27.5142 169.386 27.8849 169.156 28.1491 168.696C28.4133 168.236 28.5454 167.58 28.5454 166.727C28.5454 166.161 28.4847 165.678 28.3633 165.279C28.2439 164.881 28.0714 164.577 27.8455 164.369C27.6218 164.16 27.3523 164.055 27.0369 164.055C26.5639 164.055 26.1942 164.289 25.9279 164.755C25.6616 165.22 25.5284 165.877 25.5284 166.727C25.5284 167.294 25.5881 167.776 25.7074 168.172C25.8267 168.568 25.9982 168.87 26.2219 169.076C26.4478 169.283 26.7194 169.386 27.0369 169.386ZM34.465 168.824L30.8599 165.219L31.3457 164.733L34.9508 168.338L34.465 168.824ZM31.3457 168.824L30.8599 168.338L34.465 164.733L34.9508 165.219L31.3457 168.824ZM38.9407 163.455V170H38.1481V164.286H38.1098L36.5117 165.347V164.541L38.1481 163.455H38.9407ZM43.0481 170.089C42.5666 170.089 42.1564 169.958 41.8177 169.696C41.4789 169.432 41.22 169.05 41.041 168.549C40.862 168.046 40.7726 167.439 40.7726 166.727C40.7726 166.02 40.862 165.416 41.041 164.915C41.2221 164.412 41.4821 164.029 41.8209 163.765C42.1618 163.498 42.5709 163.365 43.0481 163.365C43.5254 163.365 43.9334 163.498 44.2722 163.765C44.6131 164.029 44.8731 164.412 45.052 164.915C45.2331 165.416 45.3237 166.02 45.3237 166.727C45.3237 167.439 45.2342 168.046 45.0552 168.549C44.8763 169.05 44.6174 169.432 44.2786 169.696C43.9398 169.958 43.5297 170.089 43.0481 170.089ZM43.0481 169.386C43.5254 169.386 43.8961 169.156 44.1603 168.696C44.4245 168.236 44.5566 167.58 44.5566 166.727C44.5566 166.161 44.4959 165.678 44.3745 165.279C44.2552 164.881 44.0826 164.577 43.8567 164.369C43.633 164.16 43.3635 164.055 43.0481 164.055C42.5751 164.055 42.2054 164.289 41.9391 164.755C41.6728 165.22 41.5396 165.877 41.5396 166.727C41.5396 167.294 41.5993 167.776 41.7186 168.172C41.8379 168.568 42.0094 168.87 42.2331 169.076C42.459 169.283 42.7307 169.386 43.0481 169.386ZM48.7631 170.089C48.2816 170.089 47.8714 169.958 47.5327 169.696C47.1939 169.432 46.935 169.05 46.756 168.549C46.577 168.046 46.4876 167.439 46.4876 166.727C46.4876 166.02 46.577 165.416 46.756 164.915C46.9371 164.412 47.1971 164.029 47.5359 163.765C47.8768 163.498 48.2859 163.365 48.7631 163.365C49.2404 163.365 49.6484 163.498 49.9872 163.765C50.3281 164.029 50.5881 164.412 50.767 164.915C50.9481 165.416 51.0387 166.02 51.0387 166.727C51.0387 167.439 50.9492 168.046 50.7702 168.549C50.5913 169.05 50.3324 169.432 49.9936 169.696C49.6548 169.958 49.2447 170.089 48.7631 170.089ZM48.7631 169.386C49.2404 169.386 49.6111 169.156 49.8753 168.696C50.1395 168.236 50.2716 167.58 50.2716 166.727C50.2716 166.161 50.2109 165.678 50.0895 165.279C49.9702 164.881 49.7976 164.577 49.5717 164.369C49.348 164.16 49.0785 164.055 48.7631 164.055C48.2901 164.055 47.9204 164.289 47.6541 164.755C47.3878 165.22 47.2546 165.877 47.2546 166.727C47.2546 167.294 47.3143 167.776 47.4336 168.172C47.5529 168.568 47.7244 168.87 47.9481 169.076C48.174 169.283 48.4457 169.386 48.7631 169.386ZM6.31534 177.727C6.31534 178.418 6.1907 179.014 5.94141 179.517C5.69212 180.02 5.35014 180.408 4.91548 180.68C4.48082 180.953 3.98438 181.089 3.42614 181.089C2.8679 181.089 2.37145 180.953 1.93679 180.68C1.50213 180.408 1.16016 180.02 0.910867 179.517C0.661577 179.014 0.536932 178.418 0.536932 177.727C0.536932 177.037 0.661577 176.44 0.910867 175.938C1.16016 175.435 1.50213 175.047 1.93679 174.774C2.37145 174.501 2.8679 174.365 3.42614 174.365C3.98438 174.365 4.48082 174.501 4.91548 174.774C5.35014 175.047 5.69212 175.435 5.94141 175.938C6.1907 176.44 6.31534 177.037 6.31534 177.727ZM5.5483 177.727C5.5483 177.161 5.45348 176.682 5.26385 176.292C5.07635 175.902 4.82173 175.607 4.5 175.407C4.1804 175.207 3.82244 175.107 3.42614 175.107C3.02983 175.107 2.67081 175.207 2.34908 175.407C2.02947 175.607 1.77486 175.902 1.58523 176.292C1.39773 176.682 1.30398 177.161 1.30398 177.727C1.30398 178.294 1.39773 178.772 1.58523 179.162C1.77486 179.552 2.02947 179.847 2.34908 180.048C2.67081 180.248 3.02983 180.348 3.42614 180.348C3.82244 180.348 4.1804 180.248 4.5 180.048C4.82173 179.847 5.07635 179.552 5.26385 179.162C5.45348 178.772 5.5483 178.294 5.5483 177.727ZM7.63581 181V176.091H8.3645V176.832H8.41564C8.50513 176.589 8.66706 176.392 8.90143 176.241C9.13581 176.09 9.40001 176.014 9.69405 176.014C9.74945 176.014 9.81869 176.015 9.90179 176.017C9.98489 176.02 10.0477 176.023 10.0904 176.027V176.794C10.0648 176.788 10.0062 176.778 9.91457 176.765C9.82509 176.75 9.73027 176.743 9.63013 176.743C9.39149 176.743 9.17842 176.793 8.99092 176.893C8.80555 176.991 8.65854 177.127 8.54987 177.302C8.44334 177.475 8.39007 177.672 8.39007 177.893V181H7.63581ZM11.0744 181V176.091H11.8287V181H11.0744ZM11.458 175.273C11.3109 175.273 11.1842 175.223 11.0776 175.123C10.9732 175.022 10.921 174.902 10.921 174.761C10.921 174.621 10.9732 174.5 11.0776 174.4C11.1842 174.3 11.3109 174.25 11.458 174.25C11.605 174.25 11.7307 174.3 11.8351 174.4C11.9416 174.5 11.9949 174.621 11.9949 174.761C11.9949 174.902 11.9416 175.022 11.8351 175.123C11.7307 175.223 11.605 175.273 11.458 175.273ZM15.2817 182.943C14.9174 182.943 14.6042 182.896 14.3421 182.803C14.08 182.711 13.8616 182.589 13.6869 182.438C13.5143 182.289 13.3769 182.129 13.2746 181.959L13.8755 181.537C13.9437 181.626 14.0299 181.729 14.1343 181.844C14.2388 181.961 14.3815 182.062 14.5626 182.147C14.7459 182.235 14.9856 182.278 15.2817 182.278C15.678 182.278 16.0051 182.183 16.2629 181.991C16.5207 181.799 16.6496 181.499 16.6496 181.089V180.092H16.5857C16.5303 180.182 16.4515 180.293 16.3492 180.425C16.249 180.555 16.1042 180.671 15.9145 180.773C15.727 180.873 15.4735 180.923 15.1539 180.923C14.7576 180.923 14.4017 180.83 14.0864 180.642C13.7732 180.455 13.525 180.182 13.3417 179.824C13.1606 179.466 13.0701 179.031 13.0701 178.52C13.0701 178.017 13.1585 177.579 13.3353 177.206C13.5122 176.831 13.7583 176.542 14.0736 176.337C14.389 176.13 14.7533 176.027 15.1667 176.027C15.4863 176.027 15.7398 176.08 15.9273 176.187C16.1169 176.291 16.2618 176.411 16.362 176.545C16.4642 176.677 16.5431 176.786 16.5985 176.871H16.6752V176.091H17.4039V181.141C17.4039 181.562 17.308 181.906 17.1162 182.17C16.9266 182.436 16.6709 182.631 16.3492 182.755C16.0296 182.88 15.6738 182.943 15.2817 182.943ZM15.2562 180.246C15.5587 180.246 15.8144 180.176 16.0232 180.038C16.232 179.9 16.3907 179.7 16.4994 179.44C16.6081 179.18 16.6624 178.869 16.6624 178.507C16.6624 178.153 16.6091 177.841 16.5026 177.571C16.3961 177.3 16.2384 177.088 16.0296 176.935C15.8208 176.781 15.563 176.705 15.2562 176.705C14.9365 176.705 14.6702 176.786 14.4571 176.947C14.2462 177.109 14.0875 177.327 13.9809 177.599C13.8765 177.872 13.8243 178.175 13.8243 178.507C13.8243 178.848 13.8776 179.15 13.9841 179.412C14.0928 179.672 14.2526 179.876 14.4635 180.025C14.6766 180.172 14.9408 180.246 15.2562 180.246ZM18.8746 181V176.091H19.6288V181H18.8746ZM19.2581 175.273C19.1111 175.273 18.9843 175.223 18.8778 175.123C18.7734 175.022 18.7212 174.902 18.7212 174.761C18.7212 174.621 18.7734 174.5 18.8778 174.4C18.9843 174.3 19.1111 174.25 19.2581 174.25C19.4051 174.25 19.5308 174.3 19.6352 174.4C19.7417 174.5 19.795 174.621 19.795 174.761C19.795 174.902 19.7417 175.022 19.6352 175.123C19.5308 175.223 19.4051 175.273 19.2581 175.273ZM21.8546 178.047V181H21.1003V176.091H21.829V176.858H21.8929C22.008 176.609 22.1827 176.408 22.4171 176.257C22.6514 176.104 22.954 176.027 23.3247 176.027C23.6571 176.027 23.948 176.095 24.1972 176.232C24.4465 176.366 24.6404 176.57 24.7789 176.845C24.9174 177.118 24.9867 177.463 24.9867 177.881V181H24.2324V177.932C24.2324 177.546 24.1323 177.246 23.932 177.031C23.7317 176.813 23.4568 176.705 23.1074 176.705C22.8666 176.705 22.6514 176.757 22.4618 176.861C22.2743 176.966 22.1262 177.118 22.0176 177.318C21.9089 177.518 21.8546 177.761 21.8546 178.047ZM26.7618 177.842V177.152H30.6993V177.842H26.7618ZM26.7618 179.734V179.044H30.6993V179.734H26.7618ZM34.5997 181.089C34.1182 181.089 33.708 180.958 33.3693 180.696C33.0305 180.432 32.7716 180.05 32.5926 179.549C32.4136 179.046 32.3242 178.439 32.3242 177.727C32.3242 177.02 32.4136 176.416 32.5926 175.915C32.7737 175.412 33.0337 175.029 33.3725 174.765C33.7134 174.498 34.1225 174.365 34.5997 174.365C35.077 174.365 35.485 174.498 35.8238 174.765C36.1647 175.029 36.4247 175.412 36.6036 175.915C36.7847 176.416 36.8753 177.02 36.8753 177.727C36.8753 178.439 36.7858 179.046 36.6068 179.549C36.4279 180.05 36.169 180.432 35.8302 180.696C35.4914 180.958 35.0813 181.089 34.5997 181.089ZM34.5997 180.386C35.077 180.386 35.4477 180.156 35.7119 179.696C35.9761 179.236 36.1082 178.58 36.1082 177.727C36.1082 177.161 36.0475 176.678 35.9261 176.279C35.8068 175.881 35.6342 175.577 35.4083 175.369C35.1846 175.16 34.9151 175.055 34.5997 175.055C34.1267 175.055 33.757 175.289 33.4907 175.755C33.2244 176.22 33.0912 176.877 33.0912 177.727C33.0912 178.294 33.1509 178.776 33.2702 179.172C33.3895 179.568 33.561 179.87 33.7847 180.076C34.0106 180.283 34.2823 180.386 34.5997 180.386ZM39.0891 180.105L39.0379 180.45C39.0017 180.693 38.9463 180.953 38.8717 181.23C38.7993 181.507 38.7236 181.768 38.6448 182.013C38.566 182.258 38.501 182.453 38.4498 182.598H37.8746C37.9023 182.462 37.9385 182.282 37.9832 182.058C38.028 181.834 38.0727 181.584 38.1175 181.307C38.1643 181.032 38.2027 180.751 38.2325 180.463L38.2709 180.105H39.0891ZM42.4702 181.089C41.9886 181.089 41.5785 180.958 41.2397 180.696C40.9009 180.432 40.642 180.05 40.4631 179.549C40.2841 179.046 40.1946 178.439 40.1946 177.727C40.1946 177.02 40.2841 176.416 40.4631 175.915C40.6442 175.412 40.9041 175.029 41.2429 174.765C41.5838 174.498 41.9929 174.365 42.4702 174.365C42.9474 174.365 43.3555 174.498 43.6942 174.765C44.0351 175.029 44.2951 175.412 44.4741 175.915C44.6552 176.416 44.7457 177.02 44.7457 177.727C44.7457 178.439 44.6562 179.046 44.4773 179.549C44.2983 180.05 44.0394 180.432 43.7006 180.696C43.3618 180.958 42.9517 181.089 42.4702 181.089ZM42.4702 180.386C42.9474 180.386 43.3182 180.156 43.5824 179.696C43.8466 179.236 43.9787 178.58 43.9787 177.727C43.9787 177.161 43.918 176.678 43.7965 176.279C43.6772 175.881 43.5046 175.577 43.2788 175.369C43.055 175.16 42.7855 175.055 42.4702 175.055C41.9971 175.055 41.6275 175.289 41.3611 175.755C41.0948 176.22 40.9616 176.877 40.9616 177.727C40.9616 178.294 41.0213 178.776 41.1406 179.172C41.2599 179.568 41.4315 179.87 41.6552 180.076C41.881 180.283 42.1527 180.386 42.4702 180.386Z" fill="black"/>
<path d="M189.25 342.402V340C189.25 339.034 190.034 338.25 191 338.25C191.966 338.25 192.75 339.034 192.75 340V342.402C193.554 342.794 194.206 343.446 194.598 344.25H197C197.966 344.25 198.75 345.034 198.75 346C198.75 346.966 197.966 347.75 197 347.75H194.598C194.206 348.554 193.554 349.206 192.75 349.598V352C192.75 352.966 191.966 353.75 191 353.75C190.034 353.75 189.25 352.966 189.25 352V349.598C188.446 349.206 187.794 348.554 187.402 347.75H185C184.034 347.75 183.25 346.966 183.25 346C183.25 345.034 184.034 344.25 185 344.25H187.402C187.794 343.446 188.446 342.794 189.25 342.402Z" fill="white"/>
<path fill-rule="evenodd" clip-rule="evenodd" d="M191 339.25C191.414 339.25 191.75 339.586 191.75 340V343.095C192.804 343.366 193.634 344.196 193.905 345.25H197C197.414 345.25 197.75 345.586 197.75 346C197.75 346.414 197.414 346.75 197 346.75H193.905C193.634 347.804 192.804 348.634 191.75 348.905V352C191.75 352.414 191.414 352.75 191 352.75C190.586 352.75 190.25 352.414 190.25 352V348.905C189.196 348.634 188.366 347.804 188.095 346.75H185C184.586 346.75 184.25 346.414 184.25 346C184.25 345.586 184.586 345.25 185 345.25H188.095C188.366 344.196 189.196 343.366 190.25 343.095V340C190.25 339.586 190.586 339.25 191 339.25ZM192.5 346C192.5 346.828 191.828 347.5 191 347.5C190.172 347.5 189.5 346.828 189.5 346C189.5 345.172 190.172 344.5 191 344.5C191.828 344.5 192.5 345.172 192.5 346Z" fill="#1C6EE8"/>
<path d="M4.37216 325.091C4.33381 324.767 4.17827 324.516 3.90554 324.337C3.63281 324.158 3.2983 324.068 2.90199 324.068C2.61222 324.068 2.35866 324.115 2.14134 324.209C1.92614 324.303 1.75781 324.431 1.63636 324.596C1.51705 324.76 1.45739 324.946 1.45739 325.155C1.45739 325.33 1.49893 325.48 1.58203 325.605C1.66726 325.729 1.77592 325.832 1.90803 325.915C2.04013 325.996 2.17862 326.064 2.32351 326.117C2.46839 326.168 2.60156 326.21 2.72301 326.241L3.38778 326.42C3.55824 326.465 3.74787 326.527 3.95668 326.606C4.16761 326.685 4.36896 326.792 4.56072 326.929C4.75462 327.063 4.91442 327.235 5.04013 327.446C5.16584 327.657 5.22869 327.916 5.22869 328.223C5.22869 328.577 5.13601 328.896 4.95064 329.182C4.7674 329.467 4.49893 329.694 4.14524 329.863C3.79368 330.031 3.36648 330.115 2.86364 330.115C2.39489 330.115 1.98899 330.039 1.64595 329.888C1.30504 329.737 1.03658 329.526 0.840554 329.255C0.646662 328.985 0.536932 328.67 0.511364 328.312H1.32955C1.35085 328.56 1.43395 328.764 1.57884 328.926C1.72585 329.086 1.91122 329.205 2.13494 329.284C2.3608 329.361 2.60369 329.399 2.86364 329.399C3.16619 329.399 3.43786 329.35 3.67862 329.252C3.91939 329.152 4.11009 329.013 4.25071 328.837C4.39134 328.658 4.46165 328.449 4.46165 328.21C4.46165 327.993 4.40092 327.816 4.27947 327.68C4.15803 327.543 3.99822 327.433 3.80007 327.347C3.60192 327.262 3.38778 327.187 3.15767 327.124L2.35227 326.893C1.84091 326.746 1.43608 326.537 1.13778 326.264C0.839489 325.991 0.690341 325.634 0.690341 325.193C0.690341 324.827 0.789418 324.507 0.987571 324.234C1.18786 323.96 1.45632 323.746 1.79297 323.595C2.13175 323.442 2.50994 323.365 2.92756 323.365C3.34943 323.365 3.72443 323.441 4.05256 323.592C4.38068 323.741 4.64063 323.946 4.83239 324.206C5.02628 324.466 5.12855 324.761 5.1392 325.091H4.37216ZM6.5196 330V325.091H7.27386V330H6.5196ZM6.90312 324.273C6.7561 324.273 6.62933 324.223 6.52279 324.123C6.41839 324.022 6.36619 323.902 6.36619 323.761C6.36619 323.621 6.41839 323.5 6.52279 323.4C6.62933 323.3 6.7561 323.25 6.90312 323.25C7.05014 323.25 7.17585 323.3 7.28025 323.4C7.38679 323.5 7.44005 323.621 7.44005 323.761C7.44005 323.902 7.38679 324.022 7.28025 324.123C7.17585 324.223 7.05014 324.273 6.90312 324.273ZM8.60472 330V329.425L11.3916 325.845V325.794H8.6942V325.091H12.3632V325.692L9.65301 329.246V329.297H12.4527V330H8.60472ZM15.6221 330.102C15.1491 330.102 14.7411 329.998 14.398 329.789C14.0571 329.578 13.794 329.284 13.6086 328.907C13.4254 328.528 13.3337 328.087 13.3337 327.584C13.3337 327.081 13.4254 326.638 13.6086 326.254C13.794 325.869 14.0518 325.568 14.382 325.353C14.7144 325.136 15.1022 325.027 15.5454 325.027C15.8011 325.027 16.0536 325.07 16.3028 325.155C16.5521 325.24 16.7791 325.379 16.9836 325.57C17.1881 325.76 17.3511 326.011 17.4726 326.325C17.594 326.638 17.6548 327.023 17.6548 327.482V327.801H13.8707V327.149H16.8877C16.8877 326.872 16.8323 326.625 16.7215 326.408C16.6129 326.19 16.4573 326.019 16.2549 325.893C16.0546 325.767 15.8181 325.705 15.5454 325.705C15.245 325.705 14.985 325.779 14.7656 325.928C14.5482 326.075 14.381 326.267 14.2638 326.504C14.1466 326.74 14.088 326.994 14.088 327.264V327.699C14.088 328.07 14.1519 328.384 14.2798 328.642C14.4097 328.897 14.5898 329.092 14.8199 329.227C15.05 329.359 15.3174 329.425 15.6221 329.425C15.8202 329.425 15.9992 329.397 16.159 329.342C16.321 329.284 16.4605 329.199 16.5777 329.086C16.6949 328.971 16.7854 328.828 16.8494 328.658L17.5781 328.862C17.5014 329.109 17.3725 329.327 17.1913 329.514C17.0102 329.7 16.7865 329.844 16.5202 329.949C16.2538 330.051 15.9545 330.102 15.6221 330.102ZM19.199 326.842V326.152H23.1365V326.842H19.199ZM19.199 328.734V328.044H23.1365V328.734H19.199ZM26.9474 330.089C26.5724 330.089 26.2347 330.015 25.9343 329.866C25.6339 329.717 25.3931 329.512 25.212 329.252C25.0309 328.992 24.9318 328.696 24.9148 328.364H25.6818C25.7116 328.66 25.8459 328.905 26.0845 329.099C26.3253 329.29 26.6129 329.386 26.9474 329.386C27.2159 329.386 27.4545 329.324 27.6633 329.198C27.8743 329.072 28.0394 328.9 28.1587 328.68C28.2802 328.458 28.3409 328.208 28.3409 327.929C28.3409 327.643 28.278 327.389 28.1523 327.165C28.0287 326.939 27.8583 326.761 27.641 326.631C27.4236 326.501 27.1754 326.435 26.8963 326.433C26.696 326.431 26.4904 326.462 26.2795 326.526C26.0685 326.588 25.8949 326.668 25.7585 326.766L25.017 326.676L25.4133 323.455H28.8139V324.158H26.0781L25.848 326.088H25.8863C26.0206 325.982 26.1889 325.893 26.3913 325.823C26.5937 325.752 26.8047 325.717 27.0241 325.717C27.4247 325.717 27.7816 325.813 28.0948 326.005C28.4101 326.195 28.6573 326.455 28.8363 326.785C29.0174 327.115 29.1079 327.492 29.1079 327.916C29.1079 328.334 29.0142 328.707 28.8267 329.035C28.6413 329.361 28.3856 329.619 28.0596 329.808C27.7336 329.996 27.3629 330.089 26.9474 330.089ZM32.6025 330.089C32.121 330.089 31.7108 329.958 31.372 329.696C31.0333 329.432 30.7744 329.05 30.5954 328.549C30.4164 328.046 30.3269 327.439 30.3269 326.727C30.3269 326.02 30.4164 325.416 30.5954 324.915C30.7765 324.412 31.0364 324.029 31.3752 323.765C31.7161 323.498 32.1252 323.365 32.6025 323.365C33.0798 323.365 33.4878 323.498 33.8266 323.765C34.1675 324.029 34.4274 324.412 34.6064 324.915C34.7875 325.416 34.8781 326.02 34.8781 326.727C34.8781 327.439 34.7886 328.046 34.6096 328.549C34.4306 329.05 34.1717 329.432 33.833 329.696C33.4942 329.958 33.084 330.089 32.6025 330.089ZM32.6025 329.386C33.0798 329.386 33.4505 329.156 33.7147 328.696C33.9789 328.236 34.111 327.58 34.111 326.727C34.111 326.161 34.0503 325.678 33.9289 325.279C33.8095 324.881 33.6369 324.577 33.4111 324.369C33.1874 324.16 32.9178 324.055 32.6025 324.055C32.1295 324.055 31.7598 324.289 31.4935 324.755C31.2271 325.22 31.094 325.877 31.094 326.727C31.094 327.294 31.1536 327.776 31.273 328.172C31.3923 328.568 31.5638 328.87 31.7875 329.076C32.0134 329.283 32.285 329.386 32.6025 329.386ZM40.0306 328.824L36.4255 325.219L36.9113 324.733L40.5164 328.338L40.0306 328.824ZM36.9113 328.824L36.4255 328.338L40.0306 324.733L40.5164 325.219L36.9113 328.824ZM44.5063 323.455V330H43.7137V324.286H43.6753L42.0773 325.347V324.541L43.7137 323.455H44.5063ZM48.6137 330.089C48.1322 330.089 47.722 329.958 47.3832 329.696C47.0445 329.432 46.7856 329.05 46.6066 328.549C46.4276 328.046 46.3381 327.439 46.3381 326.727C46.3381 326.02 46.4276 325.416 46.6066 324.915C46.7877 324.412 47.0477 324.029 47.3864 323.765C47.7273 323.498 48.1364 323.365 48.6137 323.365C49.091 323.365 49.499 323.498 49.8378 323.765C50.1787 324.029 50.4386 324.412 50.6176 324.915C50.7987 325.416 50.8893 326.02 50.8893 326.727C50.8893 327.439 50.7998 328.046 50.6208 328.549C50.4418 329.05 50.183 329.432 49.8442 329.696C49.5054 329.958 49.0952 330.089 48.6137 330.089ZM48.6137 329.386C49.091 329.386 49.4617 329.156 49.7259 328.696C49.9901 328.236 50.1222 327.58 50.1222 326.727C50.1222 326.161 50.0615 325.678 49.9401 325.279C49.8207 324.881 49.6482 324.577 49.4223 324.369C49.1986 324.16 48.9291 324.055 48.6137 324.055C48.1407 324.055 47.771 324.289 47.5047 324.755C47.2384 325.22 47.1052 325.877 47.1052 326.727C47.1052 327.294 47.1648 327.776 47.2842 328.172C47.4035 328.568 47.575 328.87 47.7987 329.076C48.0246 329.283 48.2962 329.386 48.6137 329.386ZM54.3287 330.089C53.8472 330.089 53.437 329.958 53.0982 329.696C52.7595 329.432 52.5006 329.05 52.3216 328.549C52.1426 328.046 52.0531 327.439 52.0531 326.727C52.0531 326.02 52.1426 325.416 52.3216 324.915C52.5027 324.412 52.7627 324.029 53.1014 323.765C53.4423 323.498 53.8514 323.365 54.3287 323.365C54.806 323.365 55.214 323.498 55.5528 323.765C55.8937 324.029 56.1536 324.412 56.3326 324.915C56.5137 325.416 56.6043 326.02 56.6043 326.727C56.6043 327.439 56.5148 328.046 56.3358 328.549C56.1568 329.05 55.898 329.432 55.5592 329.696C55.2204 329.958 54.8102 330.089 54.3287 330.089ZM54.3287 329.386C54.806 329.386 55.1767 329.156 55.4409 328.696C55.7051 328.236 55.8372 327.58 55.8372 326.727C55.8372 326.161 55.7765 325.678 55.6551 325.279C55.5357 324.881 55.3632 324.577 55.1373 324.369C54.9136 324.16 54.6441 324.055 54.3287 324.055C53.8557 324.055 53.486 324.289 53.2197 324.755C52.9534 325.22 52.8202 325.877 52.8202 326.727C52.8202 327.294 52.8798 327.776 52.9992 328.172C53.1185 328.568 53.29 328.87 53.5137 329.076C53.7396 329.283 54.0112 329.386 54.3287 329.386ZM6.31534 337.727C6.31534 338.418 6.1907 339.014 5.94141 339.517C5.69212 340.02 5.35014 340.408 4.91548 340.68C4.48082 340.953 3.98438 341.089 3.42614 341.089C2.8679 341.089 2.37145 340.953 1.93679 340.68C1.50213 340.408 1.16016 340.02 0.910867 339.517C0.661577 339.014 0.536932 338.418 0.536932 337.727C0.536932 337.037 0.661577 336.44 0.910867 335.938C1.16016 335.435 1.50213 335.047 1.93679 334.774C2.37145 334.501 2.8679 334.365 3.42614 334.365C3.98438 334.365 4.48082 334.501 4.91548 334.774C5.35014 335.047 5.69212 335.435 5.94141 335.938C6.1907 336.44 6.31534 337.037 6.31534 337.727ZM5.5483 337.727C5.5483 337.161 5.45348 336.682 5.26385 336.292C5.07635 335.902 4.82173 335.607 4.5 335.407C4.1804 335.207 3.82244 335.107 3.42614 335.107C3.02983 335.107 2.67081 335.207 2.34908 335.407C2.02947 335.607 1.77486 335.902 1.58523 336.292C1.39773 336.682 1.30398 337.161 1.30398 337.727C1.30398 338.294 1.39773 338.772 1.58523 339.162C1.77486 339.552 2.02947 339.847 2.34908 340.048C2.67081 340.248 3.02983 340.348 3.42614 340.348C3.82244 340.348 4.1804 340.248 4.5 340.048C4.82173 339.847 5.07635 339.552 5.26385 339.162C5.45348 338.772 5.5483 338.294 5.5483 337.727ZM7.63581 341V336.091H8.3645V336.832H8.41564C8.50513 336.589 8.66706 336.392 8.90143 336.241C9.13581 336.09 9.40001 336.014 9.69405 336.014C9.74945 336.014 9.81869 336.015 9.90179 336.017C9.98489 336.02 10.0477 336.023 10.0904 336.027V336.794C10.0648 336.788 10.0062 336.778 9.91457 336.765C9.82509 336.75 9.73027 336.743 9.63013 336.743C9.39149 336.743 9.17842 336.793 8.99092 336.893C8.80555 336.991 8.65854 337.127 8.54987 337.302C8.44334 337.475 8.39007 337.672 8.39007 337.893V341H7.63581ZM11.0744 341V336.091H11.8287V341H11.0744ZM11.458 335.273C11.3109 335.273 11.1842 335.223 11.0776 335.123C10.9732 335.022 10.921 334.902 10.921 334.761C10.921 334.621 10.9732 334.5 11.0776 334.4C11.1842 334.3 11.3109 334.25 11.458 334.25C11.605 334.25 11.7307 334.3 11.8351 334.4C11.9416 334.5 11.9949 334.621 11.9949 334.761C11.9949 334.902 11.9416 335.022 11.8351 335.123C11.7307 335.223 11.605 335.273 11.458 335.273ZM15.2817 342.943C14.9174 342.943 14.6042 342.896 14.3421 342.803C14.08 342.711 13.8616 342.589 13.6869 342.438C13.5143 342.289 13.3769 342.129 13.2746 341.959L13.8755 341.537C13.9437 341.626 14.0299 341.729 14.1343 341.844C14.2388 341.961 14.3815 342.062 14.5626 342.147C14.7459 342.235 14.9856 342.278 15.2817 342.278C15.678 342.278 16.0051 342.183 16.2629 341.991C16.5207 341.799 16.6496 341.499 16.6496 341.089V340.092H16.5857C16.5303 340.182 16.4515 340.293 16.3492 340.425C16.249 340.555 16.1042 340.671 15.9145 340.773C15.727 340.873 15.4735 340.923 15.1539 340.923C14.7576 340.923 14.4017 340.83 14.0864 340.642C13.7732 340.455 13.525 340.182 13.3417 339.824C13.1606 339.466 13.0701 339.031 13.0701 338.52C13.0701 338.017 13.1585 337.579 13.3353 337.206C13.5122 336.831 13.7583 336.542 14.0736 336.337C14.389 336.13 14.7533 336.027 15.1667 336.027C15.4863 336.027 15.7398 336.08 15.9273 336.187C16.1169 336.291 16.2618 336.411 16.362 336.545C16.4642 336.677 16.5431 336.786 16.5985 336.871H16.6752V336.091H17.4039V341.141C17.4039 341.562 17.308 341.906 17.1162 342.17C16.9266 342.436 16.6709 342.631 16.3492 342.755C16.0296 342.88 15.6738 342.943 15.2817 342.943ZM15.2562 340.246C15.5587 340.246 15.8144 340.176 16.0232 340.038C16.232 339.9 16.3907 339.7 16.4994 339.44C16.6081 339.18 16.6624 338.869 16.6624 338.507C16.6624 338.153 16.6091 337.841 16.5026 337.571C16.3961 337.3 16.2384 337.088 16.0296 336.935C15.8208 336.781 15.563 336.705 15.2562 336.705C14.9365 336.705 14.6702 336.786 14.4571 336.947C14.2462 337.109 14.0875 337.327 13.9809 337.599C13.8765 337.872 13.8243 338.175 13.8243 338.507C13.8243 338.848 13.8776 339.15 13.9841 339.412C14.0928 339.672 14.2526 339.876 14.4635 340.025C14.6766 340.172 14.9408 340.246 15.2562 340.246ZM18.8746 341V336.091H19.6288V341H18.8746ZM19.2581 335.273C19.1111 335.273 18.9843 335.223 18.8778 335.123C18.7734 335.022 18.7212 334.902 18.7212 334.761C18.7212 334.621 18.7734 334.5 18.8778 334.4C18.9843 334.3 19.1111 334.25 19.2581 334.25C19.4051 334.25 19.5308 334.3 19.6352 334.4C19.7417 334.5 19.795 334.621 19.795 334.761C19.795 334.902 19.7417 335.022 19.6352 335.123C19.5308 335.223 19.4051 335.273 19.2581 335.273ZM21.8546 338.047V341H21.1003V336.091H21.829V336.858H21.8929C22.008 336.609 22.1827 336.408 22.4171 336.257C22.6514 336.104 22.954 336.027 23.3247 336.027C23.6571 336.027 23.948 336.095 24.1972 336.232C24.4465 336.366 24.6404 336.57 24.7789 336.845C24.9174 337.118 24.9867 337.463 24.9867 337.881V341H24.2324V337.932C24.2324 337.546 24.1323 337.246 23.932 337.031C23.7317 336.813 23.4568 336.705 23.1074 336.705C22.8666 336.705 22.6514 336.757 22.4618 336.861C22.2743 336.966 22.1262 337.118 22.0176 337.318C21.9089 337.518 21.8546 337.761 21.8546 338.047ZM26.7618 337.842V337.152H30.6993V337.842H26.7618ZM26.7618 339.734V339.044H30.6993V339.734H26.7618ZM34.5102 341.089C34.1352 341.089 33.7975 341.015 33.4971 340.866C33.1967 340.717 32.9559 340.512 32.7748 340.252C32.5937 339.992 32.4946 339.696 32.4776 339.364H33.2446C33.2744 339.66 33.4087 339.905 33.6473 340.099C33.8881 340.29 34.1757 340.386 34.5102 340.386C34.7787 340.386 35.0173 340.324 35.2261 340.198C35.4371 340.072 35.6022 339.9 35.7215 339.68C35.843 339.458 35.9037 339.208 35.9037 338.929C35.9037 338.643 35.8408 338.389 35.7151 338.165C35.5916 337.939 35.4211 337.761 35.2038 337.631C34.9864 337.501 34.7382 337.435 34.4591 337.433C34.2588 337.431 34.0532 337.462 33.8423 337.526C33.6313 337.588 33.4577 337.668 33.3213 337.766L32.5798 337.676L32.9761 334.455H36.3767V335.158H33.6409L33.4108 337.088H33.4492C33.5834 336.982 33.7517 336.893 33.9541 336.823C34.1565 336.752 34.3675 336.717 34.5869 336.717C34.9875 336.717 35.3444 336.813 35.6576 337.005C35.973 337.195 36.2201 337.455 36.3991 337.785C36.5802 338.115 36.6707 338.492 36.6707 338.916C36.6707 339.334 36.577 339.707 36.3895 340.035C36.2041 340.361 35.9484 340.619 35.6225 340.808C35.2965 340.996 34.9257 341.089 34.5102 341.089ZM40.1653 341.089C39.6838 341.089 39.2736 340.958 38.9348 340.696C38.5961 340.432 38.3372 340.05 38.1582 339.549C37.9792 339.046 37.8897 338.439 37.8897 337.727C37.8897 337.02 37.9792 336.416 38.1582 335.915C38.3393 335.412 38.5993 335.029 38.938 334.765C39.279 334.498 39.688 334.365 40.1653 334.365C40.6426 334.365 41.0506 334.498 41.3894 334.765C41.7303 335.029 41.9902 335.412 42.1692 335.915C42.3503 336.416 42.4409 337.02 42.4409 337.727C42.4409 338.439 42.3514 339.046 42.1724 339.549C41.9934 340.05 41.7346 340.432 41.3958 340.696C41.057 340.958 40.6468 341.089 40.1653 341.089ZM40.1653 340.386C40.6426 340.386 41.0133 340.156 41.2775 339.696C41.5417 339.236 41.6738 338.58 41.6738 337.727C41.6738 337.161 41.6131 336.678 41.4917 336.279C41.3723 335.881 41.1998 335.577 40.9739 335.369C40.7502 335.16 40.4807 335.055 40.1653 335.055C39.6923 335.055 39.3226 335.289 39.0563 335.755C38.79 336.22 38.6568 336.877 38.6568 337.727C38.6568 338.294 38.7165 338.776 38.8358 339.172C38.9551 339.568 39.1266 339.87 39.3503 340.076C39.5762 340.283 39.8478 340.386 40.1653 340.386ZM44.6546 340.105L44.6035 340.45C44.5673 340.693 44.5119 340.953 44.4373 341.23C44.3649 341.507 44.2892 341.768 44.2104 342.013C44.1316 342.258 44.0666 342.453 44.0154 342.598H43.4402C43.4678 342.462 43.5041 342.282 43.5488 342.058C43.5936 341.834 43.6383 341.584 43.683 341.307C43.7299 341.032 43.7683 340.751 43.7981 340.463L43.8365 340.105H44.6546ZM48.0357 341.089C47.5542 341.089 47.1441 340.958 46.8053 340.696C46.4665 340.432 46.2076 340.05 46.0286 339.549C45.8497 339.046 45.7602 338.439 45.7602 337.727C45.7602 337.02 45.8497 336.416 46.0286 335.915C46.2097 335.412 46.4697 335.029 46.8085 334.765C47.1494 334.498 47.5585 334.365 48.0357 334.365C48.513 334.365 48.921 334.498 49.2598 334.765C49.6007 335.029 49.8607 335.412 50.0396 335.915C50.2208 336.416 50.3113 337.02 50.3113 337.727C50.3113 338.439 50.2218 339.046 50.0428 339.549C49.8639 340.05 49.605 340.432 49.2662 340.696C48.9274 340.958 48.5173 341.089 48.0357 341.089ZM48.0357 340.386C48.513 340.386 48.8838 340.156 49.148 339.696C49.4122 339.236 49.5443 338.58 49.5443 337.727C49.5443 337.161 49.4835 336.678 49.3621 336.279C49.2428 335.881 49.0702 335.577 48.8443 335.369C48.6206 335.16 48.3511 335.055 48.0357 335.055C47.5627 335.055 47.1931 335.289 46.9267 335.755C46.6604 336.22 46.5272 336.877 46.5272 337.727C46.5272 338.294 46.5869 338.776 46.7062 339.172C46.8255 339.568 46.997 339.87 47.2208 340.076C47.4466 340.283 47.7183 340.386 48.0357 340.386Z" fill="black"/>
<defs>
<filter id="filter0_d_1_185817" x="108" y="0" width="16" height="16" filterUnits="userSpaceOnUse" color-interpolation-filters="sRGB">
<feFlood flood-opacity="0" result="BackgroundImageFix"/>
<feColorMatrix in="SourceAlpha" type="matrix" values="0 0 0 0 0 0 0 0 0 0 0 0 0 0 0 0 0 0 127 0" result="hardAlpha"/>
<feOffset dy="2"/>
<feGaussianBlur stdDeviation="2"/>
<feColorMatrix type="matrix" values="0 0 0 0 0 0 0 0 0 0 0 0 0 0 0 0 0 0 0.45 0"/>
<feBlend mode="normal" in2="BackgroundImageFix" result="effect1_dropShadow_1_185817"/>
<feBlend mode="normal" in="SourceGraphic" in2="effect1_dropShadow_1_185817" result="shape"/>
</filter>
<filter id="filter1_d_1_185817" x="108" y="100" width="16" height="16" filterUnits="userSpaceOnUse" color-interpolation-filters="sRGB">
<feFlood flood-opacity="0" result="BackgroundImageFix"/>
<feColorMatrix in="SourceAlpha" type="matrix" values="0 0 0 0 0 0 0 0 0 0 0 0 0 0 0 0 0 0 127 0" result="hardAlpha"/>
<feOffset dy="2"/>
<feGaussianBlur stdDeviation="2"/>
<feColorMatrix type="matrix" values="0 0 0 0 0 0 0 0 0 0 0 0 0 0 0 0 0 0 0.45 0"/>
<feBlend mode="normal" in2="BackgroundImageFix" result="effect1_dropShadow_1_185817"/>
<feBlend mode="normal" in="SourceGraphic" in2="effect1_dropShadow_1_185817" result="shape"/>
</filter>
<filter id="filter2_d_1_185817" x="208" y="0" width="16" height="16" filterUnits="userSpaceOnUse" color-interpolation-filters="sRGB">
<feFlood flood-opacity="0" result="BackgroundImageFix"/>
<feColorMatrix in="SourceAlpha" type="matrix" values="0 0 0 0 0 0 0 0 0 0 0 0 0 0 0 0 0 0 127 0" result="hardAlpha"/>
<feOffset dy="2"/>
<feGaussianBlur stdDeviation="2"/>
<feColorMatrix type="matrix" values="0 0 0 0 0 0 0 0 0 0 0 0 0 0 0 0 0 0 0.45 0"/>
<feBlend mode="normal" in2="BackgroundImageFix" result="effect1_dropShadow_1_185817"/>
<feBlend mode="normal" in="SourceGraphic" in2="effect1_dropShadow_1_185817" result="shape"/>
</filter>
<filter id="filter3_d_1_185817" x="208" y="100" width="16" height="16" filterUnits="userSpaceOnUse" color-interpolation-filters="sRGB">
<feFlood flood-opacity="0" result="BackgroundImageFix"/>
<feColorMatrix in="SourceAlpha" type="matrix" values="0 0 0 0 0 0 0 0 0 0 0 0 0 0 0 0 0 0 127 0" result="hardAlpha"/>
<feOffset dy="2"/>
<feGaussianBlur stdDeviation="2"/>
<feColorMatrix type="matrix" values="0 0 0 0 0 0 0 0 0 0 0 0 0 0 0 0 0 0 0.45 0"/>
<feBlend mode="normal" in2="BackgroundImageFix" result="effect1_dropShadow_1_185817"/>
<feBlend mode="normal" in="SourceGraphic" in2="effect1_dropShadow_1_185817" result="shape"/>
</filter>
<filter id="filter4_d_1_185817" x="108" y="142" width="16" height="16" filterUnits="userSpaceOnUse" color-interpolation-filters="sRGB">
<feFlood flood-opacity="0" result="BackgroundImageFix"/>
<feColorMatrix in="SourceAlpha" type="matrix" values="0 0 0 0 0 0 0 0 0 0 0 0 0 0 0 0 0 0 127 0" result="hardAlpha"/>
<feOffset dy="2"/>
<feGaussianBlur stdDeviation="2"/>
<feColorMatrix type="matrix" values="0 0 0 0 0 0 0 0 0 0 0 0 0 0 0 0 0 0 0.45 0"/>
<feBlend mode="normal" in2="BackgroundImageFix" result="effect1_dropShadow_1_185817"/>
<feBlend mode="normal" in="SourceGraphic" in2="effect1_dropShadow_1_185817" result="shape"/>
</filter>
<filter id="filter5_d_1_185817" x="108" y="242" width="16" height="16" filterUnits="userSpaceOnUse" color-interpolation-filters="sRGB">
<feFlood flood-opacity="0" result="BackgroundImageFix"/>
<feColorMatrix in="SourceAlpha" type="matrix" values="0 0 0 0 0 0 0 0 0 0 0 0 0 0 0 0 0 0 127 0" result="hardAlpha"/>
<feOffset dy="2"/>
<feGaussianBlur stdDeviation="2"/>
<feColorMatrix type="matrix" values="0 0 0 0 0 0 0 0 0 0 0 0 0 0 0 0 0 0 0.45 0"/>
<feBlend mode="normal" in2="BackgroundImageFix" result="effect1_dropShadow_1_185817"/>
<feBlend mode="normal" in="SourceGraphic" in2="effect1_dropShadow_1_185817" result="shape"/>
</filter>
<filter id="filter6_d_1_185817" x="108" y="142" width="16" height="16" filterUnits="userSpaceOnUse" color-interpolation-filters="sRGB">
<feFlood flood-opacity="0" result="BackgroundImageFix"/>
<feColorMatrix in="SourceAlpha" type="matrix" values="0 0 0 0 0 0 0 0 0 0 0 0 0 0 0 0 0 0 127 0" result="hardAlpha"/>
<feOffset dy="2"/>
<feGaussianBlur stdDeviation="2"/>
<feColorMatrix type="matrix" values="0 0 0 0 0 0 0 0 0 0 0 0 0 0 0 0 0 0 0.45 0"/>
<feBlend mode="normal" in2="BackgroundImageFix" result="effect1_dropShadow_1_185817"/>
<feBlend mode="normal" in="SourceGraphic" in2="effect1_dropShadow_1_185817" result="shape"/>
</filter>
<filter id="filter7_d_1_185817" x="108" y="242" width="16" height="16" filterUnits="userSpaceOnUse" color-interpolation-filters="sRGB">
<feFlood flood-opacity="0" result="BackgroundImageFix"/>
<feColorMatrix in="SourceAlpha" type="matrix" values="0 0 0 0 0 0 0 0 0 0 0 0 0 0 0 0 0 0 127 0" result="hardAlpha"/>
<feOffset dy="2"/>
<feGaussianBlur stdDeviation="2"/>
<feColorMatrix type="matrix" values="0 0 0 0 0 0 0 0 0 0 0 0 0 0 0 0 0 0 0.45 0"/>
<feBlend mode="normal" in2="BackgroundImageFix" result="effect1_dropShadow_1_185817"/>
<feBlend mode="normal" in="SourceGraphic" in2="effect1_dropShadow_1_185817" result="shape"/>
</filter>
<filter id="filter8_d_1_185817" x="108" y="290" width="16" height="16" filterUnits="userSpaceOnUse" color-interpolation-filters="sRGB">
<feFlood flood-opacity="0" result="BackgroundImageFix"/>
<feColorMatrix in="SourceAlpha" type="matrix" values="0 0 0 0 0 0 0 0 0 0 0 0 0 0 0 0 0 0 127 0" result="hardAlpha"/>
<feOffset dy="2"/>
<feGaussianBlur stdDeviation="2"/>
<feColorMatrix type="matrix" values="0 0 0 0 0 0 0 0 0 0 0 0 0 0 0 0 0 0 0.45 0"/>
<feBlend mode="normal" in2="BackgroundImageFix" result="effect1_dropShadow_1_185817"/>
<feBlend mode="normal" in="SourceGraphic" in2="effect1_dropShadow_1_185817" result="shape"/>
</filter>
<filter id="filter9_d_1_185817" x="108" y="390" width="16" height="16" filterUnits="userSpaceOnUse" color-interpolation-filters="sRGB">
<feFlood flood-opacity="0" result="BackgroundImageFix"/>
<feColorMatrix in="SourceAlpha" type="matrix" values="0 0 0 0 0 0 0 0 0 0 0 0 0 0 0 0 0 0 127 0" result="hardAlpha"/>
<feOffset dy="2"/>
<feGaussianBlur stdDeviation="2"/>
<feColorMatrix type="matrix" values="0 0 0 0 0 0 0 0 0 0 0 0 0 0 0 0 0 0 0.45 0"/>
<feBlend mode="normal" in2="BackgroundImageFix" result="effect1_dropShadow_1_185817"/>
<feBlend mode="normal" in="SourceGraphic" in2="effect1_dropShadow_1_185817" result="shape"/>
</filter>
<filter id="filter10_d_1_185817" x="158" y="290" width="16" height="16" filterUnits="userSpaceOnUse" color-interpolation-filters="sRGB">
<feFlood flood-opacity="0" result="BackgroundImageFix"/>
<feColorMatrix in="SourceAlpha" type="matrix" values="0 0 0 0 0 0 0 0 0 0 0 0 0 0 0 0 0 0 127 0" result="hardAlpha"/>
<feOffset dy="2"/>
<feGaussianBlur stdDeviation="2"/>
<feColorMatrix type="matrix" values="0 0 0 0 0 0 0 0 0 0 0 0 0 0 0 0 0 0 0.45 0"/>
<feBlend mode="normal" in2="BackgroundImageFix" result="effect1_dropShadow_1_185817"/>
<feBlend mode="normal" in="SourceGraphic" in2="effect1_dropShadow_1_185817" result="shape"/>
</filter>
<filter id="filter11_d_1_185817" x="158" y="390" width="16" height="16" filterUnits="userSpaceOnUse" color-interpolation-filters="sRGB">
<feFlood flood-opacity="0" result="BackgroundImageFix"/>
<feColorMatrix in="SourceAlpha" type="matrix" values="0 0 0 0 0 0 0 0 0 0 0 0 0 0 0 0 0 0 127 0" result="hardAlpha"/>
<feOffset dy="2"/>
<feGaussianBlur stdDeviation="2"/>
<feColorMatrix type="matrix" values="0 0 0 0 0 0 0 0 0 0 0 0 0 0 0 0 0 0 0.45 0"/>
<feBlend mode="normal" in2="BackgroundImageFix" result="effect1_dropShadow_1_185817"/>
<feBlend mode="normal" in="SourceGraphic" in2="effect1_dropShadow_1_185817" result="shape"/>
</filter>
</defs>
</svg>
