<svg width="242" height="242" viewBox="0 0 242 242" fill="none" xmlns="http://www.w3.org/2000/svg">
<rect width="242" height="242" rx="37" fill="#D9D9D9"/>
<mask id="path-2-outside-1_302_4" maskUnits="userSpaceOnUse" x="84.1114" y="37.9265" width="98.0012" height="164.171" fill="black">
<rect fill="white" x="84.1114" y="37.9265" width="98.0012" height="164.171"/>
<path fill-rule="evenodd" clip-rule="evenodd" d="M92.899 188.459L159.874 119.813L91.0951 52.7088L98.6842 44.9303L175.109 119.494L100.545 195.919L92.899 188.459Z"/>
</mask>
<path fill-rule="evenodd" clip-rule="evenodd" d="M92.899 188.459L159.874 119.813L91.0951 52.7088L98.6842 44.9303L175.109 119.494L100.545 195.919L92.899 188.459Z" fill="black"/>
<path d="M159.874 119.813L164.168 124.003C165.28 122.864 165.893 121.33 165.873 119.739C165.854 118.148 165.203 116.63 164.064 115.518L159.874 119.813ZM92.899 188.459L88.6044 184.269C87.4931 185.408 86.8798 186.942 86.8994 188.533C86.919 190.124 87.5699 191.642 88.7089 192.754L92.899 188.459ZM91.0951 52.7088L86.8005 48.5188C85.6892 49.6578 85.0759 51.1915 85.0955 52.7827C85.1151 54.3739 85.766 55.8921 86.905 57.0034L91.0951 52.7088ZM98.6842 44.9303L102.874 40.6357C100.502 38.3216 96.7037 38.3684 94.3896 40.7403L98.6842 44.9303ZM175.109 119.494L179.403 123.684C180.515 122.545 181.128 121.012 181.108 119.42C181.089 117.829 180.438 116.311 179.299 115.2L175.109 119.494ZM100.545 195.919L96.3548 200.213C98.7266 202.528 102.525 202.481 104.839 200.109L100.545 195.919ZM155.579 115.623L88.6044 184.269L97.1936 192.649L164.168 124.003L155.579 115.623ZM86.905 57.0034L155.684 124.108L164.064 115.518L95.2851 48.4142L86.905 57.0034ZM95.3896 56.8988L102.979 49.1203L94.3896 40.7403L86.8005 48.5188L95.3896 56.8988ZM94.4941 49.2249L170.919 123.789L179.299 115.2L102.874 40.6357L94.4941 49.2249ZM170.814 115.304L96.2502 191.729L104.839 200.109L179.403 123.684L170.814 115.304ZM104.735 191.624L97.089 184.165L88.7089 192.754L96.3548 200.213L104.735 191.624Z" fill="#BC0000" mask="url(#path-2-outside-1_302_4)"/>
</svg>
