<svg width="226" height="117" viewBox="0 0 226 117" fill="none" xmlns="http://www.w3.org/2000/svg">
<g clip-path="url(#clip0_1_2422)">
<rect x="13" y="7" width="200" height="100" fill="#F2FFA5"/>
<rect x="-11" y="63" width="128" height="57" fill="#CF6565"/>
<path d="M153 -4L175.451 30.5491H248.106L189.327 51.9017L211.779 86.4509L153 65.0983L94.2215 86.4509L116.673 51.9017L57.8943 30.5491H130.549L153 -4Z" fill="#6338A9"/>
</g>
<rect x="13" y="7" width="200" height="100" stroke="#05FFD2" stroke-width="14"/>
<path d="M111.25 53.4021V51C111.25 50.0335 112.034 49.25 113 49.25C113.966 49.25 114.75 50.0335 114.75 51V53.4021C115.554 53.7937 116.206 54.4465 116.598 55.25H119C119.966 55.25 120.75 56.0335 120.75 57C120.75 57.9665 119.966 58.75 119 58.75H116.598C116.206 59.5535 115.554 60.2063 114.75 60.5979V63C114.75 63.9665 113.966 64.75 113 64.75C112.034 64.75 111.25 63.9665 111.25 63V60.5979C110.446 60.2063 109.794 59.5535 109.402 58.75H107C106.034 58.75 105.25 57.9665 105.25 57C105.25 56.0335 106.034 55.25 107 55.25H109.402C109.794 54.4465 110.446 53.7937 111.25 53.4021Z" fill="white"/>
<path fill-rule="evenodd" clip-rule="evenodd" d="M113 50.25C113.414 50.25 113.75 50.5858 113.75 51V54.0945C114.804 54.3658 115.634 55.1958 115.905 56.25H119C119.414 56.25 119.75 56.5858 119.75 57C119.75 57.4142 119.414 57.75 119 57.75H115.905C115.634 58.8042 114.804 59.6342 113.75 59.9055V63C113.75 63.4142 113.414 63.75 113 63.75C112.586 63.75 112.25 63.4142 112.25 63V59.9055C111.196 59.6342 110.366 58.8042 110.095 57.75H107C106.586 57.75 106.25 57.4142 106.25 57C106.25 56.5858 106.586 56.25 107 56.25H110.095C110.366 55.1958 111.196 54.3658 112.25 54.0945V51C112.25 50.5858 112.586 50.25 113 50.25ZM114.5 57C114.5 57.8284 113.828 58.5 113 58.5C112.172 58.5 111.5 57.8284 111.5 57C111.5 56.1716 112.172 55.5 113 55.5C113.828 55.5 114.5 56.1716 114.5 57Z" fill="#1C6EE8"/>
<path d="M13 0L13 114" stroke="#05FFD2" stroke-width="26"/>
<path d="M213 0L213 114" stroke="#05FFD2" stroke-width="26"/>
<rect x="13" y="7" width="200" height="100" stroke="#1C6EE8"/>
<g filter="url(#filter0_d_1_2422)">
<rect x="9" y="3" width="8" height="8" fill="white"/>
<rect x="9.5" y="3.5" width="7" height="7" stroke="#1C6EE8"/>
</g>
<g filter="url(#filter1_d_1_2422)">
<rect x="9" y="103" width="8" height="8" fill="white"/>
<rect x="9.5" y="103.5" width="7" height="7" stroke="#1C6EE8"/>
</g>
<g filter="url(#filter2_d_1_2422)">
<rect x="209" y="3" width="8" height="8" fill="white"/>
<rect x="209.5" y="3.5" width="7" height="7" stroke="#1C6EE8"/>
</g>
<g filter="url(#filter3_d_1_2422)">
<rect x="209" y="103" width="8" height="8" fill="white"/>
<rect x="209.5" y="103.5" width="7" height="7" stroke="#1C6EE8"/>
</g>
<defs>
<filter id="filter0_d_1_2422" x="5" y="1" width="16" height="16" filterUnits="userSpaceOnUse" color-interpolation-filters="sRGB">
<feFlood flood-opacity="0" result="BackgroundImageFix"/>
<feColorMatrix in="SourceAlpha" type="matrix" values="0 0 0 0 0 0 0 0 0 0 0 0 0 0 0 0 0 0 127 0" result="hardAlpha"/>
<feOffset dy="2"/>
<feGaussianBlur stdDeviation="2"/>
<feColorMatrix type="matrix" values="0 0 0 0 0 0 0 0 0 0 0 0 0 0 0 0 0 0 0.45 0"/>
<feBlend mode="normal" in2="BackgroundImageFix" result="effect1_dropShadow_1_2422"/>
<feBlend mode="normal" in="SourceGraphic" in2="effect1_dropShadow_1_2422" result="shape"/>
</filter>
<filter id="filter1_d_1_2422" x="5" y="101" width="16" height="16" filterUnits="userSpaceOnUse" color-interpolation-filters="sRGB">
<feFlood flood-opacity="0" result="BackgroundImageFix"/>
<feColorMatrix in="SourceAlpha" type="matrix" values="0 0 0 0 0 0 0 0 0 0 0 0 0 0 0 0 0 0 127 0" result="hardAlpha"/>
<feOffset dy="2"/>
<feGaussianBlur stdDeviation="2"/>
<feColorMatrix type="matrix" values="0 0 0 0 0 0 0 0 0 0 0 0 0 0 0 0 0 0 0.45 0"/>
<feBlend mode="normal" in2="BackgroundImageFix" result="effect1_dropShadow_1_2422"/>
<feBlend mode="normal" in="SourceGraphic" in2="effect1_dropShadow_1_2422" result="shape"/>
</filter>
<filter id="filter2_d_1_2422" x="205" y="1" width="16" height="16" filterUnits="userSpaceOnUse" color-interpolation-filters="sRGB">
<feFlood flood-opacity="0" result="BackgroundImageFix"/>
<feColorMatrix in="SourceAlpha" type="matrix" values="0 0 0 0 0 0 0 0 0 0 0 0 0 0 0 0 0 0 127 0" result="hardAlpha"/>
<feOffset dy="2"/>
<feGaussianBlur stdDeviation="2"/>
<feColorMatrix type="matrix" values="0 0 0 0 0 0 0 0 0 0 0 0 0 0 0 0 0 0 0.45 0"/>
<feBlend mode="normal" in2="BackgroundImageFix" result="effect1_dropShadow_1_2422"/>
<feBlend mode="normal" in="SourceGraphic" in2="effect1_dropShadow_1_2422" result="shape"/>
</filter>
<filter id="filter3_d_1_2422" x="205" y="101" width="16" height="16" filterUnits="userSpaceOnUse" color-interpolation-filters="sRGB">
<feFlood flood-opacity="0" result="BackgroundImageFix"/>
<feColorMatrix in="SourceAlpha" type="matrix" values="0 0 0 0 0 0 0 0 0 0 0 0 0 0 0 0 0 0 127 0" result="hardAlpha"/>
<feOffset dy="2"/>
<feGaussianBlur stdDeviation="2"/>
<feColorMatrix type="matrix" values="0 0 0 0 0 0 0 0 0 0 0 0 0 0 0 0 0 0 0.45 0"/>
<feBlend mode="normal" in2="BackgroundImageFix" result="effect1_dropShadow_1_2422"/>
<feBlend mode="normal" in="SourceGraphic" in2="effect1_dropShadow_1_2422" result="shape"/>
</filter>
<clipPath id="clip0_1_2422">
<rect x="13" y="7" width="200" height="100" fill="white"/>
</clipPath>
</defs>
</svg>
