<svg width="553" height="207" viewBox="0 0 553 207" fill="none" xmlns="http://www.w3.org/2000/svg">
<mask id="mask0_1_185824" style="mask-type:alpha" maskUnits="userSpaceOnUse" x="0" y="36" width="100" height="100">
<circle cx="50" cy="86" r="35.5" stroke="black" stroke-width="29"/>
</mask>
<g mask="url(#mask0_1_185824)">
<circle cx="19.7916" cy="112.042" r="61.4583" fill="#C6EC2C"/>
<circle cx="48.9583" cy="28.7083" r="61.4583" fill="#6A78F3"/>
<circle cx="98.9583" cy="109.958" r="61.4583" fill="#EB1010"/>
</g>
<circle cx="411.458" cy="144.792" r="61.4583" fill="#C6EC2C"/>
<circle cx="440.625" cy="61.4583" r="61.4583" fill="#6A78F3"/>
<circle cx="490.625" cy="142.708" r="61.4583" fill="#EB1010"/>
<mask id="mask1_1_185824" style="mask-type:alpha" maskUnits="userSpaceOnUse" x="150" y="36" width="100" height="100">
<circle cx="200" cy="86" r="35.5" stroke="black" stroke-width="29"/>
</mask>
<g mask="url(#mask1_1_185824)">
<circle cx="169.792" cy="112.042" r="61.4583" fill="#C6EC2C"/>
<circle cx="198.958" cy="28.7083" r="61.4583" fill="#6A78F3"/>
<circle cx="248.958" cy="109.958" r="61.4583" fill="#EB1010"/>
</g>
<path fill-rule="evenodd" clip-rule="evenodd" d="M420.056 52.75H371.667V144.906C374.518 145.356 377.443 145.59 380.424 145.59C410.985 145.59 435.608 120.996 435.608 90.8447C435.608 76.0631 429.69 62.6173 420.056 52.75ZM454.291 52.75C460.242 64.145 463.608 77.0972 463.608 90.8447C463.608 122.584 445.668 150.084 419.384 163.969H519.667V52.75H454.291Z" fill="#F8A65A"/>
<path d="M371.667 52.75V44.75H363.667V52.75H371.667ZM420.056 52.75L425.78 47.1612L423.426 44.75H420.056V52.75ZM371.667 144.906H363.667V151.741L370.418 152.808L371.667 144.906ZM454.291 52.75V44.75H441.087L447.199 56.4536L454.291 52.75ZM419.384 163.969L415.647 156.895L419.384 171.969V163.969ZM519.667 163.969V171.969H527.667V163.969H519.667ZM519.667 52.75H527.667V44.75H519.667V52.75ZM371.667 60.75H420.056V44.75H371.667V60.75ZM379.667 144.906V52.75H363.667V144.906H379.667ZM370.418 152.808C373.681 153.323 377.023 153.59 380.424 153.59V137.59C377.862 137.59 375.355 137.389 372.915 137.004L370.418 152.808ZM380.424 153.59C415.359 153.59 443.608 125.459 443.608 90.8447H427.608C427.608 116.534 406.611 137.59 380.424 137.59V153.59ZM443.608 90.8447C443.608 73.8836 436.808 58.4565 425.78 47.1612L414.332 58.3388C422.571 66.778 427.608 78.2427 427.608 90.8447H443.608ZM447.199 56.4536C452.568 66.7334 455.608 78.4182 455.608 90.8447H471.608C471.608 75.7762 467.916 61.5566 461.382 49.0464L447.199 56.4536ZM455.608 90.8447C455.608 119.483 439.431 144.331 415.647 156.895L423.121 171.043C451.905 155.837 471.608 125.685 471.608 90.8447H455.608ZM519.667 155.969H419.384V171.969H519.667V155.969ZM511.667 52.75V163.969H527.667V52.75H511.667ZM454.291 60.75H519.667V44.75H454.291V60.75Z" fill="black"/>
</svg>
