<svg width="242" height="242" viewBox="0 0 242 242" fill="none" xmlns="http://www.w3.org/2000/svg">
<rect width="242" height="242" rx="37" fill="#D9D9D9"/>
<path fill-rule="evenodd" clip-rule="evenodd" d="M136.45 26.0201C132.902 8.65997 108.098 8.65997 104.55 26.0201C102.018 38.41 86.9429 43.308 77.6117 34.7728C64.5373 22.8136 44.47 37.3933 51.8037 53.5234C57.0377 65.0354 47.721 77.8588 35.155 76.4384C17.5482 74.4481 9.88316 98.0386 25.2972 106.777C36.2982 113.014 36.2982 128.865 25.2972 135.102C9.88316 143.841 17.5482 167.431 35.155 165.441C47.721 164.021 57.0377 176.844 51.8037 188.356C44.4701 204.486 64.5373 219.066 77.6117 207.107C86.9428 198.571 102.018 203.469 104.55 215.859C108.098 233.219 132.902 233.219 136.45 215.859C138.982 203.469 154.057 198.571 163.388 207.107C176.463 219.066 196.53 204.486 189.196 188.356C183.962 176.844 193.279 164.021 205.845 165.441C223.452 167.431 231.117 143.841 215.703 135.102C204.702 128.865 204.702 113.014 215.703 106.777C231.117 98.0386 223.452 74.4481 205.845 76.4384C193.279 77.8588 183.962 65.0354 189.196 53.5234C196.53 37.3933 176.463 22.8136 163.388 34.7728C154.057 43.308 138.982 38.41 136.45 26.0201ZM120.088 160.156C141.518 160.156 158.891 142.783 158.891 121.352C158.891 99.9221 141.518 82.5494 120.088 82.5494C98.6576 82.5494 81.2849 99.9221 81.2849 121.352C81.2849 142.783 98.6576 160.156 120.088 160.156Z" fill="#333030"/>
</svg>
