<svg width="242" height="242" viewBox="0 0 242 242" fill="none" xmlns="http://www.w3.org/2000/svg">
<rect width="242" height="242" rx="37" fill="#D9D9D9"/>
<mask id="path-2-inside-1_302_10" fill="white">
<path fill-rule="evenodd" clip-rule="evenodd" d="M129.902 27.318L101.264 55.9558C99.5064 57.7132 99.5064 60.5624 101.264 62.3198C103.021 64.0772 105.87 64.0772 107.628 62.3198L128.584 41.364V110.053H137.584V41.364L158.539 62.3198C160.297 64.0772 163.146 64.0772 164.903 62.3198C166.661 60.5624 166.661 57.7132 164.903 55.9558L136.266 27.318C134.508 25.5607 131.659 25.5607 129.902 27.318ZM79 61.7925C79 58.7549 76.5376 56.2925 73.5 56.2925C70.4624 56.2925 68 58.7549 68 61.7925V178.176C68 181.214 70.4624 183.676 73.5 183.676H192.83C195.868 183.676 198.33 181.214 198.33 178.176V61.7925C198.33 58.7549 195.868 56.2925 192.83 56.2925C189.792 56.2925 187.33 58.7549 187.33 61.7925V172.676H79V61.7925Z"/>
</mask>
<path fill-rule="evenodd" clip-rule="evenodd" d="M129.902 27.318L101.264 55.9558C99.5064 57.7132 99.5064 60.5624 101.264 62.3198C103.021 64.0772 105.87 64.0772 107.628 62.3198L128.584 41.364V110.053H137.584V41.364L158.539 62.3198C160.297 64.0772 163.146 64.0772 164.903 62.3198C166.661 60.5624 166.661 57.7132 164.903 55.9558L136.266 27.318C134.508 25.5607 131.659 25.5607 129.902 27.318ZM79 61.7925C79 58.7549 76.5376 56.2925 73.5 56.2925C70.4624 56.2925 68 58.7549 68 61.7925V178.176C68 181.214 70.4624 183.676 73.5 183.676H192.83C195.868 183.676 198.33 181.214 198.33 178.176V61.7925C198.33 58.7549 195.868 56.2925 192.83 56.2925C189.792 56.2925 187.33 58.7549 187.33 61.7925V172.676H79V61.7925Z" fill="black"/>
<path d="M101.264 55.9558L120.356 75.0477L120.356 75.0477L101.264 55.9558ZM129.902 27.318L110.81 8.22611L110.81 8.22613L129.902 27.318ZM128.584 41.364H155.584V-23.8198L109.492 22.2721L128.584 41.364ZM128.584 110.053H101.584V137.053H128.584V110.053ZM137.584 110.053V137.053H164.584V110.053H137.584ZM137.584 41.364L156.675 22.2721L110.584 -23.8198V41.364H137.584ZM158.539 62.3198L177.631 43.2279L177.631 43.2279L158.539 62.3198ZM164.903 62.3198L183.995 81.4117L183.995 81.4117L164.903 62.3198ZM164.903 55.9558L183.995 36.864L183.995 36.864L164.903 55.9558ZM136.266 27.318L155.357 8.22613L155.357 8.22609L136.266 27.318ZM187.33 172.676V199.676H214.33V172.676H187.33ZM79 172.676H52V199.676H79V172.676ZM120.356 75.0477L148.993 46.4099L110.81 8.22613L82.1719 36.864L120.356 75.0477ZM120.356 43.2279C129.142 52.0147 129.142 66.2609 120.356 75.0477L82.1719 36.864C69.8704 49.1655 69.8704 69.1102 82.1719 81.4117L120.356 43.2279ZM88.5359 43.2279C97.3227 34.4411 111.569 34.4411 120.356 43.2279L82.1719 81.4117C94.4734 93.7132 114.418 93.7132 126.72 81.4117L88.5359 43.2279ZM109.492 22.2721L88.5359 43.2279L126.72 81.4117L147.675 60.4558L109.492 22.2721ZM155.584 110.053V41.364H101.584V110.053H155.584ZM137.584 83.0533H128.584V137.053H137.584V83.0533ZM110.584 41.364V110.053H164.584V41.364H110.584ZM177.631 43.2279L156.675 22.2721L118.492 60.4558L139.448 81.4117L177.631 43.2279ZM145.812 43.2279C154.598 34.4412 168.845 34.4411 177.631 43.2279L139.448 81.4117C151.749 93.7132 171.694 93.7132 183.995 81.4117L145.812 43.2279ZM145.811 75.0477C137.025 66.2609 137.025 52.0147 145.811 43.2279L183.995 81.4117C196.297 69.1102 196.297 49.1655 183.995 36.864L145.811 75.0477ZM117.174 46.4099L145.812 75.0477L183.995 36.864L155.357 8.22613L117.174 46.4099ZM148.993 46.4099C140.207 55.1967 125.961 55.1967 117.174 46.4099L155.357 8.22609C143.056 -4.07535 123.111 -4.07538 110.81 8.22611L148.993 46.4099ZM73.5 83.2925C61.6259 83.2925 52 73.6666 52 61.7925H106C106 43.8432 91.4493 29.2925 73.5 29.2925V83.2925ZM95 61.7925C95 73.6666 85.3741 83.2925 73.5 83.2925V29.2925C55.5507 29.2925 41 43.8432 41 61.7925H95ZM95 178.176V61.7925H41V178.176H95ZM73.5 156.676C85.3741 156.676 95 166.302 95 178.176H41C41 196.125 55.5507 210.676 73.5 210.676V156.676ZM192.83 156.676H73.5V210.676H192.83V156.676ZM171.33 178.176C171.33 166.302 180.956 156.676 192.83 156.676V210.676C210.779 210.676 225.33 196.125 225.33 178.176H171.33ZM171.33 61.7925V178.176H225.33V61.7925H171.33ZM192.83 83.2925C180.956 83.2925 171.33 73.6666 171.33 61.7925H225.33C225.33 43.8432 210.779 29.2925 192.83 29.2925V83.2925ZM214.33 61.7925C214.33 73.6666 204.704 83.2925 192.83 83.2925V29.2925C174.881 29.2925 160.33 43.8432 160.33 61.7925H214.33ZM214.33 172.676V61.7925H160.33V172.676H214.33ZM79 199.676H187.33V145.676H79V199.676ZM52 61.7925V172.676H106V61.7925H52Z" fill="black" mask="url(#path-2-inside-1_302_10)"/>
</svg>
