<svg width="107" height="82" viewBox="0 0 107 82" fill="none" xmlns="http://www.w3.org/2000/svg">
<path d="M8.5 8L37.1525 28.2625M47.6351 35.6757L57.4189 42.5946M79.7819 58.4093L99 72" stroke="#FF4A4A" stroke-width="19"/>
<path d="M8 8L36.6525 28.2625M47.1351 35.6757L56.9189 42.5946M79.2819 58.4093L98.5 72" stroke="#1C6EE8"/>
<g filter="url(#filter0_d_1_185784)">
<rect x="4" y="4" width="8" height="8" fill="white"/>
<rect x="4.5" y="4.5" width="7" height="7" stroke="#1C6EE8"/>
</g>
<g filter="url(#filter1_d_1_185784)">
<rect x="95" y="68" width="8" height="8" fill="white"/>
<rect x="95.5" y="68.5" width="7" height="7" stroke="#1C6EE8"/>
</g>
<path d="M52.25 36.4021V34C52.25 33.0335 53.0335 32.25 54 32.25C54.9665 32.25 55.75 33.0335 55.75 34V36.4021C56.5535 36.7937 57.2063 37.4465 57.5979 38.25H60C60.9665 38.25 61.75 39.0335 61.75 40C61.75 40.9665 60.9665 41.75 60 41.75H57.5979C57.2063 42.5535 56.5535 43.2063 55.75 43.5979V46C55.75 46.9665 54.9665 47.75 54 47.75C53.0335 47.75 52.25 46.9665 52.25 46V43.5979C51.4465 43.2063 50.7937 42.5535 50.4021 41.75H48C47.0335 41.75 46.25 40.9665 46.25 40C46.25 39.0335 47.0335 38.25 48 38.25H50.4021C50.7937 37.4465 51.4465 36.7937 52.25 36.4021Z" fill="white"/>
<path fill-rule="evenodd" clip-rule="evenodd" d="M54 33.25C54.4142 33.25 54.75 33.5858 54.75 34V37.0945C55.8042 37.3658 56.6342 38.1958 56.9055 39.25H60C60.4142 39.25 60.75 39.5858 60.75 40C60.75 40.4142 60.4142 40.75 60 40.75H56.9055C56.6342 41.8042 55.8042 42.6342 54.75 42.9055V46C54.75 46.4142 54.4142 46.75 54 46.75C53.5858 46.75 53.25 46.4142 53.25 46V42.9055C52.1958 42.6342 51.3658 41.8042 51.0945 40.75H48C47.5858 40.75 47.25 40.4142 47.25 40C47.25 39.5858 47.5858 39.25 48 39.25H51.0945C51.3658 38.1958 52.1958 37.3658 53.25 37.0945V34C53.25 33.5858 53.5858 33.25 54 33.25ZM55.5 40C55.5 40.8284 54.8284 41.5 54 41.5C53.1716 41.5 52.5 40.8284 52.5 40C52.5 39.1716 53.1716 38.5 54 38.5C54.8284 38.5 55.5 39.1716 55.5 40Z" fill="#1C6EE8"/>
<defs>
<filter id="filter0_d_1_185784" x="0" y="2" width="16" height="16" filterUnits="userSpaceOnUse" color-interpolation-filters="sRGB">
<feFlood flood-opacity="0" result="BackgroundImageFix"/>
<feColorMatrix in="SourceAlpha" type="matrix" values="0 0 0 0 0 0 0 0 0 0 0 0 0 0 0 0 0 0 127 0" result="hardAlpha"/>
<feOffset dy="2"/>
<feGaussianBlur stdDeviation="2"/>
<feColorMatrix type="matrix" values="0 0 0 0 0 0 0 0 0 0 0 0 0 0 0 0 0 0 0.45 0"/>
<feBlend mode="normal" in2="BackgroundImageFix" result="effect1_dropShadow_1_185784"/>
<feBlend mode="normal" in="SourceGraphic" in2="effect1_dropShadow_1_185784" result="shape"/>
</filter>
<filter id="filter1_d_1_185784" x="91" y="66" width="16" height="16" filterUnits="userSpaceOnUse" color-interpolation-filters="sRGB">
<feFlood flood-opacity="0" result="BackgroundImageFix"/>
<feColorMatrix in="SourceAlpha" type="matrix" values="0 0 0 0 0 0 0 0 0 0 0 0 0 0 0 0 0 0 127 0" result="hardAlpha"/>
<feOffset dy="2"/>
<feGaussianBlur stdDeviation="2"/>
<feColorMatrix type="matrix" values="0 0 0 0 0 0 0 0 0 0 0 0 0 0 0 0 0 0 0.45 0"/>
<feBlend mode="normal" in2="BackgroundImageFix" result="effect1_dropShadow_1_185784"/>
<feBlend mode="normal" in="SourceGraphic" in2="effect1_dropShadow_1_185784" result="shape"/>
</filter>
</defs>
</svg>
