<svg width="232" height="83" viewBox="0 0 232 83" fill="none" xmlns="http://www.w3.org/2000/svg">
<path d="M14.1265 9L78.6733 29.2625M102.288 36.6757L124.328 43.5946M174.706 59.4093L218 73" stroke="#FF4A4A" stroke-width="33"/>
<path d="M13 9L77.5469 29.2625M101.162 36.6757L123.202 43.5946M173.58 59.4093L216.874 73" stroke="#1C6EE8"/>
<g filter="url(#filter0_d_1_185786)">
<rect x="9" y="5" width="8" height="8" fill="white"/>
<rect x="9.5" y="5.5" width="7" height="7" stroke="#1C6EE8"/>
</g>
<g filter="url(#filter1_d_1_185786)">
<rect x="213" y="69" width="8" height="8" fill="white"/>
<rect x="213.5" y="69.5" width="7" height="7" stroke="#1C6EE8"/>
</g>
<path d="M114.25 37.4021V35C114.25 34.0335 115.034 33.25 116 33.25C116.966 33.25 117.75 34.0335 117.75 35V37.4021C118.554 37.7937 119.206 38.4465 119.598 39.25H122C122.966 39.25 123.75 40.0335 123.75 41C123.75 41.9665 122.966 42.75 122 42.75H119.598C119.206 43.5535 118.554 44.2063 117.75 44.5979V47C117.75 47.9665 116.966 48.75 116 48.75C115.034 48.75 114.25 47.9665 114.25 47V44.5979C113.446 44.2063 112.794 43.5535 112.402 42.75H110C109.034 42.75 108.25 41.9665 108.25 41C108.25 40.0335 109.034 39.25 110 39.25H112.402C112.794 38.4465 113.446 37.7937 114.25 37.4021Z" fill="white"/>
<path fill-rule="evenodd" clip-rule="evenodd" d="M116 34.25C116.414 34.25 116.75 34.5858 116.75 35V38.0945C117.804 38.3658 118.634 39.1958 118.905 40.25H122C122.414 40.25 122.75 40.5858 122.75 41C122.75 41.4142 122.414 41.75 122 41.75H118.905C118.634 42.8042 117.804 43.6342 116.75 43.9055V47C116.75 47.4142 116.414 47.75 116 47.75C115.586 47.75 115.25 47.4142 115.25 47V43.9055C114.196 43.6342 113.366 42.8042 113.095 41.75H110C109.586 41.75 109.25 41.4142 109.25 41C109.25 40.5858 109.586 40.25 110 40.25H113.095C113.366 39.1958 114.196 38.3658 115.25 38.0945V35C115.25 34.5858 115.586 34.25 116 34.25ZM117.5 41C117.5 41.8284 116.828 42.5 116 42.5C115.172 42.5 114.5 41.8284 114.5 41C114.5 40.1716 115.172 39.5 116 39.5C116.828 39.5 117.5 40.1716 117.5 41Z" fill="#1C6EE8"/>
<defs>
<filter id="filter0_d_1_185786" x="5" y="3" width="16" height="16" filterUnits="userSpaceOnUse" color-interpolation-filters="sRGB">
<feFlood flood-opacity="0" result="BackgroundImageFix"/>
<feColorMatrix in="SourceAlpha" type="matrix" values="0 0 0 0 0 0 0 0 0 0 0 0 0 0 0 0 0 0 127 0" result="hardAlpha"/>
<feOffset dy="2"/>
<feGaussianBlur stdDeviation="2"/>
<feColorMatrix type="matrix" values="0 0 0 0 0 0 0 0 0 0 0 0 0 0 0 0 0 0 0.45 0"/>
<feBlend mode="normal" in2="BackgroundImageFix" result="effect1_dropShadow_1_185786"/>
<feBlend mode="normal" in="SourceGraphic" in2="effect1_dropShadow_1_185786" result="shape"/>
</filter>
<filter id="filter1_d_1_185786" x="209" y="67" width="16" height="16" filterUnits="userSpaceOnUse" color-interpolation-filters="sRGB">
<feFlood flood-opacity="0" result="BackgroundImageFix"/>
<feColorMatrix in="SourceAlpha" type="matrix" values="0 0 0 0 0 0 0 0 0 0 0 0 0 0 0 0 0 0 127 0" result="hardAlpha"/>
<feOffset dy="2"/>
<feGaussianBlur stdDeviation="2"/>
<feColorMatrix type="matrix" values="0 0 0 0 0 0 0 0 0 0 0 0 0 0 0 0 0 0 0.45 0"/>
<feBlend mode="normal" in2="BackgroundImageFix" result="effect1_dropShadow_1_185786"/>
<feBlend mode="normal" in="SourceGraphic" in2="effect1_dropShadow_1_185786" result="shape"/>
</filter>
</defs>
</svg>
