<svg width="108" height="77" viewBox="0 0 108 77" fill="none" xmlns="http://www.w3.org/2000/svg">
<g filter="url(#filter0_i_2_977)">
<path d="M81.1825 53.391C78.8275 55.5415 75.2018 55.5415 72.8467 53.3598L72.5059 53.0482C56.2371 38.2439 45.6082 28.5509 46.0111 16.4582C46.197 11.1598 48.893 6.07959 53.2623 3.08756C61.4431 -2.52248 71.5452 0.09554 76.9992 6.51593C82.4531 0.09554 92.5552 -2.55365 100.736 3.08756C105.105 6.07959 107.801 11.1598 107.987 16.4582C108.318 25.6657 102.216 33.4819 92.1048 43.25C90.3594 44.9361 88.4945 46.6804 86.5226 48.5C84.9148 49.9836 83.2358 51.5174 81.4924 53.1105L81.1825 53.391Z" fill="#C4C4C4" fill-opacity="0.01"/>
</g>
<defs>
<filter id="filter0_i_2_977" x="46" y="0" width="66" height="59" filterUnits="userSpaceOnUse" color-interpolation-filters="sRGB">
<feFlood flood-opacity="0" result="BackgroundImageFix"/>
<feBlend mode="normal" in="SourceGraphic" in2="BackgroundImageFix" result="shape"/>
<feColorMatrix in="SourceAlpha" type="matrix" values="0 0 0 0 0 0 0 0 0 0 0 0 0 0 0 0 0 0 127 0" result="hardAlpha"/>
<feOffset dx="15" dy="15"/>
<feGaussianBlur stdDeviation="2"/>
<feComposite in2="hardAlpha" operator="arithmetic" k2="-1" k3="1"/>
<feColorMatrix type="matrix" values="0 0 0 0 0 0 0 0 0 1 0 0 0 0 1 0 0 0 0.55 0"/>
<feBlend mode="normal" in2="shape" result="effect1_innerShadow_2_977"/>
</filter>
</defs>
</svg>
