<svg width="303" height="199" viewBox="0 0 303 199" fill="none" xmlns="http://www.w3.org/2000/svg">
<g filter="url(#filter0_i_2_978)">
<path d="M98.1825 192.391C95.8275 194.542 92.2018 194.542 89.8467 192.36L89.5059 192.048C73.2371 177.244 62.6082 167.551 63.0111 155.458C63.197 150.16 65.893 145.08 70.2623 142.088C78.4431 136.478 88.5452 139.096 93.9992 145.516C99.4531 139.096 109.555 136.446 117.736 142.088C122.105 145.08 124.801 150.16 124.987 155.458C125.318 164.666 119.216 172.482 109.105 182.25C107.359 183.936 105.495 185.68 103.523 187.5C101.915 188.984 100.236 190.517 98.4924 192.11L98.1825 192.391Z" fill="#FFDB1E" fill-opacity="0.74"/>
</g>
<path d="M109.105 182.25C119.216 172.482 125.318 164.666 124.987 155.458C124.801 150.16 122.105 145.08 117.736 142.088C109.555 136.446 99.4531 139.096 93.9992 145.516C88.5452 139.096 78.4431 136.478 70.2623 142.088C65.893 145.08 63.197 150.16 63.0111 155.458C62.6082 167.551 73.2371 177.244 89.5059 192.048L89.8467 192.36C92.2018 194.542 95.8275 194.542 98.1825 192.391L98.4924 192.11C100.236 190.517 101.915 188.984 103.523 187.5M109.105 182.25C107.359 183.936 105.495 185.68 103.523 187.5M109.105 182.25L103.523 187.5" stroke="black" stroke-width="10"/>
<g filter="url(#filter1_i_2_978)">
<path d="M195.183 192.391C192.827 194.542 189.202 194.542 186.847 192.36L186.506 192.048C170.237 177.244 159.608 167.551 160.011 155.458C160.197 150.16 162.893 145.08 167.262 142.088C175.443 136.478 185.545 139.096 190.999 145.516C196.453 139.096 206.555 136.446 214.736 142.088C219.105 145.08 221.801 150.16 221.987 155.458C222.318 164.666 216.216 172.482 206.105 182.25C204.359 183.936 202.495 185.68 200.523 187.5C198.915 188.984 197.236 190.517 195.492 192.11L195.183 192.391Z" fill="#FFDB1E"/>
</g>
<g filter="url(#filter2_i_2_978)">
<path d="M0 87.7637H53.0373L26.5187 59.3818L0 87.7637Z" fill="#FFDB1E" fill-opacity="0.74"/>
</g>
<g filter="url(#filter3_i_2_978)">
<path d="M53.0373 31H0L26.5187 59.3818L53.0373 31Z" fill="#FFDB1E" fill-opacity="0.74"/>
</g>
<g filter="url(#filter4_i_2_978)">
<path d="M53.0372 87.7637V31L26.5186 59.3818L53.0372 87.7637Z" fill="#FFDB1E" fill-opacity="0.74"/>
</g>
<g filter="url(#filter5_i_2_978)">
<path d="M146.037 30H93L119.519 58.3819L146.037 30Z" fill="#FFDB1E" fill-opacity="0.74"/>
<path d="M93 86.7637H146.037L119.519 58.3819L93 86.7637Z" fill="#FFDB1E" fill-opacity="0.74"/>
<path d="M146.037 86.7637V30L119.519 58.3819L146.037 86.7637Z" fill="#FFDB1E" fill-opacity="0.74"/>
<path d="M186.5 55.5H152L155 76.5L186.5 55.5Z" fill="#FFDB1E" fill-opacity="0.74"/>
<path d="M150 23.5L155 42L175.5 34.5L171 18L150 23.5Z" fill="#FFDB1E" fill-opacity="0.74"/>
<path d="M132.5 96H166L144 120L132.5 96Z" fill="#FFDB1E" fill-opacity="0.74"/>
</g>
<g filter="url(#filter6_i_2_978)">
<path d="M266 24.5L271 43L291.5 35.5L287 19L266 24.5Z" fill="#FFDB1E" fill-opacity="0.74"/>
</g>
<g filter="url(#filter7_i_2_978)">
<path d="M248.5 97H282L260 121L248.5 97Z" fill="#FFDB1E" fill-opacity="0.74"/>
</g>
<g filter="url(#filter8_i_2_978)">
<path d="M302.5 56.5H268L271 77.5L302.5 56.5Z" fill="#FFDB1E" fill-opacity="0.74"/>
</g>
<g filter="url(#filter9_i_2_978)">
<path d="M209 87.7637H262.037L235.519 59.3818L209 87.7637Z" fill="#FFDB1E" fill-opacity="0.74"/>
</g>
<g filter="url(#filter10_i_2_978)">
<path d="M262.037 31H209L235.519 59.3818L262.037 31Z" fill="#FFDB1E" fill-opacity="0.74"/>
</g>
<g filter="url(#filter11_i_2_978)">
<path d="M262.037 87.7637V31L235.519 59.3818L262.037 87.7637Z" fill="#FFDB1E" fill-opacity="0.74"/>
</g>
<path d="M119.938 8C119.938 8.86198 119.776 9.60026 119.453 10.2148C119.133 10.8268 118.695 11.2956 118.141 11.6211C117.589 11.9466 116.962 12.1094 116.262 12.1094C115.561 12.1094 114.934 11.9466 114.379 11.6211C113.827 11.293 113.389 10.8229 113.066 10.2109C112.746 9.59635 112.586 8.85937 112.586 8C112.586 7.13802 112.746 6.40104 113.066 5.78906C113.389 5.17448 113.827 4.70443 114.379 4.37891C114.934 4.05339 115.561 3.89062 116.262 3.89062C116.962 3.89062 117.589 4.05339 118.141 4.37891C118.695 4.70443 119.133 5.17448 119.453 5.78906C119.776 6.40104 119.938 7.13802 119.938 8ZM118.48 8C118.48 7.39323 118.385 6.88151 118.195 6.46484C118.008 6.04557 117.747 5.72917 117.414 5.51563C117.081 5.29948 116.697 5.19141 116.262 5.19141C115.827 5.19141 115.443 5.29948 115.109 5.51563C114.776 5.72917 114.514 6.04557 114.324 6.46484C114.137 6.88151 114.043 7.39323 114.043 8C114.043 8.60677 114.137 9.11979 114.324 9.53906C114.514 9.95573 114.776 10.2721 115.109 10.4883C115.443 10.7018 115.827 10.8086 116.262 10.8086C116.697 10.8086 117.081 10.7018 117.414 10.4883C117.747 10.2721 118.008 9.95573 118.195 9.53906C118.385 9.11979 118.48 8.60677 118.48 8Z" fill="#43CA40"/>
<path d="M240 4L241.762 6.92969H241.824L243.594 4H245.246L242.781 8L245.285 12H243.605L241.824 9.08984H241.762L239.98 12H238.309L240.836 8L238.34 4H240Z" fill="#DC4B5C"/>
<defs>
<filter id="filter0_i_2_978" x="63" y="139" width="66" height="59" filterUnits="userSpaceOnUse" color-interpolation-filters="sRGB">
<feFlood flood-opacity="0" result="BackgroundImageFix"/>
<feBlend mode="normal" in="SourceGraphic" in2="BackgroundImageFix" result="shape"/>
<feColorMatrix in="SourceAlpha" type="matrix" values="0 0 0 0 0 0 0 0 0 0 0 0 0 0 0 0 0 0 127 0" result="hardAlpha"/>
<feOffset dx="15" dy="15"/>
<feGaussianBlur stdDeviation="2"/>
<feComposite in2="hardAlpha" operator="arithmetic" k2="-1" k3="1"/>
<feColorMatrix type="matrix" values="0 0 0 0 0 0 0 0 0 1 0 0 0 0 1 0 0 0 0.55 0"/>
<feBlend mode="normal" in2="shape" result="effect1_innerShadow_2_978"/>
</filter>
<filter id="filter1_i_2_978" x="160" y="139" width="66" height="59" filterUnits="userSpaceOnUse" color-interpolation-filters="sRGB">
<feFlood flood-opacity="0" result="BackgroundImageFix"/>
<feBlend mode="normal" in="SourceGraphic" in2="BackgroundImageFix" result="shape"/>
<feColorMatrix in="SourceAlpha" type="matrix" values="0 0 0 0 0 0 0 0 0 0 0 0 0 0 0 0 0 0 127 0" result="hardAlpha"/>
<feOffset dx="15" dy="15"/>
<feGaussianBlur stdDeviation="2"/>
<feComposite in2="hardAlpha" operator="arithmetic" k2="-1" k3="1"/>
<feColorMatrix type="matrix" values="0 0 0 0 0 0 0 0 0 1 0 0 0 0 1 0 0 0 0.55 0"/>
<feBlend mode="normal" in2="shape" result="effect1_innerShadow_2_978"/>
</filter>
<filter id="filter2_i_2_978" x="0" y="59.3818" width="57.0374" height="32.3818" filterUnits="userSpaceOnUse" color-interpolation-filters="sRGB">
<feFlood flood-opacity="0" result="BackgroundImageFix"/>
<feBlend mode="normal" in="SourceGraphic" in2="BackgroundImageFix" result="shape"/>
<feColorMatrix in="SourceAlpha" type="matrix" values="0 0 0 0 0 0 0 0 0 0 0 0 0 0 0 0 0 0 127 0" result="hardAlpha"/>
<feOffset dx="15" dy="15"/>
<feGaussianBlur stdDeviation="2"/>
<feComposite in2="hardAlpha" operator="arithmetic" k2="-1" k3="1"/>
<feColorMatrix type="matrix" values="0 0 0 0 0 0 0 0 0 1 0 0 0 0 1 0 0 0 0.55 0"/>
<feBlend mode="normal" in2="shape" result="effect1_innerShadow_2_978"/>
</filter>
<filter id="filter3_i_2_978" x="0" y="31" width="57.0374" height="32.3818" filterUnits="userSpaceOnUse" color-interpolation-filters="sRGB">
<feFlood flood-opacity="0" result="BackgroundImageFix"/>
<feBlend mode="normal" in="SourceGraphic" in2="BackgroundImageFix" result="shape"/>
<feColorMatrix in="SourceAlpha" type="matrix" values="0 0 0 0 0 0 0 0 0 0 0 0 0 0 0 0 0 0 127 0" result="hardAlpha"/>
<feOffset dx="15" dy="15"/>
<feGaussianBlur stdDeviation="2"/>
<feComposite in2="hardAlpha" operator="arithmetic" k2="-1" k3="1"/>
<feColorMatrix type="matrix" values="0 0 0 0 0 0 0 0 0 1 0 0 0 0 1 0 0 0 0.55 0"/>
<feBlend mode="normal" in2="shape" result="effect1_innerShadow_2_978"/>
</filter>
<filter id="filter4_i_2_978" x="26.5186" y="31" width="30.5186" height="60.7637" filterUnits="userSpaceOnUse" color-interpolation-filters="sRGB">
<feFlood flood-opacity="0" result="BackgroundImageFix"/>
<feBlend mode="normal" in="SourceGraphic" in2="BackgroundImageFix" result="shape"/>
<feColorMatrix in="SourceAlpha" type="matrix" values="0 0 0 0 0 0 0 0 0 0 0 0 0 0 0 0 0 0 127 0" result="hardAlpha"/>
<feOffset dx="15" dy="15"/>
<feGaussianBlur stdDeviation="2"/>
<feComposite in2="hardAlpha" operator="arithmetic" k2="-1" k3="1"/>
<feColorMatrix type="matrix" values="0 0 0 0 0 0 0 0 0 1 0 0 0 0 1 0 0 0 0.55 0"/>
<feBlend mode="normal" in2="shape" result="effect1_innerShadow_2_978"/>
</filter>
<filter id="filter5_i_2_978" x="93" y="18" width="97.5" height="106" filterUnits="userSpaceOnUse" color-interpolation-filters="sRGB">
<feFlood flood-opacity="0" result="BackgroundImageFix"/>
<feBlend mode="normal" in="SourceGraphic" in2="BackgroundImageFix" result="shape"/>
<feColorMatrix in="SourceAlpha" type="matrix" values="0 0 0 0 0 0 0 0 0 0 0 0 0 0 0 0 0 0 127 0" result="hardAlpha"/>
<feOffset dx="12" dy="12"/>
<feGaussianBlur stdDeviation="2"/>
<feComposite in2="hardAlpha" operator="arithmetic" k2="-1" k3="1"/>
<feColorMatrix type="matrix" values="0 0 0 0 0 0 0 0 0 1 0 0 0 0 1 0 0 0 0.55 0"/>
<feBlend mode="normal" in2="shape" result="effect1_innerShadow_2_978"/>
</filter>
<filter id="filter6_i_2_978" x="266" y="19" width="29.5" height="28" filterUnits="userSpaceOnUse" color-interpolation-filters="sRGB">
<feFlood flood-opacity="0" result="BackgroundImageFix"/>
<feBlend mode="normal" in="SourceGraphic" in2="BackgroundImageFix" result="shape"/>
<feColorMatrix in="SourceAlpha" type="matrix" values="0 0 0 0 0 0 0 0 0 0 0 0 0 0 0 0 0 0 127 0" result="hardAlpha"/>
<feOffset dx="12" dy="12"/>
<feGaussianBlur stdDeviation="2"/>
<feComposite in2="hardAlpha" operator="arithmetic" k2="-1" k3="1"/>
<feColorMatrix type="matrix" values="0 0 0 0 0 0 0 0 0 1 0 0 0 0 1 0 0 0 0.55 0"/>
<feBlend mode="normal" in2="shape" result="effect1_innerShadow_2_978"/>
</filter>
<filter id="filter7_i_2_978" x="248.5" y="97" width="37.5" height="28" filterUnits="userSpaceOnUse" color-interpolation-filters="sRGB">
<feFlood flood-opacity="0" result="BackgroundImageFix"/>
<feBlend mode="normal" in="SourceGraphic" in2="BackgroundImageFix" result="shape"/>
<feColorMatrix in="SourceAlpha" type="matrix" values="0 0 0 0 0 0 0 0 0 0 0 0 0 0 0 0 0 0 127 0" result="hardAlpha"/>
<feOffset dx="12" dy="12"/>
<feGaussianBlur stdDeviation="2"/>
<feComposite in2="hardAlpha" operator="arithmetic" k2="-1" k3="1"/>
<feColorMatrix type="matrix" values="0 0 0 0 0 0 0 0 0 1 0 0 0 0 1 0 0 0 0.55 0"/>
<feBlend mode="normal" in2="shape" result="effect1_innerShadow_2_978"/>
</filter>
<filter id="filter8_i_2_978" x="268" y="56.5" width="38.5" height="25" filterUnits="userSpaceOnUse" color-interpolation-filters="sRGB">
<feFlood flood-opacity="0" result="BackgroundImageFix"/>
<feBlend mode="normal" in="SourceGraphic" in2="BackgroundImageFix" result="shape"/>
<feColorMatrix in="SourceAlpha" type="matrix" values="0 0 0 0 0 0 0 0 0 0 0 0 0 0 0 0 0 0 127 0" result="hardAlpha"/>
<feOffset dx="12" dy="12"/>
<feGaussianBlur stdDeviation="2"/>
<feComposite in2="hardAlpha" operator="arithmetic" k2="-1" k3="1"/>
<feColorMatrix type="matrix" values="0 0 0 0 0 0 0 0 0 1 0 0 0 0 1 0 0 0 0.55 0"/>
<feBlend mode="normal" in2="shape" result="effect1_innerShadow_2_978"/>
</filter>
<filter id="filter9_i_2_978" x="209" y="59.3818" width="57.0374" height="32.3818" filterUnits="userSpaceOnUse" color-interpolation-filters="sRGB">
<feFlood flood-opacity="0" result="BackgroundImageFix"/>
<feBlend mode="normal" in="SourceGraphic" in2="BackgroundImageFix" result="shape"/>
<feColorMatrix in="SourceAlpha" type="matrix" values="0 0 0 0 0 0 0 0 0 0 0 0 0 0 0 0 0 0 127 0" result="hardAlpha"/>
<feOffset dx="12" dy="12"/>
<feGaussianBlur stdDeviation="2"/>
<feComposite in2="hardAlpha" operator="arithmetic" k2="-1" k3="1"/>
<feColorMatrix type="matrix" values="0 0 0 0 0 0 0 0 0 1 0 0 0 0 1 0 0 0 0.55 0"/>
<feBlend mode="normal" in2="shape" result="effect1_innerShadow_2_978"/>
</filter>
<filter id="filter10_i_2_978" x="209" y="31" width="57.0374" height="32.3818" filterUnits="userSpaceOnUse" color-interpolation-filters="sRGB">
<feFlood flood-opacity="0" result="BackgroundImageFix"/>
<feBlend mode="normal" in="SourceGraphic" in2="BackgroundImageFix" result="shape"/>
<feColorMatrix in="SourceAlpha" type="matrix" values="0 0 0 0 0 0 0 0 0 0 0 0 0 0 0 0 0 0 127 0" result="hardAlpha"/>
<feOffset dx="12" dy="12"/>
<feGaussianBlur stdDeviation="2"/>
<feComposite in2="hardAlpha" operator="arithmetic" k2="-1" k3="1"/>
<feColorMatrix type="matrix" values="0 0 0 0 0 0 0 0 0 1 0 0 0 0 1 0 0 0 0.55 0"/>
<feBlend mode="normal" in2="shape" result="effect1_innerShadow_2_978"/>
</filter>
<filter id="filter11_i_2_978" x="235.519" y="31" width="30.5186" height="60.7637" filterUnits="userSpaceOnUse" color-interpolation-filters="sRGB">
<feFlood flood-opacity="0" result="BackgroundImageFix"/>
<feBlend mode="normal" in="SourceGraphic" in2="BackgroundImageFix" result="shape"/>
<feColorMatrix in="SourceAlpha" type="matrix" values="0 0 0 0 0 0 0 0 0 0 0 0 0 0 0 0 0 0 127 0" result="hardAlpha"/>
<feOffset dx="12" dy="12"/>
<feGaussianBlur stdDeviation="2"/>
<feComposite in2="hardAlpha" operator="arithmetic" k2="-1" k3="1"/>
<feColorMatrix type="matrix" values="0 0 0 0 0 0 0 0 0 1 0 0 0 0 1 0 0 0 0.55 0"/>
<feBlend mode="normal" in2="shape" result="effect1_innerShadow_2_978"/>
</filter>
</defs>
</svg>
