<svg width="1108" height="1083" viewBox="0 0 1108 1083" fill="none" xmlns="http://www.w3.org/2000/svg">
<path d="M277.094 552.757C240.728 552.757 204.719 545.595 171.121 531.678C137.524 517.762 106.997 497.364 81.2825 471.65C55.5682 445.935 35.1705 415.408 21.254 381.811C7.33754 348.213 0.174822 312.204 0.174823 275.838C0.174825 239.473 7.33755 203.463 21.254 169.866C35.1705 136.269 55.5682 105.741 81.2825 80.0271C106.997 54.3128 137.524 33.9151 171.121 19.9986C204.719 6.08214 240.728 -1.08057 277.094 -1.08057L277.094 552.757Z" fill="url(#paint0_angular_107_4535)"/>
<path d="M277.094 1106.6C240.728 1106.6 204.719 1099.43 171.121 1085.52C137.524 1071.6 106.997 1051.2 81.2825 1025.49C55.5682 999.773 35.1705 969.246 21.254 935.648C7.33754 902.051 0.174822 866.042 0.174823 829.676C0.174825 793.311 7.33755 757.301 21.254 723.704C35.1705 690.107 55.5682 659.579 81.2825 633.865C106.997 608.151 137.524 587.753 171.121 573.837C204.719 559.92 240.728 552.757 277.094 552.757L277.094 1106.6Z" fill="url(#paint1_angular_107_4535)"/>
<path d="M277.094 275.838C313.459 275.838 349.469 283.001 383.066 296.918C416.663 310.834 447.191 331.232 472.905 356.946C498.619 382.66 519.017 413.188 532.934 446.785C546.85 480.382 554.013 516.392 554.013 552.757C554.013 589.123 546.85 625.132 532.933 658.73C519.017 692.327 498.619 722.854 472.905 748.569C447.191 774.283 416.663 794.681 383.066 808.597C349.469 822.514 313.459 829.676 277.094 829.676L277.094 275.838Z" fill="url(#paint2_angular_107_4535)"/>
<path d="M277.094 829.677C313.459 829.677 349.469 836.84 383.066 850.756C416.663 864.673 447.191 885.07 472.905 910.784C498.619 936.499 519.017 967.026 532.934 1000.62C546.85 1034.22 554.013 1070.23 554.013 1106.6C554.013 1142.96 546.85 1178.97 532.933 1212.57C519.017 1246.17 498.619 1276.69 472.905 1302.41C447.191 1328.12 416.663 1348.52 383.066 1362.44C349.469 1376.35 313.459 1383.51 277.094 1383.51L277.094 829.677Z" fill="url(#paint3_angular_107_4535)"/>
<path d="M277.094 -278C313.459 -278 349.469 -270.837 383.066 -256.921C416.663 -243.004 447.191 -222.607 472.905 -196.892C498.619 -171.178 519.017 -140.651 532.934 -107.053C546.85 -73.4559 554.013 -37.4465 554.013 -1.08099C554.013 35.2845 546.85 71.294 532.933 104.891C519.017 138.489 498.619 169.016 472.905 194.73C447.191 220.445 416.663 240.842 383.066 254.759C349.469 268.675 313.459 275.838 277.094 275.838L277.094 -278Z" fill="url(#paint4_angular_107_4535)"/>
<path d="M830.932 552.757C867.298 552.757 903.307 559.92 936.905 573.836C970.502 587.753 1001.03 608.151 1026.74 633.865C1052.46 659.579 1072.86 690.106 1086.77 723.704C1100.69 757.301 1107.85 793.311 1107.85 829.676C1107.85 866.042 1100.69 902.051 1086.77 935.648C1072.86 969.246 1052.46 999.773 1026.74 1025.49C1001.03 1051.2 970.502 1071.6 936.904 1085.52C903.307 1099.43 867.298 1106.59 830.932 1106.59L830.932 552.757Z" fill="url(#paint5_angular_107_4535)"/>
<path d="M830.932 -1.08075C867.298 -1.08074 903.307 6.08198 936.905 19.9984C970.502 33.9149 1001.03 54.3126 1026.74 80.0269C1052.46 105.741 1072.86 136.269 1086.77 169.866C1100.69 203.463 1107.85 239.473 1107.85 275.838C1107.85 312.204 1100.69 348.213 1086.77 381.81C1072.86 415.408 1052.46 445.935 1026.74 471.649C1001.03 497.364 970.502 517.761 936.904 531.678C903.307 545.594 867.298 552.757 830.932 552.757L830.932 -1.08075Z" fill="url(#paint6_angular_107_4535)"/>
<path d="M830.932 829.677C794.566 829.677 758.557 822.514 724.96 808.598C691.362 794.681 660.835 774.283 635.121 748.569C609.406 722.855 589.009 692.327 575.092 658.73C561.176 625.133 554.013 589.123 554.013 552.758C554.013 516.392 561.176 480.383 575.092 446.785C589.009 413.188 609.407 382.661 635.121 356.946C660.835 331.232 691.362 310.835 724.96 296.918C758.557 283.002 794.567 275.839 830.932 275.839L830.932 829.677Z" fill="url(#paint7_angular_107_4535)"/>
<path d="M830.932 275.838C794.566 275.838 758.557 268.676 724.96 254.759C691.362 240.843 660.835 220.445 635.121 194.731C609.406 169.016 589.009 138.489 575.092 104.892C561.176 71.2944 554.013 35.285 554.013 -1.08054C554.013 -37.446 561.176 -73.4555 575.092 -107.053C589.009 -140.65 609.407 -171.177 635.121 -196.892C660.835 -222.606 691.362 -243.004 724.96 -256.92C758.557 -270.837 794.567 -277.999 830.932 -277.999L830.932 275.838Z" fill="url(#paint8_angular_107_4535)"/>
<path d="M830.932 1383.51C794.566 1383.51 758.557 1376.35 724.96 1362.44C691.362 1348.52 660.835 1328.12 635.121 1302.41C609.406 1276.69 589.009 1246.17 575.092 1212.57C561.176 1178.97 554.013 1142.96 554.013 1106.6C554.013 1070.23 561.176 1034.22 575.092 1000.62C589.009 967.026 609.407 936.499 635.121 910.784C660.835 885.07 691.362 864.672 724.96 850.756C758.557 836.839 794.567 829.677 830.932 829.677L830.932 1383.51Z" fill="url(#paint9_angular_107_4535)"/>
<defs>
<radialGradient id="paint0_angular_107_4535" cx="0" cy="0" r="1" gradientUnits="userSpaceOnUse" gradientTransform="translate(277.094 275.838) rotate(-180) scale(276.919 276.919)">
<stop stop-color="#FB5E5E"/>
<stop offset="0.333333" stop-color="white"/>
<stop offset="0.666667" stop-color="#EBC0FF"/>
<stop offset="1" stop-color="#480BAB"/>
</radialGradient>
<radialGradient id="paint1_angular_107_4535" cx="0" cy="0" r="1" gradientUnits="userSpaceOnUse" gradientTransform="translate(277.094 829.676) rotate(-180) scale(276.919 276.919)">
<stop stop-color="#FB5E5E"/>
<stop offset="0.333333" stop-color="white"/>
<stop offset="0.666667" stop-color="#EBC0FF"/>
<stop offset="1" stop-color="#480BAB"/>
</radialGradient>
<radialGradient id="paint2_angular_107_4535" cx="0" cy="0" r="1" gradientUnits="userSpaceOnUse" gradientTransform="translate(277.094 552.757) scale(276.919 276.919)">
<stop stop-color="#FB5E5E"/>
<stop offset="0.333333" stop-color="white"/>
<stop offset="0.666667" stop-color="#EBC0FF"/>
<stop offset="1" stop-color="#480BAB"/>
</radialGradient>
<radialGradient id="paint3_angular_107_4535" cx="0" cy="0" r="1" gradientUnits="userSpaceOnUse" gradientTransform="translate(277.094 1106.6) scale(276.919 276.919)">
<stop stop-color="#FB5E5E"/>
<stop offset="0.333333" stop-color="white"/>
<stop offset="0.666667" stop-color="#EBC0FF"/>
<stop offset="1" stop-color="#480BAB"/>
</radialGradient>
<radialGradient id="paint4_angular_107_4535" cx="0" cy="0" r="1" gradientUnits="userSpaceOnUse" gradientTransform="translate(277.094 -1.08102) scale(276.919 276.919)">
<stop stop-color="#FB5E5E"/>
<stop offset="0.333333" stop-color="white"/>
<stop offset="0.666667" stop-color="#EBC0FF"/>
<stop offset="1" stop-color="#480BAB"/>
</radialGradient>
<radialGradient id="paint5_angular_107_4535" cx="0" cy="0" r="1" gradientUnits="userSpaceOnUse" gradientTransform="translate(830.932 829.676) scale(276.919 276.919)">
<stop stop-color="#FB5E5E"/>
<stop offset="0.333333" stop-color="white"/>
<stop offset="0.666667" stop-color="#EBC0FF"/>
<stop offset="1" stop-color="#480BAB"/>
</radialGradient>
<radialGradient id="paint6_angular_107_4535" cx="0" cy="0" r="1" gradientUnits="userSpaceOnUse" gradientTransform="translate(830.932 275.838) scale(276.919 276.919)">
<stop stop-color="#FB5E5E"/>
<stop offset="0.333333" stop-color="white"/>
<stop offset="0.666667" stop-color="#EBC0FF"/>
<stop offset="1" stop-color="#480BAB"/>
</radialGradient>
<radialGradient id="paint7_angular_107_4535" cx="0" cy="0" r="1" gradientUnits="userSpaceOnUse" gradientTransform="translate(830.932 552.758) rotate(-180) scale(276.919 276.919)">
<stop stop-color="#FB5E5E"/>
<stop offset="0.333333" stop-color="white"/>
<stop offset="0.666667" stop-color="#EBC0FF"/>
<stop offset="1" stop-color="#480BAB"/>
</radialGradient>
<radialGradient id="paint8_angular_107_4535" cx="0" cy="0" r="1" gradientUnits="userSpaceOnUse" gradientTransform="translate(830.932 -1.08047) rotate(-180) scale(276.919 276.919)">
<stop stop-color="#FB5E5E"/>
<stop offset="0.333333" stop-color="white"/>
<stop offset="0.666667" stop-color="#EBC0FF"/>
<stop offset="1" stop-color="#480BAB"/>
</radialGradient>
<radialGradient id="paint9_angular_107_4535" cx="0" cy="0" r="1" gradientUnits="userSpaceOnUse" gradientTransform="translate(830.932 1106.6) rotate(-180) scale(276.919 276.919)">
<stop stop-color="#FB5E5E"/>
<stop offset="0.333333" stop-color="white"/>
<stop offset="0.666667" stop-color="#EBC0FF"/>
<stop offset="1" stop-color="#480BAB"/>
</radialGradient>
</defs>
</svg>
