<svg width="198" height="191" viewBox="0 0 198 191" fill="none" xmlns="http://www.w3.org/2000/svg">
<ellipse cx="110.272" cy="110.977" rx="49.5" ry="50" transform="rotate(30 110.272 110.977)" fill="#739AFF"/>
<rect x="69.8604" y="7.97168" width="79" height="77" transform="rotate(30 69.8604 7.97168)" fill="#FFC635"/>
<rect x="69.8604" y="7.97168" width="136" height="119" transform="rotate(30 69.8604 7.97168)" stroke="#1C6EE8"/>
<g filter="url(#filter0_d_1_185806)">
<rect x="68.3965" y="2.50781" width="8" height="8" transform="rotate(30 68.3965 2.50781)" fill="white"/>
<rect x="68.5795" y="3.19083" width="7" height="7" transform="rotate(30 68.5795 3.19083)" stroke="#1C6EE8"/>
</g>
<g filter="url(#filter1_d_1_185806)">
<rect x="8.89648" y="105.564" width="8" height="8" transform="rotate(30 8.89648 105.564)" fill="white"/>
<rect x="9.0795" y="106.247" width="7" height="7" transform="rotate(30 9.0795 106.247)" stroke="#1C6EE8"/>
</g>
<g filter="url(#filter2_d_1_185806)">
<rect x="186.176" y="70.5078" width="8" height="8" transform="rotate(30 186.176 70.5078)" fill="white"/>
<rect x="186.359" y="71.1908" width="7" height="7" transform="rotate(30 186.359 71.1908)" stroke="#1C6EE8"/>
</g>
<g filter="url(#filter3_d_1_185806)">
<rect x="126.676" y="173.564" width="8" height="8" transform="rotate(30 126.676 173.564)" fill="white"/>
<rect x="126.859" y="174.247" width="7" height="7" transform="rotate(30 126.859 174.247)" stroke="#1C6EE8"/>
</g>
<path d="M97.25 90.4021V88C97.25 87.0335 98.0335 86.25 99 86.25C99.9665 86.25 100.75 87.0335 100.75 88V90.4021C101.554 90.7937 102.206 91.4465 102.598 92.25H105C105.966 92.25 106.75 93.0335 106.75 94C106.75 94.9665 105.966 95.75 105 95.75H102.598C102.206 96.5535 101.554 97.2063 100.75 97.5979V100C100.75 100.966 99.9665 101.75 99 101.75C98.0335 101.75 97.25 100.966 97.25 100V97.5979C96.4465 97.2063 95.7937 96.5535 95.4021 95.75H93C92.0335 95.75 91.25 94.9665 91.25 94C91.25 93.0335 92.0335 92.25 93 92.25H95.4021C95.7937 91.4465 96.4465 90.7937 97.25 90.4021Z" fill="white"/>
<path fill-rule="evenodd" clip-rule="evenodd" d="M99 87.25C99.4142 87.25 99.75 87.5858 99.75 88V91.0945C100.804 91.3658 101.634 92.1958 101.905 93.25H105C105.414 93.25 105.75 93.5858 105.75 94C105.75 94.4142 105.414 94.75 105 94.75H101.905C101.634 95.8042 100.804 96.6342 99.75 96.9055V100C99.75 100.414 99.4142 100.75 99 100.75C98.5858 100.75 98.25 100.414 98.25 100V96.9055C97.1958 96.6342 96.3658 95.8042 96.0945 94.75H93C92.5858 94.75 92.25 94.4142 92.25 94C92.25 93.5858 92.5858 93.25 93 93.25H96.0945C96.3658 92.1958 97.1958 91.3658 98.25 91.0945V88C98.25 87.5858 98.5858 87.25 99 87.25ZM100.5 94C100.5 94.8284 99.8284 95.5 99 95.5C98.1716 95.5 97.5 94.8284 97.5 94C97.5 93.1716 98.1716 92.5 99 92.5C99.8284 92.5 100.5 93.1716 100.5 94Z" fill="#1C6EE8"/>
<defs>
<filter id="filter0_d_1_185806" x="60.3965" y="0.507812" width="18.9282" height="18.9277" filterUnits="userSpaceOnUse" color-interpolation-filters="sRGB">
<feFlood flood-opacity="0" result="BackgroundImageFix"/>
<feColorMatrix in="SourceAlpha" type="matrix" values="0 0 0 0 0 0 0 0 0 0 0 0 0 0 0 0 0 0 127 0" result="hardAlpha"/>
<feOffset dy="2"/>
<feGaussianBlur stdDeviation="2"/>
<feColorMatrix type="matrix" values="0 0 0 0 0 0 0 0 0 0 0 0 0 0 0 0 0 0 0.45 0"/>
<feBlend mode="normal" in2="BackgroundImageFix" result="effect1_dropShadow_1_185806"/>
<feBlend mode="normal" in="SourceGraphic" in2="effect1_dropShadow_1_185806" result="shape"/>
</filter>
<filter id="filter1_d_1_185806" x="0.896484" y="103.564" width="18.9277" height="18.9277" filterUnits="userSpaceOnUse" color-interpolation-filters="sRGB">
<feFlood flood-opacity="0" result="BackgroundImageFix"/>
<feColorMatrix in="SourceAlpha" type="matrix" values="0 0 0 0 0 0 0 0 0 0 0 0 0 0 0 0 0 0 127 0" result="hardAlpha"/>
<feOffset dy="2"/>
<feGaussianBlur stdDeviation="2"/>
<feColorMatrix type="matrix" values="0 0 0 0 0 0 0 0 0 0 0 0 0 0 0 0 0 0 0.45 0"/>
<feBlend mode="normal" in2="BackgroundImageFix" result="effect1_dropShadow_1_185806"/>
<feBlend mode="normal" in="SourceGraphic" in2="effect1_dropShadow_1_185806" result="shape"/>
</filter>
<filter id="filter2_d_1_185806" x="178.176" y="68.5078" width="18.9282" height="18.9277" filterUnits="userSpaceOnUse" color-interpolation-filters="sRGB">
<feFlood flood-opacity="0" result="BackgroundImageFix"/>
<feColorMatrix in="SourceAlpha" type="matrix" values="0 0 0 0 0 0 0 0 0 0 0 0 0 0 0 0 0 0 127 0" result="hardAlpha"/>
<feOffset dy="2"/>
<feGaussianBlur stdDeviation="2"/>
<feColorMatrix type="matrix" values="0 0 0 0 0 0 0 0 0 0 0 0 0 0 0 0 0 0 0.45 0"/>
<feBlend mode="normal" in2="BackgroundImageFix" result="effect1_dropShadow_1_185806"/>
<feBlend mode="normal" in="SourceGraphic" in2="effect1_dropShadow_1_185806" result="shape"/>
</filter>
<filter id="filter3_d_1_185806" x="118.676" y="171.564" width="18.9282" height="18.9277" filterUnits="userSpaceOnUse" color-interpolation-filters="sRGB">
<feFlood flood-opacity="0" result="BackgroundImageFix"/>
<feColorMatrix in="SourceAlpha" type="matrix" values="0 0 0 0 0 0 0 0 0 0 0 0 0 0 0 0 0 0 127 0" result="hardAlpha"/>
<feOffset dy="2"/>
<feGaussianBlur stdDeviation="2"/>
<feColorMatrix type="matrix" values="0 0 0 0 0 0 0 0 0 0 0 0 0 0 0 0 0 0 0.45 0"/>
<feBlend mode="normal" in2="BackgroundImageFix" result="effect1_dropShadow_1_185806"/>
<feBlend mode="normal" in="SourceGraphic" in2="effect1_dropShadow_1_185806" result="shape"/>
</filter>
</defs>
</svg>
