<svg width="535" height="659" viewBox="0 0 535 659" fill="none" xmlns="http://www.w3.org/2000/svg">
<rect x="174" y="51" width="360" height="305" fill="white"/>
<rect x="174" y="51" width="360" height="305" stroke="#4B4B4B"/>
<rect x="174" y="356" width="360" height="302" fill="white"/>
<rect x="174" y="356" width="360" height="302" stroke="#4B4B4B"/>
<rect x="1" y="51" width="173" height="305" fill="white"/>
<rect x="1" y="51" width="173" height="305" stroke="#45454F"/>
<path d="M21.9432 201.08C21.8485 200.773 21.7178 200.498 21.5511 200.256C21.3883 200.009 21.1913 199.799 20.9602 199.625C20.733 199.451 20.4716 199.32 20.1761 199.233C19.8807 199.142 19.5587 199.097 19.2102 199.097C18.5852 199.097 18.0284 199.254 17.5398 199.568C17.0511 199.883 16.6667 200.345 16.3864 200.955C16.1098 201.561 15.9716 202.299 15.9716 203.17C15.9716 204.049 16.1098 204.794 16.3864 205.403C16.6629 206.013 17.0473 206.477 17.5398 206.795C18.0322 207.11 18.6042 207.267 19.2557 207.267C19.8466 207.267 20.358 207.153 20.7898 206.926C21.2254 206.699 21.5606 206.377 21.7955 205.96C22.0303 205.54 22.1477 205.047 22.1477 204.483L22.625 204.557H19.4659V202.909H24.1875V204.307C24.1875 205.303 23.9754 206.165 23.5511 206.892C23.1269 207.619 22.5436 208.18 21.8011 208.574C21.0587 208.964 20.2064 209.159 19.2443 209.159C18.1723 209.159 17.2311 208.919 16.4205 208.438C15.6136 207.953 14.983 207.265 14.5284 206.375C14.0777 205.481 13.8523 204.42 13.8523 203.193C13.8523 202.254 13.9848 201.415 14.25 200.676C14.5189 199.938 14.8939 199.311 15.375 198.795C15.8561 198.277 16.4205 197.883 17.0682 197.614C17.7159 197.341 18.4205 197.205 19.1818 197.205C19.8258 197.205 20.4261 197.299 20.983 197.489C21.5398 197.674 22.0341 197.939 22.4659 198.284C22.9015 198.629 23.2595 199.038 23.5398 199.511C23.8201 199.985 24.0038 200.508 24.0909 201.08H21.9432ZM26.6018 209V200.273H28.6586V209H26.6018ZM27.6359 199.034C27.3102 199.034 27.0298 198.926 26.795 198.71C26.5602 198.491 26.4427 198.227 26.4427 197.92C26.4427 197.61 26.5602 197.347 26.795 197.131C27.0298 196.911 27.3102 196.801 27.6359 196.801C27.9655 196.801 28.2458 196.911 28.4768 197.131C28.7117 197.347 28.8291 197.61 28.8291 197.92C28.8291 198.227 28.7117 198.491 28.4768 198.71C28.2458 198.926 27.9655 199.034 27.6359 199.034ZM38.4891 200.273L35.3812 209H33.1085L30.0005 200.273H32.1937L34.1994 206.756H34.2903L36.3016 200.273H38.4891ZM43.3992 209.17C42.5242 209.17 41.7685 208.989 41.1322 208.625C40.4996 208.258 40.0128 207.739 39.6719 207.068C39.331 206.394 39.1606 205.6 39.1606 204.688C39.1606 203.79 39.331 203.002 39.6719 202.324C40.0166 201.642 40.4977 201.112 41.1151 200.733C41.7325 200.35 42.4579 200.159 43.2913 200.159C43.8291 200.159 44.3367 200.246 44.814 200.42C45.295 200.591 45.7193 200.856 46.0867 201.216C46.4579 201.576 46.7496 202.034 46.9617 202.591C47.1738 203.144 47.2799 203.803 47.2799 204.568V205.199H40.1265V203.812H45.3083C45.3045 203.419 45.2193 203.068 45.0526 202.761C44.8859 202.451 44.653 202.206 44.3538 202.028C44.0583 201.85 43.7136 201.761 43.3197 201.761C42.8992 201.761 42.5299 201.864 42.2117 202.068C41.8935 202.269 41.6454 202.534 41.4674 202.864C41.2931 203.189 41.2041 203.547 41.2003 203.938V205.148C41.2003 205.655 41.2931 206.091 41.4788 206.455C41.6644 206.814 41.9238 207.091 42.2572 207.284C42.5905 207.473 42.9806 207.568 43.4276 207.568C43.7269 207.568 43.9977 207.527 44.2401 207.443C44.4825 207.356 44.6928 207.229 44.8708 207.062C45.0488 206.896 45.1833 206.689 45.2742 206.443L47.1947 206.659C47.0734 207.167 46.8424 207.61 46.5015 207.989C46.1644 208.364 45.7325 208.655 45.206 208.864C44.6795 209.068 44.0772 209.17 43.3992 209.17ZM50.9968 203.886V209H48.9399V200.273H50.9059V201.756H51.0081C51.2089 201.267 51.529 200.879 51.9684 200.591C52.4115 200.303 52.9589 200.159 53.6104 200.159C54.2127 200.159 54.7373 200.288 55.1843 200.545C55.635 200.803 55.9835 201.176 56.2297 201.665C56.4797 202.153 56.6028 202.746 56.599 203.443V209H54.5422V203.761C54.5422 203.178 54.3907 202.722 54.0877 202.392C53.7884 202.062 53.3737 201.898 52.8434 201.898C52.4835 201.898 52.1634 201.977 51.8831 202.136C51.6066 202.292 51.3888 202.517 51.2297 202.812C51.0744 203.108 50.9968 203.466 50.9968 203.886Z" fill="black"/>
<rect x="1" y="356" width="173" height="302" fill="white"/>
<rect x="1" y="356" width="173" height="302" stroke="#45454F"/>
<path d="M15.642 501H13.392L17.4886 489.364H20.0909L24.1932 501H21.9432L18.8352 491.75H18.7443L15.642 501ZM15.7159 496.438H21.8523V498.131H15.7159V496.438ZM29.866 492.273V493.864H24.7069V492.273H29.866ZM25.9967 501V491.449C25.9967 490.862 26.1179 490.373 26.3603 489.983C26.6066 489.593 26.9361 489.301 27.349 489.108C27.7619 488.915 28.2202 488.818 28.724 488.818C29.08 488.818 29.3963 488.847 29.6728 488.903C29.9494 488.96 30.1539 489.011 30.2865 489.057L29.8774 490.648C29.7903 490.621 29.6804 490.595 29.5478 490.568C29.4153 490.538 29.2675 490.523 29.1047 490.523C28.7221 490.523 28.4513 490.616 28.2922 490.801C28.1369 490.983 28.0592 491.244 28.0592 491.585V501H25.9967ZM35.7548 492.273V493.864H30.7377V492.273H35.7548ZM31.9764 490.182H34.0332V498.375C34.0332 498.652 34.0748 498.864 34.1582 499.011C34.2453 499.155 34.3589 499.254 34.4991 499.307C34.6392 499.36 34.7945 499.386 34.965 499.386C35.0938 499.386 35.2112 499.377 35.3173 499.358C35.4271 499.339 35.5105 499.322 35.5673 499.307L35.9139 500.915C35.804 500.953 35.6468 500.994 35.4423 501.04C35.2415 501.085 34.9953 501.112 34.7036 501.119C34.1885 501.134 33.7245 501.057 33.3116 500.886C32.8987 500.712 32.5711 500.443 32.3286 500.08C32.09 499.716 31.9726 499.261 31.9764 498.716V490.182ZM41.1648 501.17C40.2898 501.17 39.5341 500.989 38.8978 500.625C38.2652 500.258 37.7785 499.739 37.4376 499.068C37.0966 498.394 36.9262 497.6 36.9262 496.688C36.9262 495.79 37.0966 495.002 37.4376 494.324C37.7823 493.642 38.2633 493.112 38.8807 492.733C39.4982 492.35 40.2235 492.159 41.0569 492.159C41.5948 492.159 42.1023 492.246 42.5796 492.42C43.0607 492.591 43.4849 492.856 43.8523 493.216C44.2235 493.576 44.5152 494.034 44.7273 494.591C44.9395 495.144 45.0455 495.803 45.0455 496.568V497.199H37.8921V495.812H43.0739C43.0701 495.419 42.9849 495.068 42.8182 494.761C42.6516 494.451 42.4186 494.206 42.1194 494.028C41.8239 493.85 41.4792 493.761 41.0853 493.761C40.6648 493.761 40.2955 493.864 39.9773 494.068C39.6591 494.269 39.411 494.534 39.233 494.864C39.0588 495.189 38.9698 495.547 38.966 495.938V497.148C38.966 497.655 39.0588 498.091 39.2444 498.455C39.43 498.814 39.6895 499.091 40.0228 499.284C40.3561 499.473 40.7463 499.568 41.1932 499.568C41.4925 499.568 41.7633 499.527 42.0057 499.443C42.2482 499.356 42.4584 499.229 42.6364 499.062C42.8145 498.896 42.9489 498.689 43.0398 498.443L44.9603 498.659C44.8391 499.167 44.608 499.61 44.2671 499.989C43.93 500.364 43.4982 500.655 42.9716 500.864C42.4451 501.068 41.8429 501.17 41.1648 501.17ZM46.7056 501V492.273H48.6999V493.727H48.7908C48.9499 493.223 49.2226 492.835 49.609 492.562C49.9991 492.286 50.4442 492.148 50.9442 492.148C51.0578 492.148 51.1847 492.153 51.3249 492.165C51.4688 492.172 51.5881 492.186 51.6828 492.205V494.097C51.5957 494.066 51.4575 494.04 51.2681 494.017C51.0825 493.991 50.9025 493.977 50.7283 493.977C50.3533 493.977 50.0162 494.059 49.7169 494.222C49.4215 494.381 49.1885 494.602 49.0181 494.886C48.8476 495.17 48.7624 495.498 48.7624 495.869V501H46.7056ZM56.8581 501V492.273H58.8524V493.727H58.9433C59.1024 493.223 59.3751 492.835 59.7615 492.562C60.1516 492.286 60.5967 492.148 61.0967 492.148C61.2103 492.148 61.3372 492.153 61.4774 492.165C61.6213 492.172 61.7406 492.186 61.8353 492.205V494.097C61.7482 494.066 61.61 494.04 61.4206 494.017C61.235 493.991 61.055 493.977 60.8808 493.977C60.5058 493.977 60.1687 494.059 59.8694 494.222C59.574 494.381 59.341 494.602 59.1706 494.886C59.0001 495.17 58.9149 495.498 58.9149 495.869V501H56.8581ZM66.6261 501.17C65.7511 501.17 64.9954 500.989 64.359 500.625C63.7265 500.258 63.2397 499.739 62.8988 499.068C62.5579 498.394 62.3874 497.6 62.3874 496.688C62.3874 495.79 62.5579 495.002 62.8988 494.324C63.2435 493.642 63.7246 493.112 64.342 492.733C64.9594 492.35 65.6848 492.159 66.5181 492.159C67.056 492.159 67.5636 492.246 68.0409 492.42C68.5219 492.591 68.9462 492.856 69.3136 493.216C69.6848 493.576 69.9765 494.034 70.1886 494.591C70.4007 495.144 70.5068 495.803 70.5068 496.568V497.199H63.3534V495.812H68.5352C68.5314 495.419 68.4462 495.068 68.2795 494.761C68.1128 494.451 67.8799 494.206 67.5806 494.028C67.2852 493.85 66.9405 493.761 66.5465 493.761C66.1261 493.761 65.7568 493.864 65.4386 494.068C65.1204 494.269 64.8723 494.534 64.6943 494.864C64.52 495.189 64.431 495.547 64.4272 495.938V497.148C64.4272 497.655 64.52 498.091 64.7056 498.455C64.8912 498.814 65.1507 499.091 65.484 499.284C65.8174 499.473 66.2075 499.568 66.6545 499.568C66.9537 499.568 67.2246 499.527 67.467 499.443C67.7094 499.356 67.9196 499.229 68.0977 499.062C68.2757 498.896 68.4102 498.689 68.5011 498.443L70.4215 498.659C70.3003 499.167 70.0693 499.61 69.7284 499.989C69.3912 500.364 68.9594 500.655 68.4329 500.864C67.9064 501.068 67.3041 501.17 66.6261 501.17ZM79.0645 494.58L77.1895 494.784C77.1365 494.595 77.0437 494.417 76.9111 494.25C76.7823 494.083 76.6081 493.949 76.3884 493.847C76.1687 493.744 75.8998 493.693 75.5816 493.693C75.1536 493.693 74.7937 493.786 74.502 493.972C74.2142 494.157 74.0721 494.398 74.0759 494.693C74.0721 494.947 74.1649 495.153 74.3543 495.312C74.5475 495.472 74.8657 495.602 75.3089 495.705L76.7975 496.023C77.6233 496.201 78.2369 496.483 78.6384 496.869C79.0437 497.256 79.2483 497.761 79.252 498.386C79.2483 498.936 79.0873 499.42 78.7691 499.841C78.4547 500.258 78.0172 500.583 77.4566 500.818C76.896 501.053 76.252 501.17 75.5248 501.17C74.4566 501.17 73.5967 500.947 72.9452 500.5C72.2937 500.049 71.9055 499.422 71.7805 498.619L73.7861 498.426C73.877 498.82 74.0702 499.117 74.3657 499.318C74.6611 499.519 75.0456 499.619 75.5191 499.619C76.0077 499.619 76.3998 499.519 76.6952 499.318C76.9945 499.117 77.1441 498.869 77.1441 498.574C77.1441 498.324 77.0475 498.117 76.8543 497.955C76.6649 497.792 76.3695 497.667 75.968 497.58L74.4793 497.267C73.6422 497.093 73.0229 496.799 72.6214 496.386C72.2198 495.97 72.021 495.443 72.0248 494.807C72.021 494.269 72.1668 493.803 72.4623 493.409C72.7615 493.011 73.1763 492.705 73.7066 492.489C74.2407 492.269 74.8562 492.159 75.5532 492.159C76.5759 492.159 77.3808 492.377 77.968 492.812C78.5589 493.248 78.9244 493.837 79.0645 494.58ZM80.8681 501V492.273H82.9249V501H80.8681ZM81.9022 491.034C81.5764 491.034 81.2961 490.926 81.0612 490.71C80.8264 490.491 80.709 490.227 80.709 489.92C80.709 489.61 80.8264 489.347 81.0612 489.131C81.2961 488.911 81.5764 488.801 81.9022 488.801C82.2317 488.801 82.512 488.911 82.7431 489.131C82.9779 489.347 83.0953 489.61 83.0953 489.92C83.0953 490.227 82.9779 490.491 82.7431 490.71C82.512 490.926 82.2317 491.034 81.9022 491.034ZM84.8463 501V499.693L89.3463 494.051V493.977H84.994V492.273H91.8633V493.676L87.5793 499.222V499.295H92.0111V501H84.8463ZM97.478 501.17C96.603 501.17 95.8473 500.989 95.2109 500.625C94.5783 500.258 94.0916 499.739 93.7507 499.068C93.4098 498.394 93.2393 497.6 93.2393 496.688C93.2393 495.79 93.4098 495.002 93.7507 494.324C94.0954 493.642 94.5764 493.112 95.1939 492.733C95.8113 492.35 96.5367 492.159 97.37 492.159C97.9079 492.159 98.4155 492.246 98.8927 492.42C99.3738 492.591 99.798 492.856 100.165 493.216C100.537 493.576 100.828 494.034 101.04 494.591C101.253 495.144 101.359 495.803 101.359 496.568V497.199H94.2052V495.812H99.387C99.3833 495.419 99.298 495.068 99.1314 494.761C98.9647 494.451 98.7317 494.206 98.4325 494.028C98.137 493.85 97.7924 493.761 97.3984 493.761C96.978 493.761 96.6086 493.864 96.2905 494.068C95.9723 494.269 95.7242 494.534 95.5461 494.864C95.3719 495.189 95.2829 495.547 95.2791 495.938V497.148C95.2791 497.655 95.3719 498.091 95.5575 498.455C95.7431 498.814 96.0026 499.091 96.3359 499.284C96.6692 499.473 97.0594 499.568 97.5064 499.568C97.8056 499.568 98.0764 499.527 98.3189 499.443C98.5613 499.356 98.7715 499.229 98.9495 499.062C99.1276 498.896 99.262 498.689 99.353 498.443L101.273 498.659C101.152 499.167 100.921 499.61 100.58 499.989C100.243 500.364 99.8113 500.655 99.2848 500.864C98.7583 501.068 98.156 501.17 97.478 501.17ZM111.328 492.273V493.864H106.169V492.273H111.328ZM107.459 501V491.449C107.459 490.862 107.58 490.373 107.822 489.983C108.068 489.593 108.398 489.301 108.811 489.108C109.224 488.915 109.682 488.818 110.186 488.818C110.542 488.818 110.858 488.847 111.135 488.903C111.411 488.96 111.616 489.011 111.748 489.057L111.339 490.648C111.252 490.621 111.142 490.595 111.01 490.568C110.877 490.538 110.729 490.523 110.567 490.523C110.184 490.523 109.913 490.616 109.754 490.801C109.599 490.983 109.521 491.244 109.521 491.585V501H107.459ZM112.859 501V492.273H114.853V493.727H114.944C115.103 493.223 115.376 492.835 115.762 492.562C116.152 492.286 116.597 492.148 117.097 492.148C117.211 492.148 117.338 492.153 117.478 492.165C117.622 492.172 117.741 492.186 117.836 492.205V494.097C117.749 494.066 117.611 494.04 117.421 494.017C117.236 493.991 117.056 493.977 116.881 493.977C116.506 493.977 116.169 494.059 115.87 494.222C115.575 494.381 115.342 494.602 115.171 494.886C115.001 495.17 114.916 495.498 114.916 495.869V501H112.859ZM122.57 501.17C121.718 501.17 120.979 500.983 120.354 500.608C119.729 500.233 119.244 499.708 118.899 499.034C118.559 498.36 118.388 497.572 118.388 496.67C118.388 495.769 118.559 494.979 118.899 494.301C119.244 493.623 119.729 493.097 120.354 492.722C120.979 492.347 121.718 492.159 122.57 492.159C123.422 492.159 124.161 492.347 124.786 492.722C125.411 493.097 125.894 493.623 126.235 494.301C126.579 494.979 126.752 495.769 126.752 496.67C126.752 497.572 126.579 498.36 126.235 499.034C125.894 499.708 125.411 500.233 124.786 500.608C124.161 500.983 123.422 501.17 122.57 501.17ZM122.581 499.523C123.043 499.523 123.43 499.396 123.74 499.142C124.051 498.884 124.282 498.54 124.434 498.108C124.589 497.676 124.666 497.195 124.666 496.665C124.666 496.131 124.589 495.648 124.434 495.216C124.282 494.78 124.051 494.434 123.74 494.176C123.43 493.919 123.043 493.79 122.581 493.79C122.108 493.79 121.714 493.919 121.399 494.176C121.089 494.434 120.856 494.78 120.701 495.216C120.549 495.648 120.473 496.131 120.473 496.665C120.473 497.195 120.549 497.676 120.701 498.108C120.856 498.54 121.089 498.884 121.399 499.142C121.714 499.396 122.108 499.523 122.581 499.523ZM128.417 501V492.273H130.383V493.756H130.486C130.667 493.256 130.969 492.866 131.389 492.585C131.809 492.301 132.311 492.159 132.895 492.159C133.486 492.159 133.984 492.303 134.389 492.591C134.798 492.875 135.086 493.263 135.253 493.756H135.344C135.537 493.271 135.863 492.884 136.321 492.597C136.783 492.305 137.33 492.159 137.963 492.159C138.766 492.159 139.421 492.413 139.929 492.92C140.436 493.428 140.69 494.169 140.69 495.142V501H138.628V495.46C138.628 494.919 138.484 494.523 138.196 494.273C137.908 494.019 137.556 493.892 137.139 493.892C136.643 493.892 136.255 494.047 135.974 494.358C135.698 494.665 135.559 495.064 135.559 495.557V501H133.542V495.375C133.542 494.924 133.406 494.564 133.133 494.295C132.864 494.027 132.512 493.892 132.077 493.892C131.781 493.892 131.512 493.968 131.27 494.119C131.027 494.267 130.834 494.477 130.69 494.75C130.546 495.019 130.474 495.333 130.474 495.693V501H128.417ZM17.8636 525.17C16.9924 525.17 16.2443 524.979 15.6193 524.597C14.9981 524.214 14.5189 523.686 14.1818 523.011C13.8485 522.333 13.6818 521.553 13.6818 520.67C13.6818 519.784 13.8523 519.002 14.1932 518.324C14.5341 517.642 15.0152 517.112 15.6364 516.733C16.2614 516.35 17 516.159 17.8523 516.159C18.5606 516.159 19.1875 516.29 19.733 516.551C20.2822 516.809 20.7197 517.174 21.0455 517.648C21.3712 518.117 21.5568 518.667 21.6023 519.295H19.6364C19.5568 518.875 19.3674 518.525 19.0682 518.244C18.7727 517.96 18.3769 517.818 17.8807 517.818C17.4602 517.818 17.0909 517.932 16.7727 518.159C16.4545 518.383 16.2064 518.705 16.0284 519.125C15.8542 519.545 15.767 520.049 15.767 520.636C15.767 521.231 15.8542 521.742 16.0284 522.17C16.2027 522.595 16.447 522.922 16.7614 523.153C17.0795 523.381 17.4527 523.494 17.8807 523.494C18.1837 523.494 18.4545 523.437 18.6932 523.324C18.9356 523.206 19.1383 523.038 19.3011 522.818C19.464 522.598 19.5758 522.331 19.6364 522.017H21.6023C21.553 522.634 21.3712 523.182 21.0568 523.659C20.7424 524.133 20.3144 524.504 19.7727 524.773C19.2311 525.038 18.5947 525.17 17.8636 525.17ZM27.0748 525.17C26.1998 525.17 25.4441 524.989 24.8078 524.625C24.1752 524.258 23.6885 523.739 23.3476 523.068C23.0066 522.394 22.8362 521.6 22.8362 520.688C22.8362 519.79 23.0066 519.002 23.3476 518.324C23.6923 517.642 24.1733 517.112 24.7907 516.733C25.4082 516.35 26.1335 516.159 26.9669 516.159C27.5048 516.159 28.0123 516.246 28.4896 516.42C28.9707 516.591 29.3949 516.856 29.7623 517.216C30.1335 517.576 30.4252 518.034 30.6373 518.591C30.8495 519.144 30.9555 519.803 30.9555 520.568V521.199H23.8021V519.812H28.9839C28.9801 519.419 28.8949 519.068 28.7282 518.761C28.5616 518.451 28.3286 518.206 28.0294 518.028C27.7339 517.85 27.3892 517.761 26.9953 517.761C26.5748 517.761 26.2055 517.864 25.8873 518.068C25.5691 518.269 25.321 518.534 25.143 518.864C24.9688 519.189 24.8798 519.547 24.876 519.938V521.148C24.876 521.655 24.9688 522.091 25.1544 522.455C25.34 522.814 25.5995 523.091 25.9328 523.284C26.2661 523.473 26.6563 523.568 27.1032 523.568C27.4025 523.568 27.6733 523.527 27.9157 523.443C28.1582 523.356 28.3684 523.229 28.5464 523.062C28.7245 522.896 28.8589 522.689 28.9498 522.443L30.8703 522.659C30.7491 523.167 30.518 523.61 30.1771 523.989C29.84 524.364 29.4082 524.655 28.8816 524.864C28.3551 525.068 27.7529 525.17 27.0748 525.17ZM34.6724 519.886V525H32.6156V516.273H34.5815V517.756H34.6838C34.8845 517.267 35.2046 516.879 35.644 516.591C36.0872 516.303 36.6345 516.159 37.286 516.159C37.8883 516.159 38.4129 516.288 38.8599 516.545C39.3106 516.803 39.6591 517.176 39.9053 517.665C40.1553 518.153 40.2784 518.746 40.2747 519.443V525H38.2178V519.761C38.2178 519.178 38.0663 518.722 37.7633 518.392C37.4641 518.062 37.0493 517.898 36.519 517.898C36.1591 517.898 35.8391 517.977 35.5588 518.136C35.2822 518.292 35.0644 518.517 34.9053 518.812C34.75 519.108 34.6724 519.466 34.6724 519.886ZM46.6435 516.273V517.864H41.6265V516.273H46.6435ZM42.8651 514.182H44.9219V522.375C44.9219 522.652 44.9636 522.864 45.0469 523.011C45.1341 523.155 45.2477 523.254 45.3878 523.307C45.528 523.36 45.6833 523.386 45.8538 523.386C45.9825 523.386 46.1 523.377 46.206 523.358C46.3159 523.339 46.3992 523.322 46.456 523.307L46.8026 524.915C46.6928 524.953 46.5356 524.994 46.331 525.04C46.1303 525.085 45.8841 525.112 45.5924 525.119C45.0772 525.134 44.6132 525.057 44.2003 524.886C43.7875 524.712 43.4598 524.443 43.2174 524.08C42.9788 523.716 42.8613 523.261 42.8651 522.716V514.182ZM52.0536 525.17C51.1786 525.17 50.4229 524.989 49.7865 524.625C49.154 524.258 48.6672 523.739 48.3263 523.068C47.9854 522.394 47.8149 521.6 47.8149 520.688C47.8149 519.79 47.9854 519.002 48.3263 518.324C48.671 517.642 49.1521 517.112 49.7695 516.733C50.3869 516.35 51.1123 516.159 51.9456 516.159C52.4835 516.159 52.9911 516.246 53.4684 516.42C53.9494 516.591 54.3737 516.856 54.7411 517.216C55.1123 517.576 55.404 518.034 55.6161 518.591C55.8282 519.144 55.9343 519.803 55.9343 520.568V521.199H48.7809V519.812H53.9627C53.9589 519.419 53.8737 519.068 53.707 518.761C53.5403 518.451 53.3074 518.206 53.0081 518.028C52.7127 517.85 52.368 517.761 51.974 517.761C51.5536 517.761 51.1843 517.864 50.8661 518.068C50.5479 518.269 50.2998 518.534 50.1218 518.864C49.9475 519.189 49.8585 519.547 49.8547 519.938V521.148C49.8547 521.655 49.9475 522.091 50.1331 522.455C50.3187 522.814 50.5782 523.091 50.9115 523.284C51.2449 523.473 51.635 523.568 52.082 523.568C52.3812 523.568 52.6521 523.527 52.8945 523.443C53.1369 523.356 53.3471 523.229 53.5252 523.062C53.7032 522.896 53.8377 522.689 53.9286 522.443L55.849 522.659C55.7278 523.167 55.4968 523.61 55.1559 523.989C54.8187 524.364 54.3869 524.655 53.8604 524.864C53.3339 525.068 52.7316 525.17 52.0536 525.17ZM57.5943 525V516.273H59.5886V517.727H59.6795C59.8386 517.223 60.1114 516.835 60.4977 516.562C60.8879 516.286 61.333 516.148 61.833 516.148C61.9466 516.148 62.0735 516.153 62.2136 516.165C62.3576 516.172 62.4769 516.186 62.5716 516.205V518.097C62.4845 518.066 62.3462 518.04 62.1568 518.017C61.9712 517.991 61.7913 517.977 61.617 517.977C61.242 517.977 60.9049 518.059 60.6057 518.222C60.3102 518.381 60.0773 518.602 59.9068 518.886C59.7364 519.17 59.6511 519.498 59.6511 519.869V525H57.5943Z" fill="black"/>
<rect x="1" y="1" width="173" height="50" fill="white"/>
<rect x="1" y="1" width="173" height="50" stroke="#45454F"/>
<rect x="174" y="1" width="360" height="50" fill="white"/>
<rect x="174" y="1" width="360" height="50" stroke="#45454F"/>
<path d="M187.148 20.3636H189.727L193.182 28.7955H193.318L196.773 20.3636H199.352V32H197.33V24.0057H197.222L194.006 31.9659H192.494L189.278 23.9886H189.17V32H187.148V20.3636ZM207.039 28.3295V23.2727H209.096V32H207.102V30.4489H207.011C206.814 30.9375 206.49 31.3371 206.039 31.6477C205.592 31.9583 205.041 32.1136 204.386 32.1136C203.814 32.1136 203.308 31.9867 202.869 31.733C202.433 31.4754 202.092 31.1023 201.846 30.6136C201.6 30.1212 201.477 29.5265 201.477 28.8295V23.2727H203.534V28.5114C203.534 29.0644 203.685 29.5038 203.988 29.8295C204.291 30.1553 204.689 30.3182 205.181 30.3182C205.484 30.3182 205.778 30.2443 206.062 30.0966C206.346 29.9489 206.579 29.7292 206.761 29.4375C206.947 29.142 207.039 28.7727 207.039 28.3295ZM213.188 20.3636V32H211.131V20.3636H213.188ZM219.581 23.2727V24.8636H214.564V23.2727H219.581ZM215.803 21.1818H217.859V29.375C217.859 29.6515 217.901 29.8636 217.984 30.0114C218.072 30.1553 218.185 30.2538 218.325 30.3068C218.465 30.3598 218.621 30.3864 218.791 30.3864C218.92 30.3864 219.037 30.3769 219.144 30.358C219.253 30.339 219.337 30.322 219.394 30.3068L219.74 31.9148C219.63 31.9527 219.473 31.9943 219.269 32.0398C219.068 32.0852 218.822 32.1117 218.53 32.1193C218.015 32.1345 217.551 32.0568 217.138 31.8864C216.725 31.7121 216.397 31.4432 216.155 31.0795C215.916 30.7159 215.799 30.2614 215.803 29.7159V21.1818ZM221.221 32V23.2727H223.278V32H221.221ZM222.255 22.0341C221.93 22.0341 221.649 21.9261 221.414 21.7102C221.18 21.4905 221.062 21.2273 221.062 20.9205C221.062 20.6098 221.18 20.3466 221.414 20.1307C221.649 19.911 221.93 19.8011 222.255 19.8011C222.585 19.8011 222.865 19.911 223.096 20.1307C223.331 20.3466 223.448 20.6098 223.448 20.9205C223.448 21.2273 223.331 21.4905 223.096 21.7102C222.865 21.9261 222.585 22.0341 222.255 22.0341ZM225.313 35.2727V23.2727H227.336V24.7159H227.455C227.561 24.5038 227.711 24.2784 227.904 24.0398C228.097 23.7973 228.359 23.5909 228.688 23.4205C229.018 23.2462 229.438 23.1591 229.949 23.1591C230.624 23.1591 231.232 23.3314 231.773 23.6761C232.319 24.017 232.751 24.5227 233.069 25.1932C233.391 25.8598 233.552 26.678 233.552 27.6477C233.552 28.6061 233.395 29.4205 233.08 30.0909C232.766 30.7614 232.338 31.2727 231.796 31.625C231.254 31.9773 230.641 32.1534 229.955 32.1534C229.455 32.1534 229.04 32.0701 228.711 31.9034C228.381 31.7367 228.116 31.536 227.915 31.3011C227.718 31.0625 227.565 30.8371 227.455 30.625H227.37V35.2727H225.313ZM227.33 27.6364C227.33 28.2008 227.41 28.6951 227.569 29.1193C227.732 29.5436 227.965 29.875 228.268 30.1136C228.574 30.3485 228.946 30.4659 229.381 30.4659C229.836 30.4659 230.216 30.3447 230.523 30.1023C230.83 29.8561 231.061 29.5208 231.216 29.0966C231.376 28.6686 231.455 28.1818 231.455 27.6364C231.455 27.0947 231.377 26.6136 231.222 26.1932C231.067 25.7727 230.836 25.4432 230.529 25.2045C230.222 24.9659 229.84 24.8466 229.381 24.8466C228.942 24.8466 228.569 24.9621 228.262 25.1932C227.955 25.4242 227.722 25.7481 227.563 26.1648C227.408 26.5814 227.33 27.072 227.33 27.6364ZM237.29 20.3636V32H235.233V20.3636H237.29ZM243.189 32.1705C242.314 32.1705 241.558 31.9886 240.922 31.625C240.289 31.2576 239.802 30.7386 239.461 30.0682C239.12 29.3939 238.95 28.6004 238.95 27.6875C238.95 26.7898 239.12 26.0019 239.461 25.3239C239.806 24.642 240.287 24.1117 240.904 23.733C241.522 23.3504 242.247 23.1591 243.081 23.1591C243.619 23.1591 244.126 23.2462 244.603 23.4205C245.084 23.5909 245.509 23.8561 245.876 24.2159C246.247 24.5758 246.539 25.0341 246.751 25.5909C246.963 26.1439 247.069 26.803 247.069 27.5682V28.1989H239.916V26.8125H245.098C245.094 26.4186 245.009 26.0682 244.842 25.7614C244.675 25.4508 244.442 25.2064 244.143 25.0284C243.848 24.8504 243.503 24.7614 243.109 24.7614C242.689 24.7614 242.319 24.8636 242.001 25.0682C241.683 25.2689 241.435 25.5341 241.257 25.8636C241.083 26.1894 240.994 26.5473 240.99 26.9375V28.1477C240.99 28.6553 241.083 29.0909 241.268 29.4545C241.454 29.8144 241.713 30.0909 242.047 30.2841C242.38 30.4735 242.77 30.5682 243.217 30.5682C243.516 30.5682 243.787 30.5265 244.029 30.4432C244.272 30.3561 244.482 30.2292 244.66 30.0625C244.838 29.8958 244.973 29.6894 245.064 29.4432L246.984 29.6591C246.863 30.1667 246.632 30.6098 246.291 30.9886C245.954 31.3636 245.522 31.6553 244.995 31.8636C244.469 32.0682 243.867 32.1705 243.189 32.1705ZM252.709 32V20.3636H260.277V22.1307H254.817V25.2898H259.885V27.0568H254.817V30.233H260.323V32H252.709ZM264.314 20.3636V32H262.257V20.3636H264.314ZM270.212 32.1705C269.337 32.1705 268.582 31.9886 267.945 31.625C267.313 31.2576 266.826 30.7386 266.485 30.0682C266.144 29.3939 265.974 28.6004 265.974 27.6875C265.974 26.7898 266.144 26.0019 266.485 25.3239C266.83 24.642 267.311 24.1117 267.928 23.733C268.546 23.3504 269.271 23.1591 270.104 23.1591C270.642 23.1591 271.15 23.2462 271.627 23.4205C272.108 23.5909 272.532 23.8561 272.9 24.2159C273.271 24.5758 273.563 25.0341 273.775 25.5909C273.987 26.1439 274.093 26.803 274.093 27.5682V28.1989H266.94V26.8125H272.121C272.118 26.4186 272.032 26.0682 271.866 25.7614C271.699 25.4508 271.466 25.2064 271.167 25.0284C270.871 24.8504 270.527 24.7614 270.133 24.7614C269.712 24.7614 269.343 24.8636 269.025 25.0682C268.707 25.2689 268.459 25.5341 268.281 25.8636C268.106 26.1894 268.017 26.5473 268.013 26.9375V28.1477C268.013 28.6553 268.106 29.0909 268.292 29.4545C268.477 29.8144 268.737 30.0909 269.07 30.2841C269.404 30.4735 269.794 30.5682 270.241 30.5682C270.54 30.5682 270.811 30.5265 271.053 30.4432C271.296 30.3561 271.506 30.2292 271.684 30.0625C271.862 29.8958 271.996 29.6894 272.087 29.4432L274.008 29.6591C273.887 30.1667 273.656 30.6098 273.315 30.9886C272.977 31.3636 272.546 31.6553 272.019 31.8636C271.493 32.0682 270.89 32.1705 270.212 32.1705ZM275.753 32V23.2727H277.719V24.7557H277.821C278.003 24.2557 278.304 23.8655 278.725 23.5852C279.145 23.3011 279.647 23.1591 280.23 23.1591C280.821 23.1591 281.319 23.303 281.725 23.5909C282.134 23.875 282.422 24.2633 282.588 24.7557H282.679C282.872 24.2708 283.198 23.8845 283.656 23.5966C284.119 23.3049 284.666 23.1591 285.299 23.1591C286.102 23.1591 286.757 23.4129 287.264 23.9205C287.772 24.428 288.026 25.1686 288.026 26.142V32H285.963V26.4602C285.963 25.9186 285.819 25.5227 285.531 25.2727C285.244 25.0189 284.891 24.892 284.475 24.892C283.978 24.892 283.59 25.0473 283.31 25.358C283.033 25.6648 282.895 26.0644 282.895 26.5568V32H280.878V26.375C280.878 25.9242 280.742 25.5644 280.469 25.2955C280.2 25.0265 279.848 24.892 279.412 24.892C279.117 24.892 278.848 24.9678 278.605 25.1193C278.363 25.267 278.17 25.4773 278.026 25.75C277.882 26.0189 277.81 26.3333 277.81 26.6932V32H275.753ZM293.896 32.1705C293.021 32.1705 292.265 31.9886 291.629 31.625C290.996 31.2576 290.51 30.7386 290.169 30.0682C289.828 29.3939 289.657 28.6004 289.657 27.6875C289.657 26.7898 289.828 26.0019 290.169 25.3239C290.514 24.642 290.995 24.1117 291.612 23.733C292.229 23.3504 292.955 23.1591 293.788 23.1591C294.326 23.1591 294.834 23.2462 295.311 23.4205C295.792 23.5909 296.216 23.8561 296.584 24.2159C296.955 24.5758 297.246 25.0341 297.459 25.5909C297.671 26.1439 297.777 26.803 297.777 27.5682V28.1989H290.623V26.8125H295.805C295.801 26.4186 295.716 26.0682 295.549 25.7614C295.383 25.4508 295.15 25.2064 294.851 25.0284C294.555 24.8504 294.21 24.7614 293.817 24.7614C293.396 24.7614 293.027 24.8636 292.709 25.0682C292.39 25.2689 292.142 25.5341 291.964 25.8636C291.79 26.1894 291.701 26.5473 291.697 26.9375V28.1477C291.697 28.6553 291.79 29.0909 291.976 29.4545C292.161 29.8144 292.421 30.0909 292.754 30.2841C293.087 30.4735 293.478 30.5682 293.924 30.5682C294.224 30.5682 294.495 30.5265 294.737 30.4432C294.979 30.3561 295.19 30.2292 295.368 30.0625C295.546 29.8958 295.68 29.6894 295.771 29.4432L297.692 29.6591C297.57 30.1667 297.339 30.6098 296.998 30.9886C296.661 31.3636 296.229 31.6553 295.703 31.8636C295.176 32.0682 294.574 32.1705 293.896 32.1705ZM301.494 26.8864V32H299.437V23.2727H301.403V24.7557H301.505C301.706 24.267 302.026 23.8788 302.465 23.5909C302.908 23.303 303.456 23.1591 304.107 23.1591C304.71 23.1591 305.234 23.2879 305.681 23.5455C306.132 23.803 306.48 24.1761 306.727 24.6648C306.977 25.1534 307.1 25.7462 307.096 26.4432V32H305.039V26.7614C305.039 26.178 304.888 25.7216 304.585 25.392C304.285 25.0625 303.871 24.8977 303.34 24.8977C302.98 24.8977 302.66 24.9773 302.38 25.1364C302.103 25.2917 301.886 25.517 301.727 25.8125C301.571 26.108 301.494 26.4659 301.494 26.8864ZM313.465 23.2727V24.8636H308.448V23.2727H313.465ZM309.686 21.1818H311.743V29.375C311.743 29.6515 311.785 29.8636 311.868 30.0114C311.955 30.1553 312.069 30.2538 312.209 30.3068C312.349 30.3598 312.505 30.3864 312.675 30.3864C312.804 30.3864 312.921 30.3769 313.027 30.358C313.137 30.339 313.22 30.322 313.277 30.3068L313.624 31.9148C313.514 31.9527 313.357 31.9943 313.152 32.0398C312.952 32.0852 312.705 32.1117 312.414 32.1193C311.898 32.1345 311.434 32.0568 311.022 31.8864C310.609 31.7121 310.281 31.4432 310.039 31.0795C309.8 30.7159 309.683 30.2614 309.686 29.7159V21.1818ZM325.408 23.5625C325.355 23.0663 325.132 22.6799 324.738 22.4034C324.348 22.1269 323.84 21.9886 323.215 21.9886C322.776 21.9886 322.399 22.0549 322.085 22.1875C321.77 22.3201 321.53 22.5 321.363 22.7273C321.196 22.9545 321.111 23.214 321.107 23.5057C321.107 23.7481 321.162 23.9583 321.272 24.1364C321.386 24.3144 321.539 24.4659 321.732 24.5909C321.926 24.7121 322.14 24.8144 322.374 24.8977C322.609 24.9811 322.846 25.0511 323.085 25.108L324.176 25.3807C324.615 25.483 325.037 25.6212 325.443 25.7955C325.852 25.9697 326.217 26.1894 326.539 26.4545C326.865 26.7197 327.122 27.0398 327.312 27.4148C327.501 27.7898 327.596 28.2292 327.596 28.733C327.596 29.4148 327.422 30.0152 327.073 30.5341C326.725 31.0492 326.221 31.4527 325.562 31.7443C324.907 32.0322 324.113 32.1761 323.181 32.1761C322.276 32.1761 321.49 32.036 320.823 31.7557C320.16 31.4754 319.641 31.0663 319.266 30.5284C318.895 29.9905 318.694 29.3352 318.664 28.5625H320.738C320.768 28.9678 320.893 29.3049 321.113 29.5739C321.333 29.8428 321.619 30.0436 321.971 30.1761C322.327 30.3087 322.725 30.375 323.164 30.375C323.622 30.375 324.024 30.3068 324.369 30.1705C324.717 30.0303 324.99 29.8371 325.187 29.5909C325.384 29.3409 325.484 29.0492 325.488 28.7159C325.484 28.4129 325.395 28.1629 325.221 27.9659C325.047 27.7652 324.802 27.5985 324.488 27.4659C324.177 27.3295 323.814 27.2083 323.397 27.1023L322.073 26.7614C321.115 26.5152 320.357 26.142 319.801 25.642C319.247 25.1383 318.971 24.4697 318.971 23.6364C318.971 22.9508 319.157 22.3504 319.528 21.8352C319.903 21.3201 320.412 20.9205 321.056 20.6364C321.7 20.3485 322.429 20.2045 323.244 20.2045C324.069 20.2045 324.793 20.3485 325.414 20.6364C326.039 20.9205 326.53 21.3163 326.886 21.8239C327.242 22.3277 327.426 22.9072 327.437 23.5625H325.408ZM333.168 32.1705C332.293 32.1705 331.537 31.9886 330.901 31.625C330.268 31.2576 329.782 30.7386 329.441 30.0682C329.1 29.3939 328.929 28.6004 328.929 27.6875C328.929 26.7898 329.1 26.0019 329.441 25.3239C329.785 24.642 330.266 24.1117 330.884 23.733C331.501 23.3504 332.227 23.1591 333.06 23.1591C333.598 23.1591 334.105 23.2462 334.583 23.4205C335.064 23.5909 335.488 23.8561 335.855 24.2159C336.227 24.5758 336.518 25.0341 336.73 25.5909C336.943 26.1439 337.049 26.803 337.049 27.5682V28.1989H329.895V26.8125H335.077C335.073 26.4186 334.988 26.0682 334.821 25.7614C334.655 25.4508 334.422 25.2064 334.122 25.0284C333.827 24.8504 333.482 24.7614 333.088 24.7614C332.668 24.7614 332.299 24.8636 331.98 25.0682C331.662 25.2689 331.414 25.5341 331.236 25.8636C331.062 26.1894 330.973 26.5473 330.969 26.9375V28.1477C330.969 28.6553 331.062 29.0909 331.247 29.4545C331.433 29.8144 331.693 30.0909 332.026 30.2841C332.359 30.4735 332.749 30.5682 333.196 30.5682C333.496 30.5682 333.766 30.5265 334.009 30.4432C334.251 30.3561 334.462 30.2292 334.64 30.0625C334.818 29.8958 334.952 29.6894 335.043 29.4432L336.963 29.6591C336.842 30.1667 336.611 30.6098 336.27 30.9886C335.933 31.3636 335.501 31.6553 334.975 31.8636C334.448 32.0682 333.846 32.1705 333.168 32.1705ZM340.766 20.3636V32H338.709V20.3636H340.766ZM346.664 32.1705C345.789 32.1705 345.034 31.9886 344.397 31.625C343.765 31.2576 343.278 30.7386 342.937 30.0682C342.596 29.3939 342.426 28.6004 342.426 27.6875C342.426 26.7898 342.596 26.0019 342.937 25.3239C343.282 24.642 343.763 24.1117 344.38 23.733C344.998 23.3504 345.723 23.1591 346.556 23.1591C347.094 23.1591 347.602 23.2462 348.079 23.4205C348.56 23.5909 348.984 23.8561 349.352 24.2159C349.723 24.5758 350.015 25.0341 350.227 25.5909C350.439 26.1439 350.545 26.803 350.545 27.5682V28.1989H343.391V26.8125H348.573C348.57 26.4186 348.484 26.0682 348.318 25.7614C348.151 25.4508 347.918 25.2064 347.619 25.0284C347.323 24.8504 346.979 24.7614 346.585 24.7614C346.164 24.7614 345.795 24.8636 345.477 25.0682C345.159 25.2689 344.91 25.5341 344.732 25.8636C344.558 26.1894 344.469 26.5473 344.465 26.9375V28.1477C344.465 28.6553 344.558 29.0909 344.744 29.4545C344.929 29.8144 345.189 30.0909 345.522 30.2841C345.855 30.4735 346.246 30.5682 346.693 30.5682C346.992 30.5682 347.263 30.5265 347.505 30.4432C347.748 30.3561 347.958 30.2292 348.136 30.0625C348.314 29.8958 348.448 29.6894 348.539 29.4432L350.46 29.6591C350.338 30.1667 350.107 30.6098 349.766 30.9886C349.429 31.3636 348.998 31.6553 348.471 31.8636C347.945 32.0682 347.342 32.1705 346.664 32.1705ZM356.012 32.1705C355.141 32.1705 354.392 31.9792 353.767 31.5966C353.146 31.214 352.667 30.6856 352.33 30.0114C351.997 29.3333 351.83 28.553 351.83 27.6705C351.83 26.7841 352 26.0019 352.341 25.3239C352.682 24.642 353.163 24.1117 353.784 23.733C354.409 23.3504 355.148 23.1591 356 23.1591C356.709 23.1591 357.336 23.2898 357.881 23.5511C358.43 23.8087 358.868 24.1742 359.194 24.6477C359.519 25.1174 359.705 25.6667 359.75 26.2955H357.784C357.705 25.875 357.516 25.5246 357.216 25.2443C356.921 24.9602 356.525 24.8182 356.029 24.8182C355.608 24.8182 355.239 24.9318 354.921 25.1591C354.603 25.3826 354.355 25.7045 354.177 26.125C354.002 26.5455 353.915 27.0492 353.915 27.6364C353.915 28.2311 354.002 28.7424 354.177 29.1705C354.351 29.5947 354.595 29.9223 354.909 30.1534C355.228 30.3807 355.601 30.4943 356.029 30.4943C356.332 30.4943 356.603 30.4375 356.841 30.3239C357.084 30.2064 357.286 30.0379 357.449 29.8182C357.612 29.5985 357.724 29.3314 357.784 29.017H359.75C359.701 29.6345 359.519 30.1818 359.205 30.6591C358.891 31.1326 358.463 31.5038 357.921 31.7727C357.379 32.0379 356.743 32.1705 356.012 32.1705ZM365.717 23.2727V24.8636H360.7V23.2727H365.717ZM361.939 21.1818H363.996V29.375C363.996 29.6515 364.037 29.8636 364.121 30.0114C364.208 30.1553 364.321 30.2538 364.462 30.3068C364.602 30.3598 364.757 30.3864 364.928 30.3864C365.056 30.3864 365.174 30.3769 365.28 30.358C365.39 30.339 365.473 30.322 365.53 30.3068L365.876 31.9148C365.767 31.9527 365.609 31.9943 365.405 32.0398C365.204 32.0852 364.958 32.1117 364.666 32.1193C364.151 32.1345 363.687 32.0568 363.274 31.8864C362.861 31.7121 362.534 31.4432 362.291 31.0795C362.053 30.7159 361.935 30.2614 361.939 29.7159V21.1818ZM367.357 32V23.2727H369.414V32H367.357ZM368.392 22.0341C368.066 22.0341 367.785 21.9261 367.551 21.7102C367.316 21.4905 367.198 21.2273 367.198 20.9205C367.198 20.6098 367.316 20.3466 367.551 20.1307C367.785 19.911 368.066 19.8011 368.392 19.8011C368.721 19.8011 369.001 19.911 369.232 20.1307C369.467 20.3466 369.585 20.6098 369.585 20.9205C369.585 21.2273 369.467 21.4905 369.232 21.7102C369.001 21.9261 368.721 22.0341 368.392 22.0341ZM375.256 32.1705C374.404 32.1705 373.665 31.983 373.04 31.608C372.415 31.233 371.93 30.7083 371.586 30.0341C371.245 29.3598 371.074 28.572 371.074 27.6705C371.074 26.7689 371.245 25.9792 371.586 25.3011C371.93 24.6231 372.415 24.0966 373.04 23.7216C373.665 23.3466 374.404 23.1591 375.256 23.1591C376.108 23.1591 376.847 23.3466 377.472 23.7216C378.097 24.0966 378.58 24.6231 378.921 25.3011C379.266 25.9792 379.438 26.7689 379.438 27.6705C379.438 28.572 379.266 29.3598 378.921 30.0341C378.58 30.7083 378.097 31.233 377.472 31.608C376.847 31.983 376.108 32.1705 375.256 32.1705ZM375.268 30.5227C375.73 30.5227 376.116 30.3958 376.427 30.142C376.737 29.8845 376.968 29.5398 377.12 29.108C377.275 28.6761 377.353 28.1951 377.353 27.6648C377.353 27.1307 377.275 26.6477 377.12 26.2159C376.968 25.7803 376.737 25.4337 376.427 25.1761C376.116 24.9186 375.73 24.7898 375.268 24.7898C374.794 24.7898 374.4 24.9186 374.086 25.1761C373.775 25.4337 373.542 25.7803 373.387 26.2159C373.235 26.6477 373.16 27.1307 373.16 27.6648C373.16 28.1951 373.235 28.6761 373.387 29.108C373.542 29.5398 373.775 29.8845 374.086 30.142C374.4 30.3958 374.794 30.5227 375.268 30.5227ZM383.161 26.8864V32H381.104V23.2727H383.07V24.7557H383.172C383.373 24.267 383.693 23.8788 384.132 23.5909C384.575 23.303 385.123 23.1591 385.774 23.1591C386.376 23.1591 386.901 23.2879 387.348 23.5455C387.799 23.803 388.147 24.1761 388.393 24.6648C388.643 25.1534 388.767 25.7462 388.763 26.4432V32H386.706V26.7614C386.706 26.178 386.554 25.7216 386.251 25.392C385.952 25.0625 385.537 24.8977 385.007 24.8977C384.647 24.8977 384.327 24.9773 384.047 25.1364C383.77 25.2917 383.553 25.517 383.393 25.8125C383.238 26.108 383.161 26.4659 383.161 26.8864Z" fill="black"/>
<g filter="url(#filter0_d_1_185876)">
<rect x="207" y="71" width="288" height="253" fill="white"/>
</g>
<g filter="url(#filter1_d_1_185876)">
<rect x="207" y="376" width="288" height="253" fill="white"/>
</g>
<circle cx="324.5" cy="223.5" r="36.5" fill="#D73EDA" stroke="#1C6EE8"/>
<ellipse cx="338" cy="528.5" rx="16" ry="36.5" fill="#D73EDA" stroke="#1C6EE8"/>
<circle cx="415.5" cy="249.5" r="36.5" fill="#FFC2C2" stroke="#1C6EE8"/>
<ellipse cx="378" cy="554.5" rx="16" ry="36.5" fill="#FFC2C2" stroke="#1C6EE8"/>
<rect x="245" y="103" width="207" height="183" stroke="#1C6EE8"/>
<g filter="url(#filter2_d_1_185876)">
<rect x="241" y="99" width="8" height="8" fill="white"/>
<rect x="241.5" y="99.5" width="7" height="7" stroke="#1C6EE8"/>
</g>
<g filter="url(#filter3_d_1_185876)">
<rect x="241" y="282" width="8" height="8" fill="white"/>
<rect x="241.5" y="282.5" width="7" height="7" stroke="#1C6EE8"/>
</g>
<g filter="url(#filter4_d_1_185876)">
<rect x="448" y="99" width="8" height="8" fill="white"/>
<rect x="448.5" y="99.5" width="7" height="7" stroke="#1C6EE8"/>
</g>
<g filter="url(#filter5_d_1_185876)">
<rect x="448" y="282" width="8" height="8" fill="white"/>
<rect x="448.5" y="282.5" width="7" height="7" stroke="#1C6EE8"/>
</g>
<circle cx="378" cy="175" r="53" fill="#3CD8BC" stroke="#1C6EE8"/>
<ellipse cx="361.5" cy="480" rx="23.5" ry="53" fill="#3CD8BC" stroke="#1C6EE8"/>
<path d="M278.465 121.614C278.085 111.882 283.527 95.3386 308.334 107.017C339.342 121.614 196.972 175.989 262.408 175.989C314.756 175.989 325.173 163.917 323.838 157.882L391 145.491V218L345.074 189.709" stroke="black" stroke-width="13"/>
<path d="M317.669 426.614C317.503 416.882 319.888 400.339 330.763 412.017C344.355 426.614 281.947 480.989 310.631 480.989C333.578 480.989 338.144 468.917 337.559 462.882L367 450.491V523L346.868 494.709" stroke="black" stroke-width="13"/>
<path d="M278.465 121.614C278.085 111.882 283.527 95.3386 308.334 107.017C339.342 121.614 196.972 175.989 262.408 175.989C314.756 175.989 325.173 163.917 323.838 157.882L391 145.491V218L345.074 189.709" stroke="#1C6EE8"/>
<path d="M317.669 426.614C317.503 416.882 319.888 400.339 330.763 412.017C344.355 426.614 281.947 480.989 310.631 480.989C333.578 480.989 338.144 468.917 337.559 462.882L367 450.491V523L346.868 494.709" stroke="#1C6EE8"/>
<path d="M429.25 171.402V169C429.25 168.034 430.034 167.25 431 167.25C431.966 167.25 432.75 168.034 432.75 169V171.402C433.554 171.794 434.206 172.446 434.598 173.25H437C437.966 173.25 438.75 174.034 438.75 175C438.75 175.966 437.966 176.75 437 176.75H434.598C434.206 177.554 433.554 178.206 432.75 178.598V181C432.75 181.966 431.966 182.75 431 182.75C430.034 182.75 429.25 181.966 429.25 181V178.598C428.446 178.206 427.794 177.554 427.402 176.75H425C424.034 176.75 423.25 175.966 423.25 175C423.25 174.034 424.034 173.25 425 173.25H427.402C427.794 172.446 428.446 171.794 429.25 171.402Z" fill="white"/>
<path fill-rule="evenodd" clip-rule="evenodd" d="M431 168.25C431.414 168.25 431.75 168.586 431.75 169V172.095C432.804 172.366 433.634 173.196 433.905 174.25H437C437.414 174.25 437.75 174.586 437.75 175C437.75 175.414 437.414 175.75 437 175.75H433.905C433.634 176.804 432.804 177.634 431.75 177.905V181C431.75 181.414 431.414 181.75 431 181.75C430.586 181.75 430.25 181.414 430.25 181V177.905C429.196 177.634 428.366 176.804 428.095 175.75H425C424.586 175.75 424.25 175.414 424.25 175C424.25 174.586 424.586 174.25 425 174.25H428.095C428.366 173.196 429.196 172.366 430.25 172.095V169C430.25 168.586 430.586 168.25 431 168.25ZM432.5 175C432.5 175.828 431.828 176.5 431 176.5C430.172 176.5 429.5 175.828 429.5 175C429.5 174.172 430.172 173.5 431 173.5C431.828 173.5 432.5 174.172 432.5 175Z" fill="#1C6EE8"/>
<path d="M323.25 220.402V218C323.25 217.034 324.034 216.25 325 216.25C325.966 216.25 326.75 217.034 326.75 218V220.402C327.554 220.794 328.206 221.446 328.598 222.25H331C331.966 222.25 332.75 223.034 332.75 224C332.75 224.966 331.966 225.75 331 225.75H328.598C328.206 226.554 327.554 227.206 326.75 227.598V230C326.75 230.966 325.966 231.75 325 231.75C324.034 231.75 323.25 230.966 323.25 230V227.598C322.446 227.206 321.794 226.554 321.402 225.75H319C318.034 225.75 317.25 224.966 317.25 224C317.25 223.034 318.034 222.25 319 222.25H321.402C321.794 221.446 322.446 220.794 323.25 220.402Z" fill="white"/>
<path fill-rule="evenodd" clip-rule="evenodd" d="M325 217.25C325.414 217.25 325.75 217.586 325.75 218V221.095C326.804 221.366 327.634 222.196 327.905 223.25H331C331.414 223.25 331.75 223.586 331.75 224C331.75 224.414 331.414 224.75 331 224.75H327.905C327.634 225.804 326.804 226.634 325.75 226.905V230C325.75 230.414 325.414 230.75 325 230.75C324.586 230.75 324.25 230.414 324.25 230V226.905C323.196 226.634 322.366 225.804 322.095 224.75H319C318.586 224.75 318.25 224.414 318.25 224C318.25 223.586 318.586 223.25 319 223.25H322.095C322.366 222.196 323.196 221.366 324.25 221.095V218C324.25 217.586 324.586 217.25 325 217.25ZM326.5 224C326.5 224.828 325.828 225.5 325 225.5C324.172 225.5 323.5 224.828 323.5 224C323.5 223.172 324.172 222.5 325 222.5C325.828 222.5 326.5 223.172 326.5 224Z" fill="#1C6EE8"/>
<path d="M414.25 282.402V280C414.25 279.034 415.034 278.25 416 278.25C416.966 278.25 417.75 279.034 417.75 280V282.402C418.554 282.794 419.206 283.446 419.598 284.25H422C422.966 284.25 423.75 285.034 423.75 286C423.75 286.966 422.966 287.75 422 287.75H419.598C419.206 288.554 418.554 289.206 417.75 289.598V292C417.75 292.966 416.966 293.75 416 293.75C415.034 293.75 414.25 292.966 414.25 292V289.598C413.446 289.206 412.794 288.554 412.402 287.75H410C409.034 287.75 408.25 286.966 408.25 286C408.25 285.034 409.034 284.25 410 284.25H412.402C412.794 283.446 413.446 282.794 414.25 282.402Z" fill="white"/>
<path fill-rule="evenodd" clip-rule="evenodd" d="M416 279.25C416.414 279.25 416.75 279.586 416.75 280V283.095C417.804 283.366 418.634 284.196 418.905 285.25H422C422.414 285.25 422.75 285.586 422.75 286C422.75 286.414 422.414 286.75 422 286.75H418.905C418.634 287.804 417.804 288.634 416.75 288.905V292C416.75 292.414 416.414 292.75 416 292.75C415.586 292.75 415.25 292.414 415.25 292V288.905C414.196 288.634 413.366 287.804 413.095 286.75H410C409.586 286.75 409.25 286.414 409.25 286C409.25 285.586 409.586 285.25 410 285.25H413.095C413.366 284.196 414.196 283.366 415.25 283.095V280C415.25 279.586 415.586 279.25 416 279.25ZM417.5 286C417.5 286.828 416.828 287.5 416 287.5C415.172 287.5 414.5 286.828 414.5 286C414.5 285.172 415.172 284.5 416 284.5C416.828 284.5 417.5 285.172 417.5 286Z" fill="#1C6EE8"/>
<path d="M243.25 157.402V155C243.25 154.034 244.034 153.25 245 153.25C245.966 153.25 246.75 154.034 246.75 155V157.402C247.554 157.794 248.206 158.446 248.598 159.25H251C251.966 159.25 252.75 160.034 252.75 161C252.75 161.966 251.966 162.75 251 162.75H248.598C248.206 163.554 247.554 164.206 246.75 164.598V167C246.75 167.966 245.966 168.75 245 168.75C244.034 168.75 243.25 167.966 243.25 167V164.598C242.446 164.206 241.794 163.554 241.402 162.75H239C238.034 162.75 237.25 161.966 237.25 161C237.25 160.034 238.034 159.25 239 159.25H241.402C241.794 158.446 242.446 157.794 243.25 157.402Z" fill="white"/>
<path fill-rule="evenodd" clip-rule="evenodd" d="M245 154.25C245.414 154.25 245.75 154.586 245.75 155V158.095C246.804 158.366 247.634 159.196 247.905 160.25H251C251.414 160.25 251.75 160.586 251.75 161C251.75 161.414 251.414 161.75 251 161.75H247.905C247.634 162.804 246.804 163.634 245.75 163.905V167C245.75 167.414 245.414 167.75 245 167.75C244.586 167.75 244.25 167.414 244.25 167V163.905C243.196 163.634 242.366 162.804 242.095 161.75H239C238.586 161.75 238.25 161.414 238.25 161C238.25 160.586 238.586 160.25 239 160.25H242.095C242.366 159.196 243.196 158.366 244.25 158.095V155C244.25 154.586 244.586 154.25 245 154.25ZM246.5 161C246.5 161.828 245.828 162.5 245 162.5C244.172 162.5 243.5 161.828 243.5 161C243.5 160.172 244.172 159.5 245 159.5C245.828 159.5 246.5 160.172 246.5 161Z" fill="#1C6EE8"/>
<rect x="303" y="408" width="91" height="183" stroke="#1C6EE8"/>
<g filter="url(#filter6_d_1_185876)">
<rect x="299" y="404" width="8" height="8" fill="white"/>
<rect x="299.5" y="404.5" width="7" height="7" stroke="#1C6EE8"/>
</g>
<g filter="url(#filter7_d_1_185876)">
<rect x="299" y="587" width="8" height="8" fill="white"/>
<rect x="299.5" y="587.5" width="7" height="7" stroke="#1C6EE8"/>
</g>
<g filter="url(#filter8_d_1_185876)">
<rect x="390" y="404" width="8" height="8" fill="white"/>
<rect x="390.5" y="404.5" width="7" height="7" stroke="#1C6EE8"/>
</g>
<g filter="url(#filter9_d_1_185876)">
<rect x="390" y="587" width="8" height="8" fill="white"/>
<rect x="390.5" y="587.5" width="7" height="7" stroke="#1C6EE8"/>
</g>
<path d="M376.25 587.402V585C376.25 584.034 377.034 583.25 378 583.25C378.966 583.25 379.75 584.034 379.75 585V587.402C380.554 587.794 381.206 588.446 381.598 589.25H384C384.966 589.25 385.75 590.034 385.75 591C385.75 591.966 384.966 592.75 384 592.75H381.598C381.206 593.554 380.554 594.206 379.75 594.598V597C379.75 597.966 378.966 598.75 378 598.75C377.034 598.75 376.25 597.966 376.25 597V594.598C375.446 594.206 374.794 593.554 374.402 592.75H372C371.034 592.75 370.25 591.966 370.25 591C370.25 590.034 371.034 589.25 372 589.25H374.402C374.794 588.446 375.446 587.794 376.25 587.402Z" fill="white"/>
<path fill-rule="evenodd" clip-rule="evenodd" d="M378 584.25C378.414 584.25 378.75 584.586 378.75 585V588.095C379.804 588.366 380.634 589.196 380.905 590.25H384C384.414 590.25 384.75 590.586 384.75 591C384.75 591.414 384.414 591.75 384 591.75H380.905C380.634 592.804 379.804 593.634 378.75 593.905V597C378.75 597.414 378.414 597.75 378 597.75C377.586 597.75 377.25 597.414 377.25 597V593.905C376.196 593.634 375.366 592.804 375.095 591.75H372C371.586 591.75 371.25 591.414 371.25 591C371.25 590.586 371.586 590.25 372 590.25H375.095C375.366 589.196 376.196 588.366 377.25 588.095V585C377.25 584.586 377.586 584.25 378 584.25ZM379.5 591C379.5 591.828 378.828 592.5 378 592.5C377.172 592.5 376.5 591.828 376.5 591C376.5 590.172 377.172 589.5 378 589.5C378.828 589.5 379.5 590.172 379.5 591Z" fill="#1C6EE8"/>
<path d="M301.25 462.402V460C301.25 459.034 302.034 458.25 303 458.25C303.966 458.25 304.75 459.034 304.75 460V462.402C305.554 462.794 306.206 463.446 306.598 464.25H309C309.966 464.25 310.75 465.034 310.75 466C310.75 466.966 309.966 467.75 309 467.75H306.598C306.206 468.554 305.554 469.206 304.75 469.598V472C304.75 472.966 303.966 473.75 303 473.75C302.034 473.75 301.25 472.966 301.25 472V469.598C300.446 469.206 299.794 468.554 299.402 467.75H297C296.034 467.75 295.25 466.966 295.25 466C295.25 465.034 296.034 464.25 297 464.25H299.402C299.794 463.446 300.446 462.794 301.25 462.402Z" fill="white"/>
<path fill-rule="evenodd" clip-rule="evenodd" d="M303 459.25C303.414 459.25 303.75 459.586 303.75 460V463.095C304.804 463.366 305.634 464.196 305.905 465.25H309C309.414 465.25 309.75 465.586 309.75 466C309.75 466.414 309.414 466.75 309 466.75H305.905C305.634 467.804 304.804 468.634 303.75 468.905V472C303.75 472.414 303.414 472.75 303 472.75C302.586 472.75 302.25 472.414 302.25 472V468.905C301.196 468.634 300.366 467.804 300.095 466.75H297C296.586 466.75 296.25 466.414 296.25 466C296.25 465.586 296.586 465.25 297 465.25H300.095C300.366 464.196 301.196 463.366 302.25 463.095V460C302.25 459.586 302.586 459.25 303 459.25ZM304.5 466C304.5 466.828 303.828 467.5 303 467.5C302.172 467.5 301.5 466.828 301.5 466C301.5 465.172 302.172 464.5 303 464.5C303.828 464.5 304.5 465.172 304.5 466Z" fill="#1C6EE8"/>
<path d="M383.25 476.402V474C383.25 473.034 384.034 472.25 385 472.25C385.966 472.25 386.75 473.034 386.75 474V476.402C387.554 476.794 388.206 477.446 388.598 478.25H391C391.966 478.25 392.75 479.034 392.75 480C392.75 480.966 391.966 481.75 391 481.75H388.598C388.206 482.554 387.554 483.206 386.75 483.598V486C386.75 486.966 385.966 487.75 385 487.75C384.034 487.75 383.25 486.966 383.25 486V483.598C382.446 483.206 381.794 482.554 381.402 481.75H379C378.034 481.75 377.25 480.966 377.25 480C377.25 479.034 378.034 478.25 379 478.25H381.402C381.794 477.446 382.446 476.794 383.25 476.402Z" fill="white"/>
<path fill-rule="evenodd" clip-rule="evenodd" d="M385 473.25C385.414 473.25 385.75 473.586 385.75 474V477.095C386.804 477.366 387.634 478.196 387.905 479.25H391C391.414 479.25 391.75 479.586 391.75 480C391.75 480.414 391.414 480.75 391 480.75H387.905C387.634 481.804 386.804 482.634 385.75 482.905V486C385.75 486.414 385.414 486.75 385 486.75C384.586 486.75 384.25 486.414 384.25 486V482.905C383.196 482.634 382.366 481.804 382.095 480.75H379C378.586 480.75 378.25 480.414 378.25 480C378.25 479.586 378.586 479.25 379 479.25H382.095C382.366 478.196 383.196 477.366 384.25 477.095V474C384.25 473.586 384.586 473.25 385 473.25ZM386.5 480C386.5 480.828 385.828 481.5 385 481.5C384.172 481.5 383.5 480.828 383.5 480C383.5 479.172 384.172 478.5 385 478.5C385.828 478.5 386.5 479.172 386.5 480Z" fill="#1C6EE8"/>
<path d="M336.25 525.402V523C336.25 522.034 337.034 521.25 338 521.25C338.966 521.25 339.75 522.034 339.75 523V525.402C340.554 525.794 341.206 526.446 341.598 527.25H344C344.966 527.25 345.75 528.034 345.75 529C345.75 529.966 344.966 530.75 344 530.75H341.598C341.206 531.554 340.554 532.206 339.75 532.598V535C339.75 535.966 338.966 536.75 338 536.75C337.034 536.75 336.25 535.966 336.25 535V532.598C335.446 532.206 334.794 531.554 334.402 530.75H332C331.034 530.75 330.25 529.966 330.25 529C330.25 528.034 331.034 527.25 332 527.25H334.402C334.794 526.446 335.446 525.794 336.25 525.402Z" fill="white"/>
<path fill-rule="evenodd" clip-rule="evenodd" d="M338 522.25C338.414 522.25 338.75 522.586 338.75 523V526.095C339.804 526.366 340.634 527.196 340.905 528.25H344C344.414 528.25 344.75 528.586 344.75 529C344.75 529.414 344.414 529.75 344 529.75H340.905C340.634 530.804 339.804 531.634 338.75 531.905V535C338.75 535.414 338.414 535.75 338 535.75C337.586 535.75 337.25 535.414 337.25 535V531.905C336.196 531.634 335.366 530.804 335.095 529.75H332C331.586 529.75 331.25 529.414 331.25 529C331.25 528.586 331.586 528.25 332 528.25H335.095C335.366 527.196 336.196 526.366 337.25 526.095V523C337.25 522.586 337.586 522.25 338 522.25ZM339.5 529C339.5 529.828 338.828 530.5 338 530.5C337.172 530.5 336.5 529.828 336.5 529C336.5 528.172 337.172 527.5 338 527.5C338.828 527.5 339.5 528.172 339.5 529Z" fill="#1C6EE8"/>
<defs>
<filter id="filter0_d_1_185876" x="199" y="63" width="308" height="273" filterUnits="userSpaceOnUse" color-interpolation-filters="sRGB">
<feFlood flood-opacity="0" result="BackgroundImageFix"/>
<feColorMatrix in="SourceAlpha" type="matrix" values="0 0 0 0 0 0 0 0 0 0 0 0 0 0 0 0 0 0 127 0" result="hardAlpha"/>
<feOffset dx="2" dy="2"/>
<feGaussianBlur stdDeviation="5"/>
<feComposite in2="hardAlpha" operator="out"/>
<feColorMatrix type="matrix" values="0 0 0 0 0 0 0 0 0 0 0 0 0 0 0 0 0 0 0.25 0"/>
<feBlend mode="normal" in2="BackgroundImageFix" result="effect1_dropShadow_1_185876"/>
<feBlend mode="normal" in="SourceGraphic" in2="effect1_dropShadow_1_185876" result="shape"/>
</filter>
<filter id="filter1_d_1_185876" x="199" y="368" width="308" height="273" filterUnits="userSpaceOnUse" color-interpolation-filters="sRGB">
<feFlood flood-opacity="0" result="BackgroundImageFix"/>
<feColorMatrix in="SourceAlpha" type="matrix" values="0 0 0 0 0 0 0 0 0 0 0 0 0 0 0 0 0 0 127 0" result="hardAlpha"/>
<feOffset dx="2" dy="2"/>
<feGaussianBlur stdDeviation="5"/>
<feComposite in2="hardAlpha" operator="out"/>
<feColorMatrix type="matrix" values="0 0 0 0 0 0 0 0 0 0 0 0 0 0 0 0 0 0 0.25 0"/>
<feBlend mode="normal" in2="BackgroundImageFix" result="effect1_dropShadow_1_185876"/>
<feBlend mode="normal" in="SourceGraphic" in2="effect1_dropShadow_1_185876" result="shape"/>
</filter>
<filter id="filter2_d_1_185876" x="237" y="97" width="16" height="16" filterUnits="userSpaceOnUse" color-interpolation-filters="sRGB">
<feFlood flood-opacity="0" result="BackgroundImageFix"/>
<feColorMatrix in="SourceAlpha" type="matrix" values="0 0 0 0 0 0 0 0 0 0 0 0 0 0 0 0 0 0 127 0" result="hardAlpha"/>
<feOffset dy="2"/>
<feGaussianBlur stdDeviation="2"/>
<feColorMatrix type="matrix" values="0 0 0 0 0 0 0 0 0 0 0 0 0 0 0 0 0 0 0.45 0"/>
<feBlend mode="normal" in2="BackgroundImageFix" result="effect1_dropShadow_1_185876"/>
<feBlend mode="normal" in="SourceGraphic" in2="effect1_dropShadow_1_185876" result="shape"/>
</filter>
<filter id="filter3_d_1_185876" x="237" y="280" width="16" height="16" filterUnits="userSpaceOnUse" color-interpolation-filters="sRGB">
<feFlood flood-opacity="0" result="BackgroundImageFix"/>
<feColorMatrix in="SourceAlpha" type="matrix" values="0 0 0 0 0 0 0 0 0 0 0 0 0 0 0 0 0 0 127 0" result="hardAlpha"/>
<feOffset dy="2"/>
<feGaussianBlur stdDeviation="2"/>
<feColorMatrix type="matrix" values="0 0 0 0 0 0 0 0 0 0 0 0 0 0 0 0 0 0 0.45 0"/>
<feBlend mode="normal" in2="BackgroundImageFix" result="effect1_dropShadow_1_185876"/>
<feBlend mode="normal" in="SourceGraphic" in2="effect1_dropShadow_1_185876" result="shape"/>
</filter>
<filter id="filter4_d_1_185876" x="444" y="97" width="16" height="16" filterUnits="userSpaceOnUse" color-interpolation-filters="sRGB">
<feFlood flood-opacity="0" result="BackgroundImageFix"/>
<feColorMatrix in="SourceAlpha" type="matrix" values="0 0 0 0 0 0 0 0 0 0 0 0 0 0 0 0 0 0 127 0" result="hardAlpha"/>
<feOffset dy="2"/>
<feGaussianBlur stdDeviation="2"/>
<feColorMatrix type="matrix" values="0 0 0 0 0 0 0 0 0 0 0 0 0 0 0 0 0 0 0.45 0"/>
<feBlend mode="normal" in2="BackgroundImageFix" result="effect1_dropShadow_1_185876"/>
<feBlend mode="normal" in="SourceGraphic" in2="effect1_dropShadow_1_185876" result="shape"/>
</filter>
<filter id="filter5_d_1_185876" x="444" y="280" width="16" height="16" filterUnits="userSpaceOnUse" color-interpolation-filters="sRGB">
<feFlood flood-opacity="0" result="BackgroundImageFix"/>
<feColorMatrix in="SourceAlpha" type="matrix" values="0 0 0 0 0 0 0 0 0 0 0 0 0 0 0 0 0 0 127 0" result="hardAlpha"/>
<feOffset dy="2"/>
<feGaussianBlur stdDeviation="2"/>
<feColorMatrix type="matrix" values="0 0 0 0 0 0 0 0 0 0 0 0 0 0 0 0 0 0 0.45 0"/>
<feBlend mode="normal" in2="BackgroundImageFix" result="effect1_dropShadow_1_185876"/>
<feBlend mode="normal" in="SourceGraphic" in2="effect1_dropShadow_1_185876" result="shape"/>
</filter>
<filter id="filter6_d_1_185876" x="295" y="402" width="16" height="16" filterUnits="userSpaceOnUse" color-interpolation-filters="sRGB">
<feFlood flood-opacity="0" result="BackgroundImageFix"/>
<feColorMatrix in="SourceAlpha" type="matrix" values="0 0 0 0 0 0 0 0 0 0 0 0 0 0 0 0 0 0 127 0" result="hardAlpha"/>
<feOffset dy="2"/>
<feGaussianBlur stdDeviation="2"/>
<feColorMatrix type="matrix" values="0 0 0 0 0 0 0 0 0 0 0 0 0 0 0 0 0 0 0.45 0"/>
<feBlend mode="normal" in2="BackgroundImageFix" result="effect1_dropShadow_1_185876"/>
<feBlend mode="normal" in="SourceGraphic" in2="effect1_dropShadow_1_185876" result="shape"/>
</filter>
<filter id="filter7_d_1_185876" x="295" y="585" width="16" height="16" filterUnits="userSpaceOnUse" color-interpolation-filters="sRGB">
<feFlood flood-opacity="0" result="BackgroundImageFix"/>
<feColorMatrix in="SourceAlpha" type="matrix" values="0 0 0 0 0 0 0 0 0 0 0 0 0 0 0 0 0 0 127 0" result="hardAlpha"/>
<feOffset dy="2"/>
<feGaussianBlur stdDeviation="2"/>
<feColorMatrix type="matrix" values="0 0 0 0 0 0 0 0 0 0 0 0 0 0 0 0 0 0 0.45 0"/>
<feBlend mode="normal" in2="BackgroundImageFix" result="effect1_dropShadow_1_185876"/>
<feBlend mode="normal" in="SourceGraphic" in2="effect1_dropShadow_1_185876" result="shape"/>
</filter>
<filter id="filter8_d_1_185876" x="386" y="402" width="16" height="16" filterUnits="userSpaceOnUse" color-interpolation-filters="sRGB">
<feFlood flood-opacity="0" result="BackgroundImageFix"/>
<feColorMatrix in="SourceAlpha" type="matrix" values="0 0 0 0 0 0 0 0 0 0 0 0 0 0 0 0 0 0 127 0" result="hardAlpha"/>
<feOffset dy="2"/>
<feGaussianBlur stdDeviation="2"/>
<feColorMatrix type="matrix" values="0 0 0 0 0 0 0 0 0 0 0 0 0 0 0 0 0 0 0.45 0"/>
<feBlend mode="normal" in2="BackgroundImageFix" result="effect1_dropShadow_1_185876"/>
<feBlend mode="normal" in="SourceGraphic" in2="effect1_dropShadow_1_185876" result="shape"/>
</filter>
<filter id="filter9_d_1_185876" x="386" y="585" width="16" height="16" filterUnits="userSpaceOnUse" color-interpolation-filters="sRGB">
<feFlood flood-opacity="0" result="BackgroundImageFix"/>
<feColorMatrix in="SourceAlpha" type="matrix" values="0 0 0 0 0 0 0 0 0 0 0 0 0 0 0 0 0 0 127 0" result="hardAlpha"/>
<feOffset dy="2"/>
<feGaussianBlur stdDeviation="2"/>
<feColorMatrix type="matrix" values="0 0 0 0 0 0 0 0 0 0 0 0 0 0 0 0 0 0 0.45 0"/>
<feBlend mode="normal" in2="BackgroundImageFix" result="effect1_dropShadow_1_185876"/>
<feBlend mode="normal" in="SourceGraphic" in2="effect1_dropShadow_1_185876" result="shape"/>
</filter>
</defs>
</svg>
