<svg width="482" height="205" viewBox="0 0 482 205" fill="none" xmlns="http://www.w3.org/2000/svg">
<g filter="url(#filter0_d_1_185866)">
<rect x="8" y="8" width="222" height="180" fill="white"/>
</g>
<g filter="url(#filter1_d_1_185866)">
<rect x="248" y="8" width="222" height="180" fill="white"/>
</g>
<path opacity="0.2" d="M24.209 27H21.3516V21.5107L18.7744 24.6895H18.5488L15.9648 21.5107V27H13.1895V17.5254H15.7803L18.6924 21.0801L21.6182 17.5254H24.209V27ZM33.347 26.6514C32.987 26.7926 32.6543 26.9066 32.3489 26.9932C32.0436 27.0798 31.6767 27.123 31.2484 27.123C30.8428 27.123 30.5602 27.0524 30.4007 26.9111C30.2412 26.7653 30.1273 26.5898 30.0589 26.3848C29.7946 26.599 29.5006 26.7767 29.1771 26.918C28.8535 27.0547 28.4297 27.123 27.9056 27.123C27.3997 27.123 26.9896 27.0365 26.6751 26.8633C26.3652 26.6855 26.1465 26.4645 26.0189 26.2002C25.8958 25.9313 25.8343 25.6556 25.8343 25.373C25.8343 24.9447 25.9414 24.5915 26.1556 24.3135C26.3743 24.0309 26.666 23.8008 27.0306 23.623C27.3952 23.4453 27.8782 23.2607 28.4798 23.0693C28.8216 22.96 29.0791 22.8779 29.2523 22.8232C29.43 22.764 29.5622 22.7184 29.6488 22.6865C29.7353 22.6546 29.8265 22.6136 29.9222 22.5635C29.9222 22.2262 29.8538 21.9619 29.7171 21.7705C29.5804 21.5791 29.2842 21.4834 28.8284 21.4834C28.2907 21.4834 27.7917 21.6019 27.3314 21.8389C26.8711 22.0758 26.4495 22.3812 26.0667 22.7549V20.8682C26.3721 20.6494 26.7025 20.4717 27.0579 20.335C27.4134 20.1937 27.7848 20.0889 28.1722 20.0205C28.5596 19.9521 28.9515 19.918 29.348 19.918C30.3551 19.918 31.1116 20.1139 31.6175 20.5059C32.1279 20.8932 32.3831 21.4287 32.3831 22.1123V24.7988C32.3831 25.054 32.4059 25.2454 32.4515 25.373C32.5016 25.4961 32.5905 25.5576 32.7181 25.5576C32.873 25.5576 33.0827 25.4915 33.347 25.3594V26.6514ZM29.9222 25.3184V23.6709C29.3389 23.9079 28.9127 24.1221 28.6439 24.3135C28.375 24.5003 28.2405 24.7555 28.2405 25.0791C28.2405 25.3115 28.3066 25.4893 28.4388 25.6123C28.5755 25.7354 28.7327 25.7969 28.9105 25.7969C29.0791 25.7969 29.2454 25.7513 29.4095 25.6602C29.5781 25.5645 29.749 25.4505 29.9222 25.3184ZM39.4977 24.9697C39.4977 25.6077 39.263 26.1273 38.7936 26.5283C38.3288 26.9248 37.636 27.123 36.7155 27.123C36.2005 27.123 35.7425 27.0775 35.3414 26.9863C34.9404 26.8906 34.5029 26.7562 34.0289 26.583V24.833C34.4437 25.07 34.8037 25.25 35.109 25.373C35.4144 25.4961 35.7493 25.5576 36.1139 25.5576C36.7291 25.5576 37.0368 25.389 37.0368 25.0518C37.0368 24.9378 36.9912 24.8376 36.9 24.751C36.8135 24.6598 36.6585 24.5596 36.4352 24.4502C36.2164 24.3363 35.9225 24.2018 35.5534 24.0469C35.0976 23.8464 34.7103 23.5775 34.3913 23.2402C34.0722 22.903 33.9127 22.4906 33.9127 22.0029C33.9127 21.6566 34.0176 21.3239 34.2272 21.0049C34.4414 20.6859 34.7627 20.4261 35.1911 20.2256C35.6194 20.0205 36.1367 19.918 36.7428 19.918C36.8886 19.918 37.0732 19.9294 37.2965 19.9521C37.5244 19.9704 37.8092 20.0228 38.151 20.1094C38.4974 20.196 38.8255 20.319 39.1354 20.4785V22.1807C38.9896 22.0941 38.8665 22.0212 38.7663 21.9619C38.6705 21.9027 38.5407 21.8366 38.3766 21.7637C38.2125 21.6908 38.0189 21.627 37.7955 21.5723C37.5768 21.513 37.3512 21.4834 37.1188 21.4834C36.8362 21.4834 36.6426 21.5381 36.5377 21.6475C36.4329 21.7568 36.3805 21.8662 36.3805 21.9756C36.3805 22.0895 36.4352 22.1966 36.5446 22.2969C36.6539 22.3926 36.8978 22.5133 37.276 22.6592C37.8229 22.8688 38.2604 23.0853 38.5885 23.3086C38.9166 23.5273 39.1491 23.7689 39.2858 24.0332C39.4271 24.2975 39.4977 24.6097 39.4977 24.9697ZM49.039 27H45.915L43.2421 23.6982V27H40.7539V17.5254H43.2421V23.083L45.6826 20.041H48.6357L45.915 23.2881L49.039 27ZM61.3951 27H54.2516V17.5254H61.2789V19.4258H57.109V21.1621H61.0875V23.0693H57.109V25.0928H61.3951V27ZM65.4335 27H62.9657V17.5254H65.4335V27ZM74.2024 24.1152H69.301C69.3967 24.5391 69.6314 24.8854 70.0051 25.1543C70.3788 25.4232 70.8026 25.5576 71.2766 25.5576C72.106 25.5576 73.022 25.3252 74.0246 24.8604V26.3848C73.6646 26.5716 73.2271 26.7425 72.7121 26.8975C72.2017 27.0479 71.55 27.123 70.7571 27.123C69.9003 27.123 69.1711 26.9635 68.5696 26.6445C67.968 26.3255 67.5168 25.8926 67.2161 25.3457C66.9198 24.7988 66.7717 24.179 66.7717 23.4863C66.7717 22.8027 66.9198 22.1921 67.2161 21.6543C67.5168 21.112 67.968 20.6882 68.5696 20.3828C69.1711 20.0729 69.9003 19.918 70.7571 19.918C71.3222 19.918 71.8668 20.041 72.3909 20.2871C72.9195 20.5286 73.3524 20.9274 73.6897 21.4834C74.0315 22.0348 74.2024 22.748 74.2024 23.623V24.1152ZM71.8918 22.8984C71.8918 22.4518 71.7802 22.0964 71.5569 21.832C71.3381 21.5632 71.0214 21.4287 70.6067 21.4287C70.1965 21.4287 69.8638 21.5654 69.6086 21.8389C69.358 22.1077 69.2327 22.4609 69.2327 22.8984H71.8918ZM87.7496 27H85.2886V23.2881C85.2886 22.7959 85.2066 22.429 85.0425 22.1875C84.883 21.9414 84.6278 21.8184 84.2769 21.8184C83.9351 21.8184 83.6548 21.9232 83.4361 22.1328C83.2173 22.3379 82.9986 22.5977 82.7798 22.9121V27H80.3189V23.2881C80.3189 22.8187 80.2437 22.4564 80.0933 22.2012C79.9429 21.946 79.6763 21.8184 79.2935 21.8184C79.1112 21.8184 78.9426 21.8548 78.7877 21.9277C78.6373 22.0007 78.5142 22.0827 78.4185 22.1738C78.3228 22.265 78.2066 22.3994 78.0699 22.5771C77.9332 22.7549 77.8466 22.8665 77.8101 22.9121V27H75.3492V20.041H77.8101V21.0391C78.1793 20.6471 78.5552 20.3623 78.938 20.1846C79.3209 20.0068 79.7629 19.918 80.2642 19.918C80.5012 19.918 80.7268 19.9408 80.941 19.9863C81.1552 20.0273 81.3648 20.1003 81.5699 20.2051C81.7795 20.3099 81.9686 20.4535 82.1373 20.6357C82.3059 20.818 82.4403 21.0299 82.5406 21.2715C82.9371 20.8249 83.3472 20.4876 83.7711 20.2598C84.1994 20.0319 84.6916 19.918 85.2476 19.918C85.8036 19.918 86.2684 20.0296 86.6421 20.2529C87.0204 20.4762 87.2984 20.7998 87.4761 21.2236C87.6584 21.6429 87.7496 22.1533 87.7496 22.7549V27ZM96.2792 24.1152H91.3778C91.4735 24.5391 91.7082 24.8854 92.0819 25.1543C92.4556 25.4232 92.8794 25.5576 93.3534 25.5576C94.1828 25.5576 95.0988 25.3252 96.1014 24.8604V26.3848C95.7414 26.5716 95.3039 26.7425 94.7889 26.8975C94.2785 27.0479 93.6268 27.123 92.8339 27.123C91.9771 27.123 91.2479 26.9635 90.6464 26.6445C90.0448 26.3255 89.5936 25.8926 89.2929 25.3457C88.9966 24.7988 88.8485 24.179 88.8485 23.4863C88.8485 22.8027 88.9966 22.1921 89.2929 21.6543C89.5936 21.112 90.0448 20.6882 90.6464 20.3828C91.2479 20.0729 91.9771 19.918 92.8339 19.918C93.399 19.918 93.9436 20.041 94.4677 20.2871C94.9963 20.5286 95.4292 20.9274 95.7665 21.4834C96.1083 22.0348 96.2792 22.748 96.2792 23.623V24.1152ZM93.9686 22.8984C93.9686 22.4518 93.857 22.0964 93.6337 21.832C93.4149 21.5632 93.0982 21.4287 92.6835 21.4287C92.2733 21.4287 91.9406 21.5654 91.6854 21.8389C91.4348 22.1077 91.3095 22.4609 91.3095 22.8984H93.9686ZM104.857 27H102.396V23.2471C102.396 22.8643 102.332 22.5316 102.204 22.249C102.081 21.9619 101.808 21.8184 101.384 21.8184C101.183 21.8184 101.006 21.8571 100.851 21.9346C100.7 22.0075 100.564 22.1032 100.441 22.2217C100.322 22.3402 100.222 22.4541 100.14 22.5635C100.058 22.6729 99.9735 22.7891 99.8869 22.9121V27H97.426V20.041H99.8869V21.0391C100.274 20.6243 100.662 20.335 101.049 20.1709C101.441 20.0023 101.876 19.918 102.355 19.918C104.023 19.918 104.857 20.916 104.857 22.9121V27ZM111.759 26.5967C111.504 26.7197 111.151 26.8382 110.7 26.9521C110.253 27.0661 109.825 27.123 109.415 27.123C107.642 27.123 106.755 26.2572 106.755 24.5254V21.75H105.641V21.3193L108.943 17.9561H109.223V20.041H111.575V21.75H109.223V23.9785C109.223 24.2383 109.239 24.4479 109.271 24.6074C109.303 24.7669 109.392 24.9014 109.538 25.0107C109.688 25.1156 109.914 25.168 110.214 25.168C110.606 25.168 111.121 25.0039 111.759 24.6758V26.5967ZM124.197 27H121.73V26.0088C121.383 26.3825 121.019 26.6628 120.636 26.8496C120.258 27.0319 119.802 27.123 119.269 27.123C118.216 27.123 117.535 26.8177 117.225 26.207C116.915 25.5918 116.76 24.8991 116.76 24.1289V20.041H119.228V23.8008C119.228 24.179 119.289 24.5117 119.412 24.7988C119.54 25.0814 119.813 25.2227 120.233 25.2227C120.593 25.2227 120.877 25.1201 121.087 24.915C121.297 24.71 121.511 24.4479 121.73 24.1289V20.041H124.197V27ZM133.137 27H130.676V23.2471C130.676 22.8643 130.612 22.5316 130.485 22.249C130.362 21.9619 130.088 21.8184 129.665 21.8184C129.464 21.8184 129.286 21.8571 129.131 21.9346C128.981 22.0075 128.844 22.1032 128.721 22.2217C128.603 22.3402 128.502 22.4541 128.42 22.5635C128.338 22.6729 128.254 22.7891 128.167 22.9121V27H125.707V20.041H128.167V21.0391C128.555 20.6243 128.942 20.335 129.33 20.1709C129.721 20.0023 130.157 19.918 130.635 19.918C132.303 19.918 133.137 20.916 133.137 22.9121V27ZM140.512 26.6787C140.306 26.7562 140.09 26.8291 139.862 26.8975C139.634 26.9613 139.377 27.0137 139.09 27.0547C138.807 27.1003 138.497 27.123 138.16 27.123C137.399 27.123 136.754 26.9954 136.225 26.7402C135.701 26.4805 135.296 26.1569 135.009 25.7695C134.726 25.3776 134.53 24.9788 134.421 24.5732C134.311 24.1676 134.257 23.8099 134.257 23.5C134.257 23.1901 134.311 22.8324 134.421 22.4268C134.535 22.0212 134.731 21.6292 135.009 21.251C135.287 20.8727 135.688 20.556 136.212 20.3008C136.74 20.0456 137.39 19.918 138.16 19.918C138.675 19.918 139.094 19.9544 139.418 20.0273C139.741 20.1003 140.069 20.1982 140.402 20.3213V22.2559C139.6 22.0007 138.973 21.873 138.522 21.873C138.085 21.873 137.695 22.0052 137.353 22.2695C137.016 22.5339 136.847 22.944 136.847 23.5C136.847 23.8691 136.932 24.1813 137.1 24.4365C137.269 24.6872 137.483 24.8717 137.743 24.9902C138.003 25.1087 138.262 25.168 138.522 25.168C138.768 25.168 139.049 25.1315 139.363 25.0586C139.678 24.9857 140.06 24.8809 140.512 24.7441V26.6787ZM149.075 27H146.614V23.3906C146.614 23.3633 146.614 23.3382 146.614 23.3154C146.619 23.2881 146.621 23.2334 146.621 23.1514C146.621 22.8187 146.551 22.5133 146.409 22.2354C146.268 21.9574 145.999 21.8184 145.603 21.8184C145.293 21.8184 145.019 21.9232 144.782 22.1328C144.545 22.3379 144.32 22.5977 144.106 22.9121V27H141.645V17.5254H144.106V21.0391C144.511 20.6061 144.912 20.3122 145.309 20.1572C145.705 19.9977 146.127 19.918 146.573 19.918C148.241 19.918 149.075 20.8545 149.075 22.7275V27ZM157.707 26.6514C157.347 26.7926 157.015 26.9066 156.709 26.9932C156.404 27.0798 156.037 27.123 155.609 27.123C155.203 27.123 154.921 27.0524 154.761 26.9111C154.602 26.7653 154.488 26.5898 154.419 26.3848C154.155 26.599 153.861 26.7767 153.538 26.918C153.214 27.0547 152.79 27.123 152.266 27.123C151.76 27.123 151.35 27.0365 151.036 26.8633C150.726 26.6855 150.507 26.4645 150.379 26.2002C150.256 25.9313 150.195 25.6556 150.195 25.373C150.195 24.9447 150.302 24.5915 150.516 24.3135C150.735 24.0309 151.026 23.8008 151.391 23.623C151.756 23.4453 152.239 23.2607 152.84 23.0693C153.182 22.96 153.44 22.8779 153.613 22.8232C153.79 22.764 153.923 22.7184 154.009 22.6865C154.096 22.6546 154.187 22.6136 154.283 22.5635C154.283 22.2262 154.214 21.9619 154.078 21.7705C153.941 21.5791 153.645 21.4834 153.189 21.4834C152.651 21.4834 152.152 21.6019 151.692 21.8389C151.232 22.0758 150.81 22.3812 150.427 22.7549V20.8682C150.733 20.6494 151.063 20.4717 151.418 20.335C151.774 20.1937 152.145 20.0889 152.533 20.0205C152.92 19.9521 153.312 19.918 153.708 19.918C154.716 19.918 155.472 20.1139 155.978 20.5059C156.488 20.8932 156.744 21.4287 156.744 22.1123V24.7988C156.744 25.054 156.766 25.2454 156.812 25.373C156.862 25.4961 156.951 25.5576 157.079 25.5576C157.234 25.5576 157.443 25.4915 157.707 25.3594V26.6514ZM154.283 25.3184V23.6709C153.699 23.9079 153.273 24.1221 153.004 24.3135C152.735 24.5003 152.601 24.7555 152.601 25.0791C152.601 25.3115 152.667 25.4893 152.799 25.6123C152.936 25.7354 153.093 25.7969 153.271 25.7969C153.44 25.7969 153.606 25.7513 153.77 25.6602C153.939 25.5645 154.109 25.4505 154.283 25.3184ZM166.053 27H163.592V23.2471C163.592 22.8643 163.528 22.5316 163.4 22.249C163.277 21.9619 163.004 21.8184 162.58 21.8184C162.379 21.8184 162.202 21.8571 162.047 21.9346C161.896 22.0075 161.76 22.1032 161.636 22.2217C161.518 22.3402 161.418 22.4541 161.336 22.5635C161.254 22.6729 161.169 22.7891 161.083 22.9121V27H158.622V20.041H161.083V21.0391C161.47 20.6243 161.858 20.335 162.245 20.1709C162.637 20.0023 163.072 19.918 163.551 19.918C165.219 19.918 166.053 20.916 166.053 22.9121V27ZM174.466 21.5244H173.249C173.677 21.8981 173.892 22.3561 173.892 22.8984C173.892 23.1855 173.83 23.4613 173.707 23.7256C173.589 23.9899 173.411 24.2246 173.174 24.4297C172.941 24.6348 172.652 24.8034 172.306 24.9355C171.964 25.0632 171.572 25.1406 171.13 25.168C170.56 25.1908 170.275 25.3434 170.275 25.626C170.275 25.7354 170.312 25.8151 170.385 25.8652C170.458 25.9154 170.572 25.9541 170.727 25.9814C170.886 26.0042 171.153 26.0316 171.526 26.0635C171.95 26.0999 172.344 26.1637 172.709 26.2549C173.074 26.346 173.413 26.5374 173.728 26.8291C174.042 27.1208 174.199 27.5378 174.199 28.0801C174.199 28.513 174.081 28.8958 173.844 29.2285C173.611 29.5612 173.233 29.821 172.709 30.0078C172.185 30.1947 171.492 30.2881 170.631 30.2881C169.391 30.2881 168.48 30.1217 167.897 29.7891C167.318 29.4564 167.028 29.012 167.028 28.4561C167.028 28.3057 167.065 28.1325 167.138 27.9365C167.215 27.7406 167.375 27.5514 167.616 27.3691C167.862 27.1868 168.218 27.0638 168.683 27C168.519 26.9408 168.377 26.8268 168.259 26.6582C168.14 26.485 168.081 26.305 168.081 26.1182C168.081 25.8766 168.163 25.6374 168.327 25.4004C168.496 25.1634 168.767 25.0107 169.141 24.9424C168.621 24.8057 168.172 24.5482 167.794 24.1699C167.416 23.7917 167.227 23.3018 167.227 22.7002C167.227 22.2445 167.313 21.8457 167.486 21.5039C167.664 21.1621 167.908 20.8841 168.218 20.6699C168.528 20.4557 168.888 20.2985 169.298 20.1982C169.708 20.0934 170.157 20.041 170.645 20.041H174.466V21.5244ZM171.745 22.7002C171.745 22.3493 171.624 22.069 171.383 21.8594C171.146 21.6452 170.879 21.5381 170.583 21.5381C170.205 21.5381 169.906 21.6657 169.688 21.9209C169.473 22.1761 169.366 22.445 169.366 22.7275C169.366 22.9235 169.412 23.1058 169.503 23.2744C169.599 23.443 169.731 23.5798 169.899 23.6846C170.073 23.7848 170.278 23.835 170.515 23.835C170.87 23.835 171.164 23.7233 171.397 23.5C171.629 23.2767 171.745 23.0101 171.745 22.7002ZM172.237 28.2988C172.237 27.9935 172.073 27.7952 171.745 27.7041C171.422 27.6175 171.087 27.5742 170.74 27.5742C170.171 27.5742 169.758 27.6335 169.503 27.752C169.252 27.875 169.127 28.0687 169.127 28.333C169.127 28.8525 169.651 29.1123 170.699 29.1123C171.169 29.1123 171.542 29.0439 171.82 28.9072C172.098 28.7751 172.237 28.5723 172.237 28.2988ZM182.421 24.1152H177.52C177.616 24.5391 177.85 24.8854 178.224 25.1543C178.598 25.4232 179.022 25.5576 179.496 25.5576C180.325 25.5576 181.241 25.3252 182.244 24.8604V26.3848C181.884 26.5716 181.446 26.7425 180.931 26.8975C180.421 27.0479 179.769 27.123 178.976 27.123C178.119 27.123 177.39 26.9635 176.788 26.6445C176.187 26.3255 175.736 25.8926 175.435 25.3457C175.139 24.7988 174.991 24.179 174.991 23.4863C174.991 22.8027 175.139 22.1921 175.435 21.6543C175.736 21.112 176.187 20.6882 176.788 20.3828C177.39 20.0729 178.119 19.918 178.976 19.918C179.541 19.918 180.086 20.041 180.61 20.2871C181.138 20.5286 181.571 20.9274 181.909 21.4834C182.25 22.0348 182.421 22.748 182.421 23.623V24.1152ZM180.111 22.8984C180.111 22.4518 179.999 22.0964 179.776 21.832C179.557 21.5632 179.24 21.4287 178.826 21.4287C178.415 21.4287 178.083 21.5654 177.828 21.8389C177.577 22.1077 177.452 22.4609 177.452 22.8984H180.111ZM190.93 27H188.463V26.3711C188.203 26.5898 187.927 26.7699 187.635 26.9111C187.348 27.0524 186.95 27.123 186.439 27.123C185.933 27.123 185.437 26.9977 184.949 26.7471C184.461 26.4964 184.06 26.1068 183.746 25.5781C183.431 25.0449 183.274 24.375 183.274 23.5684C183.274 22.9349 183.393 22.3424 183.63 21.791C183.867 21.235 184.238 20.7839 184.744 20.4375C185.25 20.0911 185.87 19.918 186.603 19.918C187.059 19.918 187.428 19.9681 187.711 20.0684C187.993 20.1686 188.244 20.2962 188.463 20.4512V17.5254H190.93V27ZM188.463 24.7852V22.126C188.176 21.9665 187.95 21.8525 187.786 21.7842C187.626 21.7158 187.437 21.6816 187.218 21.6816C186.831 21.6816 186.508 21.8457 186.248 22.1738C185.993 22.502 185.865 22.9486 185.865 23.5137C185.865 24.1289 185.999 24.5778 186.268 24.8604C186.542 25.1383 186.858 25.2773 187.218 25.2773C187.515 25.2773 187.754 25.2318 187.936 25.1406C188.119 25.0449 188.294 24.9264 188.463 24.7852Z" fill="black"/>
<path opacity="0.2" d="M264.209 27H261.352V21.5107L258.774 24.6895H258.549L255.965 21.5107V27H253.189V17.5254H255.78L258.692 21.0801L261.618 17.5254H264.209V27ZM273.347 26.6514C272.987 26.7926 272.654 26.9066 272.349 26.9932C272.044 27.0798 271.677 27.123 271.248 27.123C270.843 27.123 270.56 27.0524 270.401 26.9111C270.241 26.7653 270.127 26.5898 270.059 26.3848C269.795 26.599 269.501 26.7767 269.177 26.918C268.854 27.0547 268.43 27.123 267.906 27.123C267.4 27.123 266.99 27.0365 266.675 26.8633C266.365 26.6855 266.146 26.4645 266.019 26.2002C265.896 25.9313 265.834 25.6556 265.834 25.373C265.834 24.9447 265.941 24.5915 266.156 24.3135C266.374 24.0309 266.666 23.8008 267.031 23.623C267.395 23.4453 267.878 23.2607 268.48 23.0693C268.822 22.96 269.079 22.8779 269.252 22.8232C269.43 22.764 269.562 22.7184 269.649 22.6865C269.735 22.6546 269.826 22.6136 269.922 22.5635C269.922 22.2262 269.854 21.9619 269.717 21.7705C269.58 21.5791 269.284 21.4834 268.828 21.4834C268.291 21.4834 267.792 21.6019 267.331 21.8389C266.871 22.0758 266.45 22.3812 266.067 22.7549V20.8682C266.372 20.6494 266.702 20.4717 267.058 20.335C267.413 20.1937 267.785 20.0889 268.172 20.0205C268.56 19.9521 268.951 19.918 269.348 19.918C270.355 19.918 271.112 20.1139 271.618 20.5059C272.128 20.8932 272.383 21.4287 272.383 22.1123V24.7988C272.383 25.054 272.406 25.2454 272.451 25.373C272.502 25.4961 272.59 25.5576 272.718 25.5576C272.873 25.5576 273.083 25.4915 273.347 25.3594V26.6514ZM269.922 25.3184V23.6709C269.339 23.9079 268.913 24.1221 268.644 24.3135C268.375 24.5003 268.241 24.7555 268.241 25.0791C268.241 25.3115 268.307 25.4893 268.439 25.6123C268.576 25.7354 268.733 25.7969 268.91 25.7969C269.079 25.7969 269.245 25.7513 269.409 25.6602C269.578 25.5645 269.749 25.4505 269.922 25.3184ZM279.498 24.9697C279.498 25.6077 279.263 26.1273 278.794 26.5283C278.329 26.9248 277.636 27.123 276.715 27.123C276.2 27.123 275.742 27.0775 275.341 26.9863C274.94 26.8906 274.503 26.7562 274.029 26.583V24.833C274.444 25.07 274.804 25.25 275.109 25.373C275.414 25.4961 275.749 25.5576 276.114 25.5576C276.729 25.5576 277.037 25.389 277.037 25.0518C277.037 24.9378 276.991 24.8376 276.9 24.751C276.813 24.6598 276.659 24.5596 276.435 24.4502C276.216 24.3363 275.923 24.2018 275.553 24.0469C275.098 23.8464 274.71 23.5775 274.391 23.2402C274.072 22.903 273.913 22.4906 273.913 22.0029C273.913 21.6566 274.018 21.3239 274.227 21.0049C274.441 20.6859 274.763 20.4261 275.191 20.2256C275.619 20.0205 276.137 19.918 276.743 19.918C276.889 19.918 277.073 19.9294 277.297 19.9521C277.524 19.9704 277.809 20.0228 278.151 20.1094C278.497 20.196 278.825 20.319 279.135 20.4785V22.1807C278.99 22.0941 278.867 22.0212 278.766 21.9619C278.671 21.9027 278.541 21.8366 278.377 21.7637C278.213 21.6908 278.019 21.627 277.796 21.5723C277.577 21.513 277.351 21.4834 277.119 21.4834C276.836 21.4834 276.643 21.5381 276.538 21.6475C276.433 21.7568 276.381 21.8662 276.381 21.9756C276.381 22.0895 276.435 22.1966 276.545 22.2969C276.654 22.3926 276.898 22.5133 277.276 22.6592C277.823 22.8688 278.26 23.0853 278.589 23.3086C278.917 23.5273 279.149 23.7689 279.286 24.0332C279.427 24.2975 279.498 24.6097 279.498 24.9697ZM289.039 27H285.915L283.242 23.6982V27H280.754V17.5254H283.242V23.083L285.683 20.041H288.636L285.915 23.2881L289.039 27ZM301.395 27H294.252V17.5254H301.279V19.4258H297.109V21.1621H301.088V23.0693H297.109V25.0928H301.395V27ZM305.434 27H302.966V17.5254H305.434V27ZM314.202 24.1152H309.301C309.397 24.5391 309.631 24.8854 310.005 25.1543C310.379 25.4232 310.803 25.5576 311.277 25.5576C312.106 25.5576 313.022 25.3252 314.025 24.8604V26.3848C313.665 26.5716 313.227 26.7425 312.712 26.8975C312.202 27.0479 311.55 27.123 310.757 27.123C309.9 27.123 309.171 26.9635 308.57 26.6445C307.968 26.3255 307.517 25.8926 307.216 25.3457C306.92 24.7988 306.772 24.179 306.772 23.4863C306.772 22.8027 306.92 22.1921 307.216 21.6543C307.517 21.112 307.968 20.6882 308.57 20.3828C309.171 20.0729 309.9 19.918 310.757 19.918C311.322 19.918 311.867 20.041 312.391 20.2871C312.92 20.5286 313.352 20.9274 313.69 21.4834C314.031 22.0348 314.202 22.748 314.202 23.623V24.1152ZM311.892 22.8984C311.892 22.4518 311.78 22.0964 311.557 21.832C311.338 21.5632 311.021 21.4287 310.607 21.4287C310.197 21.4287 309.864 21.5654 309.609 21.8389C309.358 22.1077 309.233 22.4609 309.233 22.8984H311.892ZM327.75 27H325.289V23.2881C325.289 22.7959 325.207 22.429 325.043 22.1875C324.883 21.9414 324.628 21.8184 324.277 21.8184C323.935 21.8184 323.655 21.9232 323.436 22.1328C323.217 22.3379 322.999 22.5977 322.78 22.9121V27H320.319V23.2881C320.319 22.8187 320.244 22.4564 320.093 22.2012C319.943 21.946 319.676 21.8184 319.294 21.8184C319.111 21.8184 318.943 21.8548 318.788 21.9277C318.637 22.0007 318.514 22.0827 318.419 22.1738C318.323 22.265 318.207 22.3994 318.07 22.5771C317.933 22.7549 317.847 22.8665 317.81 22.9121V27H315.349V20.041H317.81V21.0391C318.179 20.6471 318.555 20.3623 318.938 20.1846C319.321 20.0068 319.763 19.918 320.264 19.918C320.501 19.918 320.727 19.9408 320.941 19.9863C321.155 20.0273 321.365 20.1003 321.57 20.2051C321.78 20.3099 321.969 20.4535 322.137 20.6357C322.306 20.818 322.44 21.0299 322.541 21.2715C322.937 20.8249 323.347 20.4876 323.771 20.2598C324.199 20.0319 324.692 19.918 325.248 19.918C325.804 19.918 326.268 20.0296 326.642 20.2529C327.02 20.4762 327.298 20.7998 327.476 21.2236C327.658 21.6429 327.75 22.1533 327.75 22.7549V27ZM336.279 24.1152H331.378C331.474 24.5391 331.708 24.8854 332.082 25.1543C332.456 25.4232 332.879 25.5576 333.353 25.5576C334.183 25.5576 335.099 25.3252 336.101 24.8604V26.3848C335.741 26.5716 335.304 26.7425 334.789 26.8975C334.279 27.0479 333.627 27.123 332.834 27.123C331.977 27.123 331.248 26.9635 330.646 26.6445C330.045 26.3255 329.594 25.8926 329.293 25.3457C328.997 24.7988 328.849 24.179 328.849 23.4863C328.849 22.8027 328.997 22.1921 329.293 21.6543C329.594 21.112 330.045 20.6882 330.646 20.3828C331.248 20.0729 331.977 19.918 332.834 19.918C333.399 19.918 333.944 20.041 334.468 20.2871C334.996 20.5286 335.429 20.9274 335.766 21.4834C336.108 22.0348 336.279 22.748 336.279 23.623V24.1152ZM333.969 22.8984C333.969 22.4518 333.857 22.0964 333.634 21.832C333.415 21.5632 333.098 21.4287 332.683 21.4287C332.273 21.4287 331.941 21.5654 331.685 21.8389C331.435 22.1077 331.309 22.4609 331.309 22.8984H333.969ZM344.857 27H342.396V23.2471C342.396 22.8643 342.332 22.5316 342.204 22.249C342.081 21.9619 341.808 21.8184 341.384 21.8184C341.183 21.8184 341.006 21.8571 340.851 21.9346C340.7 22.0075 340.564 22.1032 340.441 22.2217C340.322 22.3402 340.222 22.4541 340.14 22.5635C340.058 22.6729 339.974 22.7891 339.887 22.9121V27H337.426V20.041H339.887V21.0391C340.274 20.6243 340.662 20.335 341.049 20.1709C341.441 20.0023 341.876 19.918 342.355 19.918C344.023 19.918 344.857 20.916 344.857 22.9121V27ZM351.759 26.5967C351.504 26.7197 351.151 26.8382 350.7 26.9521C350.253 27.0661 349.825 27.123 349.415 27.123C347.642 27.123 346.755 26.2572 346.755 24.5254V21.75H345.641V21.3193L348.943 17.9561H349.223V20.041H351.575V21.75H349.223V23.9785C349.223 24.2383 349.239 24.4479 349.271 24.6074C349.303 24.7669 349.392 24.9014 349.538 25.0107C349.688 25.1156 349.914 25.168 350.214 25.168C350.606 25.168 351.121 25.0039 351.759 24.6758V26.5967ZM362.823 26.6787C362.618 26.7562 362.402 26.8291 362.174 26.8975C361.946 26.9613 361.689 27.0137 361.402 27.0547C361.119 27.1003 360.809 27.123 360.472 27.123C359.711 27.123 359.066 26.9954 358.537 26.7402C358.013 26.4805 357.608 26.1569 357.32 25.7695C357.038 25.3776 356.842 24.9788 356.733 24.5732C356.623 24.1676 356.569 23.8099 356.569 23.5C356.569 23.1901 356.623 22.8324 356.733 22.4268C356.847 22.0212 357.042 21.6292 357.32 21.251C357.598 20.8727 358 20.556 358.524 20.3008C359.052 20.0456 359.702 19.918 360.472 19.918C360.987 19.918 361.406 19.9544 361.73 20.0273C362.053 20.1003 362.381 20.1982 362.714 20.3213V22.2559C361.912 22.0007 361.285 21.873 360.834 21.873C360.397 21.873 360.007 22.0052 359.665 22.2695C359.328 22.5339 359.159 22.944 359.159 23.5C359.159 23.8691 359.244 24.1813 359.412 24.4365C359.581 24.6872 359.795 24.8717 360.055 24.9902C360.315 25.1087 360.574 25.168 360.834 25.168C361.08 25.168 361.361 25.1315 361.675 25.0586C361.989 24.9857 362.372 24.8809 362.823 24.7441V26.6787ZM371.387 27H368.926V23.3906C368.926 23.3633 368.926 23.3382 368.926 23.3154C368.931 23.2881 368.933 23.2334 368.933 23.1514C368.933 22.8187 368.862 22.5133 368.721 22.2354C368.58 21.9574 368.311 21.8184 367.915 21.8184C367.605 21.8184 367.331 21.9232 367.094 22.1328C366.857 22.3379 366.632 22.5977 366.417 22.9121V27H363.957V17.5254H366.417V21.0391C366.823 20.6061 367.224 20.3122 367.621 20.1572C368.017 19.9977 368.439 19.918 368.885 19.918C370.553 19.918 371.387 20.8545 371.387 22.7275V27ZM380.019 26.6514C379.659 26.7926 379.327 26.9066 379.021 26.9932C378.716 27.0798 378.349 27.123 377.921 27.123C377.515 27.123 377.233 27.0524 377.073 26.9111C376.914 26.7653 376.8 26.5898 376.731 26.3848C376.467 26.599 376.173 26.7767 375.849 26.918C375.526 27.0547 375.102 27.123 374.578 27.123C374.072 27.123 373.662 27.0365 373.347 26.8633C373.038 26.6855 372.819 26.4645 372.691 26.2002C372.568 25.9313 372.507 25.6556 372.507 25.373C372.507 24.9447 372.614 24.5915 372.828 24.3135C373.047 24.0309 373.338 23.8008 373.703 23.623C374.068 23.4453 374.551 23.2607 375.152 23.0693C375.494 22.96 375.751 22.8779 375.925 22.8232C376.102 22.764 376.235 22.7184 376.321 22.6865C376.408 22.6546 376.499 22.6136 376.595 22.5635C376.595 22.2262 376.526 21.9619 376.389 21.7705C376.253 21.5791 375.957 21.4834 375.501 21.4834C374.963 21.4834 374.464 21.6019 374.004 21.8389C373.543 22.0758 373.122 22.3812 372.739 22.7549V20.8682C373.044 20.6494 373.375 20.4717 373.73 20.335C374.086 20.1937 374.457 20.0889 374.845 20.0205C375.232 19.9521 375.624 19.918 376.02 19.918C377.027 19.918 377.784 20.1139 378.29 20.5059C378.8 20.8932 379.055 21.4287 379.055 22.1123V24.7988C379.055 25.054 379.078 25.2454 379.124 25.373C379.174 25.4961 379.263 25.5576 379.39 25.5576C379.545 25.5576 379.755 25.4915 380.019 25.3594V26.6514ZM376.595 25.3184V23.6709C376.011 23.9079 375.585 24.1221 375.316 24.3135C375.047 24.5003 374.913 24.7555 374.913 25.0791C374.913 25.3115 374.979 25.4893 375.111 25.6123C375.248 25.7354 375.405 25.7969 375.583 25.7969C375.751 25.7969 375.918 25.7513 376.082 25.6602C376.25 25.5645 376.421 25.4505 376.595 25.3184ZM388.364 27H385.903V23.2471C385.903 22.8643 385.84 22.5316 385.712 22.249C385.589 21.9619 385.316 21.8184 384.892 21.8184C384.691 21.8184 384.513 21.8571 384.359 21.9346C384.208 22.0075 384.071 22.1032 383.948 22.2217C383.83 22.3402 383.73 22.4541 383.648 22.5635C383.566 22.6729 383.481 22.7891 383.395 22.9121V27H380.934V20.041H383.395V21.0391C383.782 20.6243 384.169 20.335 384.557 20.1709C384.949 20.0023 385.384 19.918 385.862 19.918C387.53 19.918 388.364 20.916 388.364 22.9121V27ZM396.778 21.5244H395.561C395.989 21.8981 396.204 22.3561 396.204 22.8984C396.204 23.1855 396.142 23.4613 396.019 23.7256C395.9 23.9899 395.723 24.2246 395.486 24.4297C395.253 24.6348 394.964 24.8034 394.618 24.9355C394.276 25.0632 393.884 25.1406 393.442 25.168C392.872 25.1908 392.587 25.3434 392.587 25.626C392.587 25.7354 392.624 25.8151 392.697 25.8652C392.77 25.9154 392.884 25.9541 393.039 25.9814C393.198 26.0042 393.465 26.0316 393.838 26.0635C394.262 26.0999 394.656 26.1637 395.021 26.2549C395.386 26.346 395.725 26.5374 396.039 26.8291C396.354 27.1208 396.511 27.5378 396.511 28.0801C396.511 28.513 396.393 28.8958 396.156 29.2285C395.923 29.5612 395.545 29.821 395.021 30.0078C394.497 30.1947 393.804 30.2881 392.943 30.2881C391.703 30.2881 390.792 30.1217 390.208 29.7891C389.63 29.4564 389.34 29.012 389.34 28.4561C389.34 28.3057 389.377 28.1325 389.45 27.9365C389.527 27.7406 389.687 27.5514 389.928 27.3691C390.174 27.1868 390.53 27.0638 390.995 27C390.831 26.9408 390.689 26.8268 390.571 26.6582C390.452 26.485 390.393 26.305 390.393 26.1182C390.393 25.8766 390.475 25.6374 390.639 25.4004C390.808 25.1634 391.079 25.0107 391.453 24.9424C390.933 24.8057 390.484 24.5482 390.106 24.1699C389.728 23.7917 389.539 23.3018 389.539 22.7002C389.539 22.2445 389.625 21.8457 389.798 21.5039C389.976 21.1621 390.22 20.8841 390.53 20.6699C390.84 20.4557 391.2 20.2985 391.61 20.1982C392.02 20.0934 392.469 20.041 392.956 20.041H396.778V21.5244ZM394.057 22.7002C394.057 22.3493 393.936 22.069 393.695 21.8594C393.458 21.6452 393.191 21.5381 392.895 21.5381C392.517 21.5381 392.218 21.6657 391.999 21.9209C391.785 22.1761 391.678 22.445 391.678 22.7275C391.678 22.9235 391.724 23.1058 391.815 23.2744C391.911 23.443 392.043 23.5798 392.211 23.6846C392.385 23.7848 392.59 23.835 392.827 23.835C393.182 23.835 393.476 23.7233 393.708 23.5C393.941 23.2767 394.057 23.0101 394.057 22.7002ZM394.549 28.2988C394.549 27.9935 394.385 27.7952 394.057 27.7041C393.734 27.6175 393.399 27.5742 393.052 27.5742C392.483 27.5742 392.07 27.6335 391.815 27.752C391.564 27.875 391.439 28.0687 391.439 28.333C391.439 28.8525 391.963 29.1123 393.011 29.1123C393.481 29.1123 393.854 29.0439 394.132 28.9072C394.41 28.7751 394.549 28.5723 394.549 28.2988ZM404.733 24.1152H399.832C399.928 24.5391 400.162 24.8854 400.536 25.1543C400.91 25.4232 401.333 25.5576 401.807 25.5576C402.637 25.5576 403.553 25.3252 404.555 24.8604V26.3848C404.195 26.5716 403.758 26.7425 403.243 26.8975C402.733 27.0479 402.081 27.123 401.288 27.123C400.431 27.123 399.702 26.9635 399.1 26.6445C398.499 26.3255 398.048 25.8926 397.747 25.3457C397.451 24.7988 397.303 24.179 397.303 23.4863C397.303 22.8027 397.451 22.1921 397.747 21.6543C398.048 21.112 398.499 20.6882 399.1 20.3828C399.702 20.0729 400.431 19.918 401.288 19.918C401.853 19.918 402.398 20.041 402.922 20.2871C403.45 20.5286 403.883 20.9274 404.22 21.4834C404.562 22.0348 404.733 22.748 404.733 23.623V24.1152ZM402.423 22.8984C402.423 22.4518 402.311 22.0964 402.088 21.832C401.869 21.5632 401.552 21.4287 401.137 21.4287C400.727 21.4287 400.395 21.5654 400.139 21.8389C399.889 22.1077 399.763 22.4609 399.763 22.8984H402.423ZM413.242 27H410.774V26.3711C410.515 26.5898 410.239 26.7699 409.947 26.9111C409.66 27.0524 409.261 27.123 408.751 27.123C408.245 27.123 407.748 26.9977 407.261 26.7471C406.773 26.4964 406.372 26.1068 406.058 25.5781C405.743 25.0449 405.586 24.375 405.586 23.5684C405.586 22.9349 405.705 22.3424 405.941 21.791C406.178 21.235 406.55 20.7839 407.056 20.4375C407.562 20.0911 408.181 19.918 408.915 19.918C409.371 19.918 409.74 19.9681 410.023 20.0684C410.305 20.1686 410.556 20.2962 410.774 20.4512V17.5254H413.242V27ZM410.774 24.7852V22.126C410.487 21.9665 410.262 21.8525 410.098 21.7842C409.938 21.7158 409.749 21.6816 409.53 21.6816C409.143 21.6816 408.819 21.8457 408.56 22.1738C408.304 22.502 408.177 22.9486 408.177 23.5137C408.177 24.1289 408.311 24.5778 408.58 24.8604C408.854 25.1383 409.17 25.2773 409.53 25.2773C409.827 25.2773 410.066 25.2318 410.248 25.1406C410.43 25.0449 410.606 24.9264 410.774 24.7852Z" fill="black"/>
<mask id="mask0_1_185866" style="mask-type:alpha" maskUnits="userSpaceOnUse" x="63" y="42" width="111" height="111">
<circle cx="118.5" cy="97.5" r="41" stroke="black" stroke-width="29"/>
</mask>
<g mask="url(#mask0_1_185866)">
<circle cx="117.344" cy="33.9062" r="68.2188" fill="#6A78F3"/>
<circle cx="172.844" cy="124.094" r="68.2188" fill="#EB1010"/>
<circle cx="84.9688" cy="126.406" r="68.2188" fill="#C6EC2C"/>
</g>
<mask id="mask1_1_185866" style="mask-type:alpha" maskUnits="userSpaceOnUse" x="256" y="58" width="138" height="137">
<circle cx="324.969" cy="126.406" r="68.2188" fill="#C6EC2C"/>
</mask>
<g mask="url(#mask1_1_185866)">
<circle cx="357.344" cy="33.9062" r="68.2188" fill="#6A78F3"/>
<circle cx="358.5" cy="97.5" r="41" stroke="black" stroke-width="29"/>
<circle cx="412.844" cy="124.094" r="68.2188" fill="#EB1010"/>
</g>
<circle cx="324.969" cy="126.406" r="68.2188" stroke="#1C6EE8"/>
<circle cx="118.5" cy="97.5" r="55.5" stroke="#1C6EE8"/>
<rect x="63" y="42" width="111" height="111" stroke="#1C6EE8"/>
<g filter="url(#filter2_d_1_185866)">
<rect x="59" y="38" width="8" height="8" fill="white"/>
<rect x="59.5" y="38.5" width="7" height="7" stroke="#1C6EE8"/>
</g>
<g filter="url(#filter3_d_1_185866)">
<rect x="59" y="149" width="8" height="8" fill="white"/>
<rect x="59.5" y="149.5" width="7" height="7" stroke="#1C6EE8"/>
</g>
<g filter="url(#filter4_d_1_185866)">
<rect x="170" y="38" width="8" height="8" fill="white"/>
<rect x="170.5" y="38.5" width="7" height="7" stroke="#1C6EE8"/>
</g>
<g filter="url(#filter5_d_1_185866)">
<rect x="170" y="149" width="8" height="8" fill="white"/>
<rect x="170.5" y="149.5" width="7" height="7" stroke="#1C6EE8"/>
</g>
<rect x="257" y="58" width="136" height="137" stroke="#1C6EE8"/>
<g filter="url(#filter6_d_1_185866)">
<rect x="253" y="54" width="8" height="8" fill="white"/>
<rect x="253.5" y="54.5" width="7" height="7" stroke="#1C6EE8"/>
</g>
<g filter="url(#filter7_d_1_185866)">
<rect x="253" y="191" width="8" height="8" fill="white"/>
<rect x="253.5" y="191.5" width="7" height="7" stroke="#1C6EE8"/>
</g>
<g filter="url(#filter8_d_1_185866)">
<rect x="389" y="54" width="8" height="8" fill="white"/>
<rect x="389.5" y="54.5" width="7" height="7" stroke="#1C6EE8"/>
</g>
<g filter="url(#filter9_d_1_185866)">
<rect x="389" y="191" width="8" height="8" fill="white"/>
<rect x="389.5" y="191.5" width="7" height="7" stroke="#1C6EE8"/>
</g>
<path d="M61.25 94.4021V92C61.25 91.0335 62.0335 90.25 63 90.25C63.9665 90.25 64.75 91.0335 64.75 92V94.4021C65.5535 94.7937 66.2063 95.4465 66.5979 96.25H69C69.9665 96.25 70.75 97.0335 70.75 98C70.75 98.9665 69.9665 99.75 69 99.75H66.5979C66.2063 100.554 65.5535 101.206 64.75 101.598V104C64.75 104.966 63.9665 105.75 63 105.75C62.0335 105.75 61.25 104.966 61.25 104V101.598C60.4465 101.206 59.7937 100.554 59.4021 99.75H57C56.0335 99.75 55.25 98.9665 55.25 98C55.25 97.0335 56.0335 96.25 57 96.25H59.4021C59.7937 95.4465 60.4465 94.7937 61.25 94.4021Z" fill="white"/>
<path fill-rule="evenodd" clip-rule="evenodd" d="M63 91.25C63.4142 91.25 63.75 91.5858 63.75 92V95.0945C64.8042 95.3658 65.6342 96.1958 65.9055 97.25H69C69.4142 97.25 69.75 97.5858 69.75 98C69.75 98.4142 69.4142 98.75 69 98.75H65.9055C65.6342 99.8042 64.8042 100.634 63.75 100.905V104C63.75 104.414 63.4142 104.75 63 104.75C62.5858 104.75 62.25 104.414 62.25 104V100.905C61.1958 100.634 60.3658 99.8042 60.0945 98.75H57C56.5858 98.75 56.25 98.4142 56.25 98C56.25 97.5858 56.5858 97.25 57 97.25H60.0945C60.3658 96.1958 61.1958 95.3658 62.25 95.0945V92C62.25 91.5858 62.5858 91.25 63 91.25ZM64.5 98C64.5 98.8284 63.8284 99.5 63 99.5C62.1716 99.5 61.5 98.8284 61.5 98C61.5 97.1716 62.1716 96.5 63 96.5C63.8284 96.5 64.5 97.1716 64.5 98Z" fill="#1C6EE8"/>
<path d="M255.25 123.402V121C255.25 120.034 256.034 119.25 257 119.25C257.966 119.25 258.75 120.034 258.75 121V123.402C259.554 123.794 260.206 124.446 260.598 125.25H263C263.966 125.25 264.75 126.034 264.75 127C264.75 127.966 263.966 128.75 263 128.75H260.598C260.206 129.554 259.554 130.206 258.75 130.598V133C258.75 133.966 257.966 134.75 257 134.75C256.034 134.75 255.25 133.966 255.25 133V130.598C254.446 130.206 253.794 129.554 253.402 128.75H251C250.034 128.75 249.25 127.966 249.25 127C249.25 126.034 250.034 125.25 251 125.25H253.402C253.794 124.446 254.446 123.794 255.25 123.402Z" fill="white"/>
<path fill-rule="evenodd" clip-rule="evenodd" d="M257 120.25C257.414 120.25 257.75 120.586 257.75 121V124.095C258.804 124.366 259.634 125.196 259.905 126.25H263C263.414 126.25 263.75 126.586 263.75 127C263.75 127.414 263.414 127.75 263 127.75H259.905C259.634 128.804 258.804 129.634 257.75 129.905V133C257.75 133.414 257.414 133.75 257 133.75C256.586 133.75 256.25 133.414 256.25 133V129.905C255.196 129.634 254.366 128.804 254.095 127.75H251C250.586 127.75 250.25 127.414 250.25 127C250.25 126.586 250.586 126.25 251 126.25H254.095C254.366 125.196 255.196 124.366 256.25 124.095V121C256.25 120.586 256.586 120.25 257 120.25ZM258.5 127C258.5 127.828 257.828 128.5 257 128.5C256.172 128.5 255.5 127.828 255.5 127C255.5 126.172 256.172 125.5 257 125.5C257.828 125.5 258.5 126.172 258.5 127Z" fill="#1C6EE8"/>
<path fill-rule="evenodd" clip-rule="evenodd" d="M118.5 124C133.136 124 145 112.136 145 97.5C145 82.8645 133.136 71 118.5 71C103.864 71 92 82.8645 92 97.5C92 112.136 103.864 124 118.5 124ZM118.5 153C149.152 153 174 128.152 174 97.5C174 66.8482 149.152 42 118.5 42C87.8482 42 63 66.8482 63 97.5C63 128.152 87.8482 153 118.5 153Z" stroke="#1C6EE8"/>
<defs>
<filter id="filter0_d_1_185866" x="0" y="0" width="242" height="200" filterUnits="userSpaceOnUse" color-interpolation-filters="sRGB">
<feFlood flood-opacity="0" result="BackgroundImageFix"/>
<feColorMatrix in="SourceAlpha" type="matrix" values="0 0 0 0 0 0 0 0 0 0 0 0 0 0 0 0 0 0 127 0" result="hardAlpha"/>
<feOffset dx="2" dy="2"/>
<feGaussianBlur stdDeviation="5"/>
<feComposite in2="hardAlpha" operator="out"/>
<feColorMatrix type="matrix" values="0 0 0 0 0 0 0 0 0 0 0 0 0 0 0 0 0 0 0.25 0"/>
<feBlend mode="normal" in2="BackgroundImageFix" result="effect1_dropShadow_1_185866"/>
<feBlend mode="normal" in="SourceGraphic" in2="effect1_dropShadow_1_185866" result="shape"/>
</filter>
<filter id="filter1_d_1_185866" x="240" y="0" width="242" height="200" filterUnits="userSpaceOnUse" color-interpolation-filters="sRGB">
<feFlood flood-opacity="0" result="BackgroundImageFix"/>
<feColorMatrix in="SourceAlpha" type="matrix" values="0 0 0 0 0 0 0 0 0 0 0 0 0 0 0 0 0 0 127 0" result="hardAlpha"/>
<feOffset dx="2" dy="2"/>
<feGaussianBlur stdDeviation="5"/>
<feComposite in2="hardAlpha" operator="out"/>
<feColorMatrix type="matrix" values="0 0 0 0 0 0 0 0 0 0 0 0 0 0 0 0 0 0 0.25 0"/>
<feBlend mode="normal" in2="BackgroundImageFix" result="effect1_dropShadow_1_185866"/>
<feBlend mode="normal" in="SourceGraphic" in2="effect1_dropShadow_1_185866" result="shape"/>
</filter>
<filter id="filter2_d_1_185866" x="55" y="36" width="16" height="16" filterUnits="userSpaceOnUse" color-interpolation-filters="sRGB">
<feFlood flood-opacity="0" result="BackgroundImageFix"/>
<feColorMatrix in="SourceAlpha" type="matrix" values="0 0 0 0 0 0 0 0 0 0 0 0 0 0 0 0 0 0 127 0" result="hardAlpha"/>
<feOffset dy="2"/>
<feGaussianBlur stdDeviation="2"/>
<feColorMatrix type="matrix" values="0 0 0 0 0 0 0 0 0 0 0 0 0 0 0 0 0 0 0.45 0"/>
<feBlend mode="normal" in2="BackgroundImageFix" result="effect1_dropShadow_1_185866"/>
<feBlend mode="normal" in="SourceGraphic" in2="effect1_dropShadow_1_185866" result="shape"/>
</filter>
<filter id="filter3_d_1_185866" x="55" y="147" width="16" height="16" filterUnits="userSpaceOnUse" color-interpolation-filters="sRGB">
<feFlood flood-opacity="0" result="BackgroundImageFix"/>
<feColorMatrix in="SourceAlpha" type="matrix" values="0 0 0 0 0 0 0 0 0 0 0 0 0 0 0 0 0 0 127 0" result="hardAlpha"/>
<feOffset dy="2"/>
<feGaussianBlur stdDeviation="2"/>
<feColorMatrix type="matrix" values="0 0 0 0 0 0 0 0 0 0 0 0 0 0 0 0 0 0 0.45 0"/>
<feBlend mode="normal" in2="BackgroundImageFix" result="effect1_dropShadow_1_185866"/>
<feBlend mode="normal" in="SourceGraphic" in2="effect1_dropShadow_1_185866" result="shape"/>
</filter>
<filter id="filter4_d_1_185866" x="166" y="36" width="16" height="16" filterUnits="userSpaceOnUse" color-interpolation-filters="sRGB">
<feFlood flood-opacity="0" result="BackgroundImageFix"/>
<feColorMatrix in="SourceAlpha" type="matrix" values="0 0 0 0 0 0 0 0 0 0 0 0 0 0 0 0 0 0 127 0" result="hardAlpha"/>
<feOffset dy="2"/>
<feGaussianBlur stdDeviation="2"/>
<feColorMatrix type="matrix" values="0 0 0 0 0 0 0 0 0 0 0 0 0 0 0 0 0 0 0.45 0"/>
<feBlend mode="normal" in2="BackgroundImageFix" result="effect1_dropShadow_1_185866"/>
<feBlend mode="normal" in="SourceGraphic" in2="effect1_dropShadow_1_185866" result="shape"/>
</filter>
<filter id="filter5_d_1_185866" x="166" y="147" width="16" height="16" filterUnits="userSpaceOnUse" color-interpolation-filters="sRGB">
<feFlood flood-opacity="0" result="BackgroundImageFix"/>
<feColorMatrix in="SourceAlpha" type="matrix" values="0 0 0 0 0 0 0 0 0 0 0 0 0 0 0 0 0 0 127 0" result="hardAlpha"/>
<feOffset dy="2"/>
<feGaussianBlur stdDeviation="2"/>
<feColorMatrix type="matrix" values="0 0 0 0 0 0 0 0 0 0 0 0 0 0 0 0 0 0 0.45 0"/>
<feBlend mode="normal" in2="BackgroundImageFix" result="effect1_dropShadow_1_185866"/>
<feBlend mode="normal" in="SourceGraphic" in2="effect1_dropShadow_1_185866" result="shape"/>
</filter>
<filter id="filter6_d_1_185866" x="249" y="52" width="16" height="16" filterUnits="userSpaceOnUse" color-interpolation-filters="sRGB">
<feFlood flood-opacity="0" result="BackgroundImageFix"/>
<feColorMatrix in="SourceAlpha" type="matrix" values="0 0 0 0 0 0 0 0 0 0 0 0 0 0 0 0 0 0 127 0" result="hardAlpha"/>
<feOffset dy="2"/>
<feGaussianBlur stdDeviation="2"/>
<feColorMatrix type="matrix" values="0 0 0 0 0 0 0 0 0 0 0 0 0 0 0 0 0 0 0.45 0"/>
<feBlend mode="normal" in2="BackgroundImageFix" result="effect1_dropShadow_1_185866"/>
<feBlend mode="normal" in="SourceGraphic" in2="effect1_dropShadow_1_185866" result="shape"/>
</filter>
<filter id="filter7_d_1_185866" x="249" y="189" width="16" height="16" filterUnits="userSpaceOnUse" color-interpolation-filters="sRGB">
<feFlood flood-opacity="0" result="BackgroundImageFix"/>
<feColorMatrix in="SourceAlpha" type="matrix" values="0 0 0 0 0 0 0 0 0 0 0 0 0 0 0 0 0 0 127 0" result="hardAlpha"/>
<feOffset dy="2"/>
<feGaussianBlur stdDeviation="2"/>
<feColorMatrix type="matrix" values="0 0 0 0 0 0 0 0 0 0 0 0 0 0 0 0 0 0 0.45 0"/>
<feBlend mode="normal" in2="BackgroundImageFix" result="effect1_dropShadow_1_185866"/>
<feBlend mode="normal" in="SourceGraphic" in2="effect1_dropShadow_1_185866" result="shape"/>
</filter>
<filter id="filter8_d_1_185866" x="385" y="52" width="16" height="16" filterUnits="userSpaceOnUse" color-interpolation-filters="sRGB">
<feFlood flood-opacity="0" result="BackgroundImageFix"/>
<feColorMatrix in="SourceAlpha" type="matrix" values="0 0 0 0 0 0 0 0 0 0 0 0 0 0 0 0 0 0 127 0" result="hardAlpha"/>
<feOffset dy="2"/>
<feGaussianBlur stdDeviation="2"/>
<feColorMatrix type="matrix" values="0 0 0 0 0 0 0 0 0 0 0 0 0 0 0 0 0 0 0.45 0"/>
<feBlend mode="normal" in2="BackgroundImageFix" result="effect1_dropShadow_1_185866"/>
<feBlend mode="normal" in="SourceGraphic" in2="effect1_dropShadow_1_185866" result="shape"/>
</filter>
<filter id="filter9_d_1_185866" x="385" y="189" width="16" height="16" filterUnits="userSpaceOnUse" color-interpolation-filters="sRGB">
<feFlood flood-opacity="0" result="BackgroundImageFix"/>
<feColorMatrix in="SourceAlpha" type="matrix" values="0 0 0 0 0 0 0 0 0 0 0 0 0 0 0 0 0 0 127 0" result="hardAlpha"/>
<feOffset dy="2"/>
<feGaussianBlur stdDeviation="2"/>
<feColorMatrix type="matrix" values="0 0 0 0 0 0 0 0 0 0 0 0 0 0 0 0 0 0 0.45 0"/>
<feBlend mode="normal" in2="BackgroundImageFix" result="effect1_dropShadow_1_185866"/>
<feBlend mode="normal" in="SourceGraphic" in2="effect1_dropShadow_1_185866" result="shape"/>
</filter>
</defs>
</svg>
