<svg width="169" height="162" viewBox="0 0 169 162" fill="none" xmlns="http://www.w3.org/2000/svg">
<path d="M84.4999 17L100.777 67.0963H153.452L110.837 98.0575L127.114 148.154L84.4999 117.193L41.8855 148.154L58.1628 98.0575L15.5483 67.0963H68.2227L84.4999 17Z" fill="#FAE15F" stroke="#FF7CD2" stroke-width="10"/>
<path d="M84.4999 17L100.777 67.0963H153.452L110.837 98.0575L127.114 148.154L84.4999 117.193L41.8855 148.154L58.1628 98.0575L15.5483 67.0963H68.2227L84.4999 17Z" stroke="#1C6EE8"/>
<circle cx="15" cy="67" r="4.5" fill="white" stroke="#1C6EE8"/>
<circle cx="153" cy="67" r="4.5" fill="white" stroke="#1C6EE8"/>
<circle cx="84" cy="17" r="4.5" fill="white" stroke="#1C6EE8"/>
<circle cx="42" cy="148" r="4.5" fill="white" stroke="#1C6EE8"/>
<circle cx="84" cy="118" r="4.5" fill="white" stroke="#1C6EE8"/>
<circle cx="109" cy="99" r="4.5" fill="white" stroke="#1C6EE8"/>
<circle cx="58" cy="99" r="4.5" fill="white" stroke="#1C6EE8"/>
<circle cx="68" cy="67" r="4.5" fill="white" stroke="#1C6EE8"/>
<circle cx="100" cy="67" r="4.5" fill="white" stroke="#1C6EE8"/>
<circle cx="127" cy="148" r="4.5" fill="white" stroke="#1C6EE8"/>
</svg>
