<svg width="158" height="148" viewBox="0 0 158 148" fill="none" xmlns="http://www.w3.org/2000/svg">
<path d="M77.4999 8L113.777 78.0963L146.452 58.0963L123.837 109.057L120.114 139.154L97.4999 128.193L34.8855 139.154L71.1628 109.057L8.54834 58.0963L81.2227 78.0963L77.4999 8Z" fill="#FAE15F" stroke="#FF7CD2" stroke-width="10"/>
<path d="M77.4999 8L113.777 78.0963L146.452 58.0963L123.837 109.057L120.114 139.154L97.4999 128.193L34.8855 139.154L71.1628 109.057L8.54834 58.0963L81.2227 78.0963L77.4999 8Z" stroke="#1C6EE8"/>
<circle cx="8" cy="58" r="4.5" fill="white" stroke="#1C6EE8"/>
<circle cx="146" cy="58" r="4.5" fill="white" stroke="#1C6EE8"/>
<circle cx="77" cy="8" r="4.5" fill="white" stroke="#1C6EE8"/>
<circle cx="35" cy="139" r="4.5" fill="white" stroke="#1C6EE8"/>
<circle cx="97" cy="129" r="4.5" fill="white" stroke="#1C6EE8"/>
<circle cx="122" cy="110" r="4.5" fill="white" stroke="#1C6EE8"/>
<circle cx="71" cy="110" r="4.5" fill="white" stroke="#1C6EE8"/>
<circle cx="81" cy="78" r="4.5" fill="white" stroke="#1C6EE8"/>
<circle cx="113" cy="78" r="4.5" fill="white" stroke="#1C6EE8"/>
<circle cx="120" cy="139" r="4.5" fill="white" stroke="#1C6EE8"/>
</svg>
