<svg width="1150" height="329" viewBox="0 0 1150 329" fill="none" xmlns="http://www.w3.org/2000/svg">
<rect x="1" y="54" width="230" height="221" fill="white"/>
<rect x="1" y="54" width="230" height="221" stroke="#4B4B4B"/>
<rect x="231" y="54" width="230" height="221" fill="white"/>
<rect x="231" y="54" width="230" height="221" stroke="#4B4B4B"/>
<rect x="461" y="54" width="230" height="221" fill="white"/>
<rect x="461" y="54" width="230" height="221" stroke="#4B4B4B"/>
<rect x="691" y="54" width="230" height="221" fill="white"/>
<rect x="691" y="54" width="230" height="221" stroke="#4B4B4B"/>
<rect x="919" y="54" width="230" height="221" fill="white"/>
<rect x="919" y="54" width="230" height="221" stroke="#4B4B4B"/>
<rect x="1" y="1" width="230" height="53" fill="white"/>
<rect x="1" y="1" width="230" height="53" stroke="#45454F"/>
<path d="M18.0909 33H14.1477V21.3636H18.1705C19.3258 21.3636 20.3182 21.5966 21.1477 22.0625C21.9811 22.5246 22.6212 23.1894 23.0682 24.0568C23.5152 24.9242 23.7386 25.9621 23.7386 27.1705C23.7386 28.3826 23.5133 29.4242 23.0625 30.2955C22.6155 31.1667 21.9697 31.8352 21.125 32.3011C20.2841 32.767 19.2727 33 18.0909 33ZM16.2557 31.1761H17.9886C18.7992 31.1761 19.4754 31.0284 20.017 30.733C20.5587 30.4337 20.9659 29.9886 21.2386 29.3977C21.5114 28.803 21.6477 28.0606 21.6477 27.1705C21.6477 26.2803 21.5114 25.5417 21.2386 24.9545C20.9659 24.3636 20.5625 23.9223 20.0284 23.6307C19.4981 23.3352 18.839 23.1875 18.0511 23.1875H16.2557V31.1761ZM29.4342 33.1705C28.5592 33.1705 27.8035 32.9886 27.1672 32.625C26.5346 32.2576 26.0478 31.7386 25.7069 31.0682C25.366 30.3939 25.1956 29.6004 25.1956 28.6875C25.1956 27.7898 25.366 27.0019 25.7069 26.3239C26.0516 25.642 26.5327 25.1117 27.1501 24.733C27.7675 24.3504 28.4929 24.1591 29.3263 24.1591C29.8641 24.1591 30.3717 24.2462 30.849 24.4205C31.33 24.5909 31.7543 24.8561 32.1217 25.2159C32.4929 25.5758 32.7846 26.0341 32.9967 26.5909C33.2088 27.1439 33.3149 27.803 33.3149 28.5682V29.1989H26.1615V27.8125H31.3433C31.3395 27.4186 31.2543 27.0682 31.0876 26.7614C30.9209 26.4508 30.688 26.2064 30.3888 26.0284C30.0933 25.8504 29.7486 25.7614 29.3547 25.7614C28.9342 25.7614 28.5649 25.8636 28.2467 26.0682C27.9285 26.2689 27.6804 26.5341 27.5024 26.8636C27.3281 27.1894 27.2391 27.5473 27.2353 27.9375V29.1477C27.2353 29.6553 27.3281 30.0909 27.5138 30.4545C27.6994 30.8144 27.9588 31.0909 28.2922 31.2841C28.6255 31.4735 29.0156 31.5682 29.4626 31.5682C29.7619 31.5682 30.0327 31.5265 30.2751 31.4432C30.5175 31.3561 30.7278 31.2292 30.9058 31.0625C31.0838 30.8958 31.2183 30.6894 31.3092 30.4432L33.2297 30.6591C33.1084 31.1667 32.8774 31.6098 32.5365 31.9886C32.1994 32.3636 31.7675 32.6553 31.241 32.8636C30.7145 33.0682 30.1122 33.1705 29.4342 33.1705ZM41.8727 26.5795L39.9977 26.7841C39.9446 26.5947 39.8518 26.4167 39.7193 26.25C39.5905 26.0833 39.4162 25.9489 39.1965 25.8466C38.9768 25.7443 38.7079 25.6932 38.3897 25.6932C37.9617 25.6932 37.6018 25.786 37.3102 25.9716C37.0223 26.1572 36.8802 26.3977 36.884 26.6932C36.8802 26.947 36.973 27.1534 37.1624 27.3125C37.3556 27.4716 37.6738 27.6023 38.117 27.7045L39.6056 28.0227C40.4314 28.2008 41.045 28.483 41.4465 28.8693C41.8518 29.2557 42.0564 29.7614 42.0602 30.3864C42.0564 30.9356 41.8954 31.4205 41.5772 31.8409C41.2628 32.2576 40.8253 32.5833 40.2647 32.8182C39.7041 33.053 39.0602 33.1705 38.3329 33.1705C37.2647 33.1705 36.4049 32.947 35.7534 32.5C35.1018 32.0492 34.7136 31.4223 34.5886 30.6193L36.5943 30.4261C36.6852 30.8201 36.8784 31.1174 37.1738 31.3182C37.4693 31.5189 37.8537 31.6193 38.3272 31.6193C38.8159 31.6193 39.2079 31.5189 39.5034 31.3182C39.8026 31.1174 39.9522 30.8693 39.9522 30.5739C39.9522 30.3239 39.8556 30.1174 39.6624 29.9545C39.473 29.7917 39.1776 29.6667 38.7761 29.5795L37.2874 29.267C36.4503 29.0928 35.831 28.7992 35.4295 28.3864C35.028 27.9697 34.8291 27.4432 34.8329 26.8068C34.8291 26.2689 34.9749 25.803 35.2704 25.4091C35.5696 25.0114 35.9844 24.7045 36.5147 24.4886C37.0488 24.2689 37.6643 24.1591 38.3613 24.1591C39.384 24.1591 40.189 24.3769 40.7761 24.8125C41.367 25.2481 41.7325 25.8371 41.8727 26.5795ZM43.6762 33V24.2727H45.733V33H43.6762ZM44.7103 23.0341C44.3845 23.0341 44.1042 22.9261 43.8694 22.7102C43.6345 22.4905 43.5171 22.2273 43.5171 21.9205C43.5171 21.6098 43.6345 21.3466 43.8694 21.1307C44.1042 20.911 44.3845 20.8011 44.7103 20.8011C45.0398 20.8011 45.3201 20.911 45.5512 21.1307C45.786 21.3466 45.9035 21.6098 45.9035 21.9205C45.9035 22.2273 45.786 22.4905 45.5512 22.7102C45.3201 22.9261 45.0398 23.0341 44.7103 23.0341ZM51.5635 36.4545C50.8249 36.4545 50.1904 36.3542 49.6601 36.1534C49.1298 35.9564 48.7037 35.6913 48.3817 35.358C48.0597 35.0246 47.8363 34.6553 47.7113 34.25L49.5635 33.8011C49.6469 33.9716 49.7681 34.1402 49.9272 34.3068C50.0863 34.4773 50.3003 34.6174 50.5692 34.7273C50.8419 34.8409 51.1847 34.8977 51.5976 34.8977C52.1809 34.8977 52.6639 34.7557 53.0465 34.4716C53.4291 34.1913 53.6203 33.7292 53.6203 33.0852V31.4318H53.5181C53.412 31.6439 53.2567 31.8617 53.0522 32.0852C52.8514 32.3087 52.5844 32.4962 52.251 32.6477C51.9215 32.7992 51.5067 32.875 51.0067 32.875C50.3363 32.875 49.7283 32.7178 49.1828 32.4034C48.6412 32.0852 48.2094 31.6117 47.8874 30.983C47.5692 30.3504 47.4101 29.5587 47.4101 28.608C47.4101 27.6496 47.5692 26.8409 47.8874 26.1818C48.2094 25.5189 48.6431 25.017 49.1885 24.6761C49.734 24.3314 50.3419 24.1591 51.0124 24.1591C51.5238 24.1591 51.9442 24.2462 52.2738 24.4205C52.6071 24.5909 52.8722 24.7973 53.0692 25.0398C53.2662 25.2784 53.4158 25.5038 53.5181 25.7159H53.6317V24.2727H55.6601V33.142C55.6601 33.8883 55.4821 34.5057 55.126 34.9943C54.77 35.483 54.2832 35.8485 53.6658 36.0909C53.0484 36.3333 52.3476 36.4545 51.5635 36.4545ZM51.5806 31.2614C52.0162 31.2614 52.3874 31.1553 52.6942 30.9432C53.001 30.7311 53.234 30.4261 53.3931 30.0284C53.5522 29.6307 53.6317 29.1534 53.6317 28.5966C53.6317 28.0473 53.5522 27.5663 53.3931 27.1534C53.2378 26.7405 53.0067 26.4205 52.6999 26.1932C52.3969 25.9621 52.0238 25.8466 51.5806 25.8466C51.1222 25.8466 50.7397 25.9659 50.4328 26.2045C50.126 26.4432 49.895 26.7708 49.7397 27.1875C49.5844 27.6004 49.5067 28.0701 49.5067 28.5966C49.5067 29.1307 49.5844 29.5985 49.7397 30C49.8988 30.3977 50.1317 30.7083 50.4385 30.9318C50.7491 31.1515 51.1298 31.2614 51.5806 31.2614ZM59.7449 27.8864V33H57.6881V24.2727H59.654V25.7557H59.7562C59.957 25.267 60.2771 24.8788 60.7165 24.5909C61.1597 24.303 61.707 24.1591 62.3585 24.1591C62.9608 24.1591 63.4854 24.2879 63.9324 24.5455C64.3831 24.803 64.7316 25.1761 64.9778 25.6648C65.2278 26.1534 65.3509 26.7462 65.3472 27.4432V33H63.2903V27.7614C63.2903 27.178 63.1388 26.7216 62.8358 26.392C62.5366 26.0625 62.1218 25.8977 61.5915 25.8977C61.2316 25.8977 60.9116 25.9773 60.6312 26.1364C60.3547 26.2917 60.1369 26.517 59.9778 26.8125C59.8225 27.108 59.7449 27.4659 59.7449 27.8864ZM71.3377 21.3636H73.9173L77.3718 29.7955H77.5082L80.9627 21.3636H83.5423V33H81.5195V25.0057H81.4116L78.1957 32.9659H76.6843L73.4684 24.9886H73.3605V33H71.3377V21.3636ZM89.4736 33.1705C88.6214 33.1705 87.8827 32.983 87.2577 32.608C86.6327 32.233 86.1479 31.7083 85.8032 31.0341C85.4623 30.3598 85.2918 29.572 85.2918 28.6705C85.2918 27.7689 85.4623 26.9792 85.8032 26.3011C86.1479 25.6231 86.6327 25.0966 87.2577 24.7216C87.8827 24.3466 88.6214 24.1591 89.4736 24.1591C90.3259 24.1591 91.0645 24.3466 91.6895 24.7216C92.3145 25.0966 92.7975 25.6231 93.1384 26.3011C93.4831 26.9792 93.6555 27.7689 93.6555 28.6705C93.6555 29.572 93.4831 30.3598 93.1384 31.0341C92.7975 31.7083 92.3145 32.233 91.6895 32.608C91.0645 32.983 90.3259 33.1705 89.4736 33.1705ZM89.485 31.5227C89.9471 31.5227 90.3335 31.3958 90.6441 31.142C90.9547 30.8845 91.1858 30.5398 91.3373 30.108C91.4926 29.6761 91.5702 29.1951 91.5702 28.6648C91.5702 28.1307 91.4926 27.6477 91.3373 27.2159C91.1858 26.7803 90.9547 26.4337 90.6441 26.1761C90.3335 25.9186 89.9471 25.7898 89.485 25.7898C89.0115 25.7898 88.6176 25.9186 88.3032 26.1761C87.9926 26.4337 87.7596 26.7803 87.6043 27.2159C87.4528 27.6477 87.377 28.1307 87.377 28.6648C87.377 29.1951 87.4528 29.6761 87.6043 30.108C87.7596 30.5398 87.9926 30.8845 88.3032 31.142C88.6176 31.3958 89.0115 31.5227 89.485 31.5227ZM98.5598 33.1534C97.8742 33.1534 97.2606 32.9773 96.7189 32.625C96.1773 32.2727 95.7492 31.7614 95.4348 31.0909C95.1204 30.4205 94.9632 29.6061 94.9632 28.6477C94.9632 27.678 95.1223 26.8598 95.4405 26.1932C95.7625 25.5227 96.1962 25.017 96.7416 24.6761C97.2871 24.3314 97.8951 24.1591 98.5655 24.1591C99.0769 24.1591 99.4973 24.2462 99.8269 24.4205C100.156 24.5909 100.418 24.7973 100.611 25.0398C100.804 25.2784 100.954 25.5038 101.06 25.7159H101.145V21.3636H103.208V33H101.185V31.625H101.06C100.954 31.8371 100.8 32.0625 100.6 32.3011C100.399 32.536 100.134 32.7367 99.8041 32.9034C99.4746 33.0701 99.0598 33.1534 98.5598 33.1534ZM99.1337 31.4659C99.5693 31.4659 99.9405 31.3485 100.247 31.1136C100.554 30.875 100.787 30.5436 100.946 30.1193C101.105 29.6951 101.185 29.2008 101.185 28.6364C101.185 28.072 101.105 27.5814 100.946 27.1648C100.791 26.7481 100.56 26.4242 100.253 26.1932C99.95 25.9621 99.5769 25.8466 99.1337 25.8466C98.6754 25.8466 98.2928 25.9659 97.986 26.2045C97.6791 26.4432 97.4481 26.7727 97.2928 27.1932C97.1375 27.6136 97.0598 28.0947 97.0598 28.6364C97.0598 29.1818 97.1375 29.6686 97.2928 30.0966C97.4519 30.5208 97.6848 30.8561 97.9916 31.1023C98.3023 31.3447 98.6829 31.4659 99.1337 31.4659ZM109.183 33.1705C108.308 33.1705 107.552 32.9886 106.916 32.625C106.283 32.2576 105.797 31.7386 105.456 31.0682C105.115 30.3939 104.944 29.6004 104.944 28.6875C104.944 27.7898 105.115 27.0019 105.456 26.3239C105.8 25.642 106.281 25.1117 106.899 24.733C107.516 24.3504 108.242 24.1591 109.075 24.1591C109.613 24.1591 110.12 24.2462 110.598 24.4205C111.079 24.5909 111.503 24.8561 111.87 25.2159C112.242 25.5758 112.533 26.0341 112.745 26.5909C112.958 27.1439 113.064 27.803 113.064 28.5682V29.1989H105.91V27.8125H111.092C111.088 27.4186 111.003 27.0682 110.836 26.7614C110.67 26.4508 110.437 26.2064 110.137 26.0284C109.842 25.8504 109.497 25.7614 109.103 25.7614C108.683 25.7614 108.314 25.8636 107.995 26.0682C107.677 26.2689 107.429 26.5341 107.251 26.8636C107.077 27.1894 106.988 27.5473 106.984 27.9375V29.1477C106.984 29.6553 107.077 30.0909 107.262 30.4545C107.448 30.8144 107.708 31.0909 108.041 31.2841C108.374 31.4735 108.764 31.5682 109.211 31.5682C109.511 31.5682 109.781 31.5265 110.024 31.4432C110.266 31.3561 110.477 31.2292 110.655 31.0625C110.833 30.8958 110.967 30.6894 111.058 30.4432L112.978 30.6591C112.857 31.1667 112.626 31.6098 112.285 31.9886C111.948 32.3636 111.516 32.6553 110.99 32.8636C110.463 33.0682 109.861 33.1705 109.183 33.1705Z" fill="black"/>
<rect x="691" y="275" width="230" height="53" fill="white"/>
<rect x="691" y="275" width="230" height="53" stroke="#45454F"/>
<path d="M719.102 301.182L711.511 308.818L703.83 301.182L711.511 293.545L719.102 301.182ZM724.878 307V295.364H729.242C730.136 295.364 730.886 295.53 731.492 295.864C732.102 296.197 732.562 296.655 732.873 297.239C733.187 297.818 733.344 298.477 733.344 299.216C733.344 299.962 733.187 300.625 732.873 301.205C732.558 301.784 732.094 302.241 731.481 302.574C730.867 302.903 730.111 303.068 729.214 303.068H726.322V301.335H728.929C729.452 301.335 729.88 301.244 730.214 301.062C730.547 300.881 730.793 300.631 730.952 300.312C731.115 299.994 731.197 299.629 731.197 299.216C731.197 298.803 731.115 298.439 730.952 298.125C730.793 297.811 730.545 297.566 730.208 297.392C729.875 297.214 729.445 297.125 728.918 297.125H726.986V307H724.878ZM737.359 307.176C736.806 307.176 736.308 307.078 735.865 306.881C735.426 306.68 735.077 306.384 734.82 305.994C734.566 305.604 734.439 305.123 734.439 304.551C734.439 304.059 734.53 303.652 734.712 303.33C734.894 303.008 735.142 302.75 735.456 302.557C735.77 302.364 736.125 302.218 736.519 302.119C736.916 302.017 737.327 301.943 737.751 301.898C738.263 301.845 738.678 301.797 738.996 301.756C739.314 301.71 739.545 301.642 739.689 301.551C739.837 301.456 739.911 301.311 739.911 301.114V301.08C739.911 300.652 739.784 300.32 739.53 300.085C739.276 299.85 738.911 299.733 738.433 299.733C737.93 299.733 737.53 299.843 737.234 300.062C736.943 300.282 736.746 300.542 736.644 300.841L734.723 300.568C734.875 300.038 735.125 299.595 735.473 299.239C735.822 298.879 736.248 298.61 736.751 298.432C737.255 298.25 737.812 298.159 738.422 298.159C738.842 298.159 739.261 298.208 739.678 298.307C740.094 298.405 740.475 298.568 740.82 298.795C741.164 299.019 741.441 299.324 741.649 299.71C741.861 300.097 741.967 300.58 741.967 301.159V307H739.99V305.801H739.922C739.797 306.044 739.621 306.271 739.394 306.483C739.17 306.691 738.888 306.86 738.547 306.989C738.21 307.114 737.814 307.176 737.359 307.176ZM737.894 305.665C738.306 305.665 738.664 305.583 738.967 305.42C739.27 305.254 739.503 305.034 739.666 304.761C739.833 304.489 739.916 304.191 739.916 303.869V302.841C739.852 302.894 739.742 302.943 739.587 302.989C739.435 303.034 739.265 303.074 739.075 303.108C738.886 303.142 738.698 303.172 738.513 303.199C738.327 303.225 738.166 303.248 738.03 303.267C737.723 303.309 737.448 303.377 737.206 303.472C736.964 303.566 736.772 303.699 736.632 303.869C736.492 304.036 736.422 304.252 736.422 304.517C736.422 304.896 736.56 305.182 736.837 305.375C737.113 305.568 737.465 305.665 737.894 305.665ZM748.314 298.273V299.864H743.296V298.273H748.314ZM744.535 296.182H746.592V304.375C746.592 304.652 746.634 304.864 746.717 305.011C746.804 305.155 746.918 305.254 747.058 305.307C747.198 305.36 747.353 305.386 747.524 305.386C747.653 305.386 747.77 305.377 747.876 305.358C747.986 305.339 748.069 305.322 748.126 305.307L748.473 306.915C748.363 306.953 748.206 306.994 748.001 307.04C747.8 307.085 747.554 307.112 747.262 307.119C746.747 307.134 746.283 307.057 745.87 306.886C745.457 306.712 745.13 306.443 744.887 306.08C744.649 305.716 744.531 305.261 744.535 304.716V296.182ZM752.198 301.886V307H750.141V295.364H752.153V299.756H752.255C752.459 299.263 752.776 298.875 753.204 298.591C753.636 298.303 754.185 298.159 754.851 298.159C755.457 298.159 755.986 298.286 756.437 298.54C756.887 298.794 757.236 299.165 757.482 299.653C757.732 300.142 757.857 300.739 757.857 301.443V307H755.8V301.761C755.8 301.174 755.649 300.718 755.346 300.392C755.046 300.062 754.626 299.898 754.084 299.898C753.721 299.898 753.395 299.977 753.107 300.136C752.823 300.292 752.6 300.517 752.437 300.812C752.278 301.108 752.198 301.466 752.198 301.886ZM770.177 298.562C770.124 298.066 769.901 297.68 769.507 297.403C769.117 297.127 768.609 296.989 767.984 296.989C767.545 296.989 767.168 297.055 766.853 297.188C766.539 297.32 766.298 297.5 766.132 297.727C765.965 297.955 765.88 298.214 765.876 298.506C765.876 298.748 765.931 298.958 766.041 299.136C766.154 299.314 766.308 299.466 766.501 299.591C766.694 299.712 766.908 299.814 767.143 299.898C767.378 299.981 767.615 300.051 767.853 300.108L768.944 300.381C769.384 300.483 769.806 300.621 770.211 300.795C770.62 300.97 770.986 301.189 771.308 301.455C771.634 301.72 771.891 302.04 772.081 302.415C772.27 302.79 772.365 303.229 772.365 303.733C772.365 304.415 772.19 305.015 771.842 305.534C771.494 306.049 770.99 306.453 770.331 306.744C769.675 307.032 768.882 307.176 767.95 307.176C767.045 307.176 766.259 307.036 765.592 306.756C764.929 306.475 764.41 306.066 764.035 305.528C763.664 304.991 763.463 304.335 763.433 303.562H765.507C765.537 303.968 765.662 304.305 765.882 304.574C766.101 304.843 766.387 305.044 766.74 305.176C767.096 305.309 767.494 305.375 767.933 305.375C768.391 305.375 768.793 305.307 769.137 305.17C769.486 305.03 769.759 304.837 769.956 304.591C770.153 304.341 770.253 304.049 770.257 303.716C770.253 303.413 770.164 303.163 769.99 302.966C769.815 302.765 769.571 302.598 769.257 302.466C768.946 302.33 768.583 302.208 768.166 302.102L766.842 301.761C765.884 301.515 765.126 301.142 764.569 300.642C764.016 300.138 763.74 299.47 763.74 298.636C763.74 297.951 763.925 297.35 764.297 296.835C764.672 296.32 765.181 295.92 765.825 295.636C766.469 295.348 767.198 295.205 768.012 295.205C768.838 295.205 769.562 295.348 770.183 295.636C770.808 295.92 771.298 296.316 771.654 296.824C772.011 297.328 772.194 297.907 772.206 298.562H770.177ZM776.13 301.886V307H774.073V295.364H776.084V299.756H776.187C776.391 299.263 776.708 298.875 777.136 298.591C777.567 298.303 778.117 298.159 778.783 298.159C779.389 298.159 779.918 298.286 780.369 298.54C780.819 298.794 781.168 299.165 781.414 299.653C781.664 300.142 781.789 300.739 781.789 301.443V307H779.732V301.761C779.732 301.174 779.581 300.718 779.278 300.392C778.978 300.062 778.558 299.898 778.016 299.898C777.653 299.898 777.327 299.977 777.039 300.136C776.755 300.292 776.531 300.517 776.369 300.812C776.209 301.108 776.13 301.466 776.13 301.886ZM786.317 307.176C785.764 307.176 785.266 307.078 784.823 306.881C784.383 306.68 784.035 306.384 783.777 305.994C783.523 305.604 783.396 305.123 783.396 304.551C783.396 304.059 783.487 303.652 783.669 303.33C783.851 303.008 784.099 302.75 784.414 302.557C784.728 302.364 785.082 302.218 785.476 302.119C785.874 302.017 786.285 301.943 786.709 301.898C787.22 301.845 787.635 301.797 787.953 301.756C788.271 301.71 788.503 301.642 788.646 301.551C788.794 301.456 788.868 301.311 788.868 301.114V301.08C788.868 300.652 788.741 300.32 788.487 300.085C788.234 299.85 787.868 299.733 787.391 299.733C786.887 299.733 786.487 299.843 786.192 300.062C785.9 300.282 785.703 300.542 785.601 300.841L783.681 300.568C783.832 300.038 784.082 299.595 784.431 299.239C784.779 298.879 785.205 298.61 785.709 298.432C786.213 298.25 786.77 298.159 787.379 298.159C787.8 298.159 788.218 298.208 788.635 298.307C789.052 298.405 789.432 298.568 789.777 298.795C790.122 299.019 790.398 299.324 790.607 299.71C790.819 300.097 790.925 300.58 790.925 301.159V307H788.948V305.801H788.879C788.754 306.044 788.578 306.271 788.351 306.483C788.128 306.691 787.845 306.86 787.504 306.989C787.167 307.114 786.771 307.176 786.317 307.176ZM786.851 305.665C787.264 305.665 787.622 305.583 787.925 305.42C788.228 305.254 788.461 305.034 788.624 304.761C788.79 304.489 788.874 304.191 788.874 303.869V302.841C788.809 302.894 788.7 302.943 788.544 302.989C788.393 303.034 788.222 303.074 788.033 303.108C787.843 303.142 787.656 303.172 787.47 303.199C787.285 303.225 787.124 303.248 786.987 303.267C786.681 303.309 786.406 303.377 786.164 303.472C785.921 303.566 785.73 303.699 785.59 303.869C785.45 304.036 785.379 304.252 785.379 304.517C785.379 304.896 785.518 305.182 785.794 305.375C786.071 305.568 786.423 305.665 786.851 305.665ZM792.913 310.273V298.273H794.936V299.716H795.055C795.161 299.504 795.311 299.278 795.504 299.04C795.697 298.797 795.959 298.591 796.288 298.42C796.618 298.246 797.038 298.159 797.549 298.159C798.224 298.159 798.832 298.331 799.373 298.676C799.919 299.017 800.351 299.523 800.669 300.193C800.991 300.86 801.152 301.678 801.152 302.648C801.152 303.606 800.995 304.42 800.68 305.091C800.366 305.761 799.938 306.273 799.396 306.625C798.854 306.977 798.241 307.153 797.555 307.153C797.055 307.153 796.64 307.07 796.311 306.903C795.981 306.737 795.716 306.536 795.515 306.301C795.318 306.062 795.165 305.837 795.055 305.625H794.97V310.273H792.913ZM794.93 302.636C794.93 303.201 795.01 303.695 795.169 304.119C795.332 304.544 795.565 304.875 795.868 305.114C796.174 305.348 796.546 305.466 796.981 305.466C797.436 305.466 797.816 305.345 798.123 305.102C798.43 304.856 798.661 304.521 798.816 304.097C798.976 303.669 799.055 303.182 799.055 302.636C799.055 302.095 798.977 301.614 798.822 301.193C798.667 300.773 798.436 300.443 798.129 300.205C797.822 299.966 797.44 299.847 796.981 299.847C796.542 299.847 796.169 299.962 795.862 300.193C795.555 300.424 795.322 300.748 795.163 301.165C795.008 301.581 794.93 302.072 794.93 302.636ZM806.697 307.17C805.822 307.17 805.066 306.989 804.43 306.625C803.797 306.258 803.31 305.739 802.969 305.068C802.629 304.394 802.458 303.6 802.458 302.688C802.458 301.79 802.629 301.002 802.969 300.324C803.314 299.642 803.795 299.112 804.413 298.733C805.03 298.35 805.755 298.159 806.589 298.159C807.127 298.159 807.634 298.246 808.111 298.42C808.593 298.591 809.017 298.856 809.384 299.216C809.755 299.576 810.047 300.034 810.259 300.591C810.471 301.144 810.577 301.803 810.577 302.568V303.199H803.424V301.812H808.606C808.602 301.419 808.517 301.068 808.35 300.761C808.183 300.451 807.95 300.206 807.651 300.028C807.356 299.85 807.011 299.761 806.617 299.761C806.197 299.761 805.827 299.864 805.509 300.068C805.191 300.269 804.943 300.534 804.765 300.864C804.591 301.189 804.502 301.547 804.498 301.938V303.148C804.498 303.655 804.591 304.091 804.776 304.455C804.962 304.814 805.221 305.091 805.555 305.284C805.888 305.473 806.278 305.568 806.725 305.568C807.024 305.568 807.295 305.527 807.538 305.443C807.78 305.356 807.99 305.229 808.168 305.062C808.346 304.896 808.481 304.689 808.572 304.443L810.492 304.659C810.371 305.167 810.14 305.61 809.799 305.989C809.462 306.364 809.03 306.655 808.504 306.864C807.977 307.068 807.375 307.17 806.697 307.17Z" fill="black"/>
<rect x="919" y="275" width="230" height="53" fill="white"/>
<rect x="919" y="275" width="230" height="53" stroke="#45454F"/>
<path d="M937.347 301.307V303H932.108V301.307H937.347Z" fill="black"/>
<rect x="461" y="275" width="230" height="53" fill="white"/>
<rect x="461" y="275" width="230" height="53" stroke="#45454F"/>
<path d="M479.347 301.307V303H474.108V301.307H479.347Z" fill="black"/>
<rect x="231" y="275" width="230" height="53" fill="white"/>
<rect x="231" y="275" width="230" height="53" stroke="#45454F"/>
<path d="M249.347 301.307V303H244.108V301.307H249.347Z" fill="black"/>
<rect x="1" y="275" width="230" height="53" fill="white"/>
<rect x="1" y="275" width="230" height="53" stroke="#45454F"/>
<path d="M19.3466 301.307V303H14.108V301.307H19.3466Z" fill="black"/>
<rect x="461" y="1" width="230" height="53" fill="white"/>
<rect x="461" y="1" width="230" height="53" stroke="#45454F"/>
<path d="M473.636 23.1307V21.3636H482.92V23.1307H479.324V33H477.233V23.1307H473.636ZM489.25 21.3636V33H487.142V23.4148H487.073L484.352 25.1534V23.2216L487.244 21.3636H489.25Z" fill="black"/>
<rect x="231" y="1" width="230" height="53" fill="white"/>
<rect x="231" y="1" width="230" height="53" stroke="#45454F"/>
<path d="M243.636 23.1307V21.3636H252.92V23.1307H249.324V33H247.233V23.1307H243.636ZM258.818 33.2216C257.882 33.2216 257.079 32.9848 256.409 32.5114C255.742 32.0341 255.229 31.3466 254.869 30.4489C254.513 29.5473 254.335 28.4621 254.335 27.1932C254.339 25.9242 254.518 24.8447 254.875 23.9545C255.234 23.0606 255.748 22.3788 256.414 21.9091C257.085 21.4394 257.886 21.2045 258.818 21.2045C259.75 21.2045 260.551 21.4394 261.221 21.9091C261.892 22.3788 262.405 23.0606 262.761 23.9545C263.121 24.8485 263.301 25.928 263.301 27.1932C263.301 28.4659 263.121 29.553 262.761 30.4545C262.405 31.3523 261.892 32.0379 261.221 32.5114C260.554 32.9848 259.753 33.2216 258.818 33.2216ZM258.818 31.4432C259.545 31.4432 260.119 31.0852 260.539 30.3693C260.964 29.6496 261.176 28.5909 261.176 27.1932C261.176 26.2689 261.079 25.4924 260.886 24.8636C260.693 24.2348 260.42 23.7614 260.068 23.4432C259.715 23.1212 259.299 22.9602 258.818 22.9602C258.094 22.9602 257.522 23.3201 257.102 24.0398C256.681 24.7557 256.469 25.8068 256.465 27.1932C256.462 28.1212 256.554 28.9015 256.744 29.5341C256.937 30.1667 257.21 30.6439 257.562 30.9659C257.914 31.2841 258.333 31.4432 258.818 31.4432Z" fill="black"/>
<rect x="691" y="1" width="230" height="53" fill="white"/>
<rect x="691" y="1" width="230" height="53" stroke="#45454F"/>
<path d="M703.636 23.1307V21.3636H712.92V23.1307H709.324V33H707.233V23.1307H703.636ZM714.517 33V31.4773L718.556 27.517C718.943 27.1269 719.265 26.7803 719.522 26.4773C719.78 26.1742 719.973 25.8807 720.102 25.5966C720.231 25.3125 720.295 25.0095 720.295 24.6875C720.295 24.3201 720.212 24.0057 720.045 23.7443C719.878 23.4792 719.649 23.2746 719.358 23.1307C719.066 22.9867 718.734 22.9148 718.363 22.9148C717.981 22.9148 717.645 22.9943 717.358 23.1534C717.07 23.3087 716.846 23.5303 716.687 23.8182C716.532 24.1061 716.454 24.4489 716.454 24.8466H714.448C714.448 24.108 714.617 23.4659 714.954 22.9205C715.291 22.375 715.755 21.9527 716.346 21.6534C716.941 21.3542 717.623 21.2045 718.392 21.2045C719.172 21.2045 719.858 21.3504 720.448 21.642C721.039 21.9337 721.498 22.3333 721.823 22.8409C722.153 23.3485 722.318 23.928 722.318 24.5795C722.318 25.0152 722.234 25.4432 722.068 25.8636C721.901 26.2841 721.608 26.75 721.187 27.2614C720.77 27.7727 720.185 28.392 719.431 29.1193L717.426 31.1591V31.2386H722.494V33H714.517Z" fill="black"/>
<rect x="919" y="1" width="230" height="53" fill="white"/>
<rect x="919" y="1" width="230" height="53" stroke="#45454F"/>
<path d="M931.636 23.1307V21.3636H940.92V23.1307H937.324V33H935.233V23.1307H931.636ZM946.693 33.1591C945.875 33.1591 945.147 33.0189 944.511 32.7386C943.878 32.4583 943.378 32.0682 943.011 31.5682C942.643 31.0682 942.448 30.4905 942.426 29.8352H944.562C944.581 30.1496 944.685 30.4242 944.875 30.6591C945.064 30.8902 945.316 31.0701 945.63 31.1989C945.945 31.3277 946.297 31.392 946.687 31.392C947.104 31.392 947.473 31.3201 947.795 31.1761C948.117 31.0284 948.369 30.8239 948.551 30.5625C948.733 30.3011 948.822 30 948.818 29.6591C948.822 29.3068 948.731 28.9962 948.545 28.7273C948.359 28.4583 948.09 28.2481 947.738 28.0966C947.39 27.9451 946.969 27.8693 946.477 27.8693H945.448V26.2443H946.477C946.882 26.2443 947.236 26.1742 947.539 26.0341C947.846 25.8939 948.087 25.697 948.261 25.4432C948.435 25.1856 948.52 24.8883 948.517 24.5511C948.52 24.2216 948.447 23.9356 948.295 23.6932C948.147 23.447 947.937 23.2557 947.664 23.1193C947.395 22.983 947.079 22.9148 946.715 22.9148C946.359 22.9148 946.03 22.9792 945.727 23.108C945.424 23.2367 945.179 23.4205 944.994 23.6591C944.808 23.8939 944.71 24.1742 944.698 24.5H942.67C942.685 23.8485 942.873 23.2765 943.233 22.7841C943.596 22.2879 944.081 21.9015 944.687 21.625C945.293 21.3447 945.973 21.2045 946.727 21.2045C947.503 21.2045 948.178 21.3504 948.75 21.642C949.325 21.9299 949.77 22.3182 950.085 22.8068C950.399 23.2955 950.556 23.8352 950.556 24.4261C950.56 25.0814 950.367 25.6307 949.977 26.0739C949.59 26.517 949.083 26.8068 948.454 26.9432V27.0341C949.272 27.1477 949.899 27.4508 950.335 27.9432C950.774 28.4318 950.992 29.0398 950.988 29.767C950.988 30.4186 950.803 31.0019 950.431 31.517C950.064 32.0284 949.556 32.4299 948.909 32.7216C948.265 33.0133 947.526 33.1591 946.693 33.1591Z" fill="black"/>
<path d="M576.5 106L592.778 156.096H645.452L602.838 187.057L619.115 237.154L576.5 206.193L533.886 237.154L550.163 187.057L507.549 156.096H560.223L576.5 106Z" fill="#FAE15F" stroke="#FF7CD2" stroke-width="10"/>
<path d="M576.5 106L592.778 156.096H645.452L602.838 187.057L619.115 237.154L576.5 206.193L533.886 237.154L550.163 187.057L507.549 156.096H560.223L576.5 106Z" stroke="#1C6EE8"/>
<circle cx="507" cy="156" r="4.5" fill="white" stroke="#1C6EE8"/>
<circle cx="645" cy="156" r="4.5" fill="white" stroke="#1C6EE8"/>
<circle cx="576" cy="106" r="4.5" fill="white" stroke="#1C6EE8"/>
<circle cx="534" cy="237" r="4.5" fill="white" stroke="#1C6EE8"/>
<circle cx="576" cy="207" r="4.5" fill="white" stroke="#1C6EE8"/>
<circle cx="601" cy="188" r="4.5" fill="white" stroke="#1C6EE8"/>
<circle cx="550" cy="188" r="4.5" fill="white" stroke="#1C6EE8"/>
<circle cx="560" cy="156" r="4.5" fill="white" stroke="#1C6EE8"/>
<circle cx="592" cy="156" r="4.5" fill="white" stroke="#1C6EE8"/>
<circle cx="619" cy="237" r="4.5" fill="white" stroke="#1C6EE8"/>
<path d="M116.5 106L132.778 156.096H185.452L142.838 187.057L159.115 237.154L116.5 206.193L73.886 237.154L90.1633 187.057L47.5488 156.096H100.223L116.5 106Z" fill="#FAE15F" stroke="#FF7CD2" stroke-width="10"/>
<path d="M116.5 106L132.778 156.096H185.452L142.838 187.057L159.115 237.154L116.5 206.193L73.886 237.154L90.1633 187.057L47.5488 156.096H100.223L116.5 106Z" stroke="#1C6EE8"/>
<circle cx="47" cy="156" r="4.5" fill="white" stroke="#1C6EE8"/>
<circle cx="185" cy="156" r="4.5" fill="white" stroke="#1C6EE8"/>
<circle cx="116" cy="106" r="4.5" fill="white" stroke="#1C6EE8"/>
<circle cx="74" cy="237" r="4.5" fill="white" stroke="#1C6EE8"/>
<circle cx="116" cy="207" r="4.5" fill="white" stroke="#1C6EE8"/>
<circle cx="141" cy="188" r="4.5" fill="white" stroke="#1C6EE8"/>
<circle cx="90" cy="188" r="4.5" fill="white" stroke="#1C6EE8"/>
<circle cx="100" cy="156" r="4.5" fill="white" stroke="#1C6EE8"/>
<circle cx="132" cy="156" r="4.5" fill="white" stroke="#1C6EE8"/>
<circle cx="159" cy="237" r="4.5" fill="white" stroke="#1C6EE8"/>
<path d="M344.5 106L360.778 156.096H413.452L370.838 187.057L387.115 237.154L344.5 206.193L301.886 237.154L318.163 187.057L275.549 156.096H328.223L344.5 106Z" fill="#FAE15F" stroke="#FF7CD2" stroke-width="10"/>
<path d="M344.5 106L360.778 156.096H413.452L370.838 187.057L387.115 237.154L344.5 206.193L301.886 237.154L318.163 187.057L275.549 156.096H328.223L344.5 106Z" stroke="#1C6EE8"/>
<circle cx="275" cy="156" r="4.5" fill="white" stroke="#1C6EE8"/>
<circle cx="413" cy="156" r="4.5" fill="white" stroke="#1C6EE8"/>
<circle cx="344" cy="106" r="4.5" fill="white" stroke="#1C6EE8"/>
<circle cx="302" cy="237" r="4.5" fill="white" stroke="#1C6EE8"/>
<circle cx="344" cy="207" r="4.5" fill="white" stroke="#1C6EE8"/>
<circle cx="369" cy="188" r="4.5" fill="white" stroke="#1C6EE8"/>
<circle cx="318" cy="188" r="4.5" fill="white" stroke="#1C6EE8"/>
<circle cx="328" cy="156" r="4.5" fill="white" stroke="#1C6EE8"/>
<circle cx="360" cy="156" r="4.5" fill="white" stroke="#1C6EE8"/>
<circle cx="387" cy="237" r="4.5" fill="white" stroke="#1C6EE8"/>
<path d="M806.5 106L842.778 176.096L875.452 156.096L852.838 207.057L849.115 237.154L826.5 226.193L763.886 237.154L800.163 207.057L737.549 156.096L810.223 176.096L806.5 106Z" fill="#FAE15F" stroke="#FF7CD2" stroke-width="10"/>
<path d="M806.5 106L842.778 176.096L875.452 156.096L852.838 207.057L849.115 237.154L826.5 226.193L763.886 237.154L800.163 207.057L737.549 156.096L810.223 176.096L806.5 106Z" stroke="#1C6EE8"/>
<circle cx="737" cy="156" r="4.5" fill="white" stroke="#1C6EE8"/>
<circle cx="875" cy="156" r="4.5" fill="white" stroke="#1C6EE8"/>
<circle cx="806" cy="106" r="4.5" fill="white" stroke="#1C6EE8"/>
<circle cx="764" cy="237" r="4.5" fill="white" stroke="#1C6EE8"/>
<circle cx="826" cy="227" r="4.5" fill="white" stroke="#1C6EE8"/>
<circle cx="851" cy="208" r="4.5" fill="white" stroke="#1C6EE8"/>
<circle cx="800" cy="208" r="4.5" fill="white" stroke="#1C6EE8"/>
<circle cx="810" cy="176" r="4.5" fill="white" stroke="#1C6EE8"/>
<circle cx="842" cy="176" r="4.5" fill="white" stroke="#1C6EE8"/>
<circle cx="849" cy="237" r="4.5" fill="white" stroke="#1C6EE8"/>
<path d="M1034.5 106L1070.78 176.096L1103.45 156.096L1080.84 207.057L1077.11 237.154L1054.5 226.193L991.886 237.154L1028.16 207.057L965.549 156.096L1038.22 176.096L1034.5 106Z" fill="#FAE15F" stroke="#FF7CD2" stroke-width="10"/>
<path d="M1034.5 106L1070.78 176.096L1103.45 156.096L1080.84 207.057L1077.11 237.154L1054.5 226.193L991.886 237.154L1028.16 207.057L965.549 156.096L1038.22 176.096L1034.5 106Z" stroke="#1C6EE8"/>
<circle cx="965" cy="156" r="4.5" fill="white" stroke="#1C6EE8"/>
<circle cx="1103" cy="156" r="4.5" fill="white" stroke="#1C6EE8"/>
<circle cx="1034" cy="106" r="4.5" fill="white" stroke="#1C6EE8"/>
<circle cx="992" cy="237" r="4.5" fill="white" stroke="#1C6EE8"/>
<circle cx="1054" cy="227" r="4.5" fill="white" stroke="#1C6EE8"/>
<circle cx="1079" cy="208" r="4.5" fill="white" stroke="#1C6EE8"/>
<circle cx="1028" cy="208" r="4.5" fill="white" stroke="#1C6EE8"/>
<circle cx="1038" cy="176" r="4.5" fill="white" stroke="#1C6EE8"/>
<circle cx="1070" cy="176" r="4.5" fill="white" stroke="#1C6EE8"/>
<circle cx="1077" cy="237" r="4.5" fill="white" stroke="#1C6EE8"/>
</svg>
