<svg width="959" height="123" viewBox="0 0 959 123" fill="none" xmlns="http://www.w3.org/2000/svg">
<path d="M33 6C33.4061 30.3333 47.3745 79 100 79L33 6Z" fill="#80FF61"/>
<rect x="2" y="49" width="72" height="72" fill="#E03B3B" stroke="black" stroke-width="4"/>
<path fill-rule="evenodd" clip-rule="evenodd" d="M308.252 49C299.399 34.3587 296.191 17.4741 296 6L335.466 49H337V50.6716L363 79C352.993 79 344.384 77.2403 337 74.2228V121H265V49H308.252Z" fill="#E03B3B"/>
<path d="M296 6L297.473 4.64764L293.912 0.767673L294 6.03337L296 6ZM308.252 49V51H311.799L309.964 47.9651L308.252 49ZM335.466 49L333.992 50.3524L334.587 51H335.466V49ZM337 49H339V47H337V49ZM337 50.6716H335V51.4503L335.527 52.024L337 50.6716ZM363 79V81H367.55L364.473 77.6476L363 79ZM337 74.2228L337.757 72.3714L335 71.2449V74.2228H337ZM337 121V123H339V121H337ZM265 121H263V123H265V121ZM265 49V47H263V49H265ZM294 6.03337C294.196 17.7807 297.467 35.0291 306.541 50.0349L309.964 47.9651C301.33 33.6883 298.187 17.1675 298 5.96663L294 6.03337ZM336.939 47.6476L297.473 4.64764L294.527 7.35236L333.992 50.3524L336.939 47.6476ZM335.466 51H337V47H335.466V51ZM335 49V50.6716H339V49H335ZM364.473 77.6476L338.473 49.3193L335.527 52.024L361.527 80.3524L364.473 77.6476ZM336.243 76.0742C343.886 79.1972 352.754 81 363 81V77C353.232 77 344.882 75.2834 337.757 72.3714L336.243 76.0742ZM335 74.2228V121H339V74.2228H335ZM337 119H265V123H337V119ZM267 121V49H263V121H267ZM265 51H308.252V47H265V51Z" fill="black"/>
<path fill-rule="evenodd" clip-rule="evenodd" d="M724.466 49H697.252C703.604 59.5045 712.863 68.8543 726 74.2228V50.6716L724.466 49Z" fill="#E03B3B"/>
<path d="M697.252 49V47H693.706L695.541 50.0349L697.252 49ZM724.466 49L725.939 47.6476L725.345 47H724.466V49ZM726 74.2228L725.243 76.0742L728 77.2007V74.2228H726ZM726 50.6716H728V49.893L727.473 49.3193L726 50.6716ZM697.252 51H724.466V47H697.252V51ZM695.541 50.0349C702.069 60.8299 711.633 70.512 725.243 76.0742L726.757 72.3714C714.093 67.1965 705.14 58.1791 698.964 47.9651L695.541 50.0349ZM724 50.6716V74.2228H728V50.6716H724ZM727.473 49.3193L725.939 47.6476L722.992 50.3524L724.526 52.024L727.473 49.3193Z" fill="black"/>
<path fill-rule="evenodd" clip-rule="evenodd" d="M899.252 49C890.399 34.3587 887.191 17.4741 887 6L926.466 49H899.252ZM928 74.2228V121H856V49H899.252C905.604 59.5045 914.863 68.8543 928 74.2228ZM928 74.2228V50.6716L954 79C943.993 79 935.384 77.2403 928 74.2228ZM928 50.6716L926.466 49H928V50.6716Z" fill="#E03B3B"/>
<path d="M887 6L888.473 4.64764L884.912 0.767673L885 6.03337L887 6ZM928 121V123H930V121H928ZM856 121H854V123H856V121ZM856 49V47H854V49H856ZM954 79V81H958.55L955.473 77.6476L954 79ZM928 49H930V47H928V49ZM885 6.03337C885.196 17.7807 888.467 35.0291 897.541 50.0349L900.964 47.9651C892.33 33.6883 889.187 17.1675 889 5.96663L885 6.03337ZM927.939 47.6476L888.473 4.64764L885.527 7.35236L924.992 50.3524L927.939 47.6476ZM899.252 51H926.466V47H899.252V51ZM926 74.2228V121H930V74.2228H926ZM928 119H856V123H928V119ZM858 121V49H854V121H858ZM856 51H899.252V47H856V51ZM897.541 50.0349C904.069 60.8299 913.633 70.512 927.243 76.0742L928.757 72.3714C916.093 67.1965 907.14 58.1791 900.964 47.9651L897.541 50.0349ZM926 50.6716V74.2228H930V50.6716H926ZM955.473 77.6476L929.473 49.3193L926.527 52.024L952.527 80.3524L955.473 77.6476ZM927.243 76.0742C934.886 79.1972 943.754 81 954 81V77C944.232 77 935.882 75.2834 928.757 72.3714L927.243 76.0742ZM929.473 49.3193L927.939 47.6476L924.992 50.3524L926.527 52.024L929.473 49.3193ZM926.466 51H928V47H926.466V51ZM926 49V50.6716H930V49H926Z" fill="black"/>
<path fill-rule="evenodd" clip-rule="evenodd" d="M483 6C483.191 17.4741 486.399 34.3587 495.252 49H522.466L483 6ZM550 79C539.993 79 531.384 77.2403 524 74.2228V50.6716L550 79Z" fill="#80FF61"/>
</svg>
