<svg width="1001" height="146" viewBox="0 0 1001 146" fill="none" xmlns="http://www.w3.org/2000/svg">
<path fill-rule="evenodd" clip-rule="evenodd" d="M347 130C379.033 130 405 104.033 405 72C405 39.9675 379.033 14 347 14C314.967 14 289 39.9675 289 72H265V144H337V129.141C340.249 129.706 343.59 130 347 130Z" fill="#E03B3B"/>
<path d="M289 72V74H291V72H289ZM265 72V70H263V72H265ZM265 144H263V146H265V144ZM337 144V146H339V144H337ZM337 129.141L337.342 127.171L335 126.764V129.141H337ZM403 72C403 102.928 377.928 128 347 128V132C380.137 132 407 105.137 407 72H403ZM347 16C377.928 16 403 41.0721 403 72H407C407 38.8629 380.137 12 347 12V16ZM291 72C291 41.0721 316.072 16 347 16V12C313.863 12 287 38.8629 287 72H291ZM265 74H289V70H265V74ZM267 144V72H263V144H267ZM337 142H265V146H337V142ZM335 129.141V144H339V129.141H335ZM347 128C343.705 128 340.478 127.716 337.342 127.171L336.658 131.112C340.019 131.696 343.475 132 347 132V128Z" fill="black"/>
<path fill-rule="evenodd" clip-rule="evenodd" d="M545 137C577.033 137 603 111.033 603 79C603 46.9675 577.033 21 545 21C512.967 21 487 46.9675 487 79H535V136.141C538.249 136.706 541.59 137 545 137Z" fill="#80FF61"/>
<path d="M487 79H481.5V84.5H487V79ZM535 79H540.5V73.5H535V79ZM535 136.141H529.5V140.768L534.058 141.56L535 136.141ZM597.5 79C597.5 107.995 573.995 131.5 545 131.5V142.5C580.07 142.5 608.5 114.07 608.5 79H597.5ZM545 26.5C573.995 26.5 597.5 50.0051 597.5 79H608.5C608.5 43.9299 580.07 15.5 545 15.5V26.5ZM492.5 79C492.5 50.0051 516.005 26.5 545 26.5V15.5C509.93 15.5 481.5 43.9299 481.5 79H492.5ZM487 84.5H535V73.5H487V84.5ZM529.5 79V136.141H540.5V79H529.5ZM545 131.5C541.907 131.5 538.881 131.233 535.942 130.722L534.058 141.56C537.617 142.178 541.273 142.5 545 142.5V131.5Z" fill="#00A3FF"/>
<path fill-rule="evenodd" clip-rule="evenodd" d="M733 107.141C705.733 102.402 685 78.6224 685 50H733V107.141Z" fill="#E03B3B"/>
<path d="M733 107.141L732.658 109.112L735 109.519V107.141H733ZM685 50V48H683V50H685ZM733 50H735V48H733V50ZM733.342 105.171C707.017 100.596 687 77.6334 687 50H683C683 79.6115 704.449 104.209 732.658 109.112L733.342 105.171ZM685 52H733V48H685V52ZM731 50V107.141H735V50H731Z" fill="black"/>
<path fill-rule="evenodd" clip-rule="evenodd" d="M941 130C973.033 130 999 104.033 999 72C999 39.9675 973.033 14 941 14C908.967 14 883 39.9675 883 72H859V144H931V129.141C934.249 129.706 937.59 130 941 130ZM931 129.141V72H883C883 100.622 903.733 124.402 931 129.141Z" fill="#E03B3B"/>
<path d="M859 72V70H857V72H859ZM859 144H857V146H859V144ZM931 144V146H933V144H931ZM931 72H933V70H931V72ZM997 72C997 102.928 971.928 128 941 128V132C974.137 132 1001 105.137 1001 72H997ZM941 16C971.928 16 997 41.0721 997 72H1001C1001 38.8629 974.137 12 941 12V16ZM885 72C885 41.0721 910.072 16 941 16V12C907.863 12 881 38.8629 881 72H885ZM859 74H883V70H859V74ZM861 144V72H857V144H861ZM931 142H859V146H931V142ZM929 129.141V144H933V129.141H929ZM941 128C937.705 128 934.478 127.716 931.342 127.171L930.658 131.112C934.019 131.696 937.475 132 941 132V128ZM929 72V129.141H933V72H929ZM883 74H931V70H883V74ZM931.342 127.171C905.017 122.596 885 99.6334 885 72H881C881 101.611 902.449 126.209 930.658 131.112L931.342 127.171Z" fill="black"/>
<circle cx="84" cy="64" r="58" fill="#80FF61" stroke="#00A3FF" stroke-width="11"/>
<rect x="2" y="64" width="72" height="72" fill="#E03B3B" stroke="black" stroke-width="4"/>
</svg>
