<svg width="959" height="132" viewBox="0 0 959 132" fill="none" xmlns="http://www.w3.org/2000/svg">
<path fill-rule="evenodd" clip-rule="evenodd" d="M308.252 58C299.399 43.3587 296.191 26.4741 296 15L335.466 58H337V59.6716L363 88C352.993 88 344.384 86.2403 337 83.2228V130H265V58H308.252Z" fill="#E03B3B"/>
<path d="M296 15L297.473 13.6476L293.912 9.76767L294 15.0334L296 15ZM308.252 58V60H311.799L309.964 56.9651L308.252 58ZM335.466 58L333.992 59.3524L334.587 60H335.466V58ZM337 58H339V56H337V58ZM337 59.6716H335V60.4503L335.527 61.024L337 59.6716ZM363 88V90H367.55L364.473 86.6476L363 88ZM337 83.2228L337.757 81.3714L335 80.2449V83.2228H337ZM337 130V132H339V130H337ZM265 130H263V132H265V130ZM265 58V56H263V58H265ZM294 15.0334C294.196 26.7807 297.467 44.0291 306.541 59.0349L309.964 56.9651C301.33 42.6883 298.187 26.1675 298 14.9666L294 15.0334ZM336.939 56.6476L297.473 13.6476L294.527 16.3524L333.992 59.3524L336.939 56.6476ZM335.466 60H337V56H335.466V60ZM335 58V59.6716H339V58H335ZM364.473 86.6476L338.473 58.3193L335.527 61.024L361.527 89.3524L364.473 86.6476ZM336.243 85.0742C343.886 88.1972 352.754 90 363 90V86C353.232 86 344.882 84.2834 337.757 81.3714L336.243 85.0742ZM335 83.2228V130H339V83.2228H335ZM337 128H265V132H337V128ZM267 130V58H263V130H267ZM265 60H308.252V56H265V60Z" fill="black"/>
<path fill-rule="evenodd" clip-rule="evenodd" d="M724.466 58H697.252C703.604 68.5045 712.863 77.8543 726 83.2228V59.6716L724.466 58Z" fill="#E03B3B"/>
<path d="M697.252 58V56H693.706L695.541 59.0349L697.252 58ZM724.466 58L725.939 56.6476L725.345 56H724.466V58ZM726 83.2228L725.243 85.0742L728 86.2007V83.2228H726ZM726 59.6716H728V58.893L727.473 58.3193L726 59.6716ZM697.252 60H724.466V56H697.252V60ZM695.541 59.0349C702.069 69.8299 711.633 79.512 725.243 85.0742L726.757 81.3714C714.093 76.1965 705.14 67.1791 698.964 56.9651L695.541 59.0349ZM724 59.6716V83.2228H728V59.6716H724ZM727.473 58.3193L725.939 56.6476L722.992 59.3524L724.526 61.024L727.473 58.3193Z" fill="black"/>
<path fill-rule="evenodd" clip-rule="evenodd" d="M899.252 58C890.399 43.3587 887.191 26.4741 887 15L926.466 58H899.252ZM928 83.2228V130H856V58H899.252C905.604 68.5045 914.863 77.8543 928 83.2228ZM928 83.2228V59.6716L954 88C943.993 88 935.384 86.2403 928 83.2228ZM928 59.6716L926.466 58H928V59.6716Z" fill="#E03B3B"/>
<path d="M887 15L888.473 13.6476L884.912 9.76767L885 15.0334L887 15ZM928 130V132H930V130H928ZM856 130H854V132H856V130ZM856 58V56H854V58H856ZM954 88V90H958.55L955.473 86.6476L954 88ZM928 58H930V56H928V58ZM885 15.0334C885.196 26.7807 888.467 44.0291 897.541 59.0349L900.964 56.9651C892.33 42.6883 889.187 26.1675 889 14.9666L885 15.0334ZM927.939 56.6476L888.473 13.6476L885.527 16.3524L924.992 59.3524L927.939 56.6476ZM899.252 60H926.466V56H899.252V60ZM926 83.2228V130H930V83.2228H926ZM928 128H856V132H928V128ZM858 130V58H854V130H858ZM856 60H899.252V56H856V60ZM897.541 59.0349C904.069 69.8299 913.633 79.512 927.243 85.0742L928.757 81.3714C916.093 76.1965 907.14 67.1791 900.964 56.9651L897.541 59.0349ZM926 59.6716V83.2228H930V59.6716H926ZM955.473 86.6476L929.473 58.3193L926.527 61.024L952.527 89.3524L955.473 86.6476ZM927.243 85.0742C934.886 88.1972 943.754 90 954 90V86C944.232 86 935.882 84.2834 928.757 81.3714L927.243 85.0742ZM929.473 58.3193L927.939 56.6476L924.992 59.3524L926.527 61.024L929.473 58.3193ZM926.466 60H928V56H926.466V60ZM926 58V59.6716H930V58H926Z" fill="black"/>
<path fill-rule="evenodd" clip-rule="evenodd" d="M483 15C483.191 26.4741 486.399 43.3587 495.252 58H522.466L483 15ZM550 88C539.993 88 531.384 86.2403 524 83.2228V59.6716L550 88Z" fill="#80FF61"/>
<path d="M495.252 58L490.546 60.846L492.151 63.5H495.252V58ZM483 15L487.052 11.281L477.259 0.611101L477.501 15.0918L483 15ZM522.466 58V63.5H534.979L526.518 54.281L522.466 58ZM524 83.2228H518.5V86.9167L521.919 88.3141L524 83.2228ZM550 88V93.5H562.513L554.052 84.281L550 88ZM524 59.6716L528.052 55.9526L518.5 45.5452V59.6716H524ZM499.959 55.154C491.711 41.515 488.678 25.631 488.499 14.9082L477.501 15.0918C477.705 27.3172 481.086 45.2024 490.546 60.846L499.959 55.154ZM522.466 52.5H495.252V63.5H522.466V52.5ZM478.948 18.719L518.414 61.719L526.518 54.281L487.052 11.281L478.948 18.719ZM521.919 88.3141C530.013 91.6217 539.335 93.5 550 93.5V82.5C540.651 82.5 532.755 80.8589 526.081 78.1315L521.919 88.3141ZM518.5 59.6716V83.2228H529.5V59.6716H518.5ZM554.052 84.281L528.052 55.9526L519.948 63.3906L545.948 91.719L554.052 84.281ZM477.501 15.0918C477.705 27.3172 481.086 45.2024 490.546 60.846L499.959 55.154C491.711 41.515 488.678 25.631 488.499 14.9082L477.501 15.0918ZM521.919 88.3141C530.013 91.6217 539.335 93.5 550 93.5V82.5C540.651 82.5 532.755 80.8589 526.081 78.1315L521.919 88.3141Z" fill="#00A3FF"/>
<path d="M33 15C33.4061 39.3333 47.3745 88 100 88L33 15Z" fill="#80FF61"/>
<path d="M33 15C33.4061 39.3333 47.3745 88 100 88" stroke="#00A3FF" stroke-width="11"/>
<rect x="2" y="58" width="72" height="72" fill="#E03B3B" stroke="black" stroke-width="4"/>
</svg>
