<svg width="943" height="114" viewBox="0 0 943 114" fill="none" xmlns="http://www.w3.org/2000/svg">
<path d="M20 5L101 74" stroke="#00A3FF" stroke-width="11"/>
<path d="M264 40H336V112H264V40Z" fill="#E03B3B"/>
<path d="M264 40V38H262V40H264ZM336 40H338V38H336V40ZM336 112V114H338V112H336ZM264 112H262V114H264V112ZM264 42H336V38H264V42ZM334 40V112H338V40H334ZM336 110H264V114H336V110ZM266 112V40H262V112H266Z" fill="black"/>
<path d="M869 31H941V103H869V31Z" fill="#E03B3B"/>
<path d="M869 31V29H867V31H869ZM941 31H943V29H941V31ZM941 103V105H943V103H941ZM869 103H867V105H869V103ZM869 33H941V29H869V33ZM939 31V103H943V31H939ZM941 101H869V105H941V101ZM871 103V31H867V103H871Z" fill="black"/>
<rect x="2" y="31" width="72" height="72" fill="#E03B3B" stroke="black" stroke-width="4"/>
<rect x="710" y="26" width="0.1" height="0.1" fill="#D9D9D9"/>
</svg>
