<svg width="1002" height="512" viewBox="0 0 1002 512" fill="none" xmlns="http://www.w3.org/2000/svg">
<path fill-rule="evenodd" clip-rule="evenodd" d="M294.5 74C294.5 45.0051 318.005 21.5 347 21.5C375.995 21.5 399.5 45.0051 399.5 74C399.5 102.995 375.995 126.5 347 126.5C343.58 126.5 340.237 126.173 337 125.549V74H294.5ZM283.5 74C283.5 38.9299 311.93 10.5 347 10.5C382.07 10.5 410.5 38.9299 410.5 74C410.5 109.07 382.07 137.5 347 137.5C343.598 137.5 340.258 137.232 337 136.717V146H265V74H283.5Z" fill="#E03B3B"/>
<path d="M294.5 74H292.5V76H294.5V74ZM337 125.549H335V127.2L336.621 127.513L337 125.549ZM337 74H339V72H337V74ZM283.5 74V76H285.5V74H283.5ZM337 136.717L337.312 134.742L335 134.376V136.717H337ZM337 146V148H339V146H337ZM265 146H263V148H265V146ZM265 74V72H263V74H265ZM347 19.5C316.9 19.5 292.5 43.9005 292.5 74H296.5C296.5 46.1096 319.11 23.5 347 23.5V19.5ZM401.5 74C401.5 43.9005 377.1 19.5 347 19.5V23.5C374.89 23.5 397.5 46.1096 397.5 74H401.5ZM347 128.5C377.1 128.5 401.5 104.1 401.5 74H397.5C397.5 101.89 374.89 124.5 347 124.5V128.5ZM336.621 127.513C339.983 128.161 343.453 128.5 347 128.5V124.5C343.708 124.5 340.492 124.185 337.379 123.585L336.621 127.513ZM335 74V125.549H339V74H335ZM294.5 76H337V72H294.5V76ZM285.5 74C285.5 40.0345 313.034 12.5 347 12.5V8.5C310.825 8.5 281.5 37.8253 281.5 74H285.5ZM347 12.5C380.966 12.5 408.5 40.0345 408.5 74H412.5C412.5 37.8253 383.175 8.5 347 8.5V12.5ZM408.5 74C408.5 107.966 380.966 135.5 347 135.5V139.5C383.175 139.5 412.5 110.175 412.5 74H408.5ZM347 135.5C343.703 135.5 340.467 135.241 337.312 134.742L336.688 138.693C340.048 139.224 343.493 139.5 347 139.5V135.5ZM335 136.717V146H339V136.717H335ZM337 144H265V148H337V144ZM267 146V74H263V146H267ZM265 76H283.5V72H265V76Z" fill="black"/>
<path fill-rule="evenodd" clip-rule="evenodd" d="M492.5 79.5C492.5 50.5051 516.005 27 545 27C573.995 27 597.5 50.5051 597.5 79.5C597.5 108.495 573.995 132 545 132C541.58 132 538.237 131.673 535 131.049V142.217C538.258 142.732 541.598 143 545 143C580.07 143 608.5 114.57 608.5 79.5C608.5 44.4299 580.07 16 545 16C509.93 16 481.5 44.4299 481.5 79.5H492.5Z" fill="#00A3FF"/>
<circle cx="84" cy="66" r="58" stroke="#00A3FF" stroke-width="11"/>
<path d="M33 209C33.4061 233.333 47.3745 282 100 282" stroke="#00A3FF" stroke-width="11"/>
<path d="M20 412L101 481" stroke="#00A3FF" stroke-width="11"/>
<rect x="2" y="66" width="72" height="72" fill="#E03B3B" stroke="black" stroke-width="4"/>
<path fill-rule="evenodd" clip-rule="evenodd" d="M685.5 66H674.5C674.5 97.6676 697.681 123.921 728 128.717V117.549C703.788 112.879 685.5 91.5754 685.5 66Z" fill="#E03B3B"/>
<path d="M674.5 66V64H672.5V66H674.5ZM685.5 66H687.5V64H685.5V66ZM728 128.717L727.688 130.693L730 131.058V128.717H728ZM728 117.549H730V115.898L728.379 115.585L728 117.549ZM674.5 68H685.5V64H674.5V68ZM728.312 126.742C698.95 122.097 676.5 96.6683 676.5 66H672.5C672.5 98.6669 696.412 125.745 727.688 130.693L728.312 126.742ZM726 117.549V128.717H730V117.549H726ZM683.5 66C683.5 92.5519 702.486 114.665 727.621 119.513L728.379 115.585C705.09 111.094 687.5 90.5989 687.5 66H683.5Z" fill="black"/>
<path fill-rule="evenodd" clip-rule="evenodd" d="M883.5 66C883.5 37.0051 907.005 13.5 936 13.5C964.995 13.5 988.5 37.0051 988.5 66C988.5 94.9949 964.995 118.5 936 118.5C932.58 118.5 929.237 118.173 926 117.549V66H883.5ZM872.5 66C872.5 30.9299 900.93 2.5 936 2.5C971.07 2.5 999.5 30.9299 999.5 66C999.5 101.07 971.07 129.5 936 129.5C932.598 129.5 929.258 129.232 926 128.717V117.549C901.788 112.879 883.5 91.5754 883.5 66H872.5ZM872.5 66H854V138H926V128.717C895.681 123.921 872.5 97.6676 872.5 66Z" fill="#E03B3B"/>
<path d="M926 66H928V64H926V66ZM854 66V64H852V66H854ZM854 138H852V140H854V138ZM926 138V140H928V138H926ZM936 11.5C905.9 11.5 881.5 35.9005 881.5 66H885.5C885.5 38.1096 908.11 15.5 936 15.5V11.5ZM990.5 66C990.5 35.9005 966.1 11.5 936 11.5V15.5C963.89 15.5 986.5 38.1096 986.5 66H990.5ZM936 120.5C966.1 120.5 990.5 96.0995 990.5 66H986.5C986.5 93.8904 963.89 116.5 936 116.5V120.5ZM925.621 119.513C928.983 120.161 932.453 120.5 936 120.5V116.5C932.708 116.5 929.492 116.185 926.379 115.585L925.621 119.513ZM924 66V117.549H928V66H924ZM883.5 68H926V64H883.5V68ZM874.5 66C874.5 32.0345 902.034 4.5 936 4.5V0.5C899.825 0.5 870.5 29.8253 870.5 66H874.5ZM936 4.5C969.966 4.5 997.5 32.0345 997.5 66H1001.5C1001.5 29.8253 972.175 0.5 936 0.5V4.5ZM997.5 66C997.5 99.9655 969.966 127.5 936 127.5V131.5C972.175 131.5 1001.5 102.175 1001.5 66H997.5ZM936 127.5C932.703 127.5 929.467 127.241 926.312 126.742L925.688 130.693C929.048 131.224 932.493 131.5 936 131.5V127.5ZM924 117.549V128.717H928V117.549H924ZM881.5 66C881.5 92.5519 900.486 114.665 925.621 119.513L926.379 115.585C903.09 111.094 885.5 90.5989 885.5 66H881.5ZM872.5 68H883.5V64H872.5V68ZM854 68H872.5V64H854V68ZM856 138V66H852V138H856ZM926 136H854V140H926V136ZM924 128.717V138H928V128.717H924ZM926.312 126.742C896.95 122.097 874.5 96.6683 874.5 66H870.5C870.5 98.6669 894.412 125.745 925.688 130.693L926.312 126.742Z" fill="black"/>
<rect x="2" y="252" width="72" height="72" fill="#E03B3B" stroke="black" stroke-width="4"/>
<path fill-rule="evenodd" clip-rule="evenodd" d="M336 283.124V324H264V252H300.904C292.682 237.057 289.692 220.559 289.501 209.092L300.499 208.908C300.689 220.3 304.096 237.452 313.496 251.578C313.59 251.719 313.685 251.86 313.78 252H336V271.228C343.196 274.536 351.777 276.5 362 276.5V287.5C352.16 287.5 343.532 285.903 336 283.124Z" fill="#E03B3B"/>
<path d="M336 283.124L336.692 281.248L334 280.254V283.124H336ZM336 324V326H338V324H336ZM264 324H262V326H264V324ZM264 252V250H262V252H264ZM300.904 252V254H304.287L302.656 251.036L300.904 252ZM289.501 209.092L289.467 207.092L287.468 207.125L287.501 209.125L289.501 209.092ZM300.499 208.908L302.499 208.875L302.466 206.875L300.466 206.908L300.499 208.908ZM313.496 251.578L311.831 252.686L311.831 252.686L313.496 251.578ZM313.78 252L312.124 253.121L312.718 254H313.78V252ZM336 252H338V250H336V252ZM336 271.228H334V272.509L335.165 273.045L336 271.228ZM362 276.5H364V274.5H362V276.5ZM362 287.5V289.5H364V287.5H362ZM334 283.124V324H338V283.124H334ZM336 322H264V326H336V322ZM266 324V252H262V324H266ZM264 254H300.904V250H264V254ZM302.656 251.036C294.62 236.429 291.687 220.264 291.5 209.058L287.501 209.125C287.697 220.855 290.745 237.684 299.151 252.964L302.656 251.036ZM289.534 211.091L300.533 210.908L300.466 206.908L289.467 207.092L289.534 211.091ZM298.5 208.942C298.694 220.615 302.169 238.166 311.831 252.686L315.161 250.47C306.023 236.737 302.684 219.984 302.499 208.875L298.5 208.942ZM311.831 252.686C311.928 252.831 312.026 252.976 312.124 253.121L315.436 250.879C315.344 250.743 315.252 250.606 315.161 250.47L311.831 252.686ZM313.78 254H336V250H313.78V254ZM334 252V271.228H338V252H334ZM335.165 273.045C342.645 276.484 351.514 278.5 362 278.5V274.5C352.04 274.5 343.747 272.588 336.835 269.41L335.165 273.045ZM360 276.5V287.5H364V276.5H360ZM362 285.5C352.38 285.5 343.988 283.939 336.692 281.248L335.308 285C343.076 287.866 351.94 289.5 362 289.5V285.5Z" fill="black"/>
<path fill-rule="evenodd" clip-rule="evenodd" d="M506.904 252H519.78C519.685 251.86 519.59 251.719 519.496 251.578C510.096 237.452 506.689 220.3 506.499 208.908L495.501 209.092C495.692 220.559 498.682 237.057 506.904 252ZM542 271.228V283.124C549.532 285.903 558.16 287.5 568 287.5V276.5C557.777 276.5 549.196 274.536 542 271.228Z" fill="#00A3FF"/>
<path fill-rule="evenodd" clip-rule="evenodd" d="M712.904 252C713.961 253.921 715.104 255.816 716.339 257.672C723.539 268.491 733.832 277.897 748 283.124V271.228C738.282 266.76 731.088 259.842 725.78 252H712.904Z" fill="#E03B3B"/>
<path d="M716.339 257.672L718.004 256.564L718.004 256.564L716.339 257.672ZM712.904 252V250H709.521L711.151 252.964L712.904 252ZM748 283.124L747.308 285L750 285.994V283.124H748ZM748 271.228H750V269.946L748.835 269.411L748 271.228ZM725.78 252L727.436 250.879L726.841 250H725.78V252ZM718.004 256.564C716.802 254.757 715.687 252.91 714.656 251.036L711.151 252.964C712.234 254.932 713.407 256.876 714.674 258.78L718.004 256.564ZM748.692 281.248C734.984 276.191 725.009 267.09 718.004 256.564L714.674 258.78C722.069 269.891 732.68 279.604 747.308 285L748.692 281.248ZM746 271.228V283.124H750V271.228H746ZM724.124 253.121C729.598 261.21 737.058 268.399 747.165 273.045L748.835 269.411C739.505 265.122 732.577 258.474 727.436 250.879L724.124 253.121ZM712.904 254H725.78V250H712.904V254Z" fill="black"/>
<path fill-rule="evenodd" clip-rule="evenodd" d="M890.904 252C891.961 253.921 893.104 255.816 894.339 257.672C901.539 268.491 911.832 277.897 926 283.124V324H854V252H890.904ZM903.78 252H890.904C882.682 237.057 879.692 220.559 879.501 209.092L890.499 208.908C890.689 220.3 894.096 237.452 903.496 251.578C903.59 251.719 903.685 251.86 903.78 252ZM903.78 252H926V271.228C916.282 266.76 909.088 259.842 903.78 252ZM926 271.228C933.196 274.536 941.777 276.5 952 276.5V287.5C942.16 287.5 933.532 285.903 926 283.124V271.228Z" fill="#E03B3B"/>
<path d="M894.339 257.672L896.004 256.564L896.004 256.564L894.339 257.672ZM926 324V326H928V324H926ZM854 324H852V326H854V324ZM854 252V250H852V252H854ZM879.501 209.092L879.467 207.092L877.468 207.125L877.501 209.125L879.501 209.092ZM890.499 208.908L892.499 208.875L892.466 206.875L890.466 206.908L890.499 208.908ZM903.496 251.578L901.831 252.686L901.831 252.686L903.496 251.578ZM926 252H928V250H926V252ZM952 276.5H954V274.5H952V276.5ZM952 287.5V289.5H954V287.5H952ZM896.004 256.564C894.802 254.757 893.687 252.91 892.656 251.036L889.151 252.964C890.234 254.932 891.406 256.876 892.674 258.78L896.004 256.564ZM926.692 281.248C912.984 276.191 903.009 267.09 896.004 256.564L892.674 258.78C900.068 269.891 910.68 279.604 925.308 285L926.692 281.248ZM924 283.124V324H928V283.124H924ZM926 322H854V326H926V322ZM856 324V252H852V324H856ZM854 254H890.904V250H854V254ZM890.904 254H903.78V250H890.904V254ZM892.656 251.036C884.62 236.429 881.687 220.264 881.5 209.058L877.501 209.125C877.697 220.855 880.745 237.684 889.151 252.964L892.656 251.036ZM879.534 211.091L890.533 210.908L890.466 206.908L879.467 207.092L879.534 211.091ZM888.5 208.942C888.694 220.615 892.169 238.166 901.831 252.686L905.161 250.47C896.023 236.737 892.684 219.984 892.499 208.875L888.5 208.942ZM901.831 252.686C901.928 252.831 902.026 252.976 902.124 253.121L905.436 250.879C905.344 250.743 905.252 250.606 905.161 250.47L901.831 252.686ZM903.78 254H926V250H903.78V254ZM924 252V271.228H928V252H924ZM902.124 253.121C907.598 261.21 915.058 268.399 925.165 273.045L926.835 269.41C917.505 265.122 910.577 258.474 905.436 250.879L902.124 253.121ZM925.165 273.045C932.645 276.484 941.514 278.5 952 278.5V274.5C942.04 274.5 933.747 272.588 926.835 269.41L925.165 273.045ZM950 276.5V287.5H954V276.5H950ZM952 285.5C942.38 285.5 933.988 283.939 926.692 281.248L925.308 285C933.076 287.866 941.94 289.5 952 289.5V285.5ZM924 271.228V283.124H928V271.228H924Z" fill="black"/>
<rect x="2" y="438" width="72" height="72" fill="#E03B3B" stroke="black" stroke-width="4"/>
<path fill-rule="evenodd" clip-rule="evenodd" d="M335 465.225L358.433 485.187L365.567 476.813L335 450.775V438H320.003L284.567 407.813L277.433 416.187L303.04 438H263V510H335V465.225Z" fill="#E03B3B"/>
<path d="M358.433 485.187L357.137 486.709L358.659 488.006L359.956 486.484L358.433 485.187ZM335 465.225L336.297 463.702L333 460.894V465.225H335ZM365.567 476.813L367.089 478.11L368.386 476.587L366.863 475.291L365.567 476.813ZM335 450.775H333V451.698L333.703 452.297L335 450.775ZM335 438H337V436H335V438ZM320.003 438L318.706 439.522L319.267 440H320.003V438ZM284.567 407.813L285.863 406.291L284.341 404.994L283.044 406.516L284.567 407.813ZM277.433 416.187L275.911 414.89L274.614 416.412L276.137 417.709L277.433 416.187ZM303.04 438V440H308.472L304.337 436.477L303.04 438ZM263 438V436H261V438H263ZM263 510H261V512H263V510ZM335 510V512H337V510H335ZM359.73 483.664L336.297 463.702L333.703 466.747L357.137 486.709L359.73 483.664ZM364.044 475.516L356.911 483.89L359.956 486.484L367.089 478.11L364.044 475.516ZM333.703 452.297L364.27 478.335L366.863 475.291L336.297 449.252L333.703 452.297ZM333 438V450.775H337V438H333ZM320.003 440H335V436H320.003V440ZM283.27 409.335L318.706 439.522L321.3 436.477L285.863 406.291L283.27 409.335ZM278.956 417.484L286.089 409.11L283.044 406.516L275.911 414.89L278.956 417.484ZM304.337 436.477L278.73 414.664L276.137 417.709L301.743 439.522L304.337 436.477ZM263 440H303.04V436H263V440ZM265 510V438H261V510H265ZM335 508H263V512H335V508ZM333 465.225V510H337V465.225H333Z" fill="black"/>
<path fill-rule="evenodd" clip-rule="evenodd" d="M541 465.225L564.433 485.187L571.566 476.813L541 450.775V465.225ZM509.04 438H526.003L490.566 407.813L483.433 416.187L509.04 438Z" fill="#00A3FF"/>
<path fill-rule="evenodd" clip-rule="evenodd" d="M732.003 438L747 450.775V465.225L715.04 438H732.003Z" fill="#E03B3B"/>
<path d="M732.003 438L733.3 436.478L732.74 436H732.003V438ZM747 450.775H749V449.851L748.297 449.252L747 450.775ZM747 465.225L745.703 466.748L749 469.556V465.225H747ZM715.04 438V436H709.608L713.743 439.522L715.04 438ZM730.706 439.522L745.703 452.297L748.297 449.252L733.3 436.478L730.706 439.522ZM745 450.775V465.225H749V450.775H745ZM748.297 463.703L716.337 436.478L713.743 439.522L745.703 466.748L748.297 463.703ZM715.04 440H732.003V436H715.04V440Z" fill="black"/>
<path fill-rule="evenodd" clip-rule="evenodd" d="M953 465.225L976.433 485.187L983.567 476.813L953 450.775V438H938.003L902.567 407.813L895.433 416.187L921.04 438H881V510H953V465.225ZM953 465.225V450.775L938.003 438H921.04L953 465.225Z" fill="#E03B3B"/>
<path d="M976.433 485.187L975.137 486.709L976.659 488.006L977.956 486.484L976.433 485.187ZM983.567 476.813L985.089 478.11L986.386 476.587L984.863 475.291L983.567 476.813ZM953 438H955V436H953V438ZM902.567 407.813L903.863 406.291L902.341 404.994L901.044 406.516L902.567 407.813ZM895.433 416.187L893.911 414.89L892.614 416.412L894.137 417.709L895.433 416.187ZM881 438V436H879V438H881ZM881 510H879V512H881V510ZM953 510V512H955V510H953ZM977.73 483.664L954.297 463.702L951.703 466.747L975.137 486.709L977.73 483.664ZM982.044 475.516L974.911 483.89L977.956 486.484L985.089 478.11L982.044 475.516ZM951.703 452.297L982.27 478.335L984.863 475.291L954.297 449.252L951.703 452.297ZM951 438V450.775H955V438H951ZM938.003 440H953V436H938.003V440ZM901.27 409.335L936.706 439.522L939.3 436.477L903.863 406.291L901.27 409.335ZM896.956 417.484L904.089 409.11L901.044 406.516L893.911 414.89L896.956 417.484ZM922.337 436.477L896.73 414.664L894.137 417.709L919.743 439.522L922.337 436.477ZM881 440H921.04V436H881V440ZM883 510V438H879V510H883ZM953 508H881V512H953V508ZM951 465.225V510H955V465.225H951ZM951 450.775V465.225H955V450.775H951ZM936.706 439.522L951.703 452.297L954.297 449.252L939.3 436.477L936.706 439.522ZM921.04 440H938.003V436H921.04V440ZM954.297 463.702L922.337 436.477L919.743 439.522L951.703 466.747L954.297 463.702Z" fill="black"/>
</svg>
