<svg width="424" height="2032" viewBox="0 0 424 2032" fill="none" xmlns="http://www.w3.org/2000/svg">
<path d="M187.5 731L297.052 920.75H77.9478L187.5 731Z" fill="#3E9118"/>
<rect x="10" y="715" width="162" height="162" fill="#F25D5D"/>
<circle cx="179.5" cy="701.5" r="105.5" fill="#FFDA01"/>
<path d="M162.83 656H160.614L167.023 638.545H169.205L175.614 656H173.398L168.182 641.307H168.045L162.83 656ZM163.648 649.182H172.58V651.057H163.648V649.182Z" fill="black"/>
<path d="M32.1136 754V736.545H38.2159C39.4318 736.545 40.4347 736.756 41.2244 737.176C42.0142 737.591 42.6023 738.151 42.9886 738.855C43.375 739.554 43.5682 740.33 43.5682 741.182C43.5682 741.932 43.4347 742.551 43.1676 743.04C42.9063 743.528 42.5597 743.915 42.1278 744.199C41.7017 744.483 41.2386 744.693 40.7386 744.83V745C41.2727 745.034 41.8097 745.222 42.3494 745.562C42.8892 745.903 43.3409 746.392 43.7045 747.028C44.0682 747.665 44.25 748.443 44.25 749.364C44.25 750.239 44.0511 751.026 43.6534 751.724C43.2557 752.423 42.6278 752.977 41.7699 753.386C40.9119 753.795 39.7955 754 38.4205 754H32.1136ZM34.2273 752.125H38.4205C39.8011 752.125 40.7813 751.858 41.3608 751.324C41.946 750.784 42.2386 750.131 42.2386 749.364C42.2386 748.773 42.0881 748.227 41.7869 747.727C41.4858 747.222 41.0568 746.818 40.5 746.517C39.9432 746.21 39.2841 746.057 38.5227 746.057H34.2273V752.125ZM34.2273 744.216H38.1477C38.7841 744.216 39.358 744.091 39.8693 743.841C40.3864 743.591 40.7955 743.239 41.0966 742.784C41.4034 742.33 41.5568 741.795 41.5568 741.182C41.5568 740.415 41.2898 739.764 40.7557 739.23C40.2216 738.69 39.375 738.42 38.2159 738.42H34.2273V744.216Z" fill="black"/>
<path opacity="0.3" d="M201.159 832H199.045C198.92 831.392 198.702 830.858 198.389 830.398C198.082 829.938 197.707 829.551 197.264 829.239C196.827 828.92 196.341 828.682 195.807 828.523C195.273 828.364 194.716 828.284 194.136 828.284C193.08 828.284 192.122 828.551 191.264 829.085C190.412 829.619 189.733 830.406 189.227 831.446C188.727 832.486 188.477 833.761 188.477 835.273C188.477 836.784 188.727 838.06 189.227 839.099C189.733 840.139 190.412 840.926 191.264 841.46C192.122 841.994 193.08 842.261 194.136 842.261C194.716 842.261 195.273 842.182 195.807 842.023C196.341 841.864 196.827 841.628 197.264 841.315C197.707 840.997 198.082 840.608 198.389 840.148C198.702 839.682 198.92 839.148 199.045 838.545H201.159C201 839.437 200.71 840.236 200.29 840.94C199.869 841.645 199.347 842.244 198.722 842.739C198.097 843.227 197.395 843.599 196.616 843.855C195.844 844.111 195.017 844.239 194.136 844.239C192.648 844.239 191.324 843.875 190.165 843.148C189.006 842.42 188.094 841.386 187.429 840.045C186.764 838.705 186.432 837.114 186.432 835.273C186.432 833.432 186.764 831.841 187.429 830.5C188.094 829.159 189.006 828.125 190.165 827.398C191.324 826.67 192.648 826.307 194.136 826.307C195.017 826.307 195.844 826.435 196.616 826.69C197.395 826.946 198.097 827.321 198.722 827.815C199.347 828.304 199.869 828.901 200.29 829.605C200.71 830.304 201 831.102 201.159 832Z" fill="black"/>
<path d="M72.1982 20C72.1982 22.5312 71.7412 24.7187 70.8271 26.5625C69.9131 28.4062 68.6592 29.8281 67.0654 30.8281C65.4717 31.8281 63.6514 32.3281 61.6045 32.3281C59.5576 32.3281 57.7373 31.8281 56.1436 30.8281C54.5498 29.8281 53.2959 28.4062 52.3818 26.5625C51.4678 24.7187 51.0107 22.5312 51.0107 20C51.0107 17.4687 51.4678 15.2812 52.3818 13.4375C53.2959 11.5938 54.5498 10.1719 56.1436 9.17187C57.7373 8.17187 59.5576 7.67187 61.6045 7.67187C63.6514 7.67187 65.4717 8.17187 67.0654 9.17187C68.6592 10.1719 69.9131 11.5938 70.8271 13.4375C71.7412 15.2812 72.1982 17.4687 72.1982 20ZM69.3857 20C69.3857 17.9219 69.0381 16.168 68.3428 14.7383C67.6553 13.3086 66.7217 12.2266 65.542 11.4922C64.3701 10.7578 63.0576 10.3906 61.6045 10.3906C60.1514 10.3906 58.835 10.7578 57.6553 11.4922C56.4834 12.2266 55.5498 13.3086 54.8545 14.7383C54.167 16.168 53.8232 17.9219 53.8232 20C53.8232 22.0781 54.167 23.832 54.8545 25.2617C55.5498 26.6914 56.4834 27.7734 57.6553 28.5078C58.835 29.2422 60.1514 29.6094 61.6045 29.6094C63.0576 29.6094 64.3701 29.2422 65.542 28.5078C66.7217 27.7734 67.6553 26.6914 68.3428 25.2617C69.0381 23.832 69.3857 22.0781 69.3857 20ZM76.71 32V14H79.3818V16.7187H79.5693C79.8975 15.8281 80.4912 15.1055 81.3506 14.5508C82.21 13.9961 83.1787 13.7187 84.2568 13.7187C84.46 13.7187 84.7139 13.7227 85.0186 13.7305C85.3232 13.7383 85.5537 13.75 85.71 13.7656V16.5781C85.6162 16.5547 85.4014 16.5195 85.0654 16.4727C84.7373 16.418 84.3896 16.3906 84.0225 16.3906C83.1475 16.3906 82.3662 16.5742 81.6787 16.9414C80.999 17.3008 80.46 17.8008 80.0615 18.4414C79.6709 19.0742 79.4756 19.7969 79.4756 20.6094V32H76.71ZM88.9883 32V14H91.7539V32H88.9883ZM90.3945 11C89.8555 11 89.3906 10.8164 89 10.4492C88.6172 10.082 88.4258 9.64063 88.4258 9.125C88.4258 8.60938 88.6172 8.16797 89 7.80078C89.3906 7.43359 89.8555 7.25 90.3945 7.25C90.9336 7.25 91.3945 7.43359 91.7773 7.80078C92.168 8.16797 92.3633 8.60938 92.3633 9.125C92.3633 9.64063 92.168 10.082 91.7773 10.4492C91.3945 10.8164 90.9336 11 90.3945 11ZM104.085 39.125C102.749 39.125 101.601 38.9531 100.64 38.6094C99.6787 38.2734 98.8779 37.8281 98.2373 37.2734C97.6045 36.7266 97.1006 36.1406 96.7256 35.5156L98.9287 33.9688C99.1787 34.2969 99.4951 34.6719 99.8779 35.0938C100.261 35.5234 100.784 35.8945 101.448 36.207C102.12 36.5273 102.999 36.6875 104.085 36.6875C105.538 36.6875 106.737 36.3359 107.683 35.6328C108.628 34.9297 109.101 33.8281 109.101 32.3281V28.6719H108.866C108.663 29 108.374 29.4063 107.999 29.8906C107.632 30.3672 107.101 30.793 106.405 31.168C105.718 31.5352 104.788 31.7187 103.616 31.7187C102.163 31.7187 100.858 31.375 99.7021 30.6875C98.5537 30 97.6436 29 96.9717 27.6875C96.3076 26.375 95.9756 24.7812 95.9756 22.9062C95.9756 21.0625 96.2998 19.457 96.9482 18.0898C97.5967 16.7148 98.499 15.6523 99.6553 14.9023C100.812 14.1445 102.147 13.7656 103.663 13.7656C104.835 13.7656 105.765 13.9609 106.452 14.3516C107.147 14.7344 107.679 15.1719 108.046 15.6641C108.421 16.1484 108.71 16.5469 108.913 16.8594H109.194V14H111.866V32.5156C111.866 34.0625 111.515 35.3203 110.812 36.2891C110.116 37.2656 109.179 37.9805 107.999 38.4336C106.827 38.8945 105.522 39.125 104.085 39.125ZM103.991 29.2344C105.101 29.2344 106.038 28.9805 106.804 28.4727C107.569 27.9648 108.151 27.2344 108.55 26.2813C108.948 25.3281 109.147 24.1875 109.147 22.8594C109.147 21.5625 108.952 20.418 108.562 19.4258C108.171 18.4336 107.593 17.6562 106.827 17.0937C106.062 16.5312 105.116 16.25 103.991 16.25C102.819 16.25 101.843 16.5469 101.062 17.1406C100.288 17.7344 99.7061 18.5312 99.3154 19.5313C98.9326 20.5312 98.7412 21.6406 98.7412 22.8594C98.7412 24.1094 98.9365 25.2148 99.3271 26.1758C99.7256 27.1289 100.312 27.8789 101.085 28.4258C101.866 28.9648 102.835 29.2344 103.991 29.2344ZM116.929 32V14H119.694V32H116.929ZM118.335 11C117.796 11 117.331 10.8164 116.94 10.4492C116.558 10.082 116.366 9.64063 116.366 9.125C116.366 8.60938 116.558 8.16797 116.94 7.80078C117.331 7.43359 117.796 7.25 118.335 7.25C118.874 7.25 119.335 7.43359 119.718 7.80078C120.108 8.16797 120.304 8.60938 120.304 9.125C120.304 9.64063 120.108 10.082 119.718 10.4492C119.335 10.8164 118.874 11 118.335 11ZM127.525 21.1719V32H124.76V14H127.432V16.8125H127.666C128.088 15.8984 128.729 15.1641 129.588 14.6094C130.447 14.0469 131.557 13.7656 132.916 13.7656C134.135 13.7656 135.201 14.0156 136.115 14.5156C137.029 15.0078 137.74 15.7578 138.248 16.7656C138.756 17.7656 139.01 19.0312 139.01 20.5625V32H136.244V20.75C136.244 19.3359 135.877 18.2344 135.143 17.4453C134.408 16.6484 133.4 16.25 132.119 16.25C131.236 16.25 130.447 16.4414 129.752 16.8242C129.064 17.207 128.521 17.7656 128.123 18.5C127.725 19.2344 127.525 20.125 127.525 21.1719ZM149.36 32.4219C148.22 32.4219 147.185 32.207 146.255 31.7773C145.325 31.3398 144.587 30.7109 144.04 29.8906C143.493 29.0625 143.22 28.0625 143.22 26.8906C143.22 25.8594 143.423 25.0234 143.829 24.3828C144.235 23.7344 144.778 23.2266 145.458 22.8594C146.138 22.4922 146.888 22.2187 147.708 22.0391C148.536 21.8516 149.368 21.7031 150.204 21.5938C151.298 21.4531 152.185 21.3477 152.864 21.2773C153.552 21.1992 154.052 21.0703 154.364 20.8906C154.685 20.7109 154.845 20.3984 154.845 19.9531V19.8594C154.845 18.7031 154.528 17.8047 153.896 17.1641C153.271 16.5234 152.321 16.2031 151.048 16.2031C149.728 16.2031 148.692 16.4922 147.942 17.0703C147.192 17.6484 146.665 18.2656 146.36 18.9219L143.735 17.9844C144.204 16.8906 144.829 16.0391 145.61 15.4297C146.399 14.8125 147.259 14.3828 148.188 14.1406C149.126 13.8906 150.048 13.7656 150.954 13.7656C151.532 13.7656 152.196 13.8359 152.946 13.9766C153.704 14.1094 154.435 14.3867 155.138 14.8086C155.849 15.2305 156.438 15.8672 156.907 16.7187C157.376 17.5703 157.61 18.7109 157.61 20.1406V32H154.845V29.5625H154.704C154.517 29.9531 154.204 30.3711 153.767 30.8164C153.329 31.2617 152.747 31.6406 152.021 31.9531C151.294 32.2656 150.407 32.4219 149.36 32.4219ZM149.782 29.9375C150.876 29.9375 151.798 29.7227 152.548 29.293C153.306 28.8633 153.876 28.3086 154.259 27.6289C154.649 26.9492 154.845 26.2344 154.845 25.4844V22.9531C154.728 23.0937 154.47 23.2227 154.071 23.3398C153.681 23.4492 153.228 23.5469 152.712 23.6328C152.204 23.7109 151.708 23.7812 151.224 23.8437C150.747 23.8984 150.36 23.9453 150.063 23.9844C149.345 24.0781 148.673 24.2305 148.048 24.4414C147.431 24.6445 146.931 24.9531 146.548 25.3672C146.173 25.7734 145.985 26.3281 145.985 27.0312C145.985 27.9922 146.341 28.7187 147.052 29.2109C147.771 29.6953 148.681 29.9375 149.782 29.9375ZM165.424 8V32H162.658V8H165.424Z" fill="#354471"/>
<rect x="107" y="219" width="166" height="166" fill="#F25D5D"/>
<circle cx="99.5" cy="225.5" r="99.5" fill="#FFDA01"/>
<path d="M49.8295 173H47.6136L54.0227 155.545H56.2045L62.6136 173H60.3977L55.1818 158.307H55.0455L49.8295 173ZM50.6477 166.182H59.5795V168.057H50.6477V166.182Z" fill="black"/>
<path d="M218.114 259V241.545H224.216C225.432 241.545 226.435 241.756 227.224 242.176C228.014 242.591 228.602 243.151 228.989 243.855C229.375 244.554 229.568 245.33 229.568 246.182C229.568 246.932 229.435 247.551 229.168 248.04C228.906 248.528 228.56 248.915 228.128 249.199C227.702 249.483 227.239 249.693 226.739 249.83V250C227.273 250.034 227.81 250.222 228.349 250.562C228.889 250.903 229.341 251.392 229.705 252.028C230.068 252.665 230.25 253.443 230.25 254.364C230.25 255.239 230.051 256.026 229.653 256.724C229.256 257.423 228.628 257.977 227.77 258.386C226.912 258.795 225.795 259 224.42 259H218.114ZM220.227 257.125H224.42C225.801 257.125 226.781 256.858 227.361 256.324C227.946 255.784 228.239 255.131 228.239 254.364C228.239 253.773 228.088 253.227 227.787 252.727C227.486 252.222 227.057 251.818 226.5 251.517C225.943 251.21 225.284 251.057 224.523 251.057H220.227V257.125ZM220.227 249.216H224.148C224.784 249.216 225.358 249.091 225.869 248.841C226.386 248.591 226.795 248.239 227.097 247.784C227.403 247.33 227.557 246.795 227.557 246.182C227.557 245.415 227.29 244.764 226.756 244.23C226.222 243.69 225.375 243.42 224.216 243.42H220.227V249.216Z" fill="black"/>
<path d="M234.5 1116L276.147 1256.96L410.921 1256.96L301.887 1344.08L343.534 1485.04L234.5 1397.92L125.466 1485.04L167.113 1344.08L58.079 1256.96L192.853 1256.96L234.5 1116Z" fill="#456EE9"/>
<path d="M206.5 1286L316.052 1475.75H96.9478L206.5 1286Z" fill="#3E9118"/>
<rect x="29" y="1270" width="162" height="162" fill="#F25D5D"/>
<circle cx="198.5" cy="1256.5" r="105.5" fill="#FFDA01"/>
<path d="M181.83 1211H179.614L186.023 1193.55H188.205L194.614 1211H192.398L187.182 1196.31H187.045L181.83 1211ZM182.648 1204.18H191.58V1206.06H182.648V1204.18Z" fill="black"/>
<path d="M51.1136 1309V1291.55H57.2159C58.4318 1291.55 59.4347 1291.76 60.2244 1292.18C61.0142 1292.59 61.6023 1293.15 61.9886 1293.86C62.375 1294.55 62.5682 1295.33 62.5682 1296.18C62.5682 1296.93 62.4347 1297.55 62.1676 1298.04C61.9063 1298.53 61.5597 1298.91 61.1278 1299.2C60.7017 1299.48 60.2386 1299.69 59.7386 1299.83V1300C60.2727 1300.03 60.8097 1300.22 61.3494 1300.56C61.8892 1300.9 62.3409 1301.39 62.7045 1302.03C63.0682 1302.66 63.25 1303.44 63.25 1304.36C63.25 1305.24 63.0511 1306.03 62.6534 1306.72C62.2557 1307.42 61.6278 1307.98 60.7699 1308.39C59.9119 1308.8 58.7955 1309 57.4205 1309H51.1136ZM53.2273 1307.12H57.4205C58.8011 1307.12 59.7813 1306.86 60.3608 1306.32C60.946 1305.78 61.2386 1305.13 61.2386 1304.36C61.2386 1303.77 61.0881 1303.23 60.7869 1302.73C60.4858 1302.22 60.0568 1301.82 59.5 1301.52C58.9432 1301.21 58.2841 1301.06 57.5227 1301.06H53.2273V1307.12ZM53.2273 1299.22H57.1477C57.7841 1299.22 58.358 1299.09 58.8693 1298.84C59.3864 1298.59 59.7955 1298.24 60.0966 1297.78C60.4034 1297.33 60.5568 1296.8 60.5568 1296.18C60.5568 1295.41 60.2898 1294.76 59.7557 1294.23C59.2216 1293.69 58.375 1293.42 57.2159 1293.42H53.2273V1299.22Z" fill="black"/>
<path opacity="0.3" d="M220.159 1387H218.045C217.92 1386.39 217.702 1385.86 217.389 1385.4C217.082 1384.94 216.707 1384.55 216.264 1384.24C215.827 1383.92 215.341 1383.68 214.807 1383.52C214.273 1383.36 213.716 1383.28 213.136 1383.28C212.08 1383.28 211.122 1383.55 210.264 1384.09C209.412 1384.62 208.733 1385.41 208.227 1386.45C207.727 1387.49 207.477 1388.76 207.477 1390.27C207.477 1391.78 207.727 1393.06 208.227 1394.1C208.733 1395.14 209.412 1395.93 210.264 1396.46C211.122 1396.99 212.08 1397.26 213.136 1397.26C213.716 1397.26 214.273 1397.18 214.807 1397.02C215.341 1396.86 215.827 1396.63 216.264 1396.32C216.707 1396 217.082 1395.61 217.389 1395.15C217.702 1394.68 217.92 1394.15 218.045 1393.55H220.159C220 1394.44 219.71 1395.24 219.29 1395.94C218.869 1396.64 218.347 1397.24 217.722 1397.74C217.097 1398.23 216.395 1398.6 215.616 1398.86C214.844 1399.11 214.017 1399.24 213.136 1399.24C211.648 1399.24 210.324 1398.88 209.165 1398.15C208.006 1397.42 207.094 1396.39 206.429 1395.05C205.764 1393.7 205.432 1392.11 205.432 1390.27C205.432 1388.43 205.764 1386.84 206.429 1385.5C207.094 1384.16 208.006 1383.12 209.165 1382.4C210.324 1381.67 211.648 1381.31 213.136 1381.31C214.017 1381.31 214.844 1381.43 215.616 1381.69C216.395 1381.95 217.097 1382.32 217.722 1382.82C218.347 1383.3 218.869 1383.9 219.29 1384.61C219.71 1385.3 220 1386.1 220.159 1387Z" fill="black"/>
<path opacity="0.3" d="M322.5 1293H317.114V1275.55H322.739C324.432 1275.55 325.881 1275.89 327.085 1276.59C328.29 1277.29 329.213 1278.28 329.855 1279.59C330.497 1280.88 330.818 1282.43 330.818 1284.24C330.818 1286.06 330.494 1287.62 329.847 1288.93C329.199 1290.24 328.256 1291.25 327.017 1291.95C325.778 1292.65 324.273 1293 322.5 1293ZM319.227 1291.12H322.364C323.807 1291.12 325.003 1290.85 325.952 1290.29C326.901 1289.73 327.608 1288.94 328.074 1287.91C328.54 1286.88 328.773 1285.66 328.773 1284.24C328.773 1282.83 328.543 1281.62 328.082 1280.6C327.622 1279.58 326.935 1278.79 326.02 1278.25C325.105 1277.7 323.966 1277.42 322.602 1277.42H319.227V1291.12Z" fill="black"/>
<path d="M210.5 1779L320.052 1968.75H100.948L210.5 1779Z" fill="#3E9118"/>
<path d="M238.5 1609L280.147 1749.96L414.921 1749.96L305.887 1837.08L347.534 1978.04L238.5 1890.92L129.466 1978.04L171.113 1837.08L62.079 1749.96L196.853 1749.96L238.5 1609Z" fill="#456EE9"/>
<rect x="33" y="1763" width="162" height="162" fill="#F25D5D"/>
<circle cx="202.5" cy="1749.5" r="105.5" fill="#FFDA01"/>
<path d="M185.83 1704H183.614L190.023 1686.55H192.205L198.614 1704H196.398L191.182 1689.31H191.045L185.83 1704ZM186.648 1697.18H195.58V1699.06H186.648V1697.18Z" fill="black"/>
<path d="M55.1136 1802V1784.55H61.2159C62.4318 1784.55 63.4347 1784.76 64.2244 1785.18C65.0142 1785.59 65.6023 1786.15 65.9886 1786.86C66.375 1787.55 66.5682 1788.33 66.5682 1789.18C66.5682 1789.93 66.4347 1790.55 66.1676 1791.04C65.9063 1791.53 65.5597 1791.91 65.1278 1792.2C64.7017 1792.48 64.2386 1792.69 63.7386 1792.83V1793C64.2727 1793.03 64.8097 1793.22 65.3494 1793.56C65.8892 1793.9 66.3409 1794.39 66.7045 1795.03C67.0682 1795.66 67.25 1796.44 67.25 1797.36C67.25 1798.24 67.0511 1799.03 66.6534 1799.72C66.2557 1800.42 65.6278 1800.98 64.7699 1801.39C63.9119 1801.8 62.7955 1802 61.4205 1802H55.1136ZM57.2273 1800.12H61.4205C62.8011 1800.12 63.7813 1799.86 64.3608 1799.32C64.946 1798.78 65.2386 1798.13 65.2386 1797.36C65.2386 1796.77 65.0881 1796.23 64.7869 1795.73C64.4858 1795.22 64.0568 1794.82 63.5 1794.52C62.9432 1794.21 62.2841 1794.06 61.5227 1794.06H57.2273V1800.12ZM57.2273 1792.22H61.1477C61.7841 1792.22 62.358 1792.09 62.8693 1791.84C63.3864 1791.59 63.7955 1791.24 64.0966 1790.78C64.4034 1790.33 64.5568 1789.8 64.5568 1789.18C64.5568 1788.41 64.2898 1787.76 63.7557 1787.23C63.2216 1786.69 62.375 1786.42 61.2159 1786.42H57.2273V1792.22Z" fill="black"/>
<path opacity="0.3" d="M233.159 1926H231.045C230.92 1925.39 230.702 1924.86 230.389 1924.4C230.082 1923.94 229.707 1923.55 229.264 1923.24C228.827 1922.92 228.341 1922.68 227.807 1922.52C227.273 1922.36 226.716 1922.28 226.136 1922.28C225.08 1922.28 224.122 1922.55 223.264 1923.09C222.412 1923.62 221.733 1924.41 221.227 1925.45C220.727 1926.49 220.477 1927.76 220.477 1929.27C220.477 1930.78 220.727 1932.06 221.227 1933.1C221.733 1934.14 222.412 1934.93 223.264 1935.46C224.122 1935.99 225.08 1936.26 226.136 1936.26C226.716 1936.26 227.273 1936.18 227.807 1936.02C228.341 1935.86 228.827 1935.63 229.264 1935.32C229.707 1935 230.082 1934.61 230.389 1934.15C230.702 1933.68 230.92 1933.15 231.045 1932.55H233.159C233 1933.44 232.71 1934.24 232.29 1934.94C231.869 1935.64 231.347 1936.24 230.722 1936.74C230.097 1937.23 229.395 1937.6 228.616 1937.86C227.844 1938.11 227.017 1938.24 226.136 1938.24C224.648 1938.24 223.324 1937.88 222.165 1937.15C221.006 1936.42 220.094 1935.39 219.429 1934.05C218.764 1932.7 218.432 1931.11 218.432 1929.27C218.432 1927.43 218.764 1925.84 219.429 1924.5C220.094 1923.16 221.006 1922.12 222.165 1921.4C223.324 1920.67 224.648 1920.31 226.136 1920.31C227.017 1920.31 227.844 1920.43 228.616 1920.69C229.395 1920.95 230.097 1921.32 230.722 1921.82C231.347 1922.3 231.869 1922.9 232.29 1923.61C232.71 1924.3 233 1925.1 233.159 1926Z" fill="black"/>
<path opacity="0.3" d="M326.5 1786H321.114V1768.55H326.739C328.432 1768.55 329.881 1768.89 331.085 1769.59C332.29 1770.29 333.213 1771.28 333.855 1772.59C334.497 1773.88 334.818 1775.43 334.818 1777.24C334.818 1779.06 334.494 1780.62 333.847 1781.93C333.199 1783.24 332.256 1784.25 331.017 1784.95C329.778 1785.65 328.273 1786 326.5 1786ZM323.227 1784.12H326.364C327.807 1784.12 329.003 1783.85 329.952 1783.29C330.901 1782.73 331.608 1781.94 332.074 1780.91C332.54 1779.88 332.773 1778.66 332.773 1777.24C332.773 1775.83 332.543 1774.62 332.082 1773.6C331.622 1772.58 330.935 1771.79 330.02 1771.25C329.105 1770.7 327.966 1770.42 326.602 1770.42H323.227V1784.12Z" fill="black"/>
</svg>
