<svg width="441" height="1979" viewBox="0 0 441 1979" fill="none" xmlns="http://www.w3.org/2000/svg">
<path fill-rule="evenodd" clip-rule="evenodd" d="M251.343 796.546C286.647 779.487 311 743.337 311 701.5C311 643.234 263.766 596 205.5 596C147.234 596 100 643.234 100 701.5C100 706.074 100.291 710.58 100.856 715H36V877H129.207L103.948 920.75H323.052L251.343 796.546Z" fill="#FFDA01"/>
<path d="M81.8618 8H84.7681V23.8906C84.7681 25.5312 84.3813 26.9961 83.6079 28.2852C82.8423 29.5664 81.7603 30.5781 80.3618 31.3203C78.9634 32.0547 77.3228 32.4219 75.4399 32.4219C73.5571 32.4219 71.9165 32.0547 70.5181 31.3203C69.1196 30.5781 68.0337 29.5664 67.2603 28.2852C66.4946 26.9961 66.1118 25.5312 66.1118 23.8906V8H69.0181V23.6563C69.0181 24.8281 69.2759 25.8711 69.7915 26.7852C70.3071 27.6914 71.0415 28.4062 71.9946 28.9297C72.9556 29.4453 74.104 29.7031 75.4399 29.7031C76.7759 29.7031 77.9243 29.4453 78.8853 28.9297C79.8462 28.4062 80.5806 27.6914 81.0884 26.7852C81.604 25.8711 81.8618 24.8281 81.8618 23.6563V8ZM92.9624 21.1719V32H90.1968V14H92.8687V16.8125H93.103C93.5249 15.8984 94.1655 15.1641 95.0249 14.6094C95.8843 14.0469 96.9937 13.7656 98.353 13.7656C99.5718 13.7656 100.638 14.0156 101.552 14.5156C102.466 15.0078 103.177 15.7578 103.685 16.7656C104.193 17.7656 104.447 19.0312 104.447 20.5625V32H101.681V20.75C101.681 19.3359 101.314 18.2344 100.58 17.4453C99.8452 16.6484 98.8374 16.25 97.5562 16.25C96.6733 16.25 95.8843 16.4414 95.189 16.8242C94.5015 17.207 93.9585 17.7656 93.5601 18.5C93.1616 19.2344 92.9624 20.125 92.9624 21.1719ZM109.5 32V14H112.266V32H109.5ZM110.907 11C110.368 11 109.903 10.8164 109.512 10.4492C109.129 10.082 108.938 9.64063 108.938 9.125C108.938 8.60938 109.129 8.16797 109.512 7.80078C109.903 7.43359 110.368 7.25 110.907 7.25C111.446 7.25 111.907 7.43359 112.29 7.80078C112.68 8.16797 112.875 8.60938 112.875 9.125C112.875 9.64063 112.68 10.082 112.29 10.4492C111.907 10.8164 111.446 11 110.907 11ZM124.644 32.375C123.019 32.375 121.593 31.9883 120.367 31.2148C119.148 30.4414 118.195 29.3594 117.507 27.9687C116.828 26.5781 116.488 24.9531 116.488 23.0937C116.488 21.2187 116.828 19.582 117.507 18.1836C118.195 16.7852 119.148 15.6992 120.367 14.9258C121.593 14.1523 123.019 13.7656 124.644 13.7656C126.269 13.7656 127.691 14.1523 128.91 14.9258C130.136 15.6992 131.089 16.7852 131.769 18.1836C132.457 19.582 132.8 21.2187 132.8 23.0937C132.8 24.9531 132.457 26.5781 131.769 27.9687C131.089 29.3594 130.136 30.4414 128.91 31.2148C127.691 31.9883 126.269 32.375 124.644 32.375ZM124.644 29.8906C125.878 29.8906 126.894 29.5742 127.691 28.9414C128.488 28.3086 129.078 27.4766 129.46 26.4453C129.843 25.4141 130.035 24.2969 130.035 23.0937C130.035 21.8906 129.843 20.7695 129.46 19.7305C129.078 18.6914 128.488 17.8516 127.691 17.2109C126.894 16.5703 125.878 16.25 124.644 16.25C123.41 16.25 122.394 16.5703 121.597 17.2109C120.8 17.8516 120.21 18.6914 119.828 19.7305C119.445 20.7695 119.253 21.8906 119.253 23.0937C119.253 24.2969 119.445 25.4141 119.828 26.4453C120.21 27.4766 120.8 28.3086 121.597 28.9414C122.394 29.5742 123.41 29.8906 124.644 29.8906ZM139.788 21.1719V32H137.022V14H139.694V16.8125H139.928C140.35 15.8984 140.991 15.1641 141.85 14.6094C142.709 14.0469 143.819 13.7656 145.178 13.7656C146.397 13.7656 147.463 14.0156 148.377 14.5156C149.292 15.0078 150.002 15.7578 150.51 16.7656C151.018 17.7656 151.272 19.0312 151.272 20.5625V32H148.506V20.75C148.506 19.3359 148.139 18.2344 147.405 17.4453C146.67 16.6484 145.663 16.25 144.381 16.25C143.499 16.25 142.709 16.4414 142.014 16.8242C141.327 17.207 140.784 17.7656 140.385 18.5C139.987 19.2344 139.788 20.125 139.788 21.1719Z" fill="#354471"/>
<path d="M102.089 1007.45C102.089 1004.86 102.426 1002.47 103.099 1000.3C103.778 998.114 104.746 996.106 106.003 994.273H108.145C107.651 994.952 107.187 995.79 106.755 996.786C106.329 997.774 105.955 998.862 105.632 1000.05C105.309 1001.23 105.055 1002.45 104.87 1003.72C104.692 1004.98 104.602 1006.23 104.602 1007.45C104.602 1009.09 104.76 1010.75 105.076 1012.43C105.392 1014.11 105.817 1015.67 106.353 1017.11C106.888 1018.56 107.486 1019.73 108.145 1020.64H106.003C104.746 1018.8 103.778 1016.8 103.099 1014.62C102.426 1012.44 102.089 1010.05 102.089 1007.45ZM129.032 1003.5H126.478C126.327 1002.77 126.063 1002.12 125.685 1001.56C125.315 1001.01 124.862 1000.54 124.326 1000.16C123.797 999.779 123.21 999.491 122.565 999.298C121.92 999.106 121.247 999.01 120.547 999.01C119.27 999.01 118.113 999.333 117.076 999.978C116.046 1000.62 115.226 1001.57 114.615 1002.83C114.011 1004.09 113.709 1005.63 113.709 1007.45C113.709 1009.28 114.011 1010.82 114.615 1012.08C115.226 1013.33 116.046 1014.29 117.076 1014.93C118.113 1015.58 119.27 1015.9 120.547 1015.9C121.247 1015.9 121.92 1015.8 122.565 1015.61C123.21 1015.42 123.797 1015.13 124.326 1014.76C124.862 1014.37 125.315 1013.9 125.685 1013.35C126.063 1012.78 126.327 1012.14 126.478 1011.41H129.032C128.84 1012.49 128.49 1013.45 127.982 1014.3C127.474 1015.15 126.842 1015.88 126.087 1016.48C125.332 1017.07 124.484 1017.52 123.543 1017.82C122.61 1018.13 121.611 1018.29 120.547 1018.29C118.748 1018.29 117.148 1017.85 115.748 1016.97C114.347 1016.09 113.245 1014.84 112.442 1013.22C111.639 1011.6 111.237 1009.68 111.237 1007.45C111.237 1005.23 111.639 1003.31 112.442 1001.69C113.245 1000.07 114.347 998.818 115.748 997.939C117.148 997.06 118.748 996.621 120.547 996.621C121.611 996.621 122.61 996.775 123.543 997.084C124.484 997.393 125.332 997.846 126.087 998.444C126.842 999.034 127.474 999.755 127.982 1000.61C128.49 1001.45 128.84 1002.42 129.032 1003.5ZM159.111 1007.45C159.111 1009.68 158.71 1011.6 157.906 1013.22C157.103 1014.84 156.001 1016.09 154.6 1016.97C153.2 1017.85 151.6 1018.29 149.801 1018.29C148.003 1018.29 146.403 1017.85 145.002 1016.97C143.602 1016.09 142.5 1014.84 141.697 1013.22C140.893 1011.6 140.492 1009.68 140.492 1007.45C140.492 1005.23 140.893 1003.31 141.697 1001.69C142.5 1000.07 143.602 998.818 145.002 997.939C146.403 997.06 148.003 996.621 149.801 996.621C151.6 996.621 153.2 997.06 154.6 997.939C156.001 998.818 157.103 1000.07 157.906 1001.69C158.71 1003.31 159.111 1005.23 159.111 1007.45ZM156.64 1007.45C156.64 1005.63 156.334 1004.09 155.723 1002.83C155.119 1001.57 154.298 1000.62 153.262 999.978C152.232 999.333 151.078 999.01 149.801 999.01C148.525 999.01 147.368 999.333 146.331 999.978C145.301 1000.62 144.481 1001.57 143.87 1002.83C143.266 1004.09 142.963 1005.63 142.963 1007.45C142.963 1009.28 143.266 1010.82 143.87 1012.08C144.481 1013.33 145.301 1014.29 146.331 1014.93C147.368 1015.58 148.525 1015.9 149.801 1015.9C151.078 1015.9 152.232 1015.58 153.262 1014.93C154.298 1014.29 155.119 1013.33 155.723 1012.08C156.334 1010.82 156.64 1009.28 156.64 1007.45ZM163.406 1018V996.909H170.532C172.18 996.909 173.532 997.191 174.589 997.754C175.647 998.31 176.429 999.075 176.938 1000.05C177.446 1001.02 177.7 1002.13 177.7 1003.38C177.7 1004.62 177.446 1005.72 176.938 1006.68C176.429 1007.64 175.65 1008.4 174.6 1008.95C173.549 1009.49 172.207 1009.76 170.573 1009.76H164.806V1007.45H170.491C171.617 1007.45 172.523 1007.29 173.21 1006.96C173.903 1006.63 174.404 1006.16 174.713 1005.56C175.029 1004.95 175.187 1004.22 175.187 1003.38C175.187 1002.53 175.029 1001.79 174.713 1001.16C174.397 1000.53 173.893 1000.04 173.199 999.7C172.506 999.35 171.589 999.175 170.45 999.175H165.96V1018H163.406ZM173.333 1008.53L178.523 1018H175.558L170.45 1008.53H173.333ZM190.112 1018V996.909H197.485C198.954 996.909 200.166 997.163 201.12 997.671C202.075 998.172 202.785 998.849 203.252 999.7C203.719 1000.54 203.953 1001.48 203.953 1002.51C203.953 1003.42 203.791 1004.17 203.468 1004.76C203.153 1005.35 202.734 1005.81 202.212 1006.16C201.697 1006.5 201.138 1006.75 200.533 1006.92V1007.12C201.179 1007.17 201.828 1007.39 202.48 1007.8C203.132 1008.22 203.678 1008.81 204.117 1009.58C204.557 1010.34 204.776 1011.29 204.776 1012.4C204.776 1013.46 204.536 1014.41 204.055 1015.25C203.575 1016.09 202.816 1016.76 201.78 1017.26C200.743 1017.75 199.394 1018 197.732 1018H190.112ZM192.666 1015.73H197.732C199.401 1015.73 200.585 1015.41 201.285 1014.77C201.992 1014.11 202.346 1013.32 202.346 1012.4C202.346 1011.68 202.164 1011.02 201.8 1010.42C201.436 1009.81 200.918 1009.32 200.245 1008.96C199.572 1008.59 198.776 1008.4 197.856 1008.4H192.666V1015.73ZM192.666 1006.18H197.403C198.172 1006.18 198.865 1006.03 199.483 1005.72C200.108 1005.42 200.602 1005 200.966 1004.45C201.337 1003.9 201.522 1003.25 201.522 1002.51C201.522 1001.58 201.199 1000.8 200.554 1000.15C199.909 999.501 198.886 999.175 197.485 999.175H192.666V1006.18ZM213.834 1007.45C213.834 1010.05 213.494 1012.44 212.814 1014.62C212.141 1016.8 211.177 1018.8 209.92 1020.64H207.778C208.273 1019.96 208.733 1019.12 209.158 1018.12C209.591 1017.13 209.968 1016.05 210.291 1014.87C210.614 1013.68 210.864 1012.46 211.043 1011.19C211.228 1009.92 211.321 1008.68 211.321 1007.45C211.321 1005.82 211.163 1004.16 210.847 1002.48C210.531 1000.8 210.106 999.237 209.57 997.795C209.035 996.353 208.437 995.179 207.778 994.273H209.92C211.177 996.106 212.141 998.114 212.814 1000.3C213.494 1002.47 213.834 1004.86 213.834 1007.45ZM245.431 1007.45C245.431 1009.68 245.03 1011.6 244.227 1013.22C243.423 1014.84 242.321 1016.09 240.921 1016.97C239.52 1017.85 237.921 1018.29 236.122 1018.29C234.323 1018.29 232.723 1017.85 231.323 1016.97C229.922 1016.09 228.82 1014.84 228.017 1013.22C227.214 1011.6 226.812 1009.68 226.812 1007.45C226.812 1005.23 227.214 1003.31 228.017 1001.69C228.82 1000.07 229.922 998.818 231.323 997.939C232.723 997.06 234.323 996.621 236.122 996.621C237.921 996.621 239.52 997.06 240.921 997.939C242.321 998.818 243.423 1000.07 244.227 1001.69C245.03 1003.31 245.431 1005.23 245.431 1007.45ZM242.96 1007.45C242.96 1005.63 242.654 1004.09 242.043 1002.83C241.439 1001.57 240.619 1000.62 239.582 999.978C238.552 999.333 237.399 999.01 236.122 999.01C234.845 999.01 233.688 999.333 232.651 999.978C231.621 1000.62 230.801 1001.57 230.19 1002.83C229.586 1004.09 229.284 1005.63 229.284 1007.45C229.284 1009.28 229.586 1010.82 230.19 1012.08C230.801 1013.33 231.621 1014.29 232.651 1014.93C233.688 1015.58 234.845 1015.9 236.122 1015.9C237.399 1015.9 238.552 1015.58 239.582 1014.93C240.619 1014.29 241.439 1013.33 242.043 1012.08C242.654 1010.82 242.96 1009.28 242.96 1007.45ZM249.726 1018V996.909H256.852C258.5 996.909 259.853 997.191 260.91 997.754C261.967 998.31 262.75 999.075 263.258 1000.05C263.766 1001.02 264.02 1002.13 264.02 1003.38C264.02 1004.62 263.766 1005.72 263.258 1006.68C262.75 1007.64 261.971 1008.4 260.92 1008.95C259.87 1009.49 258.527 1009.76 256.893 1009.76H251.126V1007.45H256.811C257.937 1007.45 258.843 1007.29 259.53 1006.96C260.223 1006.63 260.724 1006.16 261.033 1005.56C261.349 1004.95 261.507 1004.22 261.507 1003.38C261.507 1002.53 261.349 1001.79 261.033 1001.16C260.718 1000.53 260.213 1000.04 259.52 999.7C258.826 999.35 257.91 999.175 256.77 999.175H252.28V1018H249.726ZM259.653 1008.53L264.844 1018H261.878L256.77 1008.53H259.653ZM277.297 1018H274.619L282.364 996.909H285L292.744 1018H290.067L283.764 1000.25H283.6L277.297 1018ZM278.286 1009.76H289.078V1012.03H278.286V1009.76Z" fill="black"/>
<path fill-rule="evenodd" clip-rule="evenodd" d="M107 324.722C104.524 324.906 102.023 325 99.5 325C44.5477 325 0 280.452 0 225.5C0 170.548 44.5477 126 99.5 126C152.269 126 195.443 167.077 198.791 219H273V385H107V324.722Z" fill="#FFDA01"/>
<path d="M130.73 478V455.455H138.612C140.183 455.455 141.478 455.726 142.498 456.269C143.518 456.805 144.278 457.528 144.777 458.438C145.276 459.341 145.526 460.342 145.526 461.443C145.526 462.412 145.353 463.212 145.008 463.843C144.671 464.474 144.223 464.973 143.665 465.34C143.115 465.707 142.517 465.979 141.871 466.155V466.375C142.561 466.419 143.254 466.661 143.951 467.102C144.649 467.542 145.232 468.173 145.702 468.995C146.171 469.817 146.406 470.822 146.406 472.011C146.406 473.142 146.149 474.158 145.636 475.061C145.122 475.963 144.311 476.679 143.203 477.207C142.095 477.736 140.652 478 138.876 478H130.73ZM133.46 475.578H138.876C140.66 475.578 141.926 475.233 142.674 474.543C143.43 473.846 143.808 473.002 143.808 472.011C143.808 471.248 143.614 470.544 143.225 469.898C142.836 469.245 142.282 468.723 141.562 468.335C140.843 467.938 139.992 467.74 139.009 467.74H133.46V475.578ZM133.46 465.362H138.524C139.346 465.362 140.087 465.201 140.748 464.878C141.416 464.555 141.944 464.1 142.333 463.513C142.729 462.926 142.928 462.236 142.928 461.443C142.928 460.452 142.583 459.612 141.893 458.922C141.203 458.225 140.109 457.876 138.612 457.876H133.46V465.362ZM178.634 466.727C178.634 469.105 178.204 471.16 177.346 472.892C176.487 474.624 175.309 475.96 173.812 476.899C172.315 477.839 170.605 478.308 168.682 478.308C166.759 478.308 165.049 477.839 163.552 476.899C162.055 475.96 160.877 474.624 160.018 472.892C159.16 471.16 158.73 469.105 158.73 466.727C158.73 464.349 159.16 462.295 160.018 460.562C160.877 458.83 162.055 457.495 163.552 456.555C165.049 455.616 166.759 455.146 168.682 455.146C170.605 455.146 172.315 455.616 173.812 456.555C175.309 457.495 176.487 458.83 177.346 460.562C178.204 462.295 178.634 464.349 178.634 466.727ZM175.992 466.727C175.992 464.775 175.665 463.127 175.012 461.784C174.366 460.441 173.489 459.425 172.381 458.735C171.28 458.045 170.047 457.7 168.682 457.7C167.317 457.7 166.08 458.045 164.972 458.735C163.871 459.425 162.994 460.441 162.341 461.784C161.695 463.127 161.372 464.775 161.372 466.727C161.372 468.679 161.695 470.327 162.341 471.67C162.994 473.013 163.871 474.03 164.972 474.719C166.08 475.409 167.317 475.754 168.682 475.754C170.047 475.754 171.28 475.409 172.381 474.719C173.489 474.03 174.366 473.013 175.012 471.67C175.665 470.327 175.992 468.679 175.992 466.727ZM183.224 478V455.455H190.842C192.604 455.455 194.049 455.755 195.18 456.357C196.31 456.952 197.146 457.77 197.689 458.812C198.233 459.854 198.504 461.04 198.504 462.368C198.504 463.696 198.233 464.874 197.689 465.902C197.146 466.929 196.313 467.736 195.191 468.324C194.068 468.903 192.633 469.193 190.886 469.193H184.721V466.727H190.798C192.002 466.727 192.97 466.551 193.704 466.199C194.446 465.847 194.981 465.348 195.312 464.702C195.649 464.049 195.818 463.271 195.818 462.368C195.818 461.465 195.649 460.676 195.312 460.001C194.974 459.326 194.435 458.805 193.693 458.438C192.952 458.064 191.972 457.876 190.754 457.876H185.954V478H183.224ZM193.836 467.872L199.385 478H196.214L190.754 467.872H193.836ZM212.697 478H209.835L218.113 455.455H220.931L229.21 478H226.347L219.61 459.021H219.434L212.697 478ZM213.754 469.193H225.291V471.615H213.754V469.193Z" fill="black"/>
<path fill-rule="evenodd" clip-rule="evenodd" d="M274.568 1163.61L260.5 1116L249.294 1153.93C241.342 1152.01 233.039 1151 224.5 1151C166.234 1151 119 1198.23 119 1256.5C119 1256.65 119 1256.81 119.001 1256.96H84.079L100.399 1270H55V1432H148.207L122.948 1475.75H154.21L151.466 1485.04L163.092 1475.75H342.052L328.475 1452.23L369.534 1485.04L327.887 1344.08L436.921 1256.96L329.999 1256.96C330 1256.81 330 1256.65 330 1256.5C330 1216.35 307.575 1181.44 274.568 1163.61Z" fill="#FFDA01"/>
<path fill-rule="evenodd" clip-rule="evenodd" d="M278.568 1656.61L264.5 1609L253.294 1646.93C245.342 1645.01 237.039 1644 228.5 1644C170.234 1644 123 1691.23 123 1749.5C123 1749.65 123 1749.81 123.001 1749.96H88.079L104.399 1763H59V1925H152.207L126.948 1968.75H158.21L155.466 1978.04L167.092 1968.75H346.052L332.475 1945.23L373.534 1978.04L331.887 1837.08L440.921 1749.96L333.999 1749.96C334 1749.81 334 1749.65 334 1749.5C334 1709.35 311.575 1674.44 278.568 1656.61Z" fill="#FFDA01"/>
</svg>
