<svg width="353" height="1968" viewBox="0 0 353 1968" fill="none" xmlns="http://www.w3.org/2000/svg">
<path fill-rule="evenodd" clip-rule="evenodd" d="M161.395 801.546C147.532 808.245 131.981 812 115.552 812C113.031 812 110.53 811.912 108.052 811.738V882H39.2591L14 925.75H233.104L161.395 801.546Z" fill="#3E9118"/>
<path d="M82.0322 14C81.8916 12.8125 81.3213 11.8906 80.3213 11.2344C79.3213 10.5781 78.0947 10.25 76.6416 10.25C75.5791 10.25 74.6494 10.4219 73.8525 10.7656C73.0635 11.1094 72.4463 11.582 72.001 12.1836C71.5635 12.7852 71.3447 13.4687 71.3447 14.2344C71.3447 14.875 71.4971 15.4258 71.8018 15.8867C72.1143 16.3398 72.5127 16.7187 72.9971 17.0234C73.4814 17.3203 73.9893 17.5664 74.5205 17.7617C75.0518 17.9492 75.54 18.1016 75.9854 18.2187L78.4229 18.875C79.0479 19.0391 79.7432 19.2656 80.5088 19.5547C81.2822 19.8437 82.0205 20.2383 82.7236 20.7383C83.4346 21.2305 84.0205 21.8633 84.4814 22.6367C84.9424 23.4102 85.1729 24.3594 85.1729 25.4844C85.1729 26.7812 84.833 27.9531 84.1533 29C83.4814 30.0469 82.4971 30.8789 81.2002 31.4961C79.9111 32.1133 78.3447 32.4219 76.501 32.4219C74.7822 32.4219 73.2939 32.1445 72.0361 31.5898C70.7861 31.0352 69.8018 30.2617 69.083 29.2695C68.3721 28.2773 67.9697 27.125 67.876 25.8125H70.876C70.9541 26.7187 71.2588 27.4687 71.79 28.0625C72.3291 28.6484 73.0088 29.0859 73.8291 29.375C74.6572 29.6562 75.5479 29.7969 76.501 29.7969C77.6104 29.7969 78.6064 29.6172 79.4893 29.2578C80.3721 28.8906 81.0713 28.3828 81.5869 27.7344C82.1025 27.0781 82.3604 26.3125 82.3604 25.4375C82.3604 24.6406 82.1377 23.9922 81.6924 23.4922C81.2471 22.9922 80.6611 22.5859 79.9346 22.2734C79.208 21.9609 78.4229 21.6875 77.5791 21.4531L74.626 20.6094C72.751 20.0703 71.2666 19.3008 70.1729 18.3008C69.0791 17.3008 68.5322 15.9922 68.5322 14.375C68.5322 13.0312 68.8955 11.8594 69.6221 10.8594C70.3564 9.85156 71.3408 9.07031 72.5752 8.51562C73.8174 7.95312 75.2041 7.67187 76.7354 7.67187C78.2822 7.67187 79.6572 7.94922 80.8604 8.50391C82.0635 9.05078 83.0166 9.80078 83.7197 10.7539C84.4307 11.707 84.8057 12.7891 84.8447 14H82.0322ZM100.92 24.6406V14H103.686V32H100.92V28.9531H100.732C100.311 29.8672 99.6543 30.6445 98.7637 31.2852C97.873 31.918 96.748 32.2344 95.3887 32.2344C94.2637 32.2344 93.2637 31.9883 92.3887 31.4961C91.5137 30.9961 90.8262 30.2461 90.3262 29.2461C89.8262 28.2383 89.5762 26.9687 89.5762 25.4375V14H92.3418V25.25C92.3418 26.5625 92.709 27.6094 93.4434 28.3906C94.1855 29.1719 95.1309 29.5625 96.2793 29.5625C96.9668 29.5625 97.666 29.3867 98.377 29.0352C99.0957 28.6836 99.6973 28.1445 100.182 27.418C100.674 26.6914 100.92 25.7656 100.92 24.6406ZM109.126 32V8H111.892V16.8594H112.126C112.329 16.5469 112.61 16.1484 112.97 15.6641C113.337 15.1719 113.86 14.7344 114.54 14.3516C115.228 13.9609 116.157 13.7656 117.329 13.7656C118.845 13.7656 120.181 14.1445 121.337 14.9023C122.493 15.6602 123.396 16.7344 124.044 18.125C124.692 19.5156 125.017 21.1562 125.017 23.0469C125.017 24.9531 124.692 26.6055 124.044 28.0039C123.396 29.3945 122.497 30.4727 121.349 31.2383C120.2 31.9961 118.876 32.375 117.376 32.375C116.22 32.375 115.294 32.1836 114.599 31.8008C113.903 31.4102 113.368 30.9687 112.993 30.4766C112.618 29.9766 112.329 29.5625 112.126 29.2344H111.798V32H109.126ZM111.845 23C111.845 24.3594 112.044 25.5586 112.442 26.5977C112.841 27.6289 113.423 28.4375 114.188 29.0234C114.954 29.6016 115.892 29.8906 117.001 29.8906C118.157 29.8906 119.122 29.5859 119.896 28.9766C120.677 28.3594 121.263 27.5312 121.653 26.4922C122.052 25.4453 122.251 24.2812 122.251 23C122.251 21.7344 122.056 20.5937 121.665 19.5781C121.282 18.5547 120.7 17.7461 119.919 17.1523C119.146 16.5508 118.173 16.25 117.001 16.25C115.876 16.25 114.931 16.5352 114.165 17.1055C113.399 17.668 112.821 18.457 112.431 19.4727C112.04 20.4805 111.845 21.6562 111.845 23ZM137.075 14V16.3437H127.747V14H137.075ZM130.466 9.6875H133.231V26.8438C133.231 27.625 133.345 28.2109 133.571 28.6016C133.806 28.9844 134.103 29.2422 134.462 29.375C134.829 29.5 135.216 29.5625 135.622 29.5625C135.927 29.5625 136.177 29.5469 136.372 29.5156C136.567 29.4766 136.724 29.4453 136.841 29.4219L137.403 31.9062C137.216 31.9766 136.954 32.0469 136.618 32.1172C136.282 32.1953 135.856 32.2344 135.341 32.2344C134.56 32.2344 133.794 32.0664 133.044 31.7305C132.302 31.3945 131.685 30.8828 131.192 30.1953C130.708 29.5078 130.466 28.6406 130.466 27.5937V9.6875ZM141.235 32V14H143.907V16.7187H144.095C144.423 15.8281 145.017 15.1055 145.876 14.5508C146.735 13.9961 147.704 13.7187 148.782 13.7187C148.985 13.7187 149.239 13.7227 149.544 13.7305C149.849 13.7383 150.079 13.75 150.235 13.7656V16.5781C150.142 16.5547 149.927 16.5195 149.591 16.4727C149.263 16.418 148.915 16.3906 148.548 16.3906C147.673 16.3906 146.892 16.5742 146.204 16.9414C145.524 17.3008 144.985 17.8008 144.587 18.4414C144.196 19.0742 144.001 19.7969 144.001 20.6094V32H141.235ZM158.811 32.4219C157.67 32.4219 156.635 32.207 155.705 31.7773C154.775 31.3398 154.037 30.7109 153.49 29.8906C152.943 29.0625 152.67 28.0625 152.67 26.8906C152.67 25.8594 152.873 25.0234 153.279 24.3828C153.686 23.7344 154.229 23.2266 154.908 22.8594C155.588 22.4922 156.338 22.2187 157.158 22.0391C157.986 21.8516 158.818 21.7031 159.654 21.5938C160.748 21.4531 161.635 21.3477 162.314 21.2773C163.002 21.1992 163.502 21.0703 163.814 20.8906C164.135 20.7109 164.295 20.3984 164.295 19.9531V19.8594C164.295 18.7031 163.979 17.8047 163.346 17.1641C162.721 16.5234 161.771 16.2031 160.498 16.2031C159.178 16.2031 158.143 16.4922 157.393 17.0703C156.643 17.6484 156.115 18.2656 155.811 18.9219L153.186 17.9844C153.654 16.8906 154.279 16.0391 155.061 15.4297C155.85 14.8125 156.709 14.3828 157.639 14.1406C158.576 13.8906 159.498 13.7656 160.404 13.7656C160.982 13.7656 161.646 13.8359 162.396 13.9766C163.154 14.1094 163.885 14.3867 164.588 14.8086C165.299 15.2305 165.889 15.8672 166.357 16.7187C166.826 17.5703 167.061 18.7109 167.061 20.1406V32H164.295V29.5625H164.154C163.967 29.9531 163.654 30.3711 163.217 30.8164C162.779 31.2617 162.197 31.6406 161.471 31.9531C160.744 32.2656 159.857 32.4219 158.811 32.4219ZM159.232 29.9375C160.326 29.9375 161.248 29.7227 161.998 29.293C162.756 28.8633 163.326 28.3086 163.709 27.6289C164.1 26.9492 164.295 26.2344 164.295 25.4844V22.9531C164.178 23.0937 163.92 23.2227 163.521 23.3398C163.131 23.4492 162.678 23.5469 162.162 23.6328C161.654 23.7109 161.158 23.7812 160.674 23.8437C160.197 23.8984 159.811 23.9453 159.514 23.9844C158.795 24.0781 158.123 24.2305 157.498 24.4414C156.881 24.6445 156.381 24.9531 155.998 25.3672C155.623 25.7734 155.436 26.3281 155.436 27.0312C155.436 27.9922 155.791 28.7187 156.502 29.2109C157.221 29.6953 158.131 29.9375 159.232 29.9375ZM179.421 32.375C177.733 32.375 176.28 31.9766 175.062 31.1797C173.843 30.3828 172.905 29.2852 172.249 27.8867C171.593 26.4883 171.265 24.8906 171.265 23.0937C171.265 21.2656 171.601 19.6523 172.272 18.2539C172.952 16.8477 173.897 15.75 175.108 14.9609C176.327 14.1641 177.749 13.7656 179.374 13.7656C180.64 13.7656 181.78 14 182.796 14.4688C183.812 14.9375 184.644 15.5937 185.292 16.4375C185.94 17.2812 186.343 18.2656 186.499 19.3906H183.733C183.522 18.5703 183.054 17.8437 182.327 17.2109C181.608 16.5703 180.64 16.25 179.421 16.25C178.343 16.25 177.397 16.5312 176.585 17.0937C175.78 17.6484 175.151 18.4336 174.698 19.4492C174.253 20.457 174.03 21.6406 174.03 23C174.03 24.3906 174.249 25.6016 174.687 26.6328C175.132 27.6641 175.757 28.4648 176.562 29.0352C177.374 29.6055 178.327 29.8906 179.421 29.8906C180.14 29.8906 180.792 29.7656 181.378 29.5156C181.964 29.2656 182.46 28.9062 182.866 28.4375C183.272 27.9687 183.562 27.4062 183.733 26.75H186.499C186.343 27.8125 185.956 28.7695 185.339 29.6211C184.729 30.4648 183.921 31.1367 182.913 31.6367C181.913 32.1289 180.749 32.375 179.421 32.375ZM198.37 14V16.3437H189.042V14H198.37ZM191.761 9.6875H194.526V26.8438C194.526 27.625 194.64 28.2109 194.866 28.6016C195.101 28.9844 195.397 29.2422 195.757 29.375C196.124 29.5 196.511 29.5625 196.917 29.5625C197.222 29.5625 197.472 29.5469 197.667 29.5156C197.862 29.4766 198.019 29.4453 198.136 29.4219L198.698 31.9062C198.511 31.9766 198.249 32.0469 197.913 32.1172C197.577 32.1953 197.151 32.2344 196.636 32.2344C195.854 32.2344 195.089 32.0664 194.339 31.7305C193.597 31.3945 192.979 30.8828 192.487 30.1953C192.003 29.5078 191.761 28.6406 191.761 27.5937V9.6875Z" fill="#354471"/>
<path d="M17.0895 1006.45C17.0895 1003.86 17.4259 1001.47 18.0987 999.297C18.7784 997.114 19.7464 995.106 21.0028 993.273H23.1449C22.6506 993.952 22.1871 994.79 21.7546 995.786C21.329 996.774 20.9548 997.862 20.6321 999.05C20.3094 1000.23 20.0554 1001.45 19.87 1002.72C19.6915 1003.98 19.6023 1005.23 19.6023 1006.45C19.6023 1008.09 19.7602 1009.75 20.076 1011.43C20.3918 1013.11 20.8175 1014.67 21.353 1016.11C21.8885 1017.56 22.4858 1018.73 23.1449 1019.64H21.0028C19.7464 1017.8 18.7784 1015.8 18.0987 1013.62C17.4259 1011.44 17.0895 1009.05 17.0895 1006.45ZM44.0324 1002.5H41.4784C41.3274 1001.77 41.0631 1001.12 40.6855 1000.56C40.3147 1000.01 39.8616 999.541 39.3261 999.163C38.7974 998.779 38.2104 998.491 37.5651 998.298C36.9197 998.106 36.2469 998.01 35.5466 998.01C34.2696 998.01 33.1128 998.333 32.0761 998.978C31.0463 999.623 30.2258 1000.57 29.6148 1001.83C29.0106 1003.09 28.7085 1004.63 28.7085 1006.45C28.7085 1008.28 29.0106 1009.82 29.6148 1011.08C30.2258 1012.33 31.0463 1013.29 32.0761 1013.93C33.1128 1014.58 34.2696 1014.9 35.5466 1014.9C36.2469 1014.9 36.9197 1014.8 37.5651 1014.61C38.2104 1014.42 38.7974 1014.13 39.3261 1013.76C39.8616 1013.37 40.3147 1012.9 40.6855 1012.35C41.0631 1011.78 41.3274 1011.14 41.4784 1010.41H44.0324C43.8402 1011.49 43.49 1012.45 42.982 1013.3C42.4739 1014.15 41.8423 1014.88 41.0871 1015.48C40.3319 1016.07 39.484 1016.52 38.5434 1016.82C37.6097 1017.13 36.6108 1017.29 35.5466 1017.29C33.7478 1017.29 32.1482 1016.85 30.7476 1015.97C29.347 1015.09 28.2451 1013.84 27.4419 1012.22C26.6386 1010.6 26.2369 1008.68 26.2369 1006.45C26.2369 1004.23 26.6386 1002.31 27.4419 1000.69C28.2451 999.067 29.347 997.818 30.7476 996.939C32.1482 996.06 33.7478 995.621 35.5466 995.621C36.6108 995.621 37.6097 995.775 38.5434 996.084C39.484 996.393 40.3319 996.846 41.0871 997.444C41.8423 998.034 42.4739 998.755 42.982 999.606C43.49 1000.45 43.8402 1001.42 44.0324 1002.5ZM73.0401 995.909V1017H70.5685L59.0756 1000.44H58.8697V1017H56.3157V995.909H58.7873L70.3214 1012.51H70.5273V995.909H73.0401ZM95.9461 1006.45C95.9461 1008.68 95.5445 1010.6 94.7412 1012.22C93.9379 1013.84 92.836 1015.09 91.4355 1015.97C90.0349 1016.85 88.4352 1017.29 86.6365 1017.29C84.8377 1017.29 83.238 1016.85 81.8374 1015.97C80.4369 1015.09 79.335 1013.84 78.5317 1012.22C77.7284 1010.6 77.3268 1008.68 77.3268 1006.45C77.3268 1004.23 77.7284 1002.31 78.5317 1000.69C79.335 999.067 80.4369 997.818 81.8374 996.939C83.238 996.06 84.8377 995.621 86.6365 995.621C88.4352 995.621 90.0349 996.06 91.4355 996.939C92.836 997.818 93.9379 999.067 94.7412 1000.69C95.5445 1002.31 95.9461 1004.23 95.9461 1006.45ZM93.4745 1006.45C93.4745 1004.63 93.169 1003.09 92.558 1001.83C91.9538 1000.57 91.1334 999.623 90.0967 998.978C89.0669 998.333 87.9134 998.01 86.6365 998.01C85.3595 998.01 84.2026 998.333 83.1659 998.978C82.1361 999.623 81.3157 1000.57 80.7046 1001.83C80.1005 1003.09 79.7984 1004.63 79.7984 1006.45C79.7984 1008.28 80.1005 1009.82 80.7046 1011.08C81.3157 1012.33 82.1361 1013.29 83.1659 1013.93C84.2026 1014.58 85.3595 1014.9 86.6365 1014.9C87.9134 1014.9 89.0669 1014.58 90.0967 1013.93C91.1334 1013.29 91.9538 1012.33 92.558 1011.08C93.169 1009.82 93.4745 1008.28 93.4745 1006.45ZM98.2092 998.175V995.909H114.027V998.175H107.395V1017H104.841V998.175H98.2092ZM126.125 1017V995.909H133.499C134.968 995.909 136.18 996.163 137.134 996.671C138.088 997.172 138.799 997.849 139.266 998.7C139.733 999.544 139.966 1000.48 139.966 1001.51C139.966 1002.42 139.805 1003.17 139.482 1003.76C139.166 1004.35 138.748 1004.81 138.226 1005.16C137.711 1005.5 137.151 1005.75 136.547 1005.92V1006.12C137.193 1006.17 137.841 1006.39 138.494 1006.8C139.146 1007.22 139.692 1007.81 140.131 1008.58C140.57 1009.34 140.79 1010.29 140.79 1011.4C140.79 1012.46 140.55 1013.41 140.069 1014.25C139.589 1015.09 138.83 1015.76 137.793 1016.26C136.757 1016.75 135.407 1017 133.746 1017H126.125ZM128.679 1014.73H133.746C135.414 1014.73 136.599 1014.41 137.299 1013.77C138.006 1013.11 138.36 1012.32 138.36 1011.4C138.36 1010.68 138.178 1010.02 137.814 1009.42C137.45 1008.81 136.932 1008.32 136.259 1007.96C135.586 1007.59 134.79 1007.4 133.87 1007.4H128.679V1014.73ZM128.679 1005.18H133.416C134.185 1005.18 134.879 1005.03 135.497 1004.72C136.121 1004.42 136.616 1004 136.98 1003.45C137.35 1002.9 137.536 1002.25 137.536 1001.51C137.536 1000.58 137.213 999.798 136.568 999.153C135.922 998.501 134.899 998.175 133.499 998.175H128.679V1005.18ZM149.847 1006.45C149.847 1009.05 149.508 1011.44 148.828 1013.62C148.155 1015.8 147.19 1017.8 145.934 1019.64H143.792C144.286 1018.96 144.746 1018.12 145.172 1017.12C145.604 1016.13 145.982 1015.05 146.305 1013.87C146.627 1012.68 146.878 1011.46 147.057 1010.19C147.242 1008.92 147.335 1007.68 147.335 1006.45C147.335 1004.82 147.177 1003.16 146.861 1001.48C146.545 999.798 146.119 998.237 145.584 996.795C145.048 995.353 144.451 994.179 143.792 993.273H145.934C147.19 995.106 148.155 997.114 148.828 999.297C149.508 1001.47 149.847 1003.86 149.847 1006.45ZM180.374 995.909V1017H177.903L166.41 1000.44H166.204V1017H163.65V995.909H166.121L177.655 1012.51H177.861V995.909H180.374ZM203.28 1006.45C203.28 1008.68 202.878 1010.6 202.075 1012.22C201.272 1013.84 200.17 1015.09 198.769 1015.97C197.369 1016.85 195.769 1017.29 193.97 1017.29C192.172 1017.29 190.572 1016.85 189.171 1015.97C187.771 1015.09 186.669 1013.84 185.866 1012.22C185.062 1010.6 184.661 1008.68 184.661 1006.45C184.661 1004.23 185.062 1002.31 185.866 1000.69C186.669 999.067 187.771 997.818 189.171 996.939C190.572 996.06 192.172 995.621 193.97 995.621C195.769 995.621 197.369 996.06 198.769 996.939C200.17 997.818 201.272 999.067 202.075 1000.69C202.878 1002.31 203.28 1004.23 203.28 1006.45ZM200.809 1006.45C200.809 1004.63 200.503 1003.09 199.892 1001.83C199.288 1000.57 198.467 999.623 197.431 998.978C196.401 998.333 195.247 998.01 193.97 998.01C192.693 998.01 191.537 998.333 190.5 998.978C189.47 999.623 188.65 1000.57 188.039 1001.83C187.434 1003.09 187.132 1004.63 187.132 1006.45C187.132 1008.28 187.434 1009.82 188.039 1011.08C188.65 1012.33 189.47 1013.29 190.5 1013.93C191.537 1014.58 192.693 1014.9 193.97 1014.9C195.247 1014.9 196.401 1014.58 197.431 1013.93C198.467 1013.29 199.288 1012.33 199.892 1011.08C200.503 1009.82 200.809 1008.28 200.809 1006.45ZM205.543 998.175V995.909H221.361V998.175H214.729V1017H212.175V998.175H205.543ZM234.324 1017H231.647L239.391 995.909H242.027L249.772 1017H247.094L240.792 999.246H240.627L234.324 1017ZM235.313 1008.76H246.106V1011.03H235.313V1008.76Z" fill="black"/>
<path fill-rule="evenodd" clip-rule="evenodd" d="M51 323.722C102.449 319.887 143 276.929 143 224.5C143 222.316 142.93 220.149 142.791 218H217V384H51V323.722Z" fill="#F25D5D"/>
<path d="M91.7301 477V454.455H99.6122C101.183 454.455 102.478 454.726 103.498 455.269C104.518 455.805 105.278 456.528 105.777 457.438C106.276 458.341 106.526 459.342 106.526 460.443C106.526 461.412 106.353 462.212 106.008 462.843C105.671 463.474 105.223 463.973 104.665 464.34C104.115 464.707 103.517 464.979 102.871 465.155V465.375C103.561 465.419 104.254 465.661 104.951 466.102C105.649 466.542 106.232 467.173 106.702 467.995C107.171 468.817 107.406 469.822 107.406 471.011C107.406 472.142 107.149 473.158 106.636 474.061C106.122 474.963 105.311 475.679 104.203 476.207C103.095 476.736 101.652 477 99.8764 477H91.7301ZM94.4602 474.578H99.8764C101.66 474.578 102.926 474.233 103.674 473.543C104.43 472.846 104.808 472.002 104.808 471.011C104.808 470.248 104.614 469.544 104.225 468.898C103.836 468.245 103.282 467.723 102.562 467.335C101.843 466.938 100.992 466.74 100.009 466.74H94.4602V474.578ZM94.4602 464.362H99.5241C100.346 464.362 101.087 464.201 101.748 463.878C102.416 463.555 102.944 463.1 103.333 462.513C103.729 461.926 103.928 461.236 103.928 460.443C103.928 459.452 103.583 458.612 102.893 457.922C102.203 457.225 101.109 456.876 99.6122 456.876H94.4602V464.362ZM138.489 454.455V477H135.847L123.561 459.298H123.341V477H120.611V454.455H123.253L135.583 472.2H135.803V454.455H138.489ZM162.975 465.727C162.975 468.105 162.545 470.16 161.687 471.892C160.828 473.624 159.65 474.96 158.153 475.899C156.656 476.839 154.946 477.308 153.023 477.308C151.1 477.308 149.39 476.839 147.893 475.899C146.396 474.96 145.218 473.624 144.359 471.892C143.5 470.16 143.071 468.105 143.071 465.727C143.071 463.349 143.5 461.295 144.359 459.562C145.218 457.83 146.396 456.495 147.893 455.555C149.39 454.616 151.1 454.146 153.023 454.146C154.946 454.146 156.656 454.616 158.153 455.555C159.65 456.495 160.828 457.83 161.687 459.562C162.545 461.295 162.975 463.349 162.975 465.727ZM160.332 465.727C160.332 463.775 160.006 462.127 159.353 460.784C158.707 459.441 157.83 458.425 156.722 457.735C155.621 457.045 154.388 456.7 153.023 456.7C151.658 456.7 150.421 457.045 149.313 457.735C148.212 458.425 147.335 459.441 146.682 460.784C146.036 462.127 145.713 463.775 145.713 465.727C145.713 467.679 146.036 469.327 146.682 470.67C147.335 472.013 148.212 473.03 149.313 473.719C150.421 474.409 151.658 474.754 153.023 474.754C154.388 474.754 155.621 474.409 156.722 473.719C157.83 473.03 158.707 472.013 159.353 470.67C160.006 469.327 160.332 467.679 160.332 465.727ZM165.394 456.876V454.455H182.303V456.876H175.213V477H172.483V456.876H165.394ZM196.16 477H193.297L201.576 454.455H204.394L212.672 477H209.81L203.073 458.021H202.897L196.16 477ZM197.217 468.193H208.753V470.615H197.217V468.193Z" fill="black"/>
<path fill-rule="evenodd" clip-rule="evenodd" d="M190.568 1162.61L176.5 1115L165.294 1152.93C174.214 1155.08 182.692 1158.36 190.568 1162.61ZM245.999 1255.96C245.821 1297.6 221.517 1333.55 186.343 1350.55L244.475 1451.23L285.534 1484.04L243.887 1343.08L352.921 1255.96L245.999 1255.96ZM35.8558 1269C35.3101 1264.73 35.0199 1260.38 35.0011 1255.96H0.0791016L16.3988 1269H35.8558ZM79.0923 1474.75H70.2105L67.4659 1484.04L79.0923 1474.75Z" fill="#456EE9"/>
<path fill-rule="evenodd" clip-rule="evenodd" d="M42.9478 1967.75L68.2068 1924H87.1365L74.2104 1967.75H42.9478ZM83.0922 1967.75H262.052L248.475 1944.23L180.5 1889.92L83.0922 1967.75Z" fill="#3E9118"/>
</svg>
