<svg width="391" height="1978" viewBox="0 0 391 1978" fill="none" xmlns="http://www.w3.org/2000/svg">
<path fill-rule="evenodd" clip-rule="evenodd" d="M244.343 795.546C279.647 778.487 304 742.337 304 700.5C304 642.234 256.766 595 198.5 595C140.234 595 93 642.234 93 700.5C93 705.074 93.2911 709.58 93.8557 714H29V876H122.207L96.9478 919.75H316.052L244.343 795.546ZM191 805.738V756.847L206.5 730L244.343 795.546C230.48 802.245 214.929 806 198.5 806C195.978 806 193.477 805.912 191 805.738ZM165.635 800.78L122.207 876H191V805.738C182.204 805.12 173.705 803.424 165.635 800.78ZM165.635 800.78L191 756.847V714H93.8557C99.0671 754.801 127.584 788.318 165.635 800.78Z" fill="#FFDA01"/>
<path d="M127.472 32H120.066V8H127.8C130.128 8 132.121 8.48047 133.777 9.44141C135.433 10.3945 136.703 11.7656 137.585 13.5547C138.468 15.3359 138.91 17.4687 138.91 19.9531C138.91 22.4531 138.464 24.6055 137.574 26.4102C136.683 28.207 135.386 29.5898 133.683 30.5586C131.98 31.5195 129.91 32 127.472 32ZM122.972 29.4219H127.285C129.269 29.4219 130.914 29.0391 132.218 28.2734C133.523 27.5078 134.496 26.418 135.136 25.0039C135.777 23.5898 136.097 21.9062 136.097 19.9531C136.097 18.0156 135.781 16.3477 135.148 14.9492C134.515 13.543 133.57 12.4648 132.312 11.7148C131.054 10.957 129.488 10.5781 127.613 10.5781H122.972V29.4219ZM143.41 32V14H146.175V32H143.41ZM144.816 11C144.277 11 143.812 10.8164 143.421 10.4492C143.039 10.082 142.847 9.64063 142.847 9.125C142.847 8.60938 143.039 8.16797 143.421 7.80078C143.812 7.43359 144.277 7.25 144.816 7.25C145.355 7.25 145.816 7.43359 146.199 7.80078C146.589 8.16797 146.785 8.60938 146.785 9.125C146.785 9.64063 146.589 10.082 146.199 10.4492C145.816 10.8164 145.355 11 144.816 11ZM159.256 14V16.3437H149.553V14H159.256ZM152.459 32V11.5156C152.459 10.4844 152.702 9.625 153.186 8.9375C153.67 8.25 154.299 7.73437 155.073 7.39062C155.846 7.04687 156.663 6.875 157.522 6.875C158.202 6.875 158.756 6.92969 159.186 7.03906C159.616 7.14844 159.936 7.25 160.147 7.34375L159.35 9.73437C159.209 9.6875 159.014 9.62891 158.764 9.55859C158.522 9.48828 158.202 9.45312 157.803 9.45312C156.889 9.45312 156.229 9.68359 155.823 10.1445C155.424 10.6055 155.225 11.2812 155.225 12.1719V32H152.459ZM171.148 14V16.3437H161.445V14H171.148ZM164.351 32V11.5156C164.351 10.4844 164.593 9.625 165.078 8.9375C165.562 8.25 166.191 7.73437 166.964 7.39062C167.738 7.04687 168.554 6.875 169.414 6.875C170.093 6.875 170.648 6.92969 171.078 7.03906C171.507 7.14844 171.828 7.25 172.039 7.34375L171.242 9.73437C171.101 9.6875 170.906 9.62891 170.656 9.55859C170.414 9.48828 170.093 9.45312 169.695 9.45312C168.781 9.45312 168.121 9.68359 167.714 10.1445C167.316 10.6055 167.117 11.2812 167.117 12.1719V32H164.351ZM181.83 32.375C180.095 32.375 178.599 31.9922 177.341 31.2266C176.091 30.4531 175.126 29.375 174.447 27.9922C173.775 26.6016 173.439 24.9844 173.439 23.1406C173.439 21.2969 173.775 19.6719 174.447 18.2656C175.126 16.8516 176.072 15.75 177.283 14.9609C178.501 14.1641 179.923 13.7656 181.548 13.7656C182.486 13.7656 183.412 13.9219 184.326 14.2344C185.24 14.5469 186.072 15.0547 186.822 15.7578C187.572 16.4531 188.169 17.375 188.615 18.5234C189.06 19.6719 189.283 21.0859 189.283 22.7656V23.9375H175.408V21.5469H186.47C186.47 20.5312 186.267 19.625 185.861 18.8281C185.462 18.0312 184.892 17.4023 184.15 16.9414C183.416 16.4805 182.548 16.25 181.548 16.25C180.447 16.25 179.494 16.5234 178.689 17.0703C177.892 17.6094 177.279 18.3125 176.849 19.1797C176.419 20.0469 176.205 20.9766 176.205 21.9687V23.5625C176.205 24.9219 176.439 26.0742 176.908 27.0195C177.384 27.957 178.044 28.6719 178.888 29.1641C179.732 29.6484 180.712 29.8906 181.83 29.8906C182.556 29.8906 183.212 29.7891 183.798 29.5859C184.392 29.375 184.904 29.0625 185.333 28.6484C185.763 28.2266 186.095 27.7031 186.33 27.0781L189.001 27.8281C188.72 28.7344 188.248 29.5312 187.583 30.2187C186.919 30.8984 186.099 31.4297 185.123 31.8125C184.146 32.1875 183.048 32.375 181.83 32.375ZM193.49 32V14H196.162V16.7187H196.349C196.677 15.8281 197.271 15.1055 198.13 14.5508C198.99 13.9961 199.958 13.7187 201.037 13.7187C201.24 13.7187 201.494 13.7227 201.798 13.7305C202.103 13.7383 202.333 13.75 202.49 13.7656V16.5781C202.396 16.5547 202.181 16.5195 201.845 16.4727C201.517 16.418 201.169 16.3906 200.802 16.3906C199.927 16.3906 199.146 16.5742 198.458 16.9414C197.779 17.3008 197.24 17.8008 196.841 18.4414C196.451 19.0742 196.255 19.7969 196.255 20.6094V32H193.49ZM212.767 32.375C211.033 32.375 209.537 31.9922 208.279 31.2266C207.029 30.4531 206.064 29.375 205.384 27.9922C204.712 26.6016 204.376 24.9844 204.376 23.1406C204.376 21.2969 204.712 19.6719 205.384 18.2656C206.064 16.8516 207.009 15.75 208.22 14.9609C209.439 14.1641 210.861 13.7656 212.486 13.7656C213.423 13.7656 214.349 13.9219 215.263 14.2344C216.177 14.5469 217.009 15.0547 217.759 15.7578C218.509 16.4531 219.107 17.375 219.552 18.5234C219.998 19.6719 220.22 21.0859 220.22 22.7656V23.9375H206.345V21.5469H217.408C217.408 20.5312 217.205 19.625 216.798 18.8281C216.4 18.0312 215.83 17.4023 215.087 16.9414C214.353 16.4805 213.486 16.25 212.486 16.25C211.384 16.25 210.431 16.5234 209.626 17.0703C208.83 17.6094 208.216 18.3125 207.787 19.1797C207.357 20.0469 207.142 20.9766 207.142 21.9687V23.5625C207.142 24.9219 207.376 26.0742 207.845 27.0195C208.322 27.957 208.982 28.6719 209.826 29.1641C210.669 29.6484 211.65 29.8906 212.767 29.8906C213.494 29.8906 214.15 29.7891 214.736 29.5859C215.33 29.375 215.841 29.0625 216.271 28.6484C216.701 28.2266 217.033 27.7031 217.267 27.0781L219.939 27.8281C219.658 28.7344 219.185 29.5312 218.521 30.2187C217.857 30.8984 217.037 31.4297 216.06 31.8125C215.083 32.1875 213.986 32.375 212.767 32.375ZM227.193 21.1719V32H224.427V14H227.099V16.8125H227.333C227.755 15.8984 228.396 15.1641 229.255 14.6094C230.115 14.0469 231.224 13.7656 232.583 13.7656C233.802 13.7656 234.869 14.0156 235.783 14.5156C236.697 15.0078 237.408 15.7578 237.916 16.7656C238.423 17.7656 238.677 19.0312 238.677 20.5625V32H235.912V20.75C235.912 19.3359 235.544 18.2344 234.81 17.4453C234.076 16.6484 233.068 16.25 231.787 16.25C230.904 16.25 230.115 16.4414 229.419 16.8242C228.732 17.207 228.189 17.7656 227.791 18.5C227.392 19.2344 227.193 20.125 227.193 21.1719ZM251.043 32.375C249.356 32.375 247.903 31.9766 246.684 31.1797C245.465 30.3828 244.528 29.2852 243.872 27.8867C243.215 26.4883 242.887 24.8906 242.887 23.0937C242.887 21.2656 243.223 19.6523 243.895 18.2539C244.575 16.8477 245.52 15.75 246.731 14.9609C247.95 14.1641 249.372 13.7656 250.997 13.7656C252.262 13.7656 253.403 14 254.418 14.4688C255.434 14.9375 256.266 15.5937 256.915 16.4375C257.563 17.2812 257.965 18.2656 258.122 19.3906H255.356C255.145 18.5703 254.676 17.8437 253.95 17.2109C253.231 16.5703 252.262 16.25 251.043 16.25C249.965 16.25 249.02 16.5312 248.208 17.0937C247.403 17.6484 246.774 18.4336 246.321 19.4492C245.875 20.457 245.653 21.6406 245.653 23C245.653 24.3906 245.872 25.6016 246.309 26.6328C246.754 27.6641 247.379 28.4648 248.184 29.0352C248.997 29.6055 249.95 29.8906 251.043 29.8906C251.762 29.8906 252.415 29.7656 253 29.5156C253.586 29.2656 254.083 28.9062 254.489 28.4375C254.895 27.9687 255.184 27.4062 255.356 26.75H258.122C257.965 27.8125 257.579 28.7695 256.961 29.6211C256.352 30.4648 255.543 31.1367 254.536 31.6367C253.536 32.1289 252.372 32.375 251.043 32.375ZM269.711 32.375C267.977 32.375 266.481 31.9922 265.223 31.2266C263.973 30.4531 263.008 29.375 262.329 27.9922C261.657 26.6016 261.321 24.9844 261.321 23.1406C261.321 21.2969 261.657 19.6719 262.329 18.2656C263.008 16.8516 263.954 15.75 265.165 14.9609C266.383 14.1641 267.805 13.7656 269.43 13.7656C270.368 13.7656 271.293 13.9219 272.208 14.2344C273.122 14.5469 273.954 15.0547 274.704 15.7578C275.454 16.4531 276.051 17.375 276.497 18.5234C276.942 19.6719 277.165 21.0859 277.165 22.7656V23.9375H263.29V21.5469H274.352C274.352 20.5312 274.149 19.625 273.743 18.8281C273.344 18.0312 272.774 17.4023 272.032 16.9414C271.297 16.4805 270.43 16.25 269.43 16.25C268.329 16.25 267.375 16.5234 266.571 17.0703C265.774 17.6094 265.161 18.3125 264.731 19.1797C264.301 20.0469 264.086 20.9766 264.086 21.9687V23.5625C264.086 24.9219 264.321 26.0742 264.79 27.0195C265.266 27.957 265.926 28.6719 266.77 29.1641C267.614 29.6484 268.594 29.8906 269.711 29.8906C270.438 29.8906 271.094 29.7891 271.68 29.5859C272.274 29.375 272.786 29.0625 273.215 28.6484C273.645 28.2266 273.977 27.7031 274.211 27.0781L276.883 27.8281C276.602 28.7344 276.129 29.5312 275.465 30.2187C274.801 30.8984 273.981 31.4297 273.004 31.8125C272.028 32.1875 270.93 32.375 269.711 32.375Z" fill="#354471"/>
<path d="M64.0895 1006.45C64.0895 1003.86 64.4259 1001.47 65.0987 999.297C65.7784 997.114 66.7464 995.106 68.0028 993.273H70.1449C69.6506 993.952 69.1871 994.79 68.7546 995.786C68.329 996.774 67.9548 997.862 67.6321 999.05C67.3094 1000.23 67.0554 1001.45 66.87 1002.72C66.6915 1003.98 66.6023 1005.23 66.6023 1006.45C66.6023 1008.09 66.7602 1009.75 67.076 1011.43C67.3918 1013.11 67.8175 1014.67 68.353 1016.11C68.8885 1017.56 69.4858 1018.73 70.1449 1019.64H68.0028C66.7464 1017.8 65.7784 1015.8 65.0987 1013.62C64.4259 1011.44 64.0895 1009.05 64.0895 1006.45ZM91.0324 1002.5H88.4784C88.3274 1001.77 88.0631 1001.12 87.6855 1000.56C87.3147 1000.01 86.8616 999.541 86.3261 999.163C85.7974 998.779 85.2104 998.491 84.5651 998.298C83.9197 998.106 83.2469 998.01 82.5466 998.01C81.2696 998.01 80.1128 998.333 79.0761 998.978C78.0463 999.623 77.2258 1000.57 76.6148 1001.83C76.0106 1003.09 75.7085 1004.63 75.7085 1006.45C75.7085 1008.28 76.0106 1009.82 76.6148 1011.08C77.2258 1012.33 78.0463 1013.29 79.0761 1013.93C80.1128 1014.58 81.2696 1014.9 82.5466 1014.9C83.2469 1014.9 83.9197 1014.8 84.5651 1014.61C85.2104 1014.42 85.7974 1014.13 86.3261 1013.76C86.8616 1013.37 87.3147 1012.9 87.6855 1012.35C88.0631 1011.78 88.3274 1011.14 88.4784 1010.41H91.0324C90.8402 1011.49 90.49 1012.45 89.982 1013.3C89.4739 1014.15 88.8423 1014.88 88.0871 1015.48C87.3319 1016.07 86.484 1016.52 85.5434 1016.82C84.6097 1017.13 83.6108 1017.29 82.5466 1017.29C80.7478 1017.29 79.1482 1016.85 77.7476 1015.97C76.347 1015.09 75.2451 1013.84 74.4419 1012.22C73.6386 1010.6 73.2369 1008.68 73.2369 1006.45C73.2369 1004.23 73.6386 1002.31 74.4419 1000.69C75.2451 999.067 76.347 997.818 77.7476 996.939C79.1482 996.06 80.7478 995.621 82.5466 995.621C83.6108 995.621 84.6097 995.775 85.5434 996.084C86.484 996.393 87.3319 996.846 88.0871 997.444C88.8423 998.034 89.4739 998.755 89.982 999.606C90.49 1000.45 90.8402 1001.42 91.0324 1002.5ZM104.551 995.909L109.989 1004.68H110.154L115.591 995.909H118.598L111.966 1006.45L118.598 1017H115.591L110.154 1008.39H109.989L104.551 1017H101.544L108.341 1006.45L101.544 995.909H104.551ZM139.378 1006.45C139.378 1008.68 138.976 1010.6 138.173 1012.22C137.37 1013.84 136.268 1015.09 134.867 1015.97C133.467 1016.85 131.867 1017.29 130.068 1017.29C128.269 1017.29 126.67 1016.85 125.269 1015.97C123.869 1015.09 122.767 1013.84 121.963 1012.22C121.16 1010.6 120.758 1008.68 120.758 1006.45C120.758 1004.23 121.16 1002.31 121.963 1000.69C122.767 999.067 123.869 997.818 125.269 996.939C126.67 996.06 128.269 995.621 130.068 995.621C131.867 995.621 133.467 996.06 134.867 996.939C136.268 997.818 137.37 999.067 138.173 1000.69C138.976 1002.31 139.378 1004.23 139.378 1006.45ZM136.906 1006.45C136.906 1004.63 136.601 1003.09 135.99 1001.83C135.385 1000.57 134.565 999.623 133.528 998.978C132.498 998.333 131.345 998.01 130.068 998.01C128.791 998.01 127.634 998.333 126.598 998.978C125.568 999.623 124.747 1000.57 124.136 1001.83C123.532 1003.09 123.23 1004.63 123.23 1006.45C123.23 1008.28 123.532 1009.82 124.136 1011.08C124.747 1012.33 125.568 1013.29 126.598 1013.93C127.634 1014.58 128.791 1014.9 130.068 1014.9C131.345 1014.9 132.498 1014.58 133.528 1013.93C134.565 1013.29 135.385 1012.33 135.99 1011.08C136.601 1009.82 136.906 1008.28 136.906 1006.45ZM143.672 1017V995.909H150.799C152.446 995.909 153.799 996.191 154.856 996.754C155.913 997.31 156.696 998.075 157.204 999.05C157.712 1000.02 157.966 1001.13 157.966 1002.38C157.966 1003.62 157.712 1004.72 157.204 1005.68C156.696 1006.64 155.917 1007.4 154.866 1007.95C153.816 1008.49 152.474 1008.76 150.84 1008.76H145.073V1006.45H150.757C151.883 1006.45 152.79 1006.29 153.476 1005.96C154.17 1005.63 154.671 1005.16 154.98 1004.56C155.295 1003.95 155.453 1003.22 155.453 1002.38C155.453 1001.53 155.295 1000.79 154.98 1000.16C154.664 999.531 154.159 999.043 153.466 998.7C152.772 998.35 151.856 998.175 150.716 998.175H146.226V1017H143.672ZM153.6 1007.53L158.79 1017H155.824L150.716 1007.53H153.6ZM170.378 1017V995.909H177.752C179.221 995.909 180.433 996.163 181.387 996.671C182.341 997.172 183.052 997.849 183.519 998.7C183.986 999.544 184.219 1000.48 184.219 1001.51C184.219 1002.42 184.058 1003.17 183.735 1003.76C183.419 1004.35 183 1004.81 182.479 1005.16C181.964 1005.5 181.404 1005.75 180.8 1005.92V1006.12C181.445 1006.17 182.094 1006.39 182.746 1006.8C183.399 1007.22 183.944 1007.81 184.384 1008.58C184.823 1009.34 185.043 1010.29 185.043 1011.4C185.043 1012.46 184.803 1013.41 184.322 1014.25C183.842 1015.09 183.083 1015.76 182.046 1016.26C181.009 1016.75 179.66 1017 177.999 1017H170.378ZM172.932 1014.73H177.999C179.667 1014.73 180.852 1014.41 181.552 1013.77C182.259 1013.11 182.613 1012.32 182.613 1011.4C182.613 1010.68 182.431 1010.02 182.067 1009.42C181.703 1008.81 181.185 1008.32 180.512 1007.96C179.839 1007.59 179.042 1007.4 178.123 1007.4H172.932V1014.73ZM172.932 1005.18H177.669C178.438 1005.18 179.132 1005.03 179.75 1004.72C180.374 1004.42 180.869 1004 181.233 1003.45C181.603 1002.9 181.789 1002.25 181.789 1001.51C181.789 1000.58 181.466 999.798 180.821 999.153C180.175 998.501 179.152 998.175 177.752 998.175H172.932V1005.18ZM194.1 1006.45C194.1 1009.05 193.76 1011.44 193.081 1013.62C192.408 1015.8 191.443 1017.8 190.187 1019.64H188.045C188.539 1018.96 188.999 1018.12 189.425 1017.12C189.857 1016.13 190.235 1015.05 190.558 1013.87C190.88 1012.68 191.131 1011.46 191.309 1010.19C191.495 1008.92 191.588 1007.68 191.588 1006.45C191.588 1004.82 191.43 1003.16 191.114 1001.48C190.798 999.798 190.372 998.237 189.837 996.795C189.301 995.353 188.704 994.179 188.045 993.273H190.187C191.443 995.106 192.408 997.114 193.081 999.297C193.76 1001.47 194.1 1003.86 194.1 1006.45ZM209.138 995.909L214.576 1004.68H214.741L220.178 995.909H223.185L216.553 1006.45L223.185 1017H220.178L214.741 1008.39H214.576L209.138 1017H206.131L212.928 1006.45L206.131 995.909H209.138ZM243.965 1006.45C243.965 1008.68 243.563 1010.6 242.76 1012.22C241.956 1013.84 240.855 1015.09 239.454 1015.97C238.053 1016.85 236.454 1017.29 234.655 1017.29C232.856 1017.29 231.257 1016.85 229.856 1015.97C228.455 1015.09 227.354 1013.84 226.55 1012.22C225.747 1010.6 225.345 1008.68 225.345 1006.45C225.345 1004.23 225.747 1002.31 226.55 1000.69C227.354 999.067 228.455 997.818 229.856 996.939C231.257 996.06 232.856 995.621 234.655 995.621C236.454 995.621 238.053 996.06 239.454 996.939C240.855 997.818 241.956 999.067 242.76 1000.69C243.563 1002.31 243.965 1004.23 243.965 1006.45ZM241.493 1006.45C241.493 1004.63 241.188 1003.09 240.577 1001.83C239.972 1000.57 239.152 999.623 238.115 998.978C237.085 998.333 235.932 998.01 234.655 998.01C233.378 998.01 232.221 998.333 231.184 998.978C230.155 999.623 229.334 1000.57 228.723 1001.83C228.119 1003.09 227.817 1004.63 227.817 1006.45C227.817 1008.28 228.119 1009.82 228.723 1011.08C229.334 1012.33 230.155 1013.29 231.184 1013.93C232.221 1014.58 233.378 1014.9 234.655 1014.9C235.932 1014.9 237.085 1014.58 238.115 1013.93C239.152 1013.29 239.972 1012.33 240.577 1011.08C241.188 1009.82 241.493 1008.28 241.493 1006.45ZM248.259 1017V995.909H255.385C257.033 995.909 258.386 996.191 259.443 996.754C260.5 997.31 261.283 998.075 261.791 999.05C262.299 1000.02 262.553 1001.13 262.553 1002.38C262.553 1003.62 262.299 1004.72 261.791 1005.68C261.283 1006.64 260.504 1007.4 259.453 1007.95C258.403 1008.49 257.061 1008.76 255.427 1008.76H249.66V1006.45H255.344C256.47 1006.45 257.376 1006.29 258.063 1005.96C258.756 1005.63 259.258 1005.16 259.567 1004.56C259.882 1003.95 260.04 1003.22 260.04 1002.38C260.04 1001.53 259.882 1000.79 259.567 1000.16C259.251 999.531 258.746 999.043 258.053 998.7C257.359 998.35 256.443 998.175 255.303 998.175H250.813V1017H248.259ZM258.187 1007.53L263.377 1017H260.411L255.303 1007.53H258.187ZM275.83 1017H273.153L280.897 995.909H283.533L291.278 1017H288.6L282.297 999.246H282.133L275.83 1017ZM276.819 1008.76H287.611V1011.03H276.819V1008.76Z" fill="black"/>
<path fill-rule="evenodd" clip-rule="evenodd" d="M146 323.722C197.449 319.887 238 276.929 238 224.5C238 222.316 237.93 220.149 237.791 218H312V384H146V323.722ZM146 323.722C143.524 323.906 141.023 324 138.5 324C83.5477 324 39 279.452 39 224.5C39 169.548 83.5477 125 138.5 125C191.269 125 234.443 166.077 237.791 218H146V323.722Z" fill="#FFDA01"/>
<path d="M140.73 477V454.455H148.612C150.183 454.455 151.478 454.726 152.498 455.269C153.518 455.805 154.278 456.528 154.777 457.438C155.276 458.341 155.526 459.342 155.526 460.443C155.526 461.412 155.353 462.212 155.008 462.843C154.671 463.474 154.223 463.973 153.665 464.34C153.115 464.707 152.517 464.979 151.871 465.155V465.375C152.561 465.419 153.254 465.661 153.951 466.102C154.649 466.542 155.232 467.173 155.702 467.995C156.171 468.817 156.406 469.822 156.406 471.011C156.406 472.142 156.149 473.158 155.636 474.061C155.122 474.963 154.311 475.679 153.203 476.207C152.095 476.736 150.652 477 148.876 477H140.73ZM143.46 474.578H148.876C150.66 474.578 151.926 474.233 152.674 473.543C153.43 472.846 153.808 472.002 153.808 471.011C153.808 470.248 153.614 469.544 153.225 468.898C152.836 468.245 152.282 467.723 151.562 467.335C150.843 466.938 149.992 466.74 149.009 466.74H143.46V474.578ZM143.46 464.362H148.524C149.346 464.362 150.087 464.201 150.748 463.878C151.416 463.555 151.944 463.1 152.333 462.513C152.729 461.926 152.928 461.236 152.928 460.443C152.928 459.452 152.583 458.612 151.893 457.922C151.203 457.225 150.109 456.876 148.612 456.876H143.46V464.362ZM170.932 454.455L176.744 463.834H176.921L182.733 454.455H185.948L178.858 465.727L185.948 477H182.733L176.921 467.797H176.744L170.932 477H167.718L174.983 465.727L167.718 454.455H170.932ZM208.16 465.727C208.16 468.105 207.731 470.16 206.872 471.892C206.013 473.624 204.835 474.96 203.338 475.899C201.841 476.839 200.131 477.308 198.208 477.308C196.286 477.308 194.576 476.839 193.078 475.899C191.581 474.96 190.403 473.624 189.545 471.892C188.686 470.16 188.257 468.105 188.257 465.727C188.257 463.349 188.686 461.295 189.545 459.562C190.403 457.83 191.581 456.495 193.078 455.555C194.576 454.616 196.286 454.146 198.208 454.146C200.131 454.146 201.841 454.616 203.338 455.555C204.835 456.495 206.013 457.83 206.872 459.562C207.731 461.295 208.16 463.349 208.16 465.727ZM205.518 465.727C205.518 463.775 205.191 462.127 204.538 460.784C203.892 459.441 203.015 458.425 201.907 457.735C200.806 457.045 199.573 456.7 198.208 456.7C196.843 456.7 195.607 457.045 194.498 457.735C193.398 458.425 192.521 459.441 191.867 460.784C191.222 462.127 190.899 463.775 190.899 465.727C190.899 467.679 191.222 469.327 191.867 470.67C192.521 472.013 193.398 473.03 194.498 473.719C195.607 474.409 196.843 474.754 198.208 474.754C199.573 474.754 200.806 474.409 201.907 473.719C203.015 473.03 203.892 472.013 204.538 470.67C205.191 469.327 205.518 467.679 205.518 465.727ZM212.751 477V454.455H220.369C222.13 454.455 223.576 454.755 224.706 455.357C225.836 455.952 226.673 456.77 227.216 457.812C227.759 458.854 228.03 460.04 228.03 461.368C228.03 462.696 227.759 463.874 227.216 464.902C226.673 465.929 225.84 466.736 224.717 467.324C223.594 467.903 222.159 468.193 220.413 468.193H214.248V465.727H220.324C221.528 465.727 222.497 465.551 223.231 465.199C223.972 464.847 224.508 464.348 224.838 463.702C225.176 463.049 225.344 462.271 225.344 461.368C225.344 460.465 225.176 459.676 224.838 459.001C224.5 458.326 223.961 457.805 223.22 457.438C222.478 457.064 221.499 456.876 220.28 456.876H215.481V477H212.751ZM223.363 466.872L228.911 477H225.741L220.28 466.872H223.363ZM242.223 477H239.361L247.639 454.455H250.458L258.736 477H255.874L249.137 458.021H248.96L242.223 477ZM243.28 468.193H254.817V470.615H243.28V468.193Z" fill="black"/>
<path fill-rule="evenodd" clip-rule="evenodd" d="M219.568 1162.61L205.5 1115L194.294 1152.93C186.342 1151.01 178.039 1150 169.5 1150C111.234 1150 64 1197.23 64 1255.5C64 1255.65 64.0003 1255.81 64.001 1255.96H29.079L45.3987 1269H0V1431H93.2069L67.9478 1474.75H99.2104L96.4658 1484.04L108.092 1474.75H287.052L273.475 1451.23L314.534 1484.04L272.887 1343.08L381.921 1255.96L274.999 1255.96C275 1255.81 275 1255.65 275 1255.5C275 1215.35 252.575 1180.44 219.568 1162.61ZM215.343 1350.55L273.475 1451.23L205.5 1396.92L108.092 1474.75H99.2104L112.137 1431H162V1360.74C164.477 1360.91 166.978 1361 169.5 1361C185.929 1361 201.48 1357.24 215.343 1350.55ZM162 1311.85L177.5 1285L215.343 1350.55C250.517 1333.55 274.821 1297.6 274.999 1255.96H247.147L219.568 1162.61C211.692 1158.36 203.214 1155.08 194.294 1152.93L163.853 1255.96L64.001 1255.96C64.0199 1260.38 64.31 1264.73 64.8557 1269H45.3987L69.0738 1287.92C79.1854 1319.27 103.569 1344.21 134.568 1355.08L131.977 1363.85L93.2069 1431H112.137L131.977 1363.85L136.635 1355.78C144.705 1358.42 153.204 1360.12 162 1360.74V1311.85ZM162 1311.85L136.635 1355.78C135.943 1355.55 135.254 1355.32 134.568 1355.08L138.113 1343.08L69.0738 1287.92C67.1118 1281.83 65.6871 1275.51 64.8557 1269H162V1311.85Z" fill="#FFDA01"/>
<path fill-rule="evenodd" clip-rule="evenodd" d="M228.568 1655.61L214.5 1608L203.294 1645.93C195.342 1644.01 187.039 1643 178.5 1643C120.234 1643 73 1690.23 73 1748.5C73 1748.65 73.0003 1748.81 73.001 1748.96H38.079L54.3987 1762H9V1924H102.207L76.9478 1967.75H108.21L105.466 1977.04L117.092 1967.75H296.052L282.475 1944.23L323.534 1977.04L281.887 1836.08L390.921 1748.96L283.999 1748.96C284 1748.81 284 1748.65 284 1748.5C284 1708.35 261.575 1673.44 228.568 1655.61ZM224.343 1843.55L282.475 1944.23L214.5 1889.92L117.092 1967.75H108.21L121.137 1924H171V1853.74C173.477 1853.91 175.978 1854 178.5 1854C194.929 1854 210.48 1850.24 224.343 1843.55ZM171 1804.85L186.5 1778L224.343 1843.55C259.517 1826.55 283.821 1790.6 283.999 1748.96H256.147L228.568 1655.61C220.692 1651.36 212.214 1648.08 203.294 1645.93L172.853 1748.96L73.001 1748.96C73.0199 1753.38 73.31 1757.73 73.8557 1762H54.3987L78.0738 1780.92C88.1854 1812.27 112.569 1837.21 143.568 1848.08L140.977 1856.85L102.207 1924H121.137L140.977 1856.85L145.635 1848.78C153.705 1851.42 162.204 1853.12 171 1853.74V1804.85ZM171 1804.85L145.635 1848.78C144.943 1848.55 144.254 1848.32 143.568 1848.08L147.113 1836.08L78.0738 1780.92C76.1118 1774.83 74.6871 1768.51 73.8557 1762H171V1804.85Z" fill="#FFDA01"/>
</svg>
