<svg width="1455" height="1113" viewBox="0 0 1455 1113" fill="none" xmlns="http://www.w3.org/2000/svg">
<path opacity="0.3" d="M1087.89 9L1142.89 22L1167.78 67.0426V125L1142.89 167L1115.39 177.5L1087.89 188L1034.39 167L1008 125V67.0426L1034.39 22L1087.89 9Z" fill="#FEE92C" stroke="#AD0288" stroke-width="13"/>
<path d="M180.5 374.5V488.5H299.5V374.5H180.5Z" stroke="#E33939" stroke-width="10"/>
<path d="M217 1037.5L290.5 964L301 1083.5L217 1037.5Z" stroke="#E33939" stroke-width="10"/>
<path d="M734 648V762H853V648H734Z" stroke="#E33939" stroke-width="10"/>
<path d="M549 433.5L622.5 360L633 479.5L549 433.5Z" stroke="#E3BE39" stroke-width="10"/>
<path d="M5 634.715C6.16667 661.549 19.8 710.215 65 690.215C121.5 665.215 5 571.215 96 612.215M124 651.715C150.5 688.715 181 760.315 91 750.715C1 741.115 14.1667 775.049 32 793.215" stroke="#E3BE39" stroke-width="10"/>
<path d="M218 634.715C219.167 661.549 232.8 710.215 278 690.215C334.5 665.215 218 571.215 309 612.215M337 651.715C363.5 688.715 394 760.315 304 750.715C214 741.115 227.167 775.049 245 793.215" stroke="#E339D2" stroke-width="3" stroke-dasharray="20 20"/>
<path d="M110 236.5L169 177.5V249" stroke="#FF7676" stroke-width="30"/>
<path d="M251 245.5L312 177.5L279 121" stroke="#FF7676" stroke-width="30"/>
<path d="M384 236.5L443 177.5V249" stroke="#FF7676" stroke-width="30"/>
<path d="M525 245.5L586 177.5L553 121L626 114.5" stroke="#FF7676" stroke-width="30"/>
<path d="M162.767 75.4545V76.3068H159.375V75.4545H162.767ZM160.364 73.8864H161.369V80.125C161.369 80.4091 161.411 80.6222 161.493 80.7642C161.578 80.9034 161.686 80.9972 161.817 81.0455C161.95 81.0909 162.091 81.1136 162.239 81.1136C162.349 81.1136 162.44 81.108 162.511 81.0966C162.582 81.0824 162.639 81.071 162.682 81.0625L162.886 81.9659C162.818 81.9915 162.723 82.017 162.601 82.0426C162.479 82.071 162.324 82.0852 162.136 82.0852C161.852 82.0852 161.574 82.0241 161.301 81.902C161.031 81.7798 160.807 81.5938 160.628 81.3438C160.452 81.0938 160.364 80.7784 160.364 80.3977V73.8864ZM167.331 73.2727V82H166.274V74.3807H166.223L164.092 75.7955V74.7216L166.274 73.2727H167.331Z" fill="white"/>
<path d="M280.767 75.4545V76.3068H277.375V75.4545H280.767ZM278.364 73.8864H279.369V80.125C279.369 80.4091 279.411 80.6222 279.493 80.7642C279.578 80.9034 279.686 80.9972 279.817 81.0455C279.95 81.0909 280.091 81.1136 280.239 81.1136C280.349 81.1136 280.44 81.108 280.511 81.0966C280.582 81.0824 280.639 81.071 280.682 81.0625L280.886 81.9659C280.818 81.9915 280.723 82.017 280.601 82.0426C280.479 82.071 280.324 82.0852 280.136 82.0852C279.852 82.0852 279.574 82.0241 279.301 81.902C279.031 81.7798 278.807 81.5938 278.628 81.3438C278.452 81.0938 278.364 80.7784 278.364 80.3977V73.8864ZM282.263 82V81.233L285.143 78.0795C285.482 77.7102 285.76 77.3892 285.979 77.1165C286.197 76.8409 286.359 76.5824 286.464 76.3409C286.572 76.0966 286.626 75.8409 286.626 75.5739C286.626 75.267 286.553 75.0014 286.405 74.777C286.26 74.5526 286.061 74.3793 285.808 74.2571C285.555 74.1349 285.271 74.0739 284.956 74.0739C284.621 74.0739 284.328 74.1435 284.078 74.2827C283.831 74.419 283.639 74.6108 283.503 74.858C283.369 75.1051 283.303 75.3949 283.303 75.7273H282.297C282.297 75.2159 282.415 74.767 282.651 74.3807C282.886 73.9943 283.207 73.6932 283.614 73.4773C284.023 73.2614 284.482 73.1534 284.99 73.1534C285.501 73.1534 285.955 73.2614 286.349 73.4773C286.744 73.6932 287.054 73.9844 287.278 74.3509C287.503 74.7173 287.615 75.125 287.615 75.5739C287.615 75.8949 287.557 76.2088 287.44 76.5156C287.327 76.8196 287.128 77.1591 286.844 77.5341C286.562 77.9062 286.172 78.3608 285.672 78.8977L283.712 80.9943V81.0625H287.768V82H282.263Z" fill="white"/>
<path d="M427.767 75.4545V76.3068H424.375V75.4545H427.767ZM425.364 73.8864H426.369V80.125C426.369 80.4091 426.411 80.6222 426.493 80.7642C426.578 80.9034 426.686 80.9972 426.817 81.0455C426.95 81.0909 427.091 81.1136 427.239 81.1136C427.349 81.1136 427.44 81.108 427.511 81.0966C427.582 81.0824 427.639 81.071 427.682 81.0625L427.886 81.9659C427.818 81.9915 427.723 82.017 427.601 82.0426C427.479 82.071 427.324 82.0852 427.136 82.0852C426.852 82.0852 426.574 82.0241 426.301 81.902C426.031 81.7798 425.807 81.5938 425.628 81.3438C425.452 81.0938 425.364 80.7784 425.364 80.3977V73.8864ZM432.331 73.2727V82H431.274V74.3807H431.223L429.092 75.7955V74.7216L431.274 73.2727H432.331ZM436.17 79.5455V79.4943C436.176 78.9517 436.233 78.5199 436.341 78.1989C436.449 77.8778 436.602 77.6179 436.801 77.419C437 77.2202 437.239 77.0369 437.517 76.8693C437.685 76.767 437.835 76.6463 437.969 76.5071C438.102 76.3651 438.207 76.2017 438.284 76.017C438.364 75.8324 438.403 75.6278 438.403 75.4034C438.403 75.125 438.338 74.8835 438.207 74.679C438.077 74.4744 437.902 74.3168 437.683 74.206C437.464 74.0952 437.222 74.0398 436.955 74.0398C436.722 74.0398 436.497 74.0881 436.281 74.1847C436.065 74.2812 435.885 74.4332 435.74 74.6406C435.595 74.848 435.511 75.1193 435.489 75.4545H434.415C434.438 74.9716 434.562 74.5582 434.79 74.2145C435.02 73.8707 435.322 73.608 435.697 73.4261C436.075 73.2443 436.494 73.1534 436.955 73.1534C437.455 73.1534 437.889 73.2528 438.259 73.4517C438.631 73.6506 438.918 73.9233 439.119 74.2699C439.324 74.6165 439.426 75.0114 439.426 75.4545C439.426 75.767 439.378 76.0497 439.281 76.3026C439.188 76.5554 439.051 76.7812 438.872 76.9801C438.696 77.179 438.483 77.3551 438.233 77.5085C437.983 77.6648 437.783 77.8295 437.632 78.0028C437.482 78.1733 437.372 78.3764 437.304 78.6122C437.236 78.848 437.199 79.142 437.193 79.4943V79.5455H436.17ZM436.716 82.0682C436.506 82.0682 436.325 81.9929 436.175 81.8423C436.024 81.6918 435.949 81.5114 435.949 81.3011C435.949 81.0909 436.024 80.9105 436.175 80.7599C436.325 80.6094 436.506 80.5341 436.716 80.5341C436.926 80.5341 437.107 80.6094 437.257 80.7599C437.408 80.9105 437.483 81.0909 437.483 81.3011C437.483 81.4403 437.447 81.5682 437.376 81.6847C437.308 81.8011 437.216 81.8949 437.099 81.9659C436.986 82.0341 436.858 82.0682 436.716 82.0682Z" fill="white"/>
<path d="M552.767 72.4545V73.3068H549.375V72.4545H552.767ZM550.364 70.8864H551.369V77.125C551.369 77.4091 551.411 77.6222 551.493 77.7642C551.578 77.9034 551.686 77.9972 551.817 78.0455C551.95 78.0909 552.091 78.1136 552.239 78.1136C552.349 78.1136 552.44 78.108 552.511 78.0966C552.582 78.0824 552.639 78.071 552.682 78.0625L552.886 78.9659C552.818 78.9915 552.723 79.017 552.601 79.0426C552.479 79.071 552.324 79.0852 552.136 79.0852C551.852 79.0852 551.574 79.0241 551.301 78.902C551.031 78.7798 550.807 78.5938 550.628 78.3438C550.452 78.0938 550.364 77.7784 550.364 77.3977V70.8864ZM554.263 79V78.233L557.143 75.0795C557.482 74.7102 557.76 74.3892 557.979 74.1165C558.197 73.8409 558.359 73.5824 558.464 73.3409C558.572 73.0966 558.626 72.8409 558.626 72.5739C558.626 72.267 558.553 72.0014 558.405 71.777C558.26 71.5526 558.061 71.3793 557.808 71.2571C557.555 71.1349 557.271 71.0739 556.956 71.0739C556.621 71.0739 556.328 71.1435 556.078 71.2827C555.831 71.419 555.639 71.6108 555.503 71.858C555.369 72.1051 555.303 72.3949 555.303 72.7273H554.297C554.297 72.2159 554.415 71.767 554.651 71.3807C554.886 70.9943 555.207 70.6932 555.614 70.4773C556.023 70.2614 556.482 70.1534 556.99 70.1534C557.501 70.1534 557.955 70.2614 558.349 70.4773C558.744 70.6932 559.054 70.9844 559.278 71.3509C559.503 71.7173 559.615 72.125 559.615 72.5739C559.615 72.8949 559.557 73.2088 559.44 73.5156C559.327 73.8196 559.128 74.1591 558.844 74.5341C558.562 74.9062 558.172 75.3608 557.672 75.8977L555.712 77.9943V78.0625H559.768V79H554.263Z" fill="white"/>
<path d="M1137.89 284L1156.75 342.043H1217.78L1168.4 377.915L1187.26 435.957L1137.89 400.085L1088.51 435.957L1107.37 377.915L1058 342.043H1119.03L1137.89 284Z" fill="#FEE92C" stroke="#AD0288" stroke-width="13"/>
<path d="M870.889 22L889.748 80.0426H950.777L901.404 115.915L920.263 173.957L897.889 178.5L870.889 138.085L821.515 173.957L840.374 115.915L791 80.0426H852.03L870.889 22Z" fill="#FEE92C" stroke="#AD0288" stroke-width="13"/>
<circle cx="942.5" cy="367.5" r="46.5" fill="#FEE92C" stroke="#AD0288" stroke-width="13"/>
<path d="M989 662.5C989 667.207 988.301 671.751 987 676.033C985.874 679.739 984.298 683.249 982.336 686.5C980.473 689.585 978.262 692.437 975.757 695C973.413 697.397 970.813 699.543 968 701.391C965.641 702.941 963.132 704.282 960.5 705.388C957.635 706.592 954.623 707.517 951.5 708.13C948.588 708.701 945.579 709 942.5 709C916.819 709 896 688.181 896 662.5C896 636.819 916.819 616 942.5 616C968.181 616 989 636.819 989 662.5Z" fill="#FEE92C" stroke="#AD0288" stroke-width="13"/>
<path d="M978 847.5C978 852.207 977.301 856.751 976 861.033C974.874 864.739 973.298 868.249 971.336 871.5C969.473 874.585 967.262 877.437 964.757 880C962.413 882.397 959.813 884.543 957 886.391C954.641 887.941 952.132 889.282 949.5 890.388C946.635 891.592 943.623 892.517 940.5 893.13C937.588 893.701 934.579 894 931.5 894C905.819 894 885 873.181 885 847.5C885 821.819 905.819 801 931.5 801C957.181 801 978 821.819 978 847.5Z" fill="#FEE92C" stroke="#AD0288" stroke-width="13"/>
<path d="M989 504.5C989 512.459 987.001 519.95 983.477 526.5C978.975 534.867 971.987 541.696 963.5 545.999C957.192 549.198 950.056 551 942.5 551C934.944 551 927.808 549.198 921.5 545.999C906.37 538.328 896 522.625 896 504.5C896 492.348 900.662 481.284 908.294 473C916.792 463.778 928.971 458 942.5 458C950.662 458 958.333 460.103 965 463.796C973.463 468.484 980.309 475.735 984.491 484.5C987.382 490.558 989 497.34 989 504.5Z" fill="#FEE92C" stroke="#AD0288" stroke-width="13"/>
<path d="M1448 551.5C1448 559.459 1446 566.95 1442.48 573.5C1437.98 581.867 1430.99 588.696 1422.5 592.999C1416.19 596.198 1409.06 598 1401.5 598C1393.94 598 1386.81 596.198 1380.5 592.999C1365.37 585.328 1355 569.625 1355 551.5C1355 539.348 1359.66 528.284 1367.29 520C1375.79 510.778 1387.97 505 1401.5 505C1409.66 505 1417.33 507.103 1424 510.796C1432.46 515.484 1439.31 522.735 1443.49 531.5C1446.38 537.558 1448 544.34 1448 551.5Z" fill="#FEE92C" stroke="#AD0288" stroke-width="13"/>
<path d="M1177 488L1205 460V509.5H1256.5L1217.5 548.5M1147 536L1138 570L1184 566.5L1191.5 601.5L1227 581.5" stroke="#FF7676" stroke-width="30"/>
<path d="M1149 911V830H1245V911" stroke="#FF7676" stroke-width="30"/>
<path d="M1337 831.5L1414.5 763.5L1435.5 807L1428 893L1406.5 954.5L1342.5 988.5L1317.5 914.5L1337 831.5Z" fill="#FEE92C" stroke="#AD0288" stroke-width="13"/>
</svg>
