<svg width="1501" height="212" viewBox="0 0 1501 212" fill="none" xmlns="http://www.w3.org/2000/svg">
<path d="M298.889 68.5492L309.664 101.712L311.572 107.585H317.748H352.617L324.407 128.081L319.411 131.711L321.32 137.584L332.095 170.747L303.885 150.251L298.889 146.621L293.893 150.251L265.683 170.747L276.458 137.584L278.366 131.711L273.37 128.081L245.16 107.585H280.03H286.205L288.114 101.712L298.889 68.5492ZM167.5 105C167.5 148.907 131.907 184.5 88 184.5C44.0934 184.5 8.5 148.907 8.5 105C8.5 61.0934 44.0934 25.5 88 25.5C131.907 25.5 167.5 61.0934 167.5 105Z" fill="#FFD8F2" stroke="#ED2BF1" stroke-width="17"/>
<path d="M855.611 66.5491L866.386 99.7117L868.295 105.585H874.47H909.34L881.13 126.081L876.134 129.711L878.042 135.584L888.817 168.747L860.607 148.251L855.611 144.621L850.615 148.251L822.405 168.747L833.18 135.584L835.089 129.711L830.093 126.081L801.883 105.585H836.752H842.928L844.836 99.7117L855.611 66.5491ZM744.641 109.255C761.348 138.152 755.189 164.192 739.404 179.451C723.441 194.884 696.252 200.643 668.016 185.509C636.437 168.583 615.516 156.973 602.275 144.956C595.832 139.109 591.494 133.398 588.713 127.216C585.934 121.041 584.5 113.931 584.5 105C584.5 89.1983 593.817 76.5096 610.11 63.5226C618.201 57.0742 627.603 50.8755 637.749 44.3771C639.479 43.2688 641.232 42.1513 643.001 41.0235C651.489 35.6122 660.351 29.9622 668.892 23.9517C677.988 17.5505 683.625 16.9331 687.465 17.9458C691.732 19.071 696.516 22.8674 702.352 31.1923C708.096 39.3853 713.873 50.4891 720.752 64.0809C721.409 65.3789 722.074 66.6967 722.749 68.033C729.045 80.4973 736.157 94.5785 744.641 109.255Z" fill="#FFD8F2" stroke="#ED2BF1" stroke-width="17"/>
<path d="M1420.61 68.549L1431.39 101.712L1433.29 107.585H1439.47H1439.61H1439.75H1439.89H1440.03H1440.17H1440.3H1440.44H1440.58H1440.72H1440.86H1440.99H1441.13H1441.27H1441.4H1441.54H1441.67H1441.81H1441.95H1442.08H1442.22H1442.35H1442.49H1442.62H1442.76H1442.89H1443.02H1443.16H1443.29H1443.42H1443.56H1443.69H1443.82H1443.95H1444.09H1444.22H1444.35H1444.48H1444.61H1444.74H1444.87H1445.01H1445.14H1445.27H1445.4H1445.53H1445.66H1445.79H1445.91H1446.04H1446.17H1446.3H1446.43H1446.56H1446.69H1446.81H1446.94H1447.07H1447.2H1447.32H1447.45H1447.58H1447.71H1447.83H1447.96H1448.08H1448.21H1448.34H1448.46H1448.59H1448.71H1448.84H1448.96H1449.09H1449.21H1449.34H1449.46H1449.58H1449.71H1449.83H1449.96H1450.08H1450.2H1450.33H1450.45H1450.57H1450.69H1450.82H1450.94H1451.06H1451.18H1451.3H1451.43H1451.55H1451.67H1451.79H1451.91H1452.03H1452.15H1452.27H1452.39H1452.51H1452.63H1452.75H1452.87H1452.99H1453.11H1453.23H1453.35H1453.47H1453.59H1453.71H1453.83H1453.95H1454.06H1454.18H1454.3H1454.42H1454.54H1454.65H1454.77H1454.89H1455.01H1455.12H1455.24H1455.36H1455.48H1455.59H1455.71H1455.83H1455.94H1456.06H1456.18H1456.29H1456.41H1456.52H1456.64H1456.75H1456.87H1456.99H1457.1H1457.22H1457.33H1457.45H1457.56H1457.68H1457.79H1457.91H1458.02H1458.13H1458.25H1458.36H1458.48H1458.59H1458.7H1458.82H1458.93H1459.05H1459.16H1459.27H1459.39H1459.5H1459.61H1459.73H1459.84H1459.95H1460.06H1460.18H1460.29H1460.4H1460.51H1460.63H1460.74H1460.85H1460.96H1461.08H1461.19H1461.3H1461.41H1461.52H1461.63H1461.75H1461.86H1461.97H1462.08H1462.19H1462.3H1462.41H1462.53H1462.64H1462.75H1462.86H1462.97H1463.08H1463.19H1463.3H1463.41H1463.52H1463.63H1463.74H1463.86H1463.97H1464.08H1464.19H1464.3H1464.41H1464.52H1464.63H1464.74H1464.85H1464.96H1465.07H1465.18H1465.29H1465.4H1465.51H1465.62H1465.73H1465.84H1465.95H1466.05H1466.16H1466.27H1466.38H1466.49H1466.6H1466.71H1466.82H1466.93H1467.04H1467.15H1467.26H1467.37H1467.48H1467.59H1467.7H1467.8H1467.91H1468.02H1468.13H1468.24H1468.35H1468.46H1468.57H1468.68H1468.79H1468.9H1469H1469.11H1469.22H1469.33H1469.44H1469.55H1469.66H1469.77H1469.88H1469.99H1470.09H1470.2H1470.31H1470.42H1470.53H1470.64H1470.75H1470.86H1470.97H1471.08H1471.18H1471.29H1471.4H1471.51H1471.62H1471.73H1471.84H1471.95H1472.06H1472.17H1472.28H1472.38H1472.49H1472.6H1472.71H1472.82H1472.93H1473.04H1473.15H1473.26H1473.37H1473.48H1473.59H1473.7H1473.81H1473.92H1474.03H1474.13H1474.24H1474.34L1446.13 128.081L1441.13 131.711L1443.04 137.584L1453.82 170.747L1425.61 150.251L1420.61 146.621L1415.62 150.251L1387.41 170.747L1398.18 137.584L1400.09 131.711L1395.09 128.081L1366.88 107.585H1401.75H1407.93L1409.84 101.712L1420.61 68.549ZM1293.46 113.113C1298.29 114.622 1300.21 116.968 1301.11 119.429C1302.17 122.369 1302.24 126.892 1300.45 133.136C1296.86 145.613 1286.9 161.143 1274.13 174.664C1261.29 188.259 1246.94 198.415 1235.57 201.577C1230.01 203.124 1226.11 202.747 1223.48 201.429C1221.01 200.191 1218.14 197.362 1216.16 190.609C1205.34 153.738 1180.48 140.204 1160.16 131.116C1158.04 130.167 1156.02 129.288 1154.12 128.454C1146.56 125.152 1140.63 122.559 1136.02 119.195C1133.35 117.25 1131.56 115.318 1130.4 113.246C1129.27 111.228 1128.5 108.644 1128.5 105C1128.5 97.9971 1131.03 93.8401 1135.61 90.1007C1140.22 86.3386 1146.4 83.3733 1154.52 79.4833C1155.74 78.8963 1157.01 78.2883 1158.32 77.6533C1177.75 68.2646 1202.2 54.9242 1215.91 20.1142C1217.94 14.9436 1219.61 11.8148 1220.82 10.0179C1221.76 11.3087 1223 13.299 1224.51 16.228C1226.96 20.9615 1229.57 26.9703 1232.56 33.9693C1232.8 34.5312 1233.04 35.0987 1233.29 35.6715C1239.02 49.076 1245.99 65.3749 1254.97 79.4987C1264.26 94.1181 1276.59 107.839 1293.46 113.113Z" fill="#FFD8F2" stroke="#ED2BF1" stroke-width="17"/>
</svg>
