<svg width="999" height="484" viewBox="0 0 999 484" fill="none" xmlns="http://www.w3.org/2000/svg">
<path d="M336.061 151.061C336.646 150.475 336.646 149.525 336.061 148.939L326.515 139.393C325.929 138.808 324.979 138.808 324.393 139.393C323.808 139.979 323.808 140.929 324.393 141.515L332.879 150L324.393 158.485C323.808 159.071 323.808 160.021 324.393 160.607C324.979 161.192 325.929 161.192 326.515 160.607L336.061 151.061ZM260 151.5H335V148.5H260V151.5Z" fill="black"/>
<path d="M705 442H703.5V443.5H705V442ZM781.061 443.061C781.646 442.475 781.646 441.525 781.061 440.939L771.515 431.393C770.929 430.808 769.979 430.808 769.393 431.393C768.808 431.979 768.808 432.929 769.393 433.515L777.879 442L769.393 450.485C768.808 451.071 768.808 452.021 769.393 452.607C769.979 453.192 770.929 453.192 771.515 452.607L781.061 443.061ZM703.5 149V442H706.5V149H703.5ZM705 443.5H780V440.5H705V443.5Z" fill="black"/>
<path d="M781.061 151.061C781.646 150.475 781.646 149.525 781.061 148.939L771.515 139.393C770.929 138.808 769.979 138.808 769.393 139.393C768.808 139.979 768.808 140.929 769.393 141.515L777.879 150L769.393 158.485C768.808 159.071 768.808 160.021 769.393 160.607C769.979 161.192 770.929 161.192 771.515 160.607L781.061 151.061ZM705 151.5H780V148.5H705V151.5Z" fill="black"/>
<path d="M222.264 34.2386C221.19 34.2386 220.266 33.9851 219.49 33.478C218.714 32.9709 218.118 32.2724 217.7 31.3825C217.283 30.4925 217.074 29.4759 217.074 28.3324C217.074 27.169 217.288 26.1424 217.715 25.2525C218.148 24.3576 218.749 23.6591 219.52 23.157C220.295 22.6499 221.2 22.3963 222.234 22.3963C223.04 22.3963 223.766 22.5455 224.412 22.8438C225.058 23.142 225.588 23.5597 226 24.0966C226.413 24.6335 226.669 25.2599 226.768 25.9759H225.009C224.874 25.4538 224.576 24.9915 224.114 24.5888C223.656 24.1811 223.04 23.9773 222.264 23.9773C221.578 23.9773 220.977 24.1562 220.46 24.5142C219.947 24.8672 219.547 25.3668 219.259 26.0131C218.975 26.6545 218.834 27.4077 218.834 28.2727C218.834 29.1577 218.973 29.9283 219.251 30.5845C219.535 31.2408 219.933 31.7504 220.445 32.1133C220.962 32.4762 221.568 32.6577 222.264 32.6577C222.722 32.6577 223.137 32.5781 223.51 32.419C223.882 32.2599 224.198 32.0312 224.457 31.733C224.715 31.4347 224.899 31.0767 225.009 30.6591H226.768C226.669 31.3352 226.423 31.9442 226.03 32.4862C225.642 33.0231 225.128 33.4506 224.487 33.7688C223.85 34.082 223.109 34.2386 222.264 34.2386ZM229.341 34V22.5455H231.042V24.2756H231.161C231.37 23.7088 231.748 23.2489 232.294 22.896C232.841 22.543 233.458 22.3665 234.144 22.3665C234.273 22.3665 234.435 22.369 234.629 22.3739C234.822 22.3789 234.969 22.3864 235.069 22.3963V24.1861C235.009 24.1712 234.872 24.1488 234.658 24.119C234.45 24.0842 234.228 24.0668 233.995 24.0668C233.438 24.0668 232.941 24.1836 232.503 24.4173C232.071 24.646 231.728 24.9641 231.474 25.3718C231.225 25.7745 231.101 26.2344 231.101 26.7514V34H229.341ZM241.609 34.2386C240.505 34.2386 239.553 33.995 238.752 33.5078C237.957 33.0156 237.343 32.3295 236.911 31.4496C236.483 30.5646 236.269 29.5355 236.269 28.3622C236.269 27.1889 236.483 26.1548 236.911 25.2599C237.343 24.3601 237.945 23.6591 238.715 23.157C239.491 22.6499 240.396 22.3963 241.43 22.3963C242.026 22.3963 242.615 22.4957 243.197 22.6946C243.779 22.8935 244.308 23.2166 244.786 23.6641C245.263 24.1065 245.643 24.6932 245.926 25.424C246.21 26.1548 246.352 27.0547 246.352 28.1236V28.8693H237.522V27.348H244.562C244.562 26.7017 244.433 26.125 244.174 25.6179C243.92 25.1108 243.558 24.7106 243.085 24.4173C242.618 24.1239 242.066 23.9773 241.43 23.9773C240.729 23.9773 240.122 24.1513 239.61 24.4993C239.103 24.8423 238.713 25.2898 238.439 25.8416C238.166 26.3935 238.029 26.9851 238.029 27.6165V28.6307C238.029 29.4957 238.178 30.229 238.477 30.8306C238.78 31.4272 239.2 31.8821 239.737 32.1953C240.274 32.5036 240.898 32.6577 241.609 32.6577C242.071 32.6577 242.489 32.593 242.862 32.4638C243.239 32.3295 243.565 32.1307 243.838 31.8672C244.112 31.5987 244.323 31.2656 244.472 30.8679L246.173 31.3452C245.994 31.9219 245.693 32.429 245.27 32.8665C244.848 33.299 244.326 33.6371 243.704 33.8807C243.083 34.1193 242.384 34.2386 241.609 34.2386ZM252.4 34.2685C251.674 34.2685 251.015 34.1317 250.423 33.8583C249.832 33.5799 249.362 33.1797 249.014 32.6577C248.666 32.1307 248.492 31.4943 248.492 30.7486C248.492 30.0923 248.621 29.5604 248.88 29.1527C249.138 28.7401 249.484 28.4169 249.916 28.1832C250.349 27.9496 250.826 27.7756 251.348 27.6612C251.875 27.5419 252.404 27.4474 252.936 27.3778C253.632 27.2884 254.197 27.2212 254.629 27.1765C255.067 27.1268 255.385 27.0447 255.584 26.9304C255.788 26.8161 255.89 26.6172 255.89 26.3338V26.2741C255.89 25.5384 255.688 24.9666 255.286 24.5589C254.888 24.1513 254.284 23.9474 253.473 23.9474C252.633 23.9474 251.974 24.1314 251.497 24.4993C251.02 24.8672 250.684 25.2599 250.49 25.6776L248.82 25.081C249.118 24.3849 249.516 23.843 250.013 23.4553C250.515 23.0625 251.062 22.7891 251.654 22.6349C252.25 22.4759 252.837 22.3963 253.414 22.3963C253.782 22.3963 254.204 22.4411 254.681 22.5305C255.164 22.6151 255.629 22.7915 256.076 23.06C256.528 23.3285 256.904 23.7337 257.202 24.2756C257.5 24.8175 257.65 25.5433 257.65 26.4531V34H255.89V32.4489H255.8C255.681 32.6974 255.482 32.9634 255.203 33.2468C254.925 33.5302 254.555 33.7713 254.092 33.9702C253.63 34.169 253.066 34.2685 252.4 34.2685ZM252.668 32.6875C253.364 32.6875 253.951 32.5508 254.428 32.2773C254.91 32.0039 255.273 31.6509 255.517 31.2184C255.765 30.7859 255.89 30.331 255.89 29.8537V28.2429C255.815 28.3324 255.651 28.4144 255.397 28.489C255.149 28.5586 254.86 28.6207 254.532 28.6754C254.209 28.7251 253.893 28.7699 253.585 28.8097C253.282 28.8445 253.036 28.8743 252.847 28.8991C252.39 28.9588 251.962 29.0558 251.564 29.19C251.172 29.3192 250.853 29.5156 250.61 29.7791C250.371 30.0376 250.252 30.3906 250.252 30.8381C250.252 31.4496 250.478 31.9119 250.93 32.2251C251.388 32.5334 251.967 32.6875 252.668 32.6875ZM265.843 22.5455V24.0369H259.907V22.5455H265.843ZM261.637 19.8011H263.397V30.7188C263.397 31.2159 263.469 31.5888 263.614 31.8374C263.763 32.081 263.952 32.245 264.18 32.3295C264.414 32.4091 264.66 32.4489 264.919 32.4489C265.112 32.4489 265.272 32.4389 265.396 32.419C265.52 32.3942 265.62 32.3743 265.694 32.3594L266.052 33.9403C265.933 33.9851 265.766 34.0298 265.552 34.0746C265.339 34.1243 265.068 34.1491 264.74 34.1491C264.242 34.1491 263.755 34.0423 263.278 33.8285C262.806 33.6147 262.413 33.2891 262.1 32.8516C261.791 32.4141 261.637 31.8622 261.637 31.196V19.8011ZM273.17 34.2386C272.066 34.2386 271.114 33.995 270.314 33.5078C269.519 33.0156 268.905 32.3295 268.472 31.4496C268.044 30.5646 267.831 29.5355 267.831 28.3622C267.831 27.1889 268.044 26.1548 268.472 25.2599C268.905 24.3601 269.506 23.6591 270.277 23.157C271.052 22.6499 271.957 22.3963 272.991 22.3963C273.588 22.3963 274.177 22.4957 274.759 22.6946C275.34 22.8935 275.87 23.2166 276.347 23.6641C276.824 24.1065 277.205 24.6932 277.488 25.424C277.771 26.1548 277.913 27.0547 277.913 28.1236V28.8693H269.084V27.348H276.123C276.123 26.7017 275.994 26.125 275.736 25.6179C275.482 25.1108 275.119 24.7106 274.647 24.4173C274.179 24.1239 273.628 23.9773 272.991 23.9773C272.29 23.9773 271.684 24.1513 271.172 24.4993C270.665 24.8423 270.274 25.2898 270.001 25.8416C269.727 26.3935 269.591 26.9851 269.591 27.6165V28.6307C269.591 29.4957 269.74 30.229 270.038 30.8306C270.341 31.4272 270.761 31.8821 271.298 32.1953C271.835 32.5036 272.459 32.6577 273.17 32.6577C273.633 32.6577 274.05 32.593 274.423 32.4638C274.801 32.3295 275.127 32.1307 275.4 31.8672C275.673 31.5987 275.885 31.2656 276.034 30.8679L277.734 31.3452C277.555 31.9219 277.254 32.429 276.832 32.8665C276.409 33.299 275.887 33.6371 275.266 33.8807C274.644 34.1193 273.946 34.2386 273.17 34.2386ZM289.867 34.2685C289.141 34.2685 288.483 34.1317 287.891 33.8583C287.299 33.5799 286.83 33.1797 286.482 32.6577C286.134 32.1307 285.96 31.4943 285.96 30.7486C285.96 30.0923 286.089 29.5604 286.347 29.1527C286.606 28.7401 286.951 28.4169 287.384 28.1832C287.816 27.9496 288.294 27.7756 288.816 27.6612C289.343 27.5419 289.872 27.4474 290.404 27.3778C291.1 27.2884 291.665 27.2212 292.097 27.1765C292.535 27.1268 292.853 27.0447 293.052 26.9304C293.255 26.8161 293.357 26.6172 293.357 26.3338V26.2741C293.357 25.5384 293.156 24.9666 292.753 24.5589C292.356 24.1513 291.752 23.9474 290.941 23.9474C290.101 23.9474 289.442 24.1314 288.965 24.4993C288.488 24.8672 288.152 25.2599 287.958 25.6776L286.288 25.081C286.586 24.3849 286.984 23.843 287.481 23.4553C287.983 23.0625 288.53 22.7891 289.122 22.6349C289.718 22.4759 290.305 22.3963 290.881 22.3963C291.249 22.3963 291.672 22.4411 292.149 22.5305C292.631 22.6151 293.096 22.7915 293.544 23.06C293.996 23.3285 294.372 23.7337 294.67 24.2756C294.968 24.8175 295.117 25.5433 295.117 26.4531V34H293.357V32.4489H293.268C293.149 32.6974 292.95 32.9634 292.671 33.2468C292.393 33.5302 292.022 33.7713 291.56 33.9702C291.098 34.169 290.533 34.2685 289.867 34.2685ZM290.136 32.6875C290.832 32.6875 291.418 32.5508 291.896 32.2773C292.378 32.0039 292.741 31.6509 292.984 31.2184C293.233 30.7859 293.357 30.331 293.357 29.8537V28.2429C293.283 28.3324 293.119 28.4144 292.865 28.489C292.617 28.5586 292.328 28.6207 292 28.6754C291.677 28.7251 291.361 28.7699 291.053 28.8097C290.75 28.8445 290.504 28.8743 290.315 28.8991C289.857 28.9588 289.43 29.0558 289.032 29.19C288.639 29.3192 288.321 29.5156 288.078 29.7791C287.839 30.0376 287.72 30.3906 287.72 30.8381C287.72 31.4496 287.946 31.9119 288.398 32.2251C288.856 32.5334 289.435 32.6875 290.136 32.6875ZM311.455 29.3168V22.5455H313.214V34H311.455V32.0611H311.335C311.067 32.6428 310.649 33.1374 310.082 33.5451C309.516 33.9478 308.8 34.1491 307.935 34.1491C307.219 34.1491 306.582 33.9925 306.026 33.6793C305.469 33.3612 305.031 32.8839 304.713 32.2475C304.395 31.6062 304.236 30.7983 304.236 29.8239V22.5455H305.996V29.7045C305.996 30.5398 306.229 31.206 306.697 31.7031C307.169 32.2003 307.771 32.4489 308.501 32.4489C308.939 32.4489 309.384 32.337 309.836 32.1133C310.294 31.8896 310.676 31.5465 310.985 31.0842C311.298 30.6218 311.455 30.0327 311.455 29.3168ZM318.198 27.1094V34H316.438V22.5455H318.138V24.3352H318.287C318.556 23.7536 318.964 23.2862 319.51 22.9332C320.057 22.5753 320.763 22.3963 321.628 22.3963C322.404 22.3963 323.082 22.5554 323.664 22.8736C324.246 23.1868 324.698 23.6641 325.021 24.3054C325.345 24.9418 325.506 25.7472 325.506 26.7216V34H323.746V26.8409C323.746 25.9411 323.513 25.2401 323.045 24.7379C322.578 24.2308 321.937 23.9773 321.121 23.9773C320.559 23.9773 320.057 24.0991 319.615 24.3427C319.177 24.5863 318.832 24.9418 318.578 25.4091C318.325 25.8764 318.198 26.4432 318.198 27.1094ZM328.722 34V22.5455H330.482V34H328.722ZM329.617 20.6364C329.274 20.6364 328.978 20.5195 328.73 20.2859C328.486 20.0522 328.364 19.7713 328.364 19.4432C328.364 19.1151 328.486 18.8342 328.73 18.6005C328.978 18.3668 329.274 18.25 329.617 18.25C329.96 18.25 330.253 18.3668 330.497 18.6005C330.746 18.8342 330.87 19.1151 330.87 19.4432C330.87 19.7713 330.746 20.0522 330.497 20.2859C330.253 20.5195 329.96 20.6364 329.617 20.6364ZM338.359 34.2386C337.325 34.2386 336.418 33.9925 335.637 33.5004C334.861 33.0082 334.255 32.3196 333.817 31.4347C333.385 30.5497 333.169 29.5156 333.169 28.3324C333.169 27.1392 333.385 26.0977 333.817 25.2077C334.255 24.3178 334.861 23.6268 335.637 23.1346C336.418 22.6424 337.325 22.3963 338.359 22.3963C339.393 22.3963 340.298 22.6424 341.073 23.1346C341.854 23.6268 342.46 24.3178 342.893 25.2077C343.331 26.0977 343.549 27.1392 343.549 28.3324C343.549 29.5156 343.331 30.5497 342.893 31.4347C342.46 32.3196 341.854 33.0082 341.073 33.5004C340.298 33.9925 339.393 34.2386 338.359 34.2386ZM338.359 32.6577C339.144 32.6577 339.791 32.4563 340.298 32.0536C340.805 31.6509 341.18 31.1214 341.424 30.4652C341.668 29.8089 341.789 29.098 341.789 28.3324C341.789 27.5668 341.668 26.8533 341.424 26.1921C341.18 25.5309 340.805 24.9964 340.298 24.5888C339.791 24.1811 339.144 23.9773 338.359 23.9773C337.573 23.9773 336.927 24.1811 336.42 24.5888C335.913 24.9964 335.538 25.5309 335.294 26.1921C335.05 26.8533 334.929 27.5668 334.929 28.3324C334.929 29.098 335.05 29.8089 335.294 30.4652C335.538 31.1214 335.913 31.6509 336.42 32.0536C336.927 32.4563 337.573 32.6577 338.359 32.6577ZM347.996 27.1094V34H346.236V22.5455H347.936V24.3352H348.085C348.354 23.7536 348.761 23.2862 349.308 22.9332C349.855 22.5753 350.561 22.3963 351.426 22.3963C352.202 22.3963 352.88 22.5554 353.462 22.8736C354.044 23.1868 354.496 23.6641 354.819 24.3054C355.142 24.9418 355.304 25.7472 355.304 26.7216V34H353.544V26.8409C353.544 25.9411 353.31 25.2401 352.843 24.7379C352.376 24.2308 351.734 23.9773 350.919 23.9773C350.357 23.9773 349.855 24.0991 349.413 24.3427C348.975 24.5863 348.63 24.9418 348.376 25.4091C348.123 25.8764 347.996 26.4432 347.996 27.1094ZM217.849 59V43.7273H223.189C224.253 43.7273 225.13 43.9112 225.821 44.2791C226.512 44.642 227.027 45.1317 227.365 45.7482C227.703 46.3597 227.872 47.0384 227.872 47.7841C227.872 48.4403 227.755 48.9822 227.522 49.4098C227.293 49.8374 226.99 50.1754 226.612 50.424C226.239 50.6726 225.834 50.8565 225.396 50.9759V51.125C225.864 51.1548 226.333 51.3189 226.806 51.6172C227.278 51.9155 227.673 52.343 227.991 52.8999C228.31 53.4567 228.469 54.1378 228.469 54.9432C228.469 55.7088 228.295 56.3974 227.947 57.0089C227.599 57.6204 227.049 58.1051 226.299 58.4631C225.548 58.821 224.571 59 223.368 59H217.849ZM219.699 57.3594H223.368C224.576 57.3594 225.434 57.1257 225.941 56.6584C226.453 56.1861 226.709 55.6143 226.709 54.9432C226.709 54.4261 226.577 53.9489 226.314 53.5114C226.05 53.0689 225.675 52.7159 225.188 52.4524C224.7 52.1839 224.124 52.0497 223.457 52.0497H219.699V57.3594ZM219.699 50.4389H223.129C223.686 50.4389 224.188 50.3295 224.636 50.1108C225.088 49.892 225.446 49.5838 225.71 49.1861C225.978 48.7884 226.112 48.321 226.112 47.7841C226.112 47.1129 225.879 46.5437 225.411 46.0763C224.944 45.604 224.203 45.3679 223.189 45.3679H219.699V50.4389ZM235.922 59.2386C234.888 59.2386 233.981 58.9925 233.2 58.5004C232.425 58.0082 231.818 57.3196 231.381 56.4347C230.948 55.5497 230.732 54.5156 230.732 53.3324C230.732 52.1392 230.948 51.0977 231.381 50.2077C231.818 49.3178 232.425 48.6268 233.2 48.1346C233.981 47.6424 234.888 47.3963 235.922 47.3963C236.956 47.3963 237.861 47.6424 238.637 48.1346C239.417 48.6268 240.024 49.3178 240.456 50.2077C240.894 51.0977 241.113 52.1392 241.113 53.3324C241.113 54.5156 240.894 55.5497 240.456 56.4347C240.024 57.3196 239.417 58.0082 238.637 58.5004C237.861 58.9925 236.956 59.2386 235.922 59.2386ZM235.922 57.6577C236.708 57.6577 237.354 57.4563 237.861 57.0536C238.368 56.6509 238.744 56.1214 238.987 55.4652C239.231 54.8089 239.353 54.098 239.353 53.3324C239.353 52.5668 239.231 51.8533 238.987 51.1921C238.744 50.5309 238.368 49.9964 237.861 49.5888C237.354 49.1811 236.708 48.9773 235.922 48.9773C235.137 48.9773 234.491 49.1811 233.983 49.5888C233.476 49.9964 233.101 50.5309 232.857 51.1921C232.614 51.8533 232.492 52.5668 232.492 53.3324C232.492 54.098 232.614 54.8089 232.857 55.4652C233.101 56.1214 233.476 56.6509 233.983 57.0536C234.491 57.4563 235.137 57.6577 235.922 57.6577ZM248.453 59.2386C247.419 59.2386 246.511 58.9925 245.731 58.5004C244.955 58.0082 244.349 57.3196 243.911 56.4347C243.479 55.5497 243.262 54.5156 243.262 53.3324C243.262 52.1392 243.479 51.0977 243.911 50.2077C244.349 49.3178 244.955 48.6268 245.731 48.1346C246.511 47.6424 247.419 47.3963 248.453 47.3963C249.487 47.3963 250.392 47.6424 251.167 48.1346C251.948 48.6268 252.554 49.3178 252.987 50.2077C253.424 51.0977 253.643 52.1392 253.643 53.3324C253.643 54.5156 253.424 55.5497 252.987 56.4347C252.554 57.3196 251.948 58.0082 251.167 58.5004C250.392 58.9925 249.487 59.2386 248.453 59.2386ZM248.453 57.6577C249.238 57.6577 249.884 57.4563 250.392 57.0536C250.899 56.6509 251.274 56.1214 251.518 55.4652C251.761 54.8089 251.883 54.098 251.883 53.3324C251.883 52.5668 251.761 51.8533 251.518 51.1921C251.274 50.5309 250.899 49.9964 250.392 49.5888C249.884 49.1811 249.238 48.9773 248.453 48.9773C247.667 48.9773 247.021 49.1811 246.514 49.5888C246.007 49.9964 245.631 50.5309 245.388 51.1921C245.144 51.8533 245.022 52.5668 245.022 53.3324C245.022 54.098 245.144 54.8089 245.388 55.4652C245.631 56.1214 246.007 56.6509 246.514 57.0536C247.021 57.4563 247.667 57.6577 248.453 57.6577ZM258.089 43.7273V59H256.33V43.7273H258.089ZM266.116 59.2386C265.012 59.2386 264.06 58.995 263.259 58.5078C262.464 58.0156 261.85 57.3295 261.417 56.4496C260.99 55.5646 260.776 54.5355 260.776 53.3622C260.776 52.1889 260.99 51.1548 261.417 50.2599C261.85 49.3601 262.451 48.6591 263.222 48.157C263.998 47.6499 264.902 47.3963 265.937 47.3963C266.533 47.3963 267.122 47.4957 267.704 47.6946C268.286 47.8935 268.815 48.2166 269.292 48.6641C269.77 49.1065 270.15 49.6932 270.433 50.424C270.717 51.1548 270.858 52.0547 270.858 53.1236V53.8693H262.029V52.348H269.069C269.069 51.7017 268.939 51.125 268.681 50.6179C268.427 50.1108 268.064 49.7106 267.592 49.4173C267.125 49.1239 266.573 48.9773 265.937 48.9773C265.236 48.9773 264.629 49.1513 264.117 49.4993C263.61 49.8423 263.22 50.2898 262.946 50.8416C262.673 51.3935 262.536 51.9851 262.536 52.6165V53.6307C262.536 54.4957 262.685 55.229 262.983 55.8306C263.287 56.4272 263.707 56.8821 264.244 57.1953C264.781 57.5036 265.405 57.6577 266.116 57.6577C266.578 57.6577 266.995 57.593 267.368 57.4638C267.746 57.3295 268.072 57.1307 268.345 56.8672C268.619 56.5987 268.83 56.2656 268.979 55.8679L270.679 56.3452C270.5 56.9219 270.2 57.429 269.777 57.8665C269.354 58.299 268.832 58.6371 268.211 58.8807C267.59 59.1193 266.891 59.2386 266.116 59.2386ZM276.906 59.2685C276.18 59.2685 275.522 59.1317 274.93 58.8583C274.339 58.5799 273.869 58.1797 273.521 57.6577C273.173 57.1307 272.999 56.4943 272.999 55.7486C272.999 55.0923 273.128 54.5604 273.386 54.1527C273.645 53.7401 273.991 53.4169 274.423 53.1832C274.856 52.9496 275.333 52.7756 275.855 52.6612C276.382 52.5419 276.911 52.4474 277.443 52.3778C278.139 52.2884 278.704 52.2212 279.136 52.1765C279.574 52.1268 279.892 52.0447 280.091 51.9304C280.294 51.8161 280.396 51.6172 280.396 51.3338V51.2741C280.396 50.5384 280.195 49.9666 279.792 49.5589C279.395 49.1513 278.791 48.9474 277.98 48.9474C277.14 48.9474 276.481 49.1314 276.004 49.4993C275.527 49.8672 275.191 50.2599 274.997 50.6776L273.327 50.081C273.625 49.3849 274.023 48.843 274.52 48.4553C275.022 48.0625 275.569 47.7891 276.161 47.6349C276.757 47.4759 277.344 47.3963 277.921 47.3963C278.288 47.3963 278.711 47.4411 279.188 47.5305C279.671 47.6151 280.135 47.7915 280.583 48.06C281.035 48.3285 281.411 48.7337 281.709 49.2756C282.007 49.8175 282.156 50.5433 282.156 51.4531V59H280.396V57.4489H280.307C280.188 57.6974 279.989 57.9634 279.71 58.2468C279.432 58.5302 279.062 58.7713 278.599 58.9702C278.137 59.169 277.573 59.2685 276.906 59.2685ZM277.175 57.6875C277.871 57.6875 278.457 57.5508 278.935 57.2773C279.417 57.0039 279.78 56.6509 280.024 56.2184C280.272 55.7859 280.396 55.331 280.396 54.8537V53.2429C280.322 53.3324 280.158 53.4144 279.904 53.489C279.656 53.5586 279.367 53.6207 279.039 53.6754C278.716 53.7251 278.4 53.7699 278.092 53.8097C277.789 53.8445 277.543 53.8743 277.354 53.8991C276.896 53.9588 276.469 54.0558 276.071 54.19C275.678 54.3192 275.36 54.5156 275.117 54.7791C274.878 55.0376 274.759 55.3906 274.759 55.8381C274.759 56.4496 274.985 56.9119 275.437 57.2251C275.895 57.5334 276.474 57.6875 277.175 57.6875ZM287.129 52.1094V59H285.369V47.5455H287.069V49.3352H287.218C287.487 48.7536 287.894 48.2862 288.441 47.9332C288.988 47.5753 289.694 47.3963 290.559 47.3963C291.335 47.3963 292.013 47.5554 292.595 47.8736C293.176 48.1868 293.629 48.6641 293.952 49.3054C294.275 49.9418 294.437 50.7472 294.437 51.7216V59H292.677V51.8409C292.677 50.9411 292.443 50.2401 291.976 49.7379C291.509 49.2308 290.867 48.9773 290.052 48.9773C289.49 48.9773 288.988 49.0991 288.545 49.3427C288.108 49.5863 287.762 49.9418 287.509 50.4091C287.255 50.8764 287.129 51.4432 287.129 52.1094ZM314.238 48.5C314.074 47.9979 313.858 47.5479 313.589 47.1502C313.326 46.7475 313.01 46.4045 312.642 46.1211C312.279 45.8377 311.867 45.6214 311.404 45.4723C310.942 45.3232 310.435 45.2486 309.883 45.2486C308.978 45.2486 308.155 45.4822 307.415 45.9496C306.674 46.4169 306.085 47.1055 305.647 48.0153C305.21 48.9251 304.991 50.0412 304.991 51.3636C304.991 52.6861 305.212 53.8022 305.655 54.712C306.097 55.6218 306.696 56.3104 307.452 56.7777C308.207 57.245 309.058 57.4787 310.002 57.4787C310.877 57.4787 311.648 57.2923 312.314 56.9194C312.985 56.5415 313.507 56.0096 313.88 55.3235C314.258 54.6325 314.447 53.8196 314.447 52.8849L315.014 53.0043H310.42V51.3636H316.237V53.0043C316.237 54.2621 315.968 55.3558 315.431 56.2855C314.899 57.2152 314.163 57.9361 313.224 58.4482C312.289 58.9553 311.215 59.2088 310.002 59.2088C308.65 59.2088 307.462 58.8906 306.438 58.2543C305.418 57.6179 304.623 56.7131 304.051 55.5398C303.484 54.3665 303.201 52.9744 303.201 51.3636C303.201 50.1555 303.363 49.0692 303.686 48.1048C304.014 47.1353 304.476 46.31 305.073 45.6289C305.669 44.9478 306.375 44.4258 307.191 44.0629C308.006 43.6999 308.903 43.5185 309.883 43.5185C310.688 43.5185 311.439 43.6403 312.135 43.8839C312.836 44.1225 313.46 44.4631 314.007 44.9055C314.559 45.343 315.019 45.8675 315.386 46.479C315.754 47.0856 316.008 47.7592 316.147 48.5H314.238ZM319.165 59V47.5455H320.866V49.2756H320.985C321.194 48.7088 321.572 48.2489 322.119 47.896C322.665 47.543 323.282 47.3665 323.968 47.3665C324.097 47.3665 324.259 47.369 324.453 47.3739C324.647 47.3789 324.793 47.3864 324.893 47.3963V49.1861C324.833 49.1712 324.696 49.1488 324.483 49.119C324.274 49.0842 324.053 49.0668 323.819 49.0668C323.262 49.0668 322.765 49.1836 322.327 49.4173C321.895 49.646 321.552 49.9641 321.298 50.3718C321.05 50.7745 320.925 51.2344 320.925 51.7514V59H319.165ZM331.284 59.2386C330.25 59.2386 329.342 58.9925 328.562 58.5004C327.786 58.0082 327.18 57.3196 326.742 56.4347C326.31 55.5497 326.093 54.5156 326.093 53.3324C326.093 52.1392 326.31 51.0977 326.742 50.2077C327.18 49.3178 327.786 48.6268 328.562 48.1346C329.342 47.6424 330.25 47.3963 331.284 47.3963C332.318 47.3963 333.223 47.6424 333.998 48.1346C334.779 48.6268 335.385 49.3178 335.818 50.2077C336.255 51.0977 336.474 52.1392 336.474 53.3324C336.474 54.5156 336.255 55.5497 335.818 56.4347C335.385 57.3196 334.779 58.0082 333.998 58.5004C333.223 58.9925 332.318 59.2386 331.284 59.2386ZM331.284 57.6577C332.069 57.6577 332.716 57.4563 333.223 57.0536C333.73 56.6509 334.105 56.1214 334.349 55.4652C334.592 54.8089 334.714 54.098 334.714 53.3324C334.714 52.5668 334.592 51.8533 334.349 51.1921C334.105 50.5309 333.73 49.9964 333.223 49.5888C332.716 49.1811 332.069 48.9773 331.284 48.9773C330.498 48.9773 329.852 49.1811 329.345 49.5888C328.838 49.9964 328.462 50.5309 328.219 51.1921C327.975 51.8533 327.853 52.5668 327.853 53.3324C327.853 54.098 327.975 54.8089 328.219 55.4652C328.462 56.1214 328.838 56.6509 329.345 57.0536C329.852 57.4563 330.498 57.6577 331.284 57.6577ZM346.379 54.3168V47.5455H348.139V59H346.379V57.0611H346.26C345.992 57.6428 345.574 58.1374 345.007 58.5451C344.44 58.9478 343.725 59.1491 342.859 59.1491C342.144 59.1491 341.507 58.9925 340.95 58.6793C340.394 58.3612 339.956 57.8839 339.638 57.2475C339.32 56.6062 339.161 55.7983 339.161 54.8239V47.5455H340.921V54.7045C340.921 55.5398 341.154 56.206 341.622 56.7031C342.094 57.2003 342.695 57.4489 343.426 57.4489C343.864 57.4489 344.309 57.337 344.761 57.1133C345.218 56.8896 345.601 56.5465 345.91 56.0842C346.223 55.6218 346.379 55.0327 346.379 54.3168ZM351.363 63.2955V47.5455H353.063V49.3651H353.272C353.401 49.1662 353.58 48.9126 353.809 48.6044C354.042 48.2912 354.376 48.0128 354.808 47.7692C355.246 47.5206 355.837 47.3963 356.583 47.3963C357.547 47.3963 358.398 47.6374 359.133 48.1197C359.869 48.6019 360.443 49.2855 360.856 50.1705C361.269 51.0554 361.475 52.0994 361.475 53.3026C361.475 54.5156 361.269 55.5671 360.856 56.457C360.443 57.342 359.872 58.0281 359.141 58.5153C358.41 58.9975 357.567 59.2386 356.613 59.2386C355.877 59.2386 355.288 59.1168 354.845 58.8732C354.403 58.6246 354.062 58.3437 353.824 58.0305C353.585 57.7124 353.401 57.4489 353.272 57.2401H353.123V63.2955H351.363ZM353.093 53.2727C353.093 54.1378 353.22 54.9009 353.473 55.5621C353.727 56.2184 354.097 56.733 354.584 57.1058C355.072 57.4737 355.668 57.6577 356.374 57.6577C357.11 57.6577 357.724 57.4638 358.216 57.076C358.713 56.6832 359.086 56.1562 359.335 55.495C359.588 54.8288 359.715 54.0881 359.715 53.2727C359.715 52.4673 359.591 51.7415 359.342 51.0952C359.099 50.4439 358.728 49.9293 358.231 49.5515C357.739 49.1687 357.12 48.9773 356.374 48.9773C355.658 48.9773 355.057 49.1587 354.569 49.5217C354.082 49.8796 353.714 50.3817 353.466 51.0281C353.217 51.6694 353.093 52.4176 353.093 53.2727Z" fill="black"/>
<path d="M671.202 8.54545C671.112 7.78977 670.749 7.20312 670.113 6.78551C669.477 6.3679 668.696 6.15909 667.771 6.15909C667.095 6.15909 666.504 6.26847 665.996 6.48722C665.494 6.70597 665.102 7.00675 664.818 7.38956C664.54 7.77237 664.401 8.20739 664.401 8.6946C664.401 9.10227 664.498 9.45277 664.691 9.74609C664.89 10.0344 665.144 10.2756 665.452 10.4695C665.76 10.6584 666.083 10.815 666.422 10.9393C666.76 11.0586 667.07 11.1555 667.354 11.2301L668.905 11.6477C669.303 11.7521 669.745 11.8963 670.232 12.0803C670.724 12.2642 671.194 12.5153 671.642 12.8335C672.094 13.1467 672.467 13.5494 672.76 14.0415C673.054 14.5337 673.2 15.1378 673.2 15.8537C673.2 16.679 672.984 17.4247 672.551 18.0909C672.124 18.7571 671.498 19.2866 670.672 19.6793C669.852 20.0721 668.855 20.2685 667.682 20.2685C666.588 20.2685 665.641 20.092 664.841 19.739C664.045 19.386 663.419 18.8938 662.961 18.2624C662.509 17.631 662.253 16.8977 662.193 16.0625H664.102C664.152 16.6392 664.346 17.1165 664.684 17.4943C665.027 17.8672 665.46 18.1456 665.982 18.3295C666.509 18.5085 667.075 18.598 667.682 18.598C668.388 18.598 669.022 18.4837 669.583 18.255C670.145 18.0213 670.59 17.6982 670.918 17.2855C671.246 16.8679 671.411 16.3807 671.411 15.8239C671.411 15.3168 671.269 14.9041 670.985 14.5859C670.702 14.2678 670.329 14.0092 669.867 13.8104C669.404 13.6115 668.905 13.4375 668.368 13.2884L666.489 12.7514C665.295 12.4084 664.351 11.9187 663.655 11.2823C662.959 10.646 662.611 9.81321 662.611 8.78409C662.611 7.92898 662.842 7.18324 663.304 6.54688C663.772 5.90554 664.398 5.40838 665.184 5.0554C665.974 4.69744 666.857 4.51847 667.831 4.51847C668.815 4.51847 669.69 4.69496 670.456 5.04794C671.222 5.39595 671.828 5.87322 672.276 6.47976C672.728 7.08629 672.967 7.77486 672.991 8.54545H671.202ZM680.805 20.2386C679.701 20.2386 678.749 19.995 677.949 19.5078C677.153 19.0156 676.539 18.3295 676.107 17.4496C675.679 16.5646 675.465 15.5355 675.465 14.3622C675.465 13.1889 675.679 12.1548 676.107 11.2599C676.539 10.3601 677.141 9.65909 677.911 9.15696C678.687 8.64986 679.592 8.39631 680.626 8.39631C681.223 8.39631 681.812 8.49574 682.393 8.6946C682.975 8.89347 683.505 9.21662 683.982 9.66406C684.459 10.1065 684.839 10.6932 685.123 11.424C685.406 12.1548 685.548 13.0547 685.548 14.1236V14.8693H676.718V13.348H683.758C683.758 12.7017 683.629 12.125 683.37 11.6179C683.117 11.1108 682.754 10.7106 682.282 10.4173C681.814 10.1239 681.262 9.97727 680.626 9.97727C679.925 9.97727 679.318 10.1513 678.806 10.4993C678.299 10.8423 677.909 11.2898 677.636 11.8416C677.362 12.3935 677.225 12.9851 677.225 13.6165V14.6307C677.225 15.4957 677.375 16.229 677.673 16.8306C677.976 17.4272 678.396 17.8821 678.933 18.1953C679.47 18.5036 680.094 18.6577 680.805 18.6577C681.267 18.6577 681.685 18.593 682.058 18.4638C682.436 18.3295 682.761 18.1307 683.035 17.8672C683.308 17.5987 683.519 17.2656 683.669 16.8679L685.369 17.3452C685.19 17.9219 684.889 18.429 684.467 18.8665C684.044 19.299 683.522 19.6371 682.9 19.8807C682.279 20.1193 681.581 20.2386 680.805 20.2386ZM689.985 4.72727V20H688.225V4.72727H689.985ZM698.011 20.2386C696.907 20.2386 695.955 19.995 695.155 19.5078C694.359 19.0156 693.745 18.3295 693.313 17.4496C692.885 16.5646 692.672 15.5355 692.672 14.3622C692.672 13.1889 692.885 12.1548 693.313 11.2599C693.745 10.3601 694.347 9.65909 695.118 9.15696C695.893 8.64986 696.798 8.39631 697.832 8.39631C698.429 8.39631 699.018 8.49574 699.599 8.6946C700.181 8.89347 700.711 9.21662 701.188 9.66406C701.665 10.1065 702.045 10.6932 702.329 11.424C702.612 12.1548 702.754 13.0547 702.754 14.1236V14.8693H693.924V13.348H700.964C700.964 12.7017 700.835 12.125 700.576 11.6179C700.323 11.1108 699.96 10.7106 699.488 10.4173C699.02 10.1239 698.468 9.97727 697.832 9.97727C697.131 9.97727 696.525 10.1513 696.012 10.4993C695.505 10.8423 695.115 11.2898 694.842 11.8416C694.568 12.3935 694.431 12.9851 694.431 13.6165V14.6307C694.431 15.4957 694.581 16.229 694.879 16.8306C695.182 17.4272 695.602 17.8821 696.139 18.1953C696.676 18.5036 697.3 18.6577 698.011 18.6577C698.473 18.6577 698.891 18.593 699.264 18.4638C699.642 18.3295 699.967 18.1307 700.241 17.8672C700.514 17.5987 700.725 17.2656 700.875 16.8679L702.575 17.3452C702.396 17.9219 702.095 18.429 701.673 18.8665C701.25 19.299 700.728 19.6371 700.107 19.8807C699.485 20.1193 698.787 20.2386 698.011 20.2386ZM710.085 20.2386C709.011 20.2386 708.086 19.9851 707.31 19.478C706.535 18.9709 705.938 18.2724 705.521 17.3825C705.103 16.4925 704.894 15.4759 704.894 14.3324C704.894 13.169 705.108 12.1424 705.536 11.2525C705.968 10.3576 706.57 9.65909 707.34 9.15696C708.116 8.64986 709.021 8.39631 710.055 8.39631C710.86 8.39631 711.586 8.54545 712.232 8.84375C712.879 9.14205 713.408 9.55966 713.821 10.0966C714.233 10.6335 714.489 11.2599 714.589 11.9759H712.829C712.695 11.4538 712.396 10.9915 711.934 10.5888C711.477 10.1811 710.86 9.97727 710.085 9.97727C709.398 9.97727 708.797 10.1562 708.28 10.5142C707.768 10.8672 707.368 11.3668 707.079 12.0131C706.796 12.6545 706.654 13.4077 706.654 14.2727C706.654 15.1577 706.793 15.9283 707.072 16.5845C707.355 17.2408 707.753 17.7504 708.265 18.1133C708.782 18.4762 709.388 18.6577 710.085 18.6577C710.542 18.6577 710.957 18.5781 711.33 18.419C711.703 18.2599 712.018 18.0312 712.277 17.733C712.536 17.4347 712.719 17.0767 712.829 16.6591H714.589C714.489 17.3352 714.243 17.9442 713.85 18.4862C713.463 19.0231 712.948 19.4506 712.307 19.7688C711.67 20.082 710.93 20.2386 710.085 20.2386ZM722.143 8.54545V10.0369H716.207V8.54545H722.143ZM717.937 5.80114H719.697V16.7188C719.697 17.2159 719.769 17.5888 719.913 17.8374C720.063 18.081 720.251 18.245 720.48 18.3295C720.714 18.4091 720.96 18.4489 721.218 18.4489C721.412 18.4489 721.571 18.4389 721.696 18.419C721.82 18.3942 721.919 18.3743 721.994 18.3594L722.352 19.9403C722.233 19.9851 722.066 20.0298 721.852 20.0746C721.638 20.1243 721.368 20.1491 721.039 20.1491C720.542 20.1491 720.055 20.0423 719.578 19.8285C719.105 19.6147 718.713 19.2891 718.4 18.8516C718.091 18.4141 717.937 17.8622 717.937 17.196V5.80114ZM730.935 20V4.72727H732.695V10.3651H732.844C732.974 10.1662 733.153 9.91264 733.381 9.6044C733.615 9.29119 733.948 9.01278 734.381 8.76918C734.818 8.5206 735.41 8.39631 736.156 8.39631C737.12 8.39631 737.97 8.63743 738.706 9.11967C739.442 9.60192 740.016 10.2855 740.429 11.1705C740.841 12.0554 741.048 13.0994 741.048 14.3026C741.048 15.5156 740.841 16.5671 740.429 17.457C740.016 18.342 739.444 19.0281 738.713 19.5153C737.983 19.9975 737.14 20.2386 736.185 20.2386C735.45 20.2386 734.86 20.1168 734.418 19.8732C733.975 19.6246 733.635 19.3437 733.396 19.0305C733.158 18.7124 732.974 18.4489 732.844 18.2401H732.636V20H730.935ZM732.665 14.2727C732.665 15.1378 732.792 15.9009 733.046 16.5621C733.299 17.2184 733.67 17.733 734.157 18.1058C734.644 18.4737 735.241 18.6577 735.947 18.6577C736.683 18.6577 737.297 18.4638 737.789 18.076C738.286 17.6832 738.659 17.1562 738.907 16.495C739.161 15.8288 739.288 15.0881 739.288 14.2727C739.288 13.4673 739.163 12.7415 738.915 12.0952C738.671 11.4439 738.301 10.9293 737.804 10.5515C737.311 10.1687 736.692 9.97727 735.947 9.97727C735.231 9.97727 734.629 10.1587 734.142 10.5217C733.655 10.8796 733.287 11.3817 733.038 12.0281C732.79 12.6694 732.665 13.4176 732.665 14.2727ZM750.958 15.3168V8.54545H752.718V20H750.958V18.0611H750.839C750.571 18.6428 750.153 19.1374 749.586 19.5451C749.02 19.9478 748.304 20.1491 747.439 20.1491C746.723 20.1491 746.086 19.9925 745.529 19.6793C744.973 19.3612 744.535 18.8839 744.217 18.2475C743.899 17.6062 743.74 16.7983 743.74 15.8239V8.54545H745.5V15.7045C745.5 16.5398 745.733 17.206 746.201 17.7031C746.673 18.2003 747.275 18.4489 748.005 18.4489C748.443 18.4489 748.888 18.337 749.34 18.1133C749.798 17.8896 750.18 17.5465 750.489 17.0842C750.802 16.6218 750.958 16.0327 750.958 15.3168ZM760.923 8.54545V10.0369H754.987V8.54545H760.923ZM756.717 5.80114H758.477V16.7188C758.477 17.2159 758.549 17.5888 758.694 17.8374C758.843 18.081 759.032 18.245 759.26 18.3295C759.494 18.4091 759.74 18.4489 759.999 18.4489C760.193 18.4489 760.352 18.4389 760.476 18.419C760.6 18.3942 760.7 18.3743 760.774 18.3594L761.132 19.9403C761.013 19.9851 760.846 20.0298 760.633 20.0746C760.419 20.1243 760.148 20.1491 759.82 20.1491C759.323 20.1491 758.835 20.0423 758.358 19.8285C757.886 19.6147 757.493 19.2891 757.18 18.8516C756.872 18.4141 756.717 17.8622 756.717 17.196V5.80114ZM768.552 8.54545V10.0369H762.616V8.54545H768.552ZM764.346 5.80114H766.106V16.7188C766.106 17.2159 766.178 17.5888 766.323 17.8374C766.472 18.081 766.661 18.245 766.889 18.3295C767.123 18.4091 767.369 18.4489 767.628 18.4489C767.821 18.4489 767.981 18.4389 768.105 18.419C768.229 18.3942 768.329 18.3743 768.403 18.3594L768.761 19.9403C768.642 19.9851 768.475 20.0298 768.261 20.0746C768.048 20.1243 767.777 20.1491 767.449 20.1491C766.951 20.1491 766.464 20.0423 765.987 19.8285C765.515 19.6147 765.122 19.2891 764.809 18.8516C764.5 18.4141 764.346 17.8622 764.346 17.196V5.80114ZM775.73 20.2386C774.696 20.2386 773.789 19.9925 773.008 19.5004C772.233 19.0082 771.626 18.3196 771.188 17.4347C770.756 16.5497 770.54 15.5156 770.54 14.3324C770.54 13.1392 770.756 12.0977 771.188 11.2077C771.626 10.3178 772.233 9.62678 773.008 9.13459C773.789 8.6424 774.696 8.39631 775.73 8.39631C776.764 8.39631 777.669 8.6424 778.445 9.13459C779.225 9.62678 779.832 10.3178 780.264 11.2077C780.702 12.0977 780.92 13.1392 780.92 14.3324C780.92 15.5156 780.702 16.5497 780.264 17.4347C779.832 18.3196 779.225 19.0082 778.445 19.5004C777.669 19.9925 776.764 20.2386 775.73 20.2386ZM775.73 18.6577C776.516 18.6577 777.162 18.4563 777.669 18.0536C778.176 17.6509 778.551 17.1214 778.795 16.4652C779.039 15.8089 779.16 15.098 779.16 14.3324C779.16 13.5668 779.039 12.8533 778.795 12.1921C778.551 11.5309 778.176 10.9964 777.669 10.5888C777.162 10.1811 776.516 9.97727 775.73 9.97727C774.945 9.97727 774.298 10.1811 773.791 10.5888C773.284 10.9964 772.909 11.5309 772.665 12.1921C772.421 12.8533 772.3 13.5668 772.3 14.3324C772.3 15.098 772.421 15.8089 772.665 16.4652C772.909 17.1214 773.284 17.6509 773.791 18.0536C774.298 18.4563 774.945 18.6577 775.73 18.6577ZM785.367 13.1094V20H783.607V8.54545H785.307V10.3352H785.456C785.725 9.75355 786.132 9.28622 786.679 8.93324C787.226 8.57528 787.932 8.39631 788.797 8.39631C789.573 8.39631 790.251 8.5554 790.833 8.87358C791.415 9.18679 791.867 9.66406 792.19 10.3054C792.513 10.9418 792.675 11.7472 792.675 12.7216V20H790.915V12.8409C790.915 11.9411 790.681 11.2401 790.214 10.7379C789.747 10.2308 789.105 9.97727 788.29 9.97727C787.728 9.97727 787.226 10.0991 786.784 10.3427C786.346 10.5863 786.001 10.9418 785.747 11.4091C785.494 11.8764 785.367 12.4432 785.367 13.1094ZM662.849 45V29.7273H668.01C669.203 29.7273 670.183 29.9311 670.948 30.3388C671.714 30.7415 672.281 31.2958 672.648 32.0018C673.016 32.7077 673.2 33.5107 673.2 34.4105C673.2 35.3104 673.016 36.1083 672.648 36.8043C672.281 37.5004 671.716 38.0472 670.956 38.445C670.195 38.8377 669.223 39.0341 668.04 39.0341H663.864V37.3636H667.98C668.795 37.3636 669.452 37.2443 669.949 37.0057C670.451 36.767 670.814 36.429 671.038 35.9915C671.266 35.549 671.381 35.022 671.381 34.4105C671.381 33.799 671.266 33.2646 671.038 32.8072C670.809 32.3498 670.444 31.9968 669.941 31.7482C669.439 31.4947 668.776 31.3679 667.95 31.3679H664.699V45H662.849ZM670.038 38.1392L673.797 45H671.649L667.95 38.1392H670.038ZM680.723 45.2386C679.619 45.2386 678.667 44.995 677.867 44.5078C677.071 44.0156 676.457 43.3295 676.025 42.4496C675.597 41.5646 675.383 40.5355 675.383 39.3622C675.383 38.1889 675.597 37.1548 676.025 36.2599C676.457 35.3601 677.059 34.6591 677.829 34.157C678.605 33.6499 679.51 33.3963 680.544 33.3963C681.141 33.3963 681.73 33.4957 682.311 33.6946C682.893 33.8935 683.422 34.2166 683.9 34.6641C684.377 35.1065 684.757 35.6932 685.041 36.424C685.324 37.1548 685.466 38.0547 685.466 39.1236V39.8693H676.636V38.348H683.676C683.676 37.7017 683.547 37.125 683.288 36.6179C683.035 36.1108 682.672 35.7106 682.199 35.4173C681.732 35.1239 681.18 34.9773 680.544 34.9773C679.843 34.9773 679.236 35.1513 678.724 35.4993C678.217 35.8423 677.827 36.2898 677.554 36.8416C677.28 37.3935 677.143 37.9851 677.143 38.6165V39.6307C677.143 40.4957 677.293 41.229 677.591 41.8306C677.894 42.4272 678.314 42.8821 678.851 43.1953C679.388 43.5036 680.012 43.6577 680.723 43.6577C681.185 43.6577 681.603 43.593 681.976 43.4638C682.354 43.3295 682.679 43.1307 682.953 42.8672C683.226 42.5987 683.437 42.2656 683.587 41.8679L685.287 42.3452C685.108 42.9219 684.807 43.429 684.384 43.8665C683.962 44.299 683.44 44.6371 682.818 44.8807C682.197 45.1193 681.498 45.2386 680.723 45.2386ZM692.796 45.2386C691.723 45.2386 690.798 44.9851 690.022 44.478C689.247 43.9709 688.65 43.2724 688.233 42.3825C687.815 41.4925 687.606 40.4759 687.606 39.3324C687.606 38.169 687.82 37.1424 688.247 36.2525C688.68 35.3576 689.282 34.6591 690.052 34.157C690.828 33.6499 691.733 33.3963 692.767 33.3963C693.572 33.3963 694.298 33.5455 694.944 33.8438C695.59 34.142 696.12 34.5597 696.533 35.0966C696.945 35.6335 697.201 36.2599 697.301 36.9759H695.541C695.407 36.4538 695.108 35.9915 694.646 35.5888C694.188 35.1811 693.572 34.9773 692.796 34.9773C692.11 34.9773 691.509 35.1562 690.992 35.5142C690.48 35.8672 690.079 36.3668 689.791 37.0131C689.508 37.6545 689.366 38.4077 689.366 39.2727C689.366 40.1577 689.505 40.9283 689.784 41.5845C690.067 42.2408 690.465 42.7504 690.977 43.1133C691.494 43.4762 692.1 43.6577 692.796 43.6577C693.254 43.6577 693.669 43.5781 694.042 43.419C694.415 43.2599 694.73 43.0312 694.989 42.733C695.247 42.4347 695.431 42.0767 695.541 41.6591H697.301C697.201 42.3352 696.955 42.9442 696.562 43.4862C696.175 44.0231 695.66 44.4506 695.019 44.7688C694.382 45.082 693.642 45.2386 692.796 45.2386ZM704.855 33.5455V35.0369H698.919V33.5455H704.855ZM700.649 30.8011H702.409V41.7188C702.409 42.2159 702.481 42.5888 702.625 42.8374C702.774 43.081 702.963 43.245 703.192 43.3295C703.426 43.4091 703.672 43.4489 703.93 43.4489C704.124 43.4489 704.283 43.4389 704.408 43.419C704.532 43.3942 704.631 43.3743 704.706 43.3594L705.064 44.9403C704.945 44.9851 704.778 45.0298 704.564 45.0746C704.35 45.1243 704.079 45.1491 703.751 45.1491C703.254 45.1491 702.767 45.0423 702.29 44.8285C701.817 44.6147 701.425 44.2891 701.111 43.8516C700.803 43.4141 700.649 42.8622 700.649 42.196V30.8011ZM710.873 45.2685C710.147 45.2685 709.489 45.1317 708.897 44.8583C708.305 44.5799 707.835 44.1797 707.487 43.6577C707.139 43.1307 706.965 42.4943 706.965 41.7486C706.965 41.0923 707.095 40.5604 707.353 40.1527C707.612 39.7401 707.957 39.4169 708.39 39.1832C708.822 38.9496 709.3 38.7756 709.822 38.6612C710.349 38.5419 710.878 38.4474 711.41 38.3778C712.106 38.2884 712.67 38.2212 713.103 38.1765C713.54 38.1268 713.859 38.0447 714.057 37.9304C714.261 37.8161 714.363 37.6172 714.363 37.3338V37.2741C714.363 36.5384 714.162 35.9666 713.759 35.5589C713.361 35.1513 712.757 34.9474 711.947 34.9474C711.107 34.9474 710.448 35.1314 709.971 35.4993C709.494 35.8672 709.158 36.2599 708.964 36.6776L707.294 36.081C707.592 35.3849 707.99 34.843 708.487 34.4553C708.989 34.0625 709.536 33.7891 710.127 33.6349C710.724 33.4759 711.311 33.3963 711.887 33.3963C712.255 33.3963 712.678 33.4411 713.155 33.5305C713.637 33.6151 714.102 33.7915 714.55 34.06C715.002 34.3285 715.377 34.7337 715.676 35.2756C715.974 35.8175 716.123 36.5433 716.123 37.4531V45H714.363V43.4489H714.274C714.154 43.6974 713.956 43.9634 713.677 44.2468C713.399 44.5302 713.028 44.7713 712.566 44.9702C712.104 45.169 711.539 45.2685 710.873 45.2685ZM711.142 43.6875C711.838 43.6875 712.424 43.5508 712.902 43.2773C713.384 43.0039 713.747 42.6509 713.99 42.2184C714.239 41.7859 714.363 41.331 714.363 40.8537V39.2429C714.289 39.3324 714.125 39.4144 713.871 39.489C713.622 39.5586 713.334 39.6207 713.006 39.6754C712.683 39.7251 712.367 39.7699 712.059 39.8097C711.756 39.8445 711.509 39.8743 711.321 39.8991C710.863 39.9588 710.436 40.0558 710.038 40.19C709.645 40.3192 709.327 40.5156 709.083 40.7791C708.845 41.0376 708.725 41.3906 708.725 41.8381C708.725 42.4496 708.952 42.9119 709.404 43.2251C709.861 43.5334 710.441 43.6875 711.142 43.6875ZM721.095 38.1094V45H719.335V33.5455H721.036V35.3352H721.185C721.453 34.7536 721.861 34.2862 722.408 33.9332C722.955 33.5753 723.661 33.3963 724.526 33.3963C725.301 33.3963 725.98 33.5554 726.562 33.8736C727.143 34.1868 727.596 34.6641 727.919 35.3054C728.242 35.9418 728.404 36.7472 728.404 37.7216V45H726.644V37.8409C726.644 36.9411 726.41 36.2401 725.943 35.7379C725.475 35.2308 724.834 34.9773 724.019 34.9773C723.457 34.9773 722.955 35.0991 722.512 35.3427C722.075 35.5863 721.729 35.9418 721.476 36.4091C721.222 36.8764 721.095 37.4432 721.095 38.1094ZM736.243 49.5341C735.393 49.5341 734.662 49.4247 734.051 49.206C733.439 48.9922 732.93 48.7088 732.522 48.3558C732.119 48.0078 731.799 47.6349 731.56 47.2372L732.962 46.2528C733.121 46.4616 733.322 46.7003 733.566 46.9688C733.81 47.2422 734.143 47.4783 734.565 47.6772C734.993 47.881 735.552 47.983 736.243 47.983C737.168 47.983 737.931 47.7592 738.533 47.3118C739.134 46.8643 739.435 46.1634 739.435 45.2088V42.8821H739.286C739.157 43.0909 738.973 43.3494 738.734 43.6577C738.5 43.9609 738.162 44.2319 737.72 44.4705C737.282 44.7042 736.691 44.821 735.945 44.821C735.02 44.821 734.19 44.6023 733.454 44.1648C732.723 43.7273 732.144 43.0909 731.717 42.2557C731.294 41.4205 731.083 40.4062 731.083 39.2131C731.083 38.0398 731.289 37.0181 731.702 36.1481C732.114 35.2731 732.688 34.5969 733.424 34.1197C734.16 33.6374 735.01 33.3963 735.975 33.3963C736.72 33.3963 737.312 33.5206 737.75 33.7692C738.192 34.0128 738.53 34.2912 738.764 34.6044C739.002 34.9126 739.186 35.1662 739.316 35.3651H739.495V33.5455H741.195V45.3281C741.195 46.3125 740.971 47.1129 740.524 47.7294C740.081 48.3509 739.485 48.8058 738.734 49.0941C737.988 49.3874 737.158 49.5341 736.243 49.5341ZM736.184 43.2401C736.889 43.2401 737.486 43.0785 737.973 42.7553C738.46 42.4322 738.831 41.9673 739.084 41.3608C739.338 40.7543 739.465 40.0284 739.465 39.1832C739.465 38.358 739.34 37.6296 739.092 36.9982C738.843 36.3668 738.475 35.8722 737.988 35.5142C737.501 35.1562 736.899 34.9773 736.184 34.9773C735.438 34.9773 734.816 35.1662 734.319 35.544C733.827 35.9219 733.457 36.429 733.208 37.0653C732.964 37.7017 732.843 38.4077 732.843 39.1832C732.843 39.9787 732.967 40.6822 733.215 41.2937C733.469 41.9002 733.842 42.3775 734.334 42.7255C734.831 43.0685 735.448 43.2401 736.184 43.2401ZM746.176 29.7273V45H744.416V29.7273H746.176ZM754.202 45.2386C753.099 45.2386 752.147 44.995 751.346 44.5078C750.551 44.0156 749.937 43.3295 749.504 42.4496C749.077 41.5646 748.863 40.5355 748.863 39.3622C748.863 38.1889 749.077 37.1548 749.504 36.2599C749.937 35.3601 750.538 34.6591 751.309 34.157C752.085 33.6499 752.989 33.3963 754.023 33.3963C754.62 33.3963 755.209 33.4957 755.791 33.6946C756.373 33.8935 756.902 34.2166 757.379 34.6641C757.857 35.1065 758.237 35.6932 758.52 36.424C758.804 37.1548 758.945 38.0547 758.945 39.1236V39.8693H750.116V38.348H757.156C757.156 37.7017 757.026 37.125 756.768 36.6179C756.514 36.1108 756.151 35.7106 755.679 35.4173C755.212 35.1239 754.66 34.9773 754.023 34.9773C753.322 34.9773 752.716 35.1513 752.204 35.4993C751.697 35.8423 751.306 36.2898 751.033 36.8416C750.76 37.3935 750.623 37.9851 750.623 38.6165V39.6307C750.623 40.4957 750.772 41.229 751.07 41.8306C751.374 42.4272 751.794 42.8821 752.331 43.1953C752.868 43.5036 753.491 43.6577 754.202 43.6577C754.665 43.6577 755.082 43.593 755.455 43.4638C755.833 43.3295 756.159 43.1307 756.432 42.8672C756.706 42.5987 756.917 42.2656 757.066 41.8679L758.766 42.3452C758.587 42.9219 758.287 43.429 757.864 43.8665C757.441 44.299 756.919 44.6371 756.298 44.8807C755.676 45.1193 754.978 45.2386 754.202 45.2386ZM770.9 45.2685C770.174 45.2685 769.515 45.1317 768.923 44.8583C768.332 44.5799 767.862 44.1797 767.514 43.6577C767.166 43.1307 766.992 42.4943 766.992 41.7486C766.992 41.0923 767.121 40.5604 767.38 40.1527C767.638 39.7401 767.984 39.4169 768.416 39.1832C768.849 38.9496 769.326 38.7756 769.848 38.6612C770.375 38.5419 770.904 38.4474 771.436 38.3778C772.132 38.2884 772.697 38.2212 773.129 38.1765C773.567 38.1268 773.885 38.0447 774.084 37.9304C774.288 37.8161 774.39 37.6172 774.39 37.3338V37.2741C774.39 36.5384 774.188 35.9666 773.786 35.5589C773.388 35.1513 772.784 34.9474 771.973 34.9474C771.133 34.9474 770.474 35.1314 769.997 35.4993C769.52 35.8672 769.184 36.2599 768.99 36.6776L767.32 36.081C767.618 35.3849 768.016 34.843 768.513 34.4553C769.015 34.0625 769.562 33.7891 770.154 33.6349C770.75 33.4759 771.337 33.3963 771.914 33.3963C772.282 33.3963 772.704 33.4411 773.181 33.5305C773.664 33.6151 774.129 33.7915 774.576 34.06C775.028 34.3285 775.404 34.7337 775.702 35.2756C776 35.8175 776.15 36.5433 776.15 37.4531V45H774.39V43.4489H774.3C774.181 43.6974 773.982 43.9634 773.703 44.2468C773.425 44.5302 773.055 44.7713 772.592 44.9702C772.13 45.169 771.566 45.2685 770.9 45.2685ZM771.168 43.6875C771.864 43.6875 772.451 43.5508 772.928 43.2773C773.41 43.0039 773.773 42.6509 774.017 42.2184C774.265 41.7859 774.39 41.331 774.39 40.8537V39.2429C774.315 39.3324 774.151 39.4144 773.897 39.489C773.649 39.5586 773.36 39.6207 773.032 39.6754C772.709 39.7251 772.393 39.7699 772.085 39.8097C771.782 39.8445 771.536 39.8743 771.347 39.8991C770.89 39.9588 770.462 40.0558 770.064 40.19C769.672 40.3192 769.353 40.5156 769.11 40.7791C768.871 41.0376 768.752 41.3906 768.752 41.8381C768.752 42.4496 768.978 42.9119 769.43 43.2251C769.888 43.5334 770.467 43.6875 771.168 43.6875ZM781.122 38.1094V45H779.362V33.5455H781.062V35.3352H781.211C781.48 34.7536 781.887 34.2862 782.434 33.9332C782.981 33.5753 783.687 33.3963 784.552 33.3963C785.328 33.3963 786.006 33.5554 786.588 33.8736C787.17 34.1868 787.622 34.6641 787.945 35.3054C788.268 35.9418 788.43 36.7472 788.43 37.7216V45H786.67V37.8409C786.67 36.9411 786.436 36.2401 785.969 35.7379C785.502 35.2308 784.86 34.9773 784.045 34.9773C783.483 34.9773 782.981 35.0991 782.539 35.3427C782.101 35.5863 781.756 35.9418 781.502 36.4091C781.248 36.8764 781.122 37.4432 781.122 38.1094ZM795.971 45.2386C795.017 45.2386 794.174 44.9975 793.443 44.5153C792.712 44.0281 792.141 43.342 791.728 42.457C791.315 41.5671 791.109 40.5156 791.109 39.3026C791.109 38.0994 791.315 37.0554 791.728 36.1705C792.141 35.2855 792.715 34.6019 793.451 34.1197C794.186 33.6374 795.037 33.3963 796.001 33.3963C796.747 33.3963 797.336 33.5206 797.768 33.7692C798.206 34.0128 798.539 34.2912 798.768 34.6044C799.001 34.9126 799.183 35.1662 799.312 35.3651H799.461V29.7273H801.221V45H799.521V43.2401H799.312C799.183 43.4489 798.999 43.7124 798.76 44.0305C798.522 44.3437 798.181 44.6246 797.739 44.8732C797.296 45.1168 796.707 45.2386 795.971 45.2386ZM796.21 43.6577C796.916 43.6577 797.512 43.4737 798 43.1058C798.487 42.733 798.857 42.2184 799.111 41.5621C799.364 40.9009 799.491 40.1378 799.491 39.2727C799.491 38.4176 799.367 37.6694 799.118 37.0281C798.87 36.3817 798.502 35.8796 798.015 35.5217C797.527 35.1587 796.926 34.9773 796.21 34.9773C795.464 34.9773 794.843 35.1687 794.346 35.5515C793.853 35.9293 793.483 36.4439 793.234 37.0952C792.991 37.7415 792.869 38.4673 792.869 39.2727C792.869 40.0881 792.993 40.8288 793.242 41.495C793.495 42.1562 793.868 42.6832 794.36 43.076C794.858 43.4638 795.474 43.6577 796.21 43.6577ZM813.966 45.2685C813.24 45.2685 812.581 45.1317 811.99 44.8583C811.398 44.5799 810.928 44.1797 810.58 43.6577C810.232 43.1307 810.058 42.4943 810.058 41.7486C810.058 41.0923 810.188 40.5604 810.446 40.1527C810.705 39.7401 811.05 39.4169 811.483 39.1832C811.915 38.9496 812.392 38.7756 812.914 38.6612C813.441 38.5419 813.971 38.4474 814.503 38.3778C815.199 38.2884 815.763 38.2212 816.196 38.1765C816.633 38.1268 816.951 38.0447 817.15 37.9304C817.354 37.8161 817.456 37.6172 817.456 37.3338V37.2741C817.456 36.5384 817.255 35.9666 816.852 35.5589C816.454 35.1513 815.85 34.9474 815.04 34.9474C814.2 34.9474 813.541 35.1314 813.064 35.4993C812.586 35.8672 812.251 36.2599 812.057 36.6776L810.386 36.081C810.685 35.3849 811.082 34.843 811.58 34.4553C812.082 34.0625 812.629 33.7891 813.22 33.6349C813.817 33.4759 814.403 33.3963 814.98 33.3963C815.348 33.3963 815.771 33.4411 816.248 33.5305C816.73 33.6151 817.195 33.7915 817.642 34.06C818.095 34.3285 818.47 34.7337 818.768 35.2756C819.067 35.8175 819.216 36.5433 819.216 37.4531V45H817.456V43.4489H817.366C817.247 43.6974 817.048 43.9634 816.77 44.2468C816.491 44.5302 816.121 44.7713 815.659 44.9702C815.196 45.169 814.632 45.2685 813.966 45.2685ZM814.234 43.6875C814.93 43.6875 815.517 43.5508 815.994 43.2773C816.477 43.0039 816.839 42.6509 817.083 42.2184C817.332 41.7859 817.456 41.331 817.456 40.8537V39.2429C817.381 39.3324 817.217 39.4144 816.964 39.489C816.715 39.5586 816.427 39.6207 816.099 39.6754C815.776 39.7251 815.46 39.7699 815.152 39.8097C814.848 39.8445 814.602 39.8743 814.413 39.8991C813.956 39.9588 813.528 40.0558 813.131 40.19C812.738 40.3192 812.42 40.5156 812.176 40.7791C811.938 41.0376 811.818 41.3906 811.818 41.8381C811.818 42.4496 812.044 42.9119 812.497 43.2251C812.954 43.5334 813.533 43.6875 814.234 43.6875ZM824.188 29.7273V45H822.428V29.7273H824.188ZM827.412 45V33.5455H829.172V45H827.412ZM828.306 31.6364C827.963 31.6364 827.668 31.5195 827.419 31.2859C827.175 31.0522 827.054 30.7713 827.054 30.4432C827.054 30.1151 827.175 29.8342 827.419 29.6005C827.668 29.3668 827.963 29.25 828.306 29.25C828.65 29.25 828.943 29.3668 829.186 29.6005C829.435 29.8342 829.559 30.1151 829.559 30.4432C829.559 30.7713 829.435 31.0522 829.186 31.2859C828.943 31.5195 828.65 31.6364 828.306 31.6364ZM837.019 49.5341C836.168 49.5341 835.438 49.4247 834.826 49.206C834.215 48.9922 833.705 48.7088 833.297 48.3558C832.895 48.0078 832.574 47.6349 832.335 47.2372L833.737 46.2528C833.896 46.4616 834.098 46.7003 834.341 46.9688C834.585 47.2422 834.918 47.4783 835.341 47.6772C835.768 47.881 836.328 47.983 837.019 47.983C837.943 47.983 838.706 47.7592 839.308 47.3118C839.91 46.8643 840.21 46.1634 840.21 45.2088V42.8821H840.061C839.932 43.0909 839.748 43.3494 839.509 43.6577C839.276 43.9609 838.938 44.2319 838.495 44.4705C838.058 44.7042 837.466 44.821 836.72 44.821C835.796 44.821 834.965 44.6023 834.229 44.1648C833.499 43.7273 832.919 43.0909 832.492 42.2557C832.069 41.4205 831.858 40.4062 831.858 39.2131C831.858 38.0398 832.064 37.0181 832.477 36.1481C832.89 35.2731 833.464 34.5969 834.2 34.1197C834.935 33.6374 835.786 33.3963 836.75 33.3963C837.496 33.3963 838.087 33.5206 838.525 33.7692C838.967 34.0128 839.305 34.2912 839.539 34.6044C839.778 34.9126 839.962 35.1662 840.091 35.3651H840.27V33.5455H841.97V45.3281C841.97 46.3125 841.747 47.1129 841.299 47.7294C840.857 48.3509 840.26 48.8058 839.509 49.0941C838.764 49.3874 837.933 49.5341 837.019 49.5341ZM836.959 43.2401C837.665 43.2401 838.261 43.0785 838.749 42.7553C839.236 42.4322 839.606 41.9673 839.86 41.3608C840.113 40.7543 840.24 40.0284 840.24 39.1832C840.24 38.358 840.116 37.6296 839.867 36.9982C839.619 36.3668 839.251 35.8722 838.764 35.5142C838.276 35.1562 837.675 34.9773 836.959 34.9773C836.213 34.9773 835.592 35.1662 835.095 35.544C834.602 35.9219 834.232 36.429 833.983 37.0653C833.74 37.7017 833.618 38.4077 833.618 39.1832C833.618 39.9787 833.742 40.6822 833.991 41.2937C834.244 41.9002 834.617 42.3775 835.109 42.7255C835.607 43.0685 836.223 43.2401 836.959 43.2401ZM846.952 38.1094V45H845.192V33.5455H846.892V35.3352H847.041C847.31 34.7536 847.717 34.2862 848.264 33.9332C848.811 33.5753 849.517 33.3963 850.382 33.3963C851.158 33.3963 851.836 33.5554 852.418 33.8736C853 34.1868 853.452 34.6641 853.775 35.3054C854.098 35.9418 854.26 36.7472 854.26 37.7216V45H852.5V37.8409C852.5 36.9411 852.266 36.2401 851.799 35.7379C851.332 35.2308 850.69 34.9773 849.875 34.9773C849.313 34.9773 848.811 35.0991 848.369 35.3427C847.931 35.5863 847.586 35.9418 847.332 36.4091C847.079 36.8764 846.952 37.4432 846.952 38.1094ZM868.364 33.5455V35.0369H862.428V33.5455H868.364ZM864.158 30.8011H865.918V41.7188C865.918 42.2159 865.99 42.5888 866.134 42.8374C866.283 43.081 866.472 43.245 866.701 43.3295C866.934 43.4091 867.181 43.4489 867.439 43.4489C867.633 43.4489 867.792 43.4389 867.916 43.419C868.041 43.3942 868.14 43.3743 868.215 43.3594L868.573 44.9403C868.453 44.9851 868.287 45.0298 868.073 45.0746C867.859 45.1243 867.588 45.1491 867.26 45.1491C866.763 45.1491 866.276 45.0423 865.798 44.8285C865.326 44.6147 864.933 44.2891 864.62 43.8516C864.312 43.4141 864.158 42.8622 864.158 42.196V30.8011ZM875.542 45.2386C874.507 45.2386 873.6 44.9925 872.82 44.5004C872.044 44.0082 871.438 43.3196 871 42.4347C870.567 41.5497 870.351 40.5156 870.351 39.3324C870.351 38.1392 870.567 37.0977 871 36.2077C871.438 35.3178 872.044 34.6268 872.82 34.1346C873.6 33.6424 874.507 33.3963 875.542 33.3963C876.576 33.3963 877.48 33.6424 878.256 34.1346C879.037 34.6268 879.643 35.3178 880.076 36.2077C880.513 37.0977 880.732 38.1392 880.732 39.3324C880.732 40.5156 880.513 41.5497 880.076 42.4347C879.643 43.3196 879.037 44.0082 878.256 44.5004C877.48 44.9925 876.576 45.2386 875.542 45.2386ZM875.542 43.6577C876.327 43.6577 876.973 43.4563 877.48 43.0536C877.988 42.6509 878.363 42.1214 878.607 41.4652C878.85 40.8089 878.972 40.098 878.972 39.3324C878.972 38.5668 878.85 37.8533 878.607 37.1921C878.363 36.5309 877.988 35.9964 877.48 35.5888C876.973 35.1811 876.327 34.9773 875.542 34.9773C874.756 34.9773 874.11 35.1811 873.603 35.5888C873.096 35.9964 872.72 36.5309 872.477 37.1921C872.233 37.8533 872.111 38.5668 872.111 39.3324C872.111 40.098 872.233 40.8089 872.477 41.4652C872.72 42.1214 873.096 42.6509 873.603 43.0536C874.11 43.4563 874.756 43.6577 875.542 43.6577ZM662.849 70V54.7273H668.01C669.208 54.7273 670.188 54.9435 670.948 55.3761C671.714 55.8036 672.281 56.3828 672.648 57.1136C673.016 57.8445 673.2 58.6598 673.2 59.5597C673.2 60.4595 673.016 61.2773 672.648 62.0131C672.286 62.7489 671.724 63.3356 670.963 63.7731C670.202 64.2056 669.228 64.4219 668.04 64.4219H664.341V62.7812H667.98C668.8 62.7812 669.459 62.6396 669.956 62.3562C670.453 62.0728 670.814 61.69 671.038 61.2077C671.266 60.7205 671.381 60.1712 671.381 59.5597C671.381 58.9482 671.266 58.4013 671.038 57.919C670.814 57.4368 670.451 57.0589 669.949 56.7855C669.447 56.5071 668.781 56.3679 667.95 56.3679H664.699V70H662.849ZM679.312 70.2685C678.586 70.2685 677.927 70.1317 677.335 69.8583C676.744 69.5799 676.274 69.1797 675.926 68.6577C675.578 68.1307 675.404 67.4943 675.404 66.7486C675.404 66.0923 675.533 65.5604 675.792 65.1527C676.05 64.7401 676.396 64.4169 676.828 64.1832C677.261 63.9496 677.738 63.7756 678.26 63.6612C678.787 63.5419 679.317 63.4474 679.849 63.3778C680.545 63.2884 681.109 63.2212 681.541 63.1765C681.979 63.1268 682.297 63.0447 682.496 62.9304C682.7 62.8161 682.802 62.6172 682.802 62.3338V62.2741C682.802 61.5384 682.6 60.9666 682.198 60.5589C681.8 60.1513 681.196 59.9474 680.385 59.9474C679.545 59.9474 678.887 60.1314 678.409 60.4993C677.932 60.8672 677.596 61.2599 677.403 61.6776L675.732 61.081C676.03 60.3849 676.428 59.843 676.925 59.4553C677.427 59.0625 677.974 58.7891 678.566 58.6349C679.162 58.4759 679.749 58.3963 680.326 58.3963C680.694 58.3963 681.116 58.4411 681.594 58.5305C682.076 58.6151 682.541 58.7915 682.988 59.06C683.441 59.3285 683.816 59.7337 684.114 60.2756C684.412 60.8175 684.562 61.5433 684.562 62.4531V70H682.802V68.4489H682.712C682.593 68.6974 682.394 68.9634 682.116 69.2468C681.837 69.5302 681.467 69.7713 681.004 69.9702C680.542 70.169 679.978 70.2685 679.312 70.2685ZM679.58 68.6875C680.276 68.6875 680.863 68.5508 681.34 68.2773C681.822 68.0039 682.185 67.6509 682.429 67.2184C682.677 66.7859 682.802 66.331 682.802 65.8537V64.2429C682.727 64.3324 682.563 64.4144 682.309 64.489C682.061 64.5586 681.773 64.6207 681.444 64.6754C681.121 64.7251 680.806 64.7699 680.497 64.8097C680.194 64.8445 679.948 64.8743 679.759 64.8991C679.302 64.9588 678.874 65.0558 678.476 65.19C678.084 65.3192 677.765 65.5156 677.522 65.7791C677.283 66.0376 677.164 66.3906 677.164 66.8381C677.164 67.4496 677.39 67.9119 677.843 68.2251C678.3 68.5334 678.879 68.6875 679.58 68.6875ZM687.774 70V58.5455H689.474V60.2756H689.593C689.802 59.7088 690.18 59.2489 690.727 58.896C691.274 58.543 691.89 58.3665 692.576 58.3665C692.706 58.3665 692.867 58.369 693.061 58.3739C693.255 58.3789 693.402 58.3864 693.501 58.3963V60.1861C693.441 60.1712 693.305 60.1488 693.091 60.119C692.882 60.0842 692.661 60.0668 692.427 60.0668C691.87 60.0668 691.373 60.1836 690.936 60.4173C690.503 60.646 690.16 60.9641 689.907 61.3718C689.658 61.7745 689.534 62.2344 689.534 62.7514V70H687.774ZM700.041 70.2386C698.938 70.2386 697.986 69.995 697.185 69.5078C696.39 69.0156 695.776 68.3295 695.343 67.4496C694.916 66.5646 694.702 65.5355 694.702 64.3622C694.702 63.1889 694.916 62.1548 695.343 61.2599C695.776 60.3601 696.377 59.6591 697.148 59.157C697.923 58.6499 698.828 58.3963 699.862 58.3963C700.459 58.3963 701.048 58.4957 701.63 58.6946C702.211 58.8935 702.741 59.2166 703.218 59.6641C703.695 60.1065 704.076 60.6932 704.359 61.424C704.642 62.1548 704.784 63.0547 704.784 64.1236V64.8693H695.955V63.348H702.994C702.994 62.7017 702.865 62.125 702.607 61.6179C702.353 61.1108 701.99 60.7106 701.518 60.4173C701.051 60.1239 700.499 59.9773 699.862 59.9773C699.161 59.9773 698.555 60.1513 698.043 60.4993C697.536 60.8423 697.145 61.2898 696.872 61.8416C696.598 62.3935 696.462 62.9851 696.462 63.6165V64.6307C696.462 65.4957 696.611 66.229 696.909 66.8306C697.212 67.4272 697.633 67.8821 698.169 68.1953C698.706 68.5036 699.33 68.6577 700.041 68.6577C700.504 68.6577 700.921 68.593 701.294 68.4638C701.672 68.3295 701.998 68.1307 702.271 67.8672C702.544 67.5987 702.756 67.2656 702.905 66.8679L704.605 67.3452C704.426 67.9219 704.125 68.429 703.703 68.8665C703.28 69.299 702.758 69.6371 702.137 69.8807C701.515 70.1193 700.817 70.2386 700.041 70.2386ZM709.221 63.1094V70H707.461V58.5455H709.162V60.3352H709.311C709.579 59.7536 709.987 59.2862 710.534 58.9332C711.081 58.5753 711.787 58.3963 712.652 58.3963C713.427 58.3963 714.106 58.5554 714.688 58.8736C715.269 59.1868 715.722 59.6641 716.045 60.3054C716.368 60.9418 716.53 61.7472 716.53 62.7216V70H714.77V62.8409C714.77 61.9411 714.536 61.2401 714.069 60.7379C713.601 60.2308 712.96 59.9773 712.145 59.9773C711.583 59.9773 711.081 60.0991 710.638 60.3427C710.201 60.5863 709.855 60.9418 709.602 61.4091C709.348 61.8764 709.221 62.4432 709.221 63.1094ZM724.727 58.5455V60.0369H718.791V58.5455H724.727ZM720.521 55.8011H722.281V66.7188C722.281 67.2159 722.353 67.5888 722.497 67.8374C722.646 68.081 722.835 68.245 723.064 68.3295C723.298 68.4091 723.544 68.4489 723.802 68.4489C723.996 68.4489 724.155 68.4389 724.28 68.419C724.404 68.3942 724.503 68.3743 724.578 68.3594L724.936 69.9403C724.817 69.9851 724.65 70.0298 724.436 70.0746C724.222 70.1243 723.952 70.1491 723.623 70.1491C723.126 70.1491 722.639 70.0423 722.162 69.8285C721.689 69.6147 721.297 69.2891 720.983 68.8516C720.675 68.4141 720.521 67.8622 720.521 67.196V55.8011ZM729.52 54.7273V56.0696C729.52 56.4773 729.446 56.9123 729.297 57.3746C729.152 57.832 728.939 58.277 728.655 58.7095C728.377 59.1371 728.039 59.5099 727.641 59.8281L726.687 59.0526C727 58.6051 727.271 58.1403 727.499 57.658C727.733 57.1708 727.85 56.6513 727.85 56.0994V54.7273H729.52ZM738.339 61.1108L736.758 61.5582C736.658 61.2947 736.512 61.0387 736.318 60.7901C736.129 60.5366 735.87 60.3278 735.542 60.1637C735.214 59.9996 734.794 59.9176 734.282 59.9176C733.581 59.9176 732.997 60.0792 732.529 60.4023C732.067 60.7205 731.836 61.1257 731.836 61.6179C731.836 62.0554 731.995 62.4009 732.313 62.6545C732.631 62.908 733.128 63.1193 733.805 63.2884L735.505 63.706C736.529 63.9545 737.292 64.3349 737.794 64.8469C738.296 65.354 738.547 66.0078 738.547 66.8082C738.547 67.4645 738.359 68.0511 737.981 68.5682C737.608 69.0852 737.086 69.4929 736.415 69.7912C735.744 70.0895 734.963 70.2386 734.073 70.2386C732.905 70.2386 731.938 69.9851 731.172 69.478C730.407 68.9709 729.922 68.2301 729.718 67.2557L731.388 66.8381C731.547 67.4545 731.848 67.9169 732.291 68.2251C732.738 68.5334 733.322 68.6875 734.043 68.6875C734.864 68.6875 735.515 68.5135 735.997 68.1655C736.484 67.8125 736.728 67.3899 736.728 66.8977C736.728 66.5 736.589 66.1669 736.31 65.8984C736.032 65.625 735.604 65.4212 735.028 65.2869L733.119 64.8395C732.07 64.5909 731.299 64.2056 730.807 63.6836C730.32 63.1566 730.076 62.4979 730.076 61.7074C730.076 61.0611 730.257 60.4893 730.62 59.9922C730.988 59.495 731.488 59.1048 732.119 58.8214C732.756 58.538 733.476 58.3963 734.282 58.3963C735.415 58.3963 736.305 58.6449 736.952 59.142C737.603 59.6392 738.065 60.2955 738.339 61.1108ZM739.042 56.3679V54.7273H750.496V56.3679H745.694V70H743.844V56.3679H739.042ZM753.35 70V54.7273H755.2V68.3594H762.299V70H753.35Z" fill="black"/>
<rect x="7" y="94.5" width="95.7186" height="89.485" stroke="black" stroke-width="13"/>
<rect x="458" y="94.5" width="95.7186" height="89.485" stroke="black" stroke-width="13"/>
<rect x="451" y="88" width="157" height="156" stroke="#1C6EE8"/>
<g filter="url(#filter0_d_1_185836)">
<rect x="447" y="84" width="8" height="8" fill="white"/>
<rect x="447.5" y="84.5" width="7" height="7" stroke="#1C6EE8"/>
</g>
<g filter="url(#filter1_d_1_185836)">
<rect x="447" y="240" width="8" height="8" fill="white"/>
<rect x="447.5" y="240.5" width="7" height="7" stroke="#1C6EE8"/>
</g>
<g filter="url(#filter2_d_1_185836)">
<rect x="604" y="84" width="8" height="8" fill="white"/>
<rect x="604.5" y="84.5" width="7" height="7" stroke="#1C6EE8"/>
</g>
<g filter="url(#filter3_d_1_185836)">
<rect x="604" y="240" width="8" height="8" fill="white"/>
<rect x="604.5" y="240.5" width="7" height="7" stroke="#1C6EE8"/>
</g>
<rect x="848" y="388" width="95.7186" height="89.485" stroke="black" stroke-width="13"/>
<rect x="848" y="94" width="95.7186" height="89.485" stroke="black" stroke-width="13"/>
<rect x="55" y="149" width="95.7186" height="89.485" stroke="black" stroke-width="13"/>
<rect x="506" y="149" width="95.7186" height="89.485" stroke="black" stroke-width="13"/>
<rect x="896" y="388" width="95.7186" height="89.485" stroke="black" stroke-width="13"/>
<rect x="896" y="88" width="95.7186" height="89.485" stroke="black" stroke-width="13"/>
<defs>
<filter id="filter0_d_1_185836" x="443" y="82" width="16" height="16" filterUnits="userSpaceOnUse" color-interpolation-filters="sRGB">
<feFlood flood-opacity="0" result="BackgroundImageFix"/>
<feColorMatrix in="SourceAlpha" type="matrix" values="0 0 0 0 0 0 0 0 0 0 0 0 0 0 0 0 0 0 127 0" result="hardAlpha"/>
<feOffset dy="2"/>
<feGaussianBlur stdDeviation="2"/>
<feColorMatrix type="matrix" values="0 0 0 0 0 0 0 0 0 0 0 0 0 0 0 0 0 0 0.45 0"/>
<feBlend mode="normal" in2="BackgroundImageFix" result="effect1_dropShadow_1_185836"/>
<feBlend mode="normal" in="SourceGraphic" in2="effect1_dropShadow_1_185836" result="shape"/>
</filter>
<filter id="filter1_d_1_185836" x="443" y="238" width="16" height="16" filterUnits="userSpaceOnUse" color-interpolation-filters="sRGB">
<feFlood flood-opacity="0" result="BackgroundImageFix"/>
<feColorMatrix in="SourceAlpha" type="matrix" values="0 0 0 0 0 0 0 0 0 0 0 0 0 0 0 0 0 0 127 0" result="hardAlpha"/>
<feOffset dy="2"/>
<feGaussianBlur stdDeviation="2"/>
<feColorMatrix type="matrix" values="0 0 0 0 0 0 0 0 0 0 0 0 0 0 0 0 0 0 0.45 0"/>
<feBlend mode="normal" in2="BackgroundImageFix" result="effect1_dropShadow_1_185836"/>
<feBlend mode="normal" in="SourceGraphic" in2="effect1_dropShadow_1_185836" result="shape"/>
</filter>
<filter id="filter2_d_1_185836" x="600" y="82" width="16" height="16" filterUnits="userSpaceOnUse" color-interpolation-filters="sRGB">
<feFlood flood-opacity="0" result="BackgroundImageFix"/>
<feColorMatrix in="SourceAlpha" type="matrix" values="0 0 0 0 0 0 0 0 0 0 0 0 0 0 0 0 0 0 127 0" result="hardAlpha"/>
<feOffset dy="2"/>
<feGaussianBlur stdDeviation="2"/>
<feColorMatrix type="matrix" values="0 0 0 0 0 0 0 0 0 0 0 0 0 0 0 0 0 0 0.45 0"/>
<feBlend mode="normal" in2="BackgroundImageFix" result="effect1_dropShadow_1_185836"/>
<feBlend mode="normal" in="SourceGraphic" in2="effect1_dropShadow_1_185836" result="shape"/>
</filter>
<filter id="filter3_d_1_185836" x="600" y="238" width="16" height="16" filterUnits="userSpaceOnUse" color-interpolation-filters="sRGB">
<feFlood flood-opacity="0" result="BackgroundImageFix"/>
<feColorMatrix in="SourceAlpha" type="matrix" values="0 0 0 0 0 0 0 0 0 0 0 0 0 0 0 0 0 0 127 0" result="hardAlpha"/>
<feOffset dy="2"/>
<feGaussianBlur stdDeviation="2"/>
<feColorMatrix type="matrix" values="0 0 0 0 0 0 0 0 0 0 0 0 0 0 0 0 0 0 0.45 0"/>
<feBlend mode="normal" in2="BackgroundImageFix" result="effect1_dropShadow_1_185836"/>
<feBlend mode="normal" in="SourceGraphic" in2="effect1_dropShadow_1_185836" result="shape"/>
</filter>
</defs>
</svg>
