<svg width="1014" height="212" viewBox="0 0 1014 212" fill="none" xmlns="http://www.w3.org/2000/svg">
<rect x="30" y="70" width="95.7186" height="89.485" fill="#D9D9D9" stroke="black" stroke-width="19"/>
<ellipse cx="135.057" cy="155.309" rx="57.1977" ry="47.1288" fill="url(#paint0_linear_1_185837)"/>
<rect x="477" y="70" width="95.7186" height="89.485" fill="#D9D9D9" stroke="black" stroke-width="19"/>
<ellipse cx="582.198" cy="155.309" rx="57.1977" ry="47.1288" fill="url(#paint1_linear_1_185837)"/>
<rect x="892" y="70" width="95.7186" height="89.485" fill="#D9D9D9" stroke="black" stroke-width="19"/>
<ellipse cx="949.198" cy="117.129" rx="57.1977" ry="47.1288" fill="url(#paint2_linear_1_185837)"/>
<path d="M359.061 137.061C359.646 136.475 359.646 135.525 359.061 134.939L349.515 125.393C348.929 124.808 347.979 124.808 347.393 125.393C346.808 125.979 346.808 126.929 347.393 127.515L355.879 136L347.393 144.485C346.808 145.071 346.808 146.021 347.393 146.607C347.979 147.192 348.929 147.192 349.515 146.607L359.061 137.061ZM283 137.5H358V134.5H283V137.5Z" fill="black"/>
<path d="M804.061 137.061C804.646 136.475 804.646 135.525 804.061 134.939L794.515 125.393C793.929 124.808 792.979 124.808 792.393 125.393C791.808 125.979 791.808 126.929 792.393 127.515L800.879 136L792.393 144.485C791.808 145.071 791.808 146.021 792.393 146.607C792.979 147.192 793.929 147.192 794.515 146.607L804.061 137.061ZM728 137.5H803V134.5H728V137.5Z" fill="black"/>
<path d="M12.2898 24.5C12.1257 23.9979 11.9094 23.5479 11.641 23.1502C11.3775 22.7475 11.0618 22.4045 10.6939 22.1211C10.331 21.8377 9.91832 21.6214 9.45597 21.4723C8.99361 21.3232 8.48651 21.2486 7.93466 21.2486C7.02983 21.2486 6.20703 21.4822 5.46626 21.9496C4.7255 22.4169 4.13636 23.1055 3.69886 24.0153C3.26136 24.9251 3.04261 26.0412 3.04261 27.3636C3.04261 28.6861 3.26385 29.8022 3.70632 30.712C4.14879 31.6218 4.74787 32.3104 5.50355 32.7777C6.25923 33.245 7.10938 33.4787 8.05398 33.4787C8.92898 33.4787 9.69957 33.2923 10.3658 32.9194C11.0369 32.5415 11.5589 32.0096 11.9318 31.3235C12.3097 30.6325 12.4986 29.8196 12.4986 28.8849L13.0653 29.0043H8.47159V27.3636H14.2884V29.0043C14.2884 30.2621 14.0199 31.3558 13.483 32.2855C12.951 33.2152 12.2152 33.9361 11.2756 34.4482C10.3409 34.9553 9.26705 35.2088 8.05398 35.2088C6.7017 35.2088 5.51349 34.8906 4.48935 34.2543C3.47017 33.6179 2.67472 32.7131 2.10298 31.5398C1.53622 30.3665 1.25284 28.9744 1.25284 27.3636C1.25284 26.1555 1.41442 25.0692 1.73757 24.1048C2.0657 23.1353 2.52805 22.31 3.12465 21.6289C3.72124 20.9478 4.4272 20.4258 5.24254 20.0629C6.05788 19.6999 6.95526 19.5185 7.93466 19.5185C8.74006 19.5185 9.49077 19.6403 10.1868 19.8839C10.8878 20.1225 11.5117 20.4631 12.0586 20.9055C12.6104 21.343 13.0703 21.8675 13.4382 22.479C13.8061 23.0856 14.0597 23.7592 14.1989 24.5H12.2898ZM17.2172 35V23.5455H18.9175V25.2756H19.0368C19.2456 24.7088 19.6235 24.2489 20.1704 23.896C20.7172 23.543 21.3337 23.3665 22.0198 23.3665C22.1491 23.3665 22.3106 23.369 22.5045 23.3739C22.6984 23.3789 22.8451 23.3864 22.9445 23.3963V25.1861C22.8849 25.1712 22.7481 25.1488 22.5344 25.119C22.3256 25.0842 22.1043 25.0668 21.8707 25.0668C21.3138 25.0668 20.8167 25.1836 20.3792 25.4173C19.9466 25.646 19.6036 25.9641 19.3501 26.3718C19.1015 26.7745 18.9772 27.2344 18.9772 27.7514V35H17.2172ZM29.3355 35.2386C28.3014 35.2386 27.3941 34.9925 26.6135 34.5004C25.838 34.0082 25.2314 33.3196 24.7939 32.4347C24.3614 31.5497 24.1452 30.5156 24.1452 29.3324C24.1452 28.1392 24.3614 27.0977 24.7939 26.2077C25.2314 25.3178 25.838 24.6268 26.6135 24.1346C27.3941 23.6424 28.3014 23.3963 29.3355 23.3963C30.3696 23.3963 31.2744 23.6424 32.05 24.1346C32.8305 24.6268 33.4371 25.3178 33.8696 26.2077C34.3071 27.0977 34.5258 28.1392 34.5258 29.3324C34.5258 30.5156 34.3071 31.5497 33.8696 32.4347C33.4371 33.3196 32.8305 34.0082 32.05 34.5004C31.2744 34.9925 30.3696 35.2386 29.3355 35.2386ZM29.3355 33.6577C30.121 33.6577 30.7673 33.4563 31.2744 33.0536C31.7815 32.6509 32.1569 32.1214 32.4005 31.4652C32.6441 30.8089 32.7659 30.098 32.7659 29.3324C32.7659 28.5668 32.6441 27.8533 32.4005 27.1921C32.1569 26.5309 31.7815 25.9964 31.2744 25.5888C30.7673 25.1811 30.121 24.9773 29.3355 24.9773C28.55 24.9773 27.9037 25.1811 27.3966 25.5888C26.8895 25.9964 26.5141 26.5309 26.2705 27.1921C26.0269 27.8533 25.9051 28.5668 25.9051 29.3324C25.9051 30.098 26.0269 30.8089 26.2705 31.4652C26.5141 32.1214 26.8895 32.6509 27.3966 33.0536C27.9037 33.4563 28.55 33.6577 29.3355 33.6577ZM44.4311 30.3168V23.5455H46.1911V35H44.4311V33.0611H44.3118C44.0433 33.6428 43.6257 34.1374 43.0589 34.5451C42.4922 34.9478 41.7763 35.1491 40.9112 35.1491C40.1953 35.1491 39.5589 34.9925 39.0021 34.6793C38.4453 34.3612 38.0078 33.8839 37.6896 33.2475C37.3714 32.6062 37.2124 31.7983 37.2124 30.8239V23.5455H38.9723V30.7045C38.9723 31.5398 39.206 32.206 39.6733 32.7031C40.1456 33.2003 40.7472 33.4489 41.478 33.4489C41.9155 33.4489 42.3604 33.337 42.8129 33.1133C43.2702 32.8896 43.6531 32.5465 43.9613 32.0842C44.2745 31.6218 44.4311 31.0327 44.4311 30.3168ZM49.4145 39.2955V23.5455H51.1148V25.3651H51.3236C51.4529 25.1662 51.6318 24.9126 51.8605 24.6044C52.0942 24.2912 52.4273 24.0128 52.8598 23.7692C53.2973 23.5206 53.8889 23.3963 54.6347 23.3963C55.5992 23.3963 56.4493 23.6374 57.1851 24.1197C57.9209 24.6019 58.4951 25.2855 58.9078 26.1705C59.3204 27.0554 59.5267 28.0994 59.5267 29.3026C59.5267 30.5156 59.3204 31.5671 58.9078 32.457C58.4951 33.342 57.9234 34.0281 57.1926 34.5153C56.4617 34.9975 55.6191 35.2386 54.6645 35.2386C53.9287 35.2386 53.3396 35.1168 52.8971 34.8732C52.4546 34.6246 52.1141 34.3437 51.8754 34.0305C51.6368 33.7124 51.4529 33.4489 51.3236 33.2401H51.1744V39.2955H49.4145ZM51.1446 29.2727C51.1446 30.1378 51.2714 30.9009 51.5249 31.5621C51.7785 32.2184 52.1489 32.733 52.6361 33.1058C53.1233 33.4737 53.7199 33.6577 54.4259 33.6577C55.1617 33.6577 55.7757 33.4638 56.2678 33.076C56.765 32.6832 57.1379 32.1562 57.3865 31.495C57.64 30.8288 57.7668 30.0881 57.7668 29.2727C57.7668 28.4673 57.6425 27.7415 57.3939 27.0952C57.1503 26.4439 56.7799 25.9293 56.2828 25.5515C55.7906 25.1687 55.1716 24.9773 54.4259 24.9773C53.71 24.9773 53.1084 25.1587 52.6212 25.5217C52.134 25.8796 51.7661 26.3817 51.5175 27.0281C51.2689 27.6694 51.1446 28.4176 51.1446 29.2727Z" fill="black"/>
<rect x="477" y="70" width="162" height="132" stroke="#1C6EE8"/>
<g filter="url(#filter0_d_1_185837)">
<rect x="473" y="66" width="8" height="8" fill="white"/>
<rect x="473.5" y="66.5" width="7" height="7" stroke="#1C6EE8"/>
</g>
<g filter="url(#filter1_d_1_185837)">
<rect x="473" y="198" width="8" height="8" fill="white"/>
<rect x="473.5" y="198.5" width="7" height="7" stroke="#1C6EE8"/>
</g>
<g filter="url(#filter2_d_1_185837)">
<rect x="635" y="66" width="8" height="8" fill="white"/>
<rect x="635.5" y="66.5" width="7" height="7" stroke="#1C6EE8"/>
</g>
<g filter="url(#filter3_d_1_185837)">
<rect x="635" y="198" width="8" height="8" fill="white"/>
<rect x="635.5" y="198.5" width="7" height="7" stroke="#1C6EE8"/>
</g>
<rect x="892" y="70" width="114" height="99" stroke="#1C6EE8"/>
<g filter="url(#filter4_d_1_185837)">
<rect x="888" y="66" width="8" height="8" fill="white"/>
<rect x="888.5" y="66.5" width="7" height="7" stroke="#1C6EE8"/>
</g>
<g filter="url(#filter5_d_1_185837)">
<rect x="888" y="165" width="8" height="8" fill="white"/>
<rect x="888.5" y="165.5" width="7" height="7" stroke="#1C6EE8"/>
</g>
<g filter="url(#filter6_d_1_185837)">
<rect x="1002" y="66" width="8" height="8" fill="white"/>
<rect x="1002.5" y="66.5" width="7" height="7" stroke="#1C6EE8"/>
</g>
<g filter="url(#filter7_d_1_185837)">
<rect x="1002" y="165" width="8" height="8" fill="white"/>
<rect x="1002.5" y="165.5" width="7" height="7" stroke="#1C6EE8"/>
</g>
<path d="M245.264 20.2386C244.19 20.2386 243.266 19.9851 242.49 19.478C241.714 18.9709 241.118 18.2724 240.7 17.3825C240.283 16.4925 240.074 15.4759 240.074 14.3324C240.074 13.169 240.288 12.1424 240.715 11.2525C241.148 10.3576 241.749 9.65909 242.52 9.15696C243.295 8.64986 244.2 8.39631 245.234 8.39631C246.04 8.39631 246.766 8.54545 247.412 8.84375C248.058 9.14205 248.588 9.55966 249 10.0966C249.413 10.6335 249.669 11.2599 249.768 11.9759H248.009C247.874 11.4538 247.576 10.9915 247.114 10.5888C246.656 10.1811 246.04 9.97727 245.264 9.97727C244.578 9.97727 243.977 10.1562 243.46 10.5142C242.947 10.8672 242.547 11.3668 242.259 12.0131C241.975 12.6545 241.834 13.4077 241.834 14.2727C241.834 15.1577 241.973 15.9283 242.251 16.5845C242.535 17.2408 242.933 17.7504 243.445 18.1133C243.962 18.4762 244.568 18.6577 245.264 18.6577C245.722 18.6577 246.137 18.5781 246.51 18.419C246.882 18.2599 247.198 18.0312 247.457 17.733C247.715 17.4347 247.899 17.0767 248.009 16.6591H249.768C249.669 17.3352 249.423 17.9442 249.03 18.4862C248.642 19.0231 248.128 19.4506 247.487 19.7688C246.85 20.082 246.109 20.2386 245.264 20.2386ZM252.341 20V8.54545H254.042V10.2756H254.161C254.37 9.70881 254.748 9.24893 255.294 8.89595C255.841 8.54297 256.458 8.36648 257.144 8.36648C257.273 8.36648 257.435 8.36896 257.629 8.37393C257.822 8.37891 257.969 8.38636 258.069 8.39631V10.1861C258.009 10.1712 257.872 10.1488 257.658 10.119C257.45 10.0842 257.228 10.0668 256.995 10.0668C256.438 10.0668 255.941 10.1836 255.503 10.4173C255.071 10.646 254.728 10.9641 254.474 11.3718C254.225 11.7745 254.101 12.2344 254.101 12.7514V20H252.341ZM264.609 20.2386C263.505 20.2386 262.553 19.995 261.752 19.5078C260.957 19.0156 260.343 18.3295 259.911 17.4496C259.483 16.5646 259.269 15.5355 259.269 14.3622C259.269 13.1889 259.483 12.1548 259.911 11.2599C260.343 10.3601 260.945 9.65909 261.715 9.15696C262.491 8.64986 263.396 8.39631 264.43 8.39631C265.026 8.39631 265.615 8.49574 266.197 8.6946C266.779 8.89347 267.308 9.21662 267.786 9.66406C268.263 10.1065 268.643 10.6932 268.926 11.424C269.21 12.1548 269.352 13.0547 269.352 14.1236V14.8693H260.522V13.348H267.562C267.562 12.7017 267.433 12.125 267.174 11.6179C266.92 11.1108 266.558 10.7106 266.085 10.4173C265.618 10.1239 265.066 9.97727 264.43 9.97727C263.729 9.97727 263.122 10.1513 262.61 10.4993C262.103 10.8423 261.713 11.2898 261.439 11.8416C261.166 12.3935 261.029 12.9851 261.029 13.6165V14.6307C261.029 15.4957 261.178 16.229 261.477 16.8306C261.78 17.4272 262.2 17.8821 262.737 18.1953C263.274 18.5036 263.898 18.6577 264.609 18.6577C265.071 18.6577 265.489 18.593 265.862 18.4638C266.239 18.3295 266.565 18.1307 266.838 17.8672C267.112 17.5987 267.323 17.2656 267.472 16.8679L269.173 17.3452C268.994 17.9219 268.693 18.429 268.27 18.8665C267.848 19.299 267.326 19.6371 266.704 19.8807C266.083 20.1193 265.384 20.2386 264.609 20.2386ZM275.4 20.2685C274.674 20.2685 274.015 20.1317 273.423 19.8583C272.832 19.5799 272.362 19.1797 272.014 18.6577C271.666 18.1307 271.492 17.4943 271.492 16.7486C271.492 16.0923 271.621 15.5604 271.88 15.1527C272.138 14.7401 272.484 14.4169 272.916 14.1832C273.349 13.9496 273.826 13.7756 274.348 13.6612C274.875 13.5419 275.404 13.4474 275.936 13.3778C276.632 13.2884 277.197 13.2212 277.629 13.1765C278.067 13.1268 278.385 13.0447 278.584 12.9304C278.788 12.8161 278.89 12.6172 278.89 12.3338V12.2741C278.89 11.5384 278.688 10.9666 278.286 10.5589C277.888 10.1513 277.284 9.94744 276.473 9.94744C275.633 9.94744 274.974 10.1314 274.497 10.4993C274.02 10.8672 273.684 11.2599 273.49 11.6776L271.82 11.081C272.118 10.3849 272.516 9.84304 273.013 9.45526C273.515 9.0625 274.062 8.78906 274.654 8.63494C275.25 8.47585 275.837 8.39631 276.414 8.39631C276.782 8.39631 277.204 8.44105 277.681 8.53054C278.164 8.61506 278.629 8.79155 279.076 9.06001C279.528 9.32848 279.904 9.73366 280.202 10.2756C280.5 10.8175 280.65 11.5433 280.65 12.4531V20H278.89V18.4489H278.8C278.681 18.6974 278.482 18.9634 278.203 19.2468C277.925 19.5302 277.555 19.7713 277.092 19.9702C276.63 20.169 276.066 20.2685 275.4 20.2685ZM275.668 18.6875C276.364 18.6875 276.951 18.5508 277.428 18.2773C277.91 18.0039 278.273 17.6509 278.517 17.2184C278.765 16.7859 278.89 16.331 278.89 15.8537V14.2429C278.815 14.3324 278.651 14.4144 278.397 14.489C278.149 14.5586 277.86 14.6207 277.532 14.6754C277.209 14.7251 276.893 14.7699 276.585 14.8097C276.282 14.8445 276.036 14.8743 275.847 14.8991C275.39 14.9588 274.962 15.0558 274.564 15.19C274.172 15.3192 273.853 15.5156 273.61 15.7791C273.371 16.0376 273.252 16.3906 273.252 16.8381C273.252 17.4496 273.478 17.9119 273.93 18.2251C274.388 18.5334 274.967 18.6875 275.668 18.6875ZM288.843 8.54545V10.0369H282.907V8.54545H288.843ZM284.637 5.80114H286.397V16.7188C286.397 17.2159 286.469 17.5888 286.614 17.8374C286.763 18.081 286.952 18.245 287.18 18.3295C287.414 18.4091 287.66 18.4489 287.919 18.4489C288.112 18.4489 288.272 18.4389 288.396 18.419C288.52 18.3942 288.62 18.3743 288.694 18.3594L289.052 19.9403C288.933 19.9851 288.766 20.0298 288.552 20.0746C288.339 20.1243 288.068 20.1491 287.74 20.1491C287.242 20.1491 286.755 20.0423 286.278 19.8285C285.806 19.6147 285.413 19.2891 285.1 18.8516C284.791 18.4141 284.637 17.8622 284.637 17.196V5.80114ZM296.17 20.2386C295.066 20.2386 294.114 19.995 293.314 19.5078C292.519 19.0156 291.905 18.3295 291.472 17.4496C291.044 16.5646 290.831 15.5355 290.831 14.3622C290.831 13.1889 291.044 12.1548 291.472 11.2599C291.905 10.3601 292.506 9.65909 293.277 9.15696C294.052 8.64986 294.957 8.39631 295.991 8.39631C296.588 8.39631 297.177 8.49574 297.759 8.6946C298.34 8.89347 298.87 9.21662 299.347 9.66406C299.824 10.1065 300.205 10.6932 300.488 11.424C300.771 12.1548 300.913 13.0547 300.913 14.1236V14.8693H292.084V13.348H299.123C299.123 12.7017 298.994 12.125 298.736 11.6179C298.482 11.1108 298.119 10.7106 297.647 10.4173C297.179 10.1239 296.628 9.97727 295.991 9.97727C295.29 9.97727 294.684 10.1513 294.172 10.4993C293.665 10.8423 293.274 11.2898 293.001 11.8416C292.727 12.3935 292.591 12.9851 292.591 13.6165V14.6307C292.591 15.4957 292.74 16.229 293.038 16.8306C293.341 17.4272 293.761 17.8821 294.298 18.1953C294.835 18.5036 295.459 18.6577 296.17 18.6577C296.633 18.6577 297.05 18.593 297.423 18.4638C297.801 18.3295 298.127 18.1307 298.4 17.8672C298.673 17.5987 298.885 17.2656 299.034 16.8679L300.734 17.3452C300.555 17.9219 300.254 18.429 299.832 18.8665C299.409 19.299 298.887 19.6371 298.266 19.8807C297.644 20.1193 296.946 20.2386 296.17 20.2386ZM321.846 4.72727V20H320.056L311.734 8.00852H311.585V20H309.735V4.72727H311.525L319.877 16.7486H320.026V4.72727H321.846ZM329.961 20.2386C328.927 20.2386 328.02 19.9925 327.24 19.5004C326.464 19.0082 325.857 18.3196 325.42 17.4347C324.987 16.5497 324.771 15.5156 324.771 14.3324C324.771 13.1392 324.987 12.0977 325.42 11.2077C325.857 10.3178 326.464 9.62678 327.24 9.13459C328.02 8.6424 328.927 8.39631 329.961 8.39631C330.996 8.39631 331.9 8.6424 332.676 9.13459C333.456 9.62678 334.063 10.3178 334.496 11.2077C334.933 12.0977 335.152 13.1392 335.152 14.3324C335.152 15.5156 334.933 16.5497 334.496 17.4347C334.063 18.3196 333.456 19.0082 332.676 19.5004C331.9 19.9925 330.996 20.2386 329.961 20.2386ZM329.961 18.6577C330.747 18.6577 331.393 18.4563 331.9 18.0536C332.407 17.6509 332.783 17.1214 333.026 16.4652C333.27 15.8089 333.392 15.098 333.392 14.3324C333.392 13.5668 333.27 12.8533 333.026 12.1921C332.783 11.5309 332.407 10.9964 331.9 10.5888C331.393 10.1811 330.747 9.97727 329.961 9.97727C329.176 9.97727 328.53 10.1811 328.023 10.5888C327.515 10.9964 327.14 11.5309 326.896 12.1921C326.653 12.8533 326.531 13.5668 326.531 14.3324C326.531 15.098 326.653 15.8089 326.896 16.4652C327.14 17.1214 327.515 17.6509 328.023 18.0536C328.53 18.4563 329.176 18.6577 329.961 18.6577ZM337.838 20V8.54545H339.539V10.2756H339.658C339.867 9.70881 340.245 9.24893 340.791 8.89595C341.338 8.54297 341.955 8.36648 342.641 8.36648C342.77 8.36648 342.932 8.36896 343.126 8.37393C343.32 8.37891 343.466 8.38636 343.566 8.39631V10.1861C343.506 10.1712 343.369 10.1488 343.155 10.119C342.947 10.0842 342.725 10.0668 342.492 10.0668C341.935 10.0668 341.438 10.1836 341 10.4173C340.568 10.646 340.225 10.9641 339.971 11.3718C339.723 11.7745 339.598 12.2344 339.598 12.7514V20H337.838ZM345.652 20V8.54545H347.352V10.3352H347.501C347.74 9.72372 348.125 9.24893 348.657 8.91087C349.189 8.56783 349.828 8.39631 350.574 8.39631C351.329 8.39631 351.958 8.56783 352.46 8.91087C352.968 9.24893 353.363 9.72372 353.646 10.3352H353.765C354.059 9.74361 354.499 9.27379 355.085 8.92578C355.672 8.5728 356.376 8.39631 357.196 8.39631C358.22 8.39631 359.058 8.71697 359.709 9.35831C360.36 9.99467 360.686 10.9865 360.686 12.3338V20H358.926V12.3338C358.926 11.4886 358.695 10.8846 358.232 10.5217C357.77 10.1587 357.226 9.97727 356.599 9.97727C355.794 9.97727 355.17 10.2209 354.727 10.7081C354.285 11.1903 354.064 11.8018 354.064 12.5426V20H352.274V12.1548C352.274 11.5036 352.063 10.979 351.64 10.5813C351.218 10.1786 350.673 9.97727 350.007 9.97727C349.55 9.97727 349.122 10.0991 348.724 10.3427C348.331 10.5863 348.013 10.9244 347.77 11.3569C347.531 11.7844 347.412 12.2791 347.412 12.8409V20H345.652ZM367.275 20.2685C366.549 20.2685 365.89 20.1317 365.298 19.8583C364.707 19.5799 364.237 19.1797 363.889 18.6577C363.541 18.1307 363.367 17.4943 363.367 16.7486C363.367 16.0923 363.496 15.5604 363.755 15.1527C364.013 14.7401 364.359 14.4169 364.791 14.1832C365.224 13.9496 365.701 13.7756 366.223 13.6612C366.75 13.5419 367.279 13.4474 367.811 13.3778C368.507 13.2884 369.072 13.2212 369.504 13.1765C369.942 13.1268 370.26 13.0447 370.459 12.9304C370.663 12.8161 370.765 12.6172 370.765 12.3338V12.2741C370.765 11.5384 370.563 10.9666 370.161 10.5589C369.763 10.1513 369.159 9.94744 368.348 9.94744C367.508 9.94744 366.849 10.1314 366.372 10.4993C365.895 10.8672 365.559 11.2599 365.365 11.6776L363.695 11.081C363.993 10.3849 364.391 9.84304 364.888 9.45526C365.39 9.0625 365.937 8.78906 366.529 8.63494C367.125 8.47585 367.712 8.39631 368.289 8.39631C368.657 8.39631 369.079 8.44105 369.556 8.53054C370.039 8.61506 370.504 8.79155 370.951 9.06001C371.403 9.32848 371.779 9.73366 372.077 10.2756C372.375 10.8175 372.525 11.5433 372.525 12.4531V20H370.765V18.4489H370.675C370.556 18.6974 370.357 18.9634 370.078 19.2468C369.8 19.5302 369.43 19.7713 368.967 19.9702C368.505 20.169 367.941 20.2685 367.275 20.2685ZM367.543 18.6875C368.239 18.6875 368.826 18.5508 369.303 18.2773C369.785 18.0039 370.148 17.6509 370.392 17.2184C370.64 16.7859 370.765 16.331 370.765 15.8537V14.2429C370.69 14.3324 370.526 14.4144 370.272 14.489C370.024 14.5586 369.735 14.6207 369.407 14.6754C369.084 14.7251 368.768 14.7699 368.46 14.8097C368.157 14.8445 367.911 14.8743 367.722 14.8991C367.265 14.9588 366.837 15.0558 366.439 15.19C366.047 15.3192 365.728 15.5156 365.485 15.7791C365.246 16.0376 365.127 16.3906 365.127 16.8381C365.127 17.4496 365.353 17.9119 365.805 18.2251C366.263 18.5334 366.842 18.6875 367.543 18.6875ZM377.497 4.72727V20H375.737V4.72727H377.497ZM245.234 49.5341C244.384 49.5341 243.653 49.4247 243.042 49.206C242.43 48.9922 241.921 48.7088 241.513 48.3558C241.11 48.0078 240.79 47.6349 240.551 47.2372L241.953 46.2528C242.112 46.4616 242.314 46.7003 242.557 46.9688C242.801 47.2422 243.134 47.4783 243.556 47.6772C243.984 47.881 244.543 47.983 245.234 47.983C246.159 47.983 246.922 47.7592 247.524 47.3118C248.125 46.8643 248.426 46.1634 248.426 45.2088V42.8821H248.277C248.148 43.0909 247.964 43.3494 247.725 43.6577C247.491 43.9609 247.153 44.2319 246.711 44.4705C246.273 44.7042 245.682 44.821 244.936 44.821C244.011 44.821 243.181 44.6023 242.445 44.1648C241.714 43.7273 241.135 43.0909 240.708 42.2557C240.285 41.4205 240.074 40.4062 240.074 39.2131C240.074 38.0398 240.28 37.0181 240.693 36.1481C241.105 35.2731 241.68 34.5969 242.415 34.1197C243.151 33.6374 244.001 33.3963 244.966 33.3963C245.712 33.3963 246.303 33.5206 246.741 33.7692C247.183 34.0128 247.521 34.2912 247.755 34.6044C247.994 34.9126 248.178 35.1662 248.307 35.3651H248.486V33.5455H250.186V45.3281C250.186 46.3125 249.962 47.1129 249.515 47.7294C249.072 48.3509 248.476 48.8058 247.725 49.0941C246.979 49.3874 246.149 49.5341 245.234 49.5341ZM245.175 43.2401C245.881 43.2401 246.477 43.0785 246.964 42.7553C247.452 42.4322 247.822 41.9673 248.076 41.3608C248.329 40.7543 248.456 40.0284 248.456 39.1832C248.456 38.358 248.332 37.6296 248.083 36.9982C247.835 36.3668 247.467 35.8722 246.979 35.5142C246.492 35.1562 245.891 34.9773 245.175 34.9773C244.429 34.9773 243.808 35.1662 243.31 35.544C242.818 35.9219 242.448 36.429 242.199 37.0653C241.956 37.7017 241.834 38.4077 241.834 39.1832C241.834 39.9787 241.958 40.6822 242.207 41.2937C242.46 41.9002 242.833 42.3775 243.325 42.7255C243.822 43.0685 244.439 43.2401 245.175 43.2401ZM253.408 45V33.5455H255.108V35.2756H255.227C255.436 34.7088 255.814 34.2489 256.361 33.896C256.908 33.543 257.524 33.3665 258.21 33.3665C258.339 33.3665 258.501 33.369 258.695 33.3739C258.889 33.3789 259.036 33.3864 259.135 33.3963V35.1861C259.075 35.1712 258.939 35.1488 258.725 35.119C258.516 35.0842 258.295 35.0668 258.061 35.0668C257.504 35.0668 257.007 35.1836 256.57 35.4173C256.137 35.646 255.794 35.9641 255.54 36.3718C255.292 36.7745 255.168 37.2344 255.168 37.7514V45H253.408ZM265.526 45.2386C264.492 45.2386 263.585 44.9925 262.804 44.5004C262.028 44.0082 261.422 43.3196 260.984 42.4347C260.552 41.5497 260.336 40.5156 260.336 39.3324C260.336 38.1392 260.552 37.0977 260.984 36.2077C261.422 35.3178 262.028 34.6268 262.804 34.1346C263.585 33.6424 264.492 33.3963 265.526 33.3963C266.56 33.3963 267.465 33.6424 268.24 34.1346C269.021 34.6268 269.627 35.3178 270.06 36.2077C270.498 37.0977 270.716 38.1392 270.716 39.3324C270.716 40.5156 270.498 41.5497 270.06 42.4347C269.627 43.3196 269.021 44.0082 268.24 44.5004C267.465 44.9925 266.56 45.2386 265.526 45.2386ZM265.526 43.6577C266.311 43.6577 266.958 43.4563 267.465 43.0536C267.972 42.6509 268.347 42.1214 268.591 41.4652C268.835 40.8089 268.956 40.098 268.956 39.3324C268.956 38.5668 268.835 37.8533 268.591 37.1921C268.347 36.5309 267.972 35.9964 267.465 35.5888C266.958 35.1811 266.311 34.9773 265.526 34.9773C264.74 34.9773 264.094 35.1811 263.587 35.5888C263.08 35.9964 262.705 36.5309 262.461 37.1921C262.217 37.8533 262.096 38.5668 262.096 39.3324C262.096 40.098 262.217 40.8089 262.461 41.4652C262.705 42.1214 263.08 42.6509 263.587 43.0536C264.094 43.4563 264.74 43.6577 265.526 43.6577ZM280.622 40.3168V33.5455H282.381V45H280.622V43.0611H280.502C280.234 43.6428 279.816 44.1374 279.249 44.5451C278.683 44.9478 277.967 45.1491 277.102 45.1491C276.386 45.1491 275.749 44.9925 275.193 44.6793C274.636 44.3612 274.198 43.8839 273.88 43.2475C273.562 42.6062 273.403 41.7983 273.403 40.8239V33.5455H275.163V40.7045C275.163 41.5398 275.396 42.206 275.864 42.7031C276.336 43.2003 276.938 43.4489 277.668 43.4489C278.106 43.4489 278.551 43.337 279.003 43.1133C279.461 42.8896 279.843 42.5465 280.152 42.0842C280.465 41.6218 280.622 41.0327 280.622 40.3168ZM285.605 49.2955V33.5455H287.305V35.3651H287.514C287.643 35.1662 287.822 34.9126 288.051 34.6044C288.285 34.2912 288.618 34.0128 289.05 33.7692C289.488 33.5206 290.079 33.3963 290.825 33.3963C291.79 33.3963 292.64 33.6374 293.376 34.1197C294.111 34.6019 294.686 35.2855 295.098 36.1705C295.511 37.0554 295.717 38.0994 295.717 39.3026C295.717 40.5156 295.511 41.5671 295.098 42.457C294.686 43.342 294.114 44.0281 293.383 44.5153C292.652 44.9975 291.809 45.2386 290.855 45.2386C290.119 45.2386 289.53 45.1168 289.088 44.8732C288.645 44.6246 288.305 44.3437 288.066 44.0305C287.827 43.7124 287.643 43.4489 287.514 43.2401H287.365V49.2955H285.605ZM287.335 39.2727C287.335 40.1378 287.462 40.9009 287.715 41.5621C287.969 42.2184 288.339 42.733 288.827 43.1058C289.314 43.4737 289.91 43.6577 290.616 43.6577C291.352 43.6577 291.966 43.4638 292.458 43.076C292.955 42.6832 293.328 42.1562 293.577 41.495C293.83 40.8288 293.957 40.0881 293.957 39.2727C293.957 38.4673 293.833 37.7415 293.584 37.0952C293.341 36.4439 292.97 35.9293 292.473 35.5515C291.981 35.1687 291.362 34.9773 290.616 34.9773C289.9 34.9773 289.299 35.1587 288.812 35.5217C288.324 35.8796 287.956 36.3817 287.708 37.0281C287.459 37.6694 287.335 38.4176 287.335 39.2727Z" fill="black"/>
<path d="M694.202 8.54545C694.112 7.78977 693.749 7.20312 693.113 6.78551C692.477 6.3679 691.696 6.15909 690.771 6.15909C690.095 6.15909 689.504 6.26847 688.996 6.48722C688.494 6.70597 688.102 7.00675 687.818 7.38956C687.54 7.77237 687.401 8.20739 687.401 8.6946C687.401 9.10227 687.498 9.45277 687.691 9.74609C687.89 10.0344 688.144 10.2756 688.452 10.4695C688.76 10.6584 689.083 10.815 689.422 10.9393C689.76 11.0586 690.07 11.1555 690.354 11.2301L691.905 11.6477C692.303 11.7521 692.745 11.8963 693.232 12.0803C693.724 12.2642 694.194 12.5153 694.642 12.8335C695.094 13.1467 695.467 13.5494 695.76 14.0415C696.054 14.5337 696.2 15.1378 696.2 15.8537C696.2 16.679 695.984 17.4247 695.551 18.0909C695.124 18.7571 694.498 19.2866 693.672 19.6793C692.852 20.0721 691.855 20.2685 690.682 20.2685C689.588 20.2685 688.641 20.092 687.841 19.739C687.045 19.386 686.419 18.8938 685.961 18.2624C685.509 17.631 685.253 16.8977 685.193 16.0625H687.102C687.152 16.6392 687.346 17.1165 687.684 17.4943C688.027 17.8672 688.46 18.1456 688.982 18.3295C689.509 18.5085 690.075 18.598 690.682 18.598C691.388 18.598 692.022 18.4837 692.583 18.255C693.145 18.0213 693.59 17.6982 693.918 17.2855C694.246 16.8679 694.411 16.3807 694.411 15.8239C694.411 15.3168 694.269 14.9041 693.985 14.5859C693.702 14.2678 693.329 14.0092 692.867 13.8104C692.404 13.6115 691.905 13.4375 691.368 13.2884L689.489 12.7514C688.295 12.4084 687.351 11.9187 686.655 11.2823C685.959 10.646 685.611 9.81321 685.611 8.78409C685.611 7.92898 685.842 7.18324 686.304 6.54688C686.772 5.90554 687.398 5.40838 688.184 5.0554C688.974 4.69744 689.857 4.51847 690.831 4.51847C691.815 4.51847 692.69 4.69496 693.456 5.04794C694.222 5.39595 694.828 5.87322 695.276 6.47976C695.728 7.08629 695.967 7.77486 695.991 8.54545H694.202ZM703.805 20.2386C702.701 20.2386 701.749 19.995 700.949 19.5078C700.153 19.0156 699.539 18.3295 699.107 17.4496C698.679 16.5646 698.465 15.5355 698.465 14.3622C698.465 13.1889 698.679 12.1548 699.107 11.2599C699.539 10.3601 700.141 9.65909 700.911 9.15696C701.687 8.64986 702.592 8.39631 703.626 8.39631C704.223 8.39631 704.812 8.49574 705.393 8.6946C705.975 8.89347 706.505 9.21662 706.982 9.66406C707.459 10.1065 707.839 10.6932 708.123 11.424C708.406 12.1548 708.548 13.0547 708.548 14.1236V14.8693H699.718V13.348H706.758C706.758 12.7017 706.629 12.125 706.37 11.6179C706.117 11.1108 705.754 10.7106 705.282 10.4173C704.814 10.1239 704.262 9.97727 703.626 9.97727C702.925 9.97727 702.318 10.1513 701.806 10.4993C701.299 10.8423 700.909 11.2898 700.636 11.8416C700.362 12.3935 700.225 12.9851 700.225 13.6165V14.6307C700.225 15.4957 700.375 16.229 700.673 16.8306C700.976 17.4272 701.396 17.8821 701.933 18.1953C702.47 18.5036 703.094 18.6577 703.805 18.6577C704.267 18.6577 704.685 18.593 705.058 18.4638C705.436 18.3295 705.761 18.1307 706.035 17.8672C706.308 17.5987 706.519 17.2656 706.669 16.8679L708.369 17.3452C708.19 17.9219 707.889 18.429 707.467 18.8665C707.044 19.299 706.522 19.6371 705.9 19.8807C705.279 20.1193 704.581 20.2386 703.805 20.2386ZM712.985 4.72727V20H711.225V4.72727H712.985ZM721.011 20.2386C719.907 20.2386 718.955 19.995 718.155 19.5078C717.359 19.0156 716.745 18.3295 716.313 17.4496C715.885 16.5646 715.672 15.5355 715.672 14.3622C715.672 13.1889 715.885 12.1548 716.313 11.2599C716.745 10.3601 717.347 9.65909 718.118 9.15696C718.893 8.64986 719.798 8.39631 720.832 8.39631C721.429 8.39631 722.018 8.49574 722.599 8.6946C723.181 8.89347 723.711 9.21662 724.188 9.66406C724.665 10.1065 725.045 10.6932 725.329 11.424C725.612 12.1548 725.754 13.0547 725.754 14.1236V14.8693H716.924V13.348H723.964C723.964 12.7017 723.835 12.125 723.576 11.6179C723.323 11.1108 722.96 10.7106 722.488 10.4173C722.02 10.1239 721.468 9.97727 720.832 9.97727C720.131 9.97727 719.525 10.1513 719.012 10.4993C718.505 10.8423 718.115 11.2898 717.842 11.8416C717.568 12.3935 717.431 12.9851 717.431 13.6165V14.6307C717.431 15.4957 717.581 16.229 717.879 16.8306C718.182 17.4272 718.602 17.8821 719.139 18.1953C719.676 18.5036 720.3 18.6577 721.011 18.6577C721.473 18.6577 721.891 18.593 722.264 18.4638C722.642 18.3295 722.967 18.1307 723.241 17.8672C723.514 17.5987 723.725 17.2656 723.875 16.8679L725.575 17.3452C725.396 17.9219 725.095 18.429 724.673 18.8665C724.25 19.299 723.728 19.6371 723.107 19.8807C722.485 20.1193 721.787 20.2386 721.011 20.2386ZM733.085 20.2386C732.011 20.2386 731.086 19.9851 730.31 19.478C729.535 18.9709 728.938 18.2724 728.521 17.3825C728.103 16.4925 727.894 15.4759 727.894 14.3324C727.894 13.169 728.108 12.1424 728.536 11.2525C728.968 10.3576 729.57 9.65909 730.34 9.15696C731.116 8.64986 732.021 8.39631 733.055 8.39631C733.86 8.39631 734.586 8.54545 735.232 8.84375C735.879 9.14205 736.408 9.55966 736.821 10.0966C737.233 10.6335 737.489 11.2599 737.589 11.9759H735.829C735.695 11.4538 735.396 10.9915 734.934 10.5888C734.477 10.1811 733.86 9.97727 733.085 9.97727C732.398 9.97727 731.797 10.1562 731.28 10.5142C730.768 10.8672 730.368 11.3668 730.079 12.0131C729.796 12.6545 729.654 13.4077 729.654 14.2727C729.654 15.1577 729.793 15.9283 730.072 16.5845C730.355 17.2408 730.753 17.7504 731.265 18.1133C731.782 18.4762 732.388 18.6577 733.085 18.6577C733.542 18.6577 733.957 18.5781 734.33 18.419C734.703 18.2599 735.018 18.0312 735.277 17.733C735.536 17.4347 735.719 17.0767 735.829 16.6591H737.589C737.489 17.3352 737.243 17.9442 736.85 18.4862C736.463 19.0231 735.948 19.4506 735.307 19.7688C734.67 20.082 733.93 20.2386 733.085 20.2386ZM745.143 8.54545V10.0369H739.207V8.54545H745.143ZM740.937 5.80114H742.697V16.7188C742.697 17.2159 742.769 17.5888 742.913 17.8374C743.063 18.081 743.251 18.245 743.48 18.3295C743.714 18.4091 743.96 18.4489 744.218 18.4489C744.412 18.4489 744.571 18.4389 744.696 18.419C744.82 18.3942 744.919 18.3743 744.994 18.3594L745.352 19.9403C745.233 19.9851 745.066 20.0298 744.852 20.0746C744.638 20.1243 744.368 20.1491 744.039 20.1491C743.542 20.1491 743.055 20.0423 742.578 19.8285C742.105 19.6147 741.713 19.2891 741.4 18.8516C741.091 18.4141 740.937 17.8622 740.937 17.196V5.80114ZM758.35 20.2386C757.316 20.2386 756.409 19.9925 755.628 19.5004C754.853 19.0082 754.246 18.3196 753.809 17.4347C753.376 16.5497 753.16 15.5156 753.16 14.3324C753.16 13.1392 753.376 12.0977 753.809 11.2077C754.246 10.3178 754.853 9.62678 755.628 9.13459C756.409 8.6424 757.316 8.39631 758.35 8.39631C759.384 8.39631 760.289 8.6424 761.065 9.13459C761.845 9.62678 762.452 10.3178 762.884 11.2077C763.322 12.0977 763.54 13.1392 763.54 14.3324C763.54 15.5156 763.322 16.5497 762.884 17.4347C762.452 18.3196 761.845 19.0082 761.065 19.5004C760.289 19.9925 759.384 20.2386 758.35 20.2386ZM758.35 18.6577C759.136 18.6577 759.782 18.4563 760.289 18.0536C760.796 17.6509 761.172 17.1214 761.415 16.4652C761.659 15.8089 761.781 15.098 761.781 14.3324C761.781 13.5668 761.659 12.8533 761.415 12.1921C761.172 11.5309 760.796 10.9964 760.289 10.5888C759.782 10.1811 759.136 9.97727 758.35 9.97727C757.565 9.97727 756.918 10.1811 756.411 10.5888C755.904 10.9964 755.529 11.5309 755.285 12.1921C755.042 12.8533 754.92 13.5668 754.92 14.3324C754.92 15.098 755.042 15.8089 755.285 16.4652C755.529 17.1214 755.904 17.6509 756.411 18.0536C756.918 18.4563 757.565 18.6577 758.35 18.6577ZM775.183 8.54545L770.948 20H769.158L764.922 8.54545H766.831L769.993 17.6733H770.112L773.274 8.54545H775.183ZM780.528 20.2685C779.803 20.2685 779.144 20.1317 778.552 19.8583C777.961 19.5799 777.491 19.1797 777.143 18.6577C776.795 18.1307 776.621 17.4943 776.621 16.7486C776.621 16.0923 776.75 15.5604 777.009 15.1527C777.267 14.7401 777.613 14.4169 778.045 14.1832C778.478 13.9496 778.955 13.7756 779.477 13.6612C780.004 13.5419 780.533 13.4474 781.065 13.3778C781.761 13.2884 782.326 13.2212 782.758 13.1765C783.196 13.1268 783.514 13.0447 783.713 12.9304C783.917 12.8161 784.018 12.6172 784.018 12.3338V12.2741C784.018 11.5384 783.817 10.9666 783.414 10.5589C783.017 10.1513 782.413 9.94744 781.602 9.94744C780.762 9.94744 780.103 10.1314 779.626 10.4993C779.149 10.8672 778.813 11.2599 778.619 11.6776L776.949 11.081C777.247 10.3849 777.645 9.84304 778.142 9.45526C778.644 9.0625 779.191 8.78906 779.783 8.63494C780.379 8.47585 780.966 8.39631 781.543 8.39631C781.911 8.39631 782.333 8.44105 782.81 8.53054C783.293 8.61506 783.757 8.79155 784.205 9.06001C784.657 9.32848 785.033 9.73366 785.331 10.2756C785.629 10.8175 785.778 11.5433 785.778 12.4531V20H784.018V18.4489H783.929C783.81 18.6974 783.611 18.9634 783.332 19.2468C783.054 19.5302 782.684 19.7713 782.221 19.9702C781.759 20.169 781.195 20.2685 780.528 20.2685ZM780.797 18.6875C781.493 18.6875 782.08 18.5508 782.557 18.2773C783.039 18.0039 783.402 17.6509 783.646 17.2184C783.894 16.7859 784.018 16.331 784.018 15.8537V14.2429C783.944 14.3324 783.78 14.4144 783.526 14.489C783.278 14.5586 782.989 14.6207 782.661 14.6754C782.338 14.7251 782.022 14.7699 781.714 14.8097C781.411 14.8445 781.165 14.8743 780.976 14.8991C780.518 14.9588 780.091 15.0558 779.693 15.19C779.3 15.3192 778.982 15.5156 778.739 15.7791C778.5 16.0376 778.381 16.3906 778.381 16.8381C778.381 17.4496 778.607 17.9119 779.059 18.2251C779.517 18.5334 780.096 18.6875 780.797 18.6875ZM790.751 4.72727V20H788.991V4.72727H790.751ZM803.251 20.2685C802.525 20.2685 801.866 20.1317 801.275 19.8583C800.683 19.5799 800.213 19.1797 799.865 18.6577C799.517 18.1307 799.343 17.4943 799.343 16.7486C799.343 16.0923 799.473 15.5604 799.731 15.1527C799.99 14.7401 800.335 14.4169 800.768 14.1832C801.2 13.9496 801.678 13.7756 802.2 13.6612C802.727 13.5419 803.256 13.4474 803.788 13.3778C804.484 13.2884 805.048 13.2212 805.481 13.1765C805.918 13.1268 806.237 13.0447 806.435 12.9304C806.639 12.8161 806.741 12.6172 806.741 12.3338V12.2741C806.741 11.5384 806.54 10.9666 806.137 10.5589C805.739 10.1513 805.135 9.94744 804.325 9.94744C803.485 9.94744 802.826 10.1314 802.349 10.4993C801.871 10.8672 801.536 11.2599 801.342 11.6776L799.672 11.081C799.97 10.3849 800.368 9.84304 800.865 9.45526C801.367 9.0625 801.914 8.78906 802.505 8.63494C803.102 8.47585 803.689 8.39631 804.265 8.39631C804.633 8.39631 805.056 8.44105 805.533 8.53054C806.015 8.61506 806.48 8.79155 806.928 9.06001C807.38 9.32848 807.755 9.73366 808.054 10.2756C808.352 10.8175 808.501 11.5433 808.501 12.4531V20H806.741V18.4489H806.652C806.532 18.6974 806.333 18.9634 806.055 19.2468C805.777 19.5302 805.406 19.7713 804.944 19.9702C804.482 20.169 803.917 20.2685 803.251 20.2685ZM803.52 18.6875C804.216 18.6875 804.802 18.5508 805.279 18.2773C805.762 18.0039 806.125 17.6509 806.368 17.2184C806.617 16.7859 806.741 16.331 806.741 15.8537V14.2429C806.667 14.3324 806.502 14.4144 806.249 14.489C806 14.5586 805.712 14.6207 805.384 14.6754C805.061 14.7251 804.745 14.7699 804.437 14.8097C804.134 14.8445 803.887 14.8743 803.699 14.8991C803.241 14.9588 802.814 15.0558 802.416 15.19C802.023 15.3192 801.705 15.5156 801.461 15.7791C801.223 16.0376 801.103 16.3906 801.103 16.8381C801.103 17.4496 801.33 17.9119 801.782 18.2251C802.239 18.5334 802.819 18.6875 803.52 18.6875ZM813.473 13.1094V20H811.713V8.54545H813.414V10.3352H813.563C813.831 9.75355 814.239 9.28622 814.786 8.93324C815.333 8.57528 816.039 8.39631 816.904 8.39631C817.679 8.39631 818.358 8.5554 818.94 8.87358C819.521 9.18679 819.974 9.66406 820.297 10.3054C820.62 10.9418 820.782 11.7472 820.782 12.7216V20H819.022V12.8409C819.022 11.9411 818.788 11.2401 818.321 10.7379C817.853 10.2308 817.212 9.97727 816.397 9.97727C815.835 9.97727 815.333 10.0991 814.89 10.3427C814.453 10.5863 814.107 10.9418 813.854 11.4091C813.6 11.8764 813.473 12.4432 813.473 13.1094ZM828.323 20.2386C827.368 20.2386 826.526 19.9975 825.795 19.5153C825.064 19.0281 824.492 18.342 824.08 17.457C823.667 16.5671 823.461 15.5156 823.461 14.3026C823.461 13.0994 823.667 12.0554 824.08 11.1705C824.492 10.2855 825.066 9.60192 825.802 9.11967C826.538 8.63743 827.388 8.39631 828.353 8.39631C829.098 8.39631 829.688 8.5206 830.12 8.76918C830.558 9.01278 830.891 9.29119 831.119 9.6044C831.353 9.91264 831.534 10.1662 831.664 10.3651H831.813V4.72727H833.573V20H831.873V18.2401H831.664C831.534 18.4489 831.35 18.7124 831.112 19.0305C830.873 19.3437 830.533 19.6246 830.09 19.8732C829.648 20.1168 829.059 20.2386 828.323 20.2386ZM828.561 18.6577C829.267 18.6577 829.864 18.4737 830.351 18.1058C830.838 17.733 831.209 17.2184 831.462 16.5621C831.716 15.9009 831.843 15.1378 831.843 14.2727C831.843 13.4176 831.718 12.6694 831.47 12.0281C831.221 11.3817 830.853 10.8796 830.366 10.5217C829.879 10.1587 829.277 9.97727 828.561 9.97727C827.816 9.97727 827.194 10.1687 826.697 10.5515C826.205 10.9293 825.835 11.4439 825.586 12.0952C825.342 12.7415 825.221 13.4673 825.221 14.2727C825.221 15.0881 825.345 15.8288 825.593 16.495C825.847 17.1562 826.22 17.6832 826.712 18.076C827.209 18.4638 827.826 18.6577 828.561 18.6577ZM846.317 20.2685C845.592 20.2685 844.933 20.1317 844.341 19.8583C843.75 19.5799 843.28 19.1797 842.932 18.6577C842.584 18.1307 842.41 17.4943 842.41 16.7486C842.41 16.0923 842.539 15.5604 842.798 15.1527C843.056 14.7401 843.402 14.4169 843.834 14.1832C844.267 13.9496 844.744 13.7756 845.266 13.6612C845.793 13.5419 846.322 13.4474 846.854 13.3778C847.55 13.2884 848.115 13.2212 848.547 13.1765C848.985 13.1268 849.303 13.0447 849.502 12.9304C849.706 12.8161 849.808 12.6172 849.808 12.3338V12.2741C849.808 11.5384 849.606 10.9666 849.203 10.5589C848.806 10.1513 848.202 9.94744 847.391 9.94744C846.551 9.94744 845.892 10.1314 845.415 10.4993C844.938 10.8672 844.602 11.2599 844.408 11.6776L842.738 11.081C843.036 10.3849 843.434 9.84304 843.931 9.45526C844.433 9.0625 844.98 8.78906 845.572 8.63494C846.168 8.47585 846.755 8.39631 847.332 8.39631C847.7 8.39631 848.122 8.44105 848.599 8.53054C849.082 8.61506 849.547 8.79155 849.994 9.06001C850.446 9.32848 850.822 9.73366 851.12 10.2756C851.418 10.8175 851.567 11.5433 851.567 12.4531V20H849.808V18.4489H849.718C849.599 18.6974 849.4 18.9634 849.121 19.2468C848.843 19.5302 848.473 19.7713 848.01 19.9702C847.548 20.169 846.984 20.2685 846.317 20.2685ZM846.586 18.6875C847.282 18.6875 847.869 18.5508 848.346 18.2773C848.828 18.0039 849.191 17.6509 849.435 17.2184C849.683 16.7859 849.808 16.331 849.808 15.8537V14.2429C849.733 14.3324 849.569 14.4144 849.315 14.489C849.067 14.5586 848.778 14.6207 848.45 14.6754C848.127 14.7251 847.811 14.7699 847.503 14.8097C847.2 14.8445 846.954 14.8743 846.765 14.8991C846.308 14.9588 845.88 15.0558 845.482 15.19C845.089 15.3192 844.771 15.5156 844.528 15.7791C844.289 16.0376 844.17 16.3906 844.17 16.8381C844.17 17.4496 844.396 17.9119 844.848 18.2251C845.306 18.5334 845.885 18.6875 846.586 18.6875ZM856.54 4.72727V20H854.78V4.72727H856.54ZM859.763 20V8.54545H861.523V20H859.763ZM860.658 6.63636C860.315 6.63636 860.019 6.51953 859.771 6.28587C859.527 6.0522 859.405 5.77131 859.405 5.44318C859.405 5.11506 859.527 4.83416 859.771 4.6005C860.019 4.36683 860.315 4.25 860.658 4.25C861.001 4.25 861.294 4.36683 861.538 4.6005C861.787 4.83416 861.911 5.11506 861.911 5.44318C861.911 5.77131 861.787 6.0522 861.538 6.28587C861.294 6.51953 861.001 6.63636 860.658 6.63636ZM869.37 24.5341C868.52 24.5341 867.789 24.4247 867.178 24.206C866.566 23.9922 866.057 23.7088 865.649 23.3558C865.246 23.0078 864.926 22.6349 864.687 22.2372L866.089 21.2528C866.248 21.4616 866.449 21.7003 866.693 21.9688C866.937 22.2422 867.27 22.4783 867.692 22.6772C868.12 22.881 868.679 22.983 869.37 22.983C870.295 22.983 871.058 22.7592 871.66 22.3118C872.261 21.8643 872.562 21.1634 872.562 20.2088V17.8821H872.413C872.283 18.0909 872.1 18.3494 871.861 18.6577C871.627 18.9609 871.289 19.2319 870.847 19.4705C870.409 19.7042 869.818 19.821 869.072 19.821C868.147 19.821 867.317 19.6023 866.581 19.1648C865.85 18.7273 865.271 18.0909 864.843 17.2557C864.421 16.4205 864.21 15.4062 864.21 14.2131C864.21 13.0398 864.416 12.0181 864.829 11.1481C865.241 10.2731 865.815 9.59695 866.551 9.11967C867.287 8.63743 868.137 8.39631 869.102 8.39631C869.847 8.39631 870.439 8.5206 870.877 8.76918C871.319 9.01278 871.657 9.29119 871.891 9.6044C872.129 9.91264 872.313 10.1662 872.443 10.3651H872.622V8.54545H874.322V20.3281C874.322 21.3125 874.098 22.1129 873.651 22.7294C873.208 23.3509 872.612 23.8058 871.861 24.0941C871.115 24.3874 870.285 24.5341 869.37 24.5341ZM869.31 18.2401C870.016 18.2401 870.613 18.0785 871.1 17.7553C871.587 17.4322 871.958 16.9673 872.211 16.3608C872.465 15.7543 872.592 15.0284 872.592 14.1832C872.592 13.358 872.467 12.6296 872.219 11.9982C871.97 11.3668 871.602 10.8722 871.115 10.5142C870.628 10.1562 870.026 9.97727 869.31 9.97727C868.565 9.97727 867.943 10.1662 867.446 10.544C866.954 10.9219 866.584 11.429 866.335 12.0653C866.091 12.7017 865.97 13.4077 865.97 14.1832C865.97 14.9787 866.094 15.6822 866.342 16.2937C866.596 16.9002 866.969 17.3775 867.461 17.7255C867.958 18.0685 868.575 18.2401 869.31 18.2401ZM879.303 13.1094V20H877.543V8.54545H879.244V10.3352H879.393C879.661 9.75355 880.069 9.28622 880.616 8.93324C881.163 8.57528 881.869 8.39631 882.734 8.39631C883.509 8.39631 884.188 8.5554 884.77 8.87358C885.351 9.18679 885.804 9.66406 886.127 10.3054C886.45 10.9418 886.612 11.7472 886.612 12.7216V20H884.852V12.8409C884.852 11.9411 884.618 11.2401 884.151 10.7379C883.683 10.2308 883.042 9.97727 882.227 9.97727C881.665 9.97727 881.163 10.0991 880.72 10.3427C880.283 10.5863 879.937 10.9418 879.684 11.4091C879.43 11.8764 879.303 12.4432 879.303 13.1094ZM900.715 8.54545V10.0369H894.779V8.54545H900.715ZM896.509 5.80114H898.269V16.7188C898.269 17.2159 898.341 17.5888 898.486 17.8374C898.635 18.081 898.824 18.245 899.052 18.3295C899.286 18.4091 899.532 18.4489 899.791 18.4489C899.985 18.4489 900.144 18.4389 900.268 18.419C900.392 18.3942 900.492 18.3743 900.566 18.3594L900.924 19.9403C900.805 19.9851 900.638 20.0298 900.425 20.0746C900.211 20.1243 899.94 20.1491 899.612 20.1491C899.115 20.1491 898.627 20.0423 898.15 19.8285C897.678 19.6147 897.285 19.2891 896.972 18.8516C896.664 18.4141 896.509 17.8622 896.509 17.196V5.80114ZM907.893 20.2386C906.859 20.2386 905.952 19.9925 905.171 19.5004C904.396 19.0082 903.789 18.3196 903.352 17.4347C902.919 16.5497 902.703 15.5156 902.703 14.3324C902.703 13.1392 902.919 12.0977 903.352 11.2077C903.789 10.3178 904.396 9.62678 905.171 9.13459C905.952 8.6424 906.859 8.39631 907.893 8.39631C908.927 8.39631 909.832 8.6424 910.608 9.13459C911.388 9.62678 911.995 10.3178 912.427 11.2077C912.865 12.0977 913.083 13.1392 913.083 14.3324C913.083 15.5156 912.865 16.5497 912.427 17.4347C911.995 18.3196 911.388 19.0082 910.608 19.5004C909.832 19.9925 908.927 20.2386 907.893 20.2386ZM907.893 18.6577C908.679 18.6577 909.325 18.4563 909.832 18.0536C910.339 17.6509 910.714 17.1214 910.958 16.4652C911.202 15.8089 911.324 15.098 911.324 14.3324C911.324 13.5668 911.202 12.8533 910.958 12.1921C910.714 11.5309 910.339 10.9964 909.832 10.5888C909.325 10.1811 908.679 9.97727 907.893 9.97727C907.108 9.97727 906.461 10.1811 905.954 10.5888C905.447 10.9964 905.072 11.5309 904.828 12.1921C904.585 12.8533 904.463 13.5668 904.463 14.3324C904.463 15.098 904.585 15.8089 904.828 16.4652C905.072 17.1214 905.447 17.6509 905.954 18.0536C906.461 18.4563 907.108 18.6577 907.893 18.6577ZM685.849 45V29.7273H691.01C692.208 29.7273 693.188 29.9435 693.948 30.3761C694.714 30.8036 695.281 31.3828 695.648 32.1136C696.016 32.8445 696.2 33.6598 696.2 34.5597C696.2 35.4595 696.016 36.2773 695.648 37.0131C695.286 37.7489 694.724 38.3356 693.963 38.7731C693.202 39.2056 692.228 39.4219 691.04 39.4219H687.341V37.7812H690.98C691.8 37.7812 692.459 37.6396 692.956 37.3562C693.453 37.0728 693.814 36.69 694.038 36.2077C694.266 35.7205 694.381 35.1712 694.381 34.5597C694.381 33.9482 694.266 33.4013 694.038 32.919C693.814 32.4368 693.451 32.0589 692.949 31.7855C692.447 31.5071 691.781 31.3679 690.95 31.3679H687.699V45H685.849ZM702.312 45.2685C701.586 45.2685 700.927 45.1317 700.335 44.8583C699.744 44.5799 699.274 44.1797 698.926 43.6577C698.578 43.1307 698.404 42.4943 698.404 41.7486C698.404 41.0923 698.533 40.5604 698.792 40.1527C699.05 39.7401 699.396 39.4169 699.828 39.1832C700.261 38.9496 700.738 38.7756 701.26 38.6612C701.787 38.5419 702.317 38.4474 702.849 38.3778C703.545 38.2884 704.109 38.2212 704.541 38.1765C704.979 38.1268 705.297 38.0447 705.496 37.9304C705.7 37.8161 705.802 37.6172 705.802 37.3338V37.2741C705.802 36.5384 705.6 35.9666 705.198 35.5589C704.8 35.1513 704.196 34.9474 703.385 34.9474C702.545 34.9474 701.887 35.1314 701.409 35.4993C700.932 35.8672 700.596 36.2599 700.403 36.6776L698.732 36.081C699.03 35.3849 699.428 34.843 699.925 34.4553C700.427 34.0625 700.974 33.7891 701.566 33.6349C702.162 33.4759 702.749 33.3963 703.326 33.3963C703.694 33.3963 704.116 33.4411 704.594 33.5305C705.076 33.6151 705.541 33.7915 705.988 34.06C706.441 34.3285 706.816 34.7337 707.114 35.2756C707.412 35.8175 707.562 36.5433 707.562 37.4531V45H705.802V43.4489H705.712C705.593 43.6974 705.394 43.9634 705.116 44.2468C704.837 44.5302 704.467 44.7713 704.004 44.9702C703.542 45.169 702.978 45.2685 702.312 45.2685ZM702.58 43.6875C703.276 43.6875 703.863 43.5508 704.34 43.2773C704.822 43.0039 705.185 42.6509 705.429 42.2184C705.677 41.7859 705.802 41.331 705.802 40.8537V39.2429C705.727 39.3324 705.563 39.4144 705.309 39.489C705.061 39.5586 704.773 39.6207 704.444 39.6754C704.121 39.7251 703.806 39.7699 703.497 39.8097C703.194 39.8445 702.948 39.8743 702.759 39.8991C702.302 39.9588 701.874 40.0558 701.476 40.19C701.084 40.3192 700.765 40.5156 700.522 40.7791C700.283 41.0376 700.164 41.3906 700.164 41.8381C700.164 42.4496 700.39 42.9119 700.843 43.2251C701.3 43.5334 701.879 43.6875 702.58 43.6875ZM710.774 45V33.5455H712.474V35.2756H712.593C712.802 34.7088 713.18 34.2489 713.727 33.896C714.274 33.543 714.89 33.3665 715.576 33.3665C715.706 33.3665 715.867 33.369 716.061 33.3739C716.255 33.3789 716.402 33.3864 716.501 33.3963V35.1861C716.441 35.1712 716.305 35.1488 716.091 35.119C715.882 35.0842 715.661 35.0668 715.427 35.0668C714.87 35.0668 714.373 35.1836 713.936 35.4173C713.503 35.646 713.16 35.9641 712.907 36.3718C712.658 36.7745 712.534 37.2344 712.534 37.7514V45H710.774ZM723.041 45.2386C721.938 45.2386 720.986 44.995 720.185 44.5078C719.39 44.0156 718.776 43.3295 718.343 42.4496C717.916 41.5646 717.702 40.5355 717.702 39.3622C717.702 38.1889 717.916 37.1548 718.343 36.2599C718.776 35.3601 719.377 34.6591 720.148 34.157C720.923 33.6499 721.828 33.3963 722.862 33.3963C723.459 33.3963 724.048 33.4957 724.63 33.6946C725.211 33.8935 725.741 34.2166 726.218 34.6641C726.695 35.1065 727.076 35.6932 727.359 36.424C727.642 37.1548 727.784 38.0547 727.784 39.1236V39.8693H718.955V38.348H725.994C725.994 37.7017 725.865 37.125 725.607 36.6179C725.353 36.1108 724.99 35.7106 724.518 35.4173C724.051 35.1239 723.499 34.9773 722.862 34.9773C722.161 34.9773 721.555 35.1513 721.043 35.4993C720.536 35.8423 720.145 36.2898 719.872 36.8416C719.598 37.3935 719.462 37.9851 719.462 38.6165V39.6307C719.462 40.4957 719.611 41.229 719.909 41.8306C720.212 42.4272 720.633 42.8821 721.169 43.1953C721.706 43.5036 722.33 43.6577 723.041 43.6577C723.504 43.6577 723.921 43.593 724.294 43.4638C724.672 43.3295 724.998 43.1307 725.271 42.8672C725.544 42.5987 725.756 42.2656 725.905 41.8679L727.605 42.3452C727.426 42.9219 727.125 43.429 726.703 43.8665C726.28 44.299 725.758 44.6371 725.137 44.8807C724.515 45.1193 723.817 45.2386 723.041 45.2386ZM732.221 38.1094V45H730.461V33.5455H732.162V35.3352H732.311C732.579 34.7536 732.987 34.2862 733.534 33.9332C734.081 33.5753 734.787 33.3963 735.652 33.3963C736.427 33.3963 737.106 33.5554 737.688 33.8736C738.269 34.1868 738.722 34.6641 739.045 35.3054C739.368 35.9418 739.53 36.7472 739.53 37.7216V45H737.77V37.8409C737.77 36.9411 737.536 36.2401 737.069 35.7379C736.601 35.2308 735.96 34.9773 735.145 34.9773C734.583 34.9773 734.081 35.0991 733.638 35.3427C733.201 35.5863 732.855 35.9418 732.602 36.4091C732.348 36.8764 732.221 37.4432 732.221 38.1094ZM747.727 33.5455V35.0369H741.791V33.5455H747.727ZM743.521 30.8011H745.281V41.7188C745.281 42.2159 745.353 42.5888 745.497 42.8374C745.646 43.081 745.835 43.245 746.064 43.3295C746.298 43.4091 746.544 43.4489 746.802 43.4489C746.996 43.4489 747.155 43.4389 747.28 43.419C747.404 43.3942 747.503 43.3743 747.578 43.3594L747.936 44.9403C747.817 44.9851 747.65 45.0298 747.436 45.0746C747.222 45.1243 746.952 45.1491 746.623 45.1491C746.126 45.1491 745.639 45.0423 745.162 44.8285C744.689 44.6147 744.297 44.2891 743.983 43.8516C743.675 43.4141 743.521 42.8622 743.521 42.196V30.8011ZM752.52 29.7273V31.0696C752.52 31.4773 752.446 31.9123 752.297 32.3746C752.152 32.832 751.939 33.277 751.655 33.7095C751.377 34.1371 751.039 34.5099 750.641 34.8281L749.687 34.0526C750 33.6051 750.271 33.1403 750.499 32.658C750.733 32.1708 750.85 31.6513 750.85 31.0994V29.7273H752.52ZM761.339 36.1108L759.758 36.5582C759.658 36.2947 759.512 36.0387 759.318 35.7901C759.129 35.5366 758.87 35.3278 758.542 35.1637C758.214 34.9996 757.794 34.9176 757.282 34.9176C756.581 34.9176 755.997 35.0792 755.529 35.4023C755.067 35.7205 754.836 36.1257 754.836 36.6179C754.836 37.0554 754.995 37.4009 755.313 37.6545C755.631 37.908 756.128 38.1193 756.805 38.2884L758.505 38.706C759.529 38.9545 760.292 39.3349 760.794 39.8469C761.296 40.354 761.547 41.0078 761.547 41.8082C761.547 42.4645 761.359 43.0511 760.981 43.5682C760.608 44.0852 760.086 44.4929 759.415 44.7912C758.744 45.0895 757.963 45.2386 757.073 45.2386C755.905 45.2386 754.938 44.9851 754.172 44.478C753.407 43.9709 752.922 43.2301 752.718 42.2557L754.388 41.8381C754.547 42.4545 754.848 42.9169 755.291 43.2251C755.738 43.5334 756.322 43.6875 757.043 43.6875C757.864 43.6875 758.515 43.5135 758.997 43.1655C759.484 42.8125 759.728 42.3899 759.728 41.8977C759.728 41.5 759.589 41.1669 759.31 40.8984C759.032 40.625 758.604 40.4212 758.028 40.2869L756.119 39.8395C755.07 39.5909 754.299 39.2056 753.807 38.6836C753.32 38.1566 753.076 37.4979 753.076 36.7074C753.076 36.0611 753.257 35.4893 753.62 34.9922C753.988 34.495 754.488 34.1048 755.119 33.8214C755.756 33.538 756.476 33.3963 757.282 33.3963C758.415 33.3963 759.305 33.6449 759.952 34.142C760.603 34.6392 761.065 35.2955 761.339 36.1108ZM762.042 31.3679V29.7273H773.496V31.3679H768.694V45H766.844V31.3679H762.042ZM776.35 45V29.7273H778.2V43.3594H785.299V45H776.35Z" fill="black"/>
<defs>
<filter id="filter0_d_1_185837" x="469" y="64" width="16" height="16" filterUnits="userSpaceOnUse" color-interpolation-filters="sRGB">
<feFlood flood-opacity="0" result="BackgroundImageFix"/>
<feColorMatrix in="SourceAlpha" type="matrix" values="0 0 0 0 0 0 0 0 0 0 0 0 0 0 0 0 0 0 127 0" result="hardAlpha"/>
<feOffset dy="2"/>
<feGaussianBlur stdDeviation="2"/>
<feColorMatrix type="matrix" values="0 0 0 0 0 0 0 0 0 0 0 0 0 0 0 0 0 0 0.45 0"/>
<feBlend mode="normal" in2="BackgroundImageFix" result="effect1_dropShadow_1_185837"/>
<feBlend mode="normal" in="SourceGraphic" in2="effect1_dropShadow_1_185837" result="shape"/>
</filter>
<filter id="filter1_d_1_185837" x="469" y="196" width="16" height="16" filterUnits="userSpaceOnUse" color-interpolation-filters="sRGB">
<feFlood flood-opacity="0" result="BackgroundImageFix"/>
<feColorMatrix in="SourceAlpha" type="matrix" values="0 0 0 0 0 0 0 0 0 0 0 0 0 0 0 0 0 0 127 0" result="hardAlpha"/>
<feOffset dy="2"/>
<feGaussianBlur stdDeviation="2"/>
<feColorMatrix type="matrix" values="0 0 0 0 0 0 0 0 0 0 0 0 0 0 0 0 0 0 0.45 0"/>
<feBlend mode="normal" in2="BackgroundImageFix" result="effect1_dropShadow_1_185837"/>
<feBlend mode="normal" in="SourceGraphic" in2="effect1_dropShadow_1_185837" result="shape"/>
</filter>
<filter id="filter2_d_1_185837" x="631" y="64" width="16" height="16" filterUnits="userSpaceOnUse" color-interpolation-filters="sRGB">
<feFlood flood-opacity="0" result="BackgroundImageFix"/>
<feColorMatrix in="SourceAlpha" type="matrix" values="0 0 0 0 0 0 0 0 0 0 0 0 0 0 0 0 0 0 127 0" result="hardAlpha"/>
<feOffset dy="2"/>
<feGaussianBlur stdDeviation="2"/>
<feColorMatrix type="matrix" values="0 0 0 0 0 0 0 0 0 0 0 0 0 0 0 0 0 0 0.45 0"/>
<feBlend mode="normal" in2="BackgroundImageFix" result="effect1_dropShadow_1_185837"/>
<feBlend mode="normal" in="SourceGraphic" in2="effect1_dropShadow_1_185837" result="shape"/>
</filter>
<filter id="filter3_d_1_185837" x="631" y="196" width="16" height="16" filterUnits="userSpaceOnUse" color-interpolation-filters="sRGB">
<feFlood flood-opacity="0" result="BackgroundImageFix"/>
<feColorMatrix in="SourceAlpha" type="matrix" values="0 0 0 0 0 0 0 0 0 0 0 0 0 0 0 0 0 0 127 0" result="hardAlpha"/>
<feOffset dy="2"/>
<feGaussianBlur stdDeviation="2"/>
<feColorMatrix type="matrix" values="0 0 0 0 0 0 0 0 0 0 0 0 0 0 0 0 0 0 0.45 0"/>
<feBlend mode="normal" in2="BackgroundImageFix" result="effect1_dropShadow_1_185837"/>
<feBlend mode="normal" in="SourceGraphic" in2="effect1_dropShadow_1_185837" result="shape"/>
</filter>
<filter id="filter4_d_1_185837" x="884" y="64" width="16" height="16" filterUnits="userSpaceOnUse" color-interpolation-filters="sRGB">
<feFlood flood-opacity="0" result="BackgroundImageFix"/>
<feColorMatrix in="SourceAlpha" type="matrix" values="0 0 0 0 0 0 0 0 0 0 0 0 0 0 0 0 0 0 127 0" result="hardAlpha"/>
<feOffset dy="2"/>
<feGaussianBlur stdDeviation="2"/>
<feColorMatrix type="matrix" values="0 0 0 0 0 0 0 0 0 0 0 0 0 0 0 0 0 0 0.45 0"/>
<feBlend mode="normal" in2="BackgroundImageFix" result="effect1_dropShadow_1_185837"/>
<feBlend mode="normal" in="SourceGraphic" in2="effect1_dropShadow_1_185837" result="shape"/>
</filter>
<filter id="filter5_d_1_185837" x="884" y="163" width="16" height="16" filterUnits="userSpaceOnUse" color-interpolation-filters="sRGB">
<feFlood flood-opacity="0" result="BackgroundImageFix"/>
<feColorMatrix in="SourceAlpha" type="matrix" values="0 0 0 0 0 0 0 0 0 0 0 0 0 0 0 0 0 0 127 0" result="hardAlpha"/>
<feOffset dy="2"/>
<feGaussianBlur stdDeviation="2"/>
<feColorMatrix type="matrix" values="0 0 0 0 0 0 0 0 0 0 0 0 0 0 0 0 0 0 0.45 0"/>
<feBlend mode="normal" in2="BackgroundImageFix" result="effect1_dropShadow_1_185837"/>
<feBlend mode="normal" in="SourceGraphic" in2="effect1_dropShadow_1_185837" result="shape"/>
</filter>
<filter id="filter6_d_1_185837" x="998" y="64" width="16" height="16" filterUnits="userSpaceOnUse" color-interpolation-filters="sRGB">
<feFlood flood-opacity="0" result="BackgroundImageFix"/>
<feColorMatrix in="SourceAlpha" type="matrix" values="0 0 0 0 0 0 0 0 0 0 0 0 0 0 0 0 0 0 127 0" result="hardAlpha"/>
<feOffset dy="2"/>
<feGaussianBlur stdDeviation="2"/>
<feColorMatrix type="matrix" values="0 0 0 0 0 0 0 0 0 0 0 0 0 0 0 0 0 0 0.45 0"/>
<feBlend mode="normal" in2="BackgroundImageFix" result="effect1_dropShadow_1_185837"/>
<feBlend mode="normal" in="SourceGraphic" in2="effect1_dropShadow_1_185837" result="shape"/>
</filter>
<filter id="filter7_d_1_185837" x="998" y="163" width="16" height="16" filterUnits="userSpaceOnUse" color-interpolation-filters="sRGB">
<feFlood flood-opacity="0" result="BackgroundImageFix"/>
<feColorMatrix in="SourceAlpha" type="matrix" values="0 0 0 0 0 0 0 0 0 0 0 0 0 0 0 0 0 0 127 0" result="hardAlpha"/>
<feOffset dy="2"/>
<feGaussianBlur stdDeviation="2"/>
<feColorMatrix type="matrix" values="0 0 0 0 0 0 0 0 0 0 0 0 0 0 0 0 0 0 0.45 0"/>
<feBlend mode="normal" in2="BackgroundImageFix" result="effect1_dropShadow_1_185837"/>
<feBlend mode="normal" in="SourceGraphic" in2="effect1_dropShadow_1_185837" result="shape"/>
</filter>
<linearGradient id="paint0_linear_1_185837" x1="135.057" y1="108.18" x2="135.057" y2="202.438" gradientUnits="userSpaceOnUse">
<stop stop-color="#FFB039"/>
<stop offset="1" stop-color="#FF10CA"/>
</linearGradient>
<linearGradient id="paint1_linear_1_185837" x1="582.198" y1="108.18" x2="582.198" y2="202.438" gradientUnits="userSpaceOnUse">
<stop stop-color="#FFB039"/>
<stop offset="1" stop-color="#FF10CA"/>
</linearGradient>
<linearGradient id="paint2_linear_1_185837" x1="949.198" y1="70" x2="949.198" y2="164.258" gradientUnits="userSpaceOnUse">
<stop stop-color="#FFB039"/>
<stop offset="1" stop-color="#FF10CA"/>
</linearGradient>
</defs>
</svg>
