<svg width="1365" height="257" viewBox="0 0 1365 257" fill="none" xmlns="http://www.w3.org/2000/svg">
<g filter="url(#filter0_d_1_185839)">
<rect x="8" y="45" width="300" height="200" fill="white"/>
</g>
<g filter="url(#filter1_d_1_185839)">
<rect x="353" y="45" width="300" height="200" fill="white"/>
</g>
<g filter="url(#filter2_d_1_185839)">
<rect x="702" y="45" width="300" height="200" fill="white"/>
</g>
<g filter="url(#filter3_d_1_185839)">
<rect x="1053" y="45" width="300" height="200" fill="white"/>
</g>
<g clip-path="url(#clip0_1_185839)">
<rect x="8" y="45" width="240" height="150" rx="10" fill="#BDC7FF"/>
<rect x="108" y="105" width="96" height="96" fill="#1C66BC" stroke="#FE8989" stroke-width="8"/>
<ellipse cx="167" cy="95" rx="55" ry="30" fill="#FFD978"/>
<circle cx="93" cy="130" r="55" fill="#E62B2B"/>
</g>
<rect x="8" y="45" width="240" height="150" rx="10" stroke="#4618FF" stroke-width="4"/>
<g clip-path="url(#clip1_1_185839)">
<rect x="353" y="45" width="240" height="150" rx="10" fill="#BDC7FF"/>
<rect x="453" y="105" width="96" height="96" fill="#1C66BC" stroke="#FE8989" stroke-width="8"/>
<ellipse cx="512" cy="95" rx="55" ry="30" fill="#FFD978"/>
<circle cx="438" cy="130" r="55" fill="#E62B2B"/>
</g>
<rect x="353" y="45" width="240" height="150" rx="10" stroke="#4618FF" stroke-width="4"/>
<g clip-path="url(#clip2_1_185839)">
<rect x="702" y="45" width="270" height="175" rx="30" fill="#7CFFC8"/>
<rect x="802" y="105" width="96" height="96" fill="#1C66BC" stroke="#FE8989" stroke-width="8"/>
<ellipse cx="861" cy="95" rx="55" ry="30" fill="#FFD978"/>
<circle cx="837" cy="30" r="55" fill="#E62B2B"/>
<path d="M835.25 128.902V126.5C835.25 125.534 836.034 124.75 837 124.75C837.966 124.75 838.75 125.534 838.75 126.5V128.902C839.554 129.294 840.206 129.946 840.598 130.75H843C843.966 130.75 844.75 131.534 844.75 132.5C844.75 133.466 843.966 134.25 843 134.25H840.598C840.206 135.054 839.554 135.706 838.75 136.098V138.5C838.75 139.466 837.966 140.25 837 140.25C836.034 140.25 835.25 139.466 835.25 138.5V136.098C834.446 135.706 833.794 135.054 833.402 134.25H831C830.034 134.25 829.25 133.466 829.25 132.5C829.25 131.534 830.034 130.75 831 130.75H833.402C833.794 129.946 834.446 129.294 835.25 128.902Z" fill="white"/>
<path fill-rule="evenodd" clip-rule="evenodd" d="M837 125.75C837.414 125.75 837.75 126.086 837.75 126.5V129.595C838.804 129.866 839.634 130.696 839.905 131.75H843C843.414 131.75 843.75 132.086 843.75 132.5C843.75 132.914 843.414 133.25 843 133.25H839.905C839.634 134.304 838.804 135.134 837.75 135.405V138.5C837.75 138.914 837.414 139.25 837 139.25C836.586 139.25 836.25 138.914 836.25 138.5V135.405C835.196 135.134 834.366 134.304 834.095 133.25H831C830.586 133.25 830.25 132.914 830.25 132.5C830.25 132.086 830.586 131.75 831 131.75H834.095C834.366 130.696 835.196 129.866 836.25 129.595V126.5C836.25 126.086 836.586 125.75 837 125.75ZM838.5 132.5C838.5 133.328 837.828 134 837 134C836.172 134 835.5 133.328 835.5 132.5C835.5 131.672 836.172 131 837 131C837.828 131 838.5 131.672 838.5 132.5Z" fill="#1C6EE8"/>
</g>
<rect x="702" y="45" width="270" height="175" rx="30" stroke="#4618FF" stroke-width="4"/>
<g clip-path="url(#clip3_1_185839)">
<rect x="1053" y="45" width="300" height="200" rx="30" fill="#7CFFC8"/>
<rect x="1153" y="105" width="96" height="96" fill="#1C66BC" stroke="#FE8989" stroke-width="8"/>
<ellipse cx="1212" cy="95" rx="55" ry="30" fill="#FFD978"/>
<circle cx="1188" cy="30" r="55" fill="#E62B2B"/>
</g>
<rect x="1053" y="45" width="300" height="200" rx="30" stroke="#4618FF" stroke-width="4"/>
<rect x="8" y="45" width="240" height="150" stroke="#1C6EE8"/>
<g filter="url(#filter4_d_1_185839)">
<rect x="4" y="41" width="8" height="8" fill="white"/>
<rect x="4.5" y="41.5" width="7" height="7" stroke="#1C6EE8"/>
</g>
<g filter="url(#filter5_d_1_185839)">
<rect x="4" y="191" width="8" height="8" fill="white"/>
<rect x="4.5" y="191.5" width="7" height="7" stroke="#1C6EE8"/>
</g>
<g filter="url(#filter6_d_1_185839)">
<rect x="244" y="41" width="8" height="8" fill="white"/>
<rect x="244.5" y="41.5" width="7" height="7" stroke="#1C6EE8"/>
</g>
<g filter="url(#filter7_d_1_185839)">
<rect x="244" y="191" width="8" height="8" fill="white"/>
<rect x="244.5" y="191.5" width="7" height="7" stroke="#1C6EE8"/>
</g>
<rect x="353" y="45" width="240" height="150" stroke="#1C6EE8"/>
<g filter="url(#filter8_d_1_185839)">
<rect x="349" y="41" width="8" height="8" fill="white"/>
<rect x="349.5" y="41.5" width="7" height="7" stroke="#1C6EE8"/>
</g>
<g filter="url(#filter9_d_1_185839)">
<rect x="349" y="191" width="8" height="8" fill="white"/>
<rect x="349.5" y="191.5" width="7" height="7" stroke="#1C6EE8"/>
</g>
<g filter="url(#filter10_d_1_185839)">
<rect x="589" y="41" width="8" height="8" fill="white"/>
<rect x="589.5" y="41.5" width="7" height="7" stroke="#1C6EE8"/>
</g>
<g filter="url(#filter11_d_1_185839)">
<rect x="589" y="191" width="8" height="8" fill="white"/>
<rect x="589.5" y="191.5" width="7" height="7" stroke="#1C6EE8"/>
</g>
<rect x="702" y="45" width="270" height="175" stroke="#1C6EE8"/>
<g filter="url(#filter12_d_1_185839)">
<rect x="698" y="41" width="8" height="8" fill="white"/>
<rect x="698.5" y="41.5" width="7" height="7" stroke="#1C6EE8"/>
</g>
<g filter="url(#filter13_d_1_185839)">
<rect x="698" y="216" width="8" height="8" fill="white"/>
<rect x="698.5" y="216.5" width="7" height="7" stroke="#1C6EE8"/>
</g>
<g filter="url(#filter14_d_1_185839)">
<rect x="968" y="41" width="8" height="8" fill="white"/>
<rect x="968.5" y="41.5" width="7" height="7" stroke="#1C6EE8"/>
</g>
<g filter="url(#filter15_d_1_185839)">
<rect x="968" y="216" width="8" height="8" fill="white"/>
<rect x="968.5" y="216.5" width="7" height="7" stroke="#1C6EE8"/>
</g>
<path d="M1201.25 141.402V139C1201.25 138.034 1202.03 137.25 1203 137.25C1203.97 137.25 1204.75 138.034 1204.75 139V141.402C1205.55 141.794 1206.21 142.446 1206.6 143.25H1209C1209.97 143.25 1210.75 144.034 1210.75 145C1210.75 145.966 1209.97 146.75 1209 146.75H1206.6C1206.21 147.554 1205.55 148.206 1204.75 148.598V151C1204.75 151.966 1203.97 152.75 1203 152.75C1202.03 152.75 1201.25 151.966 1201.25 151V148.598C1200.45 148.206 1199.79 147.554 1199.4 146.75H1197C1196.03 146.75 1195.25 145.966 1195.25 145C1195.25 144.034 1196.03 143.25 1197 143.25H1199.4C1199.79 142.446 1200.45 141.794 1201.25 141.402Z" fill="white"/>
<path fill-rule="evenodd" clip-rule="evenodd" d="M1203 138.25C1203.41 138.25 1203.75 138.586 1203.75 139V142.095C1204.8 142.366 1205.63 143.196 1205.91 144.25H1209C1209.41 144.25 1209.75 144.586 1209.75 145C1209.75 145.414 1209.41 145.75 1209 145.75H1205.91C1205.63 146.804 1204.8 147.634 1203.75 147.905V151C1203.75 151.414 1203.41 151.75 1203 151.75C1202.59 151.75 1202.25 151.414 1202.25 151V147.905C1201.2 147.634 1200.37 146.804 1200.09 145.75H1197C1196.59 145.75 1196.25 145.414 1196.25 145C1196.25 144.586 1196.59 144.25 1197 144.25H1200.09C1200.37 143.196 1201.2 142.366 1202.25 142.095V139C1202.25 138.586 1202.59 138.25 1203 138.25ZM1204.5 145C1204.5 145.828 1203.83 146.5 1203 146.5C1202.17 146.5 1201.5 145.828 1201.5 145C1201.5 144.172 1202.17 143.5 1203 143.5C1203.83 143.5 1204.5 144.172 1204.5 145Z" fill="#1C6EE8"/>
<rect x="1053" y="45" width="300" height="200" stroke="#1C6EE8"/>
<g filter="url(#filter16_d_1_185839)">
<rect x="1049" y="41" width="8" height="8" fill="white"/>
<rect x="1049.5" y="41.5" width="7" height="7" stroke="#1C6EE8"/>
</g>
<g filter="url(#filter17_d_1_185839)">
<rect x="1049" y="241" width="8" height="8" fill="white"/>
<rect x="1049.5" y="241.5" width="7" height="7" stroke="#1C6EE8"/>
</g>
<g filter="url(#filter18_d_1_185839)">
<rect x="1349" y="41" width="8" height="8" fill="white"/>
<rect x="1349.5" y="41.5" width="7" height="7" stroke="#1C6EE8"/>
</g>
<g filter="url(#filter19_d_1_185839)">
<rect x="1349" y="241" width="8" height="8" fill="white"/>
<rect x="1349.5" y="241.5" width="7" height="7" stroke="#1C6EE8"/>
</g>
<path d="M126.25 116.402V114C126.25 113.034 127.034 112.25 128 112.25C128.966 112.25 129.75 113.034 129.75 114V116.402C130.554 116.794 131.206 117.446 131.598 118.25H134C134.966 118.25 135.75 119.034 135.75 120C135.75 120.966 134.966 121.75 134 121.75H131.598C131.206 122.554 130.554 123.206 129.75 123.598V126C129.75 126.966 128.966 127.75 128 127.75C127.034 127.75 126.25 126.966 126.25 126V123.598C125.446 123.206 124.794 122.554 124.402 121.75H122C121.034 121.75 120.25 120.966 120.25 120C120.25 119.034 121.034 118.25 122 118.25H124.402C124.794 117.446 125.446 116.794 126.25 116.402Z" fill="white"/>
<path fill-rule="evenodd" clip-rule="evenodd" d="M128 113.25C128.414 113.25 128.75 113.586 128.75 114V117.095C129.804 117.366 130.634 118.196 130.905 119.25H134C134.414 119.25 134.75 119.586 134.75 120C134.75 120.414 134.414 120.75 134 120.75H130.905C130.634 121.804 129.804 122.634 128.75 122.905V126C128.75 126.414 128.414 126.75 128 126.75C127.586 126.75 127.25 126.414 127.25 126V122.905C126.196 122.634 125.366 121.804 125.095 120.75H122C121.586 120.75 121.25 120.414 121.25 120C121.25 119.586 121.586 119.25 122 119.25H125.095C125.366 118.196 126.196 117.366 127.25 117.095V114C127.25 113.586 127.586 113.25 128 113.25ZM129.5 120C129.5 120.828 128.828 121.5 128 121.5C127.172 121.5 126.5 120.828 126.5 120C126.5 119.172 127.172 118.5 128 118.5C128.828 118.5 129.5 119.172 129.5 120Z" fill="#1C6EE8"/>
<path d="M471.25 116.402V114C471.25 113.034 472.034 112.25 473 112.25C473.966 112.25 474.75 113.034 474.75 114V116.402C475.554 116.794 476.206 117.446 476.598 118.25H479C479.966 118.25 480.75 119.034 480.75 120C480.75 120.966 479.966 121.75 479 121.75H476.598C476.206 122.554 475.554 123.206 474.75 123.598V126C474.75 126.966 473.966 127.75 473 127.75C472.034 127.75 471.25 126.966 471.25 126V123.598C470.446 123.206 469.794 122.554 469.402 121.75H467C466.034 121.75 465.25 120.966 465.25 120C465.25 119.034 466.034 118.25 467 118.25H469.402C469.794 117.446 470.446 116.794 471.25 116.402Z" fill="white"/>
<path fill-rule="evenodd" clip-rule="evenodd" d="M473 113.25C473.414 113.25 473.75 113.586 473.75 114V117.095C474.804 117.366 475.634 118.196 475.905 119.25H479C479.414 119.25 479.75 119.586 479.75 120C479.75 120.414 479.414 120.75 479 120.75H475.905C475.634 121.804 474.804 122.634 473.75 122.905V126C473.75 126.414 473.414 126.75 473 126.75C472.586 126.75 472.25 126.414 472.25 126V122.905C471.196 122.634 470.366 121.804 470.095 120.75H467C466.586 120.75 466.25 120.414 466.25 120C466.25 119.586 466.586 119.25 467 119.25H470.095C470.366 118.196 471.196 117.366 472.25 117.095V114C472.25 113.586 472.586 113.25 473 113.25ZM474.5 120C474.5 120.828 473.828 121.5 473 121.5C472.172 121.5 471.5 120.828 471.5 120C471.5 119.172 472.172 118.5 473 118.5C473.828 118.5 474.5 119.172 474.5 120Z" fill="#1C6EE8"/>
<path d="M1201.25 141.402V139C1201.25 138.034 1202.03 137.25 1203 137.25C1203.97 137.25 1204.75 138.034 1204.75 139V141.402C1205.55 141.794 1206.21 142.446 1206.6 143.25H1209C1209.97 143.25 1210.75 144.034 1210.75 145C1210.75 145.966 1209.97 146.75 1209 146.75H1206.6C1206.21 147.554 1205.55 148.206 1204.75 148.598V151C1204.75 151.966 1203.97 152.75 1203 152.75C1202.03 152.75 1201.25 151.966 1201.25 151V148.598C1200.45 148.206 1199.79 147.554 1199.4 146.75H1197C1196.03 146.75 1195.25 145.966 1195.25 145C1195.25 144.034 1196.03 143.25 1197 143.25H1199.4C1199.79 142.446 1200.45 141.794 1201.25 141.402Z" fill="white"/>
<path fill-rule="evenodd" clip-rule="evenodd" d="M1203 138.25C1203.41 138.25 1203.75 138.586 1203.75 139V142.095C1204.8 142.366 1205.63 143.196 1205.91 144.25H1209C1209.41 144.25 1209.75 144.586 1209.75 145C1209.75 145.414 1209.41 145.75 1209 145.75H1205.91C1205.63 146.804 1204.8 147.634 1203.75 147.905V151C1203.75 151.414 1203.41 151.75 1203 151.75C1202.59 151.75 1202.25 151.414 1202.25 151V147.905C1201.2 147.634 1200.37 146.804 1200.09 145.75H1197C1196.59 145.75 1196.25 145.414 1196.25 145C1196.25 144.586 1196.59 144.25 1197 144.25H1200.09C1200.37 143.196 1201.2 142.366 1202.25 142.095V139C1202.25 138.586 1202.59 138.25 1203 138.25ZM1204.5 145C1204.5 145.828 1203.83 146.5 1203 146.5C1202.17 146.5 1201.5 145.828 1201.5 145C1201.5 144.172 1202.17 143.5 1203 143.5C1203.83 143.5 1204.5 144.172 1204.5 145Z" fill="#1C6EE8"/>
<path opacity="0.4" d="M10.1364 15H6.01136V3.36364H10.1705C11.3409 3.36364 12.3485 3.59659 13.1932 4.0625C14.0379 4.52462 14.6875 5.18939 15.142 6.05682C15.6004 6.92424 15.8295 7.96212 15.8295 9.17045C15.8295 10.3826 15.6004 11.4242 15.142 12.2955C14.6875 13.1667 14.0341 13.8352 13.1818 14.3011C12.3333 14.767 11.3182 15 10.1364 15ZM8.47159 12.892H10.0341C10.7614 12.892 11.3731 12.7633 11.8693 12.5057C12.3693 12.2443 12.7443 11.8409 12.9943 11.2955C13.2481 10.7462 13.375 10.0379 13.375 9.17045C13.375 8.31061 13.2481 7.60795 12.9943 7.0625C12.7443 6.51705 12.3712 6.11553 11.875 5.85795C11.3788 5.60038 10.767 5.47159 10.0398 5.47159H8.47159V12.892ZM21.5838 15.1705C20.6861 15.1705 19.9134 14.9886 19.2656 14.625C18.6217 14.2576 18.1255 13.7386 17.777 13.0682C17.4285 12.3939 17.2543 11.5966 17.2543 10.6761C17.2543 9.77841 17.4285 8.99053 17.777 8.3125C18.1255 7.63447 18.616 7.10606 19.2486 6.72727C19.8849 6.34848 20.6312 6.15909 21.4872 6.15909C22.063 6.15909 22.599 6.25189 23.0952 6.4375C23.5952 6.61932 24.0308 6.89394 24.402 7.26136C24.777 7.62879 25.0687 8.09091 25.277 8.64773C25.4853 9.20076 25.5895 9.84848 25.5895 10.5909V11.2557H18.2202V9.75568H23.3111C23.3111 9.4072 23.2353 9.09848 23.0838 8.82955C22.9323 8.56061 22.7221 8.35038 22.4531 8.19886C22.188 8.04356 21.8793 7.96591 21.527 7.96591C21.1596 7.96591 20.8338 8.05114 20.5497 8.22159C20.2694 8.38826 20.0497 8.61364 19.8906 8.89773C19.7315 9.17803 19.6501 9.49053 19.6463 9.83523V11.2614C19.6463 11.6932 19.7259 12.0663 19.8849 12.3807C20.0478 12.6951 20.277 12.9375 20.5724 13.108C20.8679 13.2784 21.2183 13.3636 21.6236 13.3636C21.8925 13.3636 22.1387 13.3258 22.3622 13.25C22.5857 13.1742 22.777 13.0606 22.9361 12.9091C23.0952 12.7576 23.2164 12.572 23.2997 12.3523L25.5384 12.5C25.4247 13.0379 25.1918 13.5076 24.8395 13.9091C24.491 14.3068 24.0402 14.6174 23.4872 14.8409C22.938 15.0606 22.3035 15.1705 21.5838 15.1705ZM34.4304 8.76136L32.2145 8.89773C32.1766 8.70833 32.0952 8.53788 31.9702 8.38636C31.8452 8.23106 31.6804 8.10795 31.4759 8.01705C31.2751 7.92235 31.0346 7.875 30.7543 7.875C30.3793 7.875 30.063 7.95455 29.8054 8.11364C29.5478 8.26894 29.419 8.47727 29.419 8.73864C29.419 8.94697 29.5024 9.12311 29.669 9.26705C29.8357 9.41098 30.1217 9.52652 30.527 9.61364L32.1065 9.93182C32.955 10.1061 33.5876 10.3864 34.0043 10.7727C34.4209 11.1591 34.6293 11.6667 34.6293 12.2955C34.6293 12.8674 34.4607 13.3693 34.1236 13.8011C33.7902 14.233 33.3319 14.5701 32.7486 14.8125C32.169 15.0511 31.5005 15.1705 30.7429 15.1705C29.5876 15.1705 28.6671 14.9299 27.9815 14.4489C27.2997 13.964 26.9001 13.3049 26.7827 12.4716L29.1634 12.3466C29.2353 12.6989 29.4096 12.9678 29.6861 13.1534C29.9626 13.3352 30.3168 13.4261 30.7486 13.4261C31.1728 13.4261 31.5137 13.3447 31.7713 13.1818C32.0327 13.0152 32.1652 12.8011 32.169 12.5398C32.1652 12.3201 32.0724 12.1402 31.8906 12C31.7088 11.8561 31.4285 11.7462 31.0497 11.6705L29.5384 11.3693C28.6861 11.1989 28.0516 10.9034 27.6349 10.483C27.2221 10.0625 27.0156 9.52652 27.0156 8.875C27.0156 8.31439 27.1671 7.83144 27.4702 7.42614C27.777 7.02083 28.2069 6.70833 28.7599 6.48864C29.3168 6.26894 29.9683 6.15909 30.7145 6.15909C31.8168 6.15909 32.6842 6.39205 33.3168 6.85795C33.9531 7.32386 34.3243 7.95833 34.4304 8.76136ZM36.1534 15V6.27273H38.5739V15H36.1534ZM37.3693 5.14773C37.0095 5.14773 36.7008 5.02841 36.4432 4.78977C36.1894 4.54735 36.0625 4.25758 36.0625 3.92045C36.0625 3.58712 36.1894 3.30114 36.4432 3.0625C36.7008 2.82008 37.0095 2.69886 37.3693 2.69886C37.7292 2.69886 38.036 2.82008 38.2898 3.0625C38.5473 3.30114 38.6761 3.58712 38.6761 3.92045C38.6761 4.25758 38.5473 4.54735 38.2898 4.78977C38.036 5.02841 37.7292 5.14773 37.3693 5.14773ZM44.4446 18.4545C43.6605 18.4545 42.9882 18.3466 42.4276 18.1307C41.8707 17.9186 41.4276 17.6288 41.098 17.2614C40.7685 16.8939 40.5545 16.4811 40.456 16.0227L42.6946 15.7216C42.7628 15.8958 42.8707 16.0587 43.0185 16.2102C43.1662 16.3617 43.3613 16.483 43.6037 16.5739C43.8499 16.6686 44.1491 16.7159 44.5014 16.7159C45.0279 16.7159 45.4616 16.5871 45.8026 16.3295C46.1473 16.0758 46.3196 15.6496 46.3196 15.0511V13.4545H46.2173C46.1113 13.697 45.9522 13.9261 45.7401 14.142C45.5279 14.358 45.2552 14.5341 44.9219 14.6705C44.5885 14.8068 44.1908 14.875 43.7287 14.875C43.0734 14.875 42.4768 14.7235 41.9389 14.4205C41.4048 14.1136 40.9787 13.6458 40.6605 13.017C40.3461 12.3845 40.1889 11.5852 40.1889 10.6193C40.1889 9.63068 40.3499 8.80492 40.6719 8.14205C40.9938 7.47917 41.4219 6.98295 41.956 6.65341C42.4938 6.32386 43.0829 6.15909 43.723 6.15909C44.2116 6.15909 44.6207 6.24242 44.9503 6.40909C45.2798 6.57197 45.545 6.77652 45.7457 7.02273C45.9503 7.26515 46.1075 7.50379 46.2173 7.73864H46.3082V6.27273H48.7116V15.0852C48.7116 15.8277 48.5298 16.4489 48.1662 16.9489C47.8026 17.4489 47.2988 17.8239 46.6548 18.0739C46.0147 18.3277 45.2779 18.4545 44.4446 18.4545ZM44.4957 13.0568C44.8859 13.0568 45.2154 12.9602 45.4844 12.767C45.7571 12.5701 45.9654 12.2898 46.1094 11.9261C46.2571 11.5587 46.331 11.1193 46.331 10.608C46.331 10.0966 46.259 9.65341 46.1151 9.27841C45.9711 8.89962 45.7628 8.60606 45.4901 8.39773C45.2173 8.18939 44.8859 8.08523 44.4957 8.08523C44.098 8.08523 43.7628 8.19318 43.4901 8.40909C43.2173 8.62121 43.0109 8.91667 42.8707 9.29545C42.7306 9.67424 42.6605 10.1117 42.6605 10.608C42.6605 11.1117 42.7306 11.5473 42.8707 11.9148C43.0147 12.2784 43.2211 12.5606 43.4901 12.7614C43.7628 12.9583 44.098 13.0568 44.4957 13.0568ZM53.0582 9.95455V15H50.6378V6.27273H52.9446V7.8125H53.0469C53.2401 7.30492 53.5639 6.90341 54.0185 6.60795C54.473 6.30871 55.0241 6.15909 55.6719 6.15909C56.2779 6.15909 56.8063 6.29167 57.2571 6.55682C57.7079 6.82197 58.0582 7.20076 58.3082 7.69318C58.5582 8.18182 58.6832 8.76515 58.6832 9.44318V15H56.2628V9.875C56.2666 9.34091 56.1302 8.92424 55.8537 8.625C55.5772 8.32197 55.1965 8.17045 54.7116 8.17045C54.3859 8.17045 54.098 8.24053 53.848 8.38068C53.6018 8.52083 53.4086 8.72538 53.2685 8.99432C53.1321 9.25947 53.062 9.57955 53.0582 9.95455ZM64.3395 3.36364H67.3736L70.5781 11.1818H70.7145L73.919 3.36364H76.9531V15H74.5668V7.42614H74.4702L71.4588 14.9432H69.8338L66.8224 7.39773H66.7259V15H64.3395V3.36364ZM82.8778 15.1705C81.9953 15.1705 81.232 14.983 80.5881 14.608C79.9479 14.2292 79.4536 13.7027 79.1051 13.0284C78.7566 12.3504 78.5824 11.5644 78.5824 10.6705C78.5824 9.76894 78.7566 8.98106 79.1051 8.30682C79.4536 7.62879 79.9479 7.10227 80.5881 6.72727C81.232 6.34848 81.9953 6.15909 82.8778 6.15909C83.7604 6.15909 84.5218 6.34848 85.1619 6.72727C85.8059 7.10227 86.3021 7.62879 86.6506 8.30682C86.9991 8.98106 87.1733 9.76894 87.1733 10.6705C87.1733 11.5644 86.9991 12.3504 86.6506 13.0284C86.3021 13.7027 85.8059 14.2292 85.1619 14.608C84.5218 14.983 83.7604 15.1705 82.8778 15.1705ZM82.8892 13.2955C83.2907 13.2955 83.6259 13.1818 83.8949 12.9545C84.1638 12.7235 84.3665 12.4091 84.5028 12.0114C84.643 11.6136 84.7131 11.161 84.7131 10.6534C84.7131 10.1458 84.643 9.69318 84.5028 9.29545C84.3665 8.89773 84.1638 8.58333 83.8949 8.35227C83.6259 8.12121 83.2907 8.00568 82.8892 8.00568C82.4839 8.00568 82.143 8.12121 81.8665 8.35227C81.5938 8.58333 81.3873 8.89773 81.2472 9.29545C81.1108 9.69318 81.0426 10.1458 81.0426 10.6534C81.0426 11.161 81.1108 11.6136 81.2472 12.0114C81.3873 12.4091 81.5938 12.7235 81.8665 12.9545C82.143 13.1818 82.4839 13.2955 82.8892 13.2955ZM91.9631 15.142C91.3002 15.142 90.6998 14.9716 90.1619 14.6307C89.6278 14.286 89.2036 13.7803 88.8892 13.1136C88.5786 12.4432 88.4233 11.6212 88.4233 10.6477C88.4233 9.64773 88.5843 8.81629 88.9062 8.15341C89.2282 7.48674 89.6563 6.98864 90.1903 6.65909C90.7282 6.32576 91.3172 6.15909 91.9574 6.15909C92.446 6.15909 92.8532 6.24242 93.179 6.40909C93.5085 6.57197 93.7737 6.77652 93.9744 7.02273C94.179 7.26515 94.3343 7.50379 94.4403 7.73864H94.5142V3.36364H96.929V15H94.5426V13.6023H94.4403C94.3267 13.8447 94.1657 14.0852 93.9574 14.3239C93.7528 14.5587 93.4858 14.7538 93.1562 14.9091C92.8305 15.0644 92.4328 15.142 91.9631 15.142ZM92.7301 13.2159C93.1203 13.2159 93.4498 13.1098 93.7188 12.8977C93.9915 12.6818 94.1998 12.3807 94.3438 11.9943C94.4915 11.608 94.5653 11.1553 94.5653 10.6364C94.5653 10.1174 94.4934 9.66667 94.3494 9.28409C94.2055 8.90151 93.9972 8.60606 93.7244 8.39773C93.4517 8.18939 93.1203 8.08523 92.7301 8.08523C92.3324 8.08523 91.9972 8.19318 91.7244 8.40909C91.4517 8.625 91.2453 8.92424 91.1051 9.30682C90.965 9.68939 90.8949 10.1326 90.8949 10.6364C90.8949 11.1439 90.965 11.5928 91.1051 11.983C91.2491 12.3693 91.4555 12.6723 91.7244 12.892C91.9972 13.108 92.3324 13.2159 92.7301 13.2159ZM102.896 15.1705C101.999 15.1705 101.226 14.9886 100.578 14.625C99.9342 14.2576 99.438 13.7386 99.0895 13.0682C98.741 12.3939 98.5668 11.5966 98.5668 10.6761C98.5668 9.77841 98.741 8.99053 99.0895 8.3125C99.438 7.63447 99.9285 7.10606 100.561 6.72727C101.197 6.34848 101.944 6.15909 102.8 6.15909C103.375 6.15909 103.911 6.25189 104.408 6.4375C104.908 6.61932 105.343 6.89394 105.714 7.26136C106.089 7.62879 106.381 8.09091 106.589 8.64773C106.798 9.20076 106.902 9.84848 106.902 10.5909V11.2557H99.5327V9.75568H104.624C104.624 9.4072 104.548 9.09848 104.396 8.82955C104.245 8.56061 104.035 8.35038 103.766 8.19886C103.5 8.04356 103.192 7.96591 102.839 7.96591C102.472 7.96591 102.146 8.05114 101.862 8.22159C101.582 8.38826 101.362 8.61364 101.203 8.89773C101.044 9.17803 100.963 9.49053 100.959 9.83523V11.2614C100.959 11.6932 101.038 12.0663 101.197 12.3807C101.36 12.6951 101.589 12.9375 101.885 13.108C102.18 13.2784 102.531 13.3636 102.936 13.3636C103.205 13.3636 103.451 13.3258 103.675 13.25C103.898 13.1742 104.089 13.0606 104.249 12.9091C104.408 12.7576 104.529 12.572 104.612 12.3523L106.851 12.5C106.737 13.0379 106.504 13.5076 106.152 13.9091C105.804 14.3068 105.353 14.6174 104.8 14.8409C104.25 15.0606 103.616 15.1705 102.896 15.1705Z" fill="black"/>
<path opacity="0.4" d="M353.568 5.39205V3.36364H363.125V5.39205H359.562V15H357.131V5.39205H353.568ZM369.193 15.2557C368.216 15.2519 367.375 15.0114 366.67 14.5341C365.97 14.0568 365.43 13.3655 365.051 12.4602C364.676 11.5549 364.491 10.4659 364.494 9.19318C364.494 7.92424 364.682 6.8428 365.057 5.94886C365.436 5.05492 365.975 4.375 366.676 3.90909C367.381 3.43939 368.22 3.20455 369.193 3.20455C370.167 3.20455 371.004 3.43939 371.705 3.90909C372.409 4.37879 372.951 5.06061 373.33 5.95455C373.708 6.8447 373.896 7.92424 373.892 9.19318C373.892 10.4697 373.703 11.5606 373.324 12.4659C372.949 13.3712 372.411 14.0625 371.71 14.5398C371.009 15.017 370.17 15.2557 369.193 15.2557ZM369.193 13.2159C369.86 13.2159 370.392 12.8807 370.79 12.2102C371.188 11.5398 371.384 10.5341 371.381 9.19318C371.381 8.31061 371.29 7.57576 371.108 6.98864C370.93 6.40151 370.676 5.96023 370.347 5.66477C370.021 5.36932 369.636 5.22159 369.193 5.22159C368.53 5.22159 368 5.55303 367.602 6.21591C367.205 6.87879 367.004 7.87121 367 9.19318C367 10.0871 367.089 10.8333 367.267 11.4318C367.449 12.0265 367.705 12.4735 368.034 12.7727C368.364 13.0682 368.75 13.2159 369.193 13.2159Z" fill="black"/>
<path opacity="0.4" d="M702.568 5.39205V3.36364H712.125V5.39205H708.562V15H706.131V5.39205H702.568ZM718.693 3.36364V15H716.233V5.69886H716.165L713.5 7.36932V5.1875L716.381 3.36364H718.693Z" fill="black"/>
<path opacity="0.4" d="M1051.57 5.39205V3.36364H1061.12V5.39205H1057.56V15H1055.13V5.39205H1051.57ZM1062.63 15V13.2273L1066.77 9.39205C1067.13 9.05114 1067.42 8.74432 1067.66 8.47159C1067.9 8.19886 1068.09 7.93182 1068.21 7.67045C1068.34 7.4053 1068.4 7.11932 1068.4 6.8125C1068.4 6.47159 1068.32 6.17803 1068.16 5.93182C1068.01 5.68182 1067.8 5.49053 1067.53 5.35795C1067.26 5.22159 1066.95 5.15341 1066.61 5.15341C1066.26 5.15341 1065.95 5.22538 1065.68 5.36932C1065.42 5.51326 1065.21 5.7197 1065.07 5.98864C1064.92 6.25758 1064.85 6.57765 1064.85 6.94886H1062.52C1062.52 6.1875 1062.69 5.52652 1063.03 4.96591C1063.38 4.4053 1063.86 3.97159 1064.48 3.66477C1065.1 3.35795 1065.82 3.20455 1066.63 3.20455C1067.46 3.20455 1068.19 3.35227 1068.81 3.64773C1069.43 3.93939 1069.91 4.3447 1070.26 4.86364C1070.6 5.38258 1070.77 5.97727 1070.77 6.64773C1070.77 7.08712 1070.69 7.52083 1070.51 7.94886C1070.34 8.37689 1070.04 8.85227 1069.6 9.375C1069.16 9.89394 1068.54 10.517 1067.74 11.2443L1066.04 12.9091V12.9886H1070.93V15H1062.63Z" fill="black"/>
<defs>
<filter id="filter0_d_1_185839" x="0" y="37" width="320" height="220" filterUnits="userSpaceOnUse" color-interpolation-filters="sRGB">
<feFlood flood-opacity="0" result="BackgroundImageFix"/>
<feColorMatrix in="SourceAlpha" type="matrix" values="0 0 0 0 0 0 0 0 0 0 0 0 0 0 0 0 0 0 127 0" result="hardAlpha"/>
<feOffset dx="2" dy="2"/>
<feGaussianBlur stdDeviation="5"/>
<feComposite in2="hardAlpha" operator="out"/>
<feColorMatrix type="matrix" values="0 0 0 0 0 0 0 0 0 0 0 0 0 0 0 0 0 0 0.25 0"/>
<feBlend mode="normal" in2="BackgroundImageFix" result="effect1_dropShadow_1_185839"/>
<feBlend mode="normal" in="SourceGraphic" in2="effect1_dropShadow_1_185839" result="shape"/>
</filter>
<filter id="filter1_d_1_185839" x="345" y="37" width="320" height="220" filterUnits="userSpaceOnUse" color-interpolation-filters="sRGB">
<feFlood flood-opacity="0" result="BackgroundImageFix"/>
<feColorMatrix in="SourceAlpha" type="matrix" values="0 0 0 0 0 0 0 0 0 0 0 0 0 0 0 0 0 0 127 0" result="hardAlpha"/>
<feOffset dx="2" dy="2"/>
<feGaussianBlur stdDeviation="5"/>
<feComposite in2="hardAlpha" operator="out"/>
<feColorMatrix type="matrix" values="0 0 0 0 0 0 0 0 0 0 0 0 0 0 0 0 0 0 0.25 0"/>
<feBlend mode="normal" in2="BackgroundImageFix" result="effect1_dropShadow_1_185839"/>
<feBlend mode="normal" in="SourceGraphic" in2="effect1_dropShadow_1_185839" result="shape"/>
</filter>
<filter id="filter2_d_1_185839" x="694" y="37" width="320" height="220" filterUnits="userSpaceOnUse" color-interpolation-filters="sRGB">
<feFlood flood-opacity="0" result="BackgroundImageFix"/>
<feColorMatrix in="SourceAlpha" type="matrix" values="0 0 0 0 0 0 0 0 0 0 0 0 0 0 0 0 0 0 127 0" result="hardAlpha"/>
<feOffset dx="2" dy="2"/>
<feGaussianBlur stdDeviation="5"/>
<feComposite in2="hardAlpha" operator="out"/>
<feColorMatrix type="matrix" values="0 0 0 0 0 0 0 0 0 0 0 0 0 0 0 0 0 0 0.25 0"/>
<feBlend mode="normal" in2="BackgroundImageFix" result="effect1_dropShadow_1_185839"/>
<feBlend mode="normal" in="SourceGraphic" in2="effect1_dropShadow_1_185839" result="shape"/>
</filter>
<filter id="filter3_d_1_185839" x="1045" y="37" width="320" height="220" filterUnits="userSpaceOnUse" color-interpolation-filters="sRGB">
<feFlood flood-opacity="0" result="BackgroundImageFix"/>
<feColorMatrix in="SourceAlpha" type="matrix" values="0 0 0 0 0 0 0 0 0 0 0 0 0 0 0 0 0 0 127 0" result="hardAlpha"/>
<feOffset dx="2" dy="2"/>
<feGaussianBlur stdDeviation="5"/>
<feComposite in2="hardAlpha" operator="out"/>
<feColorMatrix type="matrix" values="0 0 0 0 0 0 0 0 0 0 0 0 0 0 0 0 0 0 0.25 0"/>
<feBlend mode="normal" in2="BackgroundImageFix" result="effect1_dropShadow_1_185839"/>
<feBlend mode="normal" in="SourceGraphic" in2="effect1_dropShadow_1_185839" result="shape"/>
</filter>
<filter id="filter4_d_1_185839" x="0" y="39" width="16" height="16" filterUnits="userSpaceOnUse" color-interpolation-filters="sRGB">
<feFlood flood-opacity="0" result="BackgroundImageFix"/>
<feColorMatrix in="SourceAlpha" type="matrix" values="0 0 0 0 0 0 0 0 0 0 0 0 0 0 0 0 0 0 127 0" result="hardAlpha"/>
<feOffset dy="2"/>
<feGaussianBlur stdDeviation="2"/>
<feColorMatrix type="matrix" values="0 0 0 0 0 0 0 0 0 0 0 0 0 0 0 0 0 0 0.45 0"/>
<feBlend mode="normal" in2="BackgroundImageFix" result="effect1_dropShadow_1_185839"/>
<feBlend mode="normal" in="SourceGraphic" in2="effect1_dropShadow_1_185839" result="shape"/>
</filter>
<filter id="filter5_d_1_185839" x="0" y="189" width="16" height="16" filterUnits="userSpaceOnUse" color-interpolation-filters="sRGB">
<feFlood flood-opacity="0" result="BackgroundImageFix"/>
<feColorMatrix in="SourceAlpha" type="matrix" values="0 0 0 0 0 0 0 0 0 0 0 0 0 0 0 0 0 0 127 0" result="hardAlpha"/>
<feOffset dy="2"/>
<feGaussianBlur stdDeviation="2"/>
<feColorMatrix type="matrix" values="0 0 0 0 0 0 0 0 0 0 0 0 0 0 0 0 0 0 0.45 0"/>
<feBlend mode="normal" in2="BackgroundImageFix" result="effect1_dropShadow_1_185839"/>
<feBlend mode="normal" in="SourceGraphic" in2="effect1_dropShadow_1_185839" result="shape"/>
</filter>
<filter id="filter6_d_1_185839" x="240" y="39" width="16" height="16" filterUnits="userSpaceOnUse" color-interpolation-filters="sRGB">
<feFlood flood-opacity="0" result="BackgroundImageFix"/>
<feColorMatrix in="SourceAlpha" type="matrix" values="0 0 0 0 0 0 0 0 0 0 0 0 0 0 0 0 0 0 127 0" result="hardAlpha"/>
<feOffset dy="2"/>
<feGaussianBlur stdDeviation="2"/>
<feColorMatrix type="matrix" values="0 0 0 0 0 0 0 0 0 0 0 0 0 0 0 0 0 0 0.45 0"/>
<feBlend mode="normal" in2="BackgroundImageFix" result="effect1_dropShadow_1_185839"/>
<feBlend mode="normal" in="SourceGraphic" in2="effect1_dropShadow_1_185839" result="shape"/>
</filter>
<filter id="filter7_d_1_185839" x="240" y="189" width="16" height="16" filterUnits="userSpaceOnUse" color-interpolation-filters="sRGB">
<feFlood flood-opacity="0" result="BackgroundImageFix"/>
<feColorMatrix in="SourceAlpha" type="matrix" values="0 0 0 0 0 0 0 0 0 0 0 0 0 0 0 0 0 0 127 0" result="hardAlpha"/>
<feOffset dy="2"/>
<feGaussianBlur stdDeviation="2"/>
<feColorMatrix type="matrix" values="0 0 0 0 0 0 0 0 0 0 0 0 0 0 0 0 0 0 0.45 0"/>
<feBlend mode="normal" in2="BackgroundImageFix" result="effect1_dropShadow_1_185839"/>
<feBlend mode="normal" in="SourceGraphic" in2="effect1_dropShadow_1_185839" result="shape"/>
</filter>
<filter id="filter8_d_1_185839" x="345" y="39" width="16" height="16" filterUnits="userSpaceOnUse" color-interpolation-filters="sRGB">
<feFlood flood-opacity="0" result="BackgroundImageFix"/>
<feColorMatrix in="SourceAlpha" type="matrix" values="0 0 0 0 0 0 0 0 0 0 0 0 0 0 0 0 0 0 127 0" result="hardAlpha"/>
<feOffset dy="2"/>
<feGaussianBlur stdDeviation="2"/>
<feColorMatrix type="matrix" values="0 0 0 0 0 0 0 0 0 0 0 0 0 0 0 0 0 0 0.45 0"/>
<feBlend mode="normal" in2="BackgroundImageFix" result="effect1_dropShadow_1_185839"/>
<feBlend mode="normal" in="SourceGraphic" in2="effect1_dropShadow_1_185839" result="shape"/>
</filter>
<filter id="filter9_d_1_185839" x="345" y="189" width="16" height="16" filterUnits="userSpaceOnUse" color-interpolation-filters="sRGB">
<feFlood flood-opacity="0" result="BackgroundImageFix"/>
<feColorMatrix in="SourceAlpha" type="matrix" values="0 0 0 0 0 0 0 0 0 0 0 0 0 0 0 0 0 0 127 0" result="hardAlpha"/>
<feOffset dy="2"/>
<feGaussianBlur stdDeviation="2"/>
<feColorMatrix type="matrix" values="0 0 0 0 0 0 0 0 0 0 0 0 0 0 0 0 0 0 0.45 0"/>
<feBlend mode="normal" in2="BackgroundImageFix" result="effect1_dropShadow_1_185839"/>
<feBlend mode="normal" in="SourceGraphic" in2="effect1_dropShadow_1_185839" result="shape"/>
</filter>
<filter id="filter10_d_1_185839" x="585" y="39" width="16" height="16" filterUnits="userSpaceOnUse" color-interpolation-filters="sRGB">
<feFlood flood-opacity="0" result="BackgroundImageFix"/>
<feColorMatrix in="SourceAlpha" type="matrix" values="0 0 0 0 0 0 0 0 0 0 0 0 0 0 0 0 0 0 127 0" result="hardAlpha"/>
<feOffset dy="2"/>
<feGaussianBlur stdDeviation="2"/>
<feColorMatrix type="matrix" values="0 0 0 0 0 0 0 0 0 0 0 0 0 0 0 0 0 0 0.45 0"/>
<feBlend mode="normal" in2="BackgroundImageFix" result="effect1_dropShadow_1_185839"/>
<feBlend mode="normal" in="SourceGraphic" in2="effect1_dropShadow_1_185839" result="shape"/>
</filter>
<filter id="filter11_d_1_185839" x="585" y="189" width="16" height="16" filterUnits="userSpaceOnUse" color-interpolation-filters="sRGB">
<feFlood flood-opacity="0" result="BackgroundImageFix"/>
<feColorMatrix in="SourceAlpha" type="matrix" values="0 0 0 0 0 0 0 0 0 0 0 0 0 0 0 0 0 0 127 0" result="hardAlpha"/>
<feOffset dy="2"/>
<feGaussianBlur stdDeviation="2"/>
<feColorMatrix type="matrix" values="0 0 0 0 0 0 0 0 0 0 0 0 0 0 0 0 0 0 0.45 0"/>
<feBlend mode="normal" in2="BackgroundImageFix" result="effect1_dropShadow_1_185839"/>
<feBlend mode="normal" in="SourceGraphic" in2="effect1_dropShadow_1_185839" result="shape"/>
</filter>
<filter id="filter12_d_1_185839" x="694" y="39" width="16" height="16" filterUnits="userSpaceOnUse" color-interpolation-filters="sRGB">
<feFlood flood-opacity="0" result="BackgroundImageFix"/>
<feColorMatrix in="SourceAlpha" type="matrix" values="0 0 0 0 0 0 0 0 0 0 0 0 0 0 0 0 0 0 127 0" result="hardAlpha"/>
<feOffset dy="2"/>
<feGaussianBlur stdDeviation="2"/>
<feColorMatrix type="matrix" values="0 0 0 0 0 0 0 0 0 0 0 0 0 0 0 0 0 0 0.45 0"/>
<feBlend mode="normal" in2="BackgroundImageFix" result="effect1_dropShadow_1_185839"/>
<feBlend mode="normal" in="SourceGraphic" in2="effect1_dropShadow_1_185839" result="shape"/>
</filter>
<filter id="filter13_d_1_185839" x="694" y="214" width="16" height="16" filterUnits="userSpaceOnUse" color-interpolation-filters="sRGB">
<feFlood flood-opacity="0" result="BackgroundImageFix"/>
<feColorMatrix in="SourceAlpha" type="matrix" values="0 0 0 0 0 0 0 0 0 0 0 0 0 0 0 0 0 0 127 0" result="hardAlpha"/>
<feOffset dy="2"/>
<feGaussianBlur stdDeviation="2"/>
<feColorMatrix type="matrix" values="0 0 0 0 0 0 0 0 0 0 0 0 0 0 0 0 0 0 0.45 0"/>
<feBlend mode="normal" in2="BackgroundImageFix" result="effect1_dropShadow_1_185839"/>
<feBlend mode="normal" in="SourceGraphic" in2="effect1_dropShadow_1_185839" result="shape"/>
</filter>
<filter id="filter14_d_1_185839" x="964" y="39" width="16" height="16" filterUnits="userSpaceOnUse" color-interpolation-filters="sRGB">
<feFlood flood-opacity="0" result="BackgroundImageFix"/>
<feColorMatrix in="SourceAlpha" type="matrix" values="0 0 0 0 0 0 0 0 0 0 0 0 0 0 0 0 0 0 127 0" result="hardAlpha"/>
<feOffset dy="2"/>
<feGaussianBlur stdDeviation="2"/>
<feColorMatrix type="matrix" values="0 0 0 0 0 0 0 0 0 0 0 0 0 0 0 0 0 0 0.45 0"/>
<feBlend mode="normal" in2="BackgroundImageFix" result="effect1_dropShadow_1_185839"/>
<feBlend mode="normal" in="SourceGraphic" in2="effect1_dropShadow_1_185839" result="shape"/>
</filter>
<filter id="filter15_d_1_185839" x="964" y="214" width="16" height="16" filterUnits="userSpaceOnUse" color-interpolation-filters="sRGB">
<feFlood flood-opacity="0" result="BackgroundImageFix"/>
<feColorMatrix in="SourceAlpha" type="matrix" values="0 0 0 0 0 0 0 0 0 0 0 0 0 0 0 0 0 0 127 0" result="hardAlpha"/>
<feOffset dy="2"/>
<feGaussianBlur stdDeviation="2"/>
<feColorMatrix type="matrix" values="0 0 0 0 0 0 0 0 0 0 0 0 0 0 0 0 0 0 0.45 0"/>
<feBlend mode="normal" in2="BackgroundImageFix" result="effect1_dropShadow_1_185839"/>
<feBlend mode="normal" in="SourceGraphic" in2="effect1_dropShadow_1_185839" result="shape"/>
</filter>
<filter id="filter16_d_1_185839" x="1045" y="39" width="16" height="16" filterUnits="userSpaceOnUse" color-interpolation-filters="sRGB">
<feFlood flood-opacity="0" result="BackgroundImageFix"/>
<feColorMatrix in="SourceAlpha" type="matrix" values="0 0 0 0 0 0 0 0 0 0 0 0 0 0 0 0 0 0 127 0" result="hardAlpha"/>
<feOffset dy="2"/>
<feGaussianBlur stdDeviation="2"/>
<feColorMatrix type="matrix" values="0 0 0 0 0 0 0 0 0 0 0 0 0 0 0 0 0 0 0.45 0"/>
<feBlend mode="normal" in2="BackgroundImageFix" result="effect1_dropShadow_1_185839"/>
<feBlend mode="normal" in="SourceGraphic" in2="effect1_dropShadow_1_185839" result="shape"/>
</filter>
<filter id="filter17_d_1_185839" x="1045" y="239" width="16" height="16" filterUnits="userSpaceOnUse" color-interpolation-filters="sRGB">
<feFlood flood-opacity="0" result="BackgroundImageFix"/>
<feColorMatrix in="SourceAlpha" type="matrix" values="0 0 0 0 0 0 0 0 0 0 0 0 0 0 0 0 0 0 127 0" result="hardAlpha"/>
<feOffset dy="2"/>
<feGaussianBlur stdDeviation="2"/>
<feColorMatrix type="matrix" values="0 0 0 0 0 0 0 0 0 0 0 0 0 0 0 0 0 0 0.45 0"/>
<feBlend mode="normal" in2="BackgroundImageFix" result="effect1_dropShadow_1_185839"/>
<feBlend mode="normal" in="SourceGraphic" in2="effect1_dropShadow_1_185839" result="shape"/>
</filter>
<filter id="filter18_d_1_185839" x="1345" y="39" width="16" height="16" filterUnits="userSpaceOnUse" color-interpolation-filters="sRGB">
<feFlood flood-opacity="0" result="BackgroundImageFix"/>
<feColorMatrix in="SourceAlpha" type="matrix" values="0 0 0 0 0 0 0 0 0 0 0 0 0 0 0 0 0 0 127 0" result="hardAlpha"/>
<feOffset dy="2"/>
<feGaussianBlur stdDeviation="2"/>
<feColorMatrix type="matrix" values="0 0 0 0 0 0 0 0 0 0 0 0 0 0 0 0 0 0 0.45 0"/>
<feBlend mode="normal" in2="BackgroundImageFix" result="effect1_dropShadow_1_185839"/>
<feBlend mode="normal" in="SourceGraphic" in2="effect1_dropShadow_1_185839" result="shape"/>
</filter>
<filter id="filter19_d_1_185839" x="1345" y="239" width="16" height="16" filterUnits="userSpaceOnUse" color-interpolation-filters="sRGB">
<feFlood flood-opacity="0" result="BackgroundImageFix"/>
<feColorMatrix in="SourceAlpha" type="matrix" values="0 0 0 0 0 0 0 0 0 0 0 0 0 0 0 0 0 0 127 0" result="hardAlpha"/>
<feOffset dy="2"/>
<feGaussianBlur stdDeviation="2"/>
<feColorMatrix type="matrix" values="0 0 0 0 0 0 0 0 0 0 0 0 0 0 0 0 0 0 0.45 0"/>
<feBlend mode="normal" in2="BackgroundImageFix" result="effect1_dropShadow_1_185839"/>
<feBlend mode="normal" in="SourceGraphic" in2="effect1_dropShadow_1_185839" result="shape"/>
</filter>
<clipPath id="clip0_1_185839">
<rect x="8" y="45" width="240" height="150" rx="10" fill="white"/>
</clipPath>
<clipPath id="clip1_1_185839">
<rect x="353" y="45" width="240" height="150" rx="10" fill="white"/>
</clipPath>
<clipPath id="clip2_1_185839">
<rect x="702" y="45" width="270" height="175" rx="30" fill="white"/>
</clipPath>
<clipPath id="clip3_1_185839">
<rect x="1053" y="45" width="300" height="200" rx="30" fill="white"/>
</clipPath>
</defs>
</svg>
