<svg width="1363" height="276" viewBox="0 0 1363 276" fill="none" xmlns="http://www.w3.org/2000/svg">
<g filter="url(#filter0_d_1_185840)">
<rect x="8" y="64" width="300" height="200" fill="white"/>
</g>
<g filter="url(#filter1_d_1_185840)">
<rect x="1051" y="64" width="300" height="200" fill="white"/>
</g>
<g filter="url(#filter2_d_1_185840)">
<rect x="353" y="64" width="300" height="200" fill="white"/>
</g>
<g filter="url(#filter3_d_1_185840)">
<rect x="702" y="64" width="300" height="200" fill="white"/>
</g>
<g opacity="0.2">
<rect x="802" y="124" width="96" height="96" fill="#1C66BC" stroke="#FE8989" stroke-width="8"/>
<ellipse cx="861" cy="114" rx="55" ry="30" fill="#FFD978"/>
<circle cx="787" cy="149" r="55" fill="#E62B2B"/>
</g>
<rect x="108" y="124" width="96" height="96" fill="#1C66BC" stroke="#FE8989" stroke-width="8"/>
<ellipse cx="167" cy="114" rx="55" ry="30" fill="#FFD978"/>
<circle cx="93" cy="149" r="55" fill="#E62B2B"/>
<g opacity="0.2">
<rect x="1151" y="124" width="96" height="96" fill="#1C66BC" stroke="#FE8989" stroke-width="8"/>
<ellipse cx="1210" cy="114" rx="55" ry="30" fill="#FFD978"/>
<circle cx="1136" cy="149" r="55" fill="#E62B2B"/>
</g>
<rect x="453" y="124" width="96" height="96" fill="#1C66BC" stroke="#FE8989" stroke-width="8"/>
<ellipse cx="512" cy="114" rx="55" ry="30" fill="#FFD978"/>
<circle cx="438" cy="149" r="55" fill="#E62B2B"/>
<rect x="817" y="136.5" width="96" height="96" fill="#1C66BC" stroke="#FE8989" stroke-width="8"/>
<ellipse cx="876" cy="126.5" rx="55" ry="30" fill="#FFD978"/>
<circle cx="852" cy="61.5" r="55" fill="#E62B2B"/>
<rect x="1181" y="149" width="96" height="96" fill="#1C66BC" stroke="#FE8989" stroke-width="8"/>
<ellipse cx="1240" cy="139" rx="55" ry="30" fill="#FFD978"/>
<circle cx="1216" cy="74" r="55" fill="#E62B2B"/>
<rect x="38" y="84" width="184" height="136" stroke="#1C6EE8"/>
<g filter="url(#filter4_d_1_185840)">
<rect x="34" y="80" width="8" height="8" fill="white"/>
<rect x="34.5" y="80.5" width="7" height="7" stroke="#1C6EE8"/>
</g>
<g filter="url(#filter5_d_1_185840)">
<rect x="34" y="216" width="8" height="8" fill="white"/>
<rect x="34.5" y="216.5" width="7" height="7" stroke="#1C6EE8"/>
</g>
<g filter="url(#filter6_d_1_185840)">
<rect x="218" y="80" width="8" height="8" fill="white"/>
<rect x="218.5" y="80.5" width="7" height="7" stroke="#1C6EE8"/>
</g>
<g filter="url(#filter7_d_1_185840)">
<rect x="218" y="216" width="8" height="8" fill="white"/>
<rect x="218.5" y="216.5" width="7" height="7" stroke="#1C6EE8"/>
</g>
<rect x="383" y="84" width="184" height="136" stroke="#1C6EE8"/>
<g filter="url(#filter8_d_1_185840)">
<rect x="379" y="80" width="8" height="8" fill="white"/>
<rect x="379.5" y="80.5" width="7" height="7" stroke="#1C6EE8"/>
</g>
<g filter="url(#filter9_d_1_185840)">
<rect x="379" y="216" width="8" height="8" fill="white"/>
<rect x="379.5" y="216.5" width="7" height="7" stroke="#1C6EE8"/>
</g>
<g filter="url(#filter10_d_1_185840)">
<rect x="563" y="80" width="8" height="8" fill="white"/>
<rect x="563.5" y="80.5" width="7" height="7" stroke="#1C6EE8"/>
</g>
<g filter="url(#filter11_d_1_185840)">
<rect x="563" y="216" width="8" height="8" fill="white"/>
<rect x="563.5" y="216.5" width="7" height="7" stroke="#1C6EE8"/>
</g>
<rect x="797" y="6.5" width="134" height="226" stroke="#1C6EE8"/>
<g filter="url(#filter12_d_1_185840)">
<rect x="793" y="2.5" width="8" height="8" fill="white"/>
<rect x="793.5" y="3" width="7" height="7" stroke="#1C6EE8"/>
</g>
<g filter="url(#filter13_d_1_185840)">
<rect x="793" y="228.5" width="8" height="8" fill="white"/>
<rect x="793.5" y="229" width="7" height="7" stroke="#1C6EE8"/>
</g>
<g filter="url(#filter14_d_1_185840)">
<rect x="927" y="2.5" width="8" height="8" fill="white"/>
<rect x="927.5" y="3" width="7" height="7" stroke="#1C6EE8"/>
</g>
<g filter="url(#filter15_d_1_185840)">
<rect x="927" y="228.5" width="8" height="8" fill="white"/>
<rect x="927.5" y="229" width="7" height="7" stroke="#1C6EE8"/>
</g>
<rect x="1161" y="19" width="134" height="226" stroke="#1C6EE8"/>
<g filter="url(#filter16_d_1_185840)">
<rect x="1157" y="15" width="8" height="8" fill="white"/>
<rect x="1157.5" y="15.5" width="7" height="7" stroke="#1C6EE8"/>
</g>
<g filter="url(#filter17_d_1_185840)">
<rect x="1157" y="241" width="8" height="8" fill="white"/>
<rect x="1157.5" y="241.5" width="7" height="7" stroke="#1C6EE8"/>
</g>
<g filter="url(#filter18_d_1_185840)">
<rect x="1291" y="15" width="8" height="8" fill="white"/>
<rect x="1291.5" y="15.5" width="7" height="7" stroke="#1C6EE8"/>
</g>
<g filter="url(#filter19_d_1_185840)">
<rect x="1291" y="241" width="8" height="8" fill="white"/>
<rect x="1291.5" y="241.5" width="7" height="7" stroke="#1C6EE8"/>
</g>
<path d="M128.25 148.402V146C128.25 145.034 129.034 144.25 130 144.25C130.966 144.25 131.75 145.034 131.75 146V148.402C132.554 148.794 133.206 149.446 133.598 150.25H136C136.966 150.25 137.75 151.034 137.75 152C137.75 152.966 136.966 153.75 136 153.75H133.598C133.206 154.554 132.554 155.206 131.75 155.598V158C131.75 158.966 130.966 159.75 130 159.75C129.034 159.75 128.25 158.966 128.25 158V155.598C127.446 155.206 126.794 154.554 126.402 153.75H124C123.034 153.75 122.25 152.966 122.25 152C122.25 151.034 123.034 150.25 124 150.25H126.402C126.794 149.446 127.446 148.794 128.25 148.402Z" fill="white"/>
<path fill-rule="evenodd" clip-rule="evenodd" d="M130 145.25C130.414 145.25 130.75 145.586 130.75 146V149.095C131.804 149.366 132.634 150.196 132.905 151.25H136C136.414 151.25 136.75 151.586 136.75 152C136.75 152.414 136.414 152.75 136 152.75H132.905C132.634 153.804 131.804 154.634 130.75 154.905V158C130.75 158.414 130.414 158.75 130 158.75C129.586 158.75 129.25 158.414 129.25 158V154.905C128.196 154.634 127.366 153.804 127.095 152.75H124C123.586 152.75 123.25 152.414 123.25 152C123.25 151.586 123.586 151.25 124 151.25H127.095C127.366 150.196 128.196 149.366 129.25 149.095V146C129.25 145.586 129.586 145.25 130 145.25ZM131.5 152C131.5 152.828 130.828 153.5 130 153.5C129.172 153.5 128.5 152.828 128.5 152C128.5 151.172 129.172 150.5 130 150.5C130.828 150.5 131.5 151.172 131.5 152Z" fill="#1C6EE8"/>
<path d="M473.25 148.402V146C473.25 145.034 474.034 144.25 475 144.25C475.966 144.25 476.75 145.034 476.75 146V148.402C477.554 148.794 478.206 149.446 478.598 150.25H481C481.966 150.25 482.75 151.034 482.75 152C482.75 152.966 481.966 153.75 481 153.75H478.598C478.206 154.554 477.554 155.206 476.75 155.598V158C476.75 158.966 475.966 159.75 475 159.75C474.034 159.75 473.25 158.966 473.25 158V155.598C472.446 155.206 471.794 154.554 471.402 153.75H469C468.034 153.75 467.25 152.966 467.25 152C467.25 151.034 468.034 150.25 469 150.25H471.402C471.794 149.446 472.446 148.794 473.25 148.402Z" fill="white"/>
<path fill-rule="evenodd" clip-rule="evenodd" d="M475 145.25C475.414 145.25 475.75 145.586 475.75 146V149.095C476.804 149.366 477.634 150.196 477.905 151.25H481C481.414 151.25 481.75 151.586 481.75 152C481.75 152.414 481.414 152.75 481 152.75H477.905C477.634 153.804 476.804 154.634 475.75 154.905V158C475.75 158.414 475.414 158.75 475 158.75C474.586 158.75 474.25 158.414 474.25 158V154.905C473.196 154.634 472.366 153.804 472.095 152.75H469C468.586 152.75 468.25 152.414 468.25 152C468.25 151.586 468.586 151.25 469 151.25H472.095C472.366 150.196 473.196 149.366 474.25 149.095V146C474.25 145.586 474.586 145.25 475 145.25ZM476.5 152C476.5 152.828 475.828 153.5 475 153.5C474.172 153.5 473.5 152.828 473.5 152C473.5 151.172 474.172 150.5 475 150.5C475.828 150.5 476.5 151.172 476.5 152Z" fill="#1C6EE8"/>
<path d="M837.25 160.902V158.5C837.25 157.534 838.034 156.75 839 156.75C839.966 156.75 840.75 157.534 840.75 158.5V160.902C841.554 161.294 842.206 161.946 842.598 162.75H845C845.966 162.75 846.75 163.534 846.75 164.5C846.75 165.466 845.966 166.25 845 166.25H842.598C842.206 167.054 841.554 167.706 840.75 168.098V170.5C840.75 171.466 839.966 172.25 839 172.25C838.034 172.25 837.25 171.466 837.25 170.5V168.098C836.446 167.706 835.794 167.054 835.402 166.25H833C832.034 166.25 831.25 165.466 831.25 164.5C831.25 163.534 832.034 162.75 833 162.75H835.402C835.794 161.946 836.446 161.294 837.25 160.902Z" fill="white"/>
<path fill-rule="evenodd" clip-rule="evenodd" d="M839 157.75C839.414 157.75 839.75 158.086 839.75 158.5V161.595C840.804 161.866 841.634 162.696 841.905 163.75H845C845.414 163.75 845.75 164.086 845.75 164.5C845.75 164.914 845.414 165.25 845 165.25H841.905C841.634 166.304 840.804 167.134 839.75 167.405V170.5C839.75 170.914 839.414 171.25 839 171.25C838.586 171.25 838.25 170.914 838.25 170.5V167.405C837.196 167.134 836.366 166.304 836.095 165.25H833C832.586 165.25 832.25 164.914 832.25 164.5C832.25 164.086 832.586 163.75 833 163.75H836.095C836.366 162.696 837.196 161.866 838.25 161.595V158.5C838.25 158.086 838.586 157.75 839 157.75ZM840.5 164.5C840.5 165.328 839.828 166 839 166C838.172 166 837.5 165.328 837.5 164.5C837.5 163.672 838.172 163 839 163C839.828 163 840.5 163.672 840.5 164.5Z" fill="#1C6EE8"/>
<path d="M1201.25 173.402V171C1201.25 170.034 1202.03 169.25 1203 169.25C1203.97 169.25 1204.75 170.034 1204.75 171V173.402C1205.55 173.794 1206.21 174.446 1206.6 175.25H1209C1209.97 175.25 1210.75 176.034 1210.75 177C1210.75 177.966 1209.97 178.75 1209 178.75H1206.6C1206.21 179.554 1205.55 180.206 1204.75 180.598V183C1204.75 183.966 1203.97 184.75 1203 184.75C1202.03 184.75 1201.25 183.966 1201.25 183V180.598C1200.45 180.206 1199.79 179.554 1199.4 178.75H1197C1196.03 178.75 1195.25 177.966 1195.25 177C1195.25 176.034 1196.03 175.25 1197 175.25H1199.4C1199.79 174.446 1200.45 173.794 1201.25 173.402Z" fill="white"/>
<path fill-rule="evenodd" clip-rule="evenodd" d="M1203 170.25C1203.41 170.25 1203.75 170.586 1203.75 171V174.095C1204.8 174.366 1205.63 175.196 1205.91 176.25H1209C1209.41 176.25 1209.75 176.586 1209.75 177C1209.75 177.414 1209.41 177.75 1209 177.75H1205.91C1205.63 178.804 1204.8 179.634 1203.75 179.905V183C1203.75 183.414 1203.41 183.75 1203 183.75C1202.59 183.75 1202.25 183.414 1202.25 183V179.905C1201.2 179.634 1200.37 178.804 1200.09 177.75H1197C1196.59 177.75 1196.25 177.414 1196.25 177C1196.25 176.586 1196.59 176.25 1197 176.25H1200.09C1200.37 175.196 1201.2 174.366 1202.25 174.095V171C1202.25 170.586 1202.59 170.25 1203 170.25ZM1204.5 177C1204.5 177.828 1203.83 178.5 1203 178.5C1202.17 178.5 1201.5 177.828 1201.5 177C1201.5 176.172 1202.17 175.5 1203 175.5C1203.83 175.5 1204.5 176.172 1204.5 177Z" fill="#1C6EE8"/>
<path opacity="0.4" d="M10.1364 34H6.01136V22.3636H10.1705C11.3409 22.3636 12.3485 22.5966 13.1932 23.0625C14.0379 23.5246 14.6875 24.1894 15.142 25.0568C15.6004 25.9242 15.8295 26.9621 15.8295 28.1705C15.8295 29.3826 15.6004 30.4242 15.142 31.2955C14.6875 32.1667 14.0341 32.8352 13.1818 33.3011C12.3333 33.767 11.3182 34 10.1364 34ZM8.47159 31.892H10.0341C10.7614 31.892 11.3731 31.7633 11.8693 31.5057C12.3693 31.2443 12.7443 30.8409 12.9943 30.2955C13.2481 29.7462 13.375 29.0379 13.375 28.1705C13.375 27.3106 13.2481 26.608 12.9943 26.0625C12.7443 25.517 12.3712 25.1155 11.875 24.858C11.3788 24.6004 10.767 24.4716 10.0398 24.4716H8.47159V31.892ZM21.5838 34.1705C20.6861 34.1705 19.9134 33.9886 19.2656 33.625C18.6217 33.2576 18.1255 32.7386 17.777 32.0682C17.4285 31.3939 17.2543 30.5966 17.2543 29.6761C17.2543 28.7784 17.4285 27.9905 17.777 27.3125C18.1255 26.6345 18.616 26.1061 19.2486 25.7273C19.8849 25.3485 20.6312 25.1591 21.4872 25.1591C22.063 25.1591 22.599 25.2519 23.0952 25.4375C23.5952 25.6193 24.0308 25.8939 24.402 26.2614C24.777 26.6288 25.0687 27.0909 25.277 27.6477C25.4853 28.2008 25.5895 28.8485 25.5895 29.5909V30.2557H18.2202V28.7557H23.3111C23.3111 28.4072 23.2353 28.0985 23.0838 27.8295C22.9323 27.5606 22.7221 27.3504 22.4531 27.1989C22.188 27.0436 21.8793 26.9659 21.527 26.9659C21.1596 26.9659 20.8338 27.0511 20.5497 27.2216C20.2694 27.3883 20.0497 27.6136 19.8906 27.8977C19.7315 28.178 19.6501 28.4905 19.6463 28.8352V30.2614C19.6463 30.6932 19.7259 31.0663 19.8849 31.3807C20.0478 31.6951 20.277 31.9375 20.5724 32.108C20.8679 32.2784 21.2183 32.3636 21.6236 32.3636C21.8925 32.3636 22.1387 32.3258 22.3622 32.25C22.5857 32.1742 22.777 32.0606 22.9361 31.9091C23.0952 31.7576 23.2164 31.572 23.2997 31.3523L25.5384 31.5C25.4247 32.0379 25.1918 32.5076 24.8395 32.9091C24.491 33.3068 24.0402 33.6174 23.4872 33.8409C22.938 34.0606 22.3035 34.1705 21.5838 34.1705ZM34.4304 27.7614L32.2145 27.8977C32.1766 27.7083 32.0952 27.5379 31.9702 27.3864C31.8452 27.2311 31.6804 27.108 31.4759 27.017C31.2751 26.9223 31.0346 26.875 30.7543 26.875C30.3793 26.875 30.063 26.9545 29.8054 27.1136C29.5478 27.2689 29.419 27.4773 29.419 27.7386C29.419 27.947 29.5024 28.1231 29.669 28.267C29.8357 28.411 30.1217 28.5265 30.527 28.6136L32.1065 28.9318C32.955 29.1061 33.5876 29.3864 34.0043 29.7727C34.4209 30.1591 34.6293 30.6667 34.6293 31.2955C34.6293 31.8674 34.4607 32.3693 34.1236 32.8011C33.7902 33.233 33.3319 33.5701 32.7486 33.8125C32.169 34.0511 31.5005 34.1705 30.7429 34.1705C29.5876 34.1705 28.6671 33.9299 27.9815 33.4489C27.2997 32.964 26.9001 32.3049 26.7827 31.4716L29.1634 31.3466C29.2353 31.6989 29.4096 31.9678 29.6861 32.1534C29.9626 32.3352 30.3168 32.4261 30.7486 32.4261C31.1728 32.4261 31.5137 32.3447 31.7713 32.1818C32.0327 32.0152 32.1652 31.8011 32.169 31.5398C32.1652 31.3201 32.0724 31.1402 31.8906 31C31.7088 30.8561 31.4285 30.7462 31.0497 30.6705L29.5384 30.3693C28.6861 30.1989 28.0516 29.9034 27.6349 29.483C27.2221 29.0625 27.0156 28.5265 27.0156 27.875C27.0156 27.3144 27.1671 26.8314 27.4702 26.4261C27.777 26.0208 28.2069 25.7083 28.7599 25.4886C29.3168 25.2689 29.9683 25.1591 30.7145 25.1591C31.8168 25.1591 32.6842 25.392 33.3168 25.858C33.9531 26.3239 34.3243 26.9583 34.4304 27.7614ZM36.1534 34V25.2727H38.5739V34H36.1534ZM37.3693 24.1477C37.0095 24.1477 36.7008 24.0284 36.4432 23.7898C36.1894 23.5473 36.0625 23.2576 36.0625 22.9205C36.0625 22.5871 36.1894 22.3011 36.4432 22.0625C36.7008 21.8201 37.0095 21.6989 37.3693 21.6989C37.7292 21.6989 38.036 21.8201 38.2898 22.0625C38.5473 22.3011 38.6761 22.5871 38.6761 22.9205C38.6761 23.2576 38.5473 23.5473 38.2898 23.7898C38.036 24.0284 37.7292 24.1477 37.3693 24.1477ZM44.4446 37.4545C43.6605 37.4545 42.9882 37.3466 42.4276 37.1307C41.8707 36.9186 41.4276 36.6288 41.098 36.2614C40.7685 35.8939 40.5545 35.4811 40.456 35.0227L42.6946 34.7216C42.7628 34.8958 42.8707 35.0587 43.0185 35.2102C43.1662 35.3617 43.3613 35.483 43.6037 35.5739C43.8499 35.6686 44.1491 35.7159 44.5014 35.7159C45.0279 35.7159 45.4616 35.5871 45.8026 35.3295C46.1473 35.0758 46.3196 34.6496 46.3196 34.0511V32.4545H46.2173C46.1113 32.697 45.9522 32.9261 45.7401 33.142C45.5279 33.358 45.2552 33.5341 44.9219 33.6705C44.5885 33.8068 44.1908 33.875 43.7287 33.875C43.0734 33.875 42.4768 33.7235 41.9389 33.4205C41.4048 33.1136 40.9787 32.6458 40.6605 32.017C40.3461 31.3845 40.1889 30.5852 40.1889 29.6193C40.1889 28.6307 40.3499 27.8049 40.6719 27.142C40.9938 26.4792 41.4219 25.983 41.956 25.6534C42.4938 25.3239 43.0829 25.1591 43.723 25.1591C44.2116 25.1591 44.6207 25.2424 44.9503 25.4091C45.2798 25.572 45.545 25.7765 45.7457 26.0227C45.9503 26.2652 46.1075 26.5038 46.2173 26.7386H46.3082V25.2727H48.7116V34.0852C48.7116 34.8277 48.5298 35.4489 48.1662 35.9489C47.8026 36.4489 47.2988 36.8239 46.6548 37.0739C46.0147 37.3277 45.2779 37.4545 44.4446 37.4545ZM44.4957 32.0568C44.8859 32.0568 45.2154 31.9602 45.4844 31.767C45.7571 31.5701 45.9654 31.2898 46.1094 30.9261C46.2571 30.5587 46.331 30.1193 46.331 29.608C46.331 29.0966 46.259 28.6534 46.1151 28.2784C45.9711 27.8996 45.7628 27.6061 45.4901 27.3977C45.2173 27.1894 44.8859 27.0852 44.4957 27.0852C44.098 27.0852 43.7628 27.1932 43.4901 27.4091C43.2173 27.6212 43.0109 27.9167 42.8707 28.2955C42.7306 28.6742 42.6605 29.1117 42.6605 29.608C42.6605 30.1117 42.7306 30.5473 42.8707 30.9148C43.0147 31.2784 43.2211 31.5606 43.4901 31.7614C43.7628 31.9583 44.098 32.0568 44.4957 32.0568ZM53.0582 28.9545V34H50.6378V25.2727H52.9446V26.8125H53.0469C53.2401 26.3049 53.5639 25.9034 54.0185 25.608C54.473 25.3087 55.0241 25.1591 55.6719 25.1591C56.2779 25.1591 56.8063 25.2917 57.2571 25.5568C57.7079 25.822 58.0582 26.2008 58.3082 26.6932C58.5582 27.1818 58.6832 27.7652 58.6832 28.4432V34H56.2628V28.875C56.2666 28.3409 56.1302 27.9242 55.8537 27.625C55.5772 27.322 55.1965 27.1705 54.7116 27.1705C54.3859 27.1705 54.098 27.2405 53.848 27.3807C53.6018 27.5208 53.4086 27.7254 53.2685 27.9943C53.1321 28.2595 53.062 28.5795 53.0582 28.9545ZM64.3395 22.3636H67.3736L70.5781 30.1818H70.7145L73.919 22.3636H76.9531V34H74.5668V26.4261H74.4702L71.4588 33.9432H69.8338L66.8224 26.3977H66.7259V34H64.3395V22.3636ZM82.8778 34.1705C81.9953 34.1705 81.232 33.983 80.5881 33.608C79.9479 33.2292 79.4536 32.7027 79.1051 32.0284C78.7566 31.3504 78.5824 30.5644 78.5824 29.6705C78.5824 28.7689 78.7566 27.9811 79.1051 27.3068C79.4536 26.6288 79.9479 26.1023 80.5881 25.7273C81.232 25.3485 81.9953 25.1591 82.8778 25.1591C83.7604 25.1591 84.5218 25.3485 85.1619 25.7273C85.8059 26.1023 86.3021 26.6288 86.6506 27.3068C86.9991 27.9811 87.1733 28.7689 87.1733 29.6705C87.1733 30.5644 86.9991 31.3504 86.6506 32.0284C86.3021 32.7027 85.8059 33.2292 85.1619 33.608C84.5218 33.983 83.7604 34.1705 82.8778 34.1705ZM82.8892 32.2955C83.2907 32.2955 83.6259 32.1818 83.8949 31.9545C84.1638 31.7235 84.3665 31.4091 84.5028 31.0114C84.643 30.6136 84.7131 30.161 84.7131 29.6534C84.7131 29.1458 84.643 28.6932 84.5028 28.2955C84.3665 27.8977 84.1638 27.5833 83.8949 27.3523C83.6259 27.1212 83.2907 27.0057 82.8892 27.0057C82.4839 27.0057 82.143 27.1212 81.8665 27.3523C81.5938 27.5833 81.3873 27.8977 81.2472 28.2955C81.1108 28.6932 81.0426 29.1458 81.0426 29.6534C81.0426 30.161 81.1108 30.6136 81.2472 31.0114C81.3873 31.4091 81.5938 31.7235 81.8665 31.9545C82.143 32.1818 82.4839 32.2955 82.8892 32.2955ZM91.9631 34.142C91.3002 34.142 90.6998 33.9716 90.1619 33.6307C89.6278 33.286 89.2036 32.7803 88.8892 32.1136C88.5786 31.4432 88.4233 30.6212 88.4233 29.6477C88.4233 28.6477 88.5843 27.8163 88.9062 27.1534C89.2282 26.4867 89.6563 25.9886 90.1903 25.6591C90.7282 25.3258 91.3172 25.1591 91.9574 25.1591C92.446 25.1591 92.8532 25.2424 93.179 25.4091C93.5085 25.572 93.7737 25.7765 93.9744 26.0227C94.179 26.2652 94.3343 26.5038 94.4403 26.7386H94.5142V22.3636H96.929V34H94.5426V32.6023H94.4403C94.3267 32.8447 94.1657 33.0852 93.9574 33.3239C93.7528 33.5587 93.4858 33.7538 93.1562 33.9091C92.8305 34.0644 92.4328 34.142 91.9631 34.142ZM92.7301 32.2159C93.1203 32.2159 93.4498 32.1098 93.7188 31.8977C93.9915 31.6818 94.1998 31.3807 94.3438 30.9943C94.4915 30.608 94.5653 30.1553 94.5653 29.6364C94.5653 29.1174 94.4934 28.6667 94.3494 28.2841C94.2055 27.9015 93.9972 27.6061 93.7244 27.3977C93.4517 27.1894 93.1203 27.0852 92.7301 27.0852C92.3324 27.0852 91.9972 27.1932 91.7244 27.4091C91.4517 27.625 91.2453 27.9242 91.1051 28.3068C90.965 28.6894 90.8949 29.1326 90.8949 29.6364C90.8949 30.1439 90.965 30.5928 91.1051 30.983C91.2491 31.3693 91.4555 31.6723 91.7244 31.892C91.9972 32.108 92.3324 32.2159 92.7301 32.2159ZM102.896 34.1705C101.999 34.1705 101.226 33.9886 100.578 33.625C99.9342 33.2576 99.438 32.7386 99.0895 32.0682C98.741 31.3939 98.5668 30.5966 98.5668 29.6761C98.5668 28.7784 98.741 27.9905 99.0895 27.3125C99.438 26.6345 99.9285 26.1061 100.561 25.7273C101.197 25.3485 101.944 25.1591 102.8 25.1591C103.375 25.1591 103.911 25.2519 104.408 25.4375C104.908 25.6193 105.343 25.8939 105.714 26.2614C106.089 26.6288 106.381 27.0909 106.589 27.6477C106.798 28.2008 106.902 28.8485 106.902 29.5909V30.2557H99.5327V28.7557H104.624C104.624 28.4072 104.548 28.0985 104.396 27.8295C104.245 27.5606 104.035 27.3504 103.766 27.1989C103.5 27.0436 103.192 26.9659 102.839 26.9659C102.472 26.9659 102.146 27.0511 101.862 27.2216C101.582 27.3883 101.362 27.6136 101.203 27.8977C101.044 28.178 100.963 28.4905 100.959 28.8352V30.2614C100.959 30.6932 101.038 31.0663 101.197 31.3807C101.36 31.6951 101.589 31.9375 101.885 32.108C102.18 32.2784 102.531 32.3636 102.936 32.3636C103.205 32.3636 103.451 32.3258 103.675 32.25C103.898 32.1742 104.089 32.0606 104.249 31.9091C104.408 31.7576 104.529 31.572 104.612 31.3523L106.851 31.5C106.737 32.0379 106.504 32.5076 106.152 32.9091C105.804 33.3068 105.353 33.6174 104.8 33.8409C104.25 34.0606 103.616 34.1705 102.896 34.1705Z" fill="black"/>
<path opacity="0.4" d="M353.568 24.392V22.3636H363.125V24.392H359.562V34H357.131V24.392H353.568ZM369.193 34.2557C368.216 34.2519 367.375 34.0114 366.67 33.5341C365.97 33.0568 365.43 32.3655 365.051 31.4602C364.676 30.5549 364.491 29.4659 364.494 28.1932C364.494 26.9242 364.682 25.8428 365.057 24.9489C365.436 24.0549 365.975 23.375 366.676 22.9091C367.381 22.4394 368.22 22.2045 369.193 22.2045C370.167 22.2045 371.004 22.4394 371.705 22.9091C372.409 23.3788 372.951 24.0606 373.33 24.9545C373.708 25.8447 373.896 26.9242 373.892 28.1932C373.892 29.4697 373.703 30.5606 373.324 31.4659C372.949 32.3712 372.411 33.0625 371.71 33.5398C371.009 34.017 370.17 34.2557 369.193 34.2557ZM369.193 32.2159C369.86 32.2159 370.392 31.8807 370.79 31.2102C371.188 30.5398 371.384 29.5341 371.381 28.1932C371.381 27.3106 371.29 26.5758 371.108 25.9886C370.93 25.4015 370.676 24.9602 370.347 24.6648C370.021 24.3693 369.636 24.2216 369.193 24.2216C368.53 24.2216 368 24.553 367.602 25.2159C367.205 25.8788 367.004 26.8712 367 28.1932C367 29.0871 367.089 29.8333 367.267 30.4318C367.449 31.0265 367.705 31.4735 368.034 31.7727C368.364 32.0682 368.75 32.2159 369.193 32.2159Z" fill="black"/>
<path opacity="0.4" d="M702.568 24.392V22.3636H712.125V24.392H708.562V34H706.131V24.392H702.568ZM718.693 22.3636V34H716.233V24.6989H716.165L713.5 26.3693V24.1875L716.381 22.3636H718.693Z" fill="black"/>
<path opacity="0.4" d="M1051.57 24.392V22.3636H1061.12V24.392H1057.56V34H1055.13V24.392H1051.57ZM1062.63 34V32.2273L1066.77 28.392C1067.13 28.0511 1067.42 27.7443 1067.66 27.4716C1067.9 27.1989 1068.09 26.9318 1068.21 26.6705C1068.34 26.4053 1068.4 26.1193 1068.4 25.8125C1068.4 25.4716 1068.32 25.178 1068.16 24.9318C1068.01 24.6818 1067.8 24.4905 1067.53 24.358C1067.26 24.2216 1066.95 24.1534 1066.61 24.1534C1066.26 24.1534 1065.95 24.2254 1065.68 24.3693C1065.42 24.5133 1065.21 24.7197 1065.07 24.9886C1064.92 25.2576 1064.85 25.5777 1064.85 25.9489H1062.52C1062.52 25.1875 1062.69 24.5265 1063.03 23.9659C1063.38 23.4053 1063.86 22.9716 1064.48 22.6648C1065.1 22.358 1065.82 22.2045 1066.63 22.2045C1067.46 22.2045 1068.19 22.3523 1068.81 22.6477C1069.43 22.9394 1069.91 23.3447 1070.26 23.8636C1070.6 24.3826 1070.77 24.9773 1070.77 25.6477C1070.77 26.0871 1070.69 26.5208 1070.51 26.9489C1070.34 27.3769 1070.04 27.8523 1069.6 28.375C1069.16 28.8939 1068.54 29.517 1067.74 30.2443L1066.04 31.9091V31.9886H1070.93V34H1062.63Z" fill="black"/>
<defs>
<filter id="filter0_d_1_185840" x="0" y="56" width="320" height="220" filterUnits="userSpaceOnUse" color-interpolation-filters="sRGB">
<feFlood flood-opacity="0" result="BackgroundImageFix"/>
<feColorMatrix in="SourceAlpha" type="matrix" values="0 0 0 0 0 0 0 0 0 0 0 0 0 0 0 0 0 0 127 0" result="hardAlpha"/>
<feOffset dx="2" dy="2"/>
<feGaussianBlur stdDeviation="5"/>
<feComposite in2="hardAlpha" operator="out"/>
<feColorMatrix type="matrix" values="0 0 0 0 0 0 0 0 0 0 0 0 0 0 0 0 0 0 0.25 0"/>
<feBlend mode="normal" in2="BackgroundImageFix" result="effect1_dropShadow_1_185840"/>
<feBlend mode="normal" in="SourceGraphic" in2="effect1_dropShadow_1_185840" result="shape"/>
</filter>
<filter id="filter1_d_1_185840" x="1043" y="56" width="320" height="220" filterUnits="userSpaceOnUse" color-interpolation-filters="sRGB">
<feFlood flood-opacity="0" result="BackgroundImageFix"/>
<feColorMatrix in="SourceAlpha" type="matrix" values="0 0 0 0 0 0 0 0 0 0 0 0 0 0 0 0 0 0 127 0" result="hardAlpha"/>
<feOffset dx="2" dy="2"/>
<feGaussianBlur stdDeviation="5"/>
<feComposite in2="hardAlpha" operator="out"/>
<feColorMatrix type="matrix" values="0 0 0 0 0 0 0 0 0 0 0 0 0 0 0 0 0 0 0.25 0"/>
<feBlend mode="normal" in2="BackgroundImageFix" result="effect1_dropShadow_1_185840"/>
<feBlend mode="normal" in="SourceGraphic" in2="effect1_dropShadow_1_185840" result="shape"/>
</filter>
<filter id="filter2_d_1_185840" x="345" y="56" width="320" height="220" filterUnits="userSpaceOnUse" color-interpolation-filters="sRGB">
<feFlood flood-opacity="0" result="BackgroundImageFix"/>
<feColorMatrix in="SourceAlpha" type="matrix" values="0 0 0 0 0 0 0 0 0 0 0 0 0 0 0 0 0 0 127 0" result="hardAlpha"/>
<feOffset dx="2" dy="2"/>
<feGaussianBlur stdDeviation="5"/>
<feComposite in2="hardAlpha" operator="out"/>
<feColorMatrix type="matrix" values="0 0 0 0 0 0 0 0 0 0 0 0 0 0 0 0 0 0 0.25 0"/>
<feBlend mode="normal" in2="BackgroundImageFix" result="effect1_dropShadow_1_185840"/>
<feBlend mode="normal" in="SourceGraphic" in2="effect1_dropShadow_1_185840" result="shape"/>
</filter>
<filter id="filter3_d_1_185840" x="694" y="56" width="320" height="220" filterUnits="userSpaceOnUse" color-interpolation-filters="sRGB">
<feFlood flood-opacity="0" result="BackgroundImageFix"/>
<feColorMatrix in="SourceAlpha" type="matrix" values="0 0 0 0 0 0 0 0 0 0 0 0 0 0 0 0 0 0 127 0" result="hardAlpha"/>
<feOffset dx="2" dy="2"/>
<feGaussianBlur stdDeviation="5"/>
<feComposite in2="hardAlpha" operator="out"/>
<feColorMatrix type="matrix" values="0 0 0 0 0 0 0 0 0 0 0 0 0 0 0 0 0 0 0.25 0"/>
<feBlend mode="normal" in2="BackgroundImageFix" result="effect1_dropShadow_1_185840"/>
<feBlend mode="normal" in="SourceGraphic" in2="effect1_dropShadow_1_185840" result="shape"/>
</filter>
<filter id="filter4_d_1_185840" x="30" y="78" width="16" height="16" filterUnits="userSpaceOnUse" color-interpolation-filters="sRGB">
<feFlood flood-opacity="0" result="BackgroundImageFix"/>
<feColorMatrix in="SourceAlpha" type="matrix" values="0 0 0 0 0 0 0 0 0 0 0 0 0 0 0 0 0 0 127 0" result="hardAlpha"/>
<feOffset dy="2"/>
<feGaussianBlur stdDeviation="2"/>
<feColorMatrix type="matrix" values="0 0 0 0 0 0 0 0 0 0 0 0 0 0 0 0 0 0 0.45 0"/>
<feBlend mode="normal" in2="BackgroundImageFix" result="effect1_dropShadow_1_185840"/>
<feBlend mode="normal" in="SourceGraphic" in2="effect1_dropShadow_1_185840" result="shape"/>
</filter>
<filter id="filter5_d_1_185840" x="30" y="214" width="16" height="16" filterUnits="userSpaceOnUse" color-interpolation-filters="sRGB">
<feFlood flood-opacity="0" result="BackgroundImageFix"/>
<feColorMatrix in="SourceAlpha" type="matrix" values="0 0 0 0 0 0 0 0 0 0 0 0 0 0 0 0 0 0 127 0" result="hardAlpha"/>
<feOffset dy="2"/>
<feGaussianBlur stdDeviation="2"/>
<feColorMatrix type="matrix" values="0 0 0 0 0 0 0 0 0 0 0 0 0 0 0 0 0 0 0.45 0"/>
<feBlend mode="normal" in2="BackgroundImageFix" result="effect1_dropShadow_1_185840"/>
<feBlend mode="normal" in="SourceGraphic" in2="effect1_dropShadow_1_185840" result="shape"/>
</filter>
<filter id="filter6_d_1_185840" x="214" y="78" width="16" height="16" filterUnits="userSpaceOnUse" color-interpolation-filters="sRGB">
<feFlood flood-opacity="0" result="BackgroundImageFix"/>
<feColorMatrix in="SourceAlpha" type="matrix" values="0 0 0 0 0 0 0 0 0 0 0 0 0 0 0 0 0 0 127 0" result="hardAlpha"/>
<feOffset dy="2"/>
<feGaussianBlur stdDeviation="2"/>
<feColorMatrix type="matrix" values="0 0 0 0 0 0 0 0 0 0 0 0 0 0 0 0 0 0 0.45 0"/>
<feBlend mode="normal" in2="BackgroundImageFix" result="effect1_dropShadow_1_185840"/>
<feBlend mode="normal" in="SourceGraphic" in2="effect1_dropShadow_1_185840" result="shape"/>
</filter>
<filter id="filter7_d_1_185840" x="214" y="214" width="16" height="16" filterUnits="userSpaceOnUse" color-interpolation-filters="sRGB">
<feFlood flood-opacity="0" result="BackgroundImageFix"/>
<feColorMatrix in="SourceAlpha" type="matrix" values="0 0 0 0 0 0 0 0 0 0 0 0 0 0 0 0 0 0 127 0" result="hardAlpha"/>
<feOffset dy="2"/>
<feGaussianBlur stdDeviation="2"/>
<feColorMatrix type="matrix" values="0 0 0 0 0 0 0 0 0 0 0 0 0 0 0 0 0 0 0.45 0"/>
<feBlend mode="normal" in2="BackgroundImageFix" result="effect1_dropShadow_1_185840"/>
<feBlend mode="normal" in="SourceGraphic" in2="effect1_dropShadow_1_185840" result="shape"/>
</filter>
<filter id="filter8_d_1_185840" x="375" y="78" width="16" height="16" filterUnits="userSpaceOnUse" color-interpolation-filters="sRGB">
<feFlood flood-opacity="0" result="BackgroundImageFix"/>
<feColorMatrix in="SourceAlpha" type="matrix" values="0 0 0 0 0 0 0 0 0 0 0 0 0 0 0 0 0 0 127 0" result="hardAlpha"/>
<feOffset dy="2"/>
<feGaussianBlur stdDeviation="2"/>
<feColorMatrix type="matrix" values="0 0 0 0 0 0 0 0 0 0 0 0 0 0 0 0 0 0 0.45 0"/>
<feBlend mode="normal" in2="BackgroundImageFix" result="effect1_dropShadow_1_185840"/>
<feBlend mode="normal" in="SourceGraphic" in2="effect1_dropShadow_1_185840" result="shape"/>
</filter>
<filter id="filter9_d_1_185840" x="375" y="214" width="16" height="16" filterUnits="userSpaceOnUse" color-interpolation-filters="sRGB">
<feFlood flood-opacity="0" result="BackgroundImageFix"/>
<feColorMatrix in="SourceAlpha" type="matrix" values="0 0 0 0 0 0 0 0 0 0 0 0 0 0 0 0 0 0 127 0" result="hardAlpha"/>
<feOffset dy="2"/>
<feGaussianBlur stdDeviation="2"/>
<feColorMatrix type="matrix" values="0 0 0 0 0 0 0 0 0 0 0 0 0 0 0 0 0 0 0.45 0"/>
<feBlend mode="normal" in2="BackgroundImageFix" result="effect1_dropShadow_1_185840"/>
<feBlend mode="normal" in="SourceGraphic" in2="effect1_dropShadow_1_185840" result="shape"/>
</filter>
<filter id="filter10_d_1_185840" x="559" y="78" width="16" height="16" filterUnits="userSpaceOnUse" color-interpolation-filters="sRGB">
<feFlood flood-opacity="0" result="BackgroundImageFix"/>
<feColorMatrix in="SourceAlpha" type="matrix" values="0 0 0 0 0 0 0 0 0 0 0 0 0 0 0 0 0 0 127 0" result="hardAlpha"/>
<feOffset dy="2"/>
<feGaussianBlur stdDeviation="2"/>
<feColorMatrix type="matrix" values="0 0 0 0 0 0 0 0 0 0 0 0 0 0 0 0 0 0 0.45 0"/>
<feBlend mode="normal" in2="BackgroundImageFix" result="effect1_dropShadow_1_185840"/>
<feBlend mode="normal" in="SourceGraphic" in2="effect1_dropShadow_1_185840" result="shape"/>
</filter>
<filter id="filter11_d_1_185840" x="559" y="214" width="16" height="16" filterUnits="userSpaceOnUse" color-interpolation-filters="sRGB">
<feFlood flood-opacity="0" result="BackgroundImageFix"/>
<feColorMatrix in="SourceAlpha" type="matrix" values="0 0 0 0 0 0 0 0 0 0 0 0 0 0 0 0 0 0 127 0" result="hardAlpha"/>
<feOffset dy="2"/>
<feGaussianBlur stdDeviation="2"/>
<feColorMatrix type="matrix" values="0 0 0 0 0 0 0 0 0 0 0 0 0 0 0 0 0 0 0.45 0"/>
<feBlend mode="normal" in2="BackgroundImageFix" result="effect1_dropShadow_1_185840"/>
<feBlend mode="normal" in="SourceGraphic" in2="effect1_dropShadow_1_185840" result="shape"/>
</filter>
<filter id="filter12_d_1_185840" x="789" y="0.5" width="16" height="16" filterUnits="userSpaceOnUse" color-interpolation-filters="sRGB">
<feFlood flood-opacity="0" result="BackgroundImageFix"/>
<feColorMatrix in="SourceAlpha" type="matrix" values="0 0 0 0 0 0 0 0 0 0 0 0 0 0 0 0 0 0 127 0" result="hardAlpha"/>
<feOffset dy="2"/>
<feGaussianBlur stdDeviation="2"/>
<feColorMatrix type="matrix" values="0 0 0 0 0 0 0 0 0 0 0 0 0 0 0 0 0 0 0.45 0"/>
<feBlend mode="normal" in2="BackgroundImageFix" result="effect1_dropShadow_1_185840"/>
<feBlend mode="normal" in="SourceGraphic" in2="effect1_dropShadow_1_185840" result="shape"/>
</filter>
<filter id="filter13_d_1_185840" x="789" y="226.5" width="16" height="16" filterUnits="userSpaceOnUse" color-interpolation-filters="sRGB">
<feFlood flood-opacity="0" result="BackgroundImageFix"/>
<feColorMatrix in="SourceAlpha" type="matrix" values="0 0 0 0 0 0 0 0 0 0 0 0 0 0 0 0 0 0 127 0" result="hardAlpha"/>
<feOffset dy="2"/>
<feGaussianBlur stdDeviation="2"/>
<feColorMatrix type="matrix" values="0 0 0 0 0 0 0 0 0 0 0 0 0 0 0 0 0 0 0.45 0"/>
<feBlend mode="normal" in2="BackgroundImageFix" result="effect1_dropShadow_1_185840"/>
<feBlend mode="normal" in="SourceGraphic" in2="effect1_dropShadow_1_185840" result="shape"/>
</filter>
<filter id="filter14_d_1_185840" x="923" y="0.5" width="16" height="16" filterUnits="userSpaceOnUse" color-interpolation-filters="sRGB">
<feFlood flood-opacity="0" result="BackgroundImageFix"/>
<feColorMatrix in="SourceAlpha" type="matrix" values="0 0 0 0 0 0 0 0 0 0 0 0 0 0 0 0 0 0 127 0" result="hardAlpha"/>
<feOffset dy="2"/>
<feGaussianBlur stdDeviation="2"/>
<feColorMatrix type="matrix" values="0 0 0 0 0 0 0 0 0 0 0 0 0 0 0 0 0 0 0.45 0"/>
<feBlend mode="normal" in2="BackgroundImageFix" result="effect1_dropShadow_1_185840"/>
<feBlend mode="normal" in="SourceGraphic" in2="effect1_dropShadow_1_185840" result="shape"/>
</filter>
<filter id="filter15_d_1_185840" x="923" y="226.5" width="16" height="16" filterUnits="userSpaceOnUse" color-interpolation-filters="sRGB">
<feFlood flood-opacity="0" result="BackgroundImageFix"/>
<feColorMatrix in="SourceAlpha" type="matrix" values="0 0 0 0 0 0 0 0 0 0 0 0 0 0 0 0 0 0 127 0" result="hardAlpha"/>
<feOffset dy="2"/>
<feGaussianBlur stdDeviation="2"/>
<feColorMatrix type="matrix" values="0 0 0 0 0 0 0 0 0 0 0 0 0 0 0 0 0 0 0.45 0"/>
<feBlend mode="normal" in2="BackgroundImageFix" result="effect1_dropShadow_1_185840"/>
<feBlend mode="normal" in="SourceGraphic" in2="effect1_dropShadow_1_185840" result="shape"/>
</filter>
<filter id="filter16_d_1_185840" x="1153" y="13" width="16" height="16" filterUnits="userSpaceOnUse" color-interpolation-filters="sRGB">
<feFlood flood-opacity="0" result="BackgroundImageFix"/>
<feColorMatrix in="SourceAlpha" type="matrix" values="0 0 0 0 0 0 0 0 0 0 0 0 0 0 0 0 0 0 127 0" result="hardAlpha"/>
<feOffset dy="2"/>
<feGaussianBlur stdDeviation="2"/>
<feColorMatrix type="matrix" values="0 0 0 0 0 0 0 0 0 0 0 0 0 0 0 0 0 0 0.45 0"/>
<feBlend mode="normal" in2="BackgroundImageFix" result="effect1_dropShadow_1_185840"/>
<feBlend mode="normal" in="SourceGraphic" in2="effect1_dropShadow_1_185840" result="shape"/>
</filter>
<filter id="filter17_d_1_185840" x="1153" y="239" width="16" height="16" filterUnits="userSpaceOnUse" color-interpolation-filters="sRGB">
<feFlood flood-opacity="0" result="BackgroundImageFix"/>
<feColorMatrix in="SourceAlpha" type="matrix" values="0 0 0 0 0 0 0 0 0 0 0 0 0 0 0 0 0 0 127 0" result="hardAlpha"/>
<feOffset dy="2"/>
<feGaussianBlur stdDeviation="2"/>
<feColorMatrix type="matrix" values="0 0 0 0 0 0 0 0 0 0 0 0 0 0 0 0 0 0 0.45 0"/>
<feBlend mode="normal" in2="BackgroundImageFix" result="effect1_dropShadow_1_185840"/>
<feBlend mode="normal" in="SourceGraphic" in2="effect1_dropShadow_1_185840" result="shape"/>
</filter>
<filter id="filter18_d_1_185840" x="1287" y="13" width="16" height="16" filterUnits="userSpaceOnUse" color-interpolation-filters="sRGB">
<feFlood flood-opacity="0" result="BackgroundImageFix"/>
<feColorMatrix in="SourceAlpha" type="matrix" values="0 0 0 0 0 0 0 0 0 0 0 0 0 0 0 0 0 0 127 0" result="hardAlpha"/>
<feOffset dy="2"/>
<feGaussianBlur stdDeviation="2"/>
<feColorMatrix type="matrix" values="0 0 0 0 0 0 0 0 0 0 0 0 0 0 0 0 0 0 0.45 0"/>
<feBlend mode="normal" in2="BackgroundImageFix" result="effect1_dropShadow_1_185840"/>
<feBlend mode="normal" in="SourceGraphic" in2="effect1_dropShadow_1_185840" result="shape"/>
</filter>
<filter id="filter19_d_1_185840" x="1287" y="239" width="16" height="16" filterUnits="userSpaceOnUse" color-interpolation-filters="sRGB">
<feFlood flood-opacity="0" result="BackgroundImageFix"/>
<feColorMatrix in="SourceAlpha" type="matrix" values="0 0 0 0 0 0 0 0 0 0 0 0 0 0 0 0 0 0 127 0" result="hardAlpha"/>
<feOffset dy="2"/>
<feGaussianBlur stdDeviation="2"/>
<feColorMatrix type="matrix" values="0 0 0 0 0 0 0 0 0 0 0 0 0 0 0 0 0 0 0.45 0"/>
<feBlend mode="normal" in2="BackgroundImageFix" result="effect1_dropShadow_1_185840"/>
<feBlend mode="normal" in="SourceGraphic" in2="effect1_dropShadow_1_185840" result="shape"/>
</filter>
</defs>
</svg>
