<svg width="60" height="65" viewBox="0 0 60 65" fill="none" xmlns="http://www.w3.org/2000/svg">
<path fill-rule="evenodd" clip-rule="evenodd" d="M55.8834 1.91301C54.2325 0.709885 52.1992 0 50 0H10C7.6917 0 5.56607 0.782097 3.87364 2.09576L9.55993 8.26706C10.0068 8.09457 10.4923 8 11 8H49C49.3701 8 49.7285 8.05027 50.0687 8.14436L55.8834 1.91301ZM52.7909 10.7204L58.4522 4.65342C59.4324 6.1998 60 8.03362 60 10V55C60 57.2115 59.2821 59.2553 58.0667 60.9112L52.5234 54.8951C52.8275 54.3311 53 53.6857 53 53V12C53 11.5525 52.9265 11.1221 52.7909 10.7204ZM9.782 56.8112C10.166 56.9338 10.5753 57 11 57H49C49.124 57 49.2468 56.9944 49.3679 56.9833L55.3351 63.4595C53.7911 64.4352 51.9615 65 50 65H10C7.75045 65 5.6744 64.2572 4.00371 63.0035L9.782 56.8112ZM7.09947 11.1096C7.03437 11.3959 7 11.6939 7 12V53C7 53.3913 7.05618 53.7694 7.16091 54.1268L1.47136 60.224C0.538115 58.7037 0 56.9147 0 55V10C0 8.14222 0.506599 6.40276 1.38919 4.91223L7.09947 11.1096Z" fill="#9D391F"/>
<path fill-rule="evenodd" clip-rule="evenodd" d="M10 13.1659V50.3141L27.2225 31.8574L10 13.1659ZM50 51.0649L32.3251 31.8825L50 12.9411V51.0649Z" fill="#FA861B"/>
<path fill-rule="evenodd" clip-rule="evenodd" d="M48.5516 9H11.241L29.7784 29.1185L48.5516 9ZM11.6865 54H47.6248L29.7693 34.6214L11.6865 54ZM49.2553 50.2567L50 51.0649V51.0014L49.2553 50.2567ZM50 13.0014V12.9411L49.1582 13.8432L50 13.0014Z" fill="black"/>
</svg>
