<svg width="60" height="64" viewBox="0 0 60 64" fill="none" xmlns="http://www.w3.org/2000/svg">
<path fill-rule="evenodd" clip-rule="evenodd" d="M10 0C4.47715 0 0 4.47715 0 10V54C0 59.5228 4.47715 64 10 64H50C55.5228 64 60 59.5228 60 54V10C60 4.47715 55.5228 0 50 0H10ZM11 7.87692C8.79086 7.87692 7 9.66779 7 11.8769V52.1231C7 54.3322 8.79086 56.1231 11 56.1231H49C51.2091 56.1231 53 54.3322 53 52.1231V11.8769C53 9.66778 51.2091 7.87692 49 7.87692H11Z" fill="#9D391F"/>
<path fill-rule="evenodd" clip-rule="evenodd" d="M25.9382 10H13C11.3431 10 10 11.3431 10 13V36.8135L23.7769 36.8135L32.9721 20.8869L25.9382 10ZM37.516 25.1865L28.6545 40.5351L37.3539 54H48C49.6569 54 51 52.6569 51 51V25.1865L37.516 25.1865Z" fill="#64543C"/>
</svg>
