<svg width="26" height="53" viewBox="0 0 26 53" fill="none" xmlns="http://www.w3.org/2000/svg">
<path fill-rule="evenodd" clip-rule="evenodd" d="M23.752 50.5824V44.6146C14.4918 42.4943 7.84071 36.6647 7.84071 29.8053C7.84071 22.9459 14.4918 17.1163 23.752 14.9961V9.02819C19.1921 9.9072 15.0054 11.56 11.5341 13.8612C6.21845 17.3851 2 22.904 2 29.8053C2 36.7066 6.21845 42.2256 11.5341 45.7494C15.0054 48.0506 19.1921 49.7034 23.752 50.5824ZM23.752 4.13661V2H21.3487L19.6409 6.9489L23.752 4.13661Z" fill="#E03B3B"/>
<path d="M23.752 44.6146H25.752V43.0208L24.1983 42.665L23.752 44.6146ZM23.752 50.5824L23.3734 52.5463L25.752 53.0048V50.5824H23.752ZM23.752 14.9961L24.1983 16.9456L25.752 16.5899V14.9961H23.752ZM23.752 9.02819H25.752V6.60583L23.3734 7.06435L23.752 9.02819ZM11.5341 13.8612L10.429 12.1943L10.429 12.1943L11.5341 13.8612ZM11.5341 45.7494L10.429 47.4164L10.429 47.4164L11.5341 45.7494ZM23.752 2H25.752V0H23.752V2ZM23.752 4.13661L24.8812 5.78732L25.752 5.19164V4.13661H23.752ZM21.3487 2V0H19.9232L19.4581 1.34758L21.3487 2ZM19.6409 6.9489L17.7503 6.29648L15.7768 12.0155L20.7701 8.59961L19.6409 6.9489ZM21.752 44.6146V50.5824H25.752V44.6146H21.752ZM24.1983 42.665C15.2761 40.6222 9.84071 35.2515 9.84071 29.8053H5.84071C5.84071 38.078 13.7075 44.3665 23.3056 46.5641L24.1983 42.665ZM9.84071 29.8053C9.84071 24.3591 15.2761 18.9885 24.1983 16.9456L23.3056 13.0465C13.7075 15.2441 5.84071 21.5327 5.84071 29.8053H9.84071ZM21.752 9.02819V14.9961H25.752V9.02819H21.752ZM23.3734 7.06435C18.5855 7.98731 14.1456 9.73044 10.429 12.1943L12.6391 15.5282C15.8651 13.3896 19.7987 11.8271 24.1305 10.992L23.3734 7.06435ZM10.429 12.1943C4.76291 15.9504 0 22.0169 0 29.8053H4C4 23.7911 7.674 18.8197 12.6391 15.5282L10.429 12.1943ZM0 29.8053C0 37.5937 4.76291 43.6602 10.429 47.4164L12.6391 44.0824C7.674 40.7909 4 35.8196 4 29.8053H0ZM10.429 47.4164C14.1456 49.8802 18.5855 51.6233 23.3734 52.5463L24.1305 48.6186C19.7987 47.7836 15.8651 46.221 12.6391 44.0824L10.429 47.4164ZM21.752 2V4.13661H25.752V2H21.752ZM21.3487 4H23.752V0H21.3487V4ZM19.4581 1.34758L17.7503 6.29648L21.5315 7.60132L23.2393 2.65242L19.4581 1.34758ZM20.7701 8.59961L24.8812 5.78732L22.6227 2.4859L18.5117 5.29818L20.7701 8.59961Z" fill="black"/>
</svg>
