<svg width="60" height="65" viewBox="0 0 60 65" fill="none" xmlns="http://www.w3.org/2000/svg">
<path fill-rule="evenodd" clip-rule="evenodd" d="M27 0H10C4.47715 0 0 4.47715 0 10V28H7V12C7 9.79086 8.79086 8 11 8H27V0ZM33 8V0H50C55.5228 0 60 4.47715 60 10V28H53V12C53 9.79086 51.2091 8 49 8H33ZM33 57H49C51.2091 57 53 55.2091 53 53V34H60V55C60 60.5228 55.5228 65 50 65H33V57ZM7 34V53C7 55.2091 8.79086 57 11 57H27V65H10C4.47715 65 0 60.5228 0 55V34H7Z" fill="#9D391F"/>
<path fill-rule="evenodd" clip-rule="evenodd" d="M27 10H13C11.3431 10 10 11.3431 10 13V28H19L27 20V10ZM10 34V50C10 51.6569 11.3431 53 13 53H27V42L19 34H10ZM33 53H47C48.6569 53 50 51.6569 50 50V34H41.2782L33 42.2782V53ZM50 28H41.2782L33 19.7218V10H47C48.6569 10 50 11.3431 50 13V28Z" fill="#6B5B4C"/>
</svg>
