<svg width="60" height="65" viewBox="0 0 60 65" fill="none" xmlns="http://www.w3.org/2000/svg">
<path fill-rule="evenodd" clip-rule="evenodd" d="M10 0C4.47715 0 0 4.47715 0 10V55C0 60.5228 4.47715 65 10 65H50C55.5228 65 60 60.5228 60 55V10C60 4.47715 55.5228 0 50 0H10ZM11 8C8.79086 8 7 9.79086 7 12V53C7 55.2091 8.79086 57 11 57H49C51.2091 57 53 55.2091 53 53V12C53 9.79086 51.2091 8 49 8H11Z" fill="#9D391F"/>
<path fill-rule="evenodd" clip-rule="evenodd" d="M14 10H12C10.8954 10 10 10.8954 10 12V30H20.9698L21.0032 27H14V26L14 24V10ZM21.0745 20.5981L21.0366 24L17 24L17 10H43V24L39.2117 24L39.2473 20.8006L21.0745 20.5981ZM39.1783 27L39.1448 30H50V12C50 10.8954 49.1046 10 48 10H46V24V27H43H39.1783ZM50 33H39.1114L39.0669 37H43H46V40V53H48C49.1046 53 50 52.1046 50 51V33ZM43 40H39.0334L38.9987 43.1174L20.8259 42.9149L20.8584 40H17L17 53H43V40ZM20.9364 33L20.8918 37H14V38L14 40V53H12C10.8954 53 10 52.1046 10 51V33H20.9364Z" fill="#6B5B4C"/>
</svg>
