<svg width="227" height="231" viewBox="0 0 227 231" fill="none" xmlns="http://www.w3.org/2000/svg">
<g filter="url(#filter0_d_1_133161)">
<mask id="mask0_1_133161" style="mask-type:alpha" maskUnits="userSpaceOnUse" x="0" y="0" width="200" height="204">
<path d="M0 0L100 60L200 0V144L100 204L0 144V0Z" fill="#C15A5A"/>
</mask>
<g mask="url(#mask0_1_133161)">
<path d="M0 0L100 60L200 0V144L100 204L0 144V0Z" fill="#8673FF"/>
<circle cx="7" cy="101" r="63" fill="#FFF962" stroke="#403DDA" stroke-width="21"/>
<path d="M198.61 20L218.592 81.4975L283.254 81.4975L230.941 119.505L250.923 181.003L198.61 142.995L146.297 181.003L166.279 119.505L113.966 81.4975L178.628 81.4975L198.61 20Z" fill="#FC62FF" stroke="#403DDA" stroke-width="21" stroke-linejoin="round"/>
<path d="M91.983 42L159.966 159.75H24L91.983 42Z" fill="#9AFF89" stroke="#403DDA" stroke-width="21" stroke-linejoin="round"/>
</g>
</g>
<defs>
<filter id="filter0_d_1_133161" x="0" y="0" width="227" height="231" filterUnits="userSpaceOnUse" color-interpolation-filters="sRGB">
<feFlood flood-opacity="0" result="BackgroundImageFix"/>
<feColorMatrix in="SourceAlpha" type="matrix" values="0 0 0 0 0 0 0 0 0 0 0 0 0 0 0 0 0 0 127 0" result="hardAlpha"/>
<feOffset dx="17" dy="17"/>
<feGaussianBlur stdDeviation="5"/>
<feComposite in2="hardAlpha" operator="out"/>
<feColorMatrix type="matrix" values="0 0 0 0 0.984333 0 0 0 0 1 0 0 0 0 0.216667 0 0 0 0.25 0"/>
<feBlend mode="normal" in2="BackgroundImageFix" result="effect1_dropShadow_1_133161"/>
<feBlend mode="normal" in="SourceGraphic" in2="effect1_dropShadow_1_133161" result="shape"/>
</filter>
</defs>
</svg>
