<svg width="60" height="65" viewBox="0 0 60 65" fill="none" xmlns="http://www.w3.org/2000/svg">
<path fill-rule="evenodd" clip-rule="evenodd" d="M10 0C4.47715 0 0 4.47715 0 10V55C0 60.5228 4.47715 65 10 65H50C55.5228 65 60 60.5228 60 55V10C60 4.47715 55.5228 0 50 0H10ZM12.5858 18.6569C11.8047 17.8758 11.8047 16.6095 12.5858 15.8284L16.8284 11.5858C17.6095 10.8047 18.8758 10.8047 19.6569 11.5858L30.2273 22.1563L40.7978 11.5858C41.5789 10.8047 42.8452 10.8047 43.6262 11.5858L47.8689 15.8284C48.6499 16.6095 48.6499 17.8758 47.8689 18.6569L38.1716 28.3542V31.5288H45.1716C46.2761 31.5288 47.1716 32.4242 47.1716 33.5288V40.5288C47.1716 41.6334 46.2761 42.5288 45.1716 42.5288H38.1716V46.5288C38.1716 50.9471 34.5899 54.5288 30.1716 54.5288C25.7533 54.5288 22.1716 50.9471 22.1716 46.5288V42.5288H15.1716C14.067 42.5288 13.1716 41.6334 13.1716 40.5288V33.5288C13.1716 32.4242 14.067 31.5288 15.1716 31.5288H22.1716V28.2426L12.5858 18.6569Z" fill="#18130A"/>
<circle cx="30" cy="46" r="6" fill="#9D391F"/>
</svg>
