<svg width="408" height="328" viewBox="0 0 408 328" fill="none" xmlns="http://www.w3.org/2000/svg">
<rect width="408" height="328" fill="#0D0C0C"/>
<rect width="408" height="328" fill="#FFEE51"/>
<g filter="url(#filter0_d_1_81456)">
<path d="M79.3175 96.3325C76.8864 98.5612 73.1438 98.5612 70.7128 96.3002L70.3609 95.9772C53.5674 80.6345 42.5956 70.5892 43.0114 58.0567C43.2033 52.5656 45.9863 47.3007 50.4965 44.1998C58.9413 38.3858 69.3693 41.099 74.9991 47.7529C80.629 41.099 91.0569 38.3535 99.5017 44.1998C104.012 47.3007 106.795 52.5656 106.987 58.0567C107.435 70.5892 96.4309 80.6345 79.6373 96.0418L79.3175 96.3325Z" fill="#BF12EA"/>
<path d="M79.3175 96.3325C76.8864 98.5612 73.1438 98.5612 70.7128 96.3002L70.3609 95.9772C53.5674 80.6345 42.5956 70.5892 43.0114 58.0567C43.2033 52.5656 45.9863 47.3007 50.4965 44.1998C58.9413 38.3858 69.3693 41.099 74.9991 47.7529C80.629 41.099 91.0569 38.3535 99.5017 44.1998C104.012 47.3007 106.795 52.5656 106.987 58.0567C107.435 70.5892 96.4309 80.6345 79.6373 96.0418L79.3175 96.3325Z" stroke="#43C7FF" stroke-width="12"/>
</g>
<circle cx="75" cy="164" r="33" fill="#FF3D3D"/>
<circle opacity="0.8" cx="158" cy="164" r="33" fill="#FF3D3D"/>
<circle opacity="0.6" cx="241" cy="164" r="33" fill="#FF3D3D"/>
<circle opacity="0.5" cx="324" cy="164" r="33" fill="#FF3D3D"/>
<circle opacity="0.4" cx="75" cy="251" r="33" fill="#FF3D3D"/>
<circle opacity="0.3" cx="158" cy="251" r="33" fill="#FF3D3D"/>
<circle opacity="0.2" cx="241" cy="251" r="33" fill="#FF3D3D"/>
<circle opacity="0.1" cx="324" cy="251" r="33" fill="#FF3D3D"/>
<rect x="145" y="44" width="95" height="49" fill="#16C7FF" fill-opacity="0.4"/>
<rect x="203" y="44" width="95" height="49" fill="#16C7FF" fill-opacity="0.4"/>
<rect x="262" y="44" width="95" height="49" fill="#16C7FF" fill-opacity="0.4"/>
<path d="M15.96 13.8516V21H15.0566V14.9795L13.2354 15.6436V14.8281L15.8184 13.8516H15.96ZM23.0791 16.8789V17.9629C23.0791 18.5456 23.027 19.0371 22.9229 19.4375C22.8187 19.8379 22.6689 20.1602 22.4736 20.4043C22.2783 20.6484 22.0423 20.8258 21.7656 20.9365C21.4922 21.0439 21.1829 21.0977 20.8379 21.0977C20.5645 21.0977 20.3122 21.0635 20.0811 20.9951C19.8499 20.9268 19.6416 20.8177 19.4561 20.668C19.2738 20.515 19.1175 20.3164 18.9873 20.0723C18.8571 19.8281 18.7578 19.5319 18.6895 19.1836C18.6211 18.8353 18.5869 18.4284 18.5869 17.9629V16.8789C18.5869 16.2962 18.639 15.8079 18.7432 15.4141C18.8506 15.0202 19.002 14.7044 19.1973 14.4668C19.3926 14.2259 19.627 14.0534 19.9004 13.9492C20.1771 13.8451 20.4863 13.793 20.8281 13.793C21.1048 13.793 21.3587 13.8271 21.5898 13.8955C21.8242 13.9606 22.0326 14.0664 22.2148 14.2129C22.3971 14.3561 22.5518 14.5482 22.6787 14.7891C22.8089 15.0267 22.9082 15.318 22.9766 15.6631C23.0449 16.0081 23.0791 16.4134 23.0791 16.8789ZM22.1709 18.1094V16.7275C22.1709 16.4085 22.1514 16.1286 22.1123 15.8877C22.0765 15.6436 22.0228 15.4352 21.9512 15.2627C21.8796 15.0902 21.7884 14.9502 21.6777 14.8428C21.5703 14.7354 21.445 14.6572 21.3018 14.6084C21.1618 14.5563 21.0039 14.5303 20.8281 14.5303C20.6133 14.5303 20.4229 14.571 20.2568 14.6523C20.0908 14.7305 19.9508 14.8558 19.8369 15.0283C19.7262 15.2008 19.6416 15.4271 19.583 15.707C19.5244 15.987 19.4951 16.3271 19.4951 16.7275V18.1094C19.4951 18.4284 19.513 18.71 19.5488 18.9541C19.5879 19.1982 19.6449 19.4098 19.7197 19.5889C19.7946 19.7646 19.8857 19.9095 19.9932 20.0234C20.1006 20.1374 20.2243 20.222 20.3643 20.2773C20.5075 20.3294 20.6654 20.3555 20.8379 20.3555C21.0592 20.3555 21.2529 20.3132 21.4189 20.2285C21.585 20.1439 21.7233 20.012 21.834 19.833C21.9479 19.6507 22.0326 19.418 22.0879 19.1348C22.1432 18.8483 22.1709 18.5065 22.1709 18.1094ZM28.7041 16.8789V17.9629C28.7041 18.5456 28.652 19.0371 28.5479 19.4375C28.4437 19.8379 28.2939 20.1602 28.0986 20.4043C27.9033 20.6484 27.6673 20.8258 27.3906 20.9365C27.1172 21.0439 26.8079 21.0977 26.4629 21.0977C26.1895 21.0977 25.9372 21.0635 25.7061 20.9951C25.4749 20.9268 25.2666 20.8177 25.0811 20.668C24.8988 20.515 24.7425 20.3164 24.6123 20.0723C24.4821 19.8281 24.3828 19.5319 24.3145 19.1836C24.2461 18.8353 24.2119 18.4284 24.2119 17.9629V16.8789C24.2119 16.2962 24.264 15.8079 24.3682 15.4141C24.4756 15.0202 24.627 14.7044 24.8223 14.4668C25.0176 14.2259 25.252 14.0534 25.5254 13.9492C25.8021 13.8451 26.1113 13.793 26.4531 13.793C26.7298 13.793 26.9837 13.8271 27.2148 13.8955C27.4492 13.9606 27.6576 14.0664 27.8398 14.2129C28.0221 14.3561 28.1768 14.5482 28.3037 14.7891C28.4339 15.0267 28.5332 15.318 28.6016 15.6631C28.6699 16.0081 28.7041 16.4134 28.7041 16.8789ZM27.7959 18.1094V16.7275C27.7959 16.4085 27.7764 16.1286 27.7373 15.8877C27.7015 15.6436 27.6478 15.4352 27.5762 15.2627C27.5046 15.0902 27.4134 14.9502 27.3027 14.8428C27.1953 14.7354 27.07 14.6572 26.9268 14.6084C26.7868 14.5563 26.6289 14.5303 26.4531 14.5303C26.2383 14.5303 26.0479 14.571 25.8818 14.6523C25.7158 14.7305 25.5758 14.8558 25.4619 15.0283C25.3512 15.2008 25.2666 15.4271 25.208 15.707C25.1494 15.987 25.1201 16.3271 25.1201 16.7275V18.1094C25.1201 18.4284 25.138 18.71 25.1738 18.9541C25.2129 19.1982 25.2699 19.4098 25.3447 19.5889C25.4196 19.7646 25.5107 19.9095 25.6182 20.0234C25.7256 20.1374 25.8493 20.222 25.9893 20.2773C26.1325 20.3294 26.2904 20.3555 26.4629 20.3555C26.6842 20.3555 26.8779 20.3132 27.0439 20.2285C27.21 20.1439 27.3483 20.012 27.459 19.833C27.5729 19.6507 27.6576 19.418 27.7129 19.1348C27.7682 18.8483 27.7959 18.5065 27.7959 18.1094ZM29.7881 15.6338V15.2578C29.7881 14.9876 29.8467 14.7419 29.9639 14.5205C30.0811 14.2992 30.2487 14.1217 30.4668 13.9883C30.6849 13.8548 30.9437 13.7881 31.2432 13.7881C31.5492 13.7881 31.8096 13.8548 32.0244 13.9883C32.2425 14.1217 32.4102 14.2992 32.5273 14.5205C32.6445 14.7419 32.7031 14.9876 32.7031 15.2578V15.6338C32.7031 15.8975 32.6445 16.14 32.5273 16.3613C32.4134 16.5827 32.2474 16.7601 32.0293 16.8936C31.8145 17.027 31.5557 17.0938 31.2529 17.0938C30.9502 17.0938 30.6882 17.027 30.4668 16.8936C30.2487 16.7601 30.0811 16.5827 29.9639 16.3613C29.8467 16.14 29.7881 15.8975 29.7881 15.6338ZM30.4668 15.2578V15.6338C30.4668 15.7835 30.4945 15.9251 30.5498 16.0586C30.6084 16.1921 30.6963 16.3011 30.8135 16.3857C30.9307 16.4671 31.0771 16.5078 31.2529 16.5078C31.4287 16.5078 31.5736 16.4671 31.6875 16.3857C31.8014 16.3011 31.8861 16.1921 31.9414 16.0586C31.9967 15.9251 32.0244 15.7835 32.0244 15.6338V15.2578C32.0244 15.1048 31.9951 14.9616 31.9365 14.8281C31.8812 14.6914 31.7949 14.5824 31.6777 14.501C31.5638 14.4163 31.4189 14.374 31.2432 14.374C31.0706 14.374 30.9258 14.4163 30.8086 14.501C30.6947 14.5824 30.6084 14.6914 30.5498 14.8281C30.4945 14.9616 30.4668 15.1048 30.4668 15.2578ZM33.25 19.6377V19.2568C33.25 18.9899 33.3086 18.7458 33.4258 18.5244C33.543 18.3031 33.7106 18.1257 33.9287 17.9922C34.1468 17.8587 34.4056 17.792 34.7051 17.792C35.0111 17.792 35.2715 17.8587 35.4863 17.9922C35.7044 18.1257 35.8721 18.3031 35.9893 18.5244C36.1064 18.7458 36.165 18.9899 36.165 19.2568V19.6377C36.165 19.9046 36.1064 20.1488 35.9893 20.3701C35.8753 20.5915 35.7093 20.7689 35.4912 20.9023C35.2764 21.0358 35.0176 21.1025 34.7148 21.1025C34.4121 21.1025 34.1517 21.0358 33.9336 20.9023C33.7155 20.7689 33.5462 20.5915 33.4258 20.3701C33.3086 20.1488 33.25 19.9046 33.25 19.6377ZM33.9287 19.2568V19.6377C33.9287 19.7874 33.9564 19.9307 34.0117 20.0674C34.0703 20.2008 34.1582 20.3099 34.2754 20.3945C34.3926 20.4759 34.5391 20.5166 34.7148 20.5166C34.8906 20.5166 35.0355 20.4759 35.1494 20.3945C35.2666 20.3099 35.3529 20.2008 35.4082 20.0674C35.4635 19.9339 35.4912 19.7907 35.4912 19.6377V19.2568C35.4912 19.1038 35.4619 18.9606 35.4033 18.8271C35.348 18.6937 35.2617 18.5863 35.1445 18.5049C35.0306 18.4202 34.8841 18.3779 34.7051 18.3779C34.5326 18.3779 34.3877 18.4202 34.2705 18.5049C34.1566 18.5863 34.0703 18.6937 34.0117 18.8271C33.9564 18.9606 33.9287 19.1038 33.9287 19.2568ZM34.9297 14.9014L31.458 20.458L30.9502 20.1357L34.4219 14.5791L34.9297 14.9014Z" fill="black"/>
<rect x="145" y="18" width="212" height="15" fill="url(#paint0_linear_1_81456)"/>
<path d="M66.96 65.8516V73H66.0566V66.9795L64.2354 67.6436V66.8281L66.8184 65.8516H66.96ZM74.0791 68.8789V69.9629C74.0791 70.5456 74.027 71.0371 73.9229 71.4375C73.8187 71.8379 73.6689 72.1602 73.4736 72.4043C73.2783 72.6484 73.0423 72.8258 72.7656 72.9365C72.4922 73.0439 72.1829 73.0977 71.8379 73.0977C71.5645 73.0977 71.3122 73.0635 71.0811 72.9951C70.8499 72.9268 70.6416 72.8177 70.4561 72.668C70.2738 72.515 70.1175 72.3164 69.9873 72.0723C69.8571 71.8281 69.7578 71.5319 69.6895 71.1836C69.6211 70.8353 69.5869 70.4284 69.5869 69.9629V68.8789C69.5869 68.2962 69.639 67.8079 69.7432 67.4141C69.8506 67.0202 70.002 66.7044 70.1973 66.4668C70.3926 66.2259 70.627 66.0534 70.9004 65.9492C71.1771 65.8451 71.4863 65.793 71.8281 65.793C72.1048 65.793 72.3587 65.8271 72.5898 65.8955C72.8242 65.9606 73.0326 66.0664 73.2148 66.2129C73.3971 66.3561 73.5518 66.5482 73.6787 66.7891C73.8089 67.0267 73.9082 67.318 73.9766 67.6631C74.0449 68.0081 74.0791 68.4134 74.0791 68.8789ZM73.1709 70.1094V68.7275C73.1709 68.4085 73.1514 68.1286 73.1123 67.8877C73.0765 67.6436 73.0228 67.4352 72.9512 67.2627C72.8796 67.0902 72.7884 66.9502 72.6777 66.8428C72.5703 66.7354 72.445 66.6572 72.3018 66.6084C72.1618 66.5563 72.0039 66.5303 71.8281 66.5303C71.6133 66.5303 71.4229 66.571 71.2568 66.6523C71.0908 66.7305 70.9508 66.8558 70.8369 67.0283C70.7262 67.2008 70.6416 67.4271 70.583 67.707C70.5244 67.987 70.4951 68.3271 70.4951 68.7275V70.1094C70.4951 70.4284 70.513 70.71 70.5488 70.9541C70.5879 71.1982 70.6449 71.4098 70.7197 71.5889C70.7946 71.7646 70.8857 71.9095 70.9932 72.0234C71.1006 72.1374 71.2243 72.222 71.3643 72.2773C71.5075 72.3294 71.6654 72.3555 71.8379 72.3555C72.0592 72.3555 72.2529 72.3132 72.4189 72.2285C72.585 72.1439 72.7233 72.012 72.834 71.833C72.9479 71.6507 73.0326 71.418 73.0879 71.1348C73.1432 70.8483 73.1709 70.5065 73.1709 70.1094ZM79.7041 68.8789V69.9629C79.7041 70.5456 79.652 71.0371 79.5479 71.4375C79.4437 71.8379 79.2939 72.1602 79.0986 72.4043C78.9033 72.6484 78.6673 72.8258 78.3906 72.9365C78.1172 73.0439 77.8079 73.0977 77.4629 73.0977C77.1895 73.0977 76.9372 73.0635 76.7061 72.9951C76.4749 72.9268 76.2666 72.8177 76.0811 72.668C75.8988 72.515 75.7425 72.3164 75.6123 72.0723C75.4821 71.8281 75.3828 71.5319 75.3145 71.1836C75.2461 70.8353 75.2119 70.4284 75.2119 69.9629V68.8789C75.2119 68.2962 75.264 67.8079 75.3682 67.4141C75.4756 67.0202 75.627 66.7044 75.8223 66.4668C76.0176 66.2259 76.252 66.0534 76.5254 65.9492C76.8021 65.8451 77.1113 65.793 77.4531 65.793C77.7298 65.793 77.9837 65.8271 78.2148 65.8955C78.4492 65.9606 78.6576 66.0664 78.8398 66.2129C79.0221 66.3561 79.1768 66.5482 79.3037 66.7891C79.4339 67.0267 79.5332 67.318 79.6016 67.6631C79.6699 68.0081 79.7041 68.4134 79.7041 68.8789ZM78.7959 70.1094V68.7275C78.7959 68.4085 78.7764 68.1286 78.7373 67.8877C78.7015 67.6436 78.6478 67.4352 78.5762 67.2627C78.5046 67.0902 78.4134 66.9502 78.3027 66.8428C78.1953 66.7354 78.07 66.6572 77.9268 66.6084C77.7868 66.5563 77.6289 66.5303 77.4531 66.5303C77.2383 66.5303 77.0479 66.571 76.8818 66.6523C76.7158 66.7305 76.5758 66.8558 76.4619 67.0283C76.3512 67.2008 76.2666 67.4271 76.208 67.707C76.1494 67.987 76.1201 68.3271 76.1201 68.7275V70.1094C76.1201 70.4284 76.138 70.71 76.1738 70.9541C76.2129 71.1982 76.2699 71.4098 76.3447 71.5889C76.4196 71.7646 76.5107 71.9095 76.6182 72.0234C76.7256 72.1374 76.8493 72.222 76.9893 72.2773C77.1325 72.3294 77.2904 72.3555 77.4629 72.3555C77.6842 72.3555 77.8779 72.3132 78.0439 72.2285C78.21 72.1439 78.3483 72.012 78.459 71.833C78.5729 71.6507 78.6576 71.418 78.7129 71.1348C78.7682 70.8483 78.7959 70.5065 78.7959 70.1094ZM80.7881 67.6338V67.2578C80.7881 66.9876 80.8467 66.7419 80.9639 66.5205C81.0811 66.2992 81.2487 66.1217 81.4668 65.9883C81.6849 65.8548 81.9437 65.7881 82.2432 65.7881C82.5492 65.7881 82.8096 65.8548 83.0244 65.9883C83.2425 66.1217 83.4102 66.2992 83.5273 66.5205C83.6445 66.7419 83.7031 66.9876 83.7031 67.2578V67.6338C83.7031 67.8975 83.6445 68.14 83.5273 68.3613C83.4134 68.5827 83.2474 68.7601 83.0293 68.8936C82.8145 69.027 82.5557 69.0938 82.2529 69.0938C81.9502 69.0938 81.6882 69.027 81.4668 68.8936C81.2487 68.7601 81.0811 68.5827 80.9639 68.3613C80.8467 68.14 80.7881 67.8975 80.7881 67.6338ZM81.4668 67.2578V67.6338C81.4668 67.7835 81.4945 67.9251 81.5498 68.0586C81.6084 68.1921 81.6963 68.3011 81.8135 68.3857C81.9307 68.4671 82.0771 68.5078 82.2529 68.5078C82.4287 68.5078 82.5736 68.4671 82.6875 68.3857C82.8014 68.3011 82.8861 68.1921 82.9414 68.0586C82.9967 67.9251 83.0244 67.7835 83.0244 67.6338V67.2578C83.0244 67.1048 82.9951 66.9616 82.9365 66.8281C82.8812 66.6914 82.7949 66.5824 82.6777 66.501C82.5638 66.4163 82.4189 66.374 82.2432 66.374C82.0706 66.374 81.9258 66.4163 81.8086 66.501C81.6947 66.5824 81.6084 66.6914 81.5498 66.8281C81.4945 66.9616 81.4668 67.1048 81.4668 67.2578ZM84.25 71.6377V71.2568C84.25 70.9899 84.3086 70.7458 84.4258 70.5244C84.543 70.3031 84.7106 70.1257 84.9287 69.9922C85.1468 69.8587 85.4056 69.792 85.7051 69.792C86.0111 69.792 86.2715 69.8587 86.4863 69.9922C86.7044 70.1257 86.8721 70.3031 86.9893 70.5244C87.1064 70.7458 87.165 70.9899 87.165 71.2568V71.6377C87.165 71.9046 87.1064 72.1488 86.9893 72.3701C86.8753 72.5915 86.7093 72.7689 86.4912 72.9023C86.2764 73.0358 86.0176 73.1025 85.7148 73.1025C85.4121 73.1025 85.1517 73.0358 84.9336 72.9023C84.7155 72.7689 84.5462 72.5915 84.4258 72.3701C84.3086 72.1488 84.25 71.9046 84.25 71.6377ZM84.9287 71.2568V71.6377C84.9287 71.7874 84.9564 71.9307 85.0117 72.0674C85.0703 72.2008 85.1582 72.3099 85.2754 72.3945C85.3926 72.4759 85.5391 72.5166 85.7148 72.5166C85.8906 72.5166 86.0355 72.4759 86.1494 72.3945C86.2666 72.3099 86.3529 72.2008 86.4082 72.0674C86.4635 71.9339 86.4912 71.7907 86.4912 71.6377V71.2568C86.4912 71.1038 86.4619 70.9606 86.4033 70.8271C86.348 70.6937 86.2617 70.5863 86.1445 70.5049C86.0306 70.4202 85.8841 70.3779 85.7051 70.3779C85.5326 70.3779 85.3877 70.4202 85.2705 70.5049C85.1566 70.5863 85.0703 70.6937 85.0117 70.8271C84.9564 70.9606 84.9287 71.1038 84.9287 71.2568ZM85.9297 66.9014L82.458 72.458L81.9502 72.1357L85.4219 66.5791L85.9297 66.9014Z" fill="black"/>
<path d="M66.96 159.852V167H66.0566V160.979L64.2354 161.644V160.828L66.8184 159.852H66.96ZM74.0791 162.879V163.963C74.0791 164.546 74.027 165.037 73.9229 165.438C73.8187 165.838 73.6689 166.16 73.4736 166.404C73.2783 166.648 73.0423 166.826 72.7656 166.937C72.4922 167.044 72.1829 167.098 71.8379 167.098C71.5645 167.098 71.3122 167.063 71.0811 166.995C70.8499 166.927 70.6416 166.818 70.4561 166.668C70.2738 166.515 70.1175 166.316 69.9873 166.072C69.8571 165.828 69.7578 165.532 69.6895 165.184C69.6211 164.835 69.5869 164.428 69.5869 163.963V162.879C69.5869 162.296 69.639 161.808 69.7432 161.414C69.8506 161.02 70.002 160.704 70.1973 160.467C70.3926 160.226 70.627 160.053 70.9004 159.949C71.1771 159.845 71.4863 159.793 71.8281 159.793C72.1048 159.793 72.3587 159.827 72.5898 159.896C72.8242 159.961 73.0326 160.066 73.2148 160.213C73.3971 160.356 73.5518 160.548 73.6787 160.789C73.8089 161.027 73.9082 161.318 73.9766 161.663C74.0449 162.008 74.0791 162.413 74.0791 162.879ZM73.1709 164.109V162.728C73.1709 162.409 73.1514 162.129 73.1123 161.888C73.0765 161.644 73.0228 161.435 72.9512 161.263C72.8796 161.09 72.7884 160.95 72.6777 160.843C72.5703 160.735 72.445 160.657 72.3018 160.608C72.1618 160.556 72.0039 160.53 71.8281 160.53C71.6133 160.53 71.4229 160.571 71.2568 160.652C71.0908 160.73 70.9508 160.856 70.8369 161.028C70.7262 161.201 70.6416 161.427 70.583 161.707C70.5244 161.987 70.4951 162.327 70.4951 162.728V164.109C70.4951 164.428 70.513 164.71 70.5488 164.954C70.5879 165.198 70.6449 165.41 70.7197 165.589C70.7946 165.765 70.8857 165.91 70.9932 166.023C71.1006 166.137 71.2243 166.222 71.3643 166.277C71.5075 166.329 71.6654 166.355 71.8379 166.355C72.0592 166.355 72.2529 166.313 72.4189 166.229C72.585 166.144 72.7233 166.012 72.834 165.833C72.9479 165.651 73.0326 165.418 73.0879 165.135C73.1432 164.848 73.1709 164.507 73.1709 164.109ZM79.7041 162.879V163.963C79.7041 164.546 79.652 165.037 79.5479 165.438C79.4437 165.838 79.2939 166.16 79.0986 166.404C78.9033 166.648 78.6673 166.826 78.3906 166.937C78.1172 167.044 77.8079 167.098 77.4629 167.098C77.1895 167.098 76.9372 167.063 76.7061 166.995C76.4749 166.927 76.2666 166.818 76.0811 166.668C75.8988 166.515 75.7425 166.316 75.6123 166.072C75.4821 165.828 75.3828 165.532 75.3145 165.184C75.2461 164.835 75.2119 164.428 75.2119 163.963V162.879C75.2119 162.296 75.264 161.808 75.3682 161.414C75.4756 161.02 75.627 160.704 75.8223 160.467C76.0176 160.226 76.252 160.053 76.5254 159.949C76.8021 159.845 77.1113 159.793 77.4531 159.793C77.7298 159.793 77.9837 159.827 78.2148 159.896C78.4492 159.961 78.6576 160.066 78.8398 160.213C79.0221 160.356 79.1768 160.548 79.3037 160.789C79.4339 161.027 79.5332 161.318 79.6016 161.663C79.6699 162.008 79.7041 162.413 79.7041 162.879ZM78.7959 164.109V162.728C78.7959 162.409 78.7764 162.129 78.7373 161.888C78.7015 161.644 78.6478 161.435 78.5762 161.263C78.5046 161.09 78.4134 160.95 78.3027 160.843C78.1953 160.735 78.07 160.657 77.9268 160.608C77.7868 160.556 77.6289 160.53 77.4531 160.53C77.2383 160.53 77.0479 160.571 76.8818 160.652C76.7158 160.73 76.5758 160.856 76.4619 161.028C76.3512 161.201 76.2666 161.427 76.208 161.707C76.1494 161.987 76.1201 162.327 76.1201 162.728V164.109C76.1201 164.428 76.138 164.71 76.1738 164.954C76.2129 165.198 76.2699 165.41 76.3447 165.589C76.4196 165.765 76.5107 165.91 76.6182 166.023C76.7256 166.137 76.8493 166.222 76.9893 166.277C77.1325 166.329 77.2904 166.355 77.4629 166.355C77.6842 166.355 77.8779 166.313 78.0439 166.229C78.21 166.144 78.3483 166.012 78.459 165.833C78.5729 165.651 78.6576 165.418 78.7129 165.135C78.7682 164.848 78.7959 164.507 78.7959 164.109ZM80.7881 161.634V161.258C80.7881 160.988 80.8467 160.742 80.9639 160.521C81.0811 160.299 81.2487 160.122 81.4668 159.988C81.6849 159.855 81.9437 159.788 82.2432 159.788C82.5492 159.788 82.8096 159.855 83.0244 159.988C83.2425 160.122 83.4102 160.299 83.5273 160.521C83.6445 160.742 83.7031 160.988 83.7031 161.258V161.634C83.7031 161.897 83.6445 162.14 83.5273 162.361C83.4134 162.583 83.2474 162.76 83.0293 162.894C82.8145 163.027 82.5557 163.094 82.2529 163.094C81.9502 163.094 81.6882 163.027 81.4668 162.894C81.2487 162.76 81.0811 162.583 80.9639 162.361C80.8467 162.14 80.7881 161.897 80.7881 161.634ZM81.4668 161.258V161.634C81.4668 161.784 81.4945 161.925 81.5498 162.059C81.6084 162.192 81.6963 162.301 81.8135 162.386C81.9307 162.467 82.0771 162.508 82.2529 162.508C82.4287 162.508 82.5736 162.467 82.6875 162.386C82.8014 162.301 82.8861 162.192 82.9414 162.059C82.9967 161.925 83.0244 161.784 83.0244 161.634V161.258C83.0244 161.105 82.9951 160.962 82.9365 160.828C82.8812 160.691 82.7949 160.582 82.6777 160.501C82.5638 160.416 82.4189 160.374 82.2432 160.374C82.0706 160.374 81.9258 160.416 81.8086 160.501C81.6947 160.582 81.6084 160.691 81.5498 160.828C81.4945 160.962 81.4668 161.105 81.4668 161.258ZM84.25 165.638V165.257C84.25 164.99 84.3086 164.746 84.4258 164.524C84.543 164.303 84.7106 164.126 84.9287 163.992C85.1468 163.859 85.4056 163.792 85.7051 163.792C86.0111 163.792 86.2715 163.859 86.4863 163.992C86.7044 164.126 86.8721 164.303 86.9893 164.524C87.1064 164.746 87.165 164.99 87.165 165.257V165.638C87.165 165.905 87.1064 166.149 86.9893 166.37C86.8753 166.591 86.7093 166.769 86.4912 166.902C86.2764 167.036 86.0176 167.103 85.7148 167.103C85.4121 167.103 85.1517 167.036 84.9336 166.902C84.7155 166.769 84.5462 166.591 84.4258 166.37C84.3086 166.149 84.25 165.905 84.25 165.638ZM84.9287 165.257V165.638C84.9287 165.787 84.9564 165.931 85.0117 166.067C85.0703 166.201 85.1582 166.31 85.2754 166.395C85.3926 166.476 85.5391 166.517 85.7148 166.517C85.8906 166.517 86.0355 166.476 86.1494 166.395C86.2666 166.31 86.3529 166.201 86.4082 166.067C86.4635 165.934 86.4912 165.791 86.4912 165.638V165.257C86.4912 165.104 86.4619 164.961 86.4033 164.827C86.348 164.694 86.2617 164.586 86.1445 164.505C86.0306 164.42 85.8841 164.378 85.7051 164.378C85.5326 164.378 85.3877 164.42 85.2705 164.505C85.1566 164.586 85.0703 164.694 85.0117 164.827C84.9564 164.961 84.9287 165.104 84.9287 165.257ZM85.9297 160.901L82.458 166.458L81.9502 166.136L85.4219 160.579L85.9297 160.901Z" fill="black"/>
<path d="M154.286 165.076C154.286 165.509 154.185 165.877 153.983 166.18C153.785 166.479 153.515 166.707 153.173 166.863C152.834 167.02 152.452 167.098 152.025 167.098C151.599 167.098 151.215 167.02 150.873 166.863C150.531 166.707 150.261 166.479 150.062 166.18C149.864 165.877 149.765 165.509 149.765 165.076C149.765 164.793 149.818 164.534 149.926 164.3C150.036 164.062 150.191 163.855 150.39 163.68C150.591 163.504 150.829 163.369 151.103 163.274C151.379 163.177 151.684 163.128 152.016 163.128C152.452 163.128 152.841 163.213 153.183 163.382C153.524 163.548 153.793 163.777 153.988 164.07C154.187 164.363 154.286 164.699 154.286 165.076ZM153.378 165.057C153.378 164.793 153.321 164.56 153.207 164.358C153.093 164.153 152.934 163.994 152.729 163.88C152.523 163.766 152.286 163.709 152.016 163.709C151.739 163.709 151.5 163.766 151.298 163.88C151.099 163.994 150.945 164.153 150.834 164.358C150.723 164.56 150.668 164.793 150.668 165.057C150.668 165.33 150.722 165.564 150.829 165.76C150.94 165.952 151.096 166.1 151.298 166.204C151.503 166.305 151.745 166.355 152.025 166.355C152.305 166.355 152.546 166.305 152.748 166.204C152.95 166.1 153.104 165.952 153.212 165.76C153.323 165.564 153.378 165.33 153.378 165.057ZM154.12 161.741C154.12 162.086 154.029 162.397 153.847 162.674C153.664 162.951 153.415 163.169 153.1 163.328C152.784 163.488 152.426 163.567 152.025 163.567C151.618 163.567 151.256 163.488 150.937 163.328C150.621 163.169 150.373 162.951 150.194 162.674C150.015 162.397 149.926 162.086 149.926 161.741C149.926 161.328 150.015 160.976 150.194 160.687C150.377 160.397 150.626 160.175 150.941 160.022C151.257 159.869 151.617 159.793 152.021 159.793C152.427 159.793 152.789 159.869 153.104 160.022C153.42 160.175 153.668 160.397 153.847 160.687C154.029 160.976 154.12 161.328 154.12 161.741ZM153.217 161.756C153.217 161.518 153.166 161.308 153.065 161.126C152.965 160.944 152.825 160.8 152.646 160.696C152.466 160.589 152.258 160.535 152.021 160.535C151.783 160.535 151.575 160.586 151.396 160.687C151.22 160.784 151.081 160.924 150.98 161.106C150.883 161.289 150.834 161.505 150.834 161.756C150.834 162 150.883 162.213 150.98 162.396C151.081 162.578 151.221 162.719 151.4 162.82C151.579 162.921 151.788 162.972 152.025 162.972C152.263 162.972 152.47 162.921 152.646 162.82C152.825 162.719 152.965 162.578 153.065 162.396C153.166 162.213 153.217 162 153.217 161.756ZM159.892 162.879V163.963C159.892 164.546 159.84 165.037 159.735 165.438C159.631 165.838 159.481 166.16 159.286 166.404C159.091 166.648 158.855 166.826 158.578 166.937C158.305 167.044 157.995 167.098 157.65 167.098C157.377 167.098 157.125 167.063 156.894 166.995C156.662 166.927 156.454 166.818 156.269 166.668C156.086 166.515 155.93 166.316 155.8 166.072C155.67 165.828 155.57 165.532 155.502 165.184C155.434 164.835 155.399 164.428 155.399 163.963V162.879C155.399 162.296 155.451 161.808 155.556 161.414C155.663 161.02 155.814 160.704 156.01 160.467C156.205 160.226 156.439 160.053 156.713 159.949C156.99 159.845 157.299 159.793 157.641 159.793C157.917 159.793 158.171 159.827 158.402 159.896C158.637 159.961 158.845 160.066 159.027 160.213C159.21 160.356 159.364 160.548 159.491 160.789C159.621 161.027 159.721 161.318 159.789 161.663C159.857 162.008 159.892 162.413 159.892 162.879ZM158.983 164.109V162.728C158.983 162.409 158.964 162.129 158.925 161.888C158.889 161.644 158.835 161.435 158.764 161.263C158.692 161.09 158.601 160.95 158.49 160.843C158.383 160.735 158.257 160.657 158.114 160.608C157.974 160.556 157.816 160.53 157.641 160.53C157.426 160.53 157.235 160.571 157.069 160.652C156.903 160.73 156.763 160.856 156.649 161.028C156.539 161.201 156.454 161.427 156.396 161.707C156.337 161.987 156.308 162.327 156.308 162.728V164.109C156.308 164.428 156.326 164.71 156.361 164.954C156.4 165.198 156.457 165.41 156.532 165.589C156.607 165.765 156.698 165.91 156.806 166.023C156.913 166.137 157.037 166.222 157.177 166.277C157.32 166.329 157.478 166.355 157.65 166.355C157.872 166.355 158.065 166.313 158.231 166.229C158.397 166.144 158.536 166.012 158.646 165.833C158.76 165.651 158.845 165.418 158.9 165.135C158.956 164.848 158.983 164.507 158.983 164.109ZM160.976 161.634V161.258C160.976 160.988 161.034 160.742 161.151 160.521C161.269 160.299 161.436 160.122 161.654 159.988C161.872 159.855 162.131 159.788 162.431 159.788C162.737 159.788 162.997 159.855 163.212 159.988C163.43 160.122 163.598 160.299 163.715 160.521C163.832 160.742 163.891 160.988 163.891 161.258V161.634C163.891 161.897 163.832 162.14 163.715 162.361C163.601 162.583 163.435 162.76 163.217 162.894C163.002 163.027 162.743 163.094 162.44 163.094C162.138 163.094 161.876 163.027 161.654 162.894C161.436 162.76 161.269 162.583 161.151 162.361C161.034 162.14 160.976 161.897 160.976 161.634ZM161.654 161.258V161.634C161.654 161.784 161.682 161.925 161.737 162.059C161.796 162.192 161.884 162.301 162.001 162.386C162.118 162.467 162.265 162.508 162.44 162.508C162.616 162.508 162.761 162.467 162.875 162.386C162.989 162.301 163.074 162.192 163.129 162.059C163.184 161.925 163.212 161.784 163.212 161.634V161.258C163.212 161.105 163.183 160.962 163.124 160.828C163.069 160.691 162.982 160.582 162.865 160.501C162.751 160.416 162.606 160.374 162.431 160.374C162.258 160.374 162.113 160.416 161.996 160.501C161.882 160.582 161.796 160.691 161.737 160.828C161.682 160.962 161.654 161.105 161.654 161.258ZM164.438 165.638V165.257C164.438 164.99 164.496 164.746 164.613 164.524C164.73 164.303 164.898 164.126 165.116 163.992C165.334 163.859 165.593 163.792 165.893 163.792C166.199 163.792 166.459 163.859 166.674 163.992C166.892 164.126 167.06 164.303 167.177 164.524C167.294 164.746 167.353 164.99 167.353 165.257V165.638C167.353 165.905 167.294 166.149 167.177 166.37C167.063 166.591 166.897 166.769 166.679 166.902C166.464 167.036 166.205 167.103 165.902 167.103C165.6 167.103 165.339 167.036 165.121 166.902C164.903 166.769 164.734 166.591 164.613 166.37C164.496 166.149 164.438 165.905 164.438 165.638ZM165.116 165.257V165.638C165.116 165.787 165.144 165.931 165.199 166.067C165.258 166.201 165.346 166.31 165.463 166.395C165.58 166.476 165.727 166.517 165.902 166.517C166.078 166.517 166.223 166.476 166.337 166.395C166.454 166.31 166.54 166.201 166.596 166.067C166.651 165.934 166.679 165.791 166.679 165.638V165.257C166.679 165.104 166.649 164.961 166.591 164.827C166.535 164.694 166.449 164.586 166.332 164.505C166.218 164.42 166.072 164.378 165.893 164.378C165.72 164.378 165.575 164.42 165.458 164.505C165.344 164.586 165.258 164.694 165.199 164.827C165.144 164.961 165.116 165.104 165.116 165.257ZM166.117 160.901L162.646 166.458L162.138 166.136L165.609 160.579L166.117 160.901Z" fill="black"/>
<path d="M236.271 159.881H236.349V160.647H236.271C235.792 160.647 235.392 160.726 235.069 160.882C234.747 161.035 234.492 161.242 234.303 161.502C234.114 161.759 233.977 162.049 233.893 162.371C233.811 162.693 233.771 163.021 233.771 163.353V164.397C233.771 164.713 233.808 164.993 233.883 165.237C233.958 165.478 234.06 165.682 234.19 165.848C234.321 166.014 234.467 166.139 234.63 166.224C234.796 166.308 234.968 166.351 235.147 166.351C235.356 166.351 235.541 166.312 235.704 166.233C235.867 166.152 236.004 166.04 236.114 165.896C236.228 165.75 236.314 165.577 236.373 165.379C236.432 165.18 236.461 164.962 236.461 164.725C236.461 164.513 236.435 164.31 236.383 164.114C236.331 163.916 236.251 163.74 236.144 163.587C236.036 163.431 235.901 163.309 235.738 163.221C235.579 163.13 235.388 163.084 235.167 163.084C234.916 163.084 234.682 163.146 234.464 163.27C234.249 163.39 234.072 163.549 233.932 163.748C233.795 163.943 233.717 164.157 233.697 164.388L233.219 164.383C233.264 164.018 233.349 163.707 233.473 163.45C233.6 163.19 233.756 162.978 233.941 162.815C234.13 162.649 234.34 162.529 234.571 162.454C234.806 162.376 235.053 162.337 235.313 162.337C235.668 162.337 235.974 162.404 236.231 162.537C236.489 162.671 236.7 162.85 236.866 163.074C237.032 163.296 237.154 163.546 237.232 163.826C237.314 164.103 237.354 164.388 237.354 164.681C237.354 165.016 237.307 165.33 237.213 165.623C237.118 165.916 236.977 166.173 236.788 166.395C236.603 166.616 236.373 166.788 236.1 166.912C235.826 167.036 235.509 167.098 235.147 167.098C234.763 167.098 234.428 167.02 234.142 166.863C233.855 166.704 233.618 166.492 233.429 166.229C233.24 165.965 233.098 165.672 233.004 165.35C232.91 165.027 232.862 164.7 232.862 164.368V163.943C232.862 163.442 232.913 162.951 233.014 162.469C233.115 161.987 233.289 161.551 233.536 161.16C233.787 160.77 234.133 160.459 234.576 160.228C235.019 159.996 235.584 159.881 236.271 159.881ZM242.892 162.879V163.963C242.892 164.546 242.84 165.037 242.735 165.438C242.631 165.838 242.481 166.16 242.286 166.404C242.091 166.648 241.855 166.826 241.578 166.937C241.305 167.044 240.995 167.098 240.65 167.098C240.377 167.098 240.125 167.063 239.894 166.995C239.662 166.927 239.454 166.818 239.269 166.668C239.086 166.515 238.93 166.316 238.8 166.072C238.67 165.828 238.57 165.532 238.502 165.184C238.434 164.835 238.399 164.428 238.399 163.963V162.879C238.399 162.296 238.451 161.808 238.556 161.414C238.663 161.02 238.814 160.704 239.01 160.467C239.205 160.226 239.439 160.053 239.713 159.949C239.99 159.845 240.299 159.793 240.641 159.793C240.917 159.793 241.171 159.827 241.402 159.896C241.637 159.961 241.845 160.066 242.027 160.213C242.21 160.356 242.364 160.548 242.491 160.789C242.621 161.027 242.721 161.318 242.789 161.663C242.857 162.008 242.892 162.413 242.892 162.879ZM241.983 164.109V162.728C241.983 162.409 241.964 162.129 241.925 161.888C241.889 161.644 241.835 161.435 241.764 161.263C241.692 161.09 241.601 160.95 241.49 160.843C241.383 160.735 241.257 160.657 241.114 160.608C240.974 160.556 240.816 160.53 240.641 160.53C240.426 160.53 240.235 160.571 240.069 160.652C239.903 160.73 239.763 160.856 239.649 161.028C239.539 161.201 239.454 161.427 239.396 161.707C239.337 161.987 239.308 162.327 239.308 162.728V164.109C239.308 164.428 239.326 164.71 239.361 164.954C239.4 165.198 239.457 165.41 239.532 165.589C239.607 165.765 239.698 165.91 239.806 166.023C239.913 166.137 240.037 166.222 240.177 166.277C240.32 166.329 240.478 166.355 240.65 166.355C240.872 166.355 241.065 166.313 241.231 166.229C241.397 166.144 241.536 166.012 241.646 165.833C241.76 165.651 241.845 165.418 241.9 165.135C241.956 164.848 241.983 164.507 241.983 164.109ZM243.976 161.634V161.258C243.976 160.988 244.034 160.742 244.151 160.521C244.269 160.299 244.436 160.122 244.654 159.988C244.872 159.855 245.131 159.788 245.431 159.788C245.737 159.788 245.997 159.855 246.212 159.988C246.43 160.122 246.598 160.299 246.715 160.521C246.832 160.742 246.891 160.988 246.891 161.258V161.634C246.891 161.897 246.832 162.14 246.715 162.361C246.601 162.583 246.435 162.76 246.217 162.894C246.002 163.027 245.743 163.094 245.44 163.094C245.138 163.094 244.876 163.027 244.654 162.894C244.436 162.76 244.269 162.583 244.151 162.361C244.034 162.14 243.976 161.897 243.976 161.634ZM244.654 161.258V161.634C244.654 161.784 244.682 161.925 244.737 162.059C244.796 162.192 244.884 162.301 245.001 162.386C245.118 162.467 245.265 162.508 245.44 162.508C245.616 162.508 245.761 162.467 245.875 162.386C245.989 162.301 246.074 162.192 246.129 162.059C246.184 161.925 246.212 161.784 246.212 161.634V161.258C246.212 161.105 246.183 160.962 246.124 160.828C246.069 160.691 245.982 160.582 245.865 160.501C245.751 160.416 245.606 160.374 245.431 160.374C245.258 160.374 245.113 160.416 244.996 160.501C244.882 160.582 244.796 160.691 244.737 160.828C244.682 160.962 244.654 161.105 244.654 161.258ZM247.438 165.638V165.257C247.438 164.99 247.496 164.746 247.613 164.524C247.73 164.303 247.898 164.126 248.116 163.992C248.334 163.859 248.593 163.792 248.893 163.792C249.199 163.792 249.459 163.859 249.674 163.992C249.892 164.126 250.06 164.303 250.177 164.524C250.294 164.746 250.353 164.99 250.353 165.257V165.638C250.353 165.905 250.294 166.149 250.177 166.37C250.063 166.591 249.897 166.769 249.679 166.902C249.464 167.036 249.205 167.103 248.902 167.103C248.6 167.103 248.339 167.036 248.121 166.902C247.903 166.769 247.734 166.591 247.613 166.37C247.496 166.149 247.438 165.905 247.438 165.638ZM248.116 165.257V165.638C248.116 165.787 248.144 165.931 248.199 166.067C248.258 166.201 248.346 166.31 248.463 166.395C248.58 166.476 248.727 166.517 248.902 166.517C249.078 166.517 249.223 166.476 249.337 166.395C249.454 166.31 249.54 166.201 249.596 166.067C249.651 165.934 249.679 165.791 249.679 165.638V165.257C249.679 165.104 249.649 164.961 249.591 164.827C249.535 164.694 249.449 164.586 249.332 164.505C249.218 164.42 249.072 164.378 248.893 164.378C248.72 164.378 248.575 164.42 248.458 164.505C248.344 164.586 248.258 164.694 248.199 164.827C248.144 164.961 248.116 165.104 248.116 165.257ZM249.117 160.901L245.646 166.458L245.138 166.136L248.609 160.579L249.117 160.901Z" fill="black"/>
<path d="M316.946 163.616L316.224 163.431L316.58 159.891H320.228V160.726H317.347L317.132 162.659C317.262 162.584 317.426 162.514 317.625 162.449C317.827 162.384 318.058 162.352 318.318 162.352C318.647 162.352 318.942 162.409 319.202 162.522C319.463 162.633 319.684 162.793 319.866 163.001C320.052 163.209 320.193 163.46 320.291 163.753C320.389 164.046 320.438 164.373 320.438 164.734C320.438 165.076 320.39 165.39 320.296 165.677C320.205 165.963 320.066 166.214 319.881 166.429C319.695 166.64 319.461 166.805 319.178 166.922C318.898 167.039 318.567 167.098 318.187 167.098C317.9 167.098 317.628 167.059 317.371 166.98C317.117 166.899 316.889 166.777 316.688 166.614C316.489 166.448 316.326 166.243 316.199 165.999C316.076 165.752 315.997 165.462 315.965 165.13H316.824C316.863 165.397 316.941 165.621 317.059 165.804C317.176 165.986 317.329 166.124 317.518 166.219C317.71 166.31 317.933 166.355 318.187 166.355C318.401 166.355 318.592 166.318 318.758 166.243C318.924 166.168 319.064 166.061 319.178 165.921C319.292 165.781 319.378 165.612 319.437 165.413C319.498 165.215 319.529 164.992 319.529 164.744C319.529 164.52 319.498 164.311 319.437 164.119C319.375 163.927 319.282 163.759 319.158 163.616C319.038 163.473 318.89 163.362 318.714 163.284C318.538 163.203 318.336 163.162 318.108 163.162C317.806 163.162 317.576 163.203 317.42 163.284C317.267 163.366 317.109 163.476 316.946 163.616ZM325.892 162.879V163.963C325.892 164.546 325.84 165.037 325.735 165.438C325.631 165.838 325.481 166.16 325.286 166.404C325.091 166.648 324.855 166.826 324.578 166.937C324.305 167.044 323.995 167.098 323.65 167.098C323.377 167.098 323.125 167.063 322.894 166.995C322.662 166.927 322.454 166.818 322.269 166.668C322.086 166.515 321.93 166.316 321.8 166.072C321.67 165.828 321.57 165.532 321.502 165.184C321.434 164.835 321.399 164.428 321.399 163.963V162.879C321.399 162.296 321.451 161.808 321.556 161.414C321.663 161.02 321.814 160.704 322.01 160.467C322.205 160.226 322.439 160.053 322.713 159.949C322.99 159.845 323.299 159.793 323.641 159.793C323.917 159.793 324.171 159.827 324.402 159.896C324.637 159.961 324.845 160.066 325.027 160.213C325.21 160.356 325.364 160.548 325.491 160.789C325.621 161.027 325.721 161.318 325.789 161.663C325.857 162.008 325.892 162.413 325.892 162.879ZM324.983 164.109V162.728C324.983 162.409 324.964 162.129 324.925 161.888C324.889 161.644 324.835 161.435 324.764 161.263C324.692 161.09 324.601 160.95 324.49 160.843C324.383 160.735 324.257 160.657 324.114 160.608C323.974 160.556 323.816 160.53 323.641 160.53C323.426 160.53 323.235 160.571 323.069 160.652C322.903 160.73 322.763 160.856 322.649 161.028C322.539 161.201 322.454 161.427 322.396 161.707C322.337 161.987 322.308 162.327 322.308 162.728V164.109C322.308 164.428 322.326 164.71 322.361 164.954C322.4 165.198 322.457 165.41 322.532 165.589C322.607 165.765 322.698 165.91 322.806 166.023C322.913 166.137 323.037 166.222 323.177 166.277C323.32 166.329 323.478 166.355 323.65 166.355C323.872 166.355 324.065 166.313 324.231 166.229C324.397 166.144 324.536 166.012 324.646 165.833C324.76 165.651 324.845 165.418 324.9 165.135C324.956 164.848 324.983 164.507 324.983 164.109ZM326.976 161.634V161.258C326.976 160.988 327.034 160.742 327.151 160.521C327.269 160.299 327.436 160.122 327.654 159.988C327.872 159.855 328.131 159.788 328.431 159.788C328.737 159.788 328.997 159.855 329.212 159.988C329.43 160.122 329.598 160.299 329.715 160.521C329.832 160.742 329.891 160.988 329.891 161.258V161.634C329.891 161.897 329.832 162.14 329.715 162.361C329.601 162.583 329.435 162.76 329.217 162.894C329.002 163.027 328.743 163.094 328.44 163.094C328.138 163.094 327.876 163.027 327.654 162.894C327.436 162.76 327.269 162.583 327.151 162.361C327.034 162.14 326.976 161.897 326.976 161.634ZM327.654 161.258V161.634C327.654 161.784 327.682 161.925 327.737 162.059C327.796 162.192 327.884 162.301 328.001 162.386C328.118 162.467 328.265 162.508 328.44 162.508C328.616 162.508 328.761 162.467 328.875 162.386C328.989 162.301 329.074 162.192 329.129 162.059C329.184 161.925 329.212 161.784 329.212 161.634V161.258C329.212 161.105 329.183 160.962 329.124 160.828C329.069 160.691 328.982 160.582 328.865 160.501C328.751 160.416 328.606 160.374 328.431 160.374C328.258 160.374 328.113 160.416 327.996 160.501C327.882 160.582 327.796 160.691 327.737 160.828C327.682 160.962 327.654 161.105 327.654 161.258ZM330.438 165.638V165.257C330.438 164.99 330.496 164.746 330.613 164.524C330.73 164.303 330.898 164.126 331.116 163.992C331.334 163.859 331.593 163.792 331.893 163.792C332.199 163.792 332.459 163.859 332.674 163.992C332.892 164.126 333.06 164.303 333.177 164.524C333.294 164.746 333.353 164.99 333.353 165.257V165.638C333.353 165.905 333.294 166.149 333.177 166.37C333.063 166.591 332.897 166.769 332.679 166.902C332.464 167.036 332.205 167.103 331.902 167.103C331.6 167.103 331.339 167.036 331.121 166.902C330.903 166.769 330.734 166.591 330.613 166.37C330.496 166.149 330.438 165.905 330.438 165.638ZM331.116 165.257V165.638C331.116 165.787 331.144 165.931 331.199 166.067C331.258 166.201 331.346 166.31 331.463 166.395C331.58 166.476 331.727 166.517 331.902 166.517C332.078 166.517 332.223 166.476 332.337 166.395C332.454 166.31 332.54 166.201 332.596 166.067C332.651 165.934 332.679 165.791 332.679 165.638V165.257C332.679 165.104 332.649 164.961 332.591 164.827C332.535 164.694 332.449 164.586 332.332 164.505C332.218 164.42 332.072 164.378 331.893 164.378C331.72 164.378 331.575 164.42 331.458 164.505C331.344 164.586 331.258 164.694 331.199 164.827C331.144 164.961 331.116 165.104 331.116 165.257ZM332.117 160.901L328.646 166.458L328.138 166.136L331.609 160.579L332.117 160.901Z" fill="black"/>
<path d="M71.6084 251.607V252.35H66.4717V251.817L69.6553 246.891H70.3926L69.6016 248.316L67.4971 251.607H71.6084ZM70.6172 246.891V254H69.7139V246.891H70.6172ZM76.8916 249.879V250.963C76.8916 251.546 76.8395 252.037 76.7354 252.438C76.6312 252.838 76.4814 253.16 76.2861 253.404C76.0908 253.648 75.8548 253.826 75.5781 253.937C75.3047 254.044 74.9954 254.098 74.6504 254.098C74.377 254.098 74.1247 254.063 73.8936 253.995C73.6624 253.927 73.4541 253.818 73.2686 253.668C73.0863 253.515 72.93 253.316 72.7998 253.072C72.6696 252.828 72.5703 252.532 72.502 252.184C72.4336 251.835 72.3994 251.428 72.3994 250.963V249.879C72.3994 249.296 72.4515 248.808 72.5557 248.414C72.6631 248.02 72.8145 247.704 73.0098 247.467C73.2051 247.226 73.4395 247.053 73.7129 246.949C73.9896 246.845 74.2988 246.793 74.6406 246.793C74.9173 246.793 75.1712 246.827 75.4023 246.896C75.6367 246.961 75.8451 247.066 76.0273 247.213C76.2096 247.356 76.3643 247.548 76.4912 247.789C76.6214 248.027 76.7207 248.318 76.7891 248.663C76.8574 249.008 76.8916 249.413 76.8916 249.879ZM75.9834 251.109V249.728C75.9834 249.409 75.9639 249.129 75.9248 248.888C75.889 248.644 75.8353 248.435 75.7637 248.263C75.6921 248.09 75.6009 247.95 75.4902 247.843C75.3828 247.735 75.2575 247.657 75.1143 247.608C74.9743 247.556 74.8164 247.53 74.6406 247.53C74.4258 247.53 74.2354 247.571 74.0693 247.652C73.9033 247.73 73.7633 247.856 73.6494 248.028C73.5387 248.201 73.4541 248.427 73.3955 248.707C73.3369 248.987 73.3076 249.327 73.3076 249.728V251.109C73.3076 251.428 73.3255 251.71 73.3613 251.954C73.4004 252.198 73.4574 252.41 73.5322 252.589C73.6071 252.765 73.6982 252.91 73.8057 253.023C73.9131 253.137 74.0368 253.222 74.1768 253.277C74.32 253.329 74.4779 253.355 74.6504 253.355C74.8717 253.355 75.0654 253.313 75.2314 253.229C75.3975 253.144 75.5358 253.012 75.6465 252.833C75.7604 252.651 75.8451 252.418 75.9004 252.135C75.9557 251.848 75.9834 251.507 75.9834 251.109ZM77.9756 248.634V248.258C77.9756 247.988 78.0342 247.742 78.1514 247.521C78.2686 247.299 78.4362 247.122 78.6543 246.988C78.8724 246.855 79.1312 246.788 79.4307 246.788C79.7367 246.788 79.9971 246.855 80.2119 246.988C80.43 247.122 80.5977 247.299 80.7148 247.521C80.832 247.742 80.8906 247.988 80.8906 248.258V248.634C80.8906 248.897 80.832 249.14 80.7148 249.361C80.6009 249.583 80.4349 249.76 80.2168 249.894C80.002 250.027 79.7432 250.094 79.4404 250.094C79.1377 250.094 78.8757 250.027 78.6543 249.894C78.4362 249.76 78.2686 249.583 78.1514 249.361C78.0342 249.14 77.9756 248.897 77.9756 248.634ZM78.6543 248.258V248.634C78.6543 248.784 78.682 248.925 78.7373 249.059C78.7959 249.192 78.8838 249.301 79.001 249.386C79.1182 249.467 79.2646 249.508 79.4404 249.508C79.6162 249.508 79.7611 249.467 79.875 249.386C79.9889 249.301 80.0736 249.192 80.1289 249.059C80.1842 248.925 80.2119 248.784 80.2119 248.634V248.258C80.2119 248.105 80.1826 247.962 80.124 247.828C80.0687 247.691 79.9824 247.582 79.8652 247.501C79.7513 247.416 79.6064 247.374 79.4307 247.374C79.2581 247.374 79.1133 247.416 78.9961 247.501C78.8822 247.582 78.7959 247.691 78.7373 247.828C78.682 247.962 78.6543 248.105 78.6543 248.258ZM81.4375 252.638V252.257C81.4375 251.99 81.4961 251.746 81.6133 251.524C81.7305 251.303 81.8981 251.126 82.1162 250.992C82.3343 250.859 82.5931 250.792 82.8926 250.792C83.1986 250.792 83.459 250.859 83.6738 250.992C83.8919 251.126 84.0596 251.303 84.1768 251.524C84.2939 251.746 84.3525 251.99 84.3525 252.257V252.638C84.3525 252.905 84.2939 253.149 84.1768 253.37C84.0628 253.591 83.8968 253.769 83.6787 253.902C83.4639 254.036 83.2051 254.103 82.9023 254.103C82.5996 254.103 82.3392 254.036 82.1211 253.902C81.903 253.769 81.7337 253.591 81.6133 253.37C81.4961 253.149 81.4375 252.905 81.4375 252.638ZM82.1162 252.257V252.638C82.1162 252.787 82.1439 252.931 82.1992 253.067C82.2578 253.201 82.3457 253.31 82.4629 253.395C82.5801 253.476 82.7266 253.517 82.9023 253.517C83.0781 253.517 83.223 253.476 83.3369 253.395C83.4541 253.31 83.5404 253.201 83.5957 253.067C83.651 252.934 83.6787 252.791 83.6787 252.638V252.257C83.6787 252.104 83.6494 251.961 83.5908 251.827C83.5355 251.694 83.4492 251.586 83.332 251.505C83.2181 251.42 83.0716 251.378 82.8926 251.378C82.7201 251.378 82.5752 251.42 82.458 251.505C82.3441 251.586 82.2578 251.694 82.1992 251.827C82.1439 251.961 82.1162 252.104 82.1162 252.257ZM83.1172 247.901L79.6455 253.458L79.1377 253.136L82.6094 247.579L83.1172 247.901Z" fill="black"/>
<path d="M178.608 69.6074V70.3496H173.472V69.8174L176.655 64.8906H177.393L176.602 66.3164L174.497 69.6074H178.608ZM177.617 64.8906V72H176.714V64.8906H177.617ZM183.892 67.8789V68.9629C183.892 69.5456 183.84 70.0371 183.735 70.4375C183.631 70.8379 183.481 71.1602 183.286 71.4043C183.091 71.6484 182.855 71.8258 182.578 71.9365C182.305 72.0439 181.995 72.0977 181.65 72.0977C181.377 72.0977 181.125 72.0635 180.894 71.9951C180.662 71.9268 180.454 71.8177 180.269 71.668C180.086 71.515 179.93 71.3164 179.8 71.0723C179.67 70.8281 179.57 70.5319 179.502 70.1836C179.434 69.8353 179.399 69.4284 179.399 68.9629V67.8789C179.399 67.2962 179.451 66.8079 179.556 66.4141C179.663 66.0202 179.814 65.7044 180.01 65.4668C180.205 65.2259 180.439 65.0534 180.713 64.9492C180.99 64.8451 181.299 64.793 181.641 64.793C181.917 64.793 182.171 64.8271 182.402 64.8955C182.637 64.9606 182.845 65.0664 183.027 65.2129C183.21 65.3561 183.364 65.5482 183.491 65.7891C183.621 66.0267 183.721 66.318 183.789 66.6631C183.857 67.0081 183.892 67.4134 183.892 67.8789ZM182.983 69.1094V67.7275C182.983 67.4085 182.964 67.1286 182.925 66.8877C182.889 66.6436 182.835 66.4352 182.764 66.2627C182.692 66.0902 182.601 65.9502 182.49 65.8428C182.383 65.7354 182.257 65.6572 182.114 65.6084C181.974 65.5563 181.816 65.5303 181.641 65.5303C181.426 65.5303 181.235 65.571 181.069 65.6523C180.903 65.7305 180.763 65.8558 180.649 66.0283C180.539 66.2008 180.454 66.4271 180.396 66.707C180.337 66.987 180.308 67.3271 180.308 67.7275V69.1094C180.308 69.4284 180.326 69.71 180.361 69.9541C180.4 70.1982 180.457 70.4098 180.532 70.5889C180.607 70.7646 180.698 70.9095 180.806 71.0234C180.913 71.1374 181.037 71.222 181.177 71.2773C181.32 71.3294 181.478 71.3555 181.65 71.3555C181.872 71.3555 182.065 71.3132 182.231 71.2285C182.397 71.1439 182.536 71.012 182.646 70.833C182.76 70.6507 182.845 70.418 182.9 70.1348C182.956 69.8483 182.983 69.5065 182.983 69.1094ZM184.976 66.6338V66.2578C184.976 65.9876 185.034 65.7419 185.151 65.5205C185.269 65.2992 185.436 65.1217 185.654 64.9883C185.872 64.8548 186.131 64.7881 186.431 64.7881C186.737 64.7881 186.997 64.8548 187.212 64.9883C187.43 65.1217 187.598 65.2992 187.715 65.5205C187.832 65.7419 187.891 65.9876 187.891 66.2578V66.6338C187.891 66.8975 187.832 67.14 187.715 67.3613C187.601 67.5827 187.435 67.7601 187.217 67.8936C187.002 68.027 186.743 68.0938 186.44 68.0938C186.138 68.0938 185.876 68.027 185.654 67.8936C185.436 67.7601 185.269 67.5827 185.151 67.3613C185.034 67.14 184.976 66.8975 184.976 66.6338ZM185.654 66.2578V66.6338C185.654 66.7835 185.682 66.9251 185.737 67.0586C185.796 67.1921 185.884 67.3011 186.001 67.3857C186.118 67.4671 186.265 67.5078 186.44 67.5078C186.616 67.5078 186.761 67.4671 186.875 67.3857C186.989 67.3011 187.074 67.1921 187.129 67.0586C187.184 66.9251 187.212 66.7835 187.212 66.6338V66.2578C187.212 66.1048 187.183 65.9616 187.124 65.8281C187.069 65.6914 186.982 65.5824 186.865 65.501C186.751 65.4163 186.606 65.374 186.431 65.374C186.258 65.374 186.113 65.4163 185.996 65.501C185.882 65.5824 185.796 65.6914 185.737 65.8281C185.682 65.9616 185.654 66.1048 185.654 66.2578ZM188.438 70.6377V70.2568C188.438 69.9899 188.496 69.7458 188.613 69.5244C188.73 69.3031 188.898 69.1257 189.116 68.9922C189.334 68.8587 189.593 68.792 189.893 68.792C190.199 68.792 190.459 68.8587 190.674 68.9922C190.892 69.1257 191.06 69.3031 191.177 69.5244C191.294 69.7458 191.353 69.9899 191.353 70.2568V70.6377C191.353 70.9046 191.294 71.1488 191.177 71.3701C191.063 71.5915 190.897 71.7689 190.679 71.9023C190.464 72.0358 190.205 72.1025 189.902 72.1025C189.6 72.1025 189.339 72.0358 189.121 71.9023C188.903 71.7689 188.734 71.5915 188.613 71.3701C188.496 71.1488 188.438 70.9046 188.438 70.6377ZM189.116 70.2568V70.6377C189.116 70.7874 189.144 70.9307 189.199 71.0674C189.258 71.2008 189.346 71.3099 189.463 71.3945C189.58 71.4759 189.727 71.5166 189.902 71.5166C190.078 71.5166 190.223 71.4759 190.337 71.3945C190.454 71.3099 190.54 71.2008 190.596 71.0674C190.651 70.9339 190.679 70.7907 190.679 70.6377V70.2568C190.679 70.1038 190.649 69.9606 190.591 69.8271C190.535 69.6937 190.449 69.5863 190.332 69.5049C190.218 69.4202 190.072 69.3779 189.893 69.3779C189.72 69.3779 189.575 69.4202 189.458 69.5049C189.344 69.5863 189.258 69.6937 189.199 69.8271C189.144 69.9606 189.116 70.1038 189.116 70.2568ZM190.117 65.9014L186.646 71.458L186.138 71.1357L189.609 65.5791L190.117 65.9014Z" fill="black"/>
<path d="M136.96 21.8516V29H136.057V22.9795L134.235 23.6436V22.8281L136.818 21.8516H136.96ZM144.079 24.8789V25.9629C144.079 26.5456 144.027 27.0371 143.923 27.4375C143.819 27.8379 143.669 28.1602 143.474 28.4043C143.278 28.6484 143.042 28.8258 142.766 28.9365C142.492 29.0439 142.183 29.0977 141.838 29.0977C141.564 29.0977 141.312 29.0635 141.081 28.9951C140.85 28.9268 140.642 28.8177 140.456 28.668C140.274 28.515 140.118 28.3164 139.987 28.0723C139.857 27.8281 139.758 27.5319 139.689 27.1836C139.621 26.8353 139.587 26.4284 139.587 25.9629V24.8789C139.587 24.2962 139.639 23.8079 139.743 23.4141C139.851 23.0202 140.002 22.7044 140.197 22.4668C140.393 22.2259 140.627 22.0534 140.9 21.9492C141.177 21.8451 141.486 21.793 141.828 21.793C142.105 21.793 142.359 21.8271 142.59 21.8955C142.824 21.9606 143.033 22.0664 143.215 22.2129C143.397 22.3561 143.552 22.5482 143.679 22.7891C143.809 23.0267 143.908 23.318 143.977 23.6631C144.045 24.0081 144.079 24.4134 144.079 24.8789ZM143.171 26.1094V24.7275C143.171 24.4085 143.151 24.1286 143.112 23.8877C143.076 23.6436 143.023 23.4352 142.951 23.2627C142.88 23.0902 142.788 22.9502 142.678 22.8428C142.57 22.7354 142.445 22.6572 142.302 22.6084C142.162 22.5563 142.004 22.5303 141.828 22.5303C141.613 22.5303 141.423 22.571 141.257 22.6523C141.091 22.7305 140.951 22.8558 140.837 23.0283C140.726 23.2008 140.642 23.4271 140.583 23.707C140.524 23.987 140.495 24.3271 140.495 24.7275V26.1094C140.495 26.4284 140.513 26.71 140.549 26.9541C140.588 27.1982 140.645 27.4098 140.72 27.5889C140.795 27.7646 140.886 27.9095 140.993 28.0234C141.101 28.1374 141.224 28.222 141.364 28.2773C141.507 28.3294 141.665 28.3555 141.838 28.3555C142.059 28.3555 142.253 28.3132 142.419 28.2285C142.585 28.1439 142.723 28.012 142.834 27.833C142.948 27.6507 143.033 27.418 143.088 27.1348C143.143 26.8483 143.171 26.5065 143.171 26.1094ZM149.704 24.8789V25.9629C149.704 26.5456 149.652 27.0371 149.548 27.4375C149.444 27.8379 149.294 28.1602 149.099 28.4043C148.903 28.6484 148.667 28.8258 148.391 28.9365C148.117 29.0439 147.808 29.0977 147.463 29.0977C147.189 29.0977 146.937 29.0635 146.706 28.9951C146.475 28.9268 146.267 28.8177 146.081 28.668C145.899 28.515 145.743 28.3164 145.612 28.0723C145.482 27.8281 145.383 27.5319 145.314 27.1836C145.246 26.8353 145.212 26.4284 145.212 25.9629V24.8789C145.212 24.2962 145.264 23.8079 145.368 23.4141C145.476 23.0202 145.627 22.7044 145.822 22.4668C146.018 22.2259 146.252 22.0534 146.525 21.9492C146.802 21.8451 147.111 21.793 147.453 21.793C147.73 21.793 147.984 21.8271 148.215 21.8955C148.449 21.9606 148.658 22.0664 148.84 22.2129C149.022 22.3561 149.177 22.5482 149.304 22.7891C149.434 23.0267 149.533 23.318 149.602 23.6631C149.67 24.0081 149.704 24.4134 149.704 24.8789ZM148.796 26.1094V24.7275C148.796 24.4085 148.776 24.1286 148.737 23.8877C148.701 23.6436 148.648 23.4352 148.576 23.2627C148.505 23.0902 148.413 22.9502 148.303 22.8428C148.195 22.7354 148.07 22.6572 147.927 22.6084C147.787 22.5563 147.629 22.5303 147.453 22.5303C147.238 22.5303 147.048 22.571 146.882 22.6523C146.716 22.7305 146.576 22.8558 146.462 23.0283C146.351 23.2008 146.267 23.4271 146.208 23.707C146.149 23.987 146.12 24.3271 146.12 24.7275V26.1094C146.12 26.4284 146.138 26.71 146.174 26.9541C146.213 27.1982 146.27 27.4098 146.345 27.5889C146.42 27.7646 146.511 27.9095 146.618 28.0234C146.726 28.1374 146.849 28.222 146.989 28.2773C147.132 28.3294 147.29 28.3555 147.463 28.3555C147.684 28.3555 147.878 28.3132 148.044 28.2285C148.21 28.1439 148.348 28.012 148.459 27.833C148.573 27.6507 148.658 27.418 148.713 27.1348C148.768 26.8483 148.796 26.5065 148.796 26.1094ZM150.788 23.6338V23.2578C150.788 22.9876 150.847 22.7419 150.964 22.5205C151.081 22.2992 151.249 22.1217 151.467 21.9883C151.685 21.8548 151.944 21.7881 152.243 21.7881C152.549 21.7881 152.81 21.8548 153.024 21.9883C153.243 22.1217 153.41 22.2992 153.527 22.5205C153.645 22.7419 153.703 22.9876 153.703 23.2578V23.6338C153.703 23.8975 153.645 24.14 153.527 24.3613C153.413 24.5827 153.247 24.7601 153.029 24.8936C152.814 25.027 152.556 25.0938 152.253 25.0938C151.95 25.0938 151.688 25.027 151.467 24.8936C151.249 24.7601 151.081 24.5827 150.964 24.3613C150.847 24.14 150.788 23.8975 150.788 23.6338ZM151.467 23.2578V23.6338C151.467 23.7835 151.494 23.9251 151.55 24.0586C151.608 24.1921 151.696 24.3011 151.813 24.3857C151.931 24.4671 152.077 24.5078 152.253 24.5078C152.429 24.5078 152.574 24.4671 152.688 24.3857C152.801 24.3011 152.886 24.1921 152.941 24.0586C152.997 23.9251 153.024 23.7835 153.024 23.6338V23.2578C153.024 23.1048 152.995 22.9616 152.937 22.8281C152.881 22.6914 152.795 22.5824 152.678 22.501C152.564 22.4163 152.419 22.374 152.243 22.374C152.071 22.374 151.926 22.4163 151.809 22.501C151.695 22.5824 151.608 22.6914 151.55 22.8281C151.494 22.9616 151.467 23.1048 151.467 23.2578ZM154.25 27.6377V27.2568C154.25 26.9899 154.309 26.7458 154.426 26.5244C154.543 26.3031 154.711 26.1257 154.929 25.9922C155.147 25.8587 155.406 25.792 155.705 25.792C156.011 25.792 156.271 25.8587 156.486 25.9922C156.704 26.1257 156.872 26.3031 156.989 26.5244C157.106 26.7458 157.165 26.9899 157.165 27.2568V27.6377C157.165 27.9046 157.106 28.1488 156.989 28.3701C156.875 28.5915 156.709 28.7689 156.491 28.9023C156.276 29.0358 156.018 29.1025 155.715 29.1025C155.412 29.1025 155.152 29.0358 154.934 28.9023C154.715 28.7689 154.546 28.5915 154.426 28.3701C154.309 28.1488 154.25 27.9046 154.25 27.6377ZM154.929 27.2568V27.6377C154.929 27.7874 154.956 27.9307 155.012 28.0674C155.07 28.2008 155.158 28.3099 155.275 28.3945C155.393 28.4759 155.539 28.5166 155.715 28.5166C155.891 28.5166 156.035 28.4759 156.149 28.3945C156.267 28.3099 156.353 28.2008 156.408 28.0674C156.464 27.9339 156.491 27.7907 156.491 27.6377V27.2568C156.491 27.1038 156.462 26.9606 156.403 26.8271C156.348 26.6937 156.262 26.5863 156.145 26.5049C156.031 26.4202 155.884 26.3779 155.705 26.3779C155.533 26.3779 155.388 26.4202 155.271 26.5049C155.157 26.5863 155.07 26.6937 155.012 26.8271C154.956 26.9606 154.929 27.1038 154.929 27.2568ZM155.93 22.9014L152.458 28.458L151.95 28.1357L155.422 22.5791L155.93 22.9014Z" fill="black"/>
<path d="M356.079 24.8789V25.9629C356.079 26.5456 356.027 27.0371 355.923 27.4375C355.819 27.8379 355.669 28.1602 355.474 28.4043C355.278 28.6484 355.042 28.8258 354.766 28.9365C354.492 29.0439 354.183 29.0977 353.838 29.0977C353.564 29.0977 353.312 29.0635 353.081 28.9951C352.85 28.9268 352.642 28.8177 352.456 28.668C352.274 28.515 352.118 28.3164 351.987 28.0723C351.857 27.8281 351.758 27.5319 351.689 27.1836C351.621 26.8353 351.587 26.4284 351.587 25.9629V24.8789C351.587 24.2962 351.639 23.8079 351.743 23.4141C351.851 23.0202 352.002 22.7044 352.197 22.4668C352.393 22.2259 352.627 22.0534 352.9 21.9492C353.177 21.8451 353.486 21.793 353.828 21.793C354.105 21.793 354.359 21.8271 354.59 21.8955C354.824 21.9606 355.033 22.0664 355.215 22.2129C355.397 22.3561 355.552 22.5482 355.679 22.7891C355.809 23.0267 355.908 23.318 355.977 23.6631C356.045 24.0081 356.079 24.4134 356.079 24.8789ZM355.171 26.1094V24.7275C355.171 24.4085 355.151 24.1286 355.112 23.8877C355.076 23.6436 355.023 23.4352 354.951 23.2627C354.88 23.0902 354.788 22.9502 354.678 22.8428C354.57 22.7354 354.445 22.6572 354.302 22.6084C354.162 22.5563 354.004 22.5303 353.828 22.5303C353.613 22.5303 353.423 22.571 353.257 22.6523C353.091 22.7305 352.951 22.8558 352.837 23.0283C352.726 23.2008 352.642 23.4271 352.583 23.707C352.524 23.987 352.495 24.3271 352.495 24.7275V26.1094C352.495 26.4284 352.513 26.71 352.549 26.9541C352.588 27.1982 352.645 27.4098 352.72 27.5889C352.795 27.7646 352.886 27.9095 352.993 28.0234C353.101 28.1374 353.224 28.222 353.364 28.2773C353.507 28.3294 353.665 28.3555 353.838 28.3555C354.059 28.3555 354.253 28.3132 354.419 28.2285C354.585 28.1439 354.723 28.012 354.834 27.833C354.948 27.6507 355.033 27.418 355.088 27.1348C355.143 26.8483 355.171 26.5065 355.171 26.1094ZM357.163 23.6338V23.2578C357.163 22.9876 357.222 22.7419 357.339 22.5205C357.456 22.2992 357.624 22.1217 357.842 21.9883C358.06 21.8548 358.319 21.7881 358.618 21.7881C358.924 21.7881 359.185 21.8548 359.399 21.9883C359.618 22.1217 359.785 22.2992 359.902 22.5205C360.02 22.7419 360.078 22.9876 360.078 23.2578V23.6338C360.078 23.8975 360.02 24.14 359.902 24.3613C359.788 24.5827 359.622 24.7601 359.404 24.8936C359.189 25.027 358.931 25.0938 358.628 25.0938C358.325 25.0938 358.063 25.027 357.842 24.8936C357.624 24.7601 357.456 24.5827 357.339 24.3613C357.222 24.14 357.163 23.8975 357.163 23.6338ZM357.842 23.2578V23.6338C357.842 23.7835 357.869 23.9251 357.925 24.0586C357.983 24.1921 358.071 24.3011 358.188 24.3857C358.306 24.4671 358.452 24.5078 358.628 24.5078C358.804 24.5078 358.949 24.4671 359.062 24.3857C359.176 24.3011 359.261 24.1921 359.316 24.0586C359.372 23.9251 359.399 23.7835 359.399 23.6338V23.2578C359.399 23.1048 359.37 22.9616 359.312 22.8281C359.256 22.6914 359.17 22.5824 359.053 22.501C358.939 22.4163 358.794 22.374 358.618 22.374C358.446 22.374 358.301 22.4163 358.184 22.501C358.07 22.5824 357.983 22.6914 357.925 22.8281C357.869 22.9616 357.842 23.1048 357.842 23.2578ZM360.625 27.6377V27.2568C360.625 26.9899 360.684 26.7458 360.801 26.5244C360.918 26.3031 361.086 26.1257 361.304 25.9922C361.522 25.8587 361.781 25.792 362.08 25.792C362.386 25.792 362.646 25.8587 362.861 25.9922C363.079 26.1257 363.247 26.3031 363.364 26.5244C363.481 26.7458 363.54 26.9899 363.54 27.2568V27.6377C363.54 27.9046 363.481 28.1488 363.364 28.3701C363.25 28.5915 363.084 28.7689 362.866 28.9023C362.651 29.0358 362.393 29.1025 362.09 29.1025C361.787 29.1025 361.527 29.0358 361.309 28.9023C361.09 28.7689 360.921 28.5915 360.801 28.3701C360.684 28.1488 360.625 27.9046 360.625 27.6377ZM361.304 27.2568V27.6377C361.304 27.7874 361.331 27.9307 361.387 28.0674C361.445 28.2008 361.533 28.3099 361.65 28.3945C361.768 28.4759 361.914 28.5166 362.09 28.5166C362.266 28.5166 362.41 28.4759 362.524 28.3945C362.642 28.3099 362.728 28.2008 362.783 28.0674C362.839 27.9339 362.866 27.7907 362.866 27.6377V27.2568C362.866 27.1038 362.837 26.9606 362.778 26.8271C362.723 26.6937 362.637 26.5863 362.52 26.5049C362.406 26.4202 362.259 26.3779 362.08 26.3779C361.908 26.3779 361.763 26.4202 361.646 26.5049C361.532 26.5863 361.445 26.6937 361.387 26.8271C361.331 26.9606 361.304 27.1038 361.304 27.2568ZM362.305 22.9014L358.833 28.458L358.325 28.1357L361.797 22.5791L362.305 22.9014Z" fill="black"/>
<path d="M247.608 69.6074V70.3496H242.472V69.8174L245.655 64.8906H246.393L245.602 66.3164L243.497 69.6074H247.608ZM246.617 64.8906V72H245.714V64.8906H246.617ZM252.892 67.8789V68.9629C252.892 69.5456 252.84 70.0371 252.735 70.4375C252.631 70.8379 252.481 71.1602 252.286 71.4043C252.091 71.6484 251.855 71.8258 251.578 71.9365C251.305 72.0439 250.995 72.0977 250.65 72.0977C250.377 72.0977 250.125 72.0635 249.894 71.9951C249.662 71.9268 249.454 71.8177 249.269 71.668C249.086 71.515 248.93 71.3164 248.8 71.0723C248.67 70.8281 248.57 70.5319 248.502 70.1836C248.434 69.8353 248.399 69.4284 248.399 68.9629V67.8789C248.399 67.2962 248.451 66.8079 248.556 66.4141C248.663 66.0202 248.814 65.7044 249.01 65.4668C249.205 65.2259 249.439 65.0534 249.713 64.9492C249.99 64.8451 250.299 64.793 250.641 64.793C250.917 64.793 251.171 64.8271 251.402 64.8955C251.637 64.9606 251.845 65.0664 252.027 65.2129C252.21 65.3561 252.364 65.5482 252.491 65.7891C252.621 66.0267 252.721 66.318 252.789 66.6631C252.857 67.0081 252.892 67.4134 252.892 67.8789ZM251.983 69.1094V67.7275C251.983 67.4085 251.964 67.1286 251.925 66.8877C251.889 66.6436 251.835 66.4352 251.764 66.2627C251.692 66.0902 251.601 65.9502 251.49 65.8428C251.383 65.7354 251.257 65.6572 251.114 65.6084C250.974 65.5563 250.816 65.5303 250.641 65.5303C250.426 65.5303 250.235 65.571 250.069 65.6523C249.903 65.7305 249.763 65.8558 249.649 66.0283C249.539 66.2008 249.454 66.4271 249.396 66.707C249.337 66.987 249.308 67.3271 249.308 67.7275V69.1094C249.308 69.4284 249.326 69.71 249.361 69.9541C249.4 70.1982 249.457 70.4098 249.532 70.5889C249.607 70.7646 249.698 70.9095 249.806 71.0234C249.913 71.1374 250.037 71.222 250.177 71.2773C250.32 71.3294 250.478 71.3555 250.65 71.3555C250.872 71.3555 251.065 71.3132 251.231 71.2285C251.397 71.1439 251.536 71.012 251.646 70.833C251.76 70.6507 251.845 70.418 251.9 70.1348C251.956 69.8483 251.983 69.5065 251.983 69.1094ZM253.976 66.6338V66.2578C253.976 65.9876 254.034 65.7419 254.151 65.5205C254.269 65.2992 254.436 65.1217 254.654 64.9883C254.872 64.8548 255.131 64.7881 255.431 64.7881C255.737 64.7881 255.997 64.8548 256.212 64.9883C256.43 65.1217 256.598 65.2992 256.715 65.5205C256.832 65.7419 256.891 65.9876 256.891 66.2578V66.6338C256.891 66.8975 256.832 67.14 256.715 67.3613C256.601 67.5827 256.435 67.7601 256.217 67.8936C256.002 68.027 255.743 68.0938 255.44 68.0938C255.138 68.0938 254.876 68.027 254.654 67.8936C254.436 67.7601 254.269 67.5827 254.151 67.3613C254.034 67.14 253.976 66.8975 253.976 66.6338ZM254.654 66.2578V66.6338C254.654 66.7835 254.682 66.9251 254.737 67.0586C254.796 67.1921 254.884 67.3011 255.001 67.3857C255.118 67.4671 255.265 67.5078 255.44 67.5078C255.616 67.5078 255.761 67.4671 255.875 67.3857C255.989 67.3011 256.074 67.1921 256.129 67.0586C256.184 66.9251 256.212 66.7835 256.212 66.6338V66.2578C256.212 66.1048 256.183 65.9616 256.124 65.8281C256.069 65.6914 255.982 65.5824 255.865 65.501C255.751 65.4163 255.606 65.374 255.431 65.374C255.258 65.374 255.113 65.4163 254.996 65.501C254.882 65.5824 254.796 65.6914 254.737 65.8281C254.682 65.9616 254.654 66.1048 254.654 66.2578ZM257.438 70.6377V70.2568C257.438 69.9899 257.496 69.7458 257.613 69.5244C257.73 69.3031 257.898 69.1257 258.116 68.9922C258.334 68.8587 258.593 68.792 258.893 68.792C259.199 68.792 259.459 68.8587 259.674 68.9922C259.892 69.1257 260.06 69.3031 260.177 69.5244C260.294 69.7458 260.353 69.9899 260.353 70.2568V70.6377C260.353 70.9046 260.294 71.1488 260.177 71.3701C260.063 71.5915 259.897 71.7689 259.679 71.9023C259.464 72.0358 259.205 72.1025 258.902 72.1025C258.6 72.1025 258.339 72.0358 258.121 71.9023C257.903 71.7689 257.734 71.5915 257.613 71.3701C257.496 71.1488 257.438 70.9046 257.438 70.6377ZM258.116 70.2568V70.6377C258.116 70.7874 258.144 70.9307 258.199 71.0674C258.258 71.2008 258.346 71.3099 258.463 71.3945C258.58 71.4759 258.727 71.5166 258.902 71.5166C259.078 71.5166 259.223 71.4759 259.337 71.3945C259.454 71.3099 259.54 71.2008 259.596 71.0674C259.651 70.9339 259.679 70.7907 259.679 70.6377V70.2568C259.679 70.1038 259.649 69.9606 259.591 69.8271C259.535 69.6937 259.449 69.5863 259.332 69.5049C259.218 69.4202 259.072 69.3779 258.893 69.3779C258.72 69.3779 258.575 69.4202 258.458 69.5049C258.344 69.5863 258.258 69.6937 258.199 69.8271C258.144 69.9606 258.116 70.1038 258.116 70.2568ZM259.117 65.9014L255.646 71.458L255.138 71.1357L258.609 65.5791L259.117 65.9014Z" fill="black"/>
<path d="M314.608 69.6074V70.3496H309.472V69.8174L312.655 64.8906H313.393L312.602 66.3164L310.497 69.6074H314.608ZM313.617 64.8906V72H312.714V64.8906H313.617ZM319.892 67.8789V68.9629C319.892 69.5456 319.84 70.0371 319.735 70.4375C319.631 70.8379 319.481 71.1602 319.286 71.4043C319.091 71.6484 318.855 71.8258 318.578 71.9365C318.305 72.0439 317.995 72.0977 317.65 72.0977C317.377 72.0977 317.125 72.0635 316.894 71.9951C316.662 71.9268 316.454 71.8177 316.269 71.668C316.086 71.515 315.93 71.3164 315.8 71.0723C315.67 70.8281 315.57 70.5319 315.502 70.1836C315.434 69.8353 315.399 69.4284 315.399 68.9629V67.8789C315.399 67.2962 315.451 66.8079 315.556 66.4141C315.663 66.0202 315.814 65.7044 316.01 65.4668C316.205 65.2259 316.439 65.0534 316.713 64.9492C316.99 64.8451 317.299 64.793 317.641 64.793C317.917 64.793 318.171 64.8271 318.402 64.8955C318.637 64.9606 318.845 65.0664 319.027 65.2129C319.21 65.3561 319.364 65.5482 319.491 65.7891C319.621 66.0267 319.721 66.318 319.789 66.6631C319.857 67.0081 319.892 67.4134 319.892 67.8789ZM318.983 69.1094V67.7275C318.983 67.4085 318.964 67.1286 318.925 66.8877C318.889 66.6436 318.835 66.4352 318.764 66.2627C318.692 66.0902 318.601 65.9502 318.49 65.8428C318.383 65.7354 318.257 65.6572 318.114 65.6084C317.974 65.5563 317.816 65.5303 317.641 65.5303C317.426 65.5303 317.235 65.571 317.069 65.6523C316.903 65.7305 316.763 65.8558 316.649 66.0283C316.539 66.2008 316.454 66.4271 316.396 66.707C316.337 66.987 316.308 67.3271 316.308 67.7275V69.1094C316.308 69.4284 316.326 69.71 316.361 69.9541C316.4 70.1982 316.457 70.4098 316.532 70.5889C316.607 70.7646 316.698 70.9095 316.806 71.0234C316.913 71.1374 317.037 71.222 317.177 71.2773C317.32 71.3294 317.478 71.3555 317.65 71.3555C317.872 71.3555 318.065 71.3132 318.231 71.2285C318.397 71.1439 318.536 71.012 318.646 70.833C318.76 70.6507 318.845 70.418 318.9 70.1348C318.956 69.8483 318.983 69.5065 318.983 69.1094ZM320.976 66.6338V66.2578C320.976 65.9876 321.034 65.7419 321.151 65.5205C321.269 65.2992 321.436 65.1217 321.654 64.9883C321.872 64.8548 322.131 64.7881 322.431 64.7881C322.737 64.7881 322.997 64.8548 323.212 64.9883C323.43 65.1217 323.598 65.2992 323.715 65.5205C323.832 65.7419 323.891 65.9876 323.891 66.2578V66.6338C323.891 66.8975 323.832 67.14 323.715 67.3613C323.601 67.5827 323.435 67.7601 323.217 67.8936C323.002 68.027 322.743 68.0938 322.44 68.0938C322.138 68.0938 321.876 68.027 321.654 67.8936C321.436 67.7601 321.269 67.5827 321.151 67.3613C321.034 67.14 320.976 66.8975 320.976 66.6338ZM321.654 66.2578V66.6338C321.654 66.7835 321.682 66.9251 321.737 67.0586C321.796 67.1921 321.884 67.3011 322.001 67.3857C322.118 67.4671 322.265 67.5078 322.44 67.5078C322.616 67.5078 322.761 67.4671 322.875 67.3857C322.989 67.3011 323.074 67.1921 323.129 67.0586C323.184 66.9251 323.212 66.7835 323.212 66.6338V66.2578C323.212 66.1048 323.183 65.9616 323.124 65.8281C323.069 65.6914 322.982 65.5824 322.865 65.501C322.751 65.4163 322.606 65.374 322.431 65.374C322.258 65.374 322.113 65.4163 321.996 65.501C321.882 65.5824 321.796 65.6914 321.737 65.8281C321.682 65.9616 321.654 66.1048 321.654 66.2578ZM324.438 70.6377V70.2568C324.438 69.9899 324.496 69.7458 324.613 69.5244C324.73 69.3031 324.898 69.1257 325.116 68.9922C325.334 68.8587 325.593 68.792 325.893 68.792C326.199 68.792 326.459 68.8587 326.674 68.9922C326.892 69.1257 327.06 69.3031 327.177 69.5244C327.294 69.7458 327.353 69.9899 327.353 70.2568V70.6377C327.353 70.9046 327.294 71.1488 327.177 71.3701C327.063 71.5915 326.897 71.7689 326.679 71.9023C326.464 72.0358 326.205 72.1025 325.902 72.1025C325.6 72.1025 325.339 72.0358 325.121 71.9023C324.903 71.7689 324.734 71.5915 324.613 71.3701C324.496 71.1488 324.438 70.9046 324.438 70.6377ZM325.116 70.2568V70.6377C325.116 70.7874 325.144 70.9307 325.199 71.0674C325.258 71.2008 325.346 71.3099 325.463 71.3945C325.58 71.4759 325.727 71.5166 325.902 71.5166C326.078 71.5166 326.223 71.4759 326.337 71.3945C326.454 71.3099 326.54 71.2008 326.596 71.0674C326.651 70.9339 326.679 70.7907 326.679 70.6377V70.2568C326.679 70.1038 326.649 69.9606 326.591 69.8271C326.535 69.6937 326.449 69.5863 326.332 69.5049C326.218 69.4202 326.072 69.3779 325.893 69.3779C325.72 69.3779 325.575 69.4202 325.458 69.5049C325.344 69.5863 325.258 69.6937 325.199 69.8271C325.144 69.9606 325.116 70.1038 325.116 70.2568ZM326.117 65.9014L322.646 71.458L322.138 71.1357L325.609 65.5791L326.117 65.9014Z" fill="black"/>
<path d="M151.122 250.001H151.767C152.082 250.001 152.343 249.949 152.548 249.845C152.756 249.737 152.911 249.592 153.012 249.41C153.116 249.225 153.168 249.016 153.168 248.785C153.168 248.512 153.122 248.282 153.031 248.097C152.94 247.911 152.803 247.771 152.621 247.677C152.439 247.582 152.208 247.535 151.928 247.535C151.674 247.535 151.449 247.586 151.254 247.687C151.062 247.784 150.91 247.924 150.8 248.106C150.692 248.289 150.639 248.504 150.639 248.751H149.735C149.735 248.39 149.826 248.061 150.009 247.765C150.191 247.468 150.447 247.232 150.775 247.057C151.107 246.881 151.492 246.793 151.928 246.793C152.357 246.793 152.733 246.869 153.056 247.022C153.378 247.172 153.629 247.397 153.808 247.696C153.987 247.993 154.076 248.362 154.076 248.805C154.076 248.984 154.034 249.176 153.949 249.381C153.868 249.583 153.739 249.771 153.563 249.947C153.391 250.123 153.166 250.268 152.89 250.382C152.613 250.493 152.281 250.548 151.894 250.548H151.122V250.001ZM151.122 250.743V250.201H151.894C152.346 250.201 152.72 250.255 153.017 250.362C153.313 250.47 153.546 250.613 153.715 250.792C153.887 250.971 154.008 251.168 154.076 251.383C154.148 251.594 154.184 251.806 154.184 252.018C154.184 252.35 154.127 252.644 154.013 252.901C153.902 253.159 153.744 253.377 153.539 253.556C153.337 253.735 153.1 253.87 152.826 253.961C152.553 254.052 152.255 254.098 151.933 254.098C151.623 254.098 151.332 254.054 151.059 253.966C150.788 253.878 150.549 253.751 150.341 253.585C150.132 253.416 149.97 253.209 149.853 252.965C149.735 252.717 149.677 252.436 149.677 252.12H150.58C150.58 252.368 150.634 252.584 150.741 252.77C150.852 252.955 151.008 253.1 151.21 253.204C151.415 253.305 151.656 253.355 151.933 253.355C152.209 253.355 152.447 253.308 152.646 253.214C152.847 253.116 153.002 252.97 153.109 252.774C153.22 252.579 153.275 252.333 153.275 252.037C153.275 251.741 153.214 251.498 153.09 251.31C152.966 251.118 152.79 250.976 152.562 250.885C152.338 250.79 152.073 250.743 151.767 250.743H151.122ZM159.892 249.879V250.963C159.892 251.546 159.84 252.037 159.735 252.438C159.631 252.838 159.481 253.16 159.286 253.404C159.091 253.648 158.855 253.826 158.578 253.937C158.305 254.044 157.995 254.098 157.65 254.098C157.377 254.098 157.125 254.063 156.894 253.995C156.662 253.927 156.454 253.818 156.269 253.668C156.086 253.515 155.93 253.316 155.8 253.072C155.67 252.828 155.57 252.532 155.502 252.184C155.434 251.835 155.399 251.428 155.399 250.963V249.879C155.399 249.296 155.451 248.808 155.556 248.414C155.663 248.02 155.814 247.704 156.01 247.467C156.205 247.226 156.439 247.053 156.713 246.949C156.99 246.845 157.299 246.793 157.641 246.793C157.917 246.793 158.171 246.827 158.402 246.896C158.637 246.961 158.845 247.066 159.027 247.213C159.21 247.356 159.364 247.548 159.491 247.789C159.621 248.027 159.721 248.318 159.789 248.663C159.857 249.008 159.892 249.413 159.892 249.879ZM158.983 251.109V249.728C158.983 249.409 158.964 249.129 158.925 248.888C158.889 248.644 158.835 248.435 158.764 248.263C158.692 248.09 158.601 247.95 158.49 247.843C158.383 247.735 158.257 247.657 158.114 247.608C157.974 247.556 157.816 247.53 157.641 247.53C157.426 247.53 157.235 247.571 157.069 247.652C156.903 247.73 156.763 247.856 156.649 248.028C156.539 248.201 156.454 248.427 156.396 248.707C156.337 248.987 156.308 249.327 156.308 249.728V251.109C156.308 251.428 156.326 251.71 156.361 251.954C156.4 252.198 156.457 252.41 156.532 252.589C156.607 252.765 156.698 252.91 156.806 253.023C156.913 253.137 157.037 253.222 157.177 253.277C157.32 253.329 157.478 253.355 157.65 253.355C157.872 253.355 158.065 253.313 158.231 253.229C158.397 253.144 158.536 253.012 158.646 252.833C158.76 252.651 158.845 252.418 158.9 252.135C158.956 251.848 158.983 251.507 158.983 251.109ZM160.976 248.634V248.258C160.976 247.988 161.034 247.742 161.151 247.521C161.269 247.299 161.436 247.122 161.654 246.988C161.872 246.855 162.131 246.788 162.431 246.788C162.737 246.788 162.997 246.855 163.212 246.988C163.43 247.122 163.598 247.299 163.715 247.521C163.832 247.742 163.891 247.988 163.891 248.258V248.634C163.891 248.897 163.832 249.14 163.715 249.361C163.601 249.583 163.435 249.76 163.217 249.894C163.002 250.027 162.743 250.094 162.44 250.094C162.138 250.094 161.876 250.027 161.654 249.894C161.436 249.76 161.269 249.583 161.151 249.361C161.034 249.14 160.976 248.897 160.976 248.634ZM161.654 248.258V248.634C161.654 248.784 161.682 248.925 161.737 249.059C161.796 249.192 161.884 249.301 162.001 249.386C162.118 249.467 162.265 249.508 162.44 249.508C162.616 249.508 162.761 249.467 162.875 249.386C162.989 249.301 163.074 249.192 163.129 249.059C163.184 248.925 163.212 248.784 163.212 248.634V248.258C163.212 248.105 163.183 247.962 163.124 247.828C163.069 247.691 162.982 247.582 162.865 247.501C162.751 247.416 162.606 247.374 162.431 247.374C162.258 247.374 162.113 247.416 161.996 247.501C161.882 247.582 161.796 247.691 161.737 247.828C161.682 247.962 161.654 248.105 161.654 248.258ZM164.438 252.638V252.257C164.438 251.99 164.496 251.746 164.613 251.524C164.73 251.303 164.898 251.126 165.116 250.992C165.334 250.859 165.593 250.792 165.893 250.792C166.199 250.792 166.459 250.859 166.674 250.992C166.892 251.126 167.06 251.303 167.177 251.524C167.294 251.746 167.353 251.99 167.353 252.257V252.638C167.353 252.905 167.294 253.149 167.177 253.37C167.063 253.591 166.897 253.769 166.679 253.902C166.464 254.036 166.205 254.103 165.902 254.103C165.6 254.103 165.339 254.036 165.121 253.902C164.903 253.769 164.734 253.591 164.613 253.37C164.496 253.149 164.438 252.905 164.438 252.638ZM165.116 252.257V252.638C165.116 252.787 165.144 252.931 165.199 253.067C165.258 253.201 165.346 253.31 165.463 253.395C165.58 253.476 165.727 253.517 165.902 253.517C166.078 253.517 166.223 253.476 166.337 253.395C166.454 253.31 166.54 253.201 166.596 253.067C166.651 252.934 166.679 252.791 166.679 252.638V252.257C166.679 252.104 166.649 251.961 166.591 251.827C166.535 251.694 166.449 251.586 166.332 251.505C166.218 251.42 166.072 251.378 165.893 251.378C165.72 251.378 165.575 251.42 165.458 251.505C165.344 251.586 165.258 251.694 165.199 251.827C165.144 251.961 165.116 252.104 165.116 252.257ZM166.117 247.901L162.646 253.458L162.138 253.136L165.609 247.579L166.117 247.901Z" fill="black"/>
<path d="M237.462 253.258V254H232.809V253.351L235.138 250.758C235.424 250.439 235.646 250.169 235.802 249.947C235.961 249.723 236.072 249.522 236.134 249.347C236.199 249.168 236.231 248.985 236.231 248.8C236.231 248.565 236.183 248.354 236.085 248.165C235.991 247.973 235.851 247.82 235.665 247.706C235.479 247.592 235.255 247.535 234.991 247.535C234.675 247.535 234.412 247.597 234.2 247.721C233.992 247.841 233.836 248.01 233.731 248.229C233.627 248.447 233.575 248.697 233.575 248.98H232.672C232.672 248.58 232.76 248.214 232.936 247.882C233.111 247.55 233.372 247.286 233.717 247.091C234.062 246.892 234.487 246.793 234.991 246.793C235.44 246.793 235.825 246.873 236.144 247.032C236.463 247.188 236.707 247.41 236.876 247.696C237.049 247.979 237.135 248.312 237.135 248.692C237.135 248.901 237.099 249.112 237.027 249.327C236.959 249.539 236.863 249.75 236.739 249.962C236.619 250.174 236.477 250.382 236.314 250.587C236.155 250.792 235.984 250.994 235.802 251.192L233.897 253.258H237.462ZM242.892 249.879V250.963C242.892 251.546 242.84 252.037 242.735 252.438C242.631 252.838 242.481 253.16 242.286 253.404C242.091 253.648 241.855 253.826 241.578 253.937C241.305 254.044 240.995 254.098 240.65 254.098C240.377 254.098 240.125 254.063 239.894 253.995C239.662 253.927 239.454 253.818 239.269 253.668C239.086 253.515 238.93 253.316 238.8 253.072C238.67 252.828 238.57 252.532 238.502 252.184C238.434 251.835 238.399 251.428 238.399 250.963V249.879C238.399 249.296 238.451 248.808 238.556 248.414C238.663 248.02 238.814 247.704 239.01 247.467C239.205 247.226 239.439 247.053 239.713 246.949C239.99 246.845 240.299 246.793 240.641 246.793C240.917 246.793 241.171 246.827 241.402 246.896C241.637 246.961 241.845 247.066 242.027 247.213C242.21 247.356 242.364 247.548 242.491 247.789C242.621 248.027 242.721 248.318 242.789 248.663C242.857 249.008 242.892 249.413 242.892 249.879ZM241.983 251.109V249.728C241.983 249.409 241.964 249.129 241.925 248.888C241.889 248.644 241.835 248.435 241.764 248.263C241.692 248.09 241.601 247.95 241.49 247.843C241.383 247.735 241.257 247.657 241.114 247.608C240.974 247.556 240.816 247.53 240.641 247.53C240.426 247.53 240.235 247.571 240.069 247.652C239.903 247.73 239.763 247.856 239.649 248.028C239.539 248.201 239.454 248.427 239.396 248.707C239.337 248.987 239.308 249.327 239.308 249.728V251.109C239.308 251.428 239.326 251.71 239.361 251.954C239.4 252.198 239.457 252.41 239.532 252.589C239.607 252.765 239.698 252.91 239.806 253.023C239.913 253.137 240.037 253.222 240.177 253.277C240.32 253.329 240.478 253.355 240.65 253.355C240.872 253.355 241.065 253.313 241.231 253.229C241.397 253.144 241.536 253.012 241.646 252.833C241.76 252.651 241.845 252.418 241.9 252.135C241.956 251.848 241.983 251.507 241.983 251.109ZM243.976 248.634V248.258C243.976 247.988 244.034 247.742 244.151 247.521C244.269 247.299 244.436 247.122 244.654 246.988C244.872 246.855 245.131 246.788 245.431 246.788C245.737 246.788 245.997 246.855 246.212 246.988C246.43 247.122 246.598 247.299 246.715 247.521C246.832 247.742 246.891 247.988 246.891 248.258V248.634C246.891 248.897 246.832 249.14 246.715 249.361C246.601 249.583 246.435 249.76 246.217 249.894C246.002 250.027 245.743 250.094 245.44 250.094C245.138 250.094 244.876 250.027 244.654 249.894C244.436 249.76 244.269 249.583 244.151 249.361C244.034 249.14 243.976 248.897 243.976 248.634ZM244.654 248.258V248.634C244.654 248.784 244.682 248.925 244.737 249.059C244.796 249.192 244.884 249.301 245.001 249.386C245.118 249.467 245.265 249.508 245.44 249.508C245.616 249.508 245.761 249.467 245.875 249.386C245.989 249.301 246.074 249.192 246.129 249.059C246.184 248.925 246.212 248.784 246.212 248.634V248.258C246.212 248.105 246.183 247.962 246.124 247.828C246.069 247.691 245.982 247.582 245.865 247.501C245.751 247.416 245.606 247.374 245.431 247.374C245.258 247.374 245.113 247.416 244.996 247.501C244.882 247.582 244.796 247.691 244.737 247.828C244.682 247.962 244.654 248.105 244.654 248.258ZM247.438 252.638V252.257C247.438 251.99 247.496 251.746 247.613 251.524C247.73 251.303 247.898 251.126 248.116 250.992C248.334 250.859 248.593 250.792 248.893 250.792C249.199 250.792 249.459 250.859 249.674 250.992C249.892 251.126 250.06 251.303 250.177 251.524C250.294 251.746 250.353 251.99 250.353 252.257V252.638C250.353 252.905 250.294 253.149 250.177 253.37C250.063 253.591 249.897 253.769 249.679 253.902C249.464 254.036 249.205 254.103 248.902 254.103C248.6 254.103 248.339 254.036 248.121 253.902C247.903 253.769 247.734 253.591 247.613 253.37C247.496 253.149 247.438 252.905 247.438 252.638ZM248.116 252.257V252.638C248.116 252.787 248.144 252.931 248.199 253.067C248.258 253.201 248.346 253.31 248.463 253.395C248.58 253.476 248.727 253.517 248.902 253.517C249.078 253.517 249.223 253.476 249.337 253.395C249.454 253.31 249.54 253.201 249.596 253.067C249.651 252.934 249.679 252.791 249.679 252.638V252.257C249.679 252.104 249.649 251.961 249.591 251.827C249.535 251.694 249.449 251.586 249.332 251.505C249.218 251.42 249.072 251.378 248.893 251.378C248.72 251.378 248.575 251.42 248.458 251.505C248.344 251.586 248.258 251.694 248.199 251.827C248.144 251.961 248.116 252.104 248.116 252.257ZM249.117 247.901L245.646 253.458L245.138 253.136L248.609 247.579L249.117 247.901Z" fill="black"/>
<path d="M318.772 246.852V254H317.869V247.979L316.048 248.644V247.828L318.631 246.852H318.772ZM325.892 249.879V250.963C325.892 251.546 325.84 252.037 325.735 252.438C325.631 252.838 325.481 253.16 325.286 253.404C325.091 253.648 324.855 253.826 324.578 253.937C324.305 254.044 323.995 254.098 323.65 254.098C323.377 254.098 323.125 254.063 322.894 253.995C322.662 253.927 322.454 253.818 322.269 253.668C322.086 253.515 321.93 253.316 321.8 253.072C321.67 252.828 321.57 252.532 321.502 252.184C321.434 251.835 321.399 251.428 321.399 250.963V249.879C321.399 249.296 321.451 248.808 321.556 248.414C321.663 248.02 321.814 247.704 322.01 247.467C322.205 247.226 322.439 247.053 322.713 246.949C322.99 246.845 323.299 246.793 323.641 246.793C323.917 246.793 324.171 246.827 324.402 246.896C324.637 246.961 324.845 247.066 325.027 247.213C325.21 247.356 325.364 247.548 325.491 247.789C325.621 248.027 325.721 248.318 325.789 248.663C325.857 249.008 325.892 249.413 325.892 249.879ZM324.983 251.109V249.728C324.983 249.409 324.964 249.129 324.925 248.888C324.889 248.644 324.835 248.435 324.764 248.263C324.692 248.09 324.601 247.95 324.49 247.843C324.383 247.735 324.257 247.657 324.114 247.608C323.974 247.556 323.816 247.53 323.641 247.53C323.426 247.53 323.235 247.571 323.069 247.652C322.903 247.73 322.763 247.856 322.649 248.028C322.539 248.201 322.454 248.427 322.396 248.707C322.337 248.987 322.308 249.327 322.308 249.728V251.109C322.308 251.428 322.326 251.71 322.361 251.954C322.4 252.198 322.457 252.41 322.532 252.589C322.607 252.765 322.698 252.91 322.806 253.023C322.913 253.137 323.037 253.222 323.177 253.277C323.32 253.329 323.478 253.355 323.65 253.355C323.872 253.355 324.065 253.313 324.231 253.229C324.397 253.144 324.536 253.012 324.646 252.833C324.76 252.651 324.845 252.418 324.9 252.135C324.956 251.848 324.983 251.507 324.983 251.109ZM326.976 248.634V248.258C326.976 247.988 327.034 247.742 327.151 247.521C327.269 247.299 327.436 247.122 327.654 246.988C327.872 246.855 328.131 246.788 328.431 246.788C328.737 246.788 328.997 246.855 329.212 246.988C329.43 247.122 329.598 247.299 329.715 247.521C329.832 247.742 329.891 247.988 329.891 248.258V248.634C329.891 248.897 329.832 249.14 329.715 249.361C329.601 249.583 329.435 249.76 329.217 249.894C329.002 250.027 328.743 250.094 328.44 250.094C328.138 250.094 327.876 250.027 327.654 249.894C327.436 249.76 327.269 249.583 327.151 249.361C327.034 249.14 326.976 248.897 326.976 248.634ZM327.654 248.258V248.634C327.654 248.784 327.682 248.925 327.737 249.059C327.796 249.192 327.884 249.301 328.001 249.386C328.118 249.467 328.265 249.508 328.44 249.508C328.616 249.508 328.761 249.467 328.875 249.386C328.989 249.301 329.074 249.192 329.129 249.059C329.184 248.925 329.212 248.784 329.212 248.634V248.258C329.212 248.105 329.183 247.962 329.124 247.828C329.069 247.691 328.982 247.582 328.865 247.501C328.751 247.416 328.606 247.374 328.431 247.374C328.258 247.374 328.113 247.416 327.996 247.501C327.882 247.582 327.796 247.691 327.737 247.828C327.682 247.962 327.654 248.105 327.654 248.258ZM330.438 252.638V252.257C330.438 251.99 330.496 251.746 330.613 251.524C330.73 251.303 330.898 251.126 331.116 250.992C331.334 250.859 331.593 250.792 331.893 250.792C332.199 250.792 332.459 250.859 332.674 250.992C332.892 251.126 333.06 251.303 333.177 251.524C333.294 251.746 333.353 251.99 333.353 252.257V252.638C333.353 252.905 333.294 253.149 333.177 253.37C333.063 253.591 332.897 253.769 332.679 253.902C332.464 254.036 332.205 254.103 331.902 254.103C331.6 254.103 331.339 254.036 331.121 253.902C330.903 253.769 330.734 253.591 330.613 253.37C330.496 253.149 330.438 252.905 330.438 252.638ZM331.116 252.257V252.638C331.116 252.787 331.144 252.931 331.199 253.067C331.258 253.201 331.346 253.31 331.463 253.395C331.58 253.476 331.727 253.517 331.902 253.517C332.078 253.517 332.223 253.476 332.337 253.395C332.454 253.31 332.54 253.201 332.596 253.067C332.651 252.934 332.679 252.791 332.679 252.638V252.257C332.679 252.104 332.649 251.961 332.591 251.827C332.535 251.694 332.449 251.586 332.332 251.505C332.218 251.42 332.072 251.378 331.893 251.378C331.72 251.378 331.575 251.42 331.458 251.505C331.344 251.586 331.258 251.694 331.199 251.827C331.144 251.961 331.116 252.104 331.116 252.257ZM332.117 247.901L328.646 253.458L328.138 253.136L331.609 247.579L332.117 247.901Z" fill="black"/>
<defs>
<filter id="filter0_d_1_81456" x="32.9999" y="34.9883" width="84.0002" height="77.0117" filterUnits="userSpaceOnUse" color-interpolation-filters="sRGB">
<feFlood flood-opacity="0" result="BackgroundImageFix"/>
<feColorMatrix in="SourceAlpha" type="matrix" values="0 0 0 0 0 0 0 0 0 0 0 0 0 0 0 0 0 0 127 0" result="hardAlpha"/>
<feOffset dy="4"/>
<feGaussianBlur stdDeviation="2"/>
<feComposite in2="hardAlpha" operator="out"/>
<feColorMatrix type="matrix" values="0 0 0 0 0 0 0 0 0 0 0 0 0 0 0 0 0 0 0.25 0"/>
<feBlend mode="normal" in2="BackgroundImageFix" result="effect1_dropShadow_1_81456"/>
<feBlend mode="normal" in="SourceGraphic" in2="effect1_dropShadow_1_81456" result="shape"/>
</filter>
<linearGradient id="paint0_linear_1_81456" x1="145" y1="26" x2="357" y2="26" gradientUnits="userSpaceOnUse">
<stop stop-color="#00FF66"/>
<stop offset="1" stop-color="#42FF00" stop-opacity="0"/>
</linearGradient>
</defs>
</svg>
