<svg width="88" height="75" viewBox="0 0 88 75" fill="none" xmlns="http://www.w3.org/2000/svg">
<path d="M62.0422 31.25L56.6295 21.875L51.2169 25L62.0422 31.25ZM58.4338 37.5L44 29.1667L29.5662 37.5L40.3916 43.75L40.3916 38L47.6084 38L47.6084 43.75L58.4338 37.5ZM36.7831 50L25.9578 43.75L25.9578 60.4167L40.3916 68.75L40.3916 56.25L35.4119 59.125L31.8035 52.875L36.7831 50ZM36.7831 75L25.9578 68.75L25.9578 75L36.7831 75ZM18.7409 75L18.7409 64.5833L9.71982 59.375L4.30716 68.75L4.30716 72.9167L7.9156 75L18.7409 75ZM13.3283 53.125L18.7409 56.25L18.7409 43.75L13.3283 53.125ZM47.6084 56.25L47.6084 68.75L62.0422 60.4167L62.0422 43.75L51.2169 50L56.1965 52.875L52.5881 59.125L47.6084 56.25ZM69.2591 43.75L69.2591 56.25L74.6717 53.125L69.2591 43.75ZM62.0422 75L62.0422 68.75L51.2169 75L62.0422 75ZM69.2591 64.5833L69.2591 75L80.0844 75L83.6928 72.9167L83.6928 68.75L78.2802 59.375L69.2591 64.5833ZM31.3705 21.875L25.9578 31.25L36.7831 25L31.3705 21.875ZM40.3916 6.24999L34.9789 15.625L44 20.8333L53.0211 15.625L47.6084 6.24999L44 4.16666L40.3916 6.24999Z" stroke="white" stroke-width="74" stroke-dasharray="8 16"/>
</svg>
