<svg width="344" height="297" viewBox="0 0 344 297" fill="none" xmlns="http://www.w3.org/2000/svg">
<path d="M139.957 129.5L172 74L204.043 129.5L205.847 132.625L175.608 150.083L190.042 158.417L213.064 145.125L216.672 151.375L197.259 162.583L204.043 166.5L202.239 169.625L193.651 164.667L184.63 169.875L190.042 179.25L193.651 181.333L223.889 163.875L227.498 170.125L197.259 187.583L197.259 191.75L202.672 201.125L211.693 195.917L211.693 186L215.301 186L215.301 193.833L234.715 182.625L238.323 188.875L215.301 202.167L215.301 218.833L245.54 201.375L247.344 204.5L279.387 260L215.301 260L211.693 260L211.693 225.083L197.259 233.417L197.259 260L190.042 260L190.042 237.583L183.258 241.5L181.454 238.375L190.042 233.417L190.042 223L179.217 223L175.608 225.083L175.608 260L168.392 260L168.392 225.083L164.783 223L153.958 223L153.958 233.417L162.546 238.375L160.742 241.5L153.958 237.583L153.958 260L146.741 260L146.741 233.417L132.307 225.083L132.307 260L128.699 260L64.6128 260L96.6558 204.5L98.46 201.375L128.699 218.833L128.699 202.167L105.677 188.875L109.285 182.625L128.699 193.833L128.699 186L132.307 186L132.307 195.917L141.328 201.125L146.741 191.75L146.741 187.583L116.502 170.125L120.111 163.875L150.349 181.333L153.958 179.25L159.37 169.875L150.349 164.667L141.761 169.625L139.957 166.5L146.741 162.583L127.328 151.375L130.936 145.125L153.958 158.417L168.392 150.083L138.153 132.625L139.957 129.5ZM186.434 160.5L175.608 154.25L181.021 163.625L186.434 160.5ZM168.392 154.25L162.979 163.625L157.566 160.5L168.392 154.25ZM211.693 204.25L206.28 207.375L211.693 216.75L211.693 204.25ZM197.259 223L208.084 223L197.259 229.25L197.259 223ZM146.741 229.25L146.741 223L135.916 223L146.741 229.25ZM137.72 207.375L132.307 216.75L132.307 204.25L137.72 207.375Z" stroke="white" stroke-width="74" stroke-dasharray="8 16"/>
</svg>
