<svg width="52" height="50" viewBox="0 0 52 50" fill="none" xmlns="http://www.w3.org/2000/svg">
<mask id="path-1-inside-1_1_73" fill="white">
<path d="M47.6506 12.5C38.0281 -4.16666 13.9719 -4.16666 4.34936 12.5C-5.27314 29.1667 6.75498 50 26 50C45.245 50 57.2731 29.1667 47.6506 12.5Z"/>
</mask>
<path d="M26 13C25.4149 13 24.7784 13.0497 24.1068 13.1647L36.5931 86.1036C33.1177 86.6986 29.5768 87 26 87L26 13ZM16.7394 17.3793C15.8901 18.3978 15.2273 19.5457 14.77 20.7904L84.2303 46.3104C81.7626 53.027 78.1534 59.2783 73.5705 64.7737L16.7394 17.3793ZM14.8037 29.2781C15.0399 29.9172 15.3151 30.4933 15.6077 31L79.6936 -5.99999C81.482 -2.90242 82.9914 0.314864 84.2139 3.6221L14.8037 29.2781ZM15.6077 31C15.9002 31.5067 16.2615 32.0331 16.6969 32.5572L73.6207 -14.7257C75.8737 -12.0134 77.9052 -9.09756 79.6936 -5.99999L15.6077 31ZM24.0306 36.8303C25.3372 37.0566 26.6628 37.0566 27.9694 36.8303L15.3402 -36.0841C22.3908 -37.3053 29.6092 -37.3053 36.6597 -36.0841L24.0306 36.8303ZM35.3031 32.5573C35.7385 32.0331 36.0998 31.5067 36.3923 31L-27.6936 -5.99999C-25.9052 -9.09756 -23.8737 -12.0134 -21.6207 -14.7257L35.3031 32.5573ZM36.3923 31C36.6848 30.4933 36.9601 29.9172 37.1963 29.2781L-32.2139 3.6221C-30.9914 0.314861 -29.482 -2.90243 -27.6936 -5.99999L36.3923 31ZM37.23 20.7904C36.7727 19.5457 36.1099 18.3978 35.2606 17.3793L-21.5705 64.7737C-26.1534 59.2783 -29.7626 53.027 -32.2303 46.3104L37.23 20.7904ZM27.8932 13.1647C27.2216 13.0497 26.5851 13 26 13L26 87C22.4232 87 18.8823 86.6986 15.4069 86.1036L27.8932 13.1647ZM26 -24C23.334 -24 20.6087 -23.7747 17.8636 -23.3048L42.8363 122.573C37.2874 123.523 31.6577 124 26 124L26 -24ZM-11.6762 -6.31781C-15.2416 -2.04251 -18.0403 2.80502 -19.9601 8.03039L118.96 59.0705C115.03 69.7677 109.285 79.7185 101.986 88.4708L-11.6762 -6.31781ZM-19.9014 42.1061C-18.9358 44.7184 -17.7683 47.1912 -16.4353 49.5L111.737 -24.5C114.565 -19.6003 116.967 -14.4863 118.919 -9.2059L-19.9014 42.1061ZM-16.4353 49.5C-15.1022 51.8088 -13.5445 54.0563 -11.765 56.1987L102.083 -38.3672C105.68 -34.0367 108.908 -29.3997 111.737 -24.5L-16.4353 49.5ZM17.7161 73.2875C23.2013 74.2375 28.7987 74.2375 34.2839 73.2875L9.02568 -72.5413C20.2549 -74.4862 31.7451 -74.4862 42.9743 -72.5413L17.7161 73.2875ZM63.765 56.1987C65.5445 54.0563 67.1022 51.8088 68.4352 49.5L-59.7365 -24.5C-56.9077 -29.3997 -53.6797 -34.0367 -50.0827 -38.3672L63.765 56.1987ZM68.4352 49.5C69.7682 47.1912 70.9358 44.7184 71.9014 42.1061L-66.9189 -9.2059C-64.9671 -14.4863 -62.5654 -19.6003 -59.7365 -24.5L68.4352 49.5ZM71.9601 8.0304C70.0403 2.80502 67.2416 -2.0425 63.6762 -6.31781L-49.9861 88.4708C-57.2851 79.7185 -63.0302 69.7677 -66.9604 59.0704L71.9601 8.0304ZM34.1364 -23.3048C31.3912 -23.7747 28.666 -24 26 -24L26 124C20.3423 124 14.7126 123.523 9.16371 122.573L34.1364 -23.3048Z" fill="white" mask="url(#path-1-inside-1_1_73)"/>
</svg>
