<svg width="206" height="213" viewBox="0 0 206 213" fill="none" xmlns="http://www.w3.org/2000/svg">
<path d="M144.223 61.4L143.703 60.5L111.66 79L143.703 60.5C142.908 59.1225 142.044 57.7857 141.114 56.4946L111.091 78.1186C109.339 75.6866 106.741 74.3316 104.046 74.0538L107.841 37.2489C104.623 36.917 101.377 36.917 98.159 37.2489L101.954 74.0538C99.259 74.3316 96.6607 75.6866 94.9091 78.1186L64.8858 56.4946C63.9559 57.7857 63.0921 59.1225 62.2968 60.5L61.7772 61.4L93.8201 79.9L89.6632 87.1L57.6203 68.6L56.581 70.4L88.624 88.9L85.6795 94M144.223 61.4L94.3397 139L88.4508 139L88.4508 176L86.3723 176L86.3723 139L78.0585 139L78.0585 176L77.0192 176C75.4286 176 73.839 175.92 72.2559 175.761L75.9712 138.948C72.9892 138.647 70.5167 137.074 68.9286 134.879L38.9521 156.568C37.0555 153.947 35.4329 151.136 34.1111 148.183L67.8825 133.067C66.7757 130.594 66.65 127.667 67.8803 124.934L34.1417 109.745C34.7949 108.294 35.5207 106.878 36.316 105.5L68.359 124L36.316 105.5L36.8357 104.6L68.8786 123.1L73.0355 115.9L40.9926 97.4L42.0318 95.6L74.0747 114.1L77.0192 109L78.0585 107.2L78.0585 106.8M144.223 61.4L112.18 79.9L116.337 87.1M144.223 61.4L116.337 87.1M85.6795 94L84.6403 95.8L84.2938 96M85.6795 94L83.2546 95.4M85.6795 94L83.2546 95.4M84.2938 96L84.467 96.1L83.4278 97.9L82.2154 97.2M84.2938 96L82.2154 97.2M84.2938 96L83.2546 95.4M82.2154 97.2L80.1546 98.3898M82.2154 97.2L81.1762 96.6L51.3849 79.4L52.4241 77.6L83.2546 95.4M80.1546 98.3898C80.4428 98.8463 80.7471 99.2977 81.0675 99.7426L83.2869 98.1442L79.4119 104.856L79.6865 102.135C79.1409 102.08 78.5979 102.042 78.0585 102.02M80.1546 98.3898C79.9706 98.0981 79.7932 97.8043 79.6223 97.5087L80.1369 98.4L80.1546 98.3898ZM78.0585 102.02L78.0585 104.4M78.0585 102.02C77.7105 102.007 77.364 102 77.0192 102L78.0585 102L78.0585 102.02ZM78.0585 104.4L79.2709 105.1L78.2317 106.9L78.0585 106.8M78.0585 104.4L77.0192 103.8L47.228 86.6L46.1887 88.4L77.0192 106.2L78.0585 106.8M78.0585 104.4L78.0585 106.8M117.376 88.9L120.321 94L121.36 95.8L121.706 96M117.376 88.9L96.7646 140.4M117.376 88.9L149.419 70.4L148.38 68.6L116.337 87.1M117.376 88.9L116.337 87.1M121.706 96L122.745 95.4L153.576 77.6L154.615 79.4L124.824 96.6L123.785 97.2M121.706 96L121.533 96.1L122.572 97.9L123.785 97.2M121.706 96L123.785 97.2M123.785 97.2L125.845 98.3898M125.845 98.3898C126.031 98.0963 126.209 97.8007 126.381 97.5032L125.863 98.4L125.845 98.3898ZM125.845 98.3898C125.557 98.8463 125.253 99.2977 124.932 99.7426L122.713 98.1442L126.588 104.856L126.313 102.135C126.859 102.08 127.402 102.042 127.942 102.02M127.942 102.02L127.942 102L128.981 102C128.636 102 128.289 102.007 127.942 102.02ZM127.942 102.02L127.942 104.4M127.942 104.4L128.981 103.8L158.772 86.6L159.811 88.4L128.981 106.2L127.942 106.8M127.942 104.4L126.729 105.1L127.768 106.9L127.942 106.8M127.942 104.4L127.942 106.8M127.942 106.8L127.942 107.2L128.981 109L131.925 114.1L163.968 95.6L165.007 97.4L132.964 115.9L137.121 123.1L169.164 104.6L169.684 105.5C170.479 106.878 171.205 108.294 171.858 109.745L138.12 124.934C139.35 127.667 139.224 130.594 138.118 133.067L171.889 148.183C170.567 151.136 168.945 153.947 167.048 156.568L137.071 134.879C135.483 137.074 133.011 138.647 130.029 138.948L133.744 175.761C132.161 175.92 130.571 176 128.981 176L127.942 176L127.942 139L119.628 139L119.628 176L117.549 176L117.549 139L111.66 139L109.582 139L109.235 139.2M109.235 139.2L109.235 140.4L109.235 176L107.157 176L107.157 141.6L107.157 140.4M109.235 139.2L107.157 140.4M109.235 139.2L109.235 139L107.157 139L107.157 140.4M107.157 140.4L105.096 141.59M105.096 141.59C105.258 141.898 105.426 142.201 105.598 142.5L105.078 141.6L105.096 141.59ZM105.096 141.59C104.845 141.112 104.606 140.623 104.381 140.123L106.875 139L99.1251 139L101.619 140.123C101.394 140.623 101.155 141.112 100.904 141.59M100.904 141.59L100.922 141.6L100.402 142.5C100.574 142.201 100.742 141.898 100.904 141.59ZM100.904 141.59L98.8431 140.4M98.8431 140.4L98.8431 141.6L98.8431 176L96.7646 176L96.7646 140.4M98.8431 140.4L96.7646 139.2M98.8431 140.4L98.8431 139L96.7646 139L96.7646 139.2M96.7646 140.4L96.7646 139.2M96.7646 140.4L96.4182 139L96.7646 139.2" stroke="white" stroke-width="74" stroke-dasharray="2 8"/>
</svg>
