<svg width="220" height="211" viewBox="0 0 220 211" fill="none" xmlns="http://www.w3.org/2000/svg">
<path d="M151.184 59.3333L150.703 58.5L118.66 77L150.703 58.5C149.818 56.967 148.848 55.4848 147.798 54.0602L118.022 76.0246C117.055 74.7131 115.838 73.7222 114.495 73.0517L131.013 39.9435C127.682 38.2816 124.218 37.0495 120.71 36.2316L112.309 72.265C110.793 71.9117 109.207 71.9117 107.691 72.265L99.2898 36.2316C95.7817 37.0495 92.3185 38.2816 88.9874 39.9435L105.505 73.0517C104.162 73.7222 102.945 74.7131 101.978 76.0246L72.2024 54.0602C71.1515 55.4848 70.1819 56.967 69.2968 58.5L68.8157 59.3333L100.859 77.8333L98.9341 81.1667L66.8912 62.6667L65.9289 64.3333L97.9719 82.8333L96.0474 86.1667L64.0044 67.6667L63.0422 69.3333L95.0851 87.8333L93.1606 91.1667L61.1177 72.6667L60.1554 74.3333L91.7172 92.5556M151.184 59.3333L91.7172 92.5556M151.184 59.3333L119.141 77.8333L121.066 81.1667M151.184 59.3333L121.066 81.1667M91.7172 92.5556L92.1984 92.8333M91.7172 92.5556L92.1984 92.8333M92.1984 92.8333L91.7172 93.6667L88.8305 95.3333M92.1984 92.8333L102.302 137.556M88.8305 95.3333L90.2739 96.1667L89.9448 96.7367L88.8328 97.5569M88.8305 95.3333L87.8682 94.7778L58.2309 77.6667L57.2687 79.3333L87.3564 96.7045M88.8305 95.3333L87.1136 96.3246C87.1933 96.4516 87.2742 96.5783 87.3564 96.7045M88.8328 97.5569L89.3116 97.8333L87.3871 101.167L86.9084 100.89M88.8328 97.5569L87.3564 96.7045M88.8328 97.5569L88.2471 97.989C87.9355 97.5666 87.6386 97.1381 87.3564 96.7045M86.9084 100.89L86.754 102.263L86.4249 102.833L84.9815 102M86.9084 100.89L86.9897 100.167C86.4681 100.108 85.9485 100.065 85.4318 100.038M86.9084 100.89L85.4318 100.038M84.9815 102L84.9815 105.333L84.5004 106.167L84.0192 105.889L52.4574 87.6667L51.4952 89.3333L83.5381 107.833L81.6136 111.167L49.5707 92.6667L48.6084 94.3333L80.6514 112.833L78.7268 116.167L46.6839 97.6667L45.7217 99.3333L77.7646 117.833L75.8401 121.167L43.7972 102.667L43.316 103.5L75.359 122L43.316 103.5C42.4309 105.033 41.6321 106.614 40.9239 108.236L74.8332 123.04C74.1811 124.534 73.9312 126.083 74.0225 127.582L37.0909 129.831C37.3172 133.547 37.9818 137.162 39.0275 140.609L74.4342 129.868C74.886 131.357 75.679 132.731 76.7428 133.867L49.7377 159.16C52.2001 161.789 54.9987 164.172 58.1036 166.226L78.5171 135.367C79.7696 136.195 81.2361 136.753 82.8556 136.935L78.7215 173.704C80.4806 173.901 82.249 174 84.0192 174L84.9815 174L84.9815 137L88.8305 137L88.8305 174L90.755 174L90.755 137L94.604 137L94.604 174L96.5285 174L96.5285 137L100.377 137L100.377 174L102.302 174L102.302 137.556M84.9815 102L84.9815 100.018C85.1313 100.023 85.2815 100.03 85.4318 100.038M84.9815 102L84.0192 101.444L54.3819 84.3333L55.3442 82.6667L85.4318 100.038M102.302 137.556L102.302 137M102.302 137.556L102.302 137M102.302 137L103.264 137M102.302 137L103.264 137M103.264 137L106.151 138.667M103.264 137L108.075 137M106.151 138.667L106.151 137L106.809 137L108.075 137.553M106.151 138.667L107.868 139.658C107.938 139.525 108.007 139.392 108.075 139.258M106.151 138.667L106.151 139.778L106.151 174L108.075 174L108.075 139.258M108.075 139.258L108.075 137.553M108.075 139.258C108.31 138.797 108.533 138.325 108.743 137.844L108.075 137.553M108.075 137.553L108.075 137M108.075 137L111.924 137L111.924 137.553M108.075 137L122.028 82.8333M122.028 82.8333L123.953 86.1667L155.996 67.6667L156.958 69.3333L124.915 87.8333L126.839 91.1667L158.882 72.6667L159.845 74.3333L128.283 92.5556L127.802 92.8333L128.283 93.6667L131.17 95.3333M122.028 82.8333L154.071 64.3333L153.109 62.6667L121.066 81.1667M122.028 82.8333L121.066 81.1667M131.17 95.3333L132.132 94.7778L161.769 77.6667L162.731 79.3333L132.644 96.7045M131.17 95.3333L129.726 96.1667L130.055 96.7367L131.167 97.5569M131.17 95.3333L132.886 96.3246C132.807 96.4516 132.726 96.5783 132.644 96.7045M132.644 96.7045C132.361 97.1381 132.064 97.5666 131.753 97.989L131.167 97.5569M132.644 96.7045L131.167 97.5569M131.167 97.5569L130.688 97.8333L132.613 101.167L133.092 100.89M133.092 100.89L133.01 100.167C133.532 100.108 134.051 100.065 134.568 100.038M133.092 100.89L133.246 102.263L133.575 102.833L135.019 102M133.092 100.89L134.568 100.038M134.568 100.038L164.656 82.6667L165.618 84.3333L135.981 101.444L135.019 102M134.568 100.038C134.719 100.03 134.869 100.023 135.019 100.018L135.019 102M135.019 102L135.019 105.333L135.5 106.167L135.981 105.889L167.543 87.6667L168.505 89.3333L136.462 107.833L138.386 111.167L170.429 92.6667L171.392 94.3333L139.349 112.833L141.273 116.167L173.316 97.6667L174.278 99.3333L142.235 117.833L144.16 121.167L176.203 102.667L176.684 103.5C177.569 105.033 178.368 106.614 179.076 108.236L145.167 123.04C145.819 124.534 146.069 126.083 145.978 127.582L182.909 129.831C182.683 133.547 182.018 137.162 180.973 140.609L145.566 129.868C145.114 131.357 144.321 132.731 143.257 133.867L170.262 159.16C167.8 161.789 165.001 164.172 161.896 166.226L141.483 135.367C140.23 136.195 138.764 136.753 137.144 136.935L141.278 173.704C139.519 173.901 137.751 174 135.981 174L135.018 174L135.019 137L131.169 137L131.169 174L129.245 174L129.245 137L125.396 137L125.396 174L123.471 174L123.471 137L119.622 137L119.622 174L117.698 174L117.698 137.556L117.698 137L116.736 137L113.849 138.667M113.849 138.667L113.849 139.778L113.849 174L111.924 174L111.924 139.258M113.849 138.667L113.849 137L113.191 137L111.924 137.553M113.849 138.667L112.132 139.658C112.062 139.525 111.993 139.392 111.924 139.258M111.924 139.258C111.69 138.797 111.467 138.325 111.257 137.844L111.924 137.553M111.924 139.258L111.924 137.553" stroke="white" stroke-width="74" stroke-dasharray="2 4"/>
</svg>
