<svg width="88" height="75" viewBox="0 0 88 75" fill="none" xmlns="http://www.w3.org/2000/svg">
<path d="M45.4762 2.55681L44.9841 1.70457L44 1.13637L43.0159 1.70454L42.5238 2.55683L44 3.4091L45.4762 2.55681ZM42.0317 4.54546L41.5397 4.26137L41.0476 5.11363L42.0317 4.54546ZM44 5.68182L42.0317 6.81819L44 7.95455L45.9682 6.81819L44 5.68182ZM47.9365 7.95455L45.9682 9.09091L47.9365 10.2273L49.4127 9.375L48.9206 8.52275L47.9365 7.95455ZM50.3968 11.0795L49.9047 11.3636L50.8889 11.9318L50.3968 11.0795ZM46.9524 5.11366L46.4603 4.26136L45.9682 4.54546L46.9524 5.11366ZM53.3491 16.1932L52.8571 15.3409L51.8729 14.7727L49.9047 15.9091L51.8729 17.0455L53.3491 16.1932ZM49.9047 13.6364L47.9365 12.5L45.9682 13.6364L47.9365 14.7727L49.9047 13.6364ZM49.9047 18.1818L47.9365 17.0455L45.9682 18.1818L47.9365 19.3182L49.9047 18.1818ZM45.9682 20.4545L44 19.3182L42.0318 20.4545L44 21.5909L45.9682 20.4545ZM42.0318 22.7273L40.0635 21.5909L38.0953 22.7273L40.0635 23.8636L42.0318 22.7273ZM38.0953 25L36.127 23.8636L34.1588 25L36.127 26.1364L38.0953 25ZM34.1588 27.2727L32.1905 26.1364L30.2223 27.2727L32.1906 28.4091L34.1588 27.2727ZM30.2223 29.5455L28.2541 28.4091L27.27 28.9773L26.7779 29.8295L28.2541 30.6818L30.2223 29.5455ZM26.2858 31.8182L25.7938 31.5341L25.3017 32.3864L26.2858 31.8182ZM28.2541 32.9545L26.2858 34.0909L28.2541 35.2273L30.2223 34.0909L28.2541 32.9545ZM32.1906 35.2273L30.2223 36.3636L32.1906 37.5L34.1588 36.3636L32.1906 35.2273ZM35.1429 38.0682L34.1588 38.6364L35.1429 39.2046L35.1429 38.0682ZM37.1112 38.0682L37.1112 39.2045L38.0953 38.6364L37.1112 38.0682ZM38.0953 36.3636L40.0635 37.5L42.0318 36.3636L40.0635 35.2273L38.0953 36.3636ZM42.0318 34.0909L44 35.2273L45.9682 34.0909L44 32.9546L42.0318 34.0909ZM45.9682 31.8182L47.9365 32.9546L49.9047 31.8182L47.9365 30.6818L45.9682 31.8182ZM49.9047 29.5455L51.873 30.6818L53.8412 29.5455L51.873 28.4091L49.9047 29.5455ZM53.8412 27.2727L55.8094 28.4091L57.7777 27.2727L55.8094 26.1364L53.8412 27.2727ZM57.7777 25L58.7618 25.5682L58.2697 24.7159L57.7777 25ZM55.8094 23.8636L57.2856 23.0114L56.7936 22.1591L55.8094 21.5909L53.8412 22.7273L55.8094 23.8636ZM51.8729 21.5909L53.8412 20.4546L51.8729 19.3182L49.9047 20.4546L51.8729 21.5909ZM54.3333 17.8977L53.8412 18.1818L54.8253 18.75L54.3333 17.8977ZM49.9047 22.7273L47.9365 21.5909L45.9682 22.7273L47.9365 23.8636L49.9047 22.7273ZM45.9682 25L44 23.8636L42.0317 25L44 26.1364L45.9682 25ZM42.0318 27.2727L40.0635 26.1364L38.0953 27.2727L40.0635 28.4091L42.0318 27.2727ZM38.0953 29.5455L36.127 28.4091L34.1588 29.5455L36.127 30.6818L38.0953 29.5455ZM34.1588 31.8182L32.1905 30.6818L30.2223 31.8182L32.1906 32.9545L34.1588 31.8182ZM36.127 32.9546L34.1588 34.0909L36.127 35.2273L38.0953 34.0909L36.127 32.9546ZM38.0953 31.8182L40.0635 32.9546L42.0318 31.8182L40.0635 30.6818L38.0953 31.8182ZM42.0318 29.5455L44 30.6818L45.9682 29.5455L44 28.4091L42.0318 29.5455ZM45.9682 27.2727L47.9365 28.4091L49.9047 27.2727L47.9365 26.1364L45.9682 27.2727ZM49.9047 25L51.873 26.1364L53.8412 25L51.873 23.8636L49.9047 25ZM61.2221 29.8296L60.73 28.9773L59.7459 28.4091L57.7777 29.5455L59.7459 30.6818L61.2221 29.8296ZM62.2062 31.5341L61.7142 31.8182L62.6983 32.3864L62.2062 31.5341ZM65.1586 36.6477L64.6665 35.7955L63.6824 35.2273L61.7142 36.3636L63.6824 37.5L65.1586 36.6477ZM61.7142 34.0909L59.7459 32.9546L57.7777 34.0909L59.7459 35.2273L61.7142 34.0909ZM60.6119 38L59.7459 37.5L58.8799 38L60.6119 38ZM58.7618 39.2046L58.7618 38.0682L57.7777 38.6364L58.7618 39.2046ZM57.7777 40.9091L56.7936 40.3409L56.7936 41.4773L57.7777 40.9091ZM58.7618 42.6136L57.7777 43.1818L58.7618 43.75L58.7618 42.6136ZM60.73 42.6136L60.73 43.75L61.7141 43.1818L60.73 42.6136ZM62.6983 41.6136L61.8322 43.1136L62.6983 42.6136L62.6983 41.6136ZM64.6665 39.2045L64.6665 41.4773L66.6348 40.3409L66.6348 39.2045L66.1427 38.3523L64.6665 39.2045ZM66.6348 42.6136L64.6665 43.75L64.6665 46.0227L66.6348 44.8864L66.6348 42.6136ZM68.603 42.6136L68.603 43.75L69.095 43.4659L68.603 42.6136ZM70.5712 46.0227L70.0792 45.1705L68.603 46.0227L68.603 48.2955L70.5712 47.1591L70.5712 46.0227ZM66.6347 49.4318L66.6348 47.1591L64.6665 48.2955L64.6665 50.5682L66.6347 49.4318ZM62.6983 51.7045L62.6983 49.4318L60.73 50.5682L60.73 52.8409L62.6983 51.7045ZM58.7618 53.9773L58.7618 51.7045L56.7936 52.8409L56.7936 55.1136L58.7618 53.9773ZM54.8253 55.1136L54.8253 53.9773L53.8412 54.5455L54.8253 55.1136ZM53.8412 56.8182L52.8571 56.25L52.8571 57.3864L53.8412 56.8182ZM54.8253 58.5227L52.8571 59.6591L52.8571 61.9318L54.8253 60.7954L54.8253 58.5227ZM54.8253 63.0682L52.8571 64.2045L52.8571 66.4773L54.8253 65.3409L54.8253 63.0682ZM54.8253 67.6136L52.8571 68.75L52.8571 71.0227L54.8253 69.8864L54.8253 67.6136ZM54.8253 72.1591L52.8571 73.2955L52.8571 75L53.8412 75L54.8253 74.4318L54.8253 72.1591ZM50.8888 75L50.8888 74.4318L49.9047 75L50.8888 75ZM56.7936 71.0227L56.7936 73.2955L58.7618 72.1591L58.7618 69.8864L56.7936 71.0227ZM60.73 68.75L60.73 71.0227L62.6983 69.8864L62.6983 67.6136L60.73 68.75ZM62.6983 72.1591L60.73 73.2955L60.73 75L61.7141 75L62.6983 74.4318L62.6983 72.1591ZM64.6665 66.4773L64.6665 68.75L66.6347 67.6136L66.6347 65.3409L64.6665 66.4773ZM66.6347 69.8864L64.6665 71.0227L64.6665 73.2954L66.6347 72.1591L66.6347 69.8864ZM68.603 64.2045L68.603 66.4773L70.5712 65.3409L70.5712 63.0682L68.603 64.2045ZM70.5712 67.6136L68.603 68.75L68.603 71.0227L70.5712 69.8864L70.5712 67.6136ZM72.5395 61.9318L72.5395 64.2045L74.5077 63.0682L74.5077 60.7955L72.5395 61.9318ZM74.5077 65.3409L72.5395 66.4773L72.5395 68.75L74.5077 67.6136L74.5077 65.3409ZM76.4759 59.6591L76.4759 61.9318L78.4442 60.7955L78.4442 59.6591L77.9521 58.8068L76.4759 59.6591ZM78.4442 63.0682L76.4759 64.2045L76.4759 66.4773L78.4442 65.3409L78.4442 63.0682ZM76.4759 57.3864L76.968 57.1023L76.4759 56.25L76.4759 57.3864ZM74.5077 58.5227L74.5077 56.25L72.5395 57.3864L72.5395 59.6591L74.5077 58.5227ZM70.5712 60.7955L70.5712 58.5227L68.603 59.6591L68.603 61.9318L70.5712 60.7955ZM68.603 57.3864L70.5712 56.25L70.5712 53.9773L68.603 55.1136L68.603 57.3864ZM66.6347 63.0682L66.6347 60.7954L64.6665 61.9318L64.6665 64.2045L66.6347 63.0682ZM64.6665 59.6591L66.6347 58.5227L66.6347 56.25L64.6665 57.3864L64.6665 59.6591ZM62.6983 65.3409L62.6983 63.0682L60.73 64.2045L60.73 66.4773L62.6983 65.3409ZM60.73 61.9318L62.6983 60.7954L62.6983 58.5227L60.73 59.6591L60.73 61.9318ZM58.7618 67.6136L58.7618 65.3409L56.7936 66.4773L56.7936 68.75L58.7618 67.6136ZM56.7936 64.2045L58.7618 63.0682L58.7618 60.7954L56.7936 61.9318L56.7936 64.2045ZM56.7936 57.3864L56.7936 59.6591L58.7618 58.5227L58.7618 56.25L56.7936 57.3864ZM60.73 55.1136L60.73 57.3864L62.6983 56.25L62.6983 53.9773L60.73 55.1136ZM64.6665 52.8409L64.6665 55.1136L66.6347 53.9773L66.6347 51.7045L64.6665 52.8409ZM68.603 50.5682L68.603 52.8409L70.5712 51.7045L70.5712 49.4318L68.603 50.5682ZM72.5395 49.4318L72.5395 50.5682L73.0315 50.2841L72.5395 49.4318ZM74.5077 52.8409L74.0156 51.9886L72.5395 52.8409L72.5395 55.1136L74.5077 53.9773L74.5077 52.8409ZM80.4124 63.0682L80.4124 64.2045L80.9045 63.9205L80.4124 63.0682ZM82.3807 66.4773L81.8886 65.625L80.4124 66.4773L80.4124 68.75L82.3807 67.6136L82.3807 66.4773ZM78.4442 69.8864L78.4442 67.6136L76.4759 68.75L76.4759 71.0227L78.4442 69.8864ZM74.5077 72.1591L74.5077 69.8864L72.5395 71.0227L72.5395 73.2955L74.5077 72.1591ZM70.5712 74.4318L70.5712 72.1591L68.603 73.2954L68.603 75L69.5871 75L70.5712 74.4318ZM66.6347 75L66.6347 74.4318L65.6506 75L66.6347 75ZM73.5236 75L74.5077 75L74.5077 74.4318L73.5236 75ZM78.4442 72.1591L76.4759 73.2954L76.4759 75L77.46 75L78.4442 74.4318L78.4442 72.1591ZM80.4124 71.0227L80.4124 73.2954L82.3807 72.1591L82.3807 69.8864L80.4124 71.0227ZM84.3489 69.8864L84.3489 71.0227L84.841 70.7386L84.3489 69.8864ZM86.3171 73.2955L85.8251 72.4432L84.3489 73.2954L84.3489 75L85.333 75L86.3171 74.4318L86.3171 73.2955ZM82.3807 75L82.3807 74.4318L81.3965 75L82.3807 75ZM58.7618 75L58.7618 74.4318L57.7776 75L58.7618 75ZM48.9206 73.2955L50.8888 72.1591L50.8888 69.8864L48.9206 71.0227L48.9206 73.2955ZM45.9682 75L46.9524 74.4318L46.9524 72.1591L44.9841 73.2954L44.9841 75L45.9682 75ZM46.0863 70.3863L46.9524 69.8864L46.9524 68.8864L46.0863 70.3863ZM45.9682 68.1818L46.9524 68.75L46.9524 67.6136L45.9682 68.1818ZM44.9841 66.4773L45.9682 65.9091L44.9841 65.3409L44.9841 66.4773ZM43.0159 66.4773L43.0159 65.3409L42.0317 65.9091L43.0159 66.4773ZM42.0317 68.1818L41.0476 67.6136L41.0476 68.75L42.0317 68.1818ZM41.9137 70.3864L41.0476 68.8864L41.0476 69.8864L41.9137 70.3864ZM43.0159 73.2955L41.0476 72.1591L41.0476 74.4318L42.0318 75L43.0159 75L43.0159 73.2955ZM1.68286 74.4318L2.66696 75L3.6511 75L3.6511 73.2955L2.17491 72.4432L1.68286 73.2954L1.68286 74.4318ZM21.8573 38.3523L21.3653 39.2045L21.3653 40.3409L23.3335 41.4773L23.3335 39.2046L21.8573 38.3523ZM23.3335 35.7954L22.8414 36.6477L24.3176 37.5L26.2858 36.3636L24.3176 35.2273L23.3335 35.7954ZM27.27 38.0682L26.2858 38.6364L27.27 39.2046L27.27 38.0682ZM29.2382 38.0682L29.2382 39.2045L30.2223 38.6364L29.2382 38.0682ZM34.1588 40.9091L33.1747 40.3409L33.1747 41.4773L34.1588 40.9091ZM35.1429 42.6136L34.1588 43.1818L35.1429 43.75L35.1429 42.6136ZM37.1112 42.6136L37.1112 43.75L38.0953 43.1818L37.1112 42.6136ZM38.0953 40.9091L39.0794 41.4773L39.0794 40.3409L38.0953 40.9091ZM43.0159 38.0682L42.0318 38.6364L43.0159 39.2046L43.0159 38.0682ZM44.9841 38.0682L44.9841 39.2045L45.9682 38.6364L44.9841 38.0682ZM45.9682 36.3636L47.9365 37.5L49.9047 36.3636L47.9365 35.2273L45.9682 36.3636ZM49.9047 34.0909L51.8729 35.2273L53.8412 34.0909L51.873 32.9546L49.9047 34.0909ZM57.7777 36.3636L55.8094 35.2273L53.8412 36.3636L55.8094 37.5L57.7777 36.3636ZM52.8571 39.2045L53.8412 38.6364L52.8571 38.0682L52.8571 39.2045ZM52.739 38L51.873 37.5L51.0069 38L52.739 38ZM50.8888 39.2046L50.8888 38.0682L49.9047 38.6364L50.8888 39.2046ZM49.9047 40.9091L48.9206 40.3409L48.9206 41.4773L49.9047 40.9091ZM50.8888 42.6136L49.9047 43.1818L50.8888 43.75L50.8888 42.6136ZM52.8571 42.6136L52.8571 43.75L53.8412 43.1818L52.8571 42.6136ZM53.8412 40.9091L54.8253 41.4773L54.8253 40.3409L53.8412 40.9091ZM57.7777 45.4545L56.7936 44.8864L56.7936 46.0227L57.7777 45.4545ZM58.7618 47.1591L57.7777 47.7273L58.7618 48.2955L58.7618 47.1591ZM58.7618 49.4318L58.7618 48.4318L57.8958 49.9318L58.7618 49.4318ZM56.7936 50.5682L57.7777 50L56.7936 49.4318L56.7936 50.5682ZM54.8253 50.5682L54.8253 49.4318L53.8412 50L54.8253 50.5682ZM53.8412 52.2727L52.8571 51.7046L52.8571 52.8409L53.8412 52.2727ZM48.9206 55.1136L49.9047 54.5455L48.9206 53.9773L48.9206 55.1136ZM46.9524 55.1136L46.9524 53.9773L45.9682 54.5454L46.9524 55.1136ZM45.9682 56.8182L44.9841 56.25L44.9841 57.3864L45.9682 56.8182ZM46.9524 58.5227L45.9682 59.0909L46.9524 59.6591L46.9524 58.5227ZM48.9206 58.5227L48.9206 59.6591L49.9047 59.0909L48.9206 58.5227ZM49.9047 56.8182L50.8888 57.3864L50.8888 56.25L49.9047 56.8182ZM50.8888 60.7954L49.9047 61.3636L50.8888 61.9318L50.8888 60.7954ZM50.8888 63.0682L50.8888 62.0682L50.0228 63.5682L50.8888 63.0682ZM48.9206 64.2045L49.9047 63.6364L48.9206 63.0682L48.9206 64.2045ZM50.8888 65.3409L48.9206 66.4773L48.9206 68.75L50.8888 67.6136L50.8888 65.3409ZM44.9841 61.9318L45.9682 61.3636L44.9841 60.7955L44.9841 61.9318ZM43.0159 61.9318L43.0159 60.7955L42.0318 61.3636L43.0159 61.9318ZM42.0318 63.6364L41.0476 63.0682L41.0476 64.2045L42.0318 63.6364ZM39.0794 68.75L39.0794 66.4773L37.1112 65.3409L37.1112 67.6136L39.0794 68.75ZM35.1429 66.4773L35.1429 64.2045L33.1747 63.0682L33.1747 65.3409L35.1429 66.4773ZM33.1747 60.7955L35.1429 61.9318L35.1429 59.6591L33.1747 58.5227L33.1747 60.7955ZM31.2064 64.2045L31.2064 61.9318L29.2382 60.7955L29.2382 63.0682L31.2064 64.2045ZM29.2382 58.5227L31.2065 59.6591L31.2065 57.3864L29.2382 56.25L29.2382 58.5227ZM27.27 61.9318L27.27 59.6591L25.3017 58.5227L25.3017 60.7955L27.27 61.9318ZM25.3017 56.25L27.27 57.3864L27.27 55.1136L25.3017 53.9773L25.3017 56.25ZM23.3335 59.6591L23.3335 57.3864L21.3653 56.25L21.3653 58.5227L23.3335 59.6591ZM21.3653 53.9773L23.3335 55.1136L23.3335 52.8409L21.3653 51.7045L21.3653 53.9773ZM19.397 57.3864L19.397 55.1136L17.4288 53.9773L17.4288 56.25L19.397 57.3864ZM17.4288 51.7045L19.397 52.8409L19.397 50.5682L17.4288 49.4318L17.4288 51.7045ZM15.4605 55.1136L15.4605 52.8409L13.9843 51.9886L13.4923 52.8409L13.4923 53.9773L15.4605 55.1136ZM11.5241 57.3864L11.5241 56.25L11.032 57.1023L11.5241 57.3864ZM11.5241 59.6591L10.0479 58.8068L9.55582 59.6591L9.55582 60.7955L11.5241 61.9318L11.5241 59.6591ZM11.5241 64.2046L9.55582 63.0682L9.55582 65.3409L11.5241 66.4773L11.5241 64.2046ZM11.5241 68.75L9.55582 67.6136L9.55582 69.8864L11.5241 71.0227L11.5241 68.75ZM11.5241 73.2955L9.55582 72.1591L9.55582 74.4318L10.5399 75L11.5241 75L11.5241 73.2955ZM13.4923 75L14.4764 75L13.4923 74.4318L13.4923 75ZM13.4923 69.8864L13.4923 72.1591L15.4605 73.2955L15.4605 71.0227L13.4923 69.8864ZM17.4288 72.1591L17.4288 74.4318L18.4129 75L19.397 75L19.397 73.2955L17.4288 72.1591ZM21.3653 75L22.3494 75L21.3653 74.4318L21.3653 75ZM17.4288 69.8864L19.397 71.0227L19.397 68.75L17.4288 67.6136L17.4288 69.8864ZM17.4288 65.3409L19.397 66.4773L19.397 64.2046L17.4288 63.0682L17.4288 65.3409ZM17.4288 60.7955L19.397 61.9318L19.397 59.6591L17.4288 58.5227L17.4288 60.7955ZM23.3335 61.9318L21.3653 60.7955L21.3653 63.0682L23.3335 64.2046L23.3335 61.9318ZM23.3335 66.4773L21.3653 65.3409L21.3653 67.6136L23.3335 68.75L23.3335 66.4773ZM25.3017 63.0682L25.3017 65.3409L27.27 66.4773L27.27 64.2046L25.3017 63.0682ZM27.27 68.75L25.3017 67.6136L25.3017 69.8864L27.27 71.0227L27.27 68.75ZM29.2382 65.3409L29.2382 67.6136L31.2064 68.75L31.2064 66.4773L29.2382 65.3409ZM31.2064 71.0227L29.2382 69.8864L29.2382 72.1591L31.2064 73.2955L31.2064 71.0227ZM33.1747 67.6136L33.1747 69.8864L35.1429 71.0227L35.1429 68.75L33.1747 67.6136ZM35.1429 73.2955L33.1747 72.1591L33.1747 74.4318L34.1588 75L35.1429 75L35.1429 73.2955ZM37.1112 72.1591L39.0794 73.2955L39.0794 71.0227L37.1112 69.8864L37.1112 72.1591ZM38.0953 75L37.1112 74.4318L37.1112 75L38.0953 75ZM25.3017 74.4318L26.2858 75L27.27 75L27.27 73.2955L25.3017 72.1591L25.3017 74.4318ZM21.3653 72.1591L23.3335 73.2955L23.3335 71.0227L21.3653 69.8864L21.3653 72.1591ZM30.2223 75L29.2382 74.4318L29.2382 75L30.2223 75ZM15.4605 59.6591L15.4605 57.3864L13.4923 56.25L13.4923 58.5227L15.4605 59.6591ZM15.4605 61.9318L13.4923 60.7955L13.4923 63.0682L15.4605 64.2046L15.4605 61.9318ZM15.4605 66.4773L13.4923 65.3409L13.4923 67.6136L15.4605 68.75L15.4605 66.4773ZM5.61934 75L6.60345 75L5.61934 74.4318L5.61934 75ZM5.61934 72.1591L7.58758 73.2955L7.58758 71.0227L5.61934 69.8864L5.61934 72.1591ZM3.15902 70.7386L3.6511 71.0227L3.6511 69.8863L3.15902 70.7386ZM6.11138 65.625L5.61934 66.4772L5.61934 67.6137L7.58758 68.75L7.58758 66.4773L6.11138 65.625ZM7.58758 63.0682L7.09551 63.9205L7.58758 64.2046L7.58758 63.0682ZM19.397 42.6136L18.9049 43.4659L19.397 43.75L19.397 42.6136ZM21.3653 42.6136L21.3653 44.8864L23.3335 46.0227L23.3335 43.75L21.3653 42.6136ZM23.3335 48.2955L21.3653 47.1591L21.3653 49.4318L23.3335 50.5682L23.3335 48.2955ZM25.3017 44.8864L25.3017 47.1591L27.27 48.2955L27.27 46.0227L25.3017 44.8864ZM27.27 50.5682L25.3017 49.4318L25.3017 51.7045L27.27 52.8409L27.27 50.5682ZM29.2382 48.4319L29.2382 49.4318L30.1042 49.9318L29.2382 48.4319ZM31.2065 49.4318L30.2223 50L31.2065 50.5682L31.2065 49.4318ZM33.1747 49.4318L33.1747 50.5682L34.1588 50L33.1747 49.4318ZM34.1588 47.7273L35.1429 48.2955L35.1429 47.1591L34.1588 47.7273ZM33.1747 46.0227L34.1588 45.4545L33.1747 44.8864L33.1747 46.0227ZM31.2065 46.0227L31.2065 44.8864L30.2223 45.4545L31.2065 46.0227ZM30.2223 47.7273L29.2382 47.1591L29.2382 48.2954L30.2223 47.7273ZM26.2858 43.1818L27.27 43.75L27.27 42.6136L26.2858 43.1818ZM25.3017 41.4773L26.2858 40.9091L25.3017 40.3409L25.3017 41.4773ZM26.1677 43.1136L25.3017 41.6137L25.3017 42.6136L26.1677 43.1136ZM31.2065 40.3409L30.2223 40.9091L31.2065 41.4773L31.2065 40.3409ZM29.2382 43.75L30.2223 43.1818L29.2382 42.6136L29.2382 43.75ZM39.0794 44.8864L38.0953 45.4545L39.0794 46.0227L39.0794 44.8864ZM41.0476 44.8864L41.0476 46.0227L42.0318 45.4546L41.0476 44.8864ZM42.0318 43.1818L43.0159 43.75L43.0159 42.6136L42.0318 43.1818ZM41.0476 41.4773L42.0318 40.9091L41.0476 40.3409L41.0476 41.4773ZM46.9524 40.3409L45.9682 40.9091L46.9524 41.4773L46.9524 40.3409ZM49.9047 45.4545L48.9206 44.8864L48.9206 46.0227L49.9047 45.4545ZM50.8888 47.1591L49.9047 47.7273L50.8888 48.2955L50.8888 47.1591ZM52.8571 47.1591L52.8571 48.2954L53.8412 47.7273L52.8571 47.1591ZM54.8253 44.8864L53.8412 45.4545L54.8253 46.0227L54.8253 44.8864ZM48.9206 50.5682L49.9047 50L48.9206 49.4318L48.9206 50.5682ZM46.9524 50.5682L46.9524 49.4318L45.9682 50L46.9524 50.5682ZM45.9682 52.2727L44.9841 51.7046L44.9841 52.8409L45.9682 52.2727ZM41.0476 55.1136L42.0318 54.5455L41.0476 53.9773L41.0476 55.1136ZM39.0794 55.1136L39.0794 53.9773L38.0953 54.5455L39.0794 55.1136ZM38.0953 56.8182L37.1112 56.25L37.1112 57.3864L38.0953 56.8182ZM39.0794 58.5227L38.0953 59.0909L39.0794 59.6591L39.0794 58.5227ZM41.0476 58.5227L41.0476 59.6591L42.0318 59.0909L41.0476 58.5227ZM43.0159 56.25L42.0318 56.8182L43.0159 57.3864L43.0159 56.25ZM37.1112 61.9318L38.0953 61.3636L37.1112 60.7955L37.1112 61.9318ZM37.9772 63.5682L37.1112 62.0682L37.1112 63.0682L37.9772 63.5682ZM39.0794 63.0682L38.0953 63.6364L39.0794 64.2045L39.0794 63.0682ZM35.1429 57.3864L35.1429 56.25L34.1588 56.8182L35.1429 57.3864ZM33.1747 56.25L34.0407 56.75L33.1747 55.25L33.1747 56.25ZM33.1747 53.9773L33.1747 55.1136L34.1588 54.5455L33.1747 53.9773ZM34.1588 52.2727L35.1429 52.8409L35.1429 51.7045L34.1588 52.2727ZM39.0794 49.4318L38.0953 50L39.0794 50.5682L39.0794 49.4318ZM41.0476 49.4318L41.0476 50.5682L42.0318 50L41.0476 49.4318ZM42.0318 47.7273L43.0159 48.2955L43.0159 47.1591L42.0318 47.7273ZM46.9524 44.8864L45.9682 45.4546L46.9524 46.0227L46.9524 44.8864ZM44.9841 48.2955L45.9682 47.7273L44.9841 47.1591L44.9841 48.2955ZM44.9841 43.75L45.9682 43.1818L44.9841 42.6136L44.9841 43.75ZM37.1112 48.2955L38.0953 47.7273L37.1112 47.1591L37.1112 48.2955ZM37.1112 52.8409L38.0953 52.2727L37.1112 51.7046L37.1112 52.8409ZM43.0159 51.7045L42.0318 52.2727L43.0159 52.8409L43.0159 51.7045ZM31.2065 52.8409L29.2382 51.7045L29.2382 53.9773L31.2065 55.1136L31.2065 52.8409ZM50.8888 51.7045L49.9047 52.2727L50.8888 52.8409L50.8888 51.7045ZM17.4288 47.1591L19.397 48.2955L19.397 46.0227L17.9208 45.1705L17.4288 46.0227L17.4288 47.1591ZM15.4605 50.5682L15.4605 49.4318L14.9685 50.2841L15.4605 50.5682ZM46.9524 63.0682L45.9682 63.6364L46.9524 64.2045L46.9524 63.0682ZM62.6983 44.8864L60.73 46.0227L60.73 48.2955L62.6983 47.1591L62.6983 44.8864ZM55.8094 32.9546L57.7777 31.8182L55.8094 30.6818L53.8412 31.8182L55.8094 32.9546ZM44.866 38L44 37.5L43.134 38L44.866 38ZM29.1201 38L28.2541 37.5L27.388 38L29.1201 38ZM42.0317 70.4545L43.0159 71.0227L43.0159 69.8863L42.0317 70.4545ZM44.9841 69.8864L44.9841 71.0227L45.9682 70.4545L44.9841 69.8864ZM53.9593 56.75L54.8253 56.25L54.8253 55.25L53.9593 56.75ZM62.6983 41.4773L62.6983 40.3409L61.7141 40.9091L62.6983 41.4773ZM60.73 39.2045L61.7141 38.6364L60.73 38.0682L60.73 39.2045ZM36.9931 38L36.127 37.5L35.261 38L36.9931 38ZM29.7303 24.7159L29.2382 25.5682L30.2223 25L29.7303 24.7159ZM31.2064 22.1591L30.7144 23.0114L32.1905 23.8636L34.1588 22.7273L32.1905 21.5909L31.2064 22.1591ZM33.6667 17.8977L33.1747 18.75L34.1588 18.1818L33.6667 17.8977ZM38.0953 20.4545L36.127 19.3182L34.1588 20.4545L36.127 21.5909L38.0953 20.4545ZM34.6509 16.1932L36.127 17.0455L38.0953 15.9091L36.127 14.7727L35.1429 15.3409L34.6509 16.1932ZM42.0317 18.1818L40.0635 17.0455L38.0953 18.1818L40.0635 19.3182L42.0317 18.1818ZM38.0953 13.6364L40.0635 14.7727L42.0317 13.6364L40.0635 12.5L38.0953 13.6364ZM45.9682 15.9091L44 14.7727L42.0317 15.9091L44 17.0455L45.9682 15.9091ZM44 12.5L45.9682 11.3636L44 10.2273L42.0317 11.3636L44 12.5ZM37.1112 11.9318L38.0953 11.3636L37.6032 11.0796L37.1112 11.9318ZM39.0794 8.52272L38.5873 9.37501L40.0635 10.2273L42.0317 9.09091L40.0635 7.95455L39.0794 8.52272Z" stroke="white" stroke-width="74" stroke-dasharray="2 2"/>
</svg>
