<svg width="100" height="100" viewBox="0 0 100 100" fill="none" xmlns="http://www.w3.org/2000/svg">
<path d="M71.0593 26.6148L66.6667 22.2222L55.5556 33.3333L59.9482 37.726L62.2741 40.0518L66.6667 44.4445L77.7778 33.3333L73.3852 28.9407L71.0593 26.6148ZM54.3926 43.2815L50 38.8889L45.6074 43.2815L43.2815 45.6074L38.8889 50L43.2815 54.3926L45.6074 56.7185L50 61.1111L54.3926 56.7185L56.7185 54.3926L61.1111 50L56.7185 45.6074L54.3926 43.2815ZM33.3333 44.4444L37.7259 40.0518L40.0518 37.726L44.4444 33.3333L33.3333 22.2222L28.9407 26.6148L26.6148 28.9407L22.2222 33.3333L33.3333 44.4444ZM27.7778 50L16.6667 38.8889L5.55555 50L16.6667 61.1111L27.7778 50ZM33.3333 55.5556L22.2222 66.6667L26.6148 71.0593L28.9407 73.3852L33.3333 77.7778L44.4444 66.6667L40.0518 62.2741L37.7259 59.9482L33.3333 55.5556ZM50 72.2222L38.8889 83.3334L50 94.4445L61.1111 83.3333L50 72.2222ZM55.5556 66.6667L66.6667 77.7778L71.0593 73.3852L73.3852 71.0593L77.7778 66.6667L66.6667 55.5556L62.2741 59.9482L59.9482 62.2741L55.5556 66.6667ZM72.2222 50L83.3333 61.1111L94.4444 50L83.3333 38.8889L72.2222 50ZM50 5.55555L38.8889 16.6667L50 27.7778L61.1111 16.6667L50 5.55555Z" stroke="white" stroke-width="74" stroke-dasharray="8 16"/>
</svg>
