<svg width="310" height="310" viewBox="0 0 310 310" fill="none" xmlns="http://www.w3.org/2000/svg">
<path d="M128.837 78.8371L155 52.6741L181.163 78.8371L183.941 81.6148L157.778 107.778L168.889 118.889L195.052 92.726L200.607 98.2815L174.444 124.444L178.837 128.837L181.163 131.163L185.556 135.556L211.719 109.393L217.274 114.948L191.111 141.111L202.222 152.222L228.385 126.059L231.163 128.837L257.326 155L231.163 181.163L228.385 183.941L202.222 157.778L191.111 168.889L217.274 195.052L211.719 200.607L185.556 174.444L181.163 178.837L178.837 181.163L174.444 185.556L200.607 211.719L195.052 217.274L168.889 191.111L157.778 202.222L183.941 228.385L181.163 231.163L155 257.326L128.837 231.163L126.059 228.385L152.222 202.222L141.111 191.111L114.948 217.274L109.393 211.719L135.556 185.556L131.163 181.163L128.837 178.837L124.444 174.444L98.2815 200.607L92.7259 195.052L118.889 168.889L107.778 157.778L81.6148 183.941L78.837 181.163L52.6741 155L78.837 128.837L81.6148 126.059L107.778 152.222L118.889 141.111L92.7259 114.948L98.2815 109.393L124.444 135.556L128.837 131.163L131.163 128.837L135.556 124.444L109.393 98.2815L114.948 92.726L141.111 118.889L152.222 107.778L126.059 81.6148L128.837 78.8371Z" stroke="white" stroke-width="74" stroke-dasharray="8 16"/>
</svg>
