<svg width="220" height="220" viewBox="0 0 220 220" fill="none" xmlns="http://www.w3.org/2000/svg">
<path d="M161.163 58.8371C163.404 61.0783 165.479 63.4442 167.381 65.9174L138.054 88.4765C141.934 93.5202 144.267 99.3706 145.055 105.385L181.741 100.581C182.56 106.833 182.56 113.167 181.741 119.419L145.055 114.615C144.267 120.629 141.934 126.48 138.054 131.523L167.381 154.083C165.479 156.556 163.404 158.922 161.163 161.163C158.922 163.404 156.556 165.479 154.083 167.381L131.523 138.054C126.48 141.934 120.629 144.267 114.615 145.055L119.419 181.741C113.167 182.56 106.833 182.56 100.581 181.741L105.385 145.055C99.3706 144.267 93.5202 141.934 88.4765 138.054L65.9174 167.381C63.4442 165.479 61.0782 163.404 58.837 161.163C56.5958 158.922 54.5213 156.556 52.6188 154.083L81.9461 131.523C78.0664 126.48 75.7328 120.629 74.9454 114.615L38.2585 119.419C37.44 113.167 37.44 106.833 38.2585 100.581L74.9454 105.385C75.7328 99.3706 78.0664 93.5202 81.9461 88.4765L52.6188 65.9174C54.5213 63.4442 56.5958 61.0783 58.837 58.8371C61.0783 56.5958 63.4442 54.5213 65.9174 52.6188L88.4765 81.9461C93.5202 78.0664 99.3706 75.7328 105.385 74.9454M161.163 58.8371L135 85L161.163 58.8371ZM161.163 58.8371C158.922 56.5958 156.556 54.5213 154.083 52.6188L131.523 81.9461C126.48 78.0664 120.629 75.7328 114.615 74.9454M114.615 74.9454C111.553 74.5444 108.447 74.5444 105.385 74.9454M114.615 74.9454L119.419 38.2585M114.615 74.9454L119.419 38.2585M105.385 74.9454L100.581 38.2585C106.833 37.44 113.167 37.44 119.419 38.2585M105.385 74.9454L119.419 38.2585" stroke="white" stroke-width="74" stroke-dasharray="8 16"/>
</svg>
