<svg width="72" height="72" viewBox="0 0 72 72" fill="none" xmlns="http://www.w3.org/2000/svg">
<path d="M35.7565 35.7565L34.7267 34.9644C34.7706 34.9073 34.8092 34.8649 34.837 34.8371M35.7565 35.7565L34.9643 34.7267C34.9073 34.7706 34.8649 34.8092 34.837 34.8371M35.7565 35.7565L34.837 34.8371M35.7565 35.7565L34.837 34.8371M64.0539 14.4765L36.1284 35.9574L71.0546 31.3846C70.2672 25.3706 67.9336 19.5202 64.0539 14.4765ZM37.6323 35.8121L36.1969 36L37.6323 36.1879C37.6488 36.0621 37.6488 35.9379 37.6323 35.8121ZM71.0546 40.6154L36.1284 36.0426L64.0539 57.5235C67.9336 52.4798 70.2672 46.6294 71.0546 40.6154ZM40.6154 71.0546C46.6294 70.2672 52.4798 67.9336 57.5235 64.0539L36.0426 36.1284L40.6154 71.0546ZM36.1879 37.6323L36 36.1969L35.8121 37.6323C35.9379 37.6488 36.0621 37.6488 36.1879 37.6323ZM31.3846 71.0546L35.9574 36.1284L14.4765 64.0539C19.5202 67.9336 25.3706 70.2672 31.3846 71.0546ZM0.945407 40.6154C1.73281 46.6294 4.06636 52.4798 7.94606 57.5235L35.8716 36.0426L0.945407 40.6154ZM35.8031 36L34.3677 35.8121C34.3512 35.9379 34.3512 36.0621 34.3677 36.1879L35.8031 36ZM36.0426 35.8716L57.5235 7.94608C52.4798 4.06638 46.6294 1.73282 40.6154 0.945415L36.0426 35.8716ZM14.4765 7.94608L35.9574 35.8716L31.3846 0.945415C25.3706 1.73282 19.5202 4.06638 14.4765 7.94608ZM35.8716 35.9574L7.94607 14.4765C4.06637 19.5202 1.73281 25.3706 0.9454 31.3846L35.8716 35.9574ZM37.0356 34.7267L36.2435 35.7565L37.2733 34.9644C37.2294 34.9073 37.1908 34.8649 37.1629 34.8371C37.1351 34.8092 37.0927 34.7706 37.0356 34.7267ZM36 35.8032L36.1879 34.3677C36.0621 34.3512 35.9379 34.3512 35.8121 34.3677L36 35.8032ZM34.7267 37.0357C34.7706 37.0927 34.8092 37.1351 34.8371 37.163C34.8649 37.1908 34.9073 37.2294 34.9644 37.2733L35.7565 36.2435L34.7267 37.0357ZM37.1629 37.163C37.1908 37.1351 37.2294 37.0927 37.2733 37.0356L36.2435 36.2435L37.0356 37.2733C37.0927 37.2294 37.1351 37.1908 37.1629 37.163Z" stroke="white" stroke-width="74" stroke-dasharray="8 16"/>
</svg>
