<svg width="240" height="240" viewBox="0 0 240 240" fill="none" xmlns="http://www.w3.org/2000/svg">
<path d="M153.234 50.9081L153.924 51.5977L127.761 77.7606L129.14 79.1398L155.303 52.9768L156.682 54.356L130.519 80.5189L131.898 81.8981L158.061 55.7351L159.44 57.1143L133.277 83.2772L134.656 84.6564L160.819 58.4934L162.198 59.8726L136.036 86.0355L137.415 87.4147L163.578 61.2517L164.957 62.6309L138.794 88.7938L140.173 90.173L166.336 64.01L167.715 65.3892L141.552 91.5521L142.931 92.9313L169.094 66.7683L170.473 68.1475L144.31 94.3104L145.69 95.6896L171.853 69.5266L173.232 70.9058L147.069 97.0687L148.448 98.4479L174.611 72.2849L175.99 73.6641L149.827 99.827L151.206 101.206L177.369 75.0432L178.748 76.4224L152.585 102.585L153.964 103.964L180.127 77.8015L181.507 79.1807L155.344 105.344L156.723 106.723L182.886 80.5598L184.265 81.939L158.102 108.102L159.481 109.481L185.644 83.3181L187.023 84.6973L160.86 110.86L162.239 112.239L188.402 86.0764L189.092 86.766C190.173 87.8475 191.198 88.9771 192.163 90.1502L163.589 113.656C164.011 114.17 164.375 114.716 164.68 115.285L197.305 97.8321C198.78 100.59 199.959 103.457 200.845 106.386L165.429 117.097C165.619 117.726 165.746 118.37 165.81 119.02L202.634 115.414C202.933 118.464 202.933 121.536 202.634 124.586L165.81 120.98C165.746 121.63 165.619 122.274 165.429 122.904L200.845 133.614C199.959 136.543 198.78 139.41 197.305 142.168L164.68 124.715C164.375 125.284 164.011 125.83 163.589 126.344L192.163 149.85C191.198 151.023 190.173 152.153 189.092 153.234L188.402 153.924L162.239 127.761L160.86 129.14L187.023 155.303L185.644 156.682L159.481 130.519L158.102 131.898L184.265 158.061L182.886 159.44L156.723 133.277L155.344 134.656L181.507 160.819L180.127 162.199L153.964 136.036L152.585 137.415L178.748 163.578L177.369 164.957L151.206 138.794L149.827 140.173L175.99 166.336L174.611 167.715L148.448 141.552L147.069 142.931L173.232 169.094L171.853 170.473L145.69 144.31L144.31 145.69L170.473 171.853L169.094 173.232L142.931 147.069L141.552 148.448L167.715 174.611L166.336 175.99L140.173 149.827L138.794 151.206L164.957 177.369L163.578 178.748L137.415 152.585L136.036 153.964L162.198 180.127L160.819 181.507L134.656 155.344L133.277 156.723L159.44 182.886L158.061 184.265L131.898 158.102L130.519 159.481L156.682 185.644L155.303 187.023L129.14 160.86L127.761 162.239L153.924 188.402L153.234 189.092C152.153 190.173 151.023 191.198 149.85 192.163L126.344 163.589C125.83 164.011 125.284 164.375 124.715 164.68L142.168 197.305C139.41 198.78 136.543 199.959 133.614 200.845L122.904 165.429C122.274 165.619 121.63 165.746 120.98 165.81L124.586 202.634C121.536 202.933 118.464 202.933 115.414 202.634L119.02 165.81C118.37 165.746 117.726 165.619 117.096 165.429L106.386 200.845C103.457 199.959 100.59 198.78 97.8321 197.305L115.285 164.68C114.716 164.375 114.17 164.011 113.656 163.589L90.1501 192.163C88.977 191.198 87.8475 190.173 86.766 189.092L86.0764 188.402L112.239 162.239L110.86 160.86L84.6972 187.023L83.3181 185.644L109.481 159.481L108.102 158.102L81.9389 184.265L80.5598 182.886L106.723 156.723L105.344 155.344L79.1806 181.507L77.8015 180.127L103.964 153.964L102.585 152.585L76.4224 178.748L75.0432 177.369L101.206 151.206L99.827 149.827L73.6641 175.99L72.2849 174.611L98.4479 148.448L97.0687 147.069L70.9058 173.232L69.5266 171.853L95.6896 145.69L94.3104 144.31L68.1475 170.473L66.7683 169.094L92.9313 142.931L91.5521 141.552L65.3892 167.715L64.01 166.336L90.173 140.173L88.7938 138.794L62.6309 164.957L61.2517 163.578L87.4147 137.415L86.0355 136.036L59.8726 162.198L58.4934 160.819L84.6564 134.656L83.2772 133.277L57.1143 159.44L55.7351 158.061L81.8981 131.898L80.5189 130.519L54.356 156.682L52.9768 155.303L79.1398 129.14L77.7606 127.761L51.5977 153.924L50.9081 153.234C49.8266 152.153 48.8021 151.023 47.8371 149.85L76.4113 126.344C75.9886 125.83 75.625 125.284 75.3205 124.715L42.6954 142.168C41.2203 139.41 40.0406 136.543 39.1549 133.614L74.5709 122.904C74.3806 122.274 74.2536 121.63 74.19 120.98L37.3661 124.586C37.0675 121.536 37.0675 118.464 37.3661 115.414L74.19 119.02C74.2536 118.37 74.3806 117.726 74.5709 117.096L39.1549 106.386C40.0406 103.457 41.2203 100.59 42.6954 97.8321L75.3205 115.285C75.625 114.716 75.9886 114.17 76.4113 113.656L47.8371 90.1502C48.8021 88.9771 49.8266 87.8475 50.9081 86.766L51.5977 86.0764L77.7606 112.239L79.1398 110.86L52.9768 84.6973L54.356 83.3181L80.5189 109.481L81.8981 108.102L55.7351 81.939L57.1143 80.5598L83.2772 106.723L84.6564 105.344L58.4934 79.1807L59.8726 77.8015L86.0355 103.964L87.4147 102.585L61.2517 76.4224L62.6309 75.0432L88.7938 101.206L90.173 99.827L64.01 73.6641L65.3892 72.2849L91.5521 98.4479L92.9313 97.0687L66.7683 70.9058L68.1475 69.5266L94.3104 95.6896L95.6896 94.3104L69.5266 68.1475L70.9058 66.7683L97.0687 92.9313L98.4479 91.5521L72.2849 65.3892L73.6641 64.01L99.827 90.173L101.206 88.7938L75.0432 62.6309L76.4224 61.2517L102.585 87.4147L103.964 86.0355L77.8015 59.8726L79.1807 58.4934L105.344 84.6564L106.723 83.2772L80.5598 57.1143L81.939 55.7351L108.102 81.8981L109.481 80.5189L83.3181 54.356L84.6972 52.9768L110.86 79.1398L112.239 77.7607L86.0764 51.5977L86.766 50.9081C87.8475 49.8266 88.9771 48.8021 90.1501 47.8371L113.656 76.4113C114.17 75.9886 114.716 75.625 115.285 75.3205L97.8321 42.6954C100.59 41.2203 103.457 40.0406 106.386 39.1549L117.096 74.5709C117.726 74.3806 118.37 74.2536 119.02 74.19L115.414 37.3661C118.464 37.0675 121.536 37.0675 124.586 37.3661L120.98 74.19C121.63 74.2536 122.274 74.3806 122.904 74.5709L133.614 39.1549C136.543 40.0406 139.41 41.2203 142.168 42.6954L124.715 75.3205C125.284 75.625 125.83 75.9886 126.344 76.4113L149.85 47.8371C151.023 48.8021 152.153 49.8266 153.234 50.9081Z" stroke="white" stroke-width="74" stroke-dasharray="2 2"/>
</svg>
