<svg width="96" height="91" viewBox="0 0 96 91" fill="none" xmlns="http://www.w3.org/2000/svg">
<path d="M67.8137 14.3955L51.9627 2.87909L51.0273 4.16666L63.1363 20.8333L67.8137 14.3955ZM59.8619 24.6599L48 8.33333L36.1381 24.6599L36.5379 25.8904L48 41.6667L59.4621 25.8904L59.8619 24.6599ZM40.0745 47.4249L28.6124 31.6486L27.5657 30.8881L8.37265 37.1243L20.2346 53.4509L21.5284 53.4509L40.0745 47.4249ZM15.5835 55.3825L3.47444 38.7158L1.9608 39.2076L8.01532 57.8415L15.5835 55.3825ZM4.40991 31.6701L5.34538 32.9576L24.9382 26.5915L20.2608 20.1537L4.40991 31.6701ZM44.0373 2.87909L28.1863 14.3955L32.8637 20.8333L44.9727 4.16666L44.0373 2.87909ZM18.6107 64.6994L11.0426 67.1585L17.0971 85.7924L18.6107 85.3006L18.6107 64.6994ZM23.5089 88.8593L23.5089 90.4509L43.1018 90.4509L43.1018 82.4932L23.5089 88.8593ZM52.8982 82.4932L52.8982 90.4509L72.491 90.4509L72.491 88.8593L52.8982 82.4932ZM78.9029 85.7924L84.9574 67.1585L77.3893 64.6994L77.3893 85.3006L78.9029 85.7924ZM53.298 77.4729L72.491 83.7091L72.491 63.5283L71.4443 62.7678L52.8982 56.7418L52.8982 76.2423L53.298 77.4729ZM55.9255 47.4249L74.4716 53.4509L75.7654 53.4509L87.6273 37.1243L68.4343 30.8881L67.3876 31.6486L55.9255 47.4249ZM71.0618 26.5915L90.6546 32.9576L91.5901 31.6701L75.7391 20.1537L71.0618 26.5915ZM94.0392 39.2076L92.5256 38.7158L80.4165 55.3825L87.9847 57.8415L94.0392 39.2076ZM50.5072 53.4509L52.0567 48.6819L48 45.7345L43.9433 48.6819L45.4928 53.4509L50.5072 53.4509ZM43.1018 76.2423L43.1018 56.7418L24.5557 62.7678L23.5089 63.5283L23.5089 83.709L42.702 77.4729L43.1018 76.2423Z" stroke="white" stroke-width="74" stroke-dasharray="8 16"/>
</svg>
