<svg width="226" height="230" viewBox="0 0 226 230" fill="none" xmlns="http://www.w3.org/2000/svg">
<path d="M158.259 52.1484L158.259 52.1484C156.075 50.5612 153.822 49.0993 151.512 47.7643L133 79.8001C128.067 76.95 122.671 75.237 117.181 74.6613L121.04 37.8631C115.695 37.3026 110.305 37.3026 104.96 37.8631L108.819 74.6613C103.329 75.2371 97.9325 76.95 93.0004 79.8001L74.488 47.7643C72.1779 49.0992 69.9253 50.5611 67.7407 52.1483L158.259 52.1484ZM158.259 52.1484L158.348 52.2126L136.6 82.1462L136.953 82.4029L158.701 52.4693L158.789 52.5335C160.974 54.1207 163.061 55.8114 165.044 57.596L140.297 85.1019C144.532 88.9119 147.828 93.5147 150.072 98.5581L183.877 83.5167C186.062 88.427 187.727 93.5533 188.846 98.81L152.656 106.511C153.805 111.91 153.844 117.572 152.657 123.143L188.846 130.85C188.29 133.46 187.596 136.054 186.761 138.622L186.728 138.726L151.539 127.292L151.404 127.708L186.593 139.141L186.559 139.245L153.408 128.474L186.559 139.245C185.724 141.813 184.761 144.32 183.677 146.758L149.87 131.722C147.555 136.927 144.196 141.484 140.093 145.177L164.845 172.679C160.85 176.274 156.489 179.443 151.835 182.131L133.328 150.092C128.548 152.854 123.175 154.64 117.51 155.233L121.363 192.032C118.71 192.309 116.028 192.451 113.328 192.451L113.218 192.451L113.218 155.451L112.782 155.451L112.782 192.451L112.672 192.451C109.972 192.451 107.29 192.309 104.637 192.032L108.49 155.233C102.825 154.64 97.4521 152.854 92.6722 150.092L74.1647 182.131C69.511 179.443 65.1502 176.274 61.1555 172.679L85.9069 145.177C81.8038 141.484 78.4449 136.927 76.13 131.722L42.323 146.758C41.2387 144.32 40.2755 141.813 39.4411 139.245L39.4073 139.141L74.5964 127.708L74.4615 127.292L39.2724 138.726L39.2386 138.622C38.4042 136.054 37.7099 133.46 37.1542 130.85L73.3427 123.143C72.1562 117.572 72.1946 111.91 73.3436 106.511L37.1539 98.81C38.2725 93.5534 39.9382 88.427 42.123 83.5168L75.9277 98.5581C78.1717 93.5147 81.4684 88.9119 85.7031 85.1019L60.9559 57.596C62.9394 55.8114 65.0259 54.1207 67.2105 52.5335L67.2107 52.5334L67.299 52.4692L89.0469 82.4029L89.4002 82.1462L67.6524 52.2125L67.7405 52.1484L158.259 52.1484Z" stroke="white" stroke-width="74" stroke-dasharray="8 16"/>
</svg>
