<svg width="82" height="82" viewBox="0 0 82 82" fill="none" xmlns="http://www.w3.org/2000/svg">
<path d="M64.5997 8.14622L64.9531 8.40293L43.205 38.3365L43.2933 38.4007L43.2934 38.4007C43.3879 38.4694 43.4729 38.5387 43.5497 38.6078L68.2969 11.1019C72.5316 14.9119 75.8282 19.5147 78.0723 24.5581L44.2676 39.5995C44.355 39.7959 44.422 40.0021 44.4668 40.2124L80.6564 32.5112C81.8054 37.9104 81.8438 43.5719 80.6573 49.1433L44.4688 41.4366C44.4473 41.5377 44.4193 41.6437 44.3832 41.7548L79.5723 53.1885L44.3832 41.7549L44.3494 41.8587L79.5385 53.2923L79.4036 53.7077L44.2145 42.2741L44.1807 42.3779C44.1446 42.4891 44.105 42.5913 44.063 42.6857L77.87 57.7219C75.5551 62.9267 72.1962 67.4843 68.0931 71.177L43.3417 43.6749C43.1819 43.8187 43.0065 43.9462 42.8203 44.0537L61.3278 76.0923C56.5479 78.8535 51.1754 80.6396 45.51 81.2328L41.6567 44.434C41.5539 44.4448 41.4445 44.4509 41.3276 44.4509L41.2184 44.4509L41.2184 81.4509L40.7816 81.4509L40.7816 44.4509L40.6724 44.4509C40.5555 44.4509 40.4461 44.4448 40.3433 44.434L36.49 81.2328C30.8246 80.6396 25.4521 78.8535 20.6722 76.0923L39.1796 44.0537C38.9935 43.9462 38.8181 43.8187 38.6583 43.6749L13.9069 71.177C9.80376 67.4843 6.44491 62.9267 4.12999 57.7219L37.937 42.6857C37.895 42.5913 37.8554 42.4891 37.8193 42.3779L37.7855 42.2741L2.59643 53.7077L2.46147 53.2923L37.6506 41.8587L37.6168 41.7548C37.5807 41.6437 37.5527 41.5377 37.5311 41.4366L1.34265 49.1433C0.156154 43.5719 0.194606 37.9104 1.34356 32.5112L37.5332 40.2124C37.578 40.0021 37.645 39.7959 37.7324 39.5995L3.92768 24.5581C6.17174 19.5147 9.46835 14.9119 13.7031 11.1019L38.4503 38.6078C38.5271 38.5387 38.6119 38.4695 38.7064 38.4009L64.5997 8.14622ZM64.5997 8.14622L42.8517 38.0798L42.7633 38.0156C42.6688 37.9469 42.5767 37.8876 42.4872 37.8359L60.9996 5.80007C56.0675 2.94996 50.6712 1.23705 45.1812 0.661321L41.3222 37.4595C41.1084 37.4371 40.8916 37.4371 40.6778 37.4595L36.8188 0.661323C31.3288 1.23705 25.9325 2.94997 21.0004 5.80007L39.5128 37.8359C39.4233 37.8876 39.3312 37.947 39.2366 38.0157L39.2365 38.0158L39.1481 38.08L17.4002 8.14622L17.0469 8.40294L38.7948 38.3367L38.7066 38.4007L64.5997 8.14622Z" stroke="white" stroke-width="74" stroke-dasharray="8 16"/>
</svg>
