<svg width="238" height="227" viewBox="0 0 238 227" fill="none" xmlns="http://www.w3.org/2000/svg">
<path d="M147.521 36.9871L146.626 36.3369C145.028 35.1756 143.367 34.1227 141.655 33.1808L123.818 65.5972C120.821 63.9485 117.179 63.9485 114.182 65.5972L96.3449 33.1808C94.6332 34.1227 92.9724 35.1756 91.3741 36.3369L90.4792 36.9871L112.227 66.9207L105.068 72.1223L83.3197 42.1887L81.5299 43.4891L103.278 73.4227L96.1185 78.6244L74.3705 48.6907L72.5806 49.9911L94.3287 79.9248L87.1692 85.1264L65.4212 55.1928L63.6313 56.4932L85.3794 86.4268L78.2199 91.6284L56.4719 61.6948L55.577 62.345C53.9786 63.5063 52.464 64.7604 51.0393 66.0972L76.357 93.0789C73.8631 95.419 72.7375 98.8835 73.3796 102.243L37.0377 109.19C37.4045 111.109 37.8927 113.014 38.5032 114.893M147.521 36.9871L38.5032 114.893M147.521 36.9871L125.773 66.9207L132.932 72.1223L154.68 42.1887L156.47 43.4891L134.722 73.4227L141.881 78.6244L163.63 48.6907L165.419 49.9912L143.671 79.9248L150.831 85.1264L172.579 55.1928L174.369 56.4932L152.621 86.4268L159.78 91.6284L181.528 61.6948L182.423 62.345C184.021 63.5063 185.536 64.7604 186.961 66.0972L161.643 93.0789C164.137 95.419 165.263 98.8835 164.62 102.243L200.962 109.19C200.595 111.109 200.107 113.014 199.497 114.893L199.155 115.945L163.966 104.511L161.231 112.927L196.42 124.361L195.737 126.465L160.548 115.032L157.813 123.448L193.002 134.882L192.318 136.986L157.129 125.552L154.395 133.968L189.584 145.402L188.9 147.506L153.711 136.073L150.976 144.489L186.165 155.923L185.823 156.975L151.283 145.752L185.823 156.975C185.213 158.854 184.488 160.682 183.657 162.45L150.172 146.709C148.717 149.804 145.77 151.945 142.377 152.372L147 189.082C145.062 189.327 143.099 189.451 141.124 189.451L140.018 189.451L140.018 152.451L131.168 152.451L131.168 189.451L128.956 189.451L128.956 152.451L120.106 152.451L120.106 189.451L117.894 189.451L117.894 152.451L109.044 152.451L109.044 189.451L106.832 189.451L106.832 152.451L97.9823 152.451L97.9823 189.451L96.8761 189.451C94.9005 189.451 92.938 189.327 90.9996 189.082L95.6226 152.372C92.2296 151.945 89.2825 149.804 87.8276 146.709L54.3429 162.45C53.5117 160.682 52.787 158.854 52.1765 156.975L51.8347 155.923L87.0238 144.489L84.2891 136.073L49.1 147.506L48.4163 145.402L83.6054 133.968L80.8708 125.552L45.6817 136.986L44.998 134.882L80.1871 123.448L77.4525 115.032L42.2634 126.465L41.5797 124.361L76.7688 112.927L74.0341 104.511M147.521 36.9871L74.0341 104.511M38.5032 114.893L38.845 115.945L74.0341 104.511M38.5032 114.893L74.0341 104.511" stroke="white" stroke-width="74" stroke-dasharray="2 8"/>
</svg>
