<svg width="240" height="237" viewBox="0 0 240 237" fill="none" xmlns="http://www.w3.org/2000/svg">
<mask id="path-1-outside-1_1_99" maskUnits="userSpaceOnUse" x="-1.44248e-05" y="-1.48619e-05" width="240" height="237" fill="black">
<rect fill="white" x="-1.44248e-05" y="-1.48619e-05" width="240" height="237"/>
<path d="M125.878 76.2705C122.373 73.7241 117.627 73.7241 114.122 76.2705L78.325 102.279C74.8201 104.825 73.3536 109.339 74.6923 113.459L88.3656 155.541C89.7043 159.661 93.5439 162.451 97.8762 162.451L142.124 162.451C146.456 162.451 150.296 159.661 151.634 155.541L165.308 113.459C166.646 109.339 165.18 104.825 161.675 102.279L125.878 76.2705Z"/>
</mask>
<path d="M165.308 113.459L130.119 102.025L165.308 113.459ZM161.675 102.279L183.423 72.345L161.675 102.279ZM151.634 155.541L186.823 166.975L151.634 155.541ZM88.3656 155.541L53.1765 166.975L88.3656 155.541ZM78.325 102.279L56.577 72.345L78.325 102.279ZM74.6923 113.459L109.881 102.025L74.6923 113.459ZM114.122 76.2705L92.3741 46.3369L114.122 76.2705ZM125.878 76.2705L104.13 106.204L125.878 76.2705ZM130.119 102.025C129.828 102.919 129.585 103.826 129.39 104.741L201.767 120.154C201.428 121.748 201.005 123.329 200.497 124.893L130.119 102.025ZM128.798 110.374C128.798 112.277 128.999 114.159 129.389 115.991L201.768 100.588C202.448 103.781 202.797 107.056 202.798 110.364L128.798 110.374ZM131.128 121.343C131.889 123.054 132.833 124.695 133.951 126.235L193.824 82.7466C195.768 85.4225 197.411 88.2784 198.737 91.26L131.128 121.343ZM137.742 130.443C138.437 131.069 139.167 131.66 139.927 132.212L183.423 72.345C184.753 73.3113 186.025 74.342 187.236 75.4314L137.742 130.443ZM139.927 132.212L139.113 131.621L182.609 71.7539L183.423 72.345L139.927 132.212ZM137.486 130.439L135.859 129.257L179.355 69.3896L180.982 70.5717L137.486 130.439ZM134.232 128.075L132.605 126.892L176.101 67.0252L177.728 68.2074L134.232 128.075ZM130.978 125.71L129.35 124.528L172.847 64.6608L174.474 65.843L130.978 125.71ZM127.723 123.346L126.096 122.164L169.592 62.2964L171.219 63.4786L127.723 123.346ZM124.469 120.981L122.842 119.799L166.338 59.932L167.965 61.1142L124.469 120.981ZM121.215 118.617L119.588 117.435L163.084 57.5677L164.711 58.7499L121.215 118.617ZM117.96 116.253L116.333 115.071L159.829 55.2033L161.457 56.3855L117.96 116.253ZM114.706 113.888L113.079 112.706L156.575 52.8389L158.202 54.0211L114.706 113.888ZM111.452 111.524L109.825 110.342L153.321 50.4745L154.948 51.6567L111.452 111.524ZM108.198 109.16L106.571 107.977L150.067 48.1102L151.694 49.2924L108.198 109.16ZM104.943 106.795L104.13 106.204L147.626 46.3369L148.439 46.928L104.943 106.795ZM104.13 106.204C104.89 106.756 105.677 107.267 106.488 107.736L143.512 43.6642C144.923 44.4792 146.296 45.3706 147.626 46.3369L104.13 106.204ZM111.662 110.04C113.471 110.628 115.324 111.018 117.186 111.214L124.904 37.6171C128.15 37.9575 131.374 38.6372 134.519 39.6588L111.662 110.04ZM122.814 111.214C124.676 111.018 126.529 110.628 128.338 110.04L105.481 39.6588C108.626 38.6372 111.85 37.9575 115.096 37.6171L122.814 111.214ZM133.512 107.736C134.323 107.267 135.11 106.756 135.87 106.204L92.3741 46.3369C93.704 45.3706 95.0774 44.4792 96.4877 43.6642L133.512 107.736ZM135.87 106.204L135.057 106.795L91.5605 46.928L92.3741 46.3369L135.87 106.204ZM133.429 107.977L131.802 109.16L88.3062 49.2923L89.9334 48.1102L133.429 107.977ZM130.175 110.342L128.548 111.524L85.052 51.6567L86.6791 50.4745L130.175 110.342ZM126.921 112.706L125.294 113.888L81.7977 54.0211L83.4248 52.8389L126.921 112.706ZM123.667 115.071L122.039 116.253L78.5434 56.3855L80.1705 55.2033L123.667 115.071ZM120.412 117.435L118.785 118.617L75.2891 58.7499L76.9162 57.5677L120.412 117.435ZM117.158 119.799L115.531 120.981L72.0348 61.1142L73.662 59.932L117.158 119.799ZM113.904 122.164L112.277 123.346L68.7805 63.4786L70.4077 62.2964L113.904 122.164ZM110.649 124.528L109.022 125.71L65.5262 65.843L67.1534 64.6608L110.649 124.528ZM107.395 126.892L105.768 128.075L62.272 68.2074L63.8991 67.0252L107.395 126.892ZM104.141 129.257L102.514 130.439L59.0177 70.5717L60.6448 69.3895L104.141 129.257ZM100.887 131.621L100.073 132.212L56.577 72.345L57.3905 71.7539L100.887 131.621ZM100.073 132.212C100.833 131.66 101.563 131.069 102.258 130.443L52.7639 75.4314C53.9748 74.342 55.2471 73.3112 56.577 72.345L100.073 132.212ZM106.049 126.235C107.167 124.695 108.111 123.054 108.872 121.343L41.2626 91.26C42.5893 88.2784 44.2319 85.4225 46.1755 82.7467L106.049 126.235ZM110.611 115.991C111.001 114.159 111.202 112.277 111.202 110.374L37.2022 110.364C37.2026 107.056 37.5523 103.781 38.2316 100.588L110.611 115.991ZM110.61 104.741C110.415 103.826 110.172 102.919 109.881 102.025L39.5032 124.893C38.9952 123.329 38.5718 121.748 38.2326 120.154L110.61 104.741ZM109.881 102.025L110.192 102.982L39.814 125.849L39.5032 124.893L109.881 102.025ZM110.814 104.895L111.435 106.807L41.057 129.675L40.4355 127.762L110.814 104.895ZM112.057 108.72L112.678 110.633L42.3 133.5L41.6785 131.587L112.057 108.72ZM113.3 112.546L113.921 114.459L43.543 137.326L42.9215 135.413L113.3 112.546ZM114.543 116.372L115.164 118.284L44.7861 141.152L44.1646 139.239L114.543 116.372ZM115.786 120.197L116.407 122.11L46.0291 144.977L45.4076 143.064L115.786 120.197ZM117.029 124.023L117.65 125.936L47.2721 148.803L46.6506 146.89L117.029 124.023ZM118.272 127.848L118.893 129.761L48.5152 152.628L47.8936 150.716L118.272 127.848ZM119.515 131.674L120.136 133.587L49.7582 156.454L49.1367 154.541L119.515 131.674ZM120.758 135.5L121.379 137.413L51.0012 160.28L50.3797 158.367L120.758 135.5ZM122.001 139.325L122.622 141.238L52.2442 164.105L51.6227 162.193L122.001 139.325ZM123.244 143.151L123.555 144.107L53.1765 166.975L52.8657 166.018L123.244 143.151ZM123.555 144.107C123.264 143.214 122.928 142.338 122.548 141.482L54.9335 171.555C54.2716 170.067 53.6845 168.538 53.1765 166.975L123.555 144.107ZM119.716 136.577C118.597 135.038 117.328 133.633 115.936 132.38L66.4334 187.385C64.0076 185.201 61.7991 182.757 59.8548 180.081L119.716 136.577ZM111.384 129.073C109.762 128.136 108.034 127.363 106.224 126.775L83.3473 197.15C80.202 196.127 77.1945 194.782 74.3686 193.15L111.384 129.073ZM100.684 125.598C99.753 125.5 98.8157 125.451 97.8762 125.451L97.8761 199.451C96.2323 199.451 94.5972 199.365 92.9772 199.195L100.684 125.598ZM97.8762 125.451L98.8818 125.451L98.8818 199.451L97.8761 199.451L97.8762 125.451ZM100.893 125.451L102.904 125.451L102.904 199.451L100.893 199.451L100.893 125.451ZM104.916 125.451L106.927 125.451L106.927 199.451L104.916 199.451L104.916 125.451ZM108.938 125.451L110.949 125.451L110.949 199.451L108.938 199.451L108.938 125.451ZM112.961 125.451L114.972 125.451L114.972 199.451L112.961 199.451L112.961 125.451ZM116.983 125.451L118.994 125.451L118.994 199.451L116.983 199.451L116.983 125.451ZM121.006 125.451L123.017 125.451L123.017 199.451L121.006 199.451L121.006 125.451ZM125.028 125.451L127.039 125.451L127.039 199.451L125.028 199.451L125.028 125.451ZM129.051 125.451L131.062 125.451L131.062 199.451L129.051 199.451L129.051 125.451ZM133.073 125.451L135.084 125.451L135.084 199.451L133.073 199.451L133.073 125.451ZM137.096 125.451L139.107 125.451L139.107 199.451L137.096 199.451L137.096 125.451ZM141.118 125.451L142.124 125.451L142.124 199.451L141.118 199.451L141.118 125.451ZM142.124 125.451C141.184 125.451 140.247 125.5 139.316 125.598L147.023 199.195C145.403 199.365 143.768 199.451 142.124 199.451L142.124 125.451ZM133.776 126.775C131.966 127.363 130.238 128.136 128.616 129.073L165.631 193.15C162.805 194.782 159.798 196.127 156.653 197.15L133.776 126.775ZM124.064 132.38C122.672 133.633 121.403 135.038 120.284 136.577L180.145 180.081C178.201 182.757 175.992 185.201 173.567 187.385L124.064 132.38ZM117.452 141.482C117.072 142.338 116.736 143.214 116.445 144.107L186.823 166.975C186.316 168.538 185.728 170.067 185.066 171.555L117.452 141.482ZM116.445 144.107L116.756 143.151L187.134 166.018L186.823 166.975L116.445 144.107ZM117.378 141.238L117.999 139.325L188.377 162.193L187.756 164.105L117.378 141.238ZM118.621 137.413L119.242 135.5L189.62 158.367L188.999 160.28L118.621 137.413ZM119.864 133.587L120.485 131.674L190.863 154.541L190.242 156.454L119.864 133.587ZM121.107 129.761L121.728 127.848L192.106 150.716L191.485 152.629L121.107 129.761ZM122.35 125.936L122.971 124.023L193.349 146.89L192.728 148.803L122.35 125.936ZM123.593 122.11L124.214 120.197L194.592 143.064L193.971 144.977L123.593 122.11ZM124.836 118.284L125.457 116.372L195.835 139.239L195.214 141.152L124.836 118.284ZM126.079 114.459L126.7 112.546L197.078 135.413L196.457 137.326L126.079 114.459ZM127.322 110.633L127.943 108.72L198.321 131.587L197.7 133.5L127.322 110.633ZM128.565 106.807L129.186 104.895L199.565 127.762L198.943 129.675L128.565 106.807ZM129.808 102.982L130.119 102.025L200.497 124.893L200.186 125.849L129.808 102.982ZM165.308 113.459L94.9295 90.5917L165.308 113.459ZM161.675 102.279L205.171 42.4114L161.675 102.279ZM151.634 155.541L222.013 178.408L151.634 155.541ZM88.3656 155.541L17.9874 178.408L88.3656 155.541ZM78.325 102.279L34.8289 42.4114L78.325 102.279ZM74.6923 113.459L145.07 90.5917L74.6923 113.459ZM114.122 76.2705L70.626 16.4032L114.122 76.2705ZM125.878 76.2705L82.3817 136.138L125.878 76.2705ZM94.9295 90.5917C94.24 92.7138 93.664 94.8645 93.202 97.0343L237.956 127.861C237.35 130.709 236.593 133.534 235.686 136.326L94.9295 90.5917ZM91.7978 110.379C91.7984 114.887 92.2751 119.348 93.1994 123.692L237.958 92.8873C239.172 98.5912 239.797 104.446 239.798 110.359L91.7978 110.379ZM97.3233 136.384C99.1286 140.442 101.365 144.331 104.015 147.978L223.761 61.0027C227.236 65.7864 230.171 70.8906 232.542 76.2187L97.3233 136.384ZM112.994 157.949C114.644 159.433 116.374 160.834 118.179 162.146L205.171 42.4114C207.546 44.1369 209.819 45.9783 211.983 47.9255L112.994 157.949ZM118.179 162.146L117.365 161.555L204.358 41.8203L205.171 42.4114L118.179 162.146ZM115.738 160.373L114.111 159.19L201.103 39.4559L202.73 40.6381L115.738 160.373ZM112.484 158.008L110.857 156.826L197.849 37.0915L199.476 38.2737L112.484 158.008ZM109.23 155.644L107.602 154.462L194.595 34.7272L196.222 35.9094L109.23 155.644ZM105.975 153.279L104.348 152.097L191.34 32.3628L192.968 33.545L105.975 153.279ZM102.721 150.915L101.094 149.733L188.086 29.9984L189.713 31.1806L102.721 150.915ZM99.4667 148.551L97.8396 147.369L184.832 27.634L186.459 28.8162L99.4667 148.551ZM96.2124 146.186L94.5853 145.004L181.578 25.2697L183.205 26.4519L96.2124 146.186ZM92.9582 143.822L91.331 142.64L178.323 22.9053L179.95 24.0875L92.9582 143.822ZM89.7039 141.458L88.0767 140.275L175.069 20.5409L176.696 21.7231L89.7039 141.458ZM86.4496 139.093L84.8225 137.911L171.815 18.1765L173.442 19.3587L86.4496 139.093ZM83.1953 136.729L82.3817 136.138L169.374 16.4033L170.188 16.9944L83.1953 136.729ZM82.3817 136.138C84.1869 137.449 86.0544 138.662 87.9751 139.772L162.025 11.6284C164.545 13.0851 166.999 14.6778 169.374 16.4033L82.3817 136.138ZM100.233 145.231C104.52 146.623 108.911 147.549 113.327 148.012L128.763 0.818897C134.563 1.42712 140.325 2.64188 145.948 4.46812L100.233 145.231ZM126.673 148.012C131.089 147.549 135.48 146.623 139.767 145.231L94.0521 4.46813C99.6753 2.64189 105.437 1.42713 111.237 0.818904L126.673 148.012ZM152.025 139.772C153.946 138.662 155.813 137.449 157.618 136.138L70.626 16.4032C73.001 14.6778 75.4546 13.0851 77.9753 11.6284L152.025 139.772ZM157.618 136.138L156.805 136.729L69.8125 16.9943L70.626 16.4032L157.618 136.138ZM155.178 137.911L153.55 139.093L66.5582 19.3587L68.1853 18.1765L155.178 137.911ZM151.923 140.275L150.296 141.458L63.3039 21.7231L64.931 20.5409L151.923 140.275ZM148.669 142.64L147.042 143.822L60.0496 24.0875L61.6768 22.9053L148.669 142.64ZM145.415 145.004L143.788 146.186L56.7953 26.4518L58.4225 25.2697L145.415 145.004ZM142.16 147.369L140.533 148.551L53.541 28.8162L55.1682 27.634L142.16 147.369ZM138.906 149.733L137.279 150.915L50.2868 31.1806L51.9139 29.9984L138.906 149.733ZM135.652 152.097L134.025 153.279L47.0325 33.545L48.6596 32.3628L135.652 152.097ZM132.398 154.462L130.77 155.644L43.7782 35.9094L45.4053 34.7272L132.398 154.462ZM129.143 156.826L127.516 158.008L40.5239 38.2737L42.151 37.0915L129.143 156.826ZM125.889 159.19L124.262 160.373L37.2696 40.6381L38.8968 39.4559L125.889 159.19ZM122.635 161.555L121.821 162.146L34.8289 42.4114L35.6425 41.8203L122.635 161.555ZM121.821 162.146C123.626 160.834 125.356 159.433 127.006 157.949L28.0167 47.9255C30.181 45.9783 32.454 44.1369 34.8289 42.4114L121.821 162.146ZM135.985 147.978C138.635 144.331 140.871 140.441 142.677 136.384L7.4579 76.2187C9.8286 70.8907 12.7644 65.7864 16.2389 61.0027L135.985 147.978ZM146.801 123.692C147.725 119.348 148.202 114.887 148.202 110.379L0.202191 110.359C0.203 104.446 0.828138 98.5912 2.04194 92.8873L146.801 123.692ZM146.798 97.0343C146.336 94.8645 145.76 92.7138 145.07 90.5917L4.31413 136.326C3.40698 133.534 2.65046 130.709 2.04408 127.861L146.798 97.0343ZM145.07 90.5917L145.381 91.5481L4.62487 137.283L4.31413 136.326L145.07 90.5917ZM146.003 93.461L146.624 95.3738L5.8679 141.108L5.24639 139.195L146.003 93.461ZM147.246 97.2866L147.867 99.1994L7.11093 144.934L6.48942 143.021L147.246 97.2866ZM148.489 101.112L149.11 103.025L8.35395 148.76L7.73245 146.847L148.489 101.112ZM149.732 104.938L150.353 106.851L9.59698 152.585L8.97547 150.672L149.732 104.938ZM150.975 108.764L151.596 110.676L10.84 156.411L10.2185 154.498L150.975 108.764ZM152.218 112.589L152.839 114.502L12.083 160.236L11.4615 158.324L152.218 112.589ZM153.461 116.415L154.082 118.328L13.3261 164.062L12.7045 162.149L153.461 116.415ZM154.704 120.24L155.325 122.153L14.5691 167.888L13.9476 165.975L154.704 120.24ZM155.947 124.066L156.568 125.979L15.8121 171.713L15.1906 169.801L155.947 124.066ZM157.19 127.892L157.812 129.805L17.0551 175.539L16.4336 173.626L157.19 127.892ZM158.433 131.717L158.744 132.674L17.9874 178.408L17.6766 177.452L158.433 131.717ZM158.744 132.674C158.054 130.552 157.256 128.473 156.355 126.446L21.1265 186.591C19.9434 183.931 18.8945 181.2 17.9874 178.408L158.744 132.674ZM149.647 114.825C146.996 111.178 143.988 107.849 140.688 104.878L41.6819 214.887C37.3473 210.986 33.4 206.616 29.9242 201.833L149.647 114.825ZM129.891 97.034C126.046 94.8126 121.95 92.9807 117.663 91.587L71.9088 232.337C66.2861 230.509 60.9108 228.105 55.8611 225.188L129.891 97.034ZM104.537 88.7987C102.331 88.5677 100.107 88.4509 97.8762 88.4509L97.8761 236.451C94.9406 236.451 92.0193 236.297 89.1239 235.994L104.537 88.7987ZM97.8762 88.4509L98.8818 88.4509L98.8818 236.451L97.8761 236.451L97.8762 88.4509ZM100.893 88.4509L102.904 88.4509L102.904 236.451L100.893 236.451L100.893 88.4509ZM104.916 88.4509L106.927 88.4509L106.927 236.451L104.916 236.451L104.916 88.4509ZM108.938 88.4509L110.949 88.4509L110.949 236.451L108.938 236.451L108.938 88.4509ZM112.961 88.4509L114.972 88.4509L114.972 236.451L112.961 236.451L112.961 88.4509ZM116.983 88.4509L118.994 88.4509L118.994 236.451L116.983 236.451L116.983 88.4509ZM121.006 88.4509L123.017 88.4509L123.017 236.451L121.006 236.451L121.006 88.4509ZM125.028 88.4509L127.039 88.4509L127.039 236.451L125.028 236.451L125.028 88.4509ZM129.051 88.4509L131.062 88.4509L131.062 236.451L129.051 236.451L129.051 88.4509ZM133.073 88.4509L135.084 88.4509L135.084 236.451L133.073 236.451L133.073 88.4509ZM137.096 88.4509L139.107 88.4509L139.107 236.451L137.096 236.451L137.096 88.4509ZM141.118 88.4509L142.124 88.4509L142.124 236.451L141.118 236.451L141.118 88.4509ZM142.124 88.4509C139.893 88.4509 137.669 88.5677 135.463 88.7987L150.876 235.994C147.981 236.297 145.059 236.451 142.124 236.451L142.124 88.4509ZM122.337 91.587C118.05 92.9807 113.954 94.8127 110.109 97.034L184.139 225.188C179.089 228.105 173.714 230.509 168.091 232.337L122.337 91.587ZM99.3124 104.878C96.0115 107.849 93.0035 111.178 90.3533 114.825L210.076 201.833C206.6 206.616 202.653 210.986 198.318 214.887L99.3124 104.878ZM83.6454 126.446C82.7439 128.473 81.9457 130.552 81.2562 132.674L222.013 178.408C221.105 181.2 220.057 183.931 218.873 186.591L83.6454 126.446ZM81.2562 132.674L81.567 131.717L222.323 177.452L222.013 178.408L81.2562 132.674ZM82.1885 129.805L82.81 127.892L223.566 173.626L222.945 175.539L82.1885 129.805ZM83.4315 125.979L84.053 124.066L224.809 169.801L224.188 171.713L83.4315 125.979ZM84.6745 122.153L85.296 120.24L226.052 165.975L225.431 167.888L84.6745 122.153ZM85.9176 118.328L86.5391 116.415L227.295 162.149L226.674 164.062L85.9176 118.328ZM87.1606 114.502L87.7821 112.589L228.538 158.324L227.917 160.236L87.1606 114.502ZM88.4036 110.676L89.0251 108.764L229.781 154.498L229.16 156.411L88.4036 110.676ZM89.6466 106.851L90.2682 104.938L231.025 150.672L230.403 152.585L89.6466 106.851ZM90.8897 103.025L91.5112 101.112L232.268 146.847L231.646 148.76L90.8897 103.025ZM92.1327 99.1994L92.7542 97.2866L233.511 143.021L232.889 144.934L92.1327 99.1994ZM93.3757 95.3738L93.9972 93.461L234.754 139.195L234.132 141.108L93.3757 95.3738ZM94.6187 91.5481L94.9295 90.5917L235.686 136.326L235.375 137.283L94.6187 91.5481Z" fill="white" mask="url(#path-1-outside-1_1_99)"/>
</svg>
