<svg width="96" height="91" viewBox="0 0 96 91" fill="none" xmlns="http://www.w3.org/2000/svg">
<path d="M50.3776 1.72745L48.7925 0.575814L48.6055 0.833327L49.8164 2.5L50.3776 1.72745ZM49.2109 3.33332L48 1.66665L46.7891 3.33332L48 4.99999L49.2109 3.33332ZM46.7891 6.66665L45.5782 4.99999L44.3673 6.66665L45.5782 8.33332L46.7891 6.66665ZM44.3673 9.99999L43.1564 8.33332L41.9455 9.99999L43.1564 11.6667L44.3673 9.99999ZM41.9455 13.3333L40.7346 11.6667L39.5237 13.3333L40.7346 15L41.9455 13.3333ZM39.5237 16.6667L38.3128 15L37.1019 16.6667L38.3128 18.3333L39.5237 16.6667ZM37.1019 20L35.891 18.3333L34.68 20L35.891 21.6667L37.1019 20ZM34.68 23.3333L33.4691 21.6667L32.2582 23.3333L32.7754 24.0451L34.5917 23.4549L34.68 23.3333ZM33.6121 24.8033L33.3808 24.8784L33.4691 25L33.6121 24.8033ZM35.891 25L34.823 26.4699L36.5444 25.9106L36.8864 26.9632L37.1019 26.6667L35.891 25ZM35.891 28.3333L36.0339 28.1366L35.8026 28.2117L35.891 28.3333ZM34.68 30L33.8433 28.8484L32.8637 29.1667L32.2582 30L33.095 31.1516L34.0746 30.8333L34.68 30ZM31.1357 31.7882L31.0473 31.6667L30.9044 31.8634L31.1357 31.7882ZM29.1764 32.4249L29.5249 32.3116L28.6296 31.6611L29.6935 30.1967L27.9655 30.7582L29.1764 32.4249ZM28.4826 28.5301L28.7139 28.4549L28.6255 28.3333L28.4826 28.5301ZM26.8975 29.0451L28.0201 27.5L27.503 26.7882L25.5437 27.4249L26.7546 29.0915L26.8975 29.0451ZM24.9382 26.5915L26.8975 25.9549L21.8459 19.002L20.2608 20.1537L24.9382 26.5915ZM25.0161 16.6988L23.431 17.8504L28.8568 25.3183L29.8364 25L30.4419 24.1667L25.0161 16.6988ZM28.1863 14.3955L26.6012 15.5471L31.6528 22.5L32.8637 20.8333L28.1863 14.3955ZM31.3565 12.0922L29.7714 13.2438L34.0746 19.1667L35.2855 17.5L31.3565 12.0922ZM34.5267 9.78892L32.9416 10.9406L36.4964 15.8333L37.7073 14.1667L34.5267 9.78892ZM37.6969 7.48564L36.1118 8.63728L38.9182 12.5L40.1291 10.8333L37.6969 7.48564ZM40.8671 5.18236L39.282 6.334L41.34 9.16666L42.5509 7.49999L40.8671 5.18236ZM44.0373 2.87909L42.4522 4.03072L43.7618 5.83332L44.9727 4.16666L44.0373 2.87909ZM47.2075 0.575808L45.6224 1.72745L46.1837 2.49999L47.3946 0.83332L47.2075 0.575808ZM22.9789 27.2281L18.6758 21.3053L17.0907 22.4569L21.0197 27.8647L22.9789 27.2281ZM19.0604 28.5014L15.5056 23.6086L13.9205 24.7602L17.1011 29.138L19.0604 28.5014ZM15.1418 29.7746L12.3354 25.9119L10.7503 27.0635L13.1825 30.4112L15.1418 29.7746ZM11.2232 31.0478L9.16519 28.2151L7.58009 29.3668L9.26395 31.6844L11.2232 31.0478ZM7.30467 32.321L5.995 30.5184L4.40991 31.6701L5.34538 32.9576L7.30467 32.321ZM3.3861 33.5942L2.82481 32.8217L1.23972 33.9733L1.42682 34.2308L3.3861 33.5942ZM0.74989 35.4808L1.35534 37.3442L2.26352 37.0491L1.05262 35.3825L0.74989 35.4808ZM3.99154 34.4276L2.03225 35.0642L3.24316 36.7308L5.20245 36.0942L3.99154 34.4276ZM6.41335 37.7609L4.45407 38.3975L5.66497 40.0642L7.62426 39.4276L6.41335 37.7609ZM8.83516 41.0942L6.87588 41.7308L8.08678 43.3975L10.0461 42.7609L8.83516 41.0942ZM11.257 44.4276L9.29769 45.0642L10.5086 46.7308L12.4679 46.0942L11.257 44.4276ZM13.6788 47.7609L11.7195 48.3975L12.9304 50.0642L14.8897 49.4276L13.6788 47.7609ZM16.1006 51.0942L14.1413 51.7308L15.3522 53.3975L17.3115 52.7609L16.1006 51.0942ZM18.5224 54.4276L16.5631 55.0642L17.774 56.7309L18.6107 56.459L18.6107 54.5491L18.5224 54.4276ZM19.5904 55.8975L19.5904 56.1407L19.7333 56.0942L19.5904 55.8975ZM20.4817 53.791L21.5496 55.2609L21.5496 53.4509L22.6564 53.4509L22.441 53.1544L20.4817 53.791ZM23.6519 54.821L23.5089 54.6243L23.5089 54.8675L23.6519 54.821ZM24.8628 56.4877L23.5089 56.9276L23.5089 57.9576L24.1144 58.791L25.4682 58.3511L25.4682 57.321L24.8628 56.4877ZM25.4682 60.4112L25.3253 60.4576L25.4682 60.6543L25.4682 60.4112ZM25.4682 62.4713L25.4682 62.1048L24.5729 62.7553L23.5089 61.2909L23.5089 63.1079L25.4682 62.4713ZM21.5496 61.9275L21.5496 61.6844L21.4067 61.7309L21.5496 61.9275ZM21.5496 63.5942L20.4271 62.0492L19.5904 62.321L19.5904 64.3811L21.5496 63.7445L21.5496 63.5942ZM18.6107 64.6994L18.6107 62.6393L10.4371 65.2951L11.0426 67.1585L18.6107 64.6994ZM9.22622 61.5683L9.83167 63.4317L18.6107 60.5792L18.6107 59.5491L18.0053 58.7158L9.22622 61.5683ZM8.01532 57.8415L8.62077 59.7049L16.7944 57.0492L15.5835 55.3825L8.01532 57.8415ZM6.80442 54.1147L7.40987 55.9781L14.3726 53.7158L13.1617 52.0492L6.80442 54.1147ZM5.59351 50.388L6.19896 52.2514L11.9508 50.3825L10.7399 48.7158L5.59351 50.388ZM4.38261 46.6612L4.98806 48.5246L9.52895 47.0491L8.31805 45.3825L4.38261 46.6612ZM3.1717 42.9344L3.77716 44.7978L7.10714 43.7158L5.89624 42.0491L3.1717 42.9344ZM1.9608 39.2076L2.56625 41.071L4.68533 40.3825L3.47443 38.7158L1.9608 39.2076ZM18.6107 66.7596L11.648 69.0219L12.2535 70.8853L18.6107 68.8197L18.6107 66.7596ZM18.6107 70.8798L12.8589 72.7486L13.4644 74.612L18.6107 72.9399L18.6107 70.8798ZM18.6107 75L14.0698 76.4754L14.6753 78.3388L18.6107 77.0601L18.6107 75ZM18.6107 79.1202L15.2807 80.2022L15.8862 82.0656L18.6107 81.1804L18.6107 79.1202ZM18.6107 83.2405L16.4916 83.929L17.0971 85.7924L18.6107 85.3006L18.6107 83.2405ZM18.6107 87.3607L17.7025 87.6558L18.308 89.5192L18.6107 89.4208L18.6107 87.3607ZM19.5904 90.1326L19.5904 90.4509L21.5496 90.4509L21.5496 89.4959L19.5904 90.1326ZM23.5089 88.8593L23.5089 90.4509L25.4682 90.4509L25.4682 88.2227L23.5089 88.8593ZM27.4275 87.5861L27.4275 90.4509L29.3868 90.4509L29.3868 86.9495L27.4275 87.5861ZM31.3461 86.3129L31.3461 90.4509L33.3054 90.4509L33.3054 85.6763L31.3461 86.3129ZM35.2646 85.0397L35.2646 90.4509L37.2239 90.4509L37.2239 84.4031L35.2646 85.0397ZM39.1832 83.7665L39.1832 90.4509L41.1425 90.4509L41.1425 83.1298L39.1832 83.7665ZM43.1018 82.4932L43.1018 90.4509L45.0611 90.4509L45.0611 81.8566L43.1018 82.4932ZM47.0204 81.22L47.0204 90.4509L48.9796 90.4509L48.9796 81.22L48 80.9017L47.0204 81.22ZM50.9389 81.8566L50.9389 90.4509L52.8982 90.4509L52.8982 82.4932L50.9389 81.8566ZM54.8575 83.1298L54.8575 90.4509L56.8168 90.4509L56.8168 83.7665L54.8575 83.1298ZM58.7761 84.4031L58.7761 90.4509L60.7353 90.4509L60.7353 85.0397L58.7761 84.4031ZM62.6946 85.6763L62.6946 90.4509L64.6539 90.4509L64.6539 86.3129L62.6946 85.6763ZM66.6132 86.9495L66.6132 90.4509L68.5725 90.4509L68.5725 87.5861L66.6132 86.9495ZM70.5318 88.2227L70.5318 90.4509L72.491 90.4509L72.491 88.8593L70.5318 88.2227ZM74.4503 89.4959L74.4503 90.4509L76.4096 90.4509L76.4096 90.1326L74.4503 89.4959ZM77.692 89.5192L78.2974 87.6558L77.3893 87.3607L77.3893 89.4208L77.692 89.5192ZM74.4503 88.4659L76.4096 89.1025L76.4096 87.0424L74.4503 86.4058L74.4503 88.4659ZM74.4503 84.3457L76.4096 84.9823L76.4096 82.9222L74.4503 82.2856L74.4503 84.3457ZM74.4503 80.2254L76.4096 80.8621L76.4096 78.8019L74.4503 78.1653L74.4503 80.2254ZM74.4503 76.1052L76.4096 76.7418L76.4096 74.6817L74.4503 74.0451L74.4503 76.1052ZM74.4503 71.985L76.4096 72.6216L76.4096 70.5615L74.4503 69.9249L74.4503 71.985ZM74.4503 67.8648L76.4096 68.5014L76.4096 66.4413L74.4503 65.8046L74.4503 67.8648ZM74.4503 63.7445L76.4096 64.3811L76.4096 62.321L75.5729 62.0492L74.4503 63.5942L74.4503 63.7445ZM74.4503 61.9276L74.5933 61.7309L74.4503 61.6844L74.4503 61.9276ZM74.4503 59.6243L75.8042 60.0642L76.4096 59.2309L76.4096 58.2008L75.0558 57.7609L74.4503 58.5943L74.4503 59.6243ZM72.491 63.1079L72.491 61.291L71.4271 62.7553L70.5318 62.1048L70.5318 62.4713L72.491 63.1079ZM70.5318 60.4112L70.5318 60.6544L70.6747 60.4576L70.5318 60.4112ZM70.5318 58.3511L71.8856 58.791L72.491 57.9576L72.491 56.9276L71.1372 56.4877L70.5318 57.321L70.5318 58.3511ZM72.3481 54.821L72.491 54.8675L72.491 54.6243L72.3481 54.821ZM73.559 53.1544L73.3436 53.4509L74.4503 53.4509L74.4503 55.2609L75.5183 53.791L73.559 53.1544ZM76.4096 55.8975L76.2667 56.0942L76.4096 56.1407L76.4096 55.8975ZM77.3893 54.5492L77.3893 56.459L78.226 56.7309L79.4369 55.0642L77.4776 54.4276L77.3893 54.5492ZM80.4165 55.3825L79.2056 57.0492L87.3792 59.7049L87.9847 57.8415L80.4165 55.3825ZM86.1683 63.4317L86.7738 61.5683L77.9947 58.7158L77.3893 59.5491L77.3893 60.5792L86.1683 63.4317ZM84.9574 67.1585L85.5629 65.2951L77.3893 62.6393L77.3893 64.6994L84.9574 67.1585ZM83.7465 70.8853L84.352 69.0219L77.3893 66.7596L77.3893 68.8197L83.7465 70.8853ZM82.5356 74.6121L83.1411 72.7487L77.3893 70.8798L77.3893 72.9399L82.5356 74.6121ZM81.3247 78.3388L81.9301 76.4754L77.3893 75L77.3893 77.0601L81.3247 78.3388ZM80.1138 82.0656L80.7192 80.2022L77.3893 79.1202L77.3893 81.1804L80.1138 82.0656ZM78.9029 85.7924L79.5083 83.929L77.3893 83.2405L77.3893 85.3006L78.9029 85.7924ZM81.6274 53.7158L88.5901 55.9781L89.1956 54.1148L82.8383 52.0492L81.6274 53.7158ZM84.0492 50.3825L89.801 52.2514L90.4065 50.388L85.2601 48.7158L84.0492 50.3825ZM86.471 47.0492L91.0119 48.5246L91.6174 46.6612L87.6819 45.3825L86.471 47.0492ZM88.8928 43.7158L92.2228 44.7978L92.8283 42.9344L90.1038 42.0492L88.8928 43.7158ZM91.3147 40.3825L93.4337 41.071L94.0392 39.2076L92.5256 38.7158L91.3147 40.3825ZM93.7365 37.0492L94.6446 37.3442L95.2501 35.4808L94.9474 35.3825L93.7365 37.0492ZM94.7603 33.9733L93.1752 32.8217L92.6139 33.5942L94.5732 34.2309L94.7603 33.9733ZM92.7568 36.7309L93.9677 35.0642L92.0085 34.4276L90.7975 36.0942L92.7568 36.7309ZM88.8383 35.4576L90.0492 33.791L88.0899 33.1544L86.879 34.821L88.8383 35.4576ZM84.9197 34.1844L86.1306 32.5177L84.1713 31.8811L82.9604 33.5478L84.9197 34.1844ZM81.0011 32.9112L82.212 31.2445L80.2527 30.6079L79.0418 32.2746L81.0011 32.9112ZM77.0825 31.638L78.2935 29.9713L76.3342 29.3347L75.1233 31.0014L77.0825 31.638ZM73.164 30.3647L74.3749 28.6981L72.4156 28.0615L71.2047 29.7281L73.164 30.3647ZM69.2454 29.0915L70.4563 27.4249L68.497 26.7882L67.9799 27.5L69.1025 29.0451L69.2454 29.0915ZM67.5174 28.5301L67.3745 28.3333L67.2861 28.4549L67.5174 28.5301ZM68.0345 30.7582L66.3065 30.1967L67.3704 31.6611L66.475 32.3116L66.8236 32.4249L68.0345 30.7582ZM64.8643 31.7883L65.0956 31.8634L64.9527 31.6666L64.8643 31.7883ZM62.905 31.1516L63.7418 30L63.1363 29.1667L62.1566 28.8484L61.3199 30L61.9254 30.8333L62.905 31.1516ZM60.109 28.3333L60.1974 28.2118L59.9661 28.1366L60.109 28.3333ZM58.8981 26.6666L59.1136 26.9632L59.4556 25.9106L61.177 26.47L60.109 25L58.8981 26.6666ZM62.3879 24.8033L62.5309 25L62.6192 24.8784L62.3879 24.8033ZM61.4083 23.4549L63.2246 24.0451L63.7418 23.3333L62.5309 21.6666L61.3199 23.3333L61.4083 23.4549ZM63.1363 20.8333L64.3472 22.5L69.3988 15.5471L67.8137 14.3955L63.1363 20.8333ZM72.569 17.8504L70.9839 16.6988L65.5581 24.1667L66.1636 25L67.1432 25.3183L72.569 17.8504ZM75.7391 20.1537L74.154 19.002L69.1025 25.9549L71.0618 26.5915L75.7391 20.1537ZM78.9093 22.4569L77.3242 21.3053L73.021 27.2281L74.9803 27.8647L78.9093 22.4569ZM82.0795 24.7602L80.4944 23.6086L76.9396 28.5014L78.8989 29.138L82.0795 24.7602ZM85.2497 27.0635L83.6646 25.9119L80.8582 29.7746L82.8175 30.4112L85.2497 27.0635ZM88.4199 29.3668L86.8348 28.2151L84.7768 31.0478L86.7361 31.6844L88.4199 29.3668ZM91.5901 31.6701L90.005 30.5184L88.6953 32.321L90.6546 32.9576L91.5901 31.6701ZM61.9254 19.1667L66.2286 13.2438L64.6435 12.0922L60.7145 17.5L61.9254 19.1667ZM59.5036 15.8333L63.0584 10.9406L61.4733 9.78892L58.2927 14.1667L59.5036 15.8333ZM57.0818 12.5L59.8882 8.63728L58.3031 7.48565L55.8709 10.8333L57.0818 12.5ZM54.66 9.16666L56.718 6.33401L55.1329 5.18237L53.4491 7.49999L54.66 9.16666ZM52.2382 5.83333L53.5478 4.03073L51.9627 2.87909L51.0273 4.16666L52.2382 5.83333ZM51.6327 6.66665L50.4218 4.99999L49.2109 6.66665L50.4218 8.33332L51.6327 6.66665ZM49.2109 9.99999L48 8.33332L46.7891 9.99999L48 11.6667L49.2109 9.99999ZM46.7891 13.3333L45.5782 11.6667L44.3673 13.3333L45.5782 15L46.7891 13.3333ZM44.3673 16.6667L43.1564 15L41.9455 16.6667L43.1564 18.3333L44.3673 16.6667ZM41.9455 20L40.7346 18.3333L39.5237 20L40.7346 21.6667L41.9455 20ZM39.5237 23.3333L38.3128 21.6667L37.1019 23.3333L38.3128 25L39.5237 23.3333ZM40.7346 25L39.5237 26.6667L40.7346 28.3333L41.9455 26.6667L40.7346 25ZM43.1564 28.3333L41.9455 30L43.1564 31.6667L44.3673 30L43.1564 28.3333ZM45.5782 31.6667L44.3673 33.3333L45.5782 35L46.7891 33.3333L45.5782 31.6667ZM48 35L46.7891 36.6667L48 38.3333L49.2109 36.6667L48 35ZM50.4218 38.3333L49.2109 40L50.4218 41.6667L51.6327 40L50.4218 38.3333ZM48 45L49.2109 43.3333L48 41.6667L46.7891 43.3333L48 45ZM44.3673 40L45.5782 41.6667L46.7891 40L45.5782 38.3333L44.3673 40ZM46.7642 46.6324L43.1564 41.6667L42.8954 42.0258L41.4361 40.9656L41.9935 42.6811L41.5713 42.8183L45.1791 47.784L43.9433 48.6819L44.4153 50.1347L38.5778 52.0314L38.8387 52.3906L37.3794 53.4509L39.1832 53.4509L39.1832 53.8948L45.0208 51.9981L45.4928 53.4509L47.0204 53.4509L47.0204 59.5888L47.4426 59.4516L48 61.1672L48.5574 59.4516L48.9796 59.5888L48.9796 53.4509L50.5072 53.4509L50.9792 51.9981L56.8168 53.8948L56.8168 53.4509L58.6206 53.4509L57.1613 52.3906L57.4222 52.0314L51.5847 50.1347L52.0567 48.6819L50.8209 47.784L54.4287 42.8183L54.0065 42.6811L54.5639 40.9656L53.1046 42.0258L52.8436 41.6667L49.2358 46.6324L48 45.7345L46.7642 46.6324ZM40.3604 41.1516L41.34 40.8333L41.9455 40L40.7346 38.3333L40.6283 38.4795L40.7826 38.9543L40.1291 39.1667L39.7252 39.7225L39.3214 39.4291L39.1495 39.485L40.3604 41.1516ZM43.1564 35L41.9455 36.6667L43.1564 38.3333L44.3673 36.6667L43.1564 35ZM38.9182 37.5L39.5237 36.6667L38.687 35.515L37.7073 35.8333L37.1019 36.6667L37.9386 37.8183L38.9182 37.5ZM35.5168 34.485L36.4964 34.1667L37.1019 33.3333L36.2651 32.1817L35.2855 32.5L34.68 33.3333L35.5168 34.485ZM38.3128 31.6667L39.5237 30L38.3128 28.3333L37.2448 29.8033L37.7553 29.6374L38.3608 31.5008L38.2244 31.5451L38.3128 31.6667ZM39.5237 33.3333L40.7346 35L41.9455 33.3333L40.7346 31.6667L39.5237 33.3333ZM33.5575 35.1216L33.4691 35L33.3849 35.116L31.7998 33.9644L32.1153 33.5301L30.3873 34.0915L31.5982 35.7582L33.5575 35.1216ZM29.6389 36.3948L28.428 34.7281L26.4687 35.3647L27.6796 37.0314L29.6389 36.3948ZM25.7203 37.668L24.5094 36.0014L22.5502 36.638L23.7611 38.3046L25.7203 37.668ZM21.8018 38.9412L20.5909 37.2746L18.6316 37.9112L19.8425 39.5778L21.8018 38.9412ZM17.8832 40.2145L16.6723 38.5478L14.713 39.1844L15.9239 40.8511L17.8832 40.2145ZM13.9646 41.4877L12.7537 39.821L10.7944 40.4576L12.0054 42.1243L13.9646 41.4877ZM8.37264 37.1243L9.58354 38.791L11.5428 38.1543L10.3319 36.4877L8.37264 37.1243ZM7.16173 35.4576L9.12101 34.821L7.91011 33.1543L5.95083 33.7909L7.16173 35.4576ZM11.8287 31.8811L9.8694 32.5177L11.0803 34.1844L13.0396 33.5478L11.8287 31.8811ZM15.4614 36.8811L14.2505 35.2145L12.2912 35.8511L13.5021 37.5177L15.4614 36.8811ZM13.788 31.2445L14.9989 32.9112L16.9582 32.2746L15.7473 30.6079L13.788 31.2445ZM19.38 35.6079L18.1691 33.9412L16.2098 34.5778L17.4207 36.2445L19.38 35.6079ZM17.7065 29.9713L18.9174 31.638L20.8767 31.0013L19.6658 29.3347L17.7065 29.9713ZM23.2985 34.3347L22.0876 32.668L20.1283 33.3046L21.3392 34.9713L23.2985 34.3347ZM21.6251 28.6981L22.836 30.3647L24.7953 29.7281L23.5844 28.0615L21.6251 28.6981ZM27.2171 33.0615L26.0062 31.3948L24.0469 32.0314L25.2578 33.6981L27.2171 33.0615ZM15.1755 43.1543L13.2163 43.791L14.4272 45.4576L16.3864 44.821L15.1755 43.1543ZM17.5974 46.4877L15.6381 47.1243L16.849 48.791L18.8083 48.1544L17.5974 46.4877ZM20.0192 49.821L18.0599 50.4576L19.2708 52.1243L21.2301 51.4877L20.0192 49.821ZM21.9785 49.1844L23.1893 50.8511L25.1486 50.2145L23.9377 48.5478L21.9785 49.1844ZM25.897 47.9112L27.1079 49.5779L29.0672 48.9412L27.8563 47.2746L25.897 47.9112ZM29.8156 46.638L31.0265 48.3046L32.9858 47.668L31.7749 46.0014L29.8156 46.638ZM33.7342 45.3648L34.9451 47.0314L36.9043 46.3948L35.6934 44.7281L33.7342 45.3648ZM37.6527 44.0915L38.8636 45.7582L40.8229 45.1216L39.612 43.4549L37.6527 44.0915ZM43.2447 48.4549L42.0338 46.7883L40.0745 47.4249L41.2854 49.0915L43.2447 48.4549ZM37.3669 50.3648L39.3262 49.7281L38.1152 48.0615L36.156 48.6981L37.3669 50.3648ZM37.2239 53.5013L36.6185 52.668L34.6592 53.3046L34.7654 53.4509L35.2646 53.4509L35.2646 54.138L35.6685 54.6938L35.2646 54.9873L35.2646 55.168L37.2239 54.5314L37.2239 53.5013ZM32.2374 49.9713L33.4483 51.638L35.4076 51.0014L34.1967 49.3347L32.2374 49.9713ZM33.3054 54.7746L32.6999 53.9413L31.3461 54.3811L31.3461 55.4112L31.9515 56.2445L33.3054 55.8046L33.3054 54.7746ZM28.3188 51.2445L29.5297 52.9112L31.489 52.2746L30.2781 50.6079L28.3188 51.2445ZM29.3868 56.0478L28.7814 55.2145L27.4275 55.6544L27.4275 56.6844L28.033 57.5177L29.3868 57.0779L29.3868 56.0478ZM27.4275 53.5942L27.5704 53.5478L26.3595 51.8811L24.4003 52.5177L25.4682 53.9877L25.4682 53.4509L27.4275 53.4509L27.4275 53.5942ZM29.3868 59.138L29.2439 59.1844L29.3282 59.3004L27.7431 60.452L27.4275 60.0177L27.4275 61.8347L29.3868 61.1981L29.3868 59.138ZM29.3868 63.2582L27.4275 63.8948L27.4275 65.9549L29.3868 65.3183L29.3868 63.2582ZM29.3868 67.3784L27.4275 68.015L27.4275 70.0752L29.3868 69.4385L29.3868 67.3784ZM29.3868 71.4987L27.4275 72.1353L27.4275 74.1954L29.3868 73.5588L29.3868 71.4987ZM29.3868 75.6189L27.4275 76.2555L27.4275 78.3156L29.3868 77.679L29.3868 75.6189ZM29.3868 79.7391L27.4275 80.3757L27.4275 82.4358L29.3868 81.7992L29.3868 79.7391ZM29.3868 83.8593L27.4275 84.496L27.4275 86.5561L29.3868 85.9195L29.3868 83.8593ZM23.5089 87.8293L25.4682 87.1927L25.4682 85.1326L23.5089 85.7692L23.5089 87.8293ZM23.5089 83.7091L25.4682 83.0724L25.4682 81.0123L23.5089 81.6489L23.5089 83.7091ZM21.5496 88.4659L21.5496 86.4058L19.5904 87.0424L19.5904 89.1025L21.5496 88.4659ZM19.5904 84.9823L21.5496 84.3457L21.5496 82.2856L19.5904 82.9222L19.5904 84.9823ZM19.5904 78.8019L19.5904 80.8621L21.5496 80.2254L21.5496 78.1653L19.5904 78.8019ZM23.5089 79.5888L25.4682 78.9522L25.4682 76.8921L23.5089 77.5287L23.5089 79.5888ZM23.5089 75.4686L25.4682 74.832L25.4682 72.7719L23.5089 73.4085L23.5089 75.4686ZM19.5904 76.7418L21.5496 76.1052L21.5496 74.0451L19.5904 74.6817L19.5904 76.7418ZM19.5904 72.6216L21.5496 71.985L21.5496 69.9249L19.5904 70.5615L19.5904 72.6216ZM25.4682 68.6517L23.5089 69.2883L23.5089 71.3484L25.4682 70.7118L25.4682 68.6517ZM23.5089 67.2282L25.4682 66.5915L25.4682 64.5314L23.5089 65.168L23.5089 67.2282ZM19.5904 68.5014L21.5496 67.8648L21.5496 65.8046L19.5904 66.4413L19.5904 68.5014ZM31.3461 83.2227L31.3461 85.2828L33.3054 84.6462L33.3054 82.5861L31.3461 83.2227ZM35.2646 81.9495L35.2646 84.0096L37.2239 83.373L37.2239 81.3129L35.2646 81.9495ZM39.1832 80.6763L39.1832 82.7364L41.1425 82.0998L41.1425 80.0397L39.1832 80.6763ZM43.1018 79.4031L43.1018 81.4632L45.0611 80.8266L45.0611 79.9468L43.2447 79.3566L43.1018 79.4031ZM44.8298 78.8416L45.0611 78.9168L45.0611 78.7665L44.8298 78.8416ZM43.1018 77.343L44.8298 76.7815L43.1083 76.2222L43.4503 75.1696L43.1018 75.2828L43.1018 77.343ZM45.0611 74.6462L44.8298 74.7214L45.0611 74.7965L45.0611 74.6462ZM47.0204 74.0096L47.0204 75.4331L48 75.7514L48.9796 75.4331L48.9796 74.0096L48 73.6913L47.0204 74.0096ZM50.9389 74.6462L50.9389 74.7965L51.1702 74.7214L50.9389 74.6462ZM52.8982 75.2829L52.5496 75.1696L52.8916 76.2222L51.1702 76.7815L52.8982 77.343L52.8982 75.2829ZM51.1702 78.8416L50.9389 78.7665L50.9389 78.9167L51.1702 78.8416ZM52.7553 79.3566L50.9389 79.9468L50.9389 80.8266L52.8982 81.4632L52.8982 79.4031L52.7553 79.3566ZM54.8575 80.0397L54.8575 82.0998L56.8168 82.7364L56.8168 80.6763L54.8575 80.0397ZM58.7761 81.3129L58.7761 83.373L60.7353 84.0096L60.7353 81.9495L58.7761 81.3129ZM62.6946 82.5861L62.6946 84.6462L64.6539 85.2829L64.6539 83.2227L62.6946 82.5861ZM66.6132 83.8593L66.6132 85.9195L68.5725 86.5561L68.5725 84.496L66.6132 83.8593ZM70.5318 85.1326L70.5318 87.1927L72.491 87.8293L72.491 85.7692L70.5318 85.1326ZM70.5318 83.0725L72.491 83.7091L72.491 81.649L70.5318 81.0123L70.5318 83.0725ZM70.5318 78.9522L72.491 79.5888L72.491 77.5287L70.5318 76.8921L70.5318 78.9522ZM70.5318 74.832L72.491 75.4686L72.491 73.4085L70.5318 72.7719L70.5318 74.832ZM70.5318 70.7118L72.491 71.3484L72.491 69.2883L70.5318 68.6516L70.5318 70.7118ZM70.5318 66.5915L72.491 67.2281L72.491 65.168L70.5318 64.5314L70.5318 66.5915ZM68.5725 65.9549L68.5725 63.8948L66.6132 63.2582L66.6132 65.3183L68.5725 65.9549ZM64.6539 64.6817L64.6539 62.6216L62.6946 61.985L62.6946 64.0451L64.6539 64.6817ZM62.6946 59.9249L64.6539 60.5615L64.6539 58.5014L62.6946 57.8648L62.6946 59.9249ZM60.7353 63.4085L60.7353 61.3484L58.7761 60.7118L58.7761 62.7719L60.7353 63.4085ZM58.7761 58.6516L60.7353 59.2883L60.7353 57.2281L58.7761 56.5915L58.7761 58.6516ZM56.8168 62.1353L56.8168 60.0752L54.8575 59.4385L54.8575 61.4987L56.8168 62.1353ZM54.8575 57.3784L56.8168 58.015L56.8168 55.9549L54.8575 55.3183L54.8575 57.3784ZM52.8982 60.862L52.8982 58.8019L50.9389 58.1653L50.9389 60.2254L52.8982 60.862ZM50.9389 56.1052L52.8982 56.7418L52.8982 54.6817L50.9389 54.0451L50.9389 56.1052ZM52.8982 62.9222L50.9389 62.2856L50.9389 64.3457L52.8982 64.9823L52.8982 62.9222ZM52.8982 67.0424L50.9389 66.4058L50.9389 68.4659L52.8982 69.1025L52.8982 67.0424ZM52.8982 71.1626L50.9389 70.526L50.9389 70.6763L51.0753 70.632L51.6807 72.4954L51.1702 72.6613L52.8982 73.2227L52.8982 71.1626ZM43.1018 73.2227L44.8298 72.6613L44.3192 72.4954L44.9247 70.632L45.0611 70.6763L45.0611 70.526L43.1018 71.1626L43.1018 73.2227ZM47.0204 71.3129L48 71.6312L48.9796 71.3129L48.9796 69.8894L48 69.5711L47.0204 69.8894L47.0204 71.3129ZM43.1018 69.1025L45.0611 68.4659L45.0611 66.4058L43.1018 67.0424L43.1018 69.1025ZM43.1018 64.9823L45.0611 64.3457L45.0611 62.2855L43.1018 62.9222L43.1018 64.9823ZM48 61.3306L47.0204 61.6489L47.0204 63.7091L47.1922 63.6532L47.3465 63.1784L48 63.3908L48.6535 63.1784L48.8077 63.6532L48.9796 63.7091L48.9796 61.6489L48 61.3306ZM43.1018 60.862L45.0611 60.2254L45.0611 58.1653L43.1018 58.8019L43.1018 60.862ZM43.1018 56.7418L45.0611 56.1052L45.0611 54.0451L43.1018 54.6817L43.1018 56.7418ZM41.1425 57.3784L41.1425 55.3183L39.1832 55.9549L39.1832 58.015L41.1425 57.3784ZM37.2239 58.6517L37.2239 56.5915L35.2646 57.2281L35.2646 59.2883L37.2239 58.6517ZM33.3054 59.9249L33.3054 57.8648L31.3461 58.5014L31.3461 60.5615L33.3054 59.9249ZM33.3054 61.985L31.3461 62.6216L31.3461 64.6817L33.3054 64.0451L33.3054 61.985ZM33.3054 66.1052L31.3461 66.7418L31.3461 68.8019L33.3054 68.1653L33.3054 66.1052ZM33.3054 70.2254L31.3461 70.862L31.3461 72.9222L33.3054 72.2856L33.3054 70.2254ZM33.3054 74.3457L31.3461 74.9823L31.3461 77.0424L33.3054 76.4058L33.3054 74.3457ZM33.3054 78.4659L31.3461 79.1025L31.3461 81.1626L33.3054 80.526L33.3054 78.4659ZM35.2646 77.8293L35.2646 79.8894L37.2239 79.2528L37.2239 77.1927L35.2646 77.8293ZM39.1832 76.5561L39.1832 78.6162L41.1425 77.9796L41.1425 75.9195L39.1832 76.5561ZM39.1832 74.496L41.1425 73.8593L41.1425 71.7992L39.1832 72.4358L39.1832 74.496ZM39.1832 70.3757L41.1425 69.7391L41.1425 67.679L39.1832 68.3156L39.1832 70.3757ZM39.1832 66.2555L41.1425 65.6189L41.1425 63.5588L39.1832 64.1954L39.1832 66.2555ZM39.1832 62.1353L41.1425 61.4987L41.1425 59.4385L39.1832 60.0752L39.1832 62.1353ZM37.2239 62.7719L37.2239 60.7118L35.2646 61.3484L35.2646 63.4085L37.2239 62.7719ZM37.2239 64.832L35.2646 65.4686L35.2646 67.5287L37.2239 66.8921L37.2239 64.832ZM37.2239 68.9522L35.2646 69.5888L35.2646 71.6489L37.2239 71.0123L37.2239 68.9522ZM37.2239 73.0724L35.2646 73.7091L35.2646 75.7692L37.2239 75.1326L37.2239 73.0724ZM48.9796 65.7692L48 65.4509L47.0204 65.7692L47.0204 67.1927L48 67.511L48.9796 67.1927L48.9796 65.7692ZM54.8575 71.7992L54.8575 73.8593L56.8168 74.496L56.8168 72.4358L54.8575 71.7992ZM58.7761 73.0725L58.7761 75.1326L60.7353 75.7692L60.7353 73.7091L58.7761 73.0725ZM60.7353 77.8293L58.7761 77.1927L58.7761 79.2528L60.7353 79.8894L60.7353 77.8293ZM62.6946 74.3457L62.6946 76.4058L64.6539 77.0424L64.6539 74.9823L62.6946 74.3457ZM64.6539 79.1025L62.6946 78.4659L62.6946 80.526L64.6539 81.1626L64.6539 79.1025ZM66.6132 75.6189L66.6132 77.679L68.5725 78.3156L68.5725 76.2555L66.6132 75.6189ZM68.5725 80.3757L66.6132 79.7391L66.6132 81.7992L68.5725 82.4358L68.5725 80.3757ZM66.6132 73.5588L68.5725 74.1954L68.5725 72.1353L66.6132 71.4987L66.6132 73.5588ZM66.6132 69.4386L68.5725 70.0752L68.5725 68.015L66.6132 67.3784L66.6132 69.4386ZM64.6539 68.8019L64.6539 66.7418L62.6946 66.1052L62.6946 68.1653L64.6539 68.8019ZM60.7353 67.5287L60.7353 65.4686L58.7761 64.832L58.7761 66.8921L60.7353 67.5287ZM56.8168 66.2555L56.8168 64.1954L54.8575 63.5588L54.8575 65.6189L56.8168 66.2555ZM56.8168 68.3156L54.8575 67.679L54.8575 69.7391L56.8168 70.3757L56.8168 68.3156ZM58.7761 68.9522L58.7761 71.0123L60.7353 71.6489L60.7353 69.5888L58.7761 68.9522ZM62.6946 70.2254L62.6946 72.2855L64.6539 72.9222L64.6539 70.8621L62.6946 70.2254ZM54.8575 77.9796L56.8168 78.6162L56.8168 76.5561L54.8575 75.9195L54.8575 77.9796ZM58.7761 53.5014L58.7761 54.5314L60.7353 55.168L60.7353 54.9873L60.3315 54.6939L60.7353 54.138L60.7353 53.4509L61.2345 53.4509L61.3408 53.3046L59.3815 52.668L58.7761 53.5014ZM60.5924 51.0014L62.5517 51.638L63.7626 49.9713L61.8033 49.3347L60.5924 51.0014ZM63.0142 47.668L64.9735 48.3046L66.1844 46.638L64.2251 46.0014L63.0142 47.668ZM65.436 44.3347L67.3953 44.9713L68.6062 43.3046L66.6469 42.668L65.436 44.3347ZM67.8578 41.0014L69.8171 41.638L71.028 39.9713L69.0687 39.3347L67.8578 41.0014ZM70.2796 37.668L72.2389 38.3046L73.4498 36.638L71.4906 36.0014L70.2796 37.668ZM72.7015 34.3347L74.6607 34.9713L75.8716 33.3046L73.9124 32.668L72.7015 34.3347ZM79.7902 34.5779L77.8309 33.9412L76.62 35.6079L78.5793 36.2445L79.7902 34.5779ZM81.7495 35.2145L80.5386 36.8811L82.4979 37.5177L83.7088 35.8511L81.7495 35.2145ZM85.6681 36.4877L84.4572 38.1544L86.4165 38.791L87.6274 37.1243L85.6681 36.4877ZM89.5866 37.7609L88.3757 39.4276L90.335 40.0642L91.5459 38.3975L89.5866 37.7609ZM87.9132 43.3975L89.1241 41.7309L87.1648 41.0942L85.9539 42.7609L87.9132 43.3975ZM86.7023 45.0642L84.743 44.4276L83.5321 46.0942L85.4914 46.7309L86.7023 45.0642ZM84.2805 48.3975L82.3212 47.7609L81.1103 49.4276L83.0696 50.0642L84.2805 48.3975ZM81.8587 51.7309L79.8994 51.0942L78.6885 52.7609L80.6478 53.3975L81.8587 51.7309ZM74.7699 51.4877L76.7292 52.1243L77.9401 50.4576L75.9808 49.821L74.7699 51.4877ZM72.8106 50.8511L74.0216 49.1844L72.0623 48.5478L70.8514 50.2145L72.8106 50.8511ZM69.3546 45.6079L71.3139 46.2445L72.5248 44.5779L70.5655 43.9413L69.3546 45.6079ZM68.8921 49.5779L70.103 47.9112L68.1437 47.2746L66.9328 48.9413L68.8921 49.5779ZM71.5997 52.5177L69.6405 51.8811L68.4296 53.5478L68.5725 53.5942L68.5725 53.4509L70.5318 53.4509L70.5318 53.9877L71.5997 52.5177ZM64.511 52.2746L66.4703 52.9112L67.6812 51.2445L65.7219 50.6079L64.511 52.2746ZM68.5725 55.6544L67.2187 55.2145L66.6132 56.0478L66.6132 57.0779L67.967 57.5177L68.5725 56.6844L68.5725 55.6544ZM62.6946 55.8046L64.0485 56.2445L64.6539 55.4112L64.6539 54.3811L63.3001 53.9412L62.6946 54.7746L62.6946 55.8046ZM66.6132 59.138L66.6132 61.1981L68.5725 61.8347L68.5725 60.0178L68.2569 60.4521L66.6718 59.3004L66.7561 59.1844L66.6132 59.138ZM71.7764 42.2746L73.7357 42.9112L74.9466 41.2445L72.9873 40.6079L71.7764 42.2746ZM79.3277 38.5478L78.1168 40.2145L80.0761 40.8511L81.287 39.1844L79.3277 38.5478ZM74.1982 38.9412L76.1575 39.5779L77.3684 37.9112L75.4091 37.2746L74.1982 38.9412ZM82.7837 43.791L80.8245 43.1544L79.6136 44.821L81.5728 45.4576L82.7837 43.791ZM83.2463 39.821L82.0354 41.4877L83.9946 42.1243L85.2055 40.4576L83.2463 39.821ZM75.695 43.5478L77.6543 44.1844L78.8652 42.5177L76.9059 41.8811L75.695 43.5478ZM75.2325 47.5177L76.4434 45.8511L74.4841 45.2145L73.2732 46.8811L75.2325 47.5177ZM80.3619 47.1243L78.4026 46.4877L77.1917 48.1544L79.151 48.791L80.3619 47.1243ZM70.7422 33.6981L71.9531 32.0314L69.9938 31.3948L68.7829 33.0615L70.7422 33.6981ZM69.5313 35.3648L67.572 34.7281L66.3611 36.3948L68.3204 37.0314L69.5313 35.3648ZM67.1095 38.6981L65.1502 38.0615L63.9393 39.7281L65.8985 40.3648L67.1095 38.6981ZM64.6876 42.0314L62.7284 41.3948L61.5175 43.0615L63.4767 43.6981L64.6876 42.0314ZM62.2658 45.3648L60.3065 44.7281L59.0956 46.3948L61.0549 47.0314L62.2658 45.3648ZM59.844 48.6981L57.8847 48.0615L56.6738 49.7281L58.6331 50.3648L59.844 48.6981ZM52.7553 48.4549L54.7146 49.0915L55.9255 47.4249L53.9662 46.7883L52.7553 48.4549ZM56.388 43.4549L55.1771 45.1216L57.1364 45.7582L58.3473 44.0915L56.388 43.4549ZM54.66 40.8333L55.6396 41.1516L56.8505 39.485L56.6786 39.4291L56.2748 39.7225L55.8709 39.1667L55.2174 38.9543L55.3717 38.4795L55.2654 38.3333L54.0545 40L54.66 40.8333ZM60.7691 40.7582L58.8098 40.1216L57.5989 41.7883L59.5582 42.4249L60.7691 40.7582ZM57.0818 37.5L58.0614 37.8183L58.8981 36.6667L58.2927 35.8334L57.313 35.515L56.4763 36.6667L57.0818 37.5ZM58.8981 33.3333L59.5036 34.1667L60.4832 34.485L61.3199 33.3333L60.7145 32.5L59.7348 32.1817L58.8981 33.3333ZM62.4425 35.1216L64.4018 35.7582L65.6127 34.0915L63.8847 33.5301L64.2002 33.9644L62.6151 35.116L62.5309 35L62.4425 35.1216ZM61.2316 36.7883L60.0207 38.4549L61.98 39.0915L63.1909 37.4249L61.2316 36.7883ZM57.6872 31.6667L57.7756 31.5451L57.6392 31.5008L58.2446 29.6374L58.7552 29.8033L57.6872 28.3333L56.4763 30L57.6872 31.6667ZM55.2654 28.3333L56.4763 26.6667L55.2654 25L54.0545 26.6667L55.2654 28.3333ZM52.8436 25L54.0545 23.3333L52.8436 21.6667L51.6327 23.3333L52.8436 25ZM50.4218 21.6667L51.6327 20L50.4218 18.3333L49.2109 20L50.4218 21.6667ZM48 18.3333L49.2109 16.6667L48 15L46.7891 16.6667L48 18.3333ZM50.4218 11.6667L49.2109 13.3333L50.4218 15L51.6327 13.3333L50.4218 11.6667ZM51.6327 9.99999L52.8436 11.6667L54.0545 9.99999L52.8436 8.33332L51.6327 9.99999ZM56.4763 13.3333L55.2654 11.6667L54.0545 13.3333L55.2654 15L56.4763 13.3333ZM52.8436 18.3333L54.0545 16.6667L52.8436 15L51.6327 16.6667L52.8436 18.3333ZM57.6872 15L56.4763 16.6667L57.6872 18.3333L58.8981 16.6667L57.6872 15ZM55.2654 21.6667L56.4763 20L55.2654 18.3333L54.0545 20L55.2654 21.6667ZM60.109 18.3333L58.8981 20L60.109 21.6667L61.32 20L60.109 18.3333ZM57.6872 25L58.8981 23.3333L57.6872 21.6667L56.4763 23.3333L57.6872 25ZM46.7891 20L45.5782 18.3333L44.3673 20L45.5782 21.6667L46.7891 20ZM44.3673 23.3333L43.1564 21.6667L41.9455 23.3333L43.1564 25L44.3673 23.3333ZM45.5782 25L44.3673 26.6667L45.5782 28.3333L46.7891 26.6667L45.5782 25ZM48 28.3333L46.7891 30L48 31.6667L49.2109 30L48 28.3333ZM50.4218 31.6667L49.2109 33.3333L50.4218 35L51.6327 33.3333L50.4218 31.6667ZM52.8436 35L51.6327 36.6667L52.8436 38.3333L54.0545 36.6667L52.8436 35ZM54.0545 33.3333L55.2654 35L56.4763 33.3333L55.2654 31.6667L54.0545 33.3333ZM52.8436 31.6667L54.0545 30L52.8436 28.3333L51.6327 30L52.8436 31.6667ZM50.4218 28.3333L51.6327 26.6667L50.4218 25L49.2109 26.6667L50.4218 28.3333ZM48 25L49.2109 23.3333L48 21.6667L46.7891 23.3333L48 25ZM47.0204 79.5534L48 79.8717L48.9796 79.5534L48.9796 78.1299L48 77.8115L47.0204 78.1299L47.0204 79.5534ZM36.4418 42.4249L38.4011 41.7883L37.1902 40.1216L35.2309 40.7582L36.4418 42.4249ZM34.02 39.0915L35.9793 38.4549L34.7684 36.7883L32.8091 37.4249L34.02 39.0915ZM32.0607 39.7281L30.8498 38.0615L28.8905 38.6981L30.1014 40.3647L32.0607 39.7281ZM28.1422 41.0014L26.9312 39.3347L24.972 39.9713L26.1829 41.638L28.1422 41.0014ZM24.2236 42.2746L23.0127 40.6079L21.0534 41.2445L22.2643 42.9112L24.2236 42.2746ZM20.305 43.5478L19.0941 41.8811L17.1348 42.5177L18.3457 44.1844L20.305 43.5478ZM21.5159 45.2145L19.5566 45.8511L20.7675 47.5177L22.7268 46.8811L21.5159 45.2145ZM23.4752 44.5779L24.6861 46.2445L26.6454 45.6079L25.4345 43.9412L23.4752 44.5779ZM27.3938 43.3046L28.6047 44.9713L30.564 44.3347L29.3531 42.668L27.3938 43.3046ZM31.3123 42.0314L32.5233 43.6981L34.4825 43.0615L33.2716 41.3948L31.3123 42.0314ZM65.5581 25.8333L64.5785 25.515L63.7418 26.6666L64.3472 27.5L65.3268 27.8183L66.1636 26.6666L65.5581 25.8333ZM19.5904 59.2308L20.1958 60.0642L21.5496 59.6243L21.5496 58.5942L20.9442 57.7609L19.5904 58.2008L19.5904 59.2308ZM30.4419 25.8333L29.8364 26.6667L30.6731 27.8183L31.6528 27.5L32.2582 26.6667L31.4215 25.515L30.4419 25.8333Z" stroke="white" stroke-width="74" stroke-dasharray="2 2"/>
</svg>
