<svg width="88" height="100" viewBox="0 0 88 100" fill="none" xmlns="http://www.w3.org/2000/svg">
<path d="M62.0422 10.4167L47.6084 2.08333L46.4056 4.16666L56.0281 20.8333L62.0422 10.4167ZM53.6225 25L44 8.33333L34.3775 25L37.6987 25L37.6987 29.1667L36.7831 29.1667L44 41.6667L51.2169 29.1667L50.3013 29.1667L50.3013 25L53.6225 25ZM25.5 32.0429L27.1606 29.1667L7.91561 29.1667L17.5381 45.8333L19.1987 42.9571L22.8072 45.0404L22.3494 45.8333L36.7831 45.8333L29.5662 33.3333L29.1084 34.1263L25.5 32.0429ZM4.30717 22.9167L5.50998 25L24.755 25L18.7409 14.5833L4.30717 22.9167ZM40.3916 2.08333L25.9578 10.4167L31.9719 20.8333L41.5944 4.16667L40.3916 2.08333ZM3.10435 29.1667L0.698728 29.1667L0.698726 45.8333L12.7269 45.8333L3.10435 29.1667ZM12.7269 54.1667L0.698726 54.1667L0.698724 70.8333L3.10435 70.8333L12.7269 54.1667ZM4.30717 77.0833L18.7409 85.4167L24.755 75L5.50998 75L4.30717 77.0833ZM17.5381 54.1667L7.91561 70.8333L27.1606 70.8334L25.5 67.9571L29.1084 65.8737L29.5662 66.6667L36.7831 54.1667L22.3494 54.1667L22.8072 54.9596L19.1987 57.0429L17.5381 54.1667ZM34.3775 75L44 91.6667L53.6225 75L50.3013 75L50.3013 70.8333L51.2169 70.8333L44 58.3334L36.7831 70.8333L37.6987 70.8333L37.6987 75L34.3775 75ZM37.6987 53.6381L44 57.2761L50.3013 53.6381L50.3013 46.362L44 42.7239L37.6987 46.362L37.6987 53.6381ZM65.6506 54.1667L51.2169 54.1667L58.4337 66.6667L58.8916 65.8737L62.5 67.9571L60.8394 70.8333L80.0844 70.8333L70.4619 54.1667L68.8013 57.0429L65.1928 54.9596L65.6506 54.1667ZM82.49 75L63.245 75L69.2591 85.4167L83.6928 77.0834L82.49 75ZM47.6084 97.9167L62.0422 89.5833L56.0281 79.1667L46.4056 95.8333L47.6084 97.9167ZM25.9578 89.5833L40.3916 97.9167L41.5944 95.8333L31.9719 79.1667L25.9578 89.5833ZM84.8956 70.8334L87.3013 70.8334L87.3013 54.1667L75.2731 54.1667L84.8956 70.8334ZM75.2731 45.8333L87.3013 45.8333L87.3013 29.1667L84.8956 29.1667L75.2731 45.8333ZM83.6928 22.9167L69.2591 14.5833L63.245 25L82.49 25L83.6928 22.9167ZM70.4619 45.8333L80.0844 29.1667L60.8394 29.1667L62.5 32.0429L58.8916 34.1263L58.4338 33.3333L51.2169 45.8333L65.6506 45.8333L65.1928 45.0404L68.8013 42.9571L70.4619 45.8333Z" stroke="white" stroke-width="74" stroke-dasharray="8 16"/>
</svg>
