<svg width="236" height="272" viewBox="0 0 236 272" fill="none" xmlns="http://www.w3.org/2000/svg">
<path d="M99.5 53.9571L118 43.2761L136.5 53.9571L140.108 56.0404L121.608 88.0833L136.042 96.4167L154.542 64.3737L161.759 68.5404L143.259 100.583L157.693 108.917L176.193 76.8737L179.801 78.9571L198.301 89.6381L198.301 111L198.301 115.167L161.301 115.167L161.301 131.833L198.301 131.833L198.301 140.167L161.301 140.167L161.301 156.833L198.301 156.833L198.301 161L198.301 182.362L179.801 193.043L176.193 195.126L157.693 163.083L143.259 171.417L161.759 203.46L154.542 207.626L136.042 175.583L121.608 183.917L140.108 215.96L136.5 218.043L118 228.724L99.5 218.043L95.8915 215.96L114.392 183.917L99.9578 175.583L81.4578 207.626L74.2409 203.46L92.7409 171.417L78.3072 163.083L59.8072 195.126L56.1987 193.043L37.6987 182.362L37.6987 161L37.6987 156.833L74.6987 156.833L74.6987 140.167L37.6987 140.167L37.6987 131.833L74.6987 131.833L74.6987 115.167L37.6987 115.167L37.6987 111L37.6987 89.6381L56.1987 78.9571L59.8072 76.8737L78.3072 108.917L92.7409 100.583L74.2409 68.5404L81.4578 64.3737L99.9578 96.4167L114.392 88.0833L95.8916 56.0404L99.5 53.9571Z" stroke="white" stroke-width="74" stroke-dasharray="8 16"/>
</svg>
