<svg width="236" height="236" viewBox="0 0 236 236" fill="none" xmlns="http://www.w3.org/2000/svg">
<path d="M97.4498 79.8647L95.2489 81.1353L76.749 49.0924L76.1987 49.41L94.6987 81.453L76.1987 49.4101C74.2514 50.5344 72.363 51.7381 70.5372 53.0161L91.7549 83.328C87.8892 86.0339 84.5794 89.3699 81.9325 93.1509L51.6218 71.9314C49.0526 75.6015 46.8081 79.489 44.9144 83.5491L78.4463 99.1892C76.4953 103.372 75.2611 107.906 74.8506 112.607L37.9909 109.388C37.797 111.608 37.6987 113.845 37.6987 116.094L37.6987 116.729L74.6987 116.729L74.6987 119.271L37.6987 119.271L37.6987 119.906C37.6987 122.155 37.797 124.392 37.9909 126.612L74.8506 123.393C75.2611 128.094 76.4953 132.628 78.4463 136.811L44.9144 152.451C46.8081 156.511 49.0526 160.399 51.6218 164.069L81.9325 142.849C84.5794 146.63 87.8892 149.966 91.7549 152.672L70.5372 182.984C72.363 184.262 74.2514 185.466 76.1987 186.59L76.7489 186.908L95.2489 154.865L97.4498 156.135L78.9498 188.178L79.5 188.496C81.4473 189.62 83.434 190.654 85.4537 191.596L101.096 158.065C105.372 160.06 109.916 161.258 114.514 161.66L111.292 198.519C115.756 198.91 120.244 198.91 124.707 198.519L121.486 161.66C126.084 161.258 130.628 160.06 134.904 158.065L150.546 191.596C152.566 190.654 154.553 189.62 156.5 188.496L157.05 188.178L138.55 156.135L140.751 154.865L159.251 186.908L159.801 186.59C161.749 185.466 163.637 184.262 165.463 182.984L144.245 152.672C148.111 149.966 151.421 146.63 154.068 142.849L184.378 164.069C186.947 160.399 189.192 156.511 191.086 152.451L157.554 136.811C159.505 132.628 160.739 128.094 161.149 123.393L198.009 126.612C198.203 124.392 198.301 122.155 198.301 119.906L198.301 119.271L161.301 119.271L161.301 116.729L198.301 116.729L198.301 116.094C198.301 113.845 198.203 111.608 198.009 109.388L161.149 112.607C160.739 107.906 159.505 103.372 157.554 99.1892L191.086 83.5491C189.192 79.489 186.947 75.6015 184.378 71.9314L154.068 93.1509C151.421 89.3699 148.111 86.0339 144.245 83.328L165.463 53.0161C163.637 51.7381 161.749 50.5344 159.801 49.4101L159.251 49.0924L140.751 81.1353L138.55 79.8647L157.05 47.8217L156.5 47.5041C154.553 46.3798 152.566 45.3462 150.546 44.4041L134.904 77.9351C130.628 75.9402 126.084 74.7419 121.486 74.3401L124.707 37.4805C120.244 37.0905 115.756 37.0905 111.293 37.4805L114.514 74.3401C109.916 74.7419 105.372 75.9402 101.096 77.9351L85.4537 44.4041C83.434 45.3462 81.4473 46.3798 79.5 47.5041L78.9498 47.8217L97.4498 79.8647Z" stroke="white" stroke-width="74" stroke-dasharray="8 16"/>
</svg>
