<svg width="88" height="88" viewBox="0 0 88 88" fill="none" xmlns="http://www.w3.org/2000/svg">
<path d="M42.5 37.59L42.5 37.5899C42.58 37.5438 42.6592 37.5027 42.7376 37.4661L27.0957 3.93508C31.3719 1.94022 35.9159 0.741883 40.5138 0.340056L43.7351 37.1996C43.9112 37.1842 44.0888 37.1842 44.2649 37.1996L47.4862 0.340056C52.0841 0.741883 56.6281 1.94022 60.9043 3.93508L45.2624 37.4661C45.3408 37.5027 45.42 37.5438 45.5 37.5899L46.0502 37.9076L64.5502 5.86467L66.7511 7.13533L48.2511 39.1783L48.8013 39.4959C48.8813 39.5421 48.9565 39.5902 49.0274 39.6398L70.2451 9.32795C74.1108 12.0339 77.4206 15.3699 80.0675 19.1509L49.7569 40.3704C49.8583 40.5152 49.9471 40.669 50.0218 40.8292L83.5537 25.1892C85.5047 29.372 86.7389 33.9063 87.1494 38.6071L50.2897 41.8263C50.2972 41.9125 50.3013 42.0016 50.3013 42.094L50.3013 42.7293L87.3013 42.7293L87.3013 45.2707L50.3013 45.2707L50.3013 45.906C50.3013 45.9984 50.2972 46.0875 50.2897 46.1737L87.1494 49.3929C86.7389 54.0937 85.5047 58.628 83.5537 62.8109L50.0218 47.1708C49.9471 47.331 49.8583 47.4848 49.7569 47.6297L80.0675 68.8491C77.4206 72.6301 74.1108 75.9661 70.2451 78.6721L49.0274 48.3602C48.9565 48.4098 48.8813 48.4579 48.8013 48.5041L48.2511 48.8217L66.7511 80.8647L64.5502 82.1353L46.0502 50.0924L45.5 50.4101C45.42 50.4563 45.3408 50.4973 45.2623 50.5339L60.9043 84.0649C56.6281 86.0598 52.0841 87.2581 47.4862 87.66L44.2649 50.8004C44.0888 50.8158 43.9112 50.8158 43.7351 50.8004L40.5138 87.66C35.9159 87.2581 31.3719 86.0598 27.0956 84.0649L42.7376 50.5339C42.6592 50.4973 42.58 50.4563 42.5 50.4101L41.9498 50.0924L23.4498 82.1353L21.2489 80.8647L39.7489 48.8217L39.1987 48.5041C39.1187 48.4579 39.0435 48.4098 38.9726 48.3602L17.7549 78.6721C13.8892 75.9661 10.5794 72.6301 7.93247 68.8491L38.2431 47.6296C38.1417 47.4848 38.0529 47.331 37.9782 47.1708L4.44628 62.8109C2.49533 58.628 1.26113 54.0937 0.850589 49.3929L37.7103 46.1737C37.7028 46.0875 37.6987 45.9984 37.6987 45.906L37.6987 45.2707L0.698726 45.2707L0.698726 42.7293L37.6987 42.7293L37.6987 42.094C37.6987 42.0016 37.7028 41.9125 37.7103 41.8263L0.85059 38.6071C1.26114 33.9063 2.49533 29.372 4.44628 25.1892L37.9782 40.8292C38.0529 40.669 38.1417 40.5152 38.2431 40.3704L7.93248 19.1509C10.5794 15.3699 13.8892 12.0339 17.7549 9.32795L38.9726 39.6398C39.0435 39.5902 39.1187 39.5421 39.1987 39.4959C39.1987 39.4959 39.1987 39.4959 39.1987 39.4959L42.5 37.59ZM42.5 37.59L41.9498 37.9076L23.4498 5.86467L21.2489 7.13533L42.5 37.59Z" stroke="white" stroke-width="74" stroke-dasharray="8 16"/>
</svg>
