<svg width="236" height="232" viewBox="0 0 236 232" fill="none" xmlns="http://www.w3.org/2000/svg">
<path d="M141.5 195.156L123 163.113L141.5 195.156C140.074 195.98 138.612 196.724 137.122 197.387L122.067 163.589C119.48 164.741 116.52 164.741 113.933 163.589L98.8782 197.387C97.3877 196.724 95.926 195.98 94.5 195.156L113 163.113L94.5 195.156L93.6674 194.676L112.167 162.633L105.507 158.787L87.0072 190.83L85.3421 189.869L103.842 157.826L97.1819 153.981L78.6819 186.024L77.0168 185.062L95.5168 153.019L88.8566 149.174L70.3566 181.217L68.6915 180.256L87.1915 148.213L80.5313 144.367L62.0312 176.41L61.1987 175.93C59.7728 175.106 58.3975 174.213 57.0773 173.254L78.8207 143.317C76.5288 141.652 75.049 139.089 74.7534 136.272L37.9555 140.134C37.7852 138.511 37.6987 136.873 37.6987 135.226L37.6987 134.265L74.6987 134.265L74.6987 126.575L37.6987 126.575L37.6987 124.652L74.6987 124.652L74.6987 116.961L37.6987 116.961L37.6987 115.039L74.6987 115.039L74.6987 107.348L37.6987 107.348L37.6987 105.425L74.6987 105.425L74.6987 97.7348L37.6987 97.7348L37.6987 96.7735C37.6987 95.1269 37.7852 93.489 37.9555 91.8662L74.7534 95.7281C75.049 92.911 76.5288 90.3479 78.8207 88.6833L57.0773 58.7463C58.3975 57.7874 59.7728 56.8936 61.1987 56.0703L62.0313 55.5896L80.5313 87.6326L87.1915 83.7873L68.6915 51.7443L70.3566 50.783L88.8566 82.826L95.5168 78.9807L77.0168 46.9377L78.6819 45.9764L97.1819 78.0193L103.842 74.174L85.3421 42.1311L87.0072 41.1698L105.507 73.2127L112.167 69.3674L93.6675 37.3245L94.5 36.8438C95.926 36.0205 97.3876 35.2764 98.8782 34.6125L113.933 68.4114C116.52 67.2589 119.48 67.2589 122.067 68.4114L137.122 34.6125C138.612 35.2764 140.074 36.0205 141.5 36.8438L142.333 37.3245L123.833 69.3674L130.493 73.2127L148.993 41.1698L150.658 42.1311L132.158 74.174L138.818 78.0193L157.318 45.9764L158.983 46.9377L140.483 78.9807L147.143 82.826L165.643 50.783L167.308 51.7444L148.808 83.7873L155.469 87.6326L173.969 55.5897L174.801 56.0703C176.227 56.8936 177.602 57.7874 178.923 58.7463L157.179 88.6833C159.471 90.3479 160.951 92.911 161.247 95.7281L198.045 91.8663C198.215 93.489 198.301 95.1269 198.301 96.7735L198.301 97.7348L161.301 97.7348L161.301 105.425L198.301 105.425L198.301 107.348L161.301 107.348L161.301 115.039L198.301 115.039L198.301 116.961L161.301 116.961L161.301 124.652L198.301 124.652L198.301 126.575L161.301 126.575L161.301 134.265L198.301 134.265L198.301 135.227C198.301 136.873 198.215 138.511 198.045 140.134L161.247 136.272C160.951 139.089 159.471 141.652 157.179 143.317L178.923 173.254C177.602 174.213 176.227 175.106 174.801 175.93L173.969 176.41L155.469 144.367L148.808 148.213L167.308 180.256L165.643 181.217L147.143 149.174L140.483 153.019L158.983 185.062L157.318 186.024L138.818 153.981L132.158 157.826L150.658 189.869L148.993 190.83L130.493 158.787L123.833 162.633L142.333 194.676L141.5 195.156Z" stroke="white" stroke-width="74" stroke-dasharray="2 8"/>
</svg>
