<svg width="236" height="246" viewBox="0 0 236 246" fill="none" xmlns="http://www.w3.org/2000/svg">
<mask id="path-1-outside-1_1_100" maskUnits="userSpaceOnUse" x="-1.51241e-05" y="-1.4687e-05" width="236" height="246" fill="black">
<rect fill="white" x="-1.51241e-05" y="-1.4687e-05" width="236" height="246"/>
<path d="M123 75.8867C119.906 74.1004 116.094 74.1004 113 75.8867L79.6987 95.1132C76.6047 96.8996 74.6987 100.201 74.6987 103.773L74.6987 142.227C74.6987 145.799 76.6047 149.1 79.6987 150.887L113 170.113C116.094 171.9 119.906 171.9 123 170.113L156.301 150.887C159.395 149.1 161.301 145.799 161.301 142.227L161.301 103.774C161.301 100.201 159.395 96.8996 156.301 95.1133L123 75.8867Z"/>
</mask>
<path d="M156.301 95.1133L137.801 127.156L156.301 95.1133ZM156.301 150.887L137.801 118.844L156.301 150.887ZM113 170.113L131.5 138.07L113 170.113ZM79.6987 150.887L61.1987 182.93L79.6987 150.887ZM79.6987 95.1132L61.1987 63.0703L79.6987 95.1132ZM113 75.8867L131.5 107.93L113 75.8867ZM123 75.8867L104.5 107.93L123 75.8867ZM198.301 103.774L198.301 104.735L124.301 104.735L124.301 103.774L198.301 103.774ZM198.301 106.657L198.301 108.58L124.301 108.58L124.301 106.657L198.301 106.657ZM198.301 110.503L198.301 112.425L124.301 112.425L124.301 110.503L198.301 110.503ZM198.301 114.348L198.301 116.271L124.301 116.271L124.301 114.348L198.301 114.348ZM198.301 118.193L198.301 120.116L124.301 120.116L124.301 118.193L198.301 118.193ZM198.301 122.039L198.301 123.961L124.301 123.961L124.301 122.039L198.301 122.039ZM198.301 125.884L198.301 127.807L124.301 127.807L124.301 125.884L198.301 125.884ZM198.301 129.729L198.301 131.652L124.301 131.652L124.301 129.729L198.301 129.729ZM198.301 133.575L198.301 135.497L124.301 135.497L124.301 133.575L198.301 133.575ZM198.301 137.42L198.301 139.343L124.301 139.343L124.301 137.42L198.301 137.42ZM198.301 141.265L198.301 142.227L124.301 142.227L124.301 141.265L198.301 141.265ZM198.301 142.227C198.301 143.597 198.241 144.962 198.123 146.317L124.404 139.879C124.336 140.658 124.301 141.441 124.301 142.227L198.301 142.227ZM196.699 154.393C195.988 157.048 195.048 159.624 193.896 162.093L126.832 130.813C126.171 132.23 125.631 133.71 125.222 135.236L196.699 154.393ZM189.803 169.182C188.241 171.414 186.48 173.516 184.537 175.459L132.208 123.136C131.091 124.254 130.079 125.461 129.182 126.743L189.803 169.182ZM178.255 180.73C177.14 181.51 175.988 182.244 174.801 182.93L137.801 118.844C137.121 119.237 136.46 119.658 135.819 120.106L178.255 180.73ZM174.801 182.93L173.969 183.41L136.969 119.324L137.801 118.844L174.801 182.93ZM172.304 184.372L170.639 185.333L133.639 121.247L135.304 120.286L172.304 184.372ZM168.974 186.294L167.308 187.256L130.308 123.17L131.974 122.208L168.974 186.294ZM165.643 188.217L163.978 189.178L126.978 125.092L128.643 124.131L165.643 188.217ZM162.313 190.14L160.648 191.101L123.648 127.015L125.313 126.054L162.313 190.14ZM158.983 192.062L157.318 193.024L120.318 128.938L121.983 127.976L158.983 192.062ZM155.653 193.985L153.988 194.946L116.988 130.86L118.653 129.899L155.653 193.985ZM152.323 195.908L150.658 196.869L113.658 132.783L115.323 131.822L152.323 195.908ZM148.993 197.83L147.328 198.792L110.328 134.706L111.993 133.744L148.993 197.83ZM145.663 199.753L143.998 200.714L106.998 136.628L108.663 135.667L145.663 199.753ZM142.333 201.676L141.5 202.156L104.5 138.07L105.333 137.59L142.333 201.676ZM141.5 202.156C140.313 202.842 139.101 203.472 137.868 204.047L106.584 136.985C105.876 137.316 105.18 137.678 104.5 138.07L141.5 202.156ZM130.163 206.852C127.508 207.564 124.807 208.037 122.093 208.275L115.65 134.555C114.092 134.692 112.54 134.964 111.014 135.373L130.163 206.852ZM113.907 208.275C111.193 208.037 108.492 207.564 105.837 206.852L124.986 135.373C123.46 134.964 121.908 134.692 120.35 134.555L113.907 208.275ZM98.1319 204.047C96.899 203.472 95.6871 202.842 94.5 202.156L131.5 138.07C130.82 137.678 130.124 137.316 129.416 136.985L98.1319 204.047ZM94.5 202.156L93.6675 201.676L130.667 137.59L131.5 138.07L94.5 202.156ZM92.0024 200.714L90.3373 199.753L127.337 135.667L129.002 136.628L92.0024 200.714ZM88.6723 198.792L87.0072 197.83L124.007 133.744L125.672 134.706L88.6723 198.792ZM85.3421 196.869L83.6771 195.908L120.677 131.822L122.342 132.783L85.3421 196.869ZM82.012 194.946L80.3469 193.985L117.347 129.899L119.012 130.86L82.012 194.946ZM78.6819 193.024L77.0168 192.062L114.017 127.976L115.682 128.938L78.6819 193.024ZM75.3518 191.101L73.6867 190.14L110.687 126.054L112.352 127.015L75.3518 191.101ZM72.0216 189.178L70.3566 188.217L107.357 124.131L109.022 125.092L72.0216 189.178ZM68.6915 187.256L67.0264 186.294L104.026 122.208L105.692 123.17L68.6915 187.256ZM65.3614 185.333L63.6963 184.372L100.696 120.286L102.361 121.247L65.3614 185.333ZM62.0313 183.41L61.1987 182.93L98.1987 118.844L99.0313 119.324L62.0313 183.41ZM61.1987 182.93C60.0116 182.244 58.8596 181.51 57.7451 180.73L100.18 120.106C99.5401 119.658 98.879 119.237 98.1987 118.844L61.1987 182.93ZM51.463 175.459C49.5197 173.516 47.7591 171.414 46.1965 169.182L106.818 126.743C105.921 125.461 104.909 124.254 103.792 123.136L51.463 175.459ZM42.1037 162.093C40.952 159.624 40.0121 157.048 39.3005 154.393L110.778 135.236C110.369 133.71 109.829 132.23 109.168 130.813L42.1037 162.093ZM37.877 146.317C37.7586 144.962 37.6987 143.597 37.6987 142.226L111.699 142.227C111.699 141.441 111.664 140.658 111.596 139.879L37.877 146.317ZM37.6987 142.226L37.6987 141.265L111.699 141.265L111.699 142.227L37.6987 142.226ZM37.6987 139.343L37.6987 137.42L111.699 137.42L111.699 139.343L37.6987 139.343ZM37.6987 135.497L37.6987 133.575L111.699 133.575L111.699 135.497L37.6987 135.497ZM37.6987 131.652L37.6987 129.729L111.699 129.729L111.699 131.652L37.6987 131.652ZM37.6987 127.807L37.6987 125.884L111.699 125.884L111.699 127.807L37.6987 127.807ZM37.6987 123.961L37.6987 122.039L111.699 122.039L111.699 123.961L37.6987 123.961ZM37.6987 120.116L37.6987 118.193L111.699 118.193L111.699 120.116L37.6987 120.116ZM37.6987 116.271L37.6987 114.348L111.699 114.348L111.699 116.271L37.6987 116.271ZM37.6987 112.425L37.6987 110.503L111.699 110.503L111.699 112.425L37.6987 112.425ZM37.6987 108.58L37.6987 106.657L111.699 106.657L111.699 108.58L37.6987 108.58ZM37.6987 104.735L37.6987 103.773L111.699 103.774L111.699 104.735L37.6987 104.735ZM37.6987 103.773C37.6987 102.403 37.7586 101.038 37.877 99.6826L111.596 106.121C111.664 105.342 111.699 104.559 111.699 103.774L37.6987 103.773ZM39.3006 91.6069C40.0121 88.9521 40.952 86.3764 42.1037 83.9072L109.168 115.187C109.829 113.77 110.369 112.29 110.778 110.764L39.3006 91.6069ZM46.1965 76.8182C47.7591 74.5863 49.5197 72.4844 51.4631 70.5408L103.792 122.864C104.909 121.746 105.921 120.539 106.818 119.257L46.1965 76.8182ZM57.7451 65.2701C58.8596 64.49 60.0116 63.7557 61.1987 63.0703L98.1987 127.156C98.879 126.763 99.5401 126.342 100.18 125.894L57.7451 65.2701ZM61.1987 63.0703L62.0313 62.5896L99.0313 126.676L98.1987 127.156L61.1987 63.0703ZM63.6963 61.6283L65.3614 60.667L102.361 124.753L100.696 125.714L63.6963 61.6283ZM67.0265 59.7057L68.6915 58.7443L105.692 122.83L104.026 123.792L67.0265 59.7057ZM70.3566 57.783L72.0216 56.8217L109.022 120.908L107.357 121.869L70.3566 57.783ZM73.6867 55.8604L75.3518 54.899L112.352 118.985L110.687 119.946L73.6867 55.8604ZM77.0168 53.9377L78.6819 52.9764L115.682 117.062L114.017 118.024L77.0168 53.9377ZM80.347 52.0151L82.012 51.0537L119.012 115.14L117.347 116.101L80.347 52.0151ZM83.6771 50.0924L85.3421 49.1311L122.342 113.217L120.677 114.178L83.6771 50.0924ZM87.0072 48.1698L88.6723 47.2084L125.672 111.294L124.007 112.256L87.0072 48.1698ZM90.3373 46.2471L92.0024 45.2858L129.002 109.372L127.337 110.333L90.3373 46.2471ZM93.6675 44.3245L94.5 43.8438L131.5 107.93L130.667 108.41L93.6675 44.3245ZM94.5 43.8438C95.6871 43.1584 96.899 42.5279 98.1319 41.9528L129.416 109.015C130.124 108.684 130.82 108.322 131.5 107.93L94.5 43.8438ZM105.837 39.1477C108.492 38.4365 111.193 37.9627 113.907 37.7255L120.35 111.445C121.908 111.308 123.46 111.036 124.986 110.627L105.837 39.1477ZM122.093 37.7255C124.807 37.9627 127.508 38.4365 130.163 39.1477L111.014 110.627C112.54 111.036 114.092 111.308 115.65 111.445L122.093 37.7255ZM137.868 41.9528C139.101 42.5279 140.313 43.1584 141.5 43.8438L104.5 107.93C105.18 108.322 105.876 108.684 106.584 109.015L137.868 41.9528ZM141.5 43.8438L142.333 44.3245L105.333 108.41L104.5 107.93L141.5 43.8438ZM143.998 45.2858L145.663 46.2471L108.663 110.333L106.998 109.372L143.998 45.2858ZM147.328 47.2085L148.993 48.1698L111.993 112.256L110.328 111.294L147.328 47.2085ZM150.658 49.1311L152.323 50.0924L115.323 114.178L113.658 113.217L150.658 49.1311ZM153.988 51.0538L155.653 52.0151L118.653 116.101L116.988 115.14L153.988 51.0538ZM157.318 52.9764L158.983 53.9377L121.983 118.024L120.318 117.062L157.318 52.9764ZM160.648 54.8991L162.313 55.8604L125.313 119.946L123.648 118.985L160.648 54.8991ZM163.978 56.8217L165.643 57.783L128.643 121.869L126.978 120.908L163.978 56.8217ZM167.308 58.7444L168.974 59.7057L131.974 123.792L130.308 122.83L167.308 58.7444ZM170.639 60.667L172.304 61.6283L135.304 125.714L133.639 124.753L170.639 60.667ZM173.969 62.5897L174.801 63.0703L137.801 127.156L136.969 126.676L173.969 62.5897ZM174.801 63.0703C175.988 63.7557 177.14 64.49 178.255 65.2701L135.819 125.894C136.46 126.342 137.121 126.763 137.801 127.156L174.801 63.0703ZM184.537 70.5408C186.48 72.4844 188.241 74.5863 189.803 76.8183L129.182 119.257C130.079 120.539 131.091 121.746 132.208 122.864L184.537 70.5408ZM193.896 83.9073C195.048 86.3765 195.988 88.9521 196.699 91.6069L125.222 110.764C125.631 112.29 126.171 113.77 126.832 115.187L193.896 83.9073ZM198.123 99.6826C198.241 101.038 198.301 102.403 198.301 103.774L124.301 103.774C124.301 104.559 124.336 105.342 124.404 106.121L198.123 99.6826ZM156.301 95.1133L119.301 159.199L156.301 95.1133ZM156.301 150.887L119.301 86.8009L156.301 150.887ZM113 170.113L150 106.027L113 170.113ZM79.6987 150.887L42.6987 214.973L79.6987 150.887ZM79.6987 95.1132L42.6987 31.0274L79.6987 95.1132ZM113 75.8867L150 139.973L113 75.8867ZM123 75.8867L86 139.973L123 75.8867ZM235.301 103.774L235.301 104.735L87.3013 104.735L87.3013 103.774L235.301 103.774ZM235.301 106.657L235.301 108.58L87.3013 108.58L87.3013 106.657L235.301 106.657ZM235.301 110.503L235.301 112.425L87.3013 112.425L87.3013 110.503L235.301 110.503ZM235.301 114.348L235.301 116.271L87.3013 116.271L87.3013 114.348L235.301 114.348ZM235.301 118.193L235.301 120.116L87.3013 120.116L87.3013 118.193L235.301 118.193ZM235.301 122.039L235.301 123.961L87.3013 123.961L87.3013 122.039L235.301 122.039ZM235.301 125.884L235.301 127.807L87.3013 127.807L87.3013 125.884L235.301 125.884ZM235.301 129.729L235.301 131.652L87.3013 131.652L87.3013 129.729L235.301 129.729ZM235.301 133.575L235.301 135.497L87.3013 135.497L87.3013 133.575L235.301 133.575ZM235.301 137.42L235.301 139.343L87.3013 139.343L87.3013 137.42L235.301 137.42ZM235.301 141.265L235.301 142.227L87.3013 142.227L87.3013 141.265L235.301 141.265ZM235.301 142.227C235.301 144.675 235.194 147.114 234.983 149.537L87.5439 136.66C87.3827 138.506 87.3013 140.363 87.3013 142.227L235.301 142.227ZM232.438 163.971C231.166 168.717 229.486 173.32 227.428 177.733L93.3005 115.173C91.7328 118.534 90.4526 122.041 89.4833 125.658L232.438 163.971ZM220.114 190.401C217.322 194.39 214.175 198.147 210.701 201.621L106.044 96.9748C103.396 99.6227 100.999 102.485 98.8716 105.523L220.114 190.401ZM199.473 211.042C197.481 212.436 195.422 213.748 193.301 214.973L119.301 86.8009C117.687 87.7327 116.12 88.7319 114.602 89.7943L199.473 211.042ZM193.301 214.973L192.469 215.453L118.469 87.2816L119.301 86.8009L193.301 214.973ZM190.804 216.415L189.139 217.376L115.139 89.2042L116.804 88.2429L190.804 216.415ZM187.474 218.337L185.808 219.299L111.808 91.1269L113.474 90.1655L187.474 218.337ZM184.143 220.26L182.478 221.221L108.478 93.0495L110.143 92.0882L184.143 220.26ZM180.813 222.183L179.148 223.144L105.148 94.9721L106.813 94.0108L180.813 222.183ZM177.483 224.105L175.818 225.067L101.818 96.8948L103.483 95.9335L177.483 224.105ZM174.153 226.028L172.488 226.989L98.488 98.8174L100.153 97.8561L174.153 226.028ZM170.823 227.951L169.158 228.912L95.1578 100.74L96.8229 99.7788L170.823 227.951ZM167.493 229.873L165.828 230.835L91.8277 102.663L93.4928 101.701L167.493 229.873ZM164.163 231.796L162.498 232.757L88.4976 104.585L90.1626 103.624L164.163 231.796ZM160.833 233.718L160 234.199L86 106.027L86.8325 105.547L160.833 233.718ZM160 234.199C157.879 235.424 155.714 236.55 153.51 237.578L90.9421 103.454C89.2631 104.237 87.6139 105.096 86 106.027L160 234.199ZM139.737 242.592C134.991 243.863 130.165 244.71 125.314 245.134L112.429 97.696C108.734 98.0189 105.057 98.664 101.44 99.6329L139.737 242.592ZM110.686 245.134C105.835 244.71 101.009 243.863 96.2632 242.592L134.56 99.6329C130.943 98.664 127.266 98.0189 123.571 97.696L110.686 245.134ZM82.4899 237.578C80.2864 236.55 78.1207 235.424 76 234.199L150 106.027C148.386 105.096 146.737 104.237 145.058 103.454L82.4899 237.578ZM76 234.199L75.1674 233.718L149.167 105.547L150 106.027L76 234.199ZM73.5024 232.757L71.8373 231.796L145.837 103.624L147.502 104.585L73.5024 232.757ZM70.1723 230.834L68.5072 229.873L142.507 101.701L144.172 102.663L70.1723 230.834ZM66.8421 228.912L65.1771 227.951L139.177 99.7788L140.842 100.74L66.8421 228.912ZM63.512 226.989L61.8469 226.028L135.847 97.8561L137.512 98.8175L63.512 226.989ZM60.1819 225.067L58.5168 224.105L132.517 95.9335L134.182 96.8948L60.1819 225.067ZM56.8517 223.144L55.1867 222.183L129.187 94.0108L130.852 94.9722L56.8517 223.144ZM53.5216 221.221L51.8566 220.26L125.857 92.0882L127.522 93.0495L53.5216 221.221ZM50.1915 219.299L48.5264 218.337L122.526 90.1655L124.192 91.1269L50.1915 219.299ZM46.8614 217.376L45.1963 216.415L119.196 88.2429L120.861 89.2042L46.8614 217.376ZM43.5312 215.453L42.6987 214.973L116.699 86.8009L117.531 87.2816L43.5312 215.453ZM42.6987 214.973C40.5779 213.748 38.5193 212.436 36.5273 211.042L121.398 89.7943C119.88 88.7319 118.313 87.7327 116.699 86.8009L42.6987 214.973ZM25.2986 201.621C21.8249 198.147 18.6783 194.39 15.8859 190.401L137.128 105.523C135.001 102.485 132.604 99.6227 129.956 96.9748L25.2986 201.621ZM8.57178 177.733C6.51362 173.32 4.83363 168.717 3.56182 163.971L146.517 125.658C145.547 122.041 144.267 118.534 142.699 115.173L8.57178 177.733ZM1.0173 149.537C0.805749 147.114 0.698724 144.675 0.698724 142.226L148.699 142.227C148.699 140.363 148.617 138.506 148.456 136.66L1.0173 149.537ZM0.698724 142.226L0.698725 141.265L148.699 141.265L148.699 142.227L0.698724 142.226ZM0.698725 139.343L0.698725 137.42L148.699 137.42L148.699 139.343L0.698725 139.343ZM0.698725 135.497L0.698725 133.575L148.699 133.575L148.699 135.497L0.698725 135.497ZM0.698725 131.652L0.698726 129.729L148.699 129.729L148.699 131.652L0.698725 131.652ZM0.698726 127.807L0.698726 125.884L148.699 125.884L148.699 127.807L0.698726 127.807ZM0.698726 123.961L0.698726 122.039L148.699 122.039L148.699 123.961L0.698726 123.961ZM0.698726 120.116L0.698727 118.193L148.699 118.193L148.699 120.116L0.698726 120.116ZM0.698727 116.271L0.698727 114.348L148.699 114.348L148.699 116.271L0.698727 116.271ZM0.698727 112.425L0.698727 110.503L148.699 110.503L148.699 112.425L0.698727 112.425ZM0.698727 108.58L0.698728 106.657L148.699 106.657L148.699 108.58L0.698727 108.58ZM0.698728 104.735L0.698728 103.773L148.699 103.774L148.699 104.735L0.698728 104.735ZM0.698728 103.773C0.698728 101.325 0.805753 98.8857 1.0173 96.4635L148.456 109.34C148.617 107.494 148.699 105.637 148.699 103.774L0.698728 103.773ZM3.56183 82.0286C4.83363 77.2832 6.51363 72.6799 8.57179 68.2672L142.699 130.827C144.267 127.466 145.547 123.959 146.517 120.342L3.56183 82.0286ZM15.8859 55.5988C18.6783 51.61 21.8249 47.8534 25.2986 44.3794L129.956 149.025C132.604 146.377 135.001 143.515 137.128 140.477L15.8859 55.5988ZM36.5274 34.9583C38.5193 33.5639 40.578 32.2518 42.6987 31.0274L116.699 159.199C118.313 158.267 119.88 157.268 121.398 156.206L36.5274 34.9583ZM42.6987 31.0274L43.5313 30.5467L117.531 158.718L116.699 159.199L42.6987 31.0274ZM45.1963 29.5854L46.8614 28.6241L120.861 156.796L119.196 157.757L45.1963 29.5854ZM48.5264 27.6627L50.1915 26.7014L124.192 154.873L122.526 155.834L48.5264 27.6627ZM51.8566 25.7401L53.5216 24.7788L127.522 152.951L125.857 153.912L51.8566 25.7401ZM55.1867 23.8174L56.8518 22.8561L130.852 151.028L129.187 151.989L55.1867 23.8174ZM58.5168 21.8948L60.1819 20.9335L134.182 149.105L132.517 150.067L58.5168 21.8948ZM61.847 19.9721L63.512 19.0108L137.512 147.183L135.847 148.144L61.847 19.9721ZM65.1771 18.0495L66.8421 17.0882L140.842 145.26L139.177 146.221L65.1771 18.0495ZM68.5072 16.1268L70.1723 15.1655L144.172 143.337L142.507 144.299L68.5072 16.1268ZM71.8373 14.2042L73.5024 13.2429L147.502 141.415L145.837 142.376L71.8373 14.2042ZM75.1675 12.2815L76 11.8009L150 139.973L149.167 140.453L75.1675 12.2815ZM76 11.8009C78.1208 10.5764 80.2864 9.44968 82.4899 8.42175L145.058 142.546C146.737 141.763 148.386 140.904 150 139.973L76 11.8009ZM96.2632 3.40792C101.009 2.13666 105.835 1.2899 110.686 0.865992L123.571 148.304C127.266 147.981 130.943 147.336 134.56 146.367L96.2632 3.40792ZM125.314 0.865994C130.165 1.28991 134.991 2.13666 139.737 3.40792L101.44 146.367C105.057 147.336 108.734 147.981 112.429 148.304L125.314 0.865994ZM153.51 8.42176C155.714 9.44968 157.879 10.5764 160 11.8009L86 139.973C87.6139 140.904 89.2631 141.763 90.9421 142.546L153.51 8.42176ZM160 11.8009L160.833 12.2815L86.8325 140.453L86 139.973L160 11.8009ZM162.498 13.2429L164.163 14.2042L90.1626 142.376L88.4976 141.415L162.498 13.2429ZM165.828 15.1655L167.493 16.1268L93.4928 144.299L91.8277 143.337L165.828 15.1655ZM169.158 17.0882L170.823 18.0495L96.8229 146.221L95.1578 145.26L169.158 17.0882ZM172.488 19.0108L174.153 19.9721L100.153 148.144L98.488 147.183L172.488 19.0108ZM175.818 20.9335L177.483 21.8948L103.483 150.067L101.818 149.105L175.818 20.9335ZM179.148 22.8561L180.813 23.8174L106.813 151.989L105.148 151.028L179.148 22.8561ZM182.478 24.7788L184.143 25.7401L110.143 153.912L108.478 152.951L182.478 24.7788ZM185.808 26.7014L187.474 27.6627L113.474 155.834L111.808 154.873L185.808 26.7014ZM189.139 28.6241L190.804 29.5854L116.804 157.757L115.139 156.796L189.139 28.6241ZM192.469 30.5467L193.301 31.0274L119.301 159.199L118.469 158.718L192.469 30.5467ZM193.301 31.0274C195.422 32.2518 197.481 33.564 199.473 34.9583L114.602 156.206C116.12 157.268 117.687 158.267 119.301 159.199L193.301 31.0274ZM210.701 44.3794C214.175 47.8535 217.322 51.61 220.114 55.5988L98.8716 140.477C100.999 143.515 103.396 146.377 106.044 149.025L210.701 44.3794ZM227.428 68.2672C229.486 72.6799 231.166 77.2832 232.438 82.0286L89.4833 120.342C90.4526 123.959 91.7328 127.466 93.3005 130.827L227.428 68.2672ZM234.983 96.4635C235.194 98.8857 235.301 101.325 235.301 103.774L87.3013 103.774C87.3013 105.637 87.3827 107.494 87.5439 109.34L234.983 96.4635Z" fill="white" mask="url(#path-1-outside-1_1_100)"/>
</svg>
