<svg width="88" height="100" viewBox="0 0 88 100" fill="none" xmlns="http://www.w3.org/2000/svg">
<path d="M46.4981 1.4423L44.8327 0.480765L44.5551 0.961531L45.6654 2.88461L46.4981 1.4423ZM45.1103 3.84616L44 1.92308L42.8897 3.84616L44 5.76923L45.1103 3.84616ZM42.8897 7.69231L41.7794 5.76923L40.6691 7.69231L41.7794 9.61539L42.8897 7.69231ZM40.6691 11.5385L39.5588 9.61538L38.4485 11.5385L39.5588 13.4615L40.6691 11.5385ZM38.4485 15.3846L37.3383 13.4615L36.228 15.3846L37.3383 17.3077L38.4485 15.3846ZM36.228 19.2308L35.1177 17.3077L34.0074 19.2308L35.1177 21.1538L36.228 19.2308ZM34.0074 23.0769L32.8971 21.1538L31.7868 23.0769L32.8971 25L34.0074 23.0769ZM37.3383 21.1538L36.228 23.0769L37.3383 25L38.4485 23.0769L37.3383 21.1538ZM39.5588 25L38.4485 26.9231L39.5588 28.8462L40.6691 26.9231L39.5588 25ZM41.7794 28.8461L40.6691 30.7692L41.7794 32.6923L42.8897 30.7692L41.7794 28.8461ZM44 32.6923L42.8897 34.6154L44 36.5385L45.1103 34.6154L44 32.6923ZM46.2206 36.5385L45.1103 38.4615L46.2206 40.3846L47.3309 38.4615L46.2206 36.5385ZM44.6525 43.1006L45.305 41.9705L45.0129 42.1391L44 40.3846L42.987 42.1391L42.695 41.9705L43.3475 43.1006L41.6821 44.0622L39.3642 40.0474L37.9907 39.2545L38.4485 38.4615L37.6987 37.1628L37.6987 37.5L36.7831 37.5L36.3253 38.2929L36.0333 38.1243L36.7831 39.4231L37.6987 39.4231L37.6987 41.009L40.0166 45.0237L38.3512 45.9852L37.6987 44.8551L37.6987 45.1923L35.6728 45.1923L36.6858 46.9468L36.3937 47.1154L37.6987 47.1154L37.6987 49.0385L33.0629 49.0385L31.6895 49.8314L31.2317 49.0385L29.732 49.0385L30.0241 49.2071L29.5663 50L30.024 50.7929L29.732 50.9615L31.2317 50.9615L31.6895 50.1686L33.0629 50.9615L37.6987 50.9615L37.6987 52.8846L36.3937 52.8846L36.6858 53.0532L35.6728 54.8077L37.6987 54.8077L37.6987 55.1449L38.3512 54.0148L40.0167 54.9763L37.6987 58.9911L37.6987 60.5769L36.7831 60.5769L36.0333 61.8757L36.3253 61.7071L36.7831 62.5L37.6987 62.5L37.6987 62.8372L38.4486 61.5385L37.9907 60.7455L39.3642 59.9526L41.6821 55.9379L43.3475 56.8994L42.695 58.0295L42.987 57.8609L44 59.6154L45.0129 57.8609L45.305 58.0295L44.6525 56.8994L46.3179 55.9378L48.6358 59.9526L50.0092 60.7455L49.5514 61.5385L50.3013 62.8372L50.3013 62.5L51.2169 62.5L51.6747 61.7071L51.9667 61.8757L51.2169 60.5769L50.3013 60.5769L50.3013 58.9911L47.9833 54.9763L49.6488 54.0148L50.3013 55.1449L50.3013 54.8077L52.3272 54.8077L51.3142 53.0532L51.6063 52.8846L50.3013 52.8846L50.3013 50.9615L54.9371 50.9615L56.3105 50.1686L56.7683 50.9615L58.268 50.9615L57.9759 50.7929L58.4337 50L57.9759 49.2071L58.268 49.0385L56.7683 49.0385L56.3105 49.8314L54.9371 49.0385L50.3013 49.0385L50.3013 47.1154L51.6062 47.1154L51.3142 46.9468L52.3271 45.1923L50.3013 45.1923L50.3013 44.8551L49.6488 45.9852L47.9833 45.0237L50.3013 41.0089L50.3013 39.4231L51.2169 39.4231L51.9667 38.1243L51.6747 38.2929L51.2169 37.5L50.3013 37.5L50.3013 37.1628L49.5514 38.4615L50.0092 39.2545L48.6358 40.0474L46.3179 44.0622L44.6525 43.1006ZM40.6691 38.4615L41.7794 40.3846L42.8897 38.4615L41.7794 36.5385L40.6691 38.4615ZM38.4485 34.6154L39.5588 36.5385L40.6691 34.6154L39.5588 32.6923L38.4485 34.6154ZM35.6728 35.5769L36.228 34.6154L35.6728 33.6539L34.5625 33.6539L34.0074 34.6154L34.5625 35.5769L35.6728 35.5769ZM34.5625 39.4231L33.4523 37.5L31.2317 37.5L32.342 39.4231L34.5625 39.4231ZM30.1214 39.4231L29.0111 37.5L26.7905 37.5L27.9008 39.4231L30.1214 39.4231ZM25.6802 39.4231L24.57 37.5L22.3494 37.5L23.4597 39.4231L25.6802 39.4231ZM21.2391 39.4231L20.1288 37.5L17.9082 37.5L19.0185 39.4231L21.2391 39.4231ZM16.7979 39.4231L15.6876 37.5L13.4671 37.5L14.5774 39.4231L16.7979 39.4231ZM12.3568 39.4231L11.2465 37.5L9.0259 37.5L10.1362 39.4231L12.3568 39.4231ZM9.0259 39.4231L7.91562 37.5L0.698727 37.5L0.698727 39.4231L9.0259 39.4231ZM0.698727 35.5769L6.80533 35.5769L5.69503 33.6539L0.698728 33.6539L0.698727 35.5769ZM0.698728 29.8077L0.698728 31.7308L4.58474 31.7308L3.47445 29.8077L0.698728 29.8077ZM4.58474 29.8077L5.69503 31.7308L7.91561 31.7308L6.80533 29.8077L4.58474 29.8077ZM10.1362 35.5769L9.0259 33.6539L6.80532 33.6539L7.91561 35.5769L10.1362 35.5769ZM11.2465 33.6539L12.3568 35.5769L14.5773 35.5769L13.4671 33.6539L11.2465 33.6539ZM9.02591 29.8077L10.1362 31.7308L12.3568 31.7308L11.2465 29.8077L9.02591 29.8077ZM13.4671 29.8077L14.5773 31.7308L16.7979 31.7308L15.6876 29.8077L13.4671 29.8077ZM19.0185 35.5769L17.9082 33.6539L15.6876 33.6539L16.7979 35.5769L19.0185 35.5769ZM20.1288 33.6539L21.2391 35.5769L23.4597 35.5769L22.3494 33.6539L20.1288 33.6539ZM17.9082 29.8077L19.0185 31.7308L21.2391 31.7308L20.1288 29.8077L17.9082 29.8077ZM22.3494 29.8077L23.4597 31.7308L25.6802 31.7308L24.5699 29.8077L22.3494 29.8077ZM21.2391 27.8846L23.4597 27.8846L22.3494 25.9615L20.1288 25.9615L21.2391 27.8846ZM24.5699 25.9615L25.6802 27.8846L27.9008 27.8846L26.7905 25.9615L24.5699 25.9615ZM19.5736 25L21.7942 25L16.5203 15.8654L14.8549 16.8269L19.5736 25ZM19.8512 13.9423L18.1858 14.9038L24.0148 25L26.2354 25L19.8512 13.9423ZM21.5166 12.9808L28.456 25L29.5662 25L30.1214 24.0385L23.1821 12.0192L21.5166 12.9808ZM26.5129 10.0962L24.8475 11.0577L31.2317 22.1154L32.342 20.1923L26.5129 10.0962ZM29.8438 8.17307L28.1784 9.13461L33.4522 18.2692L34.5625 16.3462L29.8438 8.17307ZM33.1747 6.25L31.5092 7.21154L35.6728 14.4231L36.7831 12.5L33.1747 6.25ZM36.5055 4.32692L34.8401 5.28846L37.8934 10.5769L39.0037 8.65385L36.5055 4.32692ZM39.8364 2.40385L38.171 3.36538L40.114 6.73077L41.2243 4.8077L39.8364 2.40385ZM43.1673 0.480769L41.5018 1.44231L42.3346 2.88462L43.4449 0.961544L43.1673 0.480769ZM17.3531 25L13.1895 17.7885L11.524 18.75L15.1325 25L17.3531 25ZM12.9119 25L9.85861 19.7115L8.19318 20.6731L10.6913 25L12.9119 25ZM8.47075 25L6.52775 21.6346L4.86231 22.5961L6.25017 25L8.47075 25ZM4.02959 25L3.19688 23.5577L1.53145 24.5192L1.80901 25L4.02959 25ZM1.25388 25.9615L0.698728 25.9615L0.698728 27.8846L2.36416 27.8846L1.25388 25.9615ZM2.36416 25.9615L3.47445 27.8846L5.69504 27.8846L4.58475 25.9615L2.36416 25.9615ZM6.80533 25.9615L7.91562 27.8846L10.1362 27.8846L9.0259 25.9615L6.80533 25.9615ZM11.2465 25.9615L12.3568 27.8846L14.5774 27.8846L13.4671 25.9615L11.2465 25.9615ZM15.6876 25.9615L16.7979 27.8846L19.0185 27.8846L17.9082 25.9615L15.6876 25.9615ZM31.2317 25.9615L30.1214 25.9615L29.5662 26.9231L30.1214 27.8846L31.2317 27.8846L31.7868 26.9231L31.2317 25.9615ZM32.342 29.8077L31.7868 30.7692L32.342 31.7308L33.4522 31.7308L34.0074 30.7692L33.4523 29.8077L32.342 29.8077ZM34.5625 25.9615L34.0074 26.9231L34.5625 27.8846L35.6728 27.8846L36.228 26.9231L35.6728 25.9615L34.5625 25.9615ZM36.7831 29.8077L36.228 30.7692L36.7831 31.7308L37.6987 31.7308L37.6987 32.068L38.4485 30.7692L37.6987 29.4705L37.6987 29.8077L36.7831 29.8077ZM31.7868 34.6154L31.2317 33.6539L30.1214 33.6539L29.6636 34.4468L29.3716 34.2782L30.1214 35.5769L31.6211 35.5769L31.329 35.4083L31.7868 34.6154ZM27.9008 35.5769L26.7905 33.6539L24.5699 33.6539L25.6802 35.5769L27.9008 35.5769ZM27.3457 30.7692L27.9008 31.7308L29.0111 31.7308L29.5662 30.7692L29.0111 29.8077L27.9008 29.8077L27.3457 30.7692ZM10.1362 41.3462L0.698727 41.3462L0.698727 43.2692L11.2465 43.2692L10.1362 41.3462ZM12.3568 45.1923L0.698727 45.1923L0.698726 47.1154L13.4671 47.1154L12.3568 45.1923ZM14.5773 49.0385L0.698726 49.0385L0.698726 50.9615L14.5773 50.9615L15.1325 50L14.5773 49.0385ZM13.4671 52.8846L0.698726 52.8846L0.698726 54.8077L12.3568 54.8077L13.4671 52.8846ZM11.2465 56.7308L0.698726 56.7308L0.698725 58.6539L10.1362 58.6539L11.2465 56.7308ZM9.0259 60.5769L0.698725 60.5769L0.698725 62.5L7.91561 62.5L9.0259 60.5769ZM6.80532 64.4231L0.698725 64.4231L0.698725 66.3462L5.69502 66.3462L6.80532 64.4231ZM4.58474 68.2692L0.698725 68.2692L0.698724 70.1923L3.47445 70.1923L4.58474 68.2692ZM2.36416 72.1154L0.698724 72.1154L0.698724 74.0385L1.25387 74.0385L2.36416 72.1154ZM1.53145 75.4808L3.19689 76.4423L4.0296 75L1.80902 75L1.53145 75.4808ZM3.47446 72.1154L2.36417 74.0385L4.58475 74.0385L5.69503 72.1154L3.47446 72.1154ZM7.91561 72.1154L6.80533 74.0385L9.0259 74.0385L10.1362 72.1154L7.91561 72.1154ZM12.3568 72.1154L11.2465 74.0385L13.4671 74.0385L14.5773 72.1154L12.3568 72.1154ZM16.7979 72.1154L15.6876 74.0385L17.9082 74.0385L19.0185 72.1154L16.7979 72.1154ZM21.2391 72.1154L20.1288 74.0385L22.3494 74.0385L23.4597 72.1154L21.2391 72.1154ZM25.6802 72.1154L24.5699 74.0385L26.7905 74.0385L27.9008 72.1154L25.6802 72.1154ZM22.3494 70.1923L24.5699 70.1923L25.6802 68.2693L23.4597 68.2692L22.3494 70.1923ZM27.3457 69.2308L27.9008 70.1923L29.0111 70.1923L29.5662 69.2308L29.0111 68.2692L27.9008 68.2692L27.3457 69.2308ZM26.7905 66.3462L27.9008 64.4231L25.6802 64.4231L24.5699 66.3462L26.7905 66.3462ZM20.1288 70.1923L21.2391 68.2692L19.0185 68.2692L17.9082 70.1923L20.1288 70.1923ZM15.6876 70.1923L16.7979 68.2692L14.5773 68.2692L13.4671 70.1923L15.6876 70.1923ZM11.2465 70.1923L12.3568 68.2692L10.1362 68.2692L9.0259 70.1923L11.2465 70.1923ZM6.80533 70.1923L7.91562 68.2692L5.69504 68.2692L4.58475 70.1923L6.80533 70.1923ZM7.91562 64.4231L6.80533 66.3462L9.0259 66.3462L10.1362 64.4231L7.91562 64.4231ZM12.3568 64.4231L11.2465 66.3462L13.4671 66.3462L14.5773 64.4231L12.3568 64.4231ZM9.02591 62.5L11.2465 62.5L12.3568 60.5769L10.1362 60.5769L9.02591 62.5ZM14.5774 60.5769L13.4671 62.5L15.6876 62.5L16.7979 60.5769L14.5774 60.5769ZM11.2465 58.6539L13.4671 58.6539L14.5774 56.7308L12.3568 56.7308L11.2465 58.6539ZM16.7979 56.7308L15.6876 58.6539L17.9082 58.6539L19.0185 56.7308L16.7979 56.7308ZM13.4671 54.8077L15.6876 54.8077L16.7979 52.8846L14.5774 52.8846L13.4671 54.8077ZM16.2428 50L16.7979 50.9615L17.9082 50.9615L18.4634 50L17.9082 49.0385L16.7979 49.0385L16.2428 50ZM16.7979 47.1154L15.6876 45.1923L13.4671 45.1923L14.5773 47.1154L16.7979 47.1154ZM12.3568 43.2692L14.5774 43.2692L13.4671 41.3462L11.2465 41.3462L12.3568 43.2692ZM17.9082 41.3462L15.6876 41.3462L16.7979 43.2692L19.0185 43.2692L17.9082 41.3462ZM20.1288 41.3462L21.2391 43.2692L23.4597 43.2692L22.3494 41.3462L20.1288 41.3462ZM24.57 41.3462L25.6802 43.2692L27.9008 43.2692L26.7905 41.3462L24.57 41.3462ZM29.0111 41.3462L30.1214 43.2692L32.342 43.2692L31.2317 41.3462L29.0111 41.3462ZM34.5625 47.1154L33.4523 45.1923L31.2317 45.1923L32.342 47.1154L34.5625 47.1154ZM30.1214 47.1154L29.0111 45.1923L26.7905 45.1923L27.9008 47.1154L30.1214 47.1154ZM26.7905 50.9615L27.3457 50L26.7905 49.0385L25.6802 49.0385L25.1251 50L25.6802 50.9615L26.7905 50.9615ZM24.57 54.8077L25.3198 53.5089L25.0277 53.6776L24.5699 52.8846L23.4597 52.8846L22.9045 53.8462L23.3623 54.6391L23.0703 54.8077L24.57 54.8077ZM20.1288 54.8077L20.6839 53.8462L20.1288 52.8846L19.0185 52.8846L18.4634 53.8462L19.0185 54.8077L20.1288 54.8077ZM20.6839 50L21.2391 50.9615L22.3494 50.9615L22.9045 50L22.3494 49.0385L21.2391 49.0385L20.6839 50ZM19.0185 47.1154L20.1288 47.1154L20.6839 46.1539L20.1288 45.1923L19.0185 45.1923L18.4634 46.1539L19.0185 47.1154ZM23.3623 45.3609L22.9045 46.1539L23.4597 47.1154L24.5699 47.1154L25.0278 46.3225L25.3198 46.4911L24.5699 45.1923L23.0703 45.1923L23.3623 45.3609ZM23.4597 56.7308L21.2391 56.7308L20.1288 58.6539L22.3494 58.6539L23.4597 56.7308ZM21.2391 60.5769L19.0185 60.5769L17.9082 62.5L20.1288 62.5L21.2391 60.5769ZM16.7979 64.4231L15.6876 66.3462L17.9082 66.3462L19.0185 64.4231L16.7979 64.4231ZM21.2391 64.4231L20.1288 66.3462L22.3494 66.3462L23.4597 64.4231L21.2391 64.4231ZM23.4597 60.5769L22.3494 62.5L24.5699 62.5L25.6802 60.5769L23.4597 60.5769ZM27.9008 60.5769L26.7905 62.5L29.0111 62.5L30.1214 60.5769L27.9008 60.5769ZM32.342 60.5769L31.2317 62.5L33.4523 62.5L34.5626 60.5769L32.342 60.5769ZM34.5626 64.4231L34.0074 65.3846L34.5625 66.3462L35.6728 66.3462L36.228 65.3846L35.6728 64.4231L34.5626 64.4231ZM39.5588 63.4616L38.4486 65.3846L39.5588 67.3077L40.6691 65.3846L39.5588 63.4616ZM41.7794 67.3077L40.6691 69.2308L41.7794 71.1539L42.8897 69.2308L41.7794 67.3077ZM44 71.1539L42.8897 73.0769L44 75L45.1103 73.0769L44 71.1539ZM46.2206 75L45.1103 76.9231L46.2206 78.8462L47.3309 76.9231L46.2206 75ZM48.4412 78.8462L47.3309 80.7692L48.4412 82.6923L49.5514 80.7692L48.4412 78.8462ZM50.6617 82.6923L49.5514 84.6154L50.6617 86.5385L51.772 84.6154L50.6617 82.6923ZM52.3272 85.5769L51.2169 87.5L54.8253 93.75L56.4907 92.7885L52.3272 85.5769ZM51.4944 95.6731L53.1599 94.7116L50.1066 89.4231L48.9963 91.3462L51.4944 95.6731ZM49.829 96.6346L47.886 93.2692L46.7757 95.1923L48.1636 97.5962L49.829 96.6346ZM46.4981 98.5577L45.6654 97.1154L44.5551 99.0385L44.8327 99.5192L46.4981 98.5577ZM43.1673 99.5193L43.4448 99.0385L42.3346 97.1154L41.5018 98.5577L43.1673 99.5193ZM39.8364 97.5962L41.2243 95.1923L40.114 93.2693L38.171 96.6346L39.8364 97.5962ZM36.5055 95.6731L39.0037 91.3462L37.8934 89.4231L34.8401 94.7116L36.5055 95.6731ZM33.1747 93.75L36.7831 87.5L35.6728 85.5769L31.5092 92.7885L33.1747 93.75ZM29.8438 91.8269L34.5625 83.6539L33.4522 81.7308L28.1784 90.8654L29.8438 91.8269ZM26.5129 89.9039L32.342 79.8077L31.2317 77.8846L24.8475 88.9423L26.5129 89.9039ZM23.1821 87.9808L30.1214 75.9616L29.5662 75L28.456 75L21.5166 87.0192L23.1821 87.9808ZM18.1858 85.0962L19.8512 86.0577L26.2354 75L24.0148 75L18.1858 85.0962ZM14.8549 83.1731L16.5203 84.1346L21.7942 75L19.5736 75L14.8549 83.1731ZM11.524 81.25L13.1895 82.2115L17.3531 75L15.1325 75L11.524 81.25ZM8.19318 79.3269L9.85861 80.2885L12.9119 75L10.6913 75L8.19318 79.3269ZM4.86231 77.4039L6.52775 78.3654L8.47076 75L6.25018 75L4.86231 77.4039ZM29.5662 73.0769L30.1214 74.0385L31.2317 74.0385L31.7868 73.0769L31.2317 72.1154L30.1214 72.1154L29.5662 73.0769ZM29.3716 65.7218L29.6636 65.5532L30.1214 66.3462L31.2317 66.3462L31.7868 65.3846L31.329 64.5917L31.621 64.4231L30.1214 64.4231L29.3716 65.7218ZM36.7831 68.2692L36.228 69.2308L36.7831 70.1923L37.6987 70.1923L37.6987 70.5295L38.4486 69.2308L37.6987 67.932L37.6987 68.2692L36.7831 68.2692ZM39.5588 71.1539L38.4486 73.0769L39.5588 75L40.6691 73.0769L39.5588 71.1539ZM41.7794 75L40.6691 76.9231L41.7794 78.8462L42.8897 76.9231L41.7794 75ZM44 78.8462L42.8897 80.7692L44 82.6923L45.1103 80.7692L44 78.8462ZM46.2206 82.6923L45.1103 84.6154L46.2206 86.5385L47.3309 84.6154L46.2206 82.6923ZM47.3309 92.3077L46.2206 90.3846L45.1103 92.3077L46.2206 94.2308L47.3309 92.3077ZM48.4412 86.5385L47.3309 88.4616L48.4412 90.3846L49.5514 88.4616L48.4412 86.5385ZM41.7794 94.2308L42.8897 92.3077L41.7794 90.3846L40.6691 92.3077L41.7794 94.2308ZM45.1103 96.1539L44 94.2308L42.8897 96.1539L44 98.0769L45.1103 96.1539ZM44 86.5385L42.8897 88.4616L44 90.3846L45.1103 88.4616L44 86.5385ZM39.5588 90.3846L40.6691 88.4616L39.5588 86.5385L38.4486 88.4616L39.5588 90.3846ZM41.7794 82.6923L40.6691 84.6154L41.7794 86.5385L42.8897 84.6154L41.7794 82.6923ZM37.3383 86.5385L38.4486 84.6154L37.3383 82.6923L36.228 84.6154L37.3383 86.5385ZM39.5588 78.8462L38.4486 80.7692L39.5588 82.6923L40.6691 80.7692L39.5588 78.8462ZM35.1177 82.6923L36.228 80.7692L35.1177 78.8462L34.0074 80.7692L35.1177 82.6923ZM32.8971 78.8462L34.0074 76.9231L32.8971 75L31.7868 76.9231L32.8971 78.8462ZM34.0074 73.0769L34.5625 74.0385L35.6728 74.0385L36.228 73.0769L35.6728 72.1154L34.5625 72.1154L34.0074 73.0769ZM38.4486 76.9231L37.3383 75L36.228 76.9231L37.3383 78.8462L38.4486 76.9231ZM33.4523 70.1923L34.0074 69.2308L33.4522 68.2692L32.342 68.2692L31.7868 69.2308L32.342 70.1923L33.4523 70.1923ZM53.4375 83.6539L58.1562 91.8269L59.8216 90.8654L54.5477 81.7308L53.4375 83.6539ZM55.658 79.8077L61.487 89.9039L63.1525 88.9423L56.7683 77.8846L55.658 79.8077ZM57.8786 75.9616L64.8179 87.9808L66.4833 87.0192L59.544 75L58.4338 75L57.8786 75.9616ZM61.7646 75L68.1488 86.0577L69.8142 85.0962L63.9852 75L61.7646 75ZM66.2058 75L71.4796 84.1346L73.1451 83.1731L68.4263 75L66.2058 75ZM70.6469 75L74.8105 82.2116L76.4759 81.25L72.8675 75L70.6469 75ZM75.0881 75L78.1414 80.2885L79.8068 79.3269L77.3087 75L75.0881 75ZM79.5292 75L81.4722 78.3654L83.1377 77.4039L81.7498 75L79.5292 75ZM83.9704 75L84.8031 76.4423L86.4685 75.4808L86.191 75L83.9704 75ZM86.7461 74.0385L87.3013 74.0385L87.3013 72.1154L85.6358 72.1154L86.7461 74.0385ZM84.5255 70.1923L87.3013 70.1923L87.3013 68.2692L83.4152 68.2692L84.5255 70.1923ZM82.305 66.3462L87.3013 66.3462L87.3013 64.4231L81.1947 64.4231L82.305 66.3462ZM80.0844 62.5L87.3013 62.5L87.3013 60.5769L78.9741 60.5769L80.0844 62.5ZM77.8638 58.6539L87.3013 58.6539L87.3013 56.7308L76.7535 56.7308L77.8638 58.6539ZM75.6432 54.8077L87.3013 54.8077L87.3013 52.8846L74.5329 52.8846L75.6432 54.8077ZM73.4226 50.9615L87.3013 50.9615L87.3013 49.0385L73.4226 49.0385L72.8675 50L73.4226 50.9615ZM74.5329 47.1154L87.3013 47.1154L87.3013 45.1923L75.6432 45.1923L74.5329 47.1154ZM76.7535 43.2692L87.3013 43.2692L87.3013 41.3462L77.8638 41.3462L76.7535 43.2692ZM78.9741 39.4231L87.3013 39.4231L87.3013 37.5L80.0844 37.5L78.9741 39.4231ZM81.1947 35.5769L87.3013 35.5769L87.3013 33.6539L82.305 33.6539L81.1947 35.5769ZM83.4153 31.7308L87.3013 31.7308L87.3013 29.8077L84.5255 29.8077L83.4153 31.7308ZM85.6358 27.8846L87.3013 27.8846L87.3013 25.9615L86.7461 25.9615L85.6358 27.8846ZM86.4685 24.5192L84.8031 23.5577L83.9704 25L86.191 25L86.4685 24.5192ZM84.5255 27.8846L85.6358 25.9615L83.4152 25.9615L82.305 27.8846L84.5255 27.8846ZM80.0844 27.8846L81.1947 25.9615L78.9741 25.9615L77.8638 27.8846L80.0844 27.8846ZM75.6432 27.8846L76.7535 25.9615L74.5329 25.9615L73.4226 27.8846L75.6432 27.8846ZM71.2021 27.8846L72.3124 25.9615L70.0918 25.9615L68.9815 27.8846L71.2021 27.8846ZM66.7609 27.8846L67.8712 25.9615L65.6506 25.9615L64.5403 27.8846L66.7609 27.8846ZM62.3198 27.8846L63.43 25.9615L61.2095 25.9615L60.0992 27.8846L62.3198 27.8846ZM65.6506 29.8077L63.43 29.8077L62.3198 31.7308L62.3198 31.7308L64.5403 31.7308L65.6506 29.8077ZM63.43 33.6539L61.2095 33.6539L60.0992 35.5769L62.3198 35.5769L63.43 33.6539ZM61.2095 37.5L58.9889 37.5L57.8786 39.4231L60.0992 39.4231L61.2095 37.5ZM55.658 39.4231L56.7683 37.5L54.5477 37.5L53.4374 39.4231L55.658 39.4231ZM58.9889 41.3462L56.7683 41.3462L55.658 43.2692L57.8786 43.2692L58.9889 41.3462ZM53.4374 43.2692L54.5477 41.3462L52.3271 41.3462L51.2169 43.2692L53.4374 43.2692ZM56.7683 45.1923L54.5477 45.1923L53.4374 47.1154L55.658 47.1154L56.7683 45.1923ZM58.9889 45.1923L57.8786 47.1154L60.0992 47.1154L61.2095 45.1923L58.9889 45.1923ZM63.43 45.1923L62.6802 46.4911L62.9722 46.3225L63.43 47.1154L64.5403 47.1154L65.0955 46.1538L64.6377 45.3609L64.9297 45.1923L63.43 45.1923ZM67.8712 45.1923L67.3161 46.1538L67.8712 47.1154L68.9815 47.1154L69.5366 46.1538L68.9815 45.1923L67.8712 45.1923ZM72.3123 45.1923L71.2021 47.1154L73.4226 47.1154L74.5329 45.1923L72.3123 45.1923ZM74.5329 54.8077L73.4226 52.8846L71.2021 52.8846L72.3124 54.8077L74.5329 54.8077ZM75.6432 56.7308L73.4226 56.7308L74.5329 58.6539L76.7535 58.6539L75.6432 56.7308ZM72.3124 58.6539L71.2021 56.7308L68.9815 56.7308L70.0918 58.6539L72.3124 58.6539ZM77.8638 60.5769L75.6432 60.5769L76.7535 62.5L78.9741 62.5L77.8638 60.5769ZM74.5329 62.5L73.4226 60.5769L71.2021 60.5769L72.3124 62.5L74.5329 62.5ZM80.0844 64.4231L77.8638 64.4231L78.9741 66.3462L81.1947 66.3462L80.0844 64.4231ZM76.7535 66.3462L75.6432 64.4231L73.4226 64.4231L74.5329 66.3462L76.7535 66.3462ZM82.305 68.2692L80.0844 68.2692L81.1947 70.1923L83.4152 70.1923L82.305 68.2692ZM78.9741 70.1923L77.8638 68.2692L75.6432 68.2692L76.7535 70.1923L78.9741 70.1923ZM84.5255 72.1154L82.305 72.1154L83.4152 74.0385L85.6358 74.0385L84.5255 72.1154ZM81.1947 74.0385L80.0844 72.1154L77.8638 72.1154L78.9741 74.0385L81.1947 74.0385ZM74.5329 74.0385L76.7535 74.0385L75.6432 72.1154L73.4226 72.1154L74.5329 74.0385ZM72.3124 70.1923L74.5329 70.1923L73.4226 68.2692L71.2021 68.2692L72.3124 70.1923ZM70.0918 66.3462L72.3124 66.3462L71.2021 64.4231L68.9815 64.4231L70.0918 66.3462ZM67.8712 62.5L70.0918 62.5L68.9815 60.5769L66.7609 60.5769L67.8712 62.5ZM65.6506 58.6539L67.8712 58.6539L66.7609 56.7308L64.5403 56.7308L65.6506 58.6539ZM63.43 54.8077L64.9297 54.8077L64.6377 54.6391L65.0955 53.8462L64.5403 52.8846L63.43 52.8846L62.9722 53.6776L62.6802 53.509L63.43 54.8077ZM65.6506 49.0385L65.0955 50L65.6506 50.9615L66.7609 50.9615L67.3161 50L66.7609 49.0385L65.6506 49.0385ZM70.0918 49.0385L69.5366 50L70.0918 50.9615L71.2021 50.9615L71.7572 50L71.2021 49.0385L70.0918 49.0385ZM69.5366 53.8462L68.9815 52.8846L67.8712 52.8846L67.3161 53.8462L67.8712 54.8077L68.9815 54.8077L69.5366 53.8462ZM62.3197 50.9615L62.8749 50L62.3198 49.0385L61.2095 49.0385L60.6543 50L61.2095 50.9615L62.3197 50.9615ZM61.2095 54.8077L60.0992 52.8846L57.8786 52.8846L58.9889 54.8077L61.2095 54.8077ZM56.7683 54.8077L55.658 52.8846L53.4374 52.8846L54.5477 54.8077L56.7683 54.8077ZM57.8786 56.7308L55.658 56.7308L56.7683 58.6539L58.9889 58.6539L57.8786 56.7308ZM60.0992 60.5769L57.8786 60.5769L58.9889 62.5L61.2095 62.5L60.0992 60.5769ZM56.7683 62.5L55.658 60.5769L53.4374 60.5769L54.5477 62.5L56.7683 62.5ZM62.3197 64.4231L60.0992 64.4231L61.2095 66.3462L63.43 66.3462L62.3197 64.4231ZM62.3198 68.2692L63.43 70.1923L65.6506 70.1923L64.5403 68.2692L62.3198 68.2692ZM66.7609 72.1154L64.5403 72.1154L65.6506 74.0385L67.8712 74.0385L66.7609 72.1154ZM61.2095 74.0385L63.43 74.0385L62.3198 72.1154L60.0992 72.1154L61.2095 74.0385ZM57.8786 74.0385L58.4338 73.0769L57.8786 72.1154L56.7683 72.1154L56.2132 73.0769L56.7683 74.0385L57.8786 74.0385ZM55.1029 75L53.9926 76.9231L55.1029 78.8462L56.2132 76.9231L55.1029 75ZM52.8823 82.6923L53.9926 80.7693L52.8823 78.8462L51.772 80.7692L52.8823 82.6923ZM50.6617 78.8462L51.772 76.9231L50.6617 75L49.5514 76.9231L50.6617 78.8462ZM48.4412 75L49.5514 73.0769L48.4412 71.1539L47.3309 73.0769L48.4412 75ZM46.2206 71.1539L47.3309 69.2308L46.2206 67.3077L45.1103 69.2308L46.2206 71.1539ZM44 67.3077L45.1103 65.3846L44 63.4616L42.8897 65.3846L44 67.3077ZM46.2206 59.6154L45.1103 61.5385L46.2206 63.4616L47.3309 61.5385L46.2206 59.6154ZM49.5514 65.3846L48.4412 63.4616L47.3309 65.3846L48.4412 67.3077L49.5514 65.3846ZM52.3272 64.4231L51.772 65.3846L52.3272 66.3462L53.4375 66.3462L53.9926 65.3846L53.4374 64.4231L52.3272 64.4231ZM56.671 64.5917L56.2132 65.3846L56.7683 66.3462L57.8786 66.3462L58.3364 65.5532L58.6284 65.7218L57.8786 64.4231L56.3789 64.4231L56.671 64.5917ZM60.0992 68.2692L58.9889 68.2692L58.4338 69.2308L58.9889 70.1923L60.0992 70.1923L60.6543 69.2308L60.0992 68.2692ZM55.658 70.1923L56.2132 69.2308L55.658 68.2692L54.5478 68.2692L53.9926 69.2308L54.5477 70.1923L55.658 70.1923ZM53.9926 73.0769L53.4374 72.1154L52.3272 72.1154L51.772 73.0769L52.3272 74.0385L53.4375 74.0385L53.9926 73.0769ZM51.2169 70.1923L51.772 69.2308L51.2169 68.2692L50.3013 68.2692L50.3013 67.9321L49.5514 69.2308L50.3013 70.5295L50.3013 70.1923L51.2169 70.1923ZM41.7794 63.4616L42.8897 61.5385L41.7794 59.6154L40.6691 61.5385L41.7794 63.4616ZM68.9815 72.1154L70.0918 74.0385L72.3124 74.0385L71.2021 72.1154L68.9815 72.1154ZM67.8712 70.1923L70.0918 70.1923L68.9815 68.2692L66.7609 68.2692L67.8712 70.1923ZM65.6506 66.3462L67.8712 66.3462L66.7609 64.4231L64.5403 64.4231L65.6506 66.3462ZM63.43 62.5L65.6506 62.5L64.5403 60.5769L62.3198 60.5769L63.43 62.5ZM61.2095 58.6539L63.43 58.6539L62.3198 56.7308L60.0992 56.7308L61.2095 58.6539ZM51.2169 56.7308L52.3272 58.6539L54.5477 58.6539L53.4374 56.7308L51.2169 56.7308ZM73.4226 43.2692L75.6432 43.2692L76.7535 41.3462L74.5329 41.3462L73.4226 43.2692ZM75.6432 39.4231L77.8638 39.4231L78.9741 37.5L76.7535 37.5L75.6432 39.4231ZM77.8638 35.5769L80.0844 35.5769L81.1947 33.6539L78.9741 33.6539L77.8638 35.5769ZM80.0844 31.7308L82.305 31.7308L83.4152 29.8077L81.1947 29.8077L80.0844 31.7308ZM77.8638 31.7308L78.9741 29.8077L76.7535 29.8077L75.6432 31.7308L77.8638 31.7308ZM73.4226 31.7308L74.5329 29.8077L72.3124 29.8077L71.2021 31.7308L73.4226 31.7308ZM68.9815 31.7308L70.0918 29.8077L67.8712 29.8077L66.7609 31.7308L68.9815 31.7308ZM67.8712 33.6539L65.6506 33.6539L64.5403 35.5769L66.7609 35.5769L67.8712 33.6539ZM65.6506 37.5L63.43 37.5L62.3198 39.4231L64.5403 39.4231L65.6506 37.5ZM63.43 41.3462L61.2095 41.3462L60.0992 43.2692L62.3197 43.2692L63.43 41.3462ZM65.6506 41.3462L64.5403 43.2692L66.7609 43.2692L67.8712 41.3462L65.6506 41.3462ZM70.0918 41.3462L68.9815 43.2692L71.2021 43.2692L72.3123 41.3462L70.0918 41.3462ZM71.2021 39.4231L73.4226 39.4231L74.5329 37.5L72.3123 37.5L71.2021 39.4231ZM73.4226 35.5769L75.6432 35.5769L76.7535 33.6539L74.5329 33.6539L73.4226 35.5769ZM71.2021 35.5769L72.3124 33.6539L70.0918 33.6539L68.9815 35.5769L71.2021 35.5769ZM70.0918 37.5L67.8712 37.5L66.7609 39.4231L68.9815 39.4231L70.0918 37.5ZM53.4374 35.5769L53.9926 34.6154L53.4375 33.6539L52.3272 33.6539L51.772 34.6154L52.3272 35.5769L53.4374 35.5769ZM48.4411 36.5385L49.5514 34.6154L48.4411 32.6923L47.3309 34.6154L48.4411 36.5385ZM46.2206 32.6923L47.3309 30.7692L46.2206 28.8461L45.1103 30.7692L46.2206 32.6923ZM44 28.8462L45.1103 26.9231L44 25L42.8897 26.9231L44 28.8462ZM41.7794 25L42.8897 23.0769L41.7794 21.1538L40.6691 23.0769L41.7794 25ZM39.5588 21.1538L40.6691 19.2308L39.5588 17.3077L38.4485 19.2308L39.5588 21.1538ZM41.7794 13.4615L40.6691 15.3846L41.7794 17.3077L42.8897 15.3846L41.7794 13.4615ZM42.8897 11.5385L44 13.4615L45.1103 11.5385L44 9.61539L42.8897 11.5385ZM45.1103 7.69231L46.2206 9.61539L47.3309 7.69231L46.2206 5.76924L45.1103 7.69231ZM46.7757 4.80769L47.886 6.73076L49.829 3.36538L48.1636 2.40384L46.7757 4.80769ZM53.1599 5.28846L51.4944 4.32692L48.9963 8.65384L50.1066 10.5769L53.1599 5.28846ZM54.8253 6.25L51.2169 12.5L52.3272 14.4231L56.4907 7.21154L54.8253 6.25ZM58.1562 8.17307L53.4375 16.3461L54.5477 18.2692L59.8216 9.13461L58.1562 8.17307ZM61.487 10.0962L55.658 20.1923L56.7683 22.1154L63.1525 11.0577L61.487 10.0962ZM64.8179 12.0192L57.8786 24.0385L58.4338 25L59.544 25L66.4833 12.9808L64.8179 12.0192ZM69.8142 14.9038L68.1488 13.9423L61.7646 25L63.9852 25L69.8142 14.9038ZM73.1451 16.8269L71.4796 15.8654L66.2058 25L68.4263 25L73.1451 16.8269ZM76.4759 18.75L74.8105 17.7885L70.6469 25L72.8675 25L76.4759 18.75ZM79.8068 20.6731L78.1414 19.7115L75.0881 25L77.3087 25L79.8068 20.6731ZM83.1377 22.5962L81.4722 21.6346L79.5292 25L81.7498 25L83.1377 22.5962ZM57.8786 25.9615L56.7683 25.9615L56.2132 26.9231L56.7683 27.8846L57.8786 27.8846L58.4337 26.9231L57.8786 25.9615ZM58.9889 29.8077L58.4337 30.7692L58.9889 31.7308L60.0992 31.7308L60.6543 30.7692L60.0992 29.8077L58.9889 29.8077ZM57.8786 35.5769L58.6284 34.2782L58.3364 34.4468L57.8786 33.6539L56.7683 33.6539L56.2132 34.6154L56.671 35.4083L56.3789 35.5769L57.8786 35.5769ZM51.2169 31.7308L51.772 30.7692L51.2169 29.8077L50.3013 29.8077L50.3013 29.4705L49.5514 30.7692L50.3013 32.068L50.3013 31.7308L51.2169 31.7308ZM48.4411 28.8462L49.5514 26.9231L48.4411 25L47.3309 26.9231L48.4411 28.8462ZM46.2206 25L47.3309 23.0769L46.2206 21.1538L45.1103 23.0769L46.2206 25ZM45.1103 15.3846L46.2206 17.3077L47.3309 15.3846L46.2206 13.4615L45.1103 15.3846ZM44 21.1538L45.1103 19.2308L44 17.3077L42.8897 19.2308L44 21.1538ZM50.6617 13.4615L49.5514 15.3846L50.6617 17.3077L51.772 15.3846L50.6617 13.4615ZM47.3309 11.5385L48.4411 13.4615L49.5514 11.5385L48.4411 9.61539L47.3309 11.5385ZM48.4411 21.1538L49.5514 19.2308L48.4411 17.3077L47.3309 19.2308L48.4411 21.1538ZM52.8823 17.3077L51.772 19.2308L52.8823 21.1538L53.9926 19.2308L52.8823 17.3077ZM55.1029 21.1538L53.9926 23.0769L55.1029 25L56.2132 23.0769L55.1029 21.1538ZM50.6617 25L51.772 23.0769L50.6617 21.1538L49.5514 23.0769L50.6617 25ZM53.4374 27.8846L53.9926 26.9231L53.4374 25.9615L52.3272 25.9615L51.772 26.9231L52.3272 27.8846L53.4374 27.8846ZM54.5477 29.8077L53.9926 30.7692L54.5477 31.7308L55.658 31.7308L56.2132 30.7692L55.658 29.8077L54.5477 29.8077ZM33.4523 58.6539L35.6728 58.6539L36.7831 56.7308L34.5626 56.7308L33.4523 58.6539ZM31.2317 58.6539L32.342 56.7308L30.1214 56.7308L29.0111 58.6539L31.2317 58.6539ZM26.7905 58.6539L27.9008 56.7308L25.6802 56.7308L24.57 58.6539L26.7905 58.6539ZM27.9008 52.8846L26.7905 54.8077L29.0111 54.8077L30.1214 52.8846L27.9008 52.8846ZM32.342 52.8846L31.2317 54.8077L33.4523 54.8077L34.5626 52.8846L32.342 52.8846ZM33.4523 41.3462L34.5625 43.2692L36.7831 43.2692L35.6728 41.3462L33.4523 41.3462Z" stroke="white" stroke-width="74" stroke-dasharray="2 2"/>
</svg>
