<svg width="98" height="96" viewBox="0 0 98 96" fill="none" xmlns="http://www.w3.org/2000/svg">
<path d="M65.2882 7.84396L52.2576 1.56879L51.0066 4.16666L59.0328 20.8333L65.2882 7.84396ZM57.0262 25L49 8.33333L40.9738 25L41.4693 26.0291L45.9808 27.0588L45.1762 30.5838L43.4759 30.1957L48.7655 41.1798L42.2503 44.3174L36.9606 33.3333L36.2039 34.9046L32.9463 33.3358L34.9541 29.1667L34.4585 28.1376L16.4237 24.0213L24.4499 40.6879L25.5635 40.9421L29.1814 38.0569L31.4357 40.8838L30.0722 41.9712L41.9579 44.684L40.3488 51.7341L28.4631 49.0213L29.2198 50.5926L25.9621 52.1614L23.9544 47.9922L22.8408 47.738L8.37799 59.2717L26.4128 63.388L27.3058 62.6759L27.3058 58.0485L30.9215 58.0485L30.9215 59.7925L40.4531 52.1913L44.9618 57.845L35.4302 65.4462L37.1305 65.8343L36.3259 69.3593L31.8145 68.3296L30.9215 69.0418L30.9215 87.5404L45.3843 76.0067L45.3843 74.8645L41.7664 71.9793L44.0208 69.1525L45.3843 70.2398L45.3843 58.0485L52.6157 58.0485L52.6157 70.2398L53.9792 69.1525L56.2336 71.9793L52.6157 74.8645L52.6157 76.0067L67.0785 87.5404L67.0785 69.0418L66.1855 68.3296L61.6741 69.3593L60.8695 65.8343L62.5698 65.4462L53.0382 57.845L57.5469 52.1913L67.0785 59.7925L67.0785 58.0485L70.6942 58.0485L70.6942 62.6759L71.5872 63.388L89.622 59.2717L75.1592 47.738L74.0456 47.9922L72.0379 52.1614L68.7802 50.5926L69.5369 49.0213L57.6512 51.7341L56.0421 44.684L67.9278 41.9712L66.5643 40.8838L68.8186 38.0569L72.4365 40.9421L73.5501 40.6879L81.5763 24.0213L63.5415 28.1376L63.0459 29.1667L65.0537 33.3358L61.7961 34.9046L61.0394 33.3333L55.7497 44.3174L49.2345 41.1798L54.5241 30.1957L52.8238 30.5838L52.0192 27.0588L56.5307 26.0291L57.0262 25ZM32.7118 7.84396L38.9672 20.8333L46.9934 4.16666L45.7424 1.56879L32.7118 7.84396ZM32.4519 23.9709L26.1966 10.9815L13.1661 17.2567L14.4171 19.8546L32.4519 23.9709ZM9.10386 22.3505L5.88558 36.4507L19.9412 39.6588L11.915 22.9922L9.10386 22.3505ZM18.3321 46.7089L4.27644 43.5008L1.05816 57.601L3.8693 58.2426L18.3321 46.7089ZM2.50794 63.9529L11.5254 75.2604L22.7971 66.2715L4.76229 62.1551L2.50794 63.9529ZM27.3058 71.9252L16.0341 80.9141L25.0515 92.2216L27.3058 90.4238L27.3058 71.9252ZM30.9215 92.165L30.9215 95.0485L45.3843 95.0485L45.3843 80.6313L30.9215 92.165ZM52.6157 80.6313L52.6157 95.0485L67.0785 95.0485L67.0785 92.165L52.6157 80.6313ZM72.9485 92.2216L81.9659 80.9141L70.6942 71.9252L70.6942 90.4238L72.9485 92.2216ZM93.2377 62.1551L75.2029 66.2715L86.4746 75.2604L95.492 63.9529L93.2377 62.1551ZM96.9418 57.601L93.7235 43.5008L79.6679 46.7089L94.1307 58.2426L96.9418 57.601ZM78.0588 39.6588L92.1144 36.4507L88.8961 22.3506L86.085 22.9922L78.0588 39.6588ZM84.8339 17.2567L71.8034 10.9815L65.5481 23.9709L83.5829 19.8546L84.8339 17.2567Z" stroke="white" stroke-width="74" stroke-dasharray="8 16"/>
</svg>
