<svg width="92" height="92" viewBox="0 0 92 92" fill="none" xmlns="http://www.w3.org/2000/svg">
<path d="M67.0061 6.11599L64.0855 4.70951L48.0318 38.0453L47.3016 37.6937C47.1625 37.6267 47.0229 37.5723 46.8831 37.5292L57.7901 2.17333C50.1111 -0.195583 41.8889 -0.195581 34.2099 2.17333L45.1169 37.5292C44.977 37.5723 44.8375 37.6267 44.6983 37.6937L43.9682 38.0454L27.9145 4.70951L24.9939 6.116L41.0476 39.4518L40.3175 39.8035L24.2638 6.46762L40.3175 39.8035C40.1783 39.8705 40.0488 39.9457 39.9278 40.0281L19.0859 9.45666C12.4461 13.9834 7.31962 20.4117 4.38393 27.8924L38.8267 41.4089C38.7732 41.5452 38.7287 41.6882 38.6943 41.8388L38.514 42.6289L2.44168 34.3956L1.72035 37.556L37.7927 45.7892L37.6123 46.5793C37.578 46.7299 37.556 46.878 37.5451 47.024L0.648616 44.2579C0.047839 52.2715 1.87744 60.2875 5.89569 67.2468L37.9381 48.7459C38.0113 48.8726 38.0954 48.9966 38.1916 49.1173L38.6969 49.7509L9.76915 72.8201L11.7903 75.3545L40.718 52.2853L41.2233 52.9189L41.2233 52.9189C41.3196 53.0397 41.4217 53.1492 41.529 53.2488L16.3618 80.371C22.2525 85.8371 29.6604 89.4045 37.6068 90.602L43.1203 54.0151C43.265 54.0369 43.4144 54.0485 43.5688 54.0485L44.3792 54.0485L44.3792 91.0485L47.6208 91.0485L47.6208 54.0485L48.4312 54.0485C48.5856 54.0485 48.735 54.0369 48.8797 54.0151L54.3932 90.602C62.3396 89.4045 69.7475 85.8371 75.6382 80.371L50.471 53.2488C50.5783 53.1492 50.6804 53.0397 50.7767 52.9189L51.282 52.2853L80.2097 75.3545L82.2308 72.8201L53.3031 49.7509L53.8083 49.1173L82.7361 72.1865L53.8084 49.1173C53.9046 48.9966 53.9887 48.8726 54.0619 48.7459L86.1043 67.2468C90.1226 60.2875 91.9522 52.2715 91.3514 44.2579L54.4549 47.024C54.444 46.878 54.422 46.7299 54.3876 46.5793L54.2073 45.7892L90.2796 37.556L89.5583 34.3956L53.486 42.6289L53.3057 41.8388C53.2713 41.6882 53.2268 41.5452 53.1733 41.4089L87.6161 27.8924C84.6804 20.4117 79.5539 13.9834 72.9141 9.45667L52.0722 40.0281C51.9512 39.9457 51.8217 39.8705 51.6825 39.8035L50.9524 39.4518L67.0061 6.11599Z" stroke="white" stroke-width="74" stroke-dasharray="8 16"/>
</svg>
