<svg width="244" height="240" viewBox="0 0 244 240" fill="none" xmlns="http://www.w3.org/2000/svg">
<mask id="path-1-outside-1_1_95" maskUnits="userSpaceOnUse" x="-1.48619e-05" y="-1.50367e-05" width="244" height="240" fill="black">
<rect fill="white" x="-1.48619e-05" y="-1.50367e-05" width="244" height="240"/>
<path d="M126.339 72.0895C123.597 70.7691 120.403 70.7691 117.661 72.0895L87.2473 86.736C84.5054 88.0564 82.514 90.5536 81.8368 93.5205L74.3252 126.431C73.648 129.398 74.3587 132.512 76.2562 134.891L97.3032 161.283C99.2007 163.663 102.078 165.048 105.122 165.048L138.878 165.048C141.922 165.048 144.799 163.663 146.697 161.283L167.744 134.891C169.641 132.512 170.352 129.398 169.675 126.431L162.163 93.5205C161.486 90.5536 159.495 88.0565 156.753 86.736L126.339 72.0895Z"/>
</mask>
<path d="M162.163 93.5205L198.236 85.2872L162.163 93.5205ZM156.753 86.736L140.699 120.072L156.753 86.736ZM167.744 134.891L196.672 157.96L167.744 134.891ZM169.675 126.431L205.747 118.198L169.675 126.431ZM146.697 161.283L175.625 184.352L146.697 161.283ZM97.3032 161.283L126.231 138.214L97.3032 161.283ZM74.3252 126.431L38.2529 118.198L74.3252 126.431ZM76.2562 134.891L47.3284 157.96L76.2562 134.891ZM87.2473 86.736L71.1936 53.4002L87.2473 86.736ZM81.8368 93.5205L117.909 101.754L81.8368 93.5205ZM117.661 72.0895L133.715 105.425L117.661 72.0895ZM126.339 72.0895L142.393 38.7536L126.339 72.0895ZM198.236 85.2872L198.444 86.2014L126.299 102.668L126.091 101.754L198.236 85.2872ZM199.279 89.8582L199.696 91.6865L127.551 108.153L127.134 106.325L199.279 89.8582ZM200.531 95.3432L200.948 97.1716L128.803 113.638L128.386 111.81L200.531 95.3432ZM201.783 100.828L202.2 102.657L130.055 119.123L129.638 117.295L201.783 100.828ZM203.035 106.313L203.452 108.142L131.307 124.608L130.89 122.78L203.035 106.313ZM204.287 111.799L204.704 113.627L132.559 130.093L132.142 128.265L204.287 111.799ZM205.538 117.284L205.747 118.198L133.602 134.664L133.394 133.75L205.538 117.284ZM205.747 118.198C206.272 120.497 206.62 122.819 206.794 125.143L133.001 130.675C133.101 132.011 133.301 133.345 133.602 134.664L205.747 118.198ZM200.628 152.157C199.463 154.176 198.142 156.116 196.672 157.96L138.816 111.822C137.972 112.88 137.213 113.995 136.543 115.155L200.628 152.157ZM196.672 157.96L196.087 158.693L138.231 112.555L138.816 111.822L196.672 157.96ZM193.748 161.626L192.579 163.092L134.724 116.954L135.893 115.488L193.748 161.626ZM190.241 166.025L189.071 167.491L131.216 121.353L132.385 119.886L190.241 166.025ZM186.733 170.423L185.563 171.889L127.708 125.751L128.877 124.285L186.733 170.423ZM183.225 174.822L182.056 176.288L124.2 130.15L125.369 128.684L183.225 174.822ZM179.717 179.221L178.548 180.687L120.692 134.549L121.861 133.082L179.717 179.221ZM176.209 183.619L175.625 184.352L117.769 138.214L118.354 137.481L176.209 183.619ZM175.625 184.352C174.154 186.196 172.556 187.916 170.847 189.501L120.513 135.257C119.531 136.168 118.613 137.156 117.769 138.214L175.625 184.352ZM145.882 201.524C143.578 201.871 141.237 202.048 138.878 202.048L138.878 128.048C137.525 128.048 136.18 128.15 134.855 128.35L145.882 201.524ZM138.878 202.048L137.941 202.048L137.941 128.048L138.878 128.048L138.878 202.048ZM134.19 202.048L132.315 202.048L132.315 128.048L134.19 128.048L134.19 202.048ZM128.564 202.048L126.688 202.048L126.688 128.048L128.564 128.048L128.564 202.048ZM122.938 202.048L121.062 202.048L121.062 128.048L122.938 128.048L122.938 202.048ZM117.312 202.048L115.436 202.048L115.436 128.048L117.312 128.048L117.312 202.048ZM111.685 202.048L109.81 202.048L109.81 128.048L111.685 128.048L111.685 202.048ZM106.059 202.048L105.122 202.048L105.122 128.048L106.059 128.048L106.059 202.048ZM105.122 202.048C102.763 202.048 100.422 201.871 98.1176 201.524L109.145 128.35C107.82 128.15 106.475 128.048 105.122 128.048L105.122 202.048ZM73.1526 189.501C71.4442 187.916 69.8459 186.196 68.3755 184.352L126.231 138.214C125.387 137.156 124.469 136.168 123.487 135.257L73.1526 189.501ZM68.3755 184.352L67.7908 183.619L125.646 137.481L126.231 138.214L68.3755 184.352ZM65.4523 180.687L64.283 179.221L122.139 133.082L123.308 134.549L65.4523 180.687ZM61.9444 176.288L60.7751 174.822L118.631 128.684L119.8 130.15L61.9444 176.288ZM58.4366 171.889L57.2673 170.423L115.123 124.285L116.292 125.751L58.4366 171.889ZM54.9287 167.491L53.7595 166.025L111.615 119.886L112.784 121.353L54.9287 167.491ZM51.4209 163.092L50.2516 161.626L108.107 115.488L109.276 116.954L51.4209 163.092ZM47.913 158.693L47.3284 157.96L105.184 111.822L105.769 112.555L47.913 158.693ZM47.3284 157.96C45.8579 156.116 44.5371 154.176 43.3717 152.157L107.456 115.155C106.787 113.995 106.028 112.88 105.184 111.822L47.3284 157.96ZM37.2059 125.143C37.3801 122.819 37.7281 120.497 38.2529 118.198L110.398 134.664C110.699 133.345 110.899 132.011 110.999 130.675L37.2059 125.143ZM38.2529 118.198L38.4615 117.284L110.606 133.75L110.398 134.664L38.2529 118.198ZM39.2962 113.627L39.7135 111.799L111.858 128.265L111.441 130.093L39.2962 113.627ZM40.5481 108.142L40.9654 106.313L113.11 122.78L112.693 124.608L40.5481 108.142ZM41.8 102.657L42.2173 100.828L114.362 117.295L113.945 119.123L41.8 102.657ZM43.052 97.1716L43.4693 95.3432L115.614 111.81L115.197 113.638L43.052 97.1716ZM44.3039 91.6865L44.7212 89.8581L116.866 106.325L116.449 108.153L44.3039 91.6865ZM45.5558 86.2014L45.7645 85.2872L117.909 101.754L117.7 102.668L45.5558 86.2014ZM45.7645 85.2872C46.2893 82.9879 46.9832 80.7452 47.8346 78.5757L116.72 105.609C117.209 104.362 117.608 103.073 117.909 101.754L45.7645 85.2872ZM65.1109 56.9118C67.0366 55.599 69.0687 54.4235 71.1936 53.4002L103.301 120.072C104.52 119.485 105.688 118.809 106.795 118.055L65.1109 56.9118ZM71.1936 53.4002L72.0384 52.9933L104.146 119.665L103.301 120.072L71.1936 53.4002ZM75.4177 51.3659L77.1074 50.5522L109.215 117.224L107.525 118.038L75.4177 51.3659ZM80.4867 48.9248L82.1764 48.1111L114.284 114.783L112.594 115.597L80.4867 48.9248ZM85.5557 46.4838L87.2453 45.6701L119.353 112.342L117.663 113.155L85.5557 46.4838ZM90.6247 44.0427L92.3143 43.229L124.422 109.901L122.732 110.714L90.6247 44.0427ZM95.6937 41.6016L97.3833 40.7879L129.491 107.46L127.801 108.273L95.6937 41.6016ZM100.763 39.1605L101.607 38.7536L133.715 105.425L132.87 105.832L100.763 39.1605ZM101.607 38.7536C103.732 37.7303 105.918 36.8745 108.145 36.1875L129.959 106.899C131.24 106.504 132.496 106.012 133.715 105.425L101.607 38.7536ZM135.855 36.1875C138.082 36.8745 140.268 37.7303 142.393 38.7536L110.285 105.425C111.504 106.012 112.76 106.504 114.041 106.899L135.855 36.1875ZM142.393 38.7536L143.237 39.1605L111.13 105.832L110.285 105.425L142.393 38.7536ZM146.617 40.7879L148.306 41.6016L116.199 108.273L114.509 107.46L146.617 40.7879ZM151.686 43.229L153.375 44.0427L121.268 110.714L119.578 109.901L151.686 43.229ZM156.755 45.6701L158.444 46.4838L126.337 113.155L124.647 112.342L156.755 45.6701ZM161.824 48.1112L163.513 48.9249L131.406 115.597L129.716 114.783L161.824 48.1112ZM166.893 50.5522L168.582 51.3659L136.475 118.038L134.785 117.224L166.893 50.5522ZM171.962 52.9933L172.806 53.4002L140.699 120.072L139.854 119.665L171.962 52.9933ZM172.806 53.4002C174.931 54.4235 176.963 55.599 178.889 56.9118L137.205 118.055C138.312 118.809 139.48 119.485 140.699 120.072L172.806 53.4002ZM196.165 78.5757C197.017 80.7452 197.711 82.9879 198.236 85.2872L126.091 101.754C126.392 103.073 126.791 104.362 127.28 105.609L196.165 78.5757ZM162.163 93.5205L234.308 77.054L162.163 93.5205ZM156.753 86.736L124.645 153.408L156.753 86.736ZM167.744 134.891L225.599 181.029L167.744 134.891ZM169.675 126.431L241.819 109.965L169.675 126.431ZM146.697 161.283L204.552 207.422L146.697 161.283ZM97.3032 161.283L155.159 115.145L97.3032 161.283ZM74.3252 126.431L2.18054 109.964L74.3252 126.431ZM76.2562 134.891L18.4006 181.029L76.2562 134.891ZM87.2473 86.736L55.1399 20.0643L87.2473 86.736ZM81.8368 93.5205L153.981 109.987L81.8368 93.5205ZM117.661 72.0895L149.769 138.761L117.661 72.0895ZM126.339 72.0895L158.446 5.41778L126.339 72.0895ZM234.308 77.054L234.517 77.9682L90.2272 110.901L90.0185 109.987L234.308 77.054ZM235.351 81.6249L235.768 83.4532L91.4791 116.386L91.0618 114.558L235.351 81.6249ZM236.603 87.11L237.02 88.9383L92.731 121.871L92.3137 120.043L236.603 87.11ZM237.855 92.5951L238.272 94.4234L93.983 127.357L93.5657 125.528L237.855 92.5951ZM239.107 98.0802L239.524 99.9085L95.2349 132.842L94.8176 131.013L239.107 98.0802ZM240.359 103.565L240.776 105.394L96.4868 138.327L96.0695 136.498L240.359 103.565ZM241.611 109.05L241.819 109.965L97.5301 142.898L97.3215 141.983L241.611 109.05ZM241.819 109.965C242.757 114.073 243.379 118.223 243.691 122.377L96.1047 133.441C96.3421 136.607 96.816 139.769 97.5301 142.898L241.819 109.965ZM232.671 170.658C230.588 174.266 228.227 177.735 225.599 181.029L109.888 88.7529C107.887 91.2619 106.089 93.9047 104.501 96.6543L232.671 170.658ZM225.599 181.029L225.015 181.763L109.304 89.486L109.888 88.7529L225.599 181.029ZM222.676 184.695L221.507 186.161L105.796 93.8847L106.965 92.4185L222.676 184.695ZM219.168 189.094L217.999 190.56L102.288 98.2834L103.457 96.8172L219.168 189.094ZM215.66 193.492L214.491 194.959L98.7801 102.682L99.9494 101.216L215.66 193.492ZM212.153 197.891L210.983 199.357L95.2723 107.081L96.4415 105.615L212.153 197.891ZM208.645 202.29L207.475 203.756L91.7644 111.48L92.9337 110.013L208.645 202.29ZM205.137 206.688L204.552 207.422L88.8412 115.145L89.4259 114.412L205.137 206.688ZM204.552 207.422C201.925 210.716 199.068 213.79 196.015 216.623L95.3457 108.135C93.0183 110.294 90.8421 112.636 88.8412 115.145L204.552 207.422ZM151.396 238.111C147.277 238.731 143.093 239.048 138.878 239.048L138.878 91.0485C135.669 91.0485 132.482 91.2899 129.342 91.763L151.396 238.111ZM138.878 239.048L137.941 239.048L137.941 91.0485L138.878 91.0485L138.878 239.048ZM134.19 239.048L132.315 239.048L132.315 91.0485L134.19 91.0485L134.19 239.048ZM128.564 239.048L126.688 239.048L126.688 91.0485L128.564 91.0485L128.564 239.048ZM122.938 239.048L121.062 239.048L121.062 91.0485L122.938 91.0485L122.938 239.048ZM117.312 239.048L115.436 239.048L115.436 91.0485L117.312 91.0485L117.312 239.048ZM111.685 239.048L109.81 239.048L109.81 91.0485L111.685 91.0485L111.685 239.048ZM106.059 239.048L105.122 239.048L105.122 91.0485L106.059 91.0485L106.059 239.048ZM105.122 239.048C100.907 239.048 96.7235 238.731 92.6042 238.111L114.658 91.763C111.518 91.2899 108.331 91.0485 105.122 91.0485L105.122 239.048ZM47.9854 216.623C44.9317 213.79 42.0753 210.716 39.4477 207.422L155.159 115.145C153.158 112.636 150.982 110.294 148.654 108.135L47.9854 216.623ZM39.4477 207.422L38.8631 206.688L154.574 114.412L155.159 115.145L39.4477 207.422ZM36.5245 203.756L35.3552 202.29L151.066 110.013L152.236 111.48L36.5245 203.756ZM33.0167 199.357L31.8474 197.891L147.558 105.615L148.728 107.081L33.0167 199.357ZM29.5088 194.959L28.3395 193.492L144.051 101.216L145.22 102.682L29.5088 194.959ZM26.001 190.56L24.8317 189.094L140.543 96.8172L141.712 98.2834L26.001 190.56ZM22.4931 186.161L21.3238 184.695L137.035 92.4185L138.204 93.8847L22.4931 186.161ZM18.9853 181.763L18.4006 181.029L134.112 88.7529L134.696 89.486L18.9853 181.763ZM18.4006 181.029C15.7731 177.735 13.4124 174.266 11.3294 170.658L139.499 96.6543C137.911 93.9047 136.113 91.2619 134.112 88.7529L18.4006 181.029ZM0.309428 122.377C0.620876 118.223 1.24276 114.073 2.18054 109.964L146.47 142.898C147.184 139.769 147.658 136.607 147.895 133.441L0.309428 122.377ZM2.18054 109.964L2.38919 109.05L146.679 141.983L146.47 142.898L2.18054 109.964ZM3.22381 105.394L3.64113 103.565L147.93 136.498L147.513 138.327L3.22381 105.394ZM4.47575 99.9085L4.89306 98.0801L149.182 131.013L148.765 132.842L4.47575 99.9085ZM5.72769 94.4234L6.145 92.595L150.434 125.528L150.017 127.357L5.72769 94.4234ZM6.97963 88.9383L7.39694 87.11L151.686 120.043L151.269 121.871L6.97963 88.9383ZM8.23157 83.4532L8.64888 81.6249L152.938 114.558L152.521 116.386L8.23157 83.4532ZM9.4835 77.9681L9.69215 77.054L153.981 109.987L153.773 110.901L9.4835 77.9681ZM9.69215 77.054C10.6299 72.9453 11.87 68.937 13.3918 65.0591L151.163 119.125C152.323 116.17 153.267 113.116 153.981 109.987L9.69215 77.054ZM44.269 26.3404C47.711 23.9938 51.3429 21.8928 55.1399 20.0643L119.355 153.408C122.246 152.015 125.013 150.415 127.637 148.626L44.269 26.3404ZM55.1399 20.0643L55.9847 19.6575L120.199 153.001L119.355 153.408L55.1399 20.0643ZM59.364 18.0301L61.0537 17.2164L125.268 150.56L123.579 151.373L59.364 18.0301ZM64.433 15.589L66.1227 14.7753L130.337 148.119L128.648 148.932L64.433 15.589ZM69.502 13.1479L71.1916 12.3342L135.406 145.678L133.717 146.491L69.502 13.1479ZM74.571 10.7068L76.2606 9.89311L140.475 143.237L138.786 144.05L74.571 10.7068ZM79.64 8.26572L81.3296 7.45202L145.544 140.795L143.855 141.609L79.64 8.26572ZM84.7089 5.82462L85.5538 5.41777L149.769 138.761L148.924 139.168L84.7089 5.82462ZM85.5538 5.41777C89.3507 3.58926 93.2577 2.05962 97.2384 0.831605L140.867 142.255C143.9 141.319 146.877 140.154 149.769 138.761L85.5538 5.41777ZM146.762 0.831602C150.742 2.05962 154.649 3.58926 158.446 5.41778L94.2314 138.761C97.1228 140.154 100.1 141.319 103.133 142.255L146.762 0.831602ZM158.446 5.41778L159.291 5.82462L95.0763 139.168L94.2314 138.761L158.446 5.41778ZM162.67 7.45202L164.36 8.26572L100.145 141.609L98.4556 140.795L162.67 7.45202ZM167.739 9.89312L169.429 10.7068L105.214 144.05L103.525 143.236L167.739 9.89312ZM172.808 12.3342L174.498 13.1479L110.283 146.491L108.594 145.678L172.808 12.3342ZM177.877 14.7753L179.567 15.589L115.352 148.932L113.663 148.119L177.877 14.7753ZM182.946 17.2164L184.636 18.0301L120.421 151.373L118.732 150.56L182.946 17.2164ZM188.015 19.6575L188.86 20.0643L124.645 153.408L123.8 153.001L188.015 19.6575ZM188.86 20.0643C192.657 21.8929 196.289 23.9938 199.731 26.3404L116.363 148.626C118.987 150.415 121.754 152.015 124.645 153.408L188.86 20.0643ZM230.608 65.0591C232.13 68.937 233.37 72.9453 234.308 77.054L90.0185 109.987C90.7326 113.116 91.6773 116.17 92.8372 119.125L230.608 65.0591Z" fill="white" mask="url(#path-1-outside-1_1_95)"/>
</svg>
