<svg width="244" height="243" viewBox="0 0 244 243" fill="none" xmlns="http://www.w3.org/2000/svg">
<path d="M143.343 42.2113L142.393 41.7536L126.339 75.0895L142.393 41.7536C140.802 40.9876 139.177 40.3153 137.525 39.7373L125.303 74.6603C124.592 74.4114 123.859 74.2453 123.12 74.162L127.26 37.3944C123.765 37.0007 120.235 37.0007 116.74 37.3944L120.88 74.162C120.141 74.2453 119.408 74.4114 118.697 74.6603L106.475 39.7373C104.823 40.3153 103.198 40.9876 101.607 41.7536L100.657 42.2113L116.711 75.5472L114.81 76.4626L98.7562 43.1267L96.8553 44.0421L112.909 77.378L111.008 78.2934L94.9544 44.9576L93.0536 45.873L109.107 79.2088L107.206 80.1242L91.1527 46.7884L89.2518 47.7038L105.306 81.0396L103.405 81.955L87.3509 48.6192L85.4501 49.5346L101.504 82.8705L99.6029 83.7859L83.5492 50.45L81.6483 51.3654L97.702 84.7013L95.8012 85.6167L79.7475 52.2808L77.8466 53.1962L93.9003 86.5321L91.9994 87.4475L75.9457 54.1117L74.0449 55.0271L90.0986 88.3629L88.1977 89.2783L72.144 55.9425L71.1936 56.4002L87.2473 89.736L71.1935 56.4002C69.6029 57.1662 68.064 58.0177 66.5825 58.9484L86.2657 90.2784C85.6278 90.6792 85.0412 91.1483 84.515 91.6746L58.3506 65.5131C55.8632 68.0008 53.6629 70.7599 51.7911 73.7385L83.1188 93.4254C82.7228 94.0555 82.396 94.7318 82.1472 95.4429L47.2227 83.2248C46.645 84.8762 46.1573 86.5661 45.7645 88.2872L45.5298 89.3157L81.6021 97.549L81.1326 99.6059L45.0603 91.3726L44.5908 93.4295L80.6631 101.663L80.1937 103.72L44.1213 95.4864L43.6518 97.5433L79.7242 105.777L79.2547 107.834L43.1824 99.6002L42.7129 101.657L78.7852 109.89L78.3157 111.947L42.2434 103.714L41.7739 105.771L77.8463 114.004L77.3768 116.061L41.3045 107.828L40.835 109.885L76.9073 118.118L76.4378 120.175L40.3655 111.942L39.896 113.999L75.9684 122.232L75.4989 124.289L39.4266 116.055L38.9571 118.112L75.0294 126.346L74.5599 128.403L38.4876 120.169L38.2529 121.198C37.86 122.919 37.5662 124.653 37.3702 126.392L74.1373 130.537C74.0529 131.285 74.0539 132.036 74.1373 132.776L37.3702 136.921C37.7643 140.416 38.5496 143.857 39.7113 147.178L74.6356 134.959C74.8814 135.662 75.2063 136.339 75.6072 136.977L44.2796 156.664C45.2106 158.145 46.2277 159.58 47.3284 160.96L143.343 42.2113ZM143.343 42.2113L127.289 75.5472L129.19 76.4626L145.244 43.1267L147.145 44.0421L131.091 77.378L132.992 78.2934L149.046 44.9576L150.946 45.873L134.893 79.2088L136.794 80.1242L152.847 46.7884L154.748 47.7038L138.694 81.0396L140.595 81.955L156.649 48.6192L158.55 49.5346L142.496 82.8705L144.397 83.7859L160.451 50.45L162.352 51.3654L146.298 84.7013L148.199 85.6167L164.253 52.2808L166.153 53.1963L150.1 86.5321L152.001 87.4475L168.054 54.1117L169.955 55.0271L153.901 88.3629L155.802 89.2783L171.856 55.9425L172.806 56.4002C174.397 57.1662 175.936 58.0177 177.417 58.9484L157.734 90.2784C158.372 90.6792 158.959 91.1483 159.485 91.6746L185.649 65.5131C188.137 68.0007 190.337 70.7599 192.209 73.7385L160.881 93.4254C161.277 94.0555 161.604 94.7318 161.853 95.4429L196.777 83.2248C197.355 84.8762 197.843 86.5661 198.236 88.2872L198.47 89.3157L162.398 97.549L162.867 99.6059L198.94 91.3726L199.409 93.4295L163.337 101.663L163.806 103.72L199.879 95.4864L200.348 97.5433L164.276 105.777L164.745 107.834L200.818 99.6002L201.287 101.657L165.215 109.89L165.684 111.947L201.757 103.714L202.226 105.771L166.154 114.004L166.623 116.061L202.696 107.828L203.165 109.885L167.093 118.118L167.562 120.175L203.634 111.942L204.104 113.999L168.032 122.232L168.501 124.289L204.573 116.056L205.043 118.112L168.971 126.346L169.44 128.403L205.512 120.169L205.747 121.198C206.14 122.919 206.434 124.653 206.63 126.392L169.863 130.537C169.947 131.285 169.946 132.036 169.863 132.776L206.63 136.921C206.236 140.416 205.45 143.857 204.289 147.177L169.364 134.959C169.119 135.662 168.794 136.339 168.393 136.977L199.72 156.664C198.789 158.145 197.772 159.58 196.672 160.96L196.014 161.785L167.086 138.716L165.771 140.365L194.698 163.435L193.383 165.084L164.455 142.015L163.14 143.664L192.068 166.734L190.752 168.383L161.824 145.314L160.509 146.963L189.437 170.033L188.121 171.682L159.193 148.613L157.878 150.263L186.806 173.332L185.49 174.981L156.563 151.912L155.247 153.562L184.175 176.631L182.859 178.28L153.932 155.211L152.616 156.861L181.544 179.93L180.229 181.579L151.301 158.51L149.985 160.16L178.913 183.229L177.598 184.878L148.67 161.809L147.354 163.459L176.282 186.528L175.625 187.352L146.863 164.416L175.624 187.353C174.524 188.733 173.351 190.044 172.114 191.281L145.95 165.12C145.417 165.652 144.829 166.12 144.199 166.516L163.882 197.846C160.903 199.717 157.724 201.248 154.403 202.41L142.181 167.487C141.479 167.733 140.747 167.901 139.998 167.986L144.138 204.753C142.4 204.949 140.644 205.048 138.878 205.048L137.824 205.048L137.824 168.048L135.714 168.048L135.714 205.048L133.604 205.048L133.604 168.048L131.494 168.048L131.494 205.048L129.384 205.048L129.384 168.048L127.275 168.048L127.275 205.048L125.165 205.048L125.165 168.048L123.055 168.048L123.055 205.048L120.945 205.048L120.945 168.048L118.835 168.048L118.835 205.048L116.725 205.048L116.725 168.048L114.616 168.048L114.616 205.048L112.506 205.048L112.506 168.048L110.396 168.048L110.396 205.048L108.286 205.048L108.286 168.048L106.176 168.048L106.176 205.048L105.122 205.048C103.356 205.048 101.6 204.949 99.8615 204.753L104.002 167.986C103.253 167.901 102.521 167.733 101.819 167.487L89.5965 202.41C86.2761 201.248 83.0965 199.717 80.1177 197.846L99.8012 166.516C99.171 166.12 98.5832 165.652 98.0505 165.12L71.8858 191.281C70.6488 190.044 69.4762 188.733 68.3755 187.352C68.3755 187.352 68.3755 187.352 68.3754 187.352L67.7178 186.528L96.6455 163.459L95.3301 161.809L66.4023 184.878L65.0869 183.229L94.0146 160.16L92.6992 158.51L63.7714 181.579L62.456 179.93L91.3838 156.861L90.0683 155.211L61.1405 178.28L59.8251 176.631L88.7529 153.562L87.4374 151.912L58.5097 174.981L57.1942 173.332L86.122 150.262L84.8065 148.613L55.8788 171.682L54.5633 170.033L83.4911 146.963L82.1757 145.314L53.2479 168.383L51.9324 166.734L80.8602 143.664L79.5448 142.015L50.617 165.084L49.3016 163.435L78.2293 140.365L76.9139 138.716L47.9861 161.785L47.3284 160.96L143.343 42.2113Z" stroke="white" stroke-width="74" stroke-dasharray="2 2"/>
</svg>
