<svg width="98" height="96" viewBox="0 0 98 96" fill="none" xmlns="http://www.w3.org/2000/svg">
<path d="M51.6653 1.28355L49.8884 0.427849L49.5472 1.13636L50.6417 3.40909L51.6653 1.28355ZM50.0945 4.54546L49 2.27273L47.9055 4.54546L49 6.81818L50.0945 4.54546ZM47.9055 9.09091L46.811 6.81819L45.7165 9.09091L46.811 11.3636L47.9055 9.09091ZM45.7165 13.6364L44.622 11.3636L43.5276 13.6364L44.622 15.9091L45.7165 13.6364ZM43.5276 18.1818L42.4331 15.9091L41.3386 18.1818L42.4331 20.4545L43.5276 18.1818ZM41.3386 22.7273L40.2441 20.4545L39.1496 22.7273L40.2441 25L41.3386 22.7273ZM38.1903 25.2807L38.0551 25L37.9467 25.2251L38.1903 25.2807ZM38.7375 26.417L37.5079 26.1364L36.9606 27.2727L37.3727 28.1284L38.6024 28.4091L39.1496 27.2727L38.7375 26.417ZM41.4523 27.0367L41.3386 27.2727L42.2913 29.2511L42.5468 29.3094L43.4245 27.4868L41.4523 27.0367ZM44.622 29.5455L44.519 29.7595L44.7506 29.8124L44.622 29.5455ZM45.7165 31.8182L45.1588 30.66L44.8836 31.8657L43.6412 31.5821L43.5276 31.8182L44.622 34.0909L45.7165 31.8182ZM46.811 34.0909L45.7165 36.3636L46.811 38.6364L47.9055 36.3636L46.811 34.0909ZM48.0499 40.6093L47.674 40.4283L48.1732 41.465L46.3964 42.3207L44.622 38.6364L44.4961 38.8979L43.3991 38.3697L43.1282 39.5567L42.8452 39.4921L44.6195 43.1765L42.8426 44.0322L42.3433 42.9954L42.2505 43.4022L40.1156 42.9149L41.0657 44.8879L40.6898 45.0689L41.8116 45.3249L41.3728 47.2477L37.3859 46.3377L37.5119 46.5993L36.4149 47.1275L37.1741 48.0795L36.9471 48.2605L40.9339 49.1704L40.4951 51.0932L39.3732 50.8371L39.6334 51.1633L37.9213 52.5287L40.0562 53.0159L39.9634 53.4227L40.863 52.7052L42.0926 54.2472L38.8955 56.7968L39.1785 56.8614L38.9076 58.0485L40.1251 58.0485L40.1251 58.3388L43.3223 55.7891L44.5519 57.331L43.6523 58.0485L44.0695 58.0485L44.0695 60.2383L45.7816 58.873L46.0417 59.1991L46.0417 58.0485L48.0139 58.0485L48.0139 62.1378L48.2409 61.9568L49 62.9087L49.7591 61.9568L49.9861 62.1378L49.9861 58.0485L51.9583 58.0485L51.9583 59.1991L52.2184 58.873L53.9305 60.2383L53.9305 58.0485L54.3477 58.0485L53.4481 57.331L54.6777 55.7891L57.8749 58.3388L57.8749 58.0485L59.0924 58.0485L58.8215 56.8614L59.1045 56.7968L55.9073 54.2472L57.137 52.7052L58.0366 53.4227L57.9438 53.0159L60.0787 52.5287L58.3666 51.1633L58.6268 50.8371L57.5049 51.0932L57.0661 49.1704L61.0529 48.2605L60.8259 48.0795L61.5851 47.1275L60.4881 46.5993L60.614 46.3377L56.6272 47.2477L56.1884 45.3249L57.3102 45.0689L56.9343 44.8879L57.8844 42.9149L55.7495 43.4022L55.6567 42.9954L55.1574 44.0322L53.3805 43.1765L55.1548 39.4921L54.8718 39.5567L54.6009 38.3697L53.5039 38.8979L53.3779 38.6364L51.6036 42.3207L49.8267 41.465L50.326 40.4283L49.9501 40.6093L49 38.6364L48.0499 40.6093ZM41.7507 37.2194L42.9803 37.5L43.5276 36.3636L43.1155 35.5079L41.8858 35.2273L41.3386 36.3636L41.7507 37.2194ZM39.5617 32.6739L40.7913 32.9546L41.3386 31.8182L40.9265 30.9625L39.6968 30.6818L39.1496 31.8182L39.5617 32.6739ZM39.2914 36.658L38.1969 34.3853L37.9414 34.327L37.3885 35.4751L36.2743 34.9385L36.8321 36.0967L39.2914 36.658ZM35.8661 34.0909L35.9692 33.8769L35.7376 33.824L35.8661 34.0909ZM34.3728 35.5354L33.4244 33.5661L32.9463 33.3358L33.0109 33.2016L30.819 32.7014L31.9135 34.9741L34.3728 35.5354ZM29.7245 30.4286L32.1838 30.9899L31.0893 28.7172L28.63 28.1559L29.7245 30.4286ZM27.5356 25.8832L29.9948 26.4445L28.9004 24.1718L26.4411 23.6104L27.5356 25.8832ZM25.8938 22.4741L28.3531 23.0354L23.2351 12.4077L21.4582 13.2634L25.8938 22.4741ZM26.7889 10.6963L25.012 11.552L30.8124 23.5967L33.2717 24.158L26.7889 10.6963ZM36.5218 25.9113L36.2782 25.8557L36.4134 26.1364L36.5218 25.9113ZM28.5658 9.84061L35.731 24.7193L36.9606 25L37.5079 23.8636L30.3427 8.9849L28.5658 9.84061ZM33.8964 7.27349L32.1195 8.1292L38.6024 21.5909L39.6968 19.3182L33.8964 7.27349ZM37.4502 5.56208L35.6733 6.41779L40.7913 17.0455L41.8858 14.7727L37.4502 5.56208ZM41.004 3.85067L39.2271 4.70638L42.9803 12.5L44.0748 10.2273L41.004 3.85067ZM44.5578 2.13926L42.7809 2.99497L45.1693 7.95455L46.2638 5.68182L44.5578 2.13926ZM48.1115 0.427851L46.3347 1.28356L47.3583 3.40909L48.4528 1.13637L48.1115 0.427851ZM34.9134 27.5671L33.8189 25.2944L31.3596 24.7331L32.4541 27.0058L34.9134 27.5671ZM23.4345 21.9128L19.6813 14.1191L17.9044 14.9748L20.9752 21.3514L23.4345 21.9128ZM18.5159 20.7901L16.1275 15.8305L14.3506 16.6862L16.0567 20.2288L18.5159 20.7901ZM13.5974 19.6675L12.5738 17.5419L10.7969 18.3977L11.1381 19.1062L13.5974 19.6675ZM9.68899 19.7869L9.25014 21.7096L11.5502 22.2346L10.4557 19.9619L9.68899 19.7869ZM14.1446 20.8039L11.6853 20.2425L12.7798 22.5153L15.2391 23.0766L14.1446 20.8039ZM16.3336 25.3493L13.8743 24.788L14.9688 27.0607L17.4281 27.622L16.3336 25.3493ZM18.5226 29.8948L16.0633 29.3334L17.1578 31.6062L19.617 32.1675L18.5226 29.8948ZM20.7115 34.4402L18.2522 33.8789L19.3467 36.1516L21.806 36.7129L20.7115 34.4402ZM22.9005 38.9857L20.4412 38.4244L21.5357 40.6971L23.995 41.2584L22.9005 38.9857ZM22.9339 43.0391L22.6302 42.9698L22.7386 43.1949L22.9339 43.0391ZM24.1635 43.3198L23.1774 44.1062L23.7247 45.2425L24.6506 45.4539L25.6367 44.6675L25.0895 43.5311L24.1635 43.3198ZM26.3406 41.5836L26.4543 41.8197L28.595 42.3083L28.7999 42.145L27.9222 40.3224L26.3406 41.5836ZM30.2784 40.6696L30.3815 40.8837L30.5672 40.7356L30.2784 40.6696ZM32.7377 41.2309L31.4844 40.9449L32.2555 41.9118L31.2592 42.7063L31.3729 42.9424L33.8322 43.5037L32.7377 41.2309ZM35.4739 46.9128L34.9267 45.7764L34.0007 45.5651L33.0146 46.3514L33.5619 47.4878L34.4878 47.6992L35.4739 46.9128ZM29.5692 46.5765L30.5553 45.7901L30.0081 44.6538L29.0821 44.4424L28.096 45.2288L28.6433 46.3652L29.5692 46.5765ZM32.5156 49.2719L30.0563 48.7106L29.8514 48.874L30.4043 50.0221L29.2902 50.5587L30.5434 50.8447L32.5156 49.2719ZM28.3729 50.3493L28.2699 50.1353L28.0841 50.2834L28.3729 50.3493ZM28.5712 52.4175L26.4402 51.9311L25.9621 52.1614L25.8975 52.0272L24.1397 53.4289L26.599 53.9903L28.5712 52.4175ZM21.6804 52.8676L23.6526 51.2948L21.1933 50.7335L19.2211 52.3063L21.6804 52.8676ZM16.7618 51.745L18.734 50.1722L16.2747 49.6109L14.3025 51.1837L16.7618 51.745ZM13.0729 50.903L15.0451 49.3302L3.54502 46.7054L3.10616 48.6282L13.0729 50.903ZM4.42273 42.8599L3.98387 44.7827L17.0173 47.7575L18.9895 46.1847L4.42273 42.8599ZM22.3866 44.7368L22.1913 44.8926L22.495 44.9619L22.3866 44.7368ZM4.86158 40.9372L20.9617 44.6119L21.9478 43.8255L21.4005 42.6892L5.30043 39.0144L4.86158 40.9372ZM6.17815 35.1689L5.73929 37.0917L20.3061 40.4164L19.2116 38.1437L6.17815 35.1689ZM7.05586 31.3234L6.617 33.2462L18.1171 35.871L17.0226 33.5982L7.05586 31.3234ZM7.93357 27.4779L7.49472 29.4006L15.9281 31.3255L14.8336 29.0528L7.93357 27.4779ZM8.81128 23.6324L8.37243 25.5551L13.7391 26.7801L12.6447 24.5073L8.81128 23.6324ZM22.6784 47.0267L20.2191 46.4653L18.2469 48.0381L20.7062 48.5994L22.6784 47.0267ZM11.1007 52.4758L2.6673 50.5509L2.22845 52.4737L9.12849 54.0486L11.1007 52.4758ZM7.15629 55.6213L1.78959 54.3964L1.35073 56.3192L5.18409 57.1941L7.15629 55.6213ZM3.21189 58.7669L0.911883 58.2419L0.473025 60.1647L1.2397 60.3397L3.21189 58.7669ZM0.868426 61.897L2.09807 63.4389L3.94255 61.968L1.48325 61.4067L0.868426 61.897ZM4.44155 59.0475L2.46935 60.6203L4.92864 61.1816L6.90084 59.6089L4.44155 59.0475ZM9.36013 60.1702L7.38793 61.743L9.84722 62.3043L11.8194 60.7315L9.36013 60.1702ZM14.2787 61.2928L12.3065 62.8656L14.7658 63.4269L16.738 61.8541L14.2787 61.2928ZM19.1973 62.4155L17.2251 63.9882L19.6844 64.5495L21.6566 62.9768L19.1973 62.4155ZM24.1159 63.5381L22.1437 65.1109L24.603 65.6722L26.5752 64.0994L24.1159 63.5381ZM27.3058 66.0393L27.0623 66.2335L27.3058 66.2891L27.3058 66.0393ZM27.3058 67.3005L26.0762 67.0199L13.1649 77.3163L14.3945 78.8582L27.3058 68.5618L27.3058 67.3005ZM28.2919 65.2529L28.2919 66.5142L29.5216 66.7948L30.2641 66.2026L30.2641 64.9414L29.0345 64.6607L28.2919 65.2529ZM32.2363 63.3686L33.466 63.6493L34.2085 63.0571L34.2085 61.7958L32.9789 61.5152L32.2363 62.1073L32.2363 63.3686ZM28.2919 62.4683L28.5474 62.5266L30.2641 61.1576L30.2641 60.8955L28.2919 60.4454L28.2919 62.4683ZM30.0325 58.8198L30.2641 58.8726L30.2641 58.635L30.0325 58.8198ZM32.0047 57.247L30.9997 58.0485L32.2363 58.0485L32.2363 59.3228L32.4918 59.3811L34.464 57.8083L32.0047 57.247ZM38.1529 58.6503L36.9233 58.3696L36.1807 58.9618L36.1807 60.2231L37.4103 60.5037L38.1529 59.9115L38.1529 58.6503ZM42.0973 59.2885L40.1251 60.8613L40.1251 63.3838L42.0973 61.8111L42.0973 59.2885ZM42.0973 64.3336L40.1251 65.9064L40.1251 68.4289L42.0973 66.8561L42.0973 64.3336ZM42.0973 69.3787L40.1251 70.9515L40.1251 73.474L41.8829 72.0722L41.7664 71.9793L42.0973 71.5644L42.0973 69.3787ZM42.0973 74.4237L40.1251 75.9965L40.1251 78.5191L42.0973 76.9463L42.0973 74.4237ZM42.0973 79.4688L40.1251 81.0416L40.1251 83.5641L42.0973 81.9914L42.0973 79.4688ZM42.0973 83.2526L40.1251 84.8254L40.1251 95.0485L42.0973 95.0485L42.0973 83.2526ZM38.1529 95.0485L38.1529 86.3982L36.1807 87.971L36.1807 95.0485L38.1529 95.0485ZM32.2363 95.0485L34.2085 95.0485L34.2085 89.5437L32.2363 91.1165L32.2363 95.0485ZM32.2363 89.8552L34.2085 88.2825L34.2085 85.7599L32.2363 87.3327L32.2363 89.8552ZM38.1529 82.6144L36.1807 84.1872L36.1807 86.7097L38.1529 85.1369L38.1529 82.6144ZM36.1807 81.6646L38.1529 80.0918L38.1529 77.5693L36.1807 79.1421L36.1807 81.6646ZM32.2363 84.8102L34.2085 83.2374L34.2085 80.7149L32.2363 82.2876L32.2363 84.8102ZM32.2363 79.7651L34.2085 78.1923L34.2085 75.6698L32.2363 77.2426L32.2363 79.7651ZM38.1529 72.5242L36.1807 74.097L36.1807 76.6195L38.1529 75.0468L38.1529 72.5242ZM36.1807 71.5745L38.1529 70.0017L38.1529 67.4792L36.444 68.842L36.3259 69.3593L36.1807 69.3262L36.1807 71.5745ZM32.2363 74.72L34.2085 73.1472L34.2085 70.6247L32.2363 72.1975L32.2363 74.72ZM32.2363 69.6749L33.454 68.7038L32.2363 68.4259L32.2363 69.6749ZM32.2363 67.1524L32.2363 67.4144L34.2085 67.8646L34.2085 65.8417L33.953 65.7834L32.2363 67.1524ZM36.1807 66.2918L36.1807 66.5294L36.4123 66.3447L36.1807 66.2918ZM37.4231 64.5524L37.1479 65.7581L38.1529 64.9566L38.1529 62.4341L36.1807 64.0069L36.1807 64.2689L37.4231 64.5524ZM30.2641 76.2928L30.2641 73.7703L28.2919 75.343L28.2919 77.8656L30.2641 76.2928ZM28.2919 72.8205L30.2641 71.2477L30.2641 68.7252L28.2919 70.298L28.2919 72.8205ZM27.3058 78.652L27.3058 76.1294L18.0835 83.484L19.3131 85.0259L27.3058 78.652ZM15.6242 80.4001L16.8538 81.9421L27.3058 73.6069L27.3058 71.0843L15.6242 80.4001ZM27.3058 81.1745L20.5428 86.5679L21.7724 88.1098L27.3058 83.697L27.3058 81.1745ZM27.3058 86.2196L23.002 89.6517L24.2317 91.1936L27.3058 88.7421L27.3058 86.2196ZM27.3058 91.2646L25.4613 92.7356L26.691 94.2775L27.3058 93.7872L27.3058 91.2646ZM28.2919 94.2621L28.2919 95.0485L30.2641 95.0485L30.2641 92.6893L28.2919 94.2621ZM28.2919 93.0008L30.2641 91.428L30.2641 88.9055L28.2919 90.4783L28.2919 93.0008ZM28.2919 87.9557L30.2641 86.383L30.2641 83.8604L28.2919 85.4332L28.2919 87.9557ZM28.2919 82.9106L30.2641 81.3379L30.2641 78.8153L28.2919 80.3881L28.2919 82.9106ZM28.2919 67.7754L28.5354 67.5812L28.2919 67.5256L28.2919 67.7754ZM44.0695 81.6799L44.0695 95.0485L46.0417 95.0485L46.0417 80.1071L44.0695 81.6799ZM48.0139 78.5343L48.0139 95.0485L49.9861 95.0485L49.9861 78.5343L49 77.7479L48.0139 78.5343ZM51.9583 80.1071L51.9583 95.0485L53.9305 95.0485L53.9305 81.6799L51.9583 80.1071ZM55.9027 83.2526L55.9027 95.0485L57.8749 95.0485L57.8749 84.8254L55.9027 83.2526ZM59.8471 86.3982L59.8471 95.0485L61.8193 95.0485L61.8193 87.971L59.8471 86.3982ZM63.7915 89.5437L63.7915 95.0485L65.7637 95.0485L65.7637 91.1165L63.7915 89.5437ZM67.7359 92.6893L67.7359 95.0485L69.7081 95.0485L69.7081 94.2621L67.7359 92.6893ZM71.309 94.2775L72.5387 92.7356L70.6942 91.2646L70.6942 93.7872L71.309 94.2775ZM67.7359 91.428L69.7081 93.0008L69.7081 90.4783L67.7359 88.9055L67.7359 91.428ZM67.7359 86.3829L69.7081 87.9557L69.7081 85.4332L67.7359 83.8604L67.7359 86.3829ZM67.7359 81.3379L69.7081 82.9106L69.7081 80.3881L67.7359 78.8153L67.7359 81.3379ZM67.7359 76.2928L69.7081 77.8656L69.7081 75.343L67.7359 73.7703L67.7359 76.2928ZM67.7359 71.2477L69.7081 72.8205L69.7081 70.298L67.7359 68.7252L67.7359 71.2477ZM69.4645 67.5812L69.7081 67.7754L69.7081 67.5256L69.4645 67.5812ZM68.4784 66.7948L69.7081 66.5141L69.7081 65.2529L68.9655 64.6607L67.7359 64.9414L67.7359 66.2026L68.4784 66.7948ZM65.7637 67.1524L64.0469 65.7834L63.7915 65.8417L63.7915 67.8646L65.7637 67.4144L65.7637 67.1524ZM61.8193 66.5294L61.8193 66.2918L61.5876 66.3447L61.8193 66.5294ZM59.8471 64.9566L60.8521 65.7581L60.5769 64.5524L61.8193 64.2689L61.8193 64.0069L59.8471 62.4341L59.8471 64.9566ZM59.8471 58.6503L59.8471 59.9115L60.5896 60.5037L61.8193 60.223L61.8193 58.9618L61.0767 58.3696L59.8471 58.6503ZM63.536 57.8083L65.5082 59.3811L65.7637 59.3228L65.7637 58.0485L67.0003 58.0485L65.9953 57.247L63.536 57.8083ZM67.7359 58.635L67.7359 58.8726L67.9675 58.8198L67.7359 58.635ZM68.4546 56.6857L70.1635 58.0485L70.6942 58.0485L70.6942 58.1974L72.8861 57.6971L70.9139 56.1243L68.4546 56.6857ZM74.8583 59.2699L72.399 59.8312L74.3712 61.404L76.8305 60.8427L74.8583 59.2699ZM78.8027 62.4154L76.3434 62.9768L78.3156 64.5495L80.7749 63.9882L78.8027 62.4154ZM81.761 64.7746L79.3017 65.3359L88.524 72.6905L89.7537 71.1486L81.761 64.7746ZM86.0648 75.7744L87.2944 74.2324L76.8424 65.8973L74.3831 66.4586L86.0648 75.7744ZM71.4248 64.0994L73.397 65.6722L75.8563 65.1109L73.8841 63.5381L71.4248 64.0994ZM70.6942 66.2891L70.9377 66.2335L70.6942 66.0393L70.6942 66.2891ZM84.8351 77.3163L71.9238 67.0199L70.6942 67.3005L70.6942 68.5618L83.6055 78.8582L84.8351 77.3163ZM81.1462 81.9421L82.3758 80.4001L70.6942 71.0843L70.6942 73.6069L81.1462 81.9421ZM78.6869 85.0259L79.9165 83.484L70.6942 76.1294L70.6942 78.652L78.6869 85.0259ZM76.2276 88.1098L77.4572 86.5679L70.6942 81.1745L70.6942 83.697L76.2276 88.1098ZM73.7683 91.1936L74.9979 89.6517L70.6942 86.2196L70.6942 88.7421L73.7683 91.1936ZM84.2203 64.2133L90.9833 69.6067L92.213 68.0647L86.6796 63.652L84.2203 64.2133ZM89.1389 63.0907L93.4426 66.5228L94.6723 64.9809L91.5982 62.5293L89.1389 63.0907ZM94.0574 61.968L95.9019 63.439L97.1316 61.897L96.5167 61.4067L94.0574 61.968ZM97.527 60.1647L97.0881 58.2419L94.7881 58.7669L96.7603 60.3397L97.527 60.1647ZM93.0713 61.1816L95.5306 60.6203L93.5584 59.0475L91.0991 59.6089L93.0713 61.1816ZM89.1269 58.0361L91.5862 57.4748L89.614 55.902L87.1547 56.4633L89.1269 58.0361ZM85.1826 54.8905L87.6418 54.3292L85.6696 52.7564L83.2104 53.3178L85.1826 54.8905ZM81.2382 51.745L83.6974 51.1837L81.7252 49.6109L79.266 50.1722L81.2382 51.745ZM77.2938 48.5994L79.753 48.0381L77.7808 46.4653L75.3216 47.0267L77.2938 48.5994ZM75.505 44.9619L75.8086 44.8926L75.6133 44.7368L75.505 44.9619ZM74.2753 45.2425L74.8225 44.1062L73.8365 43.3198L72.9105 43.5311L72.3633 44.6675L73.3494 45.4539L74.2753 45.2425ZM73.0671 47.7513L72.8623 47.588L70.7215 48.0766L70.6078 48.3127L72.1894 49.5739L73.0671 47.7513ZM69.9159 50.2834L69.7301 50.1352L69.627 50.3493L69.9159 50.2834ZM67.4566 50.8447L68.7098 50.5587L67.5956 50.0221L68.1485 48.874L67.9437 48.7106L65.4844 49.2719L67.4566 50.8447ZM62.5261 46.9128L63.5122 47.6991L64.4381 47.4878L64.9854 46.3514L63.9993 45.5651L63.0733 45.7764L62.5261 46.9128ZM67.9919 44.6538L67.4447 45.7901L68.4308 46.5765L69.3567 46.3652L69.904 45.2288L68.9179 44.4424L67.9919 44.6538ZM64.1678 43.5037L66.6271 42.9424L66.7408 42.7063L65.7445 41.9118L66.5156 40.9449L65.2623 41.2309L64.1678 43.5037ZM67.4328 40.7356L67.6185 40.8837L67.7216 40.6696L67.4328 40.7356ZM66.3568 38.9582L68.4878 38.4718L68.8186 38.0569L68.9351 38.1498L69.9106 36.1242L67.4513 36.6855L66.3568 38.9582ZM72.3699 35.5629L71.2754 37.8356L73.7347 37.2743L74.8292 35.0015L72.3699 35.5629ZM77.2885 34.4402L76.194 36.7129L78.6533 36.1516L79.7477 33.8789L77.2885 34.4402ZM80.9774 33.5982L79.8829 35.871L91.383 33.2462L90.9441 31.3234L80.9774 33.5982ZM92.2607 37.0917L91.8218 35.1689L78.7884 38.1437L77.6939 40.4164L92.2607 37.0917ZM75.2614 43.1949L75.3698 42.9698L75.0661 43.0391L75.2614 43.1949ZM92.6996 39.0144L76.5994 42.6892L76.0522 43.8255L77.0383 44.6119L93.1384 40.9372L92.6996 39.0144ZM94.0161 44.7827L93.5773 42.8599L79.0105 46.1847L80.9827 47.7575L94.0161 44.7827ZM94.8938 48.6282L94.455 46.7054L82.9549 49.3302L84.9271 50.903L94.8938 48.6282ZM95.7715 52.4737L95.3327 50.5509L86.8993 52.4758L88.8715 54.0486L95.7715 52.4737ZM96.6493 56.3192L96.2104 54.3964L90.8437 55.6213L92.8159 57.1941L96.6493 56.3192ZM74.005 41.2584L76.4643 40.6971L77.5588 38.4244L75.0995 38.9857L74.005 41.2584ZM82.0719 31.3255L90.5053 29.4007L90.0664 27.4779L83.1664 29.0528L82.0719 31.3255ZM84.2609 26.7801L89.6276 25.5551L89.1887 23.6324L85.3554 24.5073L84.2609 26.7801ZM86.4498 22.2346L88.7499 21.7096L88.311 19.7869L87.5443 19.9619L86.4498 22.2346ZM87.2031 18.3977L85.4262 17.542L84.4026 19.6675L86.8619 19.1062L87.2031 18.3977ZM85.2202 22.5153L86.3147 20.2425L83.8554 20.8039L82.7609 23.0766L85.2202 22.5153ZM80.3016 23.6379L81.3961 21.3652L78.9368 21.9265L77.8423 24.1992L80.3016 23.6379ZM75.383 24.7605L76.4775 22.4878L74.0182 23.0491L72.9237 25.3218L75.383 24.7605ZM70.4644 25.8832L71.5589 23.6104L69.0996 24.1718L68.0051 26.4445L70.4644 25.8832ZM65.5459 27.0058L66.6403 24.7331L64.1811 25.2944L63.0866 27.5671L65.5459 27.0058ZM61.5866 26.1364L61.7218 25.8557L61.4782 25.9113L61.5866 26.1364ZM61.0394 27.2727L60.4921 26.1364L59.2625 26.417L58.8504 27.2727L59.3976 28.4091L60.6273 28.1284L61.0394 27.2727ZM62.2475 29.7815L61.9921 29.8398L61.0394 31.8182L61.1531 32.0543L63.1252 31.6041L62.2475 29.7815ZM62.2624 33.824L62.0308 33.8769L62.1338 34.0909L62.2624 33.824ZM61.1679 36.0967L61.7256 34.9386L60.6115 35.4751L60.0586 34.327L59.8031 34.3853L58.7086 36.658L61.1679 36.0967ZM55.0197 37.5L56.2493 37.2193L56.6614 36.3636L56.1142 35.2273L54.8845 35.5079L54.4724 36.3636L55.0197 37.5ZM56.6614 31.8182L57.2086 32.9545L58.4383 32.6739L58.8504 31.8182L58.3031 30.6818L57.0735 30.9625L56.6614 31.8182ZM53.3779 34.0909L54.4724 31.8182L54.3587 31.5821L53.1164 31.8657L52.8412 30.66L52.2835 31.8182L53.3779 34.0909ZM53.2494 29.8124L53.481 29.7595L53.3779 29.5454L53.2494 29.8124ZM51.189 29.5455L52.1373 27.5762L52.0192 27.0588L52.1645 27.0256L51.189 25L50.0945 27.2727L51.189 29.5455ZM52.2835 22.7273L53.3779 25L54.4724 22.7273L53.3779 20.4545L52.2835 22.7273ZM54.4724 18.1818L55.5669 20.4545L56.6614 18.1818L55.5669 15.9091L54.4724 18.1818ZM56.1142 14.7727L57.2087 17.0454L62.3267 6.41778L60.5498 5.56208L56.1142 14.7727ZM65.8805 8.12919L64.1036 7.27349L58.3031 19.3182L59.3976 21.5909L65.8805 8.12919ZM60.0533 25.2251L59.9449 25L59.8097 25.2807L60.0533 25.2251ZM67.6573 8.9849L60.4921 23.8636L61.0394 25L62.269 24.7193L69.4342 9.84061L67.6573 8.9849ZM72.988 11.552L71.2111 10.6963L64.7283 24.158L67.1876 23.5967L72.988 11.552ZM76.5418 13.2634L74.7649 12.4077L69.6469 23.0354L72.1062 22.4741L76.5418 13.2634ZM80.0956 14.9748L78.3187 14.1191L74.5655 21.9128L77.0248 21.3514L80.0956 14.9748ZM83.6493 16.6862L81.8725 15.8305L79.484 20.7901L81.9433 20.2288L83.6493 16.6862ZM57.7559 25L58.8504 22.7273L57.7559 20.4545L56.6614 22.7273L57.7559 25ZM55.0197 12.5L58.7729 4.70637L56.996 3.85067L53.9252 10.2273L55.0197 12.5ZM52.8307 7.95454L55.2191 2.99496L53.4422 2.13926L51.7362 5.68181L52.8307 7.95454ZM52.2835 9.09091L51.189 6.81818L50.0945 9.09091L51.189 11.3636L52.2835 9.09091ZM50.0945 13.6364L49 11.3636L47.9055 13.6364L49 15.9091L50.0945 13.6364ZM47.9055 18.1818L46.811 15.9091L45.7165 18.1818L46.811 20.4545L47.9055 18.1818ZM45.7165 22.7273L44.622 20.4545L43.5276 22.7273L44.622 25L45.7165 22.7273ZM43.1089 26.4033L42.4331 25L41.8911 26.1254L43.1089 26.4033ZM46.811 25L45.8355 27.0256L45.9808 27.0588L45.8627 27.5762L46.811 29.5455L47.9055 27.2727L46.811 25ZM49 29.5455L47.9055 31.8182L49 34.0909L50.0945 31.8182L49 29.5455ZM51.189 34.0909L50.0945 36.3636L51.189 38.6364L52.2835 36.3636L51.189 34.0909ZM47.9055 22.7273L49 25L50.0945 22.7273L49 20.4545L47.9055 22.7273ZM50.0945 18.1818L51.189 20.4545L52.2835 18.1818L51.189 15.9091L50.0945 18.1818ZM52.2835 13.6364L53.3779 15.9091L54.4724 13.6364L53.3779 11.3636L52.2835 13.6364ZM56.1089 26.1254L55.5669 25L54.8911 26.4033L56.1089 26.1254ZM56.6614 27.2727L56.5477 27.0366L54.5755 27.4868L55.4532 29.3094L55.7087 29.2511L56.6614 27.2727ZM60.0734 38.3694L57.6141 38.9308L56.5196 41.2035L58.9789 40.6422L60.0734 38.3694ZM62.5327 37.8081L61.4382 40.0808L63.8975 39.5195L64.992 37.2468L62.5327 37.8081ZM61.7085 44.065L62.803 41.7923L60.3437 42.3536L59.2492 44.6263L61.7085 44.065ZM63.6272 35.5354L66.0865 34.9741L67.181 32.7013L64.9891 33.2016L65.0537 33.3358L64.5756 33.5661L63.6272 35.5354ZM65.8162 30.9899L68.2755 30.4286L69.3699 28.1559L66.9107 28.7172L65.8162 30.9899ZM74.2885 27.0333L71.8292 27.5946L70.7348 29.8673L73.194 29.306L74.2885 27.0333ZM76.7478 26.4719L75.6533 28.7447L78.1126 28.1834L79.2071 25.9106L76.7478 26.4719ZM81.6664 25.3493L80.5719 27.622L83.0312 27.0607L84.1257 24.788L81.6664 25.3493ZM80.8422 31.6062L81.9367 29.3334L79.4774 29.8948L78.3829 32.1675L80.8422 31.6062ZM73.4644 33.2901L75.9236 32.7288L77.0181 30.4561L74.5588 31.0174L73.4644 33.2901ZM68.5458 34.4128L71.0051 33.8514L72.0996 31.5787L69.6403 32.14L68.5458 34.4128ZM63.7756 30.6818L64.4514 29.2785L63.2336 29.5565L63.7756 30.6818ZM72.0982 40.6723L72.6402 39.547L71.1217 39.8936L72.0982 40.6723ZM71.5457 41.8197L71.6594 41.5836L70.0778 40.3224L69.2001 42.145L69.405 42.3083L71.5457 41.8197ZM64.9973 51.406L63.0251 49.8332L60.5658 50.3946L62.538 51.9673L64.9973 51.406ZM66.9695 52.9788L64.5102 53.5401L66.4824 55.1129L68.9417 54.5516L66.9695 52.9788ZM61.5638 56.2355L64.0231 55.6742L62.0509 54.1014L59.5916 54.6627L61.5638 56.2355ZM69.4288 52.4175L71.401 53.9903L73.8603 53.4289L72.1025 52.0272L72.0379 52.1614L71.5597 51.9311L69.4288 52.4175ZM74.3474 51.2948L76.3196 52.8676L78.7789 52.3063L76.8067 50.7335L74.3474 51.2948ZM82.7233 55.4519L80.7511 53.8791L78.2918 54.4404L80.264 56.0132L82.7233 55.4519ZM84.6955 57.0246L82.2362 57.5859L84.2084 59.1587L86.6677 58.5974L84.6955 57.0246ZM88.6399 60.1702L86.1806 60.7315L88.1528 62.3043L90.6121 61.743L88.6399 60.1702ZM83.2342 63.4269L85.6935 62.8656L83.7213 61.2928L81.262 61.8541L83.2342 63.4269ZM77.3176 58.7086L79.2898 60.2814L81.7491 59.72L79.7769 58.1473L77.3176 58.7086ZM73.3732 55.563L75.3454 57.1358L77.8047 56.5745L75.8325 55.0017L73.3732 55.563ZM73.316 49.5073L74.8345 49.1607L73.8579 48.382L73.316 49.5073ZM70.6942 62.2432L71.9119 61.9653L70.6942 60.9942L70.6942 62.2432ZM69.7081 62.4683L69.7081 60.4454L67.7359 60.8955L67.7359 61.1576L69.4526 62.5266L69.7081 62.4683ZM65.7637 62.1073L65.0211 61.5152L63.7915 61.7958L63.7915 63.0571L64.534 63.6493L65.7637 63.3686L65.7637 62.1073ZM57.8749 63.3838L57.8749 60.8613L55.9027 59.2885L55.9027 61.8111L57.8749 63.3838ZM57.8749 65.9064L55.9027 64.3336L55.9027 66.8561L57.8749 68.4289L57.8749 65.9064ZM57.8749 70.9515L55.9027 69.3787L55.9027 71.5644L56.2336 71.9793L56.1171 72.0722L57.8749 73.474L57.8749 70.9515ZM57.8749 75.9965L55.9027 74.4237L55.9027 76.9463L57.8749 78.5191L57.8749 75.9965ZM57.8749 81.0416L55.9027 79.4688L55.9027 81.9914L57.8749 83.5641L57.8749 81.0416ZM51.9583 78.8458L53.9305 80.4186L53.9305 77.896L51.9583 76.3233L51.9583 78.8458ZM49.9861 77.273L49.9861 76.9615L49.7908 77.1173L49.9861 77.273ZM48.0139 77.273L48.2092 77.1173L48.0139 76.9615L48.0139 77.273ZM48.0139 75.7003L49 76.4867L49.9861 75.7003L49.9861 74.7505L49 73.9641L48.0139 74.7505L48.0139 75.7003ZM46.0417 78.8458L46.0417 76.3233L44.0695 77.8961L44.0695 80.4186L46.0417 78.8458ZM44.0695 73.816L44.0695 75.3735L45.046 74.5948L44.0695 73.816ZM44.2553 72.7028L45.8368 73.9641L46.0417 73.8007L46.0417 71.6049L45.8368 71.4416L44.2553 72.7028ZM44.0695 70.3284L44.2553 70.1803L44.0695 70.0322L44.0695 70.3284ZM44.0695 69.0914L44.8405 68.1245L45.8368 68.919L46.0417 68.7557L46.0417 66.2331L44.0695 67.8059L44.0695 69.0914ZM44.0695 62.7608L44.0695 65.2834L46.0417 63.7106L46.0417 61.1881L44.0695 62.7608ZM49 63.874L48.0139 64.6604L48.0139 65.6101L49 66.3965L49.9861 65.6101L49.9861 64.6604L49 63.874ZM49.9861 69.7054L49 68.919L48.0139 69.7054L48.0139 70.6552L49 71.4416L49.9861 70.6552L49.9861 69.7054ZM51.9583 68.7557L52.1632 68.919L53.1595 68.1245L53.9305 69.0914L53.9305 67.8059L51.9583 66.2331L51.9583 68.7557ZM53.9305 70.0322L53.7447 70.1803L53.9305 70.3284L53.9305 70.0322ZM51.9583 63.7106L53.9305 65.2834L53.9305 62.7608L51.9583 61.1881L51.9583 63.7106ZM53.7447 72.7028L52.1632 71.4416L51.9583 71.605L51.9583 73.8007L52.1632 73.9641L53.7447 72.7028ZM52.954 74.5947L53.9305 75.3735L53.9305 73.816L52.954 74.5947ZM59.8471 82.6144L59.8471 85.1369L61.8193 86.7097L61.8193 84.1872L59.8471 82.6144ZM63.7915 85.7599L63.7915 88.2825L65.7637 89.8552L65.7637 87.3327L63.7915 85.7599ZM63.7915 83.2374L65.7637 84.8102L65.7637 82.2876L63.7915 80.7149L63.7915 83.2374ZM63.7915 78.1923L65.7637 79.7651L65.7637 77.2426L63.7915 75.6698L63.7915 78.1923ZM63.7915 73.1472L65.7637 74.72L65.7637 72.1975L63.7915 70.6247L63.7915 73.1472ZM64.5459 68.7038L65.7637 69.6749L65.7637 68.4259L64.5459 68.7038ZM61.8193 71.5745L61.8193 69.3262L61.6741 69.3593L61.556 68.8419L59.8471 67.4792L59.8471 70.0017L61.8193 71.5745ZM61.8193 74.097L59.8471 72.5242L59.8471 75.0468L61.8193 76.6195L61.8193 74.097ZM61.8193 79.1421L59.8471 77.5693L59.8471 80.0918L61.8193 81.6646L61.8193 79.1421ZM33.9769 55.6742L36.4362 56.2355L38.4084 54.6627L35.9491 54.1014L33.9769 55.6742ZM31.5176 55.1129L33.4898 53.5401L31.0305 52.9788L29.0583 54.5516L31.5176 55.1129ZM34.9749 49.8332L33.0027 51.406L35.462 51.9673L37.4342 50.3946L34.9749 49.8332ZM29.5454 56.6857L27.0861 56.1243L25.1139 57.6971L27.3058 58.1974L27.3058 58.0485L27.8365 58.0485L29.5454 56.6857ZM25.601 59.8312L23.1417 59.2699L21.1695 60.8427L23.6288 61.404L25.601 59.8312ZM16.2509 59.72L18.7102 60.2814L20.6824 58.7086L18.2231 58.1473L16.2509 59.72ZM13.7916 59.1587L15.7638 57.5859L13.3045 57.0246L11.3323 58.5974L13.7916 59.1587ZM8.87304 58.0361L10.8452 56.4633L8.38594 55.902L6.41374 57.4748L8.87304 58.0361ZM12.3303 52.7564L10.3581 54.3292L12.8174 54.8905L14.7896 53.3178L12.3303 52.7564ZM19.7082 54.4404L17.2489 53.8791L15.2767 55.4519L17.736 56.0132L19.7082 54.4404ZM24.6268 55.563L22.1675 55.0017L20.1953 56.5745L22.6546 57.1358L24.6268 55.563ZM27.3058 60.9942L26.0881 61.9653L27.3058 62.2432L27.3058 60.9942ZM10.7056 74.2324L11.9352 75.7744L23.6169 66.4586L21.1576 65.8973L10.7056 74.2324ZM8.2463 71.1486L9.47595 72.6905L18.6983 65.3359L16.239 64.7746L8.2463 71.1486ZM5.787 68.0647L7.01665 69.6067L13.7797 64.2133L11.3204 63.652L5.787 68.0647ZM3.32771 64.9809L4.55736 66.5228L8.86112 63.0907L6.40183 62.5293L3.32771 64.9809ZM24.1421 48.382L23.1655 49.1607L24.684 49.5073L24.1421 48.382ZM25.1377 47.588L24.9329 47.7513L25.8106 49.5739L27.3921 48.3127L27.2785 48.0766L25.1377 47.588ZM35.197 41.7923L36.2915 44.065L38.7507 44.6263L37.6563 42.3536L35.197 41.7923ZM34.1025 39.5195L36.5618 40.0809L35.4673 37.8081L33.008 37.2468L34.1025 39.5195ZM40.3859 38.9308L37.9266 38.3694L39.0211 40.6422L41.4804 41.2035L40.3859 38.9308ZM31.6432 38.9582L30.5487 36.6855L28.0894 36.1242L29.0649 38.1498L29.1814 38.0569L29.5122 38.4718L31.6432 38.9582ZM26.7246 37.8356L25.6301 35.5629L23.1708 35.0015L24.2653 37.2743L26.7246 37.8356ZM20.9819 30.4561L22.0763 32.7288L24.5356 33.2901L23.4411 31.0174L20.9819 30.4561ZM19.8874 28.1834L22.3467 28.7447L21.2522 26.4719L18.7929 25.9106L19.8874 28.1834ZM17.6984 23.6379L20.1577 24.1992L19.0632 21.9265L16.6039 21.3652L17.6984 23.6379ZM23.9818 23.0491L21.5225 22.4878L22.617 24.7605L25.0763 25.3219L23.9818 23.0491ZM27.2652 29.8673L26.1708 27.5946L23.7115 27.0333L24.806 29.306L27.2652 29.8673ZM29.4542 34.4128L28.3597 32.14L25.9004 31.5787L26.9949 33.8514L29.4542 34.4128ZM26.8783 39.8936L25.3598 39.547L25.9017 40.6723L26.8783 39.8936ZM34.7663 29.5565L33.5486 29.2785L34.2244 30.6818L34.7663 29.5565ZM36.0079 29.8399L35.7524 29.7815L34.8747 31.6041L36.8469 32.0543L36.9606 31.8182L36.0079 29.8399Z" stroke="white" stroke-width="74" stroke-dasharray="2 2"/>
</svg>
