<svg width="100" height="100" viewBox="0 0 100 100" fill="none" xmlns="http://www.w3.org/2000/svg">
<path d="M65.9451 3.17168L53.189 0.634333L51.6576 8.33333L54.9728 25L64.4137 10.8707L65.9451 3.17168ZM52.4181 28.8234L50 16.6667L47.5819 28.8234L50 32.4423L52.4181 28.8234ZM48.7184 36.3768L46.6848 33.3333L45.9707 36.9234L44.4589 36.6227L43.6026 37.9043L40.5591 35.8707L41.2732 39.4607L39.7614 39.7614L39.4607 41.2732L35.8707 40.5591L37.9043 43.6026L36.6227 44.4589L36.9234 45.9707L33.3333 46.6848L36.3768 48.7184L35.5205 50L36.3768 51.2816L33.3333 53.3152L36.9234 54.0293L36.6227 55.5411L37.9043 56.3974L35.8707 59.4409L39.4607 58.7268L39.7614 60.2386L41.2732 60.5393L40.5591 64.1293L43.6026 62.0957L44.4589 63.3773L45.9707 63.0766L46.6848 66.6667L48.7184 63.6232L50 64.4795L51.2816 63.6232L53.3152 66.6667L54.0293 63.0766L55.5411 63.3773L56.3974 62.0957L59.4409 64.1293L58.7268 60.5393L60.2385 60.2386L60.5393 58.7268L64.1293 59.4409L62.0957 56.3974L63.3773 55.5411L63.0766 54.0293L66.6666 53.3152L63.6232 51.2816L64.4795 50L63.6232 48.7184L66.6667 46.6848L63.0766 45.9707L63.3773 44.4589L62.0957 43.6026L64.1293 40.5591L60.5393 41.2732L60.2385 39.7614L58.7268 39.4607L59.4409 35.8707L56.3974 37.9043L55.5411 36.6227L54.0293 36.9234L53.3152 33.3333L51.2816 36.3768L50 35.5205L48.7184 36.3768ZM39.662 31.3607L43.281 33.7788L44.1301 29.51L37.2439 19.204L39.662 31.3607ZM35.8386 28.806L32.5234 12.1393L28.1623 5.61246L17.3482 12.8382L21.7093 19.3651L35.8386 28.806ZM46.811 0.634332L34.0549 3.17168L35.5863 10.8707L45.0272 25L48.3424 8.33333L46.811 0.634332ZM12.8382 17.3482L5.61246 28.1623L12.1394 32.5234L28.806 35.8386L19.3651 21.7093L12.8382 17.3482ZM36.7357 33.316L26.4298 26.4298L33.316 36.7357L37.5849 37.5849L36.7357 33.316ZM33.7788 43.281L31.3607 39.662L19.204 37.2439L29.51 44.1301L33.7788 43.281ZM25 45.0272L10.8707 35.5863L3.17168 34.0549L0.634334 46.811L8.33333 48.3424L25 45.0272ZM0.634334 53.189L3.17168 65.9452L10.8707 64.4137L25 54.9728L8.33333 51.6576L0.634334 53.189ZM28.8234 47.5819L16.6667 50L28.8234 52.4181L32.4423 50L28.8234 47.5819ZM33.7788 56.719L29.51 55.8699L19.204 62.7561L31.3607 60.338L33.7788 56.719ZM28.806 64.1614L12.1394 67.4766L5.61246 71.8377L12.8382 82.6518L19.3651 78.2907L28.806 64.1614ZM17.3482 87.1618L28.1623 94.3876L32.5234 87.8607L35.8386 71.194L21.7093 80.6349L17.3482 87.1618ZM33.316 63.2643L26.4298 73.5702L36.7357 66.684L37.5849 62.4152L33.316 63.2643ZM43.281 66.2212L39.662 68.6393L37.2439 80.796L44.1301 70.4901L43.281 66.2212ZM45.0272 75L35.5863 89.1293L34.0548 96.8283L46.811 99.3657L48.3424 91.6667L45.0272 75ZM53.189 99.3657L65.9451 96.8283L64.4137 89.1293L54.9728 75L51.6576 91.6667L53.189 99.3657ZM47.5819 71.1767L50 83.3334L52.4181 71.1767L50 67.5577L47.5819 71.1767ZM56.719 66.2212L55.8699 70.4901L62.7561 80.796L60.338 68.6393L56.719 66.2212ZM64.1614 71.194L67.4766 87.8607L71.8377 94.3876L82.6518 87.1618L78.2907 80.6349L64.1614 71.194ZM87.1618 82.6518L94.3875 71.8377L87.8606 67.4766L71.194 64.1614L80.6349 78.2907L87.1618 82.6518ZM63.2643 66.684L73.5702 73.5702L66.684 63.2643L62.4151 62.4152L63.2643 66.684ZM66.2212 56.719L68.6393 60.338L80.796 62.7561L70.49 55.8699L66.2212 56.719ZM75 54.9728L89.1293 64.4137L96.8283 65.9452L99.3657 53.189L91.6667 51.6576L75 54.9728ZM99.3657 46.811L96.8283 34.0549L89.1293 35.5863L75 45.0272L91.6667 48.3424L99.3657 46.811ZM71.1766 52.4181L83.3333 50L71.1766 47.5819L67.5576 50L71.1766 52.4181ZM66.2211 43.281L70.49 44.1301L80.796 37.2439L68.6393 39.662L66.2211 43.281ZM71.194 35.8386L87.8606 32.5234L94.3875 28.1623L87.1618 17.3482L80.6349 21.7093L71.194 35.8386ZM82.6518 12.8382L71.8377 5.61246L67.4766 12.1393L64.1614 28.806L78.2907 19.3651L82.6518 12.8382ZM66.684 36.7357L73.5702 26.4298L63.2643 33.316L62.4151 37.5849L66.684 36.7357ZM56.719 33.7788L60.338 31.3607L62.7561 19.204L55.8699 29.51L56.719 33.7788Z" stroke="white" stroke-width="74" stroke-dasharray="8 16"/>
</svg>
