<svg width="252" height="252" viewBox="0 0 252 252" fill="none" xmlns="http://www.w3.org/2000/svg">
<path d="M118.782 39.711L126 38.2751L133.218 39.711L136.407 40.3453L129.189 76.6343L141.945 79.1717L149.163 42.8826L152.353 43.517L159.571 44.9528L165.69 49.0417L168.394 50.8481L147.838 81.6125L158.652 88.8382L179.208 58.0739L181.911 59.8803L188.031 63.9692L192.12 70.0886L193.926 72.7921L163.162 93.3482L170.388 104.162L201.152 83.6062L202.958 86.3098L207.047 92.4292L208.483 99.6475L209.117 102.837L172.828 110.055L175.366 122.811L211.655 115.593L212.289 118.782L213.725 126L212.289 133.218L211.655 136.407L175.366 129.189L172.828 141.945L209.117 149.164L208.483 152.353L207.047 159.571L202.958 165.69L201.152 168.394L170.388 147.838L163.162 158.652L193.926 179.208L192.12 181.911L188.031 188.031L181.911 192.12L179.208 193.926L158.652 163.162L147.838 170.388L168.394 201.152L165.69 202.958L159.571 207.047L152.353 208.483L149.163 209.117L141.945 172.828L129.189 175.366L136.407 211.655L133.218 212.289L126 213.725L118.782 212.289L115.593 211.655L122.811 175.366L110.055 172.828L102.837 209.117L99.6475 208.483L92.4291 207.047L86.3097 202.958L83.6062 201.152L104.162 170.388L93.3482 163.162L72.7921 193.926L70.0886 192.12L63.9691 188.031L59.8803 181.911L58.0738 179.208L88.8382 158.652L81.6125 147.838L50.8481 168.394L49.0416 165.69L44.9528 159.571L43.517 152.353L42.8826 149.164L79.1717 141.945L76.6343 129.189L40.3453 136.407L39.7109 133.218L38.2751 126L39.7109 118.782L40.3453 115.593L76.6343 122.811L79.1717 110.055L42.8826 102.837L43.517 99.6475L44.9528 92.4292L49.0416 86.3097L50.8481 83.6062L81.6125 104.162L88.8382 93.3482L58.0738 72.7921L59.8803 70.0886L63.9691 63.9692L70.0886 59.8803L72.7921 58.0739L93.3482 88.8382L104.162 81.6125L83.6062 50.8481L86.3097 49.0417L92.4291 44.9528L99.6475 43.517L102.837 42.8826L110.055 79.1717L122.811 76.6343L115.593 40.3453L118.782 39.711Z" stroke="white" stroke-width="74" stroke-dasharray="8 16"/>
</svg>
