<svg width="246" height="246" viewBox="0 0 246 246" fill="none" xmlns="http://www.w3.org/2000/svg">
<path d="M75.8482 136.88C76.7529 140.256 78.0964 143.5 79.8442 146.527L47.8012 165.027C48.6401 166.48 49.5274 167.907 50.462 169.306L50.462 169.306L50.795 169.804L81.5594 149.248L82.8913 151.241L52.1269 171.798L52.4599 172.296C53.3945 173.695 54.3734 175.06 55.3948 176.392L84.7489 153.867C86.8769 156.641 89.3593 159.123 92.1326 161.251L69.6084 190.605C70.9395 191.627 72.3054 192.606 73.7041 193.54L93.4386 164.005L73.7042 193.54L74.2025 193.873L94.7586 163.109L96.7519 164.441L76.1958 195.205L76.6941 195.538C78.0929 196.473 79.52 197.36 80.973 198.199L99.4731 166.156C102.5 167.904 105.744 169.247 109.12 170.152L99.5439 205.891C101.165 206.325 102.801 206.707 104.451 207.035L105.039 207.152L112.257 170.863L114.609 171.331L107.39 207.62L107.978 207.737C109.628 208.065 111.286 208.339 112.949 208.558L117.779 171.874C121.245 172.33 124.755 172.33 128.221 171.874L133.05 208.558C134.714 208.339 136.372 208.065 138.022 207.737L138.61 207.62L131.391 171.331L133.743 170.863L140.961 207.152L141.549 207.035C143.199 206.707 144.835 206.325 146.456 205.891L136.88 170.152C140.256 169.247 143.5 167.904 146.527 166.156L165.027 198.199C166.48 197.36 167.907 196.473 169.306 195.538L169.804 195.205L149.248 164.441L151.241 163.109L171.797 193.873L172.296 193.54C173.695 192.606 175.06 191.627 176.392 190.605L153.867 161.251C156.641 159.123 159.123 156.641 161.251 153.867L190.605 176.392C191.627 175.061 192.605 173.695 193.54 172.296L193.873 171.798L163.109 151.241L164.441 149.248L195.205 169.804L195.538 169.306C196.473 167.907 197.36 166.48 198.199 165.027L166.156 146.527C167.904 143.5 169.247 140.256 170.152 136.88L205.891 146.456C206.325 144.835 206.707 143.199 207.035 141.549L207.152 140.961L170.863 133.743L171.331 131.391L207.62 138.61L207.737 138.022C208.065 136.372 208.339 134.714 208.558 133.051L171.874 128.221C172.33 124.755 172.33 121.245 171.874 117.779L208.558 112.95C208.339 111.286 208.065 109.628 207.737 107.978L207.62 107.39L171.331 114.609L170.863 112.257L207.152 105.039L207.035 104.451C206.707 102.801 206.325 101.165 205.891 99.544L170.152 109.12C169.247 105.744 167.904 102.5 166.156 99.4731L198.199 80.9731C197.36 79.52 196.473 78.0929 195.538 76.6942L195.205 76.1958L164.441 96.7519L163.109 94.7586L193.873 74.2025L193.54 73.7042L193.54 73.7041C192.605 72.3054 191.627 70.9395 190.605 69.6084L161.251 92.1326C159.123 89.3593 156.641 86.8769 153.867 84.7489L176.392 55.3949C175.06 54.3735 173.695 53.3945 172.296 52.4599L151.74 83.2243L172.296 52.4599L171.798 52.1269L151.241 82.8913L149.248 81.5594L169.804 50.795L169.306 50.462C167.907 49.5274 166.48 48.6402 165.027 47.8012L146.527 79.8442C143.5 78.0964 140.256 76.7529 136.88 75.8482L146.456 40.1089C144.835 39.6747 143.199 39.2929 141.549 38.9647L140.961 38.8478L133.743 75.1369L131.391 74.6692L138.61 38.3801L138.022 38.2632C136.372 37.935 134.714 37.6614 133.05 37.4424L128.221 74.1258C124.755 73.6696 121.245 73.6696 117.779 74.1258L112.95 37.4424C111.286 37.6614 109.628 37.935 107.978 38.2632L107.39 38.3801L114.609 74.6692L112.257 75.1369L105.039 38.8478L104.451 38.9647C102.801 39.2929 101.165 39.6747 99.544 40.1089L109.12 75.8482C105.744 76.7529 102.5 78.0964 99.4731 79.8442L80.9731 47.8012C79.52 48.6401 78.0929 49.5274 76.6942 50.462L76.1958 50.795L96.7519 81.5594L94.7586 82.8913L74.2025 52.1269L73.7042 52.4599L93.3467 81.8571L73.7041 52.4599C72.3054 53.3945 70.9395 54.3735 69.6084 55.3949L92.1326 84.7489C89.3593 86.8769 86.8769 89.3593 84.7489 92.1326L55.3949 69.6084C54.3735 70.9395 53.3945 72.3054 52.4599 73.7041L52.1269 74.2025L82.8913 94.7586L81.5594 96.7519L50.795 76.1958L50.4621 76.6941C49.5274 78.0929 48.6402 79.52 47.8012 80.9731L79.8442 99.4731C78.0964 102.5 76.7529 105.744 75.8482 109.12L40.1089 99.5439C39.6747 101.165 39.2929 102.801 38.9647 104.451L75.2538 111.669L38.9647 104.451L38.8478 105.039L75.1369 112.257L74.6692 114.609L38.3801 107.39L38.2632 107.978C37.935 109.628 37.6614 111.286 37.4424 112.95L74.1258 117.779C73.6696 121.245 73.6696 124.755 74.1258 128.221L37.4424 133.05C37.6614 134.714 37.935 136.372 38.2632 138.022L38.3801 138.61L74.6692 131.391L75.1369 133.743L38.8478 140.961L38.9647 141.549C39.2929 143.199 39.6746 144.835 40.1089 146.456L75.8482 136.88Z" stroke="white" stroke-width="74" stroke-dasharray="8 16"/>
</svg>
