<svg width="100" height="100" viewBox="0 0 100 100" fill="none" xmlns="http://www.w3.org/2000/svg">
<path d="M38.5428 54.1123L38.5428 54.1122L38.4259 53.5243L2.13686 60.7427L1.66915 58.3914L37.9582 51.173L37.8413 50.5853C37.8413 50.5853 37.8413 50.5852 37.8413 50.5852C37.8285 50.5209 37.8178 50.4563 37.8093 50.3916L1.12584 55.221C0.669574 51.7553 0.669574 48.2447 1.12584 44.779L37.8093 49.6084C37.8178 49.5437 37.8285 49.4791 37.8413 49.4147L37.9582 48.8269L1.66916 41.6086L2.13685 39.2573L38.4259 46.4756L38.5428 45.8878C38.5428 45.8878 38.5428 45.8878 38.5428 45.8878C38.5556 45.8234 38.5705 45.7597 38.5874 45.6966L2.84816 36.1203C3.7529 32.7438 5.09636 29.5003 6.84417 26.4731L38.8871 44.9731C38.9198 44.9165 38.9543 44.8609 38.9908 44.8064L8.63019 24.52L38.9908 44.8063L39.3238 44.308L8.55939 23.7519L9.89129 21.7586L40.6557 42.3147L40.9887 41.8163C41.0251 41.7618 41.0632 41.7086 41.103 41.6567L11.7489 19.1326C13.8769 16.3593 16.3593 13.8769 19.1326 11.7489L41.6568 41.103C41.7086 41.0632 41.7618 41.0251 41.8163 40.9887L38.5428 54.1123ZM38.5428 54.1123C38.5556 54.1766 38.5705 54.2403 38.5874 54.3034L2.84817 63.8797C3.75289 67.2562 5.09637 70.4997 6.84416 73.5269L38.8871 55.027C38.9198 55.0835 38.9543 55.1391 38.9908 55.1936C38.9908 55.1937 38.9908 55.1937 38.9908 55.1937L39.3237 55.692L8.55938 76.2481L9.89128 78.2414L40.6556 57.6853L40.9886 58.1836L40.9887 58.1837C41.0251 58.2382 41.0632 58.2914 41.103 58.3433L11.7489 80.8674C13.8769 83.6407 16.3593 86.1231 19.1326 88.2511L41.6567 58.897C41.7086 58.9368 41.7618 58.9749 41.8163 59.0114C41.8163 59.0114 41.8163 59.0114 41.8163 59.0114L42.3146 59.3443L21.7586 90.1087L23.7519 91.4406L44.308 60.6762L44.8063 61.0092L44.8063 61.0092C44.8609 61.0457 44.9165 61.0802 44.9731 61.1129L26.4731 93.1558C29.5003 94.9036 32.7438 96.2471 36.1203 97.1518L45.6966 61.4126C45.7597 61.4295 45.8234 61.4444 45.8877 61.4572C45.8877 61.4572 45.8878 61.4572 45.8878 61.4572L46.4755 61.5741L39.2573 97.8632L41.6086 98.3309L48.8268 62.0418L49.4146 62.1587L49.4147 62.1587C49.4791 62.1715 49.5437 62.1822 49.6085 62.1907L44.779 98.8742C48.2447 99.3304 51.7553 99.3304 55.221 98.8742L50.3916 62.1907C50.4563 62.1822 50.5209 62.1715 50.5853 62.1587L51.1731 62.0418L58.3914 98.3309L60.7427 97.8632L53.5244 61.5741L54.1122 61.4572C54.1765 61.4444 54.2403 61.4295 54.3034 61.4126L63.8797 97.1519C67.2562 96.2471 70.4996 94.9037 73.5269 93.1559L55.0269 61.1129C55.0835 61.0802 55.1391 61.0457 55.1937 61.0092L75.7497 91.7736L55.1937 61.0092L55.692 60.6762L76.2481 91.4406L78.2414 90.1087L57.6853 59.3443L58.1836 59.0114C58.2382 58.9749 58.2914 58.9368 58.3432 58.897L80.8674 88.2511C83.6407 86.1231 86.1231 83.6407 88.2511 80.8674L58.897 58.3433C58.9368 58.2914 58.9749 58.2382 59.0113 58.1837L59.3443 57.6854L90.1087 78.2414L91.4406 76.2481L60.6762 55.692L61.0092 55.1937C61.0456 55.1391 61.0802 55.0835 61.1129 55.027L93.1558 73.5269C94.9036 70.4997 96.2471 67.2562 97.1518 63.8797L61.4126 54.3034C61.4295 54.2403 61.4444 54.1766 61.4572 54.1122L61.5741 53.5244L97.8631 60.7427L98.3308 58.3914L62.0418 51.1731L62.1587 50.5853C62.1715 50.5209 62.1822 50.4563 62.1907 50.3916L98.8741 55.221C99.3304 51.7553 99.3304 48.2447 98.8742 44.779L62.1907 49.6084C62.1822 49.5437 62.1715 49.4791 62.1587 49.4147L62.0418 48.8269L98.3308 41.6086L97.8631 39.2573L61.5741 46.4756L61.4572 45.8878C61.4444 45.8234 61.4295 45.7597 61.4126 45.6966L97.1518 36.1203C96.2471 32.7438 94.9036 29.5004 93.1558 26.4731L61.1129 44.9731C61.0802 44.9165 61.0457 44.8609 61.0092 44.8064L91.7736 24.2503L61.0092 44.8063L60.6762 44.308L91.4406 23.7519L90.1087 21.7586L59.3443 42.3147L59.0113 41.8163C58.9749 41.7618 58.9368 41.7086 58.897 41.6567L88.2511 19.1326C86.1231 16.3593 83.6407 13.8769 80.8674 11.7489L58.3432 41.103C58.2914 41.0632 58.2382 41.0251 58.1837 40.9886L57.6853 40.6557L78.2414 9.8913L76.2481 8.55939L55.692 39.3238L55.1937 38.9908C55.1391 38.9543 55.0835 38.9198 55.0269 38.8871L73.5269 6.84417C70.4997 5.09637 67.2562 3.75289 63.8797 2.84817L54.3034 38.5874C54.2403 38.5705 54.1766 38.5556 54.1122 38.5428L53.5244 38.4259L60.7427 2.13686L58.3914 1.66916L51.1731 37.9582L50.5853 37.8413C50.5209 37.8285 50.4563 37.8178 50.3916 37.8093L55.221 1.12584C51.7553 0.669575 48.2447 0.669575 44.779 1.12584L49.6084 37.8093C49.5437 37.8178 49.4791 37.8285 49.4147 37.8413L48.8269 37.9582L41.6086 1.66916L39.2573 2.13686L46.4756 38.4259L45.8878 38.5428C45.8234 38.5556 45.7597 38.5705 45.6966 38.5874L36.1203 2.84816C32.7438 3.75289 29.5004 5.09637 26.4731 6.84417L44.9731 38.8871C44.9165 38.9198 44.8609 38.9543 44.8063 38.9908L24.2502 8.22641L44.8063 38.9908L44.308 39.3238L23.7519 8.55939L21.7586 9.89129L42.3146 40.6557L41.8164 40.9886L38.5428 54.1123Z" stroke="white" stroke-width="74" stroke-dasharray="8 16"/>
</svg>
