<svg width="248" height="248" viewBox="0 0 248 248" fill="none" xmlns="http://www.w3.org/2000/svg">
<mask id="path-1-outside-1_1_96" maskUnits="userSpaceOnUse" x="-1.52116e-05" y="-1.52116e-05" width="248" height="248" fill="black">
<rect fill="white" x="-1.52116e-05" y="-1.52116e-05" width="248" height="248"/>
<path d="M125.951 74.3881C124.663 74.1319 123.337 74.1319 122.049 74.3881L106.817 77.418C105.529 77.6742 104.304 78.1815 103.212 78.9111L90.2986 87.5396C89.2067 88.2691 88.2691 89.2067 87.5396 90.2986L78.9111 103.212C78.1815 104.304 77.6742 105.529 77.418 106.817L74.3881 122.049C74.1319 123.337 74.1319 124.663 74.3881 125.951L77.418 141.183C77.6742 142.471 78.1815 143.696 78.9111 144.788L87.5396 157.701C88.2691 158.793 89.2066 159.731 90.2986 160.46L103.212 169.089C104.304 169.818 105.529 170.326 106.817 170.582L122.049 173.612C123.337 173.868 124.663 173.868 125.951 173.612L141.183 170.582C142.471 170.326 143.696 169.818 144.788 169.089L157.701 160.46C158.793 159.731 159.731 158.793 160.46 157.701L169.089 144.788C169.818 143.696 170.326 142.471 170.582 141.183L173.612 125.951C173.868 124.663 173.868 123.337 173.612 122.049L170.582 106.817C170.326 105.529 169.818 104.304 169.089 103.212L160.46 90.2986C159.731 89.2067 158.793 88.2692 157.701 87.5396L144.788 78.9111C143.696 78.1815 142.471 77.6742 141.183 77.418L125.951 74.3881Z"/>
</mask>
<path d="M144.788 78.9111L165.344 48.1467L144.788 78.9111ZM141.183 77.418L133.965 113.707L141.183 77.418ZM160.46 90.2986L191.225 69.7425L160.46 90.2986ZM157.701 87.5396L178.258 56.7752L157.701 87.5396ZM170.582 106.817L206.871 99.5984L170.582 106.817ZM169.089 103.212L199.853 82.6558L169.089 103.212ZM173.612 125.951L137.323 118.733L173.612 125.951ZM173.612 122.049L137.323 129.267L173.612 122.049ZM169.089 144.788L138.324 124.232L169.089 144.788ZM170.582 141.183L134.293 133.965L170.582 141.183ZM157.701 160.46L137.145 129.696L157.701 160.46ZM160.46 157.701L191.225 178.258L160.46 157.701ZM141.183 170.582L133.965 134.293L141.183 170.582ZM144.788 169.089L124.232 138.325L144.788 169.089ZM122.049 173.612L114.831 209.901L122.049 173.612ZM125.951 173.612L133.169 209.901L125.951 173.612ZM103.212 169.089L123.768 138.325L103.212 169.089ZM106.817 170.582L114.035 134.293L106.817 170.582ZM87.5396 157.701L118.304 137.145L87.5396 157.701ZM90.2986 160.46L110.855 129.696L90.2986 160.46ZM77.418 141.183L113.707 133.965L77.418 141.183ZM78.9111 144.788L109.675 124.232L78.9111 144.788ZM74.3881 122.049L38.099 114.831L74.3881 122.049ZM74.3881 125.951L38.099 133.169L74.3881 125.951ZM78.9111 103.212L109.675 123.768L78.9111 103.212ZM77.418 106.817L113.707 114.035L77.418 106.817ZM90.2986 87.5396L110.855 118.304L90.2986 87.5396ZM87.5396 90.2986L56.7752 69.7425L87.5396 90.2986ZM106.817 77.418L114.035 113.707L106.817 77.418ZM103.212 78.9111L123.768 109.675L103.212 78.9111ZM122.049 74.3881L129.267 110.677L122.049 74.3881ZM125.951 74.3881L133.169 38.099L125.951 74.3881ZM165.344 48.1467L166.062 48.6261L124.949 110.155L124.232 109.675L165.344 48.1467ZM168.931 50.5435L170.366 51.5023L129.254 113.031L127.819 112.072L168.931 50.5435ZM173.236 53.4197L174.671 54.3784L133.558 115.907L132.123 114.948L173.236 53.4197ZM177.54 56.2958L178.258 56.7752L137.145 118.304L136.428 117.825L177.54 56.2958ZM178.258 56.7752C179.111 57.3457 179.945 57.9432 180.758 58.5667L135.709 117.275C136.176 117.633 136.655 117.976 137.145 118.304L178.258 56.7752ZM189.433 67.2425C190.057 68.055 190.654 68.8887 191.225 69.7425L129.696 110.855C130.024 111.345 130.367 111.824 130.725 112.291L189.433 67.2425ZM191.225 69.7425L191.704 70.4599L130.175 111.572L129.696 110.855L191.225 69.7425ZM193.622 73.3295L194.58 74.7643L133.052 115.877L132.093 114.442L193.622 73.3295ZM196.498 77.634L197.456 79.0688L135.928 120.181L134.969 118.746L196.498 77.634ZM199.374 81.9384L199.853 82.6558L138.324 123.768L137.845 123.051L199.374 81.9384ZM199.853 82.6558C200.424 83.5096 200.965 84.3807 201.477 85.2677L137.391 122.268C137.686 122.777 137.997 123.278 138.324 123.768L199.853 82.6558ZM206.173 96.6031C206.438 97.5924 206.671 98.5913 206.871 99.5984L134.293 114.035C134.408 114.614 134.542 115.187 134.694 115.756L206.173 96.6031ZM206.871 99.5984L207.039 100.445L134.461 114.881L134.293 114.035L206.871 99.5984ZM207.713 103.83L208.049 105.522L135.471 119.959L135.135 118.266L207.713 103.83ZM208.723 108.907L209.059 110.6L136.481 125.036L136.145 123.344L208.723 108.907ZM209.733 113.985L209.901 114.831L137.323 129.267L137.155 128.421L209.733 113.985ZM209.901 114.831C210.101 115.838 210.268 116.85 210.402 117.865L137.035 127.524C137.112 128.108 137.208 128.689 137.323 129.267L209.901 114.831ZM210.402 130.135C210.268 131.15 210.101 132.162 209.901 133.169L137.323 118.733C137.208 119.311 137.112 119.892 137.035 120.476L210.402 130.135ZM209.901 133.169L209.733 134.015L137.155 119.579L137.323 118.733L209.901 133.169ZM209.059 137.4L208.723 139.093L136.145 124.656L136.481 122.964L209.059 137.4ZM208.049 142.478L207.713 144.17L135.135 129.734L135.471 128.041L208.049 142.478ZM207.039 147.555L206.871 148.402L134.293 133.965L134.461 133.119L207.039 147.555ZM206.871 148.402C206.671 149.409 206.438 150.408 206.173 151.397L134.694 132.244C134.542 132.813 134.408 133.386 134.293 133.965L206.871 148.402ZM201.477 162.732C200.965 163.619 200.424 164.49 199.853 165.344L138.324 124.232C137.997 124.722 137.686 125.223 137.391 125.732L201.477 162.732ZM199.853 165.344L199.374 166.062L137.845 124.949L138.324 124.232L199.853 165.344ZM197.456 168.931L196.498 170.366L134.969 129.254L135.928 127.819L197.456 168.931ZM194.58 173.236L193.622 174.671L132.093 133.558L133.052 132.123L194.58 173.236ZM191.704 177.54L191.225 178.258L129.696 137.145L130.175 136.428L191.704 177.54ZM191.225 178.258C190.654 179.111 190.057 179.945 189.433 180.758L130.725 135.709C130.367 136.176 130.024 136.655 129.696 137.145L191.225 178.258ZM180.758 189.433C179.945 190.057 179.111 190.654 178.258 191.225L137.145 129.696C136.655 130.024 136.176 130.367 135.709 130.725L180.758 189.433ZM178.258 191.225L177.54 191.704L136.428 130.175L137.145 129.696L178.258 191.225ZM174.67 193.622L173.236 194.58L132.123 133.052L133.558 132.093L174.67 193.622ZM170.366 196.498L168.931 197.456L127.819 135.928L129.254 134.969L170.366 196.498ZM166.062 199.374L165.344 199.853L124.232 138.325L124.949 137.845L166.062 199.374ZM165.344 199.853C164.49 200.424 163.619 200.965 162.732 201.477L125.732 137.392C125.223 137.686 124.722 137.997 124.232 138.325L165.344 199.853ZM151.397 206.173C150.408 206.438 149.409 206.671 148.402 206.871L133.965 134.293C133.386 134.408 132.813 134.542 132.244 134.694L151.397 206.173ZM148.402 206.871L147.555 207.039L133.119 134.461L133.965 134.293L148.402 206.871ZM144.17 207.713L142.478 208.049L128.041 135.471L129.734 135.135L144.17 207.713ZM139.093 208.723L137.4 209.059L122.964 136.481L124.656 136.145L139.093 208.723ZM134.015 209.733L133.169 209.901L118.733 137.323L119.579 137.155L134.015 209.733ZM133.169 209.901C132.162 210.101 131.15 210.268 130.135 210.402L120.476 137.035C119.892 137.112 119.311 137.208 118.733 137.323L133.169 209.901ZM117.865 210.402C116.85 210.268 115.838 210.101 114.831 209.901L129.267 137.323C128.689 137.208 128.108 137.112 127.524 137.035L117.865 210.402ZM114.831 209.901L113.985 209.733L128.421 137.155L129.267 137.323L114.831 209.901ZM110.6 209.059L108.907 208.723L123.344 136.145L125.036 136.481L110.6 209.059ZM105.522 208.049L103.83 207.713L118.266 135.135L119.959 135.471L105.522 208.049ZM100.445 207.039L99.5984 206.871L114.035 134.293L114.881 134.461L100.445 207.039ZM99.5984 206.871C98.5913 206.671 97.5924 206.438 96.6031 206.173L115.756 134.694C115.187 134.542 114.614 134.408 114.035 134.293L99.5984 206.871ZM85.2676 201.477C84.3807 200.965 83.5096 200.424 82.6558 199.853L123.768 138.325C123.278 137.997 122.777 137.686 122.268 137.392L85.2676 201.477ZM82.6558 199.853L81.9384 199.374L123.051 137.845L123.768 138.325L82.6558 199.853ZM79.0688 197.456L77.634 196.498L118.746 134.969L120.181 135.928L79.0688 197.456ZM74.7643 194.58L73.3295 193.622L114.442 132.093L115.877 133.052L74.7643 194.58ZM70.4599 191.704L69.7425 191.225L110.855 129.696L111.572 130.175L70.4599 191.704ZM69.7425 191.225C68.8887 190.654 68.055 190.057 67.2425 189.433L112.291 130.725C111.824 130.367 111.345 130.024 110.855 129.696L69.7425 191.225ZM58.5666 180.758C57.9432 179.945 57.3456 179.111 56.7752 178.258L118.304 137.145C117.976 136.655 117.633 136.176 117.275 135.709L58.5666 180.758ZM56.7752 178.258L56.2958 177.54L117.825 136.428L118.304 137.145L56.7752 178.258ZM54.3784 174.67L53.4197 173.236L114.948 132.123L115.907 133.558L54.3784 174.67ZM51.5022 170.366L50.5435 168.931L112.072 127.819L113.031 129.254L51.5022 170.366ZM48.6261 166.062L48.1467 165.344L109.675 124.232L110.155 124.949L48.6261 166.062ZM48.1467 165.344C47.5763 164.49 47.0347 163.619 46.5226 162.732L110.608 125.732C110.314 125.223 110.003 124.722 109.675 124.232L48.1467 165.344ZM41.8273 151.397C41.5622 150.408 41.3292 149.409 41.1289 148.402L113.707 133.965C113.592 133.386 113.458 132.813 113.306 132.244L41.8273 151.397ZM41.1289 148.402L40.9606 147.555L113.539 133.119L113.707 133.965L41.1289 148.402ZM40.2873 144.17L39.9506 142.478L112.529 128.041L112.865 129.734L40.2873 144.17ZM39.2773 139.093L38.9406 137.4L111.519 122.964L111.855 124.656L39.2773 139.093ZM38.2673 134.015L38.099 133.169L110.677 118.733L110.845 119.579L38.2673 134.015ZM38.099 133.169C37.8987 132.162 37.7317 131.15 37.598 130.135L110.965 120.476C110.888 119.892 110.792 119.311 110.677 118.733L38.099 133.169ZM37.598 117.865C37.7317 116.85 37.8987 115.838 38.099 114.831L110.677 129.267C110.792 128.689 110.888 128.108 110.965 127.524L37.598 117.865ZM38.099 114.831L38.2673 113.985L110.845 128.421L110.677 129.267L38.099 114.831ZM38.9406 110.6L39.2773 108.907L111.855 123.344L111.519 125.036L38.9406 110.6ZM39.9506 105.522L40.2873 103.83L112.865 118.266L112.529 119.959L39.9506 105.522ZM40.9606 100.445L41.1289 99.5984L113.707 114.035L113.539 114.881L40.9606 100.445ZM41.1289 99.5984C41.3292 98.5913 41.5622 97.5924 41.8273 96.6031L113.306 115.756C113.458 115.187 113.592 114.614 113.707 114.035L41.1289 99.5984ZM46.5226 85.2676C47.0347 84.3807 47.5763 83.5096 48.1467 82.6558L109.675 123.768C110.003 123.278 110.314 122.777 110.608 122.268L46.5226 85.2676ZM48.1467 82.6558L48.6261 81.9384L110.155 123.051L109.675 123.768L48.1467 82.6558ZM50.5435 79.0688L51.5023 77.634L113.031 118.746L112.072 120.181L50.5435 79.0688ZM53.4197 74.7643L54.3784 73.3295L115.907 114.442L114.948 115.877L53.4197 74.7643ZM56.2958 70.4599L56.7752 69.7425L118.304 110.855L117.825 111.572L56.2958 70.4599ZM56.7752 69.7425C57.3457 68.8887 57.9432 68.055 58.5667 67.2425L117.275 112.291C117.633 111.824 117.976 111.345 118.304 110.855L56.7752 69.7425ZM67.2425 58.5667C68.055 57.9432 68.8887 57.3456 69.7425 56.7752L110.855 118.304C111.345 117.976 111.824 117.633 112.291 117.275L67.2425 58.5667ZM69.7425 56.7752L70.4599 56.2958L111.572 117.825L110.855 118.304L69.7425 56.7752ZM73.3295 54.3784L74.7643 53.4197L115.877 114.948L114.442 115.907L73.3295 54.3784ZM77.634 51.5022L79.0688 50.5435L120.181 112.072L118.746 113.031L77.634 51.5022ZM81.9384 48.6261L82.6558 48.1467L123.768 109.675L123.051 110.155L81.9384 48.6261ZM82.6558 48.1467C83.5096 47.5763 84.3807 47.0347 85.2676 46.5226L122.268 110.608C122.777 110.314 123.278 110.003 123.768 109.675L82.6558 48.1467ZM96.6031 41.8273C97.5924 41.5622 98.5913 41.3292 99.5984 41.1289L114.035 113.707C114.614 113.592 115.187 113.458 115.756 113.306L96.6031 41.8273ZM99.5984 41.1289L100.445 40.9606L114.881 113.539L114.035 113.707L99.5984 41.1289ZM103.83 40.2873L105.522 39.9506L119.959 112.529L118.266 112.865L103.83 40.2873ZM108.907 39.2773L110.6 38.9406L125.036 111.519L123.344 111.855L108.907 39.2773ZM113.985 38.2673L114.831 38.099L129.267 110.677L128.421 110.845L113.985 38.2673ZM114.831 38.099C115.838 37.8987 116.85 37.7317 117.865 37.598L127.524 110.965C128.108 110.888 128.689 110.792 129.267 110.677L114.831 38.099ZM130.135 37.598C131.15 37.7317 132.162 37.8987 133.169 38.099L118.733 110.677C119.311 110.792 119.892 110.888 120.476 110.965L130.135 37.598ZM133.169 38.099L134.015 38.2673L119.579 110.845L118.733 110.677L133.169 38.099ZM137.4 38.9406L139.093 39.2773L124.656 111.855L122.964 111.519L137.4 38.9406ZM142.478 39.9506L144.17 40.2873L129.734 112.865L128.041 112.529L142.478 39.9506ZM147.555 40.9606L148.402 41.1289L133.965 113.707L133.119 113.539L147.555 40.9606ZM148.402 41.1289C149.409 41.3292 150.408 41.5622 151.397 41.8273L132.244 113.306C132.813 113.458 133.386 113.592 133.965 113.707L148.402 41.1289ZM162.732 46.5226C163.619 47.0347 164.49 47.5763 165.344 48.1467L124.232 109.675C124.722 110.003 125.223 110.314 125.732 110.608L162.732 46.5226ZM144.788 78.9111L185.9 17.3824L144.788 78.9111ZM141.183 77.418L126.747 149.996L141.183 77.418ZM160.46 90.2986L221.989 49.1864L160.46 90.2986ZM157.701 87.5396L198.814 26.0108L157.701 87.5396ZM170.582 106.817L243.16 92.3801L170.582 106.817ZM169.089 103.212L230.618 62.0997L169.089 103.212ZM173.612 125.951L101.034 111.514L173.612 125.951ZM173.612 122.049L101.034 136.486L173.612 122.049ZM169.089 144.788L107.56 103.676L169.089 144.788ZM170.582 141.183L98.0039 126.747L170.582 141.183ZM157.701 160.46L116.589 98.9317L157.701 160.46ZM160.46 157.701L221.989 198.814L160.46 157.701ZM141.183 170.582L126.747 98.0039L141.183 170.582ZM144.788 169.089L103.676 107.56L144.788 169.089ZM122.049 173.612L107.612 246.19L122.049 173.612ZM125.951 173.612L140.388 246.19L125.951 173.612ZM103.212 169.089L144.324 107.56L103.212 169.089ZM106.817 170.582L121.253 98.0039L106.817 170.582ZM87.5396 157.701L149.068 116.589L87.5396 157.701ZM90.2986 160.46L131.411 98.9317L90.2986 160.46ZM77.418 141.183L149.996 126.747L77.418 141.183ZM78.9111 144.788L140.44 103.676L78.9111 144.788ZM74.3881 122.049L1.80995 107.612L74.3881 122.049ZM74.3881 125.951L1.80995 140.388L74.3881 125.951ZM78.9111 103.212L140.44 144.324L78.9111 103.212ZM77.418 106.817L149.996 121.253L77.418 106.817ZM90.2986 87.5396L131.411 149.068L90.2986 87.5396ZM87.5396 90.2986L26.0108 49.1864L87.5396 90.2986ZM106.817 77.418L121.253 149.996L106.817 77.418ZM103.212 78.9111L144.324 140.44L103.212 78.9111ZM122.049 74.3881L136.486 146.966L122.049 74.3881ZM125.951 74.3881L140.388 1.80994L125.951 74.3881ZM185.9 17.3824L186.618 17.8617L104.393 140.919L103.676 140.44L185.9 17.3824ZM189.487 19.7792L190.922 20.7379L108.698 143.795L107.263 142.837L189.487 19.7792ZM193.792 22.6553L195.227 23.614L113.002 146.672L111.567 145.713L193.792 22.6553ZM198.096 25.5315L198.814 26.0108L116.589 149.068L115.872 148.589L198.096 25.5315ZM198.814 26.0108C200.34 27.0304 201.83 28.0983 203.282 29.2126L113.185 146.629C114.291 147.478 115.427 148.292 116.589 149.068L198.814 26.0108ZM218.787 44.7183C219.902 46.1705 220.97 47.6605 221.989 49.1864L98.9317 131.411C99.7085 132.573 100.522 133.709 101.371 134.815L218.787 44.7183ZM221.989 49.1864L222.469 49.9038L99.411 132.128L98.9317 131.411L221.989 49.1864ZM224.386 52.7734L225.345 54.2082L102.287 136.433L101.328 134.998L224.386 52.7734ZM227.262 57.0779L228.221 58.5127L105.163 140.737L104.205 139.302L227.262 57.0779ZM230.138 61.3823L230.618 62.0997L107.56 144.324L107.081 143.607L230.138 61.3823ZM230.618 62.0997C231.637 63.6256 232.605 65.1825 233.52 66.7677L105.349 140.768C106.046 141.975 106.783 143.162 107.56 144.324L230.618 62.0997ZM241.912 87.0269C242.386 88.7949 242.802 90.5802 243.16 92.3801L98.0039 121.253C98.2767 122.625 98.594 123.985 98.9549 125.332L241.912 87.0269ZM243.16 92.3801L243.328 93.2263L98.1722 122.1L98.0039 121.253L243.16 92.3801ZM244.002 96.6113L244.338 98.3038L99.1822 127.177L98.8456 125.485L244.002 96.6113ZM245.012 101.689L245.348 103.381L100.192 132.255L99.8555 130.562L245.012 101.689ZM246.022 106.766L246.19 107.612L101.034 136.486L100.865 135.64L246.022 106.766ZM246.19 107.612C246.548 109.412 246.847 111.221 247.085 113.036L100.352 132.354C100.534 133.736 100.761 135.114 101.034 136.486L246.19 107.612ZM247.085 134.964C246.847 136.779 246.548 138.588 246.19 140.388L101.034 111.514C100.761 112.886 100.534 114.264 100.352 115.646L247.085 134.964ZM246.19 140.388L246.022 141.234L100.865 112.36L101.034 111.514L246.19 140.388ZM245.348 144.619L245.012 146.311L99.8555 117.438L100.192 115.745L245.348 144.619ZM244.338 149.696L244.002 151.389L98.8456 122.515L99.1822 120.823L244.338 149.696ZM243.328 154.774L243.16 155.62L98.0039 126.747L98.1722 125.9L243.328 154.774ZM243.16 155.62C242.802 157.42 242.386 159.205 241.912 160.973L98.9549 122.668C98.594 124.015 98.2767 125.375 98.0039 126.747L243.16 155.62ZM233.52 181.232C232.605 182.818 231.637 184.374 230.618 185.9L107.56 103.676C106.783 104.838 106.046 106.025 105.349 107.232L233.52 181.232ZM230.618 185.9L230.138 186.618L107.081 104.393L107.56 103.676L230.618 185.9ZM228.221 189.487L227.262 190.922L104.205 108.698L105.163 107.263L228.221 189.487ZM225.345 193.792L224.386 195.227L101.328 113.002L102.287 111.567L225.345 193.792ZM222.469 198.096L221.989 198.814L98.9317 116.589L99.411 115.872L222.469 198.096ZM221.989 198.814C220.97 200.34 219.902 201.83 218.787 203.282L101.371 113.185C100.522 114.291 99.7085 115.427 98.9317 116.589L221.989 198.814ZM203.282 218.787C201.83 219.902 200.339 220.97 198.814 221.989L116.589 98.9317C115.427 99.7085 114.291 100.522 113.185 101.371L203.282 218.787ZM198.814 221.989L198.096 222.469L115.872 99.4111L116.589 98.9317L198.814 221.989ZM195.227 224.386L193.792 225.345L111.567 102.287L113.002 101.328L195.227 224.386ZM190.922 227.262L189.487 228.221L107.263 105.163L108.698 104.205L190.922 227.262ZM186.618 230.138L185.9 230.618L103.676 107.56L104.393 107.081L186.618 230.138ZM185.9 230.618C184.374 231.637 182.818 232.605 181.232 233.52L107.232 105.349C106.025 106.046 104.838 106.783 103.676 107.56L185.9 230.618ZM160.973 241.912C159.205 242.386 157.42 242.802 155.62 243.16L126.747 98.0039C125.375 98.2767 124.015 98.594 122.668 98.9549L160.973 241.912ZM155.62 243.16L154.774 243.328L125.9 98.1723L126.747 98.0039L155.62 243.16ZM151.389 244.002L149.696 244.338L120.823 99.1822L122.515 98.8456L151.389 244.002ZM146.311 245.012L144.619 245.348L115.745 100.192L117.438 99.8556L146.311 245.012ZM141.234 246.022L140.388 246.19L111.514 101.034L112.36 100.866L141.234 246.022ZM140.388 246.19C138.588 246.548 136.779 246.847 134.964 247.085L115.646 100.352C114.264 100.534 112.886 100.761 111.514 101.034L140.388 246.19ZM113.036 247.085C111.221 246.847 109.412 246.548 107.612 246.19L136.486 101.034C135.114 100.761 133.736 100.534 132.354 100.352L113.036 247.085ZM107.612 246.19L106.766 246.022L135.64 100.866L136.486 101.034L107.612 246.19ZM103.381 245.348L101.689 245.012L130.562 99.8556L132.255 100.192L103.381 245.348ZM98.3037 244.338L96.6112 244.002L125.485 98.8456L127.177 99.1822L98.3037 244.338ZM93.2263 243.328L92.38 243.16L121.253 98.0039L122.1 98.1723L93.2263 243.328ZM92.38 243.16C90.5802 242.802 88.7948 242.386 87.0268 241.912L125.332 98.9549C123.985 98.594 122.625 98.2767 121.253 98.0039L92.38 243.16ZM66.7676 233.52C65.1825 232.605 63.6256 231.637 62.0997 230.618L144.324 107.56C143.162 106.783 141.975 106.046 140.768 105.349L66.7676 233.52ZM62.0997 230.618L61.3823 230.138L143.607 107.081L144.324 107.56L62.0997 230.618ZM58.5127 228.221L57.0779 227.262L139.302 104.205L140.737 105.163L58.5127 228.221ZM54.2082 225.345L52.7734 224.386L134.998 101.328L136.433 102.287L54.2082 225.345ZM49.9038 222.469L49.1864 221.989L131.411 98.9317L132.128 99.4111L49.9038 222.469ZM49.1864 221.989C47.6605 220.97 46.1704 219.902 44.7183 218.787L134.815 101.371C133.709 100.522 132.573 99.7085 131.411 98.9317L49.1864 221.989ZM29.2126 203.282C28.0983 201.83 27.0303 200.339 26.0108 198.814L149.068 116.589C148.292 115.427 147.478 114.291 146.629 113.185L29.2126 203.282ZM26.0108 198.814L25.5314 198.096L148.589 115.872L149.068 116.589L26.0108 198.814ZM23.614 195.227L22.6553 193.792L145.713 111.567L146.672 113.002L23.614 195.227ZM20.7379 190.922L19.7791 189.487L142.837 107.263L143.795 108.698L20.7379 190.922ZM17.8617 186.618L17.3823 185.9L140.44 103.676L140.919 104.393L17.8617 186.618ZM17.3823 185.9C16.3628 184.374 15.3949 182.818 14.4797 181.232L142.651 107.232C141.954 106.025 141.217 104.838 140.44 103.676L17.3823 185.9ZM6.08804 160.973C5.6143 159.205 5.19787 157.42 4.83985 155.62L149.996 126.747C149.723 125.375 149.406 124.015 149.045 122.668L6.08804 160.973ZM4.83985 155.62L4.67152 154.774L149.828 125.9L149.996 126.747L4.83985 155.62ZM3.99821 151.389L3.66155 149.696L148.818 120.823L149.154 122.515L3.99821 151.389ZM2.98824 146.311L2.65157 144.619L147.808 115.745L148.144 117.438L2.98824 146.311ZM1.97827 141.234L1.80995 140.388L146.966 111.514L147.134 112.36L1.97827 141.234ZM1.80995 140.388C1.45193 138.588 1.15345 136.779 0.91453 134.964L147.648 115.646C147.466 114.264 147.239 112.886 146.966 111.514L1.80995 140.388ZM0.914532 113.036C1.15345 111.221 1.45193 109.412 1.80995 107.612L146.966 136.486C147.239 135.114 147.466 133.736 147.648 132.354L0.914532 113.036ZM1.80995 107.612L1.97827 106.766L147.134 135.64L146.966 136.486L1.80995 107.612ZM2.65158 103.381L2.98825 101.689L148.144 130.562L147.808 132.255L2.65158 103.381ZM3.66156 98.3037L3.99821 96.6113L149.154 125.485L148.818 127.177L3.66156 98.3037ZM4.67152 93.2263L4.83986 92.38L149.996 121.253L149.828 122.1L4.67152 93.2263ZM4.83986 92.38C5.19787 90.5802 5.6143 88.7948 6.08804 87.0268L149.045 125.332C149.406 123.985 149.723 122.625 149.996 121.253L4.83986 92.38ZM14.4797 66.7676C15.3949 65.1825 16.3628 63.6256 17.3824 62.0997L140.44 144.324C141.217 143.162 141.954 141.975 142.651 140.768L14.4797 66.7676ZM17.3824 62.0997L17.8617 61.3823L140.919 143.607L140.44 144.324L17.3824 62.0997ZM19.7792 58.5127L20.7379 57.0779L143.795 139.302L142.837 140.737L19.7792 58.5127ZM22.6553 54.2082L23.614 52.7734L146.672 134.998L145.713 136.433L22.6553 54.2082ZM25.5315 49.9038L26.0108 49.1864L149.068 131.411L148.589 132.128L25.5315 49.9038ZM26.0108 49.1864C27.0304 47.6605 28.0983 46.1704 29.2126 44.7183L146.629 134.815C147.478 133.709 148.292 132.573 149.068 131.411L26.0108 49.1864ZM44.7183 29.2126C46.1704 28.0983 47.6605 27.0304 49.1864 26.0108L131.411 149.068C132.573 148.292 133.709 147.478 134.815 146.629L44.7183 29.2126ZM49.1864 26.0108L49.9038 25.5315L132.128 148.589L131.411 149.068L49.1864 26.0108ZM52.7734 23.614L54.2082 22.6553L136.433 145.713L134.998 146.672L52.7734 23.614ZM57.0779 20.7379L58.5127 19.7792L140.737 142.837L139.302 143.795L57.0779 20.7379ZM61.3823 17.8617L62.0997 17.3824L144.324 140.44L143.607 140.919L61.3823 17.8617ZM62.0997 17.3824C63.6256 16.3628 65.1825 15.3949 66.7676 14.4797L140.768 142.651C141.975 141.954 143.162 141.217 144.324 140.44L62.0997 17.3824ZM87.0268 6.08804C88.7949 5.6143 90.5802 5.19786 92.3801 4.83984L121.253 149.996C122.625 149.723 123.985 149.406 125.332 149.045L87.0268 6.08804ZM92.3801 4.83984L93.2263 4.67152L122.1 149.828L121.253 149.996L92.3801 4.83984ZM96.6113 3.99821L98.3038 3.66155L127.177 148.818L125.485 149.154L96.6113 3.99821ZM101.689 2.98824L103.381 2.65158L132.255 147.808L130.562 148.144L101.689 2.98824ZM106.766 1.97827L107.612 1.80994L136.486 146.966L135.64 147.134L106.766 1.97827ZM107.612 1.80994C109.412 1.45192 111.221 1.15345 113.036 0.914538L132.354 147.648C133.736 147.466 135.114 147.239 136.486 146.966L107.612 1.80994ZM134.964 0.91454C136.779 1.15345 138.588 1.45192 140.388 1.80994L111.514 146.966C112.886 147.239 114.264 147.466 115.646 147.648L134.964 0.91454ZM140.388 1.80994L141.234 1.97828L112.36 147.134L111.514 146.966L140.388 1.80994ZM144.619 2.65159L146.311 2.98824L117.438 148.144L115.745 147.808L144.619 2.65159ZM149.696 3.66155L151.389 3.99821L122.515 149.154L120.823 148.818L149.696 3.66155ZM154.774 4.67152L155.62 4.83985L126.747 149.996L125.9 149.828L154.774 4.67152ZM155.62 4.83985C157.42 5.19787 159.205 5.6143 160.973 6.08804L122.668 149.045C124.015 149.406 125.375 149.723 126.747 149.996L155.62 4.83985ZM181.232 14.4797C182.818 15.3949 184.374 16.3628 185.9 17.3824L103.676 140.44C104.838 141.217 106.025 141.954 107.232 142.651L181.232 14.4797Z" fill="white" mask="url(#path-1-outside-1_1_96)"/>
</svg>
