<svg width="248" height="248" viewBox="0 0 248 248" fill="none" xmlns="http://www.w3.org/2000/svg">
<mask id="path-1-outside-1_1_102" maskUnits="userSpaceOnUse" x="-1.52116e-05" y="-1.52116e-05" width="248" height="248" fill="black">
<rect fill="white" x="-1.52116e-05" y="-1.52116e-05" width="248" height="248"/>
<path d="M125.951 74.3881C124.663 74.1319 123.337 74.1319 122.049 74.3881L106.817 77.418C105.529 77.6742 104.304 78.1815 103.212 78.9111L90.2986 87.5396C89.2067 88.2691 88.2691 89.2067 87.5396 90.2986L78.9111 103.212C78.1815 104.304 77.6742 105.529 77.418 106.817L74.3881 122.049C74.1319 123.337 74.1319 124.663 74.3881 125.951L77.418 141.183C77.6742 142.471 78.1815 143.696 78.9111 144.788L87.5396 157.701C88.2691 158.793 89.2066 159.731 90.2986 160.46L103.212 169.089C104.304 169.818 105.529 170.326 106.817 170.582L122.049 173.612C123.337 173.868 124.663 173.868 125.951 173.612L141.183 170.582C142.471 170.326 143.696 169.818 144.788 169.089L157.701 160.46C158.793 159.731 159.731 158.793 160.46 157.701L169.089 144.788C169.818 143.696 170.326 142.471 170.582 141.183L173.612 125.951C173.868 124.663 173.868 123.337 173.612 122.049L170.582 106.817C170.326 105.529 169.818 104.304 169.089 103.212L160.46 90.2986C159.731 89.2067 158.793 88.2692 157.701 87.5396L144.788 78.9111C143.696 78.1815 142.471 77.6742 141.183 77.418L125.951 74.3881Z"/>
</mask>
<path d="M144.788 78.9111L124.232 109.675L144.788 78.9111ZM141.183 77.418L133.965 113.707L141.183 77.418ZM160.46 90.2986L129.696 110.855L160.46 90.2986ZM157.701 87.5396L178.258 56.7752L157.701 87.5396ZM170.582 106.817L134.293 114.035L170.582 106.817ZM169.089 103.212L199.853 82.6558L169.089 103.212ZM173.612 125.951L137.323 118.733L173.612 125.951ZM173.612 122.049L209.901 114.831L173.612 122.049ZM169.089 144.788L199.853 165.344L169.089 144.788ZM170.582 141.183L206.871 148.402L170.582 141.183ZM157.701 160.46L137.145 129.696L157.701 160.46ZM160.46 157.701L129.696 137.145L160.46 157.701ZM141.183 170.582L133.965 134.293L141.183 170.582ZM144.788 169.089L124.232 138.325L144.788 169.089ZM122.049 173.612L129.267 137.323L129.267 137.323L122.049 173.612ZM125.951 173.612L133.169 209.901L125.951 173.612ZM103.212 169.089L82.6558 199.853L103.212 169.089ZM106.817 170.582L99.5984 206.871L106.817 170.582ZM87.5396 157.701L56.7752 178.258L87.5396 157.701ZM90.2986 160.46L110.855 129.696L90.2986 160.46ZM77.418 141.183L113.707 133.965L77.418 141.183ZM78.9111 144.788L109.675 124.232L78.9111 144.788ZM74.3881 122.049L110.677 129.267L74.3881 122.049ZM74.3881 125.951L110.677 118.733L74.3881 125.951ZM78.9111 103.212L48.1467 82.6558L78.9111 103.212ZM77.418 106.817L113.707 114.035L77.418 106.817ZM90.2986 87.5396L110.855 118.304L90.2986 87.5396ZM87.5396 90.2986L118.304 110.855L87.5396 90.2986ZM106.817 77.418L114.035 113.707L106.817 77.418ZM103.212 78.9111L82.6558 48.1467L103.212 78.9111ZM122.049 74.3881L129.267 110.677L122.049 74.3881ZM125.951 74.3881L133.169 38.099L125.951 74.3881ZM165.344 48.1467L166.151 48.686L125.039 110.215L124.232 109.675L165.344 48.1467ZM167.765 49.7646L169.38 50.8431L128.267 112.372L126.653 111.293L167.765 49.7646ZM170.994 51.9217L172.608 53.0002L131.496 114.529L129.882 113.45L170.994 51.9217ZM174.222 54.0788L175.836 55.1574L134.724 116.686L133.11 115.608L174.222 54.0788ZM177.45 56.2359L178.258 56.7752L137.145 118.304L136.338 117.765L177.45 56.2359ZM178.258 56.7752C179.539 57.6314 180.775 58.5486 181.962 59.5228L135.017 116.726C135.699 117.285 136.409 117.812 137.145 118.304L178.258 56.7752ZM188.477 66.0378C189.451 67.2249 190.369 68.4611 191.225 69.7425L129.696 110.855C130.188 111.591 130.715 112.301 131.274 112.983L188.477 66.0378ZM191.225 69.7425L191.764 70.5496L130.235 111.662L129.696 110.855L191.225 69.7425ZM192.843 72.1637L193.921 73.7779L132.392 114.89L131.314 113.276L192.843 72.1637ZM195 75.3921L196.078 77.0062L134.55 118.118L133.471 116.504L195 75.3921ZM197.157 78.6204L198.235 80.2346L136.707 121.347L135.628 119.733L197.157 78.6204ZM199.314 81.8488L199.853 82.6558L138.324 123.768L137.785 122.961L199.314 81.8488ZM199.853 82.6558C200.709 83.9372 201.501 85.2577 202.224 86.612L136.962 121.495C137.378 122.273 137.833 123.032 138.324 123.768L199.853 82.6558ZM205.75 95.1243C206.196 96.5938 206.57 98.0869 206.871 99.5984L134.293 114.035C134.466 114.903 134.681 115.761 134.937 116.605L205.75 95.1243ZM206.871 99.5984L207.06 100.55L134.482 114.987L134.293 114.035L206.871 99.5984ZM207.439 102.454L207.818 104.359L135.24 118.795L134.861 116.891L207.439 102.454ZM208.197 106.263L208.575 108.167L135.997 122.603L135.619 120.699L208.197 106.263ZM208.954 110.071L209.333 111.975L136.755 126.411L136.376 124.507L208.954 110.071ZM209.712 113.879L209.901 114.831L137.323 129.267L137.134 128.315L209.712 113.879ZM209.901 114.831C210.202 116.342 210.427 117.865 210.578 119.393L136.934 126.646C137.021 127.524 137.15 128.399 137.323 129.267L209.901 114.831ZM210.578 128.607C210.427 130.135 210.202 131.658 209.901 133.169L137.323 118.733C137.15 119.601 137.021 120.476 136.934 121.354L210.578 128.607ZM209.901 133.169L209.712 134.121L137.134 119.685L137.323 118.733L209.901 133.169ZM209.333 136.025L208.954 137.929L136.376 123.493L136.755 121.589L209.333 136.025ZM208.575 139.833L208.197 141.737L135.619 127.301L135.997 125.397L208.575 139.833ZM207.818 143.642L207.439 145.546L134.861 131.109L135.24 129.205L207.818 143.642ZM207.06 147.45L206.871 148.402L134.293 133.965L134.482 133.013L207.06 147.45ZM206.871 148.402C206.57 149.913 206.196 151.406 205.75 152.876L134.937 131.395C134.681 132.239 134.466 133.097 134.293 133.965L206.871 148.402ZM202.224 161.388C201.501 162.742 200.709 164.063 199.853 165.344L138.324 124.232C137.833 124.968 137.378 125.727 136.962 126.505L202.224 161.388ZM199.853 165.344L199.314 166.151L137.785 125.039L138.324 124.232L199.853 165.344ZM198.235 167.765L197.157 169.38L135.628 128.267L136.707 126.653L198.235 167.765ZM196.078 170.994L195 172.608L133.471 131.496L134.55 129.882L196.078 170.994ZM193.921 174.222L192.843 175.836L131.314 134.724L132.392 133.11L193.921 174.222ZM191.764 177.45L191.225 178.258L129.696 137.145L130.235 136.338L191.764 177.45ZM191.225 178.258C190.369 179.539 189.451 180.775 188.477 181.962L131.274 135.017C130.715 135.699 130.188 136.409 129.696 137.145L191.225 178.258ZM181.962 188.477C180.775 189.451 179.539 190.369 178.258 191.225L137.145 129.696C136.409 130.188 135.699 130.715 135.017 131.274L181.962 188.477ZM178.258 191.225L177.45 191.764L136.338 130.235L137.145 129.696L178.258 191.225ZM175.836 192.843L174.222 193.921L133.11 132.392L134.724 131.314L175.836 192.843ZM172.608 195L170.994 196.078L129.882 134.55L131.496 133.471L172.608 195ZM169.38 197.157L167.765 198.235L126.653 136.707L128.267 135.628L169.38 197.157ZM166.151 199.314L165.344 199.853L124.232 138.325L125.039 137.785L166.151 199.314ZM165.344 199.853C164.063 200.709 162.742 201.501 161.388 202.225L126.505 136.962C125.727 137.378 124.968 137.833 124.232 138.325L165.344 199.853ZM152.876 205.75C151.406 206.196 149.913 206.57 148.402 206.871L133.965 134.293C133.097 134.466 132.239 134.681 131.395 134.937L152.876 205.75ZM148.402 206.871L147.45 207.06L133.013 134.482L133.965 134.293L148.402 206.871ZM145.546 207.439L143.641 207.818L129.205 135.24L131.109 134.861L145.546 207.439ZM141.737 208.197L139.833 208.575L125.397 135.997L127.301 135.619L141.737 208.197ZM137.929 208.954L136.025 209.333L121.589 136.755L123.493 136.376L137.929 208.954ZM134.121 209.712L133.169 209.901L118.733 137.323L119.685 137.134L134.121 209.712ZM133.169 209.901C131.658 210.202 130.135 210.427 128.607 210.578L121.354 136.934C120.476 137.021 119.601 137.15 118.733 137.323L133.169 209.901ZM119.393 210.578C117.865 210.427 116.342 210.202 114.831 209.901L129.267 137.323C128.399 137.15 127.524 137.021 126.646 136.934L119.393 210.578ZM114.831 209.901L113.879 209.712L128.315 137.134L129.267 137.323L114.831 209.901ZM111.975 209.333L110.071 208.954L124.507 136.376L126.411 136.755L111.975 209.333ZM108.167 208.575L106.263 208.197L120.699 135.619L122.603 135.997L108.167 208.575ZM104.358 207.818L102.454 207.439L116.891 134.861L118.795 135.24L104.358 207.818ZM100.55 207.06L99.5984 206.871L114.035 134.293L114.987 134.482L100.55 207.06ZM99.5984 206.871C98.0869 206.57 96.5938 206.196 95.1242 205.75L116.605 134.937C115.761 134.681 114.903 134.466 114.035 134.293L99.5984 206.871ZM86.612 202.225C85.2577 201.501 83.9372 200.709 82.6558 199.853L123.768 138.325C123.032 137.833 122.273 137.378 121.495 136.962L86.612 202.225ZM82.6558 199.853L81.8487 199.314L122.961 137.785L123.768 138.325L82.6558 199.853ZM80.2346 198.235L78.6204 197.157L119.733 135.628L121.347 136.707L80.2346 198.235ZM77.0062 196.078L75.392 195L116.504 133.471L118.118 134.55L77.0062 196.078ZM73.7779 193.921L72.1637 192.843L113.276 131.314L114.89 132.392L73.7779 193.921ZM70.5495 191.764L69.7425 191.225L110.855 129.696L111.662 130.235L70.5495 191.764ZM69.7425 191.225C68.4611 190.369 67.2248 189.451 66.0377 188.477L112.983 131.274C112.301 130.715 111.591 130.188 110.855 129.696L69.7425 191.225ZM59.5228 181.962C58.5486 180.775 57.6314 179.539 56.7752 178.258L118.304 137.145C117.812 136.409 117.285 135.699 116.726 135.017L59.5228 181.962ZM56.7752 178.258L56.2359 177.45L117.765 136.338L118.304 137.145L56.7752 178.258ZM55.1573 175.836L54.0788 174.222L115.608 133.11L116.686 134.724L55.1573 175.836ZM53.0002 172.608L51.9217 170.994L113.45 129.882L114.529 131.496L53.0002 172.608ZM50.8431 169.38L49.7646 167.765L111.293 126.653L112.372 128.267L50.8431 169.38ZM48.686 166.151L48.1467 165.344L109.675 124.232L110.215 125.039L48.686 166.151ZM48.1467 165.344C47.2905 164.063 46.4994 162.742 45.7755 161.388L111.038 126.505C110.622 125.727 110.167 124.968 109.675 124.232L48.1467 165.344ZM42.2496 152.876C41.8038 151.406 41.4296 149.913 41.1289 148.402L113.707 133.965C113.534 133.097 113.319 132.239 113.063 131.395L42.2496 152.876ZM41.1289 148.402L40.9395 147.45L113.518 133.013L113.707 133.965L41.1289 148.402ZM40.5608 145.546L40.1821 143.641L112.76 129.205L113.139 131.109L40.5608 145.546ZM39.8033 141.737L39.4246 139.833L112.003 125.397L112.381 127.301L39.8033 141.737ZM39.0458 137.929L38.6671 136.025L111.245 121.589L111.624 123.493L39.0458 137.929ZM38.2884 134.121L38.099 133.169L110.677 118.733L110.866 119.685L38.2884 134.121ZM38.099 133.169C37.7983 131.658 37.5727 130.135 37.4222 128.607L111.066 121.354C110.979 120.476 110.85 119.601 110.677 118.733L38.099 133.169ZM37.4222 119.393C37.5728 117.865 37.7983 116.342 38.099 114.831L110.677 129.267C110.85 128.399 110.979 127.524 111.066 126.646L37.4222 119.393ZM38.099 114.831L38.2884 113.879L110.866 128.315L110.677 129.267L38.099 114.831ZM38.6671 111.975L39.0458 110.071L111.624 124.507L111.245 126.411L38.6671 111.975ZM39.4246 108.167L39.8033 106.263L112.381 120.699L112.003 122.603L39.4246 108.167ZM40.1821 104.359L40.5608 102.454L113.139 116.891L112.76 118.795L40.1821 104.359ZM40.9395 100.55L41.1289 99.5984L113.707 114.035L113.518 114.987L40.9395 100.55ZM41.1289 99.5984C41.4296 98.0869 41.8038 96.5938 42.2496 95.1242L113.063 116.605C113.319 115.761 113.534 114.903 113.707 114.035L41.1289 99.5984ZM45.7755 86.612C46.4994 85.2577 47.2905 83.9372 48.1467 82.6558L109.675 123.768C110.167 123.032 110.622 122.273 111.038 121.495L45.7755 86.612ZM48.1467 82.6558L48.686 81.8487L110.215 122.961L109.675 123.768L48.1467 82.6558ZM49.7646 80.2346L50.8431 78.6204L112.372 119.733L111.293 121.347L49.7646 80.2346ZM51.9217 77.0062L53.0002 75.3921L114.529 116.504L113.45 118.118L51.9217 77.0062ZM54.0788 73.7779L55.1574 72.1637L116.686 113.276L115.608 114.89L54.0788 73.7779ZM56.2359 70.5495L56.7752 69.7425L118.304 110.855L117.765 111.662L56.2359 70.5495ZM56.7752 69.7425C57.6314 68.4611 58.5486 67.2248 59.5228 66.0378L116.726 112.983C117.285 112.301 117.812 111.591 118.304 110.855L56.7752 69.7425ZM66.0378 59.5228C67.2248 58.5486 68.4611 57.6314 69.7425 56.7752L110.855 118.304C111.591 117.812 112.301 117.285 112.983 116.726L66.0378 59.5228ZM69.7425 56.7752L70.5495 56.2359L111.662 117.765L110.855 118.304L69.7425 56.7752ZM72.1637 55.1574L73.7779 54.0788L114.89 115.608L113.276 116.686L72.1637 55.1574ZM75.3921 53.0002L77.0062 51.9217L118.118 113.45L116.504 114.529L75.3921 53.0002ZM78.6204 50.8431L80.2346 49.7646L121.347 111.293L119.733 112.372L78.6204 50.8431ZM81.8487 48.686L82.6558 48.1467L123.768 109.675L122.961 110.215L81.8487 48.686ZM82.6558 48.1467C83.9372 47.2905 85.2577 46.4994 86.612 45.7755L121.495 111.038C122.273 110.622 123.032 110.167 123.768 109.675L82.6558 48.1467ZM95.1242 42.2496C96.5938 41.8038 98.0869 41.4296 99.5984 41.1289L114.035 113.707C114.903 113.534 115.761 113.319 116.605 113.063L95.1242 42.2496ZM99.5984 41.1289L100.55 40.9395L114.987 113.518L114.035 113.707L99.5984 41.1289ZM102.454 40.5608L104.359 40.1821L118.795 112.76L116.891 113.139L102.454 40.5608ZM106.263 39.8033L108.167 39.4246L122.603 112.003L120.699 112.381L106.263 39.8033ZM110.071 39.0458L111.975 38.6671L126.411 111.245L124.507 111.624L110.071 39.0458ZM113.879 38.2884L114.831 38.099L129.267 110.677L128.315 110.866L113.879 38.2884ZM114.831 38.099C116.342 37.7983 117.865 37.5727 119.393 37.4222L126.646 111.066C127.524 110.979 128.399 110.85 129.267 110.677L114.831 38.099ZM128.607 37.4222C130.135 37.5727 131.658 37.7983 133.169 38.099L118.733 110.677C119.601 110.85 120.476 110.979 121.354 111.066L128.607 37.4222ZM133.169 38.099L134.121 38.2884L119.685 110.866L118.733 110.677L133.169 38.099ZM136.025 38.6671L137.929 39.0458L123.493 111.624L121.589 111.245L136.025 38.6671ZM139.833 39.4246L141.737 39.8033L127.301 112.381L125.397 112.003L139.833 39.4246ZM143.641 40.1821L145.546 40.5608L131.109 113.139L129.205 112.76L143.641 40.1821ZM147.45 40.9395L148.402 41.1289L133.965 113.707L133.013 113.518L147.45 40.9395ZM148.402 41.1289C149.913 41.4296 151.406 41.8038 152.876 42.2496L131.395 113.063C132.239 113.319 133.097 113.534 133.965 113.707L148.402 41.1289ZM161.388 45.7755C162.742 46.4994 164.063 47.2906 165.344 48.1467L124.232 109.675C124.968 110.167 125.727 110.622 126.505 111.038L161.388 45.7755ZM144.788 78.9111L103.676 140.44L144.788 78.9111ZM141.183 77.418L126.747 149.996L141.183 77.418ZM160.46 90.2986L98.9317 131.411L160.46 90.2986ZM157.701 87.5396L198.814 26.0108L157.701 87.5396ZM170.582 106.817L98.0039 121.253L170.582 106.817ZM169.089 103.212L230.618 62.0997L169.089 103.212ZM173.612 125.951L101.034 111.514L173.612 125.951ZM173.612 122.049L246.19 107.612L173.612 122.049ZM169.089 144.788L230.618 185.9L169.089 144.788ZM170.582 141.183L243.16 155.62L170.582 141.183ZM157.701 160.46L116.589 98.9317L157.701 160.46ZM160.46 157.701L98.9317 116.589L160.46 157.701ZM141.183 170.582L126.747 98.0039L141.183 170.582ZM144.788 169.089L103.676 107.56L144.788 169.089ZM122.049 173.612L136.486 101.034L122.049 173.612ZM125.951 173.612L140.388 246.19L125.951 173.612ZM103.212 169.089L62.0997 230.618L103.212 169.089ZM106.817 170.582L92.38 243.16L106.817 170.582ZM87.5396 157.701L26.0108 198.814L87.5396 157.701ZM90.2986 160.46L131.411 98.9317L90.2986 160.46ZM77.418 141.183L149.996 126.747L77.418 141.183ZM78.9111 144.788L140.44 103.676L78.9111 144.788ZM74.3881 122.049L146.966 136.486L74.3881 122.049ZM74.3881 125.951L146.966 111.514L74.3881 125.951ZM78.9111 103.212L17.3824 62.0997L78.9111 103.212ZM77.418 106.817L149.996 121.253L77.418 106.817ZM90.2986 87.5396L131.411 149.068L90.2986 87.5396ZM87.5396 90.2986L149.068 131.411L87.5396 90.2986ZM106.817 77.418L121.253 149.996L106.817 77.418ZM103.212 78.9111L62.0997 17.3824L103.212 78.9111ZM122.049 74.3881L136.486 146.966L122.049 74.3881ZM125.951 74.3881L140.388 1.80994L125.951 74.3881ZM185.9 17.3824L186.707 17.9217L104.483 140.979L103.676 140.44L185.9 17.3824ZM188.322 19.0002L189.936 20.0788L107.711 143.136L106.097 142.058L188.322 19.0002ZM191.55 21.1573L193.164 22.2359L110.94 145.293L109.325 144.215L191.55 21.1573ZM194.778 23.3144L196.392 24.393L114.168 147.45L112.554 146.372L194.778 23.3144ZM198.007 25.4715L198.814 26.0108L116.589 149.068L115.782 148.529L198.007 25.4715ZM198.814 26.0108C201.104 27.541 203.313 29.1803 205.435 30.9214L111.545 145.327C113.161 146.654 114.844 147.902 116.589 149.068L198.814 26.0108ZM217.079 42.5652C218.82 44.6868 220.459 46.8962 221.989 49.1864L98.9317 131.411C100.098 133.156 101.346 134.839 102.673 136.455L217.079 42.5652ZM221.989 49.1864L222.528 49.9935L99.471 132.218L98.9317 131.411L221.989 49.1864ZM223.607 51.6076L224.686 53.2218L101.628 135.446L100.55 133.832L223.607 51.6076ZM225.764 54.836L226.843 56.4501L103.785 138.675L102.707 137.06L225.764 54.836ZM227.921 58.0643L229 59.6785L105.942 141.903L104.864 140.289L227.921 58.0643ZM230.078 61.2927L230.618 62.0997L107.56 144.324L107.021 143.517L230.078 61.2927ZM230.618 62.0997C232.148 64.3899 233.562 66.7498 234.856 69.1704L104.331 138.937C105.317 140.781 106.394 142.579 107.56 144.324L230.618 62.0997ZM241.157 84.3837C241.954 87.0101 242.623 89.6787 243.16 92.3801L98.0039 121.253C98.4133 123.312 98.923 125.345 99.53 127.346L241.157 84.3837ZM243.16 92.3801L243.35 93.3321L98.1933 122.205L98.0039 121.253L243.16 92.3801ZM243.728 95.2361L244.107 97.1402L98.9508 126.014L98.572 124.109L243.728 95.2361ZM244.486 99.0442L244.864 100.948L99.7082 129.822L99.3295 127.918L244.486 99.0442ZM245.243 102.852L245.622 104.756L100.466 133.63L100.087 131.726L245.243 102.852ZM246.001 106.66L246.19 107.612L101.034 136.486L100.844 135.534L246.001 106.66ZM246.19 107.612C246.727 110.314 247.131 113.035 247.4 115.767L100.112 130.273C100.317 132.354 100.624 134.428 101.034 136.486L246.19 107.612ZM247.4 132.233C247.131 134.965 246.727 137.686 246.19 140.388L101.034 111.514C100.624 113.572 100.317 115.646 100.112 117.727L247.4 132.233ZM246.19 140.388L246.001 141.34L100.844 112.466L101.034 111.514L246.19 140.388ZM245.622 143.244L245.243 145.148L100.087 116.274L100.466 114.37L245.622 143.244ZM244.864 147.052L244.486 148.956L99.3295 120.082L99.7082 118.178L244.864 147.052ZM244.107 150.86L243.728 152.764L98.572 123.891L98.9508 121.986L244.107 150.86ZM243.35 154.668L243.16 155.62L98.0039 126.747L98.1933 125.795L243.35 154.668ZM243.16 155.62C242.623 158.321 241.954 160.99 241.157 163.616L99.53 120.654C98.923 122.655 98.4133 124.688 98.0039 126.747L243.16 155.62ZM234.856 178.83C233.562 181.25 232.148 183.61 230.618 185.9L107.56 103.676C106.394 105.421 105.317 107.219 104.331 109.063L234.856 178.83ZM230.618 185.9L230.078 186.707L107.021 104.483L107.56 103.676L230.618 185.9ZM229 188.322L227.921 189.936L104.864 107.711L105.942 106.097L229 188.322ZM226.843 191.55L225.764 193.164L102.707 110.94L103.785 109.325L226.843 191.55ZM224.686 194.778L223.607 196.392L100.55 114.168L101.628 112.554L224.686 194.778ZM222.528 198.007L221.989 198.814L98.9317 116.589L99.471 115.782L222.528 198.007ZM221.989 198.814C220.459 201.104 218.82 203.313 217.079 205.435L102.673 111.545C101.346 113.161 100.098 114.844 98.9317 116.589L221.989 198.814ZM205.435 217.079C203.313 218.82 201.104 220.459 198.814 221.989L116.589 98.9317C114.844 100.098 113.161 101.347 111.545 102.673L205.435 217.079ZM198.814 221.989L198.007 222.528L115.782 99.471L116.589 98.9317L198.814 221.989ZM196.392 223.607L194.778 224.686L112.554 101.628L114.168 100.55L196.392 223.607ZM193.164 225.764L191.55 226.843L109.325 103.785L110.94 102.707L193.164 225.764ZM189.936 227.921L188.322 229L106.097 105.942L107.711 104.864L189.936 227.921ZM186.707 230.078L185.9 230.618L103.676 107.56L104.483 107.021L186.707 230.078ZM185.9 230.618C183.61 232.148 181.25 233.562 178.83 234.856L109.063 104.331C107.219 105.317 105.421 106.394 103.676 107.56L185.9 230.618ZM163.616 241.157C160.99 241.954 158.321 242.623 155.62 243.16L126.747 98.0039C124.688 98.4133 122.655 98.923 120.654 99.53L163.616 241.157ZM155.62 243.16L154.668 243.35L125.795 98.1933L126.747 98.0039L155.62 243.16ZM152.764 243.728L150.86 244.107L121.986 98.9508L123.891 98.5721L152.764 243.728ZM148.956 244.486L147.052 244.864L118.178 99.7083L120.082 99.3295L148.956 244.486ZM145.148 245.243L143.244 245.622L114.37 100.466L116.274 100.087L145.148 245.243ZM141.34 246.001L140.388 246.19L111.514 101.034L112.466 100.844L141.34 246.001ZM140.388 246.19C137.686 246.727 134.965 247.131 132.233 247.4L117.727 100.112C115.646 100.317 113.572 100.624 111.514 101.034L140.388 246.19ZM115.767 247.4C113.035 247.131 110.314 246.727 107.612 246.19L136.486 101.034C134.428 100.624 132.354 100.317 130.273 100.112L115.767 247.4ZM107.612 246.19L106.66 246.001L135.534 100.844L136.486 101.034L107.612 246.19ZM104.756 245.622L102.852 245.243L131.726 100.087L133.63 100.466L104.756 245.622ZM100.948 244.864L99.0442 244.486L127.918 99.3295L129.822 99.7083L100.948 244.864ZM97.1402 244.107L95.2361 243.728L124.109 98.5721L126.014 98.9508L97.1402 244.107ZM93.3321 243.35L92.38 243.16L121.253 98.0039L122.205 98.1933L93.3321 243.35ZM92.38 243.16C89.6786 242.623 87.0101 241.954 84.3837 241.157L127.346 99.53C125.345 98.923 123.312 98.4133 121.253 98.0039L92.38 243.16ZM69.1703 234.856C66.7498 233.562 64.3899 232.148 62.0997 230.618L144.324 107.56C142.579 106.394 140.781 105.317 138.937 104.331L69.1703 234.856ZM62.0997 230.618L61.2926 230.078L143.517 107.021L144.324 107.56L62.0997 230.618ZM59.6785 229L58.0643 227.921L140.289 104.864L141.903 105.942L59.6785 229ZM56.4501 226.843L54.8359 225.764L137.06 102.707L138.675 103.785L56.4501 226.843ZM53.2218 224.686L51.6076 223.607L133.832 100.55L135.446 101.628L53.2218 224.686ZM49.9934 222.528L49.1864 221.989L131.411 98.9317L132.218 99.471L49.9934 222.528ZM49.1864 221.989C46.8962 220.459 44.6868 218.82 42.5652 217.079L136.455 102.673C134.839 101.347 133.156 100.098 131.411 98.9317L49.1864 221.989ZM30.9214 205.435C29.1802 203.313 27.541 201.104 26.0108 198.814L149.068 116.589C147.902 114.844 146.654 113.161 145.327 111.545L30.9214 205.435ZM26.0108 198.814L25.4715 198.007L148.529 115.782L149.068 116.589L26.0108 198.814ZM24.393 196.392L23.3144 194.778L146.372 112.554L147.45 114.168L24.393 196.392ZM22.2358 193.164L21.1573 191.55L144.215 109.326L145.293 110.94L22.2358 193.164ZM20.0787 189.936L19.0002 188.322L142.058 106.097L143.136 107.711L20.0787 189.936ZM17.9216 186.707L17.3823 185.9L140.44 103.676L140.979 104.483L17.9216 186.707ZM17.3823 185.9C15.8521 183.61 14.4382 181.25 13.1444 178.83L143.669 109.063C142.683 107.219 141.606 105.421 140.44 103.676L17.3823 185.9ZM6.84283 163.616C6.04612 160.99 5.37719 158.321 4.83985 155.62L149.996 126.747C149.587 124.688 149.077 122.655 148.47 120.654L6.84283 163.616ZM4.83985 155.62L4.65048 154.668L149.807 125.795L149.996 126.747L4.83985 155.62ZM4.27174 152.764L3.893 150.86L149.049 121.986L149.428 123.891L4.27174 152.764ZM3.51426 148.956L3.13552 147.052L148.292 118.178L148.67 120.082L3.51426 148.956ZM2.75678 145.148L2.37805 143.244L147.534 114.37L147.913 116.274L2.75678 145.148ZM1.99931 141.34L1.80995 140.388L146.966 111.514L147.156 112.466L1.99931 141.34ZM1.80995 140.388C1.27261 137.686 0.869395 134.965 0.600382 132.233L147.888 117.727C147.683 115.646 147.376 113.572 146.966 111.514L1.80995 140.388ZM0.600384 115.767C0.869397 113.035 1.27261 110.314 1.80995 107.612L146.966 136.486C147.376 134.428 147.683 132.354 147.888 130.273L0.600384 115.767ZM1.80995 107.612L1.99931 106.66L147.156 135.534L146.966 136.486L1.80995 107.612ZM2.37805 104.756L2.75679 102.852L147.913 131.726L147.534 133.63L2.37805 104.756ZM3.13553 100.948L3.51426 99.0442L148.67 127.918L148.292 129.822L3.13553 100.948ZM3.893 97.1402L4.27174 95.2361L149.428 124.109L149.049 126.014L3.893 97.1402ZM4.65048 93.3321L4.83986 92.38L149.996 121.253L149.807 122.205L4.65048 93.3321ZM4.83986 92.38C5.3772 89.6786 6.04613 87.0101 6.84283 84.3837L148.47 127.346C149.077 125.345 149.587 123.312 149.996 121.253L4.83986 92.38ZM13.1444 69.1703C14.4382 66.7498 15.8522 64.3899 17.3824 62.0997L140.44 144.324C141.606 142.579 142.683 140.781 143.669 138.937L13.1444 69.1703ZM17.3824 62.0997L17.9216 61.2926L140.979 143.517L140.44 144.324L17.3824 62.0997ZM19.0002 59.6785L20.0788 58.0643L143.136 140.289L142.058 141.903L19.0002 59.6785ZM21.1573 56.4501L22.2359 54.836L145.293 137.06L144.215 138.675L21.1573 56.4501ZM23.3144 53.2218L24.393 51.6076L147.45 133.832L146.372 135.446L23.3144 53.2218ZM25.4715 49.9934L26.0108 49.1864L149.068 131.411L148.529 132.218L25.4715 49.9934ZM26.0108 49.1864C27.541 46.8962 29.1802 44.6868 30.9214 42.5652L145.327 136.455C146.654 134.839 147.902 133.156 149.068 131.411L26.0108 49.1864ZM42.5652 30.9214C44.6868 29.1802 46.8962 27.541 49.1864 26.0108L131.411 149.068C133.156 147.902 134.839 146.654 136.455 145.327L42.5652 30.9214ZM49.1864 26.0108L49.9934 25.4715L132.218 148.529L131.411 149.068L49.1864 26.0108ZM51.6076 24.393L53.2218 23.3144L135.446 146.372L133.832 147.45L51.6076 24.393ZM54.836 22.2359L56.4501 21.1573L138.675 144.215L137.06 145.293L54.836 22.2359ZM58.0643 20.0788L59.6785 19.0002L141.903 142.058L140.289 143.136L58.0643 20.0788ZM61.2926 17.9216L62.0997 17.3824L144.324 140.44L143.517 140.979L61.2926 17.9216ZM62.0997 17.3824C64.3899 15.8521 66.7498 14.4382 69.1703 13.1444L138.937 143.669C140.781 142.683 142.579 141.606 144.324 140.44L62.0997 17.3824ZM84.3837 6.84283C87.0101 6.04611 89.6787 5.37719 92.3801 4.83984L121.253 149.996C123.312 149.587 125.345 149.077 127.346 148.47L84.3837 6.84283ZM92.3801 4.83984L93.3321 4.65048L122.205 149.807L121.253 149.996L92.3801 4.83984ZM95.2361 4.27174L97.1402 3.893L126.014 149.049L124.109 149.428L95.2361 4.27174ZM99.0442 3.51426L100.948 3.13552L129.822 148.292L127.918 148.67L99.0442 3.51426ZM102.852 2.75678L104.756 2.37805L133.63 147.534L131.726 147.913L102.852 2.75678ZM106.66 1.99931L107.612 1.80994L136.486 146.966L135.534 147.156L106.66 1.99931ZM107.612 1.80994C110.314 1.2726 113.035 0.869402 115.767 0.600382L130.273 147.888C132.354 147.683 134.428 147.376 136.486 146.966L107.612 1.80994ZM132.233 0.600384C134.965 0.869404 137.686 1.2726 140.388 1.80994L111.514 146.966C113.572 147.376 115.646 147.683 117.727 147.888L132.233 0.600384ZM140.388 1.80994L141.34 1.99931L112.466 147.156L111.514 146.966L140.388 1.80994ZM143.244 2.37805L145.148 2.75679L116.274 147.913L114.37 147.534L143.244 2.37805ZM147.052 3.13553L148.956 3.51426L120.082 148.67L118.178 148.292L147.052 3.13553ZM150.86 3.893L152.764 4.27174L123.891 149.428L121.986 149.049L150.86 3.893ZM154.668 4.65048L155.62 4.83985L126.747 149.996L125.795 149.807L154.668 4.65048ZM155.62 4.83985C158.321 5.37719 160.99 6.04612 163.616 6.84283L120.654 148.47C122.655 149.077 124.688 149.587 126.747 149.996L155.62 4.83985ZM178.83 13.1444C181.25 14.4382 183.61 15.8522 185.9 17.3824L103.676 140.44C105.421 141.606 107.219 142.683 109.063 143.669L178.83 13.1444Z" fill="white" mask="url(#path-1-outside-1_1_102)"/>
</svg>
