<svg width="100" height="100" viewBox="0 0 100 100" fill="none" xmlns="http://www.w3.org/2000/svg">
<path d="M52.8701 0.570899L50.9567 0.190297L50.4973 2.5L51.4918 7.5L52.8701 0.570899ZM50.9946 10L50 5L49.0054 10L50 15L50.9946 10ZM49.0054 20L48.0109 15L47.0163 20L48.0109 25L49.0054 20ZM46.4433 27.1194L46.0217 25L45.7936 26.147L46.4433 27.1194ZM46.9406 29.6194L45.5245 27.5L45.0272 30L45.1029 30.3806L46.519 32.5L47.0163 30L46.9406 29.6194ZM50 25L49.0054 30L49.2756 31.3582L50 32.4423L50.7244 31.3582L50.9946 30L50 25ZM50.9946 20L51.9891 25L52.9837 20L51.9891 15L50.9946 20ZM52.4864 12.5L53.481 17.5L56.697 1.3321L54.7835 0.951502L52.4864 12.5ZM60.5238 2.09331L58.6104 1.71271L54.4755 22.5L54.9728 25L56.3889 22.8806L60.5238 2.09331ZM55.8917 25.3806L55.2419 26.353L55.4701 27.5L55.8917 25.3806ZM58.7239 21.1418L57.7294 26.1418L60.5616 21.903L61.5562 16.903L58.7239 21.1418ZM64.3885 12.6642L63.3939 17.6642L66.2262 13.4254L67.2208 8.42542L64.3885 12.6642ZM68.6369 6.30602L67.6423 11.306L71.5673 5.43182L69.9452 4.34795L68.6369 6.30602ZM74.8116 7.59954L73.1895 6.51568L66.6478 16.306L65.6532 21.306L74.8116 7.59954ZM76.4337 8.68341L64.6586 26.306L64.1614 28.806L66.2808 27.3899L78.0558 9.76727L76.4337 8.68341ZM64.8646 29.5093L63.8922 30.159L63.6641 31.306L64.8646 29.5093ZM69.1034 26.677L66.2711 30.9158L70.5099 28.0835L73.3422 23.8447L69.1034 26.677ZM77.581 21.0125L74.7487 25.2513L78.9875 22.419L81.8198 18.1802L77.581 21.0125ZM83.9392 16.7641L81.1069 21.0029L86.9811 17.0778L85.8973 15.4557L83.9392 16.7641ZM89.1489 20.3221L88.065 18.7L78.2746 25.2417L75.4424 29.4805L89.1489 20.3221ZM90.2327 21.9442L72.6101 33.7193L71.194 35.8386L73.694 35.3414L91.3166 23.5663L90.2327 21.9442ZM71.5746 36.7575L70.4276 36.9857L69.7778 37.958L71.5746 36.7575ZM76.5746 35.7629L72.3358 38.5952L77.3358 37.6006L81.5746 34.7684L76.5746 35.7629ZM86.5746 33.7738L82.3358 36.6061L87.3358 35.6115L91.5746 32.7793L86.5746 33.7738ZM94.0746 32.282L89.8358 35.1142L96.7649 33.736L96.3843 31.8225L94.0746 32.282ZM97.5261 37.5628L97.1455 35.6494L85.597 37.9465L81.3582 40.7788L97.5261 37.5628ZM97.9067 39.4762L77.1194 43.6111L75 45.0272L77.5 45.5245L98.2873 41.3896L97.9067 39.4762ZM75 46.0218L73.853 45.7936L72.8806 46.4433L75 46.0218ZM80 47.0163L75 48.0109L80 49.0054L85 48.0109L80 47.0163ZM90 49.0055L85 50L90 50.9946L95 50L90 49.0055ZM97.5 50.4973L92.5 51.4919L99.4291 52.8701L99.8097 50.9567L97.5 50.4973ZM98.6679 56.697L99.0485 54.7836L87.5 52.4864L82.5 53.481L98.6679 56.697ZM98.2873 58.6104L77.5 54.4755L75 54.9728L77.1194 56.389L97.9067 60.5238L98.2873 58.6104ZM74.6194 55.8917L73.647 55.2419L72.5 55.4701L74.6194 55.8917ZM78.8582 58.7239L73.8582 57.7294L78.097 60.5617L83.097 61.5562L78.8582 58.7239ZM87.3358 64.3885L82.3358 63.3939L86.5746 66.2262L91.5746 67.2208L87.3358 64.3885ZM93.694 68.6369L88.694 67.6423L94.5682 71.5674L95.652 69.9452L93.694 68.6369ZM92.4004 74.8116L93.4843 73.1895L83.694 66.6478L78.694 65.6532L92.4004 74.8116ZM91.3166 76.4337L73.694 64.6587L71.194 64.1614L72.6101 66.2808L90.2327 78.0558L91.3166 76.4337ZM70.4907 64.8646L69.841 63.8922L68.694 63.6641L70.4907 64.8646ZM73.323 69.1034L69.0842 66.2712L71.9165 70.51L76.1553 73.3422L73.323 69.1034ZM78.9875 77.581L74.7487 74.7488L77.581 78.9876L81.8198 81.8198L78.9875 77.581ZM83.2359 83.9392L78.9971 81.107L82.9222 86.9812L84.5443 85.8973L83.2359 83.9392ZM79.6779 89.1489L81.3 88.065L74.7583 78.2747L70.5196 75.4424L79.6779 89.1489ZM78.0558 90.2327L66.2808 72.6101L64.1614 71.194L64.6586 73.694L76.4337 91.3166L78.0558 90.2327ZM63.2425 71.5746L63.0143 70.4276L62.042 69.7779L63.2425 71.5746ZM64.2371 76.5746L61.4048 72.3358L62.3994 77.3358L65.2316 81.5746L64.2371 76.5746ZM66.2262 86.5746L63.3939 82.3358L64.3885 87.3358L67.2207 91.5746L66.2262 86.5746ZM67.718 94.0746L64.8858 89.8358L66.264 96.7649L68.1775 96.3843L67.718 94.0746ZM62.4372 97.5261L64.3506 97.1455L62.0535 85.597L59.2212 81.3582L62.4372 97.5261ZM60.5238 97.9067L56.3889 77.1194L54.9728 75L54.4755 77.5L58.6104 98.2873L60.5238 97.9067ZM53.9782 75L54.2064 73.853L53.5567 72.8806L53.9782 75ZM52.9837 80L51.9891 75L50.9946 80L51.9891 85L52.9837 80ZM50.9946 90L50 85L49.0054 90L50 95L50.9946 90ZM49.5027 97.5L48.5081 92.5L47.1299 99.4291L49.0433 99.8097L49.5027 97.5ZM43.303 98.6679L45.2164 99.0485L47.5136 87.5L46.519 82.5L43.303 98.6679ZM41.3896 98.2873L45.5245 77.5L45.0272 75L43.611 77.1194L39.4762 97.9067L41.3896 98.2873ZM44.1083 74.6194L44.7581 73.647L44.5299 72.5L44.1083 74.6194ZM41.2761 78.8582L42.2706 73.8582L39.4383 78.097L38.4438 83.097L41.2761 78.8582ZM35.6115 87.3358L36.6061 82.3358L33.7738 86.5746L32.7792 91.5746L35.6115 87.3358ZM31.3631 93.694L32.3577 88.694L28.4326 94.5682L30.0548 95.6521L31.3631 93.694ZM25.1884 92.4005L26.8105 93.4843L33.3522 83.694L34.3468 78.694L25.1884 92.4005ZM23.5663 91.3166L35.3414 73.694L35.8386 71.194L33.7192 72.6101L21.9442 90.2327L23.5663 91.3166ZM35.1354 70.4907L36.1078 69.841L36.3359 68.694L35.1354 70.4907ZM30.8966 73.323L33.7288 69.0842L29.4901 71.9165L26.6578 76.1553L30.8966 73.323ZM22.419 78.9875L25.2513 74.7488L21.0125 77.581L18.1802 81.8198L22.419 78.9875ZM16.0608 83.236L18.8931 78.9972L13.0189 82.9222L14.1027 84.5443L16.0608 83.236ZM10.8511 79.6779L11.935 81.3001L21.7253 74.7584L24.5576 70.5196L10.8511 79.6779ZM9.76727 78.0558L27.3899 66.2808L28.806 64.1614L26.306 64.6586L8.6834 76.4337L9.76727 78.0558ZM28.4254 63.2425L29.5724 63.0144L30.2222 62.042L28.4254 63.2425ZM23.4254 64.2371L27.6642 61.4048L22.6642 62.3994L18.4254 65.2316L23.4254 64.2371ZM13.4254 66.2262L17.6642 63.3939L12.6642 64.3885L8.42542 67.2208L13.4254 66.2262ZM5.92542 67.718L10.1642 64.8858L3.23512 66.2641L3.61572 68.1775L5.92542 67.718ZM2.47391 62.4372L2.85451 64.3506L14.403 62.0535L18.6418 59.2212L2.47391 62.4372ZM2.09331 60.5238L22.8806 56.3889L25 54.9728L22.5 54.4755L1.7127 58.6104L2.09331 60.5238ZM25 53.9783L26.147 54.2064L27.1194 53.5567L25 53.9783ZM20 52.9837L25 51.9891L20 50.9946L15 51.9891L20 52.9837ZM10 50.9946L15 50L10 49.0054L5 50L10 50.9946ZM2.5 49.5027L7.5 48.5082L0.570896 47.1299L0.190296 49.0433L2.5 49.5027ZM1.3321 43.303L0.951504 45.2165L12.5 47.5136L17.5 46.519L1.3321 43.303ZM1.7127 41.3896L22.5 45.5245L25 45.0272L22.8806 43.6111L2.09331 39.4762L1.7127 41.3896ZM25.3806 44.1083L26.353 44.7581L27.5 44.5299L25.3806 44.1083ZM21.1418 41.2761L26.1418 42.2706L21.903 39.4384L16.903 38.4438L21.1418 41.2761ZM12.6642 35.6115L17.6642 36.6061L13.4254 33.7738L8.42542 32.7792L12.6642 35.6115ZM6.30602 31.3631L11.306 32.3577L5.43181 28.4327L4.34795 30.0548L6.30602 31.3631ZM7.59955 25.1884L6.51568 26.8105L16.306 33.3522L21.306 34.3468L7.59955 25.1884ZM8.68341 23.5663L26.306 35.3414L28.806 35.8386L27.3899 33.7192L9.76727 21.9442L8.68341 23.5663ZM29.5093 35.1354L30.159 36.1078L31.306 36.3359L29.5093 35.1354ZM26.677 30.8966L30.9158 33.7289L28.0835 29.4901L23.8447 26.6578L26.677 30.8966ZM21.0125 22.419L25.2513 25.2513L22.419 21.0125L18.1802 18.1802L21.0125 22.419ZM16.7641 16.0608L21.0029 18.8931L17.0778 13.0189L15.4557 14.1027L16.7641 16.0608ZM20.3221 10.8511L18.7 11.935L25.2417 21.7253L29.4805 24.5576L20.3221 10.8511ZM21.9442 9.76727L33.7192 27.3899L35.8386 28.806L35.3414 26.306L23.5663 8.6834L21.9442 9.76727ZM36.7575 28.4254L36.9856 29.5724L37.958 30.2222L36.7575 28.4254ZM35.7629 23.4254L38.5952 27.6642L37.6006 22.6642L34.7684 18.4254L35.7629 23.4254ZM33.7738 13.4254L36.6061 17.6642L35.6115 12.6642L32.7792 8.42541L33.7738 13.4254ZM32.282 5.92541L35.1142 10.1642L33.736 3.23511L31.8225 3.61572L32.282 5.92541ZM37.5628 2.47391L35.6494 2.85451L37.9465 14.403L40.7788 18.6418L37.5628 2.47391ZM44.7581 26.353L44.1083 25.3806L44.5299 27.5L44.7581 26.353ZM39.4762 2.09331L43.6111 22.8806L45.0272 25L45.5245 22.5L41.3896 1.71271L39.4762 2.09331ZM45.2165 0.951501L43.303 1.3321L46.519 17.5L47.5136 12.5L45.2165 0.951501ZM49.0433 0.190297L47.1299 0.570899L48.5082 7.5L49.5027 2.5L49.0433 0.190297ZM42.2706 26.1418L41.2761 21.1418L38.4438 16.903L39.4383 21.903L42.2706 26.1418ZM43.5353 32.5L43.2652 31.1418L40.4329 26.903L41.4275 31.903L42.1968 33.0544L43.281 33.7788L43.5353 32.5ZM44.1368 35.5239L43.9529 35.4009L43.9097 35.6179L44.2597 36.1418L44.1368 35.5239ZM46.6945 38.3824L45.3025 38.6593L44.1224 39.4478L43.3468 38.2871L42.8463 39.0361L42.8677 39.1436L42.7603 39.1649L42.6994 39.256L42.6083 39.1952L41.7247 39.3709L42.5003 40.5316L41.3202 41.3202L40.5316 42.5003L39.3709 41.7247L39.1952 42.6083L39.2561 42.6994L39.1649 42.7602L39.1436 42.8677L39.0361 42.8463L38.2871 43.3468L39.4478 44.1224L38.6593 45.3025L38.3824 46.6945L37.0132 46.4222L37.1889 47.3058L37.2801 47.3666L37.2192 47.4577L37.2406 47.5652L37.1331 47.5866L36.6326 48.3356L38.0018 48.608L37.7249 50L38.0018 51.392L36.6326 51.6644L37.1331 52.4134L37.2406 52.4348L37.2192 52.5423L37.2801 52.6334L37.1889 52.6943L37.0132 53.5778L38.3824 53.3055L38.6593 54.6975L39.4478 55.8776L38.2871 56.6532L39.0361 57.1537L39.1436 57.1323L39.1649 57.2398L39.256 57.3006L39.1952 57.3917L39.3709 58.2753L40.5316 57.4997L41.3202 58.6798L42.5003 59.4684L41.7247 60.6291L42.6083 60.8048L42.6994 60.744L42.7602 60.8351L42.8677 60.8564L42.8463 60.9639L43.3468 61.713L44.1224 60.5522L45.3025 61.3408L46.6945 61.6177L46.4222 62.9868L47.3058 62.8111L47.3666 62.72L47.4577 62.7808L47.5652 62.7595L47.5866 62.8669L48.3356 63.3674L48.608 61.9983L50 62.2751L51.392 61.9983L51.6644 63.3674L52.4134 62.8669L52.4348 62.7595L52.5423 62.7808L52.6334 62.72L52.6942 62.8111L53.5778 62.9868L53.3054 61.6177L54.6975 61.3408L55.8776 60.5522L56.6532 61.713L57.1537 60.9639L57.1323 60.8564L57.2397 60.8351L57.3006 60.744L57.3917 60.8048L58.2753 60.6291L57.4997 59.4684L58.6798 58.6798L59.4683 57.4997L60.6291 58.2753L60.8048 57.3917L60.7439 57.3006L60.835 57.2398L60.8564 57.1323L60.9639 57.1537L61.7129 56.6532L60.5522 55.8776L61.3407 54.6975L61.6176 53.3055L62.9868 53.5778L62.811 52.6943L62.7199 52.6334L62.7808 52.5423L62.7594 52.4348L62.8669 52.4134L63.3674 51.6644L61.9982 51.392L62.2751 50L61.9982 48.608L63.3674 48.3356L62.8669 47.5866L62.7594 47.5652L62.7808 47.4577L62.7199 47.3666L62.811 47.3058L62.9868 46.4222L61.6176 46.6946L61.3407 45.3025L60.5522 44.1224L61.7129 43.3468L60.9639 42.8463L60.8564 42.8677L60.835 42.7602L60.7439 42.6994L60.8048 42.6083L60.6291 41.7247L59.4683 42.5003L58.6798 41.3202L57.4997 40.5316L58.2753 39.3709L57.3917 39.1952L57.3006 39.2561L57.2397 39.1649L57.1323 39.1436L57.1537 39.0361L56.6532 38.2871L55.8776 39.4478L54.6975 38.6593L53.3055 38.3824L53.5778 37.0132L52.6942 37.189L52.6334 37.2801L52.5423 37.2192L52.4348 37.2406L52.4134 37.1331L51.6644 36.6326L51.392 38.0018L50 37.7249L48.608 38.0018L48.3356 36.6326L47.5866 37.1331L47.5652 37.2406L47.4577 37.2192L47.3666 37.2801L47.3058 37.189L46.4222 37.0132L46.6945 38.3824ZM37.9677 33.7481L40.087 35.1642L39.5898 32.6642L39.3742 32.3416L37.2548 30.9254L37.752 33.4254L37.9677 33.7481ZM35.1354 29.5093L36.3359 31.306L36.1078 30.159L35.1354 29.5093ZM39.3934 39.3934L39.0434 38.8695L38.8264 38.8264L38.8695 39.0434L39.3934 39.3934ZM35.1546 36.5611L36.306 37.3305L37.5849 37.5849L37.3305 36.306L36.5611 35.1546L32.3223 32.3223L35.1546 36.5611ZM33.7289 30.9158L30.8966 26.677L26.6578 23.8447L29.4901 28.0835L33.7289 30.9158ZM32.6642 39.5898L35.1642 40.087L33.7481 37.9677L33.4254 37.7521L30.9254 37.2548L32.3416 39.3742L32.6642 39.5898ZM28.4254 36.7575L30.2222 37.958L29.5724 36.9856L28.4254 36.7575ZM36.1418 44.2597L35.6179 43.9097L35.401 43.9529L35.5239 44.1368L36.1418 44.2597ZM31.1418 43.2652L32.5 43.5354L33.7788 43.281L33.0544 42.1968L31.903 41.4275L26.903 40.4329L31.1418 43.2652ZM27.6642 38.5952L23.4254 35.7629L18.4254 34.7684L22.6642 37.6006L27.6642 38.5952ZM30 47.0163L32.5 46.519L30.3806 45.1029L30 45.0272L27.5 45.5245L29.6194 46.9406L30 47.0163ZM25 46.0218L27.1194 46.4433L26.147 45.7936L25 46.0218ZM35 50L34.3821 49.8771L34.1981 50L34.3821 50.1229L35 50ZM30 50.9946L31.3582 50.7244L32.4423 50L31.3582 49.2756L30 49.0054L25 50L30 50.9946ZM25 48.0109L20 47.0163L15 48.0109L20 49.0054L25 48.0109ZM30.3806 54.8971L32.5 53.481L30 52.9837L29.6194 53.0594L27.5 54.4755L30 54.9728L30.3806 54.8971ZM25.3806 55.8917L27.5 55.4701L26.353 55.2419L25.3806 55.8917ZM36.1418 55.7403L35.5239 55.8632L35.401 56.0471L35.618 56.0903L36.1418 55.7403ZM31.903 58.5725L33.0544 57.8032L33.7788 56.719L32.5 56.4647L31.1418 56.7348L26.903 59.5671L31.903 58.5725ZM26.1418 57.7294L21.1418 58.7239L16.903 61.5562L21.903 60.5617L26.1418 57.7294ZM33.7481 62.0324L35.1642 59.913L32.6642 60.4102L32.3415 60.6258L30.9254 62.7452L33.4254 62.2479L33.7481 62.0324ZM29.5093 64.8646L31.306 63.6641L30.159 63.8922L29.5093 64.8646ZM39.3934 60.6066L38.8695 60.9567L38.8264 61.1736L39.0434 61.1305L39.3934 60.6066ZM36.5611 64.8454L37.3305 63.694L37.5849 62.4152L36.306 62.6695L35.1546 63.4389L32.3223 67.6777L36.5611 64.8454ZM30.9158 66.2712L26.677 69.1034L23.8447 73.3422L28.0835 70.51L30.9158 66.2712ZM39.5898 67.3358L40.087 64.8358L37.9676 66.2519L37.7521 66.5746L37.2548 69.0746L39.3742 67.6585L39.5898 67.3358ZM36.7575 71.5746L37.958 69.7779L36.9856 70.4276L36.7575 71.5746ZM44.2597 63.8582L43.9097 64.3821L43.9529 64.5991L44.1368 64.4762L44.2597 63.8582ZM43.2652 68.8582L43.5353 67.5L43.281 66.2212L42.1968 66.9456L41.4275 68.097L40.4329 73.097L43.2652 68.8582ZM38.5952 72.3358L35.7629 76.5746L34.7684 81.5746L37.6006 77.3358L38.5952 72.3358ZM47.0163 70L46.519 67.5L45.1029 69.6194L45.0272 70L45.5245 72.5L46.9406 70.3806L47.0163 70ZM46.0217 75L46.4433 72.8806L45.7936 73.853L46.0217 75ZM50 65L49.8771 65.618L50 65.8019L50.1229 65.618L50 65ZM50.9946 70L50.7244 68.6418L50 67.5577L49.2756 68.6418L49.0054 70L50 75L50.9946 70ZM48.0109 75L47.0163 80L48.0109 85L49.0054 80L48.0109 75ZM54.8971 69.6194L53.481 67.5L52.9837 70L53.0594 70.3806L54.4755 72.5L54.9728 70L54.8971 69.6194ZM55.8917 74.6194L55.4701 72.5L55.2419 73.647L55.8917 74.6194ZM55.7402 63.8582L55.8632 64.4762L56.0471 64.5991L56.0903 64.3821L55.7402 63.8582ZM58.5725 68.097L57.8032 66.9456L56.719 66.2212L56.4646 67.5L56.7348 68.8582L59.5671 73.097L58.5725 68.097ZM57.7294 73.8582L58.7239 78.8582L61.5562 83.097L60.5616 78.097L57.7294 73.8582ZM62.0323 66.2519L59.913 64.8358L60.4102 67.3358L60.6258 67.6585L62.7452 69.0746L62.2479 66.5746L62.0323 66.2519ZM64.8646 70.4908L63.6641 68.694L63.8922 69.841L64.8646 70.4908ZM60.6066 60.6066L60.9566 61.1305L61.1736 61.1736L61.1305 60.9567L60.6066 60.6066ZM64.8454 63.4389L63.6939 62.6695L62.4151 62.4152L62.6695 63.694L63.4389 64.8454L67.6777 67.6777L64.8454 63.4389ZM66.2711 69.0842L69.1034 73.323L73.3422 76.1553L70.5099 71.9165L66.2711 69.0842ZM67.3358 60.4102L64.8358 59.913L66.2519 62.0324L66.5746 62.248L69.0746 62.7452L67.6584 60.6259L67.3358 60.4102ZM71.5746 63.2425L69.7778 62.042L70.4276 63.0144L71.5746 63.2425ZM63.8582 55.7403L64.382 56.0903L64.599 56.0471L64.4761 55.8632L63.8582 55.7403ZM68.8582 56.7348L67.5 56.4647L66.2212 56.719L66.9456 57.8032L68.097 58.5725L73.097 59.5671L68.8582 56.7348ZM72.3358 61.4048L76.5746 64.2371L81.5746 65.2316L77.3358 62.3994L72.3358 61.4048ZM70 52.9837L67.5 53.481L69.6194 54.8971L70 54.9728L72.5 54.4755L70.3806 53.0594L70 52.9837ZM75 53.9783L72.8806 53.5567L73.853 54.2064L75 53.9783ZM65 50L65.6179 50.1229L65.8019 50L65.6179 49.8771L65 50ZM70 49.0054L68.6418 49.2756L67.5576 50L68.6418 50.7244L70 50.9946L75 50L70 49.0054ZM75 51.9891L80 52.9837L85 51.9891L80 50.9946L75 51.9891ZM69.6194 45.1029L67.5 46.519L70 47.0163L70.3806 46.9406L72.5 45.5245L70 45.0272L69.6194 45.1029ZM74.6194 44.1083L72.5 44.5299L73.647 44.7581L74.6194 44.1083ZM63.8582 44.2598L64.4761 44.1368L64.599 43.9529L64.382 43.9097L63.8582 44.2598ZM68.097 41.4275L66.9455 42.1968L66.2211 43.281L67.5 43.5354L68.8582 43.2652L73.097 40.4329L68.097 41.4275ZM73.8582 42.2706L78.8582 41.2761L83.097 38.4438L78.097 39.4384L73.8582 42.2706ZM66.2519 37.9677L64.8358 40.0871L67.3358 39.5898L67.6584 39.3742L69.0746 37.2548L66.5746 37.7521L66.2519 37.9677ZM70.4907 35.1354L68.694 36.3359L69.841 36.1078L70.4907 35.1354ZM60.6066 39.3934L61.1305 39.0434L61.1736 38.8264L60.9566 38.8695L60.6066 39.3934ZM63.4389 35.1546L62.6695 36.306L62.4151 37.5849L63.694 37.3305L64.8454 36.5611L67.6777 32.3223L63.4389 35.1546ZM69.0842 33.7289L73.323 30.8966L76.1553 26.6578L71.9165 29.4901L69.0842 33.7289ZM60.4102 32.6642L59.9129 35.1642L62.0323 33.7481L62.2479 33.4254L62.7452 30.9254L60.6258 32.3416L60.4102 32.6642ZM63.2425 28.4254L62.042 30.2222L63.0144 29.5724L63.2425 28.4254ZM55.7403 36.1418L56.0903 35.6179L56.0471 35.4009L55.8632 35.5239L55.7403 36.1418ZM56.7348 31.1418L56.4647 32.5L56.719 33.7788L57.8032 33.0544L58.5725 31.903L59.5671 26.903L56.7348 31.1418ZM61.4048 27.6642L64.2371 23.4254L65.2316 18.4254L62.3994 22.6642L61.4048 27.6642ZM52.9837 30L53.481 32.5L54.8971 30.3806L54.9728 30L54.4755 27.5L53.0594 29.6194L52.9837 30ZM53.9782 25L53.5567 27.1194L54.2064 26.147L53.9782 25ZM49.8771 34.382L50 35L50.1229 34.382L50 34.1981L49.8771 34.382ZM30.0548 4.34795L28.4327 5.43181L32.3577 11.306L31.3631 6.30602L30.0548 4.34795ZM34.3468 21.306L33.3522 16.306L26.8105 6.51568L25.1884 7.59954L34.3468 21.306ZM14.1027 15.4557L13.0189 17.0778L18.8931 21.0029L16.0608 16.764L14.1027 15.4557ZM24.5576 29.4804L21.7253 25.2416L11.935 18.6999L10.8511 20.3221L24.5576 29.4804ZM3.61572 31.8225L3.23512 33.736L10.1642 35.1142L5.92542 32.282L3.61572 31.8225ZM18.6418 40.7788L14.403 37.9465L2.85451 35.6494L2.47391 37.5628L18.6418 40.7788ZM0.190296 50.9567L0.570895 52.8701L7.5 51.4918L2.5 50.4973L0.190296 50.9567ZM17.5 53.481L12.5 52.4864L0.951503 54.7835L1.3321 56.697L17.5 53.481ZM4.34795 69.9452L5.43181 71.5674L11.306 67.6423L6.30602 68.6369L4.34795 69.9452ZM21.306 65.6532L16.306 66.6478L6.51568 73.1895L7.59954 74.8116L21.306 65.6532ZM15.4557 85.8973L17.0778 86.9811L21.0028 81.1069L16.764 83.9392L15.4557 85.8973ZM29.4804 75.4424L25.2416 78.2747L18.6999 88.065L20.3221 89.1489L29.4804 75.4424ZM31.8225 96.3843L33.7359 96.7649L35.1142 89.8358L32.282 94.0746L31.8225 96.3843ZM40.7788 81.3582L37.9465 85.597L35.6494 97.1455L37.5628 97.5261L40.7788 81.3582ZM50.9567 99.8097L52.8701 99.4291L51.4918 92.5L50.4973 97.5L50.9567 99.8097ZM53.481 82.5L52.4864 87.5L54.7835 99.0485L56.697 98.6679L53.481 82.5ZM69.9452 95.6521L71.5673 94.5682L67.6423 88.694L68.6369 93.694L69.9452 95.6521ZM65.6532 78.694L66.6478 83.694L73.1895 93.4843L74.8116 92.4005L65.6532 78.694ZM85.8973 84.5443L86.9811 82.9222L81.1069 78.9972L83.9392 83.236L85.8973 84.5443ZM75.4424 70.5196L78.2747 74.7584L88.065 81.3001L89.1489 79.6779L75.4424 70.5196ZM96.3843 68.1775L96.7649 66.2641L89.8358 64.8858L94.0746 67.718L96.3843 68.1775ZM81.3582 59.2212L85.597 62.0535L97.1455 64.3506L97.5261 62.4372L81.3582 59.2212ZM99.8097 49.0433L99.4291 47.1299L92.5 48.5082L97.5 49.5027L99.8097 49.0433ZM82.5 46.519L87.5 47.5136L99.0485 45.2165L98.6679 43.3031L82.5 46.519ZM95.652 30.0548L94.5682 28.4327L88.694 32.3577L93.694 31.3631L95.652 30.0548ZM78.694 34.3468L83.694 33.3522L93.4843 26.8105L92.4005 25.1884L78.694 34.3468ZM84.5443 14.1027L82.9222 13.0189L78.9971 18.8931L83.2359 16.0608L84.5443 14.1027ZM70.5196 24.5576L74.7583 21.7253L81.3 11.935L79.6779 10.8511L70.5196 24.5576ZM68.1775 3.61572L66.264 3.23512L64.8858 10.1642L67.718 5.92542L68.1775 3.61572ZM59.2212 18.6418L62.0535 14.403L64.3506 2.85451L62.4372 2.47391L59.2212 18.6418Z" stroke="white" stroke-width="74" stroke-dasharray="2 2"/>
</svg>
