<svg width="61" height="6" viewBox="0 0 61 6" fill="none" xmlns="http://www.w3.org/2000/svg">
<path d="M0.512695 0.696289H2.44922C2.83203 0.696289 3.14062 0.804688 3.375 1.02148C3.60938 1.23633 3.72656 1.53906 3.72656 1.92969C3.72656 2.26562 3.62207 2.55859 3.41309 2.80859C3.2041 3.05664 2.88281 3.18066 2.44922 3.18066H1.0957V5H0.512695V0.696289ZM3.1377 1.93262C3.1377 1.61621 3.02051 1.40137 2.78613 1.28809C2.65723 1.22754 2.48047 1.19727 2.25586 1.19727H1.0957V2.68848H2.25586C2.51758 2.68848 2.72949 2.63281 2.8916 2.52148C3.05566 2.41016 3.1377 2.21387 3.1377 1.93262ZM6.45996 2.66797C6.7334 2.66797 6.94922 2.61328 7.10742 2.50391C7.26758 2.39453 7.34766 2.19727 7.34766 1.91211C7.34766 1.60547 7.23633 1.39648 7.01367 1.28516C6.89453 1.22656 6.73535 1.19727 6.53613 1.19727H5.1123V2.66797H6.45996ZM4.5293 0.696289H6.52148C6.84961 0.696289 7.12012 0.744141 7.33301 0.839844C7.7373 1.02344 7.93945 1.3623 7.93945 1.85645C7.93945 2.11426 7.88574 2.3252 7.77832 2.48926C7.67285 2.65332 7.52441 2.78516 7.33301 2.88477C7.50098 2.95312 7.62695 3.04297 7.71094 3.1543C7.79688 3.26562 7.84473 3.44629 7.85449 3.69629L7.875 4.27344C7.88086 4.4375 7.89453 4.55957 7.91602 4.63965C7.95117 4.77637 8.01367 4.86426 8.10352 4.90332V5H7.38867C7.36914 4.96289 7.35352 4.91504 7.3418 4.85645C7.33008 4.79785 7.32031 4.68457 7.3125 4.5166L7.27734 3.79883C7.26367 3.51758 7.15918 3.3291 6.96387 3.2334C6.85254 3.18066 6.67773 3.1543 6.43945 3.1543H5.1123V5H4.5293V0.696289ZM8.85059 0.696289H11.9883V1.22363H9.41895V2.53027H11.7949V3.02832H9.41895V4.4873H12.0322V5H8.85059V0.696289ZM13.1777 3.61133C13.1914 3.85547 13.249 4.05371 13.3506 4.20605C13.5439 4.49121 13.8848 4.63379 14.373 4.63379C14.5918 4.63379 14.791 4.60254 14.9707 4.54004C15.3184 4.41895 15.4922 4.20215 15.4922 3.88965C15.4922 3.65527 15.4189 3.48828 15.2725 3.38867C15.124 3.29102 14.8916 3.20605 14.5752 3.13379L13.9922 3.00195C13.6113 2.91602 13.3418 2.82129 13.1836 2.71777C12.9102 2.53809 12.7734 2.26953 12.7734 1.91211C12.7734 1.52539 12.9072 1.20801 13.1748 0.959961C13.4424 0.711914 13.8213 0.587891 14.3115 0.587891C14.7627 0.587891 15.1455 0.697266 15.46 0.916016C15.7764 1.13281 15.9346 1.48047 15.9346 1.95898H15.3867C15.3574 1.72852 15.2949 1.55176 15.1992 1.42871C15.0215 1.2041 14.7197 1.0918 14.2939 1.0918C13.9502 1.0918 13.7031 1.16406 13.5527 1.30859C13.4023 1.45312 13.3271 1.62109 13.3271 1.8125C13.3271 2.02344 13.415 2.17773 13.5908 2.27539C13.7061 2.33789 13.9668 2.41602 14.373 2.50977L14.9766 2.64746C15.2676 2.71387 15.4922 2.80469 15.6504 2.91992C15.9238 3.12109 16.0605 3.41309 16.0605 3.7959C16.0605 4.27246 15.8867 4.61328 15.5391 4.81836C15.1934 5.02344 14.791 5.12598 14.332 5.12598C13.7969 5.12598 13.3779 4.98926 13.0752 4.71582C12.7725 4.44434 12.624 4.07617 12.6299 3.61133H13.1777ZM17.1797 3.61133C17.1934 3.85547 17.251 4.05371 17.3525 4.20605C17.5459 4.49121 17.8867 4.63379 18.375 4.63379C18.5938 4.63379 18.793 4.60254 18.9727 4.54004C19.3203 4.41895 19.4941 4.20215 19.4941 3.88965C19.4941 3.65527 19.4209 3.48828 19.2744 3.38867C19.126 3.29102 18.8936 3.20605 18.5771 3.13379L17.9941 3.00195C17.6133 2.91602 17.3438 2.82129 17.1855 2.71777C16.9121 2.53809 16.7754 2.26953 16.7754 1.91211C16.7754 1.52539 16.9092 1.20801 17.1768 0.959961C17.4443 0.711914 17.8232 0.587891 18.3135 0.587891C18.7646 0.587891 19.1475 0.697266 19.4619 0.916016C19.7783 1.13281 19.9365 1.48047 19.9365 1.95898H19.3887C19.3594 1.72852 19.2969 1.55176 19.2012 1.42871C19.0234 1.2041 18.7217 1.0918 18.2959 1.0918C17.9521 1.0918 17.7051 1.16406 17.5547 1.30859C17.4043 1.45312 17.3291 1.62109 17.3291 1.8125C17.3291 2.02344 17.417 2.17773 17.5928 2.27539C17.708 2.33789 17.9688 2.41602 18.375 2.50977L18.9785 2.64746C19.2695 2.71387 19.4941 2.80469 19.6523 2.91992C19.9258 3.12109 20.0625 3.41309 20.0625 3.7959C20.0625 4.27246 19.8887 4.61328 19.541 4.81836C19.1953 5.02344 18.793 5.12598 18.334 5.12598C17.7988 5.12598 17.3799 4.98926 17.0771 4.71582C16.7744 4.44434 16.626 4.07617 16.6318 3.61133H17.1797ZM21.4336 0.696289V3.35645C21.4336 3.66895 21.4922 3.92871 21.6094 4.13574C21.7832 4.44824 22.0762 4.60449 22.4883 4.60449C22.9824 4.60449 23.3184 4.43555 23.4961 4.09766C23.5918 3.91406 23.6396 3.66699 23.6396 3.35645V0.696289H24.2314V3.11328C24.2314 3.64258 24.1602 4.0498 24.0176 4.33496C23.7559 4.85449 23.2617 5.11426 22.5352 5.11426C21.8086 5.11426 21.3154 4.85449 21.0557 4.33496C20.9131 4.0498 20.8418 3.64258 20.8418 3.11328V0.696289H21.4336ZM27.1377 2.66797C27.4111 2.66797 27.627 2.61328 27.7852 2.50391C27.9453 2.39453 28.0254 2.19727 28.0254 1.91211C28.0254 1.60547 27.9141 1.39648 27.6914 1.28516C27.5723 1.22656 27.4131 1.19727 27.2139 1.19727H25.79V2.66797H27.1377ZM25.207 0.696289H27.1992C27.5273 0.696289 27.7979 0.744141 28.0107 0.839844C28.415 1.02344 28.6172 1.3623 28.6172 1.85645C28.6172 2.11426 28.5635 2.3252 28.4561 2.48926C28.3506 2.65332 28.2021 2.78516 28.0107 2.88477C28.1787 2.95312 28.3047 3.04297 28.3887 3.1543C28.4746 3.26562 28.5225 3.44629 28.5322 3.69629L28.5527 4.27344C28.5586 4.4375 28.5723 4.55957 28.5938 4.63965C28.6289 4.77637 28.6914 4.86426 28.7812 4.90332V5H28.0664C28.0469 4.96289 28.0312 4.91504 28.0195 4.85645C28.0078 4.79785 27.998 4.68457 27.9902 4.5166L27.9551 3.79883C27.9414 3.51758 27.8369 3.3291 27.6416 3.2334C27.5303 3.18066 27.3555 3.1543 27.1172 3.1543H25.79V5H25.207V0.696289ZM29.6045 0.696289H30.1934V5H29.6045V0.696289ZM30.8232 4.5166L33.4629 1.20898H31.0166V0.696289H34.2129V1.19727L31.5586 4.4873H34.2129V5H30.8232V4.5166ZM34.8662 0.696289H38.0039V1.22363H35.4346V2.53027H37.8105V3.02832H35.4346V4.4873H38.0479V5H34.8662V0.696289ZM40.4648 4.50195C40.6621 4.50195 40.8242 4.48145 40.9512 4.44043C41.1777 4.36426 41.3633 4.21777 41.5078 4.00098C41.623 3.82715 41.7061 3.60449 41.7568 3.33301C41.7861 3.1709 41.8008 3.02051 41.8008 2.88184C41.8008 2.34863 41.6943 1.93457 41.4814 1.63965C41.2705 1.34473 40.9297 1.19727 40.459 1.19727H39.4248V4.50195H40.4648ZM38.8389 0.696289H40.582C41.1738 0.696289 41.6328 0.90625 41.959 1.32617C42.25 1.70508 42.3955 2.19043 42.3955 2.78223C42.3955 3.23926 42.3096 3.65234 42.1377 4.02148C41.835 4.67383 41.3145 5 40.5762 5H38.8389V0.696289ZM46.6992 3.23633L46.0459 1.33496L45.3516 3.23633H46.6992ZM45.7412 0.696289H46.4004L47.9619 5H47.3232L46.8867 3.71094H45.1846L44.7188 5H44.1211L45.7412 0.696289ZM50.4932 2.66797C50.7666 2.66797 50.9824 2.61328 51.1406 2.50391C51.3008 2.39453 51.3809 2.19727 51.3809 1.91211C51.3809 1.60547 51.2695 1.39648 51.0469 1.28516C50.9277 1.22656 50.7686 1.19727 50.5693 1.19727H49.1455V2.66797H50.4932ZM48.5625 0.696289H50.5547C50.8828 0.696289 51.1533 0.744141 51.3662 0.839844C51.7705 1.02344 51.9727 1.3623 51.9727 1.85645C51.9727 2.11426 51.9189 2.3252 51.8115 2.48926C51.7061 2.65332 51.5576 2.78516 51.3662 2.88477C51.5342 2.95312 51.6602 3.04297 51.7441 3.1543C51.8301 3.26562 51.8779 3.44629 51.8877 3.69629L51.9082 4.27344C51.9141 4.4375 51.9277 4.55957 51.9492 4.63965C51.9844 4.77637 52.0469 4.86426 52.1367 4.90332V5H51.4219C51.4023 4.96289 51.3867 4.91504 51.375 4.85645C51.3633 4.79785 51.3535 4.68457 51.3457 4.5166L51.3105 3.79883C51.2969 3.51758 51.1924 3.3291 50.9971 3.2334C50.8857 3.18066 50.7109 3.1543 50.4727 3.1543H49.1455V5H48.5625V0.696289ZM52.8838 0.696289H56.0215V1.22363H53.4521V2.53027H55.8281V3.02832H53.4521V4.4873H56.0654V5H52.8838V0.696289ZM59.0391 3.23633L58.3857 1.33496L57.6914 3.23633H59.0391ZM58.0811 0.696289H58.7402L60.3018 5H59.6631L59.2266 3.71094H57.5244L57.0586 5H56.4609L58.0811 0.696289Z" fill="black"/>
</svg>
