<svg width="1512" height="982" viewBox="0 0 1512 982" fill="none" xmlns="http://www.w3.org/2000/svg">
<rect width="1512" height="982" rx="24" fill="white"/>
<path d="M1457.21 924.542L1469.17 936.5L1457.21 948.458" stroke="#9194A1" stroke-width="3.41667" stroke-linejoin="round"/>
<line y1="-1.70833" x2="25.625" y2="-1.70833" transform="matrix(-1 0 0 1 1467.46 938.208)" stroke="#9194A1" stroke-width="3.41667"/>
<path d="M53.7923 924.542L41.834 936.5L53.7923 948.458" stroke="#9194A1" stroke-width="3.41667" stroke-linejoin="round"/>
<line x1="43.541" y1="936.5" x2="69.166" y2="936.5" stroke="#9194A1" stroke-width="3.41667"/>
<path d="M53.1094 65.5625H49.9219L50.625 62.9375H53.8125L55.5156 56.6406H58.625L56.9219 62.9375H59.5156L61.1719 56.6406H64.2812L62.625 62.9375H65.7656L65.0625 65.5625H61.9219L60.6562 70.125H63.8438L63.1406 72.75H59.9531L58.2812 79H55.1719L56.8438 72.75H54.2812L52.5781 79H49.4688L51.1719 72.75H48L48.7031 70.125H51.875L53.1094 65.5625ZM57.5469 70.125L58.8125 65.5625H56.2188L55 70.125H57.5469Z" fill="black"/>
<path d="M103.062 79H98.25L88.8438 62.6406V79H84.3594V55.9688H89.4062L98.5781 72.0469V55.9688H103.062V79ZM118.525 76.5938C118.483 76.6458 118.379 76.8021 118.212 77.0625C118.046 77.3229 117.848 77.5521 117.619 77.75C116.921 78.375 116.244 78.8021 115.587 79.0312C114.942 79.2604 114.181 79.375 113.306 79.375C110.785 79.375 109.087 78.4688 108.212 76.6562C107.723 75.6562 107.478 74.1823 107.478 72.2344V61.9688H112.041V72.2344C112.041 73.2031 112.155 73.9323 112.384 74.4219C112.791 75.2865 113.587 75.7188 114.775 75.7188C116.296 75.7188 117.337 75.1042 117.9 73.875C118.192 73.2083 118.337 72.3281 118.337 71.2344V61.9688H122.853V79H118.525V76.5938ZM137.128 66.6562C136.753 65.8333 136.019 65.4219 134.925 65.4219C133.654 65.4219 132.8 65.8333 132.362 66.6562C132.123 67.125 132.003 67.8229 132.003 68.75V79H127.487V62H131.816V64.4844C132.368 63.599 132.889 62.9688 133.378 62.5938C134.243 61.9271 135.362 61.5938 136.737 61.5938C138.04 61.5938 139.092 61.8802 139.894 62.4531C140.54 62.9844 141.029 63.6667 141.362 64.5C141.946 63.5 142.67 62.7656 143.534 62.2969C144.451 61.8281 145.472 61.5938 146.597 61.5938C147.347 61.5938 148.086 61.7396 148.816 62.0312C149.545 62.3229 150.206 62.8333 150.8 63.5625C151.279 64.1562 151.602 64.8854 151.769 65.75C151.873 66.3229 151.925 67.1615 151.925 68.2656L151.894 79H147.331V68.1562C147.331 67.5104 147.227 66.9792 147.019 66.5625C146.623 65.7708 145.894 65.375 144.831 65.375C143.602 65.375 142.753 65.8854 142.284 66.9062C142.045 67.4479 141.925 68.099 141.925 68.8594V79H137.441V68.8594C137.441 67.849 137.336 67.1146 137.128 66.6562ZM165.684 79.4531C164.278 79.4531 163.148 79.1719 162.294 78.6094C161.783 78.276 161.231 77.6927 160.637 76.8594V79H156.278V56H160.716V64.1875C161.278 63.3958 161.898 62.7917 162.575 62.375C163.377 61.8542 164.398 61.5938 165.637 61.5938C167.877 61.5938 169.627 62.401 170.887 64.0156C172.158 65.6302 172.794 67.7135 172.794 70.2656C172.794 72.9115 172.169 75.1042 170.919 76.8438C169.669 78.5833 167.924 79.4531 165.684 79.4531ZM168.122 70.7344C168.122 69.526 167.966 68.526 167.653 67.7344C167.059 66.2344 165.966 65.4844 164.372 65.4844C162.757 65.4844 161.648 66.2188 161.044 67.6875C160.731 68.4688 160.575 69.4792 160.575 70.7188C160.575 72.1771 160.898 73.3854 161.544 74.3438C162.19 75.3021 163.174 75.7812 164.497 75.7812C165.643 75.7812 166.533 75.3177 167.169 74.3906C167.804 73.4635 168.122 72.2448 168.122 70.7344ZM190.975 74C190.86 75.0104 190.334 76.0365 189.397 77.0781C187.939 78.7344 185.897 79.5625 183.272 79.5625C181.105 79.5625 179.194 78.8646 177.537 77.4688C175.881 76.0729 175.053 73.8021 175.053 70.6562C175.053 67.7083 175.798 65.4479 177.287 63.875C178.787 62.3021 180.73 61.5156 183.116 61.5156C184.532 61.5156 185.808 61.7812 186.944 62.3125C188.079 62.8438 189.017 63.6823 189.756 64.8281C190.423 65.8385 190.855 67.0104 191.053 68.3438C191.168 69.125 191.215 70.25 191.194 71.7188H179.537C179.6 73.4271 180.136 74.625 181.147 75.3125C181.761 75.7396 182.501 75.9531 183.366 75.9531C184.282 75.9531 185.027 75.6927 185.6 75.1719C185.912 74.8906 186.189 74.5 186.428 74H190.975ZM186.569 68.7812C186.496 67.6042 186.136 66.7135 185.491 66.1094C184.855 65.4948 184.064 65.1875 183.116 65.1875C182.084 65.1875 181.282 65.5104 180.709 66.1562C180.147 66.8021 179.793 67.6771 179.647 68.7812H186.569ZM203.172 66.0781C201.38 66.0781 200.177 66.6615 199.562 67.8281C199.219 68.4844 199.047 69.4948 199.047 70.8594V79H194.562V61.9688H198.812V64.9375C199.5 63.8021 200.099 63.026 200.609 62.6094C201.443 61.9115 202.526 61.5625 203.859 61.5625C203.943 61.5625 204.01 61.5677 204.062 61.5781C204.125 61.5781 204.255 61.5833 204.453 61.5938V66.1562C204.172 66.125 203.922 66.1042 203.703 66.0938C203.484 66.0833 203.307 66.0781 203.172 66.0781Z" fill="black"/>
<rect x="188" y="285" width="331" height="331" rx="44" stroke="black" stroke-width="8"/>
<rect x="587" y="281" width="339" height="339" rx="48" fill="black"/>
<path d="M755.648 483.109C744.828 483.109 737.23 479.32 732.855 471.742C728.52 464.164 726.352 453.363 726.352 439.34C726.352 425.316 728.52 414.496 732.855 406.879C737.23 399.262 744.828 395.453 755.648 395.453C766.469 395.453 774.066 399.262 778.441 406.879C782.777 414.496 784.945 425.316 784.945 439.34C784.945 453.363 782.758 464.164 778.383 471.742C774.047 479.32 766.469 483.109 755.648 483.109ZM765.434 461.723C766.957 456.566 767.719 449.105 767.719 439.34C767.719 429.105 766.938 421.527 765.375 416.605C763.852 411.684 760.609 409.223 755.648 409.223C750.688 409.223 747.406 411.684 745.805 416.605C744.203 421.527 743.402 429.105 743.402 439.34C743.402 449.105 744.203 456.586 745.805 461.781C747.406 466.938 750.688 469.516 755.648 469.516C760.609 469.516 763.871 466.918 765.434 461.723Z" fill="white"/>
<rect x="994" y="285" width="331" height="331" rx="44" stroke="black" stroke-width="8"/>
<path d="M211.586 448.586C210.805 449.367 210.805 450.633 211.586 451.414L224.314 464.142C225.095 464.923 226.361 464.923 227.142 464.142C227.923 463.361 227.923 462.095 227.142 461.314L215.828 450L227.142 438.686C227.923 437.905 227.923 436.639 227.142 435.858C226.361 435.077 225.095 435.077 224.314 435.858L211.586 448.586ZM494.414 451.414C495.195 450.633 495.195 449.367 494.414 448.586L481.686 435.858C480.905 435.077 479.639 435.077 478.858 435.858C478.077 436.639 478.077 437.905 478.858 438.686L490.172 450L478.858 461.314C478.077 462.095 478.077 463.361 478.858 464.142C479.639 464.923 480.905 464.923 481.686 464.142L494.414 451.414ZM213 452H493V448H213V452Z" fill="#133FB3"/>
<path d="M354.414 309.586C353.633 308.805 352.367 308.805 351.586 309.586L338.858 322.314C338.077 323.095 338.077 324.361 338.858 325.142C339.639 325.923 340.905 325.923 341.686 325.142L353 313.828L364.314 325.142C365.095 325.923 366.361 325.923 367.142 325.142C367.923 324.361 367.923 323.095 367.142 322.314L354.414 309.586ZM351.586 590.414C352.367 591.195 353.633 591.195 354.414 590.414L367.142 577.686C367.923 576.905 367.923 575.639 367.142 574.858C366.361 574.077 365.095 574.077 364.314 574.858L353 586.172L341.686 574.858C340.905 574.077 339.639 574.077 338.858 574.858C338.077 575.639 338.077 576.905 338.858 577.686L351.586 590.414ZM351 311L351 589L355 589L355 311L351 311Z" fill="#133FB3"/>
<path d="M529.616 448.557C528.818 449.321 528.792 450.587 529.557 451.384L542.017 464.375C542.781 465.172 544.047 465.198 544.845 464.434C545.642 463.669 545.668 462.403 544.903 461.606L533.828 450.059L545.375 438.983C546.172 438.219 546.198 436.953 545.434 436.155C544.669 435.358 543.403 435.332 542.606 436.097L529.616 448.557ZM580.384 452.443C581.182 451.679 581.208 450.413 580.443 449.616L567.983 436.625C567.219 435.828 565.953 435.802 565.155 436.566C564.358 437.331 564.332 438.597 565.097 439.394L576.172 450.941L564.625 462.017C563.828 462.781 563.802 464.047 564.566 464.845C565.331 465.642 566.597 465.668 567.394 464.903L580.384 452.443ZM530.958 452L578.958 453L579.042 449L531.042 448L530.958 452Z" fill="#133FB3"/>
<path d="M932.616 448.557C931.818 449.321 931.792 450.587 932.557 451.384L945.017 464.375C945.781 465.172 947.047 465.198 947.845 464.434C948.642 463.669 948.668 462.403 947.903 461.606L936.828 450.059L948.375 438.983C949.172 438.219 949.198 436.953 948.434 436.155C947.669 435.358 946.403 435.332 945.606 436.097L932.616 448.557ZM983.384 452.443C984.182 451.679 984.208 450.413 983.443 449.616L970.983 436.625C970.219 435.828 968.953 435.802 968.155 436.566C967.358 437.331 967.332 438.597 968.097 439.394L979.172 450.941L967.625 462.017C966.828 462.781 966.802 464.047 967.566 464.845C968.331 465.642 969.597 465.668 970.394 464.903L983.384 452.443ZM933.958 452L981.958 453L982.042 449L934.042 448L933.958 452Z" fill="#133FB3"/>
<path d="M336.648 734.008C338.352 734.008 339.734 733.82 340.797 733.445C342.812 732.727 343.82 731.391 343.82 729.438C343.82 728.297 343.32 727.414 342.32 726.789C341.32 726.18 339.75 725.641 337.609 725.172L333.953 724.352C330.359 723.539 327.875 722.656 326.5 721.703C324.172 720.109 323.008 717.617 323.008 714.227C323.008 711.133 324.133 708.562 326.383 706.516C328.633 704.469 331.938 703.445 336.297 703.445C339.938 703.445 343.039 704.414 345.602 706.352C348.18 708.273 349.531 711.07 349.656 714.742H342.719C342.594 712.664 341.688 711.188 340 710.312C338.875 709.734 337.477 709.445 335.805 709.445C333.945 709.445 332.461 709.82 331.352 710.57C330.242 711.32 329.688 712.367 329.688 713.711C329.688 714.945 330.234 715.867 331.328 716.477C332.031 716.883 333.531 717.359 335.828 717.906L341.781 719.336C344.391 719.961 346.359 720.797 347.688 721.844C349.75 723.469 350.781 725.82 350.781 728.898C350.781 732.055 349.57 734.68 347.148 736.773C344.742 738.852 341.336 739.891 336.93 739.891C332.43 739.891 328.891 738.867 326.312 736.82C323.734 734.758 322.445 731.93 322.445 728.336H329.336C329.555 729.914 329.984 731.094 330.625 731.875C331.797 733.297 333.805 734.008 336.648 734.008ZM362.453 713.453V739H355.68V713.453H362.453ZM362.453 704.242V710.406H355.68V704.242H362.453ZM388.656 739H366.602V733.797L379.703 718.891H367.492V713.453H388.211V719.008L375.25 733.516H388.656V739ZM414.812 731.5C414.641 733.016 413.852 734.555 412.445 736.117C410.258 738.602 407.195 739.844 403.258 739.844C400.008 739.844 397.141 738.797 394.656 736.703C392.172 734.609 390.93 731.203 390.93 726.484C390.93 722.062 392.047 718.672 394.281 716.312C396.531 713.953 399.445 712.773 403.023 712.773C405.148 712.773 407.062 713.172 408.766 713.969C410.469 714.766 411.875 716.023 412.984 717.742C413.984 719.258 414.633 721.016 414.93 723.016C415.102 724.188 415.172 725.875 415.141 728.078H397.656C397.75 730.641 398.555 732.438 400.07 733.469C400.992 734.109 402.102 734.43 403.398 734.43C404.773 734.43 405.891 734.039 406.75 733.258C407.219 732.836 407.633 732.25 407.992 731.5H414.812ZM408.203 723.672C408.094 721.906 407.555 720.57 406.586 719.664C405.633 718.742 404.445 718.281 403.023 718.281C401.477 718.281 400.273 718.766 399.414 719.734C398.57 720.703 398.039 722.016 397.82 723.672H408.203Z" fill="black"/>
<path d="M657.531 704.453V710.57H647.195V739H639.93V710.57H629.547V704.453H657.531ZM679.539 731.5C679.367 733.016 678.578 734.555 677.172 736.117C674.984 738.602 671.922 739.844 667.984 739.844C664.734 739.844 661.867 738.797 659.383 736.703C656.898 734.609 655.656 731.203 655.656 726.484C655.656 722.062 656.773 718.672 659.008 716.312C661.258 713.953 664.172 712.773 667.75 712.773C669.875 712.773 671.789 713.172 673.492 713.969C675.195 714.766 676.602 716.023 677.711 717.742C678.711 719.258 679.359 721.016 679.656 723.016C679.828 724.188 679.898 725.875 679.867 728.078H662.383C662.477 730.641 663.281 732.438 664.797 733.469C665.719 734.109 666.828 734.43 668.125 734.43C669.5 734.43 670.617 734.039 671.477 733.258C671.945 732.836 672.359 732.25 672.719 731.5H679.539ZM672.93 723.672C672.82 721.906 672.281 720.57 671.312 719.664C670.359 718.742 669.172 718.281 667.75 718.281C666.203 718.281 665 718.766 664.141 719.734C663.297 720.703 662.766 722.016 662.547 723.672H672.93ZM707.148 739H698.828L694.422 731.336L689.992 739H681.883L690.602 726.062L682.258 713.5H690.438L694.703 720.906L698.875 713.5H706.82L698.43 725.945L707.148 739ZM722.805 734.242V739.234L719.641 739.352C716.484 739.461 714.328 738.914 713.172 737.711C712.422 736.945 712.047 735.766 712.047 734.172V718.445H708.484V713.688H712.047V706.562H718.656V713.688H722.805V718.445H718.656V731.945C718.656 732.992 718.789 733.648 719.055 733.914C719.32 734.164 720.133 734.289 721.492 734.289C721.695 734.289 721.906 734.289 722.125 734.289C722.359 734.273 722.586 734.258 722.805 734.242ZM734.711 739L748.094 703.398H753.648L740.219 739H734.711ZM765.156 704.453H772.867L780.367 730.68L787.938 704.453H795.438L783.648 739H776.828L765.156 704.453ZM797.523 716.219C799.289 713.969 802.32 712.844 806.617 712.844C809.414 712.844 811.898 713.398 814.07 714.508C816.242 715.617 817.328 717.711 817.328 720.789V732.508C817.328 733.32 817.344 734.305 817.375 735.461C817.422 736.336 817.555 736.93 817.773 737.242C817.992 737.555 818.32 737.812 818.758 738.016V739H811.492C811.289 738.484 811.148 738 811.07 737.547C810.992 737.094 810.93 736.578 810.883 736C809.961 737 808.898 737.852 807.695 738.555C806.258 739.383 804.633 739.797 802.82 739.797C800.508 739.797 798.594 739.141 797.078 737.828C795.578 736.5 794.828 734.625 794.828 732.203C794.828 729.062 796.039 726.789 798.461 725.383C799.789 724.617 801.742 724.07 804.32 723.742L806.594 723.461C807.828 723.305 808.711 723.109 809.242 722.875C810.195 722.469 810.672 721.836 810.672 720.977C810.672 719.93 810.305 719.211 809.57 718.82C808.852 718.414 807.789 718.211 806.383 718.211C804.805 718.211 803.688 718.602 803.031 719.383C802.562 719.961 802.25 720.742 802.094 721.727H795.648C795.789 719.492 796.414 717.656 797.523 716.219ZM802.492 734.172C803.117 734.688 803.883 734.945 804.789 734.945C806.227 734.945 807.547 734.523 808.75 733.68C809.969 732.836 810.602 731.297 810.648 729.062V726.578C810.227 726.844 809.797 727.062 809.359 727.234C808.938 727.391 808.352 727.539 807.602 727.68L806.102 727.961C804.695 728.211 803.688 728.516 803.078 728.875C802.047 729.484 801.531 730.43 801.531 731.711C801.531 732.852 801.852 733.672 802.492 734.172ZM823.422 704.453H830.102V739H823.422V704.453ZM853.023 735.391C852.961 735.469 852.805 735.703 852.555 736.094C852.305 736.484 852.008 736.828 851.664 737.125C850.617 738.062 849.602 738.703 848.617 739.047C847.648 739.391 846.508 739.562 845.195 739.562C841.414 739.562 838.867 738.203 837.555 735.484C836.82 733.984 836.453 731.773 836.453 728.852V713.453H843.297V728.852C843.297 730.305 843.469 731.398 843.812 732.133C844.422 733.43 845.617 734.078 847.398 734.078C849.68 734.078 851.242 733.156 852.086 731.312C852.523 730.312 852.742 728.992 852.742 727.352V713.453H859.516V739H853.023V735.391ZM887.852 731.5C887.68 733.016 886.891 734.555 885.484 736.117C883.297 738.602 880.234 739.844 876.297 739.844C873.047 739.844 870.18 738.797 867.695 736.703C865.211 734.609 863.969 731.203 863.969 726.484C863.969 722.062 865.086 718.672 867.32 716.312C869.57 713.953 872.484 712.773 876.062 712.773C878.188 712.773 880.102 713.172 881.805 713.969C883.508 714.766 884.914 716.023 886.023 717.742C887.023 719.258 887.672 721.016 887.969 723.016C888.141 724.188 888.211 725.875 888.18 728.078H870.695C870.789 730.641 871.594 732.438 873.109 733.469C874.031 734.109 875.141 734.43 876.438 734.43C877.812 734.43 878.93 734.039 879.789 733.258C880.258 732.836 880.672 732.25 881.031 731.5H887.852ZM881.242 723.672C881.133 721.906 880.594 720.57 879.625 719.664C878.672 718.742 877.484 718.281 876.062 718.281C874.516 718.281 873.312 718.766 872.453 719.734C871.609 720.703 871.078 722.016 870.859 723.672H881.242Z" fill="black"/>
<path d="M1098.74 712.453H1091.29V726H1084.23V691.453H1101.18C1103.6 691.5 1105.46 691.797 1106.76 692.344C1108.07 692.891 1109.18 693.695 1110.09 694.758C1110.84 695.633 1111.43 696.602 1111.87 697.664C1112.3 698.727 1112.52 699.938 1112.52 701.297C1112.52 702.938 1112.11 704.555 1111.28 706.148C1110.45 707.727 1109.09 708.844 1107.18 709.5C1108.77 710.141 1109.9 711.055 1110.55 712.242C1111.23 713.414 1111.56 715.211 1111.56 717.633V719.953C1111.56 721.531 1111.62 722.602 1111.75 723.164C1111.94 724.055 1112.38 724.711 1113.06 725.133V726H1105.12C1104.9 725.234 1104.74 724.617 1104.65 724.148C1104.46 723.18 1104.36 722.188 1104.34 721.172L1104.3 717.961C1104.27 715.758 1103.86 714.289 1103.08 713.555C1102.31 712.82 1100.87 712.453 1098.74 712.453ZM1103.12 706.172C1104.56 705.516 1105.28 704.219 1105.28 702.281C1105.28 700.188 1104.59 698.781 1103.2 698.062C1102.41 697.656 1101.24 697.453 1099.68 697.453H1091.29V706.734H1099.47C1101.09 706.734 1102.31 706.547 1103.12 706.172ZM1119.18 703.219C1120.95 700.969 1123.98 699.844 1128.27 699.844C1131.07 699.844 1133.55 700.398 1135.73 701.508C1137.9 702.617 1138.98 704.711 1138.98 707.789V719.508C1138.98 720.32 1139 721.305 1139.03 722.461C1139.08 723.336 1139.21 723.93 1139.43 724.242C1139.65 724.555 1139.98 724.812 1140.41 725.016V726H1133.15C1132.95 725.484 1132.8 725 1132.73 724.547C1132.65 724.094 1132.59 723.578 1132.54 723C1131.62 724 1130.55 724.852 1129.35 725.555C1127.91 726.383 1126.29 726.797 1124.48 726.797C1122.16 726.797 1120.25 726.141 1118.73 724.828C1117.23 723.5 1116.48 721.625 1116.48 719.203C1116.48 716.062 1117.7 713.789 1120.12 712.383C1121.45 711.617 1123.4 711.07 1125.98 710.742L1128.25 710.461C1129.48 710.305 1130.37 710.109 1130.9 709.875C1131.85 709.469 1132.33 708.836 1132.33 707.977C1132.33 706.93 1131.96 706.211 1131.23 705.82C1130.51 705.414 1129.45 705.211 1128.04 705.211C1126.46 705.211 1125.34 705.602 1124.69 706.383C1124.22 706.961 1123.91 707.742 1123.75 708.727H1117.3C1117.45 706.492 1118.07 704.656 1119.18 703.219ZM1124.15 721.172C1124.77 721.688 1125.54 721.945 1126.45 721.945C1127.88 721.945 1129.2 721.523 1130.41 720.68C1131.62 719.836 1132.26 718.297 1132.3 716.062V713.578C1131.88 713.844 1131.45 714.062 1131.02 714.234C1130.59 714.391 1130.01 714.539 1129.26 714.68L1127.76 714.961C1126.35 715.211 1125.34 715.516 1124.73 715.875C1123.7 716.484 1123.19 717.43 1123.19 718.711C1123.19 719.852 1123.51 720.672 1124.15 721.172ZM1168.19 691.5V726H1161.7V722.461C1160.74 723.977 1159.66 725.078 1158.44 725.766C1157.22 726.453 1155.7 726.797 1153.89 726.797C1150.91 726.797 1148.39 725.594 1146.34 723.188C1144.31 720.766 1143.3 717.664 1143.3 713.883C1143.3 709.523 1144.3 706.094 1146.3 703.594C1148.31 701.094 1151 699.844 1154.36 699.844C1155.91 699.844 1157.28 700.188 1158.48 700.875C1159.69 701.547 1160.66 702.484 1161.41 703.688V691.5H1168.19ZM1150.19 713.391C1150.19 715.75 1150.66 717.633 1151.59 719.039C1152.52 720.461 1153.92 721.172 1155.81 721.172C1157.7 721.172 1159.14 720.469 1160.12 719.062C1161.11 717.656 1161.6 715.836 1161.6 713.602C1161.6 710.477 1160.81 708.242 1159.23 706.898C1158.27 706.086 1157.14 705.68 1155.86 705.68C1153.91 705.68 1152.47 706.422 1151.55 707.906C1150.64 709.375 1150.19 711.203 1150.19 713.391ZM1181.15 700.453V726H1174.38V700.453H1181.15ZM1181.15 691.242V697.406H1174.38V691.242H1181.15ZM1204.02 722.391C1203.96 722.469 1203.8 722.703 1203.55 723.094C1203.3 723.484 1203.01 723.828 1202.66 724.125C1201.62 725.062 1200.6 725.703 1199.62 726.047C1198.65 726.391 1197.51 726.562 1196.2 726.562C1192.41 726.562 1189.87 725.203 1188.55 722.484C1187.82 720.984 1187.45 718.773 1187.45 715.852V700.453H1194.3V715.852C1194.3 717.305 1194.47 718.398 1194.81 719.133C1195.42 720.43 1196.62 721.078 1198.4 721.078C1200.68 721.078 1202.24 720.156 1203.09 718.312C1203.52 717.312 1203.74 715.992 1203.74 714.352V700.453H1210.52V726H1204.02V722.391ZM1234.59 701.625C1236.59 702.906 1237.73 705.109 1238.03 708.234H1231.35C1231.26 707.375 1231.02 706.695 1230.62 706.195C1229.89 705.289 1228.64 704.836 1226.88 704.836C1225.42 704.836 1224.38 705.062 1223.76 705.516C1223.15 705.969 1222.84 706.5 1222.84 707.109C1222.84 707.875 1223.17 708.43 1223.83 708.773C1224.48 709.133 1226.8 709.75 1230.79 710.625C1233.45 711.25 1235.44 712.195 1236.77 713.461C1238.08 714.742 1238.73 716.344 1238.73 718.266C1238.73 720.797 1237.79 722.867 1235.9 724.477C1234.02 726.07 1231.12 726.867 1227.18 726.867C1223.16 726.867 1220.2 726.023 1218.27 724.336C1216.37 722.633 1215.41 720.469 1215.41 717.844H1222.19C1222.33 719.031 1222.63 719.875 1223.1 720.375C1223.93 721.266 1225.46 721.711 1227.7 721.711C1229.01 721.711 1230.05 721.516 1230.81 721.125C1231.59 720.734 1231.98 720.148 1231.98 719.367C1231.98 718.617 1231.67 718.047 1231.05 717.656C1230.42 717.266 1228.1 716.594 1224.09 715.641C1221.2 714.922 1219.16 714.023 1217.97 712.945C1216.78 711.883 1216.19 710.352 1216.19 708.352C1216.19 705.992 1217.11 703.969 1218.95 702.281C1220.81 700.578 1223.42 699.727 1226.78 699.727C1229.97 699.727 1232.57 700.359 1234.59 701.625Z" fill="black"/>
<circle cx="1297.5" cy="584.5" r="85" stroke="#134DE1" stroke-width="9"/>
</svg>
