<svg width="118" height="118" viewBox="0 0 118 118" fill="none" xmlns="http://www.w3.org/2000/svg">
<mask id="path-2-inside-1_1_233" fill="white">
<path fill-rule="evenodd" clip-rule="evenodd" d="M44.1744 13.7055C44.5173 11.4718 43.0108 9 40.7509 9H12C10.3431 9 9 10.3431 9 12V40.7509C9 43.0108 11.4718 44.5173 13.7055 44.1744C14.4536 44.0596 15.2198 44 16 44C24.2843 44 31 50.7157 31 59C31 67.2843 24.2843 74 16 74C15.2198 74 14.4536 73.9404 13.7055 73.8256C11.4718 73.4827 9 74.9892 9 77.2491V106C9 107.657 10.3431 109 12 109H40.751C43.0108 109 44.5173 106.528 44.1744 104.294C44.0596 103.546 44 102.78 44 102C44 93.7157 50.7157 87 59 87C67.2843 87 74 93.7157 74 102C74 102.78 73.9404 103.546 73.8256 104.294C73.4827 106.528 74.9892 109 77.2491 109H106C107.657 109 109 107.657 109 106V77.249C109 74.9892 106.528 73.4827 104.294 73.8256C103.546 73.9404 102.78 74 102 74C93.7157 74 87 67.2843 87 59C87 50.7157 93.7157 44 102 44C102.78 44 103.546 44.0596 104.294 44.1744C106.528 44.5173 109 43.0108 109 40.7509V12C109 10.3431 107.657 9 106 9H77.2491C74.9892 9 73.4827 11.4718 73.8256 13.7055C73.9404 14.4536 74 15.2198 74 16C74 24.2843 67.2843 31 59 31C50.7157 31 44 24.2843 44 16C44 15.2198 44.0596 14.4536 44.1744 13.7055Z"/>
</mask>
<path fill-rule="evenodd" clip-rule="evenodd" d="M44.1744 13.7055C44.5173 11.4718 43.0108 9 40.7509 9H12C10.3431 9 9 10.3431 9 12V40.7509C9 43.0108 11.4718 44.5173 13.7055 44.1744C14.4536 44.0596 15.2198 44 16 44C24.2843 44 31 50.7157 31 59C31 67.2843 24.2843 74 16 74C15.2198 74 14.4536 73.9404 13.7055 73.8256C11.4718 73.4827 9 74.9892 9 77.2491V106C9 107.657 10.3431 109 12 109H40.751C43.0108 109 44.5173 106.528 44.1744 104.294C44.0596 103.546 44 102.78 44 102C44 93.7157 50.7157 87 59 87C67.2843 87 74 93.7157 74 102C74 102.78 73.9404 103.546 73.8256 104.294C73.4827 106.528 74.9892 109 77.2491 109H106C107.657 109 109 107.657 109 106V77.249C109 74.9892 106.528 73.4827 104.294 73.8256C103.546 73.9404 102.78 74 102 74C93.7157 74 87 67.2843 87 59C87 50.7157 93.7157 44 102 44C102.78 44 103.546 44.0596 104.294 44.1744C106.528 44.5173 109 43.0108 109 40.7509V12C109 10.3431 107.657 9 106 9H77.2491C74.9892 9 73.4827 11.4718 73.8256 13.7055C73.9404 14.4536 74 15.2198 74 16C74 24.2843 67.2843 31 59 31C50.7157 31 44 24.2843 44 16C44 15.2198 44.0596 14.4536 44.1744 13.7055Z" fill="white"/>
<path d="M59 31V32V31ZM73.8256 13.7055L74.814 13.5538L73.8256 13.7055ZM13.7055 44.1744L13.5538 43.186L13.7055 44.1744ZM40.7509 8H12V10H40.7509V8ZM8 12V40.7509H10V12H8ZM13.8572 45.1628C14.5553 45.0557 15.2708 45 16 45V43C15.1689 43 14.3519 43.0635 13.5538 43.186L13.8572 45.1628ZM16 45C23.732 45 30 51.268 30 59H32C32 50.1634 24.8366 43 16 43V45ZM30 59C30 66.732 23.732 73 16 73V75C24.8366 75 32 67.8366 32 59H30ZM16 73C15.2708 73 14.5553 72.9443 13.8572 72.8372L13.5538 74.814C14.3519 74.9365 15.1689 75 16 75V73ZM8 77.2491V106H10V77.2491H8ZM12 110H40.751V108H12V110ZM45.1628 104.143C45.0557 103.445 45 102.729 45 102H43C43 102.831 43.0635 103.648 43.186 104.446L45.1628 104.143ZM45 102C45 94.268 51.268 88 59 88V86C50.1634 86 43 93.1634 43 102H45ZM59 88C66.732 88 73 94.268 73 102H75C75 93.1634 67.8366 86 59 86V88ZM73 102C73 102.729 72.9443 103.445 72.8372 104.143L74.814 104.446C74.9365 103.648 75 102.831 75 102H73ZM77.2491 110H106V108H77.2491V110ZM110 106V77.249H108V106H110ZM104.143 72.8372C103.445 72.9443 102.729 73 102 73V75C102.831 75 103.648 74.9365 104.446 74.814L104.143 72.8372ZM102 73C94.268 73 88 66.732 88 59H86C86 67.8366 93.1634 75 102 75V73ZM88 59C88 51.268 94.268 45 102 45V43C93.1634 43 86 50.1634 86 59H88ZM102 45C102.729 45 103.445 45.0557 104.143 45.1628L104.446 43.186C103.648 43.0635 102.831 43 102 43V45ZM110 40.7509V12H108V40.7509H110ZM106 8H77.2491V10H106V8ZM72.8372 13.8573C72.9443 14.5553 73 15.2708 73 16H75C75 15.1689 74.9365 14.3519 74.814 13.5538L72.8372 13.8573ZM73 16C73 23.732 66.732 30 59 30V32C67.8366 32 75 24.8366 75 16H73ZM59 30C51.268 30 45 23.732 45 16H43C43 24.8366 50.1634 32 59 32V30ZM45 16C45 15.2708 45.0557 14.5553 45.1628 13.8572L43.186 13.5538C43.0635 14.3519 43 15.1689 43 16H45ZM77.2491 8C75.7222 8 74.498 8.84101 73.737 9.94894C72.9818 11.0485 72.6258 12.4803 72.8372 13.8573L74.814 13.5538C74.6825 12.697 74.9084 11.776 75.3856 11.0813C75.8571 10.3949 76.516 10 77.2491 10V8ZM110 77.249C110 75.7222 109.159 74.498 108.051 73.737C106.951 72.9817 105.52 72.6258 104.143 72.8372L104.446 74.814C105.303 74.6825 106.224 74.9084 106.919 75.3856C107.605 75.857 108 76.516 108 77.249H110ZM110 12C110 9.79086 108.209 8 106 8V10C107.105 10 108 10.8954 108 12H110ZM40.751 110C42.2778 110 43.502 109.159 44.263 108.051C45.0183 106.951 45.3742 105.52 45.1628 104.143L43.186 104.446C43.3175 105.303 43.0916 106.224 42.6144 106.919C42.143 107.605 41.484 108 40.751 108V110ZM104.143 45.1628C105.52 45.3742 106.951 45.0183 108.051 44.263C109.159 43.502 110 42.2778 110 40.7509H108C108 41.484 107.605 42.143 106.919 42.6144C106.224 43.0916 105.303 43.3175 104.446 43.186L104.143 45.1628ZM8 106C8 108.209 9.79086 110 12 110V108C10.8954 108 10 107.105 10 106H8ZM106 110C108.209 110 110 108.209 110 106H108C108 107.105 107.105 108 106 108V110ZM8 40.7509C8 42.2778 8.84101 43.502 9.94894 44.263C11.0485 45.0183 12.4803 45.3742 13.8572 45.1628L13.5538 43.186C12.697 43.3175 11.776 43.0916 11.0813 42.6144C10.3949 42.143 10 41.484 10 40.7509H8ZM13.8572 72.8372C12.4803 72.6258 11.0485 72.9817 9.94894 73.737C8.84101 74.498 8 75.7222 8 77.2491H10C10 76.516 10.3949 75.857 11.0813 75.3856C11.776 74.9084 12.697 74.6825 13.5538 74.814L13.8572 72.8372ZM72.8372 104.143C72.6258 105.52 72.9817 106.951 73.737 108.051C74.498 109.159 75.7222 110 77.2491 110V108C76.516 108 75.857 107.605 75.3856 106.919C74.9084 106.224 74.6825 105.303 74.814 104.446L72.8372 104.143ZM12 8C9.79086 8 8 9.79086 8 12H10C10 10.8954 10.8954 10 12 10V8ZM40.7509 10C41.484 10 42.143 10.3949 42.6144 11.0813C43.0916 11.776 43.3175 12.697 43.186 13.5538L45.1628 13.8572C45.3742 12.4803 45.0183 11.0485 44.263 9.94894C43.502 8.84101 42.2778 8 40.7509 8V10Z" fill="black" mask="url(#path-2-inside-1_1_233)"/>
</svg>
