<svg width="1664" height="1377" viewBox="0 0 1664 1377" fill="none" xmlns="http://www.w3.org/2000/svg">
<g filter="url(#filter0_dd_10_10397)">
<g clip-path="url(#clip0_10_10397)">
<g clip-path="url(#clip1_10_10397)">
<path fill-rule="evenodd" clip-rule="evenodd" d="M228.763 763.624C253.637 851.864 345.335 903.232 433.575 878.357L443.071 912.044C336.226 942.164 225.195 879.965 195.075 773.12L228.763 763.624Z" fill="#0085C7"/>
</g>
<g clip-path="url(#clip2_10_10397)">
<path fill-rule="evenodd" clip-rule="evenodd" d="M228.763 763.624C253.637 851.864 345.335 903.232 433.575 878.357L443.071 912.044C336.226 942.164 225.195 879.965 195.075 773.12L228.763 763.624Z" fill="#0085C7"/>
</g>
<g clip-path="url(#clip3_10_10397)">
<path fill-rule="evenodd" clip-rule="evenodd" d="M432.613 878.629C520.853 853.754 572.221 762.056 547.346 673.816L581.033 664.32C611.153 771.165 548.954 882.196 442.109 912.316L432.613 878.629Z" fill="#0085C7"/>
</g>
<g clip-path="url(#clip4_10_10397)">
<path fill-rule="evenodd" clip-rule="evenodd" d="M547.618 674.779C522.743 586.538 431.045 535.17 342.805 560.045L333.309 526.358C440.154 496.239 551.186 558.437 581.305 665.282L547.618 674.779Z" fill="#0085C7"/>
</g>
</g>
<g clip-path="url(#clip5_10_10397)">
<g clip-path="url(#clip6_10_10397)">
<path fill-rule="evenodd" clip-rule="evenodd" d="M515.167 936.237C571.285 1008.73 675.549 1022.01 748.046 965.893L769.47 993.569C681.688 1061.52 555.441 1045.44 487.49 957.662L515.167 936.237Z" fill="#F4C300"/>
</g>
<g clip-path="url(#clip7_10_10397)">
<path fill-rule="evenodd" clip-rule="evenodd" d="M515.167 936.237C571.285 1008.73 675.549 1022.01 748.046 965.893L769.47 993.569C681.688 1061.52 555.441 1045.44 487.49 957.662L515.167 936.237Z" fill="#F4C300"/>
</g>
<g clip-path="url(#clip8_10_10397)">
<path fill-rule="evenodd" clip-rule="evenodd" d="M747.255 966.505C819.752 910.386 833.029 806.123 776.91 733.626L804.587 712.202C872.538 799.984 856.461 926.23 768.679 994.181L747.255 966.505Z" fill="#F4C300"/>
</g>
<g clip-path="url(#clip9_10_10397)">
<path fill-rule="evenodd" clip-rule="evenodd" d="M777.522 734.417C721.403 661.92 617.14 648.643 544.643 704.761L523.219 677.085C611.001 609.134 737.248 625.21 805.199 712.992L777.522 734.417Z" fill="#F4C300"/>
</g>
</g>
<g clip-path="url(#clip10_10_10397)">
<g clip-path="url(#clip11_10_10397)">
<path fill-rule="evenodd" clip-rule="evenodd" d="M642.962 619.82C655.314 710.663 738.971 774.293 829.814 761.941L834.529 796.622C724.532 811.578 623.238 734.532 608.282 624.535L642.962 619.82Z" fill="black"/>
</g>
<g clip-path="url(#clip12_10_10397)">
<path fill-rule="evenodd" clip-rule="evenodd" d="M642.962 619.82C655.314 710.663 738.971 774.293 829.814 761.941L834.529 796.622C724.532 811.578 623.238 734.532 608.282 624.535L642.962 619.82Z" fill="black"/>
</g>
<g clip-path="url(#clip13_10_10397)">
<path fill-rule="evenodd" clip-rule="evenodd" d="M828.823 762.076C919.666 749.724 983.296 666.068 970.945 575.225L1005.63 570.509C1020.58 680.506 943.536 781.801 833.539 796.757L828.823 762.076Z" fill="black"/>
</g>
<g clip-path="url(#clip14_10_10397)">
<path fill-rule="evenodd" clip-rule="evenodd" d="M971.079 576.216C958.728 485.372 875.071 421.742 784.228 434.094L779.512 399.413C889.51 384.457 990.804 461.503 1005.76 571.5L971.079 576.216Z" fill="black"/>
</g>
</g>
<g clip-path="url(#clip15_10_10397)">
<g clip-path="url(#clip16_10_10397)">
<path fill-rule="evenodd" clip-rule="evenodd" d="M1076.38 882.381C1167.86 876.396 1237.17 797.382 1231.19 705.899L1266.12 703.614C1273.36 814.386 1189.44 910.06 1078.67 917.307L1076.38 882.381Z" fill="#009F3D"/>
</g>
<g clip-path="url(#clip17_10_10397)">
<path fill-rule="evenodd" clip-rule="evenodd" d="M1076.38 882.381C1167.86 876.396 1237.17 797.382 1231.19 705.899L1266.12 703.614C1273.36 814.386 1189.44 910.06 1078.67 917.307L1076.38 882.381Z" fill="#009F3D"/>
</g>
<g clip-path="url(#clip18_10_10397)">
<path fill-rule="evenodd" clip-rule="evenodd" d="M1231.26 706.897C1225.27 615.413 1146.26 546.102 1054.77 552.087L1052.49 517.162C1163.26 509.915 1258.93 593.839 1266.18 704.612L1231.26 706.897Z" fill="#009F3D"/>
</g>
<g clip-path="url(#clip19_10_10397)">
<path fill-rule="evenodd" clip-rule="evenodd" d="M1055.77 552.022C964.287 558.007 894.976 637.021 900.961 728.504L866.036 730.789C858.789 620.017 942.713 524.343 1053.49 517.097L1055.77 552.022Z" fill="#009F3D"/>
</g>
</g>
<g clip-path="url(#clip20_10_10397)">
<g clip-path="url(#clip21_10_10397)">
<path fill-rule="evenodd" clip-rule="evenodd" d="M1326.11 347.424C1252.66 292.561 1148.64 307.63 1093.77 381.082L1065.73 360.137C1132.16 271.199 1258.11 252.952 1347.05 319.383L1326.11 347.424Z" fill="#DF0024"/>
</g>
<g clip-path="url(#clip22_10_10397)">
<path fill-rule="evenodd" clip-rule="evenodd" d="M1326.11 347.424C1252.66 292.561 1148.64 307.63 1093.77 381.082L1065.73 360.137C1132.16 271.199 1258.11 252.952 1347.05 319.383L1326.11 347.424Z" fill="#DF0024"/>
</g>
<g clip-path="url(#clip23_10_10397)">
<path fill-rule="evenodd" clip-rule="evenodd" d="M1326.11 347.424C1252.66 292.561 1148.64 307.63 1093.77 381.082L1065.73 360.137C1132.16 271.199 1258.11 252.952 1347.05 319.383L1326.11 347.424Z" fill="#DF0024"/>
</g>
<g clip-path="url(#clip24_10_10397)">
<path fill-rule="evenodd" clip-rule="evenodd" d="M1094.37 380.281C1039.51 453.732 1054.58 557.752 1128.03 612.615L1107.08 640.656C1018.15 574.226 999.899 448.274 1066.33 359.336L1094.37 380.281Z" fill="#DF0024"/>
</g>
</g>
<g clip-path="url(#clip25_10_10397)">
<g clip-path="url(#clip26_10_10397)">
<g clip-path="url(#clip27_10_10397)">
<path fill-rule="evenodd" clip-rule="evenodd" d="M1075.79 882.863C1167.28 876.878 1236.59 797.864 1230.6 706.38L1265.53 704.096C1272.78 814.868 1188.85 910.541 1078.08 917.788L1075.79 882.863Z" fill="#009F3D"/>
</g>
<g clip-path="url(#clip28_10_10397)">
<path fill-rule="evenodd" clip-rule="evenodd" d="M1230.67 707.378C1224.68 615.894 1145.67 546.584 1054.19 552.569L1051.9 517.643C1162.67 510.397 1258.35 594.321 1265.59 705.093L1230.67 707.378Z" fill="#009F3D"/>
</g>
</g>
</g>
<g clip-path="url(#clip29_10_10397)">
<g clip-path="url(#clip30_10_10397)">
<g clip-path="url(#clip31_10_10397)">
<path fill-rule="evenodd" clip-rule="evenodd" d="M343.768 559.774C255.527 584.648 204.159 676.346 229.034 764.586L195.347 774.082C165.228 667.237 227.426 556.206 334.271 526.086L343.768 559.774Z" fill="#0085C7"/>
</g>
<g clip-path="url(#clip32_10_10397)">
<path fill-rule="evenodd" clip-rule="evenodd" d="M228.763 763.624C253.637 851.864 345.335 903.232 433.575 878.357L443.071 912.044C336.226 942.164 225.195 879.965 195.075 773.12L228.763 763.624Z" fill="#0085C7"/>
</g>
<g clip-path="url(#clip33_10_10397)">
<path fill-rule="evenodd" clip-rule="evenodd" d="M432.613 878.629C520.853 853.754 572.221 762.056 547.346 673.816L581.033 664.32C611.153 771.165 548.954 882.196 442.109 912.316L432.613 878.629Z" fill="#0085C7"/>
</g>
<g clip-path="url(#clip34_10_10397)">
<path fill-rule="evenodd" clip-rule="evenodd" d="M547.618 674.779C522.743 586.538 431.045 535.17 342.805 560.045L333.309 526.358C440.154 496.239 551.186 558.437 581.305 665.282L547.618 674.779Z" fill="#0085C7"/>
</g>
</g>
</g>
<g clip-path="url(#clip35_10_10397)">
<g clip-path="url(#clip36_10_10397)">
<g clip-path="url(#clip37_10_10397)">
<path fill-rule="evenodd" clip-rule="evenodd" d="M515.508 935.436C571.627 1007.93 675.89 1021.21 748.387 965.092L769.811 992.768C682.029 1060.72 555.782 1044.64 487.831 956.861L515.508 935.436Z" fill="#F4C300"/>
</g>
<g clip-path="url(#clip38_10_10397)">
<path fill-rule="evenodd" clip-rule="evenodd" d="M747.596 965.704C820.093 909.585 833.37 805.322 777.251 732.825L804.928 711.401C872.879 799.183 856.803 925.429 769.02 993.38L747.596 965.704Z" fill="#F4C300"/>
</g>
<g clip-path="url(#clip39_10_10397)">
<path fill-rule="evenodd" clip-rule="evenodd" d="M777.863 733.616C721.745 661.119 617.481 647.842 544.985 703.96L523.56 676.284C611.343 608.333 737.589 624.409 805.54 712.191L777.863 733.616Z" fill="#F4C300"/>
</g>
</g>
</g>
<g clip-path="url(#clip40_10_10397)">
<g clip-path="url(#clip41_10_10397)">
<g clip-path="url(#clip42_10_10397)">
<path fill-rule="evenodd" clip-rule="evenodd" d="M647.594 642.44C672.468 730.68 764.166 782.048 852.406 757.174L861.903 790.861C755.057 820.98 644.026 758.781 613.907 651.936L647.594 642.44Z" fill="black"/>
</g>
<g clip-path="url(#clip43_10_10397)">
<path fill-rule="evenodd" clip-rule="evenodd" d="M851.444 757.445C939.684 732.57 991.052 640.873 966.177 552.632L999.865 543.136C1029.98 649.981 967.785 761.013 860.94 791.132L851.444 757.445Z" fill="black"/>
</g>
</g>
</g>
</g>
<g opacity="0.2">
<rect width="1440" height="1024" transform="translate(0 390.703) rotate(-15.7429)" fill="white"/>
<g clip-path="url(#clip44_10_10397)">
<g clip-path="url(#clip45_10_10397)">
<path fill-rule="evenodd" clip-rule="evenodd" d="M343.768 559.774C255.527 584.648 204.159 676.346 229.034 764.586L195.347 774.082C165.228 667.237 227.426 556.206 334.271 526.086L343.768 559.774Z" fill="#0085C7"/>
</g>
<g clip-path="url(#clip46_10_10397)">
<path fill-rule="evenodd" clip-rule="evenodd" d="M228.763 763.624C253.637 851.864 345.335 903.232 433.575 878.357L443.071 912.044C336.226 942.164 225.195 879.965 195.075 773.12L228.763 763.624Z" fill="#0085C7"/>
</g>
<g clip-path="url(#clip47_10_10397)">
<path fill-rule="evenodd" clip-rule="evenodd" d="M432.613 878.629C520.853 853.754 572.221 762.056 547.346 673.816L581.033 664.32C611.153 771.165 548.954 882.196 442.109 912.316L432.613 878.629Z" fill="#0085C7"/>
</g>
<g clip-path="url(#clip48_10_10397)">
<path fill-rule="evenodd" clip-rule="evenodd" d="M547.618 674.779C522.743 586.538 431.045 535.17 342.805 560.045L333.309 526.358C440.154 496.239 551.186 558.437 581.305 665.282L547.618 674.779Z" fill="#0085C7"/>
</g>
</g>
<g clip-path="url(#clip49_10_10397)">
<g clip-path="url(#clip50_10_10397)">
<path fill-rule="evenodd" clip-rule="evenodd" d="M545.434 704.149C472.937 760.268 459.66 864.531 515.779 937.028L488.102 958.452C420.151 870.67 436.228 744.423 524.01 676.472L545.434 704.149Z" fill="#F4C300"/>
</g>
<g clip-path="url(#clip51_10_10397)">
<path fill-rule="evenodd" clip-rule="evenodd" d="M515.167 936.237C571.285 1008.73 675.549 1022.01 748.046 965.893L769.47 993.569C681.688 1061.52 555.441 1045.44 487.49 957.662L515.167 936.237Z" fill="#F4C300"/>
</g>
<g clip-path="url(#clip52_10_10397)">
<path fill-rule="evenodd" clip-rule="evenodd" d="M747.255 966.505C819.752 910.386 833.029 806.123 776.91 733.626L804.587 712.202C872.538 799.984 856.461 926.23 768.679 994.181L747.255 966.505Z" fill="#F4C300"/>
</g>
<g clip-path="url(#clip53_10_10397)">
<path fill-rule="evenodd" clip-rule="evenodd" d="M777.522 734.417C721.403 661.92 617.14 648.643 544.643 704.761L523.219 677.085C611.001 609.134 737.248 625.21 805.199 712.992L777.522 734.417Z" fill="#F4C300"/>
</g>
</g>
<g clip-path="url(#clip54_10_10397)">
<g clip-path="url(#clip55_10_10397)">
<path fill-rule="evenodd" clip-rule="evenodd" d="M785.219 433.959C694.375 446.311 630.745 529.967 643.097 620.811L608.416 625.526C593.46 515.529 670.506 414.234 780.503 399.278L785.219 433.959Z" fill="black"/>
</g>
<g clip-path="url(#clip56_10_10397)">
<path fill-rule="evenodd" clip-rule="evenodd" d="M642.962 619.82C655.314 710.663 738.971 774.293 829.814 761.941L834.529 796.622C724.532 811.578 623.238 734.532 608.282 624.535L642.962 619.82Z" fill="black"/>
</g>
<g clip-path="url(#clip57_10_10397)">
<path fill-rule="evenodd" clip-rule="evenodd" d="M828.823 762.076C919.666 749.724 983.296 666.068 970.945 575.225L1005.63 570.509C1020.58 680.506 943.536 781.801 833.539 796.757L828.823 762.076Z" fill="black"/>
</g>
<g clip-path="url(#clip58_10_10397)">
<path fill-rule="evenodd" clip-rule="evenodd" d="M971.079 576.216C958.728 485.372 875.071 421.742 784.228 434.094L779.512 399.413C889.51 384.457 990.804 461.503 1005.76 571.5L971.079 576.216Z" fill="black"/>
</g>
</g>
<g clip-path="url(#clip59_10_10397)">
<g clip-path="url(#clip60_10_10397)">
<path fill-rule="evenodd" clip-rule="evenodd" d="M900.896 727.506C906.88 818.99 985.894 888.301 1077.38 882.316L1079.66 917.241C968.89 924.488 873.217 840.564 865.97 729.791L900.896 727.506Z" fill="#009F3D"/>
</g>
<g clip-path="url(#clip61_10_10397)">
<path fill-rule="evenodd" clip-rule="evenodd" d="M1076.38 882.381C1167.86 876.396 1237.17 797.382 1231.19 705.899L1266.12 703.614C1273.36 814.386 1189.44 910.06 1078.67 917.307L1076.38 882.381Z" fill="#009F3D"/>
</g>
<g clip-path="url(#clip62_10_10397)">
<path fill-rule="evenodd" clip-rule="evenodd" d="M1231.26 706.897C1225.27 615.413 1146.26 546.102 1054.77 552.087L1052.49 517.162C1163.26 509.915 1258.93 593.839 1266.18 704.612L1231.26 706.897Z" fill="#009F3D"/>
</g>
<g clip-path="url(#clip63_10_10397)">
<path fill-rule="evenodd" clip-rule="evenodd" d="M1055.77 552.022C964.287 558.007 894.976 637.021 900.961 728.504L866.036 730.789C858.789 620.017 942.713 524.343 1053.49 517.097L1055.77 552.022Z" fill="#009F3D"/>
</g>
</g>
<g clip-path="url(#clip64_10_10397)">
<g clip-path="url(#clip65_10_10397)">
<path fill-rule="evenodd" clip-rule="evenodd" d="M1127.23 612.016C1200.68 666.879 1304.7 651.81 1359.56 578.359L1387.6 599.304C1321.17 688.242 1195.22 706.488 1106.28 640.058L1127.23 612.016Z" fill="#DF0024"/>
</g>
<g clip-path="url(#clip66_10_10397)">
<path fill-rule="evenodd" clip-rule="evenodd" d="M1358.96 579.16C1413.83 505.709 1398.76 401.689 1325.31 346.826L1346.25 318.785C1435.19 385.215 1453.44 511.167 1387 600.105L1358.96 579.16Z" fill="#DF0024"/>
</g>
<g clip-path="url(#clip67_10_10397)">
<path fill-rule="evenodd" clip-rule="evenodd" d="M1326.11 347.424C1252.66 292.561 1148.64 307.63 1093.77 381.082L1065.73 360.137C1132.16 271.199 1258.11 252.952 1347.05 319.383L1326.11 347.424Z" fill="#DF0024"/>
</g>
<g clip-path="url(#clip68_10_10397)">
<path fill-rule="evenodd" clip-rule="evenodd" d="M1094.37 380.281C1039.51 453.732 1054.58 557.752 1128.03 612.615L1107.08 640.656C1018.15 574.226 999.899 448.274 1066.33 359.336L1094.37 380.281Z" fill="#DF0024"/>
</g>
</g>
<g clip-path="url(#clip69_10_10397)">
<g clip-path="url(#clip70_10_10397)">
<g clip-path="url(#clip71_10_10397)">
<path fill-rule="evenodd" clip-rule="evenodd" d="M1075.79 882.863C1167.28 876.878 1236.59 797.864 1230.6 706.38L1265.53 704.096C1272.78 814.868 1188.85 910.541 1078.08 917.788L1075.79 882.863Z" fill="#009F3D"/>
</g>
<g clip-path="url(#clip72_10_10397)">
<path fill-rule="evenodd" clip-rule="evenodd" d="M1230.67 707.378C1224.68 615.894 1145.67 546.584 1054.19 552.569L1051.9 517.643C1162.67 510.397 1258.35 594.321 1265.59 705.093L1230.67 707.378Z" fill="#009F3D"/>
</g>
</g>
</g>
<g clip-path="url(#clip73_10_10397)">
<g clip-path="url(#clip74_10_10397)">
<g clip-path="url(#clip75_10_10397)">
<path fill-rule="evenodd" clip-rule="evenodd" d="M343.768 559.774C255.527 584.648 204.159 676.346 229.034 764.586L195.347 774.082C165.228 667.237 227.426 556.206 334.271 526.086L343.768 559.774Z" fill="#0085C7"/>
</g>
<g clip-path="url(#clip76_10_10397)">
<path fill-rule="evenodd" clip-rule="evenodd" d="M228.763 763.624C253.637 851.864 345.335 903.232 433.575 878.357L443.071 912.044C336.226 942.164 225.195 879.965 195.075 773.12L228.763 763.624Z" fill="#0085C7"/>
</g>
<g clip-path="url(#clip77_10_10397)">
<path fill-rule="evenodd" clip-rule="evenodd" d="M432.613 878.629C520.853 853.754 572.221 762.056 547.346 673.816L581.033 664.32C611.153 771.165 548.954 882.196 442.109 912.316L432.613 878.629Z" fill="#0085C7"/>
</g>
<g clip-path="url(#clip78_10_10397)">
<path fill-rule="evenodd" clip-rule="evenodd" d="M547.618 674.779C522.743 586.538 431.045 535.17 342.805 560.045L333.309 526.358C440.154 496.239 551.186 558.437 581.305 665.282L547.618 674.779Z" fill="#0085C7"/>
</g>
</g>
</g>
<g clip-path="url(#clip79_10_10397)">
<g clip-path="url(#clip80_10_10397)">
<g clip-path="url(#clip81_10_10397)">
<path fill-rule="evenodd" clip-rule="evenodd" d="M515.508 935.436C571.627 1007.93 675.89 1021.21 748.387 965.092L769.811 992.768C682.029 1060.72 555.782 1044.64 487.831 956.861L515.508 935.436Z" fill="#F4C300"/>
</g>
<g clip-path="url(#clip82_10_10397)">
<path fill-rule="evenodd" clip-rule="evenodd" d="M747.596 965.704C820.093 909.585 833.37 805.322 777.251 732.825L804.928 711.401C872.879 799.183 856.803 925.429 769.02 993.38L747.596 965.704Z" fill="#F4C300"/>
</g>
<g clip-path="url(#clip83_10_10397)">
<path fill-rule="evenodd" clip-rule="evenodd" d="M777.863 733.616C721.745 661.119 617.481 647.842 544.985 703.96L523.56 676.284C611.343 608.333 737.589 624.409 805.54 712.191L777.863 733.616Z" fill="#F4C300"/>
</g>
</g>
</g>
<g clip-path="url(#clip84_10_10397)">
<g clip-path="url(#clip85_10_10397)">
<g clip-path="url(#clip86_10_10397)">
<path fill-rule="evenodd" clip-rule="evenodd" d="M647.594 642.44C672.468 730.68 764.166 782.048 852.406 757.174L861.903 790.861C755.057 820.98 644.026 758.781 613.907 651.936L647.594 642.44Z" fill="black"/>
</g>
<g clip-path="url(#clip87_10_10397)">
<path fill-rule="evenodd" clip-rule="evenodd" d="M851.444 757.445C939.684 732.57 991.052 640.873 966.177 552.632L999.865 543.136C1029.98 649.981 967.785 761.013 860.94 791.132L851.444 757.445Z" fill="black"/>
</g>
</g>
</g>
</g>
<defs>
<filter id="filter0_dd_10_10397" x="-50" y="-40" width="1763.82" height="1476.29" filterUnits="userSpaceOnUse" color-interpolation-filters="sRGB">
<feFlood flood-opacity="0" result="BackgroundImageFix"/>
<feColorMatrix in="SourceAlpha" type="matrix" values="0 0 0 0 0 0 0 0 0 0 0 0 0 0 0 0 0 0 127 0" result="hardAlpha"/>
<feMorphology radius="1" operator="dilate" in="SourceAlpha" result="effect1_dropShadow_10_10397"/>
<feOffset dy="2"/>
<feGaussianBlur stdDeviation="20"/>
<feColorMatrix type="matrix" values="0 0 0 0 0.109804 0 0 0 0 0.192157 0 0 0 0 0.266667 0 0 0 0.3 0"/>
<feBlend mode="normal" in2="BackgroundImageFix" result="effect1_dropShadow_10_10397"/>
<feColorMatrix in="SourceAlpha" type="matrix" values="0 0 0 0 0 0 0 0 0 0 0 0 0 0 0 0 0 0 127 0" result="hardAlpha"/>
<feOffset dy="10"/>
<feGaussianBlur stdDeviation="25"/>
<feColorMatrix type="matrix" values="0 0 0 0 0 0 0 0 0 0 0 0 0 0 0 0 0 0 0.1 0"/>
<feBlend mode="normal" in2="effect1_dropShadow_10_10397" result="effect2_dropShadow_10_10397"/>
<feBlend mode="normal" in="SourceGraphic" in2="effect2_dropShadow_10_10397" result="shape"/>
</filter>
<clipPath id="clip0_10_10397">
<rect width="401" height="401" fill="white" transform="translate(140.811 580.622) rotate(-15.7429)"/>
</clipPath>
<clipPath id="clip1_10_10397">
<rect width="401" height="401" fill="white" transform="translate(635.569 857.78) rotate(164.257)"/>
</clipPath>
<clipPath id="clip2_10_10397">
<rect width="401" height="401" fill="white" transform="translate(635.569 857.78) rotate(164.257)"/>
</clipPath>
<clipPath id="clip3_10_10397">
<rect width="401" height="401" fill="white" transform="translate(526.769 471.822) rotate(74.2571)"/>
</clipPath>
<clipPath id="clip4_10_10397">
<rect width="401" height="401" fill="white" transform="translate(140.811 580.622) rotate(-15.7429)"/>
</clipPath>
<clipPath id="clip5_10_10397">
<rect width="401" height="401" fill="white" transform="translate(365.066 799.509) rotate(-37.7429)"/>
</clipPath>
<clipPath id="clip6_10_10397">
<rect width="401" height="401" fill="white" transform="translate(927.623 871.145) rotate(142.257)"/>
</clipPath>
<clipPath id="clip7_10_10397">
<rect width="401" height="401" fill="white" transform="translate(927.623 871.145) rotate(142.257)"/>
</clipPath>
<clipPath id="clip8_10_10397">
<rect width="401" height="401" fill="white" transform="translate(682.163 554.049) rotate(52.2571)"/>
</clipPath>
<clipPath id="clip9_10_10397">
<rect width="401" height="401" fill="white" transform="translate(365.066 799.509) rotate(-37.7429)"/>
</clipPath>
<clipPath id="clip10_10_10397">
<rect width="401" height="401" fill="white" transform="translate(581.336 426.359) rotate(-7.74293)"/>
</clipPath>
<clipPath id="clip11_10_10397">
<rect width="401" height="401" fill="white" transform="translate(1032.71 769.677) rotate(172.257)"/>
</clipPath>
<clipPath id="clip12_10_10397">
<rect width="401" height="401" fill="white" transform="translate(1032.71 769.677) rotate(172.257)"/>
</clipPath>
<clipPath id="clip13_10_10397">
<rect width="401" height="401" fill="white" transform="translate(978.68 372.333) rotate(82.2571)"/>
</clipPath>
<clipPath id="clip14_10_10397">
<rect width="401" height="401" fill="white" transform="translate(581.336 426.359) rotate(-7.74293)"/>
</clipPath>
<clipPath id="clip15_10_10397">
<rect width="401" height="401" fill="white" transform="translate(879.092 930.363) rotate(-93.7429)"/>
</clipPath>
<clipPath id="clip16_10_10397">
<rect width="401" height="401" fill="white" transform="translate(1253.06 504.041) rotate(86.2571)"/>
</clipPath>
<clipPath id="clip17_10_10397">
<rect width="401" height="401" fill="white" transform="translate(1253.06 504.041) rotate(86.2571)"/>
</clipPath>
<clipPath id="clip18_10_10397">
<rect width="401" height="401" fill="white" transform="translate(852.914 530.218) rotate(-3.74293)"/>
</clipPath>
<clipPath id="clip19_10_10397">
<rect width="401" height="401" fill="white" transform="translate(879.092 930.363) rotate(-93.7429)"/>
</clipPath>
<clipPath id="clip20_10_10397">
<rect width="401" height="401" fill="white" transform="translate(1267.32 760.341) rotate(-143.243)"/>
</clipPath>
<clipPath id="clip21_10_10397">
<rect width="401" height="401" fill="white" transform="translate(946.047 520.373) rotate(-53.2429)"/>
</clipPath>
<clipPath id="clip22_10_10397">
<rect width="401" height="401" fill="white" transform="translate(946.047 520.373) rotate(-53.2429)"/>
</clipPath>
<clipPath id="clip23_10_10397">
<rect width="401" height="401" fill="white" transform="translate(946.047 520.373) rotate(-53.2429)"/>
</clipPath>
<clipPath id="clip24_10_10397">
<rect width="401" height="401" fill="white" transform="translate(1267.32 760.341) rotate(-143.243)"/>
</clipPath>
<clipPath id="clip25_10_10397">
<rect width="133" height="475" fill="white" transform="translate(1102.22 460.257) rotate(-15.7429)"/>
</clipPath>
<clipPath id="clip26_10_10397">
<rect width="401" height="401" fill="white" transform="translate(878.506 930.844) rotate(-93.7429)"/>
</clipPath>
<clipPath id="clip27_10_10397">
<rect width="401" height="401" fill="white" transform="translate(1252.47 504.522) rotate(86.2571)"/>
</clipPath>
<clipPath id="clip28_10_10397">
<rect width="401" height="401" fill="white" transform="translate(852.328 530.699) rotate(-3.74293)"/>
</clipPath>
<clipPath id="clip29_10_10397">
<rect width="219" height="172" fill="white" transform="translate(378.117 751.651) rotate(-15.7429)"/>
</clipPath>
<clipPath id="clip30_10_10397">
<rect width="401" height="401" fill="white" transform="translate(140.811 580.622) rotate(-15.7429)"/>
</clipPath>
<clipPath id="clip31_10_10397">
<rect width="401" height="401" fill="white" transform="translate(249.611 966.58) rotate(-105.743)"/>
</clipPath>
<clipPath id="clip32_10_10397">
<rect width="401" height="401" fill="white" transform="translate(635.569 857.78) rotate(164.257)"/>
</clipPath>
<clipPath id="clip33_10_10397">
<rect width="401" height="401" fill="white" transform="translate(526.769 471.822) rotate(74.2571)"/>
</clipPath>
<clipPath id="clip34_10_10397">
<rect width="401" height="401" fill="white" transform="translate(140.811 580.622) rotate(-15.7429)"/>
</clipPath>
<clipPath id="clip35_10_10397">
<rect width="100" height="342" fill="white" transform="translate(738.373 724.903) rotate(-15.7429)"/>
</clipPath>
<clipPath id="clip36_10_10397">
<rect width="401" height="401" fill="white" transform="translate(365.407 798.708) rotate(-37.7429)"/>
</clipPath>
<clipPath id="clip37_10_10397">
<rect width="401" height="401" fill="white" transform="translate(927.964 870.344) rotate(142.257)"/>
</clipPath>
<clipPath id="clip38_10_10397">
<rect width="401" height="401" fill="white" transform="translate(682.504 553.248) rotate(52.2571)"/>
</clipPath>
<clipPath id="clip39_10_10397">
<rect width="401" height="401" fill="white" transform="translate(365.407 798.708) rotate(-37.7429)"/>
</clipPath>
<clipPath id="clip40_10_10397">
<rect width="200" height="91" fill="white" transform="translate(837.212 703.274) rotate(-15.7429)"/>
</clipPath>
<clipPath id="clip41_10_10397">
<rect width="401" height="401" fill="white" transform="translate(559.642 459.438) rotate(-15.7429)"/>
</clipPath>
<clipPath id="clip42_10_10397">
<rect width="401" height="401" fill="white" transform="translate(1054.4 736.596) rotate(164.257)"/>
</clipPath>
<clipPath id="clip43_10_10397">
<rect width="401" height="401" fill="white" transform="translate(945.6 350.638) rotate(74.2571)"/>
</clipPath>
<clipPath id="clip44_10_10397">
<rect width="401" height="401" fill="white" transform="translate(140.811 580.622) rotate(-15.7429)"/>
</clipPath>
<clipPath id="clip45_10_10397">
<rect width="401" height="401" fill="white" transform="translate(249.611 966.58) rotate(-105.743)"/>
</clipPath>
<clipPath id="clip46_10_10397">
<rect width="401" height="401" fill="white" transform="translate(635.569 857.78) rotate(164.257)"/>
</clipPath>
<clipPath id="clip47_10_10397">
<rect width="401" height="401" fill="white" transform="translate(526.769 471.822) rotate(74.2571)"/>
</clipPath>
<clipPath id="clip48_10_10397">
<rect width="401" height="401" fill="white" transform="translate(140.811 580.622) rotate(-15.7429)"/>
</clipPath>
<clipPath id="clip49_10_10397">
<rect width="401" height="401" fill="white" transform="translate(365.066 799.509) rotate(-37.7429)"/>
</clipPath>
<clipPath id="clip50_10_10397">
<rect width="401" height="401" fill="white" transform="translate(610.526 1116.61) rotate(-127.743)"/>
</clipPath>
<clipPath id="clip51_10_10397">
<rect width="401" height="401" fill="white" transform="translate(927.623 871.145) rotate(142.257)"/>
</clipPath>
<clipPath id="clip52_10_10397">
<rect width="401" height="401" fill="white" transform="translate(682.163 554.049) rotate(52.2571)"/>
</clipPath>
<clipPath id="clip53_10_10397">
<rect width="401" height="401" fill="white" transform="translate(365.066 799.509) rotate(-37.7429)"/>
</clipPath>
<clipPath id="clip54_10_10397">
<rect width="401" height="401" fill="white" transform="translate(581.336 426.359) rotate(-7.74293)"/>
</clipPath>
<clipPath id="clip55_10_10397">
<rect width="401" height="401" fill="white" transform="translate(635.362 823.703) rotate(-97.7429)"/>
</clipPath>
<clipPath id="clip56_10_10397">
<rect width="401" height="401" fill="white" transform="translate(1032.71 769.677) rotate(172.257)"/>
</clipPath>
<clipPath id="clip57_10_10397">
<rect width="401" height="401" fill="white" transform="translate(978.68 372.333) rotate(82.2571)"/>
</clipPath>
<clipPath id="clip58_10_10397">
<rect width="401" height="401" fill="white" transform="translate(581.336 426.359) rotate(-7.74293)"/>
</clipPath>
<clipPath id="clip59_10_10397">
<rect width="401" height="401" fill="white" transform="translate(879.092 930.363) rotate(-93.7429)"/>
</clipPath>
<clipPath id="clip60_10_10397">
<rect width="401" height="401" fill="white" transform="translate(1279.24 904.185) rotate(176.257)"/>
</clipPath>
<clipPath id="clip61_10_10397">
<rect width="401" height="401" fill="white" transform="translate(1253.06 504.041) rotate(86.2571)"/>
</clipPath>
<clipPath id="clip62_10_10397">
<rect width="401" height="401" fill="white" transform="translate(852.914 530.218) rotate(-3.74293)"/>
</clipPath>
<clipPath id="clip63_10_10397">
<rect width="401" height="401" fill="white" transform="translate(879.092 930.363) rotate(-93.7429)"/>
</clipPath>
<clipPath id="clip64_10_10397">
<rect width="401" height="401" fill="white" transform="translate(1267.32 760.341) rotate(-143.243)"/>
</clipPath>
<clipPath id="clip65_10_10397">
<rect width="401" height="401" fill="white" transform="translate(1507.29 439.068) rotate(126.757)"/>
</clipPath>
<clipPath id="clip66_10_10397">
<rect width="401" height="401" fill="white" transform="translate(1186.01 199.1) rotate(36.7571)"/>
</clipPath>
<clipPath id="clip67_10_10397">
<rect width="401" height="401" fill="white" transform="translate(946.047 520.373) rotate(-53.2429)"/>
</clipPath>
<clipPath id="clip68_10_10397">
<rect width="401" height="401" fill="white" transform="translate(1267.32 760.341) rotate(-143.243)"/>
</clipPath>
<clipPath id="clip69_10_10397">
<rect width="133" height="475" fill="white" transform="translate(1102.22 460.257) rotate(-15.7429)"/>
</clipPath>
<clipPath id="clip70_10_10397">
<rect width="401" height="401" fill="white" transform="translate(878.506 930.844) rotate(-93.7429)"/>
</clipPath>
<clipPath id="clip71_10_10397">
<rect width="401" height="401" fill="white" transform="translate(1252.47 504.522) rotate(86.2571)"/>
</clipPath>
<clipPath id="clip72_10_10397">
<rect width="401" height="401" fill="white" transform="translate(852.328 530.699) rotate(-3.74293)"/>
</clipPath>
<clipPath id="clip73_10_10397">
<rect width="219" height="172" fill="white" transform="translate(378.117 751.651) rotate(-15.7429)"/>
</clipPath>
<clipPath id="clip74_10_10397">
<rect width="401" height="401" fill="white" transform="translate(140.811 580.622) rotate(-15.7429)"/>
</clipPath>
<clipPath id="clip75_10_10397">
<rect width="401" height="401" fill="white" transform="translate(249.611 966.58) rotate(-105.743)"/>
</clipPath>
<clipPath id="clip76_10_10397">
<rect width="401" height="401" fill="white" transform="translate(635.569 857.78) rotate(164.257)"/>
</clipPath>
<clipPath id="clip77_10_10397">
<rect width="401" height="401" fill="white" transform="translate(526.769 471.822) rotate(74.2571)"/>
</clipPath>
<clipPath id="clip78_10_10397">
<rect width="401" height="401" fill="white" transform="translate(140.811 580.622) rotate(-15.7429)"/>
</clipPath>
<clipPath id="clip79_10_10397">
<rect width="100" height="342" fill="white" transform="translate(738.373 724.903) rotate(-15.7429)"/>
</clipPath>
<clipPath id="clip80_10_10397">
<rect width="401" height="401" fill="white" transform="translate(365.407 798.708) rotate(-37.7429)"/>
</clipPath>
<clipPath id="clip81_10_10397">
<rect width="401" height="401" fill="white" transform="translate(927.964 870.344) rotate(142.257)"/>
</clipPath>
<clipPath id="clip82_10_10397">
<rect width="401" height="401" fill="white" transform="translate(682.504 553.248) rotate(52.2571)"/>
</clipPath>
<clipPath id="clip83_10_10397">
<rect width="401" height="401" fill="white" transform="translate(365.407 798.708) rotate(-37.7429)"/>
</clipPath>
<clipPath id="clip84_10_10397">
<rect width="200" height="91" fill="white" transform="translate(837.212 703.274) rotate(-15.7429)"/>
</clipPath>
<clipPath id="clip85_10_10397">
<rect width="401" height="401" fill="white" transform="translate(559.642 459.438) rotate(-15.7429)"/>
</clipPath>
<clipPath id="clip86_10_10397">
<rect width="401" height="401" fill="white" transform="translate(1054.4 736.596) rotate(164.257)"/>
</clipPath>
<clipPath id="clip87_10_10397">
<rect width="401" height="401" fill="white" transform="translate(945.6 350.638) rotate(74.2571)"/>
</clipPath>
</defs>
</svg>
