<svg width="237" height="242" viewBox="0 0 237 242" fill="none" xmlns="http://www.w3.org/2000/svg">
<rect width="237" height="242" fill="white"/>
<rect x="0.5" y="0.5" width="236" height="241" stroke="black" stroke-opacity="0.2"/>
<path fill-rule="evenodd" clip-rule="evenodd" d="M200 120C190.878 127.285 176.356 131.997 160 131.997C143.644 131.997 129.122 127.285 120 120V156.997H200V120Z" fill="url(#paint0_linear_1_112931)"/>
<path d="M200 120H200.5V118.961L199.688 119.609L200 120ZM120 120L120.312 119.609L119.5 118.961V120H120ZM120 156.997H119.5V157.497H120V156.997ZM200 156.997V157.497H200.5V156.997H200ZM199.688 119.609C190.675 126.807 176.272 131.497 160 131.497V132.497C176.44 132.497 191.081 127.763 200.312 120.391L199.688 119.609ZM160 131.497C143.728 131.497 129.325 126.807 120.312 119.609L119.688 120.391C128.919 127.763 143.56 132.497 160 132.497V131.497ZM120.5 156.997V120H119.5V156.997H120.5ZM200 156.497H120V157.497H200V156.497ZM199.5 120V156.997H200.5V120H199.5Z" fill="#1C6EE8"/>
<circle cx="160" cy="139" r="4" fill="white" fill-opacity="0.6"/>
<circle cx="160" cy="139" r="2" fill="#1C6EE8"/>
<path d="M80 59C125.954 63.2208 59 135.5 160 139" stroke="#8B8B8B" stroke-dasharray="2 3"/>
<path d="M164.677 138.03L161.138 133.908C160.54 133.211 159.46 133.211 158.862 133.908L155.323 138.03C154.841 138.592 154.841 139.422 155.323 139.984L158.862 144.106C159.46 144.803 160.54 144.803 161.138 144.106L164.677 139.984C165.159 139.422 165.159 138.592 164.677 138.03Z" fill="#7C7C7E" stroke="white"/>
<path d="M77 59C77 57.3431 78.3431 56 80 56V56C81.6569 56 83 57.3431 83 59V59C83 60.6569 81.6569 62 80 62V62C78.3431 62 77 60.6569 77 59V59Z" fill="#5C5C5C"/>
<defs>
<linearGradient id="paint0_linear_1_112931" x1="183.6" y1="132.332" x2="183.6" y2="173.029" gradientUnits="userSpaceOnUse">
<stop stop-color="#C4C825"/>
<stop offset="1" stop-color="#25C852"/>
</linearGradient>
</defs>
</svg>
