<svg width="316" height="300" viewBox="0 0 316 300" fill="none" xmlns="http://www.w3.org/2000/svg">
<rect width="300" height="300" fill="#F5F5F5"/>
<circle opacity="0.4" cx="150" cy="150" r="50" fill="url(#paint0_angular_1_3500)"/>
<ellipse cx="199.5" cy="150" rx="99.5" ry="50" fill="url(#paint1_angular_1_3500)" stroke="#1C6EE8"/>
<rect x="100" y="100" width="200" height="100" stroke="#1C6EE8"/>
<g filter="url(#filter0_d_1_3500)">
<rect x="96" y="96" width="8" height="8" fill="white"/>
<rect x="96.5" y="96.5" width="7" height="7" stroke="#1C6EE8"/>
</g>
<g filter="url(#filter1_d_1_3500)">
<rect x="96" y="196" width="8" height="8" fill="white"/>
<rect x="96.5" y="196.5" width="7" height="7" stroke="#1C6EE8"/>
</g>
<g filter="url(#filter2_d_1_3500)">
<rect x="296" y="96" width="8" height="8" fill="white"/>
<rect x="296.5" y="96.5" width="7" height="7" stroke="#1C6EE8"/>
</g>
<g filter="url(#filter3_d_1_3500)">
<rect x="296" y="196" width="8" height="8" fill="white"/>
<rect x="296.5" y="196.5" width="7" height="7" stroke="#1C6EE8"/>
</g>
<path d="M98.25 146.402V144C98.25 143.034 99.0335 142.25 100 142.25C100.966 142.25 101.75 143.034 101.75 144V146.402C102.554 146.794 103.206 147.446 103.598 148.25H106C106.966 148.25 107.75 149.034 107.75 150C107.75 150.966 106.966 151.75 106 151.75H103.598C103.206 152.554 102.554 153.206 101.75 153.598V156C101.75 156.966 100.966 157.75 100 157.75C99.0335 157.75 98.25 156.966 98.25 156V153.598C97.4465 153.206 96.7937 152.554 96.4021 151.75H94C93.0335 151.75 92.25 150.966 92.25 150C92.25 149.034 93.0335 148.25 94 148.25H96.4021C96.7937 147.446 97.4465 146.794 98.25 146.402Z" fill="white"/>
<path fill-rule="evenodd" clip-rule="evenodd" d="M100 143.25C100.414 143.25 100.75 143.586 100.75 144V147.095C101.804 147.366 102.634 148.196 102.905 149.25H106C106.414 149.25 106.75 149.586 106.75 150C106.75 150.414 106.414 150.75 106 150.75H102.905C102.634 151.804 101.804 152.634 100.75 152.905V156C100.75 156.414 100.414 156.75 100 156.75C99.5858 156.75 99.25 156.414 99.25 156V152.905C98.1958 152.634 97.3658 151.804 97.0945 150.75H94C93.5858 150.75 93.25 150.414 93.25 150C93.25 149.586 93.5858 149.25 94 149.25H97.0945C97.3658 148.196 98.1958 147.366 99.25 147.095V144C99.25 143.586 99.5858 143.25 100 143.25ZM101.5 150C101.5 150.828 100.828 151.5 100 151.5C99.1716 151.5 98.5 150.828 98.5 150C98.5 149.172 99.1716 148.5 100 148.5C100.828 148.5 101.5 149.172 101.5 150Z" fill="#1C6EE8"/>
<line x1="300.5" y1="-2.18557e-08" x2="300.5" y2="300" stroke="#FF0000"/>
<rect x="200" y="145" width="100" height="10" fill="#FF03A9" fill-opacity="0.7"/>
<path d="M224.52 154.125C224.02 154.125 223.578 153.999 223.195 153.746C222.813 153.491 222.513 153.132 222.297 152.668C222.081 152.202 221.973 151.651 221.973 151.016C221.973 150.385 222.081 149.839 222.297 149.375C222.513 148.911 222.814 148.553 223.199 148.301C223.585 148.048 224.03 147.922 224.535 147.922C224.926 147.922 225.234 147.987 225.461 148.117C225.69 148.245 225.865 148.391 225.984 148.555C226.107 148.716 226.202 148.849 226.27 148.953H226.348V146H227.27V154H226.379V153.078H226.27C226.202 153.187 226.105 153.326 225.98 153.492C225.855 153.656 225.677 153.803 225.445 153.934C225.214 154.061 224.905 154.125 224.52 154.125ZM224.645 153.297C225.014 153.297 225.327 153.201 225.582 153.008C225.837 152.812 226.031 152.543 226.164 152.199C226.297 151.853 226.363 151.453 226.363 151C226.363 150.552 226.298 150.16 226.168 149.824C226.038 149.486 225.845 149.223 225.59 149.035C225.335 148.845 225.02 148.75 224.645 148.75C224.254 148.75 223.928 148.85 223.668 149.051C223.41 149.249 223.216 149.518 223.086 149.859C222.958 150.198 222.895 150.578 222.895 151C222.895 151.427 222.96 151.815 223.09 152.164C223.223 152.51 223.418 152.786 223.676 152.992C223.936 153.195 224.259 153.297 224.645 153.297ZM229.086 154V148H229.977V148.906H230.039C230.148 148.609 230.346 148.368 230.633 148.184C230.919 147.999 231.242 147.906 231.602 147.906C231.669 147.906 231.754 147.908 231.855 147.91C231.957 147.913 232.034 147.917 232.086 147.922V148.859C232.055 148.852 231.983 148.84 231.871 148.824C231.762 148.806 231.646 148.797 231.523 148.797C231.232 148.797 230.971 148.858 230.742 148.98C230.516 149.1 230.336 149.267 230.203 149.48C230.073 149.691 230.008 149.932 230.008 150.203V154H229.086ZM234.944 154.141C234.564 154.141 234.219 154.069 233.909 153.926C233.599 153.78 233.353 153.57 233.171 153.297C232.989 153.021 232.897 152.687 232.897 152.297C232.897 151.953 232.965 151.674 233.101 151.461C233.236 151.245 233.417 151.076 233.644 150.953C233.87 150.831 234.12 150.74 234.394 150.68C234.67 150.617 234.947 150.568 235.226 150.531C235.59 150.484 235.886 150.449 236.112 150.426C236.341 150.4 236.508 150.357 236.612 150.297C236.719 150.237 236.772 150.133 236.772 149.984V149.953C236.772 149.568 236.667 149.268 236.456 149.055C236.248 148.841 235.931 148.734 235.507 148.734C235.067 148.734 234.722 148.831 234.472 149.023C234.222 149.216 234.046 149.422 233.944 149.641L233.069 149.328C233.226 148.964 233.434 148.68 233.694 148.477C233.957 148.271 234.244 148.128 234.554 148.047C234.866 147.964 235.174 147.922 235.476 147.922C235.668 147.922 235.89 147.945 236.14 147.992C236.392 148.036 236.636 148.129 236.87 148.27C237.107 148.41 237.304 148.622 237.46 148.906C237.616 149.19 237.694 149.57 237.694 150.047V154H236.772V153.187H236.726C236.663 153.318 236.559 153.457 236.413 153.605C236.267 153.754 236.073 153.88 235.831 153.984C235.589 154.089 235.293 154.141 234.944 154.141ZM235.085 153.312C235.45 153.312 235.757 153.241 236.007 153.098C236.259 152.954 236.45 152.77 236.577 152.543C236.707 152.316 236.772 152.078 236.772 151.828V150.984C236.733 151.031 236.647 151.074 236.515 151.113C236.384 151.15 236.233 151.182 236.062 151.211C235.892 151.237 235.727 151.26 235.565 151.281C235.407 151.299 235.278 151.315 235.179 151.328C234.939 151.359 234.715 151.41 234.507 151.48C234.301 151.548 234.134 151.651 234.007 151.789C233.882 151.924 233.819 152.109 233.819 152.344C233.819 152.664 233.938 152.906 234.175 153.07C234.414 153.232 234.718 153.312 235.085 153.312ZM241.799 156.375C241.354 156.375 240.971 156.318 240.65 156.203C240.33 156.091 240.063 155.943 239.85 155.758C239.639 155.576 239.471 155.38 239.346 155.172L240.08 154.656C240.163 154.766 240.269 154.891 240.396 155.031C240.524 155.174 240.699 155.298 240.92 155.402C241.144 155.509 241.437 155.562 241.799 155.562C242.283 155.562 242.683 155.445 242.998 155.211C243.313 154.977 243.471 154.609 243.471 154.109V152.891H243.393C243.325 153 243.229 153.135 243.104 153.297C242.981 153.456 242.804 153.598 242.572 153.723C242.343 153.845 242.033 153.906 241.643 153.906C241.158 153.906 240.723 153.792 240.338 153.563C239.955 153.333 239.652 153 239.428 152.562C239.206 152.125 239.096 151.594 239.096 150.969C239.096 150.354 239.204 149.819 239.42 149.363C239.636 148.905 239.937 148.551 240.322 148.301C240.708 148.048 241.153 147.922 241.658 147.922C242.049 147.922 242.359 147.987 242.588 148.117C242.82 148.245 242.997 148.391 243.119 148.555C243.244 148.716 243.34 148.849 243.408 148.953H243.502V148H244.393V154.172C244.393 154.688 244.275 155.107 244.041 155.43C243.809 155.755 243.497 155.993 243.104 156.145C242.713 156.298 242.278 156.375 241.799 156.375ZM241.768 153.078C242.137 153.078 242.45 152.993 242.705 152.824C242.96 152.655 243.154 152.411 243.287 152.094C243.42 151.776 243.486 151.396 243.486 150.953C243.486 150.521 243.421 150.139 243.291 149.809C243.161 149.478 242.968 149.219 242.713 149.031C242.458 148.844 242.143 148.75 241.768 148.75C241.377 148.75 241.051 148.849 240.791 149.047C240.533 149.245 240.339 149.51 240.209 149.844C240.081 150.177 240.018 150.547 240.018 150.953C240.018 151.37 240.083 151.738 240.213 152.059C240.346 152.376 240.541 152.626 240.799 152.809C241.059 152.988 241.382 153.078 241.768 153.078ZM251.971 146V154H251.002V147.016H250.955L249.002 148.312V147.328L251.002 146H251.971ZM256.881 154.109C256.292 154.109 255.791 153.949 255.377 153.629C254.963 153.306 254.646 152.839 254.428 152.227C254.209 151.612 254.1 150.87 254.1 150C254.1 149.135 254.209 148.397 254.428 147.785C254.649 147.171 254.967 146.702 255.381 146.379C255.798 146.053 256.298 145.891 256.881 145.891C257.464 145.891 257.963 146.053 258.377 146.379C258.794 146.702 259.111 147.171 259.33 147.785C259.551 148.397 259.662 149.135 259.662 150C259.662 150.87 259.553 151.612 259.334 152.227C259.115 152.839 258.799 153.306 258.385 153.629C257.971 153.949 257.469 154.109 256.881 154.109ZM256.881 153.25C257.464 153.25 257.917 152.969 258.24 152.406C258.563 151.844 258.725 151.042 258.725 150C258.725 149.307 258.65 148.717 258.502 148.23C258.356 147.743 258.145 147.372 257.869 147.117C257.596 146.862 257.266 146.734 256.881 146.734C256.303 146.734 255.851 147.02 255.525 147.59C255.2 148.158 255.037 148.961 255.037 150C255.037 150.693 255.11 151.281 255.256 151.766C255.402 152.25 255.611 152.618 255.885 152.871C256.161 153.124 256.493 153.25 256.881 153.25ZM263.756 154.109C263.167 154.109 262.666 153.949 262.252 153.629C261.838 153.306 261.521 152.839 261.303 152.227C261.084 151.612 260.975 150.87 260.975 150C260.975 149.135 261.084 148.397 261.303 147.785C261.524 147.171 261.842 146.702 262.256 146.379C262.673 146.053 263.173 145.891 263.756 145.891C264.339 145.891 264.838 146.053 265.252 146.379C265.669 146.702 265.986 147.171 266.205 147.785C266.426 148.397 266.537 149.135 266.537 150C266.537 150.87 266.428 151.612 266.209 152.227C265.99 152.839 265.674 153.306 265.26 153.629C264.846 153.949 264.344 154.109 263.756 154.109ZM263.756 153.25C264.339 153.25 264.792 152.969 265.115 152.406C265.438 151.844 265.6 151.042 265.6 150C265.6 149.307 265.525 148.717 265.377 148.23C265.231 147.743 265.02 147.372 264.744 147.117C264.471 146.862 264.141 146.734 263.756 146.734C263.178 146.734 262.726 147.02 262.4 147.59C262.075 148.158 261.912 148.961 261.912 150C261.912 150.693 261.985 151.281 262.131 151.766C262.277 152.25 262.486 152.618 262.76 152.871C263.036 153.124 263.368 153.25 263.756 153.25ZM268.037 156.25V148H268.928V148.953H269.037C269.105 148.849 269.199 148.716 269.318 148.555C269.441 148.391 269.615 148.245 269.842 148.117C270.071 147.987 270.381 147.922 270.771 147.922C271.277 147.922 271.722 148.048 272.107 148.301C272.493 148.553 272.794 148.911 273.01 149.375C273.226 149.839 273.334 150.385 273.334 151.016C273.334 151.651 273.226 152.202 273.01 152.668C272.794 153.132 272.494 153.491 272.111 153.746C271.729 153.999 271.287 154.125 270.787 154.125C270.402 154.125 270.093 154.061 269.861 153.934C269.63 153.803 269.451 153.656 269.326 153.492C269.201 153.326 269.105 153.187 269.037 153.078H268.959V156.25H268.037ZM268.943 151C268.943 151.453 269.01 151.853 269.143 152.199C269.275 152.543 269.469 152.812 269.725 153.008C269.98 153.201 270.292 153.297 270.662 153.297C271.048 153.297 271.369 153.195 271.627 152.992C271.887 152.786 272.083 152.51 272.213 152.164C272.346 151.815 272.412 151.427 272.412 151C272.412 150.578 272.347 150.198 272.217 149.859C272.089 149.518 271.895 149.249 271.635 149.051C271.377 148.85 271.053 148.75 270.662 148.75C270.287 148.75 269.972 148.845 269.717 149.035C269.462 149.223 269.269 149.486 269.139 149.824C269.008 150.16 268.943 150.552 268.943 151ZM275.181 148L276.618 150.453L278.056 148H279.118L277.181 151L279.118 154H278.056L276.618 151.672L275.181 154H274.118L276.024 151L274.118 148H275.181Z" fill="white"/>
<g filter="url(#filter4_d_1_3500)">
<path d="M296.528 152.476L295.553 151.501L297.093 151.501C297.244 151.795 297.443 152.07 297.688 152.316C298.967 153.594 301.039 153.594 302.317 152.316C302.563 152.07 302.761 151.795 302.912 151.501L304.452 151.501L303.478 152.476L305.599 154.598L310.195 150.001L305.599 145.405L303.478 147.527L304.452 148.501L302.912 148.501C302.761 148.208 302.563 147.933 302.317 147.687C301.039 146.409 298.967 146.409 297.688 147.687C297.443 147.933 297.244 148.208 297.093 148.501L295.553 148.501L296.528 147.527L294.406 145.405L289.81 150.001L294.406 154.598L296.528 152.476Z" fill="white"/>
<path fill-rule="evenodd" clip-rule="evenodd" d="M293.139 150.501L295.113 152.476L294.406 153.183L291.224 150.001L294.406 146.819L295.113 147.526L293.139 149.501L297.878 149.501C297.968 149.119 298.162 148.757 298.46 148.459C299.312 147.607 300.693 147.607 301.545 148.459C301.843 148.757 302.037 149.119 302.127 149.501L306.866 149.501L304.892 147.526L305.599 146.819L308.781 150.001L305.599 153.183L304.892 152.476L306.867 150.501L302.127 150.501C302.037 150.883 301.843 151.246 301.545 151.544C300.693 152.396 299.312 152.396 298.46 151.544C298.162 151.246 297.968 150.883 297.878 150.501L293.139 150.501ZM299.231 150.773C299.657 151.199 300.348 151.199 300.774 150.773C301.2 150.347 301.2 149.656 300.774 149.23C300.348 148.804 299.657 148.804 299.231 149.23C298.805 149.656 298.805 150.347 299.231 150.773Z" fill="black"/>
</g>
<mask id="path-19-outside-1_1_3500" maskUnits="userSpaceOnUse" x="277" y="172" width="39" height="12" fill="black">
<rect fill="white" x="277" y="172" width="39" height="12"/>
<path d="M278.357 182V173.273H281.63C282.3 173.273 282.863 173.389 283.317 173.622C283.775 173.855 284.12 174.182 284.353 174.602C284.588 175.02 284.706 175.507 284.706 176.064C284.706 176.624 284.587 177.109 284.348 177.521C284.113 177.93 283.765 178.247 283.304 178.472C282.844 178.693 282.279 178.804 281.608 178.804H279.277V177.491H281.395C281.787 177.491 282.108 177.437 282.358 177.33C282.608 177.219 282.793 177.058 282.912 176.848C283.034 176.635 283.096 176.374 283.096 176.064C283.096 175.754 283.034 175.49 282.912 175.271C282.79 175.05 282.604 174.882 282.354 174.768C282.104 174.652 281.782 174.594 281.387 174.594H279.938V182H278.357ZM282.865 178.045L285.026 182H283.262L281.14 178.045H282.865ZM287.743 173.273V182H286.162V173.273H287.743ZM295.301 176.06C295.23 175.83 295.132 175.624 295.007 175.442C294.885 175.257 294.737 175.099 294.564 174.969C294.393 174.838 294.197 174.74 293.976 174.675C293.754 174.607 293.513 174.572 293.251 174.572C292.783 174.572 292.365 174.69 291.999 174.926C291.632 175.162 291.344 175.509 291.134 175.966C290.926 176.42 290.822 176.974 290.822 177.628C290.822 178.287 290.926 178.845 291.134 179.303C291.341 179.76 291.629 180.108 291.999 180.347C292.368 180.582 292.797 180.7 293.286 180.7C293.729 180.7 294.112 180.615 294.436 180.445C294.763 180.274 295.014 180.033 295.19 179.72C295.366 179.405 295.455 179.036 295.455 178.612L295.812 178.668H293.443V177.432H296.984V178.48C296.984 179.227 296.825 179.874 296.507 180.419C296.189 180.964 295.751 181.385 295.195 181.68C294.638 181.973 293.999 182.119 293.277 182.119C292.473 182.119 291.767 181.939 291.159 181.578C290.554 181.214 290.081 180.699 289.74 180.031C289.402 179.361 289.233 178.565 289.233 177.645C289.233 176.94 289.332 176.311 289.531 175.757C289.733 175.203 290.014 174.733 290.375 174.347C290.736 173.957 291.159 173.662 291.645 173.46C292.131 173.256 292.659 173.153 293.23 173.153C293.713 173.153 294.163 173.224 294.581 173.366C294.999 173.506 295.369 173.705 295.693 173.963C296.02 174.222 296.288 174.528 296.499 174.884C296.709 175.239 296.847 175.631 296.912 176.06H295.301ZM298.513 182V173.273H300.094V176.967H304.138V173.273H305.723V182H304.138V178.293H300.094V182H298.513ZM307.059 174.598V173.273H314.022V174.598H311.325V182H309.757V174.598H307.059Z"/>
</mask>
<path d="M278.357 182V173.273H281.63C282.3 173.273 282.863 173.389 283.317 173.622C283.775 173.855 284.12 174.182 284.353 174.602C284.588 175.02 284.706 175.507 284.706 176.064C284.706 176.624 284.587 177.109 284.348 177.521C284.113 177.93 283.765 178.247 283.304 178.472C282.844 178.693 282.279 178.804 281.608 178.804H279.277V177.491H281.395C281.787 177.491 282.108 177.437 282.358 177.33C282.608 177.219 282.793 177.058 282.912 176.848C283.034 176.635 283.096 176.374 283.096 176.064C283.096 175.754 283.034 175.49 282.912 175.271C282.79 175.05 282.604 174.882 282.354 174.768C282.104 174.652 281.782 174.594 281.387 174.594H279.938V182H278.357ZM282.865 178.045L285.026 182H283.262L281.14 178.045H282.865ZM287.743 173.273V182H286.162V173.273H287.743ZM295.301 176.06C295.23 175.83 295.132 175.624 295.007 175.442C294.885 175.257 294.737 175.099 294.564 174.969C294.393 174.838 294.197 174.74 293.976 174.675C293.754 174.607 293.513 174.572 293.251 174.572C292.783 174.572 292.365 174.69 291.999 174.926C291.632 175.162 291.344 175.509 291.134 175.966C290.926 176.42 290.822 176.974 290.822 177.628C290.822 178.287 290.926 178.845 291.134 179.303C291.341 179.76 291.629 180.108 291.999 180.347C292.368 180.582 292.797 180.7 293.286 180.7C293.729 180.7 294.112 180.615 294.436 180.445C294.763 180.274 295.014 180.033 295.19 179.72C295.366 179.405 295.455 179.036 295.455 178.612L295.812 178.668H293.443V177.432H296.984V178.48C296.984 179.227 296.825 179.874 296.507 180.419C296.189 180.964 295.751 181.385 295.195 181.68C294.638 181.973 293.999 182.119 293.277 182.119C292.473 182.119 291.767 181.939 291.159 181.578C290.554 181.214 290.081 180.699 289.74 180.031C289.402 179.361 289.233 178.565 289.233 177.645C289.233 176.94 289.332 176.311 289.531 175.757C289.733 175.203 290.014 174.733 290.375 174.347C290.736 173.957 291.159 173.662 291.645 173.46C292.131 173.256 292.659 173.153 293.23 173.153C293.713 173.153 294.163 173.224 294.581 173.366C294.999 173.506 295.369 173.705 295.693 173.963C296.02 174.222 296.288 174.528 296.499 174.884C296.709 175.239 296.847 175.631 296.912 176.06H295.301ZM298.513 182V173.273H300.094V176.967H304.138V173.273H305.723V182H304.138V178.293H300.094V182H298.513ZM307.059 174.598V173.273H314.022V174.598H311.325V182H309.757V174.598H307.059Z" fill="#E3E3E3"/>
<path d="M278.357 182H277.357V183H278.357V182ZM278.357 173.273V172.273H277.357V173.273H278.357ZM283.317 173.622L282.861 174.512L282.863 174.513L283.317 173.622ZM284.353 174.602L283.478 175.087L283.482 175.094L284.353 174.602ZM284.348 177.521L283.483 177.02L283.482 177.022L284.348 177.521ZM283.304 178.472L283.738 179.373L283.743 179.37L283.304 178.472ZM279.277 178.804H278.277V179.804H279.277V178.804ZM279.277 177.491V176.491H278.277V177.491H279.277ZM282.358 177.33L282.755 178.248L282.763 178.244L282.358 177.33ZM282.912 176.848L282.045 176.351L282.043 176.354L282.912 176.848ZM282.912 175.271L282.037 175.754L282.039 175.759L282.912 175.271ZM282.354 174.768L281.932 175.675L281.94 175.679L282.354 174.768ZM279.938 174.594V173.594H278.938V174.594H279.938ZM279.938 182V183H280.938V182H279.938ZM282.865 178.045L283.743 177.566L283.459 177.045H282.865V178.045ZM285.026 182V183H286.712L285.903 181.521L285.026 182ZM283.262 182L282.381 182.473L282.663 183H283.262V182ZM281.14 178.045V177.045H279.468L280.258 178.518L281.14 178.045ZM279.357 182V173.273H277.357V182H279.357ZM278.357 174.273H281.63V172.273H278.357V174.273ZM281.63 174.273C282.189 174.273 282.585 174.37 282.861 174.512L283.773 172.732C283.14 172.408 282.411 172.273 281.63 172.273V174.273ZM282.863 174.513C283.156 174.662 283.348 174.853 283.478 175.087L285.227 174.118C284.891 173.511 284.393 173.048 283.771 172.731L282.863 174.513ZM283.482 175.094C283.62 175.339 283.706 175.651 283.706 176.064H285.706C285.706 175.363 285.557 174.701 285.223 174.111L283.482 175.094ZM283.706 176.064C283.706 176.479 283.619 176.785 283.483 177.02L285.214 178.023C285.555 177.433 285.706 176.768 285.706 176.064H283.706ZM283.482 177.022C283.354 177.243 283.163 177.428 282.866 177.573L283.743 179.37C284.366 179.066 284.871 178.617 285.215 178.021L283.482 177.022ZM282.871 177.571C282.581 177.71 282.174 177.804 281.608 177.804V179.804C282.384 179.804 283.107 179.676 283.738 179.373L282.871 177.571ZM281.608 177.804H279.277V179.804H281.608V177.804ZM280.277 178.804V177.491H278.277V178.804H280.277ZM279.277 178.491H281.395V176.491H279.277V178.491ZM281.395 178.491C281.868 178.491 282.337 178.428 282.755 178.248L281.962 176.411C281.879 176.447 281.706 176.491 281.395 176.491V178.491ZM282.763 178.244C283.183 178.058 283.543 177.762 283.782 177.342L282.043 176.354C282.04 176.36 282.036 176.364 282.028 176.371C282.019 176.379 281.998 176.396 281.953 176.415L282.763 178.244ZM283.78 177.345C284.009 176.946 284.096 176.503 284.096 176.064H282.096C282.096 176.244 282.06 176.324 282.045 176.351L283.78 177.345ZM284.096 176.064C284.096 175.623 284.008 175.183 283.785 174.784L282.039 175.759C282.061 175.797 282.096 175.885 282.096 176.064H284.096ZM283.788 174.789C283.553 174.362 283.196 174.053 282.768 173.858L281.94 175.679C282.012 175.711 282.027 175.737 282.037 175.754L283.788 174.789ZM282.776 173.862C282.35 173.663 281.869 173.594 281.387 173.594V175.594C281.694 175.594 281.858 175.641 281.932 175.675L282.776 173.862ZM281.387 173.594H279.938V175.594H281.387V173.594ZM278.938 174.594V182H280.938V174.594H278.938ZM279.938 181H278.357V183H279.938V181ZM281.988 178.525L284.148 182.479L285.903 181.521L283.743 177.566L281.988 178.525ZM285.026 181H283.262V183H285.026V181ZM284.143 181.527L282.021 177.573L280.258 178.518L282.381 182.473L284.143 181.527ZM281.14 179.045H282.865V177.045H281.14V179.045ZM287.743 173.273H288.743V172.273H287.743V173.273ZM287.743 182V183H288.743V182H287.743ZM286.162 182H285.162V183H286.162V182ZM286.162 173.273V172.273H285.162V173.273H286.162ZM286.743 173.273V182H288.743V173.273H286.743ZM287.743 181H286.162V183H287.743V181ZM287.162 182V173.273H285.162V182H287.162ZM286.162 174.273H287.743V172.273H286.162V174.273ZM295.301 176.06L294.346 176.355L294.563 177.06H295.301V176.06ZM295.007 175.442L294.173 175.993L294.178 176.001L294.183 176.008L295.007 175.442ZM294.564 174.969L293.955 175.762L293.962 175.767L294.564 174.969ZM293.976 174.675L293.682 175.631L293.693 175.634L293.976 174.675ZM291.999 174.926L292.54 175.767L292.54 175.767L291.999 174.926ZM291.134 175.966L290.225 175.548L290.224 175.551L291.134 175.966ZM291.134 179.303L290.223 179.716L290.223 179.716L291.134 179.303ZM291.999 180.347L291.456 181.187L291.46 181.189L291.999 180.347ZM294.436 180.445L293.974 179.558L293.97 179.56L294.436 180.445ZM295.19 179.72L296.061 180.211L296.063 180.208L295.19 179.72ZM295.455 178.612L295.607 177.624L294.455 177.446V178.612H295.455ZM295.812 178.668V179.668L295.965 177.679L295.812 178.668ZM293.443 178.668H292.443V179.668H293.443V178.668ZM293.443 177.432V176.432H292.443V177.432H293.443ZM296.984 177.432H297.984V176.432H296.984V177.432ZM296.507 180.419L297.371 180.923L297.371 180.923L296.507 180.419ZM295.195 181.68L295.66 182.566L295.663 182.564L295.195 181.68ZM291.159 181.578L290.644 182.435L290.649 182.438L291.159 181.578ZM289.74 180.031L288.847 180.481L288.849 180.486L289.74 180.031ZM289.531 175.757L288.592 175.415L288.59 175.419L289.531 175.757ZM290.375 174.347L291.106 175.029L291.108 175.026L290.375 174.347ZM291.645 173.46L292.028 174.384L292.033 174.382L291.645 173.46ZM294.581 173.366L294.259 174.313L294.265 174.315L294.581 173.366ZM295.693 173.963L295.069 174.745L295.073 174.747L295.693 173.963ZM296.499 174.884L297.359 174.374L297.359 174.374L296.499 174.884ZM296.912 176.06V177.06H298.076L297.901 175.909L296.912 176.06ZM296.257 175.765C296.159 175.447 296.018 175.148 295.831 174.875L294.183 176.008C294.246 176.099 294.302 176.212 294.346 176.355L296.257 175.765ZM295.841 174.89C295.658 174.612 295.432 174.371 295.166 174.17L293.962 175.767C294.043 175.828 294.112 175.902 294.173 175.993L295.841 174.89ZM295.172 174.175C294.897 173.964 294.589 173.813 294.259 173.716L293.693 175.634C293.806 175.667 293.89 175.712 293.955 175.762L295.172 174.175ZM294.27 173.719C293.942 173.618 293.6 173.572 293.251 173.572V175.572C293.426 175.572 293.567 175.595 293.682 175.63L294.27 173.719ZM293.251 173.572C292.606 173.572 291.998 173.738 291.457 174.085L292.54 175.767C292.732 175.643 292.959 175.572 293.251 175.572V173.572ZM291.457 174.085C290.907 174.439 290.502 174.945 290.225 175.548L292.042 176.384C292.185 176.072 292.357 175.884 292.54 175.767L291.457 174.085ZM290.224 175.551C289.942 176.169 289.822 176.873 289.822 177.628H291.822C291.822 177.075 291.911 176.672 292.043 176.381L290.224 175.551ZM289.822 177.628C289.822 178.387 289.941 179.095 290.223 179.716L292.044 178.89C291.911 178.596 291.822 178.187 291.822 177.628H289.822ZM290.223 179.716C290.498 180.322 290.903 180.83 291.456 181.187L292.541 179.507C292.355 179.386 292.184 179.198 292.044 178.89L290.223 179.716ZM291.46 181.189C292.009 181.539 292.629 181.7 293.286 181.7V179.7C292.965 179.7 292.727 179.625 292.537 179.504L291.46 181.189ZM293.286 181.7C293.857 181.7 294.407 181.59 294.902 181.33L293.97 179.56C293.817 179.64 293.6 179.7 293.286 179.7V181.7ZM294.899 181.331C295.392 181.074 295.788 180.697 296.061 180.211L294.319 179.229C294.241 179.368 294.134 179.475 293.974 179.558L294.899 181.331ZM296.063 180.208C296.336 179.72 296.455 179.177 296.455 178.612H294.455C294.455 178.894 294.397 179.09 294.317 179.233L296.063 180.208ZM295.302 179.6L295.66 179.656L295.965 177.679L295.607 177.624L295.302 179.6ZM295.812 177.668H293.443V179.668H295.812V177.668ZM294.443 178.668V177.432H292.443V178.668H294.443ZM293.443 178.432H296.984V176.432H293.443V178.432ZM295.984 177.432V178.48H297.984V177.432H295.984ZM295.984 178.48C295.984 179.083 295.857 179.549 295.643 179.915L297.371 180.923C297.793 180.199 297.984 179.372 297.984 178.48H295.984ZM295.643 179.915C295.419 180.3 295.118 180.589 294.726 180.797L295.663 182.564C296.385 182.181 296.959 181.629 297.371 180.923L295.643 179.915ZM294.729 180.795C294.336 181.002 293.861 181.119 293.277 181.119V183.119C294.137 183.119 294.94 182.944 295.66 182.566L294.729 180.795ZM293.277 181.119C292.627 181.119 292.103 180.975 291.669 180.718L290.649 182.438C291.431 182.903 292.319 183.119 293.277 183.119V181.119ZM291.674 180.721C291.239 180.46 290.892 180.088 290.631 179.576L288.849 180.486C289.27 181.309 289.868 181.969 290.644 182.435L291.674 180.721ZM290.633 179.581C290.379 179.078 290.233 178.444 290.233 177.645H288.233C288.233 178.687 288.425 179.643 288.847 180.481L290.633 179.581ZM290.233 177.645C290.233 177.033 290.319 176.522 290.472 176.095L288.59 175.419C288.345 176.101 288.233 176.847 288.233 177.645H290.233ZM290.471 176.099C290.632 175.657 290.847 175.306 291.106 175.029L289.644 173.664C289.182 174.159 288.834 174.749 288.592 175.415L290.471 176.099ZM291.108 175.026C291.372 174.742 291.677 174.53 292.028 174.384L291.261 172.537C290.642 172.794 290.099 173.173 289.642 173.667L291.108 175.026ZM292.033 174.382C292.386 174.233 292.781 174.153 293.23 174.153V172.153C292.537 172.153 291.875 172.278 291.257 172.539L292.033 174.382ZM293.23 174.153C293.614 174.153 293.954 174.21 294.259 174.313L294.903 172.42C294.372 172.239 293.812 172.153 293.23 172.153V174.153ZM294.265 174.315C294.578 174.42 294.843 174.564 295.069 174.745L296.317 173.182C295.896 172.845 295.419 172.592 294.897 172.418L294.265 174.315ZM295.073 174.747C295.304 174.93 295.491 175.144 295.638 175.393L297.359 174.374C297.086 173.912 296.736 173.513 296.314 173.179L295.073 174.747ZM295.638 175.393C295.78 175.632 295.876 175.901 295.923 176.21L297.901 175.909C297.817 175.36 297.638 174.845 297.359 174.374L295.638 175.393ZM296.912 175.06H295.301V177.06H296.912V175.06ZM298.513 182H297.513V183H298.513V182ZM298.513 173.273V172.273H297.513V173.273H298.513ZM300.094 173.273H301.094V172.273H300.094V173.273ZM300.094 176.967H299.094V177.967H300.094V176.967ZM304.138 176.967V177.967H305.138V176.967H304.138ZM304.138 173.273V172.273H303.138V173.273H304.138ZM305.723 173.273H306.723V172.273H305.723V173.273ZM305.723 182V183H306.723V182H305.723ZM304.138 182H303.138V183H304.138V182ZM304.138 178.293H305.138V177.293H304.138V178.293ZM300.094 178.293V177.293H299.094V178.293H300.094ZM300.094 182V183H301.094V182H300.094ZM299.513 182V173.273H297.513V182H299.513ZM298.513 174.273H300.094V172.273H298.513V174.273ZM299.094 173.273V176.967H301.094V173.273H299.094ZM300.094 177.967H304.138V175.967H300.094V177.967ZM305.138 176.967V173.273H303.138V176.967H305.138ZM304.138 174.273H305.723V172.273H304.138V174.273ZM304.723 173.273V182H306.723V173.273H304.723ZM305.723 181H304.138V183H305.723V181ZM305.138 182V178.293H303.138V182H305.138ZM304.138 177.293H300.094V179.293H304.138V177.293ZM299.094 178.293V182H301.094V178.293H299.094ZM300.094 181H298.513V183H300.094V181ZM307.059 174.598H306.059V175.598H307.059V174.598ZM307.059 173.273V172.273H306.059V173.273H307.059ZM314.022 173.273H315.022V172.273H314.022V173.273ZM314.022 174.598V175.598H315.022V174.598H314.022ZM311.325 174.598V173.598H310.325V174.598H311.325ZM311.325 182V183H312.325V182H311.325ZM309.757 182H308.757V183H309.757V182ZM309.757 174.598H310.757V173.598H309.757V174.598ZM308.059 174.598V173.273H306.059V174.598H308.059ZM307.059 174.273H314.022V172.273H307.059V174.273ZM313.022 173.273V174.598H315.022V173.273H313.022ZM314.022 173.598H311.325V175.598H314.022V173.598ZM310.325 174.598V182H312.325V174.598H310.325ZM311.325 181H309.757V183H311.325V181ZM310.757 182V174.598H308.757V182H310.757ZM309.757 173.598H307.059V175.598H309.757V173.598Z" fill="#555555" mask="url(#path-19-outside-1_1_3500)"/>
<defs>
<filter id="filter0_d_1_3500" x="92" y="94" width="16" height="16" filterUnits="userSpaceOnUse" color-interpolation-filters="sRGB">
<feFlood flood-opacity="0" result="BackgroundImageFix"/>
<feColorMatrix in="SourceAlpha" type="matrix" values="0 0 0 0 0 0 0 0 0 0 0 0 0 0 0 0 0 0 127 0" result="hardAlpha"/>
<feOffset dy="2"/>
<feGaussianBlur stdDeviation="2"/>
<feColorMatrix type="matrix" values="0 0 0 0 0 0 0 0 0 0 0 0 0 0 0 0 0 0 0.45 0"/>
<feBlend mode="normal" in2="BackgroundImageFix" result="effect1_dropShadow_1_3500"/>
<feBlend mode="normal" in="SourceGraphic" in2="effect1_dropShadow_1_3500" result="shape"/>
</filter>
<filter id="filter1_d_1_3500" x="92" y="194" width="16" height="16" filterUnits="userSpaceOnUse" color-interpolation-filters="sRGB">
<feFlood flood-opacity="0" result="BackgroundImageFix"/>
<feColorMatrix in="SourceAlpha" type="matrix" values="0 0 0 0 0 0 0 0 0 0 0 0 0 0 0 0 0 0 127 0" result="hardAlpha"/>
<feOffset dy="2"/>
<feGaussianBlur stdDeviation="2"/>
<feColorMatrix type="matrix" values="0 0 0 0 0 0 0 0 0 0 0 0 0 0 0 0 0 0 0.45 0"/>
<feBlend mode="normal" in2="BackgroundImageFix" result="effect1_dropShadow_1_3500"/>
<feBlend mode="normal" in="SourceGraphic" in2="effect1_dropShadow_1_3500" result="shape"/>
</filter>
<filter id="filter2_d_1_3500" x="292" y="94" width="16" height="16" filterUnits="userSpaceOnUse" color-interpolation-filters="sRGB">
<feFlood flood-opacity="0" result="BackgroundImageFix"/>
<feColorMatrix in="SourceAlpha" type="matrix" values="0 0 0 0 0 0 0 0 0 0 0 0 0 0 0 0 0 0 127 0" result="hardAlpha"/>
<feOffset dy="2"/>
<feGaussianBlur stdDeviation="2"/>
<feColorMatrix type="matrix" values="0 0 0 0 0 0 0 0 0 0 0 0 0 0 0 0 0 0 0.45 0"/>
<feBlend mode="normal" in2="BackgroundImageFix" result="effect1_dropShadow_1_3500"/>
<feBlend mode="normal" in="SourceGraphic" in2="effect1_dropShadow_1_3500" result="shape"/>
</filter>
<filter id="filter3_d_1_3500" x="292" y="194" width="16" height="16" filterUnits="userSpaceOnUse" color-interpolation-filters="sRGB">
<feFlood flood-opacity="0" result="BackgroundImageFix"/>
<feColorMatrix in="SourceAlpha" type="matrix" values="0 0 0 0 0 0 0 0 0 0 0 0 0 0 0 0 0 0 127 0" result="hardAlpha"/>
<feOffset dy="2"/>
<feGaussianBlur stdDeviation="2"/>
<feColorMatrix type="matrix" values="0 0 0 0 0 0 0 0 0 0 0 0 0 0 0 0 0 0 0.45 0"/>
<feBlend mode="normal" in2="BackgroundImageFix" result="effect1_dropShadow_1_3500"/>
<feBlend mode="normal" in="SourceGraphic" in2="effect1_dropShadow_1_3500" result="shape"/>
</filter>
<filter id="filter4_d_1_3500" x="281" y="132" width="38" height="38" filterUnits="userSpaceOnUse" color-interpolation-filters="sRGB">
<feFlood flood-opacity="0" result="BackgroundImageFix"/>
<feColorMatrix in="SourceAlpha" type="matrix" values="0 0 0 0 0 0 0 0 0 0 0 0 0 0 0 0 0 0 127 0" result="hardAlpha"/>
<feOffset dy="1"/>
<feGaussianBlur stdDeviation="1.5"/>
<feColorMatrix type="matrix" values="0 0 0 0 0 0 0 0 0 0 0 0 0 0 0 0 0 0 0.35 0"/>
<feBlend mode="normal" in2="BackgroundImageFix" result="effect1_dropShadow_1_3500"/>
<feBlend mode="normal" in="SourceGraphic" in2="effect1_dropShadow_1_3500" result="shape"/>
</filter>
<radialGradient id="paint0_angular_1_3500" cx="0" cy="0" r="1" gradientUnits="userSpaceOnUse" gradientTransform="translate(150 150) rotate(90) scale(50)">
<stop stop-color="#ABF5FF"/>
<stop offset="1" stop-color="#0086E6"/>
</radialGradient>
<radialGradient id="paint1_angular_1_3500" cx="0" cy="0" r="1" gradientUnits="userSpaceOnUse" gradientTransform="translate(199.5 150) rotate(90) scale(50 99.5)">
<stop stop-color="#ABF5FF"/>
<stop offset="1" stop-color="#0086E6"/>
</radialGradient>
</defs>
</svg>
