<svg width="300" height="300" viewBox="0 0 300 300" fill="none" xmlns="http://www.w3.org/2000/svg">
<rect width="300" height="300" fill="#F5F5F5"/>
<circle opacity="0.4" cx="150" cy="150" r="50" fill="url(#paint0_angular_1_3516)"/>
<circle cx="150" cy="150" r="50" fill="url(#paint1_angular_1_3516)" stroke="#1C6EE8"/>
<rect x="100" y="100" width="100" height="100" stroke="#1C6EE8"/>
<g filter="url(#filter0_d_1_3516)">
<rect x="96" y="96" width="8" height="8" fill="white"/>
<rect x="96.5" y="96.5" width="7" height="7" stroke="#1C6EE8"/>
</g>
<g filter="url(#filter1_d_1_3516)">
<rect x="96" y="196" width="8" height="8" fill="white"/>
<rect x="96.5" y="196.5" width="7" height="7" stroke="#1C6EE8"/>
</g>
<g filter="url(#filter2_d_1_3516)">
<rect x="196" y="96" width="8" height="8" fill="white"/>
<rect x="196.5" y="96.5" width="7" height="7" stroke="#1C6EE8"/>
</g>
<g filter="url(#filter3_d_1_3516)">
<rect x="196" y="196" width="8" height="8" fill="white"/>
<rect x="196.5" y="196.5" width="7" height="7" stroke="#1C6EE8"/>
</g>
<path d="M148.25 146.402V144C148.25 143.034 149.034 142.25 150 142.25C150.966 142.25 151.75 143.034 151.75 144V146.402C152.554 146.794 153.206 147.446 153.598 148.25H156C156.966 148.25 157.75 149.034 157.75 150C157.75 150.966 156.966 151.75 156 151.75H153.598C153.206 152.554 152.554 153.206 151.75 153.598V156C151.75 156.966 150.966 157.75 150 157.75C149.034 157.75 148.25 156.966 148.25 156V153.598C147.446 153.206 146.794 152.554 146.402 151.75H144C143.034 151.75 142.25 150.966 142.25 150C142.25 149.034 143.034 148.25 144 148.25H146.402C146.794 147.446 147.446 146.794 148.25 146.402Z" fill="white"/>
<path fill-rule="evenodd" clip-rule="evenodd" d="M150 143.25C150.414 143.25 150.75 143.586 150.75 144V147.095C151.804 147.366 152.634 148.196 152.905 149.25H156C156.414 149.25 156.75 149.586 156.75 150C156.75 150.414 156.414 150.75 156 150.75H152.905C152.634 151.804 151.804 152.634 150.75 152.905V156C150.75 156.414 150.414 156.75 150 156.75C149.586 156.75 149.25 156.414 149.25 156V152.905C148.196 152.634 147.366 151.804 147.095 150.75H144C143.586 150.75 143.25 150.414 143.25 150C143.25 149.586 143.586 149.25 144 149.25H147.095C147.366 148.196 148.196 147.366 149.25 147.095V144C149.25 143.586 149.586 143.25 150 143.25ZM151.5 150C151.5 150.828 150.828 151.5 150 151.5C149.172 151.5 148.5 150.828 148.5 150C148.5 149.172 149.172 148.5 150 148.5C150.828 148.5 151.5 149.172 151.5 150Z" fill="#1C6EE8"/>
<g filter="url(#filter4_d_1_3516)">
<path d="M196.528 153.476L195.553 152.501L197.093 152.501C197.244 152.795 197.443 153.07 197.688 153.316C198.966 154.594 201.039 154.594 202.317 153.316C202.562 153.07 202.761 152.795 202.912 152.501L204.452 152.501L203.477 153.476L205.599 155.598L210.195 151.001L205.599 146.405L203.477 148.527L204.452 149.501L202.912 149.501C202.761 149.208 202.562 148.933 202.317 148.687C201.039 147.409 198.966 147.409 197.688 148.687C197.443 148.933 197.244 149.208 197.093 149.501L195.553 149.501L196.528 148.527L194.406 146.405L189.81 151.001L194.406 155.598L196.528 153.476Z" fill="white"/>
<path fill-rule="evenodd" clip-rule="evenodd" d="M193.139 151.501L195.113 153.476L194.406 154.183L191.224 151.001L194.406 147.819L195.113 148.526L193.139 150.501L197.878 150.501C197.968 150.119 198.162 149.757 198.46 149.459C199.312 148.607 200.693 148.607 201.545 149.459C201.843 149.757 202.037 150.119 202.127 150.501L206.866 150.501L204.892 148.526L205.599 147.819L208.781 151.001L205.599 154.183L204.892 153.476L206.867 151.501L202.127 151.501C202.037 151.883 201.843 152.246 201.545 152.544C200.693 153.396 199.312 153.396 198.46 152.544C198.162 152.246 197.968 151.883 197.878 151.501L193.139 151.501ZM199.231 151.773C199.657 152.199 200.348 152.199 200.774 151.773C201.2 151.347 201.2 150.656 200.774 150.23C200.348 149.804 199.657 149.804 199.231 150.23C198.805 150.656 198.805 151.347 199.231 151.773Z" fill="black"/>
</g>
<mask id="path-16-outside-1_1_3516" maskUnits="userSpaceOnUse" x="181" y="170" width="39" height="12" fill="black">
<rect fill="white" x="181" y="170" width="39" height="12"/>
<path d="M182.357 180V171.273H185.63C186.3 171.273 186.863 171.389 187.317 171.622C187.775 171.855 188.12 172.182 188.353 172.602C188.588 173.02 188.706 173.507 188.706 174.064C188.706 174.624 188.587 175.109 188.348 175.521C188.113 175.93 187.765 176.247 187.304 176.472C186.844 176.693 186.279 176.804 185.608 176.804H183.277V175.491H185.395C185.787 175.491 186.108 175.437 186.358 175.33C186.608 175.219 186.793 175.058 186.912 174.848C187.034 174.635 187.096 174.374 187.096 174.064C187.096 173.754 187.034 173.49 186.912 173.271C186.79 173.05 186.604 172.882 186.354 172.768C186.104 172.652 185.782 172.594 185.387 172.594H183.938V180H182.357ZM186.865 176.045L189.026 180H187.262L185.14 176.045H186.865ZM191.743 171.273V180H190.162V171.273H191.743ZM199.301 174.06C199.23 173.83 199.132 173.624 199.007 173.442C198.885 173.257 198.737 173.099 198.564 172.969C198.393 172.838 198.197 172.74 197.976 172.675C197.754 172.607 197.513 172.572 197.251 172.572C196.783 172.572 196.365 172.69 195.999 172.926C195.632 173.162 195.344 173.509 195.134 173.966C194.926 174.42 194.822 174.974 194.822 175.628C194.822 176.287 194.926 176.845 195.134 177.303C195.341 177.76 195.629 178.108 195.999 178.347C196.368 178.582 196.797 178.7 197.286 178.7C197.729 178.7 198.112 178.615 198.436 178.445C198.763 178.274 199.014 178.033 199.19 177.72C199.366 177.405 199.455 177.036 199.455 176.612L199.812 176.668H197.443V175.432H200.984V176.48C200.984 177.227 200.825 177.874 200.507 178.419C200.189 178.964 199.751 179.385 199.195 179.68C198.638 179.973 197.999 180.119 197.277 180.119C196.473 180.119 195.767 179.939 195.159 179.578C194.554 179.214 194.081 178.699 193.74 178.031C193.402 177.361 193.233 176.565 193.233 175.645C193.233 174.94 193.332 174.311 193.531 173.757C193.733 173.203 194.014 172.733 194.375 172.347C194.736 171.957 195.159 171.662 195.645 171.46C196.131 171.256 196.659 171.153 197.23 171.153C197.713 171.153 198.163 171.224 198.581 171.366C198.999 171.506 199.369 171.705 199.693 171.963C200.02 172.222 200.288 172.528 200.499 172.884C200.709 173.239 200.847 173.631 200.912 174.06H199.301ZM202.513 180V171.273H204.094V174.967H208.138V171.273H209.723V180H208.138V176.293H204.094V180H202.513ZM211.059 172.598V171.273H218.022V172.598H215.325V180H213.757V172.598H211.059Z"/>
</mask>
<path d="M182.357 180V171.273H185.63C186.3 171.273 186.863 171.389 187.317 171.622C187.775 171.855 188.12 172.182 188.353 172.602C188.588 173.02 188.706 173.507 188.706 174.064C188.706 174.624 188.587 175.109 188.348 175.521C188.113 175.93 187.765 176.247 187.304 176.472C186.844 176.693 186.279 176.804 185.608 176.804H183.277V175.491H185.395C185.787 175.491 186.108 175.437 186.358 175.33C186.608 175.219 186.793 175.058 186.912 174.848C187.034 174.635 187.096 174.374 187.096 174.064C187.096 173.754 187.034 173.49 186.912 173.271C186.79 173.05 186.604 172.882 186.354 172.768C186.104 172.652 185.782 172.594 185.387 172.594H183.938V180H182.357ZM186.865 176.045L189.026 180H187.262L185.14 176.045H186.865ZM191.743 171.273V180H190.162V171.273H191.743ZM199.301 174.06C199.23 173.83 199.132 173.624 199.007 173.442C198.885 173.257 198.737 173.099 198.564 172.969C198.393 172.838 198.197 172.74 197.976 172.675C197.754 172.607 197.513 172.572 197.251 172.572C196.783 172.572 196.365 172.69 195.999 172.926C195.632 173.162 195.344 173.509 195.134 173.966C194.926 174.42 194.822 174.974 194.822 175.628C194.822 176.287 194.926 176.845 195.134 177.303C195.341 177.76 195.629 178.108 195.999 178.347C196.368 178.582 196.797 178.7 197.286 178.7C197.729 178.7 198.112 178.615 198.436 178.445C198.763 178.274 199.014 178.033 199.19 177.72C199.366 177.405 199.455 177.036 199.455 176.612L199.812 176.668H197.443V175.432H200.984V176.48C200.984 177.227 200.825 177.874 200.507 178.419C200.189 178.964 199.751 179.385 199.195 179.68C198.638 179.973 197.999 180.119 197.277 180.119C196.473 180.119 195.767 179.939 195.159 179.578C194.554 179.214 194.081 178.699 193.74 178.031C193.402 177.361 193.233 176.565 193.233 175.645C193.233 174.94 193.332 174.311 193.531 173.757C193.733 173.203 194.014 172.733 194.375 172.347C194.736 171.957 195.159 171.662 195.645 171.46C196.131 171.256 196.659 171.153 197.23 171.153C197.713 171.153 198.163 171.224 198.581 171.366C198.999 171.506 199.369 171.705 199.693 171.963C200.02 172.222 200.288 172.528 200.499 172.884C200.709 173.239 200.847 173.631 200.912 174.06H199.301ZM202.513 180V171.273H204.094V174.967H208.138V171.273H209.723V180H208.138V176.293H204.094V180H202.513ZM211.059 172.598V171.273H218.022V172.598H215.325V180H213.757V172.598H211.059Z" fill="#E3E3E3"/>
<path d="M182.357 180H181.357V181H182.357V180ZM182.357 171.273V170.273H181.357V171.273H182.357ZM187.317 171.622L186.861 172.512L186.863 172.513L187.317 171.622ZM188.353 172.602L187.478 173.087L187.482 173.094L188.353 172.602ZM188.348 175.521L187.483 175.02L187.482 175.022L188.348 175.521ZM187.304 176.472L187.738 177.373L187.743 177.37L187.304 176.472ZM183.277 176.804H182.277V177.804H183.277V176.804ZM183.277 175.491V174.491H182.277V175.491H183.277ZM186.358 175.33L186.755 176.248L186.763 176.244L186.358 175.33ZM186.912 174.848L186.045 174.351L186.043 174.354L186.912 174.848ZM186.912 173.271L186.037 173.754L186.039 173.759L186.912 173.271ZM186.354 172.768L185.932 173.675L185.94 173.679L186.354 172.768ZM183.938 172.594V171.594H182.938V172.594H183.938ZM183.938 180V181H184.938V180H183.938ZM186.865 176.045L187.743 175.566L187.459 175.045H186.865V176.045ZM189.026 180V181H190.712L189.903 179.521L189.026 180ZM187.262 180L186.381 180.473L186.663 181H187.262V180ZM185.14 176.045V175.045H183.468L184.258 176.518L185.14 176.045ZM183.357 180V171.273H181.357V180H183.357ZM182.357 172.273H185.63V170.273H182.357V172.273ZM185.63 172.273C186.189 172.273 186.585 172.37 186.861 172.512L187.773 170.732C187.14 170.408 186.411 170.273 185.63 170.273V172.273ZM186.863 172.513C187.156 172.662 187.348 172.853 187.478 173.087L189.227 172.118C188.891 171.511 188.393 171.048 187.771 170.731L186.863 172.513ZM187.482 173.094C187.62 173.339 187.706 173.651 187.706 174.064H189.706C189.706 173.363 189.557 172.701 189.223 172.111L187.482 173.094ZM187.706 174.064C187.706 174.479 187.619 174.785 187.483 175.02L189.214 176.023C189.555 175.433 189.706 174.768 189.706 174.064H187.706ZM187.482 175.022C187.354 175.243 187.163 175.428 186.866 175.573L187.743 177.37C188.366 177.066 188.871 176.617 189.215 176.021L187.482 175.022ZM186.871 175.571C186.581 175.71 186.174 175.804 185.608 175.804V177.804C186.384 177.804 187.107 177.676 187.738 177.373L186.871 175.571ZM185.608 175.804H183.277V177.804H185.608V175.804ZM184.277 176.804V175.491H182.277V176.804H184.277ZM183.277 176.491H185.395V174.491H183.277V176.491ZM185.395 176.491C185.868 176.491 186.337 176.428 186.755 176.248L185.962 174.411C185.879 174.447 185.706 174.491 185.395 174.491V176.491ZM186.763 176.244C187.183 176.058 187.543 175.762 187.782 175.342L186.043 174.354C186.04 174.36 186.036 174.364 186.028 174.371C186.019 174.379 185.998 174.396 185.953 174.415L186.763 176.244ZM187.78 175.345C188.009 174.946 188.096 174.503 188.096 174.064H186.096C186.096 174.244 186.06 174.324 186.045 174.351L187.78 175.345ZM188.096 174.064C188.096 173.623 188.008 173.183 187.785 172.784L186.039 173.759C186.061 173.797 186.096 173.885 186.096 174.064H188.096ZM187.788 172.789C187.553 172.362 187.196 172.053 186.768 171.858L185.94 173.679C186.012 173.711 186.027 173.737 186.037 173.754L187.788 172.789ZM186.776 171.862C186.35 171.663 185.869 171.594 185.387 171.594V173.594C185.694 173.594 185.858 173.641 185.932 173.675L186.776 171.862ZM185.387 171.594H183.938V173.594H185.387V171.594ZM182.938 172.594V180H184.938V172.594H182.938ZM183.938 179H182.357V181H183.938V179ZM185.988 176.525L188.148 180.479L189.903 179.521L187.743 175.566L185.988 176.525ZM189.026 179H187.262V181H189.026V179ZM188.143 179.527L186.021 175.573L184.258 176.518L186.381 180.473L188.143 179.527ZM185.14 177.045H186.865V175.045H185.14V177.045ZM191.743 171.273H192.743V170.273H191.743V171.273ZM191.743 180V181H192.743V180H191.743ZM190.162 180H189.162V181H190.162V180ZM190.162 171.273V170.273H189.162V171.273H190.162ZM190.743 171.273V180H192.743V171.273H190.743ZM191.743 179H190.162V181H191.743V179ZM191.162 180V171.273H189.162V180H191.162ZM190.162 172.273H191.743V170.273H190.162V172.273ZM199.301 174.06L198.346 174.355L198.563 175.06H199.301V174.06ZM199.007 173.442L198.173 173.993L198.178 174.001L198.183 174.008L199.007 173.442ZM198.564 172.969L197.955 173.762L197.962 173.767L198.564 172.969ZM197.976 172.675L197.682 173.631L197.693 173.634L197.976 172.675ZM195.999 172.926L196.54 173.767L196.54 173.767L195.999 172.926ZM195.134 173.966L194.225 173.548L194.224 173.551L195.134 173.966ZM195.134 177.303L194.223 177.716L194.223 177.716L195.134 177.303ZM195.999 178.347L195.456 179.187L195.46 179.189L195.999 178.347ZM198.436 178.445L197.974 177.558L197.97 177.56L198.436 178.445ZM199.19 177.72L200.061 178.211L200.063 178.208L199.19 177.72ZM199.455 176.612L199.607 175.624L198.455 175.446V176.612H199.455ZM199.812 176.668V177.668L199.965 175.679L199.812 176.668ZM197.443 176.668H196.443V177.668H197.443V176.668ZM197.443 175.432V174.432H196.443V175.432H197.443ZM200.984 175.432H201.984V174.432H200.984V175.432ZM200.507 178.419L201.371 178.923L201.371 178.923L200.507 178.419ZM199.195 179.68L199.66 180.566L199.663 180.564L199.195 179.68ZM195.159 179.578L194.644 180.435L194.649 180.438L195.159 179.578ZM193.74 178.031L192.847 178.481L192.849 178.486L193.74 178.031ZM193.531 173.757L192.592 173.415L192.59 173.419L193.531 173.757ZM194.375 172.347L195.106 173.029L195.108 173.026L194.375 172.347ZM195.645 171.46L196.028 172.384L196.033 172.382L195.645 171.46ZM198.581 171.366L198.259 172.313L198.265 172.315L198.581 171.366ZM199.693 171.963L199.069 172.745L199.073 172.747L199.693 171.963ZM200.499 172.884L201.359 172.374L201.359 172.374L200.499 172.884ZM200.912 174.06V175.06H202.076L201.901 173.909L200.912 174.06ZM200.257 173.765C200.159 173.447 200.018 173.148 199.831 172.875L198.183 174.008C198.246 174.099 198.302 174.212 198.346 174.355L200.257 173.765ZM199.841 172.89C199.658 172.612 199.432 172.371 199.166 172.17L197.962 173.767C198.043 173.828 198.112 173.902 198.173 173.993L199.841 172.89ZM199.172 172.175C198.897 171.964 198.589 171.813 198.259 171.716L197.693 173.634C197.806 173.667 197.89 173.712 197.955 173.762L199.172 172.175ZM198.27 171.719C197.942 171.618 197.6 171.572 197.251 171.572V173.572C197.426 173.572 197.567 173.595 197.682 173.63L198.27 171.719ZM197.251 171.572C196.606 171.572 195.998 171.738 195.457 172.085L196.54 173.767C196.732 173.643 196.959 173.572 197.251 173.572V171.572ZM195.457 172.085C194.907 172.439 194.502 172.945 194.225 173.548L196.042 174.384C196.185 174.072 196.357 173.884 196.54 173.767L195.457 172.085ZM194.224 173.551C193.942 174.169 193.822 174.873 193.822 175.628H195.822C195.822 175.075 195.911 174.672 196.043 174.381L194.224 173.551ZM193.822 175.628C193.822 176.387 193.941 177.095 194.223 177.716L196.044 176.89C195.911 176.596 195.822 176.187 195.822 175.628H193.822ZM194.223 177.716C194.498 178.322 194.903 178.83 195.456 179.187L196.541 177.507C196.355 177.386 196.184 177.198 196.044 176.89L194.223 177.716ZM195.46 179.189C196.009 179.539 196.629 179.7 197.286 179.7V177.7C196.965 177.7 196.727 177.625 196.537 177.504L195.46 179.189ZM197.286 179.7C197.857 179.7 198.407 179.59 198.902 179.33L197.97 177.56C197.817 177.64 197.6 177.7 197.286 177.7V179.7ZM198.899 179.331C199.392 179.074 199.788 178.697 200.061 178.211L198.319 177.229C198.241 177.368 198.134 177.475 197.974 177.558L198.899 179.331ZM200.063 178.208C200.336 177.72 200.455 177.177 200.455 176.612H198.455C198.455 176.894 198.397 177.09 198.317 177.233L200.063 178.208ZM199.302 177.6L199.66 177.656L199.965 175.679L199.607 175.624L199.302 177.6ZM199.812 175.668H197.443V177.668H199.812V175.668ZM198.443 176.668V175.432H196.443V176.668H198.443ZM197.443 176.432H200.984V174.432H197.443V176.432ZM199.984 175.432V176.48H201.984V175.432H199.984ZM199.984 176.48C199.984 177.083 199.857 177.549 199.643 177.915L201.371 178.923C201.793 178.199 201.984 177.372 201.984 176.48H199.984ZM199.643 177.915C199.419 178.3 199.118 178.589 198.726 178.797L199.663 180.564C200.385 180.181 200.959 179.629 201.371 178.923L199.643 177.915ZM198.729 178.795C198.336 179.002 197.861 179.119 197.277 179.119V181.119C198.137 181.119 198.94 180.944 199.66 180.566L198.729 178.795ZM197.277 179.119C196.627 179.119 196.103 178.975 195.669 178.718L194.649 180.438C195.431 180.903 196.319 181.119 197.277 181.119V179.119ZM195.674 178.721C195.239 178.46 194.892 178.088 194.631 177.576L192.849 178.486C193.27 179.309 193.868 179.969 194.644 180.435L195.674 178.721ZM194.633 177.581C194.379 177.078 194.233 176.444 194.233 175.645H192.233C192.233 176.687 192.425 177.643 192.847 178.481L194.633 177.581ZM194.233 175.645C194.233 175.033 194.319 174.522 194.472 174.095L192.59 173.419C192.345 174.101 192.233 174.847 192.233 175.645H194.233ZM194.471 174.099C194.632 173.657 194.847 173.306 195.106 173.029L193.644 171.664C193.182 172.159 192.834 172.749 192.592 173.415L194.471 174.099ZM195.108 173.026C195.372 172.742 195.677 172.53 196.028 172.384L195.261 170.537C194.642 170.794 194.099 171.173 193.642 171.667L195.108 173.026ZM196.033 172.382C196.386 172.233 196.781 172.153 197.23 172.153V170.153C196.537 170.153 195.875 170.278 195.257 170.539L196.033 172.382ZM197.23 172.153C197.614 172.153 197.954 172.21 198.259 172.313L198.903 170.42C198.372 170.239 197.812 170.153 197.23 170.153V172.153ZM198.265 172.315C198.578 172.42 198.843 172.564 199.069 172.745L200.317 171.182C199.896 170.845 199.419 170.592 198.897 170.418L198.265 172.315ZM199.073 172.747C199.304 172.93 199.491 173.144 199.638 173.393L201.359 172.374C201.086 171.912 200.736 171.513 200.314 171.179L199.073 172.747ZM199.638 173.393C199.78 173.632 199.876 173.901 199.923 174.21L201.901 173.909C201.817 173.36 201.638 172.845 201.359 172.374L199.638 173.393ZM200.912 173.06H199.301V175.06H200.912V173.06ZM202.513 180H201.513V181H202.513V180ZM202.513 171.273V170.273H201.513V171.273H202.513ZM204.094 171.273H205.094V170.273H204.094V171.273ZM204.094 174.967H203.094V175.967H204.094V174.967ZM208.138 174.967V175.967H209.138V174.967H208.138ZM208.138 171.273V170.273H207.138V171.273H208.138ZM209.723 171.273H210.723V170.273H209.723V171.273ZM209.723 180V181H210.723V180H209.723ZM208.138 180H207.138V181H208.138V180ZM208.138 176.293H209.138V175.293H208.138V176.293ZM204.094 176.293V175.293H203.094V176.293H204.094ZM204.094 180V181H205.094V180H204.094ZM203.513 180V171.273H201.513V180H203.513ZM202.513 172.273H204.094V170.273H202.513V172.273ZM203.094 171.273V174.967H205.094V171.273H203.094ZM204.094 175.967H208.138V173.967H204.094V175.967ZM209.138 174.967V171.273H207.138V174.967H209.138ZM208.138 172.273H209.723V170.273H208.138V172.273ZM208.723 171.273V180H210.723V171.273H208.723ZM209.723 179H208.138V181H209.723V179ZM209.138 180V176.293H207.138V180H209.138ZM208.138 175.293H204.094V177.293H208.138V175.293ZM203.094 176.293V180H205.094V176.293H203.094ZM204.094 179H202.513V181H204.094V179ZM211.059 172.598H210.059V173.598H211.059V172.598ZM211.059 171.273V170.273H210.059V171.273H211.059ZM218.022 171.273H219.022V170.273H218.022V171.273ZM218.022 172.598V173.598H219.022V172.598H218.022ZM215.325 172.598V171.598H214.325V172.598H215.325ZM215.325 180V181H216.325V180H215.325ZM213.757 180H212.757V181H213.757V180ZM213.757 172.598H214.757V171.598H213.757V172.598ZM212.059 172.598V171.273H210.059V172.598H212.059ZM211.059 172.273H218.022V170.273H211.059V172.273ZM217.022 171.273V172.598H219.022V171.273H217.022ZM218.022 171.598H215.325V173.598H218.022V171.598ZM214.325 172.598V180H216.325V172.598H214.325ZM215.325 179H213.757V181H215.325V179ZM214.757 180V172.598H212.757V180H214.757ZM213.757 171.598H211.059V173.598H213.757V171.598Z" fill="#555555" mask="url(#path-16-outside-1_1_3516)"/>
<defs>
<filter id="filter0_d_1_3516" x="92" y="94" width="16" height="16" filterUnits="userSpaceOnUse" color-interpolation-filters="sRGB">
<feFlood flood-opacity="0" result="BackgroundImageFix"/>
<feColorMatrix in="SourceAlpha" type="matrix" values="0 0 0 0 0 0 0 0 0 0 0 0 0 0 0 0 0 0 127 0" result="hardAlpha"/>
<feOffset dy="2"/>
<feGaussianBlur stdDeviation="2"/>
<feColorMatrix type="matrix" values="0 0 0 0 0 0 0 0 0 0 0 0 0 0 0 0 0 0 0.45 0"/>
<feBlend mode="normal" in2="BackgroundImageFix" result="effect1_dropShadow_1_3516"/>
<feBlend mode="normal" in="SourceGraphic" in2="effect1_dropShadow_1_3516" result="shape"/>
</filter>
<filter id="filter1_d_1_3516" x="92" y="194" width="16" height="16" filterUnits="userSpaceOnUse" color-interpolation-filters="sRGB">
<feFlood flood-opacity="0" result="BackgroundImageFix"/>
<feColorMatrix in="SourceAlpha" type="matrix" values="0 0 0 0 0 0 0 0 0 0 0 0 0 0 0 0 0 0 127 0" result="hardAlpha"/>
<feOffset dy="2"/>
<feGaussianBlur stdDeviation="2"/>
<feColorMatrix type="matrix" values="0 0 0 0 0 0 0 0 0 0 0 0 0 0 0 0 0 0 0.45 0"/>
<feBlend mode="normal" in2="BackgroundImageFix" result="effect1_dropShadow_1_3516"/>
<feBlend mode="normal" in="SourceGraphic" in2="effect1_dropShadow_1_3516" result="shape"/>
</filter>
<filter id="filter2_d_1_3516" x="192" y="94" width="16" height="16" filterUnits="userSpaceOnUse" color-interpolation-filters="sRGB">
<feFlood flood-opacity="0" result="BackgroundImageFix"/>
<feColorMatrix in="SourceAlpha" type="matrix" values="0 0 0 0 0 0 0 0 0 0 0 0 0 0 0 0 0 0 127 0" result="hardAlpha"/>
<feOffset dy="2"/>
<feGaussianBlur stdDeviation="2"/>
<feColorMatrix type="matrix" values="0 0 0 0 0 0 0 0 0 0 0 0 0 0 0 0 0 0 0.45 0"/>
<feBlend mode="normal" in2="BackgroundImageFix" result="effect1_dropShadow_1_3516"/>
<feBlend mode="normal" in="SourceGraphic" in2="effect1_dropShadow_1_3516" result="shape"/>
</filter>
<filter id="filter3_d_1_3516" x="192" y="194" width="16" height="16" filterUnits="userSpaceOnUse" color-interpolation-filters="sRGB">
<feFlood flood-opacity="0" result="BackgroundImageFix"/>
<feColorMatrix in="SourceAlpha" type="matrix" values="0 0 0 0 0 0 0 0 0 0 0 0 0 0 0 0 0 0 127 0" result="hardAlpha"/>
<feOffset dy="2"/>
<feGaussianBlur stdDeviation="2"/>
<feColorMatrix type="matrix" values="0 0 0 0 0 0 0 0 0 0 0 0 0 0 0 0 0 0 0.45 0"/>
<feBlend mode="normal" in2="BackgroundImageFix" result="effect1_dropShadow_1_3516"/>
<feBlend mode="normal" in="SourceGraphic" in2="effect1_dropShadow_1_3516" result="shape"/>
</filter>
<filter id="filter4_d_1_3516" x="181" y="133" width="38" height="38" filterUnits="userSpaceOnUse" color-interpolation-filters="sRGB">
<feFlood flood-opacity="0" result="BackgroundImageFix"/>
<feColorMatrix in="SourceAlpha" type="matrix" values="0 0 0 0 0 0 0 0 0 0 0 0 0 0 0 0 0 0 127 0" result="hardAlpha"/>
<feOffset dy="1"/>
<feGaussianBlur stdDeviation="1.5"/>
<feColorMatrix type="matrix" values="0 0 0 0 0 0 0 0 0 0 0 0 0 0 0 0 0 0 0.35 0"/>
<feBlend mode="normal" in2="BackgroundImageFix" result="effect1_dropShadow_1_3516"/>
<feBlend mode="normal" in="SourceGraphic" in2="effect1_dropShadow_1_3516" result="shape"/>
</filter>
<radialGradient id="paint0_angular_1_3516" cx="0" cy="0" r="1" gradientUnits="userSpaceOnUse" gradientTransform="translate(150 150) rotate(90) scale(50)">
<stop stop-color="#ABF5FF"/>
<stop offset="1" stop-color="#0086E6"/>
</radialGradient>
<radialGradient id="paint1_angular_1_3516" cx="0" cy="0" r="1" gradientUnits="userSpaceOnUse" gradientTransform="translate(150 150) rotate(90) scale(50)">
<stop stop-color="#ABF5FF"/>
<stop offset="1" stop-color="#0086E6"/>
</radialGradient>
</defs>
</svg>
