<svg width="324" height="300" viewBox="0 0 324 300" fill="none" xmlns="http://www.w3.org/2000/svg">
<rect width="300" height="300" transform="translate(8)" fill="#F5F5F5"/>
<circle opacity="0.4" cx="158" cy="150" r="50" fill="url(#paint0_angular_1_3544)"/>
<ellipse cx="158" cy="150" rx="149" ry="50" fill="url(#paint1_angular_1_3544)" stroke="#1C6EE8"/>
<rect x="8" y="100" width="300" height="100" stroke="#1C6EE8"/>
<g filter="url(#filter0_d_1_3544)">
<rect x="4" y="96" width="8" height="8" fill="white"/>
<rect x="4.5" y="96.5" width="7" height="7" stroke="#1C6EE8"/>
</g>
<g filter="url(#filter1_d_1_3544)">
<rect x="4" y="196" width="8" height="8" fill="white"/>
<rect x="4.5" y="196.5" width="7" height="7" stroke="#1C6EE8"/>
</g>
<g filter="url(#filter2_d_1_3544)">
<rect x="304" y="96" width="8" height="8" fill="white"/>
<rect x="304.5" y="96.5" width="7" height="7" stroke="#1C6EE8"/>
</g>
<g filter="url(#filter3_d_1_3544)">
<rect x="304" y="196" width="8" height="8" fill="white"/>
<rect x="304.5" y="196.5" width="7" height="7" stroke="#1C6EE8"/>
</g>
<path d="M156.25 146.402V144C156.25 143.034 157.034 142.25 158 142.25C158.966 142.25 159.75 143.034 159.75 144V146.402C160.554 146.794 161.206 147.446 161.598 148.25H164C164.966 148.25 165.75 149.034 165.75 150C165.75 150.966 164.966 151.75 164 151.75H161.598C161.206 152.554 160.554 153.206 159.75 153.598V156C159.75 156.966 158.966 157.75 158 157.75C157.034 157.75 156.25 156.966 156.25 156V153.598C155.446 153.206 154.794 152.554 154.402 151.75H152C151.034 151.75 150.25 150.966 150.25 150C150.25 149.034 151.034 148.25 152 148.25H154.402C154.794 147.446 155.446 146.794 156.25 146.402Z" fill="white"/>
<path fill-rule="evenodd" clip-rule="evenodd" d="M158 143.25C158.414 143.25 158.75 143.586 158.75 144V147.095C159.804 147.366 160.634 148.196 160.905 149.25H164C164.414 149.25 164.75 149.586 164.75 150C164.75 150.414 164.414 150.75 164 150.75H160.905C160.634 151.804 159.804 152.634 158.75 152.905V156C158.75 156.414 158.414 156.75 158 156.75C157.586 156.75 157.25 156.414 157.25 156V152.905C156.196 152.634 155.366 151.804 155.095 150.75H152C151.586 150.75 151.25 150.414 151.25 150C151.25 149.586 151.586 149.25 152 149.25H155.095C155.366 148.196 156.196 147.366 157.25 147.095V144C157.25 143.586 157.586 143.25 158 143.25ZM159.5 150C159.5 150.828 158.828 151.5 158 151.5C157.172 151.5 156.5 150.828 156.5 150C156.5 149.172 157.172 148.5 158 148.5C158.828 148.5 159.5 149.172 159.5 150Z" fill="#1C6EE8"/>
<line x1="308.5" y1="-2.18557e-08" x2="308.5" y2="300" stroke="#FF0000"/>
<rect x="208" y="145" width="100" height="10" fill="#FF03A9" fill-opacity="0.7"/>
<path d="M232.52 154.125C232.02 154.125 231.578 153.999 231.195 153.746C230.813 153.491 230.513 153.132 230.297 152.668C230.081 152.202 229.973 151.651 229.973 151.016C229.973 150.385 230.081 149.839 230.297 149.375C230.513 148.911 230.814 148.553 231.199 148.301C231.585 148.048 232.03 147.922 232.535 147.922C232.926 147.922 233.234 147.987 233.461 148.117C233.69 148.245 233.865 148.391 233.984 148.555C234.107 148.716 234.202 148.849 234.27 148.953H234.348V146H235.27V154H234.379V153.078H234.27C234.202 153.187 234.105 153.326 233.98 153.492C233.855 153.656 233.677 153.803 233.445 153.934C233.214 154.061 232.905 154.125 232.52 154.125ZM232.645 153.297C233.014 153.297 233.327 153.201 233.582 153.008C233.837 152.812 234.031 152.543 234.164 152.199C234.297 151.853 234.363 151.453 234.363 151C234.363 150.552 234.298 150.16 234.168 149.824C234.038 149.486 233.845 149.223 233.59 149.035C233.335 148.845 233.02 148.75 232.645 148.75C232.254 148.75 231.928 148.85 231.668 149.051C231.41 149.249 231.216 149.518 231.086 149.859C230.958 150.198 230.895 150.578 230.895 151C230.895 151.427 230.96 151.815 231.09 152.164C231.223 152.51 231.418 152.786 231.676 152.992C231.936 153.195 232.259 153.297 232.645 153.297ZM237.086 154V148H237.977V148.906H238.039C238.148 148.609 238.346 148.368 238.633 148.184C238.919 147.999 239.242 147.906 239.602 147.906C239.669 147.906 239.754 147.908 239.855 147.91C239.957 147.913 240.034 147.917 240.086 147.922V148.859C240.055 148.852 239.983 148.84 239.871 148.824C239.762 148.806 239.646 148.797 239.523 148.797C239.232 148.797 238.971 148.858 238.742 148.98C238.516 149.1 238.336 149.267 238.203 149.48C238.073 149.691 238.008 149.932 238.008 150.203V154H237.086ZM242.944 154.141C242.564 154.141 242.219 154.069 241.909 153.926C241.599 153.78 241.353 153.57 241.171 153.297C240.989 153.021 240.897 152.687 240.897 152.297C240.897 151.953 240.965 151.674 241.101 151.461C241.236 151.245 241.417 151.076 241.644 150.953C241.87 150.831 242.12 150.74 242.394 150.68C242.67 150.617 242.947 150.568 243.226 150.531C243.59 150.484 243.886 150.449 244.112 150.426C244.341 150.4 244.508 150.357 244.612 150.297C244.719 150.237 244.772 150.133 244.772 149.984V149.953C244.772 149.568 244.667 149.268 244.456 149.055C244.248 148.841 243.931 148.734 243.507 148.734C243.067 148.734 242.722 148.831 242.472 149.023C242.222 149.216 242.046 149.422 241.944 149.641L241.069 149.328C241.226 148.964 241.434 148.68 241.694 148.477C241.957 148.271 242.244 148.128 242.554 148.047C242.866 147.964 243.174 147.922 243.476 147.922C243.668 147.922 243.89 147.945 244.14 147.992C244.392 148.036 244.636 148.129 244.87 148.27C245.107 148.41 245.304 148.622 245.46 148.906C245.616 149.19 245.694 149.57 245.694 150.047V154H244.772V153.187H244.726C244.663 153.318 244.559 153.457 244.413 153.605C244.267 153.754 244.073 153.88 243.831 153.984C243.589 154.089 243.293 154.141 242.944 154.141ZM243.085 153.312C243.45 153.312 243.757 153.241 244.007 153.098C244.259 152.954 244.45 152.77 244.577 152.543C244.707 152.316 244.772 152.078 244.772 151.828V150.984C244.733 151.031 244.647 151.074 244.515 151.113C244.384 151.15 244.233 151.182 244.062 151.211C243.892 151.237 243.727 151.26 243.565 151.281C243.407 151.299 243.278 151.315 243.179 151.328C242.939 151.359 242.715 151.41 242.507 151.48C242.301 151.548 242.134 151.651 242.007 151.789C241.882 151.924 241.819 152.109 241.819 152.344C241.819 152.664 241.938 152.906 242.175 153.07C242.414 153.232 242.718 153.312 243.085 153.312ZM249.799 156.375C249.354 156.375 248.971 156.318 248.65 156.203C248.33 156.091 248.063 155.943 247.85 155.758C247.639 155.576 247.471 155.38 247.346 155.172L248.08 154.656C248.163 154.766 248.269 154.891 248.396 155.031C248.524 155.174 248.699 155.298 248.92 155.402C249.144 155.509 249.437 155.562 249.799 155.562C250.283 155.562 250.683 155.445 250.998 155.211C251.313 154.977 251.471 154.609 251.471 154.109V152.891H251.393C251.325 153 251.229 153.135 251.104 153.297C250.981 153.456 250.804 153.598 250.572 153.723C250.343 153.845 250.033 153.906 249.643 153.906C249.158 153.906 248.723 153.792 248.338 153.563C247.955 153.333 247.652 153 247.428 152.562C247.206 152.125 247.096 151.594 247.096 150.969C247.096 150.354 247.204 149.819 247.42 149.363C247.636 148.905 247.937 148.551 248.322 148.301C248.708 148.048 249.153 147.922 249.658 147.922C250.049 147.922 250.359 147.987 250.588 148.117C250.82 148.245 250.997 148.391 251.119 148.555C251.244 148.716 251.34 148.849 251.408 148.953H251.502V148H252.393V154.172C252.393 154.688 252.275 155.107 252.041 155.43C251.809 155.755 251.497 155.993 251.104 156.145C250.713 156.298 250.278 156.375 249.799 156.375ZM249.768 153.078C250.137 153.078 250.45 152.993 250.705 152.824C250.96 152.655 251.154 152.411 251.287 152.094C251.42 151.776 251.486 151.396 251.486 150.953C251.486 150.521 251.421 150.139 251.291 149.809C251.161 149.478 250.968 149.219 250.713 149.031C250.458 148.844 250.143 148.75 249.768 148.75C249.377 148.75 249.051 148.849 248.791 149.047C248.533 149.245 248.339 149.51 248.209 149.844C248.081 150.177 248.018 150.547 248.018 150.953C248.018 151.37 248.083 151.738 248.213 152.059C248.346 152.376 248.541 152.626 248.799 152.809C249.059 152.988 249.382 153.078 249.768 153.078ZM259.971 146V154H259.002V147.016H258.955L257.002 148.312V147.328L259.002 146H259.971ZM264.881 154.109C264.292 154.109 263.791 153.949 263.377 153.629C262.963 153.306 262.646 152.839 262.428 152.227C262.209 151.612 262.1 150.87 262.1 150C262.1 149.135 262.209 148.397 262.428 147.785C262.649 147.171 262.967 146.702 263.381 146.379C263.798 146.053 264.298 145.891 264.881 145.891C265.464 145.891 265.963 146.053 266.377 146.379C266.794 146.702 267.111 147.171 267.33 147.785C267.551 148.397 267.662 149.135 267.662 150C267.662 150.87 267.553 151.612 267.334 152.227C267.115 152.839 266.799 153.306 266.385 153.629C265.971 153.949 265.469 154.109 264.881 154.109ZM264.881 153.25C265.464 153.25 265.917 152.969 266.24 152.406C266.563 151.844 266.725 151.042 266.725 150C266.725 149.307 266.65 148.717 266.502 148.23C266.356 147.743 266.145 147.372 265.869 147.117C265.596 146.862 265.266 146.734 264.881 146.734C264.303 146.734 263.851 147.02 263.525 147.59C263.2 148.158 263.037 148.961 263.037 150C263.037 150.693 263.11 151.281 263.256 151.766C263.402 152.25 263.611 152.618 263.885 152.871C264.161 153.124 264.493 153.25 264.881 153.25ZM271.756 154.109C271.167 154.109 270.666 153.949 270.252 153.629C269.838 153.306 269.521 152.839 269.303 152.227C269.084 151.612 268.975 150.87 268.975 150C268.975 149.135 269.084 148.397 269.303 147.785C269.524 147.171 269.842 146.702 270.256 146.379C270.673 146.053 271.173 145.891 271.756 145.891C272.339 145.891 272.838 146.053 273.252 146.379C273.669 146.702 273.986 147.171 274.205 147.785C274.426 148.397 274.537 149.135 274.537 150C274.537 150.87 274.428 151.612 274.209 152.227C273.99 152.839 273.674 153.306 273.26 153.629C272.846 153.949 272.344 154.109 271.756 154.109ZM271.756 153.25C272.339 153.25 272.792 152.969 273.115 152.406C273.438 151.844 273.6 151.042 273.6 150C273.6 149.307 273.525 148.717 273.377 148.23C273.231 147.743 273.02 147.372 272.744 147.117C272.471 146.862 272.141 146.734 271.756 146.734C271.178 146.734 270.726 147.02 270.4 147.59C270.075 148.158 269.912 148.961 269.912 150C269.912 150.693 269.985 151.281 270.131 151.766C270.277 152.25 270.486 152.618 270.76 152.871C271.036 153.124 271.368 153.25 271.756 153.25ZM276.037 156.25V148H276.928V148.953H277.037C277.105 148.849 277.199 148.716 277.318 148.555C277.441 148.391 277.615 148.245 277.842 148.117C278.071 147.987 278.381 147.922 278.771 147.922C279.277 147.922 279.722 148.048 280.107 148.301C280.493 148.553 280.794 148.911 281.01 149.375C281.226 149.839 281.334 150.385 281.334 151.016C281.334 151.651 281.226 152.202 281.01 152.668C280.794 153.132 280.494 153.491 280.111 153.746C279.729 153.999 279.287 154.125 278.787 154.125C278.402 154.125 278.093 154.061 277.861 153.934C277.63 153.803 277.451 153.656 277.326 153.492C277.201 153.326 277.105 153.187 277.037 153.078H276.959V156.25H276.037ZM276.943 151C276.943 151.453 277.01 151.853 277.143 152.199C277.275 152.543 277.469 152.812 277.725 153.008C277.98 153.201 278.292 153.297 278.662 153.297C279.048 153.297 279.369 153.195 279.627 152.992C279.887 152.786 280.083 152.51 280.213 152.164C280.346 151.815 280.412 151.427 280.412 151C280.412 150.578 280.347 150.198 280.217 149.859C280.089 149.518 279.895 149.249 279.635 149.051C279.377 148.85 279.053 148.75 278.662 148.75C278.287 148.75 277.972 148.845 277.717 149.035C277.462 149.223 277.269 149.486 277.139 149.824C277.008 150.16 276.943 150.552 276.943 151ZM283.181 148L284.618 150.453L286.056 148H287.118L285.181 151L287.118 154H286.056L284.618 151.672L283.181 154H282.118L284.024 151L282.118 148H283.181Z" fill="white"/>
<g filter="url(#filter4_d_1_3544)">
<path d="M304.528 153.476L303.553 152.501L305.093 152.501C305.244 152.795 305.443 153.07 305.688 153.316C306.967 154.594 309.039 154.594 310.317 153.316C310.563 153.07 310.761 152.795 310.912 152.501L312.452 152.501L311.478 153.476L313.599 155.598L318.195 151.001L313.599 146.405L311.478 148.527L312.452 149.501L310.912 149.501C310.761 149.208 310.563 148.933 310.317 148.687C309.039 147.409 306.967 147.409 305.688 148.687C305.443 148.933 305.244 149.208 305.093 149.501L303.553 149.501L304.528 148.527L302.406 146.405L297.81 151.001L302.406 155.598L304.528 153.476Z" fill="white"/>
<path fill-rule="evenodd" clip-rule="evenodd" d="M301.139 151.501L303.113 153.476L302.406 154.183L299.224 151.001L302.406 147.819L303.113 148.526L301.139 150.501L305.878 150.501C305.968 150.119 306.162 149.757 306.46 149.459C307.312 148.607 308.693 148.607 309.545 149.459C309.843 149.757 310.037 150.119 310.127 150.501L314.866 150.501L312.892 148.526L313.599 147.819L316.781 151.001L313.599 154.183L312.892 153.476L314.867 151.501L310.127 151.501C310.037 151.883 309.843 152.246 309.545 152.544C308.693 153.396 307.312 153.396 306.46 152.544C306.162 152.246 305.968 151.883 305.878 151.501L301.139 151.501ZM307.231 151.773C307.657 152.199 308.348 152.199 308.774 151.773C309.2 151.347 309.2 150.656 308.774 150.23C308.348 149.804 307.657 149.804 307.231 150.23C306.805 150.656 306.805 151.347 307.231 151.773Z" fill="black"/>
</g>
<mask id="path-19-outside-1_1_3544" maskUnits="userSpaceOnUse" x="285" y="170" width="39" height="12" fill="black">
<rect fill="white" x="285" y="170" width="39" height="12"/>
<path d="M286.357 180V171.273H289.63C290.3 171.273 290.863 171.389 291.317 171.622C291.775 171.855 292.12 172.182 292.353 172.602C292.588 173.02 292.706 173.507 292.706 174.064C292.706 174.624 292.587 175.109 292.348 175.521C292.113 175.93 291.765 176.247 291.304 176.472C290.844 176.693 290.279 176.804 289.608 176.804H287.277V175.491H289.395C289.787 175.491 290.108 175.437 290.358 175.33C290.608 175.219 290.793 175.058 290.912 174.848C291.034 174.635 291.096 174.374 291.096 174.064C291.096 173.754 291.034 173.49 290.912 173.271C290.79 173.05 290.604 172.882 290.354 172.768C290.104 172.652 289.782 172.594 289.387 172.594H287.938V180H286.357ZM290.865 176.045L293.026 180H291.262L289.14 176.045H290.865ZM295.743 171.273V180H294.162V171.273H295.743ZM303.301 174.06C303.23 173.83 303.132 173.624 303.007 173.442C302.885 173.257 302.737 173.099 302.564 172.969C302.393 172.838 302.197 172.74 301.976 172.675C301.754 172.607 301.513 172.572 301.251 172.572C300.783 172.572 300.365 172.69 299.999 172.926C299.632 173.162 299.344 173.509 299.134 173.966C298.926 174.42 298.822 174.974 298.822 175.628C298.822 176.287 298.926 176.845 299.134 177.303C299.341 177.76 299.629 178.108 299.999 178.347C300.368 178.582 300.797 178.7 301.286 178.7C301.729 178.7 302.112 178.615 302.436 178.445C302.763 178.274 303.014 178.033 303.19 177.72C303.366 177.405 303.455 177.036 303.455 176.612L303.812 176.668H301.443V175.432H304.984V176.48C304.984 177.227 304.825 177.874 304.507 178.419C304.189 178.964 303.751 179.385 303.195 179.68C302.638 179.973 301.999 180.119 301.277 180.119C300.473 180.119 299.767 179.939 299.159 179.578C298.554 179.214 298.081 178.699 297.74 178.031C297.402 177.361 297.233 176.565 297.233 175.645C297.233 174.94 297.332 174.311 297.531 173.757C297.733 173.203 298.014 172.733 298.375 172.347C298.736 171.957 299.159 171.662 299.645 171.46C300.131 171.256 300.659 171.153 301.23 171.153C301.713 171.153 302.163 171.224 302.581 171.366C302.999 171.506 303.369 171.705 303.693 171.963C304.02 172.222 304.288 172.528 304.499 172.884C304.709 173.239 304.847 173.631 304.912 174.06H303.301ZM306.513 180V171.273H308.094V174.967H312.138V171.273H313.723V180H312.138V176.293H308.094V180H306.513ZM315.059 172.598V171.273H322.022V172.598H319.325V180H317.757V172.598H315.059Z"/>
</mask>
<path d="M286.357 180V171.273H289.63C290.3 171.273 290.863 171.389 291.317 171.622C291.775 171.855 292.12 172.182 292.353 172.602C292.588 173.02 292.706 173.507 292.706 174.064C292.706 174.624 292.587 175.109 292.348 175.521C292.113 175.93 291.765 176.247 291.304 176.472C290.844 176.693 290.279 176.804 289.608 176.804H287.277V175.491H289.395C289.787 175.491 290.108 175.437 290.358 175.33C290.608 175.219 290.793 175.058 290.912 174.848C291.034 174.635 291.096 174.374 291.096 174.064C291.096 173.754 291.034 173.49 290.912 173.271C290.79 173.05 290.604 172.882 290.354 172.768C290.104 172.652 289.782 172.594 289.387 172.594H287.938V180H286.357ZM290.865 176.045L293.026 180H291.262L289.14 176.045H290.865ZM295.743 171.273V180H294.162V171.273H295.743ZM303.301 174.06C303.23 173.83 303.132 173.624 303.007 173.442C302.885 173.257 302.737 173.099 302.564 172.969C302.393 172.838 302.197 172.74 301.976 172.675C301.754 172.607 301.513 172.572 301.251 172.572C300.783 172.572 300.365 172.69 299.999 172.926C299.632 173.162 299.344 173.509 299.134 173.966C298.926 174.42 298.822 174.974 298.822 175.628C298.822 176.287 298.926 176.845 299.134 177.303C299.341 177.76 299.629 178.108 299.999 178.347C300.368 178.582 300.797 178.7 301.286 178.7C301.729 178.7 302.112 178.615 302.436 178.445C302.763 178.274 303.014 178.033 303.19 177.72C303.366 177.405 303.455 177.036 303.455 176.612L303.812 176.668H301.443V175.432H304.984V176.48C304.984 177.227 304.825 177.874 304.507 178.419C304.189 178.964 303.751 179.385 303.195 179.68C302.638 179.973 301.999 180.119 301.277 180.119C300.473 180.119 299.767 179.939 299.159 179.578C298.554 179.214 298.081 178.699 297.74 178.031C297.402 177.361 297.233 176.565 297.233 175.645C297.233 174.94 297.332 174.311 297.531 173.757C297.733 173.203 298.014 172.733 298.375 172.347C298.736 171.957 299.159 171.662 299.645 171.46C300.131 171.256 300.659 171.153 301.23 171.153C301.713 171.153 302.163 171.224 302.581 171.366C302.999 171.506 303.369 171.705 303.693 171.963C304.02 172.222 304.288 172.528 304.499 172.884C304.709 173.239 304.847 173.631 304.912 174.06H303.301ZM306.513 180V171.273H308.094V174.967H312.138V171.273H313.723V180H312.138V176.293H308.094V180H306.513ZM315.059 172.598V171.273H322.022V172.598H319.325V180H317.757V172.598H315.059Z" fill="#E3E3E3"/>
<path d="M286.357 180H285.357V181H286.357V180ZM286.357 171.273V170.273H285.357V171.273H286.357ZM291.317 171.622L290.861 172.512L290.863 172.513L291.317 171.622ZM292.353 172.602L291.478 173.087L291.482 173.094L292.353 172.602ZM292.348 175.521L291.483 175.02L291.482 175.022L292.348 175.521ZM291.304 176.472L291.738 177.373L291.743 177.37L291.304 176.472ZM287.277 176.804H286.277V177.804H287.277V176.804ZM287.277 175.491V174.491H286.277V175.491H287.277ZM290.358 175.33L290.755 176.248L290.763 176.244L290.358 175.33ZM290.912 174.848L290.045 174.351L290.043 174.354L290.912 174.848ZM290.912 173.271L290.037 173.754L290.039 173.759L290.912 173.271ZM290.354 172.768L289.932 173.675L289.94 173.679L290.354 172.768ZM287.938 172.594V171.594H286.938V172.594H287.938ZM287.938 180V181H288.938V180H287.938ZM290.865 176.045L291.743 175.566L291.459 175.045H290.865V176.045ZM293.026 180V181H294.712L293.903 179.521L293.026 180ZM291.262 180L290.381 180.473L290.663 181H291.262V180ZM289.14 176.045V175.045H287.468L288.258 176.518L289.14 176.045ZM287.357 180V171.273H285.357V180H287.357ZM286.357 172.273H289.63V170.273H286.357V172.273ZM289.63 172.273C290.189 172.273 290.585 172.37 290.861 172.512L291.773 170.732C291.14 170.408 290.411 170.273 289.63 170.273V172.273ZM290.863 172.513C291.156 172.662 291.348 172.853 291.478 173.087L293.227 172.118C292.891 171.511 292.393 171.048 291.771 170.731L290.863 172.513ZM291.482 173.094C291.62 173.339 291.706 173.651 291.706 174.064H293.706C293.706 173.363 293.557 172.701 293.223 172.111L291.482 173.094ZM291.706 174.064C291.706 174.479 291.619 174.785 291.483 175.02L293.214 176.023C293.555 175.433 293.706 174.768 293.706 174.064H291.706ZM291.482 175.022C291.354 175.243 291.163 175.428 290.866 175.573L291.743 177.37C292.366 177.066 292.871 176.617 293.215 176.021L291.482 175.022ZM290.871 175.571C290.581 175.71 290.174 175.804 289.608 175.804V177.804C290.384 177.804 291.107 177.676 291.738 177.373L290.871 175.571ZM289.608 175.804H287.277V177.804H289.608V175.804ZM288.277 176.804V175.491H286.277V176.804H288.277ZM287.277 176.491H289.395V174.491H287.277V176.491ZM289.395 176.491C289.868 176.491 290.337 176.428 290.755 176.248L289.962 174.411C289.879 174.447 289.706 174.491 289.395 174.491V176.491ZM290.763 176.244C291.183 176.058 291.543 175.762 291.782 175.342L290.043 174.354C290.04 174.36 290.036 174.364 290.028 174.371C290.019 174.379 289.998 174.396 289.953 174.415L290.763 176.244ZM291.78 175.345C292.009 174.946 292.096 174.503 292.096 174.064H290.096C290.096 174.244 290.06 174.324 290.045 174.351L291.78 175.345ZM292.096 174.064C292.096 173.623 292.008 173.183 291.785 172.784L290.039 173.759C290.061 173.797 290.096 173.885 290.096 174.064H292.096ZM291.788 172.789C291.553 172.362 291.196 172.053 290.768 171.858L289.94 173.679C290.012 173.711 290.027 173.737 290.037 173.754L291.788 172.789ZM290.776 171.862C290.35 171.663 289.869 171.594 289.387 171.594V173.594C289.694 173.594 289.858 173.641 289.932 173.675L290.776 171.862ZM289.387 171.594H287.938V173.594H289.387V171.594ZM286.938 172.594V180H288.938V172.594H286.938ZM287.938 179H286.357V181H287.938V179ZM289.988 176.525L292.148 180.479L293.903 179.521L291.743 175.566L289.988 176.525ZM293.026 179H291.262V181H293.026V179ZM292.143 179.527L290.021 175.573L288.258 176.518L290.381 180.473L292.143 179.527ZM289.14 177.045H290.865V175.045H289.14V177.045ZM295.743 171.273H296.743V170.273H295.743V171.273ZM295.743 180V181H296.743V180H295.743ZM294.162 180H293.162V181H294.162V180ZM294.162 171.273V170.273H293.162V171.273H294.162ZM294.743 171.273V180H296.743V171.273H294.743ZM295.743 179H294.162V181H295.743V179ZM295.162 180V171.273H293.162V180H295.162ZM294.162 172.273H295.743V170.273H294.162V172.273ZM303.301 174.06L302.346 174.355L302.563 175.06H303.301V174.06ZM303.007 173.442L302.173 173.993L302.178 174.001L302.183 174.008L303.007 173.442ZM302.564 172.969L301.955 173.762L301.962 173.767L302.564 172.969ZM301.976 172.675L301.682 173.631L301.693 173.634L301.976 172.675ZM299.999 172.926L300.54 173.767L300.54 173.767L299.999 172.926ZM299.134 173.966L298.225 173.548L298.224 173.551L299.134 173.966ZM299.134 177.303L298.223 177.716L298.223 177.716L299.134 177.303ZM299.999 178.347L299.456 179.187L299.46 179.189L299.999 178.347ZM302.436 178.445L301.974 177.558L301.97 177.56L302.436 178.445ZM303.19 177.72L304.061 178.211L304.063 178.208L303.19 177.72ZM303.455 176.612L303.607 175.624L302.455 175.446V176.612H303.455ZM303.812 176.668V177.668L303.965 175.679L303.812 176.668ZM301.443 176.668H300.443V177.668H301.443V176.668ZM301.443 175.432V174.432H300.443V175.432H301.443ZM304.984 175.432H305.984V174.432H304.984V175.432ZM304.507 178.419L305.371 178.923L305.371 178.923L304.507 178.419ZM303.195 179.68L303.66 180.566L303.663 180.564L303.195 179.68ZM299.159 179.578L298.644 180.435L298.649 180.438L299.159 179.578ZM297.74 178.031L296.847 178.481L296.849 178.486L297.74 178.031ZM297.531 173.757L296.592 173.415L296.59 173.419L297.531 173.757ZM298.375 172.347L299.106 173.029L299.108 173.026L298.375 172.347ZM299.645 171.46L300.028 172.384L300.033 172.382L299.645 171.46ZM302.581 171.366L302.259 172.313L302.265 172.315L302.581 171.366ZM303.693 171.963L303.069 172.745L303.073 172.747L303.693 171.963ZM304.499 172.884L305.359 172.374L305.359 172.374L304.499 172.884ZM304.912 174.06V175.06H306.076L305.901 173.909L304.912 174.06ZM304.257 173.765C304.159 173.447 304.018 173.148 303.831 172.875L302.183 174.008C302.246 174.099 302.302 174.212 302.346 174.355L304.257 173.765ZM303.841 172.89C303.658 172.612 303.432 172.371 303.166 172.17L301.962 173.767C302.043 173.828 302.112 173.902 302.173 173.993L303.841 172.89ZM303.172 172.175C302.897 171.964 302.589 171.813 302.259 171.716L301.693 173.634C301.806 173.667 301.89 173.712 301.955 173.762L303.172 172.175ZM302.27 171.719C301.942 171.618 301.6 171.572 301.251 171.572V173.572C301.426 173.572 301.567 173.595 301.682 173.63L302.27 171.719ZM301.251 171.572C300.606 171.572 299.998 171.738 299.457 172.085L300.54 173.767C300.732 173.643 300.959 173.572 301.251 173.572V171.572ZM299.457 172.085C298.907 172.439 298.502 172.945 298.225 173.548L300.042 174.384C300.185 174.072 300.357 173.884 300.54 173.767L299.457 172.085ZM298.224 173.551C297.942 174.169 297.822 174.873 297.822 175.628H299.822C299.822 175.075 299.911 174.672 300.043 174.381L298.224 173.551ZM297.822 175.628C297.822 176.387 297.941 177.095 298.223 177.716L300.044 176.89C299.911 176.596 299.822 176.187 299.822 175.628H297.822ZM298.223 177.716C298.498 178.322 298.903 178.83 299.456 179.187L300.541 177.507C300.355 177.386 300.184 177.198 300.044 176.89L298.223 177.716ZM299.46 179.189C300.009 179.539 300.629 179.7 301.286 179.7V177.7C300.965 177.7 300.727 177.625 300.537 177.504L299.46 179.189ZM301.286 179.7C301.857 179.7 302.407 179.59 302.902 179.33L301.97 177.56C301.817 177.64 301.6 177.7 301.286 177.7V179.7ZM302.899 179.331C303.392 179.074 303.788 178.697 304.061 178.211L302.319 177.229C302.241 177.368 302.134 177.475 301.974 177.558L302.899 179.331ZM304.063 178.208C304.336 177.72 304.455 177.177 304.455 176.612H302.455C302.455 176.894 302.397 177.09 302.317 177.233L304.063 178.208ZM303.302 177.6L303.66 177.656L303.965 175.679L303.607 175.624L303.302 177.6ZM303.812 175.668H301.443V177.668H303.812V175.668ZM302.443 176.668V175.432H300.443V176.668H302.443ZM301.443 176.432H304.984V174.432H301.443V176.432ZM303.984 175.432V176.48H305.984V175.432H303.984ZM303.984 176.48C303.984 177.083 303.857 177.549 303.643 177.915L305.371 178.923C305.793 178.199 305.984 177.372 305.984 176.48H303.984ZM303.643 177.915C303.419 178.3 303.118 178.589 302.726 178.797L303.663 180.564C304.385 180.181 304.959 179.629 305.371 178.923L303.643 177.915ZM302.729 178.795C302.336 179.002 301.861 179.119 301.277 179.119V181.119C302.137 181.119 302.94 180.944 303.66 180.566L302.729 178.795ZM301.277 179.119C300.627 179.119 300.103 178.975 299.669 178.718L298.649 180.438C299.431 180.903 300.319 181.119 301.277 181.119V179.119ZM299.674 178.721C299.239 178.46 298.892 178.088 298.631 177.576L296.849 178.486C297.27 179.309 297.868 179.969 298.644 180.435L299.674 178.721ZM298.633 177.581C298.379 177.078 298.233 176.444 298.233 175.645H296.233C296.233 176.687 296.425 177.643 296.847 178.481L298.633 177.581ZM298.233 175.645C298.233 175.033 298.319 174.522 298.472 174.095L296.59 173.419C296.345 174.101 296.233 174.847 296.233 175.645H298.233ZM298.471 174.099C298.632 173.657 298.847 173.306 299.106 173.029L297.644 171.664C297.182 172.159 296.834 172.749 296.592 173.415L298.471 174.099ZM299.108 173.026C299.372 172.742 299.677 172.53 300.028 172.384L299.261 170.537C298.642 170.794 298.099 171.173 297.642 171.667L299.108 173.026ZM300.033 172.382C300.386 172.233 300.781 172.153 301.23 172.153V170.153C300.537 170.153 299.875 170.278 299.257 170.539L300.033 172.382ZM301.23 172.153C301.614 172.153 301.954 172.21 302.259 172.313L302.903 170.42C302.372 170.239 301.812 170.153 301.23 170.153V172.153ZM302.265 172.315C302.578 172.42 302.843 172.564 303.069 172.745L304.317 171.182C303.896 170.845 303.419 170.592 302.897 170.418L302.265 172.315ZM303.073 172.747C303.304 172.93 303.491 173.144 303.638 173.393L305.359 172.374C305.086 171.912 304.736 171.513 304.314 171.179L303.073 172.747ZM303.638 173.393C303.78 173.632 303.876 173.901 303.923 174.21L305.901 173.909C305.817 173.36 305.638 172.845 305.359 172.374L303.638 173.393ZM304.912 173.06H303.301V175.06H304.912V173.06ZM306.513 180H305.513V181H306.513V180ZM306.513 171.273V170.273H305.513V171.273H306.513ZM308.094 171.273H309.094V170.273H308.094V171.273ZM308.094 174.967H307.094V175.967H308.094V174.967ZM312.138 174.967V175.967H313.138V174.967H312.138ZM312.138 171.273V170.273H311.138V171.273H312.138ZM313.723 171.273H314.723V170.273H313.723V171.273ZM313.723 180V181H314.723V180H313.723ZM312.138 180H311.138V181H312.138V180ZM312.138 176.293H313.138V175.293H312.138V176.293ZM308.094 176.293V175.293H307.094V176.293H308.094ZM308.094 180V181H309.094V180H308.094ZM307.513 180V171.273H305.513V180H307.513ZM306.513 172.273H308.094V170.273H306.513V172.273ZM307.094 171.273V174.967H309.094V171.273H307.094ZM308.094 175.967H312.138V173.967H308.094V175.967ZM313.138 174.967V171.273H311.138V174.967H313.138ZM312.138 172.273H313.723V170.273H312.138V172.273ZM312.723 171.273V180H314.723V171.273H312.723ZM313.723 179H312.138V181H313.723V179ZM313.138 180V176.293H311.138V180H313.138ZM312.138 175.293H308.094V177.293H312.138V175.293ZM307.094 176.293V180H309.094V176.293H307.094ZM308.094 179H306.513V181H308.094V179ZM315.059 172.598H314.059V173.598H315.059V172.598ZM315.059 171.273V170.273H314.059V171.273H315.059ZM322.022 171.273H323.022V170.273H322.022V171.273ZM322.022 172.598V173.598H323.022V172.598H322.022ZM319.325 172.598V171.598H318.325V172.598H319.325ZM319.325 180V181H320.325V180H319.325ZM317.757 180H316.757V181H317.757V180ZM317.757 172.598H318.757V171.598H317.757V172.598ZM316.059 172.598V171.273H314.059V172.598H316.059ZM315.059 172.273H322.022V170.273H315.059V172.273ZM321.022 171.273V172.598H323.022V171.273H321.022ZM322.022 171.598H319.325V173.598H322.022V171.598ZM318.325 172.598V180H320.325V172.598H318.325ZM319.325 179H317.757V181H319.325V179ZM318.757 180V172.598H316.757V180H318.757ZM317.757 171.598H315.059V173.598H317.757V171.598Z" fill="#555555" mask="url(#path-19-outside-1_1_3544)"/>
<defs>
<filter id="filter0_d_1_3544" x="0" y="94" width="16" height="16" filterUnits="userSpaceOnUse" color-interpolation-filters="sRGB">
<feFlood flood-opacity="0" result="BackgroundImageFix"/>
<feColorMatrix in="SourceAlpha" type="matrix" values="0 0 0 0 0 0 0 0 0 0 0 0 0 0 0 0 0 0 127 0" result="hardAlpha"/>
<feOffset dy="2"/>
<feGaussianBlur stdDeviation="2"/>
<feColorMatrix type="matrix" values="0 0 0 0 0 0 0 0 0 0 0 0 0 0 0 0 0 0 0.45 0"/>
<feBlend mode="normal" in2="BackgroundImageFix" result="effect1_dropShadow_1_3544"/>
<feBlend mode="normal" in="SourceGraphic" in2="effect1_dropShadow_1_3544" result="shape"/>
</filter>
<filter id="filter1_d_1_3544" x="0" y="194" width="16" height="16" filterUnits="userSpaceOnUse" color-interpolation-filters="sRGB">
<feFlood flood-opacity="0" result="BackgroundImageFix"/>
<feColorMatrix in="SourceAlpha" type="matrix" values="0 0 0 0 0 0 0 0 0 0 0 0 0 0 0 0 0 0 127 0" result="hardAlpha"/>
<feOffset dy="2"/>
<feGaussianBlur stdDeviation="2"/>
<feColorMatrix type="matrix" values="0 0 0 0 0 0 0 0 0 0 0 0 0 0 0 0 0 0 0.45 0"/>
<feBlend mode="normal" in2="BackgroundImageFix" result="effect1_dropShadow_1_3544"/>
<feBlend mode="normal" in="SourceGraphic" in2="effect1_dropShadow_1_3544" result="shape"/>
</filter>
<filter id="filter2_d_1_3544" x="300" y="94" width="16" height="16" filterUnits="userSpaceOnUse" color-interpolation-filters="sRGB">
<feFlood flood-opacity="0" result="BackgroundImageFix"/>
<feColorMatrix in="SourceAlpha" type="matrix" values="0 0 0 0 0 0 0 0 0 0 0 0 0 0 0 0 0 0 127 0" result="hardAlpha"/>
<feOffset dy="2"/>
<feGaussianBlur stdDeviation="2"/>
<feColorMatrix type="matrix" values="0 0 0 0 0 0 0 0 0 0 0 0 0 0 0 0 0 0 0.45 0"/>
<feBlend mode="normal" in2="BackgroundImageFix" result="effect1_dropShadow_1_3544"/>
<feBlend mode="normal" in="SourceGraphic" in2="effect1_dropShadow_1_3544" result="shape"/>
</filter>
<filter id="filter3_d_1_3544" x="300" y="194" width="16" height="16" filterUnits="userSpaceOnUse" color-interpolation-filters="sRGB">
<feFlood flood-opacity="0" result="BackgroundImageFix"/>
<feColorMatrix in="SourceAlpha" type="matrix" values="0 0 0 0 0 0 0 0 0 0 0 0 0 0 0 0 0 0 127 0" result="hardAlpha"/>
<feOffset dy="2"/>
<feGaussianBlur stdDeviation="2"/>
<feColorMatrix type="matrix" values="0 0 0 0 0 0 0 0 0 0 0 0 0 0 0 0 0 0 0.45 0"/>
<feBlend mode="normal" in2="BackgroundImageFix" result="effect1_dropShadow_1_3544"/>
<feBlend mode="normal" in="SourceGraphic" in2="effect1_dropShadow_1_3544" result="shape"/>
</filter>
<filter id="filter4_d_1_3544" x="289" y="133" width="38" height="38" filterUnits="userSpaceOnUse" color-interpolation-filters="sRGB">
<feFlood flood-opacity="0" result="BackgroundImageFix"/>
<feColorMatrix in="SourceAlpha" type="matrix" values="0 0 0 0 0 0 0 0 0 0 0 0 0 0 0 0 0 0 127 0" result="hardAlpha"/>
<feOffset dy="1"/>
<feGaussianBlur stdDeviation="1.5"/>
<feColorMatrix type="matrix" values="0 0 0 0 0 0 0 0 0 0 0 0 0 0 0 0 0 0 0.35 0"/>
<feBlend mode="normal" in2="BackgroundImageFix" result="effect1_dropShadow_1_3544"/>
<feBlend mode="normal" in="SourceGraphic" in2="effect1_dropShadow_1_3544" result="shape"/>
</filter>
<radialGradient id="paint0_angular_1_3544" cx="0" cy="0" r="1" gradientUnits="userSpaceOnUse" gradientTransform="translate(158 150) rotate(90) scale(50)">
<stop stop-color="#ABF5FF"/>
<stop offset="1" stop-color="#0086E6"/>
</radialGradient>
<radialGradient id="paint1_angular_1_3544" cx="0" cy="0" r="1" gradientUnits="userSpaceOnUse" gradientTransform="translate(158 150) rotate(90) scale(50 149)">
<stop stop-color="#ABF5FF"/>
<stop offset="1" stop-color="#0086E6"/>
</radialGradient>
</defs>
</svg>
