<svg width="404" height="404" viewBox="0 0 404 404" fill="none" xmlns="http://www.w3.org/2000/svg">
<g filter="url(#filter0_d_1_19735)">
<rect width="400" height="400" transform="translate(2 2)" fill="white"/>
<rect x="302" y="272" width="50" height="80" rx="10" fill="#FFD600" stroke="#48FFA7" stroke-width="5"/>
<path d="M152 202V152L232 169.442L152 202Z" fill="#71BBFF" stroke="#D2A5FF" stroke-width="5"/>
<circle cx="122" cy="122" r="30" fill="#FFAA7A" stroke="#FFD600" stroke-width="5"/>
<circle cx="192" cy="177" r="2" fill="white" fill-opacity="0.5"/>
<circle cx="327" cy="312" r="2" fill="white" fill-opacity="0.5"/>
<path d="M120.25 118.402V116C120.25 115.034 121.034 114.25 122 114.25C122.966 114.25 123.75 115.034 123.75 116V118.402C124.554 118.794 125.206 119.446 125.598 120.25H128C128.966 120.25 129.75 121.034 129.75 122C129.75 122.966 128.966 123.75 128 123.75H125.598C125.206 124.554 124.554 125.206 123.75 125.598V128C123.75 128.966 122.966 129.75 122 129.75C121.034 129.75 120.25 128.966 120.25 128V125.598C119.446 125.206 118.794 124.554 118.402 123.75H116C115.034 123.75 114.25 122.966 114.25 122C114.25 121.034 115.034 120.25 116 120.25H118.402C118.794 119.446 119.446 118.794 120.25 118.402Z" fill="white"/>
<path fill-rule="evenodd" clip-rule="evenodd" d="M122 115.25C122.414 115.25 122.75 115.586 122.75 116V119.095C123.804 119.366 124.634 120.196 124.905 121.25H128C128.414 121.25 128.75 121.586 128.75 122C128.75 122.414 128.414 122.75 128 122.75H124.905C124.634 123.804 123.804 124.634 122.75 124.905V128C122.75 128.414 122.414 128.75 122 128.75C121.586 128.75 121.25 128.414 121.25 128V124.905C120.196 124.634 119.366 123.804 119.095 122.75H116C115.586 122.75 115.25 122.414 115.25 122C115.25 121.586 115.586 121.25 116 121.25H119.095C119.366 120.196 120.196 119.366 121.25 119.095V116C121.25 115.586 121.586 115.25 122 115.25ZM123.5 122C123.5 122.828 122.828 123.5 122 123.5C121.172 123.5 120.5 122.828 120.5 122C120.5 121.172 121.172 120.5 122 120.5C122.828 120.5 123.5 121.172 123.5 122Z" fill="#1C6EE8"/>
<rect x="92" y="92" width="60" height="60" stroke="#1C6EE8"/>
<g filter="url(#filter1_d_1_19735)">
<rect x="88" y="88" width="8" height="8" fill="white"/>
<rect x="88.5" y="88.5" width="7" height="7" stroke="#1C6EE8"/>
</g>
<g filter="url(#filter2_d_1_19735)">
<rect x="88" y="148" width="8" height="8" fill="white"/>
<rect x="88.5" y="148.5" width="7" height="7" stroke="#1C6EE8"/>
</g>
<g filter="url(#filter3_d_1_19735)">
<rect x="148" y="88" width="8" height="8" fill="white"/>
<rect x="148.5" y="88.5" width="7" height="7" stroke="#1C6EE8"/>
</g>
<g filter="url(#filter4_d_1_19735)">
<rect x="148" y="148" width="8" height="8" fill="white"/>
<rect x="148.5" y="148.5" width="7" height="7" stroke="#1C6EE8"/>
</g>
<g filter="url(#filter5_d_1_19735)">
<path fill-rule="evenodd" clip-rule="evenodd" d="M132 138V149L134.909 146.182L135.066 146.045H140L132 138Z" fill="black"/>
<path fill-rule="evenodd" clip-rule="evenodd" d="M131 135.576L142.405 147.046H135.455L131 151.361V135.576ZM135.066 146.046H140L132 138V149L134.909 146.182L135.066 146.046Z" fill="white"/>
</g>
<path d="M15.321 21H14.196L16.2443 15.1818H17.5455L19.5966 21H18.4716L16.9176 16.375H16.8722L15.321 21ZM15.358 18.7188H18.4261V19.5653H15.358V18.7188ZM22.2561 21.0852C21.8205 21.0852 21.4464 20.9896 21.1339 20.7983C20.8233 20.607 20.5837 20.3428 20.4152 20.0057C20.2485 19.6667 20.1652 19.2765 20.1652 18.8352C20.1652 18.392 20.2504 18.0009 20.4208 17.6619C20.5913 17.321 20.8318 17.0559 21.1424 16.8665C21.4549 16.6752 21.8243 16.5795 22.2504 16.5795C22.6046 16.5795 22.918 16.6449 23.1907 16.7756C23.4653 16.9044 23.6841 17.0871 23.847 17.3239C24.0099 17.5587 24.1027 17.8333 24.1254 18.1477H23.1424C23.1027 17.9375 23.008 17.7623 22.8583 17.6222C22.7106 17.4801 22.5127 17.4091 22.2646 17.4091C22.0544 17.4091 21.8697 17.4659 21.7106 17.5795C21.5515 17.6913 21.4275 17.8523 21.3385 18.0625C21.2513 18.2727 21.2078 18.5246 21.2078 18.8182C21.2078 19.1155 21.2513 19.3712 21.3385 19.5852C21.4256 19.7973 21.5477 19.9612 21.7049 20.0767C21.864 20.1903 22.0506 20.2472 22.2646 20.2472C22.4161 20.2472 22.5515 20.2187 22.6708 20.1619C22.7921 20.1032 22.8934 20.0189 22.9748 19.9091C23.0563 19.7992 23.1121 19.6657 23.1424 19.5085H24.1254C24.1008 19.8172 24.0099 20.0909 23.8527 20.3295C23.6955 20.5663 23.4814 20.7519 23.2106 20.8864C22.9398 21.0189 22.6216 21.0852 22.2561 21.0852ZM27.3168 16.6364V17.4318H24.8083V16.6364H27.3168ZM25.4276 15.5909H26.456V19.6875C26.456 19.8258 26.4769 19.9318 26.5185 20.0057C26.5621 20.0777 26.6189 20.1269 26.689 20.1534C26.7591 20.1799 26.8367 20.1932 26.9219 20.1932C26.9863 20.1932 27.045 20.1884 27.0981 20.179C27.153 20.1695 27.1947 20.161 27.2231 20.1534L27.3964 20.9574C27.3414 20.9763 27.2628 20.9972 27.1606 21.0199C27.0602 21.0426 26.9371 21.0559 26.7913 21.0597C26.5337 21.0672 26.3017 21.0284 26.0952 20.9432C25.8888 20.8561 25.725 20.7216 25.6038 20.5398C25.4844 20.358 25.4257 20.1307 25.4276 19.858V15.5909ZM28.3449 21V16.6364H29.3733V21H28.3449ZM28.862 16.017C28.6991 16.017 28.5589 15.9631 28.4415 15.8551C28.3241 15.7453 28.2654 15.6136 28.2654 15.4602C28.2654 15.3049 28.3241 15.1733 28.4415 15.0653C28.5589 14.9555 28.6991 14.9006 28.862 14.9006C29.0267 14.9006 29.1669 14.9555 29.2824 15.0653C29.3998 15.1733 29.4585 15.3049 29.4585 15.4602C29.4585 15.6136 29.3998 15.7453 29.2824 15.8551C29.1669 15.9631 29.0267 16.017 28.862 16.017ZM32.5023 21.0852C32.0761 21.0852 31.7068 20.9915 31.3943 20.804C31.0818 20.6165 30.8394 20.3542 30.667 20.017C30.4966 19.6799 30.4113 19.286 30.4113 18.8352C30.4113 18.3845 30.4966 17.9896 30.667 17.6506C30.8394 17.3116 31.0818 17.0483 31.3943 16.8608C31.7068 16.6733 32.0761 16.5795 32.5023 16.5795C32.9284 16.5795 33.2977 16.6733 33.6102 16.8608C33.9227 17.0483 34.1642 17.3116 34.3346 17.6506C34.507 17.9896 34.5932 18.3845 34.5932 18.8352C34.5932 19.286 34.507 19.6799 34.3346 20.017C34.1642 20.3542 33.9227 20.6165 33.6102 20.804C33.2977 20.9915 32.9284 21.0852 32.5023 21.0852ZM32.5079 20.2614C32.739 20.2614 32.9322 20.1979 33.0875 20.071C33.2428 19.9422 33.3583 19.7699 33.4341 19.554C33.5117 19.3381 33.5506 19.0975 33.5506 18.8324C33.5506 18.5653 33.5117 18.3239 33.4341 18.108C33.3583 17.8902 33.2428 17.7169 33.0875 17.5881C32.9322 17.4593 32.739 17.3949 32.5079 17.3949C32.2712 17.3949 32.0742 17.4593 31.917 17.5881C31.7617 17.7169 31.6452 17.8902 31.5676 18.108C31.4918 18.3239 31.454 18.5653 31.454 18.8324C31.454 19.0975 31.4918 19.3381 31.5676 19.554C31.6452 19.7699 31.7617 19.9422 31.917 20.071C32.0742 20.1979 32.2712 20.2614 32.5079 20.2614ZM36.6624 18.4432V21H35.634V16.6364H36.617V17.3778H36.6681C36.7685 17.1335 36.9285 16.9394 37.1482 16.7955C37.3698 16.6515 37.6435 16.5795 37.9693 16.5795C38.2704 16.5795 38.5327 16.6439 38.7562 16.7727C38.9816 16.9015 39.1558 17.0881 39.2789 17.3324C39.4039 17.5767 39.4655 17.8731 39.4636 18.2216V21H38.4352V18.3807C38.4352 18.089 38.3594 17.8608 38.2079 17.696C38.0583 17.5312 37.8509 17.4489 37.5857 17.4489C37.4058 17.4489 37.2458 17.4886 37.1056 17.5682C36.9674 17.6458 36.8585 17.7585 36.7789 17.9062C36.7013 18.054 36.6624 18.233 36.6624 18.4432ZM42.8749 15.1818H44.1646L45.8919 19.3977H45.9601L47.6874 15.1818H48.9771V21H47.9658V17.0028H47.9118L46.3038 20.983H45.5482L43.9402 16.9943H43.8862V21H42.8749V15.1818ZM52.1508 21.0852C51.7247 21.0852 51.3554 20.9915 51.0429 20.804C50.7304 20.6165 50.4879 20.3542 50.3156 20.017C50.1451 19.6799 50.0599 19.286 50.0599 18.8352C50.0599 18.3845 50.1451 17.9896 50.3156 17.6506C50.4879 17.3116 50.7304 17.0483 51.0429 16.8608C51.3554 16.6733 51.7247 16.5795 52.1508 16.5795C52.577 16.5795 52.9463 16.6733 53.2588 16.8608C53.5713 17.0483 53.8128 17.3116 53.9832 17.6506C54.1556 17.9896 54.2417 18.3845 54.2417 18.8352C54.2417 19.286 54.1556 19.6799 53.9832 20.017C53.8128 20.3542 53.5713 20.6165 53.2588 20.804C52.9463 20.9915 52.577 21.0852 52.1508 21.0852ZM52.1565 20.2614C52.3876 20.2614 52.5807 20.1979 52.736 20.071C52.8914 19.9422 53.0069 19.7699 53.0826 19.554C53.1603 19.3381 53.1991 19.0975 53.1991 18.8324C53.1991 18.5653 53.1603 18.3239 53.0826 18.108C53.0069 17.8902 52.8914 17.7169 52.736 17.5881C52.5807 17.4593 52.3876 17.3949 52.1565 17.3949C51.9198 17.3949 51.7228 17.4593 51.5656 17.5881C51.4103 17.7169 51.2938 17.8902 51.2162 18.108C51.1404 18.3239 51.1025 18.5653 51.1025 18.8324C51.1025 19.0975 51.1404 19.3381 51.2162 19.554C51.2938 19.7699 51.4103 19.9422 51.5656 20.071C51.7228 20.1979 51.9198 20.2614 52.1565 20.2614ZM56.9019 21.0767C56.5591 21.0767 56.2523 20.9886 55.9815 20.8125C55.7106 20.6364 55.4966 20.3807 55.3394 20.0455C55.1822 19.7102 55.1036 19.303 55.1036 18.8239C55.1036 18.339 55.1832 17.9299 55.3423 17.5966C55.5032 17.2614 55.7201 17.0085 55.9928 16.8381C56.2656 16.6657 56.5695 16.5795 56.9048 16.5795C57.1604 16.5795 57.3707 16.6231 57.5354 16.7102C57.7002 16.7955 57.8309 16.8987 57.9275 17.0199C58.0241 17.1392 58.0989 17.2519 58.1519 17.358H58.1945V15.1818H59.2258V21H58.2144V20.3125H58.1519C58.0989 20.4186 58.0222 20.5312 57.9218 20.6506C57.8214 20.768 57.6888 20.8684 57.5241 20.9517C57.3593 21.035 57.1519 21.0767 56.9019 21.0767ZM57.1888 20.233C57.4067 20.233 57.5923 20.1742 57.7457 20.0568C57.8991 19.9375 58.0156 19.7718 58.0951 19.5597C58.1746 19.3475 58.2144 19.1004 58.2144 18.8182C58.2144 18.536 58.1746 18.2907 58.0951 18.0824C58.0174 17.8741 57.9019 17.7121 57.7485 17.5966C57.597 17.4811 57.4104 17.4233 57.1888 17.4233C56.9597 17.4233 56.7684 17.483 56.615 17.6023C56.4616 17.7216 56.346 17.8864 56.2684 18.0966C56.1907 18.3068 56.1519 18.5473 56.1519 18.8182C56.1519 19.0909 56.1907 19.3343 56.2684 19.5483C56.3479 19.7604 56.4644 19.928 56.6178 20.0511C56.7731 20.1723 56.9635 20.233 57.1888 20.233ZM62.4215 21.0852C61.984 21.0852 61.6061 20.9943 61.288 20.8125C60.9717 20.6288 60.7283 20.3693 60.5578 20.0341C60.3874 19.697 60.3022 19.3002 60.3022 18.8438C60.3022 18.3949 60.3874 18.0009 60.5578 17.6619C60.7302 17.321 60.9707 17.0559 61.2794 16.8665C61.5881 16.6752 61.9508 16.5795 62.3675 16.5795C62.6364 16.5795 62.8902 16.6231 63.1289 16.7102C63.3694 16.7955 63.5815 16.928 63.7652 17.108C63.9508 17.2879 64.0967 17.517 64.2027 17.7955C64.3088 18.072 64.3618 18.4015 64.3618 18.7841V19.0994H60.7851V18.4062H63.376C63.3741 18.2093 63.3315 18.0341 63.2482 17.8807C63.1648 17.7254 63.0484 17.6032 62.8988 17.5142C62.751 17.4252 62.5787 17.3807 62.3817 17.3807C62.1715 17.3807 61.9868 17.4318 61.8277 17.5341C61.6686 17.6345 61.5446 17.767 61.4556 17.9318C61.3684 18.0947 61.3239 18.2737 61.322 18.4688V19.0739C61.322 19.3277 61.3684 19.5455 61.4613 19.7273C61.5541 19.9072 61.6838 20.0455 61.8505 20.142C62.0171 20.2367 62.2122 20.2841 62.4357 20.2841C62.5853 20.2841 62.7207 20.2633 62.8419 20.2216C62.9631 20.178 63.0683 20.1146 63.1573 20.0312C63.2463 19.9479 63.3135 19.8447 63.359 19.7216L64.3192 19.8295C64.2586 20.0833 64.1431 20.3049 63.9726 20.4943C63.8041 20.6818 63.5881 20.8277 63.3249 20.9318C63.0616 21.0341 62.7605 21.0852 62.4215 21.0852ZM70.1971 17.6676V18.5142H67.5778V17.6676H70.1971ZM73.5878 21V20.2386L75.6077 18.2585C75.8009 18.0634 75.9618 17.8902 76.0906 17.7386C76.2194 17.5871 76.316 17.4403 76.3804 17.2983C76.4448 17.1562 76.477 17.0047 76.477 16.8438C76.477 16.66 76.4353 16.5028 76.352 16.3722C76.2687 16.2396 76.1541 16.1373 76.0083 16.0653C75.8624 15.9934 75.6967 15.9574 75.5111 15.9574C75.3198 15.9574 75.1522 15.9972 75.0083 16.0767C74.8643 16.1544 74.7526 16.2652 74.673 16.4091C74.5954 16.553 74.5565 16.7244 74.5565 16.9233H73.5537C73.5537 16.554 73.638 16.233 73.8065 15.9602C73.9751 15.6875 74.2071 15.4763 74.5026 15.3267C74.7999 15.1771 75.1408 15.1023 75.5253 15.1023C75.9154 15.1023 76.2583 15.1752 76.5537 15.321C76.8492 15.4669 77.0783 15.6667 77.2412 15.9205C77.406 16.1742 77.4884 16.464 77.4884 16.7898C77.4884 17.0076 77.4467 17.2216 77.3634 17.4318C77.28 17.642 77.1333 17.875 76.923 18.1307C76.7147 18.3864 76.4221 18.696 76.0452 19.0597L75.0423 20.0795V20.1193H77.5764V21H73.5878ZM82.1848 17.7898L81.2473 17.892C81.2208 17.7973 81.1744 17.7083 81.1081 17.625C81.0437 17.5417 80.9565 17.4744 80.8467 17.4233C80.7369 17.3722 80.6024 17.3466 80.4433 17.3466C80.2293 17.3466 80.0494 17.393 79.9035 17.4858C79.7596 17.5786 79.6886 17.6989 79.6905 17.8466C79.6886 17.9735 79.735 18.0767 79.8297 18.1562C79.9262 18.2358 80.0853 18.3011 80.3069 18.3523L81.0512 18.5114C81.4641 18.6004 81.7709 18.7415 81.9717 18.9347C82.1744 19.1278 82.2766 19.3807 82.2785 19.6932C82.2766 19.9678 82.1961 20.2102 82.037 20.4205C81.8798 20.6288 81.6611 20.7917 81.3808 20.9091C81.1005 21.0265 80.7785 21.0852 80.4149 21.0852C79.8808 21.0852 79.4509 20.9735 79.1251 20.75C78.7994 20.5246 78.6052 20.2112 78.5427 19.8097L79.5456 19.7131C79.591 19.91 79.6876 20.0587 79.8353 20.1591C79.9831 20.2595 80.1753 20.3097 80.412 20.3097C80.6564 20.3097 80.8524 20.2595 81.0001 20.1591C81.1497 20.0587 81.2245 19.9347 81.2245 19.7869C81.2245 19.6619 81.1762 19.5587 81.0797 19.4773C80.985 19.3958 80.8372 19.3333 80.6365 19.2898L79.8922 19.1335C79.4736 19.0464 79.1639 18.8996 78.9632 18.6932C78.7624 18.4848 78.663 18.2216 78.6649 17.9034C78.663 17.6345 78.7359 17.4015 78.8836 17.2045C79.0333 17.0057 79.2406 16.8523 79.5058 16.7443C79.7728 16.6345 80.0806 16.5795 80.4291 16.5795C80.9405 16.5795 81.3429 16.6884 81.6365 16.9062C81.9319 17.1241 82.1147 17.4186 82.1848 17.7898Z" fill="#FF9A9A"/>
</g>
<defs>
<filter id="filter0_d_1_19735" x="0" y="0" width="404" height="404" filterUnits="userSpaceOnUse" color-interpolation-filters="sRGB">
<feFlood flood-opacity="0" result="BackgroundImageFix"/>
<feColorMatrix in="SourceAlpha" type="matrix" values="0 0 0 0 0 0 0 0 0 0 0 0 0 0 0 0 0 0 127 0" result="hardAlpha"/>
<feOffset/>
<feGaussianBlur stdDeviation="1"/>
<feColorMatrix type="matrix" values="0 0 0 0 0 0 0 0 0 0 0 0 0 0 0 0 0 0 0.3 0"/>
<feBlend mode="normal" in2="BackgroundImageFix" result="effect1_dropShadow_1_19735"/>
<feBlend mode="normal" in="SourceGraphic" in2="effect1_dropShadow_1_19735" result="shape"/>
</filter>
<filter id="filter1_d_1_19735" x="84" y="86" width="16" height="16" filterUnits="userSpaceOnUse" color-interpolation-filters="sRGB">
<feFlood flood-opacity="0" result="BackgroundImageFix"/>
<feColorMatrix in="SourceAlpha" type="matrix" values="0 0 0 0 0 0 0 0 0 0 0 0 0 0 0 0 0 0 127 0" result="hardAlpha"/>
<feOffset dy="2"/>
<feGaussianBlur stdDeviation="2"/>
<feColorMatrix type="matrix" values="0 0 0 0 0 0 0 0 0 0 0 0 0 0 0 0 0 0 0.45 0"/>
<feBlend mode="normal" in2="BackgroundImageFix" result="effect1_dropShadow_1_19735"/>
<feBlend mode="normal" in="SourceGraphic" in2="effect1_dropShadow_1_19735" result="shape"/>
</filter>
<filter id="filter2_d_1_19735" x="84" y="146" width="16" height="16" filterUnits="userSpaceOnUse" color-interpolation-filters="sRGB">
<feFlood flood-opacity="0" result="BackgroundImageFix"/>
<feColorMatrix in="SourceAlpha" type="matrix" values="0 0 0 0 0 0 0 0 0 0 0 0 0 0 0 0 0 0 127 0" result="hardAlpha"/>
<feOffset dy="2"/>
<feGaussianBlur stdDeviation="2"/>
<feColorMatrix type="matrix" values="0 0 0 0 0 0 0 0 0 0 0 0 0 0 0 0 0 0 0.45 0"/>
<feBlend mode="normal" in2="BackgroundImageFix" result="effect1_dropShadow_1_19735"/>
<feBlend mode="normal" in="SourceGraphic" in2="effect1_dropShadow_1_19735" result="shape"/>
</filter>
<filter id="filter3_d_1_19735" x="144" y="86" width="16" height="16" filterUnits="userSpaceOnUse" color-interpolation-filters="sRGB">
<feFlood flood-opacity="0" result="BackgroundImageFix"/>
<feColorMatrix in="SourceAlpha" type="matrix" values="0 0 0 0 0 0 0 0 0 0 0 0 0 0 0 0 0 0 127 0" result="hardAlpha"/>
<feOffset dy="2"/>
<feGaussianBlur stdDeviation="2"/>
<feColorMatrix type="matrix" values="0 0 0 0 0 0 0 0 0 0 0 0 0 0 0 0 0 0 0.45 0"/>
<feBlend mode="normal" in2="BackgroundImageFix" result="effect1_dropShadow_1_19735"/>
<feBlend mode="normal" in="SourceGraphic" in2="effect1_dropShadow_1_19735" result="shape"/>
</filter>
<filter id="filter4_d_1_19735" x="144" y="146" width="16" height="16" filterUnits="userSpaceOnUse" color-interpolation-filters="sRGB">
<feFlood flood-opacity="0" result="BackgroundImageFix"/>
<feColorMatrix in="SourceAlpha" type="matrix" values="0 0 0 0 0 0 0 0 0 0 0 0 0 0 0 0 0 0 127 0" result="hardAlpha"/>
<feOffset dy="2"/>
<feGaussianBlur stdDeviation="2"/>
<feColorMatrix type="matrix" values="0 0 0 0 0 0 0 0 0 0 0 0 0 0 0 0 0 0 0.45 0"/>
<feBlend mode="normal" in2="BackgroundImageFix" result="effect1_dropShadow_1_19735"/>
<feBlend mode="normal" in="SourceGraphic" in2="effect1_dropShadow_1_19735" result="shape"/>
</filter>
<filter id="filter5_d_1_19735" x="113" y="120" width="38" height="38" filterUnits="userSpaceOnUse" color-interpolation-filters="sRGB">
<feFlood flood-opacity="0" result="BackgroundImageFix"/>
<feColorMatrix in="SourceAlpha" type="matrix" values="0 0 0 0 0 0 0 0 0 0 0 0 0 0 0 0 0 0 127 0" result="hardAlpha"/>
<feOffset dy="1"/>
<feGaussianBlur stdDeviation="1.5"/>
<feColorMatrix type="matrix" values="0 0 0 0 0 0 0 0 0 0 0 0 0 0 0 0 0 0 0.35 0"/>
<feBlend mode="normal" in2="BackgroundImageFix" result="effect1_dropShadow_1_19735"/>
<feBlend mode="normal" in="SourceGraphic" in2="effect1_dropShadow_1_19735" result="shape"/>
</filter>
</defs>
</svg>
