<svg width="324" height="300" viewBox="0 0 324 300" fill="none" xmlns="http://www.w3.org/2000/svg">
<rect width="300" height="300" transform="translate(8)" fill="#F5F5F5"/>
<circle opacity="0.4" cx="158" cy="150" r="50" fill="url(#paint0_angular_1_3688)"/>
<line x1="308.5" y1="-2.18557e-08" x2="308.5" y2="300" stroke="#FF0000"/>
<ellipse cx="108" cy="150" rx="100" ry="50" fill="url(#paint1_angular_1_3688)" stroke="#1C6EE8"/>
<rect x="8" y="100" width="200" height="100" stroke="#1C6EE8"/>
<g filter="url(#filter0_d_1_3688)">
<rect x="4" y="96" width="8" height="8" fill="white"/>
<rect x="4.5" y="96.5" width="7" height="7" stroke="#1C6EE8"/>
</g>
<g filter="url(#filter1_d_1_3688)">
<rect x="4" y="196" width="8" height="8" fill="white"/>
<rect x="4.5" y="196.5" width="7" height="7" stroke="#1C6EE8"/>
</g>
<g filter="url(#filter2_d_1_3688)">
<rect x="204" y="96" width="8" height="8" fill="white"/>
<rect x="204.5" y="96.5" width="7" height="7" stroke="#1C6EE8"/>
</g>
<g filter="url(#filter3_d_1_3688)">
<rect x="204" y="196" width="8" height="8" fill="white"/>
<rect x="204.5" y="196.5" width="7" height="7" stroke="#1C6EE8"/>
</g>
<rect x="208" y="145" width="100" height="10" fill="#FF03A9" fill-opacity="0.7"/>
<path d="M232.52 154.125C232.02 154.125 231.578 153.999 231.195 153.746C230.813 153.491 230.513 153.132 230.297 152.668C230.081 152.202 229.973 151.651 229.973 151.016C229.973 150.385 230.081 149.839 230.297 149.375C230.513 148.911 230.814 148.553 231.199 148.301C231.585 148.048 232.03 147.922 232.535 147.922C232.926 147.922 233.234 147.987 233.461 148.117C233.69 148.245 233.865 148.391 233.984 148.555C234.107 148.716 234.202 148.849 234.27 148.953H234.348V146H235.27V154H234.379V153.078H234.27C234.202 153.187 234.105 153.326 233.98 153.492C233.855 153.656 233.677 153.803 233.445 153.934C233.214 154.061 232.905 154.125 232.52 154.125ZM232.645 153.297C233.014 153.297 233.327 153.201 233.582 153.008C233.837 152.812 234.031 152.543 234.164 152.199C234.297 151.853 234.363 151.453 234.363 151C234.363 150.552 234.298 150.16 234.168 149.824C234.038 149.486 233.845 149.223 233.59 149.035C233.335 148.845 233.02 148.75 232.645 148.75C232.254 148.75 231.928 148.85 231.668 149.051C231.41 149.249 231.216 149.518 231.086 149.859C230.958 150.198 230.895 150.578 230.895 151C230.895 151.427 230.96 151.815 231.09 152.164C231.223 152.51 231.418 152.786 231.676 152.992C231.936 153.195 232.259 153.297 232.645 153.297ZM237.086 154V148H237.977V148.906H238.039C238.148 148.609 238.346 148.368 238.633 148.184C238.919 147.999 239.242 147.906 239.602 147.906C239.669 147.906 239.754 147.908 239.855 147.91C239.957 147.913 240.034 147.917 240.086 147.922V148.859C240.055 148.852 239.983 148.84 239.871 148.824C239.762 148.806 239.646 148.797 239.523 148.797C239.232 148.797 238.971 148.858 238.742 148.98C238.516 149.1 238.336 149.267 238.203 149.48C238.073 149.691 238.008 149.932 238.008 150.203V154H237.086ZM242.944 154.141C242.564 154.141 242.219 154.069 241.909 153.926C241.599 153.78 241.353 153.57 241.171 153.297C240.989 153.021 240.897 152.687 240.897 152.297C240.897 151.953 240.965 151.674 241.101 151.461C241.236 151.245 241.417 151.076 241.644 150.953C241.87 150.831 242.12 150.74 242.394 150.68C242.67 150.617 242.947 150.568 243.226 150.531C243.59 150.484 243.886 150.449 244.112 150.426C244.341 150.4 244.508 150.357 244.612 150.297C244.719 150.237 244.772 150.133 244.772 149.984V149.953C244.772 149.568 244.667 149.268 244.456 149.055C244.248 148.841 243.931 148.734 243.507 148.734C243.067 148.734 242.722 148.831 242.472 149.023C242.222 149.216 242.046 149.422 241.944 149.641L241.069 149.328C241.226 148.964 241.434 148.68 241.694 148.477C241.957 148.271 242.244 148.128 242.554 148.047C242.866 147.964 243.174 147.922 243.476 147.922C243.668 147.922 243.89 147.945 244.14 147.992C244.392 148.036 244.636 148.129 244.87 148.27C245.107 148.41 245.304 148.622 245.46 148.906C245.616 149.19 245.694 149.57 245.694 150.047V154H244.772V153.187H244.726C244.663 153.318 244.559 153.457 244.413 153.605C244.267 153.754 244.073 153.88 243.831 153.984C243.589 154.089 243.293 154.141 242.944 154.141ZM243.085 153.312C243.45 153.312 243.757 153.241 244.007 153.098C244.259 152.954 244.45 152.77 244.577 152.543C244.707 152.316 244.772 152.078 244.772 151.828V150.984C244.733 151.031 244.647 151.074 244.515 151.113C244.384 151.15 244.233 151.182 244.062 151.211C243.892 151.237 243.727 151.26 243.565 151.281C243.407 151.299 243.278 151.315 243.179 151.328C242.939 151.359 242.715 151.41 242.507 151.48C242.301 151.548 242.134 151.651 242.007 151.789C241.882 151.924 241.819 152.109 241.819 152.344C241.819 152.664 241.938 152.906 242.175 153.07C242.414 153.232 242.718 153.312 243.085 153.312ZM249.799 156.375C249.354 156.375 248.971 156.318 248.65 156.203C248.33 156.091 248.063 155.943 247.85 155.758C247.639 155.576 247.471 155.38 247.346 155.172L248.08 154.656C248.163 154.766 248.269 154.891 248.396 155.031C248.524 155.174 248.699 155.298 248.92 155.402C249.144 155.509 249.437 155.562 249.799 155.562C250.283 155.562 250.683 155.445 250.998 155.211C251.313 154.977 251.471 154.609 251.471 154.109V152.891H251.393C251.325 153 251.229 153.135 251.104 153.297C250.981 153.456 250.804 153.598 250.572 153.723C250.343 153.845 250.033 153.906 249.643 153.906C249.158 153.906 248.723 153.792 248.338 153.563C247.955 153.333 247.652 153 247.428 152.562C247.206 152.125 247.096 151.594 247.096 150.969C247.096 150.354 247.204 149.819 247.42 149.363C247.636 148.905 247.937 148.551 248.322 148.301C248.708 148.048 249.153 147.922 249.658 147.922C250.049 147.922 250.359 147.987 250.588 148.117C250.82 148.245 250.997 148.391 251.119 148.555C251.244 148.716 251.34 148.849 251.408 148.953H251.502V148H252.393V154.172C252.393 154.688 252.275 155.107 252.041 155.43C251.809 155.755 251.497 155.993 251.104 156.145C250.713 156.298 250.278 156.375 249.799 156.375ZM249.768 153.078C250.137 153.078 250.45 152.993 250.705 152.824C250.96 152.655 251.154 152.411 251.287 152.094C251.42 151.776 251.486 151.396 251.486 150.953C251.486 150.521 251.421 150.139 251.291 149.809C251.161 149.478 250.968 149.219 250.713 149.031C250.458 148.844 250.143 148.75 249.768 148.75C249.377 148.75 249.051 148.849 248.791 149.047C248.533 149.245 248.339 149.51 248.209 149.844C248.081 150.177 248.018 150.547 248.018 150.953C248.018 151.37 248.083 151.738 248.213 152.059C248.346 152.376 248.541 152.626 248.799 152.809C249.059 152.988 249.382 153.078 249.768 153.078ZM259.971 146V154H259.002V147.016H258.955L257.002 148.312V147.328L259.002 146H259.971ZM264.881 154.109C264.292 154.109 263.791 153.949 263.377 153.629C262.963 153.306 262.646 152.839 262.428 152.227C262.209 151.612 262.1 150.87 262.1 150C262.1 149.135 262.209 148.397 262.428 147.785C262.649 147.171 262.967 146.702 263.381 146.379C263.798 146.053 264.298 145.891 264.881 145.891C265.464 145.891 265.963 146.053 266.377 146.379C266.794 146.702 267.111 147.171 267.33 147.785C267.551 148.397 267.662 149.135 267.662 150C267.662 150.87 267.553 151.612 267.334 152.227C267.115 152.839 266.799 153.306 266.385 153.629C265.971 153.949 265.469 154.109 264.881 154.109ZM264.881 153.25C265.464 153.25 265.917 152.969 266.24 152.406C266.563 151.844 266.725 151.042 266.725 150C266.725 149.307 266.65 148.717 266.502 148.23C266.356 147.743 266.145 147.372 265.869 147.117C265.596 146.862 265.266 146.734 264.881 146.734C264.303 146.734 263.851 147.02 263.525 147.59C263.2 148.158 263.037 148.961 263.037 150C263.037 150.693 263.11 151.281 263.256 151.766C263.402 152.25 263.611 152.618 263.885 152.871C264.161 153.124 264.493 153.25 264.881 153.25ZM271.756 154.109C271.167 154.109 270.666 153.949 270.252 153.629C269.838 153.306 269.521 152.839 269.303 152.227C269.084 151.612 268.975 150.87 268.975 150C268.975 149.135 269.084 148.397 269.303 147.785C269.524 147.171 269.842 146.702 270.256 146.379C270.673 146.053 271.173 145.891 271.756 145.891C272.339 145.891 272.838 146.053 273.252 146.379C273.669 146.702 273.986 147.171 274.205 147.785C274.426 148.397 274.537 149.135 274.537 150C274.537 150.87 274.428 151.612 274.209 152.227C273.99 152.839 273.674 153.306 273.26 153.629C272.846 153.949 272.344 154.109 271.756 154.109ZM271.756 153.25C272.339 153.25 272.792 152.969 273.115 152.406C273.438 151.844 273.6 151.042 273.6 150C273.6 149.307 273.525 148.717 273.377 148.23C273.231 147.743 273.02 147.372 272.744 147.117C272.471 146.862 272.141 146.734 271.756 146.734C271.178 146.734 270.726 147.02 270.4 147.59C270.075 148.158 269.912 148.961 269.912 150C269.912 150.693 269.985 151.281 270.131 151.766C270.277 152.25 270.486 152.618 270.76 152.871C271.036 153.124 271.368 153.25 271.756 153.25ZM276.037 156.25V148H276.928V148.953H277.037C277.105 148.849 277.199 148.716 277.318 148.555C277.441 148.391 277.615 148.245 277.842 148.117C278.071 147.987 278.381 147.922 278.771 147.922C279.277 147.922 279.722 148.048 280.107 148.301C280.493 148.553 280.794 148.911 281.01 149.375C281.226 149.839 281.334 150.385 281.334 151.016C281.334 151.651 281.226 152.202 281.01 152.668C280.794 153.132 280.494 153.491 280.111 153.746C279.729 153.999 279.287 154.125 278.787 154.125C278.402 154.125 278.093 154.061 277.861 153.934C277.63 153.803 277.451 153.656 277.326 153.492C277.201 153.326 277.105 153.187 277.037 153.078H276.959V156.25H276.037ZM276.943 151C276.943 151.453 277.01 151.853 277.143 152.199C277.275 152.543 277.469 152.812 277.725 153.008C277.98 153.201 278.292 153.297 278.662 153.297C279.048 153.297 279.369 153.195 279.627 152.992C279.887 152.786 280.083 152.51 280.213 152.164C280.346 151.815 280.412 151.427 280.412 151C280.412 150.578 280.347 150.198 280.217 149.859C280.089 149.518 279.895 149.249 279.635 149.051C279.377 148.85 279.053 148.75 278.662 148.75C278.287 148.75 277.972 148.845 277.717 149.035C277.462 149.223 277.269 149.486 277.139 149.824C277.008 150.16 276.943 150.552 276.943 151ZM283.181 148L284.618 150.453L286.056 148H287.118L285.181 151L287.118 154H286.056L284.618 151.672L283.181 154H282.118L284.024 151L282.118 148H283.181Z" fill="white"/>
<path d="M206.25 146.402V144C206.25 143.034 207.034 142.25 208 142.25C208.966 142.25 209.75 143.034 209.75 144V146.402C210.554 146.794 211.206 147.446 211.598 148.25H214C214.966 148.25 215.75 149.034 215.75 150C215.75 150.966 214.966 151.75 214 151.75H211.598C211.206 152.554 210.554 153.206 209.75 153.598V156C209.75 156.966 208.966 157.75 208 157.75C207.034 157.75 206.25 156.966 206.25 156V153.598C205.446 153.206 204.794 152.554 204.402 151.75H202C201.034 151.75 200.25 150.966 200.25 150C200.25 149.034 201.034 148.25 202 148.25H204.402C204.794 147.446 205.446 146.794 206.25 146.402Z" fill="white"/>
<path fill-rule="evenodd" clip-rule="evenodd" d="M208 143.25C208.414 143.25 208.75 143.586 208.75 144V147.095C209.804 147.366 210.634 148.196 210.905 149.25H214C214.414 149.25 214.75 149.586 214.75 150C214.75 150.414 214.414 150.75 214 150.75H210.905C210.634 151.804 209.804 152.634 208.75 152.905V156C208.75 156.414 208.414 156.75 208 156.75C207.586 156.75 207.25 156.414 207.25 156V152.905C206.196 152.634 205.366 151.804 205.095 150.75H202C201.586 150.75 201.25 150.414 201.25 150C201.25 149.586 201.586 149.25 202 149.25H205.095C205.366 148.196 206.196 147.366 207.25 147.095V144C207.25 143.586 207.586 143.25 208 143.25ZM209.5 150C209.5 150.828 208.828 151.5 208 151.5C207.172 151.5 206.5 150.828 206.5 150C206.5 149.172 207.172 148.5 208 148.5C208.828 148.5 209.5 149.172 209.5 150Z" fill="#1C6EE8"/>
<g filter="url(#filter4_d_1_3688)">
<path d="M304.528 152.476L303.553 151.501L305.093 151.501C305.244 151.795 305.443 152.07 305.688 152.316C306.967 153.594 309.039 153.594 310.317 152.316C310.563 152.07 310.761 151.795 310.912 151.501L312.452 151.501L311.478 152.476L313.599 154.598L318.195 150.001L313.599 145.405L311.478 147.527L312.452 148.501L310.912 148.501C310.761 148.208 310.563 147.933 310.317 147.687C309.039 146.409 306.967 146.409 305.688 147.687C305.443 147.933 305.244 148.208 305.093 148.501L303.553 148.501L304.528 147.527L302.406 145.405L297.81 150.001L302.406 154.598L304.528 152.476Z" fill="white"/>
<path fill-rule="evenodd" clip-rule="evenodd" d="M301.139 150.501L303.113 152.476L302.406 153.183L299.224 150.001L302.406 146.819L303.113 147.526L301.139 149.501L305.878 149.501C305.968 149.119 306.162 148.757 306.46 148.459C307.312 147.607 308.693 147.607 309.545 148.459C309.843 148.757 310.037 149.119 310.127 149.501L314.866 149.501L312.892 147.526L313.599 146.819L316.781 150.001L313.599 153.183L312.892 152.476L314.867 150.501L310.127 150.501C310.037 150.883 309.843 151.246 309.545 151.544C308.693 152.396 307.312 152.396 306.46 151.544C306.162 151.246 305.968 150.883 305.878 150.501L301.139 150.501ZM307.231 150.773C307.657 151.199 308.348 151.199 308.774 150.773C309.2 150.347 309.2 149.656 308.774 149.23C308.348 148.804 307.657 148.804 307.231 149.23C306.805 149.656 306.805 150.347 307.231 150.773Z" fill="black"/>
</g>
<mask id="path-19-outside-1_1_3688" maskUnits="userSpaceOnUse" x="181" y="164" width="39" height="12" fill="black">
<rect fill="white" x="181" y="164" width="39" height="12"/>
<path d="M182.357 174V165.273H185.63C186.3 165.273 186.863 165.389 187.317 165.622C187.775 165.855 188.12 166.182 188.353 166.602C188.588 167.02 188.706 167.507 188.706 168.064C188.706 168.624 188.587 169.109 188.348 169.521C188.113 169.93 187.765 170.247 187.304 170.472C186.844 170.693 186.279 170.804 185.608 170.804H183.277V169.491H185.395C185.787 169.491 186.108 169.437 186.358 169.33C186.608 169.219 186.793 169.058 186.912 168.848C187.034 168.635 187.096 168.374 187.096 168.064C187.096 167.754 187.034 167.49 186.912 167.271C186.79 167.05 186.604 166.882 186.354 166.768C186.104 166.652 185.782 166.594 185.387 166.594H183.938V174H182.357ZM186.865 170.045L189.026 174H187.262L185.14 170.045H186.865ZM191.743 165.273V174H190.162V165.273H191.743ZM199.301 168.06C199.23 167.83 199.132 167.624 199.007 167.442C198.885 167.257 198.737 167.099 198.564 166.969C198.393 166.838 198.197 166.74 197.976 166.675C197.754 166.607 197.513 166.572 197.251 166.572C196.783 166.572 196.365 166.69 195.999 166.926C195.632 167.162 195.344 167.509 195.134 167.966C194.926 168.42 194.822 168.974 194.822 169.628C194.822 170.287 194.926 170.845 195.134 171.303C195.341 171.76 195.629 172.108 195.999 172.347C196.368 172.582 196.797 172.7 197.286 172.7C197.729 172.7 198.112 172.615 198.436 172.445C198.763 172.274 199.014 172.033 199.19 171.72C199.366 171.405 199.455 171.036 199.455 170.612L199.812 170.668H197.443V169.432H200.984V170.48C200.984 171.227 200.825 171.874 200.507 172.419C200.189 172.964 199.751 173.385 199.195 173.68C198.638 173.973 197.999 174.119 197.277 174.119C196.473 174.119 195.767 173.939 195.159 173.578C194.554 173.214 194.081 172.699 193.74 172.031C193.402 171.361 193.233 170.565 193.233 169.645C193.233 168.94 193.332 168.311 193.531 167.757C193.733 167.203 194.014 166.733 194.375 166.347C194.736 165.957 195.159 165.662 195.645 165.46C196.131 165.256 196.659 165.153 197.23 165.153C197.713 165.153 198.163 165.224 198.581 165.366C198.999 165.506 199.369 165.705 199.693 165.963C200.02 166.222 200.288 166.528 200.499 166.884C200.709 167.239 200.847 167.631 200.912 168.06H199.301ZM202.513 174V165.273H204.094V168.967H208.138V165.273H209.723V174H208.138V170.293H204.094V174H202.513ZM211.059 166.598V165.273H218.022V166.598H215.325V174H213.757V166.598H211.059Z"/>
</mask>
<path d="M182.357 174V165.273H185.63C186.3 165.273 186.863 165.389 187.317 165.622C187.775 165.855 188.12 166.182 188.353 166.602C188.588 167.02 188.706 167.507 188.706 168.064C188.706 168.624 188.587 169.109 188.348 169.521C188.113 169.93 187.765 170.247 187.304 170.472C186.844 170.693 186.279 170.804 185.608 170.804H183.277V169.491H185.395C185.787 169.491 186.108 169.437 186.358 169.33C186.608 169.219 186.793 169.058 186.912 168.848C187.034 168.635 187.096 168.374 187.096 168.064C187.096 167.754 187.034 167.49 186.912 167.271C186.79 167.05 186.604 166.882 186.354 166.768C186.104 166.652 185.782 166.594 185.387 166.594H183.938V174H182.357ZM186.865 170.045L189.026 174H187.262L185.14 170.045H186.865ZM191.743 165.273V174H190.162V165.273H191.743ZM199.301 168.06C199.23 167.83 199.132 167.624 199.007 167.442C198.885 167.257 198.737 167.099 198.564 166.969C198.393 166.838 198.197 166.74 197.976 166.675C197.754 166.607 197.513 166.572 197.251 166.572C196.783 166.572 196.365 166.69 195.999 166.926C195.632 167.162 195.344 167.509 195.134 167.966C194.926 168.42 194.822 168.974 194.822 169.628C194.822 170.287 194.926 170.845 195.134 171.303C195.341 171.76 195.629 172.108 195.999 172.347C196.368 172.582 196.797 172.7 197.286 172.7C197.729 172.7 198.112 172.615 198.436 172.445C198.763 172.274 199.014 172.033 199.19 171.72C199.366 171.405 199.455 171.036 199.455 170.612L199.812 170.668H197.443V169.432H200.984V170.48C200.984 171.227 200.825 171.874 200.507 172.419C200.189 172.964 199.751 173.385 199.195 173.68C198.638 173.973 197.999 174.119 197.277 174.119C196.473 174.119 195.767 173.939 195.159 173.578C194.554 173.214 194.081 172.699 193.74 172.031C193.402 171.361 193.233 170.565 193.233 169.645C193.233 168.94 193.332 168.311 193.531 167.757C193.733 167.203 194.014 166.733 194.375 166.347C194.736 165.957 195.159 165.662 195.645 165.46C196.131 165.256 196.659 165.153 197.23 165.153C197.713 165.153 198.163 165.224 198.581 165.366C198.999 165.506 199.369 165.705 199.693 165.963C200.02 166.222 200.288 166.528 200.499 166.884C200.709 167.239 200.847 167.631 200.912 168.06H199.301ZM202.513 174V165.273H204.094V168.967H208.138V165.273H209.723V174H208.138V170.293H204.094V174H202.513ZM211.059 166.598V165.273H218.022V166.598H215.325V174H213.757V166.598H211.059Z" fill="#E3E3E3"/>
<path d="M182.357 174H181.357V175H182.357V174ZM182.357 165.273V164.273H181.357V165.273H182.357ZM187.317 165.622L186.861 166.512L186.863 166.513L187.317 165.622ZM188.353 166.602L187.478 167.087L187.482 167.094L188.353 166.602ZM188.348 169.521L187.483 169.02L187.482 169.022L188.348 169.521ZM187.304 170.472L187.738 171.373L187.743 171.37L187.304 170.472ZM183.277 170.804H182.277V171.804H183.277V170.804ZM183.277 169.491V168.491H182.277V169.491H183.277ZM186.358 169.33L186.755 170.248L186.763 170.244L186.358 169.33ZM186.912 168.848L186.045 168.351L186.043 168.354L186.912 168.848ZM186.912 167.271L186.037 167.754L186.039 167.759L186.912 167.271ZM186.354 166.768L185.932 167.675L185.94 167.679L186.354 166.768ZM183.938 166.594V165.594H182.938V166.594H183.938ZM183.938 174V175H184.938V174H183.938ZM186.865 170.045L187.743 169.566L187.459 169.045H186.865V170.045ZM189.026 174V175H190.712L189.903 173.521L189.026 174ZM187.262 174L186.381 174.473L186.663 175H187.262V174ZM185.14 170.045V169.045H183.468L184.258 170.518L185.14 170.045ZM183.357 174V165.273H181.357V174H183.357ZM182.357 166.273H185.63V164.273H182.357V166.273ZM185.63 166.273C186.189 166.273 186.585 166.37 186.861 166.512L187.773 164.732C187.14 164.408 186.411 164.273 185.63 164.273V166.273ZM186.863 166.513C187.156 166.662 187.348 166.853 187.478 167.087L189.227 166.118C188.891 165.511 188.393 165.048 187.771 164.731L186.863 166.513ZM187.482 167.094C187.62 167.339 187.706 167.651 187.706 168.064H189.706C189.706 167.363 189.557 166.701 189.223 166.111L187.482 167.094ZM187.706 168.064C187.706 168.479 187.619 168.785 187.483 169.02L189.214 170.023C189.555 169.433 189.706 168.768 189.706 168.064H187.706ZM187.482 169.022C187.354 169.243 187.163 169.428 186.866 169.573L187.743 171.37C188.366 171.066 188.871 170.617 189.215 170.021L187.482 169.022ZM186.871 169.571C186.581 169.71 186.174 169.804 185.608 169.804V171.804C186.384 171.804 187.107 171.676 187.738 171.373L186.871 169.571ZM185.608 169.804H183.277V171.804H185.608V169.804ZM184.277 170.804V169.491H182.277V170.804H184.277ZM183.277 170.491H185.395V168.491H183.277V170.491ZM185.395 170.491C185.868 170.491 186.337 170.428 186.755 170.248L185.962 168.411C185.879 168.447 185.706 168.491 185.395 168.491V170.491ZM186.763 170.244C187.183 170.058 187.543 169.762 187.782 169.342L186.043 168.354C186.04 168.36 186.036 168.364 186.028 168.371C186.019 168.379 185.998 168.396 185.953 168.415L186.763 170.244ZM187.78 169.345C188.009 168.946 188.096 168.503 188.096 168.064H186.096C186.096 168.244 186.06 168.324 186.045 168.351L187.78 169.345ZM188.096 168.064C188.096 167.623 188.008 167.183 187.785 166.784L186.039 167.759C186.061 167.797 186.096 167.885 186.096 168.064H188.096ZM187.788 166.789C187.553 166.362 187.196 166.053 186.768 165.858L185.94 167.679C186.012 167.711 186.027 167.737 186.037 167.754L187.788 166.789ZM186.776 165.862C186.35 165.663 185.869 165.594 185.387 165.594V167.594C185.694 167.594 185.858 167.641 185.932 167.675L186.776 165.862ZM185.387 165.594H183.938V167.594H185.387V165.594ZM182.938 166.594V174H184.938V166.594H182.938ZM183.938 173H182.357V175H183.938V173ZM185.988 170.525L188.148 174.479L189.903 173.521L187.743 169.566L185.988 170.525ZM189.026 173H187.262V175H189.026V173ZM188.143 173.527L186.021 169.573L184.258 170.518L186.381 174.473L188.143 173.527ZM185.14 171.045H186.865V169.045H185.14V171.045ZM191.743 165.273H192.743V164.273H191.743V165.273ZM191.743 174V175H192.743V174H191.743ZM190.162 174H189.162V175H190.162V174ZM190.162 165.273V164.273H189.162V165.273H190.162ZM190.743 165.273V174H192.743V165.273H190.743ZM191.743 173H190.162V175H191.743V173ZM191.162 174V165.273H189.162V174H191.162ZM190.162 166.273H191.743V164.273H190.162V166.273ZM199.301 168.06L198.346 168.355L198.563 169.06H199.301V168.06ZM199.007 167.442L198.173 167.993L198.178 168.001L198.183 168.008L199.007 167.442ZM198.564 166.969L197.955 167.762L197.962 167.767L198.564 166.969ZM197.976 166.675L197.682 167.631L197.693 167.634L197.976 166.675ZM195.999 166.926L196.54 167.767L196.54 167.767L195.999 166.926ZM195.134 167.966L194.225 167.548L194.224 167.551L195.134 167.966ZM195.134 171.303L194.223 171.716L194.223 171.716L195.134 171.303ZM195.999 172.347L195.456 173.187L195.46 173.189L195.999 172.347ZM198.436 172.445L197.974 171.558L197.97 171.56L198.436 172.445ZM199.19 171.72L200.061 172.211L200.063 172.208L199.19 171.72ZM199.455 170.612L199.607 169.624L198.455 169.446V170.612H199.455ZM199.812 170.668V171.668L199.965 169.679L199.812 170.668ZM197.443 170.668H196.443V171.668H197.443V170.668ZM197.443 169.432V168.432H196.443V169.432H197.443ZM200.984 169.432H201.984V168.432H200.984V169.432ZM200.507 172.419L201.371 172.923L201.371 172.923L200.507 172.419ZM199.195 173.68L199.66 174.566L199.663 174.564L199.195 173.68ZM195.159 173.578L194.644 174.435L194.649 174.438L195.159 173.578ZM193.74 172.031L192.847 172.481L192.849 172.486L193.74 172.031ZM193.531 167.757L192.592 167.415L192.59 167.419L193.531 167.757ZM194.375 166.347L195.106 167.029L195.108 167.026L194.375 166.347ZM195.645 165.46L196.028 166.384L196.033 166.382L195.645 165.46ZM198.581 165.366L198.259 166.313L198.265 166.315L198.581 165.366ZM199.693 165.963L199.069 166.745L199.073 166.747L199.693 165.963ZM200.499 166.884L201.359 166.374L201.359 166.374L200.499 166.884ZM200.912 168.06V169.06H202.076L201.901 167.909L200.912 168.06ZM200.257 167.765C200.159 167.447 200.018 167.148 199.831 166.875L198.183 168.008C198.246 168.099 198.302 168.212 198.346 168.355L200.257 167.765ZM199.841 166.89C199.658 166.612 199.432 166.371 199.166 166.17L197.962 167.767C198.043 167.828 198.112 167.902 198.173 167.993L199.841 166.89ZM199.172 166.175C198.897 165.964 198.589 165.813 198.259 165.716L197.693 167.634C197.806 167.667 197.89 167.712 197.955 167.762L199.172 166.175ZM198.27 165.719C197.942 165.618 197.6 165.572 197.251 165.572V167.572C197.426 167.572 197.567 167.595 197.682 167.63L198.27 165.719ZM197.251 165.572C196.606 165.572 195.998 165.738 195.457 166.085L196.54 167.767C196.732 167.643 196.959 167.572 197.251 167.572V165.572ZM195.457 166.085C194.907 166.439 194.502 166.945 194.225 167.548L196.042 168.384C196.185 168.072 196.357 167.884 196.54 167.767L195.457 166.085ZM194.224 167.551C193.942 168.169 193.822 168.873 193.822 169.628H195.822C195.822 169.075 195.911 168.672 196.043 168.381L194.224 167.551ZM193.822 169.628C193.822 170.387 193.941 171.095 194.223 171.716L196.044 170.89C195.911 170.596 195.822 170.187 195.822 169.628H193.822ZM194.223 171.716C194.498 172.322 194.903 172.83 195.456 173.187L196.541 171.507C196.355 171.386 196.184 171.198 196.044 170.89L194.223 171.716ZM195.46 173.189C196.009 173.539 196.629 173.7 197.286 173.7V171.7C196.965 171.7 196.727 171.625 196.537 171.504L195.46 173.189ZM197.286 173.7C197.857 173.7 198.407 173.59 198.902 173.33L197.97 171.56C197.817 171.64 197.6 171.7 197.286 171.7V173.7ZM198.899 173.331C199.392 173.074 199.788 172.697 200.061 172.211L198.319 171.229C198.241 171.368 198.134 171.475 197.974 171.558L198.899 173.331ZM200.063 172.208C200.336 171.72 200.455 171.177 200.455 170.612H198.455C198.455 170.894 198.397 171.09 198.317 171.233L200.063 172.208ZM199.302 171.6L199.66 171.656L199.965 169.679L199.607 169.624L199.302 171.6ZM199.812 169.668H197.443V171.668H199.812V169.668ZM198.443 170.668V169.432H196.443V170.668H198.443ZM197.443 170.432H200.984V168.432H197.443V170.432ZM199.984 169.432V170.48H201.984V169.432H199.984ZM199.984 170.48C199.984 171.083 199.857 171.549 199.643 171.915L201.371 172.923C201.793 172.199 201.984 171.372 201.984 170.48H199.984ZM199.643 171.915C199.419 172.3 199.118 172.589 198.726 172.797L199.663 174.564C200.385 174.181 200.959 173.629 201.371 172.923L199.643 171.915ZM198.729 172.795C198.336 173.002 197.861 173.119 197.277 173.119V175.119C198.137 175.119 198.94 174.944 199.66 174.566L198.729 172.795ZM197.277 173.119C196.627 173.119 196.103 172.975 195.669 172.718L194.649 174.438C195.431 174.903 196.319 175.119 197.277 175.119V173.119ZM195.674 172.721C195.239 172.46 194.892 172.088 194.631 171.576L192.849 172.486C193.27 173.309 193.868 173.969 194.644 174.435L195.674 172.721ZM194.633 171.581C194.379 171.078 194.233 170.444 194.233 169.645H192.233C192.233 170.687 192.425 171.643 192.847 172.481L194.633 171.581ZM194.233 169.645C194.233 169.033 194.319 168.522 194.472 168.095L192.59 167.419C192.345 168.101 192.233 168.847 192.233 169.645H194.233ZM194.471 168.099C194.632 167.657 194.847 167.306 195.106 167.029L193.644 165.664C193.182 166.159 192.834 166.749 192.592 167.415L194.471 168.099ZM195.108 167.026C195.372 166.742 195.677 166.53 196.028 166.384L195.261 164.537C194.642 164.794 194.099 165.173 193.642 165.667L195.108 167.026ZM196.033 166.382C196.386 166.233 196.781 166.153 197.23 166.153V164.153C196.537 164.153 195.875 164.278 195.257 164.539L196.033 166.382ZM197.23 166.153C197.614 166.153 197.954 166.21 198.259 166.313L198.903 164.42C198.372 164.239 197.812 164.153 197.23 164.153V166.153ZM198.265 166.315C198.578 166.42 198.843 166.564 199.069 166.745L200.317 165.182C199.896 164.845 199.419 164.592 198.897 164.418L198.265 166.315ZM199.073 166.747C199.304 166.93 199.491 167.144 199.638 167.393L201.359 166.374C201.086 165.912 200.736 165.513 200.314 165.179L199.073 166.747ZM199.638 167.393C199.78 167.632 199.876 167.901 199.923 168.21L201.901 167.909C201.817 167.36 201.638 166.845 201.359 166.374L199.638 167.393ZM200.912 167.06H199.301V169.06H200.912V167.06ZM202.513 174H201.513V175H202.513V174ZM202.513 165.273V164.273H201.513V165.273H202.513ZM204.094 165.273H205.094V164.273H204.094V165.273ZM204.094 168.967H203.094V169.967H204.094V168.967ZM208.138 168.967V169.967H209.138V168.967H208.138ZM208.138 165.273V164.273H207.138V165.273H208.138ZM209.723 165.273H210.723V164.273H209.723V165.273ZM209.723 174V175H210.723V174H209.723ZM208.138 174H207.138V175H208.138V174ZM208.138 170.293H209.138V169.293H208.138V170.293ZM204.094 170.293V169.293H203.094V170.293H204.094ZM204.094 174V175H205.094V174H204.094ZM203.513 174V165.273H201.513V174H203.513ZM202.513 166.273H204.094V164.273H202.513V166.273ZM203.094 165.273V168.967H205.094V165.273H203.094ZM204.094 169.967H208.138V167.967H204.094V169.967ZM209.138 168.967V165.273H207.138V168.967H209.138ZM208.138 166.273H209.723V164.273H208.138V166.273ZM208.723 165.273V174H210.723V165.273H208.723ZM209.723 173H208.138V175H209.723V173ZM209.138 174V170.293H207.138V174H209.138ZM208.138 169.293H204.094V171.293H208.138V169.293ZM203.094 170.293V174H205.094V170.293H203.094ZM204.094 173H202.513V175H204.094V173ZM211.059 166.598H210.059V167.598H211.059V166.598ZM211.059 165.273V164.273H210.059V165.273H211.059ZM218.022 165.273H219.022V164.273H218.022V165.273ZM218.022 166.598V167.598H219.022V166.598H218.022ZM215.325 166.598V165.598H214.325V166.598H215.325ZM215.325 174V175H216.325V174H215.325ZM213.757 174H212.757V175H213.757V174ZM213.757 166.598H214.757V165.598H213.757V166.598ZM212.059 166.598V165.273H210.059V166.598H212.059ZM211.059 166.273H218.022V164.273H211.059V166.273ZM217.022 165.273V166.598H219.022V165.273H217.022ZM218.022 165.598H215.325V167.598H218.022V165.598ZM214.325 166.598V174H216.325V166.598H214.325ZM215.325 173H213.757V175H215.325V173ZM214.757 174V166.598H212.757V174H214.757ZM213.757 165.598H211.059V167.598H213.757V165.598Z" fill="#555555" mask="url(#path-19-outside-1_1_3688)"/>
<defs>
<filter id="filter0_d_1_3688" x="0" y="94" width="16" height="16" filterUnits="userSpaceOnUse" color-interpolation-filters="sRGB">
<feFlood flood-opacity="0" result="BackgroundImageFix"/>
<feColorMatrix in="SourceAlpha" type="matrix" values="0 0 0 0 0 0 0 0 0 0 0 0 0 0 0 0 0 0 127 0" result="hardAlpha"/>
<feOffset dy="2"/>
<feGaussianBlur stdDeviation="2"/>
<feColorMatrix type="matrix" values="0 0 0 0 0 0 0 0 0 0 0 0 0 0 0 0 0 0 0.45 0"/>
<feBlend mode="normal" in2="BackgroundImageFix" result="effect1_dropShadow_1_3688"/>
<feBlend mode="normal" in="SourceGraphic" in2="effect1_dropShadow_1_3688" result="shape"/>
</filter>
<filter id="filter1_d_1_3688" x="0" y="194" width="16" height="16" filterUnits="userSpaceOnUse" color-interpolation-filters="sRGB">
<feFlood flood-opacity="0" result="BackgroundImageFix"/>
<feColorMatrix in="SourceAlpha" type="matrix" values="0 0 0 0 0 0 0 0 0 0 0 0 0 0 0 0 0 0 127 0" result="hardAlpha"/>
<feOffset dy="2"/>
<feGaussianBlur stdDeviation="2"/>
<feColorMatrix type="matrix" values="0 0 0 0 0 0 0 0 0 0 0 0 0 0 0 0 0 0 0.45 0"/>
<feBlend mode="normal" in2="BackgroundImageFix" result="effect1_dropShadow_1_3688"/>
<feBlend mode="normal" in="SourceGraphic" in2="effect1_dropShadow_1_3688" result="shape"/>
</filter>
<filter id="filter2_d_1_3688" x="200" y="94" width="16" height="16" filterUnits="userSpaceOnUse" color-interpolation-filters="sRGB">
<feFlood flood-opacity="0" result="BackgroundImageFix"/>
<feColorMatrix in="SourceAlpha" type="matrix" values="0 0 0 0 0 0 0 0 0 0 0 0 0 0 0 0 0 0 127 0" result="hardAlpha"/>
<feOffset dy="2"/>
<feGaussianBlur stdDeviation="2"/>
<feColorMatrix type="matrix" values="0 0 0 0 0 0 0 0 0 0 0 0 0 0 0 0 0 0 0.45 0"/>
<feBlend mode="normal" in2="BackgroundImageFix" result="effect1_dropShadow_1_3688"/>
<feBlend mode="normal" in="SourceGraphic" in2="effect1_dropShadow_1_3688" result="shape"/>
</filter>
<filter id="filter3_d_1_3688" x="200" y="194" width="16" height="16" filterUnits="userSpaceOnUse" color-interpolation-filters="sRGB">
<feFlood flood-opacity="0" result="BackgroundImageFix"/>
<feColorMatrix in="SourceAlpha" type="matrix" values="0 0 0 0 0 0 0 0 0 0 0 0 0 0 0 0 0 0 127 0" result="hardAlpha"/>
<feOffset dy="2"/>
<feGaussianBlur stdDeviation="2"/>
<feColorMatrix type="matrix" values="0 0 0 0 0 0 0 0 0 0 0 0 0 0 0 0 0 0 0.45 0"/>
<feBlend mode="normal" in2="BackgroundImageFix" result="effect1_dropShadow_1_3688"/>
<feBlend mode="normal" in="SourceGraphic" in2="effect1_dropShadow_1_3688" result="shape"/>
</filter>
<filter id="filter4_d_1_3688" x="289" y="132" width="38" height="38" filterUnits="userSpaceOnUse" color-interpolation-filters="sRGB">
<feFlood flood-opacity="0" result="BackgroundImageFix"/>
<feColorMatrix in="SourceAlpha" type="matrix" values="0 0 0 0 0 0 0 0 0 0 0 0 0 0 0 0 0 0 127 0" result="hardAlpha"/>
<feOffset dy="1"/>
<feGaussianBlur stdDeviation="1.5"/>
<feColorMatrix type="matrix" values="0 0 0 0 0 0 0 0 0 0 0 0 0 0 0 0 0 0 0.35 0"/>
<feBlend mode="normal" in2="BackgroundImageFix" result="effect1_dropShadow_1_3688"/>
<feBlend mode="normal" in="SourceGraphic" in2="effect1_dropShadow_1_3688" result="shape"/>
</filter>
<radialGradient id="paint0_angular_1_3688" cx="0" cy="0" r="1" gradientUnits="userSpaceOnUse" gradientTransform="translate(158 150) rotate(90) scale(50)">
<stop stop-color="#ABF5FF"/>
<stop offset="1" stop-color="#0086E6"/>
</radialGradient>
<radialGradient id="paint1_angular_1_3688" cx="0" cy="0" r="1" gradientUnits="userSpaceOnUse" gradientTransform="translate(108 150) rotate(90) scale(50 100)">
<stop stop-color="#ABF5FF"/>
<stop offset="1" stop-color="#0086E6"/>
</radialGradient>
</defs>
</svg>
