<svg width="319" height="300" viewBox="0 0 319 300" fill="none" xmlns="http://www.w3.org/2000/svg">
<rect width="300" height="300" fill="#F5F5F5"/>
<circle opacity="0.4" cx="150" cy="150" r="50" fill="url(#paint0_angular_1_3728)"/>
<line x1="300.5" y1="-2.18557e-08" x2="300.5" y2="300" stroke="#FF0000"/>
<ellipse cx="217.165" cy="150" rx="83.835" ry="50" fill="url(#paint1_angular_1_3728)" stroke="#1C6EE8"/>
<rect x="133.33" y="100" width="167.67" height="100" stroke="#1C6EE8"/>
<g filter="url(#filter0_d_1_3728)">
<rect x="129.33" y="96" width="8" height="8" fill="white"/>
<rect x="129.83" y="96.5" width="7" height="7" stroke="#1C6EE8"/>
</g>
<g filter="url(#filter1_d_1_3728)">
<rect x="129.33" y="196" width="8" height="8" fill="white"/>
<rect x="129.83" y="196.5" width="7" height="7" stroke="#1C6EE8"/>
</g>
<g filter="url(#filter2_d_1_3728)">
<rect x="297.33" y="96" width="8" height="8" fill="white"/>
<rect x="297.83" y="96.5" width="7" height="7" stroke="#1C6EE8"/>
</g>
<g filter="url(#filter3_d_1_3728)">
<rect x="297.33" y="196" width="8" height="8" fill="white"/>
<rect x="297.83" y="196.5" width="7" height="7" stroke="#1C6EE8"/>
</g>
<path d="M48.25 146.402V144C48.25 143.034 49.0335 142.25 50 142.25C50.9665 142.25 51.75 143.034 51.75 144V146.402C52.5535 146.794 53.2063 147.446 53.5979 148.25H56C56.9665 148.25 57.75 149.034 57.75 150C57.75 150.966 56.9665 151.75 56 151.75H53.5979C53.2063 152.554 52.5535 153.206 51.75 153.598V156C51.75 156.966 50.9665 157.75 50 157.75C49.0335 157.75 48.25 156.966 48.25 156V153.598C47.4465 153.206 46.7937 152.554 46.4021 151.75H44C43.0335 151.75 42.25 150.966 42.25 150C42.25 149.034 43.0335 148.25 44 148.25H46.4021C46.7937 147.446 47.4465 146.794 48.25 146.402Z" fill="white"/>
<path fill-rule="evenodd" clip-rule="evenodd" d="M50 143.25C50.4142 143.25 50.75 143.586 50.75 144V147.095C51.8042 147.366 52.6342 148.196 52.9055 149.25H56C56.4142 149.25 56.75 149.586 56.75 150C56.75 150.414 56.4142 150.75 56 150.75H52.9055C52.6342 151.804 51.8042 152.634 50.75 152.905V156C50.75 156.414 50.4142 156.75 50 156.75C49.5858 156.75 49.25 156.414 49.25 156V152.905C48.1958 152.634 47.3658 151.804 47.0945 150.75H44C43.5858 150.75 43.25 150.414 43.25 150C43.25 149.586 43.5858 149.25 44 149.25H47.0945C47.3658 148.196 48.1958 147.366 49.25 147.095V144C49.25 143.586 49.5858 143.25 50 143.25ZM51.5 150C51.5 150.828 50.8284 151.5 50 151.5C49.1716 151.5 48.5 150.828 48.5 150C48.5 149.172 49.1716 148.5 50 148.5C50.8284 148.5 51.5 149.172 51.5 150Z" fill="#1C6EE8"/>
<rect x="200" y="145" width="100" height="10" fill="#FF03A9" fill-opacity="0.7"/>
<path d="M224.52 154.125C224.02 154.125 223.578 153.999 223.195 153.746C222.813 153.491 222.513 153.132 222.297 152.668C222.081 152.202 221.973 151.651 221.973 151.016C221.973 150.385 222.081 149.839 222.297 149.375C222.513 148.911 222.814 148.553 223.199 148.301C223.585 148.048 224.03 147.922 224.535 147.922C224.926 147.922 225.234 147.987 225.461 148.117C225.69 148.245 225.865 148.391 225.984 148.555C226.107 148.716 226.202 148.849 226.27 148.953H226.348V146H227.27V154H226.379V153.078H226.27C226.202 153.187 226.105 153.326 225.98 153.492C225.855 153.656 225.677 153.803 225.445 153.934C225.214 154.061 224.905 154.125 224.52 154.125ZM224.645 153.297C225.014 153.297 225.327 153.201 225.582 153.008C225.837 152.812 226.031 152.543 226.164 152.199C226.297 151.853 226.363 151.453 226.363 151C226.363 150.552 226.298 150.16 226.168 149.824C226.038 149.486 225.845 149.223 225.59 149.035C225.335 148.845 225.02 148.75 224.645 148.75C224.254 148.75 223.928 148.85 223.668 149.051C223.41 149.249 223.216 149.518 223.086 149.859C222.958 150.198 222.895 150.578 222.895 151C222.895 151.427 222.96 151.815 223.09 152.164C223.223 152.51 223.418 152.786 223.676 152.992C223.936 153.195 224.259 153.297 224.645 153.297ZM229.086 154V148H229.977V148.906H230.039C230.148 148.609 230.346 148.368 230.633 148.184C230.919 147.999 231.242 147.906 231.602 147.906C231.669 147.906 231.754 147.908 231.855 147.91C231.957 147.913 232.034 147.917 232.086 147.922V148.859C232.055 148.852 231.983 148.84 231.871 148.824C231.762 148.806 231.646 148.797 231.523 148.797C231.232 148.797 230.971 148.858 230.742 148.98C230.516 149.1 230.336 149.267 230.203 149.48C230.073 149.691 230.008 149.932 230.008 150.203V154H229.086ZM234.944 154.141C234.564 154.141 234.219 154.069 233.909 153.926C233.599 153.78 233.353 153.57 233.171 153.297C232.989 153.021 232.897 152.687 232.897 152.297C232.897 151.953 232.965 151.674 233.101 151.461C233.236 151.245 233.417 151.076 233.644 150.953C233.87 150.831 234.12 150.74 234.394 150.68C234.67 150.617 234.947 150.568 235.226 150.531C235.59 150.484 235.886 150.449 236.112 150.426C236.341 150.4 236.508 150.357 236.612 150.297C236.719 150.237 236.772 150.133 236.772 149.984V149.953C236.772 149.568 236.667 149.268 236.456 149.055C236.248 148.841 235.931 148.734 235.507 148.734C235.067 148.734 234.722 148.831 234.472 149.023C234.222 149.216 234.046 149.422 233.944 149.641L233.069 149.328C233.226 148.964 233.434 148.68 233.694 148.477C233.957 148.271 234.244 148.128 234.554 148.047C234.866 147.964 235.174 147.922 235.476 147.922C235.668 147.922 235.89 147.945 236.14 147.992C236.392 148.036 236.636 148.129 236.87 148.27C237.107 148.41 237.304 148.622 237.46 148.906C237.616 149.19 237.694 149.57 237.694 150.047V154H236.772V153.187H236.726C236.663 153.318 236.559 153.457 236.413 153.605C236.267 153.754 236.073 153.88 235.831 153.984C235.589 154.089 235.293 154.141 234.944 154.141ZM235.085 153.312C235.45 153.312 235.757 153.241 236.007 153.098C236.259 152.954 236.45 152.77 236.577 152.543C236.707 152.316 236.772 152.078 236.772 151.828V150.984C236.733 151.031 236.647 151.074 236.515 151.113C236.384 151.15 236.233 151.182 236.062 151.211C235.892 151.237 235.727 151.26 235.565 151.281C235.407 151.299 235.278 151.315 235.179 151.328C234.939 151.359 234.715 151.41 234.507 151.48C234.301 151.548 234.134 151.651 234.007 151.789C233.882 151.924 233.819 152.109 233.819 152.344C233.819 152.664 233.938 152.906 234.175 153.07C234.414 153.232 234.718 153.312 235.085 153.312ZM241.799 156.375C241.354 156.375 240.971 156.318 240.65 156.203C240.33 156.091 240.063 155.943 239.85 155.758C239.639 155.576 239.471 155.38 239.346 155.172L240.08 154.656C240.163 154.766 240.269 154.891 240.396 155.031C240.524 155.174 240.699 155.298 240.92 155.402C241.144 155.509 241.437 155.562 241.799 155.562C242.283 155.562 242.683 155.445 242.998 155.211C243.313 154.977 243.471 154.609 243.471 154.109V152.891H243.393C243.325 153 243.229 153.135 243.104 153.297C242.981 153.456 242.804 153.598 242.572 153.723C242.343 153.845 242.033 153.906 241.643 153.906C241.158 153.906 240.723 153.792 240.338 153.563C239.955 153.333 239.652 153 239.428 152.562C239.206 152.125 239.096 151.594 239.096 150.969C239.096 150.354 239.204 149.819 239.42 149.363C239.636 148.905 239.937 148.551 240.322 148.301C240.708 148.048 241.153 147.922 241.658 147.922C242.049 147.922 242.359 147.987 242.588 148.117C242.82 148.245 242.997 148.391 243.119 148.555C243.244 148.716 243.34 148.849 243.408 148.953H243.502V148H244.393V154.172C244.393 154.688 244.275 155.107 244.041 155.43C243.809 155.755 243.497 155.993 243.104 156.145C242.713 156.298 242.278 156.375 241.799 156.375ZM241.768 153.078C242.137 153.078 242.45 152.993 242.705 152.824C242.96 152.655 243.154 152.411 243.287 152.094C243.42 151.776 243.486 151.396 243.486 150.953C243.486 150.521 243.421 150.139 243.291 149.809C243.161 149.478 242.968 149.219 242.713 149.031C242.458 148.844 242.143 148.75 241.768 148.75C241.377 148.75 241.051 148.849 240.791 149.047C240.533 149.245 240.339 149.51 240.209 149.844C240.081 150.177 240.018 150.547 240.018 150.953C240.018 151.37 240.083 151.738 240.213 152.059C240.346 152.376 240.541 152.626 240.799 152.809C241.059 152.988 241.382 153.078 241.768 153.078ZM251.971 146V154H251.002V147.016H250.955L249.002 148.312V147.328L251.002 146H251.971ZM256.881 154.109C256.292 154.109 255.791 153.949 255.377 153.629C254.963 153.306 254.646 152.839 254.428 152.227C254.209 151.612 254.1 150.87 254.1 150C254.1 149.135 254.209 148.397 254.428 147.785C254.649 147.171 254.967 146.702 255.381 146.379C255.798 146.053 256.298 145.891 256.881 145.891C257.464 145.891 257.963 146.053 258.377 146.379C258.794 146.702 259.111 147.171 259.33 147.785C259.551 148.397 259.662 149.135 259.662 150C259.662 150.87 259.553 151.612 259.334 152.227C259.115 152.839 258.799 153.306 258.385 153.629C257.971 153.949 257.469 154.109 256.881 154.109ZM256.881 153.25C257.464 153.25 257.917 152.969 258.24 152.406C258.563 151.844 258.725 151.042 258.725 150C258.725 149.307 258.65 148.717 258.502 148.23C258.356 147.743 258.145 147.372 257.869 147.117C257.596 146.862 257.266 146.734 256.881 146.734C256.303 146.734 255.851 147.02 255.525 147.59C255.2 148.158 255.037 148.961 255.037 150C255.037 150.693 255.11 151.281 255.256 151.766C255.402 152.25 255.611 152.618 255.885 152.871C256.161 153.124 256.493 153.25 256.881 153.25ZM263.756 154.109C263.167 154.109 262.666 153.949 262.252 153.629C261.838 153.306 261.521 152.839 261.303 152.227C261.084 151.612 260.975 150.87 260.975 150C260.975 149.135 261.084 148.397 261.303 147.785C261.524 147.171 261.842 146.702 262.256 146.379C262.673 146.053 263.173 145.891 263.756 145.891C264.339 145.891 264.838 146.053 265.252 146.379C265.669 146.702 265.986 147.171 266.205 147.785C266.426 148.397 266.537 149.135 266.537 150C266.537 150.87 266.428 151.612 266.209 152.227C265.99 152.839 265.674 153.306 265.26 153.629C264.846 153.949 264.344 154.109 263.756 154.109ZM263.756 153.25C264.339 153.25 264.792 152.969 265.115 152.406C265.438 151.844 265.6 151.042 265.6 150C265.6 149.307 265.525 148.717 265.377 148.23C265.231 147.743 265.02 147.372 264.744 147.117C264.471 146.862 264.141 146.734 263.756 146.734C263.178 146.734 262.726 147.02 262.4 147.59C262.075 148.158 261.912 148.961 261.912 150C261.912 150.693 261.985 151.281 262.131 151.766C262.277 152.25 262.486 152.618 262.76 152.871C263.036 153.124 263.368 153.25 263.756 153.25ZM268.037 156.25V148H268.928V148.953H269.037C269.105 148.849 269.199 148.716 269.318 148.555C269.441 148.391 269.615 148.245 269.842 148.117C270.071 147.987 270.381 147.922 270.771 147.922C271.277 147.922 271.722 148.048 272.107 148.301C272.493 148.553 272.794 148.911 273.01 149.375C273.226 149.839 273.334 150.385 273.334 151.016C273.334 151.651 273.226 152.202 273.01 152.668C272.794 153.132 272.494 153.491 272.111 153.746C271.729 153.999 271.287 154.125 270.787 154.125C270.402 154.125 270.093 154.061 269.861 153.934C269.63 153.803 269.451 153.656 269.326 153.492C269.201 153.326 269.105 153.187 269.037 153.078H268.959V156.25H268.037ZM268.943 151C268.943 151.453 269.01 151.853 269.143 152.199C269.275 152.543 269.469 152.812 269.725 153.008C269.98 153.201 270.292 153.297 270.662 153.297C271.048 153.297 271.369 153.195 271.627 152.992C271.887 152.786 272.083 152.51 272.213 152.164C272.346 151.815 272.412 151.427 272.412 151C272.412 150.578 272.347 150.198 272.217 149.859C272.089 149.518 271.895 149.249 271.635 149.051C271.377 148.85 271.053 148.75 270.662 148.75C270.287 148.75 269.972 148.845 269.717 149.035C269.462 149.223 269.269 149.486 269.139 149.824C269.008 150.16 268.943 150.552 268.943 151ZM275.181 148L276.618 150.453L278.056 148H279.118L277.181 151L279.118 154H278.056L276.618 151.672L275.181 154H274.118L276.024 151L274.118 148H275.181Z" fill="white"/>
<g filter="url(#filter4_d_1_3728)">
<path d="M296.528 152.476L295.553 151.501L297.093 151.501C297.244 151.795 297.443 152.07 297.688 152.316C298.967 153.594 301.039 153.594 302.317 152.316C302.563 152.07 302.761 151.795 302.912 151.501L304.452 151.501L303.478 152.476L305.599 154.598L310.195 150.001L305.599 145.405L303.478 147.527L304.452 148.501L302.912 148.501C302.761 148.208 302.563 147.933 302.317 147.687C301.039 146.409 298.967 146.409 297.688 147.687C297.443 147.933 297.244 148.208 297.093 148.501L295.553 148.501L296.528 147.527L294.406 145.405L289.81 150.001L294.406 154.598L296.528 152.476Z" fill="white"/>
<path fill-rule="evenodd" clip-rule="evenodd" d="M293.139 150.501L295.113 152.476L294.406 153.183L291.224 150.001L294.406 146.819L295.113 147.526L293.139 149.501L297.878 149.501C297.968 149.119 298.162 148.757 298.46 148.459C299.312 147.607 300.693 147.607 301.545 148.459C301.843 148.757 302.037 149.119 302.127 149.501L306.866 149.501L304.892 147.526L305.599 146.819L308.781 150.001L305.599 153.183L304.892 152.476L306.867 150.501L302.127 150.501C302.037 150.883 301.843 151.246 301.545 151.544C300.693 152.396 299.312 152.396 298.46 151.544C298.162 151.246 297.968 150.883 297.878 150.501L293.139 150.501ZM299.231 150.773C299.657 151.199 300.348 151.199 300.774 150.773C301.2 150.347 301.2 149.656 300.774 149.23C300.348 148.804 299.657 148.804 299.231 149.23C298.805 149.656 298.805 150.347 299.231 150.773Z" fill="black"/>
</g>
<mask id="path-19-outside-1_1_3728" maskUnits="userSpaceOnUse" x="281" y="164" width="39" height="12" fill="black">
<rect fill="white" x="281" y="164" width="39" height="12"/>
<path d="M282.357 174V165.273H285.63C286.3 165.273 286.863 165.389 287.317 165.622C287.775 165.855 288.12 166.182 288.353 166.602C288.588 167.02 288.706 167.507 288.706 168.064C288.706 168.624 288.587 169.109 288.348 169.521C288.113 169.93 287.765 170.247 287.304 170.472C286.844 170.693 286.279 170.804 285.608 170.804H283.277V169.491H285.395C285.787 169.491 286.108 169.437 286.358 169.33C286.608 169.219 286.793 169.058 286.912 168.848C287.034 168.635 287.096 168.374 287.096 168.064C287.096 167.754 287.034 167.49 286.912 167.271C286.79 167.05 286.604 166.882 286.354 166.768C286.104 166.652 285.782 166.594 285.387 166.594H283.938V174H282.357ZM286.865 170.045L289.026 174H287.262L285.14 170.045H286.865ZM291.743 165.273V174H290.162V165.273H291.743ZM299.301 168.06C299.23 167.83 299.132 167.624 299.007 167.442C298.885 167.257 298.737 167.099 298.564 166.969C298.393 166.838 298.197 166.74 297.976 166.675C297.754 166.607 297.513 166.572 297.251 166.572C296.783 166.572 296.365 166.69 295.999 166.926C295.632 167.162 295.344 167.509 295.134 167.966C294.926 168.42 294.822 168.974 294.822 169.628C294.822 170.287 294.926 170.845 295.134 171.303C295.341 171.76 295.629 172.108 295.999 172.347C296.368 172.582 296.797 172.7 297.286 172.7C297.729 172.7 298.112 172.615 298.436 172.445C298.763 172.274 299.014 172.033 299.19 171.72C299.366 171.405 299.455 171.036 299.455 170.612L299.812 170.668H297.443V169.432H300.984V170.48C300.984 171.227 300.825 171.874 300.507 172.419C300.189 172.964 299.751 173.385 299.195 173.68C298.638 173.973 297.999 174.119 297.277 174.119C296.473 174.119 295.767 173.939 295.159 173.578C294.554 173.214 294.081 172.699 293.74 172.031C293.402 171.361 293.233 170.565 293.233 169.645C293.233 168.94 293.332 168.311 293.531 167.757C293.733 167.203 294.014 166.733 294.375 166.347C294.736 165.957 295.159 165.662 295.645 165.46C296.131 165.256 296.659 165.153 297.23 165.153C297.713 165.153 298.163 165.224 298.581 165.366C298.999 165.506 299.369 165.705 299.693 165.963C300.02 166.222 300.288 166.528 300.499 166.884C300.709 167.239 300.847 167.631 300.912 168.06H299.301ZM302.513 174V165.273H304.094V168.967H308.138V165.273H309.723V174H308.138V170.293H304.094V174H302.513ZM311.059 166.598V165.273H318.022V166.598H315.325V174H313.757V166.598H311.059Z"/>
</mask>
<path d="M282.357 174V165.273H285.63C286.3 165.273 286.863 165.389 287.317 165.622C287.775 165.855 288.12 166.182 288.353 166.602C288.588 167.02 288.706 167.507 288.706 168.064C288.706 168.624 288.587 169.109 288.348 169.521C288.113 169.93 287.765 170.247 287.304 170.472C286.844 170.693 286.279 170.804 285.608 170.804H283.277V169.491H285.395C285.787 169.491 286.108 169.437 286.358 169.33C286.608 169.219 286.793 169.058 286.912 168.848C287.034 168.635 287.096 168.374 287.096 168.064C287.096 167.754 287.034 167.49 286.912 167.271C286.79 167.05 286.604 166.882 286.354 166.768C286.104 166.652 285.782 166.594 285.387 166.594H283.938V174H282.357ZM286.865 170.045L289.026 174H287.262L285.14 170.045H286.865ZM291.743 165.273V174H290.162V165.273H291.743ZM299.301 168.06C299.23 167.83 299.132 167.624 299.007 167.442C298.885 167.257 298.737 167.099 298.564 166.969C298.393 166.838 298.197 166.74 297.976 166.675C297.754 166.607 297.513 166.572 297.251 166.572C296.783 166.572 296.365 166.69 295.999 166.926C295.632 167.162 295.344 167.509 295.134 167.966C294.926 168.42 294.822 168.974 294.822 169.628C294.822 170.287 294.926 170.845 295.134 171.303C295.341 171.76 295.629 172.108 295.999 172.347C296.368 172.582 296.797 172.7 297.286 172.7C297.729 172.7 298.112 172.615 298.436 172.445C298.763 172.274 299.014 172.033 299.19 171.72C299.366 171.405 299.455 171.036 299.455 170.612L299.812 170.668H297.443V169.432H300.984V170.48C300.984 171.227 300.825 171.874 300.507 172.419C300.189 172.964 299.751 173.385 299.195 173.68C298.638 173.973 297.999 174.119 297.277 174.119C296.473 174.119 295.767 173.939 295.159 173.578C294.554 173.214 294.081 172.699 293.74 172.031C293.402 171.361 293.233 170.565 293.233 169.645C293.233 168.94 293.332 168.311 293.531 167.757C293.733 167.203 294.014 166.733 294.375 166.347C294.736 165.957 295.159 165.662 295.645 165.46C296.131 165.256 296.659 165.153 297.23 165.153C297.713 165.153 298.163 165.224 298.581 165.366C298.999 165.506 299.369 165.705 299.693 165.963C300.02 166.222 300.288 166.528 300.499 166.884C300.709 167.239 300.847 167.631 300.912 168.06H299.301ZM302.513 174V165.273H304.094V168.967H308.138V165.273H309.723V174H308.138V170.293H304.094V174H302.513ZM311.059 166.598V165.273H318.022V166.598H315.325V174H313.757V166.598H311.059Z" fill="#E3E3E3"/>
<path d="M282.357 174H281.357V175H282.357V174ZM282.357 165.273V164.273H281.357V165.273H282.357ZM287.317 165.622L286.861 166.512L286.863 166.513L287.317 165.622ZM288.353 166.602L287.478 167.087L287.482 167.094L288.353 166.602ZM288.348 169.521L287.483 169.02L287.482 169.022L288.348 169.521ZM287.304 170.472L287.738 171.373L287.743 171.37L287.304 170.472ZM283.277 170.804H282.277V171.804H283.277V170.804ZM283.277 169.491V168.491H282.277V169.491H283.277ZM286.358 169.33L286.755 170.248L286.763 170.244L286.358 169.33ZM286.912 168.848L286.045 168.351L286.043 168.354L286.912 168.848ZM286.912 167.271L286.037 167.754L286.039 167.759L286.912 167.271ZM286.354 166.768L285.932 167.675L285.94 167.679L286.354 166.768ZM283.938 166.594V165.594H282.938V166.594H283.938ZM283.938 174V175H284.938V174H283.938ZM286.865 170.045L287.743 169.566L287.459 169.045H286.865V170.045ZM289.026 174V175H290.712L289.903 173.521L289.026 174ZM287.262 174L286.381 174.473L286.663 175H287.262V174ZM285.14 170.045V169.045H283.468L284.258 170.518L285.14 170.045ZM283.357 174V165.273H281.357V174H283.357ZM282.357 166.273H285.63V164.273H282.357V166.273ZM285.63 166.273C286.189 166.273 286.585 166.37 286.861 166.512L287.773 164.732C287.14 164.408 286.411 164.273 285.63 164.273V166.273ZM286.863 166.513C287.156 166.662 287.348 166.853 287.478 167.087L289.227 166.118C288.891 165.511 288.393 165.048 287.771 164.731L286.863 166.513ZM287.482 167.094C287.62 167.339 287.706 167.651 287.706 168.064H289.706C289.706 167.363 289.557 166.701 289.223 166.111L287.482 167.094ZM287.706 168.064C287.706 168.479 287.619 168.785 287.483 169.02L289.214 170.023C289.555 169.433 289.706 168.768 289.706 168.064H287.706ZM287.482 169.022C287.354 169.243 287.163 169.428 286.866 169.573L287.743 171.37C288.366 171.066 288.871 170.617 289.215 170.021L287.482 169.022ZM286.871 169.571C286.581 169.71 286.174 169.804 285.608 169.804V171.804C286.384 171.804 287.107 171.676 287.738 171.373L286.871 169.571ZM285.608 169.804H283.277V171.804H285.608V169.804ZM284.277 170.804V169.491H282.277V170.804H284.277ZM283.277 170.491H285.395V168.491H283.277V170.491ZM285.395 170.491C285.868 170.491 286.337 170.428 286.755 170.248L285.962 168.411C285.879 168.447 285.706 168.491 285.395 168.491V170.491ZM286.763 170.244C287.183 170.058 287.543 169.762 287.782 169.342L286.043 168.354C286.04 168.36 286.036 168.364 286.028 168.371C286.019 168.379 285.998 168.396 285.953 168.415L286.763 170.244ZM287.78 169.345C288.009 168.946 288.096 168.503 288.096 168.064H286.096C286.096 168.244 286.06 168.324 286.045 168.351L287.78 169.345ZM288.096 168.064C288.096 167.623 288.008 167.183 287.785 166.784L286.039 167.759C286.061 167.797 286.096 167.885 286.096 168.064H288.096ZM287.788 166.789C287.553 166.362 287.196 166.053 286.768 165.858L285.94 167.679C286.012 167.711 286.027 167.737 286.037 167.754L287.788 166.789ZM286.776 165.862C286.35 165.663 285.869 165.594 285.387 165.594V167.594C285.694 167.594 285.858 167.641 285.932 167.675L286.776 165.862ZM285.387 165.594H283.938V167.594H285.387V165.594ZM282.938 166.594V174H284.938V166.594H282.938ZM283.938 173H282.357V175H283.938V173ZM285.988 170.525L288.148 174.479L289.903 173.521L287.743 169.566L285.988 170.525ZM289.026 173H287.262V175H289.026V173ZM288.143 173.527L286.021 169.573L284.258 170.518L286.381 174.473L288.143 173.527ZM285.14 171.045H286.865V169.045H285.14V171.045ZM291.743 165.273H292.743V164.273H291.743V165.273ZM291.743 174V175H292.743V174H291.743ZM290.162 174H289.162V175H290.162V174ZM290.162 165.273V164.273H289.162V165.273H290.162ZM290.743 165.273V174H292.743V165.273H290.743ZM291.743 173H290.162V175H291.743V173ZM291.162 174V165.273H289.162V174H291.162ZM290.162 166.273H291.743V164.273H290.162V166.273ZM299.301 168.06L298.346 168.355L298.563 169.06H299.301V168.06ZM299.007 167.442L298.173 167.993L298.178 168.001L298.183 168.008L299.007 167.442ZM298.564 166.969L297.955 167.762L297.962 167.767L298.564 166.969ZM297.976 166.675L297.682 167.631L297.693 167.634L297.976 166.675ZM295.999 166.926L296.54 167.767L296.54 167.767L295.999 166.926ZM295.134 167.966L294.225 167.548L294.224 167.551L295.134 167.966ZM295.134 171.303L294.223 171.716L294.223 171.716L295.134 171.303ZM295.999 172.347L295.456 173.187L295.46 173.189L295.999 172.347ZM298.436 172.445L297.974 171.558L297.97 171.56L298.436 172.445ZM299.19 171.72L300.061 172.211L300.063 172.208L299.19 171.72ZM299.455 170.612L299.607 169.624L298.455 169.446V170.612H299.455ZM299.812 170.668V171.668L299.965 169.679L299.812 170.668ZM297.443 170.668H296.443V171.668H297.443V170.668ZM297.443 169.432V168.432H296.443V169.432H297.443ZM300.984 169.432H301.984V168.432H300.984V169.432ZM300.507 172.419L301.371 172.923L301.371 172.923L300.507 172.419ZM299.195 173.68L299.66 174.566L299.663 174.564L299.195 173.68ZM295.159 173.578L294.644 174.435L294.649 174.438L295.159 173.578ZM293.74 172.031L292.847 172.481L292.849 172.486L293.74 172.031ZM293.531 167.757L292.592 167.415L292.59 167.419L293.531 167.757ZM294.375 166.347L295.106 167.029L295.108 167.026L294.375 166.347ZM295.645 165.46L296.028 166.384L296.033 166.382L295.645 165.46ZM298.581 165.366L298.259 166.313L298.265 166.315L298.581 165.366ZM299.693 165.963L299.069 166.745L299.073 166.747L299.693 165.963ZM300.499 166.884L301.359 166.374L301.359 166.374L300.499 166.884ZM300.912 168.06V169.06H302.076L301.901 167.909L300.912 168.06ZM300.257 167.765C300.159 167.447 300.018 167.148 299.831 166.875L298.183 168.008C298.246 168.099 298.302 168.212 298.346 168.355L300.257 167.765ZM299.841 166.89C299.658 166.612 299.432 166.371 299.166 166.17L297.962 167.767C298.043 167.828 298.112 167.902 298.173 167.993L299.841 166.89ZM299.172 166.175C298.897 165.964 298.589 165.813 298.259 165.716L297.693 167.634C297.806 167.667 297.89 167.712 297.955 167.762L299.172 166.175ZM298.27 165.719C297.942 165.618 297.6 165.572 297.251 165.572V167.572C297.426 167.572 297.567 167.595 297.682 167.63L298.27 165.719ZM297.251 165.572C296.606 165.572 295.998 165.738 295.457 166.085L296.54 167.767C296.732 167.643 296.959 167.572 297.251 167.572V165.572ZM295.457 166.085C294.907 166.439 294.502 166.945 294.225 167.548L296.042 168.384C296.185 168.072 296.357 167.884 296.54 167.767L295.457 166.085ZM294.224 167.551C293.942 168.169 293.822 168.873 293.822 169.628H295.822C295.822 169.075 295.911 168.672 296.043 168.381L294.224 167.551ZM293.822 169.628C293.822 170.387 293.941 171.095 294.223 171.716L296.044 170.89C295.911 170.596 295.822 170.187 295.822 169.628H293.822ZM294.223 171.716C294.498 172.322 294.903 172.83 295.456 173.187L296.541 171.507C296.355 171.386 296.184 171.198 296.044 170.89L294.223 171.716ZM295.46 173.189C296.009 173.539 296.629 173.7 297.286 173.7V171.7C296.965 171.7 296.727 171.625 296.537 171.504L295.46 173.189ZM297.286 173.7C297.857 173.7 298.407 173.59 298.902 173.33L297.97 171.56C297.817 171.64 297.6 171.7 297.286 171.7V173.7ZM298.899 173.331C299.392 173.074 299.788 172.697 300.061 172.211L298.319 171.229C298.241 171.368 298.134 171.475 297.974 171.558L298.899 173.331ZM300.063 172.208C300.336 171.72 300.455 171.177 300.455 170.612H298.455C298.455 170.894 298.397 171.09 298.317 171.233L300.063 172.208ZM299.302 171.6L299.66 171.656L299.965 169.679L299.607 169.624L299.302 171.6ZM299.812 169.668H297.443V171.668H299.812V169.668ZM298.443 170.668V169.432H296.443V170.668H298.443ZM297.443 170.432H300.984V168.432H297.443V170.432ZM299.984 169.432V170.48H301.984V169.432H299.984ZM299.984 170.48C299.984 171.083 299.857 171.549 299.643 171.915L301.371 172.923C301.793 172.199 301.984 171.372 301.984 170.48H299.984ZM299.643 171.915C299.419 172.3 299.118 172.589 298.726 172.797L299.663 174.564C300.385 174.181 300.959 173.629 301.371 172.923L299.643 171.915ZM298.729 172.795C298.336 173.002 297.861 173.119 297.277 173.119V175.119C298.137 175.119 298.94 174.944 299.66 174.566L298.729 172.795ZM297.277 173.119C296.627 173.119 296.103 172.975 295.669 172.718L294.649 174.438C295.431 174.903 296.319 175.119 297.277 175.119V173.119ZM295.674 172.721C295.239 172.46 294.892 172.088 294.631 171.576L292.849 172.486C293.27 173.309 293.868 173.969 294.644 174.435L295.674 172.721ZM294.633 171.581C294.379 171.078 294.233 170.444 294.233 169.645H292.233C292.233 170.687 292.425 171.643 292.847 172.481L294.633 171.581ZM294.233 169.645C294.233 169.033 294.319 168.522 294.472 168.095L292.59 167.419C292.345 168.101 292.233 168.847 292.233 169.645H294.233ZM294.471 168.099C294.632 167.657 294.847 167.306 295.106 167.029L293.644 165.664C293.182 166.159 292.834 166.749 292.592 167.415L294.471 168.099ZM295.108 167.026C295.372 166.742 295.677 166.53 296.028 166.384L295.261 164.537C294.642 164.794 294.099 165.173 293.642 165.667L295.108 167.026ZM296.033 166.382C296.386 166.233 296.781 166.153 297.23 166.153V164.153C296.537 164.153 295.875 164.278 295.257 164.539L296.033 166.382ZM297.23 166.153C297.614 166.153 297.954 166.21 298.259 166.313L298.903 164.42C298.372 164.239 297.812 164.153 297.23 164.153V166.153ZM298.265 166.315C298.578 166.42 298.843 166.564 299.069 166.745L300.317 165.182C299.896 164.845 299.419 164.592 298.897 164.418L298.265 166.315ZM299.073 166.747C299.304 166.93 299.491 167.144 299.638 167.393L301.359 166.374C301.086 165.912 300.736 165.513 300.314 165.179L299.073 166.747ZM299.638 167.393C299.78 167.632 299.876 167.901 299.923 168.21L301.901 167.909C301.817 167.36 301.638 166.845 301.359 166.374L299.638 167.393ZM300.912 167.06H299.301V169.06H300.912V167.06ZM302.513 174H301.513V175H302.513V174ZM302.513 165.273V164.273H301.513V165.273H302.513ZM304.094 165.273H305.094V164.273H304.094V165.273ZM304.094 168.967H303.094V169.967H304.094V168.967ZM308.138 168.967V169.967H309.138V168.967H308.138ZM308.138 165.273V164.273H307.138V165.273H308.138ZM309.723 165.273H310.723V164.273H309.723V165.273ZM309.723 174V175H310.723V174H309.723ZM308.138 174H307.138V175H308.138V174ZM308.138 170.293H309.138V169.293H308.138V170.293ZM304.094 170.293V169.293H303.094V170.293H304.094ZM304.094 174V175H305.094V174H304.094ZM303.513 174V165.273H301.513V174H303.513ZM302.513 166.273H304.094V164.273H302.513V166.273ZM303.094 165.273V168.967H305.094V165.273H303.094ZM304.094 169.967H308.138V167.967H304.094V169.967ZM309.138 168.967V165.273H307.138V168.967H309.138ZM308.138 166.273H309.723V164.273H308.138V166.273ZM308.723 165.273V174H310.723V165.273H308.723ZM309.723 173H308.138V175H309.723V173ZM309.138 174V170.293H307.138V174H309.138ZM308.138 169.293H304.094V171.293H308.138V169.293ZM303.094 170.293V174H305.094V170.293H303.094ZM304.094 173H302.513V175H304.094V173ZM311.059 166.598H310.059V167.598H311.059V166.598ZM311.059 165.273V164.273H310.059V165.273H311.059ZM318.022 165.273H319.022V164.273H318.022V165.273ZM318.022 166.598V167.598H319.022V166.598H318.022ZM315.325 166.598V165.598H314.325V166.598H315.325ZM315.325 174V175H316.325V174H315.325ZM313.757 174H312.757V175H313.757V174ZM313.757 166.598H314.757V165.598H313.757V166.598ZM312.059 166.598V165.273H310.059V166.598H312.059ZM311.059 166.273H318.022V164.273H311.059V166.273ZM317.022 165.273V166.598H319.022V165.273H317.022ZM318.022 165.598H315.325V167.598H318.022V165.598ZM314.325 166.598V174H316.325V166.598H314.325ZM315.325 173H313.757V175H315.325V173ZM314.757 174V166.598H312.757V174H314.757ZM313.757 165.598H311.059V167.598H313.757V165.598Z" fill="#555555" mask="url(#path-19-outside-1_1_3728)"/>
<defs>
<filter id="filter0_d_1_3728" x="125.33" y="94" width="16" height="16" filterUnits="userSpaceOnUse" color-interpolation-filters="sRGB">
<feFlood flood-opacity="0" result="BackgroundImageFix"/>
<feColorMatrix in="SourceAlpha" type="matrix" values="0 0 0 0 0 0 0 0 0 0 0 0 0 0 0 0 0 0 127 0" result="hardAlpha"/>
<feOffset dy="2"/>
<feGaussianBlur stdDeviation="2"/>
<feColorMatrix type="matrix" values="0 0 0 0 0 0 0 0 0 0 0 0 0 0 0 0 0 0 0.45 0"/>
<feBlend mode="normal" in2="BackgroundImageFix" result="effect1_dropShadow_1_3728"/>
<feBlend mode="normal" in="SourceGraphic" in2="effect1_dropShadow_1_3728" result="shape"/>
</filter>
<filter id="filter1_d_1_3728" x="125.33" y="194" width="16" height="16" filterUnits="userSpaceOnUse" color-interpolation-filters="sRGB">
<feFlood flood-opacity="0" result="BackgroundImageFix"/>
<feColorMatrix in="SourceAlpha" type="matrix" values="0 0 0 0 0 0 0 0 0 0 0 0 0 0 0 0 0 0 127 0" result="hardAlpha"/>
<feOffset dy="2"/>
<feGaussianBlur stdDeviation="2"/>
<feColorMatrix type="matrix" values="0 0 0 0 0 0 0 0 0 0 0 0 0 0 0 0 0 0 0.45 0"/>
<feBlend mode="normal" in2="BackgroundImageFix" result="effect1_dropShadow_1_3728"/>
<feBlend mode="normal" in="SourceGraphic" in2="effect1_dropShadow_1_3728" result="shape"/>
</filter>
<filter id="filter2_d_1_3728" x="293.33" y="94" width="16" height="16" filterUnits="userSpaceOnUse" color-interpolation-filters="sRGB">
<feFlood flood-opacity="0" result="BackgroundImageFix"/>
<feColorMatrix in="SourceAlpha" type="matrix" values="0 0 0 0 0 0 0 0 0 0 0 0 0 0 0 0 0 0 127 0" result="hardAlpha"/>
<feOffset dy="2"/>
<feGaussianBlur stdDeviation="2"/>
<feColorMatrix type="matrix" values="0 0 0 0 0 0 0 0 0 0 0 0 0 0 0 0 0 0 0.45 0"/>
<feBlend mode="normal" in2="BackgroundImageFix" result="effect1_dropShadow_1_3728"/>
<feBlend mode="normal" in="SourceGraphic" in2="effect1_dropShadow_1_3728" result="shape"/>
</filter>
<filter id="filter3_d_1_3728" x="293.33" y="194" width="16" height="16" filterUnits="userSpaceOnUse" color-interpolation-filters="sRGB">
<feFlood flood-opacity="0" result="BackgroundImageFix"/>
<feColorMatrix in="SourceAlpha" type="matrix" values="0 0 0 0 0 0 0 0 0 0 0 0 0 0 0 0 0 0 127 0" result="hardAlpha"/>
<feOffset dy="2"/>
<feGaussianBlur stdDeviation="2"/>
<feColorMatrix type="matrix" values="0 0 0 0 0 0 0 0 0 0 0 0 0 0 0 0 0 0 0.45 0"/>
<feBlend mode="normal" in2="BackgroundImageFix" result="effect1_dropShadow_1_3728"/>
<feBlend mode="normal" in="SourceGraphic" in2="effect1_dropShadow_1_3728" result="shape"/>
</filter>
<filter id="filter4_d_1_3728" x="281" y="132" width="38" height="38" filterUnits="userSpaceOnUse" color-interpolation-filters="sRGB">
<feFlood flood-opacity="0" result="BackgroundImageFix"/>
<feColorMatrix in="SourceAlpha" type="matrix" values="0 0 0 0 0 0 0 0 0 0 0 0 0 0 0 0 0 0 127 0" result="hardAlpha"/>
<feOffset dy="1"/>
<feGaussianBlur stdDeviation="1.5"/>
<feColorMatrix type="matrix" values="0 0 0 0 0 0 0 0 0 0 0 0 0 0 0 0 0 0 0.35 0"/>
<feBlend mode="normal" in2="BackgroundImageFix" result="effect1_dropShadow_1_3728"/>
<feBlend mode="normal" in="SourceGraphic" in2="effect1_dropShadow_1_3728" result="shape"/>
</filter>
<radialGradient id="paint0_angular_1_3728" cx="0" cy="0" r="1" gradientUnits="userSpaceOnUse" gradientTransform="translate(150 150) rotate(90) scale(50)">
<stop stop-color="#ABF5FF"/>
<stop offset="1" stop-color="#0086E6"/>
</radialGradient>
<radialGradient id="paint1_angular_1_3728" cx="0" cy="0" r="1" gradientUnits="userSpaceOnUse" gradientTransform="translate(217.165 150) rotate(90) scale(50 83.835)">
<stop stop-color="#ABF5FF"/>
<stop offset="1" stop-color="#0086E6"/>
</radialGradient>
</defs>
</svg>
