<svg width="1512" height="982" viewBox="0 0 1512 982" fill="none" xmlns="http://www.w3.org/2000/svg">
<rect width="1512" height="982" fill="white"/>
<path d="M1457.21 924.542L1469.17 936.5L1457.21 948.458" stroke="#9194A1" stroke-width="3.41667" stroke-linejoin="round"/>
<line y1="-1.70833" x2="25.625" y2="-1.70833" transform="matrix(-1 0 0 1 1467.46 938.208)" stroke="#9194A1" stroke-width="3.41667"/>
<path d="M53.7923 924.542L41.834 936.5L53.7923 948.458" stroke="#9194A1" stroke-width="3.41667" stroke-linejoin="round"/>
<line x1="43.541" y1="936.5" x2="69.166" y2="936.5" stroke="#9194A1" stroke-width="3.41667"/>
<path d="M89.125 64.75V69.75C89.125 70.2473 88.9275 70.7242 88.5758 71.0758C88.2242 71.4275 87.7473 71.625 87.25 71.625C86.7527 71.625 86.2758 71.4275 85.9242 71.0758C85.5725 70.7242 85.375 70.2473 85.375 69.75V66.625H77.875V85.375H81C81.4973 85.375 81.9742 85.5725 82.3258 85.9242C82.6775 86.2758 82.875 86.7527 82.875 87.25C82.875 87.7473 82.6775 88.2242 82.3258 88.5758C81.9742 88.9275 81.4973 89.125 81 89.125H71C70.5027 89.125 70.0258 88.9275 69.6742 88.5758C69.3225 88.2242 69.125 87.7473 69.125 87.25C69.125 86.7527 69.3225 86.2758 69.6742 85.9242C70.0258 85.5725 70.5027 85.375 71 85.375H74.125V66.625H66.625V69.75C66.625 70.2473 66.4275 70.7242 66.0758 71.0758C65.7242 71.4275 65.2473 71.625 64.75 71.625C64.2527 71.625 63.7758 71.4275 63.4242 71.0758C63.0725 70.7242 62.875 70.2473 62.875 69.75V64.75C62.875 64.2527 63.0725 63.7758 63.4242 63.4242C63.7758 63.0725 64.2527 62.875 64.75 62.875H87.25C87.7473 62.875 88.2242 63.0725 88.5758 63.4242C88.9275 63.7758 89.125 64.2527 89.125 64.75Z" fill="#343330"/>
<path d="M130.797 83.6719C131.932 83.6719 132.854 83.5469 133.562 83.2969C134.906 82.8177 135.578 81.9271 135.578 80.625C135.578 79.8646 135.245 79.276 134.578 78.8594C133.911 78.4531 132.865 78.0938 131.438 77.7812L129 77.2344C126.604 76.6927 124.948 76.1042 124.031 75.4688C122.479 74.4062 121.703 72.7448 121.703 70.4844C121.703 68.4219 122.453 66.7083 123.953 65.3438C125.453 63.9792 127.656 63.2969 130.562 63.2969C132.99 63.2969 135.057 63.9427 136.766 65.2344C138.484 66.5156 139.385 68.3802 139.469 70.8281H134.844C134.76 69.4427 134.156 68.4583 133.031 67.875C132.281 67.4896 131.349 67.2969 130.234 67.2969C128.995 67.2969 128.005 67.5469 127.266 68.0469C126.526 68.5469 126.156 69.2448 126.156 70.1406C126.156 70.9635 126.521 71.5781 127.25 71.9844C127.719 72.2552 128.719 72.5729 130.25 72.9375L134.219 73.8906C135.958 74.3073 137.271 74.8646 138.156 75.5625C139.531 76.6458 140.219 78.2135 140.219 80.2656C140.219 82.3698 139.411 84.1198 137.797 85.5156C136.193 86.901 133.922 87.5938 130.984 87.5938C127.984 87.5938 125.625 86.9115 123.906 85.5469C122.188 84.1719 121.328 82.2865 121.328 79.8906H125.922C126.068 80.9427 126.354 81.7292 126.781 82.25C127.562 83.1979 128.901 83.6719 130.797 83.6719ZM151.619 83.8281V87.1562L149.509 87.2344C147.405 87.3073 145.968 86.9427 145.197 86.1406C144.697 85.6302 144.447 84.8438 144.447 83.7812V73.2969H142.072V70.125H144.447V65.375H148.853V70.125H151.619V73.2969H148.853V82.2969C148.853 82.9948 148.942 83.4323 149.119 83.6094C149.296 83.776 149.837 83.8594 150.744 83.8594C150.879 83.8594 151.02 83.8594 151.166 83.8594C151.322 83.849 151.473 83.8385 151.619 83.8281ZM163.441 74.0781C161.649 74.0781 160.446 74.6615 159.831 75.8281C159.487 76.4844 159.316 77.4948 159.316 78.8594V87H154.831V69.9688H159.081V72.9375C159.769 71.8021 160.368 71.026 160.878 70.6094C161.711 69.9115 162.795 69.5625 164.128 69.5625C164.211 69.5625 164.279 69.5677 164.331 69.5781C164.394 69.5781 164.524 69.5833 164.722 69.5938V74.1562C164.441 74.125 164.191 74.1042 163.972 74.0938C163.753 74.0833 163.576 74.0781 163.441 74.0781ZM172.325 69.9688V87H167.809V69.9688H172.325ZM172.325 63.8281V67.9375H167.809V63.8281H172.325ZM185.069 73.2656C183.558 73.2656 182.522 73.9062 181.959 75.1875C181.668 75.8646 181.522 76.7292 181.522 77.7812V87H177.084V70H181.381V72.4844C181.954 71.6094 182.496 70.9792 183.006 70.5938C183.923 69.9062 185.084 69.5625 186.491 69.5625C188.251 69.5625 189.689 70.026 190.803 70.9531C191.928 71.8698 192.491 73.3958 192.491 75.5312V87H187.928V76.6406C187.928 75.7448 187.808 75.0573 187.569 74.5781C187.131 73.7031 186.298 73.2656 185.069 73.2656ZM201.828 89.9844C202.307 90.3906 203.115 90.5938 204.25 90.5938C205.854 90.5938 206.927 90.0573 207.469 88.9844C207.823 88.2969 208 87.1406 208 85.5156V84.4219C207.573 85.151 207.115 85.6979 206.625 86.0625C205.74 86.7396 204.589 87.0781 203.172 87.0781C200.984 87.0781 199.234 86.3125 197.922 84.7812C196.62 83.2396 195.969 81.1562 195.969 78.5312C195.969 76 196.599 73.875 197.859 72.1562C199.12 70.4271 200.906 69.5625 203.219 69.5625C204.073 69.5625 204.818 69.6927 205.453 69.9531C206.536 70.401 207.411 71.224 208.078 72.4219V69.9688H212.406V86.125C212.406 88.3229 212.036 89.9792 211.297 91.0938C210.026 93.0104 207.589 93.9688 203.984 93.9688C201.807 93.9688 200.031 93.5417 198.656 92.6875C197.281 91.8333 196.521 90.5573 196.375 88.8594H201.219C201.344 89.3802 201.547 89.7552 201.828 89.9844ZM201.078 81.1875C201.682 82.625 202.766 83.3438 204.328 83.3438C205.37 83.3438 206.25 82.9531 206.969 82.1719C207.688 81.3802 208.047 80.125 208.047 78.4062C208.047 76.7917 207.703 75.5625 207.016 74.7188C206.339 73.875 205.427 73.4531 204.281 73.4531C202.719 73.4531 201.641 74.1875 201.047 75.6562C200.734 76.4375 200.578 77.401 200.578 78.5469C200.578 79.5365 200.745 80.4167 201.078 81.1875Z" fill="black"/>
<rect x="644" y="405.5" width="242" height="99" rx="49.5" fill="white"/>
<rect x="644" y="405.5" width="242" height="99" rx="49.5" stroke="#134DE1" stroke-width="5"/>
<path d="M722.625 443.75V448.75C722.625 449.247 722.427 449.724 722.076 450.076C721.724 450.427 721.247 450.625 720.75 450.625C720.253 450.625 719.776 450.427 719.424 450.076C719.073 449.724 718.875 449.247 718.875 448.75V445.625H711.375V464.375H714.5C714.997 464.375 715.474 464.573 715.826 464.924C716.177 465.276 716.375 465.753 716.375 466.25C716.375 466.747 716.177 467.224 715.826 467.576C715.474 467.927 714.997 468.125 714.5 468.125H704.5C704.003 468.125 703.526 467.927 703.174 467.576C702.823 467.224 702.625 466.747 702.625 466.25C702.625 465.753 702.823 465.276 703.174 464.924C703.526 464.573 704.003 464.375 704.5 464.375H707.625V445.625H700.125V448.75C700.125 449.247 699.927 449.724 699.576 450.076C699.224 450.427 698.747 450.625 698.25 450.625C697.753 450.625 697.276 450.427 696.924 450.076C696.573 449.724 696.375 449.247 696.375 448.75V443.75C696.375 443.253 696.573 442.776 696.924 442.424C697.276 442.073 697.753 441.875 698.25 441.875H720.75C721.247 441.875 721.724 442.073 722.076 442.424C722.427 442.776 722.625 443.253 722.625 443.75Z" fill="#343330"/>
<path d="M764.297 462.672C765.432 462.672 766.354 462.547 767.062 462.297C768.406 461.818 769.078 460.927 769.078 459.625C769.078 458.865 768.745 458.276 768.078 457.859C767.411 457.453 766.365 457.094 764.938 456.781L762.5 456.234C760.104 455.693 758.448 455.104 757.531 454.469C755.979 453.406 755.203 451.745 755.203 449.484C755.203 447.422 755.953 445.708 757.453 444.344C758.953 442.979 761.156 442.297 764.062 442.297C766.49 442.297 768.557 442.943 770.266 444.234C771.984 445.516 772.885 447.38 772.969 449.828H768.344C768.26 448.443 767.656 447.458 766.531 446.875C765.781 446.49 764.849 446.297 763.734 446.297C762.495 446.297 761.505 446.547 760.766 447.047C760.026 447.547 759.656 448.245 759.656 449.141C759.656 449.964 760.021 450.578 760.75 450.984C761.219 451.255 762.219 451.573 763.75 451.938L767.719 452.891C769.458 453.307 770.771 453.865 771.656 454.562C773.031 455.646 773.719 457.214 773.719 459.266C773.719 461.37 772.911 463.12 771.297 464.516C769.693 465.901 767.422 466.594 764.484 466.594C761.484 466.594 759.125 465.911 757.406 464.547C755.688 463.172 754.828 461.286 754.828 458.891H759.422C759.568 459.943 759.854 460.729 760.281 461.25C761.062 462.198 762.401 462.672 764.297 462.672ZM785.119 462.828V466.156L783.009 466.234C780.905 466.307 779.468 465.943 778.697 465.141C778.197 464.63 777.947 463.844 777.947 462.781V452.297H775.572V449.125H777.947V444.375H782.353V449.125H785.119V452.297H782.353V461.297C782.353 461.995 782.442 462.432 782.619 462.609C782.796 462.776 783.337 462.859 784.244 462.859C784.379 462.859 784.52 462.859 784.666 462.859C784.822 462.849 784.973 462.839 785.119 462.828ZM796.941 453.078C795.149 453.078 793.946 453.661 793.331 454.828C792.987 455.484 792.816 456.495 792.816 457.859V466H788.331V448.969H792.581V451.938C793.269 450.802 793.868 450.026 794.378 449.609C795.211 448.911 796.295 448.562 797.628 448.562C797.711 448.562 797.779 448.568 797.831 448.578C797.894 448.578 798.024 448.583 798.222 448.594V453.156C797.941 453.125 797.691 453.104 797.472 453.094C797.253 453.083 797.076 453.078 796.941 453.078ZM805.825 448.969V466H801.309V448.969H805.825ZM805.825 442.828V446.938H801.309V442.828H805.825ZM818.569 452.266C817.058 452.266 816.022 452.906 815.459 454.188C815.168 454.865 815.022 455.729 815.022 456.781V466H810.584V449H814.881V451.484C815.454 450.609 815.996 449.979 816.506 449.594C817.423 448.906 818.584 448.562 819.991 448.562C821.751 448.562 823.189 449.026 824.303 449.953C825.428 450.87 825.991 452.396 825.991 454.531V466H821.428V455.641C821.428 454.745 821.308 454.057 821.069 453.578C820.631 452.703 819.798 452.266 818.569 452.266ZM835.328 468.984C835.807 469.391 836.615 469.594 837.75 469.594C839.354 469.594 840.427 469.057 840.969 467.984C841.323 467.297 841.5 466.141 841.5 464.516V463.422C841.073 464.151 840.615 464.698 840.125 465.062C839.24 465.74 838.089 466.078 836.672 466.078C834.484 466.078 832.734 465.312 831.422 463.781C830.12 462.24 829.469 460.156 829.469 457.531C829.469 455 830.099 452.875 831.359 451.156C832.62 449.427 834.406 448.562 836.719 448.562C837.573 448.562 838.318 448.693 838.953 448.953C840.036 449.401 840.911 450.224 841.578 451.422V448.969H845.906V465.125C845.906 467.323 845.536 468.979 844.797 470.094C843.526 472.01 841.089 472.969 837.484 472.969C835.307 472.969 833.531 472.542 832.156 471.688C830.781 470.833 830.021 469.557 829.875 467.859H834.719C834.844 468.38 835.047 468.755 835.328 468.984ZM834.578 460.188C835.182 461.625 836.266 462.344 837.828 462.344C838.87 462.344 839.75 461.953 840.469 461.172C841.188 460.38 841.547 459.125 841.547 457.406C841.547 455.792 841.203 454.562 840.516 453.719C839.839 452.875 838.927 452.453 837.781 452.453C836.219 452.453 835.141 453.188 834.547 454.656C834.234 455.438 834.078 456.401 834.078 457.547C834.078 458.536 834.245 459.417 834.578 460.188Z" fill="black"/>
<rect x="1063.5" y="487.5" width="157" height="83" rx="41.5" fill="white"/>
<rect x="1063.5" y="487.5" width="157" height="83" rx="41.5" stroke="#134DE1" stroke-width="5"/>
<path d="M1117.17 540V529.719H1108.17V540H1103.41V516.969H1108.17V525.75H1117.17V516.969H1121.95V540H1117.17ZM1140.81 525.125C1142.24 526.927 1142.96 529.057 1142.96 531.516C1142.96 534.016 1142.24 536.156 1140.81 537.938C1139.37 539.708 1137.19 540.594 1134.26 540.594C1131.33 540.594 1129.15 539.708 1127.71 537.938C1126.27 536.156 1125.56 534.016 1125.56 531.516C1125.56 529.057 1126.27 526.927 1127.71 525.125C1129.15 523.323 1131.33 522.422 1134.26 522.422C1137.19 522.422 1139.37 523.323 1140.81 525.125ZM1134.24 526.188C1132.94 526.188 1131.94 526.651 1131.23 527.578C1130.53 528.495 1130.18 529.807 1130.18 531.516C1130.18 533.224 1130.53 534.542 1131.23 535.469C1131.94 536.396 1132.94 536.859 1134.24 536.859C1135.55 536.859 1136.55 536.396 1137.24 535.469C1137.94 534.542 1138.29 533.224 1138.29 531.516C1138.29 529.807 1137.94 528.495 1137.24 527.578C1136.55 526.651 1135.55 526.188 1134.24 526.188ZM1146.66 516.969H1151.11V540H1146.66V516.969ZM1156.51 524.812C1157.69 523.312 1159.71 522.562 1162.58 522.562C1164.44 522.562 1166.1 522.932 1167.54 523.672C1168.99 524.411 1169.72 525.807 1169.72 527.859V535.672C1169.72 536.214 1169.73 536.87 1169.75 537.641C1169.78 538.224 1169.87 538.62 1170.01 538.828C1170.16 539.036 1170.38 539.208 1170.67 539.344V540H1165.83C1165.69 539.656 1165.6 539.333 1165.54 539.031C1165.49 538.729 1165.45 538.385 1165.42 538C1164.8 538.667 1164.1 539.234 1163.29 539.703C1162.34 540.255 1161.25 540.531 1160.04 540.531C1158.5 540.531 1157.23 540.094 1156.22 539.219C1155.22 538.333 1154.72 537.083 1154.72 535.469C1154.72 533.375 1155.52 531.859 1157.14 530.922C1158.02 530.411 1159.33 530.047 1161.04 529.828L1162.56 529.641C1163.38 529.536 1163.97 529.406 1164.33 529.25C1164.96 528.979 1165.28 528.557 1165.28 527.984C1165.28 527.286 1165.03 526.807 1164.54 526.547C1164.06 526.276 1163.36 526.141 1162.42 526.141C1161.37 526.141 1160.62 526.401 1160.18 526.922C1159.87 527.307 1159.66 527.828 1159.56 528.484H1155.26C1155.36 526.995 1155.77 525.771 1156.51 524.812ZM1159.83 536.781C1160.24 537.125 1160.75 537.297 1161.36 537.297C1162.31 537.297 1163.19 537.016 1164 536.453C1164.81 535.891 1165.23 534.865 1165.26 533.375V531.719C1164.98 531.896 1164.69 532.042 1164.4 532.156C1164.12 532.26 1163.73 532.359 1163.23 532.453L1162.23 532.641C1161.29 532.807 1160.62 533.01 1160.22 533.25C1159.53 533.656 1159.18 534.286 1159.18 535.141C1159.18 535.901 1159.4 536.448 1159.83 536.781ZM1180.41 522.891L1179.15 533.641H1176.82L1175.52 522.891V517.047H1180.41V522.891ZM1180.29 535.484V540H1175.63V535.484H1180.29Z" fill="black"/>
<path d="M893 456H935.219C954.549 456 970.219 440.33 970.219 421V421C970.219 401.67 985.889 386 1005.22 386H1066" stroke="#134DE1" stroke-width="5"/>
<path d="M1065 526H1003.85C984.52 526 968.85 510.33 968.85 491V491C968.85 471.67 953.18 456 933.85 456H893" stroke="#134DE1" stroke-width="5"/>
<rect x="1067.5" y="345.5" width="166" height="83" rx="41.5" fill="white"/>
<rect x="1067.5" y="345.5" width="166" height="83" rx="41.5" stroke="#134DE1" stroke-width="5"/>
<path d="M1121.17 398V387.719H1112.17V398H1107.41V374.969H1112.17V383.75H1121.17V374.969H1125.95V398H1121.17ZM1145.18 393C1145.07 394.01 1144.54 395.036 1143.6 396.078C1142.14 397.734 1140.1 398.562 1137.48 398.562C1135.31 398.562 1133.4 397.865 1131.74 396.469C1130.09 395.073 1129.26 392.802 1129.26 389.656C1129.26 386.708 1130 384.448 1131.49 382.875C1132.99 381.302 1134.94 380.516 1137.32 380.516C1138.74 380.516 1140.01 380.781 1141.15 381.312C1142.29 381.844 1143.22 382.682 1143.96 383.828C1144.63 384.839 1145.06 386.01 1145.26 387.344C1145.37 388.125 1145.42 389.25 1145.4 390.719H1133.74C1133.81 392.427 1134.34 393.625 1135.35 394.312C1135.97 394.74 1136.71 394.953 1137.57 394.953C1138.49 394.953 1139.23 394.693 1139.81 394.172C1140.12 393.891 1140.39 393.5 1140.63 393H1145.18ZM1140.77 387.781C1140.7 386.604 1140.34 385.714 1139.7 385.109C1139.06 384.495 1138.27 384.188 1137.32 384.188C1136.29 384.188 1135.49 384.51 1134.92 385.156C1134.35 385.802 1134 386.677 1133.85 387.781H1140.77ZM1148.91 374.969H1153.36V398H1148.91V374.969ZM1158.22 374.969H1162.67V398H1158.22V374.969ZM1181.63 383.125C1183.07 384.927 1183.79 387.057 1183.79 389.516C1183.79 392.016 1183.07 394.156 1181.63 395.938C1180.19 397.708 1178.01 398.594 1175.08 398.594C1172.16 398.594 1169.97 397.708 1168.54 395.938C1167.1 394.156 1166.38 392.016 1166.38 389.516C1166.38 387.057 1167.1 384.927 1168.54 383.125C1169.97 381.323 1172.16 380.422 1175.08 380.422C1178.01 380.422 1180.19 381.323 1181.63 383.125ZM1175.07 384.188C1173.77 384.188 1172.76 384.651 1172.05 385.578C1171.36 386.495 1171.01 387.807 1171.01 389.516C1171.01 391.224 1171.36 392.542 1172.05 393.469C1172.76 394.396 1173.77 394.859 1175.07 394.859C1176.37 394.859 1177.37 394.396 1178.07 393.469C1178.77 392.542 1179.12 391.224 1179.12 389.516C1179.12 387.807 1178.77 386.495 1178.07 385.578C1177.37 384.651 1176.37 384.188 1175.07 384.188ZM1193.72 380.891L1192.45 391.641H1190.12L1188.83 380.891V375.047H1193.72V380.891ZM1193.59 393.484V398H1188.94V393.484H1193.59Z" fill="black"/>
<path d="M180 333C180 288.817 215.817 253 260 253H500C544.183 253 580 288.817 580 333V573C580 617.183 544.183 653 500 653H260C215.817 653 180 617.183 180 573V333Z" fill="black"/>
<path d="M304.547 475V446.727H279.797V475H266.691V411.664H279.797V435.812H304.547V411.664H317.695V475H304.547ZM369.473 461.25C369.158 464.029 367.711 466.85 365.133 469.715C361.122 474.27 355.508 476.547 348.289 476.547C342.331 476.547 337.074 474.628 332.52 470.789C327.965 466.951 325.688 460.706 325.688 452.055C325.688 443.948 327.736 437.732 331.832 433.406C335.957 429.081 341.299 426.918 347.859 426.918C351.755 426.918 355.264 427.648 358.387 429.109C361.509 430.57 364.087 432.876 366.121 436.027C367.954 438.806 369.143 442.029 369.688 445.695C370.003 447.844 370.132 450.938 370.074 454.977H338.02C338.191 459.674 339.667 462.969 342.445 464.859C344.135 466.034 346.169 466.621 348.547 466.621C351.068 466.621 353.116 465.905 354.691 464.473C355.551 463.699 356.31 462.625 356.969 461.25H369.473ZM357.355 446.898C357.155 443.661 356.167 441.212 354.391 439.551C352.643 437.861 350.466 437.016 347.859 437.016C345.023 437.016 342.818 437.904 341.242 439.68C339.695 441.456 338.721 443.862 338.32 446.898H357.355ZM378.625 411.664H390.871V475H378.625V411.664ZM403.117 411.664H415.363V475H403.117V411.664ZM466.41 434.094C470.363 439.049 472.34 444.908 472.34 451.668C472.34 458.543 470.363 464.43 466.41 469.328C462.457 474.198 456.456 476.633 448.406 476.633C440.357 476.633 434.355 474.198 430.402 469.328C426.449 464.43 424.473 458.543 424.473 451.668C424.473 444.908 426.449 439.049 430.402 434.094C434.355 429.138 440.357 426.66 448.406 426.66C456.456 426.66 462.457 429.138 466.41 434.094ZM448.363 437.016C444.783 437.016 442.018 438.29 440.07 440.84C438.151 443.361 437.191 446.97 437.191 451.668C437.191 456.366 438.151 459.99 440.07 462.539C442.018 465.089 444.783 466.363 448.363 466.363C451.944 466.363 454.694 465.089 456.613 462.539C458.533 459.99 459.492 456.366 459.492 451.668C459.492 446.97 458.533 443.361 456.613 440.84C454.694 438.29 451.944 437.016 448.363 437.016ZM480.934 462.195H493.953V475H480.934V462.195Z" fill="white"/>
<path d="M287.797 748.969V753.047H280.906V772H276.062V753.047H269.141V748.969H287.797ZM302.469 767C302.354 768.01 301.828 769.036 300.891 770.078C299.432 771.734 297.391 772.562 294.766 772.562C292.599 772.562 290.688 771.865 289.031 770.469C287.375 769.073 286.547 766.802 286.547 763.656C286.547 760.708 287.292 758.448 288.781 756.875C290.281 755.302 292.224 754.516 294.609 754.516C296.026 754.516 297.302 754.781 298.438 755.312C299.573 755.844 300.51 756.682 301.25 757.828C301.917 758.839 302.349 760.01 302.547 761.344C302.661 762.125 302.708 763.25 302.688 764.719H291.031C291.094 766.427 291.63 767.625 292.641 768.312C293.255 768.74 293.995 768.953 294.859 768.953C295.776 768.953 296.521 768.693 297.094 768.172C297.406 767.891 297.682 767.5 297.922 767H302.469ZM298.062 761.781C297.99 760.604 297.63 759.714 296.984 759.109C296.349 758.495 295.557 758.188 294.609 758.188C293.578 758.188 292.776 758.51 292.203 759.156C291.641 759.802 291.286 760.677 291.141 761.781H298.062ZM320.875 772H315.328L312.391 766.891L309.438 772H304.031L309.844 763.375L304.281 755H309.734L312.578 759.938L315.359 755H320.656L315.062 763.297L320.875 772ZM331.312 768.828V772.156L329.203 772.234C327.099 772.307 325.661 771.943 324.891 771.141C324.391 770.63 324.141 769.844 324.141 768.781V758.297H321.766V755.125H324.141V750.375H328.547V755.125H331.312V758.297H328.547V767.297C328.547 767.995 328.635 768.432 328.812 768.609C328.99 768.776 329.531 768.859 330.438 768.859C330.573 768.859 330.714 768.859 330.859 768.859C331.016 768.849 331.167 768.839 331.312 768.828ZM341.406 754.969H346.406L349.953 767.531L353.578 754.969H358.359L352.219 772H347.516L341.406 754.969ZM361.531 756.812C362.708 755.312 364.729 754.562 367.594 754.562C369.458 754.562 371.115 754.932 372.562 755.672C374.01 756.411 374.734 757.807 374.734 759.859V767.672C374.734 768.214 374.745 768.87 374.766 769.641C374.797 770.224 374.885 770.62 375.031 770.828C375.177 771.036 375.396 771.208 375.688 771.344V772H370.844C370.708 771.656 370.615 771.333 370.562 771.031C370.51 770.729 370.469 770.385 370.438 770C369.823 770.667 369.115 771.234 368.312 771.703C367.354 772.255 366.271 772.531 365.062 772.531C363.521 772.531 362.245 772.094 361.234 771.219C360.234 770.333 359.734 769.083 359.734 767.469C359.734 765.375 360.542 763.859 362.156 762.922C363.042 762.411 364.344 762.047 366.062 761.828L367.578 761.641C368.401 761.536 368.99 761.406 369.344 761.25C369.979 760.979 370.297 760.557 370.297 759.984C370.297 759.286 370.052 758.807 369.562 758.547C369.083 758.276 368.375 758.141 367.438 758.141C366.385 758.141 365.641 758.401 365.203 758.922C364.891 759.307 364.682 759.828 364.578 760.484H360.281C360.375 758.995 360.792 757.771 361.531 756.812ZM364.844 768.781C365.26 769.125 365.771 769.297 366.375 769.297C367.333 769.297 368.214 769.016 369.016 768.453C369.828 767.891 370.25 766.865 370.281 765.375V763.719C370 763.896 369.714 764.042 369.422 764.156C369.141 764.26 368.75 764.359 368.25 764.453L367.25 764.641C366.312 764.807 365.641 765.01 365.234 765.25C364.547 765.656 364.203 766.286 364.203 767.141C364.203 767.901 364.417 768.448 364.844 768.781ZM387.266 759.078C385.474 759.078 384.271 759.661 383.656 760.828C383.312 761.484 383.141 762.495 383.141 763.859V772H378.656V754.969H382.906V757.938C383.594 756.802 384.193 756.026 384.703 755.609C385.536 754.911 386.62 754.562 387.953 754.562C388.036 754.562 388.104 754.568 388.156 754.578C388.219 754.578 388.349 754.583 388.547 754.594V759.156C388.266 759.125 388.016 759.104 387.797 759.094C387.578 759.083 387.401 759.078 387.266 759.078ZM395.75 754.969V772H391.234V754.969H395.75ZM395.75 748.828V752.938H391.234V748.828H395.75ZM400.719 756.812C401.896 755.312 403.917 754.562 406.781 754.562C408.646 754.562 410.302 754.932 411.75 755.672C413.198 756.411 413.922 757.807 413.922 759.859V767.672C413.922 768.214 413.932 768.87 413.953 769.641C413.984 770.224 414.073 770.62 414.219 770.828C414.365 771.036 414.583 771.208 414.875 771.344V772H410.031C409.896 771.656 409.802 771.333 409.75 771.031C409.698 770.729 409.656 770.385 409.625 770C409.01 770.667 408.302 771.234 407.5 771.703C406.542 772.255 405.458 772.531 404.25 772.531C402.708 772.531 401.432 772.094 400.422 771.219C399.422 770.333 398.922 769.083 398.922 767.469C398.922 765.375 399.729 763.859 401.344 762.922C402.229 762.411 403.531 762.047 405.25 761.828L406.766 761.641C407.589 761.536 408.177 761.406 408.531 761.25C409.167 760.979 409.484 760.557 409.484 759.984C409.484 759.286 409.24 758.807 408.75 758.547C408.271 758.276 407.562 758.141 406.625 758.141C405.573 758.141 404.828 758.401 404.391 758.922C404.078 759.307 403.87 759.828 403.766 760.484H399.469C399.562 758.995 399.979 757.771 400.719 756.812ZM404.031 768.781C404.448 769.125 404.958 769.297 405.562 769.297C406.521 769.297 407.401 769.016 408.203 768.453C409.016 767.891 409.438 766.865 409.469 765.375V763.719C409.188 763.896 408.901 764.042 408.609 764.156C408.328 764.26 407.938 764.359 407.438 764.453L406.438 764.641C405.5 764.807 404.828 765.01 404.422 765.25C403.734 765.656 403.391 766.286 403.391 767.141C403.391 767.901 403.604 768.448 404.031 768.781ZM427.141 772.453C425.734 772.453 424.604 772.172 423.75 771.609C423.24 771.276 422.688 770.693 422.094 769.859V772H417.734V749H422.172V757.188C422.734 756.396 423.354 755.792 424.031 755.375C424.833 754.854 425.854 754.594 427.094 754.594C429.333 754.594 431.083 755.401 432.344 757.016C433.615 758.63 434.25 760.714 434.25 763.266C434.25 765.911 433.625 768.104 432.375 769.844C431.125 771.583 429.38 772.453 427.141 772.453ZM429.578 763.734C429.578 762.526 429.422 761.526 429.109 760.734C428.516 759.234 427.422 758.484 425.828 758.484C424.214 758.484 423.104 759.219 422.5 760.688C422.188 761.469 422.031 762.479 422.031 763.719C422.031 765.177 422.354 766.385 423 767.344C423.646 768.302 424.63 768.781 425.953 768.781C427.099 768.781 427.99 768.318 428.625 767.391C429.26 766.464 429.578 765.245 429.578 763.734ZM437.547 748.969H442V772H437.547V748.969ZM460.938 767C460.823 768.01 460.297 769.036 459.359 770.078C457.901 771.734 455.859 772.562 453.234 772.562C451.068 772.562 449.156 771.865 447.5 770.469C445.844 769.073 445.016 766.802 445.016 763.656C445.016 760.708 445.76 758.448 447.25 756.875C448.75 755.302 450.693 754.516 453.078 754.516C454.495 754.516 455.771 754.781 456.906 755.312C458.042 755.844 458.979 756.682 459.719 757.828C460.385 758.839 460.818 760.01 461.016 761.344C461.13 762.125 461.177 763.25 461.156 764.719H449.5C449.562 766.427 450.099 767.625 451.109 768.312C451.724 768.74 452.464 768.953 453.328 768.953C454.245 768.953 454.99 768.693 455.562 768.172C455.875 767.891 456.151 767.5 456.391 767H460.938ZM456.531 761.781C456.458 760.604 456.099 759.714 455.453 759.109C454.818 758.495 454.026 758.188 453.078 758.188C452.047 758.188 451.245 758.51 450.672 759.156C450.109 759.802 449.755 760.677 449.609 761.781H456.531ZM475.906 755.75C477.24 756.604 478.005 758.073 478.203 760.156H473.75C473.688 759.583 473.526 759.13 473.266 758.797C472.776 758.193 471.943 757.891 470.766 757.891C469.797 757.891 469.104 758.042 468.688 758.344C468.281 758.646 468.078 759 468.078 759.406C468.078 759.917 468.297 760.286 468.734 760.516C469.172 760.755 470.719 761.167 473.375 761.75C475.146 762.167 476.474 762.797 477.359 763.641C478.234 764.495 478.672 765.562 478.672 766.844C478.672 768.531 478.042 769.911 476.781 770.984C475.531 772.047 473.594 772.578 470.969 772.578C468.292 772.578 466.312 772.016 465.031 770.891C463.76 769.755 463.125 768.312 463.125 766.562H467.641C467.734 767.354 467.938 767.917 468.25 768.25C468.802 768.844 469.823 769.141 471.312 769.141C472.188 769.141 472.88 769.01 473.391 768.75C473.911 768.49 474.172 768.099 474.172 767.578C474.172 767.078 473.964 766.698 473.547 766.438C473.13 766.177 471.583 765.729 468.906 765.094C466.979 764.615 465.62 764.016 464.828 763.297C464.036 762.589 463.641 761.568 463.641 760.234C463.641 758.661 464.255 757.312 465.484 756.188C466.724 755.052 468.464 754.484 470.703 754.484C472.828 754.484 474.562 754.906 475.906 755.75ZM491.531 756.812C492.708 755.312 494.729 754.562 497.594 754.562C499.458 754.562 501.115 754.932 502.562 755.672C504.01 756.411 504.734 757.807 504.734 759.859V767.672C504.734 768.214 504.745 768.87 504.766 769.641C504.797 770.224 504.885 770.62 505.031 770.828C505.177 771.036 505.396 771.208 505.688 771.344V772H500.844C500.708 771.656 500.615 771.333 500.562 771.031C500.51 770.729 500.469 770.385 500.438 770C499.823 770.667 499.115 771.234 498.312 771.703C497.354 772.255 496.271 772.531 495.062 772.531C493.521 772.531 492.245 772.094 491.234 771.219C490.234 770.333 489.734 769.083 489.734 767.469C489.734 765.375 490.542 763.859 492.156 762.922C493.042 762.411 494.344 762.047 496.062 761.828L497.578 761.641C498.401 761.536 498.99 761.406 499.344 761.25C499.979 760.979 500.297 760.557 500.297 759.984C500.297 759.286 500.052 758.807 499.562 758.547C499.083 758.276 498.375 758.141 497.438 758.141C496.385 758.141 495.641 758.401 495.203 758.922C494.891 759.307 494.682 759.828 494.578 760.484H490.281C490.375 758.995 490.792 757.771 491.531 756.812ZM494.844 768.781C495.26 769.125 495.771 769.297 496.375 769.297C497.333 769.297 498.214 769.016 499.016 768.453C499.828 767.891 500.25 766.865 500.281 765.375V763.719C500 763.896 499.714 764.042 499.422 764.156C499.141 764.26 498.75 764.359 498.25 764.453L497.25 764.641C496.312 764.807 495.641 765.01 495.234 765.25C494.547 765.656 494.203 766.286 494.203 767.141C494.203 767.901 494.417 768.448 494.844 768.781ZM508.797 748.969H513.25V772H508.797V748.969ZM517.703 748.969H522.156V772H517.703V748.969ZM540.719 757.125C542.156 758.927 542.875 761.057 542.875 763.516C542.875 766.016 542.156 768.156 540.719 769.938C539.281 771.708 537.099 772.594 534.172 772.594C531.245 772.594 529.062 771.708 527.625 769.938C526.188 768.156 525.469 766.016 525.469 763.516C525.469 761.057 526.188 758.927 527.625 757.125C529.062 755.323 531.245 754.422 534.172 754.422C537.099 754.422 539.281 755.323 540.719 757.125ZM534.156 758.188C532.854 758.188 531.849 758.651 531.141 759.578C530.443 760.495 530.094 761.807 530.094 763.516C530.094 765.224 530.443 766.542 531.141 767.469C531.849 768.396 532.854 768.859 534.156 768.859C535.458 768.859 536.458 768.396 537.156 767.469C537.854 766.542 538.203 765.224 538.203 763.516C538.203 761.807 537.854 760.495 537.156 759.578C536.458 758.651 535.458 758.188 534.156 758.188ZM559 772L556.328 759.594L553.625 772H549L544.219 754.969H549L551.656 767.188L554.109 754.969H558.625L561.219 767.234L563.875 754.969H568.516L563.578 772H559ZM590.812 769.594C590.771 769.646 590.667 769.802 590.5 770.062C590.333 770.323 590.135 770.552 589.906 770.75C589.208 771.375 588.531 771.802 587.875 772.031C587.229 772.26 586.469 772.375 585.594 772.375C583.073 772.375 581.375 771.469 580.5 769.656C580.01 768.656 579.766 767.182 579.766 765.234V754.969H584.328V765.234C584.328 766.203 584.443 766.932 584.672 767.422C585.078 768.286 585.875 768.719 587.062 768.719C588.583 768.719 589.625 768.104 590.188 766.875C590.479 766.208 590.625 765.328 590.625 764.234V754.969H595.141V772H590.812V769.594ZM611.188 755.75C612.521 756.604 613.286 758.073 613.484 760.156H609.031C608.969 759.583 608.807 759.13 608.547 758.797C608.057 758.193 607.224 757.891 606.047 757.891C605.078 757.891 604.385 758.042 603.969 758.344C603.562 758.646 603.359 759 603.359 759.406C603.359 759.917 603.578 760.286 604.016 760.516C604.453 760.755 606 761.167 608.656 761.75C610.427 762.167 611.755 762.797 612.641 763.641C613.516 764.495 613.953 765.562 613.953 766.844C613.953 768.531 613.323 769.911 612.062 770.984C610.812 772.047 608.875 772.578 606.25 772.578C603.573 772.578 601.594 772.016 600.312 770.891C599.042 769.755 598.406 768.312 598.406 766.562H602.922C603.016 767.354 603.219 767.917 603.531 768.25C604.083 768.844 605.104 769.141 606.594 769.141C607.469 769.141 608.161 769.01 608.672 768.75C609.193 768.49 609.453 768.099 609.453 767.578C609.453 767.078 609.245 766.698 608.828 766.438C608.411 766.177 606.865 765.729 604.188 765.094C602.26 764.615 600.901 764.016 600.109 763.297C599.318 762.589 598.922 761.568 598.922 760.234C598.922 758.661 599.536 757.312 600.766 756.188C602.005 755.052 603.745 754.484 605.984 754.484C608.109 754.484 609.844 754.906 611.188 755.75ZM633.969 768.828V772.156L631.859 772.234C629.755 772.307 628.318 771.943 627.547 771.141C627.047 770.63 626.797 769.844 626.797 768.781V758.297H624.422V755.125H626.797V750.375H631.203V755.125H633.969V758.297H631.203V767.297C631.203 767.995 631.292 768.432 631.469 768.609C631.646 768.776 632.188 768.859 633.094 768.859C633.229 768.859 633.37 768.859 633.516 768.859C633.672 768.849 633.823 768.839 633.969 768.828ZM651.031 757.125C652.469 758.927 653.188 761.057 653.188 763.516C653.188 766.016 652.469 768.156 651.031 769.938C649.594 771.708 647.411 772.594 644.484 772.594C641.557 772.594 639.375 771.708 637.938 769.938C636.5 768.156 635.781 766.016 635.781 763.516C635.781 761.057 636.5 758.927 637.938 757.125C639.375 755.323 641.557 754.422 644.484 754.422C647.411 754.422 649.594 755.323 651.031 757.125ZM644.469 758.188C643.167 758.188 642.161 758.651 641.453 759.578C640.755 760.495 640.406 761.807 640.406 763.516C640.406 765.224 640.755 766.542 641.453 767.469C642.161 768.396 643.167 768.859 644.469 768.859C645.771 768.859 646.771 768.396 647.469 767.469C648.167 766.542 648.516 765.224 648.516 763.516C648.516 761.807 648.167 760.495 647.469 759.578C646.771 758.651 645.771 758.188 644.469 758.188ZM680.031 761.078H675.469C675.385 760.443 675.172 759.87 674.828 759.359C674.328 758.672 673.552 758.328 672.5 758.328C671 758.328 669.974 759.073 669.422 760.562C669.13 761.354 668.984 762.406 668.984 763.719C668.984 764.969 669.13 765.974 669.422 766.734C669.953 768.151 670.953 768.859 672.422 768.859C673.464 768.859 674.203 768.578 674.641 768.016C675.078 767.453 675.344 766.724 675.438 765.828H679.984C679.88 767.182 679.391 768.464 678.516 769.672C677.12 771.62 675.052 772.594 672.312 772.594C669.573 772.594 667.557 771.781 666.266 770.156C664.974 768.531 664.328 766.422 664.328 763.828C664.328 760.901 665.042 758.625 666.469 757C667.896 755.375 669.865 754.562 672.375 754.562C674.51 754.562 676.255 755.042 677.609 756C678.974 756.958 679.781 758.651 680.031 761.078ZM698.5 762V772H693.953V761.641C693.953 760.724 693.797 759.984 693.484 759.422C693.078 758.63 692.307 758.234 691.172 758.234C689.995 758.234 689.099 758.63 688.484 759.422C687.88 760.203 687.578 761.323 687.578 762.781V772H683.141V749.047H687.578V757.188C688.224 756.198 688.969 755.51 689.812 755.125C690.667 754.729 691.562 754.531 692.5 754.531C693.552 754.531 694.505 754.714 695.359 755.078C696.224 755.443 696.932 756 697.484 756.75C697.953 757.385 698.24 758.042 698.344 758.719C698.448 759.385 698.5 760.479 698.5 762ZM703.312 756.812C704.49 755.312 706.51 754.562 709.375 754.562C711.24 754.562 712.896 754.932 714.344 755.672C715.792 756.411 716.516 757.807 716.516 759.859V767.672C716.516 768.214 716.526 768.87 716.547 769.641C716.578 770.224 716.667 770.62 716.812 770.828C716.958 771.036 717.177 771.208 717.469 771.344V772H712.625C712.49 771.656 712.396 771.333 712.344 771.031C712.292 770.729 712.25 770.385 712.219 770C711.604 770.667 710.896 771.234 710.094 771.703C709.135 772.255 708.052 772.531 706.844 772.531C705.302 772.531 704.026 772.094 703.016 771.219C702.016 770.333 701.516 769.083 701.516 767.469C701.516 765.375 702.323 763.859 703.938 762.922C704.823 762.411 706.125 762.047 707.844 761.828L709.359 761.641C710.182 761.536 710.771 761.406 711.125 761.25C711.76 760.979 712.078 760.557 712.078 759.984C712.078 759.286 711.833 758.807 711.344 758.547C710.865 758.276 710.156 758.141 709.219 758.141C708.167 758.141 707.422 758.401 706.984 758.922C706.672 759.307 706.464 759.828 706.359 760.484H702.062C702.156 758.995 702.573 757.771 703.312 756.812ZM706.625 768.781C707.042 769.125 707.552 769.297 708.156 769.297C709.115 769.297 709.995 769.016 710.797 768.453C711.609 767.891 712.031 766.865 712.062 765.375V763.719C711.781 763.896 711.495 764.042 711.203 764.156C710.922 764.26 710.531 764.359 710.031 764.453L709.031 764.641C708.094 764.807 707.422 765.01 707.016 765.25C706.328 765.656 705.984 766.286 705.984 767.141C705.984 767.901 706.198 768.448 706.625 768.781ZM728.5 758.266C726.99 758.266 725.953 758.906 725.391 760.188C725.099 760.865 724.953 761.729 724.953 762.781V772H720.516V755H724.812V757.484C725.385 756.609 725.927 755.979 726.438 755.594C727.354 754.906 728.516 754.562 729.922 754.562C731.682 754.562 733.12 755.026 734.234 755.953C735.359 756.87 735.922 758.396 735.922 760.531V772H731.359V761.641C731.359 760.745 731.24 760.057 731 759.578C730.562 758.703 729.729 758.266 728.5 758.266ZM744.859 774.984C745.339 775.391 746.146 775.594 747.281 775.594C748.885 775.594 749.958 775.057 750.5 773.984C750.854 773.297 751.031 772.141 751.031 770.516V769.422C750.604 770.151 750.146 770.698 749.656 771.062C748.771 771.74 747.62 772.078 746.203 772.078C744.016 772.078 742.266 771.312 740.953 769.781C739.651 768.24 739 766.156 739 763.531C739 761 739.63 758.875 740.891 757.156C742.151 755.427 743.938 754.562 746.25 754.562C747.104 754.562 747.849 754.693 748.484 754.953C749.568 755.401 750.443 756.224 751.109 757.422V754.969H755.438V771.125C755.438 773.323 755.068 774.979 754.328 776.094C753.057 778.01 750.62 778.969 747.016 778.969C744.839 778.969 743.062 778.542 741.688 777.688C740.312 776.833 739.552 775.557 739.406 773.859H744.25C744.375 774.38 744.578 774.755 744.859 774.984ZM744.109 766.188C744.714 767.625 745.797 768.344 747.359 768.344C748.401 768.344 749.281 767.953 750 767.172C750.719 766.38 751.078 765.125 751.078 763.406C751.078 761.792 750.734 760.562 750.047 759.719C749.37 758.875 748.458 758.453 747.312 758.453C745.75 758.453 744.672 759.188 744.078 760.656C743.766 761.438 743.609 762.401 743.609 763.547C743.609 764.536 743.776 765.417 744.109 766.188ZM774.188 767C774.073 768.01 773.547 769.036 772.609 770.078C771.151 771.734 769.109 772.562 766.484 772.562C764.318 772.562 762.406 771.865 760.75 770.469C759.094 769.073 758.266 766.802 758.266 763.656C758.266 760.708 759.01 758.448 760.5 756.875C762 755.302 763.943 754.516 766.328 754.516C767.745 754.516 769.021 754.781 770.156 755.312C771.292 755.844 772.229 756.682 772.969 757.828C773.635 758.839 774.068 760.01 774.266 761.344C774.38 762.125 774.427 763.25 774.406 764.719H762.75C762.812 766.427 763.349 767.625 764.359 768.312C764.974 768.74 765.714 768.953 766.578 768.953C767.495 768.953 768.24 768.693 768.812 768.172C769.125 767.891 769.401 767.5 769.641 767H774.188ZM769.781 761.781C769.708 760.604 769.349 759.714 768.703 759.109C768.068 758.495 767.276 758.188 766.328 758.188C765.297 758.188 764.495 758.51 763.922 759.156C763.359 759.802 763.005 760.677 762.859 761.781H769.781ZM794.125 768.828V772.156L792.016 772.234C789.911 772.307 788.474 771.943 787.703 771.141C787.203 770.63 786.953 769.844 786.953 768.781V758.297H784.578V755.125H786.953V750.375H791.359V755.125H794.125V758.297H791.359V767.297C791.359 767.995 791.448 768.432 791.625 768.609C791.802 768.776 792.344 768.859 793.25 768.859C793.385 768.859 793.526 768.859 793.672 768.859C793.828 768.849 793.979 768.839 794.125 768.828ZM811.562 767C811.448 768.01 810.922 769.036 809.984 770.078C808.526 771.734 806.484 772.562 803.859 772.562C801.693 772.562 799.781 771.865 798.125 770.469C796.469 769.073 795.641 766.802 795.641 763.656C795.641 760.708 796.385 758.448 797.875 756.875C799.375 755.302 801.318 754.516 803.703 754.516C805.12 754.516 806.396 754.781 807.531 755.312C808.667 755.844 809.604 756.682 810.344 757.828C811.01 758.839 811.443 760.01 811.641 761.344C811.755 762.125 811.802 763.25 811.781 764.719H800.125C800.188 766.427 800.724 767.625 801.734 768.312C802.349 768.74 803.089 768.953 803.953 768.953C804.87 768.953 805.615 768.693 806.188 768.172C806.5 767.891 806.776 767.5 807.016 767H811.562ZM807.156 761.781C807.083 760.604 806.724 759.714 806.078 759.109C805.443 758.495 804.651 758.188 803.703 758.188C802.672 758.188 801.87 758.51 801.297 759.156C800.734 759.802 800.38 760.677 800.234 761.781H807.156ZM829.969 772H824.422L821.484 766.891L818.531 772H813.125L818.938 763.375L813.375 755H818.828L821.672 759.938L824.453 755H829.75L824.156 763.297L829.969 772ZM840.406 768.828V772.156L838.297 772.234C836.193 772.307 834.755 771.943 833.984 771.141C833.484 770.63 833.234 769.844 833.234 768.781V758.297H830.859V755.125H833.234V750.375H837.641V755.125H840.406V758.297H837.641V767.297C837.641 767.995 837.729 768.432 837.906 768.609C838.083 768.776 838.625 768.859 839.531 768.859C839.667 768.859 839.807 768.859 839.953 768.859C840.109 768.849 840.26 768.839 840.406 768.828ZM863.906 755.75C865.24 756.604 866.005 758.073 866.203 760.156H861.75C861.688 759.583 861.526 759.13 861.266 758.797C860.776 758.193 859.943 757.891 858.766 757.891C857.797 757.891 857.104 758.042 856.688 758.344C856.281 758.646 856.078 759 856.078 759.406C856.078 759.917 856.297 760.286 856.734 760.516C857.172 760.755 858.719 761.167 861.375 761.75C863.146 762.167 864.474 762.797 865.359 763.641C866.234 764.495 866.672 765.562 866.672 766.844C866.672 768.531 866.042 769.911 864.781 770.984C863.531 772.047 861.594 772.578 858.969 772.578C856.292 772.578 854.312 772.016 853.031 770.891C851.76 769.755 851.125 768.312 851.125 766.562H855.641C855.734 767.354 855.938 767.917 856.25 768.25C856.802 768.844 857.823 769.141 859.312 769.141C860.188 769.141 860.88 769.01 861.391 768.75C861.911 768.49 862.172 768.099 862.172 767.578C862.172 767.078 861.964 766.698 861.547 766.438C861.13 766.177 859.583 765.729 856.906 765.094C854.979 764.615 853.62 764.016 852.828 763.297C852.036 762.589 851.641 761.568 851.641 760.234C851.641 758.661 852.255 757.312 853.484 756.188C854.724 755.052 856.464 754.484 858.703 754.484C860.828 754.484 862.562 754.906 863.906 755.75ZM877.781 768.828V772.156L875.672 772.234C873.568 772.307 872.13 771.943 871.359 771.141C870.859 770.63 870.609 769.844 870.609 768.781V758.297H868.234V755.125H870.609V750.375H875.016V755.125H877.781V758.297H875.016V767.297C875.016 767.995 875.104 768.432 875.281 768.609C875.458 768.776 876 768.859 876.906 768.859C877.042 768.859 877.182 768.859 877.328 768.859C877.484 768.849 877.635 768.839 877.781 768.828ZM889.203 759.078C887.411 759.078 886.208 759.661 885.594 760.828C885.25 761.484 885.078 762.495 885.078 763.859V772H880.594V754.969H884.844V757.938C885.531 756.802 886.13 756.026 886.641 755.609C887.474 754.911 888.557 754.562 889.891 754.562C889.974 754.562 890.042 754.568 890.094 754.578C890.156 754.578 890.286 754.583 890.484 754.594V759.156C890.203 759.125 889.953 759.104 889.734 759.094C889.516 759.083 889.339 759.078 889.203 759.078ZM897.688 754.969V772H893.172V754.969H897.688ZM897.688 748.828V752.938H893.172V748.828H897.688ZM910.031 758.266C908.521 758.266 907.484 758.906 906.922 760.188C906.63 760.865 906.484 761.729 906.484 762.781V772H902.047V755H906.344V757.484C906.917 756.609 907.458 755.979 907.969 755.594C908.885 754.906 910.047 754.562 911.453 754.562C913.214 754.562 914.651 755.026 915.766 755.953C916.891 756.87 917.453 758.396 917.453 760.531V772H912.891V761.641C912.891 760.745 912.771 760.057 912.531 759.578C912.094 758.703 911.26 758.266 910.031 758.266ZM926.391 774.984C926.87 775.391 927.677 775.594 928.812 775.594C930.417 775.594 931.49 775.057 932.031 773.984C932.385 773.297 932.562 772.141 932.562 770.516V769.422C932.135 770.151 931.677 770.698 931.188 771.062C930.302 771.74 929.151 772.078 927.734 772.078C925.547 772.078 923.797 771.312 922.484 769.781C921.182 768.24 920.531 766.156 920.531 763.531C920.531 761 921.161 758.875 922.422 757.156C923.682 755.427 925.469 754.562 927.781 754.562C928.635 754.562 929.38 754.693 930.016 754.953C931.099 755.401 931.974 756.224 932.641 757.422V754.969H936.969V771.125C936.969 773.323 936.599 774.979 935.859 776.094C934.589 778.01 932.151 778.969 928.547 778.969C926.37 778.969 924.594 778.542 923.219 777.688C921.844 776.833 921.083 775.557 920.938 773.859H925.781C925.906 774.38 926.109 774.755 926.391 774.984ZM925.641 766.188C926.245 767.625 927.328 768.344 928.891 768.344C929.932 768.344 930.812 767.953 931.531 767.172C932.25 766.38 932.609 765.125 932.609 763.406C932.609 761.792 932.266 760.562 931.578 759.719C930.901 758.875 929.99 758.453 928.844 758.453C927.281 758.453 926.203 759.188 925.609 760.656C925.297 761.438 925.141 762.401 925.141 763.547C925.141 764.536 925.307 765.417 925.641 766.188ZM952.875 755.75C954.208 756.604 954.974 758.073 955.172 760.156H950.719C950.656 759.583 950.495 759.13 950.234 758.797C949.745 758.193 948.911 757.891 947.734 757.891C946.766 757.891 946.073 758.042 945.656 758.344C945.25 758.646 945.047 759 945.047 759.406C945.047 759.917 945.266 760.286 945.703 760.516C946.141 760.755 947.688 761.167 950.344 761.75C952.115 762.167 953.443 762.797 954.328 763.641C955.203 764.495 955.641 765.562 955.641 766.844C955.641 768.531 955.01 769.911 953.75 770.984C952.5 772.047 950.562 772.578 947.938 772.578C945.26 772.578 943.281 772.016 942 770.891C940.729 769.755 940.094 768.312 940.094 766.562H944.609C944.703 767.354 944.906 767.917 945.219 768.25C945.771 768.844 946.792 769.141 948.281 769.141C949.156 769.141 949.849 769.01 950.359 768.75C950.88 768.49 951.141 768.099 951.141 767.578C951.141 767.078 950.932 766.698 950.516 766.438C950.099 766.177 948.552 765.729 945.875 765.094C943.948 764.615 942.589 764.016 941.797 763.297C941.005 762.589 940.609 761.568 940.609 760.234C940.609 758.661 941.224 757.312 942.453 756.188C943.693 755.052 945.432 754.484 947.672 754.484C949.797 754.484 951.531 754.906 952.875 755.75ZM977.109 772.453C975.703 772.453 974.573 772.172 973.719 771.609C973.208 771.276 972.656 770.693 972.062 769.859V772H967.703V749H972.141V757.188C972.703 756.396 973.323 755.792 974 755.375C974.802 754.854 975.823 754.594 977.062 754.594C979.302 754.594 981.052 755.401 982.312 757.016C983.583 758.63 984.219 760.714 984.219 763.266C984.219 765.911 983.594 768.104 982.344 769.844C981.094 771.583 979.349 772.453 977.109 772.453ZM979.547 763.734C979.547 762.526 979.391 761.526 979.078 760.734C978.484 759.234 977.391 758.484 975.797 758.484C974.182 758.484 973.073 759.219 972.469 760.688C972.156 761.469 972 762.479 972 763.719C972 765.177 972.323 766.385 972.969 767.344C973.615 768.302 974.599 768.781 975.922 768.781C977.068 768.781 977.958 768.318 978.594 767.391C979.229 766.464 979.547 765.245 979.547 763.734ZM988.062 756.812C989.24 755.312 991.26 754.562 994.125 754.562C995.99 754.562 997.646 754.932 999.094 755.672C1000.54 756.411 1001.27 757.807 1001.27 759.859V767.672C1001.27 768.214 1001.28 768.87 1001.3 769.641C1001.33 770.224 1001.42 770.62 1001.56 770.828C1001.71 771.036 1001.93 771.208 1002.22 771.344V772H997.375C997.24 771.656 997.146 771.333 997.094 771.031C997.042 770.729 997 770.385 996.969 770C996.354 770.667 995.646 771.234 994.844 771.703C993.885 772.255 992.802 772.531 991.594 772.531C990.052 772.531 988.776 772.094 987.766 771.219C986.766 770.333 986.266 769.083 986.266 767.469C986.266 765.375 987.073 763.859 988.688 762.922C989.573 762.411 990.875 762.047 992.594 761.828L994.109 761.641C994.932 761.536 995.521 761.406 995.875 761.25C996.51 760.979 996.828 760.557 996.828 759.984C996.828 759.286 996.583 758.807 996.094 758.547C995.615 758.276 994.906 758.141 993.969 758.141C992.917 758.141 992.172 758.401 991.734 758.922C991.422 759.307 991.214 759.828 991.109 760.484H986.812C986.906 758.995 987.323 757.771 988.062 756.812ZM991.375 768.781C991.792 769.125 992.302 769.297 992.906 769.297C993.865 769.297 994.745 769.016 995.547 768.453C996.359 767.891 996.781 766.865 996.812 765.375V763.719C996.531 763.896 996.245 764.042 995.953 764.156C995.672 764.26 995.281 764.359 994.781 764.453L993.781 764.641C992.844 764.807 992.172 765.01 991.766 765.25C991.078 765.656 990.734 766.286 990.734 767.141C990.734 767.901 990.948 768.448 991.375 768.781ZM1016.97 755.75C1018.3 756.604 1019.07 758.073 1019.27 760.156H1014.81C1014.75 759.583 1014.59 759.13 1014.33 758.797C1013.84 758.193 1013.01 757.891 1011.83 757.891C1010.86 757.891 1010.17 758.042 1009.75 758.344C1009.34 758.646 1009.14 759 1009.14 759.406C1009.14 759.917 1009.36 760.286 1009.8 760.516C1010.23 760.755 1011.78 761.167 1014.44 761.75C1016.21 762.167 1017.54 762.797 1018.42 763.641C1019.3 764.495 1019.73 765.562 1019.73 766.844C1019.73 768.531 1019.1 769.911 1017.84 770.984C1016.59 772.047 1014.66 772.578 1012.03 772.578C1009.35 772.578 1007.38 772.016 1006.09 770.891C1004.82 769.755 1004.19 768.312 1004.19 766.562H1008.7C1008.8 767.354 1009 767.917 1009.31 768.25C1009.86 768.844 1010.89 769.141 1012.38 769.141C1013.25 769.141 1013.94 769.01 1014.45 768.75C1014.97 768.49 1015.23 768.099 1015.23 767.578C1015.23 767.078 1015.03 766.698 1014.61 766.438C1014.19 766.177 1012.65 765.729 1009.97 765.094C1008.04 764.615 1006.68 764.016 1005.89 763.297C1005.1 762.589 1004.7 761.568 1004.7 760.234C1004.7 758.661 1005.32 757.312 1006.55 756.188C1007.79 755.052 1009.53 754.484 1011.77 754.484C1013.89 754.484 1015.62 754.906 1016.97 755.75ZM1037.62 767C1037.51 768.01 1036.98 769.036 1036.05 770.078C1034.59 771.734 1032.55 772.562 1029.92 772.562C1027.76 772.562 1025.84 771.865 1024.19 770.469C1022.53 769.073 1021.7 766.802 1021.7 763.656C1021.7 760.708 1022.45 758.448 1023.94 756.875C1025.44 755.302 1027.38 754.516 1029.77 754.516C1031.18 754.516 1032.46 754.781 1033.59 755.312C1034.73 755.844 1035.67 756.682 1036.41 757.828C1037.07 758.839 1037.51 760.01 1037.7 761.344C1037.82 762.125 1037.86 763.25 1037.84 764.719H1026.19C1026.25 766.427 1026.79 767.625 1027.8 768.312C1028.41 768.74 1029.15 768.953 1030.02 768.953C1030.93 768.953 1031.68 768.693 1032.25 768.172C1032.56 767.891 1032.84 767.5 1033.08 767H1037.62ZM1033.22 761.781C1033.15 760.604 1032.79 759.714 1032.14 759.109C1031.51 758.495 1030.71 758.188 1029.77 758.188C1028.73 758.188 1027.93 758.51 1027.36 759.156C1026.8 759.802 1026.44 760.677 1026.3 761.781H1033.22ZM1056.36 749V772H1052.03V769.641C1051.4 770.651 1050.67 771.385 1049.86 771.844C1049.05 772.302 1048.04 772.531 1046.83 772.531C1044.84 772.531 1043.16 771.729 1041.8 770.125C1040.44 768.51 1039.77 766.443 1039.77 763.922C1039.77 761.016 1040.43 758.729 1041.77 757.062C1043.11 755.396 1044.9 754.562 1047.14 754.562C1048.17 754.562 1049.09 754.792 1049.89 755.25C1050.69 755.698 1051.34 756.323 1051.84 757.125V749H1056.36ZM1044.36 763.594C1044.36 765.167 1044.67 766.422 1045.3 767.359C1045.91 768.307 1046.85 768.781 1048.11 768.781C1049.37 768.781 1050.33 768.312 1050.98 767.375C1051.64 766.438 1051.97 765.224 1051.97 763.734C1051.97 761.651 1051.44 760.161 1050.39 759.266C1049.74 758.724 1048.99 758.453 1048.14 758.453C1046.84 758.453 1045.88 758.948 1045.27 759.938C1044.66 760.917 1044.36 762.135 1044.36 763.594ZM1083.53 757.125C1084.97 758.927 1085.69 761.057 1085.69 763.516C1085.69 766.016 1084.97 768.156 1083.53 769.938C1082.09 771.708 1079.91 772.594 1076.98 772.594C1074.06 772.594 1071.88 771.708 1070.44 769.938C1069 768.156 1068.28 766.016 1068.28 763.516C1068.28 761.057 1069 758.927 1070.44 757.125C1071.88 755.323 1074.06 754.422 1076.98 754.422C1079.91 754.422 1082.09 755.323 1083.53 757.125ZM1076.97 758.188C1075.67 758.188 1074.66 758.651 1073.95 759.578C1073.26 760.495 1072.91 761.807 1072.91 763.516C1072.91 765.224 1073.26 766.542 1073.95 767.469C1074.66 768.396 1075.67 768.859 1076.97 768.859C1078.27 768.859 1079.27 768.396 1079.97 767.469C1080.67 766.542 1081.02 765.224 1081.02 763.516C1081.02 761.807 1080.67 760.495 1079.97 759.578C1079.27 758.651 1078.27 758.188 1076.97 758.188ZM1096.91 758.266C1095.4 758.266 1094.36 758.906 1093.8 760.188C1093.51 760.865 1093.36 761.729 1093.36 762.781V772H1088.92V755H1093.22V757.484C1093.79 756.609 1094.33 755.979 1094.84 755.594C1095.76 754.906 1096.92 754.562 1098.33 754.562C1100.09 754.562 1101.53 755.026 1102.64 755.953C1103.77 756.87 1104.33 758.396 1104.33 760.531V772H1099.77V761.641C1099.77 760.745 1099.65 760.057 1099.41 759.578C1098.97 758.703 1098.14 758.266 1096.91 758.266ZM1132.86 749V772H1128.53V769.641C1127.9 770.651 1127.17 771.385 1126.36 771.844C1125.55 772.302 1124.54 772.531 1123.33 772.531C1121.34 772.531 1119.66 771.729 1118.3 770.125C1116.94 768.51 1116.27 766.443 1116.27 763.922C1116.27 761.016 1116.93 758.729 1118.27 757.062C1119.61 755.396 1121.4 754.562 1123.64 754.562C1124.67 754.562 1125.59 754.792 1126.39 755.25C1127.19 755.698 1127.84 756.323 1128.34 757.125V749H1132.86ZM1120.86 763.594C1120.86 765.167 1121.17 766.422 1121.8 767.359C1122.41 768.307 1123.35 768.781 1124.61 768.781C1125.87 768.781 1126.83 768.312 1127.48 767.375C1128.14 766.438 1128.47 765.224 1128.47 763.734C1128.47 761.651 1127.94 760.161 1126.89 759.266C1126.24 758.724 1125.49 758.453 1124.64 758.453C1123.34 758.453 1122.38 758.948 1121.77 759.938C1121.16 760.917 1120.86 762.135 1120.86 763.594ZM1141.5 754.969V772H1136.98V754.969H1141.5ZM1141.5 748.828V752.938H1136.98V748.828H1141.5ZM1153.81 748.828V752.453C1153.56 752.422 1153.14 752.401 1152.55 752.391C1151.96 752.37 1151.56 752.5 1151.33 752.781C1151.11 753.052 1151 753.354 1151 753.688V755.125H1153.92V758.266H1151V772H1146.56V758.266H1144.08V755.125H1146.52V754.031C1146.52 752.208 1146.82 750.953 1147.44 750.266C1148.08 749.245 1149.64 748.734 1152.11 748.734C1152.39 748.734 1152.65 748.745 1152.88 748.766C1153.1 748.776 1153.42 748.797 1153.81 748.828ZM1164.47 748.828V752.453C1164.22 752.422 1163.8 752.401 1163.2 752.391C1162.62 752.37 1162.21 752.5 1161.98 752.781C1161.77 753.052 1161.66 753.354 1161.66 753.688V755.125H1164.58V758.266H1161.66V772H1157.22V758.266H1154.73V755.125H1157.17V754.031C1157.17 752.208 1157.48 750.953 1158.09 750.266C1158.74 749.245 1160.3 748.734 1162.77 748.734C1163.05 748.734 1163.3 748.745 1163.53 748.766C1163.76 748.776 1164.07 748.797 1164.47 748.828ZM1181.72 767C1181.6 768.01 1181.08 769.036 1180.14 770.078C1178.68 771.734 1176.64 772.562 1174.02 772.562C1171.85 772.562 1169.94 771.865 1168.28 770.469C1166.62 769.073 1165.8 766.802 1165.8 763.656C1165.8 760.708 1166.54 758.448 1168.03 756.875C1169.53 755.302 1171.47 754.516 1173.86 754.516C1175.28 754.516 1176.55 754.781 1177.69 755.312C1178.82 755.844 1179.76 756.682 1180.5 757.828C1181.17 758.839 1181.6 760.01 1181.8 761.344C1181.91 762.125 1181.96 763.25 1181.94 764.719H1170.28C1170.34 766.427 1170.88 767.625 1171.89 768.312C1172.51 768.74 1173.24 768.953 1174.11 768.953C1175.03 768.953 1175.77 768.693 1176.34 768.172C1176.66 767.891 1176.93 767.5 1177.17 767H1181.72ZM1177.31 761.781C1177.24 760.604 1176.88 759.714 1176.23 759.109C1175.6 758.495 1174.81 758.188 1173.86 758.188C1172.83 758.188 1172.03 758.51 1171.45 759.156C1170.89 759.802 1170.54 760.677 1170.39 761.781H1177.31ZM1193.52 759.078C1191.72 759.078 1190.52 759.661 1189.91 760.828C1189.56 761.484 1189.39 762.495 1189.39 763.859V772H1184.91V754.969H1189.16V757.938C1189.84 756.802 1190.44 756.026 1190.95 755.609C1191.79 754.911 1192.87 754.562 1194.2 754.562C1194.29 754.562 1194.35 754.568 1194.41 754.578C1194.47 754.578 1194.6 754.583 1194.8 754.594V759.156C1194.52 759.125 1194.27 759.104 1194.05 759.094C1193.83 759.083 1193.65 759.078 1193.52 759.078ZM1212 767C1211.89 768.01 1211.36 769.036 1210.42 770.078C1208.96 771.734 1206.92 772.562 1204.3 772.562C1202.13 772.562 1200.22 771.865 1198.56 770.469C1196.91 769.073 1196.08 766.802 1196.08 763.656C1196.08 760.708 1196.82 758.448 1198.31 756.875C1199.81 755.302 1201.76 754.516 1204.14 754.516C1205.56 754.516 1206.83 754.781 1207.97 755.312C1209.1 755.844 1210.04 756.682 1210.78 757.828C1211.45 758.839 1211.88 760.01 1212.08 761.344C1212.19 762.125 1212.24 763.25 1212.22 764.719H1200.56C1200.62 766.427 1201.16 767.625 1202.17 768.312C1202.79 768.74 1203.53 768.953 1204.39 768.953C1205.31 768.953 1206.05 768.693 1206.62 768.172C1206.94 767.891 1207.21 767.5 1207.45 767H1212ZM1207.59 761.781C1207.52 760.604 1207.16 759.714 1206.52 759.109C1205.88 758.495 1205.09 758.188 1204.14 758.188C1203.11 758.188 1202.31 758.51 1201.73 759.156C1201.17 759.802 1200.82 760.677 1200.67 761.781H1207.59ZM1223.25 758.266C1221.74 758.266 1220.7 758.906 1220.14 760.188C1219.85 760.865 1219.7 761.729 1219.7 762.781V772H1215.27V755H1219.56V757.484C1220.14 756.609 1220.68 755.979 1221.19 755.594C1222.1 754.906 1223.27 754.562 1224.67 754.562C1226.43 754.562 1227.87 755.026 1228.98 755.953C1230.11 756.87 1230.67 758.396 1230.67 760.531V772H1226.11V761.641C1226.11 760.745 1225.99 760.057 1225.75 759.578C1225.31 758.703 1224.48 758.266 1223.25 758.266ZM1242.59 768.828V772.156L1240.48 772.234C1238.38 772.307 1236.94 771.943 1236.17 771.141C1235.67 770.63 1235.42 769.844 1235.42 768.781V758.297H1233.05V755.125H1235.42V750.375H1239.83V755.125H1242.59V758.297H1239.83V767.297C1239.83 767.995 1239.92 768.432 1240.09 768.609C1240.27 768.776 1240.81 768.859 1241.72 768.859C1241.85 768.859 1241.99 768.859 1242.14 768.859C1242.3 768.849 1242.45 768.839 1242.59 768.828ZM427.703 796.656C427.328 795.833 426.594 795.422 425.5 795.422C424.229 795.422 423.375 795.833 422.938 796.656C422.698 797.125 422.578 797.823 422.578 798.75V809H418.062V792H422.391V794.484C422.943 793.599 423.464 792.969 423.953 792.594C424.818 791.927 425.938 791.594 427.312 791.594C428.615 791.594 429.667 791.88 430.469 792.453C431.115 792.984 431.604 793.667 431.938 794.5C432.521 793.5 433.245 792.766 434.109 792.297C435.026 791.828 436.047 791.594 437.172 791.594C437.922 791.594 438.661 791.74 439.391 792.031C440.12 792.323 440.781 792.833 441.375 793.562C441.854 794.156 442.177 794.885 442.344 795.75C442.448 796.323 442.5 797.161 442.5 798.266L442.469 809H437.906V798.156C437.906 797.51 437.802 796.979 437.594 796.562C437.198 795.771 436.469 795.375 435.406 795.375C434.177 795.375 433.328 795.885 432.859 796.906C432.62 797.448 432.5 798.099 432.5 798.859V809H428.016V798.859C428.016 797.849 427.911 797.115 427.703 796.656ZM460.812 794.125C462.25 795.927 462.969 798.057 462.969 800.516C462.969 803.016 462.25 805.156 460.812 806.938C459.375 808.708 457.193 809.594 454.266 809.594C451.339 809.594 449.156 808.708 447.719 806.938C446.281 805.156 445.562 803.016 445.562 800.516C445.562 798.057 446.281 795.927 447.719 794.125C449.156 792.323 451.339 791.422 454.266 791.422C457.193 791.422 459.375 792.323 460.812 794.125ZM454.25 795.188C452.948 795.188 451.943 795.651 451.234 796.578C450.536 797.495 450.188 798.807 450.188 800.516C450.188 802.224 450.536 803.542 451.234 804.469C451.943 805.396 452.948 805.859 454.25 805.859C455.552 805.859 456.552 805.396 457.25 804.469C457.948 803.542 458.297 802.224 458.297 800.516C458.297 798.807 457.948 797.495 457.25 796.578C456.552 795.651 455.552 795.188 454.25 795.188ZM481.672 786V809H477.344V806.641C476.708 807.651 475.984 808.385 475.172 808.844C474.359 809.302 473.349 809.531 472.141 809.531C470.151 809.531 468.474 808.729 467.109 807.125C465.755 805.51 465.078 803.443 465.078 800.922C465.078 798.016 465.745 795.729 467.078 794.062C468.422 792.396 470.214 791.562 472.453 791.562C473.484 791.562 474.401 791.792 475.203 792.25C476.005 792.698 476.656 793.323 477.156 794.125V786H481.672ZM469.672 800.594C469.672 802.167 469.984 803.422 470.609 804.359C471.224 805.307 472.161 805.781 473.422 805.781C474.682 805.781 475.641 805.312 476.297 804.375C476.953 803.438 477.281 802.224 477.281 800.734C477.281 798.651 476.755 797.161 475.703 796.266C475.057 795.724 474.307 795.453 473.453 795.453C472.151 795.453 471.193 795.948 470.578 796.938C469.974 797.917 469.672 799.135 469.672 800.594ZM500.312 804C500.198 805.01 499.672 806.036 498.734 807.078C497.276 808.734 495.234 809.562 492.609 809.562C490.443 809.562 488.531 808.865 486.875 807.469C485.219 806.073 484.391 803.802 484.391 800.656C484.391 797.708 485.135 795.448 486.625 793.875C488.125 792.302 490.068 791.516 492.453 791.516C493.87 791.516 495.146 791.781 496.281 792.312C497.417 792.844 498.354 793.682 499.094 794.828C499.76 795.839 500.193 797.01 500.391 798.344C500.505 799.125 500.552 800.25 500.531 801.719H488.875C488.938 803.427 489.474 804.625 490.484 805.312C491.099 805.74 491.839 805.953 492.703 805.953C493.62 805.953 494.365 805.693 494.938 805.172C495.25 804.891 495.526 804.5 495.766 804H500.312ZM495.906 798.781C495.833 797.604 495.474 796.714 494.828 796.109C494.193 795.495 493.401 795.188 492.453 795.188C491.422 795.188 490.62 795.51 490.047 796.156C489.484 796.802 489.13 797.677 488.984 798.781H495.906ZM515.281 792.75C516.615 793.604 517.38 795.073 517.578 797.156H513.125C513.062 796.583 512.901 796.13 512.641 795.797C512.151 795.193 511.318 794.891 510.141 794.891C509.172 794.891 508.479 795.042 508.062 795.344C507.656 795.646 507.453 796 507.453 796.406C507.453 796.917 507.672 797.286 508.109 797.516C508.547 797.755 510.094 798.167 512.75 798.75C514.521 799.167 515.849 799.797 516.734 800.641C517.609 801.495 518.047 802.562 518.047 803.844C518.047 805.531 517.417 806.911 516.156 807.984C514.906 809.047 512.969 809.578 510.344 809.578C507.667 809.578 505.688 809.016 504.406 807.891C503.135 806.755 502.5 805.312 502.5 803.562H507.016C507.109 804.354 507.312 804.917 507.625 805.25C508.177 805.844 509.198 806.141 510.688 806.141C511.562 806.141 512.255 806.01 512.766 805.75C513.286 805.49 513.547 805.099 513.547 804.578C513.547 804.078 513.339 803.698 512.922 803.438C512.505 803.177 510.958 802.729 508.281 802.094C506.354 801.615 504.995 801.016 504.203 800.297C503.411 799.589 503.016 798.568 503.016 797.234C503.016 795.661 503.63 794.312 504.859 793.188C506.099 792.052 507.839 791.484 510.078 791.484C512.203 791.484 513.938 791.906 515.281 792.75ZM535.156 815.453L534.047 813.938C533.328 813.021 532.562 811.656 531.75 809.844C530.302 806.604 529.578 803.417 529.578 800.281C529.578 797.427 530.188 794.594 531.406 791.781C532.229 789.865 533.432 787.802 535.016 785.594H538.375L537.422 787.344C536.109 789.75 535.198 792.271 534.688 794.906C534.354 796.635 534.188 798.521 534.188 800.562C534.188 803.75 534.651 806.682 535.578 809.359C536.12 810.943 537.078 812.974 538.453 815.453H535.156ZM555.5 804C555.385 805.01 554.859 806.036 553.922 807.078C552.464 808.734 550.422 809.562 547.797 809.562C545.63 809.562 543.719 808.865 542.062 807.469C540.406 806.073 539.578 803.802 539.578 800.656C539.578 797.708 540.323 795.448 541.812 793.875C543.312 792.302 545.255 791.516 547.641 791.516C549.057 791.516 550.333 791.781 551.469 792.312C552.604 792.844 553.542 793.682 554.281 794.828C554.948 795.839 555.38 797.01 555.578 798.344C555.693 799.125 555.74 800.25 555.719 801.719H544.062C544.125 803.427 544.661 804.625 545.672 805.312C546.286 805.74 547.026 805.953 547.891 805.953C548.807 805.953 549.552 805.693 550.125 805.172C550.438 804.891 550.714 804.5 550.953 804H555.5ZM551.094 798.781C551.021 797.604 550.661 796.714 550.016 796.109C549.38 795.495 548.589 795.188 547.641 795.188C546.609 795.188 545.807 795.51 545.234 796.156C544.672 796.802 544.318 797.677 544.172 798.781H551.094ZM563.547 811.984C564.026 812.391 564.833 812.594 565.969 812.594C567.573 812.594 568.646 812.057 569.188 810.984C569.542 810.297 569.719 809.141 569.719 807.516V806.422C569.292 807.151 568.833 807.698 568.344 808.062C567.458 808.74 566.307 809.078 564.891 809.078C562.703 809.078 560.953 808.312 559.641 806.781C558.339 805.24 557.688 803.156 557.688 800.531C557.688 798 558.318 795.875 559.578 794.156C560.839 792.427 562.625 791.562 564.938 791.562C565.792 791.562 566.536 791.693 567.172 791.953C568.255 792.401 569.13 793.224 569.797 794.422V791.969H574.125V808.125C574.125 810.323 573.755 811.979 573.016 813.094C571.745 815.01 569.307 815.969 565.703 815.969C563.526 815.969 561.75 815.542 560.375 814.688C559 813.833 558.24 812.557 558.094 810.859H562.938C563.062 811.38 563.266 811.755 563.547 811.984ZM562.797 803.188C563.401 804.625 564.484 805.344 566.047 805.344C567.089 805.344 567.969 804.953 568.688 804.172C569.406 803.38 569.766 802.125 569.766 800.406C569.766 798.792 569.422 797.562 568.734 796.719C568.057 795.875 567.146 795.453 566 795.453C564.438 795.453 563.359 796.188 562.766 797.656C562.453 798.438 562.297 799.401 562.297 800.547C562.297 801.536 562.464 802.417 562.797 803.188ZM587.562 785.969H592.375V804.859H603.781V809H587.562V785.969ZM607.406 793.812C608.583 792.312 610.604 791.562 613.469 791.562C615.333 791.562 616.99 791.932 618.438 792.672C619.885 793.411 620.609 794.807 620.609 796.859V804.672C620.609 805.214 620.62 805.87 620.641 806.641C620.672 807.224 620.76 807.62 620.906 807.828C621.052 808.036 621.271 808.208 621.562 808.344V809H616.719C616.583 808.656 616.49 808.333 616.438 808.031C616.385 807.729 616.344 807.385 616.312 807C615.698 807.667 614.99 808.234 614.188 808.703C613.229 809.255 612.146 809.531 610.938 809.531C609.396 809.531 608.12 809.094 607.109 808.219C606.109 807.333 605.609 806.083 605.609 804.469C605.609 802.375 606.417 800.859 608.031 799.922C608.917 799.411 610.219 799.047 611.938 798.828L613.453 798.641C614.276 798.536 614.865 798.406 615.219 798.25C615.854 797.979 616.172 797.557 616.172 796.984C616.172 796.286 615.927 795.807 615.438 795.547C614.958 795.276 614.25 795.141 613.312 795.141C612.26 795.141 611.516 795.401 611.078 795.922C610.766 796.307 610.557 796.828 610.453 797.484H606.156C606.25 795.995 606.667 794.771 607.406 793.812ZM610.719 805.781C611.135 806.125 611.646 806.297 612.25 806.297C613.208 806.297 614.089 806.016 614.891 805.453C615.703 804.891 616.125 803.865 616.156 802.375V800.719C615.875 800.896 615.589 801.042 615.297 801.156C615.016 801.26 614.625 801.359 614.125 801.453L613.125 801.641C612.188 801.807 611.516 802.01 611.109 802.25C610.422 802.656 610.078 803.286 610.078 804.141C610.078 804.901 610.292 805.448 610.719 805.781ZM632.594 795.266C631.083 795.266 630.047 795.906 629.484 797.188C629.193 797.865 629.047 798.729 629.047 799.781V809H624.609V792H628.906V794.484C629.479 793.609 630.021 792.979 630.531 792.594C631.448 791.906 632.609 791.562 634.016 791.562C635.776 791.562 637.214 792.026 638.328 792.953C639.453 793.87 640.016 795.396 640.016 797.531V809H635.453V798.641C635.453 797.745 635.333 797.057 635.094 796.578C634.656 795.703 633.823 795.266 632.594 795.266ZM648.953 811.984C649.432 812.391 650.24 812.594 651.375 812.594C652.979 812.594 654.052 812.057 654.594 810.984C654.948 810.297 655.125 809.141 655.125 807.516V806.422C654.698 807.151 654.24 807.698 653.75 808.062C652.865 808.74 651.714 809.078 650.297 809.078C648.109 809.078 646.359 808.312 645.047 806.781C643.745 805.24 643.094 803.156 643.094 800.531C643.094 798 643.724 795.875 644.984 794.156C646.245 792.427 648.031 791.562 650.344 791.562C651.198 791.562 651.943 791.693 652.578 791.953C653.661 792.401 654.536 793.224 655.203 794.422V791.969H659.531V808.125C659.531 810.323 659.161 811.979 658.422 813.094C657.151 815.01 654.714 815.969 651.109 815.969C648.932 815.969 647.156 815.542 645.781 814.688C644.406 813.833 643.646 812.557 643.5 810.859H648.344C648.469 811.38 648.672 811.755 648.953 811.984ZM648.203 803.188C648.807 804.625 649.891 805.344 651.453 805.344C652.495 805.344 653.375 804.953 654.094 804.172C654.812 803.38 655.172 802.125 655.172 800.406C655.172 798.792 654.828 797.562 654.141 796.719C653.464 795.875 652.552 795.453 651.406 795.453C649.844 795.453 648.766 796.188 648.172 797.656C647.859 798.438 647.703 799.401 647.703 800.547C647.703 801.536 647.87 802.417 648.203 803.188ZM674.625 806.594C674.583 806.646 674.479 806.802 674.312 807.062C674.146 807.323 673.948 807.552 673.719 807.75C673.021 808.375 672.344 808.802 671.688 809.031C671.042 809.26 670.281 809.375 669.406 809.375C666.885 809.375 665.188 808.469 664.312 806.656C663.823 805.656 663.578 804.182 663.578 802.234V791.969H668.141V802.234C668.141 803.203 668.255 803.932 668.484 804.422C668.891 805.286 669.688 805.719 670.875 805.719C672.396 805.719 673.438 805.104 674 803.875C674.292 803.208 674.438 802.328 674.438 801.234V791.969H678.953V809H674.625V806.594ZM683.906 793.812C685.083 792.312 687.104 791.562 689.969 791.562C691.833 791.562 693.49 791.932 694.938 792.672C696.385 793.411 697.109 794.807 697.109 796.859V804.672C697.109 805.214 697.12 805.87 697.141 806.641C697.172 807.224 697.26 807.62 697.406 807.828C697.552 808.036 697.771 808.208 698.062 808.344V809H693.219C693.083 808.656 692.99 808.333 692.938 808.031C692.885 807.729 692.844 807.385 692.812 807C692.198 807.667 691.49 808.234 690.688 808.703C689.729 809.255 688.646 809.531 687.438 809.531C685.896 809.531 684.62 809.094 683.609 808.219C682.609 807.333 682.109 806.083 682.109 804.469C682.109 802.375 682.917 800.859 684.531 799.922C685.417 799.411 686.719 799.047 688.438 798.828L689.953 798.641C690.776 798.536 691.365 798.406 691.719 798.25C692.354 797.979 692.672 797.557 692.672 796.984C692.672 796.286 692.427 795.807 691.938 795.547C691.458 795.276 690.75 795.141 689.812 795.141C688.76 795.141 688.016 795.401 687.578 795.922C687.266 796.307 687.057 796.828 686.953 797.484H682.656C682.75 795.995 683.167 794.771 683.906 793.812ZM687.219 805.781C687.635 806.125 688.146 806.297 688.75 806.297C689.708 806.297 690.589 806.016 691.391 805.453C692.203 804.891 692.625 803.865 692.656 802.375V800.719C692.375 800.896 692.089 801.042 691.797 801.156C691.516 801.26 691.125 801.359 690.625 801.453L689.625 801.641C688.688 801.807 688.016 802.01 687.609 802.25C686.922 802.656 686.578 803.286 686.578 804.141C686.578 804.901 686.792 805.448 687.219 805.781ZM705.891 811.984C706.37 812.391 707.177 812.594 708.312 812.594C709.917 812.594 710.99 812.057 711.531 810.984C711.885 810.297 712.062 809.141 712.062 807.516V806.422C711.635 807.151 711.177 807.698 710.688 808.062C709.802 808.74 708.651 809.078 707.234 809.078C705.047 809.078 703.297 808.312 701.984 806.781C700.682 805.24 700.031 803.156 700.031 800.531C700.031 798 700.661 795.875 701.922 794.156C703.182 792.427 704.969 791.562 707.281 791.562C708.135 791.562 708.88 791.693 709.516 791.953C710.599 792.401 711.474 793.224 712.141 794.422V791.969H716.469V808.125C716.469 810.323 716.099 811.979 715.359 813.094C714.089 815.01 711.651 815.969 708.047 815.969C705.87 815.969 704.094 815.542 702.719 814.688C701.344 813.833 700.583 812.557 700.438 810.859H705.281C705.406 811.38 705.609 811.755 705.891 811.984ZM705.141 803.188C705.745 804.625 706.828 805.344 708.391 805.344C709.432 805.344 710.312 804.953 711.031 804.172C711.75 803.38 712.109 802.125 712.109 800.406C712.109 798.792 711.766 797.562 711.078 796.719C710.401 795.875 709.49 795.453 708.344 795.453C706.781 795.453 705.703 796.188 705.109 797.656C704.797 798.438 704.641 799.401 704.641 800.547C704.641 801.536 704.807 802.417 705.141 803.188ZM735.219 804C735.104 805.01 734.578 806.036 733.641 807.078C732.182 808.734 730.141 809.562 727.516 809.562C725.349 809.562 723.438 808.865 721.781 807.469C720.125 806.073 719.297 803.802 719.297 800.656C719.297 797.708 720.042 795.448 721.531 793.875C723.031 792.302 724.974 791.516 727.359 791.516C728.776 791.516 730.052 791.781 731.188 792.312C732.323 792.844 733.26 793.682 734 794.828C734.667 795.839 735.099 797.01 735.297 798.344C735.411 799.125 735.458 800.25 735.438 801.719H723.781C723.844 803.427 724.38 804.625 725.391 805.312C726.005 805.74 726.745 805.953 727.609 805.953C728.526 805.953 729.271 805.693 729.844 805.172C730.156 804.891 730.432 804.5 730.672 804H735.219ZM730.812 798.781C730.74 797.604 730.38 796.714 729.734 796.109C729.099 795.495 728.307 795.188 727.359 795.188C726.328 795.188 725.526 795.51 724.953 796.156C724.391 796.802 724.036 797.677 723.891 798.781H730.812ZM750.188 792.75C751.521 793.604 752.286 795.073 752.484 797.156H748.031C747.969 796.583 747.807 796.13 747.547 795.797C747.057 795.193 746.224 794.891 745.047 794.891C744.078 794.891 743.385 795.042 742.969 795.344C742.562 795.646 742.359 796 742.359 796.406C742.359 796.917 742.578 797.286 743.016 797.516C743.453 797.755 745 798.167 747.656 798.75C749.427 799.167 750.755 799.797 751.641 800.641C752.516 801.495 752.953 802.562 752.953 803.844C752.953 805.531 752.323 806.911 751.062 807.984C749.812 809.047 747.875 809.578 745.25 809.578C742.573 809.578 740.594 809.016 739.312 807.891C738.042 806.755 737.406 805.312 737.406 803.562H741.922C742.016 804.354 742.219 804.917 742.531 805.25C743.083 805.844 744.104 806.141 745.594 806.141C746.469 806.141 747.161 806.01 747.672 805.75C748.193 805.49 748.453 805.099 748.453 804.578C748.453 804.078 748.245 803.698 747.828 803.438C747.411 803.177 745.865 802.729 743.188 802.094C741.26 801.615 739.901 801.016 739.109 800.297C738.318 799.589 737.922 798.568 737.922 797.234C737.922 795.661 738.536 794.312 739.766 793.188C741.005 792.052 742.745 791.484 744.984 791.484C747.109 791.484 748.844 791.906 750.188 792.75ZM758.922 813.938L757.812 815.453H754.516C755.891 812.974 756.849 810.943 757.391 809.359C758.318 806.682 758.781 803.75 758.781 800.562C758.781 798.521 758.615 796.635 758.281 794.906C757.771 792.271 756.859 789.75 755.547 787.344L754.594 785.594H757.953C759.536 787.802 760.74 789.865 761.562 791.781C762.781 794.594 763.391 797.427 763.391 800.281C763.391 803.417 762.667 806.604 761.219 809.844C760.406 811.656 759.641 813.021 758.922 813.938ZM790.031 794.125C791.469 795.927 792.188 798.057 792.188 800.516C792.188 803.016 791.469 805.156 790.031 806.938C788.594 808.708 786.411 809.594 783.484 809.594C780.557 809.594 778.375 808.708 776.938 806.938C775.5 805.156 774.781 803.016 774.781 800.516C774.781 798.057 775.5 795.927 776.938 794.125C778.375 792.323 780.557 791.422 783.484 791.422C786.411 791.422 788.594 792.323 790.031 794.125ZM783.469 795.188C782.167 795.188 781.161 795.651 780.453 796.578C779.755 797.495 779.406 798.807 779.406 800.516C779.406 802.224 779.755 803.542 780.453 804.469C781.161 805.396 782.167 805.859 783.469 805.859C784.771 805.859 785.771 805.396 786.469 804.469C787.167 803.542 787.516 802.224 787.516 800.516C787.516 798.807 787.167 797.495 786.469 796.578C785.771 795.651 784.771 795.188 783.469 795.188ZM803.953 796.078C802.161 796.078 800.958 796.661 800.344 797.828C800 798.484 799.828 799.495 799.828 800.859V809H795.344V791.969H799.594V794.938C800.281 793.802 800.88 793.026 801.391 792.609C802.224 791.911 803.307 791.562 804.641 791.562C804.724 791.562 804.792 791.568 804.844 791.578C804.906 791.578 805.036 791.583 805.234 791.594V796.156C804.953 796.125 804.703 796.104 804.484 796.094C804.266 796.083 804.089 796.078 803.953 796.078ZM827.688 806.594C827.646 806.646 827.542 806.802 827.375 807.062C827.208 807.323 827.01 807.552 826.781 807.75C826.083 808.375 825.406 808.802 824.75 809.031C824.104 809.26 823.344 809.375 822.469 809.375C819.948 809.375 818.25 808.469 817.375 806.656C816.885 805.656 816.641 804.182 816.641 802.234V791.969H821.203V802.234C821.203 803.203 821.318 803.932 821.547 804.422C821.953 805.286 822.75 805.719 823.938 805.719C825.458 805.719 826.5 805.104 827.062 803.875C827.354 803.208 827.5 802.328 827.5 801.234V791.969H832.016V809H827.688V806.594ZM848.062 792.75C849.396 793.604 850.161 795.073 850.359 797.156H845.906C845.844 796.583 845.682 796.13 845.422 795.797C844.932 795.193 844.099 794.891 842.922 794.891C841.953 794.891 841.26 795.042 840.844 795.344C840.438 795.646 840.234 796 840.234 796.406C840.234 796.917 840.453 797.286 840.891 797.516C841.328 797.755 842.875 798.167 845.531 798.75C847.302 799.167 848.63 799.797 849.516 800.641C850.391 801.495 850.828 802.562 850.828 803.844C850.828 805.531 850.198 806.911 848.938 807.984C847.688 809.047 845.75 809.578 843.125 809.578C840.448 809.578 838.469 809.016 837.188 807.891C835.917 806.755 835.281 805.312 835.281 803.562H839.797C839.891 804.354 840.094 804.917 840.406 805.25C840.958 805.844 841.979 806.141 843.469 806.141C844.344 806.141 845.036 806.01 845.547 805.75C846.068 805.49 846.328 805.099 846.328 804.578C846.328 804.078 846.12 803.698 845.703 803.438C845.286 803.177 843.74 802.729 841.062 802.094C839.135 801.615 837.776 801.016 836.984 800.297C836.193 799.589 835.797 798.568 835.797 797.234C835.797 795.661 836.411 794.312 837.641 793.188C838.88 792.052 840.62 791.484 842.859 791.484C844.984 791.484 846.719 791.906 848.062 792.75ZM858.719 791.969V809H854.203V791.969H858.719ZM858.719 785.828V789.938H854.203V785.828H858.719ZM871.062 795.266C869.552 795.266 868.516 795.906 867.953 797.188C867.661 797.865 867.516 798.729 867.516 799.781V809H863.078V792H867.375V794.484C867.948 793.609 868.49 792.979 869 792.594C869.917 791.906 871.078 791.562 872.484 791.562C874.245 791.562 875.682 792.026 876.797 792.953C877.922 793.87 878.484 795.396 878.484 797.531V809H873.922V798.641C873.922 797.745 873.802 797.057 873.562 796.578C873.125 795.703 872.292 795.266 871.062 795.266ZM887.422 811.984C887.901 812.391 888.708 812.594 889.844 812.594C891.448 812.594 892.521 812.057 893.062 810.984C893.417 810.297 893.594 809.141 893.594 807.516V806.422C893.167 807.151 892.708 807.698 892.219 808.062C891.333 808.74 890.182 809.078 888.766 809.078C886.578 809.078 884.828 808.312 883.516 806.781C882.214 805.24 881.562 803.156 881.562 800.531C881.562 798 882.193 795.875 883.453 794.156C884.714 792.427 886.5 791.562 888.812 791.562C889.667 791.562 890.411 791.693 891.047 791.953C892.13 792.401 893.005 793.224 893.672 794.422V791.969H898V808.125C898 810.323 897.63 811.979 896.891 813.094C895.62 815.01 893.182 815.969 889.578 815.969C887.401 815.969 885.625 815.542 884.25 814.688C882.875 813.833 882.115 812.557 881.969 810.859H886.812C886.938 811.38 887.141 811.755 887.422 811.984ZM886.672 803.188C887.276 804.625 888.359 805.344 889.922 805.344C890.964 805.344 891.844 804.953 892.562 804.172C893.281 803.38 893.641 802.125 893.641 800.406C893.641 798.792 893.297 797.562 892.609 796.719C891.932 795.875 891.021 795.453 889.875 795.453C888.312 795.453 887.234 796.188 886.641 797.656C886.328 798.438 886.172 799.401 886.172 800.547C886.172 801.536 886.339 802.417 886.672 803.188ZM925.656 804C925.542 805.01 925.016 806.036 924.078 807.078C922.62 808.734 920.578 809.562 917.953 809.562C915.786 809.562 913.875 808.865 912.219 807.469C910.562 806.073 909.734 803.802 909.734 800.656C909.734 797.708 910.479 795.448 911.969 793.875C913.469 792.302 915.411 791.516 917.797 791.516C919.214 791.516 920.49 791.781 921.625 792.312C922.76 792.844 923.698 793.682 924.438 794.828C925.104 795.839 925.536 797.01 925.734 798.344C925.849 799.125 925.896 800.25 925.875 801.719H914.219C914.281 803.427 914.818 804.625 915.828 805.312C916.443 805.74 917.182 805.953 918.047 805.953C918.964 805.953 919.708 805.693 920.281 805.172C920.594 804.891 920.87 804.5 921.109 804H925.656ZM921.25 798.781C921.177 797.604 920.818 796.714 920.172 796.109C919.536 795.495 918.745 795.188 917.797 795.188C916.766 795.188 915.964 795.51 915.391 796.156C914.828 796.802 914.474 797.677 914.328 798.781H921.25ZM944.062 809H938.516L935.578 803.891L932.625 809H927.219L933.031 800.375L927.469 792H932.922L935.766 796.938L938.547 792H943.844L938.25 800.297L944.062 809ZM960.969 793.797C962.344 795.266 963.031 797.422 963.031 800.266C963.031 803.266 962.354 805.552 961 807.125C959.656 808.698 957.922 809.484 955.797 809.484C954.443 809.484 953.318 809.146 952.422 808.469C951.932 808.094 951.453 807.547 950.984 806.828V815.703H946.578V791.969H950.844V794.484C951.323 793.745 951.833 793.161 952.375 792.734C953.365 791.974 954.542 791.594 955.906 791.594C957.896 791.594 959.583 792.328 960.969 793.797ZM958.438 800.484C958.438 799.172 958.135 798.01 957.531 797C956.938 795.99 955.969 795.484 954.625 795.484C953.01 795.484 951.901 796.25 951.297 797.781C950.984 798.594 950.828 799.625 950.828 800.875C950.828 802.854 951.354 804.245 952.406 805.047C953.031 805.516 953.771 805.75 954.625 805.75C955.865 805.75 956.807 805.271 957.453 804.312C958.109 803.354 958.438 802.078 958.438 800.484ZM974.828 796.078C973.036 796.078 971.833 796.661 971.219 797.828C970.875 798.484 970.703 799.495 970.703 800.859V809H966.219V791.969H970.469V794.938C971.156 793.802 971.755 793.026 972.266 792.609C973.099 791.911 974.182 791.562 975.516 791.562C975.599 791.562 975.667 791.568 975.719 791.578C975.781 791.578 975.911 791.583 976.109 791.594V796.156C975.828 796.125 975.578 796.104 975.359 796.094C975.141 796.083 974.964 796.078 974.828 796.078ZM993.312 804C993.198 805.01 992.672 806.036 991.734 807.078C990.276 808.734 988.234 809.562 985.609 809.562C983.443 809.562 981.531 808.865 979.875 807.469C978.219 806.073 977.391 803.802 977.391 800.656C977.391 797.708 978.135 795.448 979.625 793.875C981.125 792.302 983.068 791.516 985.453 791.516C986.87 791.516 988.146 791.781 989.281 792.312C990.417 792.844 991.354 793.682 992.094 794.828C992.76 795.839 993.193 797.01 993.391 798.344C993.505 799.125 993.552 800.25 993.531 801.719H981.875C981.938 803.427 982.474 804.625 983.484 805.312C984.099 805.74 984.839 805.953 985.703 805.953C986.62 805.953 987.365 805.693 987.938 805.172C988.25 804.891 988.526 804.5 988.766 804H993.312ZM988.906 798.781C988.833 797.604 988.474 796.714 987.828 796.109C987.193 795.495 986.401 795.188 985.453 795.188C984.422 795.188 983.62 795.51 983.047 796.156C982.484 796.802 982.13 797.677 981.984 798.781H988.906ZM1008.28 792.75C1009.61 793.604 1010.38 795.073 1010.58 797.156H1006.12C1006.06 796.583 1005.9 796.13 1005.64 795.797C1005.15 795.193 1004.32 794.891 1003.14 794.891C1002.17 794.891 1001.48 795.042 1001.06 795.344C1000.66 795.646 1000.45 796 1000.45 796.406C1000.45 796.917 1000.67 797.286 1001.11 797.516C1001.55 797.755 1003.09 798.167 1005.75 798.75C1007.52 799.167 1008.85 799.797 1009.73 800.641C1010.61 801.495 1011.05 802.562 1011.05 803.844C1011.05 805.531 1010.42 806.911 1009.16 807.984C1007.91 809.047 1005.97 809.578 1003.34 809.578C1000.67 809.578 998.688 809.016 997.406 807.891C996.135 806.755 995.5 805.312 995.5 803.562H1000.02C1000.11 804.354 1000.31 804.917 1000.62 805.25C1001.18 805.844 1002.2 806.141 1003.69 806.141C1004.56 806.141 1005.26 806.01 1005.77 805.75C1006.29 805.49 1006.55 805.099 1006.55 804.578C1006.55 804.078 1006.34 803.698 1005.92 803.438C1005.51 803.177 1003.96 802.729 1001.28 802.094C999.354 801.615 997.995 801.016 997.203 800.297C996.411 799.589 996.016 798.568 996.016 797.234C996.016 795.661 996.63 794.312 997.859 793.188C999.099 792.052 1000.84 791.484 1003.08 791.484C1005.2 791.484 1006.94 791.906 1008.28 792.75ZM1026.09 792.75C1027.43 793.604 1028.19 795.073 1028.39 797.156H1023.94C1023.88 796.583 1023.71 796.13 1023.45 795.797C1022.96 795.193 1022.13 794.891 1020.95 794.891C1019.98 794.891 1019.29 795.042 1018.88 795.344C1018.47 795.646 1018.27 796 1018.27 796.406C1018.27 796.917 1018.48 797.286 1018.92 797.516C1019.36 797.755 1020.91 798.167 1023.56 798.75C1025.33 799.167 1026.66 799.797 1027.55 800.641C1028.42 801.495 1028.86 802.562 1028.86 803.844C1028.86 805.531 1028.23 806.911 1026.97 807.984C1025.72 809.047 1023.78 809.578 1021.16 809.578C1018.48 809.578 1016.5 809.016 1015.22 807.891C1013.95 806.755 1013.31 805.312 1013.31 803.562H1017.83C1017.92 804.354 1018.12 804.917 1018.44 805.25C1018.99 805.844 1020.01 806.141 1021.5 806.141C1022.38 806.141 1023.07 806.01 1023.58 805.75C1024.1 805.49 1024.36 805.099 1024.36 804.578C1024.36 804.078 1024.15 803.698 1023.73 803.438C1023.32 803.177 1021.77 802.729 1019.09 802.094C1017.17 801.615 1015.81 801.016 1015.02 800.297C1014.22 799.589 1013.83 798.568 1013.83 797.234C1013.83 795.661 1014.44 794.312 1015.67 793.188C1016.91 792.052 1018.65 791.484 1020.89 791.484C1023.02 791.484 1024.75 791.906 1026.09 792.75ZM1036.75 791.969V809H1032.23V791.969H1036.75ZM1036.75 785.828V789.938H1032.23V785.828H1036.75ZM1055.28 794.125C1056.72 795.927 1057.44 798.057 1057.44 800.516C1057.44 803.016 1056.72 805.156 1055.28 806.938C1053.84 808.708 1051.66 809.594 1048.73 809.594C1045.81 809.594 1043.62 808.708 1042.19 806.938C1040.75 805.156 1040.03 803.016 1040.03 800.516C1040.03 798.057 1040.75 795.927 1042.19 794.125C1043.62 792.323 1045.81 791.422 1048.73 791.422C1051.66 791.422 1053.84 792.323 1055.28 794.125ZM1048.72 795.188C1047.42 795.188 1046.41 795.651 1045.7 796.578C1045.01 797.495 1044.66 798.807 1044.66 800.516C1044.66 802.224 1045.01 803.542 1045.7 804.469C1046.41 805.396 1047.42 805.859 1048.72 805.859C1050.02 805.859 1051.02 805.396 1051.72 804.469C1052.42 803.542 1052.77 802.224 1052.77 800.516C1052.77 798.807 1052.42 797.495 1051.72 796.578C1051.02 795.651 1050.02 795.188 1048.72 795.188ZM1068.66 795.266C1067.15 795.266 1066.11 795.906 1065.55 797.188C1065.26 797.865 1065.11 798.729 1065.11 799.781V809H1060.67V792H1064.97V794.484C1065.54 793.609 1066.08 792.979 1066.59 792.594C1067.51 791.906 1068.67 791.562 1070.08 791.562C1071.84 791.562 1073.28 792.026 1074.39 792.953C1075.52 793.87 1076.08 795.396 1076.08 797.531V809H1071.52V798.641C1071.52 797.745 1071.4 797.057 1071.16 796.578C1070.72 795.703 1069.89 795.266 1068.66 795.266ZM1091.94 792.75C1093.27 793.604 1094.04 795.073 1094.23 797.156H1089.78C1089.72 796.583 1089.56 796.13 1089.3 795.797C1088.81 795.193 1087.97 794.891 1086.8 794.891C1085.83 794.891 1085.14 795.042 1084.72 795.344C1084.31 795.646 1084.11 796 1084.11 796.406C1084.11 796.917 1084.33 797.286 1084.77 797.516C1085.2 797.755 1086.75 798.167 1089.41 798.75C1091.18 799.167 1092.51 799.797 1093.39 800.641C1094.27 801.495 1094.7 802.562 1094.7 803.844C1094.7 805.531 1094.07 806.911 1092.81 807.984C1091.56 809.047 1089.62 809.578 1087 809.578C1084.32 809.578 1082.34 809.016 1081.06 807.891C1079.79 806.755 1079.16 805.312 1079.16 803.562H1083.67C1083.77 804.354 1083.97 804.917 1084.28 805.25C1084.83 805.844 1085.85 806.141 1087.34 806.141C1088.22 806.141 1088.91 806.01 1089.42 805.75C1089.94 805.49 1090.2 805.099 1090.2 804.578C1090.2 804.078 1089.99 803.698 1089.58 803.438C1089.16 803.177 1087.61 802.729 1084.94 802.094C1083.01 801.615 1081.65 801.016 1080.86 800.297C1080.07 799.589 1079.67 798.568 1079.67 797.234C1079.67 795.661 1080.29 794.312 1081.52 793.188C1082.76 792.052 1084.49 791.484 1086.73 791.484C1088.86 791.484 1090.59 791.906 1091.94 792.75Z" fill="black"/>
<path d="M537 455L637 455" stroke="#134DE1" stroke-width="5"/>
</svg>
