<svg width="1565" height="1078" viewBox="0 0 1565 1078" fill="none" xmlns="http://www.w3.org/2000/svg">
<path fill-rule="evenodd" clip-rule="evenodd" d="M61 61H1202V391.816H1399.72L1202 558.981V571H1187.78L1168.13 587.619L1256.59 904.434L1025 708.631L793.413 904.434L881.871 587.619L862.215 571H466.165C466.717 582.646 467 594.492 467 606.5C467 775.223 411.036 912 342 912C340.325 912 338.659 911.92 337 911.76V464H61V61Z" fill="#FF29C3"/>
<path d="M1202 61H1262.5V0.5H1202V61ZM61 61V0.5H0.5V61H61ZM1202 391.816H1141.5V452.316H1202V391.816ZM1399.72 391.816L1438.78 438.016L1564.98 331.316H1399.72V391.816ZM1202 558.981L1162.94 512.781L1141.5 530.907V558.981H1202ZM1202 571V631.5H1262.5V571H1202ZM1187.78 571V510.5H1165.64L1148.72 524.8L1187.78 571ZM1168.13 587.619L1129.07 541.418L1099.42 566.489L1109.86 603.889L1168.13 587.619ZM1256.59 904.434L1217.53 950.635L1367.77 1077.66L1314.86 888.164L1256.59 904.434ZM1025 708.631L1064.06 662.431L1025 629.406L985.939 662.431L1025 708.631ZM793.413 904.434L735.141 888.164L682.232 1077.66L832.474 950.635L793.413 904.434ZM881.871 587.619L940.142 603.889L950.585 566.489L920.933 541.418L881.871 587.619ZM862.215 571L901.277 524.8L884.364 510.5H862.215V571ZM466.165 571V510.5H402.733L405.733 573.861L466.165 571ZM337 911.76H276.5V966.722L331.209 971.982L337 911.76ZM337 464H397.5V403.5H337V464ZM61 464H0.5V524.5H61V464ZM1202 0.5H61V121.5H1202V0.5ZM1262.5 391.816V61H1141.5V391.816H1262.5ZM1399.72 331.316H1202V452.316H1399.72V331.316ZM1241.06 605.181L1438.78 438.016L1360.65 345.616L1162.94 512.781L1241.06 605.181ZM1262.5 571V558.981H1141.5V571H1262.5ZM1187.78 631.5H1202V510.5H1187.78V631.5ZM1207.19 633.819L1226.85 617.2L1148.72 524.8L1129.07 541.418L1207.19 633.819ZM1314.86 888.164L1226.4 571.349L1109.86 603.889L1198.32 920.704L1314.86 888.164ZM985.939 754.832L1217.53 950.635L1295.65 858.234L1064.06 662.431L985.939 754.832ZM832.474 950.635L1064.06 754.832L985.939 662.431L754.351 858.234L832.474 950.635ZM823.6 571.349L735.141 888.164L851.684 920.704L940.142 603.889L823.6 571.349ZM823.154 617.2L842.81 633.819L920.933 541.418L901.277 524.8L823.154 617.2ZM466.165 631.5H862.215V510.5H466.165V631.5ZM527.5 606.5C527.5 593.541 527.194 580.741 526.597 568.139L405.733 573.861C406.239 584.551 406.5 595.443 406.5 606.5H527.5ZM342 972.5C380.74 972.5 411.889 953.057 434.139 930.057C456.216 907.235 473.31 877.38 486.382 845.432C512.648 781.24 527.5 696.733 527.5 606.5H406.5C406.5 684.99 393.37 753.233 374.394 799.61C364.846 822.947 355.005 837.831 347.172 845.928C339.513 853.845 337.778 851.5 342 851.5V972.5ZM331.209 971.982C334.786 972.326 338.385 972.5 342 972.5V851.5C342.266 851.5 342.532 851.513 342.791 851.538L331.209 971.982ZM276.5 464V911.76H397.5V464H276.5ZM61 524.5H337V403.5H61V524.5ZM0.5 61V464H121.5V61H0.5Z" fill="black"/>
</svg>
