<svg width="162" height="163" viewBox="0 0 162 163" fill="none" xmlns="http://www.w3.org/2000/svg">
<path fill-rule="evenodd" clip-rule="evenodd" d="M161 2C142.755 33.5053 113.712 53.8834 81 53.8834C48.288 53.8834 19.2446 33.5053 1 2V162H161V2Z" fill="url(#paint0_linear_1_112941)"/>
<path d="M161 2H161.5V0.138846L160.567 1.74943L161 2ZM1 2L1.43269 1.74944L0.5 0.138848V2H1ZM1 162H0.5V162.5H1V162ZM161 162V162.5H161.5V162H161ZM160.567 1.74943C142.387 33.144 113.488 53.3834 81 53.3834V54.3834C113.936 54.3834 143.124 33.8665 161.433 2.25057L160.567 1.74943ZM81 53.3834C48.5117 53.3834 19.6132 33.144 1.43269 1.74944L0.567315 2.25057C18.876 33.8665 48.0643 54.3834 81 54.3834V53.3834ZM1.5 162V2H0.5V162H1.5ZM161 161.5H1V162.5H161V161.5ZM160.5 2V162H161.5V2H160.5Z" fill="#1C6EE8"/>
<defs>
<linearGradient id="paint0_linear_1_112941" x1="128.2" y1="55.3333" x2="128.2" y2="231.333" gradientUnits="userSpaceOnUse">
<stop stop-color="#C4C825"/>
<stop offset="1" stop-color="#25C852"/>
</linearGradient>
</defs>
</svg>
