<svg width="88" height="75" viewBox="0 0 88 75" fill="none" xmlns="http://www.w3.org/2000/svg">
<path fill-rule="evenodd" clip-rule="evenodd" d="M43.8839 5L53.0631 31.5998H82.7678L70.5416 39.9635C69.9826 39.9115 69.4181 39.885 68.8489 39.885C58.6953 39.885 50.0374 48.3045 46.6949 60.1225L43.8839 58.1996L23.9638 71.8266V69.6903H21.5601L29.0316 48.0394L5 31.5998H34.7047L43.8839 5Z" fill="#F57DFF"/>
<path d="M53.0631 31.5998L51.6452 32.0891L51.994 33.0998H53.0631V31.5998ZM43.8839 5L45.3018 4.51069L43.8839 0.401734L42.466 4.51069L43.8839 5ZM82.7678 31.5998L83.6147 32.8378L87.6172 30.0998H82.7678V31.5998ZM70.5416 39.9635L70.4027 41.457L70.9417 41.5072L71.3886 41.2015L70.5416 39.9635ZM46.6949 60.1225L45.848 61.3606L47.5703 62.5388L48.1383 60.5308L46.6949 60.1225ZM43.8839 58.1996L44.7308 56.9615L43.8839 56.3822L43.037 56.9615L43.8839 58.1996ZM23.9638 71.8266H22.4638V74.6701L24.8107 73.0646L23.9638 71.8266ZM23.9638 69.6903H25.4638V68.1903H23.9638V69.6903ZM21.5601 69.6903L20.1422 69.201L19.4557 71.1903H21.5601V69.6903ZM29.0316 48.0394L30.4495 48.5287L30.8227 47.4472L29.8785 46.8013L29.0316 48.0394ZM5 31.5998V30.0998H0.150588L4.15308 32.8378L5 31.5998ZM34.7047 31.5998V33.0998H35.7738L36.1226 32.0891L34.7047 31.5998ZM54.4811 31.1105L45.3018 4.51069L42.466 5.48931L51.6452 32.0891L54.4811 31.1105ZM82.7678 30.0998H53.0631V33.0998H82.7678V30.0998ZM71.3886 41.2015L83.6147 32.8378L81.9209 30.3618L69.6947 38.7255L71.3886 41.2015ZM68.8489 41.385C69.3716 41.385 69.8897 41.4093 70.4027 41.457L70.6806 38.4699C70.0755 38.4136 69.4646 38.385 68.8489 38.385V41.385ZM48.1383 60.5308C51.372 49.0974 59.6037 41.385 68.8489 41.385V38.385C57.7868 38.385 48.7029 47.5116 45.2515 59.7143L48.1383 60.5308ZM43.037 59.4376L45.848 61.3606L47.5418 58.8845L44.7308 56.9615L43.037 59.4376ZM24.8107 73.0646L44.7308 59.4376L43.037 56.9615L23.1169 70.5885L24.8107 73.0646ZM22.4638 69.6903V71.8266H25.4638V69.6903H22.4638ZM21.5601 71.1903H23.9638V68.1903H21.5601V71.1903ZM27.6136 47.55L20.1422 69.201L22.9781 70.1796L30.4495 48.5287L27.6136 47.55ZM4.15308 32.8378L28.1847 49.2774L29.8785 46.8013L5.84692 30.3618L4.15308 32.8378ZM34.7047 30.0998H5V33.0998H34.7047V30.0998ZM42.466 4.51069L33.2867 31.1105L36.1226 32.0891L45.3018 5.48931L42.466 4.51069Z" fill="#FFEF5B"/>
</svg>
