<svg width="310" height="464" viewBox="0 0 310 464" fill="none" xmlns="http://www.w3.org/2000/svg">
<rect width="309.626" height="464" fill="#C7B9FF"/>
<mask id="mask0_538_187" style="mask-type:alpha" maskUnits="userSpaceOnUse" x="27" y="127" width="174" height="304">
<path d="M47.4087 211.205C41.3924 211.205 36.5602 209.317 32.912 205.541C29.3278 201.764 27.5357 196.58 27.5357 189.988V151.97C27.5357 143.777 29.1678 137.601 32.432 133.441C35.6961 129.281 40.8164 127.201 47.7928 127.201C53.8731 127.201 58.7693 128.865 62.4815 132.193C66.1937 135.521 68.0498 140.321 68.0498 146.594V160.802H51.6329V148.61C51.6329 146.242 51.3449 144.609 50.7689 143.713C50.1929 142.817 49.2008 142.369 47.7928 142.369C46.3207 142.369 45.2966 142.881 44.7206 143.905C44.2086 144.929 43.9526 146.434 43.9526 148.418V189.796C43.9526 191.972 44.2726 193.572 44.9126 194.596C45.5526 195.556 46.5127 196.036 47.7928 196.036C50.3529 196.036 51.6329 193.956 51.6329 189.796V174.915H68.2418V190.468C68.2418 204.292 61.2974 211.205 47.4087 211.205ZM93.3598 211.205C86.7035 211.205 81.6472 209.189 78.191 205.156C74.7349 201.06 73.0068 195.332 73.0068 187.972V148.706C73.0068 141.601 74.7349 136.257 78.191 132.673C81.6472 129.025 86.7035 127.201 93.3598 127.201C100.016 127.201 105.072 129.025 108.529 132.673C111.985 136.257 113.713 141.601 113.713 148.706V187.972C113.713 195.396 111.985 201.124 108.529 205.156C105.072 209.189 100.016 211.205 93.3598 211.205ZM93.3598 196.036C94.8319 196.036 95.8239 195.396 96.336 194.116C96.848 192.836 97.104 191.044 97.104 188.74V148.418C97.104 146.626 96.848 145.185 96.336 144.097C95.8879 142.945 94.9279 142.369 93.4558 142.369C90.7037 142.369 89.3276 144.449 89.3276 148.61V188.836C89.3276 191.204 89.6156 192.996 90.1917 194.212C90.7677 195.428 91.8237 196.036 93.3598 196.036ZM140.05 211.205C133.393 211.205 128.337 209.189 124.881 205.156C121.425 201.06 119.697 195.332 119.697 187.972V148.706C119.697 141.601 121.425 136.257 124.881 132.673C128.337 129.025 133.393 127.201 140.05 127.201C146.706 127.201 151.762 129.025 155.218 132.673C158.675 136.257 160.403 141.601 160.403 148.706V187.972C160.403 195.396 158.675 201.124 155.218 205.156C151.762 209.189 146.706 211.205 140.05 211.205ZM140.05 196.036C141.522 196.036 142.514 195.396 143.026 194.116C143.538 192.836 143.794 191.044 143.794 188.74V148.418C143.794 146.626 143.538 145.185 143.026 144.097C142.578 142.945 141.618 142.369 140.146 142.369C137.394 142.369 136.017 144.449 136.017 148.61V188.836C136.017 191.204 136.305 192.996 136.882 194.212C137.458 195.428 138.514 196.036 140.05 196.036ZM167.059 210.437V127.969H183.571V196.42H200.564V210.437H167.059ZM28.2078 237.969H50.0009C56.5932 237.969 61.2974 240.113 64.1136 244.401C66.9297 248.625 68.3378 254.833 68.3378 263.026C68.3378 271.218 67.0897 277.395 64.5936 281.555C62.0975 285.715 57.6173 287.795 51.1529 287.795H44.4326V320.437H28.2078V237.969ZM45.3926 272.914C47.3767 272.914 48.8168 272.562 49.7128 271.858C50.6729 271.09 51.2809 270.034 51.5369 268.69C51.857 267.282 52.017 265.298 52.017 262.738C52.017 259.282 51.6329 256.786 50.8649 255.249C50.0969 253.713 48.5608 252.945 46.2567 252.945H44.4326V272.914H45.3926ZM71.2832 320.437L79.2516 237.969H107.189L115.061 320.437H99.4126L98.2606 307.092H88.2761L87.316 320.437H71.2832ZM89.5241 293.939H97.0125L93.3643 251.985H92.5963L89.5241 293.939ZM127.192 320.437V253.809H117.399V237.969H153.497V253.809H143.705V320.437H127.192ZM165.256 320.437V253.809H155.464V237.969H191.562V253.809H181.769V320.437H165.256ZM28.2078 430.437V347.969H61.2334V363.905H45.0086V379.938H60.5614V395.491H45.0086V414.404H62.2895V430.437H28.2078ZM67.7723 347.969H93.1176C97.1498 347.969 100.254 348.897 102.43 350.753C104.67 352.545 106.174 355.105 106.942 358.433C107.71 361.697 108.094 365.889 108.094 371.01C108.094 375.682 107.486 379.33 106.27 381.954C105.054 384.578 102.942 386.403 99.9339 387.427C102.43 387.939 104.222 389.187 105.31 391.171C106.462 393.155 107.038 395.843 107.038 399.235L106.846 430.437H90.7174V398.179C90.7174 395.875 90.2694 394.403 89.3734 393.763C88.4773 393.123 86.8452 392.803 84.4771 392.803V430.437H67.7723V347.969ZM88.5093 378.498C90.8134 378.498 91.9655 376.002 91.9655 371.01C91.9655 368.834 91.8695 367.202 91.6775 366.113C91.4855 365.025 91.1335 364.289 90.6214 363.905C90.1094 363.457 89.3734 363.233 88.4133 363.233H84.5731V378.498H88.5093ZM113.525 430.437V347.969H130.517L138.102 387.427V347.969H154.039V430.437H137.91L129.653 389.155V430.437H113.525Z" fill="white"/>
</mask>
<g mask="url(#mask0_538_187)">
<rect x="0.713379" y="1.42767" width="309.626" height="461.145" fill="#5551FF"/>
<g filter="url(#filter0_f_538_187)">
<rect width="110.942" height="95.4702" transform="matrix(0.837495 0.546445 -0.82013 0.572177 42.8052 341.932)" fill="#4DA660"/>
</g>
<g filter="url(#filter1_f_538_187)">
<rect width="157.003" height="150.574" transform="matrix(0.684917 -0.728621 0.728216 0.685348 -74.196 224.861)" fill="#E05A33"/>
</g>
<g filter="url(#filter2_f_538_187)">
<ellipse cx="117.47" cy="298.684" rx="29.0059" ry="19.5701" fill="#C4BBFA"/>
</g>
<g filter="url(#filter3_f_538_187)">
<ellipse cx="179.204" cy="407.306" rx="73.6173" ry="49.6691" fill="#5257F6"/>
<ellipse cx="179.204" cy="407.306" rx="73.6173" ry="49.6691" fill="#C4BBFA"/>
</g>
<g filter="url(#filter4_f_538_187)">
<ellipse cx="165.649" cy="301.656" rx="73.6173" ry="49.6691" fill="#F7C844"/>
</g>
</g>
<defs>
<filter id="filter0_f_538_187" x="-71.0503" y="306.375" width="242.326" height="186.364" filterUnits="userSpaceOnUse" color-interpolation-filters="sRGB">
<feFlood flood-opacity="0" result="BackgroundImageFix"/>
<feBlend mode="normal" in="SourceGraphic" in2="BackgroundImageFix" result="shape"/>
<feGaussianBlur stdDeviation="17.7787" result="effect1_foregroundBlur_538_187"/>
</filter>
<filter id="filter1_f_538_187" x="-91.9747" y="92.6874" width="252.742" height="253.148" filterUnits="userSpaceOnUse" color-interpolation-filters="sRGB">
<feFlood flood-opacity="0" result="BackgroundImageFix"/>
<feBlend mode="normal" in="SourceGraphic" in2="BackgroundImageFix" result="shape"/>
<feGaussianBlur stdDeviation="8.88934" result="effect1_foregroundBlur_538_187"/>
</filter>
<filter id="filter2_f_538_187" x="17.3496" y="207.999" width="200.241" height="181.37" filterUnits="userSpaceOnUse" color-interpolation-filters="sRGB">
<feFlood flood-opacity="0" result="BackgroundImageFix"/>
<feBlend mode="normal" in="SourceGraphic" in2="BackgroundImageFix" result="shape"/>
<feGaussianBlur stdDeviation="35.5574" result="effect1_foregroundBlur_538_187"/>
</filter>
<filter id="filter3_f_538_187" x="34.4719" y="286.522" width="289.464" height="241.568" filterUnits="userSpaceOnUse" color-interpolation-filters="sRGB">
<feFlood flood-opacity="0" result="BackgroundImageFix"/>
<feBlend mode="normal" in="SourceGraphic" in2="BackgroundImageFix" result="shape"/>
<feGaussianBlur stdDeviation="35.5574" result="effect1_foregroundBlur_538_187"/>
</filter>
<filter id="filter4_f_538_187" x="20.9168" y="180.873" width="289.464" height="241.568" filterUnits="userSpaceOnUse" color-interpolation-filters="sRGB">
<feFlood flood-opacity="0" result="BackgroundImageFix"/>
<feBlend mode="normal" in="SourceGraphic" in2="BackgroundImageFix" result="shape"/>
<feGaussianBlur stdDeviation="35.5574" result="effect1_foregroundBlur_538_187"/>
</filter>
</defs>
</svg>
