<svg width="400" height="500" viewBox="0 0 400 500" fill="none" xmlns="http://www.w3.org/2000/svg">
<g filter="url(#filter0_d_4_23)">
<rect x="20" y="20" width="360" height="460" rx="16" fill="#191919" shape-rendering="crispEdges"/>
<path d="M137.2 127.754C137.767 127.754 138.05 129.237 138.05 132.204C138.05 135.137 137.767 136.604 137.2 136.604H128.05V142.304H134.15C134.717 142.304 135 143.604 135 146.204C135 148.771 134.733 150.054 134.2 150.054H128.05V162.104C128.05 162.571 127.417 162.871 126.15 163.004C124.917 163.171 123.883 163.254 123.05 163.254L120.7 163.154C119.067 162.954 118.25 162.621 118.25 162.154V129.054C118.25 128.521 118.35 128.171 118.55 128.004C118.783 127.837 119.117 127.754 119.55 127.754H137.2ZM142.226 159.804C140.16 157.504 139.126 154.321 139.126 150.254C139.126 146.187 140.16 143.004 142.226 140.704C144.326 138.404 147.143 137.254 150.676 137.254C154.21 137.254 157.01 138.404 159.076 140.704C161.143 143.004 162.176 146.187 162.176 150.254C162.176 154.321 161.143 157.504 159.076 159.804C157.01 162.104 154.21 163.254 150.676 163.254C147.143 163.254 144.326 162.104 142.226 159.804ZM150.676 145.604C148.81 145.604 147.876 147.137 147.876 150.204C147.876 153.271 148.81 154.804 150.676 154.804C152.576 154.804 153.526 153.271 153.526 150.204C153.526 147.137 152.576 145.604 150.676 145.604ZM180.711 137.904C180.844 137.637 181.678 137.504 183.211 137.504C188.211 137.504 190.644 137.687 190.511 138.054L184.411 150.704C188.511 158.371 190.561 162.204 190.561 162.204C190.561 162.404 189.561 162.571 187.561 162.704C185.561 162.837 184.144 162.904 183.311 162.904C181.211 162.904 180.094 162.687 179.961 162.254L177.261 153.904L174.161 162.604C174.094 162.837 173.144 162.954 171.311 162.954C169.478 162.954 167.844 162.887 166.411 162.754C164.978 162.621 164.328 162.454 164.461 162.254L170.111 150.754C166.178 142.521 164.211 138.387 164.211 138.354C164.211 138.154 164.711 137.971 165.711 137.804C166.744 137.637 167.894 137.554 169.161 137.554C170.461 137.554 171.694 137.621 172.861 137.754C174.028 137.854 174.678 138.004 174.811 138.204L177.461 146.304L180.711 137.904Z" fill="white"/>
<path d="M132.8 178.55C135.233 178.55 137.367 178.9 139.2 179.6C141.067 180.267 142 181.183 142 182.35C142 183.517 141.55 184.967 140.65 186.7C139.783 188.4 139.05 189.25 138.45 189.25C138.283 189.25 138.083 189.167 137.85 189C137.65 188.8 137.15 188.6 136.35 188.4C135.583 188.167 134.917 188.05 134.35 188.05C132.417 188.05 130.85 188.733 129.65 190.1C128.483 191.467 127.9 193.567 127.9 196.4C127.9 199.2 128.5 201.283 129.7 202.65C130.933 204.017 132.483 204.7 134.35 204.7C135.117 204.7 135.967 204.6 136.9 204.4C137.867 204.167 138.55 203.85 138.95 203.45C139.017 203.383 139.15 203.35 139.35 203.35C139.55 203.35 139.917 203.733 140.45 204.5C141.017 205.233 141.533 206.217 142 207.45C142.467 208.65 142.7 209.583 142.7 210.25C142.7 211.55 141.7 212.583 139.7 213.35C137.7 214.117 135.333 214.5 132.6 214.5C128.2 214.5 124.583 212.95 121.75 209.85C118.917 206.75 117.5 202.383 117.5 196.75C117.5 191.083 118.95 186.633 121.85 183.4C124.783 180.167 128.433 178.55 132.8 178.55ZM148.427 211.05C146.361 208.75 145.327 205.567 145.327 201.5C145.327 197.433 146.361 194.25 148.427 191.95C150.527 189.65 153.344 188.5 156.877 188.5C160.411 188.5 163.211 189.65 165.277 191.95C167.344 194.25 168.377 197.433 168.377 201.5C168.377 205.567 167.344 208.75 165.277 211.05C163.211 213.35 160.411 214.5 156.877 214.5C153.344 214.5 150.527 213.35 148.427 211.05ZM156.877 196.85C155.011 196.85 154.077 198.383 154.077 201.45C154.077 204.517 155.011 206.05 156.877 206.05C158.777 206.05 159.727 204.517 159.727 201.45C159.727 198.383 158.777 196.85 156.877 196.85ZM173.862 195.65H171.412C170.912 195.65 170.662 194.55 170.662 192.35C170.662 190.117 170.912 189 171.412 189H173.862V187.9C173.862 184.367 174.595 181.933 176.062 180.6C177.562 179.233 179.645 178.55 182.312 178.55C184.979 178.55 187.329 179.033 189.362 180C189.629 180.1 189.762 180.467 189.762 181.1C189.762 181.7 189.479 182.683 188.912 184.05C188.345 185.417 187.862 186.2 187.462 186.4C186.329 185.7 185.162 185.35 183.962 185.35C182.662 185.35 182.012 186.217 182.012 187.95V189H186.162C186.762 189 187.062 190.067 187.062 192.2C187.062 194.533 186.679 195.7 185.912 195.7H182.712V213.4C182.712 213.8 181.229 214 178.262 214C175.329 214 173.862 213.8 173.862 213.4V195.65ZM192.612 195.65H190.162C189.662 195.65 189.412 194.55 189.412 192.35C189.412 190.117 189.662 189 190.162 189H192.612V187.9C192.612 184.367 193.345 181.933 194.812 180.6C196.312 179.233 198.395 178.55 201.062 178.55C203.729 178.55 206.079 179.033 208.112 180C208.379 180.1 208.512 180.467 208.512 181.1C208.512 181.7 208.229 182.683 207.662 184.05C207.095 185.417 206.612 186.2 206.212 186.4C205.079 185.7 203.912 185.35 202.712 185.35C201.412 185.35 200.762 186.217 200.762 187.95V189H204.912C205.512 189 205.812 190.067 205.812 192.2C205.812 194.533 205.429 195.7 204.662 195.7H201.462V213.4C201.462 213.8 199.979 214 197.012 214C194.079 214 192.612 213.8 192.612 213.4V195.65ZM227.043 212.65C224.943 213.883 222.243 214.5 218.943 214.5C215.643 214.5 212.859 213.383 210.593 211.15C208.326 208.883 207.193 205.767 207.193 201.8C207.193 197.8 208.276 194.583 210.443 192.15C212.643 189.717 215.409 188.5 218.743 188.5C222.076 188.5 224.643 189.35 226.443 191.05C228.276 192.75 229.193 194.817 229.193 197.25C229.193 202.65 226.093 205.35 219.893 205.35H216.443C216.443 206.35 216.709 207.05 217.243 207.45C217.809 207.817 218.626 208 219.693 208C222.026 208 224.243 207.467 226.343 206.4C226.376 206.367 226.526 206.6 226.793 207.1C227.593 208.533 227.993 209.75 227.993 210.75C227.993 211.717 227.676 212.35 227.043 212.65ZM220.793 198.2C220.793 196.8 220.109 196.1 218.743 196.1C218.109 196.1 217.559 196.3 217.093 196.7C216.659 197.067 216.443 197.617 216.443 198.35V199.9H219.143C220.243 199.9 220.793 199.333 220.793 198.2ZM251.359 212.65C249.259 213.883 246.559 214.5 243.259 214.5C239.959 214.5 237.176 213.383 234.909 211.15C232.642 208.883 231.509 205.767 231.509 201.8C231.509 197.8 232.592 194.583 234.759 192.15C236.959 189.717 239.726 188.5 243.059 188.5C246.392 188.5 248.959 189.35 250.759 191.05C252.592 192.75 253.509 194.817 253.509 197.25C253.509 202.65 250.409 205.35 244.209 205.35H240.759C240.759 206.35 241.026 207.05 241.559 207.45C242.126 207.817 242.942 208 244.009 208C246.342 208 248.559 207.467 250.659 206.4C250.692 206.367 250.842 206.6 251.109 207.1C251.909 208.533 252.309 209.75 252.309 210.75C252.309 211.717 251.992 212.35 251.359 212.65ZM245.109 198.2C245.109 196.8 244.426 196.1 243.059 196.1C242.426 196.1 241.876 196.3 241.409 196.7C240.976 197.067 240.759 197.617 240.759 198.35V199.9H243.459C244.559 199.9 245.109 199.333 245.109 198.2Z" fill="white"/>
<path fill-rule="evenodd" clip-rule="evenodd" d="M224.88 100.296C225.255 100.241 225.569 99.9836 225.703 99.6294C229.55 89.416 240.052 83.0925 250.79 84.0198C251.698 84.0983 251.947 85.2883 251.241 85.8661C246.661 89.617 244.002 95.3263 243.164 100.791C243.09 101.271 243.39 101.724 243.853 101.874C248.32 103.315 252.543 105.509 256.296 108.327C256.666 108.605 257.176 108.602 257.547 108.326C265.166 102.661 275.612 101.88 283.996 106.272C284.734 106.659 284.626 107.718 283.858 108.042C277.511 110.725 272.009 115.348 268.301 121.447C268.12 121.746 268.115 122.118 268.277 122.427C274.327 133.988 274.896 148.127 268.834 160.54C268.606 161.008 268.053 161.21 267.57 161.019C253.063 155.303 234.135 155.029 220.247 164.507C219.539 164.99 218.544 164.459 218.565 163.603C219.024 145.316 211.544 130.03 195.276 121.564C194.764 121.298 194.565 120.657 194.865 120.165C201.366 109.479 212.509 102.108 224.88 100.296ZM223.183 119.389C223.038 118.871 223.37 118.347 223.902 118.268C230.133 117.353 235.895 122.452 235.833 128.683C235.827 129.22 235.352 129.62 234.819 129.546C229.323 128.781 224.673 124.711 223.183 119.389ZM241.482 132.956C241.045 133.268 240.989 133.887 241.354 134.281C245.125 138.35 251.144 139.855 256.402 138.015C256.909 137.837 257.15 137.264 256.909 136.784C254.107 131.193 246.624 129.275 241.482 132.956Z" fill="#FF8121"/>
<path d="M181.797 268L175.341 259.624L176.781 258.76L183.837 268H181.797ZM170.301 268V251.2H172.029V268H170.301ZM171.501 260.296V258.736H176.757V260.296H171.501ZM176.925 259.792L175.293 259.504L181.557 251.2H183.477L176.925 259.792ZM191.202 268.12C189.986 268.12 188.89 267.848 187.914 267.304C186.954 266.744 186.194 265.984 185.634 265.024C185.074 264.048 184.794 262.936 184.794 261.688C184.794 260.424 185.074 259.312 185.634 258.352C186.194 257.392 186.954 256.64 187.914 256.096C188.874 255.552 189.97 255.28 191.202 255.28C192.45 255.28 193.554 255.552 194.514 256.096C195.49 256.64 196.25 257.392 196.794 258.352C197.354 259.312 197.634 260.424 197.634 261.688C197.634 262.936 197.354 264.048 196.794 265.024C196.25 265.984 195.49 266.744 194.514 267.304C193.538 267.848 192.434 268.12 191.202 268.12ZM191.202 266.608C192.114 266.608 192.922 266.408 193.626 266.008C194.33 265.592 194.882 265.016 195.282 264.28C195.698 263.528 195.906 262.664 195.906 261.688C195.906 260.696 195.698 259.832 195.282 259.096C194.882 258.36 194.33 257.792 193.626 257.392C192.922 256.976 192.122 256.768 191.226 256.768C190.33 256.768 189.53 256.976 188.826 257.392C188.122 257.792 187.562 258.36 187.146 259.096C186.73 259.832 186.522 260.696 186.522 261.688C186.522 262.664 186.73 263.528 187.146 264.28C187.562 265.016 188.122 265.592 188.826 266.008C189.53 266.408 190.322 266.608 191.202 266.608ZM208.356 268.144C208.356 268.144 208.324 268.144 208.26 268.144C208.196 268.144 208.132 268.144 208.068 268.144C208.02 268.144 207.98 268.144 207.948 268.144C205.452 268.128 203.508 267.56 202.116 266.44C200.724 265.32 200.028 263.728 200.028 261.664C200.028 259.632 200.724 258.064 202.116 256.96C203.524 255.84 205.5 255.272 208.044 255.256C208.06 255.256 208.092 255.256 208.14 255.256C208.204 255.256 208.26 255.256 208.308 255.256C208.356 255.256 208.388 255.256 208.404 255.256C210.964 255.272 212.956 255.84 214.38 256.96C215.804 258.064 216.516 259.632 216.516 261.664C216.516 263.744 215.796 265.344 214.356 266.464C212.932 267.584 210.932 268.144 208.356 268.144ZM208.332 266.656C209.756 266.656 210.948 266.464 211.908 266.08C212.868 265.68 213.596 265.112 214.092 264.376C214.588 263.64 214.836 262.736 214.836 261.664C214.836 260.624 214.588 259.744 214.092 259.024C213.596 258.288 212.868 257.728 211.908 257.344C210.948 256.96 209.756 256.768 208.332 256.768C208.316 256.768 208.268 256.768 208.188 256.768C208.124 256.768 208.084 256.768 208.068 256.768C206.676 256.768 205.508 256.968 204.564 257.368C203.62 257.752 202.908 258.304 202.428 259.024C201.948 259.744 201.708 260.624 201.708 261.664C201.708 262.72 201.948 263.616 202.428 264.352C202.924 265.088 203.644 265.656 204.588 266.056C205.532 266.44 206.692 266.64 208.068 266.656C208.1 266.656 208.148 266.656 208.212 266.656C208.276 266.656 208.316 266.656 208.332 266.656ZM207.42 272.656V250.192H209.076V272.656H207.42ZM225.519 268.12C224.207 268.12 223.055 267.848 222.063 267.304C221.071 266.744 220.295 265.984 219.735 265.024C219.175 264.048 218.895 262.936 218.895 261.688C218.895 260.44 219.159 259.336 219.687 258.376C220.231 257.416 220.967 256.664 221.895 256.12C222.839 255.56 223.895 255.28 225.063 255.28C226.247 255.28 227.295 255.552 228.207 256.096C229.135 256.624 229.863 257.376 230.391 258.352C230.919 259.312 231.183 260.424 231.183 261.688C231.183 261.768 231.175 261.856 231.159 261.952C231.159 262.032 231.159 262.12 231.159 262.216H220.191V260.944H230.247L229.575 261.448C229.575 260.536 229.375 259.728 228.975 259.024C228.591 258.304 228.063 257.744 227.391 257.344C226.719 256.944 225.943 256.744 225.063 256.744C224.199 256.744 223.423 256.944 222.735 257.344C222.047 257.744 221.511 258.304 221.127 259.024C220.743 259.744 220.551 260.568 220.551 261.496V261.76C220.551 262.72 220.759 263.568 221.175 264.304C221.607 265.024 222.199 265.592 222.951 266.008C223.719 266.408 224.591 266.608 225.567 266.608C226.335 266.608 227.047 266.472 227.703 266.2C228.375 265.928 228.951 265.512 229.431 264.952L230.391 266.056C229.831 266.728 229.127 267.24 228.279 267.592C227.447 267.944 226.527 268.12 225.519 268.12ZM127.779 296.184V285.888H121.707L121.563 288.696C121.531 289.544 121.475 290.376 121.395 291.192C121.331 292.008 121.211 292.76 121.035 293.448C120.875 294.12 120.643 294.672 120.339 295.104C120.035 295.52 119.643 295.76 119.163 295.824L117.459 295.512C117.955 295.528 118.363 295.352 118.683 294.984C119.003 294.6 119.251 294.08 119.427 293.424C119.603 292.768 119.731 292.024 119.811 291.192C119.891 290.344 119.955 289.48 120.003 288.6L120.171 284.4H129.483V296.184H127.779ZM116.931 300.048V295.512H131.451V300.048H129.843V297H118.539V300.048H116.931ZM132.468 296.976L132.588 295.512C132.7 295.528 132.804 295.552 132.9 295.584C133.012 295.6 133.108 295.608 133.188 295.608C133.7 295.608 134.108 295.416 134.412 295.032C134.732 294.648 134.972 294.136 135.132 293.496C135.292 292.856 135.404 292.136 135.468 291.336C135.532 290.52 135.588 289.704 135.636 288.888L135.852 284.4H145.092V297H143.388V285.384L143.82 285.888H136.956L137.364 285.36L137.172 289.008C137.124 290.096 137.036 291.136 136.908 292.128C136.796 293.12 136.612 293.992 136.356 294.744C136.116 295.496 135.78 296.088 135.348 296.52C134.916 296.936 134.364 297.144 133.692 297.144C133.5 297.144 133.3 297.128 133.092 297.096C132.9 297.064 132.692 297.024 132.468 296.976ZM158.072 297V292.464L158.384 292.824H154.112C152.496 292.824 151.232 292.472 150.32 291.768C149.408 291.064 148.952 290.04 148.952 288.696C148.952 287.256 149.44 286.184 150.416 285.48C151.392 284.76 152.696 284.4 154.328 284.4H159.632V297H158.072ZM148.856 297L152.312 292.152H154.088L150.704 297H148.856ZM158.072 291.96V285.384L158.384 285.888H154.376C153.208 285.888 152.296 286.112 151.64 286.56C151 287.008 150.68 287.736 150.68 288.744C150.68 290.616 151.872 291.552 154.256 291.552H158.384L158.072 291.96ZM168.468 296.976L168.588 295.512C168.7 295.528 168.804 295.552 168.9 295.584C169.012 295.6 169.108 295.608 169.188 295.608C169.7 295.608 170.108 295.416 170.412 295.032C170.732 294.648 170.972 294.136 171.132 293.496C171.292 292.856 171.404 292.136 171.468 291.336C171.532 290.52 171.588 289.704 171.636 288.888L171.852 284.4H181.092V297H179.388V285.384L179.82 285.888H172.956L173.364 285.36L173.172 289.008C173.124 290.096 173.036 291.136 172.908 292.128C172.796 293.12 172.612 293.992 172.356 294.744C172.116 295.496 171.78 296.088 171.348 296.52C170.916 296.936 170.364 297.144 169.692 297.144C169.5 297.144 169.3 297.128 169.092 297.096C168.9 297.064 168.692 297.024 168.468 296.976ZM191.12 297.12C189.904 297.12 188.808 296.848 187.832 296.304C186.872 295.744 186.112 294.984 185.552 294.024C184.992 293.048 184.712 291.936 184.712 290.688C184.712 289.424 184.992 288.312 185.552 287.352C186.112 286.392 186.872 285.64 187.832 285.096C188.792 284.552 189.888 284.28 191.12 284.28C192.368 284.28 193.472 284.552 194.432 285.096C195.408 285.64 196.168 286.392 196.712 287.352C197.272 288.312 197.552 289.424 197.552 290.688C197.552 291.936 197.272 293.048 196.712 294.024C196.168 294.984 195.408 295.744 194.432 296.304C193.456 296.848 192.352 297.12 191.12 297.12ZM191.12 295.608C192.032 295.608 192.84 295.408 193.544 295.008C194.248 294.592 194.8 294.016 195.2 293.28C195.616 292.528 195.824 291.664 195.824 290.688C195.824 289.696 195.616 288.832 195.2 288.096C194.8 287.36 194.248 286.792 193.544 286.392C192.84 285.976 192.04 285.768 191.144 285.768C190.248 285.768 189.448 285.976 188.744 286.392C188.04 286.792 187.48 287.36 187.064 288.096C186.648 288.832 186.44 289.696 186.44 290.688C186.44 291.664 186.648 292.528 187.064 293.28C187.48 294.016 188.04 294.592 188.744 295.008C189.448 295.408 190.24 295.608 191.12 295.608ZM201.194 297V284.4H206.762C208.186 284.4 209.306 284.672 210.122 285.216C210.954 285.76 211.37 286.56 211.37 287.616C211.37 288.64 210.978 289.432 210.194 289.992C209.41 290.536 208.378 290.808 207.098 290.808L207.434 290.304C208.938 290.304 210.042 290.584 210.746 291.144C211.45 291.704 211.802 292.512 211.802 293.568C211.802 294.656 211.402 295.504 210.602 296.112C209.818 296.704 208.594 297 206.93 297H201.194ZM202.85 295.656H206.858C207.93 295.656 208.738 295.488 209.282 295.152C209.842 294.8 210.122 294.24 210.122 293.472C210.122 292.704 209.874 292.144 209.378 291.792C208.882 291.44 208.098 291.264 207.026 291.264H202.85V295.656ZM202.85 289.992H206.642C207.618 289.992 208.362 289.808 208.874 289.44C209.402 289.072 209.666 288.536 209.666 287.832C209.666 287.128 209.402 286.6 208.874 286.248C208.362 285.896 207.618 285.72 206.642 285.72H202.85V289.992ZM225.035 297L219.851 290.76L221.267 289.92L227.051 297H225.035ZM215.795 297V284.4H217.499V297H215.795ZM216.971 291.384V289.92H221.027V291.384H216.971ZM221.411 290.88L219.827 290.64L224.843 284.4H226.691L221.411 290.88ZM234.479 297.12C233.263 297.12 232.167 296.848 231.191 296.304C230.231 295.744 229.471 294.984 228.911 294.024C228.351 293.048 228.071 291.936 228.071 290.688C228.071 289.424 228.351 288.312 228.911 287.352C229.471 286.392 230.231 285.64 231.191 285.096C232.151 284.552 233.247 284.28 234.479 284.28C235.727 284.28 236.831 284.552 237.791 285.096C238.767 285.64 239.527 286.392 240.071 287.352C240.631 288.312 240.911 289.424 240.911 290.688C240.911 291.936 240.631 293.048 240.071 294.024C239.527 294.984 238.767 295.744 237.791 296.304C236.815 296.848 235.711 297.12 234.479 297.12ZM234.479 295.608C235.391 295.608 236.199 295.408 236.903 295.008C237.607 294.592 238.159 294.016 238.559 293.28C238.975 292.528 239.183 291.664 239.183 290.688C239.183 289.696 238.975 288.832 238.559 288.096C238.159 287.36 237.607 286.792 236.903 286.392C236.199 285.976 235.399 285.768 234.503 285.768C233.607 285.768 232.807 285.976 232.103 286.392C231.399 286.792 230.839 287.36 230.423 288.096C230.007 288.832 229.799 289.696 229.799 290.688C229.799 291.664 230.007 292.528 230.423 293.28C230.839 294.016 231.399 294.592 232.103 295.008C232.807 295.408 233.599 295.608 234.479 295.608ZM249.833 297.12C248.585 297.12 247.465 296.848 246.473 296.304C245.497 295.744 244.729 294.984 244.169 294.024C243.609 293.048 243.329 291.936 243.329 290.688C243.329 289.424 243.609 288.312 244.169 287.352C244.729 286.392 245.497 285.64 246.473 285.096C247.465 284.552 248.585 284.28 249.833 284.28C250.905 284.28 251.873 284.488 252.737 284.904C253.601 285.32 254.281 285.944 254.777 286.776L253.505 287.64C253.073 287 252.537 286.528 251.897 286.224C251.257 285.92 250.561 285.768 249.809 285.768C248.913 285.768 248.105 285.976 247.385 286.392C246.665 286.792 246.097 287.36 245.681 288.096C245.265 288.832 245.057 289.696 245.057 290.688C245.057 291.68 245.265 292.544 245.681 293.28C246.097 294.016 246.665 294.592 247.385 295.008C248.105 295.408 248.913 295.608 249.809 295.608C250.561 295.608 251.257 295.456 251.897 295.152C252.537 294.848 253.073 294.384 253.505 293.76L254.777 294.624C254.281 295.44 253.601 296.064 252.737 296.496C251.873 296.912 250.905 297.12 249.833 297.12ZM260.242 297V285.432L260.674 285.888H255.466V284.4H266.722V285.888H261.514L261.946 285.432V297H260.242ZM269.186 297V284.4H270.89V294.408L279.314 284.4H280.826V297H279.122V286.968L270.722 297H269.186Z" fill="white"/>
<path d="M135.509 401.62C136.189 401.887 136.829 401.953 137.429 401.82C138.029 401.673 138.582 401.2 139.089 400.4L139.769 399.32L139.909 399.14L145.269 389H146.749L140.389 400.72C139.962 401.533 139.455 402.14 138.869 402.54C138.295 402.94 137.682 403.153 137.029 403.18C136.389 403.207 135.742 403.087 135.089 402.82L135.509 401.62ZM139.869 400.48L133.809 389H135.389L140.669 399.26L139.869 400.48ZM146.379 402.98L146.479 401.76C146.573 401.773 146.659 401.793 146.739 401.82C146.833 401.833 146.913 401.84 146.979 401.84C147.406 401.84 147.746 401.68 147.999 401.36C148.266 401.04 148.466 400.613 148.599 400.08C148.733 399.547 148.826 398.947 148.879 398.28C148.933 397.6 148.979 396.92 149.019 396.24L149.199 392.5H156.899V403H155.479V393.32L155.839 393.74H150.119L150.459 393.3L150.299 396.34C150.259 397.247 150.186 398.113 150.079 398.94C149.986 399.767 149.833 400.493 149.619 401.12C149.419 401.747 149.139 402.24 148.779 402.6C148.419 402.947 147.959 403.12 147.399 403.12C147.239 403.12 147.073 403.107 146.899 403.08C146.739 403.053 146.566 403.02 146.379 402.98ZM161.036 403.1C160.743 403.1 160.489 402.993 160.276 402.78C160.076 402.567 159.976 402.307 159.976 402C159.976 401.68 160.076 401.42 160.276 401.22C160.489 401.02 160.743 400.92 161.036 400.92C161.329 400.92 161.576 401.02 161.776 401.22C161.989 401.42 162.096 401.68 162.096 402C162.096 402.307 161.989 402.567 161.776 402.78C161.576 402.993 161.329 403.1 161.036 403.1ZM170.749 403V389H180.989V390.26H172.209V394.84H176.789C178.442 394.84 179.695 395.18 180.549 395.86C181.415 396.527 181.849 397.513 181.849 398.82C181.849 400.167 181.382 401.2 180.449 401.92C179.529 402.64 178.202 403 176.469 403H170.749ZM172.209 401.82H176.449C177.742 401.82 178.715 401.573 179.369 401.08C180.035 400.573 180.369 399.84 180.369 398.88C180.369 396.973 179.062 396.02 176.449 396.02H172.209V401.82ZM189.24 403.1C188.227 403.1 187.314 402.873 186.5 402.42C185.7 401.953 185.067 401.32 184.6 400.52C184.134 399.707 183.9 398.78 183.9 397.74C183.9 396.687 184.134 395.76 184.6 394.96C185.067 394.16 185.7 393.533 186.5 393.08C187.3 392.627 188.214 392.4 189.24 392.4C190.28 392.4 191.2 392.627 192 393.08C192.814 393.533 193.447 394.16 193.9 394.96C194.367 395.76 194.6 396.687 194.6 397.74C194.6 398.78 194.367 399.707 193.9 400.52C193.447 401.32 192.814 401.953 192 402.42C191.187 402.873 190.267 403.1 189.24 403.1ZM189.24 401.84C190 401.84 190.674 401.673 191.26 401.34C191.847 400.993 192.307 400.513 192.64 399.9C192.987 399.273 193.16 398.553 193.16 397.74C193.16 396.913 192.987 396.193 192.64 395.58C192.307 394.967 191.847 394.493 191.26 394.16C190.674 393.813 190.007 393.64 189.26 393.64C188.514 393.64 187.847 393.813 187.26 394.16C186.674 394.493 186.207 394.967 185.86 395.58C185.514 396.193 185.34 396.913 185.34 397.74C185.34 398.553 185.514 399.273 185.86 399.9C186.207 400.513 186.674 400.993 187.26 401.34C187.847 401.673 188.507 401.84 189.24 401.84ZM202.135 403.1C201.042 403.1 200.082 402.873 199.255 402.42C198.429 401.953 197.782 401.32 197.315 400.52C196.849 399.707 196.615 398.78 196.615 397.74C196.615 396.7 196.835 395.78 197.275 394.98C197.729 394.18 198.342 393.553 199.115 393.1C199.902 392.633 200.782 392.4 201.755 392.4C202.742 392.4 203.615 392.627 204.375 393.08C205.149 393.52 205.755 394.147 206.195 394.96C206.635 395.76 206.855 396.687 206.855 397.74C206.855 397.807 206.849 397.88 206.835 397.96C206.835 398.027 206.835 398.1 206.835 398.18H197.695V397.12H206.075L205.515 397.54C205.515 396.78 205.349 396.107 205.015 395.52C204.695 394.92 204.255 394.453 203.695 394.12C203.135 393.787 202.489 393.62 201.755 393.62C201.035 393.62 200.389 393.787 199.815 394.12C199.242 394.453 198.795 394.92 198.475 395.52C198.155 396.12 197.995 396.807 197.995 397.58V397.8C197.995 398.6 198.169 399.307 198.515 399.92C198.875 400.52 199.369 400.993 199.995 401.34C200.635 401.673 201.362 401.84 202.175 401.84C202.815 401.84 203.409 401.727 203.955 401.5C204.515 401.273 204.995 400.927 205.395 400.46L206.195 401.38C205.729 401.94 205.142 402.367 204.435 402.66C203.742 402.953 202.975 403.1 202.135 403.1ZM209.999 403V392.5H214.639C215.825 392.5 216.759 392.727 217.439 393.18C218.132 393.633 218.479 394.3 218.479 395.18C218.479 396.033 218.152 396.693 217.499 397.16C216.845 397.613 215.985 397.84 214.919 397.84L215.199 397.42C216.452 397.42 217.372 397.653 217.959 398.12C218.545 398.587 218.839 399.26 218.839 400.14C218.839 401.047 218.505 401.753 217.839 402.26C217.185 402.753 216.165 403 214.779 403H209.999ZM211.379 401.88H214.719C215.612 401.88 216.285 401.74 216.739 401.46C217.205 401.167 217.439 400.7 217.439 400.06C217.439 399.42 217.232 398.953 216.819 398.66C216.405 398.367 215.752 398.22 214.859 398.22H211.379V401.88ZM211.379 397.16H214.539C215.352 397.16 215.972 397.007 216.399 396.7C216.839 396.393 217.059 395.947 217.059 395.36C217.059 394.773 216.839 394.333 216.399 394.04C215.972 393.747 215.352 393.6 214.539 393.6H211.379V397.16ZM228.686 403V400.68L228.626 400.3V396.42C228.626 395.527 228.373 394.84 227.866 394.36C227.373 393.88 226.633 393.64 225.646 393.64C224.966 393.64 224.32 393.753 223.706 393.98C223.093 394.207 222.573 394.507 222.146 394.88L221.506 393.82C222.04 393.367 222.68 393.02 223.426 392.78C224.173 392.527 224.96 392.4 225.786 392.4C227.146 392.4 228.193 392.74 228.926 393.42C229.673 394.087 230.046 395.107 230.046 396.48V403H228.686ZM225.066 403.1C224.28 403.1 223.593 402.973 223.006 402.72C222.433 402.453 221.993 402.093 221.686 401.64C221.38 401.173 221.226 400.64 221.226 400.04C221.226 399.493 221.353 399 221.606 398.56C221.873 398.107 222.3 397.747 222.886 397.48C223.486 397.2 224.286 397.06 225.286 397.06H228.906V398.12H225.326C224.313 398.12 223.606 398.3 223.206 398.66C222.82 399.02 222.626 399.467 222.626 400C222.626 400.6 222.86 401.08 223.326 401.44C223.793 401.8 224.446 401.98 225.286 401.98C226.086 401.98 226.773 401.8 227.346 401.44C227.933 401.067 228.36 400.533 228.626 399.84L228.946 400.82C228.68 401.513 228.213 402.067 227.546 402.48C226.893 402.893 226.066 403.1 225.066 403.1ZM232.927 405.92L233.807 402.22L233.967 403.08C233.66 403.08 233.4 402.98 233.187 402.78C232.987 402.58 232.887 402.32 232.887 402C232.887 401.68 232.987 401.42 233.187 401.22C233.4 401.02 233.653 400.92 233.947 400.92C234.253 400.92 234.5 401.027 234.687 401.24C234.887 401.453 234.987 401.707 234.987 402C234.987 402.107 234.98 402.213 234.967 402.32C234.953 402.427 234.927 402.547 234.887 402.68C234.847 402.813 234.793 402.973 234.727 403.16L233.887 405.92H232.927ZM244.779 403L250.819 389.64L251.259 390.28H242.599L243.339 389.58V392.9H241.919V389H252.199V390.02L246.339 403H244.779ZM252.029 403L258.429 389H259.889L266.289 403H264.729L258.849 389.86H259.449L253.569 403H252.029ZM254.549 399.26L254.989 398.06H263.129L263.569 399.26H254.549Z" fill="white"/>
<path d="M122.253 439C120.88 439 119.626 438.773 118.493 438.32C117.36 437.88 116.38 437.253 115.553 436.44C114.74 435.64 114.106 434.687 113.653 433.58C113.213 432.46 112.993 431.24 112.993 429.92C112.993 428.587 113.213 427.373 113.653 426.28C114.106 425.173 114.746 424.22 115.573 423.42C116.413 422.607 117.406 421.98 118.553 421.54C119.7 421.1 120.96 420.88 122.333 420.88C123.693 420.88 124.933 421.093 126.053 421.52C127.186 421.947 128.166 422.553 128.993 423.34C129.82 424.113 130.453 425.04 130.893 426.12C131.346 427.2 131.573 428.393 131.573 429.7C131.573 430.82 131.44 431.787 131.173 432.6C130.92 433.4 130.546 434.02 130.053 434.46C129.56 434.887 128.966 435.1 128.273 435.1C127.593 435.1 127.046 434.893 126.633 434.48C126.22 434.067 126.013 433.487 126.013 432.74V431.16L126.173 429.88L125.973 427.88V424.86H127.273V432.44C127.273 433 127.393 433.393 127.633 433.62C127.873 433.847 128.166 433.96 128.513 433.96C128.926 433.96 129.286 433.793 129.593 433.46C129.9 433.127 130.133 432.647 130.293 432.02C130.466 431.38 130.553 430.613 130.553 429.72C130.553 428.547 130.353 427.48 129.953 426.52C129.553 425.56 128.986 424.733 128.253 424.04C127.52 423.347 126.653 422.82 125.653 422.46C124.653 422.087 123.546 421.9 122.333 421.9C121.12 421.9 120.006 422.093 118.993 422.48C117.98 422.867 117.106 423.42 116.373 424.14C115.653 424.847 115.093 425.693 114.693 426.68C114.293 427.653 114.093 428.733 114.093 429.92C114.093 431.107 114.286 432.193 114.673 433.18C115.073 434.167 115.633 435.013 116.353 435.72C117.073 436.44 117.933 436.993 118.933 437.38C119.933 437.78 121.04 437.98 122.253 437.98C122.853 437.98 123.493 437.907 124.173 437.76C124.866 437.613 125.506 437.393 126.093 437.1L126.433 438.08C125.833 438.387 125.153 438.613 124.393 438.76C123.633 438.92 122.92 439 122.253 439ZM122.013 435.1C121.066 435.1 120.22 434.88 119.473 434.44C118.726 433.987 118.133 433.373 117.693 432.6C117.266 431.813 117.053 430.92 117.053 429.92C117.053 428.92 117.266 428.033 117.693 427.26C118.133 426.487 118.726 425.88 119.473 425.44C120.22 425 121.066 424.78 122.013 424.78C122.933 424.78 123.746 424.987 124.453 425.4C125.173 425.813 125.733 426.407 126.133 427.18C126.546 427.94 126.753 428.853 126.753 429.92C126.753 430.987 126.546 431.907 126.133 432.68C125.733 433.453 125.18 434.053 124.473 434.48C123.766 434.893 122.946 435.1 122.013 435.1ZM122.193 433.94C122.913 433.94 123.56 433.773 124.133 433.44C124.72 433.107 125.173 432.64 125.493 432.04C125.826 431.427 125.993 430.72 125.993 429.92C125.993 429.107 125.826 428.407 125.493 427.82C125.173 427.22 124.72 426.76 124.133 426.44C123.56 426.107 122.913 425.94 122.193 425.94C121.446 425.94 120.786 426.107 120.213 426.44C119.64 426.76 119.186 427.22 118.853 427.82C118.533 428.42 118.373 429.12 118.373 429.92C118.373 430.72 118.533 431.42 118.853 432.02C119.186 432.62 119.64 433.093 120.213 433.44C120.786 433.773 121.446 433.94 122.193 433.94ZM134.837 435V423.18C134.837 422.247 135.111 421.493 135.657 420.92C136.204 420.347 136.991 420.06 138.017 420.06C138.417 420.06 138.804 420.113 139.177 420.22C139.551 420.327 139.864 420.493 140.117 420.72L139.637 421.78C139.437 421.607 139.204 421.48 138.937 421.4C138.671 421.307 138.384 421.26 138.077 421.26C137.477 421.26 137.017 421.427 136.697 421.76C136.377 422.093 136.217 422.587 136.217 423.24V424.84L136.257 425.5V435H134.837ZM132.957 425.68V424.5H139.457V425.68H132.957ZM145.479 435.1C144.465 435.1 143.552 434.873 142.739 434.42C141.939 433.953 141.305 433.32 140.839 432.52C140.372 431.707 140.139 430.78 140.139 429.74C140.139 428.687 140.372 427.76 140.839 426.96C141.305 426.16 141.939 425.533 142.739 425.08C143.539 424.627 144.452 424.4 145.479 424.4C146.519 424.4 147.439 424.627 148.239 425.08C149.052 425.533 149.685 426.16 150.139 426.96C150.605 427.76 150.839 428.687 150.839 429.74C150.839 430.78 150.605 431.707 150.139 432.52C149.685 433.32 149.052 433.953 148.239 434.42C147.425 434.873 146.505 435.1 145.479 435.1ZM145.479 433.84C146.239 433.84 146.912 433.673 147.499 433.34C148.085 432.993 148.545 432.513 148.879 431.9C149.225 431.273 149.399 430.553 149.399 429.74C149.399 428.913 149.225 428.193 148.879 427.58C148.545 426.967 148.085 426.493 147.499 426.16C146.912 425.813 146.245 425.64 145.499 425.64C144.752 425.64 144.085 425.813 143.499 426.16C142.912 426.493 142.445 426.967 142.099 427.58C141.752 428.193 141.579 428.913 141.579 429.74C141.579 430.553 141.752 431.273 142.099 431.9C142.445 432.513 142.912 432.993 143.499 433.34C144.085 433.673 144.745 433.84 145.479 433.84ZM151.767 435L156.207 429.24L156.187 429.94L151.967 424.5H153.567L157.027 429L156.427 428.98L159.887 424.5H161.447L157.187 430L157.207 429.24L161.687 435H160.067L156.407 430.2L156.967 430.28L153.367 435H151.767ZM168.039 435.1C166.999 435.1 166.066 434.873 165.239 434.42C164.426 433.953 163.786 433.32 163.319 432.52C162.853 431.707 162.619 430.78 162.619 429.74C162.619 428.687 162.853 427.76 163.319 426.96C163.786 426.16 164.426 425.533 165.239 425.08C166.066 424.627 166.999 424.4 168.039 424.4C168.933 424.4 169.739 424.573 170.459 424.92C171.179 425.267 171.746 425.787 172.159 426.48L171.099 427.2C170.739 426.667 170.293 426.273 169.759 426.02C169.226 425.767 168.646 425.64 168.019 425.64C167.273 425.64 166.599 425.813 165.999 426.16C165.399 426.493 164.926 426.967 164.579 427.58C164.233 428.193 164.059 428.913 164.059 429.74C164.059 430.567 164.233 431.287 164.579 431.9C164.926 432.513 165.399 432.993 165.999 433.34C166.599 433.673 167.273 433.84 168.019 433.84C168.646 433.84 169.226 433.713 169.759 433.46C170.293 433.207 170.739 432.82 171.099 432.3L172.159 433.02C171.746 433.7 171.179 434.22 170.459 434.58C169.739 434.927 168.933 435.1 168.039 435.1ZM179.053 435.1C178.04 435.1 177.126 434.873 176.313 434.42C175.513 433.953 174.88 433.32 174.413 432.52C173.946 431.707 173.713 430.78 173.713 429.74C173.713 428.687 173.946 427.76 174.413 426.96C174.88 426.16 175.513 425.533 176.313 425.08C177.113 424.627 178.026 424.4 179.053 424.4C180.093 424.4 181.013 424.627 181.813 425.08C182.626 425.533 183.26 426.16 183.713 426.96C184.18 427.76 184.413 428.687 184.413 429.74C184.413 430.78 184.18 431.707 183.713 432.52C183.26 433.32 182.626 433.953 181.813 434.42C181 434.873 180.08 435.1 179.053 435.1ZM179.053 433.84C179.813 433.84 180.486 433.673 181.073 433.34C181.66 432.993 182.12 432.513 182.453 431.9C182.8 431.273 182.973 430.553 182.973 429.74C182.973 428.913 182.8 428.193 182.453 427.58C182.12 426.967 181.66 426.493 181.073 426.16C180.486 425.813 179.82 425.64 179.073 425.64C178.326 425.64 177.66 425.813 177.073 426.16C176.486 426.493 176.02 426.967 175.673 427.58C175.326 428.193 175.153 428.913 175.153 429.74C175.153 430.553 175.326 431.273 175.673 431.9C176.02 432.513 176.486 432.993 177.073 433.34C177.66 433.673 178.32 433.84 179.053 433.84ZM187.552 435V423.18C187.552 422.247 187.825 421.493 188.372 420.92C188.919 420.347 189.705 420.06 190.732 420.06C191.132 420.06 191.519 420.113 191.892 420.22C192.265 420.327 192.579 420.493 192.832 420.72L192.352 421.78C192.152 421.607 191.919 421.48 191.652 421.4C191.385 421.307 191.099 421.26 190.792 421.26C190.192 421.26 189.732 421.427 189.412 421.76C189.092 422.093 188.932 422.587 188.932 423.24V424.84L188.972 425.5V435H187.552ZM185.672 425.68V424.5H192.172V425.68H185.672ZM194.368 435V423.18C194.368 422.247 194.642 421.493 195.188 420.92C195.735 420.347 196.522 420.06 197.548 420.06C197.948 420.06 198.335 420.113 198.708 420.22C199.082 420.327 199.395 420.493 199.648 420.72L199.168 421.78C198.968 421.607 198.735 421.48 198.468 421.4C198.202 421.307 197.915 421.26 197.608 421.26C197.008 421.26 196.548 421.427 196.228 421.76C195.908 422.093 195.748 422.587 195.748 423.24V424.84L195.788 425.5V435H194.368ZM192.488 425.68V424.5H198.988V425.68H192.488ZM205.19 435.1C204.097 435.1 203.137 434.873 202.31 434.42C201.483 433.953 200.837 433.32 200.37 432.52C199.903 431.707 199.67 430.78 199.67 429.74C199.67 428.7 199.89 427.78 200.33 426.98C200.783 426.18 201.397 425.553 202.17 425.1C202.957 424.633 203.837 424.4 204.81 424.4C205.797 424.4 206.67 424.627 207.43 425.08C208.203 425.52 208.81 426.147 209.25 426.96C209.69 427.76 209.91 428.687 209.91 429.74C209.91 429.807 209.903 429.88 209.89 429.96C209.89 430.027 209.89 430.1 209.89 430.18H200.75V429.12H209.13L208.57 429.54C208.57 428.78 208.403 428.107 208.07 427.52C207.75 426.92 207.31 426.453 206.75 426.12C206.19 425.787 205.543 425.62 204.81 425.62C204.09 425.62 203.443 425.787 202.87 426.12C202.297 426.453 201.85 426.92 201.53 427.52C201.21 428.12 201.05 428.807 201.05 429.58V429.8C201.05 430.6 201.223 431.307 201.57 431.92C201.93 432.52 202.423 432.993 203.05 433.34C203.69 433.673 204.417 433.84 205.23 433.84C205.87 433.84 206.463 433.727 207.01 433.5C207.57 433.273 208.05 432.927 208.45 432.46L209.25 433.38C208.783 433.94 208.197 434.367 207.49 434.66C206.797 434.953 206.03 435.1 205.19 435.1ZM217.26 435.1C216.167 435.1 215.207 434.873 214.38 434.42C213.554 433.953 212.907 433.32 212.44 432.52C211.974 431.707 211.74 430.78 211.74 429.74C211.74 428.7 211.96 427.78 212.4 426.98C212.854 426.18 213.467 425.553 214.24 425.1C215.027 424.633 215.907 424.4 216.88 424.4C217.867 424.4 218.74 424.627 219.5 425.08C220.274 425.52 220.88 426.147 221.32 426.96C221.76 427.76 221.98 428.687 221.98 429.74C221.98 429.807 221.974 429.88 221.96 429.96C221.96 430.027 221.96 430.1 221.96 430.18H212.82V429.12H221.2L220.64 429.54C220.64 428.78 220.474 428.107 220.14 427.52C219.82 426.92 219.38 426.453 218.82 426.12C218.26 425.787 217.614 425.62 216.88 425.62C216.16 425.62 215.514 425.787 214.94 426.12C214.367 426.453 213.92 426.92 213.6 427.52C213.28 428.12 213.12 428.807 213.12 429.58V429.8C213.12 430.6 213.294 431.307 213.64 431.92C214 432.52 214.494 432.993 215.12 433.34C215.76 433.673 216.487 433.84 217.3 433.84C217.94 433.84 218.534 433.727 219.08 433.5C219.64 433.273 220.12 432.927 220.52 432.46L221.32 433.38C220.854 433.94 220.267 434.367 219.56 434.66C218.867 434.953 218.1 435.1 217.26 435.1ZM229.151 435.1C228.137 435.1 227.224 434.873 226.411 434.42C225.611 433.953 224.977 433.32 224.511 432.52C224.044 431.707 223.811 430.78 223.811 429.74C223.811 428.687 224.044 427.76 224.511 426.96C224.977 426.16 225.611 425.533 226.411 425.08C227.211 424.627 228.124 424.4 229.151 424.4C230.191 424.4 231.111 424.627 231.911 425.08C232.724 425.533 233.357 426.16 233.811 426.96C234.277 427.76 234.511 428.687 234.511 429.74C234.511 430.78 234.277 431.707 233.811 432.52C233.357 433.32 232.724 433.953 231.911 434.42C231.097 434.873 230.177 435.1 229.151 435.1ZM229.151 433.84C229.911 433.84 230.584 433.673 231.171 433.34C231.757 432.993 232.217 432.513 232.551 431.9C232.897 431.273 233.071 430.553 233.071 429.74C233.071 428.913 232.897 428.193 232.551 427.58C232.217 426.967 231.757 426.493 231.171 426.16C230.584 425.813 229.917 425.64 229.171 425.64C228.424 425.64 227.757 425.813 227.171 426.16C226.584 426.493 226.117 426.967 225.771 427.58C225.424 428.193 225.251 428.913 225.251 429.74C225.251 430.553 225.424 431.273 225.771 431.9C226.117 432.513 226.584 432.993 227.171 433.34C227.757 433.673 228.417 433.84 229.151 433.84ZM237.65 435V423.18C237.65 422.247 237.923 421.493 238.47 420.92C239.016 420.347 239.803 420.06 240.83 420.06C241.23 420.06 241.616 420.113 241.99 420.22C242.363 420.327 242.676 420.493 242.93 420.72L242.45 421.78C242.25 421.607 242.016 421.48 241.75 421.4C241.483 421.307 241.196 421.26 240.89 421.26C240.29 421.26 239.83 421.427 239.51 421.76C239.19 422.093 239.03 422.587 239.03 423.24V424.84L239.07 425.5V435H237.65ZM235.77 425.68V424.5H242.27V425.68H235.77ZM244.427 435V423.18C244.427 422.247 244.7 421.493 245.247 420.92C245.794 420.347 246.58 420.06 247.607 420.06C248.007 420.06 248.394 420.113 248.767 420.22C249.14 420.327 249.454 420.493 249.707 420.72L249.227 421.78C249.027 421.607 248.794 421.48 248.527 421.4C248.26 421.307 247.974 421.26 247.667 421.26C247.067 421.26 246.607 421.427 246.287 421.76C245.967 422.093 245.807 422.587 245.807 423.24V424.84L245.847 425.5V435H244.427ZM242.547 425.68V424.5H249.047V425.68H242.547ZM250.967 435V424.5H252.387V435H250.967ZM251.687 422.18C251.394 422.18 251.147 422.08 250.947 421.88C250.747 421.68 250.647 421.44 250.647 421.16C250.647 420.88 250.747 420.647 250.947 420.46C251.147 420.26 251.394 420.16 251.687 420.16C251.98 420.16 252.227 420.253 252.427 420.44C252.627 420.627 252.727 420.86 252.727 421.14C252.727 421.433 252.627 421.68 252.427 421.88C252.24 422.08 251.994 422.18 251.687 422.18ZM260.735 435.1C259.695 435.1 258.761 434.873 257.935 434.42C257.121 433.953 256.481 433.32 256.015 432.52C255.548 431.707 255.315 430.78 255.315 429.74C255.315 428.687 255.548 427.76 256.015 426.96C256.481 426.16 257.121 425.533 257.935 425.08C258.761 424.627 259.695 424.4 260.735 424.4C261.628 424.4 262.435 424.573 263.155 424.92C263.875 425.267 264.441 425.787 264.855 426.48L263.795 427.2C263.435 426.667 262.988 426.273 262.455 426.02C261.921 425.767 261.341 425.64 260.715 425.64C259.968 425.64 259.295 425.813 258.695 426.16C258.095 426.493 257.621 426.967 257.275 427.58C256.928 428.193 256.755 428.913 256.755 429.74C256.755 430.567 256.928 431.287 257.275 431.9C257.621 432.513 258.095 432.993 258.695 433.34C259.295 433.673 259.968 433.84 260.715 433.84C261.341 433.84 261.921 433.713 262.455 433.46C262.988 433.207 263.435 432.82 263.795 432.3L264.855 433.02C264.441 433.7 263.875 434.22 263.155 434.58C262.435 434.927 261.628 435.1 260.735 435.1ZM267.488 435V424.5H268.908V435H267.488ZM268.208 422.18C267.914 422.18 267.668 422.08 267.468 421.88C267.268 421.68 267.168 421.44 267.168 421.16C267.168 420.88 267.268 420.647 267.468 420.46C267.668 420.26 267.914 420.16 268.208 420.16C268.501 420.16 268.748 420.253 268.948 420.44C269.148 420.627 269.248 420.86 269.248 421.14C269.248 421.433 269.148 421.68 268.948 421.88C268.761 422.08 268.514 422.18 268.208 422.18ZM279.439 435V432.68L279.379 432.3V428.42C279.379 427.527 279.126 426.84 278.619 426.36C278.126 425.88 277.386 425.64 276.399 425.64C275.719 425.64 275.072 425.753 274.459 425.98C273.846 426.207 273.326 426.507 272.899 426.88L272.259 425.82C272.792 425.367 273.432 425.02 274.179 424.78C274.926 424.527 275.712 424.4 276.539 424.4C277.899 424.4 278.946 424.74 279.679 425.42C280.426 426.087 280.799 427.107 280.799 428.48V435H279.439ZM275.819 435.1C275.032 435.1 274.346 434.973 273.759 434.72C273.186 434.453 272.746 434.093 272.439 433.64C272.132 433.173 271.979 432.64 271.979 432.04C271.979 431.493 272.106 431 272.359 430.56C272.626 430.107 273.052 429.747 273.639 429.48C274.239 429.2 275.039 429.06 276.039 429.06H279.659V430.12H276.079C275.066 430.12 274.359 430.3 273.959 430.66C273.572 431.02 273.379 431.467 273.379 432C273.379 432.6 273.612 433.08 274.079 433.44C274.546 433.8 275.199 433.98 276.039 433.98C276.839 433.98 277.526 433.8 278.099 433.44C278.686 433.067 279.112 432.533 279.379 431.84L279.699 432.82C279.432 433.513 278.966 434.067 278.299 434.48C277.646 434.893 276.819 435.1 275.819 435.1ZM284.656 435V420.16H286.076V435H284.656Z" fill="white"/>
</g>
<defs>
<filter id="filter0_d_4_23" x="0" y="0" width="400" height="500" filterUnits="userSpaceOnUse" color-interpolation-filters="sRGB">
<feFlood flood-opacity="0" result="BackgroundImageFix"/>
<feColorMatrix in="SourceAlpha" type="matrix" values="0 0 0 0 0 0 0 0 0 0 0 0 0 0 0 0 0 0 127 0" result="hardAlpha"/>
<feOffset/>
<feGaussianBlur stdDeviation="10"/>
<feComposite in2="hardAlpha" operator="out"/>
<feColorMatrix type="matrix" values="0 0 0 0 0 0 0 0 0 0 0 0 0 0 0 0 0 0 0.12 0"/>
<feBlend mode="normal" in2="BackgroundImageFix" result="effect1_dropShadow_4_23"/>
<feBlend mode="normal" in="SourceGraphic" in2="effect1_dropShadow_4_23" result="shape"/>
</filter>
</defs>
</svg>
