<svg width="1920" height="960" viewBox="0 0 1920 960" fill="none" xmlns="http://www.w3.org/2000/svg">
<g clip-path="url(#clip0_15_2)">
<rect width="1920" height="960" fill="white"/>
<rect x="800" width="1120" height="960" fill="#B71B0C"/>
<rect width="960" height="960" fill="#FFFEFA"/>
<circle cx="960" cy="480" r="140" fill="#FFFEFA"/>
<circle cx="960" cy="504" r="35" fill="#B71B0C"/>
<path d="M835.708 564C862.676 603.825 908.281 630 960 630C1011.72 630 1057.32 603.825 1084.29 564H835.708Z" fill="#FFFEFA"/>
<path d="M835.708 564L960 512L1084.29 564H835.708Z" fill="#FFFEFA"/>
<path fill-rule="evenodd" clip-rule="evenodd" d="M988.717 524.014C982.391 533.073 971.888 539 960 539C948.113 539 937.609 533.073 931.283 524.014L835.708 564C862.676 603.825 908.281 630 960 630C1011.72 630 1057.32 603.825 1084.29 564L988.717 524.014Z" fill="#B71B0C"/>
<circle cx="960" cy="480" r="148" stroke="#FFFEFA" stroke-width="4"/>
<path fill-rule="evenodd" clip-rule="evenodd" d="M851.589 603H887.766L908.699 455.879H1011.54L1032.47 603H1068.65L1047.72 455.879H1074.68V430.293H1044.08L1039.73 399.698L1039.71 399.589H1107.24V357C1088.76 363.929 1029.89 368.995 960.12 368.995C890.354 368.995 831.484 363.929 813 357L813 399.698H880.515L876.162 430.293H845.559V455.879H872.521L851.589 603ZM916.708 399.589H1003.53L1003.55 399.698L1007.9 430.293H912.339L916.692 399.698L916.708 399.589Z" fill="#FFFEFA"/>
<path d="M872.521 453.879H847.559V432.293H876.161H877.897L878.141 430.575L882.494 399.98L882.819 397.698H880.514H815V359.789C825.279 362.963 843.672 365.643 867.163 367.589C892.977 369.727 925.191 370.995 960.118 370.995C995.044 370.995 1027.26 369.727 1053.07 367.589C1076.56 365.643 1094.96 362.964 1105.24 359.789V397.589H1039.71H1037.4L1037.73 399.871L1037.74 399.98L1037.74 399.98L1042.09 430.575L1042.34 432.293H1044.07H1072.68V453.879H1047.71H1045.41L1045.73 456.161L1066.34 601H1034.21L1013.52 455.597L1013.27 453.879H1011.54H908.697H906.961L906.717 455.597L886.029 601H853.893L874.501 456.161L874.825 453.879H872.521ZM916.706 397.589H914.97L914.726 399.308L914.71 399.417L910.357 430.011L910.033 432.293H912.337H1007.9H1010.2L1009.88 430.011L1005.52 399.417L1005.52 399.416L1005.51 399.307L1005.26 397.589H1003.53H916.706Z" stroke="#B71B0C" stroke-width="4"/>
<mask id="mask0_15_2" style="mask-type:alpha" maskUnits="userSpaceOnUse" x="810" y="330" width="150" height="300">
<rect x="810" y="330" width="150" height="300" fill="#C4C4C4"/>
</mask>
<g mask="url(#mask0_15_2)">
<circle cx="960" cy="480" r="140" fill="#B71B0C"/>
<circle cx="960" cy="504" r="35" fill="#FFFCF9"/>
<path d="M835.708 564C862.676 603.825 908.281 630 960 630C1011.72 630 1057.32 603.825 1084.29 564H835.708Z" fill="#B71B0C"/>
<path d="M835.708 564L960 512L1084.29 564H835.708Z" fill="#B71B0C"/>
<path fill-rule="evenodd" clip-rule="evenodd" d="M988.717 524.014C982.391 533.074 971.888 539 960 539C948.112 539 937.609 533.074 931.283 524.014L835.708 564C862.676 603.825 908.281 630 960 630C1011.72 630 1057.32 603.825 1084.29 564L988.717 524.014Z" fill="#FFFCF9"/>
<circle cx="960" cy="480" r="148" stroke="#B71B0C" stroke-width="4"/>
<path fill-rule="evenodd" clip-rule="evenodd" d="M851.589 603H887.766L908.699 455.879H1011.54L1032.47 603H1068.65L1047.72 455.879H1074.68V430.293H1044.08L1039.73 399.698L1039.71 399.589H1107.24V357C1088.76 363.929 1029.89 368.995 960.12 368.995C890.354 368.995 831.484 363.929 813 357L813 399.698H880.515L876.162 430.293H845.559V455.879H872.521L851.589 603ZM916.708 399.589H1003.53L1003.55 399.698L1007.9 430.293H912.339L916.692 399.698L916.708 399.589Z" fill="#B71B0C"/>
<path d="M872.521 453.879H847.559V432.293H876.161H877.897L878.141 430.575L882.494 399.98L882.819 397.698H880.514H815V359.789C825.279 362.963 843.672 365.643 867.163 367.589C892.977 369.727 925.191 370.995 960.118 370.995C995.044 370.995 1027.26 369.727 1053.07 367.589C1076.56 365.643 1094.96 362.964 1105.24 359.789V397.589H1039.71H1037.4L1037.73 399.871L1037.74 399.98L1037.74 399.98L1042.09 430.575L1042.34 432.293H1044.07H1072.68V453.879H1047.71H1045.41L1045.73 456.161L1066.34 601H1034.21L1013.52 455.597L1013.27 453.879H1011.54H908.697H906.961L906.717 455.597L886.029 601H853.893L874.501 456.161L874.825 453.879H872.521ZM916.706 397.589H914.97L914.726 399.308L914.71 399.417L910.357 430.011L910.033 432.293H912.337H1007.9H1010.2L1009.88 430.011L1005.52 399.417L1005.52 399.416L1005.51 399.307L1005.26 397.589H1003.53H916.706Z" stroke="#FFFCF9" stroke-width="4"/>
</g>
<rect x="280" y="100" width="96" height="496" rx="8" fill="#B71B0C"/>
<path d="M306.976 143.328L310 149.376C315.904 147.648 322 145.056 326.944 142.464V157.824C326.944 159.936 326.8 162.96 326.608 164.112H334.192C333.856 162.912 333.76 159.936 333.76 157.824V138.432C338.416 135.36 343.024 131.616 346.672 128.016L341.488 123.072C338.368 126.864 332.896 131.664 327.952 134.736C322.624 138 315.568 141.12 306.976 143.328ZM314.704 183.184V189.376C316.096 189.28 318.16 189.232 319.696 189.232H338.08C339.808 189.232 342.064 189.28 343.36 189.376V183.184C342.016 183.376 339.664 183.424 338.176 183.424H319.696C318.064 183.424 316.048 183.376 314.704 183.184ZM347.392 197.104L343.12 194.464C342.448 194.752 341.152 194.944 339.616 194.944H315.856C314.368 194.944 312.304 194.8 310.288 194.656V200.896C312.304 200.704 314.704 200.656 315.856 200.656H339.04C338.176 203.344 336.688 206.32 334.096 208.96C330.448 212.704 324.688 215.872 317.488 217.36L322.24 222.784C328.384 221.056 334.528 217.792 339.376 212.416C342.976 208.432 345.04 203.776 346.48 199.12C346.672 198.592 347.056 197.728 347.392 197.104ZM344.032 245.456L340.096 242.528C339.136 242.864 337.216 243.152 335.152 243.152H318.208C316.768 243.152 313.84 243.008 312.544 242.816V249.632C313.552 249.584 316.192 249.296 318.208 249.296H334.48C333.424 252.704 330.496 257.456 327.328 261.056C322.816 266.096 315.376 271.952 307.648 274.832L312.592 280.016C319.168 276.896 325.552 271.904 330.64 266.528C335.152 270.896 339.616 275.792 342.736 280.112L348.208 275.36C345.376 271.904 339.568 265.76 334.816 261.632C338.032 257.312 340.72 252.176 342.352 248.432C342.784 247.472 343.648 245.984 344.032 245.456ZM319.072 331.392C319.072 333.312 318.88 336.192 318.592 338.112H326.08C325.888 336.144 325.648 332.784 325.648 331.392V317.808C330.832 319.584 338.032 322.368 342.976 324.96L345.712 318.336C341.296 316.176 332.08 312.768 325.648 310.896V303.792C325.648 301.824 325.888 299.712 326.08 298.032H318.592C318.928 299.712 319.072 302.112 319.072 303.792V331.392ZM313.024 357.76V363.952C314.464 363.856 316.528 363.808 318.16 363.808H333.856C335.536 363.808 337.408 363.856 339.04 363.952V357.76C337.408 358 335.488 358.144 333.856 358.144H318.16C316.528 358.144 314.56 358 313.024 357.76ZM307.456 370.048V376.336C308.8 376.24 310.672 376.144 312.064 376.144H325.264C325.072 380.176 324.256 383.776 322.288 386.752C320.368 389.584 317.008 392.32 313.6 393.616L319.216 397.696C323.488 395.536 327.184 391.84 328.864 388.48C330.592 385.12 331.648 381.088 331.936 376.144H343.504C344.848 376.144 346.672 376.192 347.872 376.288V370.048C346.624 370.24 344.512 370.336 343.504 370.336H312.064C310.576 370.336 308.896 370.24 307.456 370.048ZM341.92 354.448L338.08 356.032C339.376 357.856 340.864 360.736 341.872 362.704L345.712 361.024C344.8 359.248 343.12 356.224 341.92 354.448ZM347.584 352.288L343.792 353.872C345.088 355.696 346.624 358.48 347.632 360.496L351.472 358.816C350.608 357.136 348.832 354.112 347.584 352.288ZM343.216 414.656L340 415.712C340.912 417.632 341.776 420.272 342.448 422.288L345.76 421.232C345.232 419.36 344.128 416.576 343.216 414.656ZM348.16 413.12L344.896 414.176C345.904 416.048 346.816 418.64 347.488 420.704L350.8 419.648C350.176 417.824 349.072 415.04 348.16 413.12ZM339.088 431.504V429.92H342.688C345.184 429.92 346.864 429.968 347.92 430.064V423.68C346.624 423.92 345.184 424.016 342.64 424.016H339.088V418.976C339.088 417.056 339.28 415.52 339.424 414.512H332.56C332.704 415.472 332.848 417.056 332.848 418.976V424.016H321.472V419.312C321.472 417.392 321.664 415.856 321.76 414.944H314.944C315.088 416.432 315.232 417.872 315.232 419.264V424.016H311.152C308.752 424.016 306.832 423.728 305.968 423.584V430.112C307.024 430.064 308.752 429.92 311.152 429.92H315.232V436.448C315.232 438.608 315.088 440.528 314.944 441.488H321.664C321.616 440.528 321.472 438.608 321.472 436.448V429.92H332.848V431.744C332.848 443.552 328.768 447.68 319.504 450.944L324.64 455.792C336.256 450.656 339.088 443.408 339.088 431.504ZM306.976 491.328L310 497.376C315.904 495.648 322 493.056 326.944 490.464V505.824C326.944 507.936 326.8 510.96 326.608 512.112H334.192C333.856 510.912 333.76 507.936 333.76 505.824V486.432C338.416 483.36 343.024 479.616 346.672 476.016L341.488 471.072C338.368 474.864 332.896 479.664 327.952 482.736C322.624 486 315.568 489.12 306.976 491.328ZM315.568 531.52L311.056 536.32C314.56 538.768 320.56 544 323.056 546.688L327.952 541.696C325.168 538.768 318.928 533.776 315.568 531.52ZM309.568 563.488L313.6 569.824C320.368 568.672 326.56 565.984 331.408 563.056C339.136 558.4 345.52 551.776 349.168 545.296L345.424 538.528C342.4 545.008 336.16 552.352 327.952 557.2C323.296 559.984 317.056 562.432 309.568 563.488Z" fill="#FFFEFA"/>
<rect x="1544" y="770" width="96" height="90" rx="8" fill="#FFFEFA"/>
<path d="M1595.31 808.384C1594.88 806.128 1593.49 802.624 1592 800.032L1587.54 801.52C1588.93 804.304 1590.18 807.856 1590.56 810.16L1595.31 808.384ZM1599.34 801.232C1597.57 806.416 1594.93 810.88 1591.52 814.576C1588.78 813.184 1586 811.888 1583.5 810.88L1587.15 809.248C1586.48 807.04 1584.8 803.728 1583.12 801.232L1578.85 803.056C1580.38 805.648 1582.02 809.104 1582.59 811.264L1583.12 811.024L1580.19 814.672C1582.54 815.68 1585.09 816.88 1587.58 818.224C1584.85 820.432 1581.68 822.304 1578.22 823.744C1579.33 824.8 1581.15 827.152 1581.82 828.352C1585.86 826.432 1589.46 823.984 1592.67 821.056C1596.03 823.072 1598.96 825.088 1600.93 826.864L1604.38 822.4C1602.42 820.768 1599.58 818.944 1596.42 817.168C1599.92 813.088 1602.7 808.24 1604.77 802.624L1599.34 801.232ZM1577.41 828.592V798.88H1606.5V828.592H1577.41ZM1571.7 793.408V836.032H1577.41V834.064H1606.5V836.032H1612.45V793.408H1571.7Z" fill="#B71B0C"/>
</g>
<defs>
<clipPath id="clip0_15_2">
<rect width="1920" height="960" fill="white"/>
</clipPath>
</defs>
</svg>
