<svg width="236" height="187" viewBox="0 0 236 187" fill="none" xmlns="http://www.w3.org/2000/svg">
<path d="M112.715 94.6435C103.619 92.367 94.4066 90.63 85.2057 88.8253C79.1379 87.6351 72.4181 86.7874 66.8259 83.9365C62.4979 81.7301 62.4357 78.4381 63.5589 74.018C65.1121 67.9053 69.2596 63.5803 73.689 59.2812C84.4765 48.8109 97.5056 40.6857 110.308 32.9336C111.921 31.9567 113.547 30.9911 115.185 30.0381C133.776 19.2223 153.926 10.0166 174.567 4.16515C179.398 2.79532 185.212 1.25417 190.314 2.14383C194.694 2.90746 196.521 8.33186 197.154 12.0859C198.748 21.5553 199.064 31.8453 198.658 41.4184C198.295 49.9671 196.922 59.2837 193.52 67.2989C193.226 67.9896 192.918 68.6707 192.594 69.3408C183.971 87.1713 165.898 99.1829 148.666 107.534C141.91 110.808 134.941 113.796 127.982 116.607L127.944 116.622C122.046 119.004 115.766 121.541 109.438 122.529C96.4697 124.556 110.33 98.5401 112.564 94.8892C112.614 94.8072 112.665 94.7253 112.715 94.6435Z" fill="#F5A1A1"/>
<path d="M3.50708 127.935C4.6323 127.614 5.85366 126.753 6.75058 126.055C12.6829 121.441 17.4748 114.975 22.028 109.085C36.8532 89.9089 44.9707 66.6661 59.0697 46.9653C65.5959 37.8461 72.7377 29.5905 81.0221 22.0279C86.1168 17.3772 91.294 12.8693 97.5687 9.90004C98.5719 9.42531 101.463 7.48464 102.434 8.95989C106.296 14.8301 109.969 20.9899 113.504 27.0577C118.515 35.6576 122.533 44.9903 125.444 54.51C128.007 62.8938 128.211 71.4898 128.546 80.1759C128.744 85.2988 128.867 90.4243 129.064 95.5473C129.143 97.6027 129.416 99.2946 128.264 101.071C127.918 101.605 126.95 103.452 127.042 101.752C127.284 97.283 119.422 96.4125 116.56 95.6413C106.219 92.856 95.7052 90.8847 85.2057 88.8253C79.1379 87.6351 72.4181 86.7874 66.8259 83.9365C62.4979 81.7301 62.4357 78.4381 63.5589 74.018C65.1121 67.9053 69.2596 63.5803 73.689 59.2812C84.4765 48.8109 97.5056 40.6857 110.308 32.9336C130.228 20.8707 152.107 10.5322 174.567 4.16515C179.399 2.79532 185.212 1.25417 190.314 2.14383C194.694 2.90746 196.521 8.33186 197.154 12.0859C198.748 21.5553 199.064 31.8453 198.658 41.4184C198.264 50.7038 196.678 60.8952 192.594 69.3408C183.971 87.1713 165.898 99.1829 148.666 107.534C141.91 110.808 134.941 113.796 127.982 116.607C122.074 118.993 115.779 121.539 109.438 122.529C96.4697 124.556 110.33 98.5401 112.564 94.8892C117.484 86.8494 124.677 80.1859 132.636 75.1932C141.529 69.6145 151.837 67.3188 162.11 65.8857C181.01 63.2492 201.847 65.0068 214.194 81.4686C219.831 88.9856 223.652 98.7692 226.815 107.534C230.085 116.594 232.391 126.22 233.373 135.809C234.205 143.936 232.204 150.018 227.614 156.774C220.376 167.43 209.521 171.919 197.835 176.4C171.372 186.547 141.555 185.088 113.739 184.109C91.969 183.343 68.7842 179.774 48.6811 170.853C43.1553 168.401 36.1263 164.859 32.9806 159.336C30.8201 155.543 29.9566 151.207 27.1988 147.702C25.6726 145.762 23.5674 143.563 21.1818 142.696C19.7453 142.173 18.4606 141.322 17.0687 140.698C16.1674 140.294 14.0068 140.123 13.3316 139.358C11.7906 137.612 9.59303 136.875 8.60737 134.493C8.11024 133.291 7.82967 131.412 6.79759 130.568C5.80834 129.758 2.65821 129.622 2.23788 128.781" stroke="white" stroke-width="3" stroke-linecap="round"/>
</svg>
