<svg width="530" height="471" viewBox="0 0 530 471" fill="none" xmlns="http://www.w3.org/2000/svg">
<path d="M151.573 466C151.573 466 275.786 327.832 355.376 239.299M151.573 466L355.376 425.473M151.573 466L6 165.843M355.376 239.299C399.372 286.286 468.037 359.615 468.037 359.615M355.376 239.299C218.936 210.613 6 165.843 6 165.843M355.376 239.299C355.376 312.005 355.376 425.473 355.376 425.473M355.376 239.299C421.618 198.743 525 135.448 525 135.448M468.037 359.615L525 135.448M468.037 359.615L355.376 425.473M6 165.843L370.566 5L525 135.448" stroke="black" stroke-width="8"/>
</svg>
