<svg width="446" height="432" viewBox="0 0 446 432" fill="none" xmlns="http://www.w3.org/2000/svg">
<path d="M226.765 8.55051C169.011 -5.38819 115.308 4.86939 73.3707 63M226.765 8.55051L73.3707 63M226.765 8.55051C240.957 11.9756 252.708 20.8256 262.202 33.5M365 297.052C440.54 317.873 488.5 147.552 348.96 70.7508C265.442 24.7834 209.92 126.91 195.682 216M365 297.052C289.46 276.231 337 124.825 445 81.0521M365 297.052C524.6 198.21 386.833 344.167 298 429.5M73.3707 63C55.871 87.2571 40.4201 119.85 27.5786 162.5M27.5786 162.5C17.7851 195.026 9.50938 233.402 3 278.389C76.7881 279.093 218.628 267.6 195.682 216M27.5786 162.5L262.202 33.5M262.202 33.5C319.764 110.343 294.352 327.764 226.766 329.051C195.156 329.653 186.132 275.759 195.682 216" stroke="black" stroke-width="5"/>
</svg>
