<svg width="7221" height="4764" viewBox="0 0 7221 4764" fill="none" xmlns="http://www.w3.org/2000/svg">
<path d="M2626.5 509.5L3339.5 80.0001C3488.17 3.83341 3771.4 -74.2 3715 223C3658.6 520.2 3325.17 409.167 3165.5 316.5M2788 223L3010 731M2461.5 206L2615.5 117.5L2656.5 283.5L2498 343L2438.5 668.5L2598.5 718M359.499 80L496.499 74.3643M678.999 66.857L869.999 59C970.833 202 1101.4 488 816.999 488C590.248 488 648.079 381.496 686.882 263M678.999 66.857L580.499 70.9089M678.999 66.857C724.813 124.57 708.915 195.718 686.882 263M580.499 70.9089C591.999 -117 556.765 293 686.882 263M580.499 70.9089L496.499 74.3643M484.499 149.5C508.166 158.076 543.699 155.056 496.499 74.3643M258.499 216.5C607.104 216.5 299.415 589.35 115.999 633.5M115.999 633.5C34.8326 818.5 -78.8007 1141.3 115.999 952.5C310.799 763.7 197.166 661.167 115.999 633.5ZM115.999 633.5C127.499 660 139.4 668 94.9997 488C39.4997 263 58.9997 602 11.9997 602C-25.6003 602 65.6661 623 115.999 633.5ZM1777.5 206L1988.5 80L2138.5 174.5L1988.5 578C1981.17 366 1917.1 -42.5 1719.5 19.5C1472.5 97 1744 -135.5 1678.5 148C1613 431.5 1169 331 1739 331C2309 331 1835.5 158.5 1777.5 433.5C1719.5 708.5 1726.5 607.5 1915.5 542.5C2104.5 477.5 2218 588.5 2039 633.5C1860 678.5 2025.5 744 1964 770.5C1914.8 791.7 1819.17 403 1777.5 206ZM1373 509.5C1463.17 414.5 1644.2 270.7 1647 455.5C1649.8 640.3 1465.5 568.5 1373 509.5ZM1739 756C1574.17 776.5 1305.8 833 1551 895C1857.5 972.5 1855.5 794 1739 756ZM1183 633.5C1244.33 583.833 1366.8 514.3 1366 633.5C1365 782.5 1236 884 1183 633.5ZM941.999 233L1256 117.5V433.5L941.999 233ZM1023 455.5L799.999 895L1172.5 756L1023 455.5ZM7077 4075C6655.5 4075 6616 4772 7077 4761C7538 4750 6685 4249.5 7077 4075ZM6786.5 2902.5C6470.5 2895 6376.5 3494 6812 3494C7160.4 3494 6940.17 3099.67 6786.5 2902.5Z" stroke="black" stroke-width="5"/>
</svg>
