<svg width="2340" height="2859" viewBox="0 0 2340 2859" fill="none" xmlns="http://www.w3.org/2000/svg">
<path d="M739 1622C914 1646.9 1190.4 1607.29 896 1249.61M896 1249.61C905 978.999 1696.97 738.924 1414 242C1018.8 -452 309.333 531.166 4 1109.5C191.958 1320.53 566.774 1351.26 896 1249.61ZM1311.5 2321L1572.25 2173.76M1341.5 1772.5C1403.25 1880.2 1486.49 2025.04 1572.25 2173.76M1817.5 1688C1639.83 1819.01 1342.05 2099.57 1572.25 2173.76M1572.25 2173.76C1748.75 2479.83 1935.93 2802.28 1968.5 2851C1994.19 2889.43 2067.32 2687.36 2145.59 2429.5C2183.99 2302.99 2223.63 2163.05 2259.51 2031.5C2288.28 1926.03 2314.63 1825.95 2336 1742.5L2095 1878.58L1572.25 2173.76Z" stroke="black" stroke-width="5"/>
</svg>
