<svg width="72" height="65" viewBox="0 0 72 65" fill="none" xmlns="http://www.w3.org/2000/svg">
<g filter="url(#filter0_i_2_138)">
<path d="M51.1048 48.25C61.2164 38.4819 67.3176 30.6657 66.9872 21.4582C66.8013 16.1598 64.1053 11.0796 59.736 8.08756C51.5552 2.44635 41.4531 5.09554 35.9992 11.5159C30.5452 5.09554 20.4431 2.47752 12.2623 8.08756C7.89296 11.0796 5.19699 16.1598 5.01107 21.4582C4.60822 33.5509 15.2371 43.2439 31.5059 58.0482L31.8467 58.3598C34.2018 60.5415 37.8275 60.5415 40.1825 58.391L40.4924 58.1105C42.2358 56.5174 43.9148 54.9836 45.5226 53.5M51.1048 48.25C49.3594 49.9361 47.4945 51.6804 45.5226 53.5M51.1048 48.25L45.5226 53.5" stroke="black" stroke-width="10"/>
</g>
<defs>
<filter id="filter0_i_2_138" x="0" y="-0.00952148" width="76" height="69.0095" filterUnits="userSpaceOnUse" color-interpolation-filters="sRGB">
<feFlood flood-opacity="0" result="BackgroundImageFix"/>
<feBlend mode="normal" in="SourceGraphic" in2="BackgroundImageFix" result="shape"/>
<feColorMatrix in="SourceAlpha" type="matrix" values="0 0 0 0 0 0 0 0 0 0 0 0 0 0 0 0 0 0 127 0" result="hardAlpha"/>
<feOffset dx="15" dy="15"/>
<feGaussianBlur stdDeviation="2"/>
<feComposite in2="hardAlpha" operator="arithmetic" k2="-1" k3="1"/>
<feColorMatrix type="matrix" values="0 0 0 0 0 0 0 0 0 1 0 0 0 0 1 0 0 0 0.55 0"/>
<feBlend mode="normal" in2="shape" result="effect1_innerShadow_2_138"/>
</filter>
</defs>
</svg>
