<svg width="481" height="256" viewBox="0 0 481 256" fill="none" xmlns="http://www.w3.org/2000/svg">
<g filter="url(#filter0_b_1_421)">
<rect x="44.6738" y="226.617" width="338" height="29" rx="14.5" fill="url(#paint0_linear_1_421)"/>
</g>
<g opacity="0.5" filter="url(#filter1_b_1_421)">
<path d="M51.8514 29.6172H427.496L470.674 216.617H8.67383L51.8514 29.6172Z" fill="url(#paint1_linear_1_421)"/>
</g>
<g filter="url(#filter2_b_1_421)">
<path d="M1.87628 200.833L39.7311 3.24734C40.0922 1.3627 41.7407 0 43.6597 0H437.631C439.554 0 441.205 1.36798 441.562 3.25726L478.721 199.899C479.186 202.359 477.303 204.636 474.799 204.641L5.81289 205.586C3.29864 205.591 1.40319 203.302 1.87628 200.833Z" fill="url(#paint2_linear_1_421)" fill-opacity="0.2" style="mix-blend-mode:overlay"/>
<path d="M2.85842 201.021L40.7133 3.43551C40.9841 2.02202 42.2205 1 43.6597 1H437.631C439.073 1 440.311 2.02598 440.579 3.44295L477.739 200.084C478.087 201.929 476.675 203.638 474.797 203.641L5.81087 204.586C3.92518 204.59 2.5036 202.873 2.85842 201.021Z" stroke="url(#paint3_linear_1_421)" stroke-width="2"/>
</g>
<g filter="url(#filter3_b_1_421)">
<path d="M472.022 247.214L8.66261 247.407C6.62895 247.408 4.91835 245.882 4.68693 243.862L0.510284 207.397C0.238379 205.023 2.09486 202.941 4.48432 202.941H475.873C478.249 202.941 480.101 205.001 479.85 207.364L475.998 243.636C475.782 245.67 474.067 247.213 472.022 247.214Z" fill="url(#paint4_linear_1_421)" fill-opacity="0.2" style="mix-blend-mode:overlay"/>
<path d="M472.022 246.214L8.66219 246.407C7.13694 246.407 5.854 245.263 5.68043 243.748L1.50379 207.283C1.29986 205.502 2.69222 203.941 4.48432 203.941H475.873C477.655 203.941 479.044 205.486 478.856 207.258L475.004 243.531C474.842 245.056 473.556 246.213 472.022 246.214Z" stroke="url(#paint5_linear_1_421)" stroke-width="2"/>
</g>
<g clip-path="url(#clip0_1_421)">
<g filter="url(#filter4_b_1_421)">
<path d="M435.6 223.856C435.606 223.855 435.608 223.857 435.614 223.861C438.135 225.41 442.394 229.2 441.104 230.274C439.625 231.316 437.709 231.938 435.605 231.938C433.502 231.938 431.564 231.316 430.106 230.274C428.797 229.201 433.066 225.418 435.568 223.883C435.578 223.876 435.588 223.859 435.6 223.856ZM439.979 219.47C439.979 219.44 439.944 219.43 439.917 219.417C438.658 218.807 437.274 218.445 435.605 218.445C433.936 218.445 432.553 218.807 431.293 219.417C431.266 219.43 431.231 219.44 431.231 219.47C431.231 219.504 431.289 219.484 431.322 219.479C432.912 219.229 435.256 220.282 435.567 220.436C435.579 220.442 435.592 220.445 435.605 220.445C435.619 220.445 435.631 220.442 435.643 220.436C435.954 220.282 438.298 219.229 439.888 219.479C439.921 219.484 439.979 219.504 439.979 219.47ZM429.766 220.373C429.757 220.376 429.746 220.376 429.737 220.382C429.72 220.392 429.702 220.401 429.686 220.414C428.18 221.639 427.253 223.328 427.253 225.183C427.253 226.695 427.885 228.109 428.927 229.229C428.948 229.253 428.97 229.283 429.003 229.283C429.035 229.283 428.996 229.234 428.985 229.203C428.419 227.58 431.643 223.79 433.314 222.192L433.32 222.188C433.329 222.18 433.342 222.165 433.331 222.16C433.322 222.156 433.31 222.155 433.303 222.149C430.821 220.167 429.947 220.317 429.766 220.373ZM437.896 222.142L437.888 222.148C437.88 222.155 437.873 222.16 437.879 222.168C437.884 222.175 437.9 222.178 437.906 222.185C439.594 223.801 442.825 227.631 442.21 229.227C442.209 229.231 442.208 229.234 442.208 229.238C442.208 229.253 442.221 229.268 442.236 229.264C442.239 229.263 442.241 229.262 442.243 229.261C442.251 229.256 442.253 229.245 442.259 229.239C443.316 228.115 443.958 226.691 443.958 225.166C443.958 223.301 443.02 221.604 441.479 220.378C441.455 220.358 441.423 220.356 441.392 220.35C441.164 220.307 440.252 220.272 437.896 222.142Z" fill="url(#paint6_linear_1_421)"/>
</g>
</g>
<defs>
<filter id="filter0_b_1_421" x="2.67383" y="184.617" width="422" height="113" filterUnits="userSpaceOnUse" color-interpolation-filters="sRGB">
<feFlood flood-opacity="0" result="BackgroundImageFix"/>
<feGaussianBlur in="BackgroundImageFix" stdDeviation="21"/>
<feComposite in2="SourceAlpha" operator="in" result="effect1_backgroundBlur_1_421"/>
<feBlend mode="normal" in="SourceGraphic" in2="effect1_backgroundBlur_1_421" result="shape"/>
</filter>
<filter id="filter1_b_1_421" x="-33.3262" y="-12.3828" width="546" height="271" filterUnits="userSpaceOnUse" color-interpolation-filters="sRGB">
<feFlood flood-opacity="0" result="BackgroundImageFix"/>
<feGaussianBlur in="BackgroundImageFix" stdDeviation="21"/>
<feComposite in2="SourceAlpha" operator="in" result="effect1_backgroundBlur_1_421"/>
<feBlend mode="normal" in="SourceGraphic" in2="effect1_backgroundBlur_1_421" result="shape"/>
</filter>
<filter id="filter2_b_1_421" x="-40.1963" y="-42" width="560.988" height="289.586" filterUnits="userSpaceOnUse" color-interpolation-filters="sRGB">
<feFlood flood-opacity="0" result="BackgroundImageFix"/>
<feGaussianBlur in="BackgroundImageFix" stdDeviation="21"/>
<feComposite in2="SourceAlpha" operator="in" result="effect1_backgroundBlur_1_421"/>
<feBlend mode="normal" in="SourceGraphic" in2="effect1_backgroundBlur_1_421" result="shape"/>
</filter>
<filter id="filter3_b_1_421" x="-41.5166" y="160.941" width="563.39" height="128.465" filterUnits="userSpaceOnUse" color-interpolation-filters="sRGB">
<feFlood flood-opacity="0" result="BackgroundImageFix"/>
<feGaussianBlur in="BackgroundImageFix" stdDeviation="21"/>
<feComposite in2="SourceAlpha" operator="in" result="effect1_backgroundBlur_1_421"/>
<feBlend mode="normal" in="SourceGraphic" in2="effect1_backgroundBlur_1_421" result="shape"/>
</filter>
<filter id="filter4_b_1_421" x="385.253" y="176.445" width="100.705" height="97.4922" filterUnits="userSpaceOnUse" color-interpolation-filters="sRGB">
<feFlood flood-opacity="0" result="BackgroundImageFix"/>
<feGaussianBlur in="BackgroundImageFix" stdDeviation="21"/>
<feComposite in2="SourceAlpha" operator="in" result="effect1_backgroundBlur_1_421"/>
<feBlend mode="normal" in="SourceGraphic" in2="effect1_backgroundBlur_1_421" result="shape"/>
</filter>
<linearGradient id="paint0_linear_1_421" x1="318.056" y1="229.709" x2="314.551" y2="270.563" gradientUnits="userSpaceOnUse">
<stop stop-color="#04FFFE"/>
<stop offset="1" stop-color="#2AC870"/>
</linearGradient>
<linearGradient id="paint1_linear_1_421" x1="382.35" y1="49.5547" x2="290.057" y2="277.573" gradientUnits="userSpaceOnUse">
<stop stop-color="#04FFFE"/>
<stop offset="1" stop-color="#2AC870"/>
</linearGradient>
<linearGradient id="paint2_linear_1_421" x1="241.09" y1="-28.2524" x2="241.09" y2="226.7" gradientUnits="userSpaceOnUse">
<stop stop-color="white" stop-opacity="0.15"/>
<stop offset="1" stop-opacity="0.15"/>
</linearGradient>
<linearGradient id="paint3_linear_1_421" x1="260.174" y1="225.5" x2="260.174" y2="5.00001" gradientUnits="userSpaceOnUse">
<stop stop-color="#04FFFE"/>
<stop offset="1" stop-color="#2AC870" stop-opacity="0"/>
</linearGradient>
<linearGradient id="paint4_linear_1_421" x1="240.963" y1="196.831" x2="240.963" y2="251.973" gradientUnits="userSpaceOnUse">
<stop stop-color="white" stop-opacity="0.15"/>
<stop offset="1" stop-opacity="0.15"/>
</linearGradient>
<linearGradient id="paint5_linear_1_421" x1="204.674" y1="191.5" x2="204.674" y2="247" gradientUnits="userSpaceOnUse">
<stop stop-color="#04FFFE"/>
<stop offset="1" stop-color="#2AC870" stop-opacity="0"/>
</linearGradient>
<linearGradient id="paint6_linear_1_421" x1="440.764" y1="219.884" x2="431.405" y2="231.471" gradientUnits="userSpaceOnUse">
<stop stop-color="#04FFFE"/>
<stop offset="1" stop-color="#2AC870"/>
</linearGradient>
<clipPath id="clip0_1_421">
<rect width="16.7046" height="13.4922" fill="white" transform="translate(427.253 218.445)"/>
</clipPath>
</defs>
</svg>
